<svg xmlns="http://www.w3.org/2000/svg" xmlns:dc="http://dublincore.org/documents/dcmi-terms/" height="1189.033" version="1.2" viewBox="0 0 393.107 1189.033" width="393.107" overflow="inherit"><metadata><dc:description>Silhouette of Aurornis xui, processed by PhyloPic Tools (https://github.com/eweitz/phylopic-tools)</dc:description><dc:source>http://phylopic.org/image/b1cb08ee-062d-4101-b945-014e654f4316</dc:source><dc:creator>Gareth Monger</dc:creator><dc:license>http://creativecommons.org/licenses/by/3.0/</dc:license></metadata><path d="M226.678 18c7.086 6.117 14.138 11.734 21 18 6.674 6.093 12.098 14.374 21 18 2.717 6.651 6.492 14.01 11 19 2.741 3.035 6.364 4.938 10 7 2.572 5.428 3.886 12.114 8 16 .137 3.469-5.066 1.601-5 5 4.644 8.702 6.045 16.861 5 26 4.383 12.244 9.084 24.14 14 38 18.482 12.852 39.783 22.884 46 48 10.986 6.857 13.414 21.446 20 37 4.43 10.461 11.312 19.311 12 26 .666 6.489-2.622 10.774-3 16-.825 11.417 3.953 38.562 5 50 3.1 33.849.564 67.162-2 97-1.469 17.08-.953 36.393-3 51-1.143 8.153-1.446 17.952-2 24-5.143 56.16-6.678 116.952-19 164-7.11 27.148-20.37 52.882-37 73-4.408 5.334-13.791 11.785-17 19-4.877 10.968-4.881 30.269-7 44-5.735 37.164-14.315 67.256-26 99-2.297 6.241-6.106 12.774-7 18-3.502 20.471 3.375 36.025-3 53 .141 4.859 6.232 3.769 7 8-2.742.658-5.74-6.543-7-1 1.814 6.186 12.939 3.061 17 7-5.682 3.183-16.482-6.452-19 2-1.176 6.51 7.369 3.298 9 7-2.287 3.492-3.543-2.362-7-1 2 14.301.358 13.512-5 27 .705 10.815-3.092 21.253-4 32-1.244 14.733.821 30.754-10 39 .646 4.354 5.201 4.8 6 9-3.443 3.123-4.873-6.807-9-3-5.193 29.473-12.66 56.674-30 74-4.375-2.898-11.591 4.505-19 5-6.426.43-13.453-3.319-18-8-4.896 9.381-9.257.964-16 8-11.454-2.213-13.733-13.6-25-16-2.319-5.347-5.526-9.807-9-14-1.208-10.293-5.728-25.414-1-33-6.748-18.594-1.789-41.709-4-62-.773-7.094-4.221-13.742-5-21-3.356-31.272 8.628-62.435 4-92-3.285-20.991-17.289-41.959-21-61-1.269-6.51-1.59-14.396-2-21-.757-12.185 2.811-26.546-1-37-1.973-5.412-9.648-7.785-11-15 .789-6.211 5.805-8.195 7-14-2.163-7.846-5.904-19.418-6-26-5.174-6.672-12.619-12.433-17-20-3.889-6.718-4.039-14.639-7-22-3.896-9.688-10.436-18.881-15-29-4.697-10.414-7.492-21.029-13-31-5.606-24.89-11.453-55.314-17-85-1.123-6.009-1.615-12.933-3-19-.876-3.838-4.032-7.291-5-11-3.496-13.404-1.965-26.636-4-41-4.996-35.261-5.19-75.057-7-118-1.041-24.698-3.188-51.225 0-72 .675-4.4 3.138-8.588 4-13 1.286-6.583-.092-13.685 1-20 .977-5.649 4.508-13.969 7-21 4.76-13.429 9.576-25.641 16-37-.653-8.426 7.78-11.61 6-18 19.404-25.929 36.377-54.29 57-79-1.4-7.535.676-17.127-1-25-1.648-7.742-3.432-17.656-1-28-3.852-8.796-8.508-20.323-7-32 .534-4.138 4.123-8.831 5-14 .804-4.739-.363-6.656 2-12 4.897-11.073 14.779-13.432 21-21 9.5-1.5 17.023-4.977 24-9h44c16.867 4.799 33.426 9.906 47 18z" fill-rule="evenodd"/></svg>