<svg xmlns="http://www.w3.org/2000/svg" xmlns:dc="http://dublincore.org/documents/dcmi-terms/" height="1024" viewBox="0 0 665 1024" width="665"><metadata><dc:description>Silhouette of Accipitriformes, processed by PhyloPic Tools (https://github.com/eweitz/phylopic-tools)</dc:description><dc:source>http://phylopic.org/image/8353477c-dc5d-44b6-ab3c-9d0cdf4d64f7</dc:source><dc:creator>Steven Traver</dc:creator><dc:license>http://creativecommons.org/publicdomain/zero/1.0/</dc:license></metadata><path d="M665.5 0v1024H.5V811c3.491-7.576 15.487-7.98 23-4 2.002 3.673-2.68 5.649 0 10 11.908 4.759 26.663 6.671 35 15-2.979 13.809-35.744 20.321-18 36-3.719 6.384-12.888 8.709-20 4-2.781-1.886-.089-9.244-4-10-.107 10.559 2.622 20.356 16 18 18.693-3.293 25.02-32.389 42-36 1.104 11.796 12.624 9.125 17 16-5.254 4.359-15.742.635-21 3 4.732 1.969 10.844 5.551 17 5 3.527-.315 6.273-4.322 11-6 7.809-2.771 12.553-.845 17-7 2.975-4.117 3.29-9.319 4-14 17.689 3.014 32.074 4.427 46-4 7.395-4.475 12.629-10.793 19-15 9.234-6.099 15.467-4.713 24 1 4.938-4.395 6.973-11.694 13-15 12.723 3.654 17.306 20.636 27 24 2.145-1.915 2.191-5.214 1-8 6.256.618 9.577-1.305 12-2 .726-3.059-1.726-2.941-1-6 11.205 1.128 16.938 7.729 30 7 2.734-.91-1.773-3.504 1-5 18.045 5.622 34.6 12.734 49 22 8.018 43.428 14.379 94.146 23 136 2.949 14.315 9.745 28.496 20 37 5.833-4.5 11.729-8.938 13-18 7.176 6.824 8.898 19.101 16 26 4.552-3.617 5.885.229 12 0 2.873-5.629 3.75-14.553 4-20 9.647 6.019 9.346 21.987 25 22 5.121-2.88-1.31-17.309 4-20 6.146 6.854 8.534 17.467 21 18 3.359-10.132.849-17.258 1-28 6.45 5.642 14.108 16.991 26 11 2.281-11.183-.105-19.325-2-29 6.694 5.287 18.414 12.122 28 6 2.954-4.193-.951-8.636-1-13 7.01-4.36 15.149-4.139 16-12 .973-8.998-12.842-17.732-10-24 4.029 2.249 10.479 4.354 16 3 19.066-4.672 10.229-34.27-3-42 13.901 3.094 21.757-4.109 22-13 .423-15.491-18.704-22.406-22-33 5.26.26 9.316-.684 13-2 10.837-21.924-12.37-31.954-23-42 10.127 3.711 12.134-8.23 11-19-4.159-14.508-23.06-14.274-37-19 3.693-7.306 11.233-10.766 10-23-11.442-17.275-38.264-5.953-64-4-38.329 2.908-83.371-1.634-91-26 12.248-3.177 25.477 11.348 40 14 9.409 1.719 19.892-1.038 28-7-.026-4.359-.597-9.263 2-11 6.17-1.17 7.149 2.85 13 2 3.487-1.179 2.188-7.144 7-7 10.533 8.327 16.753-6.379 27-4 8.265-15.767-18.14-17.233-17-29 11.415-9.585 32.985-9.014 31-32 11.734-1.011 15.289-9.406 14-21 5.549-3.375 14.887.25 18-7-3.16-13.699 7.054-18.828 5-32 13.063-1.344 7.601-11.09 11-24 1.154-4.388 6.066-6.542 8-11 1.021-2.354-.167-5.832 1-9 3.028-8.222 12.123-9.955 7-23 1.797-3.358 5.894-6.476 7-11 2.449-10.011 1.507-22.742 4-33 1.959-8.061 12.073-15.497 6-27 6.888-4.352 9.853-10.848 6-19 12.453-5.553 6.732-22.327 2-32 7.063-3.41 14.642-1.592 16-9 .759-4.141-3.966-6.262-4-10-.048-5.344 9.214-13.554 2-21 5.663-5.549 7.823-15.747 3-24 4.979-6.688 12.533-10.801 15-20-.206-5.714-8.632-7.688-6-13 8.574-6.193 16.433-18.943 8-31 8.31-8.9 18.456-20.15 12-38 7.205-9.141 18.889-25.943 9-40 7.979-7.687 14.449-16.884 14-33-2.157-4.843-8.899-5.101-13-8 3.612-11.113 22.687-19.333 19-35-4.752-20.198-33.316 1.803-48 3 11.157-17.964 48.002-28.907 34-59-11.832 1.62-21.465 9.114-31 15-8.875 5.479-18.851 13.477-29 12 8.311-5.802 20.327-15.294 28-25 5.569-7.046 13.9-24.261 3-33-16.331 10.003-28.328 24.339-49 30 7.376-11.422 30.276-26.213 22-50h72z" fill="#fff"/><path d="M588.5 1c-13.2 5.051-21.355 19.558-33 25-3.783 1.768-9.128 1.536-13 3-35.811 13.542-65.934 41.321-90 68-24.897 27.599-53.484 53.14-71 86-25.26 21.013-36.301 41.198-49 71-6.926 16.254-14.525 37.125-19 58-4.777 22.3-6.645 45.537-11 68-7.035 36.277-20.756 66.889-34 97-10.661 24.238-21.755 46.113-38 67-7.265 9.34-15.749 21.651-24 28-10.171 7.825-19.694 11.938-28 19-4.715 4.009-8.188 6.87-13 10-4.416 2.871-9.497 4.457-15 8-7.301 4.701-11.551 12.858-20 18-4.623 2.813-10.76 5.389-16 8-4.355 2.17-10.097 6.217-15 8-4.651 1.691-10.33.484-15 2-14.246 4.623-32.858 20.16-39 36-1.198 3.089-.639 7.44-2 11-2.579 6.746-6.887 8.655-7 15-.177 9.848 6.131 18.612 12 21 1.021-20.545 27.304-12.744 48-7 12.377 3.436 24.563 7.631 35 8 7.541 4.402 14.576 7.738 24 13 6.303 3.52 20.854 8.136 22 15 1.705 10.202-11.513 18.007-14 21-8.734 10.51-13.649 22.956-35 18-16.316-3.787-24.574-12.711-33-25-2.842-4.145-7.476-7.867-9-11-1.646-3.384-1.026-8.028-3-11-8.189-12.332-33.313-21.618-40-2 3.952-6.026 19.052-10.738 25-3-.881 17.786-20.652 16.681-24 32-12.491-1.484-22.621 4.702-19 16-.686-14.854 16.896-13.561 22-5 .623 6.623-5.533 6.467-6 12 2.786 6.547 12.486 6.181 13 15-12.799-2.232-26.113-17.023-40-16-5.498.405-8.482 4.844-14 7V0h588v1z" fill="#fff"/><path d="M70.5 770c.496 5.496-5.705 4.295-4 11 .538 6.796 11.233 3.434 11 11-1.325 3.675-4.58 5.42-6 9-10.604-6.063-17.705-15.629-25-25 1.004-7.71 18.438-15.615 24-6zM91.5 810c-.314 1.352-1.424 1.91-1 4-10.144.811-14.651-4.015-19-9 6.574-3.508 18.695-2.524 20 5zM124.5 815c-2.007 1.93-11.44 3.892-13 0 2.887-3.109 10.05-3.825 13 0zM112.5 844c2.908 8.02-5.419 10.465-12 12-.548-9.118-7.079-12.254-9-20 9.976.569 10.682 10.352 21 8z" fill="#fff"/><path d="M571.5 50c20.672-5.661 32.669-19.997 49-30 10.9 8.739 2.569 25.954-3 33-7.673 9.706-19.689 19.198-28 25 10.149 1.477 20.125-6.521 29-12 9.535-5.886 19.168-13.38 31-15 14.002 30.093-22.843 41.036-34 59 14.684-1.197 43.248-23.198 48-3 3.687 15.667-15.388 23.887-19 35 4.101 2.899 10.843 3.157 13 8 .449 16.116-6.021 25.313-14 33 9.889 14.057-1.795 30.859-9 40 6.456 17.85-3.69 29.1-12 38 8.433 12.057.574 24.807-8 31-2.632 5.312 5.794 7.286 6 13-2.467 9.199-10.021 13.313-15 20 4.823 8.253 2.663 18.451-3 24 7.214 7.446-2.048 15.656-2 21 .034 3.738 4.759 5.859 4 10-1.358 7.408-8.937 5.59-16 9 4.732 9.673 10.453 26.447-2 32 3.853 8.152.888 14.648-6 19 6.073 11.503-4.041 18.939-6 27-2.493 10.258-1.551 22.989-4 33-1.106 4.524-5.203 7.642-7 11 5.123 13.045-3.972 14.778-7 23-1.167 3.168.021 6.646-1 9-1.934 4.458-6.846 6.612-8 11-3.399 12.91 2.063 22.656-11 24 2.054 13.172-8.16 18.301-5 32-3.113 7.25-12.451 3.625-18 7 1.289 11.594-2.266 19.989-14 21 1.985 22.986-19.585 22.415-31 32-1.14 11.767 25.265 13.233 17 29-10.247-2.379-16.467 12.327-27 4-4.812-.144-3.513 5.821-7 7-5.851.85-6.83-3.17-13-2-2.597 1.737-2.026 6.641-2 11-8.108 5.962-18.591 8.719-28 7-14.523-2.652-27.752-17.177-40-14 7.629 24.366 52.671 28.908 91 26 25.736-1.953 52.558-13.275 64 4 1.233 12.234-6.307 15.694-10 23 13.94 4.726 32.841 4.492 37 19 1.134 10.77-.873 22.711-11 19 10.63 10.046 33.837 20.076 23 42-3.684 1.316-7.74 2.26-13 2 3.296 10.594 22.423 17.509 22 33-.243 8.891-8.099 16.094-22 13 13.229 7.73 22.066 37.328 3 42-5.521 1.354-11.971-.751-16-3-2.842 6.268 10.973 15.002 10 24-.851 7.861-8.99 7.64-16 12 .049 4.364 3.954 8.807 1 13-9.586 6.122-21.306-.713-28-6 1.895 9.675 4.281 17.817 2 29-11.892 5.991-19.55-5.358-26-11-.151 10.742 2.359 17.868-1 28-12.466-.533-14.854-11.146-21-18-5.31 2.691 1.121 17.12-4 20-15.654-.013-15.353-15.981-25-22-.25 5.447-1.127 14.371-4 20-6.115.229-7.448-3.617-12 0-7.102-6.899-8.824-19.176-16-26-1.271 9.063-7.167 13.5-13 18-10.255-8.504-17.051-22.685-20-37-8.621-41.854-14.982-92.572-23-136-14.4-9.266-30.955-16.378-49-22-2.773 1.496 1.734 4.09-1 5-13.063.729-18.795-5.872-30-7-.726 3.059 1.726 2.941 1 6-2.423.695-5.744 2.618-12 2 1.191 2.786 1.145 6.085-1 8-9.694-3.364-14.277-20.346-27-24-6.027 3.306-8.063 10.605-13 15-8.533-5.713-14.766-7.099-24-1-6.371 4.207-11.605 10.525-19 15-13.926 8.427-28.311 7.014-46 4-.71 4.681-1.025 9.883-4 14-4.447 6.155-9.191 4.229-17 7-4.727 1.678-7.473 5.685-11 6-6.156.551-12.268-3.031-17-5 5.258-2.365 15.746 1.359 21-3-4.376-6.875-15.896-4.204-17-16-16.98 3.611-23.307 32.707-42 36-13.378 2.356-16.107-7.441-16-18 3.911.756 1.219 8.114 4 10 7.112 4.709 16.281 2.384 20-4-17.744-15.679 15.021-22.191 18-36-8.337-8.329-23.092-10.241-35-15-2.68-4.351 2.002-6.327 0-10-7.513-3.98-19.509-3.576-23 4v-6c5.518-2.156 8.502-6.595 14-7 13.887-1.023 27.201 13.768 40 16-.514-8.819-10.214-8.453-13-15 .467-5.533 6.623-5.377 6-12-5.104-8.561-22.686-9.854-22 5-3.621-11.298 6.509-17.484 19-16 3.348-15.319 23.119-14.214 24-32-5.948-7.738-21.048-3.026-25 3 6.688-19.618 31.811-10.332 40 2 1.974 2.972 1.354 7.616 3 11 1.524 3.133 6.158 6.855 9 11 8.426 12.289 16.684 21.213 33 25 21.351 4.956 26.266-7.49 35-18 2.487-2.993 15.705-10.798 14-21-1.146-6.864-15.697-11.48-22-15-9.424-5.262-16.459-8.598-24-13-10.438-.369-22.623-4.564-35-8-20.696-5.744-46.979-13.545-48 7-5.869-2.388-12.177-11.152-12-21 .113-6.345 4.421-8.254 7-15 1.361-3.56.802-7.911 2-11 6.142-15.84 24.754-31.377 39-36 4.67-1.516 10.349-.309 15-2 4.903-1.783 10.645-5.83 15-8 5.24-2.611 11.377-5.188 16-8 8.449-5.142 12.699-13.299 20-18 5.503-3.543 10.584-5.129 15-8 4.813-3.13 8.285-5.991 13-10 8.306-7.063 17.829-11.175 28-19 8.251-6.349 16.735-18.66 24-28 16.245-20.887 27.339-42.762 38-67 13.244-30.111 26.965-60.723 34-97 4.355-22.463 6.223-45.7 11-68 4.475-20.875 12.074-41.746 19-58 12.699-29.802 23.74-49.987 49-71 17.516-32.86 46.103-58.401 71-86 24.066-26.679 54.189-54.458 90-68 3.872-1.464 9.217-1.232 13-3 11.645-5.442 19.8-19.949 33-25V0h5c8.276 23.787-14.624 38.578-22 50zm-525 726c7.295 9.371 14.396 18.938 25 25 1.42-3.58 4.675-5.325 6-9 .233-7.566-10.462-4.204-11-11-1.705-6.705 4.496-5.504 4-11-5.562-9.615-22.996-1.71-24 6zm25 29c4.349 4.985 8.856 9.811 19 9-.424-2.09.686-2.648 1-4-1.305-7.524-13.426-8.508-20-5zm40 10c1.56 3.892 10.993 1.93 13 0-2.95-3.825-10.113-3.109-13 0zm-20 21c1.921 7.746 8.452 10.882 9 20 6.581-1.535 14.908-3.98 12-12-10.318 2.352-11.024-7.431-21-8z"/></svg>