<svg xmlns="http://www.w3.org/2000/svg" xmlns:dc="http://dublincore.org/documents/dcmi-terms/" height="1030.082" version="1.2" viewBox="0 0 742.652 1030.082" width="742.652" overflow="inherit"><metadata><dc:description>Silhouette of Aurornis xui, processed by PhyloPic Tools (https://github.com/eweitz/phylopic-tools)</dc:description><dc:source>http://phylopic.org/image/b1cb08ee-062d-4101-b945-014e654f4316</dc:source><dc:creator>Gareth Monger</dc:creator><dc:license>http://creativecommons.org/licenses/by/3.0/</dc:license></metadata><path d="M0 485c14.261-12.072 30.759-21.908 45-34 19.252-3.345 42.533-10.28 62-10 19.192.276 41.031 7.964 56-3 26.24-19.22 34.349-71.583 37-113 1.155-18.051-4.934-38.833-4-57 1.137-22.112 17.464-35.464 24-54 8.843-4.491 14.354-12.312 18-22 9.833-1.834 10.749-12.584 20-15 16.563-22.846 37.098-45.54 55-69 10.439-13.68 21.922-26.148 36-36 5.339-11.924 20.614-18.832 31-25 10.736-6.376 26.928-15.345 42-19 6.701-1.625 14.274-.268 22-2 8.914-1.999 16.973-9.311 26-13 13.447-5.495 26.412-8.726 40-11 2.73 3.46-.639 7.504 0 12 19.684 1.493 30.812-13.715 52-14 1.199 9.532-3.255 13.412-5 20 10.11 6.146 19.635-4.815 32-3 5.601 10.21-4.238 17.091-8 24-6.709-1.242-13.447-3.268-18 1 10.542 11.669-8.844 13.497-10 25 17.873 1.536 31.699-9.631 51-10 5.539 23.781-26.593 26.563-34 44 10.832 14.021-5.368 27.939-14 35 4.16 16.131-1.876 28.893-11 37 1.365 29.806-13.865 30.3-11 57-5.113 5.887-8.516 13.485-14 19 5.619 14.889-9.003 22.511-11 33-2.96 15.547 8.27 37.114-1 50 3.433 11.568 4.348 25.228-4 32 4.316 13.499-2.489 23.138-10 28 1.807 15.14-2.187 24.48-12 28 1.018 19.018-4.643 31.357-14 40 2.446 16.78-8.229 20.438-15 28 1.007 15.674-6.973 22.361-17 27 1.151 18.034-16.97 21.4-13 39 17.298 13.702 49.86 12.14 71 22 18.817-2.121 33.952 10.343 51 13 3.406.531 7.641-.746 11 0 3.42.76 6.651 4.066 10 5 6.492 1.81 14.259.994 21 3 6.705 1.995 14.508 5.163 24 7 15.547 3.009 30.372 7.262 47 10 20.51 3.377 41.102 5.595 56 15 4.631 6.197-.605 12.123-1 19 7.128 9.938 25.117 12.972 29 25 2.453 7.601-3.028 12.9 0 22-4.629 5.371-12.414 7.586-19 11 .431 10.244 13.24 13.416 13 21-.123 3.543-5.674 1.659-7 4 .226 5.226-.017 9.983-1 14-6.401 5.932-16.17 8.497-18 19-13.472 10.731-35.374 7.199-51 0-4.283-.617-4.077 3.256-8 3-10.807-1.122-17.118-2.362-28-5-4.162-1.009-5.988-4.989-10-7-5.231-2.622-10.501-4.031-16-7-30.963-16.717-70.796-35.998-106-49-8.14-3.006-17.418-7.933-26-12-17.682-8.379-34.052-16.492-58-13 7.423 14.102-3.901 24.384 4 37-.484 4.884-6.964 7.188-8 12-.871 4.044 2.23 7.241 2 11-.225 3.666-5.229 7.273-6 12-.646 3.957 1.515 8.651 1 11-1.846 8.428-13.781 13.016-10 24-10.362 5.637-5.94 26.06-23 25-2.872 5.795-2.628 14.705-10 16-2.821 15.485 2.485 28.687 1 40-.542 4.126-4.155 7.087-5 11-1.801 8.34 1.897 16.631-1 26-2.414 2.586-7.202 2.798-9 6 1.068 12.98 2.526 28.149-6 34 1.059 15.725 7.839 30.282-4 39 1.662 16.399 18.67 34.033 8 50-7.151-1.849-10.09-7.91-17-10-5.607 1.666-4.172 10.953-10 12-8.01 1.439-17.347-16.485-24-22-5.726-4.746-13.583-7.196-20-12-11.033-8.26-21.296-19.689-32-30-5.452-5.252-9.922-12.088-15-16-11.037-8.503-22.964-11.806-32-20-5.228-4.741-12.176-11.78-17-18-3.031-3.907-4.086-10.028-8-14-4.568-4.636-11.243-5.482-16-9-5.913-4.373-12.718-12.554-17-18-15.394-19.578-20.999-47.959-26-75-2.312-12.502-2.421-22.012-7-34-3.264-8.545-8.543-15.483-11-27-8.329-39.049-12.177-79.444 18-97 5.603-13.896 21.977-36.121 26-54 .656-2.917 1.772-10.058 1-13-2.755-10.492-19.863-10.615-24-22-16.21-6.819-30.838-18.563-47-29-15.527-10.026-28.749-24.268-44-31-4.67-2.062-13.255-2.477-19-1v-3z" fill-rule="evenodd"/></svg>