<svg xmlns="http://www.w3.org/2000/svg" xmlns:dc="http://dublincore.org/documents/dcmi-terms/" height="107.32" version="1.2" viewBox="0 0 314.909 107.32" width="314.909" overflow="inherit"><metadata><dc:description>Silhouette of Accipitridae, processed by PhyloPic Tools (https://github.com/eweitz/phylopic-tools)</dc:description><dc:source>http://phylopic.org/image/609de82e-3869-4760-8f71-e107d8e25e86</dc:source><dc:creator>Shyamal</dc:creator><dc:license>http://creativecommons.org/licenses/by/3.0/</dc:license></metadata><path d="M-69.776-112.217c-.176-.213-5.921 6.118-7.235 9.695-1.443 3.925-3.236 7.78-6.094 13.031-4.752 8.731-20.34-.85-29.094-1-11.691-2.036-22.434-6.29-34.718-11.344-3.109-.704-13.375-1.407-13.375-1.407l4.656 3.907-15.188-3.282-29.969-5.437s.937 4.139 5.188 5.687c2.21.805 12 2.938 12 2.938l-36.907-3.032s4.305 5.227 9.532 6.063c6.686 1.07 11.535.223 17.906 1.937 0 0-17.346.872-24.781.718-3.785-.078-12.594-.874-12.594-.874 1.884 3.81 8.959 5.004 11.312 5.187 8.866.692 19.188.968 19.188.968l-27.656 3.126c2.56 2.093 5.123 4.46 8.5 4.5 3.863.046 16.906-.781 16.906-.781s-5.826 1.678-8.344 2.281c-4.746 1.137-15.938 3.282-15.938 3.282s6.311 3.223 8.594 3.562c2.284.339 8.938.187 8.938.187l-7.781 3.344s4.512 1.563 6.5 2.031c5.243 1.042 10.532 1.764 15.625 3.532 8.772 4.721 18.275 9.018 26.5 11.905 6.801 2.388 15.552 3.808 23.25 6.032 13.036 3.374 28.158 3.358 40.25 2.781 3.409-.162 25.178-3.838 18.797-1.445l-19.249 29.637C-94.047-6.512-87.351-1.52-71.633-1.162c18.531.413 29.101-4.345 38.967-15.349l-20.446-29.637s14.192 3.277 17.601 3.439c12.093.577 27.215.593 40.25-2.781 7.697-2.224 16.448-3.644 23.249-6.031 8.225-2.888 17.728-7.186 26.5-11.906 5.093-1.768 10.381-2.489 15.626-3.532 1.987-.468 6.499-2.031 6.499-2.031l-7.781-3.344s6.654.152 8.938-.187c2.284-.338 8.593-3.562 8.593-3.562s-11.192-2.144-15.936-3.282c-2.519-.603-8.344-2.281-8.344-2.281s13.043.827 16.906.781c3.377-.04 5.939-2.407 8.5-4.5L59.833-88.49s10.322-.277 19.188-.969c2.353-.183 9.427-1.377 11.313-5.187 0 0-8.808.796-12.595.875-7.434.153-24.78-.719-24.78-.719 6.371-1.714 11.219-.867 17.905-1.937 5.226-.837 9.531-6.062 9.531-6.062l-36.906 3.031s9.79-2.132 12-2.938c4.251-1.548 5.189-5.687 5.189-5.687l-29.969 5.437-15.189 3.281 4.655-3.906s-10.266.701-13.374 1.406c-12.285 5.055-23.028 9.308-34.719 11.344-8.755.15-24.342 9.731-29.094 1-2.858-5.251-3.226-11.159-6.094-14.626l-6.67-8.07z" fill="#010101" stroke="#010101" stroke-width=".103" transform="matrix(.98097 0 0 .96505 226.15 108.352)"/></svg>