<svg xmlns="http://www.w3.org/2000/svg" xmlns:dc="http://dublincore.org/documents/dcmi-terms/" height="362.336" width="361.975"><metadata><dc:description>Silhouette of Acidimicrobiaceae, processed by PhyloPic Tools (https://github.com/eweitz/phylopic-tools)</dc:description><dc:source>http://phylopic.org/image/b42f17a9-dc84-4eb7-bbe3-404abde0d54f</dc:source><dc:creator>Matt Crook</dc:creator><dc:license>http://creativecommons.org/licenses/by-sa/3.0/</dc:license></metadata><g transform="translate(-101.616 -326.687)" color="#000" stroke="#000" stroke-width="2" stroke-linecap="round" stroke-linejoin="round"><rect height="47.092" ry="23.546" style="marker:none" transform="rotate(84.419)" width="144.16" x="583.407" y="-395.889" fill="#333" overflow="visible"/><rect height="47.89" ry="23.04" style="marker:none" transform="rotate(157.037)" width="182.074" x="-203.309" y="-482.166" fill="#333" overflow="visible"/><rect height="47.092" ry="23.546" style="marker:none" transform="rotate(-152.999)" width="144.16" x="-602.595" y="-310.278" fill="#333" overflow="visible"/><rect height="47.092" ry="23.546" style="marker:none" transform="rotate(-30.264)" width="144.16" x="-216.138" y="556.882" fill="#666" overflow="visible"/><rect height="46.006" ry="22.898" style="marker:none" transform="rotate(-91.517)" width="166.57" x="-669.537" y="183.86" fill="#333" overflow="visible"/><rect height="46.006" ry="22.898" style="marker:none" transform="rotate(8.685)" width="166.57" x="305.824" y="552.804" overflow="visible"/><path d="M442.693 426.913l9.44 96.608a23.495 23.495 0 0 1-21.145 25.724 23.495 23.495 0 0 1-25.724-21.145l-9.44-96.607c-3.236-11.46 2.238-40.717-22.169-28.543l-75.624 34.945c-11.841 5.471-25.779.363-31.26-11.474a23.495 23.495 0 0 1 11.474-31.26l88.085-40.784c42.514-17.246 69.75-6.203 76.363 72.536z" style="marker:none" overflow="visible"/></g></svg>