<svg xmlns="http://www.w3.org/2000/svg" xmlns:dc="http://dublincore.org/documents/dcmi-terms/" height="1052.362" width="744.094"><metadata><dc:description>Silhouette of Acoelomorpha, processed by PhyloPic Tools (https://github.com/eweitz/phylopic-tools)</dc:description><dc:source>http://phylopic.org/image/6c1515ce-1dd2-4a20-84a1-6d04466b2d7d</dc:source><dc:creator>Mali&apos;o Kodis, traced image from the National Science Foundation&apos;s Turbellarian Taxonomic Database</dc:creator><dc:license>http://creativecommons.org/licenses/by-nc-sa/3.0/</dc:license></metadata><path d="M441.583 75.965c-11.07-2.076-18.668-8.458-33.835-2.115-15.167 6.344-52.502 19.03-79.336 41.232-26.834 22.202-85.17 83.522-102.67 112.067-17.501 28.546-50.17 70.835-56.003 89.865-5.833 19.03-30.334 75.064-36.168 107.838-5.833 32.774-9.333 80.35-7 113.124 2.333 32.775 8.167 90.922 16.334 119.468 8.167 28.545 28.001 79.292 45.502 104.666 17.5 25.374 42.001 64.491 64.169 84.579 22.167 20.087 79.336 58.148 101.504 71.892 22.167 13.744 46.793 30.335 73.502 39.118 22.238 7.312 46.692 14.22 70.003 10.572 19.728-3.087 45.244-9.524 52.502-26.431 1.337-3.116 4.667-6.343-3.5-9.515-8.167-3.172-35.002-3.172-36.168-8.458-1.167-5.286-4.667-8.458 7-12.687 11.667-4.229 24.501-1.057 29.168 4.23 4.667 5.285 12.834 19.03 12.834-7.402 0-26.43-4.667-57.09-32.668-77.178-28.001-20.087-80.503-50.747-101.504-62.377-21-11.63-50.169-33.831-51.335-83.521-1.167-49.69 11.667-104.666 9.333-123.697-2.333-19.03 4.667-34.888-11.667-40.174-16.334-5.287-17.5-23.26-17.5-23.26s17.5 14.802 25.667 8.458c8.167-6.343 11.667-3.171 12.834-19.03 1.167-15.858 0-53.919 3.5-87.75 3.5-33.832 10.5-74.007 15.167-83.522s7-20.087-18.667-19.03c-25.668 1.057-45.502-1.057-61.836 6.343-16.334 7.4-30.334 6.344-36.168-5.286-5.833-11.63 4.667-24.316 22.168-22.202 17.5 2.115 40.775 9.49 52.859 9.887 12.203.4 28.37-.086 39.311-4.6 12.32-5.085 25.668-19.031 35.001-42.29 9.334-23.26 17.98-44.799 25.668-67.663 1.756-5.223 3.88-10.405 4.667-15.859 1.457-10.115 1.509-20.531 0-30.66-2.159-14.488-1.838-31.591-12.834-42.289-4.779-4.649-12.969-5.056-19.834-6.343z" stroke="#000" stroke-width="4.508"/></svg>