<svg xmlns="http://www.w3.org/2000/svg" xmlns:dc="http://dublincore.org/documents/dcmi-terms/" height="600" viewBox="0 0 800 600" width="800"><metadata><dc:description>Silhouette of Actinistia, processed by PhyloPic Tools (https://github.com/eweitz/phylopic-tools)</dc:description><dc:source>http://phylopic.org/image/ff131fa9-0ac4-4e6d-8df9-c44226ea4e7c</dc:source><dc:creator>Steven Coombs</dc:creator><dc:license>http://creativecommons.org/publicdomain/zero/1.0/</dc:license></metadata><path d="M350.95 359.01l-.71.83c.99.69 2.11 1.25 3.36 1.68l.28-1.159c3.02 2.819 12.23 3.689 14.29 6.97 2.55 4.06-.73 9.84-3.04 12.01-2.62 2.47-7.55 5.17-13.57 5.26l.6-1c-2.96-.479-5.99-.89-9.36-.96l-.27 1.061c-6.15-1.311-16.95-8.41-21.34-12.811-4.65-4.659-8.09-11.439-13.96-13.37-5.03-1.649-11.23-1.029-17.09-.279-5.67.72-10.56.319-16.16.09-9.77-.39-17.63.5-26.01-.62-6.45-.86-13.78-3.2-20.88-6.38-5.84-2.62-16.89-7.26-24.25-11.061-4.7-2.42-12.66-6.89-9.66-12.079.79-1.37 1.95-1.49 2.25-2.91.42-2.011-.54-4.45-.35-6.57.65-7.3 5.81-13.91 10.2-18.6 6.11-6.53 11.77-10.96 19.9-14.33 1.63-.68 3.24-1.47 4.92-2.34 14.17-7.34 30.8-12.23 47.05-14.45 21.37-2.91 41.58-4.88 64.68-3.56l.01 1.09c2.03.71 3.02-1.37 4.08-2.4l-.92-.76c12.26-9.21 25.31-24.07 40.36-32.51 4.77-2.68 13-7.07 17.081-6.93l-.12 1.08c1.569-.13 2.729.15 4.08.24l-.12-1.11c2.96.5 3.91 5.64 4.479 8.89.63 3.6 1.271 7.87 1.8 11.13.521 3.19 1.75 7.77 1.511 10.18-.74 7.36-12.91 7.68-19.49 9.58-1.11.33-6.17 1.78-4.79 3.1 2.39 2.27 13.37-.64 17.91-1.25 9.8-1.31 17.27-.43 27.13.21 9.229.59 17.11 3.81 27.47 4.7l-.7.89c.5.82 3.301.85 2.641-1.44l-1.061-.1c7.681-6.44 16.71-16.04 26.79-22.13 8.73-5.28 17.41-11.44 26.41-15.48 8.59-3.86 14.32-8.08 22.79-9.49 4.16-.69 3.26 2.45 1.79 5.6-2.03 4.36-5.15 8.31-6.76 14.36-2.22 3.75-1.2 8.62-.96 12.72-.03.09-.061.17-.08.26-3.71 12.97-23.8 13.12-33.72 20.17-.061.05-.141.09-.2.13l-.2-1c-.87.82-4.19 2.04-3.84 3.12.37 1.14 2.62.64 4.08.24l-.12-.96c9.02-.06 16.31-2.04 24.66-2.51 9.31-.53 15.47-1.43 23.989-3.81 7.33-2.05 15.391-3.23 22.33-5.22 5.62-1.62 13.69-3.87 22.86-5.92 3.4-.76 6.91-2.02 9.73-2.15 10.859-.48 9.189 11.37 4.31 16.03-7.63 7.3-14.43 10.89-20.34 17.85-3.811 4.49-4.181 10.75-3.931 16.99.23 5.66-.329 10.81-.029 16.27.59 10.49.68 18.601-6.431 25.67-8.359 8.32-20.899 2.78-29.35.021-17.65-5.761-37.91-19.49-53.479-11.19l.039-1.07c-4.069.591-3.989 2.61-.239 3.12l.529-.77c4.341 1.54 9.171 1.41 13.631 2.689l-.721.96c1.5.82 3.561 1.08 5.04 1.921l.2-1c1.42.63 2.43 2.189 3.32 3.689 3.6 6.11 6.31 10.92 10.649 15.45 3.96 4.13 8.811 7.13 14.67 10.939l-.76.681c.01.31.311.33.24.72l1.18-.12c-3.62 3.41-11.8 2.73-15.569 2.41-20.79-1.78-42.24-14.66-60.46-24.94-5.99-3.38-8.721-5.1-14.641-3.989-2.399.439-4.729.67-6.84 1.649l.09-.93c-1.62.84-4.17.48-4.56 1.68-.49 1.521 2.649 1.021 4.08 1.681l-.04-1.07c11.02 4.81 21.989 6.27 31.489 13.93 2.98 2.41 6.891 5.66 4.631 9.061-2.421 3.64-12.74 8.489-16.11 9.68-8.01 2.81-16.34 2.72-26.92 2.17-8.78-.46-16.48-8.899-20.061-16.74-.8-1.729-1.449-4.46-3.01-8.17-1.02-2.43-1.359-5.479-4.08-5.26-6.439.54-14.42 1.271-20.65 1.43-5.24.141-11.49.82-17.36.721-5.8-.101-12.42-.641-17.05-.051l.12-1.14h-3.36l-.007 1.086z"/><path d="M540.8 373.52c1.53.23 3.181 2.79.96 3.36l-.5-1.08-1.18.12c.07-.39-.23-.41-.24-.72l.76-.681.2-.999zM512.72 343.76l-.76.681-.2 1c-1.479-.841-3.54-1.101-5.04-1.921l.721-.96v-1.199c2.369.189 4.369.749 5.279 2.399zM500 275.84v.24l-.84.48.12.96c-1.46.4-3.71.9-4.08-.24-.351-1.08 2.97-2.3 3.84-3.12l.2 1 .76.68zM494.48 338.96v.24l-.671.67-.529.77c-3.75-.51-3.83-2.529.239-3.12l-.039 1.07 1 .37zM464.24 269.12c.66 2.29-2.141 2.26-2.641 1.44l.7-.89-.46-1.03c.18-.22.44-.36.72-.48l.62.86 1.061.1zM444.32 351.68v.24l-1 .37.04 1.07c-1.431-.66-4.57-.16-4.08-1.681.39-1.199 2.939-.84 4.56-1.68l-.09.93.57.751zM406.64 222.08l-.359 1.05.12 1.11c-1.351-.09-2.511-.37-4.08-.24l.12-1.08-.12-1.08c1.219-.82 3.429-1.1 4.319.24zM355.04 359.84v.24l-1.16.28-.28 1.159c-1.25-.43-2.37-.989-3.36-1.68l.71-.83.01-1.09h3.36l-.12 1.14.84.781zM352.16 383.6l-.6 1 .12 1.16c-3.79.11-7.35-.01-9.84-1.2l.69-.859.27-1.061c3.37.07 6.4.48 9.36.96zM345 262.36l.92.76c-1.06 1.03-2.05 3.11-4.08 2.4l-.01-1.09-.71-.83c1.13-.87 2.34-1.66 3.6-2.4l.28 1.16z"/><g fill="none" stroke="#000" stroke-linecap="round"><path d="M511.96 344.44c1.42.63 2.43 2.189 3.32 3.689 3.6 6.11 6.31 10.92 10.649 15.45 3.96 4.13 8.811 7.13 14.67 10.939" stroke-width="1.678"/><path d="M493.48 338.59c15.569-8.3 35.829 5.43 53.479 11.19 8.45 2.76 20.99 8.3 29.35-.021 7.11-7.069 7.021-15.18 6.431-25.67-.3-5.46.26-10.609.029-16.27-.25-6.24.12-12.5 3.931-16.99 5.91-6.96 12.71-10.55 20.34-17.85 4.88-4.66 6.55-16.51-4.31-16.03-2.82.13-6.33 1.39-9.73 2.15-9.17 2.05-17.24 4.3-22.86 5.92-6.939 1.99-15 3.17-22.33 5.22-8.52 2.38-14.68 3.28-23.989 3.81-8.351.47-15.641 2.45-24.66 2.51" stroke-width="1.711"/><path d="M507.44 342.56c-4.46-1.279-9.29-1.149-13.631-2.689" stroke-width="1.981"/><path d="M533.24 254.6c-.03.09-.061.17-.08.26-3.71 12.97-23.8 13.12-33.72 20.17-.061.05-.141.09-.2.13" stroke-width="1.816"/><path d="M534.2 241.88c.399 2.48.91 11-.8 12.64-.04.04-.12.04-.16.08" stroke-width=".756"/><path d="M534.2 241.88c-2.22 3.75-1.2 8.62-.96 12.72" stroke-width="1.047"/><path d="M463.18 269.02c7.681-6.44 16.71-16.04 26.79-22.13 8.73-5.28 17.41-11.44 26.41-15.48 8.59-3.86 14.32-8.08 22.79-9.49 4.16-.69 3.26 2.45 1.79 5.6-2.03 4.36-5.15 8.31-6.76 14.36" stroke-width="1.638"/><path d="M443.75 350.93c2.11-.979 4.44-1.21 6.84-1.649 5.92-1.11 8.65.609 14.641 3.989 18.22 10.28 39.67 23.16 60.46 24.94 3.77.32 11.949 1 15.569-2.41" stroke-width="1.738"/><path d="M406.28 223.13c2.96.5 3.91 5.64 4.479 8.89.63 3.6 1.271 7.87 1.8 11.13.521 3.19 1.75 7.77 1.511 10.18-.74 7.36-12.91 7.68-19.49 9.58-1.11.33-6.17 1.78-4.79 3.1 2.39 2.27 13.37-.64 17.91-1.25 9.8-1.31 17.27-.43 27.13.21 9.229.59 17.11 3.81 27.47 4.7" stroke-width="1.824"/><path d="M443.32 352.29c11.02 4.81 21.989 6.27 31.489 13.93 2.98 2.41 6.891 5.66 4.631 9.061-2.421 3.64-12.74 8.489-16.11 9.68-8.01 2.81-16.34 2.72-26.92 2.17-8.78-.46-16.48-8.899-20.061-16.74-.8-1.729-1.449-4.46-3.01-8.17-1.02-2.43-1.359-5.479-4.08-5.26-6.439.54-14.42 1.271-20.65 1.43-5.24.141-11.49.82-17.36.721-5.8-.101-12.42-.641-17.05-.051" stroke-width="1.79"/><path d="M353.88 360.36c3.02 2.819 12.23 3.689 14.29 6.97 2.55 4.06-.73 9.84-3.04 12.01-2.62 2.47-7.55 5.17-13.57 5.26" stroke-width="1.885"/><path d="M345 262.36c12.26-9.21 25.31-24.07 40.36-32.51 4.77-2.68 13-7.07 17.081-6.93" stroke-width="1.783"/><path d="M346.89 358.25c1.4-.11 2.76.31 4.06.76" stroke-width="1.741"/><path d="M342.53 383.7c-6.15-1.311-16.95-8.41-21.34-12.811-4.65-4.659-8.09-11.439-13.96-13.37-5.03-1.649-11.23-1.029-17.09-.279-5.67.72-10.56.319-16.16.09-9.77-.39-17.63.5-26.01-.62-6.45-.86-13.78-3.2-20.88-6.38-5.84-2.62-16.89-7.26-24.25-11.061-4.7-2.42-12.66-6.89-9.66-12.079.79-1.37 1.95-1.49 2.25-2.91.42-2.011-.54-4.45-.35-6.57.65-7.3 5.81-13.91 10.2-18.6 6.11-6.53 11.77-10.96 19.9-14.33 1.63-.68 3.24-1.47 4.92-2.34 14.17-7.34 30.8-12.23 47.05-14.45 21.37-2.91 41.58-4.88 64.68-3.56" stroke-width="1.795"/></g></svg>