<svg xmlns="http://www.w3.org/2000/svg" xmlns:dc="http://dublincore.org/documents/dcmi-terms/" height="200.389" version="1.2" viewBox="0 0 231.826 200.389" width="231.826" overflow="inherit"><metadata><dc:description>Silhouette of Actiniidae, processed by PhyloPic Tools (https://github.com/eweitz/phylopic-tools)</dc:description><dc:source>http://phylopic.org/image/759759f0-a1c7-43b5-ac6b-df06a7f46a26</dc:source><dc:creator>T. Michael Keesey</dc:creator><dc:license>http://creativecommons.org/publicdomain/zero/1.0/</dc:license></metadata><path d="M172.598 17.14c-5.332 4.5-8.9 9.25-10.699 14.25-1.834 4.966-2.75 11.15-2.75 18.55v5.15c.033.867.1 1.65.199 2.35.434-.467.867-.917 1.301-1.35 1.867-2.1 5.799-4.833 11.799-8.2 5.967-3.367 11.352-5.3 16.15-5.8 4.768-.5 5.018 0 .75 1.5-2.232.767-4.865 2.2-7.9 4.3-3.066 2.1-5.082 3.5-6.049 4.2l-.25.3c.367-.067 2.867-1.1 7.5-3.1 4.133-1.8 7.699-2.7 10.699-2.7l7.1.05c1.867.033 3.701.35 5.5.95.334.1.785.233 1.352.4.533.167 1.232.333 2.1.5.834.2 2.016.784 3.549 1.75l11.301-1.25c5.268-1.066 2.684.583-7.75 4.95 2.867 4.3 3.367 5.783 1.5 4.45-.367-.5-.75-.967-1.15-1.4a8.325 8.325 0 0 0-2.449-1.85l-3.951 1.6a773.575 773.575 0 0 0-7.449 3.45c-2.301.6-5.934 1.883-10.9 3.85-4.967 2-7.5 3.566-7.6 4.7-.1 1.1-.551 1.9-1.35 2.4v.25c2.799-.1 8.283-1.034 16.449-2.8 2.268-.967 4.4-.967 6.4 0 1.301 1.533 2.949 2.883 4.949 4.05 3.168 1.833 7.184 3.833 12.051 6s7.684 3.783 8.449 4.85c.734 1.067.4 1.334-1 .8a6.232 6.232 0 0 0-1.299-.35c-1.301-.467-2.6-.667-3.9-.6l4.5 3.3c3 2.333 1.816 2.399-3.551.2a16.164 16.164 0 0 0-6.1-2.101c-3.5.134-6.916-.15-10.25-.85-2.1-.3-4-1.05-5.699-2.25l-1.801.2a62.955 62.955 0 0 1 6.551 3.25 43.133 43.133 0 0 1 7.949 6c1.1 1.366 2 2.816 2.701 4.35.566 1.3 1.365 3.75 2.398 7.349.834 3.034 1.768 5.384 2.801 7.051-.133.399-.301.649-.5.75-3.1-1.634-5.434-4.467-7-8.5-1.666-4.367-3.5-7.266-5.5-8.7-1.1-.867-2.051-1.634-2.85-2.3a41.304 41.304 0 0 0-7.35-4.551c-.668-.3-1.316-.6-1.951-.899a98.501 98.501 0 0 0-4.9-1.5c-.533.033-1.148.033-1.85 0-.066.666-.066 1.7 0 3.1-.033.267-.082.5-.15.7 6.602 4.667 10.25 7.316 10.951 7.95 2.699 2.434 5.867 5.066 9.5 7.899 6.566 5.134 9.9 7.75 10 7.851v.45a.597.597 0 0 1-.4.3c-3-.467-5.5-1.184-7.5-2.15a16.36 16.36 0 0 1-4-2.649l-.25.05c1.033 1.467 1.768 3.316 2.199 5.55.668 3.366 1.068 5.267 1.201 5.7-.166.467-.383.717-.65.75-1.9-.367-3.367-1.217-4.4-2.55-1.533-1.9-2.365-2.9-2.5-3-.166 9.267-.75 12.033-1.75 8.3-.299-3.134-.916-5.467-1.85-7-1.367-2.233-3.633-3.834-6.801-4.8.801 1.767 1.568 3.816 2.301 6.149.768 2.4 1.883 5.95 3.35 10.65 2.168 4.133.051 2.017-6.35-6.351-.566 1.367-1.033 3.467-1.4 6.301-.332 2.267-.615 2.833-.85 1.699-.232-1.133-.316-2.716-.25-4.75.033-2.033.1-4.1.199-6.199-.699-.9-1.365-1.767-2-2.601l-2.75-3.899c-1.066-1.567-1.949-2.983-2.648-4.25.299 1.199.75 2.616 1.35 4.25 1.834 4.866 3 8 3.5 9.399.5 1.4-.633.851-3.4-1.649-2.801-2.534-4.434-4.5-4.9-5.9-.5-1.434-.832-2.217-1-2.35v.5c-.633 2.966-1.232 5.533-1.799 7.699a18.77 18.77 0 0 1-1.852 5.601c-1.666 3.166-2.066 1.3-1.199-5.601.801-6.633.666-12.449-.4-17.449-.5-.301-1-.584-1.5-.851l-3.949-1.849c-.033.467.016 1.049.15 1.75.1.666.148 1.55.148 2.649-.033 1.101-.699 1.75-2 1.95-1.299.2-2.582-.166-3.85-1.1-.033.7-.049 1.399-.049 2.1 0 1.834.1 3.45.299 4.851.168 1.366.617 3.066 1.35 5.1.701 2 .684 2.566-.049 1.7-1.301-1-2.484-3.084-3.551-6.25v.8c0 .967-.217 2.717-.65 5.25-.5 2.7-.932 4.333-1.299 4.9.834.933 1.65 1.85 2.449 2.75.701 0 .934.267.701.8.467.566.934 1.116 1.398 1.649.5.034.967.067 1.4.101.268.399.334 1 .201 1.8.299.366.6.717.898 1.05.434.033.834.066 1.201.101.232.3.166.683-.201 1.149.168.167.334.351.5.55.4.101.852.233 1.352.4l.299.4c.367.466.418.949.15 1.449l.9 1.101c.266.066.566.133.9.2.133.033.25.066.35.1.266.3.416.833.449 1.6-.166-.033-.166.067 0 .301l.65.899c.768 1 1.5 1.983 2.199 2.95.367.134.535.366.5.7.201.3.418.6.65.899.168 0 .334.017.5.051l.15-.101c.1.033.15.316.15.851v.399a90.217 90.217 0 0 1 1.949 3.101c.168 0 .334.017.5.05a.743.743 0 0 0-.299.25c.467.833.898 1.616 1.299 2.35.135.233.268.483.4.75l.15.15v.149c.299.7.617 1.4.949 2.101.301.1.484.184.551.25-.133.1-.25.2-.35.3a49.072 49.072 0 0 1 1.898 5.65c.434.199.551.699.352 1.5.266 1.166.5 2.366.699 3.6.133.134.268.283.4.45 0 .267-.066.483-.201.649.467 3.267.701 6.717.701 10.351 0 1.7-.666 4.2-2 7.5-1.934 4.666-4.367 7-7.301 7-1.434 0-2.615-.184-3.549-.55-2.367 2.666-5.268 4-8.701 4-.934 0-1.783-.034-2.549-.101-2.967 3.934-6.533 5.9-10.701 5.9-4.1 0-6.816-.834-8.15-2.5-2.033.467-4.232.7-6.6.7-6.833 0-11.75-1.917-14.75-5.75a12.038 12.038 0 0 1-2.1-4.051c-.267-.899-.4-1.583-.4-2.05 0-.533.017-1.05.05-1.55v-.25c-.566-.066-.85-.417-.85-1.05 0-.634.366-1.783 1.1-3.45.7-1.7 1.084-2.783 1.15-3.25.033-.467-.15-.667-.55-.6-.434.1-.65-.067-.65-.5 0-.434.116-.851.35-1.25.167-.334.217-.567.15-.7h-1.7c-.6 1.267-1.517 1.733-2.75 1.399-1.166-.933-2.399-1.566-3.7-1.899-.399-.134-.85-.25-1.35-.351-2.934-.6-4.634-.166-5.1 1.301-1.301-.134-2-.2-2.101-.2-.333 0-1.267.666-2.8 2-1.5 1.3-2.783 2-3.85 2.1-1.101.101-9.4-2.133-24.9-6.7-.033-.366-.066-.583-.1-.649-.567-.934-1.934-1.05-4.101-.351-1.434-.533-2.533-1.767-3.3-3.699l-.1-.5c-2.801-.167-5.067-.867-6.801-2.101-.6.101-1.216.15-1.85.15-1.067 0-2.017-.066-2.85-.2-.967-1.134-2.717-2.634-5.25-4.5-.2-.167-.4-.316-.6-.45-.667-.833-.933-1.666-.8-2.5.067-.833.167-1.383.3-1.649.133-.301-.3-.983-1.3-2.051-1-1.1-1.333-1.816-1-2.149.333-.367.583-.634.75-.8.833 0 1.083-.233.75-.7l-.2-.3a4.816 4.816 0 0 1-.35-.101c-.633-.633-.2-1.267 1.3-1.899-.833-.801-1.35-1.7-1.55-2.7.1-.2.2-.384.3-.55-.1-.267-.25-.534-.45-.801-.867-.899-.216-2.199 1.95-3.899.267-.033.367-.233.3-.601-.1-.366.317-.75 1.25-1.149.5-.066.817-.233.95-.5l-.1-.4c.1-1 .8-1.666 2.1-2 .2.2.533.5 1 .9l.3-.3c.034-.067.1-.101.2-.101v-.75c0-.267-.017-.583-.05-.95.1-1.1.783-1.616 2.05-1.55.267.033.6.066 1 .101.2-.301.3-.551.3-.75l-.1-.2.05-.05c.4-.767.816-1.134 1.25-1.101.434 0 .684.033.75.101a.633.633 0 0 0 .3-.351.533.533 0 0 1 .101-.149c.333-.2.666-.384 1-.551a632.928 632.928 0 0 0-1.101-3.85v-4.05a116.107 116.107 0 0 1-.399-2.351c-.2-.5-.483-.883-.851-1.149.066-.601.267-1.467.601-2.601.333-1.166.149-2.6-.551-4.3-1.6-1.666-2.716-3.017-3.35-4.05l-.75-.8c-.3.066-.533.267-.7.6-.1.334-.183.55-.25.65h-1.8a1.44 1.44 0 0 1-.35-.101c-.1-.066-.15-.35-.15-.85 0-.467.1-.684.3-.65.567.067.967.084 1.2.051-1.367-.567-2.383-1.2-3.05-1.9-.667-.7-.817-1.3-.45-1.8l-1.5.25c0-1.334-.467-2-1.4-2-.5 0-.667-.134-.5-.4.267-.333.4-.55.4-.649-.1 0-.217.133-.35.399-.133.233-.433.351-.9.351-1.567 0-3.383-1.467-5.45-4.4-1.867-3.066-2.883-4.75-3.05-5.05-2.367 1.267-3.85 3.033-4.45 5.3-.2.8-.3 2.467-.3 5 0 4.3.867 8.417 2.6 12.35 3.667 8.334 5.65 12.95 5.95 13.851l-.25.45c-4.5-1.634-8.183-5.95-11.05-12.95-1.9-4.601-3.017-8.851-3.35-12.75l-.05-2c-3.133-2-4.65-4.684-4.55-8.05.063-3.366-.137-5.433-.6-6.2-.456-.77-.64-1.694-.55-2.775.086-1.08.802-2.238 2.15-3.475-.233-.133-1.233-.65-3-1.55-5.558-.812-8.058-.029-7.5 2.35.934 3.667.75 4.8-.55 3.4-2.3-1.267-3.7-2.167-4.2-2.7-.5-.534-.75-1.467-.75-2.8 0-1.333.367-2.717 1.1-4.15.8-1.567 1.75-2.583 2.85-3.05 2.467-.4 4.233-.2 5.3.6 1.233.9 2.3 1.35 3.2 1.35.833 0 2.267-.066 4.3-.2-.933-.733-4.533-2.483-10.8-5.25-.767-.333-2.3-1.184-4.6-2.55-2.3-1.333-3.783-2.533-4.45-3.6-.7-1.066-.617-1.367.25-.9l4.8 2.25c2.277.831 6.644 2.172 13.1 4.025 6.456 1.853 10.256 3.695 11.4 5.525.033.4.05.183.05-.65 0-4.333-2.683-8.333-8.05-12-5.367-3.7-13.367-5.917-24-6.65-.7 0-.967-.217-.8-.65.133-.467.933-.967 2.4-1.5 1.467-.567 5.217-.633 11.25-.2 6 .434 10.117 1.333 12.35 2.7 2.233 1.333 3.833 2.65 4.8 3.95l.05-3.3c0-4.6-2.017-8.617-6.05-12.05-.467-.333-.917-.65-1.35-.95a204.688 204.688 0 0 1-4.6-3.4 2638.17 2638.17 0 0 1-5.55-4.15c-1-.733-2-1.55-3-2.45-5.6-3.833-2.683-3.3 8.75 1.6l4.5 2.4c.2.1.417.2.65.3.233.133.467.25.7.35.533.3 1.2.684 2 1.15.566.3 1.1.55 1.6.75.033.033.066.05.1.05.434.167.85.317 1.25.45l5.35 3.05c.545-.756.437-2.056-.325-3.9a52.239 52.239 0 0 0-.725-2.6l-1.45-4.35-.1-.3c-.2-.567-1.1-3.3-2.7-8.2-1.667-4.9-1.65-6.183.05-3.85.367.333.717.684 1.05 1.05 2.8 2.633 4.7 5.767 5.7 9.4.167.6.367 1.233.6 1.9l1 3.3c.967-.867 1.95-1.417 2.95-1.65 1-.267 2.833.383 5.5 1.95 2.667 1.533 4.183 2.917 4.55 4.15.867-.767 1.3-1.333 1.3-1.7 0-.434-.867-2.583-2.6-6.45-.333-.7-.633-1.367-.9-2l-2.8-5.35-4.3-.15c-4.434-1-3.55-1.65 2.65-1.95.5-.133.983-.333 1.45-.6-2.2-1.833-3.417-2.633-3.65-2.4-2.422-1.237-1.755-1.437 2-.6 3.758.836 6.558 2.386 8.4 4.65a40.98 40.98 0 0 1 4.75 7.35h.7c0-.267.184-2.583.55-6.95a43.312 43.312 0 0 0 0-10.6c.4-1.667 1.2.083 2.4 5.25a1154.25 1154.25 0 0 1 2.6 11.65c.601 1.7 1.351 3.233 2.25 4.6-1.5-8.267-2.25-12.933-2.25-14 0-3.033 1.017-4.633 3.05-4.8.867-.067 1.884.117 3.051.55-.2-1.1-.65-2.467-1.351-4.1-.366-.8-.7-1.517-1-2.15l-1.25-2.95c-.467-.733-.366-.934.3-.6.634.3 1.667 1.483 3.101 3.55a83.73 83.73 0 0 1 1.2 1.8c1.899 3 2.85 4.983 2.85 5.95v.6c.066.033.15.083.25.15 5.4 3.733 9.684 8.15 12.85 13.25 1.767-7.367 2.65-12 2.65-13.9 0-1.233-.05-2.017-.15-2.35-.3-.767-1.083-1.667-2.35-2.7 0-.1.05-.167.15-.2l.1-.1c2.066.167 3.45 1.15 4.15 2.95.399 1.033.6 2.583.6 4.65 0 .1-.184 2.017-.55 5.75l.8-.9c.167-.5.5-1.184 1-2.05 1-1.767 1.616-2.966 1.85-3.6.267-.767.417-1.817.45-3.15l-.149-1.55c-.301-3.8-.483-6.8-.551-9-.033-.6-.05-1.133-.05-1.6-.133-2.233.117-2.433.75-.6.601 1.8 1.334 4.1 2.2 6.9.833 2.767 1.25 4.95 1.25 6.55 0 1.967-.35 4.25-1.05 6.85-.634 2.3-1.334 4.083-2.101 5.35.101.433.15.95.15 1.55 0 .267-.167 1.533-.5 3.8-.233 1.667-.384 3.034-.45 4.1 2.5-7.967 3.9-13.367 4.2-16.2-.3-2.267-.033-2.567.8-.9.8 1.633 1.334 3.017 1.601 4.15.267 1.1-.267 4.55-1.601 10.35-1.333 5.967-2 9.467-2 10.5 0 2.067.45 5.833 1.351 11.3.8-1.833 1.449-3.85 1.949-6.05.767-3.6 1.15-8.35 1.15-14.25 0-.4-.167-1.483-.5-3.25-.333-1.733-.5-2.816-.5-3.25 0-.5.05-.8.15-.9.033-.033.066-.033.1 0 .934.767 1.866 2 2.8 3.7a8.86 8.86 0 0 1-.05-.85c0-3.133.417-5.75 1.25-7.85 1.066-2.633 2.917-4.95 5.55-6.95l.101-.05c.666-.4 1.033-.233 1.1.5.067.733-.417 1.967-1.45 3.7-1.033 1.7-1.55 3.383-1.55 5.05 0 3.533.483 6.95 1.45 10.25 1.533 5.167 2.55 9.083 3.05 11.75.134.767.233 1.917.3 3.45 3.667-7.967 5.5-13.167 5.5-15.6 0-.6-.25-1.383-.75-2.35-.5-1-.75-1.75-.75-2.25 0-.933.5-2.683 1.5-5.25 0-.533-.083-1.35-.25-2.45-.166-1.133-.25-1.9-.25-2.3 0-1.333.334-2.4 1-3.2a9.933 9.933 0 0 0 2-3.75c.167-.567.4-1.717.7-3.45.233-1.167.483-1.933.75-2.3.667.2 1.083.95 1.25 2.25.033.267.05 1 .05 2.2 0 2.1-.05 3.6-.149 4.5-.134.867-.617 2-1.45 3.4 1 .367 2.017-1 3.05-4.1.733-1.9 1.066-1.784 1 .35-.066 2.134-.316 4.034-.75 5.7-.434 1.666-1.35 4.05-2.75 7.15.366.067 1.017-.3 1.95-1.1.133-.133.283-.267.45-.4.3-1.033.666-2 1.1-2.9 3.8-8.1 5.884-12.617 6.25-13.55.767-3.967 1.184-3.85 1.25.35.033 4.167-.616 8.483-1.95 12.95-1.333 4.467-2 8.133-2 11 0 3.167.533 6.117 1.601 8.85.333-.467.733-.983 1.199-1.55.067-1.233.184-2.133.351-2.7.333-1.167 1.616-4.15 3.85-8.95.434-.967 1.467-3.717 3.101-8.25 1.268-3.5 2.316-5.833 3.15-7 1.232-4.1 1.65-3.933 1.25.5-.4 4.4-1.268 8.5-2.6 12.3-1.367 3.767-2.334 7.35-2.9 10.75-.367 2.133-.617 5.2-.751 9.2-.1 3.133-.2 5.633-.3 7.5 1.434-1.633 3.385-3.683 5.85-6.15.467-.433.934-.883 1.4-1.35 1.867-1.9 3.617-3.9 5.25-6 .301-4.9.967-8.483 2-10.75 1.5-3.3 4.084-6.25 7.75-8.85 11.071-7.665 14.821-9.615 11.255-5.848zm-24.401 49.25l3.75-2.25-.699-14.2-5.9 13.2 2.849 3.25zm33.75-9.25c5.967-4.767 9.434-7.45 10.4-8.05l.5-.25a53.53 53.53 0 0 0-12.5 6.95c-6.799 5.133-10.283 7.75-10.449 7.85l-.051.25c3.835-1.1 7.868-3.35 12.1-6.75zm26.801-5.301c-4.5-1.133-8.416-.783-11.75 1.05-.266.133-2.566 1.966-6.9 5.5l-.25.45c9.367-3.133 15.217-5.367 17.551-6.7l1.349-.3zm-182.5 35.45c-.066.733-.1 1.717-.1 2.95 0 .367.117 1.65.35 3.851.2-.7.434-1.367.7-2a12.625 12.625 0 0 1 2.65-3.851c-1.367-.166-2.567-.483-3.6-.95z" fill="#010101" fill-rule="evenodd"/></svg>