<svg xmlns="http://www.w3.org/2000/svg" xmlns:dc="http://dublincore.org/documents/dcmi-terms/" height="767.725" viewBox="0 0 967.24303 719.74225" width="1031.726"><metadata><dc:description>Silhouette of Adcrocuta eximia, processed by PhyloPic Tools (https://github.com/eweitz/phylopic-tools)</dc:description><dc:source>http://phylopic.org/image/f76a35c6-57b9-4646-b965-99110ef42474</dc:source><dc:creator>Zimices</dc:creator><dc:license>http://creativecommons.org/licenses/by-sa/3.0/</dc:license></metadata><path d="M723.187 0c-4.712-.033-8.496 3.318-13.882 11.145-4.596 6.677-6.71 8.682-9.811 9.303-5.307 1.061-6.417.995-5.602-.325 1.097-1.774-4.904-5.027-10.593-5.742-4.294-.54-5.09-.32-4.496 1.227.396 1.034.136 1.879-.579 1.879s-2.094.793-3.064 1.763c-.97.97-2.907 1.465-4.305 1.1-2.042-.534-2.391-.206-1.779 1.674.626 1.922.525 2.004-.568.463-1.11-1.564-1.76-1.608-3.918-.27-1.424.883-3.108 1.285-3.742.893-.635-.393-2.317.449-3.737 1.869-1.698 1.698-3.959 2.498-6.607 2.336-2.214-.136-5.291.166-6.838.672-1.808.59-2.813.41-2.813-.504 0-.783-1.89.445-4.2 2.728-6.32 6.245-8.064 7.42-8.932 6.014-.421-.68-.364-1.886.127-2.68.552-.894.34-1.105-.553-.553-.794.491-1.442 1.773-1.442 2.848 0 1.5-.393 1.628-1.69.553-.928-.771-3.178-1.525-5-1.676-1.82-.15-3.31-.801-3.31-1.445s-1.11-.167-2.466 1.06c-1.731 1.567-3.573 2.01-6.18 1.489-2.971-.595-3.871-.251-4.494 1.712-.429 1.35-1.445 2.455-2.258 2.456-.813 0-3.112 1.407-5.11 3.125-1.997 1.717-4.106 3.123-4.687 3.123-.58 0-1.06.703-1.064 1.562-.014 2.114-5.335 4.444-9.186 4.022-1.885-.207-3.418.405-3.853 1.54-.409 1.065-1.547 1.569-2.616 1.159-1.04-.4-3.006.386-4.365 1.746-1.36 1.36-3.228 2.47-4.152 2.47-.925 0-2.7 1.126-3.944 2.5-1.244 1.376-2.914 2.5-3.709 2.5-.795 0-2.687 1.156-4.203 2.569-2.493 2.323-2.941 2.383-4.699.625-2.342-2.343-2.399-2.346-5.57-.38-2.03 1.257-2.716 1.246-3.53-.06-.805-1.293-1.334-1.23-2.615.313-.883 1.064-2.16 1.934-2.836 1.934-.676 0-2.358 1.436-3.738 3.191s-2.788 2.915-3.127 2.576c-.339-.338-1.785.475-3.217 1.809-1.431 1.333-3.312 2.424-4.18 2.424-.867 0-2.04.827-2.605 1.837-.576 1.03-3.765 2.178-7.25 2.614-3.422.427-7.401.92-8.842 1.095-1.44.175-3.37.782-4.289 1.35-2.758 1.705-8.56 1.564-9.246-.225-.861-2.244-5.038-2.122-6.969.204-.855 1.03-2.332 1.875-3.279 1.875-.947 0-1.72 1.158-1.72 2.574 0 1.415-.53 2.248-1.174 1.85-.646-.4-1.63-.011-2.188.863-1.304 2.043-6.078 4.713-8.426 4.713-1.001 0-2.556 1.048-3.455 2.33-1.571 2.24-14.392 5.953-15.777 4.568-.36-.36-1.663.26-2.897 1.377-1.233 1.116-3.147 1.68-4.254 1.256-1.106-.425-3.073-.203-4.37.492-1.477.79-4.176.855-7.206.174-3.538-.795-5.47-.631-7.164.607-1.275.933-3.584 1.696-5.13 1.696-1.547 0-3.166.572-3.598 1.271-.432.699-1.316.942-1.965.541-.65-.401-4.272.17-8.05 1.268-3.78 1.098-8.693 1.878-10.92 1.732-2.229-.146-5.74.66-7.802 1.791-2.062 1.131-5.718 2.936-8.125 4.01-2.406 1.073-5.32 2.48-6.474 3.125-1.18.66-2.274.69-2.5.072-.221-.605-2.65-.313-5.4.65-2.75.964-6.793 1.762-8.983 1.772-2.19.01-5.563.62-7.496 1.355-1.933.736-9.703 1.847-17.268 2.471-7.564.624-16.847 1.692-20.629 2.375-3.78.683-11.937 1.828-18.125 2.545-10.912 1.264-19.862 2.578-51.25 7.52-8.25 1.299-19.5 3-25 3.78-10.63 1.51-22.902 4.6-25.045 6.304-1.633 1.299-18.135 5.717-25.58 6.847-3.093.47-6.187 1.288-6.875 1.819-.687.53-3.218 1.38-5.625 1.886-5.883 1.24-12.03 4.461-26.213 13.743-6.552 4.287-13.6 8.682-15.662 9.765-2.062 1.083-7.687 6.075-12.5 11.092-4.812 5.017-12.406 11.748-16.875 14.959-4.468 3.211-9.621 7.012-11.449 8.447-1.827 1.436-4.091 2.61-5.033 2.61-.942 0-2.676 1.125-3.854 2.5-1.177 1.375-2.989 2.5-4.027 2.5-1.038 0-1.887.523-1.887 1.162 0 .638-.703 1.904-1.562 2.812-3.687 3.898-9.223 11.985-11.213 16.381-1.182 2.612-3.055 5.652-4.16 6.758-1.106 1.106-1.738 3.047-1.406 4.314.331 1.268-.21 4.981-1.2 8.252-.99 3.271-2.065 9.883-2.39 14.696-.325 4.812-.837 12.406-1.135 16.875-.298 4.468-1.17 10.38-1.94 13.132-1.006 3.605-1.03 7.28-.082 13.125.725 4.466 1.324 10.477 1.329 13.358.005 2.881.572 5.585 1.26 6.01.687.424 1.25 1.873 1.25 3.216 0 1.344.501 3.42 1.115 4.614 3.384 6.586 4.223 10.85 4.359 22.17.12 10.061.66 13.475 2.766 17.5 9.293 17.754 9.26 17.68 9.26 19.984 0 1.04.62 1.89 1.38 1.89.76 0 2.49 1.407 3.842 3.126 1.352 1.718 3.542 3.125 4.867 3.125 1.325 0 2.41.634 2.41 1.41 0 .938 1.629 1.149 4.87.63 2.002-.32 3.455-.347 4.716-.038-.015-.082-.017-.257.034-.743v-.394c-.333.497-1.002 1.597-.04.01.016-.025.025-.034.04-.059-.003-1.752.008-3.504.005-5.256-.004-1.716-.032-3.433.016-5.148-1.065-.557-1.92-1.958-1.92-4.205v-2.154c0-.833.127-1.537.328-2.137-.207-.606-.328-1.33-.328-2.174v-2.045c-.24-.505-.242-.468-.228-1.424.005-.418-.34-1.116-.094-1.342 0-.202.104-.51.098-.707l-.002-.045c-.908-.763-1.242-2.236-.985-1.195-1.292-1.65-.818-.81-1.521-2.459-1.029-2.41.615-2.097 2.482-1.428.028-.253.062-.49.106-.703-.028-.017-.059-.03-.086-.048-1.592-1.07-2.564-2.972-3.518-4.557-.462-1.045-1.15-2.015-1.385-3.133-.007-.036-.003-.05 0-.064-1.378-1.054-1.355-1.055-2.543-4.141v-8.578c0-3.686 1.863-5.53 3.725-5.53s3.723 1.844 3.723 5.53v6.306c.269.303.677.91 1.341 2.124 2.365 4.318-.16 3.076 1.645 3.86.5.664 1.134 2.461 2.135 2.776.158.05-.402-.494-.246-.435.565.214 1.213.435 1.554.933.742 1.083 1.043 2.41 1.563 3.614-.625 2.25-.713 4.382-.559 6.673l.027.733c.148.078.148.165.01.252l.006.156c-.087-.005-.196-.034-.289-.045a5.306 5.306 0 0 1-.88.176c.422-.01.82.01 1.156.098.006.002-.007.286-.006.394 2.67 2.75 2.807 5.05 2.3 8.172-.158.006-2.01.09-3.51.158.003.075.014.14.014.217 1.663-.209 3.152-.333 3.496-.365-.038.238-.081.486-.127.734.144.263-.11.887-.095 1.262.061 1.51.074 3.015.064 4.525-.064 1.78-.026 3.563-.02 5.344.004 1.901-.01 3.802-.005 5.703.06 2.045-.729 3.324-1.864 4.451l.237.192-2.885 7.107c-3.443 8.484-10.737 16.892-23.658 27.272-5.238 4.207-10.174 8.439-10.97 9.404-3.426 4.148-15.268 11.85-21.985 14.299-9.773 3.563-12.906 7.499-13.985 17.568-.638 5.957-.325 9.514 1.243 14.15 2.266 6.705 12.761 22.378 21.789 32.538 13.991 15.746 33.588 42.045 35.79 48.03.886 2.407 1.635 7.917 1.665 12.243.053 7.612.245 8.068 5.896 14.11 13.54 14.475 37.381 26.36 44.854 22.36 3.092-1.654 5.476-1.045 10.699 2.73 2.65 1.915 6.107.51 6.107-2.483 0-1.304-1.171-3.858-2.601-5.676-3.737-4.75-2.597-5.755 4.094-3.602 3.227 1.04 6.743 1.555 7.812 1.145 2.317-.89 2.613-6.63.383-7.426-.86-.307-1.172-.979-.694-1.494.479-.515 3.72-.253 7.202.582 3.482.836 7.17 1.197 8.193.805 2.68-1.028 2.29-5.503-.639-7.332-3.568-2.229-3.089-3.515 1.006-2.696 6.379 1.276 8.53-5.89 2.315-7.708-12.78-3.74-37.508-14.19-42.725-18.055-6.835-5.066-15.564-15.287-28.824-33.752-9.402-13.092-11.206-17.197-12.399-28.196l-.806-7.43 4.78-2.165c2.627-1.193 14.34-5.319 26.028-9.168 11.688-3.85 22.657-7.895 24.375-8.989 12.287-7.82 30.385-28.543 34.948-40.015.894-2.25 2.09-4.376 2.658-4.727.567-.35 4.158 2.195 7.98 5.656 3.823 3.462 11.125 9.381 16.227 13.155 5.102 3.773 9.633 7.436 10.068 8.14.435.704 4.83 4.052 9.768 7.44 14.1 9.676 18.843 14.216 19.138 18.32.143 1.983.306 4.264.362 5.07.178 2.577 6.744 9.464 12.508 13.12 5.546 3.517 5.709 3.54 25.65 3.468 11.037-.04 22.318-.485 25.068-.988 4.949-.906 4.996-.97 4.762-6.178l-.236-5.263h7.463c9.352 0 10.504-1.946 5.117-8.649-2.549-3.171-3.608-5.635-3.16-7.348.536-2.05-.363-3.105-4.399-5.164-2.79-1.423-5.799-2.589-6.685-2.59-5.254-.002-30.486-15.447-38.776-23.734-1.877-1.877-6.92-4.69-11.207-6.254-9.81-3.577-16.288-7.65-25.215-15.855-6.507-5.982-8.721-10.467-5.998-12.15 1.045-.646 15.58.757 29.584 2.859 26.973 4.047 49.754 6.183 75 7.03 12.375.414 24.592 1.3 27.149 1.968 5.02 1.311 6.023 3.406 7.787 16.28.435 3.171 2.315 8.038 4.178 10.814a9067.93 9067.93 0 0 1 7.972 11.912c3.293 4.928 6.467 7.872 11.25 10.435 5.555 2.977 8.7 6.274 18.903 19.82 17.632 23.412 19.192 24.9 33.072 31.53 10.435 4.984 13.718 7.364 22.814 16.535 5.844 5.892 13.72 15.107 17.5 20.48 3.782 5.374 11.094 15.429 16.25 22.344 5.157 6.916 12.292 16.644 15.858 21.617 3.565 4.974 7.302 9.356 8.304 9.74 1.003.385 5.304 3.412 9.56 6.727 10.997 8.568 13.766 10.257 19.327 11.78 5.503 1.507 10.049 5.81 17.88 16.93 8.94 12.694 19.683 22.034 29.696 25.816 10.278 3.881 27.826 7.127 38.528 7.127 4.166 0 13.986.65 21.822 1.445 11.608 1.177 14.514 1.878 15.697 3.789.808 1.305 2.563 2.19 3.953 1.994 2.035-.287 2.571-1.46 2.881-6.29l.381-5.938h6.027c3.947 0 6.591.677 7.655 1.959.893 1.076 3.136 2.738 4.986 3.695 2.777 1.436 3.75 1.455 5.592.11 2.275-1.664 2.17-2.54-1.35-11.26-.837-2.075-.51-2.287 2.606-1.692 9.024 1.725 9.393-4.082.654-10.312-5.492-3.916-5.85-4.446-3.41-5.051 3.893-.966 4.211-5.58.549-7.979-1.627-1.066-8.27-3.432-14.764-5.26-6.494-1.827-12.661-4.055-13.705-4.949-1.044-.894-8.87-3.039-17.389-4.767-8.519-1.729-16.074-3.728-16.789-4.444-.715-.715-2.131-1.3-3.146-1.3-5.015 0-35.234-20.816-43.032-29.641-1.951-2.209-7.025-6.516-11.273-9.57-4.248-3.055-10.254-9.013-13.348-13.24-3.093-4.228-8.66-11.453-12.369-16.055-6.436-7.986-6.607-8.385-3.75-8.719 7.178-.839 8.62-1.576 8.62-4.41 0-2.268.682-2.829 3.402-2.79 5.021.073 5.163-3.731.324-8.724-2.204-2.274-3.633-4.743-3.174-5.486.834-1.35-14.59-17.615-16.703-17.615-1.508 0-23.72-29.619-39.475-52.637-4.812-7.031-10.487-14.8-12.609-17.262-2.122-2.462-4.934-6.346-6.25-8.63l-2.39-4.155 3.75-2.715c6.132-4.44 11.601-11.005 15.812-18.976 2.179-4.125 5.468-9.243 7.308-11.373 1.84-2.131 4.64-7.543 6.223-12.026 1.902-5.386 5.141-10.823 9.55-16.033 4.492-5.306 7.517-10.421 9.255-15.643 1.42-4.267 3.687-8.758 5.035-9.978 1.348-1.22 3.034-4.387 3.748-7.037.714-2.651 3.707-7.532 6.65-10.846 3.185-3.586 6.007-8.37 6.971-11.812.891-3.182 2.819-6.58 4.283-7.551 1.465-.971 6.632-5.662 11.483-10.424 4.85-4.762 11.741-10.551 15.312-12.865 3.571-2.314 6.494-4.585 6.494-5.045 0-.46 2.953-2.285 6.563-4.055 7.518-3.687 10.695-6.9 14.13-14.289 2.325-4.997 8.102-9.936 9.725-8.312.424.423 1.662.032 2.75-.872 1.089-.903 3.435-1.798 5.215-1.988 1.78-.19 5.14-2.19 7.465-4.443 2.325-2.254 7.392-5.236 11.258-6.627 3.866-1.392 7.645-3.647 8.398-5.012 1.62-2.936 7.169-8.14 8.682-8.142 1.496-.002 10.06-4.064 10.814-5.13.344-.485.907-.89 1.25-.9 1.963-.054 8.408-2.091 11.166-3.531 1.765-.92 3.884-1.68 4.711-1.684 2.357-.012 7.85-2.782 7.295-3.68-.274-.444.592-.889 1.926-.99 1.334-.1 4.108-1.381 6.164-2.845 2.056-1.464 3.738-2.305 3.738-1.867 0 .437 1.547-.296 3.438-1.63 4.928-3.476 16.148-8.99 16.855-8.283.33.33 1.312-.258 2.182-1.306.87-1.048 2.374-1.906 3.346-1.906.97 0 3.012-.78 4.535-1.735 1.523-.954 4.738-2.079 7.144-2.5 2.57-.45 6.696-2.834 10-5.78 3.094-2.757 6.47-4.921 7.5-4.808 1.032.114 2.894-.233 4.141-.773 1.27-.55 3.633-.36 5.371.432 1.707.777 4.204 1.414 5.547 1.414s2.441.562 2.441 1.25c0 .687 1.438 1.25 3.198 1.25 1.759 0 2.872.532 2.47 1.181-.446.723 3.04.928 8.989.53 5.345-.359 13.937-.518 19.093-.354 15.548.496 42.71.149 73.766-.945 34.102-1.202 32.009-.493 45.92-15.567 5.648-6.12 9.127-11.04 9.72-13.75.564-2.57 3.001-6.174 6.237-9.22 4.922-4.634 5.515-5.916 8.098-17.5 1.532-6.875 3.783-13.625 5.002-15 8.092-9.133 8.617-29.4.947-36.565-4.18-3.904-20.775-7.81-33.182-7.81-10.25 0-10.83-.165-22.576-6.391-6.631-3.515-17.963-10.746-25.182-16.07-42.363-31.248-57.64-36.419-112.482-38.069-13.253-.399-15.798-.8-16.875-2.662-.697-1.206-2.74-3.934-4.54-6.062-1.798-2.129-5.279-7.024-7.735-10.88-2.815-4.416-6.067-7.768-8.793-9.062-2.764-1.311-5.099-2.026-7.24-2.04zM67.973 422.053v.049c.075-.114.211-.336.218-.328.108.11-.085 1.178-.197 1.48.424.108.83.248 1.223.438.225-2.477.388-4.305-1.244-1.64zm-6.758-40.01c.198.23.455.553.627.68.137.102.608.298.476.19-.495-.41-.778-.62-1.103-.87zm6.566 8.502c.039.047.07.1.11.147.087.1.51.15.392.086-.162-.088-.334-.156-.502-.233zm-1.873 4.916a1.524 1.524 0 0 0-.03.21c-.009.161.006.3.04.423.053-.013.103-.02.156-.033v-.348c-.05-.07-.096-.16-.148-.238l-.018-.014zm.143.91c.006.008.017.012.023.02v-.02h-.023zm7.248.744c-.02.88-.062 2.033.03.08-.005-.018-.022-.056-.03-.08z"/></svg>