<svg xmlns="http://www.w3.org/2000/svg" xmlns:dc="http://dublincore.org/documents/dcmi-terms/" height="344.949" viewBox="0 0 134.974 344.949" width="134.974" overflow="visible"><metadata><dc:description>Silhouette of Adelophthalmus granosus, processed by PhyloPic Tools (https://github.com/eweitz/phylopic-tools)</dc:description><dc:source>http://phylopic.org/image/3e21988f-8d73-465a-af36-35083c8b3c91</dc:source><dc:creator>Gareth Monger</dc:creator><dc:license>http://creativecommons.org/licenses/by/3.0/</dc:license></metadata><switch><g><path d="M65.761 13.573c23.706-.19 27.507 17.875 29.263 24.125 1.755 6.25 3.95 29.5 3.95 29.5l-63.5-.001s1.025-18.499 4.537-29.499c3.51-10.999 10.088-23.999 25.75-24.125z" stroke="#fff" stroke-width="1.082"/><path d="M96.101 64.449l3.25 8-.5.75 2.75 7 1.75 10.25-1.25 1 .75 9.5h-1l.25 12h-.75v10.25h-.75l-4 10.5h-1.75s-3.75 11.5-4.5 11.75-15.003-2.25-21.251-2.375l-3.749.25c-6.249.125-20.501 2.625-21.251 2.375s-4.5-11.75-4.5-11.75h-1.75l-4-10.5h-.75v-10.25h-.75l.25-12h-1l.75-9.5-1.25-1 1.75-10.25 2.75-7-.5-.75 3.25-8 57.751-.25z"/><path d="M87.849 142.699s-4 9.5-5 13.75 1 8.75-.25 11.75 1.25 7 0 13 .5 11.75-.5 18-2 19-3.25 25.75-2.25 7-1 9.75-5-2.375-10.5-2.375h-1c-5.5 0-11.75 5.125-10.5 2.375s.25-3-1-9.75-2.25-19.5-3.25-25.75.75-12-.5-18 1.25-10 0-13 .75-7.5-.25-11.75-4-13.75-4-13.75h41z"/><path d="M73.599 230.449S71.5 231.913 71 240.163s-2.25 46.75-2.5 60.5-1.25 43.5-1.25 43.5l-.25.75-.151.036-.25-.75s-1-29.75-1.25-43.5-2-52.25-2.5-60.5-3-9.75-3-9.75h13.75zM49.599 147.699s-.75 9-2.75 11.25 7-2.25 7-2.25l-4.25-9zM51.532 160.489s-2.644 7.331-4.814 8.757c-2.17 1.426 6.337-.306 6.337-.306l-1.523-8.451zM52.032 175.24s-2.644 7.33-4.814 8.757c-2.17 1.426 6.337-.306 6.337-.306l-1.523-8.451zM52.282 193.99s-2.644 7.33-4.814 8.757c-2.17 1.426 6.337-.306 6.337-.306l-1.523-8.451z"/><path d="M57.326 225.248s-3.306 13.524-5.477 14.951c-2.17 1.426 10.5-7.25 10.5-7.25l-5.023-7.701zM84.113 148.199s.75 9 2.75 11.25-7-2.25-7-2.25l4.25-9zM82.18 160.989s2.644 7.331 4.814 8.757c2.17 1.426-6.337-.306-6.337-.306l1.523-8.451zM81.68 175.74s2.644 7.33 4.814 8.757c2.17 1.426-6.337-.306-6.337-.306l1.523-8.451zM81.43 194.49s2.644 7.33 4.814 8.757c2.17 1.426-6.337-.306-6.337-.306l1.523-8.451zM76.386 225.748s3.306 13.524 5.477 14.951c2.17 1.426-10.5-7.25-10.5-7.25l5.023-7.701zM58.59 20.772s-3.884-6.189-3.52-7.403c.364-1.214-.485-2.67-.728-4.005s.243-1.334-.728-2.791c-.971-1.457-2.792-5.461-2.185-5.461.607 0 3.883 3.398 3.883 3.398l2.913 2.913s1.214.122 1.457 1.578c.243 1.456 1.213 3.884 1.578 4.49.365.606 2.306 5.34 2.306 5.34l-4.976 1.941zM49.582 23.633s-5.717-4.55-5.776-5.815c-.059-1.266-1.344-2.358-2.016-3.537-.672-1.179-.213-1.339-1.613-2.392-1.399-1.052-4.445-4.226-3.873-4.427.572-.201 4.791 1.917 4.791 1.917l3.714 1.782s1.186-.288 1.897 1.005c.712 1.293 2.434 3.261 2.978 3.712.545.451 3.947 4.272 3.947 4.272l-4.049 3.483zM75.841 19.66s3.884-6.189 3.52-7.403c-.364-1.214.485-2.67.729-4.005.242-1.335-.244-1.334.728-2.791C81.79 4.004 83.609 0 83.001 0c-.608 0-3.883 3.398-3.883 3.398l-2.914 2.913s-1.213.122-1.455 1.578c-.244 1.456-1.215 3.884-1.578 4.49-.365.606-2.306 5.34-2.306 5.34l4.976 1.941zM84.849 22.521s5.717-4.55 5.776-5.815c.06-1.266 1.343-2.358 2.015-3.537.672-1.179.215-1.339 1.613-2.392 1.4-1.052 4.445-4.226 3.873-4.427-.572-.201-4.791 1.917-4.791 1.917l-3.713 1.782s-1.186-.288-1.898 1.005-2.434 3.261-2.978 3.712c-.544.452-3.946 4.274-3.946 4.274l4.049 3.481zM50.248 28.996s-6.553-3.641-8.495-3.155c-1.942.486-3.641 1.092-3.641 1.092s-.85-.364-3.034 0c-2.184.364-3.155.971-3.155.971s-1.577-.486-3.398.121c-1.821.607-2.306 1.699-2.306 1.699s-4.126-.85-5.583 0c-1.457.85-3.034 1.092-3.034 1.092l-.122 1.335s-2.912 1.456-4.126 2.306c-1.214.85-2.306 2.185-1.699 2.185s5.946-1.335 6.311-1.335c.365 0-.364.364.971.364s8.252-1.335 8.252-1.335 1.699 1.699 2.67 1.092c.971-.607 2.913-.607 2.913-.607s2.063.242 3.883.121a14.617 14.617 0 0 0 3.277-.606l6.675.485 3.641-5.825zM47.093 36.278s-2.67-.122-4.854.606-2.67 1.457-2.67 1.457-1.578-.485-3.277.364-4.126 2.669-4.126 2.669-3.884.486-4.854 1.578c-.97 1.092-1.213 1.699-1.82 2.306S24.035 47.2 24.035 47.2s-2.549 1.578-3.762 2.67c-1.213 1.092-2.184 3.155-2.184 3.155l-2.913 3.276a258.214 258.214 0 0 1-2.427 2.67s1.335-.364 1.335.243-3.034 3.519-4.854 5.583c-1.82 2.064-4.005 5.947-2.792 4.854s9.224-6.796 9.224-6.796l.121.85 5.942-6.758s4.252-2.344 4.495-3.193c.243-.849 3.277-3.034 3.277-3.034s1.82-.849 3.155-1.699c1.335-.85 2.548-2.063 2.548-2.063s5.461.607 8.617.243c3.156-.364 3.276-10.923 3.276-10.923zM85.336 27.996s6.554-3.641 8.495-3.155c1.941.486 3.641 1.092 3.641 1.092s.85-.364 3.034 0c2.184.364 3.155.971 3.155.971s1.577-.486 3.398.121c1.82.607 2.306 1.699 2.306 1.699s4.126-.85 5.583 0c1.455.85 3.033 1.092 3.033 1.092l.121 1.335s2.912 1.456 4.127 2.306c1.213.85 2.306 2.185 1.699 2.185s-5.947-1.335-6.311-1.335c-.365 0 .363.364-.972.364s-8.253-1.335-8.253-1.335-1.699 1.699-2.67 1.092c-.971-.607-2.912-.607-2.912-.607s-2.062.242-3.883.121c-1.821-.121-3.277-.606-3.277-.606l-6.675.485-3.639-5.825zM88.492 35.278s2.67-.122 4.854.606c2.186.729 2.67 1.457 2.67 1.457s1.578-.485 3.277.364 4.126 2.669 4.126 2.669 3.884.486 4.854 1.578c.97 1.092 1.213 1.699 1.82 2.306s1.457 1.942 1.457 1.942 2.549 1.578 3.762 2.67c1.213 1.092 2.184 3.155 2.184 3.155l2.913 3.276c.972 1.092 2.427 2.67 2.427 2.67s-1.334-.364-1.334.243 3.033 3.519 4.854 5.583c1.821 2.064 4.006 5.947 2.792 4.854-1.214-1.093-9.224-6.796-9.224-6.796l-.121.85-5.941-6.758s-4.253-2.344-4.496-3.193c-.242-.85-3.276-3.034-3.276-3.034s-1.82-.849-3.155-1.699c-1.335-.85-2.549-2.063-2.549-2.063s-5.461.607-8.616.243c-3.155-.364-3.278-10.923-3.278-10.923zM42.099 51.949s-7.5 3-8 5-4 2.25-4.5 4.25-2.25 3-3.75 3.75-5.25 2.75-6.75 5l-1.5 2.25s-4.25 3.25-8 8.75-6.25 10.75-6.25 10.75l2.25.25s-7.25 8.25-5.25 12.25 2.25 4.5 2.25 7v2.5s2.25-2.5 4.25-2.75 2.75-.25 5.5-4.5 7.75-12.25 8-14.5 7.25-11.75 7.25-13.25 4.25-8.75 5.5-10.25 8.25-2 8.25-2l.75-14.5zM92.875 49.449s7.5 3 8 5 4 2.25 4.5 4.25 2.25 3 3.75 3.75 5.25 2.75 6.75 5l1.5 2.25s4.25 3.25 8 8.75 6.25 10.75 6.25 10.75l-2.25.25s7.25 8.25 5.25 12.25-2.25 4.5-2.25 7v2.5s-2.25-2.5-4.25-2.75-2.75-.25-5.5-4.5-7.75-12.25-8-14.5-7.25-11.75-7.25-13.25-4.25-8.75-5.5-10.25-8.25-2-8.25-2l-.75-14.5z"/></g></switch></svg>