<svg xmlns="http://www.w3.org/2000/svg" xmlns:dc="http://dublincore.org/documents/dcmi-terms/" height="412.509" version="1.2" viewBox="0 0 206.213 412.509" width="206.213" overflow="inherit"><metadata><dc:description>Silhouette of Adephaga, processed by PhyloPic Tools (https://github.com/eweitz/phylopic-tools)</dc:description><dc:source>http://phylopic.org/image/fbb67694-0fd2-4e90-b88d-efab9cbac37c</dc:source><dc:creator>T. Michael Keesey (vectorization); Thorsten Assmann, Jörn Buse, Claudia Drees, Ariel-Leib-Leonid Friedman, Tal Levanony, Andrea Matern, Anika Timm, and David W. Wrase (photography)</dc:creator><dc:license>http://creativecommons.org/licenses/by/3.0/</dc:license></metadata><path d="M199.024 318c-5.282-12.384-10.12-25.213-13-40-5.996 2.51-7.456 10.397-11 17-3.001 5.592-9.012 12.136-10 18-2.833 16.819 3.138 42.28 6 60 1.903 11.78 3.023 29.761 10 39-1.611 1.493-5.014-.862-9 0-5.694-32.213-15.824-61.635-11-99-1.463-2.537-1.87-6.13-5-7 12.17-17.164 27.711-30.955 30-58-3.942-1.532-10.396-4.365-14-9-1.444 16.889-5.117 31.55-9 46-12.615 12.229-31.621 37.139-53 40-19.249 2.576-32.842-11.859-48-23-3.322-.827-6.524.388-10-2-6.756 9.344.078 21.103 0 32-.166 23.116-9.234 45.834-12 67-2.395-.605-4.562-1.438-8-1 14.917-29.534 23.271-95.966-3-119-.738 5.557-1.561 9.332-2 17-7.491 2.509-.815 19.186-12 18 4.426-14.845 11.258-30.138 8-46-2.338-11.385-16.545-19.421-14-33 2.822-3.178 6.516-5.484 9-9 .876-15.698-4.676-30.624 1-41 5.078-9.282 20.665-9.198 29-15 9.101-6.335 9.232-18.754 22-21-6.418-18.582-15.923-34.077-29-46-1.322-12.011-3.274-23.392-4-36-10.198-1.198-8.757 9.243-14 13-4.881 21.321-4.851 44.126 5 60 2.716 2.587 10.095 4.82 8 9-6.417-1.25-7.767-7.567-13-10-12.087-21.95-9.496-63.542 9-77 3.007-9.58-.714-9.95-7-14-2.233-7.657-5.394-10.379-10-14 .514-12.068-15.741-11.957-15-21 6.269-1.755 9.76 11.217 16 7 1.968 3.312 1.457 7.56 7 5 4.359 10.308 12.671 16.662 15 29 4.544-1.53 5.488-.47 7 3 15.284.802 23.761-10.037 39-6 2.145-4.188-.332-12.999 4-15-10.468-7.374-8.21-31.075 3-36 3.892.238 5.513 6.51 4 9 2.429 2.904 6.301 4.366 6 10-.688 3.979-5.312 4.021-6 8 3.235-.262 11.189.787 17 1-1.339-5.765-1.426-11.609 2-15-3.256-3.196-2.521-11.819 3-12 8.904 6.933 14.214 23.987 4 32 1.742 5.339 1.441 9.326 2 14 5.643.31 8.893-1.773 15-1 8.042 8.625 19.306 14.028 28 22 9.36-9.973 15.907-22.759 25-33 2.09-.423 2.648.686 4 1 2.668-4.396 7.473-15.978 11-13 1.673 5.127-8.228 15.683-13 21-.416 9.01-9.474 17.792-16 24-.01 2.656.378 5.711-1 7 19.204 13.879 27.256 53.604 9 78-1.747-10.832 9.293-26.054 6-46-1.875-11.358-9.424-19.899-17-25 3.681 27.474-7.888 39.736-26 48-.741 8.592-5.086 13.581-9 19 10.374 4.625 16.57 13.43 22 23 10.496 2.17 17.856 7.477 26 12 4.799 12.855 6.729 32.83 6 48 13.687 8.492 3.879 27.038-4 36 3.55 14.065 7.359 31.312 14 45-1.132.463-4.821.119-4 5zm-115-298c1.754 3.246 2.918 7.082 6 9 2.047-3.287.54-10.126 1-15-5.767-1.434-4.127 4.539-7 6zm79 51c-10.848-4.504-20.821-24.696-36-15 10.035 9.276.306 15.644-1 22 .979 4.355 8.146 2.521 12 4 7.143 5.19 11.952 12.714 15 22 6.963.63 11.519-1.148 15-4-1.608-9.725-3.696-18.971-5-29zm-117-9v31c4.811 2.189 8.131 5.869 14 7 1.527-13.473 12.506-17.494 23-22-1.496-4.171-6.807-4.526-7-10 .111-5.555 7.304-4.03 7-10-13.236-3.481-25.942 1.992-37 4zm-23 132c-1.591 7.7 1.254 18.426 2 27 6.585-.415 10.181-3.818 15-6 .384-9.283 3.188-16.145 4-25-7.957.376-14.765 1.901-21 4zm147 26c6.424.576 9.12 4.88 15 6 1.96-11.795.248-19.912 0-31-6.748-.918-10.607-4.726-19-4 .745 10.256 3.034 18.967 4 29zm-140 20c-.253 3.586 3.003 3.664 3 7-2.313-.006-5.344-7.746-6-3v17c10.172 12.494 14.225 31.108 30 38-10.77-16.996-19.916-35.966-18-63-5.645-1.312-4.701 3.965-9 4zm-14 4c1.406 3.928 2.694 7.973 7 9v-8c-2.881-1.828-3.128-1.622-7-1zm173 12c3.211-.455 3.441-3.892 5-6-1.904-.429-2.513-2.154-5-2v8z" fill-rule="evenodd"/></svg>