<svg xmlns="http://www.w3.org/2000/svg" xmlns:dc="http://dublincore.org/documents/dcmi-terms/" height="492.392" version="1.2" viewBox="0 0 367.2 492.392" width="367.2" overflow="inherit"><metadata><dc:description>Silhouette of Aepyornis, processed by PhyloPic Tools (https://github.com/eweitz/phylopic-tools)</dc:description><dc:source>http://phylopic.org/image/f30afee6-b5e3-438e-b3a6-9c9913d94679</dc:source><dc:creator>Darren Naish (vectorize by T. Michael Keesey)</dc:creator><dc:license>http://creativecommons.org/licenses/by/3.0/</dc:license></metadata><path d="M367.2 325.44v1.439c-.991 2.283.245 4.965-1.8 6.48-1.349.028-1.088-1.552-2.88-1.08-1.06 1.288 2.057 4.589 0 5.76-1.312-1.208-1.761-3.279-2.16-5.399-.965 1.195.395 4.715-1.439 5.039-1.179-.864-.988-1.224-2.521-.359-.715-.485.113-2.514-1.08-2.521-.846.79.684 1.789-.72 2.521-2.131.091-1.57-2.511-2.88-3.24-.558 1.15 1.311 3.121-.36 4.68-1.914.114-1.683-1.917-2.88-2.52-.596.725-.455 2.185-1.44 2.52-2.312-1.406-2.517-4.923-4.68-6.479-.953.605.71 2.065-.72 2.52-2.199-1.161-1.968-4.752-4.32-5.76-.618.462-.446 1.714-1.439 1.8-2.046-1.977-4.478-1.343-5.4-4.319-.848-.009-1.06.62-2.16.359-.22-2.18-1.841-2.959-2.52-4.68-1.395-.314-.589 1.571-2.16 1.08-1.359-3.44-4.479-5.122-6.48-7.92-.791 3.937 3.795 7.453 3.601 10.8-3.407-2.353-3.401-8.119-5.76-11.52-2.408 1.053-2.478-2.607-4.681-2.881-.152 1.953 2.378 2.736 1.44 4.32-2.511.23-1.342-3.218-2.88-3.96-.876.294.713 1.898-.36 2.521-2.425-3.096-2.287-8.754-6.84-9.721-1.498-1.981-3.562-3.397-5.04-5.399-2.19 2.137-6.08.254-8.64 0-.544.312.099.538-.36 1.439-1.505.306-1.426-.975-2.16-1.439-1.218-.139-.566 1.593-2.16 1.079-.69.041.423 1.206 0 2.16-2.591-.816-3.946 1.199-5.399-1.08-.488 1.153-1.417 2.264-2.881 1.44.209 1.169-.245 1.675-.359 2.521-1.594.394-1.79-.61-2.88-.721-.515.08.334 1.792 0 2.88-1.669.181-1.743.093-2.16 1.8-.888.048-1.734.055-2.16-.359-.708 1.332-.103 3.977-2.88 3.24.031 2.07.078 4.157-.36 5.76h-1.8c.032 8.756-2.229 15.689-1.439 23.76 1.051 10.759 3.235 21.117 5.76 30.96-.369.352-.729.712-1.08 1.08 2.275 2.978.289 5.822 2.88 8.28-1.649 1.143-.591 2.36.36 3.6.194 1.275-1.275.886-1.08 2.16.503 1.657 1.656 2.663 2.16 4.32.316 1.156-1.188.493-1.08 1.439 2.103 7.465 1.367 14.957-.721 20.881-3.146 8.929-5.553 19.222-7.92 28.439-1.241 4.834-4.069 11.644-5.04 17.64-.752-.152-.953.247-1.439.36-1.66 6.89 1.984 12.176-.72 17.64-.351.707-1.396.997-1.801 1.8-.921 1.833-1.1 5.093-3.24 6.48-3.289 2.134-10.876-.325-12.96 3.6-.519-.081-.125-1.074-.72-1.08-4.985 3.458-16.166 2.871-24.479 2.521-4.274-.18-8.669-1.685-11.521-2.88-4.572 1.67-8.65-1.113-12.6-1.08-2.667.022-5.459 2.374-7.92.72.199-4.501 5.833-8.552 10.8-8.28 6.796-7.887 23.666-.443 30.96-8.64-.283-1.482.553-1.847.359-3.239 2.02-.742 2.373-3.148 4.681-3.601 3.371-4.694 3.384-10.548 5.04-16.2 3.656-12.477 7.897-25.56 10.8-37.8-.887-1.933-.094-4.187-1.44-6.12-.473 4.207-1.884 7.476-3.6 10.44-3.186 2.479-6.569 4.651-9.72 7.2-1.378 1.114-1.87 2.855-3.601 3.6-.129-2.049 1.623-2.217 1.801-3.96-.688-1.121-1.563.562-2.521.36.157 1.237-.142 2.018-.36 2.88-2.594 1.245-3.593 4.087-6.119 5.399-5.252 10.589-19.96 11.721-20.521 27-3.6 1.8-4.906 5.894-6.84 9.36-4.094 3.224-8.162 4.279-13.68 6.479-1.233.492-2.306 1.747-3.6 2.16-2.173.695-4.782.237-7.2.721-2.796.559-5.11 2.527-7.92 2.88-1.078.236.344.769 0 1.439-3.413.039-7.029 2.818-9.72.36-2.635.725-4.827 1.893-8.28 1.8-.115-.845-.569-1.352-.36-2.521-3.508-2.752-5.514 1.318-8.64.721.568-4.628 2.721-7.948 5.76-10.44 2.77-2.271 5.555-2.642 9-3.6 4.402-1.225 9.25-3.886 12.6-6.12 7.132-4.756 9.276-14.013 16.56-18.72v-1.44c3.77-1.282 5.514-5.308 8.64-7.56 2.867-2.066 7.001-3.011 7.92-7.2 6.759-6.562 11.898-14.742 18.36-21.6 3.64-8.601 3.219-21.261 7.92-28.801.266-7.371-.663-11.544-1.44-19.08-.181-1.748-.985-2.055-1.8-3.96-2.7-6.315-5.242-12.229-7.2-20.159-.539-.541-.644-1.517-1.44-1.801.403-4.986-2.909-8.097-1.8-12.6-.294-.906-1.897-.502-2.52-1.08-.994-.154-.338 1.342-1.08 1.439-7.532.251-12.029-2.802-18-1.8-3.627-2.973-8.713-4.487-12.6-7.2-.68.041-.25 1.19-1.08 1.08-1.463-.456-2.278-1.562-3.24-2.52-1.345-.385-1.026.894-2.16.72-3.792-3.962-10.151-4.532-14.04-9-.981.331.503 1.126 0 2.16-4.133-4.627-9.335-8.185-12.96-13.319-4.517 1.432-4.352-4.382-6.48-6.48-1.373.067-.871 2.009-2.16 2.16-1.243.283-1.583-.337-1.8-1.08-.968-.248-.696.744-1.08 1.08-1.948-1.412-2.144-4.576-3.96-6.12-.942 1.097 1.885 3.202 0 4.319-1.925-.714-2.27-3.01-3.24-4.68-1.23-.27-.457 1.463-1.8 1.08-1.037-2.923-2.683-5.237-3.96-7.92-.672.647-.503 2.137-2.16 1.8-.055-1.145-.816-1.583-.72-2.88-1.625-.425-.805 1.596-2.52 1.08-.721-2.039-1.079-4.441-1.8-6.479-1.323.744-1.992-.097-3.24-.36-.725-2.036-1.708-3.812-2.16-6.12-1.134-.174-.815 1.104-2.16.72-1.706-2.974-2.149-7.21-3.96-10.08-.878.922.316 3.916-1.8 3.601-.413-2.468-1.66-4.101-1.8-6.841-.045-.795-1.527-.152-2.16-.359-.545-2.455.026-6.025-2.88-6.12-.103-6.377-3.675-9.285-4.68-14.76-2.802-2.838-4.636-6.644-9-7.92-2.332-3.068-4.075-6.725-7.56-8.64-1.52-7.643-7.859-11.419-8.28-19.08-.054-.666-1.219-.221-1.44-.72-2.272-7.928-5.59-14.81-6.84-23.76.218-7.749.711-15.483 1.8-23.04.148-1.033.383-2.529.72-3.6 2.407-7.662 3.389-15.622 6.84-23.04.968-2.08 2.43-3.828 3.24-5.76 2.46-5.866 3.169-10.286 6.84-14.76.152-.752-.247-.953-.36-1.44.159-1.281 1.303-1.577 1.8-2.52 3.937-7.845 3.255-19.926.36-28.8-1.241-3.804-6.43-9.837-9.72-12.96-3.384-3.213-7.176-5.962-10.44-9-13.87 1.713-32.008 8.178-43.92.36.312-1.393-.603-1.558-1.08-2.16v-.36c5.642-8.925 19.524-19.525 29.16-24.12 4.273-2.038 8.417-3.387 10.08-7.56 1.108-.269.692.988 1.8.72 1.711-3.089 6.798-2.802 9.72-4.68.54.42.88 1.04 1.8 1.08C54.032.713 56.548 1.768 57.6 0c.604 2.375.913.334 2.52 0 .237 1.317-.779 1.381-.72 2.52 1.642-.039.973-2.387 3.24-1.8-1.215 2.917 2.14-.796 2.16 2.16.846-2.233 2.634-.947 3.6 0 .809-.392.668-1.732 2.16-1.44.887 1.683 2.721 1.379 1.8 3.24 1.784-.766 3.244-.093 5.04 0-.359.481-.973.707-1.08 1.44 1.641.44 1.413-.987 2.88-.72.122 1.116-.833 1.72 0 2.52 2.027-.163 2.235.691 3.6 1.8-.136-1.375-.507-1.394.72-1.8 1.093.227 1.416 1.224 2.52 1.44-.269.784-1.575 1.311-.72 2.16.52.841.764-1.607 2.16-1.08-2.206 3.177 2.827 3.544 1.8 6.48 2.203-1.578 1.832.843 3.6 1.44 1.043 1.037-.701 1.126-.36 2.52.841-.111 1.487-.705 2.16 0-.302.779-.932 1.228-.72 2.521.441 1.127 1.971 2.044 2.52 3.6.948 2.686 1.751 2.587 2.88 4.68 1.815 3.368 1.336 7.68 2.88 11.52-1.671 6.443 2.319 17.09 0 21.96.439 1.121 1.106 2.014 1.08 3.6-1.101.261-1.059-.621-2.16-.36-1.725 7.156-1.893 11.73-2.88 20.16.178 1.138-1.786.134-1.44 1.44-.221 5.779-2.258 9.742-4.32 13.68-1.333 18.741-3.829 44.878 3.24 60.12 1.087 2.344 4.755 9.05 6.479 10.08 3.15 1.882 5.994-.15 7.92-.72 2.667-.789 6.502-.658 9.72-1.8 3.866-1.373 6.415-3.723 10.8-2.16 5.279-2.492 10.407-4.56 16.92-4.68 5.079-2.724 10.912-3.734 16.56-5.76.687.153.651 1.028 1.8.72 1.776-1.344 4.286-1.954 6.48-2.88 1.292-.212.01 2.15 1.44 1.8 1.769-.817 4.316-2.554 6.84-1.44.415 1.751-3.09 1.449-1.8 2.88 3.752-1.048 7.393-2.207 12.6-1.8 1.072.487 1.146 1.974 2.16 2.52 4.651-.767 7.887-4.808 12.24-4.68-1.007 2.594-4.362 2.838-5.761 5.04 3.601.285 8.342-1.917 11.16.72 5.447-1.374 13.441-.652 19.08 0 .714.246-.225 2.145 1.08 1.8 1.4.52 3.185.656 3.24 2.52 15.885 4.516 32.774 8.025 45 16.2 2.817.662 6.257.703 7.92 2.52.143.863-1.64-.2-1.08 1.08 3.854 1.717 9.661 3.812 14.04 6.12.106.947-1.396.284-1.08 1.44 1.541.979 4.146.894 4.68 2.88.154.994-1.342.338-1.439 1.08 4.415 1.584 6.503 5.497 10.8 7.2.26 1.1-.368 1.312-.36 2.16 4.612 6.668 9.584 12.976 14.76 19.081-.066.533-.869.33-1.439.359 2.603 4.728 8.325 7.814 9 13.32 1.811 2.27 3.568 4.591 5.4 6.84-.455.539-1.91.645-1.08 1.439 2.262 2.539 3.939 5.661 6.119 8.28.511 4.689 5.306 7.779 6.48 12.96-.236 1.078-.77-.344-1.439 0 3.019 7.01 5.424 12.627 7.56 20.16.012 8.825 7.947 18.27 6.479 29.16 1.401 1.72 1.428 4.813 2.161 7.2z" fill-rule="evenodd"/></svg>