<svg xmlns="http://www.w3.org/2000/svg" xmlns:dc="http://dublincore.org/documents/dcmi-terms/" height="242.053" version="1.2" viewBox="0 0 180 242.053" width="180" overflow="inherit"><metadata><dc:description>Silhouette of Aepyornis, processed by PhyloPic Tools (https://github.com/eweitz/phylopic-tools)</dc:description><dc:source>http://phylopic.org/image/44fd3b81-94de-4346-8dfc-3f08e9709f61</dc:source><dc:creator>Matt Martyniuk (vectorized by T. Michael Keesey)</dc:creator><dc:license>http://creativecommons.org/licenses/by-sa/3.0/</dc:license></metadata><path d="M34 2.369c8.36 28.632-22.914 60.797-7 86 11.426 18.096 28.169-2.424 47-5 15.468-2.116 32.761 1.141 44 4 4.747 1.208 10.206.543 14 2 4.515 1.733 9.813 6.888 15 10 9.788 5.873 12.888 7.503 19 15 3.832 4.7 6.447 8.553 10 16-.443 9.776 3.146 15.52 4 24-5.422 1.578-9.88 4.12-11 10-7.11.443-11.957-1.376-14-6-13.718 2.193-19.421-7.906-31-2 .729 9.119-7.344 16.788-9 26-2.91 16.184 4.37 33.413-2 49-1.32 4.653 3.32 3.347 2 8-10.321 1.237-22.47 5.365-31 0 2.523-8.477 14.011-7.989 19-14 6.202-29.352-7.093-55.221-19-73-5.668 2.666-15.798.868-21 4-10.78-4.495-22.355-6.284-29-13-.685-.692-1.553-4.946-3-7-6.111-8.674-13.94-14.619-16-27-.444-2.668.667-6.182 0-9-1.761-7.434-6.439-12.093-7-20-1.608-22.689 17.706-37.73 13-62-4.861-5.139-17.776-2.224-21-9 9.758-3.222 23.361-14.122 34-7z" fill-rule="evenodd"/></svg>