<svg xmlns="http://www.w3.org/2000/svg" xmlns:dc="http://dublincore.org/documents/dcmi-terms/" height="711.185" width="891.529"><metadata><dc:description>Silhouette of Aestuariibacter aggregatus, processed by PhyloPic Tools (https://github.com/eweitz/phylopic-tools)</dc:description><dc:source>http://phylopic.org/image/e03ded7b-fb73-4bdb-98a2-95aa78dde4f2</dc:source><dc:creator>Matt Crook</dc:creator><dc:license>http://creativecommons.org/licenses/by-sa/3.0/</dc:license></metadata><path d="M400.406 441.627L349.312 555.32l-90.334-33.356M339.074 570.64l-126.08 5.593M362.986 415.402l-39.443-32.737-121.668 63.49" fill="none" stroke="#666" stroke-width="5" stroke-linecap="round"/><path d="M285.87 452.204l-81.402-68.977L60.475 441.51M166.109 381.572l-66.084-58.739M156.296 271.797l86.115 49.662M282.638 462.49l-19.334-108.246M239.895 317.956l-7.132 52.913" fill="none" stroke="#666" stroke-width="5" stroke-linecap="round"/><path d="M371.94 655.939c42.554-30.66 104.455-87.332 132.207-140.126 28.647-54.498 18.764-124.88 27.053-146.398 8.289-21.52 26.147-42.005 48.12-48.336 21.973-6.331 41.492 16.166 89.266 2.255 47.775-13.91 138.688-71.345 173.654-116.759 34.965-45.414 54.282-87.68 44.06-127.218-10.222-39.537-39.83-62.873-82.158-73.73-42.328-10.856-108.185 7.984-147.825 34.494-39.64 26.51-58.984 72.178-78.172 109.24-19.188 37.064-18.181 93.526-38.09 109.657-19.908 16.13-31.346 8.544-50.162-2.024-18.816-10.567-69.138-59.246-123.006-72.748-53.869-13.501-130.276-9.818-175.72 6.744-45.446 16.56-61.581 40.288-90.306 70.17-28.724 29.88-62.05 70.223-78.171 109.24C6.568 409.418-.14 447.548 3.437 487.803c3.577 40.255 15.25 79.875 41.162 116.45 25.912 36.574 74.506 75.525 113.286 91.195 38.78 15.67 68.887 15.429 105.094 9.508 36.208-5.92 62.325-16.26 104.906-46.144 1.331-.934 2.682-1.884 4.054-2.873zm67.342-107.658c-6.52 4.697-15.11 7.426-22.282 8.885-11.476 2.336-21.292 1.177-33.101-5.428-11.81-6.604-14.014-36.048-31.194-36.039-17.18.01-34.273 25.563-36.236 41.955-1.964 16.392 19.07 25.902 19.921 38.826.852 12.923 4.126 25.388-11.446 32.114-15.573 6.726-49.594-6.879-62.002-27.186-12.408-20.307-7.75-60.327 4.567-74.959 12.316-14.631 22.838.527 38.577-9.124 15.74-9.651 33.405-32.871 45.98-54.263 12.575-21.391 48.034-56.525 27.408-72.78-20.626-16.256-48.385 47.956-66.082 44.807-17.698-3.148-2.416-21.028-16.353-22.767-13.936-1.74-26.701 42.274-43.019 36.207-16.317-6.067 8.274-35.594-7.644-47.605-15.917-12.012-54.497.94-70.914 8.457-16.418 7.516-14.173 20.521-27.257 24.886-13.085 4.365-32.963 8.826-45.632-4.393-12.669-13.218-10.7-48.806-3.444-63.934 7.256-15.128 24.574-10.13 29.773-21.384 5.2-11.255-10.936-24.272-3.106-37.591 7.83-13.32 40.977-11.39 50.073-22.69 9.096-11.3-3.89-20.952 6.686-31.35s42.061-16.426 55.894-10.942c13.833 5.483 8.636 24.215 18.868 26.27 10.231 2.054 11.43-14.607 25.795-15.834 14.364-1.226 35.216 21.767 52.192 20.92 16.975-.848 27.083-22.663 40.551-21.162 13.469 1.501 19.993 10.614 27.131 22.99 7.138 12.377-3.622 38.862 8.902 49.357 12.524 10.495 35.332-12.148 47.877.125 12.544 12.274 12.414 47.34 1.403 57.398-11.012 10.057-19.247-8.188-31.844-3.677-12.596 4.511-24.7 18.15-33.497 34.679-8.797 16.527-31.976 51.852-13.398 62.718 18.578 10.865 31.686-36.465 48.792-43.009 17.106-6.543 34.52-18.073 44.867-.367 10.347 17.705-36.612 48.41-38.926 67.78-2.313 19.37 15.326 25.578 10.869 37.363-1.672 4.42-4.837 7.928-8.749 10.747z" stroke="#000" stroke-width="5"/><path d="M724.577 348.272a14.017 11.86 0 1 1-28.034 0 14.017 11.86 0 1 1 28.034 0z" style="marker:none" transform="matrix(-.7243 .52022 -.6148 -.856 1057.805 258.868)" color="#000" stroke="#000" stroke-width="5.158" stroke-linecap="round" stroke-linejoin="round" overflow="visible"/><path d="M724.577 348.272a14.017 11.86 0 1 1-28.034 0 14.017 11.86 0 1 1 28.034 0z" style="marker:none" transform="matrix(-.7243 .52022 -.6148 -.856 1124.334 296.047)" color="#000" stroke="#000" stroke-width="5.158" stroke-linecap="round" stroke-linejoin="round" overflow="visible"/><path d="M724.577 348.272a14.017 11.86 0 1 1-28.034 0 14.017 11.86 0 1 1 28.034 0z" style="marker:none" transform="matrix(-.7243 .52022 -.6148 -.856 1017.782 484.09)" color="#000" stroke="#000" stroke-width="5.158" stroke-linecap="round" stroke-linejoin="round" overflow="visible"/><path d="M724.577 348.272a14.017 11.86 0 1 1-28.034 0 14.017 11.86 0 1 1 28.034 0z" style="marker:none" transform="matrix(-.7243 .52022 -.6148 -.856 967.52 244.063)" color="#000" stroke="#000" stroke-width="5.158" stroke-linecap="round" stroke-linejoin="round" overflow="visible"/><path d="M724.577 348.272a14.017 11.86 0 1 1-28.034 0 14.017 11.86 0 1 1 28.034 0z" style="marker:none" transform="matrix(-.7243 .52022 -.6148 -.856 897.507 312.934)" color="#000" stroke="#000" stroke-width="5.158" stroke-linecap="round" stroke-linejoin="round" overflow="visible"/><path d="M724.577 348.272a14.017 11.86 0 1 1-28.034 0 14.017 11.86 0 1 1 28.034 0z" style="marker:none" transform="matrix(-.7243 .52022 -.6148 -.856 949.753 352.406)" color="#000" fill="#fff" stroke="#fff" stroke-width="5.158" stroke-linecap="round" stroke-linejoin="round" overflow="visible"/></svg>