<svg xmlns="http://www.w3.org/2000/svg" xmlns:dc="http://dublincore.org/documents/dcmi-terms/" height="970.68" version="1.2" viewBox="0 0 521.65 970.68" width="521.65" overflow="inherit"><metadata><dc:description>Silhouette of Aglaophyton majora, processed by PhyloPic Tools (https://github.com/eweitz/phylopic-tools)</dc:description><dc:source>http://phylopic.org/image/0cc1b731-9056-4981-9c45-30a633da0ede</dc:source><dc:creator>Griensteidl and T. Michael Keesey</dc:creator><dc:license>http://creativecommons.org/licenses/by/3.0/</dc:license></metadata><path d="M417.6 654.509v33.05a114.978 114.978 0 0 0-21.649-2.975l-4.55-.101-25 5 5.649 5.601a293.53 293.53 0 0 0 20 17.6 711.18 711.18 0 0 0 38.65 28.7l-14.175 28.975a2588.8 2588.8 0 0 0-43.125-34.325c-12.666-9.846-23.933-19.579-33.801-29.199-6.028 3.345-11.428 14.228-16.199 32.649-4.838 9.866-8.955 19.416-12.351 28.65-3.389 9.235-6.538 16.401-9.45 21.5 4.053 2.562 8.72 4.578 14 6.05 4.034 1.5 11.784 4.134 23.25 7.9a164.47 164.47 0 0 1 10.75 3.949 807.713 807.713 0 0 0 44.551 21 1089.249 1089.249 0 0 0 28.949 12.15l-4.649 37.625c-13.161-4.366-25.812-10.258-37.95-17.675-.1-.3-.233-.566-.4-.8-7.666-9.034-17.833-15.017-30.5-17.95-16.1-6.233-27.166-10.7-33.199-13.4 1.666 4.033 6.05 9.717 13.149 17.05 6.566 6.801 9.851 10.45 9.851 10.95 0 .334-.017.816-.051 1.45.034.434.267.65.7.65 2.367 0 5.55 1.449 9.55 4.35a92.909 92.909 0 0 1 11.551 9.55c8.899 8.767 19.966 14.2 33.199 16.3 9.19 4.161 17.808 5.544 25.851 4.15l15.375 46.125a598.472 598.472 0 0 1-5.175 3.425v6h-6c.526 3.483.984 6.459 1.375 8.925-2.561-1.021-4.686-2.362-6.375-4.024-1.467-1.467-2.801-2.101-4-1.9a4.174 4.174 0 0 1-2 2c.133.667.35 1.283.649 1.851.233.433.351.816.351 1.149h-1c0 2.767-.334 4.9-1 6.4-.667 1.5-1 2.366-1 2.6-.7-.2-1.25-.85-1.65-1.95a85.335 85.335 0 0 0-1.1-3.5c-1.233-3.399-3.65-5.583-7.25-6.55.933 1.833 1.5 3.633 1.699 5.4.2 1.768.301 4.551.301 8.35 0 3.799-.25 4.457-.75 1.976-.5-2.483-1.25-4.059-2.25-4.726v5h-2c0-1.333-.217-2.217-.65-2.649-.234-.2-.867-.492-1.9-.875-1.031-.384-1.864-1.983-2.5-4.801-.635-2.816-2.052-4.892-4.25-6.225-2.199-1.333-3.299-2.583-3.3-3.75 0-.434-1.416-.983-4.25-1.65a78.697 78.697 0 0 0-5.149-1.05c0 3.334-.45 5.033-1.351 5.101-.434-.434-.649-1.134-.649-2.101a2.07 2.07 0 0 0-.551-1.45c-.366-.366-.85-.55-1.449-.55-.4 0-.684.167-.851.5a.966.966 0 0 0-.149.5 43.32 43.32 0 0 0-2.101-3c-1.7-2.233-3.733-4.283-6.1-6.149-6.033-6-11.417-11.284-16.15-15.851-9.133-8.833-15.684-13.833-19.649-15v2h-1c.566-2.866-5.534-11.149-18.301-24.85-7.699-8.267-12.133-13.084-13.3-14.45-.434-.5-.85-.967-1.25-1.4-2.033-2.466-3.649-5.116-4.85-7.949-.3-.733-.584-1.467-.851-2.2-.199-.467-.416-.983-.649-1.55a72.501 72.501 0 0 0-4.15-8.2c-4.566-7.7-7.45-12.667-8.649-14.9-2.013 5.729-3.754 9.629-5.226 11.7-1.474 2.07-3.391 3.962-5.75 5.675-2.353 1.716-4.878 4.141-7.575 7.275a898.006 898.006 0 0 1-38.149 43.55 78.542 78.542 0 0 1-13.55 11.5c-1.967 1.566-5.417 3.634-10.35 6.2-6.933 3.6-10.4 5.967-10.4 7.1 0 .5.117 1.483.35 2.95.233 1.434.417 2.267.55 2.5l.1.05v1h-2c-.066-2.767-.267-4.533-.6-5.3-.5-1.134-2.133-1.7-4.9-1.7-.333 0-.75.167-1.25.5-.5.334-.917.5-1.25.5.167.5.267 1.717.3 3.65 0 1.434.566 2.883 1.7 4.35v5h-1l.1-2.35c-.067-.3-.15-.5-.25-.601-.136-.131-.861-1.322-2.175-3.574-1.31-2.258-2.177-1.924-2.6 1-.114.783-.322 4.509-.625 11.175-.254-6.108-2.07-11.658-5.45-16.65h-7v3c.033.233.217.634.55 1.2.3.5.45.934.45 1.3 0 .467-.017.75-.05.851a2.562 2.562 0 0 1-.25.35c-.1.1-.133.184-.1.25-.033.033-.25.05-.65.05-.333 0-.684-.166-1.05-.5-.367-.333-.716-.5-1.05-.5-.4 0-.733.101-1 .3a27.02 27.02 0 0 0-.85.7c-.033-1.366-.167-2.35-.4-2.95-.2-.566-.3-1.6-.3-3.1 0-1.066-.8-1.7-2.4-1.9-1.7 0-2.667-.017-2.9-.05v9.45c-2.967-5.4-5.3-8.217-7-8.45l-5.05 8.05c-2.033-6.8-4.017-10.483-5.95-11.05v4c.033.233.217.566.55 1 .3.4.45.783.45 1.15 0 .666-.017.8-.05.399-.033.101-.05.233-.05.4-.066.167-.316.25-.75.25-.233 0-.75-.1-1.55-.3-.9-.267-1.6 1.566-2.1 5.5-.5-3.601-.917-5.684-1.25-6.25a9.04 9.04 0 0 1-.85-1.15c-.667-1.233-1-4.916-1-11.05 0-.533-1.117-1.667-3.35-3.4-3.034-2.267-5.4-4.05-7.1-5.35-6.667-5.233-9.483-8.967-8.45-11.2-10.967-15.267-19.433-27.399-25.4-36.399-2.767-4.101-6.1-8.534-10-13.301-4.133-6.8-7.733-12.583-10.8-17.35-4.678-7.256-8.453-11.614-11.325-13.075a.408.408 0 0 0-.075-.05l13.275-44.3a119.778 119.778 0 0 0 18.975 6.575c1.464.358 2.931.684 4.4.975 11.896 2.423 23.913 2.848 36.05 1.275 13.467-1.567 24.25-7.75 32.35-18.551 3.433-4.6 5.467-9.783 6.1-15.55l2.9-11.05a194.992 194.992 0 0 0-35.8-9.3 249.159 249.159 0 0 0-32.25-2.8 591.183 591.183 0 0 0-10.9-.101 50.86 50.86 0 0 0-.9.05l-2.775-29.175c15.669-2.313 31.277-1.672 46.825 1.925 13.667 2.601 27.934 6.733 42.8 12.4l2.1-10 1.1-.35c-.6-3.134-.716-6.351-.35-9.65.133-1.066.3-2.134.5-3.2l1.7-.95c-3.233-3.233-3.417-6.316-.55-9.25a4.38 4.38 0 0 1 1.2-1l2.05-50.649c4.833-69.3-17.15-127.65-65.95-175.05-11.733-11.4-20.767-24.784-27.1-40.15C64.717 373.5 53 330.217 46.9 285.584a669.615 669.615 0 0 1-5.35-67.75 690.96 690.96 0 0 1 .05-41.55c.267-9-.783-17.767-3.15-26.3a95.65 95.65 0 0 1-2.9-14.65c-.466-3.9-1.35-7.6-2.65-11.1-7.033-19.1-8.75-38.8-5.15-59.1.7-3.867 1.133-7.75 1.3-11.65.3-7.633 3.833-13.133 10.6-16.5 3.934-1.867 9.867.25 17.8 6.35 4.5-4.533 8.367-2.85 11.6 5.05 7.067 16.2 6.2 33.716-2.6 52.55l-.75.65c-1.767 5.7-3.25 11.45-4.45 17.25-.333 1.6-.65 3.217-.95 4.85-.267 1.6-.517 3.217-.75 4.85-.533 4.3-.9 8.733-1.1 13.3a1044.554 1044.554 0 0 0-.8 70.85 598.212 598.212 0 0 0 6.05 72.9 660.624 660.624 0 0 0 12.75 64c12.6 50.1 38.167 86.166 76.7 108.199 3.2 1.801 5.934.584 8.2-3.649 21.7-40.601 28.8-85.367 21.3-134.3a971.893 971.893 0 0 1-4.6-34.25l-10.65-114.55c-.367-19.267-4.566-37.517-12.6-54.75-6.466-13.867-10.95-28.283-13.45-43.25-5.533-42.934.033-60.417 16.7-52.45a12.88 12.88 0 0 1 3.3.95c.233.133.483.283.75.45l.6.5c.133.167.267.367.4.6.167.2.316.417.45.65.167.333.317.667.45 1 .1.2.233.383.4.55.067.1.15.183.25.25.033-.033.083-.05.15-.05.067-7.5 4.6-11.167 13.6-11 3.667-.267 7.333 2.467 11 8.2.3-.067.45-.15.45-.25.3-2.867.883-5.917 1.75-9.15 1.3-4.8 4.417-7.367 9.35-7.7.733 0 1.466.067 2.2.2.7.233 1.383.533 2.05.9a47.45 47.45 0 0 0 2.85 1.6c.534.333 1.1.617 1.7.85l2.65-6.05a18.484 18.484 0 0 1 4.2-2.3c2.6-.934 5.2-1.033 7.8-.3 6.3 1.867 9.4 6.434 9.3 13.7-.034 1.1-.034 2.2 0 3.3a201.211 201.211 0 0 1-.5 19c-.567 7.167-.5 13.483.2 18.95l5.05-9.7c5.533-6.733 10.583-6.483 15.149.75-.033-4.7.351-7.667 1.15-8.9 3.9-6.066 8.483-9.8 13.75-11.2 4.1-.367 7.4 1.15 9.9 4.55 1 1.4 1.733 2.85 2.199 4.35.334 1.033.851 1.383 1.551 1.05a25.444 25.444 0 0 0 4.85-2.25 23.57 23.57 0 0 1 5.7-2.4l1.2-.2c.399.034.816.067 1.25.1.433.067.866.15 1.3.25.467.133.934.283 1.399.45l1.4.6c.467.233 1.033.767 1.7 1.6.633.8 1.217 1.5 1.75 2.1.3.3.434.733.399 1.3 1.5-4.633 4.867-7.383 10.101-8.25 2.899-.233 5.566.933 8 3.5.5.066.967.183 1.399.35 9.867 17.2 10.284 35.85 1.25 55.95-.433.933-.85 1.883-1.25 2.85a137.69 137.69 0 0 1-4.8 12.3c-.8 1.833-1.616 3.65-2.45 5.45-.767 1.6-1.55 3.2-2.35 4.8-7 13.867-12.634 28.184-16.9 42.95-4.633 17.4-8.233 35-10.8 52.8a1521.929 1521.929 0 0 0-7.149 58.199c-.2 2.101-.417 4.2-.65 6.301-.366 3.5-.717 7-1.05 10.5a1260.435 1260.435 0 0 0-4.2 59.5c-2.8 58.699 16.25 108.5 57.15 149.399h5c38.966-42.767 52.6-95.3 40.899-157.6a658.188 658.188 0 0 1-7.55-51.3 600.53 600.53 0 0 1 .1-129.95c.801-7.167.884-14.25.25-21.25-1.066-11.867-3.5-23.317-7.3-34.35-10.899-17.434-15.217-36.3-12.95-56.6 1.4-12.433 8.15-19.9 20.25-22.4.7.066 1.434.183 2.2.35 1.4.2 2.566.85 3.5 1.95.2.267.4.55.601.85.233.367.517.7.85 1 .167.133.384.233.65.3.933-.8 1.767-1.716 2.5-2.75 4.933-6.867 11.066-8.617 18.399-5.25.7.3 1.351.7 1.95 1.2.866.7 1.684 1.467 2.45 2.3.7.767 1.434 1.517 2.2 2.25 0 .034.066 0 .199-.1.9-7 4.167-9.883 9.801-8.65l11 5.05a23.898 23.898 0 0 1 3.399-3.75c.267-.2.533-.383.8-.55 8.7-1.033 14.017 2.784 15.95 11.45a75.039 75.039 0 0 1 1.851 19.8 176.209 176.209 0 0 0-1.851 7.5c-3.033 13.7-8.35 26.317-15.95 37.85-.333.533-.683 1.083-1.05 1.65a9.68 9.68 0 0 0-1.45 4.75c0 .467-.033.934-.1 1.4a91.402 91.402 0 0 1-.8 5.85c-.2 1-.467 2-.8 3l-7 20c-.334 1.333-.65 2.667-.95 4-.667 3.1-1.316 6.367-1.95 9.8a868.08 868.08 0 0 0-11 78.25 504.064 504.064 0 0 0-1.9 65.051 551.252 551.252 0 0 0 4.95 55.649c8.134 57.634-2.217 110.867-31.05 159.7-7.467 12.6-11.3 26.417-11.5 41.45-.3 23.733-2.717 47.133-7.25 70.2l-12.35 48.899-.551 4.7-.449.3.449 4c19.733-10.899 40.917-15.95 63.551-15.149a86.96 86.96 0 0 1 10.204-.824zM401.4 71.484l-4 5-3 8 3.8 12.8 8.45-14.2-5.25-11.6zm-102.65 38.55l2.65-6.55-4.65-6.95-8.65 13.5c-.733 1.167-3.6 5.066-8.6 11.7-5 6.6-5.684 11.784-2.05 15.55 3.033 5.433 6.05 4.983 9.05-1.35 3.7-7.5 7.283-15.05 10.75-22.65.5-1.067 1-2.15 1.5-3.25zm83.65-14.4c-.967-4.9-2.917-6.833-5.851-5.8l-1.05 2 8.85 27.7 5-4.45c-3.332-6.167-5.649-12.65-6.949-19.45zm20.4 18.6c6.101-2.267 10.384-7.367 12.851-15.3 1-3.133-.084-4.95-3.25-5.45l-8 14-2.9 1.7 1.299 5.05zm-5.55 21.6c-.066-.933-.25-1.767-.55-2.5-4.533-.1-7.767 2.55-9.7 7.95-4.233 22.3-6.566 44.95-7 67.95-.333 17.9.434 35.8 2.3 53.7 8.334-36.967 13.4-74.45 15.2-112.45.1-1.867.134-3.7.1-5.5a283.389 283.389 0 0 0-.35-9.15zm-207.75 35.2l-5.35-34.15c-9.3 8.533-11.4 19.917-6.3 34.15 4.2 38.034 8.316 76.083 12.35 114.15a847.013 847.013 0 0 0-.7-114.15zm-15.8-63.1c0-2.633-.25-4.867-.75-6.7-.534-1.867-1.167-2.8-1.9-2.8-.733 0-1.35.933-1.85 2.8-.534 1.833-.8 4.067-.8 6.7s.267 4.883.8 6.75c.5 1.833 1.117 2.75 1.85 2.75.733 0 1.367-.917 1.9-2.75.5-1.867.75-4.117.75-6.75zm35.15-12.75a21.256 21.256 0 0 0 1.3-6.5l-.85-.7a66.433 66.433 0 0 0-12.5 16c-.6 1.067-1.183 2.133-1.75 3.2-.566 1.1-1.117 2.2-1.65 3.3l1.25 8.1 4.8-.4a297.041 297.041 0 0 0 9.4-23zm-17.8-14.75c-.733 1.2-1.5 2.383-2.3 3.55-2.2 3.2-3.183 6.717-2.95 10.55l.15 1.65 3.55 3.15 5.95-12.3-4.4-6.6zm86.85 2.2l-1.851 1.55-2.649 6.3-2.101 11.5.15 5.75 3.75 2.4a.555.555 0 0 1 .149-.1c.334-.367.667-.75 1-1.15 3.634-4.1 5.4-8.883 5.301-14.35a38.542 38.542 0 0 0-1.25-9.35l-2.499-2.55zm-32.85 31.9c-9.433-14.6-13.816-30.767-13.15-48.5l-19.15 46.5-8.55 58.5.2 114.55.8 52c3.933 7.767 5 16.066 3.2 24.899-13.066 64.3-14.783 128.3-5.15 192a7336.32 7336.32 0 0 1 11 76.15l5.6 45.45.8.449c15.767-5.333 31.9-8.583 48.4-9.75 3.667-.233 7.334-.383 11-.449l30 1.949 17.3-55.699c14.867-53.301-.733-100.917-46.8-142.851-8.434-7.7-14.066-17.283-16.899-28.75-12.767-51.233-16.75-103.033-11.95-155.399l6-48.5c-.134-8.5-.384-16.5-.75-24a626.955 626.955 0 0 1-.25-56.55c.466-15.232-3.418-29.232-11.651-41.999zM45.075 822.859a3.697 3.697 0 0 0-.725-.075c-.206 0-.38-.133-.525-.399l1.25.474zM209.4 726.484v4h-1c19.267 15 39.6 28.5 61 40.5 12.833-23.967 23.183-48.899 31.05-74.8-3.3-.434-6.601-.8-9.9-1.1l-10.5-.601a187.105 187.105 0 0 0-13.649 0l-12 1-9 2-25 11c-.233.467-.483.95-.75 1.45-.1.2-.233.384-.4.55a104.17 104.17 0 0 0-6.85 7 317.125 317.125 0 0 1-.75 5.601 8.632 8.632 0 0 1-.1.449c-.4.967-.783 1.95-1.15 2.95H209.4zm-11 48l-12.2 21.2c-1.3 2-2.233 3.267-2.8 3.8-.433.4-1.433 2.084-3 5.05-1.566 3-3.566 5.65-6 7.95-1.733 1.667-4.55 3.783-8.45 6.351-3.034 2.3-4.55 4.517-4.55 6.649 0 .769.008 1.485.025 2.15h.025l-.4 9.85h-.65c-.333-.233-.833-1.399-1.5-3.5-.633-2.033-1.3-3.25-2-3.649l-.75.449c-.5.367-.75.75-.75 1.15 0 1.333.117 2.25.35 2.75l-.35 12.3c-.733-.8-2.033-4.066-3.9-9.8-1.467-4.467-3.5-6.7-6.1-6.7-.533 0-1.15.3-1.85.9-.767.6-1.15 1.133-1.15 1.6 0 1.967.217 3.101.65 3.4.833.633 1.284 2 1.35 4.1-.4 0-.733-.066-1-.2l-.25-.199c-.566-.5-1.883-2.067-3.95-4.7-1.133-1.5-2.4-2.134-3.8-1.9l-.05 5.4c-.3.366-.617.566-.95.6.033-.8-.133-1.383-.5-1.75-.2-.2-.4-.3-.6-.3l-.9.05c0-1.7-.167-2.899-.5-3.6l-.55-.55c-4 2.733-5.867 5.949-5.6 9.649.067.767.3 1.851.7 3.25.267.834.25 1.25-.05 1.25-1.225-1.805-2.808-4.821-4.75-9.05-1.899-4.137-4.25-3.896-7.05.725 1.356-2.416.356-4.007-3-4.774-4.2-.334-6.6-.634-7.2-.9.367.733 2.4 3.584 6.1 8.55a461.594 461.594 0 0 0 13.1 16.801c4.333 5.3 8.15 9.716 11.45 13.25a29.936 29.936 0 0 0 7 6.899c1.6 1.167 3.3 2.066 5.1 2.7.633.267 1.283.533 1.95.8a53.809 53.809 0 0 1 17.15-.45c2.067.334 4.15.684 6.25 1.051l.35-.7c3.267-.267 6.267-1.167 9-2.7 1.6-.934 3.133-2 4.6-3.2.6-.566 1.216-1.133 1.85-1.7l2.4.101 18.8-14.95c0-.066 2.333-2.233 7-6.5 4.667-4.3 7-6.467 7-6.5 0-3.1 4.033-8.8 12.1-17.1 4.833-4.967 7.6-7.834 8.3-8.601 2.5-2.833 3.75-4.783 3.75-5.85 0-.667-.2-1.334-.601-2-.434-.533-.649-.834-.649-.9 0-.399.1-.633.3-.7.1-.033.2-.033.3 0 1.533-.466 2.733-1.433 3.6-2.899.567-.934.851-1.65.851-2.15 0-1.1-1.15-3.1-3.45-6-2.267-2.866-3.833-4.3-4.7-4.3-.133 0-.55-.25-1.25-.75-10.966-11.167-23.617-19.9-37.95-26.2l-4-1.7-1.701 6.697zm240.275 109.525l-.225.175a9.52 9.52 0 0 0-1.675-.8l1.9.625z" fill="#010101" fill-rule="evenodd"/><linearGradient gradientUnits="userSpaceOnUse" id="a" x1="77.607" x2="22.681" y1="715.373" y2="740.17"><stop offset="0"/><stop offset="1" stop-opacity="0"/></linearGradient><path d="M80.5 730.534c-11.784.685-21.817 4.15-30.1 10.4-.125.087-.25.179-.375.275l-.025.025c-9.167 8.614-18.333 13.581-27.5 14.9L0 733.634c18.66-4.984 36.776-13.234 54.35-24.75l.225-.15c.174-.12.349-.236.525-.35 3.951-2.539 9.151-4.472 15.6-5.8 2.34-.477 4.682-.885 7.025-1.226l2.775 29.176z" fill="url(#a)" fill-rule="evenodd"/><linearGradient gradientUnits="userSpaceOnUse" id="b" x1="50.491" x2="18.592" y1="798.19" y2="789.638"><stop offset="0"/><stop offset="1" stop-opacity="0"/></linearGradient><path d="M46.3 823.309v.025l-1.225-.476-1.25-.475c-18.02-2.117-31.295-7.2-39.825-15.249l17.5-44 28.9 11.35a120.908 120.908 0 0 0 9.175 4.525l-13.275 44.3z" fill="url(#b)" fill-rule="evenodd"/><linearGradient gradientUnits="userSpaceOnUse" id="c" x1="419.274" x2="474.803" y1="670.236" y2="684.922"><stop offset="0"/><stop offset="1" stop-opacity="0"/></linearGradient><path d="M417.6 654.509a78.044 78.044 0 0 1 2.65-.025c5.4.033 10.85.417 16.35 1.15 1.733.366 3.467.8 5.2 1.3a61.918 61.918 0 0 1 7.601 2.55l39.75 14.101-3 29.55c-11.634-4.684-23.884-6.9-36.75-6.65-4.434-.2-8.7-1.066-12.801-2.6a114.92 114.92 0 0 0-19-6.325v-33.051z" fill="url(#c)" fill-rule="evenodd"/><linearGradient gradientUnits="userSpaceOnUse" id="d" x1="427.221" x2="482.092" y1="758.325" y2="803.33"><stop offset="0"/><stop offset="1" stop-opacity="0"/></linearGradient><path d="M430.7 741.384a994.262 994.262 0 0 0 6.25 4.25c9.133 6.2 16.95 13.816 23.45 22.85 3.188 8.612 15.271 18.496 36.25 29.65l-11.5 24c-14.086-6.683-26.478-15.624-37.176-26.825l-9.225-6.675a2581.566 2581.566 0 0 0-22.225-18.275l14.176-28.975z" fill="url(#d)" fill-rule="evenodd"/><linearGradient gradientUnits="userSpaceOnUse" id="e" x1="430.813" x2="498.91" y1="913.356" y2="873.953"><stop offset="0"/><stop offset="1" stop-opacity="0"/></linearGradient><path d="M420.2 892.934c6.452-1.128 12.535-4.045 18.25-8.75l.225-.175 60.976-45.875 22 58.05-72.275 35.975c-1.812 2.129-3.804 3.237-5.975 3.325-1.733.066-4.301 1.233-7.7 3.5a1.476 1.476 0 0 1-.125.075L420.2 892.934z" fill="url(#e)" fill-rule="evenodd"/><g><linearGradient gradientUnits="userSpaceOnUse" id="f" x1="421.975" x2="485.096" y1="861.833" y2="878.545"><stop offset="0"/><stop offset="1" stop-opacity="0"/></linearGradient><path d="M492.15 901.859l-53.45-17.85c-7.62-1.855-14.37-3.756-20.25-5.7l4.649-37.625a1146.37 1146.37 0 0 0 11.75 4.65l10.4 4.1 46.9 12.7v39.725z" fill="url(#f)" fill-rule="evenodd"/><linearGradient gradientUnits="userSpaceOnUse" id="g" x1="73.692" x2="58.135" y1="822.053" y2="763.23"><stop offset="0"/><stop offset="1" stop-opacity="0"/></linearGradient><path fill="url(#g)" fill-rule="evenodd" d="M64 745.134l40.4 88.35-58.025-10.125L29.5 759.634z"/></g></svg>