<svg xmlns="http://www.w3.org/2000/svg" xmlns:dc="http://dublincore.org/documents/dcmi-terms/" height="152pt" version="1" viewBox="0 0 475 152" width="475pt"><metadata><dc:description>Silhouette of Agnosphitys cromhallensis, processed by PhyloPic Tools (https://github.com/eweitz/phylopic-tools)</dc:description><dc:source>http://phylopic.org/image/05d79645-d985-494d-a239-0e142c46d203</dc:source><dc:creator>Iain Reid</dc:creator><dc:license>http://creativecommons.org/licenses/by-sa/3.0/</dc:license></metadata><path d="M169 5.2c-15 1.9-27.3 5.7-36.7 11.2-3.2 1.9-11.6 8.3-18.7 14.3-18.4 15.5-20.7 17.2-24.4 17.9-1.9.4-13.6-.1-26.2-1.1l-22.8-1.8-8.1 2.1c-9 2.4-25.8 9.9-28 12.5-.7.9-2 1.7-2.7 1.7-1.7 0-1.9 4.6-.1 4.9.6.1 3.2.2 5.7.4 2.5.1 4.8.6 5.2 1.2.5.6.8.4.8-.5 0-1.3.1-1.3 1 0 .7 1.2 1 1.2 1 .1 0-.7.6-1.1 1.5-.7.8.3 1.5 0 1.5-.7 0-.9.3-.8.9.1.9 1.4 1.3 1.5 4.8.1 1.4-.5 2.3-.4 2.5.3.3.8 1.1.7 2.6-.1 1.3-.7 3.5-1.1 5-.9 2.2.2 3 1.1 4.2 4.6 1.5 4.3 1.5 4.4-1.3 6.8-1.5 1.3-2.6 2.5-2.5 2.7.2.3-.9 1.9-2.4 3.8-1.6 1.8-2.8 3.6-2.8 4 0 .4-.9 1.1-2 1.4-1.1.4-1.7 1.1-1.4 1.7.5.8.1.9-1 .5-1.2-.5-1.6-.2-1.4 1.1.2 1-.2 1.6-1.1 1.4-.9-.2-1.1.3-.7 1.4.4 1.2.2 1.5-.9 1-1.8-.6-1.9-.2-.5 2.5.6 1 1.8 1.9 2.8 1.9.9 0 6.2-3.9 11.7-8.7C44 84.1 54.3 78 58.7 78c1 0 4.2-.9 7.1-2 3.1-1.2 10.4-2.5 17.8-3.2l12.5-1.2 2.6 2.6 2.6 2.7-3.1 3.5c-1.7 1.9-4.9 6.6-7.1 10.3-2.2 3.8-5.9 8.6-8.1 10.8-4.9 4.8-5.1 6.1-.5 3.4 4-2.4 4.2-2.1 1.5 2.3-2.1 3.5-2.6 6.8-1 6.8.6 0 1-.6 1.1-1.3 0-.6.5-.1 1 1.3 1 2.3 1.1 2.3 3.4-2.5 1.3-2.8 2.4-4.4 2.4-3.8.2 2.7 2.1 1.1 3.2-2.6.6-2.2 5.1-9 10-15.3 4.9-6.2 8.9-11.9 8.9-12.6 0-.7-.4-2.2-1-3.2-1.5-2.9 2.8-3.5 5.7-.8 1.3 1.2 2.3 2.6 2.3 3.1s.9 1.6 2 2.5l2 1.7-2.4 9.5c-1.3 5.2-3.3 11.7-4.5 14.4-2.2 5.1-2 7.5.5 4.2 1.8-2.6 1.8-.8-.1 3.7-1.7 4.2-1.8 4.7-.7 4.7.5 0 1.4-1 2.1-2.2 1-2.1 1.1-1.9.7 1.5-.6 4.6.7 4.8 2.4.4.7-1.7 2.2-4.1 3.2-5.3 1-1.1 2.3-4.6 2.9-7.9.6-3.2 2.4-9.3 4-13.7 1.6-4.4 2.9-9.1 2.9-10.4 0-2.7-1.7-6.5-3.3-7.5-1.7-1.2.2-3.9 2.7-3.9 2.3 0 15.1-2.4 18.7-3.5 1.1-.4 2 .6 3.1 3.3.8 2.1 3.2 5.2 5.2 6.7 3.2 2.4 5 2.9 12.9 3.6 11.4 1 20.9 2.6 21.6 3.7.3.5 1.4 1.1 2.4 1.5.9.3 1.7 1.2 1.7 1.9 0 1.3-4 8-9.4 15.7l-2.8 4 3.1 6c1.7 3.3 3.1 6.7 3.1 7.5 0 .8.8 2.2 1.7 3.1 1.4 1.4 1.5 2.4.6 5.6-.8 3-.7 4.3.3 5.6 1.1 1.6 1.3 1.6 1.9-1 .5-2 1.2-2.6 2.4-2.2 3.4 1 8.4-14 5.3-15.9-.5-.3-1.5-3.6-2.2-7.5-1.3-6.8-1.2-7 1.3-11.3 5.2-8.5 4.2-8.1 15.1-5.3 11.8 3.1 25.7 8.6 30.1 11.9 3.5 2.7 7.9 9.5 9 13.9.4 1.6 1.4 2.7 2.4 2.7 2 0 4.5 5.9 3.5 8.3-.3.9-1.7 2.3-3 3.2-1.4.9-2.2 2-1.9 2.5.4.6 0 1-.8 1-1.6 0-4.4 5.7-3.3 6.7.3.3 1.8.1 3.2-.6 2.7-1.2 6.4-.7 6.4 1 0 2.1 2.8.6 7.4-3.8 4.6-4.4 5.1-5.4 6.4-12.3 2.4-12.9 2.4-13.1-2.8-14.8-5.7-1.9-9.6-4.5-13.9-9.5-3.5-4-12.8-10.4-21.8-15.1-5-2.6-6.6-3.8-16-11.8-6.5-5.6-12.7-8.8-17-8.8-3 0-3 0-1.9-3.7 1.7-5.6 15.9-19.1 24.9-23.6 10.5-5.2 17.4-7.5 24.7-8.2 3.6-.3 13-1.7 21-3s20.4-2.9 27.5-3.4c18.5-1.4 50.6-2.1 53-1.2 1.1.5 3.1.4 4.5-.1 5.5-2.1 40.8-.6 50.9 2.1 12 3.3 38.5 11.1 42.6 12.6 2.2.8 4.9 1.6 6 1.8 1.1.2 4.2 1.3 6.9 2.5 6.1 2.8 6.6 2.7 6.6-.3 0-2.3-3.5-5.4-4.7-4.1-.3.3-3.2-.8-6.5-2.5-3.2-1.6-10.2-4.4-15.6-6.1-5.3-1.7-10-3.6-10.4-4.2-.4-.6-.8-.7-.8-.2 0 .5-.6.4-1.2-.2-1.9-1.4-11.5-3.3-13.4-2.5-1.2.5-1.5.3-.9-.6.6-1 0-1.2-2.4-.6-2 .4-3.1.3-3.1-.5 0-.6-.4-.9-.9-.6-1.1.7-23.4-4.1-27.1-5.7-2.5-1.2-6.4-1.6-15-1.6-4.2-.1-30.6-2.6-37.5-3.6-10.8-1.6-48.4-2-85.7-.9-15.1.5-29.2.3-39-.5-24.7-1.8-27.6-1.8-41.8.1z"/></svg>