<svg xmlns="http://www.w3.org/2000/svg" xmlns:dc="http://dublincore.org/documents/dcmi-terms/" height="270.023" viewBox="0 0 142.55084 270.02301" width="142.551"><metadata><dc:description>Silhouette of Alacorys, processed by PhyloPic Tools (https://github.com/eweitz/phylopic-tools)</dc:description><dc:source>http://phylopic.org/image/4150d237-b940-4ce3-a370-7d09c67341d8</dc:source><dc:creator>Dinah Challen</dc:creator><dc:license>http://creativecommons.org/publicdomain/zero/1.0/</dc:license></metadata><g fill-rule="evenodd"><path d="M70.978 0h2.547l-1 5.969 2.35.073C74.805 7.608 73.479 14 73.479 14l3.02.042-2 7.021 3.105.083-2.062 7.849h2.896L76.54 37l3 .083-1.97 7.912h1.51s-1.56 7.938-1.56 8.271c5.093 1.567 10.526 7.931 8.029 17.037 1-.667 4.34-3.704 7.44-5.532 0 .247-1.45 4.755-2.79 8.666-.244 1.909.05 3.231-.097 4.259 2.999-2.333 5.58-4.553 8.812-6.756-1.566 3.574-3.376 6.654-5.042 9.987 2.999-2 6.462-4.309 9.497-6.609 0 .333-3.514 6.507-4.847 9.84.294.343.254 1.812.588 1.812 2.666-1.333 6.488-3.073 9.155-4.406 0 .333-4.162 5.933-4.162 6.267-.98 1.518 6.757-3.672.93 2.35 3-.667 4.149-.558 7.148-1.224-3.263 3.758-4.817 5.687-8.616 9.351 3.407-.58 7.829-.704 11.162-1.371-.334.667-4.317 2.76-4.651 3.427-2.666 1.667-1.69 1.222-4.356 2.889.146.734 0 1.077 0 1.762h10.525c0 .333-9.547 4.954-9.547 5.288-.587.343 2.105.392 3.868.881.636.881-8.616 3.769-8.274 4.357-1.245.702 7.44 3.819 7.344 4.259-.294.881-6.756 1.371-8.812 2.742 0 .333-.05 3.044-.05 3.378h3.72c2.334-2 5.208-4.266 7.54-6.266 0 .333-.146 1.331-.146 1.665-3.561 5.549-5.41 4.433-5.184 12.787h2c5.159.903 7.688-2.457 13.318-5.149-1.567 4.308-2.984 6.967-4.651 10.966.783 1.86.43 3.327 1.763 4.994 1.615-.294 6.02-1.322 8.225-2.007 0 .333-2.301 5.296-2.301 5.63-1.117 2.297-1.646 3.88-1.763 5.098 2.906 2.888 4.435 5.014 6.823 11.471 3.827-1.321 3.416-1.583 4.249-4.667 3.159-9.535-8.75-19 1.5-25.167-2.666 9.917 9.25 16.667 6.17 29.831-1.916 4.75-3.833 7.333-5.833 10 1.333 10.999 4.167 17.917 3.25 30.917-1.333 17.25-11.047 36.312-5.75 55.25-1.667-1-3.5-1.833-6.25-5.417-5.833-18.917 1.43-33.994 2.833-50.583-.75-13.5-.926-25.717-9.583-34.167 1.164 4.585 3.667 7.333-1.5 14.25-.513 9.316 1.083 17.333-2.667 29.917-7.333 20.333-9.391 38.077-1 54.75-22.003-7.381-13.166-36.417-8.833-61 1.747-9.915-.25-19.5-1-25.917-.93-7.948-9.77-6.342-8.918-7.75 2.665-4.415-.5-20.75-16.25-18.667 0 8.5 1.547 4.673 3.918 7.75-4.802 1.01-7.667 4.25-8.333 9.833-.25 13.5 1.583 25.5 1.583 42.583.167 12.5-1.521 24.377-3.833 33.917-.57 2.348-1.777 4.721-2.667 6.75"/><path d="M71.344 257.521c-.89-2.029-2.096-4.419-2.665-6.767-2.312-9.54-4-21.417-3.833-33.917 0-17.083 1.833-29.083 1.583-42.583-.667-5.583-3.531-8.824-8.333-9.833 2.37-3.077 3.917.75 3.917-7.75-15.75-2.083-18.914 14.252-16.25 18.667.85 1.408-7.988-.198-8.917 7.75-.75 6.417-2.748 16.002-1 25.917 4.333 24.583 13.169 53.619-8.833 61 8.39-16.673 6.333-34.417-1-54.75-3.75-12.583-2.154-20.601-2.667-29.917-5.167-6.917-2.664-9.665-1.5-14.25-8.658 8.45-8.833 20.667-9.583 34.167 1.404 16.589 8.667 31.667 2.833 50.583-2.75 3.583-4.583 4.417-6.25 5.417 5.296-18.938-4.417-38-5.75-55.25-.917-13 1.917-19.918 3.25-30.917-2-2.667-3.917-5.25-5.833-10-3.081-13.165 8.836-19.915 6.169-29.831 10.25 6.167-1.66 15.631 1.5 25.167.833 3.083.422 3.346 4.25 4.667 2.389-6.457 3.917-8.583 6.823-11.471-.116-1.218-.646-2.801-1.763-5.098 0-.333-2.301-5.296-2.301-5.63 2.203.685 6.609 1.713 8.225 2.007 1.333-1.667.979-3.133 1.762-4.994-1.667-4-3.084-6.658-4.651-10.966 5.63 2.692 8.159 6.053 13.318 5.149h2c.226-8.354-1.624-7.238-5.184-12.787 0-.333-.147-1.331-.147-1.665 2.333 2 5.207 4.266 7.54 6.266h3.72c0-.333-.048-3.044-.048-3.378-2.056-1.371-8.518-1.86-8.812-2.742-.098-.44 8.589-3.557 7.344-4.259.342-.588-8.91-3.476-8.274-4.357 1.763-.489 4.455-.539 3.868-.881 0-.333-9.546-4.954-9.546-5.288H36.83c0-.685-.147-1.028 0-1.762-2.667-1.667-1.69-1.222-4.357-2.889-.333-.667-4.317-2.76-4.651-3.427 3.333.667 7.755.791 11.162 1.371-3.8-3.664-5.354-5.593-8.617-9.351 3 .667 4.148.558 7.148 1.224-5.826-6.022 1.909-.833.93-2.35 0-.333-4.162-5.933-4.162-6.267 2.667 1.333 6.489 3.073 9.155 4.406.333 0 .293-1.469.587-1.812-1.333-3.333-4.847-9.507-4.847-9.84 3.036 2.301 6.498 4.609 9.498 6.609-1.667-3.333-3.476-6.414-5.042-9.987 3.23 2.203 5.812 4.423 8.812 6.756-.147-1.028.147-2.35-.098-4.259-1.34-3.91-2.791-8.419-2.791-8.666 3.1 1.828 6.44 4.866 7.44 5.532-2.496-9.106 2.938-15.47 8.03-17.037 0-.333-1.707-8.254-1.707-8.254h1.658l-1.408-7.912 2.925-.08-2.05-8.009h2.882l-2.737-7.786L67.636 21l-2.104-6.917 3.083-.208s-1.112-5.12-1.45-7.816c-.572.017 2.388-.017 2.388-.017l-1-6.042h2.562"/></g></svg>