<svg xmlns="http://www.w3.org/2000/svg" xmlns:dc="http://dublincore.org/documents/dcmi-terms/" height="294.095" viewBox="0 0 865.41837 275.71445" width="923.113"><metadata><dc:description>Silhouette of Alcidedorbignya inopinata, processed by PhyloPic Tools (https://github.com/eweitz/phylopic-tools)</dc:description><dc:source>http://phylopic.org/image/926a0e77-bdb1-48b9-a371-600978cc952a</dc:source><dc:creator>Zimices</dc:creator><dc:license>http://creativecommons.org/licenses/by-nc/3.0/</dc:license></metadata><path d="M812.724 275.533c-14.816-2.407-36.372-10.828-47.285-18.471-3.116-2.183-5.092-2.427-3.888-.48 1.676 2.713-3.772-1.11-8.202-5.756-2.407-2.523-6.455-5.66-8.997-6.97-2.542-1.31-6.288-4.803-8.323-7.761-4.427-6.435-12.657-14.637-14.686-14.637-.8 0-3.488-2.252-5.974-5.004s-4.52-4.624-4.52-4.16c0 .463.934 1.874 2.075 3.136 1.142 1.261 1.74 2.629 1.33 3.04-.41.41-2.329-1.596-4.263-4.457-7.393-10.934-11.216-15.708-13.575-16.951a230.175 230.175 0 0 1-5.567-3.073c-1.72-.982-3.953-1.922-4.965-2.089-1.011-.166-2.98-1.88-4.373-3.81-4.188-5.797-10.823-12.826-11.83-12.532-.518.151-5-3.937-9.96-9.085-4.96-5.148-9.803-9.366-10.762-9.375-.96-.009-2.512-1.062-3.45-2.341-1.564-2.135-1.87-2.161-3.71-.321-1.84 1.84-2.295 1.697-5.536-1.737-4.42-4.682-6.156-4.84-3.334-.304 1.954 3.14 1.74 3.066-2.471-.87-2.535-2.37-4.61-3.603-4.61-2.742 0 1.77-8.93-3.118-13.3-7.278-2.863-2.725-5.45-3.34-5.45-1.297 0 1.673-4.633 1.603-5.677-.085-.454-.735-1.594-1.04-2.534-.68-.94.36-2.069.072-2.51-.641-.44-.713-2.212-.943-3.937-.51-2.122.533-3.95.06-5.654-1.46-2.44-2.177-2.497-2.17-1.795.25.398 1.376 1.1 4.621 1.56 7.213 1.052 5.937 8.96 14.923 19.16 21.772 6.629 4.451 9.118 5.308 20.634 7.101 7.202 1.122 17.303 2.04 22.447 2.04 5.144 0 10.242.341 11.33.759 2.754 1.057 2.562 8.996-.397 16.415-17.259 43.261-16.472 41.78-28.251 53.176-2.063 1.996-7.688 6.153-12.5 9.24l-8.75 5.61-13.438.34c-7.832.198-13.437-.152-13.437-.84 0-.649-2.954-.987-6.563-.752-5.865.381-6.602.15-6.935-2.182-.62-4.334 2.908-5.836 16.353-6.967 15.697-1.32 20.24-4.035 27.162-16.234 3.528-6.219 8.733-18.447 8.733-20.518 0-.142-13.922-.183-30.938-.09-32.507.176-31.294.327-48.86-6.051-8.58-3.116-17.88-9.678-24.938-17.596-3.583-4.02-6.54-7.9-6.573-8.622-.032-.722-1.157 1.5-2.499 4.937-2.012 5.153-2.44 9.363-2.441 23.989 0 9.765.529 18.066 1.178 18.467 2.532 1.565 11.32 19.309 11.32 22.857 0 5.639-2.37 6.743-15.259 7.11-6.388.182-20.053 1.071-30.365 1.976-10.313.905-26.7 1.534-36.415 1.397-15.915-.222-17.75-.027-18.526 1.978-.786 2.027-.995 2.046-2.348.21-1.757-2.384-18.21-4.611-25.211-3.412-2.061.353-2.566-.355-2.875-4.03-.316-3.767.13-4.69 2.872-5.938 1.785-.814 5.37-1.48 7.966-1.48 2.597 0 10.305-.814 17.129-1.81 6.824-.995 21.363-2.377 32.308-3.07 13.856-.877 20.426-1.784 21.628-2.987 1.47-1.47 1.238-3.016-1.558-10.367-1.807-4.752-3.758-11.171-4.336-14.265-4.699-25.146-10.238-49.279-11.834-51.557l-1.925-2.75v2.853c0 1.568-.515 2.533-1.144 2.145-.628-.389-1.408 0-1.732.864-.35.934-1.12.305-1.903-1.555-1.277-3.04-1.315-3.049-1.392-.313-.044 1.547-.602 2.813-1.24 2.813s-1.966.805-2.949 1.788c-1.463 1.463-2.56 1.518-6.027.302-2.331-.817-4.907-1.915-5.724-2.439-.832-.534-1.932-.2-2.5.759-1.198 2.023-7.119 3.694-8.433 2.38-1.156-1.156-3.637-1.255-4.456-.176-1.09 1.433-8.75 2.656-8.75 1.397 0-.73-2.167-.784-5.623-.138-3.092.578-6.474.723-7.516.324-1.041-.4-2.59-.2-3.44.442-1.85 1.398-7.722 2.094-17.484 2.072-5.135-.012-7.187.455-7.187 1.636 0 2.036-2.112 2.192-2.775.205-.675-2.026-6.225-2.67-7.348-.854-.51.826-1.957 1.643-3.215 1.817-3.829.528-5.963 1.134-7.6 2.156-.88.55-1.562.399-1.562-.347 0-2.4-6.819-1.453-8.46 1.176-1.82 2.915-4.3 3.383-3.237.61.508-1.323.15-1.668-1.193-1.153-1.054.405-2.232 1.556-2.616 2.558-.604 1.574-1.11 1.553-3.722-.159-2.17-1.421-3.162-1.563-3.515-.503-.356 1.068-1.593.908-4.462-.575-2.184-1.13-4.69-1.907-5.57-1.728-2.561.52-5.958 6.267-5.967 10.095-.005 1.935-.627 4.675-1.383 6.088-1 1.868-1 2.337 0 1.719.885-.547 1.375.512 1.375 2.974 0 2.103-.532 3.824-1.18 3.824-.65 0-1.181 4.26-1.181 9.467 0 15.635-1.818 21.612-9.035 29.71-3.465 3.887-9.49 8.933-13.39 11.212-6.947 4.061-7.33 4.134-19.095 3.612-7.943-.353-12.96-.023-14.822.974-2.036 1.09-3.194 1.128-4.182.14-.75-.75-3.269-1.365-5.595-1.365-2.712 0-4.051-.533-3.733-1.487 1.134-3.403 7.31-5.969 19.035-7.909 14.055-2.325 17.84-3.933 24.18-10.273 3.694-3.694 4.532-5.528 4.947-10.827.424-5.419-.252-7.994-4.492-17.105-2.745-5.899-5.397-13.493-5.894-16.875-1.43-9.726-2.484-11.665-6.13-11.277-1.753.187-3.5.653-3.883 1.036-1.13 1.129-5.549-.45-5.57-1.991-.01-.78-.573-.573-1.25.458-1.032 1.573-1.41 1.597-2.34.152-2.283-3.542-4.197-.034-3.372 6.181.899 6.777 1.926 5.363-15.828 21.792-12.735 11.784-22.204 19.879-25.732 21.998-1.604.963-3.972 3.796-5.263 6.294-2.713 5.25-18.801 15.587-26.143 16.797-2.435.402-6.918 1.53-9.963 2.508-3.044.978-9.673 1.778-14.731 1.778-6.368 0-10.146.622-12.284 2.023-2.23 1.46-3.532 1.654-4.688.694-2.232-1.853-30.433-2.316-36.281-.596-5.789 1.702-7.321-.323-4.037-5.335 2.83-4.32 11.052-7.628 21.448-8.63 34.307-3.31 48.68-7.551 56.625-16.709 12.118-13.969 15.04-18 19.928-27.494 4.658-9.047 5.18-10.966 5.18-19.031s-.446-9.705-4.423-16.252c-4.413-7.265-18.452-19.92-22.098-19.92-.986 0-3.114-1.406-4.728-3.125-1.615-1.719-3.679-3.125-4.587-3.125-.908 0-5.141-2.813-9.407-6.25-4.266-3.438-8.347-6.25-9.069-6.252-.722 0-2.947-1.407-4.944-3.125-1.998-1.718-4.373-3.123-5.28-3.123-.905 0-4.18-1.231-7.277-2.736l-5.63-2.735-5.478 2.735c-3.012 1.505-5.769 2.736-6.126 2.736-.356 0-5.076 2.433-10.488 5.407s-14.62 6.974-20.464 8.889c-5.844 1.915-12.28 4.358-14.301 5.43-5.866 3.107-12.557 3.824-19.318 2.07-11.114-2.882-13.186-4.96-11.81-11.836.933-4.67 2.14-5.474 5.279-3.514 2.081 1.3 3.207 1.008 7.457-1.938 2.753-1.908 5.312-4.265 5.685-5.238.374-.974 1.48-1.77 2.46-1.77.979 0 2.104-.844 2.5-1.875 1.152-3.004-1.928-2.243-12.653 3.125-11.149 5.58-18.255 6.41-26.26 3.065-9.518-3.977-13.372-10.896-9.856-17.695 3.465-6.7 20.509-24.917 29.986-32.05 5.207-3.918 9.795-7.655 10.196-8.304.4-.648 9.285-5.467 19.744-10.708 18.045-9.043 30.133-14.019 41.665-17.152 5.582-1.516 10.144-7.188 13.412-16.671 1.894-5.5 5.787-6.835 12.19-4.183 3.452 1.43 4.883 4.364 6.348 13.02.275 1.623 2.095 2.944 5.408 3.924 2.746.812 10.336 3.963 16.868 7.002 6.53 3.04 17.365 6.84 24.075 8.447 10.565 2.53 14.168 2.823 26.875 2.188 20.232-1.011 36.997-4.056 45.3-8.227 20.145-10.12 29.125-15.01 39.343-21.424 12.33-7.738 18.614-10.367 30.032-12.56 4.125-.793 9.305-2.186 11.51-3.097 2.207-.91 6.144-1.987 8.75-2.394 2.607-.407 10.481-1.841 17.499-3.188 18.606-3.57 33.223-3.6 49.116-.098 26.732 5.89 43.615 10.239 50.771 13.08 14.255 5.66 41.047 17.19 42.317 18.21 1.805 1.45 15.726 6.885 27.249 10.64 5.341 1.741 15.747 5.887 23.125 9.214 7.377 3.326 17.913 7.648 23.413 9.604 9.49 3.375 20.977 9.619 30.625 16.647 2.406 1.753 7.187 5.256 10.625 7.784 3.437 2.529 7.656 4.93 9.375 5.335 4.798 1.133 19.46 10.281 31.25 19.5 5.843 4.568 14.395 10.989 19.003 14.266 12.835 9.13 35.366 32.215 48.384 49.575 6.444 8.594 13.401 17.031 15.46 18.75 2.059 1.719 7.255 6.31 11.547 10.202 4.293 3.892 9.982 8.466 12.643 10.165 4.73 3.018 6.915 4.786 15.117 12.227 2.216 2.01 4.466 3.66 5 3.664.534.004 6.033 3.108 12.22 6.899 10.229 6.265 11.72 6.821 16.42 6.122 3.22-.48 6.284-.17 8.125.82 1.708.918 10.488 1.971 20.8 2.494 10.756.545 18.564 1.501 19.655 2.406 2.94 2.441 3.602 9.25 1.353 13.942-3.192 6.662-9.793 10.153-20.088 10.623-20.493.938-28.914 1.143-31.264.76z"/></svg>