<svg xmlns="http://www.w3.org/2000/svg" xmlns:dc="http://dublincore.org/documents/dcmi-terms/" height="148.247" width="221.793"><metadata><dc:description>Silhouette of Alteromonadales, processed by PhyloPic Tools (https://github.com/eweitz/phylopic-tools)</dc:description><dc:source>http://phylopic.org/image/97267cab-969c-4758-945a-b1cd61952ef3</dc:source><dc:creator>Matt Crook</dc:creator><dc:license>http://creativecommons.org/licenses/by-sa/3.0/</dc:license></metadata><path d="M135.026 14.657c-2.325 5.48-4.284 13.178-6.975 16.442-2.69 3.265-3.727-.78-7.445 1.057-3.718 1.836-10.646 8.173-14.382 9.722-3.736 1.55-3.651-2.532-6.847-.916-3.195 1.616-8.07 8.073-10.767 9.825-2.696 1.751-.737-.872-4.71.229-3.972 1.1-16.489 7.411-18.988 6.337-2.499-1.074 7.61-9.853 8.515-13.325.905-3.472-3.957 2.728-5.473 1.654-1.515-1.073 3.578-8.297.153-5.421-3.425 2.875-8.994 11.08-13.49 16.62l5.854-2.366c2.04-1.812 2.025-4.196 6.121-5.435 4.097-1.238 16.528-1.944 17.41-1.679.884.265-4.98-7.254-7.47-10.882" fill="none" stroke="#666" stroke-width="2" stroke-linecap="round"/><path d="M86.713 60.32c-2.736.826-6.596 9.792-8.508 3.467C76.293 57.46 78.178 41 80.796 32.84c2.618-8.158 6.808-10.189 12.18-15.03 5.373-4.84 12.11-11.012 19.74-13.731 7.631-2.72 23.298-4.222 24.474-2.023 1.177 2.198-6.321 14.653-9.482 21.979M87.31 84.03c3.386-4.608 6.667-10.705 10.157-13.822 3.49-3.116 6.712-2.825 10.067-4.237" fill="none" stroke="#666" stroke-width="2" stroke-linecap="round"/><path d="M109.795 122.925c8.459-2.954 17.853-8.213 28.313-12.944 16.737-7.57 39.213-16.92 53.092-28.839 13.879-11.918 32.541-31.841 29.827-39.293-2.714-7.451-13.747-6.193-24.914-6.261-11.167-.068-26.939 4.036-40.166 9.598-13.227 5.563-23.767 12.338-37.919 23.86-7.57 6.162-17.702 15.137-25.613 23.273l-10.953 24.447c2.075 4.218 6.504 7.605 14.073 8.406 4.43.468 9.185-.475 14.26-2.247z" fill="#333" stroke="#000"/><path d="M32.992 146.16c3.992-1.392 7.964-3.424 11.862-4.945 7.795-3.044 14.875-6.425 22.47-12.21 4.344-3.31 9.665-7.612 14.138-12.239L92.415 92.32c-.024-2.713-.34-5.49-.84-8.572-1.324-8.15-5.549-19.592-11.083-24.648-5.535-5.055-8.837-6.002-16.98-5.84-8.145.163-18.774 4.705-28.81 11.233-10.035 6.528-23.59 17.1-29.058 28.81-5.467 11.711-6.727 26.84-3.053 36.492 3.674 9.65 10.303 15.348 18.36 17.457 4.028 1.055 8.05.302 12.041-1.09z" fill="#333" stroke="#000"/><path d="M149.055 86.545c-2.154 3.93-13.027 2.363-17.382 5.705-4.356 3.342-4.85 10.17-8.012 12.258-3.161 2.087-6.078 3.24-7.961 1.41-1.883-1.83-.834-3.464 1.12-7.589 1.953-4.125 8.028-11.19 13.265-14.583 5.236-3.393 12.993-7.636 16.839-5.528 3.846 2.11 4.286 4.397 2.131 8.327zM79.65 82.248c.277-4.692-10.24-1.355-12.64-3.674-2.4-2.32 1.089-5.91-2.139-6.519-3.228-.61-4.216 9.45-8.181 9.906-3.966.457-5.344-8.412-8.828-6.73-3.485 1.683 1.457 7.43-.237 12.113-1.694 4.682-13.034 9.071-11.092 13.87 1.941 4.798 10.453-.573 13.19 1.688 2.737 2.26 2.733 3.784 2.496 7.605-.237 3.82-10.514 10.613-6.39 13.53 4.123 2.917 9.125-5.818 10.897-10.798 1.773-4.979-3.235-11.15-1.733-16.28 1.502-5.129 5.399-9.66 9.82-12.248 4.42-2.59 14.558 2.229 14.836-2.463z" fill="#666" stroke="#666"/><path d="M37.697 123.096c3.652.244 6.72-5.526 7.452-8.464.731-2.937.37-4.998-1.596-6.696-1.967-1.699-6.322-2.154-8.675-.764-2.353 1.391-3.37 3.987-3.106 7.037.264 3.05 2.274 8.642 5.925 8.887z" fill="#666" stroke="#666"/></svg>