<svg xmlns="http://www.w3.org/2000/svg" xmlns:dc="http://dublincore.org/documents/dcmi-terms/" height="200" viewBox="0 0 200 200" width="200"><metadata><dc:description>Silhouette of Ameerega flavopicta, processed by PhyloPic Tools (https://github.com/eweitz/phylopic-tools)</dc:description><dc:source>http://phylopic.org/image/43497e8a-45e7-4fa2-a8a0-ffadac8401fc</dc:source><dc:creator>Pedro de Siracusa</dc:creator><dc:license>http://creativecommons.org/licenses/by-sa/3.0/</dc:license></metadata><path d="M100.003.933c11.264 0 15.821 14.367 21.097 18.281 2.354 1.746 6.499 5.639 7.745 9.928 1.354 4.665-.008 9.508-1.375 12.923-1.003 2.507-.046 13.203.693 22.436.069.859.179 1.851.308 2.9 7.328.247 18.717 1.241 20.722 1.421 3.552.318 4.66-.167 4.66-.167s-.97-3.532-.416-8.586c.474-4.326.451-6.151.01-8.672-.149-.851-.312-1.33-1.28-1.807-2.589-1.273-7.119-1.985-10.892.09-2.359 1.298-4.896 3.234-6.023.648-.728-1.67-.517-2.987 2.954-3.568 2.646-.442 5.298-2.083 7.038-2.715 2.146-.781 3.15-2.584 1.488-3.877-1.662-1.293-6.475-3.78-8.795-3.501-2.39.288-2.684-1.508-2.016-3.618.524-1.653 3.6-1.301 4.72-.204a11.53 11.53 0 0 0 7.558 3.266c2.214.092 2.216-3.047 1.755-5.355-.508-2.541-4.865-9.665-6.343-10.773-1.478-1.108-2.543-2.804-1.69-4.646.936-2.018 4.247-.966 4.958 1.458.561 1.909 7.026 11.504 8.125 12.775.683.79 3.166.725 3.688-.249.786-1.467 2.115-2.8 1.613-5.524-.493-2.669 1.004-3.585 2.39-3.011 2.058.853.608 4.834.407 6.309-.431 3.155-1.949 6.186-1.423 10.218.558 4.281 2.348 6.464 3.139 10.155.893 4.168 2.606 18.524 2.09 24.237-.613 6.785-1.352 8.815-5.968 9.186-3.883.312-21.266 1.745-29.926 2.123 1.473 7.992 3.097 16.076 3.856 20.543 1.734 10.205-2.654 26.036-8.435 33.964 6.083-2.824 11.147-3.859 17.714-3.919 9.404-.084 15.945 2.517 19.46 4.341 4.321 2.243 5.855 8.159 3.542 13.003l1.452-1.64s10.733-13.737 11.287-15.973c.315-1.269.563-2.973 1.454-4.085 1.015-1.266 3.666-2.912 5.081-1.086 1.11 1.433 1.322 4.64.001 5.696-.993.794-2.209 1.165-3.42 2.246-1.936 1.727-8.688 13.165-12.741 18.834 0 0-5.151 5.879-4.894 6.925.129.528.082 1.664 1.847 1.348.586-.105 5.263-1.694 6.264-3.577 1.236-2.326 4.467-2.801 5.231-.679.624 1.731-1.247 3.739-3.217 4.258-2.087.551-4.939 2.032-5.854 2.458-2.77 1.292-7.779 3.856-10.918 8.472-3.139 4.616-14.218 10.895-18.649 14.957-4.432 4.062-23.63 9.969-27.145 9.971-8.309.004-8.309-2.771-7.755-6.463.554-3.693 4.617-10.524 7.755-12.925 2.143-1.638 5.831-5.939 9.191-9.095-1.832.197-4.169.409-7.16.601-8.679.554-11.617.246-14.941.246s-6.301.309-14.98-.246a163.08 163.08 0 0 1-7.16-.601c3.36 3.156 7.049 7.457 9.191 9.095 3.139 2.401 7.201 9.232 7.755 12.925.554 3.692.554 6.468-7.755 6.463-3.515-.002-22.713-5.91-27.145-9.971-4.432-4.062-15.511-10.341-18.649-14.957-3.139-4.616-8.148-7.18-10.918-8.472-.916-.426-3.768-1.908-5.854-2.458-1.971-.519-3.84-2.527-3.217-4.258.764-2.122 3.995-1.647 5.231.679 1.001 1.883 5.677 3.472 6.264 3.577 1.765.316 1.717-.82 1.847-1.348.258-1.045-4.894-6.925-4.894-6.925-4.053-5.669-10.806-17.108-12.741-18.834-1.21-1.081-2.427-1.452-3.42-2.246-1.321-1.056-1.109-4.263.001-5.696 1.416-1.825 4.066-.179 5.081 1.086.892 1.112 1.139 2.816 1.454 4.085.554 2.236 11.287 15.973 11.287 15.973l1.452 1.64c-2.313-4.844-.779-10.76 3.542-13.003 3.515-1.824 10.056-4.425 19.46-4.341 6.566.06 11.63 1.095 17.714 3.919-5.781-7.928-10.169-23.759-8.435-33.964.759-4.467 2.383-12.551 3.856-20.543-8.66-.378-26.043-1.812-29.926-2.123-4.617-.37-5.355-2.401-5.968-9.186-.516-5.713 1.198-20.069 2.09-24.237.791-3.691 2.581-5.874 3.139-10.155.526-4.032-.992-7.063-1.423-10.218-.201-1.475-1.651-5.457.407-6.309 1.386-.574 2.883.342 2.39 3.011-.502 2.725.828 4.057 1.613 5.524.521.974 3.005 1.039 3.688.249 1.098-1.271 7.564-10.866 8.125-12.775.712-2.423 4.022-3.475 4.958-1.458.854 1.842-.212 3.538-1.69 4.646s-5.835 8.232-6.343 10.773c-.461 2.308-.459 5.447 1.755 5.355a11.53 11.53 0 0 0 7.558-3.266c1.12-1.097 4.196-1.45 4.72.204.668 2.11.374 3.906-2.016 3.618-2.321-.279-7.134 2.208-8.795 3.501-1.662 1.293-.659 3.096 1.488 3.877 1.74.633 4.392 2.273 7.038 2.715 3.471.581 3.682 1.898 2.954 3.568-1.127 2.586-3.664.65-6.023-.648-3.772-2.075-8.303-1.363-10.892-.09-.969.477-1.131.956-1.28 1.807-.441 2.521-.464 4.347.01 8.672.554 5.055-.416 8.586-.416 8.586s1.108.484 4.66.167c2.005-.18 13.394-1.174 20.722-1.421a71.61 71.61 0 0 0 .308-2.9c.739-9.232 1.696-19.929.693-22.436-1.367-3.415-2.729-8.258-1.375-12.923 1.246-4.289 5.391-8.182 7.745-9.928C84.175 15.3 88.732.933 99.997.933" fill="#231f20"/></svg>