<svg xmlns="http://www.w3.org/2000/svg" xmlns:dc="http://dublincore.org/documents/dcmi-terms/" height="2142" version="1.2" viewBox="0 0 3628 2142" width="3628" overflow="inherit"><metadata><dc:description>Silhouette of Amphibia + Holospondyli, processed by PhyloPic Tools (https://github.com/eweitz/phylopic-tools)</dc:description><dc:source>http://phylopic.org/image/6060e3b0-8029-4406-a577-2ba6f8250a2b</dc:source><dc:creator>Smokeybjb (vectorized by T. Michael Keesey)</dc:creator><dc:license>http://creativecommons.org/licenses/by-sa/3.0/</dc:license></metadata><g fill-rule="evenodd"><path d="M3616 2142c-3.436-1.844-7.233-1.783-11-1-152.762-106-261.807-254.276-370-403-54.665-75.143-107.046-151.224-159-227-51.779-75.521-112.693-143.038-176-210-61.873-65.445-127.176-130.051-200-187-36.312-28.396-68.625-60.294-103-90-34.482-29.797-72.387-56.035-111-82-38.588-25.948-77.016-51.735-117-76-79.736-48.39-173.654-79.793-260-126-20.26-10.842-40.516-24.989-64-33-12.004-4.095-25.026-6.288-37-11-11.279-4.439-23.406-11.298-34-14-8.156-2.08-17.379-.241-26-2-12.791-2.61-24.86-10.765-36-13-11.432-2.294-23.74-1.508-35-3-32.42-4.295-64.107-10.113-97-14-.896 13.074 1.176 24.473 0 39-1.054 13.018-10.407 25.866-9 34 1.151 6.657 17.952 14.491 27 22 24.917 20.679 50.453 50.162 61 84 8.466 27.16 13.906 49.758 28 69 6.68 9.119 14.15 17.7 21 27 6.512 8.841 14.758 18.615 17 31-35.046 18.987-43.512-37.21-67-44 2.848 21.12 4.231 37.357 6 63 1 14.5 9.271 54.943-4 59-18.646 5.701-21.266-28.122-24-41-4.201-19.787-5.146-38.632-13-52-8.21 9.671-10.769 24.709-16 38-9.488 24.108-21.633 48.081-39 67-5.912 6.44-20.234 26.896-30 19-6.804-5.502 3.387-29.041 6-35 5.154-11.757 12.396-20.657 17-29 12.08-21.89 19.849-41.245 25-67-11.075 7.258-14.962 21.705-25 30-13.14 13.85-24.271 27.889-40 42-6.532 5.861-12.318 11.396-24 17-3.593 1.724-25.397 12.22-30 1-2.762-6.732 17.168-20.559 22-25 25.905-23.811 47.302-50.738 65-81-6.135.622-11.044 5.514-17 8-6.391 2.667-12.899 4.548-20 7-18.524 6.397-35.322 21.458-57 15-6.422-11.074 16.593-22.803 25-28 23.276-14.388 39.956-23.34 65-37 9.611-5.242 25.736-16.044 27-24 .865-5.452-13.036-16.574-20-23-23.832-21.993-39.518-47.998-57-76-23.082-36.971-50.844-69.522-61-116-9.079 1.7-18.098 2.154-26 4-9.15 2.137-14.748 7.672-22 10-5.886 1.889-12.032 1.528-18 3-13.804 3.405-31.118 11.136-48 14-11.676 1.981-21.494 6.017-33 9-11.627 3.015-24.117 2.521-37 4-12.995 1.491-25.28 4.059-38 4-11.293-.052-22.449-2-34-1-13.364 1.156-25.069 1.545-38 1-12.145-.512-23.954-3.461-37-4-12.562-.519-24.817 2.935-37 3-38.963.209-71.848-6.267-110-8-24.787-1.126-49.719-2.605-75-2-24.826.595-50.435.161-74-4-11.43-2.018-22.655-7.196-34-10-11.933-2.95-24.193-4.167-36-7-21.615-5.187-39.463-18.496-61-25-43.877-13.25-87.239-29.964-127-45-63.716-24.095-125.711-46.014-179-79-8.938-5.532-18.17-10.33-27-16-8.603-5.524-16.184-14.373-27-16-1.588 22.143-14.08 41.486-27 56-13.058 14.669-24.893 30.36-40 42-31.322 24.132-73.045 35.38-99 66-19.334 15.907-36.812 40.049-64 42-2.442-14.21 10.002-22.894 18-31 8.611-8.727 20.249-15.197 24-25-16.562 11.355-41.539 27.194-61 43-9.305 7.557-21.584 19.867-30 5 .754-16.839 16.952-25.601 29-34 12.952-9.029 26.158-18.42 37-28-16.95 3.524-33.555 12.921-51 21-15.589 7.219-34.469 21.001-53 12-1.579-12.993 10.564-17.164 18-22 16.596-10.792 34.271-18.043 53-27 8.992-4.301 19.331-6.307 26-13-11.596 1.171-18.897 2.586-35 2-9.416-.343-37.303 2.223-37-9 .277-10.271 21.92-10.302 27-11 41.902-5.759 106.444 5.309 128-26 4.635-6.731 5.471-15.216 9-22 10.316-19.828 23.379-34.969 41-50-18.092-18.352-34.206-32.909-49-51-6.721-8.218-17.896-14.92-26-24-8.009-8.973-15.021-23.402-24-29-10.732-6.692-23.046-10.032-34-18-19.27-14.017-38.674-28.854-60-42-10.928-6.736-21.118-15.775-31-20-15.25-6.519-29.554-8.525-43-16-62.644-34.823-120.804-68.459-151-140-10.444-24.745-25.955-67.14-5-91 13.362-15.214 35.329-19.704 59-25 24.298-5.436 49.957-5.174 76-7 27.57-1.933 52.234-9.081 76-4 45.752 9.782 69.549 41.598 103 64 31.972 21.412 73.834 37.159 117 50 20.465 6.088 43.715 15.75 65 18 36.11 3.817 73.229-5.833 108-5 15.598.374 31.798 1.409 47 3 30.425 3.184 65.997-1.037 64 40 163.156 10.61 328.921 33.754 486 62 157.334 28.292 309.793 61.382 447 109 6.065-12.021-27.706-20.467-22-32 5.957-12.039 24.642 4.462 30 9 9.857 8.348 16.173 15.675 25 22-5.973-17.363-28.567-26.765-32-50 19.675-8.929 33.187 12.093 44 24 12.388 13.64 26.042 27.406 37 39-4.71-19.539-35.452-35.746-27-62 18.438-.614 26.957 17.23 36 29 9.746 12.685 19.006 26.085 29 37-5.935-9.802-4.097-23.625 5-25 16.205-2.449 21.134 30.493 30 38 116.109 26.235 219.551 74.745 315 130 144.547 83.678 281.16 162.31 409 260 42.299 32.323 80.277 66.999 117 106 36.182 38.427 71.39 77.128 110 113 77.061 71.596 146.551 151.072 214 233 33.585 40.795 69.008 80.303 101 122 64.656 84.27 115.162 180.387 175 271 59.322 89.832 116.275 181.347 174 272 28.521 44.792 62.84 85.971 95 128 16.154 21.111 32.344 42.343 51 61 18.368 18.369 39.811 34.686 53 58V0H0v2142h3616z" fill="#fff"/><path d="M3616 2142h2c5.847-1.153 7.894-6.106 10-11v-4c-13.189-23.314-34.632-39.631-53-58-18.656-18.657-34.846-39.889-51-61-32.16-42.029-66.479-83.208-95-128-57.725-90.653-114.678-182.168-174-272-59.838-90.613-110.344-186.73-175-271-31.992-41.697-67.415-81.205-101-122-67.449-81.928-136.939-161.404-214-233-38.61-35.872-73.818-74.573-110-113-36.723-39.001-74.701-73.677-117-106-127.84-97.69-264.453-176.322-409-260-95.449-55.255-198.891-103.765-315-130-8.866-7.507-13.795-40.449-30-38-9.097 1.375-10.935 15.198-5 25-9.994-10.915-19.254-24.315-29-37-9.043-11.77-17.562-29.614-36-29-8.452 26.254 22.29 42.461 27 62-10.958-11.594-24.612-25.36-37-39-10.813-11.907-24.325-32.929-44-24 3.433 23.235 26.027 32.637 32 50-8.827-6.325-15.143-13.652-25-22-5.358-4.538-24.043-21.039-30-9-5.706 11.533 28.065 19.979 22 32-137.207-47.618-289.666-80.708-447-109-157.079-28.246-322.844-51.39-486-62 1.997-41.037-33.575-36.816-64-40-15.202-1.591-31.402-2.626-47-3-34.771-.833-71.89 8.817-108 5-21.285-2.25-44.535-11.912-65-18-43.166-12.841-85.028-28.588-117-50-33.451-22.402-57.248-54.218-103-64-23.766-5.081-48.43 2.067-76 4-26.043 1.826-51.702 1.564-76 7-23.671 5.296-45.638 9.786-59 25-20.955 23.86-5.444 66.255 5 91 30.196 71.541 88.356 105.177 151 140 13.446 7.475 27.75 9.481 43 16 9.882 4.225 20.072 13.264 31 20 21.326 13.146 40.73 27.983 60 42 10.954 7.968 23.268 11.308 34 18 8.979 5.598 15.991 20.027 24 29 8.104 9.08 19.279 15.782 26 24 14.794 18.091 30.908 32.648 49 51-17.621 15.031-30.684 30.172-41 50-3.529 6.784-4.365 15.269-9 22-21.556 31.309-86.098 20.241-128 26-5.08.698-26.723.729-27 11-.303 11.223 27.584 8.657 37 9 16.103.586 23.404-.829 35-2-6.669 6.693-17.008 8.699-26 13-18.729 8.957-36.404 16.208-53 27-7.436 4.836-19.579 9.007-18 22 18.531 9.001 37.411-4.781 53-12 17.445-8.079 34.05-17.476 51-21-10.842 9.58-24.048 18.971-37 28-12.048 8.399-28.246 17.161-29 34 8.416 14.867 20.695 2.557 30-5 19.461-15.806 44.438-31.645 61-43-3.751 9.803-15.389 16.273-24 25-7.998 8.106-20.442 16.79-18 31 27.188-1.951 44.666-26.093 64-42 25.955-30.62 67.678-41.868 99-66 15.107-11.64 26.942-27.331 40-42 12.92-14.514 25.412-33.857 27-56 10.816 1.627 18.397 10.476 27 16 8.83 5.67 18.062 10.468 27 16 53.289 32.986 115.284 54.905 179 79 39.761 15.036 83.123 31.75 127 45 21.537 6.504 39.385 19.813 61 25 11.807 2.833 24.067 4.05 36 7 11.345 2.804 22.57 7.982 34 10 23.565 4.161 49.174 4.595 74 4 25.281-.605 50.213.874 75 2 38.152 1.733 71.037 8.209 110 8 12.183-.065 24.438-3.519 37-3 13.046.539 24.855 3.488 37 4 12.931.545 24.636.156 38-1 11.551-1 22.707.948 34 1 12.72.059 25.005-2.509 38-4 12.883-1.479 25.373-.985 37-4 11.506-2.983 21.324-7.019 33-9 16.882-2.864 34.196-10.595 48-14 5.968-1.472 12.114-1.111 18-3 7.252-2.328 12.85-7.863 22-10 7.902-1.846 16.921-2.3 26-4 10.156 46.478 37.918 79.029 61 116 17.482 28.002 33.168 54.007 57 76 6.964 6.426 20.865 17.548 20 23-1.264 7.956-17.389 18.758-27 24-25.044 13.66-41.724 22.612-65 37-8.407 5.197-31.422 16.926-25 28 21.678 6.458 38.476-8.603 57-15 7.101-2.452 13.609-4.333 20-7 5.956-2.486 10.865-7.378 17-8-17.698 30.262-39.095 57.189-65 81-4.832 4.441-24.762 18.268-22 25 4.603 11.22 26.407.724 30-1 11.682-5.604 17.468-11.139 24-17 15.729-14.111 26.86-28.15 40-42 10.038-8.295 13.925-22.742 25-30-5.151 25.755-12.92 45.11-25 67-4.604 8.343-11.846 17.243-17 29-2.613 5.959-12.804 29.498-6 35 9.766 7.896 24.088-12.56 30-19 17.367-18.919 29.512-42.892 39-67 5.231-13.291 7.79-28.329 16-38 7.854 13.368 8.799 32.213 13 52 2.734 12.878 5.354 46.701 24 41 13.271-4.057 5-44.5 4-59-1.769-25.643-3.152-41.88-6-63 23.488 6.79 31.954 62.987 67 44-2.242-12.385-10.488-22.159-17-31-6.85-9.3-14.32-17.881-21-27-14.094-19.242-19.534-41.84-28-69-10.547-33.838-36.083-63.321-61-84-9.048-7.509-25.849-15.343-27-22-1.407-8.134 7.946-20.982 9-34 1.176-14.527-.896-25.926 0-39 32.893 3.887 64.58 9.705 97 14 11.26 1.492 23.568.706 35 3 11.14 2.235 23.209 10.39 36 13 8.621 1.759 17.844-.08 26 2 10.594 2.702 22.721 9.561 34 14 11.974 4.712 24.996 6.905 37 11 23.484 8.011 43.74 22.158 64 33 86.346 46.207 180.264 77.61 260 126 39.984 24.265 78.412 50.052 117 76 38.613 25.965 76.518 52.203 111 82 34.375 29.706 66.688 61.604 103 90 72.824 56.949 138.127 121.555 200 187 63.307 66.962 124.221 134.479 176 210 51.954 75.776 104.335 151.857 159 227 108.193 148.724 217.238 297 370 403 3.767-.783 7.564-.844 11 1z"/><path d="M3628 2131c-2.106 4.894-4.153 9.847-10 11h10v-11z" fill="#fff"/></g></svg>