<svg xmlns="http://www.w3.org/2000/svg" xmlns:dc="http://dublincore.org/documents/dcmi-terms/" height="401.243" viewBox="0 0 1015.5708 376.16536" width="1083.275"><metadata><dc:description>Silhouette of Amphicyonidae, processed by PhyloPic Tools (https://github.com/eweitz/phylopic-tools)</dc:description><dc:source>http://phylopic.org/image/14f15fef-b522-4929-8426-e554153f4d28</dc:source><dc:creator>Zimices</dc:creator><dc:license>http://creativecommons.org/licenses/by-sa/3.0/</dc:license></metadata><path d="M159.934 375.144c-1.904-1.207-2.383-5.713-1.028-9.677.7-2.05.329-2.809-1.627-3.32-3.742-.979-3.094-3.897 1.821-8.213 3.008-2.641 4.106-4.479 3.547-5.935-1.03-2.685 2.656-5.499 7.2-5.499 2.53 0 3.566-.76 4.136-3.028.79-3.145 8.207-6.675 10.739-5.11.702.433 1.824-.652 2.493-2.412 1.338-3.518 2.423-3.773 8.568-2.01 5.975 1.713 16.904-.812 23.62-5.459 5.572-3.854 7.434-7.246 15.395-28.044.882-2.304 3.011-6.241 4.732-8.75 5.535-8.07 14.16-25.499 18.34-37.062 2.236-6.187 6.13-16.228 8.653-22.313 3.858-9.305 4.455-11.938 3.76-16.575-.455-3.032-.926-11.729-1.046-19.327-.121-7.61-.786-14.2-1.48-14.675-.692-.473-2.502-2.64-4.02-4.817-2.038-2.918-5.14-4.826-11.816-7.265-4.978-1.82-9.896-3.743-10.927-4.275-1.031-.531-3.439-.54-5.35-.02-1.912.52-5.178.458-7.26-.14-2.08-.596-4.602-.77-5.603-.386-1.225.47-2.267-.586-3.19-3.232-1.095-3.143-1.715-3.644-3.094-2.5-1.332 1.106-1.9.973-2.497-.584-.425-1.109-1.798-2.016-3.05-2.016-1.253 0-3.085-.808-4.072-1.795-1.074-1.073-2.25-1.339-2.928-.66-.678.677-3.547.406-7.138-.674-5.309-1.598-6.341-1.586-8.922.105-2.707 1.774-3.11 1.709-5.533-.892-1.562-1.677-2.613-2.146-2.613-1.167 0 1.344-.36 1.34-1.997-.018-2.262-1.878-19.524-2.598-18.393-.768.396.64-.465.766-1.967.29-2.246-.713-2.792-.241-3.434 2.97-.42 2.1-1.237 3.526-1.816 3.168-1.57-.97-6.143 4.088-6.143 6.795 0 1.303-1.116 2.646-2.5 3.008-1.431.375-2.508.036-2.52-.791-.01-.809-.552-.62-1.23.43-.667 1.03-1.22 1.37-1.231.754-.01-.616-1.364.332-3.009 2.106-1.99 2.148-3.83 3.006-5.504 2.568-1.719-.45-2.746.071-3.246 1.645-.518 1.633-2.018 2.334-5.164 2.414-3.904.099-6.11 1.759-18.453 13.891-15.235 14.975-19.554 17.379-29.261 16.285-5.582-.63-12.882-5.797-12.882-9.12 0-.818-.844-2.188-1.875-3.044-2.402-1.994-2.402-5.506 0-7.5 2.569-2.132 2.35-5.308-.625-9.091-1.375-1.748-2.5-3.471-2.5-3.83 0-.965 3.79-4.579 4.804-4.579.481 0 3.659 2.556 7.061 5.68l6.186 5.678 6.287-7.141c7.127-8.097 13.534-18.945 12.61-21.353-1.016-2.646-9.664-1.86-18.295 1.664-4.416 1.802-13.371 4.197-19.901 5.32-8.645 1.489-11.907 2.552-11.997 3.91-.294 4.417-.63 4.992-2.914 4.992-1.325 0-3.516-1.406-4.868-3.125-1.43-1.818-3.742-3.125-5.529-3.125-5.37 0-10.963-2.663-12.755-6.073-.954-1.816-3.83-5.552-6.39-8.302-8.567-9.2-12.905-22.114-8.623-25.667 3.02-2.507 13.89-7.263 18.63-8.152 2.364-.444 6.128-2.157 8.364-3.806 2.236-1.65 4.742-3 5.57-3 .826 0 7.184-2.865 14.129-6.366 13.613-6.863 17.63-10.83 17.63-17.408 0-3.03 1.15-5.082 4.688-8.371 5.594-5.2 16.61-12.855 18.5-12.855.74 0 2.925-1.65 4.856-3.665s6.959-5.41 11.172-7.541c4.213-2.132 11.879-6.395 17.035-9.473 5.156-3.078 12.024-6.909 15.261-8.513 3.238-1.604 6.717-3.606 7.733-4.45 1.015-.842 3.402-1.948 5.303-2.456 2.567-.687 3.743-2.028 4.568-5.213C156.393 11.234 164.252 0 166.434 0c2.37 0 14.33 11.048 15.259 14.095 2.71 8.898 5.938 9.06 56.8 2.86 8.595-1.048 18.72-1.92 22.5-1.937 3.782-.018 8.845-.576 11.25-1.24 2.407-.664 11.97-2.618 21.25-4.341 9.282-1.724 20.813-4.358 25.626-5.854C327.513.973 330.476.84 392 .316c61.637-.525 64.676-.442 78.125 2.136 19.788 3.794 37.35 7.544 38.42 8.205 5.701 3.524 45.639 5.265 153.073 6.675 50.345.661 85.18 1.618 89.375 2.456 3.781.755 8.88 1.68 11.332 2.056 2.45.375 9.123 3.77 14.826 7.544 5.703 3.774 10.837 6.862 11.409 6.862 2.599 0 26.65 16.185 30.558 20.563.687.77 7.034 5.814 14.103 11.209 14.873 11.35 25.778 22.74 30.828 32.202 1.952 3.658 4.54 7.776 5.749 9.151 1.21 1.375 3.442 5.172 4.96 8.438 1.518 3.265 3.268 5.937 3.888 5.937 1.403 0 8.856 11.087 15.472 23.015 2.75 4.958 6.6 11.072 8.556 13.586 1.955 2.513 6.094 10.916 9.198 18.672 3.103 7.756 6.063 14.665 6.577 15.352.515.688 2.425 5.206 4.245 10.042 1.82 4.835 5.731 12.71 8.69 17.5 5.256 8.508 7.683 13.922 15.95 35.583 2.23 5.844 5.912 13.719 8.182 17.5 2.27 3.781 5.916 11.592 8.102 17.358 3.536 9.327 5.036 11.532 13.604 20 11.72 11.584 16.416 15.276 23.898 18.79 3.163 1.487 7.143 4.227 8.844 6.09 2.96 3.242 6.589 12.619 5.36 13.848-2.026 2.026-28.528-.602-27.23-2.7.459-.744.163-.888-.713-.346-.824.509-3.02-.09-4.88-1.331-1.861-1.242-4.069-2.113-4.906-1.937-.838.176-2.24-.826-3.114-2.226-.874-1.4-2.58-2.546-3.789-2.546-1.21 0-2.2-.599-2.2-1.331s-2.812-4.07-6.25-7.419c-3.437-3.348-6.25-6.552-6.25-7.12 0-.566-1.405-2.547-3.124-4.4-1.719-1.854-3.125-3.84-3.125-4.414 0-.574-2.371-3.224-5.27-5.889-6.021-5.536-9.73-11.748-9.73-16.297 0-1.722-.563-3.13-1.25-3.13-.688 0-1.25-.603-1.25-1.34 0-.736-.844-2.182-1.875-3.214-1.031-1.03-1.875-3.511-1.875-5.511 0-2.8-.693-3.811-3.007-4.392-3.157-.792-4.448-3.656-4.476-9.934-.013-2.697-.816-4.116-2.83-5-2.011-.883-2.917-2.48-3.18-5.609-.467-5.55-6.6-20-8.49-20-.783 0-2.41-3.13-3.612-6.954-1.477-4.695-2.724-6.75-3.838-6.322-1.05.403-1.944-.704-2.458-3.045-.444-2.024-1.255-3.679-1.802-3.679-.547 0-1.317-1.547-1.71-3.437-.721-3.459-9.875-15.495-12.512-16.451-2.774-1.006-4.585-3.731-4.585-6.898 0-2.024-.695-3.214-1.875-3.214-1.031 0-1.875-.518-1.875-1.15 0-.634-1.651-1.514-3.669-1.957-2.854-.627-3.852-1.689-4.497-4.787-1.078-5.173-4.102-9.897-5.703-8.907-1.501.927-7.381-5.087-7.381-7.551 0-.948-2.579-3.872-5.73-6.498-3.151-2.626-6.667-5.778-7.812-7.004-13.223-14.154-24.495-24.911-24.883-23.747-.266.8-2.668-.742-5.374-3.448-2.692-2.691-6.875-5.721-9.297-6.733-2.422-1.012-4.404-2.432-4.404-3.154 0-.723-.94-1.314-2.09-1.314-1.148 0-3.13-.943-4.404-2.095-2.782-2.518-3.63-1.72-6.524 6.148-1.983 5.388-2.123 10.462-1.541 55.625.352 27.334 1.16 56.733 1.795 65.333 1.319 17.851 3.06 22.486 12.672 33.739 3.23 3.781 7.787 9.688 10.127 13.125 6.224 9.145 13.078 16.206 20.113 20.72 9.868 6.332 12.24 14.05 7.461 24.28-1.754 3.755-4.874 6.712-12.533 11.875-5.608 3.781-13.553 9.574-17.655 12.874-5.435 4.37-9.743 6.624-15.877 8.302-4.63 1.267-10.808 3.205-13.727 4.306-2.92 1.102-10.232 2.37-16.25 2.82-6.018.449-12.052 1.577-13.408 2.507-2.92 2.003-17.063 2.287-18.969.381-.913-.913-2.29-.863-4.545.164-7.887 3.594-9.348-2.44-2.945-12.164 2.31-3.508 4.562-7.818 5.004-9.58.533-2.124 2.181-3.7 4.9-4.682 3.217-1.164 4.088-2.179 4.058-4.733-.048-4.209 2.478-4.697 13.526-2.612 8.08 1.524 8.94 1.46 13.777-1.015 2.838-1.452 6.95-2.998 9.136-3.435 8.466-1.69 7.768-3.259-11.707-26.315-17.971-21.275-22.113-26.585-24.282-31.124-3.066-6.419-10.748-16.944-12.366-16.944-.767 0-1.033 5.755-.706 15.313.287 8.421.544 17.594.571 20.384.032 3.357 1.162 6.712 3.343 9.926 4.382 6.457 3.661 10.128-4.337 22.087-10.046 15.02-16.862 19.951-35.14 25.422-5.3 1.586-10.698 3.491-11.994 4.232-1.297.742-7.352 3.369-13.455 5.838-9.447 3.821-11.983 4.367-17.053 3.67-3.773-.52-6.261-.325-6.79.53-1.396 2.26-5.87 1.533-6.55-1.066-.826-3.159-3.187-4.12-12.26-4.99-6.489-.624-7.552-1.089-7.888-3.449-.249-1.745.54-3.224 2.187-4.106 1.417-.759 2.577-2.625 2.578-4.147.001-1.525 1.308-3.611 2.908-4.644 1.599-1.031 4.66-2.993 6.805-4.359 2.144-1.366 4.158-3.475 4.475-4.687.477-1.827 2-2.204 8.89-2.204 10.554 0 25.273-2.25 29.732-4.545 3.248-1.671 3.438-2.246 3.438-10.406 0-4.75-.642-10.22-1.426-12.155-.784-1.936-1.848-12.238-2.363-22.894-.94-19.414-2.205-29.294-5.846-45.625-1.073-4.812-2.229-13.11-2.569-18.437-.44-6.897-1.094-9.688-2.273-9.688-2.6 0-8.023 2.774-8.023 4.104 0 .661-.86.488-1.912-.384-1.584-1.315-2.422-1.107-4.893 1.215-1.998 1.876-3.812 2.538-5.496 2.003-1.667-.529-2.908-.093-3.683 1.293-.858 1.532-1.42 1.686-2.105.577-.668-1.08-1.912-.577-4.355 1.763-3.022 2.896-3.605 3.053-5.016 1.353-1.632-1.967-6.439-2.609-7.982-1.065-.473.472-1.832.962-3.021 1.089-1.19.126-3.239.679-4.555 1.228-1.69.706-2.127.57-1.488-.464 1.087-1.758 1.134-1.755-3.923-.304-2.22.637-4.276.772-4.567.3-.292-.471-6.909-.767-14.705-.658-7.796.11-14.97-.24-15.944-.779-.973-.537-3.46-.493-5.528.1-2.353.675-4.336.598-5.306-.207-.966-.802-1.826-.837-2.285-.093-.452.73-3.454.482-7.76-.643-6.816-1.78-7.113-1.75-10.017.978-2.309 2.169-3.331 2.472-4.476 1.327-2.035-2.034-4.536-1.859-6.879.484-1.597 1.598-2.165 1.656-3.017.313-.577-.91-1.057-1.164-1.068-.564-.01.6-.863.39-1.894-.466-1.455-1.208-2.277-1.222-3.67-.066-1.304 1.082-2.476 1.125-4.285.157-1.369-.732-3.28-1.029-4.245-.658-.966.37-4.1.147-6.966-.497-4.145-.931-5.21-.82-5.21.541 0 1.31-.734 1.432-3.137.518-1.726-.656-4.96-.862-7.188-.457-2.227.406-6.999.774-10.604.819l-6.555.082-2.538 6.783c-4.954 13.242-8.701 34.315-8.742 49.17-.01 3.543-1.585 9.02-4.453 15.483-2.44 5.5-6.083 14.38-8.095 19.731-4.191 11.155-6.973 15.59-15.476 24.681-7.3 7.804-11.566 9.742-24.75 11.246-5.522.63-11.418 2.048-13.102 3.151-3.799 2.49-6.61 1.55-6.608-2.207 0-2.814-.203-2.852-15.313-2.852H345.37l-.387-3.346c-.212-1.84-1.197-4.019-2.187-4.84-2.628-2.181-2.215-4.432 1.324-7.216 1.719-1.352 3.125-3.691 3.125-5.199 0-1.84 1.13-3.173 3.437-4.052 1.891-.721 4.566-3.05 5.946-5.177 3.007-4.635 4.976-5.26 21.564-6.846 10.74-1.027 13.711-1.802 18.3-4.775 3.012-1.952 6.523-4.172 7.802-4.934 2.126-1.266 2.326-3.259 2.326-23.125 0-11.957-.51-29.519-1.133-39.027-1.057-16.133-1.328-17.414-4.062-19.206-1.612-1.056-2.93-2.687-2.93-3.624 0-1.377-.617-1.423-3.215-.24-2.602 1.186-3.431 1.121-4.355-.34-.63-.996-1.15-1.169-1.161-.386-.03 2.287-4.9 2.9-6.927.871-1.026-1.025-2.563-1.615-3.416-1.31-.853.305-2.957-.15-4.676-1.012-1.719-.861-5.13-1.833-7.58-2.16-2.45-.326-5.684-1.252-7.187-2.056-1.775-.95-2.733-1.01-2.733-.169 0 1.568-5.827 1.74-6.779.2-.371-.601-2.09-1.094-3.817-1.094-2.559 0-3.37.85-4.373 4.571-.827 3.074-.8 6.132.085 9.336 1.199 4.341.899 5.617-3.376 14.336-2.58 5.263-5.095 9.851-5.588 10.195-1.93 1.346-7.402 13.035-7.402 15.811 0 2.06-.715 2.939-2.39 2.939-1.51 0-4.875 3.332-9.15 9.062-12.276 16.452-24.022 32.702-29.09 40.246-6.01 8.945-12.614 15.548-21.957 21.955-3.928 2.694-9.031 7.779-11.712 11.67-2.612 3.793-8.895 10.556-13.963 15.028-7.55 6.664-10.174 8.24-14.538 8.735-2.929.332-10.136 1.21-16.015 1.954-5.88.742-17.201 1.35-25.16 1.35-11.336 0-14.806.406-16.025 1.875-1.75 2.109-3.58 2.341-6.06.77z"/></svg>