<svg xmlns="http://www.w3.org/2000/svg" xmlns:dc="http://dublincore.org/documents/dcmi-terms/" height="509.971" width="611.59"><metadata><dc:description>Silhouette of Anaerolineaceae, processed by PhyloPic Tools (https://github.com/eweitz/phylopic-tools)</dc:description><dc:source>http://phylopic.org/image/b4330bcb-d355-4c84-b74c-ca9dbee1b27d</dc:source><dc:creator>Matt Crook</dc:creator><dc:license>http://creativecommons.org/licenses/by-sa/3.0/</dc:license></metadata><path d="M581.074 159.599l-.478-.354-394.81 327.767 29.663 21.959L610.59 181.448zM531.945 123.23l-29.236-21.642-365.927 349.15 29.236 21.642 365.927-349.15z" fill="#333"/><path d="M135.727 449.956l214.605-256.343c.119-.141.233-.302.335-.452a5.308 5.308 0 0 0-.988-7.069l-19.302-16.154a5.3 5.3 0 0 0-7.496.672L106.868 428.593" fill="#333" stroke="#000" stroke-width="2" stroke-linecap="round" stroke-linejoin="round" stroke-miterlimit="10"/><path d="M427.358 45.81l-97.634 116.607a5.328 5.328 0 0 0 .653 7.52l19.302 16.155a5.328 5.328 0 0 0 7.52-.653l99.018-118.266M30.211 371.847l46.56-44.461c.267-.255.523-.532.726-.824a5.342 5.342 0 0 0-.536-6.734l-17.37-18.185a5.31 5.31 0 0 0-7.533-.172L1 350.223" fill="#333" stroke="#000" stroke-width="2" stroke-linecap="round" stroke-linejoin="round" stroke-miterlimit="10"/><path d="M366.826 1L59.762 294.11a5.31 5.31 0 0 0-.171 7.533l17.37 18.185c2.041 2.139 5.42 2.231 7.558.19L396.037 22.624" fill="#333" stroke="#000" stroke-width="2" stroke-linecap="round" stroke-linejoin="round" stroke-miterlimit="10"/><path d="M502.709 101.588l-365.927 349.15m29.236 21.642l365.927-349.15" fill="none" stroke="#000" stroke-width="2" stroke-linecap="round" stroke-linejoin="round" stroke-miterlimit="10"/><path d="M421.843 102.264c1.712-2.373 3.046-4.827 3.825-7.006 1.557-4.357-1.758-8.298.55-10.985 2.307-2.686 7.94.44 10.037-2.056 2.096-2.497-1.338-6.925.242-9.308s4.412-.652 7.136-3.233c1.74-1.649 3.472-5.062 4.848-8.23l-11.704-8.664c-1.413 1.16-1.85 3.142-2.04 4.594-.49 3.723 4.74 6.102 3.998 8.675-.742 2.572-4.29 1.578-5.46 3.54-1.168 1.963 1.358 5.227-.56 7.167-1.92 1.94-6.137-.001-9.152.807-3.015.808-7.705.79-8.65 4.017-.946 3.225 6.425 6.027 5.694 8.958-.732 2.93-5.636 1.663-6.527 3.722-.891 2.06 3.306 4.013 1.399 5.779-1.908 1.766-5.862-3.267-9.163-3.011-3.302.255-7.805 1.884-9.115 4.644-1.31 2.76 2.401 4.737 1.718 7.92-.682 3.185-3.483 6.805-6.805 9.194-3.322 2.388-9.675.998-12.468 4.028-2.794 3.03-.442 8.444-2.692 11.304-2.25 2.86-7.3 1.988-9.096 4.62-1.797 2.632 2.087 4.797-.87 8.843-2.957 4.047-16.49 2.28-19.46 8.378-2.971 6.1.776 16.589 5.005 18.87 4.23 2.28 5.581.368 8.832-2.95 3.25-3.317 1.804-14.26 5.508-17.735 3.703-3.474 8.55.332 11.576-2.822 3.027-3.155-.126-10.462 2.8-14.024 2.925-3.562 10.328-2.026 12.33-5.103 2.003-3.076-.984-5.83-.204-8.705.78-2.874 1.25-4.78 4.826-7.78 3.577-3 12.8-3.37 17.5-6.991 2.35-1.81 4.43-4.085 6.142-6.457zM334.885 206.348c3.276-4.364 6.787-12.916 3.852-18.014-2.935-5.098-11.668-6.632-16.042-5.236-4.373 1.396-5.159 5.355-6.35 8.578-1.19 3.222 1.849 6.405-.7 9.914-2.548 3.509-11.045 1.685-14.903 6.04-3.858 4.354-.897 15.25-4.917 18.173-4.02 2.923-5.262-2.643-10.981-.54-5.72 2.102-20.443 13.738-18.643 17.497 1.8 3.759 17.005-10.999 19.78-6.223 2.777 4.777-6.485 3.365-9.094 8.443-2.61 5.077.915 18.796-2.761 21.667-3.677 2.87-5.055 1.063-6.103-.724-1.048-1.788 2.694-3.17 2.403-5.81-.291-2.638-2.515-8.803-5.538-7.892-3.024.91 2.005 7.713-.247 9.301-2.252 1.59-4.828-3.186-6.875-2.244-2.046.943.094 3.053-2.403 5.81-2.496 2.755-15.33 2.957-14.131 7.558 1.198 4.602 8.684 1.144 12.5-.23 3.816-1.375 5.35-8.34 9.254-7.377 3.904.963 1.021 9.907 4.95 11.252 3.927 1.344 8.405-1.471 11.091-6.016s-1.95-14.704-.119-19.057c1.83-4.353 3.33-7.32 6.668-6.445 3.339.874-1.469 10.02 3.27 10.957 4.739.937 9.516-9.809 11.045-13.639 1.528-3.83-1.01-5 .564-7.169 1.575-2.169 6.575-1.363 8.212-3.406 1.637-2.042-.576-4.194 1.178-6.715 1.754-2.522 8.065-3.609 10.026-5.857 1.96-2.248.1-3.26 2.403-5.808 2.302-2.549 9.335-2.423 12.611-6.788zM219.167 303.734c.713 4.15 8.3 3.626 8.737 7.416.437 3.79-2.294 8.407-6.804 9.19-4.509.784-8.69-12.147-13.32-8.911-4.629 3.235 7.634 14.05 4.226 17.354-3.409 3.303-7.702-4.069-10.233-2.833-2.532 1.236-.587 4.39-2.403 5.809-1.817 1.42-2.389-1.554-7.464 1.114-5.075 2.667-18.774 16.845-18.325 19.63.45 2.785 6.416-2.448 7.782 1.018 1.366 3.466-10.658 7.321-9.23 11.188 1.428 3.866 9.577-3.05 10.074 1.766.497 4.817-13.677 3.425-17.49 6.97-3.812 3.546-2.3 10.398-5.418 11.164-3.12.766-2.923-4.12-5.515-4.082-2.591.04-4.119 2.445-6.827 5.38-2.708 2.933-10.882 8.89-8.458 12.706 2.424 3.816 8.815.484 11.729-1.75 2.913-2.234.287-9.576 4.058-9.326 3.77.25.47 10.116 3.43 12.023 2.959 1.908 5.88.318 8.529-1.273 2.648-1.59 4.928-4.832 5.896-7.965.969-3.132-2.452-7.386-.366-9.755 2.086-2.37 5.615.542 9.143-.82 3.527-1.361 8.534-5.006 10.773-8.148 2.24-3.141 1.207-5.706 2.992-9.166 1.786-3.46 9.045-7.17 8.164-11.028-.88-3.86-6.007-4.514-8.872-4.671-2.865-.157-4.719 5.036-6.692 2.634-1.973-2.403 3.175-7.473 6.19-9.644 3.016-2.171 7.027-4.47 10.504-2.658 3.477 1.812.252 11.923 4.496 11.864 4.244-.06 1.56-9.35 4.193-12.07 2.634-2.721 7.378-1.068 9.278-3.566 1.9-2.497-1.311-5.507.86-8.848 2.17-3.34 10.427-3.555 13.065-7.4 2.637-3.844 2.539-8.546 1.901-12.818-.637-4.273-2.975-9.848-5.562-11.705-2.586-1.857-3.128-2.21-6.103-.724-2.975 1.485-7.651 7.785-6.938 11.935zM148.743 427.437c1.585-2.122 2.81-4.279 3.454-6.347 1.714-5.515 2.91-11.365-.975-14.019-3.886-2.654-9.666 1.426-13.562 4.191-3.896 2.765-10.85 7.763-8.627 11.654 2.224 3.892 9.973-5.254 12.36-1.308 2.388 3.946-4.394 12.867-8.47 12.703-4.076-.164-1.146-7.95-4.463-8.047-3.317-.098-2.618 6.605-5.756 9.036-1.158.897-2.96 1.205-4.86 1.418l10.7 7.92c3.674-2.001 7.703-4.75 10.816-7.467 3.171-2.769 6.74-6.198 9.383-9.734zM507.353 138.642c-.357-3.16-5.342-7.276-8.124-6.962-2.782.314-.487 3.868-3.628 4.901-3.141 1.034-8.638-6.73-13.137-4.034-4.5 2.697 1.323 13.12-3.398 17.402-4.72 4.283-15.835-1.024-20.418 1.958-4.582 2.98-7.906 7.312-6.031 10.71 1.875 3.397 8.457-4.79 10.98.54 2.524 5.331-9.242 19.674-14.513 19.607-5.27-.067-1.493-4.949-4.153-5.92-2.66-.972-5.621-.209-9.437 2.498-3.817 2.708-9.179 11.08-10.273 15.158-1.094 4.08 3.572 4.08.501 7.01-3.07 2.93-15.536-6.623-18.309-2.172-2.772 4.451 9.028 7.637 7.082 10.933-1.946 3.296-7.256-1.924-9.914-.7-2.659 1.224-2.162 5.119-4.536 6.127-2.373 1.008-3.719-2.345-7.782-1.019-4.063 1.327-14.812 7.2-12.882 12.278 1.93 5.078 12.389-3.89 14.792.517 2.403 4.408-4.352 11.655-7.846 13.161-3.494 1.507-4.723-3.076-7.328-1.631-2.605 1.445-.182 8.388-3.445 9.78-3.263 1.39-6.688-6.032-9.939-4.513-3.25 1.52-.544 6.52-2.832 10.233-2.288 3.713-7.679 9.68-11.522 10.44-3.843.76-4.222-2.757-7.488-2.698-3.265.06-8.582.472-10.797 4.337-2.215 3.865 5.448 12.41 2.228 14.927-3.22 2.517-3.771-4.591-8.713-3.604-4.942.987-12.187 10.075-14.697 14.728-2.51 4.653-4.031 8.138-2.22 10.686 1.812 2.55 6.005-2.427 7.782 1.019 1.778 3.446-11.755 10.21-7.233 13.614 4.523 3.405 9.368-10.481 13.336-12.89 3.968-2.41 5.925-.846 8.825-2.952 2.899-2.106 5.995-6.523 7.256-9.803 1.261-3.28-1.283-6.355.86-8.848 2.142-2.494 8.406-.037 10.503-2.658 2.097-2.621-1.769-7.327.247-9.302 2.015-1.974 4.964 1.177 7.622-.047 2.659-1.225 3.538-8.376 6.51-7.512 2.97.864-3.907 7.059 1.272 8.53 5.18 1.471 13.329-13.328 15.286-18.086 1.957-4.759-1.33-3.677.565-7.17 1.894-3.492 9.266-10.747 13.2-10.145 3.935.602 1.372 6.336 4.154 5.92 2.781-.415 1.182-6.953 2.992-9.166s4.498-1.602 6.532-3.7c2.035-2.098 2.02-7.228 4.671-8.872 2.651-1.644 5.233 1.811 8.69-.207 3.455-2.018 4.486-10.505 7.845-13.16 3.358-2.656 6.452-.796 9.89-3.112 3.438-2.316 6.718-7.322 9.23-11.188 2.512-3.866 3.543-9.556 5.873-11.776 2.329-2.22 4.128-.822 5.625-2.475 1.497-1.652 1.225-4.9 2.244-6.874 1.019-1.975.755-3.176 3.628-4.902 2.874-1.726 10.334.05 13.862-2.069 3.527-2.118 5.274-4.971 6.35-8.577 1.075-3.607-3.76-9.91-.685-11.888 3.074-1.979 5.834 4.775 8.872 4.67 3.038-.104 4.95-2.44 6.986-4.312 2.037-1.872 5.346-3.58 4.99-6.74zM303.408 316.776c1.108-2.647-3.277-6.647-5.833-6.215-2.555.433-4.31 4.242-2.856 6.422 1.453 2.18 7.58 2.439 8.689-.207zM299.103 335.403c-1.27-3.662-4.845-3.975-8.1-3.151-3.256.824-2.596 7.238-7.416 8.737-4.82 1.498-14.78-8.122-18.174-4.918-3.394 3.205 3.375 6.843 1.886 8.984-1.49 2.14-4.384-.255-6.398.955-2.013 1.209-1.822 4.676-4.535 6.127-2.713 1.45-8.707-1.71-10.822.525-2.114 2.234 1.311 5.44.048 7.623-1.263 2.182-4.258.775-6.533 3.7-2.274 2.924.72 13.794-3.875 14.203-4.595.408 1.501-10.652-5.562-11.705-7.062-1.052-21.329 15.791-20.139 22.08 1.19 6.29 7.032-.05 7.647 3.764.615 3.815-7.025 11.706-10.456 10.28-3.43-1.424 2.497-5.846-.047-7.622-2.544-1.776-7.895 1.083-10.344 3.724-2.45 2.641-.29 7.86-2.833 10.233-2.544 2.373-8.172-.269-10.05 2.045-1.878 2.313.645 4.435.048 7.622-.597 3.188-6.054 8.455-4.352 11.005 1.701 2.55 3.665-.439 6.556.111s6.777 6.527 10.392 3.9c3.615-2.628-2.892-11.57-.708-15.7 2.183-4.13 9.658-3.269 10.48-6.469.82-3.2-5.51-4.052-3.7-6.533 1.808-2.48 7.11 3.04 10.685 2.22 3.577-.819 6.373-3.457 8.8-6.763 2.428-3.306 2.158-9.677 4.648-12.684 2.489-3.006 5.04-4.889 8.506-5.084 3.465-.195 6.927 4.792 9.938 4.512 3.011-.28 4.564-1.175 5.92-4.154 1.356-2.98-3.885-9.663-1.297-12.341 2.588-2.679 7.683 2.974 9.914.7 2.232-2.274-2.57-7.085-.82-9.143 1.751-2.057 5.143 1.582 7.01-.501 1.87-2.084-2.052-7.4-.365-9.755 1.687-2.356 4.958-3.249 7.304-2.18 2.347 1.068.019 7.46 3.247 7.145 3.228-.314-.099-10.285 2.673-11.3 2.772-1.013 2.521 3.035 4.902 3.63 2.38.593 5.326.887 8.53-1.274 3.204-2.16 8.661-8.886 7.392-12.548zM183.886 439.799c-.852-3.087-6.553-1.543-8.26-4.217-1.707-2.675 2.926-8.865-.366-9.756-3.292-.89-2.405 5.636-5.737 9.032-3.332 3.395-13.432 6.158-14.88 9.85-1.447 3.693-.768 3.986 1.41 5.785 2.177 1.8 8.06 1.923 10.98.541 2.919-1.382 2.367-6.213 4.989-6.74 2.622-.525 3.728 4.61 6.58 3.923 2.852-.687 6.135-5.331 5.284-8.418zM378.442 344.816c2.254 2.7-4.153 4.634-3.15 8.1 1 3.467 11.608 3.281 10.415 7.71-1.193 4.43-11.13-1.441-14.474 1.616-3.343 3.057.603 10.664-2.514 12.365-3.118 1.702-3.083-4.324-8.1-3.15-5.018 1.173-9.691 16.747-14.992 16.406-5.3-.34-5.885-3.1-5.538-7.893.348-4.793 11.384-9.75 13.177-13.956 1.794-4.207-1.422-4.547.406-8.236 1.828-3.689 8.247-8.525 12.588-10.599 4.34-2.074 9.928-5.062 12.182-2.363zM316.075 416.254c3.15.144 4.546-4.587 4.671-8.872s-2.148-12.767-6.493-14.29c-4.345-1.524-6.495 1.268-10.638 5.402s-15.63 16.917-10.543 20.648c5.085 3.732 6.848-8.612 10.455-10.28 3.607-1.668 6.566-2.379 9.143-.82 2.576 1.56.256 8.068 3.405 8.212zM245.687 474.162c2.351-3.573 4.601-7.181 1.781-10.074-2.82-2.893-11.523-1.084-13.875 2.093-2.351 3.177 3.847 7.373 1.43 9.573-2.419 2.2-6.403-2.494-9.603-2.365-3.2.128-5.758-.148-8.832 2.949-3.074 3.096-1.998 12.99-5.225 16.04-3.226 3.048-6.969.226-9.434 2.502-.713.658-1.58 1.457-2.354 2.34l10.046 7.437c2.639-.998 5.126-2.406 6.808-3.786 4.486-3.68 3.167-12.109 6.48-15.11 3.314-3.001 5.995-1.264 9.881-3.106 3.886-1.842 10.547-4.92 12.897-8.493zM437.53 309.837c2.054-4.486 9.066-10.414 6.62-14.068-2.444-3.654-7.816-.924-10.82.525-3.005 1.45-4.505 3.551-6.056 6.899-1.55 3.348 2.26 8.962-1.902 12.819-4.16 3.857-18.625-4.005-21.03 1.504-2.404 5.508 3.884 10.135 9.373 11.68 5.49 1.546 14.038-2.738 18.103-6.516 4.064-3.778 3.66-8.356 5.713-12.843zM235.367 163.978c-1.866-3.083-8.91 1.912-11.14-1.608-2.23-3.519 8.198-10.63 4.035-13.137-4.164-2.507-7.362 10.188-10.91 10.893-3.547.706-2.65-4.139-5.808-2.403-3.159 1.736 1.022 13.28-2.65 15.11-3.671 1.831-4.843-5.476-8.26-4.216-3.415 1.259-.783 7.141-4.805 11.617-4.022 4.475-21.766 5.68-20.664 11.259 1.1 5.58 7.415 1.318 10.527 1.154 3.111-.165 5.785-.192 7.917-1.727 2.132-1.535.871-4.788 3.923-6.58 3.051-1.792 12.171-4.724 13.566-.39 1.396 4.333-8.445 4.504-11.386 7.694-2.94 3.19-3.49 8.184-6.031 10.71-2.542 2.527-5.204 5.465-8.053 4.472-2.849-.993-.396-6.51-3.406-8.212-3.01-1.702-8.287.15-11.728 1.75-3.442 1.601-8.923 4.117-8.188 7.218.736 3.101 5.948-.138 7.941 2.085 1.994 2.222 3.627 7.071 1.432 9.596-2.194 2.525-7.323 1.073-10.367-.088-3.044-1.16-3.621-6.877-6.9-6.055-3.277.822-5.051 6.947-3.898 10.392 1.153 3.445 9.662 2.762 9.031 5.737-.63 2.975-4.584-.733-7.464 1.114-2.88 1.847-2.698 12.435-7.097 10.87-4.4-1.567 5.473-11.854 1.583-14.952-3.89-3.098-10.448 2.04-13.996 4.814s-7.477 6.399-6.644 10.256c.833 3.858 10.434 2.11 9.644 6.191-.79 4.082-9.98.858-13.249 2.522-3.269 1.665-2.331 3.515-6.214 5.833-3.883 2.318-13.694 2.825-17.649 5.904-3.954 3.079-3.852 7.346-6.19 9.644-2.339 2.297-6.042 1.325-6.987 4.313-.944 2.987 5.22 6.354 4.178 9.73-1.043 3.378-6.043 4.84-8.96 5.698-2.916.859-5.5-2.07-7.622.048-2.123 2.118-2.975 6.974-.088 10.368s12.127 4.157 16.177 2.49c4.05-1.666 4.097-3.662 5.896-7.965 1.798-4.302-.973-16.064 2.785-17.855 3.757-1.79 4.882 1.263 5.967 3.47 1.085 2.205-3.225 5.963-1.018 7.781 2.207 1.818 6.028-.92 8.824-2.952 2.797-2.031 7.451-5.816 6.803-9.19-.648-3.374-6.103-2.607-7.805-4.83-1.703-2.224-3.793-4.363-2.18-7.305 1.612-2.941 8.767-1.342 12.022-3.43 3.256-2.086 2.708-6.449 6.963-8.123 4.255-1.675 10.81 4.41 16.63 1.878 5.82-2.534 8.41-14.245 12.7-17.156 4.29-2.91 7.302-.089 9.436-2.498 2.135-2.41-.947-7.308 1.313-9.461 2.26-2.153 6.479.955 9.143-.82 2.663-1.775 1.817-6.743 4.67-8.872 2.854-2.128 7.91-.173 11.116-2.204 3.206-2.03 5.481-6.507 6.804-9.19 1.322-2.683-.333-3.43 1.79-6.262 2.123-2.832 9.152-4.432 12.453-7.854 3.3-3.422 3.656-8.915 6.938-11.935 3.282-3.021 9.104-2.673 11.705-5.562 2.601-2.89 5.312-6.696 3.445-9.78zM62.875 333.08c.662-.916 1.058-1.895 1.107-2.914.313-6.521-7.92-7.78-12.257-9.074-4.337-1.293-8.19-1.183-11.896.681-3.706 1.865-8.35 6.643-8.32 9.978.032 3.334 5.036 2.515 4.59 5.302-.445 2.788-5.962 5.548-8.493 5.066-2.531-.483-.291-4.485-3.377-4.366-3.087.118-8.933 7.414-7.095 10.844 1.838 3.43 9.143-2.955 10.357.085 1.214 3.04-3.47 6.012-6.654 6.467-3.184.455-4.668-5.648-8.898-4.682-1.772.405-3.898 1.777-5.715 3.624l15.924 11.788c.972-3.406 1.659-7.139 3.87-8.8 4.23-3.176 12.83 1.042 13.7-3.117.87-4.158-8.581-3.94-9.193-6.805-.612-2.865.68-4.099 3.042-5.37 2.36-1.27 4.403 2.03 9.892.714 4.63-1.11 15.844-4.48 19.416-9.422zM370.397 9.755c.549-1.012-.593-5.304-8.689.207-8.096 5.51-29.775 25.737-35.018 31.931-5.244 6.194-1.556 7.23 1.885 8.984 3.441 1.754 10.354-2.116 12.771-5.721 2.418-3.606-2.505-8.68.382-12.047 2.887-3.368 10.789-.134 14.315-2.682 3.526-2.547 2.571-9.992 5.578-10.097 3.006-.106.056 4.612 3.54 5.466 3.486.854 13.55-3.035 13.066-7.4-.485-4.364-9.76-.583-10.845-3.286-1.086-2.703 2.467-4.344 3.015-5.355z" fill="#666"/><path d="M580.597 159.245L185.785 487.012m29.664 21.959L610.59 181.448" fill="none" stroke="#000" stroke-width="2" stroke-linecap="round" stroke-linejoin="round" stroke-miterlimit="10"/></svg>