<svg xmlns="http://www.w3.org/2000/svg" width="1500" height="1500" viewBox="0 0 1500 1500"><path d="M421.453 880.407c-3.671-3.363-7.545-6.503-11.485-8.846-9.839-5.846-22.269-5.957-33.304-6.419-15.212-.615-29.943-3.267-45.176-.637-30.28 5.224-61.564 8.427-92.314 8.79-11.692.154-23.294-2.328-34.824.14-23.517 5.05-47.051 13.763-70.386 19.972-20.68 5.482-40.813 13.3-62.025 16.615-8.339 1.308-44.303 7.229-45.295-7.608-.389-6.154 5.824-11.182 10.051-14.545 7.591-6.057 17.507-8.637 26.566-12.691 11.537-5.188 22.251-11.629 33.921-16.524 10.885-4.573 21.818-11.244 30.282-19.698 7.682-7.685 15.846-14.398 24.257-21.069 8.521-6.782 18.842-11.224 23.92-20.699 8.122-15.159 19.897-30.921 33.312-41.816 18.577-15.082 40.611-25.607 63.575-32.041 75.196-21.114 165.636 6.125 222.513 58.376 7.876 7.243 14.708 15.439 22.526 22.74 20.598 19.293 42.311 22.978 69.176 17.313 11.803-2.503 22.396-10.118 33.733-14.251 16.36-5.965 34.499-10.812 51.931-12.098 12.433-.923 17.695-2.14 26.618-11.741 15.192-16.356 25.709-37.062 36.085-56.634 13.298-25.076 18.549-59.019 18.885-88.514.224-18.146-2.399-34.685-6.153-52.376-2.577-12.175-6.3-24.23-7.5-36.586-1.672-17.192-1.58-34.516 0-51.712 1.282-14.226-.584-32.188 5.818-45.299 3.804-7.804 10.349-14.167 16.477-20.908 11.606-12.813 26.166-28.285 41.913-35.655 3.594 9.471-13.763 31.918-19.104 39.575 4.942-6.759 13.788-9.052 20.014-14.457 5.055-4.382 9.404-9.707 14.718-14 33.692-27.307 63.55-58.815 98.689-84.402 36.207-26.384 73.962-50.708 113.155-72.473 25.147-13.968 50.46-27.67 75.452-41.929 22.378-12.775 46.306-23.118 68.494-36.736 10.287-6.308 21.35-12.874 31.895-18.219 11.055-5.62 24.209-12.378 18.068 6.125-4.475 13.51-16.67 23.865-24.544 34.97 10.167-2.335 20.83-7.143 30.475-11.098 8.181-3.354 24.53-10.132 33.613-6.709 13.294 5.003-8.117 16.383-14.166 19.946-9.267 5.44-17.698 11.916-25.854 18.87 11.923-.186 23.314-.703 34.796-2.437 5.859-.888 26.495-5.115 30.754-1.489 8.042 6.804-38.445 35.383-45.41 38.98 6.482-1.64 42.026-2.098 45.082 4.585 2.622 5.719-17.119 21.118-21.265 24.327-10.335 8.024-22.146 13.895-33.523 20.279 7.805 3.664 22.265-2.252 31.077-1.494 6.109.532 24.941 1.354 27.032 8.769 3.874 13.703-41.564 30.468-49.132 37.492 9.455 4.775 34.754 1.856 35.523 16.391.742 14.048-23.858 19.81-32.166 23.853 8.392 2.723 17.426.503 24.685 6.916 13.643 12.062-28.042 36.313-36.236 42.347 9.602 3.036 23.419 9.71 13.867 20.871-6.078 7.083-20.09 13.674-28.161 18.82-7.285 4.657-6.097 3.892-4.615 11.755 1.008 5.182 1.049 10.286-1.502 14.943-5.195 9.44-16.566 9.524-25.293 13.545 1.72-.797 3.259 6.633 3.035 7.798-.589 3.013-3.931 5.072-6.169 6.782-5.587 4.287-10.194 4.133-16.796 5.007 5.973 20.565-14.545 18.257-28.56 19.201 3.596 6.64 8.686 12.723 13.378 18.881 5.762 7.565 11.301 14.258.05 19.194 2.881 5.216 9.754 10.961 7.999 17.594-4.335 1.643-8.238 2.727-13.217 2.506 2.742 5.724 12.252 11.123 13.371 17.007.993 5.276-7.875 15.656-11.859 18.79 4.797 10.202 22.229 19.512 1.679 24.429 6.922 10.516 15.438 22.355-.966 26.296 2.168 4.223 9.363 6.129 9.698 11.073.204 2.829-4.439 7.392-6.118 9.657 9.035 13.279 15.901 27.628 25.51 40.418 10.237 13.623 14.405 27.887 22.133 42.452 2.564 4.805 7.14 8.818 8.104 14.147-3.286-.427-6.545-1.105-9.875-.686 1.876 7.126 8.734 14.098 13.161 20.021 3.874 5.202 6.21 11.538 11.656 15.503-12.51 5.573-33.319 2.398-46.752.93-9.672-1.07-17.846-6.37-26.384-10.545-8.056-3.931-11.916-3.454-20.356-2.993 6.078 6.294 10.769 14.741 17.553 20.328 6.593 5.44 13.578 10.447 21.222 14.048 10.308 4.867 31.629 13.77 33.979 26.77-17.672.887-35.46-.581-52.844-2.127-9.643-.854-19.328-.79-28.951-1.846-7.69-.84-17.803-6.007-24.789-5.343 11.182 18.146 35.523 25.762 52.998 36.097 11.748 6.923 24.663 11.623 36.32 18.699 11.943 7.229 17.65 17.055 27.063 26.811 7.397 7.648 20.026 7.762 30.794 11.188 11.021 3.503 23.398 6.965 34.559 1.644 5.153-2.476 9.854-7.405 14.51-10.733 3.992-2.847 27.182-21.174 31.908-13.664-2.705 9.468-7.007 15.397-12.587 22.908-4.517 6.069-13.075 14.027-16.279 20.712 6.895 3.454 20.404 5.567 28.468 6.741 9.404 1.37 18.845 2.671 27.783 5.37 8.124 2.476 16.006 5.406 24.195 8.028 7.494 2.405 16.166 12.209 2.502 11.328 8.754 4.209 18.579 5.789 27.09 10.656 11.021 6.322 10.209 13.314 11.649 24.838 20.812 8.322 35.713 25.237 48.062 43.706-22.258-.435-55.285-1.07-74.635-7.7 33.168 18.503 55.559 43.16 75.131 74.872-6.992-1.896-15.858-4.881-21.426-7.259 4.307 6.321 45.635 47.606 17.957 43.705 5.218 5.902 11.561 12.929 11.273 21.342-6.126-2.385-14.503-5.798-21.117-7.511-.371 12.686 4.795 35.621-16.071 21.993 6.28 6.621 11.455 16.983 9.399 27.234-6.322.421-11.468 1.498-17.295-1.496 7.981 4.099 3.386 12.336-2.649 13.406-8.321 1.475-15.594-5.965-23.677-7 1.72 2.195 8.083 9.217 6.092 12.021-2.987 4.202-26.176-7.336-30.049-9.279-11.272-5.637-23.132-9.733-34.881-14.25-12.236-4.693-23.453-10.595-35.242-16.972-14.875-8.057-25.566-16.434-35.789-29.839a106.087 106.087 0 0 1-7.454-11.12c-4.111-7.067-2.497-7.096-10.454-8.223-8.727-1.252-18.434.105-26.775-1.383 9.182 8.879 21.243 14.838 29.02 25.208 9.111 12.159 5.734 17.196-8.838 18.013-6.679 18.468 43.354 28.565 36.306 41.545-13.278.697-48.166.369-53.677-15.175-17.173 4.951-10.705 12.041-1.355 23.964 6.907 8.817 10.238 16.09 10.012 27.475-.111 5.728-20.181-8.021-21.271-8.964-6.865-6.021-13.062-12.12-21.705-15.678-9.804-4.034-19.474-9.162-28.978-13.937-22.964-11.546-50.601-26.985-61.675-51.984-2.938-6.637-7.146-12.783-9.957-19.434-2.862-6.755-4.938-14.405-5.148-21.691-.043-1.53 2.601-21.489 4.322-20.628-6.994-3.504-19.328-1.692-27.476-1.679-42.208.057-82.081-9.846-122.281-21.832-30.007-8.922-55.971-18.117-85.479-29.879-28.042-11.195-55.151-20.699-81.2-36.342-25.048-15.026-43.857-33.271-73.877-41.285-29.534-7.88-59.474-13.286-89.222-20.027-48.321-10.95-92.14-36.418-129.455-68.507-11.591-9.973-25.829-21.622-36.622-34.083-11.207-12.954-18.511-29.065-31.224-40.737z"/></svg>