<svg xmlns="http://www.w3.org/2000/svg" xmlns:dc="http://dublincore.org/documents/dcmi-terms/" height="1052.362" width="744.094"><metadata><dc:description>Silhouette of Anatidae, processed by PhyloPic Tools (https://github.com/eweitz/phylopic-tools)</dc:description><dc:source>http://phylopic.org/image/dc45103f-fbd1-427d-b4a7-0f02f3af2417</dc:source><dc:creator>Michael Scroggie</dc:creator><dc:license>http://creativecommons.org/publicdomain/zero/1.0/</dc:license></metadata><image height="739.875" width="733.003" x="6.997" y="122.291"/><path d="M6.997 492.228V122.291H740v739.875H6.997V492.228z" fill="#fcfcfc"/><path d="M402.131 723.349c-19.508-8.305-20.597-8.51-23.92-4.507-3.69 4.446-4.518 4.445-19.87-.018-14.575-4.237-27.01-15.557-23.76-21.63 2.194-4.098-3.085-33.82-7.722-43.477l-2.75-5.726-30.52.757c-23.762.589-32.792 1.73-40.779 5.153-8.095 3.471-15.708 4.398-36.118 4.398-30.472 0-50.023 5.297-80.825 21.897-16.332 8.801-20.724 10.172-32.589 10.172-11.94 0-14.177-.71-17.308-5.487-1.978-3.018-5.61-6.014-8.07-6.658-2.461-.643-4.475-2.19-4.475-3.437 0-1.247 8.247-10.024 18.325-19.506 10.08-9.481 18.325-18.35 18.325-19.708 0-1.466-5.118-2.47-12.598-2.47-6.93 0-12.599-.85-12.599-1.891 0-3.33 9.792-10.986 29.779-23.286 10.708-6.59 23.593-15.797 28.633-20.46 5.04-4.663 16.54-14.308 25.557-21.434 9.018-7.125 22.418-19.776 29.778-28.113 16.401-18.575 46.52-44.467 69.504-59.75 9.45-6.282 25.605-17.298 35.902-24.48 24.4-17.018 49.029-28.569 67.35-31.587 37.032-6.1 52.459-13.16 73.812-33.774 25.334-24.457 25.014-23.546 25.36-72.048.359-50.263 2.579-57.26 24.324-76.657 15.42-13.754 27.441-18.834 44.572-18.834 20.845 0 31.205 5.183 47.23 23.625 7.868 9.054 20.463 22.151 27.99 29.105 12.309 11.374 13.305 12.959 9.916 15.771-3.05 2.532-6.232 2.632-16.713.527-7.12-1.43-19.155-2.6-26.743-2.6-12.118 0-15.705 1.154-29.485 9.48-17.442 10.538-18.803 12.37-24.814 33.39-5.128 17.932-5.434 30.653-1.808 75.098 1.542 18.898 2.807 53.43 2.812 76.736l.009 42.377-8.309 16.035c-12.516 24.155-27.024 40.935-45.86 53.041-42.493 27.313-56.45 37.259-69.772 49.72l-14.353 13.426 1.45 16.352c1.8 20.266 3.607 23.864 14.18 28.219 4.624 1.903 10.725 5.604 13.56 8.222 5.995 5.538 6.9 16.546 1.53 18.607-4.423 1.697-1.956 2.319-18.137-4.57zm-30.084-32.486c.611-.988-.863-8.977-3.275-17.753-6.488-23.6-19.506-31.932-23.123-14.797-2.078 9.844 1.386 23.916 7.355 29.885 4.403 4.404 16.889 6.15 19.043 2.665z" fill="#060606"/></svg>