<svg xmlns="http://www.w3.org/2000/svg" xmlns:dc="http://dublincore.org/documents/dcmi-terms/" height="557.93" version="1.2" viewBox="0 0 809.898 557.93" width="809.898" overflow="inherit"><metadata><dc:description>Silhouette of Ancalagon minor, processed by PhyloPic Tools (https://github.com/eweitz/phylopic-tools)</dc:description><dc:source>http://phylopic.org/image/0a21d233-8127-42a6-9c75-96d887f7edeb</dc:source><dc:creator>Obsidian Soul (vectorized by T. Michael Keesey)</dc:creator><dc:license>http://creativecommons.org/licenses/by/3.0/</dc:license></metadata><path d="M52.993 0c2.155.845-.375 6.374 2 6.999C57.415 6.039 60.317.391 61.992 2c-.507 3.159-2.943 4.389-3 7.999 8.74 1.74 8.891-5.108 15.998-5 1.297 2.48-2.231 4.852 0 5 3.478-2.854 8.488-4.177 12.999-6-1.674 4.326-7.642 4.357-7 10.999 8.453 1.438 14.208-5.102 20.998-2-2.515 2.485-6.566 3.433-6 8.999 6.524 2.475 17.131.867 23.997 3-1.682 1.984-5.738 1.594-6.999 4 3.099-.1 5.546.453 6.999 2-.239 1.427-1.646 1.687-2 3 18.422 6.243 31.991 17.653 48.994 22.997 3.866-1.116 3.944-3.041 7-3-.839 1.161-1.319 2.681-1 5 3.78 1.448 1.918-2.748 4.999-2-.055 1.278-1.281 1.385-1 3 3.212.879 1.37-3.296 4-3 .043 1.376-.471 2.196-1 3 5.32 1.61 5.18-7.427 7.999-5-.753 2.304-6.56 4.695-4 6.999a14.098 14.098 0 0 1 5-5c.146 1.329-3.363 3.721-1 4 1.784-1.882 2.704-4.628 4.999-5.999-.27 1.824-3.6 5.605-1 6.999.833-4.294 2.917-1.539 5-5-1.388 1.279-.612 4.721-2 6 5.735-3.04 7.233 1.461 10.999-3 .146 1.329-3.362 3.72-1 4 1.193-2.473 3.423-3.909 5.999-5-.521 1.479-1.479 2.52-2 4 2.932 1.15 3.714-4.796 5-2-1.622-.715-1.622 4.715 0 4-.279-2.279.241-3.758 2-4-1.428 2.211.946 2.502 1 4 .56-1.44 1.56-2.44 3-3-.521 1.479-1.479 2.52-2 4 4.357 1.358 3.617-2.382 6-3-1.301 1.332-.615 3.018 1 4 1.606-4.075 3.875-.704 6-6 .826 2.826-1.409 2.59-1 5 4.916.917 3.132-4.867 6-5.999-.526 4.393-1.405 4.376 1 4.999-.572.905-4.124 3.681-2 4 2.029-2.303 3.587-5.078 5.999-6.999-.144 1.182-1.78 2.267 0 3 .211-1.122 1.11-1.557 2-2-1.369 2.63-4.209 3.79-5 6.999 5.812-2.727 9.613-6.573 12.999-7.999-2.995 2.005-4.213 5.786-6 8.999 4.879-.81 5.246-11.39 9.999-8.999-3.956 3.108-3.266 3.077-4 8.999 1.919-2.795 5.372-12.286 7.999-7.999-2.379-3.128-6.047 9.021-5 5.999 2.57-.097 1.43-3.903 4-4 .168 2.263-4.808 4.397-2 6 2.897-2.942 5.866-5.898 8.999-6-1.183 2.526-6.542 6.065-4.999 7.999 2.736-2.263 6.179-3.819 8.999-5.999-.628 2.754-6.845 5.087-5 6.999 1.821-2.845 5.493-3.839 7.999-5.999-.319 2.347-3.095 2.238-4 4 5.07-1.747 7.652-1.492 11.999-5-5.51 4.887 3.858 4.078-1 4 .904-3.367 2.237-.118 4-2-1.745 2.039.745 1.961-1 4 3.737 1.326 5.726-4.167 6.999-2-1.068 2.281-6.519 3.186-4 5.999 4.436.104 3.473-5.192 6.999-5.999.209 1.991-4.239 4.271-2 4.999 1.738-.673 6.943-2.949 6.999-2-.644 3.065-7.59 5.017-5 7.999 2.466-2.769 7.244-5.466 7-7.999.013 1.987 2.728 1.271 2 4-1.748.571-7.475 5.613-5 4 4.271-1.75 10.772-6.532 13.999-6-2.473 1.194-3.909 3.423-5 6 3.745 2.233 4.985-5.31 8.999-6-2.211 2.191-3.849 5.555-2 7 2.518-3.029 5.633-4.452 7.999-4-1.173 1.493-4.155 1.178-4 4 1.382 2.914 4.618-5.914 6-3-2.473 1.193-3.909 3.423-5 5.999 4.548-.451 3.707-6.292 6.999-7.999-1.786 3.479.691 7.868 1 6.999 1.726-1.714-1.47-3.932 3-4 .826 2.826-1.409 2.59-1 5 4.333-.666 3.448-6.551 6.999-7.999-2.359 4.513-2.153 7.666-3.999 10.999 4.154-2.248 3.959-7.703 7.999-11.999-.533 3.467-2.675 5.324-3 8.999 6.004-.662 5.835-7.497 9.999-9.999-2.108 6.495-6.5 11.794-6 16.998 1.036-2.506 4.534-3.163 1-4.999 4.329-.337 3.845-5.487 7.999-6-1.271 3.395-3.55 5.782-5 8.999 5.551.193 9.1-6.865 11.999-6-2.685 3.003-8.812 7.823-7.999 10.999 3.528-4.137 6.366-8.965 10.999-11.999-.448 1.964-4.895 4.998-3 6 1.386-3.723.15 2.943 2 2 1.913-3.366 4.246-4.77 7-4.999-.28 1.502-4.299 4.21-2 4.999a20.304 20.304 0 0 1 6-5.999c-2.778 3.39-1.549 8.937 2 5.999-3.858 4.398 1.232 2.721 3 0-.429 1.904-2.154 2.512-2 5 2.502 1.32 3.13-3.953 4-1-.117 2.295-6.678 3.215-4 5 3.637-2.029 6.085-5.247 9.999-6.999-.003 2.091-5.446 3.758-3 5 2.041-1.292 2.529-4.137 5-5 .855 2.332-3.497 4.308-1 5 1.357-2.976 4.514-4.152 6.999-6-1.408 2.791-3.383 5.009-4.999 5 3.541.111-2.125 3.306 1 3 1.827 1.027 6.48-5.139 7.999-4-3.458 1.821-3.522 5.493-4 7.999 4.216-.117 5.058-3.608 7.999-5-.375 2.682-6.829 4.427-4 7 .904-3.346 2.237-.874 4 0 .483-2.85 3.796-2.87 6-4 1.297 2.48-2.231 4.852 0 4.999 1.371-2.295 4.118-3.215 6-4.999-1.802 4.205-2.372 4.463 1 4.999-2.301 1.737-7.595 5.686-6 7.999a27.649 27.649 0 0 1 6.999-6.999c1.32-2.502-3.952-3.13-.999-4 .11 3.542 3.305-2.125 2.999 1-.554 1.052-1.276 4.523-2.999 6.999 3.449.067 6.028-5.903 7.998-4-1.179 3.154-3.109 5.555-4.999 7.999 2.831-.765 7.92-2.578 5.999-5 2.754 3.308 5.087-5.655 6.999-3-4.15 3.182-6.379 8.286-9.998 11.999 4.863-.494 6.433-9.533 9.998-7.999-1.008.012-1.257 1.752 0 2 2.51-1.053-7.681 6.65-4.999 8.999 3.318-2.347 5.435-5.897 9.999-6.999-.626 3.412-7.171 6.11-5 8.999 2.521-3.875 7.413-8.991 10.999-5-2.859-2.368-7.601 6.022-6.999 6.999 2.867-1.466 4.042-4.623 5.999-6.999 1.807 1.947 7.592.441 9.999 0-2.052 1.948-3.283 4.716-4.999 6.999 2.9.096 5.75-4.212 6.999 0-2.403.979-7.554 4.379-6 6 2.535-.848 6.935-4.998 8.999-3-4.582 1.424-4.229 2.606-1 3-3.571.428-5.487 2.511-6.999 4.999 5.735-.264 7.233-4.765 10.999-6.999-1.839 2.772-1.643 7.4-2 8.999 1.662-2.005 2.685-4.647 5.999-5 .24 1.427 1.646 1.687 2 3-3.302 1.395-9.274 5.35-7.999 7.999 4.099-2.53 8.442-8.545 11.999-5.999-1.991 1.009-4.271 1.729-5 4 1.721.395 2.563-1.484 3 0-.614 1.386-3.85.15-4 2 4.402 1.345 6.273-4.981 7.999-3-.846 2.82-3.432 3.9-4.999 6 6.288-2.408 12.035.209 4.999 3.999 3.078.021 7.578-3.677 8.999-2-2.485 1.847-5.643 3.023-6.999 6 3.817.76 7.494-3.762 8.999-2-3.64.36-3.68 4.32-5.999 5.999 11.165-4.05 7.523-4.71 10.998-2-3.596 1.071-6.393 2.939-7.999 6 5.337-.021 10.577-5.389 13.999-4-2.188 1.479-5.383 1.95-7 4 1.177.156 2.839-.172 3 1-3.151-.739-6.656 3.236-4.999 4 2.771-.501 6.794-6.024 7.999-2-3.389.445-7.646 7.394-7.999 5.999 6.071-.261 9.044-3.621 12.998-5.999-4.093 3.861.058 3.766-3.999 6.999 3.379-1.158 4.266.707 5.999-1-.556.003-1.136-.81 0-1 2.927 4.5-7.204 5.186-5 6.999.373-.949 7.314-.049 7.999 2-1.758 2.241-5.997 2.002-7.999 4 4.448.739 9.21-3.398 11.999-1-3.049 2.951-9.118 2.881-11.999 6 4.509-.518 10.767-4.528 13.999-3-2.562.772-5.669.998-7 3 1.576 2.711 5.574-2.861 7 0-1.949-.473-5.113 2.691-3 3 2.133-.601 6.642-3.934 7.999-2-8.253 2.694-.341 3.456-6.999 7 3.235.824 8.648-1.245 8.999 0-1.288 2.044-5.611 1.055-5.999 4 5.047.445-2.055 1.402-2 3 2.713.619 7.935-1.27 8.998 1-3.041.958-6.82 1.178-7.998 4 5.196 1.159 9.619-3.662 11.998-2-4.609 1.292-3.231 3.202-6.999 6 4.017.959 7.967-3.288 9.999-1-5.5.691-1.769 4.397-6 5.999 4.331.737 6.193-2.261 8 1-2.615-.282-4.302.365-4 3 2.279 1.373 3.759-2.577 4 0-.825.957-6.468 2.043-4 3 1.868-.798 3.662-1.671 5.999-2-.838 2.828-3.929 3.403-5.999 5 2.482-.15 4.149.517 4.999 2-.314 2.352-4.739.593-3.999 4 1.99 3.301 4.271-2.478 4.999 0-1.122.211-1.557 1.11-1.999 2 4.724-.474 1.862 1.247.999 3 3.249 1.154 6.15-3.054 7.999 0-4.191-.15-2.407.517-1 2-2.502-.17-3.13 1.536-3.999 3 2.391.609 7.255-1.255 7.999 1-2.932.068-3.714 2.286-5 4 2.483-.15 4.15.517 5 2-2.279-.279-3.759.241-4 2 2.658.563 5.092-4.113 7-1-2.987 1.679-7.316 2.017-8 5.999 3.207 2.407 9.988-1.631 11.999 0-1.514 1.869-9.124 2.809-7.999 4 4.191-.15 2.408.517 1 2 2.651 1.174 5.888-1.917 5.999 0-1.553 1.446-4.666 1.333-5.999 3 1.758.575 5.875-1.208 5.999 1-3.323 2.51-2.304 3.503-5.999 5.999 3.492-.217 8.62-3.986 10.998-1.999-3.305.237-4.914 2.782-1.999 3.999-4.072.594-8.876.457-10.999 3 5.916 1.22 10.99-3.635 14.998-1-2.502-.17-3.13 1.536-3.999 3 .606 1.727 4.742-.077 4.999 1.999-2.262 1.071-4.396 2.27-5.999 4 1.453.547 5.168-1.169 4.999 1-1.104 1.307-9.47.422-6.999 1.999 2.61.39 5.486.514 6.999 2-4.938.553 1.04.514 1 2-1.758.575-5.874-1.209-5.999 1 2.932 1.734 6.975 2.357 11.998 2-3.584 3.229-2.494 6.228 0 9.998-1.78.553-4.152.514-4.999 2 1.695 3.974 8.268-.758 9.999 1-2.177 1.822-7.038.962-7.999 3.999 5.272-.099 3.408.453 1 2 .693 1.973 5.578-.246 5.999 2-1.453.547-5.168-1.169-4.999 1 2.722.82 5.678 2.019 1.999 3.999.726 2.274 6.92-.921 5.999 3-2.071.595-6.568-1.236-6.999 1 3.149 1.184 7.542 1.124 9.999 2.999-.279 2.055-2.671 1.996-4 3-6.458-2.733-9.413-2.162-1.999 1 2.071.595 6.568-1.236 6.999 1-1.72-.054-2.563.77-3 1.999 1.064 2.375 4.605-2.143 6 1-3.188.074-4.253 2.306-6 3-9.607 3.82-4.995.057 6 0-3.515 3.867-.131 4.189 2.999 5.999-3.861 1.262-4.615 3.409-4.999 5.999 4.146 1.146 3.896-2.103 6.999-1.999-2.219 3.544-4.044 4.622 0 4.999-1.862.138-3.342.658-4 2 2.738 2.237 4.934-2.471 7.999-3-.655 2.678-2.863 3.802-3.999 5.999 1.753.276 4.989-2.815 5.999 0-2.873-.207-5.079.254-5.999 2 3.468.802 3.843-1.489 6.999-1-2.984 3.504-.665 2.046 1 3-1.613 1.386-5.154.845-5.999 2.999 1.452.547 5.167-1.168 4.999 1-.375 2.292-3.999 1.334-4.999 3 2.102 2.344 7.71-1.163 10.998 1-2.302 1.697-5.299 2.699-6.999 4.999 4.351-.981 9.581-1.084 11.998-3.999 1.946 2.719-2.721 8.463 4 7.999 1.271-4.204-2.609-8.359 1-8.999-.1 5.273.453 3.408 2 1-.646 5.791-.953 8.291 2 11.998.634-5.525-2.582-10.17-1-14.998 1.045 1.049.634 8.57 1.999 5.999-.295-5.289.622-11.282 1-12.998 1.759 1.574 1.312 5.354 3 6.999.156-1.177-.172-2.838 1-3 .289 2.922 1.544 7.194.999 5 2.733-1.597-2.334-6.102 1-7.999-.159 3.159-.035 6.034 2 6.999.084-3.248.516-6.15 2-7.999 2.32 1.464-1.953 3.169 2 3 .389-2.611.513-5.486 1.999-6.999.303 9.047 1.04-4.391 3 2.999 1.771-5.437-1.456-7.784 2-10.999.171 2.829-.86 6.859 1.999 7-.236-2.63-.805-7.932 0-9.999.225.776.028 1.972 1 2 .225-.776.027-1.973 1-2-1.209 4.642 1.283 5.251 4 9.999.898-2.768-2.055-9.387 2-8.999.595 2.071-1.236 6.568.999 6.999 2.141-2.263-1.3-4.396 2-5.999 2.077-.895.273 6.81 2 2.999.782-4.448-1.332-6-1-9.998 2.507.742 3.163.126 4.999 2.999-.444-3.222-1.915-5.417-2-8.999 2.307-.306 1.111 2.889 3 3 1.084-2.561-3.037-4.767 0-5.999.553 1.78.514 4.152 2 4.999 1.298-2.48-2.23-4.853 0-4.999 2.715-.716-.716 4.715 2 3.999.105-5.304.565-1.182 2 0 1.403-3.498-2.805-6.4 0-7.999.553 1.78.514 4.152 1.999 5 2.127-1.854-.558-9.152 1-11.999-.872 3.205 1.539 3.127 3 4 .004-1.786-2.693-5.817 0-7 .246 1.849 1.014 8.191 1.999 6 .213-4.107-2.161-6.186 1-7.999-.068 3.401-.311 6.977 2 7.999.352-4.787-2.484-7.58 2-8.999.211 1.122 1.109 1.557 2 2-.207-4.013.253-4.473 1.999-2 .609-2.391-1.255-7.255 1-7.999.485 1.182 1.066 2.267 2 3-.271-4.146 1.313-3.896 0-7 1.427.24 1.687 1.646 2.999 2 1.378-3.159-2.475-6.034 0-6.999.676 2.657 1.574 5.092 3 6.999.547-1.453-1.168-5.168 1-4.999-.132 1.314-.151 7.234 1 3.999 1.311-4.367-2.221-9.034 0-10.998 1.066 4.266 1.541 9.124 3.999 11.998-.759-5.177 1.998-8.52-.999-7.999.168-1.165 1.58-1.086 2.999-1 1.298 2.48-2.23 4.853 0 5 3.272-1.575.32-5.574 2-6.999-.17 3.953 1.536-.32 2.999 1.999-1.195-4.209.557-4.461 2-7.999.348 10.089 2.23 8.207 1-1 1.377-.043 2.195.471 3 1 1.396-2.873-2.726-5.079 0-5.999 2.762 1.903.377 8.955 3.999 9.999-.972-3.066-2.138-11.143 0-13.998 1.183 3.066-.363 4.886 2 7.999 1.483-3.183.006-9.326 2-11.999.635 3.364.709 7.29 2.999 8.999.598-5.081-.854-7.669 2-8.999-.319 1.225.16 6.176 1 3 .575-1.758-1.209-5.875 1-6 .553 1.781.514 4.152 2 5-.43-7.235.926-2.375 1.999-3-.408-2.004-2.477-7.416 0-8.999-.179 3.561.794 11.138 2 9.999-.059-4.392.401-8.264 2-10.999.608 2.391-1.255 7.254.999 7.999 1.611-3.576-1.602-7.413 2-8.999-.132 1.314-.151 7.235 1 4 .595-2.071-1.235-6.568 1-6.999.575 1.758-1.209 5.875 1 6 1.386-3.723.15 2.943 2 2 .627-3.039-1.28-8.612 1-9.999-.781 20.894 2.136 7.583 3.999-1 .633 3.366-1.288 9.287 1 10.999.952-4.175-.445-4.9 2-7.999 1.019.163.979 6.103 1.999 3-1.305-3.085.937-6.505 2-9.999.642 4.024-1.3 10.632 1 12.999.846-5.487 1.169-11.497 3-15.998.437 6.976-1.965 10.549 1 14.998.627-3.039-1.28-8.613.999-9.999 2.213 1.439-1.259 2.439 1 3 2.252-.998-2.162-5.452 1-7 3.725 5.564-2.31 7.358 1 9.999 3.279-1.867-.144-7.482 3.999-9.999-2.069 2.208-.525 11.97 0 8.999 1.917-.112-1.174-3.348 0-5.999 2.719 2.116 3.581-1.176 4-2 2.536 3.04-2.803 4.175 0 6 2.682-.985 1.039-6.293 3-7.999.616 2.633 1.982 1.306 3.999 4-.147-2.48-.187-4.853 2-5-.757 2.276-1.399 3.874 1 6 .517-4.331-.299-6.193.999-7.999.384 2.599.58 6.52 3 4.999-1.633.451-1.633-5.45 0-4.999.212 1.208 1.109.615 2 0-.279 2.279.241 3.758 2 3.999 2.079-4.915 5.764-4.357 10.998-3.999.156-1.177-.172-2.838 1-3 .156 1.177-.172 2.838 1 3-.782-3.53 3.567-2.187 4-2 5.771 2.489 8.719 6.716 13.998 7.999-2.084 2.464 1.414 3.605 1 1 .586 3.24 2.101 1.869 2.999 3-3.065 2.426 1.149.623 1 2-3.065 2.427 1.149.624 1 2-1.122.211-1.557 1.109-2 2 1.748 1.038 5.215 3.125 2 6 4.23-1.142 2.366-.59 1 1.999 1.72.395 2.563-1.483 2.999 0-5.046-.375.128 8.663 0 9-1.012 2.668-4.436.572 0 2.999-2.698 1.572-3.346 3.827 0 4.999-4.449 1.321-.879 5.669-4.999 8.999 1.496.171 3.69-.356 3.999 1-2.482-.149-4.148.517-4.999 2 2.348.319 3.753 1.579 6.999 1v1c-3.155-.489-3.53 1.802-6.999.999.914 3.357 1.859.496 4.999 1-6.325 1.584.604 9.428-6.998 7-.297 2.629 3.879.786 2.999 3.999-2.569-2.679-1.43 2.679-3.999 0 .374 3.955 5.315-1.548 4.999 3.999-1.313-1.283-3.686-1.283-4.999 0 .314 2.352 4.739.594 3.999 4-6.182-1.114-.817 3.114-6.999 2 .744 2.255 5.608.391 7.999 1-1.71 2.999-3.64 1.11-6.999 1 5.679 1.029 1.03 6.606-2 3.999 1.726 3.25 3.598 1.082 7.999 1-2.056 1.943-5.214 2.785-7.999 3.999.744 2.256 5.608.392 7.999 1-1.453 1.547-3.9 2.1-6.999 2-1.026 3.359 3.109 1.557 4.999 2-1.505 2.827-5.182 3.483-8.999 3.999 1.453 2.964 3.9-1.317 7 0-1.7 2.966-6.494 2.839-8.999 4.999 1.386 2.28 6.959.373 9.999 1 .592 2.625-12.051.59-13.999 4 .548 1.441 5.799-.788 7.999-1-2.644 2.555 1.369 1.984 4 2 .023 1.396-9.773 1.528-13.998 2 2.71 1.621 7.377 1.287 10.998 1.999 1.691 1.115-5.467 1.8-7.999 2-.169 2.168 3.547.453 4.999 1-.24 1.759-1.72 2.279-3.999 2 9.569 1.942-1.257 2.719-6.999 2.999 1.977 1.689 6.24 1.092 8.999 2 3.221.986-7.721 1.754 0 2 .168 2.168-3.547.453-5 1 .848 1.485 3.22 1.446 5 1.999-2.249 1.35-5.623.606-7.999 0 2.692 2.017 1.366 3.384 3.999 4-1.849 1.484-4.75 1.915-7.999 1.999 4.46 1.599 6.393 2.059-1 2 1.849 1.484 4.751 1.916 7.999 2 .837 1.229-7.272 2.016-10.998 2 1.372 1.96 6.126.539 7.999 2-1.719 2.611-5.178-1.41-8.999 0 2.309 1.357 4.458 2.874 7.999 2.999-1.67 1.926-9.221 1.278-10.999 0 1.436 2.897 4.543 4.123 7.999 4.999-1.882 1.133-4.566.452-7.999 2 .658 1.342 2.138 1.862 4 2 .168 2.168-3.547.453-5 1 1.011 1.656 4.247 1.086 6 2-2.038 2.294-8.304.361-11.999 1-.055 1.597 7.048 2.554 2 2.999.257 2.076 4.393.273 4.999 2 1.442 1.305-7.819-.535-8.999 1 .12 1.67 4.265-1.14 4 2.999-2.355.022-2.943-1.722-5.999-1 2.489 1.387 2.376 2.834 2.999 4-2.406 2.441-5.313.58-6.999 2 1.907 1.425 4.342 2.324 6.999 2.999-1.513 3.024-4.389-.829-6.999 0 1.371 3.369 6.807 2.605-1 3 .29 1.167 5.673 2.888 1 2.999.91 2.736 3.504-1.774 4.999 1-.625 2.136-6.154.938-6.998 0 .442.891.877 1.789 1.999 2-2.161 1.443-7.288-2.672-11.998-2 2.445 2.555 5.787 4.212 9.999 5 3.016 3.043-4.919-2.141-3 2-2.225-1.442-4.822-2.512-8.999-2 1.183 1.817 5.214.786 6.999 2-.649 1.017-2.299 1.033-2 2.999-3.311-.646-4.353-2.019-2.999 2-1.289-1.378-4.343-.989-6.999-1 1.505 2.827 5.182 3.483 8.998 3.999.716 2.716-4.715-.715-3.999 2 .796-3.043-3.778-.139-8.999-1 8.709 3.68 3.002 1.782 6.999 5-2.21 1.819-6.448-2.84-9.999-3 4.788 1.417 3.018 5.925 7 4-.19.81-1.004.996-1 1.999 7.325 1.663-7.242-1.182-9.999 1 1.907 1.426 4.342 2.324 6.999 3-6.029 1.796 4.073 3.189-4.999 2.999 1.761 1.876 4.177 2.125 1 4 .731-3.186-3.784.697-2-3-.805.529-1.623 1.043-3 1-.181 2.182.818 3.182 3 3 3.176 1.665-4.883.334-4.999 2 .161 1.172 1.822.843 2.999 1-.547 3.118-5.799 1.533-7.999 2.999.202 1.342 4.152 1.862 0 2 1.283 2.156 3.991-1.528 5 1.999-.141 1.65-4.171-1.046-7 0 .437 1.23 1.28 2.054 3 2-1.183 2.693-5.213-.004-6.999 0-.468 2.134 1.429 1.904 2.999 2 2.018 2.916-6.318-1.303-6.998 1 .936.67 5.541.258 6.998 3 2.151 2.132-3.536-2.38-6.998-1 3.953 3.545 1.62 2.878 5.999 5.999-.911 2.116-4.019-1.887-6.999-1 .15 1.85 3.386.613 3.999 2 1.066 1.452-3.915.04-6.999 0 4.213 2.106-1.062 2.743-3 1 2.053 3.279 6.848 3.817 9.999 5.999-2.184 2.367-10.509-5.694-11.998-1 .075 1.932 4.658-1.729 1.999 2 1.163.162 1.779-.221 2-1 .52 1.075 1.324 3.615 5 3.999-3.652 1.289-9.988-3.321-13.999-4.999-.419 2.2-1.28 2.2-3.999 0 2.602 4.036 5.492 2.282 9.998 4.999-1.982 2.059-1.982.941 0 3 1.044 1.502-7.476-3.524-10.998-3.999.534 3.798 3.897 4.768 6.999 5.999-3.245 2.2-8.15-2.481-11.999-3 1.709 3.291 5.49 4.51 8.999 5.999-.614.891-1.208 1.789 0 2-2.008.963-7.696-2.936-10.998-4a45.728 45.728 0 0 0 8.999 9c-6.386-1.489-3.066-2.937-9.999-4 .056.844-.139 5.155 2 5.999 1.89-2.613-2.187.952-5 1-3.46 2.294-.705-3.826-4.999-1 2.088-3.648-4.342.649-5.999-2.999 1.441 3.224 4.896 4.437 7.999 5.999-4.505 2.317-6.964-1.486-11.999-3 1.81 2.524 5.172 3.493 6.999 5.999-.803 2.01-4.115-1.788-5.999-1.999 1.002 2.664 4.036 3.296 5.999 4.999-1.911 2.168-4.431-3.511-7.999-3-2.807 1.371 4.018 4.118 1 6-1.351.225-9.618-6.14-9.999-6-3.105 1.145 5.709 3.575 0 4 .111 2.447 3.307.212 3-1 2.57.097 1.43 3.902 4 4-.309 2.113-3.473-1.051-3-3-4.299 1.382 1.291 4.617 3 5.999-1.053 1.63-4.523-2.742-7-2.999-2.187.676 1.896 3.322 3 3.999-3.61 2.237-6.148-5.153-11.998-3.999 2.136 3.195 4.706 5.958 6.999 8.998 1.433.295-10.521-4.542-8.999-7.999-1.135.19-.555 1.004 0 1-.732 1.78-1.818.145-3 0 2.6 3.399 4.443 7.556 7.999 9.999-4.268.912-7.204-8.11-11.998-9.999-1.419 2.137 5.254 4.707 6.999 6.999-1.002 1.896-4.036-2.551-5.999-2.999.37 3.295 2.336 4.996 3.999 6.999-2.132 2.389-2.846-5.096-6.999-4 2.073-2.058-.003-5.07-2.999-4.999-.689 2.688 2.066 1.933 2.999 3-.873 1.125-3.347-.063 0 1.999-1.286 4.006-2.067-.274-4.999 0 .553 1.78.514 4.152 2 5-1.27 1.846-4.013-3.254-6-4-2.358.275.092 3.725 1 4-1.314 1.247-5.179-3.438-6.999-5-1.929 1.035 2.622 3.965 3.999 5-1.613 3.124-3.166-2.052-4.999-2-.657 3.657 2.164 3.836 2 6.999-2.956-3.886-4.757-2.713-6.999-6.999-1.037.78 2.435 5.507 2.999 7.999-1.136 2.341-3.344-2.561-3.999-3.999-2.545.516-3.878 1.703-4-2-3.124.396 2.052 5.676 2 2.999 1.016 4.574-4.323-2.252-6.999-2.999-2.03-.307.205 2.889 1 2.999-1.27 1.847-4.013-3.253-5.999-3.999-.811.189-.997 1.003-2 1 2.307 1.527 5.172 3.841 4.999 6.999-2.15 1.174-6.071-8.856-9.999-5.999 1.167.623 2.614.51 4 2.999-1.317.868-4.58-2.084-1 2-3.479 2.761-4.062-5.898-6.999-6.999-2.953.869 2.32 1.497 1 3.999-1.313-.353-1.573-1.76-3-1.999 1.388 1.278.612 4.721 2 5.999-1.245 2.139-2.476-4.112-2.999-5.999-2.803.981 1.451 2.667-1 3.999-1.974-2.359-3.463-5.202-5-7.999-1.997 2.064.682 7.935 2 9.999-4.404 1.38-4.114-10.532-8.999-11.999 2.346 5.395 1.145 7.989 2 13.998-2.868-3.464-3.907-8.758-5.999-12.998-2.432.818 1.981 5.271-1 6.999-1.974-2.359-2.355-6.31-3-9.998-2.709 1.815.554 6.032 1 7.999-1.344 2.549-1.906-3.999-3-5-1.23 1.117-2.053.871-1.999-1-1.486.848-1.447 3.22-2 5-3.057-1.943-4.024-5.975-3.999-10.999-2.295 2.038-.362 8.304-1 11.999-3.147-2.853-2.999-9-4-13.999-2.779 2.202.141 7.126 0 9.999-.944-1.671-3.696-3.502-3 1-1.488.873-1.489-10.52-.999-11.998-2.761 3.35-3.057 6.154-2 11.998-1.017-.649-1.034-2.299-3-2v-10.998c-1.017.649-1.034 2.299-2.999 1.999v9.999c-1.385.339-2.212-8.42-2-12.998-2.035.964-2.16 3.84-2 6.999-1.44-.227-.349-2.984-2-3-2.129 11.478-2.092 2.349-1.999-5.999-1.23.436-2.054 1.279-2 3-2.726-.92 1.396-3.126 0-6-1.725 2.275-2.139 5.86-2 9.999-1.546 3.057-.88-4.337-1-5.999-1.342.658-1.862 2.137-1.999 3.999-1.783-3.216-.928-9.07-2-12.998-2.979.021-1.282 4.717-3 5.999-1.312 7.64-1.027-7.783-1-10.998-2.307 2.359-1.671 7.661-3.999 9.998-3.007-4.894 1.867-11.713-1-16.998-1.974 2.36-2.355 6.311-3 9.999-2.054-2.023-1.995.407-2.999 2-1.588-3.29 3.797-8.174 2-14.998-1.551 2.449-1.492 6.508-2 9.999-4.085.301.168-1.385-1-4-.934.732-1.515 1.818-2 3-1.978 2.305 1.063-4.854 0-7.999-2.564.102-1.606 3.726-3 4.999-2.227-1.021 1.308-4.597 0-7.999-1.746 2.474-2.206 2.013-1.999-1.999-2.155.845-1.613 4.386-3 5.999-2.108-2.034 2.81-7.466 3-12.999-2.725.941-2.288 5.045-3 7.999-.961-4.8-4.667-1.027-5.999 2-2.427-1.851-.092-7.356 1-8.999-.014-2.35-2.729.365-2 2-2.526-2.593 2.689-5.926 2-9.999-3.424 2.576-3.338 8.661-6 11.999-.523-5.35 1.186-10.869 3-16.998-3.993 2.736-1.666 6.775-5.999 9.999-.778-3.142 2.115-11.194 2.999-15.998-2.442 1.557-2.579 5.419-4.999 6.999-2.526-3.133 2.215-6.007 2-11.999-1.698 3.968-3.788 7.544-5.999 10.999-2.362-5.056 3.479-10.499 2.999-16.998-3.416 3.916-5.011 9.654-8.999 12.998 2.25-7.252 3.343-7.874 5-15.998-3.107 2.56-3.027 8.305-7.999 8.999.534-3.321 5.095-6.174 2-9.998-.808.859-2.739.594-3 1.999-1.777-3.15 1.977-9.324 2-13.998-3.46-.127-1.46 5.206-4 5.999-1.341-2.575.217-4.874 1-8.999-.677-1.312-3.322 1.105-3.999 1-1.51-1.802 1.042-5.886-1-9.998-1.598 1.402-2.555 3.444-3 5.999-3.055-6.079 3.654-10.992 3-17.998-1.891 4.109-4.545 7.454-6.999 10.999-2.527-2.594 2.689-5.926 1.999-9.999-2.058.274-.941 3.725-2.999 3.999-1.999 1.632 3.015-5.143 1.999-8.998-1.485.847-1.446 3.219-1.999 4.999-2.388-1.812-.563-7.829 0-9.999-1.468 1.866-4.013 2.654-4 6-2.312-3.031 2.071-7.89 2-11.999-2.269 1.731-1.933 6.066-4.999 6.999-2.886-3.276 2.633-6.655 1.999-10.998-1.73 2.672-2.929.167-3.999 3.999-2.285-.329 4.519-7.871 3.999-12.998-1.666 1.333-1.553 4.446-2.999 5.999-1.874 2.513-.109-1.663 0-3-2.211.789-2.502 3.497-4 5-1.844-2.562 4.027-5.934 4-9.999-.973.027-.776 1.224-1 2-.973-.028-.776-1.224-1-2-1.763 2.062-3.096.875-4 2-2.577-.241 1.374-1.721 0-4-2.6.4-3.015 2.984-5.999 3 1.887-3.446 2.957-7.709 5-10.999-2.923.744-1.936 5.397-6 5 2.501-3.362-.306-8.155 3-8.999-1.034-.363-3.965-.041-4.999 1.999-1.307-1.049 2.812-5.128 2.999-7.998-.353-1.401-1.76-.087-1.999 1-1.762-1.506 2.76-5.182 1.999-8.999-1.498 2.834-3.243 5.422-6.999 5.999 1.158-3.508 3.936-5.397 4-9.999-2.805.862-2.127 5.206-4 6.999-1.453-.443.102-.878 0-2 .307-2.03-2.889.205-2.999 1-1.304-3.335 6.477-6.163 4.999-12.998-3.013 3.32-4.783 7.883-7.999 10.999-.555-2.659 1.811-5.935 3-10.999-11.047 14.301-.299-1.57 2.999-10.998-3.49 2.842-4.296 8.369-6.999 11.998-2.715-.91 1.02-3.504 1-5-.354-1.4-1.761-.086-2 1-1.688-2.405 4.184-5.776 4-9.998-1.99 4.009-5.461 6.538-7.999 9.998-1.236-3.268 2.785-9.854 4.999-12.998-2.731-1.686-5.326 5.306-6.999 7.999-1.583-2.957 3.049-8.253 4-11.998-.097-1.902-3.903.619-4 1.999-2.715-.909 1.02-3.503 1-4.999-3.228-.895-1.405 3.261-3 3.999-2.4-2.144 2.436-5.506 1-9.998-.891.614-1.788 1.208-2 0-1.598 1.402-2.555 3.444-3 5.999-1.274-.227-1.311-2.984 0-3-.19-1.135-1.003-.555-1 0-.59-2.622 4.324-8.316 4.999-12.998-2.44 2.226-4.807 4.525-4.999 8.999-.807-.693-2.739-1.556-3 0-2.93-3.322 3.477-5.812 3-9.999-1.757.91-1.829 3.504-3 4.999-1.351-2.78.365-7.526 2-11.998-3.013 2.32-3.647 7.019-5 10.999-2.354 3.229 1.255-6.629-2-2-1.442-1.833 2.328-6.961 2-10.999-1.597 1.402-2.554 3.445-3 6-2.908-.87-1.125-1.497-1-4-2.21.789-2.502 3.497-4 4.999-1.318-.424 1.245-5.343 2-6.999-.677-2.188-3.323 1.895-4 3 .58-4.425 1.804-10.511 1-13.998-.934.566-1.515 2.779-2 1-1.484.436.395 1.279 0 2.999-2.134.468-1.904-1.429-2-2.999-3.048 1.222 1.462 3.815-1 4.999 3.593 2.173-4.013-2.425 0-8.999-3.152 1.515-3.331 6.002-5 8.999-2.776-1.635 2.521-3.908 0-6.999-1.484.437.395 1.279 0 3-3.938-3.334 2.326-7.604 1-11.999-1.894 3.285-2.373 5.753-5 9.999-1.494-2.868 1.54-9.763 2-13.998-2.889 1.443-1.563 7.102-6 6.999-.282-1.787.945-2.052 1-1 3.038-1.232-1.084-3.438 0-5.999-1.167 1.499-2.888 2.444-3 4.999-2.537-1.331 1.466-4.438 1-6.999-1.821 1.192-3.393 1.624-3.999 5.999-2.077-.257-.273-4.393-2-4.999-3.125-.307 2.542 2.889-1 2.999-1.979.778 1.104-6.581 2-10.999-2.718 2.282-4.814 5.186-6.999 8-1.217.848 1.564-3.692 1-8-1.71-.043-2.589.744-3 2-2.876-2.672 3.841-5.646 3-11.998-2.928 5.593-4.84 3.5-6.999 11.998-.212 2.531-1.409-6.236 1-5.999.127-1.793-1.224-2.109-1-4-2.646 3.02-5.191 6.141-6.999 9.999-1.436.521 1.315-11.074 2-14.998-1.597 1.402-2.554 3.445-3 5.999-1.78-.733-.144-1.818 0-3-1.611-.428-3.355 3.728-1 4-.899 1.13-2.414-.24-3 3-1.224-.019.254-5.65 1-6.999-2.095-1.232-1.429.745-1-4-1.714 1.286-3.932 2.067-4 5-1.907-3.281 3.074-8.228 2-13.999-3.223 1.11-3.163 5.502-3 9.999-1.939-.156-1.491-7.714-3-5-2.419-.908 2.267-2.951 1-5.999-4.503 2.922-6.143 19.899-5 3.999-1.171.162-.843 1.823-1 3-2.709-1.816.554-6.033 1-7.999-3.249 2.083-4.043 6.621-5.999 9.999-1.567 1.264 1.824-8.476 2-11.999-2.44 2.226-4.807 4.525-4.999 8.999-2.236-.431-.405-4.928-1-6.999-2.544.122-3.877 1.455-4 4-2.269-1.064-.381-6.286-1-8.999-1.547 1.453-2.099 3.9-2 6.999-1.983 3.788.624-5.146-3-3 .042-3.291 1.688-4.978 1-8.999-1.55 2.45-1.491 6.508-2 9.999-1.983 3.788.624-5.147-3-3 1.97-2.089.764-6.639 0-8.999-2.293 3.373-5.157 6.175-5 11.999-.412-6.89-3.412-10.288-1-18.998-2.986 3.68-2.961 10.371-4 15.998-.815-.403-2.658-8.405-2-10.999-1.115.979-3.435 5.77-1 7-.888 1.14-2.792-.618-2 3.999-2.991-2.734 1.335-6.607 0-10.999-2.076.257-.273 4.393-2 5-2.236-.431-.405-4.928-1-6.999-3.561 6.204-.246-1.91-2-4-5.266 10.903-6.459 17.415-3-1-.529-.804-1.043-1.623-1-3-1.547 1.453-2.1 3.9-2 6.999-8.354 12.755-5.17 4.138-2-2 .022-2.356-1.722-2.944-1-6-2.571 1.762-3.542 5.124-3 9.999-2.029-1.777-.659-4.068-3-1-2.022 1.353 3.695-5.185 2-9.999-.908.275-3.358 3.725-1 4-.013 2.806-2.728-2.381-2 2-1.918-1.331 1.148-4.438-1-6.999-1.357.309-.83 2.503-1 4-4.297-5.514-5.217-5.129-6.999-10.999-1.958 1.979-.603 21.487-2 8.999-.319-2.348-1.58-3.753-1-6.999-.529-.804-1.043-1.623-1-3-.598 1.149-1.937 5.658 0 7.999-.931.72-4.019.03-3 4.999-2.446 2.054.446-9.734-2-10.999-2.208.125-.424 4.242-1 6-1.77 2.026-.739-7.203-3-7.999-1.705 1.377.12 3.67 0 7.999-1.108 4.075-1.275-7.544-2-1-2.079-2.921-.372-9.627-2-12.999-2.062 2.03.339 17.787-2 14.998-1.621-6.042-2.864-5.016-3-12.998-2.236.431-.405 4.928-1 6.999-1.434-1.182-1.895-5.304-2 0-3.016-2.234-1.753-6.979-4-11.999-2.464 3.727.484 6.649-1 10.999-3.414-.919-3.099-5.567-4-8.999-1.547 1.453-2.099 3.9-2 7-1.163-.163-1.779.221-2 1-2.208-.125-.425-4.241-1-5.999-2.043 4.142-2.982-1.469-3-5-1.561 3.253-2.714 20.426-4 8.999-.215-1.909 1.971-9.436 1-14.998-2.513 2.486.64 10.638-3 11.999-2.847-3.152-3.621-8.377-5-12.999-2.294 2.038-.362 8.304-1 11.999-1.578 4.268-.693-10.002-2-3-2.551-1.115.401-7.734-2-8.999-3.771 1.561-.797 9.868-6 9.999 1.119-3.214 2.737-5.929 3-9.999-3.183 1.15-1.651 7.014-5.999 6.999-.282-1.787.945-2.052 1-1 3.32-.325-2.633-4.362 1-5-3.422-4.077-3.801-.699-3-8.999-1.483.85-2.149 2.516-2 5-1.183-.293-3.777-4.027-5-1-1.115-.914-.314-1.859-1-5-1.342.202-1.862 4.153-2 0-1.086.248-.678 1.988-2 2-2.204 2.399 1.283-2.173 1-4-2.637-.304-2.579 2.087-3 4-1.598-1.402-2.555-3.445-3-6-2.735.91 1.774 3.504-1 5-2.86-.14-1.829-4.17-2-6.999-2.565.102-1.607 3.726-3 5-1.817-1.183-.786-5.213-2-7-1.637 1.653-4.182-.892-4-4-2.801.532-1.849 4.817-3 7-2.208-.125-.424-4.242-1-6-.934.733-1.515 1.818-2 3-2.254 2.348.828-2.628 0-4.999-2.62 3.699-1.91-.229-1-3-1.747.92-2.207 3.125-2 5.999 1.216 3.066-2.471-3.445-1-6.999-2.208.125-.424 4.241-1 5.999-3.315-.351-1.569-5.763-2-8.999-1.483.85-2.15 2.517-2 5-1.388 3.193-.612-3.911-2-4-2.306-.306-1.111 2.889-3 3-2.391 2.436 3.083-5.43 0-7-2.652-.318.935 5.602-3 4 1.529-3.18.351-4.399 0-7.999-2.083 1.583-.337 6.996-2 8.999-2.361-2.766.898-5.354-1-8.999-2.446.887-1.083 5.583-4.999 5 .798-1.869 1.67-3.662 2-6-5.849.875 1.475 6.379-3 0-6.601-9.41-45.859-13.051-55.993-21.997-2.418 1.248-3.234 4.098-4 6.999-6.984-3.014-5.672-14.325-12.998-16.998-4.451.548-5.12 4.878-7 7.999-4.557-1.776-4.072-8.593-3.999-14.999-1.652-2.681-5.074-3.591-7-5.999-2.434 2.232-2.804 6.528-4 9.999-3.315-.351-1.569-5.764-2-8.999-1.793-.127-2.109 1.224-4 1-1.726-3.397-.696-7.329 0-10.999-.354-1.313-1.76-1.572-2-3-1.351.982-1.998 2.668-3 4-2.555-.112-1.984-3.348-2-5.999-3.942-.275-3.058 4.274-6.999 4 .239-6.849 5.93-14.009 1-19.998-4.205-.205-4.199 3.799-7.999 4 .677-12.207 4.337-14.537 3-25.997-.42-2.246-5.305-.027-5.999-2v-3c6.6-5.233 10.385-15.22 6.999-24.997 2.888-2.779 7.649-3.683 9.999-6.999 3.105-3.09-3.385-1.689-2-6 2.478-1.521 7.752-.247 9.999-2 1.304-3.362 1.369-7.963 4-9.999C36.707 19.155 47.953 6.77 51.994 0h.999zm433.946 503.938c.567-2.815 4.007-7.926 1-10.999 1.182 4.564-3.22 8.711-1 10.999zm62.993-195.977c-1.873-.221-6.627-2.578-7.999 0 1.039 1.056 7.139 2.065 7.999 0zm51.993 79.99c.005-4.371-.702-13.25-2-12.998.194 4.806.478 9.521 2 12.998zm-15.998-2.999c3.019 1.542 2.63-5.174 1-5 .296 2.63-3.88.787-3 4 1.72.395 2.563-1.484 3 0-.611.057-1.185.15-1 1zm159.979 45.994c2.286.447 7.049 3.526 8.999 1-3.883-.112-6.532-5.083-8.999-1z" fill-rule="evenodd"/></svg>