<svg xmlns="http://www.w3.org/2000/svg" width="206.074" height="1010.746" viewBox="0 0 193.19467 947.57458"><g stroke="#000"><path d="M57.8 501.682c-14.33-5.5-19.893-7.164-33.054-21.361-9.783-14.26-22.656-22.79-22.72-39.58-.42-19.168-3.176-32.667-.06-57.534 3.115-24.867 8.861-28.801 11.076-43.678 3.9-17.09 2.076-36.22 13.32-50.928 8.693-11.173 10.565-34.587 23.261-41.681 10.252-6.366 25.025-3.74 35.637-9.396 12.03-6.167 20.953-1.09 39.318-2.422 25.87-1.876 24.252 10.873 24.252 10.873l-24.024 23.386c-2.708 5.374-2.584 20.514 9.667 25.02 12.779 1.888 21.888-25.655 21.888-25.655s10.66 4.545 21.622 17.803c4.084 4.94 14.992 37.722 3.513 60.9-27.437 52.2-18.494 49.042-25.878 88.397-4.04 30.42 3.65 45.464-18.64 60.663-22.29 15.198-45.188 17.191-79.178 5.193z" fill-rule="evenodd"/><path d="M111.768 302.764c40.714-30.714 28.718-58.791 58.274-43.19 37.413 19.75-8.75 181.52-9.465 209.376-3.045 276.175-67.102 378.72-85.237 473.555M104.812 319.793S74.9 283.475 84.264 225.396c9.363-58.079 6.346-78.267 77.683-140.173" fill="none" stroke-width="10" stroke-linecap="round"/></g></svg>