<svg xmlns="http://www.w3.org/2000/svg" xmlns:dc="http://dublincore.org/documents/dcmi-terms/" height="348.748" version="1.2" viewBox="0 0 539.908 348.748" width="539.908" overflow="inherit"><metadata><dc:description>Silhouette of Andrena nigrae, processed by PhyloPic Tools (https://github.com/eweitz/phylopic-tools)</dc:description><dc:source>http://phylopic.org/image/780c8d22-14eb-40ff-a2f7-16b722482f85</dc:source><dc:creator>Sam Droege (photography) and T. Michael Keesey (vectorization)</dc:creator><dc:license>http://creativecommons.org/licenses/by/3.0/</dc:license></metadata><path d="M437.708.749c.599 1.501 2.32 1.879 3.3 3 .23 3.452 2.785 5.56 3.9 7.2 1.031.131 1.682-.119 2.4-.3 2.662 1.192 5.562 1.187 9 1.2.066.233.008.592.299.6 8.997-.05 17.902 4.336 27.9 4.2 1.462 1.033 3.906 1.312 6.6 1.8 6.49 2.295 14.116 5.42 21.601 9 8.281 3.96 17.884 5.756 23.101 12.6.68.894 2.371 3.46 2.399 3.9.003.049-.716.338-.601.6.426.956 1.561 1.258 1.801 2.4.268 1.275.04 3.304 0 4.5 1.598 2.514-1.168 5.307-.9 8.4-2.281 3.318-4.098 7.102-6.3 10.5-6.755 4.773-13.479 8.541-20.7 12.3-3.941-.987-6.423-1.285-8.4 1.8-1.377-.277-1.449.75-2.699.6.603.612-.133.588-.301 1.2-2.654-.078-5.805 2.998-9.299 2.1-.855 1.141-3.736-.44-5.101.3-.679-1.24-2.739-.442-3.899-.6-2.574-.351-4.743-1.974-7.201-2.4-1.76-.305-3.639.285-5.399 0-8.726-1.412-17.565-2.906-27.601-3.3-.514-.287-.604-.996-1.199-1.2-1.474 1.559-4.764.652-7.2.6-18.575-3.79-43.3-3.884-63.899-4.2 1.652.047 3.32.079 3.899 1.2.447-1.067 1.298.28 3-.3.514.286.604.996 1.2 1.2 7.791 2.036 15.314 1.19 22.5 4.5.566.067.662-.338 1.199-.3 8.863 4.457 19.952 6.743 30.601 9 2.467 2.434 8.933 3.466 12.601 5.7 0-.301-.244-.357-.301-.6 8.77 2.48 17.29 6.643 25.5 8.7.014.413-.141.659-.3.9 3.685 1.796 6.948 2.591 11.7 3.6 4.841 5.579 14.21 6.982 19.199 10.8 2.999-.58 5.397 2.659 8.4 4.2 2.047-.94 4.164 3.057 6.9 1.2-.081 2.024 4.408.805 2.4 2.1 2.729-.016 3.569 2.192 5.1 2.7 1.44.479 3.296-.412 4.8 1.2.35-.975.784.009 1.2-.9.225.566.895.208.3.9.429-.072.506-.494.899-.6 1.047 2.812 4.957 3.658 7.201 3.6-.917.485.996 1.443 0 2.1 2.215.178 2.782 3.758 1.5 6-2.754.52-3.776-.15-6.9 0-4.203-3.252-9.188-3.069-14.4-4.5-1.658-1.845-5.051-1.416-8.1-1.2-.578.422-1.207.793-2.1.9-3.627-.357-6.324-2.053-8.4-2.4-3.51-.586-7.72.618-11.4.3-7.248-.625-13.34-5.636-20.1-7.5-.072.528-.517.684-1.2.6-.514-.286-.604-.996-1.2-1.2-.053 1.924-.211-.298-1.199 0 .555 1.004-.078.262-.601 0 .096.704.929.671 1.2 1.2-1.372 1.279-2.146-.673-3.6 0-.205-.828-.055-.685-.9-1.2.731.289.993-1.348.6-1.2-.405.294-.6.8-.9 1.2-1.5-.066-2.209-1.104-1.799-1.5-.338.063-.468.333-.601.6.749 1.766 1.224 1.962 2.101 3.6 1.305.265 1.66-.259 2.1.6-.862-.062-1.524.076-1.801.6 1.488.52 3.479-.332 4.801-.9-.675 1.641-.938 1.848-1.2 3.9 1.749.853 4.007-.124 5.399-.6-.703 1.483-2.246 1.262-2.399 2.7 2.353.152 3.288-1.111 5.101-1.5-.383 1.818-3.117 1.283-3.9 2.7 1.018.798 2.934.854 2.699 2.1.814.186 2.381-.381 2.701.3-.523.277-1.611-.01-1.5.9 1.486.638 2.335.894 3.899.9.46 1.459-.87 1.129-.899 2.1 2.675-.392 5.465-.517 7.5.6-2.199.202-5.392-.591-6.301.9.222.478 1.469-.069 1.2.9-.527.172-1.763-.363-1.8.3 1.104.495 2.777.422 3.6 1.2-.814.186-2.381-.381-2.699.3 3.013 2.287 7.571 3.028 10.5 5.4-1.676-.424-3.283-.918-5.101-1.2.001.301-.243.357-.3.6.539.795 1.242 3.347-.301 3.6 3.244 2.204 1.345 7.698 6.9 7.5.229 1.128-1.593.207-1.199 1.5 1.688.211 2.152 1.647 3 2.7h6c-.367 1.833-4.168.233-4.5 2.1.896-.005 3.645-.053 4.5.9-1.573.227-3.885-.285-4.201 1.2 2.039.417 3.99.252 5.4 2.1 1.34-.652 2.631.298 4.5 0-.1 1.5-3.324-.125-3.9.899.465 1.235 3.077.323 3.301 1.8-2.127.173-4.803-1.434-6.301 0 .171 2.134 3.436 2.419 5.101 3.9-.783.249-1.646-.907-2.101 0 .367.034.711.09.601.6-.862-.062-1.524.076-1.8.601 1.094 1.006 3.03 1.169 5.1 1.2.152 1.252-1.571.629-1.5 1.8.242 1.058 1.831.769 1.801 2.1-.746-.045-1.246.155-1.5.601 1.616 4.676 6.342 7.254 9.6 11.1-2.113-.087-2.814-1.585-4.5-2.1.066.656 1.354 1.614.6 2.1-1.111-.688-1.219-2.381-2.699-2.7-1.771 1.516-2.764-2.247-4.201-.6.135-.154.999.406.9.3.386.417 4.588 6.029 6.301 7.5-3.266 1.523-5.395-.536-7.5-1.8-.152 2.231 1.682 4.052 3.299 5.399-.443.057-.274.726-.299 1.2-1.161.161-1.465-.535-2.701-.3-.031 3.123.738 3.91 2.101 6.6.092.938-.866-.762-.899.301.76.886 2.215 1.833 1.5 3.3-.803.093-.227-1.791-1.5-.9.485.914 1.4 1.399 1.799 2.4-.67 6.229 4.426 12.127 7.5 18.3-3.271-2.582-5.424-5.547-7.799-8.4-.648 1.02.702 2.174.6 3.601-1.128.027-.697-1.503-1.5-1.8-.271 1.17-1.104-.994-1.2 0-.778 1.295-.242 5.289 0 6.6-.646-.755-1.127-1.673-1.8-2.4.028.998-1.127 1.562 0 2.4-2.02 2.057-1.407 6.205 1.5 6.9.145.944-.921.679-.6 1.8.796.304 1.706.493 1.799 1.5-3.143-.681-6.762-4.926-9.6-3-.158 1.259.524 1.676.6 2.7-2.994-.35-3.708-1.162-6-1.2-.398 1.824-1.746 1.236-2.699 2.1-.318 1.288.09 2.658.3 4.2-1.554-.146-1.493-1.906-2.399-2.7-.429.117-.507.36-.9 0 .676.993-1.212 1.411-2.1 2.4-1.162 2.374-2.876 4.563-4.201 6.899.928 1.006-1.465 3.818.601 4.2-.054 1.002-1.001 1.685 0 2.101-.747.046-.929-.472-1.5-.601.089.789-1.164.236-.899 1.2-.936-.003-1.955-.709-2.701 0-.505-1.395-1.938-1.86-2.699-3 .361 1.324-2.132 3.159-3.301 2.4.445.939.012 1.227-.6 1.8 1.701.28-.871 1.533.6 1.8-.968.732-2.254 1.146-2.699 2.4-.947-1.055-2.587-.072-4.2.3-.31-.913-2.2-2-2.7-.9-.58-2.093-3.413-2.585-2.4-3.899-.168-.624-.467-.636-.899-.301.292-1.262-.155-2.593 0-4.5-1.913-.438-1.586-2.323-1.5-3.899-1.386-.115-.808-2.192-2.101-2.4.422-.078.343-.657.601-.899-.384.016-.415.385-.899.3.645-1.763-1.369-2.075-1.801-3.601 1.451.131.295-.633 1.2-1.199-.354-.146-.681-.32-.899-.601.428-.116.506-.359.899 0-.156-.443-.444-.756-.601-1.2 1.397-1.294.432-3.386-.299-4.8.578-1.822.975-5.041 1.799-6.3-.623-1.012-1.91-1.079-2.1-1.8.072-.562.494.17.6-.3-1.714-2.699-2.229-.857-3.899-1.801-.071.429-.494.507-.601.9-.016 1.35 1.812 3.257.601 3.9-1.845-2.955-3.462-6.139-5.7-8.7.039.538-.298.702-.9.6-.622-3.077-2.979-4.419-3.899-7.2-.227 1.273-.7 2.3-.601 3.9-1.699-1.451.376-5.053-1.199-6.3.066 1.067-.203 1.798-.9 2.1-.093-1.093.048-1.952.301-2.7-1.26.06-.583-1.817-1.801-1.8-.717 1.894 1.344 4.13.9 6.3-2.611-1.588-1.602-6.799-4.801-7.8.066 1.146 1.137 2.85.601 3.601-.96-.84-.302-3.299-2.101-3.301.305 3.396 2.352 5.049 2.4 8.7-1.691-.908-1.613-3.587-3-4.8-.365.435-1.198.402-1.199 1.2 1.373 4.625 1.402 7.931 4.5 12-1.866-.234-1.865-2.335-3.601-2.7 1.347 2.152 3.011 3.989 4.2 6.3-2.641-.858-2.67-4.33-5.7-4.8-.134 2.233 1.7 2.499 1.5 4.8-1.434-.066-1.286-1.713-2.399-2.1.325 1.226-.321 1.479-.9 1.8-.006.449 1.114 1.228.3 1.5-.917-.883-.943-2.656-2.399-3 .424 3.332 2.899 5.15 3.899 7.8 1.104 2.926.286 6.523 2.7 9.3-.678.965.264 1.989-.301 2.7.559.042 1.003.197 1.201.601-.414.013-.659-.142-.9-.301.236.393 1.174 1.589.6 1.801-.261-.439-.449-.951-1.199-.9-.462 1.079.175 1.918-1.201 2.4.08-1.302-1.164-.127-1.199.3 1.288.508.09 4.245 3 4.5.273 1.303.395 2.756.6 3.899-.142-.878.808-.452.9-.3-.334 1.5-.922 2.315-.301 3.9-.021-.421.067-1.147.301-.601-.699 1.159-.679 1.382-1.2 2.4 1.594-.365-.685 2.564 1.2 2.4-.051.85-.551 1.25-.6 2.1 1.033-.09 2.928 2.447 1.5 1.2.602 1.589 1.578 1.794.899 3.6.979-.664-.074.526 1.2.601-.164 2.193-.322 4.312 1.199 4.8.33 3.879 3.043 8.743 2.701 13.5 1.491 3.991 4.052 6.064 4.5 11.1-.367.034-.711.09-.601.601-1.298-.003-1.185-1.415-2.101-1.801-.013.414.142.659.301.9-3.352.197-1.797 3.225-1.801 4.5 0 .328-.663.363-.6.6.049.184 1.031-.17.9.301-.09.323-2.338.979-1.2 2.1-1.154.105-1.419 1.1-1.5 1.5-.761-.238-1.138-.862-2.101-.9.658 1.479-.602.076-.6 1.801-1.992.308-3.519 1.081-3.6 3.3-2.516-.91-5.281-.945-6.301-2.7.439-.561 1.646-.354 1.5-1.5-1.234-1.034-2.016-.299-3.299.3-.689-.61-1.963-.637-2.101-1.8 1.032-.211 1.977-.111 2.7-1.2-.027-.473-.766-.234-.6-.899.383-.41 1.416-.41 1.799 0 .517-1.066 1.127-1.785.9-2.4-.627.173-.855.744-1.8.6.603-1.502 3.272-2.521 3.3-3.6-2.632.771-5.529 2.868-7.8 3 2.831-1.695 6.636-3.588 7.8-6 3.307-.976.854-5.743 3-7.2-1.917-1.958-.455-4.689-.9-7.2-.223-1.263-1.074-2.071-1.799-3.6-1.947-4.104-4.844-6.037-9.301-5.4.061-3.479-.738-9.054-.6-12.6-.384.017-.416.385-.9.3.712-1.207-.478-.736-.6-1.8 1.146-2.309 2.112-6.446-.9-6.6-1.268 1.796-2.572 3.896-2.4 6.3-.32-.28-.093-1.106-.899-.9-.063.363-.333.185-.601 0-.507 1.062.307 1.708-.299 2.4-.64-1.361-.506-3.494-1.801-4.2-1.27.395-.139 1.322-1.199 1.8-.035-.765-.057-1.543-.9-1.5-1.298 2.37.381 3.993.3 6.3-.13 3.684-2.346 7.796-2.101 11.101-1.279-.671-.023 3.768-.899 4.5-.47-.431-.236-1.563-1.2-1.5-1.354 5.056-1.733 9.751-1.5 14.7-.088-.267-.812-1.313-.9-.601.509.938 1.148 2.769.601 4.5 2.522 3.373.514 8.665 3.3 12.9.138 3.31-.535 8.325 0 12.899.436 3.732 2.758 6.732 1.2 9.601-1.099-1.102-.598-3.803-2.7-3.9-.415 1.686-1.071 3.129-1.199 5.101-1.826-2.907-1.266-2.934-2.701-5.4-1.48.828-.771 1.273-2.1 1.2-.361 1.876-2.135 4.837-4.8 5.399-.143-1.941 1.658-1.941 1.5-3.899-.413.013-.659-.142-.899-.3-4.164 2.538-8.689-3.274-11.701-4.5 1.004-3.727-1.133-3.479-1.799-6 1.109.189 1.785.813 3.299.6.359-.982.208-1.417.9-2.4-.904-.595-2.246-.753-2.699-1.8 3.293-1.273 7.698 1.327 12 1.2 3.354-3.853 3.784-10.249-.601-14.7-1.244-.344-1.169.632-2.101.601-.273-2.056-3.679-1.115-3.899-3.301-.177-1.741.901-1.962 1.5-2.699 1.988-2.447 1.748-7.237.3-9.601.429-2.886 3.631-9.482 4.2-12.899.146-.875.448-4.82-1.2-3.301.508-1.402.255-2.271-.6-3 3.339-6.185 4.707-14.357 3.3-21.3-.413-.013-.659.142-.899.3 1.156-2.936-.51-5.602-.301-8.1-.745-.391-1.245.88-1.5 0 3.02-3.979-1.735-7.096-1.8-10.2-1.515.255-1.06-1.458-1.8-1.2.742-1.044-.533-2.669.9-3.3-.791.077-.985.618-.9-.6.116-.379 1.413.199 1.8-.601-.362-.062-.185-.332 0-.6-.345.093-1.981.588-1.2 0 .807.207.58-.62.9-.9-.646-.672-1.749.417-2.4 0 .805-.924-.879-3.502-.6-3.899.177 1.362.902-1.08 0-1.2 1.997.185.869-1.787 1.8-2.1-.632-.568-1.243-1.157-2.101-1.5.197-1.103.584-2.018.601-3.301-.572.537-1.138-.625-1.8-.899.645-1.233 1.09-2.064.9-3-.406.095-.574.427-1.201.3-.092-1.093.049-1.952.301-2.7-.878-.122-.974-1.026-1.5-1.5 1.744-1.069-1.356-3.166 0-4.8-2.242-.658-.947-4.853-4.2-4.5-1.034 3.865-3.228 6.572-3.899 10.8-4.82-3.997 3.037-14.564-.9-15.899.268-1.146-.49-1.915 0-2.4-.395-.306-1.106-.294-1.5-.6-.582-3.812-2.221-5.899-4.801-8.7-.045 1.646-.031 3.232.301 4.5-1.937-.863-.911-4.689-2.1-6.3-.091.814-1.321.185-.9 2.1-.979-.311-.637-.76-1.5 0 .126-1.326-.297-2.103-.9-2.7-.035.766-.057 1.544-.9 1.5v-3.3c-1.789 1.104-.817-2.111-2.1-2.4-.5.801.08 2.681-1.199 2.7-.008-.706.516-.883.299-1.8-.383.017-.415.385-.899.3-.062-1.737-.358-3.241-1.5-3.899.353.44-.071 1.924-.899 2.1-.031-1.369-.188-2.613-.9-3.3-.803.129-1.007.239-1.801.899-.172-.527.363-1.762-.299-1.8-.459.643-1.221.98-1.201 2.101-.566.067-.661-.338-1.199-.301.143-1.36 0-2.222-1.2-1.5-.183-.717.376-2.176-.3-2.399-.814.117-1.121.124-1.801.899-.047-.353.052-.852-.299-.899-.619.081-.072 1.328-.9 1.2.131-1.062.461-1.708-.301-2.4-.078.467-.658.208-.899 0-.499.501.19 2.19-.899 2.1-.193-1.207.389-3.189-.301-3.899-.618.082-.071 1.328-.9 1.2-.902-1.497-.727-4.073-1.5-5.7-1.054 1.546-1.708 3.491-3 4.8-.193-1.307.392-3.391-.299-4.2-.042 1.246-.198.061-.601 0-.32.28-.093 1.106-.899.9.102-2.37-1.601-1.181-2.101-2.7-.704.096-.671.929-1.2 1.2-.128-1.134.853-2.866-1.199-3.9.181.639 1.262 1.91.6 2.4-.471-.43-.236-1.564-1.2-1.5.35 1.19-.31 2.278.3 3.6-1.042-.558-.926-2.274-1.8-3 .39 1.439-.017 1.25-.601 1.5-.197 1.097.649 1.151.601 2.1-1.312-.289-1.624-1.576-3.3-1.5-.004.397-.526.274-.6.6.474 2.977-3.201 4.398-2.701 8.4 3.731.746 2.064 1.534 3.301 4.199-.404.781-2.095-.189-2.1.301.187 1.686.49 4.068 1.799 3.6-1.118 1.12-.059 3.702-.6 5.4.428.117.506.359.9 0 .363 1.608.072 1.913-.6 3 .783.416.85 1.55 1.199 2.399-.49.955.596 5.261 1.801 5.7-.006.896-.781 1.021-.9 1.8 1.445.746.879 2.094 2.1 2.4-.762.562-.138.638-.9 1.2-.114 1.114 1.217.784.9 2.1-.767.232-1.379-1.174-1.8-.3.338 1.27 2.636 2.154 1.8 3.6-1.041-.359-1.074-1.726-2.699-1.5.283.917 1.459.94 1.5 2.101-.784.248-1.646-.907-2.101 0 1.296 1.127.659 1.392 2.399 2.1-1.041 3.186-.008 7.006 1.801 9.6-.855.638-1.331-1.111-3-.6-.002 4.317 2.287 8.9 3.9 12.6-.449.052-1.107-.106-1.201.301-.022 3.709 3.027 5.374 4.801 8.1-.744.39-1.456-.669-1.5 0 1.188 1.93 1.141 6.834 3.3 8.7-.673 4.188 1.438 7.673 2.101 11.1.201 1.045-.215 1.981 0 3 .455 2.166 2.955 4.317 1.5 6.601-.841-.46-.381-2.22-1.801-2.101.352.948-.187 1.317.301 2.4-.68.734-1.32.105-1.801.6-.162 1.162.765 1.235.9 2.101-.711.589-.611 1.989-.6 3.3-2.105-1.396-.276-6.724-3.301-7.2-1.756 1.744-.486 5.498-2.4 7.5-.896-.573-.005-1.073-.899-1.5 1.45-.084.047-1.341-.3-1.5 1.414-.342 2.671-3.51 1.199-4.8-1.309.661-1.6 4.142-.899 4.2-2.223.042-2.236 2.009-5.101 3 .663-1.738 2.274-2.526 2.4-4.801-2.675-.854-5.231 1.352-6 .301-1.293-.193-.941 1.258-2.1 1.199.379-1.689-1.595-1.203-2.4-.899-1.205-1.462-2.047-1.488-3.9-2.101-.037-2.574-2.242-3.775-3.6-6.3.945.146.68-.921 1.801-.6 2.186 1.996 5.553 2.26 8.1 3 .784-1.156 1.075-.776 1.8-.9-1.505-2.695-5.768-2.633-7.8-4.8 2.541-.225 5.104 1.641 6.3.9-.515-2.724-3.312-1.618-5.101-2.7 1.266-.935 3.746-.654 5.701-.9.351.449.372 1.228.899 1.5.437-.164 1.55.351 1.5-.3-.3-1.9-2.043-2.357-2.7-3.9.954.047 1.32.681 2.4.601.123-.723-.549-.652-.301-1.5.59-.09.596.405.9.6.067-.567-.338-.661-.3-1.2 2.525-.666 3.13 2.237 4.8 2.4-1.826-2.974 1.182-6.156-2.699-7.2.25-1.75-.576-2.425-1.801-2.7-.633.568-.674 1.728-1.5 2.101.236-1.307 1.223-2.923-.3-3.601-.197.403-.642.56-1.2.601.508-1.443-.127-2.382-.6-3.601.905-1.355.713-6.639-1.5-5.699.438-.921.492-2.233-.6-2.4.798-2.009-.016-9.625-2.701-9.9-.248-.848.424-.776.301-1.5-.611-.523-.588.224-1.2-.3.668-3.285.646-9.948-2.101-11.7v-1.8c-1.736-1.073-1.775-4.585-2.399-6.6-.56-.041-1.003-.197-1.2-.601.402-.197.559-.641.6-1.199-.863-.141-1.611-1.3-.899-2.101h-.899c.45-2.6-.26-2.349-1.201-4.5-.208-.477.357-1.013.301-1.2-.54-1.781-1.838-2.148-2.1-2.399-1.02-.979-.163-1.78-1.801-1.5 1.903-.349-.244-3.325-.9-1.8-.581-1.306 1.309-1.661.601-2.101-.348.857-.348-.484 0-.6-.624.176-.97.63-1.5.899 1.252-2.922-1.118-4.956.601-5.699-.652.043-.836-1.188 0-1.801-1.189-.411-1.506-1.694-1.5-3.3h-.9c.924-2.424-2.607-1.957-3-2.399.393 1.396.371 2.445.9 4.8.76-.317 1.709.632.899.899-.063-.336-.333-.467-.601-.6-.132 1.45-.956.355.301 1.5-1.715.451-.496 2.056-2.4 2.4.674.535-.396 1.479-.6 2.699 1.454 1.466.517 4.261 2.699 5.4-.61.389-1.807.193-1.799 1.2 1.254 1.846 3.076 3.122 4.199 5.1-1.293-.207-1.842-1.157-3-1.5 1.066 1.834 2.768 3.032 3.9 4.8-2.327-.594-4.162-2.447-6.301-2.699.208 1.192 1.32 1.48 1.801 2.399.219.819-.597.604-.6 1.2 1.788 2.27 4.244 6.876 3.899 9.3.528.271.929.671 1.2 1.2-1.434-.503-3.182-3.431-5.1-1.5 3.112 4.353 3.268 9.857 5.699 14.7-1.471-.229-1.41-1.989-2.699-2.4.156 3.859 2.828 7.759 4.799 10.8-1.129-.069-1.27-1.129-2.399-1.199-.027.818.499.604 0 1.199 4.493 4.703 4.325 10.356 6.3 15.601-1.774 3.478 1.187 6.31 2.7 9.6.533.561.763-.243 1.8 0 .244 1.245-1.85.151-2.1.9-1.137-.801-1.434-5.179-3.301-3.3 1.039-.159 1.529 1.833 1.5 2.399-.856-1.069-2.066-3.505-3.299-2.399-.035 3.834 1.783 5.815 1.799 9.6-2.355-1.044-1.078-5.722-3-7.2-2.156 2.696-1.696 6.154-3.899 8.7-1.495-.465-2.544.626-3.601.6.147-2.387 2.664-2.449 1.5-4.199-5.117 3.953-15.282 2.571-16.8-3.601 1.492-.191 1.688.912 3 .9-.067-.567.339-.662.3-1.2 2.06.364 3.393 2.638 6 1.5.621-1.763.859-1.896 1.801-2.7-3.869-.591-6.984-.356-10.5-.3 2.573-1.966 9.159-.243 11.4-1.8-.421-.078-.342-.658-.6-.9.448-.451 1.71-.089 1.5-1.2-3.197.397-3.763-1.837-4.8-3.6 2.592-.288 4.271 1.924 6.6.9-.627-2.176-4.002-3.195-3.9-5.101 2.836 3.533 7.867.039 4.5-3.6.445-1.158.016-3.193-.899-4.2-.522.022-.933-.066-1.2-.3-.449.45-.537 1.263-1.2 1.5.56-1.725.317-2.651.601-3.601-.002.167.242.341.3 0-1.497-.33-2.752 1.927-4.2 1.801.407-.693.862-1.338.9-2.4-.809.516-1.693-.968-2.101-1.8 1.263.107 1.456-4.497.601-2.101.519-2.486.961-4.485-.301-5.1-.299-1.025.936-1.709-.6-1.5.509-1.262.32-1.438.6-2.7-.336-.03-.467.437-.6 0 .352-2.817.777-8.921-1.8-9.899.186-5.714-2.274-10.475-4.5-14.101-.001.167.243.341.3 0-.398-.734-1.116.33-1.2-.3.106-1.31-.642-1.322-.3-2.4-.354.044-.68.535-.9 0 .414-.908-.081-2.814-.9-1.5 1.387-3.34-2.272-3.924-1.2-7.199-2.631-2.528-3.574-9.405-6.9-9.301-.066-.566.339-.661.301-1.199-2.007-.209-1.795-3.338-3.301-2.4-.693-2.307-2.307-3.693-4.199-4.8-1.14 1.296-3.605-.713-5.7-.6-1.199.065-1.726-.807-2.4-.9-2.009-.277-5.8.328-4.2 3.3-1.381-.381-.479 1.521-1.199 1.8-.786-1.114-1.803-1.997-3.301-2.4-.804 2.274 1.652 4.965 1.2 7.5-1.396-3.004-3.376-5.424-5.1-8.1-1.341.869-1.979.673-3 1.5.428.4.794 1.333.3 1.799-1.81.01-2.206-1.394-3.9-1.5-.28 2.752.996 4.262.301 6.6-.527.173-1.763-.362-1.801.3.207 1.207-.287 1.713-.3 2.7-1.702-.893-1.365-3.692-3.3-3.601-1.631 1.856 1.055 5.769-.3 7.2-1.294-.605-1.491-2.309-2.4-3.3-.519.895-1.854-.43-2.1.3.439 2.361 1.964 3.636 2.7 5.7-4.616-1.984-4.393-8.808-8.101-11.7-.434 3.031-.505 4.677-.3 8.101-1.215-.415-.949.65-1.8.6-.9-2.531-1.601-4.054-2.4-5.4.194 1.47.053 1.41 0 3-1.234-.336-1.681-2.132-2.1-2.399-.066.233-.251.349-.601.3.227 1.519 1.483 3.349 0 4.2-.899-2.2-1.379-4.82-2.699-6.601-.707-.006-.884.518-1.801.301-.429-.771-.499-1.9-1.199-2.4.308 3.838 2.132 4.303 2.1 8.4-3.112-2.387-2.721-6.702-5.4-9 .249.213-.269.688-.6.6-1.157-.31-1.551-2.307-2.7-2.4 1.246 3.354 2.226 6.975 2.7 11.101-1.939-1.492-1.487-5.766-3.6-7.8.461 1.43.461 4.271 0 5.699-1.316.316-.985-1.014-2.101-.899-.595.767.312 1.379-.3 1.8-.767-.634-.836-1.964-2.1-2.1-1.119-.119-.126 1.874-.9 2.1-.334-1.766-.871-3.328-1.8-4.5-.014 1.813.505 3.095 1.5 3.9a3.42 3.42 0 0 0 0 2.699c-2.185-1.615-3.031-4.568-4.5-6.899-1.312 1.374-2.294-1.329-3.3-2.101.327 2.991 1.812 5.68 1.8 8.101-1.805-.896-1.583-3.817-3-5.101-.192 1.208.39 3.19-.3 3.9-.385-1.116-.108-2.892-1.2-3.3.409.404.571 2.095-.3 2.1-.438-.455.182-1.944-.9-2.399-.604.896-.17 2.83-.3 4.199-1.209.209-.508-1.492-1.2-1.8-.675 1.64-.233 2.552-.3 4.8-1.096-.004-1.348-.853-2.101-1.199-.416.383-.184 1.416-.6 1.8-.975-.983-1.258.1-2.1-.3.424-2.357.779-4.041-.301-6-.635.865-1.603 1.396-2.699 1.8a28.288 28.288 0 0 0-.9-.9c-1.043.549-1.997.916-3.9 1.2.084-.684-.072-1.128-.6-1.2-.716.484.243 2.644-.9 2.7-.165-.534-.153-1.246-.6-1.5-1.084 1.646-.408 2.77-.3 4.8-1.247-.152-1.515-1.285-2.101-2.1-.379.82-.475 1.925-.899 2.7-.233-1.292-1.096-.792-1.5 0 .772-3.94-1.219-8.404-1.5-11.101-.561-.239-1.099-.501-1.8-.6.015.915-.273 1.527-.9 1.8v-2.4c-.383.017-.416.385-.9.301-.49-1.71-.551-3.849-1.5-5.1-1.443.254-1.262 2.181-.3 3-1.397-.263.413.778-.6.9-1.092-.708-1.296-2.305-1.5-3.9-1.93-.271-2.005-2.395-3.3-3.3-3.72 1.195-5.375 5.321-6.301 8.4-1.98-.381-1.084 2.115-1.8 3-.662-.538-.732-1.668-1.2-2.4-.336.063-.467.333-.6.6.403.598.572 1.429.9 2.101-.77.03-.482 1.118-.9 1.5 1.123 1.339 2.065 2.398 1.2 4.2 1.791 3.508 4.907 6.688 6 10.199-1.401 1.183 1.802 3.991 1.2 5.4.723-.123.651.548 1.5.3-.296.853-1.084 1.781.6 1.8-.311.789-.476 1.958.9 1.801-.263 1.856-1.017 3.009 0 3.899-.6.88-.949 2.784 0 3.601 3.2-1.637 1.181-9.969 5.699-9.301-.412-.385-.521-1.793.301-1.8 1.485.814 1.642 2.958 2.699 4.2.597-.004.382-.818 1.2-.6-2.227 5.373-5.263 9.937-9 13.8 2.19 1.109 5.075 1.524 6.601 3.3-2.186-.215-3.394-1.406-5.7-1.5.735 1.29-1.53.136-2.4.3.09.59-.405.595-.6.9-.189 1.009.985 2.187.3 2.7-.616-.685-.736-1.864-1.5-2.4-1.662.002-2.397.629-4.2 0-.888 1.012-1.419 2.381-2.399 3.3.407-1.702 1.2-2.831 1.199-4.2-1.875.307-.906-.493-1.8-.899-1.622 1.288-3.17.461-5.399.3.904-1.567 4.387-.871 4.8-2.1.001-2.889-.489-4.131-2.101-7.2-1.136-2.164-2.574-3.097-3.3-4.5-1.117-2.164-.825-4.458-3-5.4-.065.234-.251.349-.6.3-.297-.902-1.062-1.338-.9-2.699-1.322-.726-2.749-2.797-3.6-4.801-.364-.857.115-1.864-.3-2.699-.91-1.83-3.997-2.466-3.301-4.801-1.095 1.001-.437-1.462 0-.3-.514-1.369-2.053-2.573-3-3.899-2.965.731-4.667-.52-9-.601-.178 2.278.154 4.046 2.7 3.601.284 1.084-1.182.418-1.8.6-.265.735-.371 1.629-1.2 1.8 2.775.606 1.681 3.235 2.7 4.5-.238-.296-1.41-1.143-1.5-.6.443 1.914.909 2.146 3 2.1 1.35-1.731 3.314-4.173 6.3-3.3-1.39 2.631-6.81 2.993-4.5 7.5-2.525.597-3.788-2.323-6.6-1.2-.04 1.61.195 2.48 1.2 3.601-.449.051-1.107-.107-1.2.3 1.099 1.331 1.561 2.881 1.5 3.899-1.961.161-2.061-1.539-3.9-1.5.017 1.969-2.389.224-3.3.301-.58-1.076.115-1.1.3-2.101-.627-.173-.856-.743-1.8-.6-.851 1.385.154 2.183 0 3.899-1.514.959-1.817 3.44-1.2 5.7-.751-.052-.728.672-1.2.9.431 2.393 1.867 3.909 1.801 6 1.99 1.467 6.447 3.475 4.8 6.6-3.073-1.058-3.968-6.709-8.101-4.8.186-1.749 1.111-7.642-2.1-7.2.547-1.897 2.556-4.549.6-6.3.492-.509 1.256-.745 1.2-1.8-.383.017-.415.385-.899.3-.059-2.53 3.797-8.196-.601-8.1-.318-1.119 1.125-.476.9-1.5-.327-.673-1.473-.527-1.8-1.2.457-.543 2.057.057 1.8-1.2-1.146-.854-.835-3.165-3-3 .023 1.433.645 3.905.899 6-1.774-2.825-1.556-7.644-4.8-9-.332 1.009-.792 2.494 0 3-.534.18-1.245-.879-1.5 0 .354.146.681.32.9.6-.562-.016-.636.231-.3.601-1.397.264.202-.989-.601-.9-.742.258.089 2.089-.6 2.4.448.051 1.107-.107 1.2.3-2.264.033-1.221 4.422-3.301 6 .022-1.62.136-1.59.301-2.7-.684.412-1.128-.773-1.2 0 .92.729-.345.188-.3.601-.16.432 1.169.731.3.899-.017-.315-.385-.235-.3.3-1.118.019-1.897-.302-2.7-.6.071.428.494.506.6.9-1.014-.479-1.279 1.273-1.8.3.986.219.459-.597 0-.601-1.609 1.028-4.373-.355-6 1.5-.586-2.113-2.082-3.316-3.9-4.199-2.957-7.943-7.094-14.706-11.1-21.601 1.215 6.935 6.042 14.461 6 21.601-.021 3.614 2.121 7.344 1.2 10.8 1.269 2.488 1.887 7.035 3 8.7-1.044 5.26 2.77 8.745 3.6 12.899.135.674-.411 1.706-.3 2.4.45 2.814 1.808 5.47 3.3 8.1.067.567-.338.662-.3 1.2.915.4 1.433 1.524.6 2.1 1.046.256 1.122 1.479 1.5 2.4-.897 3.387 2.598 7.85 3.601 10.5.174 4.815 3.415 8.381 3.6 12.3.095 1.991-1.267 3.47-.3 5.4-.786 1.714-.653 4.347-2.1 5.399-5.697-.402-8.437-3.764-12-6.3-3.992-9.447-9.584-18.076-12-28.2-1.021.022-1.118-.882-1.5-1.5-.825-11.932-4.723-21.724-6.9-33 .413-.3-.128-.494.6-.899-2.546-2.663-1.563-9.125-1.5-13.2-1.541-1.424-.676-5.943-2.699-6 .317-1.582.869-2.93.6-5.1-1.313-2.737-2.644-6.879-3.3-10.2-.443-2.243-1.569-4.428-2.4-7.2-.754-2.517-.64-5.405-1.2-7.5-.329-1.233-1.421-2.354-1.8-3.6-1.38-4.539-1.374-9.905-2.1-15.3h-1.5c-.558-.53.13-.876.3-1.5-1.455-.515-.837-1.292-1.2-2.7-2.767-.288-.562-4.259-2.399-5.4-.488.116-2.508-.369-3.601-.6.003-.797-.113-1.713.3-2.1h-1.199c-.232-2.833 2.421-2.779 3.6-4.2-1.738-.429-3.348.839-4.5 0 .692-1.308 3.492-.508 3.9-2.1-1.328-.381-4.318-.331-6.301-.9.399-.301 1.117-.284 1.2-.9-.667-.233-1.626-.173-1.8-.9 1.903-1.252 5.832.666 6.9-1.8-1.769-2.625-6.092-3.184-8.101-6.3 1.212.198 3.686.702 4.8 0-.071-.428-.493-.506-.6-.9.751-.383.939.152 1.2-.3-.117-.814-.124-1.121-.9-1.8 1.438.065 6.392-.364 4.2-1.8.849-.051 2.059.258 2.1-.6-.566-.533-2.098-.102-1.8-1.5-.135-.835 1.636.235 1.5-.6-1.34-.618-2.803-.927-3.899-2.4.385-.516 1.794-.006 1.8-.9-.628-.172-.856-.744-1.8-.6 1.127-1.384-.594-1.512-.9-3-2.056-.673-3.994.061-5.1-1.8.912-.723 3.121.131 3.6-.3-.795-1.104-2.366-1.434-3.9-1.8.459-1.658-1.331-1.068-1.199-2.4 1.074.025 1.733.467 2.699.6-.004-.596-.818-.381-.6-1.2 1.315-.388 2.81.766 3-.3-.624.474-1.345-.877-2.4-.9-.09-.59.405-.595.601-.9-.715-.885-2.734-.466-3.601-1.2.036-1.364.72-2.081 1.5-2.7-.088-.612-.812-.588-.899-1.2 1.296-.296 3.381.468 3.3-1.8-.209-.791-1.365-.634-1.5-1.5 1.265.052.206-.671 0-.9.785-.715 1.893-1.107 2.4-2.1-5.118-3.682-5.521-12.08-7.801-18.6-.513.487-1.092.908-2.1.9-.297-.803-.618-1.582-.6-2.7-7.562-2.779-9.438-17.984-3-23.1 8.329-2.241 14.362 3.763 15.6 9.6h.9c.268 2.698 3.895 3.073 3 6 2.644 3.893 4.118 8.953 6.899 13.8.561.533-.243.762 0 1.8.528.772 1.305 1.295 1.8 2.1-.221.479-1.468-.068-1.199.9 1.076.795 2.23 2.022 1.199 3.3 3.011 2.715-.251 8.013 4.801 9.6.663-.432-.378-.732.3-.9 1.839.782 2.95 1.555 4.2 3.6.663-.592-.588-2.184.3-3-.185-.416-1.155-.045-1.2-.6.184-.017.355-.045.3-.3.063-.337.333-.467.601-.6.047.353-.052.852.3.9.421-.878.807-1.793.6-3.3 1.16.334 1.184.912 2.101.9-.39-.399-.396-1.116.3-1.2.047.353-.052.852.3.9v-1.5c-.516-.118-.769.445-.9 0 .201-1.259 1.34-5.472 3.301-4.5.381-.939-.298-1.226.6-1.8-.733-.267-1.301-.699-2.4-.6-.275-1.276 1.98-.02 1.801-1.2-.525-.675-.713-1.687-1.2-2.4.818-.218.604.596 1.2.6-.257-.956.261-1.139.6-1.5-.203-.697-.997-.803-1.2-1.5.618-.982 2.997-.203 3.9-.9-2.119-2.584-7.661.034-8.7-1.5 1.841-1.06 5.438-.363 6.9-1.8-.589-1.317-3.901-1.492-3-3.3 3.095 2.587 8.563 2.909 11.399 1.5-.616-.751-2.346-.72-3.3-.3-.732-1.724-5.473-.284-6.6-2.4.717-.183 2.176.376 2.399-.3-.026-.473-.765-.235-.6-.9 1.911-.403 3.687.902 5.1 0-2.341-2.559-7.128-2.671-11.1-3.6.504-1.733 4.75.144 5.7-.9-1.016-.084-1.84-.36-1.801-1.5 3.589.154 7.842 3.273 10.801 1.2-.694-.321-2.746-.834-2.101-1.5-.049.492 1.85.492 1.8 0-.402-1.297-2.57-.83-2.699-2.4 2.89.313 4.721 3.276 6.6 3.6.224-.923-.823-.576-.6-1.5.709.208 2.684.693 3.3 0-1.678-1.522-2.996-3.404-5.4-4.2-.542-2.058-3.423-1.777-3.6-4.2 2.573.396 4.088.906 6.899 1.5-.112-.805-2.049-1.328-1.199-2.1.636 1.036 2.327 1.405 3 .9.197-1.097-.649-1.151-.601-2.1 3.784 1.48 8.111 5.402 12.3 4.5.535 1.272 3.107 1.401 3 2.4 1.579-1.744-1.116-3.964-2.1-5.1 3.646.454 4.421 3.779 8.1 4.2-.51-1.119.178-.475.301-1.5 3.054 1.273 4.151 3.869 8.1 2.1 1.604 2.476 2.797 2.664 4.8 4.5-.272.083-1.007 1.118-.3 1.2 1.168-.29 1.614-1.064 3.9-.6 1.003 2.434.557 3.309.6 6.6 1.195.005.865 1.535 2.4 1.2-.221-1.52.928-1.673 1.8-2.1-.211-1.589-1.589-2.011-1.8-3.6 1.852-.052 1.682 1.918 3.3 2.1-.363-.937-.728-1.873-1.2-2.7.725-.178.912-1.049 1.2-1.5.728.582 1.831.967 1.8 1.5.271-.822 1.104.585 1.2-.6-.284-.615-.969-.831-1.5-1.2.354-.146.68-.32.899-.6-.895-.005-1.02-.78-1.8-.9.532-2.18-.17-7.524.601-9.3.65.45.698 1.501 1.8 1.5 1.549-1.511.301-.151 1.8.3.43-.896-.245-1.02.3-1.8 1.071-.251 1.646 1.527 2.101.9-.549-1.452-1.437-2.564-1.5-4.5.559-.287 1.002.898 1.199 0-1.126-.673-.424-2.916 0-4.8 1.898.002 1.061 2.74 3 2.7 1.688-1.18-.76-4.68 1.2-5.4 1.023.877.677 3.124 2.101 3.6.511-.188.493-.906.899-1.2 1.247.453-.118 3.518 1.2 3.9.154-1.97-.278-3.508 0-4.8 1.146.245 1.161-.639 1.5-1.2-.729-.219.458-2.939.3-5.1 1.118-.317.969.632 1.5.9.068-.531-.302-1.502.601-1.2.034.765.057 1.543.899 1.5.577-1.737.379-2.972.601-5.4 1.688 1.192.831 5.567 3 5.4-.191-.687-.596-1.81 0-2.4 1.56-.052 1.136 3.453 2.399 2.7-1.058-.05-.13-4.521 1.5-2.7.375-4.219-1.367-7.086-.6-10.8 2.126 1.118 1.267 5.277 2.399 6.6 1.711-.167 1.637.566 3.301.9.413-.387.297-1.303.3-2.1.387-.413 1.303-.297 2.1-.3.443 2.943.136 4.231 0 7.8.406-.094.573-.427 1.2-.3.087 1.613.314 3.085.9 4.2 3.23-2.589 2.012-12.625 5.399-16.8-.118 2.587-.292 4.83.3 6 1.779-1.847 2.848 1.644 4.801.6 1.111-2.721-.489-6.3 1.5-8.1.365 3.434-.754 8.354.6 10.8 3.973-.841.712-6.441 2.7-9.9.369 2.895.177 4.52.6 7.2.847-.054.374-1.426 1.5-1.2-.182.918-.637 1.563-.899 2.4.528.271.495 1.104 1.199 1.2.085-1.016.478-1.723.301-3 .387-.413 1.303-.297 2.1-.3-.12 4.34.494 7.465 2.1 11.7 3.136-3.258 2.093-12.769 5.4-16.8-.305 2.441-.306 4.823.6 6.3 1.073-2.526 2.274 1.143 4.5.3.854-2.895-.092-5.734 1.2-8.1.961 4.271-.834 9.831 1.2 12.9.388-.725 1.649-.528 2.4-.6.174 1.597-.146 2.075.899 3 .354-.09.753-1.588 1.2-.6-.166-.001-.341.243 0 .3.181-1.04-.924-1.087 0-2.7 1.424-.531 1.576.187 3 .3.016.835-1.39 1.783-.6 2.4-.017-.561.23-.635.6-.3.135-1.565 1.104-2.297 1.8-3.3.807.994-.23 3.831 1.5 3.9-.041-.599.723-2.786 1.5-1.5.618-1.648 1.107-2.262.3-3.9.83.038 1.03.573.601-.3 1.001-.506 1.024.19 2.1.3.346-.354.34-1.061.3-1.8 1.429 1.372 2.133 3.467 4.2 4.2 1.507-.539 1.804-1.969 2.4-2.7 1.229.172 1.715 3.477.6 3.3.017.384.385.416.3.9.551.016 1.017-1.537 1.5-.6-1.3.12.215.984 0 1.2 1.408-1.443-1.796-3.288 1.2-3.9.571.129.754.646 1.5.6.339 1.062-1.261 1.707-.3 2.4.683-1.318 1.08-2.92 2.4-3.6.405 1.483-.173 3.44 1.5 4.2.214-1.042-.068-1.665.899-2.4.034.366.09.71.601.6-.045-1.885 1.249-2.349.3-3.9a3.423 3.423 0 0 1 2.7 0v-1.8c1.878 1.695 2.666 4.788 6 4.2.207-1.287.113-1.982.3-2.7.893.107 1.522.478 2.1.9v2.4c1.294.207 1.784 1.216 3.601.9.342-.94 1.413-3.046 2.1-1.8.621-1.103-.08-1.66-.3-2.7 1.645-.625 6.033-.945 5.7.9-.178-.808-.599 1.532.3 1.8 2.033-1.796 2.071 1.089 3.6.9-.706 1.254-.182 1.944 0 2.7.32-.28.094-1.107.9-.9.713 1.525-1.187 4.276-.3 5.1 1.045-.354.275-2.525 2.1-2.1-1.63 2.591-3.831 11.491.6 9.3v.9c1.998-.708 3.771.689 5.4-.6.99.598-.743 1.282 0 1.5.516-.643 1.444-.666 1.8-.6-.582.74 2.463 2.494 1.8.9.332.768 1.611.589 2.7.6-.833-1.345 3.146-.096 1.8-1.2.848-.812.827.936 1.801.9.118-.516-.445-.769 0-.9.632 1.116 1.402-.143 2.1-.6.078.422.658.342.9.6.215-1.006 2.418-.906 3.6-1.5-.041 1.757 1.324.223 3 .6.735-.399-.541-.905.3-1.2 1.27 1.405 3.388-.67 4.2-.6-.267.088-1.313.812-.6.9 1.82.093 1.627-1.543 3-.9-.619-.264-1.137.989-.601.9-.045-.945 1.674-.127 1.2-1.5 1.483.131 1.404.128 2.4-.6.705 1.405 2.916.197 3.3-.6.412.684-.773 1.128 0 1.2 2.196-1.163 5.972-.411 7.8-2.1.098.345 1.309 1.033 1.5.3-.232-.067-.592-.008-.6-.3 1.199-.039 1.233-.229 3 .3.838-1.129 4.912-2.859 6.3-1.8-.314-.149-.497.611-.601.6 1.664.175 2.611-1.075 4.801-1.5 1.708 1.841 5.607-1.667 6.6-.3.943-.55-1.009-1.016 0-1.5 1.31.99.816-.382.9-.6.045.555 1.016.184 1.199.6-.422-.928 1.818-1.349.9-.9-.027.473-.766.235-.6.9 1.241.46 2.622-.551 3.3 0-.252-.191-.939-1.402-.3-1.5.829 1.578 1.494-.177 2.699 1.2-.088-.184-.746-1.155 0-1.2.808 1.384 4.598.631 3.601-.6 4.678 1.265 8.698-1.585 12-.6-.371-.971.971-.229.601-1.2 1.268 1.28 4.127-1.367 4.5 0 .396-.003.273-.526.6-.6.968.568 5.385-.1 7.8-.9.085-.028-.314-.597-.3-.6 3.259-.627 5.502.256 6.3-2.4 2.675 1.024 3.011-1.705 2.7-2.7.123.512.387-.063.9 0 .816 3.381 4.779.575 5.699-.3 4.617.202 6.867-.706 10.2-2.1-.233-.067-.592-.008-.601-.3 1.135-.435.576.824 1.5.6 7.99-4.475 22.064-6.231 30.601-9 .286.559-.898 1.002 0 1.2 5.037-1.707 11.808-.897 17.101-2.7 2.646.88 7.133-1.243 12-.9-.336-.432-.324-.732.299-.9.624.035 2.077.961 2.701 0-.964-.715 1.745 1.355 2.393.59zm-262.8 18.6c-.43.256-.812 2.991.6 2.4.191-.654-.85-.955.3-.9.141-.942-.808-.793-.9-1.5zm-76.5 32.1c.168-.678.468.364.899-.3-.067-.432-.896-.104-.899-.6-.772 1.086-.078 3.268.3 4.2.241-.159.487-.313.899-.3.113-1.512.001-2.801-1.199-3zm8.699 4.5c-1.515 3.23-.471 7.425-.6 11.7 4.677-1.138 5.604-9.514.6-11.7zm-4.5 5.4c-.525.274-1.042.558-.899 1.5 1.18.38.893-.708.899-1.5zm9.901 3c-1.228.072-1.348 1.252-1.5 2.4.349-.049.534.066.6.3.703-.455 1.685-1.696.9-2.7zm204.301 102.299h-.9c-.125 1.025.09 1.709 1.199 1.5.095-.695-.048-1.151-.299-1.5zm-180.301.601c-.876 1.093-.647 1.482-1.2 2.7 2.609.651 4.252-2.66 1.2-2.7zm-32.1 16.199c.597.903 2.957 1.305 3.899.9-1.188-.794-2.685-.819-3.899-.9zm393 17.401c1.083 1.917 2.967 3.033 4.8 4.2.001-1.568-3.026-5.347-4.8-4.2zm-353.1 7.2c-.941 1.658-1.257 3.942-1.5 6.3 1.583-.986 3.285-4.686 1.5-6.3zm355.501.599c-1.062.102-1.547.018-1.801.3-.209 1.124 2.269.732 1.801-.3zm-94.5 54.901c-1.319-1.716-.135 3.721-.601 3.899 3.233-.014.239-4.691 1.5-6 .175-1.175-1.234-.766-1.5-1.5-.592.324-.513 2.489.601 2.101-.563.571-.034.754 0 1.5z" fill-rule="evenodd"/></svg>