<svg xmlns="http://www.w3.org/2000/svg" version="1.2" width="1152.394" height="760.852" viewBox="0 0 1152.394 760.852" overflow="inherit"><path d="M295.394 659.456c-2.375.625.155 6.155-2 7-13.561 8.9-25.354 19.816-48 17-2.975 1.359-1.757 6.91-2 11-17.871 1.655-29.581 8.027-48 11-5.293 3.587-11.865 12.415-20 14-11.736 2.287-24.402-4.815-33-9 1.047-2.828-1.65-6.86 0-7-.557-5.224 8.525-.809 9-5-7.517-9.15-25.461-7.873-24-26 1.34-2.993 4.566-4.101 8-5-2.14-7.354-7.099-9.022-6-16 .93-5.903 10.837-7.705 7-15 7.341-12.596 28.355.504 43-2 9.73-1.663 12.073-9.103 20-15-2.319-4.762-2.668-8.1-3-13-4.17-5.105-9.822-7.195-17-7-4.976-7.357-11.916-12.751-23-14-3.241-7.092-6.195-14.472-17-14-2.69-12.31-18.689-11.311-25-20-2.631 1.035-6.137 1.197-10 1-10.508-5.825-19.963-12.704-32-17 .261-2.928-2.261-3.072-2-6-11.076-6.924-17.113-18.887-29-25-2.406-12.594-14.736-15.264-15-30-22.791-27.001-26.594-78.652-25-122-1.572-11.943-2.477-24.63 1-40 1.106-4.891 4.247-13.058 5-21 1.105-11.67.203-23.011 4-33 1.45-3.815 5.16-7.143 7-11 5.576-11.694 7.953-20.393 18-28h6c1.757-.91 1.829-3.504 3-5 40.739-15.31 110.338-8.416 154 3 2.714.709 5.54.673 7 4 2.089-1.577 6.641-.693 9-2 8.377 5.623 19.361 8.639 27 15 6.24.603 9.176-1.706 14 0 1.378 1.289.99 4.344 1 7 7.691-1.691 7.024 4.976 10 8 3.419-1.812 4.655 1.146 9 1 5.615 11.052 16.936 16.397 20 30 2.754 2.38 4.896.913 8 4 2.647 3.353 1.823 10.177 7 11 3.078 8.589 3.084 20.25 12 23 2.274 5.06 1.584 13.083 10 12 1.637-3.03 1.132-8.201 4-10 7.326-.659 12.684.649 18 2-.371-7.273-10.334-15.775 0-23 12.098-.764 18.412 4.255 26 8 3.564-1.103 2.098-7.236 4-10 17.466-10.66 20.041 14.685 32 19 3.104 22.759 29.286 32.446 21 60 5.352 16.826-3.062 37.468-12 49 4.73 4.603 12.765 5.902 19 9 7.485-6.969 17.42-15.28 31-13 6.444-9.555 9.895-22.105 22-26 .465-5.721-4.037-9.56-3-16 .565-3.513 4.711-5.079 7-10 5.353-11.505 1.473-24.112 12-28-.604-2.395-1.438-4.562-1-8 8.603-8.871 7.447-24.321 15-36 3.272-5.061 10.821-8.4 12-13 1.413-5.516-2.243-11.365-1-17 1.687-7.646 8.422-11.775 9-20 3.341-.659 4.891-3.109 8-4 7.828-17.172 16.78-33.221 31-44-3.572-12.03 5.292-18.768 15-24 10.503-5.661 13.061-16.84 28-14 18.498-9.75 33.026-25.051 57-30 10.943-2.26 22.675-.341 35-2 15.756-2.121 32.399-12.783 48-14 1.737-4.263 2.279-9.721 2-16-15.011-16.301-58.648-13.589-53-44 2.29-2.377 8.276-1.058 11-3 .511-8.031-10.764-9.816-10-19 .894-10.747 15.843-11.789 28-9 1.951-4.331-4.062-8.329-2-16 1.565-3.769 5.834-4.832 8-8 21.942-3.609 21.382 15.284 36 19-2.991-8.464 4.764-14.793 13-14 12.307 1.185 9.986 15.481 17 20 5.242 1.242 2.279-5.721 7-5 3.438-.438 5.605.395 8 1 8.49 13.844 5.708 38.959 13 54 23.015 6.318 34.656 24.011 44 44 23.984 2.016 42.415 9.585 66 12 16.187 11.814 38.843 17.156 53 31 16.757 4.234 25.497 17.751 38 29 11.39 10.246 20.581 18.242 31 31 20.823 25.499 34.959 58.976 49 93 .319 2.319-.161 3.84-1 5 5.876 9.458 9.095 21.571 11 35 8.592 11.074 5.83 33.503 13 46v42c-1.585 2.415-2.427 5.573-4 8 3.071 20.111-5.517 37.121-7 56-13.071 19.229-10.786 45.029-23 67-2.832 5.094-9.46 10.27-12 16-1.995 4.498-3.81 10.449-7 14-6.649 7.4-15.325 12.706-24 19-4.104 2.979-6.872 9.682-13 10-5.338 14.662-21.254 18.746-26 34-15.417 15.014-32.03 24.954-59 29-17.134 2.57-32.474 12.059-50 17-14.626 4.123-33.202 4.219-50 5-28.316 1.317-53.829-6.249-69-21-8.7-8.459-13.999-19.227-11-37 2.342-13.878 9.267-24.986 14-38 2.736-7.522 5.658-15.861 9-23 7.392-15.79 22.735-30.992 32-46 5.971-9.672 10.209-18.867 16-25 8.508-9.012 22.966-13.609 18-31-10.261 7.82-24.556 4.744-24-11 .46-13.012 15.74-22.055 17-38 .549-6.945-1.739-15.58-3-20-3.233-11.338-12.155-16.964-13-31-8.546.121-10.156 7.177-15 11 .704 14.037-.978 24.377-4 40-.964 4.984-4.567 9.185-6 14-2.702 9.082-.645 21.08-9 25 6.459 17.562-2.896 36.976-7 52-1.84 6.734-.943 13.99-3 20-1.393 4.068-5.273 7.043-7 11-.724 1.658.538 4.26 0 6-1.514 4.898-6.459 8.885-8 13-.792 2.116.444 5.084 0 7-1.669 7.206-5.603 16.702-9 21-3.087 3.904-9.975 5.98-13 10-1.843 2.449-.098 7.597-6 6 1.619 5.769-.377 5.76-1 11-8.265 4.735-10.956 15.045-20 19-2.61 8.391-9.672 12.328-13 20-21.85 11.483-29.239 37.428-59 41-6.301 4.033-13.201 7.465-20 11h-8c-11.444 4.89-22.125 10.543-38 11-15.88 11.426-38.687 8.469-65 12-12.008 1.611-23.094 3.141-33 2-7.251-.835-13.729-4.406-21-6-9.195-2.016-18.954-.458-28-2-12.553-2.14-19.977-9.866-35-12-10.688-1.518-16.276-7.052-29-7-10.393-6.94-23.808-10.859-31-21-8.238-1.429-10.648-8.685-19-10-9.293-7.908-19.1-16.107-29-23-10.216-7.111-20.003-15.308-32-20zm665-217c21.611-17.06 41.301-48.924 33-91-1.632-8.271-7.767-16.183-14-22-1.397 6.528 2.388 11.036 2 17-.811 12.465-15.586 18.859-15 33-3.965 3.035-5.417 8.583-10 11-2.802.532-5.198 1.468-8 2 5.068 15.001 6.558 32.818 7 50h5z" fill-rule="evenodd"/></svg>