<svg xmlns="http://www.w3.org/2000/svg" xmlns:dc="http://dublincore.org/documents/dcmi-terms/" height="1253.763" viewBox="0 0 1567.6524 1175.4031" width="1672.163"><metadata><dc:description>Silhouette of Anisolambda, processed by PhyloPic Tools (https://github.com/eweitz/phylopic-tools)</dc:description><dc:source>http://phylopic.org/image/b953583b-d927-4ffb-928e-d09af6776c51</dc:source><dc:creator>Zimices</dc:creator><dc:license>http://creativecommons.org/licenses/by-nc/3.0/</dc:license></metadata><path d="M1155.03 1173.939c.016-1.136.51-4.131 1.096-6.656.68-2.924.598-5.06-.225-5.883-1.633-1.633-4.589-21.017-4.624-30.33-.02-4.91.504-7.258 1.721-7.725 1.984-.76 3.325-12.43 1.9-16.524-.504-1.447-.175-3.884.76-5.625.906-1.69 1.34-4.618.964-6.506-.402-2.02.024-4.287 1.033-5.503 1.838-2.214 2.5-10.438.84-10.438-2.116 0-.86-3.22 1.715-4.391 4.62-2.104 5.65-5.065 3.202-9.21-2.8-4.74-2.928-12.65-.203-12.65 1.459 0 1.735-.718 1.082-2.812-.483-1.546-1.343-3.113-1.91-3.48-.569-.368-.825-5.993-.57-12.5.56-14.285-.856-21.207-4.336-21.207-1.547 0-2.712-1.133-3.212-3.125-.431-1.719-1.278-3.125-1.882-3.125-1.72 0-4.76-8.319-4.042-11.065.44-1.68-.221-2.935-2.066-3.923-4.975-2.662-7.959-6.657-8.344-11.17-.586-6.876-.767-7.592-1.911-7.592-.586 0-.713-1.406-.281-3.125.593-2.363.294-3.125-1.227-3.125-1.105 0-2.01-.775-2.01-1.722s-.844-2.422-1.875-3.278c-1.328-1.102-1.875-4.02-1.875-10.001 0-8.185-.115-8.493-3.709-9.982-2.04-.845-4.046-2.6-4.459-3.902-.413-1.3-1.466-2.365-2.34-2.365-.875 0-2.25-1.266-3.055-2.813-.805-1.546-2.577-4.5-3.937-6.562-4.045-6.132-6.806-12.751-6.39-15.32.139-.863-1.212-2.927-3.002-4.586-2.818-2.612-3.046-3.353-1.695-5.517 1.257-2.012 1.242-2.885-.079-4.476-.902-1.087-2.448-1.976-3.436-1.976-.987 0-1.455-.551-1.039-1.224.416-.674.074-2.5-.76-4.058-.834-1.56-1.648-4.505-1.809-6.547-.16-2.043-.91-3.92-1.666-4.171-.755-.252-1.374-1.878-1.374-3.613 0-2.29-.513-2.957-1.875-2.435-1.031.396-1.875.134-1.875-.58 0-1.71-2.543-4.167-5.453-5.27-1.81-.685-2.011-1.264-.906-2.596 1.096-1.32.958-1.892-.597-2.49-1.11-.425-2.531-.458-3.157-.071-.626.386-1.137-.174-1.137-1.246s-.492-1.949-1.093-1.949c-.6 0-.721-1.81-.269-4.023.73-3.572.223-4.614-4.533-9.302-2.945-2.904-5.355-5.893-5.355-6.642 0-.749-.84-1.684-1.868-2.078-1.028-.394-1.596-1.157-1.264-1.694.332-.538-.227-1.668-1.243-2.511-1.017-.843-1.537-2.036-1.157-2.65.38-.615-.19-1.455-1.264-1.868-1.075-.412-1.954-1.593-1.954-2.625 0-1.123-.726-1.596-1.812-1.18-1.154.444-1.58.095-1.175-.961.39-1.016-.602-1.968-2.564-2.46-1.76-.442-3.2-1.355-3.2-2.03 0-.674-1.029-1.226-2.287-1.226-1.968 0-2.254-.959-2.047-6.875.203-5.811-.1-6.875-1.952-6.875-1.318 0-2.517-1.295-3.007-3.247-.668-2.659-1.348-3.113-3.755-2.509-1.792.45-3.172.131-3.532-.815-.796-2.094 1.18-7.179 2.79-7.179 2.814 0 1.076-3.955-2.246-5.113-2.794-.974-3.973-2.602-5.612-7.748-1.14-3.583-4.19-9.276-6.775-12.652-11.026-14.395-20.286-17.603-28.143-9.749-4.655 4.653-4.224.247-5.476 55.887-.467 20.759-1.229 33.113-2.11 34.198-1.031 1.27-.898 2.056.532 3.125 2.724 2.035 6.51 14.27 6.252 20.208-.157 3.63.53 5.833 2.47 7.914 2.162 2.322 2.535 3.823 1.914 7.706-.44 2.75-.233 5.156.482 5.597.689.426 1.253 1.664 1.253 2.75 0 1.087.91 2.642 2.022 3.456 2.445 1.787 1.496 7.83-1.797 11.44-2.754 3.019-2.686 4.945.252 7.093 2.435 1.781 7.02 12.358 7.022 16.2 0 1.243.946 2.196 2.188 2.207 1.7.015 1.81.258.496 1.091-1.266.802-1.36 1.69-.377 3.529.724 1.351 1 3.663.614 5.137-.539 2.062.043 2.962 2.53 3.907 2.026.77 3.52 2.526 4.008 4.71.429 1.915 1.85 5.866 3.16 8.78 1.31 2.915 2.382 6.15 2.382 7.188 0 1.04.703 1.898 1.562 1.908 1.046.013.943.429-.312 1.26-1.603 1.06-1.472 1.555.907 3.418 1.829 1.431 3.63 5.393 5.252 11.553 4.452 16.9 7.686 27.842 8.899 30.108.764 1.428.743 3.41-.058 5.517-1.303 3.427.168 8.125 2.544 8.125 1.82 0 1.446 5.35-.576 8.237-1.16 1.657-1.385 3.17-.644 4.34.626.99 1.146 3.064 1.156 4.61.01 1.547.76 2.813 1.663 2.813 2.434 0 6.013 8.094 4.325 9.781-.738.739-1.51 3.787-1.717 6.775-.353 5.131-.1 5.602 4.562 8.483 2.715 1.678 4.937 3.48 4.937 4.006 0 .525.718.955 1.597.955.878 0 2.607 1.18 3.842 2.622 1.384 1.616 3.168 2.38 4.653 1.992 1.324-.347 2.408-.12 2.408.503s1.727 1.133 3.839 1.133c4.185 0 7.41 2.423 7.41 5.567 0 1.207 1.45 2.285 3.67 2.73 2.02.403 3.97 1.514 4.336 2.468.367.954 1.762 1.735 3.101 1.735 1.34 0 2.65.643 2.912 1.43.352 1.055 1.152 1.067 3.065.043 3.32-1.777 4.43-.649 2.53 2.575-1.165 1.979-1.149 2.652.075 3.094.859.312 1.562 1.926 1.562 3.587 0 1.662.64 3.021 1.42 3.021 1.834 0 .397 11.377-1.592 12.606-.771.477-1.165 2.486-.874 4.464l.527 3.596-13.178-.02c-14.621-.024-20.257 1.909-28.545 9.787-3.253 3.092-4.341 3.55-5.186 2.183-.601-.973-1.968-1.386-3.12-.944-1.128.433-3.064.154-4.302-.619-1.348-.842-4.088-1.062-6.826-.548-4.21.79-4.574 1.2-4.574 5.144 0 6.697-4.012 8.1-23.145 8.1-9.157 0-16.856.582-18.36 1.387-2.844 1.522-9.472 2.308-11.932 1.414-.86-.312-1.563-1.893-1.563-3.512 0-7.665-5.332-17.273-15.211-27.406-5.408-5.548-10.992-12.43-12.41-15.296-1.418-2.866-4.675-7.63-7.239-10.586-2.563-2.956-5.893-7.41-7.4-9.898-2.881-4.755-3.714-12.352-1.354-12.352.852 0 1.084-1.198.603-3.114-.439-1.749.054-5.114 1.124-7.674 1.425-3.41 1.551-4.985.502-6.25-1.313-1.58-1.17-5.59.87-24.455.275-2.54-.038-4.951-.695-5.357-.75-.463-.703-2.002.127-4.132 2.805-7.205 2.342-15.268-.876-15.268-1.213 0-1.79-1.41-1.79-4.375 0-2.891.585-4.375 1.728-4.375 3.006 0 3.57-5.41.765-7.34-3.169-2.179-3.647-13.546-.619-14.708 2.084-.8 2.59-4.202.625-4.202-.687 0-1.25-.844-1.25-1.875 0-1.031-.623-1.875-1.384-1.875-.76 0-1.105-.726-.764-1.615.341-.888-.102-2.601-.984-3.808-.882-1.206-1.329-3.243-.993-4.527.336-1.285-.652-4.04-2.2-6.133-2.188-2.96-3.285-3.544-4.968-2.644-1.785.956-2.297.467-2.955-2.826-.875-4.372-6.434-10.947-9.257-10.947-1.232 0-1.6-.97-1.189-3.125.329-1.719.201-3.125-.283-3.125-2.007 0-10.076-19.413-11.95-28.75-1.212-6.038-4.908-12.997-9.822-18.494-5.19-5.806-7.001-9.23-7.001-13.242 0-1.732-1.367-4.517-3.038-6.188-1.671-1.671-3.699-5.494-4.507-8.495-.807-3-2.762-7.706-4.344-10.456-1.581-2.75-3.578-8.375-4.436-12.5-.951-4.568-2.664-8.579-4.382-10.26-1.552-1.518-3.213-4.612-3.692-6.875-.48-2.263-1.867-5.24-3.084-6.615s-2.948-5.594-3.847-9.375c-.9-3.781-2.374-7.763-3.277-8.848-.904-1.086-1.643-2.594-1.643-3.352 0-1.178-1.605-4.66-8.919-19.345-.595-1.194-1.081-3.866-1.081-5.938 0-2.072-.422-3.771-.937-3.777-1.415-.014-4.063-6.338-4.063-9.703 0-1.631-.703-3.75-1.562-4.708-3.59-4.003-4.056-5.188-3.909-9.954.174-5.635-1.322-9.375-3.75-9.375-.898 0-2.328-2.39-3.176-5.312-4.584-15.785-21.352-29.688-35.804-29.688-2.275 0-5.72-.614-7.655-1.365-5.423-2.103-42.01-5.352-55.845-4.96-4.532.13-6.492-.395-7.71-2.061-.9-1.23-2.057-1.813-2.573-1.297s-1.901.067-3.078-.998c-1.93-1.747-2.33-1.748-4.072-.006-1.061 1.062-2.816 1.59-3.898 1.175-1.355-.52-1.968-.032-1.97 1.566 0 2.04-1.18 2.354-9.716 2.59-10.373.286-18.188 2.445-24.106 6.66-2.012 1.432-4.174 2.286-4.805 1.897-2.44-1.509-4.86.915-5.613 5.622-.432 2.705-1.202 4.854-1.71 4.775-2.783-.432-3.932.527-4.673 3.903-.453 2.062-1.395 3.75-2.094 3.75-3.04 0-9.26 6.084-17.947 17.553-5.134 6.78-9.334 12.869-9.334 13.532 0 .663-.488 1.394-1.085 1.623-.596.229-3.83 4.095-7.187 8.59-3.357 4.496-8.634 10.403-11.728 13.126-9.575 8.427-14.754 15.127-16.873 21.825-1.766 5.582-4.805 8.67-8.573 8.711-2.624.03-3.384.528-2.865 1.881.39 1.014.007 2.28-.846 2.813-4.226 2.641-5.733 25.153-1.704 25.458.817.062-.391.654-2.686 1.314-2.873.828-3.955 1.765-3.476 3.013.382.996.084 1.81-.662 1.81s-1.073 1.083-.727 2.407c.441 1.688.112 2.208-1.104 1.741-.954-.366-1.813-.183-1.909.406-.517 3.169-1.102 10.76-1.383 17.946-.227 5.826-.846 8.338-2.187 8.875-2.377.952-2.458 2.69-2.404 51.617.04 35.098.31 40.555 2.261 45.625 2.072 5.383 6.804 13.367 10.432 17.602.868 1.013 1.399 2.627 1.178 3.586-.533 2.323 2.277 13.926 4.134 17.07.812 1.376 1.41 3.344 1.33 4.376-.08 1.03.194 2.156.608 2.5 1.826 1.515 6.36 12.65 5.968 14.658-.238 1.219.421 3.22 1.465 4.445s1.9 2.631 1.902 3.125c.004.833 2.39 4.285 10.56 15.272 1.789 2.406 3.929 5.921 4.755 7.812.826 1.89 2.446 3.438 3.599 3.438s3.94 1.406 6.193 3.125c2.254 1.718 4.607 3.125 5.23 3.125.623 0 1.75 1.354 2.504 3.01 2.825 6.199 22.015 16.314 33.746 17.787 5.751.723 15.791 6.12 14.692 7.899-.301.488.13.952.96 1.032 5.085.491 6.747 1.193 8.785 3.709 1.253 1.547 2.957 2.813 3.787 2.813.83 0 2.335 1.193 3.347 2.653 1.01 1.459 2.407 3.287 3.103 4.062.695.775 1.949 2.956 2.785 4.847.837 1.89 2.096 3.438 2.798 3.438s1.277 1.618 1.277 3.596c0 1.979.786 4.25 1.746 5.047 2.144 1.779 1.672 8.742-.868 12.803-1.007 1.61-2.19 4.475-2.628 6.366-.439 1.89-1.424 3.438-2.19 3.438-.765 0-2.404 1.166-3.64 2.593-1.238 1.426-3.272 2.448-4.522 2.272-1.25-.176-4.63.108-7.512.63-3.49.632-8.705.24-15.625-1.173-8.36-1.71-13.557-1.946-26.636-1.216-8.937.5-19.344.73-23.125.514-9.427-.539-35.126-.45-45 .156-8.154.5-23.83-1.008-25-2.405-.344-.41-3.437-2.12-6.875-3.8-6.142-3.002-19.375-15.375-19.375-18.117 0-.77-1.125-2.362-2.5-3.54-1.375-1.177-2.5-2.942-2.5-3.923 0-.98-.703-2.067-1.562-2.414-.934-.376-.682-.67.625-.729 2.384-.107 2.932-1.99.937-3.223-1.728-1.068-1.57-6.056.25-7.875 1.167-1.167 1.167-1.5 0-1.5-.825 0-1.5-1.407-1.5-3.125 0-1.72-.57-3.125-1.267-3.125-.75 0-.527-1.77.548-4.342 1.305-3.125 1.492-5.463.667-8.34-.714-2.488-.695-4.543.048-5.439.657-.792.925-2.804.595-4.472-.636-3.208-.736-9.315-.256-15.532.223-2.883-.209-3.711-1.868-3.582-1.57.123-2.342-1.07-2.836-4.375-.373-2.499-1.276-7.194-2.008-10.433-.731-3.24-.95-6.504-.486-7.255.465-.751-.58-2.601-2.322-4.11-3.591-3.114-6.26-9.14-4.971-11.225 1.654-2.676 1.265-7.798-.875-11.52-1.186-2.063-1.916-4.401-1.623-5.196.294-.796-.645-2.273-2.087-3.283-2.126-1.488-2.27-1.97-.763-2.55 2.585-.991 2.014-5.846-.688-5.846-2.68 0-4.247-2.311-2.65-3.908 1.25-1.251-.803-9.842-2.354-9.842-.458 0-.678-1.421-.487-3.158.192-1.753-.45-3.602-1.445-4.16-1.888-1.056-4.625-10.857-3.528-12.632.353-.571-.184-1.355-1.193-1.743-1.01-.387-2.328.178-2.932 1.256-.975 1.743-1.178 1.749-1.829.052-.408-1.063.063-2.213 1.064-2.597 2.556-.981 2.221-5.458-.685-9.153-1.656-2.105-2.126-3.79-1.414-5.062 1.303-2.327.305-6.843-1.79-8.1-.845-.506-1.908-2.402-2.362-4.213-.455-1.81-1.643-4.109-2.64-5.106-1.124-1.124-1.525-2.97-1.054-4.85.481-1.914.224-3.034-.697-3.034-.803 0-1.105-.573-.673-1.273.433-.7-.335-3.09-1.705-5.312-2.459-3.986-4.494-13.8-8.26-39.835-2.452-16.943-2.463-22.202-.049-23.128 2.564-.984 2.366-3.89-.312-4.59-1.96-.512-1.943-.587.153-.717 1.717-.106 1.999-.56 1.056-1.708-.706-.859-1.61-4.617-2.008-8.351-.399-3.734-1.28-7.132-1.958-7.552-.718-.443-1.19-7.535-1.13-16.96.058-8.91-.025-16.762-.184-17.449-.774-3.359.19-6.875 1.883-6.875 1.125 0 1.938-1.25 2.031-3.125.31-6.203.582-7.543 2.066-10.212 1.132-2.036 1.147-2.832.06-3.194-.922-.308-.547-1.367 1.032-2.914 1.365-1.336 3.178-4.85 4.029-7.809.85-2.958 2.36-5.69 3.352-6.07 1.153-.443 1.805-2.482 1.805-5.642 0-2.722.581-6.034 1.292-7.362 2.255-4.215 3.853-15.628 2.636-18.83-.626-1.645-3.537-5.464-6.47-8.486-5.008-5.16-5.435-5.354-7.02-3.186-.928 1.27-1.688 1.85-1.688 1.29 0-.559-.703-.504-1.562.122-.86.625-3.25 1.309-5.313 1.518-2.062.21-4.638 1.173-5.723 2.14-2.228 1.987-4.172 2.363-3.08.596.395-.64.186-1.493-.465-1.895-.651-.402-1.538-.16-1.97.539-.431.698-2.158 1.27-3.836 1.27s-3.051.539-3.051 1.197c0 1.454-12.417 1.199-13.327-.274-.355-.574-1.39-.426-2.3.33-.911.755-3.232 1.659-5.159 2.008-1.926.35-7.178 2.522-11.67 4.829-9.927 5.096-12.35 5.583-33.974 6.827-19.551 1.126-24.505 2.855-34.452 12.03-3.296 3.04-6.35 5.532-6.788 5.54-.437.008-1.73 1.982-2.871 4.388-1.682 3.544-2.778 4.375-5.768 4.375-2.03 0-3.777.703-3.881 1.562-.105.86-.321 2.125-.481 2.813a25.64 25.64 0 0 0-.435 2.73c-.08.813-1.69 1.657-3.581 1.874-2.726.314-3.376.979-3.14 3.208.164 1.547-.258 2.813-.938 2.813-.68 0-1.235.8-1.235 1.776s-1.563 2.119-3.473 2.538c-3.578.786-7.14 4.932-5.926 6.897.875 1.416-6.574 12.539-8.398 12.539-.753 0-1.016.353-.584.785.432.433-1.162 3.162-3.542 6.067-2.38 2.904-4.327 5.62-4.327 6.034 0 .415-1.644 3.541-3.652 6.948-2.01 3.407-3.275 6.573-2.813 7.035.462.461.044.652-.93.423-1.124-.265-2.086 1.033-2.637 3.56-.477 2.186-1.826 4.934-2.998 6.106-1.339 1.34-1.691 2.57-.949 3.313 1.55 1.55-.914 9.622-3.824 12.532-2.403 2.403-2.911 7.233-.966 9.178 1.832 1.832-3.791 9.455-6.49 8.8-1.584-.385-2.693.979-4.301 5.287-1.192 3.194-2.835 6.932-3.651 8.307-.817 1.375-1.815 4.305-2.22 6.51-.405 2.206-2.639 8.112-4.965 13.125-2.327 5.013-4.917 12.35-5.757 16.303-.84 3.953-1.974 7.187-2.522 7.187-.548 0-1.349 2.11-1.78 4.688-2.268 13.56-3.034 16.801-4.258 18.025-.738.738-1.046 2.112-.685 3.054.362.941-.245 2.058-1.347 2.481-1.103.423-2.005 2.116-2.005 3.76 0 1.646-.623 2.992-1.385 2.992-.842 0-1.088 1.187-.628 3.022.422 1.68.175 3.216-.557 3.46-1.695.565-2.418 5.17-.96 6.118.613.399-.36 2.2-2.163 4.003-1.803 1.802-2.914 3.867-2.469 4.587.445.72.18 1.31-.588 1.31-.769 0-1.08.514-.691 1.143.389.629.168 1.332-.49 1.563-.658.23-1.364 3.877-1.57 8.102-.206 4.226-.797 7.427-1.313 7.113-1.962-1.192.378 9.028 2.407 10.515 1.979 1.45 1.935 1.744-.606 4.111-3.158 2.942-3.325 3.819-1.174 6.136 1.25 1.347 1.25 1.507 0 .802-3.73-2.106-1.042 2.763 3.79 6.864 6.214 5.275 10.927 7.05 17.772 6.694 2.75-.143 7.41.52 10.356 1.474 2.946.953 8.712 1.733 12.813 1.733 5.755 0 7.456.423 7.456 1.853 0 1.02 2.531 4.495 5.625 7.724s5.625 6.526 5.625 7.328c0 2.302 4.721 5.97 6.705 5.208 1.563-.6 2.956 1.494 3.752 5.637.092.481.871 1.578 1.73 2.438 1.885 1.884 2.048 5.615.293 6.7-.7.431-.987 1.245-.64 1.807.348.562-.205 1.717-1.229 2.566-1.023.85-1.861 2.233-1.861 3.073 0 3.033-6.215 8.79-9.683 8.97-1.893.098-3.93.238-4.525.312-.596.074-.815 1.54-.486 3.259.329 1.719.113 3.125-.48 3.125-.591 0-1.076-.562-1.076-1.25 0-2.05-5.689-1.418-8.894.987-4.342 3.26-9.566 5.296-11.59 4.52-.97-.373-2.109-.118-2.531.566-.477.77-2.186.836-4.502.172-2.053-.589-3.733-.76-3.733-.38s-.85-.015-1.89-.878c-1.568-1.301-2.421-.996-5 1.787-1.71 1.845-3.11 3.828-3.11 4.407 0 .578-.844 1.375-1.875 1.771-1.031.396-1.875.175-1.875-.491 0-1.94-2.162-1.45-11.316 2.568-8.326 3.654-9.18 3.772-25.835 3.571-15.61-.188-17.65-.477-21.77-3.078-6.487-4.096-12.617-6.474-19.245-7.468-6.898-1.035-11.653-4.754-16.316-12.764-1.894-3.253-9.19-12.16-16.214-19.795-7.024-7.633-13.45-15.148-14.28-16.699-.978-1.828-1.372-7.275-1.12-15.495.382-12.515.448-12.759 5.22-19.177 5.528-7.435 8.376-15.654 8.376-24.17 0-3.698.694-6.474 1.861-7.443 1.024-.85 1.583-1.995 1.243-2.546-.341-.55-.06-1.19.624-1.42.685-.231 1.862-3.795 2.618-7.92.755-4.125 2.168-8.388 3.139-9.473 2.09-2.338 2.369-10.742.377-11.406-.828-.276 1.185-5.554 5-13.103 3.514-6.953 6.388-13.26 6.388-14.017 0-.757.624-1.376 1.386-1.376.837 0 1.088-1.184.633-2.995-.508-2.027-.148-3.226 1.115-3.71 1.026-.394 1.866-1.578 1.866-2.63 0-1.054.625-1.915 1.39-1.915.896 0 1.112-1.475.607-4.164-.592-3.156-.172-4.867 1.736-7.066 2.603-3.001 3.481-10.02 1.254-10.02-.694 0 .697-2.953 3.092-6.563 2.732-4.116 5.311-10.408 6.92-16.88 3.42-13.745 4.582-16.557 6.845-16.557 1.336 0 1.906-1.277 1.906-4.273 0-5.506 1.078-8.227 3.259-8.227 1.024 0 1.741-1.287 1.741-3.125 0-1.719.563-3.125 1.25-3.125.688 0 1.25-.812 1.25-1.804 0-.993 1.727-2.82 3.838-4.063 3.46-2.036 3.813-2.81 3.589-7.883-.35-7.877-.164-8.75 1.859-8.75 4.69 0 7.787-8.025 3.527-9.138-1.346-.352-.865-.628 1.25-.717 2.574-.109 3.437-.783 3.437-2.684 0-1.397.844-2.863 1.875-3.259 1.148-.44 1.875-2.336 1.875-4.89 0-2.9.851-4.767 2.794-6.127 2.437-1.707 2.588-2.286 1.187-4.53-1.402-2.244-1.12-3.305 2.206-8.328 2.532-3.822 3.813-7.315 3.813-10.396 0-3.588.566-4.788 2.5-5.293 2.042-.534 2.5-1.705 2.5-6.396 0-4.27.48-5.742 1.875-5.742 1.031 0 1.875-.641 1.875-1.425 0-.783.962-2.128 2.138-2.988 1.801-1.317 1.904-2.077.652-4.825-1.39-3.05-1.28-3.262 1.695-3.262 3.105 0 3.18-.203 3.074-8.438-.06-4.64.246-10.546.678-13.125.587-3.495.354-4.697-.913-4.725-1.131-.025-.968-.464.489-1.312 1.203-.7 2.187-2.09 2.187-3.087 0-.997.563-1.813 1.25-1.813 1.804 0 1.541-3.44-.312-4.088-1.146-.4-.979-1.206.625-3.015 1.203-1.358 2.187-3.409 2.187-4.558s.563-2.089 1.25-2.089c.688 0 1.25-.856 1.25-1.902 0-1.046 1.406-2.542 3.125-3.325 1.719-.784 3.125-2.138 3.125-3.01 0-.871.925-2.51 2.056-3.64 1.722-1.722 1.83-2.796.666-6.59-.765-2.492-1.155-4.766-.867-5.054.288-.288.893.949 1.345 2.748.96 3.823 2.852 4.062 9.111 1.15 4.551-2.119 5.54-3.008 11.425-10.282 1.712-2.115 3.82-3.845 4.688-3.845.894 0 1.576-1.52 1.576-3.515 0-2.456 1.13-4.35 3.75-6.287 2.063-1.525 3.75-3.6 3.75-4.61 0-1.011 1.125-1.838 2.5-1.838s2.5-.552 2.5-1.226c0-.675 1.406-1.58 3.125-2.01 1.893-.476 3.125-1.677 3.125-3.047 0-3.882 1.427-6.217 3.8-6.217 1.255 0 2.641-1.133 3.08-2.518.44-1.385 1.271-2.227 1.847-1.871 2.214 1.368 5.227-.946 4.559-3.501-.422-1.614.247-3.338 1.828-4.709 1.85-1.605 2.298-3.08 1.736-5.72-.626-2.938-.516-3.176.633-1.369 1.702 2.677 4.84 2.852 5.81.324.394-1.025 2.908-2.52 5.586-3.322 2.68-.803 4.871-2.126 4.871-2.94 0-.814 1.969-2.54 4.375-3.836 2.406-1.296 4.375-3.06 4.375-3.918 0-.86 1.435-2.502 3.188-3.651 1.76-1.154 2.897-2.845 2.539-3.779-.363-.947.158-1.69 1.187-1.69 1.03 0 1.836-1.149 1.836-2.617 0-1.566 1.004-2.88 2.5-3.27 1.384-.363 2.5-1.706 2.5-3.009 0-1.295.502-2.354 1.115-2.354.612 0 1.458-1.369 1.877-3.042.42-1.673 1.888-3.398 3.26-3.834 1.553-.493 2.498-1.891 2.498-3.698 0-2.024.91-3.133 2.999-3.658 2.194-.55 3.296-2.01 4.107-5.44.702-2.964 1.938-4.846 3.365-5.12 3.932-.758 10.779-9.945 10.779-14.463 0-1.097.517-1.995 1.15-1.995 1.742 0 15.099-12.544 15.107-14.188.024-4.953 2.78-10.613 5.502-11.296 4.021-1.01 10.741-8.905 10.741-12.62 0-1.66 1.463-4.593 3.251-6.52 1.788-1.925 4.661-5.903 6.384-8.84 3.795-6.466 3.223-12.088-1.736-17.046-6.338-6.338-12.712-5.85-20.055 1.54-13.794 13.877-20.34 19.28-21.886 18.063-3.07-2.42-8.422-2.891-12.671-1.116-4.144 1.731-14.44 12.958-20.086 21.903-4.088 6.475-8.626 19.61-7.83 22.657.49 1.871-.095 2.96-2.073 3.862-2.963 1.35-5.067 5.37-6.462 12.351-.481 2.406-1.372 4.994-1.979 5.751-.607.757-1.224 2.826-1.37 4.598-.147 1.771-.66 2.978-1.14 2.682-1.354-.838-4.847.832-4.847 2.317 0 .731-.913 2.34-2.03 3.573-1.21 1.338-2.093 4.65-2.187 8.207-.094 3.548-.949 6.76-2.111 7.933-2.236 2.256-4.922 1.825-4.922-.79 0-1.9-2.269-2.312-4.483-.814-.746.505-2.027 2.874-2.846 5.264s-4.005 6.723-7.08 9.628c-3.075 2.905-5.591 6.178-5.591 7.273 0 1.095-1.406 3.398-3.125 5.117-1.719 1.718-3.125 3.943-3.125 4.943 0 1-1.078 1.818-2.395 1.818-1.46 0-3.044 1.466-4.055 3.75-.913 2.063-2.085 3.75-2.605 3.75s-.945 1.396-.945 3.101c0 2.292-.842 3.313-3.229 3.912-2.451.615-3.072 1.406-2.58 3.287.452 1.728-.084 2.667-1.772 3.109-1.33.348-2.419 1.463-2.419 2.479 0 1.015-1.155 2.148-2.567 2.517-1.908.5-2.47 1.513-2.188 3.946.219 1.884-.549 4.203-1.807 5.462-1.204 1.203-2.188 3.593-2.188 5.312 0 3.169-1.893 4.321-2.77 1.688-.761-2.282-7.654.53-9.089 3.705-.83 1.84-2.347 2.732-4.643 2.732-2.13 0-3.912.938-4.748 2.5-1.846 3.45-3.75 3.132-3.75-.625 0-1.719-.536-3.125-1.191-3.125-2.88 0-8.602 3.53-13.678 8.438-3.022 2.921-6.236 5.312-7.143 5.312-.908 0-2.317 1.266-3.131 2.813-1.99 3.777-3.677 4.717-6.98 3.888-2.242-.563-3.118.103-4.597 3.49-1.513 3.468-1.843 3.708-1.928 1.404-.097-2.649-.583-2.774-10.262-2.649-8.524.11-10.251.48-10.727 2.3-.427 1.634-2.422 2.363-8.081 2.955-4.133.432-9.95 1.862-12.925 3.178-7.114 3.147-16.342 10.061-17.925 13.43-1.16 2.467-7.582 4.315-16.432 4.728-1.031.049-2.041 1.252-2.245 2.676-.296 2.072-1.075 2.484-3.914 2.067-1.95-.286-3.915.078-4.366.809-.461.746-2.438 1.006-4.504.593-2.667-.534-3.888-.2-4.429 1.208-.785 2.046-.372 2.204-11.005-4.225-1.64-.991-2.084-1.003-1.489-.04.563.912-.825 1.375-4.122 1.375-6.112 0-8.926-1-8.926-3.174 0-.912-1.125-2.015-2.5-2.45-1.375-.437-2.5-1.36-2.5-2.05 0-2.171-3.736-5.099-5.596-4.385-2.388.916-9.674-14.43-9.854-20.753-.073-2.579-.564-4.688-1.091-4.688-.528 0-.959-.757-.959-1.681 0-.925-1.125-2.7-2.5-3.944-1.375-1.244-2.5-2.652-2.5-3.128 0-.477 3.015-3.905 6.699-7.62 7.149-7.205 12.051-17.538 12.051-25.4 0-3.948.33-4.262 5.938-5.647 13.368-3.303 24.59-14.673 28.128-28.499 1.473-5.754 2.538-7.135 9.731-12.606 4.443-3.38 9.687-8.719 11.653-11.866 2.417-3.868 4.702-5.968 7.053-6.485 1.913-.42 6.147-2.457 9.41-4.526 3.264-2.07 9.086-4.942 12.939-6.384 4.86-1.818 9.165-4.78 14.062-9.678 6.787-6.787 8.245-9.674 11.765-23.298.197-.763 3.078-2.066 6.402-2.895 7.812-1.949 14.811-6.114 20.985-12.49 2.795-2.887 6.12-5.103 7.656-5.103 4.047 0 12.35-3.2 17.65-6.8 2.577-1.751 7.513-4.117 10.969-5.258 4.621-1.526 8.333-4.158 14.026-9.947 4.258-4.33 10.05-9.05 12.873-10.49 2.823-1.44 5.436-3.411 5.808-4.38.372-.97 3.6-2.613 7.172-3.651 3.573-1.039 11.773-5.423 18.223-9.744 9.461-6.337 12.65-9.304 16.505-15.355 2.628-4.125 7.546-10.312 10.93-13.75 3.383-3.437 7-7.961 8.035-10.053 1.035-2.091 5.538-7.494 10.005-12.005 5.641-5.697 8.614-9.842 9.73-13.568.904-3.018 2.528-5.606 3.712-5.916 1.158-.302 2.59-1.558 3.185-2.79.594-1.231 3.893-4.567 7.33-7.413 3.438-2.845 6.677-5.585 7.2-6.09 1.982-1.91 9.715-13.56 11.187-16.852 1.026-2.297 2.483-3.438 4.387-3.438 1.568 0 2.86-.703 2.87-1.562.014-1.132.32-1.088 1.11.16 1.227 1.936 3.871.853 3.871-1.585 0-.875 1.349-2.312 2.998-3.195 1.648-.882 6.222-4.915 10.164-8.961 3.941-4.046 7.819-7.357 8.617-7.357.798 0 3.958-2.572 7.023-5.717 3.065-3.144 7.37-6.477 9.568-7.408 2.198-.93 7.541-4.984 11.875-9.01 4.334-4.025 9.708-8.072 11.943-8.993 2.888-1.19 4.062-2.49 4.062-4.496 0-3.672 1.532-4.72 10.938-7.48 4.34-1.273 7.812-3.006 7.812-3.898 0-.883 1.058-2.347 2.35-3.253 1.294-.905 2.563-2.745 2.822-4.088.318-1.651 2.038-2.813 5.312-3.587 5.454-1.29 9.516-4.724 9.516-8.045 0-1.52 2.019-3.004 6.383-4.687 3.51-1.355 7.588-3.636 9.062-5.07 1.474-1.434 4.508-3.4 6.743-4.368 2.234-.968 4.062-2.449 4.062-3.29 0-.843.745-1.246 1.656-.896.91.35 4.285-.492 7.5-1.87 5.732-2.457 5.844-2.614 5.844-8.175V210h10c5.833 0 10-.52 10-1.25 0-.687.778-1.25 1.73-1.25.95 0 2.013-1.089 2.361-2.42.435-1.662 1.387-2.22 3.046-1.787 1.342.35 3.135-.24 4.04-1.331 2.06-2.48 3.823-2.52 3.823-.087 0 2.246 2.392 2.375 5.05.273 2.39-1.892 2.833-7.015.829-9.59-1.32-1.697-1.237-1.723.684-.217 1.203.943 2.187 2.49 2.187 3.437 0 2.267 4.709 2.185 9.205-.16 1.97-1.028 4.36-1.868 5.313-1.868 1.014 0 1.732-1.295 1.732-3.125 0-2.613.592-3.125 3.616-3.125 1.99 0 3.912-.77 4.273-1.712.406-1.058 3.321-1.932 7.632-2.29 4.487-.372 9.713-1.99 14.652-4.538 4.223-2.178 8.443-3.96 9.378-3.96.934 0 1.699-.562 1.699-1.25 0-.687 1.294-1.25 2.875-1.25s3.41-.504 4.063-1.12c.653-.617 6.53-1.355 13.062-1.64 8.625-.377 13.525-1.26 17.904-3.224 4.613-2.07 9.602-2.895 21.25-3.512 9.008-.478 18.027-1.713 22.096-3.026 4.31-1.391 10.607-2.204 16.875-2.178 6.814.028 12.39-.763 17.5-2.483 4.125-1.388 10.875-3.225 15-4.082a824.66 824.66 0 0 0 14.375-3.141c10.504-2.42 17.5-3.24 17.5-2.05 0 .592 6.188 1.08 13.75 1.086 7.563.006 13.75-.411 13.75-.927 0-.515 2.286-.424 5.08.204s5.586.829 6.205.447c.618-.382 2.194.375 3.5 1.682 1.559 1.558 4.052 2.351 7.234 2.303 2.67-.04 7.106 1.077 9.856 2.484s7.813 3.232 11.25 4.056c3.438.823 9.224 2.594 12.86 3.934 3.635 1.34 9.084 2.437 12.11 2.437 10.253 0 23.065 3.707 38.78 11.22 4.125 1.972 9.75 3.955 12.5 4.407 9.55 1.568 26.271 5.925 30 7.817 2.063 1.047 5.652 3.56 7.978 5.586 2.325 2.026 8.402 5.586 13.503 7.911 5.102 2.325 12.427 7.035 16.277 10.467 8.585 7.652 12.918 9.782 22.082 10.86 3.908.459 7.404 1.318 7.769 1.908.365.59 2.6 1.074 4.965 1.074 2.365 0 4.301.472 4.301 1.05 0 .577 1.437 1.703 3.193 2.504 2.494 1.136 3.886 1.091 6.359-.204 2.41-1.263 4.183-1.34 7.432-.324 2.346.735 4.266 1.76 4.266 2.28 0 .52 1.688.944 3.75.944 2.063 0 3.75.563 3.75 1.25 0 .688 1.688 1.25 3.75 1.25 2.063 0 3.75.563 3.75 1.25 0 .688.567 1.25 1.26 1.25.694 0 3.599 1.693 6.455 3.762 6.526 4.728 15.676 7.488 24.82 7.488 4.264 0 8.774.865 11.335 2.174 2.778 1.42 8.029 2.33 15.126 2.622 9.576.395 11.707.066 17.879-2.76 3.853-1.764 8.37-4.28 10.036-5.591 2.55-2.006 3.954-2.21 8.871-1.292 8.111 1.515 19.496-.555 26.332-4.79 3.098-1.918 8.812-5.321 12.697-7.562 3.885-2.24 9.613-6.85 12.728-10.244 6.15-6.701 11.702-8.847 20.274-7.836 3.704.437 4.687.13 4.687-1.46 0-1.106.532-2.011 1.182-2.011.65 0 1.93-1.547 2.845-3.437 1.203-2.486 2.436-3.33 4.452-3.045 1.624.228 3.092-.4 3.515-1.503.436-1.136 3.061-2.206 6.554-2.672 3.205-.428 7.515-1.334 9.577-2.014 2.063-.68 8.402-1.73 14.088-2.333 8.079-.858 12.176-2.068 18.75-5.538 4.627-2.442 11.785-5.662 15.908-7.155 5.43-1.966 9.252-4.511 13.865-9.236 3.502-3.588 7.582-6.908 9.066-7.379 1.538-.488 2.698-1.895 2.698-3.272 0-1.329.446-2.416.99-2.416 1.098 0 4.01-9.924 4.01-13.664 0-1.308-.656-2.596-1.457-2.863-2.024-.675.422-7.438 3.974-10.99 2.16-2.16 2.553-3.593 1.915-6.991-.617-3.292-.335-4.453 1.226-5.053 1.413-.542 1.803-1.674 1.286-3.733-.584-2.33-.24-2.956 1.63-2.956 1.458 0 2.972-1.446 3.926-3.75.854-2.062 2.083-3.75 2.73-3.75.648 0 1.052-.984.9-2.187-.44-3.467 4.07-18.334 7.767-25.608.607-1.194 1.103-3.022 1.103-4.063 0-1.04.79-1.892 1.756-1.892.965 0 3.037-3.094 4.605-6.875 1.974-4.763 3.546-6.875 5.12-6.875 1.808 0 2.27-1 2.27-4.919 0-6.945 1.922-11.331 4.968-11.331 2.078 0 2.531-.815 2.531-4.548 0-3.569 1.077-5.716 5.007-9.979 2.753-2.987 6.34-8.447 7.97-12.132l2.963-6.7 11.093-.728c6.603-.432 15.14-2.023 21.092-3.929 5.5-1.761 12.953-3.21 16.563-3.218L1448.75 0l.053 22.5c.15 65.216.235 62.5-1.927 62.5a1.88 1.88 0 0 0-1.875 1.875c0 1.031.703 1.884 1.562 1.894 1.05.013 1.123.32.222.938-2.054 1.406-3.062 5.075-1.535 5.584.967.323.946 1.225-.07 3.124-.786 1.469-1.429 4.283-1.429 6.253 0 1.97-.675 4.257-1.5 5.082-.825.825-1.086 1.5-.58 1.5.505 0 .332 1.095-.384 2.433-1.024 1.913-.834 2.695.886 3.658 2.034 1.138 1.99 1.434-.617 4.21-2.818 2.998-3.892 9.699-1.555 9.699.687 0 1.25.549 1.25 1.22 0 .769-1.105.798-2.997.079-3.837-1.46-4.515-.697-3.263 3.669.557 1.94.553 4.008-.012 4.593-.562.585-1.21 2.189-1.439 3.564-.23 1.375-.698 2.781-1.042 3.125-1.243 1.243-3.75 6.245-3.75 7.483 0 1.93 3.328 1.511 5.536-.697 1.466-1.467 1.959-1.546 1.943-.313-.013.909-1.378 2.938-3.036 4.51-4.14 3.925-5.082 9.167-2.59 14.417 2.212 4.662 10.747 11.45 16.08 12.788 3.456.868 10.817-1.387 10.817-3.314 0-.59 2.25-2.221 5-3.624 3.29-1.679 5-3.397 5-5.025 0-1.362.572-2.475 1.27-2.475.7 0 2.246-2.11 3.438-4.688 1.192-2.578 2.49-4.968 2.886-5.312 1.924-1.675 10.321-19.724 10.322-22.188 0-.859.47-1.562 1.043-1.562s1.041-1.366 1.041-3.034c0-1.748 1.325-4.077 3.125-5.493 2.008-1.579 3.137-3.735 3.157-6.028.017-1.964 1.944-6.57 4.28-10.236 3.208-5.034 4.108-7.635 3.677-10.625-.487-3.384.338-4.947 5.682-10.762 4.918-5.35 6.546-8.219 7.63-13.437.757-3.65 1.9-6.635 2.538-6.635.639 0 1.161-1.387 1.161-3.081 0-1.907 1.062-3.65 2.787-4.573 3.72-1.99 5.942-4.307 6.062-6.32.075-1.26.248-1.28.73-.089.803 1.992 6.95 2.035 8.921.063 1.167-1.167 1.5-1.167 1.5 0 0 .825 1.125 1.5 2.5 1.5s2.5.562 2.5 1.25c0 .687 1.387 1.25 3.081 1.25 1.802 0 3.637 1.038 4.42 2.5.735 1.375 1.93 2.5 2.656 2.5 1.893 0 8.593 6.575 8.593 8.433 0 .862.507 1.567 1.125 1.567.62 0 1.125 4.189 1.125 9.308 0 5.55.72 10.749 1.78 12.877 1.573 3.15 1.531 4.155-.35 8.587-1.955 4.602-3.511 11.228-4.517 19.228-1.826 14.53-3.53 23.75-4.387 23.75-.564 0-1.026 1.338-1.026 2.972 0 1.635-.942 5.15-2.095 7.813-1.152 2.662-2.287 5.965-2.522 7.34-.235 1.375-1.44 3.906-2.677 5.625-2.17 3.013-4.249 7.193-4.473 8.99-.059.477-1.373 2.046-2.92 3.487-1.547 1.441-2.813 3.442-2.813 4.447 0 1.004-.458 1.826-1.018 1.826-1.667 0-5.232 8.546-5.232 12.542 0 2.04-.497 3.708-1.104 3.708-.607 0-1.41 1.167-1.782 2.593-.373 1.426-1.845 2.898-3.27 3.27-1.427.373-2.594 1.532-2.594 2.575 0 2.054-6.04 7.808-8.2 7.81-.728.001-3.93 2.674-7.117 5.94-8.914 9.136-13.61 13.652-19.027 18.3-4.88 4.187-4.978 4.439-5.458 13.938-.493 9.768 1.327 19.324 3.68 19.324.828 0 .98 2.971.433 8.437-.926 9.235-2.312 12.95-4.66 12.488-.84-.165-1.441.723-1.338 1.973.127 1.532-.416 2.042-1.664 1.563-1.018-.39-2.983.082-4.365 1.05-2.49 1.744-2.49 1.782-.079 4.194 1.339 1.338 2.803 3.905 3.255 5.704.451 1.8 1.966 4.338 3.365 5.642 2.254 2.1 2.398 2.996 1.265 7.847-.704 3.012-1.53 9.414-1.835 14.227-.304 4.812-.65 8.75-.769 8.75-.117 0-.482 1.885-.809 4.188-.39 2.747-.14 3.908.726 3.373.802-.496 1.027-.055.575 1.124-.41 1.067-1.247 1.94-1.861 1.94-.614 0-1.116 1.097-1.116 2.438 0 4.62-2.713 15.078-3.746 14.44-.57-.352-.846.347-.615 1.554.23 1.206.505 2.193.61 2.193 1.212 0 .64 5.164-.722 6.527-2.482 2.481-1.727 21.178.83 20.568 1.222-.291 1.121.234-.36 1.875-1.758 1.949-1.81 2.616-.36 4.593.933 1.272 2.296 1.942 3.03 1.488.733-.453 1.333-.228 1.333.5s-.565 1.324-1.256 1.324c-.785 0-1.038 3.734-.673 9.956.325 5.564.064 10.277-.594 10.683-1.182.73.832 5.462 2.995 7.034.604.438.706 1.432.226 2.208-1.787 2.893-2.017 7.619-.37 7.619 1.062 0 1.714 1.975 1.875 5.684.15 3.452-.233 5.386-.978 4.926-.676-.418-1.225.644-1.225 2.367 0 1.72.622 3.51 1.383 3.98.987.61.945 1.127-.147 1.801-.841.52-1.74 2.754-1.998 4.964-.374 3.215.044 4.151 2.093 4.687 1.8.47 2.297 1.27 1.674 2.693-.487 1.113-1.118 3.992-1.401 6.398-.39 3.315-.198 3.92.796 2.5 1.022-1.462 1.316-.9 1.33 2.55.014 2.434.879 7.723 1.929 11.753 1.497 5.749 1.607 8.243.51 11.565-.768 2.33-1.09 5.038-.713 6.019.377.98.185 2.091-.424 2.468-.61.377-.856 2.083-.546 3.79.316 1.748-.031 3.105-.796 3.105-.77 0-1.03 1.038-.599 2.395.418 1.317.173 2.758-.545 3.201-.718.444-.97 2.147-.558 3.785.41 1.637.288 3.712-.273 4.61-.56.899-1.135 2.396-1.276 3.328-.4 2.638-13.103 14.136-14.869 13.458-.867-.333-1.959-.222-2.427.247-.469.468-1.227.913-1.685.989-5.428.898-8.958 2.354-8.958 3.694 0 .905-.556 1.99-1.236 2.41-.709.437-.918-.065-.491-1.177.99-2.58-5.373-2.648-10.268-.109-2.896 1.503-3.875 1.542-5.455.219-1.059-.888-3.294-1.685-4.967-1.771-1.673-.087-3.504-.985-4.07-1.996-1.49-2.661-8.55-3.984-9.9-1.854-.85 1.34-1.079 1.258-1.094-.387-.03-3.137-2.739-3.47-6.547-.803-2.48 1.736-4.796 2.222-8.535 1.793-3.808-.438-4.974-.18-4.522.997.41 1.07-.817.86-3.772-.647-2.409-1.228-6.023-2.025-8.03-1.771-2.04.258-3.335-.05-2.934-.7.395-.638-.126-1.161-1.157-1.161-1.031 0-2.222.562-2.647 1.25-.425.687-2.365 1.25-4.31 1.25-2.602 0-3.492-.579-3.364-2.188.119-1.49-.876-2.309-3.121-2.569-2.479-.287-3.47-1.254-4-3.9-.426-2.134-1.712-3.782-3.267-4.189-1.41-.368-2.563-1.566-2.563-2.662 0-1.096-.868-1.992-1.928-1.992-3.304 0-5.378-2.85-4.244-5.831.725-1.906.51-2.905-.723-3.379-1.175-.45-1.579-2.028-1.226-4.793.405-3.182-.32-5.175-3.178-8.738l-3.704-4.616 2.784-1.95c2.685-1.88 2.712-2.093.747-6.009-1.12-2.232-2.46-5.184-2.976-6.559-.84-2.234-.995-2.267-1.462-.313-.315 1.315-1.696 2.188-3.46 2.188-2.248 0-3.275-1.026-4.38-4.375-.794-2.406-1.963-4.375-2.597-4.375-.634 0-1.02-.422-.856-.938.476-1.5-2.995-9.062-4.16-9.062-.582 0-.76-.78-.394-1.731 1.325-3.454-13.64-5.146-25.118-2.84-1.375.276-4.548.574-7.052.661-3.325.117-6.181 1.507-10.602 5.16-3.328 2.75-6.678 5-7.445 5-.766 0-2.69 1.125-4.276 2.5-1.586 1.375-3.226 2.5-3.645 2.5-.42 0-1.318 1.266-1.996 2.812-1.005 2.291-2.128 2.768-6.054 2.572-4.512-.226-4.781-.042-4.222 2.883.328 1.718-.106 3.827-.966 4.687-.86.86-1.967 3.406-2.462 5.66-.679 3.087-2.332 4.968-6.715 7.638-3.199 1.947-6.659 4.374-7.69 5.393-4.586 4.529-7.5 8.184-7.5 9.406 0 .729-1.7 4.306-3.78 7.95-2.078 3.643-4.67 8.733-5.76 11.311-1.09 2.579-2.745 4.688-3.677 4.688-.932 0-2.367 1.255-3.188 2.789-.82 1.534-2.81 3.824-4.419 5.09-1.61 1.267-2.926 3.254-2.926 4.417 0 1.162-2.304 3.512-5.12 5.221-4.807 2.918-16.647 16.18-21.802 24.42-1.269 2.029-3.907 5.322-5.863 7.319-1.956 1.996-3.448 4.528-3.316 5.625.133 1.097-.432 3.639-1.256 5.649-1.79 4.37-.772 10.025 2.335 12.963 1.24 1.172 3.486 4.34 4.99 7.04 2.682 4.81 2.694 5.04.602 11.688-3.242 10.31-2.066 22.472 3.171 32.779 3.734 7.349 4.226 9.617 5.155 23.75.564 8.594 1.823 20.388 2.796 26.21.974 5.82 1.491 11.312 1.15 12.203-.342.89.075 2.46.928 3.486 1.05 1.265 1.282 3.881.722 8.11-.465 3.502-.332 6.241.303 6.241.623 0 1.546 5.203 2.052 11.562 1.665 20.948 1.739 25.938.382 25.938-.848 0-.993 2.077-.413 5.937.49 3.266 1.053 9.093 1.251 12.948.198 3.856.935 8.038 1.638 9.294.89 1.591.845 2.987-.151 4.607-1.183 1.924-.93 2.704 1.468 4.526 2.28 1.732 2.717 2.92 2.052 5.57-.736 2.932-.464 3.378 2.103 3.447l2.948.08-2.813 1.13c-1.547.622-2.812 1.964-2.812 2.984 0 1.019-.966 2.393-2.147 3.054-1.882 1.053-1.478 1.832 3.268 6.302 5.144 4.844 5.446 5.522 6.037 13.548.342 4.646 1.425 9.727 2.406 11.29 1.006 1.605 1.928 6.778 2.115 11.876.337 9.142 5.077 22.697 9.108 26.042 2.257 1.873 2.179 3.615-.162 3.615-2.58 0-2.348 2.914.62 7.782 1.372 2.251 2.497 5.017 2.5 6.147 0 1.13.805 2.36 1.783 2.736 1.088.417 1.516 1.682 1.104 3.259-.489 1.867-.08 2.576 1.486 2.576 1.752 0 2.023.768 1.438 4.063-.466 2.62-.071 4.923 1.11 6.488 1.009 1.335 1.834 4.738 1.834 7.563 0 2.825.675 5.811 1.5 6.636 1.166 1.167 1.166 1.5 0 1.5-2.385 0-1.739 5.647.922 8.055 1.942 1.757 2.183 2.82 1.218 5.358-1.881 4.948-.305 8.212 3.504 7.256 2.911-.73 3-.634 1.132 1.234-2.189 2.188-2.733 5.597-.893 5.597.623 0 .843 1.108.489 2.461-.354 1.354-.05 4.167.677 6.25.799 2.292.852 3.79.136 3.79-.652 0-1.185.843-1.185 1.874 0 1.031.767 1.875 1.705 1.875 1.11 0 1.672 1.419 1.61 4.063-.286 12.359.369 15.506 3.525 16.944 1.7.774 3.46 2.876 3.91 4.671.654 2.609 1.374 3.124 3.59 2.567 3.015-.756 6.126 1.918 10.244 8.806 3.56 5.956 20.31 23.794 26.697 28.433 3.11 2.259 10.918 9.121 17.35 15.25 9.25 8.813 12.444 12.8 15.285 19.078 1.975 4.366 4.68 9.467 6.011 11.336 2.385 3.35 2.386 3.451.03 7.044-1.316 2.005-2.745 5.997-3.176 8.873-.892 5.946-.491 5.751-18.656 9.101l-11.25 2.075-7.097-3.639c-3.903-2.001-9.81-3.888-13.125-4.194-9.603-.884-11.314-1.474-12.012-4.144-.914-3.496-4.64-3.256-4.643.299 0 2.294-1.75 3.598-9.5 7.083-5.224 2.349-10.145 4.176-10.936 4.06-.79-.117-9.312-.463-18.937-.77-20.465-.65-36.705-1.68-43.38-2.747-3.8-.607-4.745-.368-4.745 1.203 0 2.414-.922 3.003-8.081 5.157-5.128 1.543-5.666 1.51-5.64-.359zm223.18-856.753a579.867 579.867 0 0 0-.617-3.278c-.051-.256-.944.24-1.984 1.104-1.437 1.193-1.55 1.978-.472 3.278 2.15 2.59 3.66 2.048 3.073-1.104zm-699.46 840.387c0-.728.562-1.324 1.25-1.324.687 0 1.25.248 1.25.551 0 .303-.563.899-1.25 1.324-.688.425-1.25.177-1.25-.551zm-3.045-5.44c.47-1.233 1.169-1.927 1.553-1.542.385.385.001 1.393-.853 2.241-1.235 1.226-1.378 1.082-.7-.7zm426.25-54.268c-.678-1.781-.535-1.925.7-.7.854.849 1.238 1.857.853 2.242-.384.385-1.083-.309-1.553-1.542zM178.75 716.25c0-.688.53-1.25 1.176-1.25.647 0 1.524.562 1.949 1.25.425.687-.105 1.25-1.176 1.25-1.072 0-1.95-.563-1.95-1.25zm63.374-105.426c-.353-.922-.141-2.469.472-3.437.812-1.283 1.12-.826 1.135 1.675.02 3.733-.592 4.405-1.607 1.762zm43.71-29.157c-.46-.459-.834-1.415-.834-2.125 0-.784.582-.71 1.479.187.814.814 1.189 1.77.833 2.125-.355.355-1.02.27-1.479-.187zm1069.79-17.917c-.424-.688-.176-1.25.552-1.25s1.324.562 1.324 1.25c0 .687-.248 1.25-.551 1.25-.304 0-.9-.563-1.324-1.25zm120.87-488.125c-.026-2.063.233-3.058.576-2.211.342.846.363 2.533.046 3.75-.317 1.216-.597.523-.623-1.54z"/><path d="M1375.78 317.57c-.387-.624-.145-1.48.537-1.901.682-.421 1.24.09 1.24 1.135 0 2.142-.732 2.458-1.778.766z" fill="#520"/><path d="M1377.19 323.096v-9.757c0-.938.202-5.694 0-6.097-.267-.536-1.954.197-3.658 1.22-3.198 1.918-4.853 3.14-7.317 6.097-.938 1.126-1.403 2.622-2.439 3.659-1.036 1.036-2.622 1.402-3.659 2.439-.582.582-1.74 3.138-1.22 3.658.288.288.814 0 1.22 0 .407 0 .856.182 1.22 0 .514-.257.77-.86 1.22-1.22 1.587-1.27 3.154-2.58 4.878-3.658 5.152-3.22 5.15-1.491 9.756-6.098 1.437-1.437 2.115-3.555 3.658-4.878 1.38-1.183 3.366-1.43 4.878-2.439 1.057-.704 5.118-5.118 6.098-6.097.406-.407-.963.705-1.22 1.22-.182.363.182.855 0 1.219-.257.514-.874.76-1.22 1.22-.879 1.172-1.402 2.622-2.438 3.658-1.037 1.036-2.514 1.523-3.659 2.439-.898.718-1.626 1.626-2.439 2.439-.813.813-1.925 1.41-2.439 2.439-.363.727.257 1.668 0 2.439-.182.545-1.107.656-1.22 1.22-.318 1.594-1.625 4.878 0 4.878 1.819 0 1.627-3.252 2.44-4.878.406-.813.674-1.712 1.22-2.44 2.381-3.176 2.477-1.335 3.658-4.878.128-.385.287-.932 0-1.219-.122-.122-3.537-.122-3.659 0-.643.643-.577 1.796-1.22 2.439-.574.575-1.864-.575-2.438 0-.288.287.128.834 0 1.22l-1.22 2.439c-.406 0-.932-.288-1.22 0-.287.287-.406 1.219 0 1.219.575 0 .963-.705 1.22-1.22.182-.363 0-.812 0-1.219v-2.439c0-.407.288-.932 0-1.22-.287-.287-.932-.287-1.22 0-.287.288 0 .813 0 1.22-.406.813-.576 1.796-1.219 2.439-.643.643-1.796.577-2.439 1.22-.643.642-.752 1.66-1.22 2.439-.754 1.256-1.783 2.347-2.438 3.658-.364.727.363 1.712 0 2.44-.16.317-2.173 1.485-1.22 2.438.287.288.813 0 1.22 0 1.501 0 2.257.182 3.658-1.22.643-.642.376-2.1 1.22-2.438 1.51-.604 3.525.902 4.878 0 1.512-1.009 1.43-3.366 2.439-4.878 3.014-4.521 2.439-.224 2.439-4.878 0-.814.575-1.865 0-2.44-.407-.406-.813.813-1.22 1.22l-2.439 2.439c-.406.407-.9.741-1.22 1.22-.504.756-.576 1.796-1.219 2.439-.643.642-1.683.715-2.439 1.22-.478.318-.813.812-1.22 1.219-.812.813-1.8 1.482-2.438 2.439-.226.338.128.833 0 1.22-.288.861-1.22 1.53-1.22 2.438 0 .407.932.288 1.22 0 .839-.839-1.78-4.175 2.439-4.878 1.653-.275 3.44 2.082 4.878 1.22 1.437-.863.357-3.441 1.22-4.878.467-.78 1.711-.675 2.438-1.22.92-.69 1.626-1.626 2.44-2.439l-1.22 1.22c-.813.813-1.802 1.482-2.44 2.439-1.008 1.512-1.019 3.742-2.438 4.878-.953.761-2.44 0-3.659 0-.406 0-1.22.406-1.22 0 0-.575.645-1.22 1.22-1.22 1.286 0 3.084 2.37 3.659 1.22.927-1.854-1.723-4.087-1.22-6.098.203-.813 5.285-4.878 6.098-6.098.225-.338 0-.813 0-1.219 0-.813.363-1.712 0-2.44-.407-.812-1.894.493-2.44 1.22-.879 1.173-1.625 2.44-2.438 3.659-.813 1.22-1.895 2.298-2.44 3.659-.301.754.258 1.667 0 2.439-1.794 5.383-1.219-4.431-1.219 3.658v-1.22c0-.764-.15-4.727 0-4.877 3.166-3.167 2.44 1.105 2.44-3.659" fill="none" stroke="#000"/></svg>