<svg xmlns="http://www.w3.org/2000/svg" xmlns:dc="http://dublincore.org/documents/dcmi-terms/" height="812.684" version="1.2" viewBox="0 0 531.117 812.684" width="531.117" overflow="inherit"><metadata><dc:description>Silhouette of Anomura, processed by PhyloPic Tools (https://github.com/eweitz/phylopic-tools)</dc:description><dc:source>http://phylopic.org/image/1db06ea6-d1b9-4369-b62c-9bbc1b99c30b</dc:source><dc:creator>Matthias Buschmann (vectorized by T. Michael Keesey)</dc:creator><dc:license>http://creativecommons.org/licenses/by-sa/3.0/</dc:license></metadata><path d="M0 504.403l.731-5.956c.917-14.324 14.353-16.021 15.078-24.344 12.288-7.943 24.478-18.418 34.424-26-.653-2.924-1.148-2.666-1.498-4.213 3.322-4.17 9.638-4.511 12.258-9.579-2.072-14.863-23.752-24.788-19.192-40.641 2.902-10.09 16.776-9.346 22.41-18.407 2.022-13.436 2.855-17.456-.681-27.286 3.433-9.452.016-15.247-4.511-20.704-.163-10.554-3.317-12.882-5.017-24.796-2.773-19.432-16.579-31.739-.838-42.417-.294-5.154-3.699-7.877-5.608-11.771-1.033-19.85 10.017-25.833 10.062-49.14 6.223-7.731 4.92-25.094 14.573-28.437-3.543-10.441 8.083-9.948 5.414-19.485 6.845-10.763 19.206-14.469 21.886-30.562 5.215-5.38 14.547-9.681 15.217-17.274 1.626-1.652 4.631 2.147 7.07-.14.08-1.062 10.744-17.201 22.428-10.345-4.995 13.939-13.644 33.041-17.497 52.257 19.853-13.572 27.189-32.201 45.166-47.854 5.598 1.06 11.007 2.727 13.652 3.69-1.813 31.699-34.932 44.478-34.438 75.366-6.749 7.824-12.4 17.052-14.816 30.422-12.69 11.705-15.817 35.649-29.791 45.711 1.001 3.291 5.066-.763 5.834 1.724-.229 4.666-.012 8.982 1.515 12.276 7.725-2.747 12.758-8.938 17.952-14.924 5.697 8.887-1.341 24.96-6.754 30.404.906 6.47 2.689 12.256 8.219 15.114 5.186.128 6.211-5.067 9.908-6.844 12.893 3.124 1.096 13.925-2.314 18.858.988 7.604 9.031 9.694 8.847 18.214 10.354-.014 13.313 5.75 16.769 11.126-2.244 9.861-4.93 35.664 9.632 36.444.153 3.468-1.807 12.295-.33 19.103 9.04-5.992 22.968 5.416 28.278-.56 1.155-3.594-1.173-4.468-.018-8.062-.826-2.944-4.55-3.624-7.453-4.945 2.075-9.594 6.526-16.147 11.734-21.732 10.029 1.043 19.985.238 25.911-5.887-.29 7.723 10.421 2.431 11.928 9.523 7.159-5.053 20.674-8.804 24.534-11.093.154-7.634 2.761-6.626 3.569-12.66 4.34.498 9.013.735 10.674 3.326 14.877-13.282-13.37-22.911-12.853-34.826 5-2.673 9.156 2.989 12.538 4.562 10.016.307 11.75-5.361 16.351-10.083 2.285-13.452-2.888-21.075-4.164-31.743.233-3.148 4.261-1.438 5.45-3.362-1.049-8.752-8.882-12.204-8.36-22.184 4.762.168 4.799 4.028 9.561 4.196 12.77-19.643-15.506-27.063-12.262-47.85 9.394 3.044 13.044 14.631 20.374 14.59 4.531-.025 2.323-3.167 3.587-4.597.927-1.048 3.2-5.064 2.333-10.796 1.527-1.491 5.665.358 7.192-1.132 2.219-12.203-1.313-19.914-12.452-21.678-4.146-7.528-9.861-13.832-13.444-21.801-14.271-11.67-17.103-27.788-31.59-38.132-9.691-40.586-57.029-51.757-76.222-84.918 2.178-3.72 5.908-5.453 9.037-7.958 12.908 6.768 30.348 12.885 42.959 19.378 4.449 4.026 6.003 8.906 14.541 12.868 1.824.845 4.158-.336 5.956.73 6.416 3.81 18.519 19.695 22.341 6.772 1.965-6.646-5.541-10.853-8.969-17.221-1.871-3.475-1.427-9.246-3.501-12.52-7.285-11.5-20.553-15.505-28.698-20.65 2.014-5.852-2.426-8.043.469-12.032 4.712.287 8.473-.641 12.276-1.516l17.866 2.193c3.326 5.576 10.775 3.396 14.158 7.783-.446-.95-2.453-4.712-.75-2.107 9.656 10.782 22.534 18.477 32.564 30.192 4.104 4.793 5.637 11.763 8.968 17.221 9.582 15.692 26.523 28.125 30.494 47.065 1.291 5.273 8.047 6.276 6.357 13.877 3.383 8.125 7.98 15.302 12.329 22.671.348 3.125-2.071 2.709-1.724 5.834 6.67 11.839 8.229 27.669 6.429 46.127 2.466 3.458 8.565 4.076 10.065 8.288-7.273 24.15-3.15 48.417-10.373 76.304.658 1.579 3.02 1.829 4.719 2.595 6.752 25.79-26.917 61.645-9.606 86.474 8.247-.165 11.004-7.355 17.343-9.962 6.396 5.472 6.605 15.776 16.909 18.194 2.49 13.381-3.272 19.358-6.005 32.512-3.455 2.47-9.5 1.623-11.771 5.607 12.109 2.229 34.682-4.842 45.779 4.611 8.834-2.785 19.101-4.41 24.814 3.047 22.131-2.882 66.345-13.783 65.16 19.08l-.487 3.97c-4.874 2.184-7.877 6.763-11.388 10.692-10.311.877-10.429-6.21-14.906-9.89-12.893 3.355-39.062-4.88-45.134 6.55-8.469-7.284-16.409 1.201-24.936-2.053-8.163 7.05-27.014 1.7-38.936 5.296-1.075 7.721-2.782 15.934 1.655 19.347-2.35 34.748 5.966 76.843-2.604 111.513-2.297 9.29-8.32 15.599-2.803 22.828 9.242-1.783 1.925-13.831 4.665-21.593 5.409-.038 3.747 5.448 8.324 6.06 5.012-3.575 3.335-10.232 4.805-14.522 2.548-2.283 2.105 1.757 5.712 2.717 5.428-4.187-.294-11.736 2.07-16.874 4.562-2.687 4.097 4.759 8.446 5.067 5.029-.515 3.032-9.611 2.698-13.773 3.258-2.195 4.68 4.679 8.445 5.065 4.201-.749 4.576-6.392 6.303-10.309 7.422-6.58 19.999-6.563 33.852-4.912 18.974 10.3 17.639 36.468 28.77 52.899-.781 6.292 1.175 10.446 2.143 15.375-2.793 5.613-6.209 10.43-12.502 11.562.025 16.224-11.872 21.069-7.484 36.359-3.23 2.375-6.943 4.132-9.037 7.957 1.178 16.69-7.229 32.632-12.918 47.783-15.196 3.618-31.57 14.956-46.492 9.406-.029 3.404-2.104-.925-5.206 1.376-2.301.19 2.946-5.106-.262-6.077 5.237 2.481 7.28-2.003 15.497-3.136 9.377-14.93 20.317-41.761 21.346-50.778-2.484-2.516 3.643-3.682 3.83-6.582-.787-19.951 14.992-42.518 8.545-61.416-9.867 3.066-15.785 11.19-19.796 21.749-14.483 3.286-24.425 12.385-33.066 23.146-9.44 7.983-28.317 4.714-32.335 17.188-2.225 6.907.012 19.962.438 29.271.121 2.638-1.115 4.616-.854 6.948.816 7.258 4.26 12.658 4.633 19.711 1.367 25.751-16.183 40.361-37.086 55.897-6.917 16.03-25.178 17.544-34.911 29.97-2.324-.58 1.432-2.55 2.351-2.732-16.245 9.096-34.295 12.869-58.141 14.021l-16.874-2.071c-8.413-5.786-24.96-9.096-28.68-12.587-11.222-4.546-20.237-20.174-35.402-23.489.521-1.347 1.758.129 1.863 1.236 2.932-.936-2.875-2.436-1.376-5.206-17.347-11.272-25.67-29.597-36.692-45.811.909-2.807 1.361 1.713 2.856 1.357-1.688-1.673.677-6.512-1.011-8.185-.809 5.639 1.58-29.817 7.607-37.352-1.123-1.293-4.372-4.491-.749-2.106-10.871-8.285-9.299-24.349-15.708-36.184-6.691-12.352-17.495-19.979-29.831-27.841-6.487-8.99-13.223-17.785-24.362-23.141-2.418-4.392-4.915-8.723-9.7-11.266-8.275 17.556-12.103 37.954-12.516 60.93-8.329 4.359-8.484 16.712-7.137 25.319 2.14 13.68 17.384 27.441 26 34.423-2.317 6.223-10.626 4.776-15.985 7.105-1.772 3.062 2.94 7.972.262 6.077 1.012 1.062-4.699 4.885-7.922 7.089-2.882-1.639-2.221-6.043-5.103-7.68-5.161-1.861-9.789 1.278-12.903-1.584-.137-5.535 5.021-4.293 5.188-9.438-.806-5.653-6.004-7.873-13.043-8.654-.712-6.023-5.907-8.545-8.463-13.128 4.478-29.332 5.917-65.47 16.049-89.713-1.452-5.746-4.871-9.954-8.342-14.122 2.551-6.65 6.923-8.454 4.057-16.63 1.623-1.751 4.035-2.493 6.442-3.239-.206-7.502 4.028-12.96 2.315-18.858 10.412-2.753 16.67-10.821 29.498-10.484 2.648-.438 3.837-2.745 3.83-6.583 19.396 9.673 24.731 30.332 42.265 41.457-1.119 3.867.603 5.513 2.125 7.314 10.75-2.893 8.956 22.471 18.285 23.402 6.478-10.732-7.844-21.074-3.658-27.652-10.914-11.583-14.147-33.602-24.277-40.257-3.618 1.814-.568-2.752-.627-3.1-1.932-11.472-9.653-16.635-14.942-26.015-.461-.817 1.792-.27 1.985.244-.492-1.312-2.927-1.89-3.604-3.466-.518-1.205.786-3.344.487-3.969-2.767-5.787-7.344-10.195-10.205-15.358-7.73.427-13.473 7.424-18.214 8.848 5.372-.021-1.53.119-.993-.123-7.044 3.155-15.294 13.154-25.144 16.057.904 10.966 8.347 20.574 12.957 25.771C28.986 535.826 14.197 512.352 0 504.403zm76.107-78.312c-.599-.131-1.157-.292-.871-1.114 7.115 5.349 9.604 5.034 23.961 9.993 2.481-1.17-1.553-3.384 2.351-2.734-5.562-12.128-10.932-40.754-28.089-25.612 9.066-6.872 5.993-6.78-3.727-2.472-1.207 14.849-2.038 16.621 6.375 21.939z" fill-rule="evenodd"/></svg>