<svg xmlns="http://www.w3.org/2000/svg" xmlns:dc="http://dublincore.org/documents/dcmi-terms/" height="1300.5" version="1.2" viewBox="0 0 943.809 1300.5" width="943.809" overflow="inherit"><metadata><dc:description>Silhouette of Anoplura, processed by PhyloPic Tools (https://github.com/eweitz/phylopic-tools)</dc:description><dc:source>http://phylopic.org/image/7af6c7fb-1fb2-4636-8a53-28505bc05361</dc:source><dc:creator>Kosta Mumcuoglu (vectorized by T. Michael Keesey)</dc:creator><dc:license>http://creativecommons.org/licenses/by-sa/3.0/</dc:license></metadata><path d="M905.559 546.25c-15.89 4.57-21.6-13.15-35-9-2.99-1.68-4.76-4.58-7-7-5.51.44-7.03.09-13 1-.33-4.67-2.65-7.35-5-10-8.88.82-10.23-.23-17-2-2.71 4.8 4.35 7.35 5 12-10.35 5.27-.42 14.46 1 22-14.86-2.18-23.2-19.43-36-27-.15-3.18-2.27-4.4-2-8-9.01-2.66-12.03-12.87-21-18-2.05.28-2 2.67-3 4-14.69-21.61-49.29-24.05-75-20-22.65-5.91-44.63-10.36-70-7-2.69.69-1.93-2.07-3-3-12.82 5.86-24.03-11.43-45-7 1.49 7.9 2.44 14.95 5 22 6.08 16.75 24 31.49 24 49 0 4.61-3.69 8.64-3 13 .97 6.17 9.04 9.81 12 15 10.44-7.67 19.24-11.92 32-16 18.99-4.7 42.29 10.54 58 20 15.91 9.58 32.64 15.36 35 38 16.77 9.92 32.24 28.59 42 48 10.54 20.97 14.72 47.28 28 64 5.94 19.38 20.67 44.42 11 67 10.55 21.15-.49 55.91-13 71-4.92 5.94-12.78 11.57-18 11 6.28-15.56 18.43-30.69 18-50-.17-7.77-6.01-15.12-7-23-.64-5.05 2.87-8.6-1-13-3.78-1.45-1.92 2.75-5 2-2.12-4.93.82-8.77-2-13-1.94-2.73-7.08-2.25-9-5 6.55-12.8-7.71-19.63-14-26-5.14 4.82 2.03 12.82 1 20-1.21 5.3-1.87-4.81-7-2-2.53 7.13-2.88 16.45-9 20-.38-22.24-9.76-37.54-7-60-3.76-11.97-5.43-25.29-13-31-1.85-18.81-12.59-28.75-22-40-22.17-3.74-38.4-13.23-60-15-7.28-4.42-12.71-9.64-23-11-5.62-.74-11.67 1.92-17 1-5.3-.92-9.44-7.81-14-3-1-5.66-9.12-4.21-13-7-5.06 27.81 17.93 52.81 20 83 .85 12.38-6.49 27.61-2 39 23.2 20.17 39.13 80.69 5 98 7.92 6.68 13.57 19.12 16 31 6.82 33.37 1.05 69.32-28 78 .3 4.7 7.33 2.67 10 5 12.87 15.98 8.56 47.77 8 70-12 19.33-19.22 43.44-44 50-4.44 11.73 4.89 20.7 6 31 1.36 12.58-7.59 21.07-9 34-10.12 10.88-18.99 23.01-32 31-1.17 2.65 1.92 5.89 0 6 1.01 3.01-2.23 1.77-4 2-1.06 4.41 1.98 7.73 0 10-1.02-.65-1.03-2.3-3-2-2.27 11.15 2.2 31.62-4 43-.87 4.87 3.37 4.63 4 8-3.77.77-4.78-1.22-8-1-8.75 10.59-11.14 27.53-21 37 .18 3.83-.82.36-3 1-1.27 4.63-.17 6.27-1 12-4.1.46.41-2.14-1-5-9.01 5.65-16.98 12.35-25 19 .99 3.72 2.14 2.61 1 7-2.06-.27-.24-4.43-3-4-3.12 4.92-6.35-2.39-8 4-2.83-1.51-5.23-3.44-8-5-4.15 2.19-11.16 1.51-14 5 .65-4.37-4.51-5.05-6-2-.48-5.19-6.5-4.83-10-7-5.09-1.42-1.91 5.42-7 4 4.11-8.48-5.22-8.49-8-13-2.82.51-8.45-1.79-7 3-5.73-6.94-7.02-16.52-18-20-1.33-7.67-6.73-11.27-10-17-4.15-1.15-3.9 2.1-7 2 .58-5.5 2.76-11-1-18-4.98-.92-4.25 3.15-8 1-.56-3.9 3.16-3.5 4-6-4.47-23.8 3.37-43.25-15-58-8.01-6.44-18.25-13.43-25-22-2.18-.18-3.18.82-3 3-.56-15.74-14.62-24.14-14-40 .21-5.2 4.88-10.51 5-16 .28-12.67-11.02-17.97-23-19-26.95-16.56-50.55-71.95-31-113 5.38-1.96 9.69-4.98 13-9 .67-8.25-7.09-10.91-12-8 1.98-5.9-7.53-8.28-12-11-17.01-24.93-13.89-83.5 11-99 5.03-17.02-15.95-23.58-17-41 2.78-26.93 9.52-56.64 28-71-20.5-23.81-2.82-64.14 8-86 .07-8.87-1.44-13.89 0-22-9.87.46-15.08 5.58-23 8-9.24-3.94-9.6.63-20 1-10.69 12.64-33.47 13.19-44 26-9.78-4.24-17.02 9.92-30 9-1.43 3.24-4.02 5.32-5 9-5.93.4-5.94 6.73-11 8-6.54 9.46-7.45 24.55-17 31-1.74 12.59-10.78 23.21-7 38-5.67 12.33-8.27 27.73-13 41-7.23-2.1-4.87-13.8-7-21-5.84-1.51-3.49 5.18-9 4 .6-6.9 6.98-12.78 4-20-10.65 5.57-16.16 14.95-18 27-4.43-.48-4.97 1.38-8 0-2.17 5.24-.91 9.04-2 14-2.71-.92-4.71-1.59-6 1-4.43 9.9-5.55 23.12-14 29-6.38 18.03-.2 40.61 4 57-19.6-9.8-29.54-64.07-11-86-3.11-18.45 2.72-36.65 10-52 2.07-4.36 5.99-12.37 9-17 1.33-2.04 4.7-2.92 6-5 4.31-6.92 7.03-16.95 11-25 3.91-7.93 7.9-15.53 12-23 12-21.87 24.44-38.53 45-50 .2-3.13-.67-7.34 1-9 18.07-25.32 44.74-50.25 77-55 2.54-.12 3.88-1.46 4-4 5.2 3.75 17.8 3.54 25 7 4.73 2.27 4.09 6.24 9 6 6.96-.33 19.72-19.2 11-29 6.33-26.17 27.28-52.94 28-79-15.36-.03-22.63 8.03-35 11-14.77-3.09-13.81 5.07-24 9-2.56-2.77-5.05-5.61-5-11-23.07-3.97-54.07 6.69-78 3-12.49 7.84-23.36 17.31-27 34-13.89 10.11-15.4 32.6-20 52-7.39 4.94-6.97 17.69-13 24-6.14-8.13.46-17.27 0-28-4.44-2.35-4.54 7.15-10 7-.98-7.22 5.79-11.22 4-16-8 .91-14.13 12.19-23 13-2.48 3.42 1.3 7.16-1 10-2.01-.34-3.13.2-3 2-3.21.88-2.07-2.59-4-3-2.96 3.04-3.59 8.41-5 13-2.28.72-5.11.89-7 2-3.95 9.72-6.91 20.42-17 24-9.08 16.12-8.06 38.1-6 57-17.96-16.15-15.96-70.75 4-83 .65-31.69 14.66-50.01 31-66 19.07-34.93 38.93-69.07 79-83 11.12-18.63 37.18-34.89 64-36 22.89-.95 41.09 16.51 53 29 6.68-3.32 11.64-8.36 19-11 2.18-19.15 13.35-29.31 27-37 6.38-9.62 12.61-19.39 23-25-.41-5.76.53-11.1-2-16-5.95-11.5-16.83-24.66-24-37-3.44-5.91-8.11-9.99-12-15-8.61 5.06-16.83 10.5-24 17-41.18 15.2-98.85 1.53-113-36-38.16-8.18-59.21-33.45-76-63-14.04-8.46-21.56-22.37-29-41-3.6-9.01-9.25-18.61-10-25-.66-5.64 1.95-11.43 1-17-2.12-12.41-8.4-18.11-6-35 3.59-25.3 20-48.29 40-59-8.1 19.82-23.29 34.31-21 57 .73 7.2 7.77 13.35 9 21 .56 3.45-1.06 8.36 0 12 1 3.44 5.04 3.53 8 9 4.51 8.34 1.28 18.32 14 15-1.05 19.72 13.64 23.69 27 29 3.75-3.25 4.75-9.25 7-14-1.46-2.87-1.72-6.95-5-8 7.13-6.17-3.88-18.95-2-26 14.7 5.63 23.21 17.46 30 31 .11 20.92 8.54 42.1 19 56 16.42 15.39 45.11 10.28 66 21 13.36-5.25 24.47 4.57 36 6 8.51 1.06 17.64-1.94 26-2 8.44-.06 15.24 5.13 23 2 10.02 11.32 27.77 6.92 42 10 8.96 1.94 15.15 9.09 24 7 5.03 15.48 21.76 1.83 31 2-9.34-14.57-28.81-24.49-27-49-2.21-1.46-4.09-3.24-6-5 9.01-7.99 8.96-25.04 14-37-5.79-8.55-13.19-15.48-13-30-9.72-11.28-25.61-16.39-28-35-8.74-7.3-24.64-11.51-22-27-9.7-4.55-25.27-13.81-19-25-13.9-8.52-16.82-34.33 1-40 7.27 7.73 15.62 14.38 16 29 1.71 1.54 3.64-.35 7 1 3.25 7.75 6.67 15.33 9 24 12.66-2.74 17.39 18.18 25 27 3.46.81 4.22-1.87 6 0 8.07 9.26 16.68 17.98 24 28 13.78-1.12 16.1 9.23 24 14 6.19-22.81 20.41-37.59 37-50 34.8-5.86 48.9 24.67 54 55 8.54-4.13 14.69-10.64 27-11 9.35-7.31 19.02-14.31 30-20 4.05-1.38 3.16 2.17 6 2 9.96-7.16 19.61-22.62 34-19 4.71-8.29 7.12-18.88 19-20 4.69-10.98 11.75-19.58 22-25 16.89 6.43 8.48 34.7-6 38 .85 15-12.45 20.67-24 20-.2 12.56-16.79 18.38-29 19-7.98 14.33-24.31 19.89-37 27-2.33 12-8.71 19.96-15 28-4.06 14.1 7.53 24.55 6 36-.67 5.03-10.62 25.33-14 30-5.64 7.8-18.87 8.51-21 19 8.72.28 10.27 7.73 21 6 18.51-14.34 51.29-5.11 73-17 13.62 1.25 33.36-2.46 47 3 13.71-6.71 28.49-3.55 43-4 11.42-.35 26.13-7.08 37-1 22.5.29 35.38-10.65 49-25 6.18-28.49 19.13-50.2 39-65 3.31 11.5-1.69 28.43-6 37 .49 5.51 2.3 9.7 3 15 16.13-3.2 32.08-6.58 34-24 1.01-1.82 6.37 1.56 10 0 3.51-4.49 4.73-11.27 8-16 1.87-1.96 3.66-.31 6 0 6.46-11.54 11.54-24.46 23-31 7.7-18.02 5.38-40.86 0-60 5.16-1.75 8.21 5.98 11 12 10.78 23.21 12.71 71.69-11 84-6.21 37.46-26.11 61.22-53 78-3 11.74-15.92 16.14-26 25-12.35 10.85-36.34 23.5-54 25-6.61.56-11.93-.63-17 4-.25 3.09-1.01 5.65-2 8-17.84 10.38-40.98 15.89-63 16-25.4.13-44.96-13.17-60-28-6.12 4.88-12.4 9.6-14 19-8.25 10.73-27.29 22.48-25 37 .87 5.53 6.55 14.89 10 20 8.96 13.28 27.89 20.34 33 35-1.51 15.17 10.41 16.92 17 24 8.63-6.7 17.76-12.91 26-20 30.46-6.52 72 .73 86 25 43.41 2.93 68.92 23.74 96 43 27.95 9.87 47.49 21.97 61 46 30.97 8.03 47.44 30.56 50 67-11.47-16.73-19.59-36.8-38-44z"/></svg>