<svg xmlns="http://www.w3.org/2000/svg" xmlns:dc="http://dublincore.org/documents/dcmi-terms/" height="476.555" width="564.721"><metadata><dc:description>Silhouette of Anthurium andraeanum, processed by PhyloPic Tools (https://github.com/eweitz/phylopic-tools)</dc:description><dc:source>http://phylopic.org/image/a7e770cc-6088-4bc8-a92e-8ffcb4ff548e</dc:source><dc:creator>Alexander Schmidt-Lebuhn</dc:creator><dc:license>http://creativecommons.org/licenses/by-nc-sa/3.0/</dc:license></metadata><path d="M195.578 415.14c.092.146.626 11.792 6.09 17.257 4.634 4.634 4.035 16.189 7.106 22.33 2.25 4.5 3.946 9.31 5.075 14.212 1.76 7.64 15.162 9.263 18.271 3.045.005-.01-8.176-27.463-9.135-28.422-6.75-6.75-2.153-23.468-9.136-30.452-3.191-3.19-19.286-3.725-19.286-3.045 0 1.726 2.707 4.737 1.015 5.076-1.659.331 0-3.384 0-5.076" stroke="#000" stroke-width="1.501"/><path d="M179.337 359.312c2.126 14.194-70.873 35.89-82.22 13.196-6.384-12.768 4.68-22.726-6.09-33.497-13.652-13.652-41.097-13.679-56.843-22.331-15.323-8.42-20.488-33.782-27.407-48.723-4.284-9.25 3.797-34.776-3.045-41.617-.828-.828-2.875-13.104-2.03-16.241 2.44-9.062 3.961-18.122 8.098-26.396 2.641-5.282 8.643-14.726 11.686-17.769 44.447-44.446 80.589-47.718 158.866-42.115 11.412.816 27.467-3.462 39.587 0 7.394 2.111 43.624-2.55 52.784 2.03 6.456 3.228 64.4-1.242 70.039-4.06 19.716-9.858 83.71 11.403 99.475 19.286 2.99 1.494 13.08-1.132 15.226 1.015 10.398 10.397 61.404 2.787 78.16 11.165 7.795 3.898 8.12 12.552 8.12 19.286 0 .985-7.717 1.418-5.075 4.06 10.164 10.164 15.018 28.741 17.78 43.139 9.38 23.448 8.338 71.884 1.019 93.865-3.207 9.633-6.762 24.236-9.663 29.466-8.246 14.867-12.066 24.763-21.294 33.992-3.583 3.582-15.462 17.337-18.796 21.353-4.97 5.99-24.21 25.825-29.492 28.466-20.385 10.193-23.809 9.601-49.18 15.665-17.28 4.13-125.512 2.208-142.109-6.09-10.781-5.39-13.954-15.226-26.391-15.226-6.193 0-30.725 7.848-35.527 3.045-2.117-2.117-7.883-1.403-11.166-3.045-20.14-10.07-40.4-7.308-53.798 6.09-1.505 1.505-42.155-7.583-59.888 10.15-9.976 9.977-40.383-3.483-33.497-17.255 16.991-33.983 70.767-10.88 87.295-27.407 5.197-5.197 9.603-13.663 14.21-18.27 3.992-3.993 9.15-6.718 11.166-15.227z" stroke="#fff" stroke-width="3.003"/><path d="M180.352 354.237c4.297-.588-7.012-20.394-3.045-24.361 16.864-16.865 20.411-53.89 39.598-73.077 16.641-16.64 43.963-52.819 58.36-69.02 6.99-7.865 18.428-18.986 24.864-26.403 16.625-19.159 28.578-26.335 42.633-43.648 3.825-4.712 16.628-14.576 21.847-19.795 14.375-14.375 24.027-17.966 38.045-31.984 12.75-12.751 25.911-25.393 47.198-36.036 23.504-11.752 30.234-38.97 66.485-26.886 16.828 28.047-28.223 56.644-40.603 69.024-7.525 7.525-12.093 14.1-20.818 22.826-7.226 7.226-16.935 14.927-23.844 21.836-12.357 12.357-17.246 19.778-30.445 32.977-6.635 6.635-19.507 15.96-24.368 20.821-7.796 7.796-12.106 17.665-20.313 25.871-19.397 19.398-35.774 41.382-53.787 59.394-15.343 15.343-28.962 39.113-44.662 54.813-18.402 18.402-13.14 40.067-46.693 56.844-11.966 5.983-26.44-2.53-30.452-13.196z"/><g fill="#fff"><path d="M312.288 185.59a3.056 3.056 0 1 1-6.113 0 3.056 3.056 0 1 1 6.113 0zM329.648 187.839a3.056 3.056 0 1 1-6.112 0 3.056 3.056 0 1 1 6.112 0zM345.212 189.204a3.056 3.056 0 1 1-6.112 0 3.056 3.056 0 1 1 6.112 0zM297.7 186.2a3.056 3.056 0 1 1-6.112 0 3.056 3.056 0 1 1 6.113 0zM306.165 170.91a3.056 3.056 0 1 1-6.112 0 3.056 3.056 0 1 1 6.112 0zM321.73 170.09a3.056 3.056 0 1 1-6.113 0 3.056 3.056 0 1 1 6.113 0zM337.84 171.455a3.056 3.056 0 1 1-6.113 0 3.056 3.056 0 1 1 6.113 0zM354.77 172.274a3.056 3.056 0 1 1-6.113 0 3.056 3.056 0 1 1 6.112 0zM369.241 172.274a3.056 3.056 0 1 1-6.112 0 3.056 3.056 0 1 1 6.112 0zM289.236 200.945a3.056 3.056 0 1 1-6.113 0 3.056 3.056 0 1 1 6.113 0zM304.8 202.857a3.056 3.056 0 1 1-6.112 0 3.056 3.056 0 1 1 6.112 0zM321.73 203.403a3.056 3.056 0 1 1-6.113 0 3.056 3.056 0 1 1 6.113 0zM338.932 203.13a3.056 3.056 0 1 1-6.112 0 3.056 3.056 0 1 1 6.112 0zM379.87 158.284a3.056 3.056 0 1 1-6.113 0 3.056 3.056 0 1 1 6.112 0zM297.837 218.694a3.056 3.056 0 1 1-6.112 0 3.056 3.056 0 1 1 6.112 0zM281.454 218.148a3.056 3.056 0 1 1-6.113 0 3.056 3.056 0 1 1 6.113 0zM326.781 142.238a3.056 3.056 0 1 1-6.112 0 3.056 3.056 0 1 1 6.112 0zM363.917 157.53a3.056 3.056 0 1 1-6.113 0 3.056 3.056 0 1 1 6.113 0zM346.987 155.891a3.056 3.056 0 1 1-6.112 0 3.056 3.056 0 1 1 6.112 0zM330.877 155.072a3.056 3.056 0 1 1-6.113 0 3.056 3.056 0 1 1 6.113 0zM316.405 156.71a3.056 3.056 0 1 1-6.113 0 3.056 3.056 0 1 1 6.113 0zM315.586 219.513a3.056 3.056 0 1 1-6.113 0 3.056 3.056 0 1 1 6.113 0zM278.177 267.298a3.056 3.056 0 1 1-6.113 0 3.056 3.056 0 1 1 6.113 0zM356.544 139.508a3.056 3.056 0 1 1-6.112 0 3.056 3.056 0 1 1 6.112 0zM340.707 140.054a3.056 3.056 0 1 1-6.113 0 3.056 3.056 0 1 1 6.113 0zM267.255 217.875a3.056 3.056 0 1 1-6.113 0 3.056 3.056 0 1 1 6.113 0zM267.097 251.942a3.056 3.056 0 1 1-6.113 0 3.056 3.056 0 1 1 6.113 0zM251.69 249.55a3.056 3.056 0 1 1-6.112 0 3.056 3.056 0 1 1 6.112 0zM290.465 235.077a3.056 3.056 0 1 1-6.113 0 3.056 3.056 0 1 1 6.113 0zM238.857 247.911a3.056 3.056 0 1 1-6.113 0 3.056 3.056 0 1 1 6.113 0zM299.748 249.276a3.056 3.056 0 1 1-6.112 0 3.056 3.056 0 1 1 6.112 0zM283.638 251.734a3.056 3.056 0 1 1-6.112 0 3.056 3.056 0 1 1 6.112 0zM307.121 234.531a3.056 3.056 0 1 1-6.113 0 3.056 3.056 0 1 1 6.113 0zM257.97 233.712a3.056 3.056 0 1 1-6.112 0 3.056 3.056 0 1 1 6.113 0zM272.989 234.804a3.056 3.056 0 1 1-6.113 0 3.056 3.056 0 1 1 6.113 0zM216.466 278.767a3.056 3.056 0 1 1-6.112 0 3.056 3.056 0 1 1 6.112 0zM261.247 267.844a3.056 3.056 0 1 1-6.112 0 3.056 3.056 0 1 1 6.112 0zM232.303 264.568a3.056 3.056 0 1 1-6.112 0 3.056 3.056 0 1 1 6.112 0zM245.41 265.387a3.056 3.056 0 1 1-6.112 0 3.056 3.056 0 1 1 6.112 0zM393.25 156.1a3.056 3.056 0 1 1-6.113 0 3.056 3.056 0 1 1 6.112 0zM350.264 125.582a3.056 3.056 0 1 1-6.113 0 3.056 3.056 0 1 1 6.113 0zM227.661 280.951a3.056 3.056 0 1 1-6.112 0 3.056 3.056 0 1 1 6.112 0zM360.64 110.837a3.056 3.056 0 1 1-6.112 0 3.056 3.056 0 1 1 6.112 0zM398.868 127.22a3.056 3.056 0 1 1-6.112 0 3.056 3.056 0 1 1 6.112 0zM381.665 126.128a3.056 3.056 0 1 1-6.112 0 3.056 3.056 0 1 1 6.112 0zM365.009 124.49a3.056 3.056 0 1 1-6.112 0 3.056 3.056 0 1 1 6.112 0zM210.459 294.604a3.056 3.056 0 1 1-6.113 0 3.056 3.056 0 1 1 6.113 0zM390.403 143.057a3.056 3.056 0 1 1-6.112 0 3.056 3.056 0 1 1 6.112 0zM392.588 110.017a3.056 3.056 0 1 1-6.113 0 3.056 3.056 0 1 1 6.113 0zM375.931 110.017a3.056 3.056 0 1 1-6.112 0 3.056 3.056 0 1 1 6.112 0zM194.622 308.53a3.056 3.056 0 1 1-6.113 0 3.056 3.056 0 1 1 6.113 0zM273.535 280.678a3.056 3.056 0 1 1-6.113 0 3.056 3.056 0 1 1 6.113 0zM268.735 293.72a3.056 3.056 0 1 1-6.112 0 3.056 3.056 0 1 1 6.112 0zM222.2 262.93a3.056 3.056 0 1 1-6.112 0 3.056 3.056 0 1 1 6.112 0zM222.473 296.242a3.056 3.056 0 1 1-6.112 0 3.056 3.056 0 1 1 6.112 0zM232.85 311.26a3.056 3.056 0 1 1-6.113 0 3.056 3.056 0 1 1 6.113 0zM248.687 310.168a3.056 3.056 0 1 1-6.113 0 3.056 3.056 0 1 1 6.113 0zM404.602 141.692a3.056 3.056 0 1 1-6.112 0 3.056 3.056 0 1 1 6.112 0zM373.747 141.965a3.056 3.056 0 1 1-6.113 0 3.056 3.056 0 1 1 6.113 0zM241.041 282.862a3.056 3.056 0 1 1-6.112 0 3.056 3.056 0 1 1 6.112 0zM257.425 283.135a3.056 3.056 0 1 1-6.113 0 3.056 3.056 0 1 1 6.113 0zM218.65 311.26a3.056 3.056 0 1 1-6.112 0 3.056 3.056 0 1 1 6.113 0zM205.544 310.168a3.056 3.056 0 1 1-6.113 0 3.056 3.056 0 1 1 6.113 0zM253.329 297.334a3.056 3.056 0 1 1-6.113 0 3.056 3.056 0 1 1 6.113 0zM236.945 297.334a3.056 3.056 0 1 1-6.112 0 3.056 3.056 0 1 1 6.112 0zM463.152 40.596a3.056 3.056 0 1 1-6.113 0 3.056 3.056 0 1 1 6.113 0zM447.745 41.48a3.056 3.056 0 1 1-6.112 0 3.056 3.056 0 1 1 6.112 0zM485.427 13.628a3.056 3.056 0 1 1-6.112 0 3.056 3.056 0 1 1 6.112 0zM487.612 25.097a3.056 3.056 0 1 1-6.113 0 3.056 3.056 0 1 1 6.113 0zM473.413 26.189a3.056 3.056 0 1 1-6.113 0 3.056 3.056 0 1 1 6.113 0zM502.084 25.097a3.056 3.056 0 1 1-6.113 0 3.056 3.056 0 1 1 6.113 0zM513.825 20.455a3.056 3.056 0 1 1-6.112 0 3.056 3.056 0 1 1 6.112 0zM491.434 40.115a3.056 3.056 0 1 1-6.112 0 3.056 3.056 0 1 1 6.112 0zM477.508 39.569a3.056 3.056 0 1 1-6.112 0 3.056 3.056 0 1 1 6.112 0zM466.313 54.314a3.056 3.056 0 1 1-6.112 0 3.056 3.056 0 1 1 6.112 0zM470.136 69.332a3.056 3.056 0 1 1-6.113 0 3.056 3.056 0 1 1 6.113 0zM500.172 11.444a3.056 3.056 0 1 1-6.112 0 3.056 3.056 0 1 1 6.112 0zM450.203 55.133a3.056 3.056 0 1 1-6.113 0 3.056 3.056 0 1 1 6.113 0zM412.636 81.555a3.056 3.056 0 1 1-6.112 0 3.056 3.056 0 1 1 6.112 0zM419.893 97.73a3.056 3.056 0 1 1-6.112 0 3.056 3.056 0 1 1 6.112 0zM434.912 99.095a3.056 3.056 0 1 1-6.113 0 3.056 3.056 0 1 1 6.113 0zM443.65 83.258a3.056 3.056 0 1 1-6.113 0 3.056 3.056 0 1 1 6.112 0zM456.21 69.605a3.056 3.056 0 1 1-6.112 0 3.056 3.056 0 1 1 6.112 0zM479.966 56.225a3.056 3.056 0 1 1-6.113 0 3.056 3.056 0 1 1 6.113 0zM458.668 84.623a3.056 3.056 0 1 1-6.113 0 3.056 3.056 0 1 1 6.113 0zM440.646 68.513a3.056 3.056 0 1 1-6.113 0 3.056 3.056 0 1 1 6.113 0zM424.262 68.24a3.056 3.056 0 1 1-6.112 0 3.056 3.056 0 1 1 6.112 0zM427.54 82.439a3.056 3.056 0 1 1-6.113 0 3.056 3.056 0 1 1 6.112 0zM403.783 96.092a3.056 3.056 0 1 1-6.112 0 3.056 3.056 0 1 1 6.112 0zM408.152 112.748a3.056 3.056 0 1 1-6.112 0 3.056 3.056 0 1 1 6.112 0zM423.443 113.84a3.056 3.056 0 1 1-6.112 0 3.056 3.056 0 1 1 6.112 0zM396.526 81.009a3.056 3.056 0 1 1-6.113 0 3.056 3.056 0 1 1 6.113 0zM436.55 113.294a3.056 3.056 0 1 1-6.113 0 3.056 3.056 0 1 1 6.113 0zM418.528 55.68a3.056 3.056 0 1 1-6.112 0 3.056 3.056 0 1 1 6.112 0zM409.79 69.059a3.056 3.056 0 1 1-6.112 0 3.056 3.056 0 1 1 6.112 0zM492.527 55.68a3.056 3.056 0 1 1-6.113 0 3.056 3.056 0 1 1 6.113 0zM504.268 40.115a3.056 3.056 0 1 1-6.112 0 3.056 3.056 0 1 1 6.112 0zM433.546 54.314a3.056 3.056 0 1 1-6.112 0 3.056 3.056 0 1 1 6.112 0zM459.487 25.643a3.056 3.056 0 1 1-6.113 0 3.056 3.056 0 1 1 6.113 0zM516.01 34.108a3.056 3.056 0 1 1-6.113 0 3.056 3.056 0 1 1 6.112 0zM388.765 94.726a3.056 3.056 0 1 1-6.113 0 3.056 3.056 0 1 1 6.113 0zM374.02 97.457a3.056 3.056 0 1 1-6.113 0 3.056 3.056 0 1 1 6.113 0zM447.745 98.003a3.056 3.056 0 1 1-6.112 0 3.056 3.056 0 1 1 6.112 0zM413.613 128.04a3.056 3.056 0 1 1-6.112 0 3.056 3.056 0 1 1 6.112 0zM228.869 325.122a3.056 3.056 0 1 1-6.113 0 3.056 3.056 0 1 1 6.113 0zM211.551 339.931a3.056 3.056 0 1 1-6.112 0 3.056 3.056 0 1 1 6.112 0zM225.204 337.474a3.056 3.056 0 1 1-6.113 0 3.056 3.056 0 1 1 6.113 0zM190.799 323.82a3.056 3.056 0 1 1-6.113 0 3.056 3.056 0 1 1 6.113 0zM244.591 321.363a3.056 3.056 0 1 1-6.113 0 3.056 3.056 0 1 1 6.113 0zM187.795 338.839a3.056 3.056 0 1 1-6.112 0 3.056 3.056 0 1 1 6.112 0zM240.495 332.832a3.056 3.056 0 1 1-6.112 0 3.056 3.056 0 1 1 6.112 0zM209.367 351.946a3.056 3.056 0 1 1-6.113 0 3.056 3.056 0 1 1 6.113 0zM223.566 348.67a3.056 3.056 0 1 1-6.113 0 3.056 3.056 0 1 1 6.113 0zM201.175 326.278a3.056 3.056 0 1 1-6.113 0 3.056 3.056 0 1 1 6.113 0zM214.282 326.005a3.056 3.056 0 1 1-6.113 0 3.056 3.056 0 1 1 6.113 0zM198.444 340.204a3.056 3.056 0 1 1-6.112 0 3.056 3.056 0 1 1 6.112 0zM196.533 353.038a3.056 3.056 0 1 1-6.113 0 3.056 3.056 0 1 1 6.113 0zM179.719 334.133a3.056 3.056 0 1 1-6.113 0 3.056 3.056 0 1 1 6.113 0zM254.967 320.271a3.056 3.056 0 1 1-6.112 0 3.056 3.056 0 1 1 6.112 0zM263.159 304.434a3.056 3.056 0 1 1-6.113 0 3.056 3.056 0 1 1 6.113 0zM198.99 363.414a3.056 3.056 0 1 1-6.112 0 3.056 3.056 0 1 1 6.112 0zM185.61 350.854a3.056 3.056 0 1 1-6.112 0 3.056 3.056 0 1 1 6.113 0zM199.81 293.785a3.056 3.056 0 1 1-6.113 0 3.056 3.056 0 1 1 6.113 0zM205.817 279.04a3.056 3.056 0 1 1-6.113 0 3.056 3.056 0 1 1 6.113 0zM227.115 250.369a3.056 3.056 0 1 1-6.112 0 3.056 3.056 0 1 1 6.112 0zM212.916 266.206a3.056 3.056 0 1 1-6.112 0 3.056 3.056 0 1 1 6.112 0zM222.746 358.5a3.056 3.056 0 1 1-6.112 0 3.056 3.056 0 1 1 6.112 0zM209.913 362.595a3.056 3.056 0 1 1-6.113 0 3.056 3.056 0 1 1 6.113 0zM235.58 347.85a3.056 3.056 0 1 1-6.112 0 3.056 3.056 0 1 1 6.112 0zM249.506 330.101a3.056 3.056 0 1 1-6.113 0 3.056 3.056 0 1 1 6.113 0zM342.46 214.534a3.056 3.056 0 1 1-6.112 0 3.056 3.056 0 1 1 6.113 0zM288.553 274.944a3.056 3.056 0 1 1-6.112 0 3.056 3.056 0 1 1 6.112 0zM352.175 200.945a3.056 3.056 0 1 1-6.112 0 3.056 3.056 0 1 1 6.112 0zM274.9 201.491a3.056 3.056 0 1 1-6.112 0 3.056 3.056 0 1 1 6.112 0zM284.457 187.566a3.056 3.056 0 1 1-6.112 0 3.056 3.056 0 1 1 6.112 0zM360.367 187.292a3.056 3.056 0 1 1-6.112 0 3.056 3.056 0 1 1 6.112 0zM381.666 170.636a3.056 3.056 0 1 1-6.113 0 3.056 3.056 0 1 1 6.113 0zM314.22 245.454a3.056 3.056 0 1 1-6.112 0 3.056 3.056 0 1 1 6.112 0zM254.967 218.694a3.056 3.056 0 1 1-6.112 0 3.056 3.056 0 1 1 6.112 0zM246.502 233.44a3.056 3.056 0 1 1-6.112 0 3.056 3.056 0 1 1 6.112 0zM320.774 230.982a3.056 3.056 0 1 1-6.113 0 3.056 3.056 0 1 1 6.113 0zM330.877 217.875a3.056 3.056 0 1 1-6.113 0 3.056 3.056 0 1 1 6.113 0zM292.649 262.656a3.056 3.056 0 1 1-6.113 0 3.056 3.056 0 1 1 6.113 0zM384.238 83.74a3.056 3.056 0 1 1-6.112 0 3.056 3.056 0 1 1 6.112 0zM316.951 146.06a3.056 3.056 0 1 1-6.112 0 3.056 3.056 0 1 1 6.112 0zM262.34 206.406a3.056 3.056 0 1 1-6.113 0 3.056 3.056 0 1 1 6.113 0zM339.615 125.309a3.056 3.056 0 1 1-6.113 0 3.056 3.056 0 1 1 6.113 0zM514.917 4.89a3.056 3.056 0 1 1-6.112 0 3.056 3.056 0 1 1 6.112 0zM363.098 101.553a3.056 3.056 0 1 1-6.113 0 3.056 3.056 0 1 1 6.113 0zM349.172 114.113a3.056 3.056 0 1 1-6.113 0 3.056 3.056 0 1 1 6.113 0zM330.33 132.681a3.056 3.056 0 1 1-6.112 0 3.056 3.056 0 1 1 6.113 0zM289.372 175.551a3.056 3.056 0 1 1-6.112 0 3.056 3.056 0 1 1 6.112 0zM424.808 126.128a3.056 3.056 0 1 1-6.112 0 3.056 3.056 0 1 1 6.112 0zM482.697 68.786a3.056 3.056 0 1 1-6.113 0 3.056 3.056 0 1 1 6.113 0zM470.136 81.893a3.056 3.056 0 1 1-6.113 0 3.056 3.056 0 1 1 6.113 0zM300.022 162.444a3.056 3.056 0 1 1-6.113 0 3.056 3.056 0 1 1 6.113 0z"/></g></svg>