<svg xmlns="http://www.w3.org/2000/svg" xmlns:dc="http://dublincore.org/documents/dcmi-terms/" height="400" version="1.2" viewBox="0 0 550 400" width="550"><metadata><dc:description>Silhouette of Anthracotheriinae, processed by PhyloPic Tools (https://github.com/eweitz/phylopic-tools)</dc:description><dc:source>http://phylopic.org/image/0e63ddb9-aa9f-4c9f-860f-47a336b1eb59</dc:source><dc:creator>Dmitry Bogdanov</dc:creator><dc:license>http://creativecommons.org/licenses/by/3.0/</dc:license></metadata><path d="M528.177 241.685a69.042 69.042 0 0 1-1.725-3.836 10.117 10.117 0 0 0-1.226-2.096 30.61 30.61 0 0 1-2.482-3.739 94.514 94.514 0 0 0-1.58 11.831c-.494 7.027-2.234 13.786-5.221 20.276a239.137 239.137 0 0 1-1.806 3.837 801.603 801.603 0 0 0-11.155 22.888c-.343.73-.719 1.472-1.128 2.225-2.191 4.04-2.6 8.327-1.225 12.862a13.407 13.407 0 0 0 1.967 3.964 65.539 65.539 0 0 0 5.609 6.899 27.946 27.946 0 0 1 3.288 4.352l3.643 5.899c.021.021.032.054.032.097a14.462 14.462 0 0 1-1.129 3.094 8.738 8.738 0 0 1-1.772 2.322 4.088 4.088 0 0 1-1.321.709l-2.772 4.965.096.612-.902 1.224-3.965 9.254a15.648 15.648 0 0 1-1.58 6.447c-.235.473-.451.978-.645 1.516a106.682 106.682 0 0 1-4.803 11.572l-4.062 1.451c-1.16 1.246-2.6 2.106-4.319 2.578a70.206 70.206 0 0 1-15.73 2.482l-.612-4.353h-.098a4.208 4.208 0 0 0-.547.228 4.232 4.232 0 0 0-.549.096c-.366.021-.72.054-1.063.097a12.324 12.324 0 0 1-.936-.29 6.867 6.867 0 0 1-.967-.451.25.25 0 0 0-.096-.032 3.606 3.606 0 0 1-.227-.773 2.683 2.683 0 0 1 .032-1.097 8.321 8.321 0 0 1 1.354-2.772 36.132 36.132 0 0 0 2.579-4.062c.258-.451.666-.807 1.225-1.063l.549-1.257a4.91 4.91 0 0 0 .967-.741 132.43 132.43 0 0 0 5.352-6.157c.473-.56.881-1.129 1.225-1.708a28.216 28.216 0 0 0 2.418-5.158l.483-.517.709-10.058c-1.569-2.557-3.546-4.674-5.931-6.352a408.32 408.32 0 0 1-9.704-7.092 101.939 101.939 0 0 0-6.188-4.287l-6.159-3.643-.934 1 .032 1.354-1.839 2.322-2.03 5.382-1.129.612-.806 2.353-1.419.709a31.966 31.966 0 0 0-.773 3.741c-.452 2.923-1.645 5.565-3.578 7.93-.559.687-1.106 1.375-1.644 2.063a31.304 31.304 0 0 0-2.161 3.062l-4.48 2.707-11.283 2.578-2.353-.611.322-2.45c-.322.086-.634.172-.935.257l-.838.13c-.259 0-.516.011-.774.031a8.303 8.303 0 0 1-1.45-.321 5.009 5.009 0 0 1-1.354-.452 6.662 6.662 0 0 1-.677-.354c1.591-3.567 3.986-6.521 7.188-8.865 4.814-3.524 7.329-8.262 7.544-14.216a26.301 26.301 0 0 0-.339-5.319l-4.304-11.38-2.965-2.224-1.548.258c-.516.042-1.031.107-1.546.193a20.218 20.218 0 0 0-1.612-.064c-.28-.065-.559-.118-.84-.161a12.062 12.062 0 0 0-.837-.227 3.996 3.996 0 0 0-.418-.096 7.758 7.758 0 0 0-.42-.227h-1.322l-.709-.611-6.382.838a416.217 416.217 0 0 1-19.311 1.935 683.322 683.322 0 0 1-23.854 1.386 241.983 241.983 0 0 1-23.372-.612 255.575 255.575 0 0 1-27.078-3.385 4939.52 4939.52 0 0 1-8.607-1.677 37.775 37.775 0 0 1-5.254-1.516 78.945 78.945 0 0 0-19.343-4.19l1.258 3.449a7.244 7.244 0 0 0-.29 3.998 662.448 662.448 0 0 1 1.837 8.993 65.185 65.185 0 0 0 2.837 9.961 363.445 363.445 0 0 0 2.806 7.35 17.218 17.218 0 0 0 3.255 5.319c1.913 2.149 3.331 4.523 4.256 7.124l-2.74 1.226-2.902 7.254a515.411 515.411 0 0 0-5.448 3.772 4.894 4.894 0 0 1-.902.549 4.48 4.48 0 0 1-1.869.611c-3.396.645-6.813.58-10.252-.194.366-3.33 1.794-6.21 4.288-8.638.193-3.826-.73-7.318-2.772-10.478a62.24 62.24 0 0 0-5.867-7.704 43.765 43.765 0 0 1-4.32-5.706 350.221 350.221 0 0 1-11.218-18.73l-5.803 6.964a68.498 68.498 0 0 0-1.837 3.353 1.6 1.6 0 0 1-.451.549c.15.602.021 1.159-.387 1.675a68.831 68.831 0 0 0-5.707 8.672 79.497 79.497 0 0 0-2.385 5.32 150.557 150.557 0 0 1-4.803 10.767 186.484 186.484 0 0 0-4.578 10.154 186.698 186.698 0 0 0-3.836 9.961c-.58 1.611-1.59 2.815-3.03 3.61-.925 2.086-2.074 3.934-3.449 5.545a14.88 14.88 0 0 1-4.352 3.612c-4.148 2.234-8.661 3.04-13.539 2.417-2.236-.322-4.041-1.365-5.416-3.128a34.856 34.856 0 0 1 5.545-6.802c1.289-1.246 2.836-2.224 4.642-2.934a201.984 201.984 0 0 1 2.966-8.801c.043-.106.161-.172.354-.193l2.063-11.283.612-.74c-.107-2.707-.205-5.405-.29-8.092a96.012 96.012 0 0 1 1.499-20.244c.156-.838.323-1.675.5-2.514.559-2.709.72-5.449.484-8.221a24.52 24.52 0 0 1 .548-7.802l-.548-.645-1.064-5.673a.43.43 0 0 1-.451 0c-2.558-.882-4.76-2.365-6.609-4.449-1.655-1.892-2.729-3.857-3.224-5.9a89.687 89.687 0 0 0-1.644-.611 29.353 29.353 0 0 1-.742-.321c-.795-.388-1.461-.85-1.999-1.388a8.185 8.185 0 0 1-1.837-2.578 38.25 38.25 0 0 0-1.258-.291c-.365-.149-.72-.3-1.064-.45a14.31 14.31 0 0 1-.935-.548 5.087 5.087 0 0 1-.87-.807 20.007 20.007 0 0 1-1.161-1.483l-1.934 1.935a142.77 142.77 0 0 1-1.644-.451l-.774-.322a2.618 2.618 0 0 1-.645-.516 50.515 50.515 0 0 1-2.224-2.579l-8.124-.773-2.063-1.031c0-.044-.011-.076-.032-.098-.838-1.031-1.837-1.751-2.998-2.159h-.129a7.145 7.145 0 0 1-3.353-.291v-.065a2.403 2.403 0 0 0-.387-.03.135.135 0 0 1-.097-.033c-2.234-.537-4.449-1.075-6.641-1.612v-.063a2.406 2.406 0 0 0-.387-.032h-.097c-1.117.3-2.17.472-3.159.516 0-.044-.011-.065-.032-.065-2.063-.193-4.126.129-6.189.967-.603.624-1.386.988-2.354 1.097-2.837.28-5.749.73-8.736 1.354h-1.128a15.993 15.993 0 0 1-1.806-.161c-5.888-.751-11.422-1.901-16.602-3.449a36.32 36.32 0 0 0-11.799-1.482h-.097a45.744 45.744 0 0 0-9.8-.807v-.064a3.507 3.507 0 0 0-.484-.031v.096h-.097c-1.461.086-2.751.086-3.868 0-.042 0-.075-.011-.097-.032a.714.714 0 0 0-.322-.063v.096h-.097c-.666 0-1.418-.064-2.256-.193v.098h-.387c-.043 0-.076-.012-.097-.033a30.863 30.863 0 0 0-1.225-.064h-.516a61.764 61.764 0 0 0-6.931.709v-.063a2.757 2.757 0 0 0-.613-.065v.129h-.097c-1.935-.063-3.557.173-4.868.71h-.42v.096H66.431c0 .021-.011.044-.032.065-1.118.709-2.02.655-2.708-.161v-.065c-1.504.065-2.793.15-3.869.259h-1.226c-4.32.494-8.231.505-11.734.031a46.71 46.71 0 0 1-8.285-1.837c-2.515-.795-5.19-1.396-8.027-1.805-1.994-.27-3.723-.711-5.19-1.322L20.207 254a158.74 158.74 0 0 1-4.416-8.607c-2.729-4.856-2.074-9.327 1.966-13.41a48.342 48.342 0 0 1 7.253-6.028l29.303-14.089a1071.162 1071.162 0 0 1 24.983-11.895 853.703 853.703 0 0 1 31.527-13.636 152.575 152.575 0 0 1 28.788-8.542l22.082-4.964a47.16 47.16 0 0 0 5.383-1.128.237.237 0 0 1 .097-.033c.581-.515 1.333-.848 2.256-.999h.097c.794.172 1.762-.129 2.901-.903a19.089 19.089 0 0 1 2.998-1.644c1.526.172 2.869-.312 4.03-1.451.022-.021.032-.053.032-.097 1.161-.129 2.117-.451 2.869-.967.021-.021.053-.032.097-.032.237-.043.365.021.387.193v.194c-.021.129-.085.205-.193.226.494.215 1.225.011 2.192-.612 1.031-.645 1.892-.709 2.579-.193.537-.516 1.15-.602 1.837-.258v-.065c1.117-.902 2.203-1.343 3.256-1.321h.097c1.289-.752 2.031-.721 2.224.096a.258.258 0 0 1 .032.097c.43.451 1.096.301 1.999-.451 1.247-1.032 2.579-1.322 3.998-.871a13.052 13.052 0 0 1 2.353-.902h.097c.301.451.828.601 1.58.451a29.072 29.072 0 0 0 3.384-.871c.387.302.709.667.967 1.097 0 .021.021.032.064.032a4.038 4.038 0 0 1 1.741-.193h.097c.838-.667 1.75-1.075 2.74-1.225h.096c.365.516.967.462 1.806-.161.708-.537 1.365-.656 1.966-.355 1.053.581 2.16.333 3.321-.741.021-.021.032-.043.032-.064a4.81 4.81 0 0 1 1.418 1.032v.096c1.568-.3 3.17-.677 4.803-1.128h.098c.236-.021.343.107.322.387a.294.294 0 0 0-.033.129c.817.15 1.709.053 2.676-.291.022-.021.054-.032.096-.032.086.086.118.226.098.419v.097c0 .021-.011.043-.033.065a2.954 2.954 0 0 1-.773.226c.301.924 1.042 1.075 2.224.451a.263.263 0 0 1 .098-.033c.064.065.096.162.096.291v.129c0 .021-.011.043-.032.064a1.042 1.042 0 0 1-.162.129c.473.859 1.386 1.031 2.74.516h.097a.794.794 0 0 1 .097.193.253.253 0 0 1 .032.097H235c.967.085 2.073 0 3.321-.258v.064c.064.731.742.903 2.03.516 1.591-.495 2.999-.473 4.223.064.022.021.033.064.033.129 1.676-.085 3.008-.354 3.997-.806h.097v.484c-.043 0-.075.011-.097.032-.15.107-.354.172-.612.193 1.268.193 2.922.129 4.964-.193a.256.256 0 0 1 .098-.032c.107.129.15.301.129.516v.097c-.043 0-.076.011-.097.032a.712.712 0 0 0-.226.097c1.547.603 3.277.698 5.19.291h.097a.83.83 0 0 1 0 .322v.161c-.15.064-.323.107-.517.129.882.451 1.935.473 3.159.064 1.226-.408 2.213-.365 2.966.129 1.784-.28 3.331-.129 4.642.451.021.022.032.043.032.064a28.811 28.811 0 0 0 5.513-.806h.097c.085.086.118.214.096.387v.129h-.096a14.242 14.242 0 0 1-3.353 1.612 17.816 17.816 0 0 0 7.125-.806h.097c.214-.022.312.075.289.29v.097c0 .043-.01.075-.031.097 0 .021-.021.032-.065.032.817.021 1.301.366 1.451 1.032l.387-.065c3.288-.494 6.232-.655 8.833-.483.28-.043.42.065.42.323v.096c.773.215 1.524.452 2.256.709h.097c1.826-.495 3.546-.58 5.158-.258.021 0 .031.021.031.064.043.623.785.72 2.226.29a4.505 4.505 0 0 1 1.935-.097c.708.903 1.653 1.246 2.835 1.032h.129c.665.408 1.44.387 2.321-.064v-.032c.73.064 1.344.128 1.839.193h.096c.388.774 1.074 1.117 2.062 1.032 1.655-.15 3.31-.258 4.965-.323.452.559 1.3.838 2.547.838.107 0 .279.021.516.064h.193c1.096-.193 2.321-.258 3.675-.193h.098c.708.537 1.653.838 2.835.903.237.021.613.021 1.129 0 1.526-.021 2.708.118 3.546.419 1.117-.193 2-.14 2.645.161.021 0 .031.011.031.032 2.215-.386 4.341-.354 6.383.097a.296.296 0 0 0 .129.032 8.756 8.756 0 0 0 1.839.967c.021.021.053.032.096.032 2.729-.773 5.577-1.106 8.543-.999.494.021.935-.054 1.321-.226 1.677.108 3.374.129 5.093.064v.032c.021.624.731.828 2.128.613.344-.064.72-.097 1.128-.097.409.172.784.365 1.129.58.021.021.042.032.064.032 1.203-.3 2.43-.504 3.674-.612h.098c.451.215.87.44 1.257.677.021.021.042.032.064.032 2.493-1.074 4.912-1.01 7.253.193.022.021.055.032.098.032 2.084-.451 4.018-.591 5.803-.419h.096c.451.408.956.516 1.516.322a.245.245 0 0 1 .096-.032c.236 0 .474-.011.71-.033v-.064c1.203-.344 2.278-.419 3.225-.226.967.193 2.03.301 3.191.323.127 0 .256-.011.386-.033.022 0 .032-.021.032-.064 2.227.155 4.473.278 6.738.371 8.273.162 16.473.134 24.597-.08a601.012 601.012 0 0 1 24.887-.129 63.23 63.23 0 0 1 15.731 2.256 224.378 224.378 0 0 1 21.888 7.189 140.793 140.793 0 0 1 20.698 9.929c7.371 4.341 13.281 10.219 17.729 17.633 2.45 4.062 4.776 9.263 6.979 15.603 2.203 6.34 3.121 10.917 2.756 13.733-.37 2.814-.88 3.545-1.535 2.191z"/><path d="M195.65 371.3c-.6-.133-.6-.166 0-.1v.1z" fill="#ababab"/></svg>