<svg xmlns="http://www.w3.org/2000/svg" width="792" height="1024" viewBox="0 0 792 1024"><path d="M168 83h10c11.6-5.4 23.5-10.6 35.7-15.8 1.7-.7 2.8-1.6 3.3-2.7C234 30.9 263 9.7 304 1V0H0v610h1c2.7-23.3 8.2-43.9 16.5-61.8 20.7-45.3 45-87.2 72.9-125.7 10.5-14.5 22-28.1 34.3-40.8 32.899-33.3 66.7-66 101.3-97.7 0-.4 0-.6.1-1 3.601-17.3 7.301-34.6 10.9-52v-1c-.5-4.5-.1-8.1 1-11 0-.4 0-.6.1-1 5.4-28.1 15.801-51.5 30.9-70-16.6-19.4-41-31-73-35h-21c-2.5.1-4.9.5-7 .9-.4.1-.6.1-1 .1h-16c-14.5 2.2-27.8 3.9-40 5 0-.4 0-.6.2-.9C121.5 97.7 140.4 86 168 83z" fill="#fefefe"/><path d="M151 114h1v-.5c5-.4 10-.5 15-.5v1c.4 0 .6 0 1-.1 2.1-.4 4.5-.8 7-.9v-.5c6.6-.4 13.4-.5 20-.5v1h1c32 4 56.4 15.6 73 35-15.1 18.5-25.5 41.9-30.9 70-.1.4-.1.6-.1 1 0 4-.1 8-.5 12h-.5c-3.6 17.4-7.3 34.7-10.9 52-.1.4-.1.6-.1 1-34.6 31.7-68.4 64.4-101.3 97.7-12.3 12.7-23.8 26.3-34.3 40.8-27.9 38.5-52.2 80.4-72.9 125.7C9.2 566.1 3.7 586.7 1 610v22c0 .4 0 .6.1.9.9 3.7 1.3 8 .9 13.1.4 0 .5.1.5.1 3 13.301 8.9 23.5 17.5 30.9v1c.4 0 .6.1.9.2 3.8 2.8 9.199 4 16.1 3.8 5.9-3.1 10.6-7.1 14.1-12.3C67.2 646.1 83 622.1 98.6 598c25.8-40.1 55.3-76.8 88.4-110 .4 0 .6-.1.7-.3 3.2-3.5 6.899-6.3 11.3-8.7 0-.4 0-.6.1-1 2.301-8.5 6.601-11.9 12.9-10-1 7.5-1.4 15.9-1 25v1c0 5-.1 10-.5 15h-.5c.6 6.2 0 11.3-1.8 15.1-.2.301-.2.5-.2.9 0 5.4-.1 10.6-.5 15.9 0 .1-.1.1-.5.1v16c0 4-.1 8-.5 11.9 0 .1-.1.1-.5.1-.6 8.4-1 17.1-1 26v17c2.2 30.9 5.9 60.1 11 88 3.2 6.1 5.2 13.4 6 22 2.5 25.6 9.1 47.1 20.1 64.7 12.7 20.1 27.301 38.5 43.9 55.3.4 8.3-.3 15.7-1.9 22.1 0 .2-.1.601-.1.9-1.1 3.2-1.4 7.2-1.1 12 .1.3.1.7.1 1-.6 5.1-.9 10.3-1 16v1c-1.3 2.7-2.8 5.2-4.8 7.2-.101.2-.2.5-.2.8-2.9.7-6.3 1.1-10 1h-1c-7.8 3.5-17.5 5.2-29 5h-1c-6.9 1.2-14.5 1.5-23 1h-1c-2.7 1.3-4.5 3.6-5.5 6.8 0 .101-.1.2-.5.2 0 .3-.1.6-.3.8-2.601 3-1.8 4.4 2.3 4.2v1c.4 0 .5.1.6.2 6.7 9.1 14.5 17 23.4 23.8v1c.4 0 .5 0 .6.2.9 1.3 1.9 2.3 3.4 2.8v2h1c3.5.5 6.9 1.2 10 2 0-.3 0-.5.1-.5 3-1 5.9-1.8 8.9-2.5 0-.3 0-.5.1-.5 2.601-.7 4.5-.5 5.9.5.1 1.8-.5 2.8-2 3h-1v1c.3 2.7 2 4 5 4v1c.4 0 .6 0 1 .1 3.4.801 6.4.801 9-.1 0-.4 0-.5.2-.6 3.7-2.101 8.7-2.9 14.8-2.4.4 0 .6-.1.7-.3 2.899-3.8 7.3-6 13.3-6.7 0-.3 0-.5.1-.5 4.9-.3 9.9-.5 14.9-.5 0-.3 0-.5.1-.5 3.9-.3 7.9-.5 11.9-.5 0-.3 0-.5.1-.5 5.301-.3 10.5-.5 15.9-.5h6c.4 0 .6-.1.8-.3 4.3-3.3 8.3-6.9 12.2-10.7v-1c.1-4.6.4-9 1-13-.4 0-.5-.1-.5-.1-.9-4.7-.6-8.7.5-11.9 0-.3 0-.7.1-1 .7-12.8.601-25.2-.1-37-.4 0-.6-.1-.7-.3-1.1-1.3-2.2-2.5-3.3-3.7 0-.3-.1-.7-.1-.9-2.801-7.5-3.4-13.899-1.9-19.1 0-.3.1-.5.1-.6 3.7-1.301 6.601-.2 8.9 3.6.4 0 .6 0 1 .1 5.1.2 9.4 2.2 13 5.9.4 0 .6.1.8.2 5.5 4.8 12.3 8.399 20.2 10.8v1c0 .3 0 .7.1 1 .5 5.8 1.101 11.4 1.9 17 .399 0 .5.1.6.2 2.7 9.399 6.8 17.3 12.4 23.8-1.3 8.1-2.601 16.1-3.9 24 0 .3-.1.7-.1 1-5.8 6.8-12.5 12.8-20.1 17.7-.301.2-.5.3-.9.3-3.3 4.4-4.4 11-3.5 20h-.5c0 .4-.1.6-.2.9-1.6 3.3-2.899 7.1-3.8 11.1h1c11.6.7 23.6 1.4 36 2 0 .4.1.5.2.6 2.399 1.5 4.6 3 6.8 4.4v2c0 .4.1.6.1.9 1.9 5.8 3.8 11.399 5.9 17.1v1c.399 0 .6.1.899.2 4 1.2 8.4 1.1 13.101-.2 0-.3.1-.6.2-.7 2.6-2.2 5.5-3.899 8.8-5.3 0-.4.1-.6.2-.6 10.699-5 21.899-5.4 33.8-1.4v1c0 .3.1.5.1.6 1 .301 1.9.5 2.9.4v1c.399 0 .6.1.8.2 3.4 2.899 6.1 6.5 8.2 10.8v1h6c0-.4.1-.5.1-.5 3.4-1.3 6-3 7.9-5.5 0-.3.1-.7.2-.9 2.899-5.8 5.1-12.199 6.8-19.1-1.101-2.9-1.5-6.5-1.101-11 .101-.4.101-.6.101-1-1.601-2-2.8-4.6-3.5-7.9 0-.1-.101-.1-.5-.1-1-15.4-5.3-27.4-12.8-36.2-.101-.2-.2-.5-.2-.8-.101-8.2-.4-16.2-.9-24-.1-.3-.1-.7-.1-1v-1c-.5-11.2-.101-21.5 1-31 1.899-4.8 4.2-9.3 7.1-13.6 17.8-26 34.5-53.5 49.9-82.4 0-.3.1-.7.1-.9A199.217 199.217 0 0 1 573 759c0-.4.1-.6.1-1 3.3-17.9 6-36.6 7.9-56 .3 0 .6-.1.6-.2 10.4-23.399 16.8-50.7 19.4-81.8.3 0 .5-.1.6-.1.7-2.5 1.8-4.5 3.4-5.9 0-.4 0-.6.1-1 .4-8.9 1.7-16.9 3.9-24v-1c-.5-12.1-.2-23.5 1-34 0-.4 0-.6-.101-1-.5-5.3-.5-10.3.101-15-4.101-19.9-7.4-40.5-9.9-62-.1-.4-.1-.6-.1-1-1.2-3.9-1.5-8.5-1.101-14 .101-.4.101-.6.101-1v-1c-1.9-5-2.9-11-3-18v-1c-1.2-3.1-1.5-7.1-1.101-12 .101-.4.101-.6.101-1s-.101-.6-.2-.9c-2.1-4.399-2.1-7.699.2-10.1 2.399 2.6 4.399 5.6 6.1 9 5 10.3 11.101 19.5 18.5 27.6 27.299 30.5 49.1 66.6 65.4 108.4 15.7 26.9 29.5 55.6 41.2 86.3a270.985 270.985 0 0 1 10 31.4c10.3 40.7 23.6 77.9 39.8 111.3.3 0 .5-.1.6-.2 4.601-11.5 7.7-24.399 9.4-38.8v-1-21-1-4c-6.601-46.4-15.9-90.1-27.9-131.1-.1-.301-.1-.5-.1-.9-2.5-1.8-3.601-5.1-3-10v-1c-18.5-47.9-39.9-93.3-64.3-136.1-23.7-41.8-48.9-82.3-75.5-121.7-14.1-20.8-27.5-42.2-40.2-64.2-11.2-39.5-28.8-72.5-52.8-99.1-3.601-4.1-6.101-9.4-7.2-15.9-25.101-41.2-58.4-74.6-99.5-100.4-3.601-2.2-7.101-4.6-10.9-7.4-10.7-7.8-21.5-15.6-32.6-23.2-4.3-.8-8.2-1.9-11.8-3.4-.1-.1-.2-.3-.2-.6h-9c-7.6-5.1-17.6-7.8-30-8h-17c-41 8.7-70 29.9-87 63.5-.5 1.1-1.6 2-3.3 2.7-12.2 5.2-24.1 10.4-35.7 15.8h-10c-27.6 3-46.5 14.7-56.8 35.1-.2.3-.2.5-.2.9 12.2-1.1 25.5-2.8 40-5z"/><path d="M0 631v1h1v-1-21H0v21z" fill="#ced0d3"/><path d="M0 632v392h501v-1c-.8-1.9-1.4-3.8-1.9-6 0-.3-.1-.7-.1-1-1.4-1.3-2.601-2.8-3.8-4.2-.101-.2-.2-.5-.2-.8-9.801-4.6-20.4-5.3-32.101-2.2-.3.101-.5.2-.899.2h-3c-2.601 2.1-5 4.3-7.3 6.7-.101.2-.301.3-.7.3-5.101 1.5-10.101 1.4-14.9-.4 0-.1-.1-.3-.1-.6v-1c-2.101-5.7-4-11.3-5.9-17.1 0-.301-.1-.5-.1-.9-11.4-6.4-26.101-8.9-44-7.5v-.5c-1.4-4.7-.4-8.8 2.7-12.3.2-.101.3-.3.3-.7 0-.4 0-.6-.1-1-.4-4.9 0-8.9 1.1-12 0-.4-.1-.6-.1-1-.801-4.3.5-6.3 4.1-6 .4 0 .6-.1.9-.3 7.6-4.9 14.3-10.9 20.1-17.7 0-.3.1-.7.1-1 1.3-7.9 2.601-15.9 3.9-24-5.601-6.5-9.7-14.4-12.4-23.8-.1-.101-.2-.2-.6-.2-.8-5.6-1.4-11.2-1.9-17-.1-.3-.1-.7-.1-1-8.7-1.9-15.6-5.7-20.8-11.3-.101-.101-.2-.4-.2-.7-3.6-3.7-7.9-5.7-13-5.9-.4-.1-.6-.1-1-.1-2.3-3.8-5.2-4.9-8.9-3.6 0 .1-.1.3-.1.6-1.5 5.2-.9 11.6 1.9 19.1 0 .2.1.601.1.9 1.1 1.2 2.2 2.4 3.3 3.7.101.2.3.3.7.3.7 11.8.8 24.2.1 37-.1.3-.1.7-.1 1v12c-.6 4-.9 8.4-1 13v1c-3.9 3.8-7.9 7.4-12.2 10.7-.2.2-.399.3-.8.3-5.4 2-12 2.7-20 2h-1c-3.1 1.2-7.1 1.5-12 1h-1c-3.5 1.2-7.9 1.5-13 1h-1c-5.9.3-10.1 2.7-12.4 6.8 0 .2-.199.2-.6.2h-11c-4.3 3.7-9.5 4.6-15.9 2.5-.1 0-.1-.1-.1-.5v-1c-3 0-4.7-1.3-5-4v-1-1c-1.8.5-2.6-.3-2.5-2h-.5c-3 .7-5.9 1.5-8.9 2.5-.1 0-.1.2-.1.5-3 .7-6.6.2-10.9-1.5-.1 0-.1-.2-.1-.5-.4 0-.5 0-.6.2-.7 1.6 1.1 2.899 5.6 3.8-7.5.3-10.5-2.4-9.1-8 .1-.3.1-.7.1-1v-1c-8.9-6.8-16.7-14.7-23.4-23.8-.1-.101-.199-.2-.6-.2-6.4.2-7.3-1.8-2.8-5.8.2-.101.399-.2.8-.2v-1c.4-4 2.4-6.3 6-7h25c11.5.2 21.2-1.5 29-5h1c3.7.1 7.1-.3 10-1 0-.3.1-.6.2-.8 2-2 3.5-4.5 4.8-7.2v-1c.1-5.7.4-10.9 1-16-.4 0-.5-.1-.5-.1-1.3-5.801-.8-10.2 1.5-12.9 0-.3.1-.7.1-.9 1.601-6.399 2.301-13.8 1.9-22.1-16.6-16.8-31.2-35.2-43.9-55.3-11-17.6-17.6-39.1-20.1-64.7-.8-8.6-2.8-15.9-6-22-5.1-27.9-8.8-57.1-11-88v-1c-.4 0-.5 0-.5-.1-.9-5.801-.6-10.801.5-14.9v-1c0-8.9.4-17.6 1-26v-1-11-1c-.5-5.1-.1-9.5 1-13v-1-1-1c-.5-5.9-.1-10.9 1-15 0-.4 0-.6.2-.9 1.8-3.8 2.399-8.899 1.8-15.1v-1c-.5-5.5-.1-10.1 1-14v-1c-.4-9.1 0-17.5 1-25-6.3-1.9-10.6 1.5-12.9 10-.1.4-.1.6-.1 1-4.4 2.4-8.1 5.2-11.3 8.7-.101.2-.3.3-.7.3-33.1 33.2-62.6 69.9-88.4 110-15.6 24.1-31.4 48.1-47.5 71.7-3.5 5.2-8.199 9.2-14.1 12.3-6.6 1.6-12.2.6-16.8-3.3-.1-.1-.2-.3-.2-.7v-1c-8.6-7.4-14.5-17.6-17.5-30.9 0 0-.1-.1-.5-.1.4-5.1 0-9.4-.9-13.1-.1-.3-.1-.5-.1-.9H0z" fill="#fefefe"/><path d="M37 682c-6.9.2-12.3-1-16.1-3.8-.3-.1-.5-.2-.9-.2 0 .4.1.6.2.7 4.6 3.9 10.2 4.9 16.8 3.3z" fill="#999b9f"/><path d="M305 1h15V0h-16v1h1z" fill="#898b8e"/><path d="M167 114v-1c-5 0-10 .1-15 .5v.5h15z" fill="#76767b"/><path d="M195 113v-1c-6.6 0-13.4.1-20 .5v.5h20z" fill="#84858b"/><path d="M351 9h9c0 .3.1.5.2.6 3.6 1.5 7.5 2.6 11.8 3.4 11.1 7.6 21.9 15.4 32.6 23.2 3.8 2.8 7.3 5.2 10.9 7.4 41.1 25.8 74.399 59.2 99.5 100.4 1.1 6.5 3.6 11.8 7.2 15.9 24 26.6 41.6 59.6 52.8 99.1 12.7 22 26.1 43.4 40.2 64.2 26.6 39.4 51.8 79.9 75.5 121.7 24.4 42.8 45.8 88.2 64.3 136.1v1c-.601 4.9.5 8.2 3 10 0 .4 0 .6.1.9 12 41 21.3 84.699 27.9 131.1v5h1c0 7.4-.2 14.6-.5 22h-.5c-1.7 14.4-4.8 27.3-9.4 38.8-.1.101-.3.2-.6.2-16.2-33.4-29.5-70.6-39.8-111.3-2.601-10.3-5.9-20.8-10-31.4-11.7-30.7-25.5-59.4-41.2-86.3-16.3-41.8-38.101-77.9-65.4-108.4-7.399-8.1-13.5-17.3-18.5-27.6-1.7-3.4-3.7-6.4-6.1-9-2.3 2.4-2.3 5.7-.2 10.1.1.301.2.5.2.9h1v14c.1 7 1.1 13 3 18v1h1v15c0 .4 0 .6.1 1 2.5 21.5 5.8 42.1 9.9 62-.601 4.7-.601 9.7-.101 15 .101.4.101.6.101 1 0 11.6-.2 23.4-.5 35h-.5c-2.2 7.1-3.5 15.1-3.9 24-.1.4-.1.6-.1 1-1.601 1.4-2.7 3.4-3.4 5.9-.1 0-.3.1-.6.1-2.601 31.1-9 58.4-19.4 81.8 0 .101-.3.2-.6.2-1.9 19.4-4.601 38.1-7.9 56 0 .4-.1.6-.1 1-3.101 8.2-5.8 16.9-7.9 26.1 0 .2-.1.601-.1.9-15.4 28.9-32.101 56.4-49.9 82.4-2.899 4.3-5.2 8.8-7.1 13.6 0 10.7-.101 21.3-.5 32h-.5c0 .3 0 .7.1 1 .5 7.8.8 15.8.9 24 0 .3.1.6.2.8 7.5 8.8 11.8 20.8 12.8 36.2.399 0 .5 0 .5.1.7 3.301 1.899 5.9 3.5 7.9 0 .4 0 .6-.101 1-.399 4.5 0 8.1 1.101 11h1c-1.101 7.9-3.601 14.4-7.4 19.7 0 .2-.2.3-.6.3-.9 2.4-2.4 4.3-4.2 5.7-.2.2-.4.3-.8.3-.601 1.2-1.9 1.7-4 1.5v.5h282v-29-199-199-199-199V0H320v1h1c12.4.2 22.4 2.9 30 8z" fill="#fefefe"/><path d="M237.5 231c.4-4 .5-8 .5-12-1.1 2.9-1.5 6.5-1 11v1h.5z" fill="#a1a2a3"/><path d="M596 440v-1-12h-1c0 .4 0 .6-.101 1-.399 4.9-.099 8.9 1.101 12z" fill="#b4b5ba"/><path d="M600 475v-1-14h-1c0 .4 0 .6-.101 1-.399 5.5-.099 10.1 1.101 14z" fill="#6c6d72"/><path d="M609.5 589c.3-11.6.5-23.4.5-35-1.2 10.5-1.5 21.9-1 34v1h.5z" fill="#a1a2a5"/><path d="M786 750v1h.5c.3-7.4.5-14.6.5-22h-1v21z" fill="#c4c6c9"/><path d="M211 494c-1.1 3.9-1.5 8.5-1 14v1h.5c.4-5 .5-10 .5-15z" fill="#424242"/><path d="M208 525c-1.1 4.1-1.5 9.1-1 15v1c.4 0 .5 0 .5-.1.4-5.3.5-10.5.5-15.9z" fill="#c4c6c8"/><path d="M207 557h-1v12c.4 0 .5 0 .5-.1.4-3.9.5-7.9.5-11.9z" fill="#9a9b9f"/><path d="M207 543c-1.1 3.5-1.5 7.9-1 13v1h1v-1-13z" fill="#d4d4d4"/><path d="M204.5 610.9c0 .1.1.1.5.1v-1-14c-1.1 4.1-1.4 9.1-.5 14.9z" fill="#bbbcc0"/><path d="M282.9 877c-.301-4.8 0-8.8 1.1-12-2.3 2.7-2.8 7.1-1.5 12.9 0 0 .1.1.5.1 0-.3 0-.7-.1-1z" fill="#76787b"/><path d="M265 961.1c-.4-.1-.6-.1-1-.1 0 .4 0 .5.1.5 6.4 2.1 11.601 1.2 15.9-2.5h11c.4 0 .6 0 .6-.2 2.301-4.1 6.5-6.5 12.4-6.8v-1h-1c-6 .7-10.4 2.9-13.3 6.7-.101.2-.3.3-.7.3-6.1-.5-11.1.3-14.8 2.4-.2.1-.2.199-.2.6-2.6.9-5.6.9-9 .1z" fill="#989a9b"/><path d="M304 951h14v-1c-5 0-10 .2-14.9.5-.1 0-.1.2-.1.5h1z" fill="#6c6c6c"/><path d="M305 952c5.1.5 9.5.2 13-1h-14v1h1z" fill="#c9c9c9"/><path d="M231.9 949c-1.4 5.6 1.6 8.3 9.1 8-4.5-.9-6.3-2.2-5.6-3.8.1-.2.199-.2.6-.2v-1-1c-1.5-.5-2.5-1.5-3.4-2.8-.1-.2-.199-.2-.6-.2 0 .3 0 .7-.1 1z" fill="#c5c5c5"/><path d="M236.1 953.5c4.301 1.7 7.9 2.2 10.9 1.5-3.1-.8-6.5-1.5-10-2h-1c0 .3 0 .5.1.5z" fill="#a3a3a3"/><path d="M256.5 952c-.1 1.7.7 2.5 2.5 2v1h1c1.5-.2 2.1-1.2 2-3-1.4-1-3.3-1.2-5.9-.5-.1 0-.1.2-.1.5h.5z" fill="#bfbfbf"/><path d="M236 909h-24v1h1c8.5.5 16.1.2 23-1z" fill="#7d7e82"/><path d="M206 916v1c.4 0 .5-.1.5-.2 1-3.2 2.8-5.5 5.5-6.8v-1c-3.6.7-5.6 3-6 7z" fill="#a5a7aa"/><path d="M205.2 917.2c-4.5 4-3.601 6 2.8 5.8v-1c-4.1.2-4.9-1.2-2.3-4.2.2-.2.3-.5.3-.8-.4 0-.6.1-.8.2z" fill="#8d8e92"/><path d="M383.2 858.7c5.2 5.6 12.1 9.399 20.8 11.3v-1c-7.9-2.4-14.7-6-20.2-10.8-.2-.101-.399-.2-.8-.2 0 .3.1.6.2.7z" fill="#a0a2a5"/><path d="M390 974v1h.5c-.9-9 .2-15.6 3.5-20-3.6-.3-4.9 1.7-4.1 6 0 .4.1.6.1 1v12z" fill="#9a9ca0"/><path d="M387 987h-1c.9-4 2.2-7.8 3.8-11.1.101-.301.2-.5.2-.9h-1c0 .4-.1.6-.3.7-3.101 3.5-4.101 7.6-2.7 12.3v.5c17.899-1.4 32.6 1.1 44 7.5v-1-1c-2.2-1.4-4.4-2.9-6.8-4.4-.101-.1-.2-.199-.2-.6-12.4-.6-24.4-1.3-36-2z" fill="#858585"/><path d="M390 962c-1.1 3.1-1.5 7.1-1.1 12 .1.4.1.6.1 1h1v-1-12z" fill="#c9c9c9"/><path d="M366 922v-11c-1.1 3.2-1.4 7.2-.5 11.9 0 0 .1.1.5.1v-1z" fill="#c1c2c5"/><path d="M346 948c-3.9 1.2-8.5 1.5-14 1h-1v1h1c8 .7 14.6 0 20-2h-6z" fill="#c5c6c9"/><path d="M319 950h12v-1h-1c-4 0-8 .2-11.9.5-.1 0-.1.2-.1.5h1z" fill="#797979"/><path d="M331 950h-13v1h1c4.9.5 8.9.2 12-1z" fill="#c6c6c6"/><path d="M331 949h1c5.5.5 10.1.2 14-1-5.4 0-10.6.2-15.9.5-.1 0-.1.2-.1.5h1z" fill="#848689"/><path d="M460 1009h2c0-.4.1-.5.1-.6 10.101-3.5 20.3-3.7 30.9-.4v-1c-11.9-4-23.101-3.6-33.8 1.4-.101 0-.2.199-.2.6h1z" fill="#8e9091"/><path d="M462.899 1008.8c11.7-3.1 22.301-2.399 32.101 2.2 0 .3.1.6.2.8 1.199 1.4 2.399 2.9 3.8 4.2 0 .3.1.7.1 1 .5 2.2 1.101 4.1 1.9 6v1h9v-.5c2.1.2 3.399-.3 4-1.5h-9c-3.101-3.6-6-7.3-8.8-11.2-.101-.2-.2-.5-.2-.8v-1c-1 .1-1.9-.1-2.9-.4 0-.1-.1-.3-.1-.6-10.601-3.3-20.8-3.1-30.9.4 0 .1-.1.199-.1.6.399 0 .6-.1.899-.2z" fill="#dadada"/><path d="M450 1015c-4.7 1.3-9.101 1.4-13.101.2-.3-.101-.5-.2-.899-.2 0 .3.1.5.1.6 4.8 1.801 9.8 1.9 14.9.4.399 0 .6-.1.7-.3 2.3-2.4 4.699-4.601 7.3-6.7-3.3 1.4-6.2 3.1-8.8 5.3-.1.1-.2.4-.2.7z" fill="#8b8b8b"/><path d="M507.5 914c.399-10.7.5-21.3.5-32-1.101 9.5-1.5 19.8-1 31v1h.5z" fill="#87898c"/><path d="M496.2 1010.8c2.8 3.9 5.699 7.601 8.8 11.2v-1c-2.101-4.3-4.8-7.9-8.2-10.8-.2-.101-.4-.2-.8-.2 0 .3.1.6.2.8z" fill="#717171"/><path d="M519.2 1015.1c-.101.2-.2.601-.2.9.399 0 .6-.1.6-.3 3.8-5.3 6.3-11.8 7.4-19.7h-1c-1.7 6.9-3.9 13.3-6.8 19.1z" fill="#a0a2a5"/><path d="M519 1016c-1.9 2.5-4.5 4.2-7.9 5.5 0 0-.1.1-.1.5h3c.399 0 .6-.1.8-.3 1.8-1.4 3.3-3.3 4.2-5.7z" fill="#999a9e"/></svg>