<svg xmlns="http://www.w3.org/2000/svg" xmlns:dc="http://dublincore.org/documents/dcmi-terms/" height="659" viewBox="0 0 732 659" width="732"><metadata><dc:description>Silhouette of Apterygidae, processed by PhyloPic Tools (https://github.com/eweitz/phylopic-tools)</dc:description><dc:source>http://phylopic.org/image/ad7d0f80-889e-4dba-a89d-c864f2f48184</dc:source><dc:creator>Steven Traver</dc:creator><dc:license>http://creativecommons.org/publicdomain/zero/1.0/</dc:license></metadata><path d="M721 259c6.266 8.543 4.624 20.583 7 28-1.352.169-1.999-5.085-3-2 1.355 2.968 6.065 12.899 1 8-.016 6.016 4.022 7.977 6 12v1c-3.34.007-2.65-4.017-5-5 1.336 5.705.356 14.068-1 20-2.096-.904-.355-5.645-3-6-1.604 3.601-4.039 5.402-5 10-.595 2.846 4.236 9.561-2 10 .162-1.163-.221-1.779-1-2-.491 3.225 4.667 5.909 2 8-2.059-.274-.941-3.726-3-4-1.42 10.047-.658 18.695-1 27-1.313-.354-1.573-1.761-3-2-2.409 4.108 2.28 6.187 1 8-1.313-.354-1.573-1.761-3-2-.245 4.245 2.615 5.385 2 10-3.47-3.562-.573 3.665-3 4 .279-2.279-.241-3.759-2-4-2.324 5.557-.624 11.176-2 16 .279-2.279-.241-3.759-2-4-3.005 4.939 4.061 7.721 2 11-2.059-.274-.941-3.726-3-4-.595 2.071 1.236 6.569-1 7-.575-1.758 1.209-5.875-1-6-.58 6.129-4.292 9.003-1 14-6.579-.643-1.428 5.095-3 6-5.515-5.34-8.271 7.119-9 13-1.086-.247-.678-1.988-2-2-1.62 3.713-2.158 8.509-6 10-.162-4.349 7.461-8.663 2-12-1.934 3.733-2.999 8.334-7 10 .172-2.885 5.322-5.935 3-8-3.237 3.763-7.03 6.97-8 13 .086-1.419.165-2.832-1-3-3.023 2.1-.688 7.337-2 9-1.44-.227-.349-2.984-2-3-1.633 3.604-5.813 6.898-3 12-1.313-.354-1.573-1.761-3-2-7.035 9.454 5.063 17.95 8 24 .658-1.342 2.138-1.862 4-2-.896 2.104-1.555 4.445-3 6 6.638.397 3.357 6.027 7 9-1.584.083-3.814-.48-4 1 1.658.042 3.008 6.313 3 7-1.332.149-3.019-4.065-4-1 .807.86 2.739.595 3 2-1.313 1.02-3.687.98-5 2 2.563 3.629 1.97 4.896 4 8-1.758.575-5.875-1.209-6 1 .521.318 1.551 3.095 0 4-3.853-3.164.16 1.256-1 2-.909.583-1.859-2.083-3 0-.771 1.408 1.229.972-2 1 1.352.982 1.998 2.668 3 4-3.729-.714-1.373 3.645-7 3-1.15 2.933 4.797 3.714 2 5-1.091-1.004-4.909-4.297-6-2 1.791.621 4.515 5.379 3 6-2.223-.777-3.899-2.101-7-2 1.636 3.063 2.843 4.672 0 5 1.329 1.004 3.721.945 4 3-3.729-2.659-.067 1.924-2 2-6.496-2.949-2.629.9-9-3 1.612 4.825 2.691 5.175 3 10-1.513-.899-4.547-5.347-6-3 2.513 1.874-1.663.109-3 0-.083 1.583.48 3.814-1 4-1.001-3.041-1.648-1.276-3 0 1.146-2.052-1.57-4.767-2-2 .427 1.668 4.394 4.813 2 6-1.889-.111-.694-3.306-3-3 .261 5.553-1.188.605-4 1-.956 1.862 2.995 3.342 0 4 .162-1.162-.221-1.779-1-2-.083 1.583.48 3.814-1 4 .279-2.279-.241-3.759-2-4-.547 1.453 1.169 5.169-1 5-3.282-.385-4.409-2.924-7-4-.438 3.438.396 5.604 1 8-2.632-1.035-3.368-3.965-6-5-.105 2.562-.566 4.768-2 6-1.718-1.282-.021-5.979-3-6-.86.807-.594 2.739-2 3-.575-1.758 1.209-5.875-1-6-.549 4.15-3.031 4.483-4 1-16.632 25.234-46.281 38.445-63 63-3.459 5.08-4.388 11.195-8 16-3.982 5.298-11.626 8.577-13 16-10.111.556-15.739 5.595-26 6-1.108-1.892-1.275-4.725-2-7-1.163.162-1.779-.221-2-1-20.488.12-41.266 1.674-64 2-1.195-2.138-5.425-1.242-4-6-11.027-.027-17.197 4.803-25 8 1.778-6.555 7.175-9.492 12-13 7.227-12.527 17.891-17.663 31-19 17.058-1.74 29.898 5.437 43-3 4.633-2.983 8.833-8.241 14-12 4.769-3.469 9.94-6.751 15-10 11.356-7.292 20.18-15.15 28-22 4.591-4.021 13.129-9.888 9-15-2.466 5.201-7.97 7.363-13 10 1.667-4.369 13.604-6.755 9-11 1.981-.752 6.769-3.809 5-5-.097 1.902-3.903-.62-4-2 2.09-.424 2.648.686 4 1 .645-4.312-4.193-3.14-4-7 1.759 1.438 2.279.917 2-2-1.662-2.556-2.686 3.902-6 3 2.565-3.629 8.178-7.054 5-11-.376 3.624-2.984 5.016-6 6-1.154-3.249 3.055-6.151 0-8-2.397 1.27-2.949 4.384-7 4 .72-3.318 8.835-4.447 6-8-.869 2.908-1.497 1.125-4 1 .336 3.67-1.536 5.131-4 6 1.407-1.926 2.643-4.023 3-7-2.913-3.337-4.959 2.466-7 0 .354-1.313 1.761-1.573 2-3-3.417-.75-1.271 4.063-5 3 .577-4.615-6.526-6.756-8-6a24.257 24.257 0 0 0 4 4c-2.279 1.373-3.759-2.578-4 0-.227 1.926 3.118 5.348 2 7-1.313-.354-1.572-1.761-3-2-1.078 2.555 4.305 3.5 1 5-1.57-.43-.854-3.146-4-2 1.922 4.637-1.699 3.758-3 9-1.762-.905-1.652-3.682-4-4-.261 2.928 2.261 3.072 2 6-4.209-1.542-.159 5.175-3 5-.958-3.042-1.179-6.821-4-8-2.32 2.661.695 7.682-1 9-1.282-2.385-1.915-5.419-5-6-1.012 3.746 4.146 6.431 2 8-2.773-2.98-2.23-3.677-4-5 3.026 2.264-2.678 2.377-3-1-.595 2.071 1.236 6.569-1 7-.311-3.023 1.11-7.777-2-8-3.445 3.39 2.414 9.787 0 12-2.135-2.198-1.173-7.494-4-9-10.293 7.374-21.04 14.293-32 21-.723 3.056 1.022 3.645 1 6-3.149-3.238-.749 2.605-3 3v-6c-9.107 4.894-14.866 13.134-23 19-2.677 11.661-8.926 25.068-16 29-.769-3.769 1.22-4.78 1-8-12.513 3.26-16.427 20.467-29 22-4.808.586-8.934-4.365-16-2-.88 2.786-1.248 6.085-3 8-3.111-2.729-4.423-7.342-3-12-14.407-3-28.937-5.512-41 1-9.464-3.355-26.621 7.078-31-3-7.858.487-14.51 7.474-20 7 9.695-12.923 26.534-21.827 45-24 7.02-.826 14.486.227 21-1 5.008-.943 11.49-4.555 18-6 12.812-2.845 18.805-7.646 30-13 6.354-3.039 11.648-6.524 17-10 11.178-7.259 22.662-13.729 30-22-3.475 2.192-6.598 4.735-11 6 4.244-5.756 13.57-6.43 17-13-1.711-.21-2.59 1.705-3 0 1.151-.325 3.443-4.362 1-5-1.535 1.532-4.76 1.782-9 1 .309-2.358 3.473-1.86 3-5-2.595-1.072-6.697-.636-8-3 .889-.294 4.378-2.706 2-3-3.121 2.756.32-3.156-2-4-1.521 3.568-3.682-4.956-6-3 1.02-1.313.98-3.687 2-5-1.758-.575-5.875 1.209-6-1-1.798-5.676 3.166-10.373-1-16-.922 6.078-1.694 12.306-5 16 .779-8.08 5.453-15.836 2-20 .182 2.182-.818 3.182-3 3 .996-5.925 1.318-8.667-2-10-2.889.444.889 7.556-2 8-.547-1.453 1.169-5.169-1-5-1.067.933-.312 3.688-3 3 .525-3.842 6.415-7.54 3-12-1.755 1.578-2.075 4.592-5 5 1.558-3.775 4.442-6.225 6-10-2.391-.609-7.256 1.255-8-1 5.219-1.862 5.989-1.899 1-3 2.07-1.989 5.162-2.242 6-3-2.716.716.716-4.716-2-4-3.756 4.577-7.472 9.194-13 12 4.623-7.265 9.241-8.513 12-17-5.518-2.358-.354-3.926-5-6 2.483.15 4.15-.517 5-2-5.072-.681-5.683-3.054-8-2 2.314-2.223-.34-3.899 0-7-4.283-.617-4.077 3.256-8 3 1.306-3.044 7.266-5.801 3-6 2.791-.89 5.99-2.331 0-2 .013-1.987 2.729-1.271 2-4-2.279-1.373-3.759 2.578-4 0 3.104-1.815 1.626-4.155-1-5 2.494-.506 4.109-1.891 6-3-1.273-1.393-4.898-.435-5-3 5.254 2.786-3.655-4.48-1-5-.164 1.641 6.164 1.641 6 0-3.085-2.452 2.169 1.802 2-1-1.348-1.458-4.611-5.354-1-6-.044 1.71.743 2.59 2 3 .745-3.078-2.745-1.922-2-5 .774-1.448 6.013 1.039 3-2-1.785-.068-2.704.219-5 0 .3-1.177 5.295-2.511 2-4-.111.795-3.306 3.031-3 1 .889-1.778 2.792-2.542 2-6-.606-1.727-4.743.077-5-2 .294-2.039 2.706-1.961 3-4-1.78-.553-4.153-.514-5-2 2.885-2.238 5.935-2.091 8-3-3.827-4.188-6.525 2.204-9 1 1.511-3.155 5.069-4.264 7-7-1.78-.553-4.153-.514-5-2 3.74.073 6.913-.421 9-2-1.728-2.982-6.183 1.432-7-1 1.613-1.387 5.154-.846 6-3-1.44-.56-2.44-1.56-3-3 3.156.489 3.531-1.802 7-1 .704-4.704-4.984-3.017-7-5 4.118.785 5.132-1.535 9-1 .541-5.079-3.541-.019-3-4 .638-3.633 4.675 2.32 5-1-1.768-.898-2.92-2.414-5-3-1.595.738.229 4.895-3 4 .594-4.32.554-12.032-3-15-.575 1.758 1.209 5.875-1 6-3.883-2.606-1.247-1.465-3 1-1.889-.111-.694-3.306-3-3-1.33 1.685.529 5.547-3 7-.275-.908-3.725-3.358-4-1 .928 2.017-2.182 3.909-2 7-3.557-3.593-2.89-.72-8-4 1.232 7.778 11.433 11.887 11 18-5.019-4.981-8.012-11.988-15-15-.083 1.583.481 3.814-1 4-1.492-.159-3.158-.891-5-3-.622 2.717 4.522 4.684 2 6-2.111-.89-1.737-4.264-5-4 1.179 2.786.143 5.943-2 8 .279-2.279-.241-3.759-2-4-1.275 2.503.509 3.131-1 4-1.004-1.329-.946-3.721-3-4-1.448 2.885-2.732 5.935-5 8-.022-2.355 1.723-2.944 1-6-3.798 2.928-1.797 2.454-6 0-.602 3.602 3.053 2.947 3 6-2.711-1.24-2.489-3.86-6-2-.723 3.056 1.022 3.645 1 6-3.292-.375-2.017-5.316-6-5 1.196 5.488 5.5 13.145 4 18-2.67-5.599-1.818-8.923-5-14 .366.584-1.74 1.275-2 1-1.002-1.062.702-6.711-2-5 1.491 3.142.76 4.809-3 5 1.298-1.329 1.318-3.721-1-4-.43 4.096.927 6.406 2 9-3.086-.613-5.753-8.768-8-4 .87 1.542 2.985 6.909 1 8-3.029-4.853-6.146-3.497-9-8-.378 3.436 4.144 7.112 2 9-1.071-2.473-2.27-5.429-4-2-2.026-1.307-1.374-5.293-4-6 .445 3.222 1.916 5.418 2 9-2.217-.551-1.424 1.909-3 2 .838-8.664-6.751 2.273-5-6-3.307 2.237-2.304 2.568-7 3 .125-2.503 1.909-3.131-1-4-.82 4.248-2.257 1.675-5 4-.514-2.927 4.979-4.915 2-7-3.765.901-1.756 7.577-5 9-.738-4.738 1.125-6.875 1-11-3.726 1.059-3.228-2.105-5-3-.814 2.729-2.686 5.012-4 2 .086 1.419.165 2.832-1 3 .367-3.034-3.257-2.076-5-3 .689 3.327-2.067 1.611-3 1 .207 2.874-.253 5.08-2 6-1.213-4.019 2.647-7.317-1-8-1.207 3.099-4.83-1.848-9 2 .873-3.206-1.539-3.128-3-4-.556 5.159-2.346-1.11-4-1-.574 3.676-4.91-.387-7 3 .013-1.987 2.729-1.271 2-4-3.244 1.676-3.227 2.555-5-1-1.739 2.446-4.534.787-6 5-.547-1.453 1.168-5.169-1-5-1.058 3.211-4.882-2.705-8-1 .09-2.729-1.666-2.013 0-4-3.469.802-3.844-1.489-7-1 .889-2.111 3.044-2.955 3-6-1.78-.598-4.153 2.931-5 0 1.484-.437-.395-1.279 0-3 6.202-.389-.068-.514-1-2 2.182.182 3.182-.818 3-3-1.758-.575-5.875 1.209-6-1 6.196-.477-1.854-3.182 3-5-4.46-.25-1.15-3.6-3-5-.903 1.742-2.237 3.852-4 2-.826-2.826 1.409-2.591 1-5-3.233-.827-3.969-3.436-6-3 .353-1.313 1.761-1.572 2-3-4.566 1.754-2.004-.323-1-3h-5c.294-2.039 2.706-1.961 3-4-1.453-.547-5.168 1.169-5-1 1.44-.56 2.44-1.56 3-3-5.172.182 1.118-2.869-4-5 2.503.169 3.13-1.536 4-3-4.536-1.417-1.112-6.007-6-8 1.357-.31.83-2.504 1-4-7.109-.345-2.104-4.655-8-5 1.668-3.235 1.462-2.134 1-7-.606-1.727-4.743.077-5-2h3c.813-4.898-.254-4.311 3-8-3.122-3.479-3.283 5.073-6 2 2.449-3.884 5.516-7.151 8-11-2.323-.677-2.677-3.323-5-4-2.349 1.651-5.82 2.18-7 5v-1h-1c-15.078 6.085-25.984 18.984-39 28-20.302 14.062-44.039 31.687-63 49-6.16 5.625-12.018 12.995-20 18-1.934 3.399-3.851 6.816-7 9-1.674 1.326-3.351 2.649-7 2 .153 4.85-8.147 6.479-12 4-.752-13.238 11.332-21.578 19-30 33.081-36.329 74.53-69.312 109-103-3.141-.505-4.086 2.357-5-1 3.747.081 8.091.758 7-4l3.5.5-2.5-2.5c.15-1.85 3.386-.614 4-2 .15-2.483-.517-4.15-2-5-.443.89-.878 1.789-2 2l-1.214-1.357L129 246c-.063-3.92 5.837-5.433 3-9-1.382-2.915-4.618 5.915-6 3 1.631-3.369 5.732-4.268 6-9-5.349-.651-13.313 1.313-17-1 6.846.512 10.892-1.774 18-1-2.226-3.331-5.945-4.412 0-6-3.499.166-6.401-.266-8-2 3.643-.309 6.508.159 9 1-.319-2.319.161-3.839 1-5-2.279-1.373-3.759 2.578-4 0-.88-3.213 3.296-1.37 3-4-2.506-1.827-6.586-2.081-8-5 4.602.064 6.491 2.842 10 4-1.681-6.986-11.818-5.516-14-12 4.369 3.346 9.21 1.957 15 5-3.012-7.655-14.531-6.802-20-12 6.09-.07 11.459 5.847 16 4-.572-.905-4.124-3.681-2-4 1.283.5 5.979 2.531 6 1 .077-4.399-8.464-7.065-10-13 3.702 1.987 8.313 8.323 11 8-2.922-3.411-7.084-5.583-8-11 3.063 1.856 7.91 11.745 10 8l1.5.5-.5-1.5c.134-2.229 3.065-3.659 1-7h1v-1c1.146-4.146-2.104-3.896-2-7 1.313.354 1.573 1.761 3 2 2.588-11.266-9.462-13.19-9-19 3.596 1.737 4.98 5.687 8 8-.127-1.794 1.224-2.109 1-4l1.5.5-.5-1.5c1.873-2.793 1.894-7.439 4-10l1.5.5-.5-1.5c2.155-5.58 9.061-6.875 8-13 2.488.109 3.096 1.874 5 0 1.267-3.049-3.419-5.092-1-6 2.358.309 1.86 3.473 5 3 .127-1.794-1.224-2.109-1-4 8.27-1.396 12.979-10.54 24-12 .083-1.583-.481-3.814 1-4 2.358 1.288 1.86-.131 5 1-.279-2.279.241-3.759 2-4 1.572.761 1.494 3.172 4 3 1.973-.694-.246-5.58 2-6-.022 2.356 1.723 2.944 1 6 5.113-3.569 4.69.848 13 0 .86-.807.594-2.739 2-3v1h1c1.987.013 1.271 2.729 4 2 .826-2.826-1.409-2.591-1-5 2.507.827 3.163 3.503 5 5 3.661-2.885-4.06-5.935-1-8 3.052 4.597 6.563 4.315 8 9 3.059-5.505-3.779-12.985-1-18 2.651 3.701.779 17.196 8 13-.823-1.188-1.497-4.333 0-6 1.566 1.434.788 5.212 4 5-1.105-6.243-6.87-13.11-6-18 3.828 3.839 3.147 12.186 9 14 .183-2.595-3.196-6.698-1-8 1.502 6.057 1.728-2.586 3-3-.207 2.874.253 5.08 2 6-.021-3.354 0-6.667 4-6-2.214-3.724.946-15.311 2-22 .209 3.5-.995 13.603 2 11-1.243-.656 2.723-2.864 2-4 .443.89.878 1.789 2 2 .127-1.794-1.224-2.109-1-4 2.039.294 1.961 2.706 4 3 1.151-2.182.198-6.468 3-7-.086 1.419-.165 2.832 1 3 .31-1.357 2.504-.83 4-1 .158-10.358 4.701-10.153 8-17 2.177 7.3 8.386-2.541 12 0 .898-3.436 1.554-7.112 4-9v5c5.415-.252 3.082-8.251 8-9 2.029.638.659 4.675 3 5-.701-5.62 2.05-3.731 3-1 1.494-3.173 1.673-7.66 5-9 .399 3.457-4.329 6.927-2 9 2.107-3.227 1.94-8.727 6-10 2.775-.993 2.829 5.682 5 2 .097-1.242.43-3.301 1-6 1.74 1.134 4.955-2.414 4-5 2.507 2.606 3.163 1.464 5-1 .56 1.44 1.56 2.44 3 3 .083-1.583-.481-3.814 1-4 2.6.4 3.016 2.984 6 3 2.324-3.009 4.446-6.221 7-9 .658 3.658-2.164 3.836-2 7 4.413.556 5.269-6.001 9-3-.319-2.348-1.58-3.753-1-7 2.591 2.641 3.718.952 7 2 .083-1.583-.48-3.814 1-4 3.948-1.281 2.42 2.914 5 3 .105-2.561.566-4.767 2-6 .521 1.479 1.479 2.521 2 4 4.024.691 2.455-4.211 6-4 2.449 1.329-1.1 3.721 1 4 .437-1.23 1.279-2.054 3-2 .21 1.71-1.705 2.59 0 3 2.847-2.82 5.737-5.596 10-7-.717 1.065-3.904 4.606-1 6 2.161-2.172 5.838-2.829 9-4 .509 1.985-5.518 2.288-2 4 3.415-.953 5.578-8.376 8-7-.586 2.081-2.102 3.232-3 5 10.847 1.847 13.382-4.618 20-7-.878 3.122-4.717 3.283-6 6 6.313-1.687 8.445-7.555 15-9-1.723 3.944-7.277 4.056-9 8 4.734.696 7.272-6.01 10-4 .429 2.211-6.008 2.502-3 4 3.997-1.03 9.884-5.413 13-4-.115 1.667-6.957 1.553-4 3 5.899-.785 12.609-6.034 17-5-2.543 2.457-7.718 2.283-10 5 8.858-.714 15.236-5.177 21-4-2.867 1.8-6.698 2.635-9 5 9.499 4.246 13.217-1.902 21-4-.508 3.202-9.194 3.414-7 6 .638-.839 4.675-3.13 5-1-.227 1.44-2.984.349-3 2 9.788-.949 18.541-1.836 24 0-2.286 1.714-7.05.95-9 3 7.194 4.741 20.049 1.595 27 2-.726 2.274-6.921-.921-6 3 5.078.711 9.794-4.161 13-2-.979 2.354-5.771.896-7 3 4.083 2.583 13.704-.371 16 4-3.371.959-6.831-3.063-9 0 6.321 4.346 17.981 3.352 27 5-4.087.981-4.042-.11-9 0 2.056 6.944 14.479 3.52 21 6-2.714.619-7.937-1.27-9 1 5.922-1.019 1.528 2.069 5 3 .658-1.342 2.138-1.862 4-2 .306 2.306-2.889 1.111-3 3 9.019 5.648 20.463 8.871 30 14-3.891.508-8.187-3.747-10-2 5.555 4.778 15.662 5.004 21 10-4.87-.312-4.635-2.744-8 0-.268-1.419-6.854-3.702-4-2 3.35 3.651 9.891 4.109 12 9-4.033-.334-7.628-6.327-10-5 4.021 1.75 5.428 6.496 9 9 4.573 3.206 10.754 2.88 15 7-2.595.183-6.697-3.196-8-1 2.797 1.537 5.641 3.026 8 5l-1.5.5 1.5.5c4.885 7.449 15.86 8.807 23 14-4.671.633-8.78-4.502-11-3 4.521 5.154 15.364 9.29 17 14-2.872-1.166-7.109-6.173-9-5 3.384 1.165 3.973 4.996 7 7 5.244 3.47 13.27 2.684 17 8-1.862.956-3.342-2.995-4 0 1.701-.368 1.887.78 2 2-.807-.693-2.739-1.556-3 0 1.912.421 4.305.362 4 3-1.496.019-4.09-3.715-5-1 5.33 6.676 17.665 11.66 21 17-3.557-.811-7.453-6.501-10-5 5.373 5.294 13.02 8.313 19 13-1.009 3.529-3.717-.157-5 2 4.115 1.905 12.404 4.902 12 8-2.971-.74-6.906-5.702-9-4 5.39 8.948 18.508 15.486 24 21-4.011-.027-6.741-6.541-10-4 4.555 4.446 9.964 8.036 14 13 2.98.02 6.093-.093 6 3-4.397-.961-10.775-5.191-15-3 3.029 1.338 8.895 5.06 8 7-2.403-.169-7.554-6.316-6-4 3.839 7.834 11.371 17.287 13 24-2.052-.682-3.284-7.293-5-5 1.132 4.535 4.812 6.522 6 11-2.323-.677-2.677-3.323-5-4 .938 5.061 4.838 7.162 6 12l-4.182 1.545L716 232c-3.141.505-4.086-2.357-5 1 4.624 1.474 15.656 17.098 17 24-3.426-3.258-7.301-11.343-11-11 1.73 1.603 2.93 3.737 4 6h-1v1c-.854 3.188.871 3.796 2 5h-1v1zm-34-110c-3.225.491-5.909-4.667-8-2 2.129.604 6.368 4.208 8 2z" fill-rule="evenodd"/><g fill="none" stroke="#000" stroke-linecap="round"><path d="M150 282c-11.102 16.337-23.732 33.026-41.5 42.5" stroke-width="1.264"/><path d="M118 259.5c-5.264 7.869-11.77 15.476-18.5 22" stroke-width="1.289"/><path d="M87.5 277.5c9.601-6.619 19.319-14.526 30.5-18" stroke-width="1.263"/><path d="M118 259.5c1.808-1.564 4.189-2.425 6-4" stroke-width="1.86"/><path d="M124 255.5c.744-3.976 5.021-6.275 6.786-9.857" stroke-width="2.376"/><path d="M131 172c-10.247-12.542-19.568-26.626-29.5-39.5" stroke-width="1.176"/><path d="M131 172l.861-.562c4.053 1.366 7.134 4.896 11.139 6.562" stroke-width="1.383"/><path d="M145.5 157.5c-2.181-4.661-.248-10.452-.077-15.294.581-.018 1.228.289 1.817.571.74 1.571 1.782 2.807 3.26 3.723" stroke-width="1.649"/><path d="M220 107c5.062-9.881 8.939-19.789 14.5-29.5" stroke-width="1.378"/><path d="M619.5 85.5c6.69 1.348 12.434 5.44 18.5 8.5" stroke-width="1.159"/><path d="M718.818 228.545c5.188 2.058 4.567 8.184 4.748 12.296-3.746-2.095-8.289-7.888-4.748-12.296" stroke-width="2.859"/><path d="M131 172c2.953 5.212 6.827 9.769 10.5 14.5" stroke-width="1.333"/><path d="M124 255.5c3.646-.115 6.834-4.247 10.5-1" stroke-width="1.354"/><path d="M721 258c2.045 1.165 3.789 2.894 5.974 3.73.214-3.525-4.149-7.322-6.974-9.73" stroke-width="1.25"/></g></svg>