<svg xmlns="http://www.w3.org/2000/svg" xmlns:dc="http://dublincore.org/documents/dcmi-terms/" height="232.589" viewBox="0 0 352.212 232.589" width="352.212" overflow="visible"><metadata><dc:description>Silhouette of Arachnida, processed by PhyloPic Tools (https://github.com/eweitz/phylopic-tools)</dc:description><dc:source>http://phylopic.org/image/470398f4-9687-466f-b049-6bafcacff0fc</dc:source><dc:creator>Gareth Monger</dc:creator><dc:license>http://creativecommons.org/licenses/by/3.0/</dc:license></metadata><switch><g><path d="M349.462 157.714c-1.5-.75-5.125-1.25-5.125-1.25s.375-.25-.125-1.125-9-7.75-12.125-9.625-11.125-4.25-11.125-4.25-2.25-3.5-4-5.375-8.375-6.5-8.375-6.5-.25-1.125-1.125-3.125-9-8.375-11.375-10.125-17.625-10.75-17.625-10.75v-2.125c0-1-6-8.625-7.375-10.5s-12.625-10.375-14.25-11.375-12.875 2.875-12.875 2.875v-3.375s17.875-9 20.5-11.875 7.375-12.5 7.375-12.5 6.625 8.75 8.5 9.875 4.625.625 4.625.625 1.5 3.75 3.25 7.25 9.5 10.25 13.875 12.5 7.875.875 7.875.875 5.125 8.25 7 9 4-1.25 4-1.25 5.5 5.375 9.375 6.25 7.625-.25 7.625-.25 1.875.75 2.625 1.75.25 3.625.25 3.625 1.375-3.875 1.125-5.25-1.75-3-1.75-3v-1.25s1.375-1 3.125-.75c1.509.215 1.993 1.541 2.099 1.904-.123-.444-.699-2.423-1.474-3.529-.875-1.25-5.625-1.375-5.625-1.375s-3.625-2.875-5.5-4.125-10.5-4.125-10.5-4.125-3.375-4.25-4.5-5.5-6.5-2.75-6.5-2.75 0-.5-.625-1.875-9.75-8.875-9.75-8.875l2.875-.375s5.625 3.5 7.375 4.625 8.375 2.75 10 2.75 1.75-1.875 1.75-1.875 3.875 1.125 5.375 2.375 2.125 3.75 2.125 3.75-.375-6.625-1.5-8.125-5.125-3-5.125-3-.375-1-3.75-3.625-14.125-5.75-14.125-5.75-4.75-4.125-6-4.75-7.75-1.625-8.5-2-2.375-1.5-4.125-2.375-15.5-8.75-17-9.625-3.625-1.375-6.75-1-9.875 8.25-14.125 13.125-12.125 15.75-12.125 15.75 1.125-20.375 1-23.5-1.125-5-.625-5.5 3.5-2.375 5.5-5.5 2.75-5.625 2.75-5.625 1.5-.25 2-.125 3.5 1.625 5.75 1.625.25-2.125 1.75-1.75 6.625.5 6.625.5 2.5 1 4.75 1.125 3.168-.502 4.134-.341c.966.161 10.144 0 11.593-.483 1.449-.483 3.059-3.381 3.059-3.381s.966-.322 2.254-.322 4.025 2.254 4.025 2.254 0-1.932-2.093-3.703-3.382-1.771-3.382-1.771l.483-.805-2.415-.322s-6.118-2.093-9.499-2.415c-3.381-.322-6.763.483-8.855.322-2.092-.161-4.991.322-6.44-.322-1.449-.644-5.151-.483-5.151-.483s-3.06-.805-4.509-1.288c-1.449-.483-9.499-.161-12.719.161-3.22.322-4.83 2.898-4.83 2.898s-5.152-2.576-6.44-4.186c-1.288-1.61-3.703-1.127-3.703-1.127s-7.89-8.211-10.465-9.982c-2.575-1.771-4.991-3.059-9.338-1.771-4.347 1.288-4.187 15.456-4.187 15.456s-2.898-4.347-5.957-5.635c-3.059-1.288-5.636-.322-5.636-.322s-2.415-4.025-4.508-5.474c-2.093-1.449-6.602-4.186-8.855-4.186s-5.957 1.932-6.923 4.347c-.966 2.415.805 10.304.805 10.304s-1.127.322-1.771.483c-.644.161-3.22 2.415-3.22 2.415s-7.406.483-9.016.805c-1.61.322-9.5 5.152-11.753 5.474-1.348.192-4.648.557-7.088.82l.004-.015s0-3.703-.644-6.762c-.644-3.059-2.415-6.601-4.669-9.177-2.254-2.576-6.118-3.703-7.889-3.381-1.771.322-3.703 3.22-3.703 3.22s-3.542 1.771-6.118 3.703c-2.576 1.932-9.177 10.465-10.626 11.109-1.449.644-5.635.966-5.635.966s-2.254-4.669-4.347-7.246c-2.093-2.577-5.636-5.635-7.567-6.601-1.931-.966-1.449.483-3.864-.161s-7.245.805-9.66 2.898-6.602 9.177-7.406 10.144c-.804.967-3.542 3.864-3.542 3.864s-4.83 3.864-5.474 4.991c-.644 1.127-9.016 9.338-10.465 10.788-1.449 1.45-3.869 5.151-3.869 5.151s-6.279 3.381-8.373 4.991c-2.094 1.61-4.347 5.635-4.347 5.635s-5.313 1.61-7.245 2.737c-1.932 1.127-6.923 5.152-8.533 6.44-1.61 1.288-2.093 2.737-2.093 2.737s-4.669.805-6.279 1.288C.977 72.663.402 73.772.155 74.421c-.11.287-.155.484-.155.484s1.771-.805 3.221-1.126c1.45-.321 2.898.805 2.898.805s1.771-.966-.483 1.288-1.449 5.474-1.449 5.474.644-1.61 1.288-2.415c.644-.805 4.025-1.932 4.025-1.932l4.991.483s.966-.483 2.576-.644c1.61-.161 5.796-5.152 5.796-5.152s1.932 0 3.059-.966c1.127-.966 2.898-3.22 2.898-3.22s4.991 0 6.601-.805c1.61-.805 7.406-8.211 7.406-8.211s4.508-.483 5.474-.805c.966-.322 5.474-6.279 8.373-9.982 2.899-3.703 9.016-12.558 9.016-12.558s4.991-.322 6.923-1.932c1.932-1.61 3.22-5.796 3.22-5.796s1.771-1.61 1.771-.161 6.601 7.406 6.601 7.406-2.576.966-4.669 1.771c-2.093.805-2.736 3.541-2.736 3.541l-5.635 2.737s-4.83 1.449-8.372 3.703c-3.542 2.254-6.762 5.957-8.211 7.245-1.449 1.288-2.576 3.381-2.576 3.381l2.093-1.288s3.703.644 4.669 1.288c.966.644 3.542 0 5.474-1.127 1.932-1.127 11.431-4.991 11.431-4.991s.059.834.069 1.919c-3.25 2.349-7.866 5.63-10.155 7.004-3.75 2.25-3.875 6.375-3.875 6.375s-7.875 6.25-9.5 7.625-.5 4.75-.5 4.75-4.125 4.625-5.125 5.875.25 7.875-.375 9.375.25 15.375 2.25 21.5 15.25 22.25 17.25 24.375 4 1.375 4 1.375 6.75 4.5 11.125 6.375 9.125 2.875 9.125 2.875 6 2.75 10.375 2.375 8-2.75 8-2.75.875.375 3.125-.125 8.5-2.125 9.625-2.25 10.5-1.125 13.375-1.375 2.75-1.375 4.625-1.25 4.125-1.875 5.625-1.75 2.5.375 2.5.375-.5.625-.625 2 .25 3.375.25 3.375-7.125 5.375-13.25 11.125-12.875 19.5-13.375 19.875-8 3.625-11.75 7.625-3.625 6.75-3.625 6.75-10 6.125-14.875 10.25-6.5 9.25-6.5 9.25-3.875 1-5.875 2.875-3 4.875-3 4.875 3.25-1.75 4.5-2.5 3.75.5 3.75.5.875 1 .625 3.25.5 9.75.5 9.75 2.25-3.25 2.75-4.625 1.875-5.125 1.875-5.125 2.625-.125 4.625-.5 4.625-2.625 8.5-5.375 14.25-11.625 14.25-11.625 4.25-1.5 7.125-3.625 6.25-11 10.625-12.25 8.625-7.625 14.125-13.75 15.5-20.125 15.5-20.125 1.25-.375 2.625-2.75 6.875-16.625 6.875-16.625 9.5 3 13.625 2.5 4.125-3.375 5.625-5.375 5.75-14.5 5.625-17.75-2.375-7.75-2.375-7.75l1.375-.625h4.25s4.875 5.875 8.375 9.375 12.375 4.75 14.25 4.75 5.5-2.375 7.5-3.875 1.5-3.125 1.5-3.125 3 4.5 4.75 6.125 4.125 3.75 4.125 3.75.75.875.875 2.375 8.5 17.625 10.625 21.375 7.375 11.25 7.375 11.25 3 6.5 5.625 10.625 7.125 8.75 7.125 8.75 1.375 9.625 3.75 15.625 9.125 12.5 9.125 12.5.125 2.75.875 5.125 1.5 5 1.5 5l1.5-9.375s1.25-.25 2.125-.375 2.125-2.5 2.125-2.5.875.25 2.625 1.25 2.375 3.5 2.375 3.5-.875-4-1.25-5.125-3.625-4.125-3.625-4.125-1.875-9.75-3.25-14.125-8.75-11.625-8.75-11.625-1.75-7.25-3.375-10.25-5.625-8.25-5.625-8.25-.375-4.375-.875-8.25-2.125-5.25-5.625-12-11.5-17.25-11.5-17.25-.875-5.875-1.25-8.25-6.125-9-6.125-9 1.125-.625 1.875-1.75 1.625-4.125 1.625-4.125 3.125 5.5 6.625 10.5 6.75 9.125 8.5 9.875 3.375.125 3.75.75 24.25 23.25 25.875 23.75 4.25-1.25 4.25-1.25 7.75 13.125 9.625 14.25 7 .5 7 .5 7.125 6.75 12.75 10 12 2.25 12 2.25 1.25 1.75 2.375 3 1.875 3.375 1.875 3.375.625-3.125.625-4.5-1.5-3.875-1.5-3.875l.625-2.5s1.375-1.875 3-1.75 3.5 2.25 3.5 2.25-1.25-3.375-2.75-4.125zM113.914 31.168l.561-1.022s4.83-7.406 4.991-6.44c.116.693 2.545 4.195 4.21 6.599-2.192.272-6.192.721-9.762.863zm231.522 67.45l.026.096-.026-.096z"/><path d="M60.532 19.443s5.352-.744 6.541-.149M27.384 51.253s7.432-.297 8.473.743M33.479 48.281s5.946-.594 7.433 0M41.208 39.213s7.729.148 9.662.297M47.452 34.457s3.27-.148 4.756.297M20.398 57.794s6.095-.744 7.581.446M26.938 54.078s4.459-.445 5.203.446M9.25 65.821s4.311-.446 4.905.148M8.506 68.497s1.189.297 2.229.297M15.195 63.294s1.487 1.486 2.676 1.635M69.6 9.93s4.459.743 5.946 1.486M70.045 41.146s3.122-.743 4.459.297c1.337 1.04 5.352-1.784 5.352-1.784s-2.973-2.081-4.311-2.081M64.992 43.375s4.014-.148 4.459.446M54.735 29.254s3.122-.297 3.865-.148M128.315 4.43s0 3.716-.149 4.905-9.959 1.189-9.959 1.189-3.717-.297-5.946-.297M114.491 12.903s-3.271-.892-5.054-.594M105.87 19.889s0-.297-1.784-.297h-3.419M101.708 24.2s-1.487-1.189-2.378-1.189M109.289 15.43s-2.081-.298-3.419-.149M104.829 17.66s1.636-.297 2.973-.148M109.438 215.507l.297-7.581-11-8.027-6.689-.149M104.06 219.94l.297-7.581-11-8.027-6.689-.149M98.857 224.696l.297-7.581-11-8.028-6.689-.148M98.586 197.223l2.825.149M102.005 194.994l2.676.594M105.275 187.859s2.825-1.04 5.054.595M109.438 184.44s2.526.891 3.27 1.188M114.789 209.115s-.148-3.121-.297-4.459M126.234 166.602s2.378-2.378 4.905-2.378M141.842 184.142s.297-1.783.297-2.973M284.542 170.169s-3.864-4.162-6.243-4.162c-2.379 0-5.5-8.324-5.5-8.324s4.013 1.189 5.945 1.338M298.217 196.925s-4.311-4.014-6.54-4.014-12.933 1.636-12.933 1.636-2.676 2.974-2.676 4.014M264.177 164.223s-1.635 2.527-1.635 3.271M247.678 147.278s-.892-6.541 2.081-8.027c2.973-1.486 6.688 10.703 6.688 10.703s-1.635 1.487-.892 4.014M282.163 206.439s-.892-5.946.595-6.689M342.96 150.102s-5.649-.892-7.433 0c-1.784.892-9.216-5.946-9.216-5.946s2.973-.595 5.054-.743M307.731 124.088l-4.162-1.189-9.811-6.094s2.973-.297 4.311 0M308.475 130.629s3.567-.893 4.311-.149M311.745 133.454s3.121-.743 3.716-.595M316.204 138.209s2.823-.445 3.716.149M301.636 87.521V84.4l-11.594-9.365s-2.379-.446-2.379.892M311.744 95.548l1.635-4.757 3.419 3.271s.148 2.675.595 4.013M339.243 91.535s-7.284-.446-8.324-.297c-1.04.149-2.526-3.865-2.526-3.865s1.189-1.041 2.081-1.189M334.041 103.724l.148-2.973M316.501 59.427l-5.352.149 6.095 3.121 4.459.298M286.623 45.9s-4.162-1.784-5.5-.892 4.905 5.649 4.905 5.649 4.46-1.933 5.5-1.933M281.123 69.535l.148-4.014-2.824-3.27-.446 5.649M282.46 16.32s-3.419-.298-4.311.297c-.892.595-15.905.892-15.905.892s.445-1.487 2.229-2.378" fill="none" stroke="#000" stroke-width=".5" stroke-linecap="round"/></g></switch></svg>