<svg xmlns="http://www.w3.org/2000/svg" version="1.2" width="466" height="571" viewBox="0 0 466 571" overflow="inherit"><path d="M278 0c-.664 4.664 1.575 6.424 2 10-1.278-.055-1.385-1.282-3-1-1.011 4.678 4.011 3.322 3 8-1.427.39-1.687 1.2-3 0 1.235 3.741 4.161 13.028 1 12 4.353 5.776 4.059 10.004 6 18-1.427-.239-1.687-1.646-3-2 .115 2.025 6.471 10.504 2 13 1.447 1.553 1.334 4.667 3 6-.261 1.556-2.193.693-3 0 1.837 6.019 7.287 12.863 4 19-1.966.299-1.983-1.35-3-2-3.291 2.397 3.639 2.95 2 7-2.638.304-2.579-2.088-3-4-4.846 2.025 2.62 4.106 1 9-1.377.043-2.195-.471-3-1 .507 3.159 2.943 4.39 3 8-1.278-.055-1.385-1.282-3-1 .334 3.667 3.963 4.037 3 9h-3c5.044 6.593-2.664 7.231 0 13-1.796.129-2.34-.993-2-3-3.024 1.514.829 4.389 0 7-2.635.301-3.282-1.385-3-4-4.337 1.419 1.697 4.213 0 9-4.01 4.503-10.089 8.047-14 15-8.938-7.844-1.142-30.25 5-36-.186-1.481-2.417-.917-4-1-.88-3.213 3.296-1.37 3-4-2.359-.456-8.363 2.167-9-3-1.987.013-1.271 2.729-4 2-1.235-3.236 3.235-.764 2-4-4.024-.691-2.455 4.211-6 4-4.683-.122 1.088-1.456 0-4-3.406-.74-1.648 3.685-4 4-4.085.301.169-1.385-1-4-7.385 8.282-8.258 23.075-10 37-2.632-3.521-3.876-17.448-2-19-5.174-.371.637-5.509-5-5-.319-2.319.161-3.839 1-5-1.181-.47-4.269.22-3-5-3.236-1.236-.764 3.236-4 2-.17-1.496.357-3.69-1-4-3.506.272 1.807 4.428-1 4-3.936 1.602-.348-4.319-3-4-3.633.638 2.32 4.675-1 5-3.555 1.555-.604-3.396-3-3-1.481.186-.917 2.417-1 4-3.265.265-2.12-3.88-5-4-3.305 1.5 2.078 2.445 1 5-2.729.729-2.013-1.987-4-2-2.448.111-.212 3.306 1 3-1.233 3.038-3.439-1.084-6 0 .18 2.82 4.753 1.247 4 5-1.917 7.272 6.755 18.458 9 30-4.156 3.847-4.176.788-8 3-1.716-1.617-2.484-4.183-2-8-2.168-.168-.453 3.547-1 5-2.291-2.877-10.398-7.139-8-14-1.72-.054-2.563.77-3 2-3.055-1.849 1.154-4.751 0-8-1.93.404-.087 4.58-4 3 1.237-2.763 2.92-5.08 3-9-2.447.887-1.083 5.583-5 5-.003-3.336 3.253-3.414 3-7-2.055-3.565-.848 4.37-4 3 2.365-11.43-3.858-15.371 3-24-3.236-1.236-.764 3.236-4 2 1.898-3.646-1.361-6.234 1-9-1.218-1.449-3.994-1.34-4-4 .122-2.544 1.456-3.878 4-4-2.972-3.949 1.29-7.58 3-10-3.895 2.504-3.696-6.129-1-10-2.772.017-2.562-9.502 0-12-5.587-11.221 3.607-24.252 0-40-2.172-.143-3.977 1.33-4-3-3.162 1.548 1.252 6.002-1 7-1.795.129-2.34-.993-2-3-2.693 1.183.004 5.214 0 7-2.065.601-3.787 1.546-3 5-1.22-.113-2.368-.299-2-2-3.024 1.514.829 4.389 0 7-1.22-.113-2.368-.299-2-2-2.883 1.447 2.184 5.952-1 8-1.434-1.233-1.895-3.439-2-6-3.482 3.548 2.146 6.471 1 11-3.213.88-1.37-3.296-4-3 .945 4.05 4.868 7.037 2 12-2.638.304-2.579-2.088-3-4-3.566 3.633 4.058 4.56 2 10-3.753.753-2.18-3.82-5-4-.252 4.585 4.525 4.142 4 9-3.213.88-1.37-3.296-4-3 .255 4.078 3.728 4.939 3 10-1.278-.055-1.385-1.282-3-1 .451 2.882 3.539 3.128 3 7-2.039-.294-1.961-2.706-4-3-1.021 3.862 7.679 6.952 2 9 1.54 3.337 6.623 7.296 2 11-2.306.306-1.111-2.889-3-3-2.394 1.817 3.63 3.637 2 8-2.039 2.009-1.961-.442-4-1-.382 3.715 4.052 2.614 3 7-3.236 1.236-.764-3.236-4-2 3.837 6.308 5.245 11.934 2 18 1.013 3.32 5.535 3.132 5 8-1.427-.239-1.687-1.646-3-2-.188 4.854 5.838 3.496 6 8-1.376.043-2.196-.471-3-1 .582 4.085 6.388 2.945 6 8-1.427-.239-1.687-1.646-3-2-.157 3.824 4.083 3.25 6 5 2.469 14.24 22.92 15.69 23 29-5.544-6.123-19.43-3.903-21-14-5.73 3.325-3.683-7-9-5-1.031-3.872.521-4.118-1-7-2.396-.396.555 4.555-3 3-.204-3.129.674-7.341-1-9-3.506.272 1.807 4.428-1 4h-2c-.057-.61-.149-1.184-1-1 .883-2.451 2.997-3.669 2-8-3.688.729.426 3.009-2 5-1.426-1.908-2.325-4.342-3-7 3.033.033 2.492-3.508 3-6-3.36-1.027-1.557 3.11-2 5-3.067-8.048-11.399-14.643-9-25-3.445 2.097-6.101-4.817-4-9-1.795-.129-2.34.993-2 3-2.963-1.704-2.983-6.35-4-10-1.787 3.948-4.944-.427-4-5-1.576.09-.783 2.55-3 2-4.109-.886.77-12.675-5-9-.647-6.617-2.232-8.595-8-13v-7c-2.396-.396.555 4.555-3 3-.319-2.348-1.58-3.753-1-7-1.576.09-.783 2.55-3 2-3.106-7.561-11.422-9.911-11-21-3.834-.182-.363.818-1 3-3.815-4.074-4.942-6.814-7-10-1.587-2.458-7.628-7.838-11-12-5.079-6.268-4.955-.973-7-8-2.392 2.098-4.709-1.941-9-1 .248 7.364 4.418 14.29 12 19 .406 13.834 17.787 25.339 16 37 1.499 2.168 5.004 2.329 5 6-1.376.043-2.196-.471-3-1 .496 3.504 5.146 2.854 6 6-.221.779-.837 1.163-2 1 7.209 8.34 10.518 14.524 18 22h-3c1.491.378 7.271 4.171 2 5 1.059 2.608 5.242 2.091 6 5-.168 1.165-1.581 1.086-3 1 1.002 3.328 4.036-.268 6 3 .729 2.729-1.987 2.013-2 4 3.651-2.056 4.491.449 7 2-.016 1.651-2.774.56-3 2 .125 2.208 4.242.425 6 1 1.674 1.659.796 5.871 1 9-1.376.043-2.196-.471-3-1 .238 4.096 6.82 1.847 5 8-1.891.224-2.206-1.127-4-1 1.591 2.409 4.687 3.313 6 6-.113 1.22-.299 2.368-2 2 1.112 2.221 3.958 2.709 5 5-.261 1.556-2.193.693-3 0 .46 3.874 4.903 3.764 6 7-.012 1.322-1.753.914-2 2 2.722 1.611 5.899 2.767 6 7-1.352-.314-1.91-1.423-4-1 1.028 3.305 7.609 1.058 8 5-.168 1.165-1.581 1.086-3 1 13.159 7.175 22.347 18.32 40 21-1.898 10.935-23.272 7.404-26 0-5.517.517-8.556-1.444-9-6-1.576.09-.783 2.551-3 2-.261-1.406-2.193-1.14-3-2-1.877-1.768 1.19-2.919-1-5-1.576.09-.783 2.551-3 2-1.683-2.317-3.741-4.259-4-8-1.576.09-.783 2.551-3 2-.426-1.907-2.857-1.81-2-5-9.397.447-8.022-13.717-17-14 .725-3.059-1.725-2.941-1-6-2.14 6.466-6.449-1.004-7-5-1.481.186-.917 2.417-1 4-7.356-3.644-17.727-4.273-22-11-8.82.129-17.688-5.347-27-6-1.498 2.801-3.008 1.645-5 0 .366 3.93-7.786 1.233-10-1-3.299 1.494 3.345 1.178 2 4-7.779-3.116-8.216 2.131-14-3-1.37 4.184-15.007 7.619-22 6-1.705.41.21 1.29 0 3-4.195.135-5.586-1.818-9 0V0h278z" fill="#fff" fill-rule="evenodd"/><path d="M280 0h186v132c-3.709-.708-4.292 1.708-8 1-.129-1.795.993-2.34 3-2-2.284-3.178-5.295 1.292-8 1-.749-1.889-2.984-.694-1-3-3.156-.489-3.531 1.802-7 1 .221-.779.837-1.163 2-1-7.094.411-19.355-1.28-26-1 .239-1.427 1.646-1.687 2-3-4.105-.105-4.004 3.997-9 3-.043-1.376.471-2.196 1-3-5.72 2.507-9.516 1.003-17 1 .294-2.039 2.706-1.961 3-4-3.558.442-4.38 3.62-7 5-3.305-1.5 2.078-2.445 1-5-3.256 2.078-5.134 5.533-9 7-3.065-.982 1.149-2.668 1-4-3.518-1.485-4.082 8.56-11 7 .429-1.904 2.154-2.512 2-5-4.846.487-2.051 8.616-8 8 .314-1.352 1.424-1.91 1-4-2.398 3.935-5.424 7.243-9 10-1.322-.012-.914-1.753-2-2-1.251 2.083-2.449 4.217-4 6-1.165-.168-1.086-1.581-1-3-2.723 4.61-5.142 9.525-9 13-3.952-.319.74-3.095-2-4-1.654 9.346-5.536 16.464-14 19-.225-1.891 1.127-2.207 1-4-3.991 1.675-2.584 8.75-8 9-.225-1.891 1.127-2.206 1-4-2.919 1.414-3.173 5.494-5 8-5.999-2.881-4.499 3.863-10 4 .429-1.904 2.154-2.512 2-5-3.06 1.274-2.94 5.726-6 7-4.683-.122 1.088-1.456 0-4-3.279 1.387-4.737 4.596-7 7-9.349.015-20.737 2.071-19-9 10.408 2.395 16.024-5.292 22-4 3.72-3.514 4.876-8.036 13-9 1.666-1.987-.09-1.271 0-4 1.953-1.714 5.597-1.737 8-3-5.368-1.302-.758-5.409 3-6-3.445-1.346-.546-4.997 3-5-.091-1.576-2.551-.783-2-3 .375-2.292 4-1.333 5-3-4.463-.138-.172-7.626 4-8-.012-1.009-1.753-1.258-2 0 .195-8.518 1.742-23.337 13-28-.091-1.576-2.551-.783-2-3 .98-3.02 5.938-2.062 7-5-.869-2.954-1.497 2.32-4 1 .76-4.574 5.112-5.554 7-9-.41-1.705-1.289.21-3 0 .388-7.784 8.19-7.011 7-14 2.928.261 3.072-2.261 6-2-.186-1.481-2.416-.917-4-1 5.846-4.766 4.191-11.019 11-15-2.877-3.611 1.412-15.389 8-16-2.286-4.066.798-6.646 4-8-3.406.807-1.163-6.783 4-6 .225-1.891-1.127-2.206-1-4 2.646-2.354 6.034-3.966 9-6-1.083-3.499-2.627-9.362 0-11-1.402-2.038-3.445.982-6-1-.823 6.789-6.997 2.896-5 9-2.182-.637-3.182 2.834-3-1-1.605 1.394-1.064 4.935-3 6-.779-.221-1.162-.837-1-2-.887 1.196-3.067 9.216-4 4-1.301 2.366-1.669 5.665-3 8-1.165-.168-1.086-1.581-1-3-2.084 1.266-.007 9.7-4 6-1.842 5.93-4.639 14.751-10 14 .649 3.649-.674 5.326-2 7-2.487-.15-.292-3.386 0-4-3.816.517-1.314 7.353-3 10-1.406-.261-1.14-2.193-2-3-1.991 2.342-.371 8.295-3 10-1.22-.113-2.367-.299-2-2-1.794 6.873-2.61 14.723-9 17 .145-1.182 1.78-2.267 0-3-.688 5.312-3.819 8.18-6 12-1.406-.261-1.14-2.193-2-3-1.501 7.957-3.07 10.073-4 19-1.483-.85-2.15-2.517-2-5-3.061 2.484 1.197 6.069 0 10-2.182-.182-3.182.818-3 3-1.257-.41-2.044-1.29-2-3-2.123 1.877-.021 7.979-3 9-1.48-.186-.917-2.417-1-4-1.798 2.203-.874 7.126-2 10-3.008 1.008-1.772-2.228-2-4-2.023 2.681-.119 13.368-5 10 .345 2.428-2.419 9.864-3 5-1.504 3.83-2.414 8.253-4 12-3.484-.294.084-2.706-2-3-1.209 12.193-16.734 14.157-24 13 7.357-5.643 11.788-14.211 23-16-5.434-1.368-1.167-5.817 3-6-3.246-1.146-1.833-6.284 3-5-3.985-1.887-.92-8.021 3-8-4.005-1.844-.915-6.287 3-6-4.044-2.427-3.392-11.067 3-14-3.356-.271-3.843-5.312 0-6-3.162-3.166-1.787-9.58-1-14-.56-2.259-1.56 1.212-3-1-.801-8.824-1.473-14.606 2-22-1.22.113-2.367.299-2 2-.112-19.288-10.147-29.829-7-47-1.796-.129-2.34.993-2 3-2.075-3.591-5.774-5.559-5-12-2.555 4.716-3.211-2.16-4-5-1.165.168-1.086 1.581-1 3-3.249.25-2.342-3.658-4-5V0z" fill="#fff" fill-rule="evenodd"/><path d="M466 135v404H170v-7c1.257.41 2.044 1.289 2 3 2.275-3.138.298-2.473 4-1-7.513-19.434-10.611-37.504-17-53 4.83-2.669-1.861-3.511-1-8 1.278.055 1.385 1.281 3 1-6.85-5.486-1.914-10.462-7-17-.054-1.87.77-2.117 2-1-2.822-5.493-6.767-14.187-5-18-5.686-9.134-4.885-18.154-8-29 .168-1.165 1.581-1.086 3-1-1.899-1.768-2.371-4.963-4-7 .982-3.065 2.668 1.149 4 1 .191-4.191-4.909-3.091-4-8 .068-4.671 2.286 1.171 4 1-4.091-3.878-7.034-17.963-3-19-.928-3.405-2.802-5.865-2-11 1.322.012.914 1.753 2 2-1.245-4-1.569-9.949 0-16 1.257.41 2.044 1.289 2 3 3.59-3.014-2.53-4.736-1-9 1.376-.043 2.196.471 3 1 .502-4.169-2.923-4.41-2-9 1.889-.749.694-2.984 3-1 .489-3.156-1.802-3.531-1-7 1.759.241 2.279 1.721 2 4 2.522-2.625-2.465-9.805 2-12 1.257.41 2.044 1.289 2 3 2.083-1.583.337-6.996 2-9 1.795-.129 2.34.993 2 3 1.605-2.728.958-7.709 3-10 2.67 4.832 1.767-3.604 4-5 2.208.125.425 4.242 1 6 2.278-2.055.031-8.636 2-11 1.651.016.56 2.773 2 3 1.615-1.368-1.296-8.017 4-8v6c2.102-3.564-.186-11.52 4-13 1.481.186.917 2.417 1 4 2.123-1.877.021-7.979 3-9 1.165.168 1.086 1.581 1 3 2.064-1.936 1.908-6.092 3-9 1.571.096 3.467-.134 3 2 2.375-.625-.155-6.155 2-7 1.795-.129 2.34.993 2 3 2.375-.625-.155-6.155 2-7 3.001 1.847 2.818 3.077 6 3a27.673 27.673 0 0 1-7 7c1.458 5.825-5.198 13.469-8 21 4.385.131-1.395 7.783-3 11 .013 2.35 2.729-.365 2-2 4.215 1.244.04 5.107-1 7 .56 2.259 1.56-1.213 3 1 .963 4.963-2.667 5.334-3 9 .521 2.857 1.479-1.614 2-2 2.366 2.433.518 9.135-2 10 1.223 3.049 3.816-1.462 5 1 1.082 5.896 1.521 13.586 6 15 .73 3.979.73 4.021 0 8 1.795.129 2.34-.993 2-3 5.023 3.055-2.081 6.618 2 10 1.486-.848 1.447-3.22 2-5 2.576.758 3.475 3.192 3 7 1.576-.091.783-2.551 3-2-.585 3.745-.746 3.022-1 8 2.555-.111 1.985-3.349 2-6 4.43.552 2.172 4.813 6 4-2.425 2.504-2.874 9.568 0 12 1.152-1.831-.79-7.511 1-11 6.164-.497 6.477 4.856 8 9 2.96-.239 1.375-3.719 0-5 .221-.779.837-1.162 2-1h2c-2.644 5.762 3.665 4.697 4 10 3.203-2.309-2.129-4.459-1-8 3.885-2.646 6.743-.414 12-2 .769 3.769-1.22 4.78-1 8 2.615-1.052 3.271-4.063 3-8 2.355.022 2.944-1.723 6-1 .438 3.438-.396 5.605-1 8 4.891.558 2.388-6.278 3-10 2.409.409 2.174-1.826 5-1 1.828 2.882 1.622 3.128 1 7 3.999.284 1.823-7.74 0-8 5.932-2.541 9.784-12.027 15-12-.329-3.679 1.378-8.328 4-6-.71-3.815-.664-4.815 1-8 1.796-.129 2.34.993 2 3 2.146-2.988-1.348-7.91 1-12 1.377-.043 2.195.471 3 1-3.881-5.582.921-7.953-1-15 3.213-.88 1.37 3.296 4 3-.582-2.393-6.166-11.319-1-10-.79-2.615-6.324-9.784-1-12-6.279-7.059-2.432-19.711-11-23-.831-9.564-11.4-15.184-15-25 4.199 6.134 11.466 9.201 14 17 4.398-1.896 6.866 3.645 8 8 2.354-4.057 6.921 2.588 6 8 2.168.169.453-3.547 1-5 3.036 1.964 5.994 4.006 5 10 3.501-7.811 5.205 3.123 6 7 2.1-.279-1.449-2.671 1-4 3.585 2.094 1.818 4.996 3 8 4.532-5.232 4.688 8.279 10 6v7c2.396.396-.555-4.555 3-3 1.675 1.659.796 5.871 1 9 2.396.396-.555-4.555 3-3-.729 2.729 1.987 2.013 2 4 .268 3.601-1.848 4.819-2 8 2.405-1.435 2.87 6.51 1 9 .41 1.705 1.289-.21 3 0 .782 4.449-1.332 6.002-1 10 1.85-.15.613-3.387 2-4 3.671 2.054.346 6.35 0 10 3.008 1.008 1.772-2.228 2-4 5.602 1.775 9.421 10.116 5 16 1.067 3.404.312-2.783 3-1 .81 6.81-3.709 8.291-5 13 3.213.213 2.434-3.566 4-5 2.946 4.649-3.404 8.568-3 14 1.342-.658 1.862-2.138 2-4 .604 6.992 1.089 12.666-4 19 .013 2.35 2.729-.365 2-2 3.245 3.963-2.71 7.252-3 11 .013 2.35 2.729-.365 2-2 2.243 4.494-1.982 7.138 0 13-3.086.581-3.718 3.615-5 6 2.171 3.064 1.597-4.991 5-4-.583 3.751-2.014 6.652-5 8 .168 1.165 1.581 1.086 3 1-3.622 5.012-.872 12.316-7 16 .997 3.081 2.703-1.114 3-2 2.296.785.973 6.19-2 5 4.51 2.411-.406 6.695-2 9 3.076 4.272-1.014 10.017-4 14 4.392 17.571-9.594 28.376-7 42-1.539 1.127-2.461 2.873-4 4 3.775 2.918.303 4.917 0 9 3.976 2.095 3.96 2.645 10 0-3.747-7.052 1.739-11.105 2-19 1.428-.39 1.687-1.2 3 0-.688-2.992.958-9.278 1-3 3.647-.683-.213-3.981 1-8 1.165.168 1.086 1.581 1 3 1.691-12.219 5.768-17.591 6-27 3.624-.957 1.017 4.316 3 5 2.104-2.495-2.321-6.969-1-12 2.187.147 2.147 2.52 2 5 2.884-2.95-1.404-7.213 0-12 1.759.241 2.279 1.721 2 4 2.992-2.735-1.335-6.607 0-11 3.033-.033 2.491 3.509 3 6 2.879-3.596-2.218-7.744-1-13 3.624-.957 1.017 4.316 3 5 2.571-3.435-4.204-8.597-1-13 4.339 4.829-.713-5.441 2-8 1.483.85 2.15 2.517 2 5 3.132-3.198-2.146-6.472-1-11 3.629-.962.84 4.493 4 4 .423-4.554-4.592-7.43-2-11 1.165.168 1.086 1.581 1 3 3.178-1.95-2.259-6.714 1-9 1.889.111.694 3.306 3 3 .268-3.601-1.848-4.819-2-8 3.854-3.893 3.203-7.683 3-16 7.412 6.433-1.555-3.384 1-9 2.062.271.238 4.428 3 4 2.399-2.466-3.501-5.116-3-9 3.213-.88 1.37 3.296 4 3 .154-4.821-4.303-5.031-3-11 1.576.091.783 2.551 3 2-.553-4.447-5.166-4.834-4-11 1.889.111.694 3.306 3 3-.341-4.992-5.559-5.107-4-12 1.889.111.694 3.307 3 3 .096-4.763-4.59-4.744-5-9 .067-4.671 2.286 1.171 4 1-.098-3.601-8.946-7.885-3-11-1.227-1.773-3.103-2.897-4-5 .658-2.995 2.138.956 4 0-1.688-3.645-7.016-3.651-7-9 1.278.055 1.385 1.281 3 1-5.004-.941-5.039-8.763-4-7-2.463-4.181-6.51-5.321-7-13 1.278.055 1.385 1.281 3 1-1.906-3.427-6.529-4.138-7-9 1.377-.043 2.195.471 3 1-1.743-4.257-7.999-4.001-8-10 1.278.055 1.385 1.282 3 1-1.978-3.022-6.568-3.432-8-7 .168-1.165 1.581-1.086 3-1-4.256-2.078-7.684-4.983-11-8 .848-2.931 3.22.598 5 0-2.921-3.413-8.887-3.78-12-7 .15-2.487 3.387-.292 4 0-1.525-3.141-6.319-3.014-9-5-.129-1.795.993-2.34 3-2-12.599-3.401-16.889-15.111-28-20 10.025.647 25.816 4.179 36 8 2.51-.426-.96-2.857-3-2 3.549-3.482 6.471 2.146 11 1-.15-1.85-3.387-.614-4-2 3.549-3.482 6.471 2.146 11 1-.848-1.486-3.22-1.447-5-2 2.744-4.812 7.836-1.433 14-2-.125-2.208-4.242-.425-6-1 1.471-4.967 6.294-1.572 11-2 .396-2.396-4.555.555-3-3 3.016-2.516 5.437 1.968 10 1 .947-3.614-3.938-1.395-6-2-1.026-3.36 3.11-1.557 5-2-3.275-6.726 12.809-5.442 14 1 1.22-.113 2.367-.299 2-2 5.657 5.1 15.578 7.071 22 12 .319 2.319-.16 3.839-1 5 3.235 1.236.765-3.236 4-2 1.326 1.674 2.649 3.351 2 7 1.576-.09.783-2.551 3-2 1.001 2.123 4.426 4.456 2 7 3.236 1.236.764-3.236 4-2-.022 2.355 1.723 2.944 1 6 2.488-1.639 12.108 6.263 10 12 .279 2.1 2.671-1.449 4 1 .319 2.319-.16 3.839-1 5 .982 2.802 2.668-1.452 4 1 .025 2.642-.933 6.266 3 5 .09 3.736 1.121 2.851 0 6 .903 2.729 2.236-3.042 4 0 1.322 5.936 3.896 10.394 8 11-2.83 4.529 3.34 5.981 0 10 5.996.441.537 7.329 6 7-.658 2.104-2.646 4.445-1 6 1.576-.091.783-2.551 3-2 1.069 3.736-2.483 2.851-2 6 3.235 1.236.765-3.236 4-2 1.223 4.557-2.743 3.924-2 8 1.017 1.91 7.268.68 6-3 2.01 1.656.758 6.575 4 7 1.257-.41 2.044-1.289 2-3 .211-3.545-4.691-1.976-4-6 1.428.239 1.687 1.646 3 2-.021-10-4.301-15.237-7-23 .261-1.556 2.193-.693 3 0-5.395-3.714-1.385-11.782-7-14 5.908-2.895-7.086-7.928-1-11-8.055-7.273-7.572-16.1-15-24 .113-1.22.299-2.368 2-2-1.362-2.676-9.594-3.688-6-8-2.539-2.07-12.645-6.312-8-9-2.987-2.346-6.705-3.961-10-6 .221-.779.838-1.163 2-1-1.331-2.002-4.438-2.228-7-3-.129-1.795.993-2.34 3-2-6-1.667-11.213-4.121-15-8 .186-1.481 2.416-.917 4-1-5.092-1.242-8.807-3.86-13-6 .016-1.651 2.773-.56 3-2-1.021-2.228-4.598 1.308-8 0-1.602-3.936 4.318-.348 4-3-1.696-2.59-4.65 1.938-8 1 .239-1.427 1.646-1.687 2-3-3.164-.164-3.342 2.658-7 2 .239-1.427 1.646-1.687 2-3-2.586 1.325-14.744 5.986-14 1-3.34.359-8.894 7.938-11 3-2.438 2.563-5.121 4.879-10 5 .294-2.039 2.706-1.961 3-4-4.854-.188-3.495 5.838-8 6-3.834.182-.363-.818-1-3-2.619 2.047-4.351 4.983-9 5v-3c-4.051 4.52-16.122 6.604-20 2-1.165.168-1.086 1.581-1 3-2.357-.977-6.344-.323-6-4 1.904.429 2.513 2.154 5 2-1.987-3.679-7.798-3.535-12-5 6.963-5.643 21.482-1.315 33-2 .169-2.168-3.547-.453-5-1 2.734-3.927 8.362-.49 12-2-.168-1.165-1.581-1.086-3-1 2.721-3.845 6.952-.146 11-2-.125-2.208-4.242-.425-6-1 1.47-3.196 8.112-1.221 11-3 .168-2.168-3.547-.453-5-1 .585-3.415 7.431-.569 9-3 .296-2.674-3.88 2.658-3-2 2.802-.532 5.198-1.468 8-2-.168-1.165-1.581-1.086-3-1 1.182-3.819 5.457-4.543 11-4-.914-3.357-1.859-.495-5-1 1.456-5.109 4.048-3.05 9-4 .169-2.168-3.547-.453-5-1 .264-2.86 4.504-4.377 6-3-.113-1.22-.299-2.368-2-2 4.129-11.538 18.748-12.585 23-24 5.243-.981 6.332-3.494 12-2-5.041-2.427 4.601-5.632 6-2-2.76-2.407 8.746-9 12-5 1.531-3.877 12.283-5.106 15-1 1.165-.168 1.086-1.581 1-3 5.994 3.625 6.875-2.066 15 2-.221-.779-.838-1.163-2-1 8.237-3.704 28.312 5.505 33-5z" fill="#fff" fill-rule="evenodd"/><path d="M0 141c2.223 2.315 3.899-.339 7 0 .224 1.891-1.127 2.206-1 4 12.446-4.721 28.973-3.842 44-3 .306 2.306-2.889 1.111-3 3 3.817-1.359 15.397-5.031 16 2 5.846-2.356 9.422 3.991 16 4 .129 1.795-.993 2.34-3 2 5.783.357 12.499 1.852 18 5-.015 1.651-2.774.56-3 2 2.761 1.572 7.204 1.463 9 4 .168 2.168-3.547.453-5 1 2.938 2.062 8.857 1.143 11 4-.15 2.487-3.386.292-4 0-.611 3.944 5.49 1.176 8 2-4.961 4.901 6.756 2.542 8 7 1.008 3.008-2.228 1.772-4 2 1.577 3.423 9.651.349 9 6-2.319.319-3.839-.161-5-1 .926 4.074 8.292 1.708 10 5-1.514 3.024-4.389-.829-7 0 1.683 3.651 9.683.984 12 4-.147 2.186-2.52 2.147-5 2 .745 2.255 5.609.391 8 1 1.474 7.7 16.551 7.392 20 14 2.091-.576 2.854-2.479 6-2 .39 1.427 1.2 1.687 0 3 8.106-3.604 16.677-.612 27-2-1.212 4.041-5.985 9.722-9 6-1.705.41.21 1.29 0 3-10.136 3.876-21.604-.365-29-5 .265 4.032-6.929.376-8-3-1.009.012-1.258 1.753 0 2-10.152-1.203-26.767 2.41-38-4-2.591 3.146-13.957 2.941-21 0-.815 4.148 6.165.502 7 3-2.303 5.194-7.757 1.024-14 2 .431 2.236 4.928.405 7 1-.104 3.896-4.343 3.657-8 4 5.374 1.16.457 6.077-5 5 5.558 1.492.436 5.086-1 8-2.391.609-7.255-1.255-8 1 .241 2.578 1.721-1.373 4 0 .667 5.667-7.146 2.854-10 5 .92 2.726 3.126-1.397 6 0-.085 4.582-7.225 2.108-10 4 1.01 2.816 4.247-.276 6 0-.132 3.201-2.267 4.399-6 4 .09 1.576 2.55.783 2 3-2.395 1.272-3.682 3.651-8 3 .186 1.481 2.417.917 4 1-1.067 2.267-3.033 3.634-6 4 3.204 1.506 1.146 3.604 1 7-3.056-.723-3.644 1.022-6 1 .186 1.481 2.417.917 4 1-.643 3.024-1.562 5.771-5 6 .211 1.122 1.11 1.557 2 2-.299 2.7-4.207 1.793-5 4 4.636.339-.38 6.173-4 7 .658 2.995 2.138-.956 4 0-.362 3.638-2.362 5.638-6 6 5.167 1.101 1.651 6.302-2 7 3.344 2.517.472 9.415-3 11 4.6 2.601-2.355 5.569-3 9 3.236 1.235.764-3.235 4-2-1.958 4.742-4.067 9.008-1 13-.134 3.866-4.056 3.944-5 7 2.556 4.676 10.55 5.888 14 2-10.896-4.998 1.665-10.302 0-20h3c-3.744-8.826 4.315-17.412 8-19 1.06-5.94 4.604-9.396 6-15 2.168-.169.453 3.547 1 5 3.24-3.529.354-14.719 6-13-1.942-1.926 1.052-4.023 1-7 5.418 1.418 3.904-4.096 6-6 1.427.239 1.687 1.646 3 2-.405-5.072 2.022-7.312 4-10 2.931.847-.598 3.22 0 5 3.551-2.449 4.249-7.751 6-12 2.93 4.897 4.49-2.325 7-6 1.165.168 1.086 1.581 1 3 .86-2.975 3.835-11.205 8-6 5.721-5.696 9.945-10.81 19-11 .39 1.427 1.2 1.687 0 3 8.738-3.074 2.533 2.307 12 1-.113 1.22-.299 2.368-2 2 .847 2.931 3.22-.598 5 0 .39 1.427 1.2 1.687 0 3 3.438-.438 5.605.395 8 1-.012 1.322-1.753.914-2 2 4.553-.515 12.71 2.118 18 4-.658 1.342-2.138 1.862-4 2 14.402.172 33.788-4.204 50-12-2.328 3.728-8.58 4.043-6 10-6.229 1.88-6.578 6.128-15 4 .257 2.077 4.394.273 5 2-2.882 2.118-5.57 4.43-11 4 .186 1.481 2.417.917 4 1-2.411 3.589-7.59 4.41-12 6 .241 2.578 1.721-1.373 4 0-1.512 2.488-3.428 4.572-7 5-.094 1.578-.917 5.717-6 5 4.34 3.248-4.039 7.739-8 9 .111 3.542 3.306-2.125 3 1-.149 4.185-4.484 4.183-7 6 .658 2.995 2.138-.956 4 0-1.563 3.771-4.23 6.437-8 8 .658 2.995 2.138-.956 4 0-.71 5.957-6.645 6.688-9 11 2.503.17 3.13-1.536 4-3 2.706 2.771-1.664 6.953-3 9 .41 1.705 1.29-.21 3 0-1.114 3.552-2.573 6.761-7 7 4.309 2.152-.804 5.449-3 7 3.977 1.978-1.229 6.696-4 8 3.532 6.517-3.696 10.071-6 14 2.82 2.912 1.247-2.991 5-2 .869 3.869-2.442 3.558-3 6 .903 2.729 2.237-3.042 4 0 1.468 5.468-2.551 5.449-4 8 5.288-2.339 1.84 5.816-1 9 .87 2.953 1.497-2.32 4-1-4.157 5.307 3.16 10.791-2 16 .239 1.535 1.646.146 2-1 3.665 4.383-2.085 7.877-3 11 1.232 2.438 2.768-3.138 4-4 1.296 5.981 3.285 13.738-1 20 1.446 2.956 2.103-3.115 3-4 3.376.411.561 4.756 0 7 .41 1.705 1.29-.21 3 0 1.075 6.075-3.186 6.813-3 12 2.447-.887 1.083-5.584 5-5 .983 3.266-4.076 8.6 2 8 .785 4.118-1.535 5.132-1 9 1.85-.15.614-3.387 2-4 2.881 1.318 2.054 6.339 1 9 5.009-2.439 3.324 9.285 1 15 4.362.361.025-7.976 5-7 .787 4.973.307 5.628-1 10 6.407-5.056 2.958 5.865 2 10 2.352-.314.593-4.74 4-4 .351 5.351-1.774 8.226-3 12 4.233.899 1.017-5.649 5-5-1.812 6.227 4.399 8.36 1 13 .56 2.259 1.56-1.213 3 1-.119 2.881.546 6.546-1 8 2.324-1.728 5.574 1.779 3 7 2.171-1.718 4.632 1.551 2 6 4.541-3.248 3.572-.225 3 5 2.967-4.338 3.221 1.509 2 5 .013 2.35 2.729-.365 2-2 2.693 1.183-.004 5.214 0 7 .013 2.35 2.729-.365 2-2 3.376.411.561 4.756 0 7 4.819-5.795 1.049 2.976 6 2v9H0V141zM204 260c-.425 4.241-3.415 5.918-7 7 .002-4.665 3.955-5.379 7-7z" fill="#fff" fill-rule="evenodd"/><g fill-rule="evenodd"><path d="M278 32c-.664 4.664 1.575 6.424 2 10-1.278-.055-1.385-1.282-3-1-1.011 4.678 4.011 3.322 3 8-1.427.39-1.687 1.2-3 0 1.235 3.741 4.161 13.028 1 12 4.353 5.776 4.059 10.004 6 18-1.427-.239-1.687-1.646-3-2 .115 2.025 6.471 10.504 2 13 1.447 1.553 1.334 4.667 3 6-.261 1.556-2.193.693-3 0 1.837 6.019 7.287 12.863 4 19-1.966.299-1.983-1.35-3-2-3.291 2.397 3.639 2.95 2 7-2.638.304-2.579-2.088-3-4-4.846 2.025 2.62 4.106 1 9-1.377.043-2.195-.471-3-1 .507 3.159 2.943 4.39 3 8-1.278-.055-1.385-1.282-3-1 .334 3.667 3.963 4.037 3 9h-3c5.044 6.593-2.664 7.231 0 13-1.796.129-2.34-.993-2-3-3.024 1.514.829 4.389 0 7-2.635.301-3.282-1.385-3-4-4.337 1.419 1.697 4.213 0 9-4.01 4.503-10.089 8.047-14 15-8.938-7.844-1.142-30.25 5-36-.186-1.481-2.417-.917-4-1-.88-3.213 3.296-1.37 3-4-2.359-.456-8.363 2.167-9-3-1.987.013-1.271 2.729-4 2-1.235-3.236 3.235-.764 2-4-4.024-.691-2.455 4.211-6 4-4.683-.122 1.088-1.456 0-4-3.406-.74-1.648 3.685-4 4-4.085.301.169-1.385-1-4-7.385 8.282-8.258 23.075-10 37-2.632-3.521-3.876-17.448-2-19-5.174-.371.637-5.509-5-5-.319-2.319.161-3.839 1-5-1.181-.47-4.269.22-3-5-3.236-1.236-.764 3.236-4 2-.17-1.496.357-3.69-1-4-3.506.272 1.807 4.428-1 4-3.936 1.602-.348-4.319-3-4-3.633.638 2.32 4.675-1 5-3.555 1.555-.604-3.396-3-3-1.481.186-.917 2.417-1 4-3.265.265-2.12-3.88-5-4-3.305 1.5 2.078 2.445 1 5-2.729.729-2.013-1.987-4-2-2.448.111-.212 3.306 1 3-1.233 3.038-3.439-1.084-6 0 .18 2.82 4.753 1.247 4 5-1.917 7.272 6.755 18.458 9 30-4.156 3.847-4.176.788-8 3-1.716-1.617-2.484-4.183-2-8-2.168-.168-.453 3.547-1 5-2.291-2.877-10.398-7.139-8-14-1.72-.054-2.563.77-3 2-3.055-1.849 1.154-4.751 0-8-1.93.404-.087 4.58-4 3 1.237-2.763 2.92-5.08 3-9-2.447.887-1.083 5.583-5 5-.003-3.336 3.253-3.414 3-7-2.055-3.565-.848 4.37-4 3 2.365-11.43-3.858-15.371 3-24-3.236-1.236-.764 3.236-4 2 1.898-3.646-1.361-6.234 1-9-1.218-1.449-3.994-1.34-4-4 .122-2.544 1.456-3.878 4-4-2.972-3.949 1.29-7.58 3-10-3.895 2.504-3.696-6.129-1-10-2.772.017-2.562-9.502 0-12-5.587-11.221 3.607-24.252 0-40-2.172-.143-3.977 1.33-4-3-3.162 1.548 1.252 6.002-1 7-1.795.129-2.34-.993-2-3-2.693 1.183.004 5.214 0 7-2.065.601-3.787 1.546-3 5-1.22-.113-2.368-.299-2-2-3.024 1.514.829 4.389 0 7-1.22-.113-2.368-.299-2-2-2.883 1.447 2.184 5.952-1 8-1.434-1.233-1.895-3.439-2-6-3.482 3.548 2.146 6.471 1 11-3.213.88-1.37-3.296-4-3 .945 4.05 4.868 7.037 2 12-2.638.304-2.579-2.088-3-4-3.566 3.633 4.058 4.56 2 10-3.753.753-2.18-3.82-5-4-.252 4.585 4.525 4.142 4 9-3.213.88-1.37-3.296-4-3 .255 4.078 3.728 4.939 3 10-1.278-.055-1.385-1.282-3-1 .451 2.882 3.539 3.128 3 7-2.039-.294-1.961-2.706-4-3-1.021 3.862 7.679 6.952 2 9 1.54 3.337 6.623 7.296 2 11-2.306.306-1.111-2.889-3-3-2.394 1.817 3.63 3.637 2 8-2.039 2.009-1.961-.442-4-1-.382 3.715 4.052 2.614 3 7-3.236 1.236-.764-3.236-4-2 3.837 6.308 5.245 11.934 2 18 1.013 3.32 5.535 3.132 5 8-1.427-.239-1.687-1.646-3-2-.188 4.854 5.838 3.496 6 8-1.376.043-2.196-.471-3-1 .582 4.085 6.388 2.945 6 8-1.427-.239-1.687-1.646-3-2-.157 3.824 4.083 3.25 6 5 2.469 14.24 22.92 15.69 23 29-5.544-6.123-19.43-3.903-21-14-5.73 3.325-3.683-7-9-5-1.031-3.872.521-4.118-1-7-2.396-.396.555 4.555-3 3-.204-3.129.674-7.341-1-9-3.506.272 1.807 4.428-1 4h-2c-.057-.61-.149-1.184-1-1 .883-2.451 2.997-3.669 2-8-3.688.729.426 3.009-2 5-1.426-1.908-2.325-4.342-3-7 3.033.033 2.492-3.508 3-6-3.36-1.027-1.557 3.11-2 5-3.067-8.048-11.399-14.643-9-25-3.445 2.097-6.101-4.817-4-9-1.795-.129-2.34.993-2 3-2.963-1.704-2.983-6.35-4-10-1.787 3.948-4.944-.427-4-5-1.576.09-.783 2.55-3 2-4.109-.886.77-12.675-5-9-.647-6.617-2.232-8.595-8-13v-7c-2.396-.396.555 4.555-3 3-.319-2.348-1.58-3.753-1-7-1.576.09-.783 2.55-3 2-3.106-7.561-11.422-9.911-11-21-3.834-.182-.363.818-1 3-3.815-4.074-4.942-6.814-7-10-1.587-2.458-7.628-7.838-11-12-5.079-6.268-4.955-.973-7-8-2.392 2.098-4.709-1.941-9-1 .248 7.364 4.418 14.29 12 19 .406 13.834 17.787 25.339 16 37 1.499 2.168 5.004 2.329 5 6-1.376.043-2.196-.471-3-1 .496 3.504 5.146 2.854 6 6-.221.779-.837 1.163-2 1 7.209 8.34 10.518 14.524 18 22h-3c1.491.378 7.271 4.171 2 5 1.059 2.608 5.242 2.091 6 5-.168 1.165-1.581 1.086-3 1 1.002 3.328 4.036-.268 6 3 .729 2.729-1.987 2.013-2 4 3.651-2.056 4.491.449 7 2-.016 1.651-2.774.56-3 2 .125 2.208 4.242.425 6 1 1.674 1.659.796 5.871 1 9-1.376.043-2.196-.471-3-1 .238 4.096 6.82 1.847 5 8-1.891.224-2.206-1.127-4-1 1.591 2.409 4.687 3.313 6 6-.113 1.22-.299 2.368-2 2 1.112 2.221 3.958 2.709 5 5-.261 1.556-2.193.693-3 0 .46 3.874 4.903 3.764 6 7-.012 1.322-1.753.914-2 2 2.722 1.611 5.899 2.767 6 7-1.352-.314-1.91-1.423-4-1 1.028 3.305 7.609 1.058 8 5-.168 1.165-1.581 1.086-3 1 13.159 7.175 22.347 18.32 40 21-1.898 10.935-23.272 7.404-26 0-5.517.517-8.556-1.444-9-6-1.576.09-.783 2.551-3 2-.261-1.406-2.193-1.14-3-2-1.877-1.768 1.19-2.919-1-5-1.576.09-.783 2.551-3 2-1.683-2.317-3.741-4.259-4-8-1.576.09-.783 2.551-3 2-.426-1.907-2.857-1.81-2-5-9.397.447-8.022-13.717-17-14 .725-3.059-1.725-2.941-1-6-2.14 6.466-6.449-1.004-7-5-1.481.186-.917 2.417-1 4-7.356-3.644-17.727-4.273-22-11-8.82.129-17.688-5.347-27-6-1.498 2.801-3.008 1.645-5 0 .366 3.93-7.786 1.233-10-1-3.299 1.494 3.345 1.178 2 4-7.779-3.116-8.216 2.131-14-3-1.37 4.184-15.007 7.619-22 6-1.705.41.21 1.29 0 3-4.195.135-5.586-1.818-9 0V32h278z" fill="#fff"/><path d="M280 32h186v132c-3.709-.708-4.292 1.708-8 1-.129-1.795.993-2.34 3-2-2.284-3.178-5.295 1.292-8 1-.749-1.889-2.984-.694-1-3-3.156-.489-3.531 1.802-7 1 .221-.779.837-1.163 2-1-7.094.411-19.355-1.28-26-1 .239-1.427 1.646-1.687 2-3-4.105-.105-4.004 3.997-9 3-.043-1.376.471-2.196 1-3-5.72 2.507-9.516 1.003-17 1 .294-2.039 2.706-1.961 3-4-3.558.442-4.38 3.62-7 5-3.305-1.5 2.078-2.445 1-5-3.256 2.078-5.134 5.533-9 7-3.065-.982 1.149-2.668 1-4-3.518-1.485-4.082 8.56-11 7 .429-1.904 2.154-2.512 2-5-4.846.487-2.051 8.616-8 8 .314-1.352 1.424-1.91 1-4-2.398 3.935-5.424 7.243-9 10-1.322-.012-.914-1.753-2-2-1.251 2.083-2.449 4.217-4 6-1.165-.168-1.086-1.581-1-3-2.723 4.61-5.142 9.525-9 13-3.952-.319.74-3.095-2-4-1.654 9.346-5.536 16.464-14 19-.225-1.891 1.127-2.207 1-4-3.991 1.675-2.584 8.75-8 9-.225-1.891 1.127-2.206 1-4-2.919 1.414-3.173 5.494-5 8-5.999-2.881-4.499 3.863-10 4 .429-1.904 2.154-2.512 2-5-3.06 1.274-2.94 5.726-6 7-4.683-.122 1.088-1.456 0-4-3.279 1.387-4.737 4.596-7 7-9.349.015-20.737 2.071-19-9 10.408 2.395 16.024-5.292 22-4 3.72-3.514 4.876-8.036 13-9 1.666-1.987-.09-1.271 0-4 1.953-1.714 5.597-1.737 8-3-5.368-1.302-.758-5.409 3-6-3.445-1.346-.546-4.997 3-5-.091-1.576-2.551-.783-2-3 .375-2.292 4-1.333 5-3-4.463-.138-.172-7.626 4-8-.012-1.009-1.753-1.258-2 0 .195-8.518 1.742-23.337 13-28-.091-1.576-2.551-.783-2-3 .98-3.02 5.938-2.062 7-5-.869-2.954-1.497 2.32-4 1 .76-4.574 5.112-5.554 7-9-.41-1.705-1.289.21-3 0 .388-7.784 8.19-7.011 7-14 2.928.261 3.072-2.261 6-2-.186-1.481-2.416-.917-4-1 5.846-4.766 4.191-11.019 11-15-2.877-3.611 1.412-15.389 8-16-2.286-4.066.798-6.646 4-8-3.406.807-1.163-6.783 4-6 .225-1.891-1.127-2.206-1-4 2.646-2.354 6.034-3.966 9-6-1.083-3.499-2.627-9.362 0-11-1.402-2.038-3.445.982-6-1-.823 6.789-6.997 2.896-5 9-2.182-.637-3.182 2.834-3-1-1.605 1.394-1.064 4.935-3 6-.779-.221-1.162-.837-1-2-.887 1.196-3.067 9.216-4 4-1.301 2.366-1.669 5.665-3 8-1.165-.168-1.086-1.581-1-3-2.084 1.266-.007 9.7-4 6-1.842 5.93-4.639 14.751-10 14 .649 3.649-.674 5.326-2 7-2.487-.15-.292-3.386 0-4-3.816.517-1.314 7.353-3 10-1.406-.261-1.14-2.193-2-3-1.991 2.342-.371 8.295-3 10-1.22-.113-2.367-.299-2-2-1.794 6.873-2.61 14.723-9 17 .145-1.182 1.78-2.267 0-3-.688 5.312-3.819 8.18-6 12-1.406-.261-1.14-2.193-2-3-1.501 7.957-3.07 10.073-4 19-1.483-.85-2.15-2.517-2-5-3.061 2.484 1.197 6.069 0 10-2.182-.182-3.182.818-3 3-1.257-.41-2.044-1.29-2-3-2.123 1.877-.021 7.979-3 9-1.48-.186-.917-2.417-1-4-1.798 2.203-.874 7.126-2 10-3.008 1.008-1.772-2.228-2-4-2.023 2.681-.119 13.368-5 10 .345 2.428-2.419 9.864-3 5-1.504 3.83-2.414 8.253-4 12-3.484-.294.084-2.706-2-3-1.209 12.193-16.734 14.157-24 13 7.357-5.643 11.788-14.211 23-16-5.434-1.368-1.167-5.817 3-6-3.246-1.146-1.833-6.284 3-5-3.985-1.887-.92-8.021 3-8-4.005-1.844-.915-6.287 3-6-4.044-2.427-3.392-11.067 3-14-3.356-.271-3.843-5.312 0-6-3.162-3.166-1.787-9.58-1-14-.56-2.259-1.56 1.212-3-1-.801-8.824-1.473-14.606 2-22-1.22.113-2.367.299-2 2-.112-19.288-10.147-29.829-7-47-1.796-.129-2.34.993-2 3-2.075-3.591-5.774-5.559-5-12-2.555 4.716-3.211-2.16-4-5-1.165.168-1.086 1.581-1 3-3.249.25-2.342-3.658-4-5v-1z" fill="#fff"/><path d="M466 167v404H170v-7c1.257.41 2.044 1.289 2 3 2.275-3.138.298-2.473 4-1-7.513-19.434-10.611-37.504-17-53 4.83-2.669-1.861-3.511-1-8 1.278.055 1.385 1.281 3 1-6.85-5.486-1.914-10.462-7-17-.054-1.87.77-2.117 2-1-2.822-5.493-6.767-14.187-5-18-5.686-9.134-4.885-18.154-8-29 .168-1.165 1.581-1.086 3-1-1.899-1.768-2.371-4.963-4-7 .982-3.065 2.668 1.149 4 1 .191-4.191-4.909-3.091-4-8 .068-4.671 2.286 1.171 4 1-4.091-3.878-7.034-17.963-3-19-.928-3.405-2.802-5.865-2-11 1.322.012.914 1.753 2 2-1.245-4-1.569-9.949 0-16 1.257.41 2.044 1.289 2 3 3.59-3.014-2.53-4.736-1-9 1.376-.043 2.196.471 3 1 .502-4.169-2.923-4.41-2-9 1.889-.749.694-2.984 3-1 .489-3.156-1.802-3.531-1-7 1.759.241 2.279 1.721 2 4 2.522-2.625-2.465-9.805 2-12 1.257.41 2.044 1.289 2 3 2.083-1.583.337-6.996 2-9 1.795-.129 2.34.993 2 3 1.605-2.728.958-7.709 3-10 2.67 4.832 1.767-3.604 4-5 2.208.125.425 4.242 1 6 2.278-2.055.031-8.636 2-11 1.651.016.56 2.773 2 3 1.615-1.368-1.296-8.017 4-8v6c2.102-3.564-.186-11.52 4-13 1.481.186.917 2.416 1 4 2.123-1.877.021-7.979 3-9 1.165.168 1.086 1.581 1 3 2.064-1.936 1.908-6.092 3-9 1.571.096 3.467-.134 3 2 2.375-.625-.155-6.155 2-7 1.795-.129 2.34.993 2 3 2.375-.625-.155-6.155 2-7 3.983.865 2.708 3.187 6 3a27.673 27.673 0 0 1-7 7c1.458 5.825-5.198 13.469-8 21 4.385.131-1.395 7.783-3 11 .013 2.35 2.729-.365 2-2 4.215 1.244.04 5.107-1 7 .56 2.259 1.56-1.213 3 1 .963 4.963-2.667 5.334-3 9 .521 2.857 1.479-1.614 2-2 2.366 2.433.518 9.135-2 10 1.223 3.049 3.816-1.462 5 1 1.082 5.896 1.521 13.586 6 15 .73 3.979.73 4.021 0 8 1.795.129 2.34-.993 2-3 5.023 3.055-2.081 6.618 2 10 1.486-.848 1.447-3.22 2-5 2.576.758 3.475 3.192 3 7 1.576-.091.783-2.551 3-2-.585 3.745-.746 3.022-1 8 2.555-.111 1.985-3.349 2-6 4.43.552 2.172 4.813 6 4-2.425 2.504-2.874 9.568 0 12 1.152-1.831-.79-7.511 1-11 6.164-.497 6.477 4.856 8 9 2.96-.239 1.375-3.719 0-5 .221-.779.837-1.162 2-1h2c-2.644 5.762 3.665 4.697 4 10 3.203-2.309-2.129-4.459-1-8 3.885-2.646 6.743-.414 12-2 .769 3.769-1.22 4.78-1 8 2.615-1.052 3.271-4.063 3-8 2.355.022 2.944-1.723 6-1 .438 3.438-.396 5.605-1 8 4.891.558 2.388-6.278 3-10 2.409.409 2.174-1.826 5-1 1.828 2.882 1.622 3.128 1 7 3.999.284 1.823-7.74 0-8 5.932-2.541 9.784-12.027 15-12-.329-3.679 1.378-8.328 4-6-.71-3.815-.664-4.815 1-8 1.796-.129 2.34.993 2 3 2.146-2.988-1.348-7.91 1-12 1.377-.043 2.195.471 3 1-3.881-5.582.921-7.953-1-15 3.213-.88 1.37 3.296 4 3-.582-2.393-6.166-11.319-1-10-.79-2.615-6.324-9.784-1-12-6.279-7.059-2.432-19.711-11-23-.831-9.564-11.4-15.184-15-25 4.199 6.134 11.466 9.201 14 17 4.398-1.896 6.866 3.645 8 8 2.354-4.057 6.921 2.588 6 8 2.168.169.453-3.547 1-5 3.036 1.964 5.994 4.006 5 10 3.501-7.811 5.205 3.123 6 7 2.1-.279-1.449-2.671 1-4 3.585 2.094 1.818 4.996 3 8 4.532-5.232 4.688 8.279 10 6v7c2.396.396-.555-4.555 3-3 1.675 1.659.796 5.871 1 9 2.396.396-.555-4.555 3-3-.729 2.729 1.987 2.013 2 4 .268 3.601-1.848 4.819-2 8 2.405-1.435 2.87 6.51 1 9 .41 1.705 1.289-.21 3 0 .782 4.449-1.332 6.002-1 10 1.85-.15.613-3.387 2-4 3.671 2.054.346 6.35 0 10 3.008 1.008 1.772-2.228 2-4 5.602 1.775 9.421 10.116 5 16 1.067 3.404.312-2.783 3-1 .81 6.81-3.709 8.291-5 13 3.213.213 2.434-3.566 4-5 2.946 4.649-3.404 8.568-3 14 1.342-.658 1.862-2.138 2-4 .604 6.992 1.089 12.666-4 19 .013 2.35 2.729-.365 2-2 3.245 3.963-2.71 7.252-3 11 .013 2.35 2.729-.365 2-2 2.243 4.494-1.982 7.138 0 13-3.086.581-3.718 3.615-5 6 2.171 3.064 1.597-4.991 5-4-.583 3.751-2.014 6.652-5 8 .168 1.165 1.581 1.086 3 1-3.622 5.012-.872 12.316-7 16 .997 3.081 2.703-1.114 3-2 2.296.785.973 6.19-2 5 4.51 2.411-.406 6.695-2 9 3.076 4.272-1.014 10.017-4 14 4.392 17.571-9.594 28.376-7 42-1.539 1.127-2.461 2.873-4 4 3.775 2.918.303 4.917 0 9 3.976 2.095 3.96 2.645 10 0-3.747-7.052 1.739-11.105 2-19 1.428-.39 1.687-1.2 3 0-.688-2.992.958-9.278 1-3 3.647-.683-.213-3.981 1-8 1.165.168 1.086 1.581 1 3 1.691-12.219 5.768-17.591 6-27 3.624-.957 1.017 4.316 3 5 2.104-2.495-2.321-6.969-1-12 2.187.147 2.147 2.52 2 5 2.884-2.95-1.404-7.213 0-12 1.759.241 2.279 1.721 2 4 2.992-2.735-1.335-6.607 0-11 3.033-.033 2.491 3.509 3 6 2.879-3.596-2.218-7.744-1-13 3.624-.957 1.017 4.316 3 5 2.571-3.435-4.204-8.597-1-13 4.339 4.829-.713-5.441 2-8 1.483.85 2.15 2.517 2 5 3.132-3.198-2.146-6.472-1-11 3.629-.962.84 4.493 4 4 .423-4.554-4.592-7.43-2-11 1.165.168 1.086 1.581 1 3 3.178-1.95-2.259-6.714 1-9 1.889.111.694 3.306 3 3 .268-3.601-1.848-4.819-2-8 3.854-3.893 3.203-7.683 3-16 7.412 6.433-1.555-3.384 1-9 2.062.271.238 4.428 3 4 2.399-2.466-3.501-5.116-3-9 3.213-.88 1.37 3.296 4 3 .154-4.821-4.303-5.031-3-11 1.576.091.783 2.551 3 2-.553-4.447-5.166-4.834-4-11 1.889.111.694 3.306 3 3-.341-4.992-5.559-5.107-4-12 1.889.111.694 3.307 3 3 .096-4.763-4.59-4.744-5-9 .067-4.671 2.286 1.171 4 1-.098-3.601-8.946-7.885-3-11-1.227-1.773-3.103-2.897-4-5 .658-2.995 2.138.956 4 0-1.688-3.645-7.016-3.651-7-9 1.278.055 1.385 1.281 3 1-5.004-.941-5.039-8.763-4-7-2.463-4.181-6.51-5.321-7-13 1.278.055 1.385 1.281 3 1-1.906-3.427-6.529-4.138-7-9 1.377-.043 2.195.471 3 1-1.743-4.257-7.999-4.001-8-10 1.278.055 1.385 1.281 3 1-1.978-3.022-6.568-3.432-8-7 .168-1.165 1.581-1.086 3-1-4.256-2.078-7.684-4.983-11-8 .848-2.931 3.22.598 5 0-2.921-3.412-8.887-3.779-12-7 .15-2.487 3.387-.292 4 0-1.525-3.142-6.319-3.014-9-5-.129-1.796.993-2.34 3-2-12.599-3.401-16.889-15.111-28-20 10.025.647 25.816 4.179 36 8 2.51-.426-.96-2.857-3-2 3.549-3.482 6.471 2.146 11 1-.15-1.85-3.387-.613-4-2 3.549-3.482 6.471 2.146 11 1-.848-1.486-3.22-1.447-5-2 2.744-4.812 7.836-1.433 14-2-.125-2.208-4.242-.425-6-1 1.471-4.967 6.294-1.572 11-2 .396-2.396-4.555.555-3-3 3.016-2.516 5.437 1.968 10 1 .947-3.614-3.938-1.395-6-2-1.026-3.36 3.11-1.557 5-2-3.275-6.726 12.809-5.442 14 1 1.22-.113 2.367-.299 2-2 5.657 5.1 15.578 7.071 22 12 .319 2.319-.16 3.839-1 5 3.235 1.235.765-3.235 4-2 1.326 1.674 2.649 3.351 2 7 1.576-.091.783-2.551 3-2 1.001 2.123 4.426 4.456 2 7 3.236 1.235.764-3.235 4-2-.022 2.355 1.723 2.944 1 6 2.488-1.639 12.108 6.264 10 12 .279 2.1 2.671-1.449 4 1 .319 2.319-.16 3.84-1 5 .982 2.802 2.668-1.452 4 1 .025 2.642-.933 6.266 3 5 .09 3.736 1.121 2.851 0 6 .903 2.729 2.236-3.042 4 0 1.322 5.936 3.896 10.394 8 11-2.83 4.529 3.34 5.981 0 10 5.996.441.537 7.329 6 7-.658 2.104-2.646 4.445-1 6 1.576-.091.783-2.551 3-2 1.069 3.736-2.483 2.851-2 6 3.235 1.236.765-3.236 4-2 1.223 4.557-2.743 3.924-2 8 1.017 1.91 7.268.68 6-3 2.01 1.656.758 6.575 4 7 1.257-.41 2.044-1.289 2-3 .211-3.545-4.691-1.976-4-6 1.428.239 1.687 1.646 3 2-.021-10-4.301-15.237-7-23 .261-1.556 2.193-.693 3 0-5.395-3.714-1.385-11.782-7-14 5.908-2.895-7.086-7.928-1-11-8.055-7.273-7.572-16.1-15-24 .113-1.22.299-2.367 2-2-1.362-2.676-9.594-3.688-6-8-2.539-2.07-12.645-6.312-8-9-2.987-2.346-6.705-3.961-10-6 .221-.779.838-1.163 2-1-1.331-2.002-4.438-2.228-7-3-.129-1.795.993-2.34 3-2-6-1.667-11.213-4.121-15-8 .186-1.481 2.416-.917 4-1-5.092-1.242-8.807-3.86-13-6 .016-1.651 2.773-.56 3-2-1.021-2.228-4.598 1.308-8 0-1.602-3.936 4.318-.348 4-3-1.696-2.59-4.65 1.938-8 1 .239-1.427 1.646-1.687 2-3-3.164-.164-3.342 2.658-7 2 .239-1.427 1.646-1.687 2-3-2.586 1.325-14.744 5.986-14 1-3.34.359-8.894 7.938-11 3-2.438 2.563-5.121 4.879-10 5 .294-2.039 2.706-1.961 3-4-4.854-.188-3.495 5.838-8 6-3.834.182-.363-.818-1-3-2.619 2.047-4.351 4.983-9 5v-3c-4.051 4.52-16.122 6.604-20 2-1.165.168-1.086 1.581-1 3-2.357-.977-6.344-.323-6-4 1.904.429 2.513 2.154 5 2-1.987-3.679-7.798-3.535-12-5 6.963-5.643 21.482-1.315 33-2 .169-2.168-3.547-.453-5-1 2.734-3.927 8.362-.49 12-2-.168-1.165-1.581-1.086-3-1 2.721-3.845 6.952-.146 11-2-.125-2.208-4.242-.425-6-1 1.47-3.196 8.112-1.221 11-3 .168-2.168-3.547-.453-5-1 .585-3.415 7.431-.569 9-3 .296-2.674-3.88 2.658-3-2 2.802-.532 5.198-1.468 8-2-.168-1.165-1.581-1.086-3-1 1.182-3.819 5.457-4.543 11-4-.914-3.357-1.859-.495-5-1 1.456-5.109 4.048-3.05 9-4 .169-2.168-3.547-.453-5-1 .264-2.86 4.504-4.377 6-3-.113-1.22-.299-2.368-2-2 4.129-11.538 18.748-12.585 23-24 5.243-.981 6.332-3.494 12-2-5.041-2.427 4.601-5.632 6-2-2.76-2.407 8.746-9 12-5 1.531-3.877 12.283-5.106 15-1 1.165-.168 1.086-1.581 1-3 5.994 3.625 6.875-2.066 15 2-.221-.779-.838-1.163-2-1 8.237-3.704 28.312 5.505 33-5z" fill="#fff"/><path d="M0 173c2.223 2.315 3.899-.339 7 0 .224 1.891-1.127 2.206-1 4 12.446-4.721 28.973-3.842 44-3 .306 2.306-2.889 1.111-3 3 3.817-1.359 15.397-5.031 16 2 5.846-2.356 9.422 3.991 16 4 .129 1.795-.993 2.34-3 2 5.783.357 12.499 1.852 18 5-.015 1.651-2.774.56-3 2 2.761 1.572 7.204 1.463 9 4 .168 2.168-3.547.453-5 1 2.938 2.062 8.857 1.143 11 4-.15 2.487-3.386.292-4 0-.611 3.944 5.49 1.176 8 2-4.961 4.901 6.756 2.542 8 7 1.008 3.008-2.228 1.772-4 2 1.577 3.423 9.651.349 9 6-2.319.319-3.839-.161-5-1 .926 4.074 8.292 1.708 10 5-1.514 3.024-4.389-.829-7 0 1.683 3.651 9.683.984 12 4-.147 2.186-2.52 2.147-5 2 .745 2.255 5.609.391 8 1 1.474 7.7 16.551 7.392 20 14 2.091-.576 2.854-2.479 6-2 .39 1.427 1.2 1.687 0 3 8.106-3.604 16.677-.612 27-2-1.212 4.041-5.985 9.722-9 6-1.705.41.21 1.29 0 3-10.136 3.876-21.604-.365-29-5 .265 4.032-6.929.376-8-3-1.009.012-1.258 1.753 0 2-10.152-1.203-26.767 2.41-38-4-2.591 3.146-13.957 2.941-21 0-.815 4.148 6.165.502 7 3-2.303 5.194-7.757 1.024-14 2 .431 2.236 4.928.405 7 1-.104 3.896-4.343 3.657-8 4 5.374 1.16.457 6.077-5 5 5.558 1.492.436 5.086-1 8-2.391.609-7.255-1.255-8 1 .241 2.578 1.721-1.373 4 0 .667 5.667-7.146 2.854-10 5 .92 2.726 3.126-1.397 6 0-.085 4.581-7.225 2.108-10 4 1.01 2.815 4.247-.276 6 0-.132 3.201-2.267 4.399-6 4 .09 1.576 2.55.783 2 3-2.395 1.272-3.682 3.651-8 3 .186 1.48 2.417.917 4 1-1.067 2.267-3.033 3.634-6 4 3.204 1.506 1.146 3.604 1 7-3.056-.723-3.644 1.022-6 1 .186 1.48 2.417.917 4 1-.643 3.024-1.562 5.771-5 6 .211 1.122 1.11 1.557 2 2-.299 2.7-4.207 1.793-5 4 4.636.339-.38 6.173-4 7 .658 2.995 2.138-.956 4 0-.362 3.638-2.362 5.638-6 6 5.167 1.102 1.651 6.302-2 7 3.344 2.517.472 9.415-3 11 4.6 2.601-2.355 5.569-3 9 3.236 1.235.764-3.235 4-2-1.958 4.742-4.067 9.008-1 13-.134 3.866-4.056 3.944-5 7 2.556 4.676 10.55 5.888 14 2-10.896-4.998 1.665-10.302 0-20h3c-3.744-8.826 4.315-17.412 8-19 1.06-5.94 4.604-9.396 6-15 2.168-.168.453 3.547 1 5 3.24-3.529.354-14.719 6-13-1.942-1.926 1.052-4.023 1-7 5.418 1.418 3.904-4.096 6-6 1.427.239 1.687 1.646 3 2-.405-5.072 2.022-7.312 4-10 2.931.847-.598 3.22 0 5 3.551-2.449 4.249-7.751 6-12 2.93 4.897 4.49-2.324 7-6 1.165.168 1.086 1.581 1 3 .86-2.975 3.835-11.205 8-6 5.721-5.696 9.945-10.81 19-11 .39 1.427 1.2 1.687 0 3 8.738-3.074 2.533 2.307 12 1-.113 1.22-.299 2.368-2 2 .847 2.931 3.22-.598 5 0 .39 1.427 1.2 1.687 0 3 3.438-.438 5.605.395 8 1-.012 1.321-1.753.914-2 2 4.553-.515 12.71 2.118 18 4-.658 1.342-2.138 1.862-4 2 14.402.172 33.788-4.203 50-12-2.328 3.728-8.58 4.043-6 10-6.229 1.88-6.578 6.129-15 4 .257 2.077 4.394.273 5 2-2.882 2.118-5.57 4.43-11 4 .186 1.48 2.417.917 4 1-2.411 3.589-7.59 4.41-12 6 .241 2.578 1.721-1.373 4 0-1.512 2.488-3.428 4.572-7 5-.094 1.578-.917 5.717-6 5 4.34 3.248-4.039 7.739-8 9 .111 3.542 3.306-2.125 3 1-.149 4.185-4.484 4.183-7 6 .658 2.995 2.138-.956 4 0-1.563 3.771-4.23 6.437-8 8 .658 2.995 2.138-.956 4 0-.71 5.957-6.645 6.688-9 11 2.503.17 3.13-1.536 4-3 2.706 2.771-1.664 6.953-3 9 .41 1.705 1.29-.21 3 0-1.114 3.552-2.573 6.761-7 7 4.309 2.152-.804 5.449-3 7 3.977 1.978-1.229 6.696-4 8 3.532 6.517-3.696 10.071-6 14 2.82 2.912 1.247-2.991 5-2 .869 3.869-2.442 3.558-3 6 .903 2.729 2.237-3.042 4 0 1.468 5.468-2.551 5.449-4 8 5.288-2.339 1.84 5.816-1 9 .87 2.953 1.497-2.32 4-1-4.157 5.307 3.16 10.791-2 16 .239 1.535 1.646.146 2-1 3.665 4.383-2.085 7.877-3 11 1.232 2.438 2.768-3.138 4-4 1.296 5.981 3.285 13.738-1 20 1.446 2.956 2.103-3.115 3-4 3.376.411.561 4.756 0 7 .41 1.705 1.29-.21 3 0 1.075 6.075-3.186 6.813-3 12 2.447-.887 1.083-5.584 5-5 .983 3.266-4.076 8.6 2 8 .785 4.118-1.535 5.132-1 9 1.85-.15.614-3.387 2-4 2.881 1.318 2.054 6.339 1 9 5.009-2.439 3.324 9.285 1 15 4.362.361.025-7.976 5-7 .787 4.973.307 5.628-1 10 6.407-5.056 2.958 5.865 2 10 2.352-.314.593-4.74 4-4 .351 5.351-1.774 8.226-3 12 4.233.899 1.017-5.649 5-5-1.812 6.227 4.399 8.36 1 13 .56 2.259 1.56-1.213 3 1-.119 2.881.546 6.546-1 8 2.324-1.728 5.574 1.779 3 7 2.171-1.718 4.632 1.551 2 6 4.541-3.248 3.572-.225 3 5 2.967-4.338 3.221 1.509 2 5 .013 2.35 2.729-.365 2-2 2.693 1.183-.004 5.214 0 7 .013 2.35 2.729-.365 2-2 3.376.411.561 4.756 0 7 4.819-5.795 1.049 2.976 6 2v9H0V173zM197 299c.002-4.664 3.955-5.379 7-7-.425 4.241-3.415 5.918-7 7z" fill="#fff"/><path d="M278 32h2v1c1.658 1.342.751 5.25 4 5-.086-1.419-.165-2.832 1-3 .789 2.84 1.445 9.716 4 5-.774 6.441 2.925 8.409 5 12-.34-2.007.204-3.129 2-3-3.147 17.171 6.888 27.712 7 47-.367-1.701.78-1.887 2-2-3.473 7.394-2.801 13.176-2 22 1.44 2.212 2.44-1.259 3 1-.787 4.42-2.162 10.834 1 14-3.843.688-3.356 5.729 0 6-6.392 2.933-7.044 11.573-3 14-3.915-.287-7.005 4.156-3 6-3.92-.021-6.985 6.113-3 8-4.833-1.284-6.246 3.854-3 5-4.167.183-8.434 4.632-3 6-11.212 1.789-15.643 10.357-23 16 7.266 1.157 22.791-.807 24-13 2.084.294-1.484 2.706 2 3 1.586-3.747 2.496-8.17 4-12 .581 4.864 3.345-2.572 3-5 4.881 3.368 2.977-7.319 5-10 .228 1.772-1.008 5.008 2 4 1.126-2.874.202-7.797 2-10 .083 1.583-.48 3.814 1 4 2.979-1.021.877-7.123 3-9-.044 1.71.743 2.59 2 3-.182-2.182.818-3.182 3-3 1.197-3.931-3.061-7.516 0-10-.15 2.483.517 4.15 2 5 .93-8.927 2.499-11.043 4-19 .86.807.594 2.739 2 3 2.181-3.82 5.312-6.688 6-12 1.78.733.145 1.818 0 3 6.39-2.277 7.206-10.127 9-17-.367 1.701.78 1.887 2 2 2.629-1.705 1.009-7.658 3-10 .86.807.594 2.739 2 3 1.686-2.647-.816-9.483 3-10-.292.614-2.487 3.85 0 4 1.326-1.674 2.649-3.351 2-7 5.361.751 8.158-8.07 10-14 3.993 3.7 1.916-4.734 4-6-.086 1.419-.165 2.832 1 3 1.331-2.335 1.699-5.634 3-8 .933 5.216 3.113-2.804 4-4-.162 1.163.221 1.779 1 2 1.936-1.065 1.395-4.606 3-6-.182 3.834.818.363 3 1-1.997-6.104 4.177-2.211 5-9 2.555 1.982 4.598-1.038 6 1-2.627 1.638-1.083 7.501 0 11-2.966 2.034-6.354 3.646-9 6-.127 1.794 1.225 2.109 1 4-5.163-.783-7.406 6.807-4 6-3.202 1.354-6.286 3.934-4 8-6.588.611-10.877 12.389-8 16-6.809 3.981-5.154 10.234-11 15 1.584.083 3.814-.481 4 1-2.928-.261-3.072 2.261-6 2 1.19 6.989-6.612 6.216-7 14 1.711.21 2.59-1.705 3 0-1.888 3.446-6.24 4.426-7 9 2.503 1.32 3.131-3.954 4-1-1.062 2.938-6.02 1.98-7 5-.551 2.217 1.909 1.424 2 3-11.258 4.663-12.805 19.482-13 28 .247-1.258 1.988-1.009 2 0-4.172.374-8.463 7.862-4 8-1 1.667-4.625.708-5 3-.551 2.217 1.909 1.424 2 3-3.546.003-6.445 3.654-3 5-3.758.591-8.368 4.698-3 6-2.403 1.263-6.047 1.286-8 3-.09 2.729 1.666 2.013 0 4-8.124.964-9.28 5.486-13 9-5.976-1.292-11.592 6.395-22 4-1.737 11.071 9.651 9.015 19 9 2.263-2.404 3.721-5.613 7-7 1.088 2.544-4.683 3.878 0 4 3.06-1.274 2.94-5.726 6-7 .154 2.488-1.571 3.096-2 5 5.501-.137 4.001-6.881 10-4 1.827-2.506 2.081-6.586 5-8 .127 1.794-1.225 2.109-1 4 5.416-.25 4.009-7.325 8-9 .127 1.793-1.225 2.109-1 4 8.464-2.536 12.346-9.654 14-19 2.74.905-1.952 3.681 2 4 3.858-3.475 6.277-8.39 9-13-.086 1.419-.165 2.832 1 3 1.551-1.783 2.749-3.917 4-6 1.086.247.678 1.988 2 2 3.576-2.757 6.602-6.065 9-10 .424 2.09-.686 2.648-1 4 5.949.616 3.154-7.513 8-8 .154 2.488-1.571 3.096-2 5 6.918 1.56 7.482-8.485 11-7 .149 1.332-4.065 3.018-1 4 3.866-1.467 5.744-4.922 9-7 1.078 2.555-4.305 3.5-1 5 2.62-1.38 3.442-4.558 7-5-.294 2.039-2.706 1.961-3 4 7.484.003 11.28 1.507 17-1-.529.804-1.043 1.624-1 3 4.996.997 4.895-3.105 9-3-.354 1.313-1.761 1.573-2 3 6.645-.28 18.906 1.411 26 1-1.163-.163-1.779.221-2 1 3.469.802 3.844-1.489 7-1-1.984 2.306.251 1.111 1 3 2.705.292 5.716-4.178 8-1-2.007-.34-3.129.205-3 2 3.708.708 4.291-1.708 8-1v3c-4.688 10.505-24.763 1.296-33 5 1.162-.163 1.779.221 2 1-8.125-4.066-9.006 1.625-15-2 .086 1.419.165 2.832-1 3-2.717-4.106-13.469-2.877-15 1-3.254-4-14.76 2.593-12 5-1.399-3.632-11.041-.427-6 2-5.668-1.494-6.757 1.019-12 2-4.252 11.415-18.871 12.462-23 24 1.701-.368 1.887.78 2 2-1.496-1.377-5.736.14-6 3 1.453.547 5.169-1.168 5 1-4.952.95-7.544-1.109-9 4 3.141.505 4.086-2.357 5 1-5.543-.543-9.818.181-11 4 1.419-.086 2.832-.165 3 1-2.802.532-5.198 1.468-8 2-.88 4.658 3.296-.674 3 2-1.569 2.431-8.415-.415-9 3 1.453.547 5.168-1.168 5 1-2.888 1.779-9.53-.196-11 3 1.758.575 5.875-1.208 6 1-4.048 1.854-8.279-1.845-11 2 1.419-.086 2.832-.165 3 1-3.638 1.51-9.266-1.927-12 2 1.453.547 5.169-1.168 5 1-11.518.685-26.037-3.643-33 2 4.202 1.465 10.013 1.321 12 5-2.487.154-3.096-1.571-5-2-.344 3.677 3.643 3.023 6 4-.086-1.419-.165-2.832 1-3 3.878 4.604 15.949 2.52 20-2v3c4.649-.017 6.381-2.953 9-5 .637 2.182-2.834 3.182 1 3 4.505-.162 3.146-6.188 8-6-.294 2.039-2.706 1.961-3 4 4.879-.121 7.562-2.437 10-5 2.106 4.938 7.66-2.641 11-3-.744 4.986 11.414.325 14-1-.354 1.313-1.761 1.573-2 3 3.658.658 3.836-2.164 7-2-.354 1.313-1.761 1.573-2 3 3.35.938 6.304-3.59 8-1 .318 2.652-5.602-.936-4 3 3.402 1.308 6.979-2.228 8 0-.227 1.44-2.984.349-3 2 4.193 2.14 7.908 4.758 13 6-1.584.083-3.814-.481-4 1 3.787 3.879 9 6.333 15 8-2.007-.34-3.129.205-3 2 2.562.772 5.669.998 7 3-1.162-.163-1.779.221-2 1 3.295 2.039 7.013 3.654 10 6-4.645 2.688 5.461 6.93 8 9-3.594 4.312 4.638 5.324 6 8-1.701-.367-1.887.78-2 2 7.428 7.9 6.945 16.727 15 24-6.086 3.072 6.908 8.105 1 11 5.615 2.218 1.605 10.286 7 14-.807-.693-2.739-1.556-3 0 2.699 7.763 6.979 13 7 23-1.313-.354-1.572-1.761-3-2-.691 4.024 4.211 2.455 4 6 .044 1.711-.743 2.59-2 3-3.242-.425-1.99-5.344-4-7 1.268 3.68-4.983 4.91-6 3-.743-4.076 3.223-3.443 2-8-3.235-1.236-.765 3.236-4 2-.483-3.149 3.069-2.264 2-6-2.217-.551-1.424 1.909-3 2-1.646-1.555.342-3.896 1-6-5.463.329-.004-6.559-6-7 3.34-4.019-2.83-5.471 0-10-4.104-.606-6.678-5.064-8-11-1.764-3.042-3.097 2.729-4 0 1.121-3.149.09-2.264 0-6-3.933 1.266-2.975-2.358-3-5-1.332-2.452-3.018 1.802-4-1 .84-1.16 1.319-2.681 1-5-1.329-2.449-3.721 1.1-4-1 2.108-5.736-7.512-13.639-10-12 .723-3.056-1.022-3.645-1-6-3.236-1.235-.764 3.235-4 2 2.426-2.544-.999-4.877-2-7-2.217-.551-1.424 1.909-3 2 .649-3.649-.674-5.326-2-7-3.235-1.235-.765 3.235-4 2 .84-1.161 1.319-2.681 1-5-6.422-4.929-16.343-6.9-22-12 .367 1.701-.78 1.887-2 2-1.191-6.442-17.275-7.726-14-1-1.89.443-6.026-1.36-5 2 2.062.605 6.947-1.614 6 2-4.563.968-6.984-3.516-10-1-1.555 3.555 3.396.604 3 3-4.706.428-9.529-2.967-11 2 1.758.575 5.875-1.208 6 1-6.164.567-11.256-2.812-14 2 1.78.553 4.152.514 5 2-4.529 1.146-7.451-4.482-11-1 .613 1.387 3.85.15 4 2-4.529 1.146-7.451-4.482-11-1 2.04-.857 5.51 1.574 3 2-10.184-3.821-25.975-7.353-36-8 11.111 4.889 15.401 16.599 28 20-2.007-.34-3.129.204-3 2 2.681 1.986 7.475 1.858 9 5-.613-.292-3.85-2.487-4 0 3.113 3.221 9.079 3.588 12 7-1.78.598-4.152-2.931-5 0 3.316 3.017 6.744 5.922 11 8-1.419-.086-2.832-.165-3 1 1.432 3.568 6.022 3.978 8 7-1.615.281-1.722-.945-3-1 .001 5.999 6.257 5.743 8 10-.805-.529-1.623-1.043-3-1 .471 4.862 5.094 5.573 7 9-1.615.281-1.722-.945-3-1 .49 7.679 4.537 8.819 7 13-1.039-1.763-1.004 6.059 4 7-1.615.281-1.722-.945-3-1-.016 5.349 5.312 5.355 7 9-1.862.956-3.342-2.995-4 0 .897 2.103 2.773 3.227 4 5-5.946 3.115 2.902 7.399 3 11-1.714.171-3.933-5.671-4-1 .41 4.256 5.096 4.237 5 9-2.306.307-1.111-2.889-3-3-1.559 6.893 3.659 7.008 4 12-2.306.306-1.111-2.889-3-3-1.166 6.166 3.447 6.553 4 11-2.217.551-1.424-1.909-3-2-1.303 5.969 3.154 6.179 3 11-2.63.296-.787-3.88-4-3-.501 3.884 5.399 6.534 3 9-2.762.428-.938-3.729-3-4-2.555 5.616 6.412 15.433-1 9 .203 8.317.854 12.107-3 16 .152 3.181 2.268 4.399 2 8-2.306.306-1.111-2.889-3-3-3.259 2.286 2.178 7.05-1 9 .086-1.419.165-2.832-1-3-2.592 3.57 2.423 6.446 2 11-3.16.493-.371-4.962-4-4-1.146 4.528 4.132 7.802 1 11 .15-2.483-.517-4.15-2-5-2.713 2.559 2.339 12.829-2 8-3.204 4.403 3.571 9.565 1 13-1.983-.684.624-5.957-3-5-1.218 5.256 3.879 9.404 1 13-.509-2.491.033-6.033-3-6-1.335 4.393 2.992 8.265 0 11 .279-2.279-.241-3.759-2-4-1.404 4.787 2.884 9.05 0 12 .147-2.48.187-4.853-2-5-1.321 5.031 3.104 9.505 1 12-1.983-.684.624-5.957-3-5-.232 9.409-4.309 14.781-6 27 .086-1.419.165-2.832-1-3-1.213 4.019 2.647 7.317-1 8-.042-6.278-1.688.008-1 3-1.313-1.2-1.572-.39-3 0-.261 7.895-5.747 11.948-2 19-6.04 2.645-6.024 2.095-10 0 .303-4.083 3.775-6.082 0-9 1.539-1.127 2.461-2.873 4-4-2.594-13.624 11.392-24.429 7-42 2.986-3.983 7.076-9.728 4-14 1.594-2.305 6.51-6.589 2-9 2.973 1.19 4.296-4.215 2-5-.297.886-2.003 5.081-3 2 6.128-3.684 3.378-10.988 7-16-1.419.086-2.832.165-3-1 2.986-1.348 4.417-4.249 5-8-3.403-.991-2.829 7.064-5 4 1.282-2.385 1.914-5.419 5-6-1.982-5.862 2.243-8.506 0-13 .729 1.635-1.987 4.35-2 2 .29-3.748 6.245-7.037 3-11 .729 1.635-1.987 4.35-2 2 5.089-6.334 4.604-12.008 4-19-.138 1.862-.658 3.342-2 4-.404-5.432 5.946-9.351 3-14-1.566 1.434-.787 5.213-4 5 1.291-4.709 5.81-6.19 5-13-2.688-1.783-1.933 4.404-3 1 4.421-5.884.602-14.225-5-16-.228 1.772 1.008 5.008-2 4 .346-3.65 3.671-7.946 0-10-1.387.613-.15 3.85-2 4-.332-3.998 1.782-5.551 1-10-1.711-.21-2.59 1.705-3 0 1.87-2.49 1.405-10.435-1-9 .152-3.181 2.268-4.399 2-8-.013-1.987-2.729-1.271-2-4-3.555-1.555-.604 3.396-3 3-.204-3.129.675-7.341-1-9-3.555-1.555-.604 3.396-3 3v-7c-5.312 2.279-5.468-11.232-10-6-1.182-3.004.585-5.906-3-8-2.449 1.329 1.1 3.721-1 4-.795-3.877-2.499-14.811-6-7 .994-5.994-1.964-8.036-5-10-.547 1.453 1.168 5.169-1 5 .921-5.412-3.646-12.057-6-8-1.134-4.355-3.602-9.896-8-8-2.534-7.799-9.801-10.866-14-17 3.6 9.816 14.169 15.436 15 25 8.568 3.289 4.721 15.941 11 23-5.324 2.216.21 9.385 1 12-5.166-1.319.418 7.607 1 10-2.63.296-.787-3.88-4-3 1.921 7.047-2.881 9.418 1 15-.805-.529-1.623-1.043-3-1-2.348 4.09 1.146 9.012-1 12 .34-2.007-.204-3.129-2-3-1.664 3.185-1.71 4.185-1 8-2.622-2.328-4.329 2.321-4 6-5.216-.027-9.068 9.459-15 12 1.823.26 3.999 8.284 0 8 .622-3.872.828-4.118-1-7-2.826-.826-2.591 1.409-5 1-.612 3.722 1.891 10.558-3 10 .604-2.395 1.438-4.562 1-8-3.056-.723-3.645 1.022-6 1 .271 3.937-.385 6.948-3 8-.22-3.22 1.769-4.231 1-8-5.257 1.586-8.115-.646-12 2-1.129 3.541 4.203 5.691 1 8-.335-5.303-6.644-4.238-4-10h-2c-1.163-.162-1.779.221-2 1 1.375 1.281 2.96 4.761 0 5-1.523-4.144-1.836-9.497-8-9-1.79 3.489.152 9.169-1 11-2.874-2.432-2.425-9.496 0-12-3.828.813-1.57-3.448-6-4-.015 2.651.555 5.889-2 6 .254-4.978.415-4.255 1-8-2.217-.551-1.424 1.909-3 2 .475-3.808-.424-6.242-3-7-.553 1.78-.514 4.152-2 5-4.081-3.382 3.023-6.945-2-10 .34 2.007-.205 3.129-2 3 .73-3.979.73-4.021 0-8-4.479-1.414-4.918-9.104-6-15-1.184-2.462-3.777 2.049-5-1 2.518-.865 4.366-7.567 2-10-.521.386-1.479 4.857-2 2 .333-3.666 3.963-4.037 3-9-1.44-2.213-2.44 1.259-3-1 1.04-1.893 5.215-5.756 1-7 .729 1.635-1.987 4.35-2 2 1.605-3.217 7.385-10.869 3-11 2.802-7.531 9.458-15.175 8-21a27.673 27.673 0 0 0 7-7c-3.292.187-2.017-2.135-6-3-2.155.845.375 6.375-2 7 .34-2.007-.205-3.129-2-3-2.155.845.375 6.375-2 7 .467-2.134-1.429-1.904-3-2-1.092 2.908-.936 7.064-3 9 .086-1.419.165-2.832-1-3-2.979 1.021-.877 7.123-3 9-.083-1.584.481-3.814-1-4-4.186 1.48-1.898 9.436-4 13v-6c-5.296-.017-2.385 6.632-4 8-1.44-.227-.349-2.984-2-3-1.969 2.364.278 8.945-2 11-.575-1.758 1.208-5.875-1-6-2.233 1.396-1.33 9.832-4 5-2.042 2.291-1.395 7.272-3 10 .34-2.007-.205-3.129-2-3-1.663 2.004.083 7.417-2 9 .044-1.711-.743-2.59-2-3-4.465 2.195.522 9.375-2 12 .279-2.279-.241-3.759-2-4-.802 3.469 1.489 3.844 1 7-2.306-1.984-1.111.251-3 1-.923 4.59 2.502 4.831 2 9-.804-.529-1.624-1.043-3-1-1.53 4.264 4.59 5.986 1 9 .044-1.711-.743-2.59-2-3-1.569 6.051-1.245 12 0 16-1.086-.247-.678-1.988-2-2-.802 5.135 1.072 7.595 2 11-4.034 1.037-1.091 15.122 3 19-1.714.171-3.932-5.671-4-1-.909 4.909 4.191 3.809 4 8-1.332.149-3.018-4.065-4-1 1.629 2.037 2.101 5.232 4 7-1.419-.086-2.832-.165-3 1 3.115 10.846 2.314 19.866 8 29-1.767 3.813 2.178 12.507 5 18-1.23-1.117-2.054-.87-2 1 5.086 6.538.15 11.514 7 17-1.615.281-1.722-.945-3-1-.861 4.489 5.83 5.331 1 8 6.389 15.496 9.487 33.566 17 53-3.702-1.473-1.725-2.138-4 1 .044-1.711-.743-2.59-2-3v7h-1v-9c-4.951.976-1.181-7.795-6-2 .561-2.244 3.376-6.589 0-7 .729 1.635-1.987 4.35-2 2-.004-1.786 2.693-5.817 0-7 .729 1.635-1.987 4.35-2 2 1.221-3.491.967-9.338-2-5 .572-5.225 1.541-8.248-3-5 2.632-4.449.171-7.718-2-6 2.574-5.221-.676-8.728-3-7 1.546-1.454.881-5.119 1-8-1.44-2.213-2.44 1.259-3-1 3.399-4.64-2.812-6.773-1-13-3.983-.649-.767 5.899-5 5 1.226-3.774 3.351-6.649 3-12-3.407-.74-1.648 3.686-4 4 .958-4.135 4.407-15.056-2-10 1.307-4.372 1.787-5.027 1-10-4.975-.976-.638 7.361-5 7 2.324-5.715 4.009-17.439-1-15 1.054-2.661 1.881-7.682-1-9-1.386.613-.15 3.85-2 4-.535-3.868 1.785-4.882 1-9-6.076.6-1.017-4.734-2-8-3.917-.584-2.553 4.113-5 5-.186-5.187 4.075-5.925 3-12-1.71-.21-2.59 1.705-3 0 .561-2.244 3.376-6.589 0-7-.897.885-1.554 6.956-3 4 4.285-6.262 2.296-14.019 1-20-1.232.862-2.768 6.438-4 4 .915-3.123 6.665-6.617 3-11-.354 1.146-1.761 2.535-2 1 5.16-5.209-2.157-10.693 2-16-2.503-1.32-3.13 3.953-4 1 2.84-3.184 6.288-11.339 1-9 1.449-2.551 5.468-2.532 4-8-1.763-3.042-3.097 2.729-4 0 .558-2.442 3.869-2.131 3-6-3.753-.991-2.18 4.912-5 2 2.304-3.929 9.532-7.483 6-14 2.771-1.304 7.977-6.022 4-8 2.196-1.551 7.309-4.848 3-7 4.427-.239 5.886-3.448 7-7-1.71-.21-2.59 1.705-3 0 1.336-2.047 5.706-6.229 3-9-.87 1.464-1.497 3.17-4 3 2.355-4.312 8.29-5.043 9-11-1.862-.956-3.342 2.995-4 0 3.77-1.563 6.437-4.229 8-8-1.862-.956-3.342 2.995-4 0 2.516-1.817 6.851-1.815 7-6 .306-3.125-2.889 2.542-3-1 3.961-1.261 12.34-5.752 8-9 5.083.717 5.906-3.422 6-5 3.572-.428 5.488-2.512 7-5-2.279-1.373-3.759 2.578-4 0 4.41-1.59 9.589-2.411 12-6-1.583-.083-3.814.48-4-1 5.43.43 8.118-1.882 11-4-.606-1.727-4.743.077-5-2 8.422 2.129 8.771-2.12 15-4-2.58-5.957 3.672-6.272 6-10-16.212 7.797-35.598 12.172-50 12 1.862-.138 3.342-.658 4-2-5.29-1.882-13.447-4.515-18-4 .247-1.086 1.988-.679 2-2-2.395-.605-4.562-1.438-8-1 1.2-1.313.39-1.573 0-3-1.78-.598-4.153 2.931-5 0 1.701.368 1.887-.78 2-2-9.467 1.307-3.262-4.074-12-1 1.2-1.313.39-1.573 0-3-9.055.19-13.279 5.304-19 11-4.165-5.205-7.14 3.025-8 6 .086-1.419.165-2.832-1-3-2.51 3.676-4.07 10.897-7 6-1.751 4.249-2.449 9.551-6 12-.598-1.78 2.931-4.153 0-5-1.978 2.688-4.405 4.928-4 10-1.313-.354-1.573-1.761-3-2-2.096 1.904-.582 7.418-6 6 .052 2.977-2.942 5.074-1 7-5.646-1.719-2.76 9.471-6 13-.547-1.453 1.168-5.168-1-5-1.396 5.604-4.94 9.06-6 15-3.685 1.588-11.744 10.174-8 19h-3c1.665 9.698-10.896 15.002 0 20-3.45 3.888-11.444 2.676-14-2 .944-3.056 4.866-3.134 5-7-3.067-3.992-.958-8.258 1-13-3.236-1.235-.764 3.235-4 2 .645-3.431 7.6-6.399 3-9 3.472-1.585 6.344-8.483 3-11 3.651-.698 7.167-5.898 2-7 3.638-.362 5.638-2.362 6-6-1.862-.956-3.342 2.995-4 0 3.62-.827 8.636-6.661 4-7 .793-2.207 4.701-1.3 5-4-.89-.443-1.789-.878-2-2 3.438-.229 4.357-2.976 5-6-1.583-.083-3.814.48-4-1 2.356.022 2.944-1.723 6-1 .146-3.396 2.204-5.494-1-7 2.967-.366 4.933-1.733 6-4-1.583-.083-3.814.48-4-1 4.318.651 5.605-1.728 8-3 .55-2.217-1.91-1.424-2-3 3.733.399 5.868-.799 6-4-1.753-.276-4.99 2.815-6 0 2.775-1.892 9.915.581 10-4-2.874-1.397-5.08 2.726-6 0 2.854-2.146 10.667.667 10-5-2.279-1.373-3.759 2.578-4 0 .745-2.255 5.609-.391 8-1 1.436-2.914 6.558-6.508 1-8 5.457 1.077 10.374-3.84 5-5 3.657-.343 7.896-.104 8-4-2.072-.595-6.569 1.236-7-1 6.243-.976 11.697 3.194 14-2-.835-2.498-7.815 1.148-7-3 7.043 2.941 18.409 3.146 21 0 11.233 6.41 27.848 2.797 38 4-1.258-.247-1.009-1.988 0-2 1.071 3.376 8.265 7.032 8 3 7.396 4.635 18.864 8.876 29 5 .21-1.71-1.705-2.59 0-3 3.015 3.722 7.788-1.959 9-6-10.323 1.388-18.894-1.604-27 2 1.2-1.313.39-1.573 0-3-3.146-.479-3.909 1.424-6 2-3.449-6.608-18.526-6.3-20-14-2.391-.609-7.255 1.255-8-1 2.48.147 4.853.186 5-2-2.317-3.016-10.317-.349-12-4 2.611-.829 5.486 3.024 7 0-1.708-3.292-9.074-.926-10-5 1.161.839 2.681 1.319 5 1 .651-5.651-7.423-2.577-9-6 1.772-.228 5.008 1.008 4-2-1.244-4.458-12.961-2.099-8-7-2.51-.824-8.611 1.944-8-2 .614.292 3.85 2.487 4 0-2.143-2.857-8.062-1.938-11-4 1.453-.547 5.168 1.168 5-1-1.796-2.537-6.239-2.428-9-4 .226-1.44 2.985-.349 3-2-5.501-3.148-12.217-4.643-18-5 2.007.34 3.129-.205 3-2-6.578-.009-10.154-6.356-16-4-.603-7.031-12.183-3.359-16-2 .111-1.889 3.306-.694 3-3-15.027-.842-31.554-1.721-44 3-.127-1.794 1.224-2.109 1-4-3.101-.339-4.777 2.315-7 0v-5c3.414-1.818 4.805.135 9 0 .21-1.71-1.705-2.59 0-3 6.993 1.619 20.63-1.816 22-6 5.784 5.131 6.221-.116 14 3 1.345-2.822-5.299-2.506-2-4 2.214 2.233 10.366 4.93 10 1 1.992 1.645 3.502 2.801 5 0 9.312.653 18.18 6.129 27 6 4.273 6.727 14.644 7.356 22 11 .083-1.583-.481-3.814 1-4 .551 3.996 4.86 11.466 7 5-.725 3.059 1.725 2.941 1 6 8.978.283 7.603 14.447 17 14-.857 3.19 1.574 3.093 2 5 2.217.551 1.424-1.91 3-2 .259 3.741 2.317 5.683 4 8 2.217.551 1.424-1.91 3-2 2.19 2.081-.877 3.232 1 5 .807.86 2.739.594 3 2 2.217.551 1.424-1.91 3-2 .444 4.556 3.483 6.517 9 6 2.728 7.404 24.102 10.935 26 0-17.653-2.68-26.841-13.825-40-21 1.419.086 2.832.165 3-1-.391-3.942-6.972-1.695-8-5 2.09-.423 2.648.686 4 1-.101-4.233-3.278-5.389-6-7 .247-1.086 1.988-.678 2-2-1.097-3.236-5.54-3.126-6-7 .807.693 2.739 1.556 3 0-1.042-2.291-3.888-2.779-5-5 1.701.368 1.887-.78 2-2-1.313-2.687-4.409-3.591-6-6 1.794-.127 2.109 1.224 4 1 1.82-6.153-4.762-3.904-5-8 .804.529 1.624 1.043 3 1-.204-3.129.674-7.341-1-9-1.758-.575-5.875 1.208-6-1 .226-1.44 2.984-.349 3-2-2.509-1.551-3.349-4.056-7-2 .013-1.987 2.729-1.271 2-4-1.964-3.268-4.998.328-6-3 1.419.086 2.832.165 3-1-.758-2.909-4.941-2.392-6-5 5.271-.829-.509-4.622-2-5h3c-7.482-7.476-10.791-13.66-18-22 1.163.163 1.779-.221 2-1-.854-3.146-5.504-2.496-6-6 .804.529 1.624 1.043 3 1 .004-3.671-3.501-3.832-5-6 1.787-11.661-15.594-23.166-16-37-7.582-4.71-11.752-11.636-12-19 4.291-.941 6.608 3.098 9 1 2.045 7.027 1.921 1.732 7 8 3.372 4.162 9.413 9.542 11 12 2.058 3.186 3.185 5.926 7 10 .637-2.182-2.834-3.182 1-3-.422 11.089 7.894 13.439 11 21 2.217.55 1.424-1.91 3-2-.58 3.247.681 4.652 1 7 3.555 1.555.604-3.396 3-3v7c5.768 4.405 7.353 6.383 8 13 5.77-3.675.891 8.114 5 9 2.217.55 1.424-1.91 3-2-.944 4.573 2.213 8.948 4 5 1.017 3.65 1.037 8.296 4 10-.34-2.007.205-3.129 2-3-2.101 4.183.555 11.097 4 9-2.399 10.357 5.933 16.952 9 25 .443-1.89-1.36-6.027 2-5-.508 2.492.033 6.033-3 6 .675 2.658 1.574 5.092 3 7 2.426-1.991-1.688-4.271 2-5 .997 4.331-1.117 5.549-2 8 .851-.184.943.39 1 1h2c2.807.428-2.506-3.728 1-4 1.674 1.659.796 5.871 1 9 3.555 1.555.604-3.396 3-3 1.521 2.882-.031 3.128 1 7 5.317-2 3.27 8.325 9 5 1.57 10.097 15.456 7.877 21 14-.08-13.31-20.531-14.76-23-29-1.917-1.75-6.157-1.176-6-5 1.313.354 1.573 1.761 3 2 .388-5.055-5.418-3.915-6-8 .804.529 1.624 1.043 3 1-.162-4.504-6.188-3.146-6-8 1.313.354 1.573 1.761 3 2 .535-4.868-3.987-4.68-5-8 3.245-6.066 1.837-11.692-2-18 3.236-1.236.764 3.236 4 2 1.052-4.386-3.382-3.285-3-7 2.039.558 1.961 3.009 4 1 1.63-4.363-4.394-6.183-2-8 1.889.111.694 3.306 3 3 4.623-3.704-.46-7.663-2-11 5.679-2.048-3.021-5.138-2-9 2.039.294 1.961 2.706 4 3 .539-3.872-2.549-4.118-3-7 1.615-.282 1.722.945 3 1 .728-5.061-2.745-5.922-3-10 2.63-.296.787 3.88 4 3 .525-4.858-4.252-4.415-4-9 2.82.18 1.247 4.753 5 4 2.058-5.44-5.566-6.367-2-10 .421 1.912.362 4.304 3 4 2.868-4.963-1.055-7.95-2-12 2.63-.296.787 3.88 4 3 1.146-4.529-4.482-7.452-1-11 .105 2.561.566 4.767 2 6 3.184-2.048-1.883-6.553 1-8-.368 1.701.78 1.887 2 2 .829-2.611-3.024-5.486 0-7-.368 1.701.78 1.887 2 2-.787-3.454.935-4.399 3-5 .004-1.786-2.693-5.817 0-7-.34 2.007.205 3.129 2 3 2.252-.998-2.162-5.452 1-7 .023 4.33 1.828 2.857 4 3 3.607 15.748-5.587 28.779 0 40-2.562 2.498-2.772 12.017 0 12-2.696 3.871-2.895 12.504 1 10-1.71 2.42-5.972 6.051-3 10-2.544.122-3.878 1.456-4 4 .006 2.66 2.782 2.551 4 4-2.361 2.766.898 5.354-1 9 3.236 1.236.764-3.236 4-2-6.858 8.629-.635 12.57-3 24 3.152 1.37 1.945-6.565 4-3 .253 3.586-3.003 3.664-3 7 3.917.583 2.553-4.113 5-5-.08 3.92-1.763 6.237-3 9 3.913 1.58 2.07-2.596 4-3 1.154 3.249-3.055 6.151 0 8 .437-1.23 1.28-2.054 3-2-2.398 6.861 5.709 11.123 8 14 .547-1.453-1.168-5.168 1-5-.484 3.817.284 6.383 2 8 3.824-2.212 3.844.847 8-3-2.245-11.542-10.917-22.728-9-30 .753-3.753-3.82-2.18-4-5 2.561-1.084 4.767 3.038 6 0-1.212.306-3.448-2.889-1-3 1.987.013 1.271 2.729 4 2 1.078-2.555-4.305-3.5-1-5 2.88.12 1.735 4.265 5 4 .083-1.583-.481-3.814 1-4 2.396-.396-.555 4.555 3 3 3.32-.325-2.633-4.362 1-5 2.652-.319-.936 5.602 3 4 2.807.428-2.506-3.728 1-4 1.357.31.83 2.504 1 4 3.236 1.236.764-3.236 4-2-1.269 5.22 1.819 4.53 3 5-.839 1.161-1.319 2.681-1 5 5.637-.509-.174 4.629 5 5-1.876 1.552-.632 15.479 2 19 1.742-13.925 2.615-28.718 10-37 1.169 2.615-3.085 4.301 1 4 2.352-.315.594-4.74 4-4 1.088 2.544-4.683 3.878 0 4 3.545.211 1.976-4.691 6-4 1.235 3.236-3.235.764-2 4 2.729.729 2.013-1.987 4-2 .637 5.167 6.641 2.544 9 3 .296 2.63-3.88.787-3 4 1.583.083 3.814-.481 4 1-6.142 5.75-13.938 28.156-5 36 3.911-6.953 9.99-10.497 14-15 1.697-4.787-4.337-7.581 0-9-.282 2.615.365 4.301 3 4 .829-2.611-3.024-5.486 0-7-.34 2.007.204 3.129 2 3-2.664-5.769 5.044-6.407 0-13h3c.963-4.963-2.666-5.333-3-9 1.615-.282 1.722.945 3 1-.057-3.61-2.493-4.841-3-8 .805.529 1.623 1.043 3 1 1.62-4.894-5.846-6.975-1-9 .421 1.912.362 4.304 3 4 1.639-4.05-5.291-4.603-2-7 1.017.65 1.034 2.299 3 2 3.287-6.137-2.163-12.981-4-19 .807.693 2.739 1.556 3 0-1.666-1.333-1.553-4.447-3-6 4.471-2.496-1.885-10.975-2-13 1.313.354 1.573 1.761 3 2-1.941-7.996-1.647-12.224-6-18 3.161 1.028.235-8.259-1-12 1.313 1.2 1.573.39 3 0 1.011-4.678-4.011-3.322-3-8 1.615-.282 1.722.945 3 1-.425-3.576-2.664-5.336-2-10zm-74 260c-3.045 1.621-6.998 2.336-7 7 3.585-1.082 6.575-2.759 7-7z"/></g></svg>