<svg xmlns="http://www.w3.org/2000/svg" version="1.2" width="948.616" height="361" viewBox="0 0 948.616 361" overflow="inherit"><path d="M13 0h-2C7.524 1.523 2.612 1.611 0 4c-.117 17.534 16.481 22.949 32 31 11.615 6.026 24.183 9.923 33 14 63.408 29.317 117.412 73.24 164 116-4.123 6.21-9.735 10.932-12 19-6.468 5.532-18.346 5.654-20 16 5.543-1.79 10.532-4.135 16-6-2.143 6.006-11.515 9.617-10 16 6.744-1.923 9.239-8.095 16-10 1.972 3.094-5.838 7.736-2 13 6.094-1.239 6.207-8.46 12-10 3.213-.213 2.434 3.566 4 5 5.708-9.292 11.091-18.909 21-24 19.572 12.428 42.286 21.714 67 29-5.142 12.525-13.657 21.676-27 26 2.703 4.963 10.77-.694 13 2-3.057 6.277-15.465 3.202-16 12 7.594.928 9.741-3.592 17-3-2.808 7.525-13.325 7.342-16 15 9.904.237 14.389-4.944 22-7 2.404 4.107-6.633 5.341-4 13 17.853-14.814 33.973-31.36 48-50 39.804 9.871 97.84 20.988 151 18 20.037-1.127 42.752-5.224 65-8 32.676-4.078 63.462-5.689 84-16-.209 8.029-3.752 16.007-3 27-3.27 6.731-15.062 4.938-18 12 3.217 2.26 6.629-.878 9 1-.559 5.462-9.902 7.403-8 12 8.453.32 17.203-7.146 22 1-.436 6.897-7.518 7.149-7 15 9.341-1.659 11.619-10.381 21-12 7.929 2.404 2.482 18.185 11 20 6.433-5.377-.365-19.536 6-21 5.241-1.205 2.182 11.36 10 10 2.997-11.438-4.486-20.768-8-29-.041-17.677 6.899-34.422 1-51 31.844-8.825 79.821-14.554 122-17 10.947-.635 22.864-1.001 33 0 10.566 1.044 20.732 6.858 31 10 12.966 3.967 29.062 10.395 35 23 8.219 17.449 1.232 45.436 0 68-.864 15.825.365 30.827-2 46-.504 2.496-2.66 3.34-3 6 1.02 10.396-2.278 21.701 4 25h2c.003-1.003-.811-1.19-1-2 6.765-3.41 8.509-12.514 11-20 5.614-16.873 11.55-33.756 16-52 2.157-8.845 5.344-17.604 6-26 4.488-57.392-15.956-108.124-49-131-12.26-8.487-34.395-11.823-54-17-18.955-5.005-35.934-9.478-56-11-42.6-3.232-87.965-.697-126 1-37.011 1.652-80.734 2.185-117 2-36.461-.186-73.972-10.083-106-18-67.707-16.736-131.559-37.465-194-51-37.685-8.168-79.507-7.782-119-14C85.383 15.447 46.478 7.021 13 0z" fill-rule="evenodd"/></svg>