<svg xmlns="http://www.w3.org/2000/svg" xmlns:dc="http://dublincore.org/documents/dcmi-terms/" height="570.926" viewBox="0 0 1268.245 570.926" width="1268.245" overflow="visible"><metadata><dc:description>Silhouette of Arctiidae, processed by PhyloPic Tools (https://github.com/eweitz/phylopic-tools)</dc:description><dc:source>http://phylopic.org/image/19ff8060-7122-4328-a504-e076e2995fed</dc:source><dc:creator>Gareth Monger</dc:creator><dc:license>http://creativecommons.org/licenses/by/3.0/</dc:license></metadata><switch><g><path d="M962.487 352.487s-6.924 1.824-11.123 2.605c-4.201.783-7.85-4.432-9.906-4.287-2.056.145-10.281.724-13.092 2.26-2.811 1.534-6.865 4.373-6.865 4.373s-2.809-7.098-7.326-7.387c-4.52-.291-11.24-2.492-14.686-3.101-3.447-.608-13.527 4.721-13.527 4.721s-9.875-7.329-13.09-6.373c-3.215.955-15.178 5.444-17.9 6.487-2.723 1.041-10.66 5.733-10.66 5.733s-3.59-2.665-8.023-3.447c-4.43-.781-12.02-6.69-16.711-5.996-4.693.694-11.035 2.114-11.035 2.114s-10.455-6.923-16.045-6.895c-5.592.029-13.123 5.299-16.598 7.732-3.477 2.434-8.516 5.098-8.516 5.098s-4.055-5.793-8.66-5.591c-4.605.202-6.662.347-6.662.347s-7.357-4.345-10.977-3.968c-3.621.376-15.467 1.331-15.467 1.331s-11.73-11.21-19.986-7.59c-8.254 3.62-19.521 12.801-19.521 12.801s-5.357-7.039-10.949-7.01c-5.59.029-11.846.955-11.846.955s-9.906-4.287-13.525-3.91c-3.621.376-8.227.578-8.227.578s-6.865-4.258-12.455-4.229c-5.59.027-19.84 3.098-21.608 7.354-1.767 4.259-4.837 7.271-4.837 7.271s-9.818-4.78-13.613-3.419c-3.794 1.36-15.09-3.68-21.433-2.261s-11.79 3.504-11.79 3.504-17.609-6.662-22.33-2.926c-4.722 3.736-17.409 15.205-17.409 15.205s-5.33-1.449-9.848-1.738c-4.519-.29-8.775-2.057-13.295-2.348-4.518-.289-11.383 4.084-11.383 4.084s-8.226-8.054-12.832-7.852c-4.605.204-22.447 9.238-22.447 9.238s-7.588-5.908-11.701-5.619c-4.113.29-15.292-8.283-19.667-6.518-4.374 1.767-10.368 1.217-10.368 1.217s-9.877-7.33-12.688-5.795c-2.809 1.535-8.66 3.041-9.586 5.416-.927 2.375-7.619 5.764-7.619 5.764s-12.482-9.819-16.017-9.936c-3.533-.116-17.406-10.689-19.231-8.98-1.825 1.709-21.926 14.916-21.926 14.916s-9.848-10.371-16.278-8.459c-6.429 1.912-11.383 4.084-11.383 4.084s-8.197-2.463-12.657-.204c-4.46 2.259-15.004 13.091-15.004 13.091s-23.171-1.043-31.339 2.084c-8.167 3.128-27.083 21.113-27.083 21.113s-19.32 17.407-19.929 29.485c-.609 12.077 3.473 40.723 9.092 46.285 5.619 5.561 17.001 10.109 20.767 11.789 3.766 1.681-18.305-11.354-15.235 2.896 3.07 14.251 5.618 22.824 14.278 19.784 8.661-3.041 8.631 0 12.426-1.361 3.795-1.36 6.835-1.332 6.835-1.332s6.691 5.243 3.678 10.804c-3.012 5.562-7.618 14.396-3.562 11.557 4.054-2.838 10.659-14.365 13.005-19.028 2.346-4.664 7.676-11.847 10.37-9.847 2.693 1.997 3.475 6.197 2.114 11.034-1.362 4.838-4.259 6.864-5.678 9.153-1.419 2.288-1.768 12.888 6.546 3.187 8.312-9.703 16.134-19.492 18.451-21.114 2.317-1.622 9.616.174 14.308-.521 4.692-.695 6.43-1.911 6.43-1.911s3.476 6.198-1.333 10.427c-4.809 4.229-17.293 11.671-11.79 12.135 5.504.464 24.62-4.285 29.516-9.006 4.896-4.72 10.775-9.268 13.845-12.28 3.07-3.012 4.982-5.213 4.982-5.213s30.008-8.919 34.786-10.106c4.779-1.188 6.373-4.46 6.373-4.46s27.428 11.442 41.794 13.47c14.366 2.028 37.451-5.065 37.451-5.065s17.32 11.181 26.676 12.832c9.354 1.651 23.635-4.459 23.635-4.459s8.515 3.534 15.438 1.709c6.923-1.823 10.398-4.257 10.398-4.257s5.822 1.536 9.037.58c3.215-.956.492 17.35.955 20.478.463 3.129-1.738 9.849-1.738 9.849l-4.953 2.172s1.592 5.357 7.009 6.314c5.417.956 21.434 2.26 26.879.176 5.445-2.086 10.167-5.821 6.98-7.907-3.186-2.086 4.258-6.864 7.676-11.846 3.417-4.981 10.747-14.858 10.747-14.858l16.22-2.723 18.305 2.725s8.833 21.868 12.279 22.477c3.447.608 5.244 1.941 5.244 1.941s7.152 8.371 5.908 9.675c-1.246 1.303-7.242.752-7.504 2.229-.26 1.478 19 16.048 28.066 13.586 9.066-2.461 23.867-11.525 22.332-14.336-1.535-2.81-5.502-.463-6.457-3.678l-.957-3.216s1.363-13.468 1.797-15.931c.434-2.462-1.883-9.471-1.883-9.471s11.412 1.506 17.176.493c5.764-1.014 13.729-.115 13.729-.115s11.615 14.743 12.629 20.508c1.012 5.764 4.43 9.413 4.43 9.413s-2.779-1.507-3.301 1.448c-.523 2.954-.203 4.026 8.166 5.504 8.371 1.478 19.58 7.01 24.91-.172 5.33-7.184 7.271-12.427 7.271-12.427l-3.766-1.68s4.432-16.48 4.721-20.999c.291-4.518.842-10.514.842-10.514s10.283-.724 14.887-.926c4.605-.202 12.744-.289 12.744-.289s4.258 27.661 5.443 32.439c1.189 4.78-4.285 1.274-4.633 3.245-.35 1.97-1.623 6.313 3.215 7.676 4.836 1.361 17 10.109 29.311 3.65 12.309-6.459 16.656-13.814 15.613-16.537-1.043-2.723-4.664-2.347-4.664-2.347s2.26-4.17 3.389-10.571c1.131-6.401 3.68-15.091 4.029-17.061l.781-4.431s10.021.753 11.615-2.52c1.594-3.273 1.854-4.751 1.854-4.751s13.004-1.765 24.186-1.823c11.18-.057 9.412 4.202 19.145.842 9.732-3.359 12.717-5.879 12.717-5.879s7.645-.174 13.322-.694 11.209 5.532 23.779 6.229c12.572.695 28.732-4.575 28.732-4.575s4.953 6.46 16.105 9.443c11.15 2.984 28.238 3.97 31.367 3.507 3.129-.464 9.412 4.2 9.412 4.2s-.346 1.97-.955 5.416c-.607 3.446-2.693 6.633 2.316 7.01 5.009.377 20.506-3.996 23.26-8.079 2.75-4.085 11.008-24.968 9.529-25.228-1.477-.261-7.791-1.883-8.545-.493-.752 1.39-8.602-3.043-8.166-5.505.434-2.461-2.664-22.302-2.057-25.748.609-3.446.061-6.083-4.893-12.542s-11.645-11.703-11.645-11.703-4.574-11.469-11.121-14.655c-6.545-3.187-12.57-9.327-12.57-9.327s-9.875-15.961-17.434-16.279c-7.561-.319-18.914.723-18.914.723s-14.912-13.294-20.82-14.336z"/><path d="M199.56.5s36.253 162.781 61.915 195.744c25.661 32.962 80.455 130.979 79.411 154.151M47.663 153.423s91.756 32.445 121.181 84.35c29.425 51.906 60.589 76.701 83.644 89.91 23.054 13.209 37.333 24.361 37.333 24.361M270.327 370.435s-131.378-66.857-178.184-72.073c-46.806-5.216-51.615-.987-82.721-14.602" fill="none" stroke="#000" stroke-linecap="round"/><path d="M240.667 377.385s-68.872-87.302-96.215-81.974c-27.342 5.327-88.11 15.925-108.327 15.402C15.909 310.291.5 305.54.5 305.54" fill="none" stroke="#000" stroke-linecap="round"/><path d="M226.822 381.034s-32.671-22.016-47.211-14.428M196.697 419.38s-17.609-15.295-35.394-12.341" fill="none" stroke="#000" stroke-width="3" stroke-linecap="round"/><path d="M366.723 313.323s18.767 31.746 19.288 46.055c.52 14.307 17.204 6.082 17.204 6.082s21.958-61.113 40.496-74.088M397.539 357.351s4.521-42.867-1.561-60.188M386.707 355.438s9.964-27.689 1.972-34.178M439.017 317.961s18.767 31.746 19.289 46.055c.52 14.308 17.204 6.083 17.204 6.083s21.958-61.113 40.496-74.088M469.833 361.988s4.521-42.866-1.56-60.187M459 360.077s9.966-27.689 1.972-34.178M518.747 316.896s25.289 26.842 28.944 40.686c3.655 13.843 18.122 2.149 18.122 2.149s7.979-64.446 23.208-81.181M558.492 353.067s-5.019-42.812-14.762-58.371M547.503 353.584s3.631-29.202-5.594-33.774M601.546 294.687s21.891 37.029 22.498 53.721c.606 16.689 20.068 7.096 20.068 7.096s25.613-71.286 47.236-86.42M637.491 346.042s5.273-50.002-1.82-70.206M624.855 343.812s11.624-32.297 2.3-39.865M682.081 305.709s27.557 33.03 30.838 49.407c3.279 16.375 20.945 3.778 20.945 3.778s13.826-74.475 32.738-92.886M725.809 350.622s-2.828-50.2-13.076-69.002M712.979 350.45s6.285-33.746-4.135-39.717M772.858 308.687s19.213 32.502 19.746 47.15c.533 14.648 17.611 6.229 17.611 6.229s22.482-62.567 41.459-75.851M804.405 353.761s4.629-43.885-1.596-61.619M793.315 351.804s10.201-28.348 2.018-34.99M854.545 309.402s17.873 30.235 18.369 43.864c.496 13.627 16.387 5.794 16.387 5.794s20.914-58.208 38.57-70.566M883.895 351.336s4.307-40.829-1.486-57.325M873.577 349.515s9.49-26.373 1.879-32.553" fill="none" stroke="#000" stroke-width="1.5" stroke-linecap="round"/><path d="M957.54 233.821s-56.307 8.337-67.025 28.786c-10.717 20.449-12.053 91.294-12.053 91.294M1022.708 261.572s-63.145 52.827-34.762 110.642" fill="none" stroke="#000" stroke-width="1.5" stroke-linecap="round"/><path d="M1071.721 139.23s-83.943 95.867-91.881 135.083c-7.939 39.217-20.223 85.792-20.223 85.792s203.57-192.544 204.674-221.798M813.413 262.197s-37.656 34.987-32.443 57.231c5.213 22.245 7.703 36.9 7.703 36.9" fill="none" stroke="#000" stroke-width="1.5" stroke-linecap="round"/><path d="M1080.225 349.915s-53.875 46.341-55.266 54.219c-1.391 7.878 18.885-14.945 56.654-27.57" fill="none" stroke="#000" stroke-width="2.857" stroke-linecap="round"/><path d="M1256.211 359.659s-209.99-12.699-250.078 18.811M1267.745 254.055s-135.264 29.941-163.244 50.39c-27.98 20.446-107.057 71.477-107.057 71.477s178.77-40.539 201.248-52.818M1098.528 395.797s-44.316 26.702-65.111 17.954c-20.797-8.749 70.148 22.537 92.801 9.273" fill="none" stroke="#000" stroke-linecap="round"/><path d="M1100.497 413.407s-27.344 22.59-63.605 15.174c-36.264-7.417.23 27.457 54.104 15.643" fill="none" stroke="#000" stroke-linecap="round"/><path d="M1223.362 424.942s-199.734-36.275-209.758-19.767c-10.023 16.51 73.164 16.978 96.104 7.825M1176.852 320.263s-131.383 36.719-157.742 59.482M101.862 519.418s66.854-62.328 98.135-66.96c31.282-4.633 32.323 6.721 32.323 6.721s6.895-16.046-25.896 25.894c-32.789 41.938-38.931 47.962-38.931 47.962M489.229 551.242s3.015-57.35 7.418-70.788c4.403-13.439-19.172-23.694-31.804 24.849M580.292 553.101s-12.105-23.461-10.309-39.392c1.796-15.931-22.419 6.196-30.588 35.219M320.716 533.68s12.342-52.655 16.166-74.321c3.824-21.665-4.753 49.935-23.754 59.781M412.416 537.682c-2.954-.521-14.867-67.614-10.617-79.049 4.25-11.435-.386 26.334-15.564 49.041M462.12 514.978s-14.075-23.81-7.181-39.855c6.895-16.046-16.451-16.105-17.438 35.509" fill="none" stroke="#000" stroke-linecap="round"/><path d="M503.569 487.261c8.314-18.334 23.088-67.515-11.325-10.631s-35.977 65.747-36.673 69.687M162.516 486.46s39.856-24.444 48.662-34.06c8.806-9.616-39.391-6.953-39.391-6.953M160.838 438.437l28.966-20.274 1.389 9.385-14.366 6.603M315.572 315.464s35.335 18.422 34.987 37.656c-.35 19.23-36.786 12.799-36.786 12.799L302.19 322.24" fill="none" stroke="#000" stroke-linecap="round"/><path d="M434.273 212.531s-45.655 132.074-41.195 147.078c4.46 15.004-131.671-1.919-172.915-21.385" fill="none" stroke="#000" stroke-width="1.5" stroke-linecap="round"/><path d="M175.556 378.076s24.968-14.888 38.059 8.749c13.091 23.637-9.443 24.734-9.443 24.734s-22.534-16.162-38.986-15.005M157.596 416.54s29.891 3.245 35.452 6.258M293.199 539.993s-16.564-55.729-15.347-62.622c1.217-6.893 49.297 2.609 49.297 2.609s9.904 30.182 12.279 39.74M522.598 517.529l-29.484-45.823 7.587 31.803M747.704 565.391s-30.697-73.455-25.656-84.751c5.039-11.295 21.777 60.71 34.695 68.068M672.686 570.426s-55.26-49.358-31.334-75.598c23.926-26.239 33.189 53.586 36.145 54.107M906.432 506.081s-51.438-53.761-32.611-62.623c18.828-8.861 9.152 22.94 38.578 40.32M962.797 491.661s-10.543-32.325-9.035-35.106c1.506-2.78-8.863 15.699 20.91 31.109" fill="none" stroke="#000" stroke-linecap="round"/></g></switch></svg>