<svg xmlns="http://www.w3.org/2000/svg" xmlns:dc="http://dublincore.org/documents/dcmi-terms/" height="701.481" version="1.2" viewBox="84.406 243.073 547.964 701.481" width="547.964" overflow="inherit"><metadata><dc:description>Silhouette of Ardeinae, processed by PhyloPic Tools (https://github.com/eweitz/phylopic-tools)</dc:description><dc:source>http://phylopic.org/image/870b2111-9eef-42e6-9e22-a8f67bbb444a</dc:source><dc:creator>L. Shyamal</dc:creator><dc:license>http://creativecommons.org/licenses/by-sa/3.0/</dc:license></metadata><path d="M203.47 289.023s6.766-11.9 22.731-23.246c15.965-11.346 21.649-20.202 41.132-22.14 19.484-1.937 31.008.877 49.791 12.177 13.802 8.302 17.636 23.27 23.813 40.958 8.706 24.931 7.342 33.63 4.33 54.242-3.084 21.108-18.464 20.382-28.143 30.995-9.566 10.489-16.236 19.926-16.236 33.21 0 13.283 7.306 18.818 16.236 19.925 8.93 1.106 9.47-8.025 19.484-15.497 10.012-7.472 11.093-13.838 20.565-18.818 9.47-4.982 11.094-6.089 23.814-5.535 12.717.553 15.965-1.384 36.8 9.962 20.836 11.346 20.566 9.132 46.543 35.423 25.979 26.29 28.955 29.611 57.37 69.738 28.412 40.127 56.284 90.772 56.284 90.772l28.142 76.378s14.342 21.864 20.565 36.532c6.225 14.667 6.767 13.006 4.33 22.139-2.436 9.133-1.894 13.283-14.07 14.39-12.177 1.107-17.862 2.213-45.463-14.39-27.6-16.605-40.318-33.209-64.944-52.027-24.626-18.818-22.73-18.818-22.73-18.818l-1.083 23.246-11.906 1.107-36.803-40.96s-18.4-12.453-36.802-26.566c-18.401-14.113-11.093-2.213-36.802-29.888-25.707-27.674-31.66-38.467-51.955-64.203-20.295-25.736-29.225-38.743-29.225-38.743s-15.696-27.122-21.648-53.136c-5.953-26.012-5.682-31.547-2.165-50.92 8.381-24.359 22.86-22.107 30.308-33.208 12.177-8.025 10.368-23.136 6.495-32.101-3.975-9.196-16.507-4.981-34.638-5.535-18.13-.554-40.05 1.107-40.05 1.107l-19.483 1.108 5.414-27.678z"/><path d="M85.805 349.581s-3.023-5.763 27.826-21.814c30.85-16.052 92.005-42.065 92.005-42.065l-3.247 13.284 18.401 2.214s-61.968 17.989-97.417 32.102c-35.449 14.112-37.568 16.28-37.568 16.28z"/><path d="M221.871 301.199l-19.22 8.207s3.834 6-12.17 10.611c-24.548 7.07-48.104 15.006-74.752 22.99-21.88 6.555-31.324 8.005-31.324 8.005s26.667-13.27 61.303-25.448c34.638-12.177 76.163-24.365 76.163-24.365zM471.91 688.636l3.245 43.171s-4.6 11.624-4.329 19.926c.27 8.3 9.74 16.603 9.74 16.603L441.6 916.67l-32.47 7.748s-16.237.552-25.979 5.535c-9.742 4.98-12.988 14.39-12.988 14.39l12.988-5.534 24.894-7.749 35.722-4.427 44.379 16.603s18.4-.277 8.658-5.535c-9.742-5.257-47.625-16.603-47.625-16.603l41.13-150.547s5.954-10.792 5.413-19.925c-.541-9.133-7.576-16.605-7.576-16.605l-8.66-49.813-7.577 4.428z"/><path d="M440.821 913.212l-.969 3.676-32.463 7.72s-16.26.553-26 5.534c-9.743 4.983-13.002 14.412-13.002 14.412l13.002-5.534 24.91-7.764 35.691-4.419 44.414 16.6s18.382-.275 8.639-5.534c-9.74-5.257-47.602-16.6-47.602-16.6l2.141-7.845-8.761-.246z"/></svg>