<svg xmlns="http://www.w3.org/2000/svg" xmlns:dc="http://dublincore.org/documents/dcmi-terms/" height="607.778" width="251.457"><metadata><dc:description>Silhouette of Aristolochiaceae, processed by PhyloPic Tools (https://github.com/eweitz/phylopic-tools)</dc:description><dc:source>http://phylopic.org/image/a9a232a9-8c88-4354-97ff-51b13d1c4c9c</dc:source><dc:creator>Alexander Schmidt-Lebuhn</dc:creator><dc:license>http://creativecommons.org/licenses/by-nc-sa/3.0/</dc:license></metadata><path d="M88.988 265.675c0 7.431 4.68 40.593 7.585 46.402 2.914 5.828-1.709 16.214 1.339 22.308 3.733 7.467 2.258 16.117 6.246 24.094 3.967 7.934-1.583 24.05 1.785 30.785 1.632 3.264.743 36.288-1.339 38.37-2.078 2.079-1.036 41.149-8.03 45.51-10.681-3.56-20.959-2.237-30.787 2.677-3.926 1.963-6.196 7.783-10.261 9.816-15.448 7.723-19.311 10.513-27.217 26.324-2.502 5.003-.497 13.933-2.677 18.292-2.268 4.537-1.905 15.056-3.123 15.17-.455 9.825-12.132 17.306-15.17 21.862-2.927 2.198-8.274 26.973-5.8 29.448 1.462 1.462 3.987 2.885 6.247 4.015 1.71.855 6.15 7.681 8.03 5.8 10.136-10.135 29.795-14.228 44.171-21.416 3.17-1.584 24.004 7.942 24.986 8.924 1.374 1.374 8.778.446 11.154.446 25.656 0 30.907-11.276 44.17-24.54 9.245-9.244-.736-48.788 2.678-52.201 6.384-6.385 2.429-22.953 9.37-29.894.269-.269 0-2.253 0-2.677 0-6.011.96-10.913 2.676-16.062 2.122-1.835 5.505-26.92 5.8-27.216 3.676-3.676.509-16.187 3.124-21.416 2.049-4.099 3.797-17.837 1.338-22.755-1.606-3.212 1.606-8.834 0-12.046-3.63-7.26-1.785-27.085-1.785-35.248 0-1.297-1.255-6.33-.446-7.138 2.776-2.776 4.169-14.284 5.354-16.062 8.453-2.113 20.723 4.262 27.663-2.677 2.425-2.426 2.71-7.173 5.354-9.816 8.03-8.03 11.925-14.035 16.508-23.2 3.93-7.86-.446-20.738-.446-28.556 0-37.538-2.805-63.292-13.385-95.034-4.16-12.477 17.975-64.376 24.985-71.387 2.703-2.702 4.715-14.084 7.585-16.954 2.084-2.084-.29-9.08 1.785-11.154 2.515-2.515 15.696-57.921 11.154-62.464-1.623-1.623-13.159-6.919-15.616-4.461-.836.836-8.98 1.84-12.939 5.8-4.853 4.853-4.18 22.472-9.37 27.662-2.04 2.042-13.097 15.042-14.723 18.293-.813 1.626-6.322 4.66-8.031 5.8-1.509 1.006-18.537 19.229-19.185 20.524-2.985 5.969-6.289 15.212-10.708 19.631-3.908 3.908-3.683 16.622-8.031 20.97-5.992 5.992-20.142 13.96-23.647 20.97-2.97 5.938-10.514 13.638-15.17 18.293-2.162 2.162-2.055 7.855-4.015 9.816-1.582 1.582-1.863 5.432-3.57 7.139-10.12 10.12-13.831 38.273-13.831 53.986 0 11.149-6.946 24.321-1.785 35.247z" stroke="#000" stroke-width="1.80698"/><path d="M98.358 204.996c-.19 1.424.216 12.033 3.123 17.847 1.532 3.064.198 7.088 1.785 10.262 1.361 2.724 1.3 8.885 3.123 10.708 5.809 5.81 8.679 13.587 14.723 19.632 12.221 12.22 33.395 19.494 41.494 35.693 1.806 3.611 25.81 16.13 29.001 12.939 7.9-7.9 14.757-19.731 18.293-30.34M96.127 470.02c.341 8.262-10.957 26.029-14.724 31.679" fill="none" stroke="#fff" stroke-width="1.80698"/></svg>