<svg xmlns="http://www.w3.org/2000/svg" xmlns:dc="http://dublincore.org/documents/dcmi-terms/" height="239.172" viewBox="0 0 381.16 239.172" width="381.16" overflow="visible"><metadata><dc:description>Silhouette of Armadillidium vulgare, processed by PhyloPic Tools (https://github.com/eweitz/phylopic-tools)</dc:description><dc:source>http://phylopic.org/image/d6600a83-dbe0-4bdf-9cc0-5e86caeb5e5c</dc:source><dc:creator>Gareth Monger</dc:creator><dc:license>http://creativecommons.org/licenses/by/3.0/</dc:license></metadata><switch><g><path d="M88.809 80.829s5.75-2.25 11-2.75 9.75 1 9.75 1l2.25.75s3-3 5-4.25 11.25-2.25 14.25-2.25 14.75-.75 14.75-.75 5.5-1.75 10.5-1.5 14.75 3.75 14.75 3.75l3.5-.25s-2-3.25 0-4 19.25-1 19.25-1 2.5-3.5 5.25-3.5 19 .25 19 .25-1.75-2.25 1-2.75 26.5-.75 26.5-.75 7.5-.25 13.75 1.5 9.25 2.75 9.25 2.75 8.5-.25 11.25 1 9.75 3 17.25 7.75 10.25 9.25 10.25 9.25 6.5 1.75 7.5 2.5 5.5 5.5 10 13.75 9.75 16.25 11 24.75.25 28.75-1 31-8 13.5-10.75 16.5-19.5 21.25-23.25 25.75-15.75 12.25-15.75 10.5.75-8.75.75-8.75-9.25 7.25-17.25 11.5-12.75 6.5-13.25 4.75 0-6.25 0-6.25l-2.5-1s-15.75 10.25-21 12-12.5 1-11.5-.5 1.5-4 1.5-4-8 0-10.5 2.25l-2.5 2.25s-10.5 3.5-13.5 3.5-4-2-4-4.25-7 .75-12 2.75-22.75 4.25-23.25 3.5-2.5-7.75-2.5-7.75-12.5 5.75-22.25 7-14.25-.5-14.25-.5l-.75-6s-9.75 4.25-15 4.25-19-6-21.25-8.25-16-10-17.75-10.25-7.25-1.5-8.25-3.5-6.25-6.25-9-9.75-5.25-7-5.25-7-4.5-5-6.25-9.25-3.5-18.75-3.5-18.75v-8.25c0-2 0-11.25 1.25-12.5s3.75-9.25 4-10.75 3-6.5 5.25-7.75 4.25-6.5 7-9.5 3.25-2.5 4.75-4 7.5-9.75 10.5-11.25 11.25-4.5 11.25-4.5 6.75-6.25 14.75-8.5z"/><path d="M316.476 99.496l9.666-4.333s2.334-6 3.667-8c1.333-2 1.334-16.333 2.667-17 1.333-.667 4.999-11.333 3.666-16.333-1.333-5-2.333-16-2.333-17s-.667-13-.667-15.333.666-14 2-14.333c1.334-.333 5.333-10 5-6.333-.333 3.667-1.333 15.333-1.333 18s-.667 16-.667 16 2.001 2.333 2.334 6.333c.333 4 1.334 16.333 1 19-.334 2.667-1.667 8-1.667 8s1 6 1 9-5 9.333-5 9.333 1.999 5 1.333 7.667c-.666 2.667-3.333 4.667-3.333 4.667l-3 12.667-14.333-12.002zM331.809 136.829s14.666 3 16.333 2.667c1.667-.333 7.668 4 9.334 4 1.666 0 5.333 4 5.333 4l2 6c.667 2 .667 8.333 1 10 .333 1.667-.334 7.667.333 9.667s3 4.333 4 8.333.333 8.334 2 11.667 1.668 7.334 3.334 9c1.666 1.666 5.999 7.332 5.666 3.666-.333-3.666-4.333-6.666-4.333-8.333 0-1.667 0-6.333-2-8.333s-.334-2.666-.667-6-2.333-7-2.333-7 2.333-.001 2.333-2.334.667-6.667-.333-8c-1-1.333-.667-5.666-.667-5.666l-1.333-2s.667-9.334-1.333-11.334-9-9.666-9-9.666-2.334-1.334-6.334-2.667c-4-1.333-13-2.667-13-2.667h-8.333l-2 5zM.269 75.941c0-.805 1.743-1.609 3.62-1.073 1.878.536 3.219 2.279 4.962 2.682 1.743.403 4.961.403 5.497 1.877.536 1.474 6.704 7.375 7.375 8.447.67 1.073 3.352 1.341 5.229 2.816 1.877 1.475 6.034 7.375 7.106 7.375 1.073 0 3.352-.804 4.559.67 1.207 1.474 6.035 4.961 6.839 5.631.805.67 5.632 2.548 5.632 2.548l-2.815 4.827s-13.946-5.096-14.75-6.034c-.805-.938-2.146-2.414-2.146-2.414s-7.777-7.643-9.521-8.447c-1.744-.804-5.363-2.28-5.899-3.621-.536-1.341-4.961-5.229-5.096-6.57-.134-1.341-1.341-3.62-2.95-4.559-1.608-.939-7.776-2.548-7.776-2.95v-.402L0 76.075M82.619 87.957s-4.836-7.523-3.582-9.493c1.254-1.97-3.941-3.225-3.225-4.836.716-1.611 4.837-2.149 5.732 0 .895 2.149 2.687 1.075 4.478 3.583s1.791 5.731 1.791 5.731l-5.194 5.015zM141.189 73.985s-1.075-5.911.717-5.731c1.791.179 2.866 5.731 2.866 5.731h-3.583zM188.654 71.478l-.896-5.911s-.717-3.045 0-4.12c.717-1.075 3.583-.716 3.762 2.329.18 3.045 1.791 5.911 1.791 5.911l-4.657 1.791zM134.025 223.366s-1.075 11.464-1.792 13.255c-.716 1.791-3.224 3.761-2.687 1.611.538-2.149.717-14.149.717-14.149l3.762-.717zM101.964 224.261s-1.791 7.882-11.105 7.523c-9.313-.358 5.374-2.328 6.09-4.299.717-1.971-1.433-5.374-1.433-5.374l6.448 2.15zM35.574 222.674c.022.805 1.788 1.56 3.648.971 1.862-.588 3.154-2.368 4.885-2.819 1.731-.451 4.948-.542 5.442-2.03.495-1.489 6.495-7.56 7.135-8.65.64-1.091 3.313-1.435 5.149-2.962 1.835-1.526 5.825-7.541 6.896-7.57 1.073-.03 3.373.71 4.539-.798 1.165-1.508 5.894-5.128 6.678-5.821.786-.692 5.559-2.704 5.559-2.704l-2.949-4.746s-13.799 5.483-14.575 6.444c-.778.961-2.077 2.473-2.077 2.473s-7.561 7.857-9.28 8.711c-1.72.853-5.297 2.429-5.796 3.784-.499 1.355-4.812 5.366-4.91 6.71-.096 1.344-1.239 3.655-2.822 4.64-1.582.983-7.702 2.765-7.69 3.167l.011.402-.116.673M314.325 209.343c-.089.8-1.91 1.406-3.716.666-1.808-.739-2.948-2.62-4.637-3.212-1.688-.592-4.886-.948-5.257-2.472-.37-1.525-5.85-8.068-6.398-9.209-.547-1.14-3.184-1.703-4.887-3.375-1.703-1.674-5.185-7.996-6.25-8.113-1.066-.119-3.42.43-4.457-1.17-1.037-1.598-5.451-5.596-6.176-6.351-.727-.755-5.318-3.153-5.318-3.153l3.33-4.486s13.301 6.602 13.996 7.623a146.58 146.58 0 0 0 1.865 2.635s6.889 8.454 8.531 9.445c1.645.992 5.08 2.857 5.466 4.249.385 1.392 4.354 5.745 4.34 7.093-.016 1.347.934 3.744 2.43 4.855 1.496 1.109 7.447 3.39 7.404 3.789l-.045.4.061.681M278.515 43.676c-.561-.578-2.373.062-3.342 1.754-.973 1.693-.719 3.877-1.689 5.382-.967 1.504-3.273 3.748-2.63 5.178.645 1.432.338 9.961.604 11.198.268 1.236-1.467 3.299-1.785 5.666-.316 2.366.818 9.494.049 10.241-.77.749-2.963 1.76-2.801 3.659.164 1.899-.866 7.764-.975 8.805-.109 1.042-2.26 5.753-2.26 5.753l5.384 1.497s6.444-13.377 6.364-14.609c-.078-1.234-.145-3.227-.145-3.227s.246-10.901.934-12.694c.689-1.792 2.256-5.374 1.705-6.708-.552-1.335-.092-7.208-.93-8.263-.84-1.053-1.562-3.529-1.064-5.324s3.797-7.249 3.517-7.537l-.28-.29-.369-.573"/></g></switch></svg>