<svg xmlns="http://www.w3.org/2000/svg" xmlns:dc="http://dublincore.org/documents/dcmi-terms/" height="268.981" width="487.543"><metadata><dc:description>Silhouette of Arsinoitherium, processed by PhyloPic Tools (https://github.com/eweitz/phylopic-tools)</dc:description><dc:source>http://phylopic.org/image/8bf1525c-abc7-4971-90c2-5b3c20b91aed</dc:source><dc:creator>Zimices</dc:creator><dc:license>http://creativecommons.org/licenses/by-nc/3.0/</dc:license></metadata><path d="M206.869 268.43c-1.25-.522-2.515-1.58-2.811-2.352-.413-1.075-1.995-1.287-6.757-.905-6.768.544-8.19-.22-8.814-4.739-.235-1.697-1.069-2.603-2.598-2.82-2.904-.412-4.549-3.535-3.758-7.135.84-3.827 3.506-6.033 8.689-7.19 6.02-1.346 11.903-7.965 16.271-18.305l3.4-8.05.257-18.5c.19-13.725-.113-19.778-1.175-23.452-1.368-4.732-1.921-5.284-12.399-12.371-6.031-4.08-12.725-8.04-14.875-8.798-2.87-1.012-9.524-1.365-25.034-1.328-22.824.055-36.981 1.016-51.124 3.47-4.95.858-12.049 1.828-15.775 2.156-3.726.327-7.015.984-7.31 1.46-.293.474-4.756.863-9.917.863-8.395 0-9.54-.221-10.853-2.097-1.332-1.9-1.787-1.981-4.888-.86-2.799 1.012-4.209.973-7.777-.216-7.215-2.405-8.425-4.998-8.813-18.887-.246-8.794.072-13.17 1.213-16.68.85-2.618 1.841-7.084 2.2-9.923l.655-5.164-3.939-2.486c-6.153-3.885-15.73-12.65-20.419-18.687-2.349-3.025-6.095-7.586-8.324-10.136C8.233 70.766 1.343 60.498.156 57.356c-.328-.867-.12-2.828.46-4.358.974-2.56 1.355-2.726 4.791-2.09 2.054.38 5.984 2.156 8.734 3.946s7.25 4.02 10 4.955c5.436 1.847 30.944 9.069 39 11.04 2.75.674 5.937 1.731 7.083 2.35 1.145.62 5.985 1.234 10.753 1.365 7.866.217 8.866.03 10.764-2.007 3.02-3.24 6.414-4.302 9.404-2.94 1.373.626 2.496 1.516 2.496 1.978 0 1.447 2.082.92 4.795-1.214 2.287-1.799 3.857-2.029 12.658-1.854l10.047.2 3.144-5.897c3.502-6.566 6.796-7.905 8.928-3.628.621 1.247 1.377 2.515 1.68 2.817.911.911 10.07-4.194 12.748-7.106 1.375-1.495 6.662-4.714 11.75-7.151 8.31-3.983 10.522-5.693 21.792-16.85 18.295-18.11 25.056-20.838 50.402-20.335 14.461.287 26.128-1.472 55.556-8.376 7.976-1.872 12.187-2.12 37-2.19 25.554-.07 29.005.127 39.5 2.254 17.322 3.512 21.274 4.801 36.5 11.91 19.027 8.882 32.803 19.892 37.553 30.013 1.225 2.61 4.108 7.221 6.405 10.246 5.317 7.001 10.688 17.689 14.19 28.234 2.676 8.06 2.754 8.95 3.12 35.766l.375 27.5 2.948 2.338c3.375 2.676 5.38 6.15 8.466 14.662 1.196 3.3 2.758 7.396 3.472 9.103 1.865 4.458.773 6.397-3.603 6.397-5.73 0-11.565-5.844-17.734-17.762-4.082-7.885-5.676-15.45-5.837-27.698l-.145-11.04-.825 12.95c-.81 12.73-2.154 18.745-6.777 30.337-1.436 3.602-2.108 7.506-2.108 12.25 0 7.128 4.447 32.53 8.045 45.963 2.6 9.705 4.952 23.355 4.954 28.75.002 6.677-5.88 11.146-15.31 11.633-2.854.147-6.165.882-7.358 1.632-1.87 1.177-2.93 1.106-7.691-.512-4.528-1.54-5.992-1.663-8.128-.69-4.307 1.962-8.273 1.481-10.041-1.218-.867-1.322-2.664-2.678-3.995-3.012-3.53-.886-4.848-3.925-3.489-8.044.61-1.849 1.763-3.613 2.561-3.92 2.98-1.143 1.302-2.619-2.976-2.619-4.46 0-7.572-1.834-7.572-4.464 0-.727-.675-1.581-1.5-1.898-2.594-.995-1.835-6.232 1.25-8.634 1.513-1.178 4.213-3.974 6-6.213l3.25-4.072v-25.095l-6.917-9.083c-3.804-4.995-7.494-10.348-8.199-11.896-1.404-3.083-1.427-3.083-15.884-.58-24.407 4.224-26.044 4.332-71.5 4.705l-45 .37-3.256 11.18c-3.05 10.475-3.297 12.488-3.906 31.923-.552 17.575-.93 21.202-2.48 23.75-1.475 2.425-2.508 3.007-5.343 3.007-3.166 0-3.515.273-3.52 2.75-.003 1.513-.486 4.477-1.072 6.588-.913 3.289-1.815 4.181-6.302 6.235-2.88 1.319-8.586 2.825-12.679 3.347-4.093.523-8.567 1.191-9.942 1.486-1.375.295-3.522.11-4.772-.41z"/></svg>