<svg xmlns="http://www.w3.org/2000/svg" xmlns:dc="http://dublincore.org/documents/dcmi-terms/" height="457.826" version="1.2" viewBox="0 0 557.031 457.826" width="557.031" overflow="inherit"><metadata><dc:description>Silhouette of Arthropoda, processed by PhyloPic Tools (https://github.com/eweitz/phylopic-tools)</dc:description><dc:source>http://phylopic.org/image/949c0ec2-97ae-4037-b2c5-991fb62c26e4</dc:source><dc:creator>Ghedoghedo (vectorized by T. Michael Keesey)</dc:creator><dc:license>http://creativecommons.org/licenses/by-sa/3.0/</dc:license></metadata><path d="M557.031 68.826h-1c-.139 6.528-3.849 9.485-6 14-18.705 2.695-34.932-4.909-50-8-4.187 3.82-6.276 4.762-12 4-6.229 3.292-7.113 10.728-12 13-3.823 12.301-2.512 24.381-3 37-3.146-1.146-2.43 1.57-4 2-.77 9.769 2.945 16.079-1 23-.729-2.271 1.802-7.802-2-7-5.044 8.806-1.319 20.454-4 29-3.303-.364-6.176-1.158-5-6-3.029 1.304-4.46 4.206-8 5 2.053 12.454 2.942 26.975-3 35 .384-3.761-4.383-5.562-3-13-5.752 2.924-1.904-.627-7-2-10.314 7.79 6.324 14.019 4 24-8.542-.041-7.15 11.153-8 16-3.409-1.714-3.978-4.048-4-7-3.21-.877-2.073 2.594-4 3-.591-4.258.719-6.614 1-10-2.494-1.922-4.109 1.526-6-1 .247-2.085 2.642-6.165-1-7-5.31.024 1.569 12.236-5 11 .314-2.104 2.844-5.969-2-5-7.812 7.08 1.803 18.279 0 27-8.87 1.472-2.53 11.755-8 15-1.55-2.276-2.083-1.889-5-1 .239-4.095 3.034-5.633 3-10-4.537-1.101-4.062-6.818-8-6 1.529-3.181.351-4.399 0-8-5.457-.457-7.743 2.257-10 5 4.59 9.283 2.85 14.178 4 28-4.636-3.905-3.688 4.456-7 5-2.934-.85 1.301-2.517 0-5-3.538-.538-4.383 1.617-6 3-1.178-4.283.074-4.077 1-8-1.964-2.707-4.998 3.51-6-1 4.155-4.234-.922-5.773 0-12-3.602.731-5.051 3.615-10 3 1.72 6.613 3.646 13.021 5 20-6.174.179-2.977 3.425-3 8-7.276-1.609-3.462 7.871-6 11-2.695-2.493 2.604-8.415-2-9-3.982-.649-.768 5.899-5 5 .135-4.865 3.256-6.744 3-12-3.869-1.108-3.558 3.535-6 1 .777-2.223 2.101-3.899 2-7-6.379 4.455.17-8.402-5-8-5.801.566-9.155 7.485-6 16-2.036 2.631-6.113 3.221-10 4 3.117 11.991-2.522 22.421-4 33-.622 2.711-4.178 2.488-4 6-4.039 16.877-17.985 31.832-35 39-17.997 12.83-37.152 33.082-43 59-3.306 14.651 5.365 26.619 11 38-7.929-2.071-10.437-9.563-15-15-4.752-23.165-.34-44.658 8-56 15.364-20.894 42.78-37.76 61-57 1.541-10.721 14.354-24.995 6-40-18.211 18.848-47.807 1.024-65-5-17.665-6.189-33.49-13.176-50-20-22.025-9.104-37.639-20.343-54-33-5.451-10.416-20.311-14.476-19-31 4.056-4.611 2.704-14.629 5-21-25.611 7.398-24.575 31.986-42 45 .256 3.923-3.617 3.717-3 8-17.213 17.815-50.341 25.053-76 18-.956-7.433-6.586-7.942-7-15-.816-13.921 14.802-24.414 26-24-11.723 6.567-18.509 13.132-19 28 13.77 13.725 38.367 3.266 54-1 4.671-5.408 16.146-10.654 20-20-.055 1.278-1.282 1.385-1 3 18.491-11.691 20.229-50.524 52-51 3.343-1.657 3.994-6.006 8-7 1.576.09.783 2.55 3 2 4.107-4.119 5.055-5.463 6-12 10.035-5.429 22.05-9.796 23-19 11.055-.125 9.725-10.607 19-8 3.214-12.521 16.89-9.735 22-19 4.382-1.812 5.726-.008 8-5 12.646-1.061 24.512-7.725 31-13 3.478 2.396 6.903-4.77 11-2 1.809-2.524 5.173-3.494 7-6 6.278.278 8.479-3.521 13-5 27.618-2.606 47.904-21.268 82-16 3.391.524 5.855 3.188 9 4 8.571 2.213 29.685-1.59 36-5 1.947-1.051 2.306-3.756 4-5 3.562-2.614 8.239-1.99 12-4 4.826-2.579 7.848-8.978 14-11 3.535 1.696 3.516-.007 8 0 6.363-9.187 2.034-23.242 7-33 16.559-15.093 22.639-1.689 36 7 10.267 6.676 23.098 9.848 27 19 13.84 6.827 28.221 13.112 34 28 3.948-1.281 2.42 2.914 5 3v5z" fill-rule="evenodd"/></svg>