<svg xmlns="http://www.w3.org/2000/svg" width="491.976" height="605.391" viewBox="0 0 491.976 605.391"><path d="M154.706 322.586l-18.574-20.917c-5.68-7.03-7.308-16.628-8.57-25.295-3.415-23.448 1.217-43.749 9.472-65.51 3.414-9 5.885-15.685 2.255-24.977-3.467-8.874-7.601-17.587-9.489-26.95-2.224-11.028 3.021-23.707 4.963-34.69 2.025-11.45 8.196-20.259 15.667-28.667-11.03-4.625-13.549-7.241-14.333-19.667-.461-7.301-1.703-22.193 4.556-27.062 3.309-2.574 15.77 12.463 19.751 16.406 2.231 2.209 4.806 4.029 7.002 6.224 2.495 2.494 2.448 4.506 2.448 6.602 0 4.351-.466 6.042 4.86 5.201 2.93-.462 5.893-2.205 8.695-3.152 12.188-4.12 29.601-2.881 42.256-1.391 3.708.437 6.845-7.116 7.149-10.222.544-5.571 10.254-12.129 15.283-15.272 33.266-20.787 10.859 42.029 4.604 39.683 2.204.827 4.354.403 6.223 1.898 12.579 10.063 14.719 28.773 17.792 43.582.79 3.807 3.703 6.794 3.83 10.804.127 3.969-.17 7.935-.1 11.9.14 7.896-5.377 16.917-3.549 24.611 4.527 19.054 19.338 27.998 32.779 41.744 9.362 9.574 16.285 25.048 21.691 37.149 6.334 14.175 6.905 31.051 9.41 46.126 2.865 17.246 6.844 35.249 12.237 51.917 5.994 18.528 12.45 36.116 14.36 55.561.828 8.434 2.612 16.806 2.195 25.291-.481 9.785 1.682 21.13-12.475 13.401 2.152 4.447 4.131 15.134 7.948 18.151 4.929 3.896 8.063 7.694 11.628 12.977 4.32 6.404 7.025 14.732 11.855 20.6 4.903 5.956 9.74 14.015 10.235 21.938.631 10.104-4.864 9.304-12.667 5 1.468 6.278.059 15.713-9.333 11.666-2.406-1.037-4.196-5.589-6.539-7.285-3.125-2.264-6.249-4.554-9.256-6.974-14.076-11.326-5.602 6.492-16.736 6.69-7.412.133-16.453-11.819-22.803-15.765 0 11.255 1.557 20.128-7.583 28.021-2.278 1.967-10.252.646-13.375.646-5.574 0-8.043-8.036-10.042-12-4.7 12.397-14.997-4.079-18-9.334-5.857-10.252-4.441-24.926-6.079-36.384-2.55-17.836-4.357-35.816-6.557-53.704-2.385-19.39-17.647-30.707-31.443-42.63-6.021-5.203-17.241-5.423-24.867-7.191-6.541-1.517-3.853-6.991-12.137-2.257-2.63 1.503-5.546 2.781-7.875 4.5.181-4.498 3.238-7.309 6.851-9.555-3.127-.789-6.264-2.836-9.601-2.523-2.757.259-5.479 2.401-8.125 1.078-2.954-1.477-3.43-3.344-6.25-.367-1.235 1.305-3.4 8.255-4.125 8.617a4.157 4.157 0 0 1-1.25 0c-1.19-15.573 12.884-19.813 25.57-19.657-5.323-9.226-10.63-18.46-16.112-27.593-.967-1.614-15.701-21.085-15.72-20.993" stroke="#000" stroke-miterlimit="10"/></svg>