<svg xmlns="http://www.w3.org/2000/svg" xmlns:dc="http://dublincore.org/documents/dcmi-terms/" height="226.277" version="1.2" viewBox="0 0 712.307 226.277" width="712.307" overflow="inherit"><metadata><dc:description>Silhouette of Askeptosaurus brevis, processed by PhyloPic Tools (https://github.com/eweitz/phylopic-tools)</dc:description><dc:source>http://phylopic.org/image/3f653f44-f60e-47e6-860c-790045020a70</dc:source><dc:creator>Nobu Tamura (vectorized by T. Michael Keesey)</dc:creator><dc:license>http://creativecommons.org/licenses/by/3.0/</dc:license></metadata><path d="M316.243 62.599c-15.371-17.675 7.005-31.108 30.659-33.764 9.405-1.056 17.242 2.98 28.271-.866 19.941-6.955 23.99-32.936 45.011-27.129-.988 3.339-7.878 2.528-6.852 7.284 2.27 4.559 9.188 2.507 12.21 5.993-1.375 3.465-7.002-1.072-8.694 2.53-2.255 3.187 1.603 3.961 2.187 6.724-4.62.497-8.526 1.496-10.493 3.859-1.001 3.997 5.364 3.688 3 5.567-16.62.95-41.494 18.111-60.005 22.637-1.694 4.27 3.738 7.341 5.829 10.15 20.271-.027 37.541 2.125 55.214-3.53 19.278-6.17 34.874-22.287 53.063-27.518 17.269-4.966 31.572-9.055 52.855-11.24 21.283-2.185 38.475-3.699 61.64-1.605 6.463.583 13.254 2.428 19.919 3.634 10.971 1.985 18.785 3.558 28.488 6.202 10.047 2.738 12.93 7.156 23.091 10.188 2.225.934 22.499 10.975 32.175 15.71 13.007 6.365 26.801 11.006 28.495 29.547-23.527 1.378-47.293-4.812-72.395-7.687-23.968-2.746-50.03-9.09-74.364-7.343-14.147 1.016-29.516 5.822-43.861 4.598-14.334-1.224-22.405-6.901-34.57-6.157-14.647.896-29.519 6.133-43.004 9.524-7.433 1.869-15.419 3.851-22.315 5.918-23.078 6.919-39.835 23.495-62.571 31.205-19.496 6.611-34.277 6.707-42.914 21.689 15.111 31.606 23.818 27.314 5.673 55.855 1.429 15.177 9.247 21.269 16.972 27.494-3.925 4.296-7.908-1.824-12.337-.896-2.744 1.341 1.713 2.256.858 4.926-4.968 1.204-6.659-4.146-10.367-1.238-18.593-23.492-17.217-34.873-8.068-46.303-7.345-15.652-23.875-27.608-22.547-47.84-29.682 4.687-58.119 9.372-84.939 7.695-.888 17.722 10.65 28.236 22.756 31.562-1.507.557-4.701 6.584.045 6.083-22.705 13.207-35.759-15.3-45.288-32.712-10.079-5.745-21.394-9.733-29.562-18.195-26.749.519-52.256-18.832-80.409-24.561-4.563-.928-9.74.188-14.308-.552-12.167-1.97-25.003-11.501-36.63-17.979C10.372 77.72-1.311 74.706.12 65.916c7.821-9.187 52.931-7.828 66.737-1.479 18.775 8.636 31.786 20.676 59.975 17.971 10.854-1.041 39.235-7.852 39.235-7.852s13.557-10.861 22.099-12.986c10.352-2.576 28.786 2.089 28.786 2.089s35.079-3.76 52.086-4c16.359-.232 31.618 1.673 47.205 2.94z" fill-rule="evenodd"/></svg>