<svg xmlns="http://www.w3.org/2000/svg" width="3794.513" height="1766.566"><path d="M790.657 1761.375c-20.267-36.213-57.457-43.94-86.506-75.039-20.266-23.747-38.411-63.104-63.298-16.387-44.15 5.507-80.466 37.93-126.947 43.554-29.348 22.865-116.014-3.641-66.394-39.167 3.68-32.808 92.76-46.07 50.727-77.5-37.818 15.772-91.279 10.134-129.194 38.66-20.818 16.26-89.316 75.203-87.402 42.965 16.017 37.742-97.518-39.088-80.492-19.438-68.002-35.883-58.796 50.658-64.583 94.063-27.058 19.606-57.286-100.662-49.829-74.75-12.923-62.888 8.707-125.531 22.914-180.783 5.899-55.176 86.556-97.638 58.163-162.217-48.465-93.67-92.853 180.027-70.577 73.248-30.338 36.514-31.739-76.34-27.985-73.406-15.022-45.756 31.486-143.908 35.369-111.842 13.955-61.489-24.923-73.271-90.947-81.166-43.38-59.4 24.982-111.947 85.79-102.909 61.938-17.15 100.426-72.813 164.592-88.425 48.883-16.259 63.664-44.05 61.53-90-27.89-36.89-60.178-46.22-105.438-53.664-27.53 29.434-43.776-31.48-11.45-35.9 41.958-19.563 108.315-25.493 150.516-4.45 44.89-14.677-61.071-123.602 43.646-105.486 42.717-8.608 93.841 49.11 129.28 6.627 57.502 7.038 86.386 14.021 65.097-53.852 5.216-64.976 17.922-136.216 24-121.952-43.365-49.521-85.074-93.222-115.307-149.208-85.59 11.313-4.772-50.408 31.707-24.115 36.387 33.498 114.42 42.946 88.005 38.84 29.474 28.733 61.664 5.179 88.04 48.215 37.026 45.766 73.208-23.192 104.29 18.565 21.092 46.712 98.362 29.658 75.292-34.148 6.64-25.965 12.921-90.127 9.974-107.972 38.869-4.338 55.462 103.876 78.5 39.568 7.896-37.736 55.58-81.124 59.5-12.612 18.32 49.432 41.367 20.924 81.108-3.565 42.66-17.752 85.97-40.152 79.892-96.562-13.127-48.366 45.868-63.114 34.611-123.69 58.198 11.993 12.3-86.375 62.577-85.469 49.125 10.066 19.483 89.776 54.256 117.886 30.046 29.479 73.2 42.4 105.331 67.751 128.004-52.835 9.42-58.322 173.95-33.113 46.8 29.815-11.266 77.917 51.848 61.268 59.557-23.389 49.505-120.54 51.537-103.692-7.096-33.696-41.097-69.881-20.555-107.77 24.676 32.394 60.358 49.896 88.047 79.06 37.9-.785 41.008 58.12 76.287 75.94 20.587 33.455 65.527 48.288 89.715 80 72.533-98.847 34.1 63.251 100.667 48.198 42.588-9.217 74.92 32.933 115.762-.235 41.193-8.25 72.395-41.702 102.37-67.379 20.533-64.874 50.435 25.045 91.18-16.978 75.697-4.096 46.494-34.463 97.417-14.975 50.643 27.358-9.147 130.905-4.28 96.542 54.653 20.6 79.125 2.934 86.685 85.268 34.888 27.699 39.786 91.684 95.032 93.989 50.107-28.39 70.252 49.39 127.382 12.556 24.007-13.519 79.954-13.713 75.18 28.014-6.71 12.025 59.056 19.094 44.574 44.5 64.962-14.203 16.663 76.016 86.316 39.5 24.197 24.382 66.426-1.583 97.617 32.406 41.357-23.401 69.978 10.923 112.673 13.575 2.709 41.822 62.758 56.225 47.409 94.437-33.98 33.58 49.439 53.356 27.647 95.435 19.21 8.53 72.174 38.021 93.98 41.876-.549 21.098 52.22 81.682 102.285 47.148 59.97 7.743 37.969 52.642 83.5 74.134 21.78 29.525-7.792 61.931 9.399 103.194-25.275 14.28-72.743 28.074-44.424 73.795 23.771 35.745 53.388 36.43 61.274 92.55 19.328 26.637 61.279 39.891 50.353 71.865-20.45 25.403 18.823 83.897 29.434 98.628 23.08 30.393 60.038 59.06 94.674 82.957 50.681 28.312 48.477 52.448 22.79 96.5-46.907 2.897-91.16-54.007-108.12-53.014-36.44-11.262-100.07-35.875-123.38-27.419-51.75 4.725-47.66 77.503-11.415 105.414 49.587 37.772 56.447 95.95-17.224 65.365-55.181-12.953-130.614-51.508-170.02 15.1-30.847 21.926-79.813 49.463-86.607-2.71-29.551-21.24-56.533-30.833-94.734-36.947-12.574-46.731-45.037-113.567-108-81.789-34.38 15.955-83.964 2.133-96.052-38.526-23.295-39.975-78.852-38.64-91.945 8.032-23.702-3.64-46.695 29.107-68.003 53.03-40.306 16.604-17.105-79.812-60.014-82.211-35.836-9.336-74.993-34.201-87.961-74.824-15.034-25.494-59.936-46.585-44.025-83.04 10.19-43.27-80.72-70.84-59.037-41.98-43.225 10.825-89.954-3.02-75.848-32.275 5.794 56.854-78.314-47-67.762-33.01-.34-52.728-43.207-119.224-25.707-106.774-42.007-5.295-54.033 56.666-100.481 17.487-59.503-24.212 12.497 28.524-64.216-40.748-8.43-48.262-99.664-59.887-77.447-38.66-49.227-53.247-144.683-63.656-127.753-48.148-35.45-29.487-121.284-8.097-96.16-23.852-40.796-89.99-70.726 59.98-61.59 31.422 5.713 36.754-8.606 77.776 9.669 110.37 5.257 33.992-16.544 41.756-55.242 2.207-28.622-45.351-101.485-28.159-131.044-75.612-24.488-36.002-77.546-44.05-50.595 3.497 21.86 25.577 72.222 12.255 47.04 62.925-29.807 64.522-128.642 7.208-178.556 36.513-8.035 45.737-66.177 138.358-54.945 94.972-13.15 60.07-79.048-21.9-117.909 33.294-65.06 7.557 10.074 74.8-62.877 67.797-11.907 22.767 89.708 43.396 62.46 74.696-80.978-25.368-26.296 101.018-104.686 60.862-47.081-5.375-64.915-33.028-114.535-48.287-26.072 38.523-45.315 13.259-77.192-5.155-22.883 22.66-126.436 60.716-89.052 65.499-55.557-30.836-46.071 51.68-31.669 44-70.197-4.52-89.019 62.482-84.784 139.368-.706 11.208-3.085 60.828-28.665 39.67zm94.382-165.309c-.499-13.676 6.567 7.98 0 0z"/></svg>