<svg xmlns="http://www.w3.org/2000/svg" xmlns:dc="http://dublincore.org/documents/dcmi-terms/" height="692.808" viewBox="0 0 747.695 692.808" width="747.695" overflow="visible"><metadata><dc:description>Silhouette of Aurornis xui, processed by PhyloPic Tools (https://github.com/eweitz/phylopic-tools)</dc:description><dc:source>http://phylopic.org/image/b1cb08ee-062d-4101-b945-014e654f4316</dc:source><dc:creator>Gareth Monger</dc:creator><dc:license>http://creativecommons.org/licenses/by/3.0/</dc:license></metadata><switch><g><path d="M647.084 256.639c-.065-2.434-74.496 1.331-74.496 1.331s-3.753.602-1.963-1.048c1.791-1.649 1.81-8.423 1.81-8.423s-1.849.75-1.856-.784c-.007-1.534 4.963-12.777 4.963-12.777s-2.483.701-1.807-1.419c.676-2.12 9.871-15.077 9.871-15.077l-2.533 1.335s.363-1.377 1.147-3.233c.784-1.855 10.315-10.952 10.315-10.952s1.512-4.611 4.086-8.116c2.576-3.506 19.752-7.402 21.814-7.625 2.062-.223 11.047-2.331 11.047-2.331s-7.037.089-3.34-1.412c3.695-1.5 19.074-5.282 17.432-5.538-1.641-.257-2.185-3.111 2.584-1.972 4.768 1.14 14.973-.234 14.437-1.555-.536-1.321-5.312-3.994-.544-2.854 4.769 1.141 17.083 8.75 15.062 6.803-2.021-1.947-3.142-3.953 1.32-.536 4.461 3.417 7.183 7.848 10.795 10.687 3.613 2.838 5.565 12.194 8.691 13.078 3.127.884 18.387 5.146 23.369 6.812 4.982 1.668 17.875 8.429 17.875 8.429 8.537 3.607 10.531 10.793 10.531 10.793s-.562 3.919-1.775 4.719c-1.213.8-2.162 1.493-3.217 1.922-1.057.428-21.467 3.177-27.969 4.586-6.501 1.409-21.738 1.751-24.906 3.037-3.168 1.285-7.441 3.636-9.176 6.185-1.732 2.548-6.898 6.49-9.381 7.19-2.484.7-.701-2.483-.701-2.483s-6.948 7.126-8.004 7.555c-1.057.429-2.285-1.84-2.285-1.84s-3.688 3.034-5.801 3.892c-2.111.857.307-2.276.307-2.276s-6.494 2.943-8.234 3.957c-1.742 1.014.619-3.02.619-3.02l-.087-7.04z"/><path d="M230.408 359.449c8 7 31 27 31 27s-12 14-11 18 16 4 16 4-15 21-4 21-7 16 8 15 10 11 22 11 160 13 172 4 17-5 36-17 57-32 58-42 1-13-6-19 28-14 34-24 10-22 18-29 8-4 8-4l10-20 1 4 31-50 2-9-80.336-12.133s-24.139 20.323-28.697 20.894c-4.559.569 12.038 1.723 6.055 1.723-5.984 0-14.817 1.994-14.817 1.994l2.564 1.71s-17.097-2.564-24.22-2.85c-7.123-.286-22.795 1.425-22.795 1.425l1.424.854s-7.693-.569-12.537-.569c-4.844 0-39.037-.854-41.602 1.14-2.565 1.994-1.709 1.141.855 2.564 2.564 1.425-41.887-3.134-67.816.57-25.93 3.704-17.667 3.419-17.667 3.419l-5.983.854s-26.215-3.419-31.059-3.134c-4.844.285-47.659-12.46-52.218-11.32l-37.151 102.859zM181.06 177.322C164.202 158.753 77.604 50.636 59.108 36.489 41.998 23.402 0 0 0 0s42.832 38.313 53.579 48.966c10.748 10.653 49.621 52.021 69.422 80.952"/><path d="M479.746 445.126s-5.325 35.053-15.974 49.251c-10.649 14.198-11.093 10.204-11.093 10.204s-20.41 18.192-26.178 26.179c-5.768 7.987-40.376 53.243-40.376 53.243l-.444-2.662s-5.324 14.199.888 26.622 29.728 39.044 35.939 47.475c6.211 8.431 18.636 22.186 11.536 24.848-7.1 2.662-20.41 3.106-23.516 1.331-3.106-1.775-61.23-69.66-61.23-69.66l-1.775-17.305 73.653-144.2 58.57-5.326z"/><path d="M406.979 673.629s-11.536 8.432-20.854 7.987c-9.318-.445-7.099-4.881-7.099-4.881s-5.325.887-7.1.443c-1.775-.444-2.662-7.986-2.662-7.986s-4.881.888-7.987.888 2.219-6.212 2.219-6.212-3.55 4.437-7.543 2.662c-3.993-1.775-3.55-7.543-3.55-7.543s-4.88-3.105-7.542-2.662c-2.662.443-3.55-6.212-.888-6.212s-11.979-.443-12.423-2.662c-.444-2.219.888-5.768.888-5.768s-10.649-2.218-11.093-5.324c-.444-3.106 3.994-7.987 3.994-7.987s-8.875-2.217-11.98-6.211c-3.105-3.994 4.438-6.656 4.438-6.656s-13.312-3.993-12.424-7.099c.888-3.106 7.986-7.986 7.986-7.986s-7.985-6.211-4.88-9.317c3.105-3.106 8.43-6.212 8.43-6.212s-10.648-4.437-5.768-7.986c4.88-3.549 11.979-9.762 11.979-9.762s-7.986-4.438-2.218-8.874l5.768-4.437s-7.987-7.1-2.663-8.431l5.325-1.331s-1.775-3.994.887-6.212c2.662-2.218 6.655-4.437 6.655-4.437s-3.993-3.993 1.775-6.655c5.768-2.662 7.987-2.662 7.987-2.662s-10.648-4.437-3.106-8.874 14.642-4.438 14.642-4.438 0-5.324 5.325-6.655l5.324-1.331s-6.655-1.774 1.331-4.437l7.986-2.662s-1.773-6.656 3.551-8.431c5.324-1.775 9.761-3.55 9.761-3.55s-4.437-3.105 1.774-4.437c6.212-1.331-4.436-7.542 3.106-7.986 7.542-.444-8.431-8.432 0-10.649 8.431-2.217 18.191-3.549 18.191-3.549l9.761-.444-62.117 146.863 44.814 70.105z"/><path d="M238.83 516.696l141.488-78.738 51.607 28.199s-23.945 26.146-40.697 32.008c-16.752 5.86-14.896 2.296-14.896 2.296s-27.083 3.741-36.323 7.161c-9.238 3.42-63.189 21.73-63.189 21.73l1.115-2.458-39.105-10.198z"/><path d="M281.857 524.104s-3.993 11.979 9.317 19.078 67.442 32.835 69.66 35.053c2.218 2.218 1.331 15.528-8.874 13.754-10.205-1.774-79.421-39.045-93.619-43.926-14.198-4.881-30.172-22.628-27.51-25.29 2.662-2.662 20.41-9.762 20.41-9.762l30.616 11.093zM433.157 671.854s6.655 4.438 14.198 7.543c7.543 3.105 18.635 3.105 22.629 3.105 3.992 0 4.438 3.551 7.986 4.438 3.548.887 7.1 5.768.887 5.768-6.211 0-15.086-.887-20.41-.887s-17.747.888-23.516-1.331c-5.768-2.219-6.211-.444-11.979-1.775-5.768-1.331-15.973-8.43-15.973-8.43l26.178-8.431z"/><path d="M471.405 684.154s10.352-3.129 15.567 1.789c5.217 4.918 5.366 6.283 5.366 6.283s-6.552-3.753-7.94-3.438c-1.39.315-6.472 1.808-6.472 1.808l-6.521-6.442z"/><path d="M473.574 686.449s6.586-.992 11 5c2.334 3.167-.019-.146-3.333-.5s-5-.333-5-.333l-2.667-4.167zM416.741 671.783s-15.667 15.334-20 15.667c-4.333.333-3.333-1.333-4.333-3s-6.666-2.333-4-4c2.666-1.667 22.333-14 22.333-14l6 5.333z"/><path d="M397.074 685.116s-7.333 4.334-11.333 2.667c-4-1.667-5.667-4.667-5.667-4.667s4.668 1.666 7.334 1c2.666-.666 4.666-3.666 4.666-3.666l5 4.666zM322.265 561.377s3.825 7.025 9.055 13.285c5.23 6.26 15.048 11.423 18.582 13.282 3.534 1.858 2.274 5.208 5.003 7.645 2.729 2.438 3.598 8.409-1.9 5.518-5.498-2.892-12.939-7.807-17.651-10.285-4.712-2.479-16.121-7.476-20.193-12.124-4.072-4.648-5.291-3.285-9.775-7.147-4.486-3.863-10.213-14.896-10.213-14.896l27.092 4.722z"/><path d="M350.391 590.067s10.618 2.049 12.945 8.83c2.328 6.78 1.825 8.059 1.825 8.059s-4.052-6.372-5.428-6.739c-1.376-.368-6.569-1.413-6.569-1.413l-2.773-8.737z"/><path d="M351.243 593.108s6.29 2.187 7.408 9.546c.591 3.889.051-.139-2.718-1.995-2.769-1.855-4.27-2.622-4.27-2.622l-.42-4.929zM351.741 587.449s-9.667 5.667-14 5.667-5.667.333-5-2c.667-2.333-5.667 3-9.667 0s-2.333-5.333-2.333-5.333-7 .999-11-.334-4.001-3.666-2.667-4.666c1.334-1-7 2-12.333-.667s-.667-6.667-.667-6.667-9 2.666-13.333 0-3.667-5.666-3.667-5.666-9.332.667-14.666-2-.667-5.667-.667-5.667-14.666.333-17.333-4c-2.667-4.333 1.666-3 1.666-3s-10.332-2.333-11.666-7.333c-1.334-5 1-4.334 1-4.334s-18.333-3.667-22-11c-3.667-7.333 4-6.333 4-6.333s-13.334-3-7.334-6 11.667-3.667 11.667-3.667-3.333-4 1.667-5 4.667-6.332 9-6.666c4.333-.334-2-5.001 6.333-5.334 8.333-.333-.001-7.666 9.333-6.333l9.334 1.333s-13.001-6-1.334-6.333c11.667-.333 16.334.333 16.334.333s-10-8.999-3-8.666c7 .333 10.333 0 10.333 0s-5.666-11.668 1.667-10.334c7.333 1.334 12 1.334 12 1.334s-4.001-5.001 3.666-5.334c7.667-.333 8.667-1 8.667-1s-13.001-5.666-3.667-7.666 17.667 0 17.667 0l34.667 4.333 30.667 22.667-126.333 44 92.999 61.666zM240.524 247.01s-24.562-33.465-28.229-38.215c-3.666-4.749-23.204-21.882-23.204-21.882s-17.446-25.062-21.293-28.409c-3.847-3.348-10.012-8.063-10.012-8.063s-18.342-31.95-21.758-33.104c-3.417-1.152-12.263-4.432-12.263-4.432l-20.05-32.526-1.549 3.722-19.277-27.438.193 6.798-18.079-20.152-14.887-6.195 99.892 129.436-10.928-9.25s11.212 15.347 15.364 19.09c4.151 3.743 16.225 23.479 16.225 23.479l-4.943-3.133s12.809 22.326 14.606 22.201c1.799-.125 8.326 1.785 8.326 1.785l51.866 26.288z"/><path d="M309.408 282.449s-18 9-24-4-19-29-20-26 1 9 1 9-20-18-23-27-4-1-4-1l-21-25 1 10-36-4-13-1s8 11 14 22-7 11-7 11-4 5 12 21 16 19 16 19h-7s4 16 14 22 16 14 16 14l-15-6s-6 36 9 42 36 17 36 17l51-93z"/></g></switch></svg>