<svg xmlns="http://www.w3.org/2000/svg" xmlns:dc="http://dublincore.org/documents/dcmi-terms/" height="319.333" viewBox="0 0 412.667 319.333" width="412.667"><metadata><dc:description>Silhouette of Australidelphia + Didelphimorphia, processed by PhyloPic Tools (https://github.com/eweitz/phylopic-tools)</dc:description><dc:source>http://phylopic.org/image/dde4f926-c04c-47ef-a337-927ceb36e7ef</dc:source><dc:creator>Sarah Werning</dc:creator><dc:license>http://creativecommons.org/licenses/by/3.0/</dc:license></metadata><path d="M71.917 150l-1.25 3v6.75l3-2 2.25-2.25h1.75v4.25h3l2-3 1.5-3.75v-1h7.5l5 .25 5.75-.75 2.5-2.75v-2.5l4.25 1.5 6.5.25 9.25 1 8.25-.5 8.5.25-1.75 2.75-2.75 1.5-2.75 2-2 .5-3.25 2.25-3 2h-3.5l-1.5 2-2 3.5-1.25 4-1 4-.75 4.5 1.75-1.25 1.75-2.5 3.25-4.75 2.25-2.5 1.75-.5-1.75 3.25-2.25 2.75-2.5 3.25-1.75 4.5-.25 1.25h2l3-2.25 2.75-1.5 2-2.25v3l-1.25 3-1 3.25v2.75l.75 1.75 2.25-3 2.5-4.25 1-2 2.75-3.25.75 1.75-.75 5.75v7h2l1.75-4.5 1.25-7 1.5-3 1.5-1 3.25-4 1-2.875h3.75l4.75-3.625 3.75-2 2.5-1.5 1.04-1.56.46-.69 2 .25v-1l1.1-2.2.4-.8v-3.25l4-1 3.5-1 2 1v-1.75l2 3.75 2.5 1.75v-2.75l2.25-.75 1.5 1.5 2.5 2h1.25l3.25-1.75v2.25l1.25 2v2.25l2-4.75v6.5l2-3.75v4.75l2-3.5v5.5l2.25-2.5v-2.5l2.25 2.75v3.25l2.25-5.25v4.25l2.25 1.5v-2.75l1.5-1.5v2l1.5 3.75 1.5 1.125v-3.375l2.25-1.25v-2.25 6l2-.75 2.25-1.5v-2l2-.5 3.25 2 3 3.625 5.75 2.125 6.5 3.25 7 3 10.5 4 9.75 5.75 9.25 4.25 8 3 9.75 1.75 7 2 8.75 4.5 11.25 4.25 11 4.5 11.75 4.75 10.25 5.5 10.25 6 8.5 6.5 8.75 8.5 8.5 10.5 3 5.5 2.25 6.25v9.25l-2.25 5-4.5 7-7 7.75-6.75 4.25-3.75 1.25h-3.75l-1.75-1.25.75-6 3.25-5.5 3.5-5.25 3-5.5 2-6 1.25-3.5-.75-1.75-2.5-1.25-3.75 3-6.25 4.25-3.75 2.75-3 5-3.75 5-3 6-1 4-.5 6 1 6 2.5 3.5 3.25 2.75 7 1.75h6.25l7.75-2.5 7.25-5.25 7.75-6.25 5.25-6 4-6.75 2.75-7.5 2.5-8v-13l-2.75-5.25-2.5-4.25-4-6.25-3.25-6.5-7.75-7.5-5.5-4.5-7-5.25-8-4.5-10-5.75-8.25-3.5-6.75-4.25-7.75-4.75-8.25-5-7-2.75-4.75-2.75-6.5-3.75-6.5-3-7-4.25-9.75-7-8-4.5-6-7-3.25-3.5-2.75-3.25-3-8.75-2.5-6.25-.5-4.25-.75-4-.75-3-.25-6-.75-7.5V99l-1-5.25-3.75-9.75-5.75-13-4.5-8.75-2-4.75-4.25-3.5-2.75-3.25h2.75l-3.25-2.5h4l-6-2.75 2.75-2.5-5-2 4.25-1.75-.25-2.25h-5.5l-2-1.5-3.25-2h-2.5l2.75-2h-4.5l-1-1.5h-3.25v-2.5l-2.25-2-.75-3h-5.75v-3h-3.5l-1.25-1.75h-1.75l-.25-2.25h-5l-.5-2.25h-6.75l-.25-2.25h-5.25l-2-1.75-.5-1.5h-3l-2.25 3.25h-4l1-3.25-4.75 3.25V7.75l-4.5 3.25h-1.75l2-3.25-5.25 3.25h-2.25l-4.25 2.5-6 3.25v-2l-5.5 3.5-2.401 1.978-1.849 1.522-2.75-.25-3.5 2-3 2.25-2.25.75.25-2-1.833 1-.917.5.75-4-4.25 2.25-2.5 2.25v-2l-2.015 1.648-.735.602-1.5-2-.25 1.75c.25-1.75-2.5.5-2.5.5v-2.75l-.5 1-1 2-2.5.25-1 2.5-3.25 5.5-3-.25-2.25.25-1-1.5-2.5-1.5-4-1.5-2.25-.5-1.75.5-3.75 2.75-3.75 3.5-1.75 2-3.5-.5-2.5 1v-1l-6.25 2.5-3.25 2.25-8.75 4.5-2.75 3.5-5.5 1-4 .75-2 2.25h-3.75l-6.5 4-4.25 2.25h-2.5l-2.75-2.25-2.5-1-2.75-1-1.25.5v2l2.75 5 3.5 3.25 4.5 6.25 3.25 2 2 2.75 1 3.25-3-1.25 2.75 3.5.749 1.947.501 1.303.5 1.25 2.75 4.75 1.75 3.25 1.5 6.25v2.75l-.5 4.75.25 3.75.75 2.75 1.5 1.5 2.5 1.25 2 1.75.75 3 1.75 6 .75 5v1.75L40.5 143l.5 4.167V151l-.333 4.5-.833 3.5.166 2.5 2 2.833 3.5 1.334 1.667-.167 1.333-1.167 3.167.167 2.667-.333 2.167-1.334.833-2h2.333L62 158.5l2-2.5 2.167-2 .667-1.667 2.5-2.167 1.5-1.167 1-.5.667-.333 1-.5L71.917 150z"/></svg>