<svg xmlns="http://www.w3.org/2000/svg" xmlns:dc="http://dublincore.org/documents/dcmi-terms/" height="286" version="1" width="300"><metadata><dc:description>Silhouette of Australaves, processed by PhyloPic Tools (https://github.com/eweitz/phylopic-tools)</dc:description><dc:source>http://phylopic.org/image/6cebf754-cb71-448d-a5bb-947157205264</dc:source><dc:creator>Liftarn</dc:creator><dc:license>http://creativecommons.org/licenses/by-sa/3.0/</dc:license></metadata><path d="M72.667 271.333c-.367-.366-.667-3.275-.667-6.463 0-3.588-.81-7.81-2.127-11.083-2.005-4.983-2.468-6.72-3.412-12.787-.214-1.375-.892-4.3-1.507-6.5-.614-2.2-1.965-10.75-3.002-19-1.037-8.25-2.592-19.725-3.456-25.5-1.944-13.001-2.034-16.783-.71-30 1.949-19.463 4.378-25.166 11.534-27.08 2.299-.614 5.374-1.748 6.834-2.519 1.46-.77 3.785-1.401 5.166-1.401 1.73 0 3.485-1.228 5.637-3.946 1.719-2.17 3.922-4.198 4.897-4.508 1.506-.478 1.713-1.5 1.379-6.804-.263-4.156-1.039-7.077-2.323-8.742-1.06-1.375-2.363-3.513-2.894-4.75-.532-1.237-1.653-2.25-2.491-2.25-2.1 0-2.004-4.879.111-5.69.9-.346 3.915-2.162 6.7-4.036 4.891-3.292 5.302-3.387 12.113-2.803 9.222.79 11.001-.244 15.446-8.971 3.143-6.173 3.628-8.142 4.106-16.668.42-7.514.958-10.129 2.41-11.734 2.63-2.906 12.115-8.095 14.824-8.11 1.246-.008 5.19-.936 8.765-2.064 6.072-1.915 8.145-2.011 31.5-1.463 13.75.322 34.775.627 46.723.677 17.205.072 21.961.38 22.872 1.477.633.762 2.557 1.4 4.277 1.42 1.72.02 4.253.679 5.628 1.465 2.316 1.324 1.87 1.432-6.05 1.465-4.702.02-9.015.5-9.583 1.068-.568.568-3.934 1.133-7.48 1.255-4.943.17-7.116.747-9.303 2.467-1.939 1.526-4.214 2.245-7.097 2.245-4.262 0-10.848 2.157-11.93 3.908-.319.516-2.037 1.253-3.818 1.637-6.819 1.472-11.744 4.753-21.92 14.603-6.517 6.307-11.134 14.95-11.408 21.352-.093 2.2-1.56 8.5-3.258 14-2.278 7.373-2.929 11.05-2.48 14 .801 5.273 5.018 12.5 7.293 12.5.977 0 2.79 1.462 4.03 3.25 1.24 1.788 4.445 5.05 7.122 7.25 2.678 2.2 5.13 4.8 5.45 5.777.321.977 1.787 2.538 3.258 3.469 4.622 2.926 14.065 12.973 14.747 15.69.855 3.404-.94 7.567-4.89 11.348-4.595 4.398-9.807 4.666-14.467.744-1.616-1.36-3.165-2.246-3.442-1.969-.277.277-1.275-.675-2.218-2.115-.944-1.44-1.977-2.356-2.296-2.037-.32.32-1.209-.317-1.977-1.413-.768-1.097-2.158-2.011-3.09-2.033-.931-.02-2.593-1.464-3.693-3.206-3.031-4.802-9.27-8.683-14.023-8.722-3.557-.03-4.24-.438-5.907-3.533-2.583-4.797-5.495-4.645-9.57.5-1.742 2.2-3.795 4-4.561 4s-2.105 1.086-2.975 2.414c-.87 1.327-3.242 3.183-5.273 4.123-2.03.94-7.36 4.13-11.846 7.087-4.485 2.957-8.47 5.376-8.855 5.376-.63 0-4.44 2.825-8.49 6.296-.825.707-4.076 3.021-7.224 5.143-4.571 3.08-6.065 4.784-7.42 8.46-.932 2.53-2.294 5.311-3.025 6.18-.732.868-1.331 2.276-1.331 3.128 0 .852-.678 3.17-1.506 5.153-.828 1.982-1.771 8.222-2.095 13.866-.324 5.643-1.02 11.067-1.547 12.051-.527.985-1.108 7.288-1.29 14.007-.182 6.719-.383 13.903-.447 15.966-.109 3.541-.942 4.59-2.448 3.083z"/></svg>