<svg xmlns="http://www.w3.org/2000/svg" xmlns:dc="http://dublincore.org/documents/dcmi-terms/" height="118.11" version="1.2" viewBox="0 0 165.451 118.11" width="165.451" overflow="inherit"><metadata><dc:description>Silhouette of Australaves, processed by PhyloPic Tools (https://github.com/eweitz/phylopic-tools)</dc:description><dc:source>http://phylopic.org/image/bc6dd00c-d644-4319-bd6a-0a68f9f284c3</dc:source><dc:creator>Shyamal</dc:creator><dc:license>http://creativecommons.org/licenses/by/3.0/</dc:license></metadata><path d="M84.352.094c-.943 1.539-3.78 5.285-4.938 7.406-1.571 2.878-2.415 5.368-3.341 7.328-1.046 2.215-2.912 6.876-2.912 6.876-7.048-2.59-9.059-8.688-13.764-11.761-1.892-1.236-6.174-3.408-8.277-2.474-13.42 5.967-21.437 20.479-28.97 32.36C15.244 50.845 3.052 77.165 3.052 77.165L.048 87.237l4.782-6.423-3.004 10.073s34.324-31.999 29.95-28.529c-.273.217-.462.334-.552.392.813-.924 17.285-14.873 22.348-13.48 5.739 1.579 18.822 11.913 18.822 11.913l-4.843 51.569c5.681 2.771 6.967 5.633 14.898 5.067v.24c7.891-.342 10.465-2.473 15.45-5.036l-4.844-51.57s13.084-10.333 18.822-11.912c5.738-1.578 26.17 16.558 21.797 13.089-4.375-3.47 29.949 28.529 29.949 28.529l-3.004-10.072 4.783 6.423-3.006-10.072s-12.191-26.32-19.098-37.336c-7.533-11.881-15.549-26.394-28.969-32.359-2.104-.935-6.256 1.442-8.277 2.474-3.33 3.278-6.023 9.308-13.072 11.897 0 0-2.479-8.265-3.054-10.547-1.53-5.878-3.741-8.672-4.349-9.599L84.352.094z" fill="#010101" stroke="#010101" stroke-width=".1"/></svg>