<svg xmlns="http://www.w3.org/2000/svg" xmlns:dc="http://dublincore.org/documents/dcmi-terms/" height="841.89" version="1.2" viewBox="0 0 595.28 841.89" width="595.28"><metadata><dc:description>Silhouette of Australaves, processed by PhyloPic Tools (https://github.com/eweitz/phylopic-tools)</dc:description><dc:source>http://phylopic.org/image/0ded8579-1ed8-420e-9326-1dcb8c64bb08</dc:source><dc:creator>Rebecca Groom</dc:creator><dc:license>http://creativecommons.org/licenses/by/3.0/</dc:license></metadata><path d="M133.337 612l55.664 157.333s30.667 84 36.667 97 28.333 48.334 28.333 48.334 7-11.334 7-19-7.333-27.667-7-28.667c.333-1 14.333 26.667 17 26.333 2.667-.334 3.667-20.333 2.333-27-1.334-6.667-1.333-12-.667-19 .666-7-3.667-30-6.667-40.315-3-10.315-13.333-42.351-13.333-42.351s4.667-4.667 5.667-7.334 2-8.666 2-8.666 21 57.666 23 58.333c2 .667 3.333-17.333 3.333-21.333s-4.333-27-5.333-33.667c-1-6.667-5-42-5-42s3.667-17 4.667-24-8-24.667-8-24.667 5.667-.666 8-5.666-5-30-5-30-.667-10-1-15.334c-.333-5.334-7.333-17.333-5.333-15.666 2 1.667 6.667-5.334 6.667-5.334s5.333 2 8.333 2 4.333-1.333 4.333-1.333 6.667.667 11 .667 4.333-9.667 4.333-9.667 12 5 16.667 5c4.667 0 2.667-6.667 2.667-6.667s6.666.667 9.666 1c3 .333 2.334-5.333 2.334-5.333l4.667 6s12.667 26 15.667 27-3.323-29.667-3.323-29.667h16.323s23.667 6 28.667 8 10.333 0 10.333 0 1.333-4.666 4-3.333c2.667 1.333 11.667 2.667 11.667 2.667l1-2s4.666 1.666 10.666 3 26 5.666 26 5.666-5.333-3-7.333-2.666c-2 .334 7.333-2 7.333-2s-8-1.334-9-1.667c-1-.333 7.334-3.333 7.334-3.333h-8c-2.666 0 8.333-3 8.333-3s12.333 7 17 10 27.333 8 27.333 8 136 83.666 140.667 86.666c4.667 3 66 38.334 66.333 35.892.333-2.442-1.666-1.892-1.666-1.892s10 2.667 11.666 1.667c1.666-1-10-6.333-10-6.333s11 3.666 13 3.333c2-.333-10-9.333-10-9.333s6.667 1 8.334 0c1.667-1-25-16.334-25-16.334s6 3.667 10.333 3.667-3-7.333-3-7.333 21.333 11 23.667 9.333c2.334-1.667-2-4-2-4s24 11 27.333 9c3.333-2-35-32.333-43.333-38.667-8.333-6.334-88.667-46-96.334-50.666-7.667-4.666-102-60-115.333-67.667-13.333-7.667-79.667-52.667-90.001-60.667-10.334-8-38-43.333-51.666-56.666-13.666-13.333-44.667-35.667-48.667-41-4-5.333-32.667-44.667-42.667-55.334-10-10.667-37-32.667-37-32.667s-8.333-7.333-15.333-15.667-18.333-19.667-33-33.333c-14.667-13.666-26.334-14-30.334-17.333-4-3.333-14-20.667-19-30.667S113 174 81 159.333c-29.005-13.294-55.333-7.333-69.667-3C-3.001 160.666-17 174-17 174l-3.667 10.667s-2.667-2.667-2.667-4V188H-26s2 5.667 0 5.667S-33 200-33 200s-9.5 6.5-14.5 18.5S-42 246-42 246s-1.451-10.375-1.666-12c-.361-2.725 2-5.667 2-5.667s5.333 3.333 10.667 4.333 10-1 10-1L-23.333 235l7-.333-1.333 4 5-1.667-4.334 5.667 8.667-2 .333 4L-5 242l2.667 4.667.667-5 3.333 9 2.667-2s.667 9.333 1.667 8.667c1-.666 0-6 0-6s4.667 14 5.333 11.333c.666-2.667-1-7.333-1-7.333l6.333 14 .333-3.333c.333-3.333-3-6-3-6s2.333.333 5.333 3.333 16 35 16 38.667c0 3.667 9 19.333 10.667 22 1.667 2.667 9.333 26.667 9.333 26.667s-1.333 2.333-1 8C54.666 364.335 66.667 392.667 67 397c.333 4.333 11.667 49.333 11.667 49.333s5.667 31.667 8 38.334c2.333 6.667 11 32.333 11 32.333S114 590 117 589.667c3-.333 3-14 3-14l5.631 15.063s-3.632-1.452-6.382 6.271c-.708 1.989 5-4.75 8.401-.87.625.713 1.327 3.55 1.327 3.55s-8.311-.679-16.644-1.013c-8.333-.334-9.667 1-9.667 1s-7.333-3-13-.667-7.333 10.333-7.333 10.333S86.667 604 91 605s8.667 1 8.667 1-2 3.333 2.667 5c4.667 1.667 13.666 1 13.666 1s14.003-1 17.337 0"/></svg>