<svg xmlns="http://www.w3.org/2000/svg" xmlns:dc="http://dublincore.org/documents/dcmi-terms/" height="238.189" viewBox="0 0 230.035 238.189" width="230.035" overflow="visible"><metadata><dc:description>Silhouette of Autographa gamma, processed by PhyloPic Tools (https://github.com/eweitz/phylopic-tools)</dc:description><dc:source>http://phylopic.org/image/10a33f4b-2fa3-4cef-af88-42275838ab45</dc:source><dc:creator>Gareth Monger</dc:creator><dc:license>http://creativecommons.org/licenses/by/3.0/</dc:license></metadata><switch><g><path d="M111.576 16.577l.749-.05c.998-.066 2.345 1.348 2.71 3.077.366 1.729.465 3.226 2.294 4.357 1.829 1.131 4.241-.282 4.606 1.448.365 1.73 3.342 5.04 3.425 6.287.082 1.247.797 4.457.797 4.457s6.035 4.109 7.914 5.988c1.879 1.88 3.076 1.048 4.456 2.961 1.38 1.913 1.68 2.645 3.259 3.792 1.579 1.148 3.209 3.044 3.209 3.044s3.093 1.298 4.506 3.709c1.413 2.411 5.286 7.917 6.2 10.362.914 2.445 2.094 8.881 2.608 12.855.514 3.974 8.925 21.205 13.695 32.664 4.77 11.459 8.875 20.457 14.526 33.861 5.65 13.405 9.322 30.95 11.316 34.576 1.995 3.626 3.607 5.272 4.022 7.75.416 2.479 2.676 10.095 4.22 18.261 1.545 8.166 1.677 13.92.762 15.233-.915 1.313-4.309 6.8-7.801 7.032-3.492.232-7.05-4.292-9.029-3.91-1.979.382-3.094 2.461-4.64 1.812-1.547-.648-2.812 2.943-5.422 1.362-2.61-1.58-5.288-.4-6.585-1.065-1.297-.666-2.412 1.413-4.806-.684-2.395-2.096-4.34-4.973-5.088-4.923-.748.05-4.591 2.56-5.472.613-.881-1.945-4.621-5.455-4.621-5.455s-.849 2.312-3.51-.018c-2.66-2.329-4.771-7.7-4.771-7.7s-1.131 1.828-1.979.382c-.848-1.447-2.494.165-3.342-1.281-.848-1.447-3.01-.051-3.126-1.797-.116-1.746 2.894-1.695-.116-1.746-1.972-.033-3.288-1.508-3.96-2.521-.354-.533-.529-.938-.529-.938l-1.912-2.379-.433 1.031-1.529-.399-.666 1.297-1.347-1.414-.897 1.563-1.53-.399-.051 3.01-.864-1.696-2.411 1.413-.749.049s-3.01-.05-3.442.98c-.433 1.031.515 3.975-1.614 5.87-2.129 1.896-5.921 1.396-6.869 2.21-.948.815-2.579 6.436-3.561 6.751-.981.316-5.339 2.609-6.802 3.208-1.463.599-3.593 6.252-5.09 6.352l-5.987.397c-.748.05-.749 3.809-3.244 3.974-2.494.166-4.789-.434-5.554-.633-.765-.2-.931 1.064-2.678 1.18-1.746.116-6.801-.55-8.298-.45-1.497.099-6.687 4.954-6.687 4.954s.416-1.28-1.363-1.664c-1.779-.383-7.317 2.992-8.598 2.576-1.28-.416-3.225-3.294-5.021-3.926-1.796-.633-2.611 2.178-3.725-3.261-1.113-5.438-1.725-18.426-1.126-20.721l2.397-9.179s-.398-2.229-.099-5.255c.3-3.027 8.272-30.115 12.216-42.403 3.944-12.289 11.849-36.616 16.891-51.232 5.042-14.616 5.177-20.138 7.989-26.839 2.812-6.701 7.488-19.289 10.482-23.246 2.995-3.958 8.933-12.62 8.933-12.62s-.864-1.696.467-4.291c1.331-2.594 3.494-7.749 5.457-8.38 1.963-.631 2.345-2.411 2.345-2.411l4.493-7.812z"/><path d="M146.277 26.559c8.066.658 29.08 6.798 37.271 11.377 8.189 4.579 27.274 18.69 27.477 18.838.288.212 1.272 1.204 1.061 1.493-.211.289-1.887-.949-2.176-1.162-.201-.147-18.876-13.495-26.995-18.035-7.911-4.423-29.148-10.11-36.921-10.772-7.523-.641-23.293.551-25.143 1.06-.347.096-.754-.441-.849-.788a.65.65 0 0 1 .454-.799c1.945-.535 11.839-2.353 25.821-1.212zM79.599 31.636c-7.908 1.719-27.925 10.585-35.438 16.208-7.511 5.622-24.562 22.133-24.743 22.307-.258.248-1.103 1.361-.853 1.621.249.258 1.744-1.19 2.002-1.439.18-.172 16.925-15.874 24.373-21.447 7.256-5.431 27.554-13.877 35.17-15.561 7.373-1.63 23.161-2.536 25.062-2.275.355.049.688-.538.737-.894a.65.65 0 0 0-.556-.732c-1.999-.275-12.047-.768-25.754 2.212z"/><path d="M131.957 42.378s8.618-3.386 8.911-5.013c.295-1.627 2.688-5.94 1.666-7.212-1.023-1.272-2.463-2.784-2.463-2.784l2.296-5.78L144.742 15s2.883-3.005 2.455-3.378c-.426-.374 2.998-3.28 2.972-3.681-.026-.401 2.438-3.646 2.438-3.646l1.566-2.649.934-.062s-.748-1.156-1.148-1.13C153.558.48 152.722 0 152.722 0l.188.791-1.165.613-2.519 4.455s-.826-.347-1.184.346c-.354.694-2.819 3.939-2.819 3.939s-1.031.604-1.271 1.022c-.24.418-2.188 5.371-2.188 5.371s-.019-.267-.722 1.254c-.702 1.521-3.506 9.746-3.506 9.746s-3.139 1.146-3.361 1.831c-.223.685-1.503 1.574-1.868 2.134-.365.56-2.438 7.665-2.438 7.665l2.088 3.211zM97.478 44.433s-8.991-2.216-9.497-3.791c-.507-1.574-3.45-5.532-2.604-6.928.846-1.396 2.073-3.085 2.073-3.085l-3.041-5.426-3.226-6.217s-3.256-2.598-2.881-3.024c.373-.426-3.406-2.854-3.432-3.255-.027-.4-2.898-3.291-2.898-3.291l-1.903-2.419-.934.062s.588-1.245.988-1.271c.399-.027 1.165-.613 1.165-.613l-.081.809 1.236.454 3.086 4.083s.772-.454 1.218.187c.444.64 3.315 3.531 3.315 3.531s1.103.462 1.396.845c.293.382 2.88 5.034 2.88 5.034s-.018-.267.881 1.147c.897 1.414 4.765 9.196 4.765 9.196s3.262.721 3.573 1.371c.312.649 1.699 1.361 2.134 1.868.436.507 3.431 7.275 3.431 7.275l-1.644 3.458z"/><path fill="none" stroke="#000" stroke-linecap="round" stroke-width=".5" d="M86.092 37.651l1.503.436.48 1.174-1.405-.978M86.875 39.341l2.009.001.631 1.432-2.917.461M88.261 42.063l2.348-.96 1.129.863s-2.329 1.227-3.121 1.413M91.026 43.353l1.823-.791 1.494.303s-1.681.916-2.339 1.093"/><path d="M93.595 47.738s-3.736 2.258-5.577 2.782c-1.84.524-4.785 2.595-4.785 2.595l1.325-.222s-1.422.765-3.077 2.08c-1.655 1.316-4.172 3.76-4.172 3.76l.951.205-2.045 1.476.684.222-2.89.862.684.223s-1.378 1.431-1.751 1.858c-.374.427.933-.062.933-.062s-4.518 4.588-5.781 5.744c-1.263 1.156-5.382 5.717-5.382 5.717l-1.894 1.733s-7.212 2.354-10.201 3.759c-2.989 1.405-9.418 3.44-10.334 3.769-.916.329-17.82 1.988-21.707 1.978-3.886-.01-17.501.761-17.501.761L0 86.916l.15 2.268.08 1.2.773-.453 4.358-.959.036.534 6.785-.719.587.765-.783.32 3.718-.515 3.717-.515 1.467-.098-.499.569 1.458-.231s2.168.392 4.304.25c2.135-.142 13.42-1.695 13.42-1.695l-.187 1.218 1.281-.889-.338.96 3.353-1.964 9.382-3.973-.23.552 1.387-1.298 6.039-1.875-.347.827s1.68-.916 1.921-1.333c.24-.418 1.148-.88 2.34-1.093 1.191-.213 2.979-1.538 3.379-1.564.4-.026 2.293 2.259 2.293 2.259l5.529 12.629.898-.596s-5.954-13.003-5.768-14.221c.186-1.218.898-2.605.898-2.605l.071 1.067 2.607-5.131.133 2.001 2.295-3.77-.393 4.179 1.37-1.564-.001 2.01 1.602-4.126.08 1.2 1.761-1.725.044.667 3.255-3.432 5.373-5.85 4.216-3.094 3.061-6.366-.969-2.481-2.311-.518zM136.368 48.063s3.741 2.251 5.582 2.772c1.842.521 4.789 2.586 4.789 2.586l-1.324-.219s1.422.762 3.079 2.074c1.657 1.313 4.18 3.753 4.18 3.753l-.951.207 2.049 1.472-.685.224 2.892.856-.684.224s1.38 1.429 1.755 1.855c.374.427-.935-.06-.935-.06s4.528 4.58 5.794 5.732c1.265 1.154 5.392 5.708 5.392 5.708l1.897 1.729s7.217 2.341 10.208 3.74c2.991 1.4 9.424 3.423 10.342 3.75.916.327 17.823 1.955 21.71 1.938 3.887-.017 17.502.729 17.502.729l1.075-.064-.146 2.268-.078 1.201-.774-.452-4.359-.952-.035.534-6.786-.706-.585.766.784.319-3.72-.508-3.718-.508-1.468-.095.499.568-1.459-.229s-2.168.396-4.303.258c-2.136-.138-13.423-1.67-13.423-1.67l.189 1.218-1.282-.887.34.959-3.357-1.958-9.39-3.956.231.551-1.389-1.296-6.043-1.863.349.826s-1.682-.913-1.923-1.33c-.24-.417-1.15-.877-2.343-1.088-1.191-.211-2.98-1.532-3.382-1.559-.4-.025-2.289 2.264-2.289 2.264l-5.506 12.64-.898-.594s5.93-13.014 5.74-14.231c-.188-1.218-.902-2.604-.902-2.604l-.068 1.067-2.617-5.126-.129 2.001-2.302-3.766.399 4.178-1.373-1.562.005 2.01-1.609-4.123-.078 1.201-1.763-1.722-.044.667-3.262-3.426-5.383-5.84-4.223-3.086-3.072-6.361.964-2.483 2.314-.521z"/></g></switch></svg>