<svg xmlns="http://www.w3.org/2000/svg" xmlns:dc="http://dublincore.org/documents/dcmi-terms/" height="257.133" viewBox="0 0 749.439 257.133" width="749.439" overflow="visible"><metadata><dc:description>Silhouette of Autographa gamma, processed by PhyloPic Tools (https://github.com/eweitz/phylopic-tools)</dc:description><dc:source>http://phylopic.org/image/16dc46d3-c849-4a1d-bf90-29c7bc3b4f1c</dc:source><dc:creator>Gareth Monger</dc:creator><dc:license>http://creativecommons.org/licenses/by/3.0/</dc:license></metadata><switch><g><path d="M123.439 238.133c37.172 8.261 154 14 172 16s49-2 49-2l54 1s24 1 34-1 35-9 35-9h27c13 0 27-7 27-7s15 4 24 4 16-1 16-1 4 1 12 2 25 2 29 1l21 3h8s23-3 37-3 37-1 45 0 35 15 35 15l-13-15 14 10-16-17s-6-2-8-8-29-72-61-107-38-35-43-33-21-20-36-26-27-2-27-2-20-17-33-21-31-5-31-5-26-13-41-14-46-3-46-3-22-6-33-6-31 1-41-1-49 4-53 3-25-8-36-9-17-2-29-3-35 4-45 4h-43c-10 0-35 11-41 15s-59 49-64 55-21 32-21 41-9 33 18 51 46 45 58 51 28 17 46 21z"/></g></switch></svg>