<svg xmlns="http://www.w3.org/2000/svg" xmlns:dc="http://dublincore.org/documents/dcmi-terms/" height="122.917" viewBox="0 0 437.059 122.917" width="437.059" overflow="visible"><metadata><dc:description>Silhouette of Autographa gamma, processed by PhyloPic Tools (https://github.com/eweitz/phylopic-tools)</dc:description><dc:source>http://phylopic.org/image/ee72a5dc-b5a4-4216-9373-250e5c0e1f35</dc:source><dc:creator>Gareth Monger</dc:creator><dc:license>http://creativecommons.org/licenses/by/3.0/</dc:license></metadata><switch><g><path d="M178.983 65.035s-4.071 1.523-6.542.32c-2.471-1.203-9.532 4.8-12.002 3.597-2.471-1.203-8.148-8.195-8.148-8.195s-6.045 2.811-8.654 2.26c-2.61-.552-5.94-.914-7.364-2.237-1.423-1.323-17.684 3.077-21.271 2.319-3.588-.758-4.291-2.268-5.2-2.801-.91-.534-10.335.542-13.904-1.916-3.569-2.458-1.731-3.091-1.731-3.091s-2.063 3.311-5.324 2.622c-3.261-.689-9.476-.299-9.476-.299s-.418 8.428-3.303 9.182c-2.885.754-6.132 4.838-7.06 6.005-.928 1.166.569-4.31.845-5.614.275-1.304.621-2.935.312-4.703-.308-1.77.487-8.756.487-8.756l-7.997-4.073s-2.164.565-5.889.458c-3.725-.106-6.403-.331-6.403-.331s-7.763 4.492-8.879 4.937c-1.117.447-6.164 1.764-6.164 1.764l2.526-3.894.62-2.935c.345-1.632-1.3-6.749-1.3-6.749l-6.252 3.79s-10.133 6.036-11.111 5.829c-.978-.207-4.91.665-4.91.665l-7.827-1.653s4.91-.666 7.211-1.882c2.302-1.218 6.013-5.884 6.013-5.884l-1.92-3.813s-15.246 1.208-16.55.933c-1.305-.276-2.931-7.093-.73-11.058 2.2-3.963 11.906-12.816 17.212-13.739 5.305-.923 7.418-2.86 8.929-3.563 1.512-.703 7.777.28 7.777.28s11.398-2.36 16.772-3.61c5.375-1.25 9.15.23 9.15.23s8.654-2.26 11.589-1.64c2.935.62 7.143-1.557 10.078-.937 2.935.62 13.184 2.104 13.184 2.104s16.518-4.005 25.171-6.265c8.654-2.26 3.436-3.363 8.654-2.26 5.218 1.103 12.187 3.597 12.187 3.597S167.061.51 171.301 1.405c4.24.896 17.8 4.443 17.8 4.443l1.957-.265s10.667-2.667 15.667-1.667c8.598 1.72 21 6 21 6l3 .333s10.334-2.667 13.334-2.333c3 .334 11.666 3 14.333 3.667l17.333 4.333 1 1.667s13.667-5 15.667-3.667c2 1.333 18 5.333 19 6 1 .667 4 4 4 4s13-1.667 16-.667 20.667 8 20.667 8v2.333s12.666-3.667 14.333-3c1.667.667 8 3.667 8 3.667s8.667-.333 10 0c1.333.333 6.667 4 6.667 4s8.666-.333 11.666 1 6.667 4 6.667 4 4.667-.333 6 1.667c1.333 2 4.667 10 4.667 10s10.666 9 10.666 14.333 5 14.333 5 17.667c0 3.334-5 16.667-5 16.667s1.334 5.333 1.667 7.333c.333 2 1.667 6 1.667 6h3s-1.001 6-6.334 6-7.666-1-7.666-1l2.333-1s-2.333-5.333-5-7.333-9.001-5.667-11.667-7.667c-2.666-2-8-7.333-8-7.333s-1.666 1-5.666 0-20-7.667-20-7.667-.001 3.999-4.334 2.333c-4.333-1.666-6.333-1.666-6.333-1.666s-3.999 3.999-6.333 2.666c-2.334-1.333-9-4.333-9-4.333s2 3.667-.667 4.667-4.333 3-4.333 3-1.667 8.334-1.667 10c0 1.666 2.333 1.666 2.333 1.666s-.999 4.334-4.666 4.667c-3.667.333-10-1.667-10-1.667l1.333-1.333s-1.999-11.001-5.333-12.667c-3.334-1.666-10-5.667-10-7 0-1.333-6.334-2.333-6.334-2.333s.334 2.666-2.333 3.333c-2.667.667-11.333 1.334-11.333 1.334l-.334 10 1.334.333s-4 4-6.667 4-8.333-7-8.333-7l2.666-1s.001-4.666-.666-7.333-5.001-6-5.334-7c-.333-1-1.333-1-3.333-2s-6-5-6-5-3 3-5 4-11.001.334-15.667-1.333-10.666-7.333-10.666-7.333-3 1-5.667 0-5.667-3-5.667-3-5.333 4.667-8 4c-2.667-.667-4.334 1.333-6.667 0s-12.333-3.667-13.667-5.333c-1.334-1.666-6-5.667-6-5.667s-3.667 3.333-6 3.333-4.667-1-4.667-1"/></g></switch></svg>