<svg xmlns="http://www.w3.org/2000/svg" xmlns:dc="http://dublincore.org/documents/dcmi-terms/" height="390" version="1.2" viewBox="0 0 661 390" width="661"><metadata><dc:description>Silhouette of Aysheaia, processed by PhyloPic Tools (https://github.com/eweitz/phylopic-tools)</dc:description><dc:source>http://phylopic.org/image/1d51e21e-cffd-4d76-8b3d-e6fd904a2b86</dc:source><dc:creator>Renato de Carvalho Ferreira</dc:creator><dc:license>http://creativecommons.org/licenses/by-sa/3.0/</dc:license></metadata><path d="M645.999 65c4.19 4.23 9.01 4.35 14 1-.59 10.47-15.069 9.91-11 22-2.76 6.25-13.46 8.74-21 7-1.08-15.54-10.26-29.06-22-37-1.77 1.89-.729 6.6-1 10 1.45 1.88 6.55.12 8 2-5.04 5.63-12.7 8.63-17 15-4.49-.84-7.91-2.76-11-5-1.64-8.04.94-10.73 2-18-1.43-.24-1.689-1.65-3-2-4.569 2.43-11.04 2.96-14 7 6.62 13.75-5.46 40.08 16 39-.819 5.95-9.52 5.55-15 4-2.63 2.04-1.22 8.11-3 11-6.53-1.3-8.55.37-15 1-7.52-9.65 7.521-23.9-5-32-4.899 4.43-5.56 13.1-16 12-3.93-.41-2.85-5.81-8-5-2.37 2.96-5.71 4.95-7 9-6.569 25.76 36.13 47.84-3 51-2.13-2.2-.79-7.88-4-9-3.74-1.33-6.91 2.98-9 0 2.3-2.15 11.391-5.51 5-10-4.81-.81-3.609 4.39-9 3-1.31-5.31 3.57-4.43 4-8-2.02-2.31-3.319-5.34-7-6-3.72 2.28-8.38 3.62-13 5-4.72-.95-5.45-5.88-10-7-3.66.34-4.58 3.42-6 6 .91 11.63 5.67 22.99 4 36-5.47 3.45-13.859 7.23-20 2-2.16-2.91 1.03-4.96-2-7-2.979 1.68-6.47 2.64-8-1 .73-3.6 8.851.19 9-4-1.59-4.41-12.27.27-12-6 .01-4.32 7.24-1.43 8-5-4.13-6.87-8.59-13.41-15-18-2.74 1.6-4.93 3.73-8 5-3.5-2.17-7.55-3.78-13-4-11.42 7.58-16.26 21.74-24 33-7.64.65-12.12-1.88-18-3 .17-7.17-8.6-5.4-9-12 3.08-1.96 10.17 4.34 11-3-1.569-2.56-8.609-3.41-6-7 2.53-2.23 4.47 2.18 8 2 4.71-1.64 8.16-9.81 5-16-7.53-.14-16.39 1.06-20-3-.96-4.96 2.67-5.33 3-9-10.16-6.7-21.72-.74-34-6-10.04 7.97-2.74 28.72 1 38-2.89 5.76-10.25 6.61-18 5-3.18-2.48-3.92-7.41-9-8-.899-4.23 5.65-1.02 5-5-.41-3.26-4.76-2.58-7-4 9.561-8.22-3.24-16.23-4-26-3.39.27-8.109-.77-10 1 2.36 12.69-6.069 14.59-12 19-2.81-.85-4.1-3.23-8-3 1.07-7.4-4.68-7.99-8-11-5.77.56-9.33 3.33-14 5-1.2 16.7-3.54 35.83-6 54-10.02-1.12-14.87 5.39-24 2-2.41-1.99 1.66-4.76-1-7-4.399.03-6.27 3.79-8-1 2.21-2.12 9.181.51 8-5-2.01-2.66-8.38-.95-9-5 7.4-.73 13.83-8.42 7-15-12.17 3.17-18.62 12.05-26 20-14.14-.47-15.88 11.45-24 17 4.681 14.66 13.26 25.41 23 35-2.41 5.26-7.13 8.2-10 13-7.59-4.81-10.52 3.13-16 6-.91-4.77 5.271-6 2-10-4.859-.53-3.54 5.13-9 4-1.17-6.17 2.851-7.15 2-13-3.05-4.62-7.14-8.2-14-9-3.68 4.65-6.54 10.12-10 15 4.32 17.35 16.891 26.44 23 42-7.319 4.76-16.08 12.35-24 4 5.9 13.13 23.62 22.19 37 31 10.73 7.06 22.48 6.76 38 8 .87 3.87-4.37 1.63-3 6 5.601 3.2 15.08 7.41 14 14-6.33-1.34-7.24-8.09-14-9 .47 5.45 6.141 10.18 3 16-5.819-1.17-3.83-10.17-10-11-2.29 4.04-1.05 11.62-5 14 .44-12.19-6.25-22.31-17-20 2.061 6.1 4.431 13.9 1 20 2.95 7.05 11.811 8.19 15 15-2.76 2.54-8.02-4.89-11-2 .38 5.11 8.23 5.26 5 11-7.49-1.73-13.79-4.64-21-4 2.891 5.44 11.931 4.73 12 13-5.3 3.6-14.25-1.89-19-5-.439 3.44.4 5.61 1 8-7.34.24-9.439-6.63-16-8-4.439-.93-9.26 1.97-14 1-4.72-.96-6.91-5.37-11-8-8.67-5.57-20.3-9.79-26-17h-4c-5.54-6.46-10.51-13.49-21-15-1.61-1.72-1.97-4.7-4-6-18.22 1.11-23.52 15.15-28 30 1.25 5.75 7.86 6.14 10 11-2.83 3.5-7.98-3.65-9 1 1.18 6.82 9.49 6.51 10 14-4.72 3.4-8.41-6.27-13-3 1.31 7.35 4.97 12.36 5 21-6.7-5.29-6.86-17.13-13-23-6.76.91.83 16.16-6 17-5.48-11.94 1.87-28.82 0-41-2.87-2.36-5.31.64-8-1 .49-12.54 11.23-20.19 15-32 3.37-10.56-.94-22.7 5-35-7.81.15-15.96.63-17-6 1.61-3.65 6.7-9.01 2-13 2.39-1.28 5.42-1.91 6-5 .26-19.74 5-35 15-45 .49-3.16-1.8-3.53-1-7 6.76-15.24 19.4-24.6 25-41 2.69-1.32 5.32-2.68 8-4 6-13.67 18.84-20.5 25-34 14.13-4.2 15.36-21.31 32-23 28.42-31.58 62.78-57.22 103-77 2.36-.02 2.95 1.72 6 1 9.96-10 30.42-1.46 39-13 21.01-4.5 45.181-5.76 64-6 5.641-.07 12.26 3.52 18 4 20.51 1.73 40.28 2.88 55 15 8.26-3.67 16.57 1.33 24 4 3.2-.8 5.05-2.95 9-3 6.45 6.33 18.67.7 25 7 5.41-1.62 10.931-2.51 17-1 9.24-7.22 19.9-10.48 33-13 5.21-1 7.69-6 13-8 7.28-2.74 19.74-2.5 25-3 27.29-2.57 53.41-.28 74 12 11.811 12.85 20.07 29.26 24 50z"/></svg>