<svg xmlns="http://www.w3.org/2000/svg" xmlns:dc="http://dublincore.org/documents/dcmi-terms/" height="660.358" viewBox="0 0 1244.2529 619.08575" width="1327.203"><metadata><dc:description>Silhouette of Baguatherium jaureguii, processed by PhyloPic Tools (https://github.com/eweitz/phylopic-tools)</dc:description><dc:source>http://phylopic.org/image/8c479a50-9e8f-4c85-a726-5022a43f4a52</dc:source><dc:creator>Jesús Gómez, vectorized by Zimices</dc:creator><dc:license>http://creativecommons.org/licenses/by-sa/3.0/</dc:license></metadata><path d="M846.867 618.109c-5.044-.517-9.895-1.885-12.5-3.526-2.34-1.475-7.912-4.418-12.38-6.54-9.524-4.521-14.361-8.883-22.13-19.952l-5.678-8.092.61-11.908c.336-6.55 1.607-14.897 2.824-18.55 1.463-4.391 1.793-7.063.974-7.882-.682-.682-4.555-1.778-8.608-2.436-4.052-.658-9.196-1.534-11.43-1.947-4.843-.896-5.157.475-1.23 5.374 5.036 6.284 3.454 9.154-8.036 14.573l-10.095 4.76-42.039-.462c-47.36-.52-49.562-.865-50.894-7.965-.442-2.356-.497-5.54-.123-7.078a618.4 618.4 0 0 1 1.988-7.795c2.295-8.781 1.626-24.074-1.561-35.658-2.91-10.576-5.92-16.411-13.783-26.711-2.26-2.96-6.66-11.231-9.779-18.381-4.608-10.565-5.84-14.983-6.575-23.587-.498-5.823-1.7-12.123-2.67-14-.971-1.878-1.809-6.957-1.862-11.288-.053-4.331-.787-10.125-1.633-12.875l-1.537-5-6.18.283c-7.794.357-22.026 2.856-23.69 4.16-1.408 1.103-20.069 5.695-26.864 6.61-2.406.324-6.625 1.228-9.375 2.008-6.195 1.758-93.767 1.799-109.375.05-5.843-.654-20.75-1.75-33.125-2.437-21.763-1.207-45.24-3.264-52.063-4.562-3.032-.578-3.473-.122-5.205 5.379-3.495 11.099-7.524 43.552-6.698 53.952 1.148 14.444 7.085 31 17.154 47.829 4.778 7.987 8.687 15.064 8.687 15.726 0 .663 1.407 1.957 3.125 2.877 1.72.92 3.125 2.151 3.125 2.736 0 .585 1.395 3.274 3.1 5.974 1.705 2.701 3.409 7.05 3.786 9.663.603 4.17.156 5.314-3.644 9.333l-4.33 4.581-14.88.42c-13.855.39-15.223.655-19.836 3.856-4.94 3.427-5.017 3.437-26.138 3.373-11.65-.035-25.059-.495-29.797-1.02-7.52-.836-9.068-1.465-12.187-4.956-3.47-3.884-3.574-4.393-3.574-17.704 0-8.868-.632-15.369-1.79-18.418-2.982-7.85-4.19-16.2-5.657-39.088-2.532-39.506-3.768-51.59-7.672-75-2.122-12.719-4.118-24.981-4.437-27.25-.37-2.636-2.707-6.472-6.472-10.63-3.24-3.578-9.729-11.144-14.419-16.813-5.825-7.04-9.374-10.307-11.201-10.307-6.584 0-25.1 18.356-33.352 33.06-1.718 3.064-4.671 6.763-6.562 8.22-1.89 1.459-3.438 3.386-3.438 4.283 0 .897-.917 2.392-2.038 3.323-1.122.93-4.589 5.64-7.705 10.466-3.117 4.825-6.349 9.347-7.183 10.048-2.25 1.893-16.824 30.63-16.824 33.175 0 1.203-2.052 4.632-4.56 7.62-2.509 2.986-5.878 8.243-7.488 11.68-2.773 5.92-2.928 7.616-2.94 32.161-.01 22.511.323 27.022 2.54 34.375 10.871 36.064 11.848 42.417 7.624 49.613-4.078 6.947-7.014 8.079-23.3 8.98-8.25.457-16.126 1.43-17.5 2.163-3.915 2.084-70.186 1.124-74.446-1.078-4.762-2.463-8.309-17.002-6.377-26.144.734-3.476 1.936-16.445 2.67-28.82 1.371-23.1 2.685-34.528 5.101-44.375.76-3.094 1.822-12.094 2.361-20 .54-7.906 1.59-17.469 2.335-21.25 2.018-10.243 4.233-32.33 3.38-33.71-.41-.663.18-4.385 1.31-8.272 1.186-4.078 2.067-11.632 2.083-17.856.017-6.4.763-12.65 1.836-15.368 2.71-6.87 1.785-11.578-2.37-12.058-2.677-.309-3.767.387-5.325 3.4-1.078 2.085-3.036 4.366-4.352 5.07-3.553 1.902-10.615 14.256-14.965 26.176-2.109 5.779-4.73 11.874-5.825 13.545-1.094 1.671-2.795 5.746-3.777 9.056-2.219 7.47-5.663 11.957-8.379 10.915-1.727-.663-1.908-2.628-1.317-14.27 1.084-21.329 5.213-35.163 15.04-50.396 1.558-2.416 3.998-8.04 5.42-12.5 2.972-9.312 6.188-16.302 8.33-18.107.817-.687 2.39-5.75 3.497-11.25 1.107-5.5 3.136-12.338 4.509-15.197 4.255-8.856 9.83-30.46 11.239-43.553.74-6.875 1.775-27.74 2.3-46.365.525-18.626 1.426-34.627 2.001-35.558.576-.931 1.422-12.692 1.88-26.135.82-24.018.911-24.64 5.224-35.9 2.414-6.302 5.572-13.333 7.017-15.625a205.878 205.878 0 0 0 5.083-8.622c1.35-2.451 5.47-7.513 9.153-11.25 7.143-7.247 22.553-19.92 24.222-19.92.553 0 2.442-1.306 4.198-2.902 3.322-3.019 13.227-7.256 28.193-12.06 7.801-2.505 13.958-5 26.25-10.64 22.588-10.365 35.158-13.72 61.25-16.352 19.962-2.013 41.981-5.737 47.5-8.034 9.089-3.782 21.513-5.009 50.726-5.01 23.987-.001 32.017.46 43.125 2.48 11.453 2.08 19.182 2.482 48.024 2.489 18.907.005 39.438-.603 45.625-1.35 6.188-.748 17.438-2.156 25-3.13 7.563-.973 15.74-1.98 18.173-2.236 2.432-.257 7.66-1.14 11.619-1.962 3.958-.821 9.28-1.15 11.827-.73 2.547.421 7.444.164 10.881-.57 5.772-1.233 13.665-2.022 47.54-4.753 17.478-1.409 57.915-.847 62.23.864 1.935.768 8.473 1.396 14.53 1.396 6.991 0 13.008.731 16.48 2.003 6.139 2.248 15.168 3.62 35.783 5.435 14.071 1.239 18.097 2.288 52.812 13.757 26.42 8.73 36.53 12.64 40.503 15.672 4.964 3.785 14.317 8.07 17.697 8.106 1.416.015 5.635 2.642 9.375 5.838s9.894 8.09 13.675 10.875c3.782 2.785 7.619 5.795 8.527 6.689.909.894 2.16 1.625 2.781 1.625.62 0 5.615 4.078 11.097 9.063 13.044 11.858 31.139 21.031 57.717 29.26 1.355.42 2.513-.63 3.609-3.275.887-2.141 2.623-4.434 3.859-5.096 2.464-1.319 12.719-1.588 16.977-.446 2.34.628 18.696 20.717 20.442 25.107.348.876 9.348 10.9 20 22.276l19.366 20.683 15 7.398c15.424 7.607 34.924 14.648 43.75 15.797 3.092.402 8.817-.366 15-2.014 17.267-4.6 29.523-6.41 44.375-6.55 13.165-.123 14.954.146 21.25 3.194 4.275 2.07 8.988 3.333 12.459 3.34 3.07.007 7.852.794 10.625 1.748 9.55 3.288 17.574 4.439 29.443 4.223 11.77-.213 12.023-.154 22.852 5.313 12.638 6.379 15.695 9.174 16.68 15.247.667 4.105.16 4.927-8.167 13.254-6.736 6.736-10.161 9.2-14.197 10.21-2.926.733-7.208 2.181-9.516 3.219-5.55 2.495-23.899 6.732-25.873 5.975-.855-.329-4.379.241-7.83 1.266-4.837 1.437-8.152 3.75-14.458 10.086-4.5 4.522-8.775 8.222-9.501 8.222-1.163 0-10.863 5.803-12.517 7.488-.343.35-1.731 1.25-3.084 1.998s-3.322 2.837-4.375 4.64c-1.054 1.805-3.462 4.468-5.353 5.918-6.298 4.832-4.927 7.91 9.617 21.58 8.158 7.668 14.04 14.33 15.725 17.813 1.482 3.06 3.206 5.563 3.832 5.563a1.13 1.13 0 0 1 1.138 1.116c0 2.231-3.807 2.482-10.64.702-3.84-1-9.345-1.863-12.233-1.919-5.085-.097-7.34-1.108-20.516-9.2-11.507-7.067-20.912-4.414-29.088 8.204-2.173 3.353-4.474 6.097-5.112 6.097-2.712 0-1.059 8.534 2.527 13.046 6.229 7.839 6.817 21.954.914 21.954-3.094 0-5.852 2.116-5.852 4.49 0 .82 2.611 4.394 5.802 7.943l5.802 6.453 10.136-.296c12.68-.37 34.51 1.432 34.51 2.849 0 .583 1.97 1.061 4.375 1.061 2.942 0 4.375.58 4.375 1.77 0 .975.704 2.035 1.563 2.357 2.295.86-2.446 4.303-8.125 5.901-2.578.725-4.688 1.784-4.688 2.353 0 .57-5.484 1.3-12.187 1.626-13.267.643-21.067 3.219-29.063 9.597-5.22 4.165-17.531 9.658-24.062 10.736-2.578.425-4.688 1.197-4.688 1.715s-2.109.972-4.687 1.009c-2.578.036-11.438.47-19.688.964-14.592.874-29.607-.108-46.875-3.065a1377.91 1377.91 0 0 0-17.187-2.801c-4.984-.775-9.063-1.86-9.063-2.41 0-.551-1.056-1.002-2.347-1.002-1.29 0-2.986-.77-3.768-1.713-.782-.942-3.569-2-6.193-2.353-3.909-.524-17.958-5.489-30.817-10.89-1.375-.578-5.875-2.344-10-3.926-4.125-1.582-8.243-3.605-9.151-4.497-.909-.892-2.418-1.62-3.354-1.62-.935 0-2.058-1.126-2.495-2.5-.436-1.376-1.645-2.5-2.685-2.5-1.791 0-25.44-23.351-25.44-25.12 0-.785-9.015-5.406-18.75-9.61-2.406-1.039-5.334-2.358-6.508-2.931-1.173-.574-4.388-1.404-7.144-1.844-5.891-.942-6.053-.683-9.453 15.13-3.629 16.875-7.263 26.958-12.58 34.896-13.443 20.077-13.49 27.275-.196 30.808 9.257 2.46 22.651 7.61 26.143 10.052 7.913 5.533 22.247 12.146 30.62 14.126 15.541 3.676 24.378 9.674 35.568 24.142 4.666 6.032 4.997 6.977 4.392 12.5-.751 6.85-2.844 19.369-4.76 28.475-1.499 7.122-.872 22.467 1.237 30.267.783 2.897 2.831 8.345 4.552 12.107 2.67 5.836 3.13 8.664 3.13 19.252 0 18.699.818 18.118-40.77 28.914-5.538 1.437-14.952 1.482-28.1.136z"/></svg>