<svg xmlns="http://www.w3.org/2000/svg" xmlns:dc="http://dublincore.org/documents/dcmi-terms/" height="1052.362" width="744.094"><metadata><dc:description>Silhouette of Balanoglossus simodensis, processed by PhyloPic Tools (https://github.com/eweitz/phylopic-tools)</dc:description><dc:source>http://phylopic.org/image/6da2be3e-7a94-44ec-b4da-09169647d961</dc:source><dc:creator>Mali&apos;o Kodis, drawing by Manvir Singh</dc:creator><dc:license>http://creativecommons.org/licenses/by-nc-sa/3.0/</dc:license></metadata><path d="M68.744 190.243c1.68-7.724 6.806-14.463 8.729-22.134 2.807-11.198 2.139-22.237 3.968-34.345 1.74-11.516 16.048-14.906 20.633-24.424 1.81-3.757 1.592-2.633 2.38-12.211.928-11.263-.536-20.945 3.175-30.53 3.047-7.871 3.967-14.501 15.077-20.607s31.743 9.159 41.266 30.53c9.523 21.37 15.872 35.108 17.459 48.846 1.587 13.738-6.349 26.713-6.349 47.32 0 19.845 13.549 18.95 12.697 32.056-.793 12.212-6.348 15.265-17.458 16.791-11.11 1.527-36.505-1.526-36.505-1.526s23.861 3 30.156 11.449c6.325 8.488.688 20.885 1.587 31.292.75 8.68 1.464 17.397 3.175 25.95 1.345 6.727-1.588 5.343 5.555 19.844 6.794 13.795 1.803 15.725-3.968 19.08-4.012 2.333-9.61-1.287-13.49-3.815-3.9-2.541-5.08-7.823-8.73-10.686-8.25-6.472-28.569-13.738-28.569-13.738l7.142 10.685s6.25 6.305 8.73 9.922c7.163 10.449 15.333 21.235 17.458 33.583 1.919 11.146-6.274 22.378-4.761 33.582 2.841 21.037 19.045 20.607 25.394 58.769 6.349 38.161 7.854 51.01 4.761 76.323-2.45 20.063 8.405 42.025-18.252 58.005-5.683 3.408 9.523 1.527 19.84-3.052 14.836-6.586 14.284 19.844 14.284 19.844s-9.523 9.158-20.633 15.264-3.174 12.212-3.174 12.212 18.797-9.347 26.981-5.343c5.698 2.788 9.857 10.927 7.936 16.791-2.031 6.201 3.174 8.396-17.459 9.922-20.633 1.527-30.155 4.58-30.155 10.686s12.354 6.054 19.045 6.106c5.27.04 9.808-4.561 15.078-4.58 7.196-.025 17.28-.018 20.633 6.106 4.132 7.547-2 18.086-7.936 24.423-9.833 10.5-36.025 3.324-40.472 16.791-1.689 5.116 3.393 12.17 8.73 13.739 9.734 2.862 13.49-12.212 27.774-12.212 14.285 0 20.633 0 15.872 7.632-4.762 7.633-7.936 9.16-19.046 13.738-11.11 4.58-36.504 13.739-36.504 13.739s-3.174 16.79 6.348 13.738c9.523-3.053 19.046-18.318 30.156-15.265 11.11 3.053 7.936 16.791 1.587 21.37-6.348 4.58-24.58-2.474-26.981 6.107-1.702 6.082 8.602 9.843 14.284 12.974 5.738 3.162 13.505 1.872 19.046 5.343 5.505 3.45 8.301 9.804 12.697 14.501 12.766 13.642 29.055 24.443 39.679 39.689 9.495 13.626 15.871 25.186 20.632 45.03 4.762 19.844 10.275 22.148 20.633 27.477 12.605 6.484 29.993 7.527 42.853 1.526 21.802-10.173 39.679-16.791 42.853-56.48 3.174-39.687-5.147-50.317-6.349-75.56-1.113-23.382-2.723-45.58-.793-70.216 1.787-22.828 8.281-50.004 29.362-62.585 17.702-10.566 17.485-17.501 61.899-16.028 46.027 1.526 74.595 11.448 85.705 22.133 11.11 10.686 29.084 39.052 34.917 61.822 8.734 34.093 3.694 70.583-1.587 105.326-4.215 27.732-28.568 56.48-23.807 80.903 4.761 24.423 30.156 56.479 57.137 50.373 26.982-6.106 39.679-16.028 42.853-35.872 3.174-19.844 1.587-51.136-1.587-61.822-3.174-10.685-14.284-36.635-4.762-42.74 9.523-6.106 28.849 20.69 35.711 35.871 11.198 24.771 9.019 54.204 4.762 80.903-4.213 26.42-16.665 54.19-54.757 61.822-38.091 7.632-92.848 15.264-119.83-18.318-26.98-33.582-48.407-47.32-27.774-105.326 20.633-58.006 38.091-88.535 30.156-108.379-7.936-19.844-29.022-41.245-49.202-36.635-19.109 4.365-21.427 32.636-25.394 51.137-5.507 25.683 3.174 58.768 3.174 78.612 0 19.845 3.175 82.43-11.11 97.694-14.284 15.265-63.485 54.953-93.641 54.953-30.156 0-63.486 3.053-99.99-25.95s-71.422-41.215-93.642-68.69c-22.22-27.477-44.44-50.374-44.44-80.903 0-30.53 0-42.741 7.936-45.794 7.936-3.053 12.697-14.502-3.174-9.922-15.872 4.579-38.97 3.339-23.807-6.87 15.871-10.685 11.903-18.317-3.175-13.738-14.278 4.337 6.349-21.37 6.349-21.37s13.023-6.563 11.11-11.449c-2.81-7.178-23.807-2.29-23.807-2.29s-5.45-2.186-6.349-4.579c-1.94-5.165.079-12.007 3.968-16.028 3.59-3.71 9.973-3.317 15.078-4.579 2.613-.646 5.277-1.088 7.936-1.526 3.687-.608 10.614 2.04 11.11-1.527 1.68-12.086-27.953-4.313-34.917-14.501-2.325-3.402-3.065-9.405 0-12.212 7.862-7.202 27.248 10.648 32.536 1.526 2.501-4.314-4.341-9.644-8.73-12.211-7.288-4.264-19.748 3.098-25.394-3.053-2.8-3.052-3.229-9.58 0-12.212 3.684-3 9.511 2.98 14.285 2.29 2.924-.423 7.92-.972 7.935-3.816.06-11.15-26.158-5.11-30.949-15.265-1.352-2.866-15.475-6.657 2.38-9.159 4.806-.673 23.377 5.546 24.602-2.29 1.022-6.54-17.534-1.179-19.046-7.632-.782-3.339 4.426-5.421 7.142-7.632 5.265-4.286 19.284-4.288 17.459-10.685-2.24-7.855-18.193 3.522-25.395-.764-13.285-7.905-17.775-4.85-22.22-39.688-5.018-39.334 10.317-63.348 10.317-81.665 0-18.318-24.6-30.53-16.665-74.797 7.935-44.268 20.633-54.19 20.633-54.19l11.11-22.133-11.11-.764s-25.395-3.053-14.285-36.635 46.821-56.479 46.821-56.479-26.777-2.013-33.33-11.448c-2.942-4.237-.291-10.278.794-15.265z" stroke="#030000" stroke-width="5.393"/></svg>