<svg xmlns="http://www.w3.org/2000/svg" xmlns:dc="http://dublincore.org/documents/dcmi-terms/" height="792" version="1.2" viewBox="0 0 612 792" width="612"><metadata><dc:description>Silhouette of Balaenoptera (Balaenoptera), processed by PhyloPic Tools (https://github.com/eweitz/phylopic-tools)</dc:description><dc:source>http://phylopic.org/image/8366482f-d41c-4ab2-8403-3d70fb04ad5f</dc:source><dc:creator>Chris huh</dc:creator><dc:license>http://creativecommons.org/licenses/by-sa/3.0/</dc:license></metadata><path d="M259.95 286c3.633.1 7.25.233 10.85.4 3.567.166 7.117.35 10.65.55 3.533.167 7.083.366 10.65.6 3.533.2 7.066.434 10.6.7 3.533.267 7.05.55 10.55.85 3.467.268 6.95.584 10.45.95 3.5.3 7.017.65 10.55 1.05 3.5.334 6.983.717 10.45 1.15 3.466.4 6.966.833 10.5 1.3 3.5.434 7 .9 10.5 1.4 3.5.467 7.017.967 10.55 1.5 3.5.533 7.017 1.083 10.55 1.649 3.534.567 7.083 1.167 10.65 1.801 3.566.6 7.134 1.232 10.7 1.899 3.566.634 7.166 1.3 10.8 2 3.6.7 7.216 1.417 10.85 2.15 3.667.733 7.333 1.5 11 2.3 3.634.767 7.317 1.566 11.05 2.4 3.734.833 7.484 1.699 11.25 2.6a798.87 798.87 0 0 1 11.351 2.7c3.767.899 7.6 1.833 11.5 2.8 3.866.967 7.767 1.967 11.7 3 3.899 1 7.833 2.033 11.8 3.1l17.75 4.601c2.933.733 5.866 1.45 8.8 2.149l49.4 10.801c2.5.467 4.949.916 7.35 1.35 2.401.434 4.767.85 7.1 1.25 2.268.367 4.5.717 6.7 1.05 2.167.333 4.267.65 6.3.95 2 .3 3.95.566 5.851.8 1.899.233 3.716.434 5.45.601 1.699.166 3.333.316 4.899.449 1.567.101 3.034.184 4.4.25 1.399.067 2.7.101 3.899.101.434 0 .95.05 1.551.149.6.067 1.3.2 2.1.4.8.167 1.684.367 2.65.6.934.268 1.949.567 3.05.9 1.1.3 2.283.65 3.55 1.05l46.65 17.75 30.149 13 34.45 16 19.9 10.15c1 .6 1.966 1.167 2.899 1.7a61.38 61.38 0 0 1 2.65 1.6c.833.533 1.633 1.05 2.399 1.55.767.467 1.483.95 2.15 1.45.667.5 1.316 1 1.95 1.5.6.467 1.184.934 1.75 1.4.533.467 1.05.949 1.55 1.449.467.467.934.95 1.4 1.45.466.467.899.95 1.3 1.45.434.5.85 1.017 1.25 1.55.366.5.733 1.033 1.1 1.601a31.497 31.497 0 0 1 1.601 2.55c.466.8.883 1.55 1.25 2.25.333.7.6 1.383.8 2.05.166.633.283 1.233.35 1.8.134 1.134 0 2.184-.399 3.15-.434.933-1.101 1.816-2 2.649-.367.301-.733.601-1.101.9-.399.267-.833.533-1.3.8-.434.267-.934.517-1.5.75-.566.233-1.167.467-1.8.7-.667.233-1.4.45-2.2.65-.8.199-1.65.416-2.55.649-.934.2-1.95.4-3.05.601-1.101.166-2.284.35-3.551.55-1.3.2-2.683.399-4.149.6l-123.3 10.4-38.551 2.5-42.05 1.1-41.2-.25-50.899-2.75-15.65 9.101-11.3 4.85-1.3.45c-.833.233-1.7.483-2.601.75-.934.233-1.916.467-2.949.7l-3.101.6c-1.066.2-2.149.4-3.25.6-1.1.167-2.167.317-3.2.45-1.1.134-2.149.267-3.149.4-1.034.1-2.017.2-2.95.3-.934.066-1.8.117-2.6.15l-3.95-.051c-1-.1-1.517-.333-1.55-.699 0-.134.066-.301.199-.5.134-.233.316-.518.551-.851.199-.333.467-.683.8-1.05.3-.4.649-.833 1.05-1.3l1.25-1.4c.434-.5.9-.983 1.4-1.45l5.1-5.199-13.05 6.1c-1.233.566-2.434 1.117-3.601 1.65-1.166.5-2.283.967-3.35 1.399-1.1.434-2.184.851-3.25 1.25-1.1.367-2.166.717-3.2 1.05-1.066.334-2.149.65-3.25.95l-3.3.8a78.206 78.206 0 0 1-3.55.75c-1.2.233-2.45.45-3.75.65l-5.65.85-17.2.95-1.85-.1c-.6-.067-1.166-.117-1.7-.15-.5-.066-.966-.149-1.399-.25a8.096 8.096 0 0 1-1.2-.25 5.206 5.206 0 0 1-.95-.35c-.533-.267-.85-.55-.95-.851-.033-.1 0-.217.101-.35.1-.167.25-.383.449-.65.2-.232.45-.5.75-.8l2.4-2.25L392 457.65a443.546 443.546 0 0 1 4.3-3.301c1.2-.967 2.25-1.816 3.15-2.55a63.947 63.947 0 0 0 2.149-1.899c1.101-1.033 1.667-1.768 1.7-2.2.034-.434-.316-.684-1.05-.75l-35.8-4.851-89.8-13.5-16.6-2.949c-1.7-.334-3.216-.65-4.55-.95a639.92 639.92 0 0 1-3.6-.8l-57.949-11.6-18.05-2.649-11.05-1-33.25-.9-28.45.75c-2 .1-3.95.25-5.85.45-1.933.2-3.783.417-5.55.649-1.8.233-3.55.5-5.25.801a81.872 81.872 0 0 0-5.1.949c-1.667.367-3.316.768-4.95 1.2-1.667.4-3.3.867-4.9 1.4-1.633.467-3.283 1-4.95 1.6-1.7.601-3.4 1.233-5.1 1.9-1.7.667-3.45 1.383-5.25 2.149a110.91 110.91 0 0 0-5.55 2.4 700.311 700.311 0 0 0-5.85 2.75 509.353 509.353 0 0 0-6.3 3.05c-2.033.967-4.05 1.934-6.05 2.9a6143.86 6143.86 0 0 1-6 2.85c-2 .9-3.983 1.8-5.95 2.7-1.966.9-3.917 1.767-5.85 2.6-1.934.834-3.85 1.667-5.75 2.5A681.05 681.05 0 0 1 3.3 443.7a976.987 976.987 0 0 0-5.55 2.2 305.217 305.217 0 0 1-5.4 2.1c-1.8.667-3.567 1.316-5.3 1.95-1.767.633-3.483 1.25-5.15 1.85a818.33 818.33 0 0 1-5 1.65l-4.85 1.55-10.45 3.15-4.45 9.35-1.6 3.3a146.296 146.296 0 0 1-1.75 3.2 256.864 256.864 0 0 0-1.9 3.15 94.11 94.11 0 0 1-1.95 3.05c-.7 1-1.4 1.983-2.1 2.95-.7.967-1.417 1.933-2.15 2.899a86.818 86.818 0 0 1-2.25 2.75c-.767.867-1.534 1.733-2.3 2.601l-2.35 2.449c-.8.801-1.6 1.567-2.4 2.301-.833.732-1.65 1.449-2.45 2.149a124.99 124.99 0 0 1-2.5 1.95l-8.3 5.5c-.533.267-.983.483-1.35.65-.366.133-.65.199-.85.199-.267 0-.534-.033-.8-.1a5.317 5.317 0 0 1-.85-.3c-.3-.134-.6-.283-.9-.45-.3-.2-.617-.417-.95-.65-.3-.232-.617-.482-.95-.75-.333-.267-.65-.55-.95-.85-.333-.333-.65-.667-.95-1-.333-.333-.65-.684-.95-1.05-.3-.367-.583-.733-.85-1.101a11.31 11.31 0 0 1-.8-1.1 60.08 60.08 0 0 1-.75-1.15c-.233-.399-.45-.783-.65-1.149-.2-.4-.367-.783-.5-1.15a8.272 8.272 0 0 1-.4-1.05 4.33 4.33 0 0 1-.25-1c-.067-.333-.1-.65-.1-.95l-.05-1.7a6.17 6.17 0 0 0-.1-1.199c-.1-.334-.233-.584-.4-.75-.2-.2-.45-.317-.75-.351h-.35a2.824 2.824 0 0 0-.9.05l-12.75 4-3.7.601h-.6c-.434 0-.867-.017-1.3-.05l-1.05-.101-7.05-1.25a61.748 61.748 0 0 0-4.55-.85c-1.6-.233-3.216-.434-4.85-.601a82.907 82.907 0 0 0-5.1-.449c-1.733-.101-3.5-.184-5.3-.25l-4.1-.051c-1.167 0-2.35.018-3.55.051-1.2 0-2.417.033-3.65.1-1.934.1-3.917.217-5.95.35a131.62 131.62 0 0 0-6.15.551c-1.367.133-2.767.283-4.2.449l-4.25.551a89.273 89.273 0 0 0-4.35.6l-13.45 2.4c-.633.133-1.2.232-1.7.3-.5.033-.917.066-1.25.1-.434 0-.767-.05-1-.149-.233-.101-.367-.233-.4-.4-.066-.167-.033-.35.1-.55.1-.233.284-.5.55-.8.767-.934 2.267-2.233 4.5-3.9 1.1-.833 2.4-1.767 3.9-2.8a143.903 143.903 0 0 1 5-3.351c1.633-1.1 3.367-2.217 5.2-3.35a367.123 367.123 0 0 1 5.7-3.45c1.967-1.167 4-2.333 6.1-3.5a224.49 224.49 0 0 1 6.45-3.6l42.7-20.851 38.05-15.449 4.75-10a121.196 121.196 0 0 1 7.15-12.9c2.6-4.167 5.466-8.2 8.6-12.1 3.133-3.9 6.583-7.733 10.35-11.5 3.733-3.768 7.8-7.467 12.2-11.101l9.8-7.75L-12 360.65l27.35-15.75c2-1.067 3.95-2.117 5.85-3.15a341.671 341.671 0 0 1 5.45-3.05c1.733-1 3.417-1.983 5.05-2.95 1.6-.967 3.15-1.9 4.65-2.8 1.466-.934 2.883-1.833 4.25-2.7a161.22 161.22 0 0 0 3.9-2.55c3.667-2.5 6.733-4.817 9.2-6.95 2.433-2.133 4.283-4.05 5.55-5.75 1.233-1.733 1.85-3.267 1.85-4.6 0-.334-.133-.717-.4-1.15-.267-.434-.634-.9-1.1-1.4l-.8-.699a6.496 6.496 0 0 0-.9-.75l-1-.7a11.07 11.07 0 0 0-1.05-.65 49.555 49.555 0 0 1-2.35-1.399 24.587 24.587 0 0 1-2.05-1.45 21.263 21.263 0 0 1-1.8-1.4c-.533-.466-1-.933-1.4-1.399-.434-.467-.8-.9-1.1-1.301a6.258 6.258 0 0 1-.7-1.149c-.333-.8-.333-1.45 0-1.95.1-.167.35-.316.75-.45.366-.133.866-.25 1.5-.35l4.8-.5 14.4.1 5.4.55 2 .45c.267.067.5.134.7.2 1.933.733 4.367 1.3 7.3 1.7 1.434.2 2.983.366 4.65.5 1.633.1 3.366.183 5.2.25h2.95c1.367 0 2.8-.017 4.3-.05 1.467-.067 2.967-.134 4.5-.2 1.367-.067 2.767-.15 4.2-.25 1.433-.134 2.883-.267 4.35-.4 1.466-.133 2.95-.283 4.45-.45 1.467-.199 2.95-.399 4.45-.6 1.5-.201 3.017-.417 4.55-.65 1.5-.232 3.017-.482 4.55-.75 1.5-.267 3.017-.55 4.55-.85 1.5-.3 3-.617 4.5-.95 1.5-.333 2.983-.667 4.45-1 1.6-.399 3.316-.783 5.15-1.149 1.867-.367 3.833-.7 5.9-1 1.367-.2 2.8-.4 4.3-.601 1.5-.201 3.034-.383 4.6-.55 1.6-.167 3.233-.333 4.9-.5 1.667-.167 3.4-.316 5.2-.45l42.65-1.6 31.45.25a562 562 0 0 1 10.85.297z" fill="#010101" fill-rule="evenodd"/></svg>