<svg xmlns="http://www.w3.org/2000/svg" xmlns:dc="http://dublincore.org/documents/dcmi-terms/" height="792" version="1.2" viewBox="0 0 612 792" width="612"><metadata><dc:description>Silhouette of Balaenoptera borealis, processed by PhyloPic Tools (https://github.com/eweitz/phylopic-tools)</dc:description><dc:source>http://phylopic.org/image/8f46e2da-12f6-4ceb-8612-8ebe417b178d</dc:source><dc:creator>Chris huh</dc:creator><dc:license>http://creativecommons.org/licenses/by-sa/3.0/</dc:license></metadata><path d="M503.2 352.9c1.366.133 2.7.267 4 .399 1.3.101 2.583.2 3.85.3 1.233.067 2.417.134 3.55.2 1.134.033 2.234.05 3.301.05 1.533 0 3.149.067 4.85.2 1.7.101 3.467.283 5.3.55 1.8.267 3.684.584 5.65.95 1.933.367 3.917.8 5.95 1.3 2.033.5 4.116 1.051 6.25 1.65 2.133.566 4.3 1.217 6.5 1.95 1.467.467 2.949.967 4.449 1.5 1.5.5 3.018 1.033 4.551 1.6 1.5.566 3.033 1.15 4.6 1.75 1.533.601 3.084 1.233 4.65 1.9 1.566.633 3.149 1.3 4.75 2 1.566.7 3.149 1.416 4.75 2.149 1.6.733 3.199 1.483 4.8 2.25 1.6.767 3.2 1.567 4.8 2.4 1.6.8 3.217 1.616 4.85 2.45l3.5 1.899c1.101.601 2.134 1.184 3.101 1.75a86.95 86.95 0 0 1 2.7 1.551c.833.5 1.6.982 2.3 1.449.667.467 1.283.9 1.85 1.301.567.399 1.083.8 1.55 1.199.434.334.816.684 1.15 1.051.3.333.566.649.8.949l6.4 7.9 1 1.2c.333.433.634.85.899 1.25.268.366.518.733.75 1.1.2.333.384.667.551 1 .133.267.232.517.3.75.033.233.05.417.05.55-.233.667-.816 1.351-1.75 2.051a30.766 30.766 0 0 1-3.8 2.15c-.8.333-1.667.684-2.601 1.05-.899.334-1.866.667-2.899 1-1.067.334-2.15.667-3.25 1-1.167.301-2.351.601-3.55.9-1.234.3-2.484.6-3.75.9a183.28 183.28 0 0 0-3.95.75 152.315 152.315 0 0 1-8.2 1.199l-10.3 1.5-36 7.601-33.7 6-28.3 3.55-29.9 2.5-32.649 1.15-5.351 5.449-1.45 1.45-1.6 1.4-1.7 1.399c-.566.467-1.149.917-1.75 1.351-.6.399-1.183.8-1.75 1.2-.566.399-1.134.783-1.7 1.149-.566.333-1.1.65-1.6.95-.533.3-1.033.583-1.5.85-.5.233-.95.434-1.35.601-.434.167-.816.3-1.15.399a4.619 4.619 0 0 1-.9.101c-.266 0-.467-.05-.6-.15-.3-.2-.483-.616-.55-1.25a4.915 4.915 0 0 1 0-1c.033-.366.083-.733.149-1.1.167-.667.25-1.15.25-1.45 0-.1-.033-.184-.1-.25s-.15-.083-.25-.05h-.15a3.241 3.241 0 0 0-.75.25 7.633 7.633 0 0 0-1.149.6l-3.75 2.101c-.9.5-1.8.982-2.7 1.449-.9.467-1.816.9-2.75 1.301-.934.399-1.85.783-2.75 1.149-.934.367-1.85.7-2.75 1-.934.3-1.816.567-2.65.8-.866.233-1.699.45-2.5.65-.833.167-1.616.316-2.35.45-.733.1-1.416.167-2.05.2h-.851c-.467 0-.883-.018-1.25-.051-.399-.066-.75-.133-1.05-.199-.833-.268-1.35-.684-1.55-1.25-.033-.134.05-.384.25-.75.166-.367.434-.834.8-1.4l12.2-15.95a44.369 44.369 0 0 0 1.4-1.899c.366-.567.649-1.018.85-1.351.367-.667.45-1.083.25-1.25-.2-.167-.584-.25-1.15-.25l-61.449 1.75-32.101-.2-47.45-2.3-48.9-5.25a148.07 148.07 0 0 0-3.35-.25 101.624 101.624 0 0 0-3-.149c-1-.033-1.934-.051-2.8-.051h-.5c-.8 0-1.566.018-2.3.051-.733 0-1.434.033-2.1.1l-10.85 1.25-36.45 7.05L90.3 444.9c-.667.199-1.267.416-1.8.649-.533.167-1.017.351-1.45.55-.433.2-.833.417-1.2.65-.367.2-.7.45-1 .75a6.41 6.41 0 0 0-.95.95c-.3.333-.6.733-.9 1.2-.3.433-.633.949-1 1.55a30.21 30.21 0 0 0-1.15 1.95c-.3.566-.65 1.149-1.05 1.75-.433.6-.883 1.25-1.35 1.949a63.671 63.671 0 0 1-1.5 2.051 101.96 101.96 0 0 1-1.75 2.199c-.6.733-1.217 1.5-1.85 2.301-.667.732-1.333 1.5-2 2.3l-2.1 2.3a137.06 137.06 0 0 1-4.3 4.5l-2.15 2.15a1227.89 1227.89 0 0 1-4.2 3.8c-.434.333-.867.683-1.3 1.05-.466.3-.9.6-1.3.9-.434.3-.85.566-1.25.8-.4.234-.767.45-1.1.649-.367.167-.683.301-.95.4-.267.099-.483.15-.65.15-.3 0-.616-.067-.95-.2a15.643 15.643 0 0 1-1.15-.65c-.4-.3-.817-.649-1.25-1.05a14.899 14.899 0 0 1-1.3-1.25c-.433-.467-.85-.934-1.25-1.4a33 33 0 0 1-1.1-1.449 27.334 27.334 0 0 1-.85-1.45c-.233-.467-.417-.9-.55-1.3-.1-.434-.283-.783-.55-1.051-.267-.232-.667-.399-1.2-.5-.233-.066-.5-.1-.8-.1l-1.5-.05-7.85.35a31.91 31.91 0 0 0-1.75-.05l-1.7-.2a23.567 23.567 0 0 1-1.65-.25c-.6-.133-1.183-.267-1.75-.399a72.728 72.728 0 0 1-1.8-.45c-.633-.2-1.267-.417-1.9-.65a21.24 21.24 0 0 0-1.55-.45 15.54 15.54 0 0 0-1.7-.399l-1.8-.4-10-1.1-7.55.1c-.6.033-1.15.101-1.65.2-.5.033-.983.1-1.45.2-.467.1-.883.2-1.25.3-.4.1-.75.217-1.05.35-.5.2-.934.351-1.3.45-.4.101-.75.15-1.05.15-.633 0-1.067-.184-1.3-.55-.267-.367-.3-.867-.1-1.5.1-.334.25-.684.45-1.051.2-.399.467-.816.8-1.25 1.3-1.8 3.083-3.666 5.35-5.6 2.233-1.967 4.85-3.95 7.85-5.95 1.467-1 3.017-2 4.65-3 1.634-1 3.333-1.983 5.1-2.95a166.816 166.816 0 0 1 5.45-2.85c1.867-.934 3.783-1.85 5.75-2.75 1.933-.9 3.9-1.767 5.9-2.6 2-.834 4.017-1.617 6.05-2.351a146.89 146.89 0 0 1 6.1-2.149c2.034-.7 4.067-1.334 6.1-1.9.434-.133.85-.267 1.25-.4s.767-.283 1.1-.449c.333-.167.667-.351 1-.551.3-.232.6-.482.9-.75.267-.267.55-.583.85-.949.3-.367.6-.75.9-1.15.3-.467.633-.967 1-1.5.367-.566.75-1.184 1.15-1.85 2.467-4.167 5.583-8.384 9.35-12.65 3.767-4.266 8.1-8.517 13-12.75a160.63 160.63 0 0 1 7.8-6.4 227.743 227.743 0 0 1 8.55-6.35c3-2.1 6.117-4.2 9.35-6.3a307.896 307.896 0 0 1 10.05-6.15c3.467-2.066 7.05-4.1 10.75-6.1s7.517-3.983 11.45-5.95a285.277 285.277 0 0 1 12-5.75c4.133-1.9 8.333-3.767 12.6-5.6l25.05-11.2 1.2-.7 1-.7c.3-.233.567-.45.8-.649.533-.434 1-.867 1.4-1.301.4-.433.8-.916 1.2-1.449 1.133-1.467 1.866-3.034 2.2-4.7.3-1.7.233-3.434-.2-5.2-.467-1.8-1.284-3.6-2.45-5.4-1.2-1.767-2.767-3.483-4.7-5.149-.7-.601-1.283-1.15-1.75-1.65-.533-.533-.95-1-1.25-1.399-.633-.834-.85-1.467-.65-1.9.167-.467.733-.75 1.7-.85a8.93 8.93 0 0 1 1-.051 6.79 6.79 0 0 1 1.4.051c.5.033 1.05.083 1.65.149.9.101 1.783.25 2.65.45.833.167 1.633.384 2.4.65.8.233 1.583.5 2.35.8.733.333 1.467.7 2.2 1.1.7.4 1.417.851 2.15 1.351.7.5 1.4 1.05 2.1 1.649.7.566 1.433 1.217 2.2 1.95.7.7 1.433 1.45 2.2 2.25.5.533.983 1.033 1.45 1.5.466.467.933.917 1.4 1.35.433.434.883.834 1.35 1.2l1.3 1.101c.434.333.867.649 1.3.949.433.267.883.534 1.35.801.434.233.883.466 1.35.699.467.2.95.4 1.45.601.466.166.966.333 1.5.5.533.133 1.066.25 1.6.35.533.134 1.116.25 1.75.351.6.066 1.216.133 1.85.199.633.067 1.3.117 2 .15l70.4-.9 49.65.397 40.2 3.15 54 8.5 28.15 6.1c1.2.333 2.45.667 3.75 1 1.3.3 2.634.6 4 .9 1.333.3 2.716.6 4.149.899 1.4.267 2.816.533 4.25.8a189.7 189.7 0 0 0 4.301.75c1.434.233 2.883.467 4.35.7 1.434.2 2.85.4 4.25.601l4.2.5z" fill="#010101" fill-rule="evenodd"/></svg>