<svg xmlns="http://www.w3.org/2000/svg" xmlns:dc="http://dublincore.org/documents/dcmi-terms/" height="792" version="1.2" viewBox="0 0 612 792" width="612"><metadata><dc:description>Silhouette of Balaenoptera acutorostrata, processed by PhyloPic Tools (https://github.com/eweitz/phylopic-tools)</dc:description><dc:source>http://phylopic.org/image/374accb5-16d5-4cb9-a67a-e881ddfec114</dc:source><dc:creator>Chris huh</dc:creator><dc:license>http://creativecommons.org/licenses/by-sa/3.0/</dc:license></metadata><path d="M120.05 418.3c3.434-1.5 6.684-2.616 9.75-3.35s5.917-1.101 8.55-1.101c.967 0 1.917.051 2.851.15.934.099 1.85.25 2.75.45l.05.05c.233 0 .533-.15.9-.45.233-.167.483-.383.75-.649l.899-.9c.334-.367.684-.767 1.05-1.2.367-.433.75-.917 1.15-1.45.333-.433.717-.883 1.15-1.35.433-.5.899-1.017 1.399-1.55.467-.533.983-1.083 1.55-1.65l8.301-7.8 29-23.2 26.65-18.15c.733-.5 1.434-.983 2.101-1.45a47.348 47.348 0 0 0 1.75-1.351 75.14 75.14 0 0 0 1.5-1.25c.433-.399.85-.783 1.25-1.149.399-.4.783-.8 1.149-1.2.334-.434.667-.85 1-1.25.434-.6.834-1.184 1.2-1.75.333-.6.616-1.167.85-1.7.4-1.066.551-2.1.45-3.1-.1-1-.467-2.033-1.1-3.101-.3-.533-.684-1.083-1.15-1.649-.467-.601-.983-1.2-1.55-1.8-.3-.334-.583-.684-.85-1.051a6.084 6.084 0 0 1-.75-1.149 9.353 9.353 0 0 1-.551-1.2 4.916 4.916 0 0 1-.35-1.05c-.1-.5-.15-.9-.15-1.2 0-.333.051-.583.15-.75.099-.167.283-.3.55-.4.267-.1.617-.183 1.05-.25h.45c.334-.033.8 0 1.4.101l1.35.25 9.601 2.95c.433.166.833.333 1.199.5.7.333 1.15.616 1.351.85.066.1.2.217.399.35.167.101.367.233.601.4l2.75 1.15c.3.1.616.199.95.3.333.066.666.116 1 .149.433.067.933.101 1.5.101h.85a40 40 0 0 0 1.6-.15l7.7-1.05c1.533-.267 3.134-.517 4.8-.75 1.667-.233 3.367-.45 5.101-.65l23.1-2.25 34.55-1.699 26.601.5L412 332.8l20.6.7 18.851 1.25 31.55 4.7 7.95 1.95c.767.199 1.517.416 2.25.649.7.2 1.35.417 1.95.65.6.233 1.166.45 1.699.649.534.233 1.017.45 1.45.65.4.233.767.45 1.101.65.633.433 1.05.85 1.25 1.25.066.166.166.333.3.5.133.166.283.316.45.449.166.101.35.2.55.301.2.1.383.166.55.199.167 0 .333.033.5.101.2.066.4.167.6.3.167.1.351.217.551.35.199.101.399.233.6.4l.5.5c.3.333.533.617.7.85.166.2.267.417.3.65 0 .2-.033.417-.1.65a6.91 6.91 0 0 1-.5.899c-.534.867-1.65 1.833-3.351 2.9-.833.533-1.833 1.1-3 1.7-1.2.6-2.533 1.232-4 1.899a276.66 276.66 0 0 1-5 2.05c-1.866.733-3.899 1.5-6.1 2.301l-44.15 14.5-24.649 7.1-42.75 10.8-.9.3a8.904 8.904 0 0 0-1.45.551 8.662 8.662 0 0 0-1.1.649c-.367.2-.717.45-1.05.75l-1.101.95-1.8 1.4c-.6.466-1.184.916-1.75 1.35-.6.434-1.184.85-1.75 1.25-.6.367-1.184.733-1.75 1.1-.6.367-1.167.717-1.7 1.051-.566.3-1.116.6-1.649.899-.567.267-1.101.517-1.601.75-.533.233-1.05.45-1.55.65-.5.167-.983.333-1.45.5-.467.1-.916.2-1.35.3-.367.066-.717.133-1.05.2-.334.033-.65.05-.95.05h-.351c-.633-.033-1.116-.117-1.449-.25-.367-.133-.584-.35-.65-.65-.1-.3-.05-.717.15-1.25.066-.3.183-.616.35-.949l1.4-3c.1-.268.166-.467.199-.601l.051-.149-.051-.101-88.25 4.5L214 412.3l-9.55 3.8c-1.834.7-3.65 1.4-5.45 2.101-1.8.667-3.583 1.333-5.35 2-1.801.6-3.567 1.2-5.301 1.8-1.734.6-3.433 1.167-5.1 1.7a201.217 201.217 0 0 1-9.549 2.8c-1.533.4-3 .783-4.4 1.15a153.72 153.72 0 0 1-4 .899c-1.3.267-2.517.5-3.649.7-1.134.167-2.2.316-3.2.45-.634.066-1.233.116-1.8.149a29.67 29.67 0 0 1-1.601.051c-.566 0-1.066-.018-1.5-.051l-3.649-.35L128.6 449.3l-7.55 5.9c-.833.6-1.633 1.2-2.399 1.8a135.08 135.08 0 0 0-2.351 1.6c-.767.5-1.5.983-2.2 1.45-.733.467-1.433.9-2.1 1.3a62.321 62.321 0 0 1-2.5 1.45l-1.8.9c-.533.2-.934.3-1.2.3-.266 0-.417-.1-.45-.3-.066-.233 0-.55.2-.95.167-.4.45-.917.85-1.55.4-.634.917-1.384 1.551-2.25.6-.9 1.316-1.9 2.149-3l1.3-1.75 14.15-22.65c.267-.566.483-1.033.65-1.399.133-.367.199-.667.199-.9a2.484 2.484 0 0 0-.25-.85c-.133-.268-.35-.601-.649-1a11.969 11.969 0 0 0-3.5-3.101 12.355 12.355 0 0 0-4.351-1.649c-.533-.101-.983-.2-1.35-.301a3.903 3.903 0 0 1-.9-.35c-.467-.267-.616-.583-.449-.95.133-.333.566-.733 1.3-1.2a9.933 9.933 0 0 1 1.35-.699c.5-.268 1.083-.551 1.75-.851z" fill="#010101" fill-rule="evenodd"/></svg>