<svg xmlns="http://www.w3.org/2000/svg" xmlns:dc="http://dublincore.org/documents/dcmi-terms/" height="792" version="1.2" viewBox="0 0 612 792" width="612"><metadata><dc:description>Silhouette of Balaena mysticetus, processed by PhyloPic Tools (https://github.com/eweitz/phylopic-tools)</dc:description><dc:source>http://phylopic.org/image/18438875-f6e8-4e46-8fda-5a07bd4c1a85</dc:source><dc:creator>Chris huh</dc:creator><dc:license>http://creativecommons.org/licenses/by-sa/3.0/</dc:license></metadata><path d="M230.85 290.8l53.8-9.1 32.55-1.45 57.5.9 10.7.85c2.934.267 5.883.583 8.85.95 2.934.333 5.867.683 8.8 1.05 2.9.367 5.8.75 8.7 1.15 2.867.367 5.75.783 8.65 1.25 2.899.434 5.783.883 8.649 1.35 2.866.467 5.733.95 8.601 1.45 2.833.5 5.684 1.033 8.55 1.6 2.866.534 5.733 1.083 8.6 1.65 2.833.566 5.684 1.167 8.55 1.8 2.801.6 5.634 1.233 8.5 1.9 2.834.633 5.684 1.3 8.551 2 2.833.667 5.684 1.367 8.55 2.1l9.35 2.3c1.333.3 2.634.583 3.9.85s2.466.5 3.6.7a135.65 135.65 0 0 0 6.351 1c.967.1 1.949.2 2.949.3l2.9.2c1.166.066 2.316.15 3.45.25 1.134.066 2.25.167 3.35.3 1.067.1 2.15.217 3.25.35 1.067.133 2.116.3 3.15.5 1.033.167 2.066.35 3.1.55 1 .2 2.017.417 3.05.65 1 .233 2.018.483 3.051.75 1 .267 2.016.566 3.05.9 1 .3 2.033.633 3.1 1 1.034.333 2.083.7 3.15 1.1 1.033.4 2.1.816 3.2 1.25 1.1.433 2.199.9 3.3 1.4 1.1.466 2.25.983 3.45 1.55 1.166.533 2.35 1.083 3.55 1.65 1.2.6 2.45 1.217 3.75 1.85l3.899 2a482.898 482.898 0 0 1 7.45 3.95c2.4 1.3 4.717 2.583 6.95 3.85a345.13 345.13 0 0 1 6.45 3.65c3.1 1.767 6.05 3.533 8.85 5.3 2.767 1.767 5.4 3.5 7.9 5.2 4.966 3.367 9.466 6.733 13.5 10.1 4 3.366 7.683 6.816 11.05 10.35a104.412 104.412 0 0 1 3.1 3.35c1 1.133 1.967 2.283 2.9 3.45.934 1.133 1.85 2.3 2.75 3.5a227.47 227.47 0 0 1 2.55 3.5c.8 1.167 1.567 2.35 2.3 3.55.734 1.167 1.45 2.35 2.15 3.55.633 1.133 1.25 2.283 1.85 3.45a63.771 63.771 0 0 1 1.65 3.45c.5 1.1.95 2.2 1.35 3.3.4 1.1.768 2.184 1.101 3.25.3 1.033.566 2.05.8 3.05.2 1 .367 1.983.5 2.95l.15 1.449c.033.467.05.867.05 1.2 0 .333-.034.667-.101 1-.066.3-.166.583-.3.851-.134.266-.3.55-.5.85-.267.3-.55.617-.85.95-.333.3-.717.667-1.15 1.1l-1.55 1.351c-2.334 2.066-4.95 4.033-7.85 5.899-2.9 1.866-6.051 3.65-9.45 5.351-3.434 1.633-7.184 3.217-11.25 4.75-4.067 1.5-8.417 2.916-13.05 4.25-4.667 1.3-9.684 2.533-15.051 3.699a398.618 398.618 0 0 1-17.05 3.301c-6 1-12.384 1.934-19.149 2.8a745.483 745.483 0 0 1-21.4 2.399l-35.1 2.65-22.15.9-58.451.45-5.1 4.5a424.57 424.57 0 0 0-2.75 2.351c-.967.8-1.967 1.616-3 2.45a406.972 406.972 0 0 1-3.3 2.55 326.336 326.336 0 0 1-3.45 2.6 137.604 137.604 0 0 1-3.55 2.55c-1.2.867-2.4 1.717-3.601 2.551-1.2.8-2.384 1.6-3.55 2.399-1.2.8-2.367 1.567-3.5 2.3-1.166.7-2.3 1.384-3.4 2.051-1.1.666-2.149 1.3-3.149 1.899a86.45 86.45 0 0 1-2.851 1.55c-.934.467-1.783.9-2.55 1.301-3.134 1.434-5.95 2.149-8.45 2.149h-.5c-2.633-.134-4.866-1.066-6.699-2.8-1.834-1.767-3.234-4.3-4.2-7.6-.967-3.334-1.467-7.417-1.5-12.25l.25-8.15c.033-.533.083-.983.149-1.35.066-.367.134-.65.2-.851.2-.566.284-1 .25-1.3-.033-.3-.3-.5-.8-.6a6.605 6.605 0 0 0-1.05-.15c-.467-.066-1-.1-1.601-.1l-5.35-.051c-1.2 0-2.483-.016-3.85-.05a226.74 226.74 0 0 1-4.4-.149l-42.4-3.551-40.75-5.55-49.85-10-35.3-8-11.7-1.5-52.65-1.25-7.55.4c-1.2.1-2.367.2-3.5.3-1.133.1-2.233.217-3.3.35-1.1.134-2.167.283-3.2.45l-3.1.5c-1 .167-1.983.366-2.95.601-1 .199-1.983.416-2.95.649-1 .2-1.966.434-2.9.7-.967.267-1.917.533-2.85.8-1 .267-1.966.567-2.9.9L70 424.05c-.833.267-1.567.534-2.2.8-.667.234-1.283.484-1.85.75a16.34 16.34 0 0 0-1.5.7c-.467.233-.9.483-1.3.75s-.767.534-1.1.8c-.333.268-.65.566-.95.9-.333.3-.633.633-.9 1-1.6 1.8-3.167 3.584-4.7 5.35-1.567 1.768-3.1 3.5-4.6 5.2-1.5 1.7-2.983 3.366-4.45 5a9628.523 9628.523 0 0 0-4.35 4.75l-4.25 4.55c-1.434 1.5-2.833 2.95-4.2 4.351-2.066 2.1-4.1 4.149-6.1 6.149-2.033 2-4.033 3.917-6 5.75a282.427 282.427 0 0 1-5.8 5.351 348.055 348.055 0 0 1-5.7 5 224.029 224.029 0 0 1-5.6 4.55 421.943 421.943 0 0 1-5.5 4.25 149.323 149.323 0 0 1-5.45 3.95 766.917 766.917 0 0 1-5.4 3.6c-1.8 1.134-3.6 2.233-5.4 3.3a505.582 505.582 0 0 1-5.4 3c-1.8.967-3.616 1.884-5.45 2.75-1.833.9-3.65 1.75-5.45 2.551-4.933 2.133-8.183 3.199-9.75 3.199-.466 0-.783-.083-.95-.25a.538.538 0 0 1-.15-.5c-.033-.066.017-.199.15-.399.066-.2.2-.434.4-.7l3.6-4.75a77.191 77.191 0 0 0 7.1-10.15 79.035 79.035 0 0 0 5.45-11.05c1.5-3.833 2.75-7.85 3.75-12.05.967-4.2 1.684-8.584 2.15-13.15l2.2-13.75c.133-.5.267-.949.4-1.35.167-.434.333-.85.5-1.25.133-.4.3-.783.5-1.15.167-.366.35-.717.55-1.05.167-.333.367-.649.6-.95.2-.333.434-.649.7-.949.2-.301.433-.601.7-.9.267-.299.55-.584.85-.85.267-.268.55-.533.85-.801l2.5-2.35c.566-.6.934-1.05 1.1-1.35.167-.301.167-.5 0-.601-.2-.1-.534-.149-1-.149h-.1c-.6-.033-1.316-.351-2.15-.95-.434-.333-.85-.7-1.25-1.101-.434-.399-.867-.85-1.3-1.35a28.49 28.49 0 0 1-1.25-1.55c-.4-.534-.767-1.083-1.1-1.65a44.21 44.21 0 0 1-.9-1.7c-.267-.566-.483-1.1-.65-1.6-.1-.4-.216-.783-.35-1.15a8.204 8.204 0 0 0-.45-.949c-.167-.301-.35-.601-.55-.9-.2-.3-.417-.566-.65-.8a7.392 7.392 0 0 0-.9-.851c-.333-.266-.684-.55-1.05-.85l-1.35-.9c-.5-.333-1.034-.666-1.6-1l-4-2.8c-.5-.433-.867-.8-1.1-1.1-.267-.333-.367-.583-.3-.75.167-.534.7-1.116 1.6-1.75.433-.333.933-.667 1.5-1a52.07 52.07 0 0 1 2-1.05c.7-.367 1.483-.734 2.35-1.101a73.31 73.31 0 0 1 2.65-1.1c.933-.4 1.917-.784 2.95-1.15 1-.366 2.05-.733 3.15-1.1 1.1-.366 2.217-.717 3.35-1.05 1.133-.334 2.3-.667 3.5-1a60.41 60.41 0 0 1 3.55-.9c1.167-.3 2.35-.584 3.55-.85L18.7 396l25.65-.75 9.35-8.9c2.667-2.567 5.4-5.1 8.2-7.6 2.767-2.533 5.6-5 8.5-7.4a371.31 371.31 0 0 1 8.75-7.2 348 348 0 0 1 9.05-7c3.033-2.267 6.133-4.5 9.3-6.7 3.133-2.2 6.283-4.35 9.45-6.45 3.167-2.1 6.383-4.15 9.65-6.15 3.267-2.034 6.533-4 9.8-5.9 3.267-1.9 6.583-3.75 9.95-5.55 3.3-1.8 6.633-3.533 10-5.2 3.333-1.7 6.683-3.317 10.05-4.85a302.44 302.44 0 0 1 10.15-4.5l31.85-12 32.45-9.05z" fill="#010101" fill-rule="evenodd"/></svg>