<svg xmlns="http://www.w3.org/2000/svg" xmlns:dc="http://dublincore.org/documents/dcmi-terms/" height="74.49" version="1.2" viewBox="0 0 72.719 74.49" width="72.719" overflow="inherit"><metadata><dc:description>Silhouette of Aurornis xui, processed by PhyloPic Tools (https://github.com/eweitz/phylopic-tools)</dc:description><dc:source>http://phylopic.org/image/b1cb08ee-062d-4101-b945-014e654f4316</dc:source><dc:creator>Gareth Monger</dc:creator><dc:license>http://creativecommons.org/licenses/by/3.0/</dc:license></metadata><path d="M61.993 0h-.591c-2.071 1.563-3.636 3.615-5.313 6.002-1.037 1.476-2.397 2.861-3.247 4.231-.433.698-.556 1.603-.984 2.263-.549.846-1.416 1.549-2.066 2.361-3.236 4.051-5.371 9.212-8.167 13.973-1.437 2.445-2.907 4.562-4.724 6.298-.445.013-.678.241-1.082.295-.893-.66-1.556-1.807-2.756-2.066-.252-.055-.464.113-.787.098-.58-.027-1.221-.358-1.771-.295-1.847.21-3.065 2.176-4.723 3.248-.965.624-2.05 1.002-2.756 1.87-.042.633.231.949.492 1.279 2.334.875 4.097-.371 6.396-.394.622.591 1.031 1.396 1.673 1.968a116.322 116.322 0 0 1-13.678 9.644c-.352.211-.629.728-.984 1.082-2.283 2.283-4.96 4.041-7.773 5.708-1.387.821-2.651 1.794-4.133 2.558-1.485.767-2.951 1.515-4.526 2.165 3.32.368 5.092-1.665 7.281-2.755-.775 1.492-2.561 2.319-3.936 3.444C2.441 64.118 1.105 65.316 0 66.618v.196c3.352-.846 5.165-3.231 7.577-5.019-1.064 1.901-2.945 3.704-4.231 5.609-.437.646-1.199 1.358-.984 2.264.614.129 1.281-.289 1.673-.591 2.058-1.585 3.284-4.408 5.216-6.101-.709 1.992-2.582 4.023-3.543 6.101-.294.636-.954 1.573-.492 2.263 3.551-1.172 3.648-5.799 6.298-7.872-.84 2.437-2.066 5-2.657 7.676-.182.827-.635 1.95-.098 2.755.945-.04 1.148-1.194 1.476-1.869 1.103-2.276 1.866-5.073 2.952-7.282.139 2.226-.825 4.947-1.181 7.282-.117.77-.482 1.794.099 2.46h.394c1.589-1.921 1.981-5.038 2.952-7.577.502 2.184-.304 4.899.492 6.79 1.742-.783 1.604-3.446 2.263-5.313.81.339.258 2.038.984 2.46 1.377-.229 1.539-1.675 1.968-2.854 1.291.875 2.225-.038 2.264-1.476 1.258-.25 2.636-.382 2.361-2.165 1.767.627 2.882-.769 4.034-1.377.056-.679-.424-.823-.394-1.477.731-.041 1.349.881 2.165 1.082.542-.048.474-.707.787-.983.24.087.427.229.787.196 1.011-.17 1.129-1.232 2.46-1.082 1.381-1.963 4.396-2.441 6.199-4.231.67-.664 1.109-1.54 2.165-1.968.006-.322.28-.376.196-.787.261-.265.868-.182 1.083-.492.153-.678-.446-.604-.492-1.082.077-.515.891-.291 1.181-.591.379-.445-.478-1.08.197-1.279 1.133.217 1.103 2.437 1.968 3.247 2.614-.666 4.816-1.743 7.479-2.361.229-.066.144-.447.394-.492 1.632.423 2.569.946 3.444 2.066.682-.099 1.358.224 2.165.394.594.126 1.254.144 1.672.296 1.584.575 2.368 2.404 3.74 3.05-.171-1.076-1.01-1.483-1.182-2.559.47.091.553 1.085 1.083.788.837-.778-.567-1.235-1.083-1.575-.766-.505-1.439-.71-2.263-.983-.892-.298-1.391-.806-2.46-.886-1.087-.849-2.416-1.454-3.346-2.46-.287-.353.45-.591.59-.984.119-.332.024-1.073.1-1.673.244-1.971 1.379-3.512.393-4.526.044-.752.968-.716.886-1.378-.155-1.256-2.944-.115-4.329-.394-.239-.388-.064-1.076.196-1.279.614-.027.851.147 1.279-.098.262-.58-.087-1.163 0-1.87 1.306.604 1.548-.562 2.755-.59.227-.332-.016-1.132.197-1.476.406-.268.607-.127 1.181-.197-.362-1.25 1.077-1.51 1.673-2.362.224-.32.344-1.217.59-1.673.516-.949 1.641-1.894 1.674-2.558.042-.836-1.041-.98-.984-1.771.458-.241 1.347.229 1.771-.197.107-.534-.199-.654-.197-1.083.729-.553 1.233-1.434.295-2.165.169-.39.869-.247.984-.689-.133-.916-.912-1.187-1.279-1.87.305-.194 1.073.263 1.477 0 .074-.632-.404-.712-.591-1.083.507-.15 1.024-.288 1.279-.689.1-.689-.288-.893-.492-1.279.541-.312 1.428-.278 1.476-1.083.025-.484-.577-.341-.787-.59.838-.737 2.695-.454 2.953-1.771-.945-.564-2.835-.183-4.232-.295.729-.69 2.008-.786 3.051-1.083 1.122-.319 2.156-.605 3.051-1.083v-.197c-3.174-.22-5.767.66-8.364.689-.064-.603.651-.763 1.181-.984 1.275-.531 3.168-1.008 4.625-1.673.041-.434-.026-.76-.197-.984-3.139.337-5.346 1.607-8.363 2.066 2.834-1.987 6.252-3.392 9.25-5.215-1.354-.622-2.793.273-3.941.789-1.263.567-2.476 1.299-3.642 1.771.259-1.185 1.691-1.196 2.166-2.165 1.282-.783 2.898-1.234 3.738-2.46-.939.044-1.812.155-2.164.788-.943.173-1.715.75-2.461 1.181-.805.465-1.55 1.029-2.361 1.181.385-.967 1.546-1.456 2.361-2.263.261-.257.424-.627.689-.886.594-.577 1.715-.818 1.869-1.771-.805-.504-1.466.495-2.066.886-.961.625-1.896 1.212-2.854 1.673.379-.737 1.563-1.52 1.969-2.559-1.639.33-2.49 1.446-3.74 2.165.261-.898 1.247-1.901 1.576-3.052z" fill-rule="evenodd"/></svg>