<svg xmlns="http://www.w3.org/2000/svg" xmlns:dc="http://dublincore.org/documents/dcmi-terms/" height="400" version="1.2" viewBox="0 0 550 400" width="550"><metadata><dc:description>Silhouette of Balaenoptera (Rorqualus), processed by PhyloPic Tools (https://github.com/eweitz/phylopic-tools)</dc:description><dc:source>http://phylopic.org/image/16969246-31e0-48e3-90ff-cad9a8746073</dc:source><dc:creator>Chris huh</dc:creator><dc:license>http://creativecommons.org/licenses/by-sa/3.0/</dc:license></metadata><path d="M1179.85 135.15c.733.6 1.467 1.217 2.2 1.85.733.6 1.467 1.217 2.2 1.85.7.633 1.417 1.283 2.15 1.95l8.25 8.05c.633.633 1.267 1.283 1.899 1.95.634.667 1.25 1.35 1.851 2.05.6.667 1.183 1.35 1.75 2.05.533.7 1.066 1.417 1.6 2.15.5.733.983 1.5 1.45 2.3.433.767.85 1.55 1.25 2.35.399.8.75 1.633 1.05 2.5.3.867.583 1.767.85 2.7.167.7.301 1.4.4 2.1.066.7.1 1.383.1 2.05 0 .633-.05 1.284-.149 1.95a20.17 20.17 0 0 1-.5 1.9c-.2.633-.45 1.267-.75 1.9-.3.6-.65 1.2-1.05 1.8-.4.6-.851 1.217-1.351 1.85-.533.6-1.1 1.2-1.7 1.8l-1.25 1.25c-.467.367-.899.733-1.3 1.1-.433.333-.883.667-1.35 1-.467.3-.934.617-1.4.95-.5.3-1.033.6-1.6.9l-1.7.85c-.633.3-1.3.6-2 .9l-2.2.95c-1 .4-1.983.783-2.95 1.15-.967.367-1.916.717-2.85 1.05-.967.3-1.95.617-2.95.95-1 .3-2.017.583-3.05.85s-2.1.533-3.2.8-2.217.533-3.35.8c-1.167.233-2.384.467-3.65.7-1.267.233-2.566.466-3.899.7l-25.45 3.45-28.5 1.95-42.5 9.3-29.7 5.051-26.05 3.55c-1.033 0-2.066.033-3.101.1a48.845 48.845 0 0 0-3.149.2l-12.55 1.55-3.101.4c-1.066.1-2.116.2-3.149.3l-24.45 2.05-49.45 1.05-37.7-.6-34.25-2.25c-.5-.066-1.1-.134-1.8-.2l-13.85-.399c-.434 0-.7.033-.801.1l-26.3 15.85-23.7 12.5-14 6.601-14.05 5.35-18.85 5.2c-3 .566-6.066.884-9.2.95h-.8c-1.4 0-2.8-.05-4.2-.15a80.103 80.103 0 0 1-4.2-.5l-1.05-.2c-.467-.1-.95-.216-1.45-.35l-1.55-.45c-.533-.2-1.017-.399-1.45-.6-.467-.233-.833-.483-1.1-.75-.3-.267-.483-.55-.55-.851-.067-.333.017-.683.25-1.05.233-.366.666-.733 1.3-1.1.666-.467 1.35-.934 2.05-1.4.667-.467 1.35-.934 2.05-1.399l8.05-5.9c.667-.5 1.367-.95 2.101-1.35.7-.434 1.416-.851 2.149-1.25.4-.233.634-.483.7-.75a.542.542 0 0 0-.1-.45c-.267-.467-.967-.851-2.101-1.15-.633-.166-1.25-.35-1.85-.55a22.18 22.18 0 0 1-1.8-.75 13.564 13.564 0 0 1-1.7-.9c-.533-.3-1.05-.633-1.55-1a18.024 18.024 0 0 1-1.45-1.1c-.434-.4-.85-.8-1.25-1.2-.4-.434-.75-.866-1.05-1.3a12.766 12.766 0 0 1-.851-1.35l-.55-1a1.707 1.707 0 0 1-.149-.9c.033-.333.25-.684.649-1.05.167-.233.417-.467.75-.7.3-.233.65-.5 1.05-.8.4-.3.9-.634 1.5-1L740.7 217.3c.767-.5 1.434-.934 2-1.3.533-.366.967-.684 1.3-.95.566-.533.767-.899.6-1.1-.166-.233-.666-.384-1.5-.45l-104.45-10.8-93.45-10.3h-.1l-4.25-.35h-.75a34.756 34.756 0 0 1-.75-.1 2.525 2.525 0 0 1-.6-.25h-.05l-.2-.05-47.95-2.45-42.35-.15-50.351 3.35c-.433 0-.966.033-1.6.1l-61.8 9.85-26.2 5.551-40.5 10.449L221.4 232.9c-1 .267-1.983.566-2.95.899-1 .334-1.983.667-2.95 1l-79.9 31.7-20.9 9.6-8.2 4.5c-.5.367-.833.667-1 .9a187.412 187.412 0 0 0-3.75 4.9 237.667 237.667 0 0 0-3.7 4.899l-44.6 61.2c-1.3 1.7-2.617 3.417-3.95 5.15l-4 5.1L34.7 376l-10.15 10.9-5.95 5.6c-.5.467-.967.884-1.4 1.25-.434.333-.817.634-1.15.9a16.22 16.22 0 0 1-.95.649c-.6.334-1.1.55-1.5.65-.4.066-.767.116-1.1.149-.367.034-.7.051-1 .051h-.4a8.187 8.187 0 0 1-1-.15 3.666 3.666 0 0 1-.85-.3 3.389 3.389 0 0 1-1.4-1.05 5.236 5.236 0 0 1-.5-.801c-.167-.3-.3-.633-.4-1-.067-.199-.117-.483-.15-.85-.066-.366-.1-.8-.1-1.3-.034-.5-.05-1.101-.05-1.8l.8-17.45c.1-1.767.233-3.517.4-5.25l.45-5.098c.133-1.666.3-3.316.5-4.949.167-1.634.35-3.233.55-4.801.2-1.6.417-3.166.65-4.699.2-1.534.433-3.034.7-4.5.233-1.5.483-2.95.75-4.351.233-1.467.5-2.883.8-4.25.267-1.366.55-2.7.85-4 .433-1.967.883-3.866 1.35-5.7.5-1.866 1-3.633 1.5-5.3a80.793 80.793 0 0 1 1.6-4.8 55.634 55.634 0 0 1 1.7-4.4 46.435 46.435 0 0 1 1.8-3.85c.6-1.2 1.217-2.316 1.85-3.35l.75-1.301c.067-.199.117-.366.15-.5l.05-.149-.05-.1-.05-.05-3.45-1.8-1.5-.7c-.5-.3-1-.583-1.5-.85-.533-.3-1.05-.617-1.55-.95-.5-.333-1-.684-1.5-1.05a60.468 60.468 0 0 1-1.55-1.101 54.126 54.126 0 0 0-1.6-1.25 56.218 56.218 0 0 1-1.6-1.35c-.567-.5-1.117-1-1.65-1.5L2.5 284l-1-1.25a6.761 6.761 0 0 1-.8-1.05 52.152 52.152 0 0 1-.55-.8c-.1-.233-.15-.4-.15-.5-.033-.367.133-.784.5-1.25.167-.233.417-.5.75-.801a9.21 9.21 0 0 1 1.15-1.05 29.719 29.719 0 0 1 1.65-1.3c.633-.5 1.367-1.05 2.2-1.65l6.25-4.5c4.133-2.966 8.383-5.8 12.75-8.5a239.862 239.862 0 0 1 13.2-7.75c4.466-2.466 9-4.8 13.6-7 4.6-2.199 9.25-4.25 13.95-6.149l9.35-3.95 2.15-5.3c.767-1.9 1.55-3.75 2.35-5.55.8-1.834 1.6-3.617 2.4-5.351.767-1.733 1.55-3.434 2.35-5.1.833-1.7 1.667-3.351 2.5-4.95.8-1.634 1.633-3.25 2.5-4.85.867-1.634 1.75-3.233 2.65-4.801.9-1.6 1.833-3.2 2.8-4.8.934-1.6 1.9-3.2 2.9-4.8l4.9-7.5L117 164.75l11.7-12.55a219.707 219.707 0 0 1 5.6-5.4c.967-.9 1.95-1.783 2.95-2.65.967-.9 1.967-1.783 3-2.65 1-.9 2.017-1.767 3.05-2.6 1.034-.9 2.067-1.767 3.1-2.6a255.048 255.048 0 0 1 3.15-2.5l3.1-2.4a93.707 93.707 0 0 1 3.1-2.3 88.16 88.16 0 0 1 3.1-2.2c1-.733 2-1.433 3-2.1 1-.7 2-1.35 3-1.95l6.75-4.4a46.783 46.783 0 0 1 3.5-2.15 54.35 54.35 0 0 1 3.55-2.05c1.2-.667 2.417-1.317 3.65-1.95 1.2-.667 2.434-1.3 3.7-1.9l32-16.6c1.233-.7 2.467-1.367 3.7-2l7.35-4 3.7-2 3.65-2.1c1.2-.7 2.4-1.417 3.6-2.15a201.78 201.78 0 0 0 3.5-2.25l6.8-4.9c.534-.433 1.083-.883 1.65-1.35A63.607 63.607 0 0 0 255 70.2c.5-.5.983-1 1.45-1.5l.75-.85c.233-.267.45-.55.65-.85.233-.333.433-.65.6-.95.167-.333.316-.667.45-1 .133-.4.133-.783 0-1.15a4.213 4.213 0 0 0-.55-1.1c-.3-.367-.6-.7-.9-1l-.85-.85a14.127 14.127 0 0 1-1.1-1.25l-1.2-1.55a46.533 46.533 0 0 1-1.05-1.7c-.167-.3-.3-.6-.4-.9-.167-.3-.3-.6-.4-.9-.1-.333-.184-.65-.25-.95-.067-.3-.1-.6-.1-.9a3.658 3.658 0 0 1 0-.85c0-.3.05-.583.15-.85.067-.3.167-.567.3-.8.133-.267.317-.517.55-.75.2-.267.433-.5.7-.7.267-.2.583-.4.95-.6.3-.167.667-.283 1.1-.35.367-.1.9-.167 1.6-.2l20.3.85c.366.034.85.083 1.45.15l23.35-.2 1.601-.15c.433-.067.767-.117 1-.15l12.3-2.75 3.25-1.05c1.6-.6 3.217-1.183 4.85-1.75 1.601-.6 3.217-1.167 4.851-1.7 1.633-.567 3.283-1.1 4.949-1.6L380.1 26.6l65.551-14L476 8.5l31.55-2.75 36.8-.95 35 .3c8.834.467 17.7 1.117 26.601 1.95a629.96 629.96 0 0 1 26.45 2.95l93.25 19 80.3 14.85L910.9 60.9l44.75 6.8 23.3 5.5 1.8.2 17.95 3.65c.934.167 1.967.35 3.1.55 1.134.2 2.334.4 3.601.6l35.35 3.45c1.333.067 2.617.117 3.85.15 1.2.034 2.334.05 3.4.05l8.05.25c.634.033 1.101.083 1.4.15l6.95 1.35 27.25 6.75 9.1 2.75 24.4 9.15 15.05 7.05c.6.3 1.066.55 1.399.75l11.801 6.8 17.8 11.75 6.35 4.75a56.017 56.017 0 0 1 2.299 1.8z" fill-rule="evenodd"/></svg>