<svg xmlns="http://www.w3.org/2000/svg" xmlns:dc="http://dublincore.org/documents/dcmi-terms/" height="2054.235" version="1.2" viewBox="0 0 3604.062 2054.235" width="3604.062" overflow="inherit"><metadata><dc:description>Silhouette of Batoidea, processed by PhyloPic Tools (https://github.com/eweitz/phylopic-tools)</dc:description><dc:source>http://phylopic.org/image/a6083fa5-5b80-4c9d-92d6-19967cd2e79e</dc:source><dc:creator>Tomas Willems (vectorized by T. Michael Keesey)</dc:creator><dc:license>http://creativecommons.org/licenses/by-sa/3.0/</dc:license></metadata><path d="M2275.053 1930.01c-25.036 1.896-43.539 17.396-65 29-6.891 3.726-14.148 6.849-21 11-6.206 3.761-11.585 9.517-18 13-5.738 3.116-12.553 4.463-19 8-50.065 27.468-136.132 51.688-211 32-40.29-10.595-73.607-35.659-94-68-6.477-10.272-12.068-17.966-12-34 6.975 3.863 15.624 14.261 26 16 5.78.97 12.99-2.183 20-2 4.783.125 10.054 1.942 14 2 31.182.45 54.545-14.104 74-26 7.27-4.444 13.944-7.737 18-15 10.206 4.134 21.288.599 32 2 30.039 3.929 52.346 12.913 88 10 21.105-1.725 44.182-1.056 64-4 5.587-.83 10.553-4.391 16-5 5.211-.583 10.826 1.161 16 1 13.139-.407 28.417-2.2 42-4 13.534-1.793 28.223-2.046 40-5 6.459-1.62 11.472-6.624 18-8 14.766-3.113 30.253-2.034 45-5 27.869-5.604 55.652-10.285 84-16 13.314-2.685 25.173-9.464 38-12 8.14-1.61 17.035-.746 25-3 16.107-4.56 30.859-12.987 47-18 40.478-12.57 82.519-25.208 121-42 10.386-4.532 18.299-12.605 31-16 5.946-1.589 12.369-.853 18-3 8.41-3.207 15.309-10.854 23-15 22.376-12.062 49.406-20.653 74-33 12.076-6.062 24.391-11.506 37-17 12.388-5.397 23.382-13.694 35-18 11.819-4.38 22.329-6.39 33-12 9.825-5.165 19.928-9.634 30-15 38.562-20.545 79.372-40.247 116-64 18.332-11.888 39.125-20.946 53-37 28.008-7.749 48.933-23.367 74-37 5.983-3.254 10.171-8.247 16-12 21.5-13.844 48.398-23.511 61-45 12.721-6.71 25.909-14.261 37-24 2.754-2.419 4.18-6.729 7-9 2.619-2.108 6.903-2.744 10-5 5.885-4.287 9.47-10.977 15-15 3.484-2.534 8.342-2.654 12-5 7.745-4.966 13.449-13.3 22-18 8.434-4.636 16.811-8.367 25-15 5.553-4.498 11.47-6.491 16-10 3.23-2.503 3.627-7.94 7-11 3.632-3.294 9.88-4.054 13-7 3.297-3.112 4.473-8.069 8-12 4.462-4.973 12.078-7.426 16-12 4.892-5.706 7.287-11.563 13-17 5.145-4.896 10.685-9.776 12-17 4.352-4.239 9.658-5.18 14-10 2.408-2.673 2.576-7.377 5-10 3.719-4.024 10.316-5.471 14-10 2.772-3.409 4.279-10.124 8-15 5.274-6.911 13.41-9.392 14-21 16.43-15.236 26.602-36.731 42-53 5.076-21.327 29.452-36.147 30-61 .321-14.593-7.466-22.372-10-37-20.444-32.331-34.467-69.306-61-97-6.481-6.765-14.21-12.682-21-20-18.7-20.156-43.736-36.843-66-55-21.252-17.331-47.835-33.41-73-48-25.63-14.858-53.23-26.985-81-42-53.086-28.702-108.373-55.662-162-85-35.816-19.594-74.616-34.154-111-54-17.94-9.786-36.92-17.846-55-28-26.494-14.879-52.113-29.47-78-46-57.809-36.914-118.109-74.708-172-116-15.402-11.802-29.875-25.712-46-37-16.191-11.335-31.193-23.412-45-37-20.404-20.08-44.482-38.108-67-57-7.571-6.353-13.694-13.687-21-20-12.606-10.894-28.039-19.664-41-31-12.902-11.285-25.421-22.229-39-32-14.021-10.089-26.553-21.069-42-29-15.333-7.872-29.637-17.434-45-26-45.675-25.467-94.454-47.828-144-70-17.104-7.654-35.3-11.299-54-17-18.32-5.585-36.607-16.38-58-23-26.552-8.217-55.578-13.527-85-22-13.959-4.021-28.633-11.727-44-16-16.316-4.537-32.949-7.496-45-15-8.266-5.146-18.201-15.2-27-24-6.181-6.181-18.952-21.606-29-22-11.328-.443-19.749 14.033-31 23-8.309 6.622-20.846 11.518-33 17-11.704 5.279-22.666 12.635-33 16-18.754 6.106-39.56 8.582-59 13-75.815 17.228-153.149 31.134-225 57-17.68 6.365-36.47 10.82-53 18-8.278 3.596-15.623 8.599-24 12-16.688 6.775-35.139 11.571-52 19-8.329 3.67-16.781 6.385-25 10-25.965 11.421-51.307 32.293-76 46-6.292 3.493-12.981 5.327-19 9a375.19 375.19 0 0 0-17 11c-33.071 22.705-66.71 44.568-100 68-43.327 30.497-83.952 64.527-131 92-11.589 6.768-22.307 14.853-34 22-33.935 20.741-70.08 40.597-105 62-45.939 28.158-97.29 50.44-147 76-24.646 12.672-51.041 23.689-77 35-25.432 11.08-49.703 24.466-75 36-25.616 11.68-51.533 23.042-77 35-25.272 11.867-50.087 23.755-75 36-23.994 11.794-48.571 25.694-73 39-47.851 26.062-94.224 54.062-137 86-10.603 7.916-20.502 16.516-30 26-14.73 14.711-28.114 26.565-42 42-4.522 5.026-9.831 8.133-15 13-9.708 9.141-16.499 21.268-25 31-3.715 4.253-9.6 6.75-12 10-2.32 3.142-1.624 7.234-4 11-4.622 7.324-14.982 11.37-19 17-2.536 3.554-3.103 10.212-6 15-6.042 9.984-16.788 17.357-23 29-4.712 8.832-8.788 19.333-13 29-6.736 15.461-20.183 38.22-13 60 1.814 5.503 6.783 9.386 10 15 3.958 6.907 5.632 15.321 9 22 9.213 18.269 23.567 34.623 36 50-.467 11.638 6.33 15.437 12 23 2.573 3.432 4.885 7.104 7 10 2.44 3.341 5.271 5.539 8 9 2.531 3.21 3.569 7.888 6 11 3.688 4.724 11.669 9.039 18 15 16.469 15.507 31.873 31.503 48 49 12.147 13.18 21.712 28.721 33 37 6.345 4.653 13.855 6.648 19 11 10.057 8.506 15.2 20.976 31 24 8.126 12.001 18.161 18.255 31 28 14.874 11.289 30.054 19.804 48 30 9.411 5.347 17.15 12.606 26 18 15.405 9.39 33.593 14.017 49 23 17.27 10.069 32.904 22.372 50 32 17.078 9.618 33.874 20.437 52 29 9.88 4.668 20.683 6.652 31 11 7.926 3.34 15.89 10.292 24 15 23.024 13.366 46.874 30.524 73 43 4.34 2.072 8.932 2.946 13 5 6.451 3.258 11.355 9.782 18 13 4.026 1.949 8.736 2.159 13 4 10.272 4.433 19.978 9.755 31 14 30.553 11.769 56.978 33.923 89 45 23.106 7.993 45.653 14.528 67 23 10.43 4.139 21.804 8.036 31 14 8.581 5.564 16.166 13.571 26 18 15.442 6.954 33.927 9.499 50 17 8.048 3.756 14.941 10.833 23 14 12.945 5.087 28.665 4.872 42 10 4.915 1.89 8.143 6.87 13 9 5.88 2.578 13.276 4.212 20 7 15.841 6.568 32.63 8.44 51 13 6.778 1.683 13.299 5.137 20 7 26.843 7.465 53.671 12.671 80 21 5.392 1.706 9.781 5.558 15 7 15.68 4.335 32.341 5.06 48 8 11.668 2.19 22.45 10.416 34 12 5.264.722 10.921-1.46 16-1 2.828.256 5.97 2.501 9 3 5.393.888 11.196-.896 16 0 4.942.921 9.9 5.406 15 6 20.311 2.364 42.333-.951 63 0 23.548 1.084 46.086-2.755 67-1 6.178.519 12.254 3.378 18 3 11.041-.728 15.267-7.755 25-11 8.201-2.733 18.459-3.194 27-5 8.709-1.841 16.317-5.931 25-7-8.287 19.099 1.896 43.228 19 49 12.218.812 24.136 7.423 38 10 10.23 1.901 21.307 1.431 32 3 33.308 4.886 80.209 3.175 103-14 14.568 28.522 35.73 53.193 59 76 7.384 7.237 15.575 16.024 24 21 7.915 4.675 19.101 8.023 29 13 20.857 10.485 50.121 20.583 80 22 32.078 1.521 62.535-4.928 94-11 59.58-11.498 108.33-35.704 151-65 10.537-7.233 21.291-15.095 32-22 9.648-6.222 26.045-12.186 26-26z" fill-rule="evenodd"/></svg>