<svg xmlns="http://www.w3.org/2000/svg" xmlns:dc="http://dublincore.org/documents/dcmi-terms/" height="248.472" viewBox="0 0 915.33296 232.94257" width="976.355"><metadata><dc:description>Silhouette of Baurusuchus salgadoensis, processed by PhyloPic Tools (https://github.com/eweitz/phylopic-tools)</dc:description><dc:source>http://phylopic.org/image/f917c656-5311-4709-8b91-b2ddb4666f23</dc:source><dc:creator>Nobu Tamura, vectorized by Zimices</dc:creator><dc:license>http://creativecommons.org/licenses/by-sa/3.0/</dc:license></metadata><path d="M465.938 232.25c-7.95-.224-14.063-.923-14.063-1.607 0-.665-.844-1.209-1.875-1.209-1.031 0-1.875-.519-1.875-1.153s-1.924-1.788-4.275-2.564c-2.351-.776-4.94-2.213-5.754-3.193-1.568-1.889-2.403-8.905-2.525-21.195-.067-6.765.276-7.781 3.586-10.625 2.012-1.73 6.067-6.407 9.01-10.394 5.371-7.276 6.38-10.524 8.236-26.495.92-7.927 2.994-11.894 9.234-17.667 2.743-2.539 4.988-5.267 4.988-6.064 0-1.908-9.279-14.304-12.14-16.217-1.229-.822-5.46-2.194-9.4-3.049-4.75-1.03-9.595-3.318-14.375-6.788-17.218-12.502-32.39-20.426-49.469-25.835-11.46-3.63-41.275-8.278-72.961-11.375-29.984-2.93-80.335.564-102.905 7.141-3.781 1.102-12.366 3.34-19.076 4.973-34.496 8.393-109.777 37.398-129.962 50.072-2.564 1.61-4.931 2.928-5.26 2.928-.329 0-6.387 2.756-13.462 6.123-14.399 6.854-25.604 9.338-35.365 7.842L0 144.94l8.486-.836c6.209-.612 10.738-2.028 16.875-5.277 8.592-4.549 24.195-15.565 30.889-21.808 2.063-1.924 7.969-6.293 13.125-9.71a4901.138 4901.138 0 0 0 23.526-15.738c7.784-5.24 15.237-9.87 16.563-10.291 1.326-.421 2.411-1.246 2.411-1.834 0-.588 2.11-1.758 4.688-2.6 2.578-.842 6.647-2.573 9.043-3.847 2.397-1.274 5.225-2.316 6.285-2.316 1.06 0 3.295-.957 4.965-2.127s7.481-3.683 12.913-5.584c5.432-1.901 10.518-3.969 11.303-4.595.786-.626 2.834-1.566 4.553-2.088 1.719-.523 6.042-2.28 9.607-3.903 3.566-1.624 7.156-2.953 7.978-2.953.822 0 3.249-1.057 5.392-2.348 2.144-1.292 6.007-3.023 8.586-3.847 2.578-.825 4.687-1.955 4.687-2.513 0-.557 2.102-1.408 4.672-1.89 2.569-.482 9.223-2.712 14.786-4.955 5.563-2.243 15.132-5.32 21.266-6.836 6.133-1.516 12.19-3.325 13.458-4.019 1.269-.694 6.331-2.026 11.25-2.96 11.842-2.246 19.67-4.268 22.526-5.818 1.282-.697 10.282-2.112 20-3.146 9.717-1.033 18.51-2.179 19.542-2.545 1.031-.366 7.448-.886 14.26-1.155 6.811-.269 13.104-1.086 13.984-1.817.984-.816 3.848-.99 7.441-.452 3.68.552 6.143.389 6.656-.441.491-.795 9.733-1.628 23.3-2.099C433.948 1.241 440.48.921 441.502.311c1.237-.737 42.54-.056 55.615.917 5.29.393 10.945 1.22 12.566 1.836 1.62.616 4.958 1.12 7.417 1.12 2.46 0 5.573.59 6.92 1.31 1.348.722 3.525 1.033 4.84.691 1.314-.34 4.84.247 7.835 1.306 2.995 1.06 5.887 1.653 6.426 1.32.54-.334 3.615.558 6.833 1.982 3.219 1.424 6.687 2.268 7.708 1.876 1.021-.391 4.093.43 6.827 1.824 2.734 1.394 5.478 2.222 6.097 1.84.62-.384 3.157.443 5.638 1.837 2.671 1.5 5.655 2.247 7.316 1.83 1.542-.387 5.383.401 8.536 1.753 3.152 1.35 6.505 2.38 7.452 2.289.946-.092 4.252 1.013 7.346 2.455 6.685 3.117 13.197 5.461 17.5 6.299 1.719.334 5.375 1.621 8.125 2.859 7.096 3.194 13.248 5.224 16.875 5.567 1.719.163 4.97 1.256 7.224 2.43 2.255 1.174 4.551 1.855 5.104 1.513.552-.341 3.037.761 5.522 2.45 2.484 1.688 5.639 3.069 7.01 3.069 1.37 0 2.8.497 3.176 1.105.375.608 6.093 2.373 12.706 3.923 13.177 3.087 22.887 2.944 38.09-.561 4.424-1.02 11.856-2.24 16.516-2.712 4.66-.472 8.745-1.3 9.079-1.84.334-.539 2.383-.471 4.555.152 2.172.622 4.555.671 5.296.109.74-.563 7.535-.888 15.097-.722 16.056.352 21.462 1.507 43.75 9.35 7.956 2.8 14.91 4.251 23.75 4.96 6.875.551 14.823 1.85 17.663 2.886s9.59 2.514 15 3.285c13.236 1.886 21.647 3.801 25.71 5.856 5.093 2.577 9.658 9.379 10.45 15.573.638 4.99.314 5.92-3.434 9.84-2.276 2.381-4.139 4.627-4.139 4.992 0 .364-.703.5-1.562.303-.86-.197-1.563.478-1.563 1.5 0 1.023-3.457 5.382-7.683 9.687l-7.682 7.827-12.005.268c-6.603.147-15.942 1.188-20.755 2.313-10.366 2.423-29.706 2.814-35 .707-2.062-.821-9.375-2.263-16.25-3.206-6.875-.942-15.594-2.286-19.375-2.988-35.11-6.513-41.693-7.173-45.653-4.578-1.778 1.164-7.561 2.944-12.852 3.954-11.29 2.155-25.245 6.658-25.245 8.146 0 .573-1.387 1.768-3.083 2.657-4.045 2.119-9.417 9.483-9.417 12.907 0 1.49-1.406 4.78-3.125 7.313-1.719 2.533-3.125 5.586-3.125 6.784 0 5.013 37.63 36.071 49.102 40.528 3.975 1.544 8.703 4.073 10.507 5.62 1.804 1.546 3.755 2.812 4.335 2.812.581 0 1.056.422 1.056.938 0 .515-8.105.895-18.01.843-14.629-.076-18.612-.487-21.207-2.188-1.757-1.15-4.045-2.093-5.084-2.093-2.844 0-9.109-4.183-8.586-5.732.252-.747-4.072-3.84-9.61-6.875-5.538-3.035-13.007-7.363-16.599-9.617-4.581-2.876-6.635-3.604-6.885-2.439-.496 2.315 8.13 20.913 9.7 20.913.704 0 1.298.703 1.318 1.563.02.859 2.22 4.087 4.886 7.173 4.131 4.78 6.023 5.895 12.776 7.532 4.36 1.057 7.807 2.544 7.663 3.305-.145.76.638 1.308 1.74 1.217 1.102-.09 2.218.436 2.48 1.171.738 2.074-4.891 4.496-10.962 4.715-3.022.11-5.792.593-6.155 1.074-.363.481-2.894.37-5.625-.248-2.73-.618-6.952-1.436-9.38-1.818-3.923-.618-9.331-4.592-13.096-9.624-3.48-4.651-10.002-13.01-10.582-13.56-.361-.344-.67-1.187-.684-1.875-.015-.687-2.241-5.469-4.948-10.625-6.503-12.391-14.156-29.342-14.509-32.139-.387-3.07 2.237-9.162 5.406-12.544 1.446-1.544 2.288-3.15 1.87-3.567-.418-.418-8.811-.888-18.651-1.045-19.595-.312-25.671-1.522-44.864-8.934-10.032-3.875-11.959-4.262-14.486-2.909-1.604.858-2.916 2.028-2.916 2.6 0 .57-.784 1.038-1.741 1.038-.958 0-2.079.88-2.491 1.954-.413 1.075-1.232 1.657-1.82 1.293-.588-.363-2.143.34-3.455 1.562-2.474 2.305-10.949 6.484-23.275 11.477-7.537 3.053-21.1 15.472-23.252 21.292-1.358 3.67 2.402 19.047 5.772 23.604 1.32 1.786 4.976 4.036 8.293 5.105 5.996 1.934 16.842 10.521 16.924 13.4.055 1.92-.642 1.953-3.946.184-1.952-1.044-2.816-.993-3.56.213-.776 1.254-3.907.884-14.757-1.746-7.575-1.836-14.548-3.338-15.497-3.338-1.809 0-7.992-7.458-7.496-9.042.158-.505-1.057-3.958-2.701-7.675-1.644-3.717-3.373-8.508-3.843-10.646-.47-2.138-1.13-3.887-1.467-3.887-.337 0-3.123 1.727-6.19 3.838-10.023 6.896-13.811 15.64-12.07 27.864.784 5.512 3.904 7.412 14.697 8.952 7.627 1.087 17.703 5.193 18.621 7.586 1.368 3.564-.616 5.519-5.317 5.243-2.505-.147-10.882-.447-18.616-.666zm404.375-125.242c1.954-.051 2.812-.837 2.812-2.574 0-1.389-.833-2.5-1.875-2.5-1.031 0-1.875-.79-1.875-1.756 0-1.393-1.617-1.618-7.812-1.084-8.511.733-10.938 1.934-10.938 5.414 0 2.413 3.928 3.298 12.5 2.819 2.406-.135 5.64-.279 7.188-.32zm25.605-1.949c.57-.774.926-.655.938.313.027 2.25 3.362 1.926 4.26-.415 1.102-2.873.93-6.773-.3-6.773-.582 0-1.67 1.266-2.415 2.813-1.34 2.777-1.358 2.77-1.441-.552-.124-4.906-2.239-5.432-3.254-.809l-.873 3.975-2.113-2.802-2.114-2.801-1.49 3.272c-.82 1.8-1.491 3.762-1.491 4.362 0 1.492 9.15.973 10.293-.583z"/></svg>