<svg xmlns="http://www.w3.org/2000/svg" xmlns:dc="http://dublincore.org/documents/dcmi-terms/" height="282.706" version="1.2" viewBox="0 0 67.503 282.706" width="67.503" overflow="inherit"><metadata><dc:description>Silhouette of Bdelloidea, processed by PhyloPic Tools (https://github.com/eweitz/phylopic-tools)</dc:description><dc:source>http://phylopic.org/image/c76c2aa0-3dc4-4c3b-9bf5-011f2d1aa3f1</dc:source><dc:creator>Diego Fontaneto, Elisabeth A. Herniou, Chiara Boschetti, Manuela Caprioli, Giulio Melone, Claudia Ricci, and Timothy G. Barraclough (vectorized by T. Michael Keesey)</dc:creator><dc:license>http://creativecommons.org/licenses/by/3.0/</dc:license></metadata><path d="M41.353 15.984c.582.347 1.299-.21 1.735.248.635-.088.851-.737 1.362-.992.208-.103.519.042.744-.124.874-.644 1.184-1.76 2.106-2.106 1.217-.458 2.512.802 4.089 0 .114.339.3.608.619.743 2.346-.169 4.217.27 5.7.62.471.182.023-.554.495-.372 1.306.47 2.267 1.286 3.098 2.23-.078.584-.383-.445-.991-.124.493 1.448 2.758 1.125 3.47 2.354.989-.135 1.099-.188 1.982.124-.114.505-.972.267-1.115.744-.118 1.198.34 1.999 1.487 2.23.312.844.806 1.507 1.362 2.106.042 1.818-.138 3.415-.248 5.08-.426.854-1.282 1.278-1.362 2.478-.666.26-.775-.337-1.363 0 .205 1.447 1.48 1.824 2.106 2.85-.493.043-.543.531-.619.991-.845.106-1.064.835-1.983.868-.507 1.227-1.318 2.15-2.229 2.974-.439.067-.305-.439-.744-.372-1.006.729-2.125 1.344-2.726 2.479-1.408.038-1.777 1.114-2.974 1.363.011.713-.697.708-.867 1.239-.439.067-.305-.439-.744-.372-.795.361-1.174 1.139-1.858 1.611-.113.845.92 1.294 1.115 1.982.229.809.209 2.095.248 2.974.083 1.88-.106 3.954-.496 5.576.246 1.778.964 3.084 1.239 4.833 1.599 1.871.38 6.559 1.982 8.425 1.065 3.528.97 8.211 2.851 10.904-.438 6.619 1.382 12.253 2.602 17.719.684 3.062 1.4 6.033 1.982 9.169 1.858 7.103 4.823 16.736 3.594 25.4-.258 1.812-.188 3.267-.62 5.081-.501 2.108-1.253 4.14-1.982 6.195-2.643 7.443-5.534 15.047-9.665 20.321-3.169 1.043-5.553 2.872-8.054 4.584-.543 2.089-.946 4.2-1.486 6.319-.411 1.611-.99 2.787-1.611 4.461-.247.668-.866 1.381-.991 1.982-.249 1.206-.17 2.612-.371 3.965-.545 3.654-2.242 7.104-2.106 10.656.087 2.3.321 4.522-.248 6.938-.406.202-.474-.027-.991 0-.932 5.684-.585 13.235-1.115 18.339-.16.252-.513.312-.62.619-.325 4.163.161 7.935 0 12.639-.14.314-.622.286-.743.619.008 5.016-.678 8.989-.619 13.878-.353.185-.689.385-.867.743-.018 2.974-.566 5.873-.124 8.798.67 4.441 4.066 7.119 4.46 11.647-2.316-1.607-3.979-3.868-6.195-5.576-.201.646.32 1.556.372 2.354.427.097.592-.068.495-.495.324.089.381.446.744.495-.207.646-.764.208-1.239.124-.116 2.429 1.094 5.614 0 7.435.991 1.185.135 3.479 1.734 3.965.082.455.114.961.62.992-.065.968.312 1.137.124 1.982-.663.04-.147.696-.991.371.561 1.519-2.193 2.121-2.23.372-.367.087-.54.369-1.115.248-1.59-1.054-1.113-4.174-1.983-5.948-.038-.168-.31-.103-.496-.123-.701-2.912-.067-7.094-1.487-9.541-1.751.851-3.085 2.119-4.089 3.717-.526-1.941.713-3.534 1.611-5.204.586-1.091 1.561-2.253 1.858-3.222.182-.59-.007-1.292.124-1.858.104-.45.471-.806.62-1.239.993-2.887 1.094-6.055 1.239-9.417-.046-.49-.675-.399-.868-.743.255-4.521-.039-8.801 0-13.382-.116-.38-.633-.358-.743-.743-.355-4.545-.902-8.464-.744-12.639-.002-.369-.584-.159-.743-.372-.193-6.127.067-12.512-.372-18.958-.508-.317-1.359-.293-1.982-.495-.789-3.871 1.115-8.229.744-12.267-.056-.609-.416-1.229-.496-1.859-.196-1.545-.112-3.281-.124-4.832-.014-1.861.549-3.146.372-4.956-.074-.76-.672-1.202-.991-2.106-.329-.934-.575-3.093-.743-4.461-.228-1.841.624-3.621.372-4.956-.126-.669-1-2.165-1.487-2.85-.87-1.222-2.214-1.804-3.222-2.727-1.036-.948-1.869-2.023-2.602-3.345-1.424-2.566-2.76-4.942-4.089-7.683-2.654-5.473-5.506-12.436-6.072-20.197a36.43 36.43 0 0 1 0-4.956c.604-8.997 2.749-17.684 5.204-25.773 1.127-2.402 1.328-5.209 2.106-7.806.603-2.01 1.88-3.817 1.859-5.823 1.709-3.91 1.343-9.427 2.23-14.001.33-.538.713-1.022.744-1.859.841-.551.75-1.886.867-3.222.237-2.707.726-6.18 1.239-9.045.331-1.844 1.101-3.549 1.239-4.957.128-1.307-.089-2.985-.372-3.841-.283-.855-2.932-3.964-3.717-4.708-.574-.54-1.714-1.007-2.604-.618.016-.222-.152-.261-.124-.496-.493-.08-.498.328-.991.248.04-.288-.02-.476-.124-.62-.69.065-1.178.455-1.735 0-.689.054-.455 1.032-1.363.867-.219-.208.11-.415 0-.867-.396-.265-.967-.355-.991-.991-.462-.075-.784.316-1.115 0-.668-1.17.001-2.798.62-3.47-.405-.61-1.248.15-1.735.248.001.386.293.808 0 1.115-2.093.012-2.397-1.644-2.85-2.974-.603-.19-.467.359-.868.372-.928-.824-.186-1.206-.867-1.982.47-.271 1.652-.736.867-1.487-.561-.231-.215.445-.496.495-.768-.062-.996-.65-.62-1.239-1.064-.482-1.297-1.913-.619-2.85.056-.202-.675-.202-.62 0-.593-1.015-.375-1.994.372-2.726-.746-1.105.469-2.07 0-2.85.441-.467.726-1.091 1.611-1.115-.763-2.897 3.235-3.021 1.858-5.824 1.058-.414 1.862.321 2.974.248 1.046-1.432 2.065-2.892 4.336-3.098.767-.514 1.167-1.393 1.611-2.23.564.715.61 1.561 1.487 1.611.548.031.685-.5 1.363-.743.312-.112.765-.014 1.239-.124.259-.06.661-.368.744-.372.174-.008.37.342.62.372.533.063.992-.275 1.487.248 1.422-.395 2.843-.791 4.213-1.239-.598 1.557 1.404 1.227.991 2.974 1.509.102 2.43.792 3.593 1.239 1.314-.258 2.29-1.366 3.593-1.239.721-2.294.273-5.052.124-7.187-.641-.514-1.517.428-1.982.372-.406-.701.673-.861.991-1.239-.035-.75-.727-.843-.868-1.487.58-.04.716-.523.991-.868.006-.626-.6-.639-.743-1.115.516-.426.789.221 1.239.248-.048-1.187 2.081-.983 2.727-1.859.446-.074.365.378.743.372.253-.539.908.089.991-.62.43.066.66.332 1.115.372.548-.195.517-.97.868-1.362.668.15.641.807.496 1.487.533.292.937.715 1.486.991 1.041-.46 1.918-.317 2.85-.867.617.333.778 1.122.991 1.858.16.171.538.123.868.124-.198.776.506.65.371 1.363-1.117.89-2.629 1.204-3.717 2.354-.211 1.778-.758 3.86-.744 5.452.177.011.352.021.372-.124.023-.1.124-.123.124-.248-.018.328-.599 2.196-.371 3.594z" fill-rule="evenodd"/></svg>