<svg xmlns="http://www.w3.org/2000/svg" xmlns:dc="http://dublincore.org/documents/dcmi-terms/" height="606" version="1.2" viewBox="0 0 1413 606" width="1413" overflow="inherit"><metadata><dc:description>Silhouette of Biarmosuchus tener, processed by PhyloPic Tools (https://github.com/eweitz/phylopic-tools)</dc:description><dc:source>http://phylopic.org/image/88528214-ef93-4862-95ae-506e420c65e2</dc:source><dc:creator>Dmitry Bogdanov (vectorized by T. Michael Keesey)</dc:creator><dc:license>http://creativecommons.org/licenses/by/3.0/</dc:license></metadata><g fill-rule="evenodd"><path d="M132 11c-2.433 4.796-.363 13.675 1 18 4.375-3.026-2.301-11.466-1-18zM95 34c.89-.777 2.259-1.075 4-1-1.02-1.314-.98-3.686-2-5-1.656 1.01-1.086 4.247-2 6zM225 31c-4.36 2.306-9.517 3.816-12 8 4.59-.259 4.831-1.063 9 0 .139-3.528 2.861-4.472 3-8zM846 606c-4.746-10.833 1.878-16.919 6-24-8.621 3.323-21.271 19.854-27 3-10.084-.084-15.469 4.531-20 10-1.938-9.281 5.833-17.492 13-21 .88-3.213-3.297-1.37-3-4 2.602-5.732 6.577-10.09 13-12 1.441-7.432 10.761-14.183 21-16 .672-5.328 4.767-7.233 8-10 18.736 4.42 19.981-18.83 14-26-2.809-3.367-6.962-2.59-12-5-3.891-1.86-6.524-5.368-11-8-24.642-14.492-55.553-29.586-67-56-13.11-8.431-20.338-20.448-30-34-12.072 11.076-38.463 8.213-54 17 2.306-.306 1.111 2.889 3 3 4.083.305.534-2.088 1-4 8.559 16.189 20.83 37.927 17 60 1.803.864 3.136 2.198 4 4-9.334 17.333-21.431 38.647-46 42-3.936 1.602-.348-4.318-3-4-8.826-1.493-9.438 5.229-15 7-2.929-2.886 5.657-3.846 2-8-6.335.849-9.409 9.675-16 7-4.717.007-.733-4.017-3-5-8.753-.752-13.067 2.933-18 6-3.633-.904 2.084-5.645-1-6-2.265 2.591-8.649 6.516-13 10-3.03-.97-3.341-4.659-6-6-7.448 1.552-11.304 6.696-16 11-.748-5.365 1.156-9.542 3-14-6.929-2.909-12.581 4.071-17 7-.236-10.32 10.729-17.876 19-23 10.15 3.176 14.876-5.3 22-8 1.664-.631 3.332 1.354 5 1 3.057-.649 6.501-4.071 10-5 12.677-3.366 22.034-3.999 30-10-1.846-5.073 3.088-9.609 5-14-15.025-15.975-28.536-33.464-37-56-23.275-3.918-54.768.49-78 3 11.24 22.581 4.572 52.07 3 80-.459 2.541-1.949 4.051-4 5-3.363 21.304-28.161 21.172-47 27-8.78-1.809-16.355 2.935-17-4-3.29 2.043-7.554 3.113-11 5-2.168.169-.453-3.547-1-5-15.612 2.591-23.812 2.534-36 6-4.335-1.65 1.993-5.529 1-10-6.893 1.774-11.141 6.192-16 10-2.285-2.849 1.802-8.364-2-11-5.894.772-7.256 6.077-11 9-1.933-8.611 4.047-17.945 9-23 28.937-5.851 61.979-2.018 83-21 5.219-20.065-16.288-43.834-12-67-12.221-3.954-30.278-3.127-47-6-9.188-1.579-20.75-9.467-28-8-5.721 1.158-6.012 8.586-11 9-.971 21.765-19.221 34.728-33 47-4.118-.785-5.132 1.535-9 1-14.536 12.839-43.045 29.617-66 38-4.281 1.563-10.346 1.017-15 3-8.771 3.737-14.59 10.188-23 10-4.37-.098-8.349-3.517-12-4-3.992-.528-8.524 1.49-12 1-13.123-1.85-14.694-13.432-28-20-3.813.52-6.843 1.823-9 4-7.924-8.927-20.739-8.88-30-1-1.244-8.747 7.935-11.833 7-17-2.612.279-5.004.338-4-3-7.398 1.269-12.273 5.06-18 8 3.041-13.473 16.831-24.776 32-23 6.894.807 11.168 8.187 19 6-.796-5.14-8.526-8.948-16-7 3.083-9.538 23.2-8.153 30-3 11.884-8.385 38.883-1.316 40 10 2.941 3.198 3.401-4.542 8-3 15.381-28.952 42.137-46.531 67-66-2.769-8.59 7.453-18.396 12-26-13.805-17.656-17.134-38.47-21-60-4.875-27.15-25.957-53.659-42-72-6.136-7.015-10.286-16.532-16-22-17.309-16.562-50.841-21.881-74-35-12.409-7.03-21.302-15.724-33-21-21.852-9.855-55.266-24.236-79-11 1.516 9.151 6.623 14.71 12 20-7.502.743-9.489-17.725-16-18-4.816 5.034 4.331 12.842 4 20-4.155-5.512-4.366-14.967-9-20-4.153 2.197 3.566 8.825 2 15-2.488-4.512-2.859-11.14-6-15-2.3 2.367-.358 8.975-1 13-2.792-1.576.727-14.681-2-13-3.858-1.774-2.958 8.739-6 11-1.244-2.289 3.308-7.325 3-12-6.017 3.316-6.591 12.076-10 18-.572-4.592 4.147-12.504 7-17-4.812-4.602-8.157 6.325-13 8 2.146-3.543 8.402-8.234 8-11-5.013-5.018-10.076 2.755-15 4-1.182-3.875 10.519-3.461 11-9-4.026-4.126-10.521 5.974-19 4 5.404-2.941 18.787-3.197 17-10-3.372-4.101-12.081 3.054-18 3 3.831-5.169 16.898-1.102 17-10-3.087-3.701-12.335.907-18 1 3.162-3.504 11.66-1.673 16-4-1.862-6.138-5.657-10.343-7-17-1.161-.839-2.681-1.319-5-1-4.687-10.56-10.534-30.575-4-43-9.949-.95-16.231 1.769-25 2v539h846z" fill="#fff"/><path d="M158 30c1.758-.575 5.875 1.208 6-1-1.694-7.316-6.393-16.927-6-23 4.993 7.34 1.766 22.901 12 25 1.744-4.343-3.436-15.026-3-18 4.34 3.994 2.539 14.128 6 19 6.008-1.97 11.202 3.626 20 2 2.901-4.098 1.819-12.181 2-19 .17-1.496-.357-3.69 1-4v16c.829 2.611-3.024 5.487 0 7 7.429-5.238 8.461-16.873 14-24-1.566 9.108-9.548 17.109-10 24 8.729-4.277 15.96-15.366 24-17-7.049 5.29-17.617 12.375-21 18 8.494 2.466 15.295-9.771 22-9-4.521 3.491-14.431 6.886-15 11 6.41-.924 9.021-5.646 15-7 3.455 3.238-5.8 8.495 0 11 2.552-2.68 8.92-11.429 9-10-1.448 3.909-7.939 8.028-7 11 9.14-.527 9.035-10.298 15-14-1.926 5.741-7.074 8.259-9 14 15.291 7.709 36.089 9.911 50 19 18.288 13.05 36.06 28.737 56 40 13.913 7.859 29.768 12.226 44 20 27.319 14.923 55.099 32.802 84 45 16.375 6.911 32.305 9.688 50 15 70.703 21.227 132.873 37.64 213 34 47.188-2.144 86.045 7.7 125 0 25.087 2.954 55.387 2.169 84 2 39.486-.233 75.362 4.884 112 11 23.241 3.879 40.553 11.458 61 17 35.123 9.52 59.528 25.803 86 40 16.057 15.018 37.834 22.534 54 37 8.801 7.876 13.833 18.855 24 25a725.69 725.69 0 0 1 58 80c5.456 13.544 10.791 27.208 19 38 4.548 16.118 9.708 31.625 18 44 8.912 29.754 27.467 49.867 41 75-29.054-18.385-42.482-50.609-57-83-10.537-23.509-26.213-45.437-33-70-20.332-32.335-45.721-59.612-72-86-61.574-46.365-165.979-62.741-267-48-19.152 2.794-32.906 8.998-48 13-14.843 3.936-26.104 6.392-36 13-7.096 4.738-11.642 13.541-21 21-12.178 9.706-27.639 14.871-41 23 1.438 13.001 4.839 22.698 2 33 3.036 3.781 5.81 6.765 6 11 40.119 20.715 71.459 54.979 82 102-5.361 12.648-8.695 33.176-10 50-1.092 14.076-6.836 13.504-10 18-3.248 4.616-11.969 2.27-18 5-4.373 6.96-10.959 11.707-20 14-2.886-1.313-3.984-4.408-4-6-6.488.711-16.166 3.659-18 12h-1c-4.746-10.833 1.878-16.919 6-24-8.621 3.323-21.271 19.854-27 3-10.084-.084-15.469 4.531-20 10-1.938-9.281 5.833-17.492 13-21 .88-3.213-3.297-1.37-3-4 2.602-5.732 6.577-10.09 13-12 1.441-7.432 10.761-14.183 21-16 .672-5.328 4.767-7.233 8-10 18.736 4.42 19.981-18.83 14-26-2.809-3.367-6.962-2.59-12-5-3.891-1.86-6.524-5.368-11-8-24.642-14.492-55.553-29.586-67-56-13.11-8.431-20.338-20.448-30-34-12.072 11.076-38.463 8.213-54 17 2.306-.306 1.111 2.889 3 3 4.083.305.534-2.088 1-4 8.559 16.189 20.83 37.927 17 60 1.803.864 3.136 2.198 4 4-9.334 17.333-21.431 38.647-46 42-3.936 1.602-.348-4.318-3-4-8.826-1.493-9.438 5.229-15 7-2.929-2.886 5.657-3.846 2-8-6.335.849-9.409 9.675-16 7-4.717.007-.733-4.017-3-5-8.753-.752-13.067 2.933-18 6-3.633-.904 2.084-5.645-1-6-2.265 2.591-8.649 6.516-13 10-3.03-.97-3.341-4.659-6-6-7.448 1.552-11.304 6.696-16 11-.748-5.365 1.156-9.542 3-14-6.929-2.909-12.581 4.071-17 7-.236-10.32 10.729-17.876 19-23 10.15 3.176 14.876-5.3 22-8 1.664-.631 3.332 1.354 5 1 3.057-.649 6.501-4.071 10-5 12.677-3.366 22.034-3.999 30-10-1.846-5.073 3.088-9.609 5-14-15.025-15.975-28.536-33.464-37-56-23.275-3.918-54.768.49-78 3 11.24 22.581 4.572 52.07 3 80-.459 2.541-1.949 4.051-4 5-3.363 21.304-28.161 21.172-47 27-8.78-1.809-16.355 2.935-17-4-3.29 2.043-7.554 3.113-11 5-2.168.169-.453-3.547-1-5-15.612 2.591-23.812 2.534-36 6-4.335-1.65 1.993-5.529 1-10-6.893 1.774-11.141 6.192-16 10-2.285-2.849 1.802-8.364-2-11-5.894.772-7.256 6.077-11 9-1.933-8.611 4.047-17.945 9-23 28.937-5.851 61.979-2.018 83-21 5.219-20.065-16.288-43.834-12-67-12.221-3.954-30.278-3.127-47-6-9.188-1.579-20.75-9.467-28-8-5.721 1.158-6.012 8.586-11 9-.971 21.765-19.221 34.728-33 47-4.118-.785-5.132 1.535-9 1-14.536 12.839-43.045 29.617-66 38-4.281 1.563-10.346 1.017-15 3-8.771 3.737-14.59 10.188-23 10-4.37-.098-8.349-3.517-12-4-3.992-.528-8.524 1.49-12 1-13.123-1.85-14.694-13.432-28-20-3.813.52-6.843 1.823-9 4-7.924-8.927-20.739-8.88-30-1-1.244-8.747 7.935-11.833 7-17-2.612.279-5.004.338-4-3-7.398 1.269-12.273 5.06-18 8 3.041-13.473 16.831-24.776 32-23 6.894.807 11.168 8.187 19 6-.796-5.14-8.526-8.948-16-7 3.083-9.538 23.2-8.153 30-3 11.884-8.385 38.883-1.316 40 10 2.941 3.198 3.401-4.542 8-3 15.381-28.952 42.137-46.531 67-66-2.769-8.59 7.453-18.396 12-26-13.805-17.656-17.134-38.47-21-60-4.875-27.15-25.957-53.659-42-72-6.136-7.015-10.286-16.532-16-22-17.309-16.562-50.841-21.881-74-35-12.409-7.03-21.302-15.724-33-21-21.852-9.855-55.266-24.236-79-11 1.516 9.151 6.623 14.71 12 20-7.502.743-9.489-17.725-16-18-4.816 5.034 4.331 12.842 4 20-4.155-5.512-4.366-14.967-9-20-4.153 2.197 3.566 8.825 2 15-2.488-4.512-2.859-11.14-6-15-2.3 2.367-.358 8.975-1 13-2.792-1.576.727-14.681-2-13-3.858-1.774-2.958 8.739-6 11-1.244-2.289 3.308-7.325 3-12-6.017 3.316-6.591 12.076-10 18-.572-4.592 4.147-12.504 7-17-4.812-4.602-8.157 6.325-13 8 2.146-3.543 8.402-8.234 8-11-5.013-5.018-10.076 2.755-15 4-1.182-3.875 10.519-3.461 11-9-4.026-4.126-10.521 5.974-19 4 5.404-2.941 18.787-3.197 17-10-3.372-4.101-12.081 3.054-18 3 3.831-5.169 16.898-1.102 17-10-3.087-3.701-12.335.907-18 1 3.162-3.504 11.66-1.673 16-4-1.862-6.138-5.657-10.343-7-17-1.161-.839-2.681-1.319-5-1-4.687-10.56-10.534-30.575-4-43-9.949-.95-16.231 1.769-25 2v-1c9.692-3.042 31.789 1.214 32-8-9.939-.273-19.422-.089-27 2 6.085-4.186 21.326-3.634 30-2 .733-2.6 4.757-1.91 5-5-9.822-.178-16.976-3.025-27-3-2.359-2.654-1.029-1.061 1-1 6.223.187 22.204 2.366 29 4 1.458-2.209 5.354-1.979 6-5-11.545-3.792-28.428-7.567-36-12 13.3 3.7 25.939 8.061 39 12 .712-2.622 5.709-.958 6-4-12.003-4.667-28.984-9.677-37-15 15.646 3.123 31.47 18.314 47 12-6.491-5.515-18.156-11.169-21-17 7.931 5.135 16.156 15.088 25 16-2.783-10.555-12.454-19.539-13-29 5.672 9.328 7.815 22.185 17 28-1.953-10.386-8.392-21.601-8-31 3.137 10.53 5.415 21.918 10 31 6.365-1.025 1.055-18.023 1-24-.049-5.26 1.195-4.881 1 1 2.009 5.991.999 15.001 3 21 8.031-2.302 5.403-15.264 8-23-.486-10.021 1.779-5.37 1 2-.801 5.884-3.529 15.114-3 19 11.611 1 4.358-19.94 6-21 .914 1.753.344 4.99 2 6 1.751-2.287 1.688-11.595 4-10-1.979 5.522-5.783 17.653 0 22 2.391-.609 7.256 1.255 8-1-1.311-5.705-8.083-11.229-7-16 4.295 5.373 3.695 15.638 13 16-2.396-8.271-5.893-15.44-12-20 9.658 2.009 8.351 14.982 15 20 7.589-2.544-.297-17.444 2-21 2.531 5.135 1.1 14.233 3 20 3.499.166 6.401-.266 8-2-1.227-7.312-.963-18.905-1-22 7.102 8.236 10.676 25.319 25 23-2.451-13.216-9.261-22.072-18-29h1c10.78 5.886 14.534 18.799 20 30zm-63 4c.89-.777 2.259-1.075 4-1-1.02-1.314-.98-3.686-2-5-1.656 1.01-1.086 4.247-2 6zm130-3c-4.36 2.306-9.517 3.816-12 8 4.59-.259 4.831-1.063 9 0 .139-3.528 2.861-4.472 3-8zm-91-17c-.978 3.01 1.3 11.342 3 15h7c-2.744-5.589-6.964-9.703-10-15zm-2-3c-2.433 4.796-.363 13.675 1 18 4.375-3.026-2.301-11.466-1-18z"/><path d="M138 0c10.78 5.886 14.534 18.799 20 30 1.758-.575 5.875 1.208 6-1-1.694-7.316-6.393-16.927-6-23 4.993 7.34 1.766 22.901 12 25 1.744-4.343-3.436-15.026-3-18 4.34 3.994 2.539 14.128 6 19 6.008-1.97 11.202 3.626 20 2 2.901-4.098 1.819-12.181 2-19 .17-1.496-.357-3.69 1-4v16c.829 2.611-3.024 5.487 0 7 7.429-5.238 8.461-16.873 14-24-1.566 9.108-9.548 17.109-10 24 8.729-4.277 15.96-15.366 24-17-7.049 5.29-17.617 12.375-21 18 8.494 2.466 15.295-9.771 22-9-4.521 3.491-14.431 6.886-15 11 6.41-.924 9.021-5.646 15-7 3.455 3.238-5.8 8.495 0 11 2.552-2.68 8.92-11.429 9-10-1.448 3.909-7.939 8.028-7 11 9.14-.527 9.035-10.298 15-14-1.926 5.741-7.074 8.259-9 14 15.291 7.709 36.089 9.911 50 19 18.288 13.05 36.06 28.737 56 40 13.913 7.859 29.768 12.226 44 20 27.319 14.923 55.099 32.802 84 45 16.375 6.911 32.305 9.688 50 15 70.703 21.227 132.873 37.64 213 34 47.188-2.144 86.045 7.7 125 0 25.087 2.954 55.387 2.169 84 2 39.486-.233 75.362 4.884 112 11 23.241 3.879 40.553 11.458 61 17 35.123 9.52 59.528 25.803 86 40 16.057 15.018 37.834 22.534 54 37 8.801 7.876 13.833 18.855 24 25a725.69 725.69 0 0 1 58 80c5.456 13.544 10.791 27.208 19 38 4.548 16.118 9.708 31.625 18 44 8.912 29.754 27.467 49.867 41 75-29.054-18.385-42.482-50.609-57-83-10.537-23.509-26.213-45.437-33-70-20.332-32.335-45.721-59.612-72-86-61.574-46.365-165.979-62.741-267-48-19.152 2.794-32.906 8.998-48 13-14.843 3.936-26.104 6.392-36 13-7.096 4.738-11.642 13.541-21 21-12.178 9.706-27.639 14.871-41 23 1.438 13.001 4.839 22.698 2 33 3.036 3.781 5.81 6.765 6 11 40.119 20.715 71.459 54.979 82 102-5.361 12.648-8.695 33.176-10 50-1.092 14.076-6.836 13.504-10 18-3.248 4.616-11.969 2.27-18 5-4.373 6.96-10.959 11.707-20 14-2.886-1.313-3.984-4.408-4-6-6.488.711-16.166 3.659-18 12h566V0H138z" fill="#fff"/><path d="M137 0H0v66c9.692-3.042 31.789 1.214 32-8-9.939-.273-19.422-.089-27 2 6.085-4.186 21.326-3.634 30-2 .733-2.6 4.757-1.91 5-5-9.822-.178-16.976-3.025-27-3-2.359-2.654-1.029-1.061 1-1 6.223.187 22.204 2.366 29 4 1.458-2.209 5.354-1.979 6-5-11.545-3.792-28.428-7.567-36-12 13.3 3.7 25.939 8.061 39 12 .712-2.622 5.709-.958 6-4-12.003-4.667-28.984-9.677-37-15 15.646 3.123 31.47 18.314 47 12-6.491-5.515-18.156-11.169-21-17 7.931 5.135 16.156 15.088 25 16-2.783-10.555-12.454-19.539-13-29 5.672 9.328 7.815 22.185 17 28-1.953-10.386-8.392-21.601-8-31 3.137 10.53 5.415 21.918 10 31 6.365-1.025 1.055-18.023 1-24-.049-5.26 1.195-4.881 1 1 2.009 5.991.999 15.001 3 21 8.031-2.302 5.403-15.264 8-23-.486-10.021 1.779-5.37 1 2-.801 5.884-3.529 15.114-3 19 11.611 1 4.358-19.94 6-21 .914 1.753.344 4.99 2 6 1.751-2.287 1.688-11.595 4-10-1.979 5.522-5.783 17.653 0 22 2.391-.609 7.256 1.255 8-1-1.311-5.705-8.083-11.229-7-16 4.295 5.373 3.695 15.638 13 16-2.396-8.271-5.893-15.44-12-20 9.658 2.009 8.351 14.982 15 20 7.589-2.544-.297-17.444 2-21 2.531 5.135 1.1 14.233 3 20 3.499.166 6.401-.266 8-2-1.227-7.312-.963-18.905-1-22 7.102 8.236 10.676 25.319 25 23-2.451-13.216-9.261-22.072-18-29z" fill="#fff"/><path d="M134 14c-.978 3.01 1.3 11.342 3 15h7c-2.744-5.589-6.964-9.703-10-15z" fill="#fff"/></g></svg>