<svg xmlns="http://www.w3.org/2000/svg" xmlns:dc="http://dublincore.org/documents/dcmi-terms/" height="255.046" width="291.528"><metadata><dc:description>Silhouette of Biota, processed by PhyloPic Tools (https://github.com/eweitz/phylopic-tools)</dc:description><dc:source>http://phylopic.org/image/3517b09b-f068-4d04-8f19-72c3dc66d85c</dc:source><dc:creator>Matt Crook</dc:creator><dc:license>http://creativecommons.org/licenses/by-sa/3.0/</dc:license></metadata><g stroke="#000" stroke-linecap="round"><g transform="translate(-248.211 -428.681)"><rect height="20.336" rx="21.915" ry="10.168" style="marker:none" transform="rotate(51.421)" width="43.83" x="562.114" y="16.118" color="#000" stroke-width="2" stroke-linejoin="round" overflow="visible"/><path d="M351.64 484.145c11.924 11.84 24.55 23.252 35.962 33.566" fill="none" stroke-width="10"/></g><g transform="translate(-380.076 -423.886)"><rect height="20.336" rx="21.915" ry="10.168" style="marker:none" transform="rotate(15.39)" width="43.83" x="601.559" y="382.926" color="#000" stroke-width="2" stroke-linejoin="round" overflow="visible"/><path d="M509.84 548.808c10.214 2.561 23.94 5.162 36.84 4.392" fill="none" stroke-width="10"/></g><g transform="translate(-380.076 -423.886)"><rect height="20.336" rx="21.915" ry="10.168" style="marker:none" transform="rotate(141.293)" width="43.83" x="-216.489" y="-741.358" color="#000" stroke-width="2" stroke-linejoin="round" overflow="visible"/><path d="M597.903 456.934c-16.609 16.746-27.193 26.2-39.08 41.632" fill="none" stroke-width="10"/></g><g transform="translate(-397.658 -455.054)"><rect height="20.336" rx="21.915" ry="10.168" style="marker:none" transform="scale(1 -1) rotate(.67)" width="43.83" x="599.241" y="-609.578" color="#000" stroke-width="2" stroke-linejoin="round" overflow="visible"/><path d="M640.246 596.01c14.527-2.28 26.066.29 43.94 1.915" fill="none" stroke-width="10"/></g><g transform="translate(-380.076 -423.886)"><rect height="20.336" rx="21.915" ry="10.168" style="marker:none" transform="scale(1 -1) rotate(54.434)" width="43.83" x="-241.089" y="-814.045" color="#000" stroke-width="2" stroke-linejoin="round" overflow="visible"/><path d="M536.75 638.38c6.75-13.064 15.644-20.852 27.52-34.308" fill="none" stroke-width="10"/></g><g transform="translate(-138.723 -434.276)"><rect height="20.336" rx="21.915" ry="10.168" style="marker:none" transform="scale(1 -1) rotate(38.761)" width="43.83" x="-266.053" y="-566.552" color="#000" stroke-width="2" stroke-linejoin="round" overflow="visible"/><path d="M168.222 577.53c8.36-6.403 19.929-14.236 32.074-18.645" fill="none" stroke-width="10"/></g><g transform="translate(-44.42 -411.899)"><rect height="20.336" rx="21.915" ry="10.168" style="marker:none" transform="scale(1 -1) rotate(8.379)" width="43.83" x="100.623" y="-456.246" color="#000" stroke-width="2" stroke-linejoin="round" overflow="visible"/><path d="M199.713 420.736c6.455.304 10.806.197 16.321.937" fill="none" stroke-width="10"/></g><g transform="translate(-199.461 -383.128)"><rect height="20.336" rx="21.915" ry="10.168" style="marker:none" transform="rotate(-71.279)" width="43.83" x="-521.099" y="436.573" color="#000" stroke-width="2" stroke-linejoin="round" overflow="visible"/><path d="M267.988 603.389c6.719-10.838 17.492-53.201 20.006-68.377" fill="none" stroke-width="10"/></g></g></svg>