<svg xmlns="http://www.w3.org/2000/svg" xmlns:dc="http://dublincore.org/documents/dcmi-terms/" height="1052.362" width="744.094"><metadata><dc:description>Silhouette of Blastomeryx gemmifer, processed by PhyloPic Tools (https://github.com/eweitz/phylopic-tools)</dc:description><dc:source>http://phylopic.org/image/6a2f7cea-9546-4af0-a189-dd0869022ff6</dc:source><dc:creator>Andrew A. Farke, modified from original by Robert Bruce Horsfall, from Scott 1912</dc:creator><dc:license>http://creativecommons.org/publicdomain/zero/1.0/</dc:license></metadata><path d="M274.596 379.306a28.43 28.43 0 0 1 4.677-.657c1.81-.103 3.623.183 5.434.139 1.734-.042 3.455-.343 5.189-.385 1.38-.034 2.766-.027 4.14.105 1.214.118 2.47.173 3.61.61.938.361 1.72 1.046 2.547 1.62.61.422 1.16.93 1.778 1.34.901.597 1.97.94 2.807 1.625 1.275 1.044 2.158 2.492 3.271 3.708.989 1.08 2.108 2.044 3.026 3.185.93 1.156 1.67 2.455 2.495 3.688.586.876 1.09 1.81 1.745 2.634.684.86 1.24 2.006 2.27 2.389.651.242 1.388-.308 2.076-.206 1.189.176 2.134 1.269 3.331 1.38 1.855.171 3.78-.364 5.467-1.156.61-.286 1.046-.85 1.586-1.254 1.035-.776 2.076-1.548 3.164-2.25 2.215-1.425 4.623-2.534 6.834-3.967 2.273-1.474 4.247-3.398 6.594-4.751 2.073-1.196 4.315-2.083 6.548-2.94 1.707-.655 3.508-1.042 5.222-1.68 1.954-.726 3.76-1.848 5.759-2.441 3.714-1.103 7.63-1.353 11.445-2.038 4.596-.826 9.303-1.187 13.786-2.496 4.525-1.32 8.438-4.57 13.084-5.362 3.318-.566 6.73.245 10.085.516 4.056.329 8.1.807 12.135 1.346 5.95.796 11.88 1.752 17.795 2.785 4.136.723 8.39 1.044 12.367 2.388 3.877 1.31 7.27 3.765 10.994 5.46 3.282 1.492 7.05 2.056 9.993 4.139 3.587 2.537 6.33 6.179 8.812 9.805 1.439 2.102 2.54 4.44 3.45 6.82.869 2.27.979 4.788 1.892 7.04.829 2.043 2.691 3.637 3.218 5.778.35 1.424.349 3.007-.112 4.4-.684 2.066-2.636 3.476-3.762 5.34-1.237 2.049-2.316 4.196-3.27 6.39-.762 1.751-1.596 3.51-1.95 5.388-.192 1.017.507 2.251-.08 3.105-.48.7-1.874.275-2.355.975-.244.356.37 1.14-.033 1.294-1.025.394-1.812-1.39-2.27-2.388-.578-1.265-.36-2.763-.41-4.154-.051-1.38 1.452-3.837.105-4.14-1.548-.347-.859 3.177-1.924 4.353-.338.373-.931.416-1.313.743-.983.842-1.625 2.015-2.409 3.046-.825 1.086-1.865 2.055-2.414 3.304-.811 1.844-.416 4.065-1.187 5.925-.744 1.79-2.612 3-3.231 4.837-.772 2.29-.643 4.83-.444 7.239.257 3.107.768 6.295 2.097 9.116.994 2.108 2.662 3.85 4.26 5.546 1.303 1.383 3.02 2.336 4.307 3.735.957 1.042 1.78 2.212 2.501 3.43.59.996 1.355 1.993 1.473 3.145.172 1.666-.808 3.252-1.16 4.89-.442 2.052-.892 4.106-1.194 6.183-.685 4.709-.638 9.509-1.399 14.206-.703 4.342-2.477 8.494-2.918 12.871-.182 1.805.273 3.633.12 5.44-.221 2.616-.84 5.189-1.492 7.73-.38 1.481-.469 3.159-1.406 4.366-.382.492-.962 1.073-1.58.996-.362-.046-.405-.902-.756-.796-1.67.503-.34 3.505-.908 5.155-.314.912-.713 1.84-1.36 2.554-1.205 1.332-2.823 2.298-4.478 2.993-1.39.583-3.37 1.997-4.426.923-.308-.314.512-.906.292-1.287-.313-.545-1.576.023-1.798-.564-.491-1.302 1.401-2.406 2.163-3.57 1.532-2.343 3.455-4.432 4.836-6.867 1.335-2.356 2.495-4.839 3.297-7.425 1.138-3.672 1.414-7.557 2.102-11.339.718-3.95 1.496-7.89 2.115-11.857.496-3.172 1.991-6.416 1.28-9.547-.604-2.66-3.12-4.485-4.486-6.847-1.275-2.206-1.928-4.777-3.45-6.82-1.388-1.862-3.4-3.164-5.056-4.79-2.57-2.522-5.393-4.836-7.571-7.702-2.203-2.899-2.327-7.6-5.455-9.461-.074-.044-.194-.063-.259-.007-.72.624-.484 1.899-.331 2.84.216 1.333 1.092 2.472 1.718 3.668.611 1.167 1.595 2.16 1.985 3.417.256.829.171 1.728.192 2.594.025 1.035.227 2.116-.08 3.105-1.074 3.478-3.854 6.18-5.93 9.17-2.648 3.815-5.74 7.314-8.312 11.18-2.354 3.538-4.7 7.117-6.495 10.969-1.187 2.547-1.645 5.39-2.792 7.955-1.072 2.395-2.001 4.985-3.802 6.894-.853.905-1.914 2.022-3.158 1.99-.31-.007-.461-.615-.763-.537-1.009.26-1.153 1.793-1.366 2.813-.265 1.27.77 2.744.16 3.888-.824 1.541-2.84 2.113-4.472 2.734-2.412.918-5.04 1.33-7.62 1.373-.757.012-2.42.406-2.246-.33.494-2.086 2.071-4.163 3.587-5.892 1.397-1.594 3.46-2.483 4.951-3.988 2.733-2.758 5.1-5.887 7.225-9.137 2.85-4.36 4.895-9.196 7.343-13.794 1.995-3.747 4.243-7.369 5.984-11.24 1.309-2.912 2.538-5.886 3.336-8.977.348-1.347.695-2.738.624-4.127-.097-1.882-.733-3.717-1.414-5.474-1.145-2.953-2.804-5.69-4.446-8.399-1.825-3.01-4.24-5.644-5.992-8.698-.864-1.506-1.377-3.193-2.21-4.717-.895-1.638-1.563-3.53-2.986-4.737-1.625-1.378-3.86-1.837-5.892-2.48-2.177-.691-4.41-1.411-6.695-1.466-3.603-.088-7.109 1.19-10.662 1.799-3.469.593-6.909 1.382-10.403 1.805-1.807.22-3.646.117-5.447.379-.352.051-.81-.039-1.042.232-1.568 1.84-.518 4.822-.443 7.239.162 5.232 1.152 10.408 1.932 15.585.643 4.266 1.805 8.454 2.263 12.745.294 2.75.07 5.537.306 8.293.232 2.7.636 5.384 1.089 8.055.577 3.405 1.466 6.751 2.07 10.15.431 2.417.565 4.886 1.11 7.28.363 1.595 1.28 3.067 1.433 4.697.097 1.034-.178 2.071-.338 3.098-.23 1.472.276 3.451-.889 4.38-.337.268-.968-.317-1.293-.034-.72.624-.209 1.895-.332 2.84-.19 1.464.154 3.134-.63 4.385-.394.63-1.208.866-1.844 1.248-1.358.815-2.667 1.824-4.2 2.223-1.755.456-3.293.219-5.44.12-2.01-.093 2.304-3.313 3.237-5.096a37.389 37.389 0 0 0 2.48-5.892 38.632 38.632 0 0 0 1.46-6.436c.396-2.82.71-5.693.477-8.532-.349-4.255-1.724-8.366-2.788-12.5-1.128-4.387-2.43-8.73-3.81-13.044-1.713-5.357-3.427-10.726-5.547-15.936-1.091-2.68-.79-7.873-3.683-7.862-1.972.008-1.85 3.503-2.468 5.375-1.046 3.165-1.397 6.52-2.063 9.786-.82 4.03-1.544 8.081-2.38 12.109-.465 2.236-.678 4.55-1.466 6.694-.533 1.449-1.675 2.628-2.176 4.088-.962 2.804-1.044 5.837-1.519 8.764-.445 2.747-1.15 5.473-1.246 8.254-.084 2.428.463 4.839.59 7.265.092 1.726.25 3.459.127 5.182-.087 1.217-.201 2.46-.61 3.61-.49 1.381-1.019 2.963-2.169 3.828-.593.446-.835-2.462-1.247-1.845-.876 1.31-.903 3.21-1.5 4.762-.553 1.435-.775 3.167-1.92 4.192-1.226 1.096-3.084 1.176-4.687 1.545-1.936.445-3.832.95-5.905.795-.865-.064.777-1.841.325-2.58-.285-.466-1.373-.039-1.54-.558-.629-1.96 2.137-3.544 3.496-5.09 1.331-1.511 3.285-2.424 4.505-4.027 1.614-2.12 2.8-4.603 3.55-7.16 1.145-3.905.948-8.084 1.345-12.134.566-5.764 1.113-11.531 1.478-17.31.353-5.598.38-11.213.689-16.813.218-3.967.526-7.928.821-11.89.237-3.188 1.465-6.442.762-9.56-.4-1.776-1.192-3.752-2.727-4.731-1.166-.744-2.761-.189-4.133-.365-1.21-.155-2.484-.138-3.61-.61-1.832-.767-3.297-2.227-4.83-3.49-1.604-1.32-2.71-3.298-4.552-4.258-2.101-1.095-4.614-1.101-6.953-1.473-3.164-.502-6.383-.575-9.555-1.02-2.332-.328-4.765-.36-6.96-1.214-4.04-1.572-7.68-4.17-10.954-7.012-2.815-2.442-5.188-5.398-7.293-8.472-1.68-2.455-2.776-5.263-4.2-7.875-1.055-1.936-1.645-4.235-3.219-5.779a3.095 3.095 0 0 0-1.532-.816c-3.412-.675-6.911.835-10.384 1.03-2.241.125-4.508-.207-6.734.086-3.466.457-6.873 1.41-10.164 2.589-1.09.39-2.594.455-3.145 1.473-.75 1.384 1.936 3.76.657 4.677-1.317.945-2.748-1.91-4.346-2.182-1.118-.191-2.247.543-3.377.431-1.168-.115-2.28-.611-3.337-1.12-1.64-.79-2.962-2.143-4.585-2.966-1.387-.704-3.156-.679-4.36-1.665-1.443-1.183-2.862-2.874-2.985-4.737-.13-1.967 1.27-3.808 2.467-5.374 2.303-3.011 5.802-4.88 8.731-7.286 4.115-3.38 8.239-6.75 12.426-10.04 3.571-2.805 6.98-5.854 10.827-8.267 2.159-1.354 4.462-2.487 6.82-3.451a43.442 43.442 0 0 1 6.788-2.157z"/><path d="M277.742 387.931s.299-3.457.132-5.175c-.276-2.832-1.839-5.487-1.859-8.333-.013-1.93.36-3.92 1.18-5.666 1.338-2.842 2.745-7.355 5.885-7.359 1.47-.002 2.028 2.163 2.76 3.437 1.35 2.348 2.01 5.03 2.914 7.583.52 1.466 1.443 2.883 1.44 4.439-.003 1.801-.801 3.565-1.685 5.135-.872 1.55-3.47 4.054-3.47 4.054M266.164 385.046s-3.588-1.748-4.837-3.23c-1.294-1.535-2.208-3.508-2.45-5.5-.272-2.254.589-4.518 1.208-6.702.275-.971.194-2.39 1.108-2.82 1.63-.767 3.612.722 5.135 1.685 1.547.978 2.626 2.562 3.782 3.98 1.014 1.245 2.078 2.496 2.747 3.955 1.048 2.284 1.885 7.298 1.885 7.298"/></svg>