<svg xmlns="http://www.w3.org/2000/svg" xmlns:dc="http://dublincore.org/documents/dcmi-terms/" height="370.694" width="864.701"><metadata><dc:description>Silhouette of Borhyaenoidea, processed by PhyloPic Tools (https://github.com/eweitz/phylopic-tools)</dc:description><dc:source>http://phylopic.org/image/ed6b1284-15de-4883-b0dd-da4c6712cc88</dc:source><dc:creator>Zimices</dc:creator><dc:license>http://creativecommons.org/licenses/by-nc/3.0/</dc:license></metadata><path d="M657.066 369.424c-.329-.857-.112-2.044.482-2.638 1.642-1.642 13.787-3.708 22.041-3.75 4.046-.02 9.896-.693 13-1.496 3.105-.803 10.145-2.162 15.645-3.02 11.713-1.825 35.83-8.674 43-12.21 2.75-1.357 7.25-4.182 10-6.277 2.75-2.095 7.41-5.017 10.356-6.492 7.138-3.575 11.699-6.947 23.8-17.6 5.586-4.918 10.567-8.941 11.069-8.941.501 0 3.13-3.002 5.843-6.672 2.712-3.67 6.62-8.95 8.682-11.737 2.062-2.786 3.75-5.354 3.75-5.708 0-.353-2.813-.864-6.25-1.134-5.565-.438-6.53-.232-8.805 1.88-1.405 1.304-3.473 2.371-4.595 2.371-2.383 0-5.35-2.938-5.35-5.297 0-1.007-.55-1.43-1.422-1.095-1.961.753-5.316-1.205-6.055-3.534-.841-2.65 1.81-8.59 4.67-10.465 1.605-1.051 6.032-1.74 13.833-2.153 6.31-.333 13.836-1.054 16.724-1.602 5.032-.954 5.25-1.129 5.25-4.196 0-4.459-8.091-18.16-13.84-23.436C810.773 226.767 786.767 215 779.68 215c-1.55 0-4.083-.482-5.631-1.072-1.549-.59-5.065-1.498-7.815-2.019-2.75-.52-16.475-4.563-30.5-8.983-18.64-5.873-29.753-10.038-41.307-15.48-8.693-4.096-16.148-7.446-16.565-7.446-.418 0-1.743 1.749-2.944 3.886-2.002 3.562-2.182 5.253-2.16 20.25.036 22.591 2.133 31.15 10.525 42.95 3.273 4.6 8.538 11.017 11.7 14.258 3.163 3.24 5.75 6.753 5.75 7.806 0 2.643-2.69 8.85-3.837 8.85-.517 0-2.677 1.53-4.8 3.402a3040.536 3040.536 0 0 1-8.04 7.05c-4.566 3.99-13.893 8.862-19.174 10.018-1.843.403-5.893 1.907-9 3.342-4.977 2.298-7.228 2.657-18.933 3.015l-13.285.407-1.454 2.812c-.8 1.547-2.381 3.106-3.514 3.466-2.489.79-6.992-1.909-7.7-4.614-.567-2.17-1.548-2.35-4.421-.813-5.563 2.977-10.125-2.578-7.192-8.758 2.065-4.353 6.945-7.652 15.365-10.389 3.567-1.159 12.015-4.77 18.774-8.023 6.758-3.253 12.693-5.915 13.188-5.915.496 0 1.205-2.026 1.576-4.502.78-5.2.603-5.538-9.251-17.745-6.66-8.25-27.036-26.695-37.301-33.768-3.025-2.085-7.525-5.751-10-8.148-3.823-3.702-15.714-17.889-20.32-24.243-1.221-1.685-2.238-1.834-8.78-1.29-10.487.871-49.244 5.525-56.4 6.772l-14 2.442c-4.4.768-12.95 1.862-19 2.43-6.05.57-15.63 1.488-21.29 2.043-5.659.555-26.628 1.009-46.599 1.009h-36.31l-4.53 9.75c-2.998 6.452-4.752 11.78-5.186 15.75-.712 6.505-9.269 25.653-13.714 30.685-1.304 1.477-5.513 6.427-9.354 11-3.84 4.573-9.747 11.042-13.126 14.375-3.379 3.333-6.867 7.46-7.752 9.17-.885 1.712-2.908 4.037-4.494 5.167-1.718 1.223-3.145 3.353-3.527 5.263-1.061 5.305-3.19 6.84-9.486 6.84-5.43 0-5.676.125-10.685 5.421-5.868 6.206-11.889 10.579-14.564 10.579-1.01 0-2.625 1.237-3.587 2.75-2.212 3.476-3.259 4.216-5.99 4.235-3.2.022-5.193-3.408-4.59-7.9.498-3.723.466-3.765-2.56-3.321-1.784.262-3.722 1.451-4.634 2.843-1.152 1.757-2.484 2.393-5.01 2.393-3.682 0-5.512-2.006-5.512-6.043 0-1.843-.397-2.074-2.606-1.52-1.686.423-3.494.072-5.118-.992-2.155-1.411-2.44-2.192-1.999-5.478.366-2.726.111-3.988-.882-4.369-1.9-.729-1.768-6.044.191-7.67.873-.724 3.454-1.567 5.737-1.872 5.186-.695 6.09-3.228 1.788-5.01-3.328-1.378-5.111-5.216-5.111-11 0-3.716 3.924-11.12 7.413-13.988 3.307-2.718 7.915-10.396 10.669-17.778 3.647-9.777 9.131-16.645 21.332-26.717 5.547-4.579 11.103-9.425 12.346-10.77l2.26-2.443-2.338-6.446C282.16 194.684 273.315 180 271.824 180c-.4 0-7.447-5.661-15.66-12.58-16.03-13.508-17.198-14.233-36.93-22.91-7.15-3.145-13.428-6.121-13.95-6.614-.523-.493-13.607-.896-29.077-.896-27.998 0-28.174.013-38.55 2.908a1405.75 1405.75 0 0 1-20.923 5.627C102.903 149.117 93.43 155.007 68 175.84c-6.297 5.16-7.953 6.015-12.808 6.622-6.286.785-14.198-1.337-18.318-4.914-2.153-1.87-2.308-2.598-1.779-8.386.318-3.486.101-8.566-.483-11.288-.959-4.471-1.27-4.878-3.22-4.195-3.772 1.322-7.242.705-14.106-2.507-5.657-2.648-6.942-3.735-8.368-7.082-1.083-2.542-2.814-4.493-4.843-5.462-3.808-1.818-5.147-6.18-3.164-10.305 1.226-2.55 2.943-3.958 10.461-8.582 2.988-1.838 11.66-8.167 24.802-18.103 5.813-4.394 8.294-7.022 9.912-10.5C51.851 78.75 58.364 72.37 69.734 67.976c1.925-.744 5.612-3.227 8.195-5.518 2.582-2.29 7.86-6.046 11.73-8.344 3.87-2.3 8.506-5.1 10.305-6.224 12.91-8.074 25.93-15.203 29.52-16.165l4.25-1.14v-13.07C133.734.95 134.233 0 142.946 0c6.069 0 6.124.026 10.865 5.184 4.588 4.99 6.449 9.18 7.247 16.316.321 2.878.576 3.024 6.255 3.598 12.956 1.308 28.215 4.217 33.62 6.41 3.135 1.27 7.143 2.628 8.907 3.015 1.764.388 6.996 2.232 11.627 4.1 19.837 7.996 45.46 9.93 105.767 7.982 17.098-.552 20.801-1.008 37-4.56 24.126-5.288 36.558-7.767 45.192-9.01 4.564-.657 42.398-1.035 103.5-1.035h96.308l9.79 3.5c8.44 3.017 11.036 3.5 18.803 3.5 11.14 0 21.116 2.164 30.907 6.704 4.125 1.913 12 4.832 17.5 6.488 12.878 3.878 37.948 16.7 47.62 24.358 4.059 3.213 15.05 13.292 24.427 22.396 9.376 9.105 25.476 24.654 35.78 34.554 11.121 10.687 20.513 20.642 23.114 24.502 2.41 3.575 7.02 9.49 10.246 13.144 4.673 5.294 8.244 11.386 17.58 29.998 7.018 13.988 12.174 25.562 12.855 28.856.626 3.025 2.208 7.927 3.516 10.893 6.44 14.607 3.393 28.766-7.906 36.73-2.416 1.703-5.707 5.212-7.313 7.798-1.606 2.587-3.905 5.946-5.11 7.465-1.206 1.52-3.73 5.766-5.61 9.436-3.357 6.552-8.607 11.896-13.037 13.269-1.19.368-3.962 2.312-6.162 4.318-2.2 2.007-8.725 6.488-14.5 9.957a1906.02 1906.02 0 0 0-21.5 13.16c-23.882 14.875-29.647 17.145-54.5 21.464-5.225.907-13.775 2.5-19 3.538-6.445 1.28-15.863 2.059-29.285 2.42-17.316.468-19.86.34-20.383-1.024zm-408.332-89.035c0-2.81-.326-2.92-2.429-.818-.864.865-1.556 3.002-1.538 4.75l.033 3.179 1.967-2.36c1.082-1.3 1.967-3.437 1.967-4.75zm36.614-9.107c2.624-6.093 1.373-5.474-3.96 1.958-7.395 10.308-7.62 10.9-2.185 5.76 2.618-2.475 5.383-5.948 6.145-7.718zm535.219-74.06c-.183-.428-1.2-3.1-2.259-5.939-2.1-5.626-9.288-13.796-16.526-18.783-2.395-1.65-12.724-8.789-22.952-15.864-16.53-11.435-36.423-22.643-37.779-21.287-1.031 1.032 4.827 9.377 10.39 14.799 14.655 14.286 25.002 22.296 33.205 25.704 4.438 1.844 9.982 4.769 12.319 6.5 7.708 5.71 22.253 15.524 23.102 15.587.458.033.683-.29.5-.717zM47.388 155l1.068-4h-3.802c-4.81 0-5.276.81-2.754 4.794 2.697 4.26 4.197 4.042 5.488-.794zm7.346-4.469c0-.892-.587-1.243-1.495-.895-.821.316-1.245.976-.94 1.469.872 1.412 2.435 1.044 2.435-.574zm9-6.101c0-.275-.9-.019-2 .57s-2 1.295-2 1.57c0 .275.9.019 2-.57s2-1.295 2-1.57z"/></svg>