<svg xmlns="http://www.w3.org/2000/svg" version="1.2" width="377.25" height="302.8" viewBox="0 0 377.25 302.8" overflow="inherit"><path d="M6.25 0c.467 0 1.7.467 3.7 1.4 4.1 1.934 6.267 2.95 6.5 3.05 6.633 2.966 11.967 4.45 16 4.45.267 0 1.217-.217 2.85-.65 1.667-.467 2.983-.7 3.95-.7.7 0 1.417.05 2.15.15.199.033.633.283 1.3.75.633.5.967.75 1 .75.267 0 .533-.017.8-.05.066.033.4.117 1 .25.533.133 4.8.184 12.8.15.033 0 .467-.117 1.3-.35.834-.233 1.367-.35 1.601-.35 1.066 0 2.85.417 5.35 1.25 2.5.833 4.084 1.25 4.75 1.25 1.934 0 3.7-.184 5.3-.55 2.167-.566 4.15-1.083 5.95-1.55 2.066-.533 4.65-1.7 7.75-3.5 2.967-1.833 4.9-3.017 5.8-3.55 1.4-.867 2.351-1.317 2.851-1.35l.95.1.05.8c0 1.333-.851 3.467-2.55 6.4-1.467 2.567-2.7 4.383-3.7 5.45-.267.267-1.283.95-3.05 2.05-1.567.967-2.65 1.6-3.25 1.9-4.334 2.333-7.884 4.417-10.65 6.25-1.934 1.3-2.9 2.017-2.9 2.15 0 .367.2.8.601 1.3l-.05 2.7c1.1-.6 1.8-.95 2.1-1.05.8-.333 1.733-.5 2.8-.5.667 0 1.783.4 3.351 1.2 1.566.8 2.366 1.2 2.399 1.2.967 0 2.15-.167 3.55-.5 1.534-.433 2.4-.883 2.601-1.35.233-.5.3-.983.2-1.45-.134-.467-.2-.833-.2-1.1 0-.967 1.083-2.4 3.25-4.3 2.566-2.733 4.684-4.883 6.35-6.45 2.967-2.833 6.667-5.283 11.101-7.35 2.033-.933 3.399-1.466 4.1-1.6.634-.067 1.134-.2 1.5-.4 1.267-.667 2.333-1.1 3.2-1.3.533-.133 1.684-.317 3.45-.55 1.699-.233 2.699-.35 3-.35 3.133 0 6.767.65 10.899 1.95 4.533 1.4 8.733 3.317 12.601 5.75C160.417 17.933 165.3 25.333 165.3 34c0 .3-.366 1.983-1.1 5.05-.4 1.567-.783 3.117-1.15 4.65 0 2.2 5.417 3.867 16.25 5 6.934.733 13.217 1.1 18.851 1.1.467 0 1.199-.117 2.199-.35 1-.233 1.667-.467 2-.7 5.134-.1 9.084-.367 11.851-.8 4.667-.767 7.316-1.184 7.95-1.25.066 0 2.199-.383 6.399-1.15 1-.066 1.784-.233 2.351-.5.5-.267.934-.466 1.3-.6 1.333-.467 4.7-.583 10.1-.35 1.3-.233 2.9-.5 4.8-.8l20.801-3.35c1.3-.233 3.016-.767 5.149-1.6 2.534-1.067 4.567-1.867 6.101-2.4 5.766-2.1 11.75-3.15 17.949-3.15 1.768 0 3.75.517 5.95 1.55.101.033 2.217 1.15 6.351 3.35 6.1 3.267 12.133 4.9 18.1 4.9 8.633 2.167 14.166 4.633 16.6 7.4.066.067.566.35 1.5.85.934.467 1.467.767 1.601.9l3.8 4c.9.933 1.883 1.817 2.95 2.65.966.833 2.134 2.283 3.5 4.35a27.542 27.542 0 0 1 2.6 4.85c.4.933.9 2.3 1.5 4.1 1.067 2.767 1.601 4.617 1.601 5.55 0 .667-.051 2.267-.15 4.8.1 2.2.2 5.3.3 9.3.534 11.867.8 19.017.8 21.45 0 .034-.1.717-.3 2.05-.233 1.433-.35 2.383-.35 2.85 0 1.233.75 6.017 2.25 14.35 1.5 10.1 2.25 20.134 2.25 30.101 0 2.699-.116 4.8-.351 6.3-.199 1.5-.3 2.566-.3 3.2l.65 18.699c.3.334.517.617.649.851.334.833.5 1.616.5 2.35 0 .167-.083.566-.25 1.2-.133.6-.199.983-.199 1.15 0 1 .449 3.133 1.35 6.399 1 3.634 1.617 6.45 1.85 8.45.101.9.434 2.017 1 3.35.533 1.233.801 2.184.801 2.851 0 .133-.084.467-.25 1-.134.533-.2.883-.2 1.05 0 .9.25 1.816.75 2.75.466.866 1.066 1.533 1.8 2 .7.467 1.166 1.116 1.4 1.95.066.3.1.767.1 1.399-.334-.866-.883-1.616-1.65-2.25-.8-.633-1.6-.949-2.399-.949-.2 0-.317.133-.351.399v.75c0 .134.066.4.2.8.167.367.184.867.05 1.5.134.601-.016 1.684-.449 3.25-.268 1-.5 1.767-.7 2.301a12.76 12.76 0 0 1-.2.449c0 1 .166 1.767.5 2.301.5.767 1.383 1.166 2.65 1.199l-1.605.05c-.399 0-.917-.184-1.55-.551-.566-.366-.867-.55-.9-.55-.166 0-.283.05-.35.15l-.1.149v.5c0 .067.149.667.449 1.801.334 1.1.5 1.783.5 2.05 0 .8-.083 1.533-.25 2.2l-.6-.101-.05-.2a35.9 35.9 0 0 0-.2-2.399h-.85c-.801 2.8-1.684 5.5-2.65 8.1-.733 2.033-1.2 3.233-1.4 3.601-.066 0-.166-.034-.3-.101a.953.953 0 0 0-.3-.05c.066-.934.084-1.667.05-2.2-.066-1-.5-1.6-1.3-1.8-.166.366-.267.75-.3 1.15l-.3-.601c0-.033-.4-1.017-1.2-2.95-.434-1.1-.767-1.966-1-2.6-.333 2.1-.601 5.233-.8 9.4-.2 3.566-.301 6.6-.301 9.1v.1c0 .2.084.717.25 1.551.134.899.2 1.416.2 1.55 0 1.066-.134 2.017-.399 2.85.033.233.05.467.05.7l-.5 12.95c0 1 .116 1.8.35 2.399.267.601.4 1.301.4 2.101 0 .233-.017.383-.05.45 0 .066-.033.133-.101.199-.033 0-.966-.149-2.8-.449-.1.166-.217.366-.35.6-.634 1.267-.967 1.95-1 2.05-.167.5-.566 1.217-1.2 2.15-.5.7-.75 1.333-.75 1.899 0 .801.316 2.65.95 5.551 0 .733-1.301 1.666-3.9 2.8-2.533 1.1-4.5 1.649-5.9 1.649-4.467 0-7.649-.183-9.55-.55-1.533-.333-2.483-.816-2.85-1.45-.2-.033-.417-.066-.65-.1-1.2-.167-1.8-.384-1.8-.65 0-.533.65-1.633 1.95-3.3 2.167-2.767 3.583-4.649 4.25-5.649 3.433-5.101 5.433-10.301 6-15.601.134-1 .2-2.017.2-3.05a.559.559 0 0 1-.051-.25c.2-.467.4-.967.601-1.5.167-.434.316-.85.45-1.25a20.19 20.19 0 0 0 .5-2.2c.133-.1.266-.184.399-.25v-5.2a77.1 77.1 0 0 0 .05-2.899c.033-6.967.066-10.55.101-10.75.134-.8.2-1.55.2-2.25 0-1.7-.417-3.4-1.25-5.101-.834-1.666-1.25-2.8-1.25-3.399.166-2.033.217-3.4.149-4.101-.1-.8-.767-3.083-2-6.85-.833-2.5-1.917-5.566-3.25-9.2-1.2-3.2-1.866-5-2-5.399-.366-1.101-1.033-2.351-2-3.75-.767-1.067-1.917-2.5-3.45-4.301-1.366-1.6-2.766-4.066-4.199-7.399-1.367-3.134-2.467-5.15-3.301-6.05l-.75 3.899c-.033 1.601-.133 3.733-.3 6.4 0 1.566.083 3.583.25 6.05.101 1.233.2 2.434.3 3.6 0 .9-.583 2.733-1.75 5.5l-1.149 2.551c-.101.267-.317.933-.65 2a17.337 17.337 0 0 1-1.75 3.3c-2.533 3.6-4.483 7.149-5.85 10.649a17.6 17.6 0 0 1-.2.65c-.867 2.4-2.2 6.85-4 13.35-1.767 5.7-3.117 10.2-4.05 13.5-.067.233-.15.467-.25.7-.366 1.033-.917 2.7-1.65 5 0 .033-.033.351-.1.95-.034.2-.083.4-.15.6v.051c0 .066-.033.183-.1.35-.233.566-.884 1.816-1.95 3.75a84.93 84.93 0 0 0-1.2 2.3c-.767 1.467-1.233 2.566-1.399 3.3-.134.634-.334 2.45-.601 5.45-.5 2.667-1.566 4-3.2 4-.5 0-1.033-.133-1.6-.399l-.9-.45c-.866 0-2.333 1.816-4.399 5.45-.4.767-.601 1.649-.601 2.649 0 1.101-.3 1.834-.899 2.2-.101.233-.25.45-.45.65-.267.3-.566.533-.9.699l.051.051c.066.333-.301.649-1.101.949-.466.034-2.466.233-6 .601-3.833.333-7.066.5-9.7.5-2.066 0-3.616-.15-4.649-.45-.9-.267-1.351-.6-1.351-1 0-.066.051-.15.15-.25-.3-.134-.7-.366-1.2-.7-.033-.066-.066-.1-.1-.1.966-1.066 2.167-2.384 3.6-3.95 3.366-3.7 6.7-7.4 10-11.1 2.601-2.834 4.366-5.534 5.3-8.101.2-.434.367-.883.5-1.35.566-1.834 1.051-3.4 1.45-4.7a.367.367 0 0 0 .05-.15c.033-.033.051-.066.051-.1.333-.4.684-.75 1.05-1.05.3-.434.583-.783.85-1.05v-.351c0-.3.733-1.55 2.2-3.75.3-.434.55-.833.75-1.2 1.267-2.466 2.1-4.3 2.5-5.5a80.72 80.72 0 0 0 1.55-5.199c.567-2 1.034-3.534 1.4-4.601.899-2.6 1.716-5.333 2.45-8.2.366-1.399.684-2.733.949-4 .634-3.033.95-5.55.95-7.55 0-.366-.017-1.017-.05-1.95-.066-1.066-.117-1.716-.15-1.949l-.649-2.601c-.3-1.3-.45-2.166-.45-2.6v-.15c-.1-.233-.15-.45-.15-.649 0-.934.4-1.517 1.2-1.75v-.051-.1c-.267-.134-.517-.366-.75-.7-.3-.399-.45-.75-.45-1.05 0-.866.316-1.434.95-1.7v-.05a8.86 8.86 0 0 0-.05-.85 8.234 8.234 0 0 1-.45-.5c-.3-.4-.45-.767-.45-1.101 0-.566.15-1 .45-1.3-.134-.634-.3-1.316-.5-2.05-.634-2.667-.95-4.967-.95-6.9 0-.2-.066-.583-.199-1.149l-.75-4.2c-.101-.601-.15-1.351-.15-2.25v-2.25c.033-2.8.05-4.384.05-4.75 0-2.066-.05-4.95-.149-8.65l.149-2.149a6.41 6.41 0 0 0-.25-2.4c-.634-2.1-2.733-5.2-6.3-9.3-6.3 5.866-9.75 8.934-10.35 9.2-.234.1-.783.466-1.65 1.1-.434.333-.916.717-1.45 1.15-.366.267-1.267.883-2.7 1.85-1.266.866-2.166 1.533-2.699 2-2.601 2.233-4.917 3.967-6.95 5.2-1.567.967-2.817 1.934-3.75 2.899-1.2 1.267-2.184 2.117-2.95 2.551-.5.267-1.383.767-2.65 1.5-3.119 2.089-9.094 7.531-17.925 16.324l-.024.125c-.18.462-.496.745-.95.851l-.25.25a1.064 1.064 0 0 0-.2-.05.754.754 0 0 0-.1-.15 1.315 1.315 0 0 1-.95-.45 1.925 1.925 0 0 1-.175-.175 1.286 1.286 0 0 0-.2-.025 1.246 1.246 0 0 0-.25-.225c.032-.943.09-1.702.175-2.275.133-.633.033-1.533-.3-2.699-.3-.967-.534-1.534-.7-1.7-.566-.533-1.05-1-1.45-1.4-.8-.767-1.283-1.333-1.45-1.7-.399-.833-.766-1.416-1.1-1.75-.533-.466-1.25-.699-2.15-.699a3.44 3.44 0 0 0-.699.1c-.301.1-.551.15-.75.15-.467.033-2.967-1.184-7.5-3.65-.2-1.2-1.051-2.717-2.551-4.55-1.666-2.066-3.75-3.983-6.25-5.75-6.633-4.733-13.983-7.101-22.05-7.101-2.5 0-5.883.483-10.149 1.45-3.301.7-6.134 1.45-8.5 2.25l-1.7.65a26.417 26.417 0 0 0-.95 2.75c-.2 1.3-.3 2.383-.3 3.25 0 .1.366 5.416 1.1 15.95.733 10.533 1.101 16.333 1.101 17.399 0 2.033-.467 4.667-1.4 7.9-.934 3.2-1.4 5.383-1.4 6.55 0 2.1.5 7.333 1.5 15.7l.101.7 1.35 10.6h.05v.15c0 .199.017.383.051.55 0 .333-.017.649-.051.95v1.8c-.399 2.434-.083 5.866.95 10.3v.15c.267 1.133.5 2.183.7 3.149-.033.066-.066.15-.1.25-.067.334-.067.7 0 1.101 0 .033.1.899.3 2.6.2.733.45 1.3.75 1.7.066.533.1 1 .1 1.399v.551c-.1.333-.35.5-.75.5-.633 0-1.066-.101-1.3-.301-.366-.3-.667-.483-.9-.55-.5.767-1.083 1.684-1.75 2.75-.433.834-.649 1.65-.649 2.45 0 .6.2 1.316.6 2.15.4.866.601 1.85.601 2.949 0 1.301-.2 2.267-.601 2.9-1.2 1.9-1.983 3.184-2.35 3.85-.7 1.434-2.533 2.567-5.5 3.4-2.267.7-4.367 1.05-6.3 1.05-2.801 0-4.934-.184-6.4-.55-1.4-.3-2.1-.75-2.1-1.35 0-.034.05-.15.149-.351-1.2-.066-2.05-.267-2.55-.6a2.207 2.207 0 0 1-.5-.45c.3-1.3.533-2.25.7-2.85.533-.7 1.25-1.567 2.149-2.601a32.772 32.772 0 0 1 2.15-2.149c1.267-2.067 2.05-3.834 2.35-5.301 0-.1.483-2.033 1.45-5.8.767-3 1.15-5.05 1.15-6.149a139.82 139.82 0 0 1-.351-3.75c-.1-.934-.149-1.5-.149-1.7 0-1.167.166-2.884.5-5.15.267-1.8.55-3.366.85-4.7.2-1.1.367-1.933.5-2.5.033-.033.05-.066.05-.1.067-.7.233-2 .5-3.9.367-2.433.551-4.433.551-6v-.449c-.034-2.7-.5-5.45-1.4-8.25-.4-1.301-1.15-3.217-2.25-5.75-.467-1.034-1.35-2.601-2.65-4.7a622.566 622.566 0 0 0-1.949-3.101l-.75 2.4c-.667 1.434-1 6.634-1 15.6 0 1.334.05 2.601.149 3.801.134 1.433.334 2.783.601 4.05.466 2.166.716 4.583.75 7.25.133.033.233.05.3.05-.066 3.8.316 7.4 1.149 10.8.2.8.384 1.584.551 2.351.5 2.566.75 4.883.75 6.949 0 .034-.051.267-.15.7-.134.434-.434.65-.9.65-.199 0-.533-.15-1-.45-.5-.267-.933-.4-1.3-.4-.1 0-.383.851-.85 2.551-.434 1.699-.65 2.616-.65 2.75 0 .699.167 1.449.5 2.25.334.8.5 1.767.5 2.899 0 1.566-.017 2.367-.05 2.4-.066.233-.783 1.35-2.15 3.35-.5.634-.683 1.367-.55 2.2.101.8.066 1.3-.1 1.5-.533.667-4.084 1.017-10.65 1.05h-1.25c.107-.002.391-.068.851-.2-.434-.1-1.217-.133-2.351-.1-3.3.066-5.25.1-5.85.1-.434 0-.767-.25-1-.75-.134-.366-.584-.716-1.351-1.05-.6-.333-.899-.717-.899-1.149 0-.134.45-.817 1.35-2.051 1-1.366 1.601-2.25 1.8-2.649.233-.566.517-1.417.851-2.55.3-.967.6-1.7.899-2.2.567-.934.867-2.483.9-4.65.1-2.399.316-4.05.65-4.95.8-2.033 1.449-4.1 1.949-6.199.267-1.167.5-2.351.7-3.551.434-2.733.65-5.899.65-9.5-.334-5.233-.5-8.066-.5-8.5 0-1 .333-1.933 1-2.8V246.397c-.3-5.034-.483-7.584-.55-7.65-1.4-2.7-2.851-6.2-4.351-10.5-1.767-5.066-2.649-8.767-2.649-11.1 0-.034.066-.233.199-.601.101-.333.167-.866.2-1.6-.233-.367-.35-.7-.35-1 0-.533.133-.95.399-1.25-.033-1-.116-1.867-.25-2.601-.333-1.3-.583-2.55-.75-3.75.067-1.233.067-2.267 0-3.1-.066-1.533-.483-2.3-1.25-2.3-.699 0-1.25.116-1.649.35-.267.167-.667.467-1.2.9-1.333.866-3.934 1.3-7.8 1.3-.733 0-1.367-.083-1.9-.25-.166-.066-.866-.366-2.1-.9-1.101-.5-1.7-.75-1.8-.75l-4.25.551c-2.034 0-3.5-.084-4.4-.25-.934-.134-1.684-.417-2.25-.851-.134-.066-.517-.383-1.15-.95-.666-.466-1.233-.716-1.699-.75-1-.1-2.067-.333-3.2-.699-.367-.101-.8-.467-1.3-1.101-.534-.7-1.15-1.184-1.851-1.45a86.826 86.826 0 0 0-4.7-1.55c-1.3-.366-2.25-.684-2.85-.95l-1.45-.949C65.65 192.05 65 191.7 64.6 191.6c-.366-.1-1.133-.383-2.3-.85-.366-.134-.833-.566-1.399-1.3-.601-.733-.983-1.417-1.15-2.05a10.8 10.8 0 0 0-1.2-2.7c-.267-.5-.717-1.2-1.35-2.101-1.101-1.767-1.65-3.933-1.65-6.5 0-.366-.217-1.283-.649-2.75-.467-1.533-.7-2.366-.7-2.5a73.522 73.522 0 0 1-.8-3.449c-.5-2.233-.75-3.784-.75-4.65 0-1.5-.117-3.033-.351-4.6a27.654 27.654 0 0 1-.399-4.75c0-.4.1-.95.3-1.65l.3-.95c0-.066-.083-.583-.25-1.55-.2-1.033-.333-1.633-.4-1.8-.133-.3-.517-.983-1.149-2.05-.566-.933-.867-1.55-.9-1.85-.133-1-.2-1.966-.2-2.9-.033-1.7-.216-4.65-.55-8.85-.133-1.767-.5-2.983-1.1-3.65-.3-.367-.7-.683-1.2-.95-.333-.4-.7-1.083-1.1-2.05-.367-.933-.551-1.517-.551-1.75v-2.3c0-.467-.116-1.833-.35-4.1-.233-2.233-.35-3.583-.35-4.05 0-.034-.351-1.617-1.051-4.75-.699-3.133-1.05-5.817-1.05-8.05 0-2.133-.1-3.467-.3-4-.333-.8-.816-1.667-1.45-2.6-.566-.8-.916-1.2-1.05-1.2-1.134-.067-1.85-.184-2.15-.35-.6-.3-1.233-1.033-1.899-2.2-.834.3-1.55.633-2.15 1-.333.2-.684.3-1.05.3-.634 0-1.3-.4-2-1.2a6.883 6.883 0 0 1-1.4-2.3c-.699-1.967-1.149-3.684-1.35-5.15-.167-1.467-.25-3.917-.25-7.35 0-1.867.566-3.467 1.7-4.8 1.133-1.367 1.7-2.583 1.7-3.65 0-.667-.334-2.383-1-5.15-.7-2.867-1.184-4.483-1.45-4.85-1.4-1.867-2.2-3.083-2.4-3.65a93.732 93.732 0 0 0-.85-4.15c-.467.167-1.584.667-3.351 1.5-1.733.733-3.149 1.1-4.25 1.1-.133 0-.8-.184-2-.55-1.733-.5-3.716-1.133-5.949-1.9-4.667-1.667-7.551-3.067-8.65-4.2-.436-.467-.686-.983-.752-1.55V41.6c0-.467 1.2-1.617 3.6-3.45 1.8-1.367 3.317-2.45 4.55-3.25 1.3-1.167 2.449-2.033 3.449-2.6 1.733-1 4.284-1.5 7.65-1.5 2.934.534 4.65.883 5.15 1.05.133-.333.383-.733.75-1.2L25.7 30c0-.967-.084-1.75-.25-2.35-.134-.433-.2-.717-.2-.85 0-.267.717-1.716 2.15-4.35-.6.033-2.1-.65-4.5-2.05-2.601-1.5-5.2-3.25-7.801-5.25C8 9.75 4.45 5.4 4.45 2.1c0-.533.133-.983.399-1.35C5.184.25 5.65 0 6.25 0zm361.8 224.75h-.75c.067.6-.05 1.134-.35 1.6l.35.851c.4-1.066.601-1.733.601-2l.149-.451zm-3.95 4.15c-.066-.233-.1-.384-.1-.45l-.05.149c0 .134.05.234.15.301zm-3.35-15.9l.35 3.9.4-2.9-.75-1.4c.033.266.033.4 0 .4zm.15-2.05l.8 1.7c.399-2.667.6-4.117.6-4.351-.233.233-.5.584-.8 1.05-.434.701-.633 1.234-.6 1.601zm2.6-8.15c.2-.866.316-1.416.35-1.649a6.188 6.188 0 0 0 .051-1.75l-.401 3.399zm-6.6-73.5c-.033.5-.684 3.45-1.95 8.85-1.3 6-2.8 11.817-4.5 17.45-.934 3.134-1.4 5.7-1.4 7.7 0 3.834.15 6.867.45 9.101.666 4.633 2.033 8.716 4.1 12.25 3 5.033 4.667 8.55 5 10.55.066.399.2 1.7.4 3.899.2 2.167.517 4.45.95 6.851l.55-1.5c.033.366.217.55.55.55.2 0 .4-.05.601-.15l.25-.149c.066-1.367.3-3.2.699-5.5.268-1.733.434-2.867.5-3.4-.033-.033-.149-.066-.35-.1.334 0 .5-.884.5-2.65 0-1.733-.1-4.083-.3-7.05-.2-2.934-.3-4.616-.3-5.05.1-.9.166-1.55.199-1.95.066-.733-.083-.866-.449-.4.434-1.433.717-2.833.85-4.199.267-2.601.4-4.051.4-4.351 0-3.5-.367-7.916-1.101-13.25-.733-5.367-1.1-8.667-1.1-9.9 0-1.033-.167-2.3-.5-3.8-.366-1.6-.567-2.7-.601-3.3-.033-.667.018-1.7.15-3.1.1-1.333.15-2.083.15-2.25-.134-1.7-.25-3.333-.351-4.9-.267-3.167-.366-5.15-.3-5.95.066-.934-.1-2.684-.5-5.25-.6-3.533-1.066-6.467-1.4-8.8-.3 1.8-.55 5-.75 9.6-.263 6.231-.413 9.615-.447 10.148zm12.45 96.75c-.033.167-.016.533.051 1.101a23.638 23.638 0 0 1 1.5-.051c.399.034.633.051.699.051l.101.949.75-.05c.1-.166.233-.316.399-.45.134-.1.217-.183.25-.25a3.108 3.108 0 0 0-.8-1.1c-.033-.033-.716-.65-2.05-1.85l.05.399c.067.434.116.733.15.9-.667-.065-1.034.051-1.1.351zm-.8 8.4c-.1.2-.333.866-.7 2 .934.066 1.45.1 1.551.1.033-.267.283-1.233.75-2.899l.1-.65c-1.067.865-1.634 1.349-1.701 1.449zm1-2.35l-.25.351c.267-.233.7-.667 1.3-1.3.634-.7.967-1.15 1-1.351l-.149-.399c-.035.432-.668 1.332-1.901 2.699zm3.8-5.35c.033.233.2.684.5 1.35.301.7.45 1.134.45 1.301a5.182 5.182 0 0 1-.649-1.2c0-.101-.084-.434-.25-1l-.051-.451zm-5.2 11.3l-.2-.05c-.634.9-1.017 1.634-1.15 2.2-.1.333-.149 1.083-.149 2.25l.05 1.55c.433-.434.816-1.116 1.149-2.05.367-1.101.551-2.267.551-3.5-.001-.2-.085-.334-.251-.4z" fill-rule="evenodd"/></svg>