<svg xmlns="http://www.w3.org/2000/svg" version="1.2" width="561.623" height="306.174" viewBox="7.499 9.676 561.623 306.174" overflow="inherit"><g stroke="#000" stroke-miterlimit="10"><path d="M380.432 226.191c.008-.573.53-3.327-.278-3.748-.554-.291-.339 5.049-.268 5.451.403 2.256 1.313 4.228 2.621 6.101a8.504 8.504 0 0 0-.686-1.402c-.841-2.08-1.416-4.143-1.389-6.402zm2.662.227c-2.271 2.761 2.66 9.215 4.371 11.04.564-.515-.834-1.649-1.076-1.993-1.917-2.903-2.577-5.72-3.295-9.047zm7.763 11.464c-1.566-1.255-3.012-2.686-4.11-4.376-.954-1.466-1.172-4.218-2.316-5.391.501 2.068.487 3.697 1.722 5.606 1.22 1.89 2.923 3.368 4.771 4.617.161-.174.137-.328-.067-.456zM565.98 213.32a160.772 160.772 0 0 1-3.489-3.365c-.35-.37-.697-.739-1.044-1.109 1.604 1.506 3.229 2.992 4.992 4.312-1.88-2.417-2.802-4.585-3.963-6.809-1.76-3.377-3.242-6.891-4.621-10.438 1.445 2.896 2.64 5.921 4.275 8.721a123.475 123.475 0 0 1-2.322-6.675c-1.215-3.864-3.02-7.98-3.078-12.08 1.162 3.791 2.712 7.455 4.52 10.98-.056-2.03-1.282-4.37-1.873-6.301-.831-2.701-1.726-5.382-2.595-8.07.976 2.818 2.661 5.309 3.85 8.035.341-1.246-1.237-4.055-1.729-5.65.295.509.696.912 1.208 1.208-.348-.778-.729-1.548-.916-2.386.213.414.421 1.172 1.077.98-1.593-3.589-3.451-7.929-3.433-11.926.012-2.216 1.113-4.428 1.662-6.551a241.562 241.562 0 0 0 1.987-8.221c2.207-9.941 3.401-20.019 2.978-30.212-.429-10.229-2.603-20.048-5.021-29.955-2.354-9.619-5.278-19.017-9.337-28.064-3.927-8.748-8.384-17.058-14.521-24.447-2.888-3.484-5.536-7.208-7.649-11.219-.897-1.706-.807-3.758-1.628-5.518-1.016-2.181-2.535-4.083-4-5.972-2.543-3.272-5.329-4.797-8.817-6.902-1.835-1.105-3.451-2.52-5.25-3.654-1.654-1.045-5.437.031-7.285.211-10.305 1.009-19.702 2.372-30.032.611-4.332-.739-8.869-2.318-13.234-2.626-4.441-.313-9.312.845-13.702 1.403-4.729.604-9.396 1.629-14.125 2.223-5.082.639-10.207.776-15.313 1.14-20.97 1.493-42.175 3.684-62.97 6.797-10.319 1.542-20.44 2.925-30.899 2.222-10.183-.685-20.117-1.954-30.3-.41-10.023 1.521-19.711 3.439-29.919 2.898-4.789-.253-9.31-.736-14.07.125-4.541.823-8.972-.212-13.395.694-8.283 1.695-16.134 3.975-24.095 7.061-9.074 3.517-17.837 6.996-27.362 9.162-4.389.999-8.967 1.417-13.262 2.789-1.704.543-3.116.938-4.765.128-1.274-.624-.846.542-2.148.695-1.789.208-.808 1.348-2.162 2.188a14.362 14.362 0 0 1-4.035 1.693c-.963.246.033.839-.79.959-.524.077-1.052.118-1.575.202-.733.12-2.318.426-1.771 1.529.023-.009-5.432 1.032-3.784 1.666-.753-.053-1.792-.271-2.492.107-.727.393.785 1.683-.088 2.575-1.063 1.083-2.579 1.83-3.738 2.822-1.79 1.526-3.451 3.194-5.16 4.81-3.135 2.955-5.949 6.202-8.962 9.278-2.399 2.449-4.307 5.286-7.538 6.873-6.081 2.988-10.699 10.244-13.815 16.124-.737 1.392-.912 2.519-2.22 3.557-1.635 1.296-3.354 2.331-4.685 3.978-2.666 3.301-4.873 8.342-6.077 12.393-2.191-1.555-4.752-2.399-7.451-2.164-1.361.119-2.69.475-3.968.954-.178-.524-1.125-.68-1.563-.775-1.565-.335-3.174-.365-4.764-.466-.315-.02-6.537-.345-5.057 1.308-1.179 0-1.868-1.616-2.124-1.477-.528.286-.91.769-1.29 1.213-.734.854-1.461.779-2.283 1.47-1.412 1.188-1.936 2.73-3.927 2.961-2.198.258-4.566.207-6.769.07-2.632-.164-5.223-.622-7.828-1.013-2.363-.355-4.734-.391-6.867-1.563-4.681-2.568-8.843-5.663-13.1-8.855-3.468-2.603-7.886-5.57-10.12-9.408-.837-1.439-6.089-8.847-6.355-3.825-.235 4.352 3.876 9.271 5.928 12.83 2.629 4.559 6.335 8.339 9.453 12.531-3.096-1.756-6.065-3.756-8.814-6.021-.459-.377-5.337-5.258-4.66-2.667-.011-.319-.144-.474-.394-.466-.559 1.013.977 4.144 1.392 5.052 1.053 2.312 2.103 4.627 3.629 6.673 3.14 4.205 7.274 7.774 11.491 10.859 3.926 2.873 8.154 5.478 12.667 7.321 1.366.558 11.489 4.832 12.189 3.811-.509 3.001-1.967 5.653-2.88 8.521-1.063 3.342-1.658 6.929-2.623 10.347-.858 3.053-.75 6.482-.401 9.748.17 1.605.952 3.881.719 5.458-.27 1.824-.652 3.835-.686 5.673-.053 2.895-1.143 6.059-2.085 8.745-1.361 3.886-1.629 8.716-1.712 12.788-.049 2.371-.033 4.742.002 7.111.024 1.574.692 4.09-.478 5.272-2.801 2.835-.914 7.306-1.543 10.597-.802 4.193 1.145 7.55 4.707 9.662 1.33.787 3.061 1.864 4.618 2.086 2.029.289 4.438-.049 6.361.797 1.573.693 3.441 2.166 5.062.691 1.003-.912 2.024-2.484 3.535-2.132 4.644 1.084 9.634-.147 12.82-3.865.951-1.11 1.791-3.758 3.158-4.237 1.713-.603 2.837-1.002 4.431-1.957 4.113-2.457 8.026-1.863 12.39-.449 1.391.449 3.158 1.225 4.524.525 1.645-.841 3.439-1.343 5.106-2.153 4.246-2.072 8.373-4.253 11.794-7.571 4.372-4.241 8.846-8.543 13.027-12.919 4.714-4.933 11.541-.937 16.854.519 2.616.715 5.111.664 7.378 1.84 1.278.666 6.731 2.764 7.076 4.235.586 2.493 3.562 5.356 5.069 7.386 1.726 2.33 3.053 3.115 1.937 5.939-.961 2.436-1.932 4.87-2.769 7.354-.472 1.398-.889 2.849-.967 4.334-.091 1.759.555 3.631.026 5.34-.36 1.162-.968 2.213-1.229 3.412-.362 1.656-.204 3.399-.654 5.035-.806 2.924-2.47 5.74-3.95 8.367-2.979 5.294-7.75 9.68-11.47 14.465-1.853 2.381-2.757 4.67-5.569 5.938-2.92 1.316-5.853 2.652-8.419 4.596-.21-.266-.155-.464.163-.589-1.6-1.847-5.336 4.614-5.97 5.406a360.75 360.75 0 0 0-4.209 5.348c-.442.573-1.41 1.42-1.662 2.134-.217.619.941 2 1.532 1.256-.669.86-2.409 3.164-1.072 4.096 1.026.716 2.313 1.125 3.49 1.517 4.027 1.343 8.421.904 12.577.569 4.018-.324 8.37-.812 11.82-3.079 1.699-1.117 3.035-1.696 3.294-3.838.144-1.185 1.606-2.419 2.219-3.433.778-1.289 3.115-.144 4.406-.293 1.748-.203 3.805-1.121 4.839-2.606.895-1.285 1.362-3.069 1.156-4.618-.227-1.715 1.376-3.512 2.158-4.943 4.625-8.459 9.06-17.23 14.223-25.367 1.291-2.033 2.621-4.041 3.942-6.056.923-1.407 1.937-4.224 3.33-5.163 3.44-2.32 5.67-6.053 8.008-9.401 2.54-3.64 5.345-6.812 8.846-9.554 1.346-1.056 2.609-1.944 4.076-2.793 1.354-.785 2.505-3.027 4.263-2.912 1.941.129 3.743 1.432 5.545 2.066 2.087.736 4.226 1.324 6.324 2.027 4.192 1.402 8.228 2.637 12.648 1.555 4.206-1.027 7.904-3.3 11.573-5.512 3.71-2.239 9.327-4.534 11.732-8.295 1.253 3.156 3.79 5.975 5.317 9.052 1.849 3.728 3.457 7.536 5.162 11.325 1.411 3.133 4.016 5.652 4.9 8.84 1.022 3.685 3.942 7.051 5.988 10.207 2.304 3.559 3.549 7.519 4.335 11.66.78 4.117 1.864 8.438 1.864 12.643 0 1.723-.522 3.385-.687 5.092-.143 1.452 1.387 2.635 1.092 3.823-.396 1.604-1.291 2.856-2.109 4.254-.52.89-.87 3.287-2.004 3.382-2.506.206-5.138 4.768-6.499 6.562-1.331 1.756-3.871 3.839-3.799 6.255.101 3.36 6.632 2.46 8.725 2.742 4.252.573 8.623.893 12.916 1.008 2.988.081 6.755-.272 8.485-3.044 1.617-2.587 2.008-5.746 3.522-8.107 1.391-2.164-3.782-4.641-4.308-6.31-.27-.849 1.758-1.515 1.755-2.616-.005-.97-.563-1.551-.917-2.249a.494.494 0 0 1-.17-.399 2.196 2.196 0 0 1-.085-1.053c.28.275.088.698.085 1.053.048.14.104.271.17.399.032.028.059.06.104.084.243.127 1.019-.041 1.413.132 1.039.454 1.339 1.515 2.106 2.276 1.225 1.218 1.696-1.313 1.889-2.106.465-1.914-.064-3.274-.666-5.029-.818-2.397 3.036-7.083 1.342-9.006-2.933-3.329-4.316-7.77-5.891-11.83-3.379-8.721-5.883-18.801-5.812-28.193.018-2.513.149-5.036-.172-7.534-.254-2.002-1.334-3.895-1.5-5.872-.17-2.002.564-4.145.649-6.162a35.709 35.709 0 0 0-.614-8.176c-.379-1.964-.772-4.436-1.789-6.18-.447-.77-1.791-3.1-1.188-3.987 1.191-1.755 4.771-2.44 6.648-3.053 2.711-.884 4.934-1.649 6.982-3.706 3.476-3.486 9.134-3.521 13.718-3.675 4.646-.154 9.24.8 13.896.681 1.782-.048 3.745-.426 5.333.533 2.235 1.346 4.755 2.184 7.16 3.167 3.984 1.631 8.091 3.345 11.677 5.75 3.662 2.454 6.465 5.528 10.807 6.795 1.686.491 3.404.863 5.065 1.431-.346 1.221-1.285 2.176-.245 3.385 1.261 1.464 1.767 1.648 1.42 3.604-.096.538-2.181 6.856-1.729 7.056.439-1.045 1.192-5.354 2.35-5.879-.103 1.111-.004 2.103.034 3.199.038 1.131-.884 2.443-1.152 3.555-.736 3.051-.299 6.291.728 9.219.032-1.998-.714-3.938-.652-5.979.061-2.066.505-4.113 1.143-6.076.512 3.18 1.584 5.982 1.67 9.104.105 3.95 1.881 7.885 4.201 11.017-.53-1.9-1.957-3.357-2.75-5.134-1.062-2.378-1.513-5.493-1.099-8.062.186.262 2.112 2.212 1.769 1.403.955.843 1.729 1.871 2.4 2.948 1.119 1.796 2.006 3.727 3.068 5.557.787 1.359 1.611 2.856 2.76 3.952.222.214.736.689 1.061.347.309.457 1.077 2.438 1.895 2.091a8.78 8.78 0 0 0-.751-1.339c.315.36 2.418 3.412 2.87 2.156-2.146-.464-4.132-5.189-4.671-7.168-.677-2.494.371-5.125 1.354-7.437.771-1.812.034-3.522.525-5.336a295.68 295.68 0 0 0 1.521-5.853c1.172-4.688 2.117-9.283 4.317-13.629 1.967-3.889 5.227-6.174 7.971-9.41 3.094-3.649 7.643-6.228 11.683-8.693 4.006-2.447 8.152-4.654 12.131-7.146a81.363 81.363 0 0 0 5.927-4.096c1.928-1.459 3.872-3.521 6.311-4.042 4.285-.915 5.058 1.587 5.261 5.479.104 2.094-.354 4.011-1.099 5.961-.315.826-.788 1.578-1.089 2.41-.571 1.588.292 2.609.292 4.115 0 2.773 1.356 6.146 2.544 8.607 2.01 4.148 5.163 8.223 8.761 11.137 1.378 1.113 2.384 1.848 3.095 3.48.299.684.781 1.17 1.224 1.759.363.485.089 1.058.372 1.396 2.308 2.813 4.238 7.968 4.659 11.546.545 4.678.214 9.36-.058 14.045-.297 5.141-.127 10.284-1.062 15.371-1.062 5.767-2.574 11.291-4.937 16.666-2.126 4.834-5.061 9.609-6.847 14.524-.323.892-1.822 1.538-1.421 2.787.172.536.045 1.52-.604 1.737-1.942.646-3.631 2.031-4.416 3.963-1.037 2.548-3.035 1.994-5.08 3.154-4.735 2.693-9.123 7.496-12.5 11.703-1.059 1.318-2.764 3.254-.51 4.28 2.383 1.085 5.029 1.549 7.629 1.719 2.849.19 5.633-.131 8.4-.798 2.579-.621 5.221-2.196 7.82-2.504 1.291-.153 3.258-.854 4.533-1.393 2.425-1.026 3.559-2.727 2.427-5.368 2.294.077 3.109-.068 3.393-2.482 1.538 3.478 6.006.222 7.597-2.062.379-.54.252-.564-.08-.896-.39-.39.645-1.543.766-1.788.879-1.806 1.661-3.656 2.448-5.529 4.149-9.871 7.04-20.194 11.222-30.054 4.092-9.649 7.98-19.431 12.188-29.015.873-1.987.656-4.268 1.812-6.053 1.113-1.724 2.625-3.57 3.466-5.42 1.7-3.73.749-9.438-.333-13.155 4.657 4.428 7.945 10.423 9.048 16.764 1.075 6.177.761 12.188-.163 18.248-1.158 7.625-3.763 14.909-5.165 22.464-.665 3.596.226 6.676 1.791 9.889 1.378 2.82 4.414 4.733 5.238 7.791.704 2.605 1.402 5.186 1.842 7.84.181 1.086 1.466 1.836 1.929 2.939.664 1.6 1.139 3.266 1.568 4.939.215.82.459 1.811 1.184 2.348 1.08.8 2.408-.627 3.218-.004.7.547.909 2.438 1.332 3.24a20.4 20.4 0 0 0 2.312 3.438c.401.49 3.637 4.463 4.219 2.045.349-1.449.657-2.621 1.157-4.115.63-1.895 1.368-3.752 2.146-5.592 1.498-3.543 3.318-6.875 3.675-10.779a19.559 19.559 0 0 0-.277-5.458c-.358-1.871-.469-1.63-2.138-2.21 1.104-2.678-4.948-3.062-6.685-3.396 1.002-1.363 2.532-2.23 3.318-3.773.824-1.609.818-3.573.861-5.336.098-3.661-4.521-6.648-3.548-10.483 2.497-9.826 4.823-19.644 5.778-29.757.471-4.953.395-9.885.645-14.844.116-2.306.425-4.596.855-6.862.452-2.394 1.608-4.759 1.972-7.107.475-3.118 1.573-6.657.373-9.868-1.509-4.019-3.2-6.396-7.072-8.229-1.943-.918-3.317-2.266-4.664-3.912-1.078-1.316-2.849-2.166-4.128-3.266-3.452-2.959-6.618-6.856-9.026-10.699-2.134-3.405-4.257-7.993-2.985-11.997 1.463-4.614 3.821-8.957 5.82-13.359 8.151-17.953 14.864-37.102 14.867-56.993 0-7.169-.179-14.337-.197-21.506 3.876 5.726 8.077 10.839 11.348 16.999 3.268 6.153 5.354 12.834 7.342 19.483 4.146 13.859 7.447 28.748 5.885 43.265-1.514 14.073-8.84 27.462-8.531 41.709.146 6.677 2.095 12.741 5 18.688 2.813 5.755 5.752 11.472 11.319 15.004-.81-1.217-1.738-2.346-2.675-3.463.611.546 1.809 2.301 2.772 2.091-.854-.876-1.77-1.707-2.479-2.711.643.423 1.934 1.438 2.771 1.078z"/><path d="M380.432 226.191c.008-.573.53-3.327-.278-3.748-.554-.291-.339 5.049-.268 5.451.403 2.256 1.313 4.228 2.621 6.101a8.504 8.504 0 0 0-.686-1.402c-.841-2.08-1.416-4.143-1.389-6.402zm2.662.227c-2.271 2.761 2.66 9.215 4.371 11.04.564-.515-.834-1.649-1.076-1.993-1.917-2.903-2.577-5.72-3.295-9.047zm7.763 11.464c-1.566-1.255-3.012-2.686-4.11-4.376-.954-1.466-1.172-4.218-2.316-5.391.501 2.068.487 3.697 1.722 5.606 1.22 1.89 2.923 3.368 4.771 4.617.161-.174.137-.328-.067-.456zM90.395 126.612c-.985.217-1.858-.052-2.801.289.592-.613.821-1.6 1.352-2.178-3.165-1.251-9.763-.544-12.898.313 3.126-1.048 8.748-1.256 10.219-4.575-1.446-.05-2.208-.604-3.709-.084 1.246-.959.858-1.592 1.37-2.581-3.244-2.15-8.13 1.963-11.459 2.834-6.981 1.825-13.193.811-20.189.375-2.632-.164-5.223-.622-7.828-1.013-2.363-.355-4.734-.391-6.867-1.563-4.681-2.568-8.843-5.663-13.1-8.855-3.468-2.603-7.886-5.57-10.12-9.408-.837-1.439-6.089-8.847-6.355-3.825-.235 4.352 3.876 9.271 5.928 12.83 2.629 4.559 6.335 8.339 9.453 12.531-3.096-1.756-6.065-3.756-8.814-6.021-.459-.377-5.337-5.258-4.66-2.667-.011-.319-.144-.474-.394-.466-.559 1.013.977 4.144 1.392 5.052 1.053 2.312 2.103 4.627 3.629 6.673 3.14 4.205 7.274 7.774 11.491 10.859 3.926 2.873 8.153 5.478 12.667 7.321 4.382 1.791 8.261 1.491 12.616 2.848-.94-1.27-2.471-2.224-4.058-2.644 1.529 0 1.803-.765 2.727-1.147-.968-.428-2.11-1.278-3.086-1.562 3.7 1.413 7.709-.646 3.85-3.645 5.712.256 12.03 1.01 17.89.999 5.746-.009 9.969-1.831 15.277-3.1-2.107.655-4.45 1.066-6.647.71 3.759-1.114 11.613-4.271 13.124-8.3z"/><path d="M380.432 226.191c.008-.573.53-3.327-.278-3.748-.554-.291-.339 5.049-.268 5.451.403 2.256 1.313 4.228 2.621 6.101a8.504 8.504 0 0 0-.686-1.402c-.841-2.08-1.416-4.143-1.389-6.402zm2.662.227c-2.271 2.761 2.66 9.215 4.371 11.04.564-.515-.834-1.649-1.076-1.993-1.917-2.903-2.577-5.72-3.295-9.047zm7.763 11.464c-1.566-1.255-3.012-2.686-4.11-4.376-.954-1.466-1.172-4.218-2.316-5.391.501 2.068.487 3.697 1.722 5.606 1.22 1.89 2.923 3.368 4.771 4.617.161-.174.137-.328-.067-.456zm120.602-82.88c-.755-2.399 5.98-12.865 7.1-15.326 8.15-17.953 14.863-37.102 14.866-56.993 0-11.061-.343-20.693-3.855-31.246-.593 8.033.095 15.309-1.689 23.33-3.403 15.321-8.547 30.277-14.75 44.661-3.61 8.368-3.412 12.023-2.418 20.729.528 4.646-.533 10.786.746 14.845z"/><path d="M380.432 226.191c.008-.573.53-3.327-.278-3.748-.554-.291-.339 5.049-.268 5.451.403 2.256 1.313 4.228 2.621 6.101a8.504 8.504 0 0 0-.686-1.402c-.841-2.08-1.416-4.143-1.389-6.402zm2.662.227c-2.271 2.761 2.66 9.215 4.371 11.04.564-.515-.834-1.649-1.076-1.993-1.917-2.903-2.577-5.72-3.295-9.047zm7.763 11.464c-1.566-1.255-3.012-2.686-4.11-4.376-.954-1.466-1.172-4.218-2.316-5.391.501 2.068.487 3.697 1.722 5.606 1.22 1.89 2.923 3.368 4.771 4.617.161-.174.137-.328-.067-.456zm114.881-22.302c-.342-6.237-5.373-11.343-10.847-14.408-11.141-6.238-21.212-14.181-30.935-22.404-8.785-7.43-16.007-17.744-27.959-19.147-4.399-.516-9.909.355-14.027-1.181-2.245-.838-3.93-2.787-6.052-3.832-1.449-.714-1.944-.603-3.002-.904-1.137-.324-1.493-.08-2.81-.629-1.556-.648-2.99-2.162-4.584-2.882-3.843 3.796-11.656 4.41-16.743 4.833-10.938.91-22.223.983-33.103-.633-8.186-1.216-17.096-3.73-24.389-7.673-4.87-2.634-8.662-5.731-13.843-7.75-5.157-2.007-9.539-6.006-12.411-10.734-3.909 5.803-10.723-7.126-12.629-10.445-4.832-8.424-8.477-18.29-16.389-24.129 5.784 8.931 9.9 19.763 13.131 29.699-.502-.216-1.146-.288-1.646-.519 1.405 7.883 10.785 17.316 6.208 25.871-.217-.317-.824-.837-1.013-1.126-.243 4.058.803 8.373.17 12.271-4.069-4.868-8.696-7.363-13.661-11.055 2.084 4.25 7.192 7.877 10.138 11.74 1.796 2.356 6.767 11.199 4.122 13.779 2.544 3.935 1.164 11.12 1.606 15.583.672 6.771 2.124 7.33 8.485 5.256 2.71-.885 4.934-1.649 6.982-3.706 3.476-3.486 9.134-3.522 13.718-3.675 4.646-.154 9.24.8 13.896.681 1.782-.048 3.745-.426 5.333.533 2.235 1.346 4.755 2.183 7.16 3.167 3.984 1.631 8.091 3.345 11.677 5.75 3.662 2.454 6.465 5.529 10.807 6.795 1.685.491 3.404.863 5.065 1.43-.347 1.221-1.285 2.178-.245 3.387 1.261 1.463 1.767 1.647 1.42 3.604-.096.538-2.181 6.855-1.729 7.057.439-1.046 1.192-5.354 2.35-5.88-.103 1.111-.004 2.103.034 3.199.038 1.131-.884 2.443-1.152 3.554-.736 3.051-.299 6.293.728 9.219.032-1.998-.714-3.937-.652-5.978.061-2.065.505-4.114 1.143-6.076.511 3.179 1.584 5.982 1.67 9.104.105 3.949 1.88 7.885 4.201 11.017-.53-1.901-1.957-3.358-2.75-5.134-1.062-2.378-1.513-5.493-1.099-8.062.186.263 2.112 2.213 1.769 1.404.955.842 1.729 1.871 2.4 2.948 1.119 1.796 2.006 3.728 3.067 5.558.788 1.358 1.612 2.855 2.761 3.951.222.213.736.689 1.061.348.309.457 1.077 2.438 1.895 2.09a8.69 8.69 0 0 0-.752-1.338c.316.359 2.418 3.41 2.871 2.154-2.146-.463-4.132-5.188-4.671-7.167-.677-2.493.371-5.125 1.354-7.437.771-1.811.034-3.523.525-5.336a295.68 295.68 0 0 0 1.521-5.853c1.172-4.688 2.117-9.282 4.316-13.629 1.968-3.889 5.228-6.174 7.972-9.411 3.094-3.648 7.643-6.227 11.683-8.692 4.005-2.447 8.152-4.654 12.131-7.146a81.679 81.679 0 0 0 5.927-4.096c1.928-1.459 3.872-3.521 6.311-4.042 4.285-.915 5.058 1.587 5.26 5.479.104 2.092-.354 4.01-1.098 5.959-.315.826-.788 1.578-1.089 2.41-.571 1.588.292 2.61.292 4.116 0 2.772 1.356 6.146 2.544 8.606 2.01 4.149 5.163 8.224 8.761 11.138 1.378 1.112 2.383 1.848 3.095 3.481.299.683.781 1.168 1.224 1.758.362.485.089 1.058.372 1.396 2.308 2.813 4.238 7.967 4.659 11.546.545 4.677.214 9.36-.058 14.046-.297 5.14-.127 10.283-1.062 15.37-1.062 5.767-2.574 11.291-4.937 16.665-2.126 4.834-5.061 9.61-6.847 14.525-.323.892-1.822 1.538-1.421 2.787.172.535.045 1.52-.604 1.738-1.942.646-3.631 2.03-4.416 3.963-1.037 2.547-3.035 1.992-5.08 3.153-4.735 2.693-9.123 7.496-12.5 11.703-1.059 1.318-2.764 3.254-.51 4.28 2.383 1.085 5.029 1.549 7.629 1.719 2.849.189 5.633-.131 8.4-.798 2.579-.621 5.221-2.196 7.82-2.504 1.291-.153 3.258-.853 4.533-1.392 2.425-1.027 3.559-2.728 2.427-5.369 2.294.076 3.109-.068 3.393-2.482 1.538 3.477 6.006.223 7.596-2.061.38-.541.253-.565-.079-.896-.39-.39.645-1.543.766-1.788.879-1.806 1.661-3.657 2.448-5.528 4.149-9.871 7.04-20.195 11.222-30.055 4.092-9.648 7.98-19.431 12.188-29.015.872-1.987.656-4.267 1.812-6.052 1.113-1.725 2.625-3.571 3.466-5.422 1.011-2.208 1.39-4.337 1.279-6.349z"/><path d="M380.432 226.191c.008-.573.53-3.327-.278-3.748-.554-.291-.339 5.049-.268 5.451.403 2.256 1.313 4.228 2.621 6.101a8.504 8.504 0 0 0-.686-1.402c-.841-2.08-1.416-4.143-1.389-6.402zm2.662.227c-2.271 2.761 2.66 9.215 4.371 11.04.564-.515-.834-1.649-1.076-1.993-1.917-2.903-2.577-5.72-3.295-9.047zm7.763 11.464c-1.566-1.255-3.012-2.686-4.11-4.376-.954-1.466-1.172-4.218-2.316-5.391.501 2.068.487 3.697 1.722 5.606 1.22 1.89 2.923 3.368 4.771 4.617.161-.174.137-.328-.067-.456zm-127.818-23.675c-.148-3.041-3.437-6.32-5.138-8.398-4.767-5.83-9.024-11.604-12.327-18.242.013-1.582-3.073-1.959-4.782-2.316-.208.007-.203.02.013.036 2.236-1.687-14.446-21.045-18.086-24.615-12.964-12.716-34.615-26.594-32.815-46.991-.067 10.803 7.227 22.547 13.772 30.84 2.342 2.966 5.062 5.551 7.635 8.321 4.152 4.471 5.636 7.504 1.771 12.853-5.063 7.014-12.865 10.009-21.195 10.919-8.619.94-14.792-2.25-21.918-6.913 1.224 1.865 2.449 4.043 3.011 6.184-.445-.9-1.25-1.781-1.763-2.55 1.036 3.462-2.905 9.483-6.785 9.122-.652-3.487-4.294-6.567-6.443-9.23-2.864-3.551-5.66-8.172-10.004-10.082-1.947 5.754 3.498 13.715-4.754 16.844-3.739 1.417-4.986-.245-7.448-2.182-.43 1.092-1.083 2.105-1.927 2.83-.832-6.283-1.822-12.332-4.092-18.281-.656-1.713-7.035-17.422-9.732-15.556-1.127.78 4.415 12.269 4.799 13.661 1.58 5.712 3.459 12.92 2.669 18.891-.362 2.713-3.85 9.731-5.799 3.911-.88-2.624-.326-14.692-4.002-13.888-.265 6.354 1.762 12.134-.244 18.553-1.464 4.682-4.261 9.823-8.009 13.055-4.716 4.062-10.88 5.838-15.93 9.324-3.464 2.391-5.413 6.008-8.255 8.98-3.182 3.329-7.318 4.949-9.307 9.178-1.218 2.589-4.279 8.7-7.971 7.984 1.292-2.122 3.318-4.112 3.602-6.581-.071.618-10.344 10.507-7.842 11.422 4.063 1.472 9.763-.252 12.568-3.524.951-1.109 1.791-3.758 3.158-4.238 1.713-.602 2.837-1.002 4.431-1.955 4.113-2.457 8.026-1.864 12.39-.45 1.391.45 3.158 1.225 4.524.524 1.645-.84 3.439-1.342 5.106-2.152 4.246-2.072 8.373-4.253 11.794-7.571 4.372-4.241 8.846-8.543 13.027-12.919 4.714-4.932 11.541-.936 16.854.518 2.616.715 5.111.664 7.378 1.842 1.278.664 6.731 2.763 7.076 4.234.586 2.493 3.562 5.356 5.069 7.387 1.726 2.328 3.053 3.114 1.937 5.938-.961 2.435-1.932 4.87-2.769 7.353-.472 1.399-.889 2.85-.967 4.334-.091 1.76.555 3.632.026 5.341-.36 1.163-.968 2.213-1.23 3.411-.362 1.658-.204 3.4-.654 5.035-.806 2.926-2.47 5.741-3.95 8.368-2.979 5.294-7.75 9.681-11.47 14.464-1.853 2.381-2.757 4.672-5.569 5.938-2.92 1.317-5.853 2.653-8.419 4.596-.21-.266-.155-.464.163-.589-1.6-1.847-5.336 4.614-5.97 5.406a360.75 360.75 0 0 0-4.209 5.348c-.442.573-1.41 1.42-1.662 2.135-.217.618.941 1.998 1.532 1.256-.669.859-2.409 3.162-1.072 4.095 1.026.716 2.313 1.125 3.49 1.517 4.027 1.344 8.421.904 12.577.569 4.018-.324 8.37-.812 11.82-3.079 1.699-1.117 3.035-1.696 3.294-3.838.144-1.186 1.606-2.419 2.219-3.432.778-1.289 3.115-.145 4.406-.295 1.748-.201 3.805-1.119 4.839-2.605.895-1.285 1.362-3.069 1.156-4.618-.227-1.715 1.376-3.512 2.158-4.944 4.625-8.459 9.06-17.229 14.223-25.367 1.291-2.032 2.621-4.039 3.942-6.055.923-1.408 1.937-4.224 3.33-5.162 3.44-2.32 5.67-6.054 8.008-9.402 2.54-3.639 5.345-6.812 8.846-9.555 1.346-1.055 2.609-1.943 4.076-2.793 1.354-.783 2.505-3.026 4.263-2.912 1.941.129 3.743 1.433 5.545 2.067 2.087.736 4.226 1.324 6.324 2.027 4.192 1.401 8.228 2.637 12.648 1.555 4.206-1.028 7.904-3.3 11.573-5.512 3.09-1.863 10.506-4.308 11.387-8.306.073-.355.1-.709.08-1.068zM100.142 124.953c-1.93 4.431-6.946 11.4-3.979 16.438 2.895 4.916 9.546 1.589 11.378-2.552-1.039 2.35-2.891-3.622-2.917-3.82-.365-2.795.534-5.19 1.3-7.879 1.409 1.742 1.437 4.171 2.038 6.231 2.121-5.159-3.517-18.304-7.82-8.418zM68.744 189.293c5.795 2.086 11.074-5.709 13.757-9.479 1.25 9.492-6.943 9.869-13.757 10.918"/><path d="M87.738 150.729c-.172.775.124 2.103.245 2.885 1.433.398 3.082-.092 4.412.485 1.404.61 1.321 1.802 2.743 2.506 2.228 1.104 5.047.127 7.431.899 2.598.841 5.163 2.936 6.718 5.162-.809-2.562-2.727-5.166-3.196-7.714 4.563-2.255 11.098 3.514 13.933 6.907 2.072 2.479 3.003 5.633 4.78 8.135.442-7.889-7.405-15.691-12.625-20.742-1.46-1.41-4.875-3.807-7.033-3.177-1.152.335-1.434 2.063-2.604 2.586-2.046.908-4.622-.297-6.815.732-2.278 1.066-5.57 4.348-8.278 1.336M516.446 181.427c4.491 4.5 7.637 10.071 11.848 14.608-.394-.423.646-4.005.287-5.057-.537-1.574-1.474-2.342-2.697-3.404-2.593-2.253-6.082-3.393-8.67-6.147M525.655 219.798c-4.372 1.771-1.531 8.63-1.136 11.907.846 7.043-.239 15.32 1.521 22.111 1.625-8.709 2.229-17.524 2.304-26.37.026-3.253.583-7.034-1.231-9.923-.772.26-1.379.838-1.841 1.509M58.541 170.011c-.492.06.795-2.717.965-2.913.764-.885 1.837-1.537 2.883-2.031 1.063-.502 2.016-.737 3.183-.719 1.355.021 2.881-.266 4.067.574.278.198.682.547.537.926-.184.482-.948.273-1.265.52.734.267 1.821 1.908 1.063 2.579.182.155.246.278.498.319-.002.012.001.084.011.092-.558.416-1.095.176-1.623.67-.965.906-1.726 2.043-2.602 3.026-.9 1.011-1.948 1.886-3.039 2.665-.746.531-2.24.94-2.763-.127-1.157.373-1.054 2.555-1.675 3.378-.553-.883-.042-2.218-.083-3.185-1.326-.035-.122-5.061.178-5.76-.101.014-.231-.026-.335-.014z"/><path d="M58.885 161.484c1.693-1.312 3.667-1.959 5.808-1.959-4.914-2.002-12.593 7.625-11.844 12.084.737-1.676.951-3.422 1.921-4.936 1.195-1.864 2.633-3.549 4.115-5.189M50.5 186.7c-.485-.438-1.209-1.589-1.879-1.701-.409-.069 1.134 1.699.688 1.231.622.654 1.457 1.084 2.333 1.287a12.408 12.408 0 0 1-1.142-.817m.554 51.575c-.81-1.049-.292-2.75-.292-3.946 0-.888-.637-2.271-1.148-2.994-.804-1.146-5.041-4.021-6.274-2.127-.539.83 1.493 1.228 1.464 1.958-.026.629-2.049 1.336-2.313.723-.555-1.294-.88 1.127-.713 1.631.546 1.683 2.021 3.209 3.761 3.643-.071-.048-1.841-1.143-.747-.848-.777-.465-1.502-1.597-1.38-2.529 1.094.119 2.849.123 3.302-1.154.447-1.258 1.936.715 2.119 1.235.453 1.299.315 2.733.798 4.032.361.973 2.126 1.722 1.423.376m330.767-5.682c-.841-2.08-1.416-4.143-1.391-6.401.007-.572.53-3.326-.278-3.748-.554-.289-.34 5.05-.268 5.451.403 2.256 1.313 4.229 2.621 6.102a8.284 8.284 0 0 0-.684-1.404m4.568 2.872c-1.917-2.9-2.574-5.72-3.295-9.047-2.271 2.761 2.66 9.215 4.371 11.04.564-.515-.834-1.649-1.076-1.993m-321.86-71.171c-2.251.54-6.191 2.729-6.2 5.487a8.443 8.443 0 0 1 2.767-3.432 10.93 10.93 0 0 1 1.901-1.02c-.163.073 2.948-1.278 1.532-1.035m326.328 73.588c-1.566-1.255-3.012-2.686-4.11-4.376-.954-1.466-1.172-4.218-2.316-5.391.501 2.068.487 3.697 1.722 5.606 1.22 1.89 2.923 3.368 4.771 4.617.161-.174.137-.328-.067-.456m-294.456-95.44c.606.708 5.84 3.778 5.579.979-4.329 3.839-7.523-7.792-5.573-10.52.606-.851.514-1.799.931-2.761.427-.987 1.287-1.624 1.754-2.534.63-1.225 3.58-6.987 4.552-6.495.241.121.911 1.683 1.327 1.273.815-.804-.655-1.967-1.294-2.138-2.249-.604-3.722 3.392-4.621 4.868-3.062 5.026-6.408 11.723-2.655 17.328M47.369 227.3c.667.394 1.317.806 1.958 1.242-.44-1.329-2.386-2.173-3.686-2.124.582.281 1.158.575 1.728.882m470.461-45.205c2.138 1.962 4.402 3.915 6.952 5.326.567.313 4.028 3.435 4.202 2.741.357-1.416-4.422-3.863-5.318-4.494-1.706-1.202-4.846-4.477-7.013-4.717.391.383.785.764 1.177 1.144m-236.651-75.876a149.167 149.167 0 0 0 4.959 7.089c-3.275-5.446-6.39-10.863-8.96-16.671-1.182-2.666-1.369-.1-.735 1.424 1.191 2.86 3.089 5.545 4.736 8.158m13.671 66.501c-.576-4.586-2.723-8.727-5.533-12.346-1.681-2.165-3.479-4.25-5.426-6.18-1.255-1.246-2.797-3.265-4.471-3.945.954 1.897 3.195 3.56 4.653 5.107a44.478 44.478 0 0 1 4.543 5.715c1.414 2.108 2.927 4.188 3.933 6.534.944 2.205 1.095 4.793 1.942 7.074.279-.622.4-1.275.359-1.959m1.629-9.7c-1.621-5.938-2.996-10.903-2.218-17.147-1.853.984-1.112 6.125-.937 7.664.438 3.803 1.453 7.603 3.123 11.051a3.239 3.239 0 0 0 .032-1.568m3.949-.817c-.515-8.63.133-17.507-4.129-25.281-1.945-3.554-3.304-7.195-4.889-10.907-.131-.305-2.941-5.505-3.186-5.262-.429.43.965 1.977 1.104 2.361.722 2.025 1.307 4.081 2.115 6.085 1.631 4.052 4.076 7.711 5.66 11.771 1.506 3.854 1.822 8.198 2.086 12.29.318 4.933.689 9.863 1.105 14.789 1.214-.908.179-4.576.134-5.846m-79.079-2.222c-7.412-6.231-14.964-12.785-20.869-20.513-2.698-3.53-4.823-7.455-5.898-11.785-1.204-4.839-1.23-9.855-1.942-14.77-.184 5.366.086 10.774 1.464 15.983 1.452 5.486 4.38 9.254 8.103 13.4 3.45 3.842 6.705 7.402 10.575 10.814 4.03 3.554 8.167 6.963 12.351 10.333a72.439 72.439 0 0 0-3.784-3.462m-12.137-3.82c-2.252-1.121-4.505-2.241-6.755-3.364-.954-.473-3.6-2.484-4.762-2.223 3.796 2.271 7.765 4.261 11.91 5.813-.131-.074-.263-.151-.393-.226m353.279 53.794l-1.044-1.109c1.604 1.506 3.229 2.992 4.992 4.312-1.879-2.417-2.802-4.585-3.963-6.809-1.76-3.377-3.242-6.891-4.62-10.438 1.444 2.896 2.639 5.921 4.274 8.721a124.346 124.346 0 0 1-2.322-6.675c-1.215-3.864-3.02-7.98-3.078-12.08 1.162 3.791 2.712 7.455 4.52 10.98-.056-2.03-1.282-4.37-1.873-6.301-.831-2.701-1.726-5.382-2.595-8.07.976 2.818 2.661 5.309 3.85 8.035.341-1.246-1.236-4.055-1.729-5.65.295.509.696.912 1.208 1.208-.348-.778-.729-1.548-.916-2.386.213.414.421 1.172 1.077.98-1.593-3.589-3.451-7.929-3.433-11.926.013-2.216 1.113-4.428 1.662-6.551a241.562 241.562 0 0 0 1.987-8.221c2.207-9.941 3.401-20.019 2.978-30.212-.429-10.229-2.603-20.048-5.021-29.955-2.354-9.619-5.278-19.017-9.337-28.064-3.927-8.748-8.383-17.058-14.521-24.447-2.888-3.484-5.535-7.208-7.649-11.219-.897-1.706-.807-3.758-1.628-5.518-1.016-2.181-2.535-4.083-4-5.972-2.543-3.272-5.329-4.797-8.817-6.902-1.835-1.105-3.451-2.52-5.25-3.654-1.654-1.045-5.437.031-7.285.211-10.305 1.009-19.702 2.372-30.032.611-4.332-.739-8.869-2.318-13.234-2.626-4.441-.313-9.312.845-13.702 1.403-4.729.604-9.396 1.629-14.125 2.223-5.082.639-10.207.776-15.313 1.14-20.971 1.493-42.175 3.684-62.97 6.797-10.319 1.542-20.44 2.925-30.899 2.222-10.183-.685-20.117-1.954-30.299-.41-10.024 1.521-19.712 3.439-29.92 2.898-4.789-.253-9.31-.736-14.07.125-4.541.823-8.972-.212-13.395.694-8.283 1.695-16.134 3.975-24.095 7.061-9.074 3.517-17.837 6.996-27.362 9.162-4.389.999-8.967 1.417-13.262 2.789-1.704.543-3.116.938-4.765.128-1.274-.624-.846.542-2.148.695-1.789.208-.808 1.348-2.162 2.188a14.362 14.362 0 0 1-4.035 1.693c-.963.246.033.839-.79.959-.524.077-1.052.118-1.575.202-.733.12-2.318.426-1.771 1.529.023-.009-5.432 1.032-3.784 1.666-.753-.053-1.792-.271-2.492.107-.727.393.785 1.683-.088 2.575-1.062 1.083-2.579 1.83-3.738 2.822-1.79 1.526-3.451 3.194-5.16 4.81-3.135 2.955-5.949 6.202-8.962 9.278-2.399 2.449-4.307 5.286-7.538 6.873-6.081 2.988-10.699 10.244-13.815 16.124-.737 1.392-.912 2.519-2.22 3.557-1.635 1.296-3.354 2.331-4.685 3.978-2.666 3.301-4.873 8.342-6.077 12.393-2.191-1.555-4.752-2.399-7.451-2.164-1.361.119-2.69.475-3.968.954-.178-.524-1.125-.68-1.563-.775-1.565-.335-3.174-.365-4.764-.466-.315-.02-6.537-.345-5.057 1.308-1.179 0-1.868-1.616-2.124-1.477-.528.286-.91.769-1.29 1.213-.734.854-1.461.779-2.283 1.47-1.412 1.188-1.936 2.73-3.927 2.961-2.198.258-4.566.207-6.769.07-2.632-.164-5.223-.622-7.828-1.013-2.363-.355-4.734-.391-6.867-1.563-4.681-2.568-8.843-5.663-13.1-8.855-3.468-2.603-7.886-5.57-10.12-9.408-.837-1.439-6.089-8.847-6.355-3.825-.235 4.352 3.876 9.271 5.928 12.83 2.629 4.559 6.335 8.339 9.453 12.531-3.096-1.756-6.065-3.756-8.814-6.021-.459-.377-5.337-5.258-4.66-2.667-.011-.319-.144-.474-.394-.466-.559 1.013.977 4.144 1.392 5.052 1.053 2.312 2.103 4.627 3.629 6.673 3.14 4.205 7.274 7.774 11.491 10.859 3.926 2.873 8.154 5.478 12.667 7.321 1.366.558 11.489 4.832 12.189 3.811-.509 3.001-1.967 5.653-2.88 8.521-1.063 3.342-1.658 6.929-2.623 10.347-.858 3.053-.75 6.482-.401 9.748.17 1.605.952 3.881.719 5.458-.27 1.824-.652 3.835-.686 5.673-.053 2.895-1.143 6.059-2.085 8.745-1.361 3.886-1.629 8.716-1.712 12.788-.049 2.371-.033 4.742.002 7.111.024 1.574.692 4.09-.478 5.272-2.801 2.835-.914 7.306-1.543 10.597-.802 4.193 1.145 7.55 4.707 9.662 1.33.787 3.061 1.864 4.618 2.086 2.029.289 4.438-.049 6.361.797 1.573.693 3.441 2.166 5.062.691 1.003-.912 2.024-2.484 3.535-2.132 4.644 1.084 9.634-.147 12.82-3.865.951-1.11 1.791-3.758 3.158-4.237 1.713-.603 2.837-1.002 4.431-1.957 4.113-2.457 8.026-1.863 12.39-.449 1.391.449 3.158 1.225 4.524.525 1.645-.841 3.439-1.343 5.106-2.153 4.246-2.072 8.373-4.253 11.794-7.571 4.372-4.241 8.846-8.543 13.027-12.919 4.714-4.933 11.541-.937 16.854.519 2.616.715 5.111.664 7.378 1.84 1.278.666 6.731 2.764 7.076 4.235.586 2.493 3.562 5.356 5.069 7.386 1.726 2.33 3.053 3.115 1.937 5.939-.961 2.436-1.932 4.87-2.769 7.354-.472 1.398-.889 2.849-.967 4.334-.091 1.759.555 3.631.026 5.34-.36 1.162-.968 2.213-1.23 3.412-.362 1.656-.204 3.399-.654 5.035-.806 2.924-2.47 5.74-3.95 8.367-2.98 5.294-7.75 9.68-11.47 14.465-1.853 2.381-2.757 4.67-5.569 5.938-2.92 1.316-5.853 2.652-8.419 4.596-.21-.266-.155-.464.163-.589-1.6-1.847-5.336 4.614-5.97 5.406a360.75 360.75 0 0 0-4.209 5.348c-.442.573-1.41 1.42-1.662 2.134-.217.619.941 2 1.532 1.256-.669.86-2.409 3.164-1.072 4.096 1.026.716 2.313 1.125 3.49 1.517 4.027 1.343 8.421.904 12.577.569 4.018-.324 8.37-.812 11.82-3.079 1.699-1.117 3.035-1.696 3.294-3.838.144-1.185 1.606-2.419 2.219-3.433.778-1.289 3.115-.144 4.406-.293 1.748-.203 3.805-1.121 4.839-2.606.895-1.285 1.362-3.069 1.156-4.618-.227-1.715 1.376-3.512 2.158-4.943 4.625-8.459 9.06-17.23 14.223-25.367 1.291-2.033 2.621-4.041 3.942-6.056.923-1.407 1.937-4.224 3.33-5.163 3.44-2.32 5.67-6.053 8.008-9.401 2.54-3.64 5.345-6.812 8.846-9.554 1.346-1.056 2.609-1.944 4.076-2.793 1.354-.785 2.505-3.027 4.263-2.912 1.941.129 3.743 1.432 5.545 2.066 2.087.736 4.226 1.324 6.324 2.027 4.192 1.402 8.228 2.637 12.648 1.555 4.206-1.027 7.904-3.3 11.573-5.512 3.71-2.239 9.327-4.534 11.732-8.295 1.253 3.156 3.79 5.975 5.317 9.052 1.849 3.728 3.457 7.536 5.162 11.325 1.411 3.133 4.016 5.652 4.9 8.84 1.022 3.685 3.942 7.051 5.988 10.207 2.304 3.559 3.549 7.519 4.335 11.66.78 4.117 1.864 8.438 1.864 12.643 0 1.723-.522 3.385-.687 5.092-.143 1.452 1.387 2.635 1.092 3.823-.396 1.604-1.291 2.856-2.109 4.254-.52.89-.87 3.287-2.004 3.382-2.506.206-5.138 4.768-6.499 6.562-1.331 1.756-3.871 3.839-3.799 6.255.101 3.36 6.632 2.46 8.725 2.742 4.252.573 8.623.893 12.916 1.008 2.988.081 6.755-.272 8.485-3.044 1.618-2.587 2.008-5.746 3.522-8.107 1.391-2.164-3.782-4.641-4.308-6.31-.27-.849 1.758-1.515 1.755-2.616-.007-1.538-1.414-2.097-1.172-3.701.435.426-.272 1.207.358 1.536.243.127 1.019-.041 1.413.132 1.039.454 1.34 1.515 2.106 2.276 1.225 1.218 1.696-1.313 1.889-2.106.465-1.914-.064-3.274-.666-5.029-.818-2.397 3.036-7.083 1.342-9.006-2.933-3.329-4.316-7.77-5.891-11.83-3.379-8.721-5.883-18.801-5.812-28.193.018-2.513.149-5.036-.172-7.534-.254-2.002-1.334-3.895-1.5-5.872-.17-2.002.564-4.145.649-6.162a35.709 35.709 0 0 0-.614-8.176c-.379-1.964-.772-4.436-1.789-6.18-.447-.77-1.791-3.1-1.188-3.987 1.191-1.755 4.771-2.44 6.648-3.053 2.711-.884 4.934-1.649 6.982-3.706 3.477-3.486 9.134-3.521 13.718-3.675 4.646-.154 9.24.8 13.896.681 1.782-.048 3.745-.426 5.333.533 2.236 1.346 4.755 2.184 7.16 3.167 3.984 1.631 8.091 3.345 11.677 5.75 3.662 2.454 6.465 5.528 10.807 6.795 1.686.491 3.404.863 5.065 1.431-.346 1.221-1.285 2.176-.245 3.385 1.261 1.464 1.767 1.648 1.42 3.604-.096.538-2.181 6.856-1.729 7.056.439-1.045 1.192-5.354 2.35-5.879-.102 1.111-.004 2.103.034 3.199.038 1.131-.884 2.443-1.152 3.555-.736 3.051-.299 6.291.728 9.219.032-1.998-.714-3.938-.652-5.979.061-2.066.505-4.113 1.143-6.076.512 3.18 1.584 5.982 1.67 9.104.105 3.95 1.881 7.885 4.201 11.017-.529-1.9-1.957-3.357-2.75-5.134-1.062-2.378-1.513-5.493-1.099-8.062.186.262 2.112 2.212 1.769 1.403.955.843 1.729 1.871 2.4 2.948 1.119 1.796 2.006 3.727 3.068 5.557.787 1.359 1.611 2.856 2.76 3.952.223.214.736.689 1.062.347.309.457 1.076 2.438 1.894 2.091a8.774 8.774 0 0 0-.75-1.339c.314.36 2.417 3.412 2.869 2.156-2.145-.464-4.132-5.189-4.67-7.168-.678-2.494.37-5.125 1.354-7.437.771-1.812.034-3.522.526-5.336a310.245 310.245 0 0 0 1.521-5.853c1.172-4.688 2.117-9.283 4.317-13.629 1.967-3.889 5.227-6.174 7.97-9.41 3.094-3.649 7.644-6.228 11.684-8.693 4.005-2.447 8.152-4.654 12.132-7.146a81.562 81.562 0 0 0 5.926-4.096c1.928-1.459 3.872-3.521 6.311-4.042 4.285-.915 5.058 1.587 5.257 5.479.107 2.094-.352 4.011-1.095 5.961-.314.826-.788 1.578-1.09 2.41-.57 1.588.293 2.609.293 4.115 0 2.773 1.354 6.146 2.545 8.607 2.009 4.148 5.162 8.223 8.76 11.137 1.378 1.113 2.383 1.848 3.096 3.48.298.684.78 1.17 1.223 1.759.363.485.089 1.058.372 1.396 2.308 2.813 4.238 7.968 4.659 11.546.545 4.678.214 9.36-.058 14.045-.297 5.141-.127 10.284-1.062 15.371-1.062 5.767-2.574 11.291-4.937 16.666-2.126 4.834-5.06 9.609-6.847 14.524-.324.892-1.822 1.538-1.421 2.787.172.536.045 1.52-.604 1.737-1.942.646-3.631 2.031-4.415 3.963-1.037 2.548-3.037 1.994-5.08 3.154-4.736 2.693-9.125 7.496-12.502 11.703-1.058 1.318-2.763 3.254-.509 4.28 2.384 1.085 5.029 1.549 7.629 1.719 2.849.19 5.632-.131 8.4-.798 2.579-.621 5.221-2.196 7.82-2.504 1.291-.153 3.258-.854 4.534-1.393 2.424-1.026 3.555-2.727 2.425-5.368 2.295.077 3.11-.068 3.394-2.482 1.538 3.478 6.006.222 7.596-2.062.379-.54.252-.564-.08-.896-.389-.39.646-1.543.767-1.788.879-1.806 1.661-3.656 2.448-5.529 4.149-9.871 7.04-20.194 11.222-30.054 4.092-9.649 7.981-19.431 12.188-29.015.871-1.987.655-4.268 1.812-6.053 1.113-1.724 2.625-3.57 3.466-5.42 1.7-3.73.749-9.438-.333-13.155 4.657 4.428 7.945 10.423 9.048 16.764 1.075 6.177.762 12.188-.163 18.248-1.159 7.625-3.763 14.909-5.165 22.464-.666 3.596.226 6.676 1.791 9.889 1.379 2.82 4.414 4.733 5.238 7.791.704 2.605 1.402 5.186 1.842 7.84.18 1.086 1.465 1.836 1.928 2.939.666 1.6 1.14 3.266 1.569 4.939.215.82.459 1.811 1.185 2.348 1.078.8 2.407-.627 3.217-.004.701.547.908 2.438 1.332 3.24a20.4 20.4 0 0 0 2.312 3.438c.401.49 3.638 4.463 4.218 2.045.35-1.449.658-2.621 1.158-4.115.63-1.895 1.368-3.752 2.146-5.592 1.498-3.543 3.318-6.875 3.675-10.779a19.597 19.597 0 0 0-.277-5.458c-.358-1.871-.469-1.63-2.138-2.21 1.104-2.678-4.948-3.062-6.686-3.396 1.003-1.363 2.533-2.23 3.319-3.773.824-1.609.818-3.573.861-5.336.098-3.661-4.521-6.648-3.548-10.483 2.497-9.826 4.824-19.644 5.777-29.757.472-4.953.396-9.885.646-14.844.116-2.306.425-4.596.854-6.862.453-2.394 1.609-4.759 1.973-7.107.475-3.118 1.574-6.657.373-9.868-1.508-4.019-3.2-6.396-7.072-8.229-1.943-.918-3.317-2.266-4.664-3.912-1.078-1.316-2.849-2.166-4.128-3.266-3.452-2.959-6.618-6.856-9.026-10.699-2.134-3.405-4.257-7.993-2.985-11.997 1.463-4.614 3.821-8.957 5.82-13.359 8.151-17.953 14.864-37.102 14.867-56.993 0-7.169-.179-14.337-.197-21.506 3.876 5.726 8.077 10.839 11.348 16.999 3.268 6.153 5.354 12.834 7.342 19.483 4.146 13.859 7.447 28.748 5.885 43.265-1.514 14.073-8.84 27.462-8.531 41.709.146 6.677 2.095 12.741 5 18.688 2.813 5.755 5.753 11.472 11.319 15.004-.811-1.217-1.738-2.346-2.675-3.463.612.546 1.809 2.301 2.772 2.091-.854-.876-1.77-1.707-2.479-2.711.642.423 1.934 1.438 2.771 1.078a167.859 167.859 0 0 1-3.489-3.365m-5.677-32.172c.451 2.88 1.259 5.689 2.152 8.46-.49-1.116-4.929-11.531-2.84-12.608.154 1.394.308 2.793.688 4.148M62.245 119.905c.368-.287.661-.636.881-1.046.572-.493 1.072.052 1.603-.341.778-.575 1.142-1.555 1.757-2.271-.092 1.597 1.395 1.306 2.485 1.306.818 0 .691-1.292 1.852-1.224 1.209.074 7.248-.373 8.045.872-5.307 2.672-11.291 2.507-17.047 3.193.14-.163.283-.326.424-.489m-11.58 25.215c-4.208-1.511-8.566-2.248-12.678-4.075-4.316-1.915-8.617-4.239-12.353-7.142-3.384-2.631-7.012-5.738-9.585-9.177-1.373-1.833-2.707-3.721-3.653-5.817-.745-1.654-2.288-4.356-2.056-6.189 1.322.151 4.025 3.656 5.174 4.563 2.157 1.701 4.523 3.593 7.01 4.788 2.24 1.075 3.54 2.87 5.445 4.495 2.336 1.993 4.938 3.439 7.633 4.88 5.241 2.804 11.624 4.498 17.475 5.435 1.677.27 1.271 2.973.083 3.765-.934.623-1.282 5.096-2.495 4.474m102.174 155.866c-.733 1.523-3.675 2.869-5.153 3.463-2.509 1.004-5.208 1.338-7.86 1.746-5.437.837-11.017.164-16.185-1.68 1.735-4.529 6.55-7.942 7.917-12.556.3-1.015-.857.245-.935.371-.722 1.16-1.659 2.161-2.514 3.221-1.526 1.884-2.933 3.708-4.143 5.761.119-.909-.486-1.045-.163-1.797.586-1.359 1.93-2.675 2.89-3.768 2.193-2.495 3.977-5.471 6.377-7.761.39 3.384 5.681 6.061 8.356 7.469 1.883.992 3.799 1.93 5.801 2.657 1.009.363 6.188 1.802 4.828 2.972.264-.025.524-.059.784-.098m10.145-6.139c-1.952 1.041-8.807 1.957-5.846-1.928.739-.967 2.157-.583 3.194-.454.772.097 3.397 2.168 2.652 2.382m43.39-66.763c-.366.784-1.594 1.318-2.246 1.826a16.994 16.994 0 0 0-3.373 3.486c-2.074 2.848-3.848 5.918-6.009 8.698-2.225 2.862-5.136 5.095-7.376 7.943-2.165 2.751-3.731 5.903-5.497 8.909-4.001 6.812-7.519 13.889-11.531 20.699-1.573 2.672-4.157 5.957-4.822 9.022-.249 1.153.467 1.947.061 3.14-.374 1.095-.947 1.685-1.682 2.514-1.631-3.001-8.821-4.567-7.657.591.097.435-2.165 4.515-2.895 4.606-1.369.178-3.057-1.013-4.27-1.523-5.113-2.165-10.331-3.789-14.249-7.975-1.9-2.031.675-2.563 2.176-3.269 2.497-1.177 5.464-2.144 7.756-3.649 1.642-1.078 2.826-3.652 4.068-5.196 2.005-2.494 4.054-4.961 6.028-7.479 3.332-4.244 7.132-8.66 8.836-13.865.782-2.389.383-5.133 1.296-7.416.369-.926 1.226-1.705 1.226-2.763 0-1.7.032-3.405.118-5.104.245-4.888 2.672-9.441 3.959-14.146 1.933 2.162 4.638 3.897 7.513 4.438 1.648.31 2.702-.388 4.245-.734 1.637-.369 3.706.106 5.367.211 3.117.193 6.172-.019 9.211-.763 1.814-.443 3.667-.829 5.458-1.354.64-.187 4.462-1.107 4.289-.847m101.948 75.777c-1.189 7.24-7.93 6.937-13.775 6.519-3.881-.272-7.76-.417-11.64-.769-2.523-.228-6.429-.201-3.888-3.733 2.069-2.876 7.502-11.955 11.606-9.014 1.08.774 3.002 1.075 4.259 1.675 1.714.818 3.578 1.271 5.392 1.811 1.244.37 8.867 1.875 8.046 3.511m3.327-16.493c.111 1.349-.193 2.659-.555 3.95-.586-.935-1.376-1.82-2.466-2.146-.866-.263-.908-1.018-1.597-1.219-.409-.118 3.958-2.792 4.027-2.906.266.756.492 1.524.591 2.321m75.067-58.139c-.224-.293-.448-.582-.672-.873.221.173.962.431.672.873m6.002 8.687l.294 1.044a42.924 42.924 0 0 1-3.082-4.201c-.369-.573-2.48-3.8-1.583-3.638-.526-.672-1.084-1.299-1.429-2.092 2.97 2.159 3.818 5.975 5.8 8.887m-1.174-5.129v.652c-.733-.834-1.19-1.82-1.599-2.842.469.471 1.969 1.317 1.599 2.19m.061 1.501l-.39-.813c.317.182.447.453.39.813m79.213 66.928c-2.276 1.582-3.585 3.574-4.91.276-1.294-3.225 4.834-3.111 6.084-1.061-.39.262-.783.523-1.174.785m32.885-82.605c-.604.67-.532 1.791-.716 2.613-.267 1.195-1.179 2.224-1.873 3.193-.691.966-1.504 1.943-2.074 2.989-.765 1.396-.591 3.286-1.06 4.817-.959 3.148-2.666 5.983-3.783 9.076a202.228 202.228 0 0 1-3.778 9.711c-5.438 12.9-10.306 25.906-15.126 39.059a59.51 59.51 0 0 0-1.462 4.445c-.214.756-.401 1.52-.566 2.289-.334-.128-.557-.021-.671.314-1.024 2.215-2.312.34-4.271.658-1.791.289-3.98.867-4.125 2.766-.096 1.21.027 3.648-1.579 3.461-1.747-.202-4.913-.893-2.355 1.781.704.736.989 1.707.653 2.695-.316.93-1.831.971-2.883.99-2.56.051-5.658-.969-7.94-2.087-.972-.477-1.995-1.171-2.556-2.125-.45-.77-.876-2.354-1.937-2.511.3 1.227-.073 1.782.819 2.902.754.947 1.735 1.68 2.804 2.238 2.452 1.293 5.197 1.862 7.894 2.403-1.764-.054-3.645.427-5.25 1.177-2.112.986-3.876 1.541-6.246 1.907-2.639.409-5.313.646-7.981.484-1.18-.07-3.229.146-4.252-.503-.852-.539-1.544-.947-2.532-1.237 3.718-4.545 7.596-10.81 13.245-13.129-.693.792-.024 2.649.914 3.167-.181-.625-.776-1.27-.685-1.959.061-.465.95-.92.455-1.438 1.479-.453 2.727-.865 3.786-2.059.868-.979 1.755-3.334 2.887-3.987.545-.312.992-.934 1.615-1.106.871-.246 1.571.521 1.45-.948-.051-.608.933-1.952 1.302-2.435 1.273-1.668 1.868-3.961 2.832-5.824a173.936 173.936 0 0 0 6.319-13.67 60.166 60.166 0 0 0 3.83-13.584c.826-5.246.46-10.532.906-15.806.409-4.837 1.217-10.567-.309-15.284-1.537-4.761-3.828-9.365-6.155-13.779 6.931 3.011 10.579-1.291 11.657-7.859 1.16-7.055-1.896-12.688-5.101-18.729 7.721 5.791 15.441 11.449 23.382 16.935 2.691 1.86 7.777 4.132 8.673 7.353.278.996.876 2.465 1.311 3.479.876 2.058.532 4.97.532 7.157m33.44 65.294c6.062.466-5.397 23.37-5.678 26.163-2.011-1.664-4.056-3.703-4.909-6.23-.495-1.469-1.134-3.924-3.218-3.203 1.008-3.929 3.637-7.012 6.416-9.833.959-.975 6.062-7.478 7.389-6.897m18.954-83.259c.476.771.911 1.558 1.207 2.418l-1.207-2.418m4.826 4.999a60.348 60.348 0 0 1-3.261-6.125c-.294-.634-1.896-5.373-2.283-5.373.396 1.306.787 2.611 1.174 3.92-1.097-2.332-2.019-4.736-3.065-7.088.063 2.7.926 5.239 1.958 7.709-.256-.518-.405-1.318-.915-1.666.321.916.687 1.816.687 2.809-4.126-8.852-5.001-18.141-3.188-27.688 1.827-9.639 5.613-18.625 6.833-28.457 1.25-10.093.409-19.812-1.569-29.742-1.898-9.527-4.271-19.011-7.936-28.029-1.801-4.435-3.961-8.702-6.31-12.873-2.44-4.34-5.616-7.91-8.412-11.988-1.226-1.788-1.798-3.145-2.675-5.133-.402-.914-1.377-2.266-1.377-3.291 0-1.142-.001-2.459-.017-3.678-.027-2.138-2.071-3.247-2.983-5.008-.968-1.866-.688-3.271-.844-5.206-.145-1.771-1.516-.015-1.608.781-.168 1.477.016 3.026.65 4.38.813 1.728 3.159 2.996 3.203 5 .035 1.507-.34 2.783-.001 4.381.363 1.727 1.837 2.733 2.039 4.477.562 4.89 1.21 9.645 1.245 14.587.049 7.508.189 15.183-.776 22.641-.99 7.604-3.412 14.747-5.927 21.954-1.131 3.232-2.16 6.425-2.859 9.774-.707 3.396-2.891 6.696-4.294 9.857-1.275 2.881-3.031 5.667-3.825 8.722-.431 1.643-1.059 3.019-1.812 4.526-.453.911-1.58 2.476-1.401 3.532-.479-3.041-.581-6.118-.229-9.178-1.097.694-.888 3.298-.924 4.39-.075 2.222.011 5.097.322 7.275.797 5.612 4.159 11.287 8.072 15.283 3.325 3.401 6.625 7.174 10.396 10.069 2.18 1.666 5.047 2.656 7.073 4.394 1.683 1.442 3.058 4.49 3.647 6.597 1.103 3.909-.351 8.385-1.741 11.988-2.117 5.479-1.705 12.549-2.03 18.337-.333 5.949-.786 11.897-1.756 17.782a96.001 96.001 0 0 1-1.971 9.16c-.681 2.562-1.797 5.613-1.65 8.296-.559-.795-.473.586-.479.854-.053 1.859.301 3.797.923 5.547 1.143 3.224 3.107 4.782 2.333 8.494-1.01 4.842-5.847 3.409-9.495 4.244 2.126.821 4.444.35 6.655.618-.966 1.051-2.275 2.447 0 2.745 1.896.246 3.896.668 5.634 1.506.787.38-6.903 8.152-7.722 9.035-1.517 1.645-2.925 3.387-4.056 5.32-.419.718-.991 3.371-1.846 3.735-1.14.485-1.536-3.337-1.738-3.864-.621-1.623-2.541-3.068-2.753-4.782-.558-4.503-1.136-8.52-4.234-11.919-3.021-3.32-4.826-7.012-4.479-11.608.717-9.528 4.68-18.692 5.729-28.252.932-8.541-.312-18.134-4.888-25.603-4.727-7.717-13.52-12.65-20.821-17.646-8.116-5.551-16.179-11.322-23.914-17.39-7.186-5.636-13.106-13.58-21.522-17.433-3.654-1.673-7.68-2.495-11.682-2.738-2.776-.169-8.143-.343-10.214 1.929 4.785-1.197 9.769-.807 14.616-.261-9.137 4.342-16.512 11.457-25.206 16.524-9.138 5.331-19.787 8.194-29.994 10.718 2.688.386 4.677-.483 7.213-1.093 2.469-.593 4.966-.893 7.412-1.623 5.09-1.517 9.966-3.766 14.568-6.401 4.703-2.692 9.078-5.91 13.508-9.021 2.233-1.569 4.479-3.12 6.777-4.594 1.9-1.222 5.168-4.034 7.461-4.194 3.719-.261 8.582 3.359 11.16 5.667 4.246 3.8 8.032 8.113 12.655 11.492 3.614 2.642 4.979 8.287 6.544 12.396 2.085 5.477 2.978 9.992.751 15.629 2.5.227 1.961-8.09 1.801-9.307-.702-5.388-3.495-11.885-6.368-16.498 1.236.944 3.117 1.646 3.816 3.135.739 1.58 1.324 3.306 2.085 4.92 1.917 4.07 3.702 7.824 3.313 12.433-.269 3.19-.972 7.785-4.269 9.271-3.47 1.563-4.921-.418-7.645-1.854-3.471-1.83-6.312-4.836-8.521-8.033-.958-1.392-2.277-3.187-2.78-4.821-.481-1.576-.94-3.707-1.71-5.135-.539-1.001-1.507-3.785-1.422-4.979.134-1.839 1.26-3.584 1.787-5.329.962-3.18 1.181-7.694-.938-10.381 1.06.044 2.654-.583.657-.991-1.684-.343-3.774-.914-5.434-.204-2.884 1.236-4.55 3.581-7.134 5.127-4.021 2.404-7.771 5.23-11.811 7.621-3.878 2.294-7.873 4.361-11.556 6.975-6.386 4.532-12.347 10.688-15.598 17.862-3.403 7.504-2.941 16.052-5.339 23.808-.258-.198-2.604-2.289-2.771-1.83-.274.75.999 1.603 1.463 1.934 1.2.854.446.459.788 1.693-1.151-1.072-2.518-2.067-3.033-3.627a.977.977 0 0 0-.295.295 14.512 14.512 0 0 0-1.207-1.438c.636 1.477 1.393 2.9 1.958 4.41-.959-1.234-2.026-2.531-2.647-3.98-.334-.777-.807-2.998-1.691-3.336.352 1.479.831 2.937 1.565 4.273-.239-.176-.723-.021-1.001-.15-.603-.412-.98-1.662-1.276-2.289-.888-1.879-1.073-4.431-2.095-6.146.098 2.69.935 5.356 2.276 7.685-3.231-2.858-4.084-7.998-3.976-12.089.078-2.972.597-3.329-1.229-5.743-.811-1.072 1.161-3.414.066-4.024-1.452-.812-3.47-1.042-5.065-1.349-2.381-.459-3.979-1.615-6.021-2.812-1.938-1.133-3.587-3.172-5.517-4.131-2.465-1.225-4.929-2.45-7.425-3.606-4.274-1.979-9.537-5.794-14.345-5.915-2.662-.065-5.31.291-7.964.377-2.89.092-5.665-.422-8.524-.686-5.042-.461-10.296.289-14.292 3.602-4.053 3.362-9.339 4.228-13.622 7.199-.471-1.882 2.233-3.932 3.582-4.986 2.087-1.629 6.28-3.91 7.199-6.533.862-2.467 1.118-5.692 1.346-8.288.096-1.104.186-2.179.11-3.284-.024-.391.158-2.979.322-2.256.293-7.289-.175-14.245-2.385-21.297-1.055-3.373-1.446-6.569-1.827-10.071-.196-1.83-.474-3.659-.973-5.433-.425-1.514-1.1-4.833-2.3-5.905.272.245.313 2.292.388 2.728.24 1.441.59 2.86.939 4.279.798 3.233 1.262 6.434 1.554 9.751.274 3.115 1.729 5.964 2.438 9.003.794 3.391 1.175 6.829 1.375 10.301.339 5.838-.198 12.426-1.378 18.197-1.194 5.84-8.287 7.146-10.783 11.966-.508-3.04-.863-6.12-.77-9.206.045-1.479.454-2.752.727-4.188.324-1.716-.389-3.097-.838-4.702-.84-3.008-2.666-5.717-4.537-8.175-.834-1.097-1.674-2.194-2.604-3.216-.004-.006-1.904-1.662-1.898-1.616.074.559 1.122.981 1.417 1.452.719 1.143 1.691 2.129 2.471 3.233 1.623 2.286 2.751 4.829 4.148 7.243.791 1.369.973 4.173.807 5.749-.299 2.861-.984 5.303-.648 8.313.476 4.276 1.444 7.971 2.805 11.912 2.094 6.065 2.33 11.655 1.962 18.039-.071 1.258-.53 2.317.026 3.524.629 1.36.689 2.813.697 4.29.021 3.229.354 6.451.672 9.66.657 6.613 1.941 12.984 3.338 19.469 1.146 5.316 3.834 10.301 6.129 15.172.729 1.546 2.768 3.447 2.44 5.127-.215 1.098-.42 2.289-.687 3.362-.188.763-1.5 3.213-.979 3.202-.058.113-1.228.035-1.515.147-1.02.396-1.802 1.224-2.627 1.903-1.836 1.516-.795 3.506.094 5.041.769 1.328-2.592 1.988-1.742 3.492.826 1.469 2.591 2.379 3.595 3.77 3.659 5.069-6.243 1.316-7.804.793-2.577-.861-4.854-2.201-7.337-3.217-.873-.357-1.536.27-2.291-.314-.479-.369-1.326-1.345-2.034-.936.997-2.134 2.967-4.648 3.393-6.96.252-1.36-.789-2.065-1.23-3.187-.382-.967.404-2.053.736-2.909.926-2.382-.238-6.116-.52-8.589-.334-2.938-.761-5.873-1.476-8.743-1.405-5.658-4.392-9.833-7.309-14.741-1.202-2.025-2.229-4.209-2.801-6.497-.473-1.903-2.373-3.562-3.356-5.322-2.842-5.098-4.898-10.581-7.651-15.723-2.835-5.292-6.5-10.067-9.798-15.067a245.922 245.922 0 0 0-10.419-14.584c-1.434-1.86-2.824-3.537-3.383-5.66-.337-1.278-4.006-2.785-5.154-2.744.989 1.048 3.916 1.85 3.916 3.414 0 2.131 3.393 4.946 4.632 6.565 3.872 5.056 7.36 10.146 10.862 15.465-5.7-2.852-13.274-3.077-19.482-4.229-7.527-1.397-15.178-2.694-22.384-5.353-3.296-1.214-6.516-2.638-9.993-3.264-3.067-.553-5.951-.222-9.008-.234-2.258-.01-1.347-2.131-3.333-1.58-3.242.902-6.086 3.011-9.396 3.584 1.836.612 3.142-.592 4.632-1.437 1.614-.918 3.537-1.687 5.415-1.731-1.283.972 2.382 1.722 2.891 1.808 3.176.532 6.472.069 9.688.608 3.512.588 6.504 1.905 9.659 3.488 2.854 1.432 6.55 1.627 9.618 2.46 6.997 1.897 14.048 3.22 21.188 4.443 3.111.532 6.071 1.61 9.141 2.183 1.316.244 1.989-.092 2.774 1.065.51.751.89 1.583 1.398 2.332-.556-.205-1.108-.411-1.664-.621l1.729 1.144c-3.431 2.006-6.451 4.836-9.873 6.939-3.654 2.247-7.592 4.436-11.589 6.013-4.182 1.653-7.473.437-11.563-.764-3.443-1.007-7.703-1.422-10.753-3.347-3.946-2.487-4.933.623-8.436 1.828-4.125 1.42-8.203 2.754-12.481 3.635-4.25.875-8.131 1.166-12.456.998-1.976-.077-3.583.056-5.477.28-.757.091-.77-.706-1.265-.608-.593.119-.35.836.148.867-4.472.271-7.486-4.145-10.082-7.129-1.704-1.959-3.356-3.985-4.717-6.203-.924-1.502-1.413-2.934-3.178-3.674-1.407-.591-2.95-1.396-4.292-2.14a20.333 20.333 0 0 1-2.52-1.64c-1.027-.785-1.542-.036-2.678-.053-4.197-.06-9.136-2.207-12.792-4.217 3.65-3.383 9.049-3.77 13.743-4.324 4.04-.476 11.49.121 13.923-3.742-3.482 1.269-6.78 2.354-10.478 2.884-3.838.548-7.812.302-11.553 1.44-1.717.525-3.214 1.288-4.691 2.297-.271.186-2.169.987-2.206 1.104-.461 1.526-6.691-.313-7.629-.558-3.022-.783-6.08-.039-9.169.629-3.035.656-7.324 1.105-9.915 2.871-1.171.799-2.402 1.947-2.742 3.375-.24 1.003-2.052 1.639-2.861 2.076-3.354 1.813-5.617 4.478-8.311 7.104 2.82-1.781 4.621-4.463 7.671-5.989 1.324-.664 2.932-1.483 3.883-2.659 1.395-1.725 1.441-2.842 3.806-3.662 3.497-1.218 7.17-2.47 10.847-2.98 1.625-.225 3.256-.355 4.89-.482 1.333-.105 3.293.78 4.679 1.022-2.389 1.427-4.582 4.573-6.414 6.665-2.739 3.125-5.701 6.021-8.839 8.742-2.967 2.572-6.351 4.585-9.816 6.412-2.56 1.352-6.171 3.73-9.082 3.164-3.134-.611-6.035-1.729-9.28-1.787-3.492-.062-5.436 2.322-8.643 3.089-3.221.771-3.772 4.643-6.172 6.655-1.186.996-2.604 1.804-4.15 2.061-2.276.38-4.632-.617-6.819-.096 1.076-1.356 2.887-3.315 3.266-5.051.301-1.377 2.813-2.423 3.65-3.543.521-.692.891-1.486 1.416-2.179.897-1.181.075-.434.362-1.673.233-1.014-.821-3.109-.863-1.844-.052 1.744.473 2.82-.923 4.333-1.402 1.518-3.136 2.46-4.208 4.317-1.391 2.409-3.656 7.049-6.418 8.053-1.843.671-2.757-.485-4.405-.994-2.173-.67-4.526-.231-6.736-.711-3.164-.689-7.982-3.918-8.276-7.469-.08-.938.485-4.479-.044-5.142-.73-.915-.161-4.56.008-5.707.263-1.81 1.671-3.332 3.177-4.271 2.172-1.354.216-1.116-.949-.14.087-6.454-.917-12.792.601-19.17 1.418-5.961 3.442-12.295 3.313-18.458.041.219.397 1.44.928 1.227-.109.045-1.307-8.881-1.338-9.611a150.038 150.038 0 0 1-.111-6.33c0-1.376 1.133-3.018 1.389-4.439 1.149-6.32 3.76-12.419 5.775-18.526a32.36 32.36 0 0 1 2.171-5.098c.683-1.289 1.836-.653 3.089-.417 4.246.797 8.492.866 12.792.532 3.899-.302 7.773-1.064 11.672-1.308.896-.056 2.331-.155 2.525-1.313.163-.979-3.689.234-4.197.309-8.221 1.208-16.333 1.993-24.562.546-7.502-1.32-15.112-3.351-21.862-6.833-6.622-3.416-11.06-9.288-15.573-14.992-2.248-2.844-4.007-5.946-5.834-9.071-1.687-2.882-4.875-6.939-4.054-10.51 1.993.979 3.434 3.665 4.79 5.354 1.808 2.25 3.802 4.27 5.992 6.152 5.002 4.3 10.361 9.014 16.355 11.844 10.063 4.749 21.127 3.66 31.684 2.628 2.759-.27 4.954-.596 7.604-1.431 1.188-.375 2.61-.447 3.72-1.009.914-.466 1.762-1.382 2.834-1.474 2.172-.188 3.509-.504 5.717-.143 2.111.346 4.641 2.996 5.892 4.588 1.628 2.077 2.102 3.572.479 5.443-.886 1.024-1.814 2.222-2.876 3.062-.841.666-1.115 1.717-1.9 2.294-1.792 1.315-3.164 4.479-4.159 6.446-1.464 2.893-1.806 6.364-1.424 9.55.887-.311.648-2.559.645-3.238-.017-1.813.802-3.291 1.092-5.037.638-3.834 4.969-8.163 7.502-10.93 2.754-3.009 5.856-5.826 8.868-8.591 3.813-3.506 7.036 4.499 7.756 7.322 1.094 4.284.967 9.513-.207 13.775-.294 1.069-.662 3.817-2.015 3.934-1.403.118-3.38-.064-3.386 1.9-.002 1.607-7.124.05-7.743 1.29-.655 1.31-2.333 2.384-3.769 2.563-.918.114-1.837.179-2.763.122-.766-.048-.801-1.391-1.676-1.214 1.065 2.67 4.144 2.343 6.33 1.109.944-.534 1.485-1.573 2.453-2.075 1.382-.72 3.763-.385 5.331-.792.47-.125 1.947.191 2.179-.181.746-1.188.929-1.784 2.518-1.771 2.813.021 2.859-2.277 3.282-4.793 1.024-6.078 1.495-13.451-1.818-18.922-1.195-1.973-3.211-5.245-6.045-3.638-1.521.864-2.797 2.622-4.051 3.829-.503.486-1.714 1.122-1.825 1.821-.813-1.337-1.529-2.891-2.284-4.279-.627-1.155-2.202-1.79-1.761-3.233 1.028-3.382 3.149-7.797 5.306-10.61 1.182-1.54 2.653-2.587 4.178-3.747a23.33 23.33 0 0 0 2.324-2.04c.618-.615.325-1.477.698-2.186 2.082-3.957 4.922-8.044 7.934-11.378 2.751-3.047 6.376-4.836 9.479-7.511 1.551-1.338 2.574-2.906 3.89-4.432 1.536-1.783 3.368-3.352 4.957-5.103 2.742-3.021 5.779-6.41 9.09-8.814.584-.425 6.996-4.07 4.242-5.52 1.2-.028 3.369.778 2.886-.944-.077-.276 5.119-.559 3.669-2.061 2.597-.236 3.498-1.128 5.654-2.169.904-.438 3.392-1.294 3.244-2.61-.033-.3 3.167-1.016 3.469-1.018 7.974-.032 16.174-2.704 23.854-4.647 8.091-2.047 15.563-5.409 23.389-8.22 3.52-1.265 7.032-2.738 10.595-3.865 3.898-1.233 8.383-1.273 12.432-1.415-.891-.42-1.956-.348-2.904-.489 2.026-.373 4.028-.494 6.08-.236 2.192.276 3.816.053 6.018-.238 5.089-.671 10.219-.448 15.337-.492 10.097-.088 20.066-.778 30.035-2.412 4.854-.794 9.544-1.385 14.478-1.181 5.344.22 10.652.911 15.989 1.213 10.263.582 20.359-.323 30.492-1.932a600.344 600.344 0 0 1 61.604-6.541c10.438-.562 20.814-1.766 31.169-3.131 4.539-.6 8.765-1.942 13.355-2.048 4.844-.112 9.646 1.626 14.378 2.518 9.676 1.821 19.531.857 29.223-.385 2.05-.263 4.115-.579 6.163-.796 1.517-.162 2.644 1.279 3.846 2.015 2.709 1.656 8.2 3.415 9.657 6.427.938 1.938 2.841 3.377 3.97 5.226 1.147 1.872 1.696 3.877 2.524 5.882 1.457 3.514 3.859 7.202 6.16 10.311 5.729 7.74 11.294 15.059 15.446 23.824 4.055 8.567 7.013 17.589 9.421 26.744 2.528 9.607 5.094 19.28 5.938 29.206.835 9.792.198 19.532-1.574 29.187-1.664 9.047-6.531 18.124-4.553 27.418l-1.175-4.736c.171 1.794.353 3.641.762 5.399.212.909.481 1.809.621 2.735.054.354.338 3.014-.208.781a84.69 84.69 0 0 0 .455 4.115c-.272-1.172-.775-6.917-2.021-7.545.585 3.314.577 6.713 1.37 9.996-.98-2.702-.204.431-.071.883.388 1.298 1.015 2.5 1.509 3.756-1.188-2.766-2.373-5.532-3.558-8.296-1.036.702 2.388 7.99 2.734 8.875 1.089 2.755 2.182 5.549 3.577 8.167 1.434 2.686 3.473 5.018 5.041 7.65a137.7 137.7 0 0 1-3.897-5.413m-34.222 12.084c-.979.879-2.936 3.635-3.755 1.508-.345-.889-2.365-4.203-3.694-3.075.503-.424 3.312 3.731 3.536 4.427.688 2.157 4.661-3.058 5.024-3.707a2.657 2.657 0 0 0-1.111.847M133.003 137.51c-1.745-1.333-3.491-2.685-5.064-4.221-.839-.819-1.937-2.705-3.059-3.096 1.246 1.802 2.58 3.576 4.267 4.993.898.753 4.013 3.857 5.423 3.402a68.864 68.864 0 0 0-1.567-1.078M523.178 35.014c-1.99-1.895-4.609-3.12-7.394-2.535-.413.087-4.039 1.347-3.321 2.062.166.167 4.732-.835 5.143-.817a9.54 9.54 0 0 1 4.104 1.112c.198.105 1.921.951 1.468.178m-15.853 14.437c-.858-2.128-1.612-3.677-3.048-5.492-1.125-1.421-2.887-1.134-4.581-1.378-5.394-.776-11.069-.808-16.295-2.443-1.796-.561-4.323-1.243-5.732-2.551-1.579-1.465-2.265-3.907-3.795-5.453-.998-1.011-8-2.433-7.623-3.653-1.909.565 1.617 2.227 2.099 2.336 2.375.543 3.949.944 5.564 2.838 1.462 1.717 2.4 3.873 4.314 5.155 2.361 1.582 5.058 2.393 7.826 2.9 5.275.965 10.604 1.68 15.928 2.318 1.531.184 2.207 1.15 2.982 2.453.403.677 2.358 3.017 2.361 2.97m2.478-13.947c-3.34-.469-6.896-.6-9.753-2.612-1.303-.916-2.474-2.065-3.269-3.456-.264-.457-1.517-4.783-1.104-4.822-1.453.136-.594 3.505-.367 4.254.646 2.178 2.229 4.089 4.237 5.145 3.993 2.102 9.558 1.777 13.941 2.08a113.891 113.891 0 0 0-3.685-.589M74.479 219.689c-.424-.858-1.279-.787-2.099-.799-.341-.005-1.571.379-.636.672.484.156 3.456 1.295 2.735.127m-16.574-40.403c-.383.756.076 1.899.424 2.58a66.013 66.013 0 0 0-.424-2.58m17.975 11.823c-.423.143-.849.285-1.272.426.957.322 2.08-.418 2.87-.85-.53.147-1.062.29-1.598.424m-7.275-20.316c.412-.376.783-.79 1.111-1.24.153.352 1.493-.013 2.186-.065-.535-.32-2.431.032-1.143-.687-.766.16-.367-2.213-1.857-2.09.508.504 1.296 1.297.977 2.122-.817.169-2.081-1.692-2.79-2.071-2.029-1.086-3.165.045-5.138-.117.845.482 2.111.125 3.016.09 1.626-.061 3.061.886 4.065 2.099-2.514-.153-5.39-.176-7.896 0-2.646.187-3.698 4.45-3.099 6.533.434-1.894.302-4.642 2.283-5.716-.336 2.271.826 3.492 3.1 3.756-.856.264-2.701.377-2.871 1.437 1.178-.933 3.404-.446 4.403-1.942.57-.854 1.536-1.336 2.149-2.154.891-1.194.601-1.653 2.254-1.455-1.371 2.232-4.306 6.117-7.079 6.696 1.144 1.199 5.926-4.655 6.329-5.196m1.405-1.535c-.064.012-.199.035 0 0m-6.526.032c.554-.013 1.108-.022 1.663-.032l-1.663.032m3.915.296c-.263.423-.523.848-.782 1.273a48.736 48.736 0 0 0-.751-1.666h1.827a36.49 36.49 0 0 0-.294.393m11.809 19.303c-3.474.788-7.889 2.957-11.288.815-.725 2.767 10.92-.563 11.842-.88-.185.021-.369.042-.554.065m-18.659-11.987l-.522.651c.239.004 1.358-.812.522-.651m69.781-4.574c-.409-.796-.822-1.592-1.24-2.385.014 1.492 1.704 3.726 2.251 5.129.305-.829-.696-2.037-1.011-2.744m-4.242-2.319c-.728-1.22-1.458-2.438-2.185-3.657.754 3.108 3.434 6.248 5.023 9.015.432-1.133-2.346-4.513-2.838-5.358m6.068-29.33c-2.199-2.195-4.409-4.374-6.569-6.604-.694-.716-3.771-4.933-4.75-4.861-.738.054 1.841 3.018 1.979 3.15 1.192 1.144 2.285 2.386 3.482 3.527.647.616 5.812 5.088 5.858 4.788m-11.319 1.045c.053-3.194-.229-6.383-.719-9.538-.914.927-.47 2.875-.307 3.994.315 2.191.409 4.429.395 6.643-.005.714-.904 4.64-.479 5.104.549.602 1.084-5.441 1.11-6.203m3.749 6.467c.686.749 1.391 1.485 2.154 2.156-1.297-1.809-2.561-3.646-3.686-5.567-.318-.546-.971-2.533-1.586-2.831.308.148-.833 3.646-.829 3.922.415-.734.745-1.511 1.143-2.253.739 1.636 1.723 3.146 2.804 4.573M96.63 207.67c-2.865.676-5.683 4.182-7.596 6.232-1.206 1.294-2.25 2.727-3.269 4.173-1.181 1.673-1.703 2.104-3.686 2.92 3.846.878 5.465-4.351 7.415-6.726 1.265-1.541 2.804-3.225 4.537-4.242 1.178-.69 2.903-1.108 3.642-2.357H96.63"/></g></svg>