<svg xmlns="http://www.w3.org/2000/svg" width="541" height="304" viewBox="0 0 541 304"><g fill-rule="evenodd"><path d="M271 0c-5.597 2.148-10.584.568-16 1-3.387.27-6.614 1.649-10 2-4.723.489-9.64-.353-14 0-6.17.5-11.6 3.008-18 4-.192.03-.026 1.195-1 1-3.747-.75-7.403.109-12 2-2.031.835-5.453 1.371-8 3-2.438 1.56-3.727 3.103-7 5-1.202.696-1.136.172-2 1-1.392 1.334-6.182 3.504-9 5-5.781 3.068-12.323 6.311-19 10-2.496 1.379-6.19 2.309-9 5-.783.75-5.242 2.316-7 4-1.182 1.133-8.472 3.063-11 4-3.556 1.318-6.154 3.515-10 3-5.665 3.25-10.729 7.88-17 11-6.456 3.212-14.316 3.434-19 9-3.863-.197-7.369-.036-10 1-6.714 3.771-13.356 6.193-21 10-1.201.598-1.735 1.41-3 2-1.312.612-2.763.211-4 1-5.727 3.652-8.413 10.744-15 13-2.071 3.159-5.805 7.764-9 12-2.1 2.784-2.927 4.252-5 9-1.795 4.111-4.746 10.158-7 16-3.915 10.146-9.431 20.998-4 28 .006.009 1.007 2.005 1 2 .963.681 3.327.798 5 2 .346.249.691 1.86 1 2 4.291 1.935 9.576 5.563 15 8 3.176 2.233 5.423-3.669 9-2 .145.067 1.024 2.001 1 2 4.329.162 9.213-.41 14 0 7.701.659 15.268 3.325 23 4 27.897 2.433 54.806-3.595 75-13 5.826.565 13.239 4.23 18 0 3.541-.541 2.459 3.541 6 3 7.512 3.131 17.044.744 26 0 .445 5.788-2.881 10.188-4 16-2.184 11.342-1.22 22.23-5 31-2.351 5.454-6.402 11.984-9 18-3.791 1.876-10.839.494-12 5-.656 4.216 8.185 9.639 13 11 1.749.494 5.685 1.052 6 1 4.271-.703 4.142-3.008 7-6 4.096-1.8 6.599-5.445 10-9 2.819-2.946 7.177-6.1 9-10 1.21-2.589 1.137-6.03 2-9 2.072-7.124 8.219-15.5 8-25 6.208 3.54 7.938 12.064 11 20 5.057 13.106 13.521 25.898 7 46-3.279 4.228-9.467 4.424-15 8-2.327 1.504-2.525.472-3 4-.677 5.032 2.844 7.704 8 9 3.984 1.002 11.945.73 16 0 7.666-1.382 10.861-6.402 16-8 1.258-6.66 4.871-13.027 6-20 1.083-6.691-.243-14.158 1-21 .539-2.965 2.541-6.017 3-9 .866-5.631.141-11.653 1-18 1.201-8.868 4.317-19.168 3-32 6.987 3.2 14.961 1.041 23 2 4.102.489 7.876 2.514 12 3 1.714.202 3.001 1.079 4 1 .287-.022 2.922-1.998 3-2 10.702-.31 22.364 3.626 34 6 9.907 2.021 18.657 2.472 24 6 1.875 1.238 2.465.847 4 3 2.063 2.893 4.379 7.951 7 12 1.616 2.495 3.271 5.217 5 8 .77 1.239.92 2.101 2 4 1.396 2.454 2.967 3.516 4 7 .95 3.204 1.534 5.137 3 9 1.418 3.737 4.103 9.032 4 12-.095 2.741-2.202 6.539-4 10-1.558 2.998-3.565 6.35-5 9-3.258 6.017-6.885 12.51-11 16-6.924 5.871-17.969 7.49-24 15 1.868 1.219 1.313 2.941 3 4 .965.605 2.974-.513 4 0 .486.243.591 1.789 1 2 1.43.739 3.21 1.284 5 2 1.284.514 5.048-.192 4 3H0V0h271z" fill="#fff"/><path d="M271 0h5c16.179 2.958 32.806 6.766 50 9 8.881 1.154 18.103.817 27 2 3.434.457 7.075 1.313 13 2 11.301 1.31 26.002 2.789 39 5 16.729 2.846 32.566 4.81 48 10 1.705.574 4.27 1.324 6 2 .508.198 1.629 1.888 2 2 .889.269 2.143-.347 3 0 1.569.635 2.24 2.308 4 3 2.03.798 4.728.357 6 1 1.219.615 3.9 3.65 6 5 2.035 1.309 4.556 2.127 7 4 3.805 2.916 8.422 6.856 11 10 1.426 1.739 1.68 4.04 3 6 .908 1.349 2.986 2.585 4 4 .682.951.278 1.247 1 2 .131.137.957.938 1 1 3.981 5.824 10.486 12.034 15 19 1.118 1.726 3.722 4.465 5 7 1.249 2.477.98 5.606 2 8 .902 2.119 2.956 3.988 4 6 2.145 4.133 4.086 8.392 7 13 .329 13.178-.746 23.666-4 35-.372 1.295-.238 5.388-3 5a226.119 226.119 0 0 0-2-17c-.741-4.732.239-11.9-5-13-3.428-.436-2.393 3.577-3 5-1.254 2.939-2.522 5.841-5 9-.896 1.144-2.164 1.812-3 3-1.669 2.373-2.296 4.922-4 7-5.683 6.931-15.222 10.151-19 19 .348 6.366 1.441 12.276 2 18 .624 6.399-.007 12.729 1 19 1.461 9.096 7.278 16.002 5 25-.983 3.885-3.79 6.327-6 10-.642 1.065-.403 2.04-1 3-.655 1.054-1.857 3.286-3 5-1.93 2.895-3.104 9.25-5 14-1.85 4.636-4.907 8.166-7 12 .673 5.006-.926 7.74-1 12-3.397 2.269-8.433 2.9-11 6-8.151-.301-13.448 3.195-21 1-5.118-1.488-8.32-5.452-14-6 2.525-8.475 14.041-7.959 22-11 3.791-3.822 6.16-9.194 8-15 .789-2.491 1.169-5.989 2-9 .793-2.87 2.735-5.628 3-8 .275-2.469-.844-6.146-1-9-.219-3.992.43-7.01 0-10-.86-5.984-4.314-11.522-6-17-.915-2.973-1.163-6.38-2-9-.952-2.981-2.009-5.418-3-8-2.494 2.82-3.37 5.784-5 10-1.281 3.315-1.521 10.26-1 16 .552 6.075 2.924 11.354 2 16-1.29 6.485-6.759 9.974-13 13-3.835 8.776-11.802 16.486-19 24-.814.851-1.197 2.162-2 3-.123.128-.967.95-1 1-1.213 1.801-1.786 4.495-3 6-2.463 3.053-9.859 10.551-14 13-4.269 2.524-9.92 2.839-15 5h-4c1.048-3.192-2.716-2.486-4-3-1.79-.716-3.57-1.261-5-2-.409-.211-.514-1.757-1-2-1.026-.513-3.035.605-4 0-1.687-1.059-1.132-2.781-3-4 6.031-7.51 17.076-9.129 24-15 4.115-3.49 7.742-9.983 11-16 1.435-2.65 3.442-6.002 5-9 1.798-3.461 3.905-7.259 4-10 .103-2.968-2.582-8.263-4-12-1.466-3.863-2.05-5.796-3-9-1.033-3.484-2.604-4.546-4-7-1.08-1.899-1.23-2.761-2-4-1.729-2.783-3.384-5.505-5-8-2.621-4.049-4.938-9.107-7-12-1.535-2.153-2.125-1.762-4-3-5.343-3.528-14.093-3.979-24-6-11.636-2.374-23.298-6.31-34-6-.078.002-2.713 1.978-3 2-.999.079-2.286-.798-4-1-4.124-.486-7.898-2.511-12-3-8.039-.959-16.013 1.2-23-2 1.317 12.832-1.799 23.132-3 32-.859 6.347-.134 12.369-1 18-.459 2.983-2.461 6.035-3 9-1.243 6.842.083 14.309-1 21-1.129 6.973-4.742 13.34-6 20-5.139 1.598-8.334 6.618-16 8-4.055.73-12.016 1.002-16 0-5.156-1.296-8.677-3.968-8-9 .475-3.528.673-2.496 3-4 5.533-3.576 11.721-3.772 15-8 6.521-20.102-1.943-32.894-7-46-3.062-7.936-4.792-16.46-11-20 .219 9.5-5.928 17.876-8 25-.863 2.97-.79 6.411-2 9-1.823 3.9-6.181 7.054-9 10-3.401 3.555-5.904 7.2-10 9-2.858 2.992-2.729 5.297-7 6-.315.052-4.251-.506-6-1-4.815-1.361-13.656-6.784-13-11 1.161-4.506 8.209-3.124 12-5 2.598-6.016 6.649-12.546 9-18 3.78-8.77 2.816-19.658 5-31 1.119-5.812 4.445-10.212 4-16-8.956.744-18.488 3.131-26 0-3.541.541-2.459-3.541-6-3-4.761 4.23-12.174.565-18 0-20.194 9.405-47.103 15.433-75 13-7.732-.675-15.299-3.341-23-4-4.787-.41-9.671.162-14 0 .024.001-.855-1.933-1-2-3.577-1.669-5.824 4.233-9 2-5.424-2.438-10.709-6.065-15-8-.309-.14-.654-1.751-1-2-1.673-1.202-4.037-1.319-5-2 .007.005-.994-1.991-1-2-5.431-7.002.085-17.854 4-28 2.254-5.842 5.205-11.889 7-16 2.073-4.748 2.9-6.216 5-9 3.195-4.236 6.929-8.841 9-12 6.587-2.256 9.273-9.348 15-13 1.237-.789 2.688-.388 4-1 1.265-.59 1.799-1.402 3-2 7.644-3.807 14.286-6.229 21-10 2.631-1.036 6.137-1.197 10-1 4.684-5.566 12.544-5.788 19-9 6.271-3.12 11.335-7.75 17-11 3.846.515 6.444-1.682 10-3 2.528-.937 9.818-2.867 11-4 1.758-1.684 6.217-3.25 7-4 2.81-2.691 6.504-3.621 9-5 6.677-3.689 13.219-6.932 19-10 2.818-1.496 7.608-3.666 9-5 .864-.828.798-.304 2-1 3.273-1.897 4.562-3.44 7-5 2.547-1.629 5.969-2.165 8-3 4.597-1.891 8.253-2.75 12-2 .974.195.808-.97 1-1 6.4-.992 11.83-3.5 18-4 4.36-.353 9.277.489 14 0 3.386-.351 6.613-1.73 10-2 5.416-.432 10.403 1.148 16-1z"/><path d="M276 0h265v304H383c5.08-2.161 10.731-2.476 15-5 4.141-2.449 11.537-9.947 14-13 1.214-1.505 1.787-4.199 3-6 .033-.05.877-.872 1-1 .803-.838 1.186-2.149 2-3 7.198-7.514 15.165-15.224 19-24 6.241-3.026 11.71-6.515 13-13 .924-4.646-1.448-9.925-2-16-.521-5.74-.281-12.685 1-16 1.63-4.216 2.506-7.18 5-10 .991 2.582 2.048 5.019 3 8 .837 2.62 1.085 6.027 2 9 1.686 5.478 5.14 11.016 6 17 .43 2.99-.219 6.008 0 10 .156 2.854 1.275 6.531 1 9-.265 2.372-2.207 5.13-3 8-.831 3.011-1.211 6.509-2 9-1.84 5.806-4.209 11.178-8 15-7.959 3.041-19.475 2.525-22 11 5.68.548 8.882 4.512 14 6 7.552 2.195 12.849-1.301 21-1 2.567-3.1 7.603-3.731 11-6 .074-4.26 1.673-6.994 1-12 2.093-3.834 5.15-7.364 7-12 1.896-4.75 3.07-11.105 5-14 1.143-1.714 2.345-3.946 3-5 .597-.96.358-1.935 1-3 2.21-3.673 5.017-6.115 6-10 2.278-8.998-3.539-15.904-5-25-1.007-6.271-.376-12.601-1-19-.559-5.724-1.652-11.634-2-18 3.778-8.849 13.317-12.069 19-19 1.704-2.078 2.331-4.627 4-7 .836-1.188 2.104-1.856 3-3 2.478-3.159 3.746-6.061 5-9 .607-1.423-.428-5.436 3-5 5.239 1.1 4.259 8.268 5 13a226.119 226.119 0 0 1 2 17c2.762.388 2.628-3.705 3-5 3.254-11.334 4.329-21.822 4-35-2.914-4.608-4.855-8.867-7-13-1.044-2.012-3.098-3.881-4-6-1.02-2.394-.751-5.523-2-8-1.278-2.535-3.882-5.274-5-7-4.514-6.966-11.019-13.176-15-19-.043-.063-.869-.863-1-1-.722-.753-.318-1.049-1-2-1.014-1.415-3.092-2.651-4-4-1.32-1.96-1.574-4.261-3-6-2.578-3.144-7.195-7.084-11-10-2.444-1.873-4.965-2.691-7-4-2.1-1.35-4.781-4.385-6-5-1.272-.643-3.97-.202-6-1-1.76-.692-2.431-2.365-4-3-.857-.347-2.111.269-3 0-.371-.112-1.492-1.802-2-2-1.73-.676-4.295-1.426-6-2-15.434-5.19-31.271-7.154-48-10-12.998-2.211-27.699-3.69-39-5-5.925-.687-9.566-1.543-13-2-8.897-1.183-18.119-.846-27-2-17.194-2.234-33.821-6.042-50-9z" fill="#fff"/></g></svg>