<svg xmlns="http://www.w3.org/2000/svg" xmlns:dc="http://dublincore.org/documents/dcmi-terms/" height="351.076" width="373.632"><metadata><dc:description>Silhouette of Brachyspira, processed by PhyloPic Tools (https://github.com/eweitz/phylopic-tools)</dc:description><dc:source>http://phylopic.org/image/84148b76-45c8-48e1-aacd-748c6983f3b5</dc:source><dc:creator>Matt Crook</dc:creator><dc:license>http://creativecommons.org/licenses/by-sa/3.0/</dc:license></metadata><g stroke-width="8"><path d="M141.786 134.998c1.857 8.849.534 16.641 5.572 26.546 5.038 9.905 18.336 16.525 22.313 30.29 3.977 13.764-2.374 35.328.188 47.582 2.561 12.253 10.735 15.835 16.102 23.753" fill="none" stroke="#000" stroke-linecap="round" stroke-linejoin="round"/><path d="M162.622 163.21c5.417 7.62 13.049 9.974 16.252 22.864 3.204 12.89-2.562 37.267 2.254 51.589 4.816 14.321 21.282 20.016 25.13 29.851 3.85 9.835-2.704 16.003-4.056 24.004" fill="none" stroke="#000" stroke-linecap="round" stroke-linejoin="round"/><path d="M189.217 200.624c1.014 10.23-.977 18.849 5.41 32.919 6.386 14.07 21.064 26.62 26.883 41.12 5.819 14.502 3.542 32.916 4.207 40.032.665 7.117 3.147 6.628 4.72 9.942M223.176 194.476c-2.592 9.925-7.225 16.708-2.292 29.789 4.933 13.08 24.49 25.33 28.812 40.532 4.322 15.202-10.435 30.006-11.357 40.144-.922 10.138 4.023 12.263 6.035 18.394M221.323 162.158c10.313 5.705 14.665 13.34 16.253 22.864 1.587 9.524-5.708 20.211-4.96 29.338.75 9.127 5.206 14.291 9.142 21.662" fill="none" stroke="#000" stroke-linecap="round" stroke-linejoin="round"/><path d="M261.166 175.293c-.605 5.384 1.101 9.022-1.815 16.153-2.917 7.13-17 12.865-15.327 25.757 1.674 12.89 22.387 27.311 24.066 41.559 1.68 14.247-13.771 23.566-15.05 34.947-1.28 11.382 5.191 19.776 7.788 29.664" fill="none" stroke="#000" stroke-linecap="round" stroke-linejoin="round"/><path d="M270.457 196.066c-3.235 10.122-13.017 16.494-9.704 30.365 3.313 13.871 25.364 32.722 27.91 45.867 2.546 13.144-9.817 14.8-14.725 22.2" fill="none" stroke="#000" stroke-linecap="round" stroke-linejoin="round"/><path d="M280.074 204.093c-2.684 6.861-10.698 10.88-8.052 20.585 2.646 9.705 14.776 20.786 22.163 31.179M293.534 281.35c.526 7.71.03 16.651 1.578 23.128 1.546 6.477 5.017 9.992 7.525 14.988M301.936 172.125c1.603 12.159.686 23.433 4.809 36.475 4.122 13.043 17.396 23.93 19.62 40.808 2.226 16.879-8.005 43.998-6.799 56.46 1.207 12.462 8.974 8.223 13.46 12.334M303.1 246.39c2.66 4.108 6.8 6.052 7.977 12.322 1.177 6.27-.827 15.71-1.24 23.565M288.288 177.134c-.209 4.841-2.116 9.889-.626 14.525 1.49 4.636 6.01 7.721 9.015 11.582M323.762 156.611c.354 17.739-2.562 36.864 1.064 53.217 3.625 16.353 17.262 31.166 20.21 42.736 2.947 11.57-4.515 16.81-3.169 24.154 1.347 7.345 9.423 10.947 10.781 17.367 1.359 6.42-2.103 12.447-3.155 18.67M193.738 103.544c4.912 12.413 7.26 12.965 8.84 23.44 1.58 10.476 2.684 36.422.789 44.026M208.951 192.072c-.764 9.93-3.181 21.22-2.291 29.788.89 8.568 5.008 13.649 7.513 20.473M221.122 120.06c7.05 6.983 16.697 13.343 21.15 20.949 4.451 7.606 2.93 15.126 4.394 22.689M209.427 113.511l10.906 27.448M143.977 84.16c1.453 13.048.888 21.018 6.599 31.292 5.71 10.274 15.422 18.762 24.254 24.217M156.887 143.037l15.965 19.158M182.493 159.253l16.541 26.57M108.09 155.821c9.312 11.633 20.262 21.787 24.968 36.225 4.706 14.439.04 28.78 4.057 40.92 4.016 12.141 12.955 17.126 20.698 23.617M140.634 185.097c2.016 4.303 4.83 6.342 6.047 12.91 1.218 6.567-1.494 18.422 1.127 25.794 2.622 7.372 9.166 10.694 13.749 16.04M164.049 252.15c7.538 9.504 18.022 18.245 22.614 28.512 4.591 10.266 1.807 23.176 3.931 30.84 2.124 7.664 5.71 9.5 8.565 14.25M162.183 290.24c2.312 4.354 6.112 8.414 6.937 13.06.824 4.647-1.503 8.89-2.254 13.336M141.51 255.656c3.435 10.334 9.542 19.723 10.305 31.003.763 11.28-7.34 25.504-5.86 34.673 1.48 9.168 9.266 10.1 13.899 15.15M108.59 196.14c4.338 5.001 11.245 5.986 13.01 15.002 1.767 9.016-6.245 24.131-3.192 35.123 3.052 10.991 16.808 16.968 20.247 26.282 3.439 9.315-.534 17.59-.802 26.383M94.667 191.959c4.579 7.174 11.645 10.342 13.736 21.524 2.091 11.182-5.047 30.584-1.728 42.686s13.598 16.93 20.397 25.394M98.736 227.395c-1.849 9.136-7.583 17.294-5.547 27.41 2.036 10.114 13.777 18.657 16.98 29.387 3.202 10.731.041 25.394 1.702 33.208 1.661 7.813 5.318 8.214 7.976 12.32M70.187 201.537c3.644 5.493 8.152 11.04 8.853 17.956.7 6.917-2.696 12.347-5.084 19.259M76.01 248.243c4.87 9.053 11.469 17.328 14.612 27.16 3.144 9.83 2.621 20.56 3.932 30.84M89.808 307.27l-3.318 25.043M81.093 293.91c-1.156 8.643-1.057 17.119-3.468 25.931-2.412 8.813-7.255 17.672-10.882 26.508M50.829 305.253c3.94 5.543 10.15 9.196 11.82 16.63 1.669 7.433-1.62 16.795-2.43 25.193M62.386 242.283c-.906 7.162-6.595 13.742-2.717 21.487 3.878 7.744 15.485 12.98 23.227 19.47M64.402 203.303l4.696 20.911M40.023 169.006l14.337 17.969" fill="none" stroke="#000" stroke-linecap="round" stroke-linejoin="round"/><path d="M30.219 178.322c5.321 6.386 22.594 15.294 25.13 29.852 2.536 14.557-9.251 33.684-7.964 47.118 1.288 13.435 8.344 24.576 16.83 30.278M38.257 228.146c-1.073 15.364-6.534 33.96-3.218 46.092 3.316 12.132 14.2 13.373 21.3 20.06M17.972 218.316c-.125 11.562-2.18 23.398-.375 34.685 1.804 11.286 7.362 21.362 11.043 32.043M19.45 285.32c-1.349 6.172-6.318 10.573-4.045 18.518 2.273 7.946 11.127 17.122 16.691 25.682M19.838 180.226c5.263 10.338 11.667 17.44 13.874 26.12 2.207 8.68-.188 17.342-1.24 23.565M33.825 92.061l11.933 32.193M46.847 101.578l15.64 31.905M100.402 147.207c.037 5.188-1.675 9.47.113 15.564 1.787 6.094 6.886 13.356 10.33 20.034M127.674 148.158c3.047 7.221 4.065 15.282 9.14 21.663 5.076 6.38 16.179 9.356 20.273 15.314 4.094 5.957 1.653 11.862 2.48 17.793M339.414 118.107c-3.573 6.712-10.884 13.449-10.719 20.135.165 6.686 7.688 8.615 11.532 12.922M347.014 165.113c-5.35 6.411-8.188 22.795-4.971 34.823 3.217 12.028 19.724 19.09 22.902 32.218 3.177 13.128 1.761 29.254-5.134 41.196M337.11 218.305l11.219 20.185M288.363 209.151l12.258 19.446M283.43 227.52l11.381 13.812M282.34 120.348c10.268 4.174 11.483 13.219 10.33 20.035M287.174 145.855c6.11 7.129 7.475 15.285 4.545 21.8M78.189 137.966l7.8 24.179M75.12 183.168l12.11 20.335M86.09 183.193l17.768 8.49" fill="none" stroke="#000" stroke-linecap="round" stroke-linejoin="round"/><path d="M85.792 32.778a4 4 0 1 1-7.888-1.333 4 4 0 1 1 7.888 1.333zM95.008 21.534A4 4 0 1 1 87.12 20.2a4 4 0 1 1 7.888 1.333zM108.832 4.667a4 4 0 1 1-7.888-1.333 4 4 0 1 1 7.888 1.333zM52.16 91.103a4 4 0 1 1-7.889-1.333 4 4 0 1 1 7.888 1.333zM70.052 109.673a4 4 0 1 1-7.888-1.333 4 4 0 1 1 7.888 1.333zM85.917 107.782a4 4 0 1 1-7.888-1.333 4 4 0 1 1 7.888 1.333zM38.56 139.098a4 4 0 1 1-7.888-1.333 4 4 0 1 1 7.888 1.333zM51.42 154.988a4 4 0 1 1-7.888-1.333 4 4 0 1 1 7.888 1.333zM90.475 124.098a4 4 0 1 1-7.888-1.333 4 4 0 1 1 7.888 1.333zM181.632 125.789a4 4 0 1 1-7.888-1.334 4 4 0 1 1 7.888 1.334zM187.141 114.832a4 4 0 1 1-7.888-1.333 4 4 0 1 1 7.888 1.333zM80.295 168.099a4 4 0 1 1-7.888-1.334 4 4 0 1 1 7.888 1.334zM8.295 280.291a4 4 0 1 1-7.888-1.333 4 4 0 1 1 7.888 1.333zM10.349 289.783a4 4 0 1 1-7.888-1.333 4 4 0 1 1 7.888 1.333zM7.945 304.007a4 4 0 1 1-7.888-1.333 4 4 0 1 1 7.888 1.333zM243.639 105.178a4 4 0 1 1-7.888-1.333 4 4 0 1 1 7.888 1.333zM293.55 58.749a4 4 0 1 1-7.888-1.334 4 4 0 1 1 7.888 1.334zM256.523 110.1a4 4 0 1 1-7.888-1.334 4 4 0 1 1 7.888 1.333z" style="marker:none" color="#000" overflow="visible"/><path d="M256.523 110.1a4 4 0 1 1-7.888-1.334 4 4 0 1 1 7.888 1.333zM323.965 46.515a4 4 0 1 1-7.888-1.333 4 4 0 1 1 7.888 1.333zM339.19 64.634a4 4 0 1 1-7.887-1.333 4 4 0 1 1 7.888 1.333zM373.575 66.788a4 4 0 1 1-7.888-1.334 4 4 0 1 1 7.888 1.334zM352.74 103.5a4 4 0 1 1-7.889-1.332 4 4 0 1 1 7.888 1.333zM363.846 108.121a4 4 0 1 1-7.888-1.333 4 4 0 1 1 7.888 1.333zM343.911 139.5a4 4 0 1 1-7.888-1.333 4 4 0 1 1 7.888 1.333zM353.866 129.295a4 4 0 1 1-7.888-1.333 4 4 0 1 1 7.888 1.333zM353.528 147.527a4 4 0 1 1-7.888-1.334 4 4 0 1 1 7.888 1.334zM316.451 155.89a4 4 0 1 1-7.888-1.332 4 4 0 1 1 7.888 1.333zM315.525 172.194a4 4 0 1 1-7.888-1.333 4 4 0 1 1 7.888 1.333zM284.71 165.157a4 4 0 1 1-7.889-1.334 4 4 0 1 1 7.888 1.334zM282.418 194.945a4 4 0 1 1-7.888-1.333 4 4 0 1 1 7.888 1.333zM267.367 164.969a4 4 0 1 1-7.888-1.333 4 4 0 1 1 7.888 1.333zM216.053 176.413a4 4 0 1 1-7.888-1.333 4 4 0 1 1 7.888 1.333zM261.532 123.748a4 4 0 1 1-7.888-1.333 4 4 0 1 1 7.888 1.333zM259.804 101.51a4 4 0 1 1-7.888-1.334 4 4 0 1 1 7.888 1.334zM286.488 100.533a4 4 0 1 1-7.889-1.333 4 4 0 1 1 7.889 1.333zM307.474 62.93a4 4 0 1 1-7.888-1.332 4 4 0 1 1 7.888 1.333zM359.125 33.255a4 4 0 1 1-7.888-1.333 4 4 0 1 1 7.888 1.333zM312.232 121.344a4 4 0 1 1-7.888-1.333 4 4 0 1 1 7.888 1.333zM318.48 111.427a4 4 0 1 1-7.888-1.333 4 4 0 1 1 7.888 1.333zM324.828 122.558a4 4 0 1 1-7.888-1.333 4 4 0 1 1 7.888 1.333zM334.357 104.052a4 4 0 1 1-7.888-1.334 4 4 0 1 1 7.888 1.334zM278.736 184.265a4 4 0 1 1-7.888-1.334 4 4 0 1 1 7.888 1.334zM108.268 121.619a4 4 0 1 1-7.888-1.334 4 4 0 1 1 7.888 1.334zM141.175 121.694a4 4 0 1 1-7.888-1.333 4 4 0 1 1 7.888 1.333zM193.64 125.075a4 4 0 1 1-7.888-1.333 4 4 0 1 1 7.888 1.333zM192.112 144.934a4 4 0 1 1-7.888-1.333 4 4 0 1 1 7.888 1.333zM283.482 313.086a4 4 0 1 1-7.888-1.333 4 4 0 1 1 7.888 1.333zM342.796 302.994a4 4 0 1 1-7.888-1.333 4 4 0 1 1 7.888 1.333zM163.538 324.819a4 4 0 1 1-7.889-1.334 4 4 0 1 1 7.889 1.334zM133.912 316.154a4 4 0 1 1-7.889-1.334 4 4 0 1 1 7.889 1.334zM103.66 322.014a4 4 0 1 1-7.889-1.334 4 4 0 1 1 7.888 1.334z" style="marker:none" color="#000" overflow="visible"/><path d="M5.588 318.639l11.67 17.518M173.615 282.114c1.177 3.857 2.993 6.544 3.531 11.57.539 5.026-2.055 11.656-.338 18.231 1.717 6.576 6.887 13.357 10.33 20.035M209.139 304.578l.989 21.199M311.114 307.183l7.363 21.362" fill="none" stroke="#000" stroke-linecap="round"/></g></svg>