<svg xmlns="http://www.w3.org/2000/svg" xmlns:dc="http://dublincore.org/documents/dcmi-terms/" height="498" version="1.2" viewBox="0 0 1192 498" width="1192" overflow="inherit"><metadata><dc:description>Silhouette of Bradysaurus seeleyi, processed by PhyloPic Tools (https://github.com/eweitz/phylopic-tools)</dc:description><dc:source>http://phylopic.org/image/993f5179-fff4-4c90-bbd1-deca577e562f</dc:source><dc:creator>Karkemish (vectorized by T. Michael Keesey)</dc:creator><dc:license>http://creativecommons.org/licenses/by-sa/3.0/</dc:license></metadata><path d="M196 0h2c8.306 1.361 15.802 3.531 18 11 6.012-3.213 18.981-2.682 24 1 5.06-5.349 11.16-1.784 19-2 3.921-.108 8.213-3.068 11-3 1.782.043 4.173 2.196 6 2 7.805-.836 16.012-6.287 22 1 3.281-2.719 8.098-3.902 12-6 5.965 7.062 18.514-2.104 24 6 6.7-8.823 23.387 1.779 26-6 8.911 2.903 16.951-2.136 24-2 3.257.062 4.756 3.639 8 4 3.464.386 7.91-3.165 11-3 2.775.148 5.222 3.595 9 4 7.462.8 14.447-3.961 19 3 4.444-6.771 16.012-5.022 21 0 21.536-2.287 46.348.714 71 0 9.895 6.122 24.052-1.033 34 7 6.396-5.723 13.674 2.406 21 3 4.247.344 8.546-2.402 13-2 2.331.21 3.75 2.448 6 3 5.542 1.359 12.154-.835 18 0 3.948.564 7.418 3.222 11 4 9.981 2.168 20.694-.028 27 7 3.858-.142 4.621-3.379 9-3 8.604 2.062 15.727 5.607 22 10 6.246-2.485 14.293-.17 20 1 2.219 2.448 4.279 5.054 5 9 7.998-11.08 31.623-5.448 35 12 13.969-4.938 24.276-4.718 28 11 9.738-.354 18.497 2.924 23 12 11.154-.154 17.025 4.975 20 13 6.546-.213 10.431 2.236 15 4 1.676 12.991 22.915 6.418 23 21 13.158.396 19.469 1.666 22 12 6.729 1.442 13.075 2.127 18 3 2.785 3.548 5.559 7.107 6 13 4.738-.738 6.875 1.125 11 1 5.293 13.04 26.054 10.613 29 26 7.546 1.454 16.041 1.959 15 12 3.75-2.639 6.021-.59 12-1 .785 4.548 4.83 5.836 5 11 2.343-1.99 6.363-2.304 11-2 3.096 3.904 5.664 8.335 6 15 3.139-.194 2.711-3.956 7-3 3.751 2.249 6.162 5.838 6 12 4.35-.017 8.997-.331 12 1 2.177 2.157 3.48 5.187 4 9 4.258-.591 6.614.719 10 1 .856 3.144 3.78 4.22 4 8 12.652 2.681 20.58 10.087 28 18 17.355 4.312 28.529 14.804 41 24h6c6.177 7.157 19.312 7.354 26 14 3.22-.22 4.231 1.769 8 1 14.206 10.794 38.057 11.943 52 23-6.097 9.911-26.188 6.627-40 6-87.572-3.978-181.156-33.993-267-15-.604 23.102-1.783 48.216-3 75-.559 12.294.169 26.664-2 36-.731 3.147-4.119 5.114-5 8-.883 2.894.601 6.68 0 10-1.054 5.825-4.77 10.344-5 14-.482 7.646 4.206 15.458 4 22-.211 6.725-4.093 8.817-5 14-10.167-5.5-13.962-17.371-19-28-9.731 10.936-10.359 30.975-26 36-5.645-8.788-2.312-26.191-1-37-7.227 8.443-18.282 21.715-29 30-9.833-6.35-4.691-22.877 0-31-9.789-.392-17.057 15.527-29 13-.392-8.725 5.902-10.764 8-17-4.561 2.105-10.297 3.037-16 4 .545-17.455 15.414-20.586 27-27 2.309-5.539 7.643-13.526 3-20 10.983-27.835-1.66-57.406-7-84-41.655-2.891-72.398 8.181-110 12-3.825 27.175-29.229 32.771-51 42-2.255-2.162.828-3.411 0-7-3.483 1.532-12.054 6.602-18 9-2.555-.111-1.984-3.349-2-6-6.615.639-25.743 12.579-24 0-5.486-.184-8.98 5.936-14 3 1.223-18.11 20.435-18.232 23-35-42.278 2.723-86.592 3.408-131 4 16.664 36.914-38.56 33.595-66 40-4.19.856-2.19-4.477-4-6-10.472.861-16.199 6.468-24 10-1.666-1.334-.334-5.666-2-7-3.4 1.6-5.343 4.657-10 5-.16-4.31-2.408-8.545 1-11-.147-2.231-2.52 1.298-5 0 .8-10.506 14.92-10.148 24-15 7.376-3.941 8.567-10.374 15-14 .074-4.26 1.673-6.994 1-12-9.045-1.168-13.519-10.131-21-10-10.634.187-16.108 16.031-26 20-.395 18.2-5.861 34.189-15 50-8.423 14.571-10.988 33.005-21 44-2.562 2.813-7.018 3.938-10 6-15.634 10.809-31.332 25.302-52 31-2.511-4.37-1.004-7.043-1-13-4.504-.816-10.324 5.66-15 8-10.855-2.323-12.359 3.245-21 5-1.104-7.77 3.443-9.89 5-15-7.298 1.035-10.303 6.363-17 8-2.742-6.503 2.074-12.049 4-17-4.265-3.219-7.612 3.021-13 2 4.093-8.123 1.992-15.925 7-22 3.637-4.411 11.112-4.027 17-6 10.972-3.677 17.086-11.229 24-16-.576-2.091-2.479-2.854-2-6 1.909-2.758 3.209-6.124 6-8 5.203-11.453 4.801-26.265 6-43 1.7-23.732 16.742-51.607 16-67-.331-6.864-6.69-11.833-8-18-1.287-6.061 1.34-10.635 0-16-.789-3.158-5.173-8.249-8-12-9.181-12.18-14.136-19.006-26-29-6.324-5.327-13.097-12.262-19-16-12.855-8.14-29.903-11.729-44-21-15.354-10.097-26.771-27.669-41-37-10.265-6.732-19.84-9.112-26-18-3.711 1.289-3.222 6.778-8 7-7.653-1.037-8.333-11.883-14-16-9.298-6.755-24.373-1.036-35-6-16.055-7.499-9.955-31.562-23-41-1.951-2.38 1.002-4.771-2-7v-7c1.914-5.753 2.409-12.924 5-18 12.406-3.808 25.206-18.952 42-20 6.663-.416 13.132 3.237 20 4 45.149 5.013 91.705-10.99 129-21z" fill-rule="evenodd"/></svg>