<svg xmlns="http://www.w3.org/2000/svg" xmlns:dc="http://dublincore.org/documents/dcmi-terms/" height="443" viewBox="0 0 556 443" width="556"><metadata><dc:description>Silhouette of Bramatherium perimense, processed by PhyloPic Tools (https://github.com/eweitz/phylopic-tools)</dc:description><dc:source>http://phylopic.org/image/3a355a9f-f728-45aa-895d-818908c07220</dc:source><dc:creator>Steven Traver</dc:creator><dc:license>http://creativecommons.org/publicdomain/zero/1.0/</dc:license></metadata><g fill-rule="evenodd"><path d="M122 0c-6.305 3.182-11.071 11.213-15 18-2.447 4.226-7.082 8.36-11 12-1.619 1.504-2.157 3.735-4 5-1.987 1.364-4.553.523-6 3-5.063-14.371 9.358-22.222 7-34-8.544-1.995-10.473 8.794-14 16-2.812 5.745-6.274 14.492-9 22-.635 1.749.48 1.891 0 3-1.066 2.461-3.884 6.257-5 10-4.096-.238-1.847-6.82-8-5-2.221 4.953 2.507 8.741 2 15-5.135 5.705-10.691 12.473-20 17-6.25 3.04-14 3.108-20 6-2.978 1.435-6.729 5.061-10 8-3.614 3.247-7.27 5.697-8 9-1.094 4.947 2.109 9.475 2 16 8.948 6.419 21.555 3.011 33 7 2.068.721 4.601 2.448 7 3 13.162 3.031 32.672 1.217 44-2 6.437 2.99 13.589 4.774 19 9 6.222 4.858 9.696 12.314 15 18 3.425 3.672 8.001 6.586 12 10 4.099 3.5 7.882 7.149 12 10 4.328 2.996 9.413 5.172 14 8 2.144 1.321 3.542 3.631 6 5 2.303 1.283 6.094 1.561 8 3 2.036 1.537 2.711 4.438 5 7 1.702 1.905 4.475 3.354 6 5 3.976 4.291 7.064 8.915 10 13 10.224 14.229 16.464 29.218 28 42-3.875 17.125-11.089 30.91-22 41 .274 5.038-1.567 10.822-2 16-.429 5.122-1.613 11.969-1 16 .947 6.228 7.729 13.49 10 20 2.022 5.795 2.816 12.725 4 19 1.306 6.918 1.126 14.768 3 20 1.421 3.968 5.015 7.601 8 11 7.889 8.982 20.112 19.477 28 28 2.745-18.487-.524-32.337-11-40-1.375-3.116-.788-6.211-2-9-.704-1.62-2.87-2.248-4-4-2.018-3.127-2.833-5.389-5-9-2.907-4.845-7.29-18.42-8-27-.51-6.16-.479-15.901 2-21 1.5-3.085 3.291-4.066 6-6 7.283-5.199 13.761-11.124 21-19 4.541-4.94 8.911-11.547 15-13 1.873 9.49 4.282 18.296 5 29 .63 9.394-1.998 19.317 0 28 1.048 4.557 4.937 7.964 6 12 1.009 3.828.601 9.661 1 14 .473 5.135 1.357 9.661 1 14-.262 3.183-2.357 6.113-3 10-.672 4.063.672 8.701 0 12-.182.892-1.76 1.761-2 3-1.111 5.743-3.898 8.746-6 14-1.225 3.061-3.542 6.162-1 10 5.512 4.696 14.547 1.641 18-1 .328-.251 2.788-.697 3-1 .787-1.125.946-4.132 2-6 2.862-5.076 6.489-11.709 7-19 .46-6.561-2.376-12.875-3-20-2.049-23.39 3.104-45.158 5-65 1.712-17.913 2.643-33.561 1-51 6.709-1.775 13.04.71 20 1 21.643.901 42.81-5.9 58-13 3.893-.107 6.339 4.14 9 6 .919.642 2.321.183 3 1 4.457 5.363 6.007 15.841 9 24 3.165 8.629 6.452 16.643 8 23 1.563 1.438 3.48 2.52 4 5-.621 13.175.846 24.858 0 36-1.436 18.92-12.277 34.677-19 50-1.135 2.587-.952 5.189-2 7-1.137 1.963-3.479 3.935-5 6-1.466 1.988-2.622 4.405-4 6-6.324 7.318-15.347 12.427-21 20 5.479 1.854 12.075 2.591 16 6H0V0h122z" fill="#fff"/><path d="M122 0h2c4.555 6.398-8.638 23.513-13 30-7.208 10.72-12.609 19.297-16 28 4.083 3.817 8.271 5.238 13 5 7.38-.371 13.871-9.833 22-5 5.065 6.961-1.89 12.377-4 18 3.096 5.52 9.856 5.794 16 9 4.897 2.556 9.394 6.286 15 9 5.068 2.454 11.634 5.813 17 7 2.894.64 5.911-.466 9 0 4.08.616 8.073 3.485 12 4 4.668.612 10.961-.101 17 0 4.497.075 10.432 1.382 14 1 11.214-1.201 23.868-10.096 34-14 1.558-.601 3.82-.341 6-1 5.756-1.74 18.568-3.562 31-2 15.792 1.984 33.121 12.935 49 19 12.355 4.72 25.04 7.071 41 10 4.492.825 8.94 2.429 13 3 3.887.547 8.257.062 13 1 18.288 3.617 39.053 15.825 54 25 11.729 7.2 22.662 16.253 33 26 7.188 6.777 17.051 13.136 13 27-1.029 3.305-5.677 2.99-9 4-5.563 17.273-12.895 35.107-4 53 1.346 2.707 3.305 5.494 5 8 6.997 10.343 18.717 18.539 25 29 2.005 1.989-.314 4.761-1 7 2.69 3.31 2.888 9.112 5 13 1.135 4.484-5.241 4.465-2 8-.998 4.263 3.576 7.011 5 11 1.71 4.79 2.25 11.86 4 19 2.715 11.076 5.47 22.897 9 36 2.834 10.521 6.445 14.608 3 24-2.2 5.997-4.92 13.863-5 22-9.888 1.016-18.112 1.016-28 0-1.19-2.153 1.921-3.639 3-5 3.094-3.902 3.799-5.912 6-13 4.763-15.338-4.199-44.321-9-62-3.318-12.217-5.536-22.116-11-31-4.08-2.92-7.116-6.884-10-11-13.06-4.94-23.35-12.65-32-22-7.668-3.332-14.563-7.438-21-12-3.912 4.088-4.205 11.795-7 17 1.811 5.051 3.382 10.163 5 15 3.662 10.947 6.593 14.341 1 26-.873 1.82-2.05 2.986-3 5-4.574 9.697-10.412 20.027-16 29-1.845 2.962-2.979 5.713-5 10-1.848 3.917-4.979 9.145-8 14-2.098 3.372-5.12 6.29-6 9-2.766 8.524-.942 16.496-4 25-5.735 1.265-10.409 3.591-15 6-.513 5.487-4.953 7.047-9 9h-5c-3.925-3.409-10.521-4.146-16-6 5.653-7.573 14.676-12.682 21-20 1.378-1.595 2.534-4.012 4-6 1.521-2.065 3.863-4.037 5-6 1.048-1.811.865-4.413 2-7 6.723-15.323 17.564-31.08 19-50 .846-11.142-.621-22.825 0-36-.52-2.48-2.438-3.563-4-5-1.548-6.357-4.835-14.371-8-23-2.993-8.159-4.543-18.637-9-24-.679-.817-2.081-.358-3-1-2.661-1.86-5.107-6.107-9-6-15.19 7.1-36.357 13.901-58 13-6.96-.29-13.291-2.775-20-1 1.643 17.439.712 33.087-1 51-1.896 19.842-7.049 41.61-5 65 .624 7.125 3.46 13.439 3 20-.511 7.291-4.138 13.924-7 19-1.054 1.868-1.213 4.875-2 6-.212.303-2.672.749-3 1-3.453 2.641-12.488 5.696-18 1-2.542-3.838-.225-6.939 1-10 2.102-5.254 4.889-8.257 6-14 .24-1.239 1.818-2.108 2-3 .672-3.299-.672-7.937 0-12 .643-3.887 2.738-6.817 3-10 .357-4.339-.527-8.865-1-14-.399-4.339.009-10.172-1-14-1.063-4.036-4.952-7.443-6-12-1.998-8.683.63-18.606 0-28-.718-10.704-3.127-19.51-5-29-6.089 1.453-10.459 8.06-15 13-7.239 7.876-13.717 13.801-21 19-2.709 1.934-4.5 2.915-6 6-2.479 5.099-2.51 14.84-2 21 .71 8.58 5.093 22.155 8 27 2.167 3.611 2.982 5.873 5 9 1.13 1.752 3.296 2.38 4 4 1.212 2.789.625 5.884 2 9 10.476 7.663 13.745 21.513 11 40-7.888-8.523-20.111-19.018-28-28-2.985-3.399-6.579-7.032-8-11-1.874-5.232-1.694-13.082-3-20-1.184-6.275-1.978-13.205-4-19-2.271-6.51-9.053-13.772-10-20-.613-4.031.571-10.878 1-16 .433-5.178 2.274-10.962 2-16 10.911-10.09 18.125-23.875 22-41-11.536-12.782-17.776-27.771-28-42-2.936-4.085-6.024-8.709-10-13-1.525-1.646-4.298-3.095-6-5-2.289-2.562-2.964-5.463-5-7-1.906-1.439-5.697-1.717-8-3-2.458-1.369-3.856-3.679-6-5-4.587-2.828-9.672-5.004-14-8-4.118-2.851-7.901-6.5-12-10-3.999-3.414-8.575-6.328-12-10-5.304-5.686-8.778-13.142-15-18-5.411-4.226-12.563-6.01-19-9-11.328 3.217-30.838 5.031-44 2-2.399-.552-4.932-2.279-7-3-11.445-3.989-24.052-.581-33-7 .109-6.525-3.094-11.053-2-16 .73-3.303 4.386-5.753 8-9 3.271-2.939 7.022-6.565 10-8 6-2.892 13.75-2.96 20-6 9.309-4.527 14.865-11.295 20-17 .507-6.259-4.221-10.047-2-15 6.153-1.82 3.904 4.762 8 5 1.116-3.743 3.934-7.539 5-10 .48-1.109-.635-1.251 0-3 2.726-7.508 6.188-16.255 9-22 3.527-7.206 5.456-17.995 14-16 2.358 11.778-12.063 19.629-7 34 1.447-2.477 4.013-1.636 6-3 1.843-1.265 2.381-3.496 4-5 3.918-3.64 8.553-7.774 11-12 3.929-6.787 8.695-14.818 15-18z"/><path d="M124 0h432v443H379c4.047-1.953 8.487-3.513 9-9 4.591-2.409 9.265-4.735 15-6 3.058-8.504 1.234-16.476 4-25 .88-2.71 3.902-5.628 6-9 3.021-4.855 6.152-10.083 8-14 2.021-4.287 3.155-7.038 5-10 5.588-8.973 11.426-19.303 16-29 .95-2.014 2.127-3.18 3-5 5.593-11.659 2.662-15.053-1-26-1.618-4.837-3.189-9.949-5-15 2.795-5.205 3.088-12.912 7-17 6.438 4.563 13.332 8.668 21 12 8.65 9.35 18.94 17.06 32 22 2.884 4.116 5.92 8.08 10 11 5.464 8.884 7.682 18.783 11 31 4.801 17.679 13.763 46.662 9 62-2.201 7.088-2.906 9.098-6 13-1.079 1.361-4.19 2.847-3 5 9.888 1.016 18.112 1.016 28 0 .08-8.137 2.8-16.003 5-22 3.445-9.392-.166-13.479-3-24-3.53-13.103-6.285-24.924-9-36-1.75-7.14-2.29-14.21-4-19-1.424-3.989-5.998-6.737-5-11-3.241-3.535 3.135-3.516 2-8-2.112-3.888-2.31-9.69-5-13 .686-2.239 3.005-5.011 1-7-6.283-10.461-18.003-18.657-25-29-1.695-2.506-3.654-5.293-5-8-8.895-17.893-1.563-35.727 4-53 3.323-1.01 7.971-.695 9-4 4.051-13.864-5.812-20.223-13-27-10.338-9.747-21.271-18.8-33-26-14.947-9.175-35.712-21.383-54-25-4.743-.938-9.113-.453-13-1-4.06-.571-8.508-2.175-13-3-15.96-2.929-28.645-5.28-41-10-15.879-6.065-33.208-17.016-49-19-12.432-1.562-25.244.26-31 2-2.18.659-4.442.399-6 1-10.132 3.904-22.786 12.799-34 14-3.568.382-9.503-.925-14-1-6.039-.101-12.332.612-17 0-3.927-.515-7.92-3.384-12-4-3.089-.466-6.106.64-9 0-5.366-1.187-11.932-4.546-17-7-5.606-2.714-10.103-6.444-15-9-6.144-3.206-12.904-3.48-16-9 2.11-5.623 9.065-11.039 4-18-8.129-4.833-14.62 4.629-22 5-4.729.238-8.917-1.183-13-5 3.391-8.703 8.792-17.28 16-28 4.362-6.487 17.555-23.602 13-30z" fill="#fff"/></g></svg>