<svg xmlns="http://www.w3.org/2000/svg" xmlns:dc="http://dublincore.org/documents/dcmi-terms/" height="87.897" width="88.542"><metadata><dc:description>Silhouette of Brevinema andersonii, processed by PhyloPic Tools (https://github.com/eweitz/phylopic-tools)</dc:description><dc:source>http://phylopic.org/image/cf04004a-07e9-4aa2-a9e9-3991780c3079</dc:source><dc:creator>Matt Crook</dc:creator><dc:license>http://creativecommons.org/licenses/by-sa/3.0/</dc:license></metadata><g font-weight="400" color="#000" stroke="#000" font-family="Sans"><path d="M39.097 28.38c-.9.382-.678 2.757-.705 5.415-.027 2.657.275 5.039.775 8.206.501 3.167.506 5.406-1.226 7.725-.525.702-1.38 1.039-3.123 1.147-1.745.107-4.087-.133-6.492-.227-2.405-.094-4.957-.085-7.368 1.103-2.411 1.189-4.28 3.763-4.772 7.27-.501 3.569.837 6.684 3.124 8.29 2.287 1.606 5.024 2.024 7.685 2.304 2.661.28 5.324.35 7.376.64 2.053.29 3.16.889 3.343 1.154 1.523 2.206 1.786 3.676 1.344 5.463-.442 1.786-.124 1.928-2.582 4.676-.867.982-2.526 4.79-1.544 5.655.981.867 4.427-1.364 5.293-2.346 2.696-3.013 2.904-3.647 3.677-6.775.773-3.127.037-6.478-2.056-9.508-1.625-2.354-4.269-2.902-6.773-3.255-2.504-.354-5.2-.403-7.573-.653s-4.342-.778-5.295-1.447c-.952-.67-1.378-1.192-1.053-3.504.333-2.372.992-2.966 2.024-3.475 1.033-.509 2.833-.686 4.98-.602 2.147.083 4.54.384 6.946.236 2.407-.149 5.111-.863 6.827-3.159 2.748-3.678 2.778-7.853 2.2-11.504-.577-3.651-1.239-5.269-1.517-7.138-.278-1.869-1.978-6.34-3.515-5.69z" style="text-indent:0;text-align:start;line-height:normal;text-transform:none;block-progression:tb;marker:none;-inkscape-font-specification:Sans" fill="#666" overflow="visible"/><path d="M10.73 26.33c-.83.247-1.642.578-2.399.956-3.026 1.512-3.392 1.93-5.541 4.205-.898.957-3.002 4.541-2.046 5.44.956.898 4.8-1.052 5.698-2.008C8.4 32.85 8.43 32.841 10.58 31.767c2.15-1.074 4.09-1.407 6.39-.523.677.26 1.077.762 1.565 2.012.49 1.25.868 3.058 1.332 5.046.463 1.987 1.021 4.163 2.27 6.155a10.092 10.092 0 0 0 6.182 4.446c2.864.692 5.544.053 7.733-1.07 2.188-1.125 4.002-2.676 5.609-4.098 1.607-1.423 3.034-2.717 4.156-3.359 1.121-.641 1.552-.725 2.322-.386.918.404 1.299.887 1.67 1.919.37 1.032.527 2.584.646 4.289.119 1.705.183 3.56.624 5.427.44 1.867 1.378 3.897 3.303 5.172 3.049 2.019 6.49 2.345 9.333 1.32 2.843-1.027 5.065-3.215 6.496-5.883 2.9-5.409 2.088-8.337 1.878-11.54-.011-1.365-1.82-7.593-3.182-7.49-1.36.102-1.333 5.844-1.14 7.195.232 3.486-.114 6.03-1.96 9.474-.943 1.757-2.343 3.031-3.782 3.55-1.44.52-2.94.463-4.87-.816-.565-.374-.928-.942-1.21-2.137-.282-1.195-.352-2.84-.477-4.625-.124-1.786-.284-3.727-.967-5.627-.682-1.9-2.103-3.82-4.337-4.802-2.382-1.049-4.933-.442-6.814.634-1.88 1.075-3.444 2.556-5.005 3.938-1.56 1.381-3.104 2.652-4.564 3.402s-2.71 1.028-4.29.646c-1.618-.391-2.393-1.08-3.106-2.218-.713-1.138-1.214-2.8-1.644-4.64-.43-1.841-.802-3.845-1.553-5.764-.75-1.92-2.082-3.924-4.405-4.817l-.038-.022c-2.76-1.05-5.537-.983-8.015-.245z" style="text-indent:0;text-align:start;line-height:normal;text-transform:none;block-progression:tb;marker:none;-inkscape-font-specification:Sans" fill="#333" overflow="visible"/><path d="M40.605.5c-.98.037-3.513 4.239-3.856 5.158-1.058 2.644-1.293 3.04-2.02 7.092-.363 2.026-.467 4.132.126 6.188.592 2.056 2.004 3.994 4.156 5.219 2.321 1.321 4.91 1.197 7.031.593 2.12-.603 3.998-1.613 5.719-2.437 1.72-.825 3.265-1.414 4.375-1.5 1.11-.087 1.765.028 2.875 1.219 1.118 1.199 1.348 2.095 1.281 3.406-.066 1.31-.628 2.994-1.312 4.875-.684 1.88-1.505 3.963-1.813 6.281-.308 2.318.013 4.988 1.594 7.375 1.509 2.278 3.563 3.69 5.656 4.375 2.093.686 4.177.74 6.094.719 3.814-.04 6.89-.253 9.031 1.281l.031.031c2.46 1.791 3.77 4.414 3.407 6.719-.364 2.305-.738 4.24-5.418 5.876-1.32.336-5.232 3.018-4.814 4.314.418 1.296 5.078.934 6.345.436 6.068-1.977 8.103-5.267 8.824-9.845.721-4.577-1.744-8.895-5.406-11.562-3.978-2.897-8.56-2.288-12.063-2.25-1.751.018-3.275-.078-4.468-.469-1.194-.391-2.094-.99-3.032-2.406-.865-1.307-1.012-2.43-.812-3.938.2-1.508.861-3.292 1.562-5.218.701-1.927 1.445-4.017 1.563-6.344a9.625 9.625 0 0 0-2.563-7.031l-.03-.032c-1.985-2.128-4.594-2.992-6.907-2.812-2.313.18-4.317 1.119-6.156 2-1.84.881-3.552 1.762-4.938 2.156-1.385.395-2.249.378-3.187-.156-1.109-.631-1.528-1.295-1.813-2.281-.284-.987-.28-2.346 0-3.907.56-3.12 1.05-3.757 1.707-6.123.645-1.535.894-7.049-.77-7.002z" style="text-indent:0;text-align:start;line-height:normal;text-transform:none;block-progression:tb;marker:none;-inkscape-font-specification:Sans" overflow="visible"/></g></svg>