<svg xmlns="http://www.w3.org/2000/svg" xmlns:dc="http://dublincore.org/documents/dcmi-terms/" height="156.004" version="1.2" viewBox="0 0 362.331 156.004" width="362.331" overflow="inherit"><metadata><dc:description>Silhouette of Bryozoa, processed by PhyloPic Tools (https://github.com/eweitz/phylopic-tools)</dc:description><dc:source>http://phylopic.org/image/2b19cb5a-1f76-48f7-b0ca-2f736e4c4e16</dc:source><dc:creator>Michelle Site</dc:creator><dc:license>http://creativecommons.org/licenses/by-nc/3.0/</dc:license></metadata><path d="M297.465 11.128l.175-.55c.367-1.2.801-2.45 1.301-3.75.466-1.267.916-2.051 1.35-2.351.4-.3.75-.267 1.05.101.3.366.533.866.7 1.5.134.633.184 1.25.15 1.85-.067.6-.2 1.566-.4 2.9-.233 1.3-.467 2.683-.7 4.149-.267 1.467-.5 2.717-.7 3.75-.043.268-.084.501-.125.7l3.176-5.25c.033-.066.216-.4.55-1 .3-.6.666-1.134 1.1-1.6.367-.5.684-.567.95-.2.233.3.267 1.366.1 3.2-.399 1.699-.75 3.083-1.05 4.149-.333 1-.633 1.851-.899 2.55-.267.634-.5 1.267-.7 1.9-.2.6-.334 1.35-.4 2.25-.033.467-.05.85-.05 1.15-.033.3-.05.55-.05.75a1.275 1.275 0 0 0 0 .5c0 .087.017.179.05.274l.1.175a.532.532 0 0 1 .075.075c.022-.056.047-.114.075-.175.014-.056.03-.114.05-.175a75.758 75.758 0 0 1 1.45-3.325c.833-1.833 1.816-3.9 2.95-6.2 1.085-2.234 2.335-4.793 3.75-7.675.102-.1.201-.183.3-.25.165-.131.314-.206.45-.225a.673.673 0 0 1 .649.149c.167.134.301.367.4.7.066.3.134.65.2 1.05.033.367.033.733 0 1.101-.02.213-.036.413-.05.6.233-.3.5-.55.8-.75.267-.233.566-.417.899-.55a3.278 3.278 0 0 1 1-.351c.934.334 1.233 1.233.9 2.7-.037.149-.079.3-.125.45l-.025.075a.58.58 0 0 0 .051-.075c.166-.3.399-.517.699-.65a2.09 2.09 0 0 1 .95-.35c.334-.033.667.017 1 .15.3.1.566.283.8.55.267.366.384.85.351 1.45a9.772 9.772 0 0 1-.4 1.8c-.2.6-.416 1.166-.649 1.7-.267.533-.467.966-.601 1.3a340.23 340.23 0 0 0-2.6 5.6c-.134.267-.283.617-.45 1.05l-.7 1.4a8.177 8.177 0 0 1-.2.425c.667-.149 1.217-.524 1.65-1.125.434-.6.833-1.283 1.2-2.05.333-.8.649-1.566.95-2.3.3-.767.583-1.417.85-1.95.066-.167.167-.35.3-.55.134-.233.3-.483.5-.75.167-.267.367-.5.601-.7a2.16 2.16 0 0 1 .649-.6c.233-.167.467-.267.7-.301.233-.033.483.034.75.2.134.101.25.3.35.601.067.267.101.583.101.949-.033.367-.066.767-.101 1.2-.033.4-.083.8-.149 1.2a35.483 35.483 0 0 0-.4 1.75c-.566 1.8-1.366 3.417-2.399 4.85a57.52 57.52 0 0 1-3.4 4.15c-1.2 1.3-2.3 2.667-3.3 4.1-.171.24-.338.481-.5.726.243-.028.477-.095.7-.2l.05-.025c.017-.008.033-.017.05-.024.137-.077.271-.169.4-.275.366-.3.75-.649 1.149-1.05.4-.434.767-.833 1.101-1.2.366-.399.683-.717.949-.95a21.275 21.275 0 0 0 1.7-1.8 86.347 86.347 0 0 1 1.601-1.85c.267-.3.533-.667.8-1.101.267-.433.55-.85.85-1.25.267-.433.566-.8.9-1.1.3-.333.616-.517.95-.55.533-.101.933-.101 1.199 0 .267.1.45.283.551.55.1.267.116.566.05.9-.066.333-.15.683-.25 1.05a8.47 8.47 0 0 1-.45.95c-.134.3-.267.533-.4.699a51.738 51.738 0 0 1-4.199 5.101c-1.5 1.6-2.917 3.25-4.25 4.95-.5.633-1.101 1.316-1.801 2.05-.666.7-1.333 1.45-2 2.25a13.744 13.744 0 0 0-1.6 2.399 5.947 5.947 0 0 0-.525 1.676c.119-.196.244-.388.375-.575a8.145 8.145 0 0 1 .7-.95c.2-.3.384-.533.55-.7.4-.399.801-.733 1.2-1 .4-.267.783-.533 1.15-.8.366-.267.733-.55 1.1-.85.367-.334.733-.75 1.101-1.25a16.111 16.111 0 0 1 1.8-2.301c.6-.699 1.25-1.316 1.95-1.85a16.116 16.116 0 0 1 2.199-1.5c.801-.434 1.65-.85 2.551-1.25.6.667.833 1.366.699 2.1-.133.7-.466 1.417-1 2.15-.533.7-1.133 1.35-1.8 1.95-.666.6-1.233 1.1-1.7 1.5a17.488 17.488 0 0 0-2.05 2.1 15.723 15.723 0 0 0-1.75 2.45 9.702 9.702 0 0 0-1.175 2.925 55.898 55.898 0 0 1 1.725-1.225c1.467-1.033 2.75-1.816 3.851-2.351 1.066-.533 1.8-.649 2.2-.35.3.3.333.733.1 1.3-.267.533-.7 1.117-1.3 1.75a22.823 22.823 0 0 1-1.851 1.75l-1.649 1.4c-.467.366-.95.816-1.45 1.35-.533.5-1.083 1.05-1.65 1.65a65.59 65.59 0 0 1-1.6 1.55 13.21 13.21 0 0 1-1.3.95c.399-.167.8-.316 1.2-.45.073-.033.148-.067.225-.1h.025c.295-.13.611-.246.949-.351.434-.133.867-.267 1.301-.399.399-.134.8-.284 1.199-.45.867-.5 1.75-.983 2.65-1.45.866-.5 1.866-.717 3-.65.2.634.167 1.2-.1 1.7-.267.434-.65.834-1.15 1.2-.533.333-1.1.634-1.7.9-.6.267-1.133.517-1.6.75a41.562 41.562 0 0 0-3 1.75c-1 .6-1.884 1.3-2.65 2.1a1.24 1.24 0 0 0 1 .6c.434.034.9-.033 1.4-.199a79.9 79.9 0 0 0 1.45-.5c.466-.2.866-.334 1.199-.4.5-.1 1.051-.15 1.65-.15.566-.033 1.467.017 2.7.15.399.066.666.184.8.35.1.134.116.301.05.5-.1.2-.25.4-.45.601-.233.233-.5.45-.8.649-.333.167-.649.334-.95.5-.3.134-.583.217-.85.25-.934.134-1.967.334-3.1.601-1.167.267-2.067.733-2.7 1.399-.566.7-.684 1.2-.351 1.5.301.301.834.483 1.601.551.767.066 1.566.083 2.399.05a24.402 24.402 0 0 1 1.851-.101c.866-.033 1.666 0 2.399.101.733.1 1.483.333 2.25.7.4.199.733.449 1 .75.267.267.483.55.65.85.134.3.2.583.2.85s-.066.5-.2.7c-.134.2-.333.351-.6.45-.301.066-.65.05-1.051-.05-1.3-.367-2.75-.7-4.35-1-1.634-.3-3.134-.467-4.5-.5a3.512 3.512 0 0 0-1.3.149c-.434.101-.667.384-.7.851 0 .3.083.517.25.649.167.134.4.2.7.2h.899c.267-.033.534-.05.801-.05.5.066.983.2 1.449.4.467.166.917.366 1.351.6.434.2.899.4 1.399.6.434.167.934.317 1.5.45.434.066.9.15 1.4.25.5.066 1 .167 1.5.3.5.101.983.233 1.45.4.467.167.899.35 1.3.55.533.3.917.634 1.15 1 .233.367.333.733.3 1.101a3.078 3.078 0 0 1-.45 1.1 3.823 3.823 0 0 1-.9.9 7.742 7.742 0 0 1-1.3.6c-.5.1-.983.134-1.45.1a5.54 5.54 0 0 1-2-.699c-.6-.367-1.199-.801-1.8-1.301-.6-.533-1.2-1.017-1.8-1.449a7.816 7.816 0 0 0-1.9-1.101c-.5-.166-.933-.233-1.3-.2-.399.034-.684.167-.85.4-.2.233-.283.517-.25.85.033.334.217.717.55 1.15.267.3.684.583 1.25.85.533.267 1.134.517 1.8.75.667.2 1.316.367 1.95.5.634.167 1.167.301 1.6.4.4.066.801.167 1.2.3.434.134.816.283 1.15.45.333.134.6.333.8.6.2.233.283.517.25.851-.033.3-.15.5-.35.6-.2.101-.467.117-.801.05-.333-.1-.75-.216-1.25-.35-.5-.134-1.066-.283-1.699-.45-.4-.066-.801-.116-1.2-.149-.4-.067-.8-.117-1.2-.15-.4-.066-.783-.15-1.15-.25-.267-.1-.5-.217-.699-.35-.233-.134-.45-.25-.65-.351a1.557 1.557 0 0 0-.65-.25 1.64 1.64 0 0 0-.8 0c-.166.601.05 1.117.65 1.55.6.434 1.366.784 2.3 1.051.9.3 1.783.566 2.65.8.866.2 1.517.399 1.949.6a14.17 14.17 0 0 1 1.551 1.05c.466.334.883.7 1.25 1.101.333.399.583.816.75 1.25.166.399.233.816.199 1.25-.066.399-.383.6-.949.6-.567 0-1.267-.133-2.101-.399a17.925 17.925 0 0 1-2.6-1.15c-.9-.467-1.7-.95-2.4-1.45a13.334 13.334 0 0 1-1.05-1.2c-.4-.5-.783-.933-1.15-1.3-.366-.366-.699-.566-1-.6-.3-.066-.517.166-.649.7-.134.5-.033.983.3 1.449.333.434.783.834 1.35 1.2.567.367 1.134.7 1.7 1 .533.3.95.601 1.25.9.267.267.55.566.851.899.3.334.6.7.899 1.101.3.366.566.75.8 1.149.2.367.275.726.226 1.075-.037.313-.111.555-.226.726a1.199 1.199 0 0 1-.649.399c-.3.033-.601.033-.9 0-.3-.066-.649-.133-1.05-.2.067.112.134.229.2.351.2.366.366.733.5 1.1.1.367.116.717.05 1.05a1.69 1.69 0 0 1-.45.851l-.024.024c-.491.415-.949.573-1.375.476-.467-.101-.867-.367-1.2-.8-.367-.434-.7-.884-1-1.351-.267-.533-.5-.967-.7-1.3-.4-.7-.934-1.35-1.6-1.95a8.165 8.165 0 0 0-1.825-1.399c.478.804.886 1.588 1.225 2.35.4.9.634 1.667.7 2.3.033.634-.2.983-.7 1.05-.5 0-.934-.333-1.3-1-.366-.699-.7-1.517-1-2.449a53.775 53.775 0 0 0-1-2.601c-.366-.833-.767-1.383-1.2-1.649-.399.233-.533.55-.399.949.166.4.399.834.699 1.301.267.433.434.85.5 1.25 0 .399-.3.733-.899 1-.533.033-.9-.034-1.101-.2-.233-.2-.383-.483-.449-.851a14.29 14.29 0 0 0-.4-1.3c-.167-.467-.467-.95-.9-1.45a6.034 6.034 0 0 0-1.199-1c-.5-.3-1.084-.533-1.75-.699-.7-.2-1.467-.25-2.301-.15-.833.066-1.75.3-2.75.7-1 .399-2.066 1.033-3.199 1.899-1.167.867-2.384 2-3.65 3.4v.625h.05c.132.017.249.041.351.075.3.1.5.3.6.6.033.3-.033.733-.2 1.3-.2.534-.533 1.217-1 2.051-.934 2-1.5 3.583-1.7 4.75-.233 1.166-.183 2.05.15 2.649.333.533.884.884 1.65 1.05.733.167 1.616.217 2.649.15s2.134-.134 3.3-.2a24.635 24.635 0 0 1 3.5.05 9.981 9.981 0 0 1 3.25.851c1.034.467 1.917 1.233 2.65 2.3.533 1.4 1.15 2.566 1.85 3.5.667.866 1.384 1.55 2.15 2.05.733.5 1.5.867 2.3 1.101.8.234 1.617.383 2.45.449.8.067 1.6.15 2.4.25.8.067 1.583.2 2.35.4a6.473 6.473 0 0 1 2.1.9c.667.399 1.301 1.017 1.9 1.85 1.1 1.566 2.167 2.634 3.2 3.2 1 .566 1.983.833 2.95.8.966-.033 1.933-.15 2.899-.35a9.6 9.6 0 0 1 2.95-.15c1.1.267 2.583.283 4.45.05a59.24 59.24 0 0 0 5.6-1.1c1.9-.467 3.517-.9 4.851-1.3 1.333-.434 2.033-.65 2.1-.65 0-.033.167-.033.5 0 .366 0 .833.033 1.4.1.566.101 1.166.267 1.8.5.666.2 1.3.534 1.899 1 .601.434 1.117 1.017 1.551 1.75.433.7.716 1.584.85 2.65.1 1.066.017 2.35-.25 3.85-.333 1.467-.917 3.184-1.75 5.15-1.533 1.866-3.65 3.434-6.35 4.7-2.733 1.233-5.851 2.2-9.351 2.899-3.533.667-7.3 1.134-11.3 1.4-4.033.267-8.1.366-12.2.3a276.086 276.086 0 0 1-12.05-.45c-3.9-.267-7.5-.566-10.8-.899-3.3-.367-6.134-.7-8.5-1-2.4-.3-4.134-.533-5.2-.7-1.1-.2-3.017-.816-5.75-1.85a1887.838 1887.838 0 0 1-10.2-3.9c-4.066-1.566-8.684-3.25-13.85-5.05-5.167-1.8-10.733-3.55-16.7-5.25-6-1.7-12.25-3.2-18.75-4.5a187.156 187.156 0 0 0-19.9-2.851c-6.8-.566-13.566-.633-20.3-.199a96.033 96.033 0 0 0-19.8 3.35 779.083 779.083 0 0 0-19.95 5.85 4471.851 4471.851 0 0 0-20.75 6.301 956.6 956.6 0 0 1-20.75 6.1 548.235 548.235 0 0 1-20.15 5.25c-6.533 1.533-12.767 2.783-18.7 3.75-5.967.934-11.517 1.45-16.65 1.55-5.133.134-9.733-.25-13.8-1.149-4.1-.934-7.517-2.483-10.25-4.65-2.767-2.2-5.117-4.15-7.05-5.85-1.934-1.733-3.55-3.25-4.85-4.551-1.267-1.3-2.283-2.416-3.05-3.35-.767-.967-1.316-1.783-1.65-2.45-.333-.666-.533-1.2-.6-1.6-.1-.434-.117-.767-.05-1 .067-.267.133-.467.2-.601.066-.133.083-.216.05-.25-.167-.199-.233-.716-.2-1.55.034-.833.35-1.717.95-2.649.567-.967 1.617-1.733 3.15-2.301 1.533-.566 3.733-.683 6.6-.35 2.8.4 5.15 1.017 7.05 1.85a79.096 79.096 0 0 1 4.95 2.351c1.433.7 2.917 1.149 4.45 1.35 1.533.167 3.383-.184 5.55-1.05 2.167-.9 3.95-1.5 5.35-1.8 1.367-.3 2.433-.417 3.2-.351.733.067 1.25.184 1.55.351.267.166.4.267.4.3l.8.15c.5.033 1.2-.067 2.1-.301.867-.3 1.833-.916 2.9-1.85 1.034-1 2.1-2.5 3.2-4.5 1.067-2.066 2.367-3.667 3.9-4.8 1.467-1.167 2.934-2.017 4.4-2.55 1.467-.534 2.684-.867 3.65-1 .966-.134 1.483-.184 1.55-.15l.4.15c.3.066.7.149 1.2.25a8.707 8.707 0 0 0 1.65.05 8.655 8.655 0 0 0 1.9-.45c.667-.267 1.317-.684 1.95-1.25.633-.6 1.217-1.384 1.75-2.35.5-1 .917-2.25 1.25-3.75.333-1.5.55-3.301.65-5.4.033-.767.367-1.417 1-1.95.121-.113.246-.222.375-.325-1.195-1.276-2.32-2.317-3.375-3.125-1.133-.866-2.2-1.5-3.2-1.899-1-.4-1.917-.634-2.75-.7-.867-.1-1.633-.05-2.3.15a6.375 6.375 0 0 0-1.75.699c-.5.301-.9.634-1.2 1-.433.5-.733.983-.9 1.45-.167.467-.3.9-.4 1.3-.1.367-.25.65-.45.851-.2.166-.566.233-1.1.2-.633-.267-.934-.601-.9-1 .034-.4.2-.817.5-1.25.3-.467.534-.9.7-1.301.133-.399 0-.716-.4-.949-.467.267-.867.816-1.2 1.649-.333.8-.667 1.667-1 2.601-.3.933-.633 1.75-1 2.449-.4.667-.833 1-1.3 1-.367-.033-.583-.199-.65-.5-.067-.3-.05-.699.05-1.199.133-.5.333-1.051.6-1.65.267-.599.583-1.217.95-1.85.08-.151.163-.301.25-.45a7.591 7.591 0 0 0-2.4 2c-.4.434-.733.883-1 1.35l-.75 1.25c-.3.5-.617.967-.95 1.4-.367.399-.767.666-1.2.8-.433.1-.9-.066-1.4-.5-.267-.267-.417-.566-.45-.9a2.272 2.272 0 0 1 .05-1.05c.1-.366.267-.733.5-1.1.066-.122.133-.238.2-.351-.4.067-.767.134-1.1.2-.3.033-.583.033-.85 0a1.201 1.201 0 0 1-.65-.399c-.137-.165-.245-.406-.325-.726a3.711 3.711 0 0 1-.05-.225c.094-.281.219-.564.375-.851.233-.399.5-.783.8-1.149.267-.4.566-.767.9-1.101.3-.333.583-.633.85-.899.267-.3.683-.601 1.25-.9.566-.3 1.133-.633 1.7-1 .567-.366 1.017-.767 1.35-1.2.333-.466.434-.949.3-1.449-.133-.534-.35-.767-.65-.7-.3.033-.633.233-1 .6-.4.367-.783.8-1.15 1.3-.4.467-.75.867-1.05 1.2-.467.334-.983.667-1.55 1-.566.3-1.133.601-1.7.9-.6.267-1.184.5-1.75.7-.567.166-1.067.283-1.5.35-.467.066-.833.066-1.1 0-.267-.1-.417-.283-.45-.55a2.682 2.682 0 0 1 .2-1.25c.167-.434.417-.851.75-1.25.333-.4.75-.767 1.25-1.101.467-.366.983-.716 1.55-1.05.434-.2 1.083-.399 1.95-.6.833-.233 1.717-.5 2.65-.8.934-.267 1.7-.617 2.3-1.051.566-.433.783-.949.65-1.55-.567-.1-1.05-.017-1.45.25-.433.233-.883.467-1.35.7-.367.1-.75.184-1.15.25-.4.033-.8.083-1.2.15-.434.033-.833.083-1.2.149-1.3.334-2.283.601-2.95.8-.7.167-1.083-.05-1.15-.649-.033-.667.317-1.15 1.05-1.45a9.738 9.738 0 0 1 2.35-.75c.434-.1.967-.233 1.6-.4.6-.133 1.25-.3 1.95-.5a22.33 22.33 0 0 0 1.8-.75c.533-.267.95-.55 1.25-.85.3-.434.483-.816.55-1.15a1.087 1.087 0 0 0-.25-.85c-.2-.233-.483-.366-.85-.4-.367-.033-.8.034-1.3.2-.667.267-1.3.634-1.9 1.101-.633.433-1.233.916-1.8 1.449-.6.5-1.2.934-1.8 1.301-.633.366-1.3.6-2 .699-.5.034-.983 0-1.45-.1a7.7 7.7 0 0 1-1.3-.6 3.842 3.842 0 0 1-.9-.9c-.267-.366-.417-.733-.45-1.1-.034-.367.066-.733.3-1.101.2-.366.583-.7 1.15-1 .8-.434 1.717-.75 2.75-.95 1-.233 1.967-.416 2.9-.55a15.688 15.688 0 0 0 1.5-.45c.467-.199.934-.399 1.4-.6a9.71 9.71 0 0 1 1.35-.6c.434-.2.917-.334 1.45-.4.533 0 1.1.017 1.7.05.6 0 .917-.283.95-.85-.033-.233-.1-.417-.2-.55a.792.792 0 0 0-.5-.301 5.972 5.972 0 0 0-.65-.149 2.143 2.143 0 0 0-.65 0c-.667 0-1.383.05-2.15.149-.767.067-1.55.184-2.35.351-.8.133-1.566.3-2.3.5-.733.166-1.417.333-2.05.5-.433.1-.783.116-1.05.05-.267-.1-.467-.25-.6-.45-.133-.2-.2-.434-.2-.7 0-.266.066-.55.2-.85.134-.3.35-.583.65-.85.267-.301.6-.551 1-.75.5-.267 1-.45 1.5-.551a5.454 5.454 0 0 1 1.5-.199c.5-.034 1.05-.051 1.65-.051.433 0 1.05.034 1.85.101.8.033 1.6.017 2.4-.05.767-.067 1.3-.25 1.6-.551.3-.3.184-.8-.35-1.5a3.851 3.851 0 0 0-1.15-.85 8.584 8.584 0 0 0-1.55-.55 37.63 37.63 0 0 0-1.65-.351c-.533-.1-1.017-.183-1.45-.25a2.996 2.996 0 0 1-.85-.25c-.333-.166-.65-.333-.95-.5a5.166 5.166 0 0 1-.8-.649c-.233-.2-.383-.4-.45-.601-.1-.199-.083-.366.05-.5.133-.166.4-.283.8-.35a64.675 64.675 0 0 1 1.6-.15c.434-.033.8-.033 1.1 0 .3 0 .583.017.85.051l.8.1c.3.066.7.2 1.2.4.433.166.917.333 1.45.5.5.166.966.233 1.4.199a1.237 1.237 0 0 0 1-.6 13.94 13.94 0 0 0-1.7-1.45c-.6-.433-1.233-.85-1.9-1.25a40.988 40.988 0 0 0-2.05-1.149c-.467-.233-1-.483-1.6-.75-.6-.267-1.15-.567-1.65-.9-.534-.366-.934-.767-1.2-1.2-.267-.5-.3-1.066-.1-1.7a4.239 4.239 0 0 1 1.6.101c.467.1.933.283 1.4.55.467.2.917.434 1.35.7.4.267.833.517 1.3.75.367.166.767.316 1.2.45l1.3.399c.317.105.634.223.95.351.083.031.167.065.25.1.4.134.8.283 1.2.45a8.407 8.407 0 0 1-1.3-.95 23.256 23.256 0 0 1-1.6-1.55 37.721 37.721 0 0 0-1.65-1.65 24.41 24.41 0 0 0-1.45-1.35 34.933 34.933 0 0 1-1.65-1.4 22.974 22.974 0 0 1-1.85-1.75c-.6-.633-1.017-1.217-1.25-1.75-.267-.566-.233-1 .1-1.3.367-.3 1.1-.184 2.2.35 1.067.534 2.333 1.317 3.8 2.351.572.39 1.147.798 1.725 1.225a9.702 9.702 0 0 0-1.175-2.925 15.61 15.61 0 0 0-1.75-2.45 24.505 24.505 0 0 0-2.05-2.1c-.5-.4-1.066-.9-1.7-1.5a14.205 14.205 0 0 1-1.8-1.95c-.566-.733-.9-1.45-1-2.15-.133-.733.1-1.433.7-2.1.9.4 1.75.816 2.55 1.25a16.677 16.677 0 0 1 4.15 3.35 16.255 16.255 0 0 1 1.8 2.301c.367.5.733.916 1.1 1.25.333.3.7.583 1.1.85.367.267.75.533 1.15.8.367.267.767.601 1.2 1 .188.188.421.463.7.825a83.72 83.72 0 0 1 .9 1.375l.025.05a5.734 5.734 0 0 0-.575-1.7 13.707 13.707 0 0 0-1.6-2.399c-.633-.8-1.283-1.55-1.95-2.25-.7-.733-1.3-1.417-1.8-2.05a37.968 37.968 0 0 0-2.1-2.5 159.1 159.1 0 0 0-2.2-2.45c-.733-.8-1.45-1.617-2.15-2.45a49.69 49.69 0 0 1-2-2.65 3.223 3.223 0 0 1-.4-.699 8.47 8.47 0 0 1-.45-.95 4.354 4.354 0 0 1-.25-1.05c-.067-.334-.05-.634.05-.9.067-.267.25-.45.55-.55.267-.101.667-.101 1.2 0 .3.033.617.217.95.55.3.3.6.667.9 1.1.267.4.55.817.85 1.25.267.434.533.801.8 1.101.333.399.683.816 1.05 1.25.333.399.684.816 1.05 1.25.367.399.767.783 1.2 1.149.233.233.534.551.9.95.367.367.75.767 1.15 1.2.367.4.733.75 1.1 1.05.144.118.293.218.45.3a.55.55 0 0 1 .075.025c.226.105.468.173.725.2a31.246 31.246 0 0 0-.5-.726c-1-1.433-2.1-2.8-3.3-4.1a44.032 44.032 0 0 1-3.4-4.15c-1.033-1.433-1.817-3.05-2.35-4.85a4.886 4.886 0 0 1-.2-.7c-.067-.3-.133-.649-.2-1.05-.1-.4-.167-.8-.2-1.2a8.023 8.023 0 0 1-.1-1.2c0-.366.033-.683.1-.949.067-.301.2-.5.4-.601.333-.233.683-.267 1.05-.1.367.166.717.434 1.05.8.3.333.583.7.85 1.1.233.367.4.667.5.9.267.533.55 1.184.85 1.95.267.733.583 1.5.95 2.3.333.767.733 1.45 1.2 2.05.434.601.967.983 1.6 1.15a53.073 53.073 0 0 1-.2-.45c-.267-.533-.483-1-.65-1.4-.2-.433-.367-.783-.5-1.05l-.8-1.8a97.719 97.719 0 0 1-1.8-3.8 42.31 42.31 0 0 0-.55-1.3c-.267-.534-.5-1.101-.7-1.7a6.294 6.294 0 0 1-.4-1.8c-.033-.601.083-1.084.35-1.45.267-.334.617-.55 1.05-.65.4-.1.817-.066 1.25.101.4.1.733.316 1 .649.109.136.2.286.275.45a17.03 17.03 0 0 1-.175-.7c-.367-1.467-.066-2.366.9-2.7.5.101.983.301 1.45.601.467.267.892.608 1.275 1.024a6.788 6.788 0 0 1-.075-.574 4.034 4.034 0 0 1 .05-1.101c.033-.399.1-.75.2-1.05.066-.333.2-.566.4-.7a.57.57 0 0 1 .6-.149c.131.019.281.094.45.225.081.054.164.12.25.2.037.073.07.148.1.225a782.786 782.786 0 0 1 3.7 7.5c1.133 2.3 2.117 4.367 2.95 6.2a70.62 70.62 0 0 1 1.575 3.65c.117-.167.191-.334.225-.5v-.5c-.034-.2-.067-.45-.1-.75a6.615 6.615 0 0 1 0-1.15c-.1-.9-.25-1.65-.45-2.25-.2-.634-.417-1.267-.65-1.9a24.2 24.2 0 0 1-.9-2.55c-.333-1.066-.7-2.45-1.1-4.149-.167-1.834-.117-2.9.15-3.2.233-.367.55-.3.95.2.4.466.767 1 1.1 1.6l.5 1 3.225 5.375a36.086 36.086 0 0 0-.125-.825 115.21 115.21 0 0 1-.65-3.75c-.267-1.467-.5-2.85-.7-4.149-.233-1.334-.367-2.301-.4-2.9-.066-.4-.066-.8 0-1.2.067-.467.167-.883.3-1.25.133-.366.3-.666.5-.899.2-.233.433-.334.7-.301.233.034.5.25.8.65.3.4.617 1.033.95 1.9.467 1.3.9 2.55 1.3 3.75.096.312.188.621.275.925l-.175-.825-.025-.125a13.446 13.446 0 0 1-.225-1.675c-.067-.566-.1-1.05-.1-1.45 0-.634.017-1.366.05-2.2 0-.899.083-1.616.25-2.149.133-.567.45-.717.95-.45.467.267 1.191 1.25 2.175 2.95a2.93 2.93 0 0 1 .125-.801c.1-.433.35-.75.75-.949.434-.233.833-.284 1.2-.15.333.1.617.316.85.65.233.333.433.716.6 1.149.167.4.309.775.425 1.125a34.65 34.65 0 0 1 1.975 7.726c.4 2.699.55 5.399.45 8.1-.066 2.7-.3 5.333-.7 7.9a86.508 86.508 0 0 1-3.45 13.65c-.667 1.9-1.283 3.566-1.85 5-.6 1.4-1.083 2.5-1.45 3.3l-.55 1.15c-.066.066-.316.95-.75 2.65-.433 1.699-.783 3.899-1.05 6.6-.267 2.701-.15 5.533.35 8.5.466 2.934 1.617 5.684 3.45 8.25l-.35.3a.28.28 0 0 0 .05.075 29.213 29.213 0 0 0 1.9 1.825c1.333 1.133 2.633 2.1 3.9 2.899 1.267.767 2.417 1.4 3.45 1.9 1.033.467 1.85.816 2.45 1.05.6.2.917.3.95.3l.125.4a4.07 4.07 0 0 1 1.175-.25c.867-.066 2.017.184 3.45.75a9.127 9.127 0 0 0 3.55.6c1.233 0 2.467-.216 3.7-.649 1.2-.434 2.333-1.05 3.4-1.851a11.954 11.954 0 0 0 2.7-2.949 12.66 12.66 0 0 0 1.6-3.9c.3-1.467.316-3.05.05-4.75-.033-.8.1-1.4.4-1.8.3-.4.733-.65 1.3-.75.566-.101 1.267-.15 2.1-.15.767 0 1.633.017 2.6.05a33.744 33.744 0 0 0 3.05-.25c1.066-.166 2.183-.483 3.35-.949 1.1-.467 2.217-1.15 3.35-2.051 1.133-.899 2.25-2.1 3.35-3.6.3-.733.833-1.384 1.6-1.95.733-.566 1.667-1.066 2.8-1.5 1.133-.467 2.417-.833 3.85-1.1 1.4-.3 2.883-.517 4.45-.65a45.912 45.912 0 0 1 4.85-.149c1.633 0 3.284.116 4.95.35 2.433.267 4.733.25 6.9-.05 2.167-.3 4.083-.717 5.75-1.25 1.633-.533 2.934-1.033 3.9-1.5.934-.467 1.417-.7 1.45-.7-.033-.033.083-.184.35-.45.233-.333.601-.733 1.101-1.2.467-.466 1.066-.949 1.8-1.449.7-.534 1.533-1.017 2.5-1.45.967-.433 2.05-.767 3.25-1 1.2-.267 2.517-.351 3.95-.25 1.434.066 2.983.366 4.649.899 1.667.5 3.467 1.301 5.4 2.4a211.55 211.55 0 0 0 4.85 2.7c1.334.733 2.45 1.3 3.351 1.7.866.399 1.583.699 2.149.899.534.167.95.25 1.25.25.301 0 .534-.05.7-.149.134-.101.267-.217.4-.351.133-.133.283-.25.45-.35.199-.134.483-.2.85-.2.767-.267 1.566-.283 2.4-.05.8.2 1.649.583 2.55 1.149a46.615 46.615 0 0 1 2.899 2c1 .767 2.084 1.551 3.25 2.351 1.167.767 2.434 1.5 3.801 2.2 1.333.666 2.8 1.216 4.399 1.649 1.601.4 3.316.601 5.15.601 1.866-.034 3.883-.334 6.05-.9.967-.3 1.884-.267 2.75.1.866.334 1.717.834 2.55 1.5l2.4 1.9c.767.6 1.55 1.017 2.35 1.25.8.167 1.7.2 2.7.1.967-.133 1.95-.183 2.95-.149.967 0 1.866.283 2.7.85.833.5 1.533 1.483 2.1 2.95.467 1.533.85 3.3 1.15 5.3.3 1.967.767 3.8 1.399 5.5.601 1.7 1.634 2.917 3.101 3.65 1.433.7 3.55.55 6.35-.45 2.767-1.066 4.967-1.717 6.6-1.95 1.667-.3 2.934-.316 3.801-.05.833.233 1.466.6 1.899 1.1.094.101.185.2.275.301l.325-.301c.033 0 .35-.1.949-.3a51.748 51.748 0 0 0 2.45-1.05 42.726 42.726 0 0 0 3.45-1.9c1.267-.8 2.566-1.767 3.9-2.899a29.458 29.458 0 0 0 1.899-1.825.259.259 0 0 0 .05-.075l-.35-.3c1.8-2.566 2.95-5.316 3.45-8.25.5-2.967.616-5.8.35-8.5s-.616-4.9-1.05-6.6c-.467-1.7-.717-2.584-.75-2.65-.033 0-.217-.384-.55-1.15-.367-.8-.851-1.899-1.45-3.3-.6-1.434-1.217-3.1-1.85-5a86.022 86.022 0 0 1-1.9-6.35 65.31 65.31 0 0 1-1.55-7.3c-.4-2.567-.634-5.2-.7-7.9-.1-2.7.05-5.4.45-8.1a34.597 34.597 0 0 1 1.975-7.726c.084-.35.209-.725.375-1.125.167-.434.384-.816.65-1.149.233-.334.517-.551.85-.65.334-.134.733-.083 1.2.15.366.199.616.517.75.949.019.082.035.165.05.25.027.177.044.36.05.551l.226-.375a6.74 6.74 0 0 0 .149-.226c.842-1.333 1.467-2.116 1.875-2.35.467-.267.784-.117.95.45.167.533.25 1.25.25 2.149v2.2c0 .4-.017.884-.05 1.45-.062.499-.138 1.058-.225 1.675a1.063 1.063 0 0 0-.025.125v.025l-.1.425c-.007.05-.015.1-.025.149l.049-.155zm-.825 2.7a66.143 66.143 0 0 0-.6 2.3l-.2.649a3.26 3.26 0 0 0 .101-.25c.199-.6.399-1.216.6-1.85.2-.667.384-1.333.55-2 .116-.485.225-.952.325-1.4a55.444 55.444 0 0 0-.776 2.551zm3.5 6.55zm13.3-6.45c-.02.122-.036.238-.051.35a7.214 7.214 0 0 1-1 2.2c-.5.7-.916 1.417-1.25 2.15a23.288 23.288 0 0 0-.949 2.5 157.36 157.36 0 0 1-1.051 2.85 10.78 10.78 0 0 0 0 0c.367-.967.717-1.916 1.051-2.85.3-.934.616-1.767.949-2.5.334-.733.75-1.45 1.25-2.15.467-.7.801-1.434 1-2.2.015-.112.032-.228.051-.35zm3.45 1.575c-.036.15-.078.301-.125.45-.05.155-.101.313-.149.475-.407 1.126-.966 2.376-1.675 3.75-1.067 2-2.15 3.95-3.25 5.85-1.101 1.867-1.934 3.384-2.5 4.551.566-1.167 1.399-2.684 2.5-4.551 1.1-1.899 2.183-3.85 3.25-5.85.709-1.374 1.268-2.624 1.675-3.75.049-.161.1-.319.149-.475.047-.149.089-.3.125-.45zm-1.75 14.35c-.18.41-.38.835-.6 1.275-.3.6-.6 1.217-.9 1.85l-.899 1.8c-.334.567-.65 1.101-.95 1.601a18.079 18.079 0 0 0 0 0c.3-.5.616-1.033.95-1.601.3-.6.6-1.199.899-1.8.301-.633.601-1.25.9-1.85.22-.44.42-.865.6-1.275zm-20.75 49.875a29.76 29.76 0 0 0 1.851-2.149c1.2-1.534 2.267-3.284 3.2-5.25.899-2 1.566-4.233 2-6.7.399-2.467.483-5.2.25-8.2-.233-2.967-.434-5.6-.601-7.9-.2-2.3-.316-4.35-.35-6.149-.066-1.8-.033-3.45.1-4.95.101-1.5.3-2.95.601-4.35a29.746 29.746 0 0 0 0 0c-.301 1.399-.5 2.85-.601 4.35-.133 1.5-.166 3.15-.1 4.95.033 1.8.149 3.85.35 6.149.167 2.301.367 4.934.601 7.9.233 3 .149 5.733-.25 8.2-.434 2.467-1.101 4.7-2 6.7-.934 1.966-2 3.716-3.2 5.25a30.013 30.013 0 0 1-1.851 2.149zm19.1-40.475zm-2.475 11.2a8.983 8.983 0 0 0-.274.475 4.415 4.415 0 0 0-.15.3c-.118.247-.201.48-.25.7-.1.3-.116.55-.05.75-.066-.2-.05-.45.05-.75.049-.22.132-.453.25-.7.232-.211.374-.469.424-.775zm-.975 7.525a793.555 793.555 0 0 0 0 0zm2.8 33.299c.566.267 1.117.584 1.65.95.5.367.983.783 1.45 1.25l1.35 1.351 1.35 1.35a14.167 14.167 0 0 0 0 0l-1.35-1.35-1.35-1.351c-.467-.467-.95-.883-1.45-1.25a11.835 11.835 0 0 0-1.65-.95zM294.39 5.578c.015.21.015.426 0 .649a7.847 7.847 0 0 1-.25 1.55c-.133.467-.25.884-.35 1.25-.2.534-.384 1.034-.55 1.5a16.86 16.86 0 0 0 0 0c.166-.466.35-.966.55-1.5.1-.366.217-.783.35-1.25.134-.5.217-1.017.25-1.55a5.018 5.018 0 0 0 0-.649zm1.45 11.199zm-14.475 71.301c.328.366.637.733.925 1.1.2.866.467 1.733.8 2.6.3.834.65 1.634 1.05 2.4.4.767.851 1.467 1.351 2.1.5.634 1.033 1.184 1.6 1.65.601.434 1.233.75 1.9.95.666.2 1.383.267 2.149.2a5.71 5.71 0 0 1-2.149-.2c-.667-.2-1.3-.517-1.9-.95a10.83 10.83 0 0 1-1.6-1.65c-.5-.633-.95-1.333-1.351-2.1a19.48 19.48 0 0 1-1.05-2.4c-.333-.866-.6-1.733-.8-2.6a22.492 22.492 0 0 0-.925-1.1zm31.75 7.5a3.16 3.16 0 0 0-.15-.226 2.322 2.322 0 0 1 0 0c.054.073.103.148.15.226zM57.89 89.277c-.6.267-1.15.584-1.65.95-.5.367-.983.783-1.45 1.25-.467.434-.917.884-1.35 1.351-.467.433-.917.883-1.35 1.35l-.7.7a13.558 13.558 0 0 1 0 0l.7-.7c.434-.467.883-.917 1.35-1.35.434-.467.883-.917 1.35-1.351.467-.467.95-.883 1.45-1.25.5-.366 1.05-.683 1.65-.95zM76.315 3.578c-.011.208-.003.425.025.649.034.533.117 1.05.25 1.55.1.467.217.884.35 1.25.267.801.533 1.534.8 2.2.267.667.566 1.334.9 2l1.75 3.75-1.75-3.75a26.468 26.468 0 0 1-.9-2 38.748 38.748 0 0 1-.8-2.2 9.504 9.504 0 0 1-.35-1.25 7.997 7.997 0 0 1-.25-1.55 3.672 3.672 0 0 1-.025-.649zm-2.9 5.925c.087.377.178.769.275 1.175.133.667.3 1.333.5 2 .2.634.417 1.25.65 1.85l.15.426-.15-.426-.1-.399a149.17 149.17 0 0 1-.65-2.3 94.695 94.695 0 0 0-.675-2.326zm-19.55 4.175c.075.24.158.49.25.75.384 1.127.942 2.377 1.675 3.75 1.033 2 2.1 3.95 3.2 5.85 1.1 1.867 1.933 3.384 2.5 4.551-.567-1.167-1.4-2.684-2.5-4.551-1.1-1.899-2.167-3.85-3.2-5.85-.732-1.373-1.291-2.623-1.675-3.75-.092-.26-.175-.51-.25-.75zm3.45-1.776c.021.136.046.261.075.375.066.4.2.784.4 1.15.167.333.367.684.6 1.05.2.367.417.717.65 1.05l.6 1.101c.3.733.617 1.566.95 2.5.3.934.633 1.883 1 2.85a10.748 10.748 0 0 1 0 0c-.366-.967-.7-1.916-1-2.85a58.618 58.618 0 0 0-.95-2.5l-.6-1.101a11.07 11.07 0 0 1-.65-1.05 11.653 11.653 0 0 1-.6-1.05c-.2-.366-.333-.75-.4-1.15a4.005 4.005 0 0 1-.075-.375zm13.325 6.476c-.023-.046-.082-.321-.175-.825.094.504.152.779.175.825zm5.7 59.35a30.003 30.003 0 0 1-1.85-2.149c-1.2-1.534-2.25-3.284-3.15-5.25-.933-2-1.6-4.233-2-6.7-.433-2.467-.533-5.2-.3-8.2.233-2.967.45-5.6.65-7.9.167-2.3.283-4.35.35-6.149.033-1.8 0-3.45-.1-4.95-.133-1.5-.35-2.95-.65-4.35a33.908 33.908 0 0 1 0 0c.3 1.399.517 2.85.65 4.35.1 1.5.133 3.15.1 4.95-.067 1.8-.183 3.85-.35 6.149a963.92 963.92 0 0 0-.65 7.9c-.233 3-.133 5.733.3 8.2.4 2.467 1.067 4.7 2 6.7.9 1.966 1.95 3.716 3.15 5.25.598.763 1.215 1.48 1.85 2.149zm-20.8-49.85c.184.4.383.816.6 1.25.267.6.566 1.217.9 1.85.3.601.617 1.2.95 1.8.3.567.6 1.101.9 1.601.3.5.583.934.85 1.3.233.366.466.65.7.85-.233-.199-.467-.483-.7-.85-.267-.366-.55-.8-.85-1.3-.3-.5-.6-1.033-.9-1.601-.333-.6-.65-1.199-.95-1.8a31.407 31.407 0 0 1-.9-1.85c-.217-.434-.416-.85-.6-1.25zm1.7 9.375zm3.2 13.425c.067-.267.033-.6-.1-1a5.454 5.454 0 0 1 0 0c.133.4.167.733.1 1zm.25 5.3a793.555 793.555 0 0 1 0 0zm-3.1 37.65c.046-.082.096-.165.15-.25a14.103 14.103 0 0 0 0 0 5.329 5.329 0 0 0-.15.25zm20.825 2.524a.195.195 0 0 0 .025-.024 10.305 10.305 0 0 1 1.9-1.2c.9-.467 1.8-1 2.7-1.6a8.678 8.678 0 0 0 2.25-2.15c.533-.9 1.017-1.733 1.45-2.5.433-.8.917-1.434 1.45-1.9-.533.467-1.017 1.101-1.45 1.9-.434.767-.917 1.6-1.45 2.5-.6.833-1.35 1.55-2.25 2.15-.9.6-1.8 1.133-2.7 1.6-.731.366-1.365.766-1.9 1.2a.115.115 0 0 1-.025.024z" fill="#020202" fill-rule="evenodd"/><path d="M297.64 10.578c.367-1.2.801-2.45 1.301-3.75.466-1.267.916-2.051 1.35-2.351.4-.3.75-.267 1.05.101.3.366.533.866.7 1.5.134.633.184 1.25.15 1.85-.067.6-.2 1.566-.4 2.9-.233 1.3-.467 2.683-.7 4.149-.267 1.467-.5 2.717-.7 3.75-.043.268-.084.501-.125.7l3.176-5.25c.033-.066.216-.4.55-1 .3-.6.666-1.134 1.1-1.6.367-.5.684-.567.95-.2.233.3.267 1.366.1 3.2-.399 1.699-.75 3.083-1.05 4.149-.333 1-.633 1.851-.899 2.55-.267.634-.5 1.267-.7 1.9-.2.6-.334 1.35-.4 2.25-.033.467-.05.85-.05 1.15-.033.3-.05.55-.05.75a1.275 1.275 0 0 0 0 .5c0 .087.017.179.05.274l.1.175a.532.532 0 0 1 .075.075c.022-.056.047-.114.075-.175.014-.056.03-.114.05-.175a75.758 75.758 0 0 1 1.45-3.325c.833-1.833 1.816-3.9 2.95-6.2 1.085-2.234 2.335-4.793 3.75-7.675.102-.1.201-.183.3-.25.165-.131.314-.206.45-.225a.673.673 0 0 1 .649.149c.167.134.301.367.4.7.066.3.134.65.2 1.05.033.367.033.733 0 1.101-.02.213-.036.413-.05.6.233-.3.5-.55.8-.75.267-.233.566-.417.899-.55a3.278 3.278 0 0 1 1-.351c.934.334 1.233 1.233.9 2.7-.037.149-.079.3-.125.45l-.025.075a.58.58 0 0 0 .051-.075c.166-.3.399-.517.699-.65a2.09 2.09 0 0 1 .95-.35c.334-.033.667.017 1 .15.3.1.566.283.8.55.267.366.384.85.351 1.45a9.772 9.772 0 0 1-.4 1.8c-.2.6-.416 1.166-.649 1.7-.267.533-.467.966-.601 1.3a340.23 340.23 0 0 0-2.6 5.6c-.134.267-.283.617-.45 1.05l-.7 1.4a8.177 8.177 0 0 1-.2.425c.667-.149 1.217-.524 1.65-1.125.434-.6.833-1.283 1.2-2.05.333-.8.649-1.566.95-2.3.3-.767.583-1.417.85-1.95.066-.167.167-.35.3-.55.134-.233.3-.483.5-.75.167-.267.367-.5.601-.7a2.16 2.16 0 0 1 .649-.6c.233-.167.467-.267.7-.301.233-.033.483.034.75.2.134.101.25.3.35.601.067.267.101.583.101.949-.033.367-.066.767-.101 1.2-.033.4-.083.8-.149 1.2a35.483 35.483 0 0 0-.4 1.75c-.566 1.8-1.366 3.417-2.399 4.85a57.52 57.52 0 0 1-3.4 4.15c-1.2 1.3-2.3 2.667-3.3 4.1-.171.24-.338.481-.5.726.243-.028.477-.095.7-.2l.05-.025c.017-.008.033-.017.05-.024.137-.077.271-.169.4-.275.366-.3.75-.649 1.149-1.05.4-.434.767-.833 1.101-1.2.366-.399.683-.717.949-.95a21.275 21.275 0 0 0 1.7-1.8 86.347 86.347 0 0 1 1.601-1.85c.267-.3.533-.667.8-1.101.267-.433.55-.85.85-1.25.267-.433.566-.8.9-1.1.3-.333.616-.517.95-.55.533-.101.933-.101 1.199 0 .267.1.45.283.551.55.1.267.116.566.05.9-.066.333-.15.683-.25 1.05a8.47 8.47 0 0 1-.45.95c-.134.3-.267.533-.4.699a51.738 51.738 0 0 1-4.199 5.101c-1.5 1.6-2.917 3.25-4.25 4.95-.5.633-1.101 1.316-1.801 2.05-.666.7-1.333 1.45-2 2.25a13.744 13.744 0 0 0-1.6 2.399 5.947 5.947 0 0 0-.525 1.676c.119-.196.244-.388.375-.575a8.145 8.145 0 0 1 .7-.95c.2-.3.384-.533.55-.7.4-.399.801-.733 1.2-1 .4-.267.783-.533 1.15-.8.366-.267.733-.55 1.1-.85.367-.334.733-.75 1.101-1.25a16.111 16.111 0 0 1 1.8-2.301c.6-.699 1.25-1.316 1.95-1.85a16.116 16.116 0 0 1 2.199-1.5c.801-.434 1.65-.85 2.551-1.25.6.667.833 1.366.699 2.1-.133.7-.466 1.417-1 2.15-.533.7-1.133 1.35-1.8 1.95-.666.6-1.233 1.1-1.7 1.5a17.488 17.488 0 0 0-2.05 2.1 15.723 15.723 0 0 0-1.75 2.45 9.702 9.702 0 0 0-1.175 2.925 55.898 55.898 0 0 1 1.725-1.225c1.467-1.033 2.75-1.816 3.851-2.351 1.066-.533 1.8-.649 2.2-.35.3.3.333.733.1 1.3-.267.533-.7 1.117-1.3 1.75a22.823 22.823 0 0 1-1.851 1.75l-1.649 1.4c-.467.366-.95.816-1.45 1.35-.533.5-1.083 1.05-1.65 1.65a65.59 65.59 0 0 1-1.6 1.55 13.21 13.21 0 0 1-1.3.95c.399-.167.8-.316 1.2-.45.073-.033.148-.067.225-.1h.025c.295-.13.611-.246.949-.351.434-.133.867-.267 1.301-.399.399-.134.8-.284 1.199-.45.867-.5 1.75-.983 2.65-1.45.866-.5 1.866-.717 3-.65.2.634.167 1.2-.1 1.7-.267.434-.65.834-1.15 1.2-.533.333-1.1.634-1.7.9-.6.267-1.133.517-1.6.75a41.562 41.562 0 0 0-3 1.75c-1 .6-1.884 1.3-2.65 2.1a1.24 1.24 0 0 0 1 .6c.434.034.9-.033 1.4-.199a79.9 79.9 0 0 0 1.45-.5c.466-.2.866-.334 1.199-.4.5-.1 1.051-.15 1.65-.15.566-.033 1.467.017 2.7.15.399.066.666.184.8.35.1.134.116.301.05.5-.1.2-.25.4-.45.601-.233.233-.5.45-.8.649-.333.167-.649.334-.95.5-.3.134-.583.217-.85.25-.934.134-1.967.334-3.1.601-1.167.267-2.067.733-2.7 1.399-.566.7-.684 1.2-.351 1.5.301.301.834.483 1.601.551.767.066 1.566.083 2.399.05a24.402 24.402 0 0 1 1.851-.101c.866-.033 1.666 0 2.399.101.733.1 1.483.333 2.25.7.4.199.733.449 1 .75.267.267.483.55.65.85.134.3.2.583.2.85s-.066.5-.2.7c-.134.2-.333.351-.6.45-.301.066-.65.05-1.051-.05-1.3-.367-2.75-.7-4.35-1-1.634-.3-3.134-.467-4.5-.5a3.512 3.512 0 0 0-1.3.149c-.434.101-.667.384-.7.851 0 .3.083.517.25.649.167.134.4.2.7.2h.899c.267-.033.534-.05.801-.05.5.066.983.2 1.449.4.467.166.917.366 1.351.6.434.2.899.4 1.399.6.434.167.934.317 1.5.45.434.066.9.15 1.4.25.5.066 1 .167 1.5.3.5.101.983.233 1.45.4.467.167.899.35 1.3.55.533.3.917.634 1.15 1 .233.367.333.733.3 1.101a3.078 3.078 0 0 1-.45 1.1 3.823 3.823 0 0 1-.9.9 7.742 7.742 0 0 1-1.3.6c-.5.1-.983.134-1.45.1a5.54 5.54 0 0 1-2-.699c-.6-.367-1.199-.801-1.8-1.301-.6-.533-1.2-1.017-1.8-1.449a7.816 7.816 0 0 0-1.9-1.101c-.5-.166-.933-.233-1.3-.2-.399.034-.684.167-.85.4-.2.233-.283.517-.25.85.033.334.217.717.55 1.15.267.3.684.583 1.25.85.533.267 1.134.517 1.8.75.667.2 1.316.367 1.95.5.634.167 1.167.301 1.6.4.4.066.801.167 1.2.3.434.134.816.283 1.15.45.333.134.6.333.8.6.2.233.283.517.25.851-.033.3-.15.5-.35.6-.2.101-.467.117-.801.05-.333-.1-.75-.216-1.25-.35-.5-.134-1.066-.283-1.699-.45-.4-.066-.801-.116-1.2-.149-.4-.067-.8-.117-1.2-.15-.4-.066-.783-.15-1.15-.25-.267-.1-.5-.217-.699-.35-.233-.134-.45-.25-.65-.351a1.557 1.557 0 0 0-.65-.25 1.64 1.64 0 0 0-.8 0c-.166.601.05 1.117.65 1.55.6.434 1.366.784 2.3 1.051.9.3 1.783.566 2.65.8.866.2 1.517.399 1.949.6a14.17 14.17 0 0 1 1.551 1.05c.466.334.883.7 1.25 1.101.333.399.583.816.75 1.25.166.399.233.816.199 1.25-.066.399-.383.6-.949.6-.567 0-1.267-.133-2.101-.399a17.925 17.925 0 0 1-2.6-1.15c-.9-.467-1.7-.95-2.4-1.45a13.334 13.334 0 0 1-1.05-1.2c-.4-.5-.783-.933-1.15-1.3-.366-.366-.699-.566-1-.6-.3-.066-.517.166-.649.7-.134.5-.033.983.3 1.449.333.434.783.834 1.35 1.2.567.367 1.134.7 1.7 1 .533.3.95.601 1.25.9.267.267.55.566.851.899.3.334.6.7.899 1.101.3.366.566.75.8 1.149.2.367.275.726.226 1.075-.037.313-.111.555-.226.726a1.199 1.199 0 0 1-.649.399c-.3.033-.601.033-.9 0-.3-.066-.649-.133-1.05-.2.067.112.134.229.2.351.2.366.366.733.5 1.1.1.367.116.717.05 1.05a1.69 1.69 0 0 1-.45.851l-.024.024c-.491.415-.949.573-1.375.476-.467-.101-.867-.367-1.2-.8-.367-.434-.7-.884-1-1.351-.267-.533-.5-.967-.7-1.3-.4-.7-.934-1.35-1.6-1.95a8.165 8.165 0 0 0-1.825-1.399c.478.804.886 1.588 1.225 2.35.4.9.634 1.667.7 2.3.033.634-.2.983-.7 1.05-.5 0-.934-.333-1.3-1-.366-.699-.7-1.517-1-2.449a53.775 53.775 0 0 0-1-2.601c-.366-.833-.767-1.383-1.2-1.649-.399.233-.533.55-.399.949.166.4.399.834.699 1.301.267.433.434.85.5 1.25 0 .399-.3.733-.899 1-.533.033-.9-.034-1.101-.2-.233-.2-.383-.483-.449-.851a14.29 14.29 0 0 0-.4-1.3c-.167-.467-.467-.95-.9-1.45a6.034 6.034 0 0 0-1.199-1c-.5-.3-1.084-.533-1.75-.699-.7-.2-1.467-.25-2.301-.15-.833.066-1.75.3-2.75.7-1 .399-2.066 1.033-3.199 1.899-1.167.867-2.384 2-3.65 3.4m-.005.625h.05c.132.017.249.041.351.075.3.1.5.3.6.6.033.3-.033.733-.2 1.3-.2.534-.533 1.217-1 2.051-.934 2-1.5 3.583-1.7 4.75-.233 1.166-.183 2.05.15 2.649.333.533.884.884 1.65 1.05.733.167 1.616.217 2.649.15s2.134-.134 3.3-.2a24.635 24.635 0 0 1 3.5.05 9.981 9.981 0 0 1 3.25.851c1.034.467 1.917 1.233 2.65 2.3.533 1.4 1.15 2.566 1.85 3.5.667.866 1.384 1.55 2.15 2.05.733.5 1.5.867 2.3 1.101.8.234 1.617.383 2.45.449.8.067 1.6.15 2.4.25.8.067 1.583.2 2.35.4a6.473 6.473 0 0 1 2.1.9c.667.399 1.301 1.017 1.9 1.85 1.1 1.566 2.167 2.634 3.2 3.2 1 .566 1.983.833 2.95.8.966-.033 1.933-.15 2.899-.35a9.6 9.6 0 0 1 2.95-.15c1.1.267 2.583.283 4.45.05a59.24 59.24 0 0 0 5.6-1.1c1.9-.467 3.517-.9 4.851-1.3 1.333-.434 2.033-.65 2.1-.65 0-.033.167-.033.5 0 .366 0 .833.033 1.4.1.566.101 1.166.267 1.8.5.666.2 1.3.534 1.899 1 .601.434 1.117 1.017 1.551 1.75.433.7.716 1.584.85 2.65.1 1.066.017 2.35-.25 3.85-.333 1.467-.917 3.184-1.75 5.15-1.533 1.866-3.65 3.434-6.35 4.7-2.733 1.233-5.851 2.2-9.351 2.899-3.533.667-7.3 1.134-11.3 1.4-4.033.267-8.1.366-12.2.3a276.086 276.086 0 0 1-12.05-.45c-3.9-.267-7.5-.566-10.8-.899-3.3-.367-6.134-.7-8.5-1-2.4-.3-4.134-.533-5.2-.7-1.1-.2-3.017-.816-5.75-1.85a1887.838 1887.838 0 0 1-10.2-3.9c-4.066-1.566-8.684-3.25-13.85-5.05-5.167-1.8-10.733-3.55-16.7-5.25-6-1.7-12.25-3.2-18.75-4.5a187.156 187.156 0 0 0-19.9-2.851c-6.8-.566-13.566-.633-20.3-.199a96.033 96.033 0 0 0-19.8 3.35 779.083 779.083 0 0 0-19.95 5.85 4471.851 4471.851 0 0 0-20.75 6.301 956.6 956.6 0 0 1-20.75 6.1 548.235 548.235 0 0 1-20.15 5.25c-6.533 1.533-12.767 2.783-18.7 3.75-5.967.934-11.517 1.45-16.65 1.55-5.133.134-9.733-.25-13.8-1.149-4.1-.934-7.517-2.483-10.25-4.65-2.767-2.2-5.117-4.15-7.05-5.85-1.934-1.733-3.55-3.25-4.85-4.551-1.267-1.3-2.283-2.416-3.05-3.35-.767-.967-1.316-1.783-1.65-2.45-.333-.666-.533-1.2-.6-1.6-.1-.434-.117-.767-.05-1 .067-.267.133-.467.2-.601.066-.133.083-.216.05-.25-.167-.199-.233-.716-.2-1.55.034-.833.35-1.717.95-2.649.567-.967 1.617-1.733 3.15-2.301 1.533-.566 3.733-.683 6.6-.35 2.8.4 5.15 1.017 7.05 1.85a79.096 79.096 0 0 1 4.95 2.351c1.433.7 2.917 1.149 4.45 1.35 1.533.167 3.383-.184 5.55-1.05 2.167-.9 3.95-1.5 5.35-1.8 1.367-.3 2.433-.417 3.2-.351.733.067 1.25.184 1.55.351.267.166.4.267.4.3l.8.15c.5.033 1.2-.067 2.1-.301.867-.3 1.833-.916 2.9-1.85 1.034-1 2.1-2.5 3.2-4.5 1.067-2.066 2.367-3.667 3.9-4.8 1.467-1.167 2.934-2.017 4.4-2.55 1.467-.534 2.684-.867 3.65-1 .966-.134 1.483-.184 1.55-.15l.4.15c.3.066.7.149 1.2.25a8.707 8.707 0 0 0 1.65.05 8.655 8.655 0 0 0 1.9-.45c.667-.267 1.317-.684 1.95-1.25.633-.6 1.217-1.384 1.75-2.35.5-1 .917-2.25 1.25-3.75.333-1.5.55-3.301.65-5.4.033-.767.367-1.417 1-1.95.121-.113.246-.222.375-.325-1.195-1.276-2.32-2.317-3.375-3.125-1.133-.866-2.2-1.5-3.2-1.899-1-.4-1.917-.634-2.75-.7-.867-.1-1.633-.05-2.3.15a6.375 6.375 0 0 0-1.75.699c-.5.301-.9.634-1.2 1-.433.5-.733.983-.9 1.45-.167.467-.3.9-.4 1.3-.1.367-.25.65-.45.851-.2.166-.566.233-1.1.2-.633-.267-.934-.601-.9-1 .034-.4.2-.817.5-1.25.3-.467.534-.9.7-1.301.133-.399 0-.716-.4-.949-.467.267-.867.816-1.2 1.649-.333.8-.667 1.667-1 2.601-.3.933-.633 1.75-1 2.449-.4.667-.833 1-1.3 1-.367-.033-.583-.199-.65-.5-.067-.3-.05-.699.05-1.199.133-.5.333-1.051.6-1.65.267-.599.583-1.217.95-1.85.08-.151.163-.301.25-.45a7.591 7.591 0 0 0-2.4 2c-.4.434-.733.883-1 1.35l-.75 1.25c-.3.5-.617.967-.95 1.4-.367.399-.767.666-1.2.8-.433.1-.9-.066-1.4-.5-.267-.267-.417-.566-.45-.9a2.272 2.272 0 0 1 .05-1.05c.1-.366.267-.733.5-1.1.066-.122.133-.238.2-.351-.4.067-.767.134-1.1.2-.3.033-.583.033-.85 0a1.201 1.201 0 0 1-.65-.399c-.137-.165-.245-.406-.325-.726a3.711 3.711 0 0 1-.05-.225c.094-.281.219-.564.375-.851.233-.399.5-.783.8-1.149.267-.4.566-.767.9-1.101.3-.333.583-.633.85-.899.267-.3.683-.601 1.25-.9.566-.3 1.133-.633 1.7-1 .567-.366 1.017-.767 1.35-1.2.333-.466.434-.949.3-1.449-.133-.534-.35-.767-.65-.7-.3.033-.633.233-1 .6-.4.367-.783.8-1.15 1.3-.4.467-.75.867-1.05 1.2-.467.334-.983.667-1.55 1-.566.3-1.133.601-1.7.9-.6.267-1.184.5-1.75.7-.567.166-1.067.283-1.5.35-.467.066-.833.066-1.1 0-.267-.1-.417-.283-.45-.55a2.682 2.682 0 0 1 .2-1.25c.167-.434.417-.851.75-1.25.333-.4.75-.767 1.25-1.101.467-.366.983-.716 1.55-1.05.434-.2 1.083-.399 1.95-.6.833-.233 1.717-.5 2.65-.8.934-.267 1.7-.617 2.3-1.051.566-.433.783-.949.65-1.55-.567-.1-1.05-.017-1.45.25-.433.233-.883.467-1.35.7-.367.1-.75.184-1.15.25-.4.033-.8.083-1.2.15-.434.033-.833.083-1.2.149-1.3.334-2.283.601-2.95.8-.7.167-1.083-.05-1.15-.649-.033-.667.317-1.15 1.05-1.45a9.738 9.738 0 0 1 2.35-.75c.434-.1.967-.233 1.6-.4.6-.133 1.25-.3 1.95-.5a22.33 22.33 0 0 0 1.8-.75c.533-.267.95-.55 1.25-.85.3-.434.483-.816.55-1.15a1.087 1.087 0 0 0-.25-.85c-.2-.233-.483-.366-.85-.4-.367-.033-.8.034-1.3.2-.667.267-1.3.634-1.9 1.101-.633.433-1.233.916-1.8 1.449-.6.5-1.2.934-1.8 1.301-.633.366-1.3.6-2 .699-.5.034-.983 0-1.45-.1a7.7 7.7 0 0 1-1.3-.6 3.842 3.842 0 0 1-.9-.9c-.267-.366-.417-.733-.45-1.1-.034-.367.066-.733.3-1.101.2-.366.583-.7 1.15-1 .8-.434 1.717-.75 2.75-.95 1-.233 1.967-.416 2.9-.55a15.688 15.688 0 0 0 1.5-.45c.467-.199.934-.399 1.4-.6a9.71 9.71 0 0 1 1.35-.6c.434-.2.917-.334 1.45-.4.533 0 1.1.017 1.7.05.6 0 .917-.283.95-.85-.033-.233-.1-.417-.2-.55a.792.792 0 0 0-.5-.301 5.972 5.972 0 0 0-.65-.149 2.143 2.143 0 0 0-.65 0c-.667 0-1.383.05-2.15.149-.767.067-1.55.184-2.35.351-.8.133-1.566.3-2.3.5-.733.166-1.417.333-2.05.5-.433.1-.783.116-1.05.05-.267-.1-.467-.25-.6-.45-.133-.2-.2-.434-.2-.7 0-.266.066-.55.2-.85.134-.3.35-.583.65-.85.267-.301.6-.551 1-.75.5-.267 1-.45 1.5-.551a5.454 5.454 0 0 1 1.5-.199c.5-.034 1.05-.051 1.65-.051.433 0 1.05.034 1.85.101.8.033 1.6.017 2.4-.05.767-.067 1.3-.25 1.6-.551.3-.3.184-.8-.35-1.5a3.851 3.851 0 0 0-1.15-.85 8.584 8.584 0 0 0-1.55-.55 37.63 37.63 0 0 0-1.65-.351c-.533-.1-1.017-.183-1.45-.25a2.996 2.996 0 0 1-.85-.25c-.333-.166-.65-.333-.95-.5a5.166 5.166 0 0 1-.8-.649c-.233-.2-.383-.4-.45-.601-.1-.199-.083-.366.05-.5.133-.166.4-.283.8-.35a64.675 64.675 0 0 1 1.6-.15c.434-.033.8-.033 1.1 0 .3 0 .583.017.85.051l.8.1c.3.066.7.2 1.2.4.433.166.917.333 1.45.5.5.166.966.233 1.4.199a1.237 1.237 0 0 0 1-.6 13.94 13.94 0 0 0-1.7-1.45c-.6-.433-1.233-.85-1.9-1.25a40.988 40.988 0 0 0-2.05-1.149c-.467-.233-1-.483-1.6-.75-.6-.267-1.15-.567-1.65-.9-.534-.366-.934-.767-1.2-1.2-.267-.5-.3-1.066-.1-1.7a4.239 4.239 0 0 1 1.6.101c.467.1.933.283 1.4.55.467.2.917.434 1.35.7.4.267.833.517 1.3.75.367.166.767.316 1.2.45l1.3.399c.317.105.634.223.95.351.083.031.167.065.25.1.4.134.8.283 1.2.45a8.407 8.407 0 0 1-1.3-.95 23.256 23.256 0 0 1-1.6-1.55 37.721 37.721 0 0 0-1.65-1.65 24.41 24.41 0 0 0-1.45-1.35 34.933 34.933 0 0 1-1.65-1.4 22.974 22.974 0 0 1-1.85-1.75c-.6-.633-1.017-1.217-1.25-1.75-.267-.566-.233-1 .1-1.3.367-.3 1.1-.184 2.2.35 1.067.534 2.333 1.317 3.8 2.351.572.39 1.147.798 1.725 1.225a9.702 9.702 0 0 0-1.175-2.925 15.61 15.61 0 0 0-1.75-2.45 24.505 24.505 0 0 0-2.05-2.1c-.5-.4-1.066-.9-1.7-1.5a14.205 14.205 0 0 1-1.8-1.95c-.566-.733-.9-1.45-1-2.15-.133-.733.1-1.433.7-2.1.9.4 1.75.816 2.55 1.25a16.677 16.677 0 0 1 4.15 3.35 16.255 16.255 0 0 1 1.8 2.301c.367.5.733.916 1.1 1.25.333.3.7.583 1.1.85.367.267.75.533 1.15.8.367.267.767.601 1.2 1 .188.188.421.463.7.825a83.72 83.72 0 0 1 .9 1.375l.025.05a5.734 5.734 0 0 0-.575-1.7 13.707 13.707 0 0 0-1.6-2.399c-.633-.8-1.283-1.55-1.95-2.25-.7-.733-1.3-1.417-1.8-2.05a37.968 37.968 0 0 0-2.1-2.5 159.1 159.1 0 0 0-2.2-2.45c-.733-.8-1.45-1.617-2.15-2.45a49.69 49.69 0 0 1-2-2.65 3.223 3.223 0 0 1-.4-.699 8.47 8.47 0 0 1-.45-.95 4.354 4.354 0 0 1-.25-1.05c-.067-.334-.05-.634.05-.9.067-.267.25-.45.55-.55.267-.101.667-.101 1.2 0 .3.033.617.217.95.55.3.3.6.667.9 1.1.267.4.55.817.85 1.25.267.434.533.801.8 1.101.333.399.683.816 1.05 1.25.333.399.684.816 1.05 1.25.367.399.767.783 1.2 1.149.233.233.534.551.9.95.367.367.75.767 1.15 1.2.367.4.733.75 1.1 1.05.144.118.293.218.45.3a.55.55 0 0 1 .075.025c.226.105.468.173.725.2a31.246 31.246 0 0 0-.5-.726c-1-1.433-2.1-2.8-3.3-4.1a44.032 44.032 0 0 1-3.4-4.15c-1.033-1.433-1.817-3.05-2.35-4.85a4.886 4.886 0 0 1-.2-.7c-.067-.3-.133-.649-.2-1.05-.1-.4-.167-.8-.2-1.2a8.023 8.023 0 0 1-.1-1.2c0-.366.033-.683.1-.949.067-.301.2-.5.4-.601.333-.233.683-.267 1.05-.1.367.166.717.434 1.05.8.3.333.583.7.85 1.1.233.367.4.667.5.9.267.533.55 1.184.85 1.95.267.733.583 1.5.95 2.3.333.767.733 1.45 1.2 2.05.434.601.967.983 1.6 1.15a53.073 53.073 0 0 1-.2-.45c-.267-.533-.483-1-.65-1.4-.2-.433-.367-.783-.5-1.05l-.8-1.8a97.719 97.719 0 0 1-1.8-3.8 42.31 42.31 0 0 0-.55-1.3c-.267-.534-.5-1.101-.7-1.7a6.294 6.294 0 0 1-.4-1.8c-.033-.601.083-1.084.35-1.45.267-.334.617-.55 1.05-.65.4-.1.817-.066 1.25.101.4.1.733.316 1 .649.109.136.2.286.275.45a17.03 17.03 0 0 1-.175-.7c-.367-1.467-.066-2.366.9-2.7.5.101.983.301 1.45.601.467.267.892.608 1.275 1.024a6.788 6.788 0 0 1-.075-.574 4.034 4.034 0 0 1 .05-1.101c.033-.399.1-.75.2-1.05.066-.333.2-.566.4-.7a.57.57 0 0 1 .6-.149c.131.019.281.094.45.225.081.054.164.12.25.2.037.073.07.148.1.225a782.786 782.786 0 0 1 3.7 7.5c1.133 2.3 2.117 4.367 2.95 6.2a70.62 70.62 0 0 1 1.575 3.65c.117-.167.191-.334.225-.5v-.5c-.034-.2-.067-.45-.1-.75a6.615 6.615 0 0 1 0-1.15c-.1-.9-.25-1.65-.45-2.25-.2-.634-.417-1.267-.65-1.9a24.2 24.2 0 0 1-.9-2.55c-.333-1.066-.7-2.45-1.1-4.149-.167-1.834-.117-2.9.15-3.2.233-.367.55-.3.95.2.4.466.767 1 1.1 1.6l.5 1 3.225 5.375a36.086 36.086 0 0 0-.125-.825 115.21 115.21 0 0 1-.65-3.75c-.267-1.467-.5-2.85-.7-4.149-.233-1.334-.367-2.301-.4-2.9-.066-.4-.066-.8 0-1.2.067-.467.167-.883.3-1.25.133-.366.3-.666.5-.899.2-.233.433-.334.7-.301.233.034.5.25.8.65.3.4.617 1.033.95 1.9.467 1.3.9 2.55 1.3 3.75.096.312.188.621.275.925l-.175-.825-.025-.125a13.446 13.446 0 0 1-.225-1.675c-.067-.566-.1-1.05-.1-1.45 0-.634.017-1.366.05-2.2 0-.899.083-1.616.25-2.149.133-.567.45-.717.95-.45.467.267 1.191 1.25 2.175 2.95a2.93 2.93 0 0 1 .125-.801c.1-.433.35-.75.75-.949.434-.233.833-.284 1.2-.15.333.1.617.316.85.65.233.333.433.716.6 1.149.167.4.309.775.425 1.125a34.65 34.65 0 0 1 1.975 7.726c.4 2.699.55 5.399.45 8.1-.066 2.7-.3 5.333-.7 7.9a86.508 86.508 0 0 1-3.45 13.65c-.667 1.9-1.283 3.566-1.85 5-.6 1.4-1.083 2.5-1.45 3.3l-.55 1.15c-.066.066-.316.95-.75 2.65-.433 1.699-.783 3.899-1.05 6.6-.267 2.701-.15 5.533.35 8.5.466 2.934 1.617 5.684 3.45 8.25m-.349.294a.28.28 0 0 0 .05.075 29.213 29.213 0 0 0 1.9 1.825c1.333 1.133 2.633 2.1 3.9 2.899 1.267.767 2.417 1.4 3.45 1.9 1.033.467 1.85.816 2.45 1.05.6.2.917.3.95.3m.125.401a4.07 4.07 0 0 1 1.175-.25c.867-.066 2.017.184 3.45.75a9.127 9.127 0 0 0 3.55.6c1.233 0 2.467-.216 3.7-.649 1.2-.434 2.333-1.05 3.4-1.851a11.954 11.954 0 0 0 2.7-2.949 12.66 12.66 0 0 0 1.6-3.9c.3-1.467.316-3.05.05-4.75-.033-.8.1-1.4.4-1.8.3-.4.733-.65 1.3-.75.566-.101 1.267-.15 2.1-.15.767 0 1.633.017 2.6.05a33.744 33.744 0 0 0 3.05-.25c1.066-.166 2.183-.483 3.35-.949 1.1-.467 2.217-1.15 3.35-2.051 1.133-.899 2.25-2.1 3.35-3.6.3-.733.833-1.384 1.6-1.95.733-.566 1.667-1.066 2.8-1.5 1.133-.467 2.417-.833 3.85-1.1 1.4-.3 2.883-.517 4.45-.65a45.912 45.912 0 0 1 4.85-.149c1.633 0 3.284.116 4.95.35 2.433.267 4.733.25 6.9-.05 2.167-.3 4.083-.717 5.75-1.25 1.633-.533 2.934-1.033 3.9-1.5.934-.467 1.417-.7 1.45-.7-.033-.033.083-.184.35-.45.233-.333.601-.733 1.101-1.2.467-.466 1.066-.949 1.8-1.449.7-.534 1.533-1.017 2.5-1.45.967-.433 2.05-.767 3.25-1 1.2-.267 2.517-.351 3.95-.25 1.434.066 2.983.366 4.649.899 1.667.5 3.467 1.301 5.4 2.4a211.55 211.55 0 0 0 4.85 2.7c1.334.733 2.45 1.3 3.351 1.7.866.399 1.583.699 2.149.899.534.167.95.25 1.25.25.301 0 .534-.05.7-.149.134-.101.267-.217.4-.351.133-.133.283-.25.45-.35.199-.134.483-.2.85-.2.767-.267 1.566-.283 2.4-.05.8.2 1.649.583 2.55 1.149a46.615 46.615 0 0 1 2.899 2c1 .767 2.084 1.551 3.25 2.351 1.167.767 2.434 1.5 3.801 2.2 1.333.666 2.8 1.216 4.399 1.649 1.601.4 3.316.601 5.15.601 1.866-.034 3.883-.334 6.05-.9.967-.3 1.884-.267 2.75.1.866.334 1.717.834 2.55 1.5l2.4 1.9c.767.6 1.55 1.017 2.35 1.25.8.167 1.7.2 2.7.1.967-.133 1.95-.183 2.95-.149.967 0 1.866.283 2.7.85.833.5 1.533 1.483 2.1 2.95.467 1.533.85 3.3 1.15 5.3.3 1.967.767 3.8 1.399 5.5.601 1.7 1.634 2.917 3.101 3.65 1.433.7 3.55.55 6.35-.45 2.767-1.066 4.967-1.717 6.6-1.95 1.667-.3 2.934-.316 3.801-.05.833.233 1.466.6 1.899 1.1a22.03 22.03 0 0 1 1.2 1.401c.2.866.467 1.733.8 2.6.3.834.65 1.634 1.05 2.4.4.767.851 1.467 1.351 2.1.5.634 1.033 1.184 1.6 1.65.601.434 1.233.75 1.9.95.666.2 1.383.267 2.149.2.352-.042.651-.05.9-.025M281.69 87.777c.033 0 .35-.1.949-.3a51.748 51.748 0 0 0 2.45-1.05 42.726 42.726 0 0 0 3.45-1.9c1.267-.8 2.566-1.767 3.9-2.899a29.458 29.458 0 0 0 1.899-1.825.259.259 0 0 0 .05-.075 29.76 29.76 0 0 0 1.851-2.149c1.2-1.534 2.267-3.284 3.2-5.25.899-2 1.566-4.233 2-6.7.399-2.467.483-5.2.25-8.2-.233-2.967-.434-5.6-.601-7.9-.2-2.3-.316-4.35-.35-6.149-.066-1.8-.033-3.45.1-4.95.101-1.5.3-2.95.601-4.35.3-1.434.733-2.9 1.3-4.4.149-.429.308-.871.475-1.325m-9.174 51.073c1.8-2.566 2.95-5.316 3.45-8.25.5-2.967.616-5.8.35-8.5s-.616-4.9-1.05-6.6c-.467-1.7-.717-2.584-.75-2.65-.033 0-.217-.384-.55-1.15-.367-.8-.851-1.899-1.45-3.3-.6-1.434-1.217-3.1-1.85-5a86.022 86.022 0 0 1-1.9-6.35 65.31 65.31 0 0 1-1.55-7.3c-.4-2.567-.634-5.2-.7-7.9-.1-2.7.05-5.4.45-8.1a34.597 34.597 0 0 1 1.975-7.726c.084-.35.209-.725.375-1.125.167-.434.384-.816.65-1.149.233-.334.517-.551.85-.65.334-.134.733-.083 1.2.15.366.199.616.517.75.949.019.082.035.165.05.25.027.177.044.36.05.551l.226-.375a6.74 6.74 0 0 0 .149-.226c.842-1.333 1.467-2.116 1.875-2.35.467-.267.784-.117.95.45.167.533.25 1.25.25 2.149v2.2c0 .4-.017.884-.05 1.45-.062.499-.138 1.058-.225 1.675a1.063 1.063 0 0 0-.025.125v.025l-.1.425c-.007.05-.015.1-.025.149l.05-.149.125-.425a1.16 1.16 0 0 0 .05-.125m-1 3.252a66.143 66.143 0 0 0-.6 2.3l-.2.649a3.26 3.26 0 0 0 .101-.25c.199-.6.399-1.216.6-1.85.2-.667.384-1.333.55-2 .116-.485.225-.952.325-1.4a55.444 55.444 0 0 0-.776 2.551zm3.5 6.55c0-.05.042-.366.125-.95m13.175-5.5c-.02.122-.036.238-.051.35a7.214 7.214 0 0 1-1 2.2c-.5.7-.916 1.417-1.25 2.15a23.288 23.288 0 0 0-.949 2.5 157.36 157.36 0 0 1-1.051 2.85 10.78 10.78 0 0 1-1.399 2.601 4.818 4.818 0 0 1-2.05 1.699m11.2-12.775c-.036.15-.078.301-.125.45-.05.155-.101.313-.149.475-.407 1.126-.966 2.376-1.675 3.75-1.067 2-2.15 3.95-3.25 5.85-1.101 1.867-1.934 3.384-2.5 4.551m5.949-.726c-.18.41-.38.835-.6 1.275-.3.6-.6 1.217-.9 1.85l-.899 1.8c-.334.567-.65 1.101-.95 1.601-.3.5-.583.934-.85 1.3s-.5.65-.7.85m3.249.724a14.928 14.928 0 0 0-1.7 3.925m-.775 7.275c-.05.306-.191.563-.425.774-.118.247-.201.48-.25.7-.1.3-.116.55-.05.75m.3-1.449c.047-.102.097-.201.15-.3.087-.16.179-.318.274-.475m-.974 7.525c1.233-1 2.6-2.1 4.1-3.3a78.317 78.317 0 0 1 2.775-2.075m-4.075 38.674c.566.267 1.117.584 1.65.95.5.367.983.783 1.45 1.25l1.35 1.351 1.35 1.35c.2.2.417.434.65.7a7.977 7.977 0 0 1 1.25 1.649M294.39 5.578c.015.21.015.426 0 .649a7.847 7.847 0 0 1-.25 1.55c-.133.467-.25.884-.35 1.25-.2.534-.384 1.034-.55 1.5a16.86 16.86 0 0 1-.55 1.351c-.2.434-.4.883-.601 1.35m3.751 3.549a9.229 9.229 0 0 1-.55 1.25m17.825 77.551a3.16 3.16 0 0 0-.15-.226 2.585 2.585 0 0 0-.125-.225c-.6-.967-1.2-1.8-1.8-2.5m-253.15-3.35c-.6.267-1.15.584-1.65.95-.5.367-.983.783-1.45 1.25-.467.434-.917.884-1.35 1.351-.467.433-.917.883-1.35 1.35l-.7.7c-.233.267-.483.583-.75.95-.156.223-.306.456-.45.699M76.315 3.578c-.011.208-.003.425.025.649.034.533.117 1.05.25 1.55.1.467.217.884.35 1.25.267.801.533 1.534.8 2.2.267.667.566 1.334.9 2l1.75 3.75m-6.975-5.474c.253.835.478 1.61.675 2.325.267.966.483 1.733.65 2.3l.1.399.15.426c.16.396.327.754.5 1.074m-2.075-6.524c.087.377.178.769.275 1.175.133.667.3 1.333.5 2 .2.634.417 1.25.65 1.85m-20.975-.85c.075.24.158.49.25.75.384 1.127.942 2.377 1.675 3.75 1.033 2 2.1 3.95 3.2 5.85 1.1 1.867 1.933 3.384 2.5 4.551m-4.175-16.677c.021.136.046.261.075.375.066.4.2.784.4 1.15.167.333.367.684.6 1.05.2.367.417.717.65 1.05l.6 1.101c.3.733.617 1.566.95 2.5.3.934.633 1.883 1 2.85.367.967.833 1.834 1.4 2.601a4.812 4.812 0 0 0 2.05 1.699m5.6-7.9c-.023-.046-.082-.321-.175-.825m5.875 60.175a30.003 30.003 0 0 1-1.85-2.149c-1.2-1.534-2.25-3.284-3.15-5.25-.933-2-1.6-4.233-2-6.7-.433-2.467-.533-5.2-.3-8.2.233-2.967.45-5.6.65-7.9.167-2.3.283-4.35.35-6.149.033-1.8 0-3.45-.1-4.95-.133-1.5-.35-2.95-.65-4.35-.3-1.434-.717-2.9-1.25-4.4a44.42 44.42 0 0 0-.525-1.35M55.54 27.878c.184.4.383.816.6 1.25.267.6.566 1.217.9 1.85.3.601.617 1.2.95 1.8.3.567.6 1.101.9 1.601.3.5.583.934.85 1.3.233.366.466.65.7.85m-3.2.724a14.961 14.961 0 0 1 1.7 3.925m1.5 9.5c.067-.267.033-.6-.1-1a5.744 5.744 0 0 0-.225-.475 7.855 7.855 0 0 0-.4-.726m.975 7.501c-1.233-1-2.6-2.1-4.1-3.3a76.524 76.524 0 0 0-2.775-2.075m3.775 43.025c.046-.082.096-.165.15-.25.226-.388.476-.771.75-1.15.4-.6.8-1.133 1.2-1.6m18.725 5.524a.195.195 0 0 0 .025-.024 10.305 10.305 0 0 1 1.9-1.2c.9-.467 1.8-1 2.7-1.6a8.678 8.678 0 0 0 2.25-2.15c.533-.9 1.017-1.733 1.45-2.5.433-.8.917-1.434 1.45-1.9.276-.258.601-.458.975-.6" fill="none" stroke="#000" stroke-miterlimit="10"/></svg>