<svg xmlns="http://www.w3.org/2000/svg" xmlns:dc="http://dublincore.org/documents/dcmi-terms/" height="221.761" viewBox="0 0 322.081 221.761" width="322.081"><metadata><dc:description>Silhouette of Bubo scandiacus, processed by PhyloPic Tools (https://github.com/eweitz/phylopic-tools)</dc:description><dc:source>http://phylopic.org/image/919a6f91-cb0b-4646-9ec2-b6a8b5e4b024</dc:source><dc:creator>Steven Traver</dc:creator><dc:license>http://creativecommons.org/publicdomain/zero/1.0/</dc:license></metadata><g fill-rule="evenodd"><path d="M119.04 0c-5.028 1.652-16.888 8.183-11.28 14.16C99.033 11.185 85.642 7.92 74.88 6c-4.094-.73-8.988-1.753-12.72-1.2-2.495.37-5.445 2.19-7.68 4.08-1.837 1.554-5.155 4.53-5.28 6.72-.083 1.453 1.54 2.427.96 3.12-9.571-2.272-18.752-10.002-29.04-9.36-4.877.305-11.087 4.648-13.2 7.44-1.752 2.315-2.151 5.809-3.6 9.36-1.281 3.139-3.285 5.543-3.36 8.64-.051 2.111 1.37 3.864 1.44 6 .085 2.612-1.833 5.764-2.16 9.12-.907 9.298 2.438 15.585 10.32 16.56-.003-1.36-2.555-2.243-2.88-4.08 1.198-.322 2.011-1.028 2.64-1.92a6.581 6.581 0 0 0 2.64 2.16c1.368 8.232 10.958 8.242 14.64 14.16 1.37.311 1.852-1.211 2.64-.72 1.963 1.699 2.475 5.92 6.24 5.04.732 1.646 1.72 3.034 2.88 4.32 6.733 7.464 12.901 15.179 19.2 23.04 6.304 7.867 9.884 17.831 17.52 24.72.766.742-.002.405 0 1.44 2.829.611 3.714 3.165 5.76 4.56 2.985 7.301 6.251 14.86 9.6 22.32 3.326 7.408 7.152 14.377 13.44 18.96-3.116 5.524-10.805 6.475-10.8 15.12-3.913-.555-12.368-5.036-15.6 0-.882.078-2.125-.205-2.64.24-1.929 1.19-4.206 2.034-4.8 4.56-1.875-.77-3.758.136-3.84 1.92-5.435.005-6.949 3.932-7.92 8.4 1.786-.536 2.881-3.837 5.28-4.561 1.129-.159 2.106 1.082 3.12.24 1.321 2.839 5.512 2.809 9.84 2.64-3.282 1.198-5.579 3.382-6.48 6.96 1.167-.544 2.953-2.464 4.56-3.359 1.682.485 3.059-.188 3.84-.24.681 1.252-.647 2.326-.48 3.84.974.645 1.113-1.6 2.16-1.68 1.86 2.044 5.689.245 7.44-.72 2.373 1.231 5.844.611 8.64.96-3.448 1.031-5.778 3.182-6.48 6.96H0V0h119.04zM122.88 184.801c.928.032.946.973 1.68 1.199-3.244 5.556-10.825 6.775-11.04 15.36-3.147-.453-5.162-2.038-8.4-2.4 6.177-4.463 14.9-6.38 17.76-14.159z" fill="#fff"/><path d="M78.24 199.2c.594.366.429 1.491 1.44 1.44-2.631.709-5.723-.196-8.4-.24 1.678-2.143 5.166-.588 6.96-1.2zM91.2 221.761c.784-1.696 2.61-2.351 4.08-3.36 1.134-.445 2.776.919 3.36-.72 2.244 6.262 9.963 1.621 13.92 0 .542-.579.511-1.729 1.2-2.16 3.506-2.787 12.541 1.377 13.92-3.36 1.739 1.009 1.607-.966 2.4-1.2 3.199.241 4.574 2.307 5.76 4.561.478-4.398-2.134-7.785-7.2-7.44-.599-2.529-2.905-3.022-5.76-2.16 9.331-6.343 22.85-9.929 21.6-26.399-.359-4.726-1.951-8.777-4.08-12.24.59-.182 2.364.51 3.84.24.789-1.131 1.538-2.302 3.12-2.641-.611-2.291 1.298-2.062.96-4.079 3.063.069 1.619-3.819 4.32-3.601.424-1.005-.281-1.989.96-2.399 7.263 2.337 11.036 8.165 18 10.8 8.021 4.539 13.854 11.266 24.72 12.96.879-.267.839-1.819.48-2.641 3.146 1.733 5.473 4.287 10.319 4.32.664-1.234-.03-2.943-.72-3.6 2.528 1.152 5.635 3.804 10.561 3.359 1.119-1.467-1.94-3.07-1.44-3.12 2.29.453 5.98 1.719 8.399.48-.741-4.365-4.703-6.989-7.68-9.6-9.037-7.926-18.94-14.861-27.6-23.521-11.438-11.438-20.729-24.411-31.68-36.48 3.836 2.564 7.866 7.013 13.44 8.64 4.545-1.969 10.818 4.706 15.6.96.283-1.728-1.03-3.123-.96-3.84 3.431.07 6.737.017 8.4-1.681.455-1.424-.767-2.421-.48-2.879 2.783-1.29 15.118-4.733 10.561-9.36 1.465-.792 1.357-4.429.72-5.28 1.586.569 3.27-.44 5.04 0 1.217.302 2.856 2.24 4.32 3.36 4.146 3.172 9.526 6.056 13.92 8.64 3.299 1.94 5.892 4.073 8.64 6.479 2.599 2.276 5.771 5.026 9.601 4.801 1.212-1.518-.069-4.092-.721-5.28 2.563.647 5.146 4.603 9.36 3.6 2.283-2.736-.4-7.383-1.68-9.6 3.383.305 7.571 3.138 11.76 2.64.031-3.431-2.795-5.929-4.8-8.16-6.143-6.836-13.496-13.479-21.12-18.96 2.092.07 4.519 1.88 6.96 2.4 1.318-10.041-12.794-12.19-20.16-15.84-.829-.579 1.394-2.075.72-4.08.843-.165 1.8.999 2.641 1.68 2.66 2.155 5.74 5.247 9.6 6.24.531-1.853-1.169-3.439-2.16-4.56a68.24 68.24 0 0 1 6.24 5.52c1.576 1.576 4.77 5.889 6.96 5.04 1.153-.447 1.199-2.217.24-3.36 4.45 2.962 8.292 6.806 12.479 10.32 4.188 3.514 8.433 6.866 12.961 10.08 4.424 3.14 8.961 6.39 12.96 10.08 3.958 3.653 7.883 8.24 13.68 9.36 2.011-1.081.434-4.659-.48-5.76 2.755.196 6.286 4.278 9.601 2.879 2.734-1.153 1.437-6.391.479-9.12 3.506-.774 7.062 1.724 10.561.96-.481-3.71-3.236-6.464-5.521-8.88-6.826-7.221-14.271-14.431-23.279-19.68 2.926-.205 6.766.753 9.84 1.2.42-4.748-4.563-6.379-7.681-7.92-10.585-5.234-23.449-8.988-35.279-12.96-15.577-5.229-30.985-12.127-46.08-18-7.98-3.104-15.682-5.743-22.561-9.6-6.737-3.778-13.077-8.044-19.92-12C158.35 8.319 140.048 3.286 122.88 0h199.201v221.761H91.2z" fill="#fff"/><path d="M119.04 0h3.84c17.168 3.286 35.469 8.319 48.48 15.84 6.843 3.956 13.183 8.222 19.92 12 6.879 3.857 14.58 6.496 22.561 9.6 15.095 5.873 30.503 12.771 46.08 18 11.83 3.972 24.694 7.726 35.279 12.96 3.117 1.542 8.101 3.172 7.681 7.92-3.074-.447-6.914-1.405-9.84-1.2 9.008 5.25 16.453 12.459 23.279 19.68 2.284 2.416 5.039 5.17 5.521 8.88-3.499.764-7.055-1.734-10.561-.96.957 2.729 2.255 7.966-.479 9.12-3.314 1.398-6.846-2.683-9.601-2.879.914 1.102 2.491 4.679.48 5.76-5.797-1.12-9.722-5.707-13.68-9.36-3.999-3.69-8.536-6.94-12.96-10.08-4.528-3.214-8.772-6.566-12.961-10.08-4.188-3.514-8.029-7.357-12.479-10.32.959 1.143.913 2.913-.24 3.36-2.19.849-5.384-3.464-6.96-5.04-2.513-2.513-4.924-4.505-6.24-5.52.991 1.121 2.691 2.707 2.16 4.56-3.859-.994-6.939-4.085-9.6-6.24-.841-.681-1.798-1.844-2.641-1.68.674 2.004-1.549 3.5-.72 4.08 7.366 3.65 21.479 5.799 20.16 15.84-2.441-.52-4.868-2.33-6.96-2.4 7.624 5.48 14.978 12.124 21.12 18.96 2.005 2.231 4.831 4.729 4.8 8.16-4.188.498-8.377-2.335-11.76-2.64 1.279 2.217 3.963 6.863 1.68 9.6-4.215 1.003-6.798-2.952-9.36-3.6.651 1.188 1.933 3.763.721 5.28-3.83.226-7.002-2.524-9.601-4.801-2.748-2.406-5.341-4.54-8.64-6.479-4.394-2.584-9.774-5.468-13.92-8.64-1.464-1.12-3.104-3.058-4.32-3.36-1.771-.44-3.454.569-5.04 0 .638.851.745 4.488-.72 5.28 4.558 4.627-7.777 8.07-10.561 9.36-.286.458.936 1.456.48 2.879-1.663 1.697-4.97 1.751-8.4 1.681-.07.717 1.243 2.112.96 3.84-4.781 3.746-11.055-2.929-15.6-.96-5.574-1.627-9.604-6.076-13.44-8.64 10.951 12.069 20.242 25.042 31.68 36.48 8.659 8.659 18.563 15.595 27.6 23.521 2.977 2.61 6.938 5.234 7.68 9.6-2.419 1.238-6.109-.027-8.399-.48-.5.05 2.56 1.653 1.44 3.12-4.926.444-8.032-2.207-10.561-3.359.689.656 1.384 2.365.72 3.6-4.847-.033-7.173-2.587-10.319-4.32.358.821.398 2.374-.48 2.641-10.866-1.694-16.699-8.421-24.72-12.96-6.965-2.635-10.737-8.463-18-10.8-1.241.41-.536 1.395-.96 2.399-2.701-.219-1.257 3.67-4.32 3.601.338 2.018-1.571 1.788-.96 4.079-1.582.339-2.331 1.51-3.12 2.641-1.476.27-3.25-.422-3.84-.24 2.129 3.463 3.721 7.515 4.08 12.24 1.25 16.471-12.27 20.057-21.6 26.399 2.854-.862 5.161-.369 5.76 2.16 5.066-.345 7.678 3.042 7.2 7.44-1.186-2.254-2.561-4.319-5.76-4.561-.792.234-.661 2.209-2.4 1.2-1.379 4.737-10.414.573-13.92 3.36-.689.431-.659 1.581-1.2 2.16-3.957 1.621-11.676 6.262-13.92 0-.583 1.639-2.226.274-3.36.72-1.47 1.01-3.296 1.664-4.08 3.36h-.48c.702-3.778 3.032-5.929 6.48-6.96-2.796-.349-6.268.271-8.64-.96-1.751.965-5.58 2.764-7.44.72-1.047.08-1.186 2.324-2.16 1.68-.167-1.514 1.161-2.588.48-3.84-.781.052-2.158.726-3.84.24-1.607.896-3.393 2.815-4.56 3.359.901-3.578 3.198-5.762 6.48-6.96-4.328.169-8.519.199-9.84-2.64-1.014.842-1.991-.399-3.12-.24-2.398.724-3.494 4.024-5.28 4.561.971-4.469 2.485-8.396 7.92-8.4.082-1.784 1.964-2.689 3.84-1.92.594-2.525 2.872-3.369 4.8-4.56.515-.445 1.758-.162 2.64-.24 3.232-5.036 11.687-.555 15.6 0-.005-8.646 7.685-9.596 10.8-15.12-6.288-4.583-10.114-11.552-13.44-18.96-3.349-7.46-6.615-15.02-9.6-22.32-2.046-1.395-2.932-3.948-5.76-4.56-.002-1.035.766-.698 0-1.44-7.636-6.89-11.216-16.854-17.52-24.72-6.299-7.861-12.467-15.576-19.2-23.04-1.16-1.286-2.148-2.674-2.88-4.32-3.765.88-4.277-3.341-6.24-5.04-.789-.491-1.271 1.031-2.64.72-3.682-5.918-13.272-5.928-14.64-14.16a6.581 6.581 0 0 1-2.64-2.16c-.628.892-1.442 1.598-2.64 1.92.325 1.837 2.877 2.72 2.88 4.08C2.679 65.505-.667 59.218.24 49.92c.327-3.355 2.245-6.507 2.16-9.12-.07-2.136-1.491-3.889-1.44-6 .075-3.097 2.079-5.501 3.36-8.64 1.449-3.551 1.848-7.045 3.6-9.36 2.113-2.792 8.323-7.135 13.2-7.44 10.288-.642 19.469 7.088 29.04 9.36.58-.693-1.043-1.667-.96-3.12.125-2.19 3.442-5.166 5.28-6.72 2.235-1.89 5.185-3.71 7.68-4.08 3.732-.553 8.626.47 12.72 1.2 10.762 1.92 24.152 5.185 32.88 8.16-5.608-5.977 6.252-12.508 11.28-14.16zm-13.92 198.96c3.238.362 5.253 1.947 8.4 2.4.215-8.585 7.796-9.805 11.04-15.36-.733-.227-.752-1.167-1.68-1.199-2.86 7.779-11.583 9.696-17.76 14.159zm-33.84 1.44c2.677.044 5.769.949 8.4.24-1.011.051-.846-1.074-1.44-1.44-1.794.612-5.282-.943-6.96 1.2z"/></g></svg>