<svg xmlns="http://www.w3.org/2000/svg" xmlns:dc="http://dublincore.org/documents/dcmi-terms/" height="744.094" width="1052.362"><metadata><dc:description>Silhouette of Bufo, processed by PhyloPic Tools (https://github.com/eweitz/phylopic-tools)</dc:description><dc:source>http://phylopic.org/image/8a4db3f2-a7c3-4ff4-b797-3eac612080d4</dc:source><dc:creator>Michael Scroggie, from original photograph by Gary M. Stolz, USFWS (original photograph in public domain).</dc:creator><dc:license>http://creativecommons.org/publicdomain/zero/1.0/</dc:license></metadata><g transform="translate(0 -308.268)"><image height="692" width="1037.028" x="6.5" y="330.648"/><path d="M6.5 676.648v-346h1037.028v692H6.5v-346z" fill="#fcfcfc"/><path d="M270.645 1018.768c-2.87-1.792-3.867-8.502-3.852-25.934l.014-16.74-3.32-5.512c-1.825-3.032-3.318-5.939-3.318-6.46 0-.52-.6-2.108-1.335-3.526-.734-1.42-1.998-4.11-2.81-5.982-1.692-3.904-20.35-24.098-26.921-29.136-2.425-1.86-11.954-10.942-21.175-20.184l-16.765-16.802v-5.144c0-3.018-.59-5.923-1.427-7.03-.785-1.037-1.44-3.258-1.458-4.935-.017-1.677-1.996-6.926-4.398-11.663-3.564-7.029-4.369-9.578-4.374-13.852-.005-4.138-.632-6.256-2.988-10.085-2.377-3.863-3.193-6.648-4.02-13.714-.824-7.057-1.634-9.824-3.964-13.551-2.495-3.989-3.062-6.15-3.829-14.579-.495-5.442-.67-12.082-.39-14.755 1.71-16.327 2.267-18.847 4.875-22.05 1.441-1.77 4.023-5.154 5.737-7.518 2.738-3.778 7.792-7.92 13.854-11.354 1.375-.78 2.056-2.534 2.479-6.39.358-3.269 2.136-8.557 4.616-13.728 3.49-7.277 4.983-12.339 3.642-12.339-.216 0-3.101 1.53-6.411 3.402-3.31 1.87-6.431 3.402-6.936 3.402-1.891 0-8.833 4.09-12.379 7.293-2.568 2.32-4.97 3.497-7.974 3.905-2.364.32-9.206 3.052-15.205 6.07-9.035 4.544-11.786 5.493-16.036 5.528l-5.13.043-.263-4.86-.264-4.859 14.095-13.03c7.752-7.165 16.236-14.6 18.854-16.522 2.617-1.92 9.405-7.395 15.083-12.165l10.323-8.672v-28.026l3.402-3.974c2.783-3.252 3.41-4.782 3.448-8.416.026-2.448.879-5.969 1.9-7.844 4.291-7.88 5.565-11.53 6.193-17.748.365-3.614 1.089-7.688 1.608-9.053.519-1.365.944-4.33.944-6.59 0-3.56.55-4.64 4.13-8.093 2.272-2.191 5.514-4.679 7.204-5.528 3.533-1.776 7.132-5.966 7.132-8.305 0-1.788 10.607-12.716 12.342-12.716.61 0 3.502-2.188 6.428-4.862 3.492-3.191 7.103-5.438 10.51-6.538 4.441-1.435 7.295-3.693 19.785-15.654 14.337-13.73 21.884-21.87 21.884-23.6 0-.48 1.344-2.73 2.985-4.996 3.357-4.637 11.397-9.646 19.117-11.91 3.767-1.106 6.71-3.007 11.3-7.302 3.415-3.194 7.053-5.807 8.086-5.807 1.032 0 2.726-.656 3.763-1.458 3.192-2.467 10.252-5.345 13.113-5.345 1.495 0 4.024-1.1 5.621-2.443 1.597-1.344 4.583-3.135 6.635-3.981 2.052-.846 4.606-2.315 5.675-3.264 2.016-1.79 3.492-2.244 14.093-4.323 3.52-.69 7.992-2.382 10.098-3.82 2.079-1.418 4.484-2.593 5.345-2.61.861-.016 3.752-1.106 6.425-2.42 3.4-1.673 6.499-2.394 10.317-2.4 3.85-.006 6.14-.545 7.775-1.83 2.634-2.068 6.744-2.77 21.3-3.634 9.85-.585 10.345-.519 13.122 1.758 7.113 5.833 8.897 6.376 23.295 7.082 22.37 1.096 25.971 1.014 32.002-.73 3.168-.916 9.115-1.946 13.215-2.288 9.882-.824 15.567 1.022 21.375 6.939 3.71 3.781 4.812 4.357 8.328 4.357 4.463 0 5.728-.998 6.784-5.35.388-1.601 1.517-4.072 2.508-5.49.991-1.42 1.816-3.607 1.833-4.86.017-1.254.673-3.13 1.458-4.167.785-1.037 1.427-3.238 1.427-4.89 0-2.384 1.21-4.199 5.869-8.804l5.868-5.801 18.239.257 18.238.258 20.775 6.837c24.653 8.113 28.603 9.73 37.074 15.175 3.543 2.278 9.696 5.624 13.672 7.436 5.26 2.397 9.85 5.649 16.846 11.935 19.154 17.21 23.784 21.97 23.784 24.453 0 3.11 5.859 8.972 8.966 8.972 2.798 0 6.08 3.318 6.958 7.034.346 1.463 1.825 3.412 3.287 4.332 1.461.92 3.893 2.674 5.404 3.9 1.511 1.225 3.512 2.228 4.447 2.228 2.649 0 5.927 4.14 5.927 7.483 0 2.197.705 3.432 2.672 4.68 4.678 2.967 8.102 6.611 12.486 13.289 2.347 3.574 4.708 6.77 5.246 7.103.538.333.978 1.933.978 3.556s.58 4.113 1.29 5.531c9.712 19.423 15.217 31.39 15.717 34.167 1.87 10.385 1.803 10.924-1.966 15.75l-3.572 4.575 1.961 2.715c1.078 1.494 8.448 8.968 16.376 16.61a8080.932 8080.932 0 0 1 25.593 24.783c10.736 10.461 11.54 11.03 20.41 14.462 10.324 3.994 20.155 7.148 25.27 8.107 1.87.35 6.756 1.675 10.858 2.944 4.1 1.268 11.06 2.758 15.465 3.31 8.946 1.122 11.844 2.853 11.384 6.798-.364 3.118-4.612 5.216-17.277 8.531-6.52 1.707-11.837 2.426-18 2.436-7.996.012-9.96-.405-22.84-4.858-19.039-6.58-23.551-8.434-32.073-13.177-6.59-3.667-27.589-13.789-34.247-16.507-6.266-2.558-4.844 3.416 3.614 15.19 5.502 7.659 6.848 15.063 3.203 17.616-6.245 4.374-14.364-.517-31.274-18.84-32.166-34.85-29.604-32.548-34.666-31.15-1.864.514-5.26 2.84-7.545 5.17-3.71 3.78-4.255 4.938-5.087 10.814-.522 3.684-1.782 7.774-2.864 9.293-1.063 1.493-1.933 3.376-1.933 4.184 0 2.062-3.524 10.054-5.91 13.406l-1.997 2.804 2.077 2.918c2.542 3.569 4.815 4.858 8.57 4.858 7.805 0 21.534 10.96 27.895 22.266 4.112 7.311 5.755 9.41 9.611 12.282l3.976 2.962-.23 11.528c-.176 8.732-.592 11.925-1.718 13.17-1.353 1.494-3.02 6.392-5.294 15.545-.465 1.87-1.155 8.868-1.534 15.55-.542 9.554-1.079 12.7-2.517 14.729-2.155 3.042-2.318 8.105-.37 11.513 1.97 3.445 1.778 8.175-.482 11.882-1.646 2.7-1.94 4.904-1.944 14.528-.004 10.68-.146 11.514-2.433 14.233-2.767 3.289-3.06 5.774-1.003 8.495 2.623 3.468 1.77 6.725-3.37 12.878-4.682 5.602-4.86 6.037-4.86 11.828 0 5.367-.35 6.445-3.26 10.062-1.793 2.229-3.791 6.02-4.44 8.425a855.158 855.158 0 0 1-1.864 6.804c-1.063 3.778-6.119 11.706-9.888 15.507-1.88 1.895-4.468 4.928-5.753 6.74-4.7 6.631-8.965 9.77-13.31 9.8-2.352.015-4.512.629-5.221 1.483-.87 1.049-3.17 1.458-8.186 1.458-3.837 0-7.447.472-8.023 1.048-.577.576-2.523 1.412-4.325 1.858-1.803.446-4.59 1.275-6.194 1.843-1.603.567-5.54 1.76-8.747 2.65-13.343 3.703-15.905 4.505-23.326 7.302-19.387 7.308-33.018 14.542-50.515 26.812-17.889 12.544-22.834 14.197-27.913 9.33-2.504-2.398-2.726-3.195-2.726-9.767 0-9.131 1.534-12.157 7.762-15.313 2.64-1.338 6.238-3.674 7.995-5.19 5.333-4.603 10.818-7.938 13.053-7.938 2.254 0 7.15-5.043 7.15-7.364 0-.76-.894-1.383-1.988-1.383-3.703 0-40.08 5.884-47.986 7.761-38.839 9.224-37.362 8.95-43.64 8.108l-6.006-.804-.31-3.773c-.26-3.165.203-4.301 2.864-7.047 1.745-1.8 3.73-3.273 4.412-3.273 1.87 0 12.17-4.725 14.092-6.465.928-.84 5.02-2.156 9.095-2.925 4.423-.835 10.491-2.953 15.06-5.257 8.558-4.315 12.273-5.288 27.68-7.25 16.62-2.117 19.195-2.778 24.173-6.203 2.558-1.76 7.198-4.235 10.312-5.5 8.916-3.623 14.596-7.853 14.596-10.87 0-3.492-8.688-11.901-12.296-11.901-2.597 0-8.126-4.895-11.714-10.371-1.622-2.476-1.606-2.507 4.291-8.206 5.74-5.548 6.078-5.72 11.186-5.72 4.624 0 5.758.419 9.275 3.43 4.926 4.216 12.818 7.874 18.872 8.748 3.75.541 5.26.257 8.6-1.62 6.594-3.706 8.388-7.987 9.146-21.819.498-9.09.358-11.976-.62-12.764-.696-.56-6.046-1.335-11.89-1.723-5.844-.388-12.404-1.346-14.579-2.128-8.55-3.078-25.27-5.197-45.745-5.8-18.688-.549-21.313-.416-31.101 1.57-6.594 1.337-13.277 3.435-17.437 5.474-3.71 1.818-7.864 3.307-9.233 3.31-1.368.001-3.952.895-5.74 1.986-3.279 1.998-9.173 3.536-18.13 4.73-2.673.357-6.04 1.432-7.485 2.39-7.371 4.89-18.375 6.32-54.25 7.049-25.689.521-25.831.513-42.157-2.477-18.187-3.33-38.271-8.504-47.387-12.208-3.284-1.335-9.173-4.837-13.086-7.782-4.263-3.209-8.102-5.355-9.576-5.355-2.225 0-2.46.374-2.46 3.908 0 2.487-.855 5.226-2.351 7.532-2.006 3.092-4.453 13.485-4.453 18.914 0 1.684 6.602 8.882 9.551 10.412 1.305.678 5.826 1.137 10.691 1.087 4.636-.048 17.635.247 28.885.655 22.304.809 24.725 1.426 26.78 6.829 1.85 4.865.423 6.852-7.76 10.809-8.678 4.196-15.2 5.435-36.074 6.85-19.021 1.29-22.47 1.873-25.026 4.224-3.337 3.069-3.062 10.624.593 16.304 2.862 4.448 14.757 16.322 22.49 22.45 5.226 4.14 28.09 15.362 40.356 19.806 18.4 6.665 25.027 12.8 21.401 19.813-1.593 3.08-2.652 3.372-16.34 4.492-14.908 1.22-24.36-1.986-47.361-16.062-5.862-3.587-12.783-6.804-18.953-8.81-8.535-2.774-11.08-3.17-20.896-3.254l-11.177-.095-.301 2.428c-.166 1.336-.912 4.179-1.658 6.317-1.632 4.68-3.386 20.998-3.386 31.506 0 5.501-.395 7.946-1.423 8.799-1.897 1.575-16.067 2.359-18.23 1.009z" fill="#010101"/></g></svg>