<svg xmlns="http://www.w3.org/2000/svg" xmlns:dc="http://dublincore.org/documents/dcmi-terms/" height="1024" viewBox="0 0 792 1024" width="792"><metadata><dc:description>Silhouette of Byrrhoidea, processed by PhyloPic Tools (https://github.com/eweitz/phylopic-tools)</dc:description><dc:source>http://phylopic.org/image/7bbb9fe5-990b-4ebb-9efe-c115f24c5c22</dc:source><dc:creator>Crystal Maier</dc:creator><dc:license>http://creativecommons.org/licenses/by/3.0/</dc:license></metadata><g fill-rule="evenodd"><path d="M415.651 628.939c.364-.078.405.168.429.43 5.369.068 13.326 1.154 18.887 1.287.865.021 1.342.008 1.288-.857 3.602 2.836 9.304 3.572 13.735 5.58.504-.07.363-.783.43-1.289 5.375 4.902 12.021 7.875 17.17 12.02.459 2.689.934 5.363 3.434 6.01 1.17-.404.982-2.166 1.288-3.434 5.272-.889 11.614-2.881 17.599-3.436 5.59 2.137 12.113 3.342 15.453 7.727.265 1.596 1.022 2.697 1.287 4.293 4.707.57 8.686 3.717 13.307 6.439 6.816 4.014 9.318 7.381 11.59 15.451 4.782 6.666 13.499 9.395 17.17 17.17 4.117 5.184 11.502 7.1 16.311 11.59 3.201-1.498 2.535.906 6.439.43.827-.174.34-1.664 1.717-1.287.879-10.361 5.621-18.43 4.293-26.613.064-.795 1.453-.264 1.717-.859-.64-9.859 2.945-19.043 9.014-23.607.498-7.844-2.406-14.414-2.575-20.176 6.284 1.156 6.353 8.529 8.585 13.736 1.967-.895.623-5.1 1.717-6.867 12.167 2.203-3.826 17.148 4.293 19.744-1.619 5.303-.646 10.807-2.576 15.883-.5 1.314-1.557 2.16-2.146 3.434-1.323 2.857-1.523 6.639-3.004 9.873-1.322 2.885-2.782 5.908-4.293 9.014-1.473 3.029-4.838 5.514-5.58 7.727-1.266 3.775.576 7.443-.43 11.16 6.761 1.229 13.879.271 18.458 3.006 5.032-4.658 15.974-.85 18.458-8.156-1.158-2.432-1.269-5.537-.43-9.014 1.43-.746 1.904.215 3.863 0 .887-3.352-2.45-4.604-2.576-7.727-.066-1.672 1.787-3.219 1.717-5.152-.074-2.076-1.902-3.697-2.574-5.58-1.742-4.871-2.258-10.523-5.151-14.594.968-.988 2.599-1.787 1.288-3.863 1.138-.006 2.527.238 2.574-.857 7.494 8.102 20.159 11.033 18.887 27.9.391.896 1.268 1.309 2.576 1.287 1.422 5.125-1.548 9.012-2.576 12.449-1.225 4.096-.206 8.824-3.004 12.018-1.328.389-2.364 1.07-3.434 1.717-.928 6.66-5.91 5.656-12.02 8.156-1.548.633-3.035 2.973-4.292 3.434-4.128 1.518-7.923-1.281-12.019-1.287-1.657-.004-2.877 1.074-4.293 1.287-7.317 1.098-10.322-3.695-16.74-4.721-2.26-.363-4.819.973-6.868-.43-2.63.664-1.054 3.184-1.717 5.15-.655 1.941-3.858 4.881-2.575 6.869.827 1.279 1.434 3.195 2.575 4.721 3.659 4.887 10.056 10.523 9.015 16.74 4.863 2.004 4.561 9.176 7.726 12.877.384 4.768 1.587 8.715 3.435 12.02 1.684 7.127 2.815 16.703 5.58 23.18 2.849 6.674 10.055 8.965 13.735 15.023 4.159 2.422 7.745 5.418 10.302 9.443 2.037-.178 2.256 1.465 4.293 1.287.566 1.58 2.052 2.24 2.146 4.293 8.475.395 5.975 11.768 13.735 12.877-.073 1.217 1.452.838.858 2.576 5.766-.33 5.174 5.699 10.302 6.008.622 1.623-1.179.824-.858 2.146 1.014 3.564 4.074 5.084 6.867 6.869 1.467 5.467 2.563 12.121 6.01 17.598 3.445-.154 5.75.832 7.297 2.576 3.287-.004 5.198-1.385 7.727-2.146 2.341-5.242 10.738-4.428 14.594-8.156 5.029.021 8.303-1.713 13.307-1.717.916-.199.818.613.859 1.289 1.443.012 2.271-.592 3.004-1.289.744 1.26 2.096 1.912 3.436 2.576.291 1.568.598 3.121.428 5.15 5.371 1.268 11.402 6.646 6.439 12.02 1.158 2.275 2.805 4.063 2.146 8.156-.936 1.498-2.533 2.332-3.006 4.291-8.646 2.656-19.779 2.828-27.471 6.439-4.613 4.234-8.51 6.047-15.023 9.873-2.477 1.453-3.488 3.658-7.297 3.434-10.707 7.32-22.747 13.309-36.486 17.6-.854 1.865-3.568 1.867-5.15 3.004-3.459 2.879-6.014 12.238-3.006 16.74 1.555 2.324 4.918 4.99 6.439 8.156 1.051 2.188.924 4.857 1.717 6.867 1.317 3.336 3.98 6.383 6.01 9.873.602 1.035 1.807 2.279 2.146 3.004.27.58-.298 1.584 0 2.146 1.688 3.195 3.688 6.139 5.58 8.586 1.51 9.674 6.008 20.863 10.73 27.471.311 1.313-.438 1.564-.43 2.576 3.349 2.584.914 8.16 2.576 11.59.136.279 1.337 1.09 1.287.857.673 3.17.318 7.004 1.288 10.73.204.781.995 1.348 1.288 2.146 1.164 3.191.607 6.867 1.287 10.303.813 4.096 1.838 8.109 2.576 12.447 1.309 7.689 3.974 13.994.43 21.463 2.305.758 5.453-1.043 7.726-1.717 5.892 3.014 14.882-.418 18.888 4.721 2.646 3.396 4.322 9.002 8.154 12.449-1.697 11.836-1.1 24.357-4.721 34.768-2.031 5.842-6.23 10.314-6.439 17.17-.092 3.043-.715 5.576-1.717 9.443-.717 2.762-.605 5.857-1.287 8.156-.81 2.725-3.404 5.803-4.293 9.443-.354 1.451.043 2.975-.43 4.293-1.25 3.492-3.984 6.135-5.15 9.443-1.968 5.58-1.613 13.803-4.293 18.457-2.734 4.752-7.065 6.271-8.584 9.873-1.474 3.49-2.588 8.666-3.006 13.734-.176 2.152.469 3.906 0 6.439-.475 2.578-2.678 4.76-3.434 7.297-2.234 7.498-3.089 15.07-5.15 23.609-1.875 7.77-5.414 14.555-8.156 21.891-1.983 5.309-2.428 11.385-6.438 15.453-4.283 12.887-12.328 22.012-16.741 34.768 1.542 3.459 4.907 5.414 6.438 9.016.756 1.773.515 4.047 1.288 6.008 2.288 5.805 8.112 10.217 10.731 16.313.686 1.596.731 3.617 1.287 5.15 1.722 4.748 4.541 9.371 6.868 13.307.812 1.371 2.509 2.828 3.005 4.293.55 1.623.084 3.672.429 5.15 2.179 9.336 10.897 22.639 13.735 34.77.371 1.582-.014 2.912.43 4.291 2.521 7.838 7.391 18.148.859 24.896 3.35 8.48 8.33 20.293 3.004 29.189-1.824-5.924.391-15.238-3.863-19.746-3.155 5.572.639 18.094-4.293 21.893-2.295-8.561 1.129-16.643-.857-25.326-1.028-4.492-5.227-7.406-6.868-11.59-1.214-3.096-1.284-6.01-1.718-9.873-1.191-10.65-3.249-22.945-6.009-32.621-.886-3.105-2.144-7.289-3.435-9.873-.748-1.5-2.568-2.482-3.434-3.863-3.102-4.957-3.025-11.037-6.01-16.313-.988-1.748-2.706-2.979-3.862-4.721-3.257-4.904-3.612-11.1-6.438-15.883-.706-.725-2.33-.531-3.005-1.287-.462-4.689-5.56-4.742-6.01-9.443-7.044 2.549-11.243 12.211-16.74 17.6-2.195 2.15-4.941 3.436-6.868 5.58-5.002 5.568-10.303 11.061-15.023 17.17h-1.287c-6.195 8.541-15.836 13.637-22.321 21.891-11.222 6.092-19.154 15.471-30.905 21.033-2.846 1.875-5.979 3.783-9.014 5.58-3.029 1.795-6.896 2.824-8.586 6.01-5.609.256-8.545 3.188-11.59 6.01-7.568 3.162-14.283 7.178-19.315 12.877-.497.359-1.15.566-2.146.43-6.373 6.744-15.061 13.238-22.75 18.027-3.668 2.285-6.123 4.248-9.015 6.867-.345-.227-.696-.447-1.288-.428-.949.623-1.221 1.926-2.146 2.574-3.844-.08-4.503 3.684-8.154 2.576-3.195 2.947-10.504 4.434-15.453 3.004-.938.064-.922 1.082-.859 2.146-4.855 1.051-11.459 1.004-16.74.43-2.188-.238-5.139-1.336-6.009-3.004-4.757.92-9.018-2.057-12.019-4.293-8.24.148-13.028-6.66-19.745-9.443a16.252 16.252 0 0 0-1.717-3.006c-13.858-7.039-22.576-22.916-37.344-30.475-.247-.898-1.063-1.227-.858-2.576-7.787-.797-10.791-6.379-18.458-7.297-1.386-3.051-5.668-3.203-7.297-6.01-3.097-.336-4.972-1.896-6.868-3.434-1.011.01-1.263-.74-2.575-.43-11.961-9.645-25.3-17.91-35.198-29.617-9.463-6.678-14.618-18.367-22.75-24.039-3.984.453-6.089 2.783-9.443 3.863-2.907 6.68-3.925 15.248-10.731 18.029-7.706 14.186-8.906 34.877-21.462 44.211-.481 4.818.667 10.148.429 13.307-8.903-.105.535-14.094-6.009-15.881-2.613.391-1.308 4.701-4.292 4.721-4.006-1.916 1.281-5.807 2.146-8.154.22-1.795-.239-2.91-.858-3.863 3.083-17.236 13.055-27.58 21.462-39.49.822-10.34 8.726-13.596 12.877-20.605-.289-4.02 4.647-6.793 3.005-11.16-.924-2.455-4.703-8.205-6.868-10.73-.535-.623-1.629-.391-2.146-.857-2.353-2.131-3.309-5.541-5.151-8.156-7.895-11.217-14.854-22.662-18.887-34.77-.643-.645-1.291-1.283-2.146-1.717-1.226-6.373-5.709-11.725-6.009-17.6-4.699-6.41-6.401-15.832-10.302-24.895-2.649-1.93-4.566-4.592-6.438-7.297-2.525-1.197-4.898-2.543-6.009-5.152-10.973-7.627-20.599-16.602-29.618-26.184h-1.717c-2.322-3.83-6.048-6.258-7.297-11.16-6.448-4.141-8.026-13.15-9.873-21.891-4.797-3.48-9.732-8.961-8.585-16.313.692-4.438 6.049-7.326 6.438-11.59 1.32-1.264 4.803-2.625 3.863-4.721.282-1.285.917.41 1.717 0 4.318-4.561 11.931-5.043 18.028-6.867-.257 1.115.172 1.543 1.288 1.287 5.986-4.818 14.722-6.979 23.608-8.586-.949-5.807 1.589-10.707 1.717-16.311.052-2.291-.649-4.764-.429-7.297.233-2.689 1.513-5.637 1.717-8.586.376-5.443-.664-9.641 2.146-12.018.021-.92-1-2.953-1.717-1.717-1.172-1.086.685-1.096.858-1.717.436-1.561-.339-3.811 0-6.01.671-4.348 3.764-7.318 2.146-13.307 1.401-1.604 1.738-4.271 2.146-6.869.193-1.193-2.339.338-2.146-.857 1.706-20.527 4.555-41.186 10.302-58.807-.464-2.398-2.252-3.471-1.717-6.867.493-1.51 3.223-.783 3.004-3.006-1.833-1.242-3.645 1.209-5.151 1.717-13.76-10.75-31.749-22.367-41.637-38.201-.664-1.064-.64-2.449-1.288-3.436-3.222-4.898-7.414-8.961-6.009-16.74.012-1.418 1.812-1.049 2.146-2.146.335-4.578-3.389-6.082-2.146-10.301-5.956-3.57-4-15.176.429-18.887 1.793-.363 2.027.834 3.434.857 1.858-1.617 1.896-3.619.429-5.58 2.408-1.434 7.375-2.031 8.155 1.289 4.665-2.406 9.638-1.846 16.312-2.146.83.6 1.273 1.59 1.717 2.576 5.1-.451 11.379-2.432 15.023.428 1.828-1.67 1.137-4.957-.429-7.297 1.457-7.414 4.428-13.314 9.873-16.74 1.378-.377.89 1.113 1.717 1.287 2.424-1.008 2.375-4.492 5.58-4.721-.394-7.705 4.003-10.852 7.297-15.883 1.471-2.244 2.355-4.832 3.434-6.01 2.519-2.746 7.569-3.039 8.585-7.297.507.494 1.517.486 2.575.43 2.566-7.02 11.168-8.006 14.594-14.164 3.647 2.09 6.02-3.414 8.585-5.152 1.78-.492 1.672.904 3.005.859.432-1.164-.356-4.783-1.717-5.58 2.21-6.164 1.278-12.865 3.005-20.604 1.049-4.703 2.541-10.502 3.863-15.883.5-2.037.089-4.152.429-6.01.453-2.471 2.033-4.738 2.575-7.297 1.004-4.738-.084-10.494 3.863-13.307.132-2.73.488-5.234.858-7.727.764-.801 1.091.35 2.576 0-.627-9.795 5.511-16.125 7.727-24.467 1.058.057 2.068.064 2.575-.43-.266-1.164.545-3.406-.429-3.861 1.817-4.338 5.893-6.414 6.868-11.59 5.11-4.621 10.764-8.697 14.165-15.023 4.23-.053 5.027-4.053 7.297-6.439 1.19-1.25 3.197-1.836 4.722-3.004 3.624-2.777 5.283-7.254 10.302-9.016 2.735 1.83 4.696-1.729 8.585 0 2.172-4.061 5.718-4.363 10.302-5.58 1.616-5.578 6.943-5.959 6.438-12.877-.282-1.285-.917.41-1.717 0 1.7-6.48-.936-15.4.429-21.891 4.638.217 6.537-4.549 9.443-6.439 3.008-1.955 8.402-2.275 12.448-3.863 2.395-.939 6.032-2.383 9.014-3.434 1.633-.631.084 1.918 1.717 1.287 2.416.127.878-3.701 3.005-3.863-1.348-4.563-9.617-2.012-16.312-.428-6.08 1.436-10.688 3.838-16.74 3.863-1.171.004-2.834-.572-3.434-.43-7.982 1.887-17.272 19.127-28.33 17.17-7.091 4.256-7.937 13.457-15.882 16.74-.836.346-2.154-.006-3.005.43-6.493 3.318-8.566 14.15-17.599 14.594-4.722 2.889-6.448 8.795-11.589 12.02-1.891 1.184-4.31.777-6.438 1.717-6.416 2.83-10.388 12.434-18.458 14.164-.71.152-1.446-.496-2.576-.43-7.287.432-15.411 14.168-25.325 9.016-8.44 1.654-20.28 8.152-28.759 3.004-8.374-1.104-20.378 1.943-27.901-1.287-1.626-.699-2.498-2.646-3.863-3.436-9.482-5.48-30.833-2.676-33.91-13.734-9.578-4.133-20.509-6.734-27.472-13.307-2.198-2.076-2.571-5.287-5.58-6.439-2.396-6.475-7.829-9.912-9.873-16.74 5.583-2.773 9.873 2.16 15.023 2.576 1.406 1.74 2.672 3.623 5.58 3.863 8.063 7.533 17.666 13.525 25.326 21.461 1.697.02 2.489.945 3.863 1.289 10.077-3.359 17.23 5.828 24.467 9.443 2.419-.9 4.929-.33 6.009 1.287 10.085-4.07 19.492 5.35 29.618 5.15 6.246-4.012 14.453-1.217 23.608-1.717.543-1.688-1.012-1.277-2.146-1.287 1.571-.785 3.558-2.236 5.581-1.289 5.184-3.543 13.135-4.32 20.604-5.58 4.535-10.488 22.108-7.939 24.467-20.604 5.067-2.086 10.373-3.936 14.594-6.867.249-1.393-.292-1.996-.429-3.004 4.957-6.84 19.097-6.574 18.887-17.17.77-.055.905.525 1.717.428 4.241-4.342 11.041-6.127 15.023-10.73.237-1.338.35-2.797.858-3.863 1.692-3.889 4.943-6.217 7.727-9.014 3.771-.664 6.934-1.938 9.014-4.293 8.098-.916 13.566-4.463 17.599-9.443 1.92-.369 3.929-.648 5.151-1.717 3.408-.313 8.005.564 9.014-2.146 8.011 2.787 22.817 2.986 31.335 7.727.235.625-.501 2.219.429 2.146.796-2.494 3.789-2.793 3.863-6.01 2.489 4.746 3.172-4.389 8.155-2.574 1.65-1.07 1.476-3.963 4.292-3.863 1.382-8.217 9.512-5.541 15.882-6.439 1.019-.145 2.834-.01 3.004-1.717 1.249.373.483.643.429 1.717 9.01.953 13.16-3.244 20.175-2.576v-1.283zM558.16 719.51c-.185-.816-.924-1.078-.858-2.146-6.206-2.521-8.45-9.006-13.735-12.447-10.371-2.65-12.25-13.793-19.316-19.746-1.708-.277-1.727 1.137-3.434.859-3.877 7.055 1.645 15.531 2.146 21.461 1.272.875 2.388 1.906 3.863 2.576 1.714-.574 1.437-3.143 3.863-3.004 1.401.459.769 2.951 2.575 3.004.996-.137 1.648.068 2.146.43.073-.643-.152-1.584.43-1.717 1.685.891 4.309.842 5.15 2.574-.093 1.57-.59 1.646 0 3.006 3.918-.24 7.941 2.473 8.585 6.867 4.001 1.723 5.921 5.525 10.731 6.439-.408-3.271.285-5.439 1.287-7.297-1.05-.379-1.573-1.287-3.433-.859zm47.647 127.914c.883 7.988 1.671 16.072 3.863 22.75 8.461 3.158 17.585 6.252 26.184 10.303 1.738 2.67 6.635 4.08 9.014 4.721-4.039-9.701-13.789-17.398-21.033-25.324-1.92-.084-3.539-.469-4.292-1.717 1.188.072 1.474-.66.858-1.289-2.834-2.887-5.904-5.541-11.59-5.58-.051-1.623 2.51-.637 2.576-2.146-1.594-1.333-3.011-2.388-5.58-1.718zm-406.924 55.373c2.184.18 2.795-1.211 3.863-2.146-.056.771.426 1.004 1.288.859 5.151-2.205 12.864-1.672 13.307-8.586-9.188-2.121-13.254 4.707-18.458 9.873zm-60.093 87.137c7.96 8.42 17.571 15.48 30.476 18.887 1.378.377.89-1.113 1.717-1.287.882.404.364 2.211 1.717 2.145.788-6.652 5.387-9.494 5.58-16.74-17.155-4.693-28.207-15.945-48.933-15.881 2.263 4.801 5.899 9.128 9.443 12.876zm8.584 238.23c-.216-4.533.981-7.324-1.717-9.443-11.866-3.48-17.412 3.656-27.472 6.01 2.908 6.049 7.829 11.516 12.448 16.74 5.118 5.789 11.317 12.264 18.887 14.594 2.662-8.155-1.694-18.438-2.146-27.901z"/><path d="M561.594 720.369c-1.002 1.857-1.695 4.025-1.287 7.297-4.811-.914-6.73-4.717-10.731-6.439-.644-4.395-4.667-7.107-8.585-6.867-.59-1.359-.093-1.436 0-3.006-.842-1.732-3.466-1.684-5.15-2.574-.582.133-.356 1.074-.43 1.717-.498-.361-1.15-.566-2.146-.43-1.807-.053-1.174-2.545-2.575-3.004-2.427-.139-2.149 2.43-3.863 3.004-1.476-.67-2.591-1.701-3.863-2.576-.501-5.93-6.022-14.406-2.146-21.461 1.707.277 1.726-1.137 3.434-.859 7.066 5.953 8.945 17.096 19.316 19.746 5.285 3.441 7.529 9.926 13.735 12.447-.065 1.068.674 1.33.858 2.146 1.859-.428 2.382.48 3.433.859zM611.387 849.141c-.066 1.51-2.627.523-2.576 2.146 5.686.039 8.756 2.693 11.59 5.58.615.629.33 1.361-.858 1.289.753 1.248 2.372 1.633 4.292 1.717 7.244 7.926 16.994 15.623 21.033 25.324-2.379-.641-7.275-2.051-9.014-4.721-8.599-4.051-17.723-7.145-26.184-10.303-2.192-6.678-2.98-14.762-3.863-22.75 2.569-.669 3.986.386 5.58 1.718zM217.341 892.924c-.442 6.914-8.156 6.381-13.307 8.586-.861.145-1.343-.088-1.288-.859-1.068.936-1.68 2.326-3.863 2.146 5.204-5.166 9.27-11.994 18.458-9.873zM129.346 977.057c20.726-.064 31.778 11.188 48.933 15.881-.193 7.246-4.792 10.088-5.58 16.74-1.353.066-.835-1.74-1.717-2.145-.827.174-.339 1.664-1.717 1.287-12.905-3.406-22.516-10.467-30.476-18.887-3.543-3.747-7.179-8.074-9.443-12.876zM149.521 1256.064c-7.569-2.33-13.769-8.805-18.887-14.594-4.619-5.225-9.54-10.691-12.448-16.74 10.06-2.354 15.606-9.49 27.472-6.01 2.698 2.119 1.501 4.91 1.717 9.443.451 9.464 4.807 19.747 2.146 27.901z" fill="#fff"/><path d="M1.002 591.166h788.949v964.51H.573V592.453c-.037-.609-.071-1.215.429-1.287zm414.649 39.061c-7.015-.668-11.165 3.529-20.175 2.576.054-1.074.82-1.344-.429-1.717-.17 1.707-1.986 1.572-3.004 1.717-6.371.898-14.5-1.777-15.882 6.439-2.816-.1-2.643 2.793-4.292 3.863-4.983-1.814-5.667 7.32-8.155 2.574-.075 3.217-3.067 3.516-3.863 6.01-.931.072-.194-1.521-.429-2.146-8.518-4.74-23.324-4.939-31.335-7.727-1.009 2.711-5.606 1.834-9.014 2.146-1.222 1.068-3.23 1.348-5.151 1.717-4.033 4.98-9.501 8.527-17.599 9.443-2.08 2.355-5.242 3.629-9.014 4.293-2.783 2.797-6.034 5.125-7.727 9.014-.508 1.066-.621 2.525-.858 3.863-3.982 4.604-10.782 6.389-15.023 10.73-.812.098-.947-.482-1.717-.428.21 10.596-13.93 10.33-18.887 17.17.137 1.008.678 1.611.429 3.004-4.222 2.932-9.527 4.781-14.594 6.867-2.359 12.664-19.932 10.115-24.467 20.604-7.468 1.26-15.419 2.037-20.604 5.58-2.022-.947-4.009.504-5.581 1.289 1.134.01 2.69-.4 2.146 1.287-9.156.5-17.362-2.295-23.608 1.717-10.125.199-19.533-9.221-29.618-5.15-1.081-1.617-3.59-2.188-6.009-1.287-7.237-3.615-14.39-12.803-24.467-9.443-1.375-.344-2.167-1.27-3.863-1.289-7.66-7.936-17.263-13.928-25.326-21.461-2.908-.24-4.174-2.123-5.58-3.863-5.15-.416-9.441-5.35-15.023-2.576 2.043 6.828 7.476 10.266 9.873 16.74 3.009 1.152 3.382 4.363 5.58 6.439 6.962 6.572 17.894 9.174 27.472 13.307 3.077 11.059 24.428 8.254 33.91 13.734 1.365.789 2.237 2.736 3.863 3.436 7.522 3.23 19.527.184 27.901 1.287 8.479 5.148 20.319-1.35 28.759-3.004 9.915 5.152 18.038-8.584 25.325-9.016 1.129-.066 1.865.582 2.576.43 8.069-1.73 12.042-11.334 18.458-14.164 2.128-.939 4.548-.533 6.438-1.717 5.142-3.225 6.868-9.131 11.589-12.02 9.033-.443 11.106-11.275 17.599-14.594.851-.436 2.168-.084 3.005-.43 7.945-3.283 8.791-12.484 15.882-16.74 11.058 1.957 20.348-15.283 28.33-17.17.6-.143 2.263.434 3.434.43 6.052-.025 10.661-2.428 16.74-3.863 6.695-1.584 14.964-4.135 16.312.428-2.127.162-.589 3.99-3.005 3.863-1.632.631-.084-1.918-1.717-1.287-2.982 1.051-6.62 2.494-9.014 3.434-4.046 1.588-9.44 1.908-12.448 3.863-2.907 1.891-4.806 6.656-9.443 6.439-1.365 6.49 1.271 15.41-.429 21.891.8.41 1.435-1.285 1.717 0 .504 6.918-4.822 7.299-6.438 12.877-4.583 1.217-8.129 1.52-10.302 5.58-3.889-1.729-5.85 1.83-8.585 0-5.019 1.762-6.678 6.238-10.302 9.016-1.524 1.168-3.531 1.754-4.722 3.004-2.271 2.387-3.067 6.387-7.297 6.439-3.401 6.326-9.055 10.402-14.165 15.023-.975 5.176-5.051 7.252-6.868 11.59.974.455.164 2.697.429 3.861-.507.494-1.517.486-2.575.43-2.215 8.342-8.354 14.672-7.727 24.467-1.484.35-1.812-.801-2.576 0-.371 2.492-.727 4.996-.858 7.727-3.948 2.813-2.859 8.568-3.863 13.307-.542 2.559-2.123 4.826-2.575 7.297-.34 1.857.071 3.973-.429 6.01-1.323 5.381-2.814 11.18-3.863 15.883-1.727 7.738-.795 14.439-3.005 20.604 1.361.797 2.149 4.416 1.717 5.58-1.333.045-1.225-1.352-3.005-.859-2.565 1.738-4.938 7.242-8.585 5.152-3.426 6.158-12.028 7.145-14.594 14.164-1.058.057-2.068.064-2.575-.43-1.016 4.258-6.066 4.551-8.585 7.297-1.079 1.178-1.963 3.766-3.434 6.01-3.294 5.031-7.691 8.178-7.297 15.883-3.204.229-3.155 3.713-5.58 4.721-.828-.174-.339-1.664-1.717-1.287-5.445 3.426-8.416 9.326-9.873 16.74 1.566 2.34 2.257 5.627.429 7.297-3.644-2.859-9.923-.879-15.023-.428-.444-.986-.887-1.977-1.717-2.576-6.673.301-11.646-.26-16.312 2.146-.781-3.32-5.747-2.723-8.155-1.289 1.466 1.961 1.429 3.963-.429 5.58-1.407-.023-1.641-1.221-3.434-.857-4.429 3.711-6.385 15.316-.429 18.887-1.243 4.219 2.481 5.723 2.146 10.301-.334 1.098-2.134.729-2.146 2.146-1.405 7.779 2.787 11.842 6.009 16.74.648.986.624 2.371 1.288 3.436 9.888 15.834 27.876 27.451 41.637 38.201 1.506-.508 3.317-2.959 5.151-1.717.218 2.223-2.511 1.496-3.004 3.006-.536 3.396 1.253 4.469 1.717 6.867-5.747 17.621-8.596 38.279-10.302 58.807-.193 1.195 2.339-.336 2.146.857-.408 2.598-.745 5.266-2.146 6.869 1.617 5.988-1.476 8.959-2.146 13.307-.339 2.199.436 4.449 0 6.01-.173.621-2.031.631-.858 1.717.717-1.236 1.738.797 1.717 1.717-2.81 2.377-1.77 6.574-2.146 12.018-.204 2.949-1.483 5.896-1.717 8.586-.22 2.533.481 5.006.429 7.297-.128 5.604-2.667 10.504-1.717 16.311-8.887 1.607-17.622 3.768-23.608 8.586-1.115.256-1.544-.172-1.288-1.287-6.097 1.824-13.71 2.307-18.028 6.867-.799.41-1.435-1.285-1.717 0 .94 2.096-2.543 3.457-3.863 4.721-.39 4.264-5.746 7.152-6.438 11.59-1.147 7.352 3.788 12.832 8.585 16.313 1.847 8.74 3.425 17.75 9.873 21.891 1.249 4.902 4.975 7.33 7.297 11.16h1.717c9.019 9.582 18.645 18.557 29.618 26.184 1.111 2.609 3.484 3.955 6.009 5.152 1.872 2.705 3.79 5.367 6.438 7.297 3.9 9.063 5.603 18.484 10.302 24.895.3 5.875 4.784 11.227 6.009 17.6.855.434 1.503 1.072 2.146 1.717 4.032 12.107 10.992 23.553 18.887 34.77 1.842 2.615 2.798 6.025 5.151 8.156.517.467 1.611.234 2.146.857 2.165 2.525 5.944 8.275 6.868 10.73 1.642 4.367-3.294 7.141-3.005 11.16-4.151 7.01-12.055 10.266-12.877 20.605-8.407 11.91-18.379 22.254-21.462 39.49.619.953 1.078 2.068.858 3.863-.865 2.348-6.152 6.238-2.146 8.154 2.984-.02 1.679-4.33 4.292-4.721 6.544 1.787-2.894 15.775 6.009 15.881.238-3.158-.91-8.488-.429-13.307 12.556-9.334 13.756-30.025 21.462-44.211 6.807-2.781 7.824-11.35 10.731-18.029 3.354-1.08 5.459-3.41 9.443-3.863 8.132 5.672 13.287 17.361 22.75 24.039 9.898 11.707 23.237 19.973 35.198 29.617 1.312-.311 1.564.439 2.575.43 1.896 1.537 3.771 3.098 6.868 3.434 1.629 2.807 5.911 2.959 7.297 6.01 7.667.918 10.67 6.5 18.458 7.297-.205 1.35.612 1.678.858 2.576 14.768 7.559 23.486 23.436 37.344 30.475a16.252 16.252 0 0 1 1.717 3.006c6.717 2.783 11.505 9.592 19.745 9.443 3 2.236 7.261 5.213 12.019 4.293.87 1.668 3.821 2.766 6.009 3.004 5.281.574 11.885.621 16.74-.43-.063-1.064-.079-2.082.859-2.146 4.949 1.43 12.258-.057 15.453-3.004 3.651 1.107 4.311-2.656 8.154-2.576.926-.648 1.197-1.951 2.146-2.574.592-.02.943.201 1.288.428 2.892-2.619 5.347-4.582 9.015-6.867 7.689-4.789 16.377-11.283 22.75-18.027.995.137 1.648-.07 2.146-.43 5.032-5.699 11.747-9.715 19.315-12.877 3.045-2.822 5.98-5.754 11.59-6.01 1.689-3.186 5.557-4.215 8.586-6.01 3.035-1.797 6.168-3.705 9.014-5.58 11.751-5.563 19.684-14.941 30.905-21.033 6.485-8.254 16.126-13.35 22.321-21.891h1.287c4.721-6.109 10.021-11.602 15.023-17.17 1.927-2.145 4.673-3.43 6.868-5.58 5.497-5.389 9.696-15.051 16.74-17.6.45 4.701 5.548 4.754 6.01 9.443.675.756 2.299.563 3.005 1.287 2.826 4.783 3.182 10.979 6.438 15.883 1.156 1.742 2.874 2.973 3.862 4.721 2.984 5.275 2.908 11.355 6.01 16.313.865 1.381 2.686 2.363 3.434 3.863 1.291 2.584 2.549 6.768 3.435 9.873 2.76 9.676 4.817 21.971 6.009 32.621.434 3.863.504 6.777 1.718 9.873 1.642 4.184 5.84 7.098 6.868 11.59 1.986 8.684-1.438 16.766.857 25.326 4.932-3.799 1.138-16.32 4.293-21.893 4.254 4.508 2.039 13.822 3.863 19.746 5.326-8.896.346-20.709-3.004-29.189 6.531-6.748 1.661-17.059-.859-24.896-.443-1.379-.059-2.709-.43-4.291-2.838-12.131-11.557-25.434-13.735-34.77-.345-1.479.121-3.527-.429-5.15-.496-1.465-2.193-2.922-3.005-4.293-2.327-3.936-5.146-8.559-6.868-13.307-.556-1.533-.602-3.555-1.287-5.15-2.619-6.096-8.443-10.508-10.731-16.313-.773-1.961-.532-4.234-1.288-6.008-1.531-3.602-4.896-5.557-6.438-9.016 4.413-12.756 12.458-21.881 16.741-34.768 4.01-4.068 4.454-10.145 6.438-15.453 2.742-7.336 6.281-14.121 8.156-21.891 2.062-8.539 2.916-16.111 5.15-23.609.756-2.537 2.959-4.719 3.434-7.297.469-2.533-.176-4.287 0-6.439.418-5.068 1.532-10.244 3.006-13.734 1.519-3.602 5.85-5.121 8.584-9.873 2.68-4.654 2.325-12.877 4.293-18.457 1.166-3.309 3.9-5.951 5.15-9.443.473-1.318.076-2.842.43-4.293.889-3.641 3.483-6.719 4.293-9.443.682-2.299.57-5.395 1.287-8.156 1.002-3.867 1.625-6.4 1.717-9.443.209-6.855 4.408-11.328 6.439-17.17 3.621-10.41 3.023-22.932 4.721-34.768-3.832-3.447-5.508-9.053-8.154-12.449-4.006-5.139-12.996-1.707-18.888-4.721-2.272.674-5.421 2.475-7.726 1.717 3.544-7.469.879-13.773-.43-21.463-.738-4.338-1.764-8.352-2.576-12.447-.68-3.436-.123-7.111-1.287-10.303-.293-.799-1.084-1.365-1.288-2.146-.97-3.727-.615-7.561-1.288-10.73.05.232-1.151-.578-1.287-.857-1.662-3.43.772-9.006-2.576-11.59-.009-1.012.74-1.264.43-2.576-4.723-6.607-9.221-17.797-10.73-27.471-1.892-2.447-3.893-5.391-5.58-8.586-.298-.563.27-1.566 0-2.146-.34-.725-1.545-1.969-2.146-3.004-2.029-3.49-4.692-6.537-6.01-9.873-.793-2.01-.666-4.68-1.717-6.867-1.521-3.166-4.885-5.832-6.439-8.156-3.008-4.502-.453-13.861 3.006-16.74 1.582-1.137 4.297-1.139 5.15-3.004 13.739-4.291 25.779-10.279 36.486-17.6 3.809.225 4.82-1.98 7.297-3.434 6.514-3.826 10.41-5.639 15.023-9.873 7.691-3.611 18.824-3.783 27.471-6.439.473-1.959 2.07-2.793 3.006-4.291.658-4.094-.988-5.881-2.146-8.156 4.963-5.373-1.068-10.752-6.439-12.02.17-2.029-.137-3.582-.428-5.15-1.34-.664-2.691-1.316-3.436-2.576-.732.697-1.561 1.301-3.004 1.289-.041-.676.057-1.488-.859-1.289-5.004.004-8.277 1.738-13.307 1.717-3.855 3.729-12.253 2.914-14.594 8.156-2.528.762-4.439 2.143-7.727 2.146-1.547-1.744-3.852-2.73-7.297-2.576-3.447-5.477-4.543-12.131-6.01-17.598-2.793-1.785-5.854-3.305-6.867-6.869-.32-1.322 1.48-.523.858-2.146-5.128-.309-4.536-6.338-10.302-6.008.594-1.738-.932-1.359-.858-2.576-7.761-1.109-5.261-12.482-13.735-12.877-.095-2.053-1.58-2.713-2.146-4.293-2.037.178-2.256-1.465-4.293-1.287-2.557-4.025-6.143-7.021-10.302-9.443-3.681-6.059-10.887-8.35-13.735-15.023-2.765-6.477-3.896-16.053-5.58-23.18-1.848-3.305-3.051-7.252-3.435-12.02-3.165-3.701-2.862-10.873-7.726-12.877 1.041-6.217-5.355-11.854-9.015-16.74-1.142-1.525-1.748-3.441-2.575-4.721-1.283-1.988 1.92-4.928 2.575-6.869.663-1.967-.913-4.486 1.717-5.15 2.049 1.402 4.608.066 6.868.43 6.418 1.025 9.423 5.818 16.74 4.721 1.416-.213 2.636-1.291 4.293-1.287 4.096.006 7.891 2.805 12.019 1.287 1.257-.461 2.744-2.801 4.292-3.434 6.109-2.5 11.092-1.496 12.02-8.156 1.069-.646 2.105-1.328 3.434-1.717 2.798-3.193 1.779-7.922 3.004-12.018 1.028-3.438 3.998-7.324 2.576-12.449-1.309.021-2.186-.391-2.576-1.287 1.272-16.867-11.393-19.799-18.887-27.9-.047 1.096-1.437.852-2.574.857 1.311 2.076-.32 2.875-1.288 3.863 2.894 4.07 3.409 9.723 5.151 14.594.672 1.883 2.5 3.504 2.574 5.58.07 1.934-1.783 3.48-1.717 5.152.126 3.123 3.463 4.375 2.576 7.727-1.959.215-2.434-.746-3.863 0-.839 3.477-.729 6.582.43 9.014-2.484 7.307-13.426 3.498-18.458 8.156-4.579-2.734-11.697-1.777-18.458-3.006 1.006-3.717-.836-7.385.43-11.16.742-2.213 4.107-4.697 5.58-7.727 1.511-3.105 2.971-6.129 4.293-9.014 1.48-3.234 1.681-7.016 3.004-9.873.59-1.273 1.646-2.119 2.146-3.434 1.93-5.076.957-10.58 2.576-15.883-8.119-2.596 7.874-17.541-4.293-19.744-1.094 1.768.25 5.973-1.717 6.867-2.232-5.207-2.301-12.58-8.585-13.736.169 5.762 3.073 12.332 2.575 20.176-6.068 4.564-9.653 13.748-9.014 23.607-.264.596-1.652.064-1.717.859 1.328 8.184-3.414 16.252-4.293 26.613-1.377-.377-.89 1.113-1.717 1.287-3.904.477-3.238-1.928-6.439-.43-4.809-4.49-12.193-6.406-16.311-11.59-3.671-7.775-12.388-10.504-17.17-17.17-2.271-8.07-4.773-11.438-11.59-15.451-4.621-2.723-8.6-5.869-13.307-6.439-.265-1.596-1.022-2.697-1.287-4.293-3.34-4.385-9.863-5.59-15.453-7.727-5.984.555-12.326 2.547-17.599 3.436-.306 1.268-.118 3.029-1.288 3.434-2.5-.646-2.975-3.32-3.434-6.01-5.148-4.145-11.795-7.117-17.17-12.02-.066.506.074 1.219-.43 1.289-4.432-2.008-10.134-2.744-13.735-5.58.054.865-.423.879-1.288.857-5.561-.133-13.518-1.219-18.887-1.287-.023-.262-.064-.508-.429-.43v1.283z" fill="#fff"/></g></svg>