<svg xmlns="http://www.w3.org/2000/svg" xmlns:dc="http://dublincore.org/documents/dcmi-terms/" height="500" width="500"><metadata><dc:description>Silhouette of Caldilinea aerophila, processed by PhyloPic Tools (https://github.com/eweitz/phylopic-tools)</dc:description><dc:source>http://phylopic.org/image/23fb8296-5aee-43d4-8e6b-7e4bcd711874</dc:source><dc:creator>Matt Crook</dc:creator><dc:license>http://creativecommons.org/licenses/by-sa/3.0/</dc:license></metadata><path d="M397.438 1L1 395.25v94.375l455.25-452.75C468.434 24.758 479.568 12.659 489.406 1z" fill="#666"/><path d="M499 15.656L207.75 305.312c-25.037 24.9-34.69 55.52-21.625 68.657 13.065 13.137 43.744 3.68 68.781-21.219L499 110.031" fill="#666" stroke="#000" stroke-width="2" stroke-linecap="round" stroke-linejoin="round" stroke-miterlimit="10"/><path d="M107.844 499l147.062-146.25c-25.037 24.9-55.685 34.356-68.75 21.219-13.064-13.137-3.443-43.726 21.594-68.625L13.031 499M1 489.625l455.25-452.75C468.434 24.758 479.568 12.659 489.406 1m-91.969 0L1 395.25M1 379.625l47.594-47.344c25.037-24.9 34.658-55.52 21.593-68.656-4.082-4.105-9.874-5.997-16.687-5.906-14.988.2-34.85 10.006-52.063 27.125" fill="#666" stroke="#000" stroke-width="2" stroke-linecap="round" stroke-linejoin="round" stroke-miterlimit="10"/><path d="M1.435 284.855c25.037-24.9 55.694-34.36 68.759-21.223 13.064 13.137 3.435 43.742-21.602 68.641L247.128 134.83c25.037-24.9 34.666-55.503 21.601-68.64-13.064-13.137-43.721-3.677-68.758 21.222L1.435 284.855z" fill="#666" stroke="#000" stroke-width="2" stroke-linecap="round" stroke-linejoin="round" stroke-miterlimit="10"/><path d="M286.875 1l-86.906 86.406c25.037-24.9 55.685-34.355 68.75-21.219 13.064 13.137 3.443 43.757-21.594 68.657L381.688 1" fill="#666" stroke="#000" stroke-width="2" stroke-linecap="round" stroke-linejoin="round" stroke-miterlimit="10"/><path d="M203.803 485.805a7.475 7.082 0 1 1-14.95 0 7.475 7.082 0 1 1 14.95 0z" transform="matrix(.47426 -.47165 .49785 .5006 -273.497 133.335)" stroke="#000" stroke-width="2.91" stroke-linecap="round" stroke-linejoin="round" stroke-miterlimit="10"/><path d="M203.803 485.805a7.475 7.082 0 1 1-14.95 0 7.475 7.082 0 1 1 14.95 0z" transform="matrix(.47426 -.47165 .49785 .5006 -183.885 123.01)" stroke="#000" stroke-width="2.91" stroke-linecap="round" stroke-linejoin="round" stroke-miterlimit="10"/><path d="M203.803 485.805a7.475 7.082 0 1 1-14.95 0 7.475 7.082 0 1 1 14.95 0z" transform="matrix(.47426 -.47165 .49785 .5006 9.4 47.315)" stroke="#000" stroke-width="2.91" stroke-linecap="round" stroke-linejoin="round" stroke-miterlimit="10"/><path d="M203.803 485.805a7.475 7.082 0 1 1-14.95 0 7.475 7.082 0 1 1 14.95 0z" transform="matrix(.61654 -.61314 .6472 .65079 -252.867 -48.84)" fill="#fff" stroke="#000" stroke-width="2.239" stroke-linecap="round" stroke-linejoin="round" stroke-miterlimit="10"/><path d="M203.803 485.805a7.475 7.082 0 1 1-14.95 0 7.475 7.082 0 1 1 14.95 0z" transform="matrix(1.0908 -1.08479 1.14506 1.1514 -440.037 -325.732)" fill="#fff" stroke="#000" stroke-width="1.265" stroke-linecap="round" stroke-linejoin="round" stroke-miterlimit="10"/><path d="M203.803 485.805a7.475 7.082 0 1 1-14.95 0 7.475 7.082 0 1 1 14.95 0z" transform="matrix(1.0908 -1.08479 1.14506 1.1514 -618.869 -43.568)" fill="#fff" stroke="#000" stroke-width="1.265" stroke-linecap="round" stroke-linejoin="round" stroke-miterlimit="10"/><path d="M203.803 485.805a7.475 7.082 0 1 1-14.95 0 7.475 7.082 0 1 1 14.95 0z" transform="matrix(.61654 -.61314 .6472 .65079 -341.078 58.86)" stroke="#000" stroke-width="2.239" stroke-linecap="round" stroke-linejoin="round" stroke-miterlimit="10"/></svg>