<svg xmlns="http://www.w3.org/2000/svg" xmlns:dc="http://dublincore.org/documents/dcmi-terms/" height="162.295" viewBox="0 0 721.118 162.295" width="721.118" overflow="visible"><metadata><dc:description>Silhouette of Californosaurus, processed by PhyloPic Tools (https://github.com/eweitz/phylopic-tools)</dc:description><dc:source>http://phylopic.org/image/88cb846b-20ad-4056-8797-832b27aa6d81</dc:source><dc:creator>Gareth Monger</dc:creator><dc:license>http://creativecommons.org/licenses/by/3.0/</dc:license></metadata><switch><g><path d="M45.99 61.722c29.344-7.838 46.539-15.704 54.238-18.742 7.699-3.038 10.315-4.883 15.957-7.044 5.642-2.161 55.418-21.675 72.66-25.135 17.242-3.459 52.828-3.8 73.729-1.527 20.901 2.273 34.875 3.123 46.626-.671C320.952 4.81 328.803-.724 333.763.079c4.96.803 3.038 7.699 4.913 9.816 1.875 2.117 6.441 9.408 11.749 12.737 5.308 3.328 154.559 28.435 175.732 26.216 21.173-2.219 68.212-17.892 86.499-30.305C630.944 6.13 638.825.097 638.278 9.081c-.546 8.983 3.318 44.283 15.535 57.549 12.217 13.266 51.546 50.222 56.915 52.552 5.368 2.331 17.919 10.106 4.157 5.764-13.762-4.344-55.893-19.93-91.159-33.096-35.266-13.165-74.072-17.529-103.912-12.832-29.841 4.698-82.915 29.02-95.257 34.281-12.342 5.261-88.283 26.689-132.202 24.019-43.919-2.67-134.504-28.718-163.585-36.499C99.688 93.04 73.541 86.44 60.065 85.62c-13.475-.819-83.194-7.564-52.204-14.696 30.99-7.132 33.547-7.978 38.129-9.202z"/><path d="M409.48 105.87s6.347 27.436 12.562 32.322c6.215 4.886 18.479 9.138 26.842 11.65 8.363 2.512 18.661 6.145 18.874 2.65.212-3.493-8.238-21.038-14.861-27.452-6.622-6.414-11.553-7.716-14.122-14.885-2.569-7.17-17.828-11.604-17.828-11.604l-11.467 7.319z"/><path d="M422.362 99.968s5.314 21.719 10.47 25.597c5.155 3.88 15.316 7.271 22.244 9.277 6.929 2.006 15.461 4.902 15.629 2.139.168-2.763-6.866-16.661-12.362-21.749-5.497-5.09-9.58-6.13-11.724-11.807-2.143-5.677-14.783-9.22-14.783-9.22l-9.474 5.763zM167.684 95.171s-17.653 18.463-11.182 27.372c6.471 8.909 5.881 10.376 18.688 22.176 12.808 11.799 28.987 25.807 25.345 11.56-3.642-14.247 2.833-21.868-3.079-31.745-5.912-9.877-7.513-16.486-7.513-16.486l-22.259-12.877zM209.421 117.246s6.242 20.917.587 15.063c-5.655-5.854-13.003-16.82-13.003-16.82l12.416 1.757z"/></g></switch></svg>