<svg xmlns="http://www.w3.org/2000/svg" xmlns:dc="http://dublincore.org/documents/dcmi-terms/" height="329" version="1.2" viewBox="0 0 923.404 329" width="923.404" overflow="inherit"><metadata><dc:description>Silhouette of Callorhinchus callorynchus, processed by PhyloPic Tools (https://github.com/eweitz/phylopic-tools)</dc:description><dc:source>http://phylopic.org/image/ca376e77-d339-4dcc-9719-b09d346eee34</dc:source><dc:creator>Tambja (vectorized by T. Michael Keesey)</dc:creator><dc:license>http://creativecommons.org/licenses/by-sa/3.0/</dc:license></metadata><path d="M534 329h-4c-42.411-10.256-63.513-41.82-86-72-41.718.559-93.667 7.213-136 2-14.518 18.056-31.864 44.601-66 34-16.639-5.167-32.123-18.446-47-28-4.665-2.996-10.42-7.53-15-9-35.322-11.337-68.419 1.549-103-12-1.521-2.812-4.737-3.93-4-9-7.456 2.553-17.422.499-22-3-2.178-1.821.178-8.179-2-10-5.742-1.853-16.472-5.051-22-1 6.969 8.364 20.771 9.896 25 21-17.231-5.77-35.722-10.278-52-17v-5c6.583-9.257 19.636-16.568 31-24 10.914-7.137 22.895-14.808 31-24 8.648-9.808 15.021-23.858 26-32 17.342-12.86 37.47-10.515 61-12 22.128-1.396 44.634-5.198 67-6 19.355-39.312 31.475-91.191 56-122 4.178 45.173 17.692 89.627 38 122 51.716 4.005 102.208 2.745 148 11 16.406 2.958 34.059 9.458 46 7 9.473-1.95 18.9-13.696 29-22 6.077-4.996 23.925-21.317 31-20 8.793 1.637 12.659 28.683 17 37 6.933 13.285 14.79 19.387 25 29 12.522 6.145 25.365 11.968 39 17-2.271 1.427-10.803 6.028-6 8 30.189 10.965 54.854-6.428 80-18 34.156-15.719 68.408-25.521 108-35 33.818-8.098 89.832-14.534 96 19 2.201 11.969-4.992 23.936-12 31-14.872 14.991-46.358 28.402-67 27 24.397-15.269 55.6-23.733 69-50-11.387-6.359-24.697-7.107-41-4-35.564 6.779-88.074 38.486-105 57-9.348 10.225-13.468 28.198-10 43-8.045-1.288-15.592-3.074-23-5-3.979 5.05 9.182 5.842 6 10-27.834 2.347-50.141-1.425-74-9-13.577-4.311-29.293-15.991-40-17-8.617-.812-19.698 3.671-30 5-21.861 2.821-43.01 5.06-64 7-9.841.91-21.144-1.371-29 5 11.504 2.829 27.477 1.19 35 8 .246 17.799-14.826 31.949-11 49 1.639 7.304 11.186 13.151 7 17z" fill-rule="evenodd"/></svg>