<svg xmlns="http://www.w3.org/2000/svg" xmlns:dc="http://dublincore.org/documents/dcmi-terms/" height="393.384" width="467.439"><metadata><dc:description>Silhouette of Camelidae, processed by PhyloPic Tools (https://github.com/eweitz/phylopic-tools)</dc:description><dc:source>http://phylopic.org/image/7f38dfc2-fa8e-4efa-b38b-d4a8f0e88de2</dc:source><dc:creator>Zimices</dc:creator><dc:license>http://creativecommons.org/licenses/by-nc/3.0/</dc:license></metadata><path d="M139.668 393.1c-12.135-.301-13.693-.546-15.75-2.478-1.82-1.71-2.281-3.218-2.281-7.459 0-10.278-6.6-21.772-26.138-45.518-3.928-4.775-8.092-10.241-9.252-12.147-1.16-1.906-4.023-5.802-6.36-8.658-4.813-5.88-5.409-9.513-2.265-13.804 4.158-5.675 5.212-11.735 5.741-33.015l.506-20.306-3.049 1.854c-4.152 2.525-13.869 13.57-15.615 17.748-.782 1.872-4.718 6.542-8.745 10.377-12.271 11.682-16.823 16.364-16.823 17.298 0 .492-1.8 3.17-4 5.954-2.2 2.783-4.003 5.808-4.007 6.72-.003.914-.593 2.786-1.31 4.16-4.94 9.47-8.293 26.587-8.897 45.423l-.286 8.922 5.5 3.35c3.548 2.16 6.273 3.163 7.68 2.826 3.288-.789 7.32 1.102 7.32 3.432 0 3.972-3.888 5.134-19.267 5.757-7.936.321-15.514.312-16.841-.021-4.134-1.038-6.086-5.717-5.391-12.928.667-6.926 2.848-18.064 5.34-27.26 2.36-8.717 2.838-40.731.701-47.026-2.255-6.643-1.962-9.203 1.406-12.28 1.62-1.482 4.604-5.844 6.628-9.694 2.024-3.85 5.213-8.895 7.087-11.21 1.873-2.317 5.012-7.492 6.975-11.5 1.963-4.01 4.604-8.415 5.87-9.79 2.77-3.01 9.492-15.547 9.492-17.702 0-1.995-6.862-13.298-8.073-13.298-1.526 0-1.056 2.741 1.069 6.226 1.315 2.156 1.997 5.043 2 8.456.003 4.58-.334 5.422-2.9 7.25-3.805 2.709-5.047 2.613-8.828-.682-3.093-2.695-6.102-10.34-12.89-32.75-2.692-8.884-2.5-31.585.313-37.096 1.096-2.147 3.03-7.054 4.297-10.904 3.307-10.043 6.62-16.209 9.77-18.182 1.508-.945 5.892-4.469 9.742-7.83 6.625-5.784 20.873-14.488 23.717-14.488 2.67 0 14.44-6.4 19.283-10.485 8.065-6.803 18.272-10.878 32.658-13.039 5.351-.804 12.118-2.418 15.036-3.588 4.343-1.74 8.572-2.273 23.306-2.935 9.9-.445 19.8-1.353 22-2.017 2.92-.882 10.878-1.04 29.5-.59 33.647.816 39.1 1.945 65.075 13.473 22.13 9.82 25.115 10.787 29.13 9.432 20.325-6.862 30.304-15.453 43.273-37.251 2.127-3.575 4.477-7.4 5.223-8.5 10.784-15.916 15.501-24.127 20.397-35.508l2.154-5.006-2.491-1.96C361.406 8.928 360.051.625 364.304.019c1.192-.17 4.49.868 7.329 2.307 3.996 2.025 5.474 2.356 6.546 1.466.956-.792 5.973-1.028 16.171-.758 12.577.333 15.683.743 20.787 2.747 5.236 2.057 8.313 2.433 24.172 2.952 17.458.572 18.274.69 20.75 3.02 1.418 1.333 2.578 2.95 2.578 3.594 0 .644.89 1.977 1.98 2.963 2.361 2.137 3.679 8.019 2.196 9.805-.577.696-2.667 1.85-4.643 2.565-1.977.714-4.77 2.39-6.209 3.723-4.293 3.978-14.295 8.914-19.77 9.756-2.171.334-6.221 2.145-9 4.025-2.78 1.88-6.758 3.959-8.84 4.62-3.792 1.205-7.391 5.12-6.312 6.867.317.511-.01 1.417-.728 2.012-.716.595-2.36 3.337-3.651 6.095-2.133 4.553-2.632 4.992-5.436 4.782-3.013-.226-3.095-.117-3.393 4.531-.248 3.866-.803 5.09-2.952 6.497-4.58 3.002-6.766 5.757-8.184 10.319-1.976 6.358-3.79 8.919-6.331 8.936-1.456.01-1.801.286-.997.797 1.485.944-1.548 9.85-3.953 11.609-.818.598-1.807 2.096-2.199 3.33-.391 1.235-1.81 2.52-3.154 2.857-1.573.395-2.652 1.552-3.034 3.252-1.325 5.91-3.717 12.866-5.051 14.69-1.146 1.567-1.582 1.676-2.267.567-.878-1.42-3.072-.733-3.072.962 0 2.378-5.155 8.92-7.029 8.92-1.593 0-1.958.593-1.783 2.889.22 2.887-4.238 10.112-6.24 10.112-.521 0-.948.663-.948 1.474 0 1.883-8.595 10.526-10.468 10.526-.778 0-1.697-.457-2.043-1.016-1.116-1.807-2.357-.036-2.264 3.23.053 1.89-.473 3.368-1.299 3.644-.763.254-2.51 1.74-3.88 3.302s-3.12 2.84-3.886 2.84c-.886 0-1.21.705-.888 1.935 1.013 3.871-4.816 8.23-6.772 5.065-1.195-1.932-2.09-.942-4.957 5.488-2.701 6.056-4.684 7.986-7.498 7.296-1.19-.29-4.003 6.317-4.03 9.464-.008.961-1.815 3.659-4.015 5.994-2.2 2.336-4 4.578-4 4.983 0 .882 1.856 1.288 13 2.839 10.368 1.443 17.56 4.207 21.366 8.211 2.61 2.747 2.8 3.427 2.136 7.62-.401 2.533-1.038 6.63-1.415 9.105-.377 2.475-1.394 5.625-2.261 7-.867 1.375-2.117 4.75-2.779 7.5-.66 2.75-2.708 7.925-4.548 11.5-1.84 3.575-5.014 10.447-7.051 15.272-4.21 9.967-8.78 17.36-11.261 18.212-.928.32-2.926 2.373-4.44 4.564-1.513 2.19-4.213 4.864-6 5.94-5.142 3.098-10.794 8.202-12.295 11.104-2.217 4.288-4.513 4.502-7.655.715-3.262-3.931-3.491-6.44-.847-9.255 1.073-1.142 2.641-4.727 3.485-7.967.844-3.24 2.154-6.834 2.911-7.988 2.69-4.097 7.481-8.597 9.154-8.597.933 0 3.254-.739 5.157-1.642 3.57-1.694 7.677-8.501 12.442-20.627 1.131-2.877 2.666-6.581 3.41-8.231.744-1.65 1.862-5.566 2.483-8.702 1.39-7.014.15-10.45-3.328-9.224-1.19.42-18.056.944-37.48 1.164l-35.315.4-2.018 4.68c-1.11 2.575-2.832 7.832-3.826 11.682-.995 3.85-3.618 11.29-5.83 16.535-7.96 18.876-9.03 25.034-9.113 52.465-.06 20.05.044 21.226 2.295 26 3.916 8.304 10.3 12.5 19.019 12.5 6.05 0 8.03 1.967 6.286 6.244-1.67 4.091-4.017 4.707-20.682 5.43-11.02.477-14.19.294-17.257-.997-4.2-1.767-6.22-5.516-5.343-9.916.357-1.797-.19-3.984-1.59-6.358-2.03-3.441-2.072-4.01-.847-11.554.948-5.837 1.094-13.504.555-29.006-.705-20.222-.835-21.219-3.226-24.708-2.157-3.147-2.423-4.412-1.983-9.42.35-4.003 1.255-6.777 2.933-9 1.638-2.171 3.161-6.73 4.691-14.04 2.73-13.042 6.007-34.882 5.391-35.925-.243-.413-9.528-.764-20.633-.782-15.212-.023-22.9-.5-31.175-1.933-6.04-1.046-11.095-1.79-11.232-1.653-.137.137-1.113 4.545-2.17 9.795-1.056 5.25-2.588 10.845-3.405 12.434-3.35 6.513-11.642 31.57-13.622 41.162-3.56 17.248-2.345 25.625 5.621 38.727 1.672 2.75 4.238 7.025 5.702 9.5 4.146 7.012 10.868 16.443 15.642 21.947 4.584 5.285 15.832 12.04 20.094 12.068 3.973.026 4.821 1.235 4.58 6.53l-.226 4.955-5 .053c-2.75.03-11.061-.097-18.469-.28z"/></svg>