<svg xmlns="http://www.w3.org/2000/svg" xmlns:dc="http://dublincore.org/documents/dcmi-terms/" height="390.373" width="528.41"><metadata><dc:description>Silhouette of Cameloidea, processed by PhyloPic Tools (https://github.com/eweitz/phylopic-tools)</dc:description><dc:source>http://phylopic.org/image/1ab69afd-26aa-4a10-824f-7e6aeb0569f9</dc:source><dc:creator>Zimices</dc:creator><dc:license>http://creativecommons.org/licenses/by-nc/3.0/</dc:license></metadata><path d="M99.19 389.903c-5.839-.338-10.744-1.12-11.621-1.85-.835-.696-1.763-3.094-2.063-5.328-.3-2.235-1.256-4.849-2.125-5.81-1.665-1.838-9.59-20.557-9.59-22.649 0-.67-1.538-5.434-3.417-10.584-1.88-5.15-4.184-12.74-5.12-16.865-.937-4.125-2.948-9.975-4.47-13-1.522-3.025-3.498-7.96-4.39-10.966-.893-3.007-2.67-7.057-3.95-9-3.223-4.893-3.917-8.304-2.163-10.622.796-1.051 1.461-2.499 1.479-3.217.04-1.63 3.276-9.21 6.55-15.342 2.61-4.888 3.225-8.267 1.394-7.657-1.098.366-17.643 15.792-29.822 27.804l-6.59 6.5-3.397 14c-1.868 7.7-3.82 14.833-4.339 15.85-1.453 2.853-3.727 19.338-3.747 27.164-.02 7.64 2.307 15.541 5.934 20.152 2.377 3.021 8.011 6.507 13.386 8.28 4.736 1.564 6.466 3.68 4.563 5.582-1.024 1.024-4.397 1.49-11.914 1.645-13.105.27-15.94-.844-17.442-6.856-.574-2.302-2.026-5.227-3.225-6.5-3.176-3.375-4.073-21.438-1.978-39.817 3.002-26.335 3.116-33.633.68-43.686-1.663-6.867-1.99-10.104-1.357-13.43.798-4.186 1.138-4.53 7.538-7.612 5.249-2.528 7.574-4.408 10.723-8.671 5.677-7.685 10.962-19.51 12.641-28.285 1.708-8.925 2.014-54.979.422-63.375-1.417-7.472-4.005-12.372-6.739-12.76-2.221-.316-2.25-.175-2.25 11.2 0 19.878-2.466 25.682-12.5 29.407-7.818 2.903-8.809 2.268-8.008-5.128.367-3.388 1.081-7.622 1.588-9.41.506-1.787 1.34-4.712 1.85-6.5.513-1.787 1.232-6.85 1.6-11.25.482-5.77 1.459-9.61 3.504-13.78 1.56-3.178 3.392-8.264 4.072-11.303 1.574-7.033 6.965-13.359 14.369-16.861 2.97-1.406 6.035-2.556 6.809-2.556.773 0 2.198-.874 3.165-1.943.967-1.069 3.173-2.254 4.901-2.634 1.728-.38 4.494-1.266 6.146-1.971 12.173-5.193 12.815-5.322 29.048-5.8 11.095-.327 20.526-1.285 30.956-3.145 10.577-1.886 21.045-2.938 35.5-3.567 11.275-.49 21.625-1.107 23-1.37 1.375-.263 5.65-.993 9.5-1.623 3.85-.63 9.2-1.77 11.89-2.534 2.688-.763 10.489-2.298 17.334-3.41 6.846-1.113 13.352-2.508 14.458-3.1 2.95-1.58 18.767-3.301 30.818-3.355 9.785-.044 11.027.182 18.224 3.326l7.723 3.373 24.277-.516c13.352-.284 26.976-1.05 30.276-1.702 3.3-.652 8.282-1.614 11.071-2.139 2.79-.524 7.313-2.43 10.053-4.234 2.74-1.804 6.983-4.077 9.429-5.052 2.446-.974 5.797-2.794 7.447-4.045 1.65-1.251 5.289-3.434 8.086-4.85 5.118-2.592 22.348-17.533 34.413-29.842 3.576-3.648 8.335-7.624 10.577-8.836l4.075-2.202-.46-5.553c-.594-7.158 1.52-19.227 3.5-19.987 2.354-.904 6.46 4.026 10.81 12.978l4 8.233 10 .656c10.383.682 18.374 2.963 34.5 9.849 4.124 1.761 9.3 3.66 11.5 4.219 14.361 3.648 22.5 7.775 22.5 11.41 0 1.34.63 3.433 1.401 4.651 4.15 6.557 2.159 14.477-3.362 13.373-1.777-.355-5.607.506-10.657 2.396l-7.883 2.951-27.765.054c-26.751.052-27.9.134-31.435 2.248-3.4 2.033-6.277 4.664-24.967 22.837-3.758 3.654-8.858 8.046-11.333 9.76-2.475 1.713-8.55 6.712-13.5 11.108-4.95 4.396-11.475 9.866-14.5 12.155-3.025 2.29-7.402 5.889-9.727 7.998-2.325 2.11-4.645 3.835-5.156 3.835-.51 0-2.78 1.548-5.044 3.44-2.265 1.892-5.089 3.748-6.276 4.125-1.187.377-3.945 1.979-6.128 3.56-2.183 1.581-4.657 2.875-5.499 2.875-.842 0-4.38 1.856-7.861 4.125-6.292 4.1-11.94 10.053-16.137 17.01-2.972 4.927-9.496 10.43-18.298 15.437-7.148 4.066-7.432 4.38-11.808 13.047-4.414 8.743-4.498 9.092-5.338 22.381-1.022 16.179-.924 8.593-.795 61 .148 59.794 1.458 68.757 11.8 80.715 4.087 4.726 6.22 6.373 8.9 6.876 1.94.364 3.764 1.28 4.054 2.035.29.756 1.535 1.374 2.765 1.374 2.778 0 5.842 3.235 5.373 5.671-.481 2.502-9.415 3.67-20.101 2.63l-8.224-.8-.5-4.5c-.55-4.953-2.35-8.074-5.674-9.837-3.117-1.653-7.435-11.575-8.34-19.164-.427-3.575-1.444-9.2-2.261-12.5-.817-3.3-1.764-12.3-2.105-20-.388-8.778-1.365-16.938-2.62-21.876-2.308-9.094-2.441-11.943-.837-17.943 1.218-4.551.577-6.708-6.996-23.57l-1.97-4.39-1.657 3.203c-.911 1.762-2.272 7.005-3.024 11.652-1.201 7.42-1.834 8.98-5.192 12.802-2.924 3.329-5.209 8.09-9.711 20.238-3.238 8.736-6.712 18.09-7.72 20.786-1.007 2.696-2.95 6.521-4.316 8.5-6.075 8.798-8.001 20.445-5.06 30.598 2.672 9.228 5.07 13.204 9.483 15.724 3.936 2.248 5.464 5.776 2.5 5.776-.938 0-1.5.948-1.5 2.532 0 1.392-.608 2.764-1.351 3.05-.744.285-6.031-1.867-11.75-4.782-8.98-4.577-10.659-5.833-12.307-9.21-1.673-3.427-1.746-4.292-.587-7 1.363-3.186 1.415-4.86.466-15.09-.735-7.91.673-12.668 13.023-44 6.034-15.308 7.506-20.867 7.506-28.335 0-4.711.646-7.858 2.372-11.568 4.388-9.428 5.896-35.716 2.96-51.597-.748-4.05-1.132-4.529-3.832-4.788-1.65-.158-7.275.428-12.5 1.302-5.225.875-15.352 2.212-22.505 2.97-7.154.76-14.354 1.958-16 2.664-2.103.902-11.737 1.443-32.357 1.818l-29.363.534-2.239 6c-8.11 21.733-9.98 25.115-21.16 38.272-3.51 4.13-6.11 8.61-8.25 14.215-2.988 7.824-3.126 8.832-3.126 22.889 0 9.852.496 16.607 1.502 20.47.826 3.171 1.986 10.105 2.577 15.409.592 5.303 1.716 10.88 2.499 12.394.782 1.514 2.06 5.482 2.838 8.82 1.474 6.317 5.047 13.345 8.23 16.19 1.02.91 3.88 2.166 6.354 2.79 6.411 1.617 9 3.118 9 5.22 0 1.007.48 1.831 1.067 1.831.586 0 .924 1.238.75 2.75-.367 3.19-.19 3.161-14.419 2.336z"/></svg>