<svg xmlns="http://www.w3.org/2000/svg" xmlns:dc="http://dublincore.org/documents/dcmi-terms/" height="1422.246" version="1.2" viewBox="0 0 2152.871 1422.246" width="2152.871" overflow="inherit"><metadata><dc:description>Silhouette of Cancer bellianus, processed by PhyloPic Tools (https://github.com/eweitz/phylopic-tools)</dc:description><dc:source>http://phylopic.org/image/422060a1-0c7f-4428-b645-bdd26d815482</dc:source><dc:creator>Jebulon (vectorized by T. Michael Keesey)</dc:creator><dc:license>http://creativecommons.org/publicdomain/mark/1.0/</dc:license></metadata><path d="M946.629 135.246c-9.745 1.169-13.543-.383-24-3-9.006-2.254-21.196-9.144-28-10-6.108-.769-13.076 3.099-18 2-4.088-.913-5.943-6.665-10-9-2.968-1.708-17.298-6.389-21-7-12.846-2.12-20.471 2.938-35 5-5.909-5.158-7.704-12.364-15-16-14.963-7.455-47.996-5.399-66-1-4.164 1.018-6.655 4.126-10 5-10.292 2.69-22.849 2.943-34 5-10.882 2.008-20.346 9.562-31 13-12.24 3.95-22.33 3.845-31 14-7.977 9.343-20.498 24.538-18 36 3.834 17.59 13.345 31.133 23 46 9.317 14.348 16.457 30.452 28 41 6.28 1.066 13.093-4.246 19-4 10 .417 15.084 7.222 30 5 2.963-.441 5.835-2.648 9-3 20.688-2.299 40.257 1.607 63 0 15.436-1.091 30.377-7.169 41-14 2.308-1.484 5.296-6.178 9-7 9.626-2.137 19.87 6.145 26 7 7.765 1.083 10.452-3.153 18-4 4.227 4.106 15.656 1.01 16 9 3.979.646 4.02-2.646 8-2 4.579 1.755 6.623 6.044 10 9 7.833.661 15.22-2.742 22 0-3.056 21.944-22.681 27.319-40 35 11.823 9.378 24.276-5.398 32-10 7.092 2.942 6.788 8.758 14 10 11.396 1.962 20.714-10.47 32-11 5.034 1.966 9.644 4.356 12 9 12.615-5.052 22.707-12.627 31-22 7.227 7.025 22.697 19.086 22-3 1.659-1.674 5.871-.796 9-1-.308 3.042-3.725 5.981-1 9 7.16-2.173 6.578-12.089 14-14 8.283.156 17.45 7.804 21 16 6.965-3.071 3.873-12.689 11-13 5.905-.258 6.246 7.478 11 12 6.468-5.866 14.778-9.889 24-13 8.065 3.601 9.273 14.06 15 20 1.836-4.496-2.419-8.58 0-15 10.852-.347 8.204 7.385 8 17 .227 1.44 2.984.349 3 2 9.968.634 8.931-9.736 18-10 10.381 8.958 26.369 23.754 43 17 9.417 5.518 20.924 17.601 34 8-13.159-9.627-32.735-14.702-52-24-10.004-4.828-27.981-13.531-27-22 1.321-11.4 21.937-.689 25-12 3.156-.489 3.531 1.802 7 1 5.468-.869 5.773-5.721 11-7 7.627-1.866 16.934 3.438 26 2 8.231-1.306 14.983-12.452 28-8 4.162 1.424 6.733 7.068 10 9 32.37 19.146 74.209 13.302 118 17 10.358.875 23.447 4.699 33-2 6.602 1.02 15.357 3.799 23 3 17.536-1.833 18.379-15.092 32-24 2.477-1.62 6.213-1.554 9-3 11.389-5.909 39.637-35.191 38-46-3-19.812-24.664-45.014-42-51-5.856-2.022-12.72-.023-20-2-7.358-1.999-14.812-9.344-24-12-8.975-2.594-18.868-4.564-28-7-36.633-9.771-97.15-16.547-123 9-19.077-5.055-34.193-4.327-52 1-10.464 3.13-17.629 15.663-30 7-8.277 4.405-19.081 4.429-29 8-7.166 2.58-12.367 11.499-23 5 .988-37.552 28.448-50.702 56-68 19.508-12.248 42.067-23.842 59-31 20.366-8.609 51.153-20.693 76-25 35.068-6.079 79.955-9.869 114-4 32.209 5.553 61.591 21.207 94 29 5.67 1.363 12.311 1.608 18 3 8.812 2.156 13.87 5.565 25 5 13.502 6.498 33.16 6.84 43 17 8.592-2.297 15.717 3.679 21 4 12.594.767 19.559-9.487 34-5 9.262 2.877 30.398 19.862 38 27 3.225 3.028 4.954 7.38 8 11 11.455 13.616 26.637 29.231 44 35 8.123 20.21 21.028 35.638 37 48 .96 4.04 2.04 7.96 3 12 9.145 10.522 14.515 24.818 24 35 8.539 19.128 12.565 42.768 23 60 22.801 1.943 22.174 16.1 25 37 .975 7.204 3.617 10.626 3 16-.656 5.71-4.373 9.644-2 17 2.653 8.226 9.121 12.914 14 19 7.465 9.311 9.966 22.943 19 28 .998 6.002 4.56 9.44 5 16 1.201 3.465 4.848 4.486 7 7 .03 21.457 2.758 37.412-2 55-2.176 8.042-8.366 16.367-12 24-2.199 4.619-3.653 8.33-6 12-14.037 21.951-34.053 40.16-59 52-3.803 1.805-9.893 1.358-14 4-5.143 3.307-4.438 9.868-9 15-8.895 10.006-23.783 8.835-36 7-5.958 9.573-5.882 16.449-13 22-9.977 7.781-27.121 6.239-38 13-18.834-3.453-28.252 5.289-49 8-7.992 1.044-24.243 15.531-32 20-4.393 2.531-9.202 1.934-15 4-1.174.418-1.09 2.54-2 3-4.19 2.117-10.816 1.96-16 4-11.369 4.475-25.23 13.345-37 18-20.846 8.245-43.521 6.452-59 23-17.191 11.142-34.3 22.367-49 36 10.235 4.938 23.475-.387 35-3 19.729-4.473 40.266-10.661 54-23 4.318.651 5.605-1.728 8-3 2.132-1.535 2.891-4.443 4-7 21.994-4.005 26.527-25.473 51-27 7.873-6.417 17.85-15.085 30-14 17.352-4.729 20.866-25.131 39-23 8.619 1.013 15.023 10.139 24 9 12.421-1.576 20.207-25.278 36-12 17.372-6.102 33.858-6.24 51-9 20.163-3.247 43.258-17.119 65-25 7.9-2.864 15.987-3.592 23-6 4.697-1.613 8.463-6.174 15-4 1.342-.658 1.862-2.138 2-4 3.056-.723 3.645 1.022 6 1 1.975-.691 2.666-2.667 3-5 6.938 1.928 17.811-3.577 24-10 4.872.872 6.633-1.367 10-2 .726-3.059-1.726-2.941-1-6 4.564-.504 5.668 1.736 9 0 2.473-1.402 1.765-3.445 1-6 2.355-.022 2.944 1.723 6 1 2.762.428.938-3.729 3-4 17.168-6.499 26.015-21.318 42-29 1.263-2.404 1.286-6.047 3-8 9.69-1.976 11.517-11.817 17-18-8.885-19.116-14.782-41.217-40-44 11.453-8.941 33.515-6.117 47-1 14.295 5.424 36.563 22.908 47 37 4.414 5.959 6.99 14.657 7 22-7.803 4.716-1.095 12.69-2 19-1.717 11.967-17.56 17.903-28 23-3.814 1.52-3.031 7.635-10 6-6.111 12.555-23.449 13.885-29 27-11.01 4.657-18.777 12.556-27 20-10.086 3.248-18.422 8.245-25 15 17.034 3.668 38.1-5.573 52 0 3.144-.856 4.22-3.78 8-4 19.629 5.571 59.358-11.167 60 19 18.981 3.177 13.811 23.228 27 41 2.836 3.821 3.471 17.931 1 22-.253 3.586 3.003 3.664 3 7-4.652 6.348-10.177 11.823-10 23-5.998.233-7.617 9.398-12 8 .393-28.059-24.225-31.108-33-50-17.057-4.984-38.934 8.691-50 0-2.671 2.996-7.816 3.517-11 6-3.676-.325-5.533-2.467-9-3-31.587 8.256-59.936 4.245-84 14-7.521-7.307-17.767 1.231-26-1-7.764 8.896-28.569 11.818-41 5-20.98 1.696-39.2-7.259-62-7-2.573 6.427-4.885 13.115-9 18-28.97.363-54.215 4.452-70 18 1.201 5.46 6.714 2.139 10 4-.568 4.765-8.268 2.399-7 9 5.772 5.416 9.17-3.692 14 2 5.652-2.348 11.305-4.695 16-8 2.338.329 4.131 1.202 6 2 12.115-4.381 30.854-.83 44 2 18.927 4.074 39.289 9.804 52 17h9c1.216 2.784 2.488 5.512 5 7 8.689-.477 13.002-1.894 13 7 3.129.204 7.341-.675 9 1 4.824 7.51 16.342 8.325 20 17 23.752.582 27.339 21.328 47 26 2.213 10.557 14.959 12.111 16 21 20.411 8.589 32.226 25.774 51 36 .357 2.977 1.593 5.074 3 7 4.512 2.488 9.251 4.749 14 7 .318 2.348 1.58 3.754 1 7 11.695 5.305 19.351 14.649 25 26 1.511 3.489 5.984 4.016 9 6 3.367 6.744 2.047 17.995-1 24 .958 4.709 5.639 5.694 10 7 8.434 17.9 18.613 34.054 27 52 .58 3.246-.682 4.652-1 7 9.06 18.791 12.81 43.002 20 65 2.289 7.003 4.343 9.946 5 21 .529 8.907 3.959 15.731 6 25 3.197 14.518 1 29.727 1 45 0 21.194 7.018 43.02 3 65-16.473-48.861-29.079-101.588-51-145 .783-9.116-4.682-11.985-8-17v-6c-5.335-8.665-11.156-16.844-14-28-.15-1.85-3.387-.613-4-2-.857-3.19 1.574-3.093 2-5-1.334-3.083-4.447 1.863-6-1 .926-3.923 2.178-3.717 1-8-2.834-.142-4.912-.965-8-3 1.389-3.169 1.389-8.831 0-12-4.029.201-7.648-7.077-6-13-7.268-2.732-8.25-11.75-14-16-22.684-1.026-42.629-.267-47-17-4.51-1.386-4.993 3.889-8 1-2.028-3.305-3.74-6.927-3-13-5.027 1.41-5.973 1.894-11 2-1.069-3.736 2.483-2.851 2-6-3.788-2.114-7.212.777-11-2-2.332-3.53-1.616-6.234-1-11-4.584.411-9.841 2.064-14 0 1.135-5.309.309-8.084-3-11-6.207-.207-7.322 4.678-11 7-2.812-3.529 4.177-5.785 2-12-4.715-3.915-8.278 3.342-10 2 3.409-7.447-2.704-12.124-5-17-3.13-2.597-6.67 1.396-10-1-2.893-1.773-4.674-4.659-6-8-5.163.977-8.901-7.223-12-2-2.815-2.822-4.265-6.617-10-4-1.594-7.865-13.237-11.334-19-9-5.504-8.496-13.365-14.635-27-15-7.461-10.205-17.173-18.16-21-32-14.73-9.604-25.068-23.598-41-32-8.319 1.894-12.259 9.308-22 7-22.65 21.023-56.9 35.757-91 42-4.88 8.12-21.325 4.675-25 14-4.813-.48-8.177.49-7 6 14.9 5.839 18.773-14.782 40-6 2.003 5.997 6.199 9.801 6 18 7.592 6.015 22.418 1.933 28-3 11.492 1.321 23.347 2.91 35 6 9.841 2.609 17.144 10.984 26 10 5.711 5.289 17.396 4.604 18 15 13.839 6.161 27.654 12.346 35 25 6.479-1.48 5.52 4.48 12 3 1.548 4.476 3.789 11.236 10 8 .409 2.409-1.826 2.174-1 5 9.877 1.123 12.337 9.663 20 13-.841 2.492-1.309 5.357-1 9 1.978 2.871 6.241-.347 9 0 .489 3.156-1.802 3.531-1 7 5.946 5.721 7.921 15.412 17 18 .022 2.355-1.723 2.944-1 6 1.124 3.21 6.802 1.864 9 4 8.468 12.532 15.296 26.704 27 36v6c14.269 9.064 14.367 32.3 29 41 1.963 9.318 3.166 20.23-1 28 .469 5.794 5.324 5.436 8 9 6.656 8.866 5.974 21.301 10 32 2.172 5.771 7.294 10.099 8 19 1.544 2.456 4.017 3.983 6 6 23.141 60.742 20.484 130.021 18 200-5.834-2.128-3.62-10.183-5-15-1.443-5.039-4.242-7.354-5-14-4.7-41.222-25.133-81.396-34-120-5.445-23.709-15.986-43.28-29-61 .176-5.176-2.05-7.95-3-12-4.916-4.084-9.729-8.271-11-16-11.441-8.226-26.627-12.706-40-19-26.392-30.199-55.566-62.443-88-89-10.816-8.856-19.458-16.163-30-16-6.902-1.765-6.587-10.746-11-15-2.919-27.414-13.207-47.459-30-61-7.082 3.166-17.652 4.211-25 1-24.505 10.494-48.034 21.966-79 26-11.212 9.454-32.685 8.648-44 18-13.028-.265-17.723 7.597-30 6-2.565.102-1.607 3.727-3 5-16.21 4.856-31.286 8.775-46 14-4.927 1.75-9.822 5.597-15 7-7.226 1.959-14.526.946-22 2-7.654 1.079-15.544 4.34-24 5-11.112.867-25.952-.169-42 1-2.765-2.235-2.419-7.581-9-6-3.972 5.294 5.536 9.141 3 13-10.988 3.742-18.005-7.998-26-10-1.856-.465-5.267.771-7 0-3.233-1.438-4.878-5.32-8-7-2.281-1.227-5.482.023-8-1-2.836-1.152-5.268-5.547-8-7-8.437-4.485-17.117-6.581-26-9-4.897-5.908-10.761-14.582-22-11-12.114-8.088-26.219-13.264-38-1-5.877 6.118-9.177 21.47-13 32-5.117 14.092-7.941 37.312-25 26 1.053-16.776 3.054-37.447-4-53-9.254 2.345-14.533 11.953-25 14-12.979 2.538-26.485-2.434-36-11-13.702 6.429-30.597 9.483-48 6-5.744-1.149-10.343-4.797-16-4-9.4 1.324-14.417 9.92-23 11-19.192 1.203-24.152-6.553-39-15-4.85-2.76-14.755-8.813-18-8-4.207 1.055-11.254 16.499-10 24 1.563 9.35 12.674 10.216 11 26-1.163 10.967-11.325 16.57-21 14-12.42-3.3-12.205-19.121-8-34-7.271-6.88-10.099-24.595-19-30-4.888-2.969-10.621-.146-16-3-6.239 2.428-8.589 8.744-14 12-32.823 5.78-49.627 24.766-84 27-1.873-1.794-1.195-6.139-4-7-2.651.016-5.888-.555-6 2-33.795-4.423-65.97-7.86-90-20-22.048-3.285-32.177-18.49-54-22-4.162-6.172-13.24-7.427-18-13-42.896-12.438-82.384-28.282-117-49-15.703.627-29.648-.367-43 4-7.247 13.83-23.342 28.643-29 45-3.63 10.493-1.223 22.858-11 30-3.998 0-6.002 1.998-10 2-15.415 16.585-35.205 28.795-45 51-9.285 2.871-11.483 14.173-18 20-1.226 1.096-4.886.803-6 2-1.117 1.2-3.009 5.404-5 8-9.905 12.914-20.107 30.54-33 42-2.44 2.169-6.367 3.752-9 6-6.953 5.938-14.118 10.138-23 16v8c-12.762 15.924-18.497 35.547-30 56-5.556 9.878-12.4 20.7-16 30-6.048 15.624-8.725 35.309-15 54-2.842 8.466-5.662 17.406-9 26-9.134 23.516-15.806 50.529-20 81-9.592-14.342-3.226-36.16-4-57-1.033-27.821.494-55.748 3-81-1.008-3.008 2.228-1.772 4-2 .305-22.972 8.562-41.026 14-59 2.324-7.68 2.54-16.222 5-24 4.347-13.741 17.004-27.51 17-48 11-13.589-6.763-22.573 0-39 1.311-3.185 5.261-5.51 7-9 2.021-4.055 1.951-9.932 4-14 1.769-3.514 6.311-6.139 8-10 3.323-7.596 6.414-14.875 9-23 17.685-23.314 30.434-51.566 53-70 4.995-2.831 7.024 2.547 11 0-.687-5.98-7.333-6-10-10 17.692-28.975 50.837-42.496 71-69h8c12.694-8.64 29.818-12.85 40-24 15.709-3.858 30.771-6.564 48-6 8.593.281 17.377 2.365 25-3-6.282-7.268-16.953-5.987-25-9-19.759-7.397-36.389-20.281-52-31 .838-4.838-.928-7.072-2-10-6.155-3.705-12.874-.452-20-3-6.283-2.246-7.665-7.888-14-8-4.522-.08-6.109 3.463-11 5-5.054 1.588-12.322.365-16 7-21.716 3.604-37.007 16.104-58 23-3.469-.469-.573 5.427-3 6-8.082-1.913-16.04.918-26 0-3.582.752-3.875 4.792-6 7-9.459-.505-12.63 3.412-19-1-7.15 2.395-17.921 7.67-25 4-3.41 12.521-19.809.023-21 14-3.318-1.682-7.539-2.461-11-4-2.382 4.284-10.63 2.703-10 10-4.426 1.427-2.616-3.384-6-3-4.04-.373-3.914 3.42-6 5-4.146 1.146-3.896-2.104-7-2-5.834 3.586-13.584 12.218-21 8-3.52 4.305-11.859 8.592-20 5-12.19 13.125-35.091 15.102-51 22-7.041-4.177-15.669-2.779-21 2-1.994 7.673-4.592 14.741-9 20-2.147 12.854-6.008 23.992-12 33 .167 2.833 1.833 4.167 2 7-3.066 1.934-4.526 5.474-7 8-2.323 15.852-7.149 32.144-10 48-2.811 15.634-8.28 25.86-11 42-1 5.932.192 11.241-1 17-.708 3.418-3.142 6.354-4 10-.222.943 1.336 3.898 1 5-1.152 3.777-4.253 6.42-5 10-3.406 16.326-.839 32.386 0 47-9.405-.501-10.489-18.013-12-30-4.237-33.608-12.015-73.732-7-106 1.129-7.266 3.289-12.625 4-21 2.615-30.803 19.315-60.781 21-91 9.058-13.609 9.779-35.555 22-46-4.893-17.768 10.572-23.394 24-31 13.291-7.529 21.071-10.544 33-16 7.431-3.398 14.212-8.99 22-13 18.357-9.452 39.457-17.048 58-25 10.024-4.299 18.714-9.116 28-12 16.821-.179 23.639-10.361 34-17 7.143.81 11.601-1.065 15-4 3.736-1.069 2.85 2.483 6 2 4.805-5.071 12.198-3.581 20-7 9.872-4.326 21.167-5.59 37-8 8.04-1.225 15.955-4.659 23-5 14.243-.688 37.095 7.82 38-10-.431-2.236-4.928-.405-7-1-2.897-2.77-5.867-5.467-9-8-36.686 3.123-69.783-2.146-105-5-22.02-1.784-29.71-19.233-49-21-2.321-8.013-14.039-6.628-18-13-2.753-2.769-4.177.898-7 1-1.563-3.104-2.967-6.366-5-9-13.515-3.595-22.857-16.326-37-16-.357-2.976-1.593-5.074-3-7h-6c-16.436-23.564-50.479-29.521-77-43-6.279-7.552-2.693-17.396-8-24-3.013-3.749-7.346-2.071-11-5-2.145-1.719-.702-4.07-2-6-2.876-4.275-8.91-6.352-10-11-3.78-22.113 9.23-27.437 23-32 4.756 1.244 7.704 4.296 13 5 1.015 7.318 1.242 15.424 6 19 11.313-4.558 31.181-9.974 34 6 8.822 1.512 13.953 6.714 15 16 2.287 3.493 3.543-2.362 7-1 2.668 2.332 4.193 5.807 5 10 3.651.527 4.491-4.391 7-2 1.455 2.212.674 6.66 3 8 4.616.616 5.755-2.245 10-2v7c7.573.036 22.541 5.654 29 13 9.956-1.312 19.921 6.093 22 13 9.042-3.239 15.037 3.957 20 8 4.774-4.036 13.446 2.029 15-5-.517-4.483-4.453-5.547-9-6-4.075-9.258-15.696-10.971-18-22-4.228-4.439-9.147-8.187-15-11-.533-3.467-2.675-5.325-3-9-9.61 3.157-15.81-2.321-17-10-2.503-1.9-3.927.83-7-1-.575-4.425-1.381-8.619-8-7 .723-3.056-1.022-3.644-1-6-5.243-.424-7.482-3.851-12-5-6.844-9.823-13.476-19.857-24-26-8.075-18.258-29.361-23.305-37-42 3.1-28.995 17.741-41.271 44-52 5.785-2.363 12.201-2.752 20-5 10.527-3.034 20.33-9.416 30-12 4.077-1.09 8.083-.744 12-2 5.7-1.828 12.539-5.206 21-5 9.953-18.713 23.694-33.64 34-52-5.471-9.674 4.092-14.771 5-23 1.198-10.865-13.076-21.621-5-37 5.713-5.287 11.157-10.843 19-14 1.32-14.71 11.013-23.697 16-35 .89-2.018-.06-5.181 1-7 2.773-4.76 9.948-8.215 8-19 11.556-7.444 17.746-20.254 21-36 6.334-2.333 7.432-9.901 13-13 2.077-13.512 15.712-20.796 24-31 6.085-7.492 11.03-15.168 19-22 7.277-6.238 15.334-12.163 22-19 10.927-11.208 19.968-28.909 37-34 9.17-2.741 15.887-9.576 23-10 6.952-.415 9.761 4.564 18 6 6.541 1.14 13.375-2.827 21-3 14.517-8.617 32.063-16.5 52-22 18.02-4.972 40.366-2.964 52-14 14.386-.281 25.094-4.24 36-8 34.405-5.915 69.177-11.904 105-8 51.832 5.648 96.047 29.189 135 52 18.658 10.926 37.621 24.044 51 36 12.016 10.738 23.076 22.461 22 46zm-82 160c-.526 5.193 4.301 5.032 7 7 1.504-5.496 7.872-6.128 9-12-5.957 1.044-10.031 3.969-16 5zm-698 171c1.969 3.576-.464 5.336 0 10 1.758.575 5.875-1.208 6 1-1.72-.054-2.563.77-3 2 1.659 1.674 5.871.796 9 1 .409 2.409-1.826 2.174-1 5 1.758.575 5.875-1.208 6 1-.558 2.039-3.009 1.961-1 4 2.483 1.301 4.15-2.934 5 0 .261 2.928-2.261 3.072-2 6 2.564 1.103 6.644.689 5 6h6c-.314 1.352-1.423 1.91-1 4 5.707-1.707 5.37 2.63 5 7 .845 2.155 6.375-.375 7 2v5c13.573 4.965 18.201 15.016 33 20-20.334-27.274-40-59.648-34-105-18.628 1.071-29.365 18.612-40 31zm336 204c18.676 6.91 34.709 19.608 53 28 23.159 10.625 48.019 18.252 73 27 25.278 8.852 52.205 23.04 86 23 .523-5.215-4.095-10.11-8-14-3.967-3.951-9.301-10.117-13-12-8.768-4.464-22.535-4.322-35-7-25.306-5.435-49.16-13.938-71-20-28.214-7.831-63.963-20.895-87-28 .095 1.571-.134 3.467 2 3zm255 175h11c8.365 8.302 22.425 10.908 29 21 9.803.197 18.145 1.855 24 6 8.756-11.27-1.991-18.046-6-24-1.211-1.798-.369-4.864-1-6-6.32-11.381-34.531-6.171-48-10-3.652-1.038-6.432-4.791-10-6-8.92-3.021-19.069-2.097-28-5-11.752-3.82-21.656-11.617-33-11 19.158 13.176 42.487 22.18 62 35zm609 16c-2.639 3.693-11.344 15.279-1 17 4.431-3.569 7.223-8.777 14-10 2.4-3.933 6.6-6.067 9-10 8.696-7.427 24.58-12.586 25-25-20.508 4.492-30.585 19.415-47 28z" fill-rule="evenodd"/></svg>