<svg xmlns="http://www.w3.org/2000/svg" xmlns:dc="http://dublincore.org/documents/dcmi-terms/" height="182.032" width="233.597"><metadata><dc:description>Silhouette of Candidatus Vecturithrix granuli, processed by PhyloPic Tools (https://github.com/eweitz/phylopic-tools)</dc:description><dc:source>http://phylopic.org/image/c94c02ba-e6b8-4c66-9721-f3e391d03bb5</dc:source><dc:creator>Matt Crook</dc:creator><dc:license>http://creativecommons.org/licenses/by-sa/3.0/</dc:license></metadata><g fill="none" stroke-width="2" stroke-linecap="round"><path d="M86.133 12.278c3.706 4.097 10.604 6.196 16.763 6.35 6.158.155 11.88-5.519 18.234-5.472 6.354.048 13.44 2.185 18.204 5.744 4.765 3.558 7.034 8.499 8.537 14.227 1.504 5.728 3.139 12.886.168 18.94-2.97 6.054-12.106 9.577-16.336 14.008-4.231 4.431-5.914 8.261-8.87 12.392" stroke="#666"/><path d="M123.327 97.779c1.707-4.68 4.928-8.284 5.121-14.039.193-5.754-3.33-12.45-4.007-19.19-.677-6.739-1.147-13.896-.032-21.034 1.116-7.138 5.723-15.352 6.646-21.3s-1.746-10.21-1.207-13.75c.54-3.539 2.848-4.254 4.272-6.381" stroke="#333"/><path d="M59.464 71.884c-4.649-2.173-8.654-4.302-13.947-6.518-5.292-2.215-13.812-2.734-17.787-6.767-3.974-4.033-2.857-9.837-3.256-14.585-.399-4.747 1.921-9.52.887-13.613s-3.657-8.417-6.738-9.553M58.043 23.768c.55 4.125 1.99 6.209 1.647 12.376-.343 6.167-1.615 19.408-3.686 24.297" stroke="#666"/><path d="M65.2 48.421c-7.242 1.748-12.067 8.561-16.898 11.869-4.832 3.307-7.11 8.228-12.088 7.975-4.978-.253-8.293-3.612-12.369-9.219-4.075-5.606-7.624-15.686-11.436-23.53" stroke="#333"/><path d="M26.587 103.042c1.56-4.222 3.04-8.098 4.681-12.665 1.641-4.567 3.379-9.711 5.167-14.736 1.788-5.025 2.11-10.518 5.561-15.412 3.45-4.893 8.683-10.233 14.523-13.075 5.84-2.842 12.974-.912 19.145-3.31 6.17-2.396 12.748-6.056 17.178-10.798 4.431-4.742 5.426-12.625 8.445-16.626 3.019-4 5.946-5.187 9.204-6.761 3.258-1.574 6.954-1.028 9.978-2.505 3.025-1.476 5.175-4.103 7.763-6.154" stroke="#333"/><path d="M136.412 9.946c-.187 4.662-3.455 7.466-.56 13.985 2.893 6.519 11.53 16.512 17.066 23.196 5.536 6.683 9.396 13.565 16.08 16.822 6.683 3.256 15.436 1.357 21.292 1.387 5.857.03 9.167-.805 13.75-1.207" stroke="#666"/><path d="M203.469 24.481c-2.555 3.34-5.306 4.084-8.719 4.69-3.413.606-7.87-4.47-11.496-1.1-3.626 3.372-7.602 10.462-9.21 17.628-1.61 7.166-2.685 16.446-.174 24.176 2.51 7.73 9.652 13.248 14.479 19.872" stroke="#333"/><path d="M3.597 149.217c1.902 1.292 6.168 3.123 12.194 1.145 6.027-1.979 17.885-9.293 22.551-12.552 4.667-3.26 5.447-5.449 10.692-8.067 5.244-2.618 14.097-4.46 19.743-7.126 5.647-2.666 2.792-4.62 7.831-7.201 5.039-2.583 17.072-5.27 21.906-8.037 4.835-2.768 4.088-5.342 6.131-8.014" stroke="#666"/><path d="M38.486 124.85c-8.61-.562-17.069-4.005-23.394-6.783-6.326-2.778-9.395-6.454-14.092-9.682" stroke="#333"/><path d="M232.597 131.54c-12.973-3.533-28.922-5.4-39.33-4.316-10.406 1.086-14.327 8.654-20.669 10.572-6.34 1.918-9.687-1.195-16.519.676-6.832 1.87-16.03 8.382-23.81 10.366-7.782 1.985-14.281-.308-22.173 1.36-7.892 1.667-19.987 5.474-24.744 8.553" stroke="#666"/><path d="M220.601 154.244c-2.787-2.05-5.272-5.26-8.362-6.153-3.09-.894-5.385-.337-8.84 1.176s-7.774 6.586-11.367 7.673c-3.592 1.086-4.842-1.485-8.658-1.616-3.815-.131-8.583 2.41-14.076.835-5.492-1.574-11.591-7.57-17.582-9.91-5.99-2.339-12.333-3.49-17.968-3.974-5.636-.486-9.31 3.485-15.495 1.093-6.185-2.392-15.212-10.091-19.38-14.583-4.17-4.492-4.063-6.356-4.858-11.534-.795-5.178.121-12.611.181-18.917" stroke="#666"/><path d="M161.02 143.35c-.49-5.055.333-10.754-1.466-15.168-1.8-4.413-6.516-5.893-8.81-10.038-2.295-4.145-3.117-9.551-4.675-14.326M106.05 120.84c.888 2.511 1.015 5.14 2.664 7.535 1.649 2.394 5.256 3.247 6.943 6.411 1.687 3.164 1.827 7.83 2.74 11.746M142.847 174.766c-7.011.01-11.121-1.282-19.645-5.136-8.525-3.854-22.843-14.079-31.09-17.8-8.247-3.72-11.972-2.051-17.946-4.324-5.973-2.273-9.735-8.76-17.627-9.211-7.893-.452-17.765 6.534-26.725 6.671-8.96.137-17.175-1.82-25.557-5.872M169.14 174.727c6.05.394 13.29-1.275 17.513-5.168 4.224-3.893 4.734-11.511 4.863-15.457.13-3.947-4.598-2.388-4.15-6.23.446-3.842 7.323-8.708 6.54-14.296-.784-5.589-8.416-8.46-10.61-14.713-2.193-6.253 1.371-13.55-2.102-21.52-3.474-7.97-14.061-15.528-18.023-24.66-3.962-9.133-2.655-20.658-5.139-28.728-2.484-8.07-6.41-12.804-9.615-19.205" stroke="#333"/><path d="M169.17 179.637c6.47 1.122 15.045.304 19.752-1.868 4.707-2.172 3.284-6.606 5.547-9.804a67.845 67.845 0 0 1 7.967-9.296c2.943-2.859 7.13-4.585 9.621-7.786 2.49-3.2 4.555-5.349 4.917-10.897.361-5.547-1.94-13.27-2.824-21.216-.885-7.946-.149-18.374-2.483-26.452-2.334-8.077-4.647-16.4-11.246-21.064-6.6-4.663-16.311-3.575-24.275-4.035-7.964-.46-16.056 1.817-23.22 1.29-7.163-.525-12.313-1.228-19.342-4.414-7.029-3.187-15.341-11.022-22.196-14.417-6.854-3.395-14.05-1.752-18.553-5.766-4.503-4.013-1.917-9.907-5.63-15.79-3.715-5.884-10.658-15.768-16.293-18.94" stroke="#333"/><path d="M81.679 5.328c.597 5.18-1.128 17.098-2.875 22.597-1.746 5.499-5.904 6.194-7.269 9.341-1.365 3.147-1.846 2.904-.568 8.727 1.277 5.822 6.488 18.615 8.135 25.768 1.648 7.154 2.085 11.045 1.7 16.937-.383 5.891-2.65 11.979-3.974 17.969M112.433 1.373c.658 4.249 3.055 7.348 1.974 12.747-1.082 5.4-4.212 12.763-8.21 18.394-3.997 5.632-11.754 9.548-15.334 14.775-3.581 5.227-5.09 9.082-5.584 15.76-.496 6.68 1.185 13.085 1.26 18.31.075 5.226-.593 10.015-.819 12.567-.226 2.551 1.086 3.956.919 7.42-.167 3.465-1.275 8.798-1.912 13.197" stroke="#000"/><path d="M202.137 98.708c-.364 5.585.784 10.776 4.212 16.049 3.428 5.272 11.595 9.583 15.541 14.333 3.947 4.75 7.245 10.754 7.862 13.832" stroke="#333"/><path d="M117.16 4.134c1.015 4.156.609 7.78 3.044 12.468 2.435 4.686 7.696 8.881 11.284 15.107 3.59 6.225 8.59 15.198 10.132 22.043 1.54 6.845.037 13.437-1.16 17.801-1.198 4.365-4.757 3.693-5.737 7.338-.98 3.646-1.189 8.553.183 13.333 1.372 4.779 3.922 11.176 7.817 14.53 3.894 3.355 9.618.733 13.757 4.052 4.14 3.318 7.252 9.091 9.562 14.644 2.31 5.553 2.478 13.602 4.075 18.143 1.598 4.541 4.034 4.935 5.388 8.764 1.354 3.83 1.457 10.434 2.604 13.84 1.146 3.408 2.958 3.737 4.15 6.23 1.193 2.493 1.964 5.737 2.945 8.605" stroke="#000"/><path d="M129.514 2.836c-1.95 3.028-4.588 4.479-5.85 9.083-1.261 4.605-.64 13.562-1.509 17.78-.868 4.217-3.65 3.725-3.62 7.125.03 3.4 4.58 5.284 3.788 11.814-.791 6.53-7.099 18.58-8.338 25.747-1.24 7.167 2.29 11.19 1.025 16.542-1.265 5.352-6.54 10.095-8.285 14.183-1.746 4.087.123 6.248-2.056 10.031-2.18 3.783-8.81 7.818-10.593 11.93-1.782 4.11 1.26 7.784.691 10.91-.568 3.128-2.645 4.736-3.968 7.103M121.544 103.622c3.081 6.51 8.915 12.02 9.243 19.53.329 7.512-5.788 16.256-7.412 22.303-1.625 6.046 1 9.093-2.306 13.87-3.307 4.778-10.261 10.432-16.268 12.962M56.89 170.567c.723-3.926 2.407-8.013 2.169-11.777-.238-3.764-2.89-5.687-3.552-10.046-.662-4.36 1.876-7.6-.372-15.799-2.249-8.199-11.247-23.518-12.94-32.742-1.692-9.223 3.853-12.946 3.11-20.83-.742-7.882-1.885-19.305-7.46-25.373-5.575-6.069-16.78-3.863-21.998-6.692-5.218-2.828-7.191-6.194-8.135-9.644" stroke="#000"/><path d="M52.974 26.242c2.029 2.936 1.455 8.438.578 12.657-.878 4.219-5.472 6.755-5.683 11.898-.211 5.143 4.594 8.263 4.493 17.118-.102 8.856-1.976 26.068-5.09 35.073-3.115 9.005-7.244 12.225-13.05 17.377-5.808 5.152-14.12 8.661-21.178 12.992M188.418 104.825c-4.057-.498-8.154-2.017-12.171-1.495-4.018.523-6.638 4.516-11.162 4.531-4.525.015-10.932-2.24-14.433-4.446-3.501-2.205-1.836-6.127-5.434-8.066-3.597-1.938-10.632-1.187-14.546-2.7-3.914-1.513-3.947-6.2-8.362-6.154-4.416.047-10.031 6.076-14.79 6.398-4.757.321-7.418-2.282-11.617-4.613-4.199-2.332-8.086-7.035-13.416-9.287-5.33-2.253-11.98-2.65-17.969-3.976M168.586 21.858c-2.152 2.547-1.626 6.33 1.647 12.376 3.274 6.044 11.244 18.371 17.439 22.87 6.194 4.497 10.826 4.21 17.035 2.161" stroke="#000"/><path d="M147.18 6.09c1.616 7.467 3.434 13.293 7.08 21.815 3.646 8.522 7.042 17.402 14.73 25.393 7.69 7.992 21.358 15.572 28.016 21.94 6.659 6.369 8.651 12.453 10.708 18.575 2.056 6.123.375 11.225 1.329 17.263.954 6.039 3.86 14.086 4.379 18.864.519 4.778.982 6.18-1.312 9.379-2.294 3.2-7.553 7.379-11.413 8.37-3.859.992-5.277-.666-9.265-3.057-3.988-2.391-9.792-8.875-14.35-11.101-4.556-2.226-7.38-2.372-12.148-1.843-4.769.528-9.397 4.453-15.745 4.933-6.348.48-14.502-3.28-21.596-2.109-7.094 1.171-13.18 7.729-19.508 8.895-6.33 1.165-11.75-.132-17.036-2.162-5.285-2.03-9.084-7.619-13.742-9.66-4.658-2.04-9.083.764-13.522-2.282-4.44-3.047-9.11-10.85-11.307-14.759-2.197-3.91-.521-5.263-1.571-8.164-1.05-2.902-1.722-5.776-4.667-9.068-2.946-3.292-9.852-5.435-12.65-10.289-2.798-4.853-.455-11.804-3.097-17.027-2.642-5.224-9.977-8.334-12.119-13.059-2.142-4.725.111-8.873.166-13.31" stroke="#000"/></g></svg>