<svg xmlns="http://www.w3.org/2000/svg" xmlns:dc="http://dublincore.org/documents/dcmi-terms/" height="181.565" width="185.503"><metadata><dc:description>Silhouette of Candidatus Kuenenia, processed by PhyloPic Tools (https://github.com/eweitz/phylopic-tools)</dc:description><dc:source>http://phylopic.org/image/7e6642d3-7303-4887-8c77-a86c0048e924</dc:source><dc:creator>Matt Crook</dc:creator><dc:license>http://creativecommons.org/licenses/by-sa/3.0/</dc:license></metadata><path d="M6.958 108.89c-.828 4.81-4.2 3.419-4.005 9.79.194 6.37 5.557 18.658 12.014 24.917 6.457 6.26 17.046 5.499 24.028 10.68 6.982 5.18 10.354 15.378 16.909 19.578 6.555 4.2 14.553 5.734 20.023 5.784 5.47.05 6.043-2.853 11.57-3.114 5.526-.261 15.632 5.748 20.913 3.56 5.28-2.19 3.277-8.238 7.564-10.68 4.288-2.442 12.362 1.48 16.464-1.335 4.102-2.815 2.87-8.632 5.784-12.014 2.914-3.382 7.377-6.787 11.124-7.564 3.748-.777 6.217 3.155 9.345 1.78 3.128-1.375 4.061-4.818 5.784-9.345 1.724-4.526 1.043-13.649 3.115-17.798 2.072-4.15 5.04-3.692 6.675-7.12 1.635-3.427.071-8.677 1.78-12.904 1.708-4.227 8.657-5.975 8.454-11.569-.203-5.594-8.96-8.556-12.46-14.684-3.498-6.127-6.268-14.586-7.564-21.803-1.295-7.217 2.604-16.906-.445-20.913-3.048-4.007-2.918.586-8.899-2.67-5.98-3.256-17.83-18-24.028-20.468-6.198-2.47-3.033.71-8.454-.445-5.422-1.155-16.434-7.75-23.139-8.9-6.704-1.149-9.402-.644-16.018.445-6.617 1.09-18.096 6.544-23.139 7.12-5.042.575-2.856-1.26-6.229-.445s-9.12 4.648-12.459 7.564c-3.339 2.916-3.44 5.761-7.564 9.344-4.124 3.584-14 5.652-17.799 10.68-3.8 5.027-2.062 12.62-4.45 16.463C9.465 56.667 6.69 55.13 4.288 59.5 1.886 63.867.49 73.79 1.173 79.077c.682 5.286 3.717 6.117 4.895 11.124 1.178 5.008 1.717 13.878.89 18.689z" fill="#fff" stroke="#000" stroke-width="2"/><path d="M167.072 89.57a78.5 78.5 0 1 1-157 0 78.5 78.5 0 1 1 157 0z" style="marker:none" color="#000" stroke="#000" stroke-width="2" stroke-linecap="round" stroke-linejoin="round" overflow="visible"/><path d="M88.559 16.06c-11.779 0-21.932 1.835-32.305 10.833C45.88 35.892 39.09 52.716 39.09 70.435c0 40.593 32.907 73.5 73.5 73.5 11.766 0 22.375-2.252 32.75-11.247 10.375-8.995 16.719-25.4 16.719-43.128 0-40.593-32.907-73.5-73.5-73.5z" style="marker:none" color="#000" fill="#fff" stroke="#fff" stroke-width="2" stroke-linecap="round" stroke-linejoin="round" overflow="visible"/></svg>