<svg xmlns="http://www.w3.org/2000/svg" xmlns:dc="http://dublincore.org/documents/dcmi-terms/" height="214.923" width="208.781"><metadata><dc:description>Silhouette of Candidatus Korarchaeum cryptofilum, processed by PhyloPic Tools (https://github.com/eweitz/phylopic-tools)</dc:description><dc:source>http://phylopic.org/image/1d3e96c8-4493-4b08-b614-f76b487bfeaa</dc:source><dc:creator>Matt Crook</dc:creator><dc:license>http://creativecommons.org/licenses/by-sa/3.0/</dc:license></metadata><g fill="none" stroke-width="2" stroke-linecap="round"><path d="M87.884 65.15c11.079-2.588 20.242-4.228 33.235-7.763 12.994-3.535 30.194-10.302 44.688-13.439 14.493-3.136 27.976-6.102 41.974-5.315M124.463 54.114c15.89-6.129 32.145-13.38 45.991-20.587 13.846-7.206 24.868-14.15 36.46-22.326" stroke="#666"/><path d="M126.91 45.375c3.381 11.223 5.986 23.044 10.145 33.67 4.159 10.625 9.815 19.909 14.722 29.864" stroke="#666"/><path d="M81.298 43.114c7.37 7.184 12.483 14.806 22.11 21.553 9.627 6.747 23.92 14.612 35.07 18.52 11.148 3.907 20.59 3.062 30.885 4.593" stroke="#666"/><path d="M82.461 49.197c13.435 9.933 27.378 22.938 40.303 29.797 12.926 6.86 24.072 7.17 36.107 10.754M187.059 174.532c-9.115-10.943-19.134-21.459-27.344-32.83-8.21-11.37-14.53-23.484-21.794-35.226M179.62 130.182c-10.428-7.206-20.416-12.864-31.284-21.617-10.868-8.753-22.519-20.523-33.778-30.784M67.426 67.762c7.116.098 14.672-.636 21.348.296 6.677.931 12.241 3.496 18.362 5.244" stroke="#666"/><path d="M90.618 64.7c-2.583 12.945-5.623 24.243-7.748 38.834-2.125 14.592-7.012 30.545-4.987 48.618 2.025 18.073 11.275 38.547 16.913 57.821" stroke="#666"/><path d="M73.264 73.656c16.18 3.015 33.636 7.403 48.54 9.045 14.903 1.643 27.053.517 40.579.775" stroke="#333"/><path d="M135.648 213.923c-15.258-21.219-35.873-46.568-45.774-63.655-9.9-17.088-8.711-25.265-13.067-37.897M37.513 163.726l22.409-31.992" stroke="#666"/><path d="M70.55 180.928c4.792-11.216 11.066-24.014 14.377-33.647 3.31-9.632 2.978-16.082 5.405-23.919s6.076-15.306 9.113-22.96" stroke="#666"/><path d="M52.012 176.126c14.196-13.446 26.119-23.959 36.517-34.059 10.399-10.1 18.224-17.67 22.871-24.142 4.648-6.47 6.242-14.087 10.62-20.316 4.378-6.23 12.14-12.559 18.21-18.838M38.72 152.961c8.324-9.813 15.917-18.684 23.13-26.083 7.212-7.4 13.931-13.21 19.975-18.136" stroke="#333"/><path d="M43.303 151.714c6.345-2.251 8.956-1.607 19.035-6.754 10.08-5.147 30.65-18.717 41.22-24.015 10.57-5.298 14.629-5.096 21.944-7.644M70.337 200.776l22.608-56.956M72.912 173.688c7.943-9.283 13.847-16.929 21.37-24.226 7.525-7.297 17.854-14.53 23.502-19.292 5.648-4.762 8.504-8.55 12.756-12.825M50.91 126.113c13.354-9.18 26.799-18.918 40.23-30.54 13.433-11.621 27.626-27.536 40.997-41.48" stroke="#333"/><path d="M71.998 128.35c4.567-7.216 10.966-15.626 13.703-21.648s.26-7.515 2.433-13.855c2.174-6.34 7.015-15.956 10.522-23.933M61.466 181.922c3.746-6.86 8.298-11.224 11.237-20.583 2.938-9.358 4.113-23.24 6.17-34.86M171.98 142.993c1.05-14.234 3.36-35.29 4.461-47.293 1.1-12.002 2.3-19.53 3.45-29.295M157.783 111.804c6.837-16.367 15.577-37.13 19.11-45.568 3.53-8.437 8.308-15.782 10.717-16.7" stroke="#333"/><path d="M106.607 106.823c-8.709-2.094-23.752-6.275-35.49-11.02C59.38 91.058 47.881 83.43 36.581 78.517 25.281 73.604 13.12 68.523 1 66.438" stroke="#666"/><path d="M158.401 12.388c-4.17 12.655-9.637 26.195-12.513 37.964-2.876 11.77-3.118 21.59-4.678 32.386M95.13 3.118c.758 8.819 7.63 25.895 14.216 38.863 6.587 12.968 17.12 24.985 24.8 37.953 7.68 12.968 12.833 26.9 19.249 40.35" stroke="#333"/><path d="M156.907 114.011c-15.645-.928-32.04.62-46.936-2.786S82.536 99.654 68.82 93.868M189.943 131.213c-17.588-12.773-40.066-27.006-52.763-38.32-12.697-11.313-15.165-19.307-22.747-28.96" stroke="#333"/><path d="M183.826 119.586c-14.771-3.99-31.043-7.809-44.314-11.968-13.27-4.159-23.487-8.641-35.23-12.962" stroke="#333"/><path d="M27.787 55.605C41.48 62.744 54.713 70.551 68.862 77.02c14.15 6.47 31.388 10.74 43.71 17.35 12.324 6.609 19.74 14.65 29.61 21.974" stroke="#333"/><path d="M59.509 42.642c6.83 14.126 15.697 32.849 22.346 44.135 6.65 11.286 14.712 17.72 19.208 25 4.497 7.283 5.031 12.22 7.547 18.329" stroke="#333"/><path d="M149.546 132.555c-6.246-4.864-10.281-6.885-18.74-14.593-8.457-7.708-21.205-22.79-31.927-31.583-10.722-8.793-21.384-13.94-32.076-20.91M132.06 125.104c-10.845-9.587-22.992-21.548-32.537-28.759-9.545-7.211-16.315-9.542-24.473-14.313M155.397 143.566L134.81 97.575M167.16 121.659c1.201-12.47 2.012-26.946 3.605-37.411 1.593-10.466 3.954-16.83 5.932-25.244" stroke="#333"/><path d="M25.95 61.52c16.615.633 34.341 2.944 49.845 1.897 15.504-1.047 28.39-5.427 42.584-8.14M163.47 160.57l10.868-59.572M161.9 1c-5.38 11.835-9.432 22.477-16.137 35.504-6.705 13.026-17.762 30.588-24.057 42.581-6.294 11.993-10.356 20.08-13.683 29.322M87.758 150.45c3-10.564 4.963-20.658 9.001-31.692 4.039-11.034 11.02-26.943 15.17-34.354 4.15-7.412 6.275-6.368 9.413-9.552M98.95 146.715c6.96-3.37 17.866-9.504 29.585-20.455 11.72-10.951 26.855-29.887 40.282-44.83" stroke="#000"/></g></svg>