<svg xmlns="http://www.w3.org/2000/svg" xmlns:dc="http://dublincore.org/documents/dcmi-terms/" height="195.558" width="183.093"><metadata><dc:description>Silhouette of Candidatus Sonnebornia yantaiensis, processed by PhyloPic Tools (https://github.com/eweitz/phylopic-tools)</dc:description><dc:source>http://phylopic.org/image/df101a1a-1a4a-4be6-8fa0-bfd18a2acc9a</dc:source><dc:creator>Matt Crook</dc:creator><dc:license>http://creativecommons.org/licenses/by-sa/3.0/</dc:license></metadata><g stroke-width="2" stroke-linecap="round"><path d="M135.826 43.367c-11.352-2.429-25.3 3.061-36.727 14.087l-65.111 62.818c-7.618 7.351-12.706 15.915-14.767 24.179-2.06 8.264-1.01 16.593 4.408 22.207 5.416 5.613 13.677 6.939 22.01 5.18 8.334-1.757 17.102-6.526 24.721-13.878l65.115-62.848c7.618-7.35 12.707-15.923 14.767-24.18 2.06-8.256 1.004-16.563-4.412-22.175-2.706-2.805-6.212-4.578-10.004-5.39z" fill="#fff" stroke="#000" stroke-linejoin="round"/><path d="M36.504 122.88l65.117-62.833c14.362-13.859 32.913-17.774 41.592-8.779 8.68 8.995 4.105 27.394-10.258 41.253l-65.116 62.832c-14.363 13.859-32.913 17.774-41.593 8.779-8.68-8.995-4.104-27.394 10.258-41.253z" stroke="#000" stroke-linejoin="round"/><path d="M53.565 71.159c1.89-3.68 2.199-5.523 5.67-11.039 3.47-5.516 12.298-16.413 15.12-21.999 2.82-5.586.948-7.172 1.422-10.758M55.552 46.581c1.499.339 3.72-.24 4.497 1.016.778 1.256-.917 2.686-1.375 4.028" fill="none" stroke="#666"/><path d="M54.41 61.587c2.685.917 4.49 4.527 8.056 2.75 3.567-1.778 5.217-10.644 9.973-11.733 4.755-1.09 8.114 4.441 12.17 6.662" fill="none" stroke="#666"/><path d="M73.608 62.863c1.422-3.32 1.833-6.885 4.265-9.962 2.431-3.077 5.697-7.435 9.893-7.954 4.197-.518 7.503 5.086 11.508 5.312 4.005.225 7.59-.582 10.642-4.066 3.053-3.484 8.131-10.324 6.218-15.177-1.914-4.853-10.194-1.77-14.1-4.812-3.905-3.042-4.46-9.568-8.04-12.431-3.578-2.863-8.093-2.474-12.14-3.711" fill="none" stroke="#666"/><path d="M88.742 2.552c.838 1.094 3.505.94 2.514 3.28-.992 2.34-5.826 5.998-7.411 8.283-1.585 2.284-1.302 3.476-1.953 5.215M94.72 21.026c-.747-1.783-2.866-3.117-2.24-5.348.625-2.232 4.75-3.277 5.427-6.02.677-2.741-1.201-5.772-1.802-8.658M106.395 2.782c2.134.844 5.126.571 6.402 2.53 1.275 1.96-.069 4.763-.103 7.145M100.769 29.405c.797-2.842.9-6.15 2.39-8.526 1.49-2.376 2.937-3.838 6.146-5.081 3.209-1.243 9.418-2.544 12.492-2.137 3.075.406 2.706 2.884 4.06 4.326" fill="none" stroke="#666"/><path d="M105.734 30.062c1.286-1.234 2.346-1.857 3.858-3.7 1.512-1.844 2.424-6.366 5.178-7.315 2.753-.95 4.992 2.273 8.056 2.75 3.065.476 7.183-1.16 10.096.071 2.912 1.231 3.903 4.446 5.854 6.67M125.9 33.57c-1.048-.559-1.374-2.446-3.146-1.678-1.771.767-3.23 4.978-5.786 5.55-2.556.571-4.487-3.246-7.23-2.64-2.742.605-3.931 5.192-7.082 5.8-3.15.606-7.219-.95-9.767-2.556-2.548-1.605-2.363-5.527-4.613-6.504-2.25-.977-4.357 1.108-6.535 1.662M99.298 46.893c-3.732.63-8.313.826-11.197 1.888-2.883 1.062-3.696 1.692-5.622 4.309-1.925 2.617-5.62 8.056-5.67 11.039-.05 2.982 5.416-2.269 5.489-.117.072 2.153-3.573 4.111-5.318 5.191-1.746 1.08-3.58-.003-4.77 1.054-1.192 1.056.012 3.571-1.43 4.442-1.443.87-3.623-.199-5.434-.298M70.037 77.127c-1.322 1.51-1.615 3.173-3.967 4.528-2.352 1.354-7.834 1.683-9.705 3.347-1.871 1.665 2.354 3.402.64 4.716-1.715 1.314-5.692-.126-8.136 1.03-2.444 1.154-3.858 3.7-5.787 5.55" fill="none" stroke="#666"/><path d="M49.878 79.934c-.245 2.915-1.194 6.49-.736 8.744.459 2.254 2.191 2.536 3.287 3.803M63.15 84.637c-1.335-1.58-4.176-1.618-4.005-4.74.171-3.123 3.265-7.708 4.898-11.563M50.226 96.4c-1.45 2.475-1.512 5.957-4.35 7.424-2.838 1.468-7.042.192-10.564.287M22.362 90.61c2.207.292 4.299-.005 6.62.875 2.322.881 4.674 2.864 7.011 4.296M28.271 96.865c1.124 2.113 4.368 3.7 3.372 6.34-.996 2.64-5.543 4.803-7.91 5.69-2.368.887-3.905-2.188-5.38-.711-1.474 1.477 1.189 3.731-.93 7.034s-8.993 8.848-11.268 11.983c-2.276 3.135-1.412 4.304-2.117 6.456M31.687 118.789c-2.207-.292-4.571-1.546-6.62-.876-2.05.67-2.921 2.982-4.382 4.473M25.401 121.747c-.237 1.793 1.53 4.426-.711 5.38-2.24.952-7.135-3.093-9.104-1.205-1.968 1.888 6.3 2.164 5.246 4.904-1.053 2.74-7.818 2.717-9.096 5.113-1.28 2.395 3.825.786 5.738 1.18M15.74 140.679c-1.101 1.959-3.336 4.038-3.304 5.878.032 1.84 3.037.283 3.45 2.562.414 2.279-.838 6.344-1.258 9.517M1.927 146.43c-.195-1.71-1.548-3.385-.584-5.13.963-1.744 3.711-2.596 5.567-3.894" fill="none" stroke="#666"/><path d="M24.822 173.878c-2.805-1.073-6.954-1.587-8.416-3.218-1.462-1.632 3.375-.084 3.28-2.514-.096-2.43-2.049-7.272-3.762-9.76-1.713-2.487-4.08-4.427-6.128-4.6-2.048-.172-2.162 2.091-2.616 3.865-.455 1.773-.775 3.085.007 6.316.78 3.23 1.809 9.684 4.62 12.82 2.81 3.137 7.192 2.917 10.789 4.375" fill="none" stroke="#666"/><path d="M9.245 180.238c1.837-1.16 1.952-2.795 5.513-3.48 3.56-.687 10.934-1.08 15.224-.513 4.29.567 8.646 1.178 10.017 3.85 1.37 2.673-6.983-.967-7.004 2.021-.021 2.989 3.683 6.983 6.932 8.075 3.248 1.091 6.348-3.35 9.596-2.52 3.247.829 5.006 4.591 7.51 6.887" fill="none" stroke="#666"/><path d="M46.742 192.776c1.11-3.081 3.287-6.113 3.328-9.243.04-3.131-2.065-5.607-3.098-8.41" fill="none" stroke="#666"/><path d="M42.95 180.065c4.724-1.761 11.025-4.969 14.172-5.283 3.146-.315 1.249 2.483.335 3.833-.914 1.35-3.363 2.082-5.044 3.122M35.21 190.83c-3.413-2.837-7.437-7.488-10.241-8.512-2.804-1.024-.402 3.034-.602 4.552M5.343 168.354c2.215-.83 5.476-.915 6.645-2.489 1.168-1.574-1.015-2.941-1.522-4.411M119.59 39.894c7.585-1.102 17.799-1.598 22.753-3.307 4.954-1.708.98-3.87 5.482-6.432 4.5-2.562 17.122-6.04 20.926-8.6 3.804-2.56-.702-3.18-1.054-4.77M171.774 11.429c.663 1.35-.082 3.778 1.99 4.052 2.073.274 5.864-6.102 7.527-2.793 1.663 3.309.593 11.035-1.86 14.069-2.454 3.034-6.142-.251-9.213-.377" fill="none" stroke="#666"/><path d="M164.168 18.002c-.42 3.172.675 7.515-1.258 9.517-1.934 2.001-5.74-3.671-7.035-.93-1.294 2.74 1.57 7.224 2.356 10.837M158.238 43.742c2.776.227 6.334-.21 8.33.68 1.997.891 1.953 1.524 2.404 4.108.452 2.584.155 7.318.232 10.977M130.538 36.71c4.075 2.083 8.667 5.063 12.225 6.248 3.559 1.186 6.755-.708 8.745.736 1.99 1.444-.712 3.725.475 5.957 1.187 2.232 5.359 3.148 6.268 6.724.91 3.576-.28 9.722-1.283 12.882s-3.173 2.39-4.49 5.3c-1.317 2.91-2.162 7.854-3.242 11.781M146.834 110.862c.355-3.743.097-8.348 1.064-11.228.968-2.879 3.549-3.157 4.49-5.3.942-2.143-.792-5.068.93-7.034 1.724-1.967 5.792-.445 7.996-3.153 2.205-2.71 3.944-8.417 4.07-11.672.126-3.254-2.248-4.227-3.372-6.34M159.95 72.177l-5.386-7.027" fill="none" stroke="#666"/><path d="M148.532 47.09c.237-1.793.893-3.943.712-5.38-.182-1.436-1.948-1.192-1.74-2.756.206-1.564 1.89-3.68 2.834-5.52M143.2 90.592c.507 1.471 1.776 2.485 1.521 4.412-.255 1.927-.921 4.938-2.944 6.347-2.023 1.41-5.277-.14-7.722 1.084-2.445 1.223-4.17 3.94-6.255 5.91M145.343 109.401c-2.626 2.88-6.153 4.992-7.879 8.642-1.727 3.65-2.144 8.682-2.056 12.359.089 3.676 1.717 6.121 2.575 9.182M131.415 109.664l-.311-7.198M131.945 115.208c-1.156 2.373-1.825 4.976-3.468 7.12-1.643 2.143-5.377 3.033-6.2 5.495-.824 2.462 1.347 4.67 2.02 7.004M121.852 143.766c-1.189-2.683-3.352-5.996-3.567-8.05-.214-2.055 1.635-1.749 2.452-2.623M114.39 130.148c.126-3.07-.554-6.76.377-9.213.93-2.452 2.678-3.514 4.794-4.418 2.117-.903 4.274.54 7.254-.725 2.98-1.264 6.762-4.438 10.143-6.658" fill="none" stroke="#666"/><path d="M131.404 125.662c-3.513-1.026-7.116-2.625-10.54-3.078-3.424-.453-7.593-.501-9.736.396-2.143.898-2.487 2.614-.96 4.083 1.525 1.47 5.37 1.834 8.056 2.75M106.942 129.163c-.422 1.067.385 1.937-1.265 3.201s-6.325 1.352-8.105 3.98c-1.78 2.63.008 6.449-1.314 9.931-1.32 3.483-5.702 7.236-6.443 10.516-.74 3.28 1.587 4.982 2.38 7.472" fill="none" stroke="#666"/><path d="M75.062 185.575c1.975-1.142 4.536-1.554 5.926-3.427 1.39-1.872-.208-4.808 1.758-6.925 1.967-2.116 6.5-1.36 9.042-4.698 2.542-3.339 3.484-9.363 5.226-14.045" fill="none" stroke="#666"/><path d="M88.909 160.46c3.485.18 7.516 2.06 10.454.541 2.939-1.52 3.014-6.827 4.46-8.252 1.445-1.425 1.545 1.047 2.318 1.57M105.027 143.646c-1.931-.256-4.278-1.753-5.793-.766-1.516.987 1.671 4.811-.657 4.965-2.328.154-5.225-2.936-7.838-4.405M86.827 147.554c-1.718 1.317-4.349.197-5.154 3.95-.805 3.753 1.515 12.522.762 16.52-.752 4-2.168 4.912-5.013 6.074-2.846 1.162-7.043.191-10.564.287M77.292 155.977c-1.166 1.39-1.9 2.819-3.498 4.168-1.598 1.35-4.688 2.11-5.982 3.84-1.294 1.731.543 4.68-1.18 5.739-1.723 1.058-4.101-.823-6.152-1.235" fill="none" stroke="#666"/><path d="M64.412 183.324c2.661-5.261 5.557-12.675 7.983-15.785 2.425-3.11 3.238-.319 5.707-1.771 2.47-1.453 5.935-4.549 8.902-6.823" fill="none" stroke="#666"/></g></svg>