<svg xmlns="http://www.w3.org/2000/svg" xmlns:dc="http://dublincore.org/documents/dcmi-terms/" height="2304.63" version="1.2" viewBox="0 0 1724.223 2304.63" width="1724.223" overflow="inherit"><metadata><dc:description>Silhouette of Canis familiaris dingo, processed by PhyloPic Tools (https://github.com/eweitz/phylopic-tools)</dc:description><dc:source>http://phylopic.org/image/3c534a59-fd0c-41bb-80c7-1d18db9bae13</dc:source><dc:creator>Sam Fraser-Smith (vectorized by T. Michael Keesey)</dc:creator><dc:license>http://creativecommons.org/licenses/by/3.0/</dc:license></metadata><path d="M1724.223 1057c-1.987.013-1.271 2.729-4 2 3.01 8.827-.426 17.912 4 25v3c-2.151.816-2.781 2.162-3 4-1.568 13.182.902 28.398 1 45-2.483 1.301-4.15-2.934-5 0-.559 13.134 2.464 26.556-1 36-2.953-.713-.266-7.068-4-7 .928 7.898 1.766 15.367 1 22-.239-1.086-1.646-2.401-2-1 1.417 11.583.553 25.447 3 36-4.17.504-.379-6.955-5-6-.954 6.716 4.393 10.719-1 14-1.28-3.72-.361-9.639-4-11 .391 13.816-.999 23.703 2 34-4.64-.027-2.57-6.763-6-8-3.441 2.889 3.209 7.534 0 10-.096-1.571.134-3.468-2-3-2.811 8.456 5.285 14.693 2 23-.285-2.715-3.66-2.341-4-5-2.271 5.812 1.285 9.433 2 15-1.136.516-3.344.704-4 4 .325 3.675-.854 8.854 1 11-11.221 15.645-1.777 42.318-11 58 .268 6.066 1.596 11.071 3 16-3.729 1.062-1.583-3.75-5-3 3.063 50.791-2.03 104.461-2 156-3.254 10.36-1.264 35.822-2 50-.012-1.009-1.753-1.258-2 0-.501 6.854 5.875 12.1 4 17-.122-2.545-1.455-3.878-4-4-2.19 7.785 7.152 14.598 0 18 .395 3.316 4.225 8.383 2 11 1.555-2.461-3.396-2.94-3-1 7.887 13.479-6.662 19.957-3 34-5.039 2.042-2.752 16.784 0 22-2.359.974-3.82 2.846-6 4-.046 8.713 3.767 13.566 6 20-1.496.171-3.69-.357-4 1 4.65 12.522-2.365 28.853 4 39-.016-1.311-2.773-1.273-3 0 5.297 15.779.039 27.868 6 39-4.941 27.856 16.696 46.463 19 71-4.221 8.687-3.839 24.489 2 31-4.317 3.24-1.828 7.44-2 14-.606 1.727-4.743-.077-5 2 1.076 3.257 3.47 5.197 4 9-1.496 2.774-4.09-1.735-5 1 4.045 3.668 4.354 6.72 0 10-.908 4.909 4.191 3.809 4 8-1.496.17-3.69-.357-4 1-2.344 26.391 1.373 58.56-7 82 2.321 18.61-3.201 43.658 3 61-3.261.739-3.008 4.992-4 8 .576 2.091 2.479 2.854 2 6-.898 1.768-2.414 2.92-3 5 .586 2.08 2.102 3.232 3 5-3.162 9.272.72 17.852 1 28 .385 13.925 6.109 40.883 2 53-7.469 22.023-2.473 46.654-3 65-7.459-.931-7.446 2.596-12 0-1.927.406-.79 3.877-4 3-16.949 1.223-29.165 6.749-44 6-6.037-.305-11.505-2.914-18-3-5.439-.072-10.75 2.286-16 2-5.072-.276-11.89-3.846-19-5-10.223-1.66-24.166-1.215-29-6-1.77-1.752-.354-3.023-2-4-4.949-2.936-11.557-3.386-16-7v-11c.944-3.056 4.866-3.134 5-7v-5c13.547-18.001 18.421-40.756 34-55 7.359-6.729 14.57-7.749 19-17 5.037-10.518 10.314-30.934 13-45 2.124-11.126 1.982-21.594 3-36 1.177-.156 2.838.172 3-1 .463-26.769-2.467-50.439 1-70-3.488-4.938 3.658-19.596 0-28 2.182.182 3.182-.818 3-3 .813-28.146-10.3-44.366-11-71 .761-1.572 3.172-1.494 3-4-1.836-15.183 7.104-25.513 6-43 3.508-.826 4.497-4.17 5-8h-5c2.294-21.629 2.016-42.176 2-63h-3c-11.854-81.221-32.771-158.461-51-230-2.062.271-.238 4.428-3 4-1.096-4.806 3.087-9.521 0-13-1.651.016-.56 2.773-2 3-.605-9.169-.347-24.173-7-24 .041-3.016 2.689-8.566 0-11-6.068-3.084-9.156 4.611-14 6-1.078-2.555 4.305-3.5 1-5-7.045-1.046-7.077 4.923-11 7-2.588-4.634-9.973 7.808-13 6 1.96.483 3.221-4.584 1-5-6.894 2.773-12.358 6.975-20 9 12.913-7.754 22.947-18.386 26-36-1.891.225-2.206-1.127-4-1-1.628 5.388-3.346 15.966-8 15 2.031.307-.205-2.889-1-3-1.193 4.038-3.424 1.246-6 3-1.436 8.23-6.641 12.693-10 19-1.373-2.279 2.578-3.759 0-4-4.969 2.697-8.918 6.415-13 10 3.502-8.213 9.332-9.893 9-20-4.281 2.052-7.896 4.771-11 8-1.209-6.763-3.92.895-8 0 2.411-7.93 7.666-18.323 8-25-8.904 6.763-11.938 19.396-20 27-.744-3.801 4.093-7.164 1-10-8.891 5.463-12.396 14.016-22 16 3.071-6.264 3.197-9.508 4-17-4.274 4.393-9.363 7.97-14 12 .83-4.837 4.43-6.904 6-11-7.23-1.473-17.614 5.464-16 15-1.184 2.462-3.777-2.048-5 1-3.935 14.301 3.243 21.353-4 34 2.458 10.83-3.12 12.439-1 22-.097 1.933-3.903-1.729-4 2-.655 6.345 1.318 15.318-1 20-.096-1.571.134-3.468-2-3-.647 4.686 1.308 11.975-1 15 .054-1.721-.77-2.563-2-3-3.176 12.992-2.867 25.829-3 39-.693 1.973-5.58-.246-6 2 1.127 4.994-1.393 10.744 3 14-2.84 39.475-2.131 75.978 8 111-4.319 11.767 1.779 28.322 5 39 .745 3.078-2.745 1.922-2 5 1.958 3.709 3.545 7.788 6 11-1.221.113-2.367.299-2 2 6.447 19.553 17.107 34.893 19 59 7.594 1.072 6.13 11.203 10 16-7.355 8.2 1.164 24.062-2 37h4c-.439 19.455.043 47.047-2 63 1.07 3.596 3.131 6.202 5 9-4.959 10.432 6.768 24.002-3 36 1.688 9.291 1.649 18.145 0 32-1.586 13.324 5.616 29.299 5 42-.104 2.134-2.086 2.148-2 4 .516 11.067 4.725 19.875 5 27 .396 2.396-4.555-.555-3 3 9.261 18.234 6.162 36.942 11 60 .225-.775.027-1.973 1-2-2.945 10.675 5.799 27.188 1 39 3.768 15.787-3.496 36.361 2 51-3.965 2.369-5.939 6.728-9 10-16.34 4.808-34.013-.081-48 4-10.156-7.676-22.406.713-34 2-32.4 3.598-61.969-8.023-57-40 5.044-32.461 40.775-57.724 37-90 8.619-1.714 3.066-17.601 9-22 2.823-19.925 2.723-39.62 7-61-4.027-7.243 2.256-23.221-4-28 2.635.301 3.281-1.385 3-4-3.049-17.827-2.743-30.619-9-47 7.299-24.713-.967-62.376-5-90-1.377.043-2.195-.471-3-1-3.737-34.858 5.973-63.39-1-99-4.111-4.223-4.455-12.212-5-20-5.627-5.706-7.427-15.24-9-25-7.078-2.36-2.837-10.59-3-15-.539-14.554-8.305-25.377-13-38h-3c1.843-4.331-4.686-10.201-5-11-6.132-15.554-13.526-39.306-15-54-.751-7.485-6.38-15.439-8-23-3.737-17.441-3.604-31.234-10-44-2.541-34.145-.625-70.61-6-103-.914 4.752-7.759 3.575-10 7-1.463-3.558 3.213-5.992 1-7-1.428.239-1.687 1.646-3 2 .787-3.433-.935-5.154-3-3 2.898-5.598 4.501-6.702 7-9-9.43-.53-10.551 6.453-18 4 3.025-2.642 6.897-4.436 7-10-5.764 1.253-10.549 8.763-16 7 1.009-.012 1.258-1.753 0-2-4.137 4.393-7.111-4.693-12 1-3.645-7.142-15.912 2.521-21-2 2.922-1.117-1.272-3.251-3-3-6.402 2.931-9.865 8.801-17 11 1.094-4.428-1.693-4.973-2-8 4.234-2.643 10.857-6.382 9-12 7.49-2.177 8.522-10.811 11-18-3.779.918-8.132 6.494-11 5 6.752-9.016 7.812-13.763 14-27-.012-1.321-1.753-.914-2-2 4.77-1.583 10.294-7.682 10-11-1.377-.043-2.195.471-3 1 1.093-4.24 5.958-4.709 5-11-3.1-1.317-5.547 2.964-7 0 2.76-5.35 15.119-10.273 11-16 6.463-3.204 13.749-5.584 16-13-5.814-.126-12.042 4.595-16 3 8.07-3.263 15.932-6.735 22-12-2.391-.609-7.256 1.255-8-1 4.582-1.752 7.713-4.954 15-4 2.115-8.247 12.203-3.872 16-9-.325-2.342-4.362-.971-5-3 2.391-.609 7.256 1.255 8-1-4.676-1.328 5.754-12.445-3-9 4.18-2.82 5.815-8.185 6-15-1.891-.224-2.206 1.127-4 1 7.28-20.319 1.9-40.377 3-62-1.377-.043-2.195.471-3 1 .752-27.134-10.005-43.476-10-73-3.406.74-1.648-3.686-4-4 .662-4.671 1.572-9.095 2-14-1.44-2.213-2.439 1.259-3-1 2.811-22.098-4.594-38.628-1-63-1.721-.395-2.563 1.484-3 0 3.221-13.754 1.842-34.361 2-46-9.263-2.106-9.543 2.457-19 4 3.109 4.087-1.437 7.433-5 8 0-3.336 3.253-3.414 3-7-5.189 2.084-2.765-1.387-6-3-1.171 1.496-1.243 4.09-3 5-1.301-2.483 2.934-4.15 0-5-5.162-.829-4.405 4.262-7 6-.547-1.453 1.168-5.168-1-5-2.658 4.514-11.14 6.822-9 13-3.759.092-2.323-5.01-5-6-1.184 1.483-3.777 1.556-5 3-1.633 1.617.893 4.183 0 8-3.969-.698-2.206-7.127-6-8-4.476 5.483-6.813 9.991-14 9 .176 4.176-3.1 4.9-4 8-1.506-1.494-.299-5.701-4-5-.553 1.78-.514 4.153-2 5-.744-2.255-5.609-.391-8-1-1.344 1.99-1.906 4.76-3 7-2.503-.125-3.131-1.909-4 1-4.118.473.962-2.691-3-3-2.777 1.262-2.713 10.569-4 10 .049-3.049-.908-5.092-3-6-1.112 2.555-3.055 4.279-6 5-4.08-7.51-14.772 1.969-13 7-1.465-2.201-2.649-4.684-7-4-5.404 1.753-.429 8.57-3 12-4.711-5.395-18.612-5.408-20 4-1.178-5.211-5.848-.764-10-3-.65 2.526.654 6.066 1 8-1.127-3.207-5.834-2.833-9-4 .969 4.844-2.896 2.314-5 2v5c-3.541-1.751-2.459.666-6 1-1.712-.955-2.015-3.319-4-4-1.974 4.082-8.209 4.414-12 4v4c-12.689-3.265-25.336 2.091-37 3 .075 1.742-.223 3.11-1 4-6.264-.43-6.622-.813-10 2-13.087 3.034-27.818 2.981-43 1-1.927.407-.79 3.877-4 3-16.808-4.233-27.77-2.113-46-4-.395 1.721 1.484 2.563 0 3-4.688-1.664-16.312-1.664-21 0 .737 12.812-.454 26.879 12 30-.16 5.694-2.355 8.25 3 11-.33 5.253-10.479 14.718-5 16-7.234 13.433-13.484 27.85-20 42 1.479-.521 2.521-1.479 4-2-1.758 7.909-5.477 13.856-7 22 3.19.857 3.093-1.574 5-2-2.444 7.223-7.992 11.342-10 19 .719 2.614 3.602 3.065 4 6-3.12 6.213-13.715 4.952-13 15 .826 2.507 3.504 3.163 5 5-1.805 2.196-7.222.778-7 5 1.707.96 2.191 3.142 3 5-6.73 2.23 3.914 6.268 1 8-2.051 1.615-5.82 1.513-7 4 .922 7.411 3.959 12.707 9 16-5.98 2.829-4.305 7.112-7 13-.589 3.589 5.973.027 5 4-1.295 5.271-8.614-1.517-11 2 3.122 3.903 4.215 11.644 9 11-.912 7.421-2.965 13.702-4 21h5c-2.961 6.373-9.542 9.125-9 19 2.488-.109 3.096-1.874 5 0-.773 6.736-2.882 8.244 1 13-3.204 3.129-8.172 4.494-8 11 1.496.17 3.69-.357 4 1-2.049 6.463-4.496 13.64-8 21 2.826.826 2.591-1.409 5-1-2.099 4.234-4.587 8.08-7 12 1.494 3.044 5.701-2.141 5 2-1.574 5.086-3.716 5.138-8 6 2.453 11.604 2.928 24.902 2 33-.241-1.759-1.721-2.279-4-2 1.236 3.235-3.236.764-2 4 .404 3.596 4.229 3.771 6 6-6.163-1.11-3.724 6.063-2 8-8.551 3.641-9.469 10.81-7 21-3.592 4.945-4.132 14.271-4 21-2.555.772-4.598-3.913-6-1 6.477 5.323 3.008 14.543 0 21 4.909 16.309-1.782 26.574 1 43-.613 1.386-3.85.15-4 2 1.942 13.374 12.711 21.744 7 35 .375 2.292 4 1.334 5 3 1.691 12.895.424 21.25 3 33-4.346 5.14-2.436 15.51-2 21-3.453-.787-4.398.935-5 3 2.059 14.909-7.569 22.847-8 32-1.496.17-3.69-.357-4 1 3.864 12.636-2.283 18.211 0 30-.016 1.65-2.773.56-3 2 1.397 9.215 1.13 14.08 6 20 .409 2.409-1.826 2.174-1 5 2.638 15.108 6.887 39.52 4 56-1.684 9.609-6.4 18.485-6 28 .349 8.28 4.2 14.982-3 19-2.483 1.301-4.15-2.934-5 0-1.005 15.703-24.289 17.681-41 21-.096-1.571.134-3.468-2-3-5.919 7.255-6.06 16.494-5 29-3.428 1.572-3.973 6.027-9 6-3.466 9.568-18.884 20.275-33 23-12.815 2.473-31.434.8-48 2-17.356 1.257-36.144-2.144-43-5h-9c-7.232-4.102-9.792-12.875-23-11-1.761-10.142-14.755-11.831-25-8-1.15-7.387-3.228-14.433 0-21-2.395.604-4.562 1.438-8 1-.453-12.85 9.355-23.931 13-36 10.714-4.619 21.976-8.691 27-19 13.672-6.69 34.016-10.816 52-10 .318-2.348 1.58-3.754 1-7 12.796-13.871 14.391-38.942 37-43 11.827-44.31 11.584-92.339 9-140-2.066-38.12-8.813-72.955-12-111h-3c.45-27.796-9.538-41.373-7-63-1.427.239-1.687 1.646-3 2-3.031-43.471-14.611-81.038-20-123h-3c-3.096-30.127-17.421-58.941-16-87-2.503.125-3.131 1.908-4-1 1.895-12.269-4.986-26.221-4-44-.279-2.055-2.671-1.996-4-3 3.978-12.624-7.36-24.478-2-38-1.377-.043-2.195.471-3 1 1.672-12.822-4.767-18.686-2-31-4.771-2.729-6.642-12.635-3-18-8.089-1.686-.479-24.041-9-22 2.092-7.287-4.492-14.1-6-17-3.332-6.411-2.916-15.226-6-22-5.691-12.502-14.175-24.316-15-39-3.213.88-1.37-3.296-4-3-.815-7.852-2.918-14.415-6-20 1.67-4.401-.553-10.695-1-16-8.725-2.609-4.359-18.308-13-21 .989-7.222-1.358-15.657-5-15 2.793-5.038-2.124-8.414-4-14-2.515-7.489-1.863-18.041-5-27-.1-.283-2.922.282-3 0-.929-3.341.671-8.958-1-12-1.158-2.109-3.349-1.236-4-3-.595-1.61.443-3.9 0-6-1.083-5.125-8.205-13.286-9-15-3.19-6.88-1.203-16.375-6-9-.797-5.203 1.416-13.416-4-14 2.917-10.874-3.654-19.675-4-29-.177-4.78 3.553-11.779 0-16 .054 1.72-.77 2.564-2 3 .664-6.417-.424-8.312-3-7 1.538-3.129 1.592-7.741 2-12-1.278.055-1.385 1.282-3 1-.738-4.738 1.125-6.875 1-11-1.377-.043-2.195.471-3 1-.461-8.47-4.519-15.093-8-23-1.278.055-1.385 1.282-3 1 2.364-5.592-6.004-6.693-5-14-1.987.013-1.271 2.729-4 2-2.237-5.43-4.825-10.508-7-16-2.062.272-.238 4.428-3 4 .41-5.744-6.192-4.474-4-12-2.678-1.726-3.802.706-6-2 .098-8.765-6.678-10.655-9-17-3.239 4.192-4.485-1.045-4-6-1.778-.888-2.542-2.792-6-2-2.096-16.571-15.323-22.01-19-37-1.987 1.666-1.271-.09-4 0 1.422-14.755-12.242-14.424-11-29-9.494-4.646-11.027-15.938-17-26-2.831-.164.831 6.164-2 6-1.566-4.434-2.19-9.81-5-13-1.278.055-1.385 1.282-3 1-3.789-3.983-2.519-16.872-11-13-2.144-12.19-16.947-11.72-20-23-8.395-1.512-18.512-9.313-24-17-2.409-.41-2.174 1.827-5 1-.75-3.807-1.7-8.52-6-6-1.343-11.706-13.639-18.288-24-24-2.209.125-.425 4.242-1 6-3.736-.09-2.851-1.121-6 0-1.627-2.707-1.881-6.786-5-8 1.503 5.929-6.469 3.715-5 12-29.279 16.387-61.524 29.809-90 47-.043 1.376.471 2.196 1 3-3.078.745-1.922-2.745-5-2-.56 2.88-.727 1.735-2 5-3.969-1.359-9.79-2.926-11 3-9.908-1.535-17.543.874-25 6-12.531.213-24.168 1.607-36-2-13.625-4.154-40.812-20.057-49-29-2.857-3.121-4.525-9.338-8-13-5.719-6.026-13.554-12.674-13-23h-5c-3.801-4.866-7.128-10.206-6-20 8.089-11.266 13.948-22.363 21-34 .072-.119.773-1.735 1-2 16.137-18.857 32.701-45.146 48-67 5.851-8.357 13.824-16.316 16-23 7.213-22.155-12.996-45.983-5-69-3.929-5.448 2.369-13.91 3-21-.613-1.386-3.85-.15-4-2 .293-1.498 1.336-1.789 3-4-1.825-8.864 4.811-16.919 11-21 5.192-11.816 17.36-20.833 17-35 3.904-5.096 2.896-15.104 5-22-9.258-23.499-17.965-49.127-18-78 4.35-10.95 3.612-31.433-3-43-1.389-25.312-13.683-45.396-19-64-3.034-10.616-3.614-20.42-6-29-4.842-17.412-14.418-32.085-13-50 1.177-.157 2.839.172 3-1h3c20.111 14.555 28.866 40.467 55 49 6.303 9.031 15.941 14.726 26 20 1.171 1.496 1.243 4.09 3 5 25.314 19.288 47.294 43.688 68 66 9.18 9.891 11.312 27.101 27 27 .797 3.204 5.74 2.259 7 5 9.081-3.996 26.963-1.104 39-5 5.979 4.26 16.065-3.371 20 2 3.076-1.924 4.479-5.522 9-6 .595 2.072-1.236 6.569 1 7 4.641-.36 10.117-4.088 14-2 3.46-9.024 12.218-14.849 17-24 2.841-5.436 2.708-13.225 5-19 2.939-7.408 8.277-14.888 12-22 3.896-7.444 9.126-14.012 14-20 11.941-28.035 30.508-27.169 52-12 8.375 5.911 18.277 18.309 23 25 7.215 10.222 12.522 26.811 18 42 6.44 17.86 12.543 36.204 17 57 2.575 12.016 7.584 32.246 7 46-.491 11.571-5.84 24.017-5 33-.43 1.57-3.146.854-2 4 21.607 17.392 51.125 26.875 71 46 45.239 20.76 81.49 50.511 131 67 12.135 22.866 49.893 20.107 65 40 2.833.167 4.167 1.833 7 2 3.565 9.101 16.208 9.125 23 15-.856 4.523 1.753 5.581 3 8 4.5 2.558 19.771 2.145 13 7 7.21-.543 12.875.458 17 3-1.182.485-2.267 1.066-3 2 3.651 7.682 20.146 2.521 25 9 31.239.61 56.8 1.449 86 4 1.168 2.271-.528 2.991 3 4 31.7.966 50.946 14.387 80 18 2.126 1.541 3.724 3.609 6 5h5c11.039 11.583 27.486 14.425 44 21 5.385 2.144 9.654 6.275 15 8 17.055 5.504 37.013 8.892 56 11 30.73 3.412 62.578 5.26 93 10-1.41 2.923-10.247-1.58-10 3 15.75 2.768 30.158.716 43 6-1.796-.129-2.34.993-2 3 13.541 10.792 39.833 8.833 56 17-.933 1.067-3.689.311-3 3 10.813 1.936 20.886 4.635 31 7 9.514 2.225 16.445 6.194 25 9 12.055 3.954 25.671 1.991 35 11 15.136 4.198 27.312 11.355 43 15 17.312 14.653 45.018 12.255 72 13 2.213 1.44-1.259 2.44 1 3 16.693-1.183 16.406 8.439 28 12-3.986 3.729 4.255 3.688 3 8-.275 3.509-3.725-2.509-4 1 4.432 5.583 11.592 15.617 15 16-2.094-2.349-.783 5.914 1 6-2.494-.705-4.109-.985-6 1 6 9 14.854 15.146 19 26 18.132 16.535 28.361 40.972 46 58 6.836 27.165 22.094 45.907 33 69 2.034 21.128 12.154 30.408 16 51 3.354 2.98 5.685 6.982 8 11 1.574 10.933 14.627 18.579 19 30 .299 1.966-1.35 1.983-2 3 8.238 14.095 15.7 28.966 19 48-3.677.62-4.98-6.276-7-4 8.687 21.011 7.396 48.763 15 70v3zm-237 169c-4.285.048-2.666 6.001-3 10-1.357-.31-.83-2.504-1-4-5.688 1.312-6.352 7.649-6 15-4.31-2.996-7.188 11.01-9 17-1.018-.65-1.034-2.299-3-2-1.465 6.917-2.813 7.805-3 16-4.477 1.478-3.072-2.929-7-2-1.54 3.528.54 4.472-1 8 8.729 1.983 13.872-2.719 15-11 5.498-1.318 11.307 2.162 14-3-1.242-3.162-2.908-.188-5-3 .396-2.655 4.314-5.689-1-6 3.255-11.127 13.035-23.967 10-35zm-1 34c-3.807-.14-4.439 2.895-5 6 3.043-.623 5.112-2.221 5-6z" fill-rule="evenodd"/></svg>