<svg xmlns="http://www.w3.org/2000/svg" xmlns:dc="http://dublincore.org/documents/dcmi-terms/" height="378.264" viewBox="0 0 611.9148 354.62215" width="652.709"><metadata><dc:description>Silhouette of Canis (Aenocyon) dirus, processed by PhyloPic Tools (https://github.com/eweitz/phylopic-tools)</dc:description><dc:source>http://phylopic.org/image/fa7c7d51-7f4b-46e2-8e44-1e6d9992a45c</dc:source><dc:creator>Zimices</dc:creator><dc:license>http://creativecommons.org/licenses/by-nc/3.0/</dc:license></metadata><path d="M480.432 352.587c-.354-1.354-2.002-3.082-3.663-3.838-3.65-1.663-4.2-7.328-.832-8.554 1.204-.439 4.036-2.39 6.294-4.336 2.834-2.443 5.545-3.569 8.75-3.634 2.554-.053 6.568-.791 8.92-1.641 6.286-2.272 7.724-6.937 11.222-36.39.999-8.41.919-8.842-2.054-11.14-1.701-1.316-5.88-4.771-9.286-7.679-3.406-2.907-10.825-8.432-16.488-12.278-5.662-3.846-11.919-8.688-13.904-10.76-1.985-2.072-4.066-3.767-4.625-3.767-1.5 0-1.234 17.249.393 25.348 1.342 6.683 1.242 7.299-2.106 13.02-1.934 3.304-6.144 9.694-9.357 14.2-3.212 4.506-6.524 10.264-7.36 12.795-.835 2.531-2.04 4.924-2.677 5.318-.638.394-1.159 1.697-1.159 2.895 0 1.2-3.245 5.244-7.21 8.99-3.967 3.744-7.767 8.466-8.445 10.493-2.143 6.4-7.506 8.375-26.41 9.722-16.717 1.191-16.931 1.173-19.969-1.68-4.58-4.302-3.433-7.447 3.596-9.87 3.265-1.124 7.203-3.217 8.75-4.649 1.547-1.432 6.315-4.372 10.595-6.533 10.778-5.441 18.45-15.237 24.596-31.404l2.178-5.73-5.193-19.27c-2.857-10.599-6.62-22.855-8.363-27.237-1.744-4.382-4.483-14.433-6.087-22.336-1.605-7.903-3.242-14.693-3.639-15.09-1.514-1.514-4.399-1.184-4.399.503 0 .97-.58 1.765-1.29 1.765-.71 0-1.806 1.265-2.436 2.812l-1.146 2.813-.831-2.799c-.457-1.539-1.29-2.514-1.853-2.167-.562.347-1.397.023-1.857-.72-.557-.902-1.619-.643-3.188.777-1.797 1.627-2.756 1.794-4.064.708-.942-.782-4.066-1.329-6.942-1.216-2.876.113-5.885-.45-6.686-1.252-2.45-2.449-9.353-1.76-11.38 1.136-1.074 1.533-2.14 2.066-2.612 1.304-.437-.708-1.57-.99-2.517-.626-1.035.397-2.13-.498-2.745-2.242-.877-2.491-1.122-2.104-1.73 2.722-.674 5.363-.772 5.48-2.113 2.5-.774-1.719-1.811-4.25-2.305-5.625-.837-2.329-.955-2.286-1.72.625-1.16 4.407-8.437 4.742-10.38.476-1.565-3.435-3.455-2.744-3.455 1.264 0 4.073-1.377 4.885-3.396 2.002-1.73-2.47-4.956-3.632-3.488-1.257.902 1.46-2.921.265-5.448-1.702-1.334-1.039-1.599-.792-1.214 1.131.855 4.27-1.704 5.713-4.892 2.758-1.796-1.666-2.812-2.023-2.812-.987 0 1.299-.372 1.312-1.875.065-1.525-1.266-1.875-1.206-1.875.319 0 1.03-.844 2.575-1.875 3.43-2.654 2.204-2.629 34.095.036 45.588 3.598 15.51 2.977 25.237-2.3 36.059-6.174 12.661-8.82 22.526-8.91 33.203-.07 8.414-.36 9.437-3.305 11.65-3.061 2.302-4.287 2.361-23.75 1.152-24.453-1.519-29.86-2.354-30.781-4.754-1.585-4.13 1.866-7.473 11.808-11.44 5.453-2.177 10.753-3.957 11.778-3.957 4.4 0 16.536-18.042 19.338-28.75 2.12-8.095 2.115-8.169-1.206-19.744-1.833-6.39-3.333-12.326-3.333-13.192 0-4.448-14.374-44.357-15.552-43.179-.269.27-1.688 3.533-3.154 7.253s-4.814 9.907-7.44 13.75c-8.416 12.312-18.428 28.088-21.095 33.237-1.424 2.75-4.794 7.632-7.489 10.849-2.694 3.217-6.18 9.275-7.746 13.462-1.595 4.263-4.382 8.904-6.333 10.547-1.918 1.613-5.274 6.805-7.459 11.537-4.255 9.215-7.706 12.907-12.107 12.952-1.513.015-3.273.962-3.912 2.103-2.518 4.5-51.886 5.286-53.586.853-.419-1.09-2.03-1.71-3.978-1.529-3.713.345-8.899-1.106-8.899-2.488 0-.507 1.895-2.757 4.21-5.002 4.69-4.545 13.481-6.504 24.454-5.45 4.899.47 6.8 0 10.826-2.683 18.818-12.535 29.139-24.773 38.604-45.776 1.395-3.094 3.527-7.086 4.739-8.871 1.212-1.785 4.164-9.068 6.56-16.183 4.02-11.937 4.357-14.104 4.357-28.013 0-8.291-.572-17.04-1.27-19.442-.699-2.401-1.875-8.304-2.614-13.116-.89-5.8-2.576-10.695-5-14.518-4.6-7.251-12.171-15.125-13.66-14.205-.622.384-2.017-1.424-3.101-4.019-1.595-3.816-2.217-4.363-3.258-2.863-.977 1.407-1.441 1.476-1.924.284-.35-.863-1.076-1.298-1.614-.966-1.135.702-10.501-9.261-11.902-12.66-.575-1.398-1.166-1.724-1.502-.83-.572 1.521-8.756-3.254-10.69-6.236-.72-1.11-1.26-1.027-2.13.323-.935 1.454-1.465 1.147-2.7-1.563-.845-1.855-2.049-3.372-2.675-3.372-.626 0-1.982-.844-3.014-1.875-1.03-1.032-2.977-1.875-4.325-1.875-1.347 0-2.779-.858-3.181-1.907-.575-1.5-1.113-1.59-2.514-.428-1.35 1.12-2.133 1.128-3.229.032-.796-.796-2.758-1.447-4.361-1.447-1.603 0-3.238-.844-3.634-1.875-.831-2.167-5.452-2.567-5.452-.472 0 .95-.504 1.003-1.563.163-.859-.682-3.663-1.619-6.232-2.082-2.639-.475-4.541-1.497-4.375-2.35.162-.83-1.252-1.687-3.143-1.905-2.524-.29-3.437.154-3.437 1.674 0 1.672-.737 1.449-3.846-1.167-4.893-4.117-9.69-4.146-20.38-.122-13.196 4.967-26.262 7.204-38.68 6.623-6.066-.284-11.41-1.051-11.875-1.705-.464-.655-2.531-1.755-4.594-2.447-2.644-.885-3.859-2.18-4.118-4.388-.203-1.723-3.156-6.398-6.563-10.39C2.591 93.902 0 89.64 0 87.933c0-3.043 5.21-8.114 8.335-8.114 6.112 0 25.756-14.26 30.334-22.019 1.292-2.19 5.354-6.284 9.028-9.099 3.673-2.814 8.084-6.248 9.803-7.63 1.719-1.382 8.685-4.498 15.481-6.924 6.796-2.427 13.682-5.455 15.302-6.73 1.62-1.273 4.919-2.686 7.331-3.139l4.386-.823v-9.854c0-7.291.51-10.364 1.964-11.818 2.762-2.762 4.108-2.508 11.175 2.111 4.715 3.082 6.673 5.337 8.028 9.247 1.685 4.86 2.247 5.3 9.375 7.317 9.477 2.682 14.38 4.318 30.083 10.04 6.875 2.506 15.057 5.266 18.183 6.133 3.125.867 6.781 2.152 8.125 2.854 1.343.703 9.69 2.786 18.548 4.63 15.578 3.242 27.561 3.88 56.394 3.003 7.804-.237 23.126 1.532 29.914 3.455 8.928 2.528 37.227 2.352 45.2-.281 4.91-1.622 13.504-2.14 43.011-2.592 35.105-.538 37.265-.437 45 2.102 4.469 1.467 16 3.766 25.625 5.108 19.867 2.77 28.03 4.867 38.75 9.95 4.125 1.956 10.722 4.669 14.66 6.029 9.179 3.168 20.999 12.464 26.622 20.935 2.422 3.65 4.993 7 5.714 7.445.72.445 3.148 4.83 5.394 9.742 2.246 4.913 5.506 10.62 7.244 12.683 3.45 4.094 10.967 18.34 11.03 20.902.022.879 1.436 4.41 3.143 7.848 2.48 4.995 3.347 9.386 4.321 21.875 2.526 32.39 2.803 34.342 5.782 40.745 1.63 3.504 2.965 7.017 2.965 7.808 0 2.33 8.405 19.836 9.997 20.82 1.623 1.003 5.37 9.265 6.76 14.908.793 3.218.667 3.462-1.053 2.034-1.075-.892-1.954-1.06-1.954-.375 0 2.61 3.904 12.158 5.852 14.31 1.23 1.36 1.464 2.25.592 2.25-2.237 0-1.721 1.836 1.487 5.297 1.71 1.846 2.978 4.823 3.044 7.153.062 2.196.993 5.335 2.07 6.977 1.075 1.642 1.955 4.324 1.955 5.96 0 1.636 1.089 3.96 2.42 5.165s3.011 3.887 3.734 5.96c1.2 3.444 1.1 3.715-1.17 3.121-1.366-.357-2.484-.12-2.484.528 0 .695-.989.647-2.418-.117-3.426-1.834-5.122-1.604-4.284.58.977 2.546-.69 2.344-5.173-.624-4.522-2.995-6.875-3.18-6.875-.541 0 1.452-.729 1.738-2.813 1.105-4.35-1.321-9.042-5.291-25.996-21.99-15.907-15.669-19.256-20.704-21.916-32.95-.448-2.062-1.874-7.077-3.17-11.143-1.295-4.067-2.355-10.258-2.355-13.758s-.534-8.228-1.188-10.506c-.653-2.277-1.293-7.617-1.423-11.866-.13-4.25-1.247-10.446-2.482-13.77-1.236-3.323-1.99-6.715-1.675-7.535.315-.821-.232-2.594-1.217-3.94-1.736-2.375-1.865-2.38-4.315-.162-1.39 1.257-3.972 5.896-5.738 10.31-2.684 6.702-3.212 10.034-3.212 20.25 0 14.433 1.619 18.258 15.141 35.775l8.267 10.708.861 12.859c.474 7.072.567 13.684.206 14.694-1.742 4.873-4.258 33.319-3.62 40.929.699 8.327.603 8.707-3.322 13.178-3.897 4.438-4.34 4.603-12.358 4.603-4.574 0-10.002.483-12.062 1.074-2.06.59-8.142 1.486-13.516 1.99-9.077.85-9.817.74-10.415-1.547z"/></svg>