<svg xmlns="http://www.w3.org/2000/svg" xmlns:dc="http://dublincore.org/documents/dcmi-terms/" height="436.859" width="483.313"><metadata><dc:description>Silhouette of Capitella capitata, processed by PhyloPic Tools (https://github.com/eweitz/phylopic-tools)</dc:description><dc:source>http://phylopic.org/image/b897644f-3992-462f-83d2-aa7b0541307b</dc:source><dc:creator>Frank Förster (based on a picture by Hans Hillewaert)</dc:creator><dc:license>http://creativecommons.org/licenses/by-sa/3.0/</dc:license></metadata><path d="M201.876 436.413c-1.698-.394-3.723-1.11-4.5-1.59-.777-.48-6.176-.744-11.998-.585-10.411.284-10.614.246-12.273-2.286-1.246-1.901-2.547-2.575-4.97-2.575-1.806 0-6.069-.94-9.473-2.09-5.18-1.75-6.458-2.655-7.83-5.544-.9-1.9-3.014-4.165-4.695-5.035-4.522-2.338-13.605-11.277-15.768-15.517-1.038-2.035-3.94-5.413-6.449-7.507-6.241-5.21-10.738-12.337-9.897-15.686.507-2.022 0-3.216-2.38-5.596-1.788-1.787-4.07-3.025-5.58-3.025-3.803 0-6.203-4.413-8.296-15.257-.293-1.517-1.774-3.803-3.291-5.08-3.431-2.886-4.667-5.16-5.973-10.988-.685-3.056-.696-5.449-.033-7.192 1.285-3.38-.077-5.963-3.836-7.274-3.1-1.08-8.265-9.956-11.55-19.847-1.222-3.678-3.22-6.55-7.194-10.343-8.68-8.284-10.187-10.736-10.992-17.88-.55-4.87-1.328-7.004-3.326-9.113-2.462-2.6-4.312-5.368-8.334-12.476-1.19-2.102-1.55-4.226-1.157-6.835.622-4.128-.755-6.715-3.573-6.715-3.452 0-14.388-12.795-18.376-21.5-1.008-2.2-2.057-6.475-2.332-9.5-.275-3.025-1.363-7.75-2.416-10.5-1.054-2.75-2.329-7.025-2.832-9.5-.503-2.475-1.644-7.875-2.536-12-.892-4.125-2.067-11.1-2.612-15.5-.545-4.4-1.612-10.25-2.372-13-1.599-5.787-4.484-25.43-4.458-30.353.01-1.844-.195-3.565-.455-3.825-.26-.26-.08-1.843.401-3.519 1.303-4.545 4.733-26.236 5.503-34.803.37-4.125 1.515-10.2 2.544-13.5 1.029-3.3 1.877-6.98 1.884-8.176.021-3.589 20.749-27.091 26.513-30.062 1.65-.85 5.558-3.907 8.686-6.792 4.29-3.959 7.481-5.869 13-7.784a2822.38 2822.38 0 0 0 15.814-5.555C85.419.618 102.323-1.264 106.57.932c1.537.795 4.561 1.445 6.721 1.445 2.271 0 4.453.633 5.173 1.5 1.571 1.894 7.648 1.932 11.217.07 3.034-1.583 11.935-1.828 18.783-.518 15.874 3.037 18.755 3.234 28.239 1.932 11.16-1.532 18.35-.186 19.834 3.712 1.199 3.149 6.36 4.235 32.927 6.934 3.025.307 6.175 1.128 7 1.823 2.136 1.8 7.763 3.547 11.427 3.547 4.123 0 16.53 4.1 25.684 8.486 6.507 3.119 8.236 3.514 15.367 3.514 10.944 0 13.603.974 19.738 7.228 5.403 5.509 15.79 10.772 21.257 10.772 1.349 0 4.832.939 7.74 2.086 2.907 1.147 9.112 3.361 13.787 4.92 4.675 1.558 13.277 5.007 19.115 7.663 9.763 4.443 11.122 5.415 16.916 12.104 3.866 4.462 7.298 7.477 8.884 7.802 6.555 1.344 12.425 3.583 15.46 5.898 1.823 1.39 3.843 2.527 4.491 2.527 2.163 0 10.283 8.362 12.643 13.02 1.282 2.529 4.16 6.912 6.394 9.74 2.235 2.827 4.472 6.957 4.971 9.178.95 4.23 4.084 8.736 10.376 14.92 2.062 2.027 3.762 4.126 3.778 4.664.015.538 1.815 3.668 4 6.957 3.202 4.82 3.972 6.879 3.972 10.627 0 4.536 2.088 11.213 3.847 12.3.483.298 1.44 2.692 2.129 5.318.687 2.627 2.17 7.618 3.294 11.09 1.793 5.543 1.898 6.945.855 11.463-1.064 4.61-.99 5.416.712 7.718 1.046 1.413 2.703 6.28 3.682 10.816 1.517 7.02 1.592 8.822.502 12.123-.859 2.603-1 5.142-.431 7.722.467 2.114.877 4.556.913 5.425.036.87.58 3.345 1.208 5.5 2.049 7.022 3.113 15.823 2.138 17.674-.509.965-.682 4.79-.385 8.5.298 3.71.556 7.42.574 8.245.018.825.535 4.786 1.148 8.801 1.028 6.738.959 7.512-.9 10.026-1.109 1.5-2.316 4.514-2.684 6.7-.368 2.185-1.08 6.448-1.584 9.473-1.763 10.591-2.28 12.125-4.591 13.64-1.677 1.099-2.502 2.833-2.945 6.193-2.064 15.64-4.478 21.765-9.9 25.116-3.934 2.431-3.717 1.902-6.576 16.017-2.198 10.854-2.957 12.566-5.99 13.529-.991.315-3.313 3.043-5.16 6.063-6.197 10.138-9.005 12.654-14.737 13.205-6.618.636-9.795-1.309-10.628-6.505-.332-2.067-2.01-7.358-3.732-11.758-2.871-7.343-3.158-9.15-3.491-22-.2-7.7-.366-14.9-.37-16-.013-3.565 1.903-16.866 3.168-22 .678-2.75 1.188-6.125 1.133-7.5-.824-20.691-.845-28.803-.08-30.816.508-1.335 1.166-9.909 1.463-19.055.692-21.307.825-22.867 2.345-27.438.993-2.987 1.008-4.432.07-6.698-1.34-3.236-.98-8.514 1.421-20.862 1.304-6.702 1.381-8.667.386-9.866-2.407-2.901-3.794-8.867-4.278-18.4-.579-11.422-1.5-14.278-5.234-16.228-4.49-2.345-7.804-6.553-12.475-15.838-3.048-6.059-5.417-9.402-7.799-11.007-1.93-1.301-4.668-4.7-6.28-7.799-4.415-8.482-5.575-9.947-9.267-11.708-2.652-1.265-4.355-3.41-7.496-9.45-4.96-9.532-6.476-10.534-12.72-8.406-8.243 2.808-12.41 1.878-26.255-5.864-1.375-.77-4.525-2.191-7-3.16-2.475-.969-6.3-3.46-8.5-5.536-4.883-4.607-10.044-6.866-15.718-6.879-3.378-.008-5.21-.746-8.673-3.5-2.415-1.92-4.993-3.49-5.73-3.49-3.38 0-9.558-3.445-10.928-6.094-2.442-4.721-4.642-5.27-22.249-5.549-11.955-.189-17.087-.652-19.262-1.737-1.631-.813-5.547-1.79-8.703-2.169-8.938-1.074-24.197-5.4-28.395-8.05-2.091-1.32-4.804-2.4-6.029-2.4-2.283 0-22.724-6.392-26.313-8.228-1.1-.562-2.927-1.865-4.06-2.893-1.522-1.383-4.012-1.968-9.55-2.246-4.119-.206-8.833-1.07-10.474-1.919-1.642-.849-4.77-1.85-6.951-2.224-2.181-.374-6.33-1.396-9.22-2.27-5.174-1.565-5.306-1.552-8.5.818-2.653 1.968-4.34 2.382-9.245 2.271-9.43-.213-23.376 3.069-26.45 6.224-1.402 1.44-7.187 5.308-12.854 8.596l-10.303 5.978.647 4.315c.526 3.506.088 5.604-2.337 11.196-3.295 7.6-5.232 21.437-3.323 23.737.582.701 1.526 5.4 2.097 10.443.571 5.043 1.97 11.656 3.107 14.698 1.396 3.73 1.848 6.532 1.392 8.612-.61 2.774-.177 3.553 4.291 7.738 6.656 6.233 15.78 24.422 14.82 29.542-.573 3.052-.24 3.655 3.89 7.04 2.541 2.082 4.775 4.875 5.108 6.386.325 1.477 1.987 5.96 3.695 9.961 2.835 6.647 3.016 7.704 2.09 12.223-1.25 6.108.229 10.29 4.511 12.748 2.338 1.342 3.417 3.167 5.154 8.725 3.245 10.383 4.06 11.695 8.669 13.962 2.337 1.149 4.223 2.798 4.249 3.714.026.907 1.471 5.56 3.212 10.34 3.238 8.887 7.41 14.512 10.762 14.512 2.152 0 8.073 9.135 8.073 12.456 0 3.75 3.059 6.608 7.745 7.237 2.324.311 4.737 1.183 5.362 1.937.626.753 1.702 1.37 2.393 1.37 2.168 0 3.913 3.058 4.466 7.827.444 3.832 1.101 4.983 3.931 6.887 1.87 1.257 4.837 2.286 6.595 2.286 4.559 0 6.751 2.891 7.31 9.639.42 5.05.774 5.77 3.567 7.235 4.479 2.349 10.63 8.579 10.63 10.766 0 1.031 2.476 4.713 5.5 8.181 3.026 3.469 5.5 7.169 5.5 8.223 0 1.054 2.7 4.896 6 8.537 3.318 3.66 6 7.557 6 8.716 0 1.242 1.91 3.775 4.692 6.223 4.6 4.049 4.7 4.261 5.13 11.025.37 5.796.917 7.492 3.432 10.621 1.646 2.049 4.286 4.175 5.866 4.726 3.167 1.104 16.689 14.422 17.872 17.603.41 1.103.545 2.533.3 3.177-.89 2.343-8.486 4.328-18.55 4.85-5.633.29-12.716.687-15.741.88-3.025.192-6.89.028-8.588-.366z"/></svg>