<svg xmlns="http://www.w3.org/2000/svg" xmlns:dc="http://dublincore.org/documents/dcmi-terms/" height="661" width="588"><metadata><dc:description>Silhouette of Carabidae Conjunctae, processed by PhyloPic Tools (https://github.com/eweitz/phylopic-tools)</dc:description><dc:source>http://phylopic.org/image/86902093-bab3-4e65-a008-99eb94a751eb</dc:source><dc:creator>Birgit Lang</dc:creator><dc:license>http://creativecommons.org/licenses/by/3.0/</dc:license></metadata><path d="M194.287 619.521c.044-2.217 2.902-8.532 4.752-10.502 1.172-1.247 3.29-4.738 4.709-7.758 2.812-5.989 5.287-9.785 11.476-17.602 2.226-2.812 4.047-5.518 4.047-6.013 0-.496 1.54-3.187 3.422-5.981 1.881-2.795 4.125-6.766 4.986-8.825.86-2.06 2.92-5.457 4.578-7.55 1.658-2.094 3.014-4.382 3.014-5.085 0-.703 2.25-3.865 5-7.027 2.959-3.401 5-6.71 5-8.104 0-1.296 1.83-4.79 4.065-7.765 2.235-2.975 4.707-6.948 5.492-8.828 1.492-3.57 4.073-7.054 11.193-15.11 2.338-2.643 4.25-5.308 4.25-5.92 0-.612 1.575-2.688 3.5-4.613 1.925-1.925 3.5-4.321 3.5-5.325 0-1.004 2.025-3.813 4.5-6.242 3.657-3.589 4.5-5.08 4.498-7.958-.002-3.333-.352-3.712-5.955-6.444-5.55-2.706-6.062-3.25-7.576-8.065-1.625-5.167-1.62-17.853.01-25.055.536-2.37.223-3.44-1.452-4.956-1.766-1.598-2.47-1.724-4.067-.727-3.377 2.11-5.213 1.687-17.457-4.02-1.1-.512-3.35-2.67-5-4.794-1.65-2.125-3.45-4.039-4-4.253-2.138-.832-14.642.884-15.402 2.114-1.286 2.08-.06 6.013 3.538 11.36 1.85 2.75 3.364 5.343 3.364 5.763 0 .42 1.8 2.01 4 3.535 3.438 2.383 4 3.289 4 6.448 0 4.256 2.602 7.57 7.573 9.648 1.81.756 3.572 1.831 3.917 2.39.346.558 1.453 1.014 2.462 1.014 1.009 0 2.093.675 2.41 1.5.595 1.552-.23 1.856-4.165 1.533-4.481-.368-6.944 4.273-3.697 6.967 1.642 1.363 2.058 5 .571 5-.51 0-1.67.742-2.577 1.649-1.34 1.34-1.597 3.395-1.376 11.005.182 6.256-.124 9.752-.923 10.551-.658.658-1.196 2.204-1.196 3.436 0 1.233-.45 2.52-1 2.86-.55.34-1 2.14-1 4.002 0 2.223-.67 3.853-1.952 4.752-1.758 1.23-2.422 3.023-4.894 13.205l-.719 2.96-2.362-3.317c-2.072-2.91-2.773-3.25-5.717-2.773-4.017.652-4.533-1.01-.606-1.948 3.96-.946 5.25-2.26 5.25-5.349 0-1.497.853-3.494 1.896-4.438 1.042-.943 2.13-2.925 2.418-4.405.287-1.48 1.03-4.49 1.653-6.69 2.667-9.43 3.788-16.042 2.905-17.13-.504-.621-.625-3.612-.269-6.646.604-5.135.398-5.92-2.977-11.39-1.994-3.23-3.626-6.563-3.626-7.406s-1.737-5.126-3.86-9.518c-5.257-10.868-9.783-25.435-10.578-34.042l-.66-7.133 3.974-4.59c5.178-5.983 5.581-7.56 3.64-14.237-.892-3.07-1.772-8.804-1.957-12.744-.834-17.839-1.919-28.714-2.944-29.52-.613-.481-7.824-1.179-16.024-1.55-15.523-.703-17.662-1.215-30.392-7.274-2.916-1.388-7.19-2.762-9.5-3.054-2.786-.352-5.144-1.474-7.008-3.337-1.545-1.544-4.02-2.947-5.5-3.118-1.588-.183-3.074-1.184-3.627-2.443-.526-1.197-1.842-2.125-3-2.115-5.483.048-13.136-2.373-14.849-4.698-.982-1.333-3.349-2.939-5.26-3.57-1.91-.63-3.286-1.447-3.059-1.815.228-.368-2.13-.693-5.24-.721-3.11-.029-9.086-.427-13.28-.886-6.253-.685-8.213-.54-10.903.801-3.996 1.994-3.973 1.993-3.973.136 0-.825-.45-1.5-1-1.5s-1 .45-1 1c0 1.26-6.68 1.326-7.454.074-.348-.563-1.842-.531-3.809.081-7.379 2.297-7.118 2.281-6.386.375.626-1.632.22-1.73-4.549-1.098-4.125.548-5.832 1.363-8.045 3.842-1.545 1.73-2.592 3.712-2.327 4.404.266.692.066 1.516-.444 1.831-.51.316-1.203-.683-1.541-2.218-.338-1.535-1.228-4.427-1.976-6.427-.75-2-1.086-3.913-.748-4.25.337-.337 4.025-.617 8.196-.62 10.563-.01 21.129-1.111 20.496-2.135-.645-1.043.754-1.029 6.411.064 3.572.69 4.615.525 6-.955 1.548-1.653 1.984-1.675 5.676-.284 6.21 2.337 9.618 2.745 10.535 1.26.665-1.075 1.512-1.034 4.64.229 8.088 3.265 10.98 4.096 15.514 4.46 2.579.206 4.957-.06 5.286-.59.65-1.053 5.525.73 5.525 2.02 0 1.196 6.21 4.515 12.07 6.45 2.987.988 6.78 2.79 8.43 4.006 1.65 1.216 5.025 3.32 7.5 4.674 4.394 2.404 4.91 2.453 21.75 2.034 14.533-.36 17.25-.666 17.25-1.939 0-.83-1.537-4.357-3.415-7.835-2.987-5.53-5.428-12.768-8.582-25.453-2.575-10.35-3.135-12.277-4.579-15.732-1.398-3.35-8.991-10.268-11.268-10.268-.444 0-1.83-1.088-3.08-2.42-1.25-1.33-3.691-2.995-5.424-3.7-1.733-.704-5.935-4.184-9.337-7.733-5.807-6.058-6.248-6.856-7.204-13.05-2.595-16.805-2.917-21.285-1.68-23.347.748-1.245.714-2.29-.118-3.621-.785-1.256-.838-2.203-.163-2.878.554-.554.86-2.3.679-3.879-.194-1.696.285-3.358 1.171-4.06 1.293-1.026 1.31-1.502.114-3.455-.985-1.61-1.057-2.375-.25-2.644.69-.23 1.136-2.877 1.136-6.728 0-5.044-.605-7.544-2.945-12.166-1.62-3.2-3.195-7.4-3.501-9.335-.342-2.16-2.484-5.898-5.555-9.694-2.75-3.397-4.999-6.792-4.999-7.542 0-.751-.667-2.239-1.483-3.306-.816-1.068-1.95-3.517-2.52-5.442-.68-2.3-2.4-4.44-5.015-6.24-3.267-2.249-3.982-3.325-3.982-6 0-2.408-1.046-4.405-4-7.636-2.2-2.407-4-4.92-4-5.583 0-2.201-1.311-2.566-3.67-1.021-2.158 1.414-2.33 1.386-2.33-.373 0-1.332 1.526-2.557 5.098-4.093 2.803-1.206 5.292-1.997 5.53-1.759.24.239.713 2.785 1.053 5.659.353 2.977 1.2 5.447 1.97 5.742.742.285 1.35 1.06 1.35 1.723s1.318 2.18 2.93 3.372c1.613 1.192 3.735 3.527 4.716 5.188.982 1.662 2.332 3.021 3.002 3.021.669 0 1.498 1.013 1.842 2.25 1.401 5.042 3.894 9.75 5.161 9.75.742 0 1.348.863 1.348 1.917s.338 2.067.75 2.25c.413.183 1.425 2.327 2.25 4.764 1.007 2.973 2.461 4.959 4.421 6.037 1.998 1.1 3.037 2.545 3.288 4.57.202 1.63.768 4.312 1.26 5.962.49 1.65 1.181 4.874 1.535 7.164.75 4.853 6.068 12.336 8.768 12.336 1.701 0 1.651.368-.646 4.75-5.708 10.892-7.144 16.14-8.17 29.854-.681 9.125-.031 10.438 6.505 13.135 1.947.803 4.33 2.163 5.296 3.022 3.159 2.808 12.497 7.819 13.221 7.095.277-.277-.034-5.31-.69-11.184-.955-8.545-.932-12.329.114-18.926a833.281 833.281 0 0 0 2.192-14.746c.486-3.575 2.166-9.2 3.734-12.5 4.215-8.875 9.172-20.62 9.172-21.728 0-.533.633-2.387 1.406-4.12.773-1.734 2.197-5.402 3.165-8.152.967-2.75 2.87-6.51 4.227-8.357 2.552-3.472 13.477-11.143 15.868-11.143.746 0 3.431-.975 5.968-2.167 4.154-1.953 5.269-2.066 11.239-1.144 5.81.897 11.71 2.87 20 6.688 1.304.6 5.579 3.8 9.5 7.108 3.92 3.31 8.88 7.327 11.024 8.929 8.383 6.265 32.726 31.887 35.644 37.518 1.587 3.063 3.74 6.644 4.783 7.959l1.896 2.39 2.036-2.036c1.98-1.981 3.934-5.149 6.315-10.245 2.052-4.39 6.39-13.165 7.598-15.368 1.167-2.127.915-4.77-1.727-18.132-1.078-5.449-7.152-18.6-9.486-20.536-.8-.665-1.456-1.717-1.456-2.338 0-.62-2.025-2.203-4.5-3.516-7.266-3.855-5.643-5.04 3.397-2.479 2.17.615 2.348.428 1.887-1.984-.379-1.979-.204-2.41.677-1.68 1.433 1.19 3.54-.582 3.54-2.975 0-.885.66-2.483 1.468-3.55.837-1.107 1.482-4.16 1.5-7.102.017-2.839.926-8.014 2.019-11.5 1.092-3.487 1.992-7.625 2-9.195.007-1.572 1.137-4.192 2.512-5.827 1.678-1.994 2.5-4.184 2.5-6.66 0-2.028.9-5.366 2-7.419 1.1-2.052 2-4.263 2-4.912 0-.65 1.317-2.339 2.926-3.754 2.585-2.274 3-3.438 3.563-10.02.736-8.588.924-9.053 3.666-9.053 4.193 0 10.532 6.84 7.865 8.488-.436.27-1.026-.405-1.312-1.499-.644-2.462-2.708-2.632-2.708-.224 0 .97-.864 3.378-1.92 5.348-1.056 1.971-2.413 5.41-3.014 7.643-.601 2.233-2.662 6.34-4.58 9.128-1.917 2.788-3.501 6.317-3.521 7.842-.02 1.526-.678 3.9-1.465 5.274-.786 1.375-1.445 3.753-1.464 5.284-.02 1.53-1.14 4.963-2.49 7.628-1.351 2.665-2.238 5.062-1.973 5.328.266.266.053 1.615-.473 3-.526 1.383-1.243 7.973-1.593 14.644-.55 10.47-.423 12.211.928 12.73.861.33 1.565 1.677 1.565 2.993 0 1.317.46 2.393 1.02 2.393.57 0 .759 1.036.427 2.357-.377 1.5.002 2.95 1.045 3.992.9.9 1.344 2.11.986 2.688-.357.578-.142 1.663.48 2.412.623.75.841 2.505.487 3.915-.375 1.497.061 4.394 1.056 6.997 1.798 4.71 1.674 11.61-.346 19.14-.59 2.2-1.632 6.7-2.316 10-.684 3.3-2.01 7.35-2.944 9-.936 1.65-1.995 4.418-2.356 6.152-.794 3.824-3.796 9.869-6.242 12.572-1.478 1.634-1.797 3.768-1.797 12.047 0 7.16.36 10.182 1.25 10.478.688.23 1.25 1.415 1.25 2.634 0 1.219.413 2.644.918 3.166.504.523 1.153 2.3 1.44 3.95.288 1.65 1.024 4.694 1.634 6.764 1.772 6.007 4.115 25.184 4.707 38.516.664 14.958 1.017 15.36 10.303 11.72 3.43-1.344 10.062-3.204 14.738-4.133 8.087-1.606 8.75-1.943 13.63-6.928 6.597-6.738 9.346-10.458 10.178-13.774.684-2.723 1.87-3.416 2.925-1.708.753 1.218 3.515.2 3.566-1.314.021-.628 1.466-2.043 3.211-3.143 1.924-1.212 3.75-3.574 4.639-6 1.824-4.977 2.037-5.239 2.996-3.687.99 1.602 4.115.45 4.115-1.515 0-2.888 3.387-7.298 5.605-7.298 1.704 0 2.319-.778 2.85-3.61.44-2.349 1.342-3.785 2.578-4.108 1.046-.274 2.152-1.289 2.46-2.256.306-.967 2.234-3.523 4.282-5.68 7.04-7.414 10.726-11.848 11.225-13.505.393-1.301 1.301-.735 4.212 2.625 3.53 4.075 3.598 4.284 1.397 4.284-2.333 0-12.78 6.102-14.098 8.234-.391.632.073 1.723 1.032 2.424 1.593 1.165 1.425 1.515-1.953 4.092-2.033 1.55-4.305 4.278-5.05 6.06-.745 1.784-2.634 3.853-4.197 4.6-1.835.874-2.948 2.256-3.14 3.896-.203 1.738-1.204 2.884-3.164 3.624-1.834.692-2.99 1.93-3.203 3.432-.234 1.634-2.155 3.448-6.314 5.96-6.023 3.64-9.507 7.796-9.516 11.357-.003 1.061-1.468 3.365-3.256 5.12-1.787 1.755-3.729 3.812-4.314 4.571-1.518 1.968-6.072 5.391-12.436 9.35-3.025 1.882-6.175 4.062-7 4.846-.825.783-2.985 2.182-4.801 3.107-1.816.925-3.551 2.334-3.857 3.13-.305.796-1.23 1.447-2.054 1.447-.824 0-2.836 1.125-4.47 2.5s-3.596 2.5-4.36 2.5c-3.09 0-3.336 3.398-.76 10.522 1.387 3.838 2.752 7.998 3.032 9.243.28 1.246 1.018 2.596 1.64 3 .622.405 5.855.75 11.63.77 11.067.036 16.855 1.177 19.528 3.85.889.889 2.446 1.615 3.461 1.615 1.015 0 3.949.902 6.519 2.004 2.57 1.101 5.064 1.761 5.542 1.466.478-.296 1.675-.11 2.66.413 4.375 2.32 9.26 4.117 11.192 4.117 1.154 0 2.098.45 2.098 1 0 1.166 6.58 1.22 9.5.079 1.106-.432 2.725-.33 3.621.23 1.208.753 2.401.456 4.678-1.165 3.035-2.161 3.06-2.162 3.696-.16.943 2.97 4.343 2.53 5.688-.734.894-2.172 1.22-2.382 1.548-1 .5 2.106 5.27 2.443 5.27.373 0-.758.674-1.938 1.5-2.623 1.036-.86 1.5-.898 1.5-.122 0 1.661 2.715 1.338 10.204-1.214l6.704-2.285 1.36 6.06c1.501 6.69 1.277 8.082-.816 5.06-2.845-4.108-3.614-4.499-8.857-4.499-3.812 0-6.049.57-7.868 2-1.399 1.1-3.233 2-4.076 2-.844 0-1.78.4-2.083.89-.885 1.43-7.284 2.286-19.069 2.549-11.572.257-16.509.94-20.288 2.81-1.902.94-3.184.677-7.6-1.559-2.921-1.48-5.618-2.69-5.993-2.69s-3.7-2.025-7.39-4.5c-6.515-4.37-10.462-5.548-11.729-3.5-.34.55-1.421 1-2.404 1-.982 0-2.582.88-3.556 1.956-.988 1.093-3.789 2.26-6.342 2.642-6.93 1.04-9.198 3.866-9.198 11.463 0 12.837-6.493 28.048-13.366 31.31-5.323 2.525-6.362 4.297-4.384 7.475.91 1.46 2.624 4.454 3.812 6.654 1.187 2.2 3.298 5.217 4.69 6.703 2.416 2.579 2.508 3.111 2.02 11.671-.386 6.768-1.034 9.816-2.642 12.416-1.171 1.896-2.13 4.366-2.13 5.49 0 2.436 5.076 6.96 8.828 7.868 2.65.642 6.178 3.471 13.088 10.495 1.972 2.004 5.047 4.378 6.834 5.276 1.788.898 3.25 2.262 3.25 3.031 0 .77 1.39 2.445 3.088 3.724 1.698 1.28 4.17 3.451 5.494 4.826 1.323 1.375 7.471 7.79 13.662 14.254 17.115 17.871 35.444 35.453 38.901 37.316 4.885 2.633 27.855 25.029 27.855 27.159 0 2.462-2.542 1.222-7.135-3.479-5.058-5.177-11.399-10.875-22.615-20.321-3.987-3.358-7.25-6.512-7.25-7.008 0-.496-1.499-1.885-3.332-3.086-1.833-1.202-4.045-3.428-4.918-4.947-.872-1.52-3.407-3.692-5.634-4.829-2.227-1.136-4.513-2.933-5.081-3.994-.568-1.061-1.94-2.217-3.05-2.57-1.11-.352-2.62-2.079-3.355-3.838-.734-1.758-2.804-4.313-4.6-5.677-7.232-5.495-10.075-8.314-10.635-10.545-.384-1.529-1.766-2.732-3.976-3.461-3.684-1.216-6.83-4.63-8.958-9.724-1.048-2.505-1.964-3.25-4.005-3.25-3.157 0-8.095-3.29-8.942-5.957-.71-2.239-8.475-7.043-11.383-7.043-1.107 0-2.29-.45-2.63-1-1.152-1.863-2.74-1.022-2.172 1.15.31 1.183.135 4.408-.388 7.166-.724 3.817-.637 5.394.366 6.6.725.871 2.145 3.495 3.156 5.83 1.556 3.596 1.75 5.918 1.261 15.17-.365 6.927-1.137 11.96-2.11 13.755-1.457 2.69-1.535 2.28-1.573-8.267-.03-7.994-.478-11.972-1.604-14.23-2.073-4.155-3.142-4.676-4.007-1.95-1.087 3.422-6.704 9.738-8.68 9.758-1.967.02-2.263-1.068-.712-2.619 1.156-1.156-.164-5.704-1.982-6.828-.587-.363-2.643-.09-4.568.606-3.235 1.17-3.456 1.511-2.9 4.477.47 2.5.192 3.43-1.254 4.204-1.457.78-2.5.42-4.845-1.676-1.644-1.469-3.064-3.04-3.155-3.491-.439-2.161-1.353-1.544-2.784 1.88-1.735 4.153-1.374 5.132 4.668 12.675 1.494 1.866 3.856 5.969 5.248 9.117l2.531 5.723-2.989-1.545c-3.366-1.741-5.419-4.484-7.148-9.55-.648-1.9-2.232-4.727-3.52-6.281-1.619-1.956-2.344-4.113-2.355-7-.022-6.336-2.526-12.011-10.777-24.433-.925-1.392-10.5 7.548-15.46 14.437-1.515 2.102-4.826 6.464-7.36 9.693-2.533 3.228-5.47 7.82-6.524 10.205-1.055 2.385-2.969 5.593-4.254 7.13-1.285 1.537-3.265 4.625-4.4 6.861-1.135 2.237-2.844 4.712-3.798 5.5-.954.789-2.735 3.683-3.956 6.433-1.222 2.75-3.21 5.89-4.42 6.979-1.208 1.088-3.381 4.463-4.828 7.5-1.447 3.037-4.336 7.424-6.42 9.75-2.083 2.324-3.788 5.121-3.788 6.214s-1.26 3.466-2.8 5.273c-1.542 1.806-4.247 5.582-6.012 8.39-1.766 2.808-4.12 5.928-5.23 6.934-1.112 1.005-2.518 3.8-3.125 6.21-.661 2.627-2.029 4.988-3.416 5.897-1.272.834-3.076 3.617-4.008 6.185-.933 2.567-2.58 5.456-3.663 6.418-2.054 1.827-3.756 2.284-3.73 1z"/></svg>