<svg xmlns="http://www.w3.org/2000/svg" xmlns:dc="http://dublincore.org/documents/dcmi-terms/" height="288.319" version="1.2" viewBox="0 0 761.164 288.319" width="761.164" overflow="inherit"><metadata><dc:description>Silhouette of Carcharocles, processed by PhyloPic Tools (https://github.com/eweitz/phylopic-tools)</dc:description><dc:source>http://phylopic.org/image/993d4e41-51b3-4c59-a4ad-b3dbd482968e</dc:source><dc:creator>Scarlet23 (vectorized by T. Michael Keesey)</dc:creator><dc:license>http://creativecommons.org/licenses/by-sa/3.0/</dc:license></metadata><path d="M345.978 1.734c2.18-.638 5.111-2.005 6.36-1.687.933.238.799.326 1.12 1.687 2.989 26.517 10.483 48.529 28.675 59.843.385 2.879-3.602 1.387-3.738 3.745 40.619 6.209 82.394 16.185 122.186 27.429 13.355 3.771 27.926 11.205 38.649 11.219 10.55.016 19.703-10.487 27.432 1.247-1.06 1.85-3.137 2.682-6.235 2.496 22.838 6.67 51.12 7.896 68.575 19.948 35.815-28.193 71.769-62.881 132.163-62.338v3.741c-5.876 4.933-13.143 8.473-14.964 17.453-4.049.724-5.801-.851-8.728-1.246-22.366 20.018-59.132 42.88-48.625 91.018 3.319 15.215 16.969 25.417 16.208 42.39-18.688 2.337-32.199-11.216-41.146-22.442-13.061-16.387-21.077-39.195-36.154-52.364-14.06.902-28.22 1.705-43.641 1.245-6.097.138-3.932 8.535-8.727 9.973-7.072-.872-9.845-7.55-17.457-8.725-11.596-1.789-25.518 5.725-38.648 4.989 10.577 3.549 29.687-1.431 38.648 3.735-10.8 8.168-25.763 1.966-37.403 6.234-11.108 4.079-9.064 16.325-18.702 21.199-12.196-3.18-19.295-11.462-31.169-14.964-50.558 19.371-124.794 19.271-192.008 14.964-15.392 15.473-22.317 40.532-23.688 69.816-.596 12.755 1.016 24.775-4.988 33.666-1.359 1.184-2.45 2.312-3.657 2.312-1.287 0-2.611-1.364-3.823-2.312-27.347-27.099-38.98-69.906-46.132-117.199-34.32-9.683-91.42-10.118-106.747-14.198-13.987-3.724-31.433-10.737-37.206-18.43 5.205-.412 7.213.018 9.299-4.778-4.901.656-9.349-.716-14.945.752-17.53-6.99-41.474-21.786-46.46-28.75-1.029-1.436.84-1.432 1.557-1.925C74.355 84.284 165.942 67.1 252.468 60.335c13.65-1.068 29.091-1.094 37.403-4.989 9.415-4.415 17.036-19.763 24.936-28.676 9.182-10.355 19.18-21.463 31.171-24.936z"/></svg>