<svg xmlns="http://www.w3.org/2000/svg" xmlns:dc="http://dublincore.org/documents/dcmi-terms/" height="584.761" viewBox="0 0 810.56123 548.21366" width="864.599"><metadata><dc:description>Silhouette of Castoridae, processed by PhyloPic Tools (https://github.com/eweitz/phylopic-tools)</dc:description><dc:source>http://phylopic.org/image/1e855623-2544-44bd-b95c-d991133518dd</dc:source><dc:creator>Nobu Tamura, vectorized by Zimices</dc:creator><dc:license>http://creativecommons.org/licenses/by-sa/3.0/</dc:license></metadata><path d="M670.562 547.189c0-.694 2.954-4.54 6.563-8.548 3.61-4.008 7.466-8.416 8.571-9.795 8.822-11.012 14.902-19.346 16.763-22.978 1.21-2.361 4.304-6.825 6.876-9.918 2.572-3.094 5.79-7.594 7.153-10a755.927 755.927 0 0 1 6.233-10.71c2.067-3.484 4.605-8.265 5.64-10.625 5.738-13.082 8.452-19.723 8.46-20.697.003-.601.771-2.559 1.706-4.35 1.96-3.757 4.439-13.779 4.759-19.243.458-7.824-7.582-20.297-14.599-22.647-1.375-.461-4.24-2.163-6.368-3.783-2.127-1.62-4.449-2.945-5.159-2.945s-1.987-.838-2.836-1.862c-.85-1.023-2.003-1.578-2.563-1.231-.56.346-1.378-.504-1.818-1.89-.44-1.384-1.826-2.517-3.081-2.517s-2.606-.844-3.002-1.875c-.395-1.032-1.3-1.875-2.008-1.875-.71 0-2.415-1.125-3.79-2.5-2.79-2.792-5.244-3.127-8.832-1.206-1.902 1.018-2.418.884-2.418-.625 0-1.056-.574-1.92-1.276-1.92-.703 0-4.146-2.839-7.653-6.309-4.757-4.706-7.211-6.246-9.661-6.061-6.51.491-8.527-.17-9.932-3.254-1.355-2.974-5.228-4.425-5.228-1.96 0 1.85-5.11 2.975-6.625 1.459-.756-.756-2.405-1.374-3.664-1.374-1.259 0-2.56-.703-2.891-1.563-.332-.86-2.686-1.712-5.232-1.895-2.546-.184-5.182-.887-5.858-1.563-.676-.676-4.666-1.23-8.866-1.23-4.779 0-8.544-.686-10.062-1.835-1.335-1.009-3.833-1.861-5.552-1.894-1.718-.032-3.953-.583-4.967-1.224-1.167-.738-2.13-.699-2.628.107-.476.77-2.64.013-5.493-1.923-2.59-1.757-5.204-2.888-5.81-2.514-.606.375-1.102-.196-1.102-1.268 0-1.071-.456-1.948-1.014-1.948-1.463 0-6.486 4.878-6.486 6.298 0 .661-.843 1.202-1.875 1.202-1.077 0-1.875 1.128-1.875 2.653 0 2.216-.308 2.397-1.875 1.097-1.56-1.295-1.875-1.137-1.875.944 0 1.375-.856 3.21-1.903 4.079-1.098.912-1.591 2.562-1.166 3.902.54 1.703-.119 2.648-2.472 3.543-3.36 1.277-4.323 4.425-1.646 5.381.86.307 1.11 1.041.557 1.63-.555.593-1.395.518-1.875-.166-.808-1.152-7.048-4.313-8.513-4.313-.357 0-.344.984.03 2.187.813 2.61-.338 4.575-3.324 5.677-1.203.444-2.188 1.669-2.188 2.721 0 1.081-1.088 1.915-2.5 1.915-1.52 0-2.5.833-2.5 2.125 0 1.652-.333 1.791-1.5.625-1.813-1.814-7.25-2.001-7.25-.25 0 .687-.855 1.25-1.9 1.25-1.044 0-4.16 1.426-6.921 3.17-2.762 1.743-5.602 2.811-6.31 2.373-2.023-1.25-12.83-1.393-14.482-.192-.818.595-1.135 2.025-.703 3.178.681 1.82.51 1.872-1.308.394-2.422-1.97-7.847-1.018-11.147 1.956-1.18 1.063-3.248 1.646-4.594 1.294-1.727-.452-2.252-.13-1.782 1.093.883 2.303-2.833 2.247-9.612-.145-4.263-1.504-6.35-1.599-10.47-.476-2.907.792-13.846 1.348-25.146 1.28-17.503-.108-21.638.278-33.125 3.09-18.547 4.541-22.74 5.152-25.95 3.78-1.884-.806-4.357-.737-7.436.208-2.536.778-4.76 1.267-4.94 1.086-.181-.18.46-1.85 1.424-3.709 1.625-3.131 1.57-3.38-.743-3.38-1.374 0-5.075.649-8.224 1.442-4.431 1.115-7.117 1.085-11.871-.133-5.478-1.404-6.408-1.336-8.577.627-1.874 1.696-2.429 1.798-2.416.445.04-3.997 1.648-7.344 3.868-8.05 3.063-.971 3.006-3.227-.149-5.929-3.304-2.829-5.684-2.715-10.177.484-5.036 3.585-5.866 2.11-1.807-3.21 3.397-4.454 7.196-7.12 10.696-7.505 3.73-.411 9.477-2.301 14.21-4.673 4.005-2.006 7.967-2.445 24.375-2.7 17.555-.272 20.21-.604 25.53-3.189 3.512-1.706 5.937-3.726 5.937-4.944 0-1.917-9.862-8.915-12.564-8.915-1.633 0-12.3-4.938-16.186-7.492-1.718-1.13-5.615-2.772-8.66-3.648-3.043-.877-6.736-2.382-8.205-3.344-6.374-4.177-21.743-2.923-29.929 2.44-1.44.944-4.477 2.124-6.75 2.624-2.274.499-3.852 1.19-3.507 1.535 1.108 1.108-6.648 12.564-9.988 14.753-5.438 3.563-28.158 9.705-52.861 14.29-3.727.692-7.102 1.772-7.5 2.4-.399.628-6.214 2.193-12.924 3.479-8.953 1.716-12.377 2.897-12.87 4.438-.368 1.156-2.355 2.471-4.417 2.924-2.061.453-5.115 2.19-6.786 3.862-1.671 1.671-4.74 3.379-6.82 3.795-2.08.416-3.783 1.111-3.783 1.545 0 .433-1.828 1.587-4.062 2.564-2.235.977-7.054 4.067-10.71 6.868-12.223 9.364-14.334 10.717-16.725 10.717-3.433 0-8.683 2.997-12.03 6.868-2.679 3.099-3.07 3.204-5.098 1.37-1.208-1.094-2.996-1.98-3.973-1.97-1.505.017-1.51.188-.041 1.12 1.144.724.292.957-2.5.685-2.33-.228-4.517-.505-4.86-.616-1.664-.537-8.562-.198-12.188.599-3.278.72-4.063.502-4.063-1.132 0-2.513 4.853-12.24 6.695-13.419.747-.478 1-1.228.56-1.667-.438-.438-3.462.382-6.719 1.822-3.257 1.441-6.208 2.334-6.557 1.985-1.221-1.222 2.31-7.043 7.892-13.011 6.07-6.49 7.235-9.562 3.13-8.26-3.512 1.115-3.109-.847.937-4.567 5.481-5.038 11.627-8.06 19.687-9.681 9.322-1.875 19.925-5.648 31.043-11.048 4.698-2.281 9.176-4.273 9.95-4.426.776-.152 2.522-1.262 3.882-2.465 1.36-1.203 3.35-2.212 4.424-2.242 1.073-.03 4.201-1.341 6.951-2.915 3.87-2.214 5.086-3.721 5.38-6.668.364-3.636.126-3.846-5.283-4.657-3.115-.468-6.001-1.397-6.414-2.065-1.263-2.042-23.398.04-25.25 2.374-1.216 1.534-1.902 1.641-3.062.48-1.97-1.969-2.925-1.886-5.269.457-1.073 1.073-4.066 2.264-6.651 2.645-6.33.934-17.826 6.528-17.826 8.675 0 .95-.484 1.729-1.075 1.729-.592 0-3.042 1.334-5.444 2.964-2.403 1.63-7.302 3.939-10.889 5.13-3.586 1.191-6.821 2.951-7.19 3.91-1.288 3.358-3.222 1.784-2.464-2.004.412-2.063.378-3.75-.076-3.75s-3.393 2.145-6.531 4.767c-8.961 7.489-9.338 7.591-8.48 2.302.678-4.175.488-4.57-2.2-4.57-1.662 0-3.94 1.33-5.234 3.056-4.296 5.729-8.461 3.533-4.545-2.396 3.742-5.665-.232-8.113-9.128-5.623-4.061 1.138-5.494 2.167-5.494 3.95 0 1.564-.53 2.084-1.508 1.479-2.26-1.397-13.45-1.669-16.768-.408-1.599.608-6.156 1.452-10.127 1.877-3.972.425-8.195 1.647-9.385 2.716-1.19 1.07-4.251 2.11-6.802 2.312-5.051.4-9.313-1.989-15.548-8.718C5.13 345.384 3.176 340.932 1.702 322.2 1.08 314.293.365 306.934.113 305.846c-.792-3.427 2.695-23.68 6.763-39.271 2.301-8.822 4.355-20.664 4.985-28.75.59-7.563 1.344-15.438 1.675-17.5.332-2.063 1.242-7.688 2.023-12.5 2.271-13.994 1.72-39.775-1.057-49.375-1.292-4.47-2.767-9.11-3.278-10.313-1.313-3.092 3.541-2.925 8.036.276 1.903 1.354 3.908 2.058 4.456 1.562.549-.495.65-.291.227.453-.757 1.33 3.563 8.732 7.964 13.647 1.232 1.375 3.117 4.187 4.19 6.25 1.072 2.062 1.953 3.009 1.958 2.104.01-2.287 5.262-9.132 15.898-20.72 10.23-11.147 17.66-16.855 19.037-14.626.604.978 1.592.64 3.144-1.074 1.244-1.375 2.792-2.173 3.44-1.773.647.4-.132 2.21-1.73 4.024-2.903 3.293-2.903 3.294-.065.898 2.179-1.84 3.185-2.056 4.313-.929 1.127 1.127 1.072 1.47-.238 1.47-.94 0-1.337.372-.883.826.454.454 1.814-.059 3.021-1.14 4.171-3.737 16.998-9.612 22.363-10.242 2.96-.349 10.102-2.897 15.871-5.663 5.77-2.767 11.44-5.03 12.6-5.03 1.16 0 3.67-.807 5.578-1.793 1.906-.986 5.675-2.086 8.375-2.443 10.165-1.347 25.935-8.421 34.353-15.41 13.034-10.824 29.774-27.096 29.06-28.25-.421-.682-.194-.887.504-.456.699.432 5.427-2.538 10.506-6.6 5.08-4.061 15.289-10.84 22.688-15.062 8.043-4.59 13.117-8.219 12.619-9.025-.477-.772-.252-.988.528-.507 1.934 1.196 11.686-2.933 10.699-4.53-.466-.753-.211-.94.599-.44.774.479 8.663-2.81 17.531-7.307 8.867-4.498 16.702-8.177 17.41-8.177.708 0 7.39-1.975 14.85-4.388 13.582-4.395 39.26-8.684 50.436-8.425 3.094.071 11.15-.973 17.903-2.32C401.847.644 426.067-.796 436.537.456c5.728.686 6.5 1.1 5.853 3.141-.567 1.788-.123 2.352 1.855 2.352 1.43 0 3.578.521 4.772 1.158 1.194.638 3.014 1.478 4.045 1.867 1.032.39 2.719 1.187 3.75 1.772 5.368 3.046 7.724 3.954 10.296 3.972 4.595.03 6.39 1.825 5.475 5.471-.782 3.114-.59 3.26 4.283 3.26 5.397 0 17.017 3.294 18.164 5.15.374.605 2.932 1.1 5.684 1.1 6.928 0 26.36 5.973 32.348 9.943 4.51 2.991 25.729 12.557 27.852 12.557.99 0 3.9 1.982 6.47 4.405 2.57 2.424 6.298 5.247 8.286 6.275 4.198 2.171 12.172 9.907 23.642 22.935 4.469 5.076 9.38 10.368 10.912 11.76 1.533 1.392 3.74 5.111 4.903 8.265 3.483 9.434 7.564 15.606 12.912 19.528 2.78 2.039 7.822 7.925 11.204 13.082 3.383 5.156 7.658 11.062 9.5 13.125 1.842 2.062 4.8 5.718 6.573 8.125 1.773 2.406 4.765 6.062 6.648 8.125 1.883 2.062 4.629 6.843 6.101 10.625 1.473 3.78 3.979 8.28 5.57 10 3.334 3.602 5.913 8.515 8.204 15.625 3.18 9.871 9.816 22.704 15.212 29.416 3.021 3.758 7.925 10.49 10.897 14.959 2.972 4.468 8.064 10.937 11.316 14.375 11.932 12.613 18.287 21.66 25.137 35.787 1.877 3.87 6.14 10.161 9.475 13.98 3.334 3.82 8.874 11.496 12.311 17.06 11.943 19.33 17.084 26.937 19.887 29.423 1.55 1.375 4.428 4.75 6.395 7.5 1.967 2.75 4.17 5.562 4.897 6.25 5.258 4.973 13.193 29.662 13.195 41.053 0 7.952-4.984 29.875-7.86 34.562-7.562 12.326-40.397 47.51-44.337 47.51-.614 0-2.48 1.473-4.146 3.274-1.667 1.801-5.28 4.7-8.03 6.444-2.75 1.742-7.06 5.19-9.578 7.663-2.517 2.471-7.86 6.151-11.875 8.177-8.874 4.479-13.126 7.572-11.98 8.717.47.471.03.547-.98.168-1.011-.378-10.2 3.53-20.421 8.684-19.054 9.61-20.792 10.288-20.792 8.112z"/></svg>