<svg xmlns="http://www.w3.org/2000/svg" xmlns:dc="http://dublincore.org/documents/dcmi-terms/" height="219.53" version="1.2" viewBox="0 0 674.562 219.53" width="674.562" overflow="inherit"><metadata><dc:description>Silhouette of Castorocauda lutrasimilis, processed by PhyloPic Tools (https://github.com/eweitz/phylopic-tools)</dc:description><dc:source>http://phylopic.org/image/9cb598e5-06c9-4f02-acc8-e16a41414eac</dc:source><dc:creator>Nobu Tamura (vectorized by T. Michael Keesey)</dc:creator><dc:license>http://creativecommons.org/licenses/by/3.0/</dc:license></metadata><path d="M266.352 219.53c.086-1.419 1.75-9.5 9-7-4.25-6.75.438-8.229 5-8-.271-2.062-8-5.25 1-11-12.75-1.75-13.729-6.365-13-8-11.753 8.509-16.369-11.08-19-15 2.778-5.076 3.52-6.664 4-13 2.27-.096 71.623-19.594 75-20 11.033 16.336 32.477 17.19 56 15 8.988-.837 19.256.328 25 5 12.422 3.155 32.378 7.609 49 7 2.344-7.322 10.799-8.534 16-13-1.496-4.243-3.523-9.478 3-10-9.5-7.5-5.043-12.043-3-14-3.104-.438-11.728 1.011-11-6-17.779 10.152-55.432 16.555-63-7 4.76-2.728 12.715-.072 17 1 11.342-3.659 14.958-15.042 23-22-.744-2.255-5.609-.391-8-1-1.982-2.384-4.15-5.178-2-9h-17v-4c40.589-3.004 99.329 15.622 148 5 9.863-2.152 17.142-6.54 28-10 26.5-8 57.597-27.206 72-36 7-4 11.5-8.5 13-18 2.522-17.876-18.094-22.21-38-20-19.094 2.12-40.572 12.172-57 18-2.958 1.049-14.857 7.244-20 10-1.297.695-20.493 9.969-27 12-32.626 10.183-69.684 13.894-104-3-5.631-1.37-15-6-15-6s-50.255-18.722-80-22c-32.955-3.632-65.504 3.459-97 8-26.594 3.834-53.695 5.466-78 13-34.6 10.726-63.436 21.412-89 41-4.835 3.705-7.977 10.066-13 14-7.669 6.005-18.012 8.625-24 17 .164 3.164-2.658 3.342-2 7-11.912 7.861-15.592 34.854-22 55-3.91 12.295-14.837 22.322-3 33 5.659.294 9.294-2.175 13 1 1.604-1.236 7.633-6.998 9-2 1.109-1.891 2.494-3.506 3-6 10.996-3.887 16.789-13.688 27-20 11.834-7.315 21.805-11.487 28-24 3.361-.972 5.822-2.845 8-5 10.581-1.919 20.63-3.703 32 0 8.37 2.726 17.271 12.263 27 16 1.409.541 3.655-.665 5 0 5.383 2.662 9.627 7.375 15 9-2.477 10.257 2.03 13.112 5 20 1.38-1.953 1.4-5.267 4-6 6.812 4.112 5.465.285 14 0-2.53-5.758 3.332-9.365 9-10 12.073 6.261 25.898 28.122 26 27 17.5 15.75 24.111 17.889 26 18 3.746.588 9.667 4 10 4z" fill-rule="evenodd"/></svg>