<svg xmlns="http://www.w3.org/2000/svg" version="1.2" width="327.236" height="271.32" viewBox="0 0 327.236 271.32" overflow="inherit"><path d="M159.483 271.32c-.222-.377.301-.512 0-1.08-.546-.147-.471.329-.96.239-.159.301.559.292.12.48-1.382-.071-4.14.07-4.32-1.44-3.881-.069-2.774-4.856.6-4.92-2.712-1.391.659-3.979 1.2-5.76 1.882-.998 3.206-2.554 4.68-3.96 1.3.107 2.772.026 4.2.479 1.307-.333 2.483-.796 3.84-1.079-.121-.002-.151-.211 0-.24.832.136.942-.598 2.04-.48.158-.3-.475-.375-.12-.479 1.054-.146 1.958-.442 2.04-1.561-1.191-.951-3.032-.663-4.56-1.08-1.448-.395-2.263-1.731-2.521-3.239 1.07-1.438 2.61-1.363 4.08-1.561 1.026-.138 1.606-.908 2.64-1.08 1.736-.288 3.438.812 5.4 1.32.982.254 1.84.282 2.64.84-.033-.273.029-.451.24-.479.236.287.753.366.48.84.386-.026.507.212.96.12.361-.226-.457-.556-.12-.721.8.265 1.557.484 2.399.12.367-.315-.486-.404-.12-.72.753.152.782-.418 1.2-.6-.474-.767.306-1.468.48-2.28-.83.127-.508-.436-.48-.96-.273.033-.451-.029-.479-.24.122-.438.166-.953.479-1.2.227.238.532.328.48-.24-.354.08-.992-.18-1.2-.6.183-.436.661-.381.96-.12a3.03 3.03 0 0 0 .24-.96c-.378-.058-.271.368-.721.24-.062-.658-.948-.491-.96-1.2.379-.177.716.551.721 0 .352-.102-.156-.302 0-.6-.384-.017-.919.118-.84-.36.344-.33.637.068.96.12v-.84c-.357-.005-.96.356-1.08-.12-.045-.799 1.02-.595.84-1.2-.367-.087-.354.207-.72.12-.056-.385-.457-.423-.48-.84.287.072.548.172.96.12.144-1.104-1.265-.655-1.2-1.681.219-.306.218-.901.721-.6-.097-.416.179-.461.119-.84-.529-.168-.688-.086-.96.24-.201-.328-.39-1.142-.119-1.561-1.027-.68-.483-2.209-1.2-3.12.312.048.361.358.72.36.125-.725-.381-.818-.48-1.32-.604-.016.177.608-.359.601-.492-.334.028-.994-.24-1.44.229-.225.302-.013.6 0 .097-.416-.179-.461-.119-.84-.524.037-.534-.355-.96-.12-.118-.883-.635-2.004-.601-2.64.193.286.559.401.96.479.156-.298-.352-.498 0-.6.369-.09.23.329.601.24.069-.39-.082-.559-.12-.841-.445-.004-.696.185-.96.36-.22-.304-1.133-.542-.721-1.08.115.205.377.263.601.36-.278-.678.532-.268.479-.721-.028-.171-.197-.202-.239-.359-.367-.007-.288.432-.721.359-.547-.373-.722-1.117-.84-1.92.328.047.512.555.84.24.087-.367-.207-.353-.12-.72-.229-.225-.301-.013-.6 0-.176-.265-.364-.516-.36-.96.298-.143.445-.436.36-.96-.267.052-.65.275-.72-.12-.008-.488.38-.58.359-1.08-.915-.336-.002-2.258-.96-2.76.191-.329.315-.726.36-1.2-.253-.292-.533.106-.72-.12-.121-.636-.821-1.072-.36-1.92-1.272-.142-.591-1.627-1.32-2.16.224-.876 1.331-2.586.601-3.24-.296.345-.274 1.007-.721 1.2-.534-.467-.03-1.295.12-1.8-.153-.206-.571-.148-.6-.48.609-1.331.648-2.491.96-4.079-.532-.243-.483.704-.72.359.037-.642.27-1.09.479-1.56-.307-.131-.572.364-.72 0 .647-1.207.899-2.697 1.08-4.08-1.119-.079-.201 1.879-1.08 2.04-.026-.986.134-1.786.479-2.4.229.052.218.343.601.24-.104-.696-.203-1.396-.24-2.16-.298.018-.582.022-.6-.24.672-1.448.017-3.57.72-5.159-.463-1.392-.166-2.91-.36-4.44-.085-.671-.472-1.239-.6-1.92-.585-3.122.167-5.929-.12-9.48-.814-1.185.142-3.042 1.44-3.239.084-.796.563-1.197.72-1.92.352.031.369-.271.72-.24 1.295-1.865 3.245-3.075 4.2-5.28-.615-.095-.509.531-1.08.48.522-1.238 2.146-1.374 3.24-2.04-1.345-.735-2.47 1.226-3.48 1.199.137-.503.543-.737.96-.96.148-.388-.388-.091-.239-.479.295-.623 1.556-1.107 1.92-2.04-.683-.079-.878.958-1.44.6.211-.649 1.158-.997.96-1.68.603.275 1.076-.273 1.44-.6-.438-.065-1.066.427-1.08-.24 1.637-.563 3.428-.972 4.439-2.16.153.007.167.153.36.12-.153-.714.629-.491.6-1.08-.55-.03-.496.543-1.08.48-.009-.209.027-.374.12-.48-.864.137-1.326 1.312-2.159 1.08 1.744-1.157 1.936-3.127 3.84-4.08-.432-.759.524-.825.6-1.44-.416-.049-.666.686-.96.36.788-1.012 1.909-1.691 3-2.4.591.071.924-.115.84-.72h-.84c-.149.451-.495.705-1.08.72.302-1.138 1.831-1.049 2.16-2.159-.661-.138-.738.937-1.2.6.681-1.279 1.95-1.97 3.24-2.64-.084-.925.865-.814.96-1.561-.916-.036-.924.837-1.68.96.56-1.6 2.715-1.604 3.479-3-.56-.22-1.211 1.314-1.92.6-.346.178-.727.948-1.2.6 1.378-1.743 3.835-2.405 5.28-4.08-.607-.087-.711.33-1.2.36-.294-.283.18-.224.12-.6-1.229.006-2.413.663-3.359.24-.207.796-1.641.262-2.4.24-.165.273.31.451 0 .48-.972-.237-1.054.068-1.68.36.001-.238.327-.152.239-.48-.281-.038-.45-.189-.84-.12-.021.18.043.443-.12.48-1.703.575-3.594.1-5.279.36.669.488 2.47-.063 3.119.72-1.25.03-2.135.425-3.119.72-.226-.229-.014-.302 0-.6-1.375-.171-2.88-.032-4.44-.24.62.82 2.813.067 3.479.84-.522.077-1.356-.157-1.68.12.917.158-.667.391-.84.6-.138.377.188.292.24.48-1.304.457-2.778.742-3.84 1.44.106-.693.869-.73.84-1.561-.675.006-1.427-.066-1.8.24.388.052 1.037-.158 1.079.24-.921.364-2.33.23-2.64.6.129.493 1.14-.164 1.32.48-1.086.062-1.849-.024-3.12 0 .064 1.087 1.21-.268 1.56.479-.685.555-1.997.483-3.239.48-.164.523.464.255.359.72-.905.634-2.033.849-3.72 1.08-.177.456.536.023.36.48-.849.432-2.315.244-3.36.479-.098.415.224.507 0 .72h-1.2c.033.273-.028.451-.24.48-2.244.232-3.889-1.374-5.52-.96.981.549 3.075.673 4.32 1.319-2.092.376-4.184-1.463-5.88-1.08 1.624.537 3.225 1.095 4.8 1.681-.8.055-1.287.33-1.92-.12-.888 1.161-3.021-.03-4.08-.24.015.301.229.376-.12.48-1.21-.131-1.772-.602-3-.36-.1-.339.169-.311.12-.6-1.108.226-2.483.596-3.36.12-.522.786-1.63.664-2.4.96.107-.388-.392-.169-.48-.36-.133.763-1.244.403-1.68.36-.398 1.471-1.562.977-2.64.6.389.772 1.577.982 2.04.72-.146.842.339.966-.48 1.2.909.131 1.264.816 1.56 1.56-.438.043-.748.213-1.08.36.347.174.712.328.96.601.386.105.165-.396.48-.36.148.531.741.618.84 1.2-.539.077-.943-.331-1.2.12.187.031.083.263 0 .359.688.195 1.154.471 1.8.12-.056.442-.053.684-.48.96 1.16.038 2.266 1.009 1.8 1.92.722.118 1.209.471 1.44 1.08-.648.29-1.358-.294-2.16-.24.245.621.883.571 1.56.96-.028-.771.492-.248.96-.479-.051.229-.258.302-.24.6.273.165.451-.309.48 0-.882 1.846 1.624 1.009 1.44 2.521.863.217 1.277.883 1.8 1.439-.204.405-.835-.363-.84.24.595.005 1.293-.093 1.44.36-.925.302-2.02-.204-2.88-.36-.057.617.965.155.72.96.375.185 1.173-.052 1.32.36.038.318-.672-.112-.48.359.897-.057.779.901 1.32 1.2.956-.035 1.283.558 1.56 1.2-.782.143-.88-.399-1.44-.48.785 1.268 2.618 2.727 2.4 4.2-.377-.103-.267-.693-.72-.72-.073 1.152 1.708 2.101.72 3 .154.73.961 1.938.36 2.64.016-.215-.119-.28-.36-.239.21.833-.128 2.09.72 2.52-.585.184-.06 1.34-.96 1.44-.368 2.09 1.264 4.146.48 6.239.058.312.621.81.12.961-.567-.433-.307-1.693-1.08-1.921.313 1.638.386 2.97.6 4.2.527-.087.622.258.72.601-.238.199-.152-.011-.48 0 .3.492-.216.479-.12 1.079.141.02.341-.021.36.12-.141.02-.34-.021-.36.12.572 1.029 1.06 2.78 1.2 3.84-.504-.016-.297-.743-.84-.72.039.282.19.45.12.84 1.293 1.061 1.357 3.483 1.68 4.92-.515.035-.395-.565-.84-.6-.089.93.925.755 1.08 1.44-.073.166-.462.018-.48.239.303.178.496.464.6.841-.018.222-.406.073-.48.239.034.566.491.71.6 1.2-.089.191-.587-.027-.48.36.958.206-.09.964.6 1.319h-.36c.579 1.113-.115 1.408.48 2.4-.112.128-.443.037-.36.36.605.964.021 2.173.36 3.239-.232.209-.608.272-.84.48.392 1.438.794 2.116 0 3.359.163.834.165 1.183-.24 1.921.084.298.366 1.26-.24 1.199.683 1.117-.402 2.47.12 3.48-.339.099-.311-.169-.6-.12.155.348.912 1.023.24 1.44-.015-.306-.174-.466-.479-.48-.408 1.517 1.055 2.796.36 4.2-.435-.325-.486-1.034-1.08-1.2-.391 1.354 1.11 1.116 1.2 2.521-.289.049-.261-.22-.6-.12.155.725.756 1.003.6 2.04-.229.225-.217-.071-.6 0-.077.477.152.647.36.84-.882.689.878 3.731-.24 5.04-.09.369.329.23.24.6-.151.062-.729.293-.36.48.209-.279.561.312.48.72-.349.023-.453.045-.6.48-.41.09-.152-.488-.6-.36-.012.935 1.685 1.297.96 2.16-.142-.226-.346-1.005-.72-.601.139.501.554.727.84 1.08.13.877-.298.881-.12 1.561-.177-.062-.302-.178-.48-.24-.092.572.428.532.36 1.08-.415-.095-.528.112-.6.359.282.238.615.426.48 1.08h-.6c1.154.913-.004 2.285.48 3.24-.39.188-.646-.62-.72 0 .047.513.707.412.72.96-.72.336-.099 1.297-.12 1.92-.339.1-.311-.169-.6-.12-.182.821.279 1.001.6 1.32-.219.395-.187 1.719-.84 2.04.11 1.028-.306 2.357-1.08 2.88-.374 1.967-2.096 3.568-3 5.4-1.533.547-2.066 2.094-3.96 2.279-.167.153-.052.588-.36.601-1.043.276-1.353 1.287-2.52 1.439-1.135 1.146-2.309 2.252-3.96 2.88-.716.938-2.209 2.372-3.72 3.36-.756.495-2.151 1.424-3 1.44-1.046.02-1.969-.758-1.92-1.681.059-1.094 1.649-1.284 1.68-2.399-2.923.557-4.587 2.373-7.32 3.12-.63-.37-1.471-.529-1.56-1.44-.457-.131-.749.317-.84-.12.775-1.265 2.319-1.761 2.64-3.479-1.657.863-3.431 1.609-4.68 2.88-1.16-.601-2.188-1.332-3-2.28.262-.298-.14-1.26.48-1.2.027.502-.195.567 0 .96.709-.931 1.634-1.646 2.04-2.88-1.36.399-2.01 1.511-3.6 1.681-.482-.531-.992-1.306-.96-2.04.023-.532.542-.927.84-1.561.47-.997.835-2.523 1.44-3.24.537-.636 1.497-.862 1.8-1.319.341-2.416 3.591-2.522 5.52-1.44.323-.312-.146-.362-.12-.72.339.099.311-.169.6-.12.408-1.952 2.574-2.146 3.48-3.6.566-.034.709-.491 1.2-.601.367.153.6.44 1.08.48-.025-.345.03-.609.24-.721.38-.02.401.319.84.24-.036-.279-.256-.517.12-.6.422.504 1.394.224 1.92.359-.036-.279-.256-.517.12-.6.393.007.458.342.96.24.281-.039.117-.523.36-.601.282.039.451.19.84.12.29-.288-.292-.317-.12-.84.699.18.429-.61.96-.6.059.377-.414.316-.12.6.825-.401 1.11-.612 2.04-.84.038-.479-.555-.325-.6-.72.232-.142.608.109.84-.24-.001-.439-.704-.176-.6-.72.267-.278.468.04.84 0-.079-.439.26-.461.24-.84-.322.17-.939.429-1.08-.12.79-.179.28-.806.12-1.32 1.084-.551.78-1.973.96-3.24.037-.276-.347-.133-.36-.36.287-1.637.188-3.9.6-5.279-.338.189-.509-.139-.84.12-.135.463.215 1.054 0 1.2-1.034-.634-.076-2.465-.12-3.601-.179-.021-.443.043-.48-.12.059-.379-.216-.424-.12-.84.299-.019.372.188.6.24v-1.32c-.297.018-.583.022-.6-.24.787-.939-.172-2.425.24-3.72-.12-.16-.324-.235-.36-.479.043-.276.525-.115.48-.48-.755-1.359-1.387-2.413-1.56-3.6.311.129.446.434.84.479-.081-1.224-.705-1.215-.6-2.52-.367-.087-.353.207-.72.12.147-.548-.421-.38-.48-.721.41-.109.813-.226 1.2-.359-.265-.016-.051-.51-.12-.721-.388.012-.256.544-.84.36.563-.676-.417-.836-.24-1.8-.893-.066-.995-1.014-.84-1.8-.217-.463-.785-.575-.84-1.2.642-.202.521.359.96.359-.212-1.159-2.091-1.117-1.56-2.64-.729.09-.331-.948-.72-1.2.289-.049.261.22.6.12.416-2.156-1.931-2.104-1.8-4.319.229.051.301.258.6.239-.225-1.216-1.37-1.51-1.56-2.76.229-.056.517.37.48-.12.084-.685-.807-.393-.96-.84.107-.213.487-.153.36-.6-.875-.52-.985-1.39-.84-2.4-.174-.065-.62.141-.6-.12-.302-2.196-.927-4.007-1.44-6.24-.047-.287.546.067.36-.359-.552-.517-.215-1.287-.36-2.04.209.009.374-.027.48-.12.04-.823-.236-1.256-.36-2.16-.214-.146-.698-.021-.84-.24.195-.325.155-.885.24-1.319-.154-.207-.718-.003-.72-.36.233-.166.368-.432.72-.48.113-1.535.734-2.247.36-3.72-.313.407-.552.889-.48 1.68-.257.144-.67.13-.84.36-.112.648-.019 1.501-.6 1.68-.14-.726.07-1.167.24-2.279-.439-.103-.643.553-.84 0 .014-.427.444-.437.36-.96-.175-.066-.621.14-.6-.12.157-.684.717-.963.6-1.92-.379-.06-.424.216-.84.12-.109.21-.041.599-.24.72-.605-.271-.469-1.012-.12-1.44-.352-.178-.446.136-.6-.24.15-.658-.336-1.074-.36-1.68-.045-1.135.822-2.41 0-3.24-.647.253.073 1.127-.6 1.32-.326-.972.818-2.171 0-3 .994-.035.555-.788.84-1.56-1.548-.288-1.122 1.835-1.2 2.64-.598-.03-.254-.816-.36-1.56-.663.143-.612-.429-.6-.96-.377-.061-.49.282-.6-.12-.005-.445.45-.431.6-.721-.186-.851.052-1.6-.36-2.04-.625.321.284 1.441-.36 1.681-.264-.136-.008-.792-.36-.84-.121.21-.208.644-.48.359.027-.948.252-1.078.12-2.04.162-.037.229-.171.48-.12.026-.785.094-1.614-.72-1.56-.258.787.053 1.669-.48 2.52-.265-.015-.051-.509-.12-.72-.297.018-.582.022-.6-.24-.307-1.321.476-3.777-.84-4.56.207 1.448.433 2.866 0 3.84-.816-.843.651-2.752-.72-3.96-.448.642.299 2.112-.36 2.4-.559-.938-.546-1.82-.6-3.12-1.729.05-1.851-1.854-1.8-3.84-.298-.156-.498.352-.6 0-.071-.729-.308-1.276-.72-1.92-.356.864.166 1.813.24 2.64-.856-.257-.123 1.077-.84.96-.284-.276-.208-.912-.48-1.2.375.056.536-.104.48-.479-.706-.875-.782-1.925-.96-3.12-.383.097-.685.275-.84.6-.505-.615-.368-1.872-1.2-2.16-.539.456.308.994-.12 1.561-.392-.088-.091-.869-.6-.84-.212 1.202.869 2.708.84 3.72-.676-.924-1.236-1.964-1.44-3.36-1.182.726.562 2.079.72 3-.02.14-.189.131-.36.12-.12.372.639.466.24.72-1.014-.387-.886-1.914-2.16-2.04.281 1.52 1.283 2.317 1.8 3.601-.074-.035-.462-.299-.48 0 .146.18.566.501.12.6-.471-.089-.323-.797-.96-.72-.398.648.665.738.6 1.439-.816-.264-.861-1.299-1.68-1.56.115 1.405 1.443 2.235 1.44 3.36-.395-.045-.242-.639-.72-.601-.132.556-.665-.032-.72.601.846.074 1.201.639 1.44 1.319-.447-.072-.488-.551-.96-.6.012.87 1.166 1.231.72 2.16-.499-.221-.329-1.111-1.08-1.08.307 1.452 1.196 2.324 1.56 3.72-.319.001-.306.334-.48.48-.712-.368-.659-1.501-1.8-1.44.164 1.297 1.812 2.32 1.2 3.601-.274-.29-.331-1.425-.96-.961.178.103.258.303.24.601-1.005.292.461 1.497.24 2.04-.797-.123-.594-1.246-1.32-1.44-.219 1.563.715 3.173 0 4.44-.154-.525.12-1.48-.48-1.561.053.877-.061 2.771-.36 3.24.385.315-.516 1.499-.48 1.92-.59-.13-.575-.865-1.08-1.08-.131.531.203.597.24.96-.422.321-.762.062-.72.721-.346-.015-.208-.512-.6-.48-.266.174-.317.562-.36.96.498.115.605.706 1.2 1.2-.303.284-.557.602-1.2.24-.082.485-.32.661 0 1.2-.788-.014-.061.507-.12.84-.724.756-1.22 1.739-1.68 2.76-.212-.107-.351-.29-.6-.36.164.267.571 1.414-.12 1.44-.176-.264.014-.895-.36-.96-.228.252.036.996-.48.96-.012-.428-.056-.824-.36-.96-.017.343-.5.22-.84.24-.11.554.656 1.363 0 1.68-.371-.229.027-1.228-.6-1.2.014.826-.293 1.566.24 2.04.236-.132.637-.716.72 0-.752.008-.823.697-1.44.84-.2-.2.076-.876-.36-.84-.812 1.214-1.224 3.105-2.04 3.96-.447-.286.116-.529-.12-.84-.938.262-.279 2.121-1.08 2.52-.268-.292-.264-.856-.24-1.439-.61.492-.987 2.237-.48 2.76-.25.263-.388-.105-.6.12.045.372.409.466 0 .72-.473-.047.028-1.068-.72-.84-.625.382.417 1.284-.12 1.92-.379.06-.044-.596-.48-.479-.127.897-.079.871 0 1.319-.339.1-.311-.169-.6-.119-.096.416.179.461.12.84-1.15.177-.86 2.137-2.04 1.92.312.319-.107.927-.36 1.08-.438-.522-.316.123-.84.119-.188-.57-.096-1.424-.6-1.68-.071.461-.146 1.076-.36 1.68.542.098 1.203.078 1.2.721-.734.094-.761-.52-1.32-.601-.29.378.257.721.24 1.2-.547-.05-.508-.33-1.08-.12-.077.438.572.148.6.48-.43.05-.263.697-.72.72-.231-.049-.095-.465-.48-.359.021.636.078.611 0 1.199-.339.1-.311-.169-.6-.12-.337.503-.573 1.106-1.32 1.2v-1.08c-.605-.045-.21.91-.72.96-.18-.151-.214-.636-.479-.359-.012.796.062 1.353-.36 2.04-.449-.054-.62-.019-.96-.36-.031.551-.127.58 0 1.08-.601-.398-.066.319-.36.479-.312.072-.432-.048-.36-.359-.373-.013-.343.377-.84.24.243.851-.331 1.261-.96 1.56-.138-.142-.136-.424-.12-.72-.716.164-.744 1.017-.84 1.8-.793-.273-.416.624-1.08.479.108-.351.108-.368 0-.72.213-.027.601.121.48-.24-.612-.004-.588-.198-.96-.6-.396.43-.62 1.448-1.32 1.2.611 2.893-2.081 3.193-3.12 4.2-.28-.44-.366-1.074-.48-1.681-1.089.338.578 2.073-.48 2.4-.44-.256.137-1.677-.6-1.92-.148.947-.4 1.358-.24 2.399-.412-.05-.443.16-.6.601-.571-.153-.836.723-1.2.84-.018-.37-.298-.801-.36-1.44-.679.081-.285 1.235-.6 1.681-.289.049-.261-.22-.6-.12-.005.436.067.947-.24 1.08-.353-.048-.104-.696-.72-.48-.398.486.323.654.48.96-.388-.068-.604.037-.72.24-.166-.154-.119-.521-.12-.84-.491.197-.832.481-1.32.12.145.445.123 1.385-.24 1.68-.288.048.067-.547-.36-.36-.265.264.119.49 0 .961-.37.089-.23-.33-.6-.24-.29.189-.318.642-.48.96-.534-.266.153-1.753-.6-1.8-.48.199-.136 1.224-.24 1.8-.611-.091-.372.668-.84.72-.279-.48-.068-1.452-.84-1.439-.001.158-.21.109-.24.239.259.874.059 2.385-.84 3-.346-.054-.375-.425-.84-.359.086.646-.123.997-.36 1.319-.415-.098-.507.225-.72 0 .003-.483-.035-.926-.36-1.08-.174.187-.16.561-.36.721-.287.047.067-.547-.36-.36-.209.11-.265.375-.24.72.18.021.443-.043.48.12.011.571-.047 1.073-.6 1.08.218-.409.03-.623-.48-.6.073.264.301.894-.12.96-.313-.388.193-.891-.12-1.32-.502.498-.971 1.029-.96 2.04-.86.282-1.43.979-2.16.6-.185.336-.085.955-.72.841-.024-.376.081-.881-.12-1.08-1.361-.023-.01 1.184-.72 1.56-.454.174-.23-.329-.6-.24-.36.16-.29.751-.72.841-.457.176-.024-.537-.48-.36-.454.42-.797 1.198-1.68.84-.234.211-.48 1.033-.96.6.012-.388.544-.256.36-.84-1.326.098-1.6 2.313-3 1.561-.604.772-2.054 1.107-2.76.96-.166.073-.018.462-.24.479-1.298.245-2.45 1.2-3.84.96-1.284.926-4.259 1.485-6 1.92-2.23.558-4.718 1.939-6.36 1.681-.818-.129-2.015-1.412-2.04-2.28-.034-1.178 1.207-2.016 1.8-2.88-.178-.103-.258-.302-.24-.601-3.66.014-8.479-.703-12.24.24-2.079.521-3.822 1.42-5.88 1.561-1.181-.66-2.014-1.666-2.76-2.761-1.883.177-3.825.506-3.72-1.439.078-1.449 1.409-2.263 2.52-2.64-.456-.256-.665.13-1.2.119-.109-1.597 1.412-2.582 2.76-3.119 1.739-1.741 4.652-2.309 6.48-3.961 1.606-.523 3.182.097 4.08.961 1.373-2.129 4.779-.576 6.24.359v.48c.827-.107 1.246.193 1.8.359.113-.487-.696-.369-.36-.72.958.121 1.661.499 2.4.84.021-.18-.043-.442.12-.479.227.133.42.299.72.359.06-.726.543.035.96 0 .115-.224-.359-.4 0-.479 1.577.548 3.05.526 4.68 1.08-.247-.633-1.479-.282-1.68-.96.602-.15 1.481.213 2.16.359-.034-.313.044-.516.36-.479.145.175.524.115.36.6.701-.198 1.494.44 1.8-.12-.424-.176-1.123-.077-1.44-.359.374-.603 1.075.191 1.8 0-.024-.535-.875-.245-.96-.721 1.893.488 2.919-1.204 5.16-1.08.167-.073.018-.462.24-.479 2.046.046 2.307-1.692 4.08-1.92.044-.517.471-.649.84-.84-.151-.05-.246-.155-.24-.36 1.382-.218 1.523-1.678 2.88-1.92.167-.193.102-.619.36-.72.346-.22.375-.195.84-.12.025-1.094 1.292-1.179 1.32-1.92.529-.191 1.001-.439 1.56-.601.056-.424.213-.746.48-.96.498-.137.468.253.84.24.436-.564.768-1.232 1.32-1.68-.811-.137.409-.555-.24-.96 1.303-.538 2.12-1.56 3.12-2.4-.155-.434-.497.065-.6-.36.632-.488 1.003-1.236 1.8-1.56-.058-.659.318-1.45 1.08-1.2.077-.841.704-.602 1.32-.72.09-.41-.487-.152-.36-.601.222-.406.849-.676.48-1.319.269.271.601-.008.84-.12.083-.303.113-.536 0-.96.139-.101.322-.158.6-.12.018-.354-.349-.847.12-.96.188.052.103.378.48.24.217-.433-.021-.354-.12-.72h.48c-.405-.698 1.1-.912.84-1.44-.261.146-.77.662-.96.479.096-.744.489-1.19 1.2-1.319-.646-.317.42-.478.6-.72.416-.562.405-1.83.12-2.041.45-.51.974-.945 1.32-1.56-.156-.4.49-1.419 1.08-1.8-.363-.146.303-1.164.84-.84.008-.352.043-.677.48-.601-.246-.439-.868-1.342.12-1.439.071.383-.226.371 0 .6 1.58-1.34 1.25-4.59 3.84-4.92-.427.027-.627-.173-.6-.6.616-.097.5.539 1.2.359-.208-.469-.938-.368-.6-1.08.416-.096.461.179.84.12.027-.093.003-.236.12-.24.357-.345-.3-.208-.24-.6.109-.211.269-.371.48-.479.098.302.632.167.84.359a2.9 2.9 0 0 0 .48-.479c.354.345.985.079 1.32-.24-.343-.828-1.766.523-2.16-.48.565-.007.547-.782 1.2-.359-.425-.454.16-1.306.84-.96.088-.327-.238-.242-.24-.48.839-.546 1.413-.04 2.52-.359-.029-.491-.408-.633-.48-1.08.16-.121.446-.114.48-.36-.262.021-.382-.098-.36-.36.139-.101.322-.158.6-.12-.065-.332-.389-.339 0-.6.146.591.607 1.114.96 1.8.868-.132 1.471-.528 2.16-.84-.477-.207-1.874.015-2.4-.479.258-.582.787-.894 1.68-.84.333-.18-.208-.491.12-.601.861-.14 1.682-.318 2.04-.96-.638-.43-.77.122-1.56.12-.017-.573-.675-1.147.24-.72-.217-.765.603-.624.24-1.2.35-.091.595-.285.84-.48-.084-.369-.084-.23 0-.6-.777-.276.209-.902-.48-1.2.083-.237.32-.32.6-.359.085-.59-.55-.457-.24-.961.381.181.977.181.96-.359-.466.025-.752-.127-.84-.48.224-.234.439-.037.72 0-.376-.846 1.046-1.674 1.2-2.76-.754.285-1.1.98-1.44 1.68-.686-.417.024-1.329-.48-1.68.851-1.469 1.758-2.882 2.76-4.2-.688.014-.334-.234-.24-.6-.544.225-.164-.477-.6-.36-.41.27-.499.861-1.08.96-.283-.037-.223-.417-.6-.359-.164.237-.404.76-.72.479.391-.769 1.088-1.231 1.44-2.04-.753-.189-1.08.676-1.68.24.229-.571.922-.679 1.32-1.08.021.18-.043.442.12.479.403-.156.717-.402 1.32-.359-.35-.551.299-.497.24-1.08-.599.004-1.006.83-1.32.72.134-.186.39-.25.36-.6-.473-.067-.929.503-1.32.12.251-.229.573-.388.96-.48.458-1.453 1.892-3.513 2.04-5.279-.981.378-.709 2.011-1.68 2.399-.049-.289.219-.261.12-.6-.676.166-1.152 1.165-1.56 1.2.677-.992.34-1.576 1.2-1.921.292-1.72 2.501-3.169 2.76-4.92-.386.621-1.277.735-1.8.601-.059.847-.562 1.475-1.44 1.8.196-.722.601-.704.36-1.68.605-.053 1.679-1.494 1.2-2.28-.388.132-.375.665-.84.72-.293-.507.26-.633.48-.96-.001-.442-1.005-.737-.36-1.08.282.038.071.569.48.48.287-.754.608-1.472.96-2.16-.757.202-.845 1.074-1.68 1.2-.178-.142-.536-.104-.479-.48.332-.056 1.136.037 1.2-.6-.639.295-.639-.184-.36-.601-.502-.102-.475.325-.72.48-.157-1.21.349-2.762 1.08-3.48-1.073-.504.493-1.842 0-2.28-.492.031-.487 1.591-1.32 1.68.132-.842.75-2.2 1.56-2.76-.009-.391-.153-.647-.479-.72-.484.036-.212.828-.72.84-.126-1.166.405-1.675.48-2.64-.712.098-.203-.76-.24-1.08-.179-.021-.442.042-.479-.12.201-1.362-.556-1.764-1.2-2.28-.053.227.163.723-.24.6.087-.367-.207-.353-.12-.72-.817.177-.792-.487-1.439-.48.013.533-.318.722-.6.96-.366-.434-1.031-.57-1.2-1.2-.273.058-.613.238-.84 0 .14.525-.033.617.12 1.08-.85.261-1.665-.366-2.16-.84.022-.178.29-.11.48-.12-.059-.661-1.004-.436-1.08-1.08.022-.178.29-.11.48-.12-.266-.654-1.236-.604-1.92-.84.084.636.789.651.84 1.32-.934-.198-1.546-1.958-2.52-1.32a9.76 9.76 0 0 0 2.64 2.28c-1.895.328-2.087-2.067-3.6-2.52.197 1.043 1.119 1.361 1.44 2.28-.503.31-.371-.325-.96-.24.098.502.482.718.84.96-1.271-.036-1.742-1.447-3-1.68-.027.749 1.06 1.016.72 1.68-.979-.662-1.539-1.742-2.4-2.521-.201.901.665 1.721.96 2.521-1.185.401-1.241-.661-2.04-.96-.049.29.219.261.12.6-1.673 1.1-1.819-1.951-3-2.76-.028 1.229 1.076 1.962 1.08 2.76-.431-.169-.797-.403-.84-.96-.48.396-.78.772-1.44.6.504-.557-.284-1.434-.84-1.68-.074.467.514 1.024 0 1.2-.716-.484-.755-1.645-1.32-2.28-.436.109.25.678-.12.72-.518.157-.149-.571-.6-.48-.267.389-.123.628-.36.96-.109-.211-.442-.198-.48-.48.738-.769.058-1.561.36-2.4-.438.006-1.22.522-1.44 0 .023-.577.951-.249 1.08-.72-.686-.449-1.941.669-2.52-.36-3.966 2.449-12.488 2.279-14.16-2.16v-.72c-2.944-.71-4.144-4.418-3.48-7.32-.322-.311-.371-.711-.24-1.2-.547.133-.732.628-1.08.96-.237-.203-.353-.527-.72-.6-.289.111.073.873-.48.72-.542-1.106-.101-2.732-1.08-3-.028-.958.474-1.652.84-2.52-.55-.141-.548-.501-1.08-.12-.14-1.339.614-1.786 1.2-2.4-1.133-.96-.17-2.515 0-3.36-.563-.204-.156.564-.72.36-.093-.646.602-1.15-.12-1.44-.872 1.047-1.709 2.13-2.04 3.72-.183-2.062.33-3.43 1.44-4.2.148-.388-.388-.091-.24-.479.278-.282.393-.727.96-.72.027.227-.135.265-.12.48.465-.294 1.202-.318 1.8-.48-.226-.214-.555-.325-.72-.6.297-.936-.378-1.401-.36-2.16.033-1.392 1.664-2.33 1.2-4.32.293-.067.256-.464.72-.36v.48c.644-.104.528-1.173 1.2-.6.039-1.376 1.621-2.251.84-3.36-1.431-.353-2.429.284-3.72-.24-.462.183-1.479.64-1.56-.12.852-.269 2.012-.229 2.64-.72-.848-.409-2.787-.541-3.48-.36v-.84c.462-.298 1.511-.009 1.68-.6-.521.042-.87-.09-.96-.479.856-.14 1.255 1.058 1.92.36-.267-.373-.792-.488-1.32-.6.158-.431-.008-.439.12-.84-.42-.02-.768.032-.96.24.146-.037.414.347.12.36-.672-.569-2.116.135-2.64-.72 1.082.001 2.181.021 2.76-.48-2.363-.706-6.274-.129-8.4-.72 1.689-.637 4.811-.131 7.32 0-1.785-1.658-4.773-.246-7.2-1.08.442-.277 1.398-.042 2.04-.12-.087-.713-1.47-.13-1.56-.84 2.668.314 5.183 1.289 7.8.96-.167-.712-1.48-.28-2.04-.6.203-.378.558-.149.96-.12-1.158-1.428-4.754-.555-6.36-1.2.97-.351 2.753.113 3.72-.24-1.021-.699-2.737-.704-3.48-1.68 1.993.191 3.519 1.912 5.28 1.56-1.026-.454-1.847-1.113-2.88-1.56-.047-.288.546.066.36-.36-.55-.29-1.366-.314-1.8-.72 2.031-.419 3.951 1.32 5.76 1.92-.435-1.005-1.646-1.233-2.16-2.16.938.023 1.255 1.303 2.04 1.08a10.184 10.184 0 0 1-.36-.36c.289-.049.261.219.6.12-.608-1.348-2.936-2.004-2.28-3.24.99.61 1.574 1.625 2.88 1.92-1.107-1.893-2.992-3.008-4.2-4.8 2.437 1.283 3.397 4.043 5.88 5.28.356.643.823 1.177 1.56 1.44.441-1.063-1.026-1.197-1.44-1.8.178-.022.11-.29.12-.48-1.174-1.306-3.14-2.459-3.6-4.08.979 1.021 1.799 2.201 3 3-.559-1.361-1.456-2.383-1.92-3.84 1.344.856 1.391 3.009 2.76 3.84-.046-.636-.763-1.233-.479-1.8.457.383.392 1.288 1.2 1.32-.526.731.474 1.676.96 2.16-.237-1.122-.319-2.443-1.08-3.72.586-.066.75.29.84.72.665.044.697.006 1.2.12-.277-2.388-1.282-3.358-1.56-5.64.346.015.208.512.6.48.412-.522-.669-1.521-.12-1.8.241.46.531.88.84.96-.034.252-.321-.174-.48.12.116.524.277 1.003.36 1.56.684-.104.173-.679.72-.84.112.672.137 1.344 1.08 1.68.083-1.042-.117-1.803-.12-2.76-.239-.292-.513.202-.6-.24.296-.184.114-.846.72-.72.508 1.488.245 2.992.36 4.44.609-.379.246.742.96.6-.061-.802-.286-2.209 0-3.24.526.396-.24 2.581 1.32 2.28-.209-1.39-.458-2.742-1.32-3.48-.035.209.383.644-.12.6-.19-.33-.208-.833-.36-1.2.297-.062.427-.292.6-.48 1.004 1.516 1.273 3.767 2.4 5.16.137-1.387-.969-3.145-.12-4.08.775.345.412 1.828 1.2 2.16.161-.527-.359-.992 0-1.32.389-.148.092.389.48.24-.113-1.238.047-2.896.96-3.72.34.499.786.894 1.44 1.08.154-.757-.66-1.176-.36-1.68.648.118.329.464.479 1.08.417-.096.461.179.84.12-.059-.661-.491-.949-.6-1.56.154-.206.248-.472.6-.48.226 1.054 1.182 1.378 1.92 1.92.923-.775 1.87-2.104 3.36-1.92 1.738-1.222 4.033-1.887 5.88-3 .37-.089.231.33.6.24 1.484-1.043 2.99-.512 4.68-1.08a.568.568 0 0 1-.12.36c.498.138.468-.252.84-.24.339.206-.044.472.36.48 2.166-.244 3.588-.158 5.16-.36-.036.444-.906.054-.84.6.924-.298 1.521.389 2.4.24.014.123-.518.243-.12.36.519-.164 1.584-.412 2.16-.12-.011.189-.306.094-.24.36 1.175-.119 3.549-.356 3.48.72 1.176.083 2.38.577 2.52 1.32 1.229.062 1.908 1.003 2.88.96-.013.933 1.142.698 1.32 1.44-.179.021-.443-.043-.48.12.457.303 1.116.404 1.44.84-.011.189-.306.094-.24.36 1.782.699 2.988 1.972 3.72 3.72-.666.234-.729-.531-1.08-.24-.206.624.64.918 1.32.72.476.235.891 1.067 1.56.72.397-.346-.487-.284-.12-.6.282.039.451.19.84.12.319-.202.373-1.247 0-1.44-.172.191.088.993-.6.96-.078-.545.437-1.135 0-1.32.983-.67 1.065.937 2.04.48-.128-.224-.644-.673-.12-.84.444.036.054.906.6.84.3-.1-.138-.938.36-.84.271.09.047.673.12.96.68 0 .086-1.274.6-1.44.217.223.021.86.36.96.23-.37.227-.973.6-1.2.036.106.241.61.36.24-.259-.152.43-.36.6-.48.159.121.446.114.48.36-.092.452.146.573.12.96 1.096.216.211-1.549.84-1.8.36.6.289 1.652.24 2.4.475-.155.245.395.72.24-.008-1.268.153-1.833 0-2.88.73.257.926-.299 1.56.12-.162-.562.563-.236.6-.6.22-.006.406.615.6.24 1.046-.969 2.041.722 1.44 2.28.414-.216.558-.072.479.48.804-.186.297-1.806.48-2.28.568.191.356 1.164.479 1.8.412-.116.775-.056 1.08 0-.001.319.045.685-.12.84.495-.312.55-.155.96.12.36-.28-.231-1.511.48-1.44.227.78-.417 1.857.12 2.16.356-.41-.048-.841.479-1.08.405.203-.363.835.24.84.744-.983 1.5-2.571 2.52-2.88-.719 1.121-1.774 1.906-2.28 3.24.598-.209 1.499-.824 1.2-1.2 1.679.158 2.151-1.528 3.24-1.56-.681.919-1.808 1.393-2.4 2.4.427-.038.627-.232.6.36.809-.271 1.401-.759 2.16-1.08.244.264.884.146 1.32.48.634-.191 1.018-1.051 1.8-.72.259-.243-.319-.958.48-.84-.263.353-.181.927 0 1.08.453.406.557-.558.96-.6.323.312-.147.362-.12.72.835-.365 1.506-.309 2.16-.96.099.339-.169.311-.12.6 1.043-.277 1.195-1.445 2.16-1.8.068.708-.563.717-.6 1.32.077.436.561-.278.6.12-.007.283-.678.509-.36.72 1.485-.28 2.106-2.714 3.24-2.4-.207.553-.815.705-1.08 1.2.875.796 1.095-1.018 1.8-.72-.252.471-1.004.799-.72 1.44.472-.048.512-.527.96-.6.014.146.036.284.24.24.586-.375.858-1.062 1.561-1.32.135.41.465-.038.6.24.081.521-.604.276-.48.84.842.095 1.083-.958 1.8-.6.094.494-.575.225-.48.72.543-.017.628-.492 1.2-.48.022.583-.7.419-.72.96.927.042 1.63-1.267 2.28-.72-.51.25-1.103.417-1.32.96.632-.128.943-.577 1.68-.6-.001.238-.327.152-.24.48.893.154 1.512-1.046 2.04-.48-.283.478-1.162.359-1.32.96.94-.332 1.561-.348 2.4-.12-.215.225-.736.144-.84.48.467.061.982-.45 1.2-.24.014.342-.876.394-.48.72.951-.161 1.888-1.508 2.76-.96-.229.051-.516.043-.48.36.79.007-.01.318 0 .6.993-.119 2.08-1.317 3.12-.6-.707.213-1.453.386-2.16.6.788 1.343 2.687-.208 3.6-.12-.163.437-.851.35-.96.84 1.259-.061 1.884-.756 3-.96-.355.965-1.957.683-2.28 1.68.794.112 1.214-.782 1.8-.48-.049.231-.465.095-.36.48 1.005-.061 2.093-.791 3.12-1.2 1.117.505 2.339-.564 3.48-.36-.775.345-1.344.897-1.68 1.68 1.097-.104 1.808-1.23 2.52-1.32-.124.716-.979.7-1.2 1.32 1.661-.54 3.254-1.786 5.16-1.68-.885.595-2.063.896-2.64 1.8 2.162-.088 3.481-2.265 5.28-1.92-.729.351-1.635.525-2.04 1.2.559-.197.531.071.96.24 1.021-.25 1.729-1.349 2.88-1.08.375-.427.963-1.274 1.56-1.08-.407.633-1.112.968-1.44 1.68 1.635-.885 3.881-1.159 5.4-2.16.447.611 1.559.113 2.04.36-.038.282-.569.071-.48.48.975.052 1.907-1.076 2.641-.48-.623.297-1.339.501-1.681 1.08 1.018.115 2.835-1.216 3.721-.84-.909.651-2.391.729-3.36 1.32 3.114.238 3.86-1.661 6.84-.96.167.074.019.462.24.48.546-.46.883.312 1.44.24.208-.398.092-1.204.84-.84-.276.252-.702.426-.24.84.434-.406 1.25-.43 1.8-.72a.447.447 0 0 1 0 .6c.546.062.978-.617 1.44-.24-.376.544-1.419.422-1.8.96 1.638-.104 2.812-.906 4.439-.36.187-.134.25-.39.601-.36.032.607 1.173.106 1.319.6-.93.19-1.926.313-2.399.96 1.131.082 1.69-.712 2.64-.6-.405.555-1.341.58-1.8 1.08 1.049.322 1.785-1.021 2.279-.12.461-.259.225-1.216.961-1.2.294.16-.217.362.119.48.195-.079 1.01-.513.841.12.466-.013.784-.61 1.079-.12-.438.401-1.198.481-1.68.84.763.414 1.565-.823 2.28-.12.29-.275 1.129-.99 1.56-.36a1.113 1.113 0 0 0-.72.48c.703.021 1.498-.498 2.04-.24-.275.485-1.177.343-1.439.84 1.04.039 2.039-.599 2.879-.36-.224.496-1.182.258-1.319.84 1.381.068 2.47-.697 3.96-.36-.432.329-1.448.072-1.68.6 1.235-.191 2.556-.205 3.359-.36-.113.687-1.268.332-1.56.84.834.038 2.737-.317 1.56.36h1.801c.209.245-.09.235.119.48.765.082 1.52-.478 2.16-.12.01.45-.85.03-.84.48 1.733.525 2.873-.779 4.32-.24-.595.206-1.394.207-1.681.72.608.008.994-.207 1.681-.12.22.14-.063.783.479.6-.014-.657.965-.951 1.561-.6-.173.308-.822.138-.841.6.878.348 2.158-.492 2.761 0-.033.247-.447.113-.48.36.627.346 1.608-.373 2.04.12-.268.292-1.109.011-1.2.48 1.076.07 2.754-.75 3.36 0-.313-.034-.516.044-.48.36.605.084 1.229-.535 1.92-.24-.519.601-1.747.492-2.279 1.08 1.406.046 2.558-.801 3.72-.6-.104.536-1.112.168-1.2.72.991.029 1.865-.693 2.641-.48.157.518-.571.149-.48.6.574.634 1.43-.044 1.92-.24-.004.285-.614.572-.24.84.371-.036.954-.478 1.2-.24-.097.423-.732.308-.72.84.869.067 1.63-.608 2.28-.36-.096.265-.564.156-.601.479.651.092.931-.19 1.561-.12.026.227-.136.265-.12.48.614.094.872-.168 1.44-.12.209.245-.09.235.119.48.355.018.848-.349.96.12.06.379-.595.044-.479.48.511.037 1.53-.67 1.68.12-.457.062-.775.265-1.08.48.68.368 1.734-.481 2.4-.12-.305.415-1.094.347-1.32.84 1.01.235 1.775-.869 2.4-.24-.336.304-1.082.198-1.2.72 1.167.228 2.144-.311 2.64-.36-.242.637-.918.842-1.8.84.906.565 3.148-.056 3.72-.24.384.017.397.403.721.48.006.486-.547.413-.84.6.359.079-.115.256 0 .48.093.027.236.003.239.12.548-.052.588-.612 1.32-.479.156.298-.353.498 0 .6.589-.121 1.205-.753 1.68-.6-.226.382.03.502-.12.96 1.094-.687 1.596-1.318 2.881-1.68-.11-.46-.263-1.897.239-2.4.274.205.044.916.12 1.32 1.088-1.045.229-3.206.48-3.96.526.233.031 1.489.72 1.56.291-1.309-.588-2.97-.601-3.96.6.161.298 1.222.961 1.32-.112-1.708-.796-2.709-1.08-3.96.369-.089.23.33.6.24-.103-.458-.356-.763-.48-1.2.314-.14.517.37.48-.12-.133-.507-.382-.898-.48-1.44h.48c-.417-.969.124-1.616-1.2-1.8.146-.463.56.087.601-.48-.396-.483-.871-.89-1.2-1.44-.036-.316.466-.095.36-.48-.519-.456-1.321-.946-.961-1.92-1.101-.379-1.38-1.58-2.039-2.4.663-.144.418.622.959.6-.533-1.547-2.526-1.633-2.64-3.6-.395-.125-.703-.337-.84-.72.506.149.86.156.96-.36-.609-.66-.792.256-1.32-.24-.035-.315.466-.095.36-.48-.191-.331-.825-.742-.96-.12.396-1.073-1.248-.829-1.561-1.56.079-.359.257.115.48 0-.362-.573-.307-1.204-1.32-.72-.153-.529.574-.492.24-.84-.434-.242-.581.012-.96.12.033-.593-.54-.58-.84-.84.067-.245.361-.235.12-.48-.797-.352-1.518-.636-1.561-1.44-1.043-.335-1.172-.946-1.92-1.44.018-.142.214-.272 0-.36-.256.248-.948-.085-.96-.48-.035-.321.466.319.36-.24-.062-.178-.178-.303-.24-.48-.438-.079-.46.26-.84.24-.173-.187-.483-.237-.36-.72-1.167-.033-1.309-1.091-2.159-1.44.229-.429-.034-.762-.48-.84-.239.173.188.483-.48.36-.026-.358.443-.408.12-.72-.497-.138-.468.252-.84.24-.433-1.967-3.459-1.341-3.84-3.36h.479c.059-.458-.424-.375-.6-.6-.562-.067-.485.957-.96.6-.079-.439.26-.46.24-.84-.478.037-.603-.277-1.08-.24-.076.262.34.382-.12.36.084-.896-1.731-.682-2.28-1.32.291-.069.268-.453.36-.72-.662-.142-.833.207-1.32.24.163-.723-.753-.366-1.08-.6.217-.656-.357-.522-.479-.84.159-.121.446-.114.479-.36-1.309-.051-2.602-.119-3.479-.6-.123-.483.187-.533.36-.72-1.193-.646-3.626-.054-4.32-1.2.511.009.839.201 1.439.12-.979-.368-2.272-.969-3.479-.72-.192-.847-1.354-.726-1.92-1.2-.247.033-.028.531-.36.48-.051-.564-.449-.338-.6-.96-.896.016-1.77.01-1.92-.72-.77.008-1.587.067-1.801-.48.39-.07.559.082.841.12-.146-.504.193-.526.239-.84-.592.19-.813-.351-1.08-.12-.292.121.235.531-.359.48-.261.021-.055-.425-.12-.6-1.634.194-2.272-.607-3.6-.72.183-.257.487-.392.479-.84-.362.317-.824.536-1.439.6-.492-1.423-1.878-.562-2.881-1.561.05-.47.771-.269.841-.72-1.104.074-2.298.061-3.48-.12-.101-.139-.158-.322-.12-.6-.403.071-.808-.043-.479-.36-1.238.027-2.062-.728-3.24-1.08.471-.129 1.478.278 1.56-.24-.346-.272-1.157.277-1.319-.36-.168.438-1.708.788-1.08 0-.635-.162-1.387.453-1.681-.12.515-.286 1.59-.011 1.681-.72-1.433.142-2.903.564-4.44.24.087-.367-.207-.353-.12-.72.679-.322 1.717-.284 2.16-.84-1.238.526-2.176-.118-3.36.36.25.143-.055.735-.479.6-.031-.352.271-.369.24-.72-.961-.01-1.994.391-2.4-.36-.614-.214-.481.318-.84.36-.15-.53-1.36.001-1.68-.36.943-.934 3.245.151 4.199-.84-3.362.194-6.32.307-9.24 0 .325-.22.021-.406.24-.6.312-.288 1.207.007 1.32-.48-1.783.097-3.766.751-5.04.36.011-.189.306-.094.24-.36-1.68.46-3.189.083-4.68.36-.301-.211-.084-.198-.24-.48-.432.068-1.208.302-1.44-.12.955-.245 2.229-.171 3-.6-.603-.186-1.247.395-1.439-.12.137-.263.918.119.72-.48-.6-.118-1.61.388-2.4.48-.304-.346-.125-.208 0-.6-1.392.168-2.381.739-3.84.84.007-.153.154-.166.12-.36-1.181-.06-2.165.714-3.24.36.139-.177.139-.302 0-.48.361-.278 1.018-.262 1.08-.84-.587-.027-.796.324-1.32.36-.027-.227.135-.265.12-.48-1.106.454-2.295 1.464-3.72 1.2-.07-.431.717-.003.6-.48-.947-.224-1.429.836-2.4.48.177-.586 1.582-.575 1.32-1.2-1.604.237-2.897 1.422-4.56 1.2.08-.52 1.055-.146 1.08-.72-1.034.127-2.178.78-3 .72.168-.792 1.507-.414 1.92-.96-1.298.182-2.462.498-3.6.84-.14-.02-.13-.189-.12-.36-.897.262-1.813.506-2.64.84-.258-.102-.424-.295-.36-.72.671-.168 1.469-.211 1.68-.84-1.836-.107-2.648 2.499-4.08 1.32 1.087-.513 2.264-.937 3.12-1.68-2.039.281-3.275 1.365-4.8 2.16-.443-.567.488-1.184.36-1.68-.862.217-1.639.521-2.16 1.08-.049-.471-.675-.365-1.2-.36.145-.506-.498-.104-.48-.72-1.197.403-1.826 1.374-3.48 1.32v-.36c-.82.18-1.557.443-1.92 1.08.379.011.716-.321.72.24-2.096.02-3.817.945-5.52-.12-.376.144-.232.808-.84.72-.198-.187.041-.468.12-.72-1.976-.524-3.515 1.219-5.64 1.32-.334-.178.254-.536-.24-.48-.406.023-1.183.802-1.32 0-.829.171-1.299.7-2.04.96-.222-.956 1.455-.907 1.68-1.8-.519 0-.762.278-1.32.24-.325.22-.021.406-.24.6-.677-.63-1.645.824-2.4.48.472-.768 1.644-.835 1.92-1.8-1.691.749-3.168 1.711-4.56 2.76-.239-1.252 1.662-1.369 2.04-2.4-.292.077-.617.242-.6-.24-1.09.472-2.652 1.979-3.84 1.2-.329.426.01 1.317-.96 1.32-.103-.217-.309-.331-.36-.6.377-.502 1.044-.715 1.32-1.32-.49-.469-.956.15-1.44.36-.181 1.06-1.63 1.889-2.76 2.4-.087-.328.239-.242.24-.48-.402-.113-.756.431-.96.12.352-.087.428-.452.6-.72-.637.323-1.473.447-1.8 1.08.273-.034.451.029.48.24-.509.25-2.143 1.052-2.28-.12.422-.698 1.224-1.017 1.68-1.68-1.773.75-3.27 2.406-5.16 2.64.161-.519 1.028-.332 1.08-.96-1.15-.601-2.166 1.459-3.36 1.2.105-.538 1.275-.641 1.08-1.08-1.739-.17-3.595 2.02-4.92 2.64.61-1.23 1.935-1.745 2.76-2.76-1.659.426-2.479 2.315-3.84 2.64.509-.771 1.381-1.179 1.8-2.04-1.361.904-2.877 1.823-3.84 3-.278.341-.164 1.022-.84.96-.14-.02-.13-.189-.12-.36-.753-.033-.633.807-1.2.96.243-1.277 1.313-1.727 1.68-2.88-1.608.752-1.972 2.748-3.12 3.96-.229-.051-.217-.343-.6-.24-.108.572-.398.962-.96 1.08.613-1.626 1.647-2.833 2.52-4.2-.908.012-.832 1.007-1.56 1.2-.742 1.019-.938 2.582-1.92 3.36.126-.954.706-1.454.84-2.4-1.114-.041-1.366 1.73-2.28 2.28-.512-.008-.646-.394-1.08-.48-.591.409-.395 1.604-1.2 1.8-.101-1.352 1.267-2.479.84-3.36-.558.482-.542 1.538-1.44 1.68.272.756-.382 1.397-.72 1.92-.216-.898.681-1.718.84-2.64-1.435.405-1.408 2.272-2.64 2.88-.193-.701.765-1.215.96-1.92-1.037.083-1.035 1.205-1.68 1.68-.389.148-.092-.389-.48-.24-.206.194-.046.754-.48.72-.428-.102-.014-.295-.12-.72-.614.227-.477 1.204-1.08 1.44-.329-.52-.592.182-.96-.12-.122-.687.5-1.119.12-1.68-.983.411-.955 2.549-1.8 2.4.228.04-.353-.252 0-.48-.946.611-.354 2.229-1.92 2.04.371-.549.719-1.121 1.08-1.68-.503.044-.086-.391-.12-.6-1.219.507-1.108 2.963-2.28 3.12.352-1.415 1.452-2.7 1.68-3.84-1.696.508-1.979 3.055-3.24 3.6.272-.728.842-1.158.96-2.04-1.331.589-1.246 2.594-2.4 3.36-.104-.583.343-.616.24-1.2-1.149.61-.801 2.718-1.92 3.36-.178-.022-.11-.29-.12-.48-.508-.028-.211.749-.72.72-.521-.327.104-.514 0-1.08-.224-.114-.401.359-.48 0 .014-.465.838-1.267.24-1.56-.645.755-.613 2.187-1.44 2.76-.019-1.516 1.204-2.713 1.44-4.08-1.027.413-1.205 1.675-1.92 2.4-.289.049-.261-.219-.6-.12-1.364 1.423-1.919 4.512-3.48 5.28.576-1.304 1.228-2.532 1.68-3.96-1.903 1.137-1.813 4.267-3.6 5.52-.099-.339.169-.311.12-.6-.697.059-.964.929-1.08 1.2-1.118.042-.889 1.431-2.04 1.44.443-1.277 1.969-2.111 1.68-3.72-1.255 2.145-2.865 4.575-4.56 5.88.688-1.513 2.021-2.38 2.52-4.08-2.174 2.386-3.862 5.258-6.48 7.2.112-.448.569-.55.6-1.08-1.93.241-2.229 3.355-4.08 2.88.401-.359.806-.714.96-1.32-1.107.093-.784 1.617-1.92 1.68-.099-.339.169-.311.12-.6-.671.284-1.128-.396-1.44-.84-.435.085-.514.526-1.2.36-.122-.398-.013-1.027-.48-1.08-.453.107-.28.841-.96.72-.026-.227.136-.265.12-.48-.499.314-1.193.122-1.56-.24.123-.276.413-.387.36-.84-.568-.087-.391.57-.84.6-.295-.305-.934-.266-1.08-.72.386-.614.973-1.027.96-2.04-.84.201-.751 1.329-1.56 1.56-.216-.303.024-.953.12-1.32-.544-.104-.281.599-.72.6-.617-.705.396-1.515.36-2.4-.072-.126-.615.13-.6-.36.098-.622.503-.936.6-1.56-.224-.115-.401.359-.48 0 .126-.65.222-.519 0-1.08.167-.353.586-.454.6-.96-.372-.12-.466.639-.72.24.027-.493.529-.511.479-1.08-.352-.033-.445.481-.6 0 .13-.59.729-.71.72-1.44-.483-.083-.294.505-.72.48-.247-.755.719-1.261.84-2.04-.214-.072-.499.352-.6 0 .37-.67 1.104-.976 1.32-1.8-.522-.171-.552.41-.84.12.43-.851 1.09-1.47 1.8-2.04.036-.236-.162-.238-.24-.36.803-.797 1.292-1.907 2.64-2.16.117-.582-.671.046-.6-.24.663-.977 2.019-1.261 2.64-2.28-.425-.136-.683.504-.96.12.457-.623 1.138-1.021 1.92-1.32.105-.386-.396-.165-.36-.48 1.199-.961 2.82-1.5 4.08-2.4-.502-.477-1.254.374-2.04.36.276-1.124 2.172-.628 2.4-1.8-.085-.305-.685.29-.72-.24 1.015-.785 2.89-.71 3.84-1.56-.791-.052-1.91.649-2.4.12.948-.612 2.88-.24 3.6-1.08-.842-.268-1.685.175-2.04-.12 1.283-1.08 4.632-.312 5.88-1.08-1.229.048-3.083.38-3.84-.36.947-.493 2.868-.012 3.36-.96-.46-.365-1.18.214-1.56-.12.321-.433.903-.712 1.56-.48.429-.372.792-.808 1.56-.84-.32-.469.19-.591 0-1.08.598-.042.95-.33 1.68-.24-.365-.883 1.549-.314 1.8-.96-.088-.191-.587.027-.48-.36.708-.155 2.235-.144 2.88-.72-.611-.132-1.109.285-1.32-.12 1.522-1.018 4.627-.704 6.72-.72.456-.003 1.006.111 1.2-.36-1.278-.202-2.951-.008-3.96-.48 1.291.01 2.431-.768 3.48-.6-.002.198-.333.067-.36.24 1.509-.091 2.731-.469 4.44-.36-.116-.644-1.395-.125-1.68-.6.532-.628 2.312-.008 2.88-.6-.542-.098-1.511.231-1.68-.24 1.332-.354 3.701.522 4.8 0-.56-.56-2.193-.047-2.64-.72.401-.719 1.812-.427 2.76-.6.159-.3-.475-.375-.12-.48.251-.236.797-.092 1.08 0 .115-.224-.359-.401 0-.48.789-.205 1.784.359 2.76.36-.141-.699-1.249-.432-1.56-.96 1.345-.688 3.65.707 5.16.12-.633-.488-1.697-.543-2.521-.84.173-.428 1.441-.264 1.8-.12.115-.224-.359-.401 0-.48.958.282 2.248.232 3.12.6.038-.442.901-.059 1.08-.36-.578-.142-1.494.055-1.56-.6.337.183.926.114 1.32.24.02-.74-1.429-.011-1.56-.6 1.693-.134 2.598.635 3.6.36-.18-.141-.491-.149-.6-.36.612-.4-.478-.418-.12-.84 1.341.143 2.591-.217 3.72.24.099-.459-.579-.142-.48-.6.805-.004 1.292.308 2.04.36.029-.862 1.516-.169 2.16 0-.233-.688-1.38-.46-1.68-1.08.934-.201 1.91.452 3 .48.058-.538-.823-.137-.72-.72 1.414.025 2.557-.103 3.84.48-.071-.689-1.198-.323-1.32-.96 2.237-.446 4.418.913 6.36 1.2-.746-.814-2.338-.782-3.12-1.56.827-.319 1.58.4 2.4.48-.024-.535-.833-.287-.96-.72 1.063-.441 1.736.487 2.64.6-.333-.4-.359-.516 0-.96.74-.1.936.344 1.56.36 1.14-1.052 2.6.525 3.96.6-.195-.605-1.11-.49-1.32-1.08.307-.055.607.004.84-.36-.133.377-.056.317.12.6.363-.117.643-.317 1.08-.36.434.166.672.528 1.2.6.315-.196-.704-.469-.24-.84.562.368 2.436.263 1.8 1.08.762-.364 1.023.368 1.56.12-.212-.828-1.508-.572-1.68-1.44.699-.059.812.468 1.32.6.12-.372-.639-.466-.24-.72.42.406.819.121 1.32 0 .507.333.75.93 1.44 1.08.019-.141-.021-.341.12-.36-.09-.51-.839-.361-.72-1.08 1.26.34 1.787 1.413 3.12 1.68-.332-.708-1.162-.917-1.8-1.32v-.48h.72c.027.227-.135.265-.12.48 1.174.732 2.341 1.08 3.48 1.08-.216-.344-.717-.403-.84-.84.522.038.759.361 1.2.48.001-.601-.771-.429-.84-.96 1.815.187 2.9.983 4.8 1.32-.616-.664-1.552-1.008-2.16-1.68.357-.107.292-.333.36-.48.575-.054.91.13 1.08.48-.067.245-.361.235-.12.48.32.439 1.222.297 1.68.6.127-.447-.45-.19-.36-.6.18-.021.443.042.48-.12-.472-.249-.167-.774-.72-1.08.447-.099 1.278-.449 1.56 0-.033.247-.447.113-.48.36a2.82 2.82 0 0 0 2.04.24c-.208-.312-.99-.05-.96-.6.679.081 1.354.166 1.32.96.699.063 1.647.509 2.16.36-.659-.5-1.375-.945-2.16-1.32.108-.212.268-.372.479-.48.498.343.785.896 1.561.96-.225-.997.709-.234.72-.84.307-.129.42.517.6.12-.096-.013-.364-.396-.12-.36 1.312.368 1.728 1.632 3.24 1.8-.23-.729-.735-1.185-1.08-1.8.949-.613 1.877.39 2.28-.24.506.479 1.16.173 1.8.6.012-.188-.016-.416.24-.36.917.47 1.502 1.822 2.76 1.56-.252-.788-1.107-.973-1.439-1.68.734-.15 1.169.973 1.92 1.2-.104-.496-.496-.704-.6-1.2.776-.018 1.148.073 1.92.36-.021-.3.269-.291.36-.479.928.712 1.868 2.051 3.24 1.92-.336-.512-1.416-1.399-.96-1.92.463.497.582 1.337 1.44 1.44-.187-.378-.422-1.197-.24-1.56.622.218.693.986 1.08 1.44.356-.346.674.86 1.2.36-.203-.73-1.092-1.234-1.08-1.8.85.549 1.558 1.242 2.52 1.68-.04-.597-.676-1.041-.12-1.56.389.158.204 1.112.96 1.2.436-.077-.278-.561.12-.6.388-.148.092.389.48.24.1-.313-.363-.658 0-.84.35.93 1.178 1.382 1.92 1.92.1-.517-.427-1.215.12-1.44.062.764.769.197 1.2.48.024-.417-.042-.923.36-.96.032.608.295.984.84 1.08.002-.369-.646-.704-.24-1.08.559.241.702.898 1.32 1.08.24-.16.016-.784.6-.6.115.515-.337.464-.36.84.518.002.442.598.96.6.289-.489-.547-1.206-.24-1.68.858.222.848 1.312 1.8 1.44.017-.383.444-.356.48-.72-.211-.309-.476-.564-.72-.84.994-.177 1.291 1.336 2.4 1.44-.021-.46.098-.043.36-.12.206-.039-.11-.372.24-.48.467.133.443.756.96.84.091-.188.381-.179.36-.48.114-.318-.715-.722-.84-1.2 1.483-.323.875 1.445 2.04 1.44.646-.234.661-1.099 1.32-1.32-.63.851-.114 1.496-.96 1.92.367.113.376.584.84.6.622-1.029 1.473 1.029 2.64.6-.391-.765-.938-1.95-.36-2.76.107.493.374.826.36 1.44.896.189.454 1.611 1.44 1.8.012-.188-.016-.416.24-.36-.307-.292-.238-1.042.24-1.2-.317-.603-1.082-.758-1.2-1.56.153-.006.166-.154.36-.12.339.381.379 1.061.96 1.2.341.051.325-.862.72-.36.098.458-.579.141-.48.6.454.25.565.376 1.2.24.072-.214-.352-.499 0-.6.405.508.536.178 1.2.12.11.597-.378.511-.12.96.47-.018.479-.409.96-.12-.062-.542-.949-.887-.6-1.44.854.746 1.407 1.793 2.52 2.28-.203-.716-.499-1.34-1.2-1.56-.013-.299-.225-.372 0-.6.436.317.948.667 1.68.36 1.054.986 1.866 2.214 3.36 2.76-.187-.427.407-.073.36-.36-.176-.104-.465-.095-.36-.48 1.163.232.912.655 2.04 1.08.216-.184.359-.44.479-.72.343.107.877-.231 1.2.36-.232.43.046.439.12.84.519-.16.798.008.84.6.413-.19.61-.332.84.12.137-.304.61-.271.84-.48.282.399.424.314.841.12.29.234.55 1.125.96.84-.141-.423.302-.702.12-1.08.893.15 1.082 1.36 2.159.96.062.178.178.302.24.48.416.096.461-.179.84-.12.06.377-.413.317-.12.6 1.066-.406 1.123 1.074 2.28.96-.024-.499-.894-.781-.6-1.2.881.519 1.246 1.554 2.399 1.8-.061-.539-.679-.521-.6-1.2.497-.017.428.532 1.08.36-.237.616.513 1.47 1.2 1.2-.103.383.104.456.239.6.211.049.817-.122 1.08-.12-.278-.481-.884-.636-1.08-1.2 1.915.405 2.714 1.926 4.2 2.76-.187-.426.408-.072.36-.36-.183-.298-.472-.489-.48-.96 1.313.207 1.521 1.52 2.761 1.8.084-.374-.671-.516-.24-.84.72.16.789.971 1.56 1.08.13-.307-.517-.42-.12-.6.852.639 1.883.414 2.521 1.32-.033-.273.029-.451.24-.48.523.412.916 1.063 1.439.84-.107.351-.107.369 0 .72.289.091.581.095.84-.12-.208-.109-.31-.42-.119-.6 1.258.542 2.297 1.302 3.6 1.8-.243.231-.279.483-.12.84h.72c.032-.357-.336-.73.12-.84.388.253.687.594 1.08.84.677-.567 1.41.933 2.16.72-.648.517.353 1.061.6 1.44.557-.383-.144-1.082 0-1.32.909.051.857 1.063 1.44 1.44.451.051.425-.375.72-.48.454.226.728.632 1.08.96.307.093.552-.47.72-.12-.074.325-.501.299-.479.72.396.243.768.512 1.319.6.4-.362-.479-.898-.239-1.08.887-.167.526.914 1.08 1.08.006-.185.247-.345.6-.48.491.349.958.722 1.2 1.32.473.192.042-.519.359-.48 1.05.279 1.508.564 2.041 1.2.708-.555 1.435.482 1.56 1.08.432.032.578-.222.96-.24-.019 1.393 1.883.123 2.04 1.32.879-.202.731.575 1.44.24.721.715 1.461 2.662 2.76 1.68.397.882.834 1.726 1.92 1.92.065-.174-.141-.62.12-.6.727.352 1.068 1.461 1.92 1.32-.598.494.333 1.168.84 1.32.436-.238-.661-.567 0-.72.512.313.928 1.141 1.44 1.08.167.993.778 1.541 1.439 2.04.246-.113.102-.618.48-.6 1.598.961 3.067 2.052 4.199 3.48.383.071.371-.226.601 0-.397.412-.129.828.12 1.2.482.083.294-.505.72-.48.312.367.431.929.84 1.2.644-.162 1.531.467 1.56 1.32.439-.026.461-.165.841 0-.074.714.756.524.6 1.32.352.033.445-.481.601 0 .176.456-.537.023-.36.479.276.044.114.525.479.48.38.059.045-.596.48-.48.615.385.799.833.84 1.561 1.942-.307 1.96 2.254 3.72 2.52.137.264.31.491.24.96.289.049.261-.219.601-.12.595.766.778 2.58 1.8 2.52-.105-.109-.345-.678-.12-.72.513.328.241 1.438.96 1.56.165-.273-.31-.451 0-.48.78.078.261.819.479 1.32.37.089.23-.329.601-.24.803.693.754 2.264 1.08 3.12.277-.162-.022-.902.359-.96.267.534.667.933.72 1.68.898.062 1.002.919 1.08 1.8.454.173.23-.33.601-.24.206 1.314 1.217 1.823 1.44 3.12.883-.016.918 1.489 1.199 2.16.337-.002-.285-.328.24-.24.602.718.936 1.704 1.08 2.88.18.021.442-.043.48.12.318 1 .819 1.82.959 3 .963.757.784 2.656 1.681 3.48.058.458-.556.245-.36.84.448.128.342-.298.721-.24.41 1.589 1.445 2.554 1.319 4.68.18.021.443-.042.48.12 1.263 3.658 1.969 8.166 2.04 12.6.819.27-.233 1.964.6 2.28-.182 1.75-.48 2.642-1.2 3.84.923.003.585-1.255 1.44-1.32.452.634-.465.771-.36 1.44.26.349.746-.274.84.24-.16.56-.526.913-.6 1.56.542.142.269-.532.84-.36.151.631-.249.711-.24 1.2.888.137.367.946.48 1.8.433.082.325-.637.72-.24-.451.817.049 1.413-.6 2.52.601.199.422-.743.84-.36-.224 1.048.479 1.59.12 2.4 4.142 1.06 6.399 5.005 5.28 10.56-.236-.036-.238.162-.36.24.361.849.244 3.281-.601 4.2.103.217.31.331.36.6a.447.447 0 0 1-.6 0c.051 1.675.747 3.118-.12 4.2.068.629.203 1.675-.48 2.04.33 1.419.304 3.086-.24 4.08.832.224.936 2.12.12 2.4.236.284-.033 1.074.24 1.32.032-.283.531-.073.48.12.126.526-.406.394-.36.84.543.498.557 2.162.48 2.88-.231-.049-.096-.465-.48-.36-.132 1.962.729 3.455 0 5.4.051.229.343.217.24.6.059.38-.596.045-.48.48.098.617.009.846.24 1.439.035.316-.466.095-.36.48.284 4.714-1.664 9.105-1.8 13.92h-.359c-.129.448.298.342.239.72-.623.1-.543 1.26-.359 1.8-.163.038-.229.171-.48.12-.188 1.103.285 2.173-.6 2.641-.125.657 1.195 1.476.239 1.8.227.522.841 1.513.24 1.8.516.434.198 1.074-.12 1.561.519 1.008.75 3.729.12 4.439.3.428.86 1.56-.12 1.681-.079.438.26.46.24.84-.373.415-.808.664-.36 1.319h-.479c.27.999-.843 1.161-.36 2.4-.278.038-.461-.02-.6-.12.172.38.53 1.422-.24 1.44.187.377.154.747-.24.84.373.326.226 1.172-.359 1.2.43 1.166-.311 1.975-.36 3.239-.229-.051-.302-.258-.6-.239-.101.58.351.608.479.96-.61.756-.016 2.633-.96 2.76-.026.358.443.408.12.72-.248.023-.77-.604-.84 0 .287.209.981.461.72.84-.478.078-.482-.317-.96-.24.014.588.822.379.96.841-.673.119.095.359-.239.72.444-.085.515.205.959.12v.479c.578.022 1.207-.006 1.08.721.28-.037.518-.257.601.119-.015.346-.512.209-.48.601.519-.012.901-.63 1.44-.24.021.206-.681.472-.12.48.308-.109.681-.194.84.12-.273-.034-.451.028-.479.239 1.92.083 2.845 1.518 4.08 1.92-.041.28-.123.518-.36.601-.387.026-.508-.213-.96-.12.084.369.084.23 0 .6 1.756-.146 2.895.659 4.08.721-.138.527-.69-.105-.84.359.981.259 2.048.432 2.64 1.08-.136.377.034.317-.12.601 1.42.1 2.55.489 3.36 1.199-.002.159-.211.11-.24.24 1.197.751 3.067 1.375 3.479 2.521.996.334 2.413.853 2.28 1.92-.403-.042-.875-.272-1.08.12.617.499 2.688-.322 2.521.72-.361-.199-1.029-.091-1.44-.24.166.675 1.645.847 1.92.36.108.812 1.465.375 1.2 1.56.523.151.533.035.96-.12-.055.678 1.322.901 1.8 1.44.148.388-.388.092-.24.479 1.184.281 2.756.732 2.761 1.801 1.009-.135 1.471.524 1.439 1.08 2.378.501 3.257 2.503 5.28 3.359-.166.194-.57.149-.48.6 1.057.344 2.534.267 3 1.2-.227.054-.723-.163-.6.24.633.008 1.248.032 1.44.48-.306.015-.466.175-.48.479.339-.099.312.169.601.12.231-.049.01-.55.479-.36-.001.238-.327.153-.24.48.854.025 1.612.148 2.04.6.048.288-.546-.066-.359.36 1.001.172 2.341.601 2.399 1.32.383.103.456-.104.601-.24.087.272-.217.937.24.84.615.256.108-.611.6-.479-.18 1.219 1.98.099 2.04 1.079.364-.007 1.067-.362 1.2.12-.089.191-.588-.027-.48.36 1.351-.369 3.016-.425 4.561-.601.947.572 1.892 1.148 2.64 1.921.683 1.572.371 3.3.72 5.159.27 1.436 1.494 2.817 1.08 4.08.568.752.561 2.08.72 3.24 2.073 2.809 1.504 7.627 1.8 11.28-.035.244-.324.235-.359.479.18.232.505-.209.6.24-.172.358-.625-.315-.6.24.497.436 1.01 1.316.84 2.04.16.12.446.113.48.36.615 2.571 4.808 3.386 3.96 6.359-.584 2.047-4.159 1.38-5.761 1.44-.146.493-1.029.249-1.199.72-.596-.014-.59.117-1.08 0-.429.371-.854.746-1.801.6-.231.012.208.469-.239.48-.525-.138-1.518.163-2.16-.12-.431.477-1.116.972-1.92.72-.862.658-1.463 1.577-2.64 1.92.12.002.15.211 0 .24-2.686 1.556-4.965 3.517-9.121 3.6.438-.618-.356-.878-.479-1.319-1.184-.326-2.261.777-3.479 1.08-.639.158-1.183-.058-1.92-.12-2.006-.171-3.354-.099-3-2.641-.363.037-.43.372-.961.24-2.554-.735-1.431-3.38.48-3.96-.083-.236-.67.03-.72-.239-.201-.199-.096-.705-.12-1.08 2.242-2.799 4.203-5.877 7.08-8.04.047-.207-.179-.308 0-.36 1.641-.463 2.33.691 3.72.84.328.828 1.501 1.329 2.521 1.08.129-.307-.518-.42-.121-.6 1.374.057 1.955-.478 3.121-1.08a17.603 17.603 0 0 0-.24-.96c.285-.271.46-.938.72-1.8-.269-.32-.602.169-.84-.12.595-1.612-.169-3.918-.48-6-.656-.034-.729-.982-.6-1.44-.409-.328-1.079-.643-1.08-1.68-1.094-.388-1.738-2.152-2.4-3.36-.868-.092-1.34-.579-1.8-1.08-.442.396-.922-.192-1.08-.479-.369-.09-.23.329-.6.239-.23-.25-.46-.5-.84-.6-1.855.266-2.948-1.815-5.04-1.32-.513-.427-1.26-.167-1.92-.6-1.175.285-2.126-.688-3.12 0 .006-.37-.304-.603-.36-1.2-.946.438-1.328-.259-2.28-.12-.05-.229-.043-.517-.359-.479-.083-.3-.32.223-.601.12-.373-.556-1.013-.508-1.8-.721-.795-.215-.77-1.105-1.32-.479-.34-.38-.865-.574-1.199-.96-1.493.157-1.754-1.049-2.76-1.32-.499-.134-1.069.137-1.561 0-.711-.198-1.327-.954-1.92-1.32-.398-.038-.131.59-.72.36-.174-.454.329-.23.239-.6-.724.16-1.075-.68-1.68-.24.353.078.817.442.6.72-.624-.695-1.826-.813-2.399-1.56-.447-.128-.19.449-.601.359-.093-.547-.936-.344-.959-.96-.529-.089-.492.389-.841.48.045-.729-.992-.814-.359-1.44-.369-.031-.54-.26-.841-.359-.438.227.106.69-.359.84-.066-.432.021-.856-.6-.96.027.427-.173.627-.601.6-.137-.663-.496-1.104-1.2-1.2-.027.213.121.602-.24.48-.181-.366-.865-.36-.479-.96-.425-.105-.618.308-.72-.12-.06-.379.596-.045.479-.48-.458-.341-.806-.793-1.439-.96-.378.312.314.975 0 1.2-.444.005-.135-.746-.601-.72-.271.439-1.199-.241-1.56-.48.386-.039.265-.659 0-.72-.575.033.139.611-.36.72-.469-.45-.594-1.245-.96-1.8-.363-.013-.337.625-.72.24-.061.377.283.49-.12.6-.284-.396-1.049-.311-.96-1.08-.289-.049-.261.22-.6.12-.532-.868-.449-2.352-.961-3.239-.428.059-.823.064-.959.119.144.423.655 1.464.239 1.681-.409-.711-.472-1.769-.96-2.4-1.678.745-.939-2.355-2.04-2.399-.139.39.366.737 0 .96-.838-1.123-1.141-2.78-2.399-3.48-.062.429.62.73.359.96-.7-.3-1.002-.998-1.199-1.8-2.471-1.931-5.396-3.405-7.32-5.88-.5-.061-.7-.42-1.2-.48a21.26 21.26 0 0 1-2.04-3.72c-.003-.282.207-.354.12-.72-.55-.189-.222.498-.601.479v-.96c-.447-.127-.189.45-.6.36-.224-.554.052-.715 0-1.44-.41-.09-.152.488-.6.36-.164-.153-.164-.566 0-.72-.632.031-.492-.709-.601-1.2-.874-.392-.228-2.055-.359-2.64-.479-.078-.093.707-.601.6.039-1.487.649-2.928 0-4.32-.336.744.004 2.164-.72 2.521-.302-.787.37-1.409.24-2.4-.612-.092-.15.891-.841.72.104-.602.194-.93-.359-1.08.229-1.896.517-3.615-.36-5.039-.595.541.672 2.887-.359 3.479-.146-.676.317-1.214 0-1.68-.476-.155-.245.395-.721.239-.475-.8.491-1.842-.12-2.64-.351.169-.127.913-.6.96-.238-.596.359-1.077.36-1.8-.606-.086-.63.411-.96.6-.339-.364-.351-.591-.24-1.2-.825.042-.155-.703-.84-.84.101-.499.409-.79.359-1.439-.57-.091-.158.802-.84.6-.377-.759-.271-1.258-.24-2.399-.223-.115-.4.359-.479 0-.094-.534.16-.721.12-1.2-.18-.021-.443.043-.48-.12-.299-1.62.965-2.314.721-3.48-.705.091-1.236-1.625-2.28-1.199-.203.723.554.485.479 1.079-.49-.102-.12.34-.359.721-.602-.238-1.032-.647-1.68-.84-.253.558.429.592.239 1.199-.612-.146-.633-.887-1.319-.96-.075.507.652.607.359.96-.289.05-.261-.219-.6-.119-.115.223.359.4 0 .479-.435-.085-.622-.419-1.08-.479.082.322-.248.231-.36.359-.394-.486-.696-1.063-1.319-1.32-.454.973.736 1.325.479 2.041-.935-.266-.835-1.566-1.8-1.801.031.652.656 1.34.359 1.92-.666-.173-.574-1.105-1.319-1.199-.606.572.439 1.228.12 1.8-.478-.083-.285-.835-.84-.84-.167.598.553.707.239 1.079-.799.039-.524-.995-1.2-1.079.145.501.125.931-.119 1.319-.925-.164-.817.703-1.561.721-.282-.118-.199-.602-.6-.601.039.807-.356.438-.84.72.016.514.435.612-.12.841-.791-.012-1.19-1.047-1.8-.841.144.459.82 1.015.479 1.561-.436-.164-.592-.607-.84-.96-.366.099-.288.337-.72.12.08.479.36.759.479 1.199.427.188.072-.407.36-.359.001.238.327.152.24.479-.118.163-.32.24-.48.36-.27-.21-.276-.684-.72-.72-.292.255-.106 1.12-.72.72-.072.214.352.498 0 .6-.514-.025-.62.049-1.32-.239-.13.77.602.678.6 1.319-1.077-.165-1.197-1.707-2.16-1.319.252.63 1.006 1.392.84 2.04-.27-.097-.386-.965-.72-.601.088.202.499.688.24.84-.524-.194-.441-.999-1.08-1.079-.229.587.053.754.12 1.319-.581-.057-.281.839-.72.601.221.274.646.795.479 1.08-.436-.045-.445-.515-.84-.601.12.711.366 1.247-.24 1.56a1.003 1.003 0 0 0-.72-.6c-.23.249-.139.821-.36 1.08-.341-.219-.438-.683-.84-.84.067.533.316.884.48 1.32-.153.006-.166.153-.36.119.109.411.297.744.36 1.2-.207.048-.308-.178-.36 0 .4.28.57.79.601 1.44-.23.056-.518-.37-.48.12.917.828.708 2.048 1.2 3.239-.296.017-.578.019-.72-.119.25.457-.118.82.239 1.08.531.091.096-.785.72-.601.064.464-.214.586-.119 1.08.57.275.771 1.858.239 2.16.146.375.519.521.601.96-.604.343.441 1.377 0 1.92-.39-.011-.085-.716-.601-.6.787 1.74.783 3.433.841 5.279-.234.166-.369.432-.721.48-.07 1.22.368 1.742.36 3.12-.229.225-.218-.071-.601 0 .252.915-.254 1.06-.119 1.68.045.275.479.16.6.36-.429.818-.168 1.928-.6 2.52.497.758.501 2.706-.48 3 .254.787-.574 1.454 0 1.8.142-.226.373-.978.6-.72.02.459.072.951-.359.96-.065.425.425.295.359.72-.543 1.453.585 3.584-.239 5.28-.268-.492-.258-1.263-.24-2.04-.722.435-.384 2.623.12 3-.238.806.145 2.106-.6 2.641.195 1.05-.037 1.824-.48 2.52.251.109.365.354.359.72-.139.101-.321.158-.6.12.158 2.01.957 3.74-.12 5.4.309.291.318.882.36 1.439-.369.09-.23-.329-.6-.24.095.561 1.074 1.051.359 1.681h-.359c-.426-.095-.143-.897-.721-.84.251.909.242 2.078 1.08 2.399-.074.846.251 1.197 0 1.92-.251-.068-.342-.297-.72-.239-.069.39.082.558.12.84.447-.048.704.096.72.479-.568.165.215.629-.12.84-.27-.058-.898-.37-1.08-.119.192.168.307.413.36.72-.18.021-.443-.043-.48.12.345.295.242 1.038.841 1.08.011-.469.086-.874.479-.96.257.654.506 2.158.24 2.64-.544-.137-.436-.925-1.08-.96.226.935.632 1.771 1.319 1.92-.099.339.17.311.121.6-.307.206-.421-.137-.601.12 1.1.945.807 2.549 1.68 3.721-.02.14-.189.13-.359.119.675 1.238 1.613 2.25 1.8 3.721.217 1.715-.748 3.115-1.92 3.96-1.047.754-2.664.864-4.08 1.08-1.99.303-3.697.87-5.16 1.439-3.603 2.831-9.553 5.052-15.24 6.12-3.483.654-7.241 1.931-10.68 1.92-1.834.887-3.624 1.816-5.64 2.521-.785.064-1.366-.074-2.04-.12-.001.158-.21.109-.24.24-.121.002-.241.002-.362.002z" fill-rule="evenodd"/></svg>