<svg xmlns="http://www.w3.org/2000/svg" xmlns:dc="http://dublincore.org/documents/dcmi-terms/" height="385.102" viewBox="0 0 964.23 385.102" width="964.23" overflow="visible"><metadata><dc:description>Silhouette of Caypullisaurus bonapartei, processed by PhyloPic Tools (https://github.com/eweitz/phylopic-tools)</dc:description><dc:source>http://phylopic.org/image/16064520-c09c-47c8-9add-652ed6fb3fd2</dc:source><dc:creator>Gareth Monger</dc:creator><dc:license>http://creativecommons.org/licenses/by/3.0/</dc:license></metadata><switch><g><path d="M251.421 88.237C313.246 51.042 333.299 57.5 357.25 54.975c23.95-2.526 73.215-42.683 87.094-48.322 13.879-5.639 31.1-17.085 46.479 15.251 15.38 32.336 24.125 41.881 41.548 51.901 17.424 10.021-.323 9.609 45.614 24.472 45.937 14.863 85.458 16.93 133.183 28.153 47.725 11.223 109.562 15.334 117.312 15.964 7.75.63 51.959-26.746 83.631-66.383 31.672-39.637 42.234-56.673 49.441-56.431 7.207.242-1.335 12.166-11.37 41.059-10.034 28.894-39.584 104.494-35.14 142.938 4.444 38.444 6.412 73.477 10.022 98.204 3.61 24.727 29.315 102.182 13.07 79.065-16.244-23.115-46.638-71.127-57.073-90.903-10.437-19.776-38.244-89.717-49.237-98.411-10.993-8.694-41.052-17.104-127.478-5.205-86.427 11.898-132.732 41.054-200.797 57.083-68.065 16.03-169.155 40.387-250.489 10.83-81.334-29.557-78.61-39.085-103.944-44.931-25.334-5.846-169.855-15.88-146.593-25.458 23.262-9.579 84.801-13.062 131.794-35.165 46.994-22.102 89.725-43.978 117.104-60.449z"/><path d="M266.249 241.449s1.515 41.673 27.632 69.606c26.118 27.933 47.703 54.465 46.518 27.786-1.186-26.68 6.493-32.249.068-51.612-6.425-19.363-16.691-35.941-16.691-35.941l-57.527-9.839zM241.316 240.195s-11.535 21.257-11.553 34.16c-.018 12.903 2.223 32.957 9.029 28.607 6.806-4.35 36.831-30.813 36.831-30.813l-.839-24.586-33.468-7.368zM574.04 210.992s7.101 36.452 30.797 49.734c23.695 13.282 52.087 35.464 46.881 16.975-5.207-18.489-26.775-57.923-36.53-64.911-9.756-6.987-41.148-1.798-41.148-1.798z"/></g></switch></svg>