<svg xmlns="http://www.w3.org/2000/svg" xmlns:dc="http://dublincore.org/documents/dcmi-terms/" height="51.659" width="50.87"><metadata><dc:description>Silhouette of Cenarchaeaceae, processed by PhyloPic Tools (https://github.com/eweitz/phylopic-tools)</dc:description><dc:source>http://phylopic.org/image/15a04feb-660f-4c0c-b009-af66abb9ac92</dc:source><dc:creator>Matt Crook</dc:creator><dc:license>http://creativecommons.org/licenses/by-sa/3.0/</dc:license></metadata><g transform="translate(-223.479 -644.028)" stroke="#000" stroke-width=".5" stroke-linecap="round" stroke-linejoin="round"><rect height="3.326" ry="1.54" transform="rotate(-58.637)" width="5.42" x="-460.537" y="551.315" fill="#666"/><rect height="3.326" ry="1.54" transform="rotate(-16.712)" width="5.42" x="27.208" y="721.401" fill="#666"/><rect height="3.326" ry="1.54" transform="rotate(-116.448)" width="5.42" x="-715.446" y="-76.777" fill="#666"/><rect height="3.326" ry="1.54" transform="rotate(-57.794)" width="5.42" x="-434.856" y="569.964" fill="#333"/><rect height="3.326" ry="1.54" transform="rotate(72.394)" width="5.42" x="696.254" y="-65.314"/><rect height="3.326" ry="1.54" transform="rotate(146.802)" width="5.42" x="176.046" y="-706.208" fill="#333"/><rect height="3.326" ry="1.54" transform="rotate(-93.254)" width="5.42" x="-692.097" y="185.193"/><rect height="3.326" ry="1.54" transform="rotate(-10.292)" width="5.42" x="111.382" y="691.552" fill="#333"/><rect height="3.326" ry="1.54" transform="rotate(33.329)" width="5.42" x="552.274" y="424.406" fill="#333"/><rect height="3.326" ry="1.54" transform="rotate(-45.718)" width="5.42" x="-294.37" y="628.983" fill="#333"/><rect height="3.326" ry="1.54" transform="rotate(76.596)" width="5.42" x="687.549" y="-102.177" fill="#333"/><rect height="3.326" ry="1.54" transform="rotate(150.477)" width="5.42" x="99.749" y="-697.009" fill="#666"/><rect height="3.326" ry="1.54" transform="rotate(-101.304)" width="5.42" x="-702.173" y="121.102" fill="#333"/><rect height="3.326" ry="1.54" transform="rotate(-177.131)" width="5.42" x="-297.781" y="-646.89" fill="#333"/><rect height="3.326" ry="1.54" transform="rotate(-118.4)" width="5.42" x="-702.806" y="-90.489" fill="#333"/><rect height="3.326" ry="1.54" transform="rotate(-74.508)" width="5.42" x="-596.151" y="423.434" fill="#666"/><rect height="3.326" ry="1.54" transform="rotate(-101.26)" width="5.42" x="-719.365" y="110.188" fill="#333"/><rect height="3.326" ry="1.54" transform="rotate(-37.749)" width="5.42" x="-212.077" y="672.489"/><rect height="3.326" ry="1.54" transform="rotate(-103.047)" width="5.42" x="-705.632" y="82.687" fill="#333"/><rect height="3.326" ry="1.54" transform="rotate(-91.907)" width="5.42" x="-690.721" y="212.765" fill="#333"/><rect height="3.326" ry="1.54" transform="rotate(-.988)" width="5.42" x="230.287" y="684.716" fill="#333"/><rect height="3.326" ry="1.54" transform="rotate(74.04)" width="5.42" x="730.707" y="-46.796" fill="#333"/><rect height="3.326" ry="1.54" transform="rotate(154.71)" width="5.42" x="34.242" y="-704.915"/><rect height="3.326" ry="1.54" transform="rotate(-166.465)" width="5.42" x="-404.564" y="-585.296"/><rect height="3.326" ry="1.54" transform="rotate(-141.51)" width="5.42" x="-615.234" y="-356.886"/><rect height="3.326" ry="1.54" transform="rotate(-133.161)" width="5.42" x="-663.443" y="-258.019"/><rect height="3.326" ry="1.54" transform="rotate(-4.343)" width="5.42" x="198.619" y="665.63"/><rect height="3.326" ry="1.54" transform="rotate(21.545)" width="5.42" x="477.339" y="509.377"/><rect height="3.326" ry="1.54" transform="rotate(-118.4)" width="5.42" x="-715.831" y="-94.5"/><rect height="3.326" ry="1.54" transform="rotate(-40.393)" width="5.42" x="-247.103" y="676.699"/><rect height="3.326" ry="1.54" transform="rotate(-43.703)" width="5.42" x="-289.373" y="656.904"/><rect height="3.326" ry="1.54" transform="rotate(-82.336)" width="5.42" x="-630.656" y="336.435"/><rect height="3.326" ry="1.54" transform="rotate(-49.126)" width="5.42" x="-351.651" y="635.655"/><rect height="3.326" ry="1.54" transform="rotate(-93.254)" width="5.42" x="-677.043" y="193.994"/><rect height="3.326" ry="1.54" transform="rotate(-68.233)" width="5.42" x="-527.76" y="465.84"/><rect height="3.326" ry="1.54" transform="rotate(-45.718)" width="5.42" x="-318.628" y="622.36"/><rect height="3.326" ry="1.54" transform="rotate(55.1)" width="5.42" x="680.349" y="193.296"/><rect height="3.326" ry="1.54" transform="rotate(30.256)" width="5.42" x="540.912" y="463.574"/><rect height="3.326" ry="1.54" transform="rotate(122.081)" width="5.42" x="440.404" y="-559.355"/><rect height="3.326" ry="1.54" transform="rotate(-132.369)" width="5.42" x="-665.346" y="-292.879"/><rect height="3.326" ry="1.54" transform="rotate(-145.51)" width="5.42" x="-579.448" y="-432.218"/><rect height="3.326" ry="1.54" transform="rotate(74.698)" width="5.42" x="718.966" y="-53.806"/><rect height="3.326" ry="1.54" transform="rotate(49.929)" width="5.42" x="679.1" y="251.784"/><rect height="3.326" ry="1.54" transform="rotate(147.103)" width="5.42" x="167.564" y="-713.723"/><rect height="3.326" ry="1.54" transform="rotate(62.697)" width="5.42" x="718.395" y="103.113"/></g></svg>