<svg xmlns="http://www.w3.org/2000/svg" xmlns:dc="http://dublincore.org/documents/dcmi-terms/" height="1052.362" width="744.094"><metadata><dc:description>Silhouette of Centrosaurus apertus, processed by PhyloPic Tools (https://github.com/eweitz/phylopic-tools)</dc:description><dc:source>http://phylopic.org/image/606b9bf1-159a-4eeb-9c2e-5c9b4536dc56</dc:source><dc:creator>Andrew A. Farke</dc:creator><dc:license>http://creativecommons.org/licenses/by/3.0/</dc:license></metadata><g stroke="#000"><path d="M13.592 208.227c.45-1.355 1.01-3.295 2.02-4.72 1.009-1.424 1.704-2.773 3.907-3.641 2.202-.869 6.108-1.037 8.761-1.353 2.653-.316 5.138.111 7.144-.543 2.007-.655 3.156-1.668 4.447-3.238s1.268-4.195 3.097-5.933c1.83-1.738 5.555-3.232 7.412-4.048 1.858-.817 1.023.273 3.64-.811 2.616-1.084 7.533-3.998 11.994-5.668 4.46-1.67 10.94-3.174 14.69-4.322 3.753-1.148 5.132-2.517 7.818-2.566 2.686-.048 5.05 1.343 7.55 2.288 2.5.944 5.102 2.99 7.416 3.366 2.314.376 4.303 1.266 5.796-1.217 1.493-2.482 1.41-8.286 1.746-11.324.336-3.038.178-4.696.266-6.875.088-2.18-.153-4.591.266-6.201.42-1.61.641-2.927 2.155-3.102 1.514-.176 3.254.829 4.854 2.289 1.601 1.46 3.349 4.78 4.452 6.198 1.104 1.418 1.282 1.916 2.158 2.29.877.376 1.28.257 2.562-.27 1.28-.527 3.585-2.305 4.986-2.834 1.4-.529 1.23.79 3.235-.271 2.004-1.061 6.217-4.18 8.49-5.936 2.271-1.757 3.725-3.213 5.12-4.586 1.394-1.374 2.404-2.076 3.232-3.642.828-1.566.867-3.848 1.615-5.528.748-1.68 2.565-2.331 2.828-4.45.264-2.118-1.374-5.376-1.352-7.413.022-2.038 1.322-2.368 1.48-4.45.16-2.081-.317-5.234-.543-7.818-.226-2.584-.88-5.431-.813-7.683.067-2.252.365-4.065 1.21-5.663.845-1.597 2.815-1.977 3.638-3.506.822-1.53 1.1-3.596 1.075-5.258-.024-1.663-1.26-2.243-1.215-4.448.044-2.205 1.727-6.388 1.478-8.494-.25-2.105-2.113-2.2-2.833-2.964-.72-.763-.798.095-1.483-1.617-.686-1.711-1.42-6.433-2.566-8.49-1.148-2.058-3.44-1.897-4.046-3.369-.606-1.471 1.188-2.826.941-4.179-.247-1.352-1.87-1.686-2.293-3.234-.424-1.548-.228-4.148-.138-5.662.09-1.514.89-2.213.672-3.37-.218-1.158-.853-1.704-1.89-3.1-1.036-1.395-2.927-3.958-4.316-5.254-1.389-1.297-3.302-2.425-3.91-2.425-.609.001-1.82-.206-2.696.002-.878.207-2.277.037-2.426 1.214-.15 1.178 2.649 1.753 3.325 2.898.676 1.145.454 2.343.753 3.488s.843 2.742 1.037 3.373c.194.63-4.757 4.276-5.646 5.34-.89 1.063-1.953.697-3.37 1.35-1.416.652-3.324 1.664-5.12 2.564-1.797.9-2.698 1.223-3.817 2.081-1.12.858-2.292 1.875-2.517 2.775-.224.9-.695 2.066-.672 3.37.024 1.305.268 2.663.811 4.314.544 1.65 1.508 3.346 2.43 5.525.922 2.18.622 7.135 3.105 7.548 2.482.412 1.103-4.816.94-6.876-.164-2.06-1.773-3.25-1.89-5.121-.119-1.872.306-4.457 1.21-5.663.902-1.205 4.703-3.333 3.234-.271-1.468 3.062-7.227 10.472-9.832 14.025-2.606 3.552-2.874 3.798-5.793 7.282-2.92 3.485-8.214 9.842-11.72 13.622-3.506 3.78-7.747 7.53-9.297 9.037-1.55 1.506-4.31 5.53-5.658 6.204-1.348.675-6.649 2.88-7.547 3.105-.899.225-3.51 1.467-5.392 1.35-1.882-.116-3.168-1.166-5.393-2.018-2.225-.853-6.155-2.781-7.955-3.097-1.8-.315-1.718.056-2.021 1.35-.304 1.293.451 3.698.407 5.526-.044 1.83-.218 3.69-.67 5.393-.454 1.702-.584 3.072-2.02 4.72-1.437 1.646-4.145 3.478-6.333 4.855-2.189 1.378-5.616 2.812-6.739 3.374-1.123.563-5.122-.132-5.932-1.075-.809-.943-3.822-4.828-4.586-5.794-.764-.966-3.434-4.056-4.587-5.794-1.152-1.738-1.324-2.983-2.294-4.582-.97-1.599-2.18-3.009-3.507-4.986-1.327-1.976-2.607-3.635-4.453-6.872-1.845-3.237-5.098-9.058-6.612-12.533-1.514-3.475-1.601-6.699-2.431-8.222-.83-1.523-1.028-.91-1.752.54-.724 1.45-1.859 5.24-2.288 7.55-.429 2.31-.178 3.123-.266 6.202-.088 3.078-.604 8.532-.263 12.267.342 3.735 1.216 6.24 2.298 9.974 1.081 3.734 2.876 9.22 4.185 12.4 1.31 3.179 3.167 4.464 3.644 6.603.476 2.139-.204 3.775-.94 5.527-.738 1.753-1.614 3.101-3.368 4.72-1.755 1.62-5.04 2.54-7.007 4.857-1.967 2.317-3.551 4.567-4.444 8.63-.893 4.063-1.03 10.93-.8 15.233.228 4.303 1.282 7.16 2.162 10.379.88 3.219 1.862 6.186 3.105 8.895 1.244 2.709 2.833 5.45 4.318 7.277 1.486 1.826 3.506 2.739 4.45 3.503.945.763.679 1.729 1.214 1.077.536-.651.222-2.015.673-3.37z" stroke-width=".873"/><path d="M693.953 218.861c4.733-1.656-6.407-5.534-12.64-8.331-6.231-2.797-15.302-3.294-25.856-5.938-10.554-2.643-24.124-5.989-37.34-9.892-13.216-3.903-25.648-8.874-40.288-15.83-14.64-6.955-35.308-17.42-47.397-25.827-12.09-8.407-13.42-14.295-24.49-24.162-11.067-9.866-29.196-25.665-41.867-34.992-12.671-9.327-18.99-14.398-33.968-20.828-14.977-6.43-39.797-14.143-55.297-17.496-15.5-3.354-22.63-2.36-37.128-2.5-14.499-.139-32.057-.703-49.768 1.666-17.71 2.37-41.34 7.454-56.087 12.498-14.746 5.044-23.237 11.617-31.598 17.496-8.36 5.878-10.705 12.435-18.169 17.496-7.464 5.06-17.772 8.747-26.069 12.497-8.296 3.75-13.525 6.932-23.698 9.998-10.174 3.065-29.144 5.805-37.128 8.331-7.985 2.527-8.192 2.595-10.27 6.665-2.078 4.07-.658 10.135-.79 14.997-.131 4.862-.398 10.242 0 14.164.399 3.92.776 5.521 2.37 9.164s-4.662 12.209-.755 15.446c3.908 3.238 8.234 4.315 15.796 4.26 7.562-.056 18.796-.821 25.247-.543 6.451.277 14.865.276 20.539.833 5.674.556 8.368.532 13.43 2.5 5.06 1.966 9.332 4.294 16.588 9.164s19.265 15.64 26.859 19.995c7.594 4.356 6.513 5.974 18.169 5.832 11.656-.141 30.256 5.56 42.658 3.333 12.4-2.226 17.592-.27 26.858-1.666 9.267-1.397 24.48-2.36 34.758-3.333 10.278-.973 16.968-1.524 26.069-3.333 9.101-1.808 16.188-4.442 26.069-6.665 9.88-2.223 28.832-7.637 36.338-9.164 7.506-1.528 7.789-11.038 12.639-14.164 4.85-3.126 9.515-13.436 18.17-15.83 8.653-2.394 19.852.829 30.017 2.5 10.166 1.67 19.983 3.878 30.809 7.498s22.31 10.81 33.968 14.164c11.658 3.353 24.488 4.165 35.548 5.832 11.06 1.666 22.11 3.331 30.809 4.165 8.698.834 14.35.695 21.328.833 6.98.14 13.688.278 20.54 0 6.85-.277 12.083.044 17.118.044 5.035 0 8.795-.183 12.9-.044 4.104.14 10.276.824 15.009-.833z" stroke-width="1.027"/><path d="M449.066 116.262c-13.43 16.852-25.167 37.042-40.288 50.557-15.12 13.515-40.528 21.455-48.977 29.229-8.45 7.773 6.799 4.16 9.48 7.11 2.68 2.948 4.843 6.11 6.319 10.269 1.475 4.158 1.711 10.005 2.37 14.219.658 4.213.921 6.32 1.58 11.06.658 4.74 1.711 12.243 2.37 17.378.658 5.135.921 7.637 1.58 13.43.658 5.793 2.65 16.83 2.37 21.329-.282 4.498-1.22 6.933-1.927 9.615-.706 2.683-1.363-.286-2.024 5.394-.66 5.68-1.134 18.06-3.95 22.909-2.814 4.848-7.767 1.184-10.269 1.58-2.501.394-2.499.262-4.74.79-2.24.527-5.087 2.102-8.69 2.37-3.601.266-10.025.416-12.638-.79-2.614-1.207 1.01-1.562-.868-2.736-1.88-1.175-3.554.05-5.452-1.214-1.898-1.266-.37-2.929 1.58-4.74 1.95-1.811 6.175-3.151 9.48-5.53 3.303-2.379 7.19-4.809 10.269-8.69 3.078-3.88 6.79-9.782 7.9-14.219 1.108-4.436.008-5.763-1.58-11.06-1.59-5.295-3.417-11.045-7.9-20.538-4.483-9.494-13.956-26.99-18.96-36.338-5.003-9.349-8.023-13.415-11.059-19.75-3.035-6.334-4.735-10.518-7.11-18.168-2.373-7.65-6.71-9.18-7.109-27.649-.398-18.469 3.16-54.77 4.74-82.155"/><path d="M447.235 122.652c-8.163 16.063-17.01 36.97-24.488 48.188-7.479 11.217-18.536 10.687-19.75 18.169-1.213 7.482 11.937 7.289 15.01 11.06 3.072 3.77.257 4.459 2.37 10.269 2.113 5.81 6.442 16.834 10.27 24.488 3.826 7.655 9.73 15.51 12.639 21.33 2.909 5.818 3.938 8.087 4.74 13.429.8 5.342 2.436 13.417 2.832 18.573.397 5.157 1.438 9.22 1.965 13.044.528 3.824-1.505 6.533-1.638 9.46-.133 2.928-.605 5.299-1.58 7.11-.975 1.811-2.457 2.994-3.95 3.16-1.492.166-1.362-3.628-3.16-2.37-1.797 1.258-2.327 6.055-4.74 7.9-2.411 1.844-5.914 1.841-8.689 2.37-2.774.528-5.088 1.057-7.9.79-2.81-.268-6.45-1.712-8.689-2.37-2.239-.659-5.478.634-4.74-1.58.738-2.214 4.861-4.075 7.11-5.53 2.249-1.455 3.796-1.3 6.32-3.16 2.523-1.86 6.507-4.353 8.69-7.9 2.182-3.546 3.546-7.802 3.949-12.639.403-4.836.743-10.334-1.58-15.799-2.322-5.465-6.184-8.948-11.85-15.8-5.664-6.85-15.007-16.85-22.118-25.278-7.11-8.427-15.921-19.077-20.539-25.279-4.618-6.2.53-.785-7.11-11.849-7.64-11.064-29.1-35.025-38.708-54.507-9.607-19.482-12.112-40.551-18.169-60.827M249.272 190.65c5.465 7.308 10.859 12.43 16.397 21.923 5.537 9.494 13.143 26.16 16.676 34.78 3.533 8.62 3.735 12.05 4.44 16.746.707 4.696 2.285 6.004-.242 11.169-2.527 5.164-9.148 12.622-14.257 18.463-5.109 5.841-13.001 11.395-16.338 16.518-3.337 5.124-2.45 9.99-2.967 13.121-.517 3.131 1.246 3.588-.122 5.585-1.367 1.997-5.145 4.622-7.264 5.206-2.12.584-1.362-2.907-3.64-2.202-2.278.704-5.894 5.151-8.173 5.856-2.278.705-1.018-2.048-3.64-2.202-2.62-.154-7.798 1.376-11.426 1.316-3.628-.06-7.794-1.287-10.132-1.673-2.338-.386-3.846.857-3.897-.643-.05-1.5 4.119-1.572 3.76-3.382-.357-1.811-3.379-2.16-5.069-3.24s3.246-.264 7.4-1.18c4.155-.915 4.49.77 7.17-2.524 2.678-3.294 6.102-6.398 8.036-9.882 1.934-3.484 2.691-4.847 6.188-10.483s12.85-16.421 17.368-22.754c4.518-6.332 6.203-5.994 4.318-13.104-1.885-7.109-6.458-13.536-13.2-20.388-6.743-6.852-15.332-14.367-21.853-22.824-6.521-8.456-13.42-20.307-17.055-27.636-3.635-7.328-3.047-10.644-4.57-15.966"/><path d="M238.28 213.883c-.206 12.111-.185 26.46-.616 36.333-.43 9.874.378 16.888-1.968 22.879-2.345 5.991-5.517 9.063-10.086 14.128-4.57 5.066-10.37 10.756-14.053 16.276-3.683 5.52-6.095 9.283-8.994 13.279-2.899 3.995-8.252 7.99-11.232 10.08-2.98 2.091-4.346 1.895-6.359 2.263-2.013.367-4.36.814-5.529-.094-1.169-.908 4.624-2.538 2.41-2.33-2.214.209-6.141 2.786-9.532 3-3.39.213-8.186-.509-10.24-1.754-2.056-1.246 1.333-2.77.856-3.936-.477-1.167-3.373-.133-3.133-1.633.24-1.501.623-2.458 4.016-3.883 3.393-1.425 9.357-3.507 14.307-7.331 4.95-3.824 8.555-5.7 13.713-14.316 5.157-8.617 18.24-21.38 18.755-34.445.515-13.065-11.686-24.94-15.984-35.824-4.298-10.884-6.516-19.6-9.773-29.399"/><path d="M124.047 163.07c3.123 3.433.379 7.493-.426 11.265-.805 3.772-1.525 7.16-4.335 11.048-2.809 3.887-6.006 8.766-12.148 11.76-6.142 2.995-14.936 2.6-23.431 5.588-8.496 2.989-20.363 9.667-27.32 12.266-6.956 2.6-8.591 3.6-14.243 3.262-5.65-.339-13.735-2.897-18.636-5.232-4.901-2.334-8.437-6.822-10.14-8.475-1.704-1.653-1.333-.517.456-.92 1.79-.404 6.588-.94 9.881-1.41 3.294-.47 6.983-.627 9.881-1.409 2.898-.782 5.302-2.036 7.347-3.24 2.045-1.205 3.761-2.209 4.815-3.923 1.054-1.714 1.218-3.181 1.133-5.75-.086-2.57-7.619-4.686-1.638-9.42 5.98-4.735 27.356-12.727 32.827-15.272 5.472-2.545 8.04-2.323 11.716-2.794 3.677-.47 16.004-3.726 18.612-2.814 2.608.911 12.526 2.036 15.649 5.47z" stroke-width=".891"/><path d="M37.104 189.869l11.901 7.7 4.9 7.001 18.203-14.001s1.4-14.002-2.8-15.402c-4.2-1.4-15.402-4.9-15.402-4.9l-15.402 9.1"/></g></svg>