<svg xmlns="http://www.w3.org/2000/svg" xmlns:dc="http://dublincore.org/documents/dcmi-terms/" height="200.881" version="1.2" viewBox="0 0 336.001 200.881" width="336.001" overflow="inherit"><metadata><dc:description>Silhouette of Ceratioidei, processed by PhyloPic Tools (https://github.com/eweitz/phylopic-tools)</dc:description><dc:source>http://phylopic.org/image/c82d2a25-7421-4582-9d26-e97215de3164</dc:source><dc:creator>Sibi (vectorized by T. Michael Keesey)</dc:creator><dc:license>http://creativecommons.org/licenses/by-sa/3.0/</dc:license></metadata><g fill-rule="evenodd"><path d="M0 121.2c3.39 5.396 3.054 12.447 4.56 18.48.209.77-.37.75-.72.96.436.364.998.603 1.2 1.2-1.554 9.476 4.478 13.497 7.2 19.439 1.331 2.905 1.559 5.991 2.88 9.601-.678.281-.796 1.124-.96 1.92 1.646 1.987 4.124 1.775 6 3.12 3.566 2.556 5.067 7.079 8.16 10.08 5.392.391 9.583-.646 14.16-.721 13.048-.214 23.256 7.468 35.04 10.32 6.312 1.528 12.931 2.114 19.92 3.12 5.244.755 11.499 1.908 18 1.92 9.753.018 18.278-2.402 26.4-4.56 10.719-2.848 19.044-9.689 27.6-14.641 1.417 1.943 1.832 4.889 4.08 6 .17.632.17 1.769 0 2.4 1.036.392 2.043-1.097 2.88-1.681 2.46.98 6.257.623 6.96 3.36 2.325.354 2.486-.18 3.84-.96 1.072.607 2.326 1.033 3.36 1.68 3.889-1.764.017-4.684-3.601-3.84-.605-.602.459-.759.72-1.2-1.479-1.17-3.215-1.626-5.04-.72-2.785-3.489-5.496-7.825-11.04-6 .591-2.06 2.904-2.593 4.56-3.6 1.694-1.031 3.101-2.54 4.8-3.601 7.194-4.491 17.022-8.112 27.601-8.64 2.33-.116 4.944-.43 6.96.479 4.808 2.17 9.531 6.295 14.88 9.36 5.519 3.163 11.229 5.667 16.8 7.44-.292-1.651-4.91-2.271-4.56-4.561 2.623-4.173 8.667.617 12.72.24-.998-2.498-7.538-3.437-7.44-6.72.118-3.946 7.67-.323 10.561-.721-1.4-2.439-5.942-1.737-6.24-5.279 1.595-1.474 3.961.938 5.76 0-5.79-3.09-15.164-3.875-18-9.12 3.706-3.324 9.714-3.044 15.12-4.08 2.749-.527 7.818-1.14 11.761-.48 12.029 2.014 22.939 7.693 35.76 7.681-.12-1.64-3.124-.396-3.12-2.16 2.908-4.064 9.466-1.547 14.88-1.681-.941-1.538-4.558-.401-6-1.439 2.2-2.963 8.632-.153 12.72-.48-.416-1.743-3.964-.355-4.56-1.92-.005-2.405 3.688-1.112 5.76-1.439-.25-1.422-4.209.051-4.8-1.681.761-3.639 5.81-2.99 10.08-3.119-.847-1.233-3.152-1.008-3.6-2.641 1.964-2.995 8.054-1.866 11.76-3.12-2.848-1.396-8.305 1.364-9.84-1.68.672-3.488 6.358-1.961 9.84-2.64-2.616-2.185-10.706 1.105-12-2.4 1.849-2.341 7.16-.684 10.08-1.44-2.212-1.908-13.385.146-13.44-3.119-.029-1.737 1.744-1.188 3.12-1.921-1.512-1.102-4 .52-5.76-.479.186-1.174 1.405-1.314 2.16-1.92-4.384-1.227-9.682 2.891-13.2.24 1.19-2.549 6.082-2.477 8.399-3.12-1.648-1.104-4.575.409-7.439.72-3.905.424-8.982 1.087-11.76-.48.196-3.083 5.006-1.554 7.92-1.92-.706-1.662-2.955-.934-4.08-.96-3.552-.082-8.255.111-12.721.96-8.858 1.685-16.447 7.245-25.439 6.721-.743-.044-1.402-.379-2.16-.48-4.696-.63-10.604-.804-13.68-3.84 4.424-3.176 11.647-3.552 17.04-5.76-1.731-.892-4.132-.759-4.32-2.641-.281-2.8 4.994-4.096 6.96-5.52-1.343-.443-4.681-.286-6-1.44-1.018-3.75 2.509-4.785 4.56-6.24-3.164-.286-8.007 2.085-10.8.24-.188-3.228 2.645-3.436 4.08-5.04-3.708-.396-6.847 2.132-10.08 3.6-8.019 3.64-16.062 7.477-24.96 10.56-1.782.618-3.802 1.456-5.28 1.68-4.94.751-10.437-.903-15.6-1.44-2.99-.311-5.854-.027-8.16-1.44-.389-1.032 1.234-1.905 1.68-2.88 3.946.401 11.228.228 11.761-4.32.496-4.234-4.668-4.234-7.2-3.6-3.73.935-5.686 4.665-8.641 4.8-2.326.106-6.589-2.521-9.6-4.08-5.133-2.659-9.39-4.71-15.12-6.72-16.155-5.667-38.084-10.67-57.6-6.96-2.976.566-6.333 1.79-9.6 2.64-3.202.833-6.528 1.607-9.6 2.64-6.428 2.162-15.745 6.207-21.6 3.36-.669-3.724 2.26-5.889 2.88-9.12 5.576-8.201 11.866-17.171 18.48-24.96 2.209-2.602 4.215-5.601 6.48-7.92 2.063-2.114 4.44-3.854 6.48-6 5.958-6.268 12.008-12.247 18.48-18.48 6.082-5.858 12.9-11.312 20.16-16.8 2.038-1.54 5.995-4.544 7.68-4.56 2.251-.021 4.178 2.512 6.24 2.64 2.148.133 4.19-1.559 6.24-1.44 1.4.081 2.8 1.363 4.32 1.44.729.037 1.651-.577 2.4-.48 2.308.296 6.115 4.357 9.84 1.2-2.098-.131-3.367.675-5.28 0-1.686-.594-2.676-2.556-4.08-2.88-2.274-.525-4.912.374-6.96-.96-1.206-.785-2.576-3.984-4.8-4.32-2.447-.37-6.797 1.08-8.88 1.92-3.533 1.425-8.566 5.542-11.76 8.16-10.878 8.919-21.532 18.376-31.2 28.32-7.047 7.248-13.643 13.539-19.2 20.4C80.788 64.487 76.128 69.863 72 75.6c-1.396 1.941-2.297 4.345-4.32 5.52-.998 4.866-7.014 8.002-6.72 14.16.823 1.417 3.59.89 5.28 1.44-8.032 3.079-20.527 1.513-27.84 4.56-6.438 2.683-11.968 6.203-18.72 8.88-1.501 2.727 1.088 4.526 2.16 6.721 2.21 4.523 3.298 9.944 3.12 15.6-.322-.424-1.389.393-1.92-.24.203-.356.773-.347 1.2-.479-.246-1.3-2.398.51-2.16-.96.557.076.921-.039 1.2-.24-.409-1.234-2.001.493-2.64-.24-.77-.944 1.38-.574 1.44-1.439-1.14-.933-2.033 1.039-3.12.239-.735-.91 1.383-.571 1.44-1.439-.853-.763-2.305.937-3.36 0-.047-1.167 1.549-.691 1.92-1.44-.728-1.126-2.137.571-3.6.24-.681-1.044 1.642-.829 1.92-1.68-.732-.561-1.963.428-2.88.479.002-1.038 1.132-.948 1.44-1.68-.621-.259-2.344.126-2.88.72-.762-.856 1.275-.954 1.44-1.68-1.125-.625-2.026.781-3.6.479-.115-1.155 1.49-.59 1.68-1.439-.768-.752-1.553.515-2.64.239.359-.44 1.002-.598 1.2-1.199-.952-.655-1.717.584-3.12.239.107-.692 1.033-.567 1.2-1.199-.633-.695-1.37.536-2.4.239-.14-.939.987-.612 1.2-1.199-.586-.647-1.564.341-2.64 0 .02-1.101 1.517-.724 2.16-1.2-2.746-.426-5.989.728-7.44 2.398V0h336.001v200.881H0V121.2z" fill="#fff"/><path d="M0 121.2V120c1.451-1.67 4.694-2.824 7.44-2.399-.643.477-2.14.1-2.16 1.2 1.076.341 2.054-.647 2.64 0-.213.587-1.34.26-1.2 1.199 1.03.297 1.767-.935 2.4-.239-.167.632-1.093.507-1.2 1.199 1.403.345 2.168-.895 3.12-.239-.198.602-.841.759-1.2 1.199 1.087.275 1.873-.991 2.64-.239-.19.85-1.795.284-1.68 1.439 1.574.302 2.476-1.104 3.6-.479-.165.726-2.202.823-1.44 1.68.536-.594 2.259-.979 2.88-.72-.308.731-1.438.642-1.44 1.68.917-.052 2.148-1.04 2.88-.479-.278.851-2.602.636-1.92 1.68 1.463.331 2.873-1.366 3.6-.24-.371.749-1.967.273-1.92 1.44 1.055.937 2.507-.763 3.36 0-.057.868-2.175.529-1.44 1.439 1.087.8 1.98-1.172 3.12-.239-.06.865-2.209.495-1.44 1.439.639.733 2.231-.994 2.64.24-.279.201-.644.316-1.2.24-.238 1.47 1.915-.34 2.16.96-.427.133-.997.123-1.2.479.531.633 1.598-.184 1.92.24.178-5.655-.91-11.076-3.12-15.6-1.072-2.194-3.661-3.994-2.16-6.721 6.751-2.677 12.281-6.197 18.72-8.88 7.313-3.047 19.809-1.481 27.84-4.56-1.69-.55-4.458-.022-5.28-1.44-.293-6.158 5.722-9.294 6.72-14.16 2.023-1.175 2.923-3.579 4.32-5.52 4.128-5.737 8.788-11.113 13.2-16.56 5.558-6.861 12.153-13.152 19.2-20.4 9.668-9.944 20.322-19.401 31.2-28.32 3.193-2.618 8.227-6.735 11.76-8.16 2.083-.84 6.433-2.29 8.88-1.92 2.224.335 3.594 3.535 4.8 4.32 2.048 1.333 4.686.435 6.96.96 1.404.324 2.395 2.286 4.08 2.88 1.913.675 3.183-.131 5.28 0-3.726 3.157-7.533-.903-9.84-1.2-.749-.097-1.67.517-2.4.48-1.521-.077-2.92-1.359-4.32-1.44-2.049-.119-4.091 1.573-6.24 1.44-2.062-.128-3.989-2.661-6.24-2.64-1.685.016-5.642 3.02-7.68 4.56-7.26 5.487-14.079 10.942-20.16 16.8-6.472 6.234-12.522 12.212-18.48 18.48-2.04 2.146-4.417 3.886-6.48 6-2.265 2.319-4.271 5.318-6.48 7.92-6.614 7.789-12.904 16.759-18.48 24.96-.62 3.231-3.549 5.396-2.88 9.12 5.855 2.847 15.172-1.198 21.6-3.36 3.072-1.033 6.398-1.807 9.6-2.64 3.268-.851 6.624-2.074 9.6-2.64 19.516-3.71 41.445 1.293 57.6 6.96 5.73 2.01 9.987 4.061 15.12 6.72 3.01 1.559 7.273 4.186 9.6 4.08 2.955-.135 4.91-3.866 8.641-4.8 2.532-.634 7.696-.634 7.2 3.6-.533 4.548-7.814 4.721-11.761 4.32-.445.975-2.068 1.848-1.68 2.88 2.307 1.413 5.17 1.129 8.16 1.44 5.163.537 10.659 2.191 15.6 1.44 1.479-.225 3.498-1.062 5.28-1.68 8.898-3.083 16.941-6.92 24.96-10.56 3.233-1.467 6.372-3.996 10.08-3.6-1.436 1.604-4.268 1.812-4.08 5.04 2.793 1.845 7.636-.526 10.8-.24-2.051 1.456-5.577 2.491-4.56 6.24 1.319 1.154 4.657.997 6 1.44-1.966 1.424-7.241 2.719-6.96 5.52.188 1.882 2.589 1.749 4.32 2.641-5.393 2.208-12.616 2.584-17.04 5.76 3.076 3.036 8.983 3.21 13.68 3.84.758.102 1.417.437 2.16.48 8.992.524 16.581-5.036 25.439-6.721 4.466-.849 9.169-1.042 12.721-.96 1.125.026 3.374-.702 4.08.96-2.914.366-7.724-1.163-7.92 1.92 2.777 1.567 7.854.904 11.76.48 2.864-.311 5.791-1.824 7.439-.72-2.317.644-7.209.571-8.399 3.12 3.519 2.65 8.816-1.467 13.2-.24-.755.605-1.975.746-2.16 1.92 1.76.999 4.248-.622 5.76.479-1.376.732-3.149.184-3.12 1.921.056 3.266 11.229 1.211 13.44 3.119-2.92.757-8.231-.9-10.08 1.44 1.294 3.506 9.384.216 12 2.4-3.481.679-9.168-.849-9.84 2.64 1.535 3.044 6.992.283 9.84 1.68-3.706 1.254-9.796.125-11.76 3.12.447 1.633 2.753 1.407 3.6 2.641-4.271.129-9.319-.52-10.08 3.119.591 1.731 4.55.259 4.8 1.681-2.072.327-5.765-.966-5.76 1.439.596 1.564 4.144.177 4.56 1.92-4.088.327-10.52-2.482-12.72.48 1.442 1.038 5.059-.099 6 1.439-5.414.134-11.972-2.384-14.88 1.681-.004 1.765 3 .521 3.12 2.16-12.82.013-23.73-5.667-35.76-7.681-3.942-.659-9.012-.047-11.761.48-5.406 1.036-11.414.756-15.12 4.08 2.836 5.245 12.21 6.03 18 9.12-1.799.938-4.165-1.474-5.76 0 .298 3.542 4.84 2.84 6.24 5.279-2.891.397-10.442-3.226-10.561.721-.098 3.283 6.442 4.222 7.44 6.72-4.053.377-10.097-4.413-12.72-.24-.351 2.289 4.268 2.909 4.56 4.561-5.57-1.773-11.281-4.277-16.8-7.44-5.349-3.065-10.072-7.19-14.88-9.36-2.016-.909-4.63-.596-6.96-.479-10.578.527-20.406 4.148-27.601 8.64-1.699 1.061-3.106 2.569-4.8 3.601-1.656 1.007-3.969 1.54-4.56 3.6 5.544-1.825 8.255 2.511 11.04 6 1.825-.906 3.562-.45 5.04.72-.261.441-1.325.599-.72 1.2 3.617-.844 7.489 2.076 3.601 3.84-1.034-.646-2.288-1.072-3.36-1.68-1.354.78-1.515 1.313-3.84.96-.703-2.737-4.5-2.38-6.96-3.36-.837.584-1.844 2.072-2.88 1.681.17-.632.17-1.769 0-2.4-2.249-1.111-2.663-4.057-4.08-6-8.556 4.951-16.881 11.793-27.6 14.641-8.122 2.157-16.646 4.577-26.4 4.56-6.501-.012-12.756-1.165-18-1.92-6.99-1.006-13.608-1.592-19.92-3.12-11.784-2.853-21.992-10.534-35.04-10.32-4.576.075-8.768 1.111-14.16.721-3.093-3.001-4.594-7.524-8.16-10.08-1.876-1.345-4.354-1.133-6-3.12.164-.796.282-1.639.96-1.92-1.321-3.609-1.549-6.695-2.88-9.601-2.722-5.942-8.754-9.964-7.2-19.439-.203-.598-.765-.836-1.2-1.2.351-.21.93-.19.72-.96C3.054 133.647 3.39 126.596 0 121.2z"/></g></svg>