<svg xmlns="http://www.w3.org/2000/svg" xmlns:dc="http://dublincore.org/documents/dcmi-terms/" height="1052.362" width="744.094"><metadata><dc:description>Silhouette of Ceratopsia, processed by PhyloPic Tools (https://github.com/eweitz/phylopic-tools)</dc:description><dc:source>http://phylopic.org/image/580db433-c610-40df-b7d8-a3434ad158ed</dc:source><dc:creator>Andrew A. Farke</dc:creator><dc:license>http://creativecommons.org/licenses/by/3.0/</dc:license></metadata><path d="M166.875 157.536c3.056 1.138 18.017 6.028 21.64 7.303 3.622 1.276 8.381 2.81 12.566 4.236 3.12 1.063 6.154 2.417 9.351 3.218 3.62.907 7.334 2.079 11.053 1.78 4.818-.39 9.385-2.52 13.763-4.568 5.28-2.47 9.788-6.345 14.865-9.209 7.773-4.383 15.692-8.54 23.838-12.181 11.215-5.015 22.434-10.421 34.383-13.276 11.362-2.715 23.19-3.205 34.868-3.52 8.895-.24 17.79.601 26.664 1.247 8.532.621 17.255.39 25.54 2.527 10.43 2.69 19.816 8.456 29.688 12.769 16.527 7.22 36.547 15.418 49.457 21.941 12.91 6.524 19.472 12.298 27.839 17.119 8.366 4.82 14.507 8.033 22.331 11.79 7.825 3.758 15.271 7.75 24.585 10.737 9.314 2.986 20.058 5.381 31.058 7.104 11 1.723 27.6 3.08 34.797 3.212 7.196.132 11.71.416 16.555.303 4.846-.112 7.103-.619 12.484-.978 5.381-.358 15.06-3.075 19.8-1.175 4.741 1.9-6.696 3.887-9.393 5.347-2.697 1.46-3.645 2.4-6.781 3.41-3.137 1.012-6.133 1.51-11.9 2.61-5.766 1.102-14.448 2.544-22.694 3.996-8.246 1.452-21.898 2.954-30.255 3.891-8.357.938-12.744-.15-20.55-.968-7.806-.819-15.309-1.967-26.227-3.939-10.918-1.972-27.465-5.703-39.262-7.888-11.798-2.184-20.16-3.672-31.515-5.216s-24.724-3.447-36.593-4.045c-11.869-.599-20.84-1.192-34.485.461-13.644 1.653-34.716 6.933-47.04 9.418-12.325 2.485-17.06 4.263-26.907 5.49-9.847 1.227-23.023 1.564-32.024 1.855-9 .291-15.334-.65-21.956-.11-6.623.542-12.604 3.256-17.595 3.344-4.992.087-7.917-1.17-11.707-2.829-3.79-1.66-5.694-4.237-10.703-6.982-5.01-2.746-13.331-7.412-19.298-9.46-5.967-2.047-10.848-2.566-16.135-2.699-5.286-.133-10.167 1.274-15.25 1.911"/><path d="M334.966 145.155s-1.175 21.367-1.554 30.692c-.38 9.325-1.337 18.36-.777 25.253.559 6.893 1.156 10.28 3.108 15.93 1.951 5.649 4.833 11.49 8.935 17.482 4.103 5.993 11.687 12.79 15.93 17.872 4.241 5.081 6.973 7.934 9.712 12.432s5.543 9.522 6.605 14.375c1.061 4.853.274 8.279 0 13.986-.274 5.707-1.27 15.746-4.35 19.62-3.078 3.872-5.409 7.872-8.183 10.294-2.774 2.423-11.296 4.019-15.886 6.108-4.59 2.09-13.62 6.125-11.232 6.532 2.387.407 5.787-.324 8.248-.421 2.461-.098 4.78-.256 6.095-.268 1.315-.013-1.266.576.933.721 2.2.146 8.415.143 12.258.151 3.843.008 8.983-.253 11.609-.63 2.626-.376 2.827-.777 3.98-1.603 1.154-.825 1.943-1.264 2.744-3.207.8-1.942-.097-6.884 1.943-8.159 2.039-1.274 2.64 5.907 4.273 4.274 1.633-1.633-.258-4.722-.777-7.77-.519-3.049-1.452-6.534-2.33-10.49-.88-3.956.972-10.684 1.553-16.317.581-5.634 2.393-11.223 1.943-17.483-.451-6.261-4.453-13.124-5.051-19.426-.598-6.302.723-13.471 1.166-17.871.443-4.4 1.368-5.373 1.165-8.548-.203-3.174-1.394-6.258-2.72-10.1-1.325-3.843-6.554-6.521-5.439-12.822 1.116-6.3 10.557-11.33 16.706-17.871 6.15-6.542 16.425-14.43 20.203-21.368 3.778-6.94 4.273-17.483 4.273-17.483M225.813 221.12s5.862 9.514 10.563 14.712c4.7 5.198 11.398 11.991 16.947 16.542 5.548 4.55 7.408 9.292 8.471 10.925 1.648 2.529 1.304 4.643-1.824 8.246-3.13 3.604-4.934 6.987-6.474 9.39-1.54 2.404-3.724 6.698-4.762 8.964-1.037 2.267-3.188 5.59-4.279 8.444-1.09 2.855-1.877 6.696-3.063 8.951-1.187 2.255-1.826 2.938-3.474 4.68-1.648 1.74-6.14 3.643-6.578 5.471-.467 1.954 3.859-1.195 4.595-.466.736.729-1.253 1.774-1.085 3.169.275 2.269 7.238-4.045 9.296-5.874 2.057-1.83 1.628-1.532 1.782-2.046.471-1.566.27.56 1.326 2.03 1.392 1.938 4.113-4.088 5.787-8.187 1.674-4.1 6.21-10.013 9.427-15.543 3.218-5.53 7.818-8.67 12.002-13.33 4.184-4.66 5.366-2.982 6.13-10.773.764-7.792-6.646-23.914-10.822-32.7-4.177-8.788-13.327-23.634-13.327-23.634M172.743 160.59s-2.778-4.182-3.68-6.359c-.903-2.176.284-5.757-1.754-6.547-2.039-.79-2.04 1.493-5.284 3.799-3.242 2.305-9.421 6.928-14.204 9.986-4.783 3.058-10.496 5.12-14.454 8.37-3.958 3.248-6.377 6.987-9.279 10.518-2.902 3.532-5.562 6.68-8.142 10.642-2.58 3.962-5.491 9.578-7.2 13.128-1.709 3.55-2.683 5.3-3.335 7.984-.651 2.684-1.022 5.459-.65 7.876.373 2.418.543 5.857 2.544 6.236 2.002.379 3.04-3.434 3.8-4.357.761-.924-.103-.982.856-1.1.959-.118 2.059 1.964 3.594 2.774 1.536.81 3.065 1.313 5.587 1.796 2.52.483 6.095.77 9.505.632 3.41-.138 5.65-.69 10.838-1.609 5.186-.919 14.9-2.747 20.224-4.169 5.323-1.422 7.589-2.428 11.79-3.89 4.2-1.461 9.45-4.02 13.403-4.906 3.954-.886 7.123-2.892 10.43-3.464 3.306-.571 7.668-2.132 10.249-3.886 2.581-1.754 4.266-3.063 4.266-3.063"/><path d="M341.887 284.426c-1.5.97-4.343 3.162-6.647 4.765-2.304 1.603-5.317 4.391-7.419 5.85-2.102 1.46-4.446 3.104-5.7 3.947-1.253.843-.948.39-1.82 1.112-.872.721-2.356 1.982-3.39 3.196-1.032 1.214-1.927 2.55-2.772 4.046-.845 1.495-1.06 3.14-2.278 4.895-1.22 1.755-3.335 4.002-4.957 5.525-1.62 1.524-3.196 2.68-4.727 3.573-1.53.894-3.1.945-4.376 1.741-1.276.796-2.157 2.09-3.147 2.951-.99.862-1.924 1.089-2.787 2.217-.864 1.128-1.989 3.479-2.282 4.407-.294.929.3.531.735.482.435-.05.903-.554 1.58-.744.675-.19 1.775-.173 2.435-.385.66-.211.97-.576 1.456-.864.486-.289.648-.926 1.457-.865.808.06 2.14 1.073 2.935 1.196.796.123.811-.27 1.582-.5.77-.23 2.022-.686 3.041-.877 1.02-.192 2.328.038 3.046-.268.719-.306-1.125-.45-1.588-.353-.462.096-.564.51-.846.86-.283.349-.68.74-.844 1.226-.165.486-.643 1.325-.11 1.586.533.26 1.294-.579 1.823-.746.53-.168.954-.17 1.34-.254.385-.085.608-.147.973-.252.365-.104.808-.188 1.216-.375.408-.188.703-.63 1.214-.741.51-.11.92.28 1.708.108.787-.172 2.208-.83 2.917-1.12.71-.29.79-.33 1.337-.62.547-.289 1.519-.726 1.942-1.112.423-.387-.039-.729.48-1.102.517-.372 1.793-.617 2.43-.994.637-.376.958-.533 1.332-1.23.373-.697.693-2.174.831-2.81.139-.637-.19-.415-.007-.976.182-.56.739-1.59 1.079-2.325.34-.734.8-1.734.959-2.08.16-.347 1.684-2.94 1.688-2.452.004.487 2.138-2.008 2.543-2.215.405-.206 1.582-.461 2.43-1.238.846-.777 1.398-2.158 2.534-3.312 1.135-1.154 2.68-2.417 4.24-3.57 1.558-1.151 3.194-2.015 5.095-3.331 1.9-1.316 4.704-2.956 6.304-4.56 1.6-1.605 2.577-3.599 3.132-4.902.556-1.304.276-1.826.101-2.684-.174-.857-.303-1.66-1.115-2.308-.812-.647-2.3-.976-3.424-1.314-1.124-.338-2.302-.672-3.298-.706-.996-.034-1.454-1.848-2.23-1.596-.777.252.897.594-.603 1.563z"/><path d="M329.606 306.097c-.518.771-.933 1.395-1.248 2.27-.316.876-.451 2.177-.626 2.926-.174.748-.427.903-.421 1.566.006.663.341 1.434.455 2.312.114.878.144 2.246.226 2.946.083.699.074.955.268 1.242.195.287.485.427.76.274.277-.153.378-.379.493-.968.115-.59.139-1.907.189-2.51.05-.602-.137-.802.112-1.105.25-.302.968-.367 1.161-.44.194-.073 1.32-1.672 1.548-2.306.228-.634 1.457-5.298 1.458-5.632 0-.333.519-1.41.006-2.002-.512-.592-1.635-1.207-2.534-.914-.9.293-1.33 1.57-1.847 2.341zM342.432 286.573c-.426-1.417-1.2-3.7-2.473-6.017-1.274-2.318-3.208-7.023-5.22-9.644-2.013-2.62-4.187-5.19-6.452-7.776-2.265-2.586-4.208-5.626-6.507-8.515-2.299-2.89-5.056-6.974-6.624-9.566-1.568-2.591-2.063-4.46-2.753-5.932-.69-1.472-1.068-1.826-1.385-2.899-.318-1.072.055-2.182-.497-3.462-.552-1.28-2.303-2.723-2.732-4.027-.428-1.304.048-1.915.305-3.356.258-1.442-.236-3.559 1.236-5.273 1.473-1.714 4.735-3.61 6.944-4.25 2.21-.641 3.384.263 5.627.603 2.244.34 5.585.634 7.828 1.436 2.243.8 4.056 2.364 5.41 3.292 1.354.927 2.044 1.247 2.692 2.255.649 1.008.258 1.638 1.031 3.532.772 1.895 2.694 4.93 3.594 7.809.9 2.879 1.586 6.499 1.763 9.334.176 2.836-.63 5.303-.716 7.515-.086 2.212-.409 3.047.198 5.732.608 2.686 1.914 7.046 3.412 10.23 1.498 3.185 4.187 6.152 5.51 8.74 1.322 2.589 1.913 4.696 2.38 6.699.468 2.002.788 3.784.402 5.215-.385 1.432-.774 2.336-2.523 2.658-1.748.322-5.253-.124-6.945-.912-1.692-.788-1.892-2.405-2.401-3.44-.51-1.036-.678 1.435-1.104.019z"/><path d="M319.726 229.397c-2.71.585-7.52 3.621-10.446 1.392-2.926-2.23-2.45-6.07-2.5-11.257-.052-5.188.901-12.289 2.2-19.471 1.298-7.183 4.474-18.613 5.575-23.549s-2.085-3.382 1.028-6.057c3.113-2.675 8.522-6.235 16.255-8.795 7.733-2.56 19.833-5.04 29.705-6.417 9.872-1.378 21.388-1.895 29.358-1.827 7.969.068 14.679-3.328 18.266 2.236 3.588 5.563-.591 15.03-3.238 21.068-2.646 6.04-7.584 9.662-12.012 13.733-4.428 4.071-8.351 6.708-14.395 10.548-6.045 3.84-15.302 8.986-21.813 12.454-6.512 3.468-11.85 6.03-17.233 8.341-5.383 2.31-11.568 4.237-15.026 5.504-3.459 1.267-3.014 1.512-5.724 2.097zM230.184 225.382c1.23 6.027 5.957 14.12 9.083 18.65 3.391 4.911 7.413 8.425 10.619 12.437 3.206 4.013 11.444 10.298 6.51 11.795-6.76 2.05-8.072 2.41-12.946 3.709-4.874 1.299-12.413 3.321-16.189 4.056-3.776.734-4.606 1.071-6.463 1.863-1.857.792-2.572 1.448-4.213 2.943-1.64 1.495-5.393 4.332-6.48 5.832-1.086 1.5-1.05 1.504.215 2.392.764.536-2.422 3.066-3.282 4.841-.861 1.776-2.108 4.104-1.75 5.537.359 1.433.101 1.913 1.57 1.499 1.467-.415 3.02-1.81 4.16-3.117 1.142-1.308 3.26-1.982 4.811-2.775 1.551-.793 2.935-2.192 4.2-1.831 1.266.362-1.587 2.626-.078 2.617 1.51-.01 3.688-1.752 5.865-2.651 2.177-.9 3.336-1.404 7.19-2.742 3.855-1.337 10.655-3.82 15.933-5.28 5.278-1.461 11.904-2.384 15.697-3.473 3.792-1.089 5.343-.152 6.966-3.033 1.622-2.882 1.701-5.962 1.58-12.141-.12-6.18-1.014-17.994-2.298-24.73-1.284-6.738-3.569-10.273-5.353-15.41"/></svg>