<svg xmlns="http://www.w3.org/2000/svg" xmlns:dc="http://dublincore.org/documents/dcmi-terms/" height="33.288" version="1.2" viewBox="0 0 33.693 33.288" width="33.693" overflow="inherit"><metadata><dc:description>Silhouette of Chaetognatha, processed by PhyloPic Tools (https://github.com/eweitz/phylopic-tools)</dc:description><dc:source>http://phylopic.org/image/345d2e9d-c443-4579-8f5b-c9b15ab55c84</dc:source><dc:creator>Michelle Site</dc:creator><dc:license>http://creativecommons.org/licenses/by-nc/3.0/</dc:license></metadata><g fill="#010101" stroke="#020202" stroke-width=".25" stroke-miterlimit="10"><path d="M33.293 4.672c-4.161.895-7.436 5.669-11.161 9.711-1.382 1.499-2.636 2.635-3.625 3.801-1.183 1.391-2.565 2.266-2.742 2.455-.722.769-3.65 4.576-3.65 4.576s-.86 1.323-4.186 2.017c-1.167.231-1.366 1.158-1.366 1.158s-.044.364-.877.61c-.831.241-.878.545-1.342 2.613-.362.66-1.416 1.09-2.272 1.325-.614.17-1.367.37-1.715.066-.307-.267-.254-.965-.152-1.868.085-1.802 1.534-2.225 1.534-2.225s2.266-.354 2.466-1.345c.199-.992.684-.87.878-.87.194 0 .721.575 1.279-2.617.261-.816-.232-1.51 2.899-3.467 4.175-2.071 3.752-3.736 6.179-5.383 2.194-1.585 10.604-8.998 12.79-11.303.295-.31.264-.689.286-.798.175-.858.28-1.95.4-2.198.121-.25.5-.699.5-.699"/><path d="M29.586 1.384s.764-.174 1.378.119c.389-.289.76-.108.76-.108s.179-.275.326-.323c.146-.047.194.131.194.131s-.133.354.287.52c0 0 .438.019.404.148-.033.128-.325.321-.325.321-.065.389-.037.68-.037.68s-.032.097.017.274c.047.178.124.519.124.519l.741.782s.339.372-.161.224c-.502-.147-1.066-.394-1.195-.523-.13-.13-.663-.182-.663-.182-.76.044-1.467-1.092-1.467-1.092s-.27-.926-.267-1.217c-.114-.112-.271-1.149-.271-1.149s-.22-1.233.92.731"/></g></svg>