<svg xmlns="http://www.w3.org/2000/svg" width="996" height="900" viewBox="0 0 996 900"><path d="M0 167h1c-2.719-18.464 3.464-29.381 12-39 2.862-3.225 2.911-4.195 7-7 7.205-4.942 15.291-10.265 22-17 1.116-1.12 1.709-2.727 3-4 4.892-4.823 9.825-10.532 16-16 4.874-4.316 13.364-7.05 19-12 4.872-4.278 7.914-9.946 13-14 2.081-1.659 4.717-2.254 7-4 5.118-3.915 11.281-9.082 18-13-2.485-7.515-7.496-12.504-8-22 7.225-4.241 8.697 5.071 13 7 2.626-.707 1.974-4.693 4-6 2.322 2.415 3.446-.792 5-2h7c3.821-4.552 1.439-9.765 4-17 10.426 1.574 12.701 11.299 20 16 4.043-.934 12.118-3.971 15 0 6.289-3.877 18.003-.771 25-1 1.895-.062 5.612-.324 7-1 2.045-.996.684-2.813 3 0 2.689.689 1.933-2.067 3-3 2.555 1.982 4.598-1.038 6 1 1.178-.061.502-1.165 0-1 7.452-2.444 17.315.547 24 3 1.172-.162.843-1.823 1-3 4.718 5.912 14.617 2.305 21 5 2.099-.279-1.449-2.671 1-4 1.357.31.83 2.504 1 4 4.551-2.09 11.511-2.868 13 3 3.059.725 2.941-1.725 6-1 1.238.412 2.497 2.453 4 3 2.007.731 5.092-.318 6 0 1.057.37.792 1.61 2 2 1.718.555 3.347-.473 3 2 3.422-.912 6.196-2.471 10-3 .75 3.417-4.063 1.271-3 5 1.273 2.167 3.262-3.326 7-2 .109 2.488 1.874 3.096 0 5 2.95-1.405 8.629 1.172 8 4 1.686-1.647 4.494-2.173 6-4 3.297 2.72-4.114 3.152-4 6 3.477 2.759 5.502-4.459 10-4 .422 3.422-2.995 3.005-4 5 2.466 3.043 5.113-2.154 7-3 2.215 1.661-.19 5.4 4 3 .877 3.21-2.593 2.073-3 4 1.35 1.284 7.588-1.029 9-3 4.173 2.438 9.557 2.127 15 1-.625 4.042-6.021 3.312-7 7 7.338-2.451 18.889-9.383 26-3 6.167.143 7.199-7.828 13-5 1.872-3.795 8.396-2.938 11-6 1.313.354 1.573 1.761 3 2 3.766-.234 4.234-3.766 8-4 .282 1.615-.945 1.722-1 3 8.291.624 10.169-5.165 17-6-.354 1.313-1.761 1.573-2 3 8.824-1.176 16.183-3.817 24-6 2.881 1.786 7.15 2.183 9 5 5.199-.135 8.801-1.865 14-2 .467 2.134-1.429 1.905-3 2 .756 3.61 3.148 6.18 7 4 3.14-.473 2.642 2.691 5 3 5.331-.664 8.909.424 11 3 3.027-1.376 3.572.476 8 0-1.452 4.785 4.182 2.485 7 3 .368 1.701-.78 1.887-2 2 1.686 4.506 6.796.069 11 1 .551 2.217-1.909 1.424-2 3 1.172 3.929 7.309.215 12 1 2.695.451 5.596 2.642 7 5h12c.093 3.093-3.02 2.98-6 3 3.421 3.579 13.063.938 18 3-.247 1.086-1.988.678-2 2 2.038 2.295 8.305.362 12 1 .368 1.701-.78 1.887-2 2 .24 4.759 5.817 4.183 11 4-.111 1.889-3.306.694-3 3 .965 2.035 3.84 2.16 7 2-.344 3.677 3.644 3.023 6 4-.749 1.889-2.984.694-1 3 11.962 3.372 20.568 10.098 31 15 2.405 3.928 6.09 6.577 12 7 .898 1.768 2.414 2.919 3 5h5c2.338 3.662 6.129 5.872 8 10 10.116 4.216 21.16 10.124 31 16 3.398 2.03 7.345 4.215 9 9 27.383 17.468 56.025 32.579 82 52 2.171 1.623 4.456 3.313 7 5 5.182 3.437 12.224 10.296 18 15 5.635 4.589 11.314 8.824 17 13 2.971 2.182 4.936 4.671 8 7 2.496 1.896 6.35 2.933 9 5 6.686 5.214 12.301 12.289 19 18 1.029.878 2.897.972 4 2 2.97 2.77 4.452 5.731 8 9 3.332 3.07 7.645 6.705 11 11 13.113 4.553 18.975 16.359 30 23 1.466 4.868 3.881 8.786 8 11 1.56 8.28 10.312 16.595 13 25 1.987 6.215.395 13.479 5 19 6.845 2.822 8.812 10.522 15 14-.127 1.793 1.225 2.109 1 4 8.28 7.386 11.561 19.772 22 25-2.6.65-2.62.67-4 4 1.956 2.71 3.879 5.454 8 6-1.117 1.23-.871 2.054 1 2-.846 2.356-4.387-.832-6-1 1.398 3.369 6.809 4.268 4 9 1.662 2.005 2.686 4.648 6 5 .127 1.793-1.225 2.109-1 4 9.515 10.152 7.952 31.381 16 43 .478 1.141-1.855.565-2 1-.256.767 1.934 1.151 2 1-.666 1.525-5.742 6.058 0 9-.021 2.768-3.082-.049-4 0-2.104.111-1.271 1.844-2 2-.415.089-2.437-1.703-2-2-3.015 2.054-3.11 4.981-4 11-1.23-1.117-2.054-.871-2 1-3.905-.095-3.959-4.041-6-6-3.196 1.427-2.185 6.264-2 9 .108 1.61 1.45 1.802 2 4 .967 3.867.294 10.84 4 12-1.672 2.877-4.049-1.856-4-4-2.377 3.383 4.838 13.787-2 16 1.597 6.736 2.045 14.622 4 21-2.381 3.274-2.852-3.736-4-5-3.731 1.608.162 9.651 1 13-.56 2.896-1.56-1.534-3-1-3.089 4.463.949 10.354 1 15-3.477-5.607-7.025 4.543-4 8-.31 1.357-2.504.829-4 1 .061 6.671-1.62 10.063 0 16-3.447-1.871-3.154 6.157 0 7-1.166 2.677-2.614-2.604-4-3-4.862 5.072 1.524 12.958 0 21-2.355.022-2.944-1.723-6-1-4.532 4.606 1.829 9.224 0 17-2.306.306-1.111-2.889-3-3-1.885 2.276-1.643 10.933 1 12-.293.546-4.027.618-1 3-.309 2.114-3.473-1.051-3-3-2.979 4.237.521 9.406-1 18-1.85-.15-.613-3.387-2-4-1.859.403-4.054 7.46 1 6-.227 1.273-2.984 1.311-3 0-2.784.549 1.404 8.071-4 6-1.022 1.44 1.97 2.138 1 5-.079.232-1.283-1.343-1-2-1.587 3.68-.051 4.741 1 9 .319 1.293-.944 3.195-1 3 .916 3.196 3.349 4.599 4 6-.729 2.239-3.009-2.209-5-2-2.151 1.235 1.984 3.395 2 4 .012.481-4.898.898 1 4-.56 2.896-1.56-1.534-3-1-1.98.775-.54 6.445 2 6-4.629-.744-2.726 5.454 1 7-.903 2.709-2.237-2.286-4-2 .79 3.465-.827 6.346 1 10 .202.405 1.871.677 2 1 .473 1.19-1.917 1.788 0 4 .03.035 2.077 1.205 2 1 .439 1.173-1.964.584-2 1-.347 4.024 4.156 7.352 10 8-2.729 3.229 3.961 3.443 4 7h6c3.235 1.151-2.686 1.132-4 1 2.668 3.992 6.822 2.031 12 2-1.117 1.23-.871 2.054 1 2-1.011 2.815-4.247-.276-6 0 1.404 2.929 5.592 3.075 10 3-1.2 1.313-.39 1.573 0 3 14.585-2.252 18.707 5.959 24 13v9c-1.584 7.416-3.432 14.568-3 24-1.151 3.235-1.132-2.686-1-4-1.506 5.827-4.468 10.199-4 18-2.594-4.692-3.274 3.827-3 8-1.172-.161-.844-1.823-1-3-2.455 5.558-10.049 11.268-7 19-.013 2.35-2.729-.365-2-2-2.815 1.011.276 4.247 0 6-.934-.733-1.515-1.818-2-3-2.422.911-2.647 4.019-3 7-1.869 1.613-4.055 4.41-6 7-2.659 3.54-5.737 5.959-4 10-.973-.027-.775-1.225-1-2-13.349 9.596-28.384 15.946-52 16-8.49-7.987-19.428 2.607-29 3-2.885-3.519-.107-11.557-8-12 3.962-11.372 11.352-19.314 23-23 2.889-1.445 3.858-4.809 6-7 4.572-1.409 17.895-6.976 19-13 .602-3.279.167-9.266-6-10 2.074-5.741-3.752-3.581-3-8-5.137-2.196-7.226-7.441-11-11-.973.027-.775 1.225-1 2-2.512-3.488-4.638-7.362-8-10-2.088.577 1.441 3.776 1 6 .488 2.884-3.96-8.086-6-10-1.32-1.239.896 4.214-2 1-1.066-1.184-1.9-4.334-4-6-1.067-.847-.841 2.964-1 3-1.586.358-1.85-3.773-2-4-1.08-1.636-2.954-2.227-5-4 .112.098-1.521-2.084-1-2-.62-.1-1.633 2.595-1 3-2.16-1.383-1.499-7.325-6-5 .275-4.275-2.902-5.098-5-7-.479 3.146 1.424 3.909 2 6-1.158 1.092-3.936-4.682-4-8-2.039-1.745-1.961.745-4-1-1.183-5.817-6.351-7.649-8-13-4.641-1.594-10.665-9.51-15-15-1.393-1.764-3.622-3.403-4-4-1.278-2.019-.902-5.72-3-7-2.026-1.236-.312 7.672-2 2-.537-1.805.041-2.864-1-4-2.182 2.265-6.787 10.111-2 13-.065 2.157-6.502-1.529-3 2-.09 2.195-2.109-.964-2-1-2.947.979-5.952 12.226 0 12-4.217 4.669 1.088 15.01 6 17-2.814.657-1.07 7.322 3 7-.536 1.354-2.574.462-3 2-.841 3.039 2.566.887 3 2 .57 1.463-2.95.709 0 4 2.281 2.545 12.629 14.619 12 21-.18 1.821-2.504 3.911-5 7-1.706 2.111-3.498 5.44-5 7-2.158 2.241-5.576 3.511-7 5-.484.507.509 2.523 0 3 .118-.111-4.821-5.31-3 3-2.7-3.603-1.653 1.124-3 2-.175.113-4.188-1.948-3 3-1.313-1.2-1.573-.39-3 0-.7 3.078-.7 1.922 0 5-1.105-4.546-7.717 1.136-5 3-1.527 2.189-2.441-.971-5 1-3.39 2.61-5.332 3.265-5 8-2.007-.34-3.129.205-3 2-2.487-.15-.292-3.387 0-4-.805.529-1.623 1.043-3 1-2.169-.169-.453 3.547-1 5-1.172-.161-.844-1.823-1-3-4.675 1.11-.019 7.482-3 3-1.605-2.413-1.396 2.55-4 1-.17 2.503 1.536 3.131 3 4-1.614 3.125-3.166-2.052-5-2-1.32 2.503 3.953 3.131 1 4-.983 2.301-5.029-2.262-4-2-1.481-.377-1.415 3.563-3-1-2.595-.373 1.924 6.897-1 4 .17-2.503-1.536-3.131-3-4-1.401.354-.086 1.761 1 2-2.188 2.037-4.04-2.77-9 0-3.274 1.829.519 1.276-3 0-2.27-.823-4.584-.852-4 2-1.778-.889-2.542-2.792-6-2-2.953.869 2.32 1.497 1 4-2.754-1.715-5.088-6.249-7-1-1.484-.437.395-1.279 0-3-3.002 3.81-3.713 1.136-9 1-1.135.19-.556 1.003 0 1-1.064 2.574-3.387-1.831-5-2-6.119 1.699-10.68-3.373-16-4-6.341-.747-12.981 3.335-19-1 1.716-1.617 2.484-4.183 2-8-1.431-2.902-6.188-2.479-8-5 3.188-8.479 13.517-9.817 21-14h9c1.983-7.684 14.023-5.311 17-12 3.107 3.965 4.018-.597 9 0 1.484-.437-.395-1.279 0-3 3.605 1.226 9.768-2.623 13-5-.809-7.524-2.122-14.545-3-22-2.959 8.692-.02-3.786-6-3v-3c-3.714-2.36-4.337-7.969-6-12-.347-.841-.969-.881-2-1 .936-11.233-6.404-18.777-8-30-.183-1.287.28-2.733 0-4-.974-4.407-2.285-6.703-3-13-.741-6.531-4.298-13.597-5-20-1.334-12.164-1.882-26.835 0-40 .478-3.342 1.475-4.991 1-9-1.376-11.627 3.869-24.277 1-35-6.514.181-8.778-3.889-13-6 1.285 3.382 6.217 3.117 6 8-2.591-3.742-6.461-6.205-9-10-9.46-.54-10.969-9.031-18-12-1.484.437.395 1.279 0 3-1.975-.691-2.666-2.667-3-5-3.123-1.207-4.951 1.183-6-3-1.246 4.031-3.133-1.816-6-5-1.485-1.649-4.09-4.651-6-6-.643-.453-1.26.805-1 1-3.387-2.553-7.169-7.104-11-10-3.356-2.537-7.001-3.761-10-6-3.468-2.589-7.209-4.571-8-8 .123.532 1.693.613 2 1-.917-1.157-2.42-1.408-2-1-2.968-2.883-4.408-7.421-8-8-2.979 2.085 2.515 4.073 2 7-3.28-2.053-3.818-6.848-6-10-2.578.241 1.373 1.721 0 4-5.043-7.291-10.147-14.52-17-20-2.088.577 1.441 3.776 1 6 .47 1.756-1.516-1.165-2-2-1.023-1.762-1.311-5.036-2-6-4.015-5.617-12.339-10.578-13-18-2.931.847.598 3.22 0 5-2.361-4.306-5.599-7.734-8-12-3.397.677-.98 3.323 1 4-.91 2.735-3.504-1.774-5 1 1.444 3.556 4.051 5.949 7 8-.903 2.709-2.237-2.286-4-2-1.654 2.403 2.714 3.138 3 4 .091.273-4.395 3.566 1 5-.161 1.172-1.823.844-3 1 1.712.955 2.015 3.318 4 4-1.997 8.77 2.726 17.389 6 24-1.889-.111-.694-3.306-3-3 2.176 5.666-.462 6.058 4 11-1.009 2.52-1.729-3.489-4-3 .298 5.368 4.521 6.813 6 11-2.325 2.258-2.662-5.955-6-6-.253 3.586 3.003 3.664 3 7-4.306-2.955.187 5.173 1 10 1.475 8.754.246 20.393 5 24-1.675 1.659-.796 5.871-1 9 .437 1.23 1.279 2.054 3 2-4.741 2.209-1.137 5.895-1 10 .123 3.706-2.569 11.706 2 15-.733 1.78-1.818.145-3 0-.238 4.238.079 7.921 3 9-.733 1.78-1.818.145-3 0 .152 4.515 3.498 5.835 4 10-2.291-1.376-2.349-4.984-5-6 1.353 3.499 1.595 7.229 3 10 .307.604 1.891.722 2 1 .695 1.773-1.954 5.711 2 6-1.712 3.518-2.015-2.509-4-2 .01 4.656 2.219 7.114 4 10-.558 2.068-3.869-1.349-3-4-2.443.638-.151 4.675 1 5-3.076.92-2.683 8.935 0 10-2.989.426-1.096.392-1 6 .076 4.489-1.976 12.861 1 18 .215.37 1.998 1.991 2 2 .444 2.148-1.365 3.747-1 5 .087.298 2.997 2.731 3 3 .021 1.947-2.358-.634-2-1-2.267 2.317-.457 5.885 0 11 1.002 11.223 2.947 19.128 4 29 .968 9.076 5.568 18.231 7 27 .547 3.347-.181 7.062 0 10 .952 15.505 3.459 29.059-1 43-5.202 5.333-20.591 7.653-25 0a79.033 79.033 0 0 1-6 7c-16.516 2.182-22.977-5.689-27-16-7.073 1.112-11.739 5.031-18 4-2.606-.43-14.188-8.759-16-14-2.628-7.603.286-17.514 1-27 .759-10.082.35-22.646 1-31 1.389-17.852 4.993-38.071 3-58-.403-4.033-1.809-10.431-3-17-1.387-7.646-3.746-15.405-5-25-1.628-12.456-2.761-23.88-7-35-1.469-3.854-3.313-10.703-5-17-4.348-16.235-9.577-37.043-13-55-1.656-8.686-4.259-18.476-5-28-1.051-13.507 2.23-31.153-2-42 1.654-7.668.124-10.159-4-17-1.715-2.845-3.377-6.301-5-9-.621-1.033-1.258-.234-2-1-.886-.913-.257-2.913-1-4-.397-.581-2.921-1.825-3-2-1.518-3.396-.761-7.069-2-11-.997-1.336-2.703-1.964-3-4-2.473 19.143 6.018 35.979 11 51 1.61 1.806-1.773 3.279-2 5-.599 4.535 2.905 10.669 3 17 .105 7.019-4.322 12.81 0 19-2.398.521-.896.001-2 5-.354 1.602-2.686 2.923-3 4-.497 1.701 1.015 2.652 1 3-.122 2.919-2.047 2.774-2 4 .144 3.736 2.048 6.265 3 10-.934-.733-1.515-1.818-2-3-4.063-.042-2.43 5.071-3 8-.007.036-4.956 4.841 0 6-1.704.629-1.646 3.021-3 4-.18 1.979.238 4.029 0 6-.535 4.423-3.583 8.02-3 10-.013 2.35-2.729-.365-2-2-5.181 1.373-.187 7.39 0 12-.429 2.513-2.154-1.663-2-3-.89.615-1.789 1.209-2 0-4.639 5.564-2.071 12.676-4 20-1.762-.905-1.652-3.682-4-4-4.868 2.744-.04 9.853 0 14-1.889-.111-.694-3.306-3-3-1.889.749-.694 2.984-3 1-1.653.76-1.653 8.24 0 9-.42 2.246-5.306.027-6 2 1.417 6.809-2.595 13.113 3 15-2.103 3.613-3.227-1.991-5-2 .329 2.338 1.202 4.131 2 6-.831 2.036-2.74-3.166-3-5-3.633 1.135-3.871 7.205-3 10-5.287-1.227-2.333 5.071-2 7-1.889-.111-.694-3.306-3-3-1.959.754-1.491 7.396 1 7-2.92.146-1.624 1.616-6 3 .938 4.057 1.771 10.134 0 14-3.36 1.026-1.557-3.11-2-5-5.035 3.152-3.962 9.1-6 17-.667 2.588-4.001 5.547-5 8-.435 1.068.975 2.064 1 2-.489 1.245-3.514 3.796-1 7-3.991-5.535-2.419 3.517-5 3-.169 2.503 1.536 3.131 3 4 .306 2.031-2.889-.205-3-1-3.893 1.834.366 5.639-4 7 .138 1.862.658 3.342 2 4-.354 1.401-1.761.086-2-1-3.254 1.162 2.724 5.307-3 4 .443.891.878 1.788 2 2-3.521-.397-2.2 6.682-5 4 2.036 2.18-1.974 4.003-2 5-.017.631 1.945 1.22 2 1-.302 1.209-3.217 1.29-2 4 .352 3.314 2.995 4.338 5 6-1.912 3.117-3.578-2.327-5-3 1.971 4.595-1.772 8.871 2 11-.733 1.78-1.818.145-3 0-2.533 2.756 2.925 3.598 3 4-.235-1.263-4.951 8.69 0 9-.56 2.896-1.56-1.534-3-1-2.221.416-.96 5.483 1 5-3.435 2.122-.39 11.423 0 16-3.495-6.153-.317 5.396-1 7 .063-.149-2.001-1.017-2-1 .255 4.139 5.202 8.554 0 8-2.997 16.516 9.154 40.712 0 57 .257 2.077 4.394.273 5 2 2.955 6.993-1.123 13.706-2 20-7.292 4.708-10.838 13.162-20 16h-2c-2.873-2.461-7.655-3.012-10-6-4.81 2.523-11.222 3.445-19 3-5.579-5.421-11.746-10.254-13-20-3.736-1.069-2.85 2.483-6 2-7.694.027-10.479-4.854-16-7-.317-4.394-.878-10.863-5-14-1.547-30.103 7.82-57.351 18-79-1.476-11.176 1.466-24.795-1-34-.236-.881-1.9-2.512-2-3-1.179-5.748-1.232-13.057-2-18-3.092-19.908 7.536-32.676 11-50 3.398-16.993 8.727-37.719 14-54 .731-2.256.302-4.96 1-7 1.294-3.783 6.059-11.721 7-17 .356-1.996-.457-4.189 0-6 .129-.511 1.904-1.65 2-2 1.69-6.119 2.253-11.78 4-18 2.348-8.36 5.453-16.824 8-26 1.238-4.46 3.008-8.841 4-13 2.077-8.709 3.912-16.031 7-25 2.293-6.66 4.149-13.101 9-18-.409-7.382.545-14.515 0-22-1.768-24.293-11.436-47.869-14-72-.253-2.379.294-4.703 0-7a1236.318 1236.318 0 0 0-11-70c-1.74-9.312-5.039-18.706-6-28-.149-1.444.982-4.118 1-4-.805-5.229-3.52-9.902-4-15-4.31-1.31-1.239 4.761-5 4 .886-8.219-3.661-11.006-4-18-.162-1.172-1.823-.843-3-1 .802-3.469-1.489-3.844-1-7-2.002-2.247-2.921-1.603-6-4 1.494-8.828-3.128-11.539-3-19 .306-1.212-2.889-3.448-3-1-4.014-1.653-.422-10.912-7-10 1.208-7.458-6.441-10.756-11-15-1.574-1.466-.524-2.215-4-1 .957-2.711-2.796-2.251-4-3-1.176-.731-1.733-2.363-3-3-3.042-1.529-7.417-2.417-11-4-1.943-.858-4.671-1.286-6-2-1.485-.798-4.987-6.521-5-2-2.306.306-1.111-2.889-3-3-2.578.241 1.373 1.721 0 4-2.207-.793-1.299-4.701-4-5-2.031-.306.205 2.889 1 3-1.74 1.349-4.995-4.295-6-7-4.329.098-6.274-2.313-10-5-3.141.686-4.086-.115-5 1-2.271-.729-2.991-3.009-4-5-5.424 2.692-7.818-3.429-12-5-4.325 2.303-5.069.232-8 0-.964-.076-.783 1.307-1 2-3.685-4.446-10.492-5.451-16-5-2.056.168-2.028 1.75-3 2-.927.239-2.226-.907-2-1-3.648 1.506-4.623 4.538-8 4 .658 1.342 2.138 1.862 4 2-1.333 2.844-4.447-.771-6-1-1.883 1.45-5.197 1.47-6 4-.464 3.131.869 4.464 4 4-2.688 3.265-5.589-1.677-8-2-.044 1.71.743 2.59 2 3-.111 2.448-3.306.212-3-1-2.497.691 1.856 2.667 1 5-2.043-.957-3.957-2.043-6-3-1.401.354-.086 1.761 1 2-.658 2.995-2.138-.956-4 0-1.841 5.216-8.044.638-9 8-3.233 1.017-5.233-.709-6 4-2.279.279-3.759-.241-4-2-2.114.309 1.05 3.473 3 3 1.607 2.482-5.75-.931-6-3-2.954.87 2.32 1.497 1 4-2.323-.677-2.677-3.323-5-4 2.912 4.357-2.992-1.193-2 3-1.883-2.52-5.197 2.1-6-2-1.172.162-.843 1.823-1 3-12.562-1.945-20.787 3.594-37 2-.933 1.067-3.689.311-3 3-1.778-.888-2.542-2.792-6-2-1.258.247-1.009 1.988 0 2-5.576 2.104-17.425 3.224-17 8-3.667.249-9.48 3.179-14 2-1.086.247-.678 1.988-2 2-14.585-1.252-18.369 8.298-32 8-2.055-1.612-2.319-5.014-2-9-3.98-1.354-8.807-1.859-11-5 .082-10.201-4.927-22.746-8-33v-2z" fill-rule="evenodd"/></svg>