<svg xmlns="http://www.w3.org/2000/svg" version="1.2" width="227.333" height="117.604" viewBox="0 0 227.333 117.604" overflow="inherit"><path d="M45.976.22c.311-.018.797-.334 1.16-.176.346.158.457.246.615.334.158.088.58.252.85.334.264.094.334.094.504.135.182.041.65.229.826.604.176.375.686 1.312.932 1.488.246.176.422.469.445.732.023.263 0 .51.07.75.059.252.328.732.398.943.064.199.111.914.088 1.043-.023.129.153 1.037.136 1.307-.029.264-.158.58-.199 1.025-.041.445-.176.938-.205 1.184-.023.234-.064.287-.129.416-.07.135-.07.463-.07.844 0 .375.111 2.314.094 2.713-.023.398-.135.914-.07 1.312.07.404.176 1.559.176 1.887 0 .34-.064.674.041 1.113.123.445.205.85.141 1.248-.07.404-.111 1.131-.111 1.447 0 .305-.176 3.088-.158 3.732.023.65.182 3.756.293 4.295.111.533.064 5.672.111 6.141.041.457.135 1.148.088 1.547-.047.404-.088.803-.135 1.031-.047.217-.357 1.102-.047 1.125.316.023.58-.146.82-.246.246-.082.451-.152.715-.188.264-.047.152.059.422-.047.27-.111.182-.141.428-.111.24.023-.029.182.422.023.445-.158.615-.07.615-.07s.111-.135.264-.088c.164.047.076.334.428.047.357-.293.287-.404.469-.316.176.088.381.27.469-.07.088-.328.463-.176.598-.129.135.047.24.246.445-.047.199-.293.463-.064.463-.064s.199.088.316-.182c.105-.264.082-.223.422-.135.334.088.551.229.773-.217.222-.446.492-.668.715-.492.217.176.311-1.172.844-1.488.533-.311.557-.311.557-.311s-.047.533-.229.826c-.17.287-.246.803 0 .82.252.023.826-1.734 1.383-1.98.551-.24 1.424-.088 1.424-.088s-.223.51-.182.82c.047.316-.088.486.316.404.398-.088.82-.07.82-.07s-.047-1.336.615-1.799c.668-.469.715-.27.715-.023 0 .252-.176 1.201-.023 1.342.158.129.229-.053.533-.053.311 0 .34-.105.627-.486.293-.387.844-1.219 1.178-1.195.334.012.445.217.445.393 0 .182-.199.814-.135 1.025.064.199.293.328.58.064.281-.275.732-.645 1.107-.686.375-.047.516.176.516.264 0 .088.088.229.48-.111.404-.328.768-.662.826-.357.07.316-.047.645.223.715.27.064 1.383-.469 1.846-.58.469-.105.557.152.398.375-.159.223-.334.381-.334.516 0 .129-.105.129.141.199.24.064.059.422.352-.047.287-.463 1.512-1.336 1.781-1.336.264 0 0 .627-.029.891-.018.27-.07.645-.018.826.047.176.246.305.445.064.199-.246.715-1.283 1.107-1.488.404-.199.539-.223.539.24 0 .475-.135 1.248.105 1.201.252-.041.475-.592 1.16-.592.691 0 .773.176.709.357-.064.176-.27.416-.27.621 0 .188-.457.422.229.375.686-.047.797.527.797.527s.398-.861 1.066-1.061c.662-.199.867.287.867.287s.803-.375 1.09-.375c.293 0 .422.199.293.422-.141.223-.475.539-.363.645.117.111.498.182.604.352.111.176.17.264.223.422.047.158.352-.328.732-.621.375-.287.779-.27 1.043-.041.27.217.205.375.047.445-.152.059-1.201.533-.762.557.451.018.674.129.609.287-.07.158-.562.592-.205.662.357.07.445-.141.715-.357.27-.216.598-.51.932-.51.334 0 .439.199.27.316-.176.105-.445.264-.445.398s.135.24.375.082c.24-.152.111-.287.486-.217.381.064.334.158.363.246.018.088.152.17.328.023.182-.158.334-.533.627-.674.281-.129.486 0 .398.199-.094.205-.246.867-.135.92.111.041.375-.158.691-.182.305-.023.955 0 .955 0s-.316.27-.316.451c0 .176 0 .305.287.346.293.047 1.424-.041 1.605.135.182.182.152.357-.064.404-.223.047-.492.023-.316.223.182.199.064.445.475.305.398-.129.773-.129 1.195-.352.428-.223.645-.094.574.117-.059.199-.551.416-.486.527.07.105.117.135.604-.152.486-.293 1.201-.82 1.307-.645.111.182-.047.422-.152.662-.111.24-.334.451-.111.498.223.035.891-.299 1.354-.258.469.047.738.17.539.387-.205.223-.691.445-.562.598.135.158-.199.668.451.316.639-.357.779-.539 1.154-.398.381.129.51.199.439.416-.059.217-.533.932-.24.732.287-.199 1.09-.463 1.4-.416.311.041.34.346.023.416s-.533.34-.363.469c.182.129.545.293.826.088.293-.199.873-.393 1.201-.287.334.117-.158.715.088.803.246.088.293-.111.621-.182.334-.07.445.129.334.287-.105.158-.311.486-.152.58.152.088-.135.58.51.293.645-.293 1.354-.363 1.471-.129.111.211.199.24-.07.398-.264.152-.645.469-.422.48.223.023.51-.023.762-.082.24-.07.393-.047.439.059.041.105-.111.316.205.188.305-.141.885-.117 1.107-.088.223.006.398.158.287.264-.105.111-.357.305-.357.416 0 .111-.135.381.334.07.469-.311.598-.428 1.02-.404.428.029.65.029.609.199-.047.188-.094.188-.182.363s-.293.445-.053.469c.252.018 1.248-.023 1.477.105.217.141.398.053.258.246-.129.199-.199.199-.328.34-.129.129-.287.346-.111.398.182.035.158-.182.428-.023.258.152.059.352.48.287s.668-.475.82-.246c.164.217-.129.779.117.82.252.041.334.199.645-.135.316-.328.51-.439.469-.105-.041.334.094.551.381.527.293-.018 1.084.047 1.107.246.023.199.064.398.287.398.229 0 .094.27.398.27.311 0 .627-.018.604.176-.023.199-.27.516.088.557.358.041.803.029.844.27.047.246-.111.691.398.604.516-.088 1.225-.316 1.4-.158.175.158.029.275 0 .381-.018.105-.152.463.229.305.381-.152 1.529-.398 1.395-.082-.135.311-.48.686-.199.756.287.064 1.354.064 1.354.264s-.463.621-.129.756.422.111.463.24c.047.135.516.135.785.188.264.035.533.064.439.234-.088.188-.357.27-.305.428.035.158.146.199.375.217.217.029.574-.234.779-.129.193.111.217.311.258.598.053.293.252.404.58.188.334-.229.756.059.562.234-.205.188-.738.586-.316.586s.451-.316.896-.34c.439-.023.615.117.568.357-.041.252-.352.451 0 .539.357.088.738.193 1.096.264.352.07.686.111.621.311-.07.199-.475.463-.34.604.135.129.293-.07.404.088.111.152-.023.357.381.199.398-.158.732-.176.732 0 0 .182-.715.732-.311.756.398.018.996-.07 1.131.018.135.088.287.088.311.334.029.246.135.328-.023.451-.152.105-.352.375-.135.393.223.029 1.031-.486 1.336-.416.316.064.27.264.152.445-.105.17-.592.574-.264.557.34-.023 1.342-.029 1.447.152.105.176.199.492.094.621-.117.141-.516.375-.229.445.287.07.674-.129.738.023.064.152-.293.199-.117.375.182.176.182.27.316.357.129.088.217.135.398.047.17-.088.064.088 0 .217-.07.129-.27.246.064.293.334.047.492.176.492.176l.914.363s-.961.398-.562.492c.404.105 1.172-.064 1.465-.035.305.035.369.34.135.539-.229.199-.562.363-.135.398.434.035.738-.094 1.072.07.328.164.703.299.434.498-.269.199-.768.369-.498.533.264.164-.105.164.363.234.469.064.932.199 1.131.398.199.199.334.334.17.434-.17.094-.604.234-.398.434.199.199-.135.398.27.27.393-.141.393-.199.627-.17.229.029.469 0 .434.17-.029.164-.469.492-.299.574.17.059.363.023.662.059.305.035.404 0 .639.164.229.17.299.363.129.398-.164.041-.592.1-.258.234.328.141.727.035.961.234.24.205.398.205.299.363-.1.17-.533.34-.299.439.24.1.533 0 .732.264.199.27.334.199.229.369-.094.17-.229.334.07.393.305.07.199.07.463.07.275 0 .504-.1.439.141-.07.234-.598.369-.164.562.434.199.896.035.926.305.041.27-.094.434-.094.434s-.164.293.164.328c.34.035.668-.164.873.07.193.234.328.363.135.498-.205.135-.205.27.158.404.369.129.504.129.504.334 0 .193-.533.363-.029.434.492.059.662.1.598.229-.064.129-.305.334-.17.504.135.164.768-.305.902-.1.135.193.135.24 0 .398-.135.17-.299.24-.07.27.234.029.498 0 .568.158.064.176.064.135.064.34 0 .199.07.305.264.328.205.035.305 0 .369.27.07.27-.1.439.135.498.24.076.305.369.439.434.135.07.229.1.434.1.193 0 .094.041.428-.059.334-.105.475.029.27.293-.205.27-.064.539.205.539.264 0 .398.164.398.305 0 .129.129.223.393.129.27-.105.24.129.24.363 0 .234.064.305.334.094.258-.188.527-.229.498.082-.035.293-.305.363.064.363.363 0 .633-.135.803-.035.17.1.299.199.094.334-.193.129-.434.334-.193.369.234.029.463-.141.562.094.099.235.135.305.07.434-.07.135-.135.305.164.234.299-.071.434-.07.633-.1s.24-.135.24.029c0 .17-.205.434.059.24.27-.199.504-.533.533-.299.035.229-.1.662.035.662s.035.029.334.064c.299.035.703.234.527.305-.158.07-.527.27-.393.363.135.1-.17.234.199.1s.369-.234.369-.029c0 .199-.234.527-.041.527.205 0 .375-.059.604-.199.234-.129.469-.164.469-.164l.07.234s-.375.398-.07.27c.305-.141.363-.141.568-.24.199-.1.27-.059.328.1.076.17-.129.234-.1.469.041.234 1.037-.199.967.176-.064.363-.293 1.23.105.996.398-.234.896-.633.932-.434.036.199-.27.568.1.328.369-.229 1.131-.598 1.096-.299-.029.299-.463.967.07.768.539-.199 1.102-.398.967-.035-.135.369-.562.773-.199.703.363-.064.938-.598 1.072-.398.134.2-.205.498.059.434.27-.07.703-.34.703-.07 0 .264-.369.574 0 .404.363-.17 1.336-.369 1.266-.199-.064.158-.797.932-.334.832.469-.1 1.072-.264 1.037-.064-.035.193-.305.504.035.363.328-.129.633-.463.662-.199.035.27-.234.732.199.398.434-.328.768-.434.738-.164-.035.27-.439.797-.105.668.334-.141 1.172-.873 1.172-.363 0 .492-.639.891-.305.891s1.236-.668 1.301-.428c.065.24-.264.498.035.428.299-.059.867-.457.867-.158 0 .293-.369.662 0 .604.369-.07 1.096-.809 1.031-.41-.07.41-.299 1.002 0 .867.305-.129 1.072-.902 1.137-.598.065.304-.434 1.002-.1.832.328-.164.697-.527 1.002-.492.299.023-.305.492.199.463.498-.041.832-.498.797-.1-.029.398.164.328.469.1.299-.234.498-.264.498 0 0 .27-.035.463.27.27.299-.205.662-.369.662-.17 0 .199-.164.533.199.299.369-.229.973-.469.902-.199-.064.264-.463.732-.1.562.363-.164.932-.463.973-.229.023.229.094.299.094.299s.697-.404.732-.135c.035.269.035.504.434.27a.53.53 0 0 1 .674.07s.727-.709.727-.375c0 .328.17.832.369.568.199-.264.568-.732.633-.469.07.275-.029.539.234.299.27-.229.498-.562.498-.229 0 .333-.299.662.199.469.498-.205.803-.398.873-.205.064.205.029.305.398 0 .369-.293.562-.434.592-.129.041.305-.193.598.275.305.469-.305.627-.469.727-.34.105.129-.328.164.199.129.539-.023.574.141.574.141s.264-.164.398-.27c.129-.1.369.199.369.199s.164-.229.369-.199c.193.035.264.27.264.27s-.105.129.164-.035c.27-.176.299 0 .562-.07.27-.059.398-.059.633-.105.24-.023.305 0 .439.07s.229.105.398 0c.17-.094.568-.199.633-.023.07.164.1.428.305.193.193-.24.135-.398.328-.17.199.24.135.375.398.17.27-.193.369-.1.369-.1s-.299.07.27.1c.568.041 2.062.041 2.232.041.17 0 4.336.029 5.467 0 1.137-.041 4.002.029 6.838-.281 2.83-.293 6.463-1.359 7.799-2.191 1.336-.832 3.598-2.268 5.238-3.732 1.623-1.477 3.229-3.475 2.367-3.07-.873.393-2.367.393-1.705-.668.668-1.066 2.531-2.197 3.24-2.438.691-.234 2.062 5.203.768 6.768-1.307 1.57-5.572 6.234-9.105 8.443-3.533 2.197-8.273 4.74-10.172 5.607-1.898.855-9.041 2.332-13.564 2.965-4.535.633-9.439 1.529-16.74 2.104-7.301.562-11.238.135-13.734-.041-2.502-.164-9.305-.961-11.373-1.834-2.062-.861-3.896-1.893-4.77-1.33-.867.562-3.498 1.271-4.535.961-1.031-.293-.826-.891-.996-1.359-.17-.468 0-.633-.363-.633-.369 0-.738-.135-.932-.27-.205-.135-.445-.369-.738-.035-.299.328-1.436.469-1.805.434-.369-.023-1.729-.398-2.461-.234-.738.17-3.598.533-4.67.738-1.072.199-1.969.334-3.035.398-1.066.07-2.602.129-2.936 1.195-.328 1.066-.932 3.34-1.066 3.633-.129.305-.27.404-.363.609-.1.199-.305.164-.439.533-.129.369-.727.533-.861.867-.135.328-.703.604-.902.902-.205.299-.867.369-.967.697-.1.334-.498.533-.902.668-.398.129-1.125.264-.896.527.229.27.264.674-.205 1.008a5.37 5.37 0 0 0-.826.697c-.234.229-1.336.633-1.74 1.102-.404.463-1.037.768-1.301.832-.264.07-1.494.205-1.629.439s-.135.768-.363.855c-.24.105-.24 0-.24-.258 0-.27.07-1.037-.697-.996-.768.029-1.77-.105-1.963.633-.205.727-.404.996-.504.727-.105-.27-.035-1.066-.199-1.195-.17-.135-1.002-.375-1.172.129-.164.504-.428 1.301-.598 1.137-.164-.176-.035-.973-.369-1.008-.334-.023-1.564-.633-1.799-.996-.235-.363-.27-1.102-.363-1.465-.1-.369.164-1.002-.434-1.037-.604-.029-3.105.07-3.24-1.928-.129-2.004.404-2.338 2.367-2.777 1.969-.434 3.568-.129 4.037-.463.469-.328 1.066-1.33 1.471-2.174.398-.832 1.096-1.723 1.658-1.893.574-.17.768-.041 1.107-.803.328-.762 1.535-1.365 1.705-1.699.158-.328.592-1.066.328-1.131-.27-.07-4.172-1.342-4.898-1.605-.738-.27-1.066-.568-1.271-.299-.193.27-.826 1.137-1.066 1.201-.234.064-.164.1-.334.393-.164.311-.229.504-.463.703-.24.199-.533.34-.668.504-.135.164-.674.498-.07.434.604-.07 1.904 0 2.068.533.164.533.07.967-.199 1.037-.27.059-.434.258-.568.469-.129.193-1.664.633-2.262.762-.604.129-3.574.762-4.172.938-.604.164-1.998.164-2.033.527-.035.375-.633.902-.697.504-.07-.398.029-.703-.668-.838-.703-.129-1.699.205-1.934.369-.235.164-.135.633-.369.768-.234.135-.428 0-.498-.369-.064-.363 0-.732-.369-.797-.363-.07-1.096-.07-1.096-1.6 0-1.535.363-1.805-.07-2.268-.439-.469-1.072-2.168-.305-3.34.768-1.16 1.805-.961 2.203-.902.404.07.738.41 1.271.375.533-.035.627-.105.768-.539.129-.428.668-1.934.996-2.502.334-.562.498-.264.533-.732.035-.463.27-1.395-.164-.867-.434.539-.668.703-.738.305-.059-.398-.363-1.441-.598-1.008-.235.433-.533.398-.697-.035-.17-.428.029-1.295-.369-.791-.398.492-.633.633-.803.059-.164-.562-.064-1.33-.428-.961-.369.369-.639.498-.803.029-.164-.469.135-1.535-.27-1.031-.393.498-.598.469-.832-.234-.229-.703-.398-1.002-.633-.469s-.633.404-.867-.029c-.234-.433-.264-1.4-.598-.943-.334.475-.633.34-.703.141-.064-.199.164-.24-.164-.469-.334-.234-.668-.832-.932-.398-.27.434-.867.434-.902-.094-.035-.539-.34-1.605-.439-.943-.094.674-.229.873-.463.674-.234-.205-.334-.604-.533-.844-.199-.223-.662-.727-.803-.363-.129.363-.334.469-.562.17-.234-.299-.598-1.131-.732-.568-.135.568-.299.797-.498.568-.205-.229-.234-.768-.539-.803-.299-.035-.732-.094-.633.234.105.34.533 1.635.668 1.969.135.334-.035.434.199.598.229.17.035.639.17.844.135.188.363.428.363.598 0 .164-.398.492-.1.703.299.188.369.322.299.492-.064.17-.029.598.07.732s-.27.27-.1.498c.164.234.234.562.199.773a.992.992 0 0 0 .094.662c.135.27.17 1.705.205 2.268.029.574.1.703.1.902 0 .199-.135.469.129.797.27.334.902.674 1.078.867.158.211.826 1.102 1.031 1.406.193.299.299.498.299.697 0 .205.264.533.633 1.4.363.867.135 1.84.029 1.266-.1-.562-.867-1.793-1.4-1.828-.533-.035-.768-.07-1.166.598-.398.668-.768.996-1.365 1.406-.604.398-1.166.434-1.799.434-.639 0-2.203.691-2.637.562-.434-.135-2.133 0-3.967-.135s-3.234.24-3.363.135c-.141-.105-.867-.328-.867.129 0 .475-.105 1.471-.135 1.77-.035.305-.176-.234-.475-.932-.293-.703-.135-1.471-.861-1.529-.732-.076-1.869-.035-2.104.023-.229.082-.463.375-.498.873-.029.498.135 1.365-.164 1.23-.305-.129-.439-1.23-.539-1.699-.094-.463-.428-.861-.697-.861-.269 0-.803.094-.803.961s-.135 1.441-.363 1.066c-.234-.363-.135-1.166-.27-1.629-.135-.469-.293-.732-.264-1.301.029-.574.568-2.338 2.168-2.73 1.6-.41 2.9-.311 4.436-.311s3.27-.129 3.727-.1c.475.041.738.17.768 0 .041-.164.305-.492-.135-.832-.428-.328-.797-1.066-.662-1.266.135-.2.428-.199.428-.539 0-.328-.094-.592-.023-.996.07-.398.299-.697.023-.867-.264-.164-.562-.703-.727-1.166-.17-.469-.264-.662-.469-.803-.199-.141 0-.434-.164-.469-.17-.029-.305-.129-.264-.363.029-.234.064-.398-.135-.398-.205 0-.369-.164-.398-.469-.041-.305-.041-.199-.205-.434-.164-.235-.404-.562-.404-.773 0-.193-.129-.861-.334-.961-.193-.1-.064-.633-.299-.732-.235-.099-.328-.475-.328-.662 0-.211.17-.141-.07-.434-.229-.311-.229-.369-.229-.574 0-.199.029-.105-.07-.299-.1-.205-.205-.404-.158-.604.029-.199-.674-.797-.873-1.031-.205-.234-.299-.328-.504-.234-.199.105-.498-.539-.668-.404-.158.135-.229 1.172-.428 1.002-.205-.164-.568-.867-.838-1.031-.27-.164-.633-.293-.633.1 0 .404-.428.832-.404 1.131.041.305-.293 1.102-.398 1.576-.094.463-.498.662-.457 1.031.029.363-.574.434-.404.768.164.334-.264.498-.17.768.1.264-.059.498-.264.533-.199.029-.334-.035-.234.234.1.264.035.463-.17.562-.193.105-.193.164-.193.334s-.27.568-.439.732c-.17.17-.498.539-.533.873-.029.328-.064.498-.229.592-.17.105-.1 0-.17.439-.064.434-.639.803-.592 1.031.023.229-.205.703-.205.703s-.035.24-.24.463c-.199.24-.299.27-.428.668-.135.404-.639.867-.662 1.236-.041.369-.404 1.271-.609 1.506-.193.229-.428.527-.492.797-.07.264-.504 1.066-.674 1.301-.164.234-.428.363-.662 1.008-.24.633-.902 1.195-1.037 1.535-.135.322-.568.293-.568.562 0 .258-.662.428-.732.791-.064.369-.428.439-.533.838-.1.404.064.434-.234.539-.299.094-.328-.205-.463.188-.135.41-.533.68-.604.973-.064.305.129.369-.199.568-.334.205-.363.064-.398.463-.041.41-.27 1.102-.369 1.336-.1.24-.463.199.064.34.533.129 1.969.562 2.502.902.533.328 1.77 1.629 1.969 2.027.199.398.1.633.404 1.002.299.369.697 1.201.727 1.5.041.305-.199.041-.498-.334-.299-.363-.598-.498-.967-.527-.363-.035-.797-.035-.533.293.27.34.434.639.27 1.002-.164.369-.434.199-.604-.334-.164-.539-.533-.738-.867-.738-.334 0-2.232.439-3.469.51-1.23.064-4.359-.639-5.836-1.535-1.465-.896-1.828-1.236-2.361-1.201-.539.035-5.9.129-8.402-.141-2.502-.264-4.5-.762-5.303-1.16-.797-.404-1.002-.539-1.102-.199-.1.328-.328.457-.398.234-.064-.234.1-.709-.369-.504-.463.199-.527-.035-.568.375-.029.393-.27.393-.299.029-.029-.369-.1-1.471.703-2.338.803-.867.967-1.43 3.234-1.5 2.267-.07 3.732-.199 4.301-.07.574.141 1.166.27 1.904.199.727-.059 1.459-.129 1.799 0 .328.129.27.234.627.129.363-.088.568-.059.873.082.299.129.697-.105.926-.041.234.064.609.498.809-.041.193-.527 1.131-1.459 1.23-2.227.105-.768.768-1.271 1.137-1.67.363-.404.662-.967.932-1.295.27-.34 1.465-2.672 1.969-4.008.504-1.336 1.33-3.902 2.467-6.27 1.131-2.367 3.234-5.936 4.002-6.867.762-.938 1.395-1.775 1.828-2.098.434-.34.539-.703.141-.973-.404-.27-2.373-2.438-2.971-3.07-.604-.633-1.102-.961-1.465-.961-.369 0-.404.164-.533-.035-.135-.205-.135-.434-.404-.434s-.305.059-.598-.199c-.299-.27-.504-.504-.768-.539-.27-.023-.469.035-.668-.164-.199-.199-.498-.17-.867-.07-.369.105-.533.299-.498-.199.029-.504-.17-1.166-.738-.996-.568.164-1.295.398-1.266.1.029-.311.135-1.371-.229-1.4-.375-.035-.832.398-1.037.328-.199-.059-.328-.328-.264-.633.064-.299 0-.803-.27-.598-.27.199-.938.434-1.037.129-.094-.293.504-.867.17-.973-.328-.094-.568.141-.732.445-.17.293-.604.398-.604.035 0-.375.305-1.242-.064-1.008-.363.234-.598 1.371-.867 1.137-.264-.234-.428-1.23-.768-1.137-.328.105-.434.598-.768.973-.328.363-.498-.035-.533-.504-.035-.469-.164-.604-.428-.604-.27 0-.205-.299-.475.27-.264.568-.762 1.131-.826.768-.07-.375-.135-.504-.135-.996 0-.504-.234-1.002-.475-.539-.229.469-.762 1.066-.896.738-.135-.34-.258-.668-.299-1.043-.029-.363-.27-.158-.604.24-.328.404-.896.697-.832.234.07-.475.34-1.436-.129-.932-.469.492-.773.896-.773.434 0-.469.176-1.67-.363-.867-.539.791-.832.832-.797.158.035-.662.1-1.23-.199-.662-.305.562-.568 1.266-.768.662-.205-.592-.035-1.963-.469-1.33-.434.633-1.002 1.465-1.037 1.002-.029-.475.404-2.104-.164-1.236-.568.868-.797 1.002-.826.574-.047-.445-.105-2.109-.445-1.441-.322.668-.855 1.898-1.061 1.102-.199-.803-.035-1.969-.334-1.57-.305.404-.867 1.805-1.037 1.641-.164-.176-.164-.703-.164-1.207 0-.498-.164-2.098-.697-.797-.533 1.301-.533 1.6-.633.938-.105-.674-.234-1.734-.568-1.84-.334-.094-.768-.135-.867.234-.1.363-.697 1.535-.832 1.236-.135-.305.363-1.705.064-1.336-.299.363-.697.498-.598-.064.1-.574.463-1.605.059-1.301-.393.293-.926 1.664-1.166 1.77-.229.094-.229-.27-.229-.832v-1.535c0-.475-.141-.973-.498-.141-.363.832-.873 1.875-1.008 1.406-.129-.475-.059-1.008-.129-1.57-.064-.568-.234-1.471-.504-.838-.258.639-.393 1.775-.727 1.904-.334.129-.533-.398-.604-1.066-.071-.668.035-1.207-.164-1.4-.199-.199-.533-.604-.867.1-.34.703-.404 1.336-.697 1.031-.305-.299-.41-.434-.369-.938.029-.492.064-.668.064-1.066 0-.393-.305-.633-.463-.094-.17.533-.674 1.828-.867 1.629-.199-.199-.404-1.564-.404-1.992 0-.445.164-1.506-.334-.674s-.598 2.244-.996 2.068c-.398-.164-.205-.967-.205-1.57 0-.598.029-1.664-.299-.727-.334.932-.703 2.162-.867 1.828-.164-.328-.363-1.4-.363-2.004 0-.592.135-1.33-.1-.99-.234.328-.469 1.465-.732 1.928-.27.469-.668.668-.668.07 0-.604.1-1.734.064-2.203-.036-.469-.404-.938-.697-.369-.299.574-1.102 2.408-1.371 1.969-.27-.434.199-2.596.199-2.9 0-.299-.234-.633-.562.129-.34.773-.803 1.734-1.072 1.535-.258-.199.1-2.232.24-2.637.129-.398.129-.932-.17-.592-.299.334-1.6 1.898-1.67 1.436-.064-.469.504-1.143.234-1.307-.264-.158-.428-.264-.334-1.002.1-.727.434-.996.504-1.4.064-.404.264-.533-.17-.697-.428-.164-1.201-.797-1.23-1.535-.035-.727-.035-1.137-.334-1.6-.299-.475-.27-.768-.299-1.471-.035-.703.029-1.207.164-1.365.135-.17.873-.404 1.002-.404.135 0 .1-.428.199-.662.1-.229.07-.568.469-.604.399-.036.363.234.533-.135.158-.363.562-.334.562-.334s-.094-.861.135-.996c.234-.135.234.199.305-.264.059-.475.059-.674.434-.844.363-.158.562-.1.727-.393.176-.299.1-.469.334-.703.234-.234-.199-.158.234-.234.434-.059.697.135.867-.334.17-.463.633-.768.932-.697.305.07.469-.967.938-.938.469.035.428.27.562-.199.135-.463.439-.703.938-.668.499.035.498.135.668-.328.164-.469 1.26-.27 1.26-.27s-.029-.797.305-.762c.334.029.533.293.668-.27.129-.574.996-.369.996-.369s-.164-.803.234-.732c.404.059.475.059.475.059s-.27-.533.293-.492c.562.035.768-.07.768-.07s-.299-.463.1-.463.803-.029.803-.029.035-.738.428-.609c.404.141.668.27.668.27s.1-.832.609-.732c.498.1.662.17.662.17s-.1-.738.334-.609c.434.141.598.211.598.211s-.105-.574.369-.469c.463.094.633.193.633.193s-.029-.463.404-.357c.428.094.691.328.691.328s-.059-.369.27-.27c.34.105.533.199.533.199s.504-.328.27-.598c-.234-.264-.205-.703.234-.668.434.035.393-.129.1-.568-.299-.428.105-.762.293-.732.205.035.24.07.135-.398-.094-.469.568-.533.568-.533s-.029-1.102.199-1.342c.24-.223.604-.094.533-.691-.064-.604.34-.973.533-.938.205.035.434-.094.369-.703-.064-.598.205-.855.568-.996.363-.141.363-.803.598-1.002.234-.205.334-.064.334-.568 0-.498-.035-.668.334-.797.369-.141.604.234.604-.369s-.17-.568.1-.768c.258-.199.328-.129.463-.568.129-.428.105-.732.568-.932.463-.2.463-.199.703-.832.234-.633.527-.732.527-.732s.34-.838.533-1.002c.205-.17.504.029.609-.398.088-.434.428-.305.896-1.008.463-.691 2.133-3.129 3.135-5.836.996-2.707 1.799-5.572 2.068-6.164.258-.604.393-.199.727-.844.34-.633.668-.457 1.102-.82.434-.375 1.102-.902 1.635-1.072.533-.17.398 0 1.002-.568.604-.562 1.037-.334 1.57-.434.527-.1 1.09-.398 1.6-.398.493-.006.634.099.95.076z" fill="#010101"/></svg>