<svg xmlns="http://www.w3.org/2000/svg" xmlns:dc="http://dublincore.org/documents/dcmi-terms/" height="501.587" version="1.2" viewBox="0 0 2070.24 501.587" width="2070.24"><metadata><dc:description>Silhouette of Chanaresuchus bonapartei, processed by PhyloPic Tools (https://github.com/eweitz/phylopic-tools)</dc:description><dc:source>http://phylopic.org/image/94989ab1-b30d-4628-b14f-e7a1160ef306</dc:source><dc:creator>Smokeybjb</dc:creator><dc:license>http://creativecommons.org/licenses/by-sa/3.0/</dc:license></metadata><path d="M.25 73.388c2.4 11.59 6.68 21.31 17 25-3.66-4.02-5.64-9.7-6-17 6.49-1.63 7.02 10.82 13.99 12-1.85-5.65-3.12-9.47-3-15 7.41-7.79 11.14 2.72 17 5 .17-3.16-2.65-3.34-2-7 2.22-.75 6.8.93 5-6 5.62-.21 13.58-3.08 16 2 4.5 1.17 1.08-5.59 6-4 6.35.98 4.25 10.42 11 11-1.13-3.02-.76-5.38-1-11 13.79-2.12 9.99 13.34 19 16 .91-4.38-1.06-7.26-2-13 2.03-2.29 8.3-.36 11.99-1 5.05 7.29 7.31 17.36 17 20-3.12-4.87-4.08-11.91-5-19 15.53-5.85 14.2 13.8 24 17-2.78-7.41-3.48-11.69-2-18h6c3.89 5.78 7.58 11.75 12 17 4.11-1.64-3.71-12.43 0-17 8.37-2.04 7.46 5.2 11 8 4.46.47.19-7.81 3-9 10.39-4.9 14.45 3.85 19.99 7-1.31-3.59.07-3.66-1-7 7.98-6.39 14.72-.27 20 4 .8-3.47-1.49-3.84-1-7 7.01-3.52 12.14 1.27 16 4 1.98-1.35-.32-6.98 3-7 6.79-1.79 7.27 2.72 10 5 3.36 1.03 1.55-3.11 2-5 35.71-2.19 55.76 20.15 47.99 55.99-1.73 8.01-11.45 17.44-16 29-8.34 21.19-7.86 40.65-22.99 48.99-3.08.75-1.22-3.44-5-1.99 3.05 7.04-2.39 12.62-9 9.99-2.47 2.59 2.16 3.72 2 7-3.89 3.88-7.71-.5-11 1-.77 3.899 3.7 5.189 1 8-4.37 2.7-5.03-1.601-10-1-.77 3.77 1.22 4.78 1 8-4.48 1.8-6.08 7.37-12 5-.32 7.149-6.28 12.399-13 10 1.35 8.51-10.74 15.68-17.99 13 2.38 10.06-12.46 17.56-20 12 .29 5.42 1.19 6.28-1 9.99-5.39 1.39-4.19-3.801-9-3 1.11 4.09.21 6.09-2 9-3.99.989-3.01-2.98-7-2 .04 5.18-.54 6.029-4 9-4.82.159-5.67-3.65-9-5-.1 4.569.81 10.14-2 12-4.59.92-4.83-2.5-9-2 3.85 5.939-2.62 9.069-3 14 22.42 5.489 36.96-13.511 56-18 15.63-13.69 33.08-25.58 51.99-35.99 42.91-32.42 83.36-67.29 121.99-103.99 19.23-6.1 34.38-16.27 51.99-24 9.35-.31 20.42 1.1 27-2 26 7.99 46.34 21.65 58.99 43 1.02 17.98 9.82 28.17 16 40.99-5.29 27.42-17.55 53.069-18 81.99-34.86 22.6-65.97 52.18-98.99 79.989-10.6 8.931-23.97 19.15-35.99 23-20.96 6.7-48.71 5.391-67 19 2.79 1.94 5.62 2.551 2 8 7.55-2.449 13.39-6.62 23-7 1.93 3.301-8.02 3.271-7 9 5.67 2.17 10.8-2.62 17-3 3.63 1.181-4.11 4.33 0 6 22.59-6.43 46.75-19.899 63.99-35 30.29-17.31 62.83-34.92 97.99-51.989 9.24-4.49 25.9-11.61 31-18 4.97-6.24 6.93-18.87 10.99-27 8.25-16.49 19.36-27.98 27-46.99 7.24 7.359 12.43 19.3 20 30.99 5.84 9.04 16.89 23.279 17 34 .05 5.229-6.37 22.85-9 33-3.3 12.68-9.53 26.01-12 39.989-2.76 15.561-2.16 32.511-6 46.99-6.6 24.9-35.13 38.87-64.99 42-4.43 5.24-14.01 5.33-17 12 1.09 3.34 10.92-.78 14-2 2.93.85-1.3 2.51 0 5 17.04-3.35 34.86-9.07 53.99-13 4.63-7.939 19.17-12.63 26-22 8.78-12.04 9.32-37.33 16-58.99 3.43-11.13 10.6-23.56 15.99-35 2.81-5.939 4.46-12.27 7-17.989 4.6-10.351 14.05-18.04 13-34-.51-7.73-5.48-11.921-8-19-7.31-20.58-5.33-46.271-15-65.99 24.7 1.78 51.89 8.71 77.99 11 75.56 6.62 151.98-11.45 221.98-16-1.83 26.42-3.09 52.05-2 77.99 1.32 31.439-.05 53.92-8 79.989-9.62 31.561-29.15 67.391-56.99 80.99-9.76 4.771-22.87 3.57-32 14 4.08-.3-.17 1.38 1 4 12.34-3.71 25.42 1.48 37.99-3 9.59-3.42 12.96-15.22 22-18 1.76.98.08 11.17 2 15 4.87.54 2.06-6.61 4-9 16.95-17.57 24.84-46.53 37-70.99 3.48-7.01 7.58-15.89 11.99-24 4.9-8.979 9.93-16.92 11-24.989 2.1-15.7 1.39-29.841 7-44 12.23-30.86 34.29-56.25 38-90.99 21.73-3.92 44.49-6.83 70.99-6-.23 22.05-4.92 52.319-3 80.99.7 10.47 4.3 20.06 5 29 .67 8.689-1.98 15.02 2 21 3.18 4.779 18.85 12.819 23.99 15 22.49 9.52 51.45 2.47 84.99 4 22.82 1.029 47.78 2.3 66 1 6.29-.46 14.03-4.07 19.99-3 10.43 1.85 18.43 19.569 19 32.989.96 22.681-3.66 46.061-13 57.99-11 14.08-29.82 34.75-46.99 41-7.72 2.811-15.88 2.08-20 10v6c2.96.69 12.62-5.34 20-5 5.2 1.64-1.48 8.061 1 10 9.399-10.689 29.939-11.65 40.99-22 8.909-8.35 9.949-18.97 20-29 2.26 1.74.649 7.35 4 8 3.72-3.95 4.149-11.18 9-14 1.93-15.61 5.12-42.25 7-58.99 2.63-23.38-15.841-41.63-18-58.989-17.12-2.5-37.051 1.77-54.99-4-25.59-8.23-44.93-29.98-71.99-36-10.97-2.431-22.59-.86-33-4 8-25.33 18.44-48.221 23-76.99 3.14.479 2.64-2.69 5-3 90.95 14.28 181.57 37.34 274.96 50 31.26 4.229 61.92 10.59 94.99 13 71.979 5.229 155.65 3.85 223.97-6 24.17-3.49 48.79-10.44 73.99-16 51.3-11.32 106-20.3 158.979-29 21.931-3.601 49.33-5.21 76.99-4 14.44.64 30.73 7.06 44 0-28.979-11.8-44.479-17.39-78.99-18.99-68.13-3.17-113.59 2.81-181.979 5.99-52.22 2.43-101.36 7.77-149.98 5-47.09-2.67-89.25-10.69-132.979-14.99-38.84-3.83-72.25-18.75-107.99-29-83.21-23.87-159.47-51.7-231.97-87.99-22.41-11.21-43.3-23.71-71.99-28-14.85-2.21-23.71-2.2-34-5-27.79-7.54-60.98-9.84-93.99-15.99-12.19-2.28-26.18-3.55-38.99-5-44.59-5.06-85.35-13.7-130.98-8-8.4 1.05-17.62.21-26 1-30.14 2.82-58.58 7.92-88.99 10-35.69 2.43-74.76 2.29-109.99 1-9.03-.33-18.21-.46-26.99-1-23.09-1.44-45.14-11.15-67.99-13-21.55-1.75-50.87-.54-72 1-31 2.26-63.47-8.52-96.98-7-13.22.6-25.48 1.42-38 2-17.95.83-35.96-3.47-51.99 1-11.11 3.09-20.44 14.41-34 18-22.68 6-43.55 13-65.99 16.99-22.75 8.17-47.74 10.21-73.99 15-24.451 4.469-49.851 8.86-62.991 20z"/></svg>