<svg xmlns="http://www.w3.org/2000/svg" xmlns:dc="http://dublincore.org/documents/dcmi-terms/" height="600" viewBox="0 0 800 600" width="800"><metadata><dc:description>Silhouette of Cheirolepis canadensis, processed by PhyloPic Tools (https://github.com/eweitz/phylopic-tools)</dc:description><dc:source>http://phylopic.org/image/10f410a5-6750-4388-a77a-028477720057</dc:source><dc:creator>Steven Coombs</dc:creator><dc:license>http://creativecommons.org/publicdomain/zero/1.0/</dc:license></metadata><path d="M565.35 274.91c2.37.2 9.62 1.64 5.721 5.12-.48.43-2.37.6-3.261.8-5.3 1.2-7.79 6.87-12.3 11.91-2.31 2.58-4.77 4.89-6.47 7.779l-.72-.959c-2.19 1.51-2.86 6.8-1.44 9.12l.78-.84c1.28 5.851 5.68 11.4 8.09 16.93.96 2.211 3.15 8.07.68 8.4-8.79 1.17-31.25-11.08-39.979-18.8-5.96-5.26-8.53-10.59-15.181-11.01-8.92-.57-26.34 10.87-33.96 15.83-.649.43-2.779 1.63-3.26 2.01-7.66 6.13 1.05 15.21 1.45 22.17.49 8.53-9.18.74-13.97-2.71-4.16-3.01-8.221-6.48-13.761-10.71-4-3.04-10.289-9.061-13.229-9.51-5.38-.811-12.94 1.079-19.87 1.75-6.91.68-15.53 1.899-19.79 6.729-3.28 1.1-6.62 3.24-9.12 5.68l-.72-.96c-.99.29-1.77.79-2.4 1.44l.46 1.03c-4.7-2.811-9.66-7.341-13.8-10.511-2.05-1.58-3.35-3.159-5.5-3.54-1.66-.29-3.7.311-6.41.311-5.52 0-10.95-.79-17.63-1.09 1.23 3.81 13.62 15.989 3.26 15.72-5.65-.15-16.01-9.22-22.87-13.56-4.88-3.091-8.93-8.591-14.15-11.141-12.65-6.2-26.61-12.68-40.53-19.86-4.51-2.32-8.59-4.72-12.48-6.93-3.15-1.79-9.7-2.99-9.34-7.93.07-.95-2-1.71-2.55-2.8l.9-.66c-.95-.49-.21-2.67-1.2-3.12l-.78.84c-2.57-12.13 17.97-12.53 25.6-13.09 17.17-1.25 36.1 2.59 54 5.33 14.59 2.23 29.57 6.45 44.7 10.06 3.96.95 7.95 1.2 11.94 1.7 7.79.97 15.04 3.55 22.57 4.69 10.47 1.57 20.2 5.56 29.84 7.43 8.61 1.66 18.6 4.66 26.74 2.96 6.05-1.27 11.13-8.14 16.6-13.59 7.71-7.68 11.49-14.9 19.21-20.81 2.04-1.56 8.53-4.87 8.96-1.01.82 7.45-7.479 20.13-8.029 28.2-.12 1.83.1 4.58 2.27 5.59l-.9.66c.87.7 2.841 2.15 4.08.96l-.71-.83c18.96-.67 45.011-10.9 64.41-14.33 4.539-.798 9.119-1.248 14.049-.848z"/><path d="M549.04 300.52h1.2c-.471 2.49-1.57 4.351-1.44 7.44l-1.14-.12-.78.84c-1.42-2.319-.75-7.609 1.44-9.12l.72.96zM486.89 290.09l.71.83c-1.239 1.19-3.21-.26-4.08-.96l.9-.66.78-.78c.63.09 1.319.12 1.68.48l.01 1.09zM375.76 334.6l.72.96c-1.2.591-2.8 2.421-4.08 1.44l.7-.89-.46-1.03c.63-.65 1.41-1.15 2.4-1.44l.72.96zM232 274.12l-.9.66-.78.78c-.84-.92-1.67-1.85-1.44-3.84l1.14.12.78-.84c.99.45.25 2.63 1.2 3.12z"/><g fill="none" stroke="#000" stroke-linecap="round"><path d="M486.89 290.09c18.96-.67 45.011-10.9 64.41-14.33 4.54-.8 9.12-1.25 14.05-.85 2.37.2 9.62 1.64 5.721 5.12-.48.43-2.37.6-3.261.8-5.3 1.2-7.79 6.87-12.3 11.91-2.31 2.58-4.77 4.89-6.47 7.779" stroke-width="1.806"/><path d="M384.88 328.92c4.26-4.83 12.88-6.05 19.79-6.729 6.93-.671 14.49-2.561 19.87-1.75 2.94.449 9.229 6.47 13.229 9.51 5.54 4.229 9.601 7.7 13.761 10.71 4.79 3.45 14.46 11.24 13.97 2.71-.4-6.96-9.11-16.04-1.45-22.17.48-.38 2.61-1.58 3.26-2.01 7.62-4.96 25.04-16.4 33.96-15.83 6.65.42 9.221 5.75 15.181 11.01 8.729 7.72 31.189 19.97 39.979 18.8 2.471-.33.28-6.189-.68-8.4-2.41-5.529-6.81-11.079-8.09-16.93" stroke-width="1.726"/><path d="M384.88 328.92c-1.66 2.86-5.69 6.13-9.12 5.68" stroke-width=".591"/><path d="M384.88 328.92c-3.28 1.1-6.62 3.24-9.12 5.68M373.1 336.11c-4.7-2.811-9.66-7.341-13.8-10.511-2.05-1.58-3.35-3.159-5.5-3.54-1.66-.29-3.7.311-6.41.311-5.52 0-10.95-.79-17.63-1.09 1.23 3.81 13.62 15.989 3.26 15.72-5.65-.15-16.01-9.22-22.87-13.56-4.88-3.091-8.93-8.591-14.15-11.141-12.65-6.2-26.61-12.68-40.53-19.86-4.51-2.32-8.59-4.72-12.48-6.93-3.15-1.79-9.7-2.99-9.34-7.93.07-.95-2-1.71-2.55-2.8" stroke-width="1.631"/><path d="M230.02 271.84c-2.57-12.13 17.97-12.53 25.6-13.09 17.17-1.25 36.1 2.59 54 5.33 14.59 2.23 29.57 6.45 44.7 10.06 3.96.95 7.95 1.2 11.94 1.7 7.79.97 15.04 3.55 22.57 4.69 10.47 1.57 20.2 5.56 29.84 7.43 8.61 1.66 18.6 4.66 26.74 2.96 6.05-1.27 11.13-8.14 16.6-13.59 7.71-7.68 11.49-14.9 19.21-20.81 2.04-1.56 8.53-4.87 8.96-1.01.82 7.45-7.479 20.13-8.029 28.2-.12 1.83.1 4.58 2.27 5.59" stroke-width="1.761"/></g></svg>