<svg xmlns="http://www.w3.org/2000/svg" xmlns:dc="http://dublincore.org/documents/dcmi-terms/" height="1052.362" width="744.094"><metadata><dc:description>Silhouette of Chilopoda, processed by PhyloPic Tools (https://github.com/eweitz/phylopic-tools)</dc:description><dc:source>http://phylopic.org/image/734be098-cac8-4f64-bd6d-fe5b209fc2f9</dc:source><dc:creator>Birgit Lang</dc:creator><dc:license>http://creativecommons.org/licenses/by/3.0/</dc:license></metadata><path d="M72.454 724.271c-1.326-.532-3.612-2.119-5.31-3.687-1.852-1.709-1.869-1.73-3.617-4.676-2.512-4.23-3.178-5.601-3.738-7.697-.478-1.787-.481-1.824-.408-4.64l.074-2.838-.929.481c-.808.419-1.076.48-2.069.472-.627-.008-1.312-.054-1.52-.11-.77-.2-1.15-2.171-.752-3.893.084-.367.125-.696.09-.73-.073-.074-1.414 1.017-3.235 2.63l-1.235 1.093-1.323.11c-.728.06-1.864.079-2.524.04-1.062-.061-1.308-.136-2.156-.656a32.37 32.37 0 0 1-2.028-1.389c-1.018-.762-1.088-.855-1.416-1.874l-.346-1.073.346-1.1c.21-.67.668-1.574 1.173-2.316.455-.67.884-1.422.954-1.673.092-.33.34-.576.9-.89.426-.238.792-.409.813-.38.021.03.195.311.385.627l.345.575-.418.566c-.23.311-.672.84-.984 1.175-.311.334-.673.933-.804 1.33-.216.653-.216.789 0 1.413.21.615.337.742 1.17 1.162 2.064 1.043 2.946 1.323 3.872 1.232 1.732-.172 3.489-1.381 5.732-3.947.925-1.059 1.358-1.77 2.79-4.59.932-1.835 1.695-3.371 1.695-3.414 0-.043-.36-.124-.799-.181-.439-.057-1.653-.245-2.7-.418a19.837 19.837 0 0 0-3.643-.282c-1.701.03-1.764.044-2.624.566-.485.295-.949.65-1.03.79-.482.825-.547.851-1.172.474a24.214 24.214 0 0 1-.634-.388c-.124-.093 1.378-2.309 1.93-2.847l.597-.583 2.414-.134c1.328-.073 3.422-.136 4.653-.14 2.043-.007 2.311.027 3.068.362l.83.367.416-.633c.23-.348.743-1.01 1.14-1.47.398-.46.993-1.393 1.321-2.073.579-1.2.592-1.264.45-2.146l-.146-.91-2.226-1.073c-1.865-.9-3.051-1.402-3.313-1.402-.029 0-.053.198-.053.44 0 .504-.21.625-1.092.625-.421 0-.864-.154-1.425-.495-.717-.435-.826-.567-.91-1.106a5.471 5.471 0 0 1-.045-1.133c.047-.491.1-.536.963-.801 1.352-.418 2.516-.297 3.743.389.534.298 1.755.888 2.714 1.312 1.42.627 1.9.769 2.598.769.816 0 .878-.028 1.348-.613.271-.338.797-1.27 1.17-2.07.371-.802.973-1.81 1.335-2.24.656-.776.659-.783.439-1.313a8.187 8.187 0 0 0-.245-.555c-.012-.013-1.255-.342-2.76-.73-3.463-.894-3.27-.833-3.272-1.044 0-.3-1.849-2.34-2.66-2.94-.418-.308-.789-.584-.824-.612-.064-.052.249-.74.486-1.067.098-.135.31-.103.843.128.392.17 1.156.447 1.7.617.543.169 1.934.781 3.09 1.361 2.163 1.083 3.203 1.535 4.318 1.876l.64.195.181-.553c.1-.305.89-2.262 1.755-4.35.866-2.087 1.575-3.853 1.575-3.924 0-.22-1.623-.86-3.773-1.489-1.82-.532-2.199-.704-3.286-1.485a36.404 36.404 0 0 0-2.468-1.601c-1.097-.636-1.25-.779-1.339-1.248-.126-.672-.085-.729.737-1.043.66-.252.696-.25 1.335.075.362.184 1.034.588 1.494.898 2.472 1.665 5.902 3.43 6.87 3.535l.709.077.486-1.31c.267-.722.845-1.996 1.285-2.832.583-1.108.903-1.964 1.18-3.154l.382-1.632-1.692-.898c-.93-.493-2.342-1.219-3.137-1.611a50.588 50.588 0 0 1-2.773-1.5l-1.328-.787v-1.292l1.179.008c1.284.008 1.16-.048 5.969 2.53.795.427 1.693.812 1.997.856l.552.081.158-.786c.087-.432.923-2.394 1.857-4.36.935-1.965 1.732-3.682 1.773-3.815.055-.183-.604-.603-2.714-1.73-1.532-.818-3.394-1.868-4.137-2.332-1.379-.861-3.011-1.552-3.668-1.552-.299 0-.385-.099-.466-.531-.144-.768-.048-.892.93-1.2.773-.244.988-.254 1.804-.087 1.139.235 1.217.274 4.496 2.245 1.462.878 3.008 1.752 3.435 1.941l.777.344 1.191-2.459c1.232-2.542 3.111-6.767 3.115-7.003 0-.074-.973-1.102-2.165-2.286-1.192-1.183-2.706-2.748-3.364-3.477-1.105-1.223-1.214-1.404-1.408-2.329-.115-.551-.175-1.06-.131-1.129.042-.07.28-.17.525-.225.951-.209 2.403.877 3.57 2.669.825 1.266 2.307 2.992 3.197 3.72l.69.565.296-.36c.164-.197.754-1.215 1.313-2.26.56-1.046 1.374-2.312 1.81-2.814 1.122-1.29 3.121-3.872 3.121-4.03 0-.073-.667-.808-1.482-1.632-1.517-1.533-4.453-3.691-5.021-3.691-.673 0-1.383.396-2.285 1.274-1.11 1.082-1.316 1.019-1.187-.362.127-1.36.317-1.715 1.197-2.239 1.077-.64 2.046-.751 3.262-.372 1.338.418 3.674 1.968 5.343 3.546.784.74 1.468 1.346 1.521 1.346.054 0 .337-.356.63-.79.919-1.367 2.734-3.64 4.103-5.14a60.898 60.898 0 0 0 2.09-2.413l.772-.968-.361-1.063a11.618 11.618 0 0 0-.945-1.998c-.32-.514-.876-1.653-1.233-2.532-.358-.878-.923-2.062-1.257-2.63-.517-.881-.727-1.093-1.425-1.436-.662-.324-.978-.624-1.637-1.552-1.21-1.705-1.21-1.795.011-2.057.409-.088.641-.018 1.293.388 1.033.645 1.553 1.133 3.03 2.843.953 1.103 1.31 1.652 1.63 2.51.225.604.803 1.672 1.284 2.375.482.702 1.08 1.683 1.33 2.18l.457.902.942-.853c.518-.469 1.626-1.322 2.463-1.895 1.813-1.243 5.302-3.922 5.373-4.125.027-.079-.306-.759-.74-1.51-.719-1.247-.871-1.414-1.722-1.886-.514-.286-1.258-.587-1.653-.67-.622-.13-.818-.103-1.46.194-1.116.517-1.852 1.721-2.195 3.59-.22 1.196-.349 1.325-1.128 1.13-.377-.095-.382-.114-.287-1.192.08-.907.23-1.36.866-2.617.46-.908 1.097-1.878 1.58-2.406.79-.866.832-.889 1.915-1.05 2.81-.417 6.47 1.229 7.603 3.418.162.313.335.57.384.57.05 0 .647-.334 1.328-.743 1.755-1.054 2.942-1.62 3.841-1.832.54-.127.936-.345 1.29-.71.348-.359.82-.622 1.49-.829.539-.166 1.373-.479 1.853-.695l.874-.392.068-.86c.059-.751 0-1.011-.499-2.076-.518-1.115-.66-1.285-1.699-2.044l-1.133-.827.314-.582c.227-.422.466-.629.867-.75.486-.149.625-.125 1.153.192 1.055.635 2.271 1.85 2.694 2.692.303.604.43 1.133.497 2.082l.09 1.273.744-.377c.41-.207 1.21-.482 1.78-.611l1.038-.234.081-2.176c.073-1.945.126-2.275.498-3.104.375-.837.512-.982 1.372-1.463.867-.485 1.066-.534 2.147-.533 1.885 0 2.884.222 3.843.852 1.139.747 2.072 1.804 2.375 2.689.187.545.313.71.502.657.138-.04.56-.115.936-.168a10.49 10.49 0 0 0 1.407-.328c.508-.161 1.188-.215 2.282-.18.857.028 2.76-.045 4.23-.162l2.672-.212-.296-1.078c-.345-1.258-.94-2.064-2.296-3.107-.743-.572-1.074-.724-1.758-.808-.815-.1-.854-.087-1.219.376-.207.264-.669.756-1.026 1.094-.358.338-.65.736-.65.884 0 .378-.617 1.771-.784 1.771-.248 0-1.154-.421-1.253-.582-.2-.325.677-2.21 1.494-3.206 1.422-1.735 1.962-2.239 2.862-2.664.826-.39.922-.404 1.749-.235.48.099 1.456.48 2.167.85 1.1.57 1.389.805 1.93 1.568.856 1.207 1.136 1.792 1.726 3.6l.5 1.536 5.184.098c2.852.053 5.364.138 5.583.189.398.09.4.088.701-1.54l.303-1.63-.635-2.001c-.507-1.597-.782-2.2-1.358-2.985-1.809-2.46-3.32-4.984-3.987-6.664-.378-.95-.647-1.767-.6-1.815.186-.185 1.346 1.16 1.94 2.25.873 1.596 2.353 3.687 3.5 4.942 1.893 2.074 3.16 4.666 3.16 6.468 0 .474.043 1.376.096 2.004l.096 1.141 2.147.09c1.472.06 2.458.182 3.135.386.544.164 1.331.34 1.75.393.418.052 1.424.29 2.235.529l1.475.434.298-.88c.273-.811.282-.995.106-2.301-.219-1.632-.684-2.932-1.76-4.921-.731-1.354-.82-1.452-2.47-2.7-3.059-2.317-3.538-2.91-2.852-3.53.294-.266.34-.25 1.635.54.733.449 2.28 1.583 3.44 2.52 2.383 1.928 2.817 2.5 3.966 5.227.668 1.583.935 2.842 1.233 5.802l.102 1.012.706.105c.389.058 1.46.275 2.38.483.92.208 2.163.437 2.763.51.641.077 1.406.29 1.858.52.422.213.855.388.962.388.108 0 .377-.29.598-.646.346-.555.413-.861.476-2.167.105-2.172-.197-3.227-2.273-7.955-.967-2.2-1.719-4.039-1.672-4.086.048-.048.312-.042.588.012.39.076.646.301 1.146 1.005.87 1.224 3.848 7.217 4.369 8.792.395 1.196.415 1.392.363 3.516l-.055 2.249 1.37.099c.753.054 2.67.396 4.258.758l2.89.66.769-1.602.768-1.602-.483-1.76c-.84-3.053-1.444-4.221-3.777-7.31-1.08-1.43-1.75-2.65-1.56-2.839.053-.054.526.085 1.05.309.808.345 1.138.618 2.183 1.81 2.046 2.334 3.236 4.079 3.79 5.555.845 2.257.906 2.745.613 4.907-.14 1.04-.312 2.149-.381 2.463-.11.495-.09.57.15.57.151 0 .374.038.494.084.144.055.288-.083.421-.405.306-.738 3.149-3.843 3.624-3.957.785-.189 2.248-.127 3.71.157 1.855.36 2.615.871 3.246 2.183l.42.876-.475 1.025c-.442.953-.763 2.25-.523 2.113.058-.033.627-.174 1.266-.314l1.161-.254.163-1.093c.124-.835.383-1.533 1.094-2.947l.933-1.853.83-.338c1.142-.463 2.143-.345 3.93.462 1.28.579 1.414.683 1.958 1.525.758 1.17.882 2.233.416 3.558-.174.494-.316 1.122-.316 1.396v.498l.875-.077a8.38 8.38 0 0 0 1.721-.377l.847-.301-.069-1.298c-.058-1.124-.02-1.403.287-2.083a8.852 8.852 0 0 1 .884-1.47c.292-.376.545-.706.563-.732.11-.165 2.053-.485 2.471-.407.28.052 1.19.446 2.025.877l1.517.783.659 1.222c.449.834.69 1.497.76 2.082l.101.86 1.246-.07c.685-.038 1.844-.21 2.575-.382 1.255-.294 1.387-.299 2.357-.077.566.13 1.515.27 2.11.31l1.083.076.083-.915c.149-1.642-1.018-4.277-2.048-4.626-1.14-.386-2.317.512-2.705 2.064-.286 1.141-.25 1.103-.783.827l-.48-.249.084-1.391c.047-.766.128-1.495.18-1.62.052-.126.498-.545.99-.931.724-.57 1.086-.74 1.914-.896 1.11-.21 3.129-.124 3.735.158.2.093.763.711 1.251 1.374l.888 1.205-.099 1.864c-.054 1.025-.132 2.044-.173 2.263-.072.386-.047.401.808.478.698.064 1.114 0 1.998-.309 1.072-.373 1.146-.38 1.845-.156.577.185.912.201 1.617.08.625-.108 1.23-.102 2.034.02.63.096 1.458.174 1.842.174h.697l.23-.83.232-.829-.641-1.08c-1.084-1.829-2.166-3.03-3.117-3.46-1.067-.484-1.857-.469-2.536.05-.462.352-.565.373-1.04.217-.652-.215-.737-.349-.617-.96.066-.332.303-.64.753-.979l.656-.494h4.189l1.541 1.128c2.208 1.617 3.014 2.508 3.418 3.78a7.3 7.3 0 0 1 .328 2.07v1.042l.753.313c.737.306.767.307 1.482.037a8.804 8.804 0 0 1 1.363-.38l.633-.104.166-.952c.09-.524.165-1.37.165-1.883 0-.512.073-1.088.162-1.28.088-.192.596-.68 1.129-1.083.836-.634 1.113-.754 2.046-.893.9-.133 1.301-.114 2.407.117 1.225.256 1.39.336 2.127 1.03.678.638.847.914 1.118 1.824.259.87.3 1.287.218 2.22-.055.633-.132 1.26-.17 1.395-.102.355 1.453.472 2.619.198 1.292-.304 2.927-.272 3.89.076.95.344 2.521.622 3.516.622h.71l.03-1.027a80.72 80.72 0 0 0-.02-3.208c-.05-2.13-.067-2.222-.689-3.892-.547-1.47-.884-2.064-2.395-4.214-.966-1.376-1.943-2.868-2.17-3.315l-.411-.813.474-.472.473-.473.396.532c.218.293 1.094 1.217 1.946 2.054 1.334 1.31 1.703 1.79 2.663 3.464 1.464 2.555 1.84 4.12 1.878 7.79.013 1.338-.026 2.615-.086 2.837-.103.374-.061.422.557.632.613.21.783.203 2.05-.076l1.382-.303.562.348c.519.32.714.344 2.474.311 1.242-.023 2.185.037 2.693.172l.782.208.145-.904c.136-.84.11-1-.373-2.292-.288-.77-.93-2.016-1.44-2.794-.817-1.245-1.106-1.542-2.538-2.605a75.772 75.772 0 0 0-2.909-2.047c-.71-.467-1.667-1.19-2.124-1.607l-.832-.76.73-.312c.402-.173.788-.313.858-.313.07 0 .663.227 1.318.506 2.643 1.122 8.415 5.683 8.415 6.648 0 .08.068.146.15.146.082 0 .356.408.608.908.356.705.527 1.378.763 3.004.167 1.152.303 2.168.304 2.258 0 .102.835.222 2.21.319 1.817.128 2.389.115 3.208-.069.97-.217 1.02-.213 1.87.153.533.23 1.05.351 1.328.31.454-.066.456-.07.393-.928-.073-.998-.864-3.247-1.723-4.9-.482-.927-.81-1.325-1.687-2.046-1.794-1.476-4.054-2.931-5.085-3.274l-.963-.32.242-.37c.284-.433.348-.437 2.01-.144 1.15.202 1.436.329 2.966 1.316.932.601 2.33 1.647 3.107 2.323 1.3 1.134 1.5 1.388 2.534 3.208.903 1.592 1.173 2.222 1.385 3.232.145.69.341 1.255.436 1.255.232 0 2.65.285 3.146.371l.397.068.08-1.578c.072-1.405.132-1.668.547-2.388.672-1.167 1.495-1.644 2.832-1.644.984 0 1.068.03 1.997.711.988.726 1.876 1.984 2.771 3.927l.351.76 2.5.055c1.664.036 2.5 0 2.5-.104 0-.087-.197-.693-.437-1.347-.241-.654-.487-1.616-.547-2.138-.101-.876-.077-1.002.316-1.623.897-1.418 2.58-1.086 4.89.966.85.755 1.028 1.02 1.663 2.48.57 1.31.774 1.637 1.025 1.643.173.008.793.063 1.379.13 1.023.119 1.121.1 2.51-.471.794-.328 1.504-.655 1.576-.727.075-.075-.069-.66-.331-1.346a19.792 19.792 0 0 1-.72-2.408c-.228-1.065-.231-1.275-.034-1.954.275-.946.685-1.182 2.205-1.265l1.1-.06 1.065.89c1.006.841 1.104.982 1.74 2.489.372.878.723 1.855.78 2.171.08.432.168.558.354.507.137-.038.66-.112 1.161-.165a10.953 10.953 0 0 0 1.834-.395l.921-.299-.191-1.632c-.375-3.196-.26-3.957.697-4.636.836-.592 2.249-.593 3.697 0 .984.402 1.085.495 2.48 2.268l1.455 1.848 1.144-.353c.63-.194 1.177-.386 1.218-.427.04-.04-.249-.63-.644-1.309-1.033-1.777-1.065-2.383-.222-4.105.556-1.133.763-1.398 1.485-1.903l.84-.587 1.96.088 1.96.087 1.557 1.626c.857.894 1.675 1.85 1.82 2.124l.26.498 2.248-.834c1.237-.46 3.172-1.145 4.301-1.525 1.13-.38 2.118-.749 2.198-.822.09-.082.015-.53-.195-1.183-.304-.946-.432-1.127-1.27-1.814-1.361-1.115-3.134-1.763-7.55-2.76-1.807-.41-1.9-.416-2.63-.182l-.757.242-.367-.45c-.202-.247-.368-.484-.369-.525 0-.043.378-.306.842-.587l.843-.51 1.244.18c4.514.653 7.374 1.427 9.809 2.654 1.063.537 1.438.821 1.923 1.462.464.614.82.894 1.554 1.223l.95.427.956-.386c1.04-.42 7.255-3.726 7.263-3.863.011-.204-2.157-1.687-3.265-2.233l-1.217-.6-1.394.41c-.777.23-1.82.676-2.358 1.01-1.365.849-3.322 1.573-4.251 1.573h-.76l.807-.989c.952-1.166 2.167-1.86 5.422-3.103 2.996-1.144 4.004-1.086 6.943.404.417.211 1.226.81 1.796 1.33l1.037.947 1.322-.37c.961-.27 1.888-.7 3.4-1.583 1.144-.667 2.65-1.445 3.346-1.729.697-.284 1.25-.589 1.23-.677-.022-.088-.277-.493-.57-.9-.442-.615-.716-.815-1.635-1.196-1.055-.437-1.167-.453-2.549-.35a8.739 8.739 0 0 0-5.618 2.65c-.391.408-.65.547-1.017.547-.59 0-1.273-.238-1.273-.445 0-.081.565-.619 1.255-1.194 2.918-2.433 5.77-3.96 7.642-4.09 1.823-.127 3.7.732 6.06 2.774l.737.637 1.544-.489c2.341-.74 6.183-2.778 6.183-3.279 0-.084-.319-.632-.708-1.218-.607-.913-.863-1.15-1.787-1.654-1.348-.735-2.134-.827-6.713-.789l-3.353.028-.497-.692c-.355-.494-.44-.713-.297-.762 1.43-.495 3.163-.842 4.206-.842.664 0 1.745-.11 2.401-.246 1.864-.386 3.091-.155 5.347 1.003.98.504 2.397 1.36 3.15 1.903.753.543 1.422.988 1.486.989.233 0 2.636-1.263 3.305-1.74.852-.61 3.2-1.743 4.73-2.284l1.155-.408-.202-1.243a27.974 27.974 0 0 1-.205-1.397c-.006-.305-2.11-2.749-2.84-3.297-.41-.308-1.325-.82-2.034-1.136-.709-.317-1.974-.989-2.811-1.493-.838-.505-1.95-1.088-2.473-1.295-.976-.388-1.01-.43-1.187-1.425l-.105-.588.819.108c1.023.134 4.482 1.249 6.332 2.04l1.396.596.674-1.053c.753-1.177 1.873-2.014 4.327-3.232 1.109-.55 1.614-.7 3.146-.928 2.503-.374 4.284-.194 5.799.585 1.072.551 2.437 1.886 3.787 3.705.326.44.642.799.702.799.147 0 2.018-1.504 2.077-1.67.074-.207-.88-2.008-1.349-2.544-.47-.538-.693-1.533-.546-2.436.11-.684.738-1.955 1.247-2.528.36-.406.475-.438 1.862-.512 1.283-.068 1.653-.028 2.813.311 1.262.369 1.408.457 2.636 1.595l1.3 1.205.786-.298c.715-.271 2.234-1.28 2.229-1.481-.001-.046-.412-.323-.913-.615-.806-.472-.947-.628-1.234-1.37-.38-.984-.512-2.009-.374-2.918.088-.582.19-.716.92-1.202 1.17-.778 2.883-1.016 4.987-.692 1.447.222 1.508.248 2.486 1.06l1.003.833 1.196-.403c.957-.323 1.274-.51 1.587-.935.214-.293.87-.856 1.455-1.25l1.066-.72-.576-.241a6.552 6.552 0 0 0-.977-.324c-.221-.046-.69-.376-1.043-.735-.593-.605-.647-.728-.722-1.662-.12-1.502.164-2.026 1.444-2.657.815-.402 1.25-.511 2.309-.58l1.305-.084 1.672.848c.92.467 1.87.982 2.11 1.146l.437.297.96-.43c.529-.237 1.461-.808 2.073-1.268.611-.46 1.314-.913 1.562-1.007l.451-.172-.527-.399c-.943-.715-1.987-1.922-2.454-2.837-.455-.892-.455-.899-.194-1.48.429-.95 1.194-1.226 3.466-1.252 2.09-.024 1.75-.15 4.131 1.537l1.066.755 1.147-.331c.63-.182 2.16-.864 3.399-1.516l2.252-1.185-.967-.617a20.447 20.447 0 0 0-2.184-1.162c-.67-.3-1.611-.851-2.091-1.227-1.122-.876-1.143-1.192-.146-2.175.842-.83.987-.85 3.238-.48 1.662.273 4.106 1.359 5.908 2.624l1.07.751 1.257-.264c.693-.145 1.943-.537 2.78-.872.836-.335 1.777-.656 2.09-.713.651-.118.661-.157.32-1.238-.282-.897-.048-.75-4.002-2.487-1.747-.767-2.081-.969-2.273-1.373-.21-.445-.199-.528.191-1.324.382-.779.45-.841.828-.758.227.05 1.097.131 1.933.182 1.482.089 1.568.115 3.346 1.01 2.017 1.015 3.426 2.203 4.125 3.477l.381.697.941-.14c.705-.106 1.245-.327 2.157-.884.67-.41 1.649-.89 2.177-1.068.709-.24.938-.383.875-.548-.048-.122-.086-.412-.086-.644 0-.335-.224-.61-1.103-1.353-1.039-.88-1.148-.933-1.89-.936-1.238-.008-1.506-.166-1.716-1.042a4.336 4.336 0 0 1-.075-1.46c.218-1.454.953-1.364 5.544.685 1.475.658 2.944 1.764 3.616 2.725l.534.762h1.633c1.561 0 1.7-.027 3.135-.616 1.44-.591 2.184-1.134 2.184-1.593 0-.119-.145-.514-.322-.88-.256-.526-.513-.766-1.254-1.167-1.122-.606-4.07-3.567-3.933-3.95.047-.129.296-.42.554-.646.417-.367.593-.413 1.59-.419 1.066-.008 1.196.033 2.586.78 2.197 1.178 3.6 2.354 4.46 3.739.395.634.758 1.34.808 1.568.084.382.174.428 1.094.56.897.129 1.154.1 2.428-.273.784-.23 1.869-.606 2.41-.836l.986-.419v-.705c0-.64-.066-.77-.723-1.413-.633-.621-1.31-1.03-1.703-1.03-.069 0-.156.21-.193.467-.06.406.03.552.702 1.14l.771.675h-.729c-.91 0-1.587-.504-2.753-2.048-1.35-1.785-1.66-2.421-1.505-3.077.111-.47.219-.584.661-.7.291-.076 1.077-.106 1.746-.067 1.922.112 4.11 1.17 6.353 3.07.544.462.808.838 1.05 1.5.264.719.426.934.871 1.154.51.253.701.257 2.828.066l3.21-.29.929-.084-.26-1.093a8.39 8.39 0 0 0-.823-2.027c-.459-.761-.696-.993-1.277-1.246l-.714-.31-.048.442c-.029.27.104.7.342 1.106.215.366.39.702.39.747 0 .045-.202.166-.449.268-.425.177-.492.149-1.291-.541-.463-.4-.875-.835-.914-.966-.36-1.212-.692-2.575-.692-2.847 0-.217.188-.449.543-.668.51-.316.626-.327 1.888-.186 1.239.138 1.476.224 3.003 1.082 1.37.77 1.83 1.128 2.655 2.062.873.989 1.03 1.26 1.257 2.19l.26 1.06 1.014.458 1.015.459 2.129-.284c1.17-.155 2.24-.285 2.378-.289.224-.008.218-.108-.06-1.065-.468-1.601-2.02-3.271-3.105-3.34-.297-.019-.566 1.069-.525 2.118.043 1.075.046 1.075-.773-.017-.633-.843-.922-2.046-.853-3.556l.048-1.064.797-.213c.692-.184.998-.182 2.31.021 1.329.205 1.65.318 2.625.928 1.559.973 2.618 2.229 3.338 3.958.318.764.58 1.535.583 1.715.004.268.15.362.803.517.44.105 1.272.352 1.852.548.75.254 1.395.357 2.243.357h1.19v-.764c0-1.097-.968-2.998-1.734-3.404-.528-.28-.557-.28-.851-.014-.382.345-.382.628 0 1.597.167.424.304.803.304.842 0 .157-1.176.057-1.4-.12-.134-.105-.466-.883-.74-1.73l-.498-1.542.3-.74c.391-.965.974-1.278 2.338-1.258 1.355.02 1.486.077 2.805 1.202 1.507 1.284 2.462 2.703 3.035 4.507l.442 1.39.908.275c.501.152 1.222.526 1.605.834l.696.558.655-.223c.36-.122.996-.199 1.413-.17.418.03.76.008.76-.054 0-.059-.162-.552-.36-1.096-.511-1.411-1.513-3.023-2.23-3.591-.597-.473-.639-.483-1.28-.303l-.664.186.195.479c.108.263.246.642.307.842.109.353.092.35-.566-.123-.477-.342-.806-.755-1.11-1.392l-.433-.905.522-.538c.286-.296.815-.71 1.174-.92.638-.374.676-.378 1.82-.186.934.157 1.315.308 1.913.757.937.704 2.247 2.174 3.168 3.555.597.896.748 1.277.966 2.45l.258 1.388 2.685.677c1.796.453 2.892.656 3.312.612l.628-.064-.214-.86a25.962 25.962 0 0 0-.602-1.952c-.385-1.087-.39-1.092-1.11-1.277-.399-.102-.726-.261-.729-.353a30.394 30.394 0 0 0-.113-1.157c-.109-.988-.109-.989.428-1.506l.538-.517 1.014.617c.979.596 1.034.663 1.601 1.937.905 2.032 1.809 4.587 1.809 5.112 0 .446.024.466.418.345.23-.07.776-.129 1.212-.13.722 0 .834.046 1.24.53l.446.532 1.041-.551c.573-.303 1.5-.672 2.06-.819 1.244-.327 2.08-.174 3.24.595.756.5.769.503 1.977.384.67-.066 3.304-.124 5.856-.13l4.638-.01 3.878.593c3.808.581 3.912.607 5.704 1.4 2.461 1.088 4.382 2.208 6.387 3.726 1.46 1.105 1.747 1.399 2.257 2.308l.583 1.043 1.318-.198a22.38 22.38 0 0 1 2.707-.202c1.668-.008 2.415.273 3.232 1.197.527.596.667.656 3.4 1.455 1.567.459 3.055.94 3.306 1.07.255.131.598.519.779.879.182.362 1.435 1.772 2.868 3.228 1.4 1.422 2.627 2.74 2.726 2.929.14.265.14.48 0 .946l-.18.603 1.505 1.611c.828.886 1.968 2.103 2.532 2.704.954 1.016 1.024 1.137.996 1.73-.027.591.048.722 1.044 1.825.59.653 1.596 1.598 2.235 2.098l1.163.91v.845c0 .818.023.866.798 1.614.44.425 1.38 1.205 2.091 1.736.711.53 1.335 1.024 1.386 1.098.05.075.176.523.28.998.175.812.29.967 1.988 2.687 1.17 1.186 1.886 2.04 2.043 2.438.272.692 1.265 1.535 2.786 2.363.83.452.976.6 1.116 1.12.267.991.815 1.639 1.816 2.144.872.44.96.536 1.65 1.823.696 1.3.773 1.383 1.749 1.912.909.492 1.1.681 1.744 1.72.62 1 .9 1.286 1.946 1.986.672.45 1.446 1.101 1.72 1.448.275.346 1.055 1.095 1.734 1.664a96.908 96.908 0 0 1 2.528 2.213c.71.648 2.011 1.661 2.89 2.252 1.784 1.2 3.65 2.681 3.65 2.898 0 .732-.96 2.383-1.385 2.383-.18 0-2.18-1.156-5.162-2.983-2.297-1.409-3.354-2.183-5.703-4.181-1.586-1.35-3.135-2.622-3.444-2.83-.308-.206-1.042-1.006-1.63-1.775-.59-.77-1.295-1.566-1.57-1.769-.273-.203-.993-.725-1.599-1.16-.606-.434-1.024-.816-.929-.848.095-.031-.56-.738-1.456-1.571-.896-.833-2.375-2.373-3.287-3.423-1.562-1.797-1.688-1.906-2.157-1.856-.488.052-.534 0-2.172-2.383-1.62-2.36-1.69-2.437-2.205-2.44-.511-.009-.614-.113-2.646-2.816-1.663-2.213-2.222-2.851-2.622-2.996-.416-.15-.872-.704-2.477-3.006-1.228-1.76-2.171-2.956-2.507-3.18-.43-.287-.838-.927-2.006-3.142-1.348-2.555-1.515-2.803-2.056-3.047-.509-.23-.858-.681-2.582-3.343l-1.993-3.078-.86-.065c-.759-.058-1.13-.229-3.216-1.479l-2.357-1.413-.771.26c-.999.337-2.712.207-4.375-.331-1.214-.393-1.36-.374-1.533.201-.13.43.458.651 2.165.82 1.032.1 1.42.216 2.094.626 1.002.607 1.584 1.389 1.584 2.128v.536l1.559.59c.857.323 2.117.884 2.799 1.246 1.21.642 1.253.685 1.749 1.72.485 1.013.568 1.098 1.801 1.845a42.19 42.19 0 0 1 2.59 1.737c1.163.856 1.348 1.062 1.814 2.024.469.97.67 1.192 2.134 2.357.89.707 2.338 2.06 3.22 3.008 1.398 1.502 1.644 1.847 1.93 2.71.222.673.74 1.569 1.621 2.803 1.843 2.582 2.356 3.546 2.356 4.432 0 .687.072.811 1.52 2.604 2.17 2.686 2.385 3.08 1.812 3.335-.303.136-.247.238.965 1.736 1.405 1.738 2.168 3.198 2.06 3.94-.056.375.067.627.67 1.371 1.63 2.014 2.402 3.216 2.402 3.737 0 .373.11.589.418.823.879.668 2.629 2.818 2.793 3.43.202.753.621 1.317 2.208 2.966.81.843 1.373 1.585 1.616 2.13.208.465 1.075 1.679 1.955 2.737 1.626 1.955 3.132 4.043 4.17 5.78.325.543 1.181 1.78 1.902 2.749 1.105 1.484 1.341 1.906 1.507 2.686.193.911.19.933-.22 1.471-.518.678-1.766 1.61-2.158 1.61-.19 0-.794-.62-1.72-1.765-1.13-1.397-1.598-2.134-2.242-3.527-.882-1.91-1.254-2.385-4.567-5.825-1.407-1.461-1.789-1.96-2.13-2.777-.303-.729-.745-1.357-1.642-2.334-.675-.736-1.578-1.817-2.005-2.402-.428-.586-1.087-1.27-1.465-1.521-.582-.386-.784-.667-1.316-1.825-.408-.889-.934-1.716-1.5-2.358-.744-.843-.97-1.252-1.536-2.788-.584-1.585-.74-1.863-1.314-2.333-.894-.732-2.38-3.237-2.636-4.443-.185-.874-.223-.928-.705-1.019-.601-.112-.847-.517-2.333-3.826-.813-1.808-1.028-2.164-1.432-2.358-.402-.193-.726-.72-2.073-3.362-.878-1.723-1.675-3.134-1.77-3.136-.096 0-.708-.705-1.359-1.562-3.524-4.639-3.557-4.677-4.154-4.678-.827 0-2.193-1.145-3.653-3.054a79.237 79.237 0 0 0-1.663-2.116l-.452-.532-.48.28c-.64.373-1.202.146-1.768-.712-.612-.93-2.287-2.625-3.332-3.373-.623-.446-1.141-.687-1.636-.76-.717-.108-.925-.233-2.63-1.583l-.85-.674-.56.615c-.487.535-.706.646-1.7.862-3.044.662-5.925 1.035-8.592 1.113-2.546.073-2.944.046-5.67-.392-2.161-.347-3.442-.471-4.867-.472-3.138 0-8.22-.776-9.55-1.453-.453-.23-.495-.223-1.248.246l-.78.485-1.034-.188a18.57 18.57 0 0 1-2.165-.57c-1.009-.341-1.213-.364-1.875-.211-1.034.239-2.657.202-3.38-.076-1.122-.431-1.194-.421-2.37.31-.972.605-1.23.698-1.946.698-.794 0-.856-.031-1.617-.799-.722-.729-.8-.876-.892-1.685-.095-.832-.617-2.955-.763-3.101-.036-.037-.448.054-.915.201-.793.25-.888.334-1.445 1.267-.53.888-.741 1.086-1.907 1.782-1.11.664-1.468.8-2.344.888-1.127.113-1.41.058-4.052-.792-1.097-.353-1.956-.74-2.496-1.127-.453-.324-.922-.589-1.042-.589s-.694.25-1.275.555l-1.056.555-.792-.357c-.435-.196-1.197-.652-1.694-1.011-.756-.548-.97-.81-1.307-1.605-.222-.523-.434-.95-.47-.95-.038 0-.56.559-1.162 1.242-1.427 1.618-2.565 2.332-3.72 2.332-.707 0-.966-.088-1.73-.584-.493-.321-1.402-1.117-2.018-1.768-.722-.763-1.159-1.12-1.23-1.006-.06.098-.505.653-.989 1.233-.985 1.183-1.26 1.312-3.137 1.464-1.5.122-2.55-.199-3.434-1.05-.603-.579-.668-.604-1.32-.506-.619.093-.698.152-.793.59-.247 1.146-1.512 4.825-1.974 5.744-.492.977-.521 1.004-1.313 1.19-.752.178-.869.166-1.622-.17-.802-.358-.818-.379-1.42-1.8-.536-1.267-.618-1.62-.693-3.008l-.086-1.571-.416.43c-.292.302-.487.752-.65 1.5-.25 1.144-1.1 2.783-2.148 4.14l-.615.799h-1.992l-1.211-1.006-1.212-1.006-.089-1.352c-.049-.743-.126-1.389-.172-1.435-.046-.045-.59.168-1.21.474l-1.126.558.06.942c.056.892.015 1.03-.778 2.606-.696 1.383-.963 1.76-1.585 2.23l-.747.564-.794-.253c-.65-.208-.963-.445-1.73-1.309-.885-.995-.941-1.104-1.002-1.946-.036-.49-.1-.892-.143-.892-.043 0-.341.079-.663.175-.47.14-.704.359-1.187 1.103-.517.797-.627 1.12-.78 2.296-.156 1.19-.271 1.524-.884 2.56-.389.657-.998 1.431-1.356 1.725l-.652.534-.793-.188c-.584-.139-1.065-.414-1.818-1.041-1.01-.84-1.023-.863-1.03-1.613-.01-.952-.568-1.705-1.317-1.774-1.11-.103-2.636 1.625-2.636 2.985 0 .795-.424 2.16-1.06 3.412a4.093 4.093 0 0 1-1.209 1.44c-.742.562-.799.58-1.27.389-.27-.11-.919-.477-1.44-.817-.93-.604-.959-.641-1.354-1.843l-.404-1.227-.502.086c-.391.067-.652.287-1.175.987-.627.84-.663.937-.524 1.44.171.618.06 2.019-.33 4.154-.218 1.188-.386 1.654-.862 2.394l-.592.918H501.69l-.74-1.384-.74-1.384.261-.862c.144-.474.238-1.045.21-1.27l-.052-.407-.989.44c-.543.24-1.307.482-1.696.536-.682.094-.725.13-1.204 1.036a30.97 30.97 0 0 1-.877 1.546c-.382.61-1.08 3.012-1.086 3.733-.005.679-.463 2.19-.752 2.48-.154.156-.681.376-1.172.49-.785.183-.987.178-1.678-.039-.654-.206-.933-.42-1.668-1.288-.486-.572-.93-1.04-.986-1.04-.057 0-.704.441-1.437.982l-1.333.982.035 1.893c.032 1.68-.002 1.966-.295 2.553-.615 1.23-2.02 2.412-2.865 2.41-.136-.001-.692-.242-1.236-.537a99.928 99.928 0 0 0-1.622-.86l-.635-.325-.787.66c-.433.362-1.17 1.143-1.639 1.735-1.008 1.274-1.04 1.299-1.633 1.302h-.461l.06 1.085c.055.95.009 1.196-.367 1.983-.387.808-.53.952-1.42 1.425-.85.45-1.138.526-2.026.526-.904 0-1.188-.077-2.245-.609-.665-.334-1.243-.608-1.284-.608-.04 0-.12.36-.177.798-.096.744-.18.872-1.21 1.863l-1.107 1.065-.15 1.52c-.121 1.223-.253 1.733-.669 2.6-.978 2.036-1.5 2.496-2.828 2.496-.87 0-2.6-.69-3.697-1.474-.808-.577-.886-.59-1.547-.26-.819.41-3.143 1.954-3.145 2.09-.002.071.28.674.627 1.34.611 1.174.627 1.242.542 2.304-.126 1.572-1.198 4.426-1.816 4.836-.075.05-.614.177-1.197.281l-1.06.19-.853-.51c-.469-.28-1.647-1.243-2.618-2.141-.97-.898-1.833-1.63-1.916-1.625-.084.008-.94.505-1.901 1.115l-1.75 1.108.053 1.012c.057 1.116-.353 3.736-.688 4.4-.676 1.337-1.464 2.311-2.385 2.947l-.975.673-.86-.421c-.762-.374-.936-.552-1.538-1.58-.493-.841-.678-1.319-.676-1.752.008-1 .177-1.034.848-.169.338.435.807.893 1.044 1.018.42.223.441.215.903-.354.427-.525.488-.736.628-2.167.085-.871.135-1.584.11-1.584-.025 0-.505.23-1.068.512-.562.282-1.624.708-2.36.947-1.297.42-1.365.465-2.233 1.502-.834.995-.98 1.099-2.103 1.497l-1.207.428.387 1.169c.354 1.068.389 1.401.399 3.849l.011 2.68-.683 1.347c-.683 1.346-1.442 2.329-3.73 4.83-1.085 1.187-2.41 2.222-2.601 2.03-.12-.118 1.263-2.815 1.858-3.626.724-.986 1.403-3.095 1.659-5.15.18-1.446.17-1.799-.105-3.727-.167-1.17-.334-2.16-.37-2.197-.086-.086-7.702 3.702-8.438 4.196l-.548.369.206 1.173c.405 2.311.42 3.491.06 4.885-.565 2.19-.887 2.654-3.277 4.71-2.1 1.807-2.151 1.84-3.726 2.37-.878.297-1.677.54-1.775.54-.196 0-.59-1.032-.448-1.173.048-.048.422-.12.831-.16 1.582-.152 3.425-2.354 4.843-5.783.542-1.313.656-1.758.656-2.574 0-.955-.372-2.633-.582-2.626-.057 0-.548.244-1.091.538-1.67.903-5.177 2.45-6.548 2.888l-1.3.416.33 1.93c.181 1.062.38 2.666.441 3.564.11 1.62.107 1.645-.386 2.801-.274.642-.616 1.304-.76 1.471-.143.167-.446.674-.672 1.126-.65 1.3-1.733 2.555-2.74 3.177-.982.607-3.037 1.552-3.375 1.552-.312 0 .14-.651 1.321-1.9 1.396-1.478 1.75-1.984 2.298-3.282.964-2.285 1.164-5.181.498-7.212-.22-.67-.454-1.277-.52-1.35-.067-.072-1 .341-2.073.92-2.873 1.547-5.062 2.483-5.81 2.483-.345 0-.628.07-.628.155 0 1.042-.698 6.342-.978 7.428-.322 1.246-.48 1.57-1.265 2.586-.493.638-1.042 1.227-1.22 1.307-.177.08-.445.423-.594.76-.15.338-.72 1.094-1.267 1.68-.692.741-1.125 1.375-1.426 2.09-.238.565-.485 1.027-.549 1.027-.064 0-.202-.206-.306-.458-.165-.397-.136-.654.213-1.914.52-1.872 1.119-3.055 2.265-4.472.508-.627.974-1.209 1.035-1.292.062-.084.249-1.052.417-2.152l.305-2-.355-1.396c-.196-.769-.391-1.433-.434-1.476-.043-.043-.613.206-1.267.554-1.58.838-4.381 1.836-6.83 2.433l-1.988.485.117.711c.065.391.121 1.423.126 2.294.01 1.529-.008 1.613-.516 2.521-.29.517-.827 1.217-1.195 1.556-.926.854-1.714.955-3.784.486-1.34-.304-1.744-.478-3.15-1.359a62.766 62.766 0 0 1-2.676-1.775c-1.257-.904-2.022-1.133-3.08-.924l-.748.148.14.86c.222 1.354.04 4.327-.343 5.65-.182.627-.487 1.946-.677 2.932-.19.985-.372 1.814-.404 1.842-.033.028-.812.607-1.732 1.288-1.57 1.16-1.72 1.236-2.433 1.235-1.11 0-1.445-.125-1.445-.53 0-.419.199-.587.988-.837 1.77-.56 2.344-1.197 3.071-3.412.433-1.318.503-1.74.503-3.051 0-.837.094-2.068.209-2.738.226-1.324.171-2.357-.125-2.357-.104 0-.592.142-1.086.314-1.022.358-5.116 1.236-7.076 1.518l-1.311.188-.094 1.015c-.12 1.292-.52 2.447-1.417 4.096-1.149 2.113-2.303 3.255-5.094 5.038-2.382 1.522-2.4 1.53-2.789 1.276-.215-.14-.37-.308-.347-.373.049-.131 1.51-1.444 2.586-2.324.636-.52 1.987-2.52 2.894-4.284.325-.632.875-3.257.875-4.174 0-.753 0-.758-.618-.942-.552-.165-.823-.134-2.547.3-1.061.266-2.196.483-2.521.482-.325 0-1.352.078-2.281.174-1.47.153-1.802.143-2.55-.076-.473-.138-.93-.25-1.016-.25-.085 0-.201.393-.257.874-.21 1.803-1.617 4.139-4.184 6.95-1.917 2.099-3.092 3.068-5.63 4.642-.678.42-1.296.765-1.373.765-.181 0-.177-.545.01-1.219.107-.382.307-.62.703-.833.305-.164.787-.603 1.071-.975.285-.373 1.03-1.025 1.655-1.449 1.003-.68 1.317-1.022 2.646-2.884 1.407-1.972 1.529-2.201 1.815-3.422.169-.72.339-1.6.377-1.955l.071-.647h-1.012c-.557 0-1.868.17-2.913.377-2.008.397-3.263.473-4.058.245-.463-.133-.51-.103-1.187.76-2.182 2.777-4.31 4.9-5.54 5.527-.753.385-2.019.543-4.346.543-2.162 0-2.427-.032-3.453-.408-.611-.225-1.624-.726-2.252-1.115-2.372-1.47-3.076-1.798-4.104-1.913-.929-.103-1.038-.159-1.856-.939-.783-.746-.916-.97-1.341-2.245l-.472-1.416-1.094-.174c-.602-.096-1.175-.2-1.274-.232-.28-.09-.815 1.639-1.116 3.607-.26 1.7-.3 1.814-.904 2.53-.348.412-1.136 1.201-1.752 1.755-2.068 1.858-2.252 1.222-.817-2.824.892-2.515.933-2.692.902-3.926-.029-1.127-.075-1.327-.364-1.552-.805-.63-.967-.654-1.87-.28-.808.335-.94.345-2.773.214-1.058-.076-2.275-.114-2.703-.084l-.78.055-.808 2.22c-.673 1.846-.937 2.372-1.574 3.137-1.003 1.206-1.661 1.849-2.721 2.66-.772.59-1.043.699-2.352.945-.814.152-1.754.357-2.089.453-.497.144-.866.125-2.02-.101-1.216-.239-1.423-.324-1.496-.616-.047-.186-.04-.48.015-.653.093-.294.214-.315 1.768-.315 1.5 0 1.747-.04 2.46-.401 1.964-.993 3.461-2.355 4.2-3.82.509-1.007 1.042-2.627 1.12-3.403l.071-.703-1.386-.19c-1.163-.16-3.61-.199-5.492-.087-.624.036-1.64.254-1.825.391-.083.062-.402.193-.709.292-.54.174-.564.213-.814 1.35-.224 1.021-1.287 3.859-2.15 5.738-.786 1.712-2.872 3.705-5.304 5.065-2.735 1.53-3.334 1.186-1.268-.728 1.65-1.53 3.191-3.547 4.126-5.405.65-1.292.794-1.738.952-2.964l.187-1.442-.535-1.08-.534-1.08-.854.2c-.59.14-2.07.202-4.81.204h-3.956l-.278.798c-.153.44-.526 1.226-.827 1.748-.494.853-.682 1.026-1.85 1.694-2.629 1.506-3.683 1.843-5.776 1.843-.91 0-1.056-.05-2.092-.722-.933-.605-1.14-.816-1.271-1.296-.196-.71-.136-.81.559-.94.493-.093.615-.047 1.104.42.503.482.646.533 1.68.601 1.011.067 1.233.03 2.129-.371.55-.246 1.419-.72 1.93-1.052.81-.526.975-.715 1.256-1.45.177-.464.323-.89.323-.944 0-.17-2.74.061-4.148.352-1.115.23-1.59.251-2.89.133-2.213-.201-2.275-.183-2.604.758-.151.432-.55 1.29-.889 1.907-.597 1.092-.664 1.154-2.532 2.373-2.434 1.588-2.326 1.536-3.62 1.736-1.86.286-1.983.26-3.164-.683a74.451 74.451 0 0 1-1.117-.9c-.029-.029.156-.16.41-.29.506-.262 1.603-.307 2.485-.102.446.103.782.052 1.632-.251.92-.328 1.17-.503 1.78-1.237.67-.806 1.68-2.704 1.524-2.86-.04-.04-.574.01-1.188.111-.815.135-1.742.146-3.438.042-1.45-.088-2.683-.088-3.283 0l-.962.144.07.73c.223 2.32-.677 4.382-2.52 5.777-.877.665-1.076.75-1.744.75-.415 0-1.311-.17-1.992-.379-1.103-.337-1.31-.462-1.891-1.137-.359-.417-.753-1.044-.876-1.394-.294-.834-.513-2.25-.361-2.344.257-.159 1.187.456 1.481.98.428.761.913 1.183 1.667 1.449.546.192.727.196 1.212.023 1.411-.503 1.672-.705 1.976-1.53.25-.678.27-.945.146-1.865l-.145-1.074-1.464-.159c-.805-.087-2.315-.232-3.357-.321-1.042-.09-1.931-.214-1.977-.276-.046-.062-.64-.054-1.32.017l-1.238.129-.57 2.23c-.708 2.763-1.302 3.867-2.67 4.961-.876.7-1.016.76-1.936.818-.923.059-1.084.017-2.338-.597l-1.348-.66-.822-1.413c-.794-1.362-.812-1.419-.513-1.579.263-.14.395-.085.864.366.304.292.946.804 1.427 1.136.792.55.94.598 1.596.527.571-.061.89-.217 1.505-.739.722-.61.8-.744 1.027-1.747.135-.597.245-1.534.245-2.08 0-.848-.068-1.101-.459-1.71l-.46-.716-.719.142c-1.067.21-2.834.02-5.814-.628-1.894-.412-2.69-.529-2.763-.406-.056.094-.172.798-.257 1.564-.086.766-.394 2.168-.685 3.115-.291.948-.68 2.408-.864 3.244-.378 1.725-.915 2.748-2.627 5.008-1.15 1.519-1.398 1.76-1.806 1.76-.434 0-.337-.49.385-1.942.363-.73.906-1.978 1.206-2.773.515-1.361.568-1.675.916-5.44l.37-3.995-.375-1.252-.375-1.251-1.508.052c-1.916.067-3.77-.248-6.13-1.04-.996-.335-1.869-.609-1.938-.609-.07 0-.126.325-.126.722 0 .397-.171 1.236-.38 1.865l-.381 1.143-3.232 3.212c-2.743 2.728-3.435 3.332-4.582 4-.862.502-1.315.696-1.254.537.052-.137.095-.343.095-.458 0-.262 3.852-4.553 5.728-6.382 1.268-1.236 1.425-1.452 1.622-2.227.19-.75.188-1.002-.012-2.005l-.228-1.147-.627-.1c-.345-.055-1.483-.263-2.529-.462-1.045-.2-2.5-.419-3.231-.488l-1.331-.126v1.148c-.008 2.773-.986 6.511-2.253 8.6-1.536 2.533-3.357 4.995-3.847 5.2-.645.272-.64.276-.533-.397.154-.961 1.228-3 2.18-4.138.673-.805.964-1.313 1.229-2.152.642-2.029 1.097-4.614 1.097-6.23 0-1.442-.026-1.565-.54-2.544-.634-1.206-.387-1.128-4.403-1.385-1.338-.086-2.98-.21-3.65-.278-.669-.067-1.238-.105-1.265-.083-.026.022-.05 1.329-.052 2.906l-.008 2.866-.691 2.13a93.215 93.215 0 0 0-1.26 4.308c-.514 1.973-.624 2.237-1.15 2.776-.605.62-.756.682-1.113.456-.18-.114-.163-.265.106-.949.176-.447.568-2.181.87-3.854.303-1.673.717-3.773.92-4.666.263-1.15.37-2.078.37-3.183v-1.56l-.61-.935c-.785-1.207-.988-1.266-3.724-1.1-1.171.07-2.86.108-3.753.083l-1.623-.046-.096.684c-.052.377-.332 1.403-.621 2.282l-.527 1.597-1.442 1.273c-2.35 2.076-4.888 3.997-6.978 5.28-1.324.812-2.188 1.461-2.662 2-.527.599-.805.796-1.123.798-.835.008-.66-.788.469-2.12 1.296-1.53 4.653-4.765 5.505-5.303.46-.292 1.388-.995 2.062-1.563 1.066-.899 1.276-1.16 1.61-2 .35-.883.37-1.06.24-2.033-.14-1.03-.158-1.064-.546-1.019-.22.026-1.667.221-3.214.435-2.822.389-3.726.584-3.881.834-.046.074.168.634.475 1.243.54 1.072.56 1.174.626 3.086l.069 1.978-.75 1.027c-.882 1.209-2.09 2.122-3.165 2.395-.703.178-.865.164-1.825-.154-1.236-.41-2.09-.914-2.431-1.433-.229-.35-.222-.4.108-.847.313-.423.412-.465.886-.38.294.054.889.258 1.322.454.744.337.828.344 1.53.138.643-.188.786-.306 1.064-.879.293-.603.308-.768.168-1.86-.085-.66-.394-1.854-.687-2.655l-.532-1.456-.937.142c-.516.078-1.69.415-2.61.749-.92.334-2.139.752-2.708.93-.894.277-1.025.363-.96.63.478 2.001.108 5.517-.785 7.458-.765 1.661-2.18 3.236-3.633 4.041-1.032.572-1.095.639-1.192 1.247-.086.547-.274.808-1.256 1.745-1.18 1.128-1.315 1.203-1.705.957-.192-.122-.172-.247.14-.873.586-1.174.644-2.207.194-3.436-.361-.986-.482-1.13-2.664-3.156-1.257-1.167-2.346-2.122-2.42-2.122-.256 0-2.633 1.427-4.115 2.47-1.487 1.046-2.104 1.691-1.846 1.93.075.07 1.06.858 2.19 1.753 2.038 1.615 2.059 1.638 2.757 3.022.915 1.815 1.146 3.083.898 4.937-.244 1.82-.22 1.774-.764 1.453-.508-.3-.508-.3-.765-1.802-.204-1.183-.713-2.208-2.245-4.514-.946-1.424-1.012-1.487-1.989-1.895-.555-.232-1.279-.647-1.607-.922-.33-.276-.656-.501-.726-.501-.07 0-.657.266-1.304.591-.885.445-1.373.819-1.978 1.514-.74.852-2.154 3.219-2.16 3.618-.007.302 1.593 1.415 2.458 1.712 1.132.39 1.64.662 3.243 1.736 2.195 1.472 3.203 2.453 3.641 3.548.206.514.422 1.294.48 1.733l.106.8-.79-.44c-.457-.255-1.274-.971-1.942-1.703-.999-1.094-1.348-1.36-2.619-1.998a23.814 23.814 0 0 0-2.952-1.2c-.818-.256-1.993-.723-2.613-1.038l-1.127-.572-.503.549c-.896.979-1.898 2.446-2.783 4.077a72.962 72.962 0 0 1-1.175 2.102c-.174.285-.25.56-.175.632.224.212 2.967 1.328 3.935 1.602 2.984.844 5.275 3.074 5.512 5.365.086.83.082.84-.28.743a2.995 2.995 0 0 0-.532-.1c-.092 0-.292-.278-.444-.616-.17-.376-.683-.959-1.321-1.5-.889-.753-1.39-1.023-3.36-1.808-2.19-.873-4.308-1.555-4.819-1.551-.347 0-1.22 1.716-1.687 3.306-.323 1.104-.629 1.73-1.417 2.903-.553.822-1.005 1.561-1.005 1.641 0 .332 1.206 1.281 2.129 1.676.544.232 1.536.772 2.205 1.2a56.71 56.71 0 0 0 2.205 1.335c.69.388 1.256.877 1.875 1.62.79.948.9 1.164 1.02 2.01.073.522.108.974.078 1.004-.114.114-.954-.44-1.9-1.253-.952-.818-2.921-2.07-4.52-2.874-.431-.217-1.611-.628-2.622-.913l-1.838-.519-.594 1.085c-.671 1.223-1.459 3.362-1.751 4.753-.134.633-.362 1.138-.713 1.577l-.517.645.744.656c.596.526.989.72 1.977.984 2.436.649 4.199 2.11 4.199 3.479 0 .453-.073.662-.255.732-.593.228-3.99-.663-6.859-1.798-.609-.241-1.172-.438-1.253-.438-.239 0-1.035 1.723-1.384 2.995-.18.652-.674 1.887-1.1 2.744l-.775 1.558.74.75c.632.642.927.81 2.046 1.158.719.225 1.753.635 2.298.912 1.21.615 1.803 1.445 1.933 2.705.075.735.024.94-.505 2.002-.442.886-.71 1.24-1.068 1.412-.47.226-.492.219-1.178-.355-.386-.322-.7-.634-.7-.693 0-.06.346-.223.77-.363.562-.187.747-.317.684-.481a2.002 2.002 0 0 1-.086-.582c0-.467-1.385-1.323-2.685-1.659-1.3-.335-2.426-.884-3.042-1.48-.333-.323-.56-.446-.629-.34-.06.092-.362.536-.673.987-.341.496-.832 1.601-1.241 2.798-.947 2.766-1.159 3.269-1.645 3.9-.235.304-.427.62-.427.7 0 .081.224.43.498.777.388.49.931.846 2.46 1.612 3.275 1.64 4.313 2.996 4.14 5.405-.076 1.069-.726 3.387-1.044 3.726-.291.311-.535-.4-.637-1.857-.1-1.408-.137-1.533-.78-2.565-.675-1.081-.68-1.086-2.086-1.67-2.042-.85-3.491-1.89-3.928-2.824-.191-.407-.391-.74-.445-.74-.15 0-2.35 4.815-2.743 6.007-.287.87-.492 1.195-1.125 1.781l-.773.718.606.5c.334.274 1.052.903 1.597 1.398a21.377 21.377 0 0 0 2.207 1.694c1.874 1.226 2.82 1.983 3.23 2.586l.374.552-.412.43c-.226.236-.822.648-1.323.916-.81.43-1 .474-1.688.383-.795-.106-2.234-.645-2.234-.837 0-.303.75-.768 1.238-.768.501 0 .53-.027.47-.434-.053-.368-.228-.512-1.152-.95-1.585-.75-3.467-2.033-3.883-2.646-.2-.293-.408-.533-.463-.533-.336 0-1.408 1.42-1.781 2.357-.33.834-.675 1.333-1.584 2.298-1.993 2.116-1.953 2.035-1.784 3.634.153 1.455.495 2.238 2.02 4.638.346.544 1.232 2.167 1.97 3.608 1.022 1.997 1.497 2.761 2.004 3.222.681.62.894 1.166.398 1.022l-1.103-.317c-.809-.23-.89-.305-2.457-2.263-1.336-1.668-1.826-2.436-2.793-4.37-.947-1.894-2.183-4.173-2.463-4.543-.028-.037-.43.305-.891.76-.854.84-3.975 5.37-4.659 6.76l-.374.76.268 2.053c.278 2.128.732 3.707 2.186 7.604.9 2.413 1.857 4.23 3.257 6.183.906 1.264 1.52 1.897 3.387 3.498 3.312 2.839 3.322 2.848 3.322 3.062 0 .107-.11.364-.245.57-.19.289-.373.373-.799.365-.304-.008-.71-.073-.904-.15zm243.206-112.87c1.192-.327 1.268-.377 2.63-1.712 1.295-1.268 1.408-1.427 1.468-2.059l.064-.684-3.373.048c-2.954.042-3.517.011-4.535-.25l-1.162-.297-.405.706a6.253 6.253 0 0 1-.982 1.238c-.407.374-.644.769-.8 1.333l-.223.8.55.454c.531.438.61.455 2.152.47 1.289.011 3.016.15 3.33.267.032.012.61-.13 1.286-.315zm-183.582-2.014c.795-.333 1.702-1.82 2.069-3.395.262-1.129.272-1.367.094-2.303-.205-1.075-1.019-2.902-1.293-2.902-.262 0-1.651.75-2.988 1.612-.7.451-1.337.821-1.415.821-.077 0-.526.144-.998.32l-.857.321.585.602c.322.332.913.853 1.313 1.16.93.712 1.994 2.066 2.47 3.143.205.463.4.842.432.842.032 0 .297-.1.588-.221zm173.897-1.311c.442-.165 1.118-1.077 1.118-1.507 0-.33-.038-.343-.723-.235-.397.062-1.396.157-2.22.21l-1.499.098.624.707c.843.957 1.565 1.151 2.7.727zm67.447-2.048c.681-.12 1.567-.994 1.768-1.743.232-.864-.542-2.586-1.161-2.586-.255 0-5.642 1.77-5.767 1.895-.034.034.19.391.498.794.514.673.686.778 2.106 1.281.851.302 1.65.528 1.775.503.126-.026.477-.09.781-.144zm-28.507-22.181c-.15-.796-.63-1.458-1.52-2.1-.313-.226-.557-.282-.926-.212l-.502.094.129.872c.07.48.306 1.253.523 1.718l.394.846 1.025-.22 1.024-.22-.147-.778zm-114.583-.818c-.104-1.552-.492-2.754-1.019-3.152-.703-.532-2.075-.572-3.102-.091-.73.342-.804.429-1.156 1.368-.206.551-.404 1.32-.44 1.707l-.063.706.563-.076c.58-.078 2.54.44 3.833 1.012l.657.291.393-.446c.345-.392.386-.552.334-1.319zm102.452 1.387c.036-.032-.135-.477-.38-.99-.529-1.106-1.463-1.954-2.152-1.954-.42 0-.485.074-.782.89-.179.49-.325 1.133-.325 1.43v.539l1.255.146c1.116.13 2.2.101 2.384-.061zm-91.084-.29c.18-.335.169-.501-.077-1.254-.218-.662-.48-1.054-1.107-1.652-.734-.7-.907-.792-1.608-.848-.67-.053-.846-.008-1.19.305-.505.46-.725 1.359-.627 2.556l.075.924.968-.217c.935-.21 1-.204 1.923.164 1.225.489 1.392.491 1.643.023zm40.287-1.976c.01-.483-.151-.88-.747-1.848-.752-1.222-.765-1.233-1.451-1.288-.583-.046-.75.008-1.052.327-.427.454-.997 2.388-.997 3.382v.7l1.179.104c.648.057 1.555.185 2.015.284l.837.18.102-.613c.057-.337.108-.89.114-1.228zm-63.54 1.603h.589v-2.686l-.723-.519c-.617-.443-.888-.532-1.862-.612-.804-.066-1.327-.03-1.777.124-.593.202-.67.296-1.104 1.336-.615 1.477-.608 1.531.18 1.485.451-.026 1.039.12 1.94.483.808.326 1.456.496 1.73.455.24-.036.702-.066 1.026-.066zm138.271-.57c-.035-.23-.17-.883-.3-1.45-.263-1.143-.697-1.618-1.737-1.9-.526-.143-.553-.13-.714.327-.212.606-.05 1.456.474 2.483.4.784.41.79 1.203.846.44.03.876.068.97.084.101.017.143-.137.104-.39zm11.323-2.96c.114-.094.276-.3.36-.46.203-.376-.344-1.11-1.448-1.943-1.003-.758-1.672-.814-2.236-.188-.362.401-.375.484-.32 2.103l.057 1.684 1.69-.512c.93-.282 1.784-.59 1.897-.684zm10.19-3.364c.773-.432 1.406-.828 1.406-.879 0-.05-.278-.409-.619-.795-.501-.57-.806-.761-1.612-1.01-.547-.17-1.29-.307-1.65-.307-.593 0-.7.06-1.124.638-.624.847-.658 2.042-.092 3.16l.378.745.953-.383c.524-.21 1.586-.736 2.36-1.169zm-240.789.2c1.14-.223 2.206-.678 2.202-.94-.008-.476-.898-1.758-1.637-2.358-.774-.629-.844-.654-1.85-.654h-1.046l-.47.638c-.308.42-.472.824-.477 1.18-.007.296-.094 1.067-.2 1.711l-.192 1.172.77.13c.702.118.825.093 1.38-.286.334-.228 1.018-.495 1.52-.593zm312.785-7.789c.033-.41-.078-.778-.4-1.33-.246-.42-.503-.764-.572-.764-.172 0-3.143 1.728-3.15 1.832-.015.193 2.156 1.762 2.76 1.996l.655.254.33-.71c.183-.391.352-.966.377-1.278zm-5.487-24.917c1.191-.853 2.176-1.306 4.564-2.1l1.457-.483-.068-.87c-.05-.636-.205-1.1-.577-1.72-.46-.765-.626-.901-1.694-1.393-1.057-.488-1.385-.561-3.084-.688-2.736-.203-5.187.061-6.615.715-1.134.519-2.054 1.143-2.054 1.395 0 .362 1.033 1.39 1.961 1.952 1.093.66 2.717 2.34 3.51 3.627l.483.786.493-.206c.272-.113 1.002-.57 1.624-1.015zm16.143-9.116c-.087-.369-1.195-1.567-1.879-2.033-.59-.402-.818-.471-1.4-.425l-.696.055-.113.936c-.133 1.108-.16.974.407 1.98l.454.805 1.635-.569c.97-.337 1.618-.642 1.592-.75zm8.934-6.383c.493-.25.934-.512.979-.585.045-.073-.105-.307-.332-.521-.354-.334-.579-.396-1.591-.444l-1.179-.056v.796c0 .713.044.82.419 1.024.578.314.686.3 1.704-.214zm78.794-12.824c.26-.476.369-.873.33-1.207-.054-.443-.153-.534-.921-.85-1.423-.581-1.354-.588-1.508.149-.113.538-.085.77.154 1.252.32.65 1.157 1.492 1.402 1.414.085-.027.33-.368.543-.758zm36.569-1.91c.502-.24 1.039-.578 1.194-.752.28-.315.275-.32-1.252-1.086-1.795-.9-2.368-.96-3.656-.382l-.861.386.082.685c.076.63.143.72.843 1.132 1.067.626 2.357.632 3.65.017zM574.816 511c-.144-.304-.314-.552-.376-.552-.118 0-.354.602-.262.67.376.283.805.529.848.486.029-.03-.065-.302-.21-.605zm-8.99-.128c-.476-.477-.494-.482-.714-.19-.124.164-.228.345-.23.402-.006.112.453.223 1.056.256.376.02.376.019-.111-.468z"/></svg>