<svg xmlns="http://www.w3.org/2000/svg" width="755.84" height="188.981" viewBox="0 0 708.59978 177.16991"><path d="M678.809 169.54c-4.41-4.126-8.45-7.5-8.976-7.5-.526 0-4.779-3.15-9.45-7-4.672-3.85-8.758-7-9.08-7-.323 0-3.073-2.026-6.112-4.5-3.038-2.476-6.112-4.5-6.83-4.5-.719 0-2.164-.962-3.212-2.137-2.75-3.085-7.265-4.764-10.396-3.866-2.853.818-10.793-.164-15.259-1.887-4.353-1.68-3.198.155 1.75 2.78 2.475 1.313 4.5 2.72 4.5 3.127 0 .407 1.25 1.257 2.779 1.89 1.528.633 4.34 3.161 6.25 5.618 2.32 2.987 5.626 5.546 9.971 7.72 6.006 3.007 6.278 3.28 3.58 3.587-1.885.215-5.435-.94-10-3.254-3.894-1.973-7.627-3.586-8.295-3.583-.668.002-2.753-1.346-4.632-2.996-1.88-1.65-3.89-3-4.467-3-.577 0-2.029-1.375-3.225-3.055-1.197-1.68-3.892-4.139-5.99-5.463-2.098-1.325-4.586-3.715-5.53-5.313-1.518-2.57-2.424-2.971-7.84-3.477-3.37-.315-7.02-.874-8.113-1.243-2.785-.94 8.406 9.174 11.729 10.6 1.494.642 2.98 1.998 3.304 3.015.717 2.262 11.924 9.805 15.768 10.615 4.176.879 2.7 2.856-1.84 2.465-3.915-.337-12.764-4.226-13.937-6.125-.346-.56-1.678-1.019-2.96-1.019-1.469 0-3.37-1.305-5.144-3.529-1.548-1.94-3.368-3.316-4.046-3.056-.678.26-2.9-1.714-4.937-4.386-2.038-2.672-4.205-4.67-4.815-4.441-.61.23-2.662-2.013-4.559-4.983-3.178-4.976-3.81-5.448-8.055-6.011-2.534-.336-6.364-1.507-8.513-2.602-4.879-2.488-5.24-2.486-2.976.015.998 1.104 2.319 3.015 2.933 4.248.615 1.233 2.531 3.142 4.26 4.243 1.728 1.101 3.353 2.763 3.612 3.693.259.93 1.982 2.365 3.83 3.19 1.847.823 5.377 3.55 7.845 6.058 2.468 2.509 4.793 4.561 5.167 4.561.374 0 2.84.926 5.48 2.057 5.469 2.345 4.587 4.116-1.455 2.921-4.75-.94-7.047-1.866-10.422-4.204-1.509-1.045-3.176-1.633-3.705-1.306-.767.474-6.288-3.779-13.32-10.26-.422-.39-2.08-2.42-3.683-4.511-1.603-2.092-3.264-3.667-3.69-3.5-.426.167-2.473-1.947-4.55-4.697-3.171-4.201-4.67-5.267-9.378-6.673-3.082-.92-6.387-2.383-7.346-3.25-3.016-2.73-4.13-1.928-2.555 1.839 1.413 3.384 11.062 13.584 12.849 13.584.51 0 3.671 2.873 7.024 6.384 3.354 3.51 8.01 7.345 10.347 8.52 2.338 1.175 4.25 2.578 4.25 3.116 0 2.97-11.42-1.458-17.457-6.77-1.407-1.237-3.117-2.265-3.8-2.283-1.685-.045-5.194-3.073-6.594-5.688-.63-1.177-2.158-2.283-3.397-2.459-1.39-.197-3.4-2.1-5.252-4.974-1.65-2.56-3.752-4.871-4.671-5.136-.92-.265-2.574-2.25-3.677-4.413-2.37-4.646-3.652-5.782-7.59-6.725-1.617-.388-4.164-1.576-5.66-2.642-1.496-1.065-3.425-1.666-4.286-1.336-1.404.539-1.411.901-.065 3.504.825 1.596 1.152 2.902.725 2.902-.884 0 6.604 7.013 11.474 10.746 1.788 1.37 3.25 3.11 3.25 3.865 0 2.068 5.263 6.454 12.622 10.52 3.614 1.998 6.164 3.884 5.665 4.192-1.95 1.206-14.076-3.488-17.784-6.885-2.065-1.89-4.35-3.438-5.078-3.438-.727 0-2.524-1.575-3.993-3.5-1.468-1.925-3.403-3.503-4.3-3.507-.898-.004-2.743-1.69-4.1-3.75-1.358-2.058-3.941-5.223-5.741-7.032-1.8-1.81-3.526-4.3-3.836-5.535-.58-2.308-5.247-4.128-13.705-5.346-4.63-.667-4.724.33-.496 5.326 13.805 16.314 23.413 25.094 33.899 30.98 3.37 1.892.413 2.424-4.825.869-6.003-1.783-12.774-6.172-20.369-13.203-3.15-2.916-6.164-5.302-6.7-5.302-1.053 0-13.01-14.187-13.89-16.481-.295-.768-1.96-1.704-3.702-2.08-1.742-.375-4.898-1.56-7.014-2.63-4.235-2.145-5.791-1.804-3.272.715.89.89 1.62 2.272 1.62 3.069 0 .798 1.075 1.94 2.39 2.54 1.314.598 2.985 2.201 3.714 3.562.728 1.36 2.69 3.428 4.36 4.593 1.67 1.166 5.533 4.686 8.586 7.823 3.615 3.714 7.888 6.808 12.25 8.869 7.41 3.5 8.857 5.648 3.075 4.563-6.018-1.13-21.209-9.633-27.054-15.146-1.94-1.83-4.354-3.59-5.363-3.91-1.98-.628-7.959-6.98-7.959-8.454 0-.494-.787-1.152-1.75-1.463-.962-.31-2.482-1.855-3.376-3.433-1.106-1.95-2.713-3.072-5.018-3.504-1.866-.35-5.07-1.536-7.12-2.635-3.954-2.119-6.736-2.577-6.736-1.11 0 .488 3.038 3.358 6.75 6.38 6.493 5.282 10.43 9.014 18.502 17.54 2.064 2.179 6.685 5.42 10.269 7.202 5.97 2.97 8.813 5.044 6.788 4.955-2.605-.115-12.352-2.936-15.16-4.388-3.684-1.905-10.832-6.975-16.149-11.454-14.091-11.872-16.746-14.273-18.677-16.893-1.73-2.347-3.21-3.09-7.21-3.62-2.766-.367-5.3-1.105-5.63-1.639-.591-.955-4.483-1.404-4.483-.516 0 .426 2.558 3.433 6.843 8.045 3.491 3.757 7.655 7.168 13.379 10.957 3.147 2.084 5.974 4.52 6.283 5.416.758 2.195 9.008 8.165 12.96 9.378 1.753.538 4.278 1.841 5.611 2.896l2.424 1.919-4-.682c-6.448-1.1-14.227-4.075-18.772-7.179-2.325-1.588-7.378-4.956-11.228-7.483-3.85-2.527-10.375-8.092-14.5-12.365-7.036-7.29-7.93-7.88-14.457-9.57-5.845-1.514-7.172-1.586-8.309-.45-1.136 1.137-.264 2.3 5.457 7.29 3.745 3.265 8.74 7.178 11.1 8.696 2.36 1.517 4.678 3.78 5.152 5.027.913 2.401 9.698 7.522 16.557 9.65 7.057 2.19 6.607 3.302-1.092 2.699-4.676-.367-8.424-1.315-11-2.784-6.89-3.93-8.883-4.902-10.048-4.909-.628-.003-4.003-2.739-7.5-6.08-3.498-3.34-8.034-7.162-10.081-8.494-2.047-1.331-4.418-3.767-5.268-5.412-1.54-2.975-2.832-3.563-9.51-4.319-1.926-.218-4.176-.685-5-1.038-.826-.353-2.17-.216-2.99.304-1.238.788-.945 1.506 1.75 4.287 1.782 1.838 3.24 3.809 3.24 4.38 0 .572 3.218 3.7 7.153 6.953 3.934 3.252 9.222 7.957 11.75 10.454 6.872 6.79 11.689 10.128 17.403 12.063 6.19 2.096 7.26 3.896 2.314 3.896-4.881 0-13.287-3.485-18.288-7.583-2.293-1.88-4.6-3.417-5.129-3.417-2.343 0-20.914-16.88-27.425-24.928-1.944-2.403-3.247-2.911-8.864-3.455-5.613-.544-6.828-.37-8.234 1.184-1.555 1.718-1.366 2.106 3.289 6.76 7.404 7.405 10.308 9.76 14.445 11.714 2.065.975 4.832 3.053 6.147 4.616 2.491 2.96 10.035 6.719 14.755 7.351 3.35.449 3.63 2.057.492 2.818-3.34.81-10.532-.726-14.296-3.052-1.787-1.104-4.096-2.012-5.13-2.018-1.036-.005-3.859-1.58-6.273-3.5-2.415-1.92-4.665-3.492-5-3.494-.336-.002-3.085-2.283-6.11-5.07-3.025-2.785-6.945-6.199-8.71-7.584-1.766-1.386-3.464-3.315-3.772-4.287-.81-2.552-13.566-3.598-17.713-1.454l-2.916 1.508 3.216 3.696c1.769 2.032 4.228 4.375 5.465 5.205 1.236.831 3.527 2.923 5.09 4.65 1.562 1.726 4.723 4.296 7.024 5.71 2.3 1.414 6.455 4.589 9.232 7.055 2.777 2.466 6.857 5.026 9.066 5.688 5.036 1.509 5.178 2.887.298 2.887-4.302 0-21.396-8.1-24.087-11.414-.93-1.147-2.968-2.745-4.527-3.55-1.56-.805-4.04-2.83-5.513-4.5-1.473-1.67-3.893-3.581-5.379-4.248-1.485-.666-3.801-2.955-5.146-5.085-2.407-3.813-2.538-3.872-8.287-3.739-3.425.08-7.348.894-9.484 1.97l-3.643 1.834 2.67 4.211c2.544 4.01 15.665 16.521 17.328 16.521.433 0 .788.629.788 1.397 0 2.27 6.576 7.37 11.98 9.29 5.022 1.783 5.917 2.64 3.997 3.828-1.631 1.008-13.246-3.282-16.132-5.958-1.447-1.341-2.834-2.235-3.083-1.986-.249.25-2.435-1.264-4.857-3.364-2.423-2.099-5.84-4.816-7.596-6.038-1.755-1.221-3.465-3.086-3.8-4.144-.336-1.057-1.375-2.167-2.31-2.467-.934-.299-2.933-2.502-4.442-4.895-2.65-4.203-2.906-4.346-7.5-4.177-3.882.143-8.165 1.444-10.088 3.064-.182.153.247 1.33.954 2.615.707 1.284 1.306 2.852 1.331 3.484.025.632 1.622 2.882 3.547 5 6.909 7.6 11.743 13.892 12.476 16.24.772 2.47 9.487 11.486 12.837 13.279 3.24 1.734.39 3.367-3.247 1.86-3.266-1.353-18.273-15.677-20.204-19.284-1.183-2.211-3.172-4.558-10.363-12.229-2.2-2.347-4.736-5.62-5.637-7.275-1.333-2.45-2.404-3.081-5.764-3.402-2.27-.216-5.133.166-6.363.849-1.23.683-3.136 1.265-4.236 1.293-4.167.106-4.964 1.56-2.641 4.821 1.178 1.654 2.141 3.5 2.141 4.1 0 .602 1.575 2.837 3.5 4.967 1.925 2.131 3.5 4.298 3.5 4.816 0 .518 1.357 2.242 3.016 3.831 1.659 1.59 3.459 4.533 4 6.542.952 3.536 9.6 12.943 13.006 14.147 2.712.958.168 1.997-3.122 1.274-3.719-.817-17.574-13.951-20.283-19.228-.917-1.787-1.995-3.25-2.394-3.25-.4 0-1.842-2.137-3.205-4.75-1.364-2.612-3.262-5.329-4.22-6.036-.956-.707-2.26-3.028-2.899-5.156-1.055-3.522-1.537-3.926-5.362-4.5-5.025-.754-14.2 2.561-12.901 4.661.42.68 1.371 4.17 2.114 7.758.743 3.588 1.773 8.476 2.287 10.863.515 2.387 2.067 5.684 3.45 7.327 1.382 1.642 2.513 3.584 2.513 4.314s2.699 3.508 5.997 6.173c6.17 4.987 7.128 6.346 4.471 6.346-5.962 0-16.289-8.573-18.974-15.753-.976-2.61-2.274-5.375-2.884-6.143-1.05-1.32-2.303-5.523-4.87-16.323-.89-3.747-1.68-4.913-3.836-5.664-3.555-1.24-10.264.965-10.76 3.537-.636 3.296-3.942 9.854-5.827 11.56-11.33 10.253-37.317 20.572-37.317 14.818 0-.568.704-1.032 1.564-1.032.86 0 4.024-1.125 7.03-2.5 3.006-1.375 5.832-2.5 6.28-2.5.45 0 1.674-.948 2.721-2.108 1.048-1.16 3.93-3.142 6.405-4.407 6.197-3.165 9.622-7.166 10.364-12.104l.618-4.12-3.995-.536c-5.689-.763-7.061-.147-10.887 4.888-4.321 5.686-10.206 8.453-24.6 11.564-7.956 1.72-24.663 1.768-25.24.073-.292-.856.78-1.25 3.407-1.251 3.397-.001 9.758-1.111 22.833-3.986 6.856-1.507 15.278-5.736 16.009-8.039.37-1.168.52-2.203.333-2.3a195.3 195.3 0 0 1-2.578-1.424c-3.528-1.971-4.878-1.524-8.248 2.73-2.197 2.775-4.418 4.325-7.334 5.12-7.522 2.049-31.795-.49-30.148-3.154.323-.523 6.97-.946 14.87-.946 13.016 0 14.447-.178 16.096-2 1.75-1.933 1.747-2-.095-2.006-1.047-.003-3.246-.706-4.886-1.56-2.419-1.262-3.79-1.351-7.276-.473-2.946.741-4.895.76-6.203.06-1.05-.561-3.785-1.02-6.08-1.02-2.949 0-5.092-.735-7.315-2.507-9.412-7.5-9.493-10.259-.149-5.033 3.481 1.946 7.582 3.54 9.113 3.54 2.621 0 2.513-.172-1.872-2.953-2.56-1.624-5.687-4.543-6.946-6.488-2.546-3.928-3.183-4.122-6.79-2.06-1.376.786-3.443 1.445-4.596 1.465-1.152.02-2.91.935-3.905 2.035-.995 1.1-2.63 2-3.632 2-1.002 0-2.559 1.125-3.46 2.5-.9 1.375-2.148 2.505-2.773 2.511-.624.006-4.919 3.606-9.543 8-4.625 4.394-9.13 7.99-10.01 7.99-.88 0-2.163.9-2.85 2-.687 1.1-1.89 2-2.672 2-.783 0-2.37 1.329-3.528 2.954-1.173 1.647-2.699 2.726-3.448 2.439-.796-.306-2.244.938-3.546 3.045-1.21 1.959-2.698 3.561-3.305 3.561-.607 0-2.169 1-3.47 2.224-2.008 1.886-2.51 2-3.3.75-.797-1.26-.934-1.237-.947.161-.015 1.583-4.485 5.304-6.516 5.424-.55.033-2.046.412-3.325.842-1.279.43-2.568.539-2.865.242-.648-.648 4.768-5.566 6.18-5.611.544-.018 2.119-1.168 3.5-2.556 1.38-1.388 3.94-3.526 5.688-4.75 4.425-3.1 13.424-10.23 15.822-12.537 1.1-1.057 5.15-4.288 9-7.18 3.85-2.891 8.35-6.557 10-8.148 4.28-4.124 10.368-8.684 12.496-9.36 1-.317 2.056-1.192 2.344-1.945.289-.752 2.018-1.692 3.843-2.09 1.824-.396 4.205-1.339 5.29-2.094 1.085-.754 2.997-1.372 4.25-1.372 2.64 0 2.729-.295.987-3.285-.71-1.218-1.211-2.89-1.115-3.715.096-.825.227-1.977.29-2.561.063-.584 1.041-2.055 2.173-3.27L82.859 76l-2.807-2.788c-1.544-1.534-3.588-3.083-4.54-3.443-1.042-.393-1.5-1.264-1.149-2.18.388-1.01-.462-2.122-2.51-3.288-3.22-1.833-4.008-3.233-1.859-3.302.688-.023-.325-1.424-2.25-3.114-2.37-2.08-3.07-3.233-2.168-3.57.96-.358.59-1.27-1.332-3.277-1.818-1.896-2.296-3.007-1.506-3.495.805-.497.493-1.422-1.026-3.038-1.2-1.278-1.965-2.918-1.7-3.644.266-.727-.699-2.619-2.142-4.203-1.78-1.953-2.223-3.028-1.376-3.334 2.046-.74 1.452-1.721-2.244-3.712-2.431-1.31-3.203-2.232-2.538-3.034.66-.796.019-1.706-2.075-2.943-1.801-1.064-2.818-2.35-2.504-3.166.609-1.587-2.992-4.43-5.611-4.43-2.03 0-2.408-1.62-.528-2.255.688-.232-.212-1.182-2-2.11-1.787-.927-3.25-2.32-3.25-3.093 0-.774-.915-1.698-2.034-2.053-2.153-.683-5.966-4.311-5.966-5.677 0-3.676 13.23 5.22 20.856 14.021 2.83 3.266 5.144 6.312 5.144 6.768 0 .456.913 1.745 2.029 2.864 3.068 3.078 7.933 10.823 7.953 12.663.01.895.693 2.187 1.518 2.872.825.685 1.5 1.995 1.5 2.911 0 1.965 2.686 7.435 5.792 11.797 1.215 1.706 2.208 3.568 2.208 4.14 0 2.065 11.086 13.057 12.588 12.48 1.231-.472 1.181-.777-.308-1.871-1.642-1.206-1.547-1.397 1.22-2.467 5.437-2.102 12.845-2.38 16.267-.61 1.723.89 4.428 1.62 6.01 1.62 1.741 0 3.763.946 5.13 2.4 2.492 2.653 9.093 4.06 9.093 1.938 0-3.975-13.831-10.32-22.57-10.353-5.6-.022-7.803-1.638-3.36-2.465 14.617-2.72 26.576 2.14 34.528 14.031 1.053 1.575 2.172 1.958 4.823 1.648 3.264-.38 3.398-.545 2.46-3.01-1.146-3.018-9.406-10.913-12.367-11.823-1.108-.34-4.039-2.053-6.514-3.806-2.475-1.753-6.862-4.277-9.75-5.61-2.887-1.332-5.25-2.704-5.25-3.048 0-1.022 14.983 2.857 17.56 4.545 1.303.854 3.24 1.553 4.302 1.553 1.062 0 3.314 1.575 5.004 3.5 1.69 1.925 3.731 3.5 4.536 3.5.804 0 2.48 1.463 3.726 3.25 1.245 1.788 3.3 4.241 4.568 5.452 1.267 1.212 2.304 3.323 2.304 4.691 0 3.19 1.32 3.957 5.467 3.18 3.141-.59 3.36-.902 3.756-5.35.748-8.398-6.311-19.676-15.13-24.176-2.192-1.118-4.347-2.619-4.79-3.335-.441-.716-2.94-2.631-5.55-4.257-2.612-1.625-4.75-3.341-4.75-3.813-.005-2.088 11.92 2.913 18.21 7.639 2.358 1.77 5.412 3.813 6.787 4.54 2.298 1.212 6.712 6.467 9.736 11.587.679 1.15 1.241 3.528 1.25 5.283.008 1.755.464 3.47 1.014 3.81.55.34 1 1.905 1 3.479 0 2.353.522 2.976 2.942 3.507 1.617.356 3.892.137 5.055-.485 2.047-1.096 2.096-1.6 1.553-16.167-.589-15.794-.089-18.963 4.358-27.634 2.172-4.236 6.754-8.872 7.767-7.86.376.376-.223 1.916-1.331 3.421-2.467 3.354-3.003 5.427-4.262 16.506-.688 6.06-.661 9.64.09 11.795.79 2.269.766 3.78-.095 5.667-.817 1.795-.855 2.892-.125 3.622.577.577 1.048 2.3 1.048 3.83 0 2.098.587 2.927 2.39 3.38 2.987.75 9.58-3.278 9.598-5.861.007-.99.642-3.018 1.412-4.507.77-1.49 1.4-4.437 1.4-6.55 0-2.114.495-4.339 1.1-4.944.605-.605 1.1-1.916 1.1-2.913 0-.998.429-2.595.952-3.55 1.714-3.129 3.899-8.656 5.177-13.098 1.187-4.126 7.395-11.948 8.559-10.785.298.298-.45 2.589-1.66 5.09-1.212 2.502-3.103 8.263-4.204 12.802-1.1 4.54-2.464 8.814-3.03 9.499-.566.684-.781 2.195-.477 3.357.304 1.162.073 3.302-.513 4.755-.587 1.454-1.195 4.726-1.354 7.272l-.287 4.63 4.669.538c3.715.428 5.09.146 6.733-1.38 1.135-1.054 2.598-1.917 3.25-1.917.652 0 1.185-1.058 1.185-2.35 0-1.294 1.073-4.37 2.385-6.836 1.311-2.467 2.698-5.914 3.081-7.66.384-1.746 1.351-3.828 2.15-4.626 1.815-1.816 7.384-12.316 7.384-13.923 0-2.555 14.298-13.64 15.737-12.201.196.195-1.163 1.966-3.02 3.935-3.177 3.369-6.164 8.772-11.972 21.661a2041.925 2041.925 0 0 1-4.542 10c-1.135 2.475-2.353 5.673-2.706 7.108-.59 2.397-.338 2.656 3.135 3.22 2.516.408 4.292.16 5.322-.741.85-.745 3.459-2.315 5.796-3.49 3.436-1.728 4.251-2.66 4.256-4.867.003-1.501.636-3.937 1.406-5.412.77-1.476 1.718-4.176 2.107-6 .91-4.267 5.26-13.566 6.808-14.556.656-.419 2.441-2.688 3.967-5.041 2.588-3.994 10.823-9.437 12.197-8.063.295.294-.933 2.098-2.728 4.009-1.794 1.91-4.348 5.692-5.675 8.404-1.327 2.71-3.63 6.339-5.117 8.062-1.487 1.723-3.03 4.873-3.427 7-.397 2.127-1.138 4.37-1.645 4.984-.527.638-.579 2.784-.121 5 .728 3.533 1.116 3.91 4.3 4.18 5.138.438 12.726-4.07 14.635-8.696.818-1.98 2.904-5.601 4.637-8.046 4.135-5.836 15.733-17.013 17.677-17.037.84-.01 3.928-1.822 6.863-4.027 5.845-4.392 8.394-5.345 12.74-4.762l2.87.385-2.777 1.179c-1.528.648-4.903 3.13-7.5 5.516-2.598 2.385-6.41 5.353-8.473 6.596-2.062 1.242-3.75 2.623-3.75 3.068 0 .446-1.012 1.072-2.25 1.392-1.237.32-3.257 2.362-4.489 4.538-1.231 2.175-3.097 4.228-4.145 4.56-1.2.381-2.154 1.926-2.575 4.173-.368 1.963-.517 3.722-.33 3.909.188.187 2.452.45 5.032.583 3.308.17 5.255-.268 6.606-1.49 1.053-.954 3.502-2.172 5.443-2.708 2.604-.719 3.802-1.761 4.576-3.98 1.45-4.16 9.808-12.73 14.632-15.005 2.2-1.038 6.25-3.25 9-4.918 2.75-1.667 6.575-3.762 8.5-4.654 4.55-2.11 14.095-4.432 15.259-3.713.87.537-5.323 4.76-13.736 9.367-2.188 1.198-5.26 3.257-6.827 4.576-1.567 1.318-3.256 2.397-3.752 2.397-.497 0-3.275 1.798-6.173 3.996-2.9 2.197-5.803 3.997-6.453 4-1.215.004-2.48 2.753-2.056 4.463.39 1.568 8.699 1.8 14.93.417 4.24-.94 5.974-1.824 6.436-3.28.982-3.09 10.295-11.723 16.797-15.565 7.883-4.66 18.437-8.81 24.42-9.605 6.098-.808 7.686.922 2.415 2.632-2.068.671-4.954 2.057-6.414 3.081s-3.34 1.861-4.179 1.861c-.838 0-3.226 1.605-5.307 3.567-2.08 1.962-5.053 3.822-6.606 4.133-1.554.31-3.243 1.346-3.755 2.302-.511.956-2.52 2.492-4.464 3.415-1.944.922-3.535 2.294-3.535 3.048 0 .755-.256 2.04-.57 2.858-.995 2.593 4.594 3.02 9.628.736 2.443-1.108 5.386-2.025 6.54-2.037 1.153-.012 2.503-.87 3-1.909 1.387-2.9 11.494-11.686 16.512-14.354 2.468-1.312 6.715-2.99 9.439-3.728 2.723-.737 5.427-1.704 6.009-2.149 1.434-1.095 12.312-3.882 15.152-3.882 3.99 0 2.449 1.398-5.494 4.98-4.244 1.913-9.47 4.725-11.616 6.25-2.145 1.523-5.113 2.77-6.595 2.77-1.482 0-3.522.915-4.534 2.032-1.011 1.118-3.308 2.94-5.103 4.05-4.075 2.518-5.296 5.766-2.842 7.56 1.459 1.067 2.23 1.046 4.373-.119 1.43-.778 5.186-1.696 8.344-2.04 4.117-.448 6.138-1.188 7.135-2.611 1.862-2.658 14.725-11.047 16.118-10.512.607.233 2.85-.878 4.982-2.468 2.133-1.59 4.492-2.892 5.24-2.892.75 0 2.623-.93 4.162-2.069 3.158-2.335 8.81-3.872 14.37-3.907 4.355-.028 5.002 1.624 1.028 2.621-1.498.376-5.21 2.184-8.25 4.017-3.04 1.833-6.035 3.334-6.655 3.336-.62 0-1.745.747-2.5 1.657-.755.91-2.922 2.303-4.817 3.095-4.434 1.853-15.056 9.056-15.056 10.21 0 .487 3.488.638 7.75.336 5.481-.39 8.336-1.08 9.75-2.356 1.1-.993 4.025-2.714 6.5-3.825 2.475-1.111 5.625-2.657 7-3.435 10-5.66 22.737-10.428 31.483-11.787 8.42-1.307 10.27-.187 3.517 2.132-3.025 1.039-7.975 3.251-11 4.916-7.79 4.288-23.783 12.06-24.82 12.06-1.004 0-4.18 3.313-4.18 4.362 0 .388 3.713.542 8.252.341 6.835-.302 8.977-.823 12.48-3.034 2.326-1.469 4.498-2.67 4.827-2.67.619 0 13.042-6.104 17.441-8.57 1.375-.77 3.683-1.407 5.128-1.415 1.446-.008 4.165-.657 6.043-1.442 4.191-1.751 15.09-3.073 17.535-2.126 1.372.531.619 1.11-3.206 2.464-2.75.973-7.925 3.122-11.5 4.775-3.575 1.653-8.3 3.584-10.5 4.29-2.2.707-4.45 1.597-5 1.98-.55.381-2.96 1.255-5.355 1.94-4.713 1.35-11.864 7.542-10.023 8.68 1.459.9 14.878 1.285 14.878.426 0-1.74 16.058-11.067 20.589-11.96 2.701-.53 7.354-1.912 10.34-3.068 2.985-1.155 6.377-1.863 7.537-1.572 1.16.291 4.546-.114 7.525-.9 4.188-1.104 6.387-1.184 9.7-.35 4.605 1.16 4.902 2.848.5 2.848-2.74 0-13.658 3.31-18.19 5.515-1.376.669-4.454 1.513-6.842 1.877-2.388.364-6.083 1.55-8.21 2.635-2.128 1.085-4.53 1.973-5.338 1.973-.807 0-3.096 1.536-5.086 3.412-4.471 4.217-3.45 5.157 5.13 4.725 3.385-.17 7.016.152 8.07.715 1.457.78 2.614.564 4.845-.907 1.611-1.062 3.562-1.935 4.333-1.938.772-.004 4.26-1.357 7.753-3.007 3.492-1.65 6.986-3 7.764-3 .778 0 3.59-.95 6.247-2.11 2.658-1.162 8.208-2.957 12.333-3.99 6.35-1.589 8.383-1.705 13.25-.758 3.163.615 5.75 1.447 5.75 1.849 0 .402-2.219.993-4.931 1.315-2.713.32-6.65 1.449-8.75 2.506-2.1 1.057-7.58 3.13-12.176 4.605-4.597 1.475-9.547 3.533-11 4.572-1.454 1.039-4.536 2.379-6.85 2.977-4.939 1.277-5.65 2.134-4.838 5.827l.602 2.743 7.722-.382c4.247-.21 9.028-1.052 10.624-1.873 1.597-.82 3.916-1.602 5.154-1.738 1.238-.136 3.48-1.213 4.982-2.395 1.502-1.181 3.513-2.148 4.469-2.148.956 0 3.848-.933 6.426-2.073 4.925-2.179 10.703-3.248 16.566-3.065 5.608.176 17 2.248 17 3.093 0 1.025-7.75 2.045-15.537 2.045-4.835 0-7.249.566-10.61 2.488-2.394 1.368-5.253 2.496-6.353 2.507-1.1.01-3.35.912-5 2.005s-3.762 1.99-4.693 1.994c-1.792.007-5.032 3.832-4.279 5.051.245.396 3.337 1.029 6.872 1.408 4.931.528 7.134.322 9.464-.882 1.67-.864 3.817-1.57 4.77-1.57.955 0 3.564-.85 5.8-1.889 11.538-5.357 26.923-8.349 32.368-6.293 1.484.56 3.936 1.289 5.448 1.619 3.542.773 3.67 2.971.135 2.295-3.372-.644-15.676 1.9-21.08 4.358-2.307 1.05-5.315 1.91-6.684 1.91-2.94 0-14.62 4.881-14.62 6.11 0 .468 1.237 1.114 2.75 1.435 1.512.32 5.57 1.298 9.016 2.171 4.925 1.249 6.808 1.342 8.797.436 1.392-.634 3.414-1.153 4.494-1.153 1.08 0 3.885-.903 6.233-2.007 11.282-5.302 43.555-3.956 45.506 1.899.368 1.101-.135 1.205-2.416.5-4.036-1.25-15.872-.686-26.168 1.245-4.792.898-10.4 1.845-12.463 2.103-2.062.259-3.75.843-3.75 1.298 0 .455-.906 1.115-2.014 1.467-2.826.897-1.673 2.144 2.752 2.974 2.068.388 6.235 1.718 9.26 2.956 5.175 2.117 6.21 2.197 17.4 1.339 15.058-1.155 33.249 1 40.817 4.835 2.673 1.354 4.636 2.824 4.363 3.266-.273.441-3.102.291-6.287-.334-3.763-.74-10.342-.896-18.79-.449-7.15.378-14.238.456-15.75.173-4.21-.788-3.296.43 2.5 3.326 2.887 1.443 6.507 3.804 8.044 5.246 3.026 2.84 10.304 4.917 20.205 5.767 3.3.283 6.675.766 7.5 1.073.825.308 4.875.773 9 1.035 4.125.262 7.95.825 8.5 1.252 1.61 1.248 7.19 1.96 19.983 2.55 11.842.545 14.414 1.226 13.037 3.455-.71 1.148-31.633.84-43.02-.43-10.112-1.127-18.447-1.195-18.795-.154-.191.575-1.618.042-3.183-1.189-1.56-1.227-3.553-2.008-4.429-1.736-.876.272-2.227.096-3.002-.39-2.251-1.413-4.09-.087-4.09 2.95 0 2.49.445 2.88 3.972 3.475 2.184.37 3.872 1.19 3.75 1.825-.126.652 1.516 1.376 3.777 1.666 2.533.326 3.542.81 2.75 1.323-2.094 1.355-1.443 2.388 3.232 5.128 2.465 1.444 4.929 3.462 5.476 4.484.547 1.022 2.693 2.735 4.768 3.806 2.076 1.07 4.764 3.403 5.973 5.181 1.209 1.78 3.909 4.52 6 6.09 7.483 5.62 18.301 17.085 18.301 19.396 0 2.121-3.976-.385-10.935-6.894z"/></svg>