<svg xmlns="http://www.w3.org/2000/svg" xmlns:dc="http://dublincore.org/documents/dcmi-terms/" height="1000" viewBox="0 0 1000 1000" width="1000"><metadata><dc:description>Silhouette of Chlamydomonas, processed by PhyloPic Tools (https://github.com/eweitz/phylopic-tools)</dc:description><dc:source>http://phylopic.org/image/91b6a357-3c72-446b-8d4e-bab352ec8ff7</dc:source><dc:creator>Sergio A. Muñoz-Gómez</dc:creator><dc:license>http://creativecommons.org/licenses/by-nc-sa/3.0/</dc:license></metadata><path d="M721.554 616.44c-21.068-6.854-42.471-13.665-64.661-15.571-11.083-.953-21.214.619-32.149 1.44-18.029 1.353-28.725-8.435-44.731 5.133-9.182 7.827-6.405 22.489-7.177 33.106-.915 12.593-8.705 25.551-11.457 38.222-6.088 28.028-5.692 58.235 4.297 85.337 7.516 20.387 16.214 39.996 28.32 58.162 14.277 21.428 43.815 43.717 68.17 52.17 33.745 11.711 72.066 15.879 105.313.314 22.867-10.705 40.77-22.227 52.553-45.313 7.52-14.734 7.945-31.729 8.346-47.945.661-26.84-5.251-57.188-16.361-81.728-12.014-26.534-31.203-43.636-52.672-62.003-10.991-9.397-24.035-16.848-37.791-21.324z" stroke="#010101" stroke-width="2" stroke-miterlimit="10"/><path d="M593.984 600.838c21.905-46.73-9.919-117.967-30.372-160.826-25.854-54.175-74.753-84.66-108.032-133.202-31.225-45.546-47.141-103.76-19.427-154.45l.339-1.5M571.485 632.336c-29.792.016-60.317-2.424-89.667-7.832-54.912-10.121-95.645-50.28-144.363-74.658-36.535-18.279-101.813-31.48-134.387 1.021-40.882 40.793-15.325 129.768 24.934 160.965" fill="none" stroke="#010101" stroke-width="2" stroke-miterlimit="10"/></svg>