<svg xmlns="http://www.w3.org/2000/svg" version="1.2" width="608" height="218.359" viewBox="0 0 608 218.359" overflow="inherit"><path d="M506 0c9.139 2.78 23.465 1.048 34 3 8.847 1.639 19.85 6.958 20 7 4.202 1.159 2.504 2.38 3 3 .599.748 2.824-1.081 3-1 .388.18-1.119 1.851-1 2 .597.746 2.851-1.097 3-1 23.236 15.137 36.588 38.736 40 72v10c-5.424 39.077-27.256 61.455-55 71-21.17 19.01-36.173 31.155-63 41-28.273 2.874-70.408-6.453-91-16 2.516-8.42 7.641-3.202 10-11-41.778-.509-54.938 42.715-104 38-14.832-1.426-29.643-5.912-42-12-13.97-3.298-27.409-8.07-36-14h-7c-33.6-18.304-81.284-20.861-127-31 8.805-4.252 27.75-5.915 35-5 8.667-3.564 36.848-5.458 52-3 31.65-5.888 65.134 7.328 98 5 28.01-1.984 55.08-11.009 82-18 26.09-5.157 43.669.057 65-10-10.281-8.719-31.805-6.195-43-14 20.774-13.04 60.541-9.3 82-9 4.858.068 8.464-.83 12 0 6.218 1.46 8.647 1.997 16 2-.41-5.041-3.432-6.535-3-10-1.135.19-.555 1.003 0 1-.184-3.309-8.935-3.937-14-8-.363-.292-.494-2.106 0-2-4.366-.94-13.469 3.33-13 0-47.146 15.188-80.204 13.116-131 16-38.154-3.168-71.357-7.314-100-2-20.547.417-37.016 4.404-56 4 .743 5.258 9.846 2.154 15 3 7.452 8.215 17.833 13.501 27 20-3.347.832.101.2 0 5-18.247 3.99-29.513-4.474-41-3-3.263 2.269 3.153 6.622 0 9-24.247-1.386-27.502-15.759-41-24-1.279-13.527-21-6.204-36-4-28.277-3.265-75.996 7.3-99-12v-5c.144-4.622 6.688-10.208 11-13 6.908-4.473 16.198-8.272 25-12 24.326-10.303 54.737-20.785 86-29 19.053-5.007 40.313-9.155 61-13 62.243-11.569 141.461-7.971 197-11 18.538-1.011 35.918-3.483 55-9 20.554-5.942 42.465-6.325 63-10h8z" fill-rule="evenodd"/></svg>