<svg xmlns="http://www.w3.org/2000/svg" xmlns:dc="http://dublincore.org/documents/dcmi-terms/" height="289.736" width="258.629"><metadata><dc:description>Silhouette of Chloroflexaceae, processed by PhyloPic Tools (https://github.com/eweitz/phylopic-tools)</dc:description><dc:source>http://phylopic.org/image/b58953d9-858a-4455-8f1e-d84bb8d4c5d3</dc:source><dc:creator>Matt Crook</dc:creator><dc:license>http://creativecommons.org/licenses/by-sa/3.0/</dc:license></metadata><g fill="none" stroke="#000" stroke-width="2" stroke-linecap="round"><path d="M231.189 33.143c-7.604 14.517-14.821 33.25-22.812 43.55-7.99 10.299-15.899 11.06-23.848 16.59"/><path d="M224.449 37.81c-1.037 12.442-3.55 28.007-3.11 37.327.439 9.32 4.654 11.167 5.702 17.627 1.048 6.461 1.304 14.015.518 20.738-.785 6.723-3.456 12.788-5.184 19.182"/><path d="M241.557 12.924c-5.53 12.097-9.67 22.971-16.59 36.291-6.92 13.32-17.228 34.111-24.885 43.55-7.657 9.437-13.134 7.603-19.7 11.405M232.744 38.846c-4.666 10.888-10.705 23.388-13.998 32.662-3.294 9.274-3.802 15.208-5.703 22.812"/><path d="M218.746 46.105c-6.913 13.997-13.35 30.086-20.738 41.993-7.388 11.908-18.594 21.579-23.33 29.033-4.735 7.454-4.4 9.264-4.666 15.035-.266 5.771.1 14.002 3.111 18.664 3.01 4.662 6.956 6.221 12.961 6.221s14.257-4.32 20.738-6.221c6.48-1.901 10.61-5.096 18.145-5.185 7.535-.088 20.662 3.264 25.922 4.666 5.261 1.403 3.457 2.42 5.185 3.63"/><path d="M207.859 62.695c-3.63 8.122-7.371 18.652-10.888 24.366-3.516 5.715-5.197 7.908-9.85 9.332-4.654 1.425-10.594 1.879-15.553-1.555-4.96-3.433-9.337-10.361-11.406-17.108-2.07-6.747-1.302-14.032-.519-21.775.783-7.743 2.917-17.65 5.185-24.367 2.268-6.717 6.381-10.943 8.295-15.553 1.914-4.61 2.074-7.95 3.11-11.924"/><path d="M149.275 139.424c8.813-8.813 20.663-17.908 26.44-26.44 5.777-8.533 6.464-15.472 7.258-23.33.795-7.859.37-15.632-2.592-22.812-2.962-7.18-9.562-13.449-14.516-18.664-4.955-5.215-11.736-8.43-15.035-12.442-3.3-4.013-2.765-7.259-4.148-10.888"/><path d="M167.939 1c-.519 4.666-2.972 7.092-1.556 13.998 1.417 6.906 9.22 16.894 9.85 26.44.631 9.547-3.095 21.37-6.22 28.515-3.127 7.145-7.326 10.075-11.925 12.96-4.599 2.886-7.2 4.433-14.516 3.63-7.317-.803-20.142-6.899-27.996-8.295-7.854-1.396-12.443 0-18.664 0M218.746 133.203c-10.369-3.802-22.338-7.326-31.107-11.406-8.768-4.08-15.6-10.806-21.256-12.96-5.656-2.156-8.222-1.122-11.406.518-3.183 1.64-5.603 4.608-5.702 8.295-.1 3.686.752 7.088 5.184 10.887 4.432 3.799 13.921 5.033 20.22 10.887 6.297 5.854 10.318 17.324 16.59 23.33 6.27 6.006 12.573 11.344 20.219 11.924 7.645.581 15.773-5.622 20.737-8.813 4.965-3.192 6.41-4.912 8.295-9.85 1.886-4.94 4.1-12.827 2.593-18.665-1.507-5.837-6.902-9.234-10.888-13.48-3.985-4.245-8.64-7.949-12.96-11.923"/><path d="M255.037 150.83c-6.221 5.357-12.479 13.07-18.664 16.072-6.186 3.001-10.788 4.131-16.59 1.037-5.803-3.095-9.306-9.377-14.517-17.628-5.21-8.25-11.395-22.88-16.59-31.625-5.194-8.744-11.813-11.458-14.516-20.737-2.703-9.28-.084-22.616-1.037-32.662-.953-10.047-1.838-19.79-4.666-27.478-2.828-7.688-8.809-12.52-11.924-17.627-3.116-5.106-4.493-8.64-6.74-12.96M1 92.246c4.148 1.9 1.513-2.19 12.443 5.703 10.93 7.893 38.742 32.957 52.88 41.475 14.14 8.518 18.682 9.355 30.589 8.814 11.906-.541 26.31-6.33 37.846-11.924 11.537-5.594 23.94-17.753 30.588-21.257 6.65-3.504 5.185.692 7.777 1.037"/><path d="M256.592 160.162c-5.703-3.284-8.659-7.474-17.108-9.85-8.45-2.377-24.108-3.973-32.662-4.148-8.554-.175-11.187 3.463-18.146 3.11-6.958-.352-13.297-1.081-22.811-5.184-9.515-4.102-25.132-12.8-33.699-19.182-8.567-6.382-11.272-9.866-17.109-18.664-5.836-8.799-11.386-23.644-17.627-33.699-6.24-10.055-13.134-17.627-19.7-26.44M179.863 8.258c0 8.122 1.158 18.13 0 24.367-1.159 6.237-4.493 7.95-6.74 11.924"/><path d="M255.555 167.42c-4.666.864-7.325 5.002-13.998 2.592-6.672-2.41-17.731-9.39-23.33-16.071-5.598-6.682-7.492-11.725-8.813-22.293-1.321-10.57.691-26.614 1.037-39.92"/><path d="M217.19 172.086c-3.283-2.938-7.642-2.927-9.85-8.813-2.207-5.887-3.381-15.161-2.592-24.367.789-9.206 4.656-21.916 7.258-30.07 2.603-8.154 7.648-12.836 8.295-18.664.648-5.827-1.475-10.338-4.666-13.998-3.19-3.66-8.277-5.94-12.96-6.221-4.684-.281-9.904 1.115-12.962 4.666-3.057 3.55-.568 8.474-3.11 13.998-2.543 5.524-8.183 13.878-11.925 18.664-3.741 4.786-8.66 4.533-10.369 9.85-1.709 5.318-1.904 12.84 1.037 19.183 2.942 6.342 11.637 11.454 15.554 16.59 3.917 5.135 7.68 8.39 7.776 13.998.097 5.607-4.567 11.297-7.258 16.071-2.69 4.775-3.349 7.948-8.814 12.443-5.464 4.495-15.553 9.332-23.33 13.998"/><path d="M245.705 151.867c-8.64-.173-17.897-1.391-25.922-.519-8.026.873-13.874 4.488-21.775 5.703-7.9 1.216-18.724.688-25.404 1.556-6.68.867-7.647 3.717-14.516 3.629-6.868-.088-20.05-2.57-25.922-4.148-5.871-1.577-5.876-3.456-8.814-5.184M130.61 68.398c3.284 10.541 8.867 23.396 9.851 31.625.984 8.228-1.541 11.488-4.147 16.071-2.607 4.583-5.194 8.596-10.888 10.37-5.693 1.772-12.343 1.955-20.737-.52-8.395-2.474-20.3-11.524-28.515-13.997-8.214-2.473-13.88-1.772-19.7-.519-5.82 1.254-10.335 4.381-13.999 7.777-3.663 3.396-6.34 7.243-7.258 11.924-.918 4.682-.947 8.387 2.074 14.516 3.02 6.13 12.37 14.89 15.553 21.257 3.184 6.366 3.11 11.456 3.11 16.071 0 4.616.952 7.696-3.11 10.888-4.062 3.191-12.361 5.17-18.664 6.221-6.302 1.05-13.197-1.344-18.664 0-5.467 1.344-8.64 5.184-12.96 7.777"/><path d="M47.66 110.391c.173 6.74 1.477 12.634.518 20.22-.959 7.585-6.674 16.465-6.221 24.885.453 8.42 4.606 17.659 8.813 23.33 4.208 5.67 8.952 8.338 15.035 8.813 6.083.476 10.993-2.296 18.146-6.221 7.153-3.925 15.062-13.709 24.367-17.109 9.304-3.4 19.073-5.809 29.55-2.592 10.48 3.217 21.654 16.526 29.552 20.738s11.689 5.653 17.109 4.147c5.42-1.505 8.476-7.547 10.887-11.924 2.411-4.376 2.074-8.986 3.11-13.48"/><path d="M204.23 143.053c-1.729-4.32-1.654-9.43-5.185-12.96-3.531-3.532-10.073-7.185-14.516-6.74-4.444.444-8.082 3.128-6.222 8.813 1.86 5.685 11.545 13.166 15.554 19.7 4.008 6.536 8.104 13.075 8.295 19.183.19 6.108-3.236 9.797-7.258 13.998-4.022 4.2-12.956 5.5-16.072 10.369-3.117 4.87-3.039 10.61-.519 15.553 2.52 4.944 6.866 9.059 13.998 10.888 7.133 1.828 17.627-.346 26.44-.519"/><path d="M146.164 155.496c11.924-3.456 22.95-9.14 35.772-10.369 12.823-1.23 31.185.95 39.92 3.11 8.736 2.162 9.726 5.344 10.37 9.333.643 3.988-4.393 5.459-7.777 6.74-3.384 1.28-6.363 1.757-11.406.518-5.043-1.239-11.942-7.406-18.145-7.777-6.204-.37-11.726 2.19-16.59 5.703-4.865 3.513-8.822 8.367-11.406 14.516-2.585 6.15-4.813 13.971-3.63 21.257 1.184 7.285 4.302 16.414 10.37 20.219 6.067 3.805 14.036.934 20.219-1.037 6.183-1.971 10.248-5.76 15.553-10.369 5.305-4.61 10.157-14.01 16.072-17.108 5.915-3.099 12.238-1.979 16.59 0 4.352 1.978 6.031 5.624 6.221 10.368.19 4.744-1.37 9.966-5.184 15.554-3.814 5.587-11.406 11.405-17.109 17.108"/><path d="M254 217.19c-9.16 3.63-19.32 8.958-27.477 10.888-8.159 1.93-14.249-1.17-20.738.518-6.49 1.69-13.613 5.742-17.109 9.332-3.495 3.59-4.08 5.783-2.074 10.37 2.007 4.585 8.028 11.723 12.962 14.516 4.933 2.792 8.81 1.827 14.516 1.036 5.706-.79 12.788-3.802 19.182-5.702"/><path d="M184.529 204.23c8.122 3.629 15.376 4.864 24.366 10.887 8.99 6.022 21.019 19.223 29.033 24.885 8.015 5.663 12.443 5.876 18.664 8.814M254.518 251.926l-24.885-10.369M222.893 238.447c-7.258-3.284-16.021-5.78-21.774-9.85-5.753-4.072-7.64-11.082-11.924-13.999-4.285-2.917-7.767-2.68-12.443-2.592-4.676.088-11.147-.478-15.035 3.11-3.888 3.59-6.523 9.15-5.184 15.554 1.338 6.405 6.547 13.912 12.442 19.182 5.896 5.27 12.092 6.824 21.775 11.406 9.683 4.582 24.194 10.715 36.291 16.072"/><path d="M145.645 238.447c11.406 5.011 23.815 9.487 34.218 15.035 10.402 5.548 20.705 12.59 27.996 18.145 7.29 5.555 10.368 10.023 15.553 15.035M257.11 275.256c-5.011-5.53-7.474-11.315-15.034-16.59-7.56-5.275-19.701-9.678-29.551-14.516"/><path d="M233.262 278.367c-10.023-5.185-17.377-12.802-30.07-15.553-12.692-2.752-30.13 1.935-44.067-.519-13.937-2.454-27.78-8.399-38.365-13.998s-19.9-12.625-24.367-19.182c-4.466-6.557-2.515-12.293 0-16.59 2.516-4.298 7.796-4.575 12.443-4.666 4.647-.091 9.599.573 13.998 4.147 4.4 3.575 8.513 10.972 10.887 16.072 2.374 5.1.018 9.358 3.111 13.998 3.093 4.64 8.835 10.152 14.516 12.442 5.682 2.291 9.474 2.185 17.627.519 8.154-1.666 21.029-4.438 30.589-10.369 9.56-5.93 17.307-18.098 25.403-24.367 8.097-6.268 17.323-9.128 22.812-12.96 5.488-3.834 6.567-6.568 9.85-9.851M256.074 188.676c-9.332-2.592-14.223-5.351-27.996-7.776-13.773-2.426-38.278-4.753-54.437-6.74-16.158-1.988-31.426-4.405-42.512-5.185-11.086-.78-14.494-1.404-23.848.519-9.355 1.923-23.053 7.424-31.625 10.887-8.572 3.464-10.96 6.216-19.701 9.85-8.74 3.635-23.709 9.49-32.662 11.925-8.953 2.434-13.825 1.728-20.738 2.592"/><path d="M188.676 178.307c-6.221 3.63-11.682 9.008-18.664 10.888-6.981 1.88-12.344.605-21.774 0-9.43-.606-21.84-4.77-34.736-3.63-12.896 1.141-28.69 4.285-41.475 10.37-12.785 6.083-24.3 19.572-33.7 25.403-9.399 5.831-15.954 7.747-22.292 9.332-6.339 1.585-10.023 0-15.035 0M255.037 229.633c-5.185 4.666-12.259 8.232-15.553 13.998-3.295 5.766-4.12 12.614-3.111 18.664 1.008 6.05 5.459 12.017 8.813 15.553 3.355 3.537 6.913 3.111 10.37 4.666"/><path d="M254.518 232.744c-3.629 3.283-8.426 5.201-10.887 9.85-2.461 4.65-3.377 10.994-3.11 16.59.266 5.597 2.387 11.253 4.665 16.072 2.279 4.82 5.876 8.295 8.814 12.443"/><path d="M255.555 223.93c-3.802 1.901-7.888 2.977-11.405 5.703-3.518 2.726-7.336 4.197-9.332 10.37-1.997 6.171-2.335 17.133-2.074 24.884.261 7.752 2.42 14.171 3.629 21.256"/><path d="M255.555 221.857c-6.394 2.246-13.846 2.85-19.182 6.74-5.336 3.888-6.41 10.82-11.406 15.553-4.995 4.732-10.312 9.772-18.145 12.442s-20.538 2.764-27.478 3.11c-6.94.348-7.058-1.383-13.998-1.036-6.94.347-16.53 3.986-27.477 3.11-10.947-.875-27.434-6.82-37.328-8.294-9.894-1.476-13.577 2.634-21.775-.519-8.198-3.153-18.01-13.452-25.403-17.627-7.394-4.175-12.23-6.112-18.664-7.258-6.435-1.146-14.558-.371-19.183.518-4.625.89-5.184 3.111-7.776 4.666"/><path d="M178.307 257.63c-9.504-3.803-17.294-9.728-28.514-11.407-11.22-1.678-24.967 1.383-37.328 1.556-12.36.173-27.972-2.34-36.81-.519-8.837 1.822-8.828 8.651-13.479 10.888-4.651 2.236-8.502 2.607-13.48 2.073-4.976-.533-12.225-2.058-15.553-5.184-3.327-3.126-4.83-6.32-1.555-10.887 3.276-4.567 15.131-8.283 18.664-12.961 3.533-4.68 1.389-5.917.518-12.443-.87-6.526-5.086-20.54-5.702-26.44-.617-5.902 1.382-5.53 2.073-8.296"/><path d="M171.568 154.459c-4.32.173-7.836 3.556-12.961.518-5.126-3.037-9.999-14.343-15.035-17.108-5.037-2.765-8.98-.055-11.406 2.592-2.427 2.647-1.42 5.416 0 9.85 1.419 4.435 3.492 11.916 8.295 16.072 4.803 4.157 13.708 3.037 18.664 7.258 4.956 4.222 7.808 11.569 9.332 16.59 1.524 5.022 2.578 6.888-.518 12.443-3.097 5.555-9.779 13.161-17.11 19.183-7.33 6.02-18.037 10.44-26.44 16.59-8.403 6.15-16.827 15.018-23.848 20.219-7.021 5.201-12.694 5.963-18.146 10.887-5.451 4.924-9.331 12.097-13.997 18.146"/><path d="M101.06 177.27c6.566 1.729 13.491 2.474 19.7 5.185 6.21 2.71 12.732 9.011 17.109 10.887 4.377 1.876 6.142 2.833 8.295 0 2.153-2.833.744-10.167 1.555-12.96.811-2.794 2.074-2.075 3.11-3.112"/><path d="M190.75 162.236c-6.913 2.592-14.2 1.964-20.738 7.776-6.538 5.812-9.061 19.145-16.59 25.404-7.528 6.259-15.83 8.44-26.44 10.369-10.611 1.929-23.55 1.73-36.291 1.037-12.742-.694-25.905-.072-39.92-5.185-14.016-5.112-28.342-16.59-42.513-24.885"/><path d="M199.564 189.195c-3.284 2.938-4.114 5.119-9.85 8.813-5.738 3.694-15.67 9.741-24.368 13.22-8.698 3.48-17.263 1.927-27.477 7.518-10.214 5.591-22.718 20.793-32.662 25.404-9.944 4.61-17.34 3.828-24.367 1.036-7.027-2.79-11.682-8.597-13.48-16.071-1.797-7.475.138-17.007 3.63-24.885 3.491-7.88 12.268-16.505 16.59-20.738 4.322-4.234 5.876-2.765 8.813-4.148"/><path d="M114.539 239.484c-3.284 3.802-3.974 9.073-9.85 11.405-5.877 2.332-15.967 3.712-22.812 1.556-6.844-2.157-11.317-6.043-15.035-13.48-3.718-7.436-6.701-22.023-6.221-29.033.48-7.01 5.876-5.875 8.813-8.813M87.061 156.014c-4.147 4.84-9.267 8.696-12.442 14.517-3.175 5.82-2.329 14.088-6.221 19.7-3.893 5.614-9.989 9.849-16.072 12.443-6.084 2.595-13.373 2.246-19.183 2.592-5.809.347-11.476-3.273-15.553-.518s-5.034 9.371-3.629 13.48c1.405 4.108 6.522 5.397 10.369 6.22 3.846.825 5.237 2.469 11.406-1.555 6.169-4.023 16.415-14.947 24.366-21.774 7.952-6.828 15.554-12.788 23.33-19.183M73.064 288.736c.345-4.666 3.554-9.567 1.036-13.998-2.517-4.431-5.036-7.909-13.998-8.814-8.962-.905-27.52 3.369-37.327 3.63-9.807.26-14.171-1.383-21.257-2.074"/><path d="M15.516 165.865c8.468 19.01 20.102 42.079 25.404 57.028 5.302 14.95 7.137 22.711 6.221 32.144-.915 9.433-7.269 16.4-11.405 21.256-4.137 4.856-7.791 6.182-12.443 6.74-4.652.558-10.294.276-13.48-3.63-3.185-3.904-4.706-11.62-2.592-16.071 2.115-4.451 4.174-3.36 12.443-4.666 8.269-1.306 28.65.617 36.81-3.11 8.16-3.728 5.909-11.411 5.184-16.072-.725-4.662-4.056-5.978-8.814-7.259-4.757-1.28-12.182-.086-18.145 0-5.963.087-11.752.346-17.627.519"/><path d="M81.877 285.625c-4.32-3.283-9.995-4.381-12.961-9.85-2.966-5.47-.936-14.813-3.63-20.738-2.692-5.925-9-8.075-11.923-13.48-2.924-5.404-6.14-12.03-5.185-18.145.956-6.115 6.913-10.023 10.37-15.035"/><path d="M72.027 288.217c.345-6.221 2.903-13.655 1.037-18.664-1.867-5.009-4.608-8.169-10.888-7.776-6.28.392-18.097 5.235-22.293 9.85-4.196 4.616 1.037 8.64 1.556 12.961M241.039 177.27c2.074-2.073 3.474-4.939 6.221-6.22 2.747-1.283 6.222-.692 9.332-1.038M193.342 167.42c-6.394 3.802-11.364 11.02-19.182 11.406-7.818.386-13.556-6.132-22.812-9.332-9.255-3.2-22.417-10.127-32.662-9.85-10.244.276-17.054 6.62-24.885 11.405-7.831 4.786-14.516 11.406-21.774 17.109"/></g></svg>