<svg xmlns="http://www.w3.org/2000/svg" version="1.2" width="550" height="400" viewBox="0 0 550 400"><path d="M344.3 158.95c1.733 0 3.233.417 4.5 1.25 1.767 1.1 3.517 3.1 5.25 6 2-1.434 3.167-2.25 3.5-2.45.934-.533 1.851-.8 2.75-.8 2.634 0 4.483.617 5.55 1.85.801.9 1.2 2.25 1.2 4.05 0 .6-.083 1.133-.25 1.6-.2.566-.616 1.316-1.25 2.25 2 .3 3.65 2.017 4.95 5.15 1.033 2.533 1.55 4.9 1.55 7.1 0 4.133-1.116 7.816-3.35 11.05-2.267 3.233-3.4 6.167-3.4 8.8 0 2.634.434 4.533 1.3 5.7.5.634 1.45 1.233 2.851 1.8 1.333.533 2.267 1.2 2.8 2 .866 1.3 1.3 3.4 1.3 6.3 0 2.801-.75 5.617-2.25 8.45-1.399 2.7-2.666 4.05-3.8 4.05-.566 0-1.783-.166-3.65-.5-1.899-.366-2.899-.55-3-.55-1 0-2.116.351-3.35 1.05l-.95.7c.4.367 1.134.917 2.2 1.65.866.866 1.3 2.116 1.3 3.75 0 .166-1.366.934-4.1 2.3-2.767 1.733-4.15 3.5-4.15 5.3 5.232 5.026 6.208 8.168 2.925 9.425-3.282 1.253-6.091 1.861-8.425 1.825l.2.2c.1.233.15.55.15.95 0 1.3-1.184 2.883-3.551 4.75-2.366 1.866-3.55 2.983-3.55 3.35 0 1.334.767 2.233 2.3 2.7.634.167 2.334.384 5.101.65 4.899.466 7.35 2.35 7.35 5.649 0 .667-.033 1.05-.1 1.15-1.476 2.209-3.567 2.359-6.275.45-2.714-1.903-4.422-2.854-5.125-2.851-.033 0-.616.5-1.75 1.5-1.666 1-3.899 1.5-6.7 1.5-1.166 0-8.183-1.149-21.05-3.45-15.666-2.767-27-4.666-34-5.699-11.6-1.434-23.316-4.917-35.15-10.45-11.566-5.434-17.267-10.15-17.1-14.15l-17.5-.25c-1.267 0-2.75.617-4.45 1.851-1.033.733-2.867 2.083-5.5 4.05-6.067 3.899-14 5.85-23.8 5.85-3.1 0-8.017-1.184-14.75-3.55-7.466-2.634-16.25-6.417-26.35-11.35-5.77-2.803-9.994-6.911-12.675-12.325-2.677-5.409-4.068-9.709-4.175-12.9-.106-3.197-.498-8.172-1.175-14.925-.682-6.748.918-14.073 4.8-21.975 3.887-7.9 7.012-12.409 9.375-13.525a430.873 430.873 0 0 1 7.4-6.75c1.4-1.433 2.55-2.583 3.45-3.45 1.7-1.566 3.617-2.9 5.75-4 6.267-3.3 15.95-5.4 29.05-6.3 4.2-.633 8.183-.283 11.95 1.05 2.4.833 5.633 2.5 9.7 5 4.367 2.7 7.733 4.55 10.1 5.55 4.2 1.733 8.633 2.6 13.3 2.6 1 0 2.833-1.784 5.5-5.35 2.7-3.6 5.284-5.4 7.75-5.4 11.237.003 25.57 2.62 43 7.85 17.424 5.223 31.249 7.931 41.476 8.125 10.226.194 16.468-.63 18.725-2.475 2.262-1.837 4.361-2.754 6.298-2.75z" fill-rule="evenodd"/><path d="M753.4 44.6c4.466-1.633 8.5-2.45 12.1-2.45 2.333 0 4.434.533 6.3 1.6 2.5 1.433 3.601 3.467 3.3 6.1v3.6h-5.8l.15 1.95c0 2.167-.634 3.4-1.9 3.7-1.6.4-2.767 2.017-3.5 4.85-4.767.133-7.6 1.083-8.5 2.85-.366 2.3-1.149 4.05-2.35 5.25-1.233 1.233-3.184 2.383-5.851 3.45-2.466 1-4.35 1.5-5.649 1.5a107.515 107.515 0 0 0-4-1.1c-2.867-.733-6.601-1.1-11.2-1.1-12.366 0-23.333 1.233-32.9 3.7-7.8 1.967-16.5 5.333-26.1 10.1-11.934 6.267-21.717 11.3-29.35 15.1a464.568 464.568 0 0 1-42.75 18.7c-.467 0-.7-.167-.7-.5l-126.9 43.75c-8.467 3.167-28.1 12.033-58.899 26.6-32.534 15.366-55.067 25.583-67.601 30.65a7.175 7.175 0 0 1-1.649-.9c-1.034-.733-1.551-1.566-1.551-2.5 0-.634 1.95-3.733 5.851-9.3 2.1-2.634 4.25-5.233 6.45-7.8 6.267-4.833 9.583-7.351 9.949-7.55 2.934-1.567 11.4-5 25.4-10.3 17.3-6.5 31.517-11.183 42.65-14.05 2.899-.733 11.5-4.083 25.8-10.05 19.033-8 36.066-14.817 51.1-20.45 22.233-8.333 52.033-19.267 89.4-32.8l14.35-6.65c23.267-14.066 39.684-23.517 49.25-28.35 20.167-10.233 36.167-15.434 48-15.6.334 0 4.55-.4 12.65-1.2 8.899-.767 15.649-1.083 20.25-.95.2 0 1.95-1.784 5.25-5.35 2.133-1.6 5.116-3.1 8.95-4.5z" fill-rule="evenodd"/></svg>