<svg xmlns="http://www.w3.org/2000/svg" version="1.2" width="917.049" height="104.039" viewBox="0 0 917.049 104.039" overflow="inherit"><path d="M376 104.039h-7c-4.489-1.619-10.328-2.243-14 0h-3c-4.185-1.593-10.6-2.793-14 0h-45c-69.002-1.905-176.665-4.785-250-12-17.354-1.707-39.625 4.573-43-13v-2c.807-.693 2.739-1.556 3 0 5.237 4.148.822-5.269 3-6 14.223 3.712 33.324 3.708 47-2 8.059-3.363 13.646-10.524 22-14 5.354-2.228 13.043-3.474 20-6 10.837-3.935 18.317-5.973 32-9 12.798-2.831 28.378-4.056 43-5 2.448-.158 7.25-1.337 10-1 2.301.282 4.624 3.074 7 3 2.933-.091 7.144-2.688 11-3 4.399-.356 9.23 1.479 13 1 3.434-.437 5.6-2.741 9-3 3.947-.301 7.718.948 12 1 32.59.394 69.577-2.102 99-2 15.782.054 29.869 1.708 47 2 14.958.255 32.803-.006 49 0 6.1-8.567 12.75-16.583 19-25 48.387-13.842 105.189-10.818 136 17-.862 9.559-19.458 14.203-20 24 105.677 4.282 210.846 1.304 320 5 7.768-4.29 13.994-14.133 24-13 .319 1.877 6.254 4.106 7 6 .549 1.393-1.512 2.098-1 3 2.065 3.64 4.707 5.715 5 10 .635 9.271-4.99 16.355-13 21-10.646-.835-13.714-11.9-22-14-7.971-2.02-27.144.731-40 1-39.435.825-82.854 3.539-120 5-27.67 1.089-53.295 5.146-81 6-27.931.86-56.604.111-82 5-23.567 4.537-45.979 10.374-70 13-28.279 3.091-53.963 4.504-83 7h-9v-1c-3.447.156-16.11-.975-21 1z" fill-rule="evenodd"/></svg>