<svg xmlns="http://www.w3.org/2000/svg" xmlns:dc="http://dublincore.org/documents/dcmi-terms/" height="813.27" width="804.389"><metadata><dc:description>Silhouette of Chromatiales, processed by PhyloPic Tools (https://github.com/eweitz/phylopic-tools)</dc:description><dc:source>http://phylopic.org/image/8cf391cc-3587-4a49-a406-cfb3bd644739</dc:source><dc:creator>Matt Crook</dc:creator><dc:license>http://creativecommons.org/licenses/by-sa/3.0/</dc:license></metadata><g transform="translate(259.63 -530.46)"><path d="M-243.202 1341.23c-12.185-37.973-31.126-129.28 18.508-173.429 49.633-44.148 164.104 5.455 220.672-39.319 56.568-44.773 35.516-142.503 75.054-194.747 39.538-52.244 101.124-69.906 151.687-104.86" fill="none" stroke="#000" stroke-width="5" stroke-linecap="round"/><rect height="220" ry="110" style="marker:none" transform="rotate(-39.49)" width="451.429" x="-416.862" y="661.102" color="#000" stroke="#000" stroke-width="5" stroke-linecap="round" stroke-linejoin="round" overflow="visible"/><path d="M305.686 792.321a9.913 9.221 0 1 1-19.825 0 9.913 9.221 0 1 1 19.825 0z" style="marker:none" transform="matrix(1.36237 -1.12264 1.20684 1.46455 -1152.718 -94.51)" color="#000" fill="#fff" stroke="#4d4d4d" stroke-width="8.195" overflow="visible"/><path d="M305.686 792.321a9.913 9.221 0 1 1-19.825 0 9.913 9.221 0 1 1 19.825 0z" style="marker:none" transform="matrix(1.36237 -1.12264 1.20684 1.46455 -1125.248 -60.172)" color="#000" fill="#fff" stroke="#4d4d4d" stroke-width="8.195" overflow="visible"/><path d="M305.686 792.321a9.913 9.221 0 1 1-19.825 0 9.913 9.221 0 1 1 19.825 0z" style="marker:none" transform="matrix(1.36237 -1.12264 1.20684 1.46455 -1158.06 -41.859)" color="#000" fill="#fff" stroke="#4d4d4d" stroke-width="8.195" overflow="visible"/><path d="M305.686 792.321a9.913 9.221 0 1 1-19.825 0 9.913 9.221 0 1 1 19.825 0z" style="marker:none" transform="matrix(1.36237 -1.12264 1.20684 1.46455 -1178.662 -9.81)" color="#000" fill="#fff" stroke="#4d4d4d" stroke-width="8.195" overflow="visible"/><path d="M305.686 792.321a9.913 9.221 0 1 1-19.825 0 9.913 9.221 0 1 1 19.825 0z" style="marker:none" transform="matrix(1.36237 -1.12264 1.20684 1.46455 -1123.722 10.03)" color="#000" fill="#fff" stroke="#4d4d4d" stroke-width="8.195" overflow="visible"/><path d="M305.686 792.321a9.913 9.221 0 1 1-19.825 0 9.913 9.221 0 1 1 19.825 0z" style="marker:none" transform="matrix(1.36237 -1.12264 1.20684 1.46455 -1068.018 13.845)" color="#000" fill="#fff" stroke="#4d4d4d" stroke-width="8.195" overflow="visible"/><path d="M305.686 792.321a9.913 9.221 0 1 1-19.825 0 9.913 9.221 0 1 1 19.825 0z" style="marker:none" transform="matrix(1.36237 -1.12264 1.20684 1.46455 -988.66 -42.622)" color="#000" fill="#fff" stroke="#4d4d4d" stroke-width="8.195" overflow="visible"/><path d="M305.686 792.321a9.913 9.221 0 1 1-19.825 0 9.913 9.221 0 1 1 19.825 0z" style="marker:none" transform="matrix(1.36237 -1.12264 1.20684 1.46455 -1039.785 -65.514)" color="#000" fill="#fff" stroke="#4d4d4d" stroke-width="8.195" overflow="visible"/><path d="M305.686 792.321a9.913 9.221 0 1 1-19.825 0 9.913 9.221 0 1 1 19.825 0z" style="marker:none" transform="matrix(1.36237 -1.12264 1.20684 1.46455 -994.764 -105.193)" color="#000" fill="#fff" stroke="#4d4d4d" stroke-width="8.195" overflow="visible"/><path d="M305.686 792.321a9.913 9.221 0 1 1-19.825 0 9.913 9.221 0 1 1 19.825 0z" style="marker:none" transform="matrix(1.36237 -1.12264 1.20684 1.46455 -1018.42 -208.206)" color="#000" fill="#fff" stroke="#4d4d4d" stroke-width="8.195" overflow="visible"/><path d="M305.686 792.321a9.913 9.221 0 1 1-19.825 0 9.913 9.221 0 1 1 19.825 0z" style="marker:none" transform="matrix(1.36237 -1.12264 1.20684 1.46455 -955.085 -248.649)" color="#000" fill="#fff" stroke="#4d4d4d" stroke-width="8.195" overflow="visible"/><path d="M305.686 792.321a9.913 9.221 0 1 1-19.825 0 9.913 9.221 0 1 1 19.825 0z" style="marker:none" transform="matrix(1.36237 -1.12264 1.20684 1.46455 -907.775 -196.76)" color="#000" fill="#fff" stroke="#4d4d4d" stroke-width="8.195" overflow="visible"/><path d="M305.686 792.321a9.913 9.221 0 1 1-19.825 0 9.913 9.221 0 1 1 19.825 0z" style="marker:none" transform="matrix(1.36237 -1.12264 1.20684 1.46455 -884.12 -147.924)" color="#000" fill="#fff" stroke="#4d4d4d" stroke-width="8.195" overflow="visible"/><path d="M305.686 792.321a9.913 9.221 0 1 1-19.825 0 9.913 9.221 0 1 1 19.825 0z" style="marker:none" transform="matrix(1.36237 -1.12264 1.20684 1.46455 -926.089 -103.667)" color="#000" fill="#fff" stroke="#4d4d4d" stroke-width="8.195" overflow="visible"/><path d="M305.686 792.321a9.913 9.221 0 1 1-19.825 0 9.913 9.221 0 1 1 19.825 0z" style="marker:none" transform="matrix(1.36237 -1.12264 1.20684 1.46455 -963.479 -86.88)" color="#000" fill="#fff" stroke="#4d4d4d" stroke-width="8.195" overflow="visible"/><path d="M305.686 792.321a9.913 9.221 0 1 1-19.825 0 9.913 9.221 0 1 1 19.825 0z" style="marker:none" transform="matrix(1.36237 -1.12264 1.20684 1.46455 -1069.544 -83.827)" color="#000" fill="#fff" stroke="#4d4d4d" stroke-width="8.195" overflow="visible"/><path d="M305.686 792.321a9.913 9.221 0 1 1-19.825 0 9.913 9.221 0 1 1 19.825 0z" style="marker:none" transform="matrix(1.36237 -1.12264 1.20684 1.46455 -974.925 -160.896)" color="#000" fill="#4d4d4d" stroke="#4d4d4d" stroke-width="8.195" overflow="visible"/><path d="M305.686 792.321a9.913 9.221 0 1 1-19.825 0 9.913 9.221 0 1 1 19.825 0z" style="marker:none" transform="matrix(.97312 -.80188 .86203 1.0461 -718.263 89.93)" color="#000" fill="#fff" stroke="#4d4d4d" stroke-width="7.649" overflow="visible"/><path d="M305.686 792.321a9.913 9.221 0 1 1-19.825 0 9.913 9.221 0 1 1 19.825 0z" style="marker:none" transform="matrix(.97312 -.80188 .86203 1.0461 -723.604 119.69)" color="#000" fill="#fff" stroke="#4d4d4d" stroke-width="7.649" overflow="visible"/><path d="M305.686 792.321a9.913 9.221 0 1 1-19.825 0 9.913 9.221 0 1 1 19.825 0z" style="marker:none" transform="matrix(.97312 -.80188 .86203 1.0461 -686.214 212.02)" color="#000" fill="#fff" stroke="#4d4d4d" stroke-width="7.649" overflow="visible"/><path d="M305.686 792.321a9.913 9.221 0 1 1-19.825 0 9.913 9.221 0 1 1 19.825 0z" style="marker:none" transform="matrix(.97312 -.80188 .86203 1.0461 -496.975 6.757)" color="#000" fill="#fff" stroke="#4d4d4d" stroke-width="7.649" overflow="visible"/><path d="M305.686 792.321a9.913 9.221 0 1 1-19.825 0 9.913 9.221 0 1 1 19.825 0z" style="marker:none" transform="matrix(.97312 -.80188 .86203 1.0461 -467.215 -3.926)" color="#000" fill="#fff" stroke="#4d4d4d" stroke-width="7.649" overflow="visible"/><path d="M305.686 792.321a9.913 9.221 0 1 1-19.825 0 9.913 9.221 0 1 1 19.825 0z" style="marker:none" transform="matrix(.97312 -.80188 .86203 1.0461 -508.42 -30.633)" color="#000" fill="#fff" stroke="#4d4d4d" stroke-width="7.649" overflow="visible"/><path d="M305.686 792.321a9.913 9.221 0 1 1-19.825 0 9.913 9.221 0 1 1 19.825 0z" style="marker:none" transform="matrix(1.36237 -1.12264 1.20684 1.46455 -845.204 -179.973)" color="#000" fill="#fff" stroke="#4d4d4d" stroke-width="8.195" overflow="visible"/><path d="M305.686 792.321a9.913 9.221 0 1 1-19.825 0 9.913 9.221 0 1 1 19.825 0z" style="marker:none" transform="matrix(.97312 -.80188 .86203 1.0461 -646.535 90.694)" color="#000" fill="#4d4d4d" stroke="#4d4d4d" stroke-width="7.649" overflow="visible"/><path d="M305.686 792.321a9.913 9.221 0 1 1-19.825 0 9.913 9.221 0 1 1 19.825 0z" style="marker:none" transform="matrix(.97312 -.80188 .86203 1.0461 -626.695 221.177)" color="#000" fill="#4d4d4d" stroke="#4d4d4d" stroke-width="7.649" overflow="visible"/><path d="M305.686 792.321a9.913 9.221 0 1 1-19.825 0 9.913 9.221 0 1 1 19.825 0z" style="marker:none" transform="matrix(.97312 -.80188 .86203 1.0461 -722.84 278.407)" color="#000" fill="#4d4d4d" stroke="#4d4d4d" stroke-width="7.649" overflow="visible"/><path d="M305.686 792.321a9.913 9.221 0 1 1-19.825 0 9.913 9.221 0 1 1 19.825 0z" style="marker:none" transform="matrix(1.36237 -1.12264 1.20684 1.46455 -1069.544 -162.423)" color="#000" fill="#fff" stroke="#4d4d4d" stroke-width="8.195" overflow="visible"/></g></svg>