<svg xmlns="http://www.w3.org/2000/svg" xmlns:dc="http://dublincore.org/documents/dcmi-terms/" height="375" width="378.219"><metadata><dc:description>Silhouette of Chthonomonadaceae, processed by PhyloPic Tools (https://github.com/eweitz/phylopic-tools)</dc:description><dc:source>http://phylopic.org/image/c0abb6d5-d59c-47bc-b7ff-3cfce6c95e99</dc:source><dc:creator>Matt Crook</dc:creator><dc:license>http://creativecommons.org/licenses/by-sa/3.0/</dc:license></metadata><path d="M359.147 7.188c.126.471.217.727.343 1.312.501 2.315.69 6.042 3.625 8.906 2.488 2.428 5.58 2.743 7.125 2.938.773.097 1.252.174 1.407.218h.03c.26.34.952 1.9 1.157 3.438.2 1.503 0 3.2-.187 3.969-.167.084-.21.077-.625.312-1.541.874-3.933 2.82-4.75 6.282-.977 4.135.8 7.685 2 10.718 1.228 3.106 2.302 6.182 2.312 8 .015 2.728-.385 6.132-1.062 9.157-.678 3.024-1.705 5.733-2.563 6.937-.632.888-1.448 1.194-3.312 1.781-.904.285-2.132.598-3.438 1.344-1.403.802-2.873 2.158-3.562 4.188-.729 2.142-.284 4.218.406 5.718.648 1.41 1.497 2.432 2.062 3.188.184.245.196.285.344.5-.382.114-.568.192-1.062.312-1.03.252-2.343.522-3.72 1.125-1.424.624-3.227 1.819-4.124 4-.77 1.874-.626 3.724-.188 5.188.41 1.368 1.015 2.44 1.5 3.25.412.686.704 1.205.875 1.531-.043.088.011.208-.25.469-.337.337-1.286 1.02-2.437 1.969-.051.013-.417.232-.844.406-.57.232-1.325.504-2.156.812-1.7.632-4.383 1.689-6 4.438-.963 1.637-1.077 3.347-.938 4.656.13 1.228.43 2.183.625 2.875.179.632.284.972.313 1.156-.139.122-.33.265-.594.406-.622.335-1.518.758-2.562 1.126-2.129.747-5.249 1.453-7.72 4-2.011 2.073-2.745 4.395-3.187 5.874-.44 1.473-.593 2.128-1.562 3.375-2.378 3.064-8.481 8.803-11.625 10.22-1.33.598-3.152.71-5.375.687-.946-.01-2.037-.056-3.219 0-.154-1.416-.497-2.774-1.219-4-.742-1.263-2.114-2.102-3.343-2.219-1.23-.117-2.24.247-3.094.563-.338.124-.52.195-.813.312.194-.553.348-1.181.157-1.969-.31-1.272-1.37-2.223-2.657-2.812-2.4-1.1-5.84-1.767-9.625-2.469s-7.879-1.375-11.187-2.094a2 2 0 0 0-.594-.031 2 2 0 0 0-.25 3.938c3.484.757 7.601 1.436 11.313 2.125 3.711.688 7.08 1.465 8.656 2.187.197.09.203.11.281.156-.18.335-.55.752-.844 1.625-.147.437-.279 1.098-.062 1.813.217.715.78 1.305 1.312 1.625 1.24.744 2.484.485 3.375.219.891-.267 1.657-.633 2.313-.875.656-.242 1.194-.327 1.344-.313.15.014.018-.144.25.25.326.554.532 1.563.656 2.781-.279.11-.563.205-.844.344-4.3 2.125-6.77 5.43-8.125 8.063-.66 1.282-.798 2.587-.75 3.625-.512-.027-.894-.035-1.531-.094-1.134-.105-2.433-.235-3.813-.219-1.316.016-3.145.15-4.875 1.313-2.3 1.547-3.117 3.777-3.437 5.28-.596.04-1.44.121-2.438.47a6.343 6.343 0 0 0-3.312 2.625c-1.223 1.94-.983 3.877-.313 5.375.415.925.798 1.436.97 1.687-.247.15-.565.323-1.032.5-1.187.45-2.968.932-4.844 1.375-1.867.441-3.902.851-5.812 1.469-1.81.585-3.928 1.352-5.532 3.344-.93 1.156-1.725 2.498-1.875 4.125-.028.307.044.533.063.812-.557.055-.973.096-1.719.156-2.48.2-6.33.448-9.375 3.313-1.581 1.487-2.457 3.23-3 4.969-2.606-.44-4.892-.953-6.312-1.782-1.367-.797-1.59-1.596-2.032-3.125-.441-1.528-.948-3.787-3-5.53-2.055-1.748-4.665-2.397-7-3.188-2.334-.792-4.29-1.707-5.125-2.75-.949-1.187-1.216-2.534-1.25-4.344-.033-1.81.226-3.94-.125-6.219a2 2 0 0 0-2.125-1.719 2 2 0 0 0-1.812 2.344c.24 1.56.022 3.529.062 5.688.04 2.158.417 4.615 2.125 6.75 1.823 2.278 4.534 3.205 6.97 4.03 2.434.827 4.669 1.604 5.687 2.47 1.021.868 1.262 1.905 1.75 3.593.488 1.69 1.371 4.027 3.843 5.47 2.173 1.267 4.806 1.921 7.5 2.374-.047.308-.11.652-.156.938-.233 1.425-.495 2.71-.781 3.687-.286.976-.716 1.624-.656 1.563-.612.628-1.6.963-3.563 1.312-1.885.335-4.947.563-7.625 2.813-2.612 2.194-3.17 5.157-3.5 6.375-.372 1.372-.08 1.24-1.469 2.187-.036.01-.289.135-.656.219-.49.111-1.201.222-2 .312-1.597.181-3.633.28-5.719.313-4.163.064-9.32-.384-13.28 3-3.3 2.82-3.62 6.732-3.563 8.875.024.94-.007 1.623-.032 1.75-.016.087-.01.111 0 .125-.01.006-.045.018-.062.031.013-.062-.647.32-1.531.531-1.01.242-2.388.438-3.875.594-2.669.28-6.204.354-9.313 2.344-.274-.18-.574-.353-.844-.531-3.254-2.156-6.173-4.236-7.562-5.625-.649-.649-.74-.98-.75-1.032-.01-.052-.03-.033.094-.312.124-.28.453-.752.656-1.625s-.033-2.171-.719-3.063c-.707-.918-1.662-1.42-2.469-1.718-.806-.298-1.526-.45-2.156-.657-1.26-.411-2.186-.779-3.187-2.656-2.13-3.994-3.91-13.6-6.032-20.875a2 2 0 0 0-2.125-1.469 2 2 0 0 0-1.718 2.594c2.012 6.9 3.496 16.286 6.343 21.625 1.488 2.79 3.767 4.038 5.47 4.594.85.278 1.58.458 2.03.625.384.141.465.207.563.312-.053.106-.11.232-.313.688-.266.599-.587 1.596-.375 2.687.213 1.092.849 2.099 1.844 3.094 1.898 1.898 4.88 3.935 8.188 6.125l.093.063c-1.452 2.062-1.935 4.283-2.25 5.718-.211.965-.37 1.639-.53 2.032-.155.374-.255.524-.532.75-.024-.027-.688.282-1.563.437-.999.177-2.299.298-3.718.375-2.816.153-6.926-.027-10.094 3.031-2.488 2.402-3.054 5.432-3.125 7.438-.065 1.819.008 2.546-.469 3.594-1.628 3.576-5.362 9.743-7.781 11.812-1.08.923-2.6 1.563-4.531 2.188-1.9.614-4.37 1.21-6.72 2.968-3.306 2.474-6.305 5.322-7.687 9-.53 1.413-.487 2.73-.312 3.782-.179.019-.25.046-.438.062-.896.08-2 .162-3.25.469-1.212.298-2.992.934-4.25 2.625-1.11 1.492-1.469 3.175-1.156 4.812.15.789.329 1.069.531 1.5-.028.01-.033.022-.062.031-.888.286-2.272.579-3.781.875-1.507.296-3.18.601-4.813 1.125-1.53.492-3.614 1.268-5.031 3.313-.97 1.399-1.49 3.026-1.344 4.688.038.433.179.73.281 1.093-.497.062-.827.128-1.437.188-1.213.119-2.634.26-4.125.656-1.485.394-3.398 1.169-4.75 3a7.824 7.824 0 0 0-1.531 4.781v.031c.038 1.4.397 2.548.625 3.313.214.72.328 1.188.375 1.437-.01-.002-.09.104-.375.313-.473.346-1.184.781-2.032 1.25-1.72.95-4.482 2.26-6.218 5.219-1.792 3.053-1.217 6.141-1.094 7.625.069.832.106 1.36.062 1.656-.044.296-.11.453-.437.875.111-.144-.593.486-1.625.969-1.033.482-2.395.992-3.875 1.437-2.99.9-6.634 1.573-9.656 3.938-2.545 1.991-3.85 4.377-4.625 5.875-.53 1.024-.772 1.4-.907 1.562-.13-.038-.88.07-2-.093-1.65-.24-4.95-.722-7.687 1.593-2.894 2.448-2.83 6.001-2.906 7.75-.039.884-.1 1.623-.188 2.094-.065.353-.192.566-.156.531-1.407 1.574-3.896 2.789-6.375 2.781-.798-.002-2.642-.517-4.344-1.343-1.702-.826-3.356-1.971-4.062-2.688-.166-.167-.441-.768-.72-2.219-.137-.72-.315-1.754-.78-2.906-.51-1.26-1.461-2.658-3.063-3.562-1.262-.713-2.641-1.037-4.031-.906-1.24.116-2.18.55-2.656.75-1.085.455-1.011.555-2.188.468-1.788-.131-4.68-.508-7.375-1.125-2.694-.616-5.249-1.59-6.125-2.312-1.469-1.21-2.826-2.953-3.687-4.594-.862-1.641-1.116-3.25-1.032-3.688.02-.102-.074.026.094-.125.168-.15.63-.475 1.375-.875 1.284-.689 4.275-1.656 6.031-4.718a18.447 18.447 0 0 0 2.282-11.594c-.14-1.046-.492-1.918-.907-2.688.515.063.944.168 1.5.188 1.341.048 3.974-.108 5.657-2.344a5.744 5.744 0 0 0 1.093-4.437c.775-.14 1.588-.265 2.594-.688 1.358-.571 2.98-1.647 3.875-3.594 1.537-3.346.046-6.49-.844-8.218-.43-.834-.843-1.632-1.125-2.219-.14-.294-.25-.533-.312-.688-.124-1.455-.268-2.634-.25-3.125.016-.439.121-.527.219-.687.36-.105 1.2-.254 2.187-.469 1.02-.222 2.286-.54 3.625-1.219 1.438-.728 3.012-2.04 3.75-4.125.765-2.16.303-4.235-.406-5.718-.67-1.402-1.545-2.414-2.188-3.219-.608-.761-1.088-1.454-1.375-1.938-.033-.056-.034-.074-.062-.125.132-.15.343-.37.812-.812 1.103-1.04 3.203-2.943 4.157-6.094.797-2.632.504-5.14.125-7.344 1.509.077 2.787.31 3.687.782 1 .523 1.557 1.655 2.125 3.344.568 1.688.917 3.877 2.969 5.343.982.702 2.214.939 3.156.813.942-.126 1.639-.468 2.188-.688.548-.22.922-.33 1.125-.344.202-.013.237-.025.562.22.868.65 2.017 2.223 3.125 4.124 1.108 1.902 2.223 4.085 3.5 6a2.006 2.006 0 1 0 3.344-2.219c-1.086-1.628-2.192-3.749-3.375-5.78-1.184-2.033-2.407-4.009-4.188-5.344-.999-.75-2.213-1.065-3.218-1-1.006.064-1.779.385-2.375.625-.597.239-1.024.41-1.22.437-.194.026-.113.048-.312-.094-.31-.221-.873-1.513-1.5-3.375-.626-1.862-1.539-4.32-4.031-5.625-1.945-1.018-4.087-1.234-6.187-1.25-.04-.494-.048-.944-.063-1.343.33.082.382.139.813.187 1.468.165 3.218-.116 4.718-1.469 2.25-2.028 2.334-4.844 2.375-6.125.041-1.26.09-1.706.313-2.125.07-.131 1.547-1.909 3.094-3.375 1.56-1.479 3.43-3.089 4.78-5.312 1.326-2.182 1.431-4.225 1.5-5.25.53.114 1.151.247 2 .5 1.077.32 2.342.732 3.813.937 1.454.203 3.53.268 5.469-.968a7.121 7.121 0 0 0 3-4c.308-1.043.296-1.795.313-2.47.377.097.572.124 1.03.25 1.026.284 2.365.669 4 .688 1.75.021 3.808-.486 5.5-1.968 1.809-1.583 2.482-3.728 2.657-5.47.171-1.699-.032-3.188-.156-4.437-.123-1.226-.19-2.334-.156-3.125.025-.593.186-1.026.187-1.093.256-.264 1.592-1.081 3.563-1.75 2.023-.688 5.085-1.302 7.5-3.907 2.162-2.333 2.646-5.083 2.937-6.531.006-.032-.006-.032 0-.062 1.592.465 4.003.883 6.594-.532 3.32-1.813 4.52-5.023 5.625-7.375 1.14-2.43 2.31-4.714 3.375-5.812 3.233-3.336 8.466-7.04 12.719-8.781 1.253-.513 3.503-.515 6.28-.5 2.81.014 6.689-.09 9.938-2.844 3.373-2.859 4.229-6.953 4.844-10.063.305-1.54.584-3.029.844-4.187.13-.58.242-1.057.344-1.406.076-.263.195-.499.187-.5.938-1.481 1.55-2.302 1.5-2.25.092-.096-.033.005.031-.032.031-.017.274-.126.406-.187.076.008.12.018.22.031.427.058 1.068.139 1.843.313 1.746.39 4.9.994 7.875-.844 3.332-2.06 3.99-5.608 4.562-7.625.29-1.02.601-1.918.875-2.563.185-.435.402-.76.438-.843.216-.096.857-.236 2.312-.313 1.665-.088 4.754-.081 7.375-2.312 2.727-2.321 3.223-5.508 3.657-7.313.212-.884.44-1.597.625-2.062.017-.045.014-.055.03-.094.15.009.272.005.72.062 1.145.149 3.754.68 6.468-.625 2.782-1.337 4.172-3.66 5.22-5.062.406-.546.805-.971 1.155-1.344.46.287.988.701 2.063.906 1.688.322 3.328-.092 4.719-1.156 1.907-1.46 2.3-3.624 2.375-4.937.074-1.31-.079-2.45-.188-3.344-.003-.027.003-.036 0-.063.058 0 .066.002.125 0a6.599 6.599 0 0 0 3.875-1.406c2.683-2.077 2.989-5.051 3.344-6.437.055-.217.073-.274.125-.47.108.02.106.05.219.063 1.309.158 2.697-.12 3.968-.906 1.62-1 2.348-2.522 2.72-3.469.388-.99.577-1.873.75-2.53.078-.303.139-.437.218-.657.082.02.062.008.156.031 1.312.32 3.943.973 6.844-.062 2.362-.844 4.667-2.305 6.812-4.032 2.11-1.698 4.172-3.616 5.375-6.156.559-1.179.693-2.312.688-3.344.426.023.878.003 1.344-.062 1.218 1.497 2.653 2.904 4.437 4.125 6.588 4.507 15.64 5.088 22.688 7.344A2.001 2.001 0 1 0 265.77 101c-7.718-2.47-16.403-3.27-21.625-6.844-1.186-.812-2.17-1.767-3.062-2.812.952-1.097 1.402-2.368 1.562-3.438.18-1.195.085-2.19.032-2.875a19.301 19.301 0 0 1-.063-1.625v-.03c.082-.06-.002-.004.125-.095a18.559 18.559 0 0 0 3.594-3.343c1.812-2.18 3.318-5.112 4.969-7.875a49.51 49.51 0 0 1 2.468-3.75c.765-1.041 1.597-1.873 1.47-1.782.208-.15.269-.2.28-.218.026.007.045.025.094.03a8.108 8.108 0 0 0 6.031-1.75c2.775-2.232 3.505-5.307 4.313-7.468.41-1.095.852-2.126 1.25-2.906.298-.585.667-1.055.719-1.156.314-.22 1.077-.453 2.5-.594 1.31-.13 4.245-.034 6.593-2.313 1.334-1.293 1.747-2.722 1.938-3.968.014.004.017-.004.031 0 .892.231 2.076.54 3.5.562 1.556.024 3.482-.4 5.063-1.844 1.475-1.347 2.119-3.082 2.28-4.593.149-1.38-.023-2.59-.155-3.532-.254-1.8-.208-3.075-.188-3.125.985-2.408 4.305-6.565 6.188-7.656.233-.135 1.664-.398 3.5-.375 1.734.022 4.889.422 7.656-1.75 2.445-1.92 2.848-4.704 2.969-5.969.038-.399.025-.405.03-.5.336-.273 1.846-1.21 3.313-1.718 1.446-.502 3.074-.644 3.563-.625.129.145.34.378.75.875 1.156 1.404 3.607 3.74 7.281 3.562 4.327-.21 6.816-3.416 8.719-5.406a51.494 51.494 0 0 1 2.781-2.688c.4-.358.747-.651 1-.843.127-.096.254-.158.312-.188.753-.244.88-.175 1.97.063 1.048.228 3.483.937 6.124-.157 1.74-.72 2.778-1.822 3.531-2.875.823.985 2.072 1.989 3.875 2.282 2.206.358 3.962-.608 5-1.438.53-.423.755-.705 1.094-1.062z" style="text-indent:0;text-align:start;line-height:normal;text-transform:none;block-progression:tb;marker:none;-inkscape-font-specification:Sans" font-weight="400" color="#000" fill="#333" stroke="#000" stroke-width="2" stroke-linejoin="round" overflow="visible" font-family="Sans"/><path d="M349.334 0c-.888 0-1.655.466-2.187 1-.533.534-.934 1.167-1.313 1.781-.757 1.228-1.474 2.317-2.219 2.625-.857.356-1.656.125-2.937-.156-1.281-.28-2.963-.557-4.969.125-2.258.768-4.121 3.04-6.062 5.063-1.941 2.021-3.916 3.688-5.188 3.75-1.536.074-2.077-.611-2.937-1.657-.86-1.045-1.924-2.538-3.97-2.781-1.872-.223-4.079.223-6.155.938-2.077.714-4.007 1.702-5.282 2.874-1.346 1.24-1.492 2.75-1.593 3.813-.102 1.063-.121 1.654-1 2.344-.734.576-2.325.651-4.282.625-1.956-.027-4.253-.094-6.25 1.062-3.69 2.138-6.874 6.55-8.375 10.219-.848 2.073-.424 4.196-.187 5.906.119.856.188 1.607.125 2.188-.063.58-.218.97-.594 1.312-.348.318-.746.416-1.375.407-.628-.01-1.425-.161-2.25-.376-.824-.214-1.673-.48-2.531-.593-.858-.113-1.794-.108-2.594.468-.652.47-1.08 1.136-1.25 1.75-.17.615-.137 1.15-.125 1.626.024.952.105 1.475-.5 2.062-.507.492-1.779.655-3.437.813-1.659.157-3.673.392-5.375 1.78-1.791 1.461-2.656 3.945-3.532 6.282-.875 2.337-1.792 4.523-2.656 5.219-1.085.873-1.258.697-2.125.593-.867-.103-2.269-.11-4.031 1.157-1.933 1.39-3.67 4.224-5.406 7.125-1.736 2.9-3.42 5.883-4.532 7.219-1.19 1.43-1.915 1.92-2.593 2.406-.678.485-1.406 1.066-1.97 2.219-.698 1.428-.387 2.983-.28 4.28.053.65.063 1.225 0 1.657-.064.432-.176.668-.375.844-.18.158-.336.188-.72.156-.382-.032-.922-.161-1.5-.344-.576-.182-1.187-.407-1.874-.469-.688-.061-1.549.08-2.156.688-.556.555-.773 1.368-.72 2 .054.632.267 1.13.438 1.625.342.99.612 1.782.094 2.875-.535 1.13-2.077 2.809-3.875 4.25-1.797 1.441-3.883 2.677-5.312 3.188-1.318.47-2.473.224-3.782-.094-1.308-.318-2.876-.739-4.375.187-1.572.972-2.015 2.797-2.406 4.282-.195.742-.361 1.425-.562 1.937-.202.512-.412.782-.563.875-.274.17-.374.175-.531.156-.157-.019-.413-.104-.75-.25-.337-.145-.775-.361-1.344-.406-.569-.045-1.233.135-1.844.531-.75.488-1.129 1.22-1.437 2-.308.78-.538 1.636-.75 2.469-.424 1.666-.96 3.186-1.406 3.531-.602.466-1.023.337-1.938.157-.457-.09-.995-.202-1.625-.125-.63.076-1.329.385-1.875.968-.684.731-.83 1.686-.844 2.594-.013.908.11 1.847.22 2.75.108.903.223 1.777.187 2.406-.037.63-.21.898-.344 1-.303.232-.323.216-.469.188-.146-.028-.429-.194-.812-.438-.767-.488-2.092-1.302-3.72-.781-1.738.557-2.807 2.173-3.937 3.688-1.13 1.514-2.292 2.962-3.28 3.437-1.035.497-2.131.33-3.5.156-1.37-.174-3.066-.318-4.626.813-1.697 1.23-2.101 3.386-2.562 5.312-.462 1.926-.968 3.675-1.938 4.5-1.01.86-2.432.97-4.187 1.063-1.756.093-3.82.16-5.532 1.562-1.79 1.468-2.333 3.9-2.937 6.032-.605 2.131-1.283 3.914-2.281 4.53-1.122.694-2.4.525-3.907.188-1.507-.336-3.166-.932-4.812-.25-1.196.496-1.995.902-2.688 1.625-.692.724-1.202 1.625-2.187 3.188-1.233 1.956-1.488 4.88-2.063 7.781-.574 2.9-1.413 5.665-3.062 7.063-1.693 1.435-3.9 1.575-6.5 1.562-2.6-.013-5.498-.201-8.281.938-5.186 2.122-10.719 6.035-14.532 9.968-2.027 2.091-3.25 4.857-4.375 7.25s-2.188 4.338-3.343 4.969c-1.308.714-2.04.445-3.094.063-.527-.192-1.12-.44-1.813-.532a3.312 3.312 0 0 0-2.25.5c-1.515.985-1.824 2.676-2.125 4.157-.3 1.48-.605 2.869-1.625 3.968-.932 1.006-3.025 1.696-5.312 2.469-2.287.773-4.793 1.69-6.281 3.844v.031c-1.54 2.252-1.12 5.14-.875 7.656.123 1.263.221 2.463.125 3.406-.097.944-.364 1.584-.875 2.032-.546.477-1.128.634-1.907.625-.779-.01-1.691-.233-2.656-.5-.965-.268-1.97-.577-2.969-.719-.998-.142-2.082-.104-3 .531a3.749 3.749 0 0 0-1.5 2.156c-.199.78-.179 1.523-.187 2.188-.008.665-.028 1.255-.156 1.688-.128.432-.305.727-.782 1.03-.365.234-.992.31-1.875.188-.882-.12-1.958-.425-3.062-.75-1.104-.325-2.235-.66-3.344-.812-1.109-.152-2.272-.155-3.25.469-1.618 1.031-2.031 2.62-2.156 3.906-.125 1.285-.12 2.358-.813 3.5-.715 1.178-2.276 2.7-3.875 4.219-1.599 1.518-3.24 3.056-4.125 4.718-.876 1.648-.893 3.255-.937 4.469-.045 1.214-.112 1.88-.625 2.344-.205.185-.261.16-.563.125-.3-.035-.77-.178-1.343-.344-.573-.166-1.27-.347-2.063-.219-.792.129-1.613.6-2.312 1.406-.834.962-1.045 2.222-1.063 3.563-.017 1.34.184 2.83.406 4.313.444 2.964.927 6.017.47 7.53-.514 1.695-1.596 2.693-2.75 3.782-1.156 1.089-2.46 2.349-2.626 4.406-.184 2.283 1.512 4.034 2.781 5.625.635.796 1.185 1.56 1.5 2.219.315.66.4 1.147.22 1.656-.189.53-.546.876-1.157 1.188-.61.311-1.463.517-2.375.719-.912.201-1.868.384-2.781.687-.914.303-1.838.745-2.438 1.594-.93 1.314-1.262 2.658-1.312 3.937-.05 1.28.14 2.495.25 3.813.148 1.772 1.236 3.334 2 4.812.763 1.478 1.153 2.652.75 3.531-.182.395-.503.689-1.094.938-.59.25-1.412.415-2.25.563-.839.147-1.693.286-2.5.53-.807.245-1.646.636-2.094 1.5-.366.708-.377 1.524-.125 2.094.252.57.62.93.875 1.22.255.288.391.471.406.53.015.06.074.09-.187.438-.049.065-.417.248-1.25.219-.833-.03-1.974-.251-3.125-.438-1.151-.186-2.331-.341-3.438-.281-1.106.06-2.302.426-2.906 1.5a3.17 3.17 0 0 0-.187 2.719c.32.792.866 1.4 1.406 1.969 1.079 1.136 2.1 2.117 2.219 3v.03c.338 2.577-.145 5.584-1.657 8.22-.578 1.008-2.159 1.775-3.906 2.718-1.747.944-3.717 2.215-4.187 4.656-.897 4.654 2.442 9.982 6.562 13.375 4.364 3.595 12.507 4.364 16.5 4.657 2.182.16 3.654-.495 4.625-.907.486-.205.852-.317 1.125-.343.273-.026.503.005.938.25.344.194.527.46.718.937.192.478.327 1.12.47 1.875.284 1.512.622 3.446 2.124 4.969 2.729 2.767 7.85 5.612 12.219 5.625 4.208.012 8.056-1.91 10.5-4.781 1.423-1.673 1.45-3.846 1.531-5.688.08-1.842.237-3.265 1.031-3.937.854-.722 1.958-.629 3.5-.407 1.543.223 3.421.601 5.188-.375 1.686-.93 2.44-2.464 3.187-3.906.749-1.441 1.518-2.873 3.157-4.156 1.5-1.173 4.705-2.07 7.906-3.031 3.2-.961 6.469-1.959 8.219-4.219 1.64-2.12 1.623-4.375 1.468-6.219-.154-1.844-.354-3.288.375-4.531.735-1.252 2.386-2.222 4.188-3.219 1.802-.996 3.76-2.008 4.687-3.937.922-1.918.277-3.792-.156-5.25-.216-.73-.393-1.382-.406-1.938-.013-.555.083-.977.469-1.5.314-.425.95-.788 1.875-1.031.924-.243 2.09-.386 3.28-.5 1.193-.114 2.427-.186 3.532-.438 1.106-.25 2.159-.666 2.844-1.593.568-.77.768-1.63.656-2.344-.112-.715-.425-1.232-.656-1.656-.231-.425-.381-.745-.406-1.032-.025-.286-.004-.596.406-1.187.276-.399 1.102-.902 2.281-1.281 1.18-.38 2.669-.67 4.188-.969 1.518-.3 3.054-.597 4.406-1.031 1.352-.435 2.576-.969 3.312-2.032.603-.87.848-1.753.813-2.53-.035-.779-.294-1.414-.531-1.907-.237-.493-.424-.86-.47-1.094-.044-.233-.089-.326.157-.656.171-.23.602-.458 1.281-.625.68-.167 1.55-.263 2.47-.344.917-.081 1.896-.14 2.78-.344.885-.203 1.756-.552 2.344-1.343.465-.625.687-1.29.688-1.907 0-.616-.192-1.143-.344-1.562-.304-.838-.53-1.267-.219-2.094.737-1.961 3.018-4.487 5.875-6.625 1.261-.943 3.138-1.515 5.219-2.187 2.08-.673 4.359-1.49 6.344-3.188 3.895-3.332 7.29-9.594 9.125-13.625 1-2.2.883-4.122.937-5.625.054-1.503.168-2.526 1.5-3.812 1.114-1.075 3.788-1.37 6.719-1.532 2.93-.162 6.092-.206 8.281-1.937v-.031c2.056-1.638 2.546-3.861 2.969-5.781.424-1.927.781-3.557 2.344-4.844 1.446-1.192 4.446-1.605 7.562-1.938 3.116-.333 6.372-.568 8.438-2.531a5.655 5.655 0 0 0 1.687-3.063c.196-1.03.12-1.985.094-2.875-.051-1.779-.1-3.102 1.719-4.656 1.586-1.355 5.7-1.681 9.937-1.75 4.237-.068 8.554.086 11.25-1.75 2.401-1.635 3.189-3.584 3.625-5.187.436-1.603.598-2.725 1.781-3.719 1.144-.96 2.986-1.27 5.125-1.656 2.14-.387 4.588-.91 6.47-2.844 1.984-2.041 2.364-5.17 2.843-8.094.478-2.924 1.044-5.626 2.437-6.937 1.44-1.355 3.779-1.688 6.157-1.875 1.189-.094 2.356-.176 3.437-.375 1.081-.2 2.132-.511 2.875-1.344.605-.677.916-1.413.875-2.094-.041-.681-.348-1.095-.5-1.375-.152-.28-.206-.394-.187-.594.018-.2.15-.607.718-1.312.384-.476 1.523-1.096 3.063-1.594 1.54-.497 3.452-.921 5.375-1.375 1.923-.453 3.847-.936 5.5-1.562s3.105-1.352 3.875-2.656c.64-1.087.87-2.148.781-3.063-.088-.915-.46-1.656-.812-2.25-.354-.594-.711-1.078-.844-1.375-.133-.297-.13-.218-.031-.375.158-.25.314-.372.593-.469.28-.096.677-.127 1.157-.156.96-.058 2.287.006 3.375-.938 1.07-.929 1.114-2.199 1.28-3.093.167-.895.328-1.515 1.282-2.156.315-.212 1.023-.366 1.969-.375.946-.01 2.087.108 3.25.218 1.163.11 2.345.207 3.437.156 1.092-.05 2.157-.225 2.97-.968.629-.577 1.01-1.204 1.155-1.844.146-.64.066-1.228-.03-1.688-.194-.919-.402-1.342-.032-2.062 1.018-1.978 2.695-4.225 5.781-5.75 1.324-.654 3.319-.652 5.656-.625 2.338.027 5.006.01 7.594-1.156 5.05-2.276 10.756-8.077 13.656-11.813 1.51-1.945 2.017-3.65 2.438-5.062.417-1.399.752-2.483 1.906-3.688l.031-.031c1.044-1.076 3.325-1.866 5.657-2.687 2.331-.822 4.79-1.662 6-3.688 1.149-1.924.65-3.912.218-5.437-.215-.763-.407-1.429-.468-2-.061-.572-.003-1.009.25-1.438.55-.935 1.752-1.54 3.25-2.094 1.498-.553 3.211-.996 4.5-2.062.989-.82 1.969-1.497 2.843-2.375.875-.878 1.597-1.986 1.907-3.5.197-.964-.07-1.883-.438-2.688-.368-.805-.846-1.553-1.281-2.281-.436-.728-.814-1.44-1-2.062-.187-.624-.192-1.114.031-1.657.19-.462.593-.826 1.344-1.156.751-.33 1.781-.584 2.844-.844 1.062-.26 2.184-.528 3.187-1 1.004-.472 1.941-1.196 2.375-2.343.426-1.126.213-2.273-.219-3.22-.431-.946-1.06-1.769-1.656-2.562-.595-.793-1.158-1.546-1.469-2.218-.31-.673-.384-1.202-.187-1.782.21-.616.56-.942 1.156-1.281.597-.339 1.444-.607 2.406-.906 1.925-.6 4.345-1.382 6.032-3.75 3.234-4.54 4.66-12.79 4.625-19.188-.02-3.403-1.46-6.86-2.688-9.968-1.227-3.11-2.136-5.897-1.75-7.532.444-1.879 1.183-2.287 2.219-2.875 1.036-.587 2.509-1.342 3.062-3.28.509-1.783.61-4.057.313-6.313-.298-2.257-.97-4.483-2.25-6.094-1.348-1.697-3.27-1.982-4.875-2.188-1.605-.206-2.943-.345-4.063-1.437l-.03-.031c-.95-.958-1.558-3.6-2.126-6.22-.286-1.319-.598-2.644-1.094-3.78-.495-1.137-1.238-2.155-2.437-2.594a3.832 3.832 0 0 0-2.969.125c-.83.395-1.444.993-2 1.562-.556.57-1.062 1.112-1.469 1.438-.406.326-.598.378-.812.344-.303-.05-.503-.159-.75-.47-.248-.31-.484-.809-.75-1.343-.266-.534-.566-1.098-1.031-1.625-.466-.527-1.195-1-2.063-1zm0 2c.28 0 .347.068.563.313.215.244.456.692.718 1.218.263.526.557 1.132 1 1.688.443.555 1.105 1.078 1.97 1.218.952.155 1.788-.286 2.405-.78.618-.496 1.12-1.108 1.625-1.626.506-.517 1.021-.943 1.47-1.156.447-.213.8-.253 1.405-.031.477.174.896.646 1.282 1.531.386.885.688 2.083.968 3.375.56 2.585.934 5.507 2.72 7.25 1.628 1.59 3.63 1.827 5.218 2.031 1.589.204 2.713.369 3.562 1.438.918 1.154 1.578 3.077 1.844 5.094.266 2.016.148 4.136-.25 5.53-.353 1.239-1.014 1.447-2.156 2.095-1.142.647-2.619 1.747-3.188 4.156-.626 2.653.643 5.598 1.875 8.719 1.232 3.12 2.516 6.39 2.532 9.218.034 6.067-1.552 14.243-4.25 18.032-1.28 1.796-3.118 2.373-5.032 2.968-.956.298-1.903.596-2.78 1.094-.878.498-1.685 1.261-2.063 2.375-.391 1.15-.16 2.326.28 3.281.442.956 1.093 1.77 1.688 2.563.596.793 1.14 1.564 1.438 2.219.298.654.363 1.108.156 1.656-.199.526-.634.901-1.375 1.25-.74.348-1.726.617-2.781.875-1.055.258-2.157.53-3.156.969-1 .438-1.983 1.112-2.438 2.218-.422 1.026-.338 2.08-.062 3 .275.92.73 1.735 1.187 2.5.458.765.907 1.48 1.188 2.094.28.614.385 1.081.312 1.438-.23 1.126-.684 1.806-1.375 2.5-.69.693-1.649 1.364-2.719 2.25-.77.638-2.312 1.13-3.906 1.718-1.594.59-3.312 1.321-4.281 2.969-.507.862-.621 1.815-.531 2.656.09.841.354 1.607.562 2.344.417 1.474.695 2.628-.031 3.844-.665 1.113-2.646 2.005-4.938 2.812-2.29.807-4.813 1.545-6.437 3.219-1.485 1.53-1.982 3.075-2.406 4.5-.425 1.425-.794 2.763-2.094 4.438-2.72 3.502-8.569 9.25-12.938 11.218-2.12.956-4.417.996-6.718.969-2.302-.027-4.604-.17-6.594.813-3.542 1.75-5.514 4.437-6.656 6.656-.71 1.379-.311 2.637-.157 3.375.078.369.11.605.063.812-.047.208-.15.467-.563.844-.229.21-.833.397-1.718.438-.885.04-2.003-.047-3.157-.157-1.153-.11-2.322-.23-3.437-.218-1.115.01-2.199.117-3.094.718-1.465.986-1.93 2.396-2.125 3.438-.194 1.041-.242 1.637-.625 1.969-.366.317-1.136.374-2.187.437-.526.032-1.091.074-1.688.281a3.164 3.164 0 0 0-1.625 1.282c-.467.74-.367 1.638-.093 2.25.273.611.65 1.11.937 1.593.287.483.484.92.531 1.407.047.486-.03 1.047-.5 1.843-.34.578-1.365 1.253-2.843 1.813-1.479.56-3.372 1.05-5.282 1.5-1.91.45-3.856.865-5.531 1.406-1.675.541-3.105 1.138-4 2.25-.711.884-1.086 1.635-1.156 2.375-.07.74.237 1.35.437 1.719.2.368.248.53.25.562.002.032.036.166-.375.625-.272.305-.863.556-1.75.719-.887.163-1.998.248-3.218.344-2.44.192-5.311.464-7.375 2.406-2.112 1.987-2.551 5.157-3.032 8.094-.48 2.936-1.007 5.658-2.312 7-1.41 1.449-3.302 1.906-5.375 2.281-2.074.375-4.313.624-6.063 2.094-1.71 1.436-2.037 3.247-2.437 4.719-.4 1.471-.821 2.737-2.813 4.093-1.697 1.156-5.929 1.306-10.187 1.375-4.259.07-8.592.027-11.156 2.219-2.333 1.993-2.491 4.397-2.438 6.25.027.927.072 1.73-.062 2.438-.135.707-.4 1.31-1.094 1.968-1.288 1.225-4.177 1.7-7.281 2.032-3.105.331-6.382.553-8.594 2.375-2.096 1.726-2.607 4.008-3.031 5.937-.425 1.93-.777 3.466-2.282 4.656-1.388 1.098-4.216 1.369-7.156 1.532-2.94.162-6.016.208-7.969 2.093-1.734 1.674-2.066 3.547-2.125 5.188-.058 1.64.05 3.12-.75 4.875-1.766 3.88-5.23 10.06-8.593 12.937-1.645 1.407-3.655 2.124-5.688 2.782-2.033.657-4.092 1.236-5.781 2.5-3.043 2.275-5.572 4.895-6.563 7.53-.553 1.473-.056 2.711.219 3.47.137.379.219.67.219.875 0 .204-.021.369-.281.718-.136.183-.547.408-1.22.563-.672.155-1.545.23-2.468.312-.923.082-1.882.186-2.781.407-.9.22-1.809.571-2.406 1.375a2.887 2.887 0 0 0-.532 2.218c.128.667.417 1.16.625 1.594.209.434.329.79.344 1.125.015.336-.028.69-.437 1.281-.277.4-1.102.902-2.282 1.282-1.18.379-2.669.67-4.187.968-1.519.3-3.055.597-4.406 1.032-1.352.434-2.576.968-3.313 2.03-.603.871-.849 1.764-.781 2.532.067.768.377 1.358.625 1.813.248.454.434.779.469 1 .034.22.022.39-.313.843-.219.297-.787.608-1.687.813-.9.204-2.047.322-3.25.437-1.204.116-2.447.23-3.594.532-1.147.301-2.248.805-2.969 1.78a4.427 4.427 0 0 0-.875 2.75c.02.895.275 1.714.5 2.47.45 1.511.818 2.664.281 3.78-.531 1.107-2.078 2.07-3.875 3.063-1.797.994-3.806 2.041-4.937 3.969-1.137 1.937-.803 3.94-.656 5.688.145 1.737.156 3.222-1.063 4.812v.031c-1.13 1.46-4.038 2.586-7.187 3.531-3.15.946-6.477 1.719-8.594 3.375-1.978 1.548-2.932 3.327-3.688 4.782-.755 1.455-1.288 2.493-2.375 3.094-1.006.555-2.347.354-3.937.125-1.59-.23-3.53-.449-5.094.875-1.624 1.373-1.637 3.515-1.719 5.375-.081 1.859-.207 3.531-1.031 4.5-2.052 2.41-5.411 4.072-9 4.062-3.428-.01-8.53-2.716-10.812-5.031-1.004-1.018-1.278-2.392-1.563-3.906-.143-.758-.296-1.54-.594-2.282-.297-.742-.786-1.481-1.593-1.937-.717-.405-1.469-.563-2.125-.5-.657.063-1.182.285-1.688.5-1.013.429-1.931.879-3.687.75-3.885-.285-11.944-1.336-15.407-4.188-3.706-3.053-6.494-8.06-5.843-11.437.303-1.574 1.518-2.428 3.156-3.313 1.638-.884 3.663-1.629 4.719-3.469a15.206 15.206 0 0 0 1.875-9.5c-.258-1.919-1.772-3.124-2.75-4.156-.49-.515-.858-.96-1-1.312-.143-.353-.158-.553.093-1 .156-.277.49-.457 1.281-.5.792-.043 1.873.13 3 .312 1.127.183 2.278.4 3.344.438 1.066.037 2.226-.085 2.938-1.031.5-.664.698-1.47.531-2.125-.167-.655-.56-1.054-.844-1.375-.283-.321-.474-.56-.531-.688-.057-.128-.11-.103.031-.375.06-.115.318-.322.906-.5.588-.178 1.41-.315 2.282-.469.872-.153 1.793-.323 2.656-.687.863-.364 1.712-.97 2.156-1.938.847-1.843.04-3.722-.781-5.312-.821-1.59-1.702-3.081-1.781-4.031-.118-1.405-.29-2.59-.25-3.594.04-1.005.257-1.839.968-2.844.22-.311.684-.604 1.407-.844.722-.24 1.639-.414 2.593-.625.955-.21 1.943-.446 2.844-.906.902-.46 1.74-1.224 2.125-2.313.393-1.11.17-2.211-.281-3.156-.45-.944-1.1-1.81-1.75-2.625-1.3-1.63-2.432-3.131-2.344-4.219.106-1.313.863-2.052 2-3.125 1.133-1.067 2.6-2.374 3.281-4.593v-.031c.732-2.418.03-5.526-.406-8.438-.218-1.456-.39-2.848-.375-3.969.015-1.12.232-1.9.563-2.281.464-.536.799-.697 1.125-.75.326-.053.71.018 1.187.156.477.138 1.032.361 1.688.438.655.076 1.49-.084 2.125-.656 1.166-1.052 1.235-2.506 1.28-3.75.046-1.245.091-2.413.72-3.594.62-1.167 2.128-2.709 3.718-4.219 1.59-1.51 3.248-2.995 4.22-4.594.992-1.635.982-3.239 1.093-4.375.11-1.135.18-1.724 1.25-2.406.366-.233.992-.309 1.875-.187.883.12 1.959.425 3.062.75 1.104.324 2.235.66 3.344.812 1.109.152 2.241.155 3.219-.469a3.864 3.864 0 0 0 1.625-2.156c.233-.787.241-1.542.25-2.219.009-.677.012-1.274.125-1.718.113-.445.296-.738.719-1.032.33-.228.804-.295 1.562-.187.758.108 1.714.409 2.719.687 1.005.279 2.049.55 3.156.563 1.108.013 2.32-.283 3.281-1.125.997-.872 1.406-2.116 1.532-3.344.126-1.228 0-2.505-.125-3.781-.25-2.552-.42-4.968.53-6.344 1.023-1.478 3.024-2.34 5.25-3.094 2.228-.753 4.619-1.34 6.157-3 1.452-1.566 1.824-3.456 2.125-4.937.301-1.482.555-2.424 1.25-2.875.363-.236.563-.265.906-.219.344.046.806.231 1.375.438 1.139.412 2.833.842 4.72-.188 2.037-1.113 3.081-3.458 4.218-5.875 1.136-2.417 2.32-4.987 4-6.719 3.6-3.713 9.004-7.519 13.844-9.5 2.23-.912 4.848-.794 7.53-.781 2.684.013 5.5-.097 7.782-2.031 2.326-1.972 3.155-5.183 3.75-8.188.596-3.004 1.038-5.945 1.781-7.125.992-1.573 1.523-2.408 1.97-2.875.446-.466.866-.687 2-1.156.682-.283 1.987.016 3.593.375 1.605.359 3.587.687 5.406-.437 1.943-1.201 2.516-3.57 3.125-5.72.61-2.148 1.238-4.144 2.281-5 1.123-.92 2.626-1.031 4.375-1.124 1.75-.093 3.777-.176 5.407-1.563 1.67-1.422 2.1-3.604 2.562-5.531.462-1.927.983-3.555 1.813-4.156.967-.702 1.88-.635 3.187-.469 1.308.167 2.949.493 4.625-.312 1.722-.828 2.875-2.555 4-4.063 1.116-1.496 2.23-2.728 2.938-2.969h.03c.82-.262 1.194.05 2 .563.404.256.886.563 1.532.687.646.125 1.419-.039 2.063-.531.812-.621 1.041-1.604 1.093-2.5.053-.896-.046-1.836-.156-2.75-.11-.913-.229-1.779-.219-2.469.01-.69.183-1.111.313-1.25.268-.286.396-.347.625-.375.229-.028.565.04 1 .125.87.172 2.304.443 3.562-.531 1.414-1.094 1.702-2.963 2.125-4.625.212-.831.419-1.617.657-2.219.238-.602.518-.984.687-1.093.309-.201.434-.2.594-.188.16.013.397.08.719.219.322.139.73.34 1.28.406.551.066 1.212-.034 1.813-.406.725-.448 1.131-1.174 1.407-1.875.275-.701.435-1.436.625-2.156.38-1.441.85-2.642 1.53-3.063.756-.467 1.537-.287 2.845.031 1.308.318 3.027.745 4.937.063 1.799-.642 3.942-1.982 5.875-3.532 1.933-1.55 3.632-3.267 4.438-4.968.823-1.738.358-3.337 0-4.375-.18-.52-.325-.931-.344-1.157-.02-.225-.02-.199.156-.375.123-.123.18-.156.531-.125.352.032.887.191 1.47.375.581.185 1.229.38 1.937.438.708.059 1.564-.078 2.218-.656.635-.56.926-1.342 1.032-2.063.105-.72.056-1.436 0-2.125-.113-1.376-.221-2.64.062-3.219.418-.855.678-.992 1.344-1.468.666-.477 1.658-1.175 2.969-2.75 1.39-1.672 2.976-4.61 4.687-7.469 1.712-2.86 3.607-5.62 4.875-6.531 1.438-1.035 1.856-.909 2.656-.813.8.096 2.143.168 3.594-1 1.672-1.345 2.411-3.739 3.281-6.062.87-2.324 1.845-4.577 2.938-5.469 1.182-.964 2.675-1.191 4.281-1.344 1.606-.152 3.356-.143 4.625-1.375 1.172-1.136 1.148-2.578 1.125-3.5-.011-.46-.005-.817.063-1.062.067-.245.143-.422.468-.657.179-.128.56-.176 1.188-.093.628.082 1.422.307 2.281.531.86.224 1.777.423 2.719.438.942.014 1.982-.208 2.781-.938.772-.705 1.121-1.659 1.219-2.562.098-.904-.033-1.8-.156-2.688-.247-1.775-.502-3.465.062-4.844 1.323-3.235 4.512-7.513 7.563-9.281 1.373-.796 3.245-.808 5.187-.781 1.943.026 3.967.165 5.531-1.063 1.419-1.113 1.647-2.638 1.75-3.718.103-1.081.113-1.744.97-2.532.927-.853 2.714-1.822 4.593-2.468 1.88-.647 3.885-.975 5.25-.813 1.193.142 1.766.943 2.687 2.063.922 1.119 2.289 2.485 4.563 2.375 2.538-.124 4.554-2.284 6.531-4.344 1.978-2.06 3.988-4.123 5.281-4.563 1.546-.525 2.653-.33 3.875-.062s2.629.664 4.157.031c1.64-.68 2.426-2.254 3.156-3.438.365-.591.693-1.098 1-1.406.307-.308.52-.406.781-.406z" style="text-indent:0;text-align:start;line-height:normal;text-transform:none;block-progression:tb;marker:none;-inkscape-font-specification:Sans" font-weight="400" color="#000" stroke-width="2" overflow="visible" font-family="Sans"/><path d="M289.357 111.614a9 9 0 1 1-18 0 9 9 0 1 1 18 0z" fill="#fff"/><path d="M357.208 24.087a3.5 3.5 0 1 1-7 0 3.5 3.5 0 1 1 7 0zM332.89 25.623a3.5 3.5 0 1 1-7 0 3.5 3.5 0 1 1 7 0zM320.09 28.183a3.5 3.5 0 1 1-7 0 3.5 3.5 0 1 1 7 0zM314.97 35.35a3.5 3.5 0 1 1-7 0 3.5 3.5 0 1 1 7 0zM315.739 44.566a3.5 3.5 0 1 1-7 0 3.5 3.5 0 1 1 7 0zM309.85 49.941a3.5 3.5 0 1 1-7 0 3.5 3.5 0 1 1 7 0zM300.891 46.358a3.5 3.5 0 1 1-7 0 3.5 3.5 0 1 1 7 0z"/><path d="M303.195 53.013a3.5 3.5 0 1 1-7 0 3.5 3.5 0 1 1 7 0z"/><path d="M302.427 59.413a3.5 3.5 0 1 1-7 0 3.5 3.5 0 1 1 7 0zM287.068 64.277a3.5 3.5 0 1 1-7 0 3.5 3.5 0 1 1 7 0zM277.34 64.789a3.5 3.5 0 1 1-7 0 3.5 3.5 0 1 1 7 0zM282.46 72.98a3.5 3.5 0 1 1-7 0 3.5 3.5 0 1 1 7 0zM276.316 79.38a3.5 3.5 0 1 1-7 0 3.5 3.5 0 1 1 7 0z"/><path d="M282.204 82.964a3.5 3.5 0 1 1-7 0 3.5 3.5 0 1 1 7 0zM279.644 96.531a3.5 3.5 0 1 1-7 0 3.5 3.5 0 1 1 7 0zM259.933 84.5a3.5 3.5 0 1 1-7 0 3.5 3.5 0 1 1 7 0zM292.7 84.5a3.5 3.5 0 1 1-7 0 3.5 3.5 0 1 1 7 0zM289.884 77.076a3.5 3.5 0 1 1-7 0 3.5 3.5 0 1 1 7 0zM297.563 68.884a3.5 3.5 0 1 1-7 0 3.5 3.5 0 1 1 7 0zM308.059 64.789a3.5 3.5 0 1 1-7 0 3.5 3.5 0 1 1 7 0z"/><path d="M313.435 68.117a3.5 3.5 0 1 1-7 0 3.5 3.5 0 1 1 7 0zM316.25 59.925a3.5 3.5 0 1 1-7 0 3.5 3.5 0 1 1 7 0zM315.739 52.245a3.5 3.5 0 1 1-7 0 3.5 3.5 0 1 1 7 0z"/><path d="M322.65 54.55a3.5 3.5 0 1 1-7 0 3.5 3.5 0 1 1 7 0z"/><path d="M327.77 58.645a3.5 3.5 0 1 1-7 0 3.5 3.5 0 1 1 7 0zM331.098 43.798a3.5 3.5 0 1 1-7 0 3.5 3.5 0 1 1 7 0zM339.801 35.862a3.5 3.5 0 1 1-7 0 3.5 3.5 0 1 1 7 0zM339.29 55.317a3.5 3.5 0 1 1-7 0 3.5 3.5 0 1 1 7 0zM345.945 48.661a3.5 3.5 0 1 1-7 0 3.5 3.5 0 1 1 7 0z"/><path d="M346.201 57.621a3.5 3.5 0 1 1-7 0 3.5 3.5 0 1 1 7 0zM354.137 60.693a3.5 3.5 0 1 1-7 0 3.5 3.5 0 1 1 7 0zM357.976 51.477a3.5 3.5 0 1 1-7 0 3.5 3.5 0 1 1 7 0z"/><path d="M356.185 44.822a3.5 3.5 0 1 1-7 0 3.5 3.5 0 1 1 7 0zM362.072 39.702a3.5 3.5 0 1 1-7 0 3.5 3.5 0 1 1 7 0z"/><path d="M361.304 33.046a3.5 3.5 0 1 1-7 0 3.5 3.5 0 1 1 7 0zM353.625 68.117a3.5 3.5 0 1 1-7 0 3.5 3.5 0 1 1 7 0zM343.897 70.932a3.5 3.5 0 1 1-7 0 3.5 3.5 0 1 1 7 0zM353.369 78.612a3.5 3.5 0 1 1-7 0 3.5 3.5 0 1 1 7 0zM348.505 87.828a3.5 3.5 0 1 1-7 0 3.5 3.5 0 1 1 7 0zM339.801 86.548a3.5 3.5 0 1 1-7 0 3.5 3.5 0 1 1 7 0z"/><path d="M345.69 80.916a3.5 3.5 0 1 1-7 0 3.5 3.5 0 1 1 7 0zM333.914 73.748a3.5 3.5 0 1 1-7 0 3.5 3.5 0 1 1 7 0zM331.866 103.187a3.5 3.5 0 1 1-7 0 3.5 3.5 0 1 1 7 0zM324.186 107.795a3.5 3.5 0 1 1-7 0 3.5 3.5 0 1 1 7 0zM322.906 118.546a3.5 3.5 0 1 1-7 0 3.5 3.5 0 1 1 7 0zM300.891 109.33a3.5 3.5 0 1 1-7 0 3.5 3.5 0 1 1 7 0zM295.772 121.362a3.5 3.5 0 1 1-7 0 3.5 3.5 0 1 1 7 0zM291.164 143.889a3.5 3.5 0 1 1-7 0 3.5 3.5 0 1 1 7 0zM283.996 146.449a3.5 3.5 0 1 1-7 0 3.5 3.5 0 1 1 7 0zM269.405 146.193a3.5 3.5 0 1 1-7 0 3.5 3.5 0 1 1 7 0zM266.077 134.417a3.5 3.5 0 1 1-7 0 3.5 3.5 0 1 1 7 0zM270.173 159.248a3.5 3.5 0 1 1-7 0 3.5 3.5 0 1 1 7 0zM263.261 151.312a3.5 3.5 0 1 1-7 0 3.5 3.5 0 1 1 7 0zM258.653 162.832a3.5 3.5 0 1 1-7 0 3.5 3.5 0 1 1 7 0zM242.526 158.48a3.5 3.5 0 1 1-7 0 3.5 3.5 0 1 1 7 0zM247.134 150.032a3.5 3.5 0 1 1-7 0 3.5 3.5 0 1 1 7 0zM236.127 146.193a3.5 3.5 0 1 1-7 0 3.5 3.5 0 1 1 7 0zM224.095 167.952a3.5 3.5 0 1 1-7 0 3.5 3.5 0 1 1 7 0z"/><path d="M230.75 170a3.5 3.5 0 1 1-7 0 3.5 3.5 0 1 1 7 0zM236.639 177.935a3.5 3.5 0 1 1-7 0 3.5 3.5 0 1 1 7 0zM236.639 165.648a3.5 3.5 0 1 1-7 0 3.5 3.5 0 1 1 7 0zM251.23 176.911a3.5 3.5 0 1 1-7 0 3.5 3.5 0 1 1 7 0zM241.758 126.738a3.5 3.5 0 1 1-7 0 3.5 3.5 0 1 1 7 0zM221.791 120.594a3.5 3.5 0 1 1-7 0 3.5 3.5 0 1 1 7 0zM231.775 130.577a3.5 3.5 0 1 1-7 0 3.5 3.5 0 1 1 7 0zM235.359 112.914a3.5 3.5 0 1 1-7 0 3.5 3.5 0 1 1 7 0zM245.854 117.266a3.5 3.5 0 1 1-7 0 3.5 3.5 0 1 1 7 0zM249.438 109.842a3.5 3.5 0 1 1-7 0 3.5 3.5 0 1 1 7 0zM257.117 111.634a3.5 3.5 0 1 1-7 0 3.5 3.5 0 1 1 7 0zM239.71 103.443a3.5 3.5 0 1 1-7 0 3.5 3.5 0 1 1 7 0z"/><path d="M246.878 102.675a3.5 3.5 0 1 1-7 0 3.5 3.5 0 1 1 7 0zM206.944 147.473a3.5 3.5 0 1 1-7 0 3.5 3.5 0 1 1 7 0zM207.2 158.736a3.5 3.5 0 1 1-7 0 3.5 3.5 0 1 1 7 0zM190.817 158.992a3.5 3.5 0 1 1-7 0 3.5 3.5 0 1 1 7 0zM181.857 164.88a3.5 3.5 0 1 1-7 0 3.5 3.5 0 1 1 7 0zM189.025 169.232a3.5 3.5 0 1 1-7 0 3.5 3.5 0 1 1 7 0zM196.96 167.44a3.5 3.5 0 1 1-7 0 3.5 3.5 0 1 1 7 0z"/><path d="M193.377 175.12a3.5 3.5 0 1 1-7 0 3.5 3.5 0 1 1 7 0zM201.056 177.68a3.5 3.5 0 1 1-7 0 3.5 3.5 0 1 1 7 0zM205.152 169.487a3.5 3.5 0 1 1-7 0 3.5 3.5 0 1 1 7 0zM191.585 189.199a3.5 3.5 0 1 1-7 0 3.5 3.5 0 1 1 7 0zM207.456 190.734a3.5 3.5 0 1 1-7 0 3.5 3.5 0 1 1 7 0zM210.784 183.567a3.5 3.5 0 1 1-7 0 3.5 3.5 0 1 1 7 0zM218.975 187.15a3.5 3.5 0 1 1-7 0 3.5 3.5 0 1 1 7 0zM218.975 194.574a3.5 3.5 0 1 1-7 0 3.5 3.5 0 1 1 7 0zM224.351 200.718a3.5 3.5 0 1 1-7 0 3.5 3.5 0 1 1 7 0zM230.239 195.598a3.5 3.5 0 1 1-7 0 3.5 3.5 0 1 1 7 0zM206.432 204.558a3.5 3.5 0 1 1-7 0 3.5 3.5 0 1 1 7 0zM158.306 189.198a3.5 3.5 0 1 1-7 0 3.5 3.5 0 1 1 7 0zM145.507 185.359a3.5 3.5 0 1 1-7 0 3.5 3.5 0 1 1 7 0zM158.818 181.263a3.5 3.5 0 1 1-7 0 3.5 3.5 0 1 1 7 0zM160.098 172.303a3.5 3.5 0 1 1-7 0 3.5 3.5 0 1 1 7 0zM167.778 175.12a3.5 3.5 0 1 1-7 0 3.5 3.5 0 1 1 7 0zM172.13 182.287a3.5 3.5 0 1 1-7 0 3.5 3.5 0 1 1 7 0zM165.73 188.687a3.5 3.5 0 1 1-7 0 3.5 3.5 0 1 1 7 0zM169.826 198.414a3.5 3.5 0 1 1-7 0 3.5 3.5 0 1 1 7 0z"/><path d="M169.826 198.414a3.5 3.5 0 1 1-7 0 3.5 3.5 0 1 1 7 0zM179.041 209.166a3.5 3.5 0 1 1-7 0 3.5 3.5 0 1 1 7 0zM188.513 215.053a3.5 3.5 0 1 1-7 0 3.5 3.5 0 1 1 7 0zM188.513 222.989a3.5 3.5 0 1 1-7 0 3.5 3.5 0 1 1 7 0zM182.113 227.085a3.5 3.5 0 1 1-7 0 3.5 3.5 0 1 1 7 0zM181.345 219.405a3.5 3.5 0 1 1-7 0 3.5 3.5 0 1 1 7 0zM170.082 207.118a3.5 3.5 0 1 1-7 0 3.5 3.5 0 1 1 7 0zM152.419 213.005a3.5 3.5 0 1 1-7 0 3.5 3.5 0 1 1 7 0zM151.139 222.477a3.5 3.5 0 1 1-7 0 3.5 3.5 0 1 1 7 0zM158.818 219.661a3.5 3.5 0 1 1-7 0 3.5 3.5 0 1 1 7 0zM143.715 227.085a3.5 3.5 0 1 1-7 0 3.5 3.5 0 1 1 7 0zM153.443 230.156a3.5 3.5 0 1 1-7 0 3.5 3.5 0 1 1 7 0zM169.058 230.412a3.5 3.5 0 1 1-7 0 3.5 3.5 0 1 1 7 0zM174.946 237.58a3.5 3.5 0 1 1-7 0 3.5 3.5 0 1 1 7 0zM164.194 236.812a3.5 3.5 0 1 1-7 0 3.5 3.5 0 1 1 7 0zM158.05 245.772a3.5 3.5 0 1 1-7 0 3.5 3.5 0 1 1 7 0zM155.235 253.707a3.5 3.5 0 1 1-7 0 3.5 3.5 0 1 1 7 0zM142.18 250.635a3.5 3.5 0 1 1-7 0 3.5 3.5 0 1 1 7 0zM149.603 246.284a3.5 3.5 0 1 1-7 0 3.5 3.5 0 1 1 7 0zM143.203 241.932a3.5 3.5 0 1 1-7 0 3.5 3.5 0 1 1 7 0zM137.571 236.3a3.5 3.5 0 1 1-7 0 3.5 3.5 0 1 1 7 0zM132.452 247.82a3.5 3.5 0 1 1-7 0 3.5 3.5 0 1 1 7 0zM126.052 242.188a3.5 3.5 0 1 1-7 0 3.5 3.5 0 1 1 7 0zM122.212 250.891a3.5 3.5 0 1 1-7 0 3.5 3.5 0 1 1 7 0zM117.86 242.444a3.5 3.5 0 1 1-7 0 3.5 3.5 0 1 1 7 0zM105.317 235.276a3.5 3.5 0 1 1-7 0 3.5 3.5 0 1 1 7 0zM100.965 226.06a3.5 3.5 0 1 1-7 0 3.5 3.5 0 1 1 7 0zM111.717 220.94a3.5 3.5 0 1 1-7 0 3.5 3.5 0 1 1 7 0zM124.516 223.245a3.5 3.5 0 1 1-7 0 3.5 3.5 0 1 1 7 0z"/><path d="M130.916 226.829a3.5 3.5 0 1 1-7 0 3.5 3.5 0 1 1 7 0zM121.444 230.412a3.5 3.5 0 1 1-7 0 3.5 3.5 0 1 1 7 0zM138.595 217.613a3.5 3.5 0 1 1-7 0 3.5 3.5 0 1 1 7 0zM127.844 211.981a3.5 3.5 0 1 1-7 0 3.5 3.5 0 1 1 7 0zM140.9 200.462a3.5 3.5 0 1 1-7 0 3.5 3.5 0 1 1 7 0zM87.142 244.748a3.5 3.5 0 1 1-7 0 3.5 3.5 0 1 1 7 0zM95.334 250.891a3.5 3.5 0 1 1-7 0 3.5 3.5 0 1 1 7 0zM109.925 248.844a3.5 3.5 0 1 1-7 0 3.5 3.5 0 1 1 7 0zM109.157 257.803a3.5 3.5 0 1 1-7 0 3.5 3.5 0 1 1 7 0zM126.308 257.803a3.5 3.5 0 1 1-7 0 3.5 3.5 0 1 1 7 0zM122.98 267.019a3.5 3.5 0 1 1-7 0 3.5 3.5 0 1 1 7 0zM133.988 261.387a3.5 3.5 0 1 1-7 0 3.5 3.5 0 1 1 7 0z"/><path d="M137.315 268.043a3.5 3.5 0 1 1-7 0 3.5 3.5 0 1 1 7 0zM127.844 282.89a3.5 3.5 0 1 1-7 0 3.5 3.5 0 1 1 7 0zM115.557 278.026a3.5 3.5 0 1 1-7 0 3.5 3.5 0 1 1 7 0zM96.357 262.923a3.5 3.5 0 1 1-7 0 3.5 3.5 0 1 1 7 0z"/><path d="M91.75 268.299a3.5 3.5 0 1 1-7 0 3.5 3.5 0 1 1 7 0zM86.374 278.026a3.5 3.5 0 1 1-7 0 3.5 3.5 0 1 1 7 0zM95.078 281.61a3.5 3.5 0 1 1-7 0 3.5 3.5 0 1 1 7 0zM70.759 283.658a3.5 3.5 0 1 1-7 0 3.5 3.5 0 1 1 7 0zM78.95 281.61a3.5 3.5 0 1 1-7 0 3.5 3.5 0 1 1 7 0zM74.087 275.466a3.5 3.5 0 1 1-7 0 3.5 3.5 0 1 1 7 0zM79.974 268.043a3.5 3.5 0 1 1-7 0 3.5 3.5 0 1 1 7 0zM71.783 264.97a3.5 3.5 0 1 1-7 0 3.5 3.5 0 1 1 7 0zM76.39 258.06a3.5 3.5 0 1 1-7 0 3.5 3.5 0 1 1 7 0zM66.919 255.243a3.5 3.5 0 1 1-7 0 3.5 3.5 0 1 1 7 0zM60.52 265.995a3.5 3.5 0 1 1-7 0 3.5 3.5 0 1 1 7 0zM116.836 207.63a3.5 3.5 0 1 1-7 0 3.5 3.5 0 1 1 7 0z"/><path d="M83.302 288.01a3.5 3.5 0 1 1-7 0 3.5 3.5 0 1 1 7 0zM92.518 289.546a3.5 3.5 0 1 1-7 0 3.5 3.5 0 1 1 7 0z"/><path d="M88.422 294.921a3.5 3.5 0 1 1-7 0 3.5 3.5 0 1 1 7 0zM97.893 298.25a3.5 3.5 0 1 1-7 0 3.5 3.5 0 1 1 7 0zM98.661 305.929a3.5 3.5 0 1 1-7 0 3.5 3.5 0 1 1 7 0zM110.437 297.481a3.5 3.5 0 1 1-7 0 3.5 3.5 0 1 1 7 0zM106.853 286.474a3.5 3.5 0 1 1-7 0 3.5 3.5 0 1 1 7 0zM115.557 286.986a3.5 3.5 0 1 1-7 0 3.5 3.5 0 1 1 7 0z"/><path d="M117.86 293.897a3.5 3.5 0 1 1-7 0 3.5 3.5 0 1 1 7 0zM75.623 317.192a3.5 3.5 0 1 1-7 0 3.5 3.5 0 1 1 7 0zM83.302 311.304a3.5 3.5 0 1 1-7 0 3.5 3.5 0 1 1 7 0zM68.455 309.513a3.5 3.5 0 1 1-7 0 3.5 3.5 0 1 1 7 0zM67.43 322.312a3.5 3.5 0 1 1-7 0 3.5 3.5 0 1 1 7 0zM75.623 304.393a3.5 3.5 0 1 1-7 0 3.5 3.5 0 1 1 7 0zM67.943 299.273a3.5 3.5 0 1 1-7 0 3.5 3.5 0 1 1 7 0zM43.88 337.415a3.5 3.5 0 1 1-7 0 3.5 3.5 0 1 1 7 0zM33.897 334.087a3.5 3.5 0 1 1-7 0 3.5 3.5 0 1 1 7 0zM40.808 315.912a3.5 3.5 0 1 1-7 0 3.5 3.5 0 1 1 7 0z"/></svg>