<svg xmlns="http://www.w3.org/2000/svg" xmlns:dc="http://dublincore.org/documents/dcmi-terms/" height="322.14" width="393.941"><metadata><dc:description>Silhouette of Chthoniobacter flavus, processed by PhyloPic Tools (https://github.com/eweitz/phylopic-tools)</dc:description><dc:source>http://phylopic.org/image/6e0ed969-7e9e-4b01-b66c-255ca0380500</dc:source><dc:creator>Matt Crook</dc:creator><dc:license>http://creativecommons.org/licenses/by-sa/3.0/</dc:license></metadata><path d="M1.663 186.34c1.534 25.854 10.59 58.41 30.341 80.968 19.75 22.558 44.284 32.556 78.381 42.418 34.097 9.862 73.88 14.52 110.03 7.655 36.151-6.865 75.105-22.815 101.138-44.719 26.033-21.903 51.186-52.546 61.783-83.735 10.597-31.19 12.099-63.646 3.689-90.369-8.41-26.722-25.569-45.285-47.03-61.783-21.46-16.497-49.109-27.38-78.38-32.274-29.272-4.893-57.755-4.306-93.136 5.533-35.38 9.838-74.922 30.28-99.61 50.637-24.686 20.358-40.01 38.453-49.596 57.807C9.687 137.832.129 160.484 1.663 186.34z" fill="#fff" stroke="#000" stroke-width="3"/><path d="M228.48 14.998c-17.292-.146-35.301 2.171-56.374 8.032-33.23 9.24-72.005 29.382-94.657 48.062-23.777 19.608-37.564 36.152-46.093 53.375-9.307 18.79-17.53 38.975-16.22 61.063 1.389 23.388 10.173 53.65 27.032 72.906 17.403 19.877 38.548 28.646 71.969 38.312 32.495 9.4 70.481 13.693 103.75 7.375 34.131-6.48 71.538-22.067 94.969-41.78 24.568-20.672 48.317-50.172 57.687-77.75 9.804-28.858 10.927-58.67 3.594-81.97-7.37-23.416-22.036-39.52-42.375-55.156-19.297-14.834-44.952-25.072-72.375-29.656-10.39-1.737-20.534-2.725-30.906-2.813z" fill="#fff" stroke="#000" stroke-width="3"/><path d="M89.606 82.498c-2.28.079-4.529.363-6.688.75-11.515 2.066-13.644 14.516-19.344 24.5-5.7 9.984-1.338 23.1-13.531 34.157-5.615 5.091-17.097 5.645-28.812 5.906-4.233 11.963-6.879 24.501-6.094 37.719.148 2.505.4 5.108.719 7.75 14.698 2.3 30.881 2.013 40 .187 16.834-3.372 21.653-14.727 29.656-12.25 8.003 2.477 13.329 16.566 10.937 24.5-2.391 7.934-11.323 7.41-19.343 9-8.021 1.59-18.782-5.83-25.782-1.281s-13.065 9.58-11.593 26.437c.5 5.742 2.367 13.481 5.468 21.844 16.84 17.585 37.424 25.916 68.938 35.031 32.495 9.4 70.481 13.693 103.75 7.375 15.42-2.928 31.49-7.72 46.656-13.906.044-.031.08-.062.125-.094 12.977-9.268 28.924-22.324 38.688-34.156 9.763-11.831 12.619-16.016 5.156-24.469-7.463-8.452-27.7-5.842-48.344-7.75-20.643-1.907-53.143 3.027-75.406-5.156-22.263-8.182-37.49-24.835-49.625-45.75-12.135-20.915-12.1-55.067-19.344-72.844-5.885-14.443-16.31-17.84-26.188-17.5zM247.273 91.624c-13.605 2.114-29.657 11.112-35.449 20.625-5.792 9.513-8.213 14.489-1.289 25.78 6.925 11.292 33.235 24.023 48.984 21.914 15.749-2.108 27.563-14.868 32.226-26.425 4.662-11.557 4.477-23.632-3.868-32.87-8.344-9.238-27-11.137-40.604-9.024z" stroke="#000" stroke-width="3"/></svg>