<svg xmlns="http://www.w3.org/2000/svg" xmlns:dc="http://dublincore.org/documents/dcmi-terms/" height="548" version="1.2" viewBox="0 0 373 548" width="373" overflow="inherit"><metadata><dc:description>Silhouette of Ciconiiformes, processed by PhyloPic Tools (https://github.com/eweitz/phylopic-tools)</dc:description><dc:source>http://phylopic.org/image/18a828e0-861f-4dfb-9793-7effe17d1547</dc:source><dc:creator>Mike Keesey (vectorization) and Vaibhavcho (photography)</dc:creator><dc:license>http://creativecommons.org/licenses/by-sa/3.0/</dc:license></metadata><path d="M0 488c13.122-19.545 25.697-39.636 41-57v-7c6.249-11.988 12.208-24.807 20-36 4.029-5.787 7.66-8.983 8-15 6.001-2.666 8.189-9.144 11-15 8.818-5.849 14.647-14.686 19-25 3.988-1.679 6.958-4.375 9-8-5.428-3.781-12.482-8.932-19-9-4.406-.046-7.833 2.786-15 4-8.248 1.396-21.271 6.254-28 9-1.796.733-2.197 3.103-4 4-7.567 3.766-17.727 1.979-25 5-.681-1.985-3.045-2.288-4-4 19.667-15.667 41.462-29.204 63-43 4.624-12.535 14.604-11.319 28-10-1.306 4.306 2.068 3.932 4 5 5.693-12.015 20.863-17.099 29-29 7.515-10.991 12.237-29.404 17-45 10.626-34.793 10.861-75.129 30-102-2.961-13.62 3.252-23.329 6-33 7.596-26.735 7.97-59.245 25-77 5.642 26.196-7.862 49.069-14 70 5.029.363 2.052-7.281 8-6 1.664 3.184 1.71 4.185 1 8 9.489-7.933 15.112-20.379 22-31 6.774-10.446 13.384-21.537 25-27 2.885 16.217-10.535 28.554-19 40-7.617 10.3-14.765 19.483-21 28 17.703-10.964 30.055-35.945 59-39-14.566 15.101-33.913 25.42-47 42 17.55-6.604 35.721-26.083 60-26-12.812 12.188-33.265 16.736-44 31 18.594-2.742 36.075-15.256 61-15-13.712 6.431-30.808 18.531-46 17 .429 1.904 2.154 2.512 2 5 15.963-1.704 30.581-4.752 49-4-3.714 6.953-17.211 4.123-21 11 3.728 2.605 13.121-.454 17 2-.647 4.686-6.692 3.974-9 7-.483 3.15 3.069 2.264 2 6-1.778-.888-2.542-2.792-6-2-.178 4.129 3.378 2.971 4 4 .688 2.689-2.067 1.933-3 3 .24 2.76 2.949 3.051 5 4-5.13 5.52-.727 8.158 0 15-1.617 1.716-4.183 2.484-8 2 1.865 6.516.426 6.802 3 14-1.184 2.462-3.777-2.048-5 1 1.468 3.865 5.872 4.795 9 7-1.085 8.119 2.195 12.755-4 18-.541 3.541 3.541 2.459 3 6-.421 1.912-.362 4.304-3 4 4.928 9.733-3.349 20.502-8 27 .506 2.495 1.891 4.109 3 6-3.313 6.353-8.779 10.554-9 20-4.201 7.465-9.351 13.983-11 24-8.735 5.598-14.085 14.582-22 21 9.94 5.587 28.09-1.735 42 0 3.353 8.544 7.488 12.267 8 22-.169 2.169 3.547.453 5 1-1.108 13.656 7.692 29.699-5 39 20.021 18.154 49.621 26.805 71 41 1.136 6.697 2.47 9.422 4 17-10.735 3.1-17.527-10.789-30-6-1.02-1.313-.98-3.687-2-5-26.415-8.329-45.902-35.935-77-30-1.44.227-.349 2.984-2 3-14.159 3.07-21.268-15.295-32-22-1.072 1.802.268 7.875 1 11a1260.435 1260.435 0 0 0-11 25c-6.451.216-6.56 6.774-8 12-1.182 1.151-3.535 1.132-6 1-8.438 10.871-17.879 20.325-26 29-2.826.826-2.591-1.409-5-1-2.503 2.496-2.55 7.45-9 6-3.18 1.948.261 4.716-3 7-4.183-.484-7.412-1.922-11-3 5.216 5.085 11.718 12.717 4 20-3.458.792-4.222-1.111-6-2-2.368 2.966-2.168 8.498-5 11-5.638 3.695-4.495 14.172-13 15 3.261 8.116-2.07 13.094-5 18-4.745-.589-4.09-6.576-8-8 3.512 9.676 4.879 25.237-3 31-9.161-10.172-12.347-26.319-19-39-.844 15.991 13.417 43.152 0 57-11.818-17.183-12.712-45.287-20-67-3.403 17.77 10.892 59.751-7 72-9.475-20.191-5.526-53.808-10-79-2.086 23.1 5.974 64.504-9 78-7.753-12.732-4.901-39.754-4-58-6.163 15.17-4.988 37.679-20 44-3.514-10.416.459-30.711 4-43-6.818 8.516-5.432 25.234-20 26 1.743-28.923 14.748-46.586 24-68-12.152 8.536-14.064 41.241-35 41v-1zm281-122c10.356.393 18.168 10.863 31 12 5.408 3.457 14.191 12.399 21 8-12.572-4.855-39.514-33.71-52-20z" fill-rule="evenodd"/></svg>