<svg xmlns="http://www.w3.org/2000/svg" width="150" height="289"><path d="M83.408 262.152c-.362-2.264-1.088-3.85-1.614-3.525-.526.325-.693 1.64-.371 2.92.321 1.282.133 2.61-.42 2.95-.587.364-1.003-.646-1.003-2.438 0-1.682-.45-3.059-1-3.059s-1 .873-1 1.941-.45 2.22-1 2.559c-.583.36-1-.656-1-2.441 0-1.682-.45-3.059-1-3.059s-1.007 1.012-1.015 2.25c-.009 1.238-.477 2.925-1.042 3.75-.772 1.13-.961.586-.764-2.196.331-4.679-.772-5.932-1.66-1.887-.37 1.683-1.154 3.357-1.742 3.72-.977.604-.906-.136.55-5.768.095-.368-.27-.827-.814-1.019-.542-.193-1.631.996-2.42 2.64-.788 1.645-1.61 2.458-1.828 1.806-.217-.652.126-2.158.763-3.348.766-1.432.822-2.498.164-3.156-.658-.658-1.219-.284-1.66 1.107-.367 1.156-1.086 2.101-1.6 2.101-1.207 0-1.176-.676.149-3.151 1.351-2.526.472-3.553-1.581-1.849-2.01 1.668-3.168.51-1.5-1.5 1.838-2.215.366-3.142-1.832-1.152-1.727 1.563-1.956 1.544-3.637-.314-1.7-1.879-1.705-2.12-.083-4.595 2.058-3.14 1.287-4.414-1.27-2.1-2.871 2.598-3.794 1.946-1.182-.835 2.766-2.945 1.927-4.649-.99-2.01-2.695 2.44-2.566.73.165-2.176 2.928-3.116 1.469-4.268-1.671-1.318-3.383 3.178-4.156 2-.955-1.455 2.932-3.162 2.496-4.797-.545-2.045-1.107 1.002-2.305 1.528-2.663 1.17-.358-.357.545-1.758 2.006-3.112 4.362-4.043 2.923-4.585-1.739-.656-1.788 1.508-1.833 1.48-.804-.484.6-1.145 1.79-2.663 2.645-3.373 2.513-2.085 1.78-3.422-.91-1.66-2.83 1.854-3.535 1.99-3.535.682 0-.513.9-1.218 2-1.567 1.1-.35 2-1.07 2-1.603 0-.6-.734-.575-1.934.068-3.552 1.9-4.612 1.03-1.316-1.08 3.97-2.543 4.09-3.1.5-2.34-2.292.484-2.459.396-1-.532 2.505-1.592 2.174-3.265-.5-2.529-2.179.6-2.19.57-.323-.922 1.06-.848 1.633-1.835 1.274-2.194-.359-.36-1.339-.084-2.177.612-.84.697-1.524.816-1.524.265 0-.55.675-1.56 1.5-2.245 2.49-2.066 1.683-3.35-1-1.592-1.375.901-2.5 1.192-2.5.647 0-.545 1.19-1.614 2.643-2.376 1.557-.816 2.201-1.657 1.569-2.048-.59-.365-1.356-.206-1.702.353-.345.559-1.302 1.016-2.125 1.016-.968 0-.508-.85 1.303-2.408l2.8-2.408-2.977.57c-2.645.505-2.81.401-1.476-.932.826-.825 2.168-1.793 2.983-2.15.815-.356-.093-.407-2.018-.111l-3.5.536 2.75-1.78c1.512-.98 2.75-2.377 2.75-3.105 0-1.031-.494-.98-2.223.231-3.876 2.715-4.418 1.6-.777-1.601l3.5-3.077-2.834.658c-1.852.43-2.611.297-2.19-.383.353-.572 1.242-1.04 1.976-1.04s1.597-.685 1.919-1.523c.471-1.23.215-1.326-1.328-.5-3.371 1.804-3.632 1.087-.543-1.494l3-2.507-3 .58c-2.856.552-2.907.505-1.059-.988 1.068-.862 2.53-1.568 3.25-1.568.72 0 1.309-.498 1.309-1.107s-.675-.834-1.5-.5l-3 1.214c-.825.334-1.5.085-1.5-.552s1.35-1.63 3-2.205c4.163-1.451 3.804-3.091-.5-2.284-4.355.817-4.629-.216-.35-1.325 4.188-1.085 5.785-4.928 2.582-6.216-2.08-.837-2.096-.908-.232-1.04 1.1-.079 1.463-.361.806-.629-1.291-.525-.616-3.344 1.121-4.682.74-.57.67-.989-.23-1.351-.98-.395-.855-.887.5-1.982 1.65-1.333 1.514-1.422-1.601-1.05-3.062.367-3.22.272-1.56-.942 1.016-.742 2.435-1.349 3.155-1.349.72 0 1.309-.501 1.309-1.113 0-.681-1.227-.934-3.154-.651-2.85.418-2.976.332-1.31-.887 1.016-.742 2.435-1.349 3.155-1.349.72 0 1.309-.48 1.309-1.067 0-.598-.991-.834-2.25-.538-1.523.358-1.36.156.5-.626 3.784-1.59 3.461-3.068-.5-2.288-2.417.476-2.866.373-1.75-.405.825-.575 2.288-1.052 3.25-1.06 3.353-.03 1.926-3.01-1.5-3.134l-3.25-.119 3-.763 3-.763-2.917-.119c-3.547-.144-2.84-1.076 1.616-2.132l3.301-.781-3.309-.103c-3.786-.117-3.438-2.102.368-2.102 1.343 0 2.441-.48 2.441-1.067 0-.597-.845-.8-1.916-.46-1.054.335-2.205.14-2.559-.432-.392-.635.552-1.041 2.416-1.041 2.052 0 3.059-.494 3.059-1.5 0-1.023-1.035-1.505-3.25-1.515-2.466-.012-2.888-.25-1.75-.985.825-.533 2.737-.976 4.25-.985 3.999-.022 3.367-1.66-1-2.594l-3.75-.8 3.783-.56c4.613-.684 5.318-2.409 1.217-2.976l-3-.414 2.943-.586c2.631-.523 3.94-2.585 1.64-2.585-.504 0-1.254-.338-1.666-.75-.413-.412.45-.75 1.916-.75 3.535 0 3.456-1.978-.083-2.076-2.663-.074-2.64-.119.75-1.424 1.925-.741 2.713-1.382 1.75-1.424-.962-.042-1.75-.512-1.75-1.045 0-.532.603-.737 1.34-.454 1.6.614 3.847-1.811 3.445-3.718-.157-.744-.96-1.902-1.785-2.574-1.26-1.026-1.027-1.226 1.45-1.253 3.145-.034 2.554-1.476-.95-2.319-1.542-.37-1.383-.508.691-.597 3.358-.145 4.765-2.077 1.618-2.222-2.18-.1-2.156-.167.441-1.193 1.513-.598 2.75-1.42 2.75-1.828 0-.407-1.237-.928-2.75-1.157-2.56-.387-2.525-.427.5-.566C58.215 92.99 59.372 91 56 91c-3.385 0-2.208-1.993 1.25-2.116 2.104-.075 2.545-.286 1.25-.597-3.523-.848-4.175-2.372-.719-1.68 2.1.42 3.219.252 3.219-.482 0-.619-.563-1.154-1.25-1.188-.688-.035-.125-.535 1.25-1.111l2.5-1.048-3.5-1.313-3.5-1.313 4-.236c3.777-.223 3.819-.259.75-.64-4.224-.524-4.246-2.362-.024-2.03 1.774.14 3.252-.196 3.285-.746.033-.55.596-1.964 1.252-3.143 1.021-1.834.872-2.377-1.035-3.774-2.193-1.605-2.174-1.62 1.147-1 2.344.438 3.166.293 2.691-.476C68.19 67.498 67.26 67 66.5 67c-.76 0-1.699-.512-2.086-1.138-.505-.818.352-.941 3.04-.437 2.547.478 3.533.363 3.085-.361-.361-.585-1.53-1.064-2.598-1.064-1.068 0-1.941-.439-1.941-.975 0-.55 1.308-.713 3-.375 3.842.768 4.064-1.322.25-2.36-2.639-.72-2.589-.773 1.25-1.34 3.894-.575 3.934-.62 1.5-1.707-2.445-1.091-2.422-1.118 1-1.215l3.5-.099-2.5-1.516c-2.471-1.499-2.457-1.51 1.25-.92 4.596.732 5.001-.932.5-2.052l-3.25-.808 3.75-.377c3.856-.387 4.9-1.6 2.25-2.618-.825-.316-1.5-1.03-1.5-1.585 0-.645.905-.598 2.504.13 3.29 1.5 4.633.027 1.746-1.914-2.753-1.851-3.013-3.748-.316-2.304 2.473 1.323 5.237 1.429 3.17.121-1.118-.709-1.02-.97.5-1.325 1.55-.36 1.395-.581-.854-1.21C82.237 39.13 81 38.148 81 37.37c0-1.156.464-1.111 2.531.243 1.392.913 2.842 1.348 3.221.97.38-.38.041-1.092-.752-1.582s-1.128-1.205-.745-1.588c.383-.383 1.383-.128 2.22.568C88.72 37.012 89 36.983 89 35.822c0-.782-.54-1.962-1.2-2.622-1.474-1.474-.335-1.557 2.266-.165 2.464 1.32 2.651-.534.192-1.91-.958-.536-1.41-1.306-1.006-1.71.405-.405 1.561.011 2.57.924 2.292 2.074 3.178 2.102 3.178.102 0-.885.478-1.263 1.107-.875.762.471.873-.054.356-1.683-.675-2.126-.581-2.226.917-.983 2.394 1.987 3.283.49 1.126-1.894-.999-1.103-1.322-2.006-.718-2.006.604 0 1.789.985 2.632 2.19.844 1.204 1.833 1.89 2.2 1.524.366-.366.087-1.362-.62-2.214-.707-.852-.962-1.871-.568-2.266.395-.394 1.157.066 1.693 1.024 1.376 2.46 3.23 2.272 1.91-.192-1.266-2.366-1.3-3.066-.152-3.066.486 0 1.12.9 1.407 2 .287 1.1 1.03 2 1.652 2 .834 0 .837-.544.012-2.086-1.495-2.794-.443-3.67 1.217-1.011 1.717 2.748 2.768 2.673 2.149-.153-.397-1.808-.283-1.955.578-.75.86 1.205 1.088.91 1.157-1.5.074-2.585.204-2.723.945-1 .735 1.71.87 1.746.93.25.038-.963.547-1.75 1.129-1.75s.827.376.543.836c-.285.46-.125 2.147.355 3.75.855 2.86.875 2.84 1.089-1.086l.217-4L119 19c.645 3.065.753 3.165.868.809.073-1.48.652-3.012 1.288-3.405.832-.515.974.24.508 2.69l-.649 3.406 1.97-2.5c2.137-2.71 2.591-1.645 1.04 2.435-1.284 3.378.309 3.323 1.852-.064 1.585-3.48 2.327-2.569 1.176 1.445-.878 3.06.153 4.514 1.37 1.934.324-.688.354.1.068 1.75-.494 2.838-.44 2.895.994 1.059.833-1.068 1.515-2.305 1.515-2.75 0-.445.456-.809 1.013-.809.6 0 .416 1.431-.449 3.5-.804 1.925-1.065 3.5-.58 3.5s1.167-.9 1.516-2c.35-1.1 1.054-2 1.567-2 1.278 0 1.183.616-.64 4.143-.866 1.673-1.316 3.301-1 3.617.315.315.573.134.573-.402 0-.537.616-1.818 1.368-2.847 1.211-1.656 1.346-1.22 1.171 3.79-.173 4.946-.006 5.505 1.319 4.43 1.289-1.046 1.396-.93.716.769-.44 1.1-1.014 2.9-1.274 4-.38 1.607-.27 1.71.559.529.568-.81 1.346-1.157 1.73-.774.382.383.127 1.383-.569 2.22-.697.84-.816 1.525-.265 1.525.55 0 1.56-.675 2.245-1.5s1.752-1.493 2.372-1.485c.62.009.454.442-.37.963-1.075.679-1.506 2.782-1.526 7.436-.026 6.263.038 6.43 1.832 4.807 1.788-1.618 1.812-1.578.615 1.048-.684 1.502-1.622 2.731-2.084 2.731-.461 0-.839.54-.839 1.2 0 .933.267.933 1.2 0 .66-.66 1.854-1.2 2.653-1.2.985 0 .708.646-.86 2.006-1.273 1.104-1.98 2.34-1.572 2.749.409.408 1.38-.13 2.16-1.198.78-1.066 1.419-1.429 1.419-.805s-.985 1.825-2.19 2.668c-1.204.844-1.89 1.833-1.524 2.2.366.366 1.358.09 2.204-.612 1.313-1.09 1.49-.956 1.205.906-.183 1.2-1.071 3.045-1.974 4.1-1.087 1.269-1.281 2.14-.575 2.576.713.441.617.945-.29 1.52-1.08.685-1.09.862-.047.875.733.008.995.523.596 1.17-.446.72-.274.882.457.43.644-.398.915-1.137.602-1.643-.312-.505.168-.637 1.068-.291 1.192.457 1.307.83.424 1.376-.667.412-.96 1.159-.65 1.659.31.5.1 1.563-.466 2.362-.83 1.171-.916 1.104-.446-.35.32-.991.193-1.56-.285-1.266-.477.295-1.114 1.48-1.415 2.631-.43 1.643-.191 1.958 1.105 1.46 1.104-.423.831.263-.822 2.066l-2.477 2.7 3.285-.627 3.285-.626-2.785 2.538c-2.699 2.46-2.712 2.518-.41 1.875 1.614-.45 2.156-.308 1.691.444-.376.609-1.332 1.107-2.125 1.107-.793 0-1.441.498-1.441 1.107s.675.848 1.5.531c2.027-.777 1.895.316-.25 2.083-1.667 1.374-1.667 1.416 0 .892 2.13-.67 2.362 1.215.25 2.025-.825.317-1.5.964-1.5 1.438s.675.602 1.5.286c2.05-.787 1.893.62-.25 2.246-1.641 1.246-1.626 1.332.25 1.392 1.974.063 1.974.083.059 1.532-1.878 1.42-1.862 1.47.5 1.503l2.441.036-2.468 1.366-2.468 1.367 2.468.47 2.468.472-2.25.744c-1.237.409-2.25 1.127-2.25 1.595 0 .469.675.593 1.5.277.825-.317 1.5-.11 1.5.461 0 .571-1.012 1.233-2.25 1.471-1.826.352-1.684.475.75.651l3 .217-3 1.374-3 1.374 2.809.045c1.61.026 2.545.472 2.191 1.045-.34.55-1.491 1-2.559 1s-1.941.499-1.941 1.108c0 .683.96.868 2.5.481 3.527-.885 3.106.14-.75 1.827l-3.25 1.42 2.75.082c3.32.099 3.615 1.59.5 2.524-2.178.653-2.186.7-.25 1.468 1.888.75 1.86.839-.5 1.59-2.357.75-2.385.84-.5 1.578 1.693.661 1.731.792.25.852-2.567.103-2.14 2.07.45 2.07 2.536 0 1.389 1.544-1.7 2.287-1.483.357-1.273.511.809.597 3.111.128 2.766 2.116-.368 2.116-1.068 0-1.941.45-1.941 1s.975 1 2.167 1c2.471 0 1.934.976-.825 1.499-3 .567-2.986.701.158 1.501l3 .763-3.5.182c-3.226.168-3.317.255-1.166 1.117 2.78 1.114 2.393 3.308-.662 3.758-1.195.175-2.172.764-2.172 1.309 0 .544.45.71 1 .371.55-.34 1-.141 1 .441s-.562 1.09-1.25 1.13c-.687.038-.35.44.75.892 1.836.755 1.857.88.25 1.537-1.97.803-2.41 2.636-.54 2.25 2.043-.422 1.712 4.14-.348 4.794-2.354.747-2.43 2.443-.112 2.496 1.202.028.811.567-1.25 1.725l-3 1.685 2.492.376 2.491.376-2.991 1.318c-2.726 1.2-2.786 1.325-.683 1.399 1.295.045 2.033.527 1.68 1.097-.345.56-1.015.777-1.489.484-.474-.293-1.144-.075-1.49.484-.345.559.186 1.052 1.181 1.095 1.12.049 1.316.277.517.597-.934.375-.996.875-.223 1.806.813.98.454 1.442-1.499 1.932-1.412.355-2.31 1.062-1.995 1.572.315.51 1.234.673 2.041.363.807-.31 1.468-.065 1.468.544s-.562 1.114-1.25 1.122c-.905.011-.87.256.128.888 1.852 1.173.531 3.082-2.187 3.16-2.08.06-2.064.118.309 1.136l2.5 1.072-2.5.765c-1.375.42-1.825.846-1 .946.827.1.153.797-1.5 1.554-2.338 1.07-2.558 1.387-1 1.434 1.517.046 1.67.27.637.924-1.151.73-1.151.949 0 1.409 1.118.447 1.093.736-.137 1.606-1.333.942-1.333 1.07 0 1.146 1.01.058.847.366-.5.945-1.71.735-1.746.87-.25.93 2.438.098 2.19 1.796-.382 2.612-1.675.532-1.836.864-.75 1.552 1.064.674.922.895-.618.961-2 .086-2 .086 0 .908 1.896.78 1.905.861.166 1.569-1.44.586-1.548.928-.5 1.592.904.573.367.863-1.666.9l-3 .056 2.75 1.492c3.324 1.803 3.6 2.829.5 1.858l-3.75-1.173c-.825-.257-.15.477 1.5 1.631 2.363 1.653 2.602 2.1 1.128 2.105-1.551.005-1.66.265-.628 1.507 1.52 1.832-.014 2.039-3.316.447-1.695-.817-1.568-.528.566 1.288 3.418 2.909 3.616 4.563.285 2.38-3.775-2.473-4.396-1.853-1.035 1.035 2.083 1.79 2.389 2.355 1 1.85-6.352-2.31-6.295-1.87.417 3.186.229.173.145.585-.186.916-.33.331-1.63-.119-2.889-1-3.572-2.502-4.621-1.88-1.582.938 1.507 1.398 2.74 2.706 2.74 2.907 0 .692-4.032-.69-4.575-1.568-.298-.483-1.045-.879-1.658-.879-.614 0-.025 1.197 1.309 2.66 1.817 1.994 1.986 2.495.674 2l-3.5-1.32c-1.384-.522-1.28-.143.5 1.814 3.153 3.468 2.944 5.846-.25 2.846-3.068-2.883-3.333-1.515-.326 1.686 2.715 2.89 1.011 3.067-2.052.213-1.24-1.155-2.549-1.805-2.91-1.445-.36.36-.217.968.317 1.35 1.448 1.038 3.61 5.196 2.7 5.196-.433 0-1.436-.9-2.229-2-2.194-3.044-3.25-2.386-1.526.95 2.207 4.267 1.873 5.761-.588 2.632-2.599-3.304-3.784-2.602-1.498.887.912 1.392 1.208 2.531.658 2.531-.55 0-1.734-1.121-2.632-2.491-1.902-2.902-3.947-2.373-2.352.607 1.772 3.31.401 4.617-1.451 1.384l-1.72-3 .495 3.772c.528 4.022-.816 4.23-2.42.376-.63-1.516-.737-.823-.365 2.352l.526 4.5-2.01-4-2.009-4 .527 4.5c.392 3.349.254 4.116-.539 3-.586-.825-1.072-2.513-1.08-3.75-.01-1.238-.48-2.25-1.047-2.25-.568 0-.927 1.56-.798 3.465.337 5.015-.988 5.532-1.763.687zm-2.139-11.808c-.677-.274-2.027-.29-3-.037-.973.254-.419.478 1.231.498 1.65.02 2.446-.187 1.769-.461zm-24.887-1.896c.341-.89.173-1.291-.393-.94-.544.335-.989 1.033-.989 1.551 0 1.438.717 1.121 1.382-.61zm23.473-1.592c-2.463-1.895-5.382-2.518-4.408-.941.311.503.225 1.104-.19 1.336-.417.232-.266.312.334.178.6-.134 1.63.09 2.289.497.66.407 1.903.74 2.764.74 1.13 0 .91-.503-.79-1.81zM93.957 243c.445 0 1.059-.952 1.363-2.114l.553-2.115-2.251 2.115c-1.238 1.162-2.784 2.114-3.436 2.114-1.854 0-1.39 1.812.564 2.205.963.194 1.895-.223 2.073-.926.178-.704.688-1.279 1.134-1.279zm-20.163.342c-.301-1.7 4.647-3.805 6.398-2.723 1.585.98 6.808 1.298 6.808.415 0-.479.301-1.656.67-2.616.483-1.258.313-1.525-.607-.957-1.708 1.056-.422-5.374 1.472-7.36 1.14-1.194 1.817-1.196 4.65-.011 1.823.763 3.765 1.402 4.315 1.42 1.246.043.704 3.509-.845 5.4-.993 1.213-.84 1.215 1.085.016 1.232-.767 2.132-2.077 2-2.91-.132-.834.23-1.435.802-1.335.574.1 1.112-.742 1.197-1.869.142-1.878.05-1.906-1.095-.34-1.498 2.05-2.972.687-4.025-3.722-.507-2.12-.294-2.75.93-2.75 1.083 0 1.401.581 1.004 1.833-.39 1.227-.081 1.834.933 1.834.832 0 1.514-.402 1.514-.893 0-.49.445-.617.989-.281.566.35.734-.051.393-.941-.376-.978-.04-1.552.904-1.552 1.865 0 3.12-2.57 3.173-6.5.03-2.202.474-2.93 1.67-2.734.917.15 1.851-.583 2.137-1.675.357-1.366.096-1.784-.88-1.41-1.953.75-1.764-2.196.56-8.72 1.287-3.615 2.47-5.414 3.5-5.322 1.079.096 1.554-.744 1.554-2.75 0-2.38.421-2.889 2.393-2.889 1.359 0 2.681-.756 3.06-1.75.533-1.403.416-1.502-.594-.5-1.88 1.867-5.215 1.619-4.466-.332.334-.87.607-2.172.607-2.893 0-.721.652-1.561 1.45-1.867.968-.372 1.264-.076.892.893-.306.797-.058 1.449.551 1.449.609 0 1.107-.702 1.107-1.559s.385-1.321.856-1.03c.47.29.65-.55.397-1.866-.252-1.318.083-4.034.744-6.037s.915-3.93.563-4.281c-.352-.352-.898.348-1.213 1.555-.887 3.39-2.01 1.772-1.544-2.221.254-2.175.957-3.561 1.806-3.561.765 0 1.398.562 1.406 1.25.01.833.339.75.985-.25 1.387-2.146 1.229-2.797-.642-2.639-.904.076-1.841-.424-2.084-1.111-.242-.688.302-1.25 1.21-1.25 1.228 0 1.478-.544.976-2.125-.45-1.418-.31-1.9.42-1.449.765.473.908-.696.472-3.874-.521-3.802-.354-4.552 1.012-4.552.9 0 1.672-.787 1.715-1.75.048-1.056.28-1.252.585-.494.279.691.948.984 1.487.65.587-.362.375-1.272-.531-2.274-.831-.918-1.38-2.56-1.22-3.65.161-1.09-.394-2.485-1.234-3.1-1.326-.972-1.24-1.272.654-2.286 2.532-1.355 2.882-3.096.621-3.096-.857 0-1.276-.457-.93-1.016.345-.56 1.046-.758 1.558-.441 1.422.878 1.11-.925-.537-3.102-1.758-2.324-1.971-3.83-.406-2.863.823.508.84.187.064-1.19-.86-1.527-.562-2.414 1.56-4.638 1.443-1.513 2.09-2.75 1.437-2.75-.653 0-1.187.54-1.187 1.2 0 .909-.28.92-1.158.042-.79-.79-.837-1.567-.148-2.45.555-.71 1.052-4.46 1.103-8.332.051-3.872.552-8.247 1.112-9.72.829-2.18.7-2.87-.695-3.692-1.378-.813-1.452-1.184-.379-1.891.735-.485 1.274-1.28 1.198-1.769-.076-.488.56-1.033 1.414-1.211 1.029-.214 1.592.46 1.669 2 .092 1.832.216 1.935.59.484.265-1.024-.432-2.805-1.57-4.016-1.446-1.54-1.77-2.61-1.105-3.66 1.355-2.144 1.22-5.259-.19-4.387-.864.534-.987-1.713-.485-8.86.603-8.574.459-9.938-1.377-13.05-1.844-3.124-1.895-3.629-.515-5.01.845-.844 1.536-1.792 1.536-2.107 0-1.084-2.834-.568-3.22.587-.211.636-1-1.501-1.75-4.75-.751-3.25-1.836-6.52-2.41-7.266-.771-1.003-.532-1.748.918-2.848 1.834-1.391 1.75-1.444-1.288-.812-2.077.433-3.25.287-3.25-.403 0-.593.675-1.079 1.5-1.079s1.5-.45 1.5-1-.675-1-1.5-1-1.5.43-1.5.955c0 1.494-6.086 2.235-10.5 1.28-3.598-.78-4.226-.61-6.249 1.699-1.237 1.411-2.25 3.354-2.25 4.316 0 1.063-.76 1.75-1.934 1.75-1.063 0-2.218.9-2.567 2-.35 1.1-1.085 2-1.635 2-.568 0-.705.929-.317 2.151.543 1.71.352 2.025-.933 1.532-.888-.341-1.615-.158-1.615.407 0 .566-.45.75-1 .41s-1 .046-1 .858c0 .811.563 1.702 1.25 1.98.79.318.645.533-.393.583-1.716.083-3.225 2.675-2.366 4.064.274.443-.14 1.05-.92 1.349-.864.332-1.206 1.346-.877 2.605.377 1.441.063 2.061-1.046 2.061-.998 0-1.372.555-1.01 1.5.408 1.062-.113 1.523-1.781 1.579-1.296.043-1.795.306-1.107.583 1.984.8 1.452 3.139-.882 3.88-1.596.506-1.8.881-.814 1.491 1.064.658 1.075 1.107.054 2.337-.956 1.152-1.912 1.296-3.935.593l-2.673-.928 2.25 1.604c2.841 2.026 2.847 3.204.023 4.25-3.24 1.198-3.083 5.447.227 6.117 3.549.72 4.022 4.7.658 5.544-1.36.34-3.325.163-4.369-.395-2.185-1.17-5.588.308-3.674 1.595 1.603 1.078 2.757 5.25 1.452 5.25-.587 0-1.067-.675-1.067-1.5s-.73-1.5-1.622-1.5c-1.308 0-1.388.283-.414 1.456 1.385 1.67.45 3.918-1.203 2.896-.704-.435-.875-.092-.475.952.345.898.17 1.915-.39 2.26-.611.378-.334 1.126.696 1.88 1.268.927 1.396 1.445.493 2.003-.67.415-1.49.482-1.82.15-.693-.691-4.265 2.288-4.265 3.558 0 .465.938.845 2.083.845 1.225 0 1.91.515 1.663 1.25-.232.688-1.37 1.264-2.53 1.28-1.16.017-2.433.354-2.83.75-.395.396.004.72.888.72.885 0 1.93.52 2.321 1.155.44.71.275.883-.425.45-.814-.503-.94.24-.44 2.595 1.336 6.287.945 9.275-1.255 9.59-1.657.237-2.035 1.056-2.078 4.5-.089 7.199-1.373 20.045-2.369 23.71-.844 3.108-.905 2.884-.544-2 .304-4.115.198-4.745-.42-2.5-.455 1.65-.88 6.29-.946 10.309-.065 4.02-.516 7.063-1.003 6.762-1.023-.632-.798 9.155.337 14.679.697 3.393.57 3.75-1.34 3.75-1.797 0-2.092.56-1.98 3.75l.131 3.75L49 196c.405-1.925.796-2.712.868-1.75.073.963.568 1.75 1.1 1.75.533 0 .738-.603.455-1.34-.283-.737.176-1.912 1.02-2.612 1.268-1.053 1.647-.977 2.19.44.379.986.093 2.064-.673 2.537-.967.597-1.038 1.186-.261 2.149.588.73 1.383 2.788 1.765 4.576.526 2.461.352 3.25-.718 3.25-2.16 0-2.853-1.166-1.595-2.682.624-.752.845-1.655.492-2.009-.354-.353-.643-.062-.643.647 0 1.042-.302 1.038-1.58-.023-1.412-1.172-1.507-.89-.88 2.627.85 4.77 2.02 6.28 3.623 4.677.884-.884 1.49-.53 2.53 1.472 1.099 2.118 1.118 2.79.095 3.422-1.012.626-1.018 1.039-.03 2.027 1.626 1.626 1.568 2.503-.207 3.184-.92.353-1.265.075-.944-.762.293-.763-.397-1.553-1.64-1.878-1.706-.447-2.004-1.037-1.453-2.882.666-2.231.636-2.246-.789-.377-1.237 1.624-1.26 2.164-.142 3.283.736.736 1.632 2.904 1.991 4.817.735 3.917 2.426 5.67 2.426 2.516 0-2.406 2.21-2.715 4-.559.685.825.802 1.5.261 1.5s-.778 1.075-.527 2.388c.25 1.313-.092 3.45-.761 4.75-.992 1.924-.979 2.136.071 1.146 1.023-.966 1.773-.694 3.639 1.319 1.292 1.394 2.09 2.954 1.774 3.466-.316.512-.098.931.484.931S66 237.295 66 236.434c0-1.12.786-1.476 2.75-1.25 2.388.274 2.766.777 2.872 3.816.191 5.493.311 6 1.422 6 .574 0 .911-.746.75-1.658zM80 238.5c0-.825.45-1.5 1-1.5s1 .675 1 1.5-.45 1.5-1 1.5-1-.675-1-1.5zm-1.985-5.25c-.008-1.238.435-2.25.985-2.25 1.253 0 1.253 1.061 0 3-.784 1.213-.972 1.07-.985-.75zM63 232.559c0-.857.45-1.559 1-1.559s1 .423 1 .941-.45 1.22-1 1.559c-.55.34-1-.084-1-.941zm8.676-2.961c-.625-1.63.215-2.784 1.463-2.012 1.136.702 1.11 3.414-.032 3.414-.491 0-1.135-.631-1.431-1.402zm-7.133-.529c-.683-1.105.894-2.299 1.818-1.375.95.95.773 2.306-.302 2.306-.518 0-1.2-.419-1.516-.93zM81.5 229c-.4-.646-.276-1.624.274-2.174.667-.667 1.242-.609 1.726.174.4.646.276 1.624-.274 2.174-.667.667-1.242.609-1.726-.174zM61 228c0-.55.45-1 1-1s1 .45 1 1-.45 1-1 1-1-.45-1-1zm32.5 0c.34-.55.816-1 1.059-1s.441.45.441 1-.477 1-1.059 1-.78-.45-.441-1zm-28.479-3.96c-.612-1.145-.839-2.525-.503-3.068.335-.543-.094-1.691-.954-2.551-2.986-2.986-1.245-7.673 2.487-6.697 1.036.27 2.18 1.43 2.545 2.578.364 1.148 1.607 2.852 2.763 3.788 1.771 1.434 1.944 2.148 1.102 4.555-1.287 3.681-5.767 4.52-7.44 1.394zm4-2.564c.695-.838.986-1.803.646-2.143-.727-.726-3.667 1.51-3.667 2.79 0 1.377 1.63 1.028 3.02-.647zm-2.7-6.765c-.306-.495-.987-.445-1.547.115-.55.55-.668 1.537-.262 2.194.56.907.932.879 1.547-.115.445-.72.563-1.708.262-2.194zM86.5 222c-.73-1.18.217-3 1.559-3 .518 0 .941.9.941 2 0 2.11-1.455 2.691-2.5 1zm4.5-1.617c0-2.261.344-2.55 2.535-2.131 1.789.341 2.83-.066 3.536-1.384 2.079-3.885 6.929-1.553 6.929 3.332 0 2.434-.386 2.8-2.95 2.8-1.672 0-3.34-.697-3.851-1.61-.828-1.479-.951-1.479-1.519 0-.34.886-1.531 1.61-2.649 1.61-1.524 0-2.031-.653-2.031-2.617zm10.447-1.468a1.117 1.117 0 0 0-1.532-.362 1.117 1.117 0 0 0-.362 1.532 1.117 1.117 0 0 0 1.532.362 1.117 1.117 0 0 0 .362-1.532zM59 219c0-.55.45-1 1-1s1 .45 1 1-.45 1-1 1-1-.45-1-1zm18.694.36c-.8-.798.104-2.36 1.365-2.36.518 0 .941.675.941 1.5 0 1.546-1.18 1.987-2.306.86zM74 214.418c0-1.766 2.153-1.459 2.77.396.219.653-.316 1.187-1.187 1.187-.87 0-1.583-.713-1.583-1.583zm28.51-.4c-.737-1.194.199-3.017 1.549-3.017 1.217 0 1.225 2.707.01 3.457-.512.317-1.213.118-1.559-.44zM83 213c0-.55.45-1 1-1s1 .45 1 1-.45 1-1 1-1-.45-1-1zm5-.5c0-.917.484-1.505 1.075-1.308.591.197 1.075.785 1.075 1.308 0 .522-.484 1.111-1.075 1.308-.591.197-1.075-.391-1.075-1.308zm-12.965-3.434c-1.632-3.05-1.24-5.066.986-5.066 2.72 0 5.005 4.738 2.922 6.056-2.104 1.331-2.753 1.167-3.908-.99zM83 207c0-.55.45-1 1-1s1 .45 1 1-.45 1-1 1-1-.45-1-1zm21.177-.553c.452-2.172 2.227-2.305 2.633-.197.21 1.095-.28 1.75-1.31 1.75-.96 0-1.512-.647-1.323-1.553zM59 204.5c0-.825.45-1.5 1-1.5s1 .675 1 1.5-.45 1.5-1 1.5-1-.675-1-1.5zm35.177-.053c.452-2.172 2.227-2.305 2.633-.197.21 1.095-.28 1.75-1.31 1.75-.96 0-1.512-.647-1.323-1.553zm-25.51-2.114c-1.267-1.266-.661-4.121 1.01-4.763 2.168-.831 4.584 1.585 3.753 3.752-.642 1.672-3.497 2.278-4.763 1.011zm37.972-.027c-1.126-1.126-.685-2.306.861-2.306.825 0 1.5.423 1.5.941 0 1.261-1.562 2.164-2.36 1.365zM56 200c0-.55.45-1 1-1s1 .45 1 1-.45 1-1 1-1-.45-1-1zm32.688-.646c-1.374-1.374-.662-3.496 1.062-3.164.963.186 1.75.969 1.75 1.74 0 1.58-1.764 2.472-2.813 1.424zM82 197.5c0-.825.675-1.5 1.5-1.5s1.5.675 1.5 1.5-.675 1.5-1.5 1.5-1.5-.675-1.5-1.5zm25 .5c0-.55.675-1 1.5-1s1.5.45 1.5 1-.675 1-1.5 1-1.5-.45-1.5-1zm-7-1.5c0-.825.675-1.5 1.5-1.5s1.5.675 1.5 1.5-.675 1.5-1.5 1.5-1.5-.675-1.5-1.5zm9.184-1.386c-1.698-1.05-2.209-4.26-.933-5.864 1.63-2.05 3.667-1.425 4.36 1.335.755 3.009-1.362 5.806-3.427 4.529zm2.816-4.232c0-.55-.45-.722-1-.382-.55.34-1 1.068-1 1.618s.45.722 1 .382c.55-.34 1-1.068 1-1.618zm-35 3.177c0-.518.45-1.22 1-1.559.55-.34 1 .084 1 .941S78.55 195 78 195s-1-.423-1-.941zm-16.637-1.556c-1.062-2.768 1.35-6.683 3.897-6.321 1.833.26 2.24.954 2.24 3.818 0 3.077-.333 3.538-2.756 3.817-1.836.211-2.964-.227-3.381-1.314zm3.32-2.69c-.32-.798-.556-.561-.604.604-.043 1.054.193 1.644.525 1.312.332-.332.368-1.195.08-1.917zM69 192.94c0-.582.45-.78 1-.441.55.34 1 .816 1 1.059s-.45.441-1 .441-1-.477-1-1.059zm28.63-2.191c-.865-3.228-.807-3.468.997-4.16 2.212-.85 4.373 1.143 4.373 4.032 0 3.292-4.493 3.4-5.37.128zm3.37-.25c0-.825-.436-1.5-.969-1.5-.532 0-.71.675-.393 1.5.317.825.753 1.5.969 1.5.216 0 .393-.675.393-1.5zm-10.951-2.527c-2.817-4.566-5.832-5.19-9.132-1.89-2.868 2.868-3.348 1.882-1.941-3.982 1.49-6.208.867-7.35-3.554-6.52-1.882.353-3.422.383-3.422.066 0-.316 1.91-2.357 4.246-4.535l4.246-3.96-3.246-4.606C75.46 160.014 74 157.505 74 156.971c0-1.575 1.558-1.117 3.5 1.029.995 1.1 1.47 2 1.056 2-.414 0 .2 1.616 1.365 3.59l2.118 3.591-2.52 1.982c-2.875 2.262-3.255 3.837-.925 3.837.876 0 1.819.862 2.094 1.915.614 2.348 3.915 3.286 7.858 2.231 3.138-.839 4.012-2.785 3.024-6.725-1.292-5.146-7.848-1.429-6.95 3.941.498 2.985.447 3.043-1.048 1.197-2.24-2.767-1.987-7.155.515-8.907l2.087-1.462-2.088-.663c-1.149-.364-2.568-1.56-3.155-2.655-1.043-1.95-.995-1.956 2.179-.315 3.083 1.594 3.314 1.585 4.63-.19.761-1.027 1.64-3.114 1.951-4.638.926-4.523 1.926-3.992 3.305 1.755 1.503 6.266 2.871 7.195 6.45 4.38 4.382-3.447 4.88-1.562 1.055 3.999-3.495 5.08-3.579 5.394-1.922 7.224.952 1.052 2.31 1.913 3.017 1.913 2.245 0 2.78 2.252.866 3.652-1.014.741-3.59 1.348-5.725 1.348h-3.88l.686 5.5c.378 3.025.298 5.488-.178 5.473-.476-.015-1.968-1.815-3.316-4zm.774-4.629c-.289-1.479-3.823-2.973-3.823-1.616 0 .52 3.129 3.172 3.823 3.24.178.018.178-.713 0-1.624zm-7.582-2.097c-.69-.23-1.018-.798-.73-1.263.286-.465.115-1.097-.383-1.405-.497-.307-1.097.759-1.334 2.369-.395 2.692-.263 2.838 1.636 1.822 1.324-.708 1.615-1.255.811-1.523zM100 178.219c0-.43-1.35-1.29-3-1.913-2.397-.905-3-.865-3 .198 0 .73.563 1.556 1.25 1.834 1.99.803 4.75.734 4.75-.119zm-2.58-9.73l2.51-2.51-2.516.632c-2.795.701-5.326-1.66-5.382-5.02-.03-1.734-.237-1.689-2.282.5L87.5 164.5l2.655 1.162c1.46.638 2.952 2.101 3.317 3.25.833 2.623.91 2.615 3.947-.422zM84 189c0-.55.45-1 1-1s1 .45 1 1-.45 1-1 1-1-.45-1-1zm-12-1.5c0-.825.45-1.5 1-1.5s1 .675 1 1.5-.45 1.5-1 1.5-1-.675-1-1.5zm-14.85-.45c.43-1.29 1.801-1.52 1.925-.325.041.399-.465.905-1.125 1.125-.66.22-1.02-.14-.8-.8zm-4.467-1.7c-1.098-1.098-.785-9.169.384-9.891 1.66-1.027 2.077.033 1.06 2.705-.589 1.55-.561 3.096.076 4.235 1.03 1.84-.215 4.256-1.52 2.951zm58.504-2.1c.448-2.35 4.813-2.997 4.813-.713 0 1.08-.534 1.472-1.5 1.101-.825-.316-1.5-.14-1.5.393s-.483.969-1.073.969-.924-.787-.74-1.75zm-41.571-1c-.34-.962-.88-2.312-1.2-3-.321-.69.06-1.25.848-1.25.905 0 1.463 1.104 1.517 3 .097 3.405-.267 3.795-1.165 1.25zM105 181.5c0-.825.45-1.5 1-1.5s1 .675 1 1.5-.45 1.5-1 1.5-1-.675-1-1.5zm12.545-.75c.374-1.238 1.145-2.7 1.715-3.25.705-.682.829-.418.387.832-.356 1.007-.647 2.47-.647 3.25 0 .78-.48 1.418-1.067 1.418-.642 0-.797-.897-.388-2.25zM60.5 181c-.34-.55.309-1 1.441-1 1.132 0 2.059.45 2.059 1s-.648 1-1.441 1-1.72-.45-2.059-1zm-5.623-7.37c-.643-1.41-.796-3.294-.35-4.316.433-.998.698-2.376.587-3.064-.318-1.968 1.548-1.468 4.407 1.182 3.607 3.343 3.19 7.929-.763 8.384-2.119.244-3-.253-3.881-2.187zM60 172.5c0-1.375-.45-2.5-1-2.5-1.117 0-1.37 3.296-.333 4.333 1.102 1.103 1.333.785 1.333-1.833zm54 1.5c0-1.1.45-2 1-2s1-.675 1-1.5.45-1.5 1-1.5c1.419 0 1.182 3.177-.392 5.25-1.743 2.297-2.608 2.214-2.608-.25zm-8.5-2c-.34-.55-.141-1 .441-1s1.059.45 1.059 1-.198 1-.441 1-.72-.45-1.059-1zm-36.86-.694c-1.196-1.195-.646-3.306.86-3.306.825 0 1.5.648 1.5 1.441 0 1.67-1.427 2.798-2.36 1.865zM115 167c0-.55.702-1 1.559-1s1.28.45.941 1c-.34.55-1.041 1-1.559 1s-.941-.45-.941-1zm-55-1c0-.55.9-1 2-1s2 .45 2 1-.9 1-2 1-2-.45-2-1zm6 0c0-.55.9-1 2-1s2 .45 2 1-.9 1-2 1-2-.45-2-1zm7 0c0-.55.9-1 2-1s2 .45 2 1-.9 1-2 1-2-.45-2-1zm33.192-.075c.197-.591.786-1.075 1.308-1.075s1.111.484 1.308 1.075c.197.591-.391 1.075-1.308 1.075s-1.505-.484-1.308-1.075zm4.459-1.393c-.31-.807-.133-1.734.393-2.059.526-.325.956.336.956 1.468 0 2.415-.556 2.658-1.35.591zM64 163c0-.55.45-1 1-1s1 .45 1 1-.45 1-1 1-1-.45-1-1zm51.607-.582c-1.153-3.005-.6-5.286 1.441-5.933 3.814-1.21 6.596 3.471 3.752 6.315-1.694 1.694-4.475 1.49-5.193-.382zm4.393-2.477c0-.518-.66-.941-1.469-.941-.892 0-1.243.587-.895 1.494.59 1.539 2.364 1.123 2.364-.553zM69 162c0-.55.675-1 1.5-1s1.5.45 1.5 1-.675 1-1.5 1-1.5-.45-1.5-1zm-11-1.5c0-.917.484-1.505 1.075-1.308.591.197 1.075.785 1.075 1.308 0 .522-.484 1.111-1.075 1.308-.591.197-1.075-.391-1.075-1.308zm45.405-1.244c-.603-.416-1.362-2.444-1.687-4.506-.453-2.868-.254-3.75.845-3.75.79 0 1.437.419 1.437.93 0 .512 1.012 1.075 2.25 1.25 3.085.439 3.304 6.185.25 6.576-1.1.14-2.493-.085-3.095-.5zm-20.766-3.95c-1.195-1.195-.645-3.306.861-3.306.825 0 1.5.648 1.5 1.441 0 1.67-1.427 2.798-2.36 1.865zm-23.954-2.402c-.69-2.639.033-4.582 1.983-5.33 1.955-.75 3.272.104 4.287 2.778 1.016 2.678-.45 4.648-3.46 4.648-1.455 0-2.457-.748-2.81-2.096zm4.295-1.428c-.696-.838-1.47-1.318-1.723-1.067-.693.694.716 2.591 1.924 2.591.664 0 .588-.574-.201-1.524zm56.523-2.815c.325-8.144.204-7.9 2.997-6.069 3.032 1.987 3.294 5.388.472 6.126-1.388.363-1.852 1.085-1.47 2.288.319 1.004-.034 1.984-.823 2.287-1.08.414-1.336-.597-1.176-4.632zM93.2 150.8c-1.652-1.652-1.51-5.744.222-6.408 2.322-.892 5.578 1.464 5.578 4.036 0 3.225-3.511 4.66-5.8 2.372zm-20.95-2.518c-2.142-.769-1.449-3.147.75-2.572 2.017.528 2.636 1.813 1.25 2.596-.412.233-1.313.222-2-.024zm6.829-.865c.048-1.165.285-1.402.604-.604.289.721.253 1.584-.079 1.916-.332.332-.568-.258-.525-1.312zm25.921-1c0-1.766 2.153-1.459 2.77.396.219.653-.316 1.187-1.187 1.187-.87 0-1.583-.713-1.583-1.583zm3.958-2.495c-1.455-2.72-.541-4.922 2.043-4.922 2.433 0 4.286 3.858 2.761 5.75-1.503 1.866-3.55 1.513-4.804-.828zm-21.874-1.238c-1.365-1.365-1.414-5.362-.075-6.19 1.46-.901 4.712.337 5.367 2.044 1.27 3.31-2.878 6.56-5.292 4.146zm3.74-3.017c.19-.987-.32-1.667-1.25-1.667-.928 0-1.574.855-1.574 2.083 0 2.437 2.337 2.093 2.823-.416zM99 143c0-.55.45-1 1-1s1 .45 1 1-.45 1-1 1-1-.45-1-1zm-28.8-2.2c-2.815-2.815-.345-8.368 3.395-7.633 2.8.551 3.96 3.319 2.622 6.255-1.245 2.734-4.025 3.37-6.017 1.378zm4.8-3.907c0-.491-.9-.893-2-.893-1.95 0-2.606 1.06-1.402 2.264.8.802 3.402-.247 3.402-1.371zm-13 3.166c0-.518.45-1.22 1-1.559.55-.34 1 .084 1 .941S63.55 141 63 141s-1-.423-1-.941zm58-2.786c0-2.493 1.543-3.821 2.55-2.193.377.611-.042 1.84-.932 2.73-1.49 1.491-1.618 1.45-1.618-.537zm-61.77-1.46c.617-1.855 2.77-2.162 2.77-.396 0 .87-.712 1.583-1.583 1.583s-1.406-.534-1.188-1.188zm41.77.014c-1.925-.544-4.5-1.92-5.72-3.055-1.927-1.792-2.443-1.881-3.895-.677-1.492 1.239-1.6 1.16-1-.734.451-1.42.014-2.908-1.32-4.493-5.883-6.988-7.435-9.336-9.146-13.838-1.151-3.03-1.498-5.172-.898-5.543 1.907-1.178.941-2.205-1.771-1.884-1.512.179-1.922.075-.91-.23 2.692-.811 5.66-4.089 5.66-6.25 0-5.085 7.373-5.22 9.134-.168.553 1.587 1.678 3.143 2.5 3.458.82.315 1.183 1.074.804 1.687-.475.768.05.887 1.687.383 1.306-.402 2.058-.396 1.67.015-.779.823 3.296 5.134 7.214 7.632 1.38.88 3.16 2.898 3.957 4.485.796 1.587 2.091 3.663 2.877 4.614 1.5 1.816 1.9 7.854.758 11.454-.37 1.165-1.74 2.386-3.044 2.713a94.722 94.722 0 0 0-3.714 1.009c-.739.227-2.918-.033-4.843-.578zm4-4.453c0-1.054-.603-1.317-2-.874-1.397.443-2 .18-2-.874 0-2.13-1.446-2.767-4.074-1.794-2.125.786-1.998.982 2.158 3.337 4.652 2.635 5.916 2.679 5.916.205zm5 .626c0-1.253-1.061-1.253-3 0-1.213.784-1.07.972.75.985 1.237.008 2.25-.435 2.25-.985zm-13-5.448c0-.247-1.13-1.668-2.51-3.157-2.56-2.763-4.81-2.69-2.51.08 1.028 1.24 1.008 1.538-.108 1.595-.754.039-.472.457.628.93 2.231.959 4.5 1.237 4.5.552zm2.494-2.558c-.998-1.103-2.08-1.742-2.403-1.418-.323.323.285 1.226 1.352 2.006 2.74 2.003 3.176 1.76 1.051-.588zM103 124c0-.55-.45-1-1-1s-1 .45-1 1 .45 1 1 1 1-.45 1-1zm4.683-1.188c-.32-.797-.556-.56-.604.605-.043 1.054.193 1.644.525 1.312.332-.332.368-1.195.08-1.917zm-7.207-.774c.376-.607 1.504-.616 3.06-.025 1.914.728 2.464.615 2.464-.506 0-.827-.598-1.215-1.399-.907-.77.295-1.749-.03-2.177-.723-.442-.716-.27-1.428.399-1.651.647-.216 1.177-.86 1.177-1.432 0-.627-.594-.546-1.5.206-.825.685-1.5 1.865-1.5 2.622 0 .758-.675 1.378-1.5 1.378s-1.5.45-1.5 1c0 1.275 1.696 1.302 2.476.038zm-8.107-2.336c.347.347.618.219.602-.285-.043-1.325-5.757-7.417-6.957-7.417A1.01 1.01 0 0 0 85 113c0 .55-.477 1-1.059 1s-.78-.45-.441-1c.34-.55-.1-1-.976-1-1.247 0-1.377.407-.595 1.868.648 1.21 1.805 1.736 3.286 1.492 1.257-.208 3.159.302 4.226 1.131 1.922 1.494 1.922 1.525 0 3.064-1.887 1.512-1.882 1.527.178.535 1.165-.56 2.402-.735 2.75-.388zM88 118c0-.55-.675-1-1.5-1s-1.5.45-1.5 1 .675 1 1.5 1 1.5-.45 1.5-1zm11-1.417c0-1.329.563-2.617 1.25-2.863.688-.245.976-.744.642-1.108-.335-.364-1.685.234-3 1.33-1.316 1.095-1.844 2.006-1.173 2.025.67.018.96.708.643 1.533-.317.825-.078 1.5.531 1.5S99 117.912 99 116.583zm-3.872-2.333c1.256-1.602 1.218-1.629-.454-.314-1.587 1.247-1.945 1.247-2.732 0-.617-.979-.372-1.834.768-2.686 1.56-1.167 1.56-1.25-.019-1.25-.93 0-1.691-.66-1.691-1.469 0-.95.617-1.266 1.75-.894.963.316.434-.344-1.175-1.466-1.779-1.241-4.449-2.02-6.813-1.987l-3.888.053 2.168 2.307c1.192 1.27 3.583 3.006 5.313 3.859 1.73.853 2.587 1.562 1.905 1.574-.835.015-.68.677.472 2.023 2.096 2.448 2.647 2.48 4.396.25zM86 107.19c0-.537.713-1.25 1.584-1.584.973-.373 1.43-.15 1.187.58-.498 1.496-2.771 2.319-2.771 1.004zM81 134c0-.55.675-1 1.5-1s1.5.45 1.5 1-.675 1-1.5 1-1.5-.45-1.5-1zm-18-3.441c0-1.407.45-2.559 1-2.559s1 .873 1 1.941-.45 2.22-1 2.559c-.567.35-1-.49-1-1.941zm57.363-.063c.457-1.19.015-2.243-1.34-3.193-2.449-1.714-2.747-6.811-.45-7.692 3.721-1.429 7.704 4.864 4.38 6.919-.577.356-.915 1.578-.75 2.716.163 1.137-.337 2.284-1.112 2.548-1.006.341-1.214-.03-.728-1.298zM121 123.5c0-.825-.177-1.5-.393-1.5-.216 0-.652.675-.969 1.5-.316.825-.14 1.5.393 1.5s.969-.675.969-1.5zm-50.447 5.585a1.117 1.117 0 0 1 .362-1.532 1.117 1.117 0 0 1 1.532.362c.322.52.16 1.21-.362 1.532-.52.322-1.21.16-1.532-.362zM83 129c0-.55.45-1 1-1s1 .45 1 1-.45 1-1 1-1-.45-1-1zm-5.447-1.915a1.117 1.117 0 0 1 .362-1.532 1.117 1.117 0 0 1 1.532.362c.322.52.16 1.21-.362 1.532-.52.322-1.21.16-1.532-.362zM82 124.941c0-.582.45-.78 1-.441.55.34 1 .816 1 1.059s-.45.441-1 .441-1-.477-1-1.059zM72 122.5c0-.825.45-1.5 1-1.5s1 .675 1 1.5-.45 1.5-1 1.5-1-.675-1-1.5zm-6.315-1.296c-1.423-1.572-1.47-2.115-.322-3.686 1.958-2.677 4.86-1.276 4.454 2.15-.396 3.35-1.964 3.933-4.132 1.536zM76 118.56c0-.857.45-1.559 1-1.559s1 .423 1 .941-.45 1.22-1 1.559c-.55.34-1-.084-1-.941zM72 115c0-.55.45-1 1-1s1 .45 1 1-.45 1-1 1-1-.45-1-1zm46.553-.915a1.117 1.117 0 0 1 .362-1.532 1.117 1.117 0 0 1 1.532.362c.322.52.16 1.21-.362 1.532-.52.322-1.21.16-1.532-.362zM124 113.5c0-.825.45-1.5 1-1.5s1 .675 1 1.5-.45 1.5-1 1.5-1-.675-1-1.5zm-54.325-3.158c-.362-.362-.156-1.262.456-2 .872-1.051.654-1.342-1.009-1.342-1.167 0-2.122-.45-2.122-1 0-2.017 3.712-.928 4.773 1.4 1.323 2.905-.116 4.924-2.098 2.942zm38.705-4.794c-.69-1.797.433-3.777 1.87-3.298.587.196 1.218 1.344 1.402 2.553.383 2.509-2.356 3.132-3.272.745zM119 105c-1.384-2.586.323-6 3-6 1.061 0 2.411.9 3 2 1.384 2.586-.323 6-3 6-1.061 0-2.411-.9-3-2zm3.808-1.075c-.197-.591-.786-1.075-1.308-1.075s-1.111.484-1.308 1.075c-.197.591.391 1.075 1.308 1.075s1.505-.484 1.308-1.075zm-27.537-2.901c-2.134-1.301-3.03-2.487-2.643-3.497.322-.84.988-1.527 1.479-1.527.491 0 .893-.845.893-1.878 0-2.22 2.545-4.667 3.405-3.275.321.519-.089 1.201-.91 1.517-.823.315-1.495 1.023-1.495 1.573s.64.755 1.422.455c4.332-1.663 7.725 5.389 3.644 7.573-2.433 1.302-2 1.372-5.795-.941zM100 96.5c0-.825-.45-1.5-1-1.5s-1 .675-1 1.5.45 1.5 1 1.5 1-.675 1-1.5zm26.5 4.5c.34-.55.816-1 1.059-1s.441.45.441 1-.477 1-1.059 1-.78-.45-.441-1zm-10-3c.34-.55 1.041-1 1.559-1s.941.45.941 1-.702 1-1.559 1-1.28-.45-.941-1zm1.313-2.683c.721-.289 1.584-.253 1.916.079.332.332-.258.568-1.312.525-1.165-.048-1.402-.285-.605-.604zM123 93c0-.55.675-1 1.5-1s1.5.45 1.5 1-.675 1-1.5 1-1.5-.45-1.5-1zm-38.808-3.075c.197-.591.786-1.075 1.308-1.075s1.111.484 1.308 1.075c.197.591-.391 1.075-1.308 1.075s-1.505-.484-1.308-1.075zM115 90c0-.55.45-1 1-1s1 .45 1 1-.45 1-1 1-1-.45-1-1zm-35.527-1.044c-.325-.526.336-.956 1.468-.956 2.415 0 2.658.556.591 1.35-.807.31-1.734.132-2.059-.394zm19.863-.523c-.33-.862-.11-2.058.489-2.658 1.444-1.444 4.271.811 3.509 2.798-.732 1.906-3.247 1.818-3.998-.14zm5.822-3.683c-1.98-5.247-2.674-5.682-6.908-4.332-1.681.536-2.25.32-2.25-.85 0-1.075.943-1.568 3-1.568 2.1 0 3-.486 3-1.622 0-1.34-.265-1.403-1.524-.358-1.998 1.658-2.91.66-1.613-1.765 1.051-1.963.605-3.268-3.481-10.186-2.037-3.447-1.237-5.125 1.362-2.858 2.346 2.047 6.655 4.244 5.888 3.002-.335-.542.21-1.2 1.21-1.462 1.15-.3 2.299-2.183 3.12-5.113.714-2.551 1.669-4.638 2.123-4.638.813 0 1.634 3.628 2.15 9.5.255 2.882.432 2.987 4.515 2.664 4.747-.375 5.17.397 2.25 4.109-2.862 3.638-2.504 7.647 1.12 12.576 1.717 2.334 2.854 4.51 2.527 4.837-.327.327-2.482-1.111-4.79-3.196l-4.195-3.79-1.831 2.26c-1.743 2.153-2.266 4.016-1.906 6.79.09.688-.276 1.25-.811 1.25-.536 0-1.866-2.362-2.956-5.25zm2.025-2.967c-.717-.717-1.183-.776-1.183-.15 0 1.335 1.183 2.518 1.85 1.85.284-.284-.016-1.049-.667-1.7zm3.21-8.365c1.23-3.205.509-4.205-3.817-5.294-2.433-.613-5.154-1.845-6.047-2.738-2.486-2.486-2.655-1.213-.327 2.464 1.375 2.171 2.338 2.895 2.818 2.117.525-.849.922-.87 1.414-.074.376.609.406 1.557.066 2.107-.98 1.586.412 3 2.952 3 1.284 0 2.607-.712 2.941-1.582zM117 67.031c0-.532-.675-.71-1.5-.393-.825.317-1.5.753-1.5.969 0 .216.675.393 1.5.393s1.5-.436 1.5-.969zm-8.044-5.903l-.044-3.628-1.44 4c-1.84 5.105-1.834 6.045.028 4.5.848-.704 1.48-2.82 1.456-4.872zm17.695 23.82c1.325-1.324.573-5.517-1.262-7.04-1.66-1.377-1.828-4.519-.293-5.467 1.955-1.209 3.648 1.93 4.21 7.809.513 5.37.41 5.75-1.578 5.75-1.488 0-1.812-.316-1.077-1.051zM128 76c0-.55-.45-1-1-1s-1 .45-1 1 .45 1 1 1 1-.45 1-1zm-46.8 7.8c-3.184-3.184-.073-8.873 3.736-6.834C88.236 78.732 87.116 85 83.5 85c-.605 0-1.64-.54-2.3-1.2zM85 81c0-.55-.45-1-1-1s-1 .45-1 1 .45 1 1 1 1-.45 1-1zm7 0c0-.55.45-1 1-1s1 .45 1 1-.45 1-1 1-1-.45-1-1zm29-2.059c0-.582.45-.78 1-.441.55.34 1 .816 1 1.059s-.45.441-1 .441-1-.477-1-1.059zM93 75c0-.55.45-1 1-1s1 .45 1 1-.45 1-1 1-1-.45-1-1zm26 .059c0-.518.45-1.22 1-1.559.55-.34 1 .084 1 .941S120.55 76 120 76s-1-.423-1-.941zm-28-2.937c0-1.256 2.934-3.521 3.643-2.812.327.327-.101 1.291-.953 2.142-1.737 1.738-2.69 1.975-2.69.67zm37-3.563c0-.857.45-1.559 1-1.559s1 .423 1 .941-.45 1.22-1 1.559c-.55.34-1-.084-1-.941zm.624-3.358c-.317-.513-1.706-.717-3.088-.453-3.135.6-4.535-2.177-2.25-4.462 1.942-1.943 4.714-1.002 4.714 1.6 0 1.07.563 2.148 1.25 2.394.688.245.958.763.6 1.15-.357.387-.909.283-1.226-.23zm-14.957-3.868c-1.231-1.23-.682-5.113.804-5.684 1.651-.633 4.529 1.791 4.529 3.815 0 1.923-3.91 3.293-5.333 1.87zM99 60c0-.55.45-1 1-1s1 .45 1 1-.45 1-1 1-1-.45-1-1zm-3.541-4.067c-1.076-1.741.15-2.11 1.52-.457.79.95.866 1.524.202 1.524-.584 0-1.36-.48-1.722-1.067zM120 55.271c-3.483-1.326-4.036-5.646-.936-7.305 1.532-.82 2.434-.798 3.5.087 1.66 1.377 1.95 5.947.377 5.947-.582 0-.78.45-.441 1 .67 1.083-.138 1.17-2.5.271zM104 50.5c0-.825.45-1.5 1-1.5s1 .675 1 1.5-.45 1.5-1 1.5-1-.675-1-1.5zm-5.475-.46c-.848-1.372-.097-2.402 1.38-1.894.606.208.683.914.188 1.71-.625 1.007-1.03 1.054-1.568.184zm6.483-4.793l-3.491-1.45 2.991-2.393c3.464-2.772 4.78-2.966 6.452-.952 1.354 1.631.601 5.132-1.248 5.804-.667.242-2.783-.212-4.704-1.01zm3.675-3.434c-.32-.798-.556-.561-.604.604-.043 1.054.193 1.644.525 1.312.332-.332.368-1.195.08-1.916zm8.067 1.37c-1.593-.183-2.75-.927-2.75-1.768 0-1.078.71-1.283 2.75-.793 3.251.78 3.572.993 3.104 2.066-.195.446-1.592.67-3.104.496zm-51.067 197.63c-.32-.798-.556-.561-.604.604-.043 1.054.193 1.644.525 1.312.332-.332.368-1.195.08-1.917zm27.804-3.435c.832-1.992 1.488-4.13 1.457-4.75-.03-.62-.865.868-1.855 3.308-1.083 2.67-2 3.865-2.307 3-.28-.79-.894-1.074-1.366-.632-.666.624 1.043 2.598 2.32 2.68.13.009.918-1.614 1.75-3.606zM61.5 237c-.853-1.65-1.776-3-2.051-3-.275 0 .198 1.35 1.051 3s1.776 3 2.051 3c.275 0-.198-1.35-1.051-3zm9.5.393c0-.216-.675-.393-1.5-.393s-1.5.436-1.5.969c0 .532.675.71 1.5.393.825-.317 1.5-.753 1.5-.969zm34.382-3.945c.341-.89.173-1.291-.393-.94-.544.335-.989 1.033-.989 1.551 0 1.438.717 1.121 1.382-.61zM56 211c0-.55-.45-1-1-1s-1 .45-1 1 .45 1 1 1 1-.45 1-1zm59.306-2.644c-.656-.267-.946-1.131-.643-1.92.303-.79.053-1.436-.556-1.436-1.21 0-1.508 2.265-.44 3.333.366.367 1.154.631 1.75.588.658-.048.615-.27-.11-.565zm1.307-7.189c.132-2.521-1.123-2.887-2.006-.585-.95 2.477-.718 3.622.643 3.169.688-.23 1.301-1.392 1.363-2.584zM47 195.5c0-1.375-.394-2.5-.875-2.5s-.875 1.125-.875 2.5.394 2.5.875 2.5.875-1.125.875-2.5zm-.338-6.75c-.277-.688-.504-.125-.504 1.25s.227 1.938.504 1.25c.278-.688.278-1.813 0-2.5zM49 185.441c0-.857-.457-1.276-1.016-.93-.56.345-.758 1.046-.441 1.558.857 1.387 1.457 1.129 1.457-.628zm-5.72-3.48c-.294-1.122-.757-1.817-1.03-1.544-.542.541.414 3.583 1.125 3.583.24 0 .198-.918-.096-2.04zm4.998-2.932c-.577-.703-2.247 2.247-2.248 3.971 0 .827.59.378 1.317-1 .725-1.375 1.144-2.712.93-2.971zm1.846-11.296c-.988-.98-1.102-.865-.56.56.376.986.935 1.541 1.243 1.233.308-.307 0-1.114-.683-1.793zm.218-7.182c.371-.967.076-1.265-.887-.895-.794.304-1.195.956-.89 1.449.766 1.24 1.132 1.126 1.777-.554zm-1.659-4.738c-.32-.798-.556-.561-.604.604-.043 1.054.193 1.644.525 1.312.332-.332.368-1.195.08-1.916zm3 0c-.32-.798-.556-.561-.604.604-.043 1.054.193 1.644.525 1.312.332-.332.368-1.195.08-1.916zM129 152.882c0-.55-.45-.722-1-.382-.55.34-1 1.068-1 1.618s.45.722 1 .382c.55-.34 1-1.068 1-1.618zm-79.317-3.07c-.32-.797-.556-.56-.604.605-.043 1.054.193 1.644.525 1.312.332-.332.368-1.195.08-1.917zm4.98-1.062c-.278-.688-.505-.125-.505 1.25s.227 1.938.504 1.25c.278-.688.278-1.813 0-2.5zm-1-6c-.278-.688-.505-.125-.505 1.25s.227 1.938.504 1.25c.278-.688.278-1.813 0-2.5zm-2.98-.938c-.32-.797-.556-.56-.604.605-.043 1.054.193 1.644.525 1.312.332-.332.368-1.195.08-1.917zm2.302-6.562c.008-.688-.435-1.25-.985-1.25s-.993 1.238-.985 2.75c.012 2.143.23 2.419.985 1.25.533-.825.976-2.063.985-2.75zm1.698.563c-.32-.798-.556-.561-.604.604-.043 1.054.193 1.644.525 1.312.332-.332.368-1.195.08-1.917zm-2-5c-.32-.798-.556-.561-.604.604-.043 1.054.193 1.644.525 1.312.332-.332.368-1.195.08-1.917zM59 130c0-.55-.477-1-1.059-1s-.78.45-.441 1c.34.55.816 1 1.059 1s.441-.45.441-1zm71.9-2.25c-.093-3.038-.148-3.087-.842-.75-.409 1.375-.562 2.837-.341 3.25.838 1.567 1.28.635 1.183-2.5zM55 126c0-1.1-.173-2-.383-2-.211 0-.62.9-.907 2-.287 1.1-.115 2 .384 2 .498 0 .906-.9.906-2zm4-.607c0-.216-.675-.393-1.5-.393s-1.5.436-1.5.969c0 .532.675.71 1.5.393.825-.317 1.5-.753 1.5-.969zm73-11.452c0-.518-.45-.941-1-.941s-1 .702-1 1.559.45 1.28 1 .941c.55-.34 1-1.041 1-1.559zM60 106c0-.55-.198-1-.441-1s-.72.45-1.059 1c-.34.55-.141 1 .441 1S60 106.55 60 106zm73.485-4.849c-.756-.755-2.485 1.054-2.485 2.6 0 1.364.232 1.314 1.418-.308.78-1.067 1.26-2.098 1.067-2.292zM72 92c0-.55-.45-1-1-1s-1 .45-1 1 .45 1 1 1 1-.45 1-1zm11.571-29.986c0-1.174-.367-1.618-.898-1.087-.494.494-.596 1.388-.227 1.986.94 1.521 1.125 1.374 1.125-.899zm7.753-12.417c.296-.771-.091-2.234-.86-3.25-1.298-1.712-1.403-1.72-1.432-.097-.018.964-.791 1.75-1.723 1.75-1.475 0-1.443.188.25 1.468 2.451 1.854 3.095 1.876 3.765.13zM128 48c0-.55-.45-1-1-1s-1 .45-1 1 .45 1 1 1 1-.45 1-1zm-.981-3.523c1.057-1.273.995-1.42-.378-.893-.902.347-1.641 1.032-1.641 1.523 0 1.286.579 1.105 2.019-.63zm7.664-7.664c-.32-.798-.556-.561-.604.604-.043 1.054.193 1.644.525 1.312.332-.332.368-1.195.08-1.917zm-19.685-2.063c.003-1.058-3.207-.905-4.998.238-1.106.706-.646.899 1.748.735 1.786-.123 3.249-.56 3.25-.973zM115 32c0-.55-.702-1-1.559-1s-1.28.45-.941 1c.34.55 1.041 1 1.559 1s.941-.45.941-1zM35.5 174c.34-.55 1.604-.993 2.809-.985 1.781.013 1.91.197.691.985-1.97 1.273-4.287 1.273-3.5 0zm-.5-7.893c0-1.014 3.046-2.395 3.743-1.697.252.251.16.937-.202 1.523-.798 1.291-3.541 1.426-3.541.174zm14.813-57.79c.721-.289 1.584-.253 1.916.079.332.332-.258.568-1.312.525-1.165-.048-1.402-.285-.605-.604zm-2.303-2.333c.346-.56 1.047-.758 1.56-.441 1.386.857 1.128 1.457-.629 1.457-.857 0-1.276-.457-.93-1.016zm95.949-28.05c-1.076-1.742.15-2.11 1.52-.458.79.95.866 1.524.202 1.524-.584 0-1.36-.48-1.722-1.067zM61 75c0-.55.45-1 1-1s1 .45 1 1-.45 1-1 1-1-.45-1-1zm1-3c-1.165-.753-.872-.973 1.309-.985 1.621-.009 2.548.408 2.191.985-.767 1.242-1.579 1.242-3.5 0zm30.667-43.667c-.367-.366-.667-1.131-.667-1.7 0-.626.466-.567 1.183.15.651.651.951 1.416.667 1.7-.284.284-.817.217-1.183-.15z"/></svg>