<svg xmlns="http://www.w3.org/2000/svg" xmlns:dc="http://dublincore.org/documents/dcmi-terms/" height="372.5" viewBox="0 0 341.25 372.5" width="341.25"><metadata><dc:description>Silhouette of Clitellata + Sipuncula, processed by PhyloPic Tools (https://github.com/eweitz/phylopic-tools)</dc:description><dc:source>http://phylopic.org/image/8fb5a3ad-dc7c-403c-a731-bc1fc1a19ce2</dc:source><dc:creator>Birgit Lang, based on a photo by D. Sikes</dc:creator><dc:license>http://creativecommons.org/licenses/by-sa/3.0/</dc:license></metadata><path d="M278.734 325.09c-.101-12.61-1.31-23.315-3.73-33.058-4.078-16.408-3.7-22.616 2.818-46.388 2.337-8.52 4.25-17.912 4.253-20.87.006-7.167-6.163-14.055-21.842-24.391-13.776-9.082-17.65-13.443-27.48-30.935-8.879-15.802-15.142-22.286-26.676-27.617-15.611-7.215-21.196-11.541-35.055-27.157-7.65-8.62-18.02-17.98-25.161-22.71-11.636-7.707-22.012-17.649-42.289-40.517-11.162-12.589-13.341-14.07-28.925-19.663-15.46-5.548-30.548-5.895-40.51-.93-3.864 1.926-7.86 5.025-8.88 6.887-2.329 4.25-5.203 4.388-5.203.248 0-7.054 4.254-14.245 11.722-19.816 6.354-4.74 9.4-5.865 15.858-5.854 13.963.022 28.97 3.227 44.12 9.423 13.966 5.712 16.263 7.473 45.685 35.018 17.04 15.952 37.847 35.824 46.24 44.16 11.907 11.828 18.767 17.012 31.234 23.604 8.787 4.647 17.826 10.097 20.088 12.113 5.084 4.532 12.373 15.508 12.373 18.634 0 5.396 11.075 17.673 26.092 28.921 8.85 6.63 17.546 13.97 19.324 16.312 1.777 2.342 4 8.93 4.942 14.638 1.425 8.645 1.163 12.184-1.566 21.172-6.222 20.497-7.652 31.108-6.3 46.745 2.66 30.77 2.342 34.082-4.612 47.965l-6.37 12.714-.15-18.648z"/></svg>