<svg xmlns="http://www.w3.org/2000/svg" xmlns:dc="http://dublincore.org/documents/dcmi-terms/" height="537.38" width="692.517"><metadata><dc:description>Silhouette of Closterium kutzingii, processed by PhyloPic Tools (https://github.com/eweitz/phylopic-tools)</dc:description><dc:source>http://phylopic.org/image/9f786305-f89a-4102-a253-f75a1e763793</dc:source><dc:creator>Matt Crook</dc:creator><dc:license>http://creativecommons.org/licenses/by-sa/3.0/</dc:license></metadata><path d="M345.423 293.63a78.525 78.525 0 0 0-4.03 3.281c-4.768 4.127-11.411 10.318-20.032 18-16.478 14.684-43.905 43.136-73 68.75 21.833-14.176 50.55-30.812 74.531-45.156 13.227-7.911 24.897-15.101 32.688-20.5 2.92-2.023 4.588-3.406 6.187-4.75l-16.344-19.625z" stroke="#000" stroke-width="5" stroke-linejoin="round"/><path d="M6.274 534.772c5.675.516 20.012-.696 33.54-6.22 13.528-5.525 33.207-16.4 68.69-39.086 35.484-22.686 93.319-65.827 137.082-95.26 43.764-29.434 130.626-75.127 125.465-81.32l-23.234-27.881c-2.304-2.765-11.796 6.957-31.367 24.396-19.57 17.438-52.614 52.622-85.966 80.158-33.353 27.535-81.67 62.707-113.848 84.804-32.177 22.098-54.811 35.996-73.225 45.007-18.414 9.011-30.137 9.201-35.975 8.432-5.838-.77-6.836 6.454-1.162 6.97z" fill="none" stroke="#000" stroke-width="5" stroke-linejoin="round"/><path d="M488.11 198.193c-2.22 1.547-5.067 3.705-7.093 5.062-31.59 21.165-79.644 46.346-98.937 61.219-10.452 8.057-18.516 13.98-23.313 17.937-.956.789-1.047.978-1.719 1.594l16.47 19.969a65.056 65.056 0 0 0 6.562-4.406c7.201-5.453 17.105-13.98 28-23.875 21.79-19.79 47.698-45.184 66.125-63.875 4.323-4.386 9.028-8.95 13.906-13.625z" stroke="#000" stroke-width="5" stroke-linejoin="round"/><path d="M689.988 6.908c-.543 5.672-12.204 23.336-21.403 34.025-9.2 10.688-26.28 28.332-58.307 58.053-32.029 29.72-93.58 80.683-130.605 118.241-37.026 37.56-103.816 101.684-108.947 95.466l-23.098-27.994c-2.29-2.775 9.02-10.304 29.78-26.308 20.76-16.004 68.422-40.803 99.332-61.512 30.91-20.709 88.253-66.75 116.558-92.38C621.603 78.866 646 56.346 658.58 42.135c12.58-14.212 24.019-29.497 24.343-35.376.325-5.88 7.609-5.524 7.065.148z" fill="none" stroke="#000" stroke-width="5" stroke-linejoin="round"/></svg>