<svg xmlns="http://www.w3.org/2000/svg" width="1024" height="768" viewBox="0 0 1024 768"><path d="M992.363 385.557c-6.526 9.414-14.352 15.18-26.299 15.906-4.475.274-8.741.789-13.29.789-14.978 0-29.521-.219-44.619-2.485-30.985-4.651-61.974-8.639-92.849-14.037-24.187-4.222-48.109-10.355-72.043-15.222-12.698-2.582-25.725-4.854-38.408-7.12-16.759-2.995-33.328-6.212-50.207-8.268-9.474-1.155-19.771 1.826-28.479 3.444-11.425 2.127-22.835 4.086-34.131 6.596-9.547 2.121-18.417 2.488-27.168 6.116-6.963 2.887-13.097 7.318-19.43 11.324-6.067 3.836-13.206 6.826-18.951 11.057-2.666 1.961-4.914 4.423-7.84 6.248-4.782 2.984-8.9 6.362-4.945 11.585 2.914 3.845 9.068 5.367 6.14 11.451-2.059 4.285-8.012 6.776-12.156 9.106-5.755 3.235-10.391 4.789-17.243 5.2-6.041.361-12.21.665-18.155 1.019-5.956.35-12.104 3.261-17.876 4.887-7.066 1.989-14.185 4.042-20.817 7.545-5.587 2.952-11.556 5.416-17.659 7.046.798 6.28 17.561 8.192 22.532 7.828 9.95-.8 20.711-6.776 30.207-.97 2.898 1.772 5.354 4.58 6.61 7.67.733 1.807 1.142 4.063 1.343 5.991.165 1.554-1.05 6.018-.497 7.101-1.403-2.744-2.043-6.925-3.594-9.316-1.766-2.727-5.852-3.969-8.814-4.703-1.722-.422-7.515-.803-9.128.06-3.952 2.114-1.714 6.378-4.268 9.16-3.587 3.9-8.382.084-11.961-.692-3.193-.686-6.24.575-9.668-.075-3.848-.725-6.83-2.984-10.601-3.793-4.09-.883-8.258-1.469-12.409-1.986-5.686-.718-9.367 4.851-14.556 4.498-3.454-.234-2.909 24.818-2.182 27.742 1.151 4.624 4.724 6.853 6.944 10.663-6.602.405-11.442-2.634-17.119-5.306-4.634-2.184-8.702-4.138-10.854-9.232-1.319-3.122-1.878-5.912-2.104-9.317-.222-3.333-1.174-6.334-1.34-9.292-.268-4.786 3.484-7.527 5.749-11.224 2.827-4.61 2.099-10.286 5.826-14.584 4.127-4.756 9.543-7.497 15.623-9.04 8.249-2.087 15.62-3.211 23.756-6.361 13.143-5.087 27.673-11.594 39.661-15.947-4.865 1.769-10.354-.966-15.197-.788-5.087.187-10.251 2.747-15.013 4.332-11.776 3.918-23.125 10.21-35.273 12.915-9.728 2.168-19.941 3.275-29.83 5.261-8.971 1.804-18.367 3.696-27.631 4.855-6.333.794-12.818 1.319-19.378 1.669-12.728.682-25.739.695-38.505.695-18.981 0-34.747.091-50.649 10.189-13.69 8.687-26.859 16.491-39.589 26.43-16.375 12.788-29.988 29.532-43.852 44.898-5.745 6.368-12.596 10.789-17.093 18.23-6.536 10.813-10.247 23.215-14.774 34.931-3.742 9.688-8.515 29.338-1.848 38.848-10.729 1.664-18.372-15.553-20.613-23.506-1.81-6.424-4.152-12.144-5.45-18.903-1.489-7.752-2.374-13.469-7.836-19.72-4.828-5.526-10.914-9.707-16.483-14.42-15.494-13.114-26.051-29.231-31.275-48.837-3.917-14.716-6.593-29.843-5.767-45.123 1.486-27.517 11.35-55.116 30.796-75.078 14.112-14.486 31.779-25.009 46.151-39.34 12.362-12.329 17.514-28.157 24.25-43.687 6.518-15.024 6.679-32.727 11.391-48.655 5.281-17.857 19.147-33.111 30.26-47.737 12.112-15.936 36.22-25.147 53.908-33.207 28.797-13.12 55.182-19.894 84.934-25.533 65.854-12.489 145.251-7.263 207.964 16.738 32.19 12.319 65.047 26.353 93.966 44.969 7.068 4.55 14.429 8.575 21.839 12.405 3.429 1.774 6.862 3.53 10.368 5.152 2.493 1.153 5.489 3.337 8.244 3.59 4.97.458 11.178-2.063 15.975-3.177 20.361-4.729 41.76-8.187 62.44-12.671 14.923-3.236 30.981-5.073 45.974-1.341 6.542 1.628 10.989 1.524 6.507 8.702-2.271 3.634-5.628 6.816-8.741 9.727-4.403 4.111-9.372 7.531-14.335 10.914-3.527 2.403-7.732 6.942-11.809 8.164 3.135.588 5.537 2.8 8.492 3.847 6.279 2.222 12.361 5.245 18.803 6.981 3.783 1.02 9.704 1.411 5.936 6.181-3.592 4.552-13.662 4.547-18.871 4.784-9.508.439-19.019.992-28.542.979-6.198-.01-12.368-.227-18.12 1.166 1.542-.374 7.887 3.12 9.866 3.576 3.834.881 7.763 1.289 11.67 1.693 18.006 1.866 36.099 2.625 54.142 4.02 17.172 1.327 35.068 1.367 52.447 3.571 28.228 3.581 55.794 7.571 83.38 14.519 14.459 3.641 28.715 7.547 42.872 11.961 10.088 3.146 19.724 4.751 29.02 9.838 4.718 2.582 10.677 4.894 13.652 9.662 3.406 5.46.45 14.169.45 20.323 0 13.78-4.142 22.677-11.954 33.946z"/></svg>