<svg xmlns="http://www.w3.org/2000/svg" xmlns:dc="http://dublincore.org/documents/dcmi-terms/" height="650.015" version="1.2" viewBox="0 0 1389 650.015" width="1389" overflow="inherit"><metadata><dc:description>Silhouette of Coeligena helianthea, processed by PhyloPic Tools (https://github.com/eweitz/phylopic-tools)</dc:description><dc:source>http://phylopic.org/image/e5c634dc-e25c-41c2-a444-eaf405e40b76</dc:source><dc:license>http://creativecommons.org/publicdomain/mark/1.0/</dc:license></metadata><path d="M0 153c16.528 1.846 41.289 7.902 53 4 8.1 5.9 25.219 2.781 33 9 13.434-2.469 32.905 4.052 42 1 2.988.345 3.981 2.685 5 5 8.578.308 11.979 1.806 16 5 4.403-5.056 8.822 4.271 15-1 16.199 8.894 46.914 5 59 15 19.998 1.423 31.288 9.459 46 14 2.319.319 3.84-.161 5-1 29.727 10.276 66.257 18.006 101 25 3.542.111-2.125 3.306 1 3 9.172 1.376 14.875 5.614 23 3 2.551.116 5.145.188 5 3 2.306.306 1.111-2.889 3-3 4.396-.396 3.451 4.548 5 7 30.624 8.516 63.088 19.33 91 22 11.015 2.161 20.959 10.134 33 8 9.407 5.448 25.139 4.082 36 9-3.1 31.981.022 54.738 17 77 6.589 21.411 19.564 36.436 33 51-27.691 23.945-61.928 47.172-95 73-19.484 15.217-101.694 100.357-107 110-7.23 13.141-10.194 30.51-6 44 4.463 3.87 14.017 2.65 17 8 12.757-4.243 33.354-.646 43-8 5.936 3.398 9.543 9.124 14 14 30.62.458 57.273-10.142 85-22 1.502 8.165 5.987 13.346 9 20 30.111-1.122 61.354-12.456 85-26 5.791 10.376 8.544 18.891 23 19 30.35.23 51.777-29.74 69-45 10.686 10.082 23.396 26.152 41 29 16.249 2.629 26.97-10 37-21 8.774 3.226 16.771 7.229 23 13 16.007 1.91 34.408 3.939 36-13 15.248 7.714 28.066 16.199 45 21 8.185 2.32 16.134.053 25 1 12.074 1.291 24.583 8.8 38 10 10.264.918 21.286-3.707 32-3 14.74.973 29.668 12.916 45 13 17.498.251 36.282-9.551 55-2 4.728-2.939 12.094-3.24 20-3 2.666-1.683 13.283-9.259 18-7 4.652-45.128-42.674-72.522-65-98-7.434-1.899-68.149-51.152-95-70-8.914-6.257-56.78-35.22-60-35-15.926-12.074-32.695-23.305-52-32-4.291-48.376-20.979-84.355-43-115 31.598-3.925 52.611-17.697 86-23 1.603-1.73 3.737-2.929 6-4 25.467-2.41 43.123-11.078 65-16 9.326 1.519 14.467-2.107 22-1 7.893-8.108 25.459-6.541 41-7 3.512.178 3.289-3.378 6-4 24.399.456 57.872-11.013 87-13 6.015-.41 12.901 1.694 16-3 6.611 2.138 17.226 3.414 20-3 13.929-1.405 24.394-6.273 38-8 3.719 1.053 1.961-3.373 4-4 4.653-1.32 3.347 3.32 8 2 4.113.468-.785-2.514 2-4 12.694 3.272 20.908-1.621 32-3 22.678-2.82 52.047-7.371 74-12 9.799-2.066 19.064 1.265 23-6-1.779-2.451-6.381-2.207-10-5-17.98-.009-35.682-5.174-58-7-40.525-3.315-87.58-.005-123 2-70.541 3.994-139.996 22.575-204 30-24.801 2.877-100.264 17.473-116 19-.192 2.913-46.363 18.67-72 20-18.227-13.44-43.377-19.957-68-27-22.197-30.802-41.286-64.714-76-83-22.814-21.184-77.183-20.62-125-18-25.396 1.392-48.919-15.175-69-25-18.302-8.955-107.38-56.863-136-69C318.855 6.426 309.91.633 294 0c68.425 47.242 150.949 80.385 218 129 3.236 12.201 18.703 21.466 21 37 .718 4.854-1.399 10.245-1 15 .826 9.833 6.913 16.154 8 26 1.794.127 2.109-1.224 4-1-.725 2.275-.892 5.108-2 7-16.051-5.949-52.904-16.429-53-18-24.896-.775-68.009-12.988-67-13-42.811-9.307-102.414-18.649-154-26-80.326-11.446-191.811-23.448-268-5v2z" fill-rule="evenodd"/></svg>