<svg xmlns="http://www.w3.org/2000/svg" xmlns:dc="http://dublincore.org/documents/dcmi-terms/" height="528.423" width="691.867"><metadata><dc:description>Silhouette of Columba livia domestica, processed by PhyloPic Tools (https://github.com/eweitz/phylopic-tools)</dc:description><dc:source>http://phylopic.org/image/a62a398d-793c-48cf-9803-e52118a28639</dc:source><dc:creator>Luc Viatour (source photo) and Andreas Plank</dc:creator><dc:license>http://creativecommons.org/licenses/by-sa/3.0/</dc:license></metadata><path d="M530.465 527.399c.906-.563 1.598-1.151 1.538-1.308-.2-.52.588-1.295 1.79-1.758 1.652-.638 8.057-.646 10.915-.014 1.087.24 2.043.366 2.125.28.204-.214-3.937-4.075-6.22-5.8-4.253-3.213-8.092-4.785-12.974-5.313-3.299-.357-7.845-.182-9.604.37-1.62.508-2.13.234-3.649-1.956-2.63-3.795-4.3-4.523-11.28-4.918-2.406-.137-10.98-.638-19.053-1.115-12.09-.714-16.34-.867-24.095-.867h-9.417l-1.655-1.693c-1.97-2.017-4.34-5.13-7.9-10.383-3.143-4.64-18.545-28.286-19.002-29.174-1.145-2.228-3.54-11.3-4.223-16-1-6.864-1.681-14.992-1.742-20.75l-.038-3.625 1.05-2.459c.578-1.353 1.556-3.27 2.173-4.26 2.021-3.243 5.176-5.72 7.231-5.677 6.4.131 8.882-.08 17.546-1.495 13.998-2.287 42.452-8.261 59-12.389 20.933-5.22 45.902-17.965 64.72-33.031 3.708-2.97 5.051-4.312 8.635-8.63 14.481-17.451 22.62-34.283 24.022-49.684.156-1.719 1.898-18.819 3.871-38l3.587-34.875 4.894-25.5c3.32-17.3 5.173-26.384 5.76-28.25 1.601-5.075 2.293-10.139 2.537-18.56.303-10.485-.856-23.392-2.782-30.988-1.745-6.884-3.084-15.58-3.494-22.702-.19-3.298.201-7.77.867-9.909.456-1.465.697-1.764 4.229-5.236 5.694-5.597 11.006-8.912 18.003-11.234 5.281-1.753 9.572-2.376 16.276-2.361 6.73.014 9.975.803 13.93 3.385 2.076 1.355 12.036 6.405 15.445 7.831 1.238.518 3.094 1.157 4.125 1.42 1.841.47 2.75 1.096 2.75 1.89 0 .633.923-.079 1.224-.943.645-1.85.168-6.998-1.074-11.593-1.285-4.756-1.096-4.474-7.445-11.108l-5.782-6.042-2.774-4.612c-4.687-7.793-7.7-11.396-10.745-12.85-1.443-.688-1.576-.825-2.015-2.063-1.06-2.99-4.32-10.364-6.498-14.7-4.789-9.533-9.428-16.694-13.6-20.993-1.642-1.693-1.707-1.73-4.54-2.62C626.266 1.735 614.49 0 602.244 0c-12.138 0-17.448.88-24.022 3.981-6.467 3.05-13.094 8.194-19.222 14.921A152.494 152.494 0 0 1 554.099 24c-5.172 5.072-9.852 13.943-14.836 28.125-2.714 7.722-5.317 16.633-10.652 36.467-2.745 10.207-5.214 18.484-6.423 21.533-4.6 11.599-12.944 21.578-24.363 29.133-3.36 2.223-6.798 3.973-11.219 5.71-6.541 2.57-23.533 10.307-34.125 15.539-7.892 3.898-12.18 6.283-13.593 7.56-4.251 3.84-28.155 12.928-34.025 12.935-4.36.01-28.982 4.804-50.007 9.746-5.831 1.371-22.361 6.114-28.75 8.25-8.095 2.706-14.412 5.532-21.212 9.49-5.79 3.37-6.453 3.861-7.186 5.318-1.912 3.803-6.659 10.03-8.534 11.194-.554.344-1.24.98-1.524 1.414-1.967 3-18.714 14.527-38.256 26.33l-6.336 3.828.172 2.413.173 2.413-23.085 18.113c-12.697 9.963-23.767 18.79-24.599 19.618-3.524 3.504-16.528 11.218-33.066 19.614-3.296 1.673-5.765 3.385-9.092 6.304-5.495 4.821-12.563 12.195-12.36 12.896.07.237.192 1.05.273 1.807l.148 1.375-5.894 5-5.894 5-3.801 1.437c-2.09.79-5.503 2.274-7.582 3.298-3.025 1.49-4.225 1.944-6 2.271-9.328 1.72-17.786 4.154-23.044 6.63-1.917.904-2.775 1.126-7.211 1.862-5.029.835-5.832 1.084-7.715 2.389-1.122.778-4.63 1.734-11 2.998-2.2.436-4.73 1.072-5.625 1.414-1.475.564-1.866.608-4.25.483-3.055-.161-4.327.135-4.455 1.037-.164 1.15-1.01 1.387-4.267 1.193l-2.964-.177-1.594 1.429c-.877.786-2.204 1.835-2.948 2.332-1.27.849-1.478.905-3.397.92-1.713.014-2.173.11-2.848.59-.592.421-.785.734-.728 1.177.068.536-.141.7-1.836 1.436-4.624 2.011-9.31 5.839-11.822 9.656-1.276 1.939-1.64 2.936-1.64 4.475 0 1.434.643 2.532 2.008 3.435.957.634 1.606.753 9.447 1.74 4.63.583 8.472 1.069 8.537 1.08.064.01-.512.667-1.28 1.457-3.648 3.757-5.397 7.047-4.868 9.157.266 1.06 1.406 2.15 3.183 3.045l1.71.861h6.881c5.49 0 6.881.066 6.881.326 0 .56-1.438 1.741-7.375 6.058-7.392 5.375-12.042 8.966-15.583 12.035-3.451 2.992-4.998 4.206-11.417 8.96-5.849 4.331-10.523 8.091-12.17 9.79-1.139 1.174-1.164 1.235-.968 2.286.386 2.058 2.386 3.337 5.978 3.82 1.93.26 2.044.244 5.005-.671 1.667-.516 3.086-.882 3.155-.813.068.068-.057.656-.278 1.305-.222.65-.362 1.22-.312 1.268.05.047.912-.07 1.916-.26 3-.571 21.956-2.354 25.023-2.354.396 0 9.73-4.983 23.534-12.563l22.877-12.562 10.427-4.575 10.428-4.575 5.193-1.224c2.856-.673 8.337-1.856 12.181-2.629l6.989-1.406 20.886-.24c11.488-.131 29.83-.167 40.761-.08 24.479.197 37.33-.183 55.875-1.651 15.896-1.259 34.497-3.52 45.321-5.508 2.254-.414 2.66-.43 3.134-.123 1.147.743 6.292 1.352 18.045 2.139 10.15.679 16.021 1.365 16.225 1.895.231.603-1.536 2.093-5.1 4.302-2.003 1.24 1.558.062 7.024-2.326 5.947-2.598 8.749-3.445 8.402-2.54-.071.185-.419 1.507-.773 2.938-3.023 12.222-2.122 23.32 2.706 33.353.728 1.513 2.295 4.372 3.483 6.353 1.187 1.982 2.158 3.744 2.158 3.917 0 .173.38.548.842.835 3.261 2.015 11.052 12.599 20.153 27.377 3.558 5.777 9.505 16.112 9.505 16.518 0 .152-1.096.536-2.437.852-9.812 2.317-17.882 4.396-18.938 4.877-.687.314-1.831 1.033-2.543 1.599-1.309 1.04-3.346 3.644-3.813 4.873-.238.625-.187.706.733 1.175 2.17 1.107 7.11 1.839 15.354 2.276l5.27.28 4.75-.779c2.612-.428 5.092-.778 5.51-.778.473 0 1.47.442 2.626 1.163 1.025.64 2.032 1.155 2.238 1.145.207-.011 2.995-.647 6.197-1.414 3.202-.766 5.978-1.394 6.17-1.394.605 0 1.457 1.5 1.58 2.782.064.67.243 1.216.398 1.214 1.17-.016 3.245-.784 4.19-1.551 2.065-1.675 5.086-2.81 6.84-2.569.55.075 10.338.584 21.75 1.13 14.68.703 23.09.994 28.75.995 6.98 0 11.03.193 31.75 1.507 20.738 1.316 24.247 1.596 27.668 2.21l3.918.705 1.648-1.023zm-125.89-20.087c-1.458-1.11-1.603-1.313-2.202-3.092-.594-1.763-.793-2.047-2.677-3.813-1.701-1.595-2.567-2.738-5.282-6.97-1.785-2.785-4.179-6.694-5.318-8.688a430.135 430.135 0 0 0-4.964-8.375c-4.143-6.802-6.759-13.071-8.371-20.063l-.36-1.563 1.118-2.3 1.12-2.299-.392-2.293c-.215-1.262-.391-3.517-.392-5.013 0-2.256-.084-2.855-.489-3.52-.372-.61-.529-1.484-.66-3.687l-.173-2.887h1.823v-1.218c0-.67-.168-1.697-.375-2.282-.503-1.427-.472-2.05.135-2.703.6-.644 1.3-.702 1.847-.154.306.306.393.958.394 2.938 0 1.4.163 3.332.362 4.294.199.963.437 2.599.53 3.636.156 1.763.119 1.982-.578 3.375-.893 1.787-1.203 4.615-.716 6.532l.307 1.207 1.408.127c1.122.101 1.567.279 2.193.875 1.516 1.444 2.429 2.968 2.993 4.998.305 1.1 1.162 3.098 1.903 4.44.741 1.343 1.347 2.496 1.347 2.563 0 .067-.422.123-.937.124-.784 0-1.032.14-1.513.846-.387.569-.997 1.005-1.866 1.335l-1.291.491 1.866 1.043c1.69.945 2.015 1.04 3.438.996 1.495-.045 1.616 0 2.5.859.867.845.992.89 1.893.687.53-.12 1.885-.295 3.01-.389 2.044-.17 2.046-.17 3.16.672.812.613 1.37 1.355 2.05 2.728.868 1.751 1.072 1.975 2.845 3.116 2.547 1.64 4.031 3.37 9.353 10.904 3.902 5.524 4.607 6.671 5.504 8.96 1.764 4.496 2.453 6.805 2.633 8.812.24 2.674-.23 3.905-1.848 4.841-1.566.906-2.527 1.025-8.595 1.064l-5.173.034-1.56-1.188z"/></svg>