<svg xmlns="http://www.w3.org/2000/svg" xmlns:dc="http://dublincore.org/documents/dcmi-terms/" height="247.698" viewBox="0 0 909.35892 232.21705" width="969.983"><metadata><dc:description>Silhouette of Comahuesuchus brachybuccalis, processed by PhyloPic Tools (https://github.com/eweitz/phylopic-tools)</dc:description><dc:source>http://phylopic.org/image/6d120bfb-9eae-4d7d-820c-b0ac423df31e</dc:source><dc:creator>Nobu Tamura, vectorized by Zimices</dc:creator><dc:license>http://creativecommons.org/licenses/by-sa/3.0/</dc:license></metadata><path d="M645.813 231.145c-1.72-.552-6.68-2.015-11.023-3.25-11.54-3.282-12.88-5.481-12.459-20.449.185-6.586.086-19.428-.22-28.538l-.558-16.562-3.183-.011c-9.352-.032-33.992-2.912-48.807-5.705-19.27-3.633-28.57-6.343-52.958-15.43-17.556-6.543-34.339-10.082-47.88-10.097-6.215-.007-6.496.142-7.315 3.87-.878 3.994-9.907 22.307-13.581 27.546-4.423 6.304-13.266 32.415-13.266 39.167 0 6.062 5.583 10.384 18.546 14.355 6.643 2.036 13.766 4.098 15.829 4.584 4.516 1.063 10.625 5.353 10.625 7.462 0 1.044-1.516 1.318-4.838.872-2.891-.388-5.185-.088-5.699.744-1.196 1.936-9.91 1.664-18.838-.587-4.125-1.04-15.143-2.301-24.484-2.803-13.276-.713-17.749-1.414-20.488-3.208l-3.503-2.296.711-11.42c.391-6.28 1.676-13.95 2.856-17.043 1.675-4.396 2.185-10.132 2.333-26.25.195-21.274 1.434-28.636 5.927-35.193 4.065-5.935 3.181-6.928-7.015-7.884l-9.287-.87-6.583 5.203c-3.62 2.862-11.675 7.675-17.9 10.695-19.51 9.466-24.928 13.271-39.857 27.984-11.217 11.056-14.953 15.584-16.427 19.91-2.795 8.203-2.409 11.998 1.697 16.674 2.986 3.4 5.08 4.38 12.187 5.697 8.121 1.505 13.96 5.15 12.37 7.724-1.025 1.658-22.731 2.552-30.237 1.246-11.108-1.934-16.016-4.468-17.603-9.09-.75-2.184-1.747-11.644-2.214-21.022l-.85-17.05 7.933-9.653c4.364-5.308 13.342-17.745 19.953-27.636l12.02-17.985-5.145.032c-2.83.018-9.926 1.144-15.77 2.503-5.843 1.36-14.843 3.018-20 3.686-5.156.668-14.437 2.042-20.624 3.053a2205.25 2205.25 0 0 1-25 3.887c-7.563 1.128-19.094 3.093-25.625 4.368-15.331 2.994-20.254 3.492-44.375 4.491-47.54 1.97-56.997 1.322-75.625-5.174-13.337-4.651-44.066-18.87-50.164-23.213-1.84-1.31-4.31-2.383-5.487-2.383-2.752 0-31.85-15.009-31.85-16.428 0-.59-.421-.983-.937-.874-.926.196-3.027-.478-8.997-2.886-2.39-.964-2.677-1.47-1.309-2.316.963-.595 3.323-.768 5.244-.384 1.958.392 4.309.023 5.347-.84 1.507-1.25 2.95-.896 7.707 1.892 5.5 3.223 5.95 3.297 7.462 1.229 1.501-2.053 1.943-1.938 6.54 1.703 5.183 4.105 8.393 4.93 9.245 2.375.33-.99 2.305-.107 5.597 2.5 5.651 4.476 8.419 5.027 10.106 2.013.987-1.764 1.8-1.529 6.5 1.875 5.554 4.023 9.981 5.053 10.015 2.328.057-4.67 2.125-4.757 8.65-.366 8.034 5.406 10.15 5.514 13.017.662l2.226-3.768 5.36 4.393c6.71 5.498 9.478 5.707 9.478.716 0-5.38 2.007-5.766 7.036-1.35 5.713 5.016 10.889 4.887 11.484-.287.218-1.89.658-3.437.98-3.437.32 0 3.358 1.406 6.75 3.125 3.391 1.719 6.467 3.125 6.833 3.125.367 0 .667-1.705.667-3.79 0-4.908 2.479-5.785 9.151-3.237 7.354 2.808 8.125 2.616 9.038-2.25l.802-4.277 4.767 1.682c2.622.925 6.646 1.865 8.942 2.09 3.689.36 4.197.043 4.364-2.718l.313-5.145c.112-1.843.717-1.855 6.889-.138 9.193 2.56 10.992 1.714 9.969-4.685-.93-5.819-.523-5.965 8.776-3.144 3.375 1.024 7.439 1.862 9.031 1.862 2.523 0 2.803-.463 2.176-3.599-.97-4.85.875-5.643 7.724-3.318 6.712 2.28 8.361 1.687 7.282-2.614l-.785-3.128 7.874.89c7.59.86 7.975.766 10.647-2.585 2.11-2.647 4.371-3.727 9.469-4.523 4.768-.745 7.416-1.926 9.196-4.1 1.902-2.325 4.234-3.267 9.759-3.942 5.545-.678 7.692-1.548 9.094-3.688 1.444-2.204 3.386-2.942 9.101-3.46 8.498-.771 12.67-2.977 12.67-6.697 0-2.394.915-2.749 9.063-3.512 11.967-1.122 13.053-1.522 13.962-5.144.709-2.823 1.372-3.082 7.937-3.097 9.793-.023 12.59-.974 14.663-4.983 1.686-3.26 2.313-3.46 12.555-3.997 10.119-.531 11.002-.804 14.41-4.451 3.27-3.498 4.038-3.77 7.7-2.719 7.055 2.023 12 1.429 14.788-1.778 2.262-2.602 3.17-2.826 7.804-1.93 6.867 1.33 17.119 1.398 17.119.114 0-.556.734-2.016 1.632-3.244 1.556-2.128 2.033-2.133 10.078-.115 7.743 1.941 8.628 1.951 10.653.119 2.87-2.598 6.687-2.471 15.137.5 8.51 2.995 12.037 3.105 13.537.425 1.059-1.892 1.956-1.78 10.134 1.25 10.325 3.827 13.27 4.101 14.796 1.376.955-1.708 2.285-1.475 10.72 1.875 10.111 4.017 14.458 4.68 16.605 2.532.89-.89 3.416-.175 8.109 2.294 5.312 2.794 7.412 3.32 9.517 2.38 2.162-.965 3.892-.414 8.694 2.767 3.852 2.55 6.935 3.734 8.624 3.31 1.6-.401 6.006 1.059 11.259 3.731 6.383 3.248 9.628 4.214 12.466 3.712 2.797-.495 5.667.321 10.586 3.011 5.06 2.767 7.161 3.348 8.396 2.324 1.243-1.032 2.479-.592 5.04 1.796 4.88 4.55 9.008 6.476 10.559 4.926.865-.865 3.424.154 7.975 3.175 5.216 3.464 7.081 4.134 8.417 3.025 1.316-1.092 3.305-.723 8.52 1.584 5.017 2.219 7.383 2.683 9.016 1.77 1.536-.86 3.43-.726 6.184.437 2.184.922 5.94 1.725 8.346 1.785 2.406.06 8.327.55 13.157 1.09 7.334.82 9.055.654 10.438-1.013 1.317-1.586 3.137-1.842 8.864-1.243 6.123.64 7.75.352 10.812-1.91 3.067-2.268 4.255-2.476 7.979-1.4 4.908 1.417 12.5 1.257 12.5-.264 0-.547.884-.994 1.965-.994 1.08 0 4.48-1.475 7.556-3.277 5.303-3.108 5.966-3.203 12.872-1.844 5.08 1 8.3 1.045 10.652.151 18.465-7.02 59.575-6.532 82.592.98 6.18 2.018 13.993 5.147 17.36 6.954 4.637 2.488 6.53 2.947 7.799 1.894 1.287-1.068 2.703-.49 6.1 2.493 2.433 2.136 6.517 4.974 9.076 6.307 10.773 5.61 13.6 11.209 9.582 18.979-3.855 7.454-29.183 14.84-71.804 20.94-26.377 3.775-37.503 5.603-43.75 7.188-3.782.96-12.217 2.93-18.745 4.377-6.529 1.448-15.09 4.258-19.027 6.245-3.936 1.987-7.747 3.613-8.469 3.613-.722 0-4.97 1.784-9.441 3.964-7.053 3.439-8.649 4.886-12.053 10.937-2.157 3.836-6.52 10.63-9.693 15.099-3.173 4.469-7.858 11.673-10.41 16.009l-4.64 7.883 2.356 4.62c1.296 2.54 4.171 10.523 6.39 17.74 2.218 7.218 5.23 14.464 6.695 16.104 2.658 2.977 14.34 8.894 17.559 8.894.935 0 3.029 1.106 4.652 2.458 3.542 2.952 3.916 2.887-15.174 2.606-18.734-.276-22.946-1.42-26.9-7.305-1.712-2.549-5.065-7.165-7.451-10.26-2.386-3.093-4.352-6.105-4.369-6.694-.017-.588-1.393-2.689-3.058-4.668-5.43-6.453-8.568-16.943-7.817-26.137.365-4.469 1.046-9.11 1.513-10.313 1.292-3.329-1.339-2.698-9.336 2.238-7.125 4.398-7.178 4.476-8.69 12.682-.837 4.541-3.549 13.554-6.027 20.027-4.385 11.459-4.451 11.882-2.487 16.002 1.576 3.304 3.196 4.556 7.383 5.705 10.247 2.813 17.239 6.869 17.239 9.998 0 .639-1.092 1.16-2.427 1.16-1.334 0-2.773.563-3.198 1.25-.908 1.47-16.094 1.505-20.625.05z"/></svg>