<svg xmlns="http://www.w3.org/2000/svg" xmlns:dc="http://dublincore.org/documents/dcmi-terms/" height="108.324" viewBox="0 0 455.713 108.324" width="455.713" overflow="visible"><metadata><dc:description>Silhouette of Contectopalatus atavus, processed by PhyloPic Tools (https://github.com/eweitz/phylopic-tools)</dc:description><dc:source>http://phylopic.org/image/43d9c329-edd4-4042-b6e1-0983c3b6748e</dc:source><dc:creator>Gareth Monger</dc:creator><dc:license>http://creativecommons.org/licenses/by/3.0/</dc:license></metadata><switch><g><path d="M1.25 65.114l-1.25-2s6.688-3.497 9.438-4.247c2.75-.75 23.312-4.003 27.812-5.503s24.75-11 32.75-15.5 16.795-6.652 19.545-7.152 13.11-9.396 20.11-11.396S137 13.364 164.25 11.864s26-1.25 30.5-3.75S220.1-1.289 220.6.211c.5 1.5 4.885 15.6 9.385 18.1 4.5 2.5 26.266 9.803 26.266 9.803s33 9.5 44.75 9.75 26.75.75 37.5-2.75 23.524-26.113 33.935-11.776C386.863 43.209 394 47.364 401.25 51.114s29.25 7 36.5 7.25 25.553 1.5 14.5 4.75-33.25 4.25-44 3.5-29.75-2.25-40.25-4.75-22.5-2.25-32.5 0-41.832 8.734-41.832 8.734 6.947 9.656 5.697 13.406 2.888 17.737-5.362 12.737c-8.25-5-18.753-22.877-18.753-22.877s-54.5 10.5-80.75 11.25-58.365-5.131-58.365-5.131 10.115 9.631 12.615 13.381 5 8.25 5 8.25 2.945 8.023-6.555 6.523-23.462-7.374-31.195-22.273c-2.888-5.565-7.35-9.903-7.35-9.903s-18.9-1.097-30.9-3.597S56 67.114 52 67.114s-26.103-.282-34.853.468-13.242 2.004-13.742 1.004-2.155-3.472-2.155-3.472z"/></g></switch></svg>