<svg xmlns="http://www.w3.org/2000/svg" xmlns:dc="http://dublincore.org/documents/dcmi-terms/" height="228.367" width="182.372"><metadata><dc:description>Silhouette of Coriobacteriaceae, processed by PhyloPic Tools (https://github.com/eweitz/phylopic-tools)</dc:description><dc:source>http://phylopic.org/image/b232b1a4-a90a-4c1f-9ff5-70d02da705ae</dc:source><dc:creator>Matt Crook</dc:creator><dc:license>http://creativecommons.org/licenses/by-sa/3.0/</dc:license></metadata><g stroke="#000"><path d="M123.138 51.583c-3.596-2.195-15.72 16.856-18.835 21.881-3.115 5.026 1.374 16.683 3.927 17.933 2.554 1.25 10.645-3.03 12.574-5.602 1.928-2.572 5.93-32.016 2.334-34.212zM70.378 131.417c2.873 3.081 15.065-5.918 19.416-9.921 4.352-4.003 3.163-16.438 1.04-18.328-2.124-1.89-11.068.055-13.617 2.014-2.55 1.96-9.712 23.153-6.84 26.235zM53.01 143.173c.54-4.179-12.218-9.923-18.077-10.72-5.859-.797-16.625 10.148-16.726 12.99-.101 2.84 10.312 11.018 13.447 11.732 3.135.713 20.817-9.824 21.357-14.002z"/><path d="M10.645 175.533c4.082 1.042 11.03-17.692 12.531-23.41 1.5-5.72-9.383-8.415-12.191-8.86-2.808-.444-9.285 6.024-10.372 9.05-1.088 3.025 5.95 22.178 10.032 23.22zM74.955 190.635c-1.135-4.057-44.309 5.118-50.013 6.672-5.705 1.555-2.607 12.331-1.59 14.986 1.016 2.655 9.854 5.039 13.018 4.47 3.165-.567 39.72-22.07 38.585-26.128z"/><path d="M27.932 207.452c4.175-.564.227-14.648-.525-20.513-.752-5.864-15.94-13.796-18.71-13.156-2.77.64-9.318 17.432-6.767 23.049 2.551 5.617 21.827 11.184 26.002 10.62zM136.309 20.837c.543 4.178 25.19-1.98 31.058-2.702 5.868-.723 16.46-8.412 14.191-13.463C179.29-.38 166.531.52 163.318.63c-3.214.11-27.553 16.03-27.01 20.207zM48.705 144.258c-.526 4.18 15.466-.06 19.358-2.015 3.891-1.955 6.174-5.453 6.266-8.295.091-2.842-5.691-7.425-11.943-3.807-6.252 3.619-13.155 9.937-13.681 14.117zM109.521 89.674c-.764-4.143-14.722 4.739-17.84 7.78-3.116 3.042-4.234 7.067-3.46 9.803.772 2.737 7.671 5.354 12.534.013 4.864-5.341 9.53-13.453 8.766-17.596zM128.35 31.565c-2.678-3.251-10.57 11.29-11.818 15.462-1.249 4.173-.272 8.234 1.733 10.251 2.004 2.017 9.306.956 10.965-6.074 1.658-7.03 1.8-16.388-.88-19.639z"/><path d="M124.453 38.107c2.12 3.641 12.402-5.39 13.597-7.411 1.195-2.02.738-10.232-.915-12.546-1.652-2.314-9.03-2.445-11.8 4.226-2.772 6.67-3.001 12.09-.882 15.731zM108.106 201.802c-.446-7.249-9.262-23.65-17.892-26.925-8.629-3.274-21.593 11.907-20.66 18.438.93 6.532 11.662 19.668 20.714 23.843 9.051 4.175 18.284-8.107 17.838-15.356z"/><path d="M110.97 227.854c3.514.507-3.486-14.253-5.94-17.85-2.454-3.596-5.804-5.719-8.134-5.818-2.33-.1-4.77 5.206-.439 10.986 4.33 5.78 11 12.175 14.514 12.682z"/></g></svg>