<svg xmlns="http://www.w3.org/2000/svg" xmlns:dc="http://dublincore.org/documents/dcmi-terms/" height="1517.442" viewBox="0 0 800.824 1517.442" width="800.824"><metadata><dc:description>Silhouette of Corvus ← Cissa, processed by PhyloPic Tools (https://github.com/eweitz/phylopic-tools)</dc:description><dc:source>http://phylopic.org/image/a2fd3f37-c57d-4216-a669-bd5a17c04bbf</dc:source><dc:creator>Greg Schechter (original photo), Renato Santos (vector silhouette)</dc:creator><dc:license>http://creativecommons.org/licenses/by/3.0/</dc:license></metadata><switch><g><path d="M636.92 475.3c12.057-12.058 19.755-28.389 31.564-36.55 21.563-21.563 70 48.75 44.75 71.75-6.389 6.389-56 64-53.441 75.25-5.309 0-9.809 19.104-.912 19.104 1.444 4.89.2 10.3-3.596 14.096-12.301 4.301 2.023 20.625-7.344 29.992-45.957-4.191-136.957 94.809-190.457 124.809-25 3-34.5 1-41.649 29.642-20.983 13.248-31.951 17.475-46.89 31.018-17.562 12.292-32.569 23.184-40.628 30.008-22.333 14.333-71.958-45.417-38.166-71.833 53.333-40.834 93.181-74.682 120.667-84.5C416.109 713.375 621.435 482.7 636.92 475.3z" fill="gray"/><path d="M387.151 858.417c.687-2.166-.449-7.759-6.542-8.333-4.262-2.167-11.161-10.144-13.779-14.192a831.866 831.866 0 0 0-9.846 7.025c9.99 13.511 14.834 22 19.902 21.604 11.844 10.93 25.43 18.636 33.765 5.396-4.834 2.167-18.415 4.915-23.5-11.5zM154.589 171.272c-1.24 5.879-1.854 10.228-1.354 26.978-3-10.25-1.422-22.074-1.422-28.914a138.222 138.222 0 0 0-3.77-2.474c-1.357 7.886-1.684 16.508-1.684 31.138-1.721-6.375-1.773-24.252-1.773-33.259a141.24 141.24 0 0 0-15.126-7.786c-2.802 5.342-8.22 21.982-11.226 29.67 1.375-8 7.993-27.239 8.741-30.736a138.717 138.717 0 0 0-15.148-5.33c-4.166 2.834-12.843 14.857-18.26 20.274 1.936-3.486 13.436-17.558 15.313-21.086a133.523 133.523 0 0 0-4.396-1.081c-4.845 2.24-10.667 7.998-20.876 15.459 8.722-7.38 14.474-13.07 17.571-16.169a131.07 131.07 0 0 0-12.246-1.875c-22.345 0-56.751-.51-80.698-4.582 0 0-5.585 1.933-8.236 1.933 9.256-19.62 45.834-32.849 80.985-44.849 9.333-3.833 23.924-13.424 28.616-18.116 1.777-1.776 4.796.283 7.383.283.834-4.834-6.629-4.963-3.466-8.126 14.467-9.374 58.633-46.374 96.466-58.874 16.625-4.101 35.25-9.5 52.25-13.75 1.5 5.375 37.75 4.75 47 3 1.376 1.376-2 2.75 21.75 6.992 16.25 0 82.863 40.872 114.014 88.494 9.75 9.75 23.526 19.634 33.736 26.014 1.75 12.75 54 33.5 64 43.5 40.363 34.613 56 86 61 122.25 3.5 12 7.252 25.75 9.75 41.25 8.151 21.353 12.69 37.82 18.046 67 2.704 39.283 11.954 128.875.454 138.75 0 37.062-2.097 54.111-6.5 69 4.594 11.413 22.75 34.5 25 52.793 23.2 35.393 54.5 68.457 40.883 93.824-5.822 6.143-18.139-1.361-30.383 3.883-5.75-11.25-12.25-11.75-17-9.75 3.295 17.907 8.775 30.128 17.157 63.407 2.774 11.016 10.401 42.259 13.579 54.579 11.442 44.365 29.514 100.139 44.139 146.889 15.223 57.203 18.875 66.697 26.875 119.875 22.75 112.329 54 207 54 244.228 3.75 56.022-2 81.272-20 114.022-4.455 4.455-11.8 7.5-20.434 7.5-3.566 0-2.316-10.5-.066-22.5-2.989 6.87-4 12.832-6.75 20.25-6.75 5.5-12.145-6.602-16.75-11.206 2-12.165.695-33.532 3.5-64.794-7.586 21.336-9.829 46.111-15.639 60.015-11.361-15.265-6.861-24.765-15.861-33.765.269 14.695-1.066 26.37-2.455 35.661-3.941 3.942-7.244-10.497-10.795-19.661 3.502 14.176 4.75 17.5 4.75 24.997-7.784 29.503-17.375 29.771-23.102 30.901-18.043.909-31.237-12.464-45.398-38.148-20.25-33.628-45.73-98.48-59.25-166.25 4-23.5-11.25-57-36-160.5-7.062-30.062-9.25-34-14.125-62.375-18.969-3.156-38.125-55.735-52.125-138.625-8.895-40.012-17-100.049-26.75-138.5-9.25-1.313-32 5.25-43.5-49.5-22.166-25.916-23.71-12.54-28.25-17.08-10.75-8.67-39.059 14.164-55.725 26.83 0-7.943.809-13.352.809-16.333-.903-1.686-1.834-1.833-2.667-2.666.834-7.5-1.935-6.82-3.438-7.51 4.938-8.157 1.902-7.561.492-8.972 4.613-8.186 7.113-11.184 3.865-11.184 14.914-32.086 23.18-85.838 25.982-97.236-33.689-23.221-85.567-79.433-115.71-170.93-18.166-56.42-35.358-122.905-21.858-203.67.356-32.189-19.087-62.855-47.894-83.477zm243.395 573.646c0-23.834.314-52.981-1.333-84.501-3.166-3.166-1.621-1.747-7.698-5.152 3.749 3.749 7.304 11.819 1.532 11.819-7-1.5-29.9-22.584-38-27.667-3.667 8.334-10.667 42.834-16 70.334 0 2 .899 3.733 2.509 4.176 0 3.206.523 7.022 2.87 7.536 6.454 19.454 17.954-17.712 28.62-8.713 4.834 4.834 21.083 22.251 27.5 32.168zM628.234 699c-8-1.25-5.631-15.881-2.799-17.808 6.122-6.12 4.549 16.058 2.799 17.808zm1.698-28.553c-5.197 0-4.828-10.414-1.996-11.58 4.166-1.75 5.246 8.33 1.996 11.58zM437.109 796.375c-1.852 1.852-7.754-4.496-6.375-7.875 3.25-3.25 8.5 5.75 6.375 7.875z" fill-rule="evenodd"/></g></switch></svg>