<svg xmlns="http://www.w3.org/2000/svg" version="1" width="356" height="354.254"><path d="M217.1 352.863c-2.221-2.252-4.18-3.697-9.216-6.796-5.008-3.084-6.696-4.556-7.82-6.82-.437-.881-.598-1.628-.722-3.336-.123-1.714-.059-6.122.11-7.498.19-1.553.493-3.135.844-4.413.96-3.503 2.163-5.786 5.602-10.634 2.646-3.73 3.764-6.083 4.3-9.048.415-2.301.592-7.092.35-9.513-.506-5.089-2.115-8.648-4.393-9.723-.589-.277-.754-.308-1.702-.321-2.053-.029-3.086-.465-15.146-6.389-10.546-5.18-12.592-6.142-17.747-8.345-6.09-2.603-11.108-4.297-15.094-5.095-3.209-.642-5.239-.699-8.004-.223-9.419 1.622-18.127 5.296-23.1 9.746-1.946 1.74-2.327 2.334-7.095 11.067-3.957 7.247-6.183 11.194-8.173 14.497-2.962 4.914-5.142 7.93-6.275 8.68-.814.54-1.197.375-1.515-.653-.261-.846-.237-6.139.05-11.027.355-6.027.45-9.208.391-13.147-.11-7.387-.738-11.311-2.542-15.896-1.61-4.09-3.144-7.081-5.615-10.948-1.94-3.035-2.388-4.187-2.277-5.86.14-2.1 1.186-3.69 7.144-10.869 4.45-5.36 6.341-7.922 7.291-9.873.784-1.61.933-2.782.442-3.472-.766-1.075-8.11-5.07-22.36-12.162-23.457-11.676-45.218-21.55-47.49-21.55-.166 0-1.088.182-2.05.406-2.905.675-10.387 2.293-10.602 2.293-.11 0-.998-.444-1.972-.986-9.062-5.046-15.862-7.852-17.991-7.425-.29.059-.588.083-.66.055-.551-.211-1.009-3.088-1.264-7.94-.183-3.482-.307-12.254-.407-28.944-.113-18.684-.2-22.28-.65-26.911-.282-2.907-.47-3.705-1.205-5.105-.62-1.184-.682-1.594-.295-1.982 1.017-1.016 6.127 1.286 7.3 3.29.28.476.419 1.206 1.154 6.013 2.457 16.075 4.498 23.709 6.634 24.814.277.143.329.141.629-.02 1.042-.562 3.033-4.203 5.685-10.397 5.685-13.28 13.172-35.4 14.55-42.991.11-.605.229-1.585.263-2.179.035-.593.098-1.043.14-1 .043.044.422 2.127.842 4.629 1.21 7.213 2.086 11.262 3.108 14.378.548 1.672 1.47 3.579 2.087 4.318.537.643.598.823.528 1.585-.064.713-.42 1.5-1.476 3.27-1.728 2.897-2.433 4.42-3.038 6.565-.423 1.503-.91 2.819-2.3 6.213-1.5 3.662-1.834 4.83-1.519 5.31.232.354.64.326 1.446-.098 1.102-.58 2.38-1.612 4.02-3.247 3.146-3.138 6.072-6.71 13.39-16.349 4.352-5.733 6.111-7.848 6.525-7.848.096 0 .177.135.22.364.053.28.295.6 1.049 1.385 1.095 1.14 1.503 1.847 1.777 3.076.202.907.223 3.437.04 4.773-.676 4.94-2.738 11.388-6.637 20.75-1.692 4.061-2.163 5.58-2.048 6.6.217 1.925 2.5.99 8.423-3.453a769.38 769.38 0 0 0 5.195-3.949c8.847-6.784 13.914-9.979 18.15-11.446 1.89-.654 2.315-.703 7.148-.815 4.892-.114 6.28-.097 6.456.079.291.291-.05.708-3.094 3.781-3.893 3.93-7.288 7.553-8.67 9.25-1.318 1.619-1.835 2.556-1.838 3.332-.002.41.043.528.293.76.48.449 1.056.557 2.904.543 3.935-.028 11.168-1.604 26.104-5.686 5.524-1.51 8.063-2.071 9.459-2.09.933-.012 1.208.13 1.077.554-.04.13-1.119 1.27-2.396 2.535-2.51 2.483-2.85 2.942-2.85 3.823 0 1.152 1.492 2.666 4.099 4.158 3.822 2.186 8.658 3.487 12.996 3.494 2.101.003 3.137-.13 5.21-.665 1.847-.478 3.125-.602 5.438-.527 2.355.075 3.772.226 8.648.917 8.328 1.18 11.164 1.356 14.378.888 1.922-.28 3.79-.968 4.93-1.815.69-.512 1.54-1.412 2.054-2.174 3.197-4.746 11.954-24.802 24.249-55.539a2309.46 2309.46 0 0 0 10.492-26.694c.877-2.282 1.739-4.394 1.915-4.693.746-1.267 2.303-2.627 4.487-3.92 2.543-1.504 4.904-2.508 13.529-5.754 8.374-3.15 12.219-4.77 16.796-7.08 5.654-2.852 6.427-3.363 19-12.562 10.183-7.45 14.003-10.207 18.72-13.513C304.48 10.034 315.414 3.89 323.175 1.83c3.416-.906 9.855-1.69 14.9-1.813 4.07-.1 6.374.217 7.223.994.63.576-.125 2.299-2.505 5.72-4.862 6.986-13.263 16.662-21.88 25.2-5.02 4.973-8.265 7.87-12.532 11.189-6.133 4.77-13.56 12.022-18.977 18.53-2.462 2.958-4.078 5.245-5.416 7.667-1.514 2.74-2.624 4.1-7.615 9.32-4.687 4.903-6.218 6.793-7.184 8.864-.589 1.263-.65 1.602-.65 3.63-.001 3.605-.767 10-2.25 18.777-2.808 16.634-6.307 30.584-9.033 36.016-1.025 2.04-3.235 5.037-5.527 7.491-1.21 1.295-2.526 2.564-5.185 5-3.056 2.799-4.238 4.155-4.51 5.174-.71 2.67-1.465 4.084-2.857 5.356-.816.746-1.563 1.228-3.53 2.279-4.86 2.594-7.789 4.824-8.606 6.552-.699 1.477-.234 2.096 3.05 4.055 2.334 1.393 4.832 2.729 9.455 5.053 10.49 5.277 19.336 9.112 22.505 9.758 1.338.273 1.51.346 1.472.623-.034.236-.29.381-2.78 1.574-1.281.614-2.133 1.21-2.489 1.744-.325.485-.258 1.097.224 2.065 1.426 2.868 5.374 6.71 7.908 7.698 1.249.486 1.478.48 4.203-.107 13.204-2.845 28.897-6.707 34.343-8.451 6.574-2.106 20.383-5.542 35.192-8.758 1.512-.328 2.93-.685 3.15-.792 1.213-.594 3.437-2.717 6.801-6.496 2.543-2.855 4.235-4.606 4.84-5.007.577-.383.93-.362 1.018.058.337 1.587-.648 7.262-1.976 11.38-1.07 3.32-2.33 5.668-3.487 6.496-.22.156-1.118.758-1.998 1.337-5.118 3.368-9.567 7.346-10.521 9.41-.229.495-.24.598-.175 1.562.108 1.577-.157 2.306-1.665 4.582-.447.674-.935 1.497-1.085 1.829-.484 1.07-1.585 1.873-6.85 5-5 2.97-6.973 4.294-8.183 5.49-.688.68-.959 1.216-.963 1.904-.011 2.237-1.46 6.836-2.68 8.507-.482.66-1.338.985-5.67 2.155-1.43.386-3.66.988-4.955 1.34-5.784 1.564-8.674 2.611-10.02 3.63-.563.425-.673.639-2.034 3.956-1.675 4.08-2.837 6.244-3.738 6.958-.73.578-1.921.621-5.397.198-4.362-.532-6.815-.632-8.454-.346-1.362.237-2.309.726-2.767 1.429-.857 1.315-1.06 1.565-1.556 1.92-1.16.83-2.274 1.069-5.619 1.2-3.151.123-3.665.202-5.938.91-5.658 1.765-9.638 2.683-12.33 2.847-1.317.08-1.911-.033-2.927-.556-1.597-.821-4.808-1.72-7.545-2.114-1.188-.17-1.806-.205-3-.168-1.848.056-2.157.162-3.402 1.165-.655.527-1.31.926-2.4 1.462-1.188.583-3.2 1.387-4.013 1.604-.31.082-.305 10.007.006 11.685.197 1.062.383 1.49.711 1.64.244.111.865.247 6.746 1.473 7.011 1.461 10.997 2.717 12.38 3.902.824.705.859.689-1.523.705-5.536.038-13.084.983-14.489 1.813l-.317.188.027.992c.043 1.6.305 3.844.571 4.906.286 1.136.946 2.541 1.608 3.422 1.367 1.819 3.714 3.701 7.185 5.763 2.197 1.304 2.07 1.283-2.243-.372-5.023-1.928-5.34-2.013-5.664-1.52-.629.96.576 5.03 2.872 9.701.436.887.792 1.686.792 1.775 0 .768-2.494-1.117-4.568-3.452-2.708-3.05-4.226-5.424-5.114-8.001-.222-.642-.479-1.317-.571-1.5-.58-1.143-1.507-1.846-2.315-1.755-1.25.141-2.315 1.674-2.901 4.172-.136.578-.489 2.062-.785 3.3-.747 3.122-.874 3.922-.879 5.499-.006 2.15.435 3.382 1.623 4.529.799.77 1.309 1.04 3.155 1.67 6.715 2.289 12.504 6.673 14.755 11.173.428.857.867 2.262.964 3.087.107.909-.134.743-1.837-1.267-.997-1.178-2.07-2.198-2.802-2.667-.88-.562-1.474-.729-2.606-.729-1.43 0-1.72-.115-4.209-1.675-1.444-.905-3.074-1.665-4.257-1.986-.898-.243-1.172-.271-2.7-.275-1.52-.004-1.824.025-2.896.276-1.71.401-2.96.864-4.902 1.814-2.104 1.03-3.291 1.724-3.926 2.294-1.178 1.06-1.721 3.008-1.511 5.423.307 3.546 2.142 7.72 3.57 8.125 1.117.316 3.4.533 6.954.66l1.887.069-.705.326c-2.307 1.069-3.748 2.607-3.58 3.823.078.577.722 1.737 2.786 5.021 2.138 3.401 2.695 4.312 2.656 4.345-.018.016-.662-.61-1.432-1.39zm.43-71.704c.017-.227-.082-1.014-.22-1.75-.458-2.444-.508-2.973-.509-5.335 0-1.556.062-2.92.194-4.217.153-1.508.17-1.972.077-2.174-.151-.332-.428-.33-1.001.005l-.448.262-.86-.209c-2.225-.54-4.166-.718-5.273-.483-1.423.303-2.242.922-3.578 2.705-1.9 2.537-2.958 4.366-2.958 5.118 0 .717.257.84 2.358 1.134 2.801.391 3.047.495 8.04 3.392 2.781 1.614 3.59 2.028 3.899 1.994.215-.025.254-.085.28-.442z"/></svg>