<svg xmlns="http://www.w3.org/2000/svg" xmlns:dc="http://dublincore.org/documents/dcmi-terms/" height="116.185" version="1.2" viewBox="0 0 52.702 116.185" width="52.702" overflow="inherit"><metadata><dc:description>Silhouette of Corvus corax, processed by PhyloPic Tools (https://github.com/eweitz/phylopic-tools)</dc:description><dc:source>http://phylopic.org/image/36f21978-8394-47b3-9602-b7a41113103b</dc:source><dc:creator>Derek Bakken (photograph) and T. Michael Keesey (vectorization)</dc:creator><dc:license>http://creativecommons.org/licenses/by/3.0/</dc:license></metadata><path d="M24.788 96.542c3.024 5.062 4.168 11.084 5.307 17.108 1.44-4.548-.503-9.018-1.931-12.734 3.231 4.701 5.084 10.108 7.417 15.269.835-4.81-2.453-9.164-4.287-13.246 3.22 4.01 5.512 8.491 8.531 12.603-.029-3.987-3.521-7.855-5.335-11.567 2.937 2.692 4.656 6.008 8.117 8.433-1.087-2.558-2.959-4.715-4.235-7.175.878.002 1.529 1.756 3.13 2.022-.819-1.487-1.395-3.099-2.316-4.534-.092-.927.82.114.907-.463-.03-1.256-.759-2.154-.938-3.332.057-.758.768-.235.826-.993.322-1.987-1.963-3.199-.193-4.856-.145-1.577-1.836-2.365-.797-4.547-1.173-2.247-1.47-5.168-.898-7.354-1.557-2.508-1.109-6.038-2.804-8.477.061-.751.611-.544.672-1.296-1.268-2.655-1.436-5.871-4.014-7.859 4.866.463 7.915 6.096 13.114 7.023 1.179-1.422 1.818-2.08 3.467-2.914.553-2.356 2.512-6.527 4.174-8.991.043-.756-.644-1.818-1.229-1.659.41-.192.547-.918.746-1.524-.718-.65-1.025-1.509-2.444-1.801-.457-1.606-4.243-5.145-5.894-5.946-2.227-1.081-5.425-1.758-7.294-.849-2.244 1.091-4.129 4.305-5.885 4.148-3.897-.346-1.344-5.712-4.463-7.248.146-1.345.013-2.548-1.242-3.177.094-5.065-3.786-8.103-4.132-12.943-1.485-1.147-1.684-2.951-2.013-4.689-.755-.123-.29-.868-1.222-.9-.412-1.314-.681-2.702-1.248-3.936l-1.142-.37c-.526-3.098-2.498-5.458-2.126-9.015-1.188-.212-1.135 2.007-2.029 2.371-.217-2.748.884-6.168.004-8.577-1.211 2.208-2.25 5.975-2.736 8.448C7.727 7.438 9.197 2.813 7.119 0c-.854 2.977-.439 6.956-1.428 10.637-.146-3.609-.38-7.174-2.36-9.846-.52 3.378.857 7.438.325 11.458-.57-3.075-1.493-5.97-3.638-8.242-.21 1.76 1.445 4.215 1.724 6.36-.164 1.089-.513-.552-.678.537 3.167 8.668.188 20.607 4.268 28.881 2.188 4.437 5.053 7.676 6.328 12.394-2.547 1.99-6.193 3.774-8.148 5.686.88.105 1.92.526 2.66.356.563.283.468.903 1.147 1.128 3.606 1.013 7.7 2.434 8.554 6.304.534 2.421.397 5.425.521 7.737.146 2.694.077 4.803.897 7.354 2.485 7.729 8.117 14.489 7.789 23.462 1.09-2.4.259-5.466-.292-7.664z" fill-rule="evenodd"/></svg>