<svg xmlns="http://www.w3.org/2000/svg" xmlns:dc="http://dublincore.org/documents/dcmi-terms/" height="2633.006" version="1.2" viewBox="0 0 2127.725 2633.006" width="2127.725" overflow="inherit"><metadata><dc:description>Silhouette of Corystes, processed by PhyloPic Tools (https://github.com/eweitz/phylopic-tools)</dc:description><dc:source>http://phylopic.org/image/97305ca8-3b6c-418a-a8ab-458735105378</dc:source><dc:creator>Hans Hillewaert (vectorized by T. Michael Keesey)</dc:creator><dc:license>http://creativecommons.org/licenses/by-sa/3.0/</dc:license></metadata><path d="M129.109 837c-4.695-1.818 2.602.135 5 0a633.983 633.983 0 0 1 49-40c.888-1.778 2.792-2.542 2-6 8.478-1.793 15.749-9.212 14-18 1.182 1.151 3.535 1.132 6 1 17.502-15.498 35.094-30.906 48-51 9.357-2.977 13.94-10.727 19-18 2.928.261 3.072-2.261 6-2 4.066-9.934 13.69-14.31 18-24 3.618-.715 5.382-3.285 9-4 9.169-22.498 30.93-32.404 44-51 16.173-6.827 24.884-21.116 41-28 14.081-25.586 45.533-33.8 63-56 28.795-17.871 39.577-53.757 64-76 9.823-6.713 18.509-.463 32-2 11.24-1.28 23.722-8.373 36-13 8.869-3.343 19.308-2.158 24-10 42.839-10.632 98.956-38.321 153-47 34.94-5.611 71.957-7.512 95 9 13.783 9.876 35.873 43.172 16 63-14.199-11.468-41.352-40.517-64-20-.811 5.478 4.461 4.873 4 10-10.993-5.516-28.056-13.34-37-1 .145 5.775 9.977 6.344 8 11-20.721-7.176-37.771.434-52 10-.582 8.249 7.963 7.37 13 10-6.149 4.129-18.292.571-24-2-8.071.044-12.065 9.299-18 3-6.511 6.489-15.938 10.062-22 17 1.676 5.657 8.375 6.291 15 7-7.785 5.672-18.236.472-25-3-9.824 10.842-29.222 12.112-34 28-.467 2.134 1.429 1.905 3 2-1.457 3.67-5.223-.768-8 2 .827 2.827-1.41 2.59-1 5 17.25-.42 35.995-8.003 46-19 14.797 1.574 26.088.35 40-5 6.474-2.49 12.908-8.636 18-9 6.327-.453 12.626 4.564 19 5 10.386.71 17.662-6.078 29-3 2.18 2.154 2.512 6.154 4 9 9.371-1.371 14.262 1.738 18 6 13.822 3.02 23.279-7.407 33-2-10.742 33.258-51.882 36.118-85 47-3.506.272 1.807 4.428-1 4-12.241-.028-24.174 2.886-34 7-23.031 9.643-47.613 19.884-66 32-21.11.223-30.456 12.21-43 21-3.583.084-5.778 1.555-9 2-25.276 15.649-50.13 28.636-71 48-23.75 22.036-38.823 53.359-68 70-8.146 19.854-30.04 25.96-40 44-2.356-.022-2.944 1.723-6 1-18.988 24.678-48.151 39.183-67 64-10.541 2.792-17.046 9.62-22 18-19.119 10.548-31.144 28.189-51 38-1.352.982-1.999 2.668-3 4-14.873 2.794-20.037 15.296-34 19-4.063 3.937-6.743 9.257-15 9-20.748 17.252-49.521 26.479-75 39 2.582 9.62 11.173 17.885 8 30-.182 2.182.818 3.182 3 3-13.006 7.841-1.917 24.426 4 33 .49 6.843.284 14.382 7 15 .483 3.15-3.069 2.264-2 6 3.042 4.291 9.9 4.766 13 9-.086 1.419-.165 2.832 1 3-7.519 7.924-13.235 20.923-8 36 .431 2.236 4.928.405 7 1-1.14 3.193-7.133 1.534-8 5 4.011 5.652-3.52 9.385 2 14-3.164 1.778-6.262 15.374 2 14-.744 2.923-5.398 1.936-5 6 9.005 20.661 18.144 41.189 36 53 14.711-2.104 24.428 9.714 35 14 1.31.531 4.382-.839 4-1 .778.328.793 2.941 1 3 3.732 1.053 8.489-.545 12 1 9.092 4.001 12.267 19.014 25 17 1.437 5.896 3.892 10.775 11 11-.907 9.241 6.767 9.899 8 17 9.009.658 14.648 15.76 28 12 15.188 17.812 39.818 26.182 63 36 16.179 10.487 30.958 22.375 50 30 13.441 16.226 37.775 21.559 51 38 3.25.75 6.189 1.811 9 3 5.11 13.89 19.558 18.442 27 30 14.224 3.776 23.562 12.438 31 23h8c2.423 14.91 21.343 13.324 27 25 3.752.914 7.069 2.265 11 3 .582 7.465 10.5 9.654 17 15 1.745 1.435 2.195 4.634 4 6 5.033 3.81 12.395 6.944 18 11 11.365 8.223 30.772 24.044 34-1-3.825-16.872-4.225-35.581-8-53-2.115-9.761-10.745-26.501-1-41 8.685 3.493 8.512 16.084 14 24 7.599 10.96 21.447 15.213 35 6-.416-4.749.486-8.181 2-11 13.016 1.344 15.107-4.975 21-12 4.917-5.862 12.906-11.85 16-17 4.219-7.023 5.186-15.958 15-18-.802-3.469 1.489-3.844 1-7 10.421-6.913 18.83-15.836 26-26 10.789-1.544 14.29-10.377 20-17 2.268-14.42 2.958-36.182 5-53 1.299-10.693 1.987-24.066 10-28 1.574 11.759 5.423 21.244 13 27 8.866-7.184 19.942-10.164 34-14 8.153-2.225 15.062-11.448 19-12 5.17-.725 9.869 4.502 15 3 7.519-17.642 15.514-33.443 21-55 1.03-4.303 6.602-4.065 5-11 7.068-5.932 12.431-13.569 20-19 17.689-4.311 33.684-10.316 36-30 2.412-1.921 3.971-4.696 6-7 1.302-32.31-1.106-66.578 6-101 .864-4.188 4.1-7.649 5-12 .956-4.622-.91-8.913-1-14-.213-12.083 1.907-23.396 4-36 1.93-11.622.766-24.248 2-37 .56-5.78 3.335-11.207 4-17 2.193-19.109-.306-37.721 3-57 1.945-11.342 4.791-24.299 6-41 1.753-24.208 8.245-46.95 10-66 1.036-11.246.821-28.372 2-42 1.065-12.314 6.333-29.349-5-34 2.6.4 3.016 2.984 6 3 4.447-10.22.826-28.507 2-42-6.243-3.757-12.196-7.804-18-12 5.255-1.235 11.521 5.131 17 7 4.082-33.454.943-68.329 2-103 1.177-38.631-3.432-77.966-5-118-2.587-66.049-4.693-134.235-12-201-3.315-30.293-10.322-57.706-11-85-.427-17.181.852-34.249 0-53-1.163-25.591.216-55.536 0-81 4.438 35.606 4.101 74.112 8 108 4.335 37.676 11.004 75.897 15 114 2.007 19.138 6.444 36.75 8 55 4.562 53.514 8.696 106.574 13 159 .644 7.839 3.921 15.259 5 23 3.049 21.872 3.27 44.162 6 66 1.244 9.948 1.394 21.227 2 32 1.471 26.128 4.881 50.493 7 78 1.31 16.994.48 34.261 2 51 1.855 20.44 5.931 42.602 9 66 2.949 22.479 1.604 46.413 4 67 7.127 61.221 8.104 122.656 18 183-.839 2.828-1.161 6.172-2 9-.056 4.389 3.309 5.358 4 9-.995 6.292-4.382 9.25-4 16 .332 5.871 5.168 9.909 6 15 1.834 11.222-2.989 24.676 9 29-1.781 14.445-3.744 40.13-3 59 .526 13.343 3.285 22.778 13 26-1.725 11.058 5.024 13.643 12 16 3.936 1.602.348-4.318 3-4 26.709 8.625 41.297 29.37 47 59 1.44 3.893 5.408 5.258 7 9-3.006 8.65 4.591 12.717 4 22 1.23 1.117 2.054.871 2-1 3.629.909.609 2.951 1 6 4.456.123 6.199-2.467 10-3 12.492 10.683 30.242 19.715 47 23 9.879 16.449 17.503-8.564 20-18 24.104 26.875-6.029 94.8 34 108 5.17 11.831 13.925 20.075 23 28-.409 2.409 1.826 2.174 1 5 9.488 6.845 10.663 22.004 19 30 .848 1.486 3.22 1.447 5 2 2.074 7.022 10.279 16.315 21 18 5.579 6.889 13.235 13.296 22 12 15.368-2.273 13.932-24.354 23-33 7.324 5.271 6.896 17.938 6 27-1.699 17.195-9.514 37.267-12 52 4.557 1.877 9.141-3.94 12-7 19.352-14.315 40.443-26.89 57-44 2.355.022 2.944-1.723 6-1 2.482-6.092 9.179-5.9 14-9 4.256-2.736 6.188-7.709 10-11 3.849-3.321 14.389-6.586 17-13h5c10.637-10.029 21.173-20.16 35-27 1.407-1.926 2.643-4.023 3-7 19.777-8.557 33.252-23.415 50-35 12.18.514 13-10.333 24-11 18.072-16.262 47.04-21.627 65-38 8.675.01 13.304-4.03 15-11 7.12-1.524 14.919-3.372 21-7 10.598-6.323 32.396-11.818 35-27 19.551-17.783 47.981-26.685 67-45 8.002 2.305 11.383-4.904 17-6 4.576-.893 10.6 2.578 15 0 24.148-14.149 40.96-36.173 41-72 .015-13.046-3.055-28.397-1-41 .33-2.022 2.085-4.118 2-6-.476-10.569-12.641-14.78-8-27 2.146-1.853 7.325-.675 11-1 6.276-4.017 11.597-14.039 10-20 21.168-7.815-1.404-43.932 18-55-11.869-8.617-27.118-18.673-45-18v-6c-2.443-.89-4.336-2.331-8-2-1.02-1.314-.98-3.686-2-5-19.586-6.748-31.212-21.455-50-29-3.516-3.151-4.634-8.699-12-8-1.07-3.596-2.781-6.552-5-9-9.018-1.648-11.284-10.049-20-12-9.354-13.313-26.715-18.618-38-30 .319-2.319-.161-3.839-1-5-28.906-25.093-52.741-55.259-84-78-.714-6.953-7.454-7.879-8-15-7.251-4.416-13.334-10-17-18-3.159-.507-4.39-2.943-8-3-25.062-36.604-59.624-63.709-79-106-6.038-2.962-12.784-5.216-14-13-3.754-1.246-7.381-2.619-12-3-3.987-4.346-7.464-9.203-11-14-8.12-.546-11.466-5.867-15-11-2.348-.319-3.754-1.58-7-1-3.35-1.984-4.541-6.125-10-6-4.704-7.295-13.606-10.394-19-17-26.804-12.53-48.475-30.191-77-41 .178-3.511-3.378-3.289-4-6-9.465 3.266-12.148-6.568-19-9-5.59 1.077-10.433 2.9-16 4 3.15-2.183 6.299-4.368 9-7-12.688-5.635-28.278-19.866-44-13-3.334-.262-6.492-4.007-4-7-16.505-6.35-38.216-13.289-48-27-2.82-3.952-7.1-11.82-4-18 14.203.354 28.875 11.749 38 0 5.061-.728 5.922 2.745 10 3 3.33-3.003 3.601-9.066 7-12 13.872-1.539 19.704 4.962 27 10 3.419-1.51 9.06-3.382 12 0 10.981-10.17 28.436-1.706 32 10 10.748-2.081 11.485 5.848 19 7 2.047-.048 7.454-1.752 4-4 12.24 1.764 20.382 16.282 35 19 4.018-.316 4.565-4.102 8-5-.859-3.474-5.194-3.473-7-6-.572-16.094-16.947-16.386-23-27-5.48 1.381-17.893 9.246-29 5 5.621-4.379 16.049-3.951 20-10-9.019-8.981-20.45-15.55-31-23-5.862 5.225-16.141 11.075-24 11 6.77-3.897 13.413-7.92 18-14-5.685-9.315-23.075-6.924-28-17-9.174.155-12.998-8.586-21-8-6.264.459-8.592 7.017-16 8 3.043-4.624 8.066-7.267 12-11-11.38-7.826-28.547-16.381-42-6 1.851-4.15 4.627-7.373 8-10-5.04-6.959-17.584-6.417-25-11-19.079 1.666-26.863 19.697-45 19-11.063-27.302 22.521-59.166 51-63 29.721-4.001 62.444 10.704 88 12 17.416 7.074 31.702 12.78 51 19 24.985 16.682 53.805 29.528 82 43 1.789 1.877 3.571 3.762 5 6 21.544 3.822 31.834 21.38 52 24 11.241 1.46 22.879-3.291 32 3 18.871 13.016 30.35 40.526 45 61 7.229 10.101 14.385 18.616 19 29 9.635 7.365 20.646 13.355 27 24 12.083.971 14.984 14.016 23 20 2.077 1.551 5.046 1.434 7 3 .994.796.925 3.988 2 5 1.804 1.699 5.572 1.677 7 3 5.039 4.669 10.031 11.524 13 18 13.337 5.33 14.642 22.692 29 27 .576 2.091 2.479 2.854 2 6 18.753 12.914 28.478 34.855 46 49 3.458 14.209 19.432 15.902 23 30 2.833.167 4.167 1.833 7 2 7.74 17.351 24.893 25.471 37 40 4.994 5.993 9.405 11.921 15 18 1.805 1.96 2.342 5.296 4 7 1.416 1.455 4.53.659 6 2 4.914 4.484 7.389 13.183 15 14 .83 2.503 2.739 3.927 3 7 2.355-.022 2.944 1.722 6 1 5.347 11.986 17.272 17.395 25 27 3.059.726 2.941-1.726 6-1-7.788 4.657 15.234 16.917 16 25 1.892 1.108 4.725 1.275 7 2 20.188 23.479 45.348 41.986 59 72-.456 10.123.638 18.695 5 24 2.711-.622 2.488-4.178 6-4-1.703 1.964-2.335 4.998-5 6 7.898 4.363 10.615 12.109 17 19 14.117 15.235 31.07 25.321 27 55-1.732 12.632-9.725 22.986-11 37-.577 6.343 1.427 13.576 1 21-1.486 25.858-14.973 47.278-20 66-8.479 9.854-10.182 26.485-19 36 .311 3.977-2.311 5.023-2 9-12.99 21.894-26.784 42.144-43 62-5.106 6.253-10.27 14.107-16 19-6.921 5.909-15.605 9.606-22 16-8.667 8.667-13.705 20.962-25 27-1.799 12.534-5.703 22.963-11 32-4.576 2.758-9.806 4.861-15 7-2.604 6.514-7.984 10.111-12 16-4.191 6.147-4.875 14.422-9 20-2.552 3.45-8.387 5.425-12 9-11.339 11.218-23.911 28.924-36 38-4.142 3.109-9.003 4.869-14 9-8.311 6.87-16.262 13.758-25 21-7.403 6.137-12.795 12.638-22 17-1.407 1.926-2.643 4.023-3 7-23.03 6.637-35.099 24.235-56 33-14.06 15.94-33.971 26.029-51 39 7.291 17.721 21.645 31.397 18 57 10.175 1.509 8.466-8.867 15-11-6.977 14.356-6.078 36.589-12 52 .981 2.803 2.668-1.452 4 1 .146 7.504.881 9.998 0 17 5.856 5.144 10.671 11.329 10 23 5.146.812 6.116-2.551 6-7 6.372 36.505-6.431 72.12-24 103-8.32 14.624-23.143 29.575-35 39-6.854 5.448-14.096 9.601-21 15-4.764 3.725-8.923 11.479-13 17-7.624 10.324-18.337 21.696-31 29 6.644 9.177 25.145 1.178 35 6 9.214-10.453 18.786-20.547 26-33 4.226 5.089-5.257 8.997-6 14-2.537 17.085 19.177 19.164 32 25 3.869-.464 3.151-5.515 5-8-.39 10.926 2.948 20.032 11 25 5.083-4.478-.496-13.648-1-19 6.699 7.968 7.939 21.395 15 29 2.307-4.027 2.787-9.88 5-14 2.739 5.084-2.979 16.718 1 26 8.712-.287 11.033-6.967 15-12 2.592 7.94-2.249 17.073-3 25 6.975 4.644 14.389 1.938 20-2-.957 10.376-8.942 13.724-11 23 1.078 1.655 8.922 1.655 10 0 1.854 1.92-3.583 5.034-2 10 .14 2.86 4.171 1.829 7 2 .937 4.211-.77 8.108 4 10-3.087 5.806-.461 11.325-2 18-18.354 5 2.353 27.605 8 9 2.293 3.011-2.842 7.12-3 11 5.838 4.784 9.1 14.188 10 25 2.812 33.766-6.305 81.742-20 106-6.6 3.011-17.575 4.228-22 12-3.056.723-3.645-1.022-6-1-20.305 9.029-37.67 20.997-58 30 .195 17.73-14.344 25.38-11 43-2.319.319-3.84-.16-5-1-5.522 9.145-12.635 16.698-18 26-.305 2.638 2.088 2.579 4 3-2.955 2.045-8.962 1.038-12 3 .352 2.981.578 6.089 3 7-6.705 4.295-13.645 8.355-21 12-5.564 19.641 1.708 29.818 8 49 3.559 10.85 5.932 23.375 9 32 6.219 17.483 27.504 29.455 15 51 3.896-19.945-14.356-41.139-35-30 .658 1.342 2.138 1.862 4 2-.479 2.627-6.65-2.498-8 1 .206 6.794 10.25 3.75 11 10-1.238 5.601-10.399 1.067-15 1-3.302 1.99 2.479 4.271 0 5-6.096-1.096-5.343 4.657-11 4 1.664 6.67 8.781 7.885 13 12-6.654.974-12.904-7.086-19-10-3.82-.487-3.13 3.537-5 5-3.787-.546-6.248-2.42-11-2-3.779 6.078-3.136 10.406-5 18-1.44-.227-.35-2.984-2-3-1.146 6.025-2.57 15.392-1 21-5.34-3.326-5.333-12-9-17-6.769 6.095-1.635 17.942-6 26-2.323 2.416-2.677-1.562-5-2-2.666 3.334-2.693 9.307-9 9-2.159-2.174.343-9.01-3-10-8.983.387-1.94 13.584-8 15 .254-5.92.55-11.883-4-13-1.895 3.439-.433 10.234-2 14-3.861-.472-1.869-6.799-4-9-7.612-.946-4.45 8.883-8 12-2.942-2.74 3.738-8.317 0-12-9.941 4.222-18.934 8.293-21 20-2.066 11.711 3 27.219-9 33-3.613.947-1.395-3.938-2-6-4.575 2.092-3.853 9.48-11 9-.01-2.656.378-5.711-1-7-4.838 1.828-3.899 9.434-9 11-3.899.231-1.152-6.18-4-7-4.369 2.964-4.594 10.073-11 11-.022-2.355 1.723-2.944 1-6-5.797.536-5.008 7.66-12 7-.723-3.056 1.022-3.645 1-6-4.965 1.369-6.729 5.938-11 8-3.729-.097-.067-3.903-2-4-3.948-1.281-2.42 2.914-5 3-3.902.652.512-3.803-1-7-6.04 11.102-18.664 9.704-24-1-6.339.339-12.418.418-14-4-11.5-.046-21.91 8.18-34 10-7.096 1.068-16.305-1.15-26-2-38.765-3.396-73.749-8.486-115-16-26.901-4.9-44.741-10.445-69-15-34.715-6.518-67.537-15.644-90-34 36.838.919 74.809-3.479 114-4 22.585-.3 46.227 2.189 69 2 31.511-.263 71.932 10.863 99 15 6.764 1.033 19.499 2.208 24 1 13.901-3.73 18.661-26.271 31-29-1.031-3.302-10.516 1.85-10-3 10.146-1.188 18.002-4.664 22-12-1.596-2.738-7.549-1.118-10-3 22.354.354 31.281-12.719 45-21-66.182 1.123-135.66 9.641-209 6-40.105-1.99-87.875-6.193-119-26 41.197 7.408 89.938-4.217 130-2 2.953-.869-2.32-1.497-1-4 9.441 7.155 27.596 2.061 39 3 15.511 1.277 32.195-5.189 48-5 .741-4.124-5.159-6.774-3-9 7.971-4.689 7.342 5.103 14 7 5.498-6.45 1.463-16.986 8-23-4.079-19.588-28.848-18.485-42-29-9.479 4.765-28.863 5.9-38 0-2.764.236-.358 5.643-4 5-.046-5.287-2.95-7.717-7-9-2.638-.305-2.579 2.088-3 4-1.567-5.415-6.491-8.234-11-13-4.142-.142-1.041 6.959-2 10-1.587 1.789-1.587-10.469 0-12-3.339-2.717-6.082-6.541-10-6-.723-3.056 1.022-3.645 1-6-17.753-3.15-16.679-27.818-34-28-9.854-.104-23.431 12.72-38 15-5.992.938-11.615-.679-19 0-5.274 3.536-8.356 3.061-12 8-17.047.426-30.379-11.972-55-6-4.24 1.028-6.32 3.282-9 7-2.474-.859.294-6.961-2-8-3.462-1.539-9.116-.884-14-1-7.745 9.726-11.831 29.262-10 40-2.151 3.662-2.318-2.899-2-5-3.782 3.219-5.603 8.397-9 12-1.082-6.382 6.273-10.107 7-18 1.016-11.036-6.076-22.736-11-30-16.283 1.561-34.77 14.061-50 7-2.988.345-3.982 2.685-5 5-2.53-.804-2.55-4.116-4-6-30.45-8.693-70.686-8.805-95-26-5.592 4.407-7.292 12.709-9 21-2.886 3.311-2.364-4.061-5-1-18.961 16.756-38.137 54.104-71 41-16.174 6.493-24.021 21.312-39 29-11.748-.999-25.895 3.137-34 9-7.863-4.178-27.168 2.524-35 8 1.283-1.314 1.283-3.686 0-5-42.058 13.996-107.068 2.435-145 25 12.594 13.406 29.458 22.542 43 35 16.999 2.002 25.477 12.523 35 22 23.818-2 51.885-3.71 73 2-5.401 6.422-14.908 2.299-23 3 .869 9.809-12.805 23.82-2 31 2.5 1.661 9.463 3.041 15 6 7.699 4.114 12.972 9.598 24 10-15.146 16.578 7.224 42.001 21 44 10.208 1.481 28.071-7.607 42-11 51.374-12.512 116.32-18.705 166-28 2.288 1.045 6.032.635 8 2 3.64-1.026 6.186-3.148 10-4-1.146 3.146 1.57 2.43 2 4 22.167-2.947 52.748-5.834 79-8 3.128 2.088-6.029 8.423-10 10-22.502 18.165-55.504 25.83-83 39-8.448.814-23.824 2.65-29 10-4.229-1.318-12.196.498-18 2-21.977 5.687-44.541 14.902-69 20-26.752 5.575-54.506 9.261-84 12-4.562.104-4.079 5.255-8 6-14.381-9.07-38.011-7.438-55-9-1.954 3.047-2.129 7.871-4 11-5.191-.476-7.641-3.692-11-6-1.795 1.539-.805 5.861-4 6-4.917.25-2.033-7.301-5-9-4.289.711-3.809 6.191-6 9-4.947-2.053-6.252-7.748-9-12-6.523.144-8.537 4.797-11 9-4.951-4.383-7.145-11.521-13-15-2.537 2.13-1.08 8.254-6 8-1.108-1.892-1.276-4.725-2-7-5.472 8.454-6.237-7.484-11-3-1.497-3.836-3.048-7.619-6-10-3.838-.172-2.162 5.172-6 5-.342-10.773-6.158-19.884-4-30-3.729-1.062-1.583 3.75-5 3v-8c-8.43-1.903-6.787-13.88-18-13-5.596 2.404-5.342 10.658-12 12-1.774-1.893-.729-6.604-1-10-.898-2.704-2.414 2.109-3 3-3.085-5.581-1.824-15.509-6-20-10.123-2.773-16.221 2.802-23 8 1.246-4.754 2.98-9.02 5-13-5.466 1.534-9.37 4.631-13 8-1.452-7.82 4.398-22.273-4-27-10.063 3.604-20.473 6.861-31 10-1.177-6.365 5.965-12.562 8-19-10.351.272-24.708-2.092-36-4 2.532-5.469 13.401-2.599 13-11-1.453-1.698-5.316 2.643-7-1 5.234-10.1 15.016-15.65 20-26-16.207 10.342-27.147-3.797-41-9-14.654-5.504-31.486-5.283-40-15-4.049-.283-6.951-1.716-11-2-9.011-6.867-17.954-13.229-24-26-10.184-21.51-26.05-51.619-36-70-10.378-19.174 1.811-42.592 10-58-1.438-6.562-6.02-9.979-8-16-6.761.705-5.156-3.434-10-6 .712-2.622 5.708-.958 6-4 1.36-11.694-9.652-11.015-13-18 4.765-4.676 13.842-9.371 14-18-7.398-3.268-13.297-8.037-16-16 5.5 5.845 16.638 6.015 20-2-.815-3.852-4.128-5.205-6-8 .039-5.295 3.609-7.058 5-11-8.987-13.241 2.273-23.262 0-41-1.265-1.146-7.885-2.009-9 0-2.246-.42-.027-5.307-2-6-5.541.931-7.548-8.68-15-9-.826-2.826 1.409-2.591 1-5h-6c-11.922-14.078-35.139-16.861-47-31-2.348.318-3.753 1.58-7 1-13.768-36.631-4.524-87.36 8-116 1.289-1.378 4.344-.99 7-1 .612-6.828 3.276-10.214-1-15 2.823-2.83 4.011 3.262 8 4 7.055 1.305 17.699-2.16 19-8 2.001-8.98-8.41-10.435-6-22 4.863-.863 5.137 2.863 10 2 4.553-9.421-6.465-11.388-6-20 6.239-1.428 13.319-2.014 18-5-3.655-9.678-14.911-11.756-23-17-10.471-45.293 9.633-110.181 42-128 3.571 1.096 3.962 5.371 8 6 8.665-1.669 8.967-11.699 10-21 4.925-2.075 6.408-7.592 13-8 2.002-1.331 2.228-4.438 3-7 8.714.381 9.815-6.852 13-12 9.781 1.96 21.681-8.63 36-5 3.763-.237 3.899-4.101 5-7 1.902 5.29 15.541 7.92 18 1 13.552 6.23 34.512 2.98 48 11 2.483.15 4.15-.517 5-2 .862 5.219 4.098 3.654 8 2-.147 2.48-.186 4.853 2 5 6.576.273 10.455-5.318 17-2-1.094 9.094 2.404 13.596 9 15 2.145-7.825-6.255-13.734-8-21 7.223 4.443 9.55 13.783 17 18 5.85-1.15 7.651-6.35 11-10 20.088 2.245 26.062 18.604 36 31 28.671 8.662 47.543 27.124 75 37 10.543 8.79 23.177 15.489 35 23-4.79-15.251 1.82-35.009-4-49-3.596-8.645-10.906-15.634-15-25-4.093-9.364-8.791-17.552-12-27 22.319 1.986 20.459-20.207 25-36-10.627-5.373-24.074-7.926-33-15-3.156-.489-3.531 1.802-7 1-27.539-10.128-56.807-18.527-77-36-24.441-3.225-37.505-17.828-52-31-10.061-.939-17.803-4.197-20-13-12.382 1.69-18.314-16.089-32-13-3.245-1.755-4.999-5.001-7-8h-6c-9.357-10.31-21.131-18.202-32-27-16.583-.088-19.795-18.867-33-19-1.357-.31-.83-2.504-1-4-30.481-14.256-50.119-38.215-82-53-2.437-2.348 1.116-2.238 2-4-22.87-4.797-22.911-32.423-44-39-22.387-23.946-41.363-51.305-63-76-17.077.512-25.483-16.4-21-31-10.485-15.223-25.218-24.852-37-40-13.694-17.606-27.7-38.193-44-55-9.718-22.17-22.434-44.976-31-70-5.292-15.459-14.495-32.369-18-51-2.757-14.654-2.193-32.18-4-48-.39-3.412-.069-7.009-4-9 .111-1.889 3.306-.694 3-3-5.946-19.216-8.665-38.691-3-57 4.51-14.576 15.853-18.753 28-29 16.849-14.212 25.51-34.448 31-57h4c15.524-27.476 42.949-43.051 65-64 .044-1.71-.743-2.59-2-3zm1367-332c5.523.81 8.343 4.324 16 3-.958-5.375-7.284-5.382-9-10-3.57 1.096-5.904 3.429-7 7zm64 1151c-14.511 6.489-30.49 11.51-43 20-3.906-2.057-8.492 3.13-14 0-3.763 6.237-15.987 4.014-19 11-7.861-2.351-15.71 3.493-23 5-2.211 19.708-4.918 49.697 10 60 6.109 1.391 8.737-4.237 12 0-7.351 12.739-13.482 22.825-21 36-6.68 11.707-15.642 18.886-16 35 23.738 10.438 56.521-3.331 89-8 8.726-1.254 19.775-3.455 29-5 4.9-.82 10.858.334 14-1 7.237-3.074 10.385-14.708 19-15 6.602 1.731 9.708 6.959 19 6 2.435-3.898 6.025-6.641 10-9 2.966-11.002 6.733-25.519 6-37-6.373-.684-12.426 4.211-18 1 6.981-3.352 15.34-5.326 18-13-16.183-21.818-25.736-55.597-46-70 7.467 1.548 20.512 2.497 22-5-5.599-6.401-15.174-8.826-23-13 4.671-.662 9.095-1.572 14-2 2.276-4.057 5.703-6.963 5-14-21.631-8.387-31.208 11.039-44 18zm-1137 185c-3.278-3.005-7.121-6.337-13-4-.844 4.178 1.944 4.723 2 8-3.733-.399-5.868.799-6 4-.162 4.828 4.272 5.062 7 7-10.433.901-24.724-2.057-32 2 3.427 14.572 13.709 22.291 28 26-.171-5.849-7.271-10.035-6-14 11.291 16.075 45.222 24.975 63 11 4.536.798 7.741 2.926 14 2 4.577 5.299 9.681 5.961 17 8 19.727 5.496 45.283 15.542 64 20 7.73 8.591 19.447 9.812 30 14 8.68 3.444 16.02 10.318 25 14 9.531 3.908 19.763 5.949 29 10 18.35 8.046 36.739 15.964 54 22-.615-8.719-5.986-12.68-9-19 2.173-9.631-6.997-16.244-9-25-69.873-17.129-116.027-57.973-171-90-9.963 3.598-17.632 12.457-27 10-9.069-2.379-13.797-23.974-23-26-13.762-3.03-19.794 9.916-36 8-2.132 4.13-3.492 7.023-1 12zm1226 37c4.928-1.738 5.771-7.562 8-12-1.278-.056-1.385-1.281-3-1-2.75 2.86-7.953 7.668-5 13zm-1283-3c4.139.806 5.132-1.535 5-5-2.409.409-2.174-1.826-5-1v6zm1032 96c13.209-7.791 25.768-16.232 38-25 .826-2.826-1.409-2.591-1-5-26.746-7.264-29.838 12.826-37 30zm-901 73c-3.32 1.014-8.557.109-9 4 1.239 11.358 10.835 9.484 21 10 23.71 1.203 51.527-1.735 76 4 11.753 2.755 19.488 8.239 32 8 9.354 3.313 17.861 7.472 29 9 23.243 16.854 71.843 21.965 102 8-1.385-7.615-5.977-12.022-9-18-20.141 5.357-35.877-10.707-48-14-7.708-2.094-16.28-.514-24-2-28.202-5.429-58.258-17.852-84-28-17.727-6.988-32.444-19.14-50-25-13.299-6.07-29.289-22.939-51-26-6.31-.89-12.62 1.297-19 1-19.181-.891-21.03-20.501-41-18-4.706.589-23.342 9.15-23 16 .195 3.903 8.382 8.408 13 12 13.686 10.646 25.167 20.937 42 26-3.156.489-3.531-1.802-7-1 3.114 9.22 15.873 8.794 20 17-3.059.725-2.941-1.725-6-1 6.819 7.181 17.366 10.634 26 16 6.813-7.18 1.16 1.169 10 2zm1114-50c-23.29-3.045-40.302 10.813-54 20-4.937 3.311-10.825 4.729-16 8-7.102 4.49-14.026 12.173-21 18-7.381 6.167-15.518 12.107-21 18-11.141 11.976-31.809 38.729-17 52 55.341-12.206 103.824-28.771 162-34 .15-14.404 14.43-25.383 17-35 6.135-22.954-12.227-35.084-15-56-13.132-8.762-27.948.331-35 9zm-1189 42c-9.169-6.393-16.603-16.062-25-23-10.836-5.209-28.72-8.553-42-8-.779.221-1.163.838-1 2 1.53 15.14 8.87 33.128 18 44 8.077 1.59 17.46 1.873 23 6-9.21-1.457-19.29-2.044-27-5-5.951 3.382-10.324 8.342-12 16-17.585 5.406-41.967 10.111-57 0-3.004 7.33-10.274 10.393-20 11-.493 5.944 1.05 8.917 0 13 8.605 7.061 14.098 17.236 26 21-5.076-8.924-14.326-13.674-19-23 10.522 4.14 16.948 18.433 30 21 7.679 1.511 25.475.67 36 0 20.52-1.305 28.663-15.154 41-22 14.237-6.341 36.652-9.012 57-6-4.004-27.884-32.016-36.347-60-37 13.721-4.058 29.328.676 46 0-1.456-6.766-9.453-6.83-14-10zm1091 0c-37.572 18.695-76.547 40.418-128 42-10.455 10.878-25.827 16.84-48 16-4.907 11.426-13.907 18.76-19 30 10.922 21.223 27.726 8.051 48 1 35.543-12.36 68.916-18.529 97-38 12.542-8.695 22.255-24.475 34-35 6.392-5.728 15.209-8.827 18-16h-2zm134 42c6.428 2.239 14.731 2.602 22 4 1.947-9.862 9.061-19.479 3-29-15.088 1.578-19.346 13.986-25 25zm54 86c1.509-18.658-1.754-38.104-6-54-8.63.779-10.468 1.194-16 8-1.395 4.777 6.694 5.24 3 9-2.475-4.187-2.513-6.34-8-6-5.025 4.943-10.243 9.807-9 16 12.997-.592 13.673 36.975 36 27zm-920 40c-20.571 10.815-50.896 8.521-65-4-32.11 8.168-65.086 14.163-102 8-27.09-4.523-56.527-11.972-84-14-13.038-4.206-26.428-10.264-44-12-15.606-1.541-31.652 4.408-45 3-12.776-1.349-27.785-17.281-35-1 12.92 8.738 26.62 17.271 41 25 14.046 7.55 28.418 17.203 43 23 20.467 8.136 44.504 19.009 68 16 11.339-1.452 24.086-5.873 36-9 11.619-3.049 22.548-10.586 34-12 12.241-1.511 28.872 3.263 45 5 16.188 1.743 33.68 2.145 46 5 4.076.945 7.934 3.494 12 4 8.292 1.031 14.987-1.146 22 1 6.344 1.941 9.74 5.975 16 9 4.237-6.096 13.884-6.783 22-9 7.131-9.045 11.294-31.183 8-47-6.768-3.037-11.232 5.441-18 9zm-343 44c-12.855-.943-19.822 5.801-35 5-3.955 36.565 4.34 74.75 18 100 22.679-12.598 35.588-35.764 59-48 11.515-6.019 24.507-7.791 39-13 9.75-15.234 3.229-37.313-13-42-8.089-2.336-16.148 1.11-22-5-3.868-.535-4.882 1.785-9 1-24.062-11.271-47.314-23.353-72-34 3.563 20.104 18.027 29.307 35 36zm1159-35c-43.882 2.439-77.374 13.523-117 17 5.893 10.655 22.638 5.982 35 9 3.771.921 7.23 4.35 11 5 19.192 3.309 38.896-2.469 52 8 11.97-12.03 26.316-21.684 35-37-5.102-3.781-10.022-2.332-16-2zm-328 35c10.983-2.49 21.953 6.592 29-3 8.141 4.079 20.631-3.747 28-7 14.487 4.47 29.184-1.841 38-9-5.821-.846-10.656-2.678-15-5-24.387 23.653-66.673 2.849-87-10 3.079 10.588 2.083 25.251 7 34zm-873 103c6.488-.972 12.501-1.221 18 1-4.606-6.395-8.633-13.367-16-17 .493 6.493-.86 11.14-2 16zm36 8c9.23 4.437 14.807 12.526 27 14 5.119-7.551-3.281-15.043-7-20 3.096-3.673 7.713-7.359 9-10-11.598-.593-20.239 10.423-29 16zm-27 36c-2.654-2.836-6.819-6.679-12-4-2.044 4.725-.996 14.076 0 19 8.871 3.386 30.452 22.396 43 26 17.324 4.977 15.836-10.016 6-15 2.928-.898 3.072-.898 6 0-2.559-11.499-12.219-21.037-8-36-10.277-3.39-13.75-13.584-20-21-8.386 2.742-15.924-1.384-22-4-1.592 14.932 5.77 26.223 7 35zm947 5c-4.054-2.613-4.771-8.562-8-12-1.646 7.354-5.03 12.97-4 23 35.658-6.675 81.955-2.712 102-25-14.921-1.745-32.082-1.251-46-4-2.354.979-.896 5.771-3 7v-7c-17.111-.5-34.211-3.592-49-9-.723 12.391 5.911 17.424 8 27z" fill-rule="evenodd"/></svg>