<svg xmlns="http://www.w3.org/2000/svg" xmlns:dc="http://dublincore.org/documents/dcmi-terms/" height="241.341" viewBox="0 0 255.29559 241.34142" width="255.296"><metadata><dc:description>Silhouette of Creolimax, processed by PhyloPic Tools (https://github.com/eweitz/phylopic-tools)</dc:description><dc:source>http://phylopic.org/image/dd39d950-11fb-4957-a320-51251ac34182</dc:source><dc:creator>Yan Wong from SEM by Arnau Sebé-Pedrós (PD agreed by Iñaki Ruiz-Trillo)</dc:creator><dc:license>http://creativecommons.org/publicdomain/mark/1.0/</dc:license></metadata><ellipse cx="133.486" cy="122.192" rx="118.693" ry="111.002" opacity=".97" fill="#919191" fill-opacity=".655"/><path d="M125.374 239.454c-26.098-4.284-30.152-5.437-35.662-10.14-4.46-3.807-5.596-4.271-12.01-4.903-9.122-.899-11.828-1.95-11.828-4.593 0-3.237-1.703-5.667-4.456-6.358-3.98-1-9.147-6.182-15.694-15.74-3.338-4.873-6.454-8.86-6.925-8.86-2.492 0-9.387-10.724-9.387-13.59 0-1.142 7.822 1.707 8.919 3.063.573.709 4.193 3.905 8.043 7.103 14.404 11.964 25.177 22.517 28.97 28.377 3.691 5.704 5.53 7.369 5.53 5.006 0-5.083-14.72-21.254-31.436-34.534-4.102-3.26-7.482-6.263-7.512-6.676-.029-.412 1.863-.75 4.204-.75 2.341 0 5.678-.408 7.415-.906 2.861-.82 3.217-.675 3.773 1.54 2.672 10.647 8.485 19.727 14.68 22.93 4.201 2.173 17.514 1.913 21.891-.426 6.579-3.516 16.748-21.346 19.026-33.357 1.125-5.93-.345-10.229-4.736-13.85l-2.947-2.43 7.962-3.756 7.961-3.755 4.727 4.42c4.767 4.46 11.459 8.336 18.098 10.484l3.607 1.167 1.143 11.278c2.01 19.82 1.099 27.696-3.617 31.277-2.698 2.048-3.013 1.753-4.306-4.023-1.554-6.944-5.89-14.963-8.344-15.435-1.793-.344-1.77-.13.374 3.488 3.362 5.672 4.997 10.793 6.638 20.786 1.56 9.503 4.525 17.568 6.459 17.568.762 0 .922-.787.455-2.25-2.694-8.446-3.78-13.619-3.183-15.173.736-1.92 1.808-1.876 10.668.433 2.928.763 8.034.946 14.62.523 11.317-.726 10.727-1.067 11.92 6.883.42 2.8 1.152 4.514 1.83 4.28 1.269-.44 1.368-3.426.295-8.86-.692-3.5-.586-3.695 2.38-4.346 4.39-.964 9.726-6.005 10.925-10.322.56-2.017 1.02-7.06 1.024-11.208.012-16.186-7.248-31.96-14.709-31.96-1.303 0-.68 1.012 2.306 3.75 5.538 5.078 8.557 13.123 9.174 24.453 1.078 19.776-2.22 22.96-25.348 24.48-5.807.382-10.939.152-14.227-.637l-5.144-1.234 1.667-3.156c1.928-3.65 2.286-15.38.943-30.906l-.843-9.75h4.22c7.31 0 15.74-5.042 26.726-15.987 7.93-7.898 10.817-10.103 15.528-11.857 6.996-2.606 16.79-2.85 22.34-.556 8.798 3.636 14.85 8.146 17.074 12.723 4.458 9.175 4.2 18.01-.707 24.184-1.598 2.01 2.82 6.479 1.045 11.182-2.872 7.61-6.325 12.012-10.644 15.115-5.657 4.064-10.993 3.249-15.851 17.209-5.104 14.662-9.604 18.987-19.76 18.987-3.474 0-6.523.69-8.8 1.99-12.039 6.879-13.04 7.204-24.916 8.11-6.363.485-12.918 1.087-14.568 1.338-1.65.25-9.3-.579-17-1.843zm-46-40.303c-5.513-1.019-6.715-1.542-9.833-4.28-4.124-3.62-8.523-13.12-9.96-21.505-1.016-5.936-.903-6.697 2.238-15.129 1.819-4.883 3.597-9.202 3.952-9.599.354-.397 2.885-.04 5.624.792 2.881.876 10.35 1.679 17.731 1.905 11.06.34 13.153.677 15.765 2.537 4.983 3.548 6.353 7.25 4.934 13.335-2.96 12.694-12.58 28.78-18.239 30.495-4.16 1.261-9.681 1.916-12.212 1.449zm-53.621-27.6C10.45 166.334 1.535 154.247.197 136.902c-1.186-15.39 2.836-25.57 15.988-40.457 7.032-7.96 11.164-9.586 24.367-9.586 9.276 0 10.741.577 7.756 3.055-4.015 3.332-4.649 6.578-3.475 17.795 1.872 17.895 4.697 24.927 13.788 34.32l4.52 4.671-3.633 9.38c-2 5.158-3.634 10.991-3.634 12.962 0 4.442-1.034 4.794-14 4.778-7.214-.01-11.094-.556-16.121-2.27zm216.518-14.942c.013-7.09-.376-9.005-2.77-13.622-2.68-5.171-2.773-5.841-2.456-17.824 0 0-2.721-6.85.841-11.426 3.563-4.576 7.151-8.944 11.254-12.49 1.465-.06 3.606 15.392 4.789 19.612.693 2.475 1.302 9 1.352 14.5.086 9.339-.126 10.463-3.217 17-2.974 6.29-7.538 12.5-9.186 12.5-.342 0-.615-3.712-.607-8.25zm-99.374-2.412c-5.927-2.074-13.956-7.281-17.235-11.178-2.704-3.213-3.8-8.217-4.13-18.863-.15-4.796.114-5.362 4.864-10.434 2.762-2.95 6.137-6.79 7.5-8.532l2.478-3.17 6 1.389c3.3.763 10.05 2.298 15 3.411 10.8 2.428 19.755 6.637 24.461 11.497 4.44 4.584 4.445 9.123.02 17.427-8.596 16.127-24.32 23.575-38.958 18.453zm-65.299-6.39c-7.933-.922-13.653-3.913-19.173-10.023-6.962-7.705-9.484-15.51-10.988-34.004l-.616-7.58 3.922-4.455c4.372-4.967 18.488-12.335 25.805-13.47l4.175-.647 2.508 4.949c4.383 8.65 14.323 22.71 19.437 27.493 4.495 4.205 9.909 6.768 14.326 6.784 1.334.005 1.663 1.378 1.861 7.755.133 4.263.303 9.498.38 11.635.134 3.749-.055 3.982-5.41 6.71-10.875 5.538-19.924 6.75-36.227 4.854zm147.276-17.817c-6.13-3.424-7.013-3.63-15.5-3.63-7.995 0-9.733.346-15.554 3.105l-6.553 3.105.43-5.934c.413-5.72.297-6.07-3.222-9.673l-3.65-3.738 3.73-2.433c6.576-4.29 7.819-7.695 7.819-21.433 0-12.288-.718-15.283-5.094-21.25-1.647-2.246-1.642-2.25 2.92-2.25h4.572l-1.533 3.669c-1.997 4.777-.756 7.581 4.555 10.29 5.701 2.909 8.882 2.69 10.17-.698 1.5-3.946.324-8.49-3.03-11.702l-2.913-2.792 5.878-2.937c5.98-2.989 10.1-9.676 11.396-15.178.854-3.626.745-.031 11.852 10.363 9.809 9.178 13.411 14.533 15.366 22.838 2.878 12.228 1.306 19.465-5.669 26.082-6.125 5.811-6.97 8.132-6.97 19.13 0 6.545-.335 8.903-1.25 8.816-.688-.066-4.175-1.753-7.75-3.75zm-114-17.252c-5.918-2.352-17.402-16.914-24.46-31.013-4.078-8.145-4.54-9.775-4.54-16 0-11.698 2.74-15.768 14.5-21.537 6.289-3.084 7.556-3.367 12.482-2.78 7.897.94 15.135 3.937 22.028 9.118 8.585 6.454 8.688 6.806 5.055 17.3-3.317 9.58-4.068 19.883-1.993 27.354 1.013 3.65.87 4.068-3.173 9.309-2.328 3.018-5.344 6.361-6.701 7.429-2.698 2.122-8.947 2.51-13.198.82zm59-5.073c-4.125-1.687-11.1-3.728-15.5-4.535-14.073-2.581-15.851-3.334-17.194-7.27-2.352-6.898-1.632-17.628 1.896-28.25 3.719-11.2 2.361-10.532 17.798-8.76 15.903 1.824 18.828 2.77 24.299 7.862 7.106 6.613 8.657 10.58 8.657 22.147 0 11.279-1.986 16.829-7.148 19.976-4.105 2.502-3.752 2.535-12.808-1.17zM18.4 82.641c-2.56-8.622-3.028-20.307-1.112-27.772 2.177-8.482 8.1-20.204 12.494-24.729 4.289-4.415 15.63-9.78 25.284-11.96 9.528-2.152 21.716-.736 28.653 3.33 5.7 3.34 13.845 10.853 15.74 14.517l1.412 2.73-6.533 3.119c-12.222 5.833-16.067 12.34-15.3 25.896l.396 7.015-4.86 1.043c-2.674.573-8.263 2.614-12.422 4.536-7.292 3.369-7.982 3.493-19.41 3.493-9.426 0-12.923.409-17.109 2-2.893 1.1-5.355 2-5.472 2-.116 0-.908-2.348-1.76-5.218zm180.707-5.267c-1.796-.787-3.502-2.047-3.79-2.8-.765-1.992 1.25-6.66 3.197-7.407 2.482-.953 7.565 5.087 7.167 8.515-.367 3.168-2.157 3.629-6.574 1.692zM178.235 60.75c-3.833-2.374-14.527-4.449-27.83-5.398l-9.97-.711-5.53-4.609c-3.042-2.535-5.719-4.735-5.948-4.89-.23-.155-.135-.563.208-.907.344-.344 2.509.128 4.81 1.05 6.548 2.62 31.697 2.223 37.138-.586 8.18-9.344 4.995-19.066.477-28.021l8.123-2.59c5.069-1.616 11.236 1.157 13.16 1.977 4.483 1.91 15.529 10.767 18.574 14.894 2.98 4.04 4.909 12.517 3.977 17.485-1.013 5.398-6.696 10.788-13.51 12.811-7.625 2.265-19.621 2.009-23.679-.505zM140.54 43.866c-8.49-1.52-29.353-12.663-31.585-16.871-1.148-2.164.54-12.627 2.526-15.657 2.34-3.571 10.116-8.131 17.218-10.097 5.514-1.527 7.107-1.59 12.43-.49 18.008 3.72 31.881 17.247 32.013 31.215.072 7.668-1.783 10.462-7.46 11.237-8.749 1.195-20.445 1.503-25.142.663zm-21.364-3.002c-2.86-1.016-7.66-2.156-10.668-2.531-4.591-.574-5.562-1.053-6.047-2.985-.318-1.266-2.84-4.516-5.604-7.224l-8.104-7.999c3.946-1.93 11.823-3.993 16.026-5.325 2.358-.715 1.347 1.891.661 7.378l-.691 5.535 5.052 3.993c2.778 2.197 7.531 5.413 10.563 7.147 7.874 4.505 7.519 5.107-1.188 2.011z"/></svg>