<svg xmlns="http://www.w3.org/2000/svg" width="595.28" height="841.89" viewBox="0 0 595.28 841.89"><path d="M272.725 395.293v-.333c.137-.221.371-.465.624-.624.572-.358 1.279-.645 1.873-1.123.384-.312.807-.7 1.206-1.041.417-.355.891-.739 1.166-1.081.431-.537.552-1.075 1.332-1.207.099-.293.396-.412.416-.75.014-.254-.229-.556-.292-.873a6.648 6.648 0 0 1-.083-.708c-.03-.384-.057-.855.208-1.123.835.636 1.255 1.685 2.164 2.248.279-.063.891-.129 1.291 0 .224-.691.054-2.293.79-2.331.297-.017 1.269.674 1.456.833.374.312.587.837.875 1.122.285.282.773.37 1.082.541.145-.119.199-.328.375-.416.364.275.408-.23.666-.207.229.021.294.562.749.373.045.24-.077.485 0 .624.469.146.514-.479.916-.539.229.102.046.618.166.831.419-.013.579-.281.916-.375.175.033.081.336.167.458.252-.039.225-.357.541-.333-.014.335.269.37.416.541-.074.166-.208.408-.042.583.314-.018.124-.543.5-.499.227.05.012.543.291.54.128-.204-.011-.676.291-.707.268.037.198.414.333.583.292.014.263-.291.583-.25.257.211.073.647.374.665.38.023-.02-.481.208-.707.708.199 1.128.476 1.832.625.085.108-.009.396.125.458.479.056.972-.158 1.207.124.163-.217.557-.066.749.042.201.182-.052.562.083.79.492-.15 1.04-.032.999.666.488-.109.812-.383 1.332-.458.172.232.571.234.875.333.096.334-.047.906.291.999.244-.297.201-.882.623-.999.055.168.092.354.126.541.247-.039.37.045.54.084.23-.132.232-.49.583-.5.21.11.216.422.292.666.184.023.234-.233.416-.083.002.414.289.542.457.79.376-.04.438-.394.832-.416.135.061.052.338.125.458.402-.06.423-.71.832-.624.246.046.041.542.168.707.27-.008.331-.223.624-.208.167.123.019.563.124.749.193.13.281-.147.541-.083.206.043.104.396.333.416.284-.089.368-.38.708-.416-.031.197.047.286.041.458.291.027.276-.25.541-.25.148.281.444.415.625.666.207.022.303-.228.457-.125.273.061.209.456.416.583.379-.094.584-.359.957-.458.041.202-.113.355 0 .499.293-.054.34-.354.666-.375.105.103.148.268.125.499.279-.06.234-.646.5-.581.11.11.103.34.207.457.347-.136.412.14.541.333.27.01.303-.405.582-.25.148.263-.097.662.041.915.521-.063.484-.682.918-.831.24.146.286.489.539.624.233-.017.315-.185.584-.167.204.03.125.346.291.416.27-.049.248-.39.541-.416.258.131.266.511.416.749.408-.095.479-.737.873-.707.247.154-.018.822.25.957.215.102.389-.195.666-.167.141.109.135.365.125.624.419.032.547-.229.915-.249.214.036.086.413.333.416.432.178.727-.094.999-.208.157.147-.003.613.208.708.318.019.645-.229.875-.042.139.185-.199.383-.084.54.264.027.592-.151.707.084.004.45-.372.899 0 1.332.16.074.472-.001.583.125-.081.59.385.794.748 1.081.735.581.851.835 1.456 1.582.264.323.621.604.75.957.127.346.174.815.25 1.207.078.406.144.87.166 1.289.017.298-.092.677-.041 1.041.029.213.221.275.208.624-.009.234-.29.448-.333.708-.074.437.188.866.249 1.373.064.526-.062 1.078-.083 1.665-.04 1.118.362 2.452-.25 3.202-.148-.017-.09-.241-.25-.249.322 1.066-.457 1.955-.416 2.954.025.604.531 1.67-.291 1.915-.128-.252-.091-.513-.06-.74-.414-.604-.912-1.527-.522-2.423-.002-.15-.295-.01-.25-.208.285-.537.809-2.044-.125-2.246-.277.344-.241.883-.374 1.289-.047.144-.147.23-.166.375-.039.287.077.644.124.998.146 1.103.354 2.007.791 2.664.148.223.371.352.499.541.175.259.43.827.624 1.082.465.606 1.309 1.019 1.373 1.664.037.352-.145 1.055-.166 1.665-.023.679.002 1.266 0 1.872-.002.725-.023 1.621-.291 2.039-.322.505-2.364.634-2.371-.166-.008-.502.657-.779.789-1.124.201-.524-.053-1.015.042-1.623-.114-.081-.364-.197-.499-.125-.361.488-.359 1.158-.749 1.748-.208.313-.623.729-.874.79-.646.16-2.162.065-2.247-.29-.126-.529.581-.877.874-1.124.182-.9.615-1.549.624-2.622-.587-.357-.745-1.108-.999-1.747-.169-.428-.451-.844-.625-1.29-.186-.482-.281-1.044-.498-1.457-.221-.418-.635-.763-.916-1.206-.283-.449-.461-.975-.748-1.374-.258-.356-.684-.592-.916-.998-.314-.548-.421-1.219-.708-1.79-.765-.009-.343-.821-.583-1.248-.348.193-.727.354-.914.708-.577-.049-.518.537-1 .581-.062.202-.105.422-.208.584-.199-.052-.331-.294-.54-.209-.211.068-.026.53-.25.583-.158-.12-.367-.188-.625-.208-.338.118-.48.435-.707.666-.208-.027-.403-.228-.666-.251-.185-.015-.43.106-.623.084-.24-.026-.4-.21-.584-.209-.221.004-.416.215-.623.209-.037.315.279.653 0 .832-.307-.068-.203-.489-.5-.499-.244-.009-.115.208-.374.291-.19-.645-1.042-.107-1.331-.457-.104.077-.17.191-.334.207-.158.229-.07.707-.333.833-.136-.547-.489-1.021-.712-1.369-.484-.759-1.401-.56-1.826-1.377-.186-.046-.305.1-.416 0-.216-.058-.063-.251-.209-.375-.116-.099-.34-.045-.457-.166-.158-.165-.089-.403-.291-.541-.459.215-.545-.425-.873-.083-.174-.355-.501-.555-1.041-.542-.467.616-.66 1.292-.708 2.372-.104 2.379-.308 4.633-.249 6.784.004.166-.061.332-.041.498.027.249.184.453.207.625.042.318.002.72-.041.915-.152.694-.432 1.573-.624 2.247-.079.277-.252.539-.251.707.002.281.223.548.251.833.171 1.763-1.405 1.323-2.747 1.331-.704.004-1.705-.054-2.081-.416-.569-.546.021-.95.375-1.29.449-.432.959-.816 1.124-1.373.126-.426-.041-1.092-.084-1.498-.151-1.426.408-3.02.125-4.494-.031-.156-.167-.295-.208-.458-.136-.55-.197-1.265-.291-1.914-.098-.665-.132-1.353-.25-1.956-.06-.302-.297-.569-.375-.832-.227-.762-.218-1.563-.416-2.288-.088-.327-.132-.769-.25-.958-.08-.128-.306-.201-.416-.333-.199-.239-.312-.688-.5-1.081-.355-.746-.685-1.396-.915-2.248-.209-.768-.648-1.463-.832-2.122-.109-.385-.067-.747-.292-1.04-.125-.165-.492-.314-.707-.499-.15-.131-.385-.476-.542-.624-.447-.426-1.07-.714-1.665-1.082-.543-.338-1.021-.73-1.58-1.04-.571-.318-1.173-.527-1.832-.791-.621-.248-1.195-.57-1.789-.832-.634-.279-1.158-.628-1.706-.916-.783-.413-1.438-.367-2.372-.458-.465-.045-.952-.154-1.332-.083-.505.095-1.125.238-1.623.417-.21.074-.4.251-.625.291-.544.098-1.27-.044-1.873 0a.66.66 0 0 1-.208-1.041 2.902 2.902 0 0 1-.291-.498h-.75c-.495-.562-.834-1.277-1.208-1.957z" fill-rule="evenodd"/></svg>