<svg xmlns="http://www.w3.org/2000/svg" xmlns:dc="http://dublincore.org/documents/dcmi-terms/" height="2525" version="1.2" viewBox="0 0 1400 2525" width="1400" overflow="inherit"><metadata><dc:description>Silhouette of Curculionidae, processed by PhyloPic Tools (https://github.com/eweitz/phylopic-tools)</dc:description><dc:source>http://phylopic.org/image/b99c899a-34f3-4892-b88b-de69653e2717</dc:source><dc:creator>Notafly (vectorized by T. Michael Keesey)</dc:creator><dc:license>http://creativecommons.org/licenses/by-sa/3.0/</dc:license></metadata><path d="M1400 513v7c-2.732-7.639-8.499-13.954-22-11-17.274 3.779-41.66 36.979-46 53-1.152 4.254 1.34 7.062-1 9 2.07 3.825 5.162-4.058 6 1 4.736 14.542-12.443 14.549-14 26 8.079-1.919 23.71-18.236 31-1-1.62 5.572-4.205 8.996 0 13-11.487 7.204-29.495 17.592-45 9-.83 5.826 3.881 8.023 1 13-2.24 2.093-4.889 3.778-6 7-6.558-.892-9.432 1.902-12 5-7.023-1.648-12.932 3.666-19 6-4.26.074-6.994 1.673-12 1-3.547 3.119-5.541 7.793-8 12-3.068.932-7.443.557-8 4-5.879-1.146-8.498-7.359-15-5-1.741 6.074 5.154 3.513 7 6-8.521 3.68-24.041 5.018-33 5-31.898 68.826-81.631 130.516-118 200-7.799 14.9-14.087 27.51-29 32 11.171 24.66-18.153 33.578-33 44-18.68 13.112-40.059 28.309-60 42-4.461 3.062-10.007 5.931-14 9-10.086 7.753-16.7 19.147-28 23-.547 1.453 1.168 5.168-1 5-13.279 11.388-30.509 18.824-42 32-28.77 22.217-59.734 42.062-91 63-10.099 6.763-22.217 11.479-29 22 8.752 13.34-6.735 23.488 2 35-8.61 5.027-10.314 16.316-6 27-4.184 6.627-7.244 14.565-7 23-4.636 1.301-5.186 7.41-9 12-3.454 4.156-8.099 4.92-9 10-1.577 8.891 5.274 11.512 7 21 .479 5.479-5.811 4.189-5 10 32.416-1.926 60.822 5.516 69 28 1.318 3.624 4.561 14.226 4 19-.197 1.678-3.088 4.016-3 6-.008-.178 2.844 1.01 3 2 1.036 6.57-2.953 13.399-4 20-.653 4.119.712 8.34 0 12-.537 2.762-3.377 5.104-4 8-1.676 7.79-.093 16.89-1 25-1.188 10.617-4.965 20.061-5 30 42.648 43.019 82.357 88.977 113 144 .887 2.446 4.873 1.793 6 4 4.62 19.392 22.206 22.699 25 42-2.376 3.624-2.11 9.89-4 14 20.77 12.23 22.076 43.924 31 68 2.769 2.753-.898 4.177-1 7 4.459 1.197 4.826 4.997 6 8 4.834 12.37 8.62 29.158 13 45 7.573 27.395 4.848 53.5 8 82-4.582 3.135-1.016 8.268-4 13-4.354-3.312-12.86-2.473-18-5-.926 7.842 5.719 12.593 9 18 6.907 11.381 11.188 24.125 20 34-3.088 2.747-.298 5.512-2 10 7.607 10.492 19.801 21.397 22 34 5.603 1.423 8.541 7.316 10 10 6.825 4.999 29.338 16.253 33 26-.7-1.863-1.156 7.739-1 8-4.076 1.591-9.035 2.298-15 2 12.267 19.452-26.406 12.747-31-6-1.601-6.531 2.324-11.672 0-18-6.217-.217-8.668 3.332-14 4-4.021-10.979-10.608-19.392-15-30 2.753-9.528 2.59-15.58-1-24-4.979-2.688-11.581.816-16-4-3.533-3.852-4.825-14.365-7-24-3.425-15.171-8.126-29.168-2-44-.84-3.826-6.045-3.289-8-6 .835-2.498 7.814 1.148 7-3 .43-4.43-1.668-6.332-5-7-3.289-1.779 2.663-6.595-3-6 23.619-19.203-1.007-57.431-2-88-1.375-2.959-4.935-3.732-6-7-5.604-24.263-11.533-42.069-16-67-11.482-2.518-15.623-12.377-30-12-15.178-9.055-21.301-24.503-28-40-15.77-36.48-51.259-62.226-75-93-2.39-3.098-4.622-7.006-7-10-1.339-1.686-3.75-6.523-7-5-10.897 37.769-15.689 81.644-26 120-2.614-2.714-3.065-1.367-6 0 .805 6.076-2.663 10.711 3 11-4.766 8.427.1 20.526-8 27 2.375 11.187-4.535 20.249-6 29-.409 2.445 2.178 4.774 2 7-.375 4.684-7.307 8.423-4 14 5.135 2.135.908-5.092 5-4 1.802 11.198 6.42 19.58 7 32 4.385 9.23 7.924 20.242 10 31 6.878 35.642 13.326 77.677 14 118 .494 29.586-6.021 59.709-1 87 1.173 6.374 5.765 19.34 2 29-3.486 4.848-9.769 6.898-12 13 8.795 27.488-6.357 62.455-14 88-8.873 29.658-12.656 61.3-20 91-11.324 16.174-13.095 45.652-22 67-6.227-3.107-10.298-8.369-15-13-3.96 28.54 20.477 59.478 8 81 1.638 6.06 1.802 5.963-2 9 1.15 2.801 1.15 5.199 0 8 3.252.748 4.657 3.343 6 6 .482 6.185.118 13.215 3 17-2.599-.599-3.599.401-3 3 1.261 3.406 1.386 7.947 3 11 17.008 11.501 32.82 43.208 38 71 1.626 8.725 2.814 19.821 1 28-.075.339-2.566 1.641-3 3-.633 1.986.486 4.973 0 6-2.137 4.51-8.64 7.604-9 13-12.347 1.986-14.314 14.353-28 15h-8c.184-.851-.39-.943-1-1 3.806-4.861 8.333-9 16-10 14.945-27.253 21.746-70.359 2-97-3.79 2.938-8.697 1.68-13 0-2.158-4.176-1.585-11.081-6-13-5.826 5.79 2.793 10.965 1 19-3.512 3.36-5.882 3.938-12 3-2.18-2.091.5-2.854 0-6-3.104-.104-2.854 3.146-7 2 .934-4.066 1.615-8.385 3-12-4.851.523-2.126-4.855-1-9-1.71-.045-2.59.744-3 2-1.213-6.894 10.653-9.337 10-19-2.896.564-8.742-4.927-13-3 .793-4.127-.442-6.224-3-7 1.786-15.881 11.643-23.691 16-37-1.89-2.109-3.476-4.524-4-8h-8c-.071-2.93-.362-5.638-4-5 1.473-5.527 3.672-10.328 4-17-3.943-1.276-2.597 2.736-4 4-2.669-4.703 2.667-5.508 3-10 .303-4.074-2.95-7.696-3-12-.192-16.485 10.335-32.035 14-46-5.371-4.592 1.542-10.76-2-18 27.186-9.41 13.986-59.331 30-75-.915-15.086-.346-34.848 6-52 1.867-5.047 5.315-10.026 7-15 2.196-6.484 2.114-13.416 4-18 1.719-4.178 9.863-14.865 9-22-.958-7.918-11.291-11.382-10-20-25.409-14.498-12.175-52.396-12-82 .191-32.399-8.396-61.564-12-86-6.381 8.253-8.639 19.27-13 29-4.417 9.856-10.114 17.908-16 26-8.25 3.417-11.935 11.398-18 17-11.16 28.84-28.465 51.535-50 70-18.875 7.125-30.103 21.896-54 24-2.877-3.456-4.234-8.433-5-14-6.858 2.475-14.444 4.223-18 10-7.87-2.463-13.238-7.428-22-9-.932-2.402-4.019-2.647-3-7-25.721-15.772-47.666-41.147-60-70-5.365-12.551-7.034-29.145-20-36-29.377-48.623-23.736-132.263-40-194-16.19 22.476-30.922 46.411-42 74-4.311-.978-2.91 3.757-6 4-12.217 21.783-24.991 43.009-42 60-3.257 8.076-7.869 14.798-15 19v7c-8.959 7.041-11.102 20.898-18 30 .288 17.359-10.004 39.213-20 46-3.376 2.292-7.845 2.112-11 4-3.622 2.167-5.226 5.995-9 9-5.917 4.71-12.299 5.533-14 14-1.299 6.469.49 18.46 0 29-1.104 23.736 1.618 40.232 0 60 .467 2.133-1.429 1.905-3 2-.768 28.152-4.056 63.017-9 93 .687 4.778 4.404 12.157 0 16 3.72 7.946 7.149 16.184 11 24-2.205 4.462-4.51 8.823-7 13 6.763 30.045-2.392 60.8-5 86h-9c-1.904 3.224 1.022 5.479-3 7 9.024 11.509 11.521 32.504 7 47-2.359 1.974-6.693 1.973-10 3 7.711 13.714 11.543 37.139-3 47-5.557 1.225-4.084-4.583-6-7-4.048 2.549-4.413 9.249-5 14-2.073 16.779-5.406 35.149-4 54-4.253 4.747-4.81 13.19-7 20 .111 2.448 3.306.212 3-1 3.708 5.411-4.156 7.816-4 13-6.124-9.244-19.248 2.43-25-5 16.577-10.336 13.946-35.765 24-51-1.548-13.719 3.527-26.367 4-43-33.218 5.859-15.535-45.904 3-43 .888-3.649-1.766-5.326 0-7-1.733-1.707-2.62.158-6-1-.333-12.621 8.414-19.588 12-31-.111-2.448-3.306-.212-3 1-1.905-3.608 5.424-6.549 7-10-.556-2.444-2.346-3.653-4-5 1.207-1.459 4.372-.962 3-5 .468-4.113-2.514.785-4-2-.36-24.877 20.759-44.197 26-70-9.482-1.149-8.833 7.834-20 5-10.77-15.103 5.09-40.365-1-55-2.734-42.377 3.481-84.785 5-129 .366-10.659 1.403-23.163 2-36 1.411-30.32.636-62.521 19-73-9.981-13.771-3.196-34.984 9-43 16.989-30.012 28.468-65.532 48-93v-5c10.772-9.228 14.976-25.024 26-34 9.701-21.299 27.269-34.731 38-55 6.313-3.021 10.204-8.463 13-15 17.339-16.994 32.354-36.312 50-53-6.3-63.033-6.627-132.039-15-193-21.488 14.179-43.396 27.937-67 40-2.348.318-3.753 1.58-7 1-19.835 9.92-39.061 16.666-54 31-14.982 14.375-26.354 32.562-49 36-20.438-5.501-21.161 16.32-26 34-8.378 30.606-20.814 59.498-28 89-2.89 11.863-7.869 28.041-7 32 1.256 5.725 2.77-1.033 0 3-1.354 1.973.949 7.709-2 7 4.039 6.837 4.481 14.174 7 24 2.409.409 2.174-1.826 5-1-1.361 3.639-5.468 4.531-6 9 3.377 5.163.202 11.199 7 12-1.301 2.598-8.616 4.482-10 1 6.096 25.463-5.739 47.063-11 74-4.257.591-6.614-.719-10-1-3.39 19.635 11.344 59.539-19 54 12.564 16.698.675 41.775-14 49-4.268-4.738-12.026-10.171-10-18-13.604 6.396-17.388 22.612-24 36-1.086-.247-.678-1.988-2-2-2.656 10.644-8.496 23.273-8 36-3.206-.872-3.127 1.539-4 3-1.008 3.008 2.228 1.772 4 2 .708 3.709-1.708 4.292-1 8 5.887 4.203 15.62 1.198 20-2-8.125 17.947-36.665 5.533-43-3v-2c10.373-28.291 27.838-49.367 41-77-.913-4.318-1.833-2.837-5-4 1.104-17.229 12.378-24.289 21-34h8c.271-5.319-2.681-5.164 1-11-.272-3.506-4.428 1.807-4-1 .719-4.281 3.077-6.923 6-9-.65-1.018-2.299-1.034-2-3 7.563-7.896 14.507-19.034 19-27-.406-2.928-2.614-4.052-4-6 4.005-9.506 9.263-15.314 11-25 2.358-1.468 1.86-2.11 5-1 2.648-10.352 10.156-15.844 12-27-3.738-3.664-10.325.728-17 0-7.489-49.876 2.699-96.643 16-143 17.038-34.295 18.255-84.412 47-107-1.216-4.45-1.086-10.247-1-16 6.357-12.948 20.228-18.104 33-26 15.104-9.337 27.668-22.194 42-30 36.674-27.992 81.047-48.287 126-68-.264-11.586 4.411-23.659-1-32 .043-21.887-.107-48.337 10-63 14.843-24.53 53.98-18.108 82-14-2.1-4.566-8.96-4.373-13-7 .8-4.835-3.311-5.783-3-10 .537-7.293 10.517-11.48 10-21-1.461-3.539-5.792-4.208-8-7 .047-13.57-15.332-24.812-6-38-2.615-4.052-4.442-8.891-7-13 3.713-6.165 6.027-15.767 0-21 1.247-10.576 6.025-14.693 3-25 1.571-4.096 5.323-6.01 7-10-1.24-4.427-4.081-7.253-3-14 1.557-1.442 1.973-4.027 6-3-27.463-35.536-63.645-62.355-88-101-1.768-.898-2.919-2.414-5-3-4.026-6.974-8.371-13.629-15-18-26.909-41.758-61.69-75.642-89-117-12.646-10.354-23.745-22.255-33-36-.908-10.24 3.638-15.029 9-19-13.824-7.841-15.685-30.768-20-56-8.269-48.344-21.147-98.326-30-145-6.24-32.902-10.612-63.098-14-99-1.371-14.523-3.218-30.938 0-43-11.082-20.417-40.918-26.855-42-54-15.626-12.707-26.625-30.041-41-44 1.544-6.456 7.377-8.623 10-14-16.922.348-44.177-19.655-36-40 5.363-3.563 9.126-7.525 15-7 10.291.922 9.976 12.971 16 19 7.746-5.923-6.374-13.686-4-24 1.256-3.411 6.931-2.402 6-8 3.19-.857 3.093 1.574 5 2-7.442-13.64-6.506-27.326-14-44-4.054-9.021-28.228-23.682-28-33 .123-5.032 9.658-13.063 16-13 13.771.138 24.134 24.913 23 37 9.599 16.068 11.635 39.698 17 60 11.952 4.789 10.229 29.969 5 41 6.72.719 7.188-4.812 12-6 1.083 4.917 5.658 6.342 8 10 .489 3.156-1.802 3.531-1 7 .226 1.44 2.985.349 3 2 3.133 15.93 2.717 29.424 3 44 5.853-1.48 7.062-7.604 14-8 1.421 5.912 4.156 10.511 9 13 1.605 18.412 7.192 27.266 13 42 11.768 1.764 36.36-1.373 45 11-3.277-1.626-3.823.227-8 0-2.721 1.612-.787 7.879-4 9-.473 3.14 2.691 2.643 3 5 6.919-1.414 9.629-7.037 18-7-3.738 4.596-12.478 4.189-15 10 2.902 2.766 6.847 4.486 9 8-3.77 1.23-8.179 1.822-11 4-10.212 4.889-7.465 20.593-11 30 5.412 6.753-2.55 16.842 6 22-1.316 2.35-2.788 4.546-2 9 7.329 29.723 14.658 67.579 26 101 3.175 29.354 12.414 54.896 14 89 .787 16.908-.983 29.867 10 38 20.28 6.404 33.138 15.381 43 34 4.501 8.498 5.303 18.393 9 27 3.425 7.973 10.455 17.652 16 24 5.422 6.207 15.378 15.281 24 20 1.559.854 3.764 1.362 6 1 10.096 17.812 30.639 29.543 45 45 20.837 22.428 36.031 48.127 56 72 5.322 16.345 14.928 28.405 22 43 3.246-2.088 6.618-4.049 10-6v-9c8.274-1.727 7.812-12.188 16-14v-9c3.217-1.449 5.604-3.729 9-5 .125-4.125-1.738-6.262-1-11 5.065-2.428 10.45-4.67 8-12 5.868-7.465 16.737-9.93 22-18-1.962-6.037-7.782-8.219-11-13-.819-14.704-2.766-25.305 5-32-.319-2.348-1.58-3.754-1-7 4.318-7.611 8.183-15.398 17-18 1.438-.424 3.66.641 5 0 9.856-4.714 13.014-18.975 25-20 .269-5.936-3.834-7.499-6-11-1.536-20.869 6.501-32.166 19-39 2.236-31.297 4.654-70.971-3-102 2.078-7.05 1.693-12.967 1-21-.762-2.572-2.428-4.238-5-5 3.73-5.397 2.576-12.084 3-19-.139-3.195-4.461-2.205-6-4 6.432-14.257-6.643-24.195-4-38-.079-3.588-6.538-.795-8-3 .071-5.263 3.878-6.788 6-10-1.459-4.873-5.82-6.847-9-10-.132-4.133 2.535-5.465 4-8 .529-4.529-1.471-6.529-6-6 .58-2.753 2.49-4.178 3-7-.125-2.209-4.242-.425-6-1 1.091-2.242 4.909-1.758 6-4-1.445-3.221-4.9-4.434-8-6 1.671-1.662 4.049-2.618 4-6-2.291-2.709-5.536-4.465-9-6-.739-4.406 3.237-4.097 4-7-.241-1.76-1.721-2.279-4-2 .32-3.347 5.71-1.623 6-5-1.519-5.175-6.481 1.262-8-1 .658-1.342 2.138-1.862 4-2 .104-4.437-5.193-3.474-6-7-.473-3.14 2.691-2.643 3-5-.712-2.621-5.708-.959-6-4-.612-5.613 4.984-5.016 5-10-.125-2.209-4.242-.425-6-1 3.733-3.541-1.771-6.864 3-11-7.462-.92-5.82-4.798-10-9-.275-3.941 4.275-3.059 4-7-7.413-2.057-2.402-10.336-11-11 1.375-10.965-1.26-12.12-2-25h-6c-.451-2.783 5.451.784 5-2-.859-5.751-7.503-4.181-4-12-1.011-1.656-4.247-1.086-6-2 2.687-10.33-5.761-11.341-5-22-1.809-1.858-5.05-2.283-8-3-1.333-16.531-2.869-25.453-10-38-64.13-28.03-133.651-52.862-203-78-15.178-5.502-31.717-8.112-46-16-18.977-.057-37.584-9.059-57-12-5.845-7.822-12.879-14.453-20-21-1.151-1.182-1.132-3.535-1-6-6.631-7.361-12.486-15.956-20-24-5.422-5.805-14.406-8.134-14-20-6.092-11.908-12.689-23.311-20-34-.802-3.469 1.489-3.844 1-7-8.896-13.755-9.92-31.606-15-51-2.06-7.865-4.438-12.759-6-22-2.657-15.722-14.994-27.249-16-40-1.056-13.383 1.399-33.108 13-39 6.712 23.971 9.92 48.309 12 75 .652 3.015 3.927 3.406 5 6v14c1.13 3.203 3.777 4.889 6 7-.607 7.273.767 12.566 1 19-.042 3.709 3.75 3.583 5 6 1.271 2.579.471 7.771 1 12 .98 7.837 4.969 8.379 9 16 1.826 3.453 2.054 10.025 4 15 2.22 5.674 5.614 8.475 6 17 .962 3.038 5.823 2.177 8 4 6.145 15.189 17.814 24.853 25 39 3.247-.58 4.652.681 7 1 4.274 5.392 6.117 13.216 10 19a37.82 37.82 0 0 0 7-4c23.649-1.665 39.463 14.016 59 22 8.576 3.504 18.196 5.614 27 9 28.036 10.781 56.063 23.021 86 31 40.558 18.442 84.123 33.877 126 51-1.858-10.344-.146-20.793 0-36 9.426-7.272 17.027-17.082 32-16 11.006.796 20.045 8.188 30 7 2.168-.168.453 3.547 1 5 2.811 1.189 5.75 2.25 9 3 7.365 7.354 7.977 16.422 14 24 7.252 9.125 21.099 13.723 23 29 21.955-.399 51.043-10.031 74-16 62.153-11.844 123.463-29.806 183-44 8.6-2.051 16.334-3.057 24-6 13.466-5.17 26.362-15.248 48-14-.663-5.171-.777-5.031-1-11 6.07-10.648 4.076-33.199 1-44 6.043-7.286.83-23.258 0-33-1.146-3.146 1.57-2.43 2-4-5.479-10.031-.39-24.456-4-36 4.988-4.402 1.758-10.831 3-17 .81-4.018 5.389-8.511 7-14 3.551-12.096 2.768-24.896 8-34 4.784-8.325 13.279-15.634 20-20 10.431 24.153-10.099 42.114-21 59-2.284 18.614-7.422 37.847-5 60 .308 2.813 2.795 5.209 3 8 .795 10.801-4.623 22.67 3 30-11.228 23.975 4.661 56.781-12 75-63.174 10.923-133.771 21.41-188 43-4.666 1.857-7.249 5.236-12 6-3.908.629-6.847-1.18-11-1-43.48 1.875-82.676 15.898-121 28 7.58 63.859 29.361 115.128 42 175 .871 20.129 4.01 37.99 9 54 1.737 23.886 7.299 50.254 12 73 7.381 35.712 5.682 74.871 11 116 14.615 10.955 31.899 24.945 26 46-1.864 6.652-10.656 11.428-11 18-.195 3.731 9.072 26.342 18 24 6.284 4.716 9.305 12.695 14 19-6.66 9.266 1.331 19.442 1 28-.413 10.687-8.841 14.24-16 21 3.073 7.261 10.062 10.604 15 16 1.281 4.719 2.059 9.941 7 11-4.586 6.289.152 15.991 6 18-2.087 5.556 2.562 9.43-1 14 11.311 5.553 6.459 21.644 16 28 1.069 3.736-2.483 2.85-2 6 5.741 4.033 12.545 11.975 11 20 .646 3.021 4.542 2.791 6 5 10.283-6.051 14.834-17.833 25-24 25.079-37.255 64.395-60.271 100-87 29.691-15.314 60.885-29.971 86-49 2.518-1.908 6.551-2.66 9-5 16.081-15.365 24.345-38.474 51-42 8.881-1.175 17.72.148 26-5 10.574-6.574 10.248-25.141 19-33 3.773-15.227 14.941-23.059 19-38 9.244-8.09 14.911-19.755 21-31 4.108-1.225 4.115-6.552 9-7 6.461-16.206 16.387-28.947 27-41 4.104-12.666 13.655-21.414 16-33-1.668-3.235-1.463-2.135-1-7-1.899-2.246-4.391-2.567-10-3 .712-4.288 7.134-2.866 8-7 .566-6.232-6.305-5.029-7-10 1.768.898 2.92 2.414 5 3 4.072-4.879 22.635-12.117 33-11 6.384.688 10.835 7.476 16 7 6.381-.588 11.62-11.893 18-16 6.299-4.055 7.839-10.73 18-11 3.018 4.865 5.384 4.258 10 7 6.197-11.857 16.435-36.434 29-42 7.474-3.311 9.788 5.214 18 7-4.273-9.469 4.269-31.432 16-31 11.011-17.062 25.484-58.218 41-76 13.273-15.213 38.27 1.539 45 16z" fill-rule="evenodd"/></svg>