<svg xmlns="http://www.w3.org/2000/svg" xmlns:dc="http://dublincore.org/documents/dcmi-terms/" height="1043.034" viewBox="0 0 927.053 1043.034" width="927.053" overflow="visible"><metadata><dc:description>Silhouette of Cyclorrhapha, processed by PhyloPic Tools (https://github.com/eweitz/phylopic-tools)</dc:description><dc:source>http://phylopic.org/image/fdd9c1c9-7391-4e2b-af4e-a0d289fa9466</dc:source><dc:creator>Gareth Monger</dc:creator><dc:license>http://creativecommons.org/licenses/by/3.0/</dc:license></metadata><switch><g><path d="M313.432 257.567c-1.333-11.333.667-23.333 8-36 7.333-12.667 15.333-28 32-34.667 16.667-6.667 23.333-10.667 29.333-10.667s6.667 4 6.667 4 3.333-10 10-14 10.667-11.333 16.667-16c6-4.667 12-7.333 12-7.333l-.667-2.667 4-2s-5.333-2-8-8l-2.667-6s-5.39-5.79-11.801-13c-5.304-5.964-11.307-12.901-15.533-18.334-9.333-12-15.333-19.333-15.333-19.333l40 43.333 1.333-6 7.333 2.667 7.333 7.333 3.333 10.667v3.333l2.667.667 3.334 5.333 5.333.667.667-2.667s2.666-8.667 10.666-15.333 16.667-10 16.667-10v2.667L508.098 88.9l-37.333 37.333.667 6.667-4.667 7.333-.667 5.333s14.668 4 21.334 11.333 18 23.333 18 23.333 28 4.667 41.333 18.667c13.333 14 30.001 33.333 30.667 49.333.666 16-1.334 24.666-7.334 27.333a10727.37 10727.37 0 0 0-4.89 2.174l-1.11.493s-28-3.334-46-6.667c-18-3.333-151.333-6.665-151.333-6.665s-12.667 5.333-23.333 6c-10.666.667-16.667.667-22.667-2.667-6-3.334-7.333-10.666-7.333-10.666z"/><path d="M328.098 260.234s-5.333 17.333 1.333 21.333 10.667 4 40 4.667c29.333.667 63.333-1.333 93.333 0s57.999 5.333 69.333 5.333c11.334 0 16.668 5.333 23.334 0s21.332-14.666 12.666-23.333c-8.666-8.667-239.999-8-239.999-8z"/><path d="M359.432 278.234c-12 3.333-12 7.333-18 11.333s-22.667 16.667-23.333 42c-.666 25.333-3.333 46-3.333 58s-18.667 25.334-18.667 32.667c0 7.333 3.333 14.667 3.333 14.667l-21.333 100.667s-28 181.999-28.667 196.666c-.667 14.667-3.333 31.334-3.333 31.334s-7.333 33.999-9.333 74.666c-2 40.667-2 57.334 4 97.334s22.667 69.334 32 82c9.333 12.666 15.333 22.666 26 17.333 10.667-5.333 24-19.333 38.667-38 14.667-18.667 39.333-74.667 44.667-82.667 5.334-8 18.667-33.333 18.667-33.333s20.666-57.999 23.333-69.333c2.667-11.334 12.667-53.334 12.667-53.334l-77.335-482z"/><path d="M507.236 282.901c12 3.333 12 7.333 18 11.333 6.001 4 22.667 16.667 23.334 42 .667 25.333 3.333 46 3.333 58s18.667 25.334 18.667 32.667c0 7.333-3.333 14.667-3.333 14.667l21.333 100.667s28 181.999 28.667 196.667c.666 14.666 3.333 31.334 3.333 31.334s7.333 33.998 9.333 74.666c2 40.666 2 57.334-4 97.334s-22.667 69.334-32 82c-9.333 12.666-15.334 22.666-26 17.332-10.666-5.332-24-19.332-38.667-38-14.666-18.666-39.332-74.666-44.666-82.666-5.334-8-18.667-33.334-18.667-33.334s-20.666-57.998-23.333-69.332c-2.667-11.334-12.667-53.334-12.667-53.334l77.333-482.001z"/><path fill="none" stroke="#000" stroke-linecap="round" d="M316.765 398.9l-18.333 4.667-17 11.666M301.765 353.233s12.667 4.333 17 4M323.432 292.233s10-1.333 13 2.333M301.432 325.9c1.333 0 18.333 11.667 21.667 10.667M308.765 326.567s7 4.667 12 5M313.098 306.567s6.333 2.333 9.667 4.667M313.765 313.567s3.667 3 7 4.333M317.432 297.9s14.333-2.333 16.333 0M314.098 298.9s14.667 2 17.333 3.333c2.666 1.333-12-2.333-17 0M309.098 318.567s6.333-2.667 12.333.667c6 3.334-11.333 2.333-16 3"/><path d="M312.098 310.9s8-.333 11.333 1-11.667.333-16 3M316.098 304.567s7.333-1 9.333.667-12.333 2.667-16.333 4M328.765 288.9s8.667.333 12 1.667 4.667-2 4.667-2-10.333-2-12.333-2M286.098 407.567s26-12.333 30-13.333-16 1.667-22.333 5" fill="none" stroke="#000" stroke-linecap="round"/><path d="M289.432 415.567s18.333-11.333 21.667-11.333c3.334 0 5-13.667 5-13.667s1.333-7.333-13.333.333a94459.761 94459.761 0 0 0-14.667 7.667" fill="none" stroke="#000" stroke-linecap="round"/><path d="M292.432 391.567s19.333-1.333 22.333-1c3 .333 2.667-4 2.667-4s-12.667-1.667-17.667-.667M296.765 371.9l25-5.333-31 4.333M304.765 330.567s13.333 3 16 2 1.333-6.667 1.333-6.667h-22M303.098 334.233s12.667 3.667 15 4c2.333.333 1.333 5.667 1.333 5.667s-14.667 1-18 1" fill="none" stroke="#000" stroke-linecap="round"/><path d="M301.765 338.233l17.333-1.667v2.667s-16.333 4.667-17.333 9" fill="none" stroke="#000" stroke-linecap="round"/><path d="M302.432 342.567h17.333s-17 8.667-18.667 9.667" fill="none" stroke="#000" stroke-linecap="round"/><path d="M304.098 348.233s11.333-1.333 14-.667c2.667.666 1.333 4 1.333 4s-13.667-1-20 4.667M293.765 368.567s17-6.333 22.333-4.667c5.333 1.666 1.333-4 1.333-4s-16 2.333-18.333 3.333c-2.333 1-4.667 1.333-4.667 1.333M296.765 361.9l22-6v-3s-16 2.667-19.333 5M289.765 386.233s26.667-13.333 28-11.667c1.333 1.666 1.333 5 1.333 5s-16.667 3.667-22.667 7.667" fill="none" stroke="#000" stroke-linecap="round"/><path d="M293.098 381.9l28.333-8.667-.333-3.333s-5.667.333-21.333 7.333" fill="none" stroke="#000" stroke-linecap="round"/><path fill="none" stroke="#000" stroke-linecap="round" d="M291.432 375.567l25-3-22.334 6.666M299.765 388.233l17.667-11s-21 9-23 11.667"/><path d="M339.844 289.439l-5.746-.539-2.333 3 7 .333-12.667 3 9 .334-10.333 3.333 5.667.667-8.667 2.666 7 .667-10.667 2.333 6.667 2.667-8.333 3.333 7 3.334-8.667 1.666 8 .334-9.333 3.666 7 1.334-7.334 1 7 1.666-6.333 3.334h5.667l-10 6 10.333 1.333-12 4.667 12 3-12 5.333 12 1-11 .667 9 2.333-12.667 6 13.334 1-18 5.333 17-.333-9.334 1.667 12 1-16.485 5.189-1.515.477 12.334-.333-12 6.667 19.333 1.666-20.667 2.667 16.334-.333-15 6.333 13.333-1.333-10 4 10 .333-22.667 8.333 20 .667-15 5.667 14.667-3-16 9.333 15.667-4 11.333-27-.333-52 8.333-26 11-8.333 2-5.667z"/><path fill="none" stroke="#000" stroke-linecap="round" d="M550.432 406.567l18.333 4.666 17 11.667M565.432 360.9s-12.666 4.333-17 4M543.765 299.9s-10-1.333-13 2.333M565.765 333.567c-1.333 0-18.333 11.667-21.667 10.667M558.432 334.233s-7 4.667-12 5M554.098 314.233s-6.332 2.333-9.666 4.667M553.432 321.233s-3.666 3-7 4.333M549.765 305.567s-14.333-2.333-16.333 0M553.098 306.567s-14.666 2-17.333 3.333c-2.667 1.333 12-2.333 17 0M558.098 326.233s-6.333-2.667-12.333.667c-6 3.334 11.333 2.333 16 3"/><path d="M555.098 318.567s-8-.333-11.333 1 11.667.333 16 3M551.098 312.233s-7.333-1-9.333.667 12.333 2.667 16.333 4M538.432 296.567s-8.666.333-12 1.667c-3.334 1.334-4.667-2-4.667-2s10.333-2 12.333-2M581.098 415.233s-26-12.333-30-13.333 16.001 1.667 22.334 5" fill="none" stroke="#000" stroke-linecap="round"/><path d="M577.765 423.233S559.432 411.9 556.098 411.9c-3.333 0-5-13.667-5-13.667s-1.332-7.333 13.334.333l14.666 7.667" fill="none" stroke="#000" stroke-linecap="round"/><path d="M574.765 399.233s-19.333-1.333-22.333-1c-3 .333-2.667-4-2.667-4s12.667-1.667 17.667-.667M570.432 379.567l-25-5.334 31 4.334M562.432 338.233s-13.333 3-16 2-1.334-6.667-1.334-6.667h22M564.098 341.9s-12.666 3.667-15 4c-2.333.333-1.333 5.667-1.333 5.667s14.667 1 18 1" fill="none" stroke="#000" stroke-linecap="round"/><path d="M565.432 345.9l-17.334-1.667v2.667s16.334 4.667 17.334 9" fill="none" stroke="#000" stroke-linecap="round"/><path d="M564.765 350.233h-17.333s17 8.667 18.666 9.667" fill="none" stroke="#000" stroke-linecap="round"/><path d="M563.098 355.9s-11.333-1.333-14-.667c-2.666.667-1.333 4-1.333 4s13.667-1 20 4.667M573.432 376.233s-17-6.333-22.334-4.667c-5.333 1.667-1.333-4-1.333-4s16 2.333 18.333 3.333c2.334 1 4.667 1.333 4.667 1.333M570.432 369.567l-22-6v-3s16 2.667 19.333 5M577.432 393.9s-26.666-13.333-28-11.667c-1.334 1.666-1.334 5-1.334 5s16.667 3.667 22.667 7.667" fill="none" stroke="#000" stroke-linecap="round"/><path d="M574.098 389.567l-28.333-8.667.333-3.333s5.668.333 21.334 7.333" fill="none" stroke="#000" stroke-linecap="round"/><path fill="none" stroke="#000" stroke-linecap="round" d="M575.765 383.233l-25-3 22.333 6.667M567.432 395.9l-17.667-11s21 9 23 11.667"/><path d="M527.353 297.105l5.745-.538 2.334 3-7 .333 12.666 3-9 .333 10.334 3.334-5.667.666 8.667 2.667-7 .667 10.666 2.333-6.666 2.667 8.333 3.333-7 3.333 8.667 1.667-8 .333 9.333 3.667-7 1.333 7.333 1-7 1.667 6.334 3.333h-5.667l10 6-10.333 1.334 12 4.666-12 3 12 5.334-12 1 11 .666-9 2.334 12.666 6-13.333 1 18 5.333-17-.333 9.333 1.666-12 1 16.485 5.19 1.515.477-12.333-.333 12 6.666-19.333 1.667 20.666 2.667-16.333-.334 15 6.334-13.333-1.334 10 4-10 .334 22.666 8.333-20 .667 15 5.666-14.666-3 16 9.334-15.667-4-11.333-27 .333-52-8.333-26-11-8.334-2-5.666zM389.159 181.291l-7.84-26.133s4.065 13.066 6.969 16.841c2.904 3.775 4.355 4.937 4.355 4.937l-7.55-17.712 8.421 13.938s-3.368-9.945-6.409-15.647c-1.051-1.97-2.062-3.434-2.883-3.807-3.194-1.452-2.903-2.904-2.903-2.904s7.259 7.259 9.873 10.744c2.614 3.485 4.936 10.163 4.936 10.163l.581-2.033-5.807-13.938-.871-6.388 7.84 19.164 1.742-.871-3.775-10.744 4.937 9.873-2.613-8.42 4.936 6.098-6.678-10.744 8.42 9.001-7.84-14.228 9.873 13.066 1.452-1.162-4.936-9.001 6.388 6.678-5.227-9.873 6.969 6.679-1.162-6.388 3.484 4.355-1.162-9.873 3.419 7.272.355-12.499 1.452 12.486 1.161-10.744.581 8.42.871-5.227 2.032 4.355 3.194-2.032-1.452-4.937 4.065 4.646-39.198 36.589zM505.648 183.929l7.84-26.133s-4.065 13.066-6.969 16.841c-2.904 3.775-4.355 4.937-4.355 4.937l7.549-17.712-8.42 13.938s3.367-9.945 6.408-15.647c1.051-1.97 2.062-3.434 2.883-3.807 3.194-1.452 2.904-2.904 2.904-2.904s-7.26 7.259-9.873 10.744c-2.613 3.485-4.936 10.163-4.936 10.163l-.581-2.033 5.808-13.938.871-6.388-7.84 19.164-1.742-.871 3.774-10.744-4.937 9.873 2.613-8.42-4.936 6.098 6.678-10.744-8.42 9.001 7.84-14.228-9.873 13.066-1.451-1.162 4.936-9.001-6.389 6.678 5.227-9.873-6.969 6.679 1.162-6.388-3.484 4.355 1.162-9.873-3.42 7.272-.355-12.499-1.452 12.486-1.161-10.744-.581 8.42-.871-5.227-2.032 4.355-3.194-2.032 1.452-4.937-4.065 4.646 39.199 36.589z"/><g fill="none" stroke="#000" stroke-linecap="round"><path d="M514.888 176.645l-.58 7.55 2.613.29s-2.322-3.484 2.323-8.42M523.309 177.226l-2.903 9.291 2.613 1.452 3.194-14.518M530.859 178.097l-4.937 10.453 6.679-9.002M535.214 181.291l-4.355 7.839 6.388-5.807"/><path d="M541.022 182.742l-4.355 9.583h-2.905l3.195-9.873M541.602 186.227l-3.484 6.969 2.323 1.742 5.808-6.969M546.83 190.873l-2.614 6.678 1.161 1.452 4.937-7.549M553.217 194.647l-4.936 8.131 3.484 2.904 9.292-4.937"/><path d="M554.959 198.422l-4.355 4.936 1.742 4.066 6.388-2.904M561.638 208.004l-4.355 4.356 3.484 4.646 6.098-1.162"/></g><g fill="none" stroke="#000" stroke-linecap="round"><path d="M378.618 171.978l.58 7.55-2.613.29s2.322-3.484-2.323-8.42M370.197 172.559l2.903 9.292-2.613 1.452-3.195-14.519M362.647 173.43l4.936 10.453-6.678-9.001M358.292 176.624l4.355 7.84-6.388-5.807"/><path d="M352.484 178.076l4.355 9.582h2.905l-3.195-9.872M351.904 181.561l3.484 6.968-2.323 1.742-5.808-6.968M346.676 186.206l2.614 6.679-1.162 1.451-4.936-7.549M340.289 189.981l4.936 8.13-3.484 2.904-9.292-4.936"/><path d="M338.546 193.756l4.356 4.936-1.742 4.065-6.388-2.903M331.868 203.338l4.355 4.355-3.484 4.646-6.098-1.161"/></g><path d="M384.098 876.234s26.667 48.667 38.667 52c12 3.333 19.334 3.999 26.667 3.333 7.333-.666 36-24 37.333-30 1.333-6-42.667-130-42.667-130L511.432 366.9l1.333-85.333-159.333-7.333 8 73.333 50 303.334 10 117.333-37.334 108zM543.098 202.567l13.334-12.333-.334-2.667 1.667-2s-11.334-27.667-20.667-38.333c-9.333-10.666-36.667-40-37-43.333-.333-3.333.667-5 .667-5s-6.334-22-6.667-28.333c-.333-6.333-.666-9.333-.666-9.333l1.666-1.667s-2.667-8.333-3-10.667c-.333-2.334-.333-4.667-.333-4.667s-.333-3.667-.333-7v-6.333s-1.334-3.667-.334-5.667l1-2 .334-7.667s-15.334-8-10.334-11.333 6.334-1.667 11.334-1 7.333 1.667 8.333.333 11.999-5.667 11.333-2.333c-.666 3.334-8.666 13-8.666 13l-1.334 6 2.334-.333-4 12 4-.333-3.334 8.333 2.334 3-1 15.333 3.666 1s-1.666 7.333 1.334 16 3.333 21 3.333 21 9.667 7.333 18.667 20.333c9 13 35.999 61 36.666 66.333.667 5.333 2 5.667 2 5.667s.667 2.333.667 5.333-5.333 15.333-5.333 15.333l-9.334 9-12-15.666zM334 226.562l-15.851-8.87-.299-2.67-2.089-1.554s4.544-29.551 11.121-42.106c6.577-12.555 26.286-47.471 25.83-50.79-.456-3.319-1.818-4.705-1.818-4.705s1.009-22.872-.15-29.107c-1.159-6.235-1.537-9.23-1.537-9.23l-2.01-1.23s.643-8.726.42-11.072c-.222-2.347-.769-4.615-.769-4.615s-.534-3.643-1.314-6.884l-1.482-6.157s.439-3.877-1.001-5.588l-1.44-1.71-2.119-7.375s13.036-11.367 7.394-13.438c-5.641-2.07-6.548-.138-11.253 1.681s-6.739 3.337-8.023 2.275c-1.285-1.062-12.992-2.701-11.564.384 1.428 3.085 11.468 10.61 11.468 10.61l2.702 5.521-2.347.223 6.697 10.73-3.967.612 5.192 7.321-1.567 3.463 4.561 14.673-3.33 1.83s3.336 6.74 2.448 15.868c-.888 9.128 1.675 21.197 1.675 21.197s-7.682 9.392-13.389 24.138c-5.708 14.745-20.722 67.732-20.122 73.073.6 5.341-.618 5.977-.618 5.977s-.102 2.425.6 5.342 8.773 13.659 8.773 13.659L326 244.602l8-18.04zM19.969 443.853s-6.996-4.478-9.794-4.198c-2.798.28-1.959 12.033 0 13.992l1.959 1.959s-1.959 6.717.28 9.795c2.239 3.078 5.877 6.716 5.877 6.716s9.514-6.157 8.115-8.675c-1.399-2.518 8.955-6.437 8.955-6.437l.28 1.679 12.313-5.877.839 3.078 6.157-6.716s.279 1.679 3.638 1.959 23.228-5.876 23.228-5.876 2.798 2.798 3.638 3.078c.84.28 13.992-5.037 22.388-5.037s29.664 1.119 29.664 1.119l5.598 4.198s4.198-1.4 13.153 1.119 59.607 18.47 59.607 18.47l34.702 11.753 3.078 1.399 3.079-1.399 49.252-7.276-.28-19.589s-18.189.56-32.462 4.757c-14.273 4.197-27.985 6.716-27.985 6.716L147.3 433.219l-3.078-1.679-7.276 1.959s-28.824.28-34.98.28c-6.156 0-21.268-1.679-21.268-1.679l-1.119 2.519s-12.033 3.079-17.63 1.679c-5.597-1.4-7.836.28-7.836.28l-1.119.28-12.594 1.958-2.239 1.679s-6.716.56-8.955.56-2.798 2.519-2.798 2.519l-6.439.279zM835.737 472.259s7.58-3.395 10.307-2.705c2.727.69.16 12.19-2.066 13.838l-2.227 1.648s.945 6.932-1.725 9.646c-2.669 2.713-6.805 5.774-6.805 5.774s-8.501-7.495-6.744-9.779c1.756-2.284-7.906-7.689-7.906-7.689l-.525 1.62-11.31-7.631-1.285 2.92-5.097-7.552s-.524 1.62-3.888 1.4c-3.362-.219-22.104-9.243-22.104-9.243s-3.182 2.354-4.054 2.507c-.872.153-13.095-7.048-21.397-8.289-8.304-1.24-29.504-3.275-29.504-3.275l-6.156 3.326s-3.944-2.005-13.173-.836-61.683 9.462-61.683 9.462l-36.057 6.499-3.251.929-2.839-1.838-47.638-14.472 3.171-19.333s17.907 3.241 31.403 9.5c13.496 6.26 26.686 10.776 26.686 10.776l101.502-16.53 3.292-1.206 6.907 3.013s28.467 4.535 34.556 5.444c6.088.91 21.282 1.481 21.282 1.481l.734 2.656s11.446 4.822 17.189 4.265c5.742-.557 7.709 1.434 7.709 1.434l1.065.442 12.165 3.797 1.967 1.991s6.56 1.546 8.773 1.877c2.214.331 2.396 2.904 2.396 2.904l6.33 1.229zM295.098 529.567s-91 98-94 100-3 7-3 7-36 60-38 68-10 58-10 58l-66 66-8 6-20 16v7l-17 10-2 5-16 10s-29 3-19 6 13 5 13 5-2 13 2 14 13-1 13-1l-2-11 8-7 4 4 4-13 4 5 11-18 2 4 31-32 73-66 8-1s1-26 1-31v-17s14-20 14-25 26-57 26-57 3-8 14-9 53-40 53-40l14-63zM559.453 518.338s110.604 75.177 113.976 76.455c3.371 1.279 4.489 6.152 4.489 6.152s48.502 50.434 52.239 57.784c3.738 7.351 22.713 54.297 22.713 54.297l79.084 49.575 9.139 4.06 23.071 11.124 1.564 6.823 18.806 5.946 3.066 4.427 17.831 6.17s28.937-3.559 19.86 1.601c-9.076 5.16-11.553 7.78-11.553 7.78s4.855 12.224 1.18 14.093c-3.675 1.868-12.895 1.931-12.895 1.931l-.51-11.168-9.362-5.035-3.005 4.793-6.805-11.776-2.781 5.768-14.745-15.086-1.055 4.347-37.369-24.261-85.907-48.011-8.021.814s-6.786-25.119-7.904-29.992l-3.801-16.57s-18.116-16.363-19.234-21.237c-1.117-4.873-38.084-49.745-38.084-49.745s-4.713-7.127-15.657-5.643c-10.945 1.484-60.601-27.14-60.601-27.14l-27.729-58.276z"/></g></switch></svg>