<svg xmlns="http://www.w3.org/2000/svg" xmlns:dc="http://dublincore.org/documents/dcmi-terms/" height="31.668" version="1.2" viewBox="0 0 30.082 31.668" width="30.082" overflow="inherit"><metadata><dc:description>Silhouette of Cycliophora + Entoprocta, processed by PhyloPic Tools (https://github.com/eweitz/phylopic-tools)</dc:description><dc:source>http://phylopic.org/image/e45fb58a-e9ed-43b0-9fe4-f7997c80f731</dc:source><dc:creator>Michelle Site</dc:creator><dc:license>http://creativecommons.org/licenses/by-nc/3.0/</dc:license></metadata><path d="M6.27 6.851c-.032.008-.466.109-.591.09-1.238.027-3.529-3.664-4.052-4.391-.52-.726-.964.056-.817.407.146.351.923 2.73 3.381 4.493 1.044.604.571 1.528.571 1.528M9.612 4.048s-.333.467-1.331.022c-1-.443-4.538-3.247-5.035-3.287-.503-.041-.825.095-.754.659.185 1.129 3.746 1.8 4.74 3.354.137.331.51.588-.276 1.639" fill="#010101" stroke="#020202" stroke-width=".25" stroke-miterlimit="10"/><path d="M10.541 3.231s-.439-2.793.191-3.036c.634-.242.661.197.731.417.574 2.802 1.376 3.876 2.044 3.606.665-.271-.094-3.364.804-3.641.897-.279.745.169.565.367-1.091.719-.095 2.253.095 2.575.191.322.312 1.663-.017 2.361-.372.799-.223 1.035.746 1.892.966.855 2.649 6.44 2.663 7.562.018 1.121-.409 1.964 1.023 3.875 1.436 1.909 6.542 8.249 7.984 7.942 1.021-.146.687-.785 1.63-1.353.82-.407 1.041-1.306.928.595-.115 1.9-.024 2.443-.14 4.388-.05.86.063 1.009-1.07.365-1.132-.646-1.517-1.444-1.833-1.536-6.704-2.021-6.404-4.242-11.485-9.563-.872-.84-.647-.401-.975.189-.045.05-.4.682-1.199 1.131-1.27.546-3.148-.595-1.77-2.596.511-.837-2.93-1.399-4.764-4.349-.644-.795-.886-.816-1.768-.926-.998-.121-1.418.073-2.309.433-.388.226-1.207.59-1.835 2.004-.447.471-.625-.08-.656-.247C.48 11.893 4.239 11.9 4.239 11.9s1.032.051.29-.666C4.376 11.164.559 9.41.475 8.129c-.189-1.037.685-.393.685-.393s2.062 2.239 2.775 1.907" fill="#010101" stroke="#020202" stroke-width=".25" stroke-miterlimit="10"/><path d="M5.692 13.625s1.914-.432 2.51-1.309c.597-.875.824-.666 1.267-.877.442-.21.218-.661 1.665-1.228 1.448-.564 1.431-1.819 2.259-2.059.833-.241 1.353-1.508 1.353-1.508" fill="#010101" stroke="#020202" stroke-width=".25" stroke-miterlimit="10"/><path d="M5.849 12.806c-.009-.366-.25-.674-.424-.982-.191-.308-.396-.606-.601-.906-.408-.6-.829-1.19-1.184-1.828-.146-.32-.391-.656-.276-1.063.033-.084.056-.177.14-.26.106-.098.252-.028.32.023.157.114.279.251.396.396.442.583.824 1.194 1.318 1.722.237.269.499.516.764.759.279.223.545.483.843.663.287.184.667.234.926.016.261-.205.398-.551.464-.89.122-.68.01-1.456-.447-1.97-.243-.233-.552-.459-.824-.687-.283-.216-.575-.446-.865-.62l-.024-.014-.007-.009c-.101-.141-.253-.298-.165-.557.148-.231.37-.203.534-.221.352.014.667.035 1.012.172.654.282 1.084.864 1.414 1.438.167.291.306.598.452.884.077.155.134.232.283.302.132.067.282.118.426.134.311.05.512-.128.498-.443 0-.298-.096-.614-.206-.915l.008.018c-.275-.476-.632-.888-1.1-1.174-.228-.147-.504-.288-.683-.562-.166-.275-.193-.582-.205-.869V5.354c.03-.256.114-.473.259-.684.062-.089.216-.244.413-.159.155.089.193.216.245.325.079.244.128.417.253.603.115.182.253.354.401.517.298.326.633.622.987.888.179.133.364.256.553.367.095.054.192.105.29.146a.57.57 0 0 0 .223.051l-.001-.001.018-.011c.285-.18.58-.423.601-.739.017-.315-.236-.6-.5-.813-.27-.225-.588-.371-.908-.543a19.318 19.318 0 0 1-.934-.54c-.608-.383-1.213-.783-1.722-1.309a2.184 2.184 0 0 1-.33-.446 1.194 1.194 0 0 1-.124-.551c-.027-.189.149-.445.37-.427.203-.007.377.059.549.138l.005.003.006.004a66.458 66.458 0 0 0 2.424 1.943c.413.312.831.62 1.259.91.214.145.432.285.658.413.112.064.228.123.346.175.118.042.249.104.373.056-.125.05-.257-.009-.375-.049a3.545 3.545 0 0 1-.352-.168 9.562 9.562 0 0 1-.667-.4 26.67 26.67 0 0 1-1.278-.886 69.833 69.833 0 0 1-2.467-1.896l.011.007c-.151-.07-.326-.13-.482-.12-.166-.003-.252.132-.247.3.001.161.035.347.112.485a2 2 0 0 0 .312.414c.492.503 1.095.899 1.7 1.272.305.187.615.361.93.529.311.166.65.319.936.553.275.225.583.529.571.957-.035.429-.381.691-.679.885l.015-.013c-.207.118-.303.014-.421-.011a2.7 2.7 0 0 1-.315-.154c-.2-.113-.389-.24-.574-.375a7.563 7.563 0 0 1-1.023-.905 4.238 4.238 0 0 1-.428-.544c-.132-.189-.216-.452-.275-.635-.036-.092-.092-.19-.138-.21-.024-.02-.089.01-.149.095-.11.158-.192.376-.21.567v-.009c.011.27.044.543.176.752.132.206.373.336.615.489.496.296.898.752 1.188 1.246l.005.009.004.009c.115.317.227.642.227 1.007-.003.177-.043.393-.211.54-.167.146-.385.161-.562.14a1.529 1.529 0 0 1-.512-.164c-.163-.065-.32-.257-.379-.405-.152-.301-.283-.598-.443-.881C8.651 7.542 8.246 7 7.667 6.749c-.266-.116-.623-.153-.926-.163-.147 0-.324.033-.352.102-.041.062.042.231.132.333l-.03-.023c.332.201.607.426.897.649.281.24.561.442.838.711.512.591.611 1.405.479 2.131-.076.362-.219.739-.536.988-.323.266-.798.194-1.107-.015-.321-.198-.573-.454-.859-.685-.266-.25-.531-.501-.771-.777-.496-.537-.882-1.163-1.311-1.737-.197-.238-.559-.698-.656-.198-.105.312.109.672.253.984.337.637.747 1.237 1.141 1.844.198.303.397.606.583.917.169.315.404.628.407.996" fill="#010101"/><path d="M6.108 10.582s-1.217-1.16.968-3.019M8.127 6.817s.326-.198.758-.608M9.823 5.594s.729-.642 1.305-.504M11.462 18.771s1.016-1.243 1.881-.793" fill="#010101" stroke="#020202" stroke-width=".25" stroke-miterlimit="10"/><path d="M4.704 9.562c.124.022.144-.087.101-.242.161-.092.206-.227-.096-.345-.02-.008-.046-.009-.068-.013a.888.888 0 0 0-.176-.205c-.024-.051-.055-.096-.086-.143a1.052 1.052 0 0 0-.275-.361c-.083-.178-.232-.359-.418-.406-.167-.043-.214.088-.207.218-.052.032-.078.102-.056.211a.582.582 0 0 0 .099.323c.001.221.091.399.274.59l.016.015c.088.237.196.468.385.678.065.073.236.209.358.186.021.007.043.028.063.029l.132.006c.205.012.123-.29-.046-.541zM10.654 3.627c-.08-.225-.254-.493-.406-.552-.01-.004-.014 0-.022-.003-.076-.111-.162-.204-.243-.235-.004-.002-.007 0-.011-.001a.53.53 0 0 0-.192-.167c-.026-.01-.041-.006-.061-.007-.03-.035-.058-.08-.088-.106-.089-.154-.201-.292-.303-.332-.078-.031-.118-.013-.142.022a.383.383 0 0 0-.106-.076.156.156 0 0 0-.092-.009.506.506 0 0 0-.165-.136c-.135-.053-.175.02-.164.138-.035.003-.073-.003-.104.019-.252.184-.13.592.019.809.062.089.14.159.221.223.09.179.22.35.337.396h.008c.159.157.33.273.524.365.018.102.069.229.138.349-.246-.146-.764-.13-.842.092-.032.088-.005.135.03.161-.024-.003-.052-.007-.093-.01a1.4 1.4 0 0 0-.514.056c-.345.105-.593.536-.783.819-.218.33-.599.71-.515 1.04-.315-.118-.945.125-.65.349-.247.013-.511.129-.497.265-.022.044-.021.091.022.137l-.067.106a1.832 1.832 0 0 0-.341.204c-.261.2-.379.59-.376.905.001.172.19.253.402.269.289.173 1.142.028.823-.261-.047-.038-.033-.084.044-.139.038-.055.035-.099.016-.137a6.29 6.29 0 0 1 .277-.503l.003-.001a.701.701 0 0 0 .553-.502c.023-.071.001-.127-.039-.177a.29.29 0 0 0 .111-.1c.028-.016.059-.032.077-.05.247.114.64.131.822-.099.184-.233.411-.426.585-.669.19-.264.236-.679.338-.994.048-.003.094.006.142-.002.314-.054.485-.211.59-.508.01-.027.001-.05.001-.074a.527.527 0 0 0 .186.162c.126.05.167-.013.165-.116.096-.054.031-.303-.095-.524.141.092.283.187.428.253.427.193.278-.369.049-.649z" fill="#020202"/></svg>