<svg xmlns="http://www.w3.org/2000/svg" xmlns:dc="http://dublincore.org/documents/dcmi-terms/" height="175.279" width="203.362"><metadata><dc:description>Silhouette of Cylindrocystis brebissonii, processed by PhyloPic Tools (https://github.com/eweitz/phylopic-tools)</dc:description><dc:source>http://phylopic.org/image/ed5f8172-b355-4fb1-bad6-d926d200e16f</dc:source><dc:creator>Matt Crook</dc:creator><dc:license>http://creativecommons.org/licenses/by-sa/3.0/</dc:license></metadata><g transform="translate(-332.745 -572.264)" stroke="#000"><rect height="83.279" rx="52.141" ry="38.262" transform="rotate(-37.942)" width="234.098" x="-180.193" y="745.896" fill="#fff" stroke-width="2" stroke-linecap="round" stroke-linejoin="round"/><rect height="73.279" rx="49.914" ry="33.668" transform="rotate(-37.942)" width="224.098" x="-175.193" y="750.895" stroke-width="2" stroke-linecap="round" stroke-linejoin="round"/><path d="M411.803 640.559a7.213 7.869 0 1 1-14.426 0 7.213 7.869 0 1 1 14.426 0z" transform="matrix(.71067 -.55407 .5079 .65145 -213.588 471.393)" fill="#666" stroke-width="2.318" stroke-linecap="round" stroke-linejoin="round"/><path d="M411.803 640.559a7.213 7.869 0 1 1-14.426 0 7.213 7.869 0 1 1 14.426 0z" transform="matrix(.71067 -.55407 .5079 .65145 -224.982 465.31)" fill="#666" stroke-width="2.318" stroke-linecap="round" stroke-linejoin="round"/><path d="M411.803 640.559a7.213 7.869 0 1 1-14.426 0 7.213 7.869 0 1 1 14.426 0z" transform="matrix(.71067 -.55407 .5079 .65145 -225.201 474.627)" fill="#666" stroke-width="2.318" stroke-linecap="round" stroke-linejoin="round"/><path d="M411.803 640.559a7.213 7.869 0 1 1-14.426 0 7.213 7.869 0 1 1 14.426 0z" transform="matrix(.71067 -.55407 .5079 .65145 -245.352 505.305)" fill="#333" stroke-width="2.318" stroke-linecap="round" stroke-linejoin="round"/><path d="M411.803 640.559a7.213 7.869 0 1 1-14.426 0 7.213 7.869 0 1 1 14.426 0z" transform="matrix(.71067 -.55407 .5079 .65145 -265.416 512.632)" fill="#666" stroke-width="2.318" stroke-linecap="round" stroke-linejoin="round"/><path d="M411.803 640.559a7.213 7.869 0 1 1-14.426 0 7.213 7.869 0 1 1 14.426 0z" transform="matrix(.71067 -.55407 .5079 .65145 -247.158 485.925)" fill="#666" stroke-width="2.318" stroke-linecap="round" stroke-linejoin="round"/><path d="M411.803 640.559a7.213 7.869 0 1 1-14.426 0 7.213 7.869 0 1 1 14.426 0z" transform="matrix(.71067 -.55407 .5079 .65145 -223.703 526.674)" fill="#333" stroke-width="2.318" stroke-linecap="round" stroke-linejoin="round"/><path d="M411.803 640.559a7.213 7.869 0 1 1-14.426 0 7.213 7.869 0 1 1 14.426 0z" transform="matrix(.71067 -.55407 .5079 .65145 -218.83 513.728)" fill="#333" stroke-width="2.318" stroke-linecap="round" stroke-linejoin="round"/><path d="M411.803 640.559a7.213 7.869 0 1 1-14.426 0 7.213 7.869 0 1 1 14.426 0z" transform="matrix(.71067 -.55407 .5079 .65145 -186.118 502.36)" fill="#666" stroke-width="2.318" stroke-linecap="round" stroke-linejoin="round"/><path d="M411.803 640.559a7.213 7.869 0 1 1-14.426 0 7.213 7.869 0 1 1 14.426 0z" transform="matrix(.71067 -.55407 .5079 .65145 -143.476 474.935)" fill="#666" stroke-width="2.318" stroke-linecap="round" stroke-linejoin="round"/><path d="M411.803 640.559a7.213 7.869 0 1 1-14.426 0 7.213 7.869 0 1 1 14.426 0z" transform="matrix(.71067 -.55407 .5079 .65145 -168.903 419.925)" fill="#666" stroke-width="2.318" stroke-linecap="round" stroke-linejoin="round"/><path d="M411.803 640.559a7.213 7.869 0 1 1-14.426 0 7.213 7.869 0 1 1 14.426 0z" transform="matrix(.71067 -.55407 .5079 .65145 -150.9 421.687)" fill="#333" stroke-width="2.318" stroke-linecap="round" stroke-linejoin="round"/><path d="M411.803 640.559a7.213 7.869 0 1 1-14.426 0 7.213 7.869 0 1 1 14.426 0z" transform="matrix(.71067 -.55407 .5079 .65145 -108.95 441.365)" fill="#333" stroke-width="2.318" stroke-linecap="round" stroke-linejoin="round"/><path d="M411.803 640.559a7.213 7.869 0 1 1-14.426 0 7.213 7.869 0 1 1 14.426 0z" transform="matrix(.71067 -.55407 .5079 .65145 -94.708 424.44)" fill="#666" stroke-width="2.318" stroke-linecap="round" stroke-linejoin="round"/><path d="M411.803 640.559a7.213 7.869 0 1 1-14.426 0 7.213 7.869 0 1 1 14.426 0z" transform="matrix(.71067 -.55407 .5079 .65145 -90.465 412.817)" fill="#666" stroke-width="2.318" stroke-linecap="round" stroke-linejoin="round"/><path d="M411.803 640.559a7.213 7.869 0 1 1-14.426 0 7.213 7.869 0 1 1 14.426 0z" transform="matrix(.984 -.76718 .70325 .902 -383.547 386.746)" fill="#333" stroke-width="1.674" stroke-linecap="round" stroke-linejoin="round"/><path d="M411.803 640.559a7.213 7.869 0 1 1-14.426 0 7.213 7.869 0 1 1 14.426 0z" transform="matrix(.984 -.76718 .70325 .902 -357.427 345.594)" fill="#666" stroke-width="1.674" stroke-linecap="round" stroke-linejoin="round"/><path d="M411.803 640.559a7.213 7.869 0 1 1-14.426 0 7.213 7.869 0 1 1 14.426 0z" transform="matrix(.984 -.76718 .70325 .902 -428.459 440.054)" fill="#666" stroke-width="1.674" stroke-linecap="round" stroke-linejoin="round"/><path d="M411.803 640.559a7.213 7.869 0 1 1-14.426 0 7.213 7.869 0 1 1 14.426 0z" transform="matrix(.984 -.76718 .70325 .902 -405.6 413.917)" fill="#666" stroke-width="1.674" stroke-linecap="round" stroke-linejoin="round"/><path d="M411.803 640.559a7.213 7.869 0 1 1-14.426 0 7.213 7.869 0 1 1 14.426 0z" transform="matrix(.984 -.76718 .70325 .902 -440.756 448.81)" fill="#333" stroke-width="1.674" stroke-linecap="round" stroke-linejoin="round"/><path d="M411.803 640.559a7.213 7.869 0 1 1-14.426 0 7.213 7.869 0 1 1 14.426 0z" transform="matrix(.984 -.76718 .70325 .902 -407.65 381.425)" fill="#333" stroke-width="1.674" stroke-linecap="round" stroke-linejoin="round"/><path d="M411.803 640.559a7.213 7.869 0 1 1-14.426 0 7.213 7.869 0 1 1 14.426 0z" transform="matrix(.984 -.76718 .70325 .902 -390.129 364.439)" fill="#333" stroke-width="1.674" stroke-linecap="round" stroke-linejoin="round"/><path d="M411.803 640.559a7.213 7.869 0 1 1-14.426 0 7.213 7.869 0 1 1 14.426 0z" transform="matrix(.984 -.76718 .70325 .902 -365.964 323.98)" fill="#666" stroke-width="1.674" stroke-linecap="round" stroke-linejoin="round"/><path d="M411.803 640.559a7.213 7.869 0 1 1-14.426 0 7.213 7.869 0 1 1 14.426 0z" transform="matrix(.984 -.76718 .70325 .902 -366.376 365.044)" fill="#333" stroke-width="1.674" stroke-linecap="round" stroke-linejoin="round"/><path d="M411.803 640.559a7.213 7.869 0 1 1-14.426 0 7.213 7.869 0 1 1 14.426 0z" transform="matrix(.71067 -.55407 .5079 .65145 -257.36 515.498)" fill="#666" stroke-width="2.318" stroke-linecap="round" stroke-linejoin="round"/><path d="M411.803 640.559a7.213 7.869 0 1 1-14.426 0 7.213 7.869 0 1 1 14.426 0z" transform="matrix(.71067 -.55407 .5079 .65145 -181.946 430.925)" fill="#666" stroke-width="2.318" stroke-linecap="round" stroke-linejoin="round"/><path d="M411.803 640.559a7.213 7.869 0 1 1-14.426 0 7.213 7.869 0 1 1 14.426 0z" transform="matrix(.71067 -.55407 .5079 .65145 -156.642 479.378)" fill="#666" stroke-width="2.318" stroke-linecap="round" stroke-linejoin="round"/><path d="M411.803 640.559a7.213 7.869 0 1 1-14.426 0 7.213 7.869 0 1 1 14.426 0z" transform="matrix(.984 -.76718 .70325 .902 -426.881 412.217)" fill="#333" stroke-width="1.674" stroke-linecap="round" stroke-linejoin="round"/><path d="M411.803 640.559a7.213 7.869 0 1 1-14.426 0 7.213 7.869 0 1 1 14.426 0z" transform="matrix(.984 -.76718 .70325 .902 -461.547 424.277)" fill="#333" stroke-width="1.674" stroke-linecap="round" stroke-linejoin="round"/><path d="M411.803 640.559a7.213 7.869 0 1 1-14.426 0 7.213 7.869 0 1 1 14.426 0z" transform="matrix(.984 -.76718 .70325 .902 -422.647 393.118)" fill="#333" stroke-width="1.674" stroke-linecap="round" stroke-linejoin="round"/><path d="M411.803 640.559a7.213 7.869 0 1 1-14.426 0 7.213 7.869 0 1 1 14.426 0z" transform="matrix(.54667 -.42621 .3907 .50111 -64.905 498.904)" fill="#666" stroke-width="3.014" stroke-linecap="round" stroke-linejoin="round"/><path d="M411.803 640.559a7.213 7.869 0 1 1-14.426 0 7.213 7.869 0 1 1 14.426 0z" transform="matrix(.54667 -.42621 .3907 .50111 -111.5 539.389)" fill="#666" stroke-width="3.014" stroke-linecap="round" stroke-linejoin="round"/><path d="M411.803 640.559a7.213 7.869 0 1 1-14.426 0 7.213 7.869 0 1 1 14.426 0z" transform="matrix(.54667 -.42621 .3907 .50111 -120.485 577.99)" fill="#666" stroke-width="3.014" stroke-linecap="round" stroke-linejoin="round"/><path d="M411.803 640.559a7.213 7.869 0 1 1-14.426 0 7.213 7.869 0 1 1 14.426 0z" transform="matrix(.54667 -.42621 .3907 .50111 -93.734 584.573)" fill="#333" stroke-width="3.014" stroke-linecap="round" stroke-linejoin="round"/><path d="M411.803 640.559a7.213 7.869 0 1 1-14.426 0 7.213 7.869 0 1 1 14.426 0z" transform="matrix(.54667 -.42621 .3907 .50111 -102.648 584.87)" fill="#666" stroke-width="3.014" stroke-linecap="round" stroke-linejoin="round"/><path d="M411.803 640.559a7.213 7.869 0 1 1-14.426 0 7.213 7.869 0 1 1 14.426 0z" transform="matrix(.54667 -.42621 .3907 .50111 -34.42 550.801)" fill="#666" stroke-width="3.014" stroke-linecap="round" stroke-linejoin="round"/><path d="M411.803 640.559a7.213 7.869 0 1 1-14.426 0 7.213 7.869 0 1 1 14.426 0z" transform="matrix(.54667 -.42621 .3907 .50111 22.394 495.696)" fill="#333" stroke-width="3.014" stroke-linecap="round" stroke-linejoin="round"/><path d="M411.803 640.559a7.213 7.869 0 1 1-14.426 0 7.213 7.869 0 1 1 14.426 0z" transform="matrix(.54667 -.42621 .3907 .50111 28.67 501.613)" fill="#666" stroke-width="3.014" stroke-linecap="round" stroke-linejoin="round"/><path d="M411.803 640.559a7.213 7.869 0 1 1-14.426 0 7.213 7.869 0 1 1 14.426 0z" transform="matrix(.54667 -.42621 .3907 .50111 11.718 513.998)" fill="#666" stroke-width="3.014" stroke-linecap="round" stroke-linejoin="round"/><path d="M411.803 640.559a7.213 7.869 0 1 1-14.426 0 7.213 7.869 0 1 1 14.426 0z" transform="matrix(.54667 -.42621 .3907 .50111 15.733 504.216)" fill="#666" stroke-width="3.014" stroke-linecap="round" stroke-linejoin="round"/><path d="M411.803 640.559a7.213 7.869 0 1 1-14.426 0 7.213 7.869 0 1 1 14.426 0z" transform="matrix(.54667 -.42621 .3907 .50111 -.885 457.305)" fill="#333" stroke-width="3.014" stroke-linecap="round" stroke-linejoin="round"/><path d="M411.803 640.559a7.213 7.869 0 1 1-14.426 0 7.213 7.869 0 1 1 14.426 0z" transform="matrix(.54667 -.42621 .3907 .50111 -16.242 456.806)" fill="#333" stroke-width="3.014" stroke-linecap="round" stroke-linejoin="round"/><path d="M411.803 640.559a7.213 7.869 0 1 1-14.426 0 7.213 7.869 0 1 1 14.426 0z" transform="matrix(.54667 -.42621 .3907 .50111 -8.485 450.758)" fill="#333" stroke-width="3.014" stroke-linecap="round" stroke-linejoin="round"/><path d="M411.803 640.559a7.213 7.869 0 1 1-14.426 0 7.213 7.869 0 1 1 14.426 0z" transform="matrix(.54667 -.42621 .3907 .50111 -73.986 504.32)" fill="#666" stroke-width="3.014" stroke-linecap="round" stroke-linejoin="round"/><path d="M411.803 640.559a7.213 7.869 0 1 1-14.426 0 7.213 7.869 0 1 1 14.426 0z" transform="matrix(.54667 -.42621 .3907 .50111 -109.616 577)" fill="#333" stroke-width="3.014" stroke-linecap="round" stroke-linejoin="round"/><path d="M411.803 640.559a7.213 7.869 0 1 1-14.426 0 7.213 7.869 0 1 1 14.426 0z" transform="matrix(.54667 -.42621 .3907 .50111 35.796 496.888)" fill="#666" stroke-width="3.014" stroke-linecap="round" stroke-linejoin="round"/><path d="M411.803 640.559a7.213 7.869 0 1 1-14.426 0 7.213 7.869 0 1 1 14.426 0z" transform="matrix(.54667 -.42621 .3907 .50111 45.114 448.05)" fill="#333" stroke-width="3.014" stroke-linecap="round" stroke-linejoin="round"/><path d="M411.803 640.559a7.213 7.869 0 1 1-14.426 0 7.213 7.869 0 1 1 14.426 0z" transform="matrix(.984 -.76718 .70325 .902 -426.469 371.153)" fill="#666" stroke-width="1.674" stroke-linecap="round" stroke-linejoin="round"/><path d="M411.803 640.559a7.213 7.869 0 1 1-14.426 0 7.213 7.869 0 1 1 14.426 0z" transform="matrix(.54667 -.42621 .3907 .50111 -19.766 541.87)" fill="#666" stroke-width="3.014" stroke-linecap="round" stroke-linejoin="round"/><path d="M366.415 662.053c-1.047.816-1.943 2.104-2.465 3.546-1.499.218-2.99.766-4.038 1.683-.89.778-1.577 1.877-2.05 3.063-.8.242-1.572.579-2.248 1.08a4.637 4.637 0 0 0-.025.02c-.708.528-.963.859-1.002.9-.797.822-1.386 2.002-1.764 3.277-.85.36-1.619.768-2.158 1.247-.037.032-.433.294-.964.95a4.637 4.637 0 0 0-.024.018c-.794.98-1.23 2.234-1.46 3.516-.327.177-.74.31-.997.5-.6.443-1.344 1.084-1.938 1.986-.697 1.058-1.007 2.36-1.1 3.671-.351.225-.722.359-1.038.651-.778.72-1.274 1.544-1.61 2.206-.506 1-.773 2.328-.73 3.74-1.076.89-1.898 2.135-2.336 3.406-.41 1.189-.406 2.66-.1 4.04-.944 1.118-1.659 2.434-1.862 3.71-.202 1.27.044 2.851.698 4.25-.726 1.316-1.171 2.812-1.072 4.165.098 1.337.728 2.872 1.784 4.118-.413 1.524-.452 3.198.098 4.598.547 1.39 1.72 2.672 3.066 3.475.127 1.42.518 2.812 1.246 3.784.681.91 1.725 1.614 2.853 2.134.305 1.295.816 2.57 1.709 3.462 1.098 1.098 2.708 1.82 4.338 2.007.712 1.377 1.756 2.64 3.024 3.27 1.364.675 3.06.87 4.624.594 1.067 1.065 2.36 1.89 3.654 2.145 1.478.29 3.043.009 4.34-.532 1.232.74 2.601 1.26 3.83 1.254 1.28-.007 2.712-.508 3.965-1.268 1.317.501 2.707.776 3.868.59 1.232-.197 2.527-.845 3.619-1.712 1.333.303 2.7.356 3.826.029 1.259-.366 2.385-1.157 3.336-2.126 1.324.135 2.677.062 3.719-.363 1.132-.462 2.186-1.325 3.056-2.383 1.29.017 2.59-.154 3.65-.706 1.155-.601 2.074-1.552 2.795-2.615 1.284-.104 2.579-.412 3.581-1.048 1.073-.681 1.89-1.699 2.535-2.848 1.234-.198 2.43-.579 3.413-1.314.93-.696 1.639-1.649 2.182-2.691 1.128-.268 2.195-.721 3.043-1.383.81-.631 1.514-1.567 2.058-2.595 1.096-.266 2.143-.68 2.97-1.324.808-.63 1.506-1.565 2.058-2.596 1.105-.265 2.16-.694 2.994-1.343.808-.63 1.507-1.565 2.058-2.596 1.096-.266 2.143-.68 2.97-1.324.8-.625 1.482-1.556 2.033-2.576 1.118-.27 2.177-.707 3.018-1.363.808-.63 1.507-1.565 2.059-2.595 1.096-.267 2.142-.68 2.969-1.325.808-.63 1.507-1.564 2.058-2.595 1.106-.265 2.161-.694 2.994-1.344.802-.625 1.483-1.556 2.034-2.576 1.118-.269 2.177-.706 3.018-1.363.804-.626 1.49-1.558 2.034-2.576 1.108-.27 2.159-.692 2.994-1.343.808-.63 1.507-1.565 2.058-2.596 1.096-.266 2.143-.68 2.97-1.324.808-.63 1.506-1.565 2.058-2.595 1.105-.265 2.16-.694 2.994-1.344.808-.63 1.507-1.565 2.058-2.595 1.106-.265 2.16-.694 2.994-1.344.804-.627 1.49-1.558 2.033-2.576 1.109-.27 2.16-.692 2.995-1.344.808-.63 1.506-1.564 2.058-2.595 1.096-.267 2.142-.68 2.97-1.324.818-.639 1.522-1.56 2.082-2.615 1.096-.267 2.143-.68 2.97-1.324.807-.63 1.506-1.565 2.057-2.596 1.106-.265 2.161-.694 2.994-1.343.804-.627 1.49-1.558 2.034-2.576 1.118-.27 2.177-.707 3.019-1.363.803-.627 1.49-1.558 2.033-2.576 1.096-.267 2.142-.679 2.97-1.325.872-.68 1.613-1.69 2.178-2.847 1.244-.32 2.397-.81 3.24-1.536.891-.766 1.6-1.913 2.08-3.127 1.262-.402 2.436-.988 3.279-1.843.846-.859 1.426-2.075 1.788-3.297 1.227-.507 2.375-1.206 3.136-2.127.782-.947 1.255-2.22 1.503-3.51 1.171-.605 2.24-1.402 2.955-2.462.695-1.031 1.033-2.352 1.144-3.666 1.135-.747 2.147-1.689 2.73-2.802.583-1.116.806-2.514.746-3.87 1.052-.896 1.959-1.97 2.397-3.177.442-1.218.435-2.702.149-4.079.904-1.013 1.71-2.214 1.958-3.587.247-1.367-.023-2.894-.61-4.24.762-1.31 1.24-2.8 1.178-4.128-.061-1.347-.653-2.935-1.723-4.244.426-1.486.542-3.143.066-4.49-.46-1.302-1.556-2.669-2.942-3.57-.057-1.442-.394-2.92-1.195-4.022-.693-.954-1.733-1.619-2.809-2.129-.3-1.31-.813-2.55-1.645-3.432-1.03-1.091-2.689-1.867-4.215-2.103-.672-1.389-1.694-2.685-2.926-3.346-1.31-.703-3.033-.948-4.633-.707-1.042-1.087-2.336-1.97-3.574-2.246-1.258-.28-2.906-.192-4.412.389-1.182-.76-2.498-1.344-3.795-1.36-1.47-.02-2.864.494-4.047 1.213-1.29-.519-2.67-.808-3.862-.635a7.854 7.854 0 0 0-3.45 1.421c-.109.082-.177.174-.276.256-1.276-.295-2.574-.395-3.708-.081-1.068.296-2.307.886-3.273 1.8-.077.072-.139.171-.208.24-1.314-.13-2.6-.033-3.631.375-.575.227-1.367.595-2.134 1.227-.463.382-.633.742-.917 1.111-1.294-.04-2.615.117-3.713.676-.38.194-.696.406-1.013.632a4.637 4.637 0 0 0-.025.019c-.725.516-1.178 1.26-1.67 1.975-1.339.088-2.663.372-3.663.994a7.863 7.863 0 0 0-.98.725c-.697.592-1.232 1.32-1.661 2.088-1.27.219-2.462.648-3.37 1.319-.855.632-1.652 1.617-2.255 2.749-1.122.262-2.194.68-3.038 1.338-.808.63-1.507 1.565-2.058 2.595-1.106.266-2.161.695-2.994 1.344-.808.63-1.507 1.565-2.059 2.595-1.096.267-2.142.68-2.969 1.325-.808.63-1.507 1.565-2.058 2.595-1.096.267-2.143.68-2.97 1.325-.808.63-1.506 1.564-2.058 2.595-1.105.265-2.16.694-2.994 1.344-.808.63-1.507 1.564-2.058 2.595-1.106.265-2.16.694-2.994 1.344-.802.624-1.483 1.556-2.033 2.576-1.119.269-2.177.706-3.02 1.363-.803.626-1.49 1.557-2.033 2.575-1.096.267-2.143.68-2.97 1.325-.817.638-1.522 1.56-2.082 2.614-1.096.267-2.143.68-2.97 1.325-.807.63-1.506 1.565-2.057 2.595-1.106.265-2.161.694-2.994 1.344-.808.63-1.507 1.565-2.059 2.595-1.105.265-2.16.694-2.994 1.344-.803.626-1.49 1.558-2.033 2.576-1.096.267-2.143.68-2.97 1.324-.818.638-1.522 1.56-2.082 2.615-1.096.266-2.143.68-2.97 1.324-.808.63-1.507 1.565-2.058 2.596-1.106.265-2.16.694-2.994 1.343-.808.63-1.507 1.565-2.058 2.595-1.106.266-2.161.695-2.994 1.344-.804.627-1.49 1.558-2.034 2.576-1.108.27-2.158.693-2.994 1.344-.808.63-1.507 1.565-2.058 2.595-1.096.267-2.143.68-2.97 1.325-.818.638-1.522 1.56-2.082 2.614-1.096.267-2.143.68-2.97 1.325z" style="line-height:125%" font-size="12" font-weight="400" letter-spacing="0" word-spacing="0" fill="none" font-family="Sans"/><path d="M411.803 640.559a7.213 7.869 0 1 1-14.426 0 7.213 7.869 0 1 1 14.426 0z" transform="matrix(.54667 -.42621 .3907 .50111 -94.952 526.487)" fill="#333" stroke-width="3.014" stroke-linecap="round" stroke-linejoin="round"/></g></svg>