<svg xmlns="http://www.w3.org/2000/svg" xmlns:dc="http://dublincore.org/documents/dcmi-terms/" height="545" viewBox="0 0 1024 545" width="1024"><metadata><dc:description>Silhouette of Cynomys ludovicianus, processed by PhyloPic Tools (https://github.com/eweitz/phylopic-tools)</dc:description><dc:source>http://phylopic.org/image/bdf9f7a6-b5b8-4012-8810-e0d698a1a7b0</dc:source><dc:creator>Steven Traver</dc:creator><dc:license>http://creativecommons.org/publicdomain/zero/1.0/</dc:license></metadata><path d="M8.84 53.625c0 .3-.1.6-.3.8-2.2 3.1-4.5 6.1-6.7 9.2-1.3 5.4-.7 10.5 1.5 15.3 5.7 11.8 11.6 23.8 17.8 36 7.8 15.5 20.101 26.7 36.7 33.7.4 0 .6 0 1 .1 13.3 1 23.3 5.2 30 12.9.4 0 .6 0 1 .1 4.2.3 7.6 1.7 10 3.9 2 0 3.9.3 5.7.9 20.5 6.7 37.899 16.8 52 30.3 5.2 4.9 9.8 10.1 14 15.7 13 17.2 22.8 37.6 29.3 61.1.4 0 .5.1.7.301 4.399 5.299 6.2 12.299 5.3 20.699.4 0 .5 0 .6.2 13.801 25.4 26.5 51.7 38.4 78.8v1c.2 7.4 1.2 13.8 3 19-4.5 28.5-11.8 54.2-21.8 77.101-.2.3-.2.6-.2.899-13.1 1.9-25.8 4.2-38 6.9-.4 0-.6.1-1 .1-5.6 3.9-8.6 8.9-9 15v1c-4.9 2.9-5.5 6.2-1.8 9.7.2.2.399.3.8.3 5.9-.3 10.6.601 14.1 2.5.601.3.4.601-.3.9-.899.3-1.3 1.2-.8 2.6-.4 3.3.6 5.3 3 5.9.4 0 .6.1 1 .1 11.7-4.2 23.5-6.8 35-7.5v.5c-3.3 4.1-7.3 7.4-12 9.9-1.9.899-2.9 2.6-3 5.1 6 2.1 7.1 5.5 3.2 10.2-.101.2-.2.399-.2.8 3.5-1.1 9.2-1.7 17-2h1v-.5c4.7-.4 9.4-.5 14-.5v1h1c7-.3 8.3 2 4 7-2.4 3-1.3 4.2 3.2 3.6 4.3-.699 7.8-.899 10.7-.699 22.6 1 40.6-3.301 54.1-12.9.4 0 .6 0 1-.1l6-.9c0-.4 0-.6.2-.6 5.3-2.801 8.5-7.601 9.8-14.4.4 0 .6-.1.7-.2 2.2-2.2 4.6-4.1 7.3-5.8 0-.3 0-.7.2-.9 1.8-3.399 3.399-7.199 4.8-11.1.4 0 .6-.1 1-.2 6.9-2.6 11.5-7.6 14-14.8 1.5-.4 2.6-1.3 3.2-2.4 3.399-6.899 8.7-11.699 15.8-14.6 0-.3.1-.6.2-.6 2.899-1.9 4.2-5.4 3.8-10.4.4 0 .6-.1.9-.2 4.6-2.7 6-6.899 4.1-12.8 0-.4.1-.6.2-.7 2.6-2.2 4.8-4.6 6.8-7.3.4 0 .5 0 .5-.1.5-2.801.6-5.801.5-8.9 0-.4.1-.6.2-.6 4.3-3 9.3-3 14.8-.4 0 .4 0 .6.2.9 2.899 5.6 8.899 8.3 17.8 8.1 0 .4 0 .6.2.9 4.2 7.1 11 11.5 20.8 13.1 0 .4.1.5.2.7 15.899 11.8 33.8 21.7 53.8 29.3v1c-.1 2.9-2.4 5.3-7 7-1.1.2-1.5.7-1.2 1.7 1.4 4.2 1.2 9.3-.8 15.3 1.1 1.6 4 1.8 8.9.6 11.3-2.8 18.3 0 21.1 8.4-.4 1.8-.1 2.7.9 2.5 8.3-.8 12.3 2.3 12.1 9.5-.4 0-.6.1-.6.2l-.4.8c11.4-1.7 22.8-.1 34 5 20.4.1 41.7.3 64 .3 23.7 0 45.7-1.399 66-4.3 0-.4.1-.5.1-.5 3-.6 5.3-1.7 6.9-3.5.399 0 .6 0 1-.1 6.399-.5 12.7-1.101 19-1.9 0-.4 0-.5.1-.5 2.9-.4 5.9-.5 8.9-.5.399 0 .6-.1.899-.2 8.2-3.7 16-8 23.101-12.8 0-.3.1-.6.2-.7 1.399-1.1 2-2.899 1.8-5.3.3 0 .6-.1.7-.3 2.5-2.5 5.3-4.7 8.3-6.7.3 0 .7 0 1-.1 4.7-.2 7.7 1.199 9 4.1.3 0 .7.1.899.2 12.801 5.1 24.5 11.399 35.101 18.8 6.7-.1 12.399.7 17.2 2.1 5.5 1.7 10.199 3.5 14.5 5.2 6.399 2.601 13.5 4.5 21.1 5.8 18.9 3.2 37.6 2.301 56.1-2.5 11.601-3 23.601-5.5 36.101-7.6 0-.4 0-.5.1-.6 11.2-4.301 21.5-9.5 30.9-15.4 0-.3.1-.6.2-.8 10.3-14 17.3-31.5 20.8-52.2-6.2-5.1-13-5-20.5.3-.601.4-1.4.9-2.4 1.101-3.899 1.3-6.6 3.8-8.1 7.6-7.9 1.4-14.101 4.5-18.8 9.2-.101.2-.2.5-.2.8-11.601 2.4-23 4.9-34 7.9-.3 0-.7.1-1 .1-1.5 1.2-3.8 1.5-7 1h-1c-21.5 4-43.2 4.1-65 .1-.3-.1-.7-.1-1-.1-1.2-2.8-3.8-4.1-8-4h-1c-1.7-2-3.4-3.9-5.3-5.8-.101-.101-.4-.2-.7-.2-16.2-3.8-27.7-12.5-34.4-25.8 0-.2-.3-.2-.6-.2-1.4-8.3-3.101-17.9-4.9-29 0-.4-.1-.6-.1-1-1.8-5.6-3.4-12.1-4.8-19.9-1.301-6.899-3.4-13.199-6.2-19.1.399-3.7.2-6.7-.8-9.1-.101-.301-.2-.5-.2-.9-1.2-1.5-1.5-3.9-1.101-7 .101-.4.101-.6.101-1v-1-2c-4.8-11.9-9.4-23.9-13.8-36.1-.101-.301-.2-.5-.2-.9-9.3-9.1-16.2-20.4-20.9-34.1 0-.301-.1-.601-.1-.9-6.3-6.7-10.9-15.1-13.9-25.1 0-.3-.1-.6-.1-.9-18-12.7-37.101-24.2-57.101-34.8-.3-.1-.5-.2-.899-.2-19.101-15.2-41.4-27.2-67.1-35.9-.301 0-.5-.1-.9-.1-10.4-7.4-23.3-12.5-38.7-15.5-2.899-.6-6.1-1.2-9.399-1.7-10-1.8-19-4.4-26.9-7.8-18.1-.2-34.8-2-50-5.2-.6-.2-1.4-.5-2-.8-5.8.8-9.9-.2-12.3-2.7-.101-.2-.3-.3-.7-.3-21.2-2.8-42.9-5.1-65-6.9-.4-.1-.6-.1-1-.1-24.5-16.5-52.6-29.1-84.4-37.7-3.1-.9-6.1-1.7-9.1-2.7-1.9-.5-4.4-.8-7.5-.6-5.6-5.7-11.4-11.2-17.3-16.7-.101-.2-.3-.3-.7-.3-10.9-21.2-27.3-37-49.3-47.6-5.8-2.8-11.9-5.7-18.101-8.5-13.699-6.2-27.899-12-42.5-17.2-15.1-5.5-31.699-7.7-50.1-6.7h-11c-.4 0-.6.1-1 .1-11.6 2-22.3 5-32 8.9 0 .3-.1.6-.3.7-11 9-24 16-38.7 21.3 0 .3-.1.6-.3.8-5.5 5.1-12.7 8.5-21.7 10.2 0 .3-.1.6-.3.6-6.001 4.398-13.301 7.498-21.701 9.398zm290 413v1h1c0 2.7-.1 5.3-.5 7.9 0 .1-.1.1-.5.1.4 8.7-2.399 14.2-8.1 16.8-.3.101-.5.2-.9.2-2.5 1.2-5.8 1.3-9.899.5-.101 0-.101-.2-.101-.5-2.5.1-3.7-.9-3.899-3-.101-1.3.199-2.3.899-2.7 5.5-4.1 9.5-9.399 12-16.3.4 0 .601-.1.8-.3 2.5-1.8 5.6-3 9.2-3.7z"/><path d="M289.84 492.625h-10c0 .3 0 .5.101.5 4.099.8 7.399.7 9.899-.5zM298.84 474.625v1c.4 0 .5 0 .5-.1.4-2.601.5-5.2.5-7.9h-1v7zM135.84 1.625v-1c-3.6 0-7.3.2-11 .5v.5h11zM235.84 533.125v.5h14v-1c-4.6 0-9.3.1-14 .5zM796.84 360.625v-1-7h-1c0 .4 0 .6-.1 1-.4 3.1-.1 5.5 1.1 7zM744.84 516.625c-3 0-6 .1-8.9.5-.1 0-.1.1-.1.5.4 0 .6 0 1 .1 3.5.4 6.099 0 8-1.1zM929.84 475.625h1c3.2.5 5.5.2 7-1-2.7 0-5.3.2-8 .5v.5z"/></svg>