<svg xmlns="http://www.w3.org/2000/svg" xmlns:dc="http://dublincore.org/documents/dcmi-terms/" height="149.224" width="151.05"><metadata><dc:description>Silhouette of Cytophagaceae, processed by PhyloPic Tools (https://github.com/eweitz/phylopic-tools)</dc:description><dc:source>http://phylopic.org/image/51f79ade-84ab-4169-9de9-dff22bbb39b3</dc:source><dc:creator>Matt Crook</dc:creator><dc:license>http://creativecommons.org/licenses/by-sa/3.0/</dc:license></metadata><g transform="translate(-316.36 -511.9)" stroke="#000" stroke-width="2" stroke-linecap="round" stroke-linejoin="round"><rect height="10.075" ry="5.038" transform="rotate(142.924)" width="72.246" x="-6.679" y="-667.022" fill="#333"/><rect height="10.075" ry="5.038" transform="rotate(132.104)" width="42.02" x="178.074" y="-662.894" fill="#666"/><rect height="10.075" ry="5.038" transform="rotate(82.131)" width="47.427" x="651.278" y="-327.223" fill="#666"/><rect height="10.075" ry="5.038" transform="rotate(84.515)" width="64.874" x="612.725" y="-361.008" fill="#333"/><rect height="10.075" ry="5.038" transform="rotate(136.089)" width="42.02" x="109.379" y="-689.33" fill="#666"/><path d="M398.057 629.893c-7.172 2.426-18.428 10.085-26.945 17.16-2.146 1.784-5.456.812-6.955-1.542-1.5-2.354-.62-5.192 1.543-6.955 9.18-7.481 20.179-14.072 26.945-17.16 2.538-1.16 5.456-.812 6.955 1.542 1.499 2.354 1.1 6.061-1.543 6.955z" fill="#333"/><rect height="10.075" ry="5.038" transform="rotate(143.865)" width="30.962" x="20.603" y="-690.938" fill="#333"/><path d="M366.553 601.526c-4.608 5.656-11.473 9.412-18.04 10.527-2.752.467-5.484.598-6.89-1.812-1.407-2.41-.898-6.222 1.812-6.89 6.696-1.65 13.56-5.406 18.04-10.527 1.838-2.1 5.484-.598 6.89 1.812 1.407 2.41-.049 4.727-1.812 6.89zM319.81 643.719c9.908-4.642 18.993-10.196 27.255-16.662 2.198-1.72 5.47-.711 6.926 1.67 1.455 2.381.486 5.155-1.67 6.926a116.108 116.108 0 0 1-27.256 16.662c-2.56 1.112-5.47.71-6.926-1.67-1.456-2.382-.857-5.742 1.67-6.926z" fill="#333"/><rect height="10.075" ry="5.038" transform="rotate(138.602)" width="47.427" x="27.163" y="-725.512" fill="#333"/><path d="M429.169 545.344c-13.666 16.462-22.81 34.802-31.201 53.775-1.13 2.552-4.472 3.23-6.886 1.829-2.414-1.4-2.979-4.343-1.829-6.886 8.422-18.626 17.724-37.154 31.201-53.774 1.758-2.167 4.472-3.23 6.886-1.829 2.414 1.4 3.611 4.738 1.829 6.885z" fill="#333"/><rect height="10.075" ry="5.038" transform="rotate(136.089)" width="42.02" x="119.67" y="-694.859"/><path d="M408.994 603.154c-22.625 11.503-44.418 32.701-62.59 53.414-1.77 2.018-4.87 2.109-6.848.293l-.181-.166c-1.978-1.816-2.08-4.844-.293-6.849 18.993-21.306 50.133-49.41 62.59-53.413 2.556-.822 4.87-2.11 6.848-.293l.181.166c1.978 1.816 2.687 5.631.293 6.848z" fill="#333"/><path d="M439.05 521.711c-9.18 5.953-17.421 12.696-24.722 20.232-1.942 2.004-5.321 1.451-7.089-.709-1.767-2.16-1.186-5.04.708-7.088a116.108 116.108 0 0 1 24.722-20.232c2.384-1.451 5.322-1.452 7.09.708 1.767 2.16 1.633 5.57-.709 7.089z"/><rect height="10.075" ry="5.038" transform="rotate(97.539)" width="30.962" x="489.564" y="-477.363"/><rect height="10.075" ry="5.038" transform="rotate(156.92)" width="57.01" x="-219.95" y="-677.617"/><rect height="10.075" ry="5.038" transform="rotate(133.655)" width="47.427" x="130.634" y="-664.399"/><path d="M331.565 605.46c-2.219-7.479 1.475-19.153 7.42-24.106 2.144-1.786 3.416-4.33 6.122-3.644 2.705.686 5.468 4.01 3.644 6.122-2.58 2.987-6.616 6.65-8.012 11.058-1.359 4.288-.125 9.311.592 13.046.525 2.741-3.417 4.33-6.122 3.645-2.705-.686-2.85-3.446-3.644-6.122z"/><rect height="10.075" ry="5.038" transform="rotate(166.608)" width="52.833" x="-229.56" y="-691.802"/><rect height="9.88" ry="4.565" transform="rotate(-179.058)" width="47.922" x="-406.863" y="-645.459"/><path d="M443.292 567.873c-4.168 10.116-7.114 20.35-8.836 30.699-.458 2.753-3.552 4.22-6.234 3.448-2.682-.772-3.841-3.472-3.448-6.235a116.108 116.108 0 0 1 8.836-30.699c1.136-2.549 3.552-4.22 6.234-3.447 2.682.771 4.511 3.654 3.448 6.234zM410.895 632.79c1.916 7.562-2.244 19.078-8.383 23.788-2.215 1.698-3.588 4.19-6.263 3.395-2.676-.794-5.303-4.226-3.396-6.263 2.699-2.881 6.878-6.379 8.45-10.728 1.53-4.23.499-9.298-.067-13.06-.415-2.759 3.588-4.189 6.263-3.394 2.676.794 2.71 3.557 3.396 6.263z"/><rect height="10.075" ry="5.038" transform="rotate(161.049)" width="30.962" x="-194.608" y="-715.989"/><rect height="10.075" ry="5.038" transform="rotate(125.902)" width="30.962" x="219.157" y="-715.201"/></g></svg>