<svg xmlns="http://www.w3.org/2000/svg" xmlns:dc="http://dublincore.org/documents/dcmi-terms/" height="399" version="1.2" viewBox="0 0 588.744 399" width="588.744" overflow="inherit"><metadata><dc:description>Silhouette of Cyttus traversi, processed by PhyloPic Tools (https://github.com/eweitz/phylopic-tools)</dc:description><dc:source>http://phylopic.org/image/1cc605fb-013f-4997-b88c-6d2c71952e8d</dc:source><dc:creator>Tony Ayling (vectorized by T. Michael Keesey)</dc:creator><dc:license>http://creativecommons.org/licenses/by-sa/3.0/</dc:license></metadata><path d="M294.291 0c3.363 2.158-1.313 4.592-1 7 1.858 1.365 6.194-.849 7-1 2.845 1.333-.771 4.447-1 6 2.162 2.255 3.411-.828 7 0 1.019 4.352-2.068 4.598-3 7 2.043 2.374 3.957-1.374 6 1-1.117 2.323.215 2.677-2 5 2.503-1.275 3.131.509 4-1 3.221 1.908-3.236 7.692 4 6-1.595 3.592-1.775 5.307 0 11 6.291-.202 9.467-5.979 14-7 12.44-2.802 30.653 3.614 39 7 9.024 3.661 21.561 5.599 29 10 7.505 4.44 12.079 13.04 20 13-1.108 3.869 3.535 3.558 1 6 3.541.875 2.459.125 6 1 17.093 19.069 33.82 37.396 42 63 .565 24.958 17.686 40.372 9 64-2.283 1.716-5.052 2.948-7 5 47.15 4.552 63.154-31.156 101-34 4.279-2.023 11.078-4.695 16-3 8.139 34.31-.61 75.433-1 107-53.766 6.825-68.175-34.159-124-34 7.887 5.734 8.897 17.264 7 25-2.266 9.237-11.511 30.088-19 42-.282.448-2.722-.449-3 0-1.207 1.949-.701 4.903-2 7-1.936 3.125-6.282 5.61-9 9-4.311 5.377-8.159 12.769-11 15-.544.428-3.752-.208-4 0-1.589 1.332-1.443 4.796-3 6-8.047 6.222-17.484 7.643-23 15-9.146 3.462-17.314 8.609-30 12-7.076 1.891-15.054 4.807-21 6-4.286.86-10.913-1.053-16 0-15.655 3.239-47.713 8.146-61-7-1.123 3.211-5.624 3.043-6 7-7.58-7.42-21.237-8.763-35-10 4.703 14.473-5.319 27.655-16 33-10.35-10.316-17.963-23.371-24-38-26.52-7.813-47.366-21.301-68-35-32.002 10.454-39.983-26.711-58-40-16.38-6.953-25.548-21.119-37-33-7.762-5.059-28.079-9.63-19-22 8.27-1.938 12.102 3.002 20 4-1.417-7.582-10.086-7.913-13-14 .989-5.011 3.115-8.885 8-10 .502-4.165 3.498-5.835 4-10 19.911-19.764 33.155-51.5 56-65 1.02-1.314.98-3.686 2-5 15.033-10.891 28.491-23.131 45-30 21.994-24.387 65.653-47.504 97-60 9.339-3.723 22.849-8.173 35-11 2.203-.797 3.993-2.007 4-5h6c4.167-4.599 9.865-17 16-21 2.555-2.644 1.985 1.369 2 4 3.751-2.249 5.896-6.104 10-8z" fill-rule="evenodd"/></svg>