<svg xmlns="http://www.w3.org/2000/svg" width="564" height="362" viewBox="0 0 564 362"><path d="M277 0h16c30.58 3.086 54.828 12.505 71 30 11.907 2.129 21.739 6.841 32 12 6.39 3.212 13.003 8.26 20 11 5.14 2.013 11.358 2.582 17 4 27.587 6.934 61.196 7.46 83 22 3.933 2.623 8.091 5.956 12 9 7.784 6.063 11.554 9.923 17 19 2.013 3.354 4.76 6.905 6 10 2.252 5.62 2.866 12.458 5 19 2.033 6.233 5.035 12.022 5 19l-3.643-.5L554 156c-1.434-1.233-1.895-3.439-2-6-2.953 1.38-2.305 6.362-3 10-4.805 6.684-6.916 14.204-12 22-1.043 1.6-2.684 2.938-4 5-.979 1.532-1.889 3.421-3 5-2.703 3.84-6.455 6.795-7 10-.762 4.478 1.607 8.413 3 13 2.746 9.043 4.39 13.757 10 20 4.531 5.042 10.585 11.184 16 16 1.519 11.145-2.033 22.588-1 38 1.416 21.127 11.538 39.038-2 47-.526 8-1.299 18.188-7 21-4.923 2.429-9.734-.761-16-2-4.885-.794 5.68-5.477 4-10 15.908-10.691-.414-34.839 4-54-.566-3.1-4.704-2.63-5-6-4.26 4.406-7.018 10.316-12 14-4.96 16.373-14.624 28.043-18 46-3.424 2.243-7.503 3.83-11 6-2.201 1.133-.069 6.598-3 7-2.286 3.047-8.684 1.983-12 4h-16c-3.765-2.971 2.503-4.609 4-6 1.281-1.19 1.53-2.849 3-4 1.293-1.013 3.827-1.018 5-2 5.141-4.307 8.248-11.004 13-14 2.673-16.66 8.555-30.112 11-47-4.649-6.841-9.182-14.03-14-21-4.644-6.717-10.194-12.631-14-20-8.018-15.524-10.817-33.121-19-50-14.06 4.274-24.419 12.247-37 18-7.686-1.683-15.006-5.836-24-7-13.879-1.797-29.777 1.178-45 2-1.73 8.137-2.438 16.073-5 24-2.241 6.934-6.038 13.79-8 21-2.092 7.688-2.788 16.44-4 25-2.298 16.231-3.063 32.449-4 52-.041 2.73-2.704 2.679-4 4-2.067 2.107-3.278 4.23-5 7-1.221 1.963-1.354 5.977-4 8-6.425 1.814-14.694 2.831-22 1 4.519-5.588 11.063-9.52 15-16 .766-1.26 1.105-4.28 2-6 .953-1.831 2.578-2.428 3-4 3.25-12.112-1.719-23.83-3-36-.968-9.196.965-18.835-4-25-5.352 15.689-13.59 33.711-19 52-3.013 10.186-3.132 21.655-13 25 1.28 1.645 2.59 5.426 1 7-6.054 3.541-14.79 8.832-26 10-2.694.28-8.88 2.186-9-2-.111-5.778 6.049-5.284 10-7 1.626-3.473 7.003-3.602 10-7 9.089-10.309 8.597-39.072 11-59 1.48-12.271 4.423-28.747 4-43-.374-12.577-5.501-25.512-7-34-13.65-5.237-25.286-13.58-37-22-.346-.249-.691-1.86-1-2-6.03-2.718-12.864-8.495-19-13-1.182-.868-2.417-3.287-4-4-4.028-1.815-9.637-5.987-14-9-1.953-1.349-4.087-2.799-6-4-9.294-5.836-18.598-14.968-29-21-16.511 2.822-36.37 2.297-52 6-2.22 2.114-.433 8.233-4 9-5.082-.918-9.505-2.495-15-3-10.969 4.532-42.658 18.59-56 9-.346-.249-.691-1.861-1-2-4.032-1.817-7.039-5.433-7-12 .012-1.999.116-1.17 2-3-3.795-4.672-.618-7.054-2-11-3.28-9.369-16.39-11.978-13-24 .884-3.135 6.742-4.879 10-8 .577-.553 6.292-3.184 8-4 10.457-4.998 24.537-11.115 33-16 20.042-11.568 31.999-23.923 43-36 10.913-.754 14.055-9.279 26-9 4.588-6.707 14.614-20.734 27-14 1.756.955 1 1.396 5 2 4.222.638 10.235-.646 16-1 5.157-.316 10.008-.602 15-1 9.452-.754 19.47-2.821 29-3 11.431-.215 23.785 2.074 32 0 5.441-1.374 9.642-5.296 14-7 6.148-2.404 12.933-3.308 18-5zM51 120c-3.541.541-2.459-3.541-6-3-.123 4.544-3.523 5.811-6 8 1.847 2.153 2.923 5.077 8 4 .894-3.306 3.675-4.718 7-3 1.53-1.743 3.937-8.883 0-10-1.704.629-1.646 3.021-3 4zm-31 11c3.236-1.236.764 3.236 4 2 .069-3.402.312-6.978-2-8-.576 2.091-2.479 2.854-2 6z" fill-rule="evenodd"/><path d="M558.5 201.5l3.5-.5c2.541 9.999.594 23.835-3 31-5.165 1.118-11.459 1.999-16 1-1.339-5.236 3.42-8.61 5-13 2.315-6.431 1.825-14.317 7-19l3.5.5z" fill-rule="evenodd"/><path d="M558.5 201.5c1.875-15.586 1.127-31.546-1.143-47" fill="none" stroke="#000" stroke-width="5.858" stroke-linecap="round"/></svg>