<svg xmlns="http://www.w3.org/2000/svg" version="1.2" width="351.396" height="122.423" viewBox="0 0 351.396 122.423" overflow="inherit"><path d="M336.925 48.649a21.352 21.352 0 0 1 2.175 3.2c.301.567.534 1.4.7 2.5.2 1.367.351 2.2.45 2.5.233.7.733 1.667 1.5 2.9.533.866.884 1.416 1.05 1.649.7.7 1.533 1.55 2.5 2.55 1.8 1.567 3.816 2.684 6.05 3.351v.3c.101.066.034.134-.199.2l-8-2.9c-1.867-.666-3.567-1.033-5.101-1.1a1.872 1.872 0 0 0-.45-.05c.867.833 1.7 1.683 2.5 2.55.767.767 1.851 1.649 3.25 2.649.834.534 2.034 1.301 3.601 2.301 0 .1-.033.216-.101.35l-.199.05c-2.4-1.399-5.4-2.883-9-4.45a22.76 22.76 0 0 0-1.45-.6c-1.934-1.2-4.15-1.8-6.65-1.8l-2.7.1 2.65 1.15c-2.2-.2-4.384-.55-6.55-1.05l6.5 2.199-.351.9-6.649-1.45 5.85 2.55-.45.601.4.75-.45.399-.149.9-9-3.4v.801l9 4.05-.5.5-8.551-3.3a93.296 93.296 0 0 1 9.45 4.899c-2.366-.467-4.566-1.1-6.6-1.899a60.267 60.267 0 0 1-2.2-.851L326 76.1l-.25.8-7.95-3.649-.3.449 10.4 5.3-.301.75-10.85-5.101-.5.45 10.95 5.6-.15.45.45.4c-2.333-.066-4.85-.75-7.55-2.05-.867-.434-1.717-.851-2.55-1.25l9.75 5.75-1.301 1h-.05c.334.366.65.75.95 1.149.3.367.55.767.75 1.2a5.231 5.231 0 0 1-1.15-.3 44.225 44.225 0 0 1-3.35-1.3l3.35 2.5-3.75-1.551 1.801 1.851c-.034.033-.051.083-.051.149a1.12 1.12 0 0 1-.35-.05 153.83 153.83 0 0 0-2.45-1.149l1.55 2.199c.367.334.851.801 1.45 1.4 1.334 1.366 2 2.167 2 2.4 0 .3-.184.517-.55.649-.233.134-1.083.4-2.55.8-4 1.2-8.8.801-14.4-1.199l-.75-.2a6.548 6.548 0 0 0-.85-.351c-6.066-3-9.733-4.8-11-5.399-7.667-5.4-11.983-9.233-12.95-11.5l-.2.1c-1.566.467-2.649.5-3.25.101-.366-.534-.733-.917-1.1-1.15-1.667-.934-2.983-1.483-3.95-1.65-2.767-.6-4.483-1.083-5.15-1.449-.466-.301-.8-.7-1-1.2a58.415 58.415 0 0 0-1.8-.601v.25a60.15 60.15 0 0 0-1.9-.8c-.2-.033-.517-.267-.95-.7a12.529 12.529 0 0 1-1.05-1.5c-.433-.6-.767-1.066-1-1.399-.033 0-.066.017-.1.05a5.731 5.731 0 0 1-1.4.45v.05c-.4.033-.633.05-.7.05-1.2.101-2.867.05-5-.149a31.363 31.363 0 0 0-.95 4.3c-.1.7-.4 3.649-.9 8.85v8.15c-.7 3.366-2.017 6.5-3.95 9.399L249 97.5v-.25c0-.067.267-1.034.8-2.9.5-1.8.75-3.5.75-5.1 0-2.567-.2-5.067-.6-7.5-.434-2.467-.65-4.367-.65-5.7 0-3.101.15-5.601.45-7.5.2-1.5.533-2.983 1-4.45-.367-.467-.7-.95-1-1.45-2.067 2.134-3.333 3.233-3.8 3.3a59.218 59.218 0 0 0-3.2-.5v.101c-1.1-.167-1.733-.233-1.9-.2-.267 0-.783.267-1.55.8-.1.066-.183.134-.25.2-.4.866-.85 1.866-1.35 3-1.633 3.533-3 6.217-4.1 8.05-.667 1.167-2.217 2.55-4.65 4.15-2.867 1.866-4.633 3.149-5.3 3.85-2.066 2.134-3.667 4.934-4.8 8.4a.762.762 0 0 1-.4-.45 1.09 1.09 0 0 1-.05-.35c0-3.301 2.9-8.684 8.7-16.15 0-.033.017-.05.05-.05.167-.3.4-.7.7-1.2.867-1.467 1.367-2.35 1.5-2.65.6-1.466 1.333-2.649 2.2-3.55l.2-.5c.467-1.1.833-2.166 1.1-3.2a5.85 5.85 0 0 1-1.15-1.649 22.077 22.077 0 0 1-.3-1.351c-1.333 1.767-2.95 2.717-4.85 2.851-.733.066-1.483.133-2.25.2l.1.199c-2.6-.066-4.45-.083-5.55-.05-.467 1-1.083 2.066-1.85 3.2a58.9 58.9 0 0 1-2.45 3.5c-.2.434-.417.816-.65 1.15-.733 1.233-1.816 2.716-3.25 4.449-.2.2-1.333 1.517-3.4 3.95-.267.566-.517 1.15-.75 1.75-.6 1.733-1.383 4.25-2.35 7.55-.1-.1-.15-.333-.15-.699 0-5.801 1.433-11 4.3-15.601 1.934-3.1 3.5-6.083 4.7-8.95a13.75 13.75 0 0 1-.75-.5 2.35 2.35 0 0 0-.45-.05c-.8-.133-1.55-.467-2.25-1-.566-.434-1-.916-1.3-1.45-.067-.1-.133-.25-.2-.449-.667.6-1.2 1.083-1.6 1.449-1.034.9-3.1 1.483-6.2 1.75-2.433.067-4.517.017-6.25-.149-.433 1.866-.65 3.7-.65 5.5l.3 7.5c0 3.066-.1 5.1-.3 6.1-.133.566-.934 3.101-2.4 7.601h-.15v-.301c0-.399.184-1.166.55-2.3.333-1.1.5-2.416.5-3.95 0-1.3-.417-3.666-1.25-7.1-.833-3.434-1.25-6.233-1.25-8.4 0-1.966.183-3.783.55-5.449l.05-.051a16.14 16.14 0 0 1-1-.399c-1.1-.601-1.883-1.267-2.35-2-.233.3-.533.566-.9.8-1.1.733-2.517 1.3-4.25 1.7-2.267.3-3.467.467-3.6.5a87.77 87.77 0 0 1-3.75.2c-.5 1.3-.833 2.233-1 2.8a354.87 354.87 0 0 1-1.4 4.35c-.633 1.834-1.017 3.316-1.15 4.45-.566 4.533-.983 7.417-1.25 8.65-.7 3.333-1.833 6.333-3.4 9l-.3.1-.3-.1c.667-1.601 1.05-2.65 1.15-3.15.033-.267.05-1.066.05-2.4 0-1.333-.167-3.5-.5-6.5-.333-2.933-.5-4.783-.5-5.55 0-1.1.3-2.666.9-4.7.667-2.233 1.05-3.816 1.15-4.75.1-.866.267-1.783.5-2.75-1.233-.3-2.183-.716-2.85-1.25-1-.8-1.5-2.233-1.5-4.3 0-.633-.067-1.333-.2-2.1-.067.1-.117.183-.15.25-1.467 2.066-2.567 3.416-3.3 4.05a10.781 10.781 0 0 1-2.55 1.65c-2.233.699-3.933 1.1-5.1 1.199-.6.034-1.15.067-1.65.101-.167.7-.267 1.217-.3 1.55-.133 1.566-.117 3.967.05 7.2 0 2.533-.667 6.583-2 12.149-1.533 6.5-3.05 9.801-4.55 9.9l-.25.05c-.067.066-.1-.033-.1-.3 0-.066.316-1.066.95-3 .633-1.967 1-3.316 1.1-4.05.434-2.967.7-5.283.8-6.95.1-1.233.117-3.417.05-6.55l-.1-7c0-.566.2-1.867.6-3.9v-.05a4.156 4.156 0 0 1-1.6-2.1c-.133-.4-.2-.851-.2-1.351-1.067 2.066-2.25 3.45-3.55 4.15-.333.2-.767.366-1.3.5.167.566.3 1.149.4 1.75.033.133.05.283.05.45.067.133.133.283.2.449a.609.609 0 0 1-.15-.25c.133 1.267.2 3.034.2 5.301 0 2.8-.367 5.966-1.1 9.5-.733 3.233-1.567 5.916-2.5 8.05a.525.525 0 0 1-.15-.101c-.033 0-.05-.083-.05-.25.333-1.933.5-3.716.5-5.35 0-4.967-.25-8.767-.75-11.4-.033-.199-.567-2.033-1.6-5.5-.233-.767-.4-1.466-.5-2.1-1.733-.233-3.017-1.05-3.85-2.45-.449-.785-.766-1.734-.95-2.85a30.99 30.99 0 0 1-.075-.4c-.185.596-.393 1.262-.625 2-.523 1.189-1.131 2.098-1.825 2.726.189.479.431 1.204.725 2.175.467.934.7 1.717.7 2.35 0 .4-.05 1.101-.15 2.101 0 1.767-.167 3.183-.5 4.25-.267.8-.934 2.5-2 5.1l-.2.05c-.066-.033-.1-.166-.1-.399 0-.2.167-.9.5-2.101.333-1.233.5-2.283.5-3.149 0-2.233-.283-4.317-.85-6.25-.152-.519-.586-1.552-1.3-3.101-1.344-.026-2.51-1.276-3.5-3.75-.514-1.75-.847-2.893-1-3.425-.111.143-.228.284-.35.425a80.556 80.556 0 0 0-5.35 7.2c-.926 1.135-2.275 1.76-4.05 1.875.133.575.2 1.267.2 2.075 0 .833-.15 1.649-.45 2.45-.18.502-.405.91-.675 1.225.193.169.368.411.525.725.3.634.45 1.217.45 1.75 0 .667-.35 1.134-1.05 1.4-1.1.434-3.233.65-6.4.65-1.167 0-2.5-.334-4-1a12.211 12.211 0 0 1-.85-.426c-.446.116-.979.175-1.6.175-2.267 0-4.35-.4-6.25-1.2-.675-.302-1.225-.61-1.65-.925-.385.05-.785.074-1.2.074-1.034 0-2.233-.283-3.6-.85-1.267-.634-2.1-1-2.5-1.1-.934-.233-1.717-.601-2.35-1.101a15.249 15.249 0 0 1-.175-.149H78.3c-.333 0-2.133-.434-5.4-1.301-3.667-.966-6.417-1.783-8.25-2.449-.2-.067-1.433-.25-3.7-.551-1.347-.171-2.339-.346-2.975-.524l-1.175-.9c-.512 1.125-.928 1.725-1.25 1.8-.325.074-1.125.499-2.4 1.275 1.867.934 3.184 2.066 3.95 3.4.3.5.533 1 .7 1.5.633.166 1.25.216 1.85.149.633 0 1.533.25 2.7.75 2.863 1.224 6.213 3.474 10.05 6.75 1.367.934 2.8 1.934 4.3 3 1.3.934 2.683 1.934 4.15 3a733.98 733.98 0 0 1 7.1 5.65c1.667.366 3.7 1.333 6.1 2.899 2.067 1.334 3.317 2.434 3.75 3.301.034 0 .1-.017.2-.051.133.067 1.033.417 2.7 1.051 1.8.699 2.917 1.166 3.35 1.399.3.167.534.384.7.65.2.2.4.366.6.5 1.267.767 2.083 1.616 2.45 2.55.3.634.417 1.267.35 1.9.1.233.267.517.5.85.167.3.233.55.2.75.066.167.15.767.25 1.8.033.134-.017.483-.15 1.05-.4 2.034-2.5 4.217-6.3 6.551-2.7 1.633-5.167 2.666-7.4 3.1a18.06 18.06 0 0 1-7.9.65c3.1-.733 5.517-1.334 7.25-1.801 3.133-.866 5.2-1.816 6.2-2.85 1.867-1.7 3.167-2.967 3.9-3.8.133-.033.216-.101.25-.2-.133 0-.25.017-.35.05-1 .033-2 0-3-.1a1.21 1.21 0 0 0-.25.6c-.267.566-.434.934-.5 1.101l-.2.05c.3-.634.483-1.25.55-1.851-.8-.133-1.6-.35-2.4-.649-.466-.167-.883-.316-1.25-.45-.066.134-.1.3-.1.5a1 1 0 0 1 .05-.55c-.9-.367-1.567-.717-2-1.05-.433.399-.883.783-1.35 1.149-1.267 1.033-3.3 1.816-6.1 2.351-1.2.166-2.433.3-3.7.399-2.4.634-4.267.7-5.6.2a2.439 2.439 0 0 1-1.05-.75l.05-.05c1.267.166 2.567.2 3.9.1.9-.1 1.767-.25 2.6-.45.3-.133.6-.233.9-.3 1.233-.434 3.133-1.283 5.7-2.55.433-.2.9-.467 1.4-.8-1.7-.667-3.083-1.417-4.15-2.25.033.166-.15.5-.55 1-.433.533-.733.833-.9.899l-.15-.05c.6-.767.933-1.383 1-1.85.033-.134.033-.316 0-.55-.233-.267-.45-.534-.65-.801-.333.367-.684.717-1.05 1.051-1.2 1.3-3.267 2.183-6.2 2.649-1.6.267-3.233.384-4.9.351-2 .166-3.85.017-5.55-.45l-.35-.2c.3-.033.583-.066.85-.1a.812.812 0 0 1-.25-.051h.35c2.767-.333 4.917-.6 6.45-.8 3.033-.434 5.3-1.149 6.8-2.149.3-.167.883-.65 1.75-1.45-.033 0-.067-.017-.1-.05-.5-.167-.983-.351-1.45-.551a5.858 5.858 0 0 1-.45-.199 8.565 8.565 0 0 1-1.1-.45c-.133.233-.3.5-.5.8v.05c-.066.066-.083-.033-.05-.3l.25-.65a88.922 88.922 0 0 1-1.5-.899c-.067.2-.133.35-.2.45-.133.199-.3.466-.5.8-.233.267-.566.366-1 .3l.15-.4V105c.633-.567 1.083-1.101 1.35-1.601a11.02 11.02 0 0 1-.9-.8c-.433.934-.783 1.366-1.05 1.3-.333-.133-.517-.267-.55-.399l-.05-.101c.533.2 1-.033 1.4-.7a.622.622 0 0 1 .15-.25c-.3-.3-.55-.6-.75-.899-.667.6-1.133.934-1.4 1-.633.467-2.433 1.066-5.4 1.8-2.267.566-4 .85-5.2.85-2.9.4-5 .367-6.3-.1-.131-.065-.215-.099-.25-.1h.05c3.533-.4 6.117-.717 7.75-.95.233-.033.5-.05.8-.05.4-.134.867-.25 1.4-.351v-.05c.066-.167.816-.667 2.25-1.5 1.733-1 2.783-1.667 3.15-2 .233-.167.45-.333.65-.5L72.9 98c-.1.3-.233.55-.4.75-.433.533-.9.783-1.4.75.7-.567 1.217-1.117 1.55-1.65l-1.7-1-.1.2c-.567.633-1.35 1.116-2.35 1.45l-.05-.15c.833-.6 1.45-1.25 1.85-1.95l-1.8-1.1c-.3.467-.8.733-1.5.8.433-.233.817-.583 1.15-1.05l-1.55-.95c-.434.667-1.184 1.184-2.25 1.55.867-.8 1.433-1.434 1.7-1.899l-2.4-1.5c-.3.699-.7 1.199-1.2 1.5.367-.601.667-1.15.9-1.65l-.95-.6a2.632 2.632 0 0 0-.35-.15c-.1.2-.2.434-.3.7L60.6 93.3c-.3-.033-.6-.033-.9 0 0-.101-.034-.167-.1-.2l1.6-1.3c.167-.167.3-.434.4-.8a19.86 19.86 0 0 1-1.95-1.301 1.27 1.27 0 0 1-.3-.149c-.3.533-.7 1.033-1.2 1.5h-.05c.066-.233.367-.783.9-1.65a6.704 6.704 0 0 1-1.3-.85c-.167.434-.317.75-.45.95-.1.233-.25.466-.45.699l-1.3.45-.45-.149 1.25-.5c.4-.2.633-.434.7-.7.067-.434.133-.8.2-1.101a.66.66 0 0 0-.3-.3c-.2-.1-.35-.184-.45-.25a.786.786 0 0 0-.2-.149 22.34 22.34 0 0 1-1.45-.95c-.2.5-.367.866-.5 1.1a2.519 2.519 0 0 0-.25.351l-.2-.051a.748.748 0 0 0 .25-.3c.167-.233.35-.566.55-1a.785.785 0 0 1 .15-.2c-.267-.199-.5-.383-.7-.55a32.7 32.7 0 0 0-.4.55c-.7.9-1.583 1.25-2.65 1.051-.1.133-.15.083-.15-.15.5-.267 1-.634 1.5-1.1.434-.367.767-.733 1-1.101a21.357 21.357 0 0 1-1.95-2.649c-.667 1-1.184 1.666-1.55 2V84.4c.633-.899 1.067-1.566 1.3-2 .066-.033.1-.066.1-.1l-.1-.2c-.1-.134-.217-.283-.35-.45a7.864 7.864 0 0 0-.25-.55c0-.233-.033-.417-.1-.55l-1.95-.851c-2.566-1.466-4.383-3.483-5.45-6.05-.467-1.133-.717-2.184-.75-3.149-1.1-.601-1.717-1.467-1.85-2.601.133-1.2.2-1.816.2-1.85.3-.733 1.9-1.851 4.8-3.351 2.284-1.188 4.142-1.788 5.575-1.8.108-.346.333-.713.675-1.1.6-.733 1.383-1.101 2.35-1.101 1.767 0 6.733.983 14.9 2.95 2.119.504 3.96.953 5.525 1.351.215-.167.49-.25.825-.25.867 0 2.05.199 3.55.6.61.167 1.11.334 1.5.5v-1.2-3.2c.016-.285.032-.56.05-.824-.133-.262-.2-.454-.2-.575 0-.518.142-1.201.425-2.05-2.257-1.815-5.516-3.982-9.775-6.5a58.757 58.757 0 0 0-1.5-.85c-1.833-.966-4.25-2.15-7.25-3.55a333.213 333.213 0 0 1-5.6-2.7c-.933 1.1-2.2 2.483-3.8 4.15l.45 3.05-.9-.1v1.05l-.55.3c.033 1-.283 1.667-.95 2l-.3-2.2-.75 3.85-.75-.049.1-1.8-.9 4-.6-.2.075-1.175c-.167 1.514-.642 2.522-1.425 3.025a1.795 1.795 0 0 1-.35-1l-.7 2.05h-.45l-1.1 1.8-.55-.5.45-1.65a97.83 97.83 0 0 0-1.65 3.25l.55-3.15a37.516 37.516 0 0 1-2.15 4.15l-.3-.101c.333-1.1.683-2.2 1.05-3.3l-2.4 4.65c-.2-.2-.4-.384-.6-.551l.25-.6c-.466.767-1 1.483-1.6 2.15-.034.033-.133 0-.3-.101l2.1-4.7L35.4 66l-.75-.051c.767-1.733 1.5-3.416 2.2-5.05l-.1.15a1.1 1.1 0 0 1-.15.35c-.1.066-.217.134-.35.2l-2.7 3.9c-.1.066-.2.149-.3.25l-.6-.4-.8.35-.45-.3c-.1.066-.183.066-.25 0a.928.928 0 0 1-.6-.2l2.85-4.3c-1.187 1.658-2.37 2.324-3.55 2l2.05-2.325c-1.218 1.201-2.384 1.776-3.5 1.726l1.4-1.45-1.65.7-.35-.65c.367-.434.75-.866 1.15-1.3-.5.2-.883.1-1.15-.3l.3-.7c-.367-.633-.583-1.35-.65-2.15l.45-.35 4.15-.4-3.75-.6.55-.55 2.45.05a47.872 47.872 0 0 0-1.85-.45c.1-.233.233-.433.4-.6.133-.1.233-.15.3-.15l.3-2h2.65v-.75l.4-.15.15-.35 3.95.15c-1.033-.3-2.067-.583-3.1-.85-.042-.312-.034-.579.025-.8h.025c.067-.3.217-.517.45-.65l1.15.05.05-.7.85.05.15-.55 4.1.3a426.638 426.638 0 0 1-3.15-.7 1.655 1.655 0 0 1-.25-.2l-.1-.2c1.167-.1 2.367-.133 3.6-.1-1.267-.167-1.65-.6-1.15-1.3l.85.1a.214.214 0 0 1 0-.2c0-.067.033-.117.1-.15h.15l1.8.4c-.467-.2-.816-.5-1.05-.9l.1-.65 1.35.25.1-.7 3.1.7-2.1-.95-.1-.45.6-.3c.8.533 1.233.5 1.3-.1.867.167 1.767.35 2.7.55 1.867-1.3 3.633-1.783 5.3-1.45-.233-.3-.4-.633-.5-1-.034-.333-.067-.65-.1-.95-1.434-.3-3.667.067-6.7 1.1-3.033 1-5.433 1.433-7.2 1.3l13.3-4.9c-.2-.333-.467-.65-.8-.95-.2-.167-.383-.316-.55-.45-.5.233-1.517.6-3.05 1.1-1.9.566-3.017.867-3.35.9-.5.267-1.05.4-1.65.4h-1.9c-.267-.367-.5-.683-.7-.95-.5.2-1.05.434-1.65.7-.5.2-.983.383-1.45.55-.3.167-.617.35-.95.55-2.967 1.8-5.534 3.017-7.7 3.65-1.733.533-5.133 1.283-10.2 2.25a2977.419 2977.419 0 0 0-10.95 2.15c-.6.333-.917.3-.95-.1-.033-.667 3.567-1.816 10.8-3.45 3.733-.833 7.933-1.783 12.6-2.85.367-.133.934-.4 1.7-.8-1 .133-1.967.2-2.9.2-5.533 0-10.867-.733-16-2.2-1.833-.534-6.367-2.184-13.6-4.95.6.133 3.583 1.167 8.95 3.1 6.533 1.867 13.1 2.8 19.7 2.8 2.6 0 5.317-.517 8.15-1.55-6.066-.434-13.133-2.483-21.2-6.15-6-2.767-10.617-5.333-13.85-7.7 14.533 8.1 26.3 12.15 35.3 12.15.9 0 1.85-.217 2.85-.65-.066-.067-.1-.133-.1-.2 0-.267.383-.633 1.15-1.1.8-.5 1.4-.684 1.8-.55v.05a9.04 9.04 0 0 0 1.15-.85c.533-.467 1.017-.717 1.45-.75.1-.033.45.017 1.05.15-.633-.333-1.017-.717-1.15-1.15-.167-.434-.367-1.317-.6-2.65-.267-1.333.333-2.4 1.8-3.2 1.466-.833 2.583-.95 3.35-.35.8.6 1.3.867 1.5.8a9.255 9.255 0 0 0-.2-1.15c-.067-.3-.133-.566-.2-.8h-1.1c-3 0-5.883-.183-8.65-.55-1.133-.167-2.917-.483-5.35-.95 1.967-.067 3.9-.133 5.8-.2 2.6-.9 5.967-1.517 10.1-1.85l15.9-4.95c5.033-.967 10.1-1.75 15.2-2.35 5.467-.5 10.983-.55 16.55-.15 1.4.133 2.833.267 4.3.4 1.067-.033 2.45-.083 4.15-.15.633 0 1.233.25 1.8.75.2-.1.383-.2.55-.3 1.7-.8 3.617-.833 5.75-.1 1.167-1.033 2.617-1.55 4.35-1.55.6 0 1.167.05 1.7.15.566.1 1.083.15 1.55.15.5 0 1.017.066 1.55.2.467-.367 1.417-.75 2.85-1.15a7.562 7.562 0 0 1 1.15-.45c3.034-1.067 5.284-1.267 6.75-.6l4.6-.35c1.3-.8 2.75-1.417 4.35-1.85 1.133-.3 2.55-.517 4.25-.65l2.3.1c2.034-.167 3.717-.3 5.05-.4.333-.7 1.816-1.4 4.45-2.1 3.667-.967 8.4-1.5 14.2-1.6 2.267-.467 4.65-.133 7.15 1 .367.133.7.283 1 .45.3-.1.6-.233.9-.4l2.75-1.4c1.267-.333 4.434-.7 9.5-1.1h.05c.3 0 1.6-.083 3.9-.25 2.733-.2 4.417-.2 5.05 0 .434.133.917.467 1.45 1 .167.133.35.3.55.5 1.8-.6 3.867-.816 6.2-.65l4.15-.35 2.45.15 8.2-.55c2.4.3 3.9.983 4.5 2.05.067.1.133.216.2.35.833-.233 2.117-.5 3.85-.8 2.767.233 5.433.65 8 1.25 4 .967 6.15 1.467 6.45 1.5 4.133 1.433 6.25 2.183 6.35 2.25.434.233.783.533 1.05.9.233.233.4.5.5.8a4.106 4.106 0 0 1 1.7-.15 4.974 4.974 0 0 1 1.4 0c1.034.034 2.617.15 4.75.35a568 568 0 0 1 4.2.95c1.767.4 2.983.717 3.65.95a81.099 81.099 0 0 0 7.3 2.95c1.033.5 1.75 1.317 2.149 2.45a6.36 6.36 0 0 1 1.801-.15c3.033 1 5.416 2.3 7.149 3.9 1.101 1 3.783 2.7 8.05 5.1 3.9 2.167 5.851 3.367 5.851 3.6.066.567-1.033 1.417-3.3 2.55-.667.333-1.267.65-1.801.95 1.367.367 3.584.967 6.65 1.8 3.434.966 6.05 1.966 7.85 3 1.733 1.033 4.034 2.2 6.9 3.5 3.467 1.6 5.733 2.7 6.8 3.3 2.566 1.333 4.783 3.017 6.65 5.05h-.024zM42.3 36.85c1 .033 1.85-.05 2.55-.25-.2-.2-.417-.45-.65-.75-.867.067-1.434.1-1.7.1a2.35 2.35 0 0 0-.45.05c-.133.067-.25.133-.35.2.233.266.433.483.6.65zm55.15 73.2c-.2.133-.534.283-1 .45.3.199.633.383 1 .55-.033-.434-.033-.767 0-1zM216.9 65.949c0 .467-.183.784-.55.95-.2.667-.45 1.566-.75 2.7-.2.7-.417 1.384-.65 2.05 1.3-1.533 2.233-2.833 2.8-3.899a10.45 10.45 0 0 0 .85-1.851c-.6 0-1.167.017-1.7.05z" fill-rule="evenodd"/><path d="M149.15 59.949c2.167-.733 3.783-1.033 4.85-.899.833.133 1.517.616 2.05 1.45.1.199.25.55.45 1.05.167.467.317.816.45 1.05.2.233.6.533 1.2.9.5.267.8.449.9.55.067.2-.383.899-1.35 2.1a4.568 4.568 0 0 0-.65.8c0 2.2-.2 3.617-.6 4.25.8.7 1.517 1.617 2.15 2.75.233.467.767 1.65 1.6 3.551.133.199.267.416.4.649.233.267.5.566.8.9a2.765 2.765 0 0 1-.55-.5c.167.467.316.866.45 1.2.333.533.534.85.6.949 0 .067-.033.117-.1.15-.033-.1-.15-.283-.35-.55.066.3.1.566.1.8l.6.8-.15.25c0-.166-.15-.45-.45-.85-.066.2-.183.316-.35.35 0 .033-.017.05-.05.05.067.2.083.384.05.551h-.05c-.066-.2-.15-.4-.25-.601-.167.033-.35 0-.55-.1.133.467.217.717.25.75-.133-.134-.267-.351-.4-.65a.368.368 0 0 1-.05-.149c0-.067-.033-.084-.1-.051l-.25-.25c-.033.067-.033.15 0 .25v.15a.755.755 0 0 1-.25-.3.843.843 0 0 1-.05-.25c-.133-.134-.25-.217-.35-.25-.033.066-.117.45-.25 1.149-.1.434-.35.784-.75 1.051a.323.323 0 0 0 .15.149l-.1.05a.765.765 0 0 1-.15-.199c-.033.033-.083.05-.15.05-.066.033-.15.066-.25.1.033.367.05.617.05.75-.034.134-.083.101-.15-.1-.1-.167-.15-.367-.15-.601l-.05-.05c-.033.5-.033.816 0 .95l-.15.05c-.067-.066-.117-.184-.15-.35a4.271 4.271 0 0 1-.25-.9 1.618 1.618 0 0 1-.4-.7v1.4l-.1.15-.15-.25c-.133-.233-.167-.884-.1-1.95 0-.033.017-.066.05-.101h-.1l-.05-.05c-.1.967-.117 1.667-.05 2.101l-.05.1c-.067.033-.133-.033-.2-.2-.066-.133-.083-.467-.05-1a21.396 21.396 0 0 1-.35-2c-.1.467-.183.967-.25 1.5 0 .033-.017.05-.05.05-.034 0-.067-.05-.1-.149-.1-.134-.083-.55.05-1.25l-.05.05-.1-.15c-.033-.1-.033-.366 0-.8h-.05l-.1.05-.05-.1v-.05a.388.388 0 0 1-.05-.15c-.033-.033-.05-.133-.05-.3a2.56 2.56 0 0 0-.05-.3.451.451 0 0 0-.2.05c-.067-.1-.1-.267-.1-.5.033-.1.05-.2.05-.3-.033.066-.117.133-.25.2a.744.744 0 0 1-.2-.351l-.1.05v.351l-.1.05c0-.134-.017-.25-.05-.35v-.15a.367.367 0 0 1-.05-.15l.05-.05c-.034 0-.05-.017-.05-.05l-.15.1-.05-.1c-.034-.1-.017-.184.05-.25 0-.167.017-.283.05-.35a.342.342 0 0 1-.1-.25l-.05-.051-.05-.1c0 .066-.033.017-.1-.15-.033-.1-.05-.216-.05-.35v-.05a6.092 6.092 0 0 0-.15-.351c0-.033.017-.066.05-.1a1.901 1.901 0 0 1-.1-.25v.15c0 .066-.05.033-.15-.101-.067-.166-.05-.583.05-1.25a1.4 1.4 0 0 1 .05-.3c0-.167.033-.333.1-.5V73.3a1.755 1.755 0 0 1-.25-.5c-.2-.5-.3-.917-.3-1.25v-.15a1.18 1.18 0 0 1-.25-.399c-.1-.233-.233-.801-.4-1.7a2.23 2.23 0 0 1-.1-.601h-.05c-.067 0-.333-.083-.8-.25-.733-.233-1.217-.449-1.45-.649-.1-.167-.284-.5-.55-1a15.885 15.885 0 0 1-1.05-3.5c-.133-.867-.184-1.584-.15-2.15-.1-.133-.167-.25-.2-.35-.167-.367.067-.717.7-1.05.6-.234 1-.168 1.2.198zm3.8 14.401h-.05c-.066.1-.1.2-.1.3.033-.1.083-.201.15-.3zm103.65-4.1c-1.3 2.1-2.283 3.366-2.95 3.8.267 1.033.35 2.25.25 3.649-.066.567-.3 1.967-.7 4.2 0 .267-.034.533-.1.8.033.367.083.75.15 1.15a22.903 22.903 0 0 1-.2-.75c-.1.6-.183 1.083-.25 1.45-.033.666-.05 1.05-.05 1.149-.033.067-.083.101-.15.101v-.7c-.1.366-.217.65-.35.85V87l-.2.149c.067-.2.083-.533.05-1a1.541 1.541 0 0 1-.5.2h-.05c-.1.233-.216.417-.35.55a6.03 6.03 0 0 0 .15-.649c-.167-.067-.317-.2-.45-.4-.133.5-.2.767-.2.8v.05c-.034-.199-.017-.483.05-.85 0-.066.017-.116.05-.15-.033-.066-.066-.1-.1-.1a5.248 5.248 0 0 0-.1-.35 2.506 2.506 0 0 1-.15.25l-.05.149c-.066-.066-.083-.184-.05-.35.033-.134.066-.25.1-.351a2.632 2.632 0 0 1-.15-.35c-.066.066-.367.384-.9.95-.367.399-.783.616-1.25.649-.033.067-.033.15 0 .25h-.1c-.033-.1-.033-.183 0-.25h-.15c-.1 0-.2-.017-.3-.05-.2.367-.333.617-.4.75-.1.134-.133.101-.1-.1s.117-.434.25-.7l-.1-.05c-.267.5-.417.816-.45.95l-.15-.051c-.033-.066-.033-.216 0-.449.067-.267.184-.567.35-.9a1.491 1.491 0 0 1-.05-.35 5.51 5.51 0 0 1 .1-.551c-.4.634-.667 1.101-.8 1.4l-.2.1.05-.35c.033-.267.367-.9 1-1.9a.563.563 0 0 0 .15-.1h-.1V83.8c-.667.833-1.083 1.483-1.25 1.95l-.1.1c-.1 0-.133-.1-.1-.3 0-.134.183-.467.55-1 .3-.834.6-1.517.9-2.05-.367.399-.75.833-1.15 1.3 0-.033-.017-.033-.05 0-.034 0-.05-.05-.05-.15.033-.133.3-.517.8-1.149h-.05c-.033.1-.033.033 0-.2.033-.134.184-.4.45-.8l-.05.05V81.5h-.1v-.15l.1-.1v-.101c0-.066.034-.166.1-.3l.2-.4a.812.812 0 0 1-.25.051c0-.134.066-.301.2-.5.133-.134.2-.217.2-.25h-.3c0-.134.017-.25.05-.351h-.1c-.066.101-.133.2-.2.3h-.1a1.1 1.1 0 0 1 .15-.35l.05-.15c0-.1.034-.149.1-.149l.05.05a.79.79 0 0 1-.05-.2H247v-.15a.785.785 0 0 0 .15-.2c.133-.134.217-.233.25-.3v-.051a.542.542 0 0 0 .1-.199l-.05-.051c.033-.033.05-.083.05-.149-.067.1-.083.05-.05-.15.066-.133.133-.25.2-.35h-.05l.05-.05c.067-.2.1-.334.1-.4 0-.033.033-.083.1-.15.033-.1.05-.166.05-.199l-.1.1c-.033.066-.033.017 0-.15.034-.199.284-.616.75-1.25.034-.066.1-.149.2-.25.1-.1.2-.216.3-.35l.15-.15c0-.233.017-.433.05-.6.133-.533.283-.95.45-1.25.066-.1.1-.167.1-.2 0-.166.017-.35.05-.55.033-.267.233-.884.6-1.85.1-.2.2-.367.3-.5l-.05-.051c-.034-.066-.217-.283-.55-.649-.5-.566-.783-1-.85-1.3-.033-.167 0-.534.1-1.101.2-1.233.583-2.533 1.15-3.899.367-.934.733-1.667 1.1-2.2a.808.808 0 0 1 0-.4c.067-.467.483-.684 1.25-.649.733 0 1.067.216 1 .649 2.3.267 3.883.7 4.75 1.3.633.5.934 1.284.9 2.351 0 .233-.066.633-.2 1.2-.133.5-.2.916-.2 1.25.033.333.217.767.55 1.3.233.5.333.833.3 1-.033.2-.8.684-2.3 1.45-.4.164-.767.331-1.1.498zm-10.2-2.351c.2.434.6 1 1.2 1.7.566.634.867 1.066.9 1.3 0 .267-.917 1-2.75 2.2-.467.3-.933.566-1.4.8-1.033 3-1.95 4.834-2.75 5.5.767 1.367 1.316 2.983 1.65 4.851.133.733.317 2.6.55 5.6.067.366.117.733.15 1.1.2.5.4 1.017.6 1.551a25.769 25.769 0 0 1-.5-.95c.067.733.1 1.366.1 1.899.2.9.317 1.417.35 1.551 0 .1-.033.149-.1.149a13.826 13.826 0 0 1-.3-.899c-.033.466-.1.85-.2 1.149l.4 1.351-.25.3c0-.233-.1-.7-.3-1.4a.949.949 0 0 1-.6.351h-.1c-.033.3-.1.583-.2.85l-.05.05c-.033-.366-.05-.684-.05-.95-.233-.1-.467-.25-.7-.449v1.1c-.133-.233-.216-.6-.25-1.1v-.25l-.15-.15a8.64 8.64 0 0 1-.25-.35c-.033.1-.066.216-.1.35l-.15.15c-.1-.101-.15-.267-.15-.5 0-.167.017-.301.05-.4a7.225 7.225 0 0 0-.35-.4c-.1.067-.417.517-.95 1.351a2.302 2.302 0 0 1-1.45 1.1c0 .101.017.2.05.3h-.15a.921.921 0 0 1-.05-.3h-.2a1.032 1.032 0 0 1-.45 0c-.167.533-.267.867-.3 1-.067.233-.117.217-.15-.05 0-.3.034-.634.1-1l-.1-.05c-.233.7-.35 1.133-.35 1.3l-.25.05c-.1-.133-.15-.35-.15-.649-.033-.334.034-.767.2-1.301a2.697 2.697 0 0 1-.25-.399c-.033-.3-.05-.55-.05-.75-.333.899-.534 1.55-.6 1.95l-.25.149-.1-.399c-.033-.4.233-1.301.8-2.7a.33.33 0 0 1 .15-.15h-.2v-.1c-.633 1.233-.983 2.166-1.05 2.8l-.15.15c-.1-.034-.15-.167-.15-.4-.033-.167.1-.634.4-1.4.1-1.1.25-2.066.45-2.899l-1.05 2c-.034-.033-.067-.05-.1-.05s-.067-.067-.1-.2c0-.2.233-.75.7-1.65h-.05c-.066.101-.117.017-.15-.25 0-.166.133-.533.4-1.1l-.05.05V90.3h-.15l-.05-.2.05-.1v-.2c0-.066.017-.184.05-.351 0-.1.033-.267.1-.5h-.3c-.066-.166-.033-.383.1-.649.1-.167.167-.3.2-.4-.067.066-.217.084-.45.05a.872.872 0 0 1-.05-.5h-.15c-.067.2-.117.367-.15.5h-.15c0-.166.033-.333.1-.5v-.2c-.033-.134-.017-.217.05-.25h.05a.393.393 0 0 1-.05-.15h-.25v-.2c.034-.1.083-.2.15-.3.1-.167.167-.3.2-.4v-.05c0-.066.033-.166.1-.3l-.1-.1a.383.383 0 0 0-.05-.15c-.033.1-.067.017-.1-.25.067-.167.1-.316.1-.45h-.05l.05-.05v-.05c.033-.267.05-.45.05-.55 0-.034.017-.084.05-.15.033-.1.066-.184.1-.25l-.15.1c-.066.101-.117.034-.15-.199 0-.267.233-.851.7-1.75 0-.101.05-.217.15-.351.133-.2.25-.399.35-.6l.1-.101a4.494 4.494 0 0 1-.1-.85c-.034-.733.033-1.333.2-1.8 0-.066.017-.117.05-.15a6.614 6.614 0 0 1-.15-.8c-.033-.366.05-1.184.25-2.45.034-.3.1-.583.2-.85-.033-.033-.067-.033-.1 0-.066-.066-.4-.316-1-.75-.9-.7-1.45-1.233-1.65-1.601-.133-.233-.233-.75-.3-1.55-.133-1.666-.067-3.434.2-5.3.2-1.267.483-2.3.85-3.1-.1-.2-.15-.367-.15-.5-.067-.601.433-.967 1.5-1.101 1-.1 1.533.15 1.6.75 3.3 0 5.667.351 7.1 1.05 1.1.567 1.784 1.534 2.05 2.9.066.3.117.85.15 1.65 0 .702.05 1.253.15 1.652zm2.2 7.651c-.1.1-.167.2-.2.3.067-.1.15-.2.25-.3h-.05zm-1.8 6.849c.133-.2.3-.416.5-.649v-.101c-.233.334-.4.584-.5.75zm-11.9.201c.1-.167.184-.3.25-.4h-.1c-.033.1-.083.233-.15.4zm.6 7.849c-.233.5-.383.867-.45 1.101.1-.267.25-.584.45-.95v-.151zM229.45 66.8c.1.333.267.95.5 1.85.167.8.333 1.417.5 1.851.3.5.9 1.149 1.8 1.949.767.733 1.183 1.233 1.25 1.5.1.301-.833 1.134-2.8 2.5-.5.367-.967.684-1.4.95-.633 3.367-1.35 5.467-2.15 6.3 1.167 1.567 2.133 3.417 2.9 5.551.3.8.9 2.933 1.8 6.399.133.434.25.834.35 1.2l1.1 1.8c-.3-.366-.566-.733-.8-1.1.233.833.383 1.566.45 2.2.466 1.033.733 1.616.8 1.75 0 .133-.033.199-.1.199-.1-.199-.283-.55-.55-1.05.066.533.066.983 0 1.351l.75 1.5-.3.3c-.033-.267-.233-.783-.6-1.55-.167.267-.383.399-.65.399h-.1c.033.367.017.684-.05.95l-.05.05c-.1-.399-.184-.75-.25-1.05-.3-.066-.6-.25-.9-.55.1.8.15 1.217.15 1.25v.05c-.167-.233-.317-.65-.45-1.25l-.1-.3a.774.774 0 0 0-.2-.15 4.8 4.8 0 0 0-.35-.399c-.033.1-.05.233-.05.399l-.05.15c-.167-.101-.283-.267-.35-.5v-.5a12.473 12.473 0 0 0-.45-.5c-.133.1-.434.633-.9 1.6-.3.634-.8 1.033-1.5 1.2.033.134.083.25.15.35h-.2a1.112 1.112 0 0 1-.15-.35.448.448 0 0 1-.2.05h-.55c-.1.601-.133.967-.1 1.101-.1.233-.183.199-.25-.101-.066-.3-.1-.666-.1-1.1l-.1-.05c-.133.8-.2 1.3-.2 1.5h-.25a2.431 2.431 0 0 1-.25-.65c-.1-.4-.133-.917-.1-1.55a1.345 1.345 0 0 1-.3-.45c-.1-.333-.184-.6-.25-.8-.2 1-.283 1.733-.25 2.2l-.3.25-.15-.551c-.133-.466-.017-1.5.35-3.1a.383.383 0 0 0 .05-.15h-.15v-.149c-.5 1.434-.717 2.517-.65 3.25l-.15.2c-.133-.034-.233-.184-.3-.45-.033-.233.05-.783.25-1.65-.167-1.3-.2-2.399-.1-3.3-.267.667-.55 1.417-.85 2.25-.067-.066-.117-.1-.15-.1-.034.033-.067-.017-.1-.15-.067-.233.083-.866.45-1.9h-.05c-.067.134-.133.051-.2-.25-.066-.199 0-.616.2-1.25l-.05-.05h-.2l-.05-.25v-.1c0-.101-.017-.167-.05-.2 0-.066.017-.217.05-.45-.034-.1-.034-.3 0-.6-.1.033-.217.05-.35.05-.1-.2-.1-.45 0-.75.066-.2.1-.35.1-.45-.067.066-.233.101-.5.101-.1-.233-.15-.434-.15-.601h-.2c0 .2-.017.384-.05.55l-.2.051c-.033-.2-.017-.4.05-.601l-.05-.2c-.033-.133-.033-.216 0-.25l.05-.05a.385.385 0 0 1-.05-.149h-.3l-.1-.25a3.51 3.51 0 0 0 .2-.351c.033-.2.083-.35.15-.45v-.05a.628.628 0 0 1 0-.35l-.15-.15V90.5c-.1.1-.183 0-.25-.301a3.39 3.39 0 0 0 .05-.55h-.05l.05-.05v-.05a5.702 5.702 0 0 0-.1-.65v-.149c.066-.134.1-.233.1-.301l-.15.101c-.066.166-.133.116-.2-.15-.067-.333.083-1 .45-2l.1-.399c.1-.2.2-.434.3-.7.033-.033.05-.084.05-.15a7.208 7.208 0 0 1-.3-.899c-.167-.867-.2-1.584-.1-2.15 0-.066.017-.116.05-.15a5.674 5.674 0 0 1-.35-.899c-.1-.4-.183-1.334-.25-2.8.034-.367.067-.684.1-.95a.388.388 0 0 0-.15-.05c-.067-.067-.5-.351-1.3-.851-1.167-.733-1.917-1.333-2.25-1.8-.2-.267-.417-.85-.65-1.75-.5-1.9-.783-3.934-.85-6.1.033-1.4.15-2.584.35-3.551a3.062 3.062 0 0 1-.3-.55c-.167-.7.367-1.116 1.6-1.25 1.133-.1 1.816.184 2.05.851 3.867 0 6.7.399 8.5 1.199 1.4.632 2.417 1.748 3.05 3.349zm-23.85 1.149c-.133.667-.2 1.2-.2 1.601.133.533.467 1.2 1 2 .434.767.633 1.267.6 1.5-.033.267-1.2.733-3.5 1.399-.6.167-1.133.301-1.6.4-1.8 2.667-3.233 4.217-4.3 4.65.533 1.566.783 3.283.75 5.149-.033.767-.25 2.65-.65 5.65l-.1 1.1c.066.566.167 1.134.3 1.7a8.58 8.58 0 0 1-.35-1.1c-.1.767-.2 1.416-.3 1.949v1.65c-.033.066-.083.1-.15.1 0-.199-.017-.533-.05-1-.167.467-.333.834-.5 1.101l.15 1.399-.4.15c.067-.233.083-.7.05-1.4-.267.167-.533.233-.8.2h-.1c-.1.267-.217.5-.35.7h-.1c.033-.333.067-.634.1-.9-.2-.133-.4-.333-.6-.6-.167.667-.25 1.017-.25 1.05v.05c-.1-.267-.117-.633-.05-1.1v-.25a.448.448 0 0 0-.05-.2 1.673 1.673 0 0 1-.2-.45l-.2.301-.15.199c-.067-.133-.083-.316-.05-.55.067-.166.117-.3.15-.399-.1-.233-.2-.4-.3-.5-.1.033-.533.399-1.3 1.1a2.632 2.632 0 0 1-1.85.6v.351l-.2-.05v-.351h-.2a1.786 1.786 0 0 1-.5-.149c-.3.466-.467.767-.5.899-.133.167-.184.117-.15-.149.033-.267.117-.567.25-.9l-.05-.1c-.4.633-.633 1.033-.7 1.199l-.25-.05c-.034-.133-.034-.333 0-.6.033-.367.183-.783.45-1.25a3.426 3.426 0 0 0-.15-.45c.067-.3.1-.55.1-.75-.533.8-.883 1.384-1.05 1.75l-.3.1V94.3c.067-.4.55-1.217 1.45-2.45.033-.066.1-.116.2-.15h-.2v-.1c-.934 1.033-1.517 1.866-1.75 2.5l-.2.1c-.1-.066-.133-.216-.1-.449.033-.2.3-.634.8-1.301.367-1.066.733-1.966 1.1-2.699-.5.5-1.017 1.033-1.55 1.6h-.1c-.066-.033-.1-.116-.1-.25.034-.2.417-.667 1.15-1.4h-.05c-.1.067-.133-.033-.1-.3.034-.166.25-.5.65-1h-.05v-.05h-.2l.05-.251h.1c0-.066.017-.134.05-.2 0-.066.05-.184.15-.35 0-.101.067-.25.2-.45a5.428 5.428 0 0 0-.35-.1c-.033-.167.067-.367.3-.601.1-.133.183-.267.25-.399-.067.1-.233.1-.5 0-.034-.2-.017-.367.05-.5l-.15-.051c-.1.167-.2.317-.3.45l-.15-.05c.033-.167.1-.3.2-.4l.05-.199c0-.134.05-.233.15-.301l.05.051v-.2h-.3v-.2c.1-.066.2-.167.3-.3l.3-.3v-.051l.15-.3-.1-.1c0-.033.017-.084.05-.15-.1.066-.133-.033-.1-.3.1-.134.184-.283.25-.45l-.05.05.05-.1v-.05c.1-.267.15-.45.15-.55.034-.034.083-.051.15-.051a.622.622 0 0 1 .15-.25l-.25.051c-.067.1-.083.033-.05-.2.034-.267.4-.783 1.1-1.55.067-.067.15-.167.25-.301.167-.133.333-.3.5-.5.033 0 .067-.017.1-.05 0-.333.017-.616.05-.85.133-.733.35-1.316.65-1.75l.15-.15a2.487 2.487 0 0 1 0-.7c.033-.366.3-1.166.8-2.399.133-.3.283-.55.45-.75-.033-.066-.083-.101-.15-.101a44.18 44.18 0 0 1-.9-1c-.8-.899-1.267-1.55-1.4-1.949-.066-.233-.05-.75.05-1.551.233-1.699.7-3.433 1.4-5.199.5-1.134 1.033-2.067 1.6-2.801-.1-.233-.133-.416-.1-.55.066-.6.7-.8 1.9-.6 1.1.133 1.633.5 1.6 1.1 3.566.934 6.033 1.934 7.4 3 1.067.834 1.583 1.95 1.55 3.351 0 .301-.067.867-.2 1.7zm14.55 18.901c-.033.033-.066.05-.1.05a3.426 3.426 0 0 1-.15.45c.1-.167.183-.333.25-.5zm2.05 9.5c-.088.351-.163.659-.225.925.066-.254.158-.513.275-.774a.381.381 0 0 0-.05-.151zm-41.9-31.151c-.033.667-.017 1.2.05 1.601.133.434.483 1 1.05 1.7.5.633.75 1.066.75 1.3 0 .267-.967.983-2.9 2.149-.5.334-.967.617-1.4.851-1.267 2.967-2.333 4.8-3.2 5.5.667 1.333 1.083 2.934 1.25 4.8.067.733.1 2.6.1 5.6.033.334.05.684.05 1.051.167.5.333 1.017.5 1.55a8.388 8.388 0 0 1-.45-.95c0 .733-.017 1.366-.05 1.9.133.899.217 1.416.25 1.55-.033.1-.083.149-.15.149-.033-.166-.1-.466-.2-.899-.067.467-.167.85-.3 1.149l.3 1.351-.3.25c.033-.233-.017-.684-.15-1.351-.2.233-.417.351-.65.351-.033 0-.067.017-.1.05-.067.3-.15.566-.25.8h-.05v-.899c-.233-.067-.45-.217-.65-.45-.066.666-.1 1.017-.1 1.05v.05c-.1-.233-.15-.6-.15-1.1v-.25c-.033-.066-.066-.101-.1-.101-.1-.166-.184-.3-.25-.399-.034.1-.067.217-.1.35l-.1.15c-.1-.066-.15-.217-.15-.45.033-.2.066-.35.1-.45a2.85 2.85 0 0 0-.3-.399c-.1.066-.45.533-1.05 1.399a2.77 2.77 0 0 1-1.55 1.05c0 .101.017.2.05.301h-.15a.931.931 0 0 1-.05-.301.44.44 0 0 0-.2.051 1.82 1.82 0 0 1-.45-.051c-.2.534-.317.867-.35 1-.1.2-.15.167-.15-.1s.05-.583.15-.95l-.1-.05c-.267.7-.417 1.134-.45 1.3h-.2c-.066-.133-.1-.333-.1-.6 0-.334.083-.767.25-1.3a1.996 1.996 0 0 1-.15-.4v-.75c-.4.9-.65 1.55-.75 1.95l-.25.2-.05-.45c0-.4.333-1.3 1-2.7a.58.58 0 0 1 .1-.15h-.15v-.1c-.7 1.233-1.117 2.167-1.25 2.8l-.15.15c-.1 0-.15-.117-.15-.351 0-.199.183-.683.55-1.449.167-1.134.383-2.084.65-2.851-.367.601-.767 1.25-1.2 1.95-.033-.033-.067-.05-.1-.05s-.05-.066-.05-.2c0-.2.267-.733.8-1.6h-.05c-.067.1-.1.017-.1-.25 0-.167.15-.551.45-1.15l-.05.05V89.1h-.15v-.2l.05-.1v-.2c0-.066.034-.184.1-.35 0-.101.05-.267.15-.5h-.3c-.067-.134-.017-.351.15-.65.1-.167.167-.3.2-.4-.067.067-.217.101-.45.101a1.262 1.262 0 0 1 0-.5H167a6.21 6.21 0 0 1-.2.45h-.15a1.75 1.75 0 0 1 .15-.45v-.2c0-.134.034-.217.1-.25h.05a.367.367 0 0 1-.05-.15h-.25V85.5l.2-.301c.1-.166.183-.3.25-.399v-.05c0-.067.033-.184.1-.351l-.1-.05v-.15c-.067.101-.1.017-.1-.25.067-.166.117-.316.15-.449h-.05l.05-.051v-.05c.067-.3.1-.5.1-.6 0-.033.017-.084.05-.15.034-.1.067-.184.1-.25l-.15.101c-.067.133-.1.083-.1-.15 0-.267.267-.85.8-1.75.033-.1.1-.217.2-.35.1-.167.217-.367.35-.601l.1-.1a8.88 8.88 0 0 1-.05-.851c.034-.733.15-1.333.35-1.8a.58.58 0 0 1 .1-.149 2.703 2.703 0 0 1-.1-.75c0-.367.15-1.2.45-2.5.066-.301.15-.567.25-.801-.033-.033-.067-.05-.1-.05a25.063 25.063 0 0 0-.9-.75c-.833-.666-1.333-1.184-1.5-1.55-.1-.233-.15-.75-.15-1.55 0-1.667.216-3.434.65-5.3.3-1.233.65-2.267 1.05-3.101-.1-.2-.15-.366-.15-.5 0-.6.533-.95 1.6-1.05 1-.1 1.517.134 1.55.7 3.233.033 5.517.399 6.85 1.1 1.033.533 1.633 1.5 1.8 2.9.033.303.033.852 0 1.652zm9.65 15.301c-.067.1-.15.216-.25.35l.35-.35h-.1zM155 79.699a8.473 8.473 0 0 1-.1.801c.067-.2.117-.434.15-.7-.033 0-.05-.033-.05-.101zm13.05 1.351c-.066.1-.133.217-.2.35.1-.133.2-.25.3-.35h-.1zm-.25 8.25c-.267.467-.45.816-.55 1.05.133-.267.317-.566.55-.9v-.15zm20.8-.601c-.367.367-.633.667-.8.9.2-.233.45-.483.75-.75 0-.033.017-.082.05-.15z" fill-rule="evenodd"/></svg>