<svg xmlns="http://www.w3.org/2000/svg" xmlns:dc="http://dublincore.org/documents/dcmi-terms/" height="363.709" viewBox="0 0 409.041 363.709" width="409.041" overflow="visible"><metadata><dc:description>Silhouette of Darapsa myron, processed by PhyloPic Tools (https://github.com/eweitz/phylopic-tools)</dc:description><dc:source>http://phylopic.org/image/f9695390-64cc-40b2-beb5-a70fa767ae50</dc:source><dc:creator>Gareth Monger</dc:creator><dc:license>http://creativecommons.org/licenses/by/3.0/</dc:license></metadata><switch><g><path d="M224.311 77.466c6.983 5.574 16.954 12.579 20.332 17.499 3.378 4.919 5.054 13.561 5.054 13.561l28.255 31.444 43.473 50.575 49.568 60.842s25.072 28.268 33.32 54.539c8.246 26.273 3.196 15.891 3.196 15.891s-3.022 1.398-2.906 2.445c.118 1.047 1.429 28.449 1.429 28.449l-4.186.471c-2.442.273-10.821-5.143-10.821-5.143s1.282 1.975-.462 2.17c-1.744.195-8.725-2.199-8.725-2.199l-1.011-2.713-4.536.51c-1.394.158-6.32-2.822-6.32-2.822s-14.267-1.225-21.71-1.449c-7.442-.223-16.938.137-16.938.137l-1.747-2.982-2.442.271.196 1.744s-7.134-.611-8.956-1.113c-1.822-.502-5.429-1.156-5.429-1.156l-.622-2.402-3.488.393s-12.529-7.779-18.192-11.029-11.562-8.592-13.811-9.752c-2.25-1.16-6.671-2.783-7.177-4.141-.504-1.355-1.637-8.293-1.637-8.293s3.435-13.455.979-25.895c-2.455-12.439-5.296-22.012-16.148-21.146-10.854.865-14.995 4.863-14.995 4.863l-2.717-2.168-1.008.465s1.14 13.295.794 16.514c-.346 3.217-5.207 22.836-5.207 22.836l-1.961 13.998-1.075 9.303-3.096 3.879s1.011 2.713.935 5.195c-.073 2.48-3.78 16.672-3.78 16.672l-1.704.543s-4.982 15.396-8.511 15.439c-3.526.041-11.717-9.988-16.298-16.186-4.581-6.198-5.862-8.172-5.862-8.172l-3.229-9.883s.814.969-2.331-5.035c-3.147-6.004-7.002-21.467-7.002-21.467s-8.432-18.48-8.667-20.574c-.235-2.092-4.682-25.965-4.682-25.965s-9.574-.34-12.553 4.588c-2.979 4.926-5.422 5.199-5.422 5.199l-1.943-4.727s-4.873 10.084-4.051 17.41c.823 7.324 3.977 19.686 4.019 23.213.043 3.529 1.132 6.939-1.541 8.297-2.673 1.361-12.237 10.559-15.027 10.871-2.79.314-9.027 4.545-9.027 4.545s-2.163 5.895-4.296 5.781c-2.132-.113-3.605-.654-3.605-.654s-6.624 3.922-7.632 4.389c-1.007.465-8.912 2.412-8.912 2.412s-3.986 5.393-5.461 4.854c-1.473-.543-17.017-.562-17.017-.562s-20.154 2.969-24.532 4.873c-4.378 1.902-11.236 3.732-13.29 4.316-2.055.584-7.557 1.908-7.557 1.908l-.164-7.752-4.108 1.166-1.747-2.982-1.979-1.896s-5.809 4.891-8.638 4.855c-2.83-.037-7.561-1.271-7.913-4.41-.353-3.141.737-34.346 11.223-51.064 10.486-16.719 53.793-77.74 53.793-77.74s34.292-46.942 50.473-66.419c16.181-19.477 33.177-37.986 33.177-37.986s2.977-8.105 4.56-12.875c1.584-4.77 9.714-14.16 9.714-14.16l9.564-9.197s10.941-25.248 15.397-26.455c4.456-1.207 12.443.723 13.686 2.35 1.242 1.626 11.804 17.043 11.804 17.043l10.863 11.846z"/><path d="M18.9 136.915l-.049.43-.161 1.384-.843 2.298 1.283-.832 9.149 2.968 3.054.208 1.693.361 7.831-.19 1.043.709 10.082-.994-.059.695 15.766-.667.47.498h14.738s1.452.664 2.209 1.267c.756.604 3.946.796 3.946.796l-1.486 8.845s4.827-8.531 5.099-9.802c.271-1.27 3.548-3.979 4.5-4.086.952-.107 14.779-4.552 20.252-4.891 5.471-.339 16.522-.064 16.522-.064l8.892-10.365s-9.466-2.106-20.378.083c-10.911 2.19-34.936 12.738-34.936 12.738l-56.776 2.24-10.675-1.833-1.166-1.796zM359.541 92.411l.162.403.521 1.292 1.424 1.991-1.459-.461-8.035 5.286-2.889 1.01-1.539.796-7.602 1.892-.815.96-9.986 1.715.241.653-15.38 3.536-.321.605-14.213 3.904s-1.223 1.024-1.792 1.807c-.569.783-3.594 1.815-3.594 1.815l3.776 8.135s-6.914-6.947-7.513-8.1c-.598-1.153-4.476-2.897-5.423-2.748-.946.149-15.457-.472-20.824.652-5.366 1.122-15.948 4.316-15.948 4.316l-11.32-7.637s8.57-4.541 19.672-5.321c11.101-.781 37.059 3.023 37.059 3.023l55.344-12.887 9.808-4.596.646-2.041zM38.018 227.275l.157.404.504 1.299.325 2.426.747-1.334 9.478-1.646 2.798-1.242 1.665-.471 6.837-3.822 1.255.141 8.451-5.586.272.643 13.634-7.949.646.223 13.036-6.881s1.593-.091 2.544.09c.951.182 3.861-1.137 3.861-1.137l2.814 8.516s.286-9.799-.066-11.049c-.354-1.25 1.281-5.174 2.072-5.713.793-.539 10.946-10.924 15.628-13.778 4.682-2.854 14.583-7.769 14.583-7.769l3.027-13.317s-9.355 2.556-17.983 9.585c-8.628 7.028-24.952 27.57-24.952 27.57L50.183 224.96l-10.295 3.363-1.87-1.048zM225.738 90.176s5.309-22.552 6.969-26.398c1.659-3.846 3.281-8.036 3.281-8.036l3.986-26.587.859-.097 2.955-9.393.994-.46s4.614-11.67 4.499-12.703c-.117-1.033 1.121-5.529 1.121-5.529L249.771 0l2.447.073-.956.804s1.04 6.157.47 8.835c-.57 2.678-4.004 10.906-4.004 10.906l-3.298 9.431s.18 6.253-.543 10.691c-.722 4.438-4.188 17.025-4.188 17.025l2.123.284-.553 1.283 1.358 1.241-.478.403s.623 8.643-.256 10.135c-.878 1.493-8.411 19.765-8.411 19.765l-7.744-.7zM173.023 104.913s-10.776-20.509-13.346-23.817a258.787 258.787 0 0 1-5.188-6.963l-10.505-24.744-.854.12-5.208-8.355-1.078-.199s-7.385-10.146-7.532-11.174c-.145-1.029-2.467-5.073-2.467-5.073l.367-1.101-2.353.685 1.129.538s.534 6.221 1.753 8.671c1.221 2.452 6.603 9.56 6.603 9.56l5.551 8.308s1.39 6.098 3.198 10.214c1.807 4.118 8.309 15.44 8.309 15.44l-1.983.805.857 1.104-1.006 1.541.561.271s1.56 8.522 2.781 9.748c1.226 1.227 13.086 17.037 13.086 17.037l7.325-2.616z"/></g></switch></svg>