<svg xmlns="http://www.w3.org/2000/svg" version="1.2" width="550.008" height="445.107" viewBox="0 0 550.008 445.107" overflow="inherit"><path d="M0 235.107c4.11-10.978 19.15-14.931 16-30 12.278-5.722 21.276-14.724 31-23 .127-1.794-1.224-2.109-1-4-1.017.65-1.034 2.299-3 2-3.215-8.457-8.88-20.74-6-28-2.076 3.599-13.768 5.127-23 7 3.179-3.487 11.835-1.498 13-7 5.719 1.353 6.375-2.954 10-1-1.882-3.445-4.567-.282-8 0v-3c.178 4.109-31.357 2.845-13 2 2.492-.841 5.357-1.309 9-1v-3c-7.121 2.263-9.897-.694-19 0-4.88-.319.964-1.58 3-1h15c-6.724-1.942-13.647-3.687-21-5-.55-2.217 1.91-1.424 2-3 6.297 3.703 15.046 4.954 24 6 2.062-.536.238-4.731 3-2-.845-5.816-5.941-2.912-11-3 .272-2.062 4.428-.238 4-3-.803-2.418-4.117 3.138-6 0 .982-1.352 2.668-1.999 4-3-.354-1.313-1.761-1.573-2-3-1.23.437-2.054 1.28-2 3-2.442-2.095-2.131-1.429-6-1-1.983-1.406 5.881-1.386 7-3-2.161-4.682-7.885.415-13-1-3.235-1.151 2.686-1.132 4-1-1.752-1.581-5.328-1.339-8-2 1.812-2.188 7.83-.17 10-2-.344-2.322-.647-4.686-4-4 .697-4.206 4.553.956 5-3 .175-1.631-6.542-2.019-5 1-1.907-.426-1.81-2.857-5-2 .125-2.208 4.242-.425 6-1-.443-.89-.878-1.789-2-2 .789-2.3 3.498 1.721 5 2-1.321-5.903-7.14-1.222-10-5 .15-2.487 3.386-.292 4 0 2.378-.294-1.111-2.706-2-3 1.371-2.265 4.118 2.47 6 3-.536-3.464-.513-7.487-4-8-2.857-1.158 1.614-1.158 2 0 2.619-4.322-3.181-8.792-5-12 1.504-1.76 4.407 3.536 5 6 1.656-1.01 1.086-4.247 2-6-.775-2.558-6.445-.222-6-4 1.182 1.151 3.535 1.132 6 1-3.352-4.006 3.638-12.755-4-13 1.223-3.028 3.816.707 5 1-.63-4.37-4.924-5.076-7-8 .878-1.455 4.717 2.55 6 4 .504-1.286 1.057-2.068 2-5-4.126 4.02-2.848 1.439-8-2 .18-1.691 4.753.465 4 3 4.776-1.956-2.848-3.879-2-8 2.295 1.371 3.215 4.118 5 6 5.095-2.125-1.025-4.042-1-7 6.025 4.386 7.271-7.122 16-6-.354-1.313-1.761-1.573-2-3-1.149-2.721 2.978 4.449 7 3 .169-2.503-1.536-3.13-3-4 3.311-1.937 5.77 5.533 11 5 1.782-1.755-6.278-5.001-1-8 1.607 2.679.341 5.241 6 9 2.652-1.446-3.671-2.234-2-6 2.323.677 2.677 3.323 5 4 .75-3.417-4.063-1.271-3-5 1.23 1.117 2.054.871 2-1 1.959 4.708 6.704 6.63 8 12 2.417-3.134-4.757-5.205-3-11 1.905 3.762 3.875 7.458 6 11 .88-1.926-2.495-8.138-4-11 5.092.654 5.212 11.576 9 15-3.542-5.415 2.092-4.916-2-12 2.877 1.891 4.947 6.13 3 10 .973-.027.776-1.224 1-2 1.172.162.844 1.823 1 3 2.391-2.782.793-10.083-1-12 .429-2.513 2.154 1.663 2 3 2.168.168.453-3.547 1-5 .934.566 1.515 2.78 2 1 .827 4.173 3.5 6.5 3 12 2.906-3.624-1.402-8.56 0-14 3.315 1.917 4.338.332 6 3 1.633-.019-1.603-5.651 1-7 1.701-.368 1.887.78 2 2 3.009-1.395-2.079-5.176 1-7 1.776 3.474 3.854 1.396 3-3 1.23.437 2.054 1.28 2 3 3.305-1.5-2.078-2.445-1-5 2.007.34 3.129-.205 3-2 2.039.294 1.961 2.706 4 3-.485-2.276-1.984-5.108 0-7 2.035 3.338 2.16.796 2-3 1.23 1.117 2.054.871 2-1 1.85.15.614 3.386 2 4 1.486.04 1.447-5.939 2-1 2.934-.85-1.301-2.517 0-5 1.23.437 2.054 1.28 2 3 2.402-2.156-3.034-4.925 1-7 3.213-.88 1.37 3.296 4 3 2.497-.691-1.856-2.667-1-5 3.125-.458 3.197 2.137 3 5 3.024-1.514-.829-4.389 0-7 1.342.658 1.862 2.138 2 4 2.038-1.402-.982-3.445 1-6 1.757.91 1.829 3.504 3 5 2.231-.147-1.298-2.52 0-5 1.85.15.614 3.386 2 4 2.231-.147-1.298-2.52 0-5 1.23.437 2.054 1.28 2 3 2.556-4.858 5.959-2.627 9-7 1.483.85 2.15 2.517 2 5 1.167-5.008.403-5.014 4-7 2.168-.168.453 3.547 1 5 2.168.168.453-3.547 1-5 2.522 2.233 4.133 1.478 5-1 1.486 1.514 1.611 4.389 2 7 3.024-1.514-.829-4.389 0-7 2.031-.935 4.64 4.662 6 0 .939 5.251 2.684 4.182 3 9 3.343-2.766-1.913-5.354-1-9 2.635-.301 3.282 1.385 3 4 .934-.733 1.515-1.818 2-3 1.781.733.144 1.818 0 3 1.701.368 1.887-.78 2-2 2.855-1.125-2.352 5.961 0 8 1.581-1.752 1.339-5.328 2-8 2.816 1.01-.276 4.247 0 6 1.975.519 2.666-5.895 3-1 1.547-2.409 2.1-4.273 2 1 1.352-.982 1.999-2.668 3-4 1.486-.04 1.447 5.939 2 1 2.27 1.064.381 6.286 1 9 4.203-1.806.663-4.216 2-6 1.646-2.197.738 3.765 1 4-1.146-1.03 6.457-5.083 4-7 2.226.42.783 5.306 0 6 .89-.443 1.789-.878 2-2 2.935-1.155-3.059 3.621-2 7 1.172-.162.843-1.823 1-3 4.74 5.513.742-4.791 7-5-1.368 4.344-.8 6.676 1 10a92.244 92.244 0 0 0 3-3c1.444 1.192 1.517 4.926 3 1 2.272 1.067-2.872 3.033-2 6 2.685-4.336 1.995-.627 6-2 .127 1.794-1.224 2.109-1 4 3.298-.578 1.434-3.776 1-6a14.09 14.09 0 0 0 5-5c2.05 2.116-2.976 5.641-3 9 4.057-1.276 7.301-3.366 10-6 2.767.43.052 3.146-2 2 1.387 5.788-4.607 2.323-2 7 2.156-2.511 5.829-3.504 8-6 3.431 2.854-5.551 1.716-3 7-2.276-2.158-3.874 2.002-6 3 1.286 2.796 2.068-3.15 5-2 .127 1.794-1.224 2.109-1 4 1.657-3.009 3.991-5.343 7-7 3.11 3.177-2.982 5.635-2 10 1.985-.681 2.288-3.045 4-4 1.313.354 1.573 1.761 3 2 .551 2.217-1.91 1.424-2 3 .013 2.806 2.729-2.381 2 2 1.762-.905 1.652-3.681 4-4 2.296-1.76-3.806 3.536-1 6a8.998 8.998 0 0 0 4-4c2.283 2.35-4.24 4.377-5 7 .763 3.061 4.739-6.028 4 1 2.715.715-.715-4.715 2-4 2.462-3.289-2.048 2.967 1 3 1.656-1.01 1.086-4.247 2-6 1.958-2.604.309 2.853 0 4 .294 2.378 2.706-1.111 3-2 1.697.65.625 2.299-1 2 .56 1.44 1.56 2.44 3 3 2.396.396-.555-4.555 3-3-.576 2.091-2.479 2.854-2 6 1.483-1.408 2.15-3.192 2 1 1.759-.241 2.279-1.721 2-4 2.291 1.709 2.365 5.635 3 9 .933-1.067 3.689-.311 3-3-.437-1.484-1.28.395-3 0 .122-3.704 1.456-2.516 4-2v5c2.032-1.924 4.083-2.29 2 1 1.71.044 2.59-.743 3-2 1.925 3.014-2.538 3.553-5 4 2.858 3.114 7.271-.672 9-2 3.066.982-1.149 2.668-1 4 1.926 1.942 4.024-1.052 7-1-.613 4.931-4.438.435-6 4 2.338-.05 6.286 3.478 10 5-.42 2.226-5.306.783-6 0-.895 3.228 3.262 1.405 4 3-.227 1.44-2.984.349-3 2 1.394 1.606 4.935 1.065 6 3 .044-1.71-.743-2.59-2-3 6.335-3.066.105 9.051 6 10-1.733 3.244-2.62-2.598-6-1 1.617 2.05 4.812 2.521 7 4 .518 6.05 7.004 12.41 13 16 2.883 10.178 12.013 15.79 13 25-.805-.529-1.623-1.043-3-1 .982 1.352 2.668 1.999 4 3-.443 1.454-.878-.102-2 0 3.159 3.507 4.426 8.908 7 13-4.213-2.3.096 2.642 0 5-1.975-.691-2.666-2.667-3-5-2.995.658.956 2.138 0 4-1.313-.354-1.573-1.761-3-2 2.593 3.146 9.681 4.66 7 12-3.633-2.094-.277-4.996-3-8-2.964 1.453 1.317 3.9 0 7 .905.572 3.682 4.124 4 2 2.646.793-2.238 4.701 2 5-2.16-.013-5.729-3.31-6-5-2.563 2.939 6.557 6.952 4 10 1.701.368 1.887-.78 2-2 4.129 1.242-.379 2.908-1 5 8.604.854 8.775 4.367 17 6 1.555 3.555-3.396.604-3 3 5.589 2.139 14.067-4.283 17 0 3.89-2.11 7.436-4.565 13-5-.926 3.923-2.178 3.717-1 8 1.66-3.006 5.613-3.721 7-7-3.203.463-3.526 3.808-7 4 .426-1.907 2.857-1.81 2-5 3.528 1.933 4.472-.469 8-1 .551 2.217-1.909 1.424-2 3 2.942.158 5.498-3.75 11-3-.677 2.323-3.323 2.677-4 5 .903 1.125 2.236-.063 4 2-1.912-2.412 3.434-3.971 5-6 2.129-2.154-2.229 3.689-4 4 .19.81 1.003.997 1 2 3.229.895 1.405-3.262 3-4-.152 4.062 4.092-1.528 6-4 .08 4.509-3.511 5.581-5 9 5.287-1.765 6.883-1.064 12-3 .464 3.131-.869 4.464-4 4 3.411 3.448 10.23-5.315 15-7 1.911.4-2.234 2.984-4 3 1.71 2.916 3.64-2.266 7-1-1.675 2.325-4.418 3.582-6 6 2.539 1.821 7.237-2.724 9-5 1.523 3.556-5.218 7.424-10 8 5.344 2.98 9.377-3.934 14-5-2.104 2.229-2.966 5.701-7 6 2.465 3.175 7.945-4.444 9 0 .716 2.715-4.716-.715-4 2 5.007-.703 13.325-5.569 18-5 2.416-2.188-1.562 1.895-2 3 2.332-.334 4.309-1.025 5-3 1.242 4.168-1.439 3.234-7 5 8.368 4.282 8.764-1 15-2 2.207 2.273-4.414 4.203-7 5 5.393 1.45 9.012-1.491 16-2 1.824.777-.599 1.075-2 1 .161 1.172 1.823.843 3 1-1.514 1.486-4.389 1.611-7 2 2.116 2.787 2.904.693 6 2-.274 2.059-3.726.941-4 3 2.451 2.708 4.529-3.414 8-3-.437 1.23-1.279 2.054-3 2 .111.795 3.306 3.031 3 1 2.704.878-2.109 3.169-3 1 1.353 4.323 5.605.538 8 0 .468 3.135-2.515 2.819-4 4 6.009 2.934 12.127 1.646 17-1-1.223 3.444-6.777 2.556-8 6 3.44 1.112 8.303 1.311 12-2 2.857.521-1.614 1.479-2 2 .847 1.486 3.22 1.447 5 2-1.805 2.152-2.836 3.537 2 3 .467 2.134-1.429 1.905-3 2 .31 1.357 2.504.83 4 1 .934-.294.934-2.706 0-3-.168-2.168 3.547-.453 5-1-1.261 1.336-3.006 1.964-1 4 4.379-.654 3.917-5.296 10-2-6.239 3.438-6.809 2.343-15 5 1.166 3.25 2.614-.031 4 3 2.995-.658-.956-2.138 0-4 2.316 3.387 9.071 3.941 14 1 3.502 1.697-1.954 2.569-4 2-.09 2.729 1.666 2.013 0 4 2.395-.605 4.562-1.438 8-1 .117 1.023-4.314 2.023-1 3-.649 1.697-2.299.625-2-1-1.711-.044-2.59.743-3 2 4.287 2.242 7.652-.495 13 1-1.506 2.828-5.183 3.484-9 4 .213 4.258 2.397-.601 6 1 .603.268-2.661 1.665-3 1 1.08 2.119 7.848 3.225 10 7 3.065 5.377 11.184 6.904 12 11-3.282-1.048-4.409.641-7-2 2.948 3.859 16.532 6.67 10 20 .021 5.006 9.151 6.146 6 11 1.897 3.77 7.754 3.579 9 8-2.863 2.363-3.754-3.65-7-4 2.539 5.11 6.409 4.47 9 8-1.025 2.464-12.64-4.992-7-3-.443-.891-.878-1.789-2-2-1.508 7.188 12.863 7.126 12 17-2.692-3.308-3.815-8.185-8-10-1.929 1.035 2.622 3.965 4 5-2.422 2.355-5.324-3.293-7-5 2.441 9.415 13.85 16.303 14 24-1.615.281-1.722-.945-3-1 .294 2.039 2.706 1.961 3 4 2.188 2.416-1.895-1.562-3-2 .2 3.8 4.205 3.795 4 8-2.508-3.036-3.51-1.362-5-5-1.69.18.465 4.753 3 4-1.994 4.928 2.398.25 0 6 .973-.027.776-1.224 1-2 2.516 1.881-.796 3.632-3 2 2.037-2.82-2.201-1.247 0-5-3.428 1.813-1.034 6.187 1 8-.56 2.896-1.56-1.534-3-1 2.281 6.385 2.983 14.35 6 20-3.416-1.918-3.537-7.129-5-11-1.607 3.641 2.82 9.822 4 14-4.758-4.742 2 9.094-1 12-3.111-4.603-.519-10.649-3-17-1.33 8.191 1.259 15.229 1 26-1.172-.161-.844-1.823-1-3-3.113 1.908 1.563 4.342 1 7-.776 1.824-1.075-.599-1-2-1.689 1.978-1.092 6.241-2 9-2.28-1.387-.373-6.961-1-10-4.756 4.664 1.309 12.41-1 17-2.168.168-.453-3.547-1-5-2.974 8.031 2.144 25.246-3 8-2.981 2.088 1.328 5.26 0 9-1.666 3.176-.334-4.884-2-5-2.295 2.038-.362 8.305-1 12-2.555-2.644-1.984 1.369-2 4-1.434-1.232-1.895-3.438-2-6-2.952 2.375 1.209 6.058 1 9-3.409.076-2.961-3.705-3-7-3.908 1.729-2.755 8.127-2 12-5.561-3.854-7.424 22.985-6 6-1.017.649-1.034 2.299-3 2 .711-4.622 4.359-6.308 3-13-4.387 2.431-1.485 7.66-4 13-1.172-.161-.844-1.823-1-3-2.236.431-.405 4.928-1 7-1.669-1.621-1.673-3.563-5 1 1.378-1.289.99-4.344 1-7-2.86.14-1.829 4.171-2 7-1.434-1.232-1.895-3.438-2-6-2.228 2.906 1.246 7.055-1 11-2.27-1.063-.381-6.286-1-9-1.357.31-.83 2.504-1 4-1.483-.85-2.15-2.517-2-5-3.783 1.166-1.243 17.403-3 4-.34-2.596-1.193-5.574 0-10-1.547 1.453-2.1 3.9-2 7-1.675 2.88-.796-5.109-1-7-2.397 3.442-.566 11.199 0 15-2.015-2.652-3.725-5.608-5-9-1.78.732-.145 1.818 0 3-1.19.145-5.12-5.512-5-10-3.026 2.449.758 6.509 0 10-2.029-.638-.658-4.675-3-5 .437 1.521-2.21 8.598 1 10-6.001-1.827-.077-9.311-6-16-.523 2.451-.984 4.892-2 9-2.384-2.764 1.931-9.27-1-13-1.292 2.708-3.473 4.527-4 8-3.301-2.406 1.273-5.314 2-7-3.2-1.927-.273-4.182-3-7-1.656 1.011-1.086 4.247-2 6-2.538-1.795.612-9.279-3-10-.973.027-.776 1.224-1 2 .19 1.135 1.003.555 1 0 3.045-.021-1.983 10.017-1 11-.991-.991-.433-7.465 0-8-5.046 6.232.608 14.809-2 0 .318-2.348 1.58-3.754 1-7-2.168-.168-.453 3.547-1 5-3.52-1.957-.732-5.018-1-9-1.759.241-2.279 1.721-2 4-2.966-2.762 1.931-7.203-2-9-1.531 2.064-.656 5.748 0 10-.84 3.177-1.319-1.775-1-3-1.068 16.736-3.001-4.519 0-12-2.555.111-1.984 3.349-2 6-3.298-.577-1.434-3.776-1-6-3.1 3.18-3.12-1.439-4 2-2.965.905 2.751-4.676 1-9-3.398 6.131-.964-1.862 0-5-2.571 1.762-3.542 5.125-3 10-4.424-2.734.755-9.753-2-13 .443-1.453.878.102 2 0-.686-3.275-1.125-10.984-2-3-1.983 2.571-.637-4.951 0-6-2.638-.305-2.579 2.088-3 4-3.038-1.232 1.084-3.438 0-6-3.52 4.143-.732-1.469-1-5-.934.732-1.515 1.818-2 3-1.925-1.51 3.801-12.015 5-17-5.248 1.789-7.775 23.887-6 7-2.151-.849-2.318-3.682-2-7-.973.027-.776 1.224-1 2-3.266-2.688 1.677-5.59 2-8-.354-1.567-1.761.875-2-1-3.038 8.439-2.852 8.626-2-2 .81.19.997 1.003 2 1-.723-3.056 1.022-3.645 1-6-3.556 5.273-.351-5.266 0-8-2.948 3.052-4.48 7.52-4 14-6.602-2.731-3.419-15.248-5-23-4.259 5.883-.528 7.78-2 16-3.447-3.286-.229-13.398-2-22-1.484 1.849-1.916 4.751-2 8 .973-.027.776-1.224 1-2 .973.027.776 1.224 1 2v2c-.805-.529-1.623-1.043-3-1 .563-4.563-1.772-6.228-1-11 3.084 7.757 1.475-1.375 0-5-2.288 1.712-.367 7.633-1 11 .108 5.39-2.717-9.11-4-12-2.037 1.402.982 3.445-1 6-2.236-.431-.405-4.928-1-7-2.63 4.422 1.061 9.008-1 14 3.781-8.022-.291 1.763 2 5-3.858-2.82-6.816-15.176-13-19 2.469-4.226-2.762-7.481 0-12-5.589 4.818 1.759 17.827 3 19 2.995.658-.956 2.138 0 4-4.114-9.886-8.63-19.37-12-30-1.633 5.942 13.262 34.869 2 12 3.275 12.55 3.664 18.731-1 6-1.812-4.946-1.99-11.194-3-16-1.593 3.074-1.148 8.185-3 11 2.271-4.05 2.375 5.445 5 9-2.73 2.437-3.987-2.663-6-4 .622-1.828 4.178 1.728 4 4 1.137-5.826-9.693-13.617-7-21-1.464-.131-3.039-1.901-3-6-2.891 7.907 4.23 14.425 6 21-1.975-.691-2.666-2.668-3-5-1.357.31-.83 2.504-1 4 .457 2.088-3.194-7.808-5-10-3.022 2.766 2.383 5.561 2 9-3.708-4.959-5.943-11.39-9-17-1.172.161-.844 1.823-1 3-1.983 2.571-.637-4.951 0-6-1.598 2.9-2.555 1.191-3-2-2.964 1.453 1.317 3.9 0 7-3.357-2.565-3.037-6.526-2-10-3.316.351-1.569 5.764-2 9-2.046 2.939.046-6.633-2-7-.6 2.451-3.37 6.634-4 1 2.78 2.538 2.226-5.229 1-8-1.698 2.302-.677 7.323-3 9-2.812-7.405-3.749-6.441-2-13-3.261.739-3.008 4.992-4 8-1.233-2.94.806-8.581-2-12-2.934.85 1.301 2.517 0 5-1.483-.85-2.15-2.517-2-5-1.342.202-1.862 4.153-2 0-2.815 1.011.276 4.247 0 6-5.307-.237-.771-4.101-3-7-.243-1.408-4.977.929-4-4-2.035.965-2.16 3.84-2 7-1.378 3.184-.99-3.533-1-5-.732-.934-1.818-1.515-3-2 .445 3.222 1.916 5.418 2 9-2.887-3.446-2.407-10.26-8-11 .834-7.834-4.087-9.913-4-17-2.206 6.746-3.381 10.292-3-1-2.847 3.683-.154 7.004-2 12-2.676-4.991-1.949-13.384-4-19-.644 1.008-.606 3.442-1 7-1.229.837-2.017-7.273-2-11-3.008-1.008-1.772 2.228-2 4-2.501-2.832-3.969-6.698-5-11-2.356 6.682-5.784-1.669-8-4-16.591.076-34.069-.736-48 2 1.404 2.929 2.689 5.978 2 11 7.308 2.415 10.837 14.507 6 23-6.995.107-9.969 1.39-12 8-2.929.511-5.638-3.176-5 2-9.199-.403-16.368 4.569-23-3 3.252-5.479 1.784-13.854-2-18-12.528.059-28.944 12.757-29-7 2.276-1.391 3.874-3.459 6-5-1.283-.389-5.991-.643-6-5-1.604 4.299-4.38 1.481-4 7-1.167-1.5-2.888-2.445-3-5-2.503-.169-3.13 1.536-4 3-1.699-4.344-5.539-3.316-7-6-1.357.31-.83 2.504-1 4-5.077-1.725-6.806 1.462-10 4-5.631-3.381-12.755 3.897-17 8 .138 1.862.658 3.342 2 4-4.602.397-7.093 2.907-10 5-.58 3.246.681 4.652 1 7 13.268 2.399 15.277 16.056 18 29-3.16-3.249-.371 2.982-4 2 4.066-3.709-3.374-3.508-5-5-4.5-4.13-2.198-17.897-13-17-12.973 17.261 1.166 55.23-14 71-10.787-19.089 7.27-46.602-3-69-9.709 3.209-17.396 15.088-15 26 1.6 7.285 13.032 10.493 13 18-5.743-.342-6.329-5.211-8-7-.06-.064-2.164 1.066-3 0-12.466-15.883-1.943-25.316 2-45-.299-2.7-4.207-1.793-5-4-8.125 4.491 1.26 17.812-4 26-10.457-.467-6.875-18.624-7-28 3.465-1.535 4.959-5.041 10-5 2.334-1.666 2.568-5.432 4-8-4.508-3.348-7.838-2.344-15-2 .409-2.409-1.826-2.174-1-5-2.615 1.052-3.271 4.063-3 8-8.681-16.272 17.497-19.065 26-14 2.8-2.2 4.105-5.895 7-8-9.583-1.412-19.099-.119-28 2-.282-1.615.945-1.722 1-3-2.503-.169-3.13 1.536-4 3-1.172-.162-.844-1.823-1-3-1.44.56-2.44 1.56-3 3-1.172-.162-.844-1.823-1-3-3.396 5.096-5.043 3.669-7 7-.934-.733-1.515-1.818-2-3-1.559 5.462-1.793.83-4 4-1.172-.162-.843-1.823-1-3-1.172.162-.843 1.823-1 3-.973-.027-.776-1.224-1-2-1.172.162-.843 1.823-1 3-1.264-1.403-5.276-.057-4-4-1.486.932-1.611 7.202-2 1-1.434 1.182-1.895 5.305-2 0-.945 2.055-5.152.848-5 4-8.073-3.004-20.894.15-19 13 3.793 5.095 15.977 4.649 18-1 2.521 10.49-14.021 5.239-20 7 .396 6.271 6.326 7.008 9 11 4.457-1.166 8.438-2.941 11 1 1.357-.31.83-2.504 1-4 9.538 13.736-17.167 15.04-20 5-1.731.905-2.762 3.682 0 4-5.958 3.511-11.614-4.136-9-13-3.033-3.634-8.044-5.289-11-9v-6zm419-48c.236-2.764 5.642-.358 5-4-2.084.328-8.175 1.719-5 4zm122 125c1.084 1.973 2.368 8.889 5 6-1.705-.41.21-1.289 0-3-3.328.346-.521-6.579-4-4 1.122.211 1.557 1.109 2 2-1.377.043-2.195-.47-3-1zm-112 29c.802-2.582 2.245-9.688 0-12-.802 2.582-2.245 9.689 0 12zm-20-24c.368-5.271-.178-16.745-5-20 1.211 4.146 4.076 11.891 3 15-.138-1.862-.658-3.342-2-4-.09 4.423 1.449 7.217 4 9zm-10-21c.637 3.729 2.128 7.2 2 9-.286-1.125 4.709.063 2-2-.057.61-.149 1.184-1 1-.711-2.955-.275-7.058-3-8zm-3-3c.378-3.044-3.635-1.698-4-4 .254 3.746 1.569 6.431 4 8-.855-2.332 3.497-4.309 1-5-.057.611-.149 1.184-1 1zm-26-13c1.115.979 3.436 5.771 1 7-.816-3.222-1.753-11.529-4-10 .097 1.827 1.719 6.514 3 10 4.11-1.281 6.195 9.418 10 8-7.125-5.439-1.683-11.065-8-20-.072 4.11 4.313 8.969 2 12-1.381-1.985-3.926-16.013-4-7zm-357-38c1.522-3.478 1.656-8.345 3-12-5.833-.856-6.492 9.597-3 12zm509 18c8.516 10.4-2.789-7.027-5-2 3.078-.745 1.922 2.746 5 2zm3 5c-3.556.078-5.949-7.735-8-3 3.471-.414 5.549 5.708 8 3zm-159 15c-1.559-3.892-2.732-7.234-3-10-.224.776-.027 1.973-1 2-.156-1.177.172-2.839-1-3 .341 4.993 2.398 8.269 5 11zm19 17c.356-3.571 2.945-10.671-2-13 1.404 2.777-1.146 6.535 2 3 .369 4.949-3.919 6.532 0 10zm58 75c.269-3.875.025-9.238-1-14-.713 3.929-1.302 9.028 1 14zm89 41c-.347-2.759 2.871-7.022 0-9 1.333 4.423-4.701 7.217 0 9zm-10 14c-.564-3.621 2.968-8.289 0-11-.692 2.365-2.312 8.946 0 11z" fill-rule="evenodd"/></svg>