<svg xmlns="http://www.w3.org/2000/svg" xmlns:dc="http://dublincore.org/documents/dcmi-terms/" height="400" version="1.2" viewBox="0 0 550 400" width="550"><metadata><dc:description>Silhouette of Deinotherium giganteum, processed by PhyloPic Tools (https://github.com/eweitz/phylopic-tools)</dc:description><dc:source>http://phylopic.org/image/fa5ea32e-55b7-476a-a530-898d125ab0ac</dc:source><dc:creator>Dmitry Bogdanov</dc:creator><dc:license>http://creativecommons.org/licenses/by/3.0/</dc:license></metadata><path d="M161.25 338.55l-.4.45c.066-.1.15-.2.25-.3l.15-.15zM478.9 67.9c-.134.033-.25.05-.351.05v-.05l.351-.05v.05zm8.4 9.35c.967 1.933 2.584 4.5 4.851 7.7 1.1 1.6 2.166 3.117 3.199 4.55.301.733.717 1.517 1.25 2.35.5.9.834 1.367 1 1.4.134.867.317 1.617.551 2.25.333 1 1.267 3.367 2.8 7.1.033.633.2 1.65.5 3.05.166.667.416 1.7.75 3.1a58.94 58.94 0 0 1 1.6 9.6c.167 1.6.25 3.417.25 5.45a59.29 59.29 0 0 1-.1 3.75c-.033.534-.233 3.684-.601 9.45l-.399 5.9c-.233 1.067-.7 3.167-1.4 6.3-.5 2.333-1.149 5.733-1.95 10.2-.1.434-.449 1.617-1.05 3.55-.6 1.966-1 3.466-1.2 4.5-.1.466-.333 1.9-.699 4.3-.334 1.967-.551 3.067-.65 3.3-.134.233-.316.617-.55 1.15-.233.6-.367.966-.4 1.1-.3 2.133-.5 3.784-.6 4.95-.134 1.433-.2 2.95-.2 4.55v1.65c.167.066.583.55 1.25 1.45.767 1 1.2 1.55 1.3 1.65.3.333.483.883.55 1.65.134 1.433.233 2.4.301 2.9-.367.467-.667.8-.9 1-.3.233-.6.35-.9.35-.366 0-.767-.15-1.199-.45a4.19 4.19 0 0 0-1.65-.65c-.167-.033-.366-.133-.6-.3a46.985 46.985 0 0 0-.801-.55c-.733-.5-1.583-.75-2.55-.75-.7.067-1.083.1-1.149.1l-.601-.2c-.366-.167-.666-.25-.899-.25-.367 0-.733.033-1.101.1-.5.067-.85.183-1.05.35-.267.2-.667.566-1.2 1.1-.5.5-.95.883-1.35 1.15l-.4.2c-.3.1-.5.2-.6.3-.101.1-.283.367-.55.8-.2.267-.45.483-.75.65-.4.267-.867.5-1.4.7-.667.267-1.167.4-1.5.4-.233 0-.467-.117-.7-.351-.2-.267-.3-.533-.3-.8 0-.033.167-.783.5-2.25.1-.467.167-1.067.2-1.8.033-.5.05-.983.05-1.45 0-.867-.083-1.867-.25-3-.167-1-.3-1.583-.4-1.75a5.563 5.563 0 0 1-.25-.3c-.133-.133-.199-.217-.199-.25a209.647 209.647 0 0 0-.15-3.1c-.033-1.033-.05-2.133-.05-3.3 0-1 .066-2.5.2-4.5.166-1.833.25-2.783.25-2.85 0-.034-.017-.15-.051-.35-.033-.2-.05-.333-.05-.4 0-.6.101-1.217.3-1.85.101-.267.233-.6.4-1-.134-.1-.233-.283-.3-.55-.033-.2-.05-.4-.05-.6 0-.267.183-.867.55-1.8.366-.933.55-1.767.55-2.5l-.05-.7c-.066-.434-.101-.7-.101-.8 0-.2.051-.45.15-.75.1-.233.184-.383.25-.45.134-.2.267-.383.4-.55l.199-.2c.601-2.233 1.017-4.2 1.25-5.9.101-.833.2-2.183.301-4.05h-.101v-.95h.101a.559.559 0 0 1 .05-.4c.033-.132.066-.199.1-.2h-.149v-1h.149c-.033-.034-.116-.35-.25-.95-.166-.567-.25-.933-.25-1.1h-.05l-.1-1.1a43.427 43.427 0 0 0-.301-3.65c-.233-2.1-.366-3.267-.399-3.5h-.05a9.57 9.57 0 0 0-.101-.6 8.97 8.97 0 0 1-.1-.6c.033 0 .066-.017.1-.05v-.1c.033-.9-.217-2.417-.75-4.55-.633-2.433-1.35-4.25-2.149-5.45-.967-1.433-1.467-2.167-1.5-2.2a.338.338 0 0 0-.25-.1.682.682 0 0 1-.45.05c.033-.167-.783-1.216-2.45-3.15-1.733-2-2.967-3.3-3.7-3.9-.533-.433-1.1-.9-1.7-1.4-1.199-.967-2.133-1.667-2.8-2.1-1.434-.933-2.399-1.55-2.899-1.85l-.601.05c-.2 0-.633-.05-1.3-.15l-.9-.1h-.1c0 .1-.017.566-.05 1.4-.033.633-.084 1-.15 1.1-.066.233-.217.533-.45.9-.166.3-.25.5-.25.6 0 .033.017.066.051.1 0 .034.033.083.1.15v.35c0 .1-.017.2-.05.3l-.2.2h-.05c.166 3.534.283 6.267.35 8.2.066 1.867.101 4 .101 6.4v4.35c-.034 2.567-.134 4.017-.301 4.35-.066.133-.199.617-.399 1.45a134.152 134.152 0 0 0-.9 3.9c-.467 2.133-1.3 5.167-2.5 9.1-1.233 4-2.233 6.867-3 8.6-.3.1-.649.467-1.05 1.1-.366.7-.566 1.1-.6 1.2-.4.7-.733 1.367-1 2-.167.4-.284.633-.351.7-.333.233-.6.4-.8.5-.233.1-.434.15-.6.15-.634 0-.95-.633-.95-1.9.066-.433.133-.917.2-1.45.133-1.034.216-1.8.25-2.3 0-.333.017-.816.05-1.45v-1h-.05l-.051-1.2c-.033 0-.066.017-.1.05-.467.667-1.2 1.917-2.2 3.75-1.133 2.067-2.066 3.883-2.8 5.45l-1 .5c-.6.333-1.167.483-1.7.45 0-.267-.017-.75-.05-1.45a30.58 30.58 0 0 1-.05-1.5c0-1.933.1-3.783.3-5.55.134-1.067.366-2.517.7-4.35.333-1.9.566-3.367.7-4.4.233-1.733.35-3.55.35-5.45 0-2.467-.2-4.933-.6-7.4-.434-2.567-1-4.583-1.7-6.05-.2.034-.334.05-.4.05-.7 0-1.3-.317-1.8-.95-.167-.2-.316-.45-.45-.75-.166-.3-.267-.483-.3-.55-.3-.567-.684-1.133-1.15-1.7-.3-.433-.716-.967-1.25-1.6-.033-.033-.083-.25-.149-.65-.066-.6-.134-1.033-.2-1.3l-.4-1.8c-.533-1.933-.883-3.066-1.05-3.4a3.984 3.984 0 0 0-.6-.85l-1.101-1.1c-.267-.233-.949-.633-2.05-1.2-1.267-.633-2.2-.95-2.8-.95a2.611 2.611 0 0 1-.55.4c-.434.267-.867.367-1.3.3v.05c-.034 0-.317.117-.851.35-.866.333-1.7.667-2.5 1-.8.367-1.866.867-3.2 1.5l.051.3c0 .2-.084.367-.25.5-.233.133-.65.25-1.25.35-1.167.2-2.45.467-3.851.8-1.5.367-2.383.65-2.649.85-.967.767-2.301 1.483-4 2.15a25.248 25.248 0 0 1-3.95 1.2c-.066 0-.417.117-1.05.35-.867.267-1.617.5-2.25.7-2.434.7-4.684 1.1-6.75 1.2v.2c-.2-.067-.517-.133-.95-.2-.601-.1-1.05-.15-1.351-.15-.899 0-1.699.167-2.399.5-1.167.633-2.4 1.25-3.7 1.85-1.434.6-3.134 1.517-5.1 2.75-2.233 1.433-4.167 2.85-5.801 4.25-1.233.267-2.267.75-3.1 1.45l-.8.8c-.3.267-.517.45-.65.55-.2.1-.383.2-.55.3-.333.2-.616.35-.85.45-.034.233-.067.4-.101.5a3.279 3.279 0 0 0-.25.4c-.133.233-.366.5-.7.8-.199.167-1.716 1.417-4.55 3.75-.033.233-.133.55-.3.95-.167.4-.25.633-.25.7-.066 3.567-.267 7.05-.6 10.45-.967 11.167-1.45 16.983-1.45 17.45 0 .9-.117 1.867-.351 2.9-.133.667-.483 2.1-1.05 4.3-1.666 6.233-3.283 13.117-4.85 20.65-.101.3-.55 1.5-1.351 3.6a65.68 65.68 0 0 0-2.1 6.4c-.767 2.899-1.167 4.433-1.2 4.6-.066.333-.25.884-.55 1.65a17.7 17.7 0 0 0-.45 1.199 12.71 12.71 0 0 0-.649 2c-.233 1.034-.483 2.384-.75 4.051a168.436 168.436 0 0 0-1.9 23.949c0 .334-.116 3.983-.35 10.95-.2 6.9-.301 10.7-.301 11.4 0 2.467.334 6.267 1 11.399a246.2 246.2 0 0 0 1.65 11.051c.066.333.3 1 .7 2 .533 1.3 1.05 2.267 1.55 2.899.333.434.517.733.55.9.033.166.2.8.5 1.899.134.5.351 1.017.65 1.551.166.333.25.733.25 1.199 0 .134.133.483.399 1.051.267.566.483.866.65.899.1.967.217 1.7.35 2.2.034.1.15.384.351.85.267.567.399 2.034.399 4.4 0 1.667-.05 3.083-.149 4.25-.066.7-.184 2.017-.351 3.95.067.467-.017.967-.25 1.5-.133.3-.416.767-.85 1.399-.434.601-.733 1.084-.9 1.45a3.972 3.972 0 0 0-.3 1.75l.3 1.7h-.149c-.033.033-.05.066-.05.1 0 .167.149.567.449 1.2.267.566.467.917.601 1.05.133.2.217.367.25.5.033.167.05.4.05.7v.8c-.033.367-.1.65-.2.851 1.367 1.899 2.084 2.916 2.15 3.05.399.8.666 1.467.8 2 .134.467.217 1.05.25 1.75 1.033 1.066 2.017 2.083 2.95 3.05 1.733 1.767 2.7 2.733 2.899 2.9.134.133.367.666.7 1.6.3.9.483 1.517.55 1.851.067.433.217.75.45.949.134.134.4.334.8.601.301.233.567.399.801.5.199.066.433.1.699.1.167 0 .317-.017.45-.05l.3-.15c.034.434.15.834.351 1.2.166.334.416.7.75 1.101.033.066.2.183.5.35.2.167.316.316.35.45.033.366.05.833.05 1.399.034.434.051.717.051.851l-.051 1.35-.05.05c-.666.4-1.25.801-1.75 1.2-.267.233-.583.517-.95.851-.267.267-.55.466-.85.6-.333.134-.816.25-1.45.35-2.8.4-4.383.601-4.75.601.066.033.05.066-.05.1s-.233.05-.4.05c-.3 0-.517-.05-.649-.149a17.779 17.779 0 0 0-4 .05c-1.267.167-2.033.4-2.3.7-.5.267-1.601.517-3.301.75-1.566.2-3.017.3-4.35.3-1.1 0-2.066-.05-2.9-.15-.466-.066-1.25-.216-2.35-.449-2.533-.5-5.517-.884-8.95-1.15-1.666-.1-2.533-.184-2.6-.25 0-.066-.017-.116-.05-.15-.034-.066-.184-.149-.45-.25-.867-.3-1.316-.449-1.351-.449-.1 0-.233.033-.399.1-.233.1-.4.2-.5.3-.134-.133-.517-.399-1.15-.8-.633-.4-1.033-.634-1.2-.7l-.5-.149-.899-1.801c.033-.166.066-.316.1-.449.066-.334.101-.601.101-.801 0-.066-.051-.399-.15-1l-.15-.899c0-.167.034-.434.101-.8.066-.301.1-.467.1-.5a8.417 8.417 0 0 1-.05-.7c0-.2.083-.434.25-.7.267-.6.45-1.033.55-1.3.066-.167.101-.334.101-.5 0-.2.05-.367.149-.5.066-.167.15-.25.25-.25 0-.167.05-.351.15-.55.166-.233.267-.4.3-.5a2.65 2.65 0 0 1 .15-.65c.1-.333.35-.8.75-1.4.733-1.066 1.35-2.433 1.85-4.1.434-1.366.717-2.634.85-3.8l.101-.05-.05-4.25h-.052c-.033-.4-.05-.801-.05-1.2-.033-.3-.166-.601-.399-.9a3.554 3.554 0 0 0-.5-.5c-.567-.333-.884-.566-.95-.7a15.696 15.696 0 0 0-.4-.949c-.366-.667-.983-1.367-1.85-2.101-.233-.2-.8-.633-1.7-1.3-.967-1.833-1.95-4.8-2.95-8.9-.967-4.133-1.483-7.583-1.55-10.35h.05c-.033-2.9-.316-5.917-.85-9.05-.5-2.867-1.101-5.334-1.8-7.4-.101-.3-.517-1.333-1.25-3.1-.7-1.667-1.051-2.517-1.051-2.55-.033-.4-.283-1.067-.75-2-.466-.867-.699-1.317-.699-1.351-.334.033-.7-.05-1.101-.25-.366-.166-.6-.35-.7-.55l-1.449-4.3c-.467-1.066-.95-2.15-1.45-3.25-.934-2.167-1.434-3.283-1.5-3.351l.05.351v.1h-.05c-.066 0-.184-.116-.351-.35.067 0 .117-.017.15-.05.066-.034.083-.101.05-.2h.05c0-.101-.199-.584-.6-1.45-.434-.934-.767-1.6-1-2a29.445 29.445 0 0 0-.95-1.55l-.3-.4v-.3c.033-.267.017-.634-.05-1.1-.033 0-.066-.017-.101-.051 0-.033-.05-.133-.149-.3a12.598 12.598 0 0 0-.5-.6l-.351-.351-.199-1.951c0-.367-.034-.634-.101-.801a3.218 3.218 0 0 0-.25-.5c-.399-.666-.783-1.716-1.149-3.149a7.61 7.61 0 0 1-.301-1.7c-.033-.366-.116-.634-.25-.8 0-.033-.116-.384-.35-1.05-.233-.7-.434-1.267-.6-1.7-.167-.533-.384-1.566-.65-3.101-.333-1.566-.517-2.683-.55-3.35v.7c.033.1.033.217 0 .35-.033.134-.066.217-.101.25-.033-.1-.066-.416-.1-.95v-.35h.1l.051-.4c-.667.767-1.117 2-1.351 3.7-.166 1.167-.25 2.717-.25 4.65 0 .166-.017.533-.05 1.1 0 .8-.017 1.483-.05 2.05l-.05.75c-.2.034-.351.117-.45.25a.479.479 0 0 0-.15.351c0 .066.066.233.2.5.1.267.15.434.15.5 0 .233-.067.75-.2 1.55-.167.8-.25 1.384-.25 1.75l.35 2.8c0 .334-.1.783-.3 1.351-.1.267-.233.449-.4.55-.1.1-.149.184-.149.25 0 .1.05.6.149 1.5.101.899.15 1.616.15 2.149 0 .467-.05 1.267-.15 2.4-.1 1.134-.149 1.833-.149 2.1l.2.4c.166.3.25.483.25.55.133.667.199 1.684.199 3.05 0 .434-.05 1.684-.149 3.75h-.15c.233 2.167.367 4.417.4 6.75.033 1.334.066 3.233.1 5.7.066 2.2.233 4.316.5 6.351.367 2.566.95 5.449 1.75 8.649h.05c-.133.867-.05 1.851.25 2.95.134.634.5 1.767 1.101 3.4.633 1.733 1.116 3.183 1.45 4.35a37.98 37.98 0 0 1 1.149 5.8h.05c-.166 2.101-.25 3.167-.25 3.2v.95c.067.066.117.184.15.35v2.151c0 .633-.017 1.133-.05 1.5 0 .033-.033.366-.101 1-.033.233-.133.566-.3 1-.133.399-.2.7-.2.899 0 .101.134.4.4.9.233.467.35.85.35 1.15 0 .566-.166 1.267-.5 2.1-.3.8-.449 1.233-.449 1.3 0 .4.1.851.3 1.351.1.3.283.733.55 1.3l.3.6c.167.3.267.517.3.65.101.166.417.649.95 1.45.5.767.834 1.25 1 1.449.167.2.334.45.5.75.134.301.217.467.25.5.134.167.316.334.55.5.167.101.301.317.4.65.2.733.333 1.15.4 1.25.1.233.3.384.6.45.4.066.733.217 1 .45.134.1.25.25.35.449.067.101.15.267.25.5.233.467.65.817 1.25 1.051.101.033.351.1.75.199.367.134.584.334.65.601.066.133.167.267.3.399.2.167.434.25.7.25.2 0 .366.067.5.2.1.066.333.267.7.601.1.066.283.166.55.3l.5.25c.533.533 1.167 1.434 1.9 2.7.733 1.266 1.183 2.25 1.35 2.949.066.4.217.884.45 1.45.267.601.55 1.117.85 1.55.233.367.483.917.75 1.65.233.634.367 1.05.4 1.25.133.1.2.2.2.3a.798.798 0 0 1-.051.2l-.05.2c0 .1.066.316.2.649.1.301.15.5.15.601 0 .267-.067.483-.2.649-.033.101-.25.367-.65.801 0 .033.033.083.101.149.033.066.05.117.05.15 0 .033-.05.083-.15.149-.066.034-.184.051-.35.051-.033.1-.167.199-.4.3-.333.133-.566.233-.7.3-.566.2-1 .366-1.3.5-.533.233-.816.35-.85.35-.066 0-.101-.017-.101-.05l.051-.05c-.2-.033-.367-.05-.5-.05-.134 0-.301.033-.5.1l-.301.15c0-.033-.017-.05-.05-.05a20.372 20.372 0 0 0-.3-.15c-.634-.267-1-.4-1.1-.4-.067 0-.2.051-.4.15-.233.134-.4.2-.5.2-.167 0-.35-.033-.55-.101-1.2.567-2.334 1-3.4 1.301-.333.1-.55.166-.649.199-.101.067-.15.184-.15.351 0 .133.05.283.15.45.066.166.149.333.25.5-.034.033-.167.25-.4.649-.267.367-.417.584-.45.65a1.165 1.165 0 0 1-.3.2c-.066.033-.316.133-.75.3-.4.133-.767.316-1.1.55-.301.2-.467.3-.5.3-.767.066-1.184.101-1.25.101-.834 0-1.467-.084-1.9-.25-.2-.067-.65-.301-1.35-.7-.634-.334-1-.5-1.101-.5-.434 0-1.383.1-2.85.3-1.733.267-2.851.417-3.351.45-.033.533-.35 1.133-.949 1.8a5.708 5.708 0 0 1-2.551 1.5c0-.033-.166-.05-.5-.05-.399.033-.683.05-.85.05-.267.033-.583.1-.95.2l-.5.149c-1.667-.833-2.917-1.666-3.75-2.5-.3-.399-.566-.699-.8-.899-.367-.3-.933-.417-1.7-.351-.5.034-1.15 0-1.95-.1-1.3-.134-1.967-.2-2-.2-.9-.1-1.65-.166-2.25-.2-1.167-.1-1.833-.149-2-.149-1 .133-2-.316-3-1.351-.333-.333-.85-1.017-1.55-2.05-.466-.7-.933-1.816-1.4-3.35-.566-1.767-.85-3.316-.85-4.65 0-.066.083-.416.25-1.05.167-.7.25-1.1.25-1.2.133-.566.217-1.283.25-2.149.067-.801.083-1.233.05-1.301.1.034.316-1.05.65-3.25 0-.1-.05-.216-.15-.35a.811.811 0 0 1-.15-.5c.167-.167.333-.35.5-.55.333-.434.517-.816.55-1.15l-.1-.05v-.1c-.033-.034-.05-.067-.05-.101a.803.803 0 0 0 .2-.149c.1-.134.15-.334.15-.601h.05c.2-.066.483-.649.85-1.75.4-1.166.6-2.083.6-2.75 0-.2.066-.366.2-.5.233-.233.367-.383.4-.45.034-.1.083-.283.15-.55.066-.333.1-.583.1-.75 0-.033-.066-.184-.2-.45a8.566 8.566 0 0 0-.35-.85c0-.033-.083-.384-.25-1.05-.467-1.033-1.117-2.084-1.95-3.15-.767-.967-1.25-1.733-1.45-2.3-.667-1.5-1.317-3.333-1.95-5.5a98.279 98.279 0 0 1-2-8.2c-.6-2.7-1.066-4.967-1.4-6.8-.633-3.333-1.017-6.5-1.15-9.5h-.3c-.2-3.1-.417-5.483-.65-7.15-.066-.399-.583-1.6-1.55-3.6-.934-1.934-1.4-3.116-1.4-3.55-.034-.566-.3-1.65-.8-3.25-.6-1.767-1.167-3-1.7-3.7-.034.134-.217.55-.55 1.25-.333.767-.5 1.167-.5 1.2a1456.98 1456.98 0 0 0-2.5 7.95l-.45 1.25c-.333.966-.65 1.85-.95 2.649-1 2.467-1.5 3.733-1.5 3.8l.25 5c.167 3.4.25 5.334.25 5.801.067.199.1.533.1 1v.399l-.05.3h-.05c-.033.601-.083 1.417-.15 2.45a38.145 38.145 0 0 1-.25 2.851 49.75 49.75 0 0 1-.4 2.55c-.2 1-.3 1.583-.3 1.75.434 1.2.667 1.85.7 1.95.267 1.033.417 1.6.45 1.699.034 0 .784.5 2.25 1.5.7.5 1.35.917 1.95 1.25.033.034.4.483 1.1 1.351.767.899 1.45 1.434 2.05 1.6l1.5 4.75c-.033.334-.3.75-.8 1.25-.067.066-.533.267-1.4.601-.9.3-1.4.449-1.5.449-.467.034-.784.034-.95 0a6.752 6.752 0 0 0-.7-.149c-.4-.033-.65-.05-.75-.05-.9 0-1.85.166-2.85.5-.767.3-1.434.633-2 1-1.733 1.267-3.667 1.899-5.8 1.899-.733 0-1.55-.066-2.45-.2-1.633-.267-3.3-.517-5-.75-.034-.3-.15-.533-.35-.699-.167-.167-.417-.25-.75-.25-.1 0-.317.066-.65.199-.6.233-.983.384-1.15.45-1.233.467-2.533.7-3.9.7-1.066 0-2.367-.217-3.9-.65-1.267-.333-2.25-.666-2.95-1-.767-.366-1.283-.616-1.55-.75-.467-.233-.833-.466-1.1-.699-.6-.5-1.25-1.534-1.95-3.101.333 0 .583-.066.75-.2.1-.133.15-.316.15-.55 0-.066-.067-.333-.2-.8l-.2-.75c0-.134.083-.566.25-1.3.167-.767.25-1.351.25-1.75v-1.05h.1c.067-.334.333-.983.8-1.95 1.2-2.634 2.066-4.533 2.6-5.7l-.05-2.75c0-1.566.1-4.116.3-7.65l.35-5.199c0-.567.083-1.9.25-4 .233-2.367.467-4.284.7-5.75.267-1.4.483-2.584.65-3.551.333-1.899.5-3.083.5-3.55 0-.033-.066-.434-.2-1.2-.167-.733-.25-1.283-.25-1.649.133-1 .2-1.533.2-1.601-.3-.767-.45-1.233-.45-1.399 0-.167.066-.45.2-.851.167-.399.25-.633.25-.699 0-.034-.017-.051-.05-.051-.067-.033-.117-.1-.15-.199a1.172 1.172 0 0 1-.15-.45c-.033-.167-.05-.3-.05-.4l.25-1.45c0-.033-.017-.116-.05-.25-.034-.166-.067-.267-.1-.3a5.956 5.956 0 0 1-.05-.5l.2-1.1c0-1.667-.417-3.65-1.25-5.95-.267-.767-.6-1.616-1-2.55-.4-.9-.667-1.483-.8-1.75-.167-.4-.5-.851-1-1.351a178.588 178.588 0 0 1-2.5-2.55c-.467-.533-1.184-1.483-2.15-2.85-1-1.4-1.617-2.367-1.85-2.9l-.15.05c-.1.034-.2.051-.3.051-.1 0-.183-.067-.25-.2-.067-.134-.117-.351-.15-.65.1 0 .15-.033.15-.1v-.25l-.2-.75c-1.667.666-5.433 1.45-11.3 2.35-5.733.9-9.7 1.334-11.9 1.3.033.167-.017.367-.15.601l-.4.6c-.367.667-.483 1.483-.35 2.45h-.05c-1.1 2.1-2.25 4.733-3.45 7.9-1.067 2.833-1.767 4.933-2.1 6.3a.803.803 0 0 1 .2.149c.034.067.05.117.05.15a.393.393 0 0 1-.05.15c-.066.133-.133.216-.2.25-.033.333-.15.75-.35 1.25l-.5 1.25c-.1.433-.217.966-.35 1.6-.066.6-.1 1.017-.1 1.25 0 .1-.033.233-.1.4-.034.199-.083.35-.15.449 0 .134-.466 2.4-1.4 6.801-.9 4.633-1.367 7.633-1.4 9 0 .633-.183 1.416-.55 2.35-.367.934-.55 1.45-.55 1.55 0 .334.083 1.4.25 3.2.2 1.833.3 3.15.3 3.95 0 1.233-.083 2.666-.25 4.3-.2 2.066-.467 3.816-.8 5.25a6.956 6.956 0 0 1-.45 1.2 67.164 67.164 0 0 0-.9 1.6c-.267.5-.45.884-.55 1.15-.333.733-.5 1.283-.5 1.649 0 .067.083.5.25 1.301.167.833.25 1.533.25 2.1h.1c1.6 1.267 2.95 2.533 4.05 3.8 1 1.167 1.583 1.767 1.75 1.8.067.034.167.034.3 0 .167-.033.4.034.7.2.067.033.333.283.8.75.533.533.917.9 1.15 1.101.133.1.4.25.8.449.333.2.5.384.5.551.267.333.4.533.4.6v.1H171c1.133 1.067 1.933 2.051 2.4 2.95.434.834.65 1.783.65 2.851 0 .767-.066 1.3-.2 1.6-.1.233-.25.384-.45.45-.7.233-1.066.35-1.1.35-.433.101-1.05.15-1.85.15v.149l-.05.101c-.033.066-.066.1-.1.1a.62.62 0 0 1-.45-.2c-.167.034-.65.334-1.45.9-.833.566-1.433.917-1.8 1.05-.167.066-.95.3-2.35.7-1.4.366-2.133.55-2.2.55-1.3.167-2.183.316-2.65.45-.433.134-1.083.45-1.95.95-.833.467-1.6.783-2.3.95-.566.133-1.267.199-2.1.199-1.133 0-2.117-.133-2.95-.399-1.233-.367-2.167-.617-2.8-.75-.033 0-.6-.066-1.7-.2-1.067-.1-1.633-.167-1.7-.2-.5-.1-1.017-.267-1.55-.5-.434-.2-.783-.3-1.05-.3-.066 0-.367.083-.9.25-.233.066-.467.15-.7.25-.067.033-.25.167-.55.4l-.4.399c-.367 0-1.183-.083-2.45-.25-1.367-.166-2.2-.25-2.5-.25 0-.3-.083-.583-.25-.85-.2-.367-.533-.617-1-.75a1.385 1.385 0 0 1-.65.5c-.3.1-.6.149-.9.149-.1 0-.35-.033-.75-.1-.467-.1-.783-.184-.95-.25l-.05.2c.067.1.167.2.3.3a.615.615 0 0 0 .15.1c.066.034.1.067.1.101a7.79 7.79 0 0 1-.5-.2c-.1 0-.417-.283-.95-.85-.533-.5-.85-.817-.95-.95a7.53 7.53 0 0 1-.55-1.351c-.067 0-.217-.1-.45-.3-.667-.533-1-.833-1-.899.1-.733.15-1.15.15-1.25 0-.367-.05-.717-.15-1.051a4.835 4.835 0 0 0-.25-.75c-.167-.3-.25-.466-.25-.5 0-.133.1-.316.3-.55.267-.267.45-.517.55-.75.1-.233.167-.533.2-.899a6.14 6.14 0 0 0 .05-.75 6.14 6.14 0 0 0-.05-.75 5.48 5.48 0 0 0-.25-1c.733-1.367 1.316-2.184 1.75-2.45.133-.066.2-.117.2-.15v-.649c0-.134-.083-.334-.25-.601-.2-.3-.3-.483-.3-.55.4-.066.733-.333 1-.8.167-.334.25-.667.25-1 0-.066.2-.434.6-1.101.433-.699.7-1.066.8-1.1.033-.1.233-.75.6-1.95.3-1 .467-1.517.5-1.55-.5-1.3-.9-2.967-1.2-5-.233-1.5-.35-2.717-.35-3.65.1-.433.233-.783.4-1.05.1-.166.15-.416.15-.75-.067-.533-.133-.866-.2-1l-.15-.3-.1-.15c0-.8.167-1.666.5-2.6.033-.134.383-1.017 1.05-2.65.466-1.166.8-2.25 1-3.25.333-1.366.5-2.816.5-4.35 0-.434.167-1.1.5-2 .3-.767.45-1.167.45-1.2 0-.467-.017-1.25-.05-2.35-.067-1.066-.1-1.733-.1-2 0-1.533.05-2.967.15-4.3l.55-5.15h.05c-.067-.8-.083-1.4-.05-1.8 0-.5.1-.834.3-1-.167-.2-.3-.483-.4-.851a4.649 4.649 0 0 1-.05-.649c0-.233.05-.533.15-.9.066-.3.15-.55.25-.75h-.05a.783.783 0 0 1-.25-.6v-.25h.35c-.067-.134-.217-.3-.45-.5.233-.167.35-.4.35-.7 0-.066-.033-.217-.1-.45-.1-.233-.15-.383-.15-.45.033 0 .1-.05.2-.149.066-.033.1-.066.1-.101 0-.033-.017-.066-.05-.1a.876.876 0 0 0-.25-.25v-.6c0-.4.017-.717.05-.95.033-.066.1-.233.2-.5-.066.066-.2-1.384-.4-4.351l-.45-6.699c-.133 0-.233-.117-.3-.351-.1-.366-.183-.684-.25-.95-.333-1.133-1.05-2.199-2.15-3.199-.367-1.134-.75-2.934-1.15-5.4-.467-2.9-.684-5.467-.65-7.7h-.05c-.033-.5-.05-.783-.05-.85 0-.033.017-.084.05-.15l.05-.1h-.05c.033-2.267-.233-5.233-.8-8.9-.6-3.7-1.25-6.483-1.95-8.35 0 .166-.817 1.649-2.45 4.45-1.633 2.8-2.8 4.683-3.5 5.649-.033.033-.716 1.55-2.05 4.55-1.633 3.567-2.6 5.684-2.9 6.351.4.267.717.55.95.85.267.4.4.9.4 1.5 0 .066-.05.184-.15.351-.066.233-.133.483-.2.75l-.05.449c-.066.334-.1.584-.1.75-.2.067-.45.267-.75.601-.333.366-.5.684-.5.95 0 .033.033.116.1.25.067.233.167.517.3.85.1.2.167.483.2.85.034.267.05.467.05.601 0 .1-.05.583-.15 1.45 0 .033.133.199.4.5.267.366.4.633.4.8 0 .033-.067.184-.2.45-.133.366-.2.85-.2 1.449 0 .334.017.601.05.801.033.3.1.583.2.85 0 .033.083.2.25.5.133.333.2.55.2.65a1.588 1.588 0 0 0-.4-.301c-.233-.166-.667-.399-1.3-.699 0 .033.083.55.25 1.55 0 .033.1.25.3.649h-.05c.033.434.117 1.117.25 2.051.133.767.2 1.267.2 1.5 0 .066-.017.3-.05.699 0 .4-.017.667-.05.801h-.05l-.5-1.25c-.3-.834-.566-1.301-.8-1.4v.1c.066 0 .1.134.1.4.033.134.05.267.05.4v.3c0 .166-.033.383-.1.649-.066.334-.167.567-.3.7.033.733.033 2.167 0 4.3-.1-.233-.233-.616-.4-1.149-.167-.566-.267-.983-.3-1.25-.066.2-.133.416-.2.649-.067.267-.1.733-.1 1.4 0 .533.017.967.05 1.3 0 .2.033.684.1 1.45-.1-.566-.233-1.1-.4-1.6-.333-.967-.684-1.45-1.05-1.45-.233 0-.45.383-.65 1.149-.2.733-.3 1.434-.3 2.101 0 .366.033.767.1 1.2.033.366.117.833.25 1.399v.05h-.1c-.167-.066-.35-.267-.55-.6-.2-.366-.3-.733-.3-1.1-.433.166-.9.566-1.4 1.199-.4.534-.667 1-.8 1.4 0-.066-.117-.283-.35-.65-.233-.333-.35-.633-.35-.899.066-.7.15-1.117.25-1.25-.667-.334-1.067-.917-1.2-1.75-.066-.434-.117-.684-.15-.75-.067-.233-.217-.351-.45-.351-.1 0-.2.101-.3.301-.067.199-.15.566-.25 1.1h-.05c-.1-.033-.167-.2-.2-.5v-.75c-.067-.233-.183-.6-.35-1.1-.167-.434-.25-.667-.25-.7.033-.2.167-.533.4-1 .3-.601.45-1.45.45-2.55 0-.7-.05-1.233-.15-1.601-.067-.267-.233-.717-.5-1.35l-.3-.9c.167-.267.333-.55.5-.85.367-.566.55-1.017.55-1.351 0-.066-.05-.233-.15-.5-.133-.267-.2-.5-.2-.699 0-.101.067-.334.2-.7.133-.367.2-.617.2-.75 0-.434-.167-.684-.5-.75.1-.167.167-.417.2-.75l.05-.5-.05-.55c-.033-.134-.067-.217-.1-.25v-.101c0-.066.083-.166.25-.3a1.05 1.05 0 0 0 .35-.55c.033-.033.05-.167.05-.4.033-.267.05-.416.05-.45.033.067.45-.5 1.25-1.699.8-1.2 1.2-1.851 1.2-1.95 1.333-1.367 2.15-2.2 2.45-2.5.433-.434.667-.733.7-.9l1.15-3.149c.066-.134.45-1.117 1.15-2.95.066-.267.85-2.066 2.35-5.4 2.633-5.8 4.683-10.483 6.15-14.05 1.733-4.2 2.6-6.65 2.6-7.35 0-.067-.167-.434-.5-1.101-.167-.399-.267-.684-.3-.85-.133-.267-.2-.434-.2-.5 0-.033.05-.15.15-.351.1-.166.15-.267.15-.3 0-.133-.033-.316-.1-.55.1 0 .133-.033.1-.1l-.25-.45a2.94 2.94 0 0 1-.45-1.75c0-.4-.083-1.566-.25-3.5-.167-2-.25-3.05-.25-3.15.267-.5.434-.833.5-1 .133-.5.2-1.066.2-1.7 0-.1-.1-.783-.3-2.05 0-3.3.283-7.35.85-12.15.567-4.967 1.35-9.867 2.35-14.7.567-2.967 1.55-7.05 2.95-12.25 1.066-4 1.733-6.417 2-7.25.333-1 .633-2.05.9-3.15.267-1.167.467-2.017.6-2.55.467-1.867 1.2-3.717 2.2-5.55 2.034-3.8 4.567-7.633 7.6-11.5 2.9-3.7 5.617-6.684 8.15-8.95.967-.833 2.65-2.117 5.05-3.85 2.566-1.8 4.35-2.95 5.35-3.45.233-.1.733-.483 1.5-1.15.733-.633 1.133-1.017 1.2-1.15 3.3-2.233 6.817-5 10.55-8.3 3.4-3 6.15-5.667 8.25-8l1.15-1.35c.233-.3.917-.733 2.05-1.3.567-.3 1.717-.867 3.45-1.7 2.733-1.3 6.8-3.317 12.2-6.05 3.367-1.667 8.167-4.267 14.4-7.8 3.133-1.8 6.1-3.517 8.9-5.15 3.1-1.8 6.667-4.55 10.7-8.25 1.1-1 2.75-2.517 4.95-4.55 1.933-1.8 3.617-3.284 5.05-4.45 3.233-2.567 7.15-5.017 11.75-7.35 5-2.533 9.8-4.383 14.4-5.55.066.033.216.066.45.1.2.066.35.1.45.1.367 0 .833-.117 1.4-.35.6-.2.917-.317.95-.35v-.1c.133.033.333.05.6.05.233.034.384.05.45.05.1 0 .4-.033.9-.1V51.6c.466.033 1 0 1.6-.1.333-.067.733-.15 1.2-.25a.451.451 0 0 0 .2-.05c.033-.034.083-.05.149-.05.066 0 .2.033.4.1 4.166-.467 6.717-.75 7.649-.85v-.1h.95c.767-.066 2-.3 3.7-.7 1.866-.467 2.934-.717 3.2-.75v-.15c.3.066.55.1.75.1v.05a142.09 142.09 0 0 1 18.05-4c8.033-1.233 17.483-2 28.35-2.3v-.25c.101-.033.2 0 .301.1a.323.323 0 0 1 .149.15c2.967-.3 5.75-.45 8.351-.45 2.533 0 5.149.117 7.85.35 1.634.133 3.983.383 7.05.75 3.067.367 5.417.617 7.05.75 2.7.233 5.334.35 7.9.35 2.467 0 5.684-.15 9.65-.45 2.566-.167 6.267-.483 11.1-.95 5.2-.5 8.783-.816 10.75-.95 3.7-.3 6.566-.45 8.6-.45 4.334 0 8.4.3 12.2.9 4 .633 8.384 1.717 13.15 3.25 1.566.5 3.467 1.317 5.7 2.45 1.8.9 3.133 1.633 4 2.2.166.1 1.433 1 3.8 2.7a242.745 242.745 0 0 0 7.649 5.25c1.167.8 2.034 1.417 2.601 1.85.267.233.434.383.5.45l.6.9c.334.466.917 1.133 1.75 2 .267.3.967.867 2.101 1.7 1.066.833 1.616 1.267 1.649 1.3.033.066.101.267.2.6.167.3.4.5.7.6.033 0 .283.35.75 1.05.467.7.7 1.083.7 1.15.967.8 3.518 3.267 7.651 7.4z" fill-rule="evenodd"/></svg>