<svg xmlns="http://www.w3.org/2000/svg" xmlns:dc="http://dublincore.org/documents/dcmi-terms/" height="621.211" width="339.648"><metadata><dc:description>Silhouette of Deinacrida rugosa, processed by PhyloPic Tools (https://github.com/eweitz/phylopic-tools)</dc:description><dc:source>http://phylopic.org/image/289a4625-9b86-4b04-bda5-27ca88e3c02b</dc:source><dc:creator>Melissa Broussard</dc:creator><dc:license>http://creativecommons.org/licenses/by/3.0/</dc:license></metadata><path d="M112.911.004l-.826.355c-.09.82-.159 1.644-.237 2.46a167.315 167.315 0 0 0-.393 4.859c-.062.943-.131 1.878-.177 2.814-.024.494-.04.984-.06 1.475l-.019.492c-.022.604-.043 1.21-.059 1.81-.014.551-.01 1.105-.02 1.653-.015.953-.04 1.908-.039 2.853 0 .586.013 1.168.02 1.751.002.17-.002.342 0 .512.015 1.05.044 2.086.078 3.129.023.674.049 1.355.08 2.026.008.19.03.38.039.57.022.466.032.935.059 1.398a171.771 171.771 0 0 0 .374 5.076c.001.02-.003.04 0 .06.001.012-.003.025 0 .039.128 1.463.288 2.919.452 4.368.002.02-.002.04 0 .059.054.48.119.957.177 1.436.065.531.128 1.064.197 1.594.003.026-.003.053 0 .078.104.797.22 1.589.334 2.381.029.196.05.395.079.59a206.951 206.951 0 0 0 2.951 15.642c.011.047.03.092.04.139a253.706 253.706 0 0 0 3.227 12.514c.018.064.02.132.039.196 8.88 31.274 23.087 61.238 32.583 96.295.309 1.137.608 2.294.906 3.443 2.979 11.487 5.43 27.3 7.004 40.12l.67.294a.982.982 0 0 1-.453-.137c-.36.715-.252 1.553-.315 2.184.094.397.01 1.206.098 1.593-.108.45.256.829.236 1.358.093.11.138.247.158.394-1.052-.254-1.523 1.616-1.299 2.675.308 2.074.019.371.138 2.44 0 1.03.117 2.547.061 3.586-1.146.82-2.512 1.396-3.386 2.278-.01.01-.01.029-.02.04-.007.005-.013.012-.02.019-1.858-.539-3.985-.468-4.919 1.2-.713 1.12-.827 2.554-.118 3.7.151.308.353.605.59.884-2.664 4.243-4.57 8.815-5.745 12.2-.04.156-.077.328-.098.511-.32 2.738 1.586 8.252 8.146 10.468-.093.026-.183.05-.276.078-.052.016-.105.024-.157.04-.338.103-.688.218-1.023.334-.04.014-.08.026-.118.04-.028.01-.052.03-.08.04-.076.027-.158.05-.235.078-.026.009-.054.01-.079.02a24.65 24.65 0 0 0-2.46 1.062c-.046.023-.09.055-.137.079-.274.138-.538.262-.807.413-.306.171-.606.364-.905.55a19.694 19.694 0 0 0-1.751 1.22l-.079.06c-.197.156-.379.326-.57.492-.224.193-.453.384-.67.59-.087.083-.169.17-.255.256-.09.088-.168.185-.256.275-.058.06-.12.117-.177.177l-.04.04c-5.983-7.155-10.303-16.715-12.258-31.03l-1.24 2.382a7.26 7.26 0 0 0-.51-.354l-.1-.06c-.127-.079-.262-.146-.393-.216-.088-.047-.166-.095-.256-.138-.019-.009-.04-.01-.059-.02-.066-.03-.129-.068-.196-.098a7.593 7.593 0 0 0-1.771-.511c-.131-.022-.262-.044-.394-.06-.048-.942-.048-1.928.099-2.99.034-.246.07-.494.118-.748.01-.052.029-.105.04-.157.085-.434.184-.898.314-1.358.029-.102.067-.21.098-.315a20.693 20.693 0 0 1 .453-1.318l1.22-1.79-.492-.492-.67-.65c.018-.576.037-1.09.08-1.593.002-.014-.002-.026 0-.04.002-.025.017-.054.02-.078.008-.1.01-.2.019-.296.007-.072.012-.146.02-.216.14-1.285.358-2.346.61-3.306l.059-.216c.005-.02.014-.04.02-.06.004-.019.014-.039.019-.058.023-.082.036-.175.059-.256.021-.074.038-.143.059-.216.167-.57.358-1.12.531-1.673.165-.526.32-1.068.473-1.633.11-.41.219-.823.314-1.279l1.2-.256-1.121-.669 2.007-8.775 1.633-.748-1.436-.65.354-4.78c.392-.388.774-.722 1.16-1.18l.1-.119c.005-.007.013-.013.019-.02.087-.11.17-.226.256-.354l-.315-.078-1.24-.256.236-2.617a1.18 1.18 0 0 0 .414-.256c.122-.115.216-.258.314-.413.02-.031.04-.066.06-.099.003-.007.015-.012.02-.02l.019-.039c.145-.258.276-.551.413-.826l-.433.02-.826.02.413-2.716c.131-.223.264-.461.393-.708.002-.005-.002-.015 0-.02.194-.372.4-.772.59-1.18.198-.418.397-.862.591-1.3l-1.279.768v.02l-.177.098-.138-1.515c.019-.035.04-.082.06-.118.147-.28.327-.605.491-.905.218-.398.43-.777.67-1.2.047-.084.109-.171.157-.256.003-.005-.003-.014 0-.02.374-.66.764-1.34 1.16-2.026a8.584 8.584 0 0 0-.53.216c-.009.004-.013.016-.02.02-.16.072-.302.134-.453.216-.026.014-.053.025-.079.04-.132.075-.268.17-.393.255-.114.077-.227.151-.335.237-.047.037-.091.078-.138.118-.076.065-.143.146-.216.216l-.04.04c-.01.01-.029.01-.039.02-.062.062-.117.13-.177.196-.018.02-.04.038-.059.059-.012.014-.027.025-.04.04-.001.001-.016-.003-.019 0-.116.137-.211.296-.315.452-.044.066-.096.127-.138.197-.012.02-.027.038-.039.059-.01.017-.01.041-.02.059-.016.028-.043.05-.059.078-.037.069-.063.145-.098.217a.804.804 0 0 0-.02.04c-.067.14-.138.278-.197.432a5.98 5.98 0 0 0-.846-.433c-.002 0 .002-.019 0-.02-1.044-3.868.42-7.735-.905-10.133-.228-.446-.513-.434-.826-.216.75-2.753 1.226-5.223-.276-5.568a.892.892 0 0 0-.491-.158c.879-3.104 1.645-6.09-.02-6.473-.315-.209-.584-.206-.807-.079.491-5.593 1.312-12.519.67-13.694a3.932 3.932 0 0 0-.434-.866c1.209-1.181 2.468-2.784 3.148-.846.198-3.951-2.479-2.625-5.017-.453a1.834 1.834 0 0 0-.512.02c-2.05-1.083-5.054-4.561-5.273.157.703-2.03 2.099-.241 3.581 1.161a6.219 6.219 0 0 0-.55 1.082c.044 4.116 1.216 9.414 2.105 14.423-.846-.984-1.804-1.2-2.145.197-.257 1.322.773 3.534 1.732 5.706-.526-.2-.983.034-1.2.925-.24 1.234.655 3.243 1.554 5.273-.306-.266-.648-.35-1.023 0-1.075 1.002.498 5.832.216 9.484-.128.034-.243.06-.374.098-.08-.125-.17-.225-.256-.335-.02-.026-.038-.053-.059-.078-.065-.08-.128-.164-.196-.236a4.707 4.707 0 0 0-.138-.138c-.052-.05-.104-.09-.158-.138-.095-.084-.176-.16-.275-.236-.007-.006-.012-.014-.02-.02l-.078-.059c-.02-.014-.04-.025-.06-.04-.016-.011-.042-.007-.058-.019-.131-.091-.26-.192-.394-.275-.005-.003-.015.003-.02 0-.203-.126-.405-.254-.61-.374.073.318.156.596.237.866.383 1.34.823 2.172 1.298 2.695-3.438 27.236-.711 26.35-4.9 45.078-.717 3.674-.807 6.197-.393 7.811a5.685 5.685 0 0 0-.55.965c-.015.033-.026.065-.04.098-.024.059-.037.117-.059.177-.044.122-.083.25-.118.374-.009.034-.03.064-.04.098-.018.072-.024.144-.039.217-.027.13-.043.261-.059.393-.002.014-.018.026-.02.04-.006.058.005.118 0 .177-.003.053-.017.103-.02.157v.138c-.002.293.026.583.08.885.022.126.046.247.078.374.014.053.024.105.04.158l.61.767.157.197.157.196 1.26 1.594.02.02.786 1.023c.278.79.57 1.6.847 2.4.296.86.583 1.708.885 2.578a216.5 216.5 0 0 0 1.613 4.486c.032.085.067.17.099.256.18.483.363.972.55 1.456.136.348.275.695.414 1.043.12.302.25.603.374.905.26.633.53 1.257.806 1.889l.158.354c.014.032.025.066.04.098.028.065.05.133.078.197.299.666.623 1.325.944 1.987.031.064.048.134.08.197.27.556.556 1.12.845 1.673.125.238.246.47.374.708.175.323.35.642.531.964l.158.276c.004.008.015.011.02.02.218.383.419.759.649 1.14.024.04.054.078.078.118.211.35.43.697.65 1.043.15.237.297.473.452.709.138.209.272.421.413.63.019.027.04.05.06.078.202.298.418.59.629.885.127.18.263.354.394.532l.118.157c.009.012.01.028.02.04a49.517 49.517 0 0 0 3.679 4.446c-.186.465-.37.944-.551 1.437-.049.132-.09.259-.138.393l-.02.06c-.002.005.002.013 0 .019l-.059.157-.078.217a54.332 54.332 0 0 0-.63 1.928c-.01.033-.029.064-.04.098-.092.302-.186.595-.275.905-.02.073-.038.144-.059.217-.1.356-.2.715-.295 1.082-.015.06-.024.117-.04.177-.002.012.004.027 0 .04-.094.373-.186.756-.275 1.14-.01.047-.029.091-.04.138l-.098.453c-.028.13-.05.262-.078.393l-.04.177c-.015.075-.044.142-.059.217-.008.04-.012.078-.02.118-.086.435-.159.89-.236 1.338-.004.02-.016.038-.02.059-.008.052-.01.105-.019.157-.038.228-.083.458-.118.689-.002.006.002.013 0 .02-.008.052-.012.104-.02.157l-.02.138c-.04.28-.08.56-.118.846l-.059.452c-.002.02.002.04 0 .06v.02c-.005.04-.015.077-.02.117 0 .006.002.013 0 .02-.006.066-.011.13-.019.197-.002.013-.018.025-.02.039v.02c-.011.108-.007.224-.02.334l-.039.374c-.002.013.002.026 0 .04-.002.019.002.039 0 .058-.006.068-.033.13-.039.197-.004.04.004.079 0 .118l-.02.217-.02.196c-.014.182-.026.368-.039.551-.009.125-.031.248-.04.374-.001.026.003.053 0 .079-.003.058-.016.119-.019.177-.002.045.002.092 0 .138-.015.273-.029.549-.04.826-.001.053.003.105 0 .157v.02c-.002.084.003.171 0 .256a54.46 54.46 0 0 0-.019.807c-.003.197-.019.39-.02.59v.157c.002.007-.002.014 0 .02 0 1.274.06 2.584.158 3.935.024.333.048.667.079 1.004.002.026-.002.052 0 .078.013.151.024.301.039.453h.02c.03.31.042.61.078.925.074.63.16 1.283.256 1.928.227 1.514.537 3.063.905 4.663-2.174 2.43-7.06 6.426-6.158 13.163.285.656.582 1.241 1.023 1.555-.149.088-.305.166-.453.256-.14.116-.327.201-.472.314-.046.03-.091.05-.138.08-.003.033-.014.046-.02.078-.013.03-.015.061-.019.098-.009.042-.011.08-.02.118-.003.014-.017.027-.02.04-.008.034-.02.074-.019.098-.015.128.033.226.216.275.214.114.397.242.571.355-.174.07-.335.165-.492.255-.509-.433-1.04-.858-1.574-1.278l-.098-.08c-.199-.155-.389-.317-.59-.471a67.049 67.049 0 0 0-1.319-.984c-.173-.126-.356-.249-.531-.374-.163-.117-.327-.238-.492-.354a105.76 105.76 0 0 0-3.227-2.184c-.116-.076-.237-.16-.354-.236-.62-.401-1.263-.814-1.909-1.22-.004-.003-.015.003-.02 0-.253-.16-.529-.332-.786-.492-1.058-.66-2.14-1.32-3.267-2.007-5.764-3.519-11.822-7.841-17.905-9.917-.006-.002-.013.002-.02 0-.553-.189-1.099-.362-1.652-.511-.553-.15-1.1-.269-1.653-.374-.553-.106-1.1-.199-1.653-.256a16.523 16.523 0 0 0-3.305-.02 8.515 8.515 0 0 1-.67-.236c-.018-.008-.04-.011-.058-.02l-.138-.058c-.125-.054-.249-.12-.374-.178-.067-.03-.13-.067-.197-.098-.05-.024-.106-.035-.157-.059-.072-.034-.145-.064-.217-.098l-.452-.217c-.106-.05-.21-.11-.315-.157l-.138-.06c-.013-.005-.025-.013-.039-.019l-.138-.059a9.324 9.324 0 0 0-.708-.275c-.006-.002-.014.002-.02 0a5.837 5.837 0 0 0-.255-.079c-.07-.02-.147-.023-.217-.04l-.098-.019c-.048-.01-.09-.031-.138-.04-.052-.008-.105-.012-.157-.02-.146-.018-.289-.038-.433-.039-.266 0-.529.04-.787.119-.26.078-.517.197-.768.373l-.078.06a3.55 3.55 0 0 0-.453.413 6.531 6.531 0 0 0-.689.039 5.837 5.837 0 0 0-.649.118l-.079.02c-.026.006-.052.012-.078.02-.163.042-.333.08-.492.137-.034.012-.065.027-.099.04-.019.006-.04.012-.059.02a6.38 6.38 0 0 0-1.042.53 7.74 7.74 0 0 0-1.102.807c-.021.019-.039.04-.06.059-.162.147-.315.309-.472.472l-.039.04c-2.484 1.446-5.272 2.565-6.473 5.39-5.86 7.262-10.137 14.872-17.197 21.605-.737.703-1.546 1.317-2.322 1.85-.335.229-.684.453-1.003.649-.41.25-.802.493-1.161.689l1.121.078h.099c-.007.01-.014.03-.02.04-.05.069-.125.128-.177.196-.014.019-.025.041-.04.06-.115.15-.224.304-.354.452-.113.13-.232.246-.354.374-.112.118-.216.238-.334.354-.11.107-.22.21-.335.315-.14.13-.286.247-.433.374-.099.085-.194.172-.295.255a20.764 20.764 0 0 1-1.515 1.142c-.207.142-.41.285-.61.413-.043.027-.095.052-.138.079-.214.134-.429.279-.63.393-.016.01-.041.01-.058.02-.222.125-.434.237-.63.334l1.26.472c-.12.289-.236.564-.335.846-.002.006.002.014 0 .02-.014.039-.026.08-.04.118-.015.046-.024.093-.039.138-.038.118-.085.238-.118.354l-.04.138c-.03-.047-.071-.092-.098-.138-.409.144-.86.263-1.338.374l-.078.02c-.075.017-.14.042-.217.059-.074.015-.141.024-.216.04-.23.046-.468.095-.709.137-.112.02-.22.04-.334.059a41.94 41.94 0 0 1-1.948.256c-.458.05-.919.094-1.377.137-.43.04-.86.082-1.28.118l-.904.08c-.668.058-1.29.111-1.87.176-.03.003-.067.016-.098.02-.214.024-.452.052-.65.079-.17.023-.334.053-.491.078-.066.011-.134.01-.197.02-.09.016-.192.042-.275.059-.11.023-.236.054-.335.079-.136.034-.261.059-.374.098-.18.062-.34.14-.452.216-.173.118-.27.256-.256.414.002.014-.002.026 0 .04l-2.44.117a3.455 3.455 0 0 0-.393.04c-.074.011-.147.023-.217.039-.021.005-.038.014-.059.02a2.629 2.629 0 0 0-.433.137l-.04.02-.039.02c-.021.01-.038.027-.059.04-.046.025-.095.048-.137.078-.07.048-.123.101-.177.157-.03.03-.055.066-.079.099-.017.023-.025.054-.04.078-.06.01-.116.012-.177.02h-.02c-2.472.306-5.578-.073-5.941.61a.311.311 0 0 0-.04.177c.006.002.014-.002.02 0 .01.116.05.214.118.295-5.123.162-10.756-.13-14.304 1.515a2.902 2.902 0 0 1-.256.217c-.093.07-.201.147-.295.216-.038.028-.081.05-.118.079-3.327-.9-6.527-.993-4.565 2.558-.253-2.146 1.809-1.083 3.463-.571l.137-.059c-.01.134-.02.259-.02.413.047.036.092.063.138.099-.952 1.972-2.054 3.933-2.085 5.47-.037 1.782 1.009 4.035 2.794 3.797-2.155-1.098-1.017-3.933 1.672-7.575.073.041.173.106.236.137.018.01.043.032.06.04.006.002.013-.002.02 0l.038.02c.03.012.052.03.08.039l.058.02c.005.002.015-.002.02 0 .064.016.116.01.157 0 .52-.122 1.09-.26 1.673-.433.583-.174 1.181-.368 1.81-.57 2.515-.814 5.323-1.779 7.87-2.126.319-.043.636-.075.945-.098.541-.04 1.07-.035 1.574 0-.182.145-.338.288-.413.433a.44.44 0 0 0-.04.334c.007.02.03.038.04.059.002.004-.002.015 0 .02a.61.61 0 0 0 .078.118c.073.087.172.162.315.256.6.393 1.58.118 2.715-.276.285-.098.586-.212.886-.315.6-.206 1.226-.393 1.85-.511.013-.002.026.002.039 0 .21.565.651.978 1.633.767a32.003 32.003 0 0 0 3.286-.885c.016.04.038.077.059.118.003.006-.003.014 0 .02.223.414.727.767 1.712.61 2.521-.406 4.824-.916 7.201-1.358l-1.141 1.79 1.948-1.318.138-.098 1.062-.709.04-.02c.647-.103 1.29-.21 1.967-.295.567-.07 1.156-.122 1.751-.177a4.11 4.11 0 0 0 .453-.275c.008-.006.011-.014.02-.02.076-.053.152-.103.216-.157.038.028.078.051.118.079.108.073.215.132.334.196.03.016.048.044.08.06.004.001.014-.003.019 0 .014.005.025.012.04.019.024.012.052.028.078.04.093.04.194.084.295.117.006.002.014-.002.02 0 .195.064.395.126.63.158h.02c.205.027.426.042.668.04l-.767 3.797c.609-.709 1.26-1.377 1.85-2.106.037-.046.08-.09.117-.137.248-.315.474-.655.689-1.004.005-.008.015-.012.02-.02.024-.04.054-.076.078-.118.022-.037.038-.08.06-.118.112-.198.216-.395.314-.61.012-.026.028-.052.04-.078.072-.163.134-.339.196-.512.024-.067.057-.128.079-.197l.02-.059.767-.059c.472.36.705.77.826 1.18.112.382.131.785.138 1.181.002.094-.002.183 0 .276.002.108.013.208.02.315.011.203.032.411.079.61.31-.834.602-1.67.846-2.5l.02-.058c.081-.283.147-.564.216-.846.002-.006-.002-.014 0-.02.27-1.123.432-2.243.354-3.345l1.908-2.499c.77 1.264.825 2.479.925 3.7.017.194.037.395.06.59v.02c.023.207.06.401.098.61.095-.163.172-.331.255-.512.027-.058.053-.118.079-.177l.02-.04c.205-.484.37-1.007.492-1.574.168-.785.243-1.628.236-2.46 0-.12.005-.234 0-.353-.002-.053-.017-.105-.02-.158a9.284 9.284 0 0 0-.216-1.633c.91-2.209 1.77-3.677 2.597-4.604.003-.004-.003-.016 0-.02.118-.132.237-.243.354-.354.357.11.646.333.866.65.224.317.367.722.511 1.16.106.32.204.663.295 1.004l.02.078c.002.006-.002.014 0 .02.024.087.055.169.079.256.046.17.088.346.138.511.016.054.042.105.059.158.068.22.133.431.216.63.002-.014-.002-.027 0-.04.005.013.014.027.02.04.104-.994.258-1.965.334-2.972v-.02c.019-.246.034-.494.04-.747v-.02c.017-.78-.035-1.581-.217-2.46.125-.253.264-.5.413-.747.15-.247.304-.505.473-.748 1.013-1.452 2.343-2.821 3.522-4.23.068.035.13.072.196.118.471.321.86.907 1.28 1.417.029-.127.048-.262.058-.394.002-.013-.002-.026 0-.039.002-.04.019-.078.02-.118.002-.032 0-.066 0-.098 0-.047.002-.092 0-.138-.007.005-.013.014-.02.02a4.901 4.901 0 0 0-.02-.355 15.65 15.65 0 0 0-.176-1.18c.116-.385.275-.773.452-1.161 1.062-2.324 3.11-4.703 4.781-7.064.003-.004-.003-.015 0-.02.276-.39.558-.772.807-1.16.003-.004-.003-.015 0-.02.252-.371.448-.831.61-1.358.25.113.511.227.767.335.163.068.328.13.492.197.212.086.418.171.63.255.748.298 1.501.584 2.184.866 1.378.57 1.8.357 3.246.413h.02c.285.012.605.039.984.079h.02c.77.083 1.77.25 3.108.55l2.106.61c.004.026-.02.052-.04.08-.06.083-.215.18-.413.275-.262.127-.59.25-.826.374.166.057.313.107.452.138.247.051.488.075.728.078.005-.003.015.003.02 0h.157c.156-.002.359-.015.551-.02.192-.004.408-.001.65 0 .258.003.5.003.846.02.5.238 1.071.497 1.692.768.006.002.014-.002.02 0 1.548.675 3.313 1.428 4.545 2.085.247.132.47.27.669.394-.061.079-.122.15-.197.216a2.33 2.33 0 0 1-.276.197c-.551.347-1.298.532-1.888.846.36.059.72.125 1.082.177.092.013.183.028.275.04.347.045.694.076 1.043.098.286.018.577.025.866.02.177-.004.372-.004.55-.02.186-.016.365-.03.552-.06.558.293 1.128.566 1.711.847.005.002.015-.002.02 0 1.748.843 3.511 1.678 4.722 2.755-.099.252-1.624.796-2.479 1.2.797.004 1.601.017 2.42.04-.007-.005-.012-.016-.02-.02.733.02 1.462.054 2.224.098l4.466 3.424-.314.137-.61.217c.128.066.27.13.412.177l.06.02c.005.002.013-.002.02 0 .005.002.013-.002.019 0 .013.004.026.015.04.02.115.034.231.071.353.098.127.029.263.036.394.059.02.004.039.016.059.02.27.045.532.098.807.137l2.951 2.145-.669.59c.334.121.761.139 1.18.158l.67.393c.118.07.236.128.354.197.24.141.47.273.708.413.606.355 1.222.722 1.81 1.063.103.059.213.118.315.177.945.545 1.852 1.078 2.715 1.554-.01.093-.037.194-.039.276a19.388 19.388 0 0 0-.118 4.053c.222 3.176 1.125 6.416 2.322 9.68.267.73.554 1.453.846 2.184-.413.08-.837.172-1.161.414-.426.308 1.19-.597.098.059l-.177.078c.413.007.746.053 1.063.118l-.02.06c-.018.059-.041.117-.059.177-.272.057-.57.191-.885.413-.182.254-.332.5-.473.767l-.059.118-.059.118c-.037.078-.064.158-.098.236-.07.162-.138.327-.197.492-.01.027-.03.052-.04.079-.024.07-.035.145-.058.216a9.596 9.596 0 0 0-.177.61c-.003.013.003.027 0 .04-.005.02-.015.039-.02.059-.051.218-.078.447-.118.669l-.02.098-.02.118c-.001.013.003.027 0 .04-.038.237-.088.468-.117.708-.013.104-.028.21-.04.315-.016.144-.045.288-.059.433l-.059.63c-.027.307-.05.617-.079.924-.002.013.002.026 0 .04a13.007 13.007 0 0 1-.039.413c-.011.105-.027.21-.04.314-.016.144-.02.29-.039.433-.004.033-.015.066-.02.099a13.503 13.503 0 0 1-.177 1.023c-.094.143-.201.29-.314.433-.032.04-.065.077-.099.118-.006.006-.014.012-.02.02a13.672 13.672 0 0 1-.472.531c-.195.206-.4.401-.61.61l-.472.472c-1.584 1.576-3.082 3.281-1.613 5.568.219.089.402.173.57.276.113.068.223.142.315.216.474.383.688.84.748 1.338.003.028-.002.05 0 .079.073.818-.22 1.745-.433 2.676-.275-.194-.544-.39-.807-.59-.527-.402-1.043-.816-1.593-1.24-.138-.116-.293-.213-.453-.315-.015-.01-.024-.03-.04-.04-.04-.025-.077-.054-.117-.078-.514-.304-.974-.491-1.3-.63l-.038-.02c-.077-.032-.232-.096-.276-.118a2.995 2.995 0 0 0-.295-.196l-.04-.02a5.52 5.52 0 0 0-.885-.394c-.033-.011-.065-.028-.098-.039l-.06-.02c-.005-.002-.013.002-.019 0-.037-.012-.063-.028-.098-.039a4.712 4.712 0 0 0-.453-.118c-.06-.013-.147-.032-.197-.04-.167-.025-.27-.02-.275.02a2.119 2.119 0 0 0-.256-.04c-.904-.07-1.6.489-2.027.69a.797.797 0 0 1-.216.078c-.023.002-.058-.014-.079-.02-.025-.006-.038-.021-.059-.039a.727.727 0 0 0-.197.04c-.028.007-.066.027-.098.039-.006.002-.014-.002-.02 0-.02.007-.037.01-.059.02-.028.01-.048.026-.078.039-.143.06-.296.128-.473.216-.363.183-.751.393-1.16.59-.067.033-.132.069-.197.099a8.446 8.446 0 0 1-.374.157c-.662.624-1.253 1.036-1.712 1.712-1.172.77-1.106 1.581-2.046 2.066-.625.783-.688 1.578-1.299 2.243-.381 1.064-1.343 1.876-1.967 2.558-.786.777-1.042 1.598-1.712 2.558-.44 1.016-.973 1.691-1.318 2.715-.844.993-1.626 3.292-2.44 4.152-.343 1.209-.822 2.688-1.417 3.522-.97 1.163-1.38 2.755-1.85 4.014-.535 1.447-1.038 2.325-1.495 3.817-4.594 11.808-8.747 24.244-14.127 36.105-.148 1.611-1.639 2.343-1.909 3.306-.094-.282.08.764-.197 1.436-.562.786-1.497 1.303-1.456 2.48-.063-.168-.203.752.08.649-1.044 3.356-2.877 7.026-3.287 10.782-.016.827-.215 1.586-.511 2.322-.002.003.002.017 0 .02-.076.186-.17.368-.256.55-.225.473-.476.922-.748 1.378-.264.443-.539.898-.807 1.338-.003.004-.015-.004-.02 0-.08.134-.137.278-.216.413-.056.095-.122.18-.177.275-.095.17-.186.342-.275.512-.011.021-.029.038-.04.06-.01.02-.028.037-.039.058-.09.174-.157.354-.236.531-.062.138-.123.273-.177.414a7.797 7.797 0 0 0-.138.373c-.011.034-.029.065-.04.099a6.505 6.505 0 0 0-.137.531c-.028.121-.04.25-.06.374-.001.013-.017.026-.019.04-.004.03.004.066 0 .098-.024.18-.052.364-.059.55v.04c-.005.19.004.375.02.57.021.263.054.532.118.807-.223.394-.38.769-.472 1.142-.038.152-.041.303-.06.452h-.019c-.024.204-.03.412-.02.61.01.19.043.367.079.55.016.08.039.159.059.237.024.09.03.186.059.276.01.033.028.065.04.098.059.168.138.328.216.492l.02.04c.001.005-.003.013 0 .019.053.108.116.208.177.315.036.065.059.132.098.196.03.049.068.09.098.138.054.084.1.173.158.256l.098.138c.05.068.107.13.158.196l.137.178c.166.21.333.407.512.61l.02.02c.021.024.037.054.059.078.25.281.509.558.767.826.004.004-.004.016 0 .02-.034 1.203.167 2.5.531 3.837.002.007-.002.013 0 .02.085.309.176.611.276.924.063.204.127.405.196.61.054.159.101.314.158.472.012.035.027.065.04.099.119.33.244.67.373 1.003.01.027.029.052.04.08.275.703.565 1.403.865 2.104l.02.04c.306.715.62 1.425.925 2.125.002.006-.002.014 0 .02.307.707.61 1.407.885 2.085l.728 11.865c-.188.204-.395.396-.59.59-.335.333-.666.662-1.004.984-.252.24-.503.483-.747.728-.537.538-1.043 1.095-1.476 1.731l-.079.118a7.878 7.878 0 0 0-.413.709c-.004.008-.015.011-.02.02a7.666 7.666 0 0 0-.787 2.557c.476-.393.954-.82 1.437-1.22.723-.598 1.47-1.12 2.243-1.357.129-.04.262-.076.393-.099.655-.112 1.328-.002 2.047.472.394 1.1.7 2.169.944 3.208l.04.177c.019.084.04.172.058.256l.04.177c.044.206.078.405.118.61.061.316.125.632.177.944.03.181.05.37.079.551.059.387.127.778.177 1.16.063.493.124.988.177 1.477l.02.196c.002.02-.002.04 0 .06.056.538.104 1.075.157 1.613.024.244.054.484.079.728.087.872.177 1.752.295 2.636a9.168 9.168 0 0 1-.472.59l-.119.138c-.06.07-.133.13-.196.197-.072.078-.142.16-.217.236-.023.024-.036.056-.059.079-.16.162-.323.315-.492.472-.037.035-.08.064-.118.099-.156.144-.31.29-.472.432-.014.013-.025.028-.04.04-.038.034-.079.065-.117.098-.35.304-.708.604-1.063.905-.078.067-.158.13-.236.197a33.9 33.9 0 0 0-1.436 1.318c-.017.017-.043.023-.06.04-.095.095-.183.198-.275.295-.029.03-.05.067-.079.098-.038.042-.08.077-.118.118-.088.098-.172.195-.255.295-.088.105-.174.208-.256.315-.054.071-.106.145-.158.217a7.82 7.82 0 0 0-.255.374 6.605 6.605 0 0 0-.413.767c-.005.008-.017.012-.02.02a5.822 5.822 0 0 0-.275.708c-.009.025-.013.053-.02.079-.055.185-.101.375-.138.57l-.02.118c-.04.24-.068.492-.078.748v.059c-.01.28-.01.563.02.866 1.353-3.13 6.675-5.428 8.086-5.332l.276 1.16c-.005.002-.015-.002-.02 0l3.089 13.223c-.564.57-1.131 1.11-1.673 1.652-.17.172-.344.36-.511.532-.091.093-.186.181-.276.275-.254.266-.506.536-.747.807-.253.283-.494.572-.728.866-.221.276-.448.556-.65.846-.008.011-.011.027-.02.04-.177.257-.35.515-.51.786-.043.07-.078.145-.119.217-.159.28-.314.566-.452.865-.01.02-.012.04-.02.06a11.88 11.88 0 0 0-.905 3.01c.34-.294.67-.599 1.003-.905 2.327-2.148 4.514-4.493 6.926-5.372l2.991 10.468c-.206.388-.445.779-.689 1.18-.007.013-.012.027-.02.04-.102.168-.208.341-.314.511-.668 1.068-1.387 2.162-1.987 3.207-.143.25-.288.485-.414.728.012-.005.026-.031.04-.039-.67 1.287-1.084 2.48-.827 3.443.608-.758 1.12-1.57 1.712-2.341.08-.105.172-.212.256-.315l.079-.098c.011-.015.027-.026.039-.04.054-.064.102-.133.157-.196.036-.041.081-.078.118-.119.165-.18.33-.366.512-.53.069-.063.144-.118.216-.178a6.38 6.38 0 0 1 .197-.157c.015-.011.025-.029.04-.04.112-.085.233-.157.354-.236.214-.138.444-.279.688-.393.05-.024.107-.037.158-.06.133-.057.27-.107.413-.157.014-.005.025-.015.04-.02a7.254 7.254 0 0 1 .688-.196l.04.334h.02l.668 3.68c-.712 2.967-3.22 5.765-1.908 8.933.581-1.17.774-2.204 1.397-3.11.025-.036.051-.08.078-.117.011-.015.028-.024.04-.04.079-.104.162-.213.255-.315a5.251 5.251 0 0 1 1.062-.846c.227-.137.485-.282.768-.413.219.207.491.476.748.728-.095.244-.214.5-.335.748-.015.033-.023.065-.039.098-.123.25-.25.495-.393.748l-.118.197c-.13.22-.272.429-.414.65-.067.103-.127.21-.196.314a26.793 26.793 0 0 1-.67.964c-.83 1.146-1.757 2.253-2.616 3.306-.243.297-.46.582-.689.865-.11.136-.21.281-.315.414-.34.428-.67.856-.944 1.24-.01.014-.03.024-.04.038-.023.032-.036.066-.059.098-.023.033-.056.066-.078.098-.153.221-.294.428-.414.63-.018.03-.021.068-.039.098-.023.04-.037.078-.059.118-.058.105-.111.196-.157.295-.053.112-.101.211-.138.315-.002.01.002.014 0 .019-.005.015-.015.025-.02.039-.147.447-.144.816.099 1.062.23.235.483.208.767.06l-3.738 4.111v.02c-.076.082-.153.167-.217.255a2.1 2.1 0 0 0-.393.984c-.002.02.002.041 0 .06-.002.026-.02.051-.02.078 0 .027-.002.052 0 .08.002.057.009.119.02.176.002.01.018.012.02.02.001.01-.003.013 0 .018.01.05.022.091.039.138.002.01-.002.014 0 .019.015.04.038.078.059.118.016.033.02.067.039.098-.713.873-1.523 1.71-2.223 2.46-.003.01.003.015 0 .018-.295.316-.592.606-.827.886-.002.01.002.016 0 .019-.477.57-.798 1.05-.807 1.417a.469.469 0 0 0 .04.236.598.598 0 0 0 .177.216.88.88 0 0 0 .453.177c-4.089 4.82-9.38 9.66-10.724 14.442.042.605-.102 1.146 0 1.771-2.547 1.686-3.995 3.68-.118 4.82-1.759-1.31-.087-2.018 1.417-2.754.05.05.084.088.137.138.35-.04.671-.078 1.004-.118.956 2.187 1.818 4.466 3.05 5.647 1.462 1.402 4.07 2.362 5.115.846-2.397.756-3.973-2.237-5.135-6.985.02-.01.04-.014.059-.02.033-.01.049-.028.079-.039.027-.01.054-.01.078-.02.015-.01.026-.014.04-.02.039-.017.087-.041.118-.059a.445.445 0 0 0 .059-.04c.054-.037.097-.059.118-.098.152-.28.301-.578.452-.885 2.117-4.305 4.212-11.093 7.792-14.206.256-.223.536-.428.807-.61.038-.1.092-.199.138-.295-.022.43-.044.84.02 1.16.003.022.014.037.019.06h-.02c.069.283.22.493.473.61.013.01.024.013.039.018h.04c.07.024.129.05.216.06h.02c.028.01.048.017.078.018.135.01.276.01.453-.019a1.37 1.37 0 0 0 .63-.275h.019c.095-.073.17-.159.256-.256.816-.925 1.272-2.863 2.085-4.545.655.21 1.287.127 1.732-.65.928-1.62 1.625-3.139 2.066-4.564.572.336 1.31.417 1.928-.512 2.307-3.47 3.977-6.815 6.434-10.192.766 1.69 1.503 3.596 2.243 5.411.078-1.227.114-2.398.099-3.561-.007-.491-.033-.968-.06-1.456-.017-.313-.032-.632-.058-.945l-.02-.197c-.031-.34-.076-.68-.118-1.023-.047-.375-.096-.76-.158-1.14-.005-.033-.014-.067-.02-.099a32.468 32.468 0 0 0-.235-1.26c-.051-.245-.1-.497-.158-.747a36.224 36.224 0 0 0-.354-1.397 40.369 40.369 0 0 0-.55-1.87c1.798.713 3.344 1.142 5.194 3.503-.852-1.683-1.187-4.504-5.274-5.883l-.59-3.286c.132.01.278.019.413.04.054.008.104.029.158.039.025.004.053-.005.078 0 .06.012.119.026.178.04.16.036.33.089.491.137.107.032.21.062.315.099.11.037.208.077.315.118.424.162.827.342 1.18.53.177.095.344.204.493.296.034.021.085.038.118.059.1.065.193.137.275.197.007.005.013.014.02.02.043.032.1.068.137.098.043.035.085.086.118.118-.023-.048-.032-.088-.059-.138-.016-.03-.041-.067-.059-.098a6.488 6.488 0 0 0-.236-.394c-.055-.085-.114-.187-.177-.275-.061-.086-.127-.189-.197-.276-.027-.034-.069-.063-.098-.098-.009-.011-.01-.028-.02-.04-.111-.131-.243-.263-.373-.393-.11-.11-.231-.209-.355-.315-.007-.006-.012-.014-.02-.02-.125-.106-.252-.214-.393-.314-.056-.04-.118-.08-.177-.118a5.774 5.774 0 0 0-.492-.295c-.09-.047-.18-.095-.275-.138-.032-.015-.067-.025-.099-.04-.106-.045-.222-.097-.334-.137-.025-.01-.054-.011-.079-.02-.025-.009-.054-.011-.079-.02-.013-.004-.025-.015-.039-.02-.103-.033-.207-.07-.315-.098a6.125 6.125 0 0 0-.452-.098l-2.184-7.91c.96-.266 1.957.593 2.951 1.397-.783-1.91-1.98-3.407-5.234-5.056l-3.58-14.167.432-1.673-1.062-1.22c-.024-.027-.055-.052-.08-.078v-.02l-1.18-5.352-.787-3.482c.85.565 1.72 1.152 2.578 1.731.566.382 1.133.772 1.692 1.141.006-.002.013.002.02 0 1.547 1.024 3.056 1.987 4.407 2.696.37.194.717.376 1.063.531v-.02c-.007-.003-.012-.016-.02-.02l-2.932-3.915-.65-.866-.53-.708-1.732-2.322-4.388-5.863-.098-.118-.02-.06c-.002-.006.002-.013 0-.019a26.448 26.448 0 0 1-.472-1.594c-.01-.04-.029-.078-.04-.118-.045-.178-.075-.353-.117-.53-.028-.119-.053-.237-.079-.355-.022-.098-.038-.198-.059-.295a36.803 36.803 0 0 1-.453-2.44c-.077-.543-.135-1.075-.196-1.613v-.02c-.108-.953-.2-1.905-.295-2.853l-.06-.551c-.005-.053-.014-.105-.02-.158-.044-.425-.084-.852-.137-1.278-.01-.092-.028-.185-.04-.276-.016-.13-.04-.263-.058-.393v-.02c-.022-.163-.055-.329-.079-.492-.04-.272-.072-.553-.118-.826.43.09.853.178 1.279.255.078.015.158.026.236.04.33.059.656.125.984.177.019.003.04-.003.059 0 .843.133 1.667.243 2.479.334l.531.06c.295.03.577.052.866.078.294.026.599.057.885.079l.02-.02c1.328.1 2.59.172 3.719.197a344.336 344.336 0 0 0-3.01-1.712c-.923-.52-1.852-1.039-2.775-1.574-.503-.292-1.011-.602-1.515-.905a79.858 79.858 0 0 1-2.145-1.338 64.701 64.701 0 0 1-1.534-1.023c-.204-.14-.407-.27-.61-.413-.434-2.385-1.006-4.645-1.456-6.887-.013-.066-.028-.13-.04-.197-.011-.059-.028-.118-.04-.177-.001-.013.003-.027 0-.04-.07-.4-.134-.799-.196-1.2-.07-.45-.142-.887-.197-1.337-.039-.323-.048-.642-.078-.965a26.9 26.9 0 0 1-.118-2.99 9.92 9.92 0 0 0 1.14-.551c.259-.149.523-.3.768-.472.134-.153.265-.286.394-.414l.04-.04c.04-.039.077-.08.117-.117a5.42 5.42 0 0 1 .394-.335c.032-.025.066-.035.098-.059.028-.02.05-.059.079-.078.077-.054.16-.094.236-.138.007-.004.012-.016.02-.02.098-.056.2-.098.295-.137.008-.003.012-.017.02-.02l.098-.04c.006-.001.013.003.02 0a1.547 1.547 0 0 1 .866-.059c.018.005.04-.003.058 0l.079.02c.04.013.078.024.118.04l.04.02c.007.003.01.015.02.019.005.002.013-.002.019 0 .088.04.17.08.256.138.097.065.181.15.275.236.004.004.016-.004.02 0 .083.077.155.163.236.255.084.097.174.202.256.315.244.339.48.745.708 1.22.03-.226.047-.456.059-.688v-.02c.03-.597.005-1.203 0-1.81v-.118c-.002-.206.014-.406.02-.61.007-.243.015-.472.04-.709.035-.353.1-.71.196-1.043a4.07 4.07 0 0 1 .236-.649c.055-.066.106-.13.157-.197.136-.178.267-.348.374-.53.037-.064.065-.134.099-.198a4.943 4.943 0 0 0 .177-.373c.056-.133.113-.26.157-.394.017-.051.024-.106.04-.157.003-.014.015-.026.02-.04.03-.104.055-.21.078-.315.017-.078.025-.157.04-.236.001-.006-.003-.013 0-.02.011-.066.03-.13.039-.196.01-.072.012-.144.02-.217.001-.013-.003-.026 0-.039v-.02c.001-.027.017-.051.019-.078.002-.026-.002-.053 0-.079v-.02c.002-.02-.002-.039 0-.059v-.04c.002-.04.018-.077.02-.117.002-.046-.001-.092 0-.138v-.059c0-.058.002-.119 0-.177-.002-.106-.014-.209-.02-.315-.002-.02.002-.04 0-.059v-.02c-.002-.032.002-.065 0-.098-.008-.106-.028-.209-.04-.315-.006-.059-.012-.118-.02-.177 0-.006.002-.013 0-.02-.002-.025.004-.053 0-.078-.005-.052-.011-.106-.019-.157-.013-.092-.044-.184-.059-.276a18.251 18.251 0 0 0-.118-.65c-.002-.005.002-.013 0-.019-.002-.007.002-.013 0-.02l-.02-.078c-.002-.007.002-.014 0-.02-.023-.113-.053-.222-.078-.334-.1-.452-.193-.898-.295-1.338a30.42 30.42 0 0 1-.197-.886c-.059-.29-.12-.585-.158-.866a2.106 2.106 0 0 1-.039-.295v-.02a1.986 1.986 0 0 1 .02-.354c.004-.033.014-.065.02-.098.002-.02.015-.04.02-.059.001-.012-.003-.027 0-.04.002-.013.016-.025.019-.039.002-.006-.002-.014 0-.02.054-.219.136-.432.236-.63.009-.017.01-.04.02-.058.021-.042.055-.077.078-.118.05-.089.085-.19.138-.276.02-.032.039-.066.06-.098.054-.087.122-.17.176-.256.042-.067.078-.13.118-.197.039-.063.082-.113.118-.177.018-.031.023-.066.04-.098.053-.1.096-.194.137-.295.045-.108.092-.222.118-.335.004-.017-.004-.041 0-.059.002-.007.019-.012.02-.02.005-.025-.004-.052 0-.078.004-.032.017-.066.02-.098a1.56 1.56 0 0 0 0-.256c.186-.601.39-1.192.59-1.79.745-2.227 1.582-4.456 2.42-6.671.035-.091.064-.184.099-.275.13-.343.264-.681.393-1.024l.374-.983c.002-.006-.002-.014 0-.02l.118-.315c.04-.105.08-.21.118-.315.365-.978.717-1.97 1.063-2.951.071-.13.136-.29.196-.472s.125-.376.177-.59c.105-.43.2-.91.296-1.358.168-.774.342-1.47.61-1.673.005-.004.014.003.02 0a.243.243 0 0 1 .117-.04c.092-.05.18-.004.276.1.044.05.093.104.138.176.146.235.28.565.413.886.107.261.209.498.295.669.035.07.068.117.098.157.015.02.026.049.04.06a.167.167 0 0 0 .04.019c.011 0 .028-.01.038-.02a.273.273 0 0 0 .04-.079c.004-.012.016-.044.02-.059.017-.08.03-.198.039-.354.01-.188.004-.51 0-.826a36.323 36.323 0 0 0-.04-1.279c-.003-.08.004-.19 0-.275v-.02c-.008-.273-.024-.548-.02-.866.008-.432.04-.878.1-1.318.057-.435.14-.84.275-1.2s.31-.661.55-.866c.031-.054.07-.136.1-.236.089-.3.174-.788.314-1.319.046-.177.099-.348.157-.53.115-.361.274-.738.453-1.063.002-.005-.002-.015 0-.02.091-.165.182-.312.295-.453.106-.137.213-.285.295-.452.082-.167.148-.348.217-.531.292-.774.51-1.638 1.062-2.086.039-.032.076-.051.118-.079.02-.013.038-.027.06-.04l.078-.039c.028-.013.05-.027.079-.039.017-.007.04-.013.059-.02.025-.009.052-.012.078-.02.044-.012.091-.03.138-.039.094-.017.188-.038.295-.039.103-1.217.623-2.279 1.24-3.306.308-.513.643-1.006.964-1.515.16-.254.304-.508.452-.767.15-.259.306-.52.433-.787.079-.12.15-.228.217-.295.462-.474.636.243.787.688.03.088.067.186.098.237.138.223.31-.035.689-1.929-.008-.143-.024-.298-.02-.433.004-.134.023-.247.04-.373.032-.253.083-.502.157-.728.074-.227.169-.443.275-.65.535-1.034 1.428-1.869 2.145-2.97.108-.13.214-.285.335-.453.117-.164.233-.338.354-.512.12-.174.24-.336.354-.492.115-.155.234-.304.334-.413.1-.11.179-.181.256-.216a.217.217 0 0 1 .118-.02c.032.006.056.025.079.059a.355.355 0 0 1 .059.138c.007.026-.004.065 0 .098.006.048.018.097.02.157.002.03 0 .065 0 .099 0 .19-.02.414-.06.728 1.089-2.186 1.843-4.41 3.326-6.552.247-.357.514-.71.807-1.063.146-.176.292-.357.452-.531.16-.174.337-.339.512-.512a.787.787 0 0 1 .157-.059c.176-.043.388-.05.59 0a.784.784 0 0 1 .355.178c.046.043.09.097.118.157.027.06.036.12.04.197a.315.315 0 0 0 .117-.06c.03-.027.038-.058.06-.098.043-.08.087-.19.117-.295.03-.106.058-.213.099-.315a.66.66 0 0 1 .157-.255c.058-.143.111-.281.177-.414.004-.007.016-.012.02-.02.02-.04.038-.078.059-.117.056-.107.118-.213.177-.315.134-.23.27-.455.413-.67.008-.011.012-.027.02-.039.005-.007.014-.012.02-.02.004-.006.014-.012.02-.019.137-.204.278-.404.412-.61.003-.004-.003-.015 0-.02.035-.054.084-.102.118-.157.104-.165.202-.336.296-.512.007-.013.012-.026.02-.039.043-.084.077-.168.117-.256.439-.635 1.053-1.274 1.653-1.81.2-.179.4-.337.59-.492.129-.114.25-.238.355-.354.283-.314.511-.622.708-.944.012.29.03.575.04.865.001.06-.003.118 0 .177.017.669.028 1.336.039 2.007.024 1.496.045 2.998.137 4.486.02.331.051.655.08.984.012.157.023.317.038.472.023.23.052.46.08.69.01.09.027.183.039.275.03.241.061.487.098.728.026.172.049.34.079.511.094.541.201 1.08.334 1.614.003.013.016.025.02.039.028.111.049.224.079.335.06.225.128.445.196.668.002.006-.002.014 0 .02.188.609.413 1.215.67 1.81h-.06c.347 1.544.519 3.151.728 4.742.07.53.152 1.048.236 1.574.338 2.105.855 4.155 2.027 6.002.248.188.446.441.65.688a3.064 3.064 0 0 0-.02.256v.04c-.002.114.011.233.02.354.006.11.004.22.02.334.006.053.01.104.019.157.006.035.013.064.02.099.053.312.126.637.216.964.006.02.014.038.02.059.092.33.204.652.314.984.067.2.13.393.197.59.054.157.105.32.158.472.004.014.015.026.02.04.056.164.104.314.157.472.052.158.111.322.157.472.002.006-.002.014 0 .02.093.305.167.606.216.866.196.046.348.09.473.137.015.007.044.014.059.02s.025.013.039.02c.009.004.011.015.02.02a17.501 17.501 0 0 1 .374 1.082c.053.174.108.338.157.511.024.086.055.17.079.256.139.5.277 1.011.432 1.515.085.27.175.532.276.807.069.188.136.38.216.57.041.097.074.198.118.295.019.042.04.077.06.119.099.212.215.412.334.63.2.368.436.753.708 1.14-.019.095-.032.183-.04.276-.058.715.241 1.365.749 1.987.014.018.024.041.039.06.04.046.076.09.118.137.168.189.35.367.55.55l.06.06c.676 1.867 2.086 3.636 3.876 4.82-.056.817.036 1.116 1.043 2.361.018-.076.034-.16.059-.236.012 1.172.048 2.325.098 3.483.058 1.315.135 2.627.158 3.935a41.462 41.462 0 0 1-.099 3.935 27.585 27.585 0 0 1-.236 1.968c-.05.33-.093.653-.157.984-.002.006.002.013 0 .02-.063.324-.139.657-.217.983a.917.917 0 0 0 0 .197c.01.075.029.16.06.197.008.009.028.013.039.02.009.005.01.015.02.02.023.01.05.017.078.019.074.008.155-.023.256-.06.079-.027.17-.057.256-.098.023-.01.035-.028.059-.04.246-.195.48-.395.708-.609.226-.21.44-.421.65-.65a13.837 13.837 0 0 0 2.144-3.148c.298-.59.563-1.215.807-1.869.61-1.635 1.052-3.467 1.377-5.47a45.65 45.65 0 0 0 .256-1.75l1.003-.1c.075.201.16.398.256.61.074.164.149.322.236.493.031.06.066.116.099.177.076.143.15.284.236.433.051.088.102.165.157.255.122.202.252.418.394.63l.078.118c.076.111.156.22.237.335.15.212.303.425.472.649.006.007.014.012.02.02.005.007.014.012.02.02.115.151.248.314.373.471.039.05.059.108.098.158.074.09.16.183.237.275.4.486.845.998 1.337 1.535.244.47.424.938.571 1.417.008.025.012.053.02.078.063.213.13.415.177.63.002.006-.002.014 0 .02.1.453.174.898.216 1.357.003.033-.002.066 0 .099.017.194.031.395.04.59a20.14 20.14 0 0 1-.02 2.046c-.018.353-.055.71-.079 1.063-.033.497-.07.998-.098 1.495a27.25 27.25 0 0 0-.04 1.535c0 .21.013.42.02.63v.118c.01.226.019.443.04.669.025.149.05.305.078.452.07.367.195.676.61.61.083-.013.167-.034.276-.079.023-.052.055-.105.078-.157-.002-.007.002-.013 0-.02.114-.249.222-.514.335-.767.102-.228.213-.459.315-.689 3.869 19.258 2.924 32.771 4.053 48.777.987 12.095-.386 29.964 1.633 39.529.002.007-.002.014 0 .02.333 1.573.756 2.916 1.299 3.974l-.099.905c.116-.138.226-.295.335-.452.146.247.31.48.472.689l-.098-1.3c.04-.072.078-.14.118-.216l.02-.039c.117-.227.226-.476.334-.728.011-.026.028-.052.04-.079.218-.52.426-1.095.61-1.711.014-.051.024-.107.039-.158.042-.148.096-.3.137-.452.036-.133.065-.258.099-.394.086-.347.157-.712.236-1.082.017-.084.041-.171.059-.256.058-.287.123-.586.177-.885.003-.019-.003-.041 0-.06.558-3.13.873-6.911 1.082-10.979.068-1.32.126-2.686.177-4.053.022-.605.039-1.218.06-1.83.016-.491.043-.981.058-1.475.056-1.794.12-3.603.177-5.392.014-.427.025-.854.04-1.279.038-1.114.07-2.215.118-3.305.04-.935.086-1.847.137-2.755.125-2.213.275-4.352.492-6.316 1.607-16.118 1.015-29.778 5.588-49.19.516.995 1.071 1.95 1.692 2.853.103.049.185.09.276.118.019.006.04.015.059.02.03.008.07.015.098.02a.496.496 0 0 0 .177 0c.006-.002.014.002.02 0 .153-.048.22-.217.177-.59-.025-.139-.053-.276-.079-.414-.023-.126-.055-.248-.078-.374-.073-.385-.125-.777-.197-1.16-.06-.314-.121-.632-.177-.945-.004-.02-.016-.039-.02-.059-.045-.251-.077-.496-.118-.748-.03-.19-.07-.38-.098-.57a31.514 31.514 0 0 1-.118-.886c-.01-.084-.01-.171-.02-.255v-.02c-.15-1.388-.188-2.795 0-4.25.012-.09.026-.185.04-.276.025-.17.046-.339.078-.511.097-.525.23-1.055.394-1.594.126-.142.247-.275.374-.413.582-.637 1.168-1.239 1.75-1.87.245-.264.484-.563.729-.845.181-.21.37-.406.55-.63.094-.115.183-.235.276-.354.073-.095.143-.178.217-.276.212-.282.416-.59.63-.905l1.2.04c.072.419.138.83.216 1.22l.059.295c.254 1.23.547 2.335.846 3.305.078.253.156.49.236.728.083.245.17.478.256.709.014.039.024.079.04.118.066.177.128.343.196.511a21.9 21.9 0 0 0 .866 1.87c.016.032.022.066.04.098.107.206.224.397.334.59.048.086.088.172.137.256.061.105.116.213.177.315l.02.04c.027.044.052.093.079.137.171.279.358.547.531.807.02.03.038.067.06.098.038.058.078.12.117.177l.04.059c.104.153.21.303.314.453.504.72 1.013 1.422 1.496 2.144.075.058.15.102.216.138.004.002.016-.002.02 0 .11.056.202.093.275.079.016-.003.027-.014.04-.02.013-.006.028-.01.04-.02a.2.2 0 0 0 .058-.078.617.617 0 0 0 0-.295 27.427 27.427 0 0 1-.885-5.884c-.002-.033.002-.064 0-.098-.002-.033.002-.066 0-.098a38.232 38.232 0 0 1 0-3.01c.005-.139.013-.258.02-.394.034-.766.074-1.511.118-2.224l.02-.275c.026-.462.041-.916.058-1.358.033-.857.038-1.687-.02-2.479-.001-.02.003-.04 0-.059-.01-.127-.026-.249-.039-.374-.03-.282-.05-.551-.098-.826-.002-.05-.015-.091-.02-.138.32-.137.502-.31.65-.531.043-.065.078-.141.117-.217.011-.02.03-.037.04-.059l.02-.039c.084-.176.167-.368.275-.61a2.18 2.18 0 0 1 .374-.433c.264-.238.61-.478.984-.748.04-.028.077-.05.118-.078l.216-.158c.092-.067.183-.145.276-.216.073-.057.142-.118.216-.177.018-.015.04-.025.059-.04.106-.086.21-.182.315-.275.052-.046.106-.09.157-.138.081-.076.159-.155.236-.236.09-.092.173-.197.256-.295.018-.02.042-.038.06-.059.005-.007.013-.013.019-.02.015-.018.025-.04.04-.059.094-.12.19-.243.275-.373.03-.03.068-.05.098-.08.033-.031.067-.065.098-.098l.04-.039.02-.02c.01-.01.01-.028.02-.04a4.805 4.805 0 0 0 .353-.432c.036-.049.085-.088.118-.138.022-.032.039-.065.06-.098.525-.83.71-1.684 1.003-2.519.024-.07.032-.146.059-.216l-.118-.02c.89-1.266 1.455-2.28 1.889-3.207.333-.713.606-1.39.905-2.086l.078-.177c.032-.073.066-.142.099-.216.09-.09.17-.185.256-.276.031-.033.067-.064.098-.098.092-.099.188-.196.276-.295.111-.126.21-.249.314-.374.212-.256.41-.515.59-.767.153-.214.303-.42.434-.63.005-.008.014-.012.02-.02l.058-.098.06-.098a9.99 9.99 0 0 0 .668-1.338c.012-.029.028-.051.04-.079a6.81 6.81 0 0 0 .393-1.456c.012-.074.031-.146.04-.216.016-.002.022.002.039 0 .14-.221.283-.445.413-.67.004-.006.015-.011.02-.02.01-.017.01-.04.02-.058.057-.101.12-.194.176-.295.054-.098.106-.197.158-.295.01-.019.01-.041.02-.06.006-.013.012-.026.02-.039.198-.386.376-.785.55-1.18.009-.022.03-.038.04-.06.007-.018.01-.04.019-.058.204-.47.395-.936.57-1.417l.06-.157c.03-.084.05-.172.078-.256a1.7 1.7 0 0 1 .02-.06c.043-.125.096-.247.138-.373.067-.203.133-.406.197-.61.022-.071.037-.145.059-.217.002-.008.017-.011.02-.02.124-.405.24-.81.353-1.22.002-.006-.002-.013 0-.019.026-.093.054-.182.08-.275l.157-.59.157-.61c.002-.007-.002-.014 0-.02.027-.106.071-.209.098-.315.063-.242.115-.486.177-.728.165-.643.341-1.289.512-1.928.04-.151.077-.302.118-.453 1.2-2.437 1.998-5.028 2.499-7.693.146-.775.277-1.557.374-2.342.146-1.177.225-2.356.275-3.541.033-.79.063-1.593.06-2.381v-.295a4.421 4.421 0 0 0 1.12-1.771c.12-.617.229-1.248.335-1.87.08-.088.109-.18.06-.294.01-.066.028-.131.039-.197.164-.994.29-1.99.413-2.99.38.407.719.869 1.22 1.337.904.94 1.096 1.94 2.125 2.853.758.62 1.658 1.455 2.243 2.302.528 1.143 1.36 1.952 1.869 3.207.29.269.23.924.55 1.024a.494.494 0 0 1 .158-.355c.046-.044.099-.068.158-.098s.13-.062.196-.079c.27-.066.588-.029.768.06.174.172.332.336.492.51 1.757 1.92 2.681 3.93 3.58 5.943.135.3.259.606.394.905.03.066.068.13.099.197.167.366.33.737.511 1.102a5.401 5.401 0 0 1-.04-.827c.004-.11.005-.188.02-.256.014-.064.017-.104.04-.137.182-.27.66.387 1.141 1.082.12.174.237.348.354.512.12.168.227.323.335.452 1.148 1.763 2.752 2.865 2.617 5.155.082.41.133.655.197.925.01.046.009.055.02.098.082.344.176.623.235.768.002.006-.002.014 0 .02a.575.575 0 0 0 .079.137c.02.028.04.053.059.059.025.007.037.005.059-.02.018-.02.042-.082.059-.118.023-.047.055-.11.079-.177.172-.508.377-1.356 1.003-.393.878 1.833 2.36 3.43 2.892 5.391.045.161.087.326.119.492.03.166.044.32.059.492.095 0 .19.024.275.04.012.001.028-.003.04 0 .063.012.119.038.176.058.012.004.028-.004.04 0 .013.005.026.015.04.02.053.022.108.05.157.079.024.014.055.024.078.039.022.015.038.043.06.059.003.003.015-.003.02 0 .01.009.027.01.038.02.29.235.484.592.65.983.223.53.383 1.133.63 1.633.082.167.169.316.275.453.113.14.223.288.315.453.002.005-.002.014 0 .02.633 1.15.789 2.77 1.003 3.147.36.308.59.826.728 1.437.047.204.09.412.118.63.117.873.09 1.803.06 2.479a41.86 41.86 0 0 0-.04 1.279c-.002.11 0 .3 0 .393.002.273.002.488.02.63.01.085.025.15.039.196.002.004-.002.016 0 .02.01.03.027.066.04.079.01.011.027.02.039.02s.025-.01.04-.02a.297.297 0 0 0 .098-.118c.045-.077.084-.193.137-.315.003-.007.017-.012.02-.02.055-.127.116-.284.177-.433.132-.32.267-.65.413-.885.045-.073.093-.127.138-.177.095-.104.203-.15.295-.098.688.096.822 3.094 1.397 4.132.413 1.172.86 2.353 1.299 3.522.007.019.012.04.02.059.123.329.249.654.373.983.08.21.157.42.236.63.087.23.17.46.256.689 1.064 2.81 2.114 5.629 2.99 8.46a1.78 1.78 0 0 0 .119.728c.014.04.023.08.04.118.017.042.039.077.058.118.002.006-.002.015 0 .02l.06.118c.024.047.052.091.078.138.035.061.08.116.118.177.04.067.076.13.118.197.054.084.104.17.158.255.272.436.524.898.59 1.437.015.119.025.226.02.354v.02c-.005.094-.021.194-.04.295-.047.346-.1.702-.177 1.062-.002.006.002.013 0 .02-.002.009-.018.01-.02.02-.002.006.002.013 0 .02-.002.006.002.012 0 .019-.043.202-.09.405-.137.61-.103.442-.215.885-.315 1.338-.002.006.002.013 0 .02-.03.138-.07.273-.099.413-.002.012.002.026 0 .04-.014.071-.025.143-.039.216-.007.04-.012.078-.02.118-.023.124-.039.25-.059.373l-.02.119-.019.137-.02.118c-.004.027-.016.053-.02.079v.02c-.001.02.003.039 0 .059-.02.183-.047.368-.058.55-.002.02.002.04 0 .06-.002.04.002.078 0 .118-.01.244-.014.485 0 .728.002.02-.002.039 0 .059v.02c0 .012-.002.026 0 .039.004.06.013.117.02.177.006.073.029.144.039.216.02.146.047.289.079.433.002.006-.002.014 0 .02.081.369.184.725.354 1.082.004.007.016.012.02.02.18.374.409.744.708 1.101.305.631.43 1.332.472 2.047.007.12.016.233.02.354.003.12-.001.233 0 .354.002.125 0 .248 0 .374-.005.607-.03 1.214 0 1.81v.02c.011.232.028.462.059.688.461-.964.948-1.661 1.495-2.026.037-.025.08-.038.118-.06a1.818 1.818 0 0 1 .354-.157l.079-.02c.096-.023.195-.035.295-.039.2-.008.393.024.61.099.045.015.092.04.138.059.064.027.13.044.196.078.032.017.067.041.099.06.007.003.012.015.02.019.134.078.271.166.413.275.06.047.115.086.177.138.052.044.104.09.157.138l.04.04c.187.172.37.363.57.59.004.003.015-.003.02 0 .627.44 1.288.8 1.987 1.082.004.277.025.549.02.826-.004.235-.01.473-.02.708-.005.105-.014.21-.02.315-.017.307-.032.618-.059.925-.03.357-.075.706-.118 1.063-.056.47-.104.928-.177 1.397l-.02.118c-.12.768-.282 1.537-.432 2.302-.419 1.978-.898 3.981-1.28 6.08-.484.342-.97.662-1.455.983-.23.152-.46.305-.689.453-.032.02-.066.038-.098.059-.223.143-.447.293-.67.433-.457.287-.919.57-1.377.846-.02.012-.038.027-.059.04-.695.417-1.41.82-2.105 1.22-.656.376-1.312.75-1.968 1.12-.058.034-.118.066-.177.1a345.37 345.37 0 0 0-3.01 1.71 69.22 69.22 0 0 0 5.175-.294c.11-.011.224-.028.334-.04.174-.018.356-.039.531-.059a55.923 55.923 0 0 0 2.48-.334c.026-.004.052-.016.078-.02l.236-.04c.11-.017.224-.02.335-.039.13-.022.264-.055.394-.078.058-.01.118-.029.177-.04.442-.08.891-.16 1.338-.256-.047.274-.098.555-.138.827.003-.003.016.003.02 0-.004.02-.017.039-.02.059-.024.162-.037.33-.06.492a7.324 7.324 0 0 0-.019.138c-.007.053-.032.104-.04.157-.003.032.005.066 0 .098-.002.027-.016.052-.019.08-.06.48-.107.957-.157 1.435-.007.072-.012.145-.02.217l-.04.374c-.003.04-.015.078-.019.118-.003.032.003.066 0 .098-.002.027-.017.052-.02.079v.02c-.089.89-.174 1.781-.275 2.676l-.02.177c-.004.033-.016.065-.02.098-.005.053-.013.105-.02.157-.163 1.354-.365 2.717-.688 4.113-.007.032-.012.065-.02.098-.046.198-.086.392-.137.59-.07.271-.157.534-.236.807-.095.327-.185.653-.295.984l-7.418 9.877-.295.394-2.637 3.522-.02.02v.02c.344-.155.714-.339 1.083-.532.529-.278 1.084-.604 1.652-.945.013-.007.027-.012.04-.02.045-.027.092-.05.138-.078.163-.099.326-.212.491-.315.178-.11.37-.22.551-.334-.003-.004.003-.016 0-.02a96.674 96.674 0 0 0 1.515-.984c.22-.145.448-.285.67-.433.046-.031.09-.067.137-.098.306-.205.618-.403.925-.61.858-.58 1.708-1.166 2.558-1.732l-.768 3.483-1.2 5.352v.02l-1.121 1.298.433 1.673-3.582 14.166c-3.254 1.65-4.47 3.147-5.253 5.057.248-.2.5-.422.748-.61.744-.564 1.482-.987 2.203-.787l-2.164 7.91c-.157.03-.324.06-.472.098-.013.004-.026.016-.04.02-.027.007-.051.012-.078.02-.054.015-.105.022-.158.039-.034.011-.064.028-.098.04-.014.004-.026.014-.04.019-.025.009-.053.01-.078.02-.112.04-.229.092-.335.137-.058.026-.12.052-.177.08-.005.001-.014-.003-.02 0-.015.006-.023.03-.039.039-.023.01-.056.008-.079.02-.047.023-.09.053-.137.078a5.7 5.7 0 0 0-.984.688l-.02.02a6.347 6.347 0 0 0-.748.748c-.011.014-.027.025-.039.04-.017.02-.042.037-.059.058-.07.087-.135.19-.197.276-.094.13-.178.269-.255.393-.008.013-.012.026-.02.04-.01.014-.03.024-.04.039a6.21 6.21 0 0 0-.236.433 4 4 0 0 1 .571-.433c.056-.036.116-.062.177-.098.02-.012.039-.028.06-.04a8.76 8.76 0 0 1 .275-.157c.198-.108.423-.231.649-.335.018-.009.04-.011.059-.02.126-.057.262-.103.393-.157.13-.053.26-.11.394-.157.034-.012.064-.028.098-.04.034-.011.065-.028.099-.039.07-.023.145-.038.216-.059.105-.031.21-.052.315-.079.04-.01.078-.03.118-.04.02-.004.039-.014.06-.019.005-.002.012.002.019 0 .173-.039.341-.056.511-.079.092-.011.186-.032.276-.039l-.59 3.286c-.15.05-.275.104-.414.157l-.098.04c-.15.06-.294.113-.433.177-.053.024-.106.053-.157.079a6.93 6.93 0 0 0-1.85 1.278c-.064.063-.117.133-.177.197-.067.072-.135.144-.197.217-.006.007-.014.012-.02.02l-.02.019c-.065.079-.136.156-.196.236-.029.038-.05.08-.079.118-.069.096-.134.198-.196.295-.16.25-.29.498-.414.748-.014.029-.045.05-.059.079-.062.128-.101.266-.157.393-.058.131-.125.266-.177.394l-.315.767a9.504 9.504 0 0 1-.295.67c.317-.406.622-.741.925-1.044.093-.094.183-.19.275-.275l.02-.02.02-.02c.14-.128.274-.243.413-.354.053-.042.104-.078.157-.118.092-.07.185-.134.276-.197.177-.123.354-.251.53-.354.014-.007.027-.012.04-.02.195-.111.395-.22.59-.314.275-.132.548-.242.827-.354.08-.032.156-.067.236-.099.29-.113.584-.215.885-.334a40.972 40.972 0 0 0-.649 2.204l-.02.078c-.11.425-.204.848-.295 1.26-.011.051-.028.105-.039.157-.009.04-.011.078-.02.118a32.01 32.01 0 0 0-.511 2.99c-.008.073-.012.145-.02.217-.025.235-.04.474-.059.708-.034.398-.06.804-.079 1.2-.01.209-.013.422-.02.63-.005.192-.017.379-.02.57v.198c-.003.476.007.951.02 1.436.003.073-.001.143 0 .216.018.562.043 1.133.08 1.712.74-1.815 1.457-3.722 2.223-5.41 2.457 3.376 4.146 6.722 6.453 10.191.618.929 1.357.848 1.929.512.012.041.026.077.04.118.441 1.39 1.104 2.871 2.006 4.447.167.292.36.491.57.61h.02c.313.169.662.175 1.023.079.045-.012.093-.024.138-.04.984 2.036 1.416 4.443 2.637 4.979.11.05.23.08.354.098.043.01.077-.01.118 0 .062.01.121.019.177.019h.157c.03 0 .05-.015.08-.02.076-.01.152-.018.216-.038.02-.01.04-.012.059-.02.014-.01.025-.013.039-.02a.704.704 0 0 0 .216-.137c.04-.04.068-.088.099-.137.02-.032.042-.063.059-.098.008-.019.012-.04.02-.059.022-.057.043-.113.058-.177.08-.33.063-.76.04-1.22.045.097.1.196.138.295.813.548 1.559 1.28 2.243 2.145.684.865 1.305 1.85 1.888 2.912 1.943 3.54 3.402 7.846 4.92 10.645.02.039.063.062.118.098.009.01.009.013.02.02a1.345 1.345 0 0 0 .255.118c.044.016.088.024.138.039-1.163 4.758-2.716 7.761-5.116 7.004 1.045 1.516 3.654.557 5.116-.846 1.231-1.18 2.094-3.459 3.05-5.647.328.04.658.08 1.003.118.054-.05.088-.089.138-.137 1.502.734 3.173 1.445 1.416 2.754 3.888-1.143 2.424-3.15-.137-4.84.097-.617-.042-1.153 0-1.751-1.308-4.66-6.37-9.373-10.409-14.068-.107-.125-.209-.25-.315-.374.075-.01.144-.012.217-.04a.977.977 0 0 0 .255-.137.513.513 0 0 0 .197-.335.842.842 0 0 0-.059-.432c-.118-.315-.396-.683-.747-1.102-.003-.01.003-.016 0-.02-.235-.279-.513-.57-.807-.885-.003-.01.003-.016 0-.019-.702-.75-1.53-1.585-2.243-2.46.008-.012.012-.026.02-.038.053-.091.11-.177.137-.276.006-.025-.005-.054 0-.079.002-.01.019-.012.02-.019a1.33 1.33 0 0 0 .02-.236v-.039a1.497 1.497 0 0 0-.04-.275 1.86 1.86 0 0 0-.138-.413c-.015-.033-.042-.065-.059-.098-.009-.018-.01-.041-.02-.06-.01-.02-.026-.037-.039-.058-.04-.07-.09-.13-.137-.197-.064-.088-.122-.173-.197-.256v-.019l-2.775-3.05-.964-1.062c.28.144.539.173.768-.06.231-.234.243-.584.118-1.003-.008-.026-.01-.052-.02-.079-.022-.066-.05-.147-.079-.216-.026-.06-.067-.134-.098-.197-.015-.03-.024-.067-.04-.098a9.177 9.177 0 0 0-.61-.984 30.382 30.382 0 0 0-1.2-1.593c-.2-.253-.434-.523-.649-.788-.128-.157-.262-.33-.393-.491-.104-.128-.21-.245-.315-.374-.39-.478-.77-.958-1.161-1.456-.041-.052-.077-.105-.118-.158l-.197-.255a32.715 32.715 0 0 1-1.594-2.224c-.112-.175-.21-.357-.315-.531-.028-.048-.07-.09-.098-.138-.057-.097-.103-.198-.157-.295-.03-.052-.051-.106-.079-.157-.105-.194-.222-.38-.315-.571-.12-.248-.22-.504-.315-.748.257-.252.53-.521.748-.728a6.401 6.401 0 0 1 1.358.827c.076.06.148.134.216.197.086.08.18.154.256.236l.02.02c.084.091.164.2.236.294.038.051.082.106.118.158.622.906.815 1.94 1.397 3.109 1.31-3.168-1.197-5.966-1.909-8.933l.67-3.68.058-.334c.194.044.373.1.551.157.257.083.501.17.728.276.248.115.471.253.689.393.122.08.26.15.374.236.143.108.281.218.413.335.01.009.01.03.02.04.003.002.016-.004.02 0 .22.2.414.428.61.649.185.21.36.427.53.649.592.772 1.124 1.583 1.732 2.341.256-.96-.161-2.142-.826-3.423l.039.02c-.126-.244-.27-.48-.413-.729-.93-1.62-2.169-3.351-3.01-4.938l2.99-10.468c2.756 1.005 5.214 3.923 7.93 6.277a11.886 11.886 0 0 0-.925-3.01c.006.001.014-.003.02 0-.01-.022-.03-.038-.04-.06-.043-.094-.092-.183-.138-.275-.064-.13-.128-.267-.196-.394-.228-.42-.48-.813-.748-1.2-.008-.012-.012-.027-.02-.04-.2-.287-.41-.571-.63-.845a20.868 20.868 0 0 0-.728-.866c-.24-.27-.493-.541-.747-.807-.09-.094-.184-.182-.276-.275-.167-.172-.34-.36-.511-.532-.541-.542-1.109-1.081-1.673-1.652l3.345-14.383c1.323-.09 6.068 1.929 7.772 4.761.114.189.23.375.315.57a6.55 6.55 0 0 0 .02-.865v-.059c-.01-.25-.04-.495-.08-.728-.001-.006.003-.013 0-.02-.006-.04-.011-.079-.019-.118a5.813 5.813 0 0 0-.452-1.357c-.027-.059-.05-.12-.079-.178-.421-.843-1.023-1.59-1.712-2.282-.093-.094-.179-.183-.275-.275-.057-.055-.12-.104-.177-.158-.034-.031-.065-.067-.099-.098a34.187 34.187 0 0 0-.984-.866c-.074-.063-.142-.134-.216-.197-.577-.489-1.164-.97-1.712-1.475-.213-.196-.41-.387-.61-.59-.039-.04-.08-.079-.118-.119-.022-.023-.037-.055-.059-.078-.133-.14-.269-.288-.393-.433a9.177 9.177 0 0 1-.473-.59c.118-.885.208-1.765.296-2.637.024-.244.054-.484.078-.728.056-.564.098-1.127.158-1.692.055-.521.11-1.049.177-1.574a39.37 39.37 0 0 1 .65-3.64c.023-.106.033-.21.058-.315a29.26 29.26 0 0 1 .945-3.207c2.3-1.52 4.197.63 6.1 2.203a7.63 7.63 0 0 0-.788-2.558c-.065-.126-.126-.253-.197-.374a7.788 7.788 0 0 0-.196-.314c-.008-.013-.012-.027-.02-.04a9.448 9.448 0 0 0-.472-.65l-.02-.019c-.16-.202-.32-.4-.492-.59l-.02-.02c-.168-.185-.335-.353-.511-.53l-.04-.04c-.348-.35-.72-.699-1.082-1.043-.023-.022-.035-.056-.059-.079-.01-.01-.029-.01-.04-.02-.123-.118-.25-.234-.373-.354-.04-.038-.079-.079-.118-.118-.229-.225-.449-.45-.669-.688l.728-11.865c.276-.678.578-1.378.885-2.086.002-.006-.002-.014 0-.02l.709-1.632c.077-.179.16-.353.236-.532.3-.702.59-1.401.866-2.105.01-.027.028-.052.039-.079.13-.332.235-.672.354-1.003.012-.034.027-.065.04-.099.08-.225.161-.445.236-.669.03-.092.068-.183.098-.275.015-.046.025-.092.04-.138.546-1.725.874-3.395.806-4.919l.06-.059c.201-.211.413-.43.61-.65.033-.037.064-.079.098-.117.073-.084.144-.17.216-.256.057-.068.121-.128.177-.197.08-.098.16-.195.236-.295.003-.004-.003-.015 0-.02.05-.065.09-.13.138-.196.061-.085.12-.17.177-.256.06-.089.122-.166.177-.256.04-.066.08-.13.118-.197.003-.005-.003-.014 0-.02a5.87 5.87 0 0 0 .394-.865c.011-.033.028-.065.039-.098.05-.155.105-.314.138-.473.002-.012-.002-.026 0-.039.017-.086.028-.168.04-.256.01-.084.014-.17.019-.256a3.78 3.78 0 0 0-.276-1.652 5.136 5.136 0 0 0-.295-.59 5.418 5.418 0 0 0 .04-2.283c-.002-.007.002-.013 0-.02-.002-.006.002-.013 0-.02-.012-.058-.026-.118-.04-.177-.013-.058-.024-.119-.04-.177-.008-.034-.029-.064-.039-.098a7.077 7.077 0 0 0-.216-.669c-.02-.052-.038-.105-.059-.157-.04-.098-.075-.199-.118-.296-.08-.177-.167-.356-.256-.53-.01-.021-.029-.04-.04-.06a.723.723 0 0 0-.019-.04c-.002-.004.002-.014 0-.019-.09-.171-.2-.34-.295-.511-.004-.007-.015-.012-.02-.02-.124-.222-.24-.45-.374-.669-.542-.893-1.13-1.783-1.574-2.715a9.823 9.823 0 0 1-.236-.551c-.3-.742-.495-1.508-.511-2.342-.41-3.756-2.263-7.426-3.306-10.782.283.103.143-.817.079-.65.041-1.176-.894-1.693-1.456-2.479-.276-.672-.083-1.718-.177-1.436-.27-.963-1.761-1.695-1.909-3.306a208.091 208.091 0 0 1-1.967-4.466 260.933 260.933 0 0 1-1.87-4.506c-3.657-9.057-6.865-18.277-10.31-27.133-.456-1.492-.96-2.37-1.495-3.817-.47-1.259-.86-2.85-1.83-4.014a4.007 4.007 0 0 1-.217-.334c-.495-.862-.9-2.13-1.2-3.188-.814-.86-1.597-3.158-2.44-4.152-.345-1.024-.898-1.699-1.338-2.715-.67-.96-.925-1.78-1.711-2.558-.625-.682-1.586-1.494-1.968-2.558-.305-.332-.462-.7-.63-1.082a9.219 9.219 0 0 0-.275-.57 3.598 3.598 0 0 0-.374-.59c-.823-.425-.885-1.096-1.672-1.772a3.898 3.898 0 0 0-.394-.295c-.459-.676-1.05-1.088-1.712-1.712a15.25 15.25 0 0 1-1.279-.61c-.085-.044-.173-.095-.255-.137-.073-.038-.128-.064-.197-.099a7.91 7.91 0 0 0-.472-.216c-.03-.013-.05-.028-.08-.04-.04-.016-.061-.026-.098-.039-.032-.01-.07-.012-.098-.02-.064-.017-.114-.04-.157-.039-.082.071-.2.053-.355-.02-.004-.001-.015.003-.02 0-.154-.072-.327-.193-.55-.314-.447-.242-1.027-.476-1.712-.335-.002-.02-.03-.036-.079-.04-.047-.002-.113.008-.196.02a4.026 4.026 0 0 0-.551.138c-.05.015-.087.023-.138.04-.013.004-.026.015-.04.02-.12.039-.247.068-.373.117a5.361 5.361 0 0 0-.728.335c-.013.007-.027.012-.04.02-.104.062-.207.13-.295.196-.043.021-.198.086-.275.118-.02.01-.057.03-.079.04-.235.1-.472.193-.826.374-.068.034-.129.08-.197.118-.082.044-.155.09-.236.137l-.04.02c-.074.045-.144.09-.216.138-.124.083-.245.164-.354.256-.826.636-1.575 1.249-2.4 1.83-.035-.153-.061-.301-.099-.453-.32-1.283-.665-2.533.216-3.443l.04-.04c.03-.028.066-.05.098-.078.104-.092.202-.193.335-.276.004-.003.015.003.02 0a3.8 3.8 0 0 1 .59-.295 4.5 4.5 0 0 0 .334-.63c.861-1.982-.51-3.507-1.948-4.938l-.472-.473c-.21-.208-.414-.403-.61-.61-.048-.05-.09-.106-.138-.157l-.02-.02c-.04-.045-.077-.092-.117-.137a8.857 8.857 0 0 1-.295-.355 5.867 5.867 0 0 1-.315-.432 13.483 13.483 0 0 1-.158-.886c-.005-.033-.015-.065-.02-.098v-.02c-.005-.04-.014-.077-.02-.118-.021-.163-.04-.328-.058-.492l-.02-.157c-.01-.098-.03-.197-.04-.295l-.019-.217-.118-1.318a21.33 21.33 0 0 0-.216-1.731c-.005-.032.005-.067 0-.099-.02-.119-.036-.236-.06-.354a12.031 12.031 0 0 0-.117-.531c-.003-.013.003-.028 0-.04a9.62 9.62 0 0 0-.158-.55c-.028-.092-.067-.185-.098-.276-.009-.027-.03-.052-.04-.079-.022-.064-.034-.133-.058-.197-.038-.098-.076-.198-.118-.295.036-.067.082-.13.118-.197.027-.05.05-.106.078-.157l.04-.079a40.54 40.54 0 0 0 .846-1.692c.006-.002.014.002.02 0 .056-.118.103-.236.157-.354.256-.552.486-1.12.708-1.672.887-2.21 1.507-4.421 1.771-6.631.066-.553.116-1.1.138-1.653a51.835 51.835 0 0 0-.61-3.09c-.073-.327-.138-.658-.217-.983 1.864-1.042 3.893-2.233 5.982-3.463.315-.014.627-.02.905-.079.092-.02.192-.048.275-.078l-.669-.59 2.952-2.145c.528-.076 1.056-.142 1.535-.276.053-.014.105-.023.157-.04l.059-.019c.04-.013.08-.025.118-.04.108-.039.196-.086.295-.137l-.215-.08-.374-.157c-.004.003-.016-.003-.02 0l-.334-.118 4.486-3.424a71.447 71.447 0 0 1 2.204-.098c.053-.002.104.002.157 0 .77-.02 1.512-.036 2.263-.04-.855-.404-2.36-.928-2.46-1.18.606-.539 1.334-1.027 2.145-1.476.27-.15.563-.289.846-.433 1.13-.578 2.327-1.128 3.443-1.712.679.108 1.345.104 2.007.06l-.02.019c.04-.002.079-.017.119-.02.357-.027.727-.068 1.082-.118l.118-.02c.36-.052.702-.098 1.062-.157-.397-.211-.847-.369-1.279-.55-.006-.003-.014.001-.02 0a5.214 5.214 0 0 1-.294-.139 2.554 2.554 0 0 1-.551-.354 1.609 1.609 0 0 1-.217-.236c.396-.247.888-.512 1.456-.787a57.619 57.619 0 0 1 1.85-.846c1.287-.567 2.62-1.119 3.62-1.594.42-.021.748-.04 1.043-.04.155.001.32.017.453.02-.007-.004-.013-.014-.02-.02.5.013.876.05 1.24 0 .212-.028.42-.084.688-.176-.237-.125-.564-.267-.826-.394a2.039 2.039 0 0 1-.315-.177c-.08-.059-.127-.106-.118-.157l2.085-.63c.667-.15 1.26-.267 1.771-.354.007-.002.013.002.02 0a20.54 20.54 0 0 1 1.338-.177c.386-.041.714-.068 1.003-.079.579-.023.999.004 1.378 0 .568-.006 1.042-.071 1.869-.413.683-.282 1.436-.569 2.184-.866.21-.083.42-.17.63-.256.165-.067.327-.147.492-.216.411-.173.825-.345 1.22-.531.104.346.234.658.373.944.002.005-.002.015 0 .02.077.156.166.3.256.433.003.004-.003.015 0 .02.249.387.511.77.787 1.16.003.004-.003.015 0 .02.835 1.178 1.784 2.362 2.637 3.542.285.394.564.787.826 1.18a21.744 21.744 0 0 1 1.043 1.751c.308.59.552 1.17.728 1.752-.09.51-.182 1.024-.197 1.515-.002.033 0 .065 0 .098-.002.234.008.469.06.689.005-.007.013-.013.019-.02.467-.57.91-1.238 1.456-1.515.786.939 1.637 1.874 2.42 2.814.587.705 1.147 1.421 1.594 2.164.145.243.29.499.413.748-.06.292-.104.566-.138.846a12.07 12.07 0 0 0-.04 2.38v.02c.017.21.038.422.06.63.02.197.035.393.059.59.072.586.154 1.16.216 1.751.084-.198.167-.41.236-.63.207-.658.358-1.378.571-2.026.07-.21.152-.422.236-.61.002-.006-.002-.014 0-.02.085-.187.19-.357.295-.511.003-.004-.003-.016 0-.02.22-.316.49-.539.846-.65.118.112.236.222.355.355.003.004-.003.016 0 .02.827.927 1.706 2.395 2.616 4.604a8.591 8.591 0 0 0-.157.865v.02c-.002.02.002.04 0 .059l-.02.177a10.893 10.893 0 0 0-.059 1.77c.006-.001.014.003.02 0 .034.579.08 1.167.197 1.713.046.217.117.422.177.63.058.202.127.4.197.59.027.075.049.143.078.216.034.085.062.174.099.256.014.032.024.066.04.098.083.182.18.349.275.512.037-.205.075-.406.098-.61.023-.202.042-.409.059-.61.002-.02-.002-.04 0-.059.009-.112.03-.222.04-.335.001-.026-.003-.052 0-.078.053-.662.109-1.316.314-1.988.063-.206.125-.401.217-.61.091-.208.206-.418.334-.63l1.928 2.5a8.47 8.47 0 0 0-.02.63v.078c.003.15.011.302.02.453.007.124.008.249.02.373.004.046.015.092.02.138.028.256.053.51.098.768.103.583.262 1.183.433 1.77l.02.06c.011.04.027.078.039.117.015.052.023.106.04.158.018.06.04.118.058.177.054.17.1.34.158.512.168.506.361 1.007.55 1.515.035-.15.046-.281.06-.433v-.02c.041-.459.011-.92.059-1.377.003-.035.015-.064.02-.099.008-.067.026-.13.039-.196.002-.006-.002-.013 0-.02.002-.007-.002-.013 0-.02.008-.04.009-.078.02-.118.003-.014.015-.025.02-.04.004-.018.013-.039.019-.058.123-.404.341-.806.806-1.161l.768.059c.085.268.187.523.295.767.012.028.027.052.04.079.012.028.026.051.039.079.097.207.203.398.315.59.002.005-.002.015 0 .02.071.123.16.236.236.354.05.079.104.16.157.236.005.007.015.012.02.02.003.005-.003.015 0 .02.013.019.026.04.04.058.15.214.308.428.471.63.2.246.421.473.63.708.009.01.01.029.02.04l.02.02c.397.447.79.883 1.18 1.337l-.767-3.797c.528.006.966-.075 1.338-.197h.02c.087-.029.155-.083.236-.118.038-.016.081-.022.118-.04.018-.008.04-.01.059-.019.078-.038.143-.095.216-.138.012-.007.027-.012.04-.02.004-.002.014.004.02 0 .053-.032.105-.062.157-.098.04-.028.078-.05.118-.078.06.05.144.107.216.157.008.006.011.014.02.02.137.094.275.183.452.275.596.055 1.165.106 1.732.177.677.085 1.34.192 1.987.295l1.24.827 1.948 1.318-1.161-1.79c2.383.443 4.673.951 7.201 1.357 1.085.175 1.564-.28 1.751-.747.998.328 2.09.624 3.306.885.983.211 1.443-.201 1.653-.767.324.06.642.122.964.216.31.09.624.192.925.295.3.103.6.217.885.315 1.136.394 2.115.668 2.715.275.124-.08.205-.16.276-.236l.02-.02c.035-.041.076-.077.098-.117a.391.391 0 0 0 .02-.04c.002-.006-.003-.013 0-.02a.437.437 0 0 0-.02-.354.889.889 0 0 0-.06-.098c-.012-.018-.024-.04-.039-.06-.078-.094-.194-.179-.315-.275.212-.014.431-.039.65-.039.893-.002 1.837.113 2.813.295 1.628.304 3.336.816 4.978 1.338 1.97.628 3.85 1.27 5.411 1.633a.313.313 0 0 0 .138 0c.044-.009.103-.018.157-.04.024-.008.054-.027.08-.038l.078-.04c.062-.03.145-.116.216-.157 2.697 3.648 3.85 6.496 1.692 7.595 1.785.237 2.831-2.015 2.794-3.798-.031-1.536-1.152-3.497-2.105-5.47.047-.036.09-.062.138-.098a5.25 5.25 0 0 0-.02-.433l.158.079c1.654-.512 3.715-1.575 3.463.57 1.962-3.55-1.239-3.457-4.565-2.558h-.02c-.223-.17-.46-.311-.669-.511-3.115-1.444-7.825-1.384-12.396-1.456-.642-.01-1.276-.04-1.908-.06a.507.507 0 0 0 .138-.294c.017-.194-.125-.322-.374-.414-.005-.002-.015.002-.02 0-.982-.345-3.64-.093-5.765-.393-.003-.005.003-.015 0-.02-.024-.037-.049-.083-.079-.118-.017-.02-.04-.04-.059-.059-.05-.049-.096-.095-.157-.138-.004-.003-.016.003-.02 0a2.035 2.035 0 0 0-.216-.118c-.008-.004-.012-.015-.02-.02-.013-.005-.026-.013-.04-.019a2.445 2.445 0 0 0-.432-.138c-.014-.003-.026-.016-.04-.02-.025-.005-.053-.014-.078-.019-.17-.035-.35-.05-.532-.059l-2.46-.138c.002-.006 0-.012 0-.02.02-.237-.204-.438-.59-.59l-.058-.02c-.127-.046-.274-.077-.433-.117a8.034 8.034 0 0 0-.335-.08c-.006-.001-.013.003-.02 0-.018-.003-.039-.015-.058-.019-.057-.01-.118-.029-.177-.04a15.335 15.335 0 0 0-.473-.078c-.066-.01-.147-.01-.216-.02-.195-.026-.438-.054-.65-.078-.023-.002-.054.002-.078 0-.585-.066-1.213-.138-1.889-.197-.133-.012-.278-.028-.413-.04-.213-.018-.413-.04-.63-.058a115.523 115.523 0 0 1-1.87-.177c-.888-.091-1.772-.18-2.616-.315l-.236-.04c-.272-.046-.527-.104-.787-.157-.073-.015-.144-.024-.217-.04-.04-.008-.077-.03-.118-.039-.052-.012-.105-.027-.157-.04a13.326 13.326 0 0 1-1.377-.373c-.026.044-.05.093-.079.138-.012-.046-.027-.093-.04-.138a9.956 9.956 0 0 0-.176-.57 16.287 16.287 0 0 0-.355-.906l1.26-.472c-.214-.106-.446-.216-.689-.354-.243-.139-.504-.305-.767-.472-1.567-.997-3.41-2.455-4.467-3.936-.006-.009-.013-.03-.02-.04l1.24-.078a26.828 26.828 0 0 1-1.18-.688c-.127-.078-.264-.173-.394-.256a22.427 22.427 0 0 1-.787-.531c-.033-.023-.066-.036-.098-.06a18.006 18.006 0 0 1-2.027-1.652c-7.06-6.734-11.337-14.343-17.197-21.604a6.68 6.68 0 0 0-.315-.63c-1.657-2.972-5.251-3.88-7.83-5.844-.08.005-.157.015-.237.02a6.153 6.153 0 0 0-2.735-1.023c-.224-.026-.456-.058-.688-.06-.42-.447-.852-.69-1.299-.826-.002-.006.002-.013 0-.02a2.478 2.478 0 0 0-.335-.078c-.006-.002-.013 0-.02 0-.103-.016-.21-.016-.314-.02a3.172 3.172 0 0 0-.512.02c-.013.002-.026-.002-.039 0-.084.011-.171.022-.256.04-.06.011-.116.024-.177.039-.147.035-.304.089-.452.137-.113.037-.222.095-.335.138-.039.015-.079.024-.118.04-.124.049-.249.102-.374.157-.62.27-1.25.576-1.869.846-.059.026-.118.054-.177.079-.24.1-.49.2-.728.275a16.476 16.476 0 0 0-2.46-.059c-.275.016-.55.05-.826.079h-.02c-3.305.346-6.642 1.594-9.936 3.266-.55.28-1.085.566-1.633.866-.005.002-.015-.002-.02 0-3.833 2.1-7.63 4.67-11.294 6.906-1.127.688-2.208 1.368-3.266 2.027-2.394 1.492-4.635 2.94-6.69 4.407-.668.477-1.314.95-1.948 1.437a4.203 4.203 0 0 0-.846-.453c.18-.118.367-.255.59-.374.198-.053.22-.151.197-.295a.496.496 0 0 0-.04-.157.472.472 0 0 0-.019-.138c-.008-.043-.015-.07-.02-.118-.046-.03-.09-.05-.137-.079-.146-.113-.351-.198-.492-.315-.401-.243-.792-.477-1.2-.708.534-.267.9-.915 1.22-1.653.89-6.656-3.869-10.647-6.08-13.084.06-.263.12-.528.177-.787.05-.234.09-.477.137-.709.02-.092.041-.183.06-.275.003-.02.015-.039.02-.06.011-.058.027-.117.039-.176.004-.02-.004-.04 0-.06l.02-.098c.04-.21.099-.421.137-.63.074-.4.132-.785.197-1.18.032-.197.068-.394.098-.59.01-.06.01-.118.02-.177a59.34 59.34 0 0 0 .374-3.03c.11-1.154.177-2.286.216-3.385.002-.052.018-.105.02-.157.002-.033-.002-.066 0-.098.007-.238.015-.474.02-.709.01-.65.011-1.278 0-1.908-.003-.12-.017-.235-.02-.355-.015-.563-.028-1.124-.06-1.672-.001-.046.003-.091 0-.138-.01-.109-.028-.226-.039-.334a12.453 12.453 0 0 0-.04-.61c-.011-.152-.025-.302-.038-.453a30.54 30.54 0 0 1-.099-1.121c-.002-.01.002-.01 0-.02-.55-4.987-1.77-9.234-3.109-12.77l.079-.078c.153-.16.303-.312.453-.472.101-.11.195-.225.295-.335.084-.092.172-.183.256-.275.328-.365.65-.733.964-1.102.18-.213.355-.416.53-.63.123-.149.235-.303.355-.452l.02-.02c.51-.637 1.006-1.28 1.475-1.928l.236-.335c.21-.295.408-.588.61-.885.058-.085.12-.17.177-.256.219-.325.44-.657.65-.984.038-.06.08-.117.118-.177.225-.354.434-.706.65-1.062.014-.026.023-.054.039-.08.004-.007.014-.011.02-.019.226-.376.452-.762.668-1.14l.02-.04c.231-.406.448-.812.669-1.22.056-.104.102-.21.157-.315.391-.734.782-1.464 1.141-2.204l.08-.157a82.724 82.724 0 0 0 2.183-4.939c.194-.48.385-.957.57-1.436.146-.374.293-.748.434-1.122l.157-.413c.015-.039.025-.08.04-.118.25-.674.487-1.355.727-2.027.046-.126.093-.247.138-.373.042-.119.076-.236.118-.355.813-2.292 1.583-4.552 2.361-6.768l.827-1.043 2.184-2.755c.451-1.56.1-3.023-.748-4.25.417-1.614.327-4.149-.393-7.83-4.188-18.73-1.461-17.823-4.9-45.059.143-.157.277-.356.413-.57.069-.107.15-.21.217-.335.032-.06.067-.133.098-.196.032-.065.067-.148.099-.217.043-.096.076-.229.118-.334.008-.021.03-.038.04-.06.026-.07.05-.142.078-.216-.002-.004.002-.015 0-.02.082-.228.158-.477.236-.747.015-.052.044-.104.059-.158.063-.222.12-.454.177-.708-.209.123-.423.246-.63.374-.134.083-.262.183-.393.275l-.06.04c-.011.009-.027.01-.039.02-.011.009-.027.01-.039.02-.019.013-.04.024-.059.039-.022.016-.037.042-.059.059-.011.009-.028.01-.04.02-.013.01-.025.027-.039.039-.058.046-.12.087-.177.137-.048.043-.09.092-.138.138-.046.045-.092.09-.137.138-.069.072-.131.156-.197.236-.105.128-.219.262-.315.413-.13-.038-.246-.064-.374-.098-.285-3.652 1.292-8.481.217-9.484-.363-.338-.687-.283-.984-.04.892-2.014 1.753-4.009 1.515-5.233-.22-.901-.687-1.138-1.22-.925.96-2.173 2.008-4.403 1.751-5.726-.341-1.399-1.298-1.163-2.144-.177.889-5.009 2.06-10.307 2.105-14.422a6.22 6.22 0 0 0-.551-1.083c1.482-1.402 2.859-3.21 3.561-1.18-.22-4.736-3.222-1.207-5.273-.138-.177-.03-.337-.06-.511-.04-2.532-2.161-5.215-3.467-5.018.473.677-1.928 1.946-.353 3.148.826a4.1 4.1 0 0 0-.432.886c-.644 1.176.197 8.1.688 13.694-.223-.127-.492-.13-.807.079-1.664.382-.898 3.353-.02 6.454-.151-.003-.306.054-.491.177-1.501.345-1.026 2.796-.276 5.548-.311-.214-.6-.208-.826.237-1.327 2.401.13 6.278-.925 10.152a6.182 6.182 0 0 0-.846.433 5.542 5.542 0 0 0-.138-.334c-.004-.008-.016-.012-.02-.02-.008-.019-.01-.04-.019-.059l-.02-.04-.02-.039a5.173 5.173 0 0 0-.176-.334c-.012-.021-.027-.039-.04-.06-.053-.088-.1-.171-.157-.255a4.833 4.833 0 0 0-.157-.216l-.06-.08a4.94 4.94 0 0 0-.295-.334c-.09-.094-.178-.19-.275-.275-.032-.028-.066-.051-.098-.079l-.02-.02a5.391 5.391 0 0 0-.335-.255c-.034-.024-.064-.056-.098-.079-.125-.084-.262-.161-.394-.236-.025-.014-.053-.025-.078-.04-.146-.08-.3-.146-.453-.216l-.04-.02c-.167-.074-.335-.151-.51-.216.45.78.899 1.56 1.318 2.302.01.02.028.04.039.06.405.718.786 1.409 1.121 2.046.02.036.04.082.06.118l-.138 1.515-.177-.099v-.02l-1.28-.767c.223.5.444.983.67 1.456.102.214.212.426.314.63.196.392.39.78.59 1.121l.414 2.696-1.26-.02c.165.331.306.69.493.984.052.083.119.144.177.217.003.004-.003.015 0 .02.156.193.344.353.57.432l.236 2.617-1.24.256-.314.079c.085.127.15.244.236.354.002-.013-.002-.027 0-.04.427.545.862.927 1.299 1.358l.354 4.781-.787.354-.65.276v.02h.02l.354.177.217.098 1.043.472.433 1.928.511 2.243 1.063 4.585-1.122.669 1.2.256c.191.911.412 1.725.65 2.499.044.144.092.29.137.432.019.06.04.119.06.178l.117.373c.26.823.51 1.655.728 2.598.102.438.195.9.276 1.397.162.994.275 2.11.315 3.463l-.67.649-.491.472v.02l1.22 1.79a18.48 18.48 0 0 1 1.023 3.877v.02c.032.23.058.445.079.668.002.013-.002.027 0 .04.071.792.076 1.556.039 2.282-.046.005-.092.014-.138.02-.39.05-.781.126-1.16.236-.152.043-.304.084-.453.137-.067.024-.131.053-.197.08-.1.038-.197.093-.295.137-.032.014-.067.025-.098.04-.1.045-.197.086-.296.137-.026.013-.052.025-.078.04-.13.069-.248.138-.374.216a7.015 7.015 0 0 0-.63.433l-1.22-2.381-.02-.02c-1.22 8.932-3.35 16.015-6.237 21.82a48.75 48.75 0 0 1-1.102 2.106 45.954 45.954 0 0 1-5.076 7.32c-.015-.018-.024-.042-.04-.06-.033-.038-.064-.079-.098-.117-.076-.088-.158-.17-.236-.256-.053-.059-.104-.12-.157-.177a18.682 18.682 0 0 0-1.082-1.082c-.047-.042-.092-.077-.138-.118-.052-.047-.105-.092-.158-.138-.159-.139-.31-.281-.472-.413-.072-.06-.143-.12-.216-.177l-.177-.138a19.943 19.943 0 0 0-1.614-1.141h-.02c-.003-.003-.014.003-.02 0a22.85 22.85 0 0 0-3.659-1.87c.06-.016.117-.041.177-.059.026-.007.053-.012.079-.02.007-.001.014.003.02 0 .04-.011.078-.026.118-.039.051-.016.106-.022.157-.039.054-.018.104-.04.157-.059.102-.036.197-.08.296-.118.124-.049.254-.085.373-.138.008-.004.012-.016.02-.02.206-.09.417-.191.61-.295.049-.025.09-.052.138-.078l.04-.02c.076-.043.141-.093.216-.138l.098-.059c.025-.015.054-.023.079-.039l.059-.04c.007-.004.012-.014.02-.02.16-.103.321-.202.472-.314.005-.007.014-.012.02-.02 1.666-1.25 2.729-2.954 3.305-4.623.151-.439.268-.875.354-1.3a27.817 27.817 0 0 0 .079-2.951c-.007-.266-.024-.539-.04-.806-.013-.23-.02-.458-.039-.689-.007-.085-.012-.17-.02-.256a24.485 24.485 0 0 0-.354-2.38c-.032-.164-.062-.328-.098-.492-.025-.112-.053-.223-.079-.335-.02-.085-.038-.17-.059-.256-.03-.125-.065-.248-.098-.373-.048-.181-.105-.37-.158-.551-.007-.026-.012-.053-.02-.08-.033-.116-.062-.237-.098-.353-.146-.475-.31-.939-.492-1.417-.022-.06-.055-.117-.078-.177-.045-.116-.071-.238-.118-.354-.075-.186-.156-.385-.236-.57-.037-.085-.08-.172-.118-.257l-.08-.177c-.408-.898-.87-1.8-1.416-2.715-.265-.445-.565-.889-.866-1.338.702-1.044.81-2.497.512-3.62-.523-2.329-3.072-4.185-5.977-2.353-.585-.56-2.375-1.422-3.023-1.99-2-.557-.358-3.835-.425-5.279-.002-.013.002-.026 0-.04a31.485 31.485 0 0 0-.157-1.475h-.02c-.023-.183-.031-.368-.059-.55.266-.876-.047-1.486-.55-1.693a1.077 1.077 0 0 0-.335-.079c.332-1.244.548-2.476.728-2.99-.16.036-.12-.537.059-.984-.077-.135.047-.891-.295-.492-.13-.034-.262-.065-.394-.099l.65-.452c.232-1.896.477-3.765.747-5.627.093-.644.198-1.289.295-1.929 8.39-55.04 32.352-99.725 42.717-145.012.01-.046.029-.091.04-.137.246-1.083.477-2.16.708-3.247.065-.306.133-.618.196-.925.066-.313.114-.63.178-.944.228-1.124.458-2.254.669-3.384.052-.282.106-.565.157-.846.212-1.17.418-2.345.61-3.522.003-.02.016-.04.02-.06a184.24 184.24 0 0 0 1.18-8.696c.003-.027.017-.052.02-.079.012-.111.027-.223.04-.334.145-1.308.276-2.637.393-3.955l.02-.197c.067-.775.119-1.563.176-2.342.015-.202.026-.407.04-.61.062-.89.128-1.78.177-2.675.022-.399.04-.8.059-1.2.033-.7.074-1.403.098-2.106.002-.065-.002-.131 0-.197.026-.768.044-1.529.06-2.302.015-.778.015-1.558.019-2.341.003-.615.003-1.232 0-1.85 0-.163.002-.329 0-.492-.003-.361-.014-.719-.02-1.082-.006-.418-.01-.84-.02-1.26a165.957 165.957 0 0 0-.138-3.994c-.008-.195-.029-.394-.039-.59-.003-.058.003-.118 0-.177-.046-.895-.096-1.793-.157-2.695-.007-.105-.012-.21-.02-.315-.073-1.05-.161-2.108-.255-3.168l-.04-.472c-.018-.202-.04-.408-.059-.61-.012-.13-.026-.263-.04-.394-.066-.686-.12-1.376-.196-2.066h-.02l-.806-.354c.098.774.19 1.55.275 2.322.016.144.024.289.04.433.024.23.055.459.078.688.04.396.081.786.118 1.181.07.753.14 1.512.197 2.263.06.787.11 1.556.157 2.341l.04.709.02.373a143.279 143.279 0 0 1 .137 3.404v.099c.021.76.03 1.523.04 2.282.004.34.018.683.02 1.023v1.26a141.83 141.83 0 0 1-.02 2.125c-.001.052.002.105 0 .157-.005.277-.013.55-.02.826-.006.257-.032.511-.04.768-.029.978-.05 1.956-.098 2.931-.012.25-.026.5-.04.748-.023.433-.051.867-.078 1.299-.05.817-.114 1.644-.177 2.46a164.178 164.178 0 0 1-.295 3.403l-.02.177c-.059.59-.132 1.182-.197 1.771a175.386 175.386 0 0 1-.688 5.549l-.04.295c-.033.23-.084.458-.118.689-.115.775-.23 1.547-.354 2.321-.25 1.55-.52 3.1-.807 4.644-.325 1.75-.672 3.49-1.043 5.234-.027.13-.05.262-.078.393-.442 2.058-.918 4.11-1.417 6.159-.214.879-.425 1.759-.65 2.636-.33 1.298-.671 2.602-1.022 3.896-.043.159-.095.314-.138.472-.253.927-.505 1.85-.768 2.775-.15.531-.298 1.063-.452 1.593-13.243 45.65-37.606 93.4-41.792 140.507-.248-.01-.457.035-.767-.08a1.089 1.089 0 0 1-.236.06c.033-.036.129-.133-.04-.138-.404 1.738-.777 4.257-.885 6.12-.054-.021-.105-.044-.158-.06-.248-.073-.484-.092-.688.06-.621 1.549-1.172 3.174-1.496 4.82-.052 1.001-.002.731.06 1.732-.309-.066-.621-.126-.925-.178-.284-.047-.566-.082-.846-.118-.027-.003-.052-.016-.08-.02h-.019c-.158-.019-.315-.043-.472-.058-.045-.004-.093.004-.138 0-.04-.004-.079-.016-.118-.02-.13-.011-.265-.01-.393-.02-.123-.009-.252-.032-.374-.039-.357-.019-.694-.018-1.043-.02a23.255 23.255 0 0 0-4.525.433c-.3.059-.596.13-.886.197-.038.009-.08.01-.118.02-.066.015-.13.023-.197.039-1.391-3.987-1.078-2.079-1.79-7.497-.25.155-.495.325-.768.473-.06.033-.134.047-.196.078.008-.083.016-.177.02-.255-.123-.324.007-.858-.06-1.299-.16-.505-.003-1.11-.118-1.476.154-.611-.3-1.425-.039-1.928-.135-.355.024-1.16-.118-.964-.121-.126-.54-.155-.945-.197-4.145-47.168-28.554-94.965-41.812-140.665-.091-.315-.185-.629-.275-.944-.327-1.14-.632-2.282-.945-3.424-.043-.158-.094-.314-.137-.472a265.098 265.098 0 0 1-1.004-3.837c-.01-.04-.029-.078-.04-.118-.037-.15-.06-.302-.098-.452-.224-.89-.454-1.766-.669-2.657-.139-.576-.278-1.154-.413-1.731-.002-.007.002-.014 0-.02-.31-1.334-.599-2.676-.885-4.014-.004-.02-.016-.039-.02-.059l-.04-.177a206.871 206.871 0 0 1-1.298-6.591c-.11-.615-.21-1.234-.315-1.85-.038-.23-.08-.459-.118-.689a185.87 185.87 0 0 1-.63-4.053v-.02a177.063 177.063 0 0 1-.57-4.309c-.012-.104-.007-.21-.02-.314a168.03 168.03 0 0 1-.472-4.486c-.002-.02.002-.04 0-.06a159.712 159.712 0 0 1-.315-4.17c-.02-.315-.022-.631-.04-.945-.032-.589-.071-1.181-.098-1.771-.01-.217-.03-.433-.039-.65-.043-1.07-.078-2.152-.098-3.226-.002-.052 0-.105 0-.158a148.84 148.84 0 0 1-.02-2.125c-.002-.422-.002-.836 0-1.259.006-1.091.029-2.19.06-3.286.001-.039-.003-.079 0-.118l.019-.65c.026-.797.058-1.6.098-2.4.012-.236.027-.472.04-.708.041-.76.083-1.52.137-2.282.018-.244.04-.485.06-.728.001-.02-.003-.04 0-.06.021-.28.055-.564.078-.845.061-.734.124-1.47.197-2.204.023-.236.054-.472.078-.709.11-1.038.221-2.085.355-3.128zm121.617 565.921a1.104 1.104 0 0 0-.118.138l-.02.04c-.005.014-.018.027-.02.039v.02c.004.014.007.03.02.039.036-.082.09-.18.138-.276zm-70.263-99.128c.31.025.628.032.925.04.058.002.12 0 .177 0 .263.004.515.009.768 0-.05 2.759-.106 5.546-.138 8.342-.002.093.002.183 0 .276-.018 1.556-.026 3.12-.04 4.683-.009.932-.012 1.86-.02 2.794v.256c-.01 1.535-.03 3.066-.039 4.604-.045 7.552-.074 15.08-.118 22.49v.452c-.005.798-.014 1.586-.02 2.38-.032 4.731-.07 9.448-.137 13.99-.04 2.733-.097 5.409-.158 8.048v.02c-.167 7.265-.411 14.16-.806 20.443-.191 3.033-.426 5.903-.689 8.638-.063-.96-.124-1.914-.177-2.912-.002-.026.002-.054 0-.08-.003-.053.002-.103 0-.157a287.505 287.505 0 0 1-.197-4.466c-.034-.94-.071-1.925-.098-2.892a390.69 390.69 0 0 1-.138-7.556c-.002-.146.002-.287 0-.433-.009-.862-.015-1.74-.02-2.617-.005-1.01-.019-2.021-.02-3.05 0-1.443.012-2.91.02-4.387a1013.565 1013.565 0 0 1 .099-10.527c.005-.324.014-.64.02-.964.298-18.306.988-38.27 1.2-57.178zm-60.798 99.148l.039.078c.028.059.056.125.079.177a.07.07 0 0 0 .02-.02c.003-.005.018-.01.019-.019v-.02c-.002-.011-.013-.024-.02-.039a.391.391 0 0 0-.02-.04c-.02-.03-.08-.08-.117-.117z" fill="#3a2315"/></svg>