<svg xmlns="http://www.w3.org/2000/svg" width="1024" height="558" viewBox="0 0 1024 558"><path d="M731 286h1c6.601 0 13.4.2 20 .5v.5c5.8.6 11.101 1.5 16 2.9.4.1.601.1 1 .1 39.5 20.2 71.101 48.4 95 84.4 5.9 8.9 12 17.6 18.5 26 6.4 8.3 11.5 17.9 15.5 28.6-15.7 27.9-36.899 50.6-63.2 68.2-1.8 1.2-3.8 2.5-5.8 3.8-2.1 6.3-2.5 12.6-1.1 19 .1.4.1.7.1 1 5-.3 8.8-1.8 11.3-4.7.2-.1.301-.3.7-.3 5 .4 10 .8 15 1h1c13 6 29.4 8.4 49.101 7 7.399-.5 12-3.1 13.899-8 1.5-1 3.4.8 5.8 5.2.2.2.2.5.2.8 27 7.3 52.9 16.2 77.4 26.5 4.6 1.9 8.1 5.1 10.6 9.5h2v-1c4.9-4 7.8-10.4 8.5-18.9 0-.1.2-.1.5-.1v-1-12c-2.7-11.6-6.6-22-11.7-31.2s-11.8-16.8-19.899-22.8c-16.601-12.3-33.4-24.2-50.3-35.7-9.101-6.2-15.5-14.9-19.101-26.3 1.101-1.5 1.5-3.8 1-7v-1-1-26c-.3-10.3-1.399-19.7-3.3-28.1-2.1-9-5.1-17-9.2-23.9-16.5-27.9-32.899-55.9-49.2-84.1-8.3-14.2-18.1-26.7-29.3-37.8-30.2-29.5-62-57.4-95.5-83.7-33.3-26.2-71.6-47.8-115-64.7-21.2-8.2-43.5-15.9-67-23.3C510.601 14.3 460.9 4.9 406 0h-51c-3.1 1.2-7.1 2-11.899 2.5C290 8.2 238.3 15.7 188 25c-5.6 2.2-11.2 4.2-17 6-16.6 5.5-33.9 10.2-52 14-5.6 2.4-11 4.9-16.3 7.4-3.6 1.6-6.9 3.5-9.8 5.8-9.1 7-19.6 12.7-31.3 17-22 8-39.2 20.7-51.8 38-3.1 4.3-4.6 10-4.5 16.8.2 11.7 2 23.7 5.7 36 0 .4-.1.7-.2.9C6.3 174 2.7 182.1 0 191v4c1.1 7.3 5.1 11.6 12 12.9.4.1.7.1 1 .1h14c17.6-2.8 35.3-2.8 53-.1.3.1.7.1 1 .1h13c11.4-.6 22.8-1.2 34-1.9.3-.1.7-.1 1-.1 27 11.7 47.9 29.5 62.8 53.6.1.3.4.6.8.9 1.2 1 2.4 2.2 3.4 3.5 14.4 3.6 27.6 3.1 39.4-1.3.6-.3 1.4-.5 2.6-.7.6-8-1.6-14.9-6.3-20.7-.1-.1-.3-.2-.5-.3 13.6.7 27.3 2.9 40.9 6.9.3.1.5.1.9.1 6.4 14.3 15.1 26.2 25.9 36 11 9.8 26.7 14.8 47.1 15 4.9-2.1 8.101-5.8 9.9-11 0-.3.1-.6.1-1v-1-13h1v-1-.9-6.1c7.601 0 15.4.2 23 .5v.5c7 0 14 .2 21 .5v.5c17.3.8 33.3 2.7 48.101 5.9 14.8 3.2 30.8 5.3 47.899 6.1h21v-1h19c11.9-.1 23.5-.5 35-1h1v-1h17v-1h16c16.101-.1 30.3 1.6 42.3 5.2 4.601 1.5 9.801 2 15.7 1.8v-1h12c8.601 0 16.3-1 23-2.8.4-.1.601-.2 1-.2 7.601 5.4 18 8.1 31 8z"/><path d="M752 287v-.5c-6.6-.3-13.399-.5-20-.5 5.5 1.2 11.9 1.5 19 1.1.4-.1.601-.1 1-.1z" fill="#525254"/><path d="M664 281v1c4 0 8-.1 12-.5v-.5h-12z" fill="#4a4a4b"/><path d="M924 400v1h.5c.9-9.8.601-18.8-.5-27v26z" fill="#535353"/><path d="M1024 538c-.3 0-.5 0-.5.1-.7 8.5-3.6 14.9-8.5 18.9v1c8.4 1.4 11.601-2.7 9.8-12.1-.5-2.5-.8-5.2-.8-7.9z" fill="#0d0d0d"/><path d="M357 265v6.1c.4-4.1 3-5.9 8.101-5.6 4.899.4 9.899.5 14.899.5v-.5c-7.6-.3-15.399-.5-23-.5z" fill="#4d4d4e"/><path d="M357 273h-1v14c1.101-3.5 1.5-7.8 1.101-13-.101-.3-.101-.6-.101-1z" fill="#535355"/><path d="M401 267v-.5c-7-.3-14-.5-21-.5 5.9 1.2 12.5 1.5 20 1.1.4-.1.601-.1 1-.1z" fill="#4a494a"/><path d="M573 276v1c5.4 0 10.601-.1 16-.5v-.5h-16z" fill="#4b4a4b"/><path d="M606 275h-16v1c5.4 0 10.601-.1 16-.5v-.5z" fill="#515152"/><path d="M518 278v1c6.4 0 12.601-.1 19-.5v-.5h-19z" fill="#4d4d4e"/><path d="M518 279.5v-.5h-21c6.101 1.2 13.101 1.4 21 .5z" fill="#545456"/><path d="M94 208H81c3.5 1.2 7.8 1.4 12.9.5.1 0 .1-.1.1-.5z" fill="#343434"/><path d="M26.9 208.5c.1 0 .1-.1.1-.5H13c3.9 1.2 8.5 1.4 13.9.5z" fill="#555556"/></svg>