<svg xmlns="http://www.w3.org/2000/svg" xmlns:dc="http://dublincore.org/documents/dcmi-terms/" height="792" version="1.2" viewBox="0 0 612 792" width="612"><metadata><dc:description>Silhouette of Delphinus delphis, processed by PhyloPic Tools (https://github.com/eweitz/phylopic-tools)</dc:description><dc:source>http://phylopic.org/image/d6fe7b30-3229-48a8-8dc9-22173fafa899</dc:source><dc:creator>Chris huh</dc:creator><dc:license>http://creativecommons.org/licenses/by-sa/3.0/</dc:license></metadata><path d="M299.3 373.25c.3-.033.633.033 1 .2.467.2 1.033.517 1.7.95.366.233.732.5 1.1.8l7.9 6.25c.333.233.6.416.8.55 2.133 1.267 4.533 2.3 7.2 3.1 2.666.767 5.616 1.301 8.85 1.601l5.65.899c4.899 1.067 9.3 2.584 13.199 4.551 3.9 1.933 7.267 4.316 10.101 7.149.6.566 1.083 1.033 1.45 1.4.366.3.699.55 1 .75.333.133.716.25 1.149.35l2.5.5 1.95.75.45.3c.133.067.233.15.3.25.167.167.283.334.35.5.101.2.15.384.15.551a.865.865 0 0 1-.05.5.87.87 0 0 1-.25.449c-.167.134-.417.267-.75.4-.334.1-.733.2-1.2.3l-1.5.25c-.566.033-1.167.05-1.8.05l-5.45.5-13.15 2.7-1.399.15c-.367.033-.7.05-1 .05-.134 0-.25.017-.351.05-.1 0-.199.033-.3.101-.1.066-.2.166-.3.3-.066.1-.167.267-.3.5-.233.366-.584.816-1.05 1.35l-3.25 3.2c-.533.467-1 .816-1.4 1.05-.333.233-.7.434-1.1.601-.334.133-.667.25-1 .35-.334.066-.634.116-.9.15a2.746 2.746 0 0 1-.65-.15 2.348 2.348 0 0 1-.35-.45 4.994 4.994 0 0 1-.05-.7c.066-.267.149-.533.25-.8l.2-.399.05-.15h-.101l-.25.05-1.699.5c-.5.134-.967.25-1.4.351-.434.1-.867.166-1.3.199-.434.067-.917.117-1.45.15l-1.3.05-.3-.05c-.4 0-.733-.033-1-.1-.268-.067-.45-.15-.551-.25a.682.682 0 0 1-.199-.5c.033-.167.1-.334.199-.5.134-.2.334-.417.601-.65.267-.233.6-.483 1-.75.399-.267.883-.566 1.45-.9l1.949-1.149-11.3-1.25-16.95-.601-9.1.301-23.9 2.149-.699 1.3a12.58 12.58 0 0 1-.9 1.5c-.333.5-.7 1.017-1.1 1.551-.4.5-.801.983-1.2 1.449-.4.434-.783.801-1.15 1.101l-.85.649-.3.15-.15.05h-.05a.554.554 0 0 1-.101-.2v-.25L257 419a.82.82 0 0 0 0-.4c0-.133-.018-.267-.051-.399a3.285 3.285 0 0 0-.25-.5l-1.149-2.25-.101-.351a1.514 1.514 0 0 0-.1-.35c-.034-.067-.1-.116-.2-.15-.066-.066-.2-.1-.399-.1H254c-.233 0-.467-.017-.7-.05-.233-.033-.467-.066-.7-.101a9.268 9.268 0 0 1-.75-.25l-.9-.35c-.366-.2-.75-.366-1.149-.5a9.685 9.685 0 0 0-1.3-.4c-.434-.133-.867-.25-1.301-.35-.399-.1-.8-.167-1.199-.2-.367-.033-.717-.05-1.051-.05-.267 0-.5-.017-.699-.05a3.013 3.013 0 0 1-.4-.101.562.562 0 0 1-.2-.199c0-.101.017-.2.05-.301a.759.759 0 0 1 .301-.25c.133-.133.3-.25.5-.35.232-.1.482-.217.75-.35l3.699-1.2 1.9-.351 7.25-.649c.066-.033.167-.101.3-.2l1.2-1.05.7-.8a79.036 79.036 0 0 1 1.7-1.75c.6-.567 1.183-1.101 1.75-1.601.566-.5 1.183-1.017 1.85-1.55.667-.5 1.35-1.017 2.05-1.55l10.95-6.5 16.05-6.851c.434-.199.833-.399 1.2-.6.4-.2.733-.384 1-.55.633-.4 1.133-.8 1.5-1.2.4-.4.733-.833 1-1.3.133-.233.233-.434.3-.601.101-.199.167-.383.2-.55.033-.2.05-.434.05-.7v-1.85c0-.267-.033-.517-.1-.75-.067-.233-.15-.5-.25-.8l-.45-1.05a17.724 17.724 0 0 1-.55-1.5 12.418 12.418 0 0 1-.2-1c.033-.567.3-.867.8-.9h.149z" fill="#010101" fill-rule="evenodd"/></svg>