<svg xmlns="http://www.w3.org/2000/svg" xmlns:dc="http://dublincore.org/documents/dcmi-terms/" height="404.25" version="1.2" viewBox="0 0 155.515 404.25" width="155.515" overflow="inherit"><metadata><dc:description>Silhouette of Derocheilocaris, processed by PhyloPic Tools (https://github.com/eweitz/phylopic-tools)</dc:description><dc:source>http://phylopic.org/image/1d2c7cb7-4a62-4f4a-96ff-b62e225d6f91</dc:source><dc:creator>T. Michael Keesey</dc:creator><dc:license>http://creativecommons.org/publicdomain/zero/1.0/</dc:license></metadata><path d="M133.557.75c-1.133 3.733-2.833 9.633-5.1 17.7-1.492 4.476-3.209 8.442-5.15 11.9a613.697 613.697 0 0 0-.899 5 138.5 138.5 0 0 1-.476 2.15c.03.056.055.123.075.2l.5-.6c2.4-2.9 4-5.1 4.8-6.6.066.167.134.267.2.3.033.066.05.367.05.9 0 .512-1.774 3.029-5.325 7.55.017.213.025.446.025.7 0 .638-.05 1.321-.15 2.05.86-.542 1.927-1.209 3.2-2 2.2-1.368 3.866-2.801 5-4.3v.8a63.103 63.103 0 0 1-2.75 2.55c-2.413 2.14-4.312 3.623-5.7 4.45-.287 1.447-.737 3.039-1.35 4.775 3.082-2.36 5.682-3.452 7.8-3.275-.824 1.295-4.115 4.112-9.875 8.45-.92 2.04-2.004 4.232-3.25 6.575a321.6 321.6 0 0 0 1.226-.725c5.399-3.233 8.517-5.167 9.35-5.8l.65.2c.466.133.75.3.85.5-5.141 3.536-9.716 6.485-13.725 8.85a212.43 212.43 0 0 1-6.125 10.25c.881-.474 1.897-.99 3.05-1.55 4.2-2.066 7.217-3.4 9.05-4l.25.55c-.267 1.1-2.6 2.75-7 4.95-3.882 1.833-6.474 3.108-7.775 3.825a180.257 180.257 0 0 1-4.35 6.325c.824-.352 1.766-.735 2.825-1.15 3.6-1.433 6.45-2.45 8.55-3.05l.55.75c-1.6 1.1-4.083 2.433-7.45 4-4.066 1.9-6.517 3.083-7.35 3.55a2.376 2.376 0 0 0-.125-.1c-1.751 2.209-3.359 4.026-4.825 5.45 0 .292-.066.675-.2 1.15 1.056-.484 3.039-1.15 5.95-2 3.867-1.167 6.184-1.75 6.95-1.75-.333.7-1.5 1.583-3.5 2.65-2.566 1.4-5.233 2.1-8 2.1-.72 0-1.277-.066-1.675-.2-.376 1.034-.984 2.384-1.825 4.05a31.149 31.149 0 0 1 2.4-.4c7.033-.9 11.066-1.467 12.1-1.7-.7.967-3.733 2.05-9.1 3.25-3.278.631-5.537 1.064-6.775 1.3-.485.797-.936 1.447-1.35 1.95.88.933 1.363 1.716 1.449 2.35.946-.809 2.071-.842 3.375-.1 1.106.651 1.94 1.468 2.5 2.45 1.831-.487 4.081-1.154 6.75-2l-.05-.15c.601-1.367 1.75-3.133 3.45-5.3.967-1.233 2.316-2.9 4.05-5-.2.367-1.267 2.133-3.2 5.3-1.148 1.828-1.932 3.336-2.35 4.525 1.518-.489 3.151-1.03 4.9-1.625l1.1-.3v-.1c0-.7 1.2-2.434 3.6-5.2 2.233-2.633 3.717-4.167 4.45-4.6-.733 1.167-1.967 2.967-3.7 5.4a199.921 199.921 0 0 0-2.975 4.175 62.654 62.654 0 0 1 3.25-.65c.439-.82 1.897-2.346 4.375-4.575 2.9-2.633 4.75-4.083 5.55-4.35-.434 1.034-2.033 2.8-4.8 5.3-1.5 1.357-2.649 2.482-3.45 3.375a42.324 42.324 0 0 1 2.726-.3c.453-1.226 4.962-4.351 13.524-9.375-1.1 1.434-3.05 3.133-5.85 5.1a341.748 341.748 0 0 0-6.15 4.175 35.068 35.068 0 0 1 3.775.025.744.744 0 0 1-.275-.3c1.733-.833 4.467-2.417 8.2-4.75 4.3-2.667 6.9-4.25 7.8-4.75-.3 1.1-2.483 2.867-6.55 5.3-4.124 2.441-6.666 3.982-7.625 4.625 1.438.162 2.813.42 4.125.775.297.143.613.301.95.475.729.004 1.52.038 2.375.1 3.203-.449 7.011-.773 11.425-.975 3.533-.133 7.134-1.4 10.8-3.8-.133 1.367-1.1 2.667-2.899 3.9-1.531 1.099-3.414 1.841-5.65 2.225 3.067.25 5.602.375 7.6.375.834 0 1.217.083 1.15.25-1 0-1.616.1-1.85.3a1.382 1.382 0 0 1-.601.55c-1.066.567-5 .85-11.8.85-1.127 0-2.585-.133-4.375-.4 1.444.83 3.036 1.763 4.775 2.8 6 3.567 9.949 6.184 11.85 7.85-1.267-.533-6.833-3.15-16.7-7.85-8.133-3.9-12.7-5.85-13.7-5.85-1.366 0-6.316 1-14.85 3-5.976 1.372-10.176 2.264-12.6 2.675.233.723.35 1.514.35 2.375 0 .651-.025 1.268-.075 1.85 4.481-2.086 8.007-2.553 10.575-1.4.951.435 1.71 1.01 2.275 1.725a12.428 12.428 0 0 1 3.024 0c3.957-.184 7.674.741 11.15 2.775 4.166 2.4 6.616 5.233 7.35 8.5-.033.3-.3.467-.8.5a7.403 7.403 0 0 0-.925-2.5c-1.428.925-3.719 2.142-6.875 3.65-2.664 1.279-4.764 2.154-6.3 2.625.614.357 1.189.724 1.725 1.1l.725.1a10.22 10.22 0 0 1-.55-.475c.385.102.776.219 1.175.35 6.36-1.241 11.118-2.708 14.275-4.4l.55.05c.4.067.634.15.7.25-.2.067-2.116.967-5.75 2.7-3.2 1.533-5.366 2.3-6.5 2.3-.439 0-.856-.017-1.25-.05 1.514.755 3.088 1.755 4.725 3 4.58-1.473 8.771-2.707 12.575-3.7-.5.733-1.733 1.65-3.7 2.75-2.322 1.335-4.681 2.135-7.074 2.4 2.683 2.235 4.024 3.936 4.024 5.1l-.05 1.15c1.198-.289 2.598.095 4.2 1.15.833.533 2.533 2.083 5.1 4.65-.028.171-.278.321-.75.45a23.03 23.03 0 0 1 7.2 7.1c1.1 1.733 2.333 4.2 3.7 7.4 1.467 3.433 2.583 5.8 3.35 7.1-1.267-1.5-2.649-3.55-4.149-6.15-1.834-3.2-3.101-5.316-3.801-6.35-3.438-4.917-8.547-9.125-15.324-12.625.995 1.429 2.42 3.054 4.274 4.875 2.033 2 5.033 4.817 9 8.45v.3c-3.333-1.133-6.8-3.267-10.399-6.4-3.767-3.267-5.65-5.9-5.65-7.9 0-.6.116-1.217.35-1.85.18-.568.389-.935.625-1.1.051-.239.075-.472.075-.7 0-.575-1.467-2.092-4.399-4.55-.29.3-.757.45-1.4.45-1.3 0-3.083-.717-5.35-2.15a21.152 21.152 0 0 1-1.325-.925c-6.482-1.272-11.049-2.063-13.7-2.375 1.536.995 3.127 2.729 4.775 5.2a45.567 45.567 0 0 1 4.199 7.975 44.919 44.919 0 0 1 2.25 1.675c.604.485 1.179.96 1.726 1.425.021.025.046.05.075.075.198.174.39.349.574.525.366.133.75.299 1.15.5a.584.584 0 0 1-.075-.125c1.267-.133 3.834.867 7.7 3 3.4 1.867 5.733 3.367 7 4.5l-.25.25c-.267-.267-2.717-1.45-7.35-3.55-1.104-.51-2.079-.977-2.926-1.4.041.07.083.146.125.225.967.843 1.45 1.485 1.45 1.925v.325c1.236 1.789 2.82 3.83 4.75 6.125 1.634 1.966 3.8 4.5 6.5 7.6l-.05.25c-1.866-1.7-4.6-4.65-8.2-8.85-1.555-1.822-2.788-3.313-3.7-4.475a2.033 2.033 0 0 1-.274.025c1.068 1.953 2.676 4.77 4.825 8.45 2.433 4.167 3.966 7.683 4.6 10.55-1.6-2.366-3.45-5.617-5.55-9.75-1.694-3.286-3.161-6.353-4.4-9.2h-.3c-.213 0-.43-.033-.65-.1a1.14 1.14 0 0 1-.35.1c-.37-.265-.729-.523-1.075-.775 1.357 1.642 2.582 3.567 3.675 5.775 1.767 3.5 2.65 6.733 2.65 9.7v.9c-.066 0-.134.05-.2.15h-.3c-.434-2.267-1.566-5.316-3.4-9.15-2.039-4.182-3.406-7.04-4.1-8.575a169.35 169.35 0 0 1-1.35-.95c.179 1.544.595 3.553 1.25 6.025 1 3.833 1.55 6.2 1.649 7.1l-.05.25c.4.033.184.05-.65.05-.6 0-1.3-2.283-2.1-6.85-.667-4.567-1-6.883-1-6.95v-.25a226.24 226.24 0 0 0-3.55-2.45 4.728 4.728 0 0 0-.2-.125c.333 1.798.5 3.84.5 6.125 0 1.8-.066 3.3-.2 4.5a.828.828 0 0 1-.274.3 72.18 72.18 0 0 1 1.975 1.4c.9 1.067 2.35 3.083 4.35 6.05 1.9 2.767 3.384 4.75 4.45 5.95a2.367 2.367 0 0 1-.45 1c.687 2.041 1.387 4.808 2.101 8.3 1.066 5.3 1.6 8.7 1.6 10.2 0 1.066-.083 1.917-.25 2.55h-.3c-.167-.7-.9-4.684-2.2-11.95-.731-4.12-1.531-7.545-2.399-10.274-.698-.725-1.481-1.666-2.351-2.825-.625-.822-1.491-1.664-2.6-2.525 1.123 5.42 2.307 13.129 3.55 23.125v.851c-.066-.033-.134 0-.2.1h-.3c-.934-4.166-1.816-8.983-2.65-14.45-.139-.889-.639-4.354-1.5-10.399a32.846 32.846 0 0 0-2.425-1.525c.193.546.368 1.138.525 1.775.566 2.4.85 4.684.85 6.85 0 1.601-.1 3-.3 4.2l-.5.05c-1-1.967-1.934-4.833-2.8-8.6-.663-2.879-1.196-5.079-1.601-6.6a86.228 86.228 0 0 1-3.024-2.2l.425 1.25c1.366 4.233 2.05 6.934 2.05 8.1 0 .533-.017.833-.05.9-.066 0-.134.05-.2.15-.566-1.1-1.467-3.566-2.7-7.4a110.697 110.697 0 0 1-1.35-4.4c-1.224-.968-2.207-1.802-2.95-2.5.077.314.144.647.2 1 .333 2.333.667 3.85 1 4.55l-.25.25c-.967-.867-1.616-2.2-1.95-4a76.625 76.625 0 0 0-.25-1.25c-.51.133-1.11.2-1.8.2-1.33 0-2.354-.558-3.075-1.675-.678.45-1.569.675-2.675.675-1.934 0-3.417-.833-4.45-2.5-.024-.04-.05-.081-.075-.125-.056.537-.114 1.079-.175 1.625 0 .433.167 1.5.5 3.2.041.209.083.41.125.6 2.008.5 3.55 1.316 4.625 2.45 1.033 1.1 2.066 2.517 3.101 4.25.933 1.167 2.3 1.75 4.1 1.75.967 0 2.467.583 4.5 1.75 2 1.167 3 1.967 3 2.4 0 .571-.142 1.08-.425 1.524 1.446 3.779 2.672 7.404 3.675 10.875l-.25.25c-.9-2.033-1.8-4.3-2.7-6.8a83.117 83.117 0 0 1-1.225-3.725c-.085.076-.177.15-.275.225-.866.667-2.05 1-3.55 1a86.394 86.394 0 0 1-.925-.65c.265.427.572.91.925 1.45 1.5 2.533 2.25 4.467 2.25 5.8 0 .5-.05.934-.15 1.301l-.3.899h-.3c-.3-1.767-1.184-4.116-2.65-7.05-.897-1.817-1.497-3.093-1.8-3.825a150.708 150.708 0 0 1-2.149-1.5c-.154 2.596.045 4.87.6 6.825l-.25.25c-.767-.667-1.233-1.417-1.4-2.25-.066-.3-.1-1.05-.1-2.25 0-1.233.033-2 .1-2.3.051-.354.134-.637.25-.851-3.728-2.701-6.953-5.159-9.675-7.375-.329.264-.712.539-1.149.825 1.507 1.455 2.249 2.438 2.225 2.95-.063.761-.122 1.477-.175 2.15 1.056.76 2.097 1.744 3.125 2.95 1.2 1.4 2.517 3.267 3.95 5.601a205.79 205.79 0 0 1 2.899 4.85c-.033.334-.083.55-.149.65-.101.233-.4.35-.9.35-.291 0-.866-.358-1.725-1.075.323 1.224.665 2.648 1.024 4.275 1.101 3.4 3.017 5.917 5.75 7.55l.2.45c-.066.2-.15.333-.25.4-.134.1-.467.149-1 .149-2 0-3.833-2.633-5.5-7.899-.65-2.65-1.134-4.643-1.45-5.976-1.233-1.125-2.816-2.684-4.75-4.675a222.475 222.475 0 0 0-1.7-1.75c-.033.595-.05.961-.05 1.1 0 .434.167 1.284.5 2.551.334 1.267.5 2.1.5 2.5 0 .733-.05 1.166-.149 1.3-.101.1-.434.2-1 .3a4.195 4.195 0 0 0-.301.05c1.31 1.504 2.019 2.871 2.125 4.101 1.265.648 2.507 1.499 3.726 2.55 3.3 2.833 5.083 5.533 5.35 8.1l-.149.3c.812.763 1.812 1.612 3 2.551 4.8 3.8 7.267 5.767 7.399 5.899-.033.3-.366.467-1 .5-3.967-2.866-6.517-4.8-7.649-5.8-1.321-1.148-2.363-2.207-3.125-3.175a95.285 95.285 0 0 1-2.625-1.8c.231.844.481 1.835.75 2.975.566 2.467 1.85 4.483 3.85 6.05 0 .167-.417.25-1.25.25-.8 0-1.866-1.8-3.2-5.399-.88-2.415-1.43-4.065-1.649-4.95a175.109 175.109 0 0 1-2.7-1.976c.018.075.034.15.05.226.5 2.399.75 4.083.75 5.05 0 1.1-.017 1.684-.05 1.75-.101.333-.533.583-1.3.75-.585.058-1.193.125-1.825.2 1.363 1.363 2.255 2.563 2.675 3.6.065.393.124.817.175 1.275 1.478.6 2.903 1.375 4.275 2.325 3.566 2.466 5.35 4.916 5.35 7.35v.1a605.582 605.582 0 0 0 4.45 5.101c2.667 3.066 4.35 5.517 5.05 7.35-1.066-.733-3.217-3.116-6.45-7.149-1.36-1.685-2.436-3.06-3.225-4.125-.05.301-.075.626-.075.975.066.1.084.2.05.3-.033.167-.316.25-.85.25-.047 0-.347-.208-.9-.625a2.71 2.71 0 0 0-.05.575c0 .6.9 2.6 2.7 6 1.8 3.467 3.066 5.566 3.8 6.3-1.566-.7-3.283-2.934-5.149-6.7-1.601-3.233-2.4-5.233-2.4-6 0-.533.05-.816.15-.85a.249.249 0 0 1 .074-.025 320.851 320.851 0 0 1-4.675-3.725c-.606-.489-1.198-.965-1.774-1.425.017.719.024 1.478.024 2.274 0 .323-.2.724-.6 1.2.573.757.924 1.507 1.05 2.25.03.182.214 1.424.55 3.726.367.096.751.221 1.15.375 4.233 1.699 6.35 4.483 6.35 8.35 0 .833-.083 1.167-.25 1l-.399.25a1.614 1.614 0 0 1-.325.15c.868 1.312 2.01 2.913 3.425 4.8 2.8 3.767 4.467 6.05 5 6.85 0 .3-.167.467-.5.5-.767-.8-2.533-3.116-5.3-6.95-1.645-2.261-2.828-3.961-3.55-5.1a4.41 4.41 0 0 1-1.226-.25c.073.941.099 2.392.075 4.35-.033 2.4.233 3.967.8 4.7l.2.25c-.167.134-.667.2-1.5.2-.134-1-.2-2.65-.2-4.95 0-1.822.05-3.397.15-4.725-.968-.374-2.101-1.016-3.4-1.925a6.875 6.875 0 0 1-.95 2.125c.49.886.891 1.827 1.2 2.824.634 2.101.95 5.334.95 9.7v.625c.755.525 1.655 1.167 2.7 1.925 5.533 4.067 10.55 6.034 15.05 5.9-.1.033-.25.3-.45.8-.133.334-1.066.5-2.8.5-3.033 0-7.45-1.85-13.25-5.55l-1.35-.95c-.096 1.496-.279 2.462-.551 2.9a4.105 4.105 0 0 1-1 1.149c.244 1.6.377 3.583.4 5.95 3.35.342 5.684.842 7 1.5-.267.434-.566.8-.9 1.101-.6.566-1.383.85-2.35.85-.675 0-1.933-.275-3.775-.825-.064 1.797-.224 3.021-.475 3.675.119.215.235.432.35.65 2.603 5.016 3.978 8.79 4.125 11.325 2.845.625 4.854 1.033 6.025 1.225-.667.167-1.417.25-2.25.25-.921 0-2.18-.116-3.775-.35-.158 1.352-.8 2.302-1.925 2.85-.678.234-1.361.476-2.05.726.147.386.281.777.4 1.175.562 1.841.861 4.249.899 7.225 2.541 1.28 4.374 1.905 5.5 1.875l-.05.75c-.8.334-1.616.5-2.45.5-.681 0-1.689-.425-3.024-1.274-.055 1.947-.263 3.173-.625 3.675a4.026 4.026 0 0 1-.4.45 9.73 9.73 0 0 1 1 1.899c.5 1.334.75 3.767.75 7.3 0 .53-.025 1.047-.075 1.551.188.082.313.132.375.149l.05.075c.979.406 1.962.714 2.95.925l-.05.7c-.833.167-1.667.25-2.5.25-.369 0-.744-.042-1.125-.125a13.987 13.987 0 0 1-.875 2.575c-.774 1.681-1.841 2.989-3.2 3.925a9.46 9.46 0 0 1 .7 2.125c.333 1.8.5 4.083.5 6.85 0 3.834-.983 7.233-2.95 10.2-.188.285-.381.561-.575.825.021.146.179 3.062.476 8.75 1.803 2.283 3.353 5.259 4.649 8.925 1 2.767 2.384 6.934 4.15 12.5.767 2.9 1.783 7.084 3.05 12.55.116.427.232.852.351 1.275-1.486-3.78-3.069-8.139-4.75-13.075-2.861-8.363-5.304-14.938-7.325-19.725.019.267.035.541.05.825.064 1.234.073 2.418.025 3.55 1.843 4.81 3.859 10.977 6.05 18.5 3.399 11.733 5.1 20.267 5.1 25.6 0 .3.4 2 1.2 5.101.9 3.433 1.417 5.483 1.55 6.149-.233-.899-2.783-10.783-7.649-29.649-2.421-9.328-4.562-17.244-6.426-23.75a21.507 21.507 0 0 1-.899 4.125c2.175 4.739 3.816 10.697 4.925 17.875.8 5.166 1.717 12.883 2.75 23.149l-.25.25c-.967-3.8-2.35-11.25-4.15-22.35-1.14-6.991-2.373-12.916-3.699-17.775a15.51 15.51 0 0 1-1.226 2.425c.905 4.848 1.563 10.664 1.976 17.45.899 14.634 1.35 21.967 1.35 22l-.25.25c-1.267-5.899-2.2-13.166-2.8-21.8-.371-6.738-.721-12.33-1.05-16.775a14.16 14.16 0 0 1-2.65 2.726c1.672-12.572 1.922-19.872.75-21.9-1.169-2.023-1.743-3.115-1.725-3.274-.26.017-.518.024-.775.024a3.14 3.14 0 0 1-1.75-.524 3.134 3.134 0 0 1-1.75.524h-.8c.033.134-.534 1.217-1.7 3.25s-.917 9.334.75 21.9c-1-.8-1.883-1.7-2.65-2.7-.333 4.434-.684 10.017-1.05 16.75-.6 8.634-1.533 15.9-2.8 21.8l-.25-.25c0-.033.45-7.366 1.35-22 .4-6.8 1.05-12.616 1.95-17.45a16.181 16.181 0 0 1-1.2-2.399c-1.333 4.833-2.567 10.75-3.7 17.75-1.8 11.1-3.183 18.55-4.15 22.35l-.25-.25c1.033-10.267 1.95-17.983 2.75-23.149 1.1-7.167 2.733-13.117 4.9-17.851-.4-1.3-.7-2.684-.9-4.149-1.833 6.5-3.967 14.416-6.4 23.75-4.867 18.866-7.417 28.75-7.65 29.649.133-.666.65-2.717 1.55-6.149.8-3.101 1.2-4.801 1.2-5.101 0-5.333 1.7-13.866 5.1-25.6 2.2-7.533 4.217-13.7 6.05-18.5a63.633 63.633 0 0 1 0-3.55 7.44 7.44 0 0 0 .05-.801c-2 4.767-4.433 11.334-7.3 19.7-1.667 4.934-3.25 9.3-4.75 13.101.133-.434.25-.867.35-1.301 1.267-5.466 2.283-9.649 3.05-12.55 1.767-5.566 3.15-9.733 4.15-12.5 1.3-3.666 2.85-6.633 4.65-8.899.3-5.7.45-8.617.45-8.75-.167-.267-.35-.551-.55-.851-1.967-2.967-2.95-6.366-2.95-10.2 0-2.767.167-5.05.5-6.85.167-.767.4-1.467.7-2.1-1.367-.967-2.434-2.284-3.2-3.95-.367-.8-.667-1.65-.9-2.55a6.2 6.2 0 0 1-1.1.1c-.833 0-1.667-.083-2.5-.25l-.05-.7c1-.2 1.983-.5 2.95-.899l.05-.101c.066-.033.183-.083.35-.149-.033-.5-.05-1.017-.05-1.551 0-3.533.25-5.966.75-7.3a10.5 10.5 0 0 1 1-1.899 4.368 4.368 0 0 1-.4-.45c-.367-.5-.583-1.717-.65-3.65-1.333.834-2.333 1.25-3 1.25-.833 0-1.65-.166-2.45-.5l-.05-.75c1.133.033 2.966-.583 5.5-1.85.033-3 .333-5.417.9-7.25.133-.4.267-.783.4-1.15a77.12 77.12 0 0 0-2.05-.75c-1.133-.533-1.784-1.483-1.95-2.85-1.567.233-2.817.35-3.75.35-.833 0-1.583-.083-2.25-.25 1.167-.2 3.167-.6 6-1.2.167-2.566 1.55-6.35 4.15-11.35.1-.233.217-.45.35-.65-.267-.666-.433-1.883-.5-3.649-1.833.533-3.083.8-3.75.8-.967 0-1.75-.283-2.35-.85a5.003 5.003 0 0 1-.9-1.101c1.333-.666 3.667-1.166 7-1.5.033-2.366.167-4.35.4-5.95a4.69 4.69 0 0 1-1-1.149c-.267-.433-.45-1.4-.55-2.9-.434.3-.883.617-1.35.95-5.8 3.7-10.217 5.55-13.25 5.55-1.733 0-2.667-.166-2.8-.5-.2-.5-.35-.767-.45-.8 4.5.134 9.517-1.833 15.05-5.9a56.168 56.168 0 0 1 2.7-1.899v-.65c0-4.366.317-7.6.95-9.7.3-1 .7-1.933 1.2-2.8a7.306 7.306 0 0 1-.95-2.149c-1.3.899-2.434 1.55-3.4 1.949.1 1.301.15 2.867.15 4.7 0 2.3-.067 3.95-.2 4.95-.833 0-1.333-.066-1.5-.2l.2-.25c.566-.733.833-2.3.8-4.7-.033-1.966-.017-3.416.05-4.35-.433.167-.833.25-1.2.25-.733 1.134-1.917 2.833-3.55 5.1-2.767 3.834-4.533 6.15-5.3 6.95-.333-.033-.5-.2-.5-.5.533-.8 2.2-3.083 5-6.85 1.4-1.9 2.533-3.5 3.4-4.8-.1-.034-.2-.084-.3-.15l-.4-.25c-.167.167-.25-.167-.25-1 0-3.866 2.117-6.65 6.35-8.35a5.63 5.63 0 0 1 1.15-.351c.333-2.333.517-3.583.55-3.75.133-.733.483-1.483 1.05-2.25-.4-.467-.6-.866-.6-1.2v-2.25c-.567.434-1.15.9-1.75 1.4a661.16 661.16 0 0 1-4.7 3.75h.1c.1.033.15.316.15.85 0 .767-.8 2.767-2.4 6-1.867 3.767-3.583 6-5.15 6.7.733-.733 2-2.833 3.8-6.3 1.8-3.4 2.7-5.4 2.7-6 0-.233-.017-.417-.05-.55-.566.399-.867.6-.9.6-.533 0-.817-.083-.85-.25a.33.33 0 0 1 .05-.3c0-.333-.034-.65-.1-.95-.767 1.033-1.833 2.4-3.2 4.101-3.233 4.033-5.383 6.416-6.45 7.149.7-1.833 2.383-4.283 5.05-7.35a533.257 533.257 0 0 0 4.45-5.101v-.1c0-2.434 1.783-4.884 5.35-7.35a22.962 22.962 0 0 1 4.25-2.301c.067-.466.133-.899.2-1.3.433-1.033 1.317-2.233 2.65-3.6l-1.8-.2c-.767-.167-1.2-.417-1.3-.75-.033-.066-.05-.65-.05-1.75 0-.967.25-2.65.75-5.05 0-.066.017-.134.05-.2-.966.7-1.867 1.35-2.7 1.95-.233.899-.783 2.55-1.65 4.95-1.333 3.6-2.4 5.399-3.2 5.399-.833 0-1.25-.083-1.25-.25 2-1.566 3.283-3.583 3.85-6.05.267-1.134.517-2.116.75-2.95-.967.667-1.85 1.267-2.65 1.8-.733.967-1.767 2.017-3.1 3.15-1.133 1-3.684 2.934-7.65 5.8-.633-.033-.967-.2-1-.5.133-.133 2.6-2.1 7.4-5.899 1.2-.934 2.2-1.784 3-2.551a1.256 1.256 0 0 0-.15-.3c.267-2.566 2.05-5.267 5.35-8.1 1.233-1.066 2.467-1.917 3.7-2.55.133-1.233.85-2.601 2.15-4.101a.953.953 0 0 0-.3-.05c-.567-.1-.9-.2-1-.3-.1-.134-.15-.566-.15-1.3 0-.4.167-1.233.5-2.5.333-1.267.5-2.117.5-2.551 0-.133-.017-.5-.05-1.1-.533.566-1.1 1.15-1.7 1.75-1.934 2-3.517 3.566-4.75 4.7-.333 1.3-.817 3.283-1.45 5.95-1.667 5.267-3.5 7.899-5.5 7.899-.533 0-.867-.05-1-.149-.1-.067-.183-.2-.25-.4l.2-.45c2.733-1.633 4.65-4.149 5.75-7.55.367-1.634.7-3.05 1-4.25-.833.7-1.4 1.05-1.7 1.05-.5 0-.8-.116-.9-.35-.067-.101-.117-.316-.15-.65 1.167-2 2.133-3.616 2.9-4.85 1.433-2.334 2.75-4.2 3.95-5.601 1.034-1.199 2.067-2.183 3.1-2.95a57.368 57.368 0 0 0-.15-2.15c-.033-.5.7-1.483 2.2-2.95-.434-.3-.817-.566-1.15-.8-2.7 2.2-5.917 4.65-9.65 7.35.1.2.184.483.25.851.067.3.1 1.066.1 2.3 0 1.2-.033 1.95-.1 2.25-.167.833-.633 1.583-1.4 2.25l-.25-.25c.567-1.967.767-4.233.6-6.8-.7.467-1.417.967-2.15 1.5-.3.7-.9 1.967-1.8 3.8-1.467 2.934-2.35 5.283-2.65 7.05h-.3l-.3-.899c-.1-.367-.15-.801-.15-1.301 0-1.333.75-3.267 2.25-5.8.367-.533.667-1.017.9-1.45-.3.2-.6.417-.9.65-1.5 0-2.683-.333-3.55-1l-.3-.2a109.988 109.988 0 0 1-1.2 3.7c-.9 2.5-1.8 4.767-2.7 6.8l-.25-.25c1-3.467 2.217-7.083 3.65-10.85a3.065 3.065 0 0 1-.4-1.55c0-.434 1-1.234 3-2.4 2.033-1.167 3.533-1.75 4.5-1.75 1.8 0 3.167-.583 4.1-1.75 1.033-1.733 2.066-3.15 3.1-4.25 1.066-1.133 2.6-1.95 4.6-2.45.067-.2.117-.4.15-.6.333-1.7.5-2.767.5-3.2l-.2-1.6c0 .033-.017.067-.05.1-1.034 1.667-2.517 2.5-4.45 2.5-1.1 0-2-.217-2.7-.65-.7 1.1-1.716 1.65-3.05 1.65-.7 0-1.3-.067-1.8-.2-.067.4-.15.817-.25 1.25-.333 1.8-.983 3.133-1.95 4l-.25-.25c.333-.7.667-2.216 1-4.55.067-.367.133-.7.2-1-.733.7-1.717 1.533-2.95 2.5-.3 1.1-.75 2.567-1.35 4.4-1.233 3.833-2.133 6.3-2.7 7.4-.067-.1-.133-.15-.2-.15-.033-.066-.05-.367-.05-.9 0-1.167.683-3.867 2.05-8.1.133-.433.267-.85.4-1.25a55.337 55.337 0 0 1-3 2.2c-.4 1.533-.933 3.733-1.6 6.6-.867 3.767-1.8 6.633-2.8 8.6l-.5-.05c-.2-1.2-.3-2.6-.3-4.2 0-2.166.283-4.45.85-6.85.167-.633.333-1.217.5-1.75-.867.5-1.667 1-2.4 1.5-.867 6.033-1.367 9.5-1.5 10.399-.833 5.467-1.717 10.284-2.65 14.45h-.3c-.067-.1-.133-.133-.2-.1v-.851c1.233-10 2.417-17.699 3.55-23.1-1.1.833-1.966 1.667-2.6 2.5-.867 1.167-1.65 2.116-2.35 2.85-.867 2.7-1.667 6.117-2.4 10.25-1.3 7.267-2.034 11.25-2.2 11.95h-.3c-.167-.633-.25-1.483-.25-2.55 0-1.5.533-4.9 1.6-10.2.7-3.5 1.4-6.267 2.1-8.3a2.67 2.67 0 0 1-.45-1c1.066-1.2 2.55-3.183 4.45-5.95 2-2.966 3.45-4.983 4.35-6.05a96.866 96.866 0 0 1 1.95-1.4.754.754 0 0 1-.25-.3c-.133-1.2-.2-2.7-.2-4.5 0-2.3.167-4.333.5-6.1l-.2.1a339.62 339.62 0 0 0-3.55 2.45v.25c0 .067-.333 2.383-1 6.95-.8 4.566-1.5 6.85-2.1 6.85-.833 0-1.05-.017-.65-.05l-.05-.25c.1-.9.65-3.267 1.65-7.1.667-2.467 1.083-4.467 1.25-6-.434.3-.883.617-1.35.95-.7 1.533-2.067 4.383-4.1 8.55-1.833 3.833-2.967 6.883-3.4 9.15h-.3c-.067-.1-.133-.15-.2-.15v-.9c0-2.967.883-6.2 2.65-9.7 1.1-2.2 2.317-4.117 3.65-5.75-.333.233-.683.483-1.05.75-.233-.033-.4-.1-.5-.2-.026-.026-.093-.143-.2-.35-.15.064-.292.114-.425.15-1.279 2.966-2.804 6.166-4.575 9.6-2.1 4.133-3.95 7.384-5.55 9.75.633-2.867 2.167-6.383 4.6-10.55 2.252-3.874 3.902-6.782 4.95-8.725a2.54 2.54 0 0 0-.2-.05c-.904 1.188-2.204 2.78-3.9 4.775-3.6 4.2-6.333 7.15-8.2 8.85l-.05-.25c2.7-3.1 4.867-5.633 6.5-7.6 2.098-2.513 3.781-4.721 5.05-6.625v-.325c0-.396.183-.83.55-1.3a60.51 60.51 0 0 1-2.2 1.05c-4.633 2.1-7.083 3.283-7.35 3.55l-.25-.25c1.267-1.133 3.6-2.633 7-4.5 3.341-1.843 5.708-2.843 7.1-3 .718-.337 1.385-.562 2-.675a56.835 56.835 0 0 1 2.05-1.725c.767-.6 1.517-1.15 2.25-1.65a45.573 45.573 0 0 1 4.2-8c1.633-2.467 3.217-4.2 4.75-5.2-2.867.333-7.983 1.233-15.35 2.7-.533 0-.917-.15-1.15-.45-.033 0-.15-.25-.35-.75a.273.273 0 0 1 .075-.05c-.28.071-.547.138-.8.2-.844.682-1.869 1.499-3.075 2.45.167.033.333.083.5.15l-.2.45c-.4.133-.867.233-1.4.3-2.934 2.467-4.4 3.983-4.4 4.55 0 .233.017.467.05.7.267.167.483.534.65 1.1.233.633.35 1.25.35 1.85 0 2-1.883 4.633-5.65 7.9-3.6 3.133-7.067 5.267-10.4 6.4v-.3c3.966-3.633 6.966-6.45 9-8.45 1.213-1.191 2.238-2.292 3.075-3.3-.481.198-1.006.398-1.575.6-.893.311-1.701.595-2.425.85-4.254 2.814-7.629 6.014-10.125 9.6-.7 1.034-1.967 3.15-3.8 6.35-1.5 2.6-2.883 4.65-4.15 6.15.767-1.3 1.883-3.667 3.35-7.1 1.367-3.2 2.6-5.667 3.7-7.4a23.06 23.06 0 0 1 5.525-5.975c-.396-.096-.654-.205-.775-.325.833-.8 2.233-2.35 4.2-4.65 1.745-1.366 4.012-2.133 6.8-2.3l-.05-1.25c0-1.167 1.333-2.867 4-5.1-2.367-.267-4.717-1.067-7.05-2.4-1.967-1.1-3.2-2.017-3.7-2.75 3.8 1 7.983 2.233 12.55 3.7.574-.436 1.14-.844 1.7-1.225a.406.406 0 0 1-.1-.025c-.2-.167-.3-.533-.3-1.1 0-.31.167-.618.5-.925-1.193-.355-2.793-1.014-4.8-1.975-3.633-1.733-5.55-2.633-5.75-2.7.067-.1.3-.183.7-.25l.55-.05c2.68 1.438 6.497 2.713 11.45 3.825 1.658-.656 3.425-.881 5.3-.675-1.468-.526-3.368-1.342-5.7-2.45-3.167-1.5-5.466-2.717-6.9-3.65a8.023 8.023 0 0 0-.9 2.5c-.5-.033-.767-.2-.8-.5.733-3.267 3.183-6.1 7.35-8.5 3.467-2.033 7.184-2.95 11.15-2.75a11.325 11.325 0 0 1 3 0c.566-.733 1.333-1.316 2.3-1.75 2.567-1.167 6.083-.7 10.55 1.4a31.97 31.97 0 0 1-.05-1.85c0-.867.117-1.65.35-2.35-2.434-.433-6.633-1.333-12.6-2.7-8.533-2-13.483-3-14.85-3-1 0-5.566 1.95-13.7 5.85-9.867 4.7-15.434 7.317-16.7 7.85 1.9-1.667 5.85-4.283 11.85-7.85a494.196 494.196 0 0 1 4.75-2.8c-1.767.267-3.217.4-4.35.4-6.8 0-10.733-.283-11.8-.85a1.368 1.368 0 0 1-.6-.55c-.233-.2-.85-.3-1.85-.3-.067-.167.317-.25 1.15-.25 2 0 4.533-.117 7.6-.35-2.233-.4-4.117-1.15-5.65-2.25-1.8-1.233-2.767-2.534-2.9-3.9 3.667 2.4 7.267 3.667 10.8 3.8 4.4.2 8.2.533 11.4 1 .867-.067 1.667-.1 2.4-.1.333-.2.65-.367.95-.5a22.83 22.83 0 0 1 4.1-.75c-.934-.667-3.467-2.217-7.6-4.65-4.067-2.434-6.25-4.2-6.55-5.3.9.5 3.5 2.083 7.8 4.75 3.733 2.333 6.467 3.917 8.2 4.75-.034.1-.133.2-.3.3a35.94 35.94 0 0 1 3.8 0c-1.467-1.067-3.517-2.467-6.15-4.2-2.8-1.967-4.75-3.667-5.85-5.1 8.566 5.034 13.066 8.167 13.5 9.4.9.066 1.816.167 2.75.3-.8-.9-1.95-2.033-3.45-3.4-2.767-2.5-4.367-4.267-4.8-5.3.8.267 2.65 1.717 5.55 4.35 2.467 2.233 3.917 3.767 4.35 4.6 1.066.167 2.15.383 3.25.65-.633-.967-1.617-2.367-2.95-4.2-1.733-2.434-2.967-4.233-3.7-5.4.733.434 2.216 1.967 4.45 4.6 2.4 2.767 3.6 4.5 3.6 5.2v.1l1.1.3c1.733.6 3.367 1.15 4.9 1.65-.433-1.2-1.217-2.717-2.35-4.55-1.933-3.167-3-4.934-3.2-5.3a273.63 273.63 0 0 1 4.05 5c1.7 2.167 2.85 3.934 3.45 5.3l-.05.15c2.667.833 4.917 1.5 6.75 2 .567-.967 1.4-1.783 2.5-2.45 1.3-.733 2.417-.7 3.35.1.1-.633.583-1.417 1.45-2.35-.4-.5-.85-1.15-1.35-1.95-1.233-.233-3.483-.667-6.75-1.3-5.367-1.2-8.4-2.283-9.1-3.25 1.033.233 5.067.8 12.1 1.7.9.133 1.7.267 2.4.4-.833-1.667-1.45-3.017-1.85-4.05-.367.133-.917.2-1.65.2-2.767 0-5.433-.7-8-2.1-2-1.067-3.167-1.95-3.5-2.65.767 0 3.083.583 6.95 1.75 2.9.833 4.883 1.5 5.95 2-.133-.466-.2-.85-.2-1.15-1.467-1.433-3.083-3.25-4.85-5.45l-.1.1c-.833-.466-3.283-1.65-7.35-3.55-3.367-1.567-5.85-2.9-7.45-4l.55-.75c2.1.6 4.95 1.617 8.55 3.05 1.067.4 2 .784 2.8 1.15-1.367-1.9-2.817-4-4.35-6.3-1.3-.733-3.883-2.017-7.75-3.85-4.4-2.2-6.733-3.85-7-4.95l.25-.55c1.833.6 4.85 1.934 9.05 4a82.247 82.247 0 0 1 3.05 1.55 81.09 81.09 0 0 1-1.1-1.75c-1.867-3-3.55-5.833-5.05-8.5-4-2.367-8.567-5.317-13.7-8.85.1-.2.383-.367.85-.5l.65-.2c.833.633 3.95 2.567 9.35 5.8.433.267.833.517 1.2.75a149.213 149.213 0 0 1-3.25-6.6c-5.733-4.333-9.017-7.15-9.85-8.45 2.133-.167 4.733.934 7.8 3.3-.6-1.767-1.05-3.367-1.35-4.8-1.4-.833-3.3-2.316-5.7-4.45-.113-.1-.222-.2-.325-.3a5.18 5.18 0 0 0 .3-.35 23.187 23.187 0 0 0 2.275 1.6c1.267.8 2.333 1.467 3.2 2a15.23 15.23 0 0 1-.15-2.05v-.7c-3.533-4.533-5.3-7.05-5.3-7.55 0-.533.017-.833.05-.9.067-.033.133-.133.2-.3.8 1.5 2.4 3.7 4.8 6.6l.5.6a.448.448 0 0 0 .05-.2c-.133-.7-.283-1.417-.45-2.15-.367-2.133-.667-3.8-.9-5-1.934-3.467-3.65-7.433-5.15-11.9-2.267-8.067-3.966-13.967-5.1-17.7L22.208 0c1.167 2.934 4.05 9.917 8.65 20.95a47.392 47.392 0 0 1-.3-3.25c-.6-8.033-.95-12.417-1.05-13.15l.2-.55c.767 1.733 1.55 4.983 2.35 9.75-.2-3.9-.3-5.917-.3-6.05 0-1.233.15-2.483.45-3.75h.5c.233 3.067.483 7.433.75 13.1.1 2.767.183 4.917.25 6.45.2-1.667.4-3.433.6-5.3.8-7.367 1.284-11.683 1.45-12.95.5.7.817 1.934.95 3.7.033.5.05 2.033.05 4.6V22c-.3 3.7-.983 6.5-2.05 8.4 1 2.5 1.5 3.9 1.5 4.2 0 .533-.05.85-.15.95a1.08 1.08 0 0 1-.35.2l-.9-1.2c.167.533.35 1.066.55 1.6.367 1.066.683 2.083.95 3.05.7-1.3 1.25-2.383 1.65-3.25.966-2.2 1.65-4.267 2.05-6.2h.75c-.567 2.733-1.117 4.9-1.65 6.5-.6 1.833-1.35 3.45-2.25 4.85a79.915 79.915 0 0 1 1.9 4.15c.2.467 1.233 3.15 3.1 8.05.7-1.333 1.283-3.25 1.75-5.75.066-.3.433-2.65 1.1-7.05h.3c.167.833.25 1.733.25 2.7 0 1.467-.217 3.267-.65 5.4-.267 1.267-.733 3.3-1.4 6.1h-.8c.853 2.118 1.82 4.601 2.9 7.45.029-.357.096-.641.2-.85a.338.338 0 0 1 .05-.075l.65-11.275c.267.033.5.283.7.75.233.467.35 1 .35 1.6 0 1.548-.125 4.198-.375 7.95.04-.018.081-.035.125-.05.1.1.183.117.25.05.033.034.05.3.05.8 0 .433-.033.917-.1 1.45-.1.567-.15 1.05-.15 1.45l-.25.3h-.05c-.033.36-.117.593-.25.7-.033.033-.067.05-.1.05.1.267.2.517.3.75.991 2.555 2.708 5.621 5.15 9.2-.033-.267-.05-.684-.05-1.25 0-.154.008-.304.025-.45a.583.583 0 0 1-.125-.05c-.667-6-1-10.25-1-12.75l1.05.05c0 1.9.283 4.2.85 6.9.521 2.483.805 4.217.85 5.2.063.184.13.384.2.6.233.833.35 1.5.35 2 0 .567-.05.95-.15 1.15-.1.133-.3.267-.6.4a6.6 6.6 0 0 1-.25-.15 127.79 127.79 0 0 0 3.2 4.3c0-5.3.167-9.434.5-12.4h.3c.133 1.4.483 4.284 1.05 8.65.467 3.667.7 5.816.7 6.45 0 .167-.017.333-.05.5h.05a189.702 189.702 0 0 1 4.45 5.55c.733-1.167 2.183-.133 4.35 3.1a767.814 767.814 0 0 1 3.95 7.1c.967-.9 1.45-1.5 1.45-1.8a92.195 92.195 0 0 0-.1-2.2c0-1 .033-1.8.1-2.4 2.133.4 3.733 1.95 4.8 4.65 1.066-2.7 2.667-4.25 4.8-4.65.066.6.101 1.4.101 2.4a86.504 86.504 0 0 0-.101 2.2c0 .305.476.896 1.425 1.775a2842.77 2842.77 0 0 1 3.976-7.075c2.174-3.228 3.616-4.27 4.325-3.125a467.31 467.31 0 0 1 4.475-5.525l.025-.025a3.907 3.907 0 0 1-.025-.475c0-.633.233-2.783.7-6.45.566-4.367.916-7.25 1.05-8.65h.3c.319 2.971.486 7.104.5 12.4a125.027 125.027 0 0 0 2.625-3.5 8.006 8.006 0 0 1-.575-.5c-.199-.267-.3-.667-.3-1.2 0-.633.134-1.817.4-3.55.3-1.767.566-3.067.8-3.9l.425.275c.067-.354.143-.729.226-1.125.566-2.7.85-5 .85-6.9l1.05-.05c0 2.377-.3 6.336-.899 11.875v.025c.14.702.24 1.302.3 1.8 2.159-3.245 3.692-6.044 4.6-8.4.018-.045.034-.096.05-.15-.233-1.872-.35-3.172-.35-3.9 0-.481.05-.89.15-1.225-.267-3.869-.4-6.594-.4-8.175 0-.6.116-1.133.35-1.6.2-.467.434-.717.7-.75l.525 9.05a6.85 6.85 0 0 1 .425-.3c.2.1.483.233.85.4a.997.997 0 0 1 .2.2c.646-1.682 1.238-3.215 1.775-4.6h-.775c-.666-2.8-1.133-4.833-1.399-6.1-.434-2.133-.65-3.933-.65-5.4 0-.967.083-1.867.25-2.7h.3c.667 4.4 1.033 6.75 1.101 7.05.452 2.491 1.027 4.407 1.725 5.75 1.882-4.884 2.924-7.567 3.125-8.05a82.995 82.995 0 0 1 1.9-4.15c-.885-1.409-1.635-3.026-2.25-4.85-.534-1.6-1.084-3.767-1.65-6.5h.75c.4 1.934 1.083 4 2.05 6.2a62.77 62.77 0 0 0 1.625 3.25c.272-.952.597-1.968.976-3.05.184-.541.358-1.074.524-1.6-.289.411-.58.811-.875 1.2a1.066 1.066 0 0 1-.35-.2c-.101-.1-.15-.417-.15-.95 0-.302.492-1.702 1.476-4.2-1.055-1.915-1.729-4.715-2.025-8.4v-8.45c0-2.567.017-4.1.05-4.6.134-1.767.45-3 .95-3.7.167 1.267.65 5.583 1.45 12.95.202 1.876.402 3.634.6 5.275.053-1.51.137-3.652.25-6.425.267-5.667.517-10.033.75-13.1h.5c.3 1.267.45 2.517.45 3.75 0 .133-.108 2.142-.325 6.025.806-4.76 1.597-8.002 2.375-9.725l.2.55c-.1.733-.45 5.117-1.05 13.15a73.824 73.824 0 0 1-.3 3.225C129.27 9.909 132.154 2.934 133.307 0l.25.75zm-4.024 141.95h-.15a3.1 3.1 0 0 0 .05.1.944.944 0 0 1 .1-.1zm.599 1.35c.074.118.148.235.225.35.398.094.79.194 1.176.3-.491-.233-.957-.45-1.401-.65zM45.407 147c.033.167.05.35.05.55 0 .733-.1 2.333-.3 4.8-.167 2.434-.367 4.45-.6 6.05 2-1.333 4.067-2.567 6.2-3.7 1.4-.733 2.55-1.267 3.45-1.6.066-.367.167-.667.3-.9.333-.6 1.083-1.1 2.25-1.5 1.367-.1 2.467-.083 3.3.05.467-2.233 2.017-3.483 4.65-3.75 1.267-.133 2.35.117 3.25.75-.133-1.2-.267-2.35-.4-3.45-.367.133-.8.2-1.3.2-.833 0-1.55-.066-2.15-.2-.333.1-.7.217-1.1.35-2.467.733-4.217 1.1-5.25 1.1-.6 0-1.133-.05-1.6-.15-.267 1.333-.583 2.467-.95 3.4-.1 0-.383.067-.85.2-.1.033-.15-.2-.15-.7 0-.466.267-1.633.8-3.5-.133-.167-.467-.667-1-1.5-.9.233-1.8.5-2.7.8a.547.547 0 0 1 .1.15c.233.567.35 1.15.35 1.75 0 .667-.167 1.717-.5 3.15-.433 1.967-.95 3.267-1.55 3.9.066-1.133.3-2.7.7-4.7.4-1.867.6-3.184.6-3.95v-.2a30.514 30.514 0 0 0-5.6 2.6zm.1-29.2c0-.4.017-.783.05-1.15a26.035 26.035 0 0 0-4 2.3c-1.333.867-2.383 1.633-3.15 2.3-.833 0-1.05-.1-.65-.3l-.55-1.2c.167-1.2.533-2.233 1.1-3.1-5.767 1.333-9.533 3.4-11.3 6.2 6.167 2.434 11.167 4.233 15 5.4a31.134 31.134 0 0 1 2.35-1.05c-1.233-.5-2.95-1.367-5.15-2.6-3.567-2-6.233-3.7-8-5.1 3.966 1.633 6.783 2.817 8.45 3.55 2.367 1.033 4.467 2.2 6.3 3.5 1.433-.567 2.716-.934 3.85-1.1a.571.571 0 0 0-.2.2l-.35.8c.093 0 .318-.133.675-.4.2-.701.658-.967 1.375-.8.067.018.134.034.2.05.933-.033 1.75.1 2.45.4.3-.167.65-.317 1.05-.45 1.467-.433 3.333-.316 5.6.35.677.19 1.327.407 1.95.65v-.05c.484-.134 1.701-.218 3.65-.25.076-1.455.525-3.388 1.35-5.8-.566.033-1.167.05-1.8.05-2.933 0-4.85-1.433-5.75-4.3-6.733-.3-10.317-.434-10.75-.4-1.5.167-2.25 1.1-2.25 2.8 0 .433.167.733.5.9.333.2.5.5.5.9 0 .533-.217.75-.65.65a1.54 1.54 0 0 1-.6-.25c-.833-.733-1.25-1.633-1.25-2.7zm49.975-1.925c-.872 2.883-2.78 4.325-5.725 4.325a30.3 30.3 0 0 1-1.8-.05c.899 2.624 1.35 4.69 1.35 6.2 0 .546-.017 1.213-.05 2a.263.263 0 0 1 .05-.05c1.601-1.2 3.467-2.1 5.601-2.7 2.267-.667 4.133-.783 5.6-.35l.075.025c.02-.063.045-.105.075-.125.066-.034.116-.017.149.05a4.743 4.743 0 0 1 1.726.2 6.977 6.977 0 0 1 1.475-.125 6.753 6.753 0 0 0-1.075.275c.146.057.288.124.425.2-.033-.167.217-.25.75-.25.467 0 .934.167 1.4.5.4.3.65.45.75.45l-.35-.8a1.267 1.267 0 0 0-.226-.225c1.142.198 2.426.565 3.851 1.1 1.85-1.274 3.958-2.433 6.324-3.475 1.667-.733 4.483-1.917 8.45-3.55-1.767 1.4-4.434 3.1-8 5.1-2.216 1.227-3.933 2.093-5.149 2.6.816.344 1.591.694 2.324 1.05 3.837-1.165 8.837-2.973 15-5.425-1.762-2.778-5.528-4.836-11.3-6.175.584.86.959 1.893 1.125 3.1l-.55 1.2c.4.2.184.3-.65.3-.767-.667-1.816-1.433-3.149-2.3a29.672 29.672 0 0 0-4.025-2.3c.05.368.075.751.075 1.15 0 1.066-.417 1.967-1.25 2.7-.2.133-.4.217-.6.25-.434.1-.65-.117-.65-.65 0-.4.167-.7.5-.9.333-.167.5-.467.5-.9 0-1.7-.75-2.633-2.25-2.8-.444-.029-4.036.096-10.776.375zM67.057 138.95c-.167-1.767-.3-3.367-.4-4.8-.267.033-.566.05-.9.05-3.4 0-6.4-.483-9-1.45a3.716 3.716 0 0 1-.65-.25l-9.1 9.6c1.867-.933 3.533-1.4 5-1.4 2.167 0 6-.417 11.5-1.25.6-.4 1.417-.6 2.45-.6.4 0 .767.033 1.1.1zm36-10.325v.15c.142-.043.274-.085.4-.125l-.4-.025zm1.55-.35l.2-.075a1.656 1.656 0 0 0-.1-.125.959.959 0 0 1-.1.2zm-15.75 5.875a340.661 340.661 0 0 1-.425 4.775c.343-.044.718-.07 1.125-.075 1.03-.014 1.847.187 2.45.6 5.5.833 9.333 1.25 11.5 1.25 1.471 0 3.138.458 5 1.375l-9.1-9.575c-.208.085-.425.168-.65.25-2.6.967-5.6 1.45-9 1.45-.324 0-.624-.016-.9-.05zm15.65 10.45c0 .767.2 2.083.6 3.95.4 2 .634 3.566.7 4.7-.6-.633-1.116-1.933-1.55-3.9-.333-1.433-.5-2.483-.5-3.15a4.544 4.544 0 0 1 .425-1.925 35.453 35.453 0 0 0-2.675-.775c-.523.832-.865 1.324-1.025 1.475.551 1.893.825 3.068.825 3.525 0 .5-.05.733-.149.7-.467-.133-.75-.2-.851-.2-.355-.938-.681-2.079-.975-3.425-.439.117-.964.175-1.575.175-1.033 0-2.783-.367-5.25-1.1-.403-.124-.778-.241-1.125-.35-.582.133-1.29.2-2.125.2a3.66 3.66 0 0 1-1.325-.225 759.824 759.824 0 0 0-.375 3.475c.9-.633 1.983-.883 3.25-.75 2.646.251 4.188 1.501 4.625 3.75.854-.145 1.962-.162 3.325-.05 1.167.4 1.917.9 2.25 1.5.136.226.228.526.275.9.923.331 2.081.864 3.475 1.6a70.93 70.93 0 0 1 6.175 3.7c-.206-1.615-.397-3.632-.575-6.05-.199-2.467-.3-4.066-.3-4.8 0-.202.009-.393.025-.575a32.862 32.862 0 0 0-5.575-2.575v.2z" fill-rule="evenodd"/></svg>