<svg xmlns="http://www.w3.org/2000/svg" xmlns:dc="http://dublincore.org/documents/dcmi-terms/" height="294.41" width="285.979"><metadata><dc:description>Silhouette of Desulfuromonadales, processed by PhyloPic Tools (https://github.com/eweitz/phylopic-tools)</dc:description><dc:source>http://phylopic.org/image/cbff02ef-5b26-43ee-b8ff-ba7fe1b820f2</dc:source><dc:creator>Matt Crook</dc:creator><dc:license>http://creativecommons.org/licenses/by-sa/3.0/</dc:license></metadata><g transform="translate(-247.594 -455.854)" stroke="#000" stroke-linecap="round"><path d="M347.817 746.543c24.398 6.66 51.53 1.443 65.394-19.548 13.864-20.99 11.517-58.536 2.11-82.653-9.406-24.116-25.284-54.55-15.66-85.99 9.623-31.44 37.32-53.164 53.263-62.148" fill="none" stroke-width="2"/><path d="M250.653 708.645c-4.625-18.85-1.796-44.952 11.926-58.923 13.723-13.97 38.012-15.88 61.53-7.511 23.517 8.369 45.488 35.665 67.84 53.549 22.352 17.884 34.546 29.226 53.104 30.387 18.558 1.162 37.002-14.314 45.652-24.208" fill="none" stroke-width="2"/><rect height="40.878" ry="20.439" style="marker:none" transform="rotate(63.084)" width="84.99" x="605.289" y="-198.566" color="#000" fill="#333" stroke-width="2" stroke-linejoin="round" overflow="visible"/><rect height="40.878" ry="20.439" style="marker:none" transform="rotate(21.956)" width="84.99" x="671.861" y="436.595" color="#000" fill="#333" stroke-width="2" stroke-linejoin="round" overflow="visible"/><path d="M284.455 566.946a21.305 21.881 0 1 1-42.61 0 21.305 21.881 0 1 1 42.61 0z" style="marker:none" transform="matrix(.48736 -.44077 .42917 .47453 90.882 364.582)" color="#000" stroke-width="3.084" stroke-linejoin="round" overflow="visible"/><path d="M284.455 566.946a21.305 21.881 0 1 1-42.61 0 21.305 21.881 0 1 1 42.61 0z" style="marker:none" transform="matrix(.48736 -.44077 .42917 .47453 70.125 323.284)" color="#000" stroke-width="3.084" stroke-linejoin="round" overflow="visible"/><path d="M284.455 566.946a21.305 21.881 0 1 1-42.61 0 21.305 21.881 0 1 1 42.61 0z" style="marker:none" transform="matrix(.07718 -.65256 .6354 .07515 132.52 828.826)" color="#000" stroke-width="3.084" stroke-linejoin="round" overflow="visible"/><path d="M284.455 566.946a21.305 21.881 0 1 1-42.61 0 21.305 21.881 0 1 1 42.61 0z" style="marker:none" transform="matrix(.07718 -.65256 .6354 .07515 89.72 811.37)" color="#000" stroke-width="3.084" stroke-linejoin="round" overflow="visible"/></g></svg>