<svg xmlns="http://www.w3.org/2000/svg" xmlns:dc="http://dublincore.org/documents/dcmi-terms/" height="143.5" width="155.992"><metadata><dc:description>Silhouette of Desulfurella acetivorans, processed by PhyloPic Tools (https://github.com/eweitz/phylopic-tools)</dc:description><dc:source>http://phylopic.org/image/16d5eac2-ed46-496e-8d91-7bb02a2458f7</dc:source><dc:creator>Matt Crook</dc:creator><dc:license>http://creativecommons.org/licenses/by-sa/3.0/</dc:license></metadata><g transform="translate(-289.215 -619.51)" stroke-width="2"><rect height="72.574" rx="72.574" ry="36.287" style="marker:none" transform="rotate(-41.083)" width="190.984" x="-273.397" y="726.57" color="#000" stroke="#000" stroke-linecap="round" stroke-linejoin="round" overflow="visible"/><path d="M380.157 636.296a4.297 4.297 0 1 1 .416-6.063M405.436 704.476a4.297 4.297 0 1 0 3.428 5.019M369.76 736.849a4.297 4.297 0 1 0-2.174 5.675M341.454 753.632a4.297 4.297 0 1 1 3.732 4.796M342.57 658.278a4.297 4.297 0 1 1 3.73 4.796M358.631 646.636a4.297 4.297 0 1 1-6.014.875M308.604 699.4a4.297 4.297 0 1 1-4.542-4.037M295.855 718.787a4.297 4.297 0 1 0 .328-6.068M329.795 677.795a4.297 4.297 0 1 0 .329-6.068M336.848 677.227a6.5 6.5 0 1 0-9.19.252" style="marker:none" color="#000" fill="none" stroke="#000" stroke-linecap="round" stroke-linejoin="round" overflow="visible"/><path d="M417.953 703.5c1.136.151 1.822 1.311 1.651 2.396-.229 1.454-1.724 2.322-3.12 2.077-1.81-.319-2.883-2.192-2.55-3.939.42-2.206 2.715-3.505 4.852-3.072 2.641.537 4.19 3.296 3.642 5.862a5.374 5.374 0 0 1-.494 1.367" fill="none" stroke="#000" stroke-linecap="round"/><path d="M382.52 621.568a4.297 4.297 0 0 1 6.062.415" style="marker:none" color="#000" fill="none" stroke="#000" stroke-linecap="round" stroke-linejoin="round" overflow="visible"/><rect height="62.574" rx="61.154" ry="31.287" style="marker:none" transform="rotate(-41.083)" width="160.931" x="-268.397" y="731.57" color="#000" fill="#333" overflow="visible"/><path d="M340.623 673.607a18.92 18.92 0 0 0 4.058 7.698c6.896 7.91 18.898 8.73 26.807 1.835 1.305-1.137 2.38-2.453 3.297-3.827-7.522 3.64-16.81 2.022-22.566-4.58-2.005-2.3-3.322-4.954-4.034-7.718l-7.562 6.592zM385.018 692.572a18.917 18.917 0 0 0-5.146 7.222c7.2-5.419 17.203-4.978 23.904.884a107.474 107.474 0 0 0 6.579-7.767c-7.034-6.477-17.963-6.768-25.337-.34z" style="marker:none" color="#000" fill="#666" overflow="visible"/></g></svg>