<svg xmlns="http://www.w3.org/2000/svg" xmlns:dc="http://dublincore.org/documents/dcmi-terms/" height="178.319" width="199.222"><metadata><dc:description>Silhouette of Desulfarculales, processed by PhyloPic Tools (https://github.com/eweitz/phylopic-tools)</dc:description><dc:source>http://phylopic.org/image/d75e5f21-0722-4950-a0da-0cef625867c0</dc:source><dc:creator>Matt Crook</dc:creator><dc:license>http://creativecommons.org/licenses/by-sa/3.0/</dc:license></metadata><path d="M12.496 177.56c6.565 1.293 10.956-2.372 13.467-8.254 2.511-5.882 2.407-15.272 6.951-25.631 4.544-10.36 13.578-24.878 25.197-33.886 11.619-9.007 27.72-15.664 39.533-16.508 11.813-.843 21.733 4.336 32.582 4.779 10.848.443 25.63-.86 34.32-6.082 8.69-5.223 6.571-5.495 12.598-16.508 6.026-11.014 16.551-41.736 18.68-51.263 2.129-9.526 6.238-19.324-2.172-23.024-8.41-3.7-19.764 8.493-26.935 16.074-7.17 7.58-14.643 22.023-19.983 28.237-5.34 6.215-6.485 7.086-12.164 9.558-5.68 2.471-13.132 1.793-18.68 3.91-5.549 2.115-6.42 3.969-16.074 6.081-9.654 2.113-24.983-2.632-38.23 0C48.34 67.676 31.26 77.38 22.488 86.33c-8.772 8.952-11.536 18.692-13.902 27.804-2.366 9.111-1.558 11.756-3.04 19.549-1.483 7.792-6.21 19.98-4.78 28.237 1.431 8.257 5.165 14.347 11.73 15.64z" stroke="#000"/></svg>