<svg xmlns="http://www.w3.org/2000/svg" xmlns:dc="http://dublincore.org/documents/dcmi-terms/" height="387.857" width="305.251"><metadata><dc:description>Silhouette of Desulfurispira natronophila, processed by PhyloPic Tools (https://github.com/eweitz/phylopic-tools)</dc:description><dc:source>http://phylopic.org/image/952d285b-a088-48ca-adc6-085f9d2000a2</dc:source><dc:creator>Matt Crook</dc:creator><dc:license>http://creativecommons.org/licenses/by-sa/3.0/</dc:license></metadata><g fill="none" stroke="#000" stroke-linecap="round"><path d="M130.311 284.554c.71-8.792 6.557-19.737 11.278-25.208s13.13-14.213 29.7-14.178c16.572.036 33.158 12.75 46.785 12.176 13.627-.572 26.374-7.338 30.856-18.368 4.482-11.03 3.516-17.209.458-27.83-3.058-10.622-11.908-23.213-18.446-30.246" stroke-width="25"/><path d="M1 336.203c5.476-4.052 14.459-7.4 23.277-7.561 8.819-.16 19.367 3.388 29.101 9.916 9.734 6.528 17.73 19.272 26.841 27.6 9.11 8.328 14.207 15.667 24.883 18.674 10.677 3.007 24.604 2.835 35.538-1.657 10.933-4.491 22.173-13.434 27.82-23.714 5.647-10.28 5.82-23.638 3.676-33.617-2.144-9.978-8.093-17.59-16.41-21.929-8.317-4.338-15.56-1.588-20.5-4.478-4.94-2.891-3.536-7.89-5.914-11.912M227.374 174.866c-6.041-2.838-11.28-5.743-15.373-10.641-4.094-4.898-4.73-13.266-2.307-20.747 2.423-7.48 7.134-14.67 15.079-21.004 7.945-6.333 15.08-9.741 25.354-14.113s22.867-6.981 31.452-13.334c8.585-6.352 14.173-14.392 17.83-23.131 3.656-8.74 5.313-17.778 4.726-27.285-.587-9.508-3.864-18.899-8.391-26.482C291.216 10.545 284.215 4.88 278.1 1" stroke-width="2"/></g></svg>