<svg xmlns="http://www.w3.org/2000/svg" xmlns:dc="http://dublincore.org/documents/dcmi-terms/" height="460.164" width="687.255"><metadata><dc:description>Silhouette of Diadiaphorus, processed by PhyloPic Tools (https://github.com/eweitz/phylopic-tools)</dc:description><dc:source>http://phylopic.org/image/b6d033a7-608c-4065-a415-046da9f22820</dc:source><dc:creator>Zimices</dc:creator><dc:license>http://creativecommons.org/licenses/by-nc/3.0/</dc:license></metadata><path d="M596.179 459.972c-2.085-.61-3.77-3.352-3.77-6.137 0-3.172 4.939-8.182 10.191-10.338 4.1-1.683 7.81-7.563 7.81-12.377 0-1.535.698-5.94 1.551-9.79 1.581-7.13 4.775-22.769 6.588-32.257.59-3.081 2.478-7.427 4.564-10.5 5.656-8.334 6.296-10.623 6.296-22.514v-10.836l-3.25-3.052c-1.787-1.68-8.484-6.91-14.882-11.624-6.398-4.715-13.598-10.945-16-13.846-2.402-2.9-7.775-8.895-11.94-13.322-4.165-4.427-8.583-9.399-9.818-11.049-1.235-1.65-6.364-7.375-11.397-12.723l-9.152-9.724-1.869 5.724c-1.515 4.64-1.967 9.982-2.391 28.223-.46 19.844-.316 23.032 1.226 27 .961 2.475 1.955 6.894 2.207 9.82l.46 5.32-6.347 6.713c-3.49 3.693-8.822 10.286-11.847 14.652-3.07 4.43-7.71 9.595-10.5 11.687-6.683 5.01-12.59 12.597-17.387 22.333-2.175 4.413-6.69 11.706-10.033 16.207-4.238 5.704-6.08 9.082-6.08 11.153 0 2.018-.845 3.635-2.634 5.043-4.26 3.35-7.156 2.331-8.225-2.894l-.66-3.226-2.875 4.346c-2.373 3.588-2.847 5.306-2.718 9.846.19 6.666-2.265 12.138-5.888 13.122-3.816 1.037-27.546 1.001-30.298-.045-5.94-2.258-3.364-9.433 5.177-14.42 3.092-1.806 6.627-4.83 7.855-6.72 2.704-4.16 8.609-10.163 12.977-13.194 1.766-1.225 3.767-3.356 4.447-4.735 4.189-8.496 15.442-26.343 19.553-31.008 2.665-3.025 5.337-6.625 5.936-8 .599-1.375 3.094-4.75 5.544-7.5 9.587-10.76 12.268-24.555 9.427-48.5-1.356-11.427-2.508-16.13-7.503-30.634-5.106-14.824-6.066-18.802-7.118-29.5l-1.216-12.366-12.14.086c-6.677.047-19.973 1.063-29.547 2.258-11.833 1.477-25.6 2.338-43 2.69-14.076.284-31.767 1.017-39.313 1.629-18.04 1.462-17.255.574-16.906 19.133.147 7.812.768 16.23 1.38 18.704.612 2.475 1.185 12.15 1.274 21.5.088 9.35.627 25.775 1.198 36.5 1.102 20.734.718 19.057 8.033 35 4.163 9.074 6.225 17.103 6.233 24.272.01 6.17-.204 6.868-2.38 7.859-3.488 1.59-7.647-.738-9.166-5.13l-1.21-3.5-1.26 4.841c-.693 2.663-2.382 6.176-3.754 7.805-2.142 2.546-2.333 3.315-1.358 5.456 1.8 3.949 1.338 8.05-1.244 11.052-2.096 2.437-3.199 2.807-9.25 3.105-3.779.186-10.92-.021-15.87-.46-8.616-.766-9.012-.907-9.273-3.3-.223-2.052 1.16-3.663 7.728-9 7.794-6.332 8.119-6.774 12.604-17.143 7.492-17.323 7.503-16.893-1.068-40.357-2.417-6.615-3.968-13.023-4.583-18.933-.528-5.071-1.542-9.61-2.345-10.5-1.704-1.886-3.958-13.789-6.066-32.028-1.207-10.449-2.087-14.368-3.93-17.513-1.305-2.228-3.124-6.633-4.042-9.788-.917-3.156-1.993-5.738-2.39-5.738s-1.225 1.688-1.84 3.75c-4.705 15.795-11.801 28.555-25.046 45.039-2.975 3.703-4.26 6.252-4.285 8.5-.052 4.735-2.388 14.744-4.298 18.412-1.312 2.518-1.688 6.246-1.767 17.5-.09 12.868-.64 21.52-2.477 38.94-.526 4.99-.287 6.107 2.071 9.67 1.506 2.276 2.523 5.044 2.336 6.36-.362 2.56-2.516 2.844-10.435 1.38l-4.106-.76-.68 4.252c-.495 3.1-1.652 5.143-4.269 7.54-2.828 2.59-3.461 3.797-2.986 5.69.349 1.39.014 3.21-.792 4.316-1.237 1.693-2.98 1.948-15.259 2.233-12.888.3-13.992.179-15.701-1.71-1.394-1.54-1.68-2.88-1.182-5.536.76-4.055 8.063-13.025 14.184-17.426 4.363-3.137 9.01-10.65 14.358-23.219l3.038-7.14v-21.43c0-18.09-.253-21.817-1.623-23.909-1.373-2.095-1.55-4.748-1.144-17.214.476-14.661.503-14.803 5.223-27.238 9.716-25.6 9.873-26.231 10.326-41.348.575-19.208-.012-20.597-12.642-29.897-5.302-3.903-12.565-9.644-16.14-12.757-3.575-3.113-9.266-7.752-12.647-10.309-3.382-2.556-8.226-7.56-10.767-11.12-4.77-6.687-17.586-28.95-17.586-30.554 0-1.758-23.733-30.584-29.578-35.926-7.487-6.842-17.919-13.562-26.922-17.342l-7-2.939-8.526 1.687c-5.885 1.164-10.842 1.501-16 1.088-4.11-.33-19.849-1.031-34.974-1.56-40.086-1.4-46-2.254-46-6.645 0-1.656-.758-1.707-4.74-.318-6.61 2.304-13.26-3.656-13.26-11.884 0-1.79-1.405-4.73-3.7-7.734-4.704-6.161-4.91-10.15-.75-14.493 1.622-1.693 3.95-3.612 5.172-4.264 14.511-7.737 20.109-10.321 27.695-12.787 4.905-1.594 9.982-2.898 11.284-2.898 1.301 0 4.572-1.118 7.27-2.484 2.696-1.367 7.744-3.56 11.216-4.876 3.472-1.314 8.778-4.021 11.79-6.015 3.013-1.993 6.516-3.625 7.785-3.625 1.268 0 5.606-2.248 9.639-4.996 10.263-6.995 22.464-11.706 33.857-13.075 10.226-1.229 11.455-1.812 24.45-11.614 12.486-9.417 13.292-8.935 13.292 7.951 0 6.526-.428 12.666-.95 13.643-.792 1.478.132 2.574 5.495 6.511 3.546 2.604 8.072 6.716 10.057 9.14 3.422 4.176 7.44 7.43 18.898 15.305 2.75 1.89 6.8 5.06 9 7.043 4.005 3.61 6.295 4.787 18.579 9.544 5.22 2.023 8.316 2.543 15 2.52 8.345-.027 12.177-1.016 28.421-7.33 2.2-.854 4.97-1.574 6.157-1.598 1.186-.024 5.166-1.394 8.843-3.044 3.678-1.65 8.332-3.005 10.344-3.01 2.01-.006 5.906-.699 8.656-1.539 2.75-.84 7.475-1.91 10.5-2.378 3.025-.468 13.795-2.292 23.933-4.053l18.432-3.202 41.568.426c37.807.388 42.472.621 51.567 2.579 5.5 1.183 11.575 2.677 13.5 3.319 1.925.642 12.95 1.499 24.5 1.904 21.574.758 25.698 1.464 34.352 5.879 4.803 2.45 14.552 4.808 25.148 6.082 11.241 1.352 17.218 2.803 20.02 4.861 1.385 1.018 3.635 2.185 5 2.592 1.364.408 4.73 1.958 7.48 3.444s10.175 4.692 16.5 7.123c15.636 6.01 35.253 19.133 43.218 28.91a2471.87 2471.87 0 0 0 10.35 12.563c7.095 8.558 10.665 15.258 14.912 27.986 1.466 4.393 4.39 11.368 6.497 15.5 6.94 13.61 10.02 20.758 9.974 23.153-.08 4.173 1.581 15.315 2.505 16.8.492.79 1.013 3.04 1.157 5 .144 1.959.577 5.097.962 6.974.542 2.64.308 3.7-1.034 4.682-.954.697-2.344 1.034-3.088.749-.957-.367-1.295.27-1.153 2.178.395 5.317-6.32 5.98-7.11.702-.17-1.14-1.407-2.791-2.75-3.67-1.341-.88-2.44-2.438-2.44-3.462s-1.125-2.599-2.5-3.5c-1.375-.9-2.5-2.202-2.5-2.892s-.93-2.052-2.068-3.026c-1.557-1.333-1.916-2.47-1.45-4.593.513-2.333.241-2.92-1.574-3.395-1.97-.515-2.132-1.028-1.585-5.022.53-3.862.35-4.516-1.357-4.962-2.44-.638-2.532-3.552-.241-7.544 1.62-2.825 1.623-3.116.03-4.877-1.21-1.336-1.532-2.874-1.128-5.367.476-2.929.082-4.014-2.43-6.704-6.188-6.624-12.353-3.552-22.306 11.114-3.425 5.047-8.402 11.98-11.059 15.405-5.846 7.536-5.857 7.702-2.31 32.876 2.398 17.016 6.504 35.498 8.403 37.82.483.592 3.254 5.778 6.157 11.525 6.553 12.972 16.945 24.54 25.194 28.046 12.093 5.14 15.179 9.598 14.52 20.978-.367 6.332-1.343 9.802-5.786 20.571-2.94 7.126-6.395 14.522-7.678 16.437-1.282 1.916-2.331 3.972-2.331 4.57 0 .599-1.556 2.906-3.458 5.127-2.056 2.402-5.394 8.86-8.236 15.93l-4.778 11.891-.336 15.304c-.33 15.09-.369 15.32-2.764 16.41-1.793.818-3.094.804-4.975-.053-1.401-.638-2.79-1.16-3.088-1.16-.724 0 .522 7.704 1.885 11.665 1.46 4.242-.914 8.03-5.493 8.76-4.077.65-26.272 1.218-27.988.716z"/></svg>