<svg xmlns="http://www.w3.org/2000/svg" width="1024" height="338" viewBox="0 0 1024 338"><g fill-rule="evenodd"><path d="M505-112c54.422 13.471 88.988 33.85 147 42 15.624-6.412 36.773.381 55-1 33.254-2.519 64.869-16.774 101-13 34.189 3.572 71.822 2.064 103 18 32.818 16.773 61.836 45.862 82 77 16.736 25.844 26.475 62.047 31 96v-219H505zM502-112H0V33c3.979-.73 4.021-.73 8 0 13.02 55.861 34.967 102.04 100 102 3.551-22.789-5.683-40.535 0-64 3.215-1.119 5.93-2.736 10-3 15.738 13.182 29.876 38.512 52 36 5.67-10.387 5.817-25.109 9-33 1.722-4.27 10.53-9.484 10-15-.787-8.195-18.78-12.77-23-23-4.293-10.408-.039-15.752-5-28 21.487-17.633 48.146 8.744 52 33 15.29-3.227 37.467-4.148 46-17 .585-10.863-2.471-16.393 2-24 10.581-10.896 19.478.518 30 0 5.66-.279 25.304-15.44 32-20 11.194-7.622 21.008-17.516 32-25 3.387-2.306 7.766-2.645 11-5 12.645-9.211 25.162-23.369 39-30 26.087-12.5 66.354-24.395 97-29z" fill="#fff"/><path d="M0 48v401h451c-7.654-3.987-25.443-4.606-32-20 1.629-28.588 30.063-37.627 21-63 1.62-7.338 7.978-34.481 6-46-1.955-11.389-11.684-21.16-19-31-13.566-18.244-32.579-36.688-44-55-16.578 1.578-29.451-.549-35-10-15.336 2.218-23.136-3.342-40 2-30.941 24.504-66.457 42.805-117 51-23.079 3.742-55.16-4.059-73-6-4.454.825-.729 8.288-3 9-6.076 3.005-17.472-4.616-23-11-10.796-22.572-25.325-37.21-14-61-36.265-45.889-66.977-82.23-77-160H0z" fill="#fff"/><path d="M505-112h-3c-30.646 4.605-70.913 16.5-97 29-13.838 6.631-26.355 20.789-39 30-3.234 2.355-7.613 2.694-11 5-10.992 7.484-20.806 17.378-32 25-6.696 4.56-26.34 19.721-32 20-10.522.518-19.419-10.896-30 0-4.471 7.607-1.415 13.137-2 24-8.533 12.852-30.71 13.773-46 17-3.854-24.256-30.513-50.633-52-33 4.961 12.248.707 17.592 5 28 4.22 10.23 22.213 14.805 23 23 .53 5.516-8.278 10.73-10 15-3.183 7.891-3.33 22.613-9 33-22.124 2.512-36.262-22.818-52-36-4.07.264-6.785 1.881-10 3-5.683 23.465 3.551 41.211 0 64-65.033.04-86.98-46.139-100-102-3.979-.73-4.021-.73-8 0v15h1c10.023 77.77 40.735 114.111 77 160-11.325 23.79 3.204 38.428 14 61 5.528 6.384 16.924 14.005 23 11 2.271-.712-1.454-8.175 3-9 17.84 1.941 49.921 9.742 73 6 50.543-8.195 86.059-26.496 117-51 16.864-5.342 24.664.218 40-2 5.549 9.451 18.422 11.578 35 10 11.421 18.312 30.434 36.756 44 55 7.316 9.84 17.045 19.611 19 31 1.978 11.519-4.38 38.662-6 46 9.063 25.373-19.371 34.412-21 63 6.557 15.394 24.346 16.013 32 20h14c18.354-4.971 58.638 4.463 56-24 11.969-1.338 31.48-2.962 35-16-26.861-43.111-25.225-105.982-6-147 1.162.163 1.779-.221 2-1 43.389 7.487 94.65 22.028 130 25 11.801-5.033 18.869 1.695 36 0 31.301-3.098 63.365-20.341 86-36-.828 19.238 12.977 32.062 10 51-4.192 26.677-22.222 51.093-43 66-1.379 7.315-8.724 12.776-10 17 6.706 1.045 9.297 8.42 14 14 22.156 4.549 67.72 11.954 80-13-1.763-2.774-.73-2.829-2-5 5.377-19.025 22.297-25.829 30-41 6.141-12.095.177-26.014 2-40 2.656-20.372 13.178-46.289 19-70 17.43 37.018 33.528 83.82 30 118-6.533 26.752-21.309 37.586-22 65 13.992 17.92 57.244 8.462 80 9 3.807-1.859 3.891-7.443 9-8-7.025-41.15 22.545-79.216 16-118-13.938-17.435-14.985-54.025-13-76 14.754-35.756 12.768-67.947 20-108v-4c-4.525-33.953-14.264-70.156-31-96-20.164-31.138-49.182-60.227-82-77-31.178-15.936-68.811-14.428-103-18-36.131-3.774-67.746 10.481-101 13-18.227 1.381-39.376-5.412-55 1-58.012-8.15-92.578-28.529-147-42z"/><path d="M1024 111c-7.232 40.053-5.246 72.244-20 108-1.985 21.975-.938 58.565 13 76 6.545 38.784-23.025 76.85-16 118-5.109.557-5.193 6.141-9 8-22.756-.538-66.008 8.92-80-9 .691-27.414 15.467-38.248 22-65 3.528-34.18-12.57-80.982-30-118-5.822 23.711-16.344 49.628-19 70-1.823 13.986 4.141 27.905-2 40-7.703 15.171-24.623 21.975-30 41 1.27 2.171.237 2.226 2 5-12.28 24.954-57.844 17.549-80 13-4.703-5.58-7.294-12.955-14-14 1.276-4.224 8.621-9.685 10-17 20.778-14.907 38.808-39.323 43-66 2.977-18.938-10.828-31.762-10-51-22.635 15.659-54.699 32.902-86 36-17.131 1.695-24.199-5.033-36 0-35.35-2.972-86.611-17.513-130-25-.221.779-.838 1.163-2 1-19.225 41.018-20.861 103.889 6 147-3.52 13.038-23.031 14.662-35 16 2.638 28.463-37.646 19.029-56 24h559V111z" fill="#fff"/></g></svg>