<svg xmlns="http://www.w3.org/2000/svg" xmlns:dc="http://dublincore.org/documents/dcmi-terms/" height="518.001" version="1.2" viewBox="0 0 1421.076 518.001" width="1421.076" overflow="inherit"><metadata><dc:description>Silhouette of Dicynodontoidea, processed by PhyloPic Tools (https://github.com/eweitz/phylopic-tools)</dc:description><dc:source>http://phylopic.org/image/ca37ddd6-e5e6-4404-b9b2-fcea425aaccd</dc:source><dc:creator>Dmitry Bogdanov (vectorized by T. Michael Keesey)</dc:creator><dc:license>http://creativecommons.org/licenses/by-sa/3.0/</dc:license></metadata><path d="M1421.076 293.001h-1c-5.571 3.713-7.23-3.288-11-7-15.262-15.026-35.008-32.767-53-44-13.604-8.494-30.251-13.364-40-24-12.594-3.073-21.64-9.694-31-16-42.242-19.571-111.331-30.657-155-6-5.602 20.795-21.558 30.428-28 43-15.374 7.246-28.068 21.953-44 28-1.577.599-6.199-.043-9 1-10.511 3.914-18.262 11.588-30 18-10.941 5.977-32.011 13.154-35 22-1.767 5.229 3.312 16.388 4 26 .672 9.377 1.469 22.153 0 33-1.854 13.688-8.285 26.77-9 37-1.014 14.502.865 20.621-6 30-9.421 6.333-15.735 14.017-25 21-10.193 7.684-22.545 10.152-35 16-10.068 4.728-16.723 10.98-26 13-3.057.666-6.866-.866-11 0-1.748.366-5.396 3.165-8 4-8.947 2.87-13.157 5.264-18 11-.757-5.989 6.856-13.492 3-16-11.938-2.24-30.596 5.967-40 9 1.537-3.428 7.573-10.958 7-18-11.011-1.748-20.014 6.461-30 9 1.402-11.663 14.542-16.703 16-25-7.46 2.207-14.271 5.062-22 7 2.576-6.204 5.404-10.512 10-14 5.55-4.212 13.427-3.888 18-7 3.39-2.307 2.709-5.231 6-7 15.683-8.428 41.185 4.941 53-12-19.967 3.544-35.479 2.256-55 4-2.215-.785.19-6.19-4-5-7.814 1.853-14.688 4.645-23 6 5.11-13.03 17.719-22.066 37-24 17.138-1.719 38.904 2.408 43-16-9.211-15.632-21.24-27.284-27-44-58.567 20.11-138.72-1.92-200-2 8.289 25.787 3.202 59.707 11 80-7.66.271-1.231 5.457-3 6-6.785 9.429-21.251 22.244-27 33-14.058 8.011-30.502 21.06-47 32-7.55 5.007-15.562 5.004-25 8-8.326 2.644-15.362 10.004-21 14-.843-7.51 4.019-9.314 5-15-13.965 2.705-26.533 12.129-36 16 3.655-18.012 18.986-24.347 29-36-12.204 3.13-22.425 8.241-31 15-8.796-2.814-16.959 5.272-26 8 4.067-8.094 9.407-15.806 15-21 1.922-1.785 7.904-1.314 6-6-6.735-3.139-22.484 5.746-28 7 6.941-10.726 15.825-19.508 27-26-3.63-1.218-7.895 2-9 0 7.368-15.381 25.587-12.087 43-16 13.567-3.049 24.979-12.218 34-18-2.811-2.522-3.83-6.837-5-11-6.454 2.236-7.664 8.16-13 12-19.102 13.744-49.317 15.561-73 25-8.654-3.898-20.471 1.588-32 2-13.958.499-28.136-3.75-40 0-1.066-4.472 8.788-7.321 4-9-10.618-.284-18.483 2.184-28 3 18.733-34.104 87.311-11.227 110-46-3.555-5.897-4.892-11.69-1-18-10.175-8.774-18.924-23.354-20-38-36.318-2.386-52.676-28.16-81-40-11.152-4.662-25.163-8.673-39-12-14.102-3.391-39.684-8.515-49-5 .68-5.33-5.958-1.114-11-1-9.398-8.051-21.169-1.818-30-1-7.067.654-12.101-.991-19 1-24.975 7.207-55.609 19.021-74 34-16.212 13.203-27.327 35.653-45 40-10.689 2.629-22.317.078-33 0-1.936-1.064-2.613-3.387-4-5-15.36-2.643-34.042-10.623-41-25-9.627 21.525-24.036-7.445-28-20-3.523-11.158-6.623-23.852-7-34-1.227-33.017 12.758-55.49 16-73 1.89-.443 6.027 1.36 5-2 7.777-11.223 18.264-19.736 30-27 3.411-6.589 7.335-12.665 14-16 10.018-22.649 25.035-40.299 36-62 21.446-25.547 34.408-49.309 65-61 4.169-1.593 9.874-.862 15-2 14.028-3.115 27.579-12.004 45-12 4.992-5.524 14.877-2.345 22-7 16.387-2.302 29.987-.146 43-6 6.075 4.365 16.457 2.261 24-1 3.501 5.375 11.272.947 17 0 11.059 7.065 24.061 1.011 37 1 1.447-.001 4.159 1.911 6 2 4.531.219 13.345.94 20 1 15.545.139 31.585 5.11 48 6 25.619 1.389 48.027-.021 72-2 16.639-1.374 32.859-6.933 50-9 15.686-1.892 31.604-1.591 48-2 26.859-.671 53.967-5.071 82-5 6.631.017 13.699 2.104 20 2 11.75-.194 23.893-1.938 35-1 14.476 1.223 29.584 3.231 45 5 22.444 2.576 44.312 8.947 67 14 32.084 7.146 65.081 2.365 93 7 4.733.786 10.048 3.552 15 5 5.26 1.538 10.779 1.643 15 3 18.063 5.807 34.964 15.783 53 20 8.659 2.024 17.763 2.176 26 4 43.484 9.628 87.825 22.661 128 40 33.395 14.412 67.889 30.515 88 44 7.122 4.775 20.657 13.084 28 19 13.657 11.003 22.33 25.689 41 33-.108 8.037 4.239 7.776 8 11 9.529 8.167 15.698 19.174 21 26 14.788 19.04 25.827 33.982 41 58 .211-1.209 1.11-.615 2 0v3zm-1383 33c4.526-2.292 11.698-2.268 12-11-5.98-1.926-13.191 6.055-12 11z" fill-rule="evenodd"/></svg>