<svg xmlns="http://www.w3.org/2000/svg" xmlns:dc="http://dublincore.org/documents/dcmi-terms/" height="32.349" version="1.2" viewBox="0 0 99.691 32.349" width="99.691" overflow="inherit"><metadata><dc:description>Silhouette of Dicynodontia, processed by PhyloPic Tools (https://github.com/eweitz/phylopic-tools)</dc:description><dc:source>http://phylopic.org/image/4ce2a8f1-342a-4124-b018-af7e5dae4130</dc:source><dc:creator>Smokeybjb</dc:creator><dc:license>http://creativecommons.org/licenses/by-sa/3.0/</dc:license></metadata><path d="M69.005 32.268c-.137.027-.207-.425.085-.857.046-.068-.274-.14-.261-.312.031-.408.23-.767.588-.981.213-.127.308-.434.595-.678.347-.294 1.051-.309 1.397-.387.979-.22 1.318-.499 1.965-1.277.027-.071-.989-2.401-1.313-3.051-.454-.91-.943-1.936-1.538-3.932-.091-.306-.221-.614-.288-.686-.067-.07-.793.059-1.613.289-2.998.84-3.821.945-5.802 1.187-3.661.446-5.543.658-9.227.837-.567.027-3.668-.057-5.088-.051l-2.582.012-.002.834c-.004 1.914-.989 3.523-3.045 4.971-1.157.814-1.684 1.295-3.003 2.735-.471.515-.733.653-1.509.802-2.144.408-3.804.54-5.426.43-1.466-.101-1.677-.151-1.748-.424-.047-.179-.266-.346-.521-.396-.336-.067-.457-.197-.507-.545-.085-.583-.019-.679.75-1.065.496-.249 1.101-.343 2.758-.426 1.167-.059 2.281-.179 2.474-.267.201-.092.575-.616.87-1.22a30.69 30.69 0 0 1 1.219-2.193c.386-.623.701-1.198.701-1.277 0-.138-.872-.373-2.621-.709a11.174 11.174 0 0 1-1.588-.46 37.074 37.074 0 0 0-2.2-.721c-1.935-.753-3.478-1.934-5.346-2.976-.786-.438-3.124-1.154-3.902-1.154-.27 0-1.241-.334-2.126-.54-.779-.182-1.527-.461-2.251-.746-1.248-.493-2.125-.616-2.933-.4-.388.104-.878.188-1.088.188-.676 0-2.366.501-3.346.991-.524.262-1.579.968-2.343 1.569-1.227.965-1.469 1.093-2.065 1.091-1.146-.004-2.674-.455-4.087-1.207-.919-.488-1.479-.694-1.749-.643C.353 18.801.01 18.039 0 15.757c-.006-1.463.191-2.649.559-3.36.443-.856 2.099-2.412 3.427-3.219.743-.451 2.637-1.512 4.209-2.356 1.572-.844 3.431-1.919 4.13-2.389 1.449-.973.955-.907 6.195-.821 3.794.062 5.537.239 8.079.82 1.849.423 2.508.494 5.2.562 3.488.089 2.513.359 8.881-1.746 3.822-1.264 6.956-1.731 10.723-2.136 2.363-.253 4.559-.463 9.531-.656 2.359-.092 4.861-.243 5.56-.337.761-.103 2.962-.145 5.48-.104 4.128.065 4.21.287 6.354.598 1.38.199 2.646.643 4.436 1.335 3.371 1.302 5.016 2.138 8.459 4.472.556.377 2.244 1.418 3.467 2.453 1.951 1.65 3.041 2.282 4.583 4.002.436.507.497.661.338.854-.106.128-.421.233-.7.233-.535 0-4.122-.989-5.079-1.354-.851-.324-1.806-.253-2.636-.473-.481-.128-1.416-.235-2.078-.237-1.129-.002-1.282.042-2.463.699-2.611 1.455-3.316 1.964-4.887 3.521-.887.881-2.021 1.9-2.521 2.266-1.201.877-1.204 1.059-1.057 2.226.208 1.639.035 2.329-.122 3.942-.11 1.127-.103 1.8-.12 2.674-.029 1.423-.082 1.679-.502 2.457-.506.939-.632 1.027-2.525 1.758-1.006.388-1.656.518-3.178.633-1.053.08-2.133.385-2.23.232-.205-.317-.116-.117-.508-.038z"/></svg>