<svg xmlns="http://www.w3.org/2000/svg" xmlns:dc="http://dublincore.org/documents/dcmi-terms/" height="697.943" viewBox="0 0 1033.3179 654.32115" width="1102.206"><metadata><dc:description>Silhouette of Dinocrocuta gigantea, processed by PhyloPic Tools (https://github.com/eweitz/phylopic-tools)</dc:description><dc:source>http://phylopic.org/image/6c86187f-3dea-4240-aa8c-51447e82d23c</dc:source><dc:creator>Dmitry Bogdanov, vectorized by Zimices</dc:creator><dc:license>http://creativecommons.org/licenses/by-sa/3.0/</dc:license></metadata><path d="M528.001 654.082c-.795-.265-1.808-2.41-2.25-4.766-.442-2.357-1.173-4.284-1.624-4.284-.452 0-2.81 1.351-5.24 3.003-6.918 4.7-13.532 4.74-18.164.107l-3.14-3.139-7.109 2.067c-5.942 1.727-8.03 1.82-12.715.567-7.936-2.122-10.592-5.385-10.174-12.497.244-4.146 1.133-6.426 3.21-8.233 1.58-1.375 3.154-3.35 3.498-4.39.344-1.039 3.085-3.118 6.091-4.621 7.43-3.714 14.456-10.387 16.771-15.927 1.73-4.139 1.722-5.718-.08-16.076-1.098-6.317-2.572-12.878-3.274-14.58-.703-1.7-1.232-8.69-1.177-15.532.077-9.572-.374-13.164-1.958-15.581-2.175-3.32-2.494-6.76-3.617-38.918-.894-25.605-2.461-47.455-3.653-50.938-.529-1.547-1.944-2.812-3.145-2.812-1.462 0-3.297-2.48-5.55-7.5-1.85-4.125-4.123-7.5-5.048-7.5-.926 0-2.257-1.649-2.96-3.663-.702-2.015-3.218-5.53-5.59-7.813-2.373-2.282-5.784-6.518-7.58-9.413-1.798-2.896-4.956-6.513-7.02-8.039-2.064-1.526-4.06-3.746-4.438-4.934-1.016-3.203-7.798-10.597-8.8-9.595-.476.477-.29 3.14.416 5.919.818 3.222.846 5.322.078 5.796-.662.41-.902 1.531-.533 2.493.37.962.05 1.749-.71 1.749-.917 0-1.121 1.888-.61 5.625.462 3.367.28 5.625-.454 5.625-.675 0-1.244 1.265-1.266 2.812-.038 2.653-.137 2.684-1.758.546-1.592-2.1-1.783-1.973-2.596 1.729-.561 2.553-1.22 3.44-1.828 2.459-.63-1.021-1.391-.271-2.264 2.233-.723 2.074-2.344 4.82-3.602 6.102-1.258 1.283-5.647 6.53-9.753 11.663-9.988 12.483-20.753 22.687-23.018 21.818-.989-.38-3.394.839-5.345 2.708-2.027 1.941-3.546 2.696-3.546 1.76 0-1.291-.384-1.318-1.82-.126-1.002.831-2.318 1.203-2.927.827-.608-.376-2.323.963-3.811 2.976s-3.44 3.377-4.34 3.032c-.898-.345-2.396.8-3.329 2.542-.933 1.743-2.196 3.169-2.808 3.169-.612 0-.765-.563-.34-1.25.425-.688-.058-1.25-1.072-1.25-1.015 0-2.032.421-2.262.937-.229.516-2.789 2.549-5.69 4.518-2.9 1.969-6.725 5.484-8.5 7.812-1.776 2.328-4.184 4.248-5.352 4.267-1.168.019-3.53 1.972-5.25 4.34-1.718 2.369-3.633 4.322-4.254 4.341-.621.02-3.152 2.144-5.625 4.722-2.472 2.578-5.941 5.813-7.708 7.188-1.767 1.375-6.299 6.175-10.07 10.667-6.665 7.941-6.898 8.478-8.41 19.375-2.484 17.893-5.36 32.133-7.384 36.566-1.246 2.728-4.844 6.027-10.71 9.822-8.1 5.24-9.343 5.666-14.957 5.127-5.172-.497-6.616-.132-9.292 2.348-2.942 2.727-3.971 2.9-14.343 2.414-6.689-.313-12.266-1.233-13.897-2.294-1.498-.974-4.889-2.48-7.534-3.348-3.76-1.233-5.302-2.676-7.064-6.61-2.15-4.803-2.154-5.27-.08-10.176 1.197-2.828 3.532-5.822 5.19-6.653 1.657-.832 4.138-2.824 5.513-4.428 2.6-3.032 12.296-9.685 14.115-9.685.573 0 2.56-1.585 4.415-3.52 3.722-3.885 8.056-14.94 9.647-24.605.565-3.438 1.666-8.782 2.446-11.875.78-3.094 1.967-8.11 2.637-11.149 2.426-10.998 8.852-24.292 14.145-29.262 15.22-14.296 21.737-21.193 28.67-30.346 4.222-5.573 12.606-16.65 18.633-24.617 6.026-7.967 12.635-18.033 14.686-22.368 3.328-7.035 3.728-9.161 3.719-19.758-.011-12.94-3.891-31.144-9.154-42.95-1.575-3.534-3.649-8.957-4.607-12.05-.959-3.094-2.47-6.075-3.36-6.625-.89-.55-1.617-1.763-1.617-2.697 0-.934-1.37-4.421-3.044-7.75-4.352-8.655-11.956-25.346-11.956-26.246 0-1.913-9.216-9.183-11.651-9.19-1.498-.004-4.27-.815-6.161-1.801-1.89-.986-3.438-1.264-3.438-.617 0 2.282-3.992 1.142-4.637-1.324-.796-3.042-2.863-3.32-2.863-.386 0 1.843-.235 1.803-1.835-.313-1.764-2.332-1.837-2.336-1.875-.086-.03 1.81-.419 2.026-1.709.956-1.922-1.596-12.23-2.249-14.393-.912-.82.507-1.789.03-2.22-1.092-.42-1.096-1.681-1.739-2.803-1.429-1.122.31-3.305.927-4.852 1.372-2.15.617-2.813.295-2.813-1.37 0-1.917-.342-1.855-2.874.524-2.706 2.542-3 2.576-5 .575-1.836-1.835-2.126-1.861-2.126-.191 0 2.272-5.215 2.33-5.97.066-.691-2.074-2.78-1.821-2.78.336 0 2.344-4.66 1.925-8.75-.787-4.094-2.715-16.25-4.129-16.25-1.89 0 .877-1.257 1.69-2.794 1.805-1.536.116-2.99.799-3.23 1.518-.24.72-2.612 1.656-5.273 2.081-2.66.426-5.794 1.831-6.964 3.123-1.17 1.292-3.138 2.35-4.376 2.35-1.237 0-3.696 1.447-5.466 3.216-2.572 2.573-3.96 3.054-6.931 2.401-2.217-.487-3.716-.304-3.716.453 0 2.113-13.961 8.48-20.533 9.364-3.388.456-7.126 1.704-8.308 2.773-1.583 1.433-2.284 1.542-2.66.412-.398-1.193-1.44-1.21-4.692-.077-2.299.802-6.021 1.458-8.272 1.458-2.486 0-5.48 1.167-7.626 2.973-1.944 1.635-4.096 3.124-4.784 3.308-.687.184-2.226 1.94-3.419 3.902-1.193 1.962-2.952 3.567-3.91 3.567-.956 0-2.387.78-3.18 1.735-.991 1.195-3.445 1.592-7.886 1.275-3.835-.274-7.826.228-9.85 1.238-1.873.934-4.796 1.432-6.496 1.107-1.7-.325-3.427-.046-3.838.619-.437.707-3.184-.023-6.609-1.757-3.223-1.632-6.75-2.979-7.836-2.992-1.087-.014-4.507-2.581-7.6-5.705-3.094-3.124-7.495-6.84-9.78-8.258-2.284-1.419-4.662-3.917-5.283-5.552-.622-1.636-2.972-3.866-5.222-4.956C9.49 286.04 4.19 277.691 2.615 267.901c-4.079-25.347-3.356-47.905 1.959-61.19 2.771-6.925 11.876-12.472 30.651-18.672 16.194-5.348 30.565-13.28 34.543-19.067 1.467-2.134 3.065-5.996 3.55-8.58.66-3.52 2.823-6.59 8.606-12.218 4.249-4.135 9.386-9.767 11.416-12.517 2.03-2.75 6.943-8.83 10.916-13.512 6.866-8.09 7.189-8.773 6.496-13.75-.401-2.881-1.232-6.645-1.845-8.363-1.47-4.118-.845-16.175 1.012-19.524.808-1.456 1.17-2.947.804-3.312-.735-.735 7.561-3.76 11.15-4.066 3.455-.294 16.113 1.763 19.29 3.134 2.196.948 2.812.809 2.812-.634 0-1.158 1.217-1.848 3.26-1.848 2.354 0 3.062-.51 2.552-1.84-.388-1.01.063-2.607 1.003-3.546 1.103-1.103 1.312-2.335.591-3.474-2.109-3.332-1.072-4.265 1.417-1.276 2.86 3.435 4.535 2.823 2.529-.925-1.913-3.575-1.822-6.16.148-4.19 2.042 2.042 3.5 1.886 3.5-.374 0-1.032 1.08-1.875 2.398-1.875 4.698 0 6.373-1.357 5.58-4.52-.606-2.411-.356-2.855 1.258-2.236 1.441.553 2.014.057 2.014-1.744 0-1.9.612-2.356 2.5-1.863 1.977.517 2.504.035 2.52-2.304.013-2.008.346-2.443 1.037-1.354 1.884 2.97 5.48.287 4.9-3.658-.594-4.052 1.9-4.946 3.888-1.394 1.795 3.208 3.072 1.064 3.072-5.157 0-5.122.139-5.346 2.12-3.438 1.167 1.124 2.435 2.886 2.818 3.918.444 1.192.734.794.797-1.091.083-2.49.399-2.716 1.973-1.41 1.553 1.29 1.879 1.154 1.895-.784.015-1.818.262-1.956 1.11-.618 1.386 2.188 3.69.792 5.186-3.144.984-2.588 1.544-2.849 3.673-1.71 2.165 1.159 2.531.95 2.656-1.512.108-2.117.293-2.29.717-.669.666 2.547 2.403 2.875 3.31.625.505-1.25.65-1.25.73 0 .156 2.476 2.24 1.816 2.96-.937.726-2.773 5.294-3.452 6.314-.938.477 1.176.962 1.099 1.96-.312 1.144-1.618 1.329-1.576 1.345.312.01 1.203.582 2.188 1.27 2.188.687 0 1.25-1.688 1.25-3.75 0-2.063.562-3.75 1.25-3.75.687 0 1.25-.844 1.25-1.875 0-1.032.562-1.875 1.25-1.875.687 0 1.25.912 1.25 2.028 0 1.66.339 1.746 1.874.472 1.496-1.242 1.875-1.242 1.875 0 0 1.241.38 1.241 1.875 0 1.564-1.298 1.875-1.128 1.875 1.023 0 1.418.563 2.927 1.25 3.352.759.468 1.258-1.346 1.27-4.614.013-3.556.39-4.801 1.11-3.664.6.948 1.716 1.336 2.48.864.793-.49 1.39-.022 1.39 1.09 0 2.781 2.862 2.408 4.752-.619 1.102-1.763 2.37-2.324 4.051-1.79 1.667.528 2.447.194 2.447-1.05 0-1.003.844-2.149 1.875-2.544 1.183-.454 1.875.015 1.875 1.269 0 1.576.369 1.683 1.774.516 1.401-1.162 2.06-.997 3.13.785 1.25 2.083 1.594 1.968 4.47-1.493 1.836-2.212 3.117-3.007 3.12-1.938.01 1.369.36 1.46 1.448.371 1-1 2.157-1.058 3.776-.192 1.284.687 2.885.909 3.558.493.674-.416 1.224.401 1.224 1.817 0 1.415.563 2.574 1.25 2.574.688 0 1.25-.844 1.25-1.875 0-1.032.784-1.875 1.742-1.875.957 0 2.065-.844 2.46-1.875.916-2.387 3.298-2.449 3.298-.086 0 1.915 4.42 1.99 7.438.124 1.3-.804 1.539-.414 1.001 1.641-1.114 4.263 1.382 3.142 4.402-1.976C312.7.492 313.42-.048 313.76 1.717c.333 1.726 1.17 2.096 3.452 1.523 2.634-.661 3.018-.322 3.054 2.705l.042 3.462 2.346-2.813c2.546-3.052 7.024-3.76 7.92-1.25.38 1.066 1.65.57 3.996-1.562l3.44-3.125-.878 5.312c-.725 4.388-.532 5.313 1.108 5.313 1.091 0 1.997-.704 2.012-1.563.015-.86 1.128-2.969 2.472-4.687 1.981-2.533 2.45-2.71 2.473-.938.038 3.01 1.842 2.74 4.161-.625L351.3.657l-.683 2.812c-.684 2.82 1.268 3.935 2.734 1.563 1.354-2.191 4.187-1.344 4.6 1.374l.4 2.625 3.587-2.832c3.016-2.383 3.975-2.59 6.035-1.303 1.885 1.177 2.858 1.19 4.226.054 1.412-1.171 1.777-1.058 1.777.554 0 2.786 2.894 2.545 5.621-.468 1.667-1.842 2.68-2.146 3.87-1.159.886.736 1.303 2.14.926 3.121-1.158 3.02.728 1.99 4.751-2.591 5.621-6.402 7.894-5.694 4.013 1.25-3.609 6.455-3.033 6.985 2.514 2.315 3.214-2.706 4.002-2.947 4.321-1.32.25 1.275 1.15 1.72 2.5 1.236 1.16-.415 1.721-.324 1.247.203-.474.526-.193 1.675.625 2.552 1.192 1.278 2.303.879 5.593-2.008 4.62-4.054 5.747-4.325 7.992-1.921 1.573 1.683 7.539 1.099 11.073-1.086 1.038-.641 1.28-.481.699.46-1.347 2.18 1.867 1.73 4.47-.625 1.664-1.507 2.285-1.624 2.285-.431 0 1.192.621 1.075 2.286-.432 2.522-2.282 4.551-2.78 3.34-.818-1.098 1.774 1.058 1.551 3.015-.313 1.338-1.275 1.484-1.044.79 1.25-.98 3.246 1.495 3.817 5.555 1.281 3.701-2.311 5.382.131 3.106 4.517-1.013 1.952-1.842 3.767-1.842 4.032 0 1.064 4.587.396 5.83-.848.941-.94 1.934-.728 3.387.726 1.13 1.13 2.754 1.805 3.607 1.499.853-.306 2.477-.082 3.608.498 1.355.696 2.579.425 3.59-.794.844-1.017 2.14-1.848 2.881-1.848.878 0 .825.522-.153 1.5-2.568 2.568-1.657 3.733 2.25 2.875 2.327-.512 3.75-.321 3.75.501 0 .73 1.424 1.683 3.164 2.12 2.393.6 2.98 1.367 2.415 3.149-.91 2.87-.293 2.917 4.648.362l3.853-1.992-.805 3.209c-.574 2.288-.353 3.057.772 2.678.868-.292 4.407-.806 7.865-1.143 3.458-.336 7.818-1.194 9.688-1.905 2.748-1.045 3.4-.939 3.4.552 0 1.014.864 1.844 1.92 1.844 1.51 0 1.642.515.624 2.417-.711 1.33-1.294 2.799-1.294 3.264 0 1.335 8.79-.647 15.35-3.46 7.522-3.225 8.574-2.441 2.097 1.562-2.72 1.681-4.947 3.476-4.947 3.988s2.532.584 5.625.16c5.642-.773 6.982.212 4.146 3.048-2.863 2.863.171 3.02 7.902.409 9.921-3.35 12.877-3.348 7.64.005-5.109 3.272-5.16 4.72-.159 4.578 2.428-.07 4.344.674 5.066 1.966.81 1.445 2.09 1.844 4.21 1.312 2.147-.54 3.275-.172 3.817 1.243.425 1.106 2.255 2.045 4.075 2.092 3.277.084 3.281.095.49 1.44-1.546.747-2.812 1.895-2.812 2.552s1.266.887 2.813.512c1.547-.375 4.5-1.037 6.562-1.47 3.554-.748 3.624-.687 1.342 1.158-3.968 3.208-1.349 3.647 8.033 1.348 4.878-1.195 9.162-1.88 9.521-1.52.359.358-.068 1.806-.95 3.217-2.26 3.62-.706 4.528 8.097 4.73 12.865.294 12.756.275 11.082 1.948-2.886 2.887-1.746 4.737 2.408 3.906 2.833-.567 4.206-.248 4.993 1.158.811 1.45 2.532 1.804 6.812 1.404 4.123-.385 5.476-.13 4.832.912-.651 1.054 1.122 1.3 6.545.908 6.578-.476 7.683-.215 9.544 2.251 1.157 1.534 1.76 3.685 1.34 4.778-.662 1.727.148 1.882 6.158 1.176 9.87-1.16 13.544-.017 13.098 4.075-.33 3.032.232 3.412 8.395 5.678 4.813 1.336 10.297 2.123 12.188 1.748 1.89-.375 3.437-.133 3.437.537s-.562 1.22-1.25 1.22c-.687 0-1.25.493-1.25 1.097 0 1.322 16.229 3.692 22.813 3.333 3.802-.208 4.687.176 4.687 2.032 0 1.258.844 2.287 1.875 2.287 1.032 0 1.875.89 1.875 1.98 0 1.088.676 1.753 1.503 1.478 2.158-.72 5.898 2.845 5.118 4.879-.533 1.388.672 1.562 6.26.906 7.789-.916 14.96.252 12.164 1.98-1.424.88-1.41 1.34.087 2.838.984.983 2.622 2.115 3.64 2.515 1.395.547 1.274.751-.487.825-4.568.193.505 3.85 5.34 3.85 2.513 0 5.892.926 7.51 2.059l2.94 2.06-2.975 2.287-2.975 2.288 2.813.027c1.547.016 2.812.59 2.812 1.278 0 .688 1.828 1.315 4.063 1.395 2.241.08 3.05.407 1.806.73-4.25 1.102-1.3 3.46 6.104 4.883 4.236.813 5.932 1.49 3.965 1.582-4.676.218-4.389 2.66.312 2.66 2.5 0 3.75.625 3.75 1.875a1.88 1.88 0 0 0 1.875 1.875c1.032 0 1.875.563 1.875 1.25 0 .688.603 1.25 1.34 1.25.736 0 2.15.812 3.142 1.803 1.57 1.571 1.52 1.962-.402 3.037-1.946 1.09-1.768 1.4 1.528 2.654 2.053.78 4.682 2.437 5.84 3.681 1.16 1.244 4.733 2.656 7.942 3.137 5.333.8 5.636 1.025 3.534 2.633-2 1.53-2.055 1.92-.424 3.012 1.032.69 3.118 1.264 4.636 1.274 4.835.034 11.55 4.134 11.584 7.073.016 1.473.874 3.003 1.905 3.398 1.032.396 1.875 1.559 1.875 2.584 0 1.092 2.072 2.485 5 3.362 2.75.824 5 1.98 5 2.57 0 .59 2.11 2.048 4.688 3.24 2.578 1.192 5.422 3.152 6.32 4.355 1.128 1.51 3.354 2.187 7.188 2.187 5.265 0 7.386 1.553 3.992 2.922-.86.347-.297.675 1.25.73 1.547.054 2.812.66 2.812 1.348 0 .688 1.266 1.315 2.813 1.395 2.116.11 2.271.287.625.717-4.055 1.06-2.228 2.888 2.886 2.888 3.064 0 4.768.495 4.301 1.25-.438.71.612 1.25 2.427 1.25 1.759 0 3.198.563 3.198 1.25 0 .688 1.98 1.25 4.4 1.25 4.067 0 4.339.235 3.614 3.125-.759 3.021-.577 3.125 5.465 3.125 5.57 0 6.333.33 7.01 3.026.703 2.801 1.31 3.013 8.207 2.863 7.342-.16 10.64.917 8.012 2.617-.739.478-1.386 2.615-1.437 4.748l-.093 3.878 5.224-1.011c2.873-.557 7.192-1.02 9.598-1.028 3.566-.014 3.97.219 2.188 1.257-1.203.701-2.188 2.102-2.188 3.113 0 1.544 1.947 1.714 12.188 1.066l12.187-.772-3.75 3.33-3.75 3.33 3.465-.74c2.391-.51 3.68-.178 4.158 1.067.532 1.386 2.23 1.647 7.302 1.124 4.245-.438 6.92-.179 7.478.725.478.774 1.934 1.407 3.234 1.407s2.814.753 3.364 1.674c.55.92 2.053 2.247 3.342 2.948 2.1 1.144 1.907 1.427-1.875 2.747-5.326 1.857-2.88 3.852 3.754 3.06 2.49-.297 7.06-.072 10.153.501l5.625 1.041-7.187 2.995c-3.953 1.647-7.188 3.453-7.188 4.014 0 .561 2.953 1.085 6.563 1.165 3.61.08 5.578.402 4.375.717-4.03 1.053-2.242 2.888 2.812 2.888 4.991 0 6.674 1.59 3.125 2.952-1.03.396-1.875 1.3-1.875 2.009 0 .71.844 1.29 1.875 1.29 2.734 0 2.294 2.198-.625 3.124-2.644.84-3.46 3.125-1.116 3.125.761 0 1.086.776.722 1.724-.473 1.233.784 1.917 4.422 2.405 2.795.375 5.423 1.202 5.84 1.839.417.637 1.601 1.479 2.632 1.871 1.372.522 1.205.752-.625.857-2.257.129-2.196.322.625 1.984l3.125 1.84-3.437-.77c-5.135-1.151-3.888 1.973 2.187 5.48 2.337 1.35 2.276 1.447-.937 1.482-1.89.021-3.438.392-3.438.824 0 .433 1.97 2.965 4.375 5.629 2.407 2.663 4.375 5.89 4.375 7.17 0 1.28 1.166 3.81 2.591 5.622 1.425 1.811 2.128 3.302 1.563 3.312-.566.01-.466.433.221.938.688.505 1.942 2.158 2.787 3.673 2.641 4.733-.648 4.65-5.962-.152-5.914-5.343-7.8-5.687-6.68-1.218.765 3.044.637 3.162-1.93 1.788-2.123-1.136-3.167-1.125-4.584.051-1.479 1.227-2.182 1.063-3.63-.85-.988-1.306-1.814-2.736-1.836-3.179-.022-.443-1.305-.774-2.852-.736-1.547.038-3.89-.398-5.205-.97-1.587-.689-2.118-.594-1.577.28 1.4 2.265-5.796 2.858-8.223.678-1.892-1.698-2.865-1.747-7.085-.354-3.25 1.073-4.672 2.188-4.236 3.323.36.94.033 1.71-.728 1.71s-1.384-.811-1.384-1.802c0-2.434-1.703-3.322-7.69-4.01-3.806-.437-5.443-.05-6.623 1.564-1.43 1.956-1.825 1.798-4.488-1.804-2.893-3.914-5.772-5.399-4.614-2.38.331.863-.122 2.246-1.007 3.073-1.272 1.188-2.025.868-3.593-1.525-1.092-1.666-1.985-3.705-1.985-4.531 0-.826-.352-1.15-.783-.719-.431.431-2.4-.052-4.375-1.074-2.08-1.076-3.592-1.318-3.592-.575 0 2.168-2.586 1.432-6.478-1.843-4.49-3.777-6.022-3.937-6.022-.625 0 2.588-1.967 3.473-2.717 1.222-.235-.702-2.105-1.582-4.156-1.954-2.051-.372-4.623-1.484-5.714-2.472-2.246-2.032-6.725-2.466-5.532-.536.428.693-.044 2.082-1.049 3.087-1.603 1.603-2.066 1.487-3.774-.947-1.617-2.303-2.153-2.47-3.157-.98-.874 1.296-1.67 1.43-2.868.48-.912-.724-3.227-1.23-5.145-1.127-1.962.107-4.37-.787-5.506-2.042-1.11-1.227-3.057-2.23-4.325-2.23-3.18 0-3.083 7.242.235 17.63 1.797 5.623 2.675 12.356 2.996 22.974.25 8.261.556 15.02.68 15.02.123 0 .412.985.642 2.188.23 1.203-.005 2.187-.523 2.187-1.523 0-.771 15.373.899 18.369.84 1.509 1.892 6.852 2.336 11.875.589 6.655 1.643 10.394 3.888 13.787 2.393 3.617 2.903 5.6 2.286 8.89-.566 3.019-.25 4.685 1.105 5.81 1.045.866 1.9 2.322 1.9 3.234 0 2.596 7.686 9.128 11.805 10.032 4.42.971 10.694 5.356 10.694 7.474 0 .826 1.913 1.86 4.25 2.298 2.337.439 4.937 1.626 5.778 2.64.84 1.012 2.198 1.841 3.016 1.841.818 0 3.815 1.125 6.661 2.5 2.846 1.375 5.815 2.5 6.599 2.5 2.832 0 16.013 10.29 17.348 13.543 3.372 8.219 3.705 11.433 1.77 17.112-2.049 6.013-2.085 5.802 4.189 24.345 1.047 3.094 2.33 7.378 2.852 9.52.522 2.143 1.827 5.518 2.9 7.5 6.13 11.317 14.637 29.625 14.637 31.497 0 1.197.824 3.353 1.831 4.79 1.007 1.439 1.556 2.89 1.219 3.227-.337.337.527 3.27 1.919 6.518 5.534 12.91 1.541 27.225-9.144 32.782-1.953 1.016-4.336 1.546-5.297 1.177-.96-.369-3.242.716-5.07 2.41-4.51 4.179-14.602 4.413-17.841.413-1.697-2.096-2.676-2.4-4.575-1.422-1.33.685-4.89 1.624-7.913 2.086-4.64.71-6.247.344-10.313-2.346-2.649-1.753-4.816-4.068-4.816-5.144 0-1.558-.826-1.773-4.062-1.057-8.338 1.845-15.178.554-17.213-3.248-.956-1.786-.627-3.752 1.32-7.894 2.907-6.184 3.46-6.78 16.105-17.359 1.43-1.196 2.592-3.165 2.582-4.375-.01-1.21-2.822-7.805-6.25-14.656-3.427-6.85-6.232-13.46-6.232-14.687 0-1.228-.562-2.232-1.25-2.232-.687 0-1.25-1.125-1.25-2.5 0-1.389-.833-2.5-1.875-2.5-1.173 0-1.875-1.185-1.875-3.164 0-1.74-.843-3.488-1.875-3.884-1.068-.41-1.875-2.274-1.875-4.335 0-2.36-.643-3.617-1.85-3.617-1.019 0-2.195-1.365-2.614-3.034-.419-1.67-1.554-3.34-2.523-3.711-.97-.372-1.763-1.442-1.763-2.379 0-.936-2.53-3.52-5.625-5.741-3.093-2.222-5.625-4.568-5.625-5.212 0-.645-.745-1.173-1.657-1.173-.911 0-2.978-1.406-4.593-3.125-1.614-1.718-4.16-3.125-5.656-3.125-1.497 0-5.42-1.434-8.717-3.188-3.298-1.753-6.766-2.892-7.708-2.53-1.86.713-10.419-2.914-10.419-4.416 0-1.063-6.08-3.064-12.64-4.16-2.484-.415-5.525-1.869-6.757-3.23-1.232-1.362-2.962-2.476-3.845-2.476s-4.158-2.11-7.277-4.687c-3.12-2.578-7.423-6.038-9.564-7.689-2.14-1.65-4.494-4.322-5.23-5.937-.736-1.615-1.972-2.937-2.748-2.937-1.432 0-8.612-8.058-12.251-13.75-1.1-1.718-3.083-6.244-4.408-10.056-2.344-6.74-10.911-20.587-14.667-23.704-1.024-.85-1.863-2.314-1.863-3.254s-2.39-4.948-5.312-8.91c-2.922-3.96-6.38-9.3-7.685-11.866-1.857-3.651-3.328-4.845-6.767-5.49-4.969-.932-8.182.553-8.738 4.04-.75 4.705-3.102 7.749-6.518 8.432-2.343.468-3.901 1.84-4.758 4.19-1.144 3.136-1.284 3.205-1.373.68-.136-3.867-2.599-3.571-2.599.313 0 2.463-.634 3.125-2.99 3.125-1.646 0-3.316.844-3.712 1.875-.395 1.032-1.375 1.875-2.178 1.875-2.576 0-7.026 5.9-7.879 10.447-.53 2.826-1.71 4.693-3.284 5.192-1.351.429-2.457 1.638-2.457 2.688 0 1.049-1.125 2.202-2.5 2.561-1.958.512-2.5 1.705-2.5 5.508 0 3.482-.53 4.854-1.875 4.854-1.03 0-1.94.985-2.02 2.188-.138 2.083-.172 2.083-.716 0-.672-2.571-1.66-2.694-5.955-.737-2.607 1.188-3.184 2.32-3.184 6.25 0 2.64-.562 4.8-1.25 4.8-.687 0-1.25 1.922-1.25 4.272 0 5.507-1.077 8.227-3.258 8.227-.958 0-1.742.844-1.742 1.875 0 1.032-.562 1.875-1.25 1.875-.687 0-1.25 1.575-1.25 3.5s-.618 4.118-1.373 4.874c-3.494 3.493-5.028 32.276-3.62 67.876l.618 15.625-5 5.373c-2.75 2.955-8.89 8.538-13.643 12.408-4.754 3.87-13.077 11.386-18.496 16.703-5.418 5.318-10.674 9.984-11.68 10.37-1.005.385-2.475 2.123-3.267 3.861-.792 1.738-2.429 3.16-3.637 3.16-3.74 0-6.152 1.424-6.152 3.634 0 2.725-2.408 5.116-5.154 5.116-1.184 0-3.944 1.628-6.132 3.618-6.964 6.333-8.741 7.699-11.888 9.132-1.692.77-3.076 2.155-3.076 3.076 0 .94-1.333 1.674-3.043 1.674-1.674 0-4.487.549-6.25 1.22-2.544.966-3.207.837-3.207-.626 0-3.079-1.974-2.1-6.745 3.343-2.501 2.853-4.879 4.856-5.284 4.45-.816-.816-1.786-.11-11.5 8.375-2.643 2.308-11.994 4.522-14.945 3.538zm44.879-74.05c3.008-2.75 5.892-5 6.408-5s.938-.74.938-1.646c0-.905 2.812-4.102 6.25-7.104 3.437-3.003 6.25-5.941 6.25-6.53 0-.59 1.123-2.596 2.496-4.458 3.643-4.943 4.84-23.64 2.04-31.869-1.12-3.29-2.036-8.494-2.036-11.567 0-3.197-1.07-7.58-2.5-10.25-1.375-2.565-2.5-5.905-2.5-7.422 0-1.516-.519-3.077-1.152-3.469-.634-.391-1.521-4.503-1.972-9.136-.45-4.633-1.303-10.112-1.894-12.174-1.221-4.266-2.51-15.124-3.143-26.488-.402-7.204-.791-8.086-5.661-12.812-2.876-2.791-5.63-5.075-6.118-5.075-.488 0-.87 2.953-.85 6.562.058 10.169-1.856 22.595-3.833 24.875-.983 1.134-1.892 4.227-2.02 6.875-.128 2.647-.76 5.193-1.407 5.658-.646.465-1.158 5.105-1.137 10.312.02 5.207-.422 9.468-.983 9.468-.56 0-.469 1.445.203 3.211.671 1.767.956 4.439.632 5.938-.324 1.499-.866 9.194-1.203 17.1-.338 7.907-1.257 19.822-2.042 26.478-1.204 10.207-1.13 13.045.476 18.125 1.047 3.312 2.285 8.828 2.75 12.256.881 6.495 3.652 13.142 5.478 13.142.583 0 3.521-2.25 6.53-5z"/></svg>