<svg xmlns="http://www.w3.org/2000/svg" xmlns:dc="http://dublincore.org/documents/dcmi-terms/" height="369.756" viewBox="0 0 873.52338 346.64655" width="931.758"><metadata><dc:description>Silhouette of Dinocerata, processed by PhyloPic Tools (https://github.com/eweitz/phylopic-tools)</dc:description><dc:source>http://phylopic.org/image/f72f8145-1860-407b-838a-cff909a6bd69</dc:source><dc:creator>Zimices</dc:creator><dc:license>http://creativecommons.org/licenses/by/3.0/</dc:license></metadata><path d="M528.178.012c-18.756-.093-34.847.364-43.275 1.542-5.844.818-20.516 2.317-32.604 3.33-12.088 1.015-25.87 2.407-30.625 3.094-4.755.688-21.646 1.26-37.535 1.274-22.508.019-32.447.574-45 2.511-8.861 1.368-18.965 2.493-22.453 2.5-7.122.015-37.114 5.685-40.96 7.743-1.371.734-8.166 2.894-15.097 4.8-24.232 6.665-40.14 13.118-53.41 21.663-11.691 7.528-13.267 8.18-21.527 8.916-4.902.436-17.914.62-28.914.406l-20-.389-.372-9.318c-.604-15.125-3.613-16.012-18.925-5.584-9.413 6.41-10.634 6.904-15.166 6.138C91.234 46.766 69.52 53.18 60.192 61.08c-2.248 1.904-5.593 6.074-7.432 9.267-1.84 3.194-4.64 7.547-6.225 9.674-1.584 2.128-2.882 5.003-2.882 6.39 0 1.388-1.742 4.71-3.872 7.382-2.129 2.672-4.697 6.45-5.707 8.394-1.01 1.944-3.842 6.163-6.294 9.375-4.614 6.043-7.46 11.666-10.954 21.649-1.485 4.246-3 6.209-5.636 7.3-1.983.822-5.192 3.784-7.133 6.583C.924 151.61.48 153.473.1 163.694c-.474 12.746.506 15.81 8.025 25.097l4.16 5.14 11.664.61c6.416.335 12.874 1.258 14.352 2.049 4.34 2.322 17.283 1.833 19.836-.75 1.19-1.203 4.734-3.594 7.879-5.313 3.17-1.733 6.842-5.046 8.24-7.437 4.553-7.786 12.451-14.632 19.582-16.975 3.68-1.209 7.8-2.96 9.156-3.893 6.043-4.153 23.9-1.104 36.284 6.196 10.024 5.909 10.579 6.494 10.605 11.187.034 6.196 4.632 20.29 10.74 32.92 5.78 11.954 6.003 12.827 6.477 25.502.339 9.067-.057 14.864-1.28 18.75-2.395 7.617-12.348 22.445-26.115 38.906-2.515 3.008-7.202 10.617-10.414 16.909-5.628 11.025-6.038 11.489-11.293 12.812-2.999.755-6.822 1.373-8.496 1.373-3.429 0-6.499 2.938-5.224 5 .462.748.109 2.24-.784 3.315-2.346 2.826 1.869 5.695 6.973 4.746 3.147-.586 4.028-.207 5.06 2.177.985 2.273 2.182 2.86 5.626 2.758 10.503-.308 27.985-3.026 30.636-4.763 1.59-1.042 4.687-5.71 6.883-10.375 2.196-4.665 6.043-11.694 8.549-15.62 3.972-6.22 5.84-7.785 14.557-12.199 18.55-9.392 26.464-14.383 34.257-21.601 4.269-3.953 8.235-7.188 8.815-7.188.58 0 4.033-3.437 7.672-7.637 5.525-6.378 6.755-8.694 7.465-14.062.826-6.248.264-8.988-6.373-31.098l-1.028-3.422 4.596 2.471c2.528 1.359 7.493 3.647 11.033 5.084 5.836 2.37 6.724 3.275 9.524 9.701 1.698 3.899 4.282 11.588 5.742 17.088 1.46 5.5 4.34 16.199 6.402 23.774 3.553 13.052 3.684 14.359 2.492 25-.927 8.277-2.32 13.435-5.303 19.63-4.357 9.053-5.194 9.745-12.794 10.579-6.857.751-9.035 3.03-7.053 7.378 1.33 2.92 2.049 3.24 5.847 2.624 3.66-.594 4.33-.336 4.33 1.658 0 1.297.985 2.932 2.188 3.633 3.573 2.08 6.77 1.546 11.86-1.98l4.804-3.331 1.897 2.705c2.183 3.118 10.447 3.803 13.224 1.096.909-.886 4.234-2.585 7.387-3.776 11.052-4.174 10.449-2.426 10.684-31.062.114-13.985.592-38.171 1.06-53.746l.852-28.319 27.71-.535c17.055-.33 33.237-1.364 42.085-2.69 7.906-1.184 23.937-3.53 35.625-5.212 20.733-2.984 28.26-4.434 48.75-9.39 10.616-2.569 46.622-12.14 58.113-15.45 10.086-2.904 40.053-5 41.926-2.932.795.878 2.683 5.534 4.197 10.346 1.513 4.813 4.626 11.563 6.916 15 3.538 5.312 4.486 8.408 6.31 20.625 1.181 7.906 2.98 18.594 3.997 23.75 4.97 25.195 4.478 44.71-1.291 51.06-4.439 4.886-13.956 8.926-24.032 10.204-5.19.658-9.96 1.52-10.6 1.916-1.634 1.01-1.41 5.624.45 9.32 1.278 2.538 2.741 3.243 7.793 3.75 5.645.567 6.257.939 6.611 4.004.543 4.702 3.352 5.204 16.45 2.943 6.207-1.07 15.644-1.937 20.972-1.927 7.483.014 12.531-.89 22.188-3.971 18.178-5.8 22.167-10.166 18.68-20.44-1.47-4.325-1.578-6.198-.481-8.248 1.059-1.978 1.059-3.962 0-7.818-.935-3.404-1.296-15.99-1.059-36.889l.36-31.722 4.091 6.314c4.305 6.646 16.422 15.653 27.38 20.35 3.13 1.342 7.363 3.63 9.406 5.084 2.042 1.454 6.108 3.555 9.035 4.67 2.926 1.114 11.023 5.4 17.994 9.525 9.885 5.85 12.68 8.102 12.697 10.238.013 1.507-.524 3.077-1.193 3.49-.67.414-1.8 2.918-2.512 5.563-1.473 5.47-7.01 15.87-9.154 17.195-.787.487-4.483 1.299-8.213 1.805-6.461.877-9.328 2.724-8.475 5.46.215.687 1.642 1.433 3.172 1.657 1.562.23 3.287 1.737 3.934 3.438 1.085 2.855 3.126 3.728 7.463 3.191 1.03-.127 5.53-.472 10-.765 4.468-.294 12.343-1.137 17.5-1.873 5.156-.737 10.366-1.445 11.578-1.575 1.211-.13 1.978-.817 1.705-1.529-.273-.712.793-3.556 2.369-6.318 1.576-2.763 3.445-8.107 4.156-11.875.71-3.769 2.932-10.227 4.936-14.352 5.55-11.428 6.826-16.284 5.828-22.193-1.719-10.173-7.78-15.32-24.518-20.822-6.267-2.06-10.622-4.7-17.652-10.698-13.43-11.459-14.652-14.511-14.652-36.592 0-23.622 1.691-34.586 7.76-50.32 2.783-7.219 5.461-13.57 5.95-14.113 1.534-1.703 7.668 9.036 11.561 20.24 22.559 64.922 27.691 77.55 34.998 86.108 15.673 18.354 23.407 24.63 41.625 33.779 8.26 4.148 16.698 7.932 18.75 8.408 2.053.476 6.543 2.154 9.98 3.729 4.157 1.904 9.697 3.099 16.542 3.566 9.46.646 10.558.472 13.613-2.156 3.016-2.595 3.242-3.394 2.453-8.657-.934-6.227-6.186-12.154-10.771-12.154-3.165 0-30.583-10.654-36.836-14.314-7.38-4.32-18.805-16.903-22.323-24.586-9.921-21.67-13.43-30.296-14.513-35.686-2.333-11.61-5.127-28.702-8.053-49.246-1.864-13.087-3.863-22.516-5.432-25.625-1.365-2.705-2.906-6.324-3.424-8.043-.517-1.719-4.03-9.388-7.806-17.043-5.736-11.625-7.868-14.68-12.936-18.545-3.337-2.545-7.178-6.406-8.535-8.582-6.823-10.935-35.932-33.998-52.945-41.949-4.657-2.176-11.37-4.507-14.918-5.18-3.549-.673-12.114-3.975-19.033-7.34-6.92-3.364-15.09-6.787-18.155-7.607-13.85-3.703-68.014-6.567-109.277-6.77z"/></svg>