<svg xmlns="http://www.w3.org/2000/svg" xmlns:dc="http://dublincore.org/documents/dcmi-terms/" height="219.12" viewBox="0 0 451.44 219.12" width="451.44"><metadata><dc:description>Silhouette of Diplacanthus, processed by PhyloPic Tools (https://github.com/eweitz/phylopic-tools)</dc:description><dc:source>http://phylopic.org/image/d7202fd0-6d83-4207-879b-46301b948cf7</dc:source><dc:creator>Steven Coombs</dc:creator><dc:license>http://creativecommons.org/publicdomain/zero/1.0/</dc:license></metadata><path d="M436.32 90.72c3.47-.02 2.25 3.56-.48 3.6l.061-1.02-.78-.66c.05-.19.24-.24.24-.48l1-.37-.041-1.07z"/><path d="M436.36 91.79l-1 .37c0 .24-.19.29-.24.48l.78.66c-14.17 5.4-27.381 12.64-42.2 19.15-9.15 4.02-17.391 6.7-24.25 11.72-9.71 7.09-17.7 18.91-23.24 32.29-2.12 5.15.04 10.04.53 16.16l-.66-.78c-1.311-.01-.58-2.85-1.92-2.16-1.16.601.87 2.271.479 3.12-1.35-.24-2.399-.8-3.84-.96v1.2c-2.79-1.68-6.13-2.81-9.359-3.36l.72-.96c-.57-.55-1.24-1-2.4-.96l-.24 1.08c-13.52-5.13-28.84-18.37-42.779-17.05-3.86.37-13.41.9-10.351 9.37l-1.109-.12c1 6.2 4.55 9.85 7.92 13.68l.93-.76c4.061 4.57 8.24 9.28 13.8 13.62 1.86 1.46 4.16 1.66 4.561 3.82l-1.05-.12c.109.67-1.311-.19-1.2.479l.6.87c-16.34-.1-31.25-5.55-46.04-11.35-1.59-.63-3.29-1.181-4.91-1.84-9.109-3.74-18.189-8.671-27.59-11.271-1.62-.45-3.58-.05-4.97 1.03-8.07 6.3-.21 11.979 5.39 15.13 3.95 2.21 1.48 3.83-1.89 3.35-4.3-.6-16.93-4.76-13.35 3.261 3.01 6.75 8.3 8.29 11.73 11.329 2.23 1.98 4.3 3.65 1.5 5.311-3.61 2.14-15.41-2.14-17.61-2.83-16.79-5.26-31.19-18.97-40.72-28.34-1.88-1.851-4.62-5.37-6.76-6.11-3.26-1.12-8.87.28-12.46.2-7.2-.15-15.7-2.06-22.08-1-.25.04-.64.29-.69.41-.76 2.02 8.3 6.05 7.51 8.96-.66 2.43-4.09.83-5.48.17-8.85-4.19-15.37-13.03-27.14-12.24l.72-.96c-2.6-1.229-4.03 1.44-1.68 2.4l.65-.891c5.17 7.42-7.17.181-9.21.41l.64-.72c-1.86-1.69-4.46-.31-2.64 1.92l.89-.7c1.55 2.811 4.68 4.851 8.05 7.33 6.47 4.76 14.7 7.72 18.24 10.32 2.62 1.92 2.89 2.96 1.67 3.88-1.25.94-5.74-.99-6.95-1.35-12.22-3.591-23.44-10.141-32.01-19.65-2.09-2.31-3.86-6.45-5.76-7.87-2.11-1.57-11.49-3.29-14.91-4.229-7.79-2.171-19.39-7.271-25.76-12.94-1.31-1.16-1.87-1.52-2.09-2.8l1.03.41-.72-.96c3.96.33 7.7 1.93 11.64 2.31l-.12 1.05c1.81.351 8.92 1.23 9.12-.479.11-.9-2.2-1.2-2.88-1.44-2.34-.84-3.55-1.71-6-1.92l.09.94c-4.92-2.41-10.46-5.13-14.54-8.65-4.91-4.22-2.44-9.78-.27-13.95 5.22-10.01 15.74-14.28 25.58-17.49 6.48-2.12 12.77-4.58 19.8-6.24 8.13-1.92 16.31-2.5 24.33-3.57 5.07-.69 10.48-1.46 15.6-1.69 2.42-.1 3.79-.75 5.59-2.74 11.51-12.74 20.71-28.51 32.79-41.57 11.66-12.62 27.26-23.38 42.01-31.47 3.48-1.91 6.8-3.74 10.7-4.37l-.16.96v.24l1.06.1c-6.59 8.07-13.52 18.58-17.94 30.57-3.94 10.71-7.63 20.19-6.19 31.07.97 7.34 1.31 19.55 6.39 24.84.8.84 3.77.8 5.34 1.02 6.47.89 12.75 1.62 19.69 3.57 2.32.65 8.35 2.89 12.33 1.65.57-.18.49-.94.77-1.59 2.51-5.84 7.67-11.55 10.73-15.8 7.909-10.99 14.84-21.59 22.609-31.46 2.74-3.48 6.181-6.31 9.141-9.8 4-4.72 10.319-10.93 16.18-13.86 7.24-3.62 3.62 2.51 1.99 5.79-2.13 4.3-4.79 9.33-6.25 14.41-3.94 13.73-4.051 30.41-.761 43.94.771 3.14 3.181 8.03 5.16 11.74.36.67.94 2.2 1.3 2.53 1.91 1.69 11.721 1.18 16.25 1.03 1.461-.06 2.631 0 3.561-.08 12.9-1.17 22.42-1.62 32.57-2.01 6.34-.24 12.1-1.21 18.47-2.33 13.68-2.38 26.68-4.89 39.55-8.83 2.66-.82 5.42-1.31 8.16-1.86 10.118-2.01 27.588-6.43 37.528-3.17z"/><path d="M346.74 172.62l1.02-.061c-.25 4.71-4.96 2.601-7.439 1.681l.439-1.08-1.16.12v-.24h1.2v-1.2c1.44.16 2.49.72 3.84.96.391-.85-1.64-2.52-.479-3.12 1.34-.689.609 2.15 1.92 2.16l.659.78zM332.16 168.72l-.72.96-.721.96c-.77-.189-1.42-.5-1.92-.96l.72-.84.24-1.08c1.161-.04 1.831.41 2.401.96zM303.36 190.8c2.54.82-.841 4.12-2.641 2.88l.12-1.05-.6-.87c-.11-.67 1.31.19 1.2-.479l1.05.12.871-.601zM285.12 173.28l-.99.68-.93.76c-3.37-3.83-6.92-7.479-7.92-13.68l1.109.12 1.051-.36c2.16 4.56 4.89 8.55 7.68 12.48zM203.76 7.2c.59.71-2.77 3.09-3.36 4.08l-.62-.86-1.06-.1v-.24l.16-.96-.64-.72c1.95-.44 4.4-2.54 5.52-1.2zM96 165.84l-.72.96.72.96-1.03-.41-.65.891c-2.35-.961-.92-3.631 1.68-2.401zM86.4 167.04l-.64.72-.08.96-1.03-.46-.89.7c-1.82-2.23.78-3.61 2.64-1.92zM43.2 141.84c.68.24 2.99.54 2.88 1.44-.2 1.71-7.31.83-9.12.479l.12-1.05-.6-.87v-.479l.81-.5-.09-.94c2.45.21 3.66 1.08 6 1.92zM26.16 139.44l-.72.96.72.96-1.03-.41-.65.89c-2.22-.71-.67-3.8 1.68-2.4z"/><g fill="none" stroke="#000" stroke-linecap="round"><path d="M346.74 172.62c-.49-6.12-2.65-11.01-.53-16.16 5.54-13.38 13.53-25.2 23.24-32.29 6.859-5.02 15.1-7.7 24.25-11.72 14.819-6.51 28.03-13.75 42.2-19.15" stroke-width="1.681"/><path d="M331.44 169.68c1.47 2.9 6.39 4.15 9.319 3.48" stroke-width=".641"/><path d="M331.44 169.68c3.229.551 6.569 1.681 9.359 3.36" stroke-width="1.626"/><path d="M302.49 191.4c-.4-2.16-2.7-2.36-4.561-3.82-5.56-4.34-9.739-9.05-13.8-13.62" stroke-width="1.855"/><path d="M276.39 161.16c-3.06-8.47 6.49-9 10.351-9.37 13.939-1.32 29.26 11.92 42.779 17.05" stroke-width="1.805"/><path d="M436.36 91.79c-9.94-3.26-27.41 1.16-37.53 3.17-2.74.55-5.5 1.04-8.16 1.86-12.87 3.94-25.87 6.45-39.55 8.83-6.37 1.12-12.13 2.09-18.47 2.33-10.15.39-19.67.84-32.57 2.01-.93.08-2.1.02-3.561.08-4.529.15-14.34.661-16.25-1.03-.359-.33-.939-1.86-1.3-2.53-1.979-3.71-4.39-8.6-5.16-11.74-3.29-13.53-3.18-30.21.761-43.94 1.46-5.08 4.12-10.11 6.25-14.41 1.63-3.28 5.25-9.41-1.99-5.79-5.86 2.93-12.18 9.14-16.18 13.86-2.96 3.49-6.4 6.32-9.141 9.8-7.77 9.87-14.7 20.47-22.609 31.46-3.061 4.25-8.22 9.96-10.73 15.8-.28.65-.2 1.41-.77 1.59-3.98 1.24-10.01-1-12.33-1.65-6.94-1.95-13.22-2.68-19.69-3.57-1.57-.22-4.54-.18-5.34-1.02-5.08-5.29-5.42-17.5-6.39-24.84-1.44-10.88 2.25-20.36 6.19-31.07 4.42-11.99 11.35-22.5 17.94-30.57" stroke-width="1.705"/><path d="M95.28 166.8c11.77-.79 18.29 8.05 27.14 12.24 1.39.66 4.82 2.26 5.48-.17.79-2.91-8.27-6.94-7.51-8.96.05-.12.44-.37.69-.41 6.38-1.06 14.88.85 22.08 1 3.59.08 9.2-1.32 12.46-.2 2.14.74 4.88 4.26 6.76 6.11 9.53 9.37 23.93 23.08 40.72 28.34 2.2.69 14 4.97 17.61 2.83 2.8-1.66.73-3.33-1.5-5.311-3.43-3.039-8.72-4.579-11.73-11.329-3.58-8.021 9.05-3.86 13.35-3.261 3.37.48 5.84-1.14 1.89-3.35-5.6-3.15-13.46-8.83-5.39-15.13 1.39-1.08 3.35-1.48 4.97-1.03 9.4 2.6 18.48 7.53 27.59 11.271 1.62.659 3.32 1.21 4.91 1.84 14.79 5.8 29.7 11.25 46.04 11.35" stroke-width="1.654"/><path d="M85.76 167.76c2.04-.229 14.38 7.01 9.21-.41" stroke-width="1.554"/><path d="M84.65 168.26c1.55 2.811 4.68 4.851 8.05 7.33 6.47 4.76 14.7 7.72 18.24 10.32 2.62 1.92 2.89 2.96 1.67 3.88-1.25.94-5.74-.99-6.95-1.35-12.22-3.591-23.44-10.141-32.01-19.65-2.09-2.31-3.86-6.45-5.76-7.87-2.11-1.57-11.49-3.29-14.91-4.229-7.79-2.171-19.39-7.271-25.76-12.94-1.31-1.16-1.87-1.52-2.09-2.8" stroke-width="1.651"/><path d="M25.44 140.4c3.96.33 7.7 1.93 11.64 2.31" stroke-width="1.69"/><path d="M37.29 140.86c-4.92-2.41-10.46-5.13-14.54-8.65-4.91-4.22-2.44-9.78-.27-13.95 5.22-10.01 15.74-14.28 25.58-17.49 6.48-2.12 12.77-4.58 19.8-6.24 8.13-1.92 16.31-2.5 24.33-3.57 5.07-.69 10.48-1.46 15.6-1.69 2.42-.1 3.79-.75 5.59-2.74 11.51-12.74 20.71-28.51 32.79-41.57 11.66-12.62 27.26-23.38 42.01-31.47 3.48-1.91 6.8-3.74 10.7-4.37" stroke-width="1.671"/></g></svg>