<svg xmlns="http://www.w3.org/2000/svg" xmlns:dc="http://dublincore.org/documents/dcmi-terms/" height="198.25" viewBox="0 0 533 198.25" width="533"><metadata><dc:description>Silhouette of Dipnoi + Rhynchodipterus, processed by PhyloPic Tools (https://github.com/eweitz/phylopic-tools)</dc:description><dc:source>http://phylopic.org/image/d28e081c-e9d1-44a5-97d0-687009ecec16</dc:source><dc:creator>Steven Coombs</dc:creator><dc:license>http://creativecommons.org/publicdomain/zero/1.0/</dc:license></metadata><path d="M524.94 79.34h2.159c-.149-1.33-1.79-.2-2.399-.72 4.819-1.79 4.76 3.16.96 3.36l-.5-1.08-1.18.12v-.24l1.079-.32-.119-1.12z"/><path d="M434.25 95.99l-.03 1.109c1.5-.029 2.351-.95 3.601-1.2.84-.17 1.87.25 1.92.24.64-.15 1.41-.94 2.16-1.2.909-.31 1.689-.26 2.64-.72l-.72-.96c15.569-3.25 33.21-7.86 49.71-10.08 9.33-1.26 18.279-4.12 26.16-3.6 1.77.12 4.069.45 5.369.88l-1.079.32v.24l1.18-.12c-.58 1.14-1.66 1.36-2.46 1.69-6.851 2.82-9.21 4.51-13.431 7.97-11.97 9.84-20.01 21.44-26.649 33.58l-.64-.88c-2.341 1.98-3.961 4.681-5.28 7.681l1.12.399c-1.471 2.86-4.061 5.17-5.13 8.17l-1.271-.649c-.29.51-.9.699-.96 1.439l1.14.271c-4.35 2.08-15.77-2.49-20.77-4.44-4.59-1.78-10.771-3.51-16.98-4.3-7.6-.97-20.939-2.48-27.83-1.63l.12-1.181c-1.92 0-3.97-.13-5.279.48l-.04 1.08-.681.84c2.91.04 4.44 1.82 6.721 1.2l-.12-.87a259.111 259.111 0 0 1 40.02 7.77l-1.02.54c.41.82 4.68 2.601 3.359.721l-.72-.96c5.69.67 10.24 4.04 8 8.97-3.17 6.96-15.78 4.92-20.91 4.72-1.18-.05-2.779.24-3.6.221-13.34-.221-29.36-2.37-43.46-5.54-8.601-1.931-19.29-5.03-27.771-5.631l-.1-1.06c-1.85-.55-4.021-.78-6-1.2v1.2l-.72.96c2.529 1.33 3.16 1.87 6.479 2.64l.16-.93c8.021 3.72 15.74 5.89 23.33 9.13 5.02 2.141 11.61 7.12 17.37 7.63 5.05.44 11.21.98 16.62 2.15l-1.08.5c0 1.59 3.77 1.05 4.8.72l-.6-.899c.869.399 6.58-.15 7.449 1.06 2.16 3.04-9.1 6.13-9.229 6.18-11.16 4.101-26.73 5.36-36.45 4.86-6.95-.35-14.81.42-21.47-.05-10.42-.74-20.49-3.51-30.04-7.59-3.41-1.45-6.67-3.511-10.41-4.841-3.54-1.25-7.32-2.369-10.94-3.689-8.76-3.2-18.159-7.11-27.21-8.46-3.489-.53-7.529-.22-11.29-.57-6.379-.58-14.52-.89-21.899-.95-10.84-.1-20.6-.3-31.07.641l.12-1.05c-1.65.569-3.46.02-4.32.72-.63.51.45 2.359-.72 2.64.94.48 1.78-1 2.88 0l.27-1.149c14.53 15.729 34.45 25.189 53.371 34.489l-.601.74c-.07.55.69.271.72.72v.48l1.08.32c-1.46.779-3.27.58-5.31.39-7.04-.63-14.59-2.5-22.19-3.12-12.53-1.01-25.73-4.09-38.65-7.43-4.71-1.221-9.15-3.61-13.85-4.91-2.88-.8-6.1-2.33-9.71-4.66-4.92-3.17-10.54-6.68-14.66-9.6-3.77-2.67-8.74-7.221-12.83-10.03-3.2-2.2-9.95-.94-14.62-1.79-9.73-1.77-21.48-.99-32.7-1.04-9.36-.04-24.68.05-35.57-4.37-12.98-5.26-23.11-4.53-35.89-4.77-2.18-.04-4.78-.84-8.03-1.79-4.35-1.271-9.44-1.7-13.16-2.71-5.11-1.4-3.5-4.69-5.81-8.03-1.18-1.71-2.68-2.7-1.96-5.19 1.48-5.06 10.37-5.569 14.07-7.029 8.57-3.38 14.63-5.58 21.37-7.79 7.51-2.471 14.72-7.22 23.83-10.51.85-.58 1.96-.44 2.78-1.13l-.03 1.11c9.26-3.54 17.46-8.14 25.44-12.96l-.72-.84c8.22-3.85 18.41-8.32 27.19-10.44 5.92-1.43 12.51-7.31 19.64-10.47 11.23-4.99 20.46-7.72 31.7-10.33 7.96-1.86 15.53-3.69 23.47-4.51 7.87-.82 16.13-2.79 23.46-3.76 7.11-.94 14.14-1.61 20.96-2.61 2.06-.31 4.09-1.1 6.15-1.33 6.36-.71 10.71-.38 16.08-3.54 2.43-1.43 5.44-3 8.24-4.32 7.71-3.64 14.06-9.06 21.86-12.56 4.85-2.18 11.739-6.8 17.989-6.33 3.91.28 6.25 4.95 3.431 8.97-4.24 6.03-3.351 11.96-11.19 13.83-7.05 1.68-14.5.92-21.59 4-2.16.94-3.65 1.98-1.1 2.75 5.029 1.53 11.899 1.27 17.039 1.18 18.551-.32 33.341-5.34 50.11-14.7 4.63-2.59 8.46-6.42 13.61-9.38 9.79-5.64 17.84-9.72 28.09-8.3 9.04 1.25 20.16 8.2 28.62 13.98 16.819 11.5 23.3 21.71 33.35 33 6.21 6.98 14.19 16.33 9.03 24.65l-.62-.86c-.93.59-1.43 1.61-1.92 2.64l.76.68c-3.54 4.43-8.39 6.95-13.359 9.52l-.12-.84c-3.811 1.15-7.511 2.41-10.32 4.56l.751.807z"/><path d="M482.62 124.14l1.04.32c-.96 3.44-2.96 5.84-5.28 7.92l-.56-1.04-1.12-.399c1.319-3 2.939-5.7 5.28-7.681l.64.88zM474.06 139.1c2.521 1-1.26 2.301-2.399 2.641l-.061-1.17-1.14-.271c.06-.74.67-.93.96-1.439l1.271.649 1.369-.41zM459.08 79.48l1.06.1c-.29 1.71-1.12 2.88-2.64 3.36l-.2-1-.76-.68c.49-1.03.99-2.05 1.92-2.64l.62.86zM449.1 140.78c1.32 1.88-2.949.1-3.359-.721l1.02-.54.181-1.14c.81.07 1.64.12 2.159.48l-.72.96.719.961zM444.54 92.06v.24l-.72.96.72.96c-.95.46-1.73.41-2.64.72-.75.26-1.521 1.05-2.16 1.2-.05.01-1.08-.41-1.92-.24-1.25.25-2.101 1.17-3.601 1.2l.03-1.109-.75-.81c2.81-2.15 6.51-3.41 10.32-4.56l.12.84.601.599zM420.9 163.4l.6.899c-1.03.33-4.8.87-4.8-.72l1.08-.5-.12-1.18c1.32.04 2.609.109 3.6.479l-.36 1.022zM407.1 130.7v.24l-.359.81.12.87c-2.28.62-3.811-1.16-6.721-1.2l.681-.84.04-1.08c1.31-.61 3.359-.48 5.279-.48l-.12 1.181 1.08.499zM360.64 142.56l.86.62c-.05.19-.24.24-.24.48l-.8.51-.16.93c-3.319-.77-3.95-1.31-6.479-2.64l.72-.96v-1.2c1.979.42 4.15.65 6 1.2l.099 1.06zM269.82 184.7c2.029.27 2.96 2.16 4.56 2.16-.51 1.37-1.34 3.01-3.36 2.159l.12-1.119-1.08-.32v-.48c-.029-.449-.79-.17-.72-.72l.601-.74-.121-.94zM218.34 149.99l.6.87c-.2.359-.77.35-1.2.479l-1.17-.189-.27 1.149c-1.1-1-1.94.48-2.88 0 1.17-.28.09-2.13.72-2.64.86-.7 2.67-.15 4.32-.72l-.12 1.051zM92.94 79.7l.72.84c-7.98 4.82-16.18 9.42-25.44 12.96l.03-1.11-.75-.81c3.69-2.58 9.16-4.57 13.68-6.96 3.77-1.99 7.12-5.01 11.52-6l.24 1.08z"/><g fill="none" stroke="#000" stroke-linecap="round"><path d="M482.62 124.14c6.64-12.14 14.68-23.74 26.65-33.58 4.221-3.46 6.58-5.15 13.431-7.97.8-.33 1.88-.55 2.46-1.69" stroke-width="1.74"/><path d="M472.69 139.51c1.069-3 3.659-5.31 5.13-8.17" stroke-width="2.383"/><path d="M443.94 91.46c4.97-2.57 9.819-5.09 13.359-9.52" stroke-width="1.655"/><path d="M443.82 93.26c15.569-3.25 33.21-7.86 49.71-10.08 9.33-1.26 18.279-4.12 26.16-3.6 1.77.12 4.069.45 5.369.88" stroke-width="1.747"/><path d="M434.25 95.99c-3.91 1.59-8.05 2.75-11.91 4.35" stroke-width="1.809"/><path d="M406.02 130.2c6.891-.851 20.23.66 27.83 1.63 6.21.79 12.391 2.52 16.98 4.3 5 1.95 16.42 6.521 20.77 4.44" stroke-width="1.656"/><path d="M406.74 131.75a259.111 259.111 0 0 1 40.02 7.77" stroke-width="1.743"/><path d="M400.82 130.58c-11.641-.35-23.19-2.6-34.641-4" stroke-width="1.78"/><path d="M417.78 163.08c-5.41-1.17-11.57-1.71-16.62-2.15-5.76-.51-12.351-5.489-17.37-7.63-7.59-3.24-15.31-5.41-23.33-9.13" stroke-width="1.628"/><path d="M360.64 142.56c8.48.601 19.17 3.7 27.771 5.631 14.1 3.17 30.12 5.319 43.46 5.54.82.02 2.42-.271 3.6-.221 5.13.2 17.74 2.24 20.91-4.72 2.24-4.93-2.31-8.3-8-8.97" stroke-width="1.687"/><path d="M350.79 140.49c1.2.55 2.45.819 3.75 1.01" stroke-width="1.88"/><path d="M218.34 149.99c10.47-.94 20.23-.74 31.07-.641 7.38.061 15.52.37 21.899.95 3.761.351 7.801.04 11.29.57 9.051 1.35 18.45 5.26 27.21 8.46 3.62 1.32 7.4 2.439 10.94 3.689 3.74 1.33 7 3.391 10.41 4.841 9.55 4.08 19.62 6.85 30.04 7.59 6.66.47 14.52-.3 21.47.05 9.72.5 25.29-.76 36.45-4.86.13-.05 11.39-3.14 9.229-6.18-.869-1.21-6.58-.66-7.449-1.06" stroke-width="1.683"/><path d="M269.94 185.64c-18.92-9.3-38.84-18.76-53.371-34.489" stroke-width="1.507"/><path d="M92.94 79.7c8.22-3.85 18.41-8.32 27.19-10.44 5.92-1.43 12.51-7.31 19.64-10.47 11.23-4.99 20.46-7.72 31.7-10.33 7.96-1.86 15.53-3.69 23.47-4.51 7.87-.82 16.13-2.79 23.46-3.76 7.11-.94 14.14-1.61 20.96-2.61 2.06-.31 4.09-1.1 6.15-1.33 6.36-.71 10.71-.38 16.08-3.54 2.43-1.43 5.44-3 8.24-4.32 7.71-3.64 14.06-9.06 21.86-12.56 4.85-2.18 11.739-6.8 17.989-6.33 3.91.28 6.25 4.95 3.431 8.97-4.24 6.03-3.351 11.96-11.19 13.83-7.05 1.68-14.5.92-21.59 4-2.16.94-3.65 1.98-1.1 2.75 5.029 1.53 11.899 1.27 17.039 1.18 18.551-.32 33.341-5.34 50.11-14.7 4.63-2.59 8.46-6.42 13.61-9.38 9.79-5.64 17.84-9.72 28.09-8.3 9.04 1.25 20.16 8.2 28.62 13.98 16.819 11.5 23.3 21.71 33.35 33 6.21 6.98 14.19 16.33 9.03 24.65" stroke-width="1.673"/><path d="M65.47 93.52c.85-.58 1.96-.44 2.78-1.13" stroke-width="1.893"/><path d="M65.47 93.52c.97 1.77-1.8 2.3-2.89 2.98" stroke-width=".463"/><path d="M271.14 187.9c-1.46.779-3.27.58-5.31.39-7.04-.63-14.59-2.5-22.19-3.12-12.53-1.01-25.73-4.09-38.65-7.43-4.71-1.221-9.15-3.61-13.85-4.91-2.88-.8-6.1-2.33-9.71-4.66-4.92-3.17-10.54-6.68-14.66-9.6-3.77-2.67-8.74-7.221-12.83-10.03-3.2-2.2-9.95-.94-14.62-1.79-9.73-1.77-21.48-.99-32.7-1.04-9.36-.04-24.68.05-35.57-4.37-12.98-5.26-23.11-4.53-35.89-4.77-2.18-.04-4.78-.84-8.03-1.79-4.35-1.271-9.44-1.7-13.16-2.71-5.11-1.4-3.5-4.69-5.81-8.03-1.18-1.71-2.68-2.7-1.96-5.19 1.48-5.06 10.37-5.569 14.07-7.029 8.57-3.38 14.63-5.58 21.37-7.79 7.51-2.471 14.72-7.22 23.83-10.51" stroke-width="1.75"/></g></svg>