<svg xmlns="http://www.w3.org/2000/svg" xmlns:dc="http://dublincore.org/documents/dcmi-terms/" height="2231.035" version="1.2" viewBox="0 0 4354.026 2231.035" width="4354.026" overflow="inherit"><metadata><dc:description>Silhouette of Diprotodon optatum, processed by PhyloPic Tools (https://github.com/eweitz/phylopic-tools)</dc:description><dc:source>http://phylopic.org/image/d72a4bfb-6bef-417a-bd58-9ed7751317c5</dc:source><dc:creator>Dmitry Bogdanov (vectorized by T. Michael Keesey)</dc:creator><dc:license>http://creativecommons.org/licenses/by/3.0/</dc:license></metadata><path d="M.014 626c10.395-40.684 13.139-82.548 19-122 1.178-7.93 5.405-14.284 8-22 19.824-58.945 45.194-105.176 91-138 14.697-10.532 19.109-17.892 37-21 5.709-.992 12.103-4.57 18-6 1.753-.914 3.474-1.859 3-5 14.374-5.193 31.253-14.686 48-17 6.611-.914 17.744-1.406 24 0 4.222.949 7.842 6.146 12 6 6.054-.212 9.172-7.372 13-9 3.985 2.015 5.676 6.324 11 7 3.613.28 2.287-4.38 4-6 10.359 2.202 20.127-6.377 29 2 6.666-5.562 16.148.312 23-1 1.753.914 3.474 1.859 3 5 9.465-.202 14.581-4.752 24-5 1.172.162.844 1.823 1 3 7.234-2.711 19.396.337 26-5 2.57.097 1.43 3.903 4 4 6.251.585 10.436-.898 14-3 9.33 3.801 18.165-2.695 27-5 4.92-1.284 10.84.037 15-1 8.561-2.134 13.596-9.436 17-16 1.44.226.349 2.984 2 3 5.381-1.286 8.896-4.437 13-7 .127-1.793-1.224-2.109-1-4 8.767-8.566 20.338-14.329 29-23-5.511-1.16-11.666 5.654-17 8 6.055-8.278 15.748-12.918 21-22-.89.443-1.789.878-2 2 3.269-5.573 14.861-16.238 23-17 2.822-1.974 3.557-4.818 6-7 .822-.734.37 2.02 0 2 2.456.129 5.212-6.129 5-6 1.02-.624 5.118-.062 5 0 4.483-2.375 5.671-7.372 11-12-2.406 2.09 5.799-1.47 7-6 1.703 5.036 6.746 1.228 5 4 4.628-4.158 8.192-11.388 14-12 1.172-.124 2.712 1.739 2 2 10.867-3.98 14.113-13.318 21-22 5.318.769 13.343-3.832 20-5-.426 1.907-2.857 1.81-2 5 7.586-2.926 10.257-3.625 13-8 .158 3.17 7.301-3.459 10-5 7.717.235 9.018-.755 15-3-.426 1.907-2.857 1.81-2 5 12.042-5.357 26.511-15.323 33-20 .172 2.995-4.81 8.223-9 6 .776.89 1.075 2.258 1 4 9.752-2.734 21.759-8.016 35-14 5.05.767-3.149 2.767-2 6 10.125-1.875 16.377-7.623 26-10 .729 2.729-1.987 2.013-2 4 35.793-13.896 74.038-12.91 111-27v5c2.09-.423 2.648.686 4 1 6.318.652 6.226-5.108 13-4-.406 1.927-3.877.79-3 4 10.875-.186 18.857-7.438 27-9 .802 4.136-3.632 3.035-3 7 8.187 1.842 15.003-6.321 25-6-3.658 6.059-3.28-.243-5 5 13.4-.678 21.375.799 33-1 1.958 1.869.309 3.663 0 6 8.48-1.005 13.062.568 19 4 18.122-8.441 47.101.768 61-14 15.253 2.252 15.243-10.757 25-14-.17 2.837 3.382 1.952 2 6 9.44-6.745 16.774-12.731 28-19 3.764-2.102 6.257-6.859 9-8 .455-.189 3.807 2.008 4 2 4.619-.198 8.814-10.737 16-12 2.146-.377 3.542 1.513 5 1 12.399-4.362 25.792-16.727 36-23 6.053 5.827 19.216-4.802 25-9 2.652 1.446-3.672 2.234-2 6 7.397 4.373 8.684-5.964 15-6 .745 3.078-2.745 1.922-2 5 4.723.056 5.683-3.65 8-6 2.726.92-1.397 3.126 0 6 5.277-.722 6.125-5.875 11-7 .38 5.38-5.167 4.833-5 10 5.026 2.333 13.056-.923 18-2v3c13.054 1.762 24.99-3.85 34 0 5.244-1.089 8.217-4.45 13-6 1.052 4.386-3.382 3.285-3 7 10.528-1.806 21.018-3.649 30-7-1.548 4.119-6.63 4.703-9 8 7.814 2.133 13.736-6.253 22-7 .291 4.291-4.712 3.288-5 7 6.063 2.376 9.733-6.251 17-6 .483 3.15-3.069 2.264-2 6 3.36.027 5.29-1.377 7-3 2.077.256.273 4.394 2 5 16.229-5.385 30.768-1.95 47-7-4.692 2.558-1.68 6.07 0 10 13.871 2.73 26.42 9.659 39 4-1.264 2.519 5.914 7.846 9 3 1.119.532-.77 4.818 1 7 8.748.081 10.469-6.865 18-8 1.78 1.847-4.689 3.928-3 9 8.365 2.685 15.454-4.536 23-6 3.22 1.114 3.541 5.125 9 4 .826 2.826-1.409 2.591-1 5 1.162-.163 1.78.221 2 1 7.87-1.463 10.419-8.247 19-9-1.675 2.991-4.578 4.756-7 7 10.822 7.76 24.496-4.728 39-2 4.683.122-1.088 1.456 0 4 4.731 4.267 15.009-.193 16-6 10.415 4.612 20.365-2.809 33-2-.777.89-1.075 2.258-1 4 7.589.256 10.559-4.107 17-5-4.981 2.882 1.905 2.546 3 5 7.871-1.796 14.285-5.048 21-8 1.651 4.016.995 10.338 6 11 11.541-4.792 26.414-6.252 33-16 16.334 6.854 27.759-4.366 43-3 3.482-6.518 12.32-7.68 19-11 4.672 5.303 15.636-5.778 20-1 5.932-2.401 5.558-11.109 13-12 .127 1.793-1.224 2.109-1 4 8.193.82 15.542-1.392 22-7 2.031 3.402 4.806.076 7 0 .645.962-.022 5.823 2 8 9.788-5.491 20.872-2.902 28-10 1.771 4.795 5.302 1.796 10 3 .044 3.044-2.111 3.889-3 6 2.812 3.274 7.942 1.695 9-2 1.439.226.35 2.985 2 3 3.092-1.241 6.201-2.466 8-5 2.035.965 2.16 3.84 2 7 8.188-1.709 13.743-2.904 21-7 1.27 2.397 4.384 2.95 4 7 12.181.375 19.326-5.75 27 1 2.626-3.979 8.522 2.693 12-3 .949 2.051 2.459 3.541 5 4-1.229 2.104-6.021.646-7 3 2.114 5.555 10.525.853 14-1 .877 3.79 5.983 3.35 6 8 6.263.596 7.294-4.04 11-6 10.673 3.646 20.536 4.141 31 2-2.01 7.677 8.833 2.501 6 11 7.889.304 13.959-.724 22 3 2.509 17.158 26.312 13.021 43 16-.653 5.347-8.787 3.213-8 10 18.246-3.149 21.887 16.504 42 17-.319 2.319.161 3.839 1 5 6.809.191 12.139 1.861 17 4-.529.804-1.043 1.624-1 3 14.462 9.146 35.071 7.904 58 7 .13 4.537 4.967 4.366 9 5-.576 2.091-2.479 2.854-2 6 9.393-.642 20.454 2.868 30-2 1.871 1.128 4.817 1.183 4 5 4.933.599 6.067-2.599 11-2-2.021 1.329-3.019 6.688-1 9 7.575-1.758 15.311-3.356 21-7 2.497.691-1.855 2.667-1 5 13.184-.545 20.152-3.868 37-3-.432 3.235-6.522.811-5 6 14.898-.432 25.767-4.551 40-6-.319 2.319.16 3.839 1 5 22.005-3.498 39.011-1.737 57-8 14.142 10.5 29.357-4.561 46-4-1.686 2.98-5.584 3.749-5 9 8.336 1.325 18.539-4.12 26-7-.65 1.017-2.299 1.034-2 3 11.352 7.303 20.58-7.443 34-4 4.276-1.391 6.918-4.416 12-5v5c15.355 2.642 17.31-7.868 32-8-1.014 3.32-5.535 3.132-5 8 6.052 2.696 10.525-4.79 18-4v4c15.208-1.125 23.925-8.742 37-12-.566 3.1-4.704 2.629-5 6-.161 5.009 4.355 1.54 2 7 12.748 1.006 19.14-8.294 30-6v4c9.286-.38 16.295-3.039 21-8 11.356 1.69 16.563-2.77 24-5-1.712 3.288-5.776 4.223-5 10 19.914-4.421 50.55-6.782 73-12 .798 1.869 1.671 3.663 2 6 4.752.419 7.213-1.454 11-2 2.432 2.901 2.002 8.664 9 7-.113 4.22-6.087 2.58-6 7 18.871 3.534 32.888-6.443 50-8 2.652 8.491 20.699-.842 28 3-.482 3.851-5.17 3.497-7 6 9.219 13.887 23.764-1.933 38-1-.674 2.326-5.246.753-4 5 12.459 4.754 28.268-.817 42-3-1.336 5.664-9.578 4.422-11 10 5.89 3.812 18.124-5.017 19 2 19.552.13 37.637-6.244 54-6-2.676 2.99-6.646 4.687-5 12 14.918-2.152 30.043-5.744 46-4-2.271 2.729-7.467 2.533-7 8 13.143 7.055 20.454-7.906 36-5-4.575 2.39-2.235 6.833-1 11 11.693 1.423 21.763-6.257 31-1 1.069 3.736-2.483 2.85-2 6 4.018 3.763 15.692-.55 24 1-1.271 3.396-5.546 3.788-6 8 7.509 1.642 16.32 2.147 24 1v4c5.006.673 7.74-.926 12-1-.545 4.789-5.712 4.955-8 8 6.89 11.2 31.396 18.392 51 14 4.799-1.075 15.192-5.95 18 3-6.036 1.715-20.971-3.253-22 6 2.449 7.551 15.361 4.638 22 8 17.265-9.557 26.578 9.321 48 5 6.766 23.646 34.754 11.882 55 18-4.738 5.595-16.355 4.312-19 12 7.967 9.185 22.68 5.389 34 8 9.599 2.214 14.966 9.306 22 13-3.504 2.83-13.444-.777-17 2 1.699 9.892 8.625 6.973 16 9 20.047 5.509 27.507 18.643 50 21 12.827 1.344 22.672 3.428 31 11 5.686 5.169 13.488 11.106 22 17-4.53 1.803-10.545 2.122-17 2 3.619 6.714 16.174 4.493 22 9-.65 1.017-2.299 1.034-2 3 3.986 4.68 9.929 7.404 17 9 .451 2.784-5.451-.784-5 2 .528 6.665 8.1 6.529 13 9 11.935 6.019 26.479 14.159 38 23-4.584.749-6.654 4.012-11 5 1.774 22.226 32.587 15.413 44 28-.279 3.72-5.968 2.032-7 5 3.103 12.897 29.186 2.814 30 18-4.195.528-5.586-1.747-9-2 .768 3.232 2.768 5.233 6 6-1.381 17.424 21.928 18.707 36 24-.431 2.236-4.928.405-7 1 3.867 9.466 13.931 12.736 19 21 1.146 4.146-2.104 3.896-2 7 12.332 1.805 21.697 5.578 31 12 4.517 3.118 11.159 6.681 11 12-3.723-1.277-6.803-3.197-11-4-4.459 6.162 5.799 6.173 6 11-6.055.388-7.018-4.315-13-4 4.943 13.724 21.394 15.939 33 23 1.877 1.907-.594 1.81 0 5 7.215-.214 10.93 3.07 15 6 .729 2.729-1.986 2.013-2 4 4.291 3.376 11.17 4.164 15 8-.745 2.255-5.609.391-8 1 .828 3.505 5.879 2.788 8 5-3.53 3.137-9.87 3.463-11 9 14.842 4.158 30.903 7.097 40 17-5.442 3.098-11.558-.623-15 4 4.923 4.744 6.885 12.449 18 11 1.19 4.19-4.215 1.785-5 4 1.768 8.899 12.893 8.441 18 14-3.365.671-10.57-3.409-18-2 2.531 8.829 8.312 5.327 13 7 10.828 3.865 16.07 8.361 22 17 10.502 15.301 28.894 23.178 40 39 6.609 1.724 10.793 5.873 16 9-.532 1.119-4.818-.77-7 1 .274 5.402.844 5.3-1 9 8.595 7.405 18.703 13.296 28 20-4.259 2.074-6.391 6.275-11 8 2.782 8.884 13.941 9.392 18 17-1.77 4.564-13.517-.85-13 6 21.521 12.146 28.52 38.814 47 54-4.113 12.072 8.512 14.373 12 22-.889 1.778-2.792 2.542-2 6 8.691 10.975 17.368 21.965 25 34-1.231 16.292 12.157 26.24 8 44 1.327 5.006 6.521 6.146 8 11-8.051 8.931-.097 17.427 5 24-3.031 10.071 5.336 16.393 8 24-2.307 5.581-4.107 13.254-3 19 .967 5.021 6.048 9.055 7 14 1.832 9.513-3.943 20.03 4 27-.578 19.458 14.147 36.709 14 51 8.415 11.359 3.732 23.375 11 35-2.555.111-3.5 1.833-5 3 2.381 3.82 1.015 9.105 5 13-5.302 5.025 2.33 8.691 3 14 .456 3.619-2.887 6.299-3 10-.285 9.297 5.094 17.201 8 25-7.961 12.032-4.925 22.645 1 41-1.93.404-.087 4.579-4 3 7.559 17.877 1.572 38.215 14 50-.578 2.423-3.776 2.224-6 3 .221 12.146 3.562 16.223 7 26-8.991 5.787.848 14.519 3 21-1.117 1.55-3.25 2.083-3 5 4.676 10.066 19.379 12.879 22 25 .817 2.516 5.272 1.395 7 3-3.13 4.437 3.041 8.248 1 16 3.303 4.031 11.823 2.843 19 3 1.521 5.812 10.32 4.346 10 12-1.584.083-3.814-.48-4 1 2.258 6.047 9.263 4.82 14 2 2.236 3.215.549 9.418 0 13 6.322 4.89 17.044 4.716 20 15 .872 3.872-4.366 1.634-3 6-2.859-.375-10.227-3.489-10 3 6.918 1.704 20.367 4.755 28 9-4.721 7.084 13.588 7.11 6 14 3.443 2.89 6.754 5.912 12 7-1.889 3.344-4.038.632-8 1 1.723 11.277 14.97 11.03 23 16v4c11.808 7.525 19.312 19.354 33 25v6c17.188 13.146 19.621 41.045 36 55-.34 2.66-2.496 3.505-3 6 4.318 3.681 10.245 5.755 14 10-11.265-2.402-19.944-7.389-33-8 1.94 9.394 16.873 5.793 23 11 4.606 7.061 14.206 9.127 19 16-1.904 1.874-2.512.109-5 0 1.696 3.78.895 4.856 2 8 .404-3.359 6.332 9.109 10 12-1.617-1.717-4.183-2.484-8-2 6.931 7.069 18.599 9.401 23 19 .182 2.182-.818 3.182-3 3 8.92 9.51 13.238 28.63 26 31-2.446 6.731-1.542 4.742-1 10 7.035 5.666 14.712 7.479 24 9-3.902.765-4.775 4.558-8 6 10.826 3.507 17.967 10.699 27 16v5c5.908.759 11.14 2.193 16 4-4.941 4.583 5.254 8.71 11 9 .602 8.433 7.938 8.244 16 7 .857 3.19-1.574 3.093-2 5 2.17 1.497 5.629 1.705 9 2 3.703 11.964 21.967 9.367 33 14 3.417.75 1.271-4.062 5-3 2.479 1.188 3.707 3.625 3 8 9.453.547 15.666 4.334 17 13 4.797-1.765 7.519.031 11 2-.355 2.645-5.096.904-6 3 3.643 3.69 11.928 2.739 15 7-.272 2.062-4.428.238-4 3 2.682-.124 6.524 4.609 4 10 1.535 2.131 4.442 2.891 7 4 .791 3.458-1.111 4.222-2 6 1.953 1.38 5.267 1.4 6 4-5.219 1.152 1.944 2.707 2 7 .301 3.635-5.332 1.335-7 3 9.49 21.833-15.597 27.578-12 47-7.336 5.664-20.568 5.433-23 16-18.116 15.551-31.3 36.033-54 47-11.525 14.808-18.6 34.067-33 46 .658 3.657-2.164 3.836-2 7-2.182.182-3.182-.818-3-3-5.08 1.309-.527 6.084-3 10-1.986 1.666-1.271-.091-4 0-.689 4.021.959 5.709 1 9-2.748-6.154-8.209 3.552-9 5 1.361 2.305 1.753 5.58 6 5-4.836 1.567-9.029 2.635-12 8-2.367-.966-4.912-1.754-4-6-6.572.784-3.617 5.501-9 8-2.135.467-1.903-1.429-2-3-17.48 4.559-45.672 2.589-58-7-3.096.237-3.884 2.783-6 4-16.805 6.884-24.57 12.597-49 11-31.87-2.083-74.578-7.504-107-13-15.367 6.259-29.217-13.652-47-5-4.078-4.588-15.365-1.968-18-8-22.598 4.118-43.021 15.58-64 18 .176-12.057 7.879-16.823 10-20 1.799-2.694 2.676-8.262 8-7-1.455-3.797 9.998-14.923 10-11-.277-6.253-17.297.831-23 2-1.455-.443.103-.878 0-2-5.142 1.858-9.528 4.472-16 5-1.325-2.604-.958-8.194 1-10 16.45-15.172 43.344-35.553 69-37 .779-2.282 11.372-3.03 17-6 1.567-.354-.875-1.761 1-2 9.953-2.827 20.588-8.854 31-3 .911-4.422 7.188-3.479 7-9 6.211-1.67 9.859-1.94 17-1 5.744-7.291-4.957-13.082-13-13 6.847-4.816 11.855.439 21-2 .259-4.408 1.598-7.735 1-13-5.077.227-5.211 9.704-11 6 2.727-2.94 3.158-8.175 7-10 .826-2.826-1.409-2.591-1-5-5.117-1.117-4.018 3.982-8 4 1.877-11.226 2.524-11.628 3-22-5.932.734-4.716 8.617-11 9 .664-5.775-7.51-8.374-5-19-4.834-.277-8.779-7.104-12-12-3.15-.483-2.264 3.069-6 2 .923-4.59-2.502-4.831-2-9-6.422-1.911-7.782-8.885-17-8-5.375-9.958-14.439-16.228-22-24-1.818 1.183-.786 5.214-2 7-8.461-8.206-14.358-18.975-21-29-3.548 4.452-5.222 10.778-8 16-7.988-9.678-14.484-20.85-24-29-1.537 7.883 3.345 17.979 5 26a92.244 92.244 0 0 0-3 3c-3.004-1.996-1.637-8.364-4-11-3.236-1.235-.764 3.236-4 2-3.807-13.953-15.535-20.358-22-29-2.812.188-4.261 1.74-4 5-7.786-5.881-12.243-15.09-20-21-2.539 2.127-3.807 5.527-8 6-9.018-3.316-12.608-12.059-20-17-3.942-.275-3.058 4.275-7 4-2.58-5.087-6.381-8.952-10-13-3.375.625-4.451 3.549-8 4-3.905-.095-3.959-4.041-6-6-10.443 3.327-12.6-8.517-12-17-2.158-1.176-4.592-2.074-7-3-2.53 10.136-5.059 20.275-13 25-3.799-.535-4.406-4.261-5-8-3.181.152-4.399 2.268-8 2-.378-6.956-2.191-12.476-6-16-2.215.785.191 6.19-4 5-.772-2.562-.998-5.669-3-7-3.206-.872-3.127 1.539-4 3-2.622-.712-.958-5.708-4-6-5.914 3.086-7.027 10.973-11 16-1.854-3.146-2.138-7.862-2-13-4.681 6.282-18.012 7.742-20-5-2.555 1.716-3.5-1.146-5 1-2.854-3.479-4.178-8.489-6-13-3.25 1.416-2.68 6.654-8 6-2.146-1.521-3.065-4.269-5-6-3.89 5.745-13.355 1.556-15 8-.09-10.91-9.191-12.809-7-26-1.207-1.459-4.371-.962-3-5-8.083.018-11.962 1.502-17-2-2.123 9.21-5.672 16.995-11 23-.66-13.76 2.036-24.87 3-37a92.244 92.244 0 0 0-3-3c-10.448 14.886-10.419 40.248-22 54-2.062-.271-.238-4.428-3-4-6.316 7.018-11.975 14.691-14 26-1.856-3.813-.562-6.949 0-11-9.223 6.443-13.122 18.211-19 28-1.244-6.93 8.265-17.05 5-26-4.92 1.747-3.955 9.378-9 11-.533-7.35 1.466-11.108 0-17-14.355-.355-8.951 19.049-12 30-4.169-.502-4.41 2.923-9 2-.575-7.908 1.099-13.568 3-19-15.242 12.424-26.855 28.478-31 52-5.374.817-8.193-2.027-12 0-1.691-6.734 1.253-18.342 2-17-.189-.81-1.004-.996-1-2-5.909 4.037-9.105 11.004-13 17-3.527 5.432-8.619 11.866-9 20-2.408-1.258-6.695-.638-7-4-6.971-.971-6.558 5.442-8 10-3.057-.723-3.644 1.022-6 1 .281-3.386 1.591-5.742 1-10-8.34-.209-11.008 15.154-22 18-.619-1.994 1.79-9.514 2-14-9.386 7.947-15.286 19.38-25 27-3.213.88-1.37-3.296-4-3-8.867 8.466-15.4 19.266-15 37-2.355-.022-2.944 1.723-6 1-.798-3.201-2.954-5.046-3-9-6.759 7.574-8.508 20.159-16 27-2.578-4.843.512-6.83 0-12-14.799-.132-.373 28.96-11 33-1.836-7.498-5.846-12.82-6-22-18.047 9.035-2.705 45.766-20 56-.491-4.491.507-7.493 1-11-2.826-.826-2.591 1.409-5 1-.48 5.186 1.076 12.41-1 16-3.458-1.875-.888-9.779-5-11-7.646 12.494 8.132 38.126-2 51-4.727-3.273-4.197-11.803-11-13-2.062 14.73 17.217 20.99 14 37-6.02 1.411-7.699-1.617-12-5-3.161 7.181 5.373 11.279 5 19-3.164.164-3.342-2.657-7-2 .676 9.324 5.268 14.732 8 22-2.477 1.523-1.787 6.213-6 6-3.62 14.875-2.945 30.705-6 46-.937 4.688-4.74 8.349-6 13-1.951 7.201-.992 14.906-2 22-4.913 34.592-21.529 59.02-43 79-22.838 8.116-43.607 23.741-74 26-9.836.73-20.623.627-31 2-8.002 1.059-15.054 5.205-22 6-3.52.402-6.641-1.899-10-2-3.408-.102-9.923 1.539-14 2-16.465 1.863-34.619 2.668-50 3-22.774.491-45.81-4.388-67-5-8.267-.238-16.771 3.847-22-2-13.53 4.443-22.83-6.165-32-6-.747 7.05 8.75 7.023 11 8-4.048 5.533-17.355-.696-16-10-24.244 7.4-61.06 17.881-90 8-30.218-.338-63.264 2.42-91 0-16.5-1.439-27.705-8.233-44-14-6.59-2.332-12.123-4.928-19-7 .489-3.156-1.802-3.531-1-7-11.472 1.861-20.61 6.057-30 10-6.58-4.158-10.492-3.255-20-2-2.559-5.062 3.721-6.791 6-10 1.401.354.086 1.761-1 2 8.984-11.139 27.438-27.997 42-40-.42-2.246-5.307-.027-6-2 1.039-15.627 18.577-14.756 27-23 3.736-1.069 2.85 2.483 6 2 15.218-1.787 27.596-9.457 45-6 3.625.708 4.28 4.386 10 3-.035-7.965-7.76-8.24-11-13 18.246 6.944 38.941 5.289 60 9-4.186-6.144 3.039-2.432 3-9 3.213-.88 1.37 3.297 4 3h14c5.724-6.906 19.835.611 23-9-5.096 2.283-17.365-.921-10-9 17.413-1.187 26.131 3.121 43-2 .47-6.107-5.851-5.031-10-4 1.431-1.461 1.47-3.872-2-3 9.199-8.138 26.486-5.104 34-13-3.69-1.977-5.558-5.775-12-5 3.242-2.425 9.214-2.119 12-5-1.396-5.438-5.665-1.708-10-2 4.308-5.692 11.404-8.596 20-10 1.921-7.021 11.368-14.431 18-20-2.714-4.413 1.143-4.42-1-10 6.614-8.052 11.598-17.736 28-16 1.871-1.129 4.817-1.183 4-5-2.169-1.498-5.629-1.705-9-2 1.022-11.645 16.592-8.742 27-11-.328-7.231-10.798-6.595-16-6 2.521-3.812 3.855-8.812 7-12 .49-4.366-3.082-2.128-1-6-.431-2.236-4.928-.405-7-1-.564-7.736 4.243-21.58 12-27-8.521-8.796-12.728 8.059-21 9 5.222-17.111 15.227-29.44 20-47-6.864-1.366-13.729.075-17 6 4.846-8.158 5.879-28.784 13-38 .05-6.383-4.245-8.422-3-16-6.344 1.323-7.378 7.955-10 13-6.477-6.07.889-20.876 4-27-7.224-18.169-3.986-37.203 2-54 6.248-1.085 6.373-8.294 7-15-7.798-.626-6.547 11.415-14 8 .912-11.421 6.904-17.762 10-27 1.016.649 1.035 2.3 3 2 4.474-3.046 2.82-12.105 1-17 7.74-4.482 2.618-19.827 0-26 2.972-15.361 9.305-27.362 11-44-.125-2.209-4.242-.425-6-1 3.862-14.471 12.409-24.258 19-36-.833-3.167-2.916-5.083-5-7-4.807 2.527-7.289 7.377-13 9-1.877-1.907.594-1.81 0-5-7.252 2.082-6.332 12.335-15 13 1.649-4.684 5.593-7.074 8-11-10.354-1.646-17.561-6.439-20-16-7.193 3.473-9.789 11.545-18 14-1.43 7.903-4.225 14.441-11 17-2.81-1.856-1.901-7.432-2-12-10.438 3.896-8.935 19.731-14 29-10.503-5.612 3.32-26.603-1-38-6.666 2.438-15.845 12.68-13 18-2.922 3.411-5.227 7.44-9 10-2.359-1.641-2.849-5.151-5-7-3.944-.61-1.176 5.49-2 8-2.434-6.759-7.55-.097-10 2-3.636-4.209-7.615 1.353-12-1-1.328-2.111.493-2.955-1-6-6.369 1.605-10.169 10.749-18 5-3.925-10.686.738-18.421 0-29-8.336.997-6.963 11.703-9 19a36.14 36.14 0 0 0-8 8c-3.572-1.965-5.488.312-7 3-3.569-8.764-1.788-22.879-5-32-4.024-.691-2.455 4.211-6 4 .703 17.303-1.875 27.325-11 36-2.729.729-2.014-1.987-4-2-1.483.85-2.15 2.517-2 5-2.277-2.057-3.454-5.213-3-10 1.479.521 2.521 1.479 4 2-.605-2.396-1.438-4.562-1-8-9.228-3.439-14.284-11.05-21-17-.161 17.164 13.738 28.926 19 44-8.189-4.85-12.76-2.174-17-9-.539-3.872 2.549-4.118 3-7-3.785-8.684-12.555-10.104-21-12 .533 3.467 2.676 5.324 3 9-8.562-1.721-13.389-6.86-13-15-4.352.648-7.53 2.47-12 3-4.4-3.266-6.183-9.151-12-11-3.07 7.199-1.115 14.343 1 21-7.457-3.617-20.861-9.75-29-16-2.578 7.553.746 12.716-1 20-8.842-6.824-6.102-25.231-13-34-6.176 1.49-3.565 11.769-6 17-3.996-2.337-5.812-6.855-8-11-3.024 1.514.829 4.389 0 7-6.808-.859-10.063-5.271-15-8-3.977 3.411-3.344 2.038-9 1 3.132 9.595 7.505 15.442 6 25-6.258-2.076-8.712-7.955-12-13-4.386-1.053-3.284 3.382-7 3-1.461-1.873-.039-6.627-2-8-4.983 10.017.894 30.894-11 34-3.326-7.674-4.986-17.014-6-27-1.404-1.981-6.73 5.847-5 7-7.619 2.604-3.413-15.242-12-15-2.134-.468-1.905 1.429-2 3-12.17-10.698-5.906-38.494-11-55-.65-2.106-1.354-5.21-5-5-1.963 3.037-2.073 7.926-7 8-2.262 10.405 1.123 26.456-3 35 1.746 9.5 5.721 22.229 1 32-7.937-1.063-10.992-7.008-18-9-2.309 1.024.028 6.695-4 6-4.128-11.205-8.521-22.145-14-32-1.482 8.492 4.303 18.355 7 26-.889 3.158-6.312-6.054-7 0-3.139-1.583.675-11.092-5-9-.044-4.623.559-9.892-2-12-7.678 1.321-3.65 14.35-9 18-10.419-5.26-25.421-15.435-20-30-1.555-3.111-4.512-4.822-9-5-1.233 13.255-.818 25.99-4 39-8.104-15.104-7.018-42.312-8-59-14.051 11.949-6.683 45.317-21 57-.332-3.998 1.783-5.551 1-10-1.183-1.817-5.214-.786-7-2 .022-2.355-1.723-2.944-1-6-10.12-5.346-7.76-20.142-6-33-10.581.752-10.701 11.965-14 20-1.776-3.475-3.854-1.396-3 3-3.653-9.68-9.264-17.402-14-26-3.36-1.026-1.557 3.11-2 5-5.684-1.982-3.35-11.983-10-13-4.221 2.51.76 9.203-3 13-3.71-.624-3.963-4.704-8-5-2.681 9.985-4.904 20.429-8 30-5.096-2.237-3.611-11.056-4-18-5.871 2.796-2.52 14.814-8 18-6.049-5.285-1.666-21-3-31-2.787-1.917-6.211-7.275-10-5 .51 5.546 3.658 13.173 3 19-5.62-.047-5.066-6.267-8-9-3.028 1.972-2.264 7.736-4 11-3.385 1.122-6.132-5.382-6 1-.891-14.823-11.907-24.696-8-41-3.574.093-5.402 1.932-6 5-.683-6.357-3.776-17.952-8-24-6.413 11.254-3.054 32.28-14 39-.911-4.952-1.884-5.967-2-10 4.25.917 4.271-2.396 4-6-3.15-.346-11.637-2.065-10-1-8.461-5.507-5.408-19.22-13-27-.789 3.769.244 11.211-7 11-.675 9.334-2.338 22.983 0 32-10.634-6.702-10.729-32.602-14-50-5.237-.903-3.763 4.903-9 4 2.055 12.28 2.386 25.428-6 32 .259 6.407-.264 13.598 4 16-4.26 9.073-2.098 24.569-11 29-.769 3.769 1.22 4.779 1 8 2.279.279 3.76-.241 4-2 3.121 7.212 6.422 14.245 8 23h-4c-3.749 8.707 2.795 23.584 9 21 2.735 8.599 7.943 14.724 11 23-2.149 2.083-3.756-4.861-6-6-3.998-.332-5.551 1.783-10 1-1.938 10.605 5.409 11.924 4 22-3.531-6.803-8.164-12.502-13-18-1.772.229-5.008-1.008-4 2-3.731-.936-4.587-4.746-9-5 .504 17.789 7.775 31.444 14 47-8.077-5.918-12.048-12.894-22-15-7.012 22.407 13.082 27.787 14 48-5.021-2.312-8.242-6.424-15-7 3.225 8.109 9.33 13.337 11 23-5.59-.409-8.228-3.772-14-4-4.087 11.018 7.097 20.685 6 35-3.104.104-2.854-3.146-7-2-.342 7.009 4.83 8.504 5 15 2.103 2.435 4.446-.886 6 1 .801 8.801-2.701 13.299-5 19-2.409.409-2.174-1.826-5-1-5.595 9.781 8.16 19.624 7 28-2.067 1.773-5.562-1.088-8-2 .189 8.341 7.491 14.461 1 21 8.55 11.777 8.266 33.118 8 51-3.151-1.229-9.176-.943-11 2 8.196 13.471 18.927 24.406 25 40-3.34-3.222-4.133 1.743-6 3 .495 8.172 8.789 8.544 9 17-1.659-1.675-5.871-.796-9-1-.608 11.274 10.362 10.972 14 18-7.661 19.485 12.339 28.211 15 44-1.16.84-2.682 1.318-5 1 1.295 9.322 10.65 19.42 1 26 .515 9.208 8.941 16.402 3 26-1.16-.84-2.681-1.319-5-1 .415 8.147 4.107 15.07-1 21-2.928.898-3.072.898-6 0-15.035 15.524-24.964 32.957-49 40-7.162 2.099-16.877 5.14-24 6-4.868.588-10.816-1.77-16-1-8.239 1.223-16.678 10.784-26 12-11.682 1.523-25.357-10.516-34 1-16.607-5.282-31.261-2.858-50-1-8.415-15.178-30.914-5.65-50-7-6.909-4.446-16.691-12.316-31-9-8.281 1.919-9.793 14.042-18 15-26.852 3.134-53.902 3.237-85 5-2.674.151-11.892 1.346-16 1-9.091-.764-13.111-6.009-26-9-7.459-1.73-18.879 1.263-27-1-10.832-3.018-15.414-14.257-27-20 .261-2.928-2.261-3.072-2-6-24.403-1.336-37.233 9.367-58 9 1.336-9.095 7.462-18.406 13-20-1.874-1.904-.109-2.512 0-5 15.687-18.979 41.76-27.574 67-37 3.736-1.069 2.85 2.483 6 2 .943-4.943-4.63-3.369-4-8 11.623.837 20.33-3.768 30-2 2.375-.625-.155-6.155 2-7 16.415 8.562 21.056-5.094 37-7 11.992-1.434 19.27-7.782 32-11 3.688-4.483 8.322-6.879 14-7 2.023-6.644 11.07-6.264 13-13-6.569-2.587-12.08 5.309-16-3 9.696-.637 13.487-7.18 22-9-3.622-4.679-15.905-.717-19-1 3.501-5.833 13.8-4.866 16-12-.125-2.209-4.242-.425-6-1 3.675-4.658 9.013-7.654 10-15-5.77-1.103-3.939 5.394-10 4-1.996-5.71 2.372-10.059 3-20-6.76-.457-8.379 7.395-15 4-.108-7.108 3.397-10.603 5-16-.737-2.248-3.812 1.406-4 3-2.755-3.146 1.428-7.862 0-13-.845-2.595-4.387 1.924-6-1 2.146-6.854 9.287-8.713 11-16-.227-1.273-2.984-1.311-3 0 2.073-7.986 15.558-18.367 13-31-2.555.111-3.5 1.833-5 3-1.172-.161-.844-1.823-1-3-4.448 1.94-5.687.925-11 2-2.184-9.654.508-20.025 3-28-1.771-1.229-4.052-1.948-5-4-4.098.235-8.177.49-11 2-5.085-5.582-3.21-18.123-13-19-.068-7.342-2.425-7.519-1-15-3.38-.38-4.267 1.733-6 3-2.382-.618-1.642-4.357-6-3 1.774-1.893.729-6.604 1-10-4.866-1.532-3.765 2.902-7 3 .371-9.646-1.78-20.312 3-29-.19-.81-1.003-.996-1-2-7.835-1.169-6.853 6.481-15 5-3.344-12.134 1.36-33.668-13-33-1.365-6.103.821-14.627-1-24-1.603-1.73-3.737-2.93-6-4-.261-2.928 2.261-3.072 2-6-2.812-.57-5.681-6.252-9-3-.146-7.274 9.198-21.232 2-30-8.144.027-10.287 4.915-18 3 1.224-7.443 1.421-15.912 4-22-5.312 1.743-5.81 8.671-8 13-2.316 4.578-6.078 8.766-7 14-2.597-2.988 1.38-7.91 1-12-.416-3.41-5.483 1.512-5-1-1.602-8.407 5.625-16.272 8-24-1.011-2.815-4.247.276-6 0 1.837-5.83 3.377-11.956 6-17-.19-.811-1.003-.997-1-2-7.97.362-7.496 9.171-15 10-3.033-11.295 2.044-21.527 4-31-4.809-.809-3.612 4.388-9 3-.33-16.33 8.913-23.087 10-38-4.295-.038-2.126-6.54-4-9-6.977 1.357-7.191 9.476-13 12-1.702-9.794 5.029-21.129-3-28a23.75 23.75 0 0 0 0-13c-2.833-1.043-4.167-1.043-7 0-.309-8.126 2.771-32.337-10-28 3.625-6.379-.312-10.148-2-16-5.087-.674-6.344 6.417-10 4 1.39-6.61 2.32-13.68 4-20-2.085-1.021-4.074-.078-7-2 .651 9.945 1.229 23.996-10 27-2.171 10.168-7.48 22.512-10 29-.256 2.341-4.394.576-5 0-3.802 3.864-3.737 11.597-6 17-1.479-.521-2.521-1.479-4-2-6.315 4.351-6.965 14.368-13 19-3.624.957-1.017-4.316-3-5-4.077-.743-3.443 3.224-8 2 .216 10.883-8.243 13.09-8 24-2.341-.325-.971-4.362-3-5-4.441 3.226-9.672 5.661-11 12-2.096-.904-.355-5.645-3-6-6.585 2.414-2.62 15.381-9 18 1.619-4.846.778-10.085-4-13-2.188 6.855-2.88 16.952-4 22-.458-7.023-7.144-2.629-9-9-2.042 1.624-5.881 1.452-6 5-2.065-.859-1.055-6.961 0-8-4.501 6.498-6.998 15.003-11 22-2.936-2.608-.541-4.331-1-9-2.875-2.193-4.576.645-7-2-2.3 6.367-7.245 10.089-9 17-2.22-2.113-.433-8.233-4-9-5.784 3.55-5.955 12.712-11 17-2.66-3.052 2.617-6.673 1-12-8.435 7.898-16.107 16.56-20 29-3.555 1.555-.604-3.396-3-3-11.927 7.115-12.515 19.442-23 28-2.218.551-1.424-1.909-3-2-4.303 10.309-8.448 25.168-20 25-12.297 11.725-17.594 35.711-41 33-4.939 8.236-6.961 24.133-18 23-.535-3.868 1.785-4.882 1-9-10.139 9.527-6.366 32.967-26 33-1.433 4.8-7.968 9.048-13 7-13.416 15.584-37.141 20.858-53 34-7.922 34.744-39.464 45.869-57 71-10.75 3.352-17.693 15.096-30 19-28.548 9.056-67.833 14.406-104 17-16.597 1.19-38.364 4.43-49 12-14.251 10.143-25.646 28.84-41 33-4.781 1.295-10.393-.78-16 0-16.086 2.238-33.462 9.873-47 10-7.175.067-14.842-4.111-22-3-6.628 1.029-17.158 9.984-26 15-13.698 7.771-22.015 14.508-32 23-5.931-2.709-2.915-9.982-3-17 2.603 2.443 4.652-7.243 3-12 2.1 1.11 3.517-20.551 9-26-15.199-3.283-31.393-.279-40-9-16.236 3.729-24.548-8.657-39-10-6.358 3.643-15.601 4.399-19 11-7.166-5.273-22.909 5.715-28 9-3.421-9.271 5.665-21.959 11-29-3.967-2.895-5.768.668-13 3-.733-.934-1.818-1.516-3-2 1.104-11.562 9.713-15.62 16-22-.838-2.162-2.589-3.411-2-7 3.383.473 5.255-2.656 8-1 18.242-12.163 43.152-26.955 68-26 4.876-5.791 14.655-6.679 18-14 2.88.119 6.546-.546 8 1 7.974-8.026 23.004-8.996 34-14-.905-1.762-3.681-1.652-4-4 2.534-5.799 8.957-7.71 17-8-.226-5.105 5.618-6.89 12-8 1.435-4.768-7.435.768-6-4 12.852-.251 17.664-7.32 27-13-3.074-1.483-8.185-2.035-11-1 2.251-3.749 6.7-5.3 11-7 .34-2.007-.205-3.129-2-3 4.053-4.613 9.533-7.8 16-10 .696-3.363-2.056-3.277-3-5 6.953-5.047 17.546-6.454 27-9 .895-3.229-3.262-1.405-4-3 2.644-4.022 10.481-2.853 13-7 1.027-3.36-3.11-1.557-5-2 8.187-6.146 17.983-10.683 32-11 1.826-1.614-.704-3.166 2-5-.125-2.209-4.242-.425-6-1 3.147-3.853 12.136-1.864 16-5-.228-1.772 1.008-5.008-2-4 8.604-3.729 16.879-7.788 26-11 .145-2.812-2.449-2.885-5-3 1.35-2.65 5.271-2.729 5-7-.431-2.236-4.928-.405-7-1 7.927-5.073 10.914-15.086 22-17-1.727-13.6 10.016-20.03 16-29 .168-2.169-3.547-.453-5-1 3.273-11.064 20.185-13.81 19-26 11.941-8.392 12.51-28.156 21-40 .368-1.701-.78-1.887-2-2 3.841-5.562 6.547-10.298 13-15-.455-16.455 13.604-18.396 16-32 4.664.663 6.424-1.575 10-2-1.19-7.856 4.657-8.676 8-12 1.602-2.785-4.318-2.766-4-1-1.872-1.146 10.046-9.994 1-12 4.415-15.252 20.853-18.48 29-30-6.188-4.283-10.564 6.458-16 3 5.04-5.96 8.857-13.143 13-20 .467-2.134-1.429-1.904-3-2 5.264-5.069 11.684-8.983 16-15-4.668-4.525 2.327-5.263 3-10 .088-4.039-6.088-.262-6-2 1.224-7.776 10.543-7.457 15-12-.083-1.584.481-3.814-1-4 1.394-1.606 4.935-1.064 6-3-4.264-6.707 3.256-6.256 3-14-5.553-.447-6.554-5.446-12-6 1.905-5.313 1.823-6.681 2-14 7.741-2.925 10.086-11.247 15-17-1.286-2.797-2.068 3.15-5 2 3.465-9.535 8.925-17.075 13-26-5.88 2.787-8.348 8.985-14 12 2.162-8.505 10.28-11.053 15-17-.111-2.448-3.306-.212-3 1-.873-6.554 6.067-13.923 8-21-.256-2.076-4.394-.273-5-2 4.549-8.117 10.24-15.093 15-23 .726-3.059-1.726-2.941-1-6-3.58.753-5.599 3.067-11 2 6.205-7.461 12.069-15.264 15-26-1.733-3.244-2.62 2.598-6 1 3.323-19.573 16.493-35.537 24-54-4.716-.141-6.522 5.438-13 6-1.415-12.575 5.116-24.461 11-35-4.092-3.362-3.986 4.157-9 3 4.813-11.187 10.328-21.672 15-33-2.843-2.228-7.15 4.859-9 4-3.438-10.328 10.643-20.596 5-30h3c3.305-9.826 28.507-20.35 9-29 4.502-5.832 10.541-10.126 13-18 .467-2.134-1.429-1.904-3-2 .965-3.396 5.559-6.281 0-8 4.949-10.378 11.245-14.927 13-27-.416-2.251-5.483.149-5-3 1.892-6.441 7.298-9.368 8-17-.227-1.439-2.984-.35-3-2 1.729-8.604 10.51-10.156 11-20-6.55.117-6.24 7.093-12 8 .897-8.564-3.846-11.487-6-17-2.279-.279-3.759.241-4 2-2.855-1.145-2.249-5.751-5-7-8.058 3.115-19.108 7.388-27 0 .014-8.681-.304-17.03-5-21-2.103 4.803-5.774 4.095-9 9-2.907-7.538 3.91-17.214 0-26-4.966 2.139-3.307.775-8-1-2.422.911-2.648 4.019-3 7-4.071 1.057-4.737-.281-10 0-.567-3.433-1.882-6.118-4-8-5.031.636-1.088 10.245-8 9 2.236-13.137-11.753-16.069-18-12 2.603-11.529-10.815-20.052-10-36-2.826-.826-2.591 1.409-5 1 .912 7.911 3.046 14.683-1 20-1.16-.839-2.681-1.319-5-1-.633-8.368-11.136-6.864-11-16-3.571 1.762-7.726 2.941-12 4-3.509-9.158-2.337-22.996-7-31-4.851 3.816-3.256 14.077-8 18-4.118-5.215-8.912-9.754-10-18-7.293-.374-8.6-6.733-13-10-1.757.91-1.829 3.504-3 5-3.608.274-2.712-3.955-6-4-3.544.407-1.976 4.373-6 2-2.208.125-.425 4.242-1 6-1.772.228-5.008-1.008-4 2-2.562-1.104-1.575-5.759-6-5 .244-8.844 3.505-13.611-1-20h-5c-4.604 3.062-1.195 14.138-7 16-1.065-6.601-9.59-5.744-12-11-3.75 6.916-5.865 15.468-6 26-4.121.788-1.879-4.788-6-4-1.426 1.908-2.324 4.342-3 7-1.845-2.155-.926-7.074-6-6 .256-12.589-9.624-15.043-12-25-7.746 3.558-13.203 4.286-22 10-.66-6.34-3.267-10.733-6-15-3.845 6.488-5.82 14.847-8 23-5.661-6.006-2.98-20.354-9-26-6.491 4.176-8.733 12.6-10 22-2.651-1.015-2.709-4.624-5-6-2.612-.279-5.004-.338-4 3 .515-6.313-2.629-10.199-7-14-5.713 2.953-4.874 12.459-7 19-6.67-5.663-2.195-22.472-10-27-3.156-.489-3.531 1.802-7 1-2.906 2.76-1.403 9.931-4 13-3.486-1.847-6.307-4.36-12-4-6.566 2.767-3.112 15.554-11 17-.608-7.164-2.223-17.167-11-13-.871-6.463-5.897-8.77-8-14h-3c-1.956 3.378-2.436 8.23-3 13-1.743.286-5.367-3.193-5 1-4.218-3.449-11.142-4.191-12-11-4.755.227-1.319 5.667-7 3-5.31 6.69 2.347 26.347-7 29 1.915-4.009-.316-8.689-2-12-6.641 1.333-11.004 1.294-14-3-3.944 2.389-5.726 6.94-9 10-2.701-.299-1.793-4.207-4-5-5.727.273-1.877 10.123-3 15-4.337-.33-3.23-6.103-6-8h-3c-1.638 3.362-1.268 8.732-3 12-1.753-.914-3.474-1.859-3-5-1.998 2.002-1.759 6.241-4 8-7.251-2.749-5.109-14.891-7-23-4.543 7.124-4.544 18.789-8 27-5.117-3.882-6.917-11.083-9-18-2.863-.197-5.458-.125-5 3-2.444-.89-4.336-2.331-8-2-4.079 3.588-.543 14.79-5 18-5.607-2.059-5.891-9.443-8-15-1.919-2.081-6.377-1.623-7-5-4.017 3.983.188 16.188-9 15-2.534-2.799-1.649-9.017-6-10-6.333 5.333-5.451 17.882-13 22-3.675-1.992-5.587-5.746-8-9-3.229-.895-1.405 3.262-3 4-7.771-6.896-6.738-22.595-20-24-4.283 4.684 2.88 9.418-3 13-3.601-1.733-4.12-6.547-5-11-6.63 1.703-8.775 7.891-11 14-7.069-4.931-12.636-11.364-14-22-1.673 2.327-2.612 5.388-3 9-2.988-3.012-2.812-9.187-4-14-2.826.826-2.591-1.409-5-1-3.23 1.103-1.699 6.967-3 10-2.925.671-6.04.364-10 0-2.562-3.105-4.148-7.186-5-12-4.041.959-7.832 2.168-10 5-5.397-6.838-11.548-8.993-20-14-4.091 2.243-6.487 6.18-8 11-3.86-1.473-6.015-4.652-8-8-11.167 1.775-14.121 11.779-23 18-1.598-1.402-2.555-3.445-3-6-2.651.015-5.888-.555-6 2-3.671-2.996-3.504-9.829-9-11-3.308 4.025 3.354 6.608 3 11-2.076.591-3.409 1.924-4 4-5.643.042-12.272-6.639-15-1-3.196-3.217-6.15-4.619-12-3-.163 3.087 2.363 5.653 0 8-2.207-.793-1.299-4.701-4-5-2.594 1.739-4.133 4.534-7 6-9.658-4.009-9.852-17.482-17-24-2.77 7.879.819 19.122-3 24-4.763 1.778-6.131-7.637-8-12-5.239-5.314-9.201 1.074-13 3 1.39 5.782 8.337 9.625 6 16-12.414.08-11.336-13.331-21-16-.548 4.968-.104 11.176-4 15-8.241-.199-8.748-16.507-15-22-2.318 4.682-2.04 11.96-2 19-3.484-3.849-3.636-11.03-11-11-2.03 3.42 4.778 9.557 1 15-13.771-4.229-11.848-24.152-27-27-4.203 2.639-.851 6.62-5 9-3.596 2.356-4.98-4.606-8-6-2.561 1.106-1.964 5.37-2 9-6.254-2.413-6.086-11.247-11-15-6.161 2.234-12.456.225-12-7-3.604.396-6.372 1.628-7 5-4.093-.907-5.096-4.904-6-9-3.228-.895-1.405 3.262-3 4-12.531-2.802 1.432-32.098-15-31-4.692 2.641-6.853 7.813-11 11-12.265.599-2.455-20.879-12-23-.824 1.891-.792 4.666-1 11-3.414.253-4.805 2.528-9 2-2.247-2.087-3.354-5.312-5-8-2.521 3.474-7.008 1.478-9-1 .928-3.405 2.802-5.865 2-11-6.222.445-8.883 4.45-17 3-1.647-1.686-2.173-4.494-4-6-4.366-1.366-2.128 3.872-6 3-1.151-1.182-1.132-3.535-1-6-6.041 2.082-13.561 1.501-19-2-11.969 7.677-21.365-4.363-20-19-2.358 3.308-1.407 9.926-3 14-6.186 2.259-8.434-3.797-13-6-3.897-.773-5.185 3.697-8 1-.973 2.01-.004 6.717-3 9-5.876.209-9-2.334-11-6-1.722 5.294-5.96 13.352-11 12-3.783-.551-2.183-6.484-5-8-10.689.311-16.301 5.699-16 17-6.181-8.454-22.001-7.889-21 5-2.166-6.374-14.344-4.539-15 2-.871-7.462-3.728-12.939-7-18-3.417-.75-1.271 4.063-5 3-8.156-9.178-11.703-22.964-20-32-12.133 5.133-19.645-7.303-26-8 2.027-18.234-14.52-31.592-4-49 .265-3.265-3.88-2.12-4-5-.755-5.422 2.897-6.437 4-10 .378-3.044-3.635-1.698-4-4 .25-22.371 11.824-38.444 16-53-8.244-7.482-11.896-23.56-17-31 9.537-18.029-12.649-30.501-12-52v-12z" fill-rule="evenodd"/></svg>