<svg xmlns="http://www.w3.org/2000/svg" xmlns:dc="http://dublincore.org/documents/dcmi-terms/" height="356.101" version="1.2" viewBox="0 0 1313.941 356.101" width="1313.941" overflow="inherit"><metadata><dc:description>Silhouette of Discosauriscidae, processed by PhyloPic Tools (https://github.com/eweitz/phylopic-tools)</dc:description><dc:source>http://phylopic.org/image/a43b63a1-8e01-4d8b-a7a7-294928c3501c</dc:source><dc:creator>Dmitry Bogdanov (vectorized by T. Michael Keesey)</dc:creator><dc:license>http://creativecommons.org/licenses/by-sa/3.0/</dc:license></metadata><path d="M1227.846 61.101c9.915-7.918 18.4 2.526 29 8 17.403 8.988 19.542 9.121 31 23 11.385 13.791 24.805 34.802 26 57 1.322 24.553-11.244 49.063-23 60-14.389 13.387-42.867 20.31-71 18-18.559-1.523-33.906-10.471-51-17-8.657-3.307-16.324-6.024-24-10-7.252-3.757-13.277-9.105-21-13-13.191-6.652-28.61-10.115-45-15-18.137-5.405-34.395-14.575-52-16-40.884-3.309-76.803 4.427-117 9 1.244 14.262 7.765 28.984 12 43 5.492 18.174-6.918 27.614-10 47-3.794 23.867-12.728 48.464-30 59-5.523-10.23 3.591-19.479 4-32-17.291 3.205-23.396 27.716-43 22 2.075-13.258 15.818-14.849 20-26-10.174-4.811-17.934 13.53-28 12-.774-9.374 5.444-17.894 13-22-4.188-3.143-5.622 5.011-12 3 4.32-6.385 3.886-13.889 9-22 4.327-6.862 15.053-10.392 17-17 1.308-4.437-.287-10.131 0-14 1.002-13.53 7.67-24.93 8-40-10.876 5.457-33.498-.832-41 8-35.73 2.035-70.587-2.061-106 1-35.835 3.097-70.931 8.45-107 9-41.132.627-82.382 4.556-125 3-15.833 31.174-24.586 58.774-37 88-2.773 6.528-7.741 10.266-13 17-5.702 7.301-10.636 17.233-18 23-3.507 2.746-8.83 3.5-12 7-5.478 6.048-3.584 19.455-13 22-4.871-5.996-4.248-19.245-2-27-16.485 5.54-27.988 21.311-44 24-4.354-19.554 25.321-21.865 31-38-12.047-.424-24.098 12.278-39 9 2.243-21.758 31.645-16.355 38-34-13.108-4.126-25.534 3.756-38 2-1.259-12.004 17.108-12.834 28-16-1.878-13.611 15.201-9.516 25-13 7.767-2.762 6.702-7.564 11-15 4.382-7.581 8.941-14.536 13-24 3.699-8.626 9.036-16.46 13-23-41.766 1.478-77.244 12.645-115 23-34.675 9.511-69.039 17.959-106 27-37.397 9.147-92.312 15.226-141 10-14.081-1.512-28.937-6.396-39-15-12.595-10.768-29.136-34.295-19-50-3.572-5.095-7.918-9.415-12-14-6.469-28.907 5.151-51.917 18-73 8.981-14.737 19.266-28.649 30-38 7.896-6.879 25.634-15.894 35-16 4.069-.046 8.01 2.601 12 3 26.483 2.647 46.626-16.668 74-16 6.89-6.206 23.14-2.948 37-4 32.48-2.464 66.658-15.706 100-19 18.3-1.808 30.902-6.463 47-10 32.906-7.23 68.487-7.998 104-9 37.922-1.07 78.033 6.628 116 13 35.917 6.028 70.397 17.959 106 24 14.465 2.454 28.573 5.78 43 8 70.535 10.854 142.129 15.203 218 22 20.854 1.868 42.799 4.019 61 10 17.181 5.646 33.818 12.74 51 19 6.51 2.372 12.982 7.731 20 10 3.578 1.157 7.252-.198 11 1 2.169.693 4.82 4.06 7 5 16.762 7.228 27.148 6.535 38 19 12.718-2.007 19.057 8.126 28 14 3.608 2.369 8.632 2.525 13 5 6.352 3.598 10.818 9.883 17 14 11.198 7.457 28.852 16.019 40 17 10.395.915 25.373.102 37-3 8.338-2.224 21.973-12.356 23-21 .822-6.917-7.777-24.697-11-30-13.821-22.741-44.576-34.45-49-66z" fill-rule="evenodd"/></svg>