<svg xmlns="http://www.w3.org/2000/svg" xmlns:dc="http://dublincore.org/documents/dcmi-terms/" height="239.455" version="1.2" viewBox="0 0 355.7 239.455" width="355.7" overflow="inherit"><metadata><dc:description>Silhouette of Dromaius novaehollandiae, processed by PhyloPic Tools (https://github.com/eweitz/phylopic-tools)</dc:description><dc:source>http://phylopic.org/image/35947c43-1e5c-4003-bbaa-d352530b5af7</dc:source><dc:creator>Darren Naish (vectorize by T. Michael Keesey)</dc:creator><dc:license>http://creativecommons.org/licenses/by/3.0/</dc:license></metadata><path d="M58.68 26.739c-1.119 2.396-.936 11.552-.36 18 1.101.261 1.059-.621 2.16-.36-.769.911-1.46 1.899-2.88 2.16.744 1.054 1.536 2.75 3.24 1.8-.157.443-.461.739-1.08.72.086.633.619.821 1.44.72-1.011.654-1.144 3.455 1.08 2.88-.146.694-1.396.285-1.08 1.44 1.462 1.042 5.549 2.902 4.68 6.12-.061.781 1.277.163 1.8.36.913 2.544 2.372 5.045 2.52 7.92 1.162.322.506-1.174 1.08-1.44 2.083-.18 1.898 1.537 4.32.72.403 1.134.033.815 0 2.16 1.827-.574 1.97-2.831 3.6-3.6.422.058.304.656.36 1.08 1.354-.206 1.526-1.594 2.52-2.16 1.654.746-.419 2.569-.72 3.6.722 1.043 1.334-1.038 2.521-.72.172 1.133-.513 1.407-.72 2.16 2.686 1.026 4.642-1.201 5.76-2.88 5.902-1.178 9.918-4.242 15.479-5.76.634-.086.821-.619.72-1.44 8.347-4.133 11.215-13.745 19.8-17.64.992-.448 1.041-1.838 1.8-2.52 1.018.298.933-.507 1.8-.36 5.867-4.093 10.751-9.169 18.36-11.52 3.315-4.124 9.667-5.212 13.68-8.64 13.87-4.49 23.501-13.219 39.601-15.48 4.771-2.689 14.793-3.181 22.68-3.6 1.869-.1 6.507-.689 9.72-.36 3.06.313 5.555 1.594 8.28 1.44 1.171-.066 2.48-.756 3.6-.72 2.504.082 7.918 2.895 12.24 3.6 4.492.733 5.707 2.252 10.439 2.52.601.6 1.733.667 2.16 1.44 2.202-.162 3.027 1.053 4.681 1.44.187.533.532.907.72 1.44 10.379 3.535 18.854 10.268 27.36 16.92 6.379 4.988 13.228 7.955 16.92 15.48 3.844 2.405 5.135 6.894 7.56 10.44 3.201 4.682 7.595 8.612 10.8 13.32 1.912 2.807 2.534 6.538 5.761 8.28 1.524 3.396 3.712 6.127 6.119 8.64 2.484 7.784 5.926 13.033 6.48 23.04.227 4.088-1.602 7.716-2.16 12.24-.748 6.051-.927 13.207-5.04 17.28-.569-.029-1.373.174-1.439-.359-1.386.415-.76 2.84-2.521 2.88-.462-.474-.462-1.327 0-1.8-1.129.847-1.899 2.959-3.6 2.16-.115-.835.058-1.383.359-1.801 2.157 1.437 2.926-3.45 3.601-5.76-4.072 1.448-4.879 6.161-9.36 7.2 2.372-1.35 3.704-6.757 2.16-9.72-2.169 1.822-1.621 8.176-4.68 7.92 1.318-.962 1.729-2.831 2.16-4.681-.307-1.056-.906.469-1.801 0 .993-3.545.377-5.136.36-9-1.714 3.087-.497 9.103-3.96 10.44 1.809-1.896-1.378-2.354 0-4.68-1.605.183-2.532 3.7-3.96 1.8.524-.382 2.257-.537 2.88-2.521-.418-.661-1.91-.249-1.44-1.8-1.698 1.524-3.153 1.663-5.76 1.8.129-1.431 1.22-1.899 1.08-3.6-.459-.861-2.999.359-2.16-1.8-1.433.247-1.573 1.786-2.88 2.159.52-1.16.341-3.02.36-4.68-1.226.814-.14 3.941-2.88 3.24-.052-1.389.281-3.161-.721-3.6-1.438-.118-.76 1.88-1.439 2.52-2.296-.523-.761-1.721-.36-3.24-2.575.501-4.466 1.183-5.76-1.8-1.832 1.519-2.682-.697-4.68-.36.114-.845.568-1.352.359-2.52.258-.978-1.697.257-1.439-.72-.781-.061-.163 1.277-.36 1.8-1.139-.059-1.203.957-2.52.72-.289-1.249.536-1.384.359-2.52-1.924.815-1.24.902-3.6.36-.354-1.153-.156-1.76-1.44-2.52-.724.599 1.401 3.697-.359 4.32-1.123-.197-.553-2.088-1.08-2.88-3.037-.053-2.87-1.158-5.04-2.16-1.181.962 1.208 3.771-1.08 3.96-.113-1.735-.406-1.685-.36-3.96h-1.439c-1.031.049.311 2.471-.721 2.52-1.301.341-.502-1.418-.72-2.16-2.006-.035-.825 1.245-1.439 2.16-1.128.167-1.607-.313-1.44-1.44-1.54-.101-1.78 1.1-3.601.72.967 1.351.482 2.35.36 4.32 1.438 2.489 2.198 7.282 2.521 9.72 3.242 5.013 3.818 11.502 4.68 17.64 3.148 22.452 7.689 47.012 15.48 65.521 4.64 3.06 2.853 12.009-1.801 13.68h-2.88c-4.466 5.135-15.534 3.665-22.319 6.479-1.72-1.566-5.557.279-6.841-1.079.107-.733.722-.959 1.08-1.44-6.628-.714-11.738-2.456-17.64-1.8 1.327-4.573 5.414-3.467 9.359-4.32 1.509-.326 2.607-1.445 3.601-1.439.717.004 1.497.774 2.16.72 4.464-.372 8.075-4.001 12.239-2.88 1.761-1.233 4.426-1.836 5.761-4.32 1.348-9.55-1.004-17.949-2.88-25.2-3.595-13.892-6.585-28.414-11.521-41.399-1.031-2.715-3.228-3.78-4.319-6.841-.842-2.357-.623-4.899-2.16-6.84-.758-.322-1.601-.56-2.16-1.08.87-3.143-2.368-6.693-.721-9.72-1.634-.405-2.149-1.93-3.6-2.52-.174-1.134 1.105-.815.72-2.16-.924-.983-3.76-.329-5.399-1.8-.424.777-.747 1.653-1.08 2.52-1.18.087-1.524-1.194-2.521-2.16-1.002-.162.282 1.962-.72 1.8-1.585-.095-1.224-2.136-1.8-3.24-.812.268-.141 2.02-.36 2.88-1.713-.595-1.328.166-2.88.36-.539-1.021-.751-2.37-1.08-3.6-.599 2.156-3.241.558-2.88-1.44-1.258.782-.906 3.173-2.88 3.24-.817-.263-.638-1.522-1.08-2.16-.658.542-.847 1.553-1.44 2.16-.893.053-1.746.067-1.8-.72-.499.581-1.02 1.14-1.439 1.8-1.232.152-1.082-1.078-1.8-1.44-1.925 1.017.476 2.512 0 4.32-.991.432-1.504.782-2.521.36-.639.681-.263 2.378-.36 3.6-1.13.407-.951-.104-1.8.36-.192 1.247-.185 2.695-1.439 2.88 1.745 3.427.027 5.961 1.439 9.72-1.505.415-1.923 1.917-3.239 2.521-4.191 19.584-14.835 35.119-21.601 52.92-2.057 5.412-2.809 11.179-5.76 16.56-.103 2.863-2.154 6.371-2.521 10.44-.422 4.69.377 9.773-5.04 8.28-1.29 4.966-7.162 6.426-12.959 7.92-4.44 1.144-8.907 4.525-14.76 1.8.181-1.38 1.77-1.351 2.16-2.521-8.87 2.319-16.769-3.143-26.28-1.439 2.529-7.653 11.761-5.25 19.44-5.76 8.607-.573 15.902-6.736 21.24-10.08-.297-1.018.507-.933.36-1.801 5.546-4.916 5.59-12.921 7.92-19.8 1.685-4.972 4.351-9.793 6.12-14.76a448.693 448.693 0 0 0 6.12-18.36c1.769-5.728 4.749-12.176 4.68-20.16-1.044-2.86-.822-8.964.36-11.159-.613-.227-.593-1.088-1.08-1.44.216-1.344.844-2.275 1.44-3.24-.87-2.297-1.22-4.301-.721-7.2-2.518 1.99-6.58-2.399-8.279-4.68-.426.415-1.272.408-2.16.36-.696-2.615-2.068-.76-3.601-1.8.391 1.89 1.892 2.669 2.88 3.96-.1.834-.961.828-1.439.36 1.029 1.97 3.906 2.094 5.04 3.959-.225.855-.484 1.677-1.44 1.801.631 2.608 3.808 2.673 4.32 5.399-1.292 1.029-2.454-.477-3.96-.359.38 1.899 1.982 2.577 1.8 5.039-3.217-.742-4.55-3.369-6.84-5.039-1.375 1.869 1.875 2.193 1.8 3.96-2.797-1.089-4.811-1.104-6.12-3.24-1.159-.079-1.522.637-2.88.36-.604-1.076-.726-2.635-2.16-2.881-1.168.624.935.943.36 2.16-3.354-.366-2.406-5.033-6.48-4.68-.459-1.101-1.321-1.799-1.44-3.24-3.061-2.099-5.505-4.814-5.4-10.08-.479-.721-1.598-.802-2.52-1.08-1.099 1.992-3.498-.121-4.32 1.8-.83.11-.4-1.04-1.08-1.08-.963 1.098 1.111 3.751 0 5.04-.811-1.709-.519-4.521-1.8-5.76-.66 3.098.175 4.312-.72 7.56-1.156-.358-.012-3.077 0-3.6-.791-1.181-1.476-.595-2.52-1.08-.992.448.456 3.336-1.44 2.88.413-.456.723-2.838 0-3.24-.891.309.105 2.505-.72 2.88-1.588-.332-1.725-2.116-2.52-3.24-1.495 1.619-.14 5.93-.72 7.56-1.12-.08-.608-1.792-.72-2.88-2.351-.311-1.123 2.958-2.16 3.96-1.095-1.066 1.052-3.875-.72-4.68-.675 1.725-1.378 3.422-2.88 4.32.863-2.276-.733-3.669-1.44-5.4-.949.731.282 3.643-1.08 3.96-1.781-.124.299-.945 0-1.8-.734-.628-.706.268-1.44-.36-.665 2.095-3.119 2.401-3.96 4.32-.043-1.037.197-2.356-.36-2.88-1.121 1.28-2.704 2.096-2.88 4.32-1.381-.604.875-2.544-.36-4.32-1.165 1.633-1.75 5.23-3.96 4.68v2.16c-.516-.443-.682-1.238-.72-2.16-1.502.924-1.797-.29-2.52-1.08-1.764 1.257.001 4.322-.36 6.48-1.302-.858-.439-3.881-2.16-4.32-1.621.342-.076 3.513-.72 3.96-.965-.475-.598-2.282-1.08-3.24-1.621.3-2.477 1.363-3.24 2.521-.867.147-.783-.657-1.8-.36-.197-.522.421-1.86-.36-1.8-.72.81.396 2.024-.72 2.88-1.351.271-.785-1.375-1.8-1.439-.809 1.867 1.166 3.779 0 5.76-1.297-.262-.234-1.122-.72-2.52-.443.156-.739.46-.72 1.079-.88-1.52-1.113-3.687-1.44-5.76-.945 2.295-1.247 5.232-2.16 7.561-1.03-.461-.396-4.275-1.08-6.12-.782.777-1.018 2.102-1.439 3.24-.957-.004-2.056.136-2.521-.36-.785-.753.18-1.027 0-2.16-2.228 1.492-2.661 4.779-4.68 6.479-1.46-.391.354-1.47.36-2.52-1.844-.196-1.075-3.005-2.16-3.96-1.13.07-.976 1.424-2.521 1.08v-3.24c-1.033.167-1.983.417-2.16 1.44-.489-.111-.299-.901-.36-1.44-1.406.154-.989 2.132-2.88 1.8-.655-1.117.616-3.882 0-5.04-.931 1.109-1.239 2.841-2.88 3.24-.805-.155-.146-1.774-.36-2.52-1.461.099-1.485 1.635-2.52 2.159-1.165-.755-1.52-2.319-2.88-2.88v-3.959c-1.396.403-1.315 2.285-2.52 2.88-.896-1.081-1.377-3.483-1.08-4.68-.544-.106-1.234-.996-2.52-.36-.302-.418-.475-.965-.36-1.8h-2.16c-.535-1.837-2.971-2.973-1.8-5.4-.542-1.123-1.553 1.059-2.16 0-.886-.879.266-1.561 0-2.88-.092-.748-1.582-.098-1.8-.72.192-1.608 1.083-2.517.72-4.68-.77.431-.447 1.953-2.16 1.44-.261-1.101.621-1.059.36-2.16-1.466-.564-2.922-.996-3.96-1.08-.729-2.032-.052-5.468-2.88-5.4.331-.905.691-2.469-.72-2.52.156-1.355 1.497-1.524.72-2.88-.521-.459-.804.632-2.16 0-.174-1.254 1.756-.403 1.8-1.44-1.101-.744-1.661-1.228-3.24-.72-.095-1.175 1.12-1.041 1.44-1.8-.242-1.504-2.095-.027-2.521-.72.37-.83 1.239-1.161 1.08-2.52-1.281-1.019-1.186 1.745-2.88 1.44.109-1.091 1.389-1.011 1.44-2.16-.305-.775-.886-1.273-2.16-1.08 1.045-1.081.859-2.598-1.08-2.52-.195-1.275 1.275-.885 1.08-2.16-.045-.795-1.527-.153-2.16-.36-.115-.834.058-1.382.36-1.8-.417-.302-.965-.475-1.8-.36.168-2.615-2.395-3.129-1.08-5.04-.054-.666-1.219-.221-1.44-.72-.221-1.445 1.422-3.282-.72-3.6.204-1.952.656-3.871-1.08-4.32.787-1.717.805-2.287 0-3.96 2.549-1.25.775-4.689 2.52-6.48a32.348 32.348 0 0 0-1.08-1.08c4.535-8.375-7.029-10.861-11.16-15.12-6.815 1.523-17.122 5.359-25.2 4.32.206-2.993 2.857-5.198 4.68-6.84 3.848-3.466 7.955-6.322 10.8-10.8-1.185-4.215 2.327-10.502 5.4-11.52v-2.16c.964.236 1.369 1.031 2.16 1.44.252-1.548.461-3.139 1.08-4.32.422.058.304.656.36 1.08 1.832.151.624-2.736 2.52-2.52.007 1.131-1.189 2.008-.36 2.88.982-1.856 2.227-1.245 3.24-2.88 1.648.205 2.417.225 3.96 1.08.147.867-.658.782-.36 1.8 5.479-.817 13.46 2.899 20.16 1.44.147-.867-.657-.782-.36-1.8 1.301-.341.502 1.418.72 2.16.898-.782 1.975-1.386 2.52-2.521 1.866 3.571-.701 9.535 1.8 11.88-.001 1.319-1.685.955-1.08 2.88.447 1.634 1.047-.622 1.8.36.209 1.29-1.065 1.095-2.16 1.08-.152 1.232 1.078 1.082 1.44 1.8.168.769-.515.686-1.08.72 1.377 1.29-.215 4.207 1.8 3.6-.323.636-.869 1.051-1.08 1.8.421.059.644-.078.723-.359z" fill-rule="evenodd"/></svg>