<svg xmlns="http://www.w3.org/2000/svg" xmlns:dc="http://dublincore.org/documents/dcmi-terms/" height="258.355" version="1.2" viewBox="0 0 67.73 258.355" width="67.73" overflow="inherit"><metadata><dc:description>Silhouette of Dryopithecus brancoi, processed by PhyloPic Tools (https://github.com/eweitz/phylopic-tools)</dc:description><dc:source>http://phylopic.org/image/4294eba9-4a96-4ffd-84df-8e6e02180b83</dc:source><dc:creator>T. Michael Keesey</dc:creator><dc:license>http://creativecommons.org/licenses/by/3.0/</dc:license></metadata><path d="M41.114 156.698c2.1 0 4.116-1.2 6.05-3.6 1.033-1.233 2.134-2.816 3.3-4.75.301-.367 1.067-.983 2.301-1.85 1.133-.833 1.816-1.433 2.05-1.8.467-1.1 1.366-1.717 2.7-1.85 1.366-.133 2.483.367 3.35 1.5 1.167 2.434 2.7 5.517 4.6 9.25 1.367 3 2.117 5.733 2.25 8.2.101 1.9-.267 3.733-1.1 5.5 0 .4.017.816.05 1.25.033.833.033 1.517 0 2.05-.033.4-.066.717-.1.95-.267 1.267-.917 2.233-1.95 2.9-.267.333-.434.083-.5-.75.2-1.167.384-2.2.55-3.1.033-.133.05-.25.05-.35-.033.1-.066.217-.1.35-.167.367-.316.767-.45 1.2a55.94 55.94 0 0 1-.55 1.5c-.167 1.334-.366 2.95-.6 4.851h-.351c-.066-.434-.133-.9-.2-1.4-.333.101-.6.15-.8.15 0-.033-.066-.101-.2-.2-.066-.033-.116-.3-.149-.8-.033-.267.033-.9.2-1.9a.58.58 0 0 1-.2.2c-.467 1.6-.667 2.684-.601 3.25-.033 0-.149.083-.35.25a2.108 2.108 0 0 1-.85.25c-.034 0-.051-.017-.051-.05a5.993 5.993 0 0 1-.55 1.55h-.7a1.1 1.1 0 0 1-.35.45c-.566-.5-.967-1.2-1.2-2.101a.752.752 0 0 1-.2.15c0 .866-.033 1.7-.1 2.5l-.15.45-1.1.05a3.53 3.53 0 0 1-.1-.85.718.718 0 0 1-.4.1c-.1-.333-.2-.7-.3-1.1a6.036 6.036 0 0 1-.45.199c-.033.4-.05.784-.05 1.15l-.15.1c0 .2-.017.417-.05.65l-.8.2a6.994 6.994 0 0 1-.25-1.5.563.563 0 0 0-.15.1c.066 1.101.117 1.9.15 2.4.066.833 0 1-.2.5-.733-.2-1.217-.934-1.45-2.2v-.15c-.267.067-.517.134-.75.2.033.066.05.134.05.2 0 .5-.05.8-.149.9-.2.166-.3.267-.3.3l-.45.25c-.134-.467-.25-.9-.351-1.3l-1.1.3c0 .533-.083 1.017-.25 1.45l-.6 1.05c-.834-.467-1.417-1.134-1.75-2l-1.7.2v.1l-.15 1.5c-.133.3-.35.467-.649.5-.301-.667-.584-1.3-.851-1.9.101.7.184 1.417.25 2.15.033.833.017 1.083-.05.75-.066.3-.267.467-.6.5-.467-1.233-.884-2.35-1.25-3.35-.301 0-.601.017-.9.05.366.967.634 1.633.8 2-.434-.3-.916-.967-1.45-2h-.3c.867 1.866 1.617 3.116 2.25 3.75-.033.233-.1.399-.2.5-.1.166-.383.25-.85.25-.1 0-.25-.117-.45-.351a.459.459 0 0 1-.35.301c.133.399.3.767.5 1.1-.233-.233-.483-.583-.75-1.05h-.2c-.733 0-1.45-.566-2.15-1.7.2 1.267.367 2.6.5 4a92.51 92.51 0 0 1 .801 7.45c.066.399.116.783.149 1.149.467.667.967 1.217 1.5 1.65-.467-.233-.967-.75-1.5-1.55.066.866.134 1.75.2 2.649.1.367.217.75.35 1.15v.25a1.268 1.268 0 0 1-.3-.5.628.628 0 0 0 0 .35c.367.801.65 1.417.851 1.851v.3a6.64 6.64 0 0 1-.75-.9c.133 1.567.199 3.134.199 4.7.067 1.533-.483 2.884-1.649 4.05-.233.467-.45.934-.65 1.4-1.333 2.634-3.399 4.233-6.2 4.8a23.527 23.527 0 0 1-2.149 4.3c-.334.467-.634.9-.9 1.301.4.433.7.8.9 1.1-.134.467-.233.767-.3.9-.2.233-.534.35-1 .35-.467 0-.934-.134-1.4-.4l-.5.4c.2.366.3.6.3.7 0 .833-.1 1.416-.3 1.75-.2.333-.55.5-1.05.5-.8 0-1.351-.351-1.65-1.05-.133-.534-.25-.917-.35-1.15h-.15c0 .667.066 1.233.2 1.7-.134.3-.333.55-.6.75-.7-.267-1.2-1.017-1.5-2.25a5.13 5.13 0 0 1-.15-1.15 2.595 2.595 0 0 1-.65-.7c-.166.467-.3.75-.399.851-.267-.134-.45-.3-.55-.5-.034-.167-.067-.584-.101-1.25-.033-.5-.017-1.117.05-1.851-.199-2.133-.3-3.267-.3-3.399-.066-1.4.9-3.2 2.9-5.4 2.066-2.267 4.166-3.717 6.3-4.35-.467-.867-.983-2.267-1.55-4.2h-.05v-.15c-.267-.8-.534-1.683-.801-2.649a1.559 1.559 0 0 0-.199-.25v.5l-.45.05c0-.333.017-.7.05-1.1-.533-.767-.917-1.417-1.15-1.95l-.05.05-.2-.2c-.033-.1-.066-.434-.1-1-.025-.375.042-.975.2-1.8.059-.275.125-.575.2-.9a10.363 10.363 0 0 1-.25-1c-.194.802-.286 1.436-.275 1.9.014.174.039.323.075.45l-.45.05a3.295 3.295 0 0 1-.05-.5c-.05-.637.017-1.387.2-2.25l-.301-.2c0 .367.017.667.051.9l-.4.05a4.64 4.64 0 0 1-.35-.15c-.067-.1-.101-.399-.101-.899v-.7a3.412 3.412 0 0 1-.649-1.55c-.034-.134-.101-.967-.2-2.5 0-.9.033-1.767.1-2.601-.233.9-.35 1.684-.35 2.351 0 .2-.066.383-.2.55l-.2-.2c-.033-.1-.066-.434-.1-1 0-.5.133-1.2.399-2.1l-.25-.65c.2-.733.367-1.383.5-1.95-.533-2.699-.816-4.449-.85-5.25-.2-4.1.033-6.649.7-7.649v-.05a5.24 5.24 0 0 1-.25-1.3c0-.8 1.066-2.2 3.2-4.2.966-.933 1.816-1.683 2.55-2.25a15.85 15.85 0 0 1 3.3-2.875c3.339-2.186 7.673-3.278 13-3.278zm20.45 78.75c-.467 1.667-1.566 2.5-3.3 2.5-1.934 0-3.101-1-3.5-3l.05-2.9c.033-4 1.217-6 3.55-6 2.333 0 3.483 2 3.45 6-.033 1.733-.117 2.867-.25 3.4z" fill-rule="evenodd"/><path d="M56.265 148.498c2 0 3.649.6 4.949 1.8.934.833 1.551 1.883 1.851 3.15 1 1.767 1.833 4.4 2.5 7.9.267 2.833.583 5.783.95 8.85.199 2.134.233 4.75.1 7.85v.5c.3 1.667.5 3.267.6 4.801-.1.267-.3.399-.6.399.267 2.533.4 4.3.4 5.3l-.4.45c0 .367-.033.601-.1.7l-.25.25-.301-.05c-.033-.733-.166-1.917-.399-3.55a4.397 4.397 0 0 1-.3-1 .433.433 0 0 0-.051.199c.467 2.7.817 5.351 1.051 7.95a4.773 4.773 0 0 1-.801-.95c.034.467.051.9.051 1.301-.034.3-.184.449-.45.449a.63.63 0 0 1-.15-.3l-.25-.05c0-.267-.017-.533-.05-.8-.1-.4-.184-.851-.25-1.351v.2c.1 1.066.184 2.017.25 2.851.2.8.467 1.816.8 3.05.9 3.666 1.283 7.2 1.15 10.6 0 .101-.217 1.7-.65 4.8.167.934.351 2.017.55 3.25.334 2.4.617 4.817.851 7.25-.367 2.534-.601 4.801-.7 6.801v1.199l-.05.051c-.134.899-.467 1.983-1 3.25-.467 1.166-1 2.017-1.601 2.55.301 1.866.317 2.733.051 2.6-.367-.1-.584.15-.65.75a30.3 30.3 0 0 1 0 2.45c-.134 2.7-1.217 5.566-3.25 8.6-1.967 2.9-3.684 4.25-5.15 4.051-.267-.034-.55-.25-.85-.65-.3-.366-.5-.616-.6-.75-.134.167-.5.816-1.101 1.95-.434.866-.934 1.267-1.5 1.2a4.278 4.278 0 0 1-.899-.25l-.2-.15c-.233-.866-.134-1.733.3-2.6l-1.8-.4c-.066-.366-.084-.9-.05-1.6 0-.233.533-1.483 1.6-3.75 1.033-2.267 1.583-4.134 1.65-5.601 0-.133.017-.267.05-.399l-.4-.301c-2.767 2.4-4.55 3.534-5.35 3.4-.7-.1-1.117-.4-1.25-.9-.033-.133-.033-.433 0-.899v-.2c.166-.233.316-.5.45-.8 1.3-2.2 2.35-3.967 3.149-5.3a18.014 18.014 0 0 1 2.5-1.7c.533-.3 1.033-.55 1.5-.75a.555.555 0 0 1 .2-.2c.733-.7 1.4-1.267 2-1.7-.267-.566.3-1.217 1.7-1.95h1.1a.444.444 0 0 0-.05-.199c.366-.967.4-2.2.1-3.7-.033.267-.05.5-.05.7-.333.433-.666.616-1 .55l-.149-.75c.133-.867.3-1.601.5-2.2l-.25-.05a1.592 1.592 0 0 1-.101-.45c-.033-.167-.033-.517 0-1.05.033-.367.084-.733.15-1.101a31.826 31.826 0 0 0-.4-2.35c-.5-3.233-.916-5.934-1.25-8.1-.767-3.367-1.45-6.134-2.05-8.301-2.8-1.833-4.9-6.683-6.3-14.55-.566-2.967-.967-6.217-1.2-9.75-.066-.733-.1-1.366-.1-1.899-1.167-4.801-1.75-7.784-1.75-8.95.166-3.133.767-6.417 1.8-9.85 1.1-3.567 2.467-5.867 4.1-6.9.434-1.2 1.101-2.2 2-3 1.433-1.234 3.133-1.867 5.1-1.901zm10.049 32.15c.033.066.05.133.05.2.066 1.066.15 2.033.25 2.899a45.04 45.04 0 0 0-.25-3.35.801.801 0 0 1-.05.251z" fill-rule="evenodd"/><path d="M51.714 86.898v-.05c0-.066.034-.117.101-.15.399.233 1.283 1.067 2.649 2.5-1.267-1.7-2.316-3.283-3.149-4.75l.25-.2c1.2 1.5 2.983 4.017 5.35 7.55 2.867 4.267 4.3 6.833 4.3 7.7 1.667 5.034 2.5 7.684 2.5 7.95 0 .3.051.75.15 1.35 1.134 1.7 1.7 2.933 1.7 3.7 0 .1-.017.367-.05.8a20.27 20.27 0 0 0-.101 2.2c-.166-.167-.399-.5-.7-1 .134.633.301 1.367.5 2.2l-.1 6.75c-.066.133-.184.15-.35.05-.134-.1-.2-.267-.2-.5-.101 0-.167.4-.2 1.2-.167.133-.35.25-.55.35.066.9.116 1.8.149 2.7h.2c.033.667.084 1.617.15 2.85.066 1.1.184 2.05.35 2.85l-.149 17.5-.4.05c-.066-1.033-.15-2-.25-2.9-.233 3.067-.634 7.283-1.2 12.65-.6 4.9-1.767 9.567-3.5 14-2.934 7.334-6.633 11-11.1 11-1.733 0-3.384-.666-4.95-2-.566-2.2-1.6-6.083-3.1-11.649-.301-.967-.584-1.917-.851-2.851-.467-.533-.816-.95-1.05-1.25l-.05 1.95-.25.25c-.867-3.667-1.351-5.85-1.45-6.55-.5-2.567-.767-5.034-.8-7.4-.066 0-.117.15-.15.45-.1.467-.184.8-.25 1-.1-.267-.2-.683-.3-1.25-.1-.7-.167-1.117-.2-1.25-.033.633-.184 1.067-.45 1.3l-.449.2c0-.433-.301-3.733-.9-9.9-.6-5.667-.884-9.4-.85-11.2v-.7a2.035 2.035 0 0 0-.15-.4 39.896 39.896 0 0 0-.5-1.5c.167-3.867.65-8.367 1.45-13.5.467-3.667.967-7.133 1.5-10.4a.795.795 0 0 0-.2-.3c-.2-.267-.3-.617-.3-1.05 0-1.167.316-2.167.95-3l.199.6c2.233-11.8 4.851-18.717 7.851-20.75l-.55-1.05c.033-4.934 2.25-4.867 6.649.2a68.324 68.324 0 0 1 2.801 3.65zm7.15 9.2c.2.167.467.383.8.65h.25c-.533-.566-1.033-1.1-1.5-1.6.101.267.217.55.351.85l.099.1z" fill-rule="evenodd"/><path d="M54.414 5.648c.5.6.783 1.383.851 2.35.1.7.066 1.317-.101 1.85-.166.8-.583 1.25-1.25 1.35h-1.5c.134.633.4 1.733.8 3.3.067.233.15.467.25.7-.133.1-.233.217-.3.35-.399.533-.45 2.033-.149 4.5.3 2.233 1.1 4.967 2.399 8.2.767 1.767 1.816 4.2 3.15 7.3.6 1.5 1.399 3.167 2.399 5 .2 1.066.384 2.117.551 3.15.1.867.1 3.583 0 8.15 0 .067.199.434.6 1.1.5.733.767 1.25.8 1.55.033.534-.083.917-.35 1.15-.434.2-.767.367-1 .5.066.1.184.2.35.3.101.133.184.467.25 1 .066.5.084.75.05.75a2.35 2.35 0 0 0-.05.45c-.333.233-.684.35-1.05.35.167.733.3 1.467.4 2.2.1.367.216.75.35 1.15.333 1 .717 2.333 1.15 4-.101.533-.45.75-1.051.65l-.3.3c.566 1 1.15 2.2 1.75 3.6.033.566.05.917.05 1.05.167.4.267.75.301 1.05.1.833.1 1.067 0 .7a6.741 6.741 0 0 1-.5.1c.133.267.216.517.25.75.066.467.066.7 0 .7-.034-.066-.067-.033-.101.1a5.427 5.427 0 0 1-.1.55c-.066.133-.233.267-.5.4-.033.133-.05.25-.05.35-.067.2-.317.367-.75.5h-.25a.686.686 0 0 1-.051.3c.334.1.25.233-.25.4.4.633.817 1.35 1.25 2.15 0 .633-.166 1.133-.5 1.5a3.215 3.215 0 0 1-.6-.55c-.066.1-.134.183-.2.25-.333-.1-.7-.283-1.1-.55 1.434 2.3 2.217 3.633 2.35 4 0 .2-.083.4-.25.6-.133.233-.267.383-.399.45-.301-.167-.767-.817-1.4-1.95.167.4.333.867.5 1.4.134.367.283.75.45 1.15l.05.3c.233.033.267.117.1.25.167.5.351 1.033.551 1.6 0 .1.033.167.1.2-.033.066-.233.15-.6.25-.434.133-.9-.083-1.4-.65.634 1.267 1.4 2.833 2.3 4.7l-.1.3c-.667-.5-1.351-1.433-2.05-2.8.166 1.267.399 2.667.699 4.2 1.034 2 1.617 3.417 1.75 4.25.067.566.067.95 0 1.15-.066.1-.199.2-.399.3-.367-.767-.7-1.45-1-2.05 0 2-.233 3.583-.7 4.75 0 .133-.017.267-.05.4-.066.267-.167.633-.3 1.1a16.86 16.86 0 0 1-.45-.35c-.434.533-.967.9-1.601 1.1-4.399 1.4-8.083.65-11.05-2.25-2.233-2.1-3.483-4.3-3.75-6.6 0-.067.867-5.267 2.601-15.6-.134-.2-.267-.45-.4-.75-.366-.767-.583-1.383-.65-1.85-.033-.433 0-.983.101-1.65 0-.7-.033-1.25-.101-1.65.834-.267 1.267-.317 1.301-.15l.25-.15c-.167-.1-.267-.2-.301-.3-.133-.1-.233-.417-.3-.95-.066-.567.217-1.483.851-2.75a12.858 12.858 0 0 1-.75-2.05c.066-.533.267-.867.6-1 .066.533.3 1.167.7 1.9.233-.333.416-.633.55-.9-.467-.6-.717-1.066-.75-1.4-.066-.533-.083-.817-.05-.85.033-.033.066-.017.1.05v-.2c.3.133.617.35.95.65-.033-.2-.066-.417-.1-.65a.744.744 0 0 0-.351-.2.594.594 0 0 1 .4-.3c0-.733.1-1.233.3-1.5l-.6-.3-.051-.55c.2-.167.417-.267.65-.3-.033-.1-.033-.184 0-.25.033-1.1-.017-1.817-.15-2.15.167-.1.301-.184.4-.25a.388.388 0 0 0-.05-.15c.133-.066.316-.05.55.05.1 0 .2.017.3.05.066-.433.167-.85.3-1.25-.366-.7-.566-1.25-.6-1.65l.15-.5c.133.067.366.233.699.5.367-2.4.784-4.933 1.25-7.6-.033-.467-.683-3.367-1.949-8.7-1.301-5.534-2.084-9.2-2.351-11l-.45-5.2c-.267-2.067-.699-3.633-1.3-4.7-.467-.8-1.217-2.383-2.25-4.75-1.033-2.4-1.566-3.733-1.6-4-.101-.566.2-2.25.899-5.05.601-2.633.95-3.967 1.051-4 .399-.133.716-.05.949.25.167.167.351.433.551.8 1.899-3.167 3.933-4.183 6.1-3.05 1.769 1 2.868 2.734 3.302 5.2z" fill-rule="evenodd"/><path d="M53.265 95.898c1.566 1.533.833 5.883-2.2 13.05a288.333 288.333 0 0 1-2.4 5.05c.167-.133.3-.233.4-.3l.399.2c0 .267-.033.4-.1.4-.167.167-.417.467-.75.9-.167.133-.417.3-.75.5-.134.2-.233.417-.3.65l.35.25c-.2.367-.533.75-1 1.15-.267.3-.467.667-.6 1.1.434-.3.866-.667 1.3-1.1.2-.1.434-.15.7-.15-.4 1.333-.667 2.1-.8 2.3-.067 0-.65.566-1.75 1.7-1.601 2.767-2.617 4.3-3.051 4.6.034.1.15.133.351.1.133 0 .217.033.25.1.2.267.233.55.1.85-.733.267-1.434.6-2.1 1-.033.167-.05.284-.05.35l.149-.05c.233-.133.417-.15.55-.05-.1.3-.683.917-1.75 1.85-1.5 2.633-2.966 5-4.399 7.1-.267.4-.533.783-.8 1.15.166.7.533 1.35 1.1 1.95l-.3.55c-.8.2-1.584.5-2.351.9l.351.3c-.033.033-.066.117-.101.25-.1.2-.333.483-.699.85-.167.167-1.051.566-2.65 1.2-.267.2-.5.434-.7.7.134 0 .217-.017.25-.05.134.167.184.383.15.65-.7.433-1.334.816-1.9 1.15-.3.233-.55.55-.75.95-1.399 1.267-4.1 3.233-8.1 5.9a2.65 2.65 0 0 1-.45.3 5.007 5.007 0 0 1-.15.25c-.404.751-.771 1.443-1.1 2.075a7.882 7.882 0 0 0-.15.275l-.6-.5c.134-.067.35-.45.65-1.15-.2.267-.483.433-.851.5-.434.9-.866 1.483-1.3 1.75-.1.233-.184.367-.25.4-.1.7-.233 1.183-.4 1.45-.3.367-.683.917-1.149 1.65-.334.8-.517 1.233-.55 1.3.133.667-.267 2.183-1.2 4.55-1.033 2.434-1.8 3.767-2.3 4-.534.2-.867.3-1 .3l-.25-.1a5.059 5.059 0 0 0-.301-.6c-.166.4-.416.817-.75 1.25 1.834.333 3 .399 3.5.199.567-.1 1.301-.45 2.2-1.05.8-.267 1.167-.316 1.101-.15l.35.65c-.533.867-.934 1.45-1.2 1.75-.767 1.033-1.649 1.717-2.649 2.05-1.101.434-2.25.367-3.45-.199v.399c.1.434.767.733 2 .9 1.399.2 2.316.533 2.75 1-.267.767-1.084 1.434-2.45 2-.4.066-.767.166-1.1.3.3.366.466.684.5.95l.149.7a.663.663 0 0 0-.149.399c0 .167-.4.434-1.2.8-1.367.5-2.601.217-3.7-.85-.167 0-.483.116-.95.35-.467.167-1.083-.399-1.85-1.699-.601-.9-.934-1.617-1-2.15a1.935 1.935 0 0 1 .05-1.15v-.199c-.233-1.301.05-2.967.85-5l.301-.7c.1-2.3.966-4.967 2.6-8a21.598 21.598 0 0 1 2.15-3.05c-.5.2-1.034.3-1.601.3.4-.333 1.634-1.284 3.7-2.85-.934.4-1.566.767-1.9 1.1l-1.3-.2c.3-.433.767-.883 1.4-1.35l-.95-.15c.134-.233.417-.5.85-.8v-.05c.38-.38.931-.847 1.65-1.4.236-.175.486-.358.75-.55.233-.133.5-.3.8-.5h-.05c.033-.133.066-.25.1-.35h-1.3c.39-.584.84-1.117 1.351-1.6a10.467 10.467 0 0 1 2.199-1.55 2.652 2.652 0 0 1-.6-.15l-.1.05-.15.1.15-.2h-.101v-.3c.033.033.117.05.25.05.033-.1.117-.233.25-.4.101-.1.417-.434.95-1l-.5-.1c.2 0 .767-.283 1.7-.85a.596.596 0 0 0 .1-.15c.134 0 .25-.083.351-.25-.767.433-1.467.7-2.101.8a1.328 1.328 0 0 1-.3-.7c0 .033.283-.05.85-.25l-.199-.3c.166 0 .283-.033.35-.1l.3-.2c.033-.067.117-.133.25-.2l-.05-.05.1.05c.601-.7 1.45-1.283 2.551-1.75-.767.034-1.2-.066-1.301-.3l-.149-.25c.566-.133 1.35-.367 2.35-.7.101-.1.2-.216.3-.35-.533.033-.949-.083-1.25-.35l.051-.4.149.1c.066.067.3.067.7 0 .366-.033.684-.066.95-.1.533-.833 1-1.534 1.399-2.1.467-.767 2.601-3.033 6.4-6.8.134-.233.517-.6 1.15-1.1-.067-.434-.067-.967 0-1.6.333-1.533.683-3.133 1.05-4.8-.634.4-1 .567-1.101.5.167-.5.667-1.183 1.5-2.05l.051-.1c.199-.433.366-.85.5-1.25-.301.267-.567.5-.801.7l-.25-.25a71.19 71.19 0 0 0 1.601-2c.2-.6.434-1.217.7-1.85a76.75 76.75 0 0 0-2.101 1.85l-.2-.2c.634-.733 1.45-1.6 2.45-2.6 0-.066.117-.2.351-.4.066-.3.199-.633.399-1 .033-.033.084-.117.15-.25-.767.633-1.4 1.184-1.9 1.65l-.3-.2c.066-.133.134-.25.2-.35 0-.067.233-.317.7-.75.366-.3.816-.667 1.35-1.1a2.487 2.487 0 0 1 0-.7c-.3.333-.566.6-.8.8l-.101-.25a11.66 11.66 0 0 0 1-1.15c.067-.3.084-.717.051-1.25-.567.433-1.084.683-1.551.75.434-.3.95-.667 1.551-1.1.1-.3.149-.6.149-.9l-.7.85-.149-.1c.1-.267.383-.7.85-1.3a48.1 48.1 0 0 1 .3-2.25c-.1.034-.199.15-.3.35l-.149-.25c.033-.133.199-.35.5-.65a7.195 7.195 0 0 1-.051-.8c.067-.434.15-.817.25-1.15-.233.2-.383.383-.449.55l-.4-.05c.233-.533.5-1.033.8-1.5l.05-.05c.367-3.233.851-5.45 1.45-6.65.467-1.067 1.233-2.133 2.3-3.2 1.067-1.2 3.25-2.3 6.551-3.3 4.267-1.367 7.449-1.033 9.55 1 .833.8 1.383 1.65 1.649 2.55l.05.05zm-40.901 53.1c.1-.167.184-.316.25-.45l-.8.8c.066 0 .217-.033.45-.1l.1-.25zm-1.75 3.55c.1-.1.15-.2.15-.3 0-.033-.067 0-.2.1-.066.133-.15.25-.25.35a.626.626 0 0 0 .3-.15z" fill-rule="evenodd"/><path d="M46.814 79.448c.032.032.065.049.1.05h-.05c0 .034.017.083.05.15a.752.752 0 0 0-.2-.15c.134.2.25.383.351.55v.1l-.05-.05c.033.1.083.184.149.25.101.233.217.467.351.7.233.267.383.5.449.7v.15a.606.606 0 0 1-.149-.1c.166.5.25.917.25 1.25l-.05.3c.433.733.933 1.633 1.5 2.7.066.066.033.1-.101.1-.066 0-.166-.05-.3-.15-.033.034-.083.05-.15.05-.433-.567-.966-1.383-1.6-2.45 0 .033-.017.067-.05.1a4.89 4.89 0 0 0-.3-.6c.033.1.066.184.1.25.333.667.733 1.434 1.2 2.3 0 .167-.017.2-.05.1-.267-.3-.517-.65-.75-1.05.1.5.149.9.149 1.2 0 .133-.05.367-.149.7l-.101-.3-.1-.1c-.233-.3-.45-.7-.65-1.2l-.05.05v.35l-.15.95-.25.1c-.066-.2-.149-.483-.25-.85-.033.033-.05.067-.05.1 0 .6-.05 1.05-.149 1.35h-.15v-.6c-.4.767-.917 1.617-1.55 2.55-1.667 2.4-3.5 3.767-5.5 4.1.033.067.05.15.05.25.366.267.583.75.65 1.45.033.566-.034 1.183-.2 1.85v.6c-.101.133-.217.3-.351.5.034.167.051.383.051.65 0 .2-.067.533-.2 1v.6c0 .2-.084.817-.25 1.85v-1.95a3.32 3.32 0 0 0-.25.7c0 1.1-.167 1.9-.5 2.4-.134-.167-.2-.333-.2-.5l.05-.4c-.2.333-.35.6-.45.8h-.25v-.1a4.93 4.93 0 0 0-.149.8c-.2.067-.3.067-.3 0 .033-.2.083-.433.149-.7-.033 0-.05.017-.05.05-.167.533-.35.917-.55 1.15-.101-.033-.15-.133-.15-.3-.2.233-.399.433-.6.6l-.25-.15c.233-.3.434-.583.6-.85a.571.571 0 0 0-.2.2c-.333.5-.683.85-1.05 1.05-.434.8-.783 1.333-1.05 1.6l-.4-.25c.267-.466.517-.917.75-1.35-.699 1.033-1.233 1.633-1.6 1.8l-.35-.25c0-.067.366-.683 1.1-1.85.033-.033.05-.066.05-.1h-.1c-.566.967-.983 1.567-1.25 1.8l-.25-.3c0-.167.066-.383.2-.65a.571.571 0 0 1-.2.2c-.167.2-.316.383-.45.55l-.2.05v.05c-.166.1-.3.167-.399.2-.2-.034-.317-.067-.351-.1.134-.2.267-.383.4-.55l-.15.05c-.066.033-.1-.033-.1-.2 0-.133.1-.383.3-.75h-.2c-.467.9-1.2 1.533-2.2 1.9a.613.613 0 0 0 .101-.35l.1.1 1.101-1.5-.25.05c-.067.066-.117.1-.15.1l-.2.3c-.7.867-1.166 1.367-1.399 1.5.1-.133.199-.283.3-.45-.267.2-.5.333-.7.4-.533.4-1.017.716-1.45.95l-.1-.05c.233-.267.5-.633.8-1.1-.033 0-.05-.017-.05-.05a.432.432 0 0 1 .2-.05 11.2 11.2 0 0 1 .85-1.15c-.1.033-.184.067-.25.1h-.05c-.2.333-.316.517-.351.55-.633.867-1.483 1.6-2.55 2.2h-.149v-.15c0-.034.267-.333.8-.9l-.3.2c-.101.033-.167.017-.2-.05.1-.167.2-.25.3-.25.066 0 .15-.017.25-.05h-.05l-.05-.3c0-.031.017-.064.05-.1a11.07 11.07 0 0 1-1.8 1.45c-.067.066-.101.033-.101-.1l1.15-1.25c-.267.2-.533.417-.8.65-.167-.033-.25-.117-.25-.25l.1-.1-.2.1a.839.839 0 0 1-.05-.2c0-.133.25-.417.75-.85h-.2c-.066 0-.166-.034-.3-.1a.56.56 0 0 0-.25.05l-.05-.05c.033-.1.083-.2.149-.3h-.1v-.05l-.4.3c-.066.067-.1.034-.1-.1l.4-.7h-.051c.034-.033.067-.05.101-.05.1-.2.2-.367.3-.5l-.05-.05c-.134.1-.217.184-.25.25a6.246 6.246 0 0 0-.25.45h-.101c-.033.033-.05-.017-.05-.15l-.3-.25c0-.267.134-.6.4-1-.034-.034-.067-.05-.101-.05-.066.133-.166.3-.3.5h-.05c.1-.233.184-.433.25-.6a.563.563 0 0 1-.15-.1c-.033.066-.1.1-.2.1l.101-.2a.325.325 0 0 1-.15-.15 2.385 2.385 0 0 1-.25-.65c-.3-.767-.45-1.167-.45-1.2a7.297 7.297 0 0 0-.649-1v-.15c0-.2.1-.35.3-.45a.547.547 0 0 0-.1-.15c-.233-.267-.351-.45-.351-.55 0-.267.017-.517.05-.75.034-.2.067-.383.101-.55.033-.367.116-.683.25-.95 0-.267.033-.517.1-.75v-.05c.601-1.3 1.017-2.083 1.25-2.35.033-.1.283-.383.75-.85.033-.533.267-.966.7-1.3.134-.067.283-.133.45-.2.133-.233.416-.633.85-1.2.334-.4.65-.733.95-1 0-.1.017-.184.05-.25.101-.3.15-.9.15-1.8v-.4c-.3-.033-.45-.083-.45-.15.033.033.184.033.45 0v-.15c-.033-.033-.066-.05-.101-.05a.604.604 0 0 1-.35-.35h.05c.033.1.117.15.25.15.033 0 .066.017.101.05v-.05c0-.033.017-.05.05-.05a.388.388 0 0 0-.15-.05l-1.399-.35c.133-.133.517-.117 1.149.05h.05l-.399-.2c.033 0 .283.067.75.2l.05-.05-.1-.2c-.267-.067-.5-.15-.7-.25.166 0 .333.017.5.05a1.696 1.696 0 0 0-.101-.25c-.033-.033-.05-.083-.05-.15-.399-.133-.6-.233-.6-.3.033-.066.1-.1.2-.1-.2-.2-.351-.467-.45-.8a3.886 3.886 0 0 1-.3-1.1c-.233-.333-.351-.633-.351-.9 0-.367.066-.733.2-1.1l-.05.45c0 .433.066.783.2 1.05.033-.367.1-.667.199-.9.067-.066.134-.167.2-.3v-.75h.05v.45c.067-.2.15-.316.25-.35-.033.133-.066.283-.1.45.167-.2.35-.383.55-.55-.094.219-.186.436-.274.65h.024c-.066.2-.1.517-.1.95 0 .4.017.7.05.9 0-.1.017-.184.05-.25a5.856 5.856 0 0 1-.05-.4c0-.233.083-.517.25-.85v-.2c.066-.533.233-.917.5-1.15-.1.133-.167.333-.2.6.134-.267.267-.467.4-.6-.033.133-.184.567-.45 1.3-.033.034-.05.083-.05.15-.033.267-.05.566-.05.9l.1-.2c.033-.3.116-.633.25-1v-.2c.033-.333.167-.583.4-.75a1.56 1.56 0 0 1 .25-.2 2.502 2.502 0 0 0-.25.4 3.57 3.57 0 0 0-.25.7v.05a.563.563 0 0 1 .1-.15c0 .067-.017.15-.05.25h.2l.1.15-.05 1.1h.05c.033-.5.083-.967.15-1.4l.199.1.101.1c-.066.034-.134.017-.2-.05v.85c.033-.233.066-.417.1-.55.034.133.051.35.051.65l.05-.05c.033-.133.1-.3.2-.5a11.363 11.363 0 0 1-.101-.8c0-.067.066-.283.2-.65.2-.4.366-.617.5-.65-.066.2-.233.583-.5 1.15-.1.367-.134.667-.1.9.333-.7.916-1.6 1.75-2.7a1082.9 1082.9 0 0 1-1.601 3v.1a.448.448 0 0 1 .2-.05c.1-.333.417-.733.95-1.2.133-.333.3-.65.5-.95.1-.133.184-.25.25-.35.133-.2.316-.4.55-.6.066-.133.167-.3.3-.5a2.75 2.75 0 0 0-.149.35c.166-.133.383-.284.649-.45.101-.1.233-.2.4-.3.2-.367.333-.6.399-.7a.842.842 0 0 0-.1.325c.006-.092.057-.2.15-.325.233-.333.433-.55.6-.65-.167.367-.316.7-.45 1l.3-.1c.233-.167.534-.333.9-.5.233-.333.366-.517.4-.55a2.035 2.035 0 0 1-.15.4c.066-.067.134-.1.2-.1.633-.4 1.066-.75 1.3-1.05 0 .167-.05.35-.15.55.034-.033.084-.05.15-.05l.4-.8a7.132 7.132 0 0 0-.25-.45c.166-.034.25-.067.25-.1l.1.3c.033-.1.05-.183.05-.25 0-.066-.033-.1-.1-.1-.033.034-.05.034-.05 0l.25-.1c.066.1.1.216.1.35 0 .1-.033.233-.1.4.066.233.1.466.1.7.1-.2.2-.383.3-.55a4.388 4.388 0 0 0-.1-.35c0-.1.1-.15.3-.15.2-.467.3-.783.3-.95v-.1h-.149l.3-.1.05.35c0 .434-.15 1.017-.45 1.75.066-.066.134-.1.2-.1-.1.066-.2.167-.3.3 0 .033-.017.067-.05.1-.034.1-.084.217-.15.35.366-.4.684-.7.95-.9.133-.4.2-.867.2-1.4 0-.233-.067-.467-.2-.7h.2c.066.167.1.417.1.75 0 .5-.05.9-.15 1.2l.301-.3c-.134.233-.267.45-.4.65a1.1 1.1 0 0 1-.15.35h.2c.066-.167.134-.317.2-.45l.8-1.65.05.15c0 .267-.25.833-.75 1.7.634-.4 1.483-.833 2.551-1.3l.149.15c-.267.267-.767.583-1.5.95a.85.85 0 0 1 .2-.05l.2.1c.467-.233.75-.35.85-.35-.1.066-.2.15-.3.25.566-.167.934-.25 1.1-.25l-.05.05h.05c.9-.333 1.45-.5 1.65-.5-.134.2-.333.383-.6.55l.149.1c-.233.1-.434.167-.6.2-.267.133-.533.25-.8.35.566-.033 1.483-.133 2.75-.3l.25.25-.601.2h.65c.333.1.6.3.8.6h-.05c.066.033.166.117.3.25.1.033.217.066.35.1 1.367.466 2.184.9 2.45 1.3 0 .067-.033.117-.1.15a1.743 1.743 0 0 0-.55-.35.438.438 0 0 1-.2.05c.57.3.987.683 1.253 1.15zm.5 6.75c.035.033.068.05.1.05-.1-.233-.184-.45-.25-.65.066.233.101.383.101.45 0 .034.016.083.049.15zm.451-2.5a1.146 1.146 0 0 0-.15-.35l-.25-.55c0 .1.017.2.05.3.1.167.216.367.35.6zm-6.301-7.2l-.399.1h.7a26.524 26.524 0 0 1-.301-.1zm1.051.1h.149l-.1-.1h-.55c.1.034.183.067.25.1h.251zm-7.851-1.05a.448.448 0 0 0-.05-.2 5.843 5.843 0 0 0-.2.45.56.56 0 0 1 .25-.05v-.2zm-.3.3c-.066.133-.134.25-.2.35l.15.15c-.2.167-.384.333-.55.5-.101.1-.184.2-.25.3a.385.385 0 0 0 .149-.05.623.623 0 0 0 .101-.15c.3-.233.55-.433.75-.6.033-.2.083-.4.149-.6l-.299.1zm-.5.2c-.116.204-.274.42-.475.65.118-.121.243-.221.375-.3.1-.167.199-.3.3-.4a.432.432 0 0 1-.2.05zm-8.3 5.55c-.033.133-.066.25-.101.35 0 .3.034.567.101.8 0-.033.017-.05.05-.05-.033-.167-.05-.3-.05-.4v-.2-.3-.2zm-.549.8c0 .167.017.333.05.5v-.7a.438.438 0 0 0-.05.2zm-.151 1.35l.2.2v-.1c0-.066.017-.133.05-.2-.134-.1-.217-.2-.25-.3l-.15-.15c.034.167.084.333.15.5v.05zm-.4-2.15c0 .4.034.75.101 1.05l.1.1c-.033-.533-.1-.95-.2-1.25l-.001.1zm-.3.65l.3.3a7.384 7.384 0 0 1-.05-.9c-.133.3-.217.5-.25.6zm.55-.05v-.55c0-.367.017-.617.051-.75l-.2.4c.033.333.082.634.149.9zm.051 2.3c.034.001.067.018.1.05 0-.033-.017-.05-.05-.05h-.05zm-.351-1.55l-.1-.1-.101-.1c0 .067.017.133.051.2l.199.1c-.032-.033-.049-.067-.049-.1z" fill-rule="evenodd"/></svg>