<svg xmlns="http://www.w3.org/2000/svg" xmlns:dc="http://dublincore.org/documents/dcmi-terms/" height="612.28" viewBox="0 0 437.95 612.28" width="437.95"><metadata><dc:description>Silhouette of Dryomorpha, processed by PhyloPic Tools (https://github.com/eweitz/phylopic-tools)</dc:description><dc:source>http://phylopic.org/image/14184e4e-0777-4d0b-8cb4-00dedd216af4</dc:source><dc:creator>Gareth Monger</dc:creator><dc:license>http://creativecommons.org/licenses/by/3.0/</dc:license></metadata><path d="M12 189.28s13 0 18 8 37 34 49 34 45-11 63-19 32-13 47-13 36-3 49-3 53 0 75 6 31 10 39 12 11 1 26-3 24-8 44-1 63 26 66 29 1 4-28-5-58-11-68-9-15 9-23 17-11 13-25 16-19 15-27 24-3 15-22 16-58 19-87 14-71-11-82-10-18 8-31-3-48-28-59-41-18-25-24-29-37-2-44-4-18-10-18-10-1-15 11-19 25-11 32-11 19 4 19 4z"/><path d="M275 284.28s6 31 17 43 25 19 29 23 3 13.5 7.5 21 7 14 4.5 18-4.5 6.5-4 9 4 2 5.5 1 .5 4 3 5 8-3 8-3 2.5 6.5 5.5 2.5 4.5-11.5 4.5-14-3-10-4-14-3-30-6.5-34.5-19-45-31.5-51.5-38.5-5.5-38.5-5.5zM206.5 305.78s11.5 38.5 15 46 2.5 7 0 16.5-10 18.5-11.5 21.5-13.5 6-14 9-11 12-6.5 11 7-3.5 8.5-2-9.5 14-5 11.5 8.5-2 10.5-1.5 3.5 9.5 8 5 13-15 14.5-16.5 5.5-1 7.5-7.5 11.5-25.5 14.5-30 3.5-14 2-21 2.5-46 2.5-49.5-46 7.5-46 7.5zM122.5 284.78s15 26.5 16 33.5 6.5 14.5-7.5 24-29 21-29.5 22.5-9 6.5-9 6.5l-7.5 2.5s-7-3.5-4-5-3-2.5-.5-4-1.5-3.5 2-5 8.5-5.5 10.5-7 15.5-17 21-21-13.5-32-13.5-36 22-11 22-11z"/><path d="M88 290.28s7 11 11 16-2.5 13-4.5 19-2 5-6 12.5-7 4-6 13.5 4 11.5 4 11.5 9.5-6.5 11-8 18.5-33.5 18.5-33.5l-7-29-21-2zM78.5 369.78l2.5-1 3.5-.5-7-3 3-.5 3-1-5-4.5 4 .5v12zM328.5 401.78l3.5-3.5 2.5-2.5v3.5l2 7.5 4.5-5.5 5-5-.5 5 2.5 6 2.5-5.5-1-12-20.5 8.5z"/></svg>