<svg xmlns="http://www.w3.org/2000/svg" xmlns:dc="http://dublincore.org/documents/dcmi-terms/" height="230.952" version="1.2" viewBox="0 0 1043.616 230.952" width="1043.616" overflow="inherit"><metadata><dc:description>Silhouette of Dugesia subtentaculata, processed by PhyloPic Tools (https://github.com/eweitz/phylopic-tools)</dc:description><dc:source>http://phylopic.org/image/83fa7e8b-b3e9-4b11-90f3-409af1f12a8f</dc:source><dc:creator>Eduard Solà (vectorized by T. Michael Keesey)</dc:creator><dc:license>http://creativecommons.org/licenses/by-sa/3.0/</dc:license></metadata><path d="M909.161 66.952c-13.186 1.001-26-8.887-39-15-13.67 3.222-31.835-5.166-42-2-14.336-5.543-33.912-3.877-46-7-1.029-.266-2.176-2.891-3-3-5.278-.699-10.194.597-15 0-23.101-2.868-53.996-10.9-79-15-8.588-1.408-16.44-4.317-25-6-1.749-.344-2.067 1.988-2 2-13.203-2.344-24.973-5.461-38-7-20.768-2.453-45.973-7.543-67-11-28.688-4.716-62.938-3.072-93 0-4.337.443-10.211 2.239-14 2-2.134-.135-3.937-2.174-6-2-5.779.488-11.366 4.083-17 5-15.927 2.592-32.958 2.379-49 5-4.799.784-10.016 3.37-17 4-7.971.72-15.088-.465-24 1-14.506 2.385-28.887 7.899-44 7-3.124.876-5.281 2.719-8 4-36.333 3.441-69.007 11.042-106 15-19.229-3.333-37.966-7.665-52-7-10.658.505-18.973 5.047-28 11-5.157 3.4-10.118 10.352-15 14-4.191 3.133-9.143 2.121-10 9-3.272-.725-9.136 4.752-12 10-8.009 2.053-12.933 10.03-20 16-12.874 10.873-29.283 18.339-36 36-5.766 15.16.492 41.374 13 52 11.011 9.354 30.037 10.636 49 13 19.989 2.492 40.891 1.677 60 3 20.101 1.393 38.235 4.488 53-5 8.361-11.529 25.406-16.57 40-23 11.625-5.121 24.901-9.049 34-11 33.432-7.17 72.015-4.041 106-3 67.941 2.082 126.353 15.545 193 24 20.498 2.6 60.531 4.465 86 10 18.498 4.021 32.523 8.43 54 13 3.769.802 8.124 2.008 12 3 2.518.645 6.049-.972 7 3 6.031-3.259 10.807.773 17 2 20.37 4.033 44.569 4.875 67 10 9.628 2.199 18.671 6.92 30 7 3.57.025 6.775-1.158 11-1 21.83.817 54.203-2.51 77-8 7.281-1.754 14.268-5.05 19-9 22.786-4.554 51.098-16.845 69-36 4.295-4.596 8.807-12.015 14-18 8.826-10.173 18.487-18.507 24-31 10.407-23.587 7.12-53.382-2-80-9.529-15.249-28.576-32.362-47-39-20.136.378-48.734-6.469-63 6-2.913 6.086-7.384 10.616-12 15-4.287 11.975-16.271 25.022-4 37z" fill-rule="evenodd"/></svg>