<svg xmlns="http://www.w3.org/2000/svg" xmlns:dc="http://dublincore.org/documents/dcmi-terms/" height="608.127" width="395.747"><metadata><dc:description>Silhouette of eastern firefly, processed by PhyloPic Tools (https://github.com/eweitz/phylopic-tools)</dc:description><dc:source>http://phylopic.org/image/ae83a86e-79a8-46b5-ba0e-9d4b25bd707e</dc:source><dc:creator>Melissa Broussard</dc:creator><dc:license>http://creativecommons.org/licenses/by/3.0/</dc:license></metadata><path d="M33.987.122c-1.26.019-2.465.132-3.53.36-1.37.295-1.461 2.244.155 2.654 8.104 2.058 14.936 2.603 22.313 3.04.2-.053.437-.07.67-.103-.38.516-.85.982-1.495 1.392 5.023 2.244 9.465 5.56 15.588 6.286-.374.393-.833.74-1.469 1.057 5.067 2.626 10.954 7.688 15.511 8.837-.465.342-.994.6-1.7.85 4.334 4.512 8.63 10 14.428 13.63-.635.306-1.408.535-2.396.67 4.366 5.616 8.619 11.146 14.17 15.536-1.097.696-2.2 1.165-3.194 1.417 4.577 4.703 7.906 11.83 14.016 14.455-.932.443-2.022.748-3.35.901 5.175 4.23 11.708 12.716 17.315 14.223a12.574 12.574 0 0 1-3.144 1.391c6.473 4.714 15.642 11.864 20.432 11.388-.942.88-2.055 1.526-3.633 1.65 5.94 2.863 13.316 8.977 18.19 9.404l-.128.206c1.094 2.058 2.725 2.74 4.689 2.576h.025c.498 1.088 1.376 1.543 2.86 1.804-.333.473-.668.94-1.056 1.391 11.496 7.963 10.455 5.062 13.552 13.192-.058.22-.131.417-.206.515.111.874-1.211 2.234-1.365 3.53.024.221.072.429.129.644.012.074.033.136.05.206-1.686.42-3.621.599-5.9.36l-.103.284c-.024-.012-.052-.013-.077-.025-4.078.899-6.808 4.846-8.632 8.476-1.493 2.975-1.461 10.214.876 13.707.828 3.048 4.868 7.053 7.395 11.208-10.914 4.796-21.584 13.873-26.306 25.25-1.691 4.074-3.9 8.821-6.132 13.862-4.666-2.698-9.153-5.48-15.82-7.395-.98.057-1.436.553-1.675 1.211a28.203 28.203 0 0 0-.979-2.628c-1.454-5.33-3.872-10.416-4.663-15.923-2.205-9.528-3.581-19.218-4.612-28.934.032-2.064-1.83-3.86-3.813-3.066-1.524-3.431-2.957-8.585-4.664-8.94-.387.314-.77.615-1.16.927-.526-2-.967-4.202-2.164-4.74-.179.154-.342.268-.515.411.136-.436.173-.903-.026-1.34-.16-1.83-.37-4.2-2.344-4.972.94-5.542-.169-10.822-5.462-13.63-4.785-.39-4.782 4.013-3.144 6.7.313.462.544 1.146.67 1.828-1.102-1.848-2.602-4.054-3.375-5.616l-.051-.232c-.463.248-.389-2.049.798-1.185 1.174.089-.282-.634-.747-.49-.559-.377-.407.43-.902-.026.26-.242-.28-.078-.592.103-.059.156-.803.405-.567.542-.301-.218.089 1.115-.283 1.056-.655-.614-2.119-.713-2.757 0-.119.903-.02 1.938-.103 2.808-.076.419.286-.416.54-.721.8-1.33 2.146-.168 3.247.077 1.16 1.4 2.544 3.844 3.762 5.488-.23-.178-.486-.458-.799-.85-2.608-3.138-10.813-3.88-8.992 2.087 1.7 3.92 5.925 6.157 9.868 7.24a9.55 9.55 0 0 0 2.036.31c.443 1.087 1.966 2.091 2.988 2.318.837.312 1.862.642 2.834.721-.37.122-.703.153-.979.103-.473 1.587 1.399 2.988 2.963 4.406-.47.137-.969.244-1.494.284-.181 1.624 3.032 4.39 6.132 7.137-.98.448-1.869 1.04-2.525 1.958 1.02 22.115 10.614 39.966 17.907 52.329-.19.012-.35.026-.567.051-2.793 1.434.412 4.787 2.602 5.308 4.426 4.584 9.099 5.594 14.351 7.678-5.018 13.776-7.644 28.168.49 38.08 10.862 2.114 20.127 2.823 27.646 2.964l-3.375 13.578c-6.318.706-10.604-3.543-18.963 2.139-.015.01-.037.015-.051.025-.16.109-.302.22-.464.335-.14.1-.271.205-.412.31-.253.187-.513.36-.773.566-.065.05-.116.103-.18.155-.179.143-.36.286-.542.438-.154.128-.307.252-.464.386-.01.008-.016.018-.025.026-.346.298-.698.623-1.057.953-.077.072-.153.133-.231.206-.26.243-.506.487-.773.748-.345.335-.7.69-1.057 1.056-.017.018-.034.033-.05.051-.296.303-.573.604-.877.928-.093.099-.19.182-.283.283-.397.429-.798.874-1.211 1.34a125.48 125.48 0 0 0-3.427 9.636c-7.084-2.899-16.041-8.089-22.776-7.832-1.941-1.142-6.588-.96-5.566 2.01.48.581.899.966 1.186 1.365-16.72 1.55-39.805 4.632-61.837 16.567-.409.868-.506 1.723-.438 2.576-4.66-.683-9.683-1.585-10.976-.231.334.465.586.93.799 1.417-2.239-.31-4.692-.911-5.668.567.228.19.439.492.592.876-.733-.742-1.695-1.332-2.525-1.804-.894-.687-2.796-1.274-3.993-.876a10.077 10.077 0 0 0-1.623-1.443c-3.601-2.493-8.366-4.445-12.754-3.143-6.152 2.609.112 8.854 4.483 8.837.537-.012.932.01 1.237.077-2.188.132-5.138.66-7.086.67-.959-.735-2.81-1.031-2.267-2.602.075-.419.472-1.278.18-.927-.657.667-1.555 1.29-2.216 2.01-.146 1.014.953 2.126 1.907 2.24.304.266-1.08.856-.696.954-.274-.1.037.696-.05.85.065.382.288.921.309.541.714.094-.025.523.67.722.201.48 1.782 1.211.901.309-1.525-.38.324-2.045.438-1.494l.232-.103c1.82-.441 4.652-.74 6.931-1.108-.648.367-1.387.66-1.984.721-3.33.503-6.96 3.529-3.35 7.188 5.957 2.42 11.064-.324 14.97-4.92 1.993 1.091 4.08-.342 5.694-1.47.485-.133.844-.45 1.108-.85.001.224.029.41.026.645 1.272.615 3.372-.549 5.385-1.495.012.538.018 1.085.025 1.623 1.487 1.174 6.838-1.309 10.719-2.396l.025-.257c.022.078.057.153.078.232.113 2.396 3.33 2.971 5.488 1.649 10.265-4.904 20.724-9.532 31.536-13.398 5.94-2.613 12.473-3.71 18.654-5.694 1.055-.21 2.112-.43 3.143-.722-.076.478.052.968.542 1.495 7.217 3.805 17.655 7.001 25.3 9.378a154.975 154.975 0 0 0-1.648 9.507v.026a201.201 201.201 0 0 0-1.34 12.419v.026c-.804 10.312-.95 20.518-1.34 30.763v.026c-.077 2.042-.18 4.085-.283 6.132v.026c-.313 6.156-.769 12.34-1.572 18.576.155 2.011.296 4.027.412 6.055v.026c.116 2.019.201 4.046.284 6.08v.026c.183 4.509.301 9.08.36 13.656-7.018 5.563-15.716 10.474-21.54 18.112-2.2 1.145-5.72 5.793-3.142 6.725.549-.067 1.002-.17 1.39-.232-14.11 13.273-33.115 32.396-46.016 58.126.196 1.464.967 2.44 1.933 3.247-3.823 3.629-8.044 7.416-7.91 9.378a7.651 7.651 0 0 1 1.7.206c-1.832 1.766-4.036 3.533-3.58 5.308.305-.08.656-.048 1.055.051-1.087.185-2.222.63-3.169 1.057-1.169.354-2.981 1.668-3.53 2.963-.72.08-1.487.272-2.293.54-4.507 1.6-9.406 4.536-11.517 9.2-2.347 7.027 6.975 5.44 10.075 1.597.373-.48.684-.831.953-1.057-1.46 2.002-3.151 4.928-4.535 6.648-1.256.38-2.82 1.844-3.658.386-.274-.328-.633-1.247-.567-.773.052.994-.116 2.192-.026 3.22.687.763 2.349.508 3.118-.257.423-.102-.119 1.488.231 1.211-.273.178.56.393.619.567.344.18.951.332.67.077.581-.568.38.356 1.03-.129.519.123 2.207-.826.876-.618-1.383 1.1-1.36-1.559-.85-1.314l.078-.284c.956-1.88 2.759-4.542 4.096-6.776-.174.807-.494 1.647-.876 2.216-1.981 3.238-2.178 8.3 3.247 7.42 6.132-3.713 7.607-9.9 6.802-16.206 2.263-1.068 2.64-3.782 2.911-5.9a2.257 2.257 0 0 0 .129-1.546c.17.136.34.266.515.412 1.385-.73 1.984-3.312 2.68-5.668.428.327.862.648 1.288.979 1.786-.516 3.502-5.66 5.23-9.662 1.611.332 3.772-1.23 4.69-3.298 6.37-11.406 13.1-22.706 20.56-33.65 3.85-6.472 9.133-12.108 13.553-18.24.879-.996 1.73-2.011 2.525-3.067.198-.204.347-.396.515-.593.206.496.622.77 1.417.619 6.886-3.946 13.432-10.128 19.35-15.408-.07 19.556-.448 39.52.824 59.518v.025c.958 15.041 2.872 30.093 6.57 44.96a191.763 191.763 0 0 0 1.7 6.365c2.419 8.469 5.445 16.87 9.276 25.172a165.439 165.439 0 0 0 3.04 6.21c1.059 2.062 2.16 4.109 3.324 6.157v.026a164.262 164.262 0 0 0 1.778 3.04v.026a167.056 167.056 0 0 0 5.874 9.121c2.419 3.508 4.932 6.307 7.472 8.503a32.452 32.452 0 0 0 3.066 2.344c8.763 5.918 17.497 5.05 23.42 1.082 7.476 12.647 19.922 16.35 28.652-.592 5.716 3.54 13.835 4.226 21.9-.928a28.32 28.32 0 0 0 1.494-1.005c1.986-1.455 3.979-3.279 5.9-5.513.481-.559.944-1.142 1.418-1.752a51.837 51.837 0 0 0 2.808-3.994c7.876-12.42 13.586-25.056 17.727-37.823a173.48 173.48 0 0 0 1.958-6.39c.302-1.067.594-2.127.876-3.195 1.69-6.417 2.993-12.841 4.019-19.298.171-1.075.335-2.145.49-3.22 3.966-27.571 2.706-55.352 1.494-82.449 3.619 3.11 7.446 6.183 12.393 9.018.784.15 1.208-.11 1.417-.593.162.188.3.373.49.567.795 1.056 1.671 2.07 2.55 3.066 4.42 6.132 9.703 11.77 13.553 18.242 7.46 10.943 14.164 22.243 20.535 33.65.922 2.078 3.102 3.65 4.715 3.297 1.728 4.003 3.444 9.146 5.23 9.662.42-.327.84-.656 1.262-.98.696 2.358 1.32 4.938 2.706 5.67.175-.146.345-.277.515-.413a2.257 2.257 0 0 0 .129 1.546c.271 2.128.62 4.869 2.911 5.926-.797 6.296.679 12.472 6.802 16.18 5.425.88 5.202-4.182 3.221-7.42-.374-.556-.674-1.373-.85-2.164 1.334 2.224 3.147 4.859 4.096 6.724l.078.284c.51-.245.533 2.414-.85 1.314-1.331-.208.357.742.876.618.65.485.449-.44 1.03.13-.281.254.326.103.67-.078.058-.174.892-.389.618-.567.351.277-.19-1.312.232-1.21.77.764 2.431 1.02 3.118.257.09-1.03-.078-2.227-.026-3.22.066-.475-.293.444-.567.772-.837 1.458-2.402 0-3.658-.386-1.384-1.72-3.076-4.646-4.535-6.648.269.226.58.577.953 1.057 3.1 3.844 12.422 5.43 10.075-1.598-2.111-4.663-7.01-7.598-11.517-9.198-.806-.269-1.573-.46-2.293-.541-.547-1.296-2.36-2.61-3.53-2.963-.946-.427-2.082-.871-3.17-1.056.4-.1.75-.131 1.057-.052.455-1.775-1.749-3.542-3.581-5.308a7.514 7.514 0 0 1 1.674-.206c.134-1.962-4.061-5.75-7.884-9.378.964-.806 1.738-1.786 1.933-3.247-12.907-25.74-31.93-44.878-46.043-58.151.395.06.854.188 1.417.257 2.579-.932-.942-5.58-3.143-6.725-4.951-6.494-9.741-8.79-15.279-12.65-.422-11.622-.637-23.08-.206-34.294-2.088-12.426-2.799-24.668-3.684-36.947-.148-2.045-.3-4.085-.464-6.132-.575-7.173-1.297-14.344-2.473-21.591-.168-1.034-.354-2.055-.541-3.092a155.097 155.097 0 0 0-1.933-9.146c7.37-2.134 16.723-2.731 24.786-6.983.488-.525.618-1.017.541-1.494 1.041.293 2.104.51 3.17.721 6.174 1.98 12.694 3.084 18.628 5.694 10.812 3.867 21.27 8.495 31.536 13.398 2.158 1.323 5.349.748 5.462-1.649.02-.077.056-.154.078-.232l.025.258c3.88 1.087 9.232 3.57 10.719 2.396.008-.539.015-1.085.025-1.623 2.013.946 4.139 2.11 5.411 1.494v-.618c.264.392.655.692 1.134.824 1.614 1.128 3.7 2.562 5.694 1.469 3.906 4.597 8.988 7.341 14.944 4.921 3.61-3.66.008-6.686-3.324-7.188-.597-.062-1.336-.354-1.984-.722 2.278.368 5.112.668 6.93 1.108l.233.103c.114-.55 1.963 1.114.438 1.495-.881.902.7.171.901-.31.695-.199-.07-.628.644-.72.021.379.27-.16.335-.542-.088-.155.223-.95-.05-.85.385-.098-1-.688-.696-.954.953-.114 2.052-1.227 1.906-2.241-.66-.72-1.584-1.342-2.241-2.01-.291-.35.13.509.206.928.543 1.57-1.308 1.867-2.267 2.602-1.95-.009-4.923-.54-7.112-.67.305-.066.725-.09 1.263-.077 4.37.017 10.635-6.228 4.483-8.838-4.388-1.3-9.153.65-12.754 3.144-.631.456-1.168.935-1.623 1.443-1.197-.399-3.125.188-4.02.876-.82.466-1.768 1.048-2.499 1.777.153-.373.343-.662.567-.85-.972-1.472-3.41-.877-5.642-.567a7.67 7.67 0 0 1 .798-1.417c-1.292-1.354-6.316-.451-10.975.232.067-.854-.03-1.709-.438-2.576-22.044-11.94-45.14-15.018-61.863-16.567.287-.4.73-.782 1.211-1.366 1.022-2.968-3.624-3.15-5.565-2.01-7.788-.296-15.352 3.495-22.673 5.72a126.188 126.188 0 0 0-3.942-9.97c-.526-.551-1.045-1.052-1.546-1.547a64.944 64.944 0 0 0-.902-.876c-.193-.184-.377-.365-.567-.54-.205-.191-.391-.36-.592-.542-.273-.246-.534-.467-.8-.696-.104-.09-.204-.169-.308-.257-.353-.3-.692-.58-1.03-.85-.01-.008-.017-.018-.026-.026a37.23 37.23 0 0 0-1.237-.953c-11.127-8.121-15.07-.488-23.704-3.144-.283.024-.545.03-.825.052l-4.637-11.311c12.006.113 23.452-.12 28.599-1.237 5.325-4.63 2.99-22.527-1.88-39.343 6.099-2.742 11.397-3.36 16.386-8.528 2.19-.521 5.395-3.874 2.602-5.308a9.601 9.601 0 0 0-.567-.052c7.293-12.362 16.86-30.213 17.881-52.329-.656-.917-1.52-1.51-2.5-1.958 3.1-2.745 6.314-5.512 6.133-7.137a7.315 7.315 0 0 1-1.494-.283c1.564-1.419 3.435-2.82 2.963-4.406-.275.049-.61.018-.98-.103.97-.08 1.975-.41 2.809-.722 1.022-.226 2.571-1.23 3.014-2.318.642-.02 1.3-.13 2.01-.31 3.943-1.082 8.195-3.319 9.894-7.24 1.82-5.966-6.384-5.225-8.992-2.087a5.21 5.21 0 0 1-.773.8c1.21-1.645 2.586-4.05 3.736-5.437 1.101-.246 2.422-1.407 3.22-.078.255.305.618 1.14.542.722-.084-.87.04-1.905-.078-2.809-.639-.712-2.103-.613-2.757 0-.372.06.018-1.273-.283-1.056.236-.136-.509-.385-.567-.541-.312-.181-.852-.345-.593-.103-.495.455-.343-.352-.901.025-.466-.143-1.921.58-.748.49 1.187-.864 1.262 1.434.8 1.185l-.053.232c-.773 1.563-2.273 3.769-3.375 5.617.126-.683.357-1.367.67-1.83 1.638-2.686 1.641-7.089-3.143-6.698-5.294 2.807-6.403 8.088-5.463 13.63-1.974.772-2.183 3.142-2.344 4.972-.198.435-.186.905-.052 1.34-.17-.14-.314-.261-.49-.412-1.196.539-1.638 2.741-2.164 4.74-.389-.312-.772-.612-1.16-.927-1.706.355-3.14 5.51-4.663 8.94-1.984-.794-3.871 1.003-3.839 3.066-1.031 9.717-2.407 19.406-4.612 28.935-.792 5.514-3.184 10.61-4.637 15.948-.367.856-.7 1.718-.98 2.603-.238-.658-.694-1.155-1.674-1.211-7.211 2.07-11.884 5.14-16.98 8.038-3.38-8.86-7.17-16.098-10.357-18.937-9.624-8.571-11.908-16.17-22.132-20.586 2.394-2.433 5.099-4.39 7.755-9.018 3.917-2.196 3.36-12.14 1.185-15.562-2.123-3.343-5.152-6.898-9.146-7.524l-.026-.051c-1.971-.066-3.588-.4-4.973-.876.026-.31-.024-.667-.077-1.057-.499-1.056.556-3.907-.825-3.4-.49-.586-.723-1.155-.876-1.727 3.06-8.029 2.07-5.178 13.527-13.114-.388-.451-.723-.919-1.056-1.392 1.506-.264 2.392-.732 2.885-1.855l.026.052c1.964.163 3.57-.518 4.663-2.577l-.128-.206c4.874-.427 12.25-6.54 18.19-9.404-1.578-.124-2.69-.77-3.633-1.65 4.79.477 13.959-6.673 20.432-11.387a12.508 12.508 0 0 1-3.144-1.392c5.611-1.493 12.134-9.987 17.314-14.222-1.327-.154-2.417-.459-3.35-.902 6.115-2.622 9.438-9.75 14.017-14.454-.994-.252-2.097-.721-3.195-1.417 5.552-4.39 9.805-9.92 14.171-15.536-.988-.135-1.761-.365-2.396-.67 5.798-3.63 10.094-9.119 14.428-13.63-.71-.252-1.233-.505-1.7-.85 4.557-1.15 10.444-6.211 15.51-8.838-.635-.316-1.094-.664-1.468-1.056 6.128-.725 10.562-4.041 15.588-6.287a5.422 5.422 0 0 1-1.495-1.391c.232.033.47.049.67.103 7.377-.437 14.235-.983 22.339-3.04 1.616-.41 1.499-2.36.129-2.654-7.944-1.706-22.7 3.18-23.42 3.298a7.806 7.806 0 0 0-.516.644c-.21-.747-.292-1.554-.258-2.422-5.065 3.357-7.728 3.65-14.454 9.276-.218-.524-.444-1.09-.747-1.701-4.332 4.548-10.186 6.671-13.553 12.11a58.835 58.835 0 0 1-1.391-2.293c-3.55 6.001-11.081 11.598-11.569 17.365-.681-.623-1.33-1.305-2.267-1.958-3.267 6.057-8.533 12.173-10.126 17.417a14.36 14.36 0 0 1-1.442-1.777c-3.3 5.835-8.915 9.95-10.255 17.236-.592-.571-1.174-1.187-1.803-1.777-4.24 5.492-9.725 10.796-12.187 16.67-.505-.467-1.002-.926-1.572-1.366-4.896 4.67-11.43 8.395-14.712 13.99a19.19 19.19 0 0 0-1.443-1.726c-5.148 2.54-10.384 6.534-14.12 10.976l.31.722c-1.672-.23-3.39 1.218-3.813 2.576l-.18-.283c-.982.658-2.254 1.108-2.37 2.37a21.89 21.89 0 0 1-.49-1.52c-10.053 6.519-8.854 8.978-12.11 13.63-.027-.061-.049-.12-.078-.18 1.034-1.555-.41-2.35-1.391-3.196-1.657-.894.104-4.485-1.958-3.091-1.21 1.568-3.341 2.324-4.895.54-.462-2.238-3.07-.73-3.968.593-2.033 1.046-4.986.518-6.39-1.417-1.194-.111-.239 2.776-.902 3.659-1.418-.654-1.41-.795-1.314.953-.03.355-.1.708-.154 1.057-2.41-3.978-2.108-6.563-11.337-12.548-.153.54-.337 1.06-.515 1.546-.103-1.28-1.383-1.734-2.37-2.396l-.181.283c-.421-1.35-2.124-2.788-3.788-2.576l.31-.722c-3.735-4.442-8.997-8.436-14.145-10.976a19.188 19.188 0 0 0-1.443 1.727c-3.283-5.596-9.79-9.321-14.686-13.99-.57.439-1.093.898-1.598 1.365-2.464-5.873-7.949-11.18-12.187-16.67-.639.598-1.203 1.224-1.803 1.803-1.332-7.302-6.952-11.42-10.255-17.262-.45.663-.944 1.246-1.443 1.777-1.592-5.244-6.858-11.36-10.125-17.417-.938.653-1.586 1.335-2.268 1.958-.487-5.767-8.018-11.364-11.568-17.365-.56.96-.993 1.705-1.392 2.318C80.04 16.26 74.19 14.13 69.853 9.577c-.303.61-.529 1.177-.747 1.7-6.727-5.626-9.389-5.918-14.455-9.275.034.868-.047 1.675-.257 2.422-.134-.183-.282-.414-.49-.644C53.406 3.72 42.176-.004 33.988.12zm89.25 204.832c.068.001.14.003.207 0a2.025 2.025 0 0 1-.541.413c.108-.14.226-.273.335-.413zm143.899 0c.067.003.138.001.206 0 .108.14.226.273.335.413-.18-.1-.366-.22-.541-.413z" fill-opacity=".969" stroke="#000" stroke-width=".216"/></svg>