<svg xmlns="http://www.w3.org/2000/svg" xmlns:dc="http://dublincore.org/documents/dcmi-terms/" height="244" viewBox="0 0 578 244" width="578"><metadata><dc:description>Silhouette of Ekorus ekakeran, processed by PhyloPic Tools (https://github.com/eweitz/phylopic-tools)</dc:description><dc:source>http://phylopic.org/image/23f6baea-bbd1-47fd-b02a-aebc78e3d2a4</dc:source><dc:creator>Steven Traver</dc:creator><dc:license>http://creativecommons.org/publicdomain/zero/1.0/</dc:license></metadata><g fill-rule="evenodd"><path d="M297 0c-17.066 1.118-30.611 2.815-46 5-9.297 1.32-19.319 3.819-29 4-6.218.116-11.882-1.212-18-1-10.556.365-21.985 1.116-31 3-2.899.605-5.974 2.742-9 3-1.316.112-4.533-.892-6-1-9.103-.672-15.048-1.604-22-2-19.252-1.095-43.552-.257-58 3-4.094.923-7.376 2.948-11 3-1.365.02-6.387-.058-9-1-3.045-1.098-3.029-4.527-6-4-3.828.679-2.535 2.991-4 6-.387.794-2.4.389-3 1-7.353 7.492-13.448 11.358-19 18-1.091 1.305-3.576 3.32-4 4-1.31 2.101-.962 4.565-2 7-1.18 2.768-3.762 7.189-5 9-1.977 2.892-5.033 5.433-7 8-3.084 4.025-6.251 8.995-8 12V19C0 14.701-1.398 1.398 0 0c1.159-1.159 33.258 0 37 0h260z" fill="#fff"/><path d="M297 0h60c14.874 2.219 31.007 7.244 45 12 6.139 2.086 12.243 3.651 18 6 2.724 1.111 5.389 2.775 8 4 4.39 2.058 8.037 3.012 14 5 1.47.49 3.76 1.377 5 2 2.88 1.447 4.908 4.501 8 6 1.491.723 3.623.493 5 1 2.491.917 5.174 2.042 8 4 .358.248.684 1.857 1 2 7.64 3.444 17.136 15.666 24 22 2.826 2.608 5.53 5.344 9 8 2.482 1.9 4.42 4.904 7 8 3.237 3.884 7.028 7.854 11 12 .131.137.957.938 1 1 5.111 7.477 13.319 15.515 20 23 5.342 5.986 12.438 13.438 19 20 2.1 2.1 9.887 10.164 14 16-.194-.275 5.851 2.116 3 6-2.146 2.924-13.22-1.165-18-3-6.819-2.618-12.466-4.96-16-7 .237.137-2.125-1.177-2-1-.234-.332.313-1.775 0-2-1.139-.818-2.813-.2-4-1-.367-.247-.678-1.854-1-2-.511-.23-1.54.307-2 0-.37-.247-.676-1.854-1-2-2.584-1.165-6.226-3.343-9-6-.473-.453-2.691-1.896-4-3-3.52-2.969-8.313-8.095-13-12-1.538-1.282-3.005-3.446-5-5-.536-.417-2.521-.485-3-1-1.122-1.208-1.39-4.03-3-6-3.204-3.918-7.475-7.302-12-12-5.885-6.11-6.355-6.355-12-12-2.323-2.324-5.528-6.262-3 1 .385 1.106 2.053 4.225 2 4 1.325 5.61 1.104 9.912 2 14 3.626 16.541 11.13 28.635 22 42 4.786 5.885 8.76 10.633 15 17 2.967 3.026 7.252 5.59 8 8 .835 2.689-.764 11.914-1 17-.578 12.43.229 28.39-3 39-1.786 5.868-10.665 14.49-16 15-3.327.317-8.469.615-13 1-.992.084-4.019-1.421-6-1-.474.101-.974 3.254-4 2 .678.28-1.292-3.397-1-3-.38-.517-2.898-1.615-3-2-.268-1.012.981-6.276 2-8 1.561-2.641 6.205-5.756 9-7 2.818-1.255 7.624-.48 9-2 1.008-1.113 3.131-13.96 3-16-.133-2.07-1.506-6.844-2-8-.297-.694-1.436-3.123-2-4-.245-.381-1.851-.669-2-1-1.238-2.746-3.577-4.703-8-8-4.997-3.726-10.749-7.761-17-11-6.466-3.351-11.394-5.274-18-9-.65-.366-2.275-.456-3-1-.454-.341-.567-1.725-1-2-1.115-.711-3.551-1.016-5-2-.771-.523-1.035-1.406-2-2-3.354-2.063-5.084-3.849-10-7-.77-.493-2.848-2.285-4-2-1.175.29-5.533 8.042-8 16-3.021 9.744-2.735 17.081-4 29-.15 1.418-1.8 5.33-3 7-.249.346-1.861.691-2 1-1.211 2.686-1.537 2.184-5 5-1.536 1.25-2.594 2.935-4 4-4.733 3.585-10.531 7.834-16 11-.751.435-2.125.42-3 1-5.073 3.361-6.526 5.938-11 8-2.227 1.026-4.258.21-9 1-2.178.363-4.229 2.002-5 2-4.086-.009-.487-2.217-5-3-1.824-.316-5.32.929-7 2-3.834 2.443.476-2.622-2-5-2.104-2.021-5.807 1.854-9 0 .162.094-1.003-2.003-1-2-2.126-2.126-1.037-1.975-1-5 .012-.925-1.593-2.206-1-4 .937-2.836 7.93-7.707 13-9 4.027-1.027 8.951.156 13-1 3.622-1.034 8.388-4.213 12-7 1.846-1.424 4.354-3.02 6-5 1.228-1.478 3.881-5.521 4-6 1.938-7.79-2.976-16.076-5-22-3.488-10.21-3.929-15.453-8-28-.299-.923-1.839-2.423-2-3-.632-2.266-1.79-9.316-3-10-3.723-2.101-11.224.694-15 1-17.463 1.413-27.955 2.03-45 3-3.903.222-10.454 1.303-18 1-6.634-.266-21.372-3.533-25-1-3.896 2.72-2.059 29.438-2 37 .086 11.002-2.777 25.555-1 36 .688 4.04 6.174 9.985 1 13-1.467.854-3.077-.779-5 1-1.273 1.178-2.123 4.855-4 8-.594.995-2.393 1.933-3 3-.904 1.589-1.177 2.755-2 4-5.859 8.859-7.733 15.553-21 12-3.043-.814-2.542-3.022-5-4-1.255-.499-6.171 1.634-9-1-2.278-2.121-.23-2.843-5 1-1.943 1.565-2.99 2.804-4 2-4.742-3.775-.137-2.414 1-6 1.168-3.687 1.277-7.57 4-8 1.177-.186 1.883 1.018 2 1 4.527-.668 11.75-4.123 15-8 2.748-3.277 2.321-3.715 4-10 .541-2.024 1.92-4.44 2-6 .139-2.723-1.184-5.413-2-10-.551-3.101-.067-7.11-1-10-1.278-3.96-5.34-7.293-7-12-1.752-4.97-.914-9.961-2-14-.803-2.987-2.758-6.099-4-9-1.541-3.601-2.613-7.412-4-9-2.052-2.349-5.275-3.607-9-6 .317.203-8.103-6.071-9-6-2.889.23-6.724 6.883-9 11-1.921 3.475-3.179 3.539-6 7-2.201 2.7-4.811 7.272-8 10-.988.846-2.877 1.277-4 2-.381.245-.669 1.851-1 2-.434.195-1.664-.313-2 0-2.538 2.361-3.295 5.807-5 7-.899.629-3.033 1.128-5 2-3.939 1.746-10.556 3.446-15 6-4.298 2.471-7.292 6.546-10 8-2.136 1.146-4.983 1.064-7 2-4.359 2.021-7.674 5.993-12 9-5.972 4.15-10.453 9.452-16 15-1.343 1.343-3.101 3.472-4 4-2.297 1.35-6.024.837-9 2-3.309 1.293-6.022 4.621-9 6-.639.296-9.01.392-10 2-.115.188.109 2.994 0 3-1.556.078-3.742-4.176-4-4-1.291.877-.498 1.829-2 5-.092.193-1.568 4.688-3 3 1.117 1.316-1.129-7.88 0-12 .188-.688 1.667-1.464 2-2 1.46-2.35 2.979-4.804 6-7 .929-.675 2.145-.346 3-1 1.82-1.392 4.21-3.871 7-6 3.889-2.967 5.424-4.299 9-9 1.249-1.642 2.767-3.248 4-5 2.382-3.385 4.19-7.551 7-11 5.302-6.511 13.04-11.542 19-18 1.586-1.718 2.299-4.064 4-6 3.674-4.18 8.761-8.844 13-14 2.375-2.888 5.334-6.336 8-10 3.056-4.2 6.733-9.233 7-11 .28-1.855-1.558-4.232-2-8-.689-5.873 1.07-10.81 1-11-1.273-3.448-9.266-5.602-13-8-1.601-1.028-2.254-2.753-4-4-2.891-2.064-6.242-3.648-10-6-3.534-2.211-4.067-1.742-10-4-5.109-1.945-4.838-1.698-12-1-1.22.119-2.952.999-3 1-.837.021-1.57-1.352-3-1-4.53 1.114-7.91 5.185-12 6-4.894.976-9.235-1.574-12 1-1.617 1.506-.501 1.046-4 2 .604-.165-2.214 1.459-2 1 .084-.18 2.806 3.611 2 4-1.63.787-3.142-3.025-3-3-2.736-.483-3.809 3.249-7 4-3.305.777-4.007-.748-3 4 .352 1.656 1.958 4.327 1 5-1.155.812-2.641-8.094-5-7-1.663.771 2.138 3.753-2 4-.205.012.724-4.545-1-4-1.626.514-.057 3.554-1 4-1.195.564-1.717-6.505-2 0-.009.204-.05 2.992 0 3-3.571-.571-1.273-5.029-3-8-.269-.462-1.64 2.415-1 3-1.056-.966-.594-3.288-2-5-.841-1.025-3.347-.866-5-2-1.69-1.159-1.839-2.305-3-3-1.857-1.112-5.648-2.731-8-4v-3c1.749-3.005 4.916-7.975 8-12 1.967-2.567 5.023-5.108 7-8 1.238-1.811 3.82-6.232 5-9 1.038-2.435.69-4.899 2-7 .424-.68 2.909-2.695 4-4 5.552-6.642 11.647-10.508 19-18 .6-.611 2.613-.206 3-1 1.465-3.009.172-5.321 4-6 2.971-.527 2.955 2.902 6 4 2.613.942 7.635 1.02 9 1 3.624-.052 6.906-2.077 11-3 14.448-3.257 38.748-4.095 58-3 6.952.396 12.897 1.328 22 2 1.467.108 4.684 1.112 6 1 3.026-.258 6.101-2.395 9-3 9.015-1.884 20.444-2.635 31-3 6.118-.212 11.782 1.116 18 1 9.681-.181 19.703-2.68 29-4 15.389-2.185 28.934-3.882 46-5z"/><path d="M357 0h194c6.941 0 25.615-1.385 27 0 1.102 1.102 0 13.616 0 16v213c0 2.608.239 14.761 0 15-1.082 1.082-32.543 0-37 0H18c-7.258 0-17.803.197-18 0-1.912-1.912 0-36.173 0-41V80c2.352 1.269 6.143 2.888 8 4 1.161.695 1.31 1.841 3 3 1.653 1.134 4.159.975 5 2 1.406 1.712.944 4.034 2 5-.64-.585.731-3.462 1-3 1.727 2.971-.571 7.429 3 8-.05-.008-.009-2.796 0-3 .283-6.505.805.564 2 0 .943-.446-.626-3.486 1-4 1.724-.545.795 4.012 1 4 4.138-.247.337-3.229 2-4 2.359-1.094 3.845 7.812 5 7 .958-.673-.648-3.344-1-5-1.007-4.748-.305-3.223 3-4 3.191-.751 4.264-4.483 7-4-.142-.025 1.37 3.787 3 3 .806-.389-1.916-4.18-2-4-.214.459 2.604-1.165 2-1 3.499-.954 2.383-.494 4-2 2.765-2.574 7.106-.024 12-1 4.09-.815 7.47-4.886 12-6 1.43-.352 2.163 1.021 3 1 .048-.001 1.78-.881 3-1 7.162-.698 6.891-.945 12 1 5.933 2.258 6.466 1.789 10 4 3.758 2.352 7.109 3.936 10 6 1.746 1.247 2.399 2.972 4 4 3.734 2.398 11.727 4.552 13 8 .07.19-1.689 5.127-1 11 .442 3.768 2.28 6.145 2 8-.267 1.767-3.944 6.8-7 11-2.666 3.664-5.625 7.112-8 10-4.239 5.156-9.326 9.82-13 14-1.701 1.936-2.414 4.282-4 6-5.96 6.458-13.698 11.489-19 18-2.81 3.449-4.618 7.615-7 11-1.233 1.752-2.751 3.358-4 5-3.576 4.701-5.111 6.033-9 9-2.79 2.129-5.18 4.608-7 6-.855.654-2.071.325-3 1-3.021 2.196-4.54 4.65-6 7-.333.536-1.812 1.313-2 2-1.129 4.12 1.117 13.316 0 12 1.432 1.688 2.908-2.807 3-3 1.502-3.171.709-4.123 2-5 .258-.176 2.444 4.078 4 4 .109-.006-.115-2.813 0-3 .99-1.608 9.361-1.704 10-2 2.978-1.379 5.691-4.707 9-6 2.976-1.163 6.703-.65 9-2 .899-.528 2.657-2.657 4-4 5.547-5.548 10.028-10.85 16-15 4.326-3.007 7.641-6.979 12-9 2.017-.936 4.864-.854 7-2 2.708-1.454 5.702-5.529 10-8 4.444-2.554 11.061-4.254 15-6 1.967-.872 4.101-1.371 5-2 1.705-1.193 2.462-4.639 5-7 .336-.313 1.566.195 2 0 .331-.149.619-1.755 1-2 1.123-.723 3.012-1.154 4-2 3.189-2.728 5.799-7.3 8-10 2.821-3.461 4.079-3.525 6-7 2.276-4.117 6.111-10.77 9-11 .897-.071 9.317 6.203 9 6 3.725 2.393 6.948 3.651 9 6 1.387 1.588 2.459 5.399 4 9 1.242 2.901 3.197 6.013 4 9 1.086 4.039.248 9.03 2 14 1.66 4.707 5.722 8.04 7 12 .933 2.89.449 6.899 1 10 .816 4.587 2.139 7.277 2 10-.08 1.56-1.459 3.976-2 6-1.679 6.285-1.252 6.723-4 10-3.25 3.877-10.473 7.332-15 8-.117.018-.823-1.186-2-1-2.723.43-2.832 4.313-4 8-1.137 3.586-5.742 2.225-1 6 1.01.804 2.057-.435 4-2 4.77-3.843 2.722-3.121 5-1 2.829 2.634 7.745.501 9 1 2.458.978 1.957 3.186 5 4 13.267 3.553 15.141-3.141 21-12 .823-1.245 1.096-2.411 2-4 .607-1.067 2.406-2.005 3-3 1.877-3.145 2.727-6.822 4-8 1.923-1.779 3.533-.146 5-1 5.174-3.015-.313-8.96-1-13-1.777-10.445 1.086-24.998 1-36-.059-7.562-1.896-34.28 2-37 3.628-2.533 18.366.734 25 1 7.546.303 14.097-.778 18-1 17.045-.97 27.537-1.587 45-3 3.776-.306 11.277-3.101 15-1 1.21.684 2.368 7.734 3 10 .161.577 1.701 2.077 2 3 4.071 12.547 4.512 17.79 8 28 2.024 5.924 6.938 14.21 5 22-.119.479-2.772 4.522-4 6-1.646 1.98-4.154 3.576-6 5-3.612 2.787-8.378 5.966-12 7-4.049 1.156-8.973-.027-13 1-5.07 1.293-12.063 6.164-13 9-.593 1.794 1.012 3.075 1 4-.037 3.025-1.126 2.874 1 5-.003-.003 1.162 2.094 1 2 3.193 1.854 6.896-2.021 9 0 2.476 2.378-1.834 7.443 2 5 1.68-1.071 5.176-2.316 7-2 4.513.783.914 2.991 5 3 .771.002 2.822-1.637 5-2 4.742-.79 6.773.026 9-1 4.474-2.062 5.927-4.639 11-8 .875-.58 2.249-.565 3-1 5.469-3.166 11.267-7.415 16-11 1.406-1.065 2.464-2.75 4-4 3.463-2.816 3.789-2.314 5-5 .139-.309 1.751-.654 2-1 1.2-1.67 2.85-5.582 3-7 1.265-11.919.979-19.256 4-29 2.467-7.958 6.825-15.71 8-16 1.152-.285 3.23 1.507 4 2 4.916 3.151 6.646 4.937 10 7 .965.594 1.229 1.477 2 2 1.449.984 3.885 1.289 5 2 .433.275.546 1.659 1 2 .725.544 2.35.634 3 1 6.606 3.726 11.534 5.649 18 9 6.251 3.239 12.003 7.274 17 11 4.423 3.297 6.762 5.254 8 8 .149.331 1.755.619 2 1 .564.877 1.703 3.306 2 4 .494 1.156 1.867 5.93 2 8 .131 2.04-1.992 14.887-3 16-1.376 1.52-6.182.745-9 2-2.795 1.244-7.439 4.359-9 7-1.019 1.724-2.268 6.988-2 8 .102.385 2.62 1.483 3 2-.292-.397 1.678 3.28 1 3 3.026 1.254 3.526-1.899 4-2 1.981-.421 5.008 1.084 6 1 4.531-.385 9.673-.683 13-1 5.335-.51 14.214-9.132 16-15 3.229-10.61 2.422-26.57 3-39 .236-5.086 1.835-14.311 1-17-.748-2.41-5.033-4.974-8-8-6.24-6.367-10.214-11.115-15-17-10.87-13.365-18.374-25.459-22-42-.896-4.088-.675-8.39-2-14 .053.225-1.615-2.894-2-4-2.528-7.262.677-3.324 3-1 5.645 5.645 6.115 5.89 12 12 4.525 4.698 8.796 8.082 12 12 1.61 1.97 1.878 4.792 3 6 .479.515 2.464.583 3 1 1.995 1.554 3.462 3.718 5 5 4.687 3.905 9.48 9.031 13 12 1.309 1.104 3.527 2.547 4 3 2.774 2.657 6.416 4.835 9 6 .324.146.63 1.753 1 2 .46.307 1.489-.23 2 0 .322.146.633 1.753 1 2 1.188.8 2.861.182 4 1 .313.225-.234 1.668 0 2-.125-.177 2.237 1.137 2 1 3.534 2.04 9.181 4.382 16 7 4.78 1.835 15.854 5.924 18 3 2.851-3.884-3.194-6.275-3-6-4.113-5.836-11.9-13.9-14-16-6.562-6.562-13.658-14.014-19-20-6.681-7.485-14.889-15.523-20-23-.043-.063-.869-.863-1-1-3.972-4.146-7.763-8.116-11-12-2.58-3.096-4.518-6.1-7-8-3.47-2.656-6.174-5.392-9-8-6.864-6.334-16.36-18.556-24-22-.316-.143-.642-1.752-1-2-2.826-1.958-5.509-3.083-8-4-1.377-.507-3.509-.277-5-1-3.092-1.499-5.12-4.553-8-6-1.24-.623-3.53-1.51-5-2-5.963-1.988-9.61-2.942-14-5-2.611-1.225-5.276-2.889-8-4-5.757-2.349-11.861-3.914-18-6-13.993-4.756-30.126-9.781-45-12z" fill="#fff"/></g></svg>