<svg xmlns="http://www.w3.org/2000/svg" xmlns:dc="http://dublincore.org/documents/dcmi-terms/" height="428.654" viewBox="0 0 619.85323 401.8629" width="661.177"><metadata><dc:description>Silhouette of Elephantini, processed by PhyloPic Tools (https://github.com/eweitz/phylopic-tools)</dc:description><dc:source>http://phylopic.org/image/43d2a4af-991c-4236-8455-f62271ab73e7</dc:source><dc:creator>Zimices</dc:creator><dc:license>http://creativecommons.org/licenses/by-nc/3.0/</dc:license></metadata><path d="M329.228 400.334c-1.375-.806-5.594-1.492-9.375-1.525-5.874-.05-7.052-.463-8.094-2.836-.67-1.528-2.8-3.433-4.735-4.234-4.158-1.723-6.224-5.04-5.114-8.21.439-1.254 3.039-4.623 5.778-7.487l4.98-5.208-.568-22.292c-.597-23.413-1.01-25.373-9.294-44.114-1.502-3.398-3.938-19.02-4.2-26.928-.022-.688-.536-2.032-1.141-2.988-.87-1.372-2.54-.584-7.954 3.75a1338.32 1338.32 0 0 1-13.299 10.488c-3.544 2.75-12.272 10.733-19.395 17.739-12.368 12.166-12.974 13.01-13.487 18.75-.45 5.045.173 7.388 3.88 14.584 3.323 6.45 4.542 10.54 4.923 16.516.548 8.614 1.08 7.694-10.405 17.996-1.543 1.384-5.577 2.573-10.54 3.104-4.967.532-9.21 1.783-11.105 3.274-4.179 3.287-8.528 3.028-11.995-.713-1.903-2.053-4.24-3.125-6.816-3.125-4.17 0-8.919-3.675-8.919-6.902 0-1.046 1.547-4.236 3.438-7.089 3.393-5.12 3.445-5.507 4.062-29.928l.625-24.74 5.875-5.983c5.797-5.904 11.551-15.172 21.564-34.733 2.816-5.5 6.12-11.492 7.341-13.315 2.295-3.423 8.958-20.848 10.922-28.56 1.437-5.643 1.487-13.75.085-13.75-.6 0-1.48-4.487-1.959-9.972-.551-6.324-1.384-9.868-2.274-9.688-.773.157-1.594-.84-1.824-2.215-.755-4.517-3.27-12.477-4.322-13.688-.568-.653-1.033-2.128-1.033-3.278 0-2.769-4.68-13.257-7.26-16.27-1.125-1.314-2.764-2.389-3.643-2.389-.878 0-1.597-.53-1.597-1.178 0-.648-1.08-.97-2.4-.716-1.743.335-2.98-.758-4.512-3.987-1.31-2.759-2.45-3.9-3.004-3.004-.62 1.003-1.593.67-3.182-1.085-1.26-1.392-3.687-2.53-5.395-2.53-1.708 0-3.907-.984-4.885-2.188-1.301-1.6-1.954-1.765-2.432-.617-.36.864-1.168 1.253-1.797.864-.628-.389-1.143.17-1.143 1.242s-.844 1.949-1.875 1.949c-1.031 0-1.875-.567-1.875-1.26 0-.745-1.038-.618-2.538.312-2.099 1.3-2.745 1.248-3.73-.302-.92-1.445-1.198-1.486-1.213-.179-.01.933-.79 1.4-1.733 1.039-.97-.372-2.888.929-4.413 2.99-3.568 4.828-6.766 4.606-10.853-.752-3.06-4.013-3.3-5.118-2.708-12.5.358-4.454.153-8.098-.456-8.098-.608 0-1.106.51-1.106 1.133s-2.721 3.956-6.048 7.407c-3.326 3.452-7.752 9.842-9.834 14.202-2.083 4.36-4.705 8.69-5.827 9.62-1.427 1.185-2.04 3.726-2.04 8.454 0 4.397-1.093 9.354-3.126 14.184-1.719 4.084-3.125 9.321-3.125 11.639 0 2.317-.863 6.975-1.917 10.35-1.055 3.375-2.446 10.952-3.09 16.838-.646 5.886-2.063 12.832-3.15 15.434-1.65 3.947-1.943 10.046-1.767 36.798.282 42.91 2.36 52.16 13.574 60.407 4.13 3.037 5.1 4.514 5.1 7.767 0 2.21-.703 4.746-1.562 5.636-1.258 1.304-1.014 1.991 1.25 3.528 3.09 2.097 3.64 5.276 1.312 7.603-.85.851-4.926 1.5-9.42 1.5-6.623 0-8.337-.46-10.472-2.813-4.06-4.473-11.207-15.838-12.66-20.13-.731-2.163-2.51-5.612-3.951-7.666-3.69-5.257-6.997-12.914-6.997-16.204 0-1.534-.844-5.551-1.876-8.926s-3.001-13.39-4.375-22.256c-2.113-13.633-2.499-22.337-2.499-56.426v-40.307l-10.563-1.96c-13.203-2.448-28.635-7.57-33.702-11.184-2.123-1.514-6.574-4.012-9.89-5.551-7.606-3.53-20.585-15.862-28.503-27.086-6.284-8.905-7.172-11.66-4.592-14.241 2.465-2.464 3.836-1.822 11.653 5.458 7.012 6.528 19.339 15.542 21.257 15.542.473 0-2.11-2.672-5.743-5.937-7.751-6.97-13.667-14.75-13.667-17.977 0-1.39 1.21-2.592 3.08-3.061 2.481-.623 5.073.77 13.333 7.163 5.64 4.365 12.832 10.254 15.983 13.085 9.18 8.248 18.302 11.96 33.439 13.609 6.93.755 7.845.584 9.062-1.69.744-1.39 1.353-4.232 1.353-6.316 0-4.725 2.774-13.063 8.264-24.84 2.33-5 4.236-9.4 4.236-9.78 0-1.733 14.22-29.458 18.704-36.468 2.758-4.31 6.387-8.36 8.066-8.998 1.678-.638 3.975-3.106 5.103-5.484 1.14-2.402 4.9-6.318 8.461-8.81 3.525-2.468 11.343-9.27 17.373-15.117 6.03-5.846 11.505-10.629 12.167-10.629.661 0 1.382-.984 1.602-2.188.22-1.203 4.529-6.125 9.576-10.937L193.832 0l9.573.083c8.232.071 10.67.647 17.402 4.105 4.306 2.213 8.52 5.128 9.363 6.48 1.372 2.196 2.967 2.457 15.035 2.457 11.823 0 13.948.331 17.109 2.669 3.462 2.56 4.305 2.623 20.694 1.562 9.397-.608 17.323-.72 17.615-.247.292.472 2.629.853 5.193.847 2.564-.006 13.1 1.473 23.412 3.289a5327.498 5327.498 0 0 0 32.78 5.658c7.718 1.297 16.155 2.897 18.75 3.556 2.596.658 8.658 1.564 13.47 2.013 14.166 1.322 36.614 5.454 40.473 7.45 1.966 1.016 8.57 3.515 14.676 5.553 18.251 6.092 27.638 9.903 33.27 13.506 2.932 1.876 8.425 4.895 12.206 6.709 18.792 9.016 33.969 23.175 42.23 39.397 1.425 2.798 4.6 7.491 7.056 10.43 2.455 2.94 4.464 6.622 4.464 8.183 0 1.56 1.125 4.268 2.5 6.016 2.14 2.721 2.5 5.071 2.5 16.345 0 7.242.526 13.491 1.168 13.888.643.397 2.028 3.68 3.08 7.296 3.007 10.347 10.317 15.88 20.98 15.88 4.218 0 5.879.812 9.92 4.853 2.668 2.67 4.852 6.077 4.852 7.574 0 1.496.563 2.373 1.25 1.948.688-.425 1.25-.111 1.25.697 0 .894-1.066 1.19-2.723.757-1.9-.496-3.584.217-5.566 2.355-3.7 3.993-8.549 3.989-11.169-.01-1.108-1.692-2.95-3.335-4.091-3.651a779.828 779.828 0 0 1-4.68-1.317c-3.038-.866-3.233-.121-3.138 11.956.035 4.558.64 9.798 1.341 11.644.702 1.846 1.276 6.343 1.276 9.994 0 5.207 1.176 9.17 5.456 18.392 3 6.465 6.369 16.26 7.484 21.767 2.728 13.462 7.628 27.534 11.24 32.278 1.628 2.138 4.236 6.42 5.797 9.513 1.56 3.094 5.438 8.526 8.617 12.073 11.771 13.13 13.906 16.561 13.906 22.356 0 6.795-1.54 10.878-6.27 16.616-2.051 2.488-3.73 5.803-3.73 7.365 0 4.022-4.298 7.84-8.825 7.84-2.895 0-5.495 1.58-10.697 6.5-7.37 6.97-12.884 8.459-17.412 4.7-1.192-.989-3.812-1.88-5.822-1.982-2.01-.101-4.884-1.269-6.387-2.595-1.502-1.326-4.279-3.372-6.17-4.546-4.167-2.589-4.446-6.453-.937-13 1.375-2.566 2.504-5.517 2.508-6.559.004-1.041.867-3.541 1.918-5.556 3.652-7.004-1.443-22.965-12.634-39.579-2.504-3.717-5.564-8.727-6.8-11.133-1.237-2.406-5.116-7.642-8.62-11.635-3.505-3.993-6.372-7.756-6.372-8.362 0-.606-4.485-5.587-9.967-11.069-7.71-7.71-10.553-9.814-12.553-9.29-1.735.453-2.466.133-2.22-.973.2-.906-.479-1.831-1.51-2.056-4.094-.893-11.464 15.906-21.977 50.09-4.097 13.322-4.372 35.442-.518 41.763 3.674 6.026 3.442 16.542-.467 21.086-2.828 3.288-3.633 3.482-17.812 4.284-9.052.512-15.776.36-17.221-.39-1.304-.678-4.797-.958-7.762-.624-3.247.366-6.281-.014-7.63-.955-1.23-.86-3.849-1.562-5.817-1.56-6.48.006-8.063-7.974-2.576-12.99 10.372-9.483 14.429-16.144 16.668-27.37.748-3.753 2.214-9.918 3.257-13.699 2.552-9.257 6.003-39.577 5.044-44.32-.424-2.092-1.276-6.832-1.894-10.532-1.337-8.003-1.75-8.482-8.025-9.292-2.67-.344-5.334-1.381-5.918-2.304-.858-1.354-1.07-1.315-1.102.198-.032 1.56-.222 1.584-1.136.141-.691-1.091-2.358-1.492-4.501-1.083-2.321.444-4.153-.098-5.758-1.704-1.295-1.294-2.355-1.791-2.355-1.104 0 1.755-4.19 1.56-6.031-.281-1.208-1.208-2.087-1.184-4.167.115-2.188 1.366-2.818 1.36-3.7-.031-.859-1.355-1.07-1.317-1.102.197-.03 1.512-.244 1.55-1.1.2-1.275-2.012-8.892-2.777-8.919-.896-.01.726-.564.477-1.23-.554-.667-1.031-1.23-1.312-1.25-.625-.022.688-.563.422-1.203-.59-.994-1.572-1.285-1.522-2.001.345-.653 1.7-1.222 1.866-2.568.749-.95-.79-1.729-.977-1.729-.418 0 .56-.826-.075-1.835-1.41-1.426-1.885-1.844-2.002-1.875-.522-.03 1.463-1.563 1.899-6.602 1.879l-6.563-.026-.409 39.371c-.225 21.655-.027 46.284.441 54.731.825 14.903.98 15.549 5.232 21.729 4.088 5.943 4.348 6.897 3.879 14.258-.354 5.552-1.226 8.689-2.947 10.593-3.153 3.49-14.088 9.043-16.205 8.23-.897-.344-2.615.462-3.817 1.79-2.506 2.77-10.856 3.259-14.924.875z"/></svg>