<svg xmlns="http://www.w3.org/2000/svg" version="1.2" width="550" height="400" viewBox="0 0 550 400"><path d="M406.1 97.05h.051l.05.05v.05l-5.101 3.6c.967.367 2.017.767 3.15 1.2l3.15-2.35c0-.033.017-.033.05 0v.1l-3.101 2.25c1.367.533 2.834 1.083 4.4 1.65l8.3-4.45h.05c.034 0 .051.017.051.05v.05h-.05l-8.25 4.4.301.1c1.133.433 2.25.85 3.35 1.25l3.75-3.3h.05v.1l-3.7 3.25c1.034.4 2.034.767 3 1.1l6.95-2.75c0-.033.017-.033.05 0h.051v.05c-.034 0-.051.017-.051.05l-6.899 2.7c1.733.633 3.316 1.216 4.75 1.75l3.35-2.05h.05v.1l-3.3 2c1.334.5 2.55.933 3.65 1.3.033.034.066.05.1.05l7.5-2.6h.101c0 .033-.017.05-.051.05v.05l-7.399 2.55c1.1.4 2.366.95 3.8 1.65l4-1.8c.033 0 .05.017.05.05v.05l-.05.05-3.85 1.75c.633.3 1.333.633 2.1 1l4.25-1.6c0-.033.017-.033.05 0h.05v.05c-.033 0-.05.017-.05.05l-4.2 1.6a74.202 74.202 0 0 1 3.45 1.85l.4.2 3.25-1.25h.05l.05.05v.05h-.05l-3.2 1.2c1 .566 2 1.15 3 1.75l2.7-1.35h.05v.05c0 .034-.017.05-.05.05l-2.6 1.3c1 .6 2.017 1.217 3.05 1.85l5-1.15h.05l.05.05-.05.05-4.95 1.1 3 1.9 1.9-.55c0-.033.017-.033.05 0h.05l-.05.05v.05l-1.85.55c.966.633 1.933 1.284 2.899 1.95.8.533 1.566 1.067 2.3 1.6l2.051-.85h.1v.05c0 .034-.017.05-.05.05l-2 .85c8.866 6.333 13.3 11.083 13.3 14.25 0 .2-.017.417-.05.65.934 1.6 2.05 3.283 3.35 5.05 1.4 1.867 2.267 4.283 2.601 7.25.1.833.216 2.117.35 3.85.167 1.567.4 2.917.7 4.05.467 1.733 1.233 5.967 2.3 12.7.033-.033.05-.067.05-.1.3.067.55.05.75-.05.033 0 .05.217.05.65 0 .067.467.533 1.4 1.4.9.833 1.35 1.467 1.35 1.9l-.199.2c-.267-.267-.884-.9-1.851-1.9-.7-.8-1.2-1.367-1.5-1.7.033.267.084.55.15.85.3 2 .566 3.85.8 5.55.934.6 2.017 1.684 3.25 3.25 1.833 2.333 2.75 3.983 2.75 4.95 0 .433-.017.667-.05.7l-.101.1h-.3c-.5-1.867-1.2-3.45-2.1-4.75-.867-1.233-1.967-2.35-3.3-3.35.199 1.4.366 2.667.5 3.8.267.367.566.767.899 1.2 1.233 1.633 2 2.917 2.3 3.85l-.399.1c-.367-.733-1.25-2.083-2.65-4.05.066.933.134 1.767.2 2.5 2.967 4.533 5.333 9.583 7.1 15.15v2.2l-.25.2c-.366-2.667-1.35-5.784-2.949-9.351-.5-.433-1.2-1.4-2.101-2.9.533.767 1.15 1.517 1.851 2.25a62.25 62.25 0 0 0-3.601-6.75 13.2 13.2 0 0 1 .101 1.5c.066.167.149.35.25.55a6.246 6.246 0 0 1-.25-.45v.1c0 1.066-.034 2.267-.101 3.6l1.101 3.4c.166.3.35.633.55 1 2.3 4.067 3.816 7.05 4.55 8.95l-.2.2c-.533-1.066-1.899-3.634-4.1-7.7l.1.25-.149.3c-.301-.8-.617-1.6-.95-2.4a15.922 15.922 0 0 0-.4-.75l-.649-1.3a6.109 6.109 0 0 0-.101 1.1 55.817 55.817 0 0 1 1.7 3.5.581.581 0 0 0 .1.15c-.034-.033-.067-.05-.1-.05a52.138 52.138 0 0 1 1.8 4.25l-.45.15c-1.066-2.533-1.916-4.483-2.55-5.85 0-.033-.017-.05-.05-.05-.1 2.534.717 5.5 2.45 8.9 1.3 2.6 3.316 5.767 6.05 9.5-1.8-1.134-3.8-3.8-6-8-.934-1.767-1.65-3.366-2.15-4.8.034.733.051 1.566.051 2.5v.25c.233.399.449.816.649 1.25.566 1.133 1.05 2.133 1.45 3 .267.333.55.684.85 1.05l-.1.25c-.066-.1-.15-.2-.25-.3.134.267.267.517.4.75a121.899 121.899 0 0 0 3.35 5.149l-.15.2a63.181 63.181 0 0 1-1.899-2.6l-.2.149c-.267-.366-.55-.75-.85-1.149.433.666.899 1.399 1.399 2.2l-.1.199c-.867-1.199-2.267-3.267-4.2-6.199a.786.786 0 0 1-.2-.301l.101 2c1.899 2.233 3.8 4.767 5.699 7.601 0 .033.017.066.051.1 1.6 2.2 3.366 6.033 5.3 11.5a98.771 98.771 0 0 1 3.05 10.4c.833 3.5 1.25 6.166 1.25 8 0 2.166-.033 3.434-.1 3.8-.334 2.033-1.25 3.05-2.75 3.05-.101 0-.217-.017-.351-.05-.033 1.066-.1 1.95-.2 2.65l-.149.25c-.101.133-.367.199-.8.199-.434 0-.684-.033-.75-.1a.437.437 0 0 0-.051-.2l-.1.101c.467 1.366.85 2.583 1.15 3.649l-.25.25a117.926 117.926 0 0 0-1.4-3.35h-.05c.066.434.116.899.149 1.399.467 4.534.983 7.25 1.551 8.15-1.2-.767-1.983-3.767-2.351-9-.133.066-.267.15-.399.25l-.2-.2c.2-.133.399-.267.6-.399v-.601c-.1 0-.166-.017-.2-.05l-.1.4h-.3c0-.167.017-.334.05-.5a3.093 3.093 0 0 1-1-.601c-.2 1.733-.35 3.65-.45 5.75h-.3c-.066-1.399-.1-2.45-.1-3.149.1-1.134.199-2.2.3-3.2-.834-.967-1.566-2.517-2.2-4.65.134.767.267 1.584.4 2.45 0 .066.316 2 .949 5.8l-.199.65-.301.05c.233.733.483 1.517.75 2.35l-.454.104c-1.4-2.8-2.317-5.533-2.75-8.2-.101-.7-.184-1.55-.25-2.55l-.4-1.4c0-.033-.017-.066-.05-.1.1 1.066.166 2 .2 2.8 0 .2-.217.333-.65.4-.9-1.634-1.816-4.101-2.75-7.4l-.1.05a160.11 160.11 0 0 0-.5-1.85c-.5-1.101-.967-2.467-1.4-4.101-.667-2.3-1.134-4.35-1.4-6.149a81.836 81.836 0 0 1-1.1-5.351c-.533-.8-.967-1.583-1.3-2.35.066 1.5.267 3.033.6 4.6.3 1.4.55 2.617.75 3.65.7 2.4 1.267 4.566 1.7 6.5.066.1.116.2.15.3a9.476 9.476 0 0 1-.101-.1c.2.934.367 1.816.5 2.649l-.399.101c-.034-.167-.45-1.584-1.25-4.25-.967-1.533-1.967-3.884-3-7.05v.8c.233.633.5 1.316.8 2.05a23.3 23.3 0 0 1-.8-1.55c0 .733-.017 1.399-.051 2h-.35v-.7c-.066.167-.2.25-.4.25a49.922 49.922 0 0 0-.399-1.75c.133 1.9.267 3.5.399 4.8-.066.233-.199.351-.399.351-.3-1.667-.55-3.884-.75-6.65-.066-1.1-.117-2.033-.15-2.8a3.196 3.196 0 0 1-.3-.7c.1 1.267.217 2.366.35 3.3l-.45.1c-.167-1.267-.334-2.917-.5-4.95-.301-1.066-.45-3.351-.45-6.851 0-2.899.1-4.783.3-5.649.134-.733.333-1.351.6-1.851.034-1.033.101-1.8.2-2.3.134-.8.316-1.5.55-2.1a2.34 2.34 0 0 1-.05-.45c-.5 2.533-1.149 4.55-1.95 6.05a.388.388 0 0 0-.05.15c-.1.666-.217 1.616-.35 2.85 0 1.066.017 2.917.05 5.55.066 2.534.017 4.601-.15 6.2h-.149c-.566 2.2-1.15 4.351-1.75 6.45-1.4 5.066-2.467 10.417-3.2 16.05a30.96 30.96 0 0 0 0 3.5c.1 4.167.75 8.533 1.95 13.101a171.083 171.083 0 0 1 2.3 9.699c.366 1.667.65 3.284.85 4.851.233 1.8.367 3.533.4 5.2.066 1.267.434 2.75 1.1 4.449.534 1.367.834 3 .9 4.9.033 1.434.083 2.95.15 4.55.1 2.634.05 5.167-.15 7.601h-1.35a15.4 15.4 0 0 1-1.75 0c-6.801-.334-13.167-.034-19.101.899a94.949 94.949 0 0 1-4.8.601c-3.8.267-6.917-.233-9.35-1.5H424.449c0-.134-.033-.2-.101-.2a26.3 26.3 0 0 1-2.899-.851c.033.134.066.25.1.351a27.884 27.884 0 0 1 1.05 4.149c-.133 0-.199.017-.199.051-.101 1.399-.851 2.199-2.25 2.399.033.101.066.217.1.351h-8.65a84.374 84.374 0 0 0-7.149 0c-1.8.033-4.517.25-8.15.649-3.533.4-5.316.601-5.35.601-.134 0-.483-.25-1.05-.75-.567-.534-.917-.801-1.051-.801-.3.134-.649.284-1.05.45-.8.267-1.666.4-2.6.4-1.167-.134-2.017-.316-2.55-.55-.2-.067-.417-.434-.65-1.101l-.35-.899c-3.867 1.066-6.034.216-6.5-2.551-.467-2.8-.384-4.517.25-5.149l1.25-1.25c.433-.367 1.1-1.017 2-1.95.199-.2.649-.384 1.35-.55a9.32 9.32 0 0 1 1.05-.25c1.867-.7 2.8-2.217 2.8-4.55 0-.5.5-1.634 1.5-3.4.367-.9.767-1.816 1.2-2.75.9-2.7 1.351-5.55 1.351-8.55a37.939 37.939 0 0 0-.5-5.4 35.654 35.654 0 0 1-.5-7.05c.033-.866.083-1.717.149-2.55.066-.167.101-.351.101-.55a207.22 207.22 0 0 0 1.1-7.2c.233-1.566.384-3.2.45-4.9.1-3.6-.117-7.517-.65-11.75-.033-.133-.083-.217-.149-.25a9.177 9.177 0 0 1-2-2.35 1.447 1.447 0 0 1-.051-.351 483.458 483.458 0 0 0-1.1-3.75c-.134 0-.2-.033-.2-.1a7.987 7.987 0 0 1-.95-1.4.338.338 0 0 1-.25-.1c-2.3-1.833-4.6-3.684-6.899-5.55a.752.752 0 0 0-.2-.351 10.453 10.453 0 0 1-.75-1.199c-2.467-.467-4.4-.851-5.8-1.15a56.913 56.913 0 0 1-3.95-.85v1.55a4.27 4.27 0 0 0-.35.1c-1.101.334-2.2.634-3.301.9l.75 2.6-.05.05v.051l-.05-.051-.75-2.6c-1.134.267-2.283.5-3.45.7l.95 2.7-.05.05V234c-.033 0-.05-.017-.05-.05h-.051l-.899-2.7c-1.2.233-2.4.417-3.601.55l.851 2.5c0 .033-.017.05-.05.05v.051h-.051v-.051l-.85-2.5c-1.9.2-3.767.317-5.6.351l.649 2.55c0 .033-.017.05-.05.05h-.05l-.65-2.6h-.399c-1.101 0-2.184-.017-3.25-.05l2.25 3.449v.051h-.05l-2.3-3.5c-1.3 0-2.583-.017-3.85-.051l1.6 3.051v.05H343v.05l-.05-.05-1.601-3.101a52.372 52.372 0 0 0-2.25-.05l2.65 3.55v.051h-.05l-2.75-3.601a108.92 108.92 0 0 1-3.351-.149l1.95 2.399c.033 0 .05.017.05.05-.033 0-.05.017-.05.051h-.05l-2.05-2.5c-1.566-.067-3.101-.15-4.601-.25l2.9 3.5c.033 0 .05.017.05.05h-.05v.05l-.05-.05-3-3.55a84.61 84.61 0 0 1-1.2-.101l1.75 1.5v.05l-.05.051v-.051l-1.9-1.55c-3.033-.233-6.033-.5-9-.8l2.101 3.55c.033 0 .05.017.05.05-.033 0-.05.017-.05.051h-.098l-2.1-3.65c-1.967-.233-3.917-.467-5.851-.7a213.09 213.09 0 0 1-10.699-1.649l1.899 3.399c.033 0 .05.017.05.05h-.1l-2-3.449a223.39 223.39 0 0 1-11.1-2.351l1 2.351v.05c0 .033-.017.05-.051.05h-.05v-.05l-1.05-2.4a228.084 228.084 0 0 1-9.9-2.599c0 6.366.417 12.267 1.25 17.7.2 1.433.351 2.949.45 4.55.066.967.117 1.95.15 2.95.333 2.733.7 5.533 1.1 8.399.4 2.733.834 5.517 1.3 8.351 1.4 2.933 2.384 6.283 2.95 10.05.5 3.366 1.267 6.45 2.3 9.25.334.934.7 1.833 1.101 2.7 6.333 13.566 6.7 19.933 1.1 19.1-1.899.134-3.6.4-5.1.8-1.334.4-2.75.667-4.25.8v.15c-.601-.033-.917.134-.95.5-.467 0-.917.033-1.35.1l-.4.101c-.133.034-1.4.05-3.8.05-1.733.267-3.033.05-3.9-.65v-.154a35.202 35.202 0 0 1-10.75-.55c0-.101-.017-.15-.05-.15-1.667-.434-3.117-1.05-4.35-1.85h-.35c-1.7-.034-3.15-.351-4.35-.95-.3-.8-.4-1.783-.3-2.95.2-2.8.867-5.167 2-7.1.133 0 .217-.017.25-.051 1.567-2.033 3.717-3.5 6.45-4.399 0-.134.017-.2.05-.2 1.434-.733 2.55-1.733 3.35-3-.3-.767-.583-1.533-.85-2.3-.833-2.033-1.733-4-2.7-5.9-.5-.899-.967-1.816-1.4-2.75-1.5-2.967-3.466-6.05-5.9-9.25-1.2-3.166-2.35-6.416-3.45-9.75a325.938 325.938 0 0 1-1.3-4.3c-1.533-5.066-3.417-9.767-5.65-14.1a1.108 1.108 0 0 1-.15-.4c-.4.1-.75.233-1.05.4a21.48 21.48 0 0 0-5.15 4.5 101.585 101.585 0 0 0-2.35 5.85c-.933 2.5-1.85 5.05-2.75 7.65a1.988 1.988 0 0 0-.15.399 1462.54 1462.54 0 0 0-2.5 6.75c-.066.233-.15.467-.25.7-3.367 8.167-5.267 13.533-5.7 16.1a63.176 63.176 0 0 0-.55 4.101c-.367 3.633-.333 7.149.1 10.55V303c.567 1.2 1.133 2.384 1.7 3.55v.3c-.233.9-.45 1.784-.65 2.65-.133 0-.216.017-.25.05-.3.3-.55.601-.75.9h-.35c-.5.166-.95.383-1.35.649h-.3c-1.8 0-3.466.15-5 .45v-.2c-5 .467-8.05.95-9.15 1.45-.9.033-1.8 0-2.7-.1-5.934-.467-11.95-.9-18.05-1.3 0-.134-.017-.2-.05-.2a29.533 29.533 0 0 1-4.9-2.05c.033-.101.033-.167 0-.2-1.1-.566-1.684-1.566-1.75-3 0-.101.033-.2.1-.3.767-1.101 1.767-1.983 3-2.65.667-1.066 1.717-2.167 3.15-3.3a21.345 21.345 0 0 1 2.5-1.65 36.562 36.562 0 0 1 6.95-4.85c0-.101.033-.2.1-.3a40.02 40.02 0 0 0 2.2-3.601c.167-1.6.283-3.133.35-4.6.034-2.4-.083-4.65-.35-6.75-.1-.601-.167-1.2-.2-1.8 0-.601.05-1.2.15-1.801a125.663 125.663 0 0 1 2.55-12.399c.167-.634.183-1.233.05-1.8l-.4-.301 1.75-6.1.5.1 3.1-15.75c.233-1.6.466-3.149.7-4.649a440.367 440.367 0 0 0 2.5-16.8h-.35c.133-.801.284-1.667.45-2.601.7-3.767 1.05-6.45 1.05-8.05-.267-2.333-.533-4.684-.8-7.05-.2-1.6-.367-2.967-.5-4.1-.833-.6-1.633-1.184-2.4-1.75-1.8-1.4-3.267-2.833-4.4-4.3a15.512 15.512 0 0 1-2.55-4.65c-.1-.3-.2-.617-.3-.95-.267-.967-.467-2.133-.6-3.5a5.044 5.044 0 0 0-.95-2.3c-.1-.167-.566-.65-1.4-1.45-1.167-1.133-1.55-2.65-1.15-4.55-2.067-.367-3.767-1.6-5.1-3.7a30.41 30.41 0 0 0-.35-.6c-1.033-.133-1.85-.667-2.45-1.6-.467-.767-.7-1.533-.7-2.3v-.05a7.959 7.959 0 0 0-1.05-.8c-1.434-.9-3.3-1.7-5.6-2.4-.6-.167-1.917-.5-3.95-1-.8.633-1.6 1.183-2.4 1.65l.95 2.1v.05l-.05.05H175v-.05l-1-2.1a19.613 19.613 0 0 1-3.2 1.5l.1.4c0 .034-.017.05-.05.05v.05c-.033 0-.05-.017-.05-.05l-.1-.45c-.967.3-1.9.483-2.8.55a16.95 16.95 0 0 1-4.1-.2l-.9 3.95c-.033 0-.05.017-.05.05h-.05c-.033 0-.033-.017 0-.05l.9-3.95c-.434-.067-.867-.15-1.3-.25a23.917 23.917 0 0 1-3.9 1.45l-.25 2.65v.05h-.1v-.05l.25-2.65c-1.467.4-2.933.65-4.4.75-.267 0-.533.017-.8.05l-.4 1.35-.05.05h-.05c-.034-.033-.034-.05 0-.05l.4-1.35c-1.333.067-2.583.117-3.75.15l-.8 2.3V167l-.05.05-.05-.05v-.05l.75-2.3c-.467.033-.934.05-1.4.05h-.2l-1.15 2.85v.05h-.05l-.05-.05v-.05l1.1-2.75c-1.333.333-2.517.633-3.55.9l-.8 2.95h-.05v.05l-.05-.05.8-2.9a63.3 63.3 0 0 0-2.15.55l-.65 2.5h-.05v.05l-.05-.05c-.033 0-.033-.017 0-.05l.6-2.45c-.367.1-.683.183-.95.25l-.8 5.25c-.033 0-.05.017-.05.05h-.05c-.033-.033-.033-.05 0-.05l.75-5.2-1.2.3c-.434.1-.867.217-1.3.35l-1.1 3.5h-.05l-.05.05v-.05c-.034 0-.034-.017 0-.05l1.1-3.4c-.6.167-1.167.333-1.7.5l-1 5.6h-.1v-.05l1-5.55c-.567.167-1.083.317-1.55.45l-1.45 4-.05.05h-.05v-.05c-.033 0-.033-.017 0-.05l1.4-3.9c-1.4.467-2.517.883-3.35 1.25l-1.3 3.75-.05.05h-.05c-.033 0-.05-.017-.05-.05v-.05l1.35-3.65c-.1.034-.184.067-.25.1-.467.233-.95.467-1.45.7l-.35 1.7h-.05c0 .034-.017.05-.05.05-.034-.033-.034-.05 0-.05l.35-1.6c-.5.233-1.017.5-1.55.8l-2.1 5.25v.05h-.05l-.05-.05v-.05l2.05-5.1c-.767.4-1.567.85-2.4 1.35l-.8 6h-.1v-.05l.8-5.9c-.434.233-.85.483-1.25.75l-.7 2.3-.05.05h-.05v-.05c-.033 0-.033-.017 0-.05l.65-2.15c-.4.267-.8.517-1.2.75-.067.033-.683.417-1.85 1.15l-.9 3.45v.05h-.1v-.05l.9-3.35c-.633.4-1.417.9-2.35 1.5l-.95 3.3h-.05v.05l-.05-.05.9-3.2a290.238 290.238 0 0 0-4.2 2.7.768.768 0 0 0-.2.15l-1.45 4.9h-.1c-.033 0-.033-.017 0-.05l1.4-4.75c-5.833 3.733-10.633 6.367-14.4 7.9a34.64 34.64 0 0 1-2.35.85c-.833.267-1.733.583-2.7.95-4.367 1.533-10.367 3.967-18 7.3-8.433 3.8-12.683 5.7-12.75 5.7h-.3c-.767 1.5-1.633 3.167-2.6 5a1518.44 1518.44 0 0 1-5.1 9.5c-.367-.267-.667-.666-.9-1.199-.167-.467-.25-.884-.25-1.25 0-.967.167-2.434.5-4.4.1-.533.184-1.017.25-1.45-.833 1.667-1.967 3.8-3.4 6.4a.754.754 0 0 1-.3-.25l-.55.25h-.65c-.133-.033-.2-.267-.2-.7 0-.333.1-.7.3-1.1a1.884 1.884 0 0 1-.05-.45c0-2.134.817-4.95 2.45-8.45-.833.4-1.45.6-1.85.6a26.25 26.25 0 0 1-1.9.051l-1.15-.051-.1-.149c-.067-.134-.1-.4-.1-.8 0-.967 1.867-2.584 5.6-4.851-.033 0-.067.017-.1.05-1.833.6-3 .966-3.5 1.1l-2.95.2c-.7-.167-1.3-.617-1.8-1.351-.467-.633-.7-1.2-.7-1.7 0-.8.233-1.35.7-1.65.333-.233 1.083-.467 2.25-.7a.757.757 0 0 1-.2-.4c-.567-.7-.85-1.233-.85-1.6 0-.467.017-.783.05-.95l.05-.1a134.45 134.45 0 0 1 2.8-.3c1.433-.133 2.5-.217 3.2-.25.233-.033.45-.05.65-.05.6-.233 1.233-.483 1.9-.75 2.667-1 4.833-1.767 6.5-2.3.1-.133.183-.25.25-.35.733-1.3 2.217-3.45 4.45-6.45 3.2-4.333 5.167-6.8 5.9-7.4.1-.067.183-.184.25-.35-2.934.667-5.633 1.567-8.1 2.7-3.8 1.767-8.433 2.667-13.9 2.7-5.434.067-9.6.1-12.5.1-.033.067-.083.1-.15.1-1.267.433-2.567 1.133-3.9 2.1-.066.033-.1.066-.1.1.466 1.4.433 2.767-.1 4.1.066-.033.117-.033.15 0 .733.367.85.767.35 1.2-.2.2-.417.333-.65.4-1.5.6-2.983.433-4.45-.5-.267-.133-.5-.3-.7-.5-1.667-1.367-2.667-2.8-3-4.3.067-.034.1-.067.1-.1.033-.733.05-1.467.05-2.2a.563.563 0 0 1 .1-.15c.3-.533.5-1.067.6-1.6l.15-.15c1.2-1.133 2.4-2.25 3.6-3.35.733-.333 1.533-.816 2.4-1.45A25.105 25.105 0 0 1 36 170.7a295.33 295.33 0 0 0 9-4.75 88.988 88.988 0 0 1 4.4-2.15 32.372 32.372 0 0 0 4.05-2.2c1.267-.8 2.566-1.5 3.9-2.1 3-2.2 6.017-4.267 9.05-6.2a24.166 24.166 0 0 0 3.05-2.35c.1-.1.233-.267.4-.5a.562.562 0 0 0 .05-.25c.467-.1.934-.217 1.4-.35l.1.05c.733-.9 1.45-1.417 2.15-1.55a.388.388 0 0 0 .15-.05c.066-.533.45-1.066 1.15-1.6l.15-.15c.5-.1 1-.316 1.5-.65.033 0 .067-.033.1-.1.167-.733.733-1.5 1.7-2.3a243.42 243.42 0 0 1 7.35-5.85c.1-.333.25-.683.45-1.05a.393.393 0 0 0-.05-.15c.767-.667 1.517-1.2 2.25-1.6.9-.5 1.583-1.117 2.05-1.85.433-.033.883-.15 1.35-.35.033 0 .066.017.1.05.633-.467 1.067-.95 1.3-1.45l.15-.15c.433-.067.883-.133 1.35-.2.033 0 .083-.033.15-.1.233-.333.467-.683.7-1.05l-.05-.1c.233 0 .5-.117.8-.35l.1.05c.5-.7 1.067-1.1 1.7-1.2.033 0 .067.017.1.05.433-.2.75-.517.95-.95.133-.267.3-.483.5-.65.333-.2.667-.25 1-.15l.15.15c3-2 5.983-4.017 8.95-6.05l9.05-6.2c.2-.1.367-.233.5-.4.667-.3 1.333-.567 2-.8a68.17 68.17 0 0 0 4.8-4.1l-1.1-.7v-.05c-.033-.033-.033-.05 0-.05h.05c0-.033.017-.033.05 0l1.05.75a57.247 57.247 0 0 0 3.1-3.25c.2-.233.417-.467.65-.7l-1.95-1.55v-.05c0-.034.017-.05.05-.05l1.95 1.55c.4-.467.833-.983 1.3-1.55l-2.45-2.05v-.1h.05l2.45 2.1c.633-.767 1.316-1.583 2.05-2.45l-3.3-2.55v-.05c-.034-.033-.034-.05 0-.05h.05c0-.033.017-.05.05-.05l3.25 2.6c.167-.2.35-.417.55-.65l-3.05-1.45v-.05c-.033 0-.033-.017 0-.05h.05l3.05 1.45c.4-.5.817-1.017 1.25-1.55l-1.8-.8c-.033 0-.05-.017-.05-.05v-.05h.05c0-.033.017-.033.05 0l1.8.8c.167-.2.35-.417.55-.65l-1.55-.5-.05-.05v-.05h.05l1.6.5c.067-.133.15-.25.25-.35l-3.15-2.95c-.033 0-.033-.017 0-.05-.033 0-.033-.017 0-.05h.05c0-.033.017-.033.05 0l3.15 3c.1-.133.184-.25.25-.35.2-.267.417-.517.65-.75l-2.45-1.1c-.033 0-.033-.017 0-.05 0-.033.017-.033.05 0l2.45 1.1c.2-.233.4-.45.6-.65L135 92.1V92h.05l.05.05 2.7 3.3c.067-.133.15-.25.25-.35l-1.35-1.3c-.034-.034-.034-.05 0-.05v-.05h.05l1.4 1.35c.633-.7 1.283-1.367 1.95-2l-3-2.25v-.05c0-.033.017-.05.05-.05h.05l3 2.3a6.15 6.15 0 0 1 .5-.45l-1.9-3.55v-.1h.05v.05l1.95 3.5a21.56 21.56 0 0 1 1.65-1.4l-1.15-2.2v-.05c0-.034.017-.05.05-.05h.05l1.15 2.25c.333-.3.684-.566 1.05-.8l-3.55-4.2v-.1h.1l3.5 4.2c.434-.3.867-.583 1.3-.85l-.7-1.45v-.05h.05v-.05c.034 0 .05.017.05.05l.7 1.4a1.72 1.72 0 0 1 .25-.2c.167-.1.35-.2.55-.3l-3.3-4.1v-.05l.05-.05h.05v.05l3.3 4.1c.267-.2.55-.383.85-.55l-2.1-2.8c-.034 0-.034-.017 0-.05v-.05h.05v.05l2.1 2.85c.167-.1.316-.2.45-.3l-.95-.9v-.05c0-.034.017-.05.05-.05h.05l.95.95a34.295 34.295 0 0 1 3.5-1.75l-1.15-3.15c-.033 0-.033-.017 0-.05 0-.033.017-.033.05 0h.05L151 85.8c.2-.1.4-.183.6-.25l-.6-1.25c-.033 0-.033-.017 0-.05s.05-.033.05 0h.05l.6 1.25 1.7-.7-.05-.9-.65-1.4v-.05h.1l.5 1.1-.2-1.9v-.05c0-.033.017-.05.05-.05h.05v.05l.25 2.2.35.85c.633-.233 1.284-.467 1.95-.7l-.1-3.35.05-.05c0 .034.017.05.05.05l.1 3.35c.433-.167.883-.317 1.35-.45l.2-3.4.05.8-.15 2.55c.1-.034.217-.067.35-.1l-.2-2.45.05-.8.25 3.25.6-.2.2-2.7c0-.034.017-.067.05-.1.033 0 .05.017.05.05h.05l-.25 2.75c.566-.2 1.15-.367 1.75-.5a.445.445 0 0 1 .2-.05l.3-4v-.05c.033 0 .05.017.05.05h.05l-.3 4 .6-.2.4-2.6.05-.05h.05v.05h.05l-.45 2.55 2-.4.45-2.25v-.05c0-.033.017-.033.05 0 .033 0 .05.017.05.05l-.4 2.2c.267-.066.533-.117.8-.15l1.15-5.95c0-.033.017-.05.05-.05h.05v.05l-1.15 5.9c.3-.034.6-.083.9-.15l.6-3.25v-.1h.05v.05c.034 0 .05.017.05.05l-.6 3.25 2.1-.4 1.75-6.9c0-.033.017-.033.05 0h.05v.05l-1.75 6.85h.15l1.9-5.25h.05c0-.033.017-.033.05 0v.05l-1.85 5.15c.433-.067.883-.133 1.35-.2l.4-1.2h.05c0-.034.017-.034.05 0v.05l-.35 1.15c.2-.033.417-.066.65-.1l2.55-7.6c0-.034.017-.05.05-.05h.05v.05L170 80.75c.5-.033 1-.083 1.5-.15l1.4-3.25c.033-.033.05-.033.05 0h.05v.05l-1.4 3.2c.2-.033.417-.067.65-.1l4-6.3h.05c0-.034.017-.034.05 0v.05l-4 6.25c.9-.1 1.8-.167 2.7-.2.4-.066.817-.1 1.25-.1l3.3-3.7h.15c0 .033-.017.05-.05.05l-3.25 3.65c.767-.067 1.55-.117 2.35-.15l3.35-3.3h.1v.1l-3.3 3.2c1.6-.066 3.233-.1 4.9-.1l2.95-2.65h.1l-2.9 2.65c4.567.033 9.367.3 14.4.8.5.067.983.117 1.45.15 4.167.7 8.2 1.567 12.1 2.6l.95-1.55v-.05h.05c0 .033.017.05.05.05l-.05.05-.9 1.5c1.434.4 2.85.8 4.25 1.2l1.9.6 1.4-2.1.05-.05h.05v.1l-1.4 2.05a82.144 82.144 0 0 1 5.1 1.75c.2 0 .434.017.7.05l1.85-2.2c0-.033.017-.05.05-.05 0 .033.017.05.05.05l-.05.05-1.8 2.2c1.566.133 3.033.317 4.4.55l.7-1.15h.05c0-.033.017-.033.05 0v.05l-.7 1.1c1.267.2 2.45.433 3.55.7l.85-1.4c0-.033.017-.05.05-.05h.05v.1l-.85 1.35c0 .033.017.05.05.05.333-.167 2.1-.167 5.3 0l.45-1.05c.033-.033.05-.033.05 0h.05v.05l-.4 1c3.167.1 6.467-.4 9.9-1.5 3.467-1.133 7.55-1.517 12.25-1.15 4.667.4 8.8 1.467 12.4 3.2h5.05l.7-1.2h.05l.05.05-.05.05-.65 1.1h6.101l.8-1.6c.033-.033.05-.033.05 0h.05v.05l-.8 1.55h2.3c1-.067 2.101-.15 3.3-.25l1-2.2c.034-.033.051-.033.051 0h.05v.05l-.95 2.1c1.267-.133 2.667-.267 4.2-.4l.85-1.3.05-.05h.051v.1l-.851 1.2c1.101-.1 2.25-.217 3.45-.35l.7-1.35c0-.033.017-.033.05 0h.05c0 .034-.017.05-.05.05l-.6 1.25c.1 0 .216-.017.35-.05 5.233-.5 11.467-.9 18.7-1.2h13.1l.75-1.3h.05c.034-.033.051-.033.051 0h.05c0 .034-.017.05-.05.05l-.7 1.25h1.899c.334.033 3.784.5 10.351 1.4 2.5.367 4.934.733 7.3 1.1l.85-1.3h.101v.1l-.851 1.2c3.467.566 6.784 1.133 9.95 1.7l.9-1.7.05-.05h.05v.1l-.903 1.65c1.166.233 2.316.45 3.449.65 1.567.3 3.067.6 4.5.9l1.301-1.6h.05l.05.05-.05.05-1.25 1.55c1.934.4 3.767.8 5.5 1.2l2.399-2.45h.101v.1l-2.351 2.4c2 .467 3.851.934 5.551 1.4l3.899-3.9h.05l.051.05c0 .033-.017.05-.051.05l-3.8 3.85c1.167.333 2.267.667 3.3 1l4.65-4.1h.05v.05h.05l-.05.05-4.6 4c.566.2 1.116.383 1.649.55.434.067.884.133 1.351.2.533.066 1.033.15 1.5.25l.05-.05c0-.033.017-.033.05 0 .033 0 .05.017.05.05 1.101.167 2.101.316 3 .45l3.2-2.6h.05l.051.05v.05l-3.15 2.5c2.733.434 4.467.75 5.2.95l1.649-1.45h.051l.05.05v.05l-1.601 1.4c.034 0 .067.017.101.05.8.3 1.666.617 2.6.95l2.601-2.05c0-.033.017-.033.05 0 .033 0 .05.017.05.05h-.05l-2.55 2.05c.866.333 1.816.7 2.85 1.1l5.099-3.65zm55.15 64.2c1.366 5.067 2.35 15.683 2.95 31.85.033 1.367.083 2.767.149 4.2.101-.5.2-.933.301-1.3.433-1.533.883-2.867 1.35-4 .1-.6.217-1.1.35-1.5.2-.667.467-1.267.801-1.8-.067-1.633-.551-5.75-1.45-12.35-1-7.367-1.783-12.033-2.351-14v-.1c-.666-.167-1.367-.5-2.1-1zm4.25 34.7c.1-1.267.217-2.35.35-3.25-.6 1.566-1.1 3.2-1.5 4.9 0 1.1.034 2.217.101 3.35.366-1.534.684-2.717.95-3.55.033-.467.066-.95.099-1.45zm8.1 1a1.121 1.121 0 0 0-.149-.35v.1c.066.067.115.15.149.25zm-.2.15c-.101.833-.2 1.717-.301 2.65.101.067.184.15.25.25a9.656 9.656 0 0 1-.1-1.35c0-.3.05-.5.15-.6 0-.033.166-.15.5-.35l-.499-.6zm1.45 12.35c.2.366.634 1.066 1.301 2.1a53.005 53.005 0 0 1-1.65-3.149c-.032 0-.049-.017-.05-.051 0 .201.017.401.05.601.099.165.216.332.349.499zm.3 9.2c.333.767.616 1.466.85 2.1.2.167.384.35.55.55a36.548 36.548 0 0 1-.75-2.1l-.75-1.5c.033.3.066.616.1.95zm2.65-1.3l.3.101c-1-1.066-2.083-2.351-3.25-3.851a45.46 45.46 0 0 0 1.851 2.95l1 1.5c.032-.234.066-.467.099-.7zm.35 1.3c.566.8 1.3 1.8 2.199 3l-1.949-3.801c-.067.234-.15.501-.25.801zm-.5-.25a35.29 35.29 0 0 0-.95-1.4l-.4-.6c.4.8.834 1.649 1.3 2.55.034-.167.05-.35.05-.55zm.3 1.25c.434.866.899 1.8 1.399 2.8 2.167 4.366 3.717 7.717 4.65 10.05 1.033 1.767 1.9 3.384 2.6 4.85-1.366-4.6-3.3-9.5-5.8-14.699-.733-.967-1.633-2.2-2.7-3.7a5.281 5.281 0 0 0-.149.699zm-.95 2.8l-.6-.7c0 .066.017.116.05.15.2.233.416.483.649.75l-.099-.2zm-12.5-19.9v1.851c.167-.667.316-1.4.45-2.2.066-.467.149-1.217.25-2.25a116.725 116.725 0 0 0-.7 2.599zm.25 2.5a43.492 43.492 0 0 1-.7 1.7c0 .1-.017.2-.05.3.2-.533.417-.967.65-1.3l.1-.7zm-.15 1.3c-.699 1.634-1.199 3.467-1.5 5.5.134-.6.217-1 .25-1.199.301-.967.667-1.801 1.101-2.5.032-.535.082-1.134.149-1.801zm.75 8.3v-.2l-.1.1a16.56 16.56 0 0 0-.35 2.351c.033-.233.066-.45.1-.65.1-.601.217-1.135.35-1.601zm-3.05 4.15v-2.3c-.233 1.366-.316 2.85-.25 4.45v.5c.1-1.033.183-1.917.25-2.65zm1.8 3.35c0 2.312.067 4.087.2 5.324v-.125c-.033-2.033 0-3.949.101-5.75-.067-1.366-.101-2.3-.101-2.8 0-.833.017-1.583.05-2.25-.1.334-.166.684-.199 1.05l-.051.25c-.033.434-.05.884-.05 1.351l-.05.4c-.033.834 0 1.683.1 2.55zm-1.8 5.45v-4.3c-.066.367-.1.717-.1 1.05l.1 3.25zm3.05-3.15c0 .7.134 1.666.4 2.899-.167-1.166-.3-2.166-.4-3v.101zm.2 7.4c0 .101.017.2.05.301.233.666.5 1.416.801 2.25a16.639 16.639 0 0 1-.051-1.301 46.734 46.734 0 0 1-.899-3.35c0 .4.017.783.05 1.15-.001.333.016.65.049.95zm12.35-6.05c-.233-.399-.45-.8-.65-1.2-.033 0-.066.017-.1.051.166.3.333.616.5.949.067.067.15.133.25.2zm-.85-1.7v.101c.467.467.934 1 1.4 1.6-.233-.5-.434-.95-.601-1.35-.3-.4-.633-.783-1-1.15.101.299.168.565.201.799zm6.75 10.55v.149c.167.533.351 1.066.55 1.601l.25-.101c-.1-.233-.366-.816-.8-1.75v.101zm-16.9-3.1l.199.7a6.81 6.81 0 0 1-.149-.8c-.033-.167-.066-.334-.101-.5a4.144 4.144 0 0 1-.074-.25c.053.353.094.637.125.85zm4.3 2.1c.2 1.166.45 2.383.75 3.649-.033-.8-.05-1.6-.05-2.399 0-.233.017-.434.05-.601-.267-.3-.517-.583-.75-.85v.201zm3.35 3.4c.03.062.047.136.05.226v-.075-.101c0-.034-.017-.05-.05-.05zm-.25 1.7c.2 1.2.434 2.517.7 3.95a55.007 55.007 0 0 1-.3-3.05l-.4-.9zm-7.85-3.5l-.55-1.1a56.51 56.51 0 0 0 .6 3.149c0-.599-.017-1.282-.05-2.049zM485 236.9c0 .033-.05.083-.15.149a1.121 1.121 0 0 1-.35-.149c.267.8.517 1.6.75 2.399.033 0 .066-.017.1-.05l-.1.2a46.644 46.644 0 0 1 1.35 7.6c.067.566.134 1.117.2 1.65.934-.033 1.467-.167 1.601-.4-.167-3.434-1.284-7.533-3.351-12.3v.05c0 .501-.017.784-.05.851zm-1.95 3.2c.066.434.15.851.25 1.25.033.134.066.267.101.4.033-.167.083-.316.149-.45l-.5-2a21.112 21.112 0 0 1-.2-.899c.067.599.133 1.165.2 1.699zm-5.4.75c.066-.333.149-.633.25-.899a3.797 3.797 0 0 0-.25-.65 11.005 11.005 0 0 1-.801-.899c.234.798.501 1.615.801 2.448zm2.15-.25c.101.301.184.584.25.851.267.533.566 1.116.9 1.75a94.105 94.105 0 0 1-.5-1.65h-.05v-.1c-.101-.267-.2-.566-.301-.9a.97.97 0 0 1-.299.049zm-1.35 1.05c-.066.333-.117.666-.15 1 .101.333.217.649.351.949-.034-.533-.067-1.083-.101-1.649l-.1-.3zm-1.7 1.1c.167 1.434.333 2.75.5 3.95.033-1.767.083-3.167.15-4.2a48.859 48.859 0 0 1-.95-2.95c.066.667.133 1.384.2 2.15l.399.7c.001.166-.099.284-.299.35zm1.4 2.8c.399 1.7.983 4.167 1.75 7.4.533 2.033 1.066 3.533 1.6 4.5.1-1.3.2-2.483.3-3.55-.8-1.967-1.55-3.851-2.25-5.65-.166-.467-.333-.9-.5-1.3l-.3.1v-.95c-.2-.533-.4-1.05-.6-1.55v1zm1.65 1a28.634 28.634 0 0 0-.6-2.3v.8l.2.5.4 1zm.7-.25c.233.8.35 1.417.35 1.851 0 .466-.017.783-.05.949.367.867.767 1.817 1.2 2.851.033-.434.05-.834.05-1.2a70.19 70.19 0 0 1-.75-2.55c-.366-1.467-.633-2.434-.8-2.9v.999zm.1-1.7c.233.534.584 1.4 1.051 2.601-.167-.767-.567-1.851-1.2-3.25.033.267.05.533.05.8l.099-.151zm1.1 2.85c.166.399.333.85.5 1.35.033-.233.05-.434.05-.6-.066-.3-.134-.584-.2-.851l-.35.101zm2.55-.25c.2.267.4.5.6.7a100.267 100.267 0 0 0-.699-4c-.067.399-.117.816-.15 1.25.099.734.183 1.416.249 2.05zm-56.4 9.85a97.794 97.794 0 0 0-.449-2.399 20.086 20.086 0 0 0-1.051-3.301v4.301c-.133.466-.283.933-.449 1.399-1 2.601-2.4 4.884-4.2 6.851.033.1.05.216.05.35a35.828 35.828 0 0 1-.85 3.1c.033.134.05.25.05.351-.033 2.133 0 4.316.1 6.55-.1 0-.166.033-.2.1a36.748 36.748 0 0 1-1.35 5.5c.033 1.601.083 3.217.15 4.851a93.69 93.69 0 0 0 .35 5.25c.267 3.267.233 6.25-.1 8.95.233 1.1.716 1.116 1.449.05.434-.7.95-1.334 1.551-1.9l2.899-2.899-.05-.551a.606.606 0 0 0 .1-.149c2.034-2.3 3.267-5.217 3.7-8.75.101-.667.15-1.367.15-2.101a34.25 34.25 0 0 0-.05-4.1c-.367-5.6-.784-11.267-1.25-17-.1-1.437-.284-2.92-.55-4.453zm56.6-7.6h.05c0-.033-.017-.066-.05-.101v.101zm.05.5v.95c0 1.066-.05 2.066-.15 3 .367.633.717 1.1 1.051 1.399.033-.5.05-1.166.05-2a59.984 59.984 0 0 0-.5-4.7c-.2-.1-.384-.216-.55-.35.199.5.416 1 .649 1.5 0 .134-.066.25-.2.35a2.75 2.75 0 0 0-.35-.149zm-1.65 2.75c-.033.333-.066.684-.1 1.05.066.233.167.483.3.75.066.167.134.35.2.55v-1.6a14.259 14.259 0 0 1-.4-.75zm-4.75-4.35c0 1.101.017 2.101.051 3 .1.5.216.983.35 1.45h.1c-.066-.399-.166-1.233-.3-2.5l.25-.05c-.133-.733-.283-1.517-.45-2.35l-.001.45zm-1.85 2.55c-.2-.367-.4-.767-.6-1.2a2.547 2.547 0 0 0-.4-.25c.333 1.3.717 2.733 1.15 4.3h.199c0-.7-.05-1.483-.149-2.35l-.2-.5zm7.95 3.9c-.066.434-.15.867-.25 1.3 0 .267.017.567.05.9.134.366.267.75.4 1.15.3-.301.566-.717.8-1.25.033-.267.083-.534.149-.801 0-.1.017-.199.051-.3a4.166 4.166 0 0 1-1.2-.999zm-1.1 2.2a32.107 32.107 0 0 1-.649-1.6c-.167.899-.3 1.866-.4 2.899.3.334.601.5.9.5H483a26.22 26.22 0 0 0 .15-1.649h-.2a.321.321 0 0 1 .15-.15zm.4 1.5a.837.837 0 0 0-.05.25h.05v-.25zm2.05.2c0-.167.017-.351.05-.55a2.674 2.674 0 0 1-.399.55.625.625 0 0 0 .349 0zm-10.6-10.4c.1.2.217.384.35.55-.2-.5-.416-1.05-.649-1.649.033.133.066.25.1.35l.1.3h-.05c.032.132.083.283.149.449zm12.85.95c-.333 0-.649-.033-.95-.1.067.833.101 1.633.101 2.399 0 .566-.033 1.167-.101 1.8v.351c0 .8-.017 1.517-.05 2.149.9-.1 1.55-.649 1.95-1.649.2-1.134.3-1.717.3-1.75 0-1.4-.083-2.851-.25-4.351-.2.767-.533 1.151-1 1.151zM153.7 84.7l-.25-.5.05.55a.448.448 0 0 0 .2-.05zm-74.65 97.05c4.067-3.333 7.15-5.933 9.25-7.8 2.467-2.167 4.3-3.983 5.5-5.45.567-.7.983-1.317 1.25-1.85-.433.333-.85.667-1.25 1-3.566 2.8-6.15 4.9-7.75 6.3-3.367 2.9-5.7 5.417-7 7.55v.25z" fill-rule="evenodd"/></svg>