<svg xmlns="http://www.w3.org/2000/svg" xmlns:dc="http://dublincore.org/documents/dcmi-terms/" height="1983.521" version="1.2" viewBox="0 0 1810.553 1983.521" width="1810.553" overflow="inherit"><metadata><dc:description>Silhouette of Elpistostegalia, processed by PhyloPic Tools (https://github.com/eweitz/phylopic-tools)</dc:description><dc:source>http://phylopic.org/image/e7347b57-bddc-44e3-b686-d925eabf875c</dc:source><dc:creator>Obsidian Soul (vectorized by T. Michael Keesey)</dc:creator><dc:license>http://creativecommons.org/licenses/by-sa/3.0/</dc:license></metadata><path d="M125.553 1983.521c-16.196-3.632-30.623-9.223-37-21-13.025-24.056 4.951-55.82 8-75-32.199-.778-62.916-12.915-79-29-44.995-44.997 8.159-107.033 30-150 43.672-57.66 82.733-119.935 111-193 11.717-10.517 13.436-26.273 20-40 19.252-40.254 37.83-73.14 75-95 13.866-8.154 28.734-17.843 44-25 3.202-1.501 7.089-1.553 10-3 13.358-6.643 19.33-21.11 35-25 4.461-.604 2.042 9.229 6 6 5.188-1.479 10.611-8.383 16-14 4.875-5.082 17.957-17.567 8-11 12.544-5.995 13.668-20.082 21-31 6.084-9.061 25.722-28.713 36-32 4.103-1.312 9.024.167 13-1 7.776-2.282 15.661-8.406 24-12 16.895-7.28 32.636-11.104 47-18 60.551-40.932 121.224-84.58 181-125 8.808-5.956 193.59-132.009 197-135 49.669-43.562 86.364-94.562 126-147 44.526-58.908 95.51-111.15 156-155-2.887-15.545 11.64-42.048 28-51 6.04 4.306 4.991 10.13 9 17 17.64-10.453 39.809-21.536 57-33 5.311-3.542 13.647-11.53 16-9 7.402-13.872 15.12-26.649 20-35 2.239-3.832 11.256-16.938 13-19 1.871-2.213 13.411-13.995 17-16 .799-5.542 9.135-5.686 9-13 8.015.148 16.062-15.144 20-15 11.294-10.92 17.516-14.696 31-26 7.624-7.547 10.253-8.973 17-15 6.67-4.219 18.336-13.361 28-24 3.405.677 30.633-22.983 39-29 2.596-1.866 22.745-15.519 31-21 35.176-23.359 68.465-48.537 101-73 22.669-17.044 41.975-38.194 60-60 17.74-21.461 35.693-44.411 46-71 2.156 3.018.844 3.018 3 0-.539-3.872 15.471-29.51 18-34 4.32-7.67 4.697-14.697 9-19 1.05-1.05.997.828 2-1 3.138-5.716 4.827-12.024 7-19 2.132-.42 6.541-8.177 3-9 5.143-2.539 14.487-29.81 16-33 1.678-3.538 5.349-5.576 4-9 4.999-8.326 20.1-43.158 33-34v1c-16.021 42.974-29.507 93.64-42 143-2.636 10.413-27.843 87.282-40 113-26.911 56.932-59.854 113.427-103 154-25.971 24.421-105.732 82.807-115 91-65.931 46.256-110.283 127.539-135 174-11.833 22.243-27.826 44.479-31 71 20.076-3.062 34.407-5.515 44-18 2.801-3.645 3.196-8.55 7-12 6.385-5.79 15.38-5.119 22-11 1.925 2.394 21.475-6.57 30-4 4.068-6.17 27.107-7.162 25-4 4.896-4.046 11.145-2.182 11-1 1.555-1.445 36.584-4.972 55-4 3.745 6.246-2.073 9.133-3 16-8.377 8.623-14.015 19.985-22 29-6.36 2.404-14.517 11.816-16 13-20.669 6.295-38.392 17.517-64 19-7.372.427-42.668 5.1-53 6-22.297 1.944-42.27-4.055-52 10-8.443 12.195-47.057 168.727-64 224-33.943 110.73-91.22 194.82-159 272-55.244 62.906-115.729 125.264-188 172-9.521 6.157-42.253 20.81-43 28-1.776 17.099 42.171 19.277 60 18 22.938-1.643 37.703-12.875 57-18 26.251-6.972 50.796 2.544 72 16 2.4 6.408 20.172 13.433 29 21 2.608 2.236 2.83 5.651 5 8 1.93 2.089 5.057 2.057 7 4 3.896 3.895 6.333 8.699 10 13 1.647 1.932 2.375 3.269 7 5 .334 3.541 2.751 2.459 1 6 3.26-2.146 5.95 3.605 9 7-10.411 20.922-41.137 21.529-61 33-14.572.957-22.995 6.624-32 4-3.146-.479-38.577-3.104-50-2-18.18-8.407-33.745-9.561-47-20-31.176-16.42-67.154-25.712-108-33-12.972-2.314-25.705-6.728-38-8-25.766-2.666-38.6 19.498-55 33-14.088 11.6-30.176 21.547-39 33-7.199 9.345-9.951 21.693-18 32-14.196 18.178-42.044 33.799-64 49-22.91 15.861-265.711 184.944-335 225-23.48 13.573-47.895 26.482-72 40-24.352 13.656-48.341 31.486-78 34h-9z" fill-rule="evenodd"/></svg>