<svg xmlns="http://www.w3.org/2000/svg" xmlns:dc="http://dublincore.org/documents/dcmi-terms/" height="193.874" version="1.2" viewBox="0 0 434 193.874" width="434" overflow="inherit"><metadata><dc:description>Silhouette of Elpistostegalia, processed by PhyloPic Tools (https://github.com/eweitz/phylopic-tools)</dc:description><dc:source>http://phylopic.org/image/1b2199e8-b37d-4b9b-9ba7-6f9508b4699e</dc:source><dc:creator>Obsidian Soul (vectorized by T. Michael Keesey)</dc:creator><dc:license>http://creativecommons.org/licenses/by-sa/3.0/</dc:license></metadata><path d="M344 58.774c-9.072 25.921.389 46.318 12 64 6.238 9.498 14.469 20.444 23 26 18.956 12.344 43.448 17.668 55 36-48.906-5.428-77.608-31.059-107-56-9.027 12.307-20.832 21.834-36 28 4.784 20.549 27.886 22.78 39 37-24.805 1.404-39.771-15.514-54-28-30.58 19.311-86.732 20.387-117 0-15.318 11.73-29.674 29.596-55 28 11.155-13.731 33.128-16.002 39-36-13.168-8.165-27.577-15.09-35-29-30.414 24.252-58.58 50.753-108 56 12.745-19.196 38.216-23.627 57-38 7.891-6.038 16.017-15.334 22-25 11.181-18.062 18.915-34.129 12-62 13.94-24.719 37.872-33.214 70-44 25.417-8.533 42.242-18.676 69-15 11.98 1.646 26.895 10.239 42 15 18.143 5.718 36.354 9.016 48 18 9.711 7.492 14.922 19.161 24 25z" fill-rule="evenodd"/></svg>