<svg xmlns="http://www.w3.org/2000/svg" xmlns:dc="http://dublincore.org/documents/dcmi-terms/" height="201.344" width="189.381"><metadata><dc:description>Silhouette of Elusimicrobiaceae, processed by PhyloPic Tools (https://github.com/eweitz/phylopic-tools)</dc:description><dc:source>http://phylopic.org/image/5d716470-bad1-4007-9743-5eb1423057a9</dc:source><dc:creator>Matt Crook</dc:creator><dc:license>http://creativecommons.org/licenses/by-sa/3.0/</dc:license></metadata><g stroke="#000"><path d="M179.663 2.945c-3.578-2.488-9.761-3.585-16.113-.827-4.92 2.137-9.758 6.283-14.956 10.983-5.197 4.7-10.332 9.915-13.913 13.872-7.621 8.422-9.96 15.481-12.66 18.293-1.574 1.637-1.983 1.72-3.612 2.587-1.63.868-4.213 2.428-6.995 5.44-3.278 3.55-5.513 8.083-8.022 12.64-2.509 4.556-5.153 9.071-7.62 11.84-5.568 6.251-13.135 11.458-19.914 16.137-5.66 3.907-13.194 5.275-19.942 11.74-6.941 6.65-8.186 14.287-12.003 18.623-4.029 4.576-11.829 8.612-18.565 15.46-5.765 5.86-12.363 12.086-17.05 21.297-4.221 8.293-7.234 14.508-7.755 21.767-.325 4.535 1.213 8.621 3.577 11.795 2.364 3.173 5.631 5.77 10.04 6.167 5.454.493 11.633-1.127 17.944-5.925 7.585-5.767 11.758-15.28 16.18-19.87 4.579-4.752 11.643-7.862 17.535-15.327 6.27-7.943 7.24-16.737 11.219-21.583 4.605-5.608 11.608-10.36 19.14-15.277 6.419-4.19 16.159-6.58 25.003-13.039 8.36-6.104 13.995-13.125 21.379-21.14 7.506-8.146 19.04-20.46 24.811-29.53 2.806-4.41 4.276-7.94 5.332-10.795 1.055-2.855 1.698-4.865 3.122-7.358 1.184-2.073 3.975-5.259 6.689-8.496 2.713-3.237 5.848-6.228 6.305-11.655.579-6.86-2.998-12.167-6.223-15.333-.83-.816-1.795-1.694-2.933-2.486z" fill="none"/><path d="M6.178 183.192c-.423 5.906 4.18 11.557 8.493 11.946 4.314.39 8.448-.562 14.012-4.792 5.563-4.23 10.055-13.586 15.55-19.287 5.493-5.701 12.283-8.74 17.155-14.913 4.872-6.172 5.96-15.153 11.315-21.674 5.355-6.521 12.857-11.47 20.406-16.398 7.55-4.929 17.108-7.298 24.762-12.887 7.653-5.589 13.034-12.238 20.546-20.391 7.512-8.154 19.067-20.678 24.197-28.74 5.13-8.064 4.882-11.95 8.306-17.942 3.423-5.992 11.883-12.872 12.299-17.802.415-4.93-1.881-8.229-4.577-10.876-2.696-2.647-6.032-5.09-12.836-2.135-6.804 2.954-20.062 15.857-26.935 23.453-6.874 7.595-8.688 14.143-12.8 18.424-4.113 4.28-5.751 2.79-10.515 7.948s-9.37 17.446-15.569 24.404C93.79 88.488 85.831 93.89 79.08 98.55c-6.751 4.66-13.971 6.09-19.263 11.16-5.292 5.07-6.593 12.53-11.677 18.304-5.083 5.774-12.934 9.712-18.78 15.655-5.847 5.943-11.873 11.7-16.052 19.91-4.178 8.21-6.705 13.706-7.129 19.613z"/><path d="M81.797 96.651c-.912.633-1.853 1.287-2.73 1.893-6.752 4.66-13.956 6.107-19.248 11.177-5.291 5.07-6.6 12.503-11.684 18.277-.284.323-.596.651-.897.963 1.192 2.323 2.519 4.368 3.864 5.564 2.905 2.583 4.818.057 7.106 2.638 2.287 2.58-.994 9.493 3.08 12.76.865.692 1.861 1.198 2.947 1.572 2.738-5.532 4.34-12 8.463-17.02 5.355-6.522 12.87-11.486 20.419-16.414 1.906-1.245 3.945-2.304 6.044-3.316-1.121-2.008-2.37-3.692-3.524-4.889-4.01-4.153-6.674.146-10.612-3.417-2.01-1.818-2.426-5.835-3.228-9.788z" fill="#333"/></g></svg>