<svg xmlns="http://www.w3.org/2000/svg" xmlns:dc="http://dublincore.org/documents/dcmi-terms/" height="1065" version="1.2" viewBox="0 0 412 1065" width="412" overflow="inherit"><metadata><dc:description>Silhouette of Embryophyta, processed by PhyloPic Tools (https://github.com/eweitz/phylopic-tools)</dc:description><dc:source>http://phylopic.org/image/4054a966-b5e1-425d-924e-352593ff9a1d</dc:source><dc:creator>Ernst Haeckel (vectorized by T. Michael Keesey)</dc:creator><dc:license>http://creativecommons.org/publicdomain/mark/1.0/</dc:license></metadata><path d="M0 253c3.129-.204 7.341.674 9-1 1.708-9.389-7.223-13.426-7-18 4.165 1.917 5.835 1.917 10 0 2.562-7.464-3.989-12.934-7-18 2.656-.01 5.711.378 7-1-.375-3.958-1.405-7.262-3-10 3.973.64 5.397-1.27 7-3 .99-7.324-2.261-10.405-2-17 2.593 1.073 4.904 2.43 9 2 4.544-2.545 5.622-14.32 2-19 3.228 2.728 7.229-.176 9-2 .943-8.943-2.916-13.084-3-21 3.795 2.539 5.969 6.698 13 6 3.189-3.58 2.125-12.947 1-18 3.295.298 4.997 3.458 7 0-1.357-.31-.83-2.504-1-4 2.276.485 5.108 1.984 7 0 3.484-7.067-4.897-14.674-4-19 2.194 1.14 4.086 2.581 8 2 1.312-4.688 1.028-10.972 1-17 12.768-.954 10.616-13.534 10-26 2.903.763 2.594 4.739 7 4 1.221-4.456.385-9.544-1-14 1.968 1.983 5.712.637 8 0 1.771-4.998 1.188-13.885 0-19 1.617 1.716 4.183 2.484 8 2 6.029-3.29 5.896-14.688 7-20 5.71.957 5.905 7.429 12 8 5.124-1.902 4.395-11.463 3-17 3.479 1.854 3.357 7.309 9 7 2.438-1.895 4.566-4.101 4-9 1.674 1.326 3.351 2.649 7 2 3.899-3.101 7.668-6.332 8-13h1c-.833 8.5 3.013 12.32 7 16 6.866-1.801 11.47-5.863 14-12 2.69.977 2.46 4.873 5 6 3.736 1.069 2.85-2.483 6-2-.933 6.629-2.755 18.253 2 22 5.358-3.309 11.043-6.29 14-12 1.602 7.98-.205 22.722 11 18-3.129 3.617-6.718 10.245-3 15 2.822.155 2.506-2.827 4-4 1.582 2.752 1.728 6.938 3 10 11.459.792 12.213-9.12 15-17 3.576 2.757 3.316 9.351 8 11 6.167-2.833 10.559-7.442 13-14 4.284 2.382 1.982 11.351 8 12 3.578-.755 6.354-2.313 7-6 1.625 2.375 1.942 6.058 3 9 8.583-2.296 11.407-4.598 18-8-1.692 5.205-6.305 16.387 1 19 4.871-2.539 8.771-1.173 11-5 4.229.14-2.099 4.582 0 9 .904 6.093 10.888 3.757 14 1 2.385 6.22-11.691 14.359-3 21 4.738.738 6.875-1.125 11-1-.506 4.494-5.655 4.345-5 10 1.452 3.214 6.711 2.623 10 4-2.683 5.65-8.916 7.75-11 14 .623 3.043 2.221 5.112 6 5-2.502 6.165-9.369 7.964-12 14 .911 2.422 4.019 2.648 7 3-5.137 3.731-16.62 16.416-3 19-1.312 3.406-1.985 10.99 1 13 3.708.708 4.292-1.708 8-1-.804 5.499-5.509 10.264-3 16 5.005 2.498 9.195 3.402 14 4a53.078 53.078 0 0 0-9 9c.507 5.827 8.572 4.095 10 9-2.003 4.998-10.164 3.836-11 10 .298 5.035 7.004 3.663 8 8-5.996 1.338-10.623 4.044-13 9-.336 3.669 1.536 5.131 4 6-3.895 2.105-6.974 5.027-10 8-.787 3.454.935 4.399 3 5-2.154 5.513-6.838 8.496-6 17 2.145 3.759 5.507.354 10 1-1.412 5.254-6.952 6.381-7 13 2.928 3.461 6.152.459 11 2-2.706 5.294-8.758 7.242-10 14 1.534 3.799 5.355 5.312 10 6-2.145 4.189-7.923 4.744-9 10 .722 3.278 4.096 3.904 8 4-3.463 5.972-15.709 11.226-9 21-2.896 4.105-7.148 6.852-10 11 .241 1.759 1.721 2.279 4 2-10.988 13.914-26.818 22.053-51 22-22.912-.05-32.742 3.843-45 21-9.239 12.931-21.271 25.927-21 53 2.857-1.7 4.25-5.969 3-9 3.516-.183 4.304 2.363 6 4 7.633-3.034 8.851-12.483 12-20 1.823 3.51 3.708 6.959 6 10 6.729-3.938 5.268-16.066 13-19 1.34 5.661 2.74 11.259 7 14 9.245-1.421 8.029-13.304 10-22 4.161 2.505 5.856 7.477 10 10 7.598-1.736 7.534-11.133 14-14 1.857 6.81 1.009 16.324 8 18 7.248-1.418 9.347-7.987 16-10-.131 3.727-2.433 8.837-1 11 3.761 6.134 13.292-.024 20 0-.502 7.832-8.433 8.234-8 17 4.563 5.764 14.457-3.524 21 1-1.959 5.708-8.012 7.322-9 14 .19.81 1.003.997 1 2 3.813 4.727 12.521-1.12 15 4-1.15 3.517-5.671 3.662-7 7-.535 3.868 1.785 4.882 1 9 2.874 1.397 5.08-2.726 6 0-1.166 4.834-7.335 4.665-9 9 1.186 5.148 8.678 3.989 13 6-2.514 5.486-11.027 4.973-12 12 2.104 5.155 6.067 8.223 11 8-3.741 3.592-12.851 1.816-15 7-.526 5.193 4.301 5.032 7 7-4.128 2.482-7.723 3.961-7 9-4.083.25-6.082 2.584-9 4 3.487 4.341.397 7.415-1 12-11.102.565-18.521 4.812-28 7-.674 5.785-1.792 17.676 4 20 6.794-.539 6.771-7.896 12-10-1.549 4.765-2.849 10.574 2 13 5.669-.664 8.188-4.479 11-8-3.403 5.215-4.99 24.257 10 18-.024 5.31-4.236 6.431-3 13 1.759 4.466 7.399 2.427 12 2-5.535 5.894-8.124 18.902 7 16-5.555 5.442-7.364 16.86 4 17-2.725 5.608-10.394 6.272-12 13 .668 3.332 2.57 5.43 7 5-4.37 7.372-17.319 10.113-13 23-5.504 1.163-11.837 1.497-14 6 .605 2.395 1.438 4.562 1 8-5.04-2.065-4.979.897-9 2-13.616-13.448-32.394-1.391-44 6-8.606 5.48-20.336 7.254-25 14-5.052 7.308-4.489 19.872-6 29 7.812-.188 9.178-6.822 10-14 2.964.703 1.585 5.748 5 6 9.402.402 10.213-7.787 14-13 3 1.15.657 5.479 4 8 6.544-1.456 12.839-3.161 15-9 2.315.747 4.655 3.983 5-1 3.802 14.762 15.932 2.215 27 2-5.562 15.177 11.791 11.878 22 10-7.289 13.294 4.032 20.681 15 17-1.164 4.836-3.906 8.094-6 12 1.154 4.846 4.404 7.596 10 8 .271 4.271-3.65 4.35-5 7 .545 4.788 5.712 4.955 8 8-.414 5.919-6.291 6.375-8 11 .732 4.601 5.451 5.216 8 8-1.209 4.124-7.947 2.72-9 7 .669 4.664 4.669 5.998 4 12-2.483 1.184-5.886 1.447-9 2-2.481 4.677-1.853 7.146-4 11-21.611 1.667-40.986-8.795-58 3-17.082 11.842-18.668 43.854-3 60 8.61-.673 12.556-9.245 12-16 9.253 7.864 23.039 2.602 21-12 6.31 2.69 7.138 10.862 14 13 10.049-.617 7.618-13.715 14-18 1.299 6.367 4.383 10.95 8 15 7.078-1.589 10.012-7.321 12-14 2.121 4.879 1.065 12.935 5 16 7.049 1.049 10.644-1.356 12-6 .318 9.785 11.035 23.271 20 12-.761 11.877 7.797 18.245 18 16-3.294 7.707-8.021 21.662 7 20 .124 6.79-5.937 7.397-7 13-.473 3.14 2.691 2.642 3 5-7.454 10.388 4.009 17.307 6 27v1c-19.721 5.713-38.33-18.135-54-22-17.956-4.429-31.019 3.188-32 26 10.476 28.857 26.514 52.153 51 67-1.303 5.969 3.504 5.829 3 11-8.363 4.97-20.846 5.82-29 11-18.394-1.352-34.652-19.111-48-35-21.653-25.774-43.266-54.189-61-83-10.16-16.506-26.349-45.955-44-51-24.238-6.927-33.332 8.094-46 18-8.001 6.258-16.732 7.951-27 13-2.303 2.031-3.861 4.806-6 7-3.227-3.542-11.394-3.68-17-2 1.828-2.371 2.609-5.783 1-9-5.61-2.27-11.942.143-17-1 2.634-6.887 5.441-8.064 4-18-1.798-2.868-8.44-.894-11-3 2.543-2.456 3.573-6.427 3-12-3.544-3.456-12.199-1.801-15-6 6.894-1.106 8.677-7.323 10-14-1.18-2.82-4.651-3.35-7-5 9.891-4.42 7.809-21.937-1-26 10.475-.275 15.354-12.021 8-19 12.294 4.686 15.222-15.66 11-22 5.27 1.345 10.997 7.312 16 3 2.897-3.676-2.807-11.521-1-14 3.281 1.72 6.847 3.153 12 3 2.746-4.543 1.96-14.67 3-18 6.999 13.741 28.043 18.648 27-3 4.212 3.788 4.656 11.344 12 12 4.685-1.648 5.744-6.923 9-10 2.505 7.494 3.67 16.329 13 17 2.961-27.044-5.759-60.397-31-63-10.954-1.129-20.249 7.241-34 10-9.879 1.982-21.016-1.543-29 0-9.444 1.825-16.508 12.179-24 12 1.639-2.421 2.547-4.857 1-8-8.379-2.77-8.703 6.917-13 5 3.474-4.732 4.959-10.816 0-15-7.339-.006-9.101 5.566-16 6 2.868-6.954 12.333-14.008 7-23-1.163.163-1.779-.221-2-1-6.444-2.734-6.744 5.865-10 3 2.264-7.459 12.781-12.562 7-22-4.971-1.815-10.202 1.136-13-1 15.334-6.676 8.091-19.631-6-22 7.263-2.404 14.33-5.004 20-9 .735-9.068-6.036-10.631-11-14 5.684-2.225 12.467 3.413 17-2 2.107-8.339-7.316-9.699-6-14 6.972 2.299 15.706 3.046 19-3 1.815-6.512-4.11-10.516-3-13 4.823.844 6.41 4.923 13 4 6.216-2.461 2.689-13.515 2-16 6.843 1.157 9.109 6.891 19 5 5.389-2.93 1.25-13.823 2-17 7.666 2.001 8.154 11.18 17 12 4.72-1.613 3.986-8.681 6-13 4.282 5.385 5.512 13.821 13 16 4.809-.857 4.658-6.676 7-10 1.702 5.632 1.858 12.809 8 14 4.982-1.018 5.292-6.708 10-8 .352 4.731-3.379 15.354 4 17 8.307-3.738 4.59-18.961 3-27-3.333-16.852-10.053-32.065-34-29-16.016 2.05-36.815 18.333-58 20-6.711.528-14.148-2.076-19-1-6.256 1.389-8.952 9.123-14 10v-4c-3.459-1.047-5.322 4.572-8 1 .335-3.332 2.897-4.436 2-9-6.177-5.794-16.937 1.856-20 2 3.216-3.451 6.674-6.659 8-12-1.104-3.896-4.644-5.356-8-7 6.011-3.084 5.425-10.665 2-16 6.51-1.952 12.987-13.296 5-18 16.591-5.949-3.52-19.682-3-22-.216.964 3.575-2.31 5-3 3.259-1.578 7.773-1.516 9-6 1.849-6.759-3.773-8.965-5-15 4.364-.637 9.474-.526 12-3 2.249-4.751-3.025-7.486-3-13 4.457.311 9.018 2.06 13 0 3.382-4.498 1.123-10.677 1-17 3.673 2.661 4.522 8.145 11 8 7.427-1.856 4.175-17.625 5-23 5.304 3.682 7.952 13.129 16 11 5.154-3.179 4.274-12.393 8-17 3.716 5.617 6.384 12.283 12 16 6.51-1.49 7.643-8.357 11-13 2.778 3.556 1.785 10.882 7 12 6.383.363 7.36-9.946 11-9 .331 5.669 1.389 10.611 4 14 4.177.844 4.723-1.944 8-2 .206 4.128-1.14 9.806 4 9 11.699-41.839-35.318-53.773-66-43-.649-5.433-7.046-5.926-11-3-1.228-1.772-.729-5.271-3-6-5.953-.62-7.203 3.464-13 3 1.41-3.147 3.87-6.35 2-10-5.906-1.48-9.269.914-15 2 .552-4.448 5.166-4.834 4-11-4.252-5.561-12.386 2.039-17-1 .593-6.407 6.705-7.295 5-16-4.955-3.585-13.56 2.158-18-1 4.519-4.481 11.119-6.882 9-18-1.841-3.492-8.508-2.158-12-4 10.465-5.636 8.982-20.236-2-24 6.608-.726 11.311-3.356 12-10-2.226-3.441-5.578-5.756-9-8 5.689.689 9.91-.09 11-4-1.166-5.501-6.497-6.837-9-11 5.619.619 8.7-1.3 11-4-.206-7.794-6.539-9.461-10-14 2.059-1.275 5.072-1.595 5-5-2.941-5.059-6.728-9.272-12-12v-1z" fill-rule="evenodd"/></svg>