<svg xmlns="http://www.w3.org/2000/svg" xmlns:dc="http://dublincore.org/documents/dcmi-terms/" height="624.154" viewBox="0 0 816.487 624.154" width="816.487" overflow="visible"><metadata><dc:description>Silhouette of Enoplognatha ovata, processed by PhyloPic Tools (https://github.com/eweitz/phylopic-tools)</dc:description><dc:source>http://phylopic.org/image/5a47ba22-2592-4aab-88a1-1297c036d7df</dc:source><dc:creator>Gareth Monger</dc:creator><dc:license>http://creativecommons.org/licenses/by/3.0/</dc:license></metadata><switch><g><path d="M378.987 337.154s-.188-.5-.625-1.438c-1.312-2.812-4.875-9.562-12.375-18.562-10-12-52-66-55-72s-6-9-6-9-22-34-41-63-18-35-18-35-15-28-27-56-19-44-16-45 41 75 41 75l13.5 24s7 6.5 9.5 10.5 42 72 42 72 5 1 11.5 9.5 46 61 46 61 25 40 25.5 41.5l.5 1.5s4-1 5 2 3.5 14.5 3.5 14.5h3s34.5-58 45.5-72 22.5-27.5 25-28 8.5 0 10 1 10-6 2 20.5-21 49.5-21 49.5l-1.5-2 8.5-37s-18 13.5-24 23.5-28 40.5-28 40.5l-2 10.5 2 .5 13-16s26-15 28.5-16 38.5-9.5 43-11 11-3.5 11-3.5 54-11.5 55.5-12l1.5-.5 73-22s49-8 65.5-12.5 61.5-15 70.5-15.5 34.5-2 34.5-.5-5.5 5-31.5 9.5-73 19.5-73 19.5-9.5 5.5-18 7.5-98 24-98 24l-20.5 2.5s-18.5 11-23.5 11-55 6-67 9.5-37.5 16.5-37.5 16.5-3.5 6-5.5 6h-3.5l1.5 5s33.5-12 48-13 52.5 4 64 19 18.5 38.5 10 60-35 46.5-63 45.5-44-9-44-9l12 32 14 24.5s16-11.5 19-12-13 17.5-13 17.5 14 17.5 14 20v2.5s5.5 4 10 5.5 45.5 28.5 45.5 28.5 33.5 17.5 39 20 28.5 10.5 28.5 10.5l5 4s76-25.5 95.5-36 23-6.5 23-6.5-6.5 4-9.5 6l-3 2-113.5 46-123.5-66-23.5-25s-29-47.5-36.5-66-6-23-6-23-12-10.5-13-15.5-2-6.5-2-6.5h-8.5s1 61.5 1 57.5 2.5 5.5 5 9.5 6.5 14 6.5 14 23.5 29.5 25.5 31.5l2 2 22.5-13 6 4.5-19.5 19.5s-10 5-11.5 4-38-34-43.5-48-5.5-21.5-5.5-21.5l3-66.5-17.5-5.5-104 60.5s-22 11.5-29 11.5-87.5-5.5-87.5-5.5-73-15.5-79-16-19.5-1.5-26.5-13-22-39.5-30-61.5-11.5-49-10.5-51.5 3.5-3.5 10.5 20.5 28 70.5 28 70.5 10 11 12.5 13.5 14 7.5 14 7.5l29 2-31.5-39s2.5-4 7 1 36.5 34 43.5 36.5 29.5 12.5 29.5 12.5l63.5 8.5h13s23-18 48-36 44.5-28 51.5-31 20-7.5 20-7.5l-11-5s-27.5 6.5-27-7.5 6.5-17.5 6.5-17.5l8 1.5s-5 13.5-3 15.5 13.5 2.5 13.5 2.5-.5-6.5-1-11.5 4.5-11.5 4.5-11.5l-21.5 9s-5.5-18.5.5-21.5 14.5-3 14.5-3l5.5-2 10.5 1.5-1-4.5s-41.5-12.5-73-28.5l-31.5-16-1.5-3.5s-17-7.5-20-11.5-6.5-5-6.5-5l-132.5-107.5s-7.5-8-11-13-64-115.5-64-115.5-16.5-42-13-39 18.5 35.5 18.5 35.5l64.5 115.5s10 3 15 8.5 8.5 9.5 8.5 9.5l101.5 81.5s6.5 3 12.5 6.5 15 8 20 11.5 8 7 8 7l84 41 29.5 12.5 2 3 14.5 5z"/></g></switch></svg>