<svg xmlns="http://www.w3.org/2000/svg" xmlns:dc="http://dublincore.org/documents/dcmi-terms/" height="427.78" width="466.994"><metadata><dc:description>Silhouette of Enterobacteriales, processed by PhyloPic Tools (https://github.com/eweitz/phylopic-tools)</dc:description><dc:source>http://phylopic.org/image/a905f3af-c8f9-470b-9496-7efb1e55e651</dc:source><dc:creator>Matt Crook</dc:creator><dc:license>http://creativecommons.org/licenses/by-sa/3.0/</dc:license></metadata><g transform="translate(-107.814 -224.964)" stroke="#000"><rect height="47.27" ry="23.635" style="marker:none" transform="rotate(166.884)" width="163.18" x="-446.094" y="-438.598" color="#000" stroke-width="5" stroke-linecap="round" stroke-linejoin="round" overflow="visible"/><rect height="60.543" ry="30.271" style="marker:none" transform="rotate(-152.648)" width="116.07" x="-483.804" y="-493.646" color="#000" stroke-width="5" stroke-linecap="round" stroke-linejoin="round" overflow="visible"/><path d="M425.429 344.486L160.706 614.653" fill="none" stroke-width="5"/><path d="M446.261 225.464l46.665 78.217M477.631 254.234l-5.27 49.033M455.625 265.637l29.328 35.05M480.11 274.939l-3.238 18.978M484.163 269.046l5.44 19.398M509.939 245.649l-32.637 63.365M502.965 269.955l-8.705 18.135M513.47 256.547l-8.167 37.006M496.378 292.251l17.625-28.72M527.504 242.15l-13.664 54.715M505.937 292.424l14.84-25.086M532.874 262.994l-16.78 23.252 20.135-14.682" fill="none" stroke-linecap="round" stroke-linejoin="round"/><path d="M515.604 296.37l20.834-29.145 5.985-27.833M516.695 291.784l29.34-19.166M520.932 300.107l42.029-41.747M521.916 291.747l25.323-8.053 9.447-15.49M526.964 301.268l29.624-13.063M521.464 307.09l37.21-8.057M527.459 303.032l41.177 29.824M524.076 313.016l50.232 4.459M523.474 307.478l41.85 33.916M520.587 319.226l52.602 21.389M521.259 323.317l11.01 12.13M516.393 328.01l13.059 17.738-2.183 9.172M505.248 330.66l38.914 16.669M502.775 321.843l37.45 58.927M514.877 329.387l5.498 72.168M487.048 335.29l34.828 29.227M503.801 330.59l8.94 36.964M490.22 329.644l21.5 41.05M496.183 332.252l8.977 42.183M507.049 335.387l-7.18 40.532-30.953 40.543M480.242 338.15l9.671 15.833M467.86 336.39l25.833 29.373M464.123 341.719l19.091 18.898M489.446 333.666l6.994 23.242M498.758 332.956l-25.28 25.161M463.381 339.073l-7.169 64.308M453.365 342.358l15.811 20.77M473.328 337.235l-8.066 28.893M475.129 341.96l-37.024 34.161-30.151 17.967M448.709 342.713l2.235 31.71M441.902 345.573l1.526 22.398M452.553 341.159l-19.42 35.882M437.036 350.266l5.698 44.055M425.219 348.825l7.064 21.796M413.649 348.265l22.618 17.91M420.106 352.637l4.134 16.436M414.745 355.567l-2.99 19.86M408.149 354.088l12 15.656M402.294 355.254l5.37 20.845-5.108 15.699M393.229 356.845l11.612 17.668M399.401 355.114l-7.394 32.985M386.347 349.264l6.43 22.926M392.804 353.636l-11.345 30.763M388.11 348.77l-34.97 51.655-21.618 9.392M382.116 352.829l3.644 26.56M383.352 357.238l-79.501 13.26M374.138 337.947l-49.825 41.08M373.369 353.856l-30.194.859" fill="none" stroke-linecap="round" stroke-linejoin="round"/><path d="M374.493 342.603l-12.442 23.462.322 11.323M371.88 336.678l-28.426 12.252M372.66 344.544l-13.48-9.06M374.17 331.28l-15.731 1.559M375.896 325.565l-61.2.52M370.219 329.06l-10.833-9.802M381.821 322.952l-15.806-8.882M379.6 326.904l-26.579-43.905M388.133 318.329l-39.623-25.98M391.166 315.576l-26.58-43.905M403.263 311.232l-13.409-10.506M400.935 311.41l-12.392-25.533 1.651-16.157M394.505 288.484l9.887 23.383M397.725 311.834l11.378-37.43M401.802 275.5l6.047 36.824M415.607 307.77l-18.242-12.479M406.613 307.915l7.715-21.661M420.123 310.308l-10.133-24.264M410.317 309.254l24.394-36.8M431.269 307.658l-4.177-33.544M422.591 307.238l8.91-34.36M417.855 285.265l17.22 15.619 3.695-22.436M444.285 308.287l-11.795-31.882M421.672 302.265l16.393-21.242M454.194 301.228l-14.687-32.022M434.086 297.357l14.49-17.855M465.904 298.895l-19.198-22.673M456.877 305.707l1.469-30.371M470.737 300.869l-20.052-40.98M448.549 298.056l4.893-23.247" fill="none" stroke-linecap="round" stroke-linejoin="round"/></g></svg>