<svg xmlns="http://www.w3.org/2000/svg" xmlns:dc="http://dublincore.org/documents/dcmi-terms/" height="602.144" viewBox="0 0 1011.8475 564.50998" width="1079.304"><metadata><dc:description>Silhouette of Eobasileus cornutus, processed by PhyloPic Tools (https://github.com/eweitz/phylopic-tools)</dc:description><dc:source>http://phylopic.org/image/6370ada6-22f3-4f50-a3e7-608856e0db8d</dc:source><dc:creator>Zimices</dc:creator><dc:license>http://creativecommons.org/licenses/by/3.0/</dc:license></metadata><path d="M827.81 563.112c-1.477-1.117-5.383-1.874-9.934-1.925-4.125-.046-8.907-.888-10.625-1.87-1.72-.983-4.66-1.807-6.534-1.831-2.329-.03-4.098-1.134-5.584-3.482-1.196-1.89-3.46-4.676-5.029-6.19-3.799-3.665-3.602-6.203 1.052-13.541 4.482-7.068 6.576-8.896 11.467-10.01 3.063-.698 13.378-11.586 13.377-14.121 0-.454-1.915-15.17-4.257-32.7-2.341-17.532-4.592-40.594-5.001-51.25-.78-20.267-2.586-32.941-4.962-34.814-.773-.608-4.498-2.07-8.28-3.25-3.78-1.18-13.062-5.152-20.624-8.827-14.409-7.002-19.964-8.167-53.75-11.274-4.813-.443-10.988-1.374-13.723-2.07-2.735-.696-15.11-2.589-27.5-4.206-12.39-1.618-26.465-3.527-31.277-4.243-5.356-.797-47.902-1.426-109.688-1.622L436 355.566v27.48c0 23.455-.469 30.411-3.204 47.5-1.763 11.011-3.977 22.27-4.92 25.02-.944 2.75-2.057 7.102-2.474 9.67-.417 2.57-1.847 7.07-3.177 10-1.646 3.626-2.425 8.128-2.437 14.08-.025 12.97 3.124 34.158 6.1 41.041 1.437 3.323 2.613 8.232 2.613 10.91 0 6.225-2.85 8.127-13.75 9.174-4.47.43-13.028 1.414-19.02 2.187-9.628 1.243-11.269 1.162-14.106-.697-2.539-1.664-4.757-1.93-10.596-1.268-9.393 1.062-12.987.135-14.787-3.817-.869-1.906-2.47-3.155-4.047-3.155-3.13 0-7.444-2.148-7.444-3.707 0-.616-1.266-3.062-2.813-5.436l-2.812-4.317-8.895.648c-7.905.576-9.192.35-11.563-2.02-1.682-1.682-4.245-2.668-6.937-2.668-3.47 0-4.994-.913-8.125-4.867-4.362-5.507-4.745-8.51-1.819-14.257 5.228-10.268 10.062-15.222 17.234-17.66 3.847-1.307 8.678-3.4 10.737-4.653l3.743-2.276v-63.215c0-34.768-.521-65.573-1.157-68.456-.636-2.882-1.856-10.303-2.71-16.49-.854-6.188-2.241-13.257-3.082-15.71-.841-2.453-2.468-11.453-3.614-20s-2.34-16.666-2.651-18.04c-.312-1.376-4.418-5.594-9.125-9.376-4.707-3.78-22.533-18.406-39.613-32.5-48.586-40.09-76.3-60.995-83.673-63.114-3.438-.987-13.386-2.422-22.108-3.189-15.574-1.368-16.03-1.335-25.526 1.854-5.317 1.786-10.275 3.748-11.017 4.361-.742.613-5.85 2.008-11.35 3.099-11.893 2.36-22.904 7.696-23.901 11.585-1.395 5.437-4.075 6.436-17.973 6.702-13.253.254-19.552-.676-30.225-4.461-8.416-2.985-9.255-6.89-2.356-10.965 1.975-1.167 4.91-2.144 6.523-2.17 2.69-.046 2.623-.188-.817-1.723-4.768-2.129-9.645-7.387-13.14-14.166-1.506-2.922-3.49-5.313-4.41-5.313-.92 0-4.273 2.25-7.45 5-8.967 7.76-17.876 6.47-21.585-3.125-2.679-6.933-3.43-22.333-1.33-27.305 1.038-2.46 1.562-7.93 1.393-14.54-.206-8.059.22-11.349 1.781-13.75 3.44-5.288 5.596-6.198 14.778-6.24 8.402-.038 8.969-.232 12.914-4.415 2.27-2.406 4.644-4.375 5.275-4.375.632 0 1.149-.824 1.149-1.831 0-1.008 1.687-3.754 3.75-6.103C45.59 80.704 46 79.351 46 72.157c0-6.239.52-8.55 2.286-10.147 4.981-4.508 12.748-1.415 15.215 6.06 1.648 4.995 1.248 4.788 5.855 3.021 8.094-3.105 26.432-5.232 52.269-6.063 17.047-.548 28.534-1.443 30.22-2.355 1.496-.809 4.516-4.132 6.711-7.384 3.723-5.517 3.938-6.418 3.21-13.443-.485-4.684-2.23-10.364-4.614-15.03-2.937-5.744-3.74-8.79-3.43-13.007.388-5.312.667-5.652 7.903-9.628 4.125-2.267 8.841-4.148 10.48-4.18 2.104-.042 6.334 3.204 14.375 11.033 6.267 6.1 12.715 11.774 14.328 12.608 1.957 1.012 5.4 1.23 10.34.657 5.638-.654 8.096-.408 10.295 1.034 1.59 1.04 5.655 2.281 9.035 2.756 3.38.475 8.115 2.18 10.522 3.788 6.001 4.01 14.904 7.679 27.5 11.33 5.843 1.695 13.718 4.123 17.5 5.397 8.708 2.933 22.72 5.087 33.087 5.087 4.422 0 11.28.844 15.24 1.875 10.129 2.639 60.593 2.639 70.423 0 3.78-1.015 10.53-1.86 15-1.878 4.468-.018 10.656-.976 13.75-2.128 5.089-1.895 17.564-2.143 130.986-2.601 87.907-.356 127.68-.096 133.125.87 4.27.758 13.951 2.496 21.514 3.862 7.562 1.366 18.856 3.316 25.097 4.334 16.401 2.676 30.55 6.24 36.217 9.124 2.715 1.382 9.998 4.295 16.186 6.475 15.169 5.343 25.704 10.023 28.871 12.825 1.442 1.276 6.158 2.89 10.48 3.585 4.321.696 9.534 2.133 11.583 3.192 2.048 1.06 5.948 2.71 8.665 3.67 2.718.958 6.45 2.817 8.296 4.13 1.845 1.312 6.22 3.236 9.722 4.275 5.915 1.755 16.048 7.81 29.014 17.335 2.96 2.174 8.585 7.66 12.5 12.192 3.915 4.53 7.728 8.636 8.474 9.122.745.486 2.9 3.113 4.788 5.837 1.888 2.724 5.778 6.534 8.645 8.466 11.616 7.83 24.383 18.06 31.64 25.353 6.248 6.28 8.504 9.741 12.114 18.589 2.44 5.979 5.836 14.246 7.549 18.371 3.541 8.53 6.609 24.759 7.797 41.25.546 7.568 1.48 12.069 2.853 13.75 3.452 4.228 5.86 9.542 9.544 21.061 2.765 8.647 3.233 11.548 2.143 13.294-.767 1.228-1.1 3.359-.74 4.735.36 1.377.043 2.881-.705 3.343-.747.462-1.358 1.927-1.358 3.255 0 1.33-1.125 3.119-2.5 3.977-1.375.86-2.5 2.482-2.5 3.608 0 3.094-3.5 5.602-5.303 3.8-2.004-2.005-3.447-1.809-3.447.467 0 2.59-3.363 3.713-5.588 1.866-1.179-.978-1.584-2.872-1.165-5.452l.641-3.954-1.984 3.438c-2.214 3.835-6.208 4.554-7.442 1.34-.443-1.155-1.154-10.178-1.58-20.053-.721-16.682-.599-18.193 1.727-21.339 6.089-8.236 6.94-11.267 5.493-19.573-2.833-16.27-9.536-32.687-15.34-37.57-4.123-3.47-8.512-4.116-8.512-1.253 0 1.025-1.125 2.567-2.5 3.425-1.875 1.171-2.5 2.915-2.5 6.976 0 5.351-4.455 26.35-8.113 38.245-1.587 5.161-1.883 17.083-1.862 75 .014 40.03.554 72.266 1.287 76.99.695 4.468 1.76 18.25 2.368 30.624.608 12.375 1.778 24.188 2.6 26.25.822 2.063 2.271 6.988 3.22 10.945.948 3.957 3.212 10.707 5.03 15 2.64 6.23 3.324 9.892 3.39 18.143.114 14.071-1.032 15.183-17.507 16.986-18.542 2.03-57.42 1.182-61.26-1.334-4.023-2.636-6.653-7.964-6.653-13.476 0-3.988 1.246-5.72 11.25-15.639L901 507.537l-.006-7.86c-.01-12.11-4.686-41.404-8.936-55.986-2.104-7.218-4.629-16.473-5.611-20.565-.982-4.092-1.974-7.63-2.205-7.86-.231-.23-2.166 2.301-4.3 5.627-3.95 6.156-4.876 10.206-7.776 34.048-1.807 14.846-1.838 61.674-.046 69.183 1.815 7.609 1.96 29.128.228 33.685-.716 1.885-2.578 3.898-4.138 4.474-1.559.576-10.739 1.413-20.4 1.859-14.45.668-17.997.485-20-1.03zM69.88 174.004c6.801-3.82 8.625-8.101 6.183-14.523-1.245-3.275-1.725-3.494-6.02-2.752-2.567.443-7.48 1.207-10.917 1.697l-6.25.89-.392 5.468c-.35 4.87.06 5.854 3.75 9.012 5.174 4.427 6.106 4.441 13.645.208z"/></svg>