<svg xmlns="http://www.w3.org/2000/svg" xmlns:dc="http://dublincore.org/documents/dcmi-terms/" height="581" version="1.2" viewBox="0 0 660.126 581" width="660.126" overflow="inherit"><metadata><dc:description>Silhouette of Eocaecilia micropodia, processed by PhyloPic Tools (https://github.com/eweitz/phylopic-tools)</dc:description><dc:source>http://phylopic.org/image/589b533e-85c0-4180-8e3a-537f898258c3</dc:source><dc:creator>Nobu Tamura (vectorized by T. Michael Keesey)</dc:creator><dc:license>http://creativecommons.org/licenses/by/3.0/</dc:license></metadata><path d="M218 0h18c8.979 1.687 18.451 2.883 24 8-17.882 16.706-48.651 17.466-75 27-11.502 4.162-23.072 10.081-34 17-10.576 6.697-23.119 13.574-30 21-10.799 11.654-24.092 36.396-29 54-1.171 4.201-3.093 14.879-2 19 3.315 12.498 20.176 12.302 30 21 5.942 5.26 6.249 11.306 11 18 3.072 2.594 9.313 2.021 10 7-6.236-4.449-4.365 4.435-4 5-3.448.114-2.552-4.114-6-4-3.372.878 3.513 8.037-2 8-6.051-15.616-14.145-29.188-34-31 12.927 42.9 39.077 90.436 101 86 48.414-3.468 75.638-29.165 110-49 37.519-21.657 90.686-32.178 153-28 34.26 2.297 66.779 13.051 93 23 10.466 3.971 17.379 6.842 26 12 17.654 10.562 34.693 20.473 52 35 17.459 22.208 31.614 47.719 30 89v3c-2.803 49.61-25.116 81.964-57 105-40.424 29.207-91.658 51.892-142 69 2.938 13.728 18.478 14.856 27 23-1.063 2.27-6.286.381-9 1-1.24 4.623 2.042 9.892 0 12-5.392.392-3.26-6.74-8-7-1.855 3.503-2.992 12.975-6 12-2.186-3.425.168-9.419 1-13-3.38-1.598-4.267 4.244-6 1 .633-3.367 2.872-5.128 2-10-13.643-5.98-23.154-10.314-41-9-15.126 1.114-34.069 8.45-50 14-15.375 5.355-30.251 13.137-46 18-34.423 10.631-67.709 22.436-105 24-4.715-7.266-16.756-10.719-17-20-.243-9.252 17.533-24.352 26-32 11.792-10.652 21.952-19.809 34-25 16.375-7.056 41.642-9.321 64-15 24.767-6.29 56.403-19.627 87-33 51.454-22.489 102.773-37.033 137-72 15.307-15.637 21.7-40.359 23-67 .997-20.432-11.737-30.031-25-38-25.265-15.181-66.184-21.067-103-21-39.781.072-77.282 12.836-107 25-14.826 6.068-30.312 13.312-45 21-14.27 7.469-28.836 17.398-45 22-32.303 9.195-65.138 5.57-92 1-16.395-2.789-34.591-8.467-47-15-29.981-15.786-64.297-58.483-78-94-2.038-5.282-.996-12.029-6-16-1.252 10.403-1.252 21.597 0 32-2.054 3.154-1.304-3.177-3 1-1.048 2.582 1.956 9.361-2 10-4.572-.761-.495-10.172-6-10-3.481 1.186-.187 9.147-6 8 .284-4.049 1.716-6.951 2-11-6.099-1.071-6.336 8.961-11 6 2.46-11.552 10.628-16.7 13-27 1.673-7.266.459-14.356 2-21 2.011-8.668 6.943-16.115 8-25 1.804-15.168-.949-29.702 2-43 8.296-37.416 34.239-66.947 62-85C121.042 14.862 164.012.943 218 0z" fill-rule="evenodd"/></svg>