<svg xmlns="http://www.w3.org/2000/svg" xmlns:dc="http://dublincore.org/documents/dcmi-terms/" height="1052.362" width="744.094"><metadata><dc:description>Silhouette of Eoherpeton watsoni, processed by PhyloPic Tools (https://github.com/eweitz/phylopic-tools)</dc:description><dc:source>http://phylopic.org/image/5d38da1d-c264-4998-8ba0-c032f52ee3e7</dc:source><dc:creator>Nobu Tamura, modified by Andrew A. Farke</dc:creator><dc:license>http://creativecommons.org/licenses/by/3.0/</dc:license></metadata><g stroke="#000" stroke-width=".393"><path d="M316.542 530.452a2.205 2.205 0 0 1 0-.856c.066-.397.122-1.122.395-1.513.273-.391.018-.251 1.119-.658 1.1-.407 4.097-1.414 5.461-1.777 1.365-.363 1.368-.329 2.698-.395 1.33-.066 3.53-.088 5.265 0 1.735.088 4.576.259 5.133.527.556.267.397.13.774.106.376-.024.724-.139 1.331-.238.607-.1 1.315-.033 2.04-.132.726-.098 1.206-.285 2.303-.46 1.098-.176 2.126-.153 4.278-.592 2.151-.44 4.858-1.523 8.62-2.04 3.762-.517 10.35-.91 13.885-1.053 3.536-.143 5.21.142 7.304.197 2.095.055 2.872-.171 5.265.132 2.392.303 5.924 1.074 9.049 1.68 3.125.607 5.568 1.022 9.701 1.958 4.133.936 9.912 1.89 15.093 3.657 5.18 1.767 22.138 7.747 15.874 6.905-6.263-.842-12.504-.516-16.705-.678-4.2-.161-6.043-.292-8.498-.291-2.456 0-3.592.1-6.224.293-2.632.194-7.97.726-9.565.87-1.594.146-10.107 1.465-10.436 1.465-.33 0-14.017 2.369-14.28 2.5-.263.132-7.567.658-8.752.658-1.184 0-8.17-.998-8.95-1.118-.778-.121-3.591-.625-4.672-.724-1.08-.1-1.286.165-1.776.131-.49-.033-.647-.153-1.119-.329-.472-.175-1.004-.536-1.71-.723-.708-.188-1.843-.308-2.501-.395-.659-.088-1.01-.088-1.448-.132-.439-.044-.713-.099-1.185-.132-.472-.032-1.02-.01-1.645-.065s-1.253-.009-2.105-.264c-.853-.254-1.92-.79-2.962-1.25-1.042-.46-2.442-1.183-3.29-1.513-.847-.33-.987-.253-1.777-.461-.79-.208-2.236-.625-2.96-.79-.726-.164-.997-.05-1.383-.197-.385-.147-.622-.414-.855-.658a2.972 2.972 0 0 1-.527-.79 3.05 3.05 0 0 1-.263-.855z" stroke-width=".15113208"/><path d="M347.865 536.439c-.083.36-.692 1.091-.987 1.448-.295.356-.442.545-.724.724-.282.178-.67.202-.921.329-.252.126-.373.262-.592.394-.22.133-.774.198-.724.395.05.197.196-.016.395 0 .198.017.491.117.79.132.297.015.755-.077.986-.066.232.011.33-.098.395.066.066.164-.231.338-.395.526-.163.189-.381.352-.592.593-.21.24-.54.647-.658.855-.118.208-.222.212-.131.329.09.117.285-.033.526-.066.241-.032.568 0 .921-.131.353-.133.82-.6 1.119-.724.298-.125.474-.274.592-.132.118.142-.117.242-.197.46-.08.22-.208.558-.264.856-.055.298-.31.764-.065.922.245.157.493-.133.724-.395.23-.263.245-.988.46-1.185.216-.196.306-.11.46-.131.156-.022.328-.089.461 0 .134.088.118.242.198.46.08.219.115.67.263.856.149.185.216.356.46.263.245-.094.28-.675.33-.987.05-.312-.097-.649 0-.856.097-.206.184-.325.395-.329.21-.003.382.276.592.461.21.185.44.551.658.658.219.107.369.24.526.066.158-.174-.08-.61-.197-.856-.117-.245-.362-.376-.46-.592-.1-.215-.112-.448-.132-.658a2.553 2.553 0 0 1 0-.592c.024-.298.06-.75.197-1.185.137-.434.182-.82.658-1.382.476-.56 2.128-.72 2.37-1.645.24-.925-.206-1.934-1.251-2.566-1.046-.632-4.146-.197-4.475.132-.329.329-1.478.722-1.777 1.316-.299.593-.026 1.404 0 1.776.027.373.15.101.066.461zM377.938 535.65c.066.131 1.119.789 1.184 1.315.066.527-.35.857-.658 1.25-.308.394-.868.755-1.184 1.054-.317.298-.712.467-.724.723-.012.256.02.327.329.395s.875-.441 1.25-.592c.375-.15.751-.594.987-.329.236.265-.304.604-.46.987-.156.383-.727 1.082-.46 1.316.266.235.28-.083.657-.329.377-.245 1.205-1 1.514-1.25.308-.25.029-.368.329-.263.3.105.18 1.03.329 1.447.15.418.266.996.526 1.053.26.057.183.025.33-.263.145-.288-.017-1.05.065-1.513.082-.464-.12-1.201.395-1.25.515-.05.663 1.192.855 1.579.193.386.158.454.33.723.17.27.452.808.723.856.271.048.326.03.46-.263.136-.294-.163-.954-.262-1.382-.1-.428-.687-.88-.33-1.185.358-.305 1.021.436 1.448.658.427.222.81.592 1.119.658.309.066.46.04.592-.065.131-.106.228-.12.132-.395-.097-.275-.655-.399-1.119-.724-.464-.326-1.246-.815-1.645-1.25-.4-.436-.514-.78-.79-1.25-.276-.472-.728-1.032-.855-1.58s.382-.901.066-1.58c-.316-.678-1.42-1.475-2.304-1.776-.884-.302-2.17-.406-2.698 0-.526.406-.286.706-.329 1.25-.043.545.132 1.843.198 1.974z" stroke-width=".15113208"/></g></svg>