<svg xmlns="http://www.w3.org/2000/svg" xmlns:dc="http://dublincore.org/documents/dcmi-terms/" height="123.886" viewBox="0 0 585.376 123.886" width="585.376" overflow="visible"><metadata><dc:description>Silhouette of Eoichthyosauria, processed by PhyloPic Tools (https://github.com/eweitz/phylopic-tools)</dc:description><dc:source>http://phylopic.org/image/7178f414-b135-4858-b880-5d67911381b1</dc:source><dc:creator>Gareth Monger</dc:creator><dc:license>http://creativecommons.org/licenses/by/3.0/</dc:license></metadata><switch><g><path d="M110.773 33.638c7.641-1.367 67.771-12.008 80.796-13.274 34.815-3.382 52.086-19.422 60.698-17.769 10.496 2.015 13.838 20.442 26.552 21.663 12.713 1.221 109.478 13.888 116.26 13.138 6.782-.75 18.478-5.821 21.781-7.2 3.303-1.379 50.27-35.667 56.293-29.44 6.024 6.227 11.66 22.946 14.104 24.538 2.442 1.591 5.934 10.894 22.122 24.167 18.07 14.817 27.559 14.696 43.964 17.553 16.406 2.858 31.137 3.653 31.812 5.68.675 2.026.093 4.257-5.682 4.794 0 0-66.666 14.547-89.068-2.043-22.402-16.589-46.633-19.82-56.653-19.44-10.02.38-24.385 7.687-51.792 11.427-27.406 3.74-67.222 11.524-67.222 11.524s6.034 12.731 7.765 20.051c1.731 7.318 4.637 16.683.344 17.774-4.293 1.093-12.103 2.555-20.523-6.513s-17.166-22.899-17.166-22.899-51.991 19.092-91.723 17.873c-39.732-1.22-55.925-9.823-55.925-9.823s7.107 10.77 7.875 17.053c.768 6.282 4.007 13.407-2.905 10.899-6.912-2.507-22.347-11.333-27.27-20.271-4.923-8.938-14.612-24.307-14.612-24.307S72.45 68.746 64.779 66.461c-7.671-2.285-20.996-7.281-20.996-7.281S21.928 54.87 17.2 54.194c-4.729-.675-22.318-5.329-15.749-7.087 6.569-1.759 30.405-3.629 30.405-3.629s19.477-5.784 25.991-6.043c6.514-.26 47.134-2.761 52.926-3.797z"/></g></switch></svg>