<svg xmlns="http://www.w3.org/2000/svg" xmlns:dc="http://dublincore.org/documents/dcmi-terms/" height="366" version="1.2" viewBox="0 0 718.998 366" width="718.998" overflow="inherit"><metadata><dc:description>Silhouette of Eotriceratops xerinsularis, processed by PhyloPic Tools (https://github.com/eweitz/phylopic-tools)</dc:description><dc:source>http://phylopic.org/image/b4705472-581f-4c8e-8d1e-be1d6d4f0f38</dc:source><dc:creator>Nobu Tamura (modified by T. Michael Keesey)</dc:creator><dc:license>http://creativecommons.org/licenses/by/3.0/</dc:license></metadata><path d="M718.998 182c-17.64 2.789-35.029-5.308-54-7-20.826-1.857-46.574-2.027-69 0-23.721 2.144-46.01.837-65 5-14.136 3.099-20.791 14.764-31 23-9.087 7.331-26.028 15.996-39 19-5.286 12.381-14.946 20.388-21 32 2.086 8.598 5.859 12.523 7 19 1.004 5.703-.927 11.383 1 16 4.172 9.996 20.521 13.887 23 24 3.039 12.396-1.653 24.984-10 31-5.265-.598-8.592.742-13 1-1.847 3.982-.879 9.553-3 12-1.229 1.418-11.669 5.744-18 7-12.936 2.565-23.005-.475-26-4 1.858-4.808 6.864-6.47 9-11 4.814-9.37 5.767-21.908 5-32-13.096-21.237-24.995-43.671-37-66-13.196-3.677-22.127 7.324-33 11-13.743 4.646-28.999 5.84-45 8 .172 32.684-21.517 51.686-21 88-6.935-.029-9.49.38-13 5-3.093-4.795-7.35 2.159-11 3-.105-2.562-.566-4.768-2-6-3.919 1.747-5.363 5.971-11 6-1.917-3.627-3.821-1.052-7-3 6.525-12.353 13.142-31.854 19-51 5.552-18.146 11.052-36.728-4-42-3.213 25.454-22.246 35.087-35 51 2.621 21.082-11.889 20.178-26 25-7.543 2.578-13.218 6.94-19 6 6.281-12.123 5.743-21.812 12-34 6.327-12.323 20.439-22.571 27-34 8.946-15.585-5.013-33.316-3-55-3.368-7.343-14.856-9.447-23-15-5.267-3.592-7.161-8.647-14-10-16.421-3.247-40.008-.18-61-3-2.751-.369-5.271-1.764-8-2-33.651-2.908-70.034 4.354-84-14 9.423-1.91 16.854-5.813 20-14-14.807-.14-22.328 7.006-35 9-7.072-34.164 25.331-38.419 38-57 4.048-5.937 3.165-12.469 9-18 10.091 12.542 52.61 3.801 55-8 .864-4.265-5.314-18.974-8-24-9.287-17.38-29.877-40.289-40-52 26.959 14.041 44.952 37.048 65 58 5.097-36.111-16.756-59.233-28-79 21.346 15.321 35.476 37.857 46 64 12.437-7.896 21.167-19.499 36-25 3.734 3.139 9.144.677 13 2 5.036 3.861 9.346 8.323 17 7 6.446 9.554 22.888 9.112 30 18 1.256 9.149 6.357 14.62 5 28-.947 4.048-5.979 5.926-3 11 36.913-10.473 74.51-28.611 117-32 11.398-.909 20.676 1.348 27-2 8.923 6.87 17.284-.91 30-1 1.912-1.471 4.088-7.846 6-6-1.342.658-1.862 2.138-2 4 12.854-5.807 16.309 2.23 29-5-.039 2.886-5.651 2.364-3 5 8.916-1.142 9.021-1.052 16-3-8.115 4.31 5.463.604 0 4 2.471 3.512 9.026-5.426 15-5-3.247 3.086-9.351 3.316-11 8 14.321-10.23 47.625-9.013 61 0 10.755-.422 21.048-.381 27 4 2.803-1.895 9.911-4.715 14-2-7.854.115-12.095 5.201-16 4 15.659 11.34 37.829 16.171 56 25-4.797.759-9.092-4.19-12-2 4.445 2.222 9.293 4.041 14 6-5.763-.096-11.477-.143-15 2 16.483-.829 33.406 1.242 47 6-6.831-.833-19.038-4.693-25 0 5.339 2.661 17.276-1.277 20 4-4.017.169-7.968-2.646-10 1 5.88 2.787 13.961 3.373 21 5-.725 3.692-5.702-3.119-5 2 9.273-.607 15.7 1.633 21 5-5.501.474-11.228-4.069-16-1 9.688.919 12.76 6.925 21 7-.613 1.386-3.85.15-4 2 4.803 1.863 12.236 1.097 15 5-1.862.956-3.342-2.995-4 0 2.377 3.957 11.156 1.51 14 5-.111 3.542-3.306-2.125-3 1 2.443.89 4.336 2.331 8 2 .615 3.213-3.6 1.37-1 4 11.311 6.689 20.293 15.707 31 23v2zm-215-114c-.195 5.475 7.924 1.093 9 3 .716 2.715-4.716-.715-4 2 1.575 1.457 5.575-.301 7-2-2.073-2.928-6.491-3.509-12-3zm-8 3c-.424 4.018 6.793 1.662 7 0-2.276-.485-5.109-1.984-7 0zm-24 7c3.009-1.658 8.152-1.181 9-5-4.543.123-7.5 1.833-9 5zm28-2c3.402.069 6.978.312 8-2-3.499-.166-6.402.266-8 2zm34 1c4.193 2.045-9.193-.045-5 2 4.529.379 7.451 1.314 11-1-1.065-.717-4.606-3.905-6-1zm10 1c.159-2.893-6.002-4.575-7-3 2.502.831 3.926 2.74 7 3zm-25 11c4.943-1.723 8.971-4.362 12-8-4.943.057-9.013.987-12 3 1.496.17 3.69-.357 4 1 .493 3.16-4.962.371-4 4zm18-5c4.335-1.392 6.923 1.65 9-2-3.823-.155-7.282.052-9 2zm-15 11c3.296-.371 4.997-2.336 7-4-3.739-.071-5.727 1.607-7 4zm14 1c1.316-2.683 8.003.002 8-4-3.789-.405-9.562 2.372-8 4zm15 3c3.098-.902 6.256-1.744 8-4-4.364-.363-6.184 1.817-8 4zm14-3c3.822-1.41 7.281 2.612 9 0-1.358-.962-11.157-1.933-9 0zm23 6c-3.086-.297-6.856-5.077-10-2 3.121.261 7.767 4.166 10 2zm-16 2c3.822.155 7.281-.052 9-2-3.741-.074-6.914.421-9 2z" fill-rule="evenodd"/></svg>