<svg xmlns="http://www.w3.org/2000/svg" xmlns:dc="http://dublincore.org/documents/dcmi-terms/" height="1052.362" width="744.094"><metadata><dc:description>Silhouette of Epitheliozoa, processed by PhyloPic Tools (https://github.com/eweitz/phylopic-tools)</dc:description><dc:source>http://phylopic.org/image/defdbe58-28ab-4491-a43d-b88d1a8fa3bb</dc:source><dc:creator>Mali&apos;o Kodis, photograph from http://commons.wikimedia.org/wiki/File:Trichoplax.jpg</dc:creator><dc:license>http://creativecommons.org/licenses/by-sa/3.0/</dc:license></metadata><path d="M133.416 327.928s-12.47-9.975-8.729-21.197c3.741-11.222-4.987-4.987-6.234-26.184-1.247-21.197-2.494-33.666 6.234-42.394 8.729-8.728 1.47-13.577 3.741-19.95 1.748-4.905 4-9.843 7.481-13.716 4.394-4.886 7.482-1.246 16.21-11.221 8.728-9.975 2.493 14.962 8.728-9.975 6.234-24.938 8.728-37.407 23.69-44.888 14.963-7.481 39.9-34.912 57.357-27.431 17.456 7.481 7.48 16.21 17.456 7.481 9.975-8.728 28.344-21.049 44.887-26.184 10.747-3.336 22.413-2.48 33.666-2.494 17.5-.023 28.678-4.988 52.369 3.74 23.69 8.729 64.837 18.704 78.553 39.9 13.715 21.197 13.715 0 21.197 3.741 7.481 3.74 32.418 16.21 29.925 42.394-2.494 26.184 1.247-9.975 21.197 7.481s2.493 36.16 18.703 34.913c16.21-1.247 6.234 17.456 18.703 23.69 12.469 6.235 17.456 3.74 19.95 29.925 2.494 26.185 23.69 31.172 16.21 47.382-7.482 16.209-14.963 4.987-13.716 29.925 1.246 24.937 6.234 29.925-8.729 32.418-14.962 2.494-11.221 12.469-7.48 24.938 3.74 12.469-9.976 4.987-7.482 23.69 2.494 18.703 22.444 19.95-4.988 38.653-27.43 18.704-33.665 19.95-34.912 33.666-1.247 13.716 7.481 11.222-13.716 18.703s-11.222 2.494-26.184 22.444c-14.963 19.95-1.247 23.69-37.406 33.666-36.16 9.975-18.703 8.728-52.369 17.456s-52.369 14.962-66.084 6.234c-13.716-8.728-34.913-2.494-44.888-19.95-9.975-17.456-9.975 0-27.431-22.444-17.456-22.443-19.95-3.74-29.925-24.937-9.975-21.197-9.975-29.925-36.16-39.9-26.184-9.975-51.121-16.21-56.109-36.16-4.987-19.95-18.703-37.406-9.975-53.615 8.728-16.21-14.962 7.481-13.715-19.95 1.246-27.431 18.703-7.481 7.48-18.703-11.221-11.222 2.495-41.147 2.495-41.147z" stroke="#000"/></svg>