<svg xmlns="http://www.w3.org/2000/svg" xmlns:dc="http://dublincore.org/documents/dcmi-terms/" height="363.85" viewBox="0 0 711.843 363.85" width="711.843" overflow="visible"><metadata><dc:description>Silhouette of Eptatretus polytrema, processed by PhyloPic Tools (https://github.com/eweitz/phylopic-tools)</dc:description><dc:source>http://phylopic.org/image/e820a299-38f4-4ae0-9c6c-cec867cdf767</dc:source><dc:creator>Gareth Monger</dc:creator><dc:license>http://creativecommons.org/licenses/by/3.0/</dc:license></metadata><switch><g><path d="M48.517 185.448s20.496-16.397 31.973-20.496c11.477-4.1 103.295-34.432 117.232-36.071 13.937-1.639 49.188-3.279 68.864-4.919 19.676-1.64 50.828.82 50.828.82s13.937-17.216 16.396-18.856c2.459-1.64 4.098-2.459 4.098-11.478 0-9.018-.818-37.71 0-42.63.82-4.918 16.396-27.053 27.055-34.431 10.656-7.379 47.547-7.379 57.385-10.658 9.838-3.279 23.775-10.657 36.072-4.099 12.297 6.558 36.07 10.657 46.729 15.576 10.659 4.919 30.334 11.478 38.531 17.216C551.877 41.162 564.174 51 564.174 51s62.305 13.116 85.26 27.872c22.955 14.757 51.648 46.729 54.107 70.504 2.461 23.774 27.873 100.836-24.594 141.007-52.469 40.172-71.324 42.63-100.836 41.81-29.514-.818-49.189-1.638-60.666-1.638-11.477 0-20.494-3.28-20.494-3.28l-6.559 20.496s-4.1 7.377-9.838.819c-5.74-6.559-15.576-15.577-21.316-13.117-5.736 2.459-20.494 23.774-36.07 25.414-15.576 1.64-54.926 6.558-70.502-1.64-15.576-8.198-28.694-17.216-28.694-17.216s-10.658 13.937-14.756 11.477c-4.099-2.459-14.756-8.197-22.954-27.873-8.198-19.676-11.478-44.269-9.018-50.008 2.459-5.739 7.378-9.019 7.378-9.019s-59.929-14.471-67.224-15.576c-54.152-8.197-82.845 9.019-111.494 16.396-11.909 3.065-45.089 1.64-48.368 1.64-3.279 0-11.478 16.396-8.198 23.774 3.28 7.378 4.919 16.396-.82 8.197-5.738-8.197-9.018-27.873-9.018-30.332 0-2.46-17.216 5.739-17.216 5.739s7.378-9.019 7.378-11.478c0-2.459-9.018-6.559-10.657-11.478-1.64-4.918-1.64-17.217-1.64-17.217s-13.937-.819-15.576 3.28c-1.64 4.099 0 10.656-1.64 4.099-1.64-6.559 10.658-17.216 18.036-20.495 7.378-3.279 14.756-24.595 14.756-24.595s-4.099-17.216-10.658-18.036c-6.558-.819-13.116 0-13.116 0s.82-7.378 11.477-6.559c10.657.823 21.315 8.2 27.873 11.481z"/></g></switch></svg>