<svg xmlns="http://www.w3.org/2000/svg" xmlns:dc="http://dublincore.org/documents/dcmi-terms/" height="625.8" version="1.2" viewBox="0 0 817 625.8" width="817" overflow="inherit"><metadata><dc:description>Silhouette of Equinae, processed by PhyloPic Tools (https://github.com/eweitz/phylopic-tools)</dc:description><dc:source>http://phylopic.org/image/7c611aeb-f398-4755-9f09-7f8daf1b22f1</dc:source><dc:creator>Mercedes Yrayzoz (vectorized by T. Michael Keesey)</dc:creator><dc:license>http://creativecommons.org/licenses/by/3.0/</dc:license></metadata><path d="M573 557c-2.495 10.838-12.914 13.752-18 22-.398 10.351-7.756 21.276-9 34 16.789 6.154 33.383-1.686 44-8 6.627-15.464-6.879-38.896 8-49 3.712.288 2.709 5.291 7 5 9.026-9.43 8.294-28.816 4-42 .848-2.932 3.22.598 5 0-2.29-1.154-.819-9.256 2-5 2.166-2.232-2.089-6.528-2-10-1.053-3.719 3.373-1.961 4-4-1.19-3.81-1.324-8.676-3-12 3.552 1.448 2.666 7.334 7 8-3.471-14.323-1.688-28.119 5-39 4.609-7.499 12.656-11.531 15-21 .377-1.521-.535-3.534 0-5 1.48-4.057 5.666-6.944 4-15-1.424-6.883-11.014-10.127-16-17-7.699-10.612-11.49-32.657-14-48-1.435-8.768-1.1-17.591 1-28 5.064-1.603 5.619-7.715 8-12 5.406 9.566 7.957 10.169 12 20 26.364 9.314 44.525 35.466 65 54-6.041 15.05 10.56 39.787 12 42 3.816 20.607 4.491 49.58 0 70-5.907 7.76-9.166 18.168-11 30 2.537 1.13 2.411 4.922 6 5 1.991-1.009 2.283-3.717 4-5 14.398 14.803-6.329 38.814 3 61 5.465 3.868 9.268 14.237 14 14 4.732-.237 16.422-3.656 20-10 2.717-4.816 6.611-17.408 6-23-.983-8.99-14.596-17.421-15-28-.2-5.236 4.753-8.506 5-15 3.293 1.702 7.107 4.799 11 3 4.466-15.714-13.932-26.077-14-41 2.503-.17 3.131 1.536 4 3 1.895-2.285-1.326-7.963-3-10 .162-1.172 1.823-.844 3-1-.793-2.35-4.58-8.529 1-6-1.994-4.006-4.006-7.994-6-12 1.572-3.656 1.494 2.323 4 1 .658-3.658-2.164-3.836-2-7 .56-2.259 1.56 1.213 3-1-2.371-2.861-.682-3.988-2-7-5.09-7.182-3.457-14.104-2-28 1.16-11.057 10.583-20.143 12-29 .816-5.103-2.043-12.98 0-18-19.863-6.47-28.207-24.459-31-48 5.154 2.846 5.402 10.597 12 12v-12c1.771 11.562 5.183 21.484 9 31 3.986.652 2.865-3.802 3-7 5.01 9.321 6.213 20.703 12 27 3.213.88 1.37-3.297 4-3 3.95 4.432 2.43 4.798 8 9 2.777 8.439 7.292 16.57 11 25 3.476 7.901 5.026 17.891 12 23 1.914-11.177-.264-26.211-4-35 4.832 4.834 6.801 12.532 13 16-1.369-12.297-6.562-20.771-11-30 8.55 2.598 15.371 12.436 24 9-32.442-21.668-58.132-49.571-52-105 4.031.303 1.969 6.697 6 7 .91-26.243-6.955-43.712-14-62 3.806-.118 7.906 8.078 11 12-1.408-23.26-13.951-44.048-28-58 1.01-2.816 4.247.276 6 0-6.51-12.49-18.147-19.853-27-30-1.236-3.236 3.236-.764 2-4-20.559-23.908-57.131-40.939-93-49-13.414-3.015-28.606-9.456-49-8-18.343 1.31-27.346 9.318-42 15-9.221 3.576-82.591 23.028-112 21-10.835-.747-24.438-.053-35-4-8.476-3.168-21.648-16.214-32-23-2.848-1.867-7.52.276-8-5-3.236.824-8.649-1.245-9 0-.852-1.137.458-5.47-4-3-1.207-4.874 3.976-3.358 4-7-4.858-.525-4.415 4.252-9 4-.472-4.805 4.178-4.489 6-7-5.167-.262-8.419.584-14-1-1.89-1.956 4.738-3.879 4-8-4.178.226-4.723-1.626-8 0-2.768-2.511 5.748-2.195 4-7-2.827-1.587-11.173-1.587-14 0-2.662-2.956 3.713-2.938 2-8-7.217-2.674-10.154.733-18 0-1.596-2.642 6.197-4.436 5-10-4.027-3.688-8.496-2.672-17-3-.809-4.809 4.388-3.612 3-9-8.119-3.214-19.279-3.387-31-3-1.6-7.6 6.664-5.336 6-12-5.293-2.562-10.715.532-17 0-1.928-.102 1.553-3.727-1-5-10.05-.717-16.586 2.081-26 2-1.03-4.697 4.67-2.664 4-7-7.558-1.941-10.221 1.39-20 1-.48-6.146 6.511-4.822 7-10-14.636-2.129-25.258 7.948-40 9-1.748-4.805 6.768-4.489 4-7-4.757-4.345-17.364 3.005-25 5-2.768-2.511 5.748-2.195 4-7-9.974-.974-14.198 3.802-22 5-1.631-6.298 5.242-4.091 5-9-10.938 1.728-17.951 7.382-27 11-3.69-3.113 2.334-4.933 2-8-5.822 2.177-9.39 6.61-15 9-3.239-2.983 1.852-6.091 3-8-10.589-.249-16.619 12.709-25 18-2.981-2.087 1.328-5.26 0-9-8.9 4.434-12.835 13.832-21 19-2.655-.345-3.375-2.625-4-5-1.498 1.502-3.008 2.992-5 4-8.432-2.235-15.038-6.295-24-8 4.232 7.768 9.128 14.873 10 26-.405 2.261-5.861-.527-4 4C11.666 51.667 8.523 42.144 0 38c.957 11.043 5.108 18.892 10 26-5.071 4.851.002 8.021-5 12 6.66 1.507 1.465 7.488 3 11 4.488.821 4.466-2.868 7-4 3.059-.726 2.941 1.726 6 1-1.415 15.619-11.016 29.199-10 46 .158 2.62 2.112 5.333 2 8-.457 10.891-5.862 24.476-7 38-2.024 24.076-2.841 41.771-3 67 4.355 4.645 8.717 9.283 11 16 15.686 6.669 28.387 3.469 44-1 9.089-6.955 7.697-17.831 6-32 3.062-5.938 11.74-6.26 11-16 2.396-.396-.555 4.555 3 3v-6c.934.733 1.515 1.818 2 3 2.092-.909 3.049-2.951 3-6 1.948 6.015 3.327-1.324 3-6 5.213-1.213 3.879 4.121 4 8 2.812.145 2.885-2.449 3-5 1.817 1.183.786 5.214 2 7 2.717-2.283 2.543-7.457 5-10 2.28 1.387.373 6.96 1 10 3.102-3.232 3.176-9.491 5-14 2.246.42.027 5.306 2 6 3.676-3.325 4.553-9.447 4-17 1.752 1.915 2.12 5.213 3 8 3.786-1.547 2.338-8.329 4-12 .934.733 1.515 1.818 2 3 2.236-.431.405-4.928 1-7 1.486.847 1.447 3.22 2 5 4.224-1.253.342-5.409 1-9 2.35.983 1.66 5.007 5 5v-16c2.951 2.382 1.618 9.049 6 10-.947-6.053-3.211-10.79-5-16 1.912-2.656 4.246 6.308 7 3 2.294-1.04-.474-7.141 2-8 2.578.241-1.373 1.721 0 4 2.555-.112 1.984-3.349 2-6 5.674-.671 12.154 11.587 14 5 3.775 5.892 7.043 12.29 10 19 1.357-.31.83-2.504 1-4 2.793 3.54 2.726 9.941 5 14 3.542-.111-2.125-3.306 1-3 4.075-.218 1.131 10.139 6 6v7c3.008 1.008 1.771-2.228 2-4 2.426 3.241 2.479 8.854 3 14 1.378 3.183.99-3.534 1-5 1.752 1.915 2.12 5.213 3 8 3.687-.647 5.245-3.422 6-7 3.117 4.216 4.784 9.883 5 17 3.824.157 3.25-4.083 5-6 2.18 4.154 2.051 10.615 3 16 3.624.958 1.017-4.316 3-5 4.821 7.724 3.525 15.889 0 24 4.921 19.067-9.345 57.244 8 69-.689 4.645-2.895 7.772-6 10-16.817 33.849-34.548 66.785-53 99 .676 38.658 31.116 47.551 37 81 5.955 3.044 9.632 8.368 15 12h8c13.804 13 41.333 26.666 45 23 6.217-25.136-11.563-53.18-35-39-2.39-6.426-4.045-12.14-3-22-9.438-4.229-13.3-14.033-24-17 .862-4.643.054-7.482-3-10 .161-1.172 1.823-.844 3-1-12.462-4.224-13.863-17.506-7-29 12.093-13.887 32.812-22.78 48-35 8.108-6.523 15.863-16.031 31-15 2.92-5.176 3.584-12.107 1-18 11.85 3.56 24.521 5.142 38 9-4.119 21.979-.691 43.576-3 65-1.452 13.479-8.277 25.795-10 38-.945 6.692.754 14.207 0 21-4.021 36.213-20.98 63.713-34 93-.962 3.629 4.493.84 4 4 .164 3.164-2.658 3.342-2 7-17.361 1.306-17.972 19.361-25 31 7.677 11.437 35.722 6.346 46 0 5.542-12.737-5.189-26.068 3-39 3.475.859 3.473 5.194 6 7 12.266-8.94 6.072-30.229 11-46 2.007-.34 3.129.205 3 2 3.055-1.849-1.154-4.751 0-8 1.57.43.854 3.146 4 2 .125-4.125-1.738-6.262-1-11 .869-2.953 1.497 2.32 4 1v-9c1.167 1.5 2.889 2.445 3 5 2.678-5.593-4.314-12.395-1-19 .161-1.172 1.823-.844 3-1 17.582-34.603 25.03-77.158 46-111 6.724-10.851 15.555-26.155 22-39 5.241.242 9.212-.788 12-3 42.591 5.307 98.934-2.387 135-16 2.028 28.292 18.517 52.028 32 68 5.639 6.679 15.47 14.347 19 23 7.457 18.278 4.33 61.253-1 81-4.75 17.596-17.701 30.608-19 47-.88 3.213 3.297 1.37 3 4z" fill-rule="evenodd"/></svg>