<svg xmlns="http://www.w3.org/2000/svg" xmlns:dc="http://dublincore.org/documents/dcmi-terms/" height="203.065" version="1.2" viewBox="0 0 388.035 203.065" width="388.035"><metadata><dc:description>Silhouette of Equidae, processed by PhyloPic Tools (https://github.com/eweitz/phylopic-tools)</dc:description><dc:source>http://phylopic.org/image/5a4c2499-1363-4a6c-b5ab-ce1e215f7bd7</dc:source><dc:creator>T. Michael Keesey</dc:creator><dc:license>http://creativecommons.org/publicdomain/zero/1.0/</dc:license></metadata><path d="M284.035 46.865c10.212 7.751 17.795 16.343 22.75 25.775 5.665 10.785 10.966 17.227 15.899 19.325a66.3 66.3 0 0 0 14.175 4.399c1.203-.568 2.695-1.151 4.476-1.75 2.1-.7 4.133-1.283 6.1-1.75-.571 1.777-1.913 3.253-4.024 4.425a67.51 67.51 0 0 0 6.125.275h.25c3.133-1.87 5.124-2.92 5.975-3.15 2.354-2.281 4.247-3.981 5.675-5.1-1.545 2.027-4.053 4.562-7.524 7.6a16.443 16.443 0 0 0 3.524-1.524c.298-.347.614-.705.95-1.075 2.6-2.8 3.816-5.116 3.65-6.95h.399l.101.2v.75c0 1.392-.909 3.191-2.726 5.4a22.42 22.42 0 0 0 2-1.825c1.22-4.133 2.129-7.141 2.726-9.025h.399c.066.3.101.7.101 1.2 0 .748-.742 2.864-2.226 6.35.446-.671.904-1.354 1.375-2.05a94.552 94.552 0 0 1 1.775-2.55c.344-1.523.669-2.89.975-4.1a1.926 1.926 0 0 1-.399-.101c0-.133.191-.308.574-.524.102-.382.201-.748.301-1.101-.717-1.802-1.175-2.761-1.375-2.875 0-.1.05-.166.149-.2l.101-.1c.518.403.976 1.178 1.375 2.325.329-1.137.637-2.062.925-2.775a14.157 14.157 0 0 0-.101-.8c-.8-4.934-2.616-9-5.449-12.2 2.433 1.101 4.25 4.134 5.449 9.101.223.965.415 1.939.575 2.925l.075-.125c.047-.536.097-1.062.15-1.575a41.63 41.63 0 0 0-.65-1.875c-.8-2.134-2.5-5.884-5.1-11.25l.399-.2c2.584 1.96 4.575 4.936 5.976 8.925.414-2.258.955-4.149 1.625-5.675.336 1.609.611 3.443.824 5.5.06-.266.117-.516.176-.75.267 1.934.5 4.55.699 7.851.031.574.056 1.116.075 1.625.188-1.353.313-2.761.375-4.226l.851-.05a68.073 68.073 0 0 1-.601-9.15l.101-1.05h.399c.733 3.101 1.167 5.283 1.3 6.55.026.383.043 1.483.051 3.301.166 1.406.25 3.022.25 4.85 0 1.627-.309 3.56-.926 5.8-.108.522-.233.989-.375 1.4-.018.05-.052.125-.1.225a45.71 45.71 0 0 1-.75 2.226c-.106.284-.215.56-.325.824.395-.362.786-.713 1.175-1.05a73.046 73.046 0 0 0 1.75-4.975c1.733-5.566 2.917-11.95 3.551-19.15h.399c.334 2 .5 3.434.5 4.3 0 .919-.05 1.894-.149 2.926.18-.107.396-.199.649-.275.354 1.506.555 2.789.601 3.85.211-.518.428-1.052.649-1.6h.851c.433.8.649 1.65.649 2.55a1.2 1.2 0 0 1-.024.226l.274.024a42.61 42.61 0 0 1 .425 3.25c.117-.449.176-.866.176-1.25 0-.5.3-.75.899-.75h.851c.5.2.767.316.8.351.233.199.35.566.35 1.1 0 1.559-1.3 3.866-3.899 6.925-.501 1.293-1.209 2.66-2.125 4.101.927-.103 1.552-.594 1.875-1.476.166-1.033.25-1.583.25-1.649 0-.534.05-.717.149-.551.033.101.066.233.101.4.399.033.75-.017 1.05-.15.133 0 .2.25.2.75 0 .118-.267.436-.801.95l1.7-.05.25-.1c.167.033.25.316.25.85 0 1.091-.899 2.399-2.7 3.925.211.092.428.15.65.175a.4.4 0 0 1 .125.101c.815-.484 1.624-.968 2.425-1.45.101.1.233.217.4.35.133.167.2.517.2 1.051 0 2.366-2.284 5-6.851 7.899-2.496 1.599-4.896 2.766-7.2 3.5.034.089.051.322.051.7v.25c4.025-.748 8.325-2.314 12.899-4.7-1.5 1.467-5.6 3.217-12.3 5.25-2.749.825-5.207 1.483-7.375 1.976.562.212 1.12.453 1.675.725l.101.3c.333.467.083.7-.75.7-.773 0-2.54-.309-5.301-.925a4.926 4.926 0 0 0-.25.024l.301.65c-.034.1-.017.267.05.5-.033.167-.3.25-.8.25-.467 0-1.167-.15-2.101-.45-.934-.333-1.483-.5-1.649-.5.933.566 1.433.967 1.5 1.2-.034.1-.017.267.05.5-.033.167-.3.25-.8.25s-2.101-.434-4.801-1.3c-2.6-.867-4.166-1.267-4.699-1.2.733.267 1.85.884 3.35 1.85.207.137.398.27.575.4 5.094.716 9.418 1.216 12.975 1.5l.4.2c.267.133.416.25.45.35-.434.134-1.301.283-2.601.45-1.333.167-2.3.25-2.899.25-1.046 0-3.18-.316-6.4-.95v.2c-.033.2-.316.3-.85.3-.4 0-.983-.083-1.75-.25-.553-.15-1.02-.242-1.4-.274 1.066.802 1.916 1.543 2.55 2.225-.133.2-.25.316-.35.35-.101.101-.417.15-.95.15-1.141 0-3.099-.725-5.875-2.175-.067.135-.143.277-.225.425.333.033.083.05-.75.05-.19 0-.432-.017-.726-.05 2.673 1.53 4.381 2.547 5.125 3.05 0 .134-.017.2-.05.2-.033.033-.316.05-.85.05-2.648 0-5.749-.983-9.301-2.95a.824.824 0 0 1-.449.2 74.781 74.781 0 0 1-3.676-1.575c1.921 1.82 3.396 3.429 4.426 4.825.433.134.233.2-.601.2-1.733 0-5.217-2.417-10.45-7.25a790.718 790.718 0 0 0-3.35-3.275l-.8-.524a80.51 80.51 0 0 1-2.9-1.976 18.592 18.592 0 0 1-.25-.1 895 895 0 0 1 2.25 2.375c4.334 4.566 7.033 7.833 8.101 9.8l-.25.25a809.441 809.441 0 0 1-8.65-8.75 96.172 96.172 0 0 1-3.15-3.375c1.144 1.854 2.627 4.362 4.45 7.525.167.278.334.562.5.85l-.149.25a20.836 20.836 0 0 1-1-1.1c-1.505-1.748-3.271-4.231-5.301-7.45a84.655 84.655 0 0 0-.824-1.275 2.354 2.354 0 0 1-.375.025h-.2c1.728 2.833 2.928 5.083 3.6 6.75l-.149 1-.5.05a341.255 341.255 0 0 1-5.25-7.7 103.542 103.542 0 0 1-1.775-2.8c.775 2.869 1.834 5.52 3.175 7.95l-.399.25c-.885-1.113-1.868-3.047-2.95-5.8.066.267.133.55.2.85l-.25.25c-.2-.333-.4-.7-.601-1.1h.65c-.018-.041-.034-.083-.05-.125-.755-1.266-1.737-3.091-2.95-5.476-1.762-3.465-2.762-5.74-3-6.824-4.514-4.043-8.23-8.985-11.15-14.825-.399-.8-.783-1.584-1.149-2.351.014 8.26-1.577 15.485-4.775 21.676-.024.188-.05.362-.075.524-.3 1.8-.883 3.117-1.75 3.95a20.68 20.68 0 0 0-.35-.8 37.502 37.502 0 0 1-1.55 2.149 6.81 6.81 0 0 0-.101 1.15c-.31.025-.593.033-.85.025a39.037 39.037 0 0 1-2.226 2.425 6.437 6.437 0 0 1-1.274 1.95c-1.566 1.566-2.584 3.1-3.05 4.6-.721-.655-1.104-1.297-1.15-1.925a30 30 0 0 1-.825.575c-.2.62-.375 1.237-.524 1.85-.368 0-.651-.309-.851-.925l-.899.55a6.075 6.075 0 0 0-.325.825 7.297 7.297 0 0 0-.175.85l-.851.2c-.1-.167-.184-.434-.25-.8-.007-.044-.016-.086-.024-.125l-.176.1-.05.625c-.1.3-.316.533-.649.7-.301-.134-.467-.283-.5-.45a.695.695 0 0 1-.051-.2c-.653.344-1.319.677-2 1l.95 2.15c.409.868.826 1.718 1.25 2.55.367.7 1.384 3.483 3.05 8.351 1.267 3.767 2.667 6.483 4.2 8.149 1.138 1.23 3.604 2.88 7.4 4.95a37.258 37.258 0 0 1 6.05 2.9 45.655 45.655 0 0 1 5.325 3.6h-.025c0 .033.017.05.05.05a26.605 26.605 0 0 1 4 3.7l-.8 4.5a117.191 117.191 0 0 1-4.5 17.6c.033.2.084.434.15.7-.7 1.233-1 2.884-.9 4.95-.233.167-.5.333-.8.5h-.85a327.801 327.801 0 0 1-1.4 3.15c-.5 1.066-1.017 2.133-1.55 3.199-.967 2.534-1.533 4.067-1.7 4.601-.5 1.566-.65 3.2-.45 4.899.167 1.733.134 3.034-.1 3.9-.334 1.233-2.783 2.467-7.351 3.7a5.373 5.373 0 0 0-1.05.3c-3.833.833-5.783 1.25-5.85 1.25-1.9 0-2.95-.467-3.15-1.4.2-1.066.267-1.75.2-2.05-1.6.334-2.616.5-3.05.5-1 0-1.783-.35-2.351-1.05-.3-.4-.483-.8-.55-1.2-.1-.6 1.884-2.116 5.95-4.55 3.2-1.866 5.366-3.517 6.5-4.95.434-.533.717-1.033.85-1.5.101-.267.351-1.083.75-2.45.434-1.066.851-2.133 1.25-3.199 1.4-3.767 2.634-7.617 3.7-11.551 1.467-11.066-2.017-18.933-10.45-23.6h.025a1.33 1.33 0 0 1-.1-.05 2.574 2.574 0 0 1-.125-.075 172.634 172.634 0 0 1-10.301 16.975c-.033.2-.066.434-.1.7-1.134 1.233-2.017 2.884-2.65 4.95a8.289 8.289 0 0 1-.949.5h-.851a260.723 260.723 0 0 1-2.5 3.15 114.087 114.087 0 0 1-2.7 3.199c-1.833 2.534-2.933 4.067-3.3 4.601-1.033 1.566-1.75 3.2-2.149 4.899-.434 1.733-.917 3.034-1.45 3.9-.767 1.233-3.65 2.467-8.65 3.7a6.354 6.354 0 0 0-1.149.3c-4.134.833-6.233 1.25-6.301 1.25-1.899 0-2.783-.467-2.649-1.4.566-1.066.866-1.75.899-2.05-1.699.334-2.767.5-3.199.5-1 0-1.667-.35-2-1.05-.167-.4-.217-.8-.15-1.2.134-.6 2.65-2.116 7.55-4.55 3.867-1.866 6.617-3.517 8.25-4.95.601-.533 1.05-1.033 1.351-1.5.199-.267.733-1.083 1.6-2.45a99.478 99.478 0 0 0 2.4-3.199 225.801 225.801 0 0 0 7.75-11.551c5.333-11.066 4.6-18.933-2.2-23.6-.033-.01-.05-.026-.05-.05a8.319 8.319 0 0 0-.7-.45c-.467-.267-.95-.533-1.45-.8a2.647 2.647 0 0 1-.4-.5l-.125-.101c-4.621-.926-10.797-4.542-18.524-10.85-7.434-6.066-12.834-11.366-16.2-15.9-.37-.493-.937-1.918-1.7-4.274-1.77.233-3.286.525-4.55.875.2-.9.517-1.733.95-2.5h.175c-.417-.578-.625-1.312-.625-2.2.036-.34.061-.657.075-.95a3.002 3.002 0 0 1-.226.025c-.01.45-.01.976 0 1.575-.133 1.733-.699 2.6-1.699 2.6-.5 0-.834-.134-1-.4-.101-.3-.217-.5-.351-.6-.033.134-.133.6-.3 1.4-.267.767-.717 1.149-1.35 1.149-1.667 0-2.617-.5-2.851-1.5 0-1.233-.166-2.083-.5-2.55h-.149l.149.3v4.2l-.2.3c-.133.167-.449.25-.949.25-.88 0-1.93-1.366-3.15-4.1a3.042 3.042 0 0 1-.125.024c.283.906.425 1.698.425 2.375 0 .767-.05 1.4-.149 1.9-.4.134-1.101.134-2.101 0-1.267-.167-2.017-.25-2.25-.25h-.05c-.382.007-.749.09-1.1.25a.843.843 0 0 1-.75.05c-.067.167-.101.9-.101 2.2-.333.2-1.467.134-3.399-.2-.167.667-.334 1.15-.5 1.45.333.2.083.3-.75.3-.434 0-.75-.166-.95-.5-.167-.399-.3-.666-.4-.8-.7.434-1.116.983-1.25 1.65-.1.433-.483.649-1.149.649-.4 0-1-.166-1.801-.5-.8-.333-1.416-.5-1.85-.5-4.733.634-7.45.95-8.15.95l-2.3.05v.55c0 .4-.024.7-.075.9-.046.218-.12.317-.225.3.333.167.083.25-.75.25a2.188 2.188 0 0 1-1.475-.55c-.591-.436-.933-.669-1.025-.7a2.75 2.75 0 0 1-.225.7c-.307.664-.865 1.098-1.676 1.3-.6.167-1.883.25-3.85.25-1.018 0-2.692-.517-5.025-1.55a61.497 61.497 0 0 1-2.925-1.401c-.893-.1-1.817-.216-2.774-.35.446.614.854 1.197 1.225 1.75 1.091 1.587 1.899 2.921 2.425 4a11.926 11.926 0 0 1 .601 1.5h.024c.134.366.217.667.25.9.267 1.8.017 4.399-.75 7.8-.333 1.366-.7 2.5-1.1 3.399a7.209 7.209 0 0 1-.75 1.351c-.367 2.733-.917 6.267-1.65 10.6-.066.4-.149.834-.25 1.3l-.75 4.601a127.68 127.68 0 0 0-.899 5.3c-.934 5.467-1.417 8.616-1.45 9.45a364.428 364.428 0 0 0-.101 4.85 32.247 32.247 0 0 1-.35 3.45c.033.134.083.4.15.8.133.767-.15 1.9-.851 3.4-.7 1.533-1.45 2.55-2.25 3.05l-.1-.1a20.709 20.709 0 0 0-1.05 1.649 21.03 21.03 0 0 0-1.05 1.65c.3.866.533 1.916.7 3.149.167.967.25 1.9.25 2.801v1.05a19.859 19.859 0 0 1-.45 3.2c-.733 3.1-2.267 4.933-4.6 5.5-.867 1.899-1.85 2.85-2.95 2.85s-1.85-.316-2.25-.95c-.133-.2-.267-.649-.4-1.35a2.502 2.502 0 0 0-.4.25c-.533.3-1.033.55-1.5.75-1.033.533-1.717.8-2.05.8-1.467 0-2.4-.384-2.8-1.15-1.367-.333-2.167-1.25-2.4-2.75-.267-1.533.617-2.5 2.65-2.899.833-.134 1.517-.101 2.05.1l.65-.649a37.551 37.551 0 0 0 2.1-2.351c.167-.166.316-.333.45-.5.067-.3.15-.583.25-.85.1-.367.217-.717.35-1.05a1.96 1.96 0 0 0 .1-.25 33.96 33.96 0 0 1 1.15-2.851c.467-2.166 1.05-4.8 1.75-7.899.733-2.7 1.35-5.017 1.85-6.95-.267-.4-.434-.767-.5-1.101-.167-1.166-.033-2.533.4-4.1a7.236 7.236 0 0 1 .65-1.55c.3-.634.65-1.167 1.05-1.601.2-1.966.2-3.699 0-5.199-.067-.767-.05-1.65.05-2.65.01-.224.027-.457.05-.7-.267-4.567-.4-6.884-.4-6.95.767-9.666 1.15-14.916 1.15-15.75 0-.276-.125-.727-.375-1.35-1.329-.832-2.596-1.915-3.8-3.25-1.651 1.667-3.727 2.5-6.225 2.5-.254 0-.504-.033-.75-.1l-2.05.699c-2.1.601-4.617 1.301-7.55 2.101-.633.333-1.283.666-1.95 1a63.5 63.5 0 0 1-3.35 1.55c-.467.233-.967.467-1.5.7-2.6 1.133-5.883 2.6-9.85 4.399l-5.25 2.25c-.961.447-1.844.881-2.65 1.301.233.472.483.988.75 1.55.396.844.788 1.661 1.175 2.45.573.198 1.214.515 1.925.949.502.297.986.631 1.45 1 .15.047.3.097.45.15.316.108.617.225.9.35.255 2.037 1.104 4.187 2.55 6.45 1.678 2.694 3.887 4.553 6.625 5.575.942 2.352 1.225 4.76.85 7.225 1.083.234 1.625 1.317 1.625 3.25 0 .834-.05 1.15-.15.95a1.638 1.638 0 0 1-.25.075c-.023.409-.056.7-.1.875-.233.667-.783 1-1.65 1-1.392 0-2.392-.175-3-.525l-.7 4.476c-.567 1.533-1.367 2.3-2.4 2.3-.933-.4-1.433-.6-1.5-.6-1.466-.534-2.283-1.384-2.45-2.551-.167-.966.15-2.616.95-4.949-.367-1.167-.816-2.817-1.35-4.95-.434-2-.8-3.601-1.1-4.8-1.1-1.233-2.4-2.75-3.9-4.551a43.762 43.762 0 0 1-1.7-1.8 225.236 225.236 0 0 0-3.05-3.5l.025-.024c-1.791-.746-3.633-2.305-5.525-4.676a42.14 42.14 0 0 1-.95-1.25c-.805-.31-1.372-.993-1.7-2.05-.2-.666-.3-1.666-.3-3 0-1.043.2-2.06.6-3.05a.84.84 0 0 0-.25-.2c.108-.133.225-.266.35-.399.121-.13.246-.255.375-.375 1.273-2.313 3.699-4.455 7.275-6.426 2.325-1.304 7.058-3.271 14.2-5.899.727-.452 1.459-.919 2.2-1.4l2.65-1.55c1.4-.9 2.65-1.684 3.75-2.35.734-.461 1.392-.877 1.975-1.25a35.786 35.786 0 0 0-.325-.65c-.168-.331-.334-.665-.5-1a239.25 239.25 0 0 1-1.975-4c-2.811-5.835-4.527-11.26-5.15-16.275a27.693 27.693 0 0 1-.875-.925 28.938 28.938 0 0 1-2.875-3.8c-1.192-.447-1.984-1.514-2.375-3.2l-.075-1.472c-.922-.384-1.498-.575-1.725-.575 0 .167.017.45.05.85-.1.4-.517.884-1.25 1.45a23.844 23.844 0 0 0-2-3.05c-1.533-1.967-2.883-2.95-4.05-2.95-.867 0-1.967-1.133-3.3-3.399-1.4-2.634-2.367-4.334-2.9-5.101 0 1.2-.267 1.95-.8 2.25-.067-.033-.733-.967-2-2.8-1.267-1.8-1.933-2.7-2-2.7-1.133 0-2.017-.583-2.65-1.75-.533-1.333-.983-2.184-1.35-2.55-.1 0-.167.184-.2.55-.033.167-.05.334-.05.5-.167.3-.417.533-.75.7-.8-.267-1.45-1.017-1.95-2.25-.466-1.167-.566-1.983-.3-2.45-.067-.1-.167-.083-.3.05-.267.2-.567.334-.9.4-.233-.7-.583-2.05-1.05-4.05a.107.107 0 0 0-.025-.05c-.847-.682-1.405-1.148-1.675-1.4-6.333 3.7-17.816 5.55-34.45 5.55h-.15c-1.61-.434-3.459-.643-5.55-.625l-.075.075c-.034 1.397-.234 2.497-.6 3.3a.145.145 0 0 1-.075.075.124.124 0 0 1-.1 0 .145.145 0 0 1-.075-.075.133.133 0 0 1 0-.1c.363-.788.563-1.871.6-3.25v-.025c-.46.01-.935.034-1.425.075l-1.05 1.575a.112.112 0 0 1-.075.05.139.139 0 0 1-.1-.025.11.11 0 0 1-.05-.074.138.138 0 0 1 .025-.101l.95-1.425c-.696.048-1.38.114-2.05.2l-.075.1c-.508 1.577-1.05 2.836-1.625 3.775a.11.11 0 0 1-.075.05.141.141 0 0 1-.1-.025.108.108 0 0 1-.05-.074.138.138 0 0 1 .025-.101c.553-.919 1.078-2.145 1.575-3.675-.955.117-1.871.275-2.75.475l-.6 1.575a.148.148 0 0 1-.075.075.124.124 0 0 1-.1 0 .148.148 0 0 1-.075-.075.133.133 0 0 1 0-.1l.525-1.425c-.706.177-1.389.377-2.05.6l-.125.125c-.101.999-.284 1.849-.55 2.55a.145.145 0 0 1-.075.075.124.124 0 0 1-.1 0 .148.148 0 0 1-.075-.075.133.133 0 0 1 0-.1c.262-.678.446-1.502.55-2.476-.16.061-.318.119-.475.176a5.53 5.53 0 0 1-.45-.4c-1.333-1.366-2-2.583-2-3.65 0-.1.05-.233.15-.399-.633.233-1.2.35-1.7.35-.533 0-.9-.033-1.1-.1l-.15-.15c-.101-.327-.167-.769-.2-1.325a22.615 22.615 0 0 0-6.7 1.4.124.124 0 0 1-.1 0 .145.145 0 0 1-.075-.075.133.133 0 0 1 0-.1.145.145 0 0 1 .075-.075 23.006 23.006 0 0 1 6.75-1.4l.05-.024v-.3c0-.384.017-.759.05-1.125-3.051.373-5.901 1.173-8.55 2.399a.124.124 0 0 1-.1 0 .145.145 0 0 1-.075-.075.133.133 0 0 1 0-.1.148.148 0 0 1 .075-.075c2.667-1.231 5.533-2.032 8.6-2.399l.075-.025c.05-.641.15-1.258.3-1.85l-2.15.473a.139.139 0 0 1-.1-.025.11.11 0 0 1-.05-.074.138.138 0 0 1 .025-.101.11.11 0 0 1 .075-.05l2.25-.5c.055-.192.113-.385.175-.575a1.468 1.468 0 0 1-.225-.375.14.14 0 0 1-.05 0c-1.943-.226-4.052.208-6.325 1.3a.124.124 0 0 1-.1 0 .146.146 0 0 1-.075-.074.136.136 0 0 1 0-.101.148.148 0 0 1 .075-.075c2.303-1.097 4.445-1.53 6.425-1.3-.05-.27-.075-.745-.075-1.425 0-2.667 3.567-6.634 10.7-11.9a124.836 124.836 0 0 1 5.975-4.149c-.752-1.756-2.252-2.765-4.5-3.025a.105.105 0 0 1-.075-.05.141.141 0 0 1-.025-.1.106.106 0 0 1 .05-.075.141.141 0 0 1 .1-.025c2.324.27 3.882 1.312 4.675 3.125a84.02 84.02 0 0 1 2.05-1.3l-1.6-1.675a.084.084 0 0 1-.025-.075.16.16 0 0 1 .05-.1.083.083 0 0 1 .075-.025.163.163 0 0 1 .1.05l1.6 1.675c.39-.234.781-.468 1.175-.699-1.022-3.085-4.147-4.827-9.375-5.226a.158.158 0 0 1-.1-.05.084.084 0 0 1-.025-.075.163.163 0 0 1 .05-.1.084.084 0 0 1 .075-.025c5.341.399 8.541 2.175 9.6 5.325l1.275-.775-1.975-2.899a.145.145 0 0 1-.025-.101.102.102 0 0 1 .05-.074.139.139 0 0 1 .1-.025.109.109 0 0 1 .075.05l2 2.925c.827-.49 1.669-.982 2.525-1.475-1.815-2.807-4.282-4.49-7.4-5.05a.109.109 0 0 1-.075-.05.14.14 0 0 1-.025-.101.106.106 0 0 1 .05-.075.138.138 0 0 1 .1-.024c3.193.569 5.719 2.294 7.575 5.175a157.47 157.47 0 0 1 3.275-1.8c-.983-1.613-2.117-2.979-3.4-4.101a.16.16 0 0 1-.05-.1.084.084 0 0 1 .025-.075.165.165 0 0 1 .1-.05.084.084 0 0 1 .075.025c1.31 1.14 2.468 2.531 3.475 4.175a184.853 184.853 0 0 1 5.95-3.075c3.518-1.759 6.809-3.275 9.875-4.55.105-.141.213-.29.325-.45a.67.67 0 0 1 .125.275c.162-.066.32-.134.475-.2.02-.044.037-.085.05-.125.2-.4.65-.95 1.35-1.65.187.28.287.646.3 1.101l.325-.125c.374-.745.666-1.236.875-1.476.533.2.8.45.8.75.567-.233 1.184-.8 1.85-1.7l1.4-1.85c.167.5.25 1.184.25 2.05.1-.033.267-.184.5-.45.333-.399.567-.666.7-.8.1.167.2.434.3.8.048.177.09.318.125.426.082-.022.165-.048.25-.075.15-.373.292-.707.425-1 .129-.271.262-.514.4-.726.085-2.016.618-4.375 1.6-7.075 1.066-2.9 2.25-5.15 3.55-6.75.4-.467.767-.833 1.1-1.1l.1-.2c.533-.934 1.133-1.533 1.8-1.8 1.733-.633 2.6 1.35 2.6 5.95 0 1.467-.083 2.417-.25 2.85a6.021 6.021 0 0 1-.2.45v1.95c0 1.024-.1 1.983-.3 2.875.236.382.553.824.95 1.325l.025.025a78.108 78.108 0 0 1 3.475-5.475c2.333-3.4 4.167-5.567 5.5-6.5l.2-.2c.833-.6 1.55-.683 2.15-.25.633.534.95 1.633.95 3.3 0 1.1-.5 2.566-1.5 4.4-.633 1.167-1.25 2-1.85 2.5-.5 1.233-1.05 2.65-1.65 4.25-1.028 2.155-2.02 4.014-2.975 5.575a5.09 5.09 0 0 1 1.325-.476c.027-.257.061-.457.1-.6.267-.934.883-1.35 1.85-1.25.1.267.1.583 0 .95v.024c.164-.116.364-.175.6-.175.467 0 .867-.149 1.2-.45.467-.399.867-.666 1.2-.8a35.87 35.87 0 0 1-3 3.851c.026.119.06.236.1.35l.025.05c.85-.638 1.775-1.488 2.775-2.55 1.667-1.767 2.867-2.85 3.6-3.25.067.066-.017.25-.25.55a2.07 2.07 0 0 0-.4 1.25c0 .134.333.45 1 .95v-.45l.2-.2c.133-.033.2.217.2.75 0 .257-.183.765-.55 1.525.062.019.128.035.2.05.266-.38.5-.688.7-.925h.9l.15-.2c.066-.066.1.167.1.7 0 .147-.083.447-.25.9.228.081.469.173.725.274.271-.521.562-1.079.875-1.675l.45.05c.333.033.517.117.55.25-.203.386-.453.978-.75 1.775.424.157.757.273 1 .35.364-.408.747-.717 1.15-.925l.15-.15c.066 0 .1.267.1.801 0 .16-.033.368-.1.625.122.044.255.103.4.175.25.112.475.229.675.35.648-.902 1.356-1.902 2.125-3l.35.15c.267.1.45.217.55.35a83.317 83.317 0 0 1-1.025 1.95h.125c.217 0 .592.2 1.125.6a30.291 30.291 0 0 0 1.375-2.05l.35.2c.033 0 .05.25.05.75 0 .385-.233 1.093-.7 2.125.184.283.284.574.3.875.667-.533 1.167-.866 1.5-1 .193.115.359.257.5.425.558-.505 1.108-.896 1.65-1.175l.15-.2c.066-.066.1.167.1.7 0 .23-.3.864-.9 1.9.205-.101.538-.15 1-.15h.25c.711-.845 1.294-1.494 1.75-1.95l.2-.2c.133-.033.2.217.2.75 0 .679-.167 1.47-.5 2.375.312-.649.846-.975 1.6-.975.159 0 .351.125.575.375.696-.876 1.387-1.585 2.075-2.125l.15-.2c.066-.066.1.167.1.7 0 .223-.408 1.348-1.225 3.375.216.479.325.871.325 1.175l.3-.1c.896-1.759 1.679-3.076 2.35-3.95l.15-.2c.066-.066.1.167.1.7 0 .156-.483 1.332-1.45 3.525.348.296.531.755.55 1.375 1.1-2.467 1.934-4.167 2.5-5.101l.2-.2c.133-.033.2.217.2.75 0 .215-.475 1.772-1.425 4.676.022.011.047.02.075.024.334.056.626.098.875.125.285-.837.526-1.546.725-2.125l.5-.05c.167.2.25.8.25 1.8v.476c.38.034.546.108.5.225l.1 1.1c0 .36-.042.794-.125 1.301.686-1.95 1.111-3.566 1.275-4.851l.5-.05.15-.15c.066 0 .1.267.1.801 0 .399-.15 1.267-.45 2.6-.097.404-.18.779-.25 1.125.093-.104.193-.196.3-.275a8.56 8.56 0 0 1 .1-.449c.267-1.101.733-2.051 1.4-2.851.2.233.317.4.35.5.033.101.05.45.05 1.05 0 .359-.017.759-.05 1.2.41.013.968.088 1.675.226.354-.985.68-1.811.975-2.476.434.134.667.217.7.25.133.101.2.434.2 1 0 .188-.058.688-.175 1.5h.275c.667 0 1.083.033 1.25.101h.05c.191-.938.341-1.639.45-2.101.1 0 .35-.25.75-.75.211 1.012.277 2.146.2 3.4.399.162.883.361 1.45.6 0 .033.117.117.35.25.1.066.15.351.15.851 0 .17-.183.837-.55 2 .115.02.232.045.35.074a.917.917 0 0 0 .05-.175c.134-.134.375-.217.725-.25.439-2.385.781-3.969 1.025-4.75h.5c.133 1.066-.033 2.467-.5 4.2.1-.333.217-.684.35-1.05.267-.667.617-1.217 1.05-1.65h.6c.1.167.167.267.2.3.033.067.05.367.05.9 0 .493-.133 1.651-.4 3.475a.75.75 0 0 1 .05.075c.148.048.298.098.45.15.122-.52.221-.903.3-1.15.7-2.166 1.65-3.916 2.85-5.25.133.233.2.4.2.5.033.101.05.45.05 1.05 0 .398-.017.815-.05 1.25l.05-.05c.333.134.6.367.8.7.233.333.35.684.35 1.05v.05c.497-1.967 1.03-3.483 1.6-4.55h.5l.25.55c-.039.173-.146.723-.325 1.65.287-.229.562-.38.825-.45.166.207.308.407.425.601.608-1.333 1.383-2.45 2.325-3.351.166.3.25.95.25 1.95 0 .562-.075 1.32-.226 2.275a5.58 5.58 0 0 0 .375-1.125c.367-1.567 1.15-2.684 2.351-3.351.36.126.66.352.899.675.351-.545.717-1.036 1.101-1.475.199.167.333.35.399.55.066.267.101.7.101 1.3 0 .812-.117 1.787-.351 2.926v.225c.334-.333.75-1.033 1.25-2.1.162-.421.828-.638 2-.65.262-.359.536-.701.825-1.025.517-1.919.775-2.894.775-2.925.271.568.537 1.343.8 2.325.853-.583 1.503-.875 1.95-.875.217 0 .542.083.975.25.734-1.796 1.576-2.962 2.525-3.5l.199-.15c.134 0 .2.267.2.801 0 .559-.175 1.175-.524 1.85.307.023.573.073.8.15a42.79 42.79 0 0 1 1.075-1.601l.35.15c.267.1.45.217.55.35-.059.177-.358.927-.899 2.25.384-.316.601-.483.649-.5.126-.047.343-.072.65-.075.358-.836.809-1.91 1.35-3.225h1v2.95c.459-.534.908-1.001 1.351-1.4.233.066.466.117.699.15.11.055.177.271.2.649.104-.028.203-.054.3-.074.297-.542.614-1.134.95-1.775h1v.5c.281-.366.564-.699.851-1 .133.1.267.184.399.25.066.134.101.467.101 1 0 .116-.009.241-.025.375.421-.05.813-.075 1.175-.075.704-1.061 1.404-1.894 2.101-2.5l.25.55c-.082.22-.165.437-.25.65.234-.153.484-.32.75-.5.444 0 .853.783 1.225 2.35.637-.815 1.111-1.349 1.425-1.6h1.5c0 .7-.05 1.3-.149 1.8v.25c.1 0 .333-.217.699-.649.4-.4.834-.601 1.301-.601.533 0 .8.15.8.45 0 .098-.017.223-.05.375l.625-.1c.51-.354 1.251-.896 2.225-1.625 1.233-.934 2.116-1.4 2.65-1.4.133.1.25.116.35.05.033.033.05.3.05.8 0 .517-.066.991-.2 1.426.495-.07.987-.137 1.476-.2 1.59-1.517 3.614-2.275 6.075-2.275.433 0 .716.167.85.5.134.3.4.45.8.45.467 0 1.267-.15 2.4-.45 1.166-.333 1.816-.5 1.95-.5.199 0 .35.117.449.351.067.233.334.35.801.35.5 0 2.666-.15 6.5-.45 4.033-.3 7.583-.483 10.649-.55 1.341-.063 3.874-.205 7.601-.425v.175c0 .207.149.357.449.45.735.025 1.469.059 2.2.1 2.601-.2 4.05-.283 4.351-.25.333.033.833.15 1.5.351.433.1 1.35.149 2.75.149.3 0 1.1.05 2.399.15 1.7.133 3.65.25 5.851.35.267.101.483.267.649.5.066.101.15.25.25.45 4.767.267 7.851.85 9.25 1.75.747.498 1.306 1.181 1.675 2.05 2.307.782 4.599 1.641 6.875 2.575.057.021.114.047.176.075a15.694 15.694 0 0 1 4.074 0c2.867.366 4.767 1.483 5.7 3.35 2.467.033 4.117.334 4.95.9.467.333.934.866 1.4 1.6l-.25 1c-.579.063-1.154.122-1.726.175a99.781 99.781 0 0 1 5.875 4.075c-.056.089-.106.172-.151.247zm27.449 50.225a1.504 1.504 0 0 1-.175-.025c.149.315.291.623.425.925-.092-.309-.175-.61-.25-.9zm-85.899-70.825c.119-.447.186-.348.2.3-.195-.056-.263-.155-.2-.3zm-15.25 75.75c-.033-.066-.05-.367-.05-.9-.161 0-.403.467-.726 1.4h1.3c-.279-.077-.455-.244-.524-.5zm173.7-26.275c-.542 1.35-2.408 4.133-5.601 8.351l-.175.324c.838-.7 1.638-1.342 2.4-1.925.882-.793 1.673-1.501 2.375-2.125a.72.72 0 0 0 .3.226c.051-.033.101-.066.149-.101.367-1.553.551-3.077.551-4.575l.001-.175zm-16.5 5.975c-.172.848-.33 1.731-.476 2.649.101-.13.201-.255.3-.375.217-.584.325-1.108.325-1.575.001-.465-.049-.699-.149-.699zm1.35-1.725a50.39 50.39 0 0 0-.225-2.875 53.223 53.223 0 0 0-.75 2.851c.06.206.117.423.175.649.266-.107.523-.183.774-.225a7.74 7.74 0 0 1 .026-.4zm-13.925 15.2c-.849.493-2.09 1.251-3.726 2.275a14.221 14.221 0 0 0 1.75-.301l1.976-1.974zm27.774-2.05c-.164.243-.348.502-.55.774.603-.35 1.202-.7 1.8-1.05a2.602 2.602 0 0 0-.175-.524c-.331.263-.69.53-1.075.8zm-3.424-.375c3.321-2.092 5.062-3.825 5.226-5.2-.681.631-1.697 1.515-3.051 2.65-.239.199-.473.391-.699.574a45.948 45.948 0 0 1-1.476 1.976zm-214.025-61.7a3.424 3.424 0 0 1-.101.125h.025a1.67 1.67 0 0 0 .076-.125zm-5.625.4a.746.746 0 0 1 .175.149c.038-.109.071-.209.1-.3v-.25c-.083.123-.175.257-.275.401zm-17.975 4.15c-.148.545-.34 1.295-.575 2.25.103.086.194.169.275.25.133-.923.267-1.756.4-2.5h-.1zm-32.275-6.45l.025-.05v-.25a1.343 1.343 0 0 1-.125.15l.1.15zm13.275 4.95c-.065.182-.132.382-.2.601.041.009.082.018.125.024l.075-.375v-.25zm-16.45-3.775c.111-.364.211-.673.3-.926-.084.203-.176.411-.275.625-.01.101-.018.201-.025.301zm-23.7-7.025a6.166 6.166 0 0 0-.225.2v.024l.225-.224zm.975 1.925c.171-.283.346-.574.525-.875l.15-.3c-.163.279-.504.612-1.025 1l.35.175zm18.175 58.825h.125a.61.61 0 0 1-.075-.05.586.586 0 0 0-.05.05zm41.4 35.5l-.25-1.5v1.425c.086.02.169.045.25.075z" fill-rule="evenodd"/></svg>