<svg xmlns="http://www.w3.org/2000/svg" xmlns:dc="http://dublincore.org/documents/dcmi-terms/" height="573.987" version="1.2" viewBox="0 0 825 573.987" width="825" overflow="inherit"><metadata><dc:description>Silhouette of Equus ferus przewalskii, processed by PhyloPic Tools (https://github.com/eweitz/phylopic-tools)</dc:description><dc:source>http://phylopic.org/image/85d95128-912c-427a-9542-138e1dbf5651</dc:source><dc:creator>Mercedes Yrayzoz (vectorized by T. Michael Keesey)</dc:creator><dc:license>http://creativecommons.org/licenses/by/3.0/</dc:license></metadata><path d="M147 0h-2c-3.58 8.839-10.422-.762-21 1 1.184 2.526 6.543 6.066 5 8-8.838-3.496-18.966-5.701-31-6 3.13 11.068-11.889 3.29-16 9 3.95 1.717 8.986 2.347 12 5-17.247-3.852-26.236 7.243-40 10 1.442 1.557 4.027 1.973 3 6-4.893 2.107-10.506 3.494-14 7-5.826-2.187-13.598-7.719-17-9 .463 4.538 1.799 8.202 2 13-11.631 1.528-18.42-6.774-28-4 1.42 11.914 13.041 13.626 18 22-6.027 5.307-13.265 9.402-17 17 3.344 1.024 7.786-5.303 9 0C7.863 84.53.802 85.135 0 92c9.104-5.823 14.44-3.362 25-8-2.302 15.181-10.228 34.016-10 54 .207 18.235 3.893 37.816 3 57-.957 20.583-.137 44.348 9 57 9.116 1.066 16.689 12.179 26 4 11.157 7.879 25.207-2.099 31-9 2.401-1.265-.552-7.885 2-9 3.656 5.956 3.935 12.443 10 14 5.308-3.692 1.219-16.782 4-23 2.404 2.292 4.457 10.169 7 9 1.311-7.331-2.204-15.102 0-20 2.033 4.301 2.325 10.342 9 10 .353-5.686-2.084-8.583-2-14 2.555-1.078 3.5 4.305 5 1 1.914-2.644 1.038-9.182 0-12 7.565.271 3.393-18.926 0-23 5.568.432 4.273 7.727 9 9 4.89-4.248-2.738-14.956-1-19 3.511 2.489 3.176 8.824 9 9-2.823-12.917-.7-18.607-2-32 10.582 3.583 13.568 11.718 21 17 13.855 9.847 31.922 13.527 43 24 9.247 8.742 11.861 22.058 23 29 3.296 27.037 16.129 44.538 25 66-14.09 18.699-32.034 42.811-53 58-9.509 6.889-19.521 11.101-21 24-2.734 23.852 5.347 52.047 4 81-.147 3.17-1.902 10.719-1 15 3.753 17.815 27.479 21.529 31 42 9.857 10.225 24.49 20.73 39 23 4.484-18.014 4.561-49.058-16-49-.105-2.562-.566-4.768-2-6-2.197 1.136-3.322 3.345-6 4-4.602-3.398-10.791-5.209-12-12 2.901-2.167 5.752 1.82 7-2-.298-2.76-2.633-8.624-1-10 .016 1.311 2.773 1.273 3 0-2.759-10.413-8.375-17.507-7-26-3.688 2.957-5.146-2.997-7-5 3.096-2.684 3.884 2.703 6 0-6.996-7.854-9.815-22.308-7-37 10.778-6.82 13.019-22.66 24-28 12.334-5.998 32.398-11.016 49-18 11.795-4.962 17.627-13.431 30-12 5.395 13.729 8.752 27.392 13 42 4.11 14.136 12.685 25.974 14 42 .562 6.857-1.119 14.579 0 22 3.162 20.974 16.242 39.782 12 66-1.035 6.396-3.288 14.873-2 24-7.648 9.595-20.1 10.868-28 22-4.141 5.834-7.243 13.253-10 22 14.611 5.847 48.254 6.435 52-11-1.715-9.674-.874-12.049 1-21 3.417-.75 1.271 4.062 5 3 1.713-1.62.387-6.28 4-6 .713 3.287.475 7.525 4 8 1.152-4.485 1.551-9.331 2-12 .294.889 2.706 4.378 3 2 3.945-5.314-2.649-13.068 0-17 1.004 1.593.945 4.023 3 2-.433-6.916-6.605-13.375-6-18 1.002 1.332 1.648 3.018 3 4 .492-10.834-6.427-19.562-7-26 1.283 1.45 5.122 5.455 6 4-11.8-11.905-2.367-28.098-2-45 .614-28.25-6.096-61.543-1-90 1.375-2.959 4.935-3.732 6-7v-13c60.022-.669 115.008-14.974 167-27 7.791 10.209 17.551 18.448 28 26 11.027 20.307 22.359 40.307 39 55 6.131 23.66 12.656 66.498 6 94-4.266 17.623-16.287 29.521-19 44-7.861 4.766-15.365 14.952-22 15-5.041 11.625-14.257 19.076-17 33 14.198 5.619 49.331 12.286 53-5 1.529-7.209-2.66-10.792-2-18 .209-2.281 2.46-.133 3-2 .924-3.195-1.288-8.625 1-13 5 .333 3.404 7.263 9 7-.686-4.513 1.678-2.293 4-2 1.487-5.513.744-13.256 5-16 2.033 2.967 3.283 6.717 7 8 2.193-4.109.219-15.554 1-18 1.123 1.289 2.456 7.438 4 5 1.766-3.471 1.064-11.646 2-13 .295.889 2.705 4.378 3 2 2.42-3.219-.369-11.251 1-13 .239 1.086 1.646 2.4 2 1 2.598-10.942-5.525-16.459-4-23-.307 1.212 2.889 3.448 3 1-10.877-31.726 13.547-48.261 16-76-16.118-12.99-27.99-32.381-30-62 14.951 1.992 21.626 19.249 33 28 9.014 6.935 24.244 9.947 32 20 11.105 14.396 17.638 35.006 23 51 2.825 8.427 8.256 17.862 10 26 4.66 21.749 2.965 60.022-5 75-6.059 3.608-12.17 7.163-17 12-1.283 14.051-12.439 18.228-13 33 15.508 2.667 30.588 5.547 47 3 4.479-8.969 7.01-17.782 4-30 2.312-2.688 6.018-3.982 5-10 4.826 1.493 4.174-2.493 4-6 3.736-1.069 2.85 2.483 6 2 .443-1.89-1.36-6.027 2-5 2.787 1.917 2.666 10.821 7 8v-12c3.781-1.447 1.919 2.748 5 2 1.002-14.34-7.811-24.183-9-33 1.035 1.378 3.965 5.929 5 4-2.255-9.745-6.389-17.612-11-25 .593-5 6.227 5.989 8 3-4.099-12.602-11.186-20.917-14-31-1.434-5.134.17-16.587 0-18-.078-.65-2.184.201-2-2 .729-8.725 5.001-12.483 6-20 1.047-7.878-2.313-16.755 2-25-8.142-11.395-19.772-12.894-29-23-18.297-20.039-16.781-56.996-37-76 9.248-28.086 27.135-47.531 26-86 2.754 2.927 1.043 18.946 6 23 .547-1.453-1.168-5.168 1-5 4.355 25.979 4.971 55.696 12 79 2.503-.125 3.131-1.909 4 1 .447 12.062-1.438 32.691 2 43 1.817-5.85 2.509-12.824 5-18 .49 23.51 8.503 39.497 15 57-.701-4.367 1.701-5.633 1-10v-3c.822-9.758.922 2.629 1 5 .562 17.151 1.641 31.975 10 37 .666-7.334-1.689-17.689 2-22-.271 18.91 2.445 32.708 7 45 2.35 6.34 4.439 12.85 8 18 2.91-8.424 1.633-21.034 5-29 .883 10.783.218 23.115 4 31 13.649-15.661-3.273-41.228 3-64 2.406 8.261 3.426 17.908 5 27 17.705-25.775-3.779-59.287-4-82 3.723 7.277 5.516 16.484 12 21-2.701-21.025-17.357-44.686-22-61-5.996-8.009-13.816-19.51-14-30 5.772 6.228 9.216 14.784 17 19-3.725-24.276-22.768-38.564-29-57 1.125 2.195 3.875 2.195 5 0-4.71-10.632-12.59-18.446-20-28-7.045-9.082-11.279-21.028-19-29-4.516-4.663-11.303-6.835-16-11-9.452-8.379-16.026-20.095-28-25-1.449-1.883-1.471-5.197-4-6-31.086-18.953-82.195-35.088-134-22-3.105.785-5.113 3.364-8 4-27.084 5.965-62.39 6.331-91 5-41.209-1.917-71.426-4.905-95-17 .906-4.76 9.155-2.178 7-10-3.232-1.72-7.667 2.629-13 2 1.049-4.952 9.562-2.438 8-10-6.092.575-11.308 2.025-16 4-2.165-4.248-3.83-6.939-4-11-3.246-.58-4.652.681-7 1-1.359-4.475.966-6.774-3-9-3.188 1.145-2.795 5.872-5 8-1.771-5.895-2.592-12.741-7-16-4.262-2.666-3.113 1.827-5 4-7.477-7.721-22.439-20.481-31-15 .211 1.208 1.109.615 2 0-4.934 3.754-9.362-9.839-16-11 .044 4.653 3.825 10.801 2 14-3.408-6.925-6.927-13.74-11-20-.914 1.753-.344 4.99-2 6-2.107-1.893-2.244-5.755-5-7-8.819 3.62-10.631-6.984-19-7-2.456.793 2.837 6.127-2 6-15.151-9.916-23.528-6.995-40-11-.547 1.453 1.168 5.168-1 5-12.447-5.962-22.746-5.555-36-8-2.716-.715.715 4.715-2 4-3.345-2.988-10.655-2.012-14-5z" fill-rule="evenodd"/></svg>