<svg xmlns="http://www.w3.org/2000/svg" xmlns:dc="http://dublincore.org/documents/dcmi-terms/" height="1796.563" width="2687.188"><metadata><dc:description>Silhouette of Erinaceinae, processed by PhyloPic Tools (https://github.com/eweitz/phylopic-tools)</dc:description><dc:source>http://phylopic.org/image/f83c6893-f0ed-4ec4-b558-aa774c5c9b5b</dc:source><dc:creator>Claus Rebler</dc:creator><dc:license>http://creativecommons.org/licenses/by-sa/3.0/</dc:license></metadata><path d="M133.432 692.557c-19.205-9.326-113.788-39.3-61.035-41.585 30.502 8.148 114.816-8.748 104.724-2.041-22.236-7.259-114.73-38.185-48.525-34.325 3.266.8-96.746-32.663-15.595-26.981 21.45-16.888 97.905-15.004 64.561-46.41-26.328-40.418 44.59 39.652 71.243 7.837-33.341-11.782-71.779-24.024-107.09-35.984 17.633-27.14 70.75-42.2 69.782-18.647-41.26-62.736 39.162 25.93 36.035-8.966 15.841-4.734-85.889-54.86-54.726-49.359 54.662 7.732-26.846-45.28 45.225-7.222-22.242-37.35-31.751-45.586 23.34-12.455 55.1 22.264-3.334-38.704 59.834.002-16.977-17.349-100.86-68.274-35.32-44.212 50.106 18.554 61.403-3.639 23.014-41.552-32.412-42.345 51.673 37.874 58.59 12.615 21.552 35.371 92.759 53.574 33.94 12.485-8.067-47.077-19.433-49.227 29.042-42.041 65.667 20.912 17.662-32.855-11.56-49.446-6.565-11.336 67.983 21.004 8.63-28.438 26.104 12.7 84.15 29.88 26.209-9.946 28.837-16.933 98.876 52.89 83.171 12.878 4.595-9.229 21.15-12.12-3.092-57.06 16.129 26.257 98.362 93.962 81.67 61.216-45.626-44.994-13.67-35.924-16.212-62.392 40.308 55.994 24.646-28.807 50.52 37.074-4.391-37.628 17.173-28.47-7.841-73.814-35.205-62.203 13.952-21.14 25.404 16.186 24.564 16.81-12.818-54.92 3.007-50.585 15.417 14.315 70.091 98.526 55.702 59.775 13.89 7.083 15.033-84.001 20.133-46.296 13.968 78.971 31.976-25.014 22.8-18.47 31.838 69.102-6.956-67.295 32.164 12.468 14.037 52.67 69.717 45.046 25.467-2.21-32.276-31.895-35.908-78.664 2.86-37.987 28.14 22.474 44.105 71.853 24.645.104 32.703 22.203 11.87 23.52 45.379 7.8 42.52 61.348 46.368-24.222 36.469-7.8 14.83 32.717-10.985-38.075 20.322-38.66 6.722 48.565 34.173 47.506 55.228 69.035-2.214-50.196 37.503-31.723 26.441-32.045 19.135 27.743 37.256-36.608 18.476-36.434 2.973 39.744 32.723 54.526 21.355-1.222 4.643-79.253 21.928 58.345 30.375 33.803-19.789-43.223 29.384 4.625 26.676-52.828 31.826 3.726 26.825 62.568 40.152-1.664 10.877 21.01 49.525 92.99 30.64 92.32 1.283-22.357 13.715-118.807 19.673-53.647-4.473 72.195 23.983-38.139 15.405 43.433 8.8-66.077 21.696-39.113 29.1-34.841 5.106-58.925 47.977 17.772 25.33 45.146 16.334 44.507 29.609-71.689 41.268-30.757 23.061-4.18 14.702 55.507 35.846 19.814-6.428-52.73 30.326-49.242 28.596 3.298-.954 63.815 16.343-27.553 45.72 11.395 32.344-27.375 48.412 24.131 39.39 4.798 23.984-44.665-1.014 84.356 27.545 18.765 18.54-51.6 13.637 32.841 49.292-2.713 38.14-38.027-2.934 87.045 38.99 21.363.806 51.561 31.737-67.73 21.152 15.276 1.385 73.908 6.075-34.51 26.453-15.433-4.745 74.307 7.5 24.93 19.002-19.046 5.514 21.332-11.53 102.308 29.495 75.458-2.242-50.877 44.904-64.989 31.582-4.83 22.311 24.72 103.73-23.15 69.656 30.26 2.486 27.95 58.64-77.506 35.717-12.452 22.073-10.075 7.088 44.287 38.218 65.033 32.075-35.85 46.883 43.156 80.08-16.568-24.03 52.235 46.02-67.171 35.842-12.362-28.063 28.812 10.342 79.604 41.476 42.737-11.087 87.474 23.701-30.722 28.723-3.803-6.758 41.226 17.725 86.802 63.354 60.053 21.102 13.175 48.837 33.057 42.981 75.053 17.467-34.242 43.58-7.808 71.004-15.605 37.74 8.669 41.556 91.103 41.024 17.087-1.392-75.964 8.417-1.502 15.243 32.896 29.037 39.344 15.145-106.966 22.691-52.584-6.373 38.9 13.41 105.168 15.764 30.796 29.307-12.929 20.662-109.528 31.106-40.64-5.32 82.398 38.796-16.626 48.709 8.763-5.593 28.364 38.331 108.103 32.725 41.016 18.61-62.547 46.242 11.401 50.201 19.348 27.568-60.575 21.312-2.065 15.944 34.24 14.98 26.14 56.462-72.95 47.951 5.012-16.548 29.647-1.836 79.91 30.936 33.568 15.438-29.552 51.83-33.45 31.654 3.631-23.562 37.376 22.017 63.672-17.092 93.633-23.89 30.273-13.501 78.348-12.361 115.922 31.939 25.102-8.094 73.955 33.67 99.38 21.177 45.097 20.855 99.005 4.989 144.504-6.91 38.664 22.643 78.114 6.515 114.101-12.003 46.026-21.305 99.029-5.259 148.104 5.936 46.111 4.802 94.295 30.672 135.24-.174 34.729 15.334 68.21 9.734 100.63 1.785 56.88-54.444 84.097-99.651 58.837-42.768-18.225-87.742-56.903-138.068-24.853-49.314-16.084-112.754-45.215-168.443-52.466-62.456-1.12-118.726-86.416-176.728-5.522-49.346 7.075-167.758-36.569-140.83 66.272 63.91 88.057 155.79 34.702 231.955 49.705 38.864-41.172 178.937 7.008 69.034 11.045-73.774 35.092 121.814-2.55 57.989 30.375-60.06 23.672-78.617 88.351-157.398 82.841-111.011 37.595-221.678-28.989-333.09-30.72-93.102 12.161-213.575 62.246-287.138-20.753-39.078-25.13-85.017-151.444-139.147-45.174-85.058 16.06-184.137 81.602-271.131 22.09-49.206-3.196-118.22 25.063-156.88 52.466-54.927-22.74-103.088-4.167-22.091 22.091 30.911 27.126-134.208-22.206-58.55 30.807-44.879.876-102.686 9.87-165.12 10.614-60.068-16.063-168.597 72.85-227.468-24.853-92.91-57.808-114.63-179.357-214.696-227.122-49.05-32.237-36.172-146.426-107.089-74.643-78.932 17.688 58.732-104.24-20.279-49.273-42.026-1.487-51.718-17.689-2.07-38.314 16.975-47.124-73.927 20.484-38.66-46.943 59.228-53.575-72.48 16.012-22.09-27.614 47.585-84.555-80.853 38.507-41.006-20.16 15.84-44.192 69.173-39.386 18.914-66.326-.96-33.677 36.83-42.235 0-59.866 61.96-16.923 9.921-51.518-22.873-15.046 12.349-7.803-16.036-62.034 29.106-66.69-15.44-16.914-77.539-48.276-14.683-58.71 41.956-12.316-93.803-31.643-3.283-33.993 71.105-24.182-77.93 2.594-8.654-17.329 44.469-7.004 66.586-35.923 31.64-40.29 31.311-17.442-21.214-31.723 46.757-37.18.044-7.141-116.602 12.793-54.624-22.513 74.688-15.293.048-13.97-35.928-16.949-5.846-9.85 73.895-11.799 90.45-35.269-4.718-14.797-93.18 7.033-16.487-23.292-47.636-14.3 17.593-19.317-13.252-39.395 84.382 28.438 9.299-15.129 43.627-26.878z" stroke="#000"/></svg>