<svg xmlns="http://www.w3.org/2000/svg" xmlns:dc="http://dublincore.org/documents/dcmi-terms/" height="792" version="1.2" viewBox="0 0 612 792" width="612"><metadata><dc:description>Silhouette of Eubalaena, processed by PhyloPic Tools (https://github.com/eweitz/phylopic-tools)</dc:description><dc:source>http://phylopic.org/image/281d59cc-200e-49d4-98a4-9decec603592</dc:source><dc:creator>Chris huh</dc:creator><dc:license>http://creativecommons.org/licenses/by-sa/3.0/</dc:license></metadata><path d="M425.5 305.8l49.2 16.25c.5.134 1.1.283 1.8.45.7.134 1.5.283 2.4.45.866.133 1.816.267 2.85.399l11.05 1.25 18.55 1.351 36.601 1.3.399-.05 6.7-.101c1-.033 1.9-.066 2.7-.1.8-.066 1.533-.134 2.2-.2.6-.1 1.116-.184 1.55-.25.434-.1.767-.2 1-.3.233-.167.483-.283.75-.35.233-.134.45-.233.65-.301.366-.1.75-.149 1.149-.149h.2c.467.033.967.149 1.5.35.233.066.517.167.85.3l1 .5c.367.167.75.334 1.15.5.4.134.8.25 1.2.351.366.1.733.184 1.1.25.3.033.584.066.851.1h.1c.267-.033.5-.083.7-.149a1.76 1.76 0 0 1 .649-.101h.101c.233 0 .483.017.75.05.267.034.566.117.899.25.334.067.65.184.95.351.334.133.65.3.95.5.267.166.6.333 1 .5.4.166.833.3 1.3.399.434.101.9.184 1.4.25.467.067.95.101 1.45.101s.983-.033 1.449-.101l1.7-.1c.334 0 .65.017.95.05.3.033.583.084.85.15.9.2 1.601.6 2.101 1.2.7.866 1.733 1.3 3.1 1.3.233 0 .5-.017.8-.05.267-.034.567-.084.9-.15.267-.066.533-.1.8-.1a6.32 6.32 0 0 1 .8-.051c.534 0 1.084.051 1.65.15.5.1 1.017.25 1.55.45.5.2.983.467 1.45.8.267.167.583.316.95.45.333.133.7.267 1.1.399.4.101.816.184 1.25.25.434.067.884.117 1.351.15l2.649-.05a96.56 96.56 0 0 0 1.25-.2c.4-.066.783-.15 1.15-.25.333-.1.649-.217.95-.35.267-.167.517-.317.75-.45.399-.334.616-.7.649-1.101 0-.466.434-.833 1.3-1.1.4-.134.884-.233 1.45-.3a14.88 14.88 0 0 1 1.9-.2l4.85-.1c.867.033 1.767.083 2.7.149.934.033 1.884.117 2.85.25.967.101 1.934.217 2.9.351.934.133 1.866.283 2.8.449a31.82 31.82 0 0 1 2.7.601c.833.2 1.65.416 2.45.649.8.233 1.6.517 2.399.851.801.333 1.601.7 2.4 1.1.767.367 1.533.783 2.3 1.25.767.434 1.517.9 2.25 1.4.7.5 1.4 1.017 2.101 1.55.666.533 1.333 1.1 2 1.7a48.9 48.9 0 0 1 1.85 1.85c.6.634 1.167 1.283 1.7 1.95.533.634 1.05 1.3 1.55 2 .467.667.9 1.366 1.3 2.1.4.7.783 1.417 1.15 2.15.333.7.633 1.434.899 2.2l4.2 10.399c.167.434.351.9.55 1.4.167.5.317 1.05.45 1.65.134.533.267 1.116.4 1.75.1.6.2 1.233.3 1.899.1.634.184 1.3.25 2l.1 2.05c.034.667.051 1.351.051 2.051a43.342 43.342 0 0 1-.2 4.15l-.2 2c-.134.667-.25 1.3-.35 1.9a24.384 24.384 0 0 1-.45 1.8 10.14 10.14 0 0 1-.55 1.6l-.851 1.601c-.333.5-.684 1-1.05 1.5-.4.467-.816.934-1.25 1.399-.467.434-.934.834-1.4 1.2-.466.334-.883.634-1.25.9-.399.267-.767.5-1.1.7a8.176 8.176 0 0 1-1.1.5c-.4.133-.784.25-1.15.35-.4.1-.85.167-1.35.2-.5.066-1.017.1-1.551.1l-12.1-.45-9.75 6.95a394.275 394.275 0 0 1-18.25 12.101 399.108 399.108 0 0 1-18.75 11 421.534 421.534 0 0 1-19.35 9.8 373.123 373.123 0 0 1-19.9 8.6 371.972 371.972 0 0 1-20.45 7.45c-6.967 2.3-14 4.4-21.1 6.3a401.768 401.768 0 0 1-21.65 5.15 450.369 450.369 0 0 1-22.25 3.95L457.3 469.1l-7.25 10.95c-.899 1.334-1.833 2.7-2.8 4.101-1 1.366-2.033 2.783-3.1 4.25a483.608 483.608 0 0 0-3.301 4.35 393.46 393.46 0 0 1-3.449 4.3 470.444 470.444 0 0 1-3.5 4.25 1193.4 1193.4 0 0 0-3.5 4.101 218.587 218.587 0 0 1-3.45 3.85 261.207 261.207 0 0 0-3.25 3.5l-3.05 3.05c-.967.934-1.867 1.783-2.7 2.55a75.423 75.423 0 0 1-2.3 1.95c-.733.533-1.367.95-1.9 1.25-.5.267-.967.5-1.4.7-.5.167-.949.3-1.35.4-.4.066-.767.1-1.1.1-.5 0-.983-.066-1.45-.2a5.214 5.214 0 0 1-1.3-.5 12.657 12.657 0 0 1-1.351-.85c-.467-.334-.95-.717-1.45-1.15a33.78 33.78 0 0 1-1.6-1.5c-.434-.434-.816-.85-1.15-1.25-.399-.434-.75-.866-1.05-1.3a20.38 20.38 0 0 1-1.8-2.8c-.3-.533-.566-1.084-.8-1.65a22.031 22.031 0 0 1-.75-1.8 30.384 30.384 0 0 1-.75-2.1c-.267-.733-.517-1.5-.75-2.301l-2.7-8.8-5 .75-1.3.05c-.5 0-.983-.017-1.45-.05l-.85-.1-.799-.201c-.5-.1-.916-.233-1.25-.4-.899-.5-1.767-1.35-2.6-2.55a15.98 15.98 0 0 1-1.2-1.95 31.002 31.002 0 0 1-1.149-2.35 50.283 50.283 0 0 1-.95-2.7 26.585 26.585 0 0 1-.851-2.899 33.862 33.862 0 0 1-.649-3.101 34.773 34.773 0 0 1-.45-3.2l-.75-7.55-7.3-.75-13.751-2.15-27.7-6.25-10.2-2.851c-10.967-3.233-22.166-7.017-33.6-11.35-11.434-4.334-23.033-9.184-34.8-14.55-11.8-5.399-23.85-11.333-36.15-17.799-12.3-6.5-24.75-13.517-37.35-21.05l-26.7-15.05-13.75-5.45-19.75-5.75-2.1-.4a25.686 25.686 0 0 0-2.199-.351 51.708 51.708 0 0 0-2.851-.35l-24.25-1.55-18.9-.249c-.934 0-1.767.033-2.5.1-.733.033-1.334.083-1.801.15-.466.066-.816.149-1.05.25-.233.066-.583.316-1.05.75l-13.3 14.6a389.44 389.44 0 0 1-3.95 4.6c-1.366 1.567-2.75 3.15-4.15 4.75a520.45 520.45 0 0 1-4.399 4.851 702.118 702.118 0 0 0-4.601 4.95 6534.542 6534.542 0 0 1-4.75 4.949l-4.899 5a683.123 683.123 0 0 1-4.95 5 718.859 718.859 0 0 0-5.05 4.9 663.328 663.328 0 0 0-5 4.85 707.22 707.22 0 0 0-5.05 4.7 604.225 604.225 0 0 1-4.95 4.601 3968.217 3968.217 0 0 1-9.65 8.649 364.324 364.324 0 0 1-4.6 3.95c-1.5 1.3-2.967 2.55-4.4 3.75a307.82 307.82 0 0 0-4.2 3.4 854.148 854.148 0 0 0-3.949 3.1 148.412 148.412 0 0 1-3.65 2.7 96.403 96.403 0 0 1-3.3 2.35c-1.067.7-2.05 1.351-2.95 1.95a46.303 46.303 0 0 1-2.55 1.45c-.8.399-1.517.733-2.15 1-.466.166-.866.3-1.2.399-.367.101-.7.15-1 .15-.267 0-.483-.033-.65-.1a2.285 2.285 0 0 1-1.1-1 3.956 3.956 0 0 1-.3-.801 9.718 9.718 0 0 1-.25-1.05c-.033-.366-.05-.75-.05-1.149a9.227 9.227 0 0 1 0-1.351c.033-.5.1-1 .2-1.5.066-.533.15-1.066.25-1.6.1-.566.233-1.15.4-1.75.167-.601.35-1.217.55-1.851.167-.633.383-1.267.65-1.899.2-.667.45-1.334.75-2l3.9-8.2 23.649-44.7c.2-.366.4-.684.601-.95l.7-.949c.166-.301.316-.567.449-.801.267-.5.417-.949.45-1.35.033-.434-.05-.9-.25-1.4-.1-.267-.217-.55-.35-.85l-.5-1.05a19.689 19.689 0 0 0-1.05-1.851c-.4-.6-.784-1.166-1.15-1.699-.4-.534-.816-1.051-1.25-1.551a19.48 19.48 0 0 0-1.4-1.449c-.5-.467-1.033-.917-1.6-1.351a21.638 21.638 0 0 0-1.75-1.3c-.6-.401-1.233-.8-1.9-1.2a43.866 43.866 0 0 0-2.149-1.149l-2.101-1.2c-.666-.4-1.216-.767-1.649-1.101-.467-.366-.8-.683-1-.949-.2-.267-.25-.483-.15-.65.1-.167.3-.366.6-.6.267-.267.667-.567 1.2-.9.466-.333 1.033-.7 1.7-1.1.667-.434 1.4-.867 2.2-1.301l17.65-9.449 14-6.101L2.55 352.9l22.9-6.801 2.55-1.25 2.95-2.149 21.95-20.45 14-11.35a114.66 114.66 0 0 1 5.35-3.65 150.76 150.76 0 0 1 5.7-3.55 259.611 259.611 0 0 1 6-3.45 220.292 220.292 0 0 1 6.25-3.3c1.399-.733 2.833-1.45 4.3-2.15 1.434-.7 2.884-1.366 4.35-2 1.434-.7 2.884-1.366 4.351-2 1.467-.633 2.934-1.25 4.399-1.85 1.467-.601 2.95-1.184 4.45-1.75a78.14 78.14 0 0 1 4.4-1.65c1.434-.533 2.883-1.05 4.35-1.55 1.467-.5 2.917-.967 4.351-1.4 1.433-.433 2.866-.85 4.3-1.25a95.008 95.008 0 0 1 6.2-1.649 107.4 107.4 0 0 1 6-1.3l37.1-7.45c1.066-.167 2.167-.3 3.3-.4a54.282 54.282 0 0 1 3.4-.3l11.55-.7 37.5-.3 32.25 1 16.15 2.05 27.899 4.5 40 8.101 33.15 8.399L425.5 305.8z" fill="#010101" fill-rule="evenodd"/></svg>