<svg xmlns="http://www.w3.org/2000/svg" xmlns:dc="http://dublincore.org/documents/dcmi-terms/" height="792" version="1.2" viewBox="0 0 612 792" width="612"><metadata><dc:description>Silhouette of Eubalaena glacialis, processed by PhyloPic Tools (https://github.com/eweitz/phylopic-tools)</dc:description><dc:source>http://phylopic.org/image/fb533874-aa63-4f76-baf0-e9ceacd7333c</dc:source><dc:creator>Chris huh</dc:creator><dc:license>http://creativecommons.org/licenses/by-sa/3.0/</dc:license></metadata><path d="M227.075 269.175h7.45l24.75.5 30.8 3.625 60.774 11.55 60.525 16.4L474.75 322c.506.142 1.105.283 1.8.425.702.151 1.494.301 2.375.45.872.143 1.822.284 2.851.425l7.024.825 66.3 2.925a90.69 90.69 0 0 0 2.7-.125 46.303 46.303 0 0 0 2.175-.2 16.517 16.517 0 0 0 1.575-.25c.431-.091.755-.191.976-.3a7.526 7.526 0 0 1 1.425-.625 4.114 4.114 0 0 1 1.149-.15h.2c.45.028.942.137 1.476.325.262.087.545.196.85.325l1 .475c.383.187.775.353 1.175.5.397.147.788.272 1.175.375.387.109.754.193 1.101.25.318.048.61.073.875.075h.075c.281-.01.514-.052.699-.125.191-.074.416-.115.676-.125h.1c.226.004.467.029.725.075.299.049.607.125.926.225.326.094.652.211.975.35a7.3 7.3 0 0 1 .9.5c.299.196.641.371 1.024.525.395.157.819.29 1.275.4.448.109.915.192 1.399.25.486.061.979.094 1.476.1.505-.005.988-.039 1.45-.1l1.699-.1c.334.001.65.018.95.05.294.027.569.068.825.125.92.213 1.628.622 2.125 1.225.699.852 1.724 1.276 3.075 1.275.262.007.536-.001.825-.025a9.85 9.85 0 0 0 .875-.15 8.309 8.309 0 0 1 1.625-.15 8.486 8.486 0 0 1 1.625.15c.26.054.519.121.774.2.263.071.521.154.775.25.505.21.988.468 1.45.775.287.178.604.336.949.475.348.146.723.271 1.125.375.403.111.82.202 1.25.275.432.061.873.103 1.325.125l1.875.025.8-.075a14.37 14.37 0 0 0 1.25-.175c.396-.068.771-.152 1.125-.25a6.67 6.67 0 0 0 .95-.375c.287-.137.537-.287.75-.45.421-.318.637-.685.65-1.1.022-.448.455-.807 1.3-1.075a10.59 10.59 0 0 1 1.475-.325 21.772 21.772 0 0 1 1.9-.2l4.825-.075c.887.023 1.796.065 2.725.125.935.065 1.886.148 2.851.25.964.107 1.922.232 2.875.375a72.37 72.37 0 0 1 2.824.45c.926.175 1.818.367 2.676.575.856.208 1.673.434 2.449.675.822.249 1.639.532 2.45.85a36.371 36.371 0 0 1 4.675 2.325c.758.44 1.5.907 2.226 1.4.718.5 1.417 1.026 2.1 1.575a38.385 38.385 0 0 1 2 1.7 37.202 37.202 0 0 1 1.875 1.85 32.383 32.383 0 0 1 4.549 6.025c.412.708.787 1.425 1.125 2.15.339.73.639 1.463.9 2.2l4.2 10.425c.196.442.38.917.55 1.425.172.503.33 1.037.475 1.6.147.56.281 1.143.4 1.75.115.614.215 1.248.3 1.9.089.653.165 1.32.226 2 .056.675.098 1.358.125 2.05.031.689.048 1.381.05 2.075a50.572 50.572 0 0 1-.05 2.1 45.413 45.413 0 0 1-.15 2.05c-.06.679-.135 1.346-.225 2a31.77 31.77 0 0 1-.351 1.9 27.988 27.988 0 0 1-.425 1.8l-.575 1.6-.85 1.575a15.317 15.317 0 0 1-1.05 1.525 15.64 15.64 0 0 1-1.25 1.375c-.445.441-.912.85-1.4 1.225-.426.333-.835.633-1.225.9a15.66 15.66 0 0 1-1.125.699c-.354.193-.721.36-1.101.5a8.423 8.423 0 0 1-1.149.351c-.398.095-.84.17-1.325.225-.485.045-1.01.07-1.575.075l-12.075-.45-9.774 6.925a372.599 372.599 0 0 1-18.226 12.125 366.875 366.875 0 0 1-18.774 10.976 363.692 363.692 0 0 1-19.351 9.8 361.538 361.538 0 0 1-19.875 8.625 368.358 368.358 0 0 1-20.475 7.45c-6.95 2.3-13.976 4.4-21.075 6.3a391.48 391.48 0 0 1-21.675 5.125 411.057 411.057 0 0 1-22.25 3.975l-12.726 1.926L450.075 480a172.572 172.572 0 0 1-2.8 4.075 204.818 204.818 0 0 1-3.075 4.25 275.87 275.87 0 0 1-3.325 4.35 288.88 288.88 0 0 1-3.45 4.325 308.255 308.255 0 0 1-3.5 4.275 272.262 272.262 0 0 1-3.5 4.074 245.572 245.572 0 0 1-3.425 3.825 188.11 188.11 0 0 1-3.25 3.5 128.855 128.855 0 0 1-3.05 3.05 85.422 85.422 0 0 1-2.7 2.551 40.317 40.317 0 0 1-2.325 1.949c-.704.54-1.329.966-1.875 1.275-.489.271-.964.496-1.425.675-.459.181-.9.313-1.325.4-.368.078-.735.12-1.1.125a5.39 5.39 0 0 1-1.451-.2 6.818 6.818 0 0 1-1.3-.5 10.6 10.6 0 0 1-1.351-.85 19.906 19.906 0 0 1-1.449-1.176 30.2 30.2 0 0 1-1.625-1.5 24.295 24.295 0 0 1-1.15-1.25c-.371-.42-.722-.845-1.05-1.274a19.9 19.9 0 0 1-.925-1.351 22.204 22.204 0 0 1-.875-1.475 27.099 27.099 0 0 1-.801-1.625 36.287 36.287 0 0 1-.75-1.825 56.157 56.157 0 0 1-.75-2.075 80.054 80.054 0 0 1-.75-2.324l-2.675-8.801-4.125.65c-.586.087-1.194.138-1.825.15h-.375a16.09 16.09 0 0 1-1.449-.051c-.6-.06-1.148-.151-1.65-.274-.493-.113-.901-.255-1.225-.425-.892-.493-1.758-1.335-2.601-2.525a19.215 19.215 0 0 1-1.225-1.975 26.593 26.593 0 0 1-1.125-2.351c-.35-.849-.675-1.74-.976-2.675a43.233 43.233 0 0 1-.85-2.925 42.91 42.91 0 0 1-.65-3.075 45.868 45.868 0 0 1-.449-3.2l-.75-7.575-14.976-1.8-43.975-10.175c-10.942-3.233-22.133-7.017-33.575-11.35-11.438-4.339-23.047-9.197-34.825-14.575-11.788-5.376-23.83-11.31-36.125-17.8-12.292-6.497-24.75-13.505-37.375-21.025l-26.7-15.05-21.475-7.975-14.1-3.65a47.02 47.02 0 0 0-2.225-.35 92.615 92.615 0 0 0-2.85-.35l-15.425-1.15-27.7-.65c-.931.024-1.764.057-2.5.1a24.04 24.04 0 0 0-1.8.175c-.477.064-.827.14-1.05.225-.227.094-.585.353-1.075.775-.484.428-1.076.995-1.775 1.7l-11.525 12.875a338.796 338.796 0 0 1-3.925 4.625 383.836 383.836 0 0 1-4.175 4.75 466.814 466.814 0 0 1-4.4 4.851 610.372 610.372 0 0 1-9.35 9.9 616.508 616.508 0 0 1-4.875 5 729.31 729.31 0 0 1-4.975 4.976 719.882 719.882 0 0 1-5.025 4.899 757.769 757.769 0 0 1-5.025 4.851 700.51 700.51 0 0 1-5.025 4.725 662.914 662.914 0 0 1-4.95 4.6 568.352 568.352 0 0 1-4.9 4.4 571.73 571.73 0 0 1-4.75 4.225 487.44 487.44 0 0 1-4.6 3.976 414.95 414.95 0 0 1-4.425 3.725 312.97 312.97 0 0 1-4.2 3.4 260.921 260.921 0 0 1-3.925 3.1c-1.27.972-2.487 1.88-3.65 2.726a122.62 122.62 0 0 1-3.325 2.35 81.548 81.548 0 0 1-2.95 1.925 42.934 42.934 0 0 1-2.55 1.476c-.791.414-1.508.748-2.15 1a9.08 9.08 0 0 1-1.2.399 4.184 4.184 0 0 1-.975.125 1.966 1.966 0 0 1-.675-.1c-.445-.181-.804-.515-1.075-1a3.938 3.938 0 0 1-.325-.8 6.786 6.786 0 0 1-.225-1.025 10.142 10.142 0 0 1-.075-1.175c-.012-.425-.004-.875.025-1.351.038-.476.096-.976.175-1.5.072-.513.164-1.047.275-1.6.113-.564.246-1.147.4-1.75a42.172 42.172 0 0 1 1.175-3.75 51.36 51.36 0 0 1 .75-2l.5-1.125L-24 396.3c.255-.351.48-.676.675-.975.189-.295.348-.562.475-.8.264-.481.415-.931.45-1.351.025-.421-.058-.888-.25-1.4-.09-.252-.207-.535-.35-.85l-.525-1.05a28.19 28.19 0 0 0-1.05-1.85 25.112 25.112 0 0 0-1.15-1.7 22.23 22.23 0 0 0-4.225-4.35 27.708 27.708 0 0 0-1.75-1.275 33.175 33.175 0 0 0-1.925-1.225c-.683-.392-1.4-.775-2.15-1.15l-2.1-1.175a18.058 18.058 0 0 1-1.625-1.125c-.452-.349-.785-.657-1-.925-.214-.279-.272-.496-.175-.65.099-.153.299-.353.6-.6.302-.254.702-.554 1.2-.9.5-.341 1.075-.716 1.725-1.125l28.225-14.575 23.35-8.225 11.05-2.975 2.55-1.25c.289-.18.589-.38.9-.6l.975-.7 12.425-11.475 24.6-21.2c1.716-1.218 3.5-2.426 5.35-3.625a170.176 170.176 0 0 1 5.725-3.55 214.773 214.773 0 0 1 16.525-8.9 232.698 232.698 0 0 1 4.35-2.025 224.634 224.634 0 0 1 4.375-1.975 236.842 236.842 0 0 1 4.4-1.85 231.95 231.95 0 0 1 4.425-1.775 227.047 227.047 0 0 1 4.4-1.65 207.44 207.44 0 0 1 4.4-1.525 194.777 194.777 0 0 1 8.6-2.675 154.603 154.603 0 0 1 6.225-1.65c2.047-.492 4.047-.925 6-1.3l37.1-7.45c1.067-.135 2.159-.26 3.275-.375a155.29 155.29 0 0 1 3.4-.325l11.575-.675 23.025-.325h7z" fill="#010101" fill-rule="evenodd"/></svg>