<svg xmlns="http://www.w3.org/2000/svg" xmlns:dc="http://dublincore.org/documents/dcmi-terms/" height="672.157" version="1.2" viewBox="0 0 1525.665 672.157" width="1525.665" overflow="inherit"><metadata><dc:description>Silhouette of Eucritta melanolimnetes, processed by PhyloPic Tools (https://github.com/eweitz/phylopic-tools)</dc:description><dc:source>http://phylopic.org/image/4aae0269-8d9f-4a5c-a417-4ab00cd97076</dc:source><dc:creator>Dmitry Bogdanov (vectorized by T. Michael Keesey)</dc:creator><dc:license>http://creativecommons.org/licenses/by-sa/3.0/</dc:license></metadata><path d="M238.665 335.157c-9.976 8.949-31.128 14.348-52 15-5.493.172-13.03-3.656-15 4-.004 6.337 12.004.663 12 7-8.674 3.906-26.904 1.616-30 8-6.17-.938-9.795-.876-14 2 10.917 6.158 27.052 2.064 42 5-10.367 13.737-31.148 16.167-43 26 12.59 11.271 28.768-7.754 46-3 .812 14.711-21.234 18.733-20 34 13.048-3.327 24.482-16.819 38-23 .361 9.374-11.698 17.331-7 29 18.757-13.605 28.986-32.924 46-45 2.879-2.043 7.422-2.758 11-5 3.771-2.363 6.531-6.355 10-8 6.676-3.165 11.739-3.502 18-8 2.551-1.833-1.042-1.908 2-2 3.192-.096 19.128-16.397 21-28 32.51 22.872 71.745 42.677 112 56 26.697 8.836 59.911 12.852 91 19 16.069 3.178 31.652 7.432 49 9 20.021 1.81 40.267 4.964 65 3-.078 6.22-7.814 9.637-12 13-16.725 13.438-30.66 32.267-45 49-19.871 7.93-48.671 3.233-68 13 5.167 8.166 24.027 2.64 31 9-17.809 13.525-52.53 10.137-63 31 17.19 3.784 45.117-8.948 59 1-1.8 6.534-7.063 9.604-13 12-12.098 12.902-29.384 20.617-45 30-2.146 4.854-6.936 7.064-9 12 17.266 3.727 37.582-14.25 59-21 9.695-3.056 20.795-5.043 31-2 1.748 7.314-1.019 14.21-4 20-12.25 23.79-29.519 44.204-31 75 9.289-2.044 11.861-10.805 15-19 15.218-16.335 30.493-46.637 54-61 7.066 13.282-2.19 27.212 5 40 11.84-6.812 13.173-20.879 17-33 9.368-29.671 25.704-56.563 44-77 6.997-16.336 13.904-32.763 27-43 4.021-.688 5.709.958 9 1 15.009-7.258 35.027-15.145 57-17 25.353-2.141 51.433 4.947 80 3 51.949-3.542 108.206-4.667 156 0 59.763-3.507 128.354.366 190 12 30.988 5.848 63.392 14.688 94 23 66.052 17.938 119.534 52.95 176 81 25.698 12.766 41.39 38.123 63 55 2.593 2.025 8.329 3.731 10 5 5.95 4.519 8.967 12.035 18 9-3.528-9.186-10.514-15.693-17-23-5.876-6.619-13.618-12.909-19-20-3.302-4.351-4.559-10.617-8-15-10.476-13.342-23.29-24.257-31-39-20.259-22.082-39.396-44.337-67-59-8.261-4.389-14.954-7.789-22-13-6.331-4.682-12.135-10.221-19-15-27.664-19.258-62.813-27.855-90-48-20.321-7.787-40.381-21.346-64-26-13.165-2.594-29.289-1.022-39-9-23.494-7.213-46.675-13.827-74-18-11.683-1.784-23.626.477-35-2-24.533-5.342-49.493-16.709-77-19-21.739-1.811-42.693-2.348-65-3-5.933-2.437-14.901-9.444-22-10-5.187-7.37-5.657-17.097-9-27-3.02-8.947-12.45-19.342-18-30-3.058-5.873-7.181-17.607-12-23-11.526-12.898-28.757-20.979-49-15-19.64 5.802-30.816 28.286-38 48-16.702-7.63-31.344-20.056-47-31-15.202-10.627-31.941-19.38-48-30-34.072-22.532-71.975-46.024-111-66-16.75-8.574-29.411-15.192-48-22-23.118-8.466-45.508-19.947-68-28-38.954-13.946-81.547-19.015-116-39-3.882-2.252-6.644-6.43-11-9-18.99-11.202-38.722-18.146-60-28-23.041-10.67-53.863-20.942-80-27-11.572-2.683-21.102-1.566-32-2-7.096-.283-14.288-2.635-22-3-36.433-1.725-92.42 10.776-104 38-3.023 7.109-4.669 27.605-3 39 1.254 8.563 9.3 14.502 10 25 20.899 21.434 37.924 46.742 64 63 6.354 13.491 19.382 20.7 31 31 6.859 6.081 12.749 14.118 19 19 3.753 2.931 9.265 4.051 13 7 4.385 3.462 6.075 9.124 10 13 4.683 4.626 11.184 7.654 16 13 9.322 10.349 18.228 21.002 34 25 3.814 8.006 5.708 16.94 12 24 2.664 2.989 6.693 3.847 9 7 5.973 8.166 8.715 17.237 15 24 2.814 3.027 1.957 3.049 5 7z" fill-rule="evenodd"/></svg>