<svg xmlns="http://www.w3.org/2000/svg" xmlns:dc="http://dublincore.org/documents/dcmi-terms/" height="54.711" version="1.2" viewBox="0 0 39.066 54.711" width="39.066" overflow="inherit"><metadata><dc:description>Silhouette of Neognathae, processed by PhyloPic Tools (https://github.com/eweitz/phylopic-tools)</dc:description><dc:source>http://phylopic.org/image/41440b20-a497-417d-8f11-87428a867fc8</dc:source><dc:license>http://creativecommons.org/publicdomain/mark/1.0/</dc:license></metadata><path d="M39.066 49.792v.394c-.392.002-.291.496-.296.886-.878-.011-1.314.73-2.165.196-.024.328.311.575.395.886.089.333-.039.608.098.688-.644.495-.865-.736-1.476-.885-.161.298-.077.841-.394.983-1.593-.945-3.988-1.037-6.298-.787-.239-.056-.506-.084-.492-.394-1.335.375-2.312-.436-3.739-.295-.073 1.074-.867 1.429-1.378 2.066-2.647.178-5.254.692-7.773.787-.763.029-1.574-.159-2.361-.099-.325.025-.547.254-.886.296-1.596.193-3.566-.444-4.92.196h-.492c.899-2.282 5.485-.878 7.282-2.263-.742-5.587-3.854-8.879-6.593-12.694-1.908.946-1.667 4.041-3.346 5.215.121.823-.1 2.121-.788 2.46C1.12 47.196.366 45.391 0 43.199V41.92c.077-.021.114-.083.098-.197.028-1.934.388-3.177.985-4.723.702-1.822 1.198-3.238 2.165-4.231-.676-1.755-1.3-3.321-1.377-5.609-.137-4.051 1.32-7.415.886-10.824.705-.99.115-2.51.098-3.739-.013-.944.509-1.78.099-2.46.96-2.58 2.195-5.541 4.231-7.577C8.524 1.221 10.069.49 12.204.198c.327-.046.153-.146.49-.198 3.376.772 7.22 1.731 8.561 4.92.197.468.074.998.394 1.476 1.961.37 5.112.068 4.429 2.755-1.307.481-2.58-.159-3.937.099-1.117.212-1.873 1.564-3.051 1.476-.649 1.015-1.416 1.53-2.263 2.066-.16.101.034.234-.098.295-.15.069-.424-.138-.492-.098-.553.322-.743.766-.984 1.377 2.727 3.341 5.338 6.798 9.545 8.659.121.371.379.605.59.886 3.279 1.182 3.892 5.031 6.2 7.184.262 1.404 1.106 2.506 1.673 3.739.208.454.247 1.018.491 1.476.33.62.892 1.055 1.182 1.771.461 1.139.66 2.331.394 3.838.548 2.174 1.941 3.503 2.854 5.313-.26 1.273.354 1.835.884 2.56zm-20.665 2.361c-.088.403-.301.683-.492.984 1.542.164 2.458-.297 3.248-.886-.774-1.348-1.956.774-2.756-.098z" fill-rule="evenodd"/></svg>