<svg xmlns="http://www.w3.org/2000/svg" width="585" height="786.25" viewBox="0 0 585 786.25"><path d="M379.127 7.497c-2.028 2.03-5.76 3.878-8.153 4.04-4.138.28-4.358.598-3.516 5.087.504 2.693.297 5.966-.476 7.481-1.403 2.754.36 15.261 3.985 28.277 1.71 6.134 3.48 20.922 2.095 17.505-1.415-3.492-3.498-1.646-2.532 2.244.632 2.544.424 3.554-.604 2.918-.864-.535-1.912.375-2.331 2.02-.798 3.142-3.815 3.525-5.898.748-.63-.842-1.122.598-1.122 3.292 0 4.937-2.131 7.836-3.411 4.637-.489-1.222-.834-.972-.928.674-.085 1.496-1.047 2.617-2.244 2.617-1.142 0-2.468 1.497-2.917 3.293-.45 1.795-1.299 2.815-1.87 2.244-.566-.567-2.32.087-3.816 1.421-1.645 1.469-2.768 1.771-2.768.749 0-.898-.822-1.722-1.72-1.722-.899 0-1.291.465-.824.973.494.535.192 2.32-.673 3.965-1.178 2.245-1.87 2.506-2.768 1.047-.92-1.496-2.022-1.047-4.777 1.945-5.509 5.985-9.573 6.517-11.455 1.497l-1.571-4.19.298 5.237c.231 4.04-.334 5.356-2.469 5.76-2.24.424-2.578-.075-1.775-2.617 1.452-4.599-.042-3.742-3.386 1.943-2.577 4.382-3.74 5.067-8.379 4.938-2.992-.083-5.386-.781-5.386-1.571 0-.753-1.196-.388-2.544.775-2.842 2.453-9.857 4.553-8.66 2.592.44-.719.193-1.526-.616-2.02-.717-.439-1.746.224-2.204 1.421-1.372 3.59-4.35 2.544-3.41-1.197.79-3.141.728-3.159-1.342-.374-1.224 1.646-2.17 3.374-2.17 3.965 0 .578-.973 1.416-2.17 1.87-1.346.511-1.909.141-1.484-.972 1.026-2.693-10.161-2.969-12.165-.299-.905 1.204-3.107 2.451-4.754 2.692-1.645.242-4.002 1.212-5.086 2.095-1.145.933-3.965 2.1-6.509 2.693a331.44 331.44 0 0 0-7.33 1.796c-1.796.471-2.485.169-1.87-.824.555-.897.33-1.955-.525-2.468-.806-.483-1.496 0-1.496 1.047 0 1.426-.399 1.346-1.496-.299-1.291-1.938-1.884-1.795-4.339 1.048-1.551 1.795-3.251 2.882-3.74 2.394-.479-.479-1.945-.025-3.142.972-1.198.998-3.222 1.521-4.339 1.121-1.198-.426-2.8-.042-3.74.9-1.235 1.233-1.646 1.195-1.646-.15 0-.958-1.048-1.796-2.244-1.796-1.198 0-2.245.733-2.245 1.571 0 .898-.576 1.214-1.346.738-1.795-1.11-15.112 2.392-15.112 3.975 0 .807-.508 1.047-1.27.597-.712-.417-4.34.177-8.23 1.348-3.89 1.171-6.957 1.632-6.957 1.047 0-.598-.578-.15-1.346 1.048-1.179 1.833-1.647 1.795-3.742-.3-2.676-2.676-6.882-1.945-6.882 1.196 0 1.095-1.048 2.796-2.393 3.891-1.946 1.58-2.647 1.538-3.74-.225-1.022-1.645-1.347-1.7-1.347-.223 0 1.046-.76 1.495-1.646.971-.89-.525-2.918.3-4.414 1.796-1.496 1.496-3.661 3.485-4.713 4.329-2.243 1.802-8.677 2.086-8.677.384 0-2.607-2.593-1.048-4.229 2.543-1.772 3.89-5.256 5.257-3.814 1.497.46-1.198.163-2.245-.635-2.245s-1.89 1.047-2.338 2.245c-1.01 2.692-5.574 2.923-8.135.411-1.596-1.565-2.335-1.384-4.115 1.01-1.224 1.646-2.626 2.461-3.217 1.87-.61-.61-.299-1.795.748-2.843 2.95-2.948 1.946-4.337-1.196-1.656-1.646 1.405-2.993 3.496-2.993 4.649 0 1.756-.374 1.792-2.319.224-1.346-1.085-2.193-1.305-2.02-.524.168.755-.424 2.992-1.346 5.087-1.448 3.292-1.655 3.382-1.72.75-.059-2.34-.599-1.947-2.47 1.794-1.346 2.693-3.637 5.18-5.236 5.685-1.496.473-3.906 1.961-5.087 3.143-1.952 1.951-2.254 1.795-2.319-1.198-.071-3.291-.147-3.311-1.743-.449-2.504 4.49-2.77 4.63-4.26 2.245-1.029-1.646-1.403-1.726-1.403-.3 0 1.048-.725 1.497-1.57.973-.878-.543-1.969.449-2.47 2.245-.5 1.795-1.724 2.886-2.768 2.467-1.031-.412-2.238.225-2.692 1.422-.455 1.197-.153 2.17.673 2.17.897 0 1.167.538.673 1.346-.452.741-2.17 1.01-3.815.599-2.28-.57-2.992 0-2.992 2.393 0 2.245-.877 3.143-3.068 3.143-1.795 0-2.683.62-2.142 1.495 1.388 2.245-3.617 9.217-5.713 7.96-1.056-.634-.932-.03.3 1.466 1.848 2.245 1.804 2.439-.374 1.646-1.646-.598-2.47-.124-2.47 1.422 0 1.346-.79 3.135-1.886 4.264-3.919 4.04-7.06 10.024-6.282 11.97.475 1.186-1.107 3.942-3.65 6.357-2.544 2.417-4.165 4.816-3.741 5.536.427.728.075 1.273-.823 1.273-.82 0-1.57-.824-1.57-1.722 0-.897-.323-1.398-.674-1.047-.364.365-.089 3.217.598 6.21.722 3.141.69 5.535-.075 5.535-.807 0-1.406-.599-1.496-1.496a76.314 76.314 0 0 0-.342-2.843c-.47-3.291-2.492-3.291-2.685 0-.237 4.029-.46 5.088-2.179 10.324-.687 2.094-1.03 4.004-.778 4.339.25.335-.374 1.092-1.422 1.72-1.047.629-1.41 1.846-.823 2.769.571.897 1.694 1.27 2.469.822.754-.436 1.28.897 1.122 2.842-.256 3.143-.79 3.477-3.74 2.343-3.492-1.344-4.174-.473-3.493 4.465.557 4.04-1.517 9.297-3.24 8.215-.898-.564-1.204-.285-.673.612a1.93 1.93 0 0 1-.673 2.62c-.969.57-1.246 2.543-.674 4.787.877 3.441.709 3.61-1.72 1.721-2.544-1.979-2.575-1.946-.565.597 3.193 4.04 3.527 8.26.864 10.923-2.112 2.112-2.125 2.692-.105 4.937 3.097 3.442 3.072 6.367-.045 5.168-1.978-.761-2.31-.38-1.496 1.714.64 1.646.291 3.188-.897 3.965-1.557 1.017-1.497 1.272.299 1.272 1.795 0 1.84.254.224 1.271-1.54.97-1.62 2.02-.344 4.414 2.234 4.19 2.148 6.773-.18 5.366-1.188-.718-1.101-.13.225 1.517 1.928 2.393 1.887 2.901-.374 4.558-2.544 1.867-3.535 7.684-1.048 6.148.77-.475 1.764.515 2.32 2.311.602 1.944.231 3.626-.973 4.413-1.62 1.06-1.546 1.721.449 3.965 1.556 1.751 2.001 3.74 1.272 5.686-.73 1.945-.259 3.777 1.346 5.236 1.498 1.361 2.557 4.863 2.693 8.903.141 4.188 1.085 7.128 2.544 7.928 1.325.728 3.024 2.62 3.964 4.414 1.411 2.694 1.304 3.013-.748 2.238-3.406-1.287-2.992 1.423.6 3.915 1.645 1.142 2.587 2.48 2.093 2.973-1.408 1.41 1.646 5.595 5.536 7.588 2.245 1.149 3.535 3.074 3.441 5.13-.081 1.796.497 3.291 1.272 3.291.786 0 2.992 1.238 4.938 2.769 3.291 2.591 3.363 2.921 1.122 5.161-2.23 2.229-2.095 2.516 1.945 4.16 15.86 6.453 16.736 7.288 10.174 9.683l-3.89 1.418 3.216 4.04c2.876 3.61 3.211 5.835 3.16 20.947-.05 15.26.564 28.948 1.344 29.923.192.24.671 2.393 1.032 4.638.36 2.244 1.993 5.509 3.516 7.031 2.292 2.293 2.582 3.741 1.497 7.481-1.043 3.592-.79 5.298 1.122 7.557 1.392 1.645 3.349 2.917 4.488 2.917 1.197 0 1.56.731.892 1.795-2.227 3.546-1.715 5.288 2.175 7.398 2.104 1.141 4.624 4.122 5.76 6.816 1.136 2.692 2.74 5.234 3.666 5.807 3.61 2.238-3.59 12.488-8.828 12.564-1.158.018-3.33 1.603-4.862 3.548-1.51 1.917-5.012 4.433-7.705 5.535-2.693 1.102-6.638 3.585-8.678 5.461-2.094 1.927-4.563 3.507-5.61 3.591-1.048.084-2.53.314-3.367.524-.78.195-2.319.481-3.217.597-.898.118-1.293.655-.827 1.123 1.226 1.231-9.571 6.697-11.217 5.679-.653-.404-2.693.313-4.488 1.577-1.796 1.265-2.646 2.32-1.87 2.32.765 0 .523.575-.524 1.246-6.024 3.86-2.116 21.197 7.071 31.37 3.243 3.59 5.843 7.025 5.721 7.555-.125.54.94 2.77 2.394 5.013 1.712 2.641 2.903 8.079 3.441 15.71.454 6.432 1.51 13.482 2.354 15.71 2.031 5.36 10.438 10.173 17.77 10.173h5.835V657.58c0-10.473 2.917-20.946 5.835-20.946 2.692 0 3.206 2.535.897 4.435-1.262 1.04-2.244 2.896-2.244 4.242 0 4.513 8.528 17.443 16.607 25.18 4.489 4.298 9.742 9.764 11.82 12.3 2.085 2.543 4.303 4.596 5.012 4.637.689.04 2.918 1.378 4.863 2.918 1.943 1.538 6.508 3.289 9.95 3.815 3.44.526 8.417 2.311 10.847 3.89 2.543 1.654 5.266 2.918 6.283 2.918 1.003 0 5.462 3.566 10.1 8.079 7.032 6.842 9.163 8.08 13.913 8.08 3.142 0 7.421.46 9.725 1.047 3.591.913 4.115.647 4.115-2.095 0-1.945.912-3.142 2.394-3.142 1.728 0 2.103-.748 1.346-2.693-1.629-4.19-1.595-5.405.15-5.471 3.945-.149 3.709-2.459-.773-7.546-2.575-2.922-5.9-8.08-7.526-11.67-3.32-7.331-6.264-10.214-13.246-12.975-7.743-3.06-7.745-7.373-.011-17.247 3.516-4.489 6.921-8.229 7.492-8.229.585 0 2.304-2.843 3.89-6.433 1.895-4.29 5.386-8.305 10.473-12.049 9.548-7.026 19.988-19.97 25.52-31.64 2.34-4.938 5.937-10.996 7.995-13.465 2.118-2.544 4.032-5.396 4.413-6.583.53-1.65 1.197-1.57 3.142.374 1.362 1.361 4.413 2.871 6.807 3.366 2.395.495 6.218 2.508 8.529 4.488 2.244 1.924 4.779 3.21 5.461 2.769.693-.449 1.271-.075 1.271.822 0 .898.68 1.238 1.497.749.855-.514 1.496-.225 1.496.672 0 .88 1.646 2.33 3.74 3.292 2.095.963 3.769 2.445 3.805 3.367.1 2.575 10.559 9.874 14.149 9.874 5.446 0 6.437 2.844 5.74 16.459-.607 11.818-.315 13.456 4.135 23.19 2.667 5.835 5.682 11.002 6.807 11.67 1.078.638 2.02 2.243 2.02 3.441 0 1.197 1.048 2.628 2.244 3.067 1.197.44 2.245 1.521 2.245 2.32 0 1.944 15.042 20.646 16.607 20.646.662 0 2.698 2.544 4.553 5.685 3.796 6.434 25.747 27 31.205 29.237 4.631 1.898 32.467 15.347 37.405 18.072 2.087 1.153 6.582 3.244 10.174 4.734 6.582 2.73 13.763 9.69 13.763 13.34 0 5.087 10.663 17.465 13.018 15.111.489-.49.175-2.393-.691-4.189-1.777-3.679-3.133-9.276-4.279-17.655l-.715-5.237 4.936 5.461c2.706 2.993 6.29 7.66 7.93 10.324 1.658 2.693 4.595 5.93 6.584 7.257l3.59 2.394-.748-7.033c-.7-6.583-.557-6.93 2.244-5.457 4.254 2.24 5.893-.378 3.328-5.315-2.875-5.536-2.828-7.791.113-5.346 3.454 2.872 5.554-.19 3.618-5.277-2.449-6.433-16.465-22.924-19.925-23.443-4.938-.739-4.938-4.236 0-4.236 5.685 0 6.561-1.031 4.574-5.386-2.868-6.284-24.787-12.255-29.112-7.93-4.76 4.76-13.913-4.787-13.913-14.513 0-4.602-4.764-16.906-11.352-29.325-3.882-7.317-1.816-10.281 6.863-9.839 1.224.063 4.114-.395 6.359-1.007 2.542-.694 4.113-.523 4.113.449 0 .88 2.47 2.031 5.612 2.618 3.141.587 7.091 2.627 8.976 4.638 1.824 1.945 4.841 3.865 6.584 4.189 1.795.335 4.34 1.623 5.76 2.918 1.346 1.228 3.635 2.319 4.862 2.319 1.346 0 3.071.941 4.114 2.244.971 1.213 3.067 2.244 4.564 2.244 1.496 0 3.181.688 3.665 1.496.48.798 2.468 1.496 4.265 1.496 1.812 0 6.058 2.257 9.201 4.89 7.929 6.643 19.46 11.044 22.442 8.566 2.993-2.487 2.843-4.353-.448-5.599-3.442-1.301-6.18-5.014-6.239-8.455-.036-2.154.627-2.498 3.321-1.72 1.844.532 6.209 1.658 9.65 2.489 7.284 1.758 11.815 6.562 13.245 14.043.915 4.788 4.02 7.572 6.654 5.967.639-.39 2.061.317 3.05 1.514 2.345 2.843 5.927 2.843 5.927 0 0-2.737.6-2.778 4.638-.323 2.544 1.546 3.217 1.438 4.489-.725.791-1.346 2.552-2.132 3.74-1.67 3.937 1.531 2.422-6.708-2.333-12.692-2.464-3.1-5.611-8.828-7.152-13.017-2.974-8.079-7.063-11.222-14.603-11.222-5.536 0-18.702-4.635-18.702-6.582 0-.739 2.095-.908 4.638-.375 2.543.534 5.618.972 6.808.972 1.346 0 1.771.71 1.121 1.872-.805 1.437-.599 1.457.898.083 3.346-3.072 10.772-2.128 19.6 2.49 4.6 2.407 13.54 5.463 19.825 6.777 11.37 2.379 11.498 2.37 19.673-1.422 4.49-2.08 8.23-4.766 8.23-5.908 0-1.118 1.047-2.934 2.244-3.892 1.251-1 2.244-3.815 2.244-6.358 0-4.454.15-4.542 6.284-3.665 4.04.577 5.508.39 4.115-.524-1.205-.79-3.965-1.421-6.209-1.421-3.89 0-6.88-2.318-5.21-4.04.476-.492 4.461-1.744 8.8-2.768 4.339-1.024 6.575-1.937 4.937-2.02-1.632-.081-5.236.49-7.93 1.256-7.217 2.058-5.983-2.082 1.945-6.522 3.143-1.76 3.457-2.233 1.048-1.575-3.879 1.057-4.205-.939-1.72-10.514 2.864-11.039 2.439-13.017-6.435-29.924-2.591-4.937-5.198-11.67-5.791-14.96-1.62-8.978-9.757-30.622-13.332-35.46-1.878-2.543-4.505-4.19-6.685-4.19-1.945 0-3.968-.617-4.413-1.346-.442-.721-2.768-1.825-5.013-2.377-5.236-1.288-17.221-7.07-18.644-8.994-.773-1.048-1.105-1.048-1.105 0 0 .806-.587.599-1.272-.449-.689-1.054-2.918-2.254-4.863-2.617a351.13 351.13 0 0 1-7.33-1.475c-10.772-2.309-19.165-3.669-22.442-3.638-7.333.07-10.938-1.112-12.021-3.94-.63-1.646-2.223-3.867-3.539-4.937-1.348-1.094-2.395-2.862-2.395-4.039 0-1.198-.48-2.095-1.121-2.095-.618 0-5.163-3.738-10.1-8.304-5.67-5.244-14.214-10.879-23.19-15.294-17.505-8.607-23.455-12.707-29.158-20.09-2.426-3.142-6.164-7.7-8.097-9.875-1.963-2.208-7.357-9.126-11.899-15.26-8.53-11.52-20.519-23.94-23.111-23.94-.81 0-4.414-2.402-7.855-5.236-3.442-2.834-6.977-5.236-7.705-5.236-.74 0-2.479-1.346-3.863-2.993-2.221-2.64-4.366-3.388-8.107-2.827-.538.08-1.263-.464-1.812-1.363-1.077-1.762-14.646-7.998-24.82-11.407-4.188-1.404-8.138-3.038-8.976-3.714-2.372-1.915-23.191-7.344-31.42-8.194-4.189-.432-8.467-1.112-9.725-1.545-8.229-2.828-70.025-4.285-75.556-1.78-1.675.76-4.638 1.477-6.733 1.63-4.04.295-12.858 1.965-16.757 3.173-1.311.406-4.863 1.046-7.855 1.415-2.992.37-6.746 1.346-8.303 2.162-3.066 1.607-12.418 1.897-17.505.544-1.757-.467-5.319-3.902-8.08-7.792-2.76-3.89-5.596-7.387-6.433-7.93-.836-.544-1.496-9.127-1.496-19.45 0-15.71.526-19.935 3.516-28.203 1.947-5.386 4.116-10.492 4.862-11.446.82-1.048.82-2.05 0-2.561-1.855-1.16-.598-6.255 2.095-8.492 1.102-.915 2.094-3.086 2.094-4.582s.71-2.843 1.497-2.843c.805 0 1.496-.897 1.496-1.945 0-1.07 1.346-2.887 2.992-4.038 1.646-1.153 2.992-2.634 2.992-3.293 0-1.261 7.332-13.214 8.978-14.635.478-.414 1.281-1.822 1.72-3.019.45-1.227 5.91-5.147 12.044-8.647 10.173-5.805 18.083-8.11 27.828-8.11 1.797 0 3.292-.68 3.292-1.496 0-.807 1.796-.323 3.891 1.047 2.094 1.369 4.269 2.129 4.712 1.646.43-.468 0-.898-.897-.898-1 0-1.721-.973-1.721-2.319 0-1.624.897-2.05 2.992-1.421 2.244.673 2.769.317 2.095-1.422-.695-1.795.149-2.32 3.74-2.32 2.544 0 4.639-.675 4.639-1.495 0-.8 1.945-1.496 4.189-1.496 5.985 0 15.261-2.82 15.261-4.639 0-1.88 7.331-1.392 10.174.68 1.388 1.01 1.816.817 1.496-.68-.256-1.196.672-1.998 2.169-1.87 1.496.13 2.618-.352 2.618-1.122 0-1.161 1.497-1.346 10.923-1.346 2.244 0 4.039-.665 4.039-1.497 0-.802 1.421-1.496 3.067-1.496 1.945 0 2.684-.629 2.02-1.72-.772-1.27.598-1.466 5.236-.749 3.442.533 7.03.523 7.93-.022 2.175-1.318 9.425-2.446 15.71-2.446 2.693 0 4.937-.578 4.937-1.272 0-.693 1.871-.93 4.115-.523 2.243.408 3.298.357 2.318-.11-3.525-1.687-1.945-3.264 2.694-2.69 2.544.315 4.129-.028 3.658-.792-1.277-2.067 8.012-4.308 14.595-3.52 4.19.5 5.575.167 5.266-1.267-.484-2.24 11.192-4.289 19.271-3.38 3.74.42 4.984-.116 5.685-2.455.494-1.646 2.211-2.993 3.815-2.993 1.646 0 2.918-.553 2.918-1.27 0-.713 1.646-1.09 3.741-.857 4.189.465 11.27-2.585 14.162-6.101 1.308-1.59 3.942-2.037 9.028-1.532 7.032.698 10.586-.888 9.98-4.453-.139-.815 1.615-1.7 3.86-1.944 2.244-.246 4.114-1.095 4.114-1.871 0-.772 2.768-2.549 6.06-3.89 3.291-1.34 5.717-2.802 5.311-3.197-.988-.962 2.842-4.807 4.787-4.807.847 0 1.88-1.496 2.377-3.441.876-3.433 9.742-10.024 13.483-10.024 1.197 0 2.733-.769 3.292-1.646.697-1.098 0-1.327-2.095-.687-4.38 1.34-4.189-.368.448-4.008 2.095-1.644 3.412-3.463 2.993-4.133-.415-.665 2.244-2.427 5.985-3.965 3.74-1.537 6.732-3.234 6.732-3.815 0-.566-2.543.018-5.536 1.271-5.236 2.194-5.417 2.178-3.366-.298 1.221-1.473 4.265-3.503 6.957-4.639 3.89-1.64 4.662-2.693 4.114-5.61-.42-2.245.169-3.914 1.571-4.451 3.135-1.202 2.844-4.075-.298-2.949-2.199.789-2.075.294.673-2.7 1.787-1.944 3.367-4.648 3.367-5.759 0-1.174 1.481-3.741 3.366-5.836 2.424-2.693 2.57-3.133.524-1.57-2.615 1.995-2.754 1.87-1.722-1.571.63-2.095 1.99-4.728 3.093-5.985 2.347-2.673.574-6.88-2.419-5.738-1.63.623-1.979-.696-1.571-5.932.407-5.237.075-6.5-1.496-5.685-1.102.571-.898.128.448-.973 2.283-1.867 2.243-2.694-.523-10.922-1.66-4.938-4.525-10.568-6.434-12.643-1.926-2.095-3.671-5.024-3.965-6.657-.299-1.668-1.87-3.592-3.665-4.489-1.795-.898-2.918-2.244-2.619-3.141.296-.887-.421-2.844-1.645-4.489-2.079-2.796-2.172-2.769-2.23.672-.07 4.158-1.97 2.993-2.686-1.645-.809-5.237-3.313-7.297-6.679-5.493-2.336 1.251-3.666.995-6.06-1.165-2.992-2.7-3.044-2.702-2.095-.075.595 1.646.391 2.343-.524 1.796-.822-.494-1.496-2.245-1.496-3.89 0-2.095-.785-2.79-2.617-2.319a246.637 246.637 0 0 0-6.209 1.72c-2.395.698-3.246.499-2.555-.599 1.847-2.933-.588-1.795-4.478 2.095"/></svg>