<svg xmlns="http://www.w3.org/2000/svg" xmlns:dc="http://dublincore.org/documents/dcmi-terms/" height="38.77" version="1.2" viewBox="0 0 42.902 38.77" width="42.902" overflow="inherit"><metadata><dc:description>Silhouette of Neognathae, processed by PhyloPic Tools (https://github.com/eweitz/phylopic-tools)</dc:description><dc:source>http://phylopic.org/image/41440b20-a497-417d-8f11-87428a867fc8</dc:source><dc:license>http://creativecommons.org/publicdomain/mark/1.0/</dc:license></metadata><g fill-rule="evenodd"><path d="M7.38 0c1.639.146 2.561.682 3.444 1.476 1.071.964 1.785 2.062 2.361 3.444 1.376.46 2.278 1.396 3.148 2.362.982.065 1.434.682 2.066.984 1.504.718 3.118.967 4.527 1.575 1.461.63 2.464 1.997 3.838 2.558.418.894 1.759.865 1.869 2.067.135.158.743-.166.984.098.541.377.84.997 1.18 1.574 2.881.793 3.344 4.004 5.807 5.215-.083.508-.629.553-.984.787 2.351 3.344 4.578 5.757 7.281 8.562V0H7.38zM6.199 0H0v5.708c.594-.75 1.759-1.348 2.46-1.673C3.121 2.105 3.849.241 6.199 0zM0 6.199V38.77h13.087c-.073-.222-.552-.038-.787-.098-.113-.289.472-.366.197-.492-.389-.335-1.078-.52-2.066-.492-.367-.027-.136-.652-.689-.492 1.05.27 1.849-.353 2.952-.394.294-.011.562.154.787.099.307-.076.595-.538 1.083-.787 2.737-1.4 5.472-4.693 7.872-6.495-.032-.361-.243-.544-.295-.886-.212-.162-.51.219-.886.197-.307-.086-.52-.268-.787-.394-3.808-.083-7.084-.571-9.348-2.066-1.1-.727-2.211-1.061-2.361-2.264-.188.042-.179.281-.492.197-.923-.455-1.35-1.406-2.165-1.968-.035-.327-.287-.435-.199-.885-.869-.344-.984-1.442-1.574-2.067-.038-.542.106-.683 0-1.083-.12-.437-.858-.256-.886-.787.173-.418 1.146-.034 1.083-.688-.413-.007-.717.467-1.083.197-.332-.857.703-.347.689-.886h-.689c-.781-1.22-.728-4.084.099-5.314-.236-1.436-.361-2.983-.787-4.231C1.492 6.866.887 6.102 0 6.199zM13.579 38.77h29.323v-7.872c-.441.112-.439-.516-.787-.196-.252.323.142.66.197.983-.902-.573-1.646-1.306-2.165-2.263-.231-.002-.29.169-.591.098-1.162-1.133-1.984-2.607-3.641-3.247a5.247 5.247 0 0 1-.59-.787c-1.176-.432-2.327-.888-3.937-.886-.967.969-1.849 2.021-3.641 2.165-.413.729.146.835.196 1.574-.027.455-.439-.086-.492.296-.106.352-.119.799-.295 1.082-2.648 1.878-5.289 4.289-7.281 6.494.55.291 1.129-.493 1.673-.196.104.63-.708.342-.787.787.454.104.836.278 1.476.197-.871.88-2.293.459-3.346 1.377-.583-.073-.912-.399-1.574-.394-.542.578-2.879.112-3.739.689l.001.099z" fill="#fff"/><path d="M24.994 28.242c-.178.216-.086.701-.197.983-.125.235-.32.4-.689.394-.189 1.271-1.401 1.801-2.459 2.559-1.347.966-2.675 1.869-3.936 2.952-.6.516-1.403.996-1.673 1.771.403-.281 1.051-.156 1.477-.394.357-.2.582-.769.983-1.083.58-.453 1.4-.688 1.87-1.082.511-.43.839-1.119 1.377-1.574 1.317-1.114 2.842-2.173 3.74-3.739-.13-.299-.415-.44-.493-.787z" fill="#fff"/><path d="M10.824 1.476c1.071.964 1.785 2.062 2.361 3.444 1.376.46 2.278 1.396 3.148 2.362.982.065 1.434.682 2.066.984 1.504.718 3.118.967 4.527 1.575 1.461.63 2.464 1.997 3.838 2.558.418.894 1.759.865 1.869 2.067.135.158.743-.166.984.098.541.377.84.997 1.18 1.574 2.881.793 3.344 4.004 5.807 5.215-.083.508-.629.553-.984.787 2.351 3.344 4.578 5.757 7.281 8.562v.196c-.441.112-.439-.516-.787-.196-.252.323.142.66.197.983-.902-.573-1.646-1.306-2.165-2.263-.231-.002-.29.169-.591.098-1.162-1.133-1.984-2.607-3.641-3.247a5.247 5.247 0 0 1-.59-.787c-1.176-.432-2.327-.888-3.937-.886-.967.969-1.849 2.021-3.641 2.165-.413.729.146.835.196 1.574-.027.455-.439-.086-.492.296-.106.352-.119.799-.295 1.082-2.648 1.878-5.289 4.289-7.281 6.494.55.291 1.129-.493 1.673-.196.104.63-.708.342-.787.787.454.104.836.278 1.476.197-.871.88-2.293.459-3.346 1.377-.583-.073-.912-.399-1.574-.394-.542.578-2.879.112-3.739.689v.098h-.492c-.073-.222-.552-.038-.787-.098-.113-.289.472-.366.197-.492-.389-.335-1.078-.52-2.066-.492-.367-.027-.136-.652-.689-.492 1.05.27 1.849-.353 2.952-.394.294-.011.562.154.787.099.307-.076.595-.538 1.083-.787 2.737-1.4 5.472-4.693 7.872-6.495-.032-.361-.243-.544-.295-.886-.212-.162-.51.219-.886.197-.307-.086-.52-.268-.787-.394-3.808-.083-7.084-.571-9.348-2.066-1.1-.727-2.211-1.061-2.361-2.264-.188.042-.179.281-.492.197-.923-.455-1.35-1.406-2.165-1.968-.033-.326-.285-.434-.197-.884-.869-.344-.984-1.442-1.574-2.067-.038-.542.106-.683 0-1.083-.12-.437-.858-.256-.886-.787.173-.418 1.146-.034 1.083-.688-.413-.007-.717.467-1.083.197-.332-.857.703-.347.689-.886h-.689c-.781-1.22-.728-4.084.099-5.314-.236-1.436-.361-2.983-.787-4.231C1.492 6.866.887 6.102 0 6.199v-.492c.594-.749 1.759-1.347 2.46-1.672C3.121 2.105 3.849.241 6.199 0H7.38c1.639.146 2.56.682 3.444 1.476zm14.17 26.766c-.178.216-.086.701-.197.983-.125.235-.32.4-.689.394-.189 1.271-1.401 1.801-2.459 2.559-1.347.966-2.675 1.869-3.936 2.952-.6.516-1.403.996-1.673 1.771.403-.281 1.051-.156 1.477-.394.357-.2.582-.769.983-1.083.58-.453 1.4-.688 1.87-1.082.511-.43.839-1.119 1.377-1.574 1.317-1.114 2.842-2.173 3.74-3.739-.13-.299-.415-.44-.493-.787z"/></g></svg>