<svg xmlns="http://www.w3.org/2000/svg" xmlns:dc="http://dublincore.org/documents/dcmi-terms/" height="278.636" width="405.748"><metadata><dc:description>Silhouette of Eurygenium pacegnum, processed by PhyloPic Tools (https://github.com/eweitz/phylopic-tools)</dc:description><dc:source>http://phylopic.org/image/808b6003-6f30-4302-9c2e-751a3b786978</dc:source><dc:creator>Zimices</dc:creator><dc:license>http://creativecommons.org/licenses/by-nc/3.0/</dc:license></metadata><path d="M365.094 277.076c-1.39-1.624-2.953-2.091-6.987-2.091-6.46 0-8.36-.698-8.36-3.072 0-2.05 2.789-3.928 5.832-3.928 2.805 0 7.895-6.235 9.176-11.237.6-2.345 1.519-5.568 2.042-7.163.523-1.594.95-4.783.95-7.086v-4.187l-9.987-5.223c-5.493-2.873-13.706-6.508-18.25-8.078-4.544-1.57-10.575-3.862-13.402-5.093l-5.14-2.237-4.493 2.902c-7.478 4.83-15.113 10.938-18.511 14.808-2.848 3.244-3.216 4.342-3.216 9.593 0 4.64-.381 6.126-1.75 6.828-.963.494-7.936 1.182-15.496 1.528-13.009.595-13.814.522-14.991-1.363-.684-1.096-2.224-1.992-3.422-1.992-3.625 0-5.341-1.099-5.341-3.42 0-3.1 4.788-7.211 9.339-8.021 6.12-1.09 8.688-2.692 10.732-6.698 1.05-2.06 3.04-5.409 4.42-7.443 2.76-4.069 3.173-8.81 1.427-16.418-1.145-4.991-6.93-15.1-16.027-28-3.296-4.675-7.882-11.363-10.192-14.863l-4.2-6.362-8 .606c-4.4.334-14.862.61-23.25.613l-15.25.006v10.782c0 6.28-.59 12.856-1.413 15.75-2.363 8.307-7.347 21.695-9.932 26.679-1.539 2.967-2.713 7.41-3.172 12-.964 9.639-1.687 11.262-6.324 14.189-4.676 2.951-8.158 9.48-8.158 15.293 0 2.33-.619 4.575-1.452 5.267-1.779 1.476-5.548.438-5.548-1.528 0-2.405-1.413-1.628-5.138 2.828-4.406 5.271-14.29 10.605-16.723 9.026-1.148-.746-1.581-2.31-1.445-5.225.217-4.654.769-4.575-8.85-1.262-5.562 1.915-7.844.748-7.844-4.011 0-1.861-.839-3.659-2.25-4.822l-2.25-1.855 3.5-3.535c2.61-2.637 4.614-3.675 7.886-4.085 5.17-.647 8.635-2.883 16.16-10.43 3.051-3.059 7.34-6.986 9.532-8.726l3.985-3.166 1.228-14.334c1.815-21.178 1.586-34.423-.681-39.335-1.016-2.2-2.944-5.01-4.286-6.245-2.628-2.416-19.66-8.726-26.511-9.821-4.028-.644-4.247-.541-5.742 2.698-.855 1.852-3.728 6.294-6.384 9.87-4.273 5.755-11.97 19.528-13.518 24.19-.94 2.83-5.001 4.771-11.238 5.369-5.271.505-6.765.191-13.431-2.822-11.802-5.335-25.388-13.86-37.04-23.24-11.102-8.938-16.388-12.46-20.368-13.57-2.15-.6-5.108-2.292-6.574-3.76-3.687-3.692-6.42-11.217-5.62-15.477.948-5.052 10.859-17.255 16.45-20.252 2.558-1.372 6.6-4.057 8.98-5.967 4.931-3.958 7.49-4.244 20.672-2.316 9.255 1.354 10.71 2.156 9.884 5.448-.415 1.653-.107 2.564 1.01 2.992.96.368 1.606 1.774 1.606 3.49 0 2.214-.561 3.015-2.443 3.488-1.344.337-2.919.32-3.5-.04-.582-.36-1.057-.203-1.057.347s.45 1.278 1 1.618c1.514.936 1.196 4.487-.459 5.122-1.804.693-8.541-1.437-8.541-2.7 0-.507-.389-.922-.864-.922s-.813 1.627-.75 3.615c.122 3.873.117 3.877-7.636 7.403-2.613 1.188-4.75 2.257-4.75 2.375 0 .118 3.037 2.481 6.75 5.251 9.173 6.845 14.996 9.088 24.69 9.51l7.94.346.832-3.93c.457-2.163.934-10.038 1.06-17.5.178-10.606-.224-15.676-1.84-23.21-2.234-10.408-3.556-12.611-11.918-19.848-4.605-3.986-4.69-4.012-12.908-4.012-7.763 0-8.76-.256-16.19-4.152-4.354-2.283-10.673-6.108-14.043-8.5-3.37-2.391-6.493-4.348-6.94-4.348-.447 0-3.877-1.852-7.623-4.115-5.148-3.11-6.81-4.66-6.81-6.345 0-1.227-.848-2.998-1.884-3.935C.53 52.572-.546 46.132.25 33.948c.684-10.473.913-11.366 3.72-14.563C7 15.932 16.55 12.126 18.757 13.49c.57.352 3.343-.126 6.163-1.062 4.184-1.39 9.378-1.726 28.228-1.823 22.117-.115 23.632.003 35.6 2.76 6.875 1.584 13.102 2.934 13.839 3 .736.066 3.589-3.593 6.339-8.13 2.75-4.538 5.522-8.243 6.16-8.235 3.48.046 3.898 1.6 3.388 12.615-.276 5.978-.797 11.77-1.155 12.87-.74 2.264 6.75 12.94 12.81 18.262 4.76 4.178 12.464 5.207 20.588 2.747 5.18-1.568 9.47-1.694 42.15-1.236 20.01.28 39.306 1.01 42.88 1.62 3.576.61 11.226 1.829 17 2.707 5.776.878 15.9 3.312 22.5 5.408 8.204 2.605 15.64 4.194 23.5 5.023 11.376 1.2 27.377 5.665 36.211 10.104 2.04 1.026 5.242 1.865 7.115 1.865 2.012 0 4.57.916 6.252 2.24 3.534 2.78 7.463 5.072 13.923 8.123 2.75 1.299 7.025 4.156 9.5 6.35 2.475 2.193 8.55 6.497 13.5 9.564 14.34 8.885 20.5 16.45 20.5 25.173 0 4.414-.092 4.55-3.077 4.55-3.208 0-5.76-2.12-11.216-9.316-2.289-3.02-3.428-3.684-6.315-3.684-1.938 0-4.441-.491-5.563-1.092-1.122-.6-3.55-.808-5.396-.462-2.866.538-4.17 1.877-8.908 9.147-7.012 10.757-11.153 18.944-12.975 25.65-.785 2.891-1.905 6.829-2.489 8.75-1.373 4.52-1.356 18.372.029 23.507 1.445 5.355 10.491 14.521 23.91 24.226 16.482 11.921 16.006 11.318 15.964 20.21-.021 4.663-.583 8.523-1.464 10.064-1.055 1.845-1.439 6.34-1.465 17.173-.034 14.303-.1 14.751-2.624 17.75-1.424 1.692-3.414 3.077-4.423 3.077-1.01 0-3.137 1.095-4.729 2.435-4.307 3.625-7.737 4.198-9.913 1.656z"/></svg>