<svg xmlns="http://www.w3.org/2000/svg" xmlns:dc="http://dublincore.org/documents/dcmi-terms/" height="3625.935" version="1.2" viewBox="0 0 4051.668 3625.935" width="4051.668"><metadata><dc:description>Silhouette of Eurypterida, processed by PhyloPic Tools (https://github.com/eweitz/phylopic-tools)</dc:description><dc:source>http://phylopic.org/image/36359e64-13d4-4ca1-b967-329eca64d197</dc:source><dc:creator>Nobu Tamura (vectorized by T. Michael Keesey)</dc:creator><dc:license>http://creativecommons.org/licenses/by/3.0/</dc:license></metadata><path d="M4051.418 3258.677c-1.49 8.51-8.47 11.53-17 13-9.93 12.4-17.37 27.29-36 31-5.36 3.2-7.97 9.93-14 12-4.54 1.56-9.85.05-15 1-11.66 2.16-24.96 8.62-41 11-24.51 3.64-53.88 0-81 0-29.6 0-58.06-6.55-78 1-8.89 3.37-12.82 15.12-21 19-25.27-1.14-50.56-1.11-74-8-7.87-2.31-12.15-8-22-9-12.88-1.31-29.43-1.12-44-3-6.24-.8-11.64-3.41-17-4-11.35-1.24-31.71-4.55-41-1-9.04 3.46-10.19 14.62-17 22-20.93 5.61-35.12-4.37-54-10-30.56-9.11-59.79-23.4-92-31-4.8-1.13-9.35-.77-14-2-6.87-1.81-14.13-2.98-24-5-5.94-1.21-10.94-5.09-17-6-6.36-.96-12.68.2-19-1-17.41-3.32-33.44-11.61-49-14-3.56-.55-7.47.69-11 0-6.91-1.35-12.1-5.53-19-5-7.14.54-9.64 6.62-16 8-9.61 2.08-25.96-2.94-37-7-17.05-6.28-33.47-19.45-50-25-3.27-1.1-6.89-1.02-10-2-7.13-2.24-13.44-6.85-20-10-7.4-3.55-15.48-4.24-22-7-5.14-2.18-9.86-7.56-15-11-14.61-9.77-34.85-15.75-49-27-10.68-8.49-21.11-17.3-31-26-8.8-1.86-14.99-6.34-20-12-15.19-9.64-25.46 1.94-36 8-28.47-15.53-45.36-42.64-68-64-15.88-5.14-29.54-16.93-45-25-7.67-4-15.73-7.14-23-12-7.42-4.96-15.29-8.28-22-13-5.53-3.89-8.43-10.63-14-14-6.36-3.85-19.3-9.46-26-10-5.22-.42-10.11 2.98-15 3-14.39.07-24.29-7.66-38-12-15.32-32.87-33.41-66.4-47-101-2.47-6.28-7.96-12.36-10-19-2.98-9.73-2.6-20.36-9-29-10.14-7.31-22.72-19.02-41-12-16.17-10.35-22.58-34.59-32-53-4.11-8.02-9.19-18.64-12-30-.74-2.97-.16-6.97-1-10-2.18-7.9-8.86-19.63-12-32-4.09-16.1-3.19-34.36-17-37-13.02-2.49-20.11 8.22-28 12-12.71 6.1-28.2 6-43 14-7.65 4.13-20.91 14-22 18-1.43 5.26 2.6 13.78 5 18 4.49 7.89 12.89 16.49 19 24 14.48 17.78 26.55 37.4 45 52-3.39 10.92-11.9 16.34-9 34 1.81 11.01 11.28 25.7 18 37 6.73 11.31 14.45 22.2 21 33 16.57 27.35 36.22 43.54 58 54 11.08 13.92 25.22 24.78 31 44-1.05 9.62-9.42 13.8-9 22 .61 11.87 19.02 20.94 28 27 10.47 14.96 26.97 28.26 42 40 2.94 2.29 4.23 5.45 7 7 2.7 1.51 6.32.96 10 3 8.22 4.56 16.89 14.84 28 18 2.75.78 6.17-.44 9 0 10.03 1.57 23.58 7.68 31 14 2.42 8.19-9.98 11.95-9 21 .65 6.01 12.37 11.48 19 16 46.38 31.62 100.38 68.35 152 90 1.95 18.81 15.3 22.8 33 31 22.49 10.42 39.24 21.75 65 29 22.49 6.33 44.67 11.96 71 18 11.59 2.66 27.51 8.94 38 11 7.6 1.5 14.89-.32 20 2 9.61 4.36 9.99 17.65 20 22 4.19 1.82 8.53.73 13 2 3.6 1.02 6.3 4.67 10 6 3.32 1.2 7.38-.06 11 1 8.94 2.63 18.7 9.39 30 13 10.86 3.47 21.53 7.88 31 11 8.04 2.65 19.97 3.3 25 7 8.6 6.32 14.28 13.53 23 17 3.48 1.38 8.4.75 12 2 7.92 2.76 18.84 8.52 30 11 5.52 1.23 11.34.09 17 1 7.64 1.22 14.85 3.94 23 5 25.13 3.28 43.42 1.55 61 15 4.55 4.76 1.5 14.35 2 19 5.13 17.79 31.76 17.55 48 26 6.36 3.31 10.98 8.96 16 12 6.52 3.94 29.21 10.85 30 18 .99 8.98-21.79 16.28-30 17-14.38 1.25-26.42-2.98-35-4-7.07-.84-14.17.61-21 0-24.2-2.16-50.2-6.66-68-16-8.74-4.59-20.27-14.15-29-19-4.48-2.49-11.08-3.63-17-7-5.07-2.89-10.01-8.33-16-12-5.69-3.49-11.71-6.58-17-10-7.62-4.92-24.74-18.55-36-19-13.61-.54-17.88 10.83-37 6-9.46-2.39-19.11-9.13-30-13-20.17-7.17-40.58-16.24-60-26-10.15-5.1-17.51-14.25-28-17-12.86-3.38-26.25-.42-39-6-8.07-7.93-19.75-11.06-33-16-9.94-3.7-15.45-8.81-28-10-7.85-5.48-16.04-10.63-28-12-18.61-15.7-43.91-18.72-67-30-7.32-3.58-16.67-8.81-23-9-9.99-.31-15.86 9.99-25 11-9.49 1.05-22.66-8.45-31-13-10.99-5.99-20.99-11.3-28-16-8.78-5.89-14.71-15.47-24-21-27.12-16.16-57.55-31.46-79-54-14.51-2.02-20.93-10.74-33-10-8.95.55-15.25 10.83-23 11-7.04.15-16.16-10.12-23-15-8.78-6.27-16.03-10.5-21-16-16.87-18.64-28.06-43.28-48-57-3.68-17.32-19.32-22.68-24-39-12.53-13.14-27.42-23.91-47-30-7.17-9.55-17.05-18.17-24-29-11.6-18.07-17.77-43.3-26-66-6.04-16.67-13.37-32.49-20-49-5.21-12.97-13.3-28.49-16-45-11.67-10.63-29.63-15.31-41-27-2.61-2.69-13.4-16.83-15-21-1.34-3.48-.88-9.27-2-14-3.52-14.81-11.24-24.17-11-43-7.69-10.58-11.45-28.98-25-30-12.17-.91-18.47 13.31-30 17-5.88-1.15-13.98 4.92-22 7-13.03 3.38-26.52-.4-29 10-2.91 12.21 12.37 19.76 18 28 4.19 6.13 9.24 17.24 13 26 5.33 12.43 8.89 22.27 14 36 3.19 8.57 9.06 16.25 11 25 1.14 5.14-.07 11.19 1 17 2.05 11.15 7.85 20.94 11 31 3.14 10.04 4.5 20.22 8 30 2.01 5.62 3.94 11.98 6 17 2.98 7.25 9.03 13.28 11 20 1.34 4.55.87 9.38 2 14 1.33 5.45 4.36 10.47 5 15 1.25 8.86-.65 21.33 1 27 2.02 6.94 12.52 17.69 18 25 18.04 24.07 37.35 50.67 56 72 13.79 15.77 29.18 28.29 45 41 16.66 13.38 29.45 28.14 42 43 4.21 9.79 9.61 18.39 17 25-.05 9.05 6.23 11.77 10 17 49.25 12.75 86.8 37.2 125 61 2.84 1.5 6.58 2.08 10 3 12.76 10.3 24.85 18.94 44 23 6.56 1.39 13.89-.2 21 1 7.33 1.23 16.11 5.11 23 7 11.49 3.15 25.51 9.87 39 15 12.93 4.92 26.85 12.92 38 15 .62.12 1.37 0 2 0 21.77.01 43.65 5.17 66 6 11.33.42 22.56.88 34 2 22.98 2.25 33.39 6.25 52 13 6.49 2.35 18.8 5.11 19 10 .27 6.79-10.42 6.36-16 8-10.39 3.06-28.58 8.4-37 10-7.4 1.41-17.34-1.04-21 4-5.55 12.97 12.18 12.35 25 14 13.18 1.7 25.28 3.83 33 4 23.52 15.14 69.32 8.01 90 26 13.55 3.28 27.51 2 42 4 15.19 2.1 30.98 9.16 45 11 11.56 1.52 28.11-.56 42 2 6.77 1.25 18.1 5.03 19 10 1.44 7.97-11.84 13.4-19 19-7.26 5.68-13.96 14.95-20 17-3.72 1.27-9.9.21-15 1-8.48 1.3-18.29 6.39-25 5-17.04-3.54-34.17-4.53-51-4-20.27.64-35.75 8.81-54 5-21.32-4.46-33.8-21.36-51-29-12.26-5.45-34.9-9.01-50-6-8.06 1.61-13.13 11.08-21 12-10.63 1.23-24.71-10.14-30-12-22.08-1.59-29.91-17.43-52-19-2.71-1.95-4.55-4.78-8-6-7.11.56-16.52-1.19-22 1-7.34 17.57-14.9 22.87-38 16-7.36-2.19-14.76-3.36-21-5-5.04-1.33-9.57-5.21-15-7-8.92-2.93-18.25-4.33-28-8-17.13-6.46-40.14-10.97-58-19-9.78-4.4-17.62-14.97-28-21-3.51-2.04-9.04-3.83-14-6-4.6-2.02-10.86-5.89-14-6-6.59-.24-11.61 8.7-17 9-4.15.23-16.55-9.17-23-14-16.18-12.12-28.02-19.66-43-32-7.74-6.38-11.75-14.99-17-21-9.78-11.19-25.31-18.28-29-34-12.56-9.44-19.83-24.17-40-26-26.34-12-36.85-39.82-54-61-10.87-34.66-35.9-62.3-50-94-2.93-6.58-4.37-12.99-8-19-8.87-14.7-22.96-24.99-28-44-10.13-12.4-33.25-8.34-40-23-1.93-4.2-2.08-11.33-4-17-1.74-5.16-5.13-9.1-7-14-2.72-7.13-2.87-15.55-6-23-8.02-19.13-20.13-37.34-26-55-3.67-11.06-1.68-23.5-3-34-.43-3.44-3.14-7.38-4-12-3.31-17.85-.72-30.27-18-35-4.96-18.51-21.34-39.85-26-59-4.7-19.32-1.33-48.28-25-47-6.35.34-8.46 6.53-15 10-7.57 4.01-19.46 4.84-30 8-9.27 2.78-19.01 8.09-27 10-11.83 2.83-29.49 5.03-43 6-78.41 5.62-163.49-2.25-240-11-16.19-1.85-29-3.75-44-8-6.79-1.92-12.79-3.28-22-6-17.64-5.21-36.43-16.58-55-18-4.04-3.96-10.28-5.72-17-7-38.3-17.56-70.53-45.08-103-70-28.19-21.63-48.93-47.52-72-75-1.13-12.49-6.48-22.12-17-23-8.74-.73-19.93 8.7-28 12-12.52 5.12-29.43 3.38-45 7-3.62.84-5.53 3.86-9 5-3.64 1.2-8.35.88-12 2-10.12 3.1-18.92 9.28-28 12-5.41 1.62-11.07.85-16 2-26.27 6.14-43.33 31.77-71 40-2.83.84-6.48.28-10 1-5.65 1.15-10.47 4.94-14 5-12.1.22-20.67-10.63-32-10-16 .88-30.08 15.75-44 21-9.92 3.74-21.05 4.78-32 9-3.39 1.31-6.64 4.76-10 6-3.62 1.33-7.55.63-11 2-5.59 2.22-9.76 7.58-15 10-5.68 2.62-13.08 3.79-20 7-15.57 7.23-37.59 18.44-55 24-11.98 3.82-29.21-2.25-43-2-9.06.16-18.12 5.76-28 8-40.29 9.14-94.46 20.89-145 21-7.81.02-17.73-.39-24-2-7.08-1.82-13.45-9.54-25-11-12.59-1.59-28.19.27-42 0-14.64-.29-29.75.34-44 0-28.03-.67-53.8-6.97-80-10-6.31-5.41-10.43-16.81-18-21-14-7.75-35.95-3.99-55-7-15.24-2.41-32.56-7.99-50-11-31.31-5.41-62.33-7.82-84-21-5.47-10.13-10.14-21.37-21-24-12.01-2.91-25.63 0-37-1-5.32-.47-10.39-2.13-16-3-5.71-.89-12.41.11-17-1-11.86-2.87-24.08-14.41-34-22-12-9.18-21.16-16.89-29-26-8.77-10.19-18.81-18.83-26-29-7.63-10.78-12.25-22.29-20-35-.49-12.31-16.26-23.36-6-34 13.03-.36 13.56 11.78 20 18 9.47 1.29 16.75 9.8 27 7 5.29-4.61-3.86-15.58 2-21 5.24 1.76 5.58 8.42 12 9 2.03 2.63 3.44 5.9 5 9 16.81 6.86 26.69 20.65 44 27 5.89-2.11.93-15.07 4-20 7.49-1.98 10.81 8.4 15 13 3.29.71 6.39 1.61 10 2 12.6 12.41 29.52 20.54 44 31 5.34 3.86 11.05 4.78 17 8 11.4 6.17 19.65 17.83 39 17 4.75 5.25 11.86 8.14 17 13 24.57 4.76 40.17 18.5 65 23 3.86-4.26 9.11-2.9 9-10-.12-7.79-16.85-11.63-25-15-30.13-12.43-47.7-23.32-64-51-8.39-14.25-22.18-28.84-22-50 10.45-.69 17.8 10.14 31 10 25.88 13.94 58.84 38.49 87 55 15.82 9.28 22.18 15.01 41 22 15.77 5.85 24.64 3.55 32-10 44.73-11.66 96.79 8.32 144 13 11.79 1.17 16.23-4.26 26-5 10.07-.77 22.91 3.31 35 5 21.83 3.05 45.57-1.73 63 2 8.63 1.85 16.03 7.29 24 9 20.46 4.39 44.82 10.65 72 8 5.22-.51 10.69-3.48 17-4 22.19-1.81 45.35 1.42 67-3 8.29-1.69 18.53-3.83 30-6 4.94-.93 9.3-4.14 14-5 11.02-2.01 20.44-1.61 30-4 21.3-5.33 47.99-12.63 68-23 2.37-1.23 3.4-3.05 6-4 2.73-.99 5.5-.91 7-2 2.49-1.81 3.78-7.39 6-10 3.96-4.65 11.01-6.99 15-11 7.24-7.28 8.76-16.93 19-21 21.26-8.45 44-8.05 73-13 7.79-1.33 15.6-4.7 28-7 7.91-1.47 24.66-3.82 26-9 2.4-9.29-6.53-9.47-11-14-20.1 6.53-47.75 7.39-72 13-12.57 2.91-38.92 11.32-58 9-9.45-1.15-14.28-11.39-23-13-8.77-1.62-21.82 2.77-33 4-11.64 1.28-23.33 1.47-34 3-13.18 1.89-26.26 7.45-42 9-15.45 1.53-32.82 5.78-50 5-27.47-1.25-61.32.65-86-4-11.59-2.19-20.82-21.95-34-26-17.94-5.51-43.71-.93-63-3-64.07-6.88-114.29-11.17-173-23-16.92-13.56-47.23-13.39-78-14-8.55-.17-16.58-1.71-25-3-8.88-1.36-17.29-.8-25-2-21.97-3.41-44.47-10.56-66-17-6.54-1.96-13.23-5.32-20-7-4.09-1.01-8.7.14-13-1-14.73-3.91-26.5-13.64-41-18-13.28-4-28.25-4.22-41-5-13.16-.81-28.31.69-43-2-15.44-2.83-23.24-16.82-41-19-9.98-5.78-17.92-18.15-28-23-8.63-4.15-18.94-5.39-28-8-16.8-4.85-30.81-7.04-46-13-17.14-6.72-33.63-19.54-51-30-17.51-10.54-37.49-20.3-48-33-8.33-10.07-9.26-23.56-15-37-3.71-8.7-13.57-13.52-12-24 14.95-8.77 21.65 12.37 32 12 5.77-.21 6.5-7.31 12-8 10.52-1.32 14.17 13.61 28 13 1.52-7.5-8-19.34 2-25 15.77 1.17 18.96 17.65 29 26 11.84 9.85 29.8 17.9 47 27 21.61 11.43 36.72 25.88 58 35 12.74 5.17 25.1 4.52 37 8 5.33 1.56 9.83 7.08 16 10 6.12 2.89 12.77 4.14 18 7 17 9.3 29.1 18.73 49 25 5.16 1.62 12.68 4.6 17 5 13.11 1.22 25-6.24 40-3 8.56 1.85 14.54 7.7 25 5 2.77 1.89 5.13 4.2 8 6 28.46.98 51.59 7.38 77 13 5.76 1.27 10.59 5.1 16 6 4.08.68 8.89-.94 13 0 4.05.92 7.19 4.87 11 6 16.53 4.91 38 6.83 55 13 5.18 1.88 9.09 6.08 14 7 11.39 2.13 24.43-1.46 36-1 21.45.86 37.94 6.76 62 11 10.53 1.85 19.93 5.08 29 7 17.93 3.8 38.78 5.64 58 8 17.9 2.2 43.12 10.29 60 6 6.3-1.6 13.72-14.58 20-17 21.36-8.23 57.67 4.97 75 9 32.09 7.46 66.6 10.04 106 14 15.33 1.54 35.39 4.84 45 0 11.11-5.59 11.21-23.19 21-32 25.41 1.82 51.17-.96 77 1 14.08 1.07 27.36 4.63 40 4 5.5-.28 10.63-3.18 16-4 14.25-2.17 28.63.44 42-1 4.88-.53 10.56-2.94 16-4 5.74-1.12 12.02-.6 17-2 13.83-3.88 27.73-20.89 41-25 3.3-1.02 7.24-.25 11-1 17.59-3.53 38.83-9.4 58-11 10.34-.86 21.82-2.79 32-3 5.73-.12 12 2.33 18 2 11.32-.62 25.79-7.92 40-8 4.19-.02 9.15 2.49 13 2 3.12-.4 3.63-1.73 8-4 2.85-1.48 7.08-1.81 9-3 7.29-4.51 13.74-16.25 22-26 13.45-15.88 25.12-18.65 29-38-16.32-16.08-49.51-1.25-70 5-11.68 3.56-21.68 6.28-35 11-9.88 3.5-16.11 9.86-27 11-3.2.33-7.27-1.11-11-1-10.23.31-20.54 4.8-30 3-12.39-2.36-15.44-15.35-36-13-5.25.6-10.38 3.75-16 5-4.81 1.07-10.15 1.02-15 2-7.33 1.49-15.23 2.63-25 5-4.67 1.13-8.5 4.86-13 6-3.81.96-8.12.08-12 1-12.64 3.01-26.4 8.14-39 12-3.56 1.09-7.21 4.31-11 5-14.88 2.72-28.15-5.94-41-7-20.23-1.68-45.54 10.72-73 14-7.22.86-13.5-.16-20 1-5.1.91-9.92 4.01-15 5-6.6 1.29-11.85-.25-17 1-3.5.85-7.53 3.98-12 5-8.05 1.83-17.22.24-26 2-6.05 1.21-11.54 4.61-17 5-14.58 1.04-35.45-2.08-43-7-3.89-2.54-5.29-9.06-9-11-13.78-7.22-40.34-1.66-60-2-5.89-.1-11.58-2.9-18-4-15.39-2.65-32.97-.61-48-3-9.81-1.56-17.98-3.18-28-4-7.91-.65-14.34-4.52-22-6-22.83-4.41-45.09-2.29-67-7-3.89-.84-7.18-4.16-11-5-8.39-1.83-17.36.5-26-1-6.7-1.16-14.61-8.04-24-5-13.21-10.25-26.48-16.09-45-22-8.54-2.73-16.07-2.21-29-4-14.89-2.06-30.9-8.93-47-13-8.32-2.11-16.7-3.64-25-5-8.64-1.41-15.38-5.1-23-7-3.92-.98-8.3.08-12-1-3.7-1.08-6.31-4.17-10-5-7.26-1.63-15.25.33-23-2-16.3-4.91-34.38-14.2-47-23-4.73-3.29-8.15-9.67-14-12-13.41-5.35-28.71-2.06-42-7-9.78-3.63-19.57-9.31-28-14-22.54-12.55-44.57-24.56-63-42-3.73-3.53-6.08-9.69-11-13-6.18-4.17-14.29-5.88-21-9-18.4-8.55-38.31-21.22-54-34-3.78-3.08-5.94-8.26-10-12-8.41-7.76-19.8-13.67-27-22-5.93-6.87-9.58-15.2-16-22-6.12-6.49-14.54-11.23-20-18-4.87-6.04-9.92-14.63-16-22-10.98-13.3-27.68-28.94-17-53 10.66.49 16.67 14.08 24 21 7.42 7.01 19.27 14.8 28 22 11.77 9.7 34.57 27.49 44 8-.63-11.94-8.6-30.61-1-41 9.72.08 21.07 6.77 27 14 8.13 9.92 10.09 25.56 16 37 2.83 5.47 8.18 9.49 12 15 13.22 19.1 19.7 33.35 39 48 6.79 5.15 12.86 12.61 19 16 6.56 3.62 14.22 5.24 21 9 6.45 3.58 12.81 7.37 19 11 18.41 10.79 30.4 20.34 49 30 10.29 5.35 24.87 15.93 37 20 5.6 1.88 12.13.89 18 2 14.05 2.65 28.83 9.03 44 13 15.08 3.94 30.73 6.91 46 11 25.35 6.79 50.04 16.94 75 25 25.58 8.25 51.41 18.49 77 23 4.61.81 10.77-1.64 16-2 13.27-.9 25.28 1.59 38 3 16.2 1.8 33.11-1.2 50 1 6.22.81 12.38 3.04 19 4 19.83 2.88 41.03 7.06 61 8 21.35 1 38.65 2.95 60 7 7.86 1.49 13.5 4.9 21 4 12.28-1.48 16.75-14.2 29-17 19.9-4.55 43.84 2.83 60 5 8.02 1.08 16.4 1.95 26 2 28.95.16 55.22 4.77 88 6 12.42.46 27.35 2.22 37 0 12.35-2.84 24.42-20.74 37-25 20.7-7.01 54.92-3.94 82-2 24.01 1.72 51.08 2.4 75 1 24.24-1.42 46.4-10.27 68-10 14.98.19 30.72 4 47 4 16.64 0 33.36.95 50 0 17.91-1.02 37.39-5.22 57-6 19.81-.79 31.5 2.28 40-13 3.48-6.26 5.68-16.89 9-27 5.69-17.31 12.51-31.98-2-42-3.91-2.7-9.46-2.1-14-5-4.04-2.58-16.81-17.79-20-23-4.46-7.27-7.16-16.11-11-23-4.56-8.17-8.5-14.79-11-22-8.18-11.42-19.6-21.17-24-38-1.79-6.84-1.44-14.49-3-22-1.96-9.43-4.19-20.05-8-31-1.84-5.29-6.21-9.22-8-14-2.54-6.78-2.3-14.4-5-22-6.29-17.72-16.36-39.21-19-62-1.02-8.79-1.35-18.88 0-27 1.22-7.3 8.43-15.64 10-23 1.03-4.84.12-11.52 1-18 3.12-23.11 0-52.71 0-81 0-26.2 4.88-48.06 7-76 1.11-14.68 8.06-35.94 11-50 2.07-9.87 1.07-22.03 6-28 8.05-9.74 28.44-11.95 36-22 6.93-9.21 9.6-24.73 15-39 3.19-8.43 8.85-15.59 11-22 1.45-4.34.65-9.11 2-13 3.16-9.14 12.01-23.91 19-34 14.5-20.95 20.08-33.29 38-50 5.88-5.49 14.09-13.12 20-16 7.48-3.64 14.24-3.02 20-8 8.56-7.4 13.26-20.23 21-30 3.61-4.57 8.29-9.16 12-14 3.75-4.88 6.23-11 10-15 5.6-5.95 14.11-10.36 21-16 17.77-14.55 33.7-27.87 58-38 20.11-17.32 46.79-31.87 73-48 11.99-7.38 26.38-13.31 39-21 12.98-7.91 25.23-17.01 38-22 2.94-1.15 6.97-.9 10-2 13.02-4.73 23.18-15.03 36-18 3.89-.9 7.65-.26 11-1 4.13-.91 5.71-3.58 10-5 3.38-1.12 7.6-.01 11-1 3.8-1.1 6.17-4.67 10-6 3.03-1.05 6.49-.71 10-2 11.7-4.28 24.18-6.84 39-11 11.67-3.28 24.99-14.2 38-6-.52 17.48-15.88 20.12-23 31-11.17 2.83-16.73 11.27-28 14-2.96 7.76-21.88 11.77-19 21 3.07 9.82 23.18-1.82 29 8-2.45 11.35-16.87 11.62-29 15-4 1.12-7.63 4.16-11 5-4.33 1.08-9.44-.04-14 1-13 2.98-26.03 9.61-38 11-4.82.56-11.49-1.11-16 0-10.3 2.54-24 15.48-32 23-8.97 8.43-17.65 20.08-27 27-8.7 6.45-20.03 11.04-29 16-9.94 5.5-16.91 13.73-25 19-4.39 2.86-9.79 3.29-15 7-9.23 6.56-17.18 15.47-25 23-15.1 14.55-32.09 30.33-50 44-9.54 7.28-21.26 13.26-27 20-4.94 5.79-8.49 12.9-13 19-4.54 6.14-8.99 11.12-15 17-11.11 10.87-18.27 23.82-27 36-17.46 24.37-38.45 46.13-54 72-.94 31.09-.17 55.75-8 79-3.14 9.32-8.6 18.04-13 27-11.24 22.88-25.78 47.25-35 74 1.88 13.84-7.02 28.07-6 42 1.13 15.33 18.51 26.17 24 39 5.27 12.34 5.46 29.8 6 44 1.04 27.6-9.98 66.11-1 91 4.25 11.78 14.04 25.34 21 38 7.58 13.8 11.63 29.85 18 41 4.81 8.42 13.17 14.5 15 27 15.1 5.15 18-3.1 25-12 4.65-5.91 9.07-9.68 12-15 7.31-13.25 14.61-25.2 18-36 22.06-16.67 30.16-44.67 46-66 8.92-12.01 24.01-22.09 35-34 11.38-12.33 22.32-25.22 33-35 6.77-6.2 15.02-9.63 20-18 2.21-3.72 1.21-7.81 3-12 3.32-7.75 9.83-15.43 14-24 8.02-16.47 18.06-32.14 28-48 7.39-11.78 12.89-22.02 20-35 15.65-28.57 47.29-45.61 63-74 35.58-30.08 78.28-53.05 113-84 28.47-14.22 54.65-34.64 82-52 23.63-15 44.01-34.47 65-52 7.83-1.5 11.64-7.03 19-9 16.82-24.51 43.78-38.89 72-52 4.38-3.62 9.05-6.95 12-12 34.36-19.44 62.25-46.82 85-78 22.76-31.2 58.24-49.2 87-75 34.38-8.77 72-28.57 116-38 5.93-1.27 12.08.03 18-1 4.58-.8 9.41-3.86 15-5 24.12-4.92 53.44.76 71-8 8.94-4.46 14.77-12.09 22-21 4.48-5.52 10.03-10.53 12-14 1.96-3.45 2.33-7.78 4-11 6.57-12.7 18.21-21.09 28-33 26.87-7.17 51.57 15.79 64-7 1.05-3.29.48-8.19 2-11 7.69-12.76 11.85-27.4 20-40 3.95-6.11 9.2-10.83 13-17 13.45-21.85 23.93-46.71 43-64 6.16 2.7 11.31 7.42 19 12 4.87 2.9 15.92 9.75 22 6 3.79-2.33 6.38-20.83 7-28 .7-8.01-.77-16.7 0-26 1.28-15.31 10.81-38.47 19-43 22.45-12.41 75.24 19.48 93-5 6.78-33.36-5.3-89.44 1-126 .72-4.17 4.19-7.62 6-12 3.68-8.93 3.48-18.6 11-20 11.71-2.18 12.32 10.13 23 11 5.92-2.54 3.17-11.62 3-18-.2-7.79.84-16.95 0-23-.69-5.01-3.82-8.2-5-13-2.73-11.13-2.98-22.27-7-33-1.28-3.42-5-6.4-6-10-2.29-8.22-2.09-22.19-3-34-1.05-13.58-.97-25.74 1-37 15.94-2.69 20.42 26.26 35 24 7.23-1.12 7.03-8.99 5-18-1.72-7.65-2.14-17.57-4-24-1.78-6.14-7.65-12.89-8-14-4.45-14.08-3.99-35.49-8-51-2.96-11.46-10.35-28.76-12-41-3.38-25.13-.04-54.34-1-82-.92-26.7.01-53.72 1-80 .93-24.74 5.18-50 8-75 4.64-41.18 6.59-78.42 11-117 .93-8.09 3.77-15.9 5-24 1.35-8.82.58-17.86 2-26 2.94-16.83 9.26-32.3 11-48 2.73-24.58-.74-42.4 13-51 8.15-2.57 6.7 6.97 10 15 2.9 7.06 9.52 13.44 13 24 5.49 16.65 7.33 37.36 12 51 2.42 7.07 8.86 15.69 11 21 8.73 21.69 14.96 44.31 23 66 3.15 8.5 6.97 18.29 11 26 7.46 14.25 21.69 29.13 31 46 8.1 14.68 14.2 29.99 22 41 6.92 9.76 17.32 18.4 25 29 22.24 30.69 45.66 62.5 67 94-1.97 10.97 6.63 11.36 5 22 15.25 16.38 24.19 41.28 34 66 5.96 15.02 13.82 26.95 17 47 2.95 18.62 1.99 41.13 1 61-1.19 23.98-8.81 46.24-11 65 19.75 3.88 34.29-19.53 55-18 3.13 6.58-3.04 11.19-5 17-6.74 19.93-9.76 43.68-20 61-5.19 31.66-21.03 66.92-12 103 12.61 2.16 24.72-9.82 34-11 4.72 13.69-2.11 26.19-4 39-.68 4.59 1.07 9.24 0 14-1.07 4.73-5.41 8.43-7 13-4.32 12.41-3.4 28.01-7 43-1.15 4.78-3.79 8.89-5 14-3.55 14.98-2.43 30.96-7 45-3.55 10.9-17.15 21.23-8 37 12.02-2.15 23.42-3.56 36-2 6.4 19.6 1.42 40.08-2 62-1.75 11.21-1.35 24.88-3 37-2.25 16.53-6.94 30.74-2 44 2.23 5.98 14.56 13.05 16 20 .76 3.69-3.66 15.96-6 24-2.03 6.96-4.68 14.2-7 22-2.36 7.94-3 16.55-5 24-2.88 10.7-8.23 21.08-10 34-1.84 13.48-2.33 28.06-5 39-2.59 10.6-10.84 19.88-9 36 .52 4.52 5.94 10.97 6 15 .07 4.49-4.85 9.37-6 14-3.63 14.61-3.48 29.57-7 45-4.58 20.09-17.03 37.97-23 58-1.6 5.37-.51 11.85-2 17-2.71 9.37-13.23 18.4-17 30-1.12 3.46-.82 7.81-2 11-3.87 10.5-17.22 18.02-8 33-10.86 30.66-45.2 43.46-62 73-2.91 5.11-7.6 11.11-8 16-.54 6.58 5.27 13.66 4 20-1.9 9.46-21.72 17.59-30 24-12.49 9.66-42 31.83-29 49 2.87 3.79 6.27 4.49 6 8-.62 8.02-30.58 14.41-36 19-8.88 9.48-26.37 9.95-31 23-1.45 4.09.15 9.17-1 13-1.97 6.54-8.15 14.12-12 19-7.07 8.96-18.42 14.36-26 24-29.49 8.84-48.32 28.34-59 56-4.87 22.36-4.55 43.58-7 65-3.32 29.07-23.88 50.1-32 73-45.56 49.89-92.84 99.97-136 156-10.24 13.3-22.4 25.92-34 39-11.33 12.78-20.98 27.67-32 41-15.53 18.79-37.08 36.35-56 54-16.74 15.62-35.95 26.74-58 38-13.27 6.77-26.04 14.87-41 18-5.98 13.05-12.46 30.83-10 49 27.71 15.06 57.3 1.75 85 11 6.05 2.02 10.74 6.97 17 9 7.82 2.53 16.54 4.17 25 7 8.25 2.76 17.61 5.11 26 5 17.62-.23 34-12.23 54-14 3.36-.3 7.55 1.5 11 1 5.53-.8 8.87-5.11 15-7 6.86-2.11 15.68-2.87 24-6 8.55-3.22 15.24-7.98 21-7 8.13 1.38 10.55 10.14 15 12 18.08 7.56 44.96-6.64 59-11 22.42-6.96 51.56-14.06 75-22 17.15-5.81 36.91-14.34 56-21 10.62-3.71 19.14-11.64 29-15 3.5-1.19 9.69-.86 14-2 12.25-3.24 10.75-3.76 23 0 4.23 1.3 8.49.93 12 2 4.46 1.36 9.58 6.7 13 7 5.66.49 16.26-7.16 24-11 9.2-4.57 17.61-7.38 24-11 15.42-8.72 27.86-21.95 40-30 14.7-9.75 30.58-17.12 45-25 15.44-8.44 25.14-23.07 40-29 17.87.1 29.87-14.06 41-25 19.6-19.27 35.23-35.23 55-55 8.89-8.89 17.17-24.01 26-29 4.83-2.73 9.89-2.49 14-5 10.95-6.7 18.75-25.07 26-38 8.31-14.82 17.33-28.44 23-41 4.84-10.71 7.54-24.03 13-36 5.3-11.61 12.1-21.17 16-33 8.37-25.37 6.39-55.13 20-78 15.2 1.14 11.57 9.77 24 8 8.5-1.21 13.54-13.22 19-22 5.45-8.76 13.1-21.06 15-26 .82-2.12.67-8.12 2-12 3.18-9.28 15.96-32.76 22-31 9.14 2.66 2.34 43.66 3 61 .34 9.07.93 19.92 2 24 2.11 8.01 7.53 3.77 9 14 1.02 7.15-4.69 16.54-8 25-6.85 17.51-11.53 31.81-18 48-8.42 21.07-18.29 38.02-31 55-8.46 11.3-18.93 16.86-27 26-3.45 3.91-5.05 9.69-8 16-3.64 7.78-8.66 17.08-13 23-13.62 18.6-32.81 22.55-33 53-.04 5.79 3.94 11.74 3 17-1.59 8.94-20.52 21.15-29 28-11.68 9.44-23.67 17.58-34 23-27.14 14.25-49.32 31.86-72 42-3.19 5.39-7.75 9.92-8 15-.45 9.18 10.53 18.89 6 30-3.66 8.97-31.62 16.13-42 22-13.3 7.52-26.95 18.31-39 25-10.22 5.67-28.72 9.57-41 16-5.29 2.77-8.16 7.57-11 9-5.28 2.66-14.31 3.85-22 6-7.03 1.96-14.18 5.79-20 7-18.29 3.79-35.45 3.9-43 18 7.58 25.05-19.63 25.82-39 32-4.65 1.48-8.44 4.99-12 6-16.21 4.6-34.95 4.85-53 9-43.94 10.1-104.86 8.61-156 12-10.13.67-22.23 12.26-33 16-20.07 6.97-36.55 14.8-60 19-22.95 4.11-45.51-2.61-70-2-4.62.12-9.27 2.31-15 3-5.92.71-12.67-.9-18 0-10.96 1.85-20.09 9.47-31 12-16.13 3.74-35.86-.54-56 0-4.41.12-11.05-5.75-16-7-9.3-2.35-16.89-1.44-25-5-6.69-2.93-13.21-6.19-20-9-12.66-5.23-25.04-19.62-36-22-3.34-.73-8.8.55-14 0-8.82-.93-17.12-5.31-23-3-15.02 5.9-27.36 22.36-42 32-13.78 9.08-30.24 12.81-35 27-6.62 19.74-8.16 28.44-2 47 2.21 6.65 4.89 13.87 7 19 10.26 25.02 30.99 36.75 47 59 4.09 5.68 12.65 13.63 13 17 .58 5.62-5.5 9.05-5 16 .51 7.07 10.1 14.39 15 21 16.03 21.61 25.65 43.2 40 66 5.45 17.38 16.88 34.93 27 50 4.69 6.98 11.73 12.57 18 17 21.08-5.65 24.32 10.47 35 18 6.09 4.29 14.03 4.95 18 8 7.56 5.81 9.03 18.55 16 26 13.75 14.71 32.4 20.69 46 35 16.46 4.11 28.29 19.25 47 24 7.49 1.9 17.39 2.71 28 6 19.57 6.07 50.11 2.89 69 12 16.08 7.75 18.48 27.15 24 48 26.63 13.75 53.48 41.04 87 53 9.25 3.3 19.58 5.57 29 9 9.71 3.54 20.32 9.54 30 11 3.91.59 8.18-.71 12 0 14.54 2.71 35.64 10.85 45 19 10.81 9.41 15.57 23.56 28 30 31.92 6.56 63.07 24.17 98 27 26.29 2.13 52.87 4.22 80 6 31.21 2.04 64.5-.81 98 0 9.07 14.6 29.55 16.8 49 16 40.31-1.66 86.91-4.06 126-2 7.33.39 15.06-.13 23 0 4.08.06 7.78 2.84 12 3 6.22.24 12.24-3.36 18-4 19-2.12 36.97-2.47 55-7 16.17-4.06 30.24-12.34 45-18 13.71-5.26 27.58-8.35 40-14 2.91-1.42 4.8-3.87 7-6 9.91.08 18.44-9.07 27-4 .6 8.36-4.46 16.74-10 23-4.3 4.86-16 6.65-13 15 5.03 6.91 14.04 1.87 21 1 10.24-1.28 20.92-.94 31-2 11.28-1.19 20.66-7.46 29-9 12.96-2.4 17.95 1.92 24 7 6.46.54 15.16-1.16 20 1z"/></svg>