<svg xmlns="http://www.w3.org/2000/svg" xmlns:dc="http://dublincore.org/documents/dcmi-terms/" height="51.169" version="1.2" viewBox="0 0 56.809 51.169" width="56.809" overflow="inherit"><metadata><dc:description>Silhouette of Neognathae, processed by PhyloPic Tools (https://github.com/eweitz/phylopic-tools)</dc:description><dc:source>http://phylopic.org/image/41440b20-a497-417d-8f11-87428a867fc8</dc:source><dc:license>http://creativecommons.org/publicdomain/mark/1.0/</dc:license></metadata><path d="M25.781 0h-2.657c-1.542.349-2.972.621-5.019.787-1.213.099-2.662.725-2.755 1.378-.125.886 1.408 1.236 2.361 1.673 1.415.648 2.852 1.394 3.642 2.46.399.539 1.065 1.861.787 2.854-.277.987-2.858 1.563-3.051 3.05-2.033.418-2.445-1.438-3.346-2.46C17.144 4.693 9.739.197 7.084 5.511c-.684-.126-.809.307-1.082.59-2.208.579-4.77.806-6.002 2.361v.197c3.648-.647 11.277-2.155 13.186.788.432.665.486 1.65.689 2.361.229.805.297 1.695.59 2.46.664 1.732 2.333 3.589 3.739 4.527.564.376 1.088.43 1.574.984-.105.671-.979 1.067-1.377 1.771-.153.271-.131.664-.296.984-.775 1.503-2.301 2.241-1.673 4.329-1.055.749-1.978 1.631-1.968 3.444-.883 1.094-1.712 1.956-2.263 3.247-.564 1.322-.65 3.146-1.477 4.133-.389 2.077-1.082 3.96-.59 5.904 1.706.458.838 3.491 2.164 4.33.56-.05 1.268-.939 1.575-.591-.014 1.152.309 2.58 1.082 3.247 1.384-.214 1.127-1.177 2.066-1.771.255.959.504 1.923 1.279 2.361.612-.339 1.251-.651 1.673-1.181.204-.533-.087-.951.394-1.181.537.794.805 1.304 1.771 1.574.567-.494 1.337-.867 1.673-1.673.309-.74-.031-1.728.59-2.361 1.279.308.959 2.331 2.559 2.066 1.842-.306.45-3.162.886-4.724 1.396.408 1.219 2.389 2.854 2.559.543-.125.379-.864.591-1.279.17-.333.416-.322.492-.688.126-.612-.281-1.229 0-1.87.604-.447.814.701 1.279.394.484-.957 1.682-1.39 1.771-2.657.059-.83-.616-1.348-.196-2.164.737-.42.552.697 1.279.59.865-2.159 2.652-3.897 2.263-6.986 1.407-.709 2.85-2.798 3.247-4.821.091-.459.008-.956.099-1.378.223-1.029 1.161-1.775.492-2.854.772-.015.421-1.154.591-1.771 2.002-.391 4.398-.39 5.608-1.574 2.433-.226 4.938-1.531 6.101-3.051 2.222-.547 3.241-2.603 1.87-4.625-.37-.546-.782-1.231-1.083-1.476-.48-.393-1.429-.567-2.263-.886-2.712-1.036-7.3-2.458-10.529-1.771-.217.507.488.303.198.592-.354.251-.562-.485-1.181-.295-.07.291-.027.695-.295.787-.032-1.624-1.562-2.383-2.559-3.149a79.27 79.27 0 0 1-2.559-2.066C33.272 1.431 29.579.663 25.781 0z" fill-rule="evenodd"/></svg>