<svg xmlns="http://www.w3.org/2000/svg" xmlns:dc="http://dublincore.org/documents/dcmi-terms/" height="1836" version="1.2" viewBox="0 0 2376.399 1836" width="2376.399" overflow="inherit"><metadata><dc:description>Silhouette of Eutherapsida, processed by PhyloPic Tools (https://github.com/eweitz/phylopic-tools)</dc:description><dc:source>http://phylopic.org/image/9ac4a91b-4750-498d-987d-c6c4b8420450</dc:source><dc:creator>Dmitry Bogdanov (vectorized by T. Michael Keesey)</dc:creator><dc:license>http://creativecommons.org/licenses/by/3.0/</dc:license></metadata><path d="M234.399 13c-2.035.965-2.16 3.84-2 7-8.521-.716-15.04-1.066-23-4-.409-2.409 1.826-2.174 1-5-1.757.91-1.829 3.504-3 5-4.293-1.374-12.496 1.163-11-6 .211 4.114-6.544 3.702-14 3 .307-4.973-.158-9.175-1-13-2.884 2.95 1.404 7.213 0 12-4.772.772-6.437-1.564-11-1-1.974-2.36-2.355-6.311-3-10-2.98 2.087 1.328 5.26 0 9-2.432 2.125-9.484.735-10 2-.319-2.786-1.779-2.373-3-6 1.06 4.093-5.117 2.432-9 4-3.838.172-2.162-5.172-6-5 .86.807.594 2.739 2 3-7.061 3.854-27.898 7.681-31 0-.325 8.935-16.576 3.779-23 8-4.645-3.022-8.362-6.971-12-11-.668 2.701 5.658 6.984 8 10-12.273 10.315-21.19-3.311-26-12-1.416 2.274 8.312 10.214 9 17-1.812 2.034-6.188 4.428-8 1-12.735 6.146-17.121 10.478-33 13 1.632 3.422-.119 3.005-2 5-8.436 1.102-10.006-4.66-17-5 3.188 3.146 8.812 3.854 12 7 .213 2.946-4.477 6.1-6 4-.096 1.512-2.373 3.428-3 7-2.854-1.479-6.619-2.047-9-4-2.302 2.693 6.023 3.267 8 5-2.64 5.241-3.729 8.072-4 14-1.793.127-2.109-1.224-4-1-1.008 3.008 2.229 1.772 4 2 2.225 3.246 6.172 5.476 5 13-2.248 14.434-6.074 32.617 0 47 1.314 1.02 3.686.98 5 2-2.502 10.298 7.414 24.536-2 29-.169 2.168 3.547.453 5 1-1.6 3.469 3.755 7.687-1 8 2.82 1.846 3.568 5.765 5 9-.184 3.149-5.386 1.281-5 5 2.928.261 3.072-2.261 6-2 1.974 2.36 3.463 5.203 5 8-.613 3.387-4.438 3.562-6 6-1.367 2.008 5.812-3.069 8-4 1.837 1.497 2.493 4.173 5 5-.352 3.315-2.995 4.338-5 6 2.126 3.02 3.724-2.864 6-3 5.731 1.269 8.354 5.647 13 8-4.479 5.188-10.688 8.646-12 17 6.044-5.746.472 9.307 3 12 1.524-10.143.965-22.369 9-26 8.127.206 13.438 3.229 21 4-4.997 5.336-9.578 11.088-15 16 7.789-.441 10.805-17.744 23-14-.676 5.991-4.55 8.784-5 15 3.341-3.993 4.609-10.058 8-14 9.324 3.446 23.277 3.793 24 13 2.932-.847-.598-3.22 0-5 4.113.553 6.467 2.866 11 3 1.151 1.182 1.132 3.535 1 6 3.008 1.008 1.772-2.228 2-4 16.446 1.964 35.672 14.738 49 17 2.565.102 1.607 3.727 3 5 29.065 10.929 49.158 28.175 70 47v4c3.917 1.75 6.768 4.566 10 7 .127 1.793-1.224 2.109-1 4 4.05-3.072 5.752 3.118 8 5 .169 2.168-3.547.453-5 1 2.225.47 11.095 2.885 12 8-5.441 1.838-5.557-.251-12 0 4.445 3.888 17.011-.344 18 7-2.987 2.013-7.057 2.943-12 3 4.591.86 14.985 2.679 14-1 7.66 1.945 1.002 6.392 7 10-5.122 3.019-5.695.692-13 1 1.849 1.484 4.751 1.916 8 2-.658 1.342-2.138 1.862-4 2 3.654 2.608 10.574-.059 14-1 3.09.91 2.695 5.305 7 5 .363 4.363-1.817 6.183-4 8 1.283 1.54 5.991-1.952 6-5 2.699 1.967 5.34 3.994 7 7-.691 1.975-2.668 2.666-5 3 2.75 3.006 5.229-2.713 10-1-.098 6.236-3.809 8.858-8 11 3.57 1.537 7.62-5.021 11-7 2.269.144 6.141 3.752 3 6 .086 1.942 4.281-2.107 3 3 .807-.86 2.739-.594 3-2 7.225 6.089 2.136 16.449-3 21 1.795 2.872 5.873 3.461 10 4 .873 3.206-1.539 3.127-3 4 2.161 2.417 5.838-2.105 9-2 3.705 1.628 6.07 4.596 9 7-.175 4.825-4.825 5.175-5 10 2.323-.677 2.677-3.323 5-4-.172 9.505 4.048 14.619 9 19 .698 4.365-2.887 4.446-3 8 2.3-2.034 4.427-4.24 7-6 3.557 2.582 1.89 9.171-2 10 8.226.196 8.1 14.913 8 23 4.897 4.422 12.477 8.106 9 18 1.889-.111.694-3.306 3-3 5.921 3.728-1.286 7.537 0 15 2.01-1.657.758-6.576 4-7 7.585 7.265 5.609 26.514 16 28 1.401 5.402-2.7 5.3-3 9 3.766-4.686 7.765-1.333 13 0 1.209 8.208-3.338 10.662-4 17 2.956-2.377 3.879-6.788 6-10 2.115 3.885 2.242 9.758 6 12-1.361 2.305-1.753 5.58-6 5 .257 2.34 4.394.576 5 0 7.863 12.196 22.869 18.669 27 37-2.441 1.559-6.207 1.793-8 4 1.683 7.264 5.895 21.721 3 27 5.09 8.458 4.41 17.19 6 26 3.573 19.798 15.09 35.407 18 55 14.506 8.494 20.806 25.195 29 40-3.539 14.794-8.816 27.851-11 44-2.134.467-1.905-1.429-2-3-1.971 20.139-7.966 41.979-8 66-.036 25.203 5.941 50.755 8 73 .483 1.96-4.584 3.221-5 1-2.932.848.598 3.22 0 5-38.212 36.455-67.587 81.747-92 132-5.997-3.902-4.734 4.271-11 3-2.895 8.878-9.649 15.068-11 24-.387 2.555 1.509 5.421 1 8-2.08 10.549-11.244 15.338-17 24-9.386-.386-10.526 7.474-17 10-10.622-1.972-26.182 3.979-32 13-16.708-1.83-30.434-6.609-47-6-11.547 8.119-31.318 8.016-38 21 4.331.664 6.193-1.14 8-3 3.086 1.913 6.368 3.632 10 5-5.961 10.373-17.908 14.758-23 26 7.676-.605 21.073-4.154 34-5 1.885 3.184-.253 4.185 1 8 5.893 7.161 18.287 3.049 24 9 21.188 5.195 34.063-.963 55 3-3.336 15.639-6.151 28.031 4 38 6.345-8.321 8.84-20.494 16-28 .843 3.49 7.993.674 9 4 14.223-6.111 21.197-19.469 42-19 13.039 6.022 20.653-6.421 31-13 12.287-7.812 25.327-14.295 36-23 7.766 1.433 10.261-2.406 17-2 23.732-18.091 43.562-30.688 66-55 12.525-13.571 26.379-28.688 35-42 3.152-4.868 3.113-9.896 6-15 1.963-3.47 5.551-4.805 8-8 3.09-4.032 4.701-10.57 8-15 3.053-4.1 7.047-7.109 9-14 4.146-.271 3.896 1.313 7 0 .1 3.1-.453 5.547-2 7 7.903-1.039-2.813-20.514 8-23 6.035 3.115 6.779 11.688 6 19 4.785-6.805-1.296-16.425-4-22 3.792-2.208 4.941-7.059 8-10 1.711-.044 2.59.743 3 2-.411-9.585 20.39-33.963 26-46-1.136-8.268 3.001-19.568 11-22 5.42.58 3.845 8.155 6 12 2.169.168.453-3.547 1-5 3.677.656 4.98 3.687 7 6 .54 5.207-1.92 7.413-2 12 3.298-1.035 2.159-6.508 4-9 6.513 1.443 4.146 15.519 2 20 2.529.826 3.722-8.252 4-13 5.975 3.025 9.032 8.968 9 18 1.378 3.184.99-3.533 1-5 7.232.719 4.775 9.288 2 13 2.394-1.273 4.071-3.262 4-7 11.145 1.91 13.629 20.362 5 28 5.782 2.094 7.088-8.896 7-16 6.839 5.511 6.872 20.246 4 30 4.128-4.279 3.786-12.251 3-19 18.663 15.337 31.452 36.548 48 54-.016 4.045-2.843 4.562-4 5-.996 20.573-7.455 34.297-11 50-7.934 6.514-18.434 5.373-28 9-.33 3.815-.619 6.339-3 10-24.031 3.302-50.532 4.135-71 11-9.693 10.307-22.947 17.053-27 33 6.704-1.963 9.918-7.415 17-9 1.997 10.16-2.984 22.015 0 32 8.535-8.115 14.773-25.813 33-18 9.264-6.425 34.809 4.327 49-5-.569 13.683 9.934 27.021 24 32 4.095-3.771-6.749-8.098-6-15 .817-2.516 5.272-1.395 7-3-.223-4.396 2.047-5.729 2-12 2.383-1.284 4.038-3.295 6-5 23.67.536 52.744-3.691 73-14 2.007-.34 3.129.204 3 2 8.938-5.396 14.814-13.853 20-23 26.149 17.218 54.825 38.77 83 57 2.003 1.296 8.223 2.424 10 3 9.94 3.223 19.173 15.26 31 19 15.21 4.811 33.264 2.73 50 11 1.352.982 1.999 2.668 3 4 9.92 1.792 17.271.018 23 6-.813 7.853-5.923 11.411-13 13 .147 2.187 2.52 2.147 5 2v8c-.125 2.209-4.242.425-6 1 .949 6.616-2.069 9.264-8 9-.642 5.358-4.522 7.478-8 10-13.765-1.438-26.358 10.263-39 10 .022 2.355-1.723 2.944-1 6-21.491 4.301-45.517 3.173-54 24-24.907 3.427-47.287 9.38-55 30 10.546-1.788 16.297-8.37 29-8 2.363 2.347-.162 4.913 0 8 10.521 11.692 32.72-3.964 41 7-8.686 4.98-17.321 10.013-24 17 1.404 3.499-2.805 6.401 0 8-11.467 11.467-26.236 29.396-19 53 3.848.301 9.675-10.827 9-15 2.732-6.268 11.92-6.08 15-12 2.059 5.022 5.042 5.726 5 11 13.606-7.06 23.294-18.04 33-29 20.153 5.898 44.553 4.521 63 1 2.916 1.71-2.266 3.64-1 7 8.355 1.645 9.315 10.685 13 17 5.988-1.847 8.867 4.107 9 11 13.801 5.174 29.927 13.639 45 9-6.271-6.396-14.652-10.681-18-20 1.212-2.455 4.66-2.674 5-6-1.171-7.521-4.448-15.908-5-21 11.044-8.993 38.72-9.27 53-18 3.956 1.378 6.295 4.371 13 3 3.538-5.887 7.338-12.522 13-15 2.516-1.101 5.837.586 8 0 9.23-2.503 16.126-10.204 25-14h9c-.402-5.402 6.413-3.587 11-4 12.445-9.222 28.208-15.125 38-27 .132-2.465.151-4.818-1-6 6.973-12.027 17.776-20.224 27-30 11.583-1.468 32.604-.801 43 1 6.572 6.246 13.365 2.818 25 2 17.962-1.264 45.151-2.562 56-5 14.277-3.209 31.999-8.248 45-7 14.898 1.431 31.471 10.271 50 13 17.257 2.541 34.833 5.315 54 7 22.556 1.982 48.923.504 68 4 19.507-4.217 56.132-1.325 82-5 2.242.425 3.188 2.146 5 3 3.075-1.259 5.034-3.632 8-5 14.715 1.367 32.247-2.758 49-5 47.674-6.381 106.031 1.909 151 6 1.357-.31.829-2.504 1-4 14.992 3.675 38.812-1.478 46 10 3.872.872 1.634-4.366 6-3 3.078.797 3.202 2.008 2 5 3.21.877 2.073-2.594 4-3 18.745 3.849 32.239 8.411 46 14 15.563-1.433 24.779 6.529 40 12 10.15 3.647 20.124 5.322 27 9 5.317 2.844 12.429 5.504 17 12 42.964 17.703 62.423 58.909 102 80 11.796 10.204 22.69 21.311 31 35h4c.997 12.67 10.786 16.547 14 27 2.716.716-.716-4.716 2-4 15.976 17.419 27.206 40.072 36 62 1.794-.127 2.109 1.225 4 1 9.759 22.907 16.331 49.003 26 72-.083 1.583.481 3.814-1 4 11.675 12.659 11.864 36.803 23 50-.082 10.473 4.081 24.234 2 33 8.866 24.753 9.892 69.493 16 98 5.128 23.933 8.063 51.632 24 62-16.888-45.176.304-79.216 0-136 .297-2.036 2.003-2.664 3-4-3.537-15.554 1.858-32.945-4-45-1.408-20.838-1.677-45.549-9-61 4.446-1.279-2.573-4.848 2-6-7.706-15.295-8.388-37.613-17-52-14.522-56.928-30.329-112.889-56-161-2.856-5.353-5.132-12.302-8-16-6.356-8.194-15.71-14.043-22-22-10.537-13.329-19.343-27.365-30-40-11.673-13.839-26.492-25.725-38-39-2.091-.424-2.647.686-4 1-77.552-56.105-162.265-105.011-266-135-29.753-8.602-62.187-13.176-91-23-18.002.258-35.169-7.953-52-12-48.327-11.621-101.386-16.358-143-35-13.65-2.44-26.489-15.607-41-22-12.646-5.571-26.159-6.91-31-21 2.146-13.301-1.313-32.94 1-48 .161-1.172 1.823-.844 3-1-.425-2.242-2.146-3.188-3-5-.97-27.042-13.385-60.363-28-75-5.731-5.739-27.099-17.079-40-18-19.397-1.385-34.794 14.656-49 25-1.841 6.825-6.511 10.823-9 17-3.772 2.228-6.196 5.804-9 9-17.293-7.707-31.521-18.48-43-32-14.097-8.483-26.567-15.874-40-23-11.122-19.211-29.87-30.796-48-43-14.062-15.939-27.814-32.186-40-50-6.899-.434-8.845-5.822-11-11-7.52-3.814-11.366-11.3-15-19-2.091.423-2.647-.686-4-1-7.976-14.357-21.409-23.257-28-39-17.09-19.243-33.881-38.786-49-60-18.962-14.705-29.853-37.48-48-53v-4c-11.859-9.141-20.373-21.627-32-31 .733-.934 1.818-1.515 3-2-13.763-3.237-19.612-14.388-29-22-.304-4.303 5.896-2.104 8-4-8.25.5-19.106-2.097-24-10 2.777-3.556 8.656-4.01 14-5-8.212-3.447-17.474 6.605-23-2 1-4.333 4.608-6.058 7-9-3.213-1.509-5.901 6.072-10 7-4.549-2.532-2.301-8.467-2-14-3.315.685-.372 7.627-4 8-11.546-10.454-24.713-19.287-37-29 .761-3.906 5.446-3.887 5-9-4.319 11.507-14.955 1.668-20-3 1.028-2.306 3.442-3.225 3-7-2.627.707-1.974 4.693-4 6-5.338-3.663-11.181-6.819-16-11 3.58-2.087 7.828-3.505 10-7-3.646 1.387-12.26 8.231-19 2-.045-3.044 2.111-3.889 3-6-.999-1.576-2.999 4.268-6 4-4.072-2.262-8.891-3.776-12-7 1.39-5.277 7.085-6.248 8-12-3.886 2.781-5.639 7.694-10 10-7.613-.122-9.557-6.379-8-13-3.11.223-1.689 4.977-2 8-7.024-2.976-14.765-5.235-12-18-2.288 1.711-.367 7.633-1 11-3.65-1.016-6.853-2.481-10-4 .179-4.846-1.319-8.014-2-12-2.221 1.965 1.311 6.632 0 11-4.113-.553-6.468-2.866-11-3 .553-4.113 2.866-6.467 3-11-2.479 2.188-2.438 6.895-5 9-6.703-6.863-18.935-2.845-21-15-1.151-3.235-1.132 2.686-1 4-4.676-.991-8.324-3.009-13-4 .769-3.769-1.22-4.78-1-8-2.209.125-.425 4.242-1 6-9.478-3.189-20.734-4.599-24-14-2.995.658.956 2.138 0 4-4.701-.298-5.906-4.094-8-7-1.483.437.395 1.28 0 3-9.106-.561-13.011-6.322-13-16-3.733-.137.512 6.916 0 10-27.744-8.589-38.503-34.164-54-55v-6c-3.504-3.83-8.681-5.986-8-14-.428-1.656 3.729.089 4 1 1.096-1.813-5.097-4.865-8-6 1.646-7.701-1.275-7.314-3-13 1.321-3.91 4.31-.36 5-4h-8c-1.252-5.29 3.603-11.226 5-17-4.232 3.435-4.354 10.98-8 15-1.896-1.77-3.104-4.23-5-6 2.883-4.784 5.09-10.244 5-18-2.121 2.545-1.677 7.656-3 11-1.312-1.2-1.573-.39-3 0-.723-2.655.416-10.361-2-14-1.817 1.183-.786 5.214-2 7-13.266 1.743-16.162-16.913-11-27-2.285-2.714-7.963-2.037-10-5 1.067-.933.312-3.689 3-3-.274-2.358-3.726.092-4 1-3.576-2.062-5.819-5.062-4-10-.934.733-1.516 1.818-2 3-5.131-2.203-1.572-13.094-4-18-2.98 2.087 1.328 5.26 0 9-20.794-5.54-23.283-29.383-33-46 .438-3.438-.396-5.605-1-8-1.172.162-.844 1.823-1 3-10.453-7.213-17.488-17.845-29-24-6.916-11.417-17.405-19.261-28-27-.368-1.701.78-1.887 2-2-4.245-3.421-13.598-1.735-14-9 1.025-3.878 6.695 3.098 6-2-9.646 1.013-13.471.282-18-5 1.107-4.226 5.646-5.021 10-6-4.09-2.057-10.103 2.539-14 4-2.934-.85 1.301-2.517 0-5-1.904 1.874-2.513.109-5 0 .083-1.583-.48-3.814 1-4-2.571 2.34-7.457.126-11-4-.101-3.101 1.223-4.777 2-7 .283-10.713-2.482 3.638-3 7-3.67-2.33-6.368-5.632-12-6-.697-6.364 2.224-9.109 3-14-2.614 3.053-4.35 6.984-4 13-3.657.658-3.836-2.164-7-2-1.321-2.928.639-5.162 0-10-1.378-3.183-.99 3.534-1 5-3.669 3.59-11.736 3.368-12-4-2.932.847.598 3.22 0 5-12.088-1.417-18.061-2.247-29-1-2.998-3.336-4.977-7.69-7-12-1.547 3.25 3.782 8.19 5 12-.577 2.422-3.776 2.224-6 3-3.271-.729-4.406-3.593-6-6-3.027 1.223.707 3.816 1 5-14.239 6.175-39.188 11.962-53 7-.147-2.48-.187-4.853 2-5-1.166-2.677-2.614 2.604-4 3-3.999-1.452-7.951-2.016-6-7-2.091 5.045-15.309 2.535-14-5-1.378-3.183-.99 3.534-1 5-7.906-5.826-16.67 2.537-21-5 3.207 3.191-2.106 2.969-2 6-8.961 2.679-17.126-11.452-11 0-40.283 8.614-85.388-18.704-119-26 .986-2.347 1.754-4.913 2-8z" fill-rule="evenodd"/></svg>