<svg xmlns="http://www.w3.org/2000/svg" xmlns:dc="http://dublincore.org/documents/dcmi-terms/" height="26.476" version="1.2" viewBox="0 0 20.481 26.476" width="20.481" overflow="inherit"><metadata><dc:description>Silhouette of Eutrochozoa, processed by PhyloPic Tools (https://github.com/eweitz/phylopic-tools)</dc:description><dc:source>http://phylopic.org/image/d2196e38-9be6-411c-b6d1-b2e3ef1e6f72</dc:source><dc:creator>Michelle Site</dc:creator><dc:license>http://creativecommons.org/licenses/by-nc/3.0/</dc:license></metadata><path d="M13.259 5.499s.532-.896 2.065-1.631c.849-.408 2.426-1.114 3.586-1.803.941-.556 1.611-1.099 1.41-1.458-.166-.298-.822-.6-2.339-.434-3.11.34-6.82 2.741-7.723 3.326-.869.566-10.332 5.94-6 8.828.139.095.469.212.7.143" fill="#010101" stroke="#020202" stroke-width=".25" stroke-miterlimit="10"/><path d="M.511 20.86l.741.01c.992-.317 2.579-2.785 2.579-2.785s2.348-3.676 8.767-4.581c6.416-.9 6.91-3.255 7.185-3.7.08-.15.506-1.11.482-1.616-.066-1.462-.943-2.407-1.605-2.887-3.758-3.004-11.466 4.834-12.436 3.67" fill="#010101" stroke="#020202" stroke-width=".25" stroke-miterlimit="10"/><path d="M1.251 20.871c-.598 5.166 1.74 4.957 3.561 3.954 1.146-.634 1.697-1.411 2.034-1.642.337-.229 3.68-2.563 8.175 1.189 0 0 .546.481.346.811-.046.146-.301.129-1.018-.313-.701-.275-4.189-3.684-8.344.312-2.182 2.1-4.711 1.054-5.558-.655-.759-1.544.063-3.667.063-3.667-.556-.295-1.676-5.869 6.762-9.593 6.951-2.416 7.888-3.133 7.888-3.133" fill="#010101" stroke="#020202" stroke-width=".25" stroke-miterlimit="10"/></svg>