<svg xmlns="http://www.w3.org/2000/svg" width="777" height="464" viewBox="0 0 777 464"><path d="M42 238c3.139-4.563 3.142-15.089-4-15-2.38-6.62-3.98-14.02-7-20-.566-3.1-4.704-2.629-5-6h4c-3.014-4.62-4.503-9.788-2-15 .261-2.928-2.261-3.072-2-6 2.356.022 2.944-1.723 6-1-1.067-4.599-4.269-7.064-9-8 .279-2.054 2.671-1.996 4-3-.198-3.135-6.542-.125-6-4 2.676-1.498 8.593.817 11-3 .13-3.522-3.579-2.722-6-4-3.85-2.032-7.923-4.578-14-6 4.48-2.832 9.205 1.474 13 3 4.38 1.761 9.609 2.406 12 6 2.556-1.662-3.903-2.685-3-6 2.319-.319 3.839.161 5 1 3.253-4.449 1.507-11.868-4-13-2.386-5.391-3.881-10.471-7-15-3.865-5.613-10.069-7.469-12-14-.452-1.528.479-3.481 0-5-.887-2.812-3.539-6.379-3-11 6.566-1.233 7.803 2.864 11 5 15.8 3.977 33.25 8.499 53 6 13.117-1.659 22.444-9.601 32-14 1.793-.127 2.109 1.224 4 1 6.256-2.077 7.755-8.911 15-10 2.88-.12 1.736-4.265 5-4 .529.804 1.043 1.624 1 3 10.061-3.896 17.978 1.912 26-3 .282 1.615-.945 1.722-1 3 5.567-8.704 13.568-5.984 17-15 1.701-.368 1.887.78 2 2 2.492-2.841 5.755-4.912 5-11 3.045 2.927 1.955-3.922 5-4-.802-3.469 1.489-3.844 1-7 3.928-3.072 10.216-3.784 13-8 3.414 2.027 2.265-.341 5-2 1.888-1.145 5.32.723 7-4 2.671-.092 5.755-.533 7-1 3.496-1.311 9.188.095 15-2 1.183-.426 3.896-2.993 4-3 .839-.054 3.618 1.677 5 2 2.007.469 4.386.854 6 1 4.69.422 10.513-1.684 16-1 1.007.125 5.49 2.574 8 3 6.525 1.107 13.165 1.099 20-1 4.613-5.054 9.597-9.737 15-14 3.471 1.799 5.549-1.085 8-3 4.896 1.406 11.041-2.373 14-6 1.701-.368 1.887.78 2 2 2.947.318 3.042-3.731 6-4 1.22-.111 3.334 1.886 3 2 2.859-.976 3.963-2.928 7-5 2.689-.689 1.933 2.067 3 3 5.57-4.352 9.585 2.032 15-2v3c6.54-4.25 14.385-1.003 22-4 2.217-.55 1.424 1.91 3 2 7.711-1.852 10.472 1.721 17-1 1.8-1.282 1.757 1.974 2 2 1.528.166 3.803-1.913 6-2 1.272-.05 1.611 1.921 3 2-1.203-.068 10.063.444 11 0 .243-.115.883-1.979 1-2 .967-.177 1.935 2.211 4 2 .755-.077 1.016-2.054 3-2 5.836.159 9.466 1.313 14 3 .852.317 2.182-.388 3 0 .341.162.758 1.927 1 2 1.516.459 2.915-1.015 3-1 1.089.192.728 1.759 2 2 1.92.364 4.098-.437 6 0 1.459.334 2.492 1.738 4 2 4.759.827 9.902.035 15 1 .529.804 1.043 1.624 1 3 7.73-.053 12.25 3.415 20 2-.246 3.575 4.441 2.621 6 4 .482.427-.361 2.442 0 3-.005-.008 1.897.895 2 1 .238.244.759 1.886 1 2 2.124 1.006 3.561.399 4 4 3.059-.725 2.941 1.725 6 1-2.124 4.209 6.249 5.447 7 10h5c2.033 6.977 9.714 13.605 17 12 4.309 12.358 16.641 16.693 20 30 5.118 5.882 13.569 8.431 19 14 .65 7.672 6.239 11.837 11 18 5.391 6.978 7.394 13.059 16 16 .896 2.104.031 5.969 4 5 .282 1.615-.945 1.722-1 3 1.402 1.598 3.445 2.555 6 3-.292 4.959 2.041 7.292 7 7-1.842 1.753-.12 3.474 3 3-2.479 3.389 3.011 3.471 4 5 1.254 1.937-.031 2.239 2 4 1.043.904 2.794 4.335 6 4 .574 4.092 4.604 4.729 5 9 6.268 1.732 8.602 7.399 17 7v4c4.28.062 5.336 4.773 8 7 3.84 3.21 9.635 4.956 12 10 5.433-1.1 5.185 3.482 11 2 1.882 4.785 5.406 7.927 9 11 1.173 2.965-.05 2.519 2 5 .972 1.176 3.606 6.57 7 6 .429 1.904 2.154 2.512 2 5 3.438.438 5.605-.395 8-1 2.086 4.197 9.608 3.85 7 10h5c-1.222 3.42 6.635 5.555 11 6-.527 3.502 2.18 3.696 3 8 3.449-1.679 4.429-.027 9-1-1.069 5.402 2.991 5.676 6 7-3.442 5.197 2.92 12.216-3 18 .604 2.396 1.438 4.563 1 8-1.615.282-1.722-.945-3-1-2.355 4.979-8.36 6.307-11 11-.933-.611-3.688-2.327-3 1-4.229-2.307-7.659.573-11 2-1.794.127-2.109-1.224-4-1-3.61.057-4.841 2.493-8 3-.904-2.096-5.645-.355-6-3-1.045 2.622-5.285 2.048-6 5-3.938-2.625-7.355-2.918-12-2-1.491.295-3.339 1.979-5 2-4.401.057-8.7-2.804-14-2-1.076-2.591-3.615-3.718-4-7-4.986 1.496-13.139-.274-14-6-8.719 15.501-5.605 42.819-7 64-.307 4.663.92 9.434-1 13-1.26 2.34-3.46 4.568-5 7-1.568 2.477-2.58 5.774-5 7-.365 9.302-3.146 16.188-9 20-19.731-3.163-38.102 1.929-52-6-1.316-19.316 5.785-30.215 21-33 2.529-8.097.338-14.796 1-22 .524-5.706 5.297-10.228 4-17-.351-3.315-5.764-1.569-9-2-5.722-7.278-16.294-9.706-21-18-9.98-.687-18.63-2.703-23-9-7.969-.031-12.765-3.235-16-8-9.493.16-12.983-5.684-21-7 .045-3.045-2.111-3.889-3-6-3.078-.7-1.922-.7-5 0-3.372-9.961-11.729-14.938-16-24-3.254 3.896-8.885 2.415-13 4-6.614 2.548-11.043 7.479-16 11-6.505.162-11.928 1.405-15 5-9.002.332-20.517-1.85-23 5-1.133 5.155 2.093 7.124 2 11-.139 5.808-5.201 10.351-5 16 .092 2.57.909 1.608 2 4 .682 1.494.361 3.763 1 5 2.266 4.39 5.457 8.745 9 14 2.721 4.035 6.455 5.17 5 14-5.141 5.526-8.185 13.148-12 20-4.885 4.353-10.919 7.601-17 12-11.346 8.209-21.068 19.094-37 20-4.213.24-9.228-1.551-15-2-10.067-.783-22.024 1-29-4-5.866 2.14-11.774.296-16-2-.97 1.696-2.764 2.569-6 2 .65 1.017 2.299 1.034 2 3-5.918 2.146-3.362 7.098-9 10-.813 3.458 1.867 4.222 0 6-3.21-.832-2.073-.852-4 1-.514 3.229-.628 8.058 2 10-.112 2.555-3.349 1.984-6 2-1.493 1.611.862 5.014 0 9-6.949-.948-6.649 5.351-11 7-10.348-.015-20.21.456-26 5-6.252.547-11.768-.745-17 0-2.87.409-5.104 2.057-8 2-3.177-.063-5.016-2.513-8-3-4.31-.704-9.574 3.236-13-1 .163-1.163-.221-1.779-1-2 1.867-3.918 1.633-8.766 3-12 1.117-2.644 3.686-5.457 6-7 2.274-1.516 3.777-.34 7-2 4.249-2.188 8.313-5.174 12-8 .471-7.246-1.97-11.253 2-15-.354-1.567-1.761.875-2-1-.044-3.045 2.111-3.889 3-6 .368-1.701-.78-1.887-2-2-1.13-3.485 2.942-1.898 3-4 .029-1.064-2.693-.957-2-3 .471-1.388 2.841-.747 3-3-.804.529-1.624 1.043-3 1-1.146-3.146 1.57-2.43 2-4-.437-1.484-1.28.395-3 0 2.712-3.479-.986-7.152 4-8-.283-1.173-4.405-4.155 0-4-.013-3.078-4.339-7.579 0-9-.691-2.497-2.667 1.855-5 1-.748-5.081.998-7.669 4-9-4.335-.142.041-4.54 0-5-.159-1.808-1.931-2.303-2-4-.231-5.702.258-11.954 3-16-2.813.188-4.26 1.739-4 5-4.869-.868-6.298 1.701-7 5-5.124-.457-4.142 5.191-9 5 1.624 5.29-4.203 3.131-3 8-4.448-.781-6.391.942-6 5-2.09.424-2.648-.686-4-1-1.92 1.413-1.81 4.857-3 7-1.985-3.265-2.288 3.538-4 0-2.626.707-1.974 4.693-4 6-5.842-3.338-4.745 5.925-9 1-1.823 6.511-10.102 6.565-11 14-1.479-.521-2.521-1.479-4-2-1.558 4.396-6.834.285-7 7-3.206-.872-3.127 1.539-4 3-1.615.282-1.722-.945-3-1-.736 2.931-4.414 2.919-5 6-2.076-2.165-3.409-.055-4 2-2.85-2.971-7.19-.489-9 3-1.301-4.176-3.727-.355-8 0-1.007.084-3.456-.864-3-1-5.631 1.682-8.137 7.891-13 6 1.581 5.581-5.952 2.048-4 8-5.987 1.026-9.705 10.531-11 18-5.224 2.109-4.369 10.298-10 12v11c-5.741 10.711-12.575 25.264-28 23-2.746-6.921-4.46-14.873-9-20 2.332-13.476 1.089-24.336 2-39 3.049-3.618 5.824-7.51 6-14 6.694-6.634 5.333-17.086 8-26 .532-1.777 2.44-2.531 3-4 1.182-3.103.842-5.719 2-8 2.545-5.017 8.358-10.378 12-16-4.6-12.902 9.673-14.772 11-25l1.5.5.5-1.5c3.165.111.505-7.985 1-10 .876-3.567 7.028-7.332 7-13-1.32-4.091-4.473-7.936-7-12-2.662-4.282-3.154-9.967-10-10-.521 1.479-1.479 2.521-2 4l-1.5-.5-.5 1.5c-1.71-.044-2.59.743-3 2l-1.5.5-1.5-.5c-.804.529-1.624 1.043-3 1v-2.5l-2 1.5c-2.86-2.953-1.829 2.41-2 5l-2-.5-2-.5v-6c-4.125-.125-6.262 1.738-11 1-4.339-4.327-9.309-8.024-16-10-2.168-.169-.453 3.547-1 5l-2.5-.5-2.5-.5c-.5-3.146 2.18-3.909 0-6h-1l-1-.5-1 .5c.163-1.163-.221-1.779-1-2l.5-1.5-1.5.5h-4l-.5-1.5-1.5.5c-.21-1.711 1.705-2.59 0-3v-1h-1c1.151-1.182 1.132-3.535 1-6v-1h-1c.19-.81 1.003-.997 1-2l3.5.5L42 238zm304 68c1.759.241 2.279 1.721 2 4 1.772.228 5.008-1.008 4 2-5.58-1.246-5.077 3.59-9 4 .889.294 4.378 2.706 2 3h-5c.337 3.329 4.083 3.25 4 7-4.263-1.694-3.54 2.494-5 3-1.01.351-2.396-2.154-3 0 5.391 1.223.229 3.797 1 6 .864 2.469 3.645-1.062 3 3-1.496.171-3.69-.357-4 1 1.257.41 2.043 1.29 2 3-4.53-1.53.53 6.53-4 5 .938 4.003 2.704 5.943 0 9 5.479.188 9.482 1.852 14 3 10.733-5.268 22.593-9.407 31-17 1.212-8.746-1.68-10.354-4-15-1.406-2.816-1.749-5.996-3-8-2.318-3.713-6.104-6.348-8-10-1.5-2.891-1.286-6.23-4-9-1.129 5.537-11.133 2.2-14 6z" fill-rule="evenodd"/><g fill="none" stroke="#000" stroke-linecap="round"><path d="M97.5 270.5l.854.352c6.754 12.616 6.522 29.194 7.146 43.648" stroke-width="1.812"/><path d="M96.5 320.5c3.533-16.34 1.163-33.608 1-50" stroke-width="1.844"/><path d="M91 320c5.667-16.184-.955-35.365 2-51.5" stroke-width="1.977"/><path d="M87 277c3.864 11.635-.658 24.217-4 35.5" stroke-width="1.686"/><path d="M78 309c4.752-10.173 4.946-21.894 9-32" stroke-width="1.803"/><path d="M87 277v-2.5" stroke-width="4.062"/><path d="M54.022 266.195c3.083 8.322-.59 16.319-.022 24.805" stroke-width="4.237"/><path d="M54 291c3.787 7.587 6.712 15.494 11 23" stroke-width="1.7"/><path d="M54 291c-4.524 14.043.868 28.905 8.5 40.5" stroke-width="1.717"/><path d="M45 318c-1.333-17.011 1.299-36.622 9.022-51.805" stroke-width="1.862"/><path d="M54.022 266.195c.266-.786.368-1.768.478-2.695" stroke-width="5.148"/><path d="M40 334.5c-4.49-26.483.395-53.317 10-78" stroke-width="1.76"/><path d="M32 311c-2.378-20.787 5.613-40.522 16.5-57.5" stroke-width="1.814"/><path d="M21.5 324.5c-7.279-26.016 4.934-52.219 21-72" stroke-width="1.712"/><path d="M7 285c10.182-13.079 20.908-25.569 34-36" stroke-width="1.479"/><path d="M4 267c8.512-12.781 21.858-21.859 37-25" stroke-width="1.588"/><path d="M5.5 250.5c10.563-7.751 25.709-14.048 39-10" stroke-width="1.851"/><path d="M102.5 266.5c7.079 13.019 8.793 28.546 12 43" stroke-width="1.786"/></g></svg>