<svg xmlns="http://www.w3.org/2000/svg" xmlns:dc="http://dublincore.org/documents/dcmi-terms/" height="211.681" viewBox="0 0 318.721 211.681" width="318.721"><metadata><dc:description>Silhouette of Felis catus form. domestica, processed by PhyloPic Tools (https://github.com/eweitz/phylopic-tools)</dc:description><dc:source>http://phylopic.org/image/e9f41f59-d708-47aa-a705-ba9b8826ebc6</dc:source><dc:creator>Steven Traver</dc:creator><dc:license>http://creativecommons.org/publicdomain/zero/1.0/</dc:license></metadata><g fill-rule="evenodd"><path d="M31.68 0c1.275 2.956-.471 6.184 0 9.84-4.041-.999-4.903-5.176-8.88-6.24-1.946 3.813-1.412 9.097.96 12-2.115 1.661-5.254 2.957-7.2 5.28-2.846 3.397-4.994 8.959-7.68 13.92-2.716 5.017-6.15 9.009-7.92 13.44C.552 49.261.496 50.8 0 51.36V0h31.68z" fill="#fff"/><path d="M31.68 0h.96c2.407.464 3.357 3.135 5.52 4.32 1.417.777 3.324 1.02 4.8 1.92 1.928 1.176 3.492 3.005 4.8 5.28 3.752 1.561 7.522 2.83 10.56 5.04 2.275 1.655 3.871 3.881 5.76 5.52 5.958 5.17 12.671 9.75 20.88 12.96a109.786 109.786 0 0 0 8.4 2.88c5.579 1.679 10.933 4.341 18.48 4.08 3.306-.114 6.459-1.354 9.6-1.44 2.453-.067 5.396.787 7.92 1.44 2.437.631 4.825 1.386 7.2 1.92 10.449 2.348 22.428.374 35.041.96 5.752.268 11.253-1.027 16.8-.96 5.754.07 11.451.874 16.8 1.68 5.571.84 11.068 1.518 16.08 2.4 10.307 1.815 18.375 6.661 25.92 10.8 8.55 4.69 14.957 9.744 20.641 16.32 5.617 6.5 9.696 14.363 13.2 23.52 3.417 8.931 6.65 17.713 9.119 27.6 2.267 9.073 4.561 21.638 11.521 25.2 2.354 1.205 5.358 1.838 7.92 1.439 2.487-.386 6.244-4.543 9.12-.479v2.64c-2.566 5.776-14.263 8.104-20.88 5.04-5.367-2.485-9.675-12.371-12.24-18.24-1.603-3.666-3.283-7.181-4.8-10.56-1.613-3.593-3.464-6.844-4.8-10.32-1.513-3.934-2.389-7.874-3.841-11.52-1.422-3.571-3.104-7.082-4.8-10.32-3.537-6.759-7.451-12.876-13.439-17.04 1.402 4.274 3.627 6.663 4.079 11.76.733 8.249-.905 16.597-1.92 23.76-1.067 7.545-1.643 16.986 1.44 22.8 2.292 4.321 6.926 7.94 11.76 10.08 3.696 1.636 6.601 2.103 7.2 7.439.233 2.082-.009 4.434-.24 6.721-.59 5.836-.489 12.422-.96 19.2-1.071 15.458-4.99 25.404-18.479 27.84h-5.761c-1.412-1.228-4.198-1.081-5.279-2.641-.044-2.523.78-4.18.96-6.479.982-.772 2.093-.923 3.12-1.68.912-.674 1.36-1.617 2.399-2.16 2.322-1.214 5.287-1.416 6.96-3.601.62-2.906 2.177-5.293 2.4-8.88.106-1.706-.349-3.642-.48-5.76-.391-6.299.448-12.074-1.68-16.08-1.684-3.17-6.232-4.674-10.08-6.48-10.849-5.094-21.737-13.114-30.479-19.199-1.642 7.384-1.212 13.326 1.439 18.72 1.308 2.66 3.399 5.468 2.4 8.64-.666 2.115-5.205 4.386-7.44 6.24-5.43 4.507-8.896 8.022-14.16 12.72-2.288 2.043-5.082 5.305-7.439 6-2.388.705-5.627.511-8.88.721-4.349.279-9.944 1.516-10.32-2.4-1.827-.678-1.966-4.404.24-4.8.286-2.782 3.513-3.787 6.239-4.32 1.694-.331 3.881.113 6-.479 1.373-.385 2.659-2.165 4.32-3.601 3.058-2.642 5.35-4.574 8.4-7.2 1.344-1.156 3.3-2.282 3.84-3.84.974-2.809-.202-6.729-1.44-9.12-.873-1.686-2.648-3.338-4.319-5.279-1.47-1.707-2.859-3.59-4.32-5.28-4.839-5.6-11.74-11.257-7.44-20.641-15.107-1.359-31.975 1.313-47.04 0-1.114 1.767-1.182 4.579-2.4 6.24 1.096 6.621.769 14.235.24 22.08-.494 7.328-.565 14.943-.96 22.08-.176 3.186-1.109 6.454-1.68 10.08-.558 3.543-.416 8.014-1.44 10.32-.791 1.78-3.533 2.741-5.04 4.08-1.147 1.019-1.687 2.721-2.88 3.84-3.035 2.846-8.957 5.841-13.44 2.16-3.028-.185-6.055-1.154-6.48-3.36-.172-.893.391-2.046.72-3.12.878-2.862 1.921-3.81 4.8-4.8 1.407-.484 3.145-.443 4.8-1.2 3.731-1.706 3.961-6.598 5.04-12 .218-1.092.707-1.896.72-2.64.027-1.494-.8-3.009-.96-4.561-.43-4.167.002-8.388-.48-12.479-.43-3.654-1.033-7.227-1.92-10.8-.776-3.126-2.229-6.439-3.12-9.601-.994-3.525-1.612-7.351-2.88-9.84-1.39-2.728-4.396-4.459-6.96-6.72.974 8.066-2.091 12.223-5.28 17.279-3.862 6.126-8.084 11.913-10.08 20.16-1.316 5.44-.595 13.46-6.48 13.92-3.487 6.511-8.083 11.954-16.32 14.16-3.83 1.026-8.675 1.961-13.2.48-1.057-.771.134-2.509-.24-3.12-1.814-2.083-.506-5.248 1.68-6 .757-1.318 1.046-2.511 2.16-3.12 1.621-.887 4.009-.135 6.48-.72 2.206-.522 5.458-4.316 7.44-6.96 2.943-3.926 5.48-7.79 6.48-12.24.702-3.126.324-6.496.72-9.84.728-6.138 2.352-11.37 3.84-17.28.737-2.928 1.869-6.271 1.92-8.64.037-1.705-.885-3.769-1.2-5.761-.59-3.729.183-8.528-.48-11.28-.397-1.648-3.485-3.817-5.04-5.76-4.863-6.077-8.173-13.192-13.44-18.48-3.719-3.734-7.235-6.608-11.76-9.6-2.024-1.339-4.366-2.671-6.48-4.08-2.205-1.471-4.491-3.57-6.48-4.08-2.664-.684-7.184-.606-10.08-.48-2.974.129-5.804 1.16-8.88 1.44-3.33.304-6.566.27-10.08.24C5.553 62.207 2.677 58.203 0 54v-2.64c.496-.56.552-2.099.96-3.12 1.77-4.431 5.204-8.423 7.92-13.44 2.687-4.961 4.834-10.523 7.68-13.92 1.946-2.323 5.085-3.619 7.2-5.28-2.372-2.903-2.906-8.188-.96-12 3.977 1.063 4.839 5.241 8.88 6.24-.471-3.656 1.275-6.884 0-9.84z"/><path d="M32.64 0h286.081v152.4c-2.876-4.063-6.633.094-9.12.479-2.562.398-5.565-.234-7.92-1.439-6.96-3.563-9.254-16.127-11.521-25.2-2.469-9.887-5.702-18.669-9.119-27.6-3.504-9.157-7.583-17.02-13.2-23.52-5.684-6.576-12.091-11.629-20.641-16.32-7.545-4.14-15.613-8.985-25.92-10.8-5.012-.882-10.509-1.56-16.08-2.4-5.349-.807-11.046-1.61-16.8-1.68-5.547-.067-11.048 1.228-16.8.96-12.613-.586-24.591 1.388-35.041-.96-2.375-.534-4.763-1.289-7.2-1.92-2.524-.653-5.467-1.507-7.92-1.44-3.141.086-6.294 1.326-9.6 1.44-7.547.261-12.901-2.401-18.48-4.08a109.786 109.786 0 0 1-8.4-2.88c-8.209-3.209-14.921-7.79-20.88-12.96-1.889-1.639-3.485-3.865-5.76-5.52-3.038-2.21-6.808-3.479-10.56-5.04-1.309-2.274-2.873-4.104-4.8-5.28-1.476-.9-3.382-1.144-4.8-1.92C35.997 3.135 35.047.464 32.64 0zM0 54c2.677 4.203 5.553 8.207 9.84 10.8 3.514.03 6.75.063 10.08-.24 3.076-.28 5.906-1.311 8.88-1.44 2.896-.126 7.416-.204 10.08.48 1.989.51 4.275 2.609 6.48 4.08 2.114 1.409 4.456 2.741 6.48 4.08 4.525 2.992 8.042 5.866 11.76 9.6 5.267 5.288 8.577 12.403 13.44 18.48 1.555 1.943 4.643 4.111 5.04 5.76.663 2.751-.11 7.551.48 11.28.315 1.992 1.237 4.056 1.2 5.761-.051 2.368-1.183 5.712-1.92 8.64-1.489 5.91-3.113 11.143-3.84 17.28-.396 3.344-.018 6.714-.72 9.84-1 4.45-3.537 8.314-6.48 12.24-1.982 2.644-5.234 6.438-7.44 6.96-2.471.585-4.859-.167-6.48.72-1.113.609-1.402 1.802-2.16 3.12-2.186.752-3.494 3.917-1.68 6 .375.611-.816 2.35.24 3.12 4.525 1.48 9.37.546 13.2-.48 8.238-2.206 12.833-7.649 16.32-14.16 5.885-.46 5.164-8.479 6.48-13.92 1.996-8.247 6.218-14.034 10.08-20.16 3.188-5.057 6.254-9.213 5.28-17.279 2.563 2.261 5.57 3.992 6.96 6.72 1.269 2.489 1.886 6.314 2.88 9.84.891 3.161 2.344 6.475 3.12 9.601.887 3.573 1.49 7.146 1.92 10.8.482 4.092.05 8.313.48 12.479.161 1.552.987 3.066.96 4.561-.014.744-.502 1.548-.72 2.64-1.079 5.402-1.309 10.294-5.04 12-1.655.757-3.393.716-4.8 1.2-2.879.99-3.922 1.938-4.8 4.8-.329 1.074-.892 2.228-.72 3.12.425 2.206 3.452 3.176 6.48 3.36 4.483 3.681 10.405.686 13.44-2.16 1.193-1.119 1.732-2.821 2.88-3.84 1.507-1.339 4.25-2.3 5.04-4.08 1.024-2.307.882-6.777 1.44-10.32.571-3.626 1.504-6.895 1.68-10.08.395-7.137.466-14.752.96-22.08.529-7.845.855-15.459-.24-22.08 1.219-1.661 1.287-4.474 2.4-6.24 15.065 1.313 31.932-1.359 47.04 0-4.3 9.384 2.602 15.041 7.44 20.641 1.461 1.69 2.851 3.573 4.32 5.28 1.671 1.941 3.446 3.594 4.319 5.279 1.238 2.391 2.414 6.312 1.44 9.12-.54 1.558-2.496 2.684-3.84 3.84-3.051 2.626-5.343 4.559-8.4 7.2-1.661 1.436-2.947 3.216-4.32 3.601-2.119.593-4.306.148-6 .479-2.727.533-5.953 1.538-6.239 4.32-2.206.396-2.067 4.122-.24 4.8.376 3.916 5.972 2.68 10.32 2.4 3.253-.21 6.492-.016 8.88-.721 2.357-.695 5.151-3.957 7.439-6 5.264-4.697 8.73-8.213 14.16-12.72 2.235-1.854 6.774-4.125 7.44-6.24.999-3.172-1.093-5.979-2.4-8.64-2.651-5.394-3.081-11.336-1.439-18.72 8.742 6.085 19.631 14.105 30.479 19.199 3.848 1.807 8.396 3.311 10.08 6.48 2.128 4.006 1.289 9.781 1.68 16.08.132 2.118.587 4.054.48 5.76-.224 3.587-1.78 5.974-2.4 8.88-1.673 2.185-4.638 2.387-6.96 3.601-1.039.543-1.487 1.486-2.399 2.16-1.027.757-2.138.907-3.12 1.68-.18 2.3-1.004 3.956-.96 6.479 1.081 1.56 3.867 1.413 5.279 2.641H-.001L0 54z" fill="#fff"/><path d="M318.721 155.04v56.641h-61.92c13.489-2.436 17.408-12.382 18.479-27.84.471-6.778.37-13.364.96-19.2.231-2.287.474-4.639.24-6.721-.6-5.337-3.504-5.804-7.2-7.439-4.834-2.14-9.468-5.759-11.76-10.08-3.083-5.813-2.508-15.255-1.44-22.8 1.015-7.163 2.653-15.511 1.92-23.76-.452-5.097-2.677-7.486-4.079-11.76 5.988 4.164 9.902 10.281 13.439 17.04 1.695 3.238 3.378 6.749 4.8 10.32 1.452 3.646 2.328 7.586 3.841 11.52 1.336 3.477 3.187 6.728 4.8 10.32 1.517 3.379 3.197 6.894 4.8 10.56 2.565 5.869 6.873 15.755 12.24 18.24 6.617 3.064 18.313.735 20.88-5.041z" fill="#fff"/></g></svg>