<svg xmlns="http://www.w3.org/2000/svg" width="1024" height="709" viewBox="0 0 1024 709"><path d="M1.239 11v-1c.1-3.5.399-6.9 1-10-2.3 1.7-3 5-2.101 10 0 .4.101.6.101 1h1z" fill="#ccc"/><path d="M.239 172v537h710v-1c-3.9-.4-7.101-1.6-9.301-3.8-.1-.101-.3-.2-.699-.2h-10c-1.601 1-3.9 1.4-7 1h-15c-9.7-1.3-17.7-2.6-24-3.9-.4-.1-.601-.1-1-.1-2.101 1.2-5.101 1.3-8.9.5 0 0-.1-.2-.1-.5-4.601-2.1-10.601-2.8-18-2.1-.4.1-.601.1-1 .1-6.4-4.7-12.801-9.2-19.101-13.8-.3-.101-.5-.2-.899-.2-3.4 0-6.601-.1-9.9-.5-.1 0-.1-.1-.1-.5-10.601-2.4-19.9-6.1-27.8-11.4-.101-.1-.2-.199-.2-.6h-9c-17.601-8.6-37.601-13.4-60-14h-11c-4.3-1-9.3-1.4-15-1h-17c-17.5-1.3-34.8-.9-52 1h-1c-2.5-1.1-4.601-2.8-6.3-4.8-.2-.101-.301-.2-.7-.2h-9c-4.5.9-8.601.6-12-.8-.4-.2-.601-.2-1-.2h-22c-2.601-.7-5.601-1-9-1h-14c-5.601 1-11 2.3-16 3.9-.4.1-.601.1-1 .1-2.101 1.1-5.101 1.4-8.9.5-.1 0-.1-.1-.1-.5-16.7-.6-27.5-7.3-32.5-19.8 0-.2-.101-.2-.5-.2-7.301-1.4-12.7-4.7-16.4-9.8-.1-.101-.2-.2-.6-.2-2.4-6.3-3.9-13.3-4.5-21h.5c3.1-6.2 8.5-10.2 16-11.9.399-.1.6-.1 1-.1 2.3-1.1 2.5-2.7.7-4.8-.2-.101-.301-.2-.7-.2-6.4-7.3-14.5-12.3-24.5-15.1-1-.2-1.5.8-1.5 3.1 0 2.7-.101 5.3-.5 7.9 0 .1-.101.1-.5.1-2 5.7-5 10.4-8.8 14.2-.101.2-.2.5-.2.8 0 4-.101 8-.5 12h-.5c-.801 3.2-1.7 6.2-2.9 9-.1.3-.1.7-.1 1-13.601 10.3-29.5 18.2-47.4 23.7-8.6 2.5-16 2.899-22.1 1-2.4-.8-4.9-1-7.5-.7-5-3-10.601-5.5-16.9-7.5-.1 0-.1-.2-.1-.5-8 0-15-1-21-2.8-.4-.2-.601-.2-1-.2-2.601 0-5.301-.2-8-.5v-.5c-1.9-.5-3.2-1.5-4.101-3-5.7-9.5-6-19.5-.899-30 .399 0 .6-.1.899-.2 7.8-4.1 15.8-8.1 24.101-11.8.399 0 .6 0 1-.1 3.699-.5 8-.5 13 .1 0-.3.1-.6.2-.7 4.199-3.2 6.399-8.3 6.8-15.3v-1-18-1-4c-1.7-5.7-2.7-11.9-3-19v-1c-1.101-2.2-1.5-5.2-1-9v-1-1-5c-2.2-3.8-3.9-8.2-4.9-13-.1-.3-.1-.7-.1-1-.601-6.3-1.601-12.6-3-18.8 0-.101-.3-.4-.8-.601-.2 0-.2-.3-.2-.6-2.4-5.7-4-11.9-5-19v-1c-10.5-4.3-16.801-12.6-18.9-25-.1-.4-.1-.6-.1-1-2.301-1.4-4-3.4-5.4-5.8-.1-.101-.2-.2-.6-.2-.601-1.6-1-3.6-1-6v-1c-5.2-4.8-9.601-10.4-13.4-16.8-.1-.101-.2-.2-.6-.2.399-6.1-1.601-9.9-5.9-11.4-.1-.1-.1-.199-.1-.6-1.101-2.1-1.5-5.1-1-9v-1-1-4c-4-10.1-7.301-20.7-9.9-32.1-.1-.301-.1-.5-.1-.9-1.101-2.5-1.5-5.9-1-10v-1-1-3c-3.601-11.8-6-24.8-7.101-39-.399-5.2-1.399-9.9-2.899-14-1.101-2.1-1.5-5.1-1-9v-1-1c.399-4.6.6-9.4 1-14-1.2-12.8-3.4-24.8-6.5-35.9 0 0-.101-.1-.5-.1-9-7.6-15.801-17.4-20.2-29.3-.601-1.5-.8-3.1-.8-4.7v-1-8-1-1c-14.4-25-15.4-50.6-3.2-77.1.1-.3.2-.5.2-.9-2.601-8.1-5.2-16.1-7.9-24-.1-.4-.1-.6-.1-1-1.2-2.5-1.5-5.9-1.101-10 .101-.4.101-.6.101-1v-1-1c-1.5-.2-2.2-1.2-2.101-3 .101-.4.101-.6.101-1-1.2-1.5-1.5-3.9-1.101-7 .101-.4.101-.6.101-1s0-.6.199-.9c1.2-2 1.801-4.7 1.801-8.1-1.7-5.6-3-11.6-4-18v-1h-1V172z" fill="#fefefe"/><path d="M1.239 12c1 6.4 2.3 12.4 4 18 0 3.4-.601 6.1-1.801 8.1-.199.3-.199.5-.199.9h1v8c0 .4 0 .6-.101 1-.1 1.8.601 2.8 2.101 3v2h1v11c0 .4 0 .6.1 1 2.7 7.9 5.3 15.9 7.9 24 0 .4-.101.6-.2.9-12.2 26.5-11.2 52.1 3.2 77.1v2h1c-.101 3-.2 6-.5 9h-.5c0 1.6.199 3.2.8 4.7 4.399 11.9 11.2 21.7 20.2 29.3.399 0 .5.1.5.1 3.1 11.1 5.3 23.1 6.5 35.9-.4 4.6-.601 9.4-1 14v1h1v10c1.5 4.1 2.5 8.8 2.899 14 1.101 14.2 3.5 27.2 7.101 39v4h1v11c0 .4 0 .6.1.9 2.6 11.399 5.9 22 9.9 32.1v5h1v10c0 .4 0 .5.1.6 4.3 1.5 6.3 5.301 5.9 11.4.399 0 .5.1.6.2 3.8 6.399 8.2 12 13.4 16.8v1c0 2.4.399 4.4 1 6 .399 0 .5.1.6.2 1.4 2.399 3.1 4.399 5.4 5.8 0 .4 0 .6.1 1 2.1 12.4 8.4 20.7 18.9 25v1c1 7.1 2.6 13.3 5 19h4v20c0 .3 0 .7.1 1 1 4.8 2.7 9.2 4.9 13v6h1v11c.3 7.1 1.3 13.3 3 19v5h1c0 6.3-.101 12.7-.5 18.9 0 .1-.101.1-.5.1-.4 7-2.601 12.1-6.8 15.3-.101.101-.2.4-.2.7-5-.6-9.301-.6-13-.1-.4.1-.601.1-1 .1-8.301 3.7-16.301 7.7-24.101 11.8-.3.101-.5.2-.899.2-5.101 10.5-4.801 20.5.899 30 .9 1.5 2.2 2.5 4.101 3h8v1c.399 0 .6 0 1 .2 6 1.8 13 2.8 21 2.8 0 .3 0 .5.1.5 6.3 2 11.9 4.5 16.9 7.5 2.6-.3 5.1-.1 7.5.7 6.1 1.899 13.5 1.5 22.1-1 17.9-5.5 33.8-13.4 47.4-23.7 0-.3 0-.7.1-1 1.2-2.8 2.101-5.8 2.9-9v-1c-.5-4.5-.101-8.2 1-11 0-.3.1-.6.2-.8 3.8-3.8 6.8-8.5 8.8-14.2v-1c-.5-3.2-.101-5.5 1-7 0-2.3.5-3.3 1.5-3.1 10 2.8 18.1 7.8 24.5 15.1.399 0 .5.1.7.2 1.8 2.1 1.6 3.7-.7 4.8-.4 0-.601 0-1 .1-7.5 1.7-12.9 5.7-16 11.9h-.5c.6 7.7 2.1 14.7 4.5 21 .399 0 .5.1.6.2 3.7 5.1 9.101 8.399 16.4 9.8.399 0 .5 0 .5.2 5 12.5 15.8 19.2 32.5 19.8h9c.399 0 .6 0 1-.1 5-1.601 10.399-2.9 16-3.9v-.5c4.399-.4 8.6-.5 13-.5v1h1c3.399 0 6.399.3 9 1v-.5c7.399-.4 14.6-.5 22-.5v1c.399 0 .6 0 1 .2 3.399 1.399 7.5 1.7 12 .8v-.5c3-.4 6-.5 9-.5v1c.399 0 .5.1.7.2 1.699 2 3.8 3.7 6.3 4.8h1c17.2-1.9 34.5-2.3 52-1v-.5c5.399-.4 10.6-.5 16-.5v1h1c5.7-.4 10.7 0 15 1v-.5c3.399-.4 6.6-.5 10-.5v1h1c22.399.6 42.399 5.4 60 14h9c0 .4.1.5.199.6 7.9 5.301 17.2 9 27.801 11.4h10v1c.399 0 .6.1.899.2 6.3 4.6 12.7 9.1 19.101 13.8.399 0 .6 0 1-.1 7.399-.7 13.399 0 17.999 2.1h9c.4 0 .601 0 1 .1 6.301 1.301 14.301 2.601 24 3.9 0-.3 0-.5.101-.5 4.6-.3 9.3-.5 13.899-.5v1h1c3.101.4 5.4 0 7-1 0-.3 0-.5.101-.5 3.3-.3 6.5-.5 9.899-.5v1c.4 0 .601.1.7.2 2.2 2.2 5.4 3.399 9.3 3.8v1h3c0-.3 0-.5.101-.5 3.899-.3 7.899-.5 11.899-.5h10c0-.4.101-.5.101-.5 4.5-.9 9-1.4 13.899-1.5 0-.4 0-.5.101-.5 2.6-.4 5.3-.5 7.899-.5.4 0 .601 0 .9-.2 4.7-2.899 10.4-4.899 17.1-5.8 0-.4 0-.5.101-.5 2.899-.4 5.899-.5 8.899-.5v1c.301 0 .7 0 1 .1 3.7.4 7.7.4 12-.1 0-.4 0-.5.101-.5 2.6-.4 5.2-.5 7.899-.5.301 0 .7 0 1-.1 6.7-.601 12.301-2.301 17-4.9.301 0 .7.1 1 .1 20.2 4 36.601 2 49-6.1.301 0 .7.1.9.1 4.5 1.2 9.2 2.101 14.1 2.9h9c1-1.6 2-3.2 3-4.6.7-.9.9-1.301 1-1.4 5.101-4.9 14.4-7.3 28-7v-.5c5-.6 8-3.1 9-7.5h1c9-.4 16.301-2.4 22-6v-.5c3-.4 6-.5 9-.5.4 0 .601 0 .9-.2 8.1-5.1 15.8-10.7 23.1-16.8h1c3.4.4 6.101 0 8-1 0-.3.101-.5.2-.7 4.5-3.2 8.4-7 11.8-11.3 0-.3.101-.7.2-1 3-10.3 5.5-22.7 7.8-37-6.3-5.6-7.3-12-3.199-19.1.199-.2.199-.601.199-.9v-1-8-1-1c-3-1.7-3.899-5.2-2.8-10.4 0-.3-.2-1-.899-2.3-3.9-8.2-8.601-15.7-14.101-22.5-6.5-8-13.8-11-22.2-8.8-3 0-6-.2-9-.5v-.5c-1.5-.6-2.5-1.5-3.399-2.8-.101-.101-.2-.2-.601-.2h-12c-2.3 4.7-7.699 6.3-16 5.1-.3-.1-.699-.1-1-.1-4 5.3-10 8.7-18 9.9-.3.1-.699.1-1 .1-17.8 20.2-39.3 36.8-64.6 49.9-8.3 4.3-18.5 7-30.4 8.1h-8c-7.399-.5-12.8 1.2-16.3 4.7-.1.2-.399.3-.7.3-7.5-1.7-14.199-2.6-20-3h-1c-3.199 1.2-7.199 1.5-12 1h-1c-12.399 5.2-26.199 6.3-41.3 3.7-4.5-.8-8.699-.8-12.8.1-.6.101-1.3.2-1.899.2-4.101 1.2-9.101 1.5-15 1h-1c-4.101.7-7.601 1.7-10.801 3.4-.1 0-.199.3-.199.6a47.2 47.2 0 0 0-19-1.1c-.4.1-.601.1-1 .1-1.9 1.2-4.601 1.5-8 1h-3c-3.9 1.2-8.5 1.5-14 1h-11c-4.101-2.6-9.101-4.2-15-5h-1c-.8-1.6-2.101-2.7-3.8-3.4-.101-.1-.2-.3-.2-.6-5.7-.7-10.601-2.1-14.8-4.4-.101-.1-.2-.3-.2-.6-1.301-3.7-.801-7.3 1.399-10.8 0-.101.2-.2.601-.2-.601-4.1-.9-8.4-1-13v-1c-6.4-14.3-11.301-30.6-14.601-48.7-3.199-16.6-7-33.1-11.399-49.3-1.101-1.8-1.5-4.5-1.101-8 .101-.3.101-.7.101-1v-1c-8.3-20.1-18.2-38.4-29.8-55.1-.101-.301-.2-.5-.2-.9-1.3-7.5-4.5-14.6-9.8-21.4-5-6.199-9.301-13.199-13.2-20.6-2.601-1.4-4.9-3.1-6.8-5.2-.101-.2-.2-.399-.2-.8-1.101-7.2-3.8-12.9-8-16.9-1.8-1.699-2.8-4-3-7.1-1.101-1.5-1.5-3.9-1-7v-1c-6.8-8.2-15.101-14.8-25.101-19.8-.3-.1-.5-.2-.899-.2-11-14.8-25.5-25.9-43.8-33.4-.2-.1-.2-.2-.2-.6-9.101-2.9-18.5-5.5-28-7.9-.4 0-.601-.1-1-.1-.8-1.6-2-2.6-3.8-3.4-.2 0-.2-.2-.2-.6-7-.9-12.601-3.4-16.8-7.3-.101-.1-.2-.3-.2-.7-11.101 1.1-19.2-.8-24.3-5.8-.101-.1-.301-.2-.7-.2-3.8-.1-7.101.1-10 .5v-.5c-2.601-1.4-5.4-2.6-8.101-3.8-.3-.1-.5-.2-.899-.2-1.4-2.3-3-4.4-4.8-6.3-.101-.1-.2-.3-.2-.7-13.3-8.8-24.8-19.1-34.8-31.2-.101-.2-.2-.4-.2-.8-7.601-.4-13.601-2.3-18-5.6-5.2-4.1-10.601-7.9-16.101-11.7-8.899-5.8-18.899-10.7-29.899-14.7-8.5 1.9-14.101.9-16.9-2.9-.7-1.1-1.1-2.5-1.1-4.1v-4-1-15c0-.4 0-.6-.101-1a87.828 87.828 0 0 1-2.899-12c-.5-1.4-.601-2.3-.5-2.6 5.7-13.6 8.5-29.8 8.5-48.4v-1c-.5-3.1-.101-5.5 1-7v-1-10c-2.601-3.7-4.9-7.8-6.8-12.1-.2-.3-.2-.5-.2-.9-4.5-2.5-9-5-13.101-7.8-.3-.1-.5-.2-.899-.2-17.4 2-31.8 6.4-43.3 13.3l-1-1c-.7-.7-1.601-1.1-2.7-1.3-6.601 0-13.4-.1-20-.5V42c-12-2.4-24.601-4-38-5h-1c-2-1.6-4.7-2.8-7.9-3.5-.1 0-.1-.1-.1-.5-6.301-.3-11.301.7-15.101 2.8-.3.2-.5.2-.899.2-17-5.4-30.5-14.1-40.801-26.2-.1-.2-.199-.4-.199-.8-4.101-1.6-7.7-3.7-10.801-6.3-.1-.2-.199-.3-.199-.7-1.9-.8-4.2-1.3-7-1.5V0h-1c-.601 3.1-.9 6.5-1 10v2z"/><path d="M21.239 9c0 .4.1.6.199.8C31.739 21.9 45.239 30.6 62.239 36c.399 0 .6 0 .899-.2 3.8-2.1 8.8-3.1 15.101-2.8 0 .4 0 .5.1.5 3.2.7 5.9 1.9 7.9 3.5h1c13.399 1 26 2.6 38 5h20v1c1.1.2 2 .6 2.7 1.3l1 1c11.5-6.9 25.899-11.3 43.3-13.3.399 0 .6.1.899.2 4.101 2.8 8.601 5.3 13.101 7.8 0 .4 0 .6.2.9 1.899 4.3 4.199 8.4 6.8 12.1v11c0 2.6-.101 5.3-.5 8h-.5c0 18.6-2.8 34.8-8.5 48.4-.101.3 0 1.2.5 2.6.7 4.2 1.7 8.2 2.899 12 .101.4.101.6.101 1h1c0 5.4-.101 10.6-.5 16h-.5v4c0 1.6.399 3 1.1 4.1 2.8 3.8 8.4 4.8 16.9 2.9 11 4 21 8.9 29.899 14.7 5.5 3.8 10.9 7.6 16.101 11.7 4.399 3.3 10.399 5.2 18 5.6 0 .4.1.6.2.8 10 12.1 21.5 22.4 34.8 31.2 0 .4.1.6.2.7 1.8 1.9 3.399 4 4.8 6.3.399 0 .6.1.899.2 2.7 1.2 5.5 2.4 8.101 3.8v.5c2.899-.4 6.2-.6 10-.5.399 0 .6.1.7.2 5.1 5 13.199 6.9 24.3 5.8 0 .4.1.6.2.7 4.199 3.9 9.8 6.4 16.8 7.3 0 .4 0 .6.2.6 1.8.8 3 1.8 3.8 3.4.399 0 .6.1 1 .1 9.5 2.4 18.899 5 28 7.9 0 .4 0 .5.2.6 18.3 7.5 32.8 18.6 43.8 33.4.399 0 .6.1.899.2 10 5 18.301 11.6 25.101 19.8h1v8c.2 3.1 1.2 5.4 3 7.1 4.2 4 6.899 9.7 8 16.9 0 .4.1.6.2.8 1.899 2.101 4.199 3.8 6.8 5.2 3.899 7.4 8.2 14.4 13.2 20.6 5.3 6.801 8.5 13.9 9.8 21.4 0 .4.1.6.2.9 11.6 16.699 21.5 35 29.8 55.1v1h1v9c4.399 16.2 8.2 32.7 11.399 49.3 3.301 18.101 8.2 34.4 14.601 48.7v1c.1 4.6.399 8.9 1 13-.4 0-.601.1-.601.2-2.199 3.5-2.699 7.1-1.399 10.8 0 .3.1.5.2.6 4.199 2.301 9.1 3.7 14.8 4.4 0 .3.1.5.2.6 1.699.7 3 1.801 3.8 3.4h1c5.899.8 10.899 2.4 15 5h10c0-.3 0-.5.1-.5 4.9-.3 9.9-.5 14.9-.5h2c0-.3 0-.5.1-.5 2.9-.3 5.9-.5 8.9-.5.399 0 .6 0 1-.1 6.199-.9 12.6-.601 19 1.1 0-.3.1-.6.199-.6 3.2-1.7 6.7-2.7 10.801-3.4 0-.3 0-.5.1-.5 5.3-.3 10.5-.5 15.9-.5.6 0 1.3-.1 1.899-.2 4.101-.899 8.3-.899 12.8-.1 15.101 2.6 28.9 1.5 41.301-3.7 0-.3 0-.5.1-.5 4.2-.3 8.6-.5 12.9-.5h1c5.8.4 12.5 1.3 20 3 .3 0 .6-.1.699-.3 3.5-3.5 8.9-5.2 16.301-4.7 0-.3 0-.5.1-.5 2.6-.3 5.2-.5 7.9-.5v1c11.899-1.1 22.1-3.8 30.399-8.1 25.3-13.101 46.8-29.7 64.601-49.9.3 0 .699 0 1-.1 8-1.2 14-4.601 18-9.9.3 0 .699 0 1 .1 8.3 1.2 13.699-.399 16-5.1v-.5c4-.3 8-.5 12-.5v1c.399 0 .5.1.6.2.9 1.3 1.9 2.2 3.4 2.8h9v1c8.399-2.2 15.699.8 22.199 8.8 5.5 6.8 10.2 14.3 14.101 22.5.7 1.3.899 2 .899 2.3-1.1 5.2-.199 8.7 2.801 10.4v2h1c0 3-.101 6-.5 8.9 0 .1-.101.1-.5.1 0 .3 0 .7-.2.9-4.101 7.1-3.101 13.5 3.2 19.1h1v-57-179-179V0h-1021v.5c2.8.2 5.1.7 7 1.5 0 .4.1.5.199.7 3.101 2.6 6.701 4.7 10.801 6.3z" fill="#fefefe"/><path d="M4.239 46v-7h-1c0 .4 0 .6-.101 1-.399 3.1-.1 5.5 1.101 7v-1z" fill="#858585"/><path d="M6.139 54c-.399 4.1-.1 7.5 1.101 10v-1-10h-1c-.001.4-.001.6-.101 1z" fill="#b5b5b5"/><path d="M18.239 177v1h.5c.3-3 .399-6 .5-9h-1v8z" fill="#575757"/><path d="M45.239 263v1c-.5 3.9-.101 6.9 1 9v-1-9h-1z" fill="#999"/><path d="M145.239 43v-1h-20v.5c6.6.4 13.4.5 20 .5z" fill="#838383"/><path d="M212.739 72c.399-2.7.5-5.4.5-8-1.101 1.5-1.5 3.9-1 7v1h.5z" fill="#787878"/><path d="M207.239 151v1h.5c.399-5.4.5-10.6.5-16h-1v15z" fill="#8c8c8c"/><path d="M56.239 331c-.5 4.1-.101 7.5 1 10v-1-10h-1v1z" fill="#7d7d7d"/><path d="M67.239 380c-.5 3.9-.101 6.9 1 9v-1-9h-1v1z" fill="#b1b1b1"/><path d="M119.439 477.6c.5.2.8.5.8.601 1.399 6.2 2.399 12.5 3 18.8v-1-19h-4c0 .299 0 .599.2.599z" fill="#939393"/><path d="M128.239 518c-.5 3.8-.101 6.8 1 9v-1-9h-1v1z" fill="#717171"/><path d="M132.239 570v1c.399 0 .5 0 .5-.1.399-6.2.5-12.601.5-18.9h-1v18z" fill="#939393"/><path d="M228.739 582.9c.399-2.601.5-5.2.5-7.9-1.101 1.5-1.5 3.8-1 7v1c.4 0 .5 0 .5-.1z" fill="#8f8f8f"/><path d="M218.739 610c.399-4 .5-8 .5-12-1.101 2.8-1.5 6.5-1 11v1h.5z" fill="#b0b0b0"/><path d="M292.339 655.5c3.8.9 6.8.6 8.9-.5h-9c0 .4 0 .5.1.5z" fill="#636363"/><path d="M342.239 652h21v-1c-7.4 0-14.601.1-22 .5v.5h1z" fill="#878787"/><path d="M319.239 651h12v-1c-4.4 0-8.601.1-13 .5v.5h1z" fill="#959595"/><path d="M99.239 633v-1h-8v.5c2.699.3 5.4.5 8 .5z" fill="#b4b4b4"/><path d="M494.239 326v-1-7h-1v1c-.5 3.1-.1 5.5 1 7z" fill="#787878"/><path d="M816.339 587.5c-.1 0-.1.2-.1.5h8v-1c-2.7 0-5.301.2-7.9.5z" fill="#dadada"/><path d="M765.239 591h1c4.8.5 8.8.2 12-1-4.301 0-8.7.2-12.9.5-.1 0-.1.2-.1.5z" fill="#757575"/><path d="M967.239 515v-1c-4 0-8 .2-12 .5v.5h12z" fill="#b9b9b9"/><path d="M972.239 518h-1v.5c3 .3 6 .5 9 .5v-1h-8z" fill="#c2c2c2"/><path d="M1020.239 573v1c.399 0 .5 0 .5-.1.399-2.9.5-5.9.5-8.9h-1v8z" fill="#a2a2a2"/><path d="M901.239 684c-.101.1-.301.5-1 1.4-1 1.399-2 3-3 4.6-2.2 1.1-5.2 1.4-8.9.5 0 0-.1-.1-.1-.5-4.9-.8-9.601-1.7-14.101-2.9-.2 0-.6-.1-.899-.1-12.4 8.1-28.801 10.1-49 6.1-.301 0-.7-.1-1-.1-4.7 2.6-10.301 4.3-17 4.9-.301.1-.7.1-1 .1-1.5 1.2-3.801 1.5-7 1.1-.301-.1-.7-.1-1-.1-4.301.5-8.301.5-12 .1-.301-.1-.7-.1-1-.1h-9c-6.7.9-12.4 2.9-17.101 5.8-.3.2-.5.2-.899.2-1.5 1.1-3.9 1.5-7 1h-1c-4.9.1-9.4.6-13.9 1.5 0 0-.1.1-.1.5v1h289v-1-114h-1c-2.301 14.3-4.801 26.7-7.801 37-.1.3-.199.7-.199 1-3.4 4.3-7.301 8.1-11.801 11.3-.1.2-.199.4-.199.7-1.9 1-4.601 1.4-8 1h-1c-7.301 6.1-15 11.7-23.101 16.8-.3.2-.5.2-.899.2-1.9 1.1-4.5 1.5-8 1h-1c-5.7 3.6-13 5.6-22 6h-1c-1 4.4-4 6.9-9 7.5v.5c-13.6-.3-22.9 2.1-28 7z" fill="#fdfdfd"/><path d="M888.339 690.5c3.7.9 6.7.6 8.9-.5h-9c0 .4.1.5.1.5z" fill="#848484"/><path d="M962.239 663c3.5.5 6.1.1 8-1-3 0-6 .1-9 .5v.5h1z" fill="#c2c2c2"/><path d="M775.339 698.5c-.1 0-.1.1-.1.5h9v-1c-3 0-6 .1-8.9.5z" fill="#575757"/><path d="M798.239 699.1c3.199.4 5.5.101 7-1.1-2.7 0-5.301.1-7.9.5-.1 0-.1.1-.1.5.3 0 .699 0 1 .1z" fill="#858585"/><path d="M725.239 709v-1c-4 0-8 .2-11.9.5-.1 0-.1.2-.1.5h12z" fill="#8d8d8d"/><path d="M726.239 708h-1v1h10v-1h-9z" fill="#c4c4c4"/><path d="M750.239 706c3.1.5 5.5.1 7-1-2.601 0-5.301.1-7.9.5-.1 0-.1.1-.1.5h1z" fill="#575757"/><path d="M566.239 463v-8h-1c0 .3 0 .7-.101 1-.399 3.5 0 6.2 1.101 8v-1z" fill="#969696"/><path d="M585.339 684.5c3.3.4 6.5.5 9.9.5v-1h-10c0 .4 0 .5.1.5z" fill="#666"/><path d="M651.239 600c-5 0-10 .2-14.9.5-.1 0-.1.2-.1.5h1c5.5.5 10.1.2 14-1z" fill="#949494"/><path d="M662.239 599c-3 0-6 .2-8.9.5-.1 0-.1.2-.1.5h1c3.4.5 6.1.2 8-1z" fill="#acacac"/><path d="M709.239 595c-5.4 0-10.601.2-15.9.5-.1 0-.1.2-.1.5h1c5.9.5 10.9.2 15-1z" fill="#757575"/><path d="M643.239 701h-9c0 .3.1.5.1.5 3.8.8 6.8.7 8.9-.5z" fill="#a2a2a2"/><path d="M669.239 705h13v-1c-4.601 0-9.301.2-13.9.5-.1 0-.1.2-.1.5h1z" fill="#989898"/><path d="M691.239 704h9v-1c-3.4 0-6.601.2-9.9.5-.1 0-.1.2-.1.5h1z" fill="#6c6c6c"/><path d="M446.239 657h15v-1c-5.4 0-10.601.1-16 .5v.5h1z" fill="#878787"/><path d="M376.239 653h9v-1c-3 0-6 .1-9 .5v.5z" fill="#848484"/><path d="M478.239 658h9v-1c-3.4 0-6.601.1-10 .5v.5h1z" fill="#838383"/></svg>