<svg xmlns="http://www.w3.org/2000/svg" xmlns:dc="http://dublincore.org/documents/dcmi-terms/" height="184.938" width="174.24"><metadata><dc:description>Silhouette of Fervidicoccales, processed by PhyloPic Tools (https://github.com/eweitz/phylopic-tools)</dc:description><dc:source>http://phylopic.org/image/4a1436f7-4ca4-49d3-991b-e6cbc9c00250</dc:source><dc:creator>Matt Crook</dc:creator><dc:license>http://creativecommons.org/licenses/by-sa/3.0/</dc:license></metadata><g stroke="#000" stroke-width="2"><path d="M90.691 1a18.414 18.414 0 0 0-3.562.344c-4.482.87-7.56 3.209-9.656 5.031-2.097 1.822-3.27 2.942-5 3.5-1.75.564-4.368.538-7.625.438-3.258-.1-7.166-.22-11.25 1.28-6.846 2.516-13.358 6.67-19.125 13.5-3.322 3.935-5.423 8.982-7.375 13.845-1.953 4.863-3.736 9.593-5.25 12.125-3.736 6.243-6.317 9.83-10.375 18.03-3.754 7.588-10.347 17.565-10.47 33-.117 14.907 2.396 34.759 12 45.657 4.562 5.175 9.822 7.708 14.282 9.375 4.46 1.667 8.084 2.695 10.125 4.156 2.22 1.59 4.033 4.086 6.063 7 2.03 2.915 4.257 6.29 7.968 8.75 5.779 3.83 11.11 6.297 20.282 6.844 9.964.594 21.165-3.085 30.28-7.344 9.533-4.453 16.652-11.232 23.72-15.406 3.259-1.924 8.08-3.698 12.906-5.406 4.826-1.708 9.637-3.304 13.5-5.844 6.285-4.132 10.338-7.3 13.031-12.719 2.55-5.131 3.333-10.424 2.063-17.156-.867-4.591-3.676-7.495-5.844-10.344-2.168-2.848-4.062-5.648-5.031-10.187-1.962-9.188-.361-31.213 2.75-40.5 1.49-4.448 3.829-7.15 6.437-9.969 2.609-2.819 5.84-5.805 6.906-10.687 1.584-7.248.954-13.723-3.156-20.063-4.389-6.77-12.08-11.52-21.687-14.125-5.613-1.522-11.646-.867-17.5-.156-5.855.71-11.572 1.545-15.72 1.312-7.438-.417-15.404-4.257-23.687-4.28z" fill="#fff"/><path d="M71.98 179.5c-8.602-.512-12.555-2.45-18.121-6.14-5.566-3.688-7.903-11.34-13.909-15.64-6.006-4.301-15.768-3.9-23.668-12.863-7.9-8.964-11.011-28.495-10.898-42.73.112-14.235 6.043-23.103 9.998-31.097 3.955-7.993 6.416-11.357 10.23-17.729 3.812-6.372 6.897-19.1 12.2-25.382 5.305-6.282 11.017-9.942 17.27-12.24 6.253-2.296 13.137.16 18.73-1.643 5.594-1.803 7.127-7.046 14.152-8.41 7.024-1.365 16.379 3.472 26.166 4.022 9.788.55 23.45-3.71 32.318-1.304 8.867 2.405 15.58 6.74 19.182 12.295 3.6 5.555 3.982 10.062 2.521 16.75-1.461 6.689-9.67 9.604-13.217 20.195-3.548 10.591-5.162 32.026-2.865 42.786 2.297 10.76 9.672 14.27 10.835 20.437 1.164 6.166.6 9.88-1.658 14.424-2.258 4.544-5.325 6.936-11.51 11.003-6.186 4.067-18.566 6.571-26.241 11.104-7.676 4.532-14.644 11.174-23.336 15.234-8.692 4.061-19.577 7.442-28.179 6.929z"/><path d="M124.648 69.263c-3.084 8.48-17.948 21.081-29.218 26.364-11.269 5.283-23.686 6.97-33.15 4.25-9.464-2.717-15.442-6.24-19.051-13.657-3.61-7.418-3.788-17.471 1.12-26.032 4.908-8.56 16.784-15.112 27.862-17.965 11.077-2.853 22.411-2.178 31.044.5 8.632 2.679 17.559 6.644 20.5 11.459 2.942 4.815 3.977 6.6.893 15.08z" fill="#333"/></g></svg>