<svg xmlns="http://www.w3.org/2000/svg" width="274.561" height="390.48" viewBox="0 0 274.561 390.48"><g fill-rule="evenodd"><path d="M274.561 145.68c-.844-9.876-5.323-16.117-11.52-20.64-1.017-4.636-5.229-6.75-9.841-7.2-19.188-1.873-30.253 17.38-37.92 28.56-6.907-.048-9.183 5.806-14.16 7.92-3.193 1.356-6.587 1.854-9.6 3.12-3.011 1.265-5.7 2.626-8.64 4.08-13.104-2.442-26.419-1.682-38.4-5.04-5.383-1.509-10.63-5.222-15.6-8.4-4.81-3.075-10.534-6.272-14.4-9.84-7.482-6.905-11.61-22.612-14.88-34.56-3.463-12.653-6.063-25.102-12.72-34.56C76.523 54.406 64.614 44.955 51.84 33.6c-5.772-5.131-12.865-8.994-22.32-6.96-.778-5.057 4.569-5.731 5.28-9.12.611-2.914-1.5-8.133-2.4-9.6-1.584-2.581-5.593-3.128-6.24-6.24-.601 3.479-.826 7.334-2.4 9.84C19.868 9.332 19.072 4.047 16.8.24c-.333 4.909.846 11.499-.24 16.56-3.582-1.138-4.044-5.396-6.24-7.92-.937 4.61 1.42 9.074.96 13.2-2.808.07-4.209-3.299-6.24-4.8-.499 4.289.918 7.84.48 11.28-1.111.681-2.588-.052-3.6-.24C.716 29.036.542 30.783 0 32.16V0h274.561v145.68zM0 36.72c1.478 4.123.5 11.979 6.48 10.8.148.666-.67 1.545-1.2 2.16C3.369 51.897.343 54.807 0 57.84V36.72zM127.2 390.48H0V62.16c3.188-2.412 6.69-4.51 11.76-5.04-2 7.422.789 10.167 4.8 13.2 3.67 2.774 8.192 6.229 14.16 5.28 2.774 14.598 3.8 32.049 2.64 48.24-.345 4.814-.314 9.4-1.2 13.92-.616 3.147-2.166 6.099-2.88 9.12-.796 3.365-1.502 6.794-1.92 10.32-1.812 15.29 3.445 29.033 6.24 41.28 1.502 6.584 3.445 12.506 6.96 17.52 6.476 9.239 17.8 14.77 27.36 21.36 7.331 5.054 15.482 9.143 21.6 14.88 2.993 2.807 5.517 6.649 9.6 8.16 1.007 6.247 5.777 8.763 9.12 12.72 1.595 1.889 3.046 4.381 4.8 6.721 3.412 4.55 5.412 9.907 8.64 14.399 1.643 2.287 3.836 4.188 5.04 6.48.635 1.209.758 2.868 1.44 4.08 1.266 2.25 5.127 4.85 7.44 6.24 4.897 2.942 11.601 3.686 17.52 4.8-1.951 11.162-7.16 20.288-11.52 29.76-4.301 9.344-7.728 19.597-15.84 25.68-2.605-.813-5.974-.802-9.12-1.68-1.337-.373-2.652-1.647-3.84-1.68-.985-.027-2.646.84-3.84 1.2-1.277.386-3.105.319-2.88 2.159 3.939-.214 9.657-.005 11.04 2.881-6.923-.604-10.486 2.154-16.56 2.399-2.257 1.583-5.935 1.745-6.24 5.28 1.809-.521 3.826-.234 6-.48 1.276-.144 2.354-1.07 3.6-1.199 1.45-.15 2.834.435 4.08.239 2.017-.314 3.189-2.193 4.8-2.399 1.938-.248 3.941 1.021 4.8 2.399-1.012-.061-1.698.473-2.64.721-3.26.857-7.335 1.186-7.44 5.76 1.103.605 2.867-2.022 4.32-2.64 2.842 2.935 5.439-.108 7.92-.24 1.636-.088 2.986.525 4.32.24 1.994-.427 3.294-2.292 4.56-2.4 1.756-.15 4.119 1.255 4.8 3.12-3.745-.769-4.839 3.149-6.24 5.52z" fill="#fff"/><path d="M274.561 149.521v240.96h-146.88c1.255-1.98 5.273-3.827 7.68-2.399 1.879-.361 2.026-2.454 3.6-3.12 1.661.038 3.253.452 4.8 0 1.621-.475 1.982-2.181 3.601-2.88 2.205-.953 4.462.052 6.24-1.681.252-2.016-.892-3.903-.24-5.52.506-.756 1.146 2.322 1.92 2.88 1.838.013 2.781 1.304 4.08 1.2 1.844-.148 2.999-3.029 6-1.681-.102-2.506-3.645-1.271-3.84-3.119-.727-.474-2.431.03-3.12-.48-.947-2.958-2.214-7.387-.96-11.04 1.483-1.076 3.671-1.448 4.32-3.36-.181-.779-2.347.427-2.16-.72 2.646-5.482 5.175-11.14 7.92-17.04 2.361-5.075 4.669-12.972 8.16-16.8.987-1.083 2.409-1.615 3.359-2.64 2.271-2.448 3.502-5.104 4.32-8.641 4.221-1.736 9.837-.13 13.44-1.68 5.111-2.199 8.402-11.296 8.64-18.72 13.121.331 13.869-12.202 13.68-24.48 4.871-4.054 10.872-6.404 16.561-9.36 5.476-2.845 7.687-8.865 11.04-13.92 3.188-.892 6.025-2.052 7.2-5.28.793-2.18-.13-4.628.479-6.96.304-1.161 2.024-2.248 2.4-3.359 1.316-3.896-.637-8.357-1.2-11.28 5.949-5.698 1.814-18.76-.48-25.44 2.505-3.199 3.313-10.023 0-12.96 2.24-2.342 2.757-7.765 1.2-11.28 4.156-7.124 10.127-12.434 17.28-16.56.107-1.013.946-1.294.72-2.64h.24z" fill="#fff"/><path d="M168.48 318.001c-1.99 15.303-9.681 27.435-15.601 40.56-.803 1.78-1.401 3.98-2.88 6.48-.821 1.388-3.239 5.344-3.84 5.52-.545.16-2.448-1.255-3.12-.72-1.303-2.858-2.346-7.434-1.2-11.28 1.623-.857 3.625-1.335 4.32-3.12-.255-.545-1.509-.091-2.16-.239 3.589-8.269 7.798-17.552 11.761-26.16 1.356-2.947 2.542-6.185 4.319-8.16 1.52-1.689 3.795-2.333 4.561-4.561 1.064.776 2.259 1.421 3.84 1.68zM137.76 370.561c.954.807 1.232 2.288 1.921 3.36 1.038.001 1.522.557 2.64.479-.784 1.389-3.485.479-4.561 0 .208-1.524-.599-2.639 0-3.839z" fill="#fff"/><path d="M274.561 145.68v3.84h-.24c.227 1.346-.612 1.627-.72 2.64-7.153 4.126-13.124 9.436-17.28 16.56 1.557 3.515 1.04 8.938-1.2 11.28 3.313 2.937 2.505 9.761 0 12.96 2.295 6.68 6.43 19.742.48 25.44.563 2.923 2.517 7.385 1.2 11.28-.376 1.111-2.097 2.198-2.4 3.359-.609 2.332.313 4.78-.479 6.96-1.175 3.229-4.013 4.389-7.2 5.28-3.354 5.055-5.564 11.075-11.04 13.92-5.688 2.956-11.689 5.307-16.561 9.36.189 12.278-.559 24.812-13.68 24.48-.237 7.424-3.528 16.521-8.64 18.72-3.604 1.55-9.22-.057-13.44 1.68-.818 3.537-2.049 6.192-4.32 8.641-.95 1.024-2.372 1.557-3.359 2.64-3.491 3.828-5.799 11.725-8.16 16.8-2.745 5.9-5.274 11.558-7.92 17.04-.187 1.146 1.979-.06 2.16.72-.649 1.912-2.837 2.284-4.32 3.36-1.254 3.653.013 8.082.96 11.04.689.511 2.394.007 3.12.48.195 1.848 3.738.613 3.84 3.119-3.001-1.349-4.156 1.532-6 1.681-1.299.104-2.242-1.188-4.08-1.2-.774-.558-1.414-3.636-1.92-2.88-.651 1.616.492 3.504.24 5.52-1.778 1.732-4.035.728-6.24 1.681-1.618.699-1.979 2.405-3.601 2.88-1.547.452-3.139.038-4.8 0-1.573.666-1.721 2.759-3.6 3.12-2.407-1.428-6.425.419-7.68 2.399h-.48c1.4-2.371 2.495-6.289 6.24-5.52-.682-1.865-3.044-3.271-4.8-3.12-1.266.108-2.566 1.974-4.56 2.4-1.333.285-2.684-.328-4.32-.24-2.481.132-5.078 3.175-7.92.24-1.453.617-3.217 3.245-4.32 2.64.105-4.574 4.181-4.902 7.44-5.76.942-.248 1.627-.781 2.64-.721-.858-1.379-2.862-2.647-4.8-2.399-1.611.206-2.784 2.085-4.8 2.399-1.246.195-2.629-.39-4.08-.239-1.247.129-2.324 1.056-3.6 1.199-2.174.246-4.191-.04-6 .48.305-3.535 3.982-3.697 6.24-5.28 6.074-.245 9.637-3.003 16.56-2.399-1.383-2.886-7.101-3.095-11.04-2.881-.225-1.84 1.603-1.773 2.88-2.159 1.194-.36 2.855-1.228 3.84-1.2 1.188.032 2.502 1.307 3.84 1.68 3.146.878 6.515.867 9.12 1.68 8.113-6.083 11.54-16.336 15.84-25.68 4.359-9.472 9.568-18.598 11.52-29.76-5.919-1.114-12.623-1.857-17.52-4.8-2.313-1.391-6.174-3.99-7.44-6.24-.682-1.212-.805-2.871-1.44-4.08-1.204-2.293-3.397-4.193-5.04-6.48-3.229-4.492-5.229-9.85-8.64-14.399-1.754-2.34-3.205-4.832-4.8-6.721-3.343-3.957-8.113-6.473-9.12-12.72-4.083-1.511-6.607-5.354-9.6-8.16-6.118-5.737-14.269-9.826-21.6-14.88-9.56-6.591-20.884-12.121-27.36-21.36-3.515-5.014-5.458-10.936-6.96-17.52-2.795-12.248-8.052-25.99-6.24-41.28.418-3.526 1.125-6.955 1.92-10.32.714-3.021 2.264-5.973 2.88-9.12.885-4.52.855-9.105 1.2-13.92 1.16-16.191.134-33.643-2.64-48.24-5.968.95-10.49-2.505-14.16-5.28-4.012-3.033-6.8-5.778-4.8-13.2C6.69 57.65 3.188 59.748 0 62.16v-4.32c.343-3.034 3.369-5.943 5.28-8.16.53-.615 1.349-1.494 1.2-2.16C.5 48.699 1.478 40.843 0 36.72v-4.56c.542-1.377.716-3.124 1.92-3.84 1.012.188 2.489.92 3.6.24.438-3.44-.979-6.991-.48-11.28 2.031 1.501 3.433 4.87 6.24 4.8.459-4.126-1.897-8.59-.96-13.2 2.196 2.524 2.658 6.782 6.24 7.92 1.086-5.061-.093-11.65.24-16.56 2.272 3.807 3.068 9.091 6.96 11.28 1.574-2.506 1.799-6.361 2.4-9.84.646 3.112 4.656 3.659 6.24 6.24.901 1.467 3.012 6.687 2.4 9.6-.711 3.389-6.059 4.063-5.28 9.12 9.455-2.034 16.548 1.829 22.32 6.96 12.774 11.355 24.683 20.806 35.04 35.52 6.657 9.458 9.256 21.907 12.72 34.56 3.271 11.948 7.398 27.655 14.88 34.56 3.866 3.568 9.59 6.765 14.4 9.84 4.97 3.179 10.217 6.892 15.6 8.4 11.981 3.358 25.297 2.598 38.4 5.04 2.939-1.454 5.629-2.815 8.64-4.08 3.013-1.266 6.406-1.764 9.6-3.12 4.978-2.114 7.253-7.968 14.16-7.92 7.667-11.18 18.732-30.433 37.92-28.56 4.611.45 8.824 2.563 9.841 7.2 6.196 4.523 10.676 10.764 11.52 20.64zm-109.92 170.64c-.766 2.228-3.041 2.871-4.561 4.561-1.777 1.976-2.963 5.213-4.319 8.16-3.963 8.608-8.172 17.892-11.761 26.16.651.148 1.905-.306 2.16.239-.695 1.785-2.697 2.263-4.32 3.12-1.146 3.847-.103 8.422 1.2 11.28.672-.535 2.575.88 3.12.72.601-.176 3.019-4.132 3.84-5.52 1.479-2.5 2.077-4.7 2.88-6.48 5.92-13.125 13.61-25.257 15.601-40.56-1.582-.258-2.777-.903-3.84-1.68zM137.76 374.4c1.075.479 3.776 1.389 4.561 0-1.117.077-1.602-.479-2.64-.479-.688-1.072-.967-2.554-1.921-3.36-.599 1.2.208 2.315 0 3.839z"/></g></svg>