<svg xmlns="http://www.w3.org/2000/svg" xmlns:dc="http://dublincore.org/documents/dcmi-terms/" height="189" version="1.2" viewBox="0 0 589 189" width="589" overflow="inherit"><metadata><dc:description>Silhouette of Gasterochisma melampus, processed by PhyloPic Tools (https://github.com/eweitz/phylopic-tools)</dc:description><dc:source>http://phylopic.org/image/fd12b37e-890f-4f61-ae9a-947819f9466d</dc:source><dc:creator>Robbie N. Cada (vectorized by T. Michael Keesey)</dc:creator><dc:license>http://creativecommons.org/publicdomain/mark/1.0/</dc:license></metadata><path d="M365 0h3c-9.621 11.203-10.678 39.546 8 41-1.485 1.181-4.468.865-4 4 6.534 3.274 8.541.275 14-2 1.882 1.785 4.629 2.705 6 5-1.78.553-4.152.514-5 2 5.607.941 6.78-2.553 11-3 2.794 2.477 8.82 4.554 2 6 5.781.781 8.744-1.256 12-3 2.875 2.318 8.813 5.919 2 7 6.342 2.8 9.513-1.204 14-3 .621 3.045 5.379 1.955 6 5-.606 1.727-4.743-.077-5 2 7.101 2.391 11.369-.372 16-3 2.774 1.574 7.143 5.923 2 7 6.896 1.23 7.002-4.332 11-6 .807 3.526 6.104 2.563 6 7-2.279-.279-3.759.241-4 2 6.464-.536 8.564-5.436 14-7 2.321 5.012 12.263 2.404 15 7-5.281.385-12.554-1.22-14 3 35.524-2.901 46.284-33.712 69-51 10.529-8.013 24.834-15.255 45-15v1c-21.254 15.66-50.679 40.327-53 76 13.447 27.083 32.461 56.336 51 72-53.638-4.104-61.106-59.459-106-69-.418 5.751 10.256.411 11 5-5.761 1.24-11.742 2.257-16 5-4.21-1.969-8.4-9.359-13-5 2.551.116 5.145.188 5 3-2.08.586-3.232 2.102-5 3-5.987 1.291-7.666-6.96-13-3 2.332.334 4.309 1.025 5 3-2.668.665-3.662 3.005-5 5-3.826-.541-7.523-6.431-11-4 5.345-.104 1.303 5.193-1 6-2.981.887-6.089-3.117-7-1 1.806 1.872-3.433 5.185-6 6-3.175-1.012-10.808-5.316-13-1 2.555-.765 4.598-1.473 6 1-3.055 7.505-13.898 1.68-17 4 1.453.547 5.169-1.169 5 1-5.016 5.317-13.567 7.1-21 10-4.303 12.237 4.925 24.208 6 31-13.8-1.494-23.33-22.126-36-24-7.9-1.168-23.5 5.043-35 8-45.724 11.758-104.176 12.398-159 11 8.914 3.753 22.08 3.254 33 5-11.228 10.439-26.906 16.427-30 35h-1c-11.267-11.732-17.518-28.482-27-42-33.284-7.236-71.13-15.853-106-28-9.818-3.42-26.722-7.579-30-16v-1c13.768-7.711 33.595-3.177 47-11-8.936-10.731-23.981-15.352-33-26 31.95-29.188 92.841-34.305 147-38 3.492-7.508 8.626-13.375 16-17 27.707-3.186 68.021-8.331 104 3 4.765 5.902 11.752 9.581 17 15 11.408.925 21.711 2.956 32 5 9.409-13.257 20.727-24.607 35-33z" fill-rule="evenodd"/></svg>