<svg xmlns="http://www.w3.org/2000/svg" xmlns:dc="http://dublincore.org/documents/dcmi-terms/" height="163.603" width="375"><metadata><dc:description>Silhouette of Gasterosteidae, processed by PhyloPic Tools (https://github.com/eweitz/phylopic-tools)</dc:description><dc:source>http://phylopic.org/image/128043bd-2d06-47bc-a53b-b6f0bcf214e4</dc:source><dc:creator>Milton Tan</dc:creator><dc:license>http://creativecommons.org/licenses/by-nc-sa/3.0/</dc:license></metadata><path d="M162.03.008c-.848.126-2 1.852-3.016 5.113-.857 2.75-2.049 5.9-2.649 7-1.92 3.52-7.686 31.172-6.799 32.608.994 1.607-2.658 2.788-9.216 2.98-8.056.235-10.023-.7-14.19-6.752-2.855-4.147-3.107-6.69-2.16-21.836.275-4.4.106-8.225-.375-8.5-1.603-.917-5.893 18.396-7.164 32.25l-.621 6.75-3.67.027c-4.768.036-30.747 3.593-32.03 4.385-.541.335-3.382 1.052-6.312 1.594C63.04 57.622 34.003 67.525 14 76.029 5.263 79.744 0 84.037 0 87.451c0 2.356 11.945 13.77 16.36 15.631 1.726.728 6.515 2.307 10.64 3.51 4.125 1.203 8.625 2.651 10 3.219 5.367 2.213 26.86 7.908 33.5 8.877 3.85.561 9.925 1.656 13.5 2.433 3.575.777 8.525 1.687 11 2.022 2.475.334 6.525 1.022 9 1.529 2.475.506 12.15 1.37 21.5 1.92 24.66 1.448 23.853 1.218 27.611 7.906 2.757 4.907 12.873 18.239 20.028 26.395 1.298 1.48 3.164 2.699 4.146 2.709 1.534.015 1.62-.297.608-2.23-.648-1.238-1.96-3.376-2.918-4.75-2.636-3.785-5.893-9.6-10.641-19l-4.293-8.5 15.873-.595c16.244-.607 16.76-.726 25.762-5.834 3.57-2.026 22.356-10.072 23.515-10.072.65 0 3.347 1.826 5.995 4.059 2.647 2.232 5.247 3.79 5.779 3.46.922-.57 2.87.9 10.941 8.253 6.595 6.006 5.736 6.495 28.26-16.07 22.48-22.522 22.117-22.293 33.576-21.235 7.757.716 14.412 2.875 18.824 6.107 4.862 3.562 30.284 16.304 35.793 17.94 5.643 1.675 10.641 1.942 10.641.568 0-.504-.83-2.867-1.846-5.25-1.015-2.383-2.16-7.436-2.543-11.228-.383-3.793-1.096-7.642-1.584-8.553-1.266-2.367 2.306-26.622 5.588-37.95.673-2.32.554-2.381-3.71-1.878-2.424.285-7.105 1.75-10.405 3.256a791.231 791.231 0 0 1-9.5 4.261c-31.701 13.81-37.032 15.692-44.55 15.727-6.932.032-7.142-.044-12.5-4.545-2.998-2.518-7.25-5.646-9.45-6.951-2.2-1.305-5.575-3.84-7.5-5.631-1.925-1.792-9.66-7.926-17.19-13.63C247.42 33.938 239 25.926 239 23.524c0-1.643-2.94-.941-5.64 1.346-2.515 2.13-8.577 7.877-21.61 20.488-3.163 3.06-5.75 5.897-5.75 6.305 0 1.791-3.05 1.733-4.018-.076-.814-1.522-.473-3.208 1.53-7.586 1.416-3.096 2.294-5.91 1.95-6.252-.342-.343-2.187 1.175-4.1 3.373-3.62 4.16-4.12 4.83-5.993 8.05-1.189 2.045-1.576 2.08-10.369.874-8.504-1.166-18.143-9.726-22.46-19.943-1.907-4.51-2.307-16.183-.661-19.258.58-1.085 1.183-3.943 1.338-6.35.202-3.14-.34-4.614-1.188-4.488zm158.052 91.049l.016.035-.073-.024c.019-.005.038-.005.057-.011zm-26.85.863l-.011.012c-.001-.004-.005-.006-.006-.01l.017-.002zM61.68 112.52c.001.009.006.016.007.025l-.187.025.18-.05z"/></svg>