<svg xmlns="http://www.w3.org/2000/svg" xmlns:dc="http://dublincore.org/documents/dcmi-terms/" height="14.128" version="1.2" viewBox="0 0 39.397 14.128" width="39.397" overflow="inherit"><metadata><dc:description>Silhouette of Gastrotricha, processed by PhyloPic Tools (https://github.com/eweitz/phylopic-tools)</dc:description><dc:source>http://phylopic.org/image/20468aff-6cf4-4d50-bf1f-6a061c878de0</dc:source><dc:creator>Michelle Site</dc:creator><dc:license>http://creativecommons.org/licenses/by-nc/3.0/</dc:license></metadata><path d="M14.358 13.974c.529.084 2.15-.026 3.265-.189 7.771-1.143 16.356-6.657 16.356-6.657.711-.543 2.72-.988 4.351-1.253.919-.15 1.224-.425.655-.462-.439-.028-1.701.168-1.701.168-4.52-.084-4.143-.921-4.143-.921-.502-1.004 2.762-3.807 2.762-3.807.809-.521.863-.951.21-.602-.769.414-2.345 1.675-2.345 1.675-1.729 1.116-3.764 1.353-4.853 1.688-1.087.335-12.075 3.585-12.075 3.585-7.81 2.677-9.873.109-9.873.109l-.865-.586c-.947-.779-2.035-.529-2.035-.529-.308-.306-1.479.028-1.479.028-.418.476-1.032.224-1.032.224C-1.233 7.588.915 9.93.915 9.93c-.28.894.864 1.562.864 1.562s5.467 2.008 12.579 2.482z" fill="#010101" stroke="#020202" stroke-width=".25" stroke-miterlimit="10"/></svg>