<svg xmlns="http://www.w3.org/2000/svg" xmlns:dc="http://dublincore.org/documents/dcmi-terms/" height="673" viewBox="0 0 1053 673" width="1053"><metadata><dc:description>Silhouette of Gekko vittatus, processed by PhyloPic Tools (https://github.com/eweitz/phylopic-tools)</dc:description><dc:source>http://phylopic.org/image/21ebdb0e-35ac-4e66-a7ba-99c101a7c2d1</dc:source><dc:creator>Steven Traver</dc:creator><dc:license>http://creativecommons.org/publicdomain/zero/1.0/</dc:license></metadata><path d="M926 1c4.555 7.056 3.79 13.524 1 19-2.65 5.201-10.821 8.729-14 15-.54 1.065.441 2.883 0 4-.335.847-1.761.649-2 2-2.234 12.607 4.347 24.25 10 32 3.355 4.6 7.618 9.866 10 12 4.073 3.65 11.913 6.668 17 11 2.153 1.833 3.661 4.799 6 7 14.031 13.207 30.396 26.396 45 41 7.992 7.992 15.208 17.773 22 28 4.983 7.505 9.225 14.426 14 23 5.245 9.418 10.242 20.507 14 34 2.588 9.292 2.878 25.857 1 40-.617 4.648-.085 9.479-1 13-.579 2.228-3.145 4.537-4 7-.944 2.718-1.056 5.641-2 8-2.559 6.396-6.75 16.45-12 21-2.44 2.115-3.336 5.933-6 9-2.079 2.393-5.538 4.57-8 7-7.67 7.571-16.267 14.43-25 23-20.591 9.409-36.781 23.219-63 27-6.386 3.664-19.121 6.609-29 9-7.446 1.802-15.441 4.609-23 6-6.186 1.139-12.864.597-19 2-14.999 3.431-28.433 10.526-41 15-3.61 14.057-12.431 22.902-19 34 18.069-8.143 36.104-4.056 59-3 4.018-8.648 9.411-15.923 23-15 4.593-2.074 4.853-8.481 11-9 4.675 3.902 1.008 6.541 1 13-.597 4.597 4.504 3.496 4 8-1.704 12.629-14.541 14.125-21 22 2.358 4.642 8.771 5.229 11 10 4.022-.752 6.352 2.414 10 3 14.29 2.294 30.84-5.405 44 0 4.942-2.241 14.36-4.723 21-2 .877 7.21-1.998 10.668-7 12-.64 14.037-19.025 15.907-37 14-2.043-.217-2.254-1.564-4-2-4.468-1.114-9.718-.502-14-1-4.521-.525-8.77-4.065-11 0-.413 8.333 7.842 12.717 13 18 2.482 2.543 5.143 5.333 8 8 2.494 2.328 6.254 4.823 8 7 3.697 4.607 9.235 14.743 4 22-5.241-.593-12.349.278-18-1-8.278-1.873-12.897-7.649-18-11-2.336-6.732-8.093-12.201-12-19-2.761-4.805-2.308-5.559-7-9-1.432-1.05-2.047-3.25-4-2-6.037 4.049 2.327 18.106-2 27-4.326 3.674-10.85 5.15-18 6-2.488-4.628-11.044-5.896-13-11-3.674-9.585 9.486-16.934 8-30-7.724.059-10.114 8.963-17 12-2.784 1.228-7 2.335-11 2-4.115-.345-12.993-4.057-13-10-.011-8.95 13.142-8.148 21-13 3.622-2.235 6.112-5.443 8-9-7.801-2.403-18.716.827-29 3-12.227 2.583-23.002 6.398-36 4-10.955-2.021-14.759-7.035-20-17-1.044-12.711 1.587-21.746 2-33-.556-4.413 6.001-5.269 3-9-5.786-2.513-9.99 2.606-15 4-5.501 1.53-11.263.742-17 2-4.229.927-8.771 2.701-13 4-3.913 1.202-7.993 2.692-12 4-8.348 2.724-17.243 4.603-26 7-6.094 1.668-15.048 4.849-23 7-4.501 1.218-9.516 1.787-14 3-7.299 1.975-14.535 6.491-22 8-4.277.864-8.865-.048-13 1-3.719.942-7.328 4.096-11 5-4.012.987-8.204-.091-12 1-2.955.85-5.108 3.965-8 5-3.875 1.387-9.852.554-14 2-3.643 1.271-5.632 3.363-9 5-11.505-2.79-20.359 7.212-30 8-3.141.257-5.975-1.593-9-1-10.883 2.133-11.413 9.758-15 22-4.891 16.692-12.911 36.016-17 53 .946 8.313-.674 11.559 0 17 1.715 5.747 7.112 8.502 11 13 1.676 1.938 2.84 2.936 5 5 .345.329 1.664-.336 2 0 .287.287-.325 1.779 0 2 1.84 1.249 7.285 2.528 10 4 7.365 3.992 17.993 8.93 15 22-2.612-.279-5.004-.338-4 3-7.218-3.187-13.513.023-20-3-1.626-.758-2.874-3.104-5-5-1.776-1.584-4.624-2.701-6-4-1.349-1.273-2.665-4.792-4-6-1.949-1.763-3.474-2.612-6-3-5.928 4.541 1.001 13.062 5 20 7.387 12.815 16.35 29.593-5 28-1.357.31-.83 2.504-1 4-5.056-4.611-14.1-5.233-19-10-6.652-11.384 3.178-39.242-13-39-8.821.132-11.306 15.229-22 22-5.676 3.594-18.129 7.047-22 0-2.478.871-7.753 1.953-10 0-4.785-22.554 23.686-20.238 32-33-12.573-2.524-23.597 5.706-38 2-4.058-3.275-6.007-8.66-14-8 2.263-21.224 33.141-5.412 46-13-2.458-4.363-8.314-7.679-13-11-4.221-2.992-10.874-4.811-10-13 2.199-2.841 4.846-4.665 7-5 2.495-.389 8.552 1.152 12 3 6.708 3.596 9.579 12.045 15 12 11.753-.098 12.399-21.703 16-34 7.494-6.765 5.975-21.299 8-29-4.527 2.129-22.807-1.268-24 3-10.288-.134-20.052 1.307-29 1-9.768-.335-18.425-2.306-29-5-1.429-3.371-6.1-4.665-9-6-1.296-.597-1.527.101-2 0-1.172-.249-1.296-1.719-2-2-1.028-.411-3.091.603-4 0-.692-.459.084-1.508-1-2-.599-.272-2.531 1.922-2-1-4.716 2.435-13.154-.304-20 0-3.002.134-5.405 3.652-7 0-3.065 3.137-7.304 2.734-11 4-.227.078.195 1.806 0 2 .123-.123-2.948-1.29-4-1-.682.188-.836 1.727-2 2-7.933 1.866-15.962 5.95-24 10-2.076 1.046-3.967 3.128-6 4-1.67.717-4.537.057-7 1-4.171 1.598-11.34 5.295-18 6-19.599 2.074-33.426-5.229-52-7-14.137-1.348-29.104-1.743-43-4-5.435-.883-10.775-2.959-16-4-12.718-2.533-23.281-4.115-35-7-12.422-3.058-24.702-5.727-37-9-6.279-1.671-13.123-2.108-18-4-5.229-2.027-9.132-7.555-15-7-3.836-4.163-7.743-8.257-14-10-1.781-7.392-.357-13.459-1-19-.267-2.297-2.1-5.008-2-7 .456-9.125 9.142-21.055 18-23 2.579-.566 5.992.895 9 0 6.35-1.889 9.513-7.105 15-11 4.951-3.514 10.972-5.646 16-9 5.611-3.742 9.903-7.543 14-11 1.942-11.521 3.199-20.835 9-28 3.979-4.916 5.875-5.452 12-10 5.309-3.941 7.968-6.22 16-9 7.782-2.693 14.022-2.541 23 0 6.243 1.767 12.18 2.523 18 5 7.394 3.146 14.414 9.295 23 6-3.873-5.481-17.146-11.036-11-20-1.882-6.236-3.521-7.374 1-12 7.358-1.024 9.914 2.753 12 7 6.116-.116 6.69 5.311 13 5 3.758 4.85 9.241 9.809 14 15 1.763 1.923 3.125 4.195 5 6 1.696 1.633 4.503 2.167 5 5 4.166-.816 8.346 1.36 10 0 3.764-3.454-.094-8.599 1-15 4.645-5.355 10.176-9.824 14-16 4.396-.396 3.452 4.549 5 7 2.887 3.446 6.306 6.361 9 10 .491 4.491-.507 7.493-1 11 10.029-.093 21.198-4.073 33-6 5.042-.823 9.948-.044 15-1 12-2.271 21.582-9.768 32-8 15.019 2.549 18.275 25.415 16 45 12.91.324 25.443-4.086 38-5 6.269-.456 12.944.406 19 0 16.521-1.107 31.987-5.784 48-7 4.353-.33 8.63.418 13 0 2.066-.197 3.804-1.542 6-2 11.068-2.307 22.801-1.588 34-3 10.428-1.314 20.867-3.858 31-6 18.107-3.827 34.649-6.209 53-11 5.276-1.377 15.029-4.354 23-6 15.299-3.158 34.197-6.62 51-8 5.837-.479 11.461.282 17-3 .184-4.074-4.642-5.884-7-8-6.791-6.095-14.71-13.028-22-20-6.965-1.369-10.338-6.329-16-9-.42-8.205-7.728-11.593-5-22 .399-1.523 4.391-10.865 6-12 .66-.465 2.261.35 3 0 .303-.144.805-1.95 1-2 3.361-.862 7.893.692 12-1 3.04.96 3.983 4.017 7 5 5.506.104 13.059 2.561 18 0 .257-6.753-9.417-6.946-12-12-1.944-3.805-1.975-6.262 1-11-.751-7.084.864-11.803 5-14 6.851.816 8.193 7.14 11 12 18.108 5.171 27.973 28.31 51 22 1.974-2.36 2.355-6.311 3-10 6.204-2.462 9.219-8.114 18-8 4.029-2.637 4.893-8.44 11-9 .343 9.324 4.348 14.985 7 22-1.588 5.412-5.995 8.005-7 14-6.973-.973-9.842 2.158-12 6 1.91 8.857 13.398 5.025 27 6 8.32.596 16 2.499 21 2 5.358-.535 9.797-5.263 14-2-.315 8.352-4.582 12.751-7 19-15.765 7.848-36.963 1.365-56 1-2.158 3.508-6.313 5.02-8 9 4.149 8.517 16.547 8.787 22 16 9.104 1.901 25.128.263 37 1 6.162.383 12.162 2.291 18 3 5.263.639 10.909.288 16 1 8.817 1.232 14.848 3.057 26 2 15.44-1.463 30.35-4.526 44-8 18.565-4.725 34.992-7.683 51-16 4.555-2.366 9.366-5.476 14-8 7.373-4.016 11.974-6.602 17-12 .864-.929 3.177-1.993 4-3 .969-1.185.795-3.548 2-5 1.266-1.524 3.338-1.977 4-3 1.035-1.6 1.745-5.563 3-8 3.071-5.964 7.146-15.516 8-24 .273-2.718-1.137-5.602-1-8 .116-2.038 2.051-3.991 2-6-.203-8.027-3.196-21.677-6-30-1.597-4.738-4.963-8.857-7-14-1.966-4.962-2.596-10.541-5-15-4.293-7.963-11.573-15.216-17-23-2.742-3.934-5.848-7.83-9-12-2.793-3.695-5.056-8.771-8-12-1.447-1.587-4.486-2.518-6-4-.848-.83-1.174-2.144-2-3-12.075-12.522-26.374-27.037-40-39-8.559-14.639-25.654-29.164-23-52 1.36-11.699 13.886-29.311 24-38 1.813-1.558 6.842-3.885 12-3z" fill-rule="evenodd"/></svg>