<svg xmlns="http://www.w3.org/2000/svg" xmlns:dc="http://dublincore.org/documents/dcmi-terms/" height="1427" version="1.2" viewBox="0 0 1563.209 1427" width="1563.209" overflow="inherit"><metadata><dc:description>Silhouette of Geococcyx californianus, processed by PhyloPic Tools (https://github.com/eweitz/phylopic-tools)</dc:description><dc:source>http://phylopic.org/image/794f1293-774f-4fb2-9543-64dea9bc37d5</dc:source><dc:creator>Patrick Fisher (vectorized by T. Michael Keesey)</dc:creator><dc:license>http://creativecommons.org/licenses/by-nc/3.0/</dc:license></metadata><path d="M0 214c15.371-41.945 80.716-26.92 120-21 38.399 5.787 71.314 13.558 96 15 4.237-4.139 6.131-8.726 9-16 2.417 2.161-2.105 5.838-2 9 3.865-1.468 4.795-5.872 7-9 1.414 4.771-6.202 9.114-7 15 8.466-4.256 6.407-10.7 14-18 2.09-.423 2.648.686 4 1 2.912-1.755 3.807-5.526 4-10 1.975.691 2.666 2.667 3 5 3.79-2.544 7.724-4.942 9-10 1.086.247.678 1.988 2 2 3.062-9.938 7.837-18.163 10-29 19.938-39.58 34.258-82.044 67-109 4.572-3.765 8.846-7.157 12-13 2.931.847-.598 3.22 0 5 2.555-.112 3.5-1.833 5-3-10.427 10.575-21.308 29.357-32 43 .247 1.086 1.988.678 2 2 11.783-13.55 17.719-32.948 39-37 6.097-3.903 9.831-10.169 19-11-1.002 5.998-10.769 3.231-12 9 6.012-2.333 14.04.091 15-10 4.696 1.483-1.717 8.465-3 15 1.295 1.229 8.381-.236 8-4 2.807-.428-2.506 3.728 1 4 3.842-1.158 3.949-6.051 9-6-.282 1.787.945 2.052 1 1 2.696 3.221-6.385-.533-6 5 1.677 1.723 3.774-4.578 5 1 9.244-4.665 18.39-3.615 27-5-4.619 6.257-17.036 7.374-18 12-.845 2.595-4.387-1.924-6 1-.396 2.396 4.555-.555 3 3h-7c3.275 3.588.519 4.362-5 4 .409 3.417 2.701 1.271 1 5 2.555-.112 3.5-1.833 5-3-2.181 3.5-7.223 12.767-15 14 2.766 4.519-6.512 10.474-11 14 2.802 5.928-11.945 10.385-13 19-2.348.319-3.753 1.58-7 1-.304 4.083 2.088.534 4 1 .306 2.306-2.889 1.111-3 3 17.804-1.011 25.24-27.121 41-42 5.555-5.245 19.59-15.617 27-15 2.536.211 1.235.55 1 2 2.928.261 3.072-2.261 6-2 10.271 6.68 21.311-1.426 32 7-5.64 2.926-14.782-.31-16 5-4.605.039-12.11-1.753-11 3-6.99-2.346-10.537-1.578-16 1 2.367 2.3 8.975.358 13 1-5.425 5.163-18.926-1.756-21 3 .31 1.357 2.504.83 4 1-2.221.243-10.33 4.427-7 1-3.71 4.957-9.148 8.185-14 12 .91 2.736 3.504-1.775 5 1-1.985-2.306.251-1.111 1-3 1.484.437-.395 1.28 0 3 4.928-1.072 7.579-4.421 11-7-1.091-2.297-4.909.996-6 2-1.76-1.504 3.536-4.407 6-5 11.545 3.06 21.368-11.61 39-9-3.51 1.823-6.959 3.708-10 6 5.057 2.901 12.328.297 19 3-5.434 7.041-20.835 3.085-27 7 .745 2.255 5.609.391 8 1-4.006 2.007-16.513 4.144-22 8 6.571.067 19.443-3.022 26-1-.532 4.468-7.152 2.848-9 6 10.501-.406 24.284-6.103 37-1-.997 1.336-2.703 1.964-3 4-19.951 2.164-31.609-2.746-45 3-.468 3.135 2.514 2.819 4 4 4.299.473 1.28-2.691 3-3 4.169.978 7.413-.074 10 4 1.906-4.716 7.009-.914 12-3 .076 3.409-3.706 2.961-7 3-.005 3.642 5.066 1.236 1 4 6.603 2.063 12.77 4.563 17 9-5.718-2.894-23.356-13.564-30-2-.589 2.132 5.973 3.63 5 0 .945 1.617.888 4.812 0 7 2.767-.125 3.434-1.909 2 1 1.71.044 2.59-.743 3-2 1.844 5.156 7.855 6.145 11 10-4.157.137-9.32-7.332-17-7 .958 5.122 8.168 5.388 9 6 .951.7 1.719 7.349 9 7 1.666 1.987-.09 1.271 0 4 7.394-.394 7.606 6.394 13 8-6.307.626-11.922-8.067-21-8 2.947 5.386 11.607 5.06 13 12-3.219-2.448-5.589-5.744-12-5 .174 3.159 3.956 2.711 7 3-2.589 1.411-6.233 1.767-8 4-1.008 3.008 2.228 1.772 4 2-.765 2.555-1.473 4.598 1 6-.226 1.44-2.984.349-3 2 .233 3.1 3.546 3.12 6 4 .483 3.15-4.584.749-5 3 2.849 5.377 9.98.538 14 4-2.222.778-2.681 3.319-6 3 .436 4.934.583 3.684 7 5-1.453 1.547-3.9 2.1-7 2-1.619 5.679 4.851 2.554 2 7 .125 2.208 4.242.425 6 1-.725 3.059 1.725 2.941 1 6-.933-.611-3.689-2.327-3 1-1.772-1.578-6.128-3.578-4-6-4.742 1.139-10.481-4.655-17-5 5.582 9.751 20.41 10.257 25 21-8.429.652-4.934 9.964-7 13 1.613.169 3.936 4.575 5 2-.922 3.211 3.615 6.149 7 8-2.202-.53-3.485 3.148-8 3-.689 2.689 2.067 1.933 3 3-.658 2.995-2.138-.956-4 0 .804 3.863 6.008 3.325 8 6-1.891 1.5-6.13-3.16-10-3 .229 3.438 2.976 4.357 6 5 .167.46-5.026 1.903-8 1-.475 3.808.424 6.242 3 7-2.422.036-12.142-3.029-11-7-1.889.111-.694 3.306-3 3 2.514 3.82 9.066 3.6 12 7-.982 3.066-2.668-1.149-4-1-2.522 1.317 2.622 3.283 2 6-1.913-3.563-3.559-2.191-7-3 .81 2.333 4.911 8.199-2 7 1.813 4.633 6.109-.617 10 0-4.364 2.061-7.989 8.962-1 11-3.724 1.276-8.764 1.236-7 8 .608.987 4.791.149 6 3-1.733 4.285-6.97 2.885-9 0-1.852 1.763.257 3.097 2 4-.658 2.995-2.138-.956-4 0 2.528 4.225.539 11.998 9 11 3.183 1.378-3.534.99-5 1 2.306 4.147 5.112 16.924 2 20 3.883 2.783 10.119 3.214 13 7-2.161.458-7.553-4.419-12-5 1.831 10.57 8.594 15.608 19 19 1.196 2.862-7.028 8.055-12 5 .649-1.017 2.299-1.034 2-3-.733-.934-1.818-1.515-3-2-1.955 3.855-3.463 10.892 1 17-1.712.934-2.015 4.074-4 2 .354 8.422 3.649 10.26 8 16-2.043-.957-3.957-2.043-6-3-.42 4.087 3.292 4.042 2 9 3.247.58 4.652-.681 7-1-1.275 2.059-1.595 5.072-5 5 7.002 15.029 7.615 21.269 14 34-.247 1.086-1.988.678-2 2 .112 2.555 3.349 1.985 6 2-2.5 1.967-2.907 7.107 2 7-.15 2.487-3.386.292-4 0 2.607 3.059 2.235 9.099 7 10-3.567 2.254 2.064 8.969 6 10-.733 1.781-1.818.144-3 0 3.439 6.561 9.823 10.177 15 15-.733 1.781-1.818.144-3 0 .727 2.94 3.118 4.216 7 4-2.977 9.687 11.952 16.869 21 21-3.689 3.076 5.879 7.363 11 8-1.01 2.816-4.247-.276-6 0 1.373 3.185 5.292 4.929 9 3 .375 4.813 9.164 9.365 15 12 5.921 11.413 20.127 14.54 34 18-4.374 2.583-7.952-2.117-12-1 .85 3.483 4.929 3.738 8 5-.821 2.513-1.309 5.358-5 5 9.521 6.599 12.741 11.405 20 14 6.021 2.152 14.797 1.603 22 5 8.354 3.941 13.934 12.2 24 13-1.915 2.809-5.213-1.374-8-1 .615.89 1.208 1.789 0 2 10.497 5.157 33.253 19.365 51 29-1.787 2.039-3.69.281-2 4-2.507-.827-3.164-3.503-5-5-5.135 3.011 2.763 7.051 4 10 20.582.632 32.368 20.347 43 27 .98.614.868.264 3 0 10.879 18.122 33.722 24.278 49 38 2.188-1.479 5.383-1.95 7-4 2.709.903-2.286 2.237-2 4 10.185-6.012 14.873-11.352 19-20 5.229 2.05 5.421-10.086 11-9-1.378-1.289-.99-4.344-1-7 7.397 3.961 7.387-15.627 14-19 1.691 1.436-3.399 4.543-3 8 6.368-7.327 15.902-15.436 20-30 2.952 2.375-1.209 6.058-1 9 1.369 1.946 4.209-3.057 5-5 2.135-2.468-.281 3.175-1 4 3.638.638 3.93-2.071 4-5 2.168-.168.453 3.547 1 5 1.182-1.151 3.535-1.132 6-1v-7c5.074 3.442 2.024-7.542 7-4v-5c3.08 5.334 2.184-1.577 3-2 .439-.228 1.741 1.655 5-1 36.988-30.139 72.42-82.152 104-115h3c19.926-19.075 37.832-40.168 56-61 1.484.437-.395 1.279 0 3 151.505-153.168 302.516-306.805 492-422 9.837 5.665 19.116-2.496 28-4 7.014 15.581-4.327 28.595-11 37 5.559-1.108 7.254-6.08 10-10 2.148 4.512-3.866 9.445-5 14 .905 1.762 3.682 1.652 4 4-12.218 33.782-40.082 51.918-59 79-.049 4.715 3.227 6.106 3 11 4.491.491 7.493-.507 11-1 3.601 6.882 1.773 15.864-2 23-8.523 16.116-26.322 29.258-40 44-14.186 15.289-25.819 31.729-39 43-2.724 13.276-11.065 20.935-17 31 1.178 1.879 6.896 4.36 7 4 16.02 23.356-12.337 57.088-28 70-18.609 15.341-39.477 25.43-56 35 .826 2.826-1.409 2.591-1 5-9.136 5.983-19.29 6.269-29 13-4.246 2.943-6.449 8.612-11 12-16.217 12.075-43.146 18.558-57 31-1.281 1.151-1.094 6.951-5 5 15.553 2.58 40.276-1.905 54 7-8.167 19.099-26.272 29.804-45 42-33.454 21.786-74.702 44.049-103 58-11.884 5.859-18.679 11.35-26 17-4.157 3.208-12.862 10.985-14 17-3.475-.313-3.797-1.52-7 0-.044 1.71.743 2.59 2 3-5.594-2.886-9.085 9.041-15 12 3.973 4.176 4.928 5.607-1 2-2.197 1.841-7.621 5.661-6 8-2.532-.438-5.775 3.229-8 6 1.359 3.64 7.091 2.91 8 7-3.445.327-4.427-3.936-9-5-3.789 1.877-6.024 5.309-9 8 1.643 2.024 3.344 3.989 7 4 .083 1.583-.48 3.814 1 4-2.003 2.897-3.705-2.883-7-2 3.405 16.807-9.043 23.634-10 36-2.713.547-3.395 2.812-5 8-3.52-2.006-5.585 4.71-10 5-2.127 17.678-13.672 23.646-26 29-.163 1.163.221 1.779 1 2-9.898 6.354-19.531 17.444-27 23 .56 1.44 1.56 2.44 3 3-.869 2.953-1.497-2.32-4-1-3.827 2.254-.375 7.378-5 5-.044 1.711.743 2.59 2 3-1.819-.783-10.758.496-11 7-6.658-1.155-8.209 1.97-16 4-1.611-2.055-5.014-2.319-9-2 6.108 7.996 6.957 4.533 11 13-2.755.116-5.248-4.039-10-4 21.926 19.615 53.771 41.627 77 62 3.864 3.39 9.081 8.189 12 12 10.215 13.333-4.453-.713-7-5-2.826.826-2.591-1.409-5-1 1.764-2.546-1.247-1.063-3-4-2.708 2.451 3.414 4.529 3 8-2.296-1.371-3.215-4.118-5-6-1.172.161-.844 1.823-1 3-1.808-1.788-4.779-5.721-3-8-2.471.778-2.959.331-5 3-2.306.306-1.111-2.889-3-3-2.995.658.956 2.138 0 4-.814-1.055-5.71-5.732-4-3-4.915-1.182-8.512-10.869-16-11-1.671 1.414 2.449 5.493 3 8-2.592-.103-4.178-9.801-9-11-1.922 4.084-6.315.944-7-2-2.443.89-4.336 2.33-8 2-.127 1.793 1.225 2.109 1 4 2.272 2.282-2.872-1.441-2-4-3.078.7-1.922.7-5 0-.086 1.419-.165 2.832 1 3-1.445 2.956-2.104-3.115-3-4-4.387 4.391-.808 13.101-10 14-.409 2.409 1.826 2.174 1 5-1.108 2.619-1.275-3.942-2-5-1.584.083-3.814-.48-4 1-.824-.826-.545-3.503-3-5-3.377.406 2.66 3.877-2 3 .706-7.373-8.182-5.152-8-12-4.381 2.092-6.799-2.965-10-5-2.23.147 1.298 2.52 0 5-3.17-4.497-3.107-12.227-7-16-3.391 1.775-1.271 6.424 0 9-.429 2.513-2.154-1.663-2-3-2.635 1.316-3.065 3.283-2 6-2.828-1.85-6.183 2.688-6 7-4.207-2.564-10.589 2.465-11 6-.934-.732-1.515-1.818-2-3-2.593-3.4.63 4.893-2 5 2.43-.1-4.093-8.902-4-1 .101 8.588-.612-7.827-5-3-2.715 2.986.646 1.892-2-1-.811.189-.996 1.004-2 1 8.202 43.525 29.624 88.131 38 134 1.729 9.473 1.679 21.305 3 32 1.606 13.002 3.016 24.116 0 38-2.732-1.934-4.602-4.732-6-8-.973.027-.775 1.224-1 2-2.187-.147-2.147-2.52-2-5-17.033-16.98-29.437-31.789-50-50-2.995.658.956 2.138 0 4-2.611-1.722-2.169-6.498-6-7-2.196 1.303 1.183 5.405 1 8-3.735-2.932-2.793-10.541-6-14-.284 7.695 3.518 24.666 0 8-.279-1.325-.672-1.826-2-4-1.26 4.315 1.779 15.104 1 21-.739 5.598-.824-2.346-1-3-.709-2.645-2.668-10.912-3-17-5.486 3.23-5.978 4.121-5 13-2.716.715.716-4.715-2-4-1.609 3.725-6.525 4.141-5 11-.84 3.177-1.319-1.775-1-3-6.324 8.038-16.802 10.111-25 11-2.477.269-2.89 3.999-3-1-3.008-1.008-1.772 2.228-2 4-.454-5.601-5.52-7.104-9-7-5.245 10.721-20.371 13.576-17 30-3.129.782.932-5.087-1-7-2.564-2.539-1.604 3.102-3 4-.776.499-10.732.131-7 6-.709-1.557-2.139-5.204-9-3-1.261 3.406-1.736 7.598-3 11-2.221-2.287 2.182-6.436 1-11-3.624-.957-1.017 4.316-3 5-2.511 2.839 2.548-6.339-2-6-2.168-.168-.453 3.547-1 5-1.191.8-.917-8.373-5-8-1.738 3.929-1.913 9.42-3 14-2.908-5.064-3.427 2.826-3 7-1.357-.31-.83-2.504-1-4-4.634-.635-2.532 5.468-3 9-1.546 3.057-.88-4.338-1-6-3.125-.458-3.197 2.137-3 5-4.813-1.129-8.075-1.193-11 4-1.172-.161-.844-1.823-1-3-2.565.102-1.607 3.727-3 5-2.18 2.381.5-2.044 0-4-3.301.365-4.382 2.951-6 5-2.204 2.399 1.283-2.174 1-4-3.146-1.146-2.43 1.57-4 2 2.06 19.256-6.961 22.139-1 42-1.086-.247-.678-1.988-2-2-2.436 4.155 2.144 12.506-2 4-1.8 1.257-5.861 5.396-3 8-3.347 1.653-3.12 6.88-7 8-6.729 56.134-23.783 115.767-28 177-2.066 30.001 18.706 38.595 44 27 2.409-.409 2.174 1.826 5 1 6.946-6.135 19.168-13.964 32-8-23.125-.125-22.223 23.777-39 30 22.746 11.426 61.061-18.5 73 9-9.041-7.879-26.119-2.02-35 2-2.798 12.6-23.305 16.813-36 13-22.366 6.646-41.668-15.247-61-7-2.881 3.452-7.113 5.554-12 7-10.059-5.583-16.176 7.709-29 8-13.875 12.125-15.769 36.23-31 47-4.165-1.502-10.206-1.128-11-6-9.039 4.628-13.823 13.51-17 24h-1c1.776-16.938 13.346-30.408 22-42 1.899-2.544.79-7.412 2-11 3.274-9.708 11.222-16.623 17-25-8.325 1.676-12.778 7.223-22 8-12.99 6.01-14.165 23.835-34 23-8.097-8.794-28.384-1.34-34 5 2.458-8.548 15.101-15.562 29-16 10.024-17.309 25.982-28.685 50-32 2.036-.297 2.664-2.003 4-3 16.314 1.096 30.059-10.391 45-12 19.816-24.404 29.388-73.948 34-118 2.397-22.896-.15-56.131 2-80 .686-7.611 4.798-28.439 0-20-.632-14.078-12.492-20.506-13-32-3.008-1.008-1.772 2.228-2 4-2.125-3.875.432-12.433-7-11-1.342.658-1.862 2.138-2 4-1.123.446.829-9.846-3-12-5.306 1.71-4.079-2.325-8-2-2.726.92 1.397 3.126 0 6-1.801-1.225-2.615-12.033-7-14-2.448.111-.212 3.306 1 3-2.456 1.41-4.969-5.664-6-9-3.703 3.379 2.982 11.864 6 15-3.792.437-6.327-8.989-9-13-3.258 1.875 3.844 14.41-1 9 .166-3.499-.265-6.401-2-8-1.933 3.033-.884 8.344 0 12-.186-.767 1.294 7.378-1 1-.628-1.745.697-10.129-3-12-.879 4.963-2.178 7.775 1 13-3.188-1.145-2.795-5.872-5-8-3.038 1.232 1.084 3.438 0 6-1.56 1.169-2.348-6.941-2-11-2.873.127-4.749 1.251-4 5-3.555 1.555-.604-3.396-3-3-3.063 2.169.959 5.629 0 9 .555 3.315-1.627-5.8-3-7-.903 2.611-1.317 6.869-2 0-2.555.111-1.985 3.349-2 6-1.388 3.193-.612-3.911-2-4-5.339 5.424-5.964 18.288-12 20 4.462 4.186-2.67 11.223-1 15-.436 1.484-1.28-.395-3 0-.18 4.136 2.351 4.022-2 3 3.364 5.411-1.412 7.186 1 13-4.016.217-7.919 8.578-10 14-5.317.192-7.964 11.24-14 14-9.524 37.91-31.632 104.494-36 149-1.594 16.242 7.814 22.289 25 20 3.682-.49 6.398-1.706 10-4 2.09-.424 2.648.686 4 1 6.259-5.283 20.651-15.424 28-5-15.49-4.085-20.211 11.069-27 19 20.595 1.299 40.895-28.673 53-3-9.89-11.166-29.541-.59-28 15-3.358 2.309-7.662 3.671-14 3-10.374 10.627-34.253 7.747-51 12-.934-.733-1.515-1.818-2-3-2.853 2.146-5.234 4.766-9 6-12.68-5.694-28.89 9.954-41 1-5.568 7.592-13.474 2.88-23 4-4.157 1.51-3.133 8.2-9 8-1.991 6.739-16.497 31.17-22 21-.875-1.615-5.939-.379-4-7-18.282.051-26.882 9.784-31 24-2.677-19.014 8.932-32.399 27-34 1.391-4.276 5.271-6.062 5-12 6.076-1.591 9.626-5.708 12-11-14.575-4.788-25.139 1.616-35 7-2.776-3.557-3.655-9.012-6-13-13.428-1.095-20.649 4.018-26 11-2.017-13.479 13.936-22.561 30-18 2.375-1.625 3.753-4.247 6-6 36.574-.791 77.851-1.864 96-24 24.169-46.83 32.982-109.018 49-164-1.944-3.056-2.284-7.716-2-13-3.779-1.354-1.875-3.934-4-8-1.172.161-.844 1.823-1 3-1.633.45-1.633-5.45 0-5-3.552-5.043-4.583-1.986-4-10-1.163-.162-1.779.221-2 1 .744-2.615.925-13.382-3-17-2.934.85 1.301 2.517 0 5-1.559.513-2.139-8.494-5-10-1.357.31-.83 2.504-1 4-1.939-1.395-1.491-5.176-3-7-14.875-10.124-28.405-21.595-30-45-4.809 2.63-4.014-.493-9-2-1.258.247-1.009 1.988 0 2-2.369 1.978-3.972-5.318-8-5 2.048 5.618 5.977 9.357 11 12-9.242-.766-13.059-15.604-20-22 1.703 6.018 4.87 15.508-1 5-2.76-4.941-5.324-16.715-11-19-2.385 2.782 5.525 9.077 3 12-1.073-4.927-4.312-7.688-5-13-1.701-.367-1.887.78-2 2-4.207-2.146-2.379-15.596-7-14-.941-9.393-7.412-13.254-11-20 4.102 2.513-1.86-5.359 0-10-3.977-.344-2.063-1.961-3-6-2.134-.467-1.905 1.429-2 3-1.993-2.152 1.705-8.662-1-12-1.483 1.408-2.15 3.191-2-1-2.134-.467-1.905 1.429-2 3 1.077-3.887-5.706-15.72-8-9-2.474-.859.294-6.961-2-8-.934.732-1.515 1.818-2 3-1.392.972 2.969-8.104-2-10-1.44.56-2.44 1.56-3 3-2.314-1.087 4.888-4.084 1-7-3.544-.211-1.976 4.691-6 4 3.956-3.091 4.231-6.536 2-12-1.744 2.59-4.018 4.648-7 6-1.528-2.574 7.423-3.21 6-9-1.494-3.299-1.178 3.346-4 2 .354-1.313 1.761-1.573 2-3-.111-2.448-3.306-.212-3 1-2.043-3.166 7.499-6.076 3-12-2.036.297-2.664 2.003-4 3-2.623 1.66 2.887-3.03 2-6-7.108-13.197-18.268-22.284-16-47-1.067-.933-.311-3.688-3-3 1.736-3.332-.504-4.436 0-9-1.163-.163-1.779.221-2 1-1.788.297-.062-3.88 2-3-.187-5.046-6.067-14.282-1-18-.705-4.628-3.295-7.372-4-12-2.134-.467-1.905 1.429-2 3-7.193-14-3.617-34.264-9-49 1.303-35.743-5.307-78.747-3-112 1.928-27.79.032-58.309 0-84-.03-24.522 1.834-38.335 0-66-5.164 3.506 1.156-7.315-4-8 2.032-.729 2.865-4.228 1-6-1.23.437-2.054 1.28-2 3 2.236-5.487-1.028-15.888-1-20-1.794-.127-2.109 1.224-4 1 5.109-8.421-.414-22.191-2-30 6.832-1.398 3.356-31.009-1-27-3.076-11.014-6.005-32.462-13-43-8.288-12.487-20.448-22.379-27-34-3.497 2.019-8.328-4.386-12-10-16.609-3.798-23.225-24.175-44-25-5.029-10.687-25.53-16.411-42-23-15.516-6.208-28.828-10.003-43-15-41.912-14.779-78.051-28.363-112-34-9.835-1.633-11.317.171-17 1v-3zM355 58c6.219-.862 9.53-1.238 13-3-1.599 3.734-6.221 4.445-7 9 4.646-.712 7.952-8.016 13-5 .019 1.496-3.715 4.09-1 5 6.919-4.748 9.957-13.376 16-19-.889 2.111-3.044 2.956-3 6 4.396.396 2.611-5.389 6-6 .666 4.041 7.172-1.709 9-3-11.591.979-10.089.771-25 1 1.521 5.349-6.808 7.917-7 12-.311-4.921-3.345-1.325-6-3 .735 4.284-9.839.26-4 4-2.333.856-4.309-3.497-5-1 2.078.56 2.119 1.56 1 3zm222 1291c3.813-.187 8.578.577 9-3-4.63-.63-7.218.782-9 3z" fill-rule="evenodd"/></svg>