<svg xmlns="http://www.w3.org/2000/svg" xmlns:dc="http://dublincore.org/documents/dcmi-terms/" height="969.02" version="1.2" viewBox="0 0 1397.3 969.02" width="1397.3" overflow="inherit"><metadata><dc:description>Silhouette of Gephyrostegus bohemicus, processed by PhyloPic Tools (https://github.com/eweitz/phylopic-tools)</dc:description><dc:source>http://phylopic.org/image/0cf35ef2-3908-47c0-bfe3-6dc8ef336f3f</dc:source><dc:creator>Dmitry Bogdanov (vectorized by T. Michael Keesey)</dc:creator><dc:license>http://creativecommons.org/licenses/by-sa/3.0/</dc:license></metadata><path d="M0 68.02c4.197 8.435 5.714 8.685 4 21 47.47 26.485 111.999 54.511 172 76 25.779 9.232 57.945 15.938 82 26 11.279 4.718 20.499 8.938 30 14 19.884 10.594 39.066 21.366 60 30 16.217.939 23.68 8.394 36 5 3.167.833 4.243 3.757 8 4 28.598-.707 46.969 13.496 72 18 .802 11.95 1.92 23.985 1 35-9.811 11.193-29.089 3.72-45 6 3.182 3.171 12.854 5.12 10 11-12.149-4.58-33.381-2.458-37 8 4.239-3.181 16.439-2.528 20 1-22.306 10.437-65.562.371-77 17 15.921-4.358 33.556 3.31 51-2-14.819 8.876-37.277 8.289-49 17-4.26 3.165-10.721 8.165-13 15 4.437-2.563 9.972-4.028 13-8 2.779.344 3.619 5.263 7 2 15.67-8.664 39.991-8.675 63-10-17.601 9.319-36.007 20.105-46 41 15.262-8.236 32.791-20.958 50-26 18.485-5.416 36.403-6.71 52-14 29.104-13.603 42.523-37.875 64-61 2.018-10.316 9.774-14.893 11-26 69.189 11.681 130.168 41.169 203 40 15.328-.246 33.201-1.569 51 0-4.312 16.349-10.785 30.051-11 48-21.752 9.083-41.613-5.691-61-8-4.081-.486-10.612-.212-16 0-5.632.222-14.369-.275-17 6 16.483 1.896 34.493 3.798 42 14-33.625-1.471-86.858-14.19-111 9 7.731 6.17 19.143-4.385 26 2-3.04-3.803 4.262-3.734 6-4 15.001-2.296 27.813 4.537 40 7 8.535 1.725 17.704-1.816 20 4-16.902 3.099-34.807.159-49 0-19.609-.22-34.989 4.047-53 7-12.737 2.088-26.154 4.008-34 7-5.79 2.208-14.158 6.141-15 14 5.977-2.39 9.522-3.473 16-1 23.762-10.494 54.99-9.907 83-9-8.501 7.26-20.238 5.06-31 8-9.236 2.523-17.479 11.232-28 10-7.716 5.787-18.586 12.14-29 17-10.209 4.765-23.937 8.493-24 21 9.765.328 14.581-8.904 25-5 33.168-23.474 77.73-32.109 134-28-8.478 9.771-24.073 11.895-36 19-9.365 5.579-19.396 13.801-28 20-8.719 6.282-22.169 15.059-17 28 7.571.013 6.757-10.635 10-12 20.527-1.11 31.84-21.519 51-30 10.847-4.801 27.477-7.729 42-11 14.987-3.375 30.173-7.989 44-11 24.695-5.377 52.059-8.961 69-24 4.205-3.733 8.584-10.131 13-15 4.617-5.091 8.164-11.55 12-17 11.027-15.667 23.237-29.341 26-51 22.686 3.154 41.549 21.42 67 27 22.596 4.954 46.1-2.954 65 2 5.244 1.375 12.81 9.427 19 13 2.521 1.455 5.523 1.553 8 3 4.535 2.649 7.314 7.761 12 11 12.814 8.859 26.363 16.746 39 23 18.903 17.43 45.184 27.483 63 46 12.663 4.337 21.218 12.782 30 21 3.159 1.171 4.39-.622 8 1 2.564 2.436 3.672 6.328 6 9 13.104 8.858 24.036 19.992 35 31 11.143 11.188 19.984 24.685 32 35 3.074 8.926 8.012 15.988 16 20-1.236 9.093 5.927 11.488 10 17 10.021 13.559 18.343 32.354 25 47 7.984 17.564 13.402 34.396 21 50-2.618 3.699.656 3.35 1 7 2.027 21.571.354 53.054-3 68-2.529 11.275-5.771 18.153-9 27-25.168 68.961-74.546 118.444-124 155-4.396 3.25-10.015 5.085-14 8-5.075 3.713-8.271 8.466-13 11-9.442 5.061-22.956 4.479-27 14 14.557-6.282 28.871-5.711 44-11 3.902-1.364 7.023-5.069 11-7 33.97-16.496 64.741-38.23 88-65 13.286-15.292 28.286-25.836 32-40 9.15-13.021 21.084-27.289 30-44 7.047-13.207 10.48-29.921 18-40 5.466-29.549 17.33-62.362 15-94-.406-5.515-3.268-10.842-4-17-2.234-18.794-3.861-36.477-11-54-9.835-24.146-22.169-47.836-32-69-16.301-35.092-36.09-69.349-56-99-6.562-9.773-14.055-21.422-21-29-.977-1.066-1.46.436-2 0-11.714-9.459-20.15-26.51-30-38-18.908-22.057-38.023-42.209-58-62-10.271-10.176-18.673-22.315-29-32-5.287-4.958-11.778-7.943-17-13-25.866-25.049-52.218-48.134-79-71-10.828-9.245-22.816-17.232-34-26-5.268-30.497-19.674-80.969-56-79-9.954.54-13.614 6.585-19 12-2.866 2.882-7.491 3.626-9 6-1.887 2.968.105 6.956-3 9-72.516-37.166-157.454-66.515-258-69-63.721-1.575-159.337 7.709-229-2-11.724-1.634-23.02-1.569-34-3-13.122-1.709-26.544-8.312-41-11-31.151-5.791-61.184-8.079-90-14-14.875-3.057-31.64-6.688-46-7-15.695-.34-34.213 3.819-51 6-23.234 3.019-45.488 6.384-64 10-4.402.86-10.39.088-14 4-3.542-.458-5.775-2.225-10-2-41.312 10.324-83.366 13.866-100 49v1z" fill-rule="evenodd"/></svg>