<svg xmlns="http://www.w3.org/2000/svg" xmlns:dc="http://dublincore.org/documents/dcmi-terms/" height="489.471" version="1.2" viewBox="0 0 952.14 489.471" width="952.14" overflow="inherit"><metadata><dc:description>Silhouette of Gigantactinidae, processed by PhyloPic Tools (https://github.com/eweitz/phylopic-tools)</dc:description><dc:source>http://phylopic.org/image/36705b93-8585-44bd-add8-988deb45a634</dc:source><dc:creator>Theodore W. Pietsch (photography) and T. Michael Keesey (vectorization)</dc:creator><dc:license>http://creativecommons.org/licenses/by/3.0/</dc:license></metadata><path d="M399.058 0h24c63.29.577 124.727 13.499 167 44 15.406 11.116 27.888 28.943 41 45 20.153 24.678 24.824 51.061 23 94 14.029 3.152 29.095 5.062 44 4 7.624-.543 15.07-3.958 23-4 8.533-.045 16.249 1.985 24 2 24.244.045 51.868-1.769 76-8 4.628-1.195 8.408-4.034 13-5 18.131-3.814 40.457-2.936 59 0 5.584.884 15.706 1.423 18 9-33.297-11.506-84.769-4.861-111 11 52.58-7.826 108.175-.218 149 15-20.561.417-42.452-8.828-63-11-15.323-1.62-30.471.907-45 2-14.731 1.108-29.923.108-43 6 32.331-3.154 89.336-11.265 102 14-15.043-16.444-52.212-11.844-82-8-16.907 2.182-34.368 1.43-43 9 29.502 7.165 68.01 5.324 93 17-31.598 2.136-64.338-8.12-100-4 4.892 6.679 15.074 7.835 23 10 23.738 6.485 52.636 12.325 73 24-35.691-2.572-66.255-14.717-96-20 4.354 7.318 13.752 9.716 21 13 7.313 3.314 15.373 8.577 24 11 18.037 5.065 38.906-.602 58 4 23.516 5.667 56.412 25.725 68 44 13.172 20.774 20.394 56.537 2 79-3.738 4.565-21.182 23.63-29 24-8.673.41-16.694-10.194-28-10 13.567-1.567 19.741 4.259 29 7 15.075-14.176 34.537-25.437 36-52 3.154-57.28-56.507-91.019-115-87 21.975 5.026 44.122 15.209 57 26-19.666-8.611-39.975-14.393-63-22-5.833-1.927-11.479-5.615-17-7-14.644-3.673-30.274-.796-44-8 5.566 6.027 14.457 6.739 22 10 19.981 8.638 42.17 21.934 67 26 8.493 1.391 18.356-.504 25 4-40.791 4.648-80.116-17.496-114-28-14.461-4.482-29.031-5.797-43-10-12.707-3.823-22.861-14.025-35-18-12.825-4.199-26.603-3.274-39-6-2.433 21.324-20.844 37.481-36 49-25.707 19.537-54.512 32.432-86 46-23.345 10.06-50.35 18.879-61 40-12.232 24.256-13.783 62.504 3 83 10.903 13.315 46.945 24.48 74 21 8.934-1.149 13.159-5.873 25-4 25.615-11.318 41.332-31.984 57-54 14.517-20.398 20.285-45.608 40-61 1.468-4.588-1.374-9.964 3-13 3.46.207-.091 7.424 4 7 2.588-1.079-.962-8.296 4-7 2.934.85-1.301 2.517 0 5 5.325.325 2.142-7.858 8-7-4.139 10.253.58 22.291 3 31-5.317-7.574-8.995-2.825-16-1-5.247 1.367-8.155-.407-11 1-7.853 3.885-13.26 18.584-18 27-5.72 10.156-10.595 21.115-16 28-4.384 5.584-11.176 10.116-16 16-5.387 6.569-9.125 13.926-14 18-28.804 24.067-104.542 26.185-130-3-21.081-24.166-17.62-76.449 2-99 9.304-10.693 28.033-18.933 44-26 38.945-17.238 82.151-33.587 112-63 10.598-10.442 19.479-16.057 20-35-22.969-2.287-45.062-2.788-65-2-3.432 2.295 5.222 3.215 2 5-11.963 4.551-32.751-8.539-41 2 6.92 7.08 24.861 3.139 32 10-14.19 2.788-29.7-4.033-43-2 7.469 7.864 23.908 6.758 35 11-13.771 5.26-29.016-3.948-45-3 6.558 8.775 24.737 5.929 33 13-13.256 3.511-27.277-5.995-39-4 10.962 5.038 26.812 5.188 37 11-15.476 4.308-33.619-7.519-45-4 14.171 4.13 34.725 6.194 46 10-19.375 4.482-40.871-5.808-62-7-8.496-.479-16.708 2.113-24-2-5 7.256-15.141 8.193-23 3-1.021 7.678 6.363 7.476 7 16 .363 4.854-3.066 16.692-5 25-3.979 17.09-17.723 29.018-26 39-26.972 7.762-43.902 25.677-75 31-4.183.716-8.062-.303-12 1-5.146 1.703-8.899 7.062-14 9-4.924 1.871-11.396 3.007-17 5-10.057 3.577-20.802 7.579-37 5-4.544-.724-8.718-4.055-13-5-6-1.324-11.904-.272-18-1-13.354-1.594-24.801-8.222-38-14-12.472-5.46-26.229-9.295-36-15-6.004-3.506-9.657-10.09-16-13-5.664-2.599-12.822-2.624-19-5-13.817-5.313-32.341-16.759-47-22-9.993-3.573-18.175-2.469-23-8-7.223-8.28-8.218-23.19-9-34 3.22-4.78 10.959-5.041 13-11 1.387 8.525 5.4-.236 10 0 1.169 2.615-3.085 4.302 1 4 12.989-4.012 24.386-9.614 36-15-6.222-7.444-14.769-12.564-27-14-6.729-5.292-14.562-10.316-23-15-7.273-4.038-16.129-10.85-24-13-7.75-2.117-16.717.348-25-4-3.018-6.649-6.556-12.777-6-23 64.098-47.854 118.974-107.312 197-143 22.194-10.151 43.889-25.79 68-34 14.761-5.026 31.311-5.306 47-10 10.968-3.281 20.851-10.515 33-14 16.364-4.694 33.594-6.439 54-8zm236 104c-10.528-17.75-28.286-28.615-38-46-31.234-22.514-69.433-42.301-117-47-27.487-2.715-63.775-5.631-90-2-7.777 1.077-15.661-.125-23 1-20.745 3.179-36.238 12.475-53 17-5.043 1.361-10.551.896-16 2-30.029 6.083-54.263 23.738-82 35-15.281 6.205-28.367 16.938-42 24-8.844 4.582-18.837 7.183-27 13-10.792 7.69-19.107 18.911-30 27-32.519 24.148-61.938 55.715-92 79 19.641-5.728 34.045-21.935 49-29 8.41-3.973 17.79-3.188 30-6 10.514-2.421 22.025-9.375 33-14 14.776-6.226 32.202-12.016 45-15 10.779-2.514 23.561.087 37-1 6.984-.565 16.861-4.638 27-6 19.573-2.63 42.284-5.731 55-10 11.144-3.741 25.991-17.943 40-8 23.285-9.992 54.554-4.394 82-7 9.16-.87 15.041.697 24 2 32.243 4.691 64.988 1.284 96 9-16.017 2.317-34.693 1.973-49 6 16.312 2.264 39.57-2.391 56 0-11.748 4.918-30.919 2.414-42 8 11.576 6.078 38.15-6.354 48 5-10.136-1.833-24.732-.287-33 3 14.467 3.642 33.648-4.559 49 1-8.462 4.538-25.67.33-32 7 8.515 7.818 33.399-.733 41 8-5.376.624-13.625-1.625-16 2 30.479 3.854 54.77 13.897 84 19-1.647-31.805-2.256-57.202-14-77zm-140 17c-5.017.65-12.644-1.311-16 1 5.017-.65 12.644 1.311 16-1z" fill-rule="evenodd"/></svg>