<svg xmlns="http://www.w3.org/2000/svg" xmlns:dc="http://dublincore.org/documents/dcmi-terms/" height="1755.5" version="1.2" viewBox="0 0 940.546 1755.5" width="940.546"><metadata><dc:description>Silhouette of Giraffa, processed by PhyloPic Tools (https://github.com/eweitz/phylopic-tools)</dc:description><dc:source>http://phylopic.org/image/75d59e42-a606-4f26-b648-46d1098d99fa</dc:source><dc:creator>Cathy</dc:creator><dc:license>http://creativecommons.org/licenses/by-nc-sa/3.0/</dc:license></metadata><path d="M.25.25v1755h940V3.25c.09-1.42.17-2.83-1-3H.25zm20 202c-5.85-10.06-19.37-15.02-19-27 .36-11.46 15.05-18.85 14-33 6.79-5.88 11.7-13.63 16-22-1.94-5.72-6.78-8.56-9-14 .73-29.61 40.3-29.44 45-58 2.03-12.33-1.72-28.09 3-43 7.02-5.39 26.01-7.5 29 2 1.97 6.25-4.71 16.9-3 26 1.5 8 5.88 12.19 16 12 9.05-7.95 6.4-27.6 14-37 7.2 1.8 14.15 3.85 19 8-1.13 18.85-6.63 30.92-4 49 4 4.75 8.43 11.17 14 15 4.17 2.87 11.29 7.71 16 8 5.74.35 9.59-5.95 18-9 2.97-1.08 6.71.05 9-1 5.53-2.55 8.61-8.01 15-9 11.69-1.81 20.95 2.24 33 7-10.95 13.39-24.89 23.78-39 34-10.32 3.1-31.09.87-31 14 .05 7.56 13.29 19.39 20 27 8.16 9.25 18.15 17.56 23 24 1.62 2.15 1.9 6.7 3 8 2.81 3.29 7.96 5.76 11 9 9.82 10.47 19.39 22.54 30 30 6.69 13.97 14.65 26.68 26 36 2.93 10.16 11.63 16.52 17 25 9.33 14.73 16.62 30.43 26 43v11c8.61 12.46 19.19 27.14 25 41 2.22 5.29 1.46 11.53 4 17 1.19 2.56 4.69 4.17 6 7 2.68 5.78 4.04 13.34 7 20 5.25 11.79 6.38 18.52 9 32 4.68 24.04 21.21 44.79 25 68 9.85 7.48 18.32 16.34 19 33 16.89 20.44 26.09 48.57 51 61-.94 5.61 2.55 6.78 3 11 11.6 9.07 22.33 19 31 31 1.31 2.36.42 6.91 2 9 16.13 15.5 24.38 35.65 40 47 4.22 3.06 13.28 8.62 17 10 6.67 2.48 14.33 2.04 21 5 6.88 3.06 11.12 6.84 18 9 6.56 2.06 14.06 4.83 21 6 14.94 2.51 29.74.05 46 2 16.01 1.92 38.67 11.06 53 14 4.46.92 9.5.06 14 1 8.69 1.82 23.83 7.99 31 10 3.48.98 7.6.09 10 1 12.06 4.55 20.05 18.33 32 26 9.47 6.08 10.13 4.98 18 14 14.82 16.98 24.04 35.08 38 51 10.72 12.22 19.98 22.9 28 38 4.01 7.54 9.84 14.35 12 20 5.98 15.69 6.09 30.95 8 49 .73 6.96 4.62 13.27 5 19 .49 7.27-2.66 14.63-3 22-.55 11.71-.98 20.54-2 32-1.99 22.3-.1 47.53-2 69-1.39 15.72-3.45 33.31-2 48 1.01 10.24 5.28 13.22 8 20 1.66 4.13.86 10.53 3 16 4.08 10.42 10.07 19.39 11 28 1.09 10.12-3.35 16.96-4 25-.35 4.37 1.69 8.7 1 13-.47 2.91-3.31 6.04-4 10-.7 4.06.51 10.54 0 16-.58 6.23-3.27 12.05-3 16 .28 4.01 2.73 5.85 3 11 .51 9.51-5.27 16.83-6 26-.38 4.76 1.94 10.03 2 15 .22 18.71-13.02 37.22-11 58 1.09 11.23 2.05 20.05 2 32-2.15.44-3.32-8.65-11-6-4.03 2.3-2.94 9.73-3 16-2.13 5.2-6.77 7.9-6 16-5.84-.98-8.55 6.62-12 11-6.48-7.66-1.16-17.91-3-28-1.03-5.65-6.39-8.89-8-15-.98-3.73.92-10.15 0-15-.76-4-2.8-6.56-3-10-.45-7.59 3.12-13.44 4-21 1.68-14.51-1.38-29.99-2-45-9.73 8.49-10.96 19.89-15 33-1.22 3.96-4.28 8.22-5 12-1.06 5.62.88 12.93 0 20-1.97 15.92-8.53 33.17-6 48-1.11 3.56-3.48 5.86-5 9-1.83 35.24-6.92 72.39-10 113-1.97 26 4.38 47.1 5 67 .72 22.98-5.14 51.11-25 52-7.52 16.8 2.19 32.68 2 47-19.35 6.6-43.26 1.88-63-1-6.85-1-14.68 1.57-19-4-4.19-13.53 9.69-19.56 10-31 .14-5.28-3.89-6.64-4-13-.21-12.04 12.23-17.46 16-26 1.56-3.53 1.39-8.29 3-12 1.74-4.02 5.74-7.2 7-11 2.03-6.13 1.51-14.71 5-22 2.74-5.72 7.39-9.33 9-15 2.53-8.91 3.96-22.55 5-35 1.71-20.52 2.9-43.16 4-59 .31-4.5 2.66-8.33 3-13 .61-8.35-1.61-16.59-1-25 .61-8.37 3.57-16.45 5-25 3.98-23.77.73-39.66 0-56-.73-16.48-10.4-34.27-10-48 .1-3.6 2.24-6.65 2-10-.64-9.11-5.95-12.33-9-19-5.41-11.85-8.91-28.84-17-36-3.1-12.57-10.48-20.86-11-36-16.98-45.36-35.09-89.58-49-138-6.02-6.98-8.17-17.83-18-21-11.63 5.39-20.13 20.39-34 25-3.35 1.11-7.4.17-12 1-6.95 1.25-15 5.07-22 6-42.94 5.71-81.33-6.43-112-11-4.13-3.32-10.16-6.68-16-3-3.06 7.67 3.65 12.7 5 18 3.03 11.92 2.95 27.38 4 40 1.62 19.5-.89 39.31 0 58 .59 12.36 3.96 25.71 5 39 2.21 28.18 4.87 56.58 14 78-1.33 12.23-5 23.11-6 34-1.92 20.98 4.85 36.55 8 51 1.34 6.17 1.68 12.79 3 19 3.56 16.77 11.2 33.17 9 46 11.04 30.4 13.89 75.44 32 104-5.12 11.64-5.63 22.28 1 32 2.23 3.26 6.91 4.21 9 7 5.59 7.45 6.5 18.14 3 24-9.69 3.98-14.94 12.4-24 17-11-5.57-48.03 4.58-52-12-2.96-12.35 11.43-24.8 13-34 2.45-14.32-5.96-32.2-3-47 .6-2.99 2.89-6.4 3-9 .74-17.31-10.74-40.69-13-63-.41-4.04.77-7.98 0-12-1.51-7.92-7.2-16.89-9-26-5.62-28.4-5.01-60.1-19-80-3.54-5.04-11.25-8.22-14-12-7.63-10.48-6.26-27.19-8-44-1.05-10.14-4.74-19.8-5-28-.17-5.36 1.73-9.2 1-14-.73-4.83-3.73-9.7-5-15-5.65-23.59-7.59-51.93-23-63-13.83 9.09-5.43 26.48-4 41 2.35 23.78.56 52.05-1 76-.37 5.61 1.54 11.7 1 17-.46 4.51-3.76 8.8-4 13-.2 3.62 1.96 7.29 2 11 .13 11.44-4.42 23.08-6 32-4.33 24.42 0 50.88 0 77 0 34.18-2.27 68.69 0 102 .95 13.98 5.92 27.68 3 44-3.68 4.38-9.96 7.19-14 13-4.83 6.94-11.59 18.98-11 27 .7 9.52 11.58 14.4 9 26-5.22 1.61-11.54 6.8-17 8-10.57 2.32-22.11-2-36-3-8.51-.61-26.63 1.77-29-5-1.55-4.42 9.62-24.08 11-26 1.67-2.31 6.24-3.97 9-7 5.46-5.98 6.43-11.82 13-14 4.79-9.21 8.67-19.33 14-28 3.3-18.16 4.94-32.16 8-45-3.36-8.8-2.77-25.35 1-33-.28-5.39-3.93-10.21-4-17-.04-3.84 2.42-5.03 3-9 .17-1.18-2.08-3.53-2-5 2.29-39.46-.56-90.2-2-129-10.28-8.39-8.38-28.95-13-43 9.28-34.66-3.88-66.67-2-96-7.46-8.12-3.47-20.09-5-30-.35-2.29-2.46-4.23-3-7-4-20.67-10.97-33.16-12-52-11.27-17.06-14.8-41.87-25-60 2.93-17.3-7.31-36.13-5-50-7.02-10.31-10.15-24.52-13-39-9.35-7.72-14.53-18.15-18-33-1.67-7.13-5.26-15.51-6-22-.68-5.96 1.68-12.06 1-18-1.19-10.35-8.72-20.27-5-32 6.56-9.37 10.47-23.26 17-36 1.84-3.59 5.52-6.04 7-10 1-2.67.6-7.2 2-11 1.66-4.51 4.99-7.99 6-12 2.14-8.51-.54-12.19-2-18-3.54-14.08-5.29-26.15-6-38-5.25-9.99-8.27-23.17-12-37-7.87-3.74-7.75-12.91-11-20-1.89-4.13-6.16-7.39-8-12-1.86-4.66-1.93-10.64-4-16-3.63-9.39-10.71-17.48-13-26-4.34-16.18-4.87-26.85-7-42-1.69-11.98-5.84-24.29-7-36-2.71-27.47.18-57.34-3-88-4.05-39.11-9.4-76.11-15-112-7.62-8.77-5.06-20.09-8-31-3.32-12.32-14.21-23.96-14-38-20.47-35.53-33.85-78.15-59-109-9.76-3.55-12.13-10.04-21-12-4.05-.9-8.8.53-14 0-7.48-.76-14.63-3.64-21-3-12.8 1.29-26.74 13.29-42 5z" fill="#fff"/><path d="M1.25 175.25c-.37 11.98 13.15 16.94 19 27 15.26 8.29 29.2-3.71 42-5 6.37-.64 13.52 2.24 21 3 5.2.53 9.95-.9 14 0 8.87 1.96 11.24 8.45 21 12 25.15 30.85 38.53 73.47 59 109-.21 14.04 10.68 25.68 14 38 2.94 10.91.38 22.23 8 31 5.6 35.89 10.95 72.89 15 112 3.18 30.66.29 60.53 3 88 1.16 11.71 5.31 24.02 7 36 2.13 15.15 2.66 25.82 7 42 2.29 8.52 9.37 16.61 13 26 2.07 5.36 2.14 11.34 4 16 1.84 4.61 6.11 7.87 8 12 3.25 7.09 3.13 16.26 11 20 3.73 13.83 6.75 27.01 12 37 .71 11.85 2.46 23.92 6 38 1.46 5.81 4.14 9.49 2 18-1.01 4.01-4.34 7.49-6 12-1.4 3.8-1 8.33-2 11-1.48 3.96-5.16 6.41-7 10-6.53 12.74-10.44 26.63-17 36-3.72 11.73 3.81 21.65 5 32 .68 5.94-1.68 12.04-1 18 .74 6.49 4.33 14.87 6 22 3.47 14.85 8.65 25.28 18 33 2.85 14.48 5.98 28.69 13 39-2.31 13.87 7.93 32.7 5 50 10.2 18.13 13.73 42.94 25 60 1.03 18.84 8 31.33 12 52 .54 2.77 2.65 4.71 3 7 1.53 9.91-2.46 21.88 5 30-1.88 29.33 11.28 61.34 2 96 4.62 14.05 2.72 34.61 13 43 1.44 38.8 4.29 89.54 2 129-.08 1.47 2.17 3.82 2 5-.58 3.97-3.04 5.16-3 9 .07 6.79 3.72 11.61 4 17-3.77 7.65-4.36 24.2-1 33-3.06 12.84-4.7 26.84-8 45-5.33 8.67-9.21 18.79-14 28-6.57 2.18-7.54 8.02-13 14-2.76 3.03-7.33 4.69-9 7-1.38 1.92-12.55 21.58-11 26 2.37 6.77 20.49 4.39 29 5 13.89 1 25.43 5.32 36 3 5.46-1.2 11.78-6.39 17-8 2.58-11.6-8.3-16.48-9-26-.59-8.02 6.17-20.06 11-27 4.04-5.81 10.32-8.62 14-13 2.92-16.32-2.05-30.02-3-44-2.27-33.31 0-67.82 0-102 0-26.12-4.33-52.58 0-77 1.58-8.92 6.13-20.56 6-32-.04-3.71-2.2-7.38-2-11 .24-4.2 3.54-8.49 4-13 .54-5.3-1.37-11.39-1-17 1.56-23.95 3.35-52.22 1-76-1.43-14.52-9.83-31.91 4-41 15.41 11.07 17.35 39.41 23 63 1.27 5.3 4.27 10.17 5 15 .73 4.8-1.17 8.64-1 14 .26 8.2 3.95 17.86 5 28 1.74 16.81.37 33.52 8 44 2.75 3.78 10.46 6.96 14 12 13.99 19.9 13.38 51.6 19 80 1.8 9.11 7.49 18.08 9 26 .77 4.02-.41 7.96 0 12 2.26 22.31 13.74 45.69 13 63-.11 2.6-2.4 6.01-3 9-2.96 14.8 5.45 32.68 3 47-1.57 9.2-15.96 21.65-13 34 3.97 16.58 41 6.43 52 12 9.06-4.6 14.31-13.02 24-17 3.5-5.86 2.59-16.55-3-24-2.09-2.79-6.77-3.74-9-7-6.63-9.72-6.12-20.36-1-32-18.11-28.56-20.96-73.6-32-104 2.2-12.83-5.44-29.23-9-46-1.32-6.21-1.66-12.83-3-19-3.15-14.45-9.92-30.02-8-51 1-10.89 4.67-21.77 6-34-9.13-21.42-11.79-49.82-14-78-1.04-13.29-4.41-26.64-5-39-.89-18.69 1.62-38.5 0-58-1.05-12.62-.97-28.08-4-40-1.35-5.3-8.06-10.33-5-18 5.84-3.68 11.87-.32 16 3 30.67 4.57 69.06 16.71 112 11 7-.93 15.05-4.75 22-6 4.6-.83 8.65.11 12-1 13.87-4.61 22.37-19.61 34-25 9.83 3.17 11.98 14.02 18 21 13.91 48.42 32.02 92.64 49 138 .52 15.14 7.9 23.43 11 36 8.09 7.16 11.59 24.15 17 36 3.05 6.67 8.36 9.89 9 19 .24 3.35-1.9 6.4-2 10-.4 13.73 9.27 31.52 10 48 .73 16.34 3.98 32.23 0 56-1.43 8.55-4.39 16.63-5 25-.61 8.41 1.61 16.65 1 25-.34 4.67-2.69 8.5-3 13-1.1 15.84-2.29 38.48-4 59-1.04 12.45-2.47 26.09-5 35-1.61 5.67-6.26 9.28-9 15-3.49 7.29-2.97 15.87-5 22-1.26 3.8-5.26 6.98-7 11-1.61 3.71-1.44 8.47-3 12-3.77 8.54-16.21 13.96-16 26 .11 6.36 4.14 7.72 4 13-.31 11.44-14.19 17.47-10 31 4.32 5.57 12.15 3 19 4 19.74 2.88 43.65 7.6 63 1 .19-14.32-9.52-30.2-2-47 19.86-.89 25.72-29.02 25-52-.62-19.9-6.97-41-5-67 3.08-40.61 8.17-77.76 10-113 1.52-3.14 3.89-5.44 5-9-2.53-14.83 4.03-32.08 6-48 .88-7.07-1.06-14.38 0-20 .72-3.78 3.78-8.04 5-12 4.04-13.11 5.27-24.51 15-33 .62 15.01 3.68 30.49 2 45-.88 7.56-4.45 13.41-4 21 .2 3.44 2.24 6 3 10 .92 4.85-.98 11.27 0 15 1.61 6.11 6.97 9.35 8 15 1.84 10.09-3.48 20.34 3 28 3.45-4.38 6.16-11.98 12-11-.77-8.1 3.87-10.8 6-16 .06-6.27-1.03-13.7 3-16 7.68-2.65 8.85 6.44 11 6 .05-11.95-.91-20.77-2-32-2.02-20.78 11.22-39.29 11-58-.06-4.97-2.38-10.24-2-15 .73-9.17 6.51-16.49 6-26-.27-5.15-2.72-6.99-3-11-.27-3.95 2.42-9.77 3-16 .51-5.46-.7-11.94 0-16 .69-3.96 3.53-7.09 4-10 .69-4.3-1.35-8.63-1-13 .65-8.04 5.09-14.88 4-25-.93-8.61-6.92-17.58-11-28-2.14-5.47-1.34-11.87-3-16-2.72-6.78-6.99-9.76-8-20-1.45-14.69.61-32.28 2-48 1.9-21.47.01-46.7 2-69 1.02-11.46 1.45-20.29 2-32 .34-7.37 3.49-14.73 3-22-.38-5.73-4.27-12.04-5-19-1.91-18.05-2.02-33.31-8-49-2.16-5.65-7.99-12.46-12-20-8.02-15.1-17.28-25.78-28-38-13.96-15.92-23.18-34.02-38-51-7.87-9.02-8.53-7.92-18-14-11.95-7.67-19.94-21.45-32-26-2.4-.91-6.52-.02-10-1-7.17-2.01-22.31-8.18-31-10-4.5-.94-9.54-.08-14-1-14.33-2.94-36.99-12.08-53-14-16.26-1.95-31.06.51-46-2-6.94-1.17-14.44-3.94-21-6-6.88-2.16-11.12-5.94-18-9-6.67-2.96-14.33-2.52-21-5-3.72-1.38-12.78-6.94-17-10-15.62-11.35-23.87-31.5-40-47-1.58-2.09-.69-6.64-2-9-8.67-12-19.4-21.93-31-31-.45-4.22-3.94-5.39-3-11-24.91-12.43-34.11-40.56-51-61-.68-16.66-9.15-25.52-19-33-3.79-23.21-20.32-43.96-25-68-2.62-13.48-3.75-20.21-9-32-2.96-6.66-4.32-14.22-7-20-1.31-2.83-4.81-4.44-6-7-2.54-5.47-1.78-11.71-4-17-5.81-13.86-16.39-28.54-25-41v-11c-9.38-12.57-16.67-28.27-26-43-5.37-8.48-14.07-14.84-17-25-11.35-9.32-19.31-22.03-26-36-10.61-7.46-20.18-19.53-30-30-3.04-3.24-8.19-5.71-11-9-1.1-1.3-1.38-5.85-3-8-4.85-6.44-14.84-14.75-23-24-6.71-7.61-19.95-19.44-20-27-.09-13.13 20.68-10.9 31-14 14.11-10.22 28.05-20.61 39-34-12.05-4.76-21.31-8.81-33-7-6.39.99-9.47 6.45-15 9-2.29 1.05-6.03-.08-9 1-8.41 3.05-12.26 9.35-18 9-4.71-.29-11.83-5.13-16-8-5.57-3.83-10-10.25-14-15-2.63-18.08 2.87-30.15 4-49-4.85-4.15-11.8-6.2-19-8-7.6 9.4-4.95 29.05-14 37-10.12.19-14.5-4-16-12-1.71-9.1 4.97-19.75 3-26-2.99-9.5-21.98-7.39-29-2-4.72 14.91-.97 30.67-3 43-4.7 28.56-44.27 28.39-45 58 2.22 5.44 7.06 8.28 9 14-4.3 8.37-9.21 16.12-16 22 1.05 14.15-13.64 21.54-14 33zm861 1123c-3.74-17.19-12.29-33.36-10-53 6.49-55.58 24.85-108.2 37-158 4.58-3.06 9.87.43 12 3-3.5 22.17 2.62 42.96 0 62-1.63 11.85-8.82 21.96-12 32-6.35 20.05-1.67 37.75-3 59-.61 9.78-8.48 16.48-10 26-3.17 19.8 5.66 38.58 1 60-4.38-4.67-4.88-12.96-7-22-2.77-2.9-5.06-6.27-8-9z"/><path d="M852.25 1245.25c-2.29 19.64 6.26 35.81 10 53 2.94 2.73 5.23 6.1 8 9 2.12 9.04 2.62 17.33 7 22 4.66-21.42-4.17-40.2-1-60 1.52-9.52 9.39-16.22 10-26 1.33-21.25-3.35-38.95 3-59 3.18-10.04 10.37-20.15 12-32 2.62-19.04-3.5-39.83 0-62-2.13-2.57-7.42-6.06-12-3-12.15 49.8-30.51 102.42-37 158z" fill="#fff"/></svg>