<svg xmlns="http://www.w3.org/2000/svg" width="482.08" height="355.739" viewBox="0 0 451.94997 333.50572"><g transform="translate(-132.847 -326.848)" stroke="#000"><ellipse cx="593.316" cy="265.564" rx="167.899" ry="102.142" transform="matrix(.85257 .52262 -.53035 .84778 0 0)" fill="none" stroke-width="3"/><ellipse cx="567.198" cy="-5.502" rx="57.211" ry="33.575" transform="matrix(.5572 .83038 -.84865 .52896 0 0)" stroke-width="4.854"/><ellipse cx="594.597" cy="193.049" rx="61.084" ry="35.2" transform="matrix(.72388 .68992 -.63857 .76956 0 0)" stroke-width="5.135"/><ellipse cx="663.842" cy="122.688" rx="55.32" ry="38.35" transform="matrix(.77091 .63694 -.74096 .67155 0 0)" stroke-width="4.522"/><ellipse cx="422.857" cy="588.791" rx="55.947" ry="33.804" stroke-width="4.535"/><path d="M472.857 622.362c98.572-2.857 145.47-65.816 86.898-135.816-46.38-43.125-157.054-65.257-140.317-113.03M465.143 628.934c-49.12 51.696-98.203-30.426-144.286-2.858-36.708 24.162-41.428 35.715-92.857 7.143-60.06-33.366-58.094-66.563-58.094-66.563" fill="none" stroke-width="5"/><ellipse cx="383.512" cy="439.168" rx="10.55" ry="14.838" transform="matrix(.99617 .08747 -.30473 .95244 0 0)" fill="none" stroke-width="2.025"/><ellipse cx="232.857" cy="483.612" rx="13.214" ry="9.821" fill="none" stroke-width="2"/><circle cx="228.393" cy="464.327" r="8.393" fill="none" stroke-width="2"/><ellipse cx="426.331" cy="325.256" rx="7.143" ry="14.464" transform="rotate(24.048)" fill="none" stroke-width="2"/><ellipse cx="254.821" cy="430.219" rx="6.964" ry="6.071" fill="none" stroke-width="2"/><ellipse cx="267.143" cy="449.505" rx="5.357" ry="6.429" fill="none" stroke-width="2"/><ellipse cx="455.251" cy="316.249" rx="6.607" ry="10.536" transform="rotate(30.516)" fill="none" stroke-width="2"/></g></svg>