<svg xmlns="http://www.w3.org/2000/svg" xmlns:dc="http://dublincore.org/documents/dcmi-terms/" height="792" version="1.2" viewBox="0 0 612 792" width="612"><metadata><dc:description>Silhouette of Globicephala macrorhynchus, processed by PhyloPic Tools (https://github.com/eweitz/phylopic-tools)</dc:description><dc:source>http://phylopic.org/image/671a8126-83a4-4b11-83aa-56b1c18970ef</dc:source><dc:creator>Chris huh</dc:creator><dc:license>http://creativecommons.org/licenses/by-sa/3.0/</dc:license></metadata><path d="M321 356.15c.199-.167.433-.283.699-.35.301-.1.65-.167 1.051-.2a3.646 3.646 0 0 1 1.05-.05l2 .1c.6.033 1.25.117 1.95.25.699.1 1.433.25 2.199.45.801.167 1.634.367 2.5.6.9.2 1.834.433 2.801.7.967.267 1.967.567 3 .9l10.449 3.5c1.768.667 3.551 1.284 5.351 1.85 1.8.533 3.616 1.033 5.45 1.5 1.866.467 3.767.9 5.699 1.3 1.967.367 3.95.7 5.95 1 1.367.2 2.75.383 4.15.55 1.433.133 2.899.283 4.399.45 1.5.133 3.033.25 4.601.35 1.566.067 3.166.15 4.8.25 1.7.067 3.417.117 5.15.15l5.399.1 14.4.4c.5.033.934.1 1.3.2.4.033.75.1 1.05.2l.9.3c.366.133.717.283 1.05.45.333.167.667.367 1 .6.366.2.7.433 1 .7.333.233.634.483.9.75.3.267.583.567.85.9.3.3.566.617.8.95.233.3.45.633.65 1 .233.367.434.733.6 1.1.167.3.3.767.4 1.4l.649 4.7.101 4.9-.101.95c0 .3-.033.55-.1.75-.066.333-.15.6-.25.8a.798.798 0 0 1-.35.45c-.134.067-.334.1-.601.1h-.05a24.646 24.646 0 0 0-1.05-.1l-1.65-.25 1.4.5c.899.333 1.434.733 1.6 1.2.2.467.017 1.05-.55 1.75a8.59 8.59 0 0 1-1.1 1.1c-.467.367-1.034.783-1.7 1.25-.634.433-1.384.917-2.25 1.45a57.225 57.225 0 0 1-2.851 1.7l-26.199 12.2-2.5 3.95a23.6 23.6 0 0 1-1.351 2 39.915 39.915 0 0 1-1.5 2 46.724 46.724 0 0 1-1.649 1.949 97.536 97.536 0 0 1-1.7 1.851 81.325 81.325 0 0 1-1.7 1.649 21.48 21.48 0 0 1-1.7 1.45c-.566.434-1.116.833-1.649 1.2-.5.334-1 .633-1.5.9L362.8 434.3c-.667.267-1.267.517-1.8.75-.533.2-1.033.384-1.5.55a13.23 13.23 0 0 1-1.25.301c-.434.1-.801.149-1.101.149-.2 0-.383-.017-.55-.05-.4-.133-.65-.367-.75-.7v-.1l.15-.351c.166-.199.366-.467.6-.8l9.8-10.1c.567-.567 1-1.017 1.3-1.351l.2-.3.2-.2-.4.051-12.75 3.8-.949.2c-2.601.533-5.2 1.033-7.801 1.5-2.566.5-5.116.967-7.649 1.399-2.567.4-5.101.8-7.601 1.2-2.5.367-5 .7-7.5 1a266.29 266.29 0 0 1-7.449.9c-2.467.232-4.917.467-7.351.699l-46.8.9-31.4-.4c-1.3-.166-2.55-.333-3.75-.5a235.97 235.97 0 0 1-3.55-.6c-1.1-.2-2.167-.434-3.2-.7a178.758 178.758 0 0 1-3-.8c-.933-.3-1.833-.617-2.699-.95a61.12 61.12 0 0 1-2.45-1 47.442 47.442 0 0 1-2.25-1.149 51.93 51.93 0 0 1-2-1.301l-2.5-1.75-10.15 4.9c-.533.166-.967.3-1.3.4l-2.8.5-2.55.05a6.822 6.822 0 0 1-1.301-.2 3.912 3.912 0 0 1-.899-.35c-.2-.167-.3-.351-.3-.551v-.05l.05-.149.2-.25c.166-.234.383-.518.649-.851l2.2-2.6c.5-.601.967-1.167 1.4-1.7a14.91 14.91 0 0 0 1.199-1.55c.334-.5.634-.983.9-1.45.3-.467.55-.916.75-1.35.2-.434.367-.867.5-1.301.133-.434.217-.866.25-1.3.1-.433.15-.85.15-1.25 0-.466-.033-.917-.101-1.35l-.3-2.75.05-.05h2.2c.434 0 .9.033 1.4.1l2.5.45 4.449 1.399c.567.234 1.101.467 1.601.7.467.233.85.417 1.149.55.233.066.45.101.65.101l.4-.05c.366-.066.833-.217 1.399-.45l21.2-11c.566-.267 1.117-.5 1.65-.7.566-.233 1.133-.45 1.699-.65a35.314 35.314 0 0 1 1.7-.55c.567-.167 1.15-.316 1.75-.45.601-.166 1.2-.316 1.8-.449.634-.134 1.283-.25 1.95-.351l30.9-2.55c.733-.133 1.5-.267 2.3-.4l2.4-.6c.8-.2 1.616-.433 2.449-.7a35.83 35.83 0 0 0 2.5-.8 40.708 40.708 0 0 0 2.601-.9l2.6-1 13-6.1c.867-.467 1.7-.933 2.5-1.4.833-.467 1.65-.934 2.45-1.4.8-.467 1.583-.95 2.35-1.45.768-.5 1.518-.983 2.25-1.45.733-.5 1.45-1 2.15-1.5s1.367-1 2-1.5 1.25-.983 1.85-1.45c.601-.5 1.167-.983 1.7-1.45.567-.5 1.083-.983 1.55-1.45.467-.467.917-.934 1.351-1.4.399-.466.767-.917 1.1-1.35a14.4 14.4 0 0 0 .95-1.35c.267-.434.5-.85.7-1.25.167-.367.316-.7.45-1 .133-.3.232-.583.3-.85.167-.567.217-1.067.149-1.5a4.123 4.123 0 0 0-.399-1.45c-.267-.5-.634-1.066-1.101-1.7l-.899-1.35a15.465 15.465 0 0 1-.65-1.25c-.133-.367-.25-.717-.35-1.05a9.223 9.223 0 0 1-.05-.9 2.113 2.113 0 0 1 .755-1.395z" fill="#010101" fill-rule="evenodd"/></svg>