<svg xmlns="http://www.w3.org/2000/svg" xmlns:dc="http://dublincore.org/documents/dcmi-terms/" height="897.6" id="svg2" viewBox="0 0 13.25 9.35" width="1272" fill-rule="evenodd"><metadata><dc:description>Silhouette of Glyptodontoidea, processed by PhyloPic Tools (https://github.com/eweitz/phylopic-tools)</dc:description><dc:source>http://phylopic.org/image/9af19f83-ef01-4b29-9320-923ad84e95de</dc:source><dc:creator>Zimices</dc:creator><dc:license>http://creativecommons.org/licenses/by-nc/3.0/</dc:license></metadata><defs id="defs4"><style id="style6"/></defs><g id="Capa_x0020_1"><path id="polygon10" d="M2.576 1.188l-.01.037-.009.037-.01.028-.008.056-.01.055-.009.075-.01.055-.009.056-.009.074-.01.028-.008.084-.01.037v.055h-.018l-.019.01-.018.009-.01.01-.018.009-.019.009-.018.01-.01.008-.018.01-.019.009-.01.01-.018.009-.018.009-.019.01-.01.008-.018.01-.018.009-.01.01-.018.009-.019.009-.018.01-.01.008-.018.01-.019.009-.009.01-.018.009-.019.009-.01.01-.009.018-.018.009-.01.01v.018h-.018l-.019.01-.009.008-.018.01-.01.009-.009.019-.01.009-.009.01-.009.008-.018.01-.028.009-.019.01-.018.009-.01.009-.009.01-.019.008-.009.01-.018.009-.01.01-.009.008-.018.01-.01.01-.055.008-.01.01-.01.009-.018.01-.009.008-.01.01-.018.009-.018.01-.01.009-.009.009-.01.01-.018.008-.009.01-.01.009v.019h-.018l-.01.009-.008.018-.01.01-.009.009-.01.01-.009.018-.009.01-.01.018-.008.009-.01.01-.009.009-.01.009-.009.01-.009.008-.01.01-.008.009-.01.01-.009.009-.019.009-.009.01-.01.018-.008.009v.019H1.21l-.01.009v.018h-.018l-.01.01-.008.018-.01.01-.009.009-.01.01-.009.008-.009.019-.01.019-.008.009v.018H1.08l-.01.01-.009.018v.019h-.018l-.01.01-.009.018-.009.009-.01.018-.008.01-.01.018-.01.01-.008.009-.01.01-.009.018-.01.009-.008.01-.01.009-.018.009-.01.01-.018.008-.01.01-.009.009-.009.01-.019.009-.009.009-.018.01-.01.008-.009.019-.01.019-.009.009-.009.01-.01.008-.008.01-.01.009-.009.01-.01.009L.7 3.35l-.009.01-.01.008-.008.01-.01.009-.009.01-.01.009-.009.009-.009.01-.01.008-.008.01-.01.009-.009.01-.01.018-.009.01-.009.008-.018.01-.01.009-.009.01-.019.009-.009.009-.01.01-.008.018-.01.009-.009.01-.01.009-.009.009-.009.01-.01.018-.008.009-.01.158-.009.102L.384 4v.148l.01.019.01.01.009.008.009.019.01.01.008.009.01.009.009.01h.019v.018l.009.009.01.01.018.008.018.01.019.01h.195l.018-.01.01-.01.018-.009.019-.01.018-.008h.065l.038.009.018.01.019.008.037.01.01.01.018.008.018.01.037.009.019.01.028.008.018.01.037.009.019.01.037.009.074.009.084.01.056.008h.111l.01-.009.027-.01.01-.008.027-.01.038-.009.009-.01.01-.009.036-.009.037-.01.01-.008.046-.01.019-.009.018-.01.019-.008.037-.01.037-.01.046-.008.019-.01.019-.009.037-.01.028-.008.018-.01.037-.01.01-.008.018-.01.037-.009.037-.01.038-.008.037-.01.018-.009.028-.01h.037l.065.01.028.01.037.009.019.009.028.01.018.008.028.01.019.009.018.01.019.009.009.009.037.01.019.008.018.01.01.009.018.01.019.008.018.01.01.01.018.008.019.01.009.009.019.01h.018v.018l.01.009.018.01.01.009.018.009h.018v.018l.01.01.018.009.01.01.009.009.01.009.008.01h.019v.018l.01.009.008.01h.019v.018l.01.01h.018v.018l.01.009h.018v.019l.009.009.01.01.009.008.009.01.01.018.008.01.019.009.01.018.009.01h.018v.018l.01.01.018.009.01.018.009.01.009.009.01.01.008.009.01.009.009.01.01.008.009.01.009.009.01.01.008.009.01.009.009.01.01.008.009.01.009.009.01.01.008.018.01.01.018.008.019.01.01.009.018.01.009.018.01.01v.008l-.01.019-.01.01-.009.018-.009.018-.01.01-.008.018-.01.019-.009.018-.01.019-.009.018-.009.01-.01.018-.008.028-.01.019-.009.018-.01.037-.009.019-.009.019-.01.009-.008.018-.01.019-.009.028-.01.018-.009.019-.009.019-.01.009-.008.01-.01.027-.009.019-.01.009-.009.018-.009.019-.01.019-.008.009-.01.01-.009.027-.01.01-.009.018-.009.018-.01.019-.008.01v.018h-.019l-.01.009v.019H3.18l-.01.009-.008.01v.018h-.019l-.01.009-.009.019-.009.009-.01.01-.008.008-.01.01-.009.018-.01.019-.009.01-.009.018-.01.018-.008.019-.01.01-.009.008-.01.01-.008.009-.01.037-.01.019v.093l-.008.018-.01.01-.009.018v.056l.01.009-.01.01-.01.009-.018.009-.018.01-.019.008-.01.01-.018.009-.018.01-.019.008-.01.01-.008.01-.01.018v.055l.01.019H2.78l-.01.01-.009.008-.009.01-.01.009-.018.01-.018.009-.01.009-.009.01-.01.008-.008.01-.01.009-.009.01-.01.009-.018.009-.018.01-.01.008-.018.01-.01.009-.009.01-.01.009-.008.009-.019.01-.01.008-.009.01-.009.009-.01.01-.018.009-.018.009-.01.01-.018.008-.01.01-.009.009-.037.01-.01.009-.008.027-.01.01-.009.009-.01.028-.008.018-.01.019-.01.01-.008.018-.01.018-.009.01-.01.037-.008.055-.01.093-.01.037.001.056.01.056.009.01.009.046.01.037.008.009h.065l.028-.01.019-.009.018-.009.01-.01.009-.008.028-.01.028-.009.018-.01.019-.009.009.028.01.01.018.009.018.01.038.008h.046l.019-.009.037-.01.018-.008.019-.01.028-.009.018-.01.019-.009.018-.009.019-.01.028-.008.018-.01.019-.009.019-.01.018-.009.01-.009.009-.01.009-.008.01-.01.018-.009.01-.01.008-.018.01-.018.027-.01.01-.009v-.019h.018l.01-.009.009-.01.01-.008.008-.01.01-.009.009-.01.01-.009.009-.009.009-.01.01-.008.008-.01.01-.009v-.019h.018l.01.103.009.037.01.018.008.01.01.018.009.01.01.009.009.009.009.01.01.009.018.009h.13l.009-.01.01-.009.009-.018v-.037h.018l.01-.01.009-.018.009-.019.01-.01.009-.018.009-.018.01-.019.008-.018.01-.01.009-.009.01-.01.009-.009.009-.009.01-.01.008-.008.01-.019.009-.01.018-.008.01-.01.01-.01.018-.008.009-.01.01-.009.018-.01.01-.008.008-.01.019-.01.01-.008.008-.01.028-.009.019-.01.01-.008.008-.038.01-.009.009-.01.01-.046.009-.046.009-.046.01-.047.008-.028.01-.009.009-.019.019-.009.018-.01.019-.008.028-.01.018-.009.037-.01.019-.009.018-.009.019-.01.028-.008.018-.01.019-.009.019-.01.009-.009.018-.009.019-.01.019-.008.027-.01.019-.009.01-.01.018-.008.018-.01.019-.01.018-.008.01-.01.009-.009.01-.01.018-.008.01-.01.018-.01.018-.008.01-.01.018-.009.01-.01v-.018h.018l.019-.009.009-.01.018-.009.019-.009.01-.01.009-.008.009-.01.018-.009.01-.01.018-.009.01-.009.018-.01.01-.008.009-.01.009-.009.019-.01.018-.009.01-.009.018-.01.01-.008.018-.01.01-.009.008-.01.01-.009.018-.009.01-.01.009-.008.01-.01.018-.009.009-.01.018-.009.01-.009.01-.01.008-.008.01-.01.018-.009.01-.01.009-.009.01-.009.018-.01.009-.008.018-.01.01-.009.009-.01.046.01.038.01.046.009.028.009.028.01.037.008.046.01.028.009.065.01.065.009.065.009.065.01.065.008.046.01.047.009.046.01.047.009.102.009.065.01.065.008.065.01.055.009.065.01.065.009.084.009.046.01.065.008.065.01.01.018.009.019.01.028.009.018.009.019.01.018.008.01.01.018.009.019.01.018.009.028.009.019.01.018.008.019.01.01h.02l-.011.027-.01.01-.009.009-.009.009-.01.01-.008.008-.019.01-.019.01-.037.008-.028.01-.037.009-.037.01-.037.008-.056.01-.055.009-.056.01-.037.009-.028.009-.019.01-.018.008-.019.01-.037.009-.01.01-.008.018V6.6h-.038l-.055.01-.019.009-.037.009-.019.01-.009.009-.018.009-.01.01-.009.018-.01.009v.019h-.018l-.01.009v.056l.01.018.01.019.009.009.009.01.01.009.009.009.037.01h.074v.12l.01.01.009.008.009.01.01.009.018.01.111.008h.046l.047-.009.028-.01.018-.008.037-.01.056-.009.037-.01.01-.009.009-.009.01-.01.008-.008.019-.01v.01l-.01.027-.009.02-.009.018-.01.009v.074l.01.019.01.018.009.01h.055l.038-.01.018-.009.01-.01.018-.009.01-.009.009-.01.009-.008.018-.01.01-.009.009-.01.01-.009.018-.009.01-.01L6.882 7l.01-.009v-.019h.018l.019-.009.01-.01.018-.008.009-.01v-.018h.018l.01-.01.01-.018.008-.01.037-.009.01-.009.018-.01.019-.008.01-.01.008-.01.019-.008.01-.01.018-.009.01-.01.018-.008.018-.01.019-.009.01-.01.018-.009.018-.009.01-.01.018-.008.019-.01.009-.009v-.019h.028l.01-.009.008-.01.038-.008.018-.01.019-.009.009-.01.019-.009.009.028.01.037.008.038.01.027.009.047.01.028.009.037.009.018.01.038.008.037.01.055v.167l-.019.01-.01.009-.008.01-.01.009-.018.009-.01.01-.009.018-.018.009-.019.01-.01.009-.018.009-.018.01-.01.008-.018.01-.019.009-.01.01v.018h-.018l-.018.01-.019.008-.01.01-.036.009-.019.01-.01.009v.018h-.018l-.018.01-.01.009-.018.009-.01.01-.018.009-.019.009-.009.01V7.5h-.018l-.01.009-.018.01-.01.009-.009.018-.01.019v.083l.01.01.01.009.009.01.057.003-.02.005-.01.01-.009.009v.018H7.06l-.01.01-.009.018-.01.01-.008.009-.01.01-.009.008-.01.019-.009.019-.009.009-.01.018-.008.019v.093l.009.01.01.008.008.01.01.009.01.01h.073l.019-.01.037-.01.019-.009.009-.009.037-.01.019-.008h.009l-.01.018-.009.01-.009.018-.01.019-.009.018-.009.037v.14l.01.009.018.01.019.008.018.01.01.009.018.01h.074l.056-.01.028-.01.028-.009.018-.009.028-.01.019-.008.009-.01.01-.01.009-.008.018-.01.01-.009.018-.01.018-.008.02-.01.008-.01.01-.008.009-.019.01-.018.008-.019.01-.01.01-.018.008-.01h.01l.009.112.01.056.008.037.01.019.009.027.01.02.009.018.009.018.01.01.008.009.01.01.009.008h.056l.018-.009.01-.01.009-.009.01-.009.008-.01.019-.008.01-.01V8.29h.018l.01-.01.018-.009.018-.01.01-.008.009-.019.01-.01.008-.018.01-.018.009-.019.01-.037.009-.065.009-.019.01-.037.004-.056.004.028.01.019.009.01.01.018.009.018.009.01.01.009.008.01.01.009.009.009h.056l.018-.01.01-.009.009-.009.01-.019V8.03h.018l.009-.01.01-.018V7.825l.008-.037.01-.018.01-.037.008-.01.01-.018.009-.019.01-.009.008-.019.01-.018.009-.01.01-.009.009-.009.009-.019.01-.009.008-.018.01-.019.009-.018.01-.01.009-.018.009-.019.01-.01.008-.018.01-.018.009-.019.01-.01.009-.018.009-.018.01-.01.008-.018.01-.019.009-.018.01-.01.009-.018.009-.019.01-.009.008-.019.01-.018.009-.01.01-.009.009-.009.009-.019.01-.009.008-.018.01-.019.009-.01.01-.018v-.13l-.01-.037-.01-.037-.009-.01-.009-.018-.01-.01h-.018v-.027l-.009-.01-.037-.009-.01-.009-.009-.01-.009-.008h-.019V6.73l-.009-.01-.01-.008-.008-.019v-.028l.009-.037.01-.037.008-.037.01-.028.009-.019.01-.037.009-.018.009-.019.01-.028.008-.018.01-.019.009-.019.01-.009.009-.018.009-.019.01-.018.008-.02.01-.008.009-.019V6.22h.325l.01-.01v-.037h.046l.018.01.019.009h.195l.018-.01h.13l.01-.009.018-.01.019-.008.018-.01.01-.009.009-.019.01-.009.008-.01.01-.008.009-.01.01-.009.008-.01.075-.009.018-.009.019-.01.01-.008.008-.01.01-.009.018-.01.01-.009h.009l.01.019.008.01.01.018.009.01.01.008.027.01.047.009.009.01.01.018.008.018.01.019.009.019.01.018.009.01.009.009.01.009.008.01.01.009.018.009.01.01.018.008.01.01.009.009.009.01.019.009.009.009.01.01.008.008.019.01.01.009h.018v.018l.01.01.018.01.009.008.018.01h.02v.018l.008.01.01.009h.018v.018l.01.01h.018v.018l.01.01.018.009.01.009.018.01h.018v.018l.01.01.018.008.01.01.018.009.019.01.009.009.018.009.019.01.019.008.018.01.01.009.018.01.019.009.009.009.018.01.019.008.018.01.01.009.018.01.019.009.037.009.01.01.018.008.018.01.02.009.027.01.018.009.038.009.018.01.019.008.018.01.028.009.037.01.019.009.018.009.01.01.018.008.028.01.01.009.009.01.018.009.019.009.037.01.028.008.018.01.056.009.019.01.027.008h.02v.02l.008.008.019.01.018.009.01.01.018.008.019.01.074.009.037.01.019.009.028.009.018.01.019.008.01.01.018.009.018.01.037.009.019.009.019.01.009.008.018.01.019.009.019.01.083.009.037.009.037.01.019.008.093.01h.12l.02-.01.018-.009.037-.01.009-.008.01-.019.009-.019.009-.009V7.14h.018l.01-.01.009-.037.01-.037v-.13l-.01-.01-.01-.018-.009-.01-.009-.008h-.018V6.86l-.01-.01-.018-.008-.01-.01-.009-.01-.01-.008-.008-.01-.019-.009h-.018v-.018l-.01-.01-.018-.009-.01-.01-.018-.009-.019-.009-.018-.01-.01-.008-.018-.01-.01-.009-.027-.01-.01-.009-.018-.009-.019-.01-.018-.008-.01-.01-.018-.009-.019-.01L12 6.61 11.98 6.6l-.01-.01-.008-.008-.028-.01-.01-.009-.037-.01-.009-.009-.019-.009-.018-.01-.019-.008-.009-.01-.01-.009-.009-.01-.009-.009h-.018v-.018l-.01-.01h-.018v-.018l-.01-.01-.018-.009-.01-.009-.009-.01-.009-.008-.01-.01h-.018V6.36l-.01-.01-.018-.009-.009-.01H11.6v-.018l-.01-.009-.018-.01-.01-.008-.018-.01-.01-.01-.009-.008-.01-.01-.018-.009-.009-.01-.01-.008-.008-.01-.01-.01-.018-.008-.01-.01-.009-.009-.01-.01-.018-.008-.009-.01-.019-.009-.009-.01-.01-.009-.008-.009-.01-.01-.009-.008-.01-.01-.009-.009-.018-.01-.01-.009-.009-.009-.009-.01-.01-.008-.009-.01-.009-.009-.01-.01-.018-.009-.009-.009-.01-.01-.009-.008-.009-.01h-.018v-.018l-.01-.01-.018-.009-.01-.01-.009-.008-.01-.01-.008-.018-.01-.019-.009-.01-.01-.018-.008-.009-.01-.01-.01-.009-.008-.037-.01-.009-.009-.019-.01-.018-.009-.019-.009-.009-.01-.01h-.018v-.018l-.009-.01-.01-.018-.008-.018-.01-.01h-.018V5.58l-.01-.019-.009-.009-.01-.018-.008-.038-.01-.009-.01-.018-.008-.019-.01-.019-.009-.018-.01-.028-.008-.019-.01-.027-.009-.01-.01-.009-.009-.019-.009-.018-.01-.01-.009-.009-.009-.009-.009-.01-.01-.055-.009-.102-.009-.01-.01-.018-.008-.01-.01-.009-.018-.009-.01-.01-.009-.008-.01-.065-.008-.028-.01-.01-.009-.018-.01-.019-.009-.009-.009-.037h.019l.009-.01.01-.018.009-.028v-.065l-.01-.093-.009-.037-.01-.028-.009-.018-.009-.037-.01-.01-.008-.009-.01-.01-.009-.018-.01-.018-.008-.028-.01-.01-.018-.009-.01-.037-.009-.018-.01-.019-.008-.019-.01-.009-.01-.037-.008-.018-.01-.038-.009-.018-.01-.028-.009-.019-.009-.037-.01-.037-.008-.037-.01-.028-.009-.056-.01-.037-.008-.037-.01-.037-.01-.019-.008-.018-.01-.028-.009-.019-.01-.018-.008-.037-.01-.019-.01-.01-.008-.018-.01-.009h-.018v-.018l-.01-.01-.009-.01-.009-.027-.01-.01-.009-.008-.009-.028-.01-.019-.008-.01-.01-.036-.009-.037-.01-.019-.009-.019-.009-.009-.01-.018-.008-.019-.01-.01-.009-.018-.01-.018-.009-.01-.009-.018-.01-.019-.008-.018-.01-.01-.009-.018-.01-.01-.009-.009-.009-.01-.01-.018-.008-.009-.01-.01-.009-.009-.01-.009-.009-.01-.009-.008-.01-.01-.008-.018-.01-.01-.009-.009-.019-.01-.009-.008-.01-.01h-.018V2.99l-.009-.01-.01-.018-.009-.019-.009-.009-.01-.018-.008-.01-.019-.01-.01-.008-.009-.01-.009-.009-.01-.018-.008-.01h-.019v-.018l-.01-.01-.018-.009-.01-.01-.008-.008-.01-.01-.009-.009-.018-.01-.01-.009-.01-.009-.018-.01-.009-.008-.01-.01h-.018v-.018l-.009-.01-.01-.009-.018-.01-.018-.008-.01-.01h-.018v-.018l-.01-.01-.018-.009-.01-.01-.009-.008-.009-.01-.01-.009-.009-.01-.009-.009-.01-.009-.018-.01-.018-.008-.01-.01-.018-.009-.028-.01-.01-.009-.009-.009-.009-.01-.01-.008-.008-.01-.019-.009-.01-.019-.009-.009-.018-.01-.01-.008-.018-.01-.01-.009-.009-.01-.009-.009-.01-.009-.018-.01L9 2.33l-.01-.01-.009-.009-.009-.01-.018-.009-.01-.009-.009-.01-.01-.008h-.018v-.019l-.01-.01-.008-.008-.019-.01-.01-.009-.008-.01-.01-.009-.01-.009-.008-.01-.019-.008-.01-.01-.027-.009h-.019v-.019l-.009-.009-.018-.01-.019-.008-.01-.01h-.018V2.07l-.01-.01-.027-.009-.01-.01-.009-.008-.018-.01-.019-.009-.009-.01-.019-.009-.018-.009-.01-.01-.018-.008-.019-.01-.018-.009-.01-.01-.009-.009h-.018v-.018l-.01-.01h-.018v-.018l-.01-.01-.009-.009-.009-.009-.01-.01-.009-.008-.018-.01-.019-.009-.009-.01-.019-.009-.018-.009-.019-.01-.027-.008-.02-.01-.036-.009-.037-.01-.019-.009-.037-.009-.065-.01-.019-.008-.018-.01-.037-.009-.019-.01-.01-.008-.018-.01-.009-.01-.019-.008-.018-.01-.019-.009-.018-.01-.047-.008-.009-.01-.01-.01-.009-.008-.018-.01-.01-.009-.009-.01-.009-.008-.019-.01-.018-.01-.01-.008-.037-.01-.018-.009-.037-.01-.102-.008-.075-.01-.037-.009-.074-.01-.149-.009-.018-.009-.01-.01-.037-.008-.018-.01-.019-.009-.009-.01-.102-.009-.019-.009-.037-.01-.046-.008-.01-.01-.018-.009-.01-.01-.018-.009h-.167l-.074.01-.056.009-.074.01-.019.009-.037.009H6.29l-.018-.01-.01-.009-.018-.009-.019-.01-.018-.009-.01-.009-.009-.01-.01-.008-.018-.01-.009-.009-.019-.01-.018-.009h-.26l-.13.01-.074.009-.028.01-.074.009-.056.009-.037.01-.037.008-.038.01-.018.009-.037.01-.01.009-.018.009-.056.01-.037.008-.037.01-.01.009-.037.01-.037.009-.037.009-.018.01-.038.008-.037.01-.027.009-.038.01-.018.009-.037.009-.037.01-.019.008-.028.01-.018.009-.038.01-.018.009-.037.009-.019.01-.018.008-.028.01-.019.009-.01.01-.018.009-.018.009-.019.01-.01.008-.036.01-.019.009-.018.01-.028.009-.037.009-.01.01-.027.008-.01.01-.028.009-.037.01-.046.008-.056.01-.018.01-.028.008-.037.01-.019.009-.037.01-.065.008-.01.01v.02l-.037-.011-.018-.01L3.82 1.8 3.8 1.791l-.018-.01-.028-.008-.019-.01-.018-.009-.038-.01-.018-.009-.028-.009-.018-.01-.038-.008h-.02l.011-.028v-.13l-.01-.112-.008-.037-.01-.046-.009-.037-.01-.01-.009-.009-.009-.018-.01-.019-.008-.01-.019-.009h-.056l-.009.01-.01.009-.009.019-.009.018-.01.01-.008.018-.01.019-.009.009-.01.018-.009.019-.009.019-.01.009-.008.018-.01.019-.009.019-.01.009-.009.018-.009.038-.01.018-.008.019-.01.028-.009.018v.019h-.176l-.028.009v-.028l-.01-.037-.009-.037-.01-.019-.008-.028-.01-.018-.009-.019-.01-.018-.008-.019-.01-.01-.01-.018-.008-.009-.01-.019-.009-.009-.01-.01-.008-.008-.01-.019-.009-.01-.01-.009-.009-.009-.009-.01-.01-.018-.008-.009H2.78v-.019l-.01-.009-.018-.01-.01-.008-.008-.01-.01-.009-.009-.01-.019-.009-.009-.009-.018-.01h-.075l-.009.01z"/></g></svg>