<svg xmlns="http://www.w3.org/2000/svg" version="1.2" width="387.158" height="121.499" viewBox="0 0 387.158 121.499"><path d="M252.176 13.204c0 2.133.649 4.65 1.949 7.55 1.434 3.167 2.233 5.55 2.4 7.15.233 2.133 1.95 4.917 5.15 8.35 3.133 3.367 4.699 5.333 4.699 5.9 0 .933-.199 1.567-.6 1.9-.866.733-2.7 1.067-5.5 1-1.9-.066-3.967-.283-6.2-.65 1.033.467 2.117.933 3.25 1.4 5.334 1.934 11.483 3.25 18.45 3.95l12.25.65c.233.067.65.15 1.25.25 7.8 1.033 15.566 1.4 23.3 1.1 4.979-.118 9.946-.035 14.9.25 4.833.566 9.649 1.316 14.45 2.25 9.3 1.767 18.433 4.6 27.399 8.5 7.134 3.267 12.15 5.967 15.05 8.101 2.9 2.166 3.534 3.283 1.9 3.35-6.333-1.133-12.25-1.05-17.75.25-2.066.434-4.2 1.101-6.4 2-6.166 2.533-11.733 5.95-16.699 10.25-2.167 1.934-3.851 3.917-5.051 5.95-.566 1.434-.85 2.45-.85 3.05 0 1.5.217 3.834.65 7 .399 3.2.6 5.5.6 6.9 0 2.967-.35 5.25-1.05 6.85-1.733 3.934-5.267 5.566-10.601 4.9a32.338 32.338 0 0 1-1.649-.25 38.071 38.071 0 0 1-5.95-1.15 66.568 66.568 0 0 1-7.5-3.05 102.374 102.374 0 0 1-21.35-13.85 3399.229 3399.229 0 0 1-10.2-8.75c-3.057-2.532-6.09-5.065-9.101-7.601-3.533-3.033-7.433-5.383-11.699-7.05-1.167 1.066-1.334 2.283-.5 3.65 2.899 4.966 6.433 9.533 10.6 13.699-3.066.834-6.184.717-9.35-.35a224.956 224.956 0 0 1-30.45-11.9 97.079 97.079 0 0 0-12.95-5.199 2.114 2.114 0 0 0-.4-.051c-4.566-.133-9.517.384-14.85 1.551-.833.267-1.6.483-2.3.649-.884.256-1.65.481-2.3.675.916.307 1.683.557 2.3.75v.025c.967.333 1.566.517 1.8.55.9.233 3.767.566 8.6 1 2.801.267 5.184.45 7.15.55l5.25.5-5.25 1.4c-.667.1-1.4.2-2.2.3-4.434.533-9.55.717-15.35.55h-.2c-7.333 0-11.8-.116-13.4-.35-.492-.082-.9-.207-1.225-.375-.215.654-.757 1.229-1.625 1.725-1.5.867-3.75 1.301-6.75 1.301-.165 0-.331-.025-.5-.075a25.71 25.71 0 0 1 1.375 1.675l1.375 1.9-.3.85a40.866 40.866 0 0 1-9.25 1.725v.025c-4.633.366-9.284-.083-13.95-1.35l-2.35.3c-1.4.233-2.433.383-3.1.45.233.366.483.75.75 1.149l.75 1.8c-6.466 2.034-12.983 2.217-19.55.551a.393.393 0 0 0-.15.05c-.733.333-1.817.5-3.25.5-.633.033-1.567-.167-2.8-.601.034.101.05.2.05.301.033.166.117.333.25.5l2.55 1.699c-5.533 1.801-11 1.617-16.4-.55-.7-.333-1.4-.633-2.1-.899-.667-.5-1.083-1.017-1.25-1.551-1.8.134-4.35.217-7.65.25-1.867.034-3.4-.05-4.6-.25 1.067 1.267 2.467 3.067 4.2 5.4 1.733 2.3 4.383 4.283 7.95 5.95 3.567 1.666 7.35 2.816 11.35 3.45 4 .633 6.7 1.1 8.1 1.399-9.567 2.7-19.217 3.101-28.95 1.2-7.7-1.634-14.733-4.684-21.1-9.15-1.934-1.166-3.567-2.25-4.9-3.25-2.167-1.333-4.25-3.017-6.25-5.05-.633-.6-1.383-1.434-2.25-2.5-.233 1.4-.966 2.117-2.2 2.15-1.333 0-3.033-.617-5.1-1.851-1.367-.767-2.217-1.316-2.55-1.649-.534.066-.95.116-1.25.149.033 1.4-.367 2.117-1.2 2.15-1.233 0-2.167-.533-2.8-1.6a5.197 5.197 0 0 1-.15-.351l-4.8.05a97.26 97.26 0 0 1-12.75-2.199c-6.967-1.567-13.533-3.967-19.7-7.2-5.267-2.733-6.8-6.417-4.6-11.05l-2.25-1c-9.233-3.934-9.3-11.017-.2-21.25.7-.667 1.45-1.3 2.25-1.9.8-.6 1.633-1.133 2.5-1.6 2.1-1.3 4.267-2.483 6.5-3.55 2.9-1.3 5.817-2.517 8.75-3.65 2.767-1.067 5.5-2.017 8.2-2.85 3.1-1.033 6.216-2.017 9.35-2.95 2.9-.9 5.817-1.717 8.75-2.45 3.267-.9 6.434-1.784 9.5-2.65a559.32 559.32 0 0 0 9.55-2.65c2.867-.8 5.75-1.55 8.65-2.25a149.735 149.735 0 0 1 9.4-2.25 179.35 179.35 0 0 0 9.1-2.15 121.748 121.748 0 0 0 9.25-2.55c.4-.133.817-.267 1.25-.4 1.333-1.9 2.317-3.216 2.95-3.95 2.033-2.367 4.483-4.383 7.35-6.05 7.367-4.2 19.434-7.1 36.2-8.7 4.4-.033 6.7.15 6.9.55-.167.3-.667.85-1.5 1.65-.833.8-.8 2.167.1 4.1.867 1.967.767 4.017-.3 6.15-.667 1.3-1.284 2.1-1.85 2.4.4 0 .783.017 1.15.05 3.4 0 6.8.117 10.2.35v-.025c2.573.205 5.139.479 7.7.825a913.437 913.437 0 0 1 22.8 3.8l5.3 1.1h.05c.066 0 1.867-.6 5.4-1.8 4.233-1.333 8.05-2.4 11.45-3.2 2.933-.633 6.8-1.5 11.6-2.6 4.467-.8 10.134-1.284 17-1.45.069.236.036.669-.097 1.303z" fill-rule="evenodd"/><path d="M62.025 95.304l.65-1.101 10.1-4.95a54.47 54.47 0 0 0 5.25.15c9.467 0 13.9 3.917 13.3 11.75a43.218 43.218 0 0 0 1.2 4.2c2.967 8.566 9.883 13.783 20.75 15.649-1.833.2-3.65.267-5.45.2-23.466.235-38.733-8.398-45.8-25.898zm121.4-6.15l-8.95-4.4c16.6.5 32.033 3.217 46.3 8.15-13 .866-25.033-.2-36.1-3.2-.433-.201-.85-.383-1.25-.55z" fill-rule="evenodd"/></svg>