<svg xmlns="http://www.w3.org/2000/svg" xmlns:dc="http://dublincore.org/documents/dcmi-terms/" height="203.593" version="1.2" viewBox="0 0 739 203.593" width="739" overflow="inherit"><metadata><dc:description>Silhouette of Gogonasus andrewsae, processed by PhyloPic Tools (https://github.com/eweitz/phylopic-tools)</dc:description><dc:source>http://phylopic.org/image/585f4bb3-1d2c-44fd-8b64-57d2e1edf8a2</dc:source><dc:creator>Nobu Tamura (vectorized by T. Michael Keesey)</dc:creator><dc:license>http://creativecommons.org/licenses/by-sa/3.0/</dc:license></metadata><path d="M739 34.959c.033-3.08-63.967 1.42-90 9-25.955 4.454-20.051 2.645-28 5-4.24 1.257-10.717 7.17-26 10-8.314-2.726-16.408.448-23-4 .685-1.315 2.135-1.865 4-2 3.27-9.564 9.967-23.67 11-27.5 1.033-3.83 1.033-3.83-1-6.5-3.479-2.438-8.2-2.059-12-1-1.746.486-17.296 6.335-19 7-2.636 1.028-14.35 6.829-25 12s-14.523 5.529-22 8c-21.126 6.981-48.479 1.429-72.5 0a44.2 44.2 0 0 1-1.5-1.5c4.238-2.261 7.299-5.701 13-6.5 1.763-4.737 2.967-15.42 2-18.5-.967-3.08.413-11.92 1-17.5-3.692-2.431-9.248.325-12 2-1.618.618-31.12 17.129-42 23-10.88 5.871-8.447 6.22-15 7-5.555 5.279-15.096 6.571-22.5 10-1.384-.449-41.5-5-41.5-5s-55.717-2.83-67-3c-14.217-.33-73-1-73-1l-22.5-1s-41.776-.06-43.5-1c-33.967-.08-68 8-68 8s-14.283 4.83-22 9c-7.717 4.17-16.768 12.233-20 23.5.055 2.555.261 5.261-1 6.5.815 4.185 5.338 4.662 6 9 1.504.504.887-1.114 1-2h2.5c.679.155.415 1.252.5 2 1.467-.033 1.473-1.527 2.5-2 .679.155.415 1.252.5 2 1.45-.55 2.55-1.45 4-2 1.968-.801.174 2.159 1.5 2 3.832-.691 9.333-1.759 12.5 2 1.724.057 1.276-2.057 3-2 1.968-.801.174 2.159 1.5 2 1.554-.32 3.92-2.158 5 0 2.323-.782 9.902-.97 11.5 2 1.467-.033 1.473-1.527 2.5-2 7.011 2.322 15.552 3.115 22.5 5.5-.437 2.582-4.008 1.91-6 2.5-2.628.779-5.642 1.964-7.5 3-4.764.07-8.876.791-12.5 2-1.594.427-1.898-.436-2.5-1-1.965-.464-1.262 1.738-3.5 1-1.724.057-1.276-2.057-3-2 .89 2.723-2.127 1.54-2.5 3-.381-.786-1.586-.747-1.5-2-7.085 2.058-12.875-1.463-21.5-1-.679-.155-.415-1.252-.5-2-2.665 2.138-6.678-.711-8-3-.355 3.645-1.77 6.23-3 9 .845 1.155-1.283.08 1 5s30.717 14.33 40.5 17c9.783 2.67 28.883 3.382 30.5 4 12.074 2.335 22.033 1.92 35.5 7 14.283 2.67 35.834 2.567 39 3 3.98.544 9.056-.556 11 1 1.944 1.556 2.743 2.301 6.5 4 2.963 6.035 6.033 12.351 10 17 3.967 4.649 17.033 23.42 33.5 30 .835 1.998 15.965 8.959 22 10 8.732 1.504 18.456.125 25.5-2 .509-6.51-2.783-9.92-7-13-4.217-3.08-5.629-10.232-9-14-3.371-3.768-8.69-10.311-13-15.5 1.198-.84 1.251-.605 6.5.5 5.249 1.105 16.377 3.16 24.5 4 1.146.117 54.383 2.617 56 2 26.789-2.439 50.479-3.164 72.5-9 9.209 3.625 15.967 12.83 21.5 17 5.533 4.17 41.249 22.75 43.5 24 9.445 1.617 19.934 3.117 26.5-2.5-5.775-9.393-19.283-21.42-21-24.5-1.717-3.08-12.406-12.928-21-15-.618-1.619 1.617-.383 1-2 7.281.725 11.67-.995 18-3s16.163-3.363 21-5c24.283-7.83 54.533 5.92 57.5 11 .679.154 3.201 6.617 7.5 8 4.299 1.383 15.533 12.17 30 10 .229-8.566-4.835-15.311-6-22.5-1.096-6.765-.744-6.691-5.5-10.5-2.561-2.051-15.137-6.638-17.5-9.5 1.505-2.495 1.943-2.882 9.5-2.5 7.557.382 64.533 7.67 72 10 6.265 2.569 12.931 4.735 20.5 6 1.17-3.33 4.283-2.58 4-9.5" fill-rule="evenodd"/></svg>