<svg xmlns="http://www.w3.org/2000/svg" xmlns:dc="http://dublincore.org/documents/dcmi-terms/" height="519.521" viewBox="0 0 967.17963 519.52094" width="967.18"><metadata><dc:description>Silhouette of Gopherus agassizii, processed by PhyloPic Tools (https://github.com/eweitz/phylopic-tools)</dc:description><dc:source>http://phylopic.org/image/fb405890-27fb-4dbc-b1e5-e7f38a185404</dc:source><dc:creator>Andrew A. Farke, shell lines added by Yan Wong</dc:creator><dc:license>http://creativecommons.org/licenses/by/3.0/</dc:license></metadata><path d="M316.81 260.243c-8.514 2.628-9.187 1.423-18.185.78-8.998-.644-22.65-2.076-35.628-4.63-12.979-2.553-31.744-8.041-42.106-10.665-10.363-2.623-13.556-2.909-20.069-5.076-6.512-2.167-11.678-4.995-18.901-7.89-7.223-2.894-17.083-7.465-24.434-9.475-7.352-2.01-10.359-1.1-19.362-2.5-9.003-1.399-25.849-4.15-34.646-5.895-8.797-1.745-11.348-3.757-18.099-4.564-6.75-.807-15.002 1.043-22.123-.245-7.12-1.289-14.098-3.849-19.978-7.373-5.88-3.525-10.787-9.996-14.645-13.381-3.858-3.385-6.026-5.593-8.495-6.923-2.468-1.33-3.814 1.075-5.813-.787-1.999-1.863-2.794-4.53-4.983-9.273-2.189-4.742-6.925-14.215-8.14-19.156-1.213-4.941-2.35-4.95 1.063-9.657 3.412-4.708 12.291-12.455 18.392-17.184 6.1-4.728 8.283-8.003 18.027-11.044 9.743-3.04 28.445-5.698 39.5-6.907 11.054-1.209 17.692-.591 26.62-.324 8.93.267 18.013-.23 26.907 1.925 8.894 2.155 20.487 9.106 25.749 10.832 5.261 1.726 3.648-.655 5.248-.665 1.6-.008 2.119-.77 4.266.602 2.148 1.373 3.647 4.466 8.167 7.346s12.306 7.125 18.764 9.812c6.459 2.687 12.993 4.383 19.836 6.248 6.843 1.865 10.563 4.36 21.193 4.934 10.63.573 22.57-10.418 42.087-1.522 19.516 8.897 56.248 38.57 69.076 52.195 12.829 13.625 3.518 17.729 3.979 25.396.46 7.668 5.15 13.617-1.233 20.344-6.382 6.727-23.522 12.094-32.035 14.722zM713.452 298.085c3.495 2.149 19.75 23.69 22.79 26.475 3.041 2.786 13.613 12.876 18.245 16.713 4.633 3.837 6.93 4.21 9.476 6.244 2.545 2.035 3.19 2.9 5.709 5.894 2.518 2.993 6.18 8.64 9.383 12.045 3.202 3.405 7.353 6.372 9.733 8.279 2.38 1.906 2.463 2.354 4.534 3.148 2.07.793 4.899.085 7.636 1.514 2.737 1.428 4.076 3.956 8.306 6.805 4.23 2.85 13.21 7.977 17.013 10.252 3.803 2.275 3.694 1.577 5.807 3.4 2.112 1.824 4.687 5.529 6.729 7.419 2.042 1.89 3.648 2.214 5.451 3.859 1.804 1.644 3.648 4.355 5.302 5.945 1.655 1.59 3.847 2.19 4.586 3.555.74 1.363-.864 2.395-.809 3.41.056 1.016 1.506 1.042 1.124 2.34-.382 1.297-2.912 2.251-3.148 4.534-.237 2.282.701 6.147 1.845 8.037 1.144 1.89 3.68 1.28 4.431 2.334.751 1.052-.414-.022-.912 2.596-.497 2.62-.38 9.345-2.065 13.082-1.684 3.737-6.318 5.796-7.62 8.409-1.3 2.613-.093 4.186.367 6.157.46 1.97 2.638 3.403 2.35 5.492-.288 2.089-2.171 2.403-3.86 5.451-1.687 3.048-5.094 9.055-6.238 12.783-1.143 3.728-2.687 7.157-.494 9.16 2.194 2.005 6.204-.668 8.445-1.896 2.241-1.228 3.219-3.279 4.317-5.096 1.098-1.816 1.093-3.773 2.179-5.652 1.086-1.879 2.829-4.13 4.266-5.502 1.436-1.373 2.459-2.027 4.22-2.603 1.76-.575 3.924-.566 6.104-.773 2.18-.207 5.336-1.172 6.971-.47 1.636.703 1.179.97.464 3.664-.714 2.694-3.125 7.977-4.662 12.17s-3.46 9.673-4.558 12.984c-1.098 3.31-1.687 5.727-2.025 6.873-.337 1.146 2.396 2.591 4.024 2.385 1.628-.206 3.894.265 4.426-.974.532-1.239 1.565-4.463 3.194-7.435 1.628-2.971 4.55-7.055 6.548-10.34 1.996-3.287 2.979-7.04 5.43-9.373 2.45-2.334 6.557-2.272 8.593-3.983 2.036-1.712 1.363-4.237 2.993-5.755 1.63-1.519 5.032-2.421 6.255-2.86 1.222-.44.764-1.645.865.303.102 1.95-.055 7.722-.288 10.79-.233 3.067-.872 5.623-1.107 7.583-.234 1.961-.79 2.571-.299 4.174.493 1.602 2.33 3.702 3.113 4.982.782 1.28.159 2.524 1.582 2.694 1.422.17 3.742-.602 5.136-1.891 1.394-1.289 1.327-2.025 2.638-5.297 1.31-3.271 3.667-10.723 5.218-14.308 1.551-3.584 2.432-5.534 4.06-7.13 1.627-1.597 2.423-.997 5.136-1.892 2.713-.895 7.374-2.174 11.139-3.478 3.765-1.305 8.436-2.925 11.443-4.344 3.006-1.42 4.51-2.12 6.507-4.133 1.997-2.012 4.472-4.945 5.229-7.693.756-2.747-1.063-5.61-.98-7.733.084-2.124 1.633-2.854 1.468-4.735-.165-1.88-1.493-4.21-2.401-5.9-.908-1.689-2.607-2.156-3.01-4.167-.401-2.011 1.259-4.855.753-7.126-.507-2.27-2.55-3.809-3.623-5.744-1.073-1.935-1.502-3.729-2.808-5.848-1.307-2.118-2.924-5.14-4.998-6.81-2.074-1.672-3.852-.726-6.977-2.839-3.124-2.113-8.75-6.713-11.567-9.7-2.817-2.989-2.421-5.233-5.153-8.033-2.731-2.8-8.116-6.414-11.005-8.531-2.89-2.117-3.494-2.587-6.317-4.163-2.824-1.575-7.1-3.302-10.594-5.275-3.493-1.973-7.564-4.763-10.34-6.548-2.777-1.785-4.45-3.34-6.317-4.162-1.868-.822-2.636.764-4.632-.654-1.997-1.419-5.573-4.74-6.73-7.419-1.156-2.678.71-5.32.294-7.481-.417-2.16-1.524-3.378-2.706-5.034-1.181-1.655-2.851-2.943-4.333-4.827-1.481-1.884-2.677-2.175-4.54-6.455-1.862-4.28-5.6-12.125-6.544-19.022-.944-6.897 6.173-12.846.983-21.629-5.19-8.783-16.036-22.626-29.406-26.465-13.37-3.839-36.293 4.597-43.551 5.516-7.259.92-48.894 5.779-50.522 5.985-1.628.206-34.256 10.886-31.887 12.723 2.37 1.837 10.722 8.87 14.216 11.02z"/><path d="M288.852 258.56c-7.588-.607-16.99 1.614-27.567 3.354-10.577 1.74-25.702 4.61-35.85 7.079-10.148 2.47-18.716 4.473-24.957 7.718-6.24 3.245-8.309 4.22-11.5 11.24-3.192 7.022-5.602 20.322-6.966 29.381-1.364 9.06-1.1 19.628-1.184 24.748-.084 5.12-.179 4.313.683 5.909.863 1.596 4.103.905 4.045 2.835-.06 1.93-3.297 1.196-4.285 5.08-.989 3.883-1.726 13.123-1.421 17.342.305 4.219 2.69 4.626 3.199 7.31.508 2.685-.617 3.96-.225 8.409.39 4.448 1.821 14.962 2.56 18.203.739 3.241 1.195-1.595 1.465-.541.271 1.054-1.2 1.39-.336 4.953.865 3.562 4.26 13.275 5.458 16.133 1.2 2.858 1.438-1.396 1.497.446.06 1.843-1.277 6.425-1.18 9.428.096 3.003 1.357 6.38 1.75 8.345.392 1.965 1.183.573.604 3.44-.579 2.868-1.403 9.447-4.016 13.472s-8.327 6.836-11.055 9.744c-2.727 2.908-4.016 5.38-5.193 7.58-1.177 2.2-2.614 3.99-1.8 5.493.812 1.504 2.114.445 4.427-.636 2.313-1.08 6.953-4.728 9.206-5.73 2.253-1.004 2.546-.165 3.95-.127 1.403.037 1.22-.288 4.459.35 3.239.64 9.794 2.568 14.937 3.476 5.143.908 10.564 1.966 15.877 1.962 5.312-.005 10.531-.312 15.75-1.987 5.22-1.674 11.394-5.358 15.068-7.895 3.673-2.538 4.468-3.994 6.69-7.134 2.222-3.14 5.397-7.714 6.548-11.576 1.151-3.862-.011-8.067.145-10.877.157-2.81.7-3.886.798-5.956.099-2.07.11-4.353-.206-6.418-.315-2.064-1.715-2.03-1.671-5.877.044-3.847 3.272-9.231 1.93-16.864-1.34-7.633-7.038-19.208-9.787-27.856-2.75-8.647-7.038-18.4-6.7-24 .338-5.602 3.737-1.52 8.314-2.738s13.63-3.565 19.127-4.566c5.498-1.002 8.862-1.026 13.792-1.43 4.93-.406 9.59-2.593 15.782-1 6.193 1.592 11.53 8.23 20.096 10.228 8.566 1.999 25.162 1.253 30.194 1.504 5.032.25 4.75-21.403.228-23.729-4.522-2.326-25.69-38.3-30.042-43.021-4.351-4.72-18.859-22.334-26.111-28.321-7.252-5.988-8.94-6.276-16.529-6.884z"/><path d="M920.908 288.583c4.658-3.763 7.586-9.766 8.887-15.61 1.6-7.188-.048-14.86-1.755-22.023-2.751-11.544-8.14-22.355-13.485-32.952-4.724-9.367-12.881-16.995-16.34-26.9-2.03-5.814-.505-12.444-2.32-18.329-3.862-12.514-10.744-24.002-17.882-34.982-9.21-14.17-20.28-27.135-31.892-39.415-10.836-11.46-22.471-22.273-35.062-31.771-14.078-10.62-29.649-19.126-44.924-27.936-16.158-9.32-31.898-19.82-49.376-26.337-14.503-5.408-29.95-8.144-45.276-10.303-6.546-.922-13.195-.85-19.8-1.114-12.619-.503-25.248-1.014-37.876-.893a459.2 459.2 0 0 0-30.872 1.323c-11.429.882-22.721 3.4-34.177 3.812-8.32.299-16.638-1.34-24.955-.978-14.869.646-29.634 3.052-44.296 5.61-21.665 3.78-43.355 7.965-64.397 14.363a239.343 239.343 0 0 0-33.525 13.04c-12.04 5.755-23.532 12.653-34.724 19.918-17.213 11.172-34.176 22.905-49.72 36.301-9.23 7.954-15.3 19.629-25.676 26.014-2.371 1.46-5.307 1.69-7.953 2.559-9.116 2.994-20.156 2.734-27.293 9.147-5.544 4.981-8.195 12.955-9.325 20.322-.414 2.705 1.827 5.527 1.032 8.146-1.266 4.174-7.516 5.65-8.578 9.88-1.715 6.836 3.457 13.678 4.68 20.618.298 1.684 1.014 3.42.646 5.091-.524 2.375-3.527 3.775-3.873 6.181-1.158 8.046 3.24 16.074 6.594 23.479 5.021 11.08 13.736 20.104 19.91 30.586 6.871 11.662 10.807 25.12 19.029 35.871 4.723 6.177 12.387 9.707 17.022 15.95 2.805 3.78 4.186 8.432 6.259 12.658 4.456 9.082 6.049 20.217 13.285 27.287 9.507 9.29 23.922 11.642 36.247 16.619 14.188 5.73 28.307 12.208 43.311 15.207 38.726 7.742 78.87 4.275 118.285 6.747 10.614.665 21.198 1.992 31.832 2.176 18.552.32 37.113-.724 55.632-1.873 14.352-.89 28.721-1.901 42.962-3.889 16.635-2.322 32.717-9.011 49.51-9.374 8.34-.18 16.43 3.318 24.768 3.588 21.91.71 43.918-1.697 65.557-5.2 7.31-1.182 14.356-3.65 21.571-5.318 11.544-2.669 23.879-2.779 34.744-7.504 7.79-3.387 13.877-9.8 20.92-14.548 5.836-3.934 11.87-7.572 17.677-11.55 3.853-2.639 7.267-5.958 11.382-8.167 4.496-2.413 10.133-2.507 14.314-5.434 3.77-2.64 6.356-6.7 9.022-10.454 3.605-5.077 4.476-12.284 9.33-16.184 2.983-2.396 7.969-1.051 10.944-3.455z"/><path d="M790.537 299.48l49.18-5.53" fill-rule="evenodd" stroke="#676767" stroke-width="5.333212199999999" stroke-linecap="round"/><path d="M635.397 61.536l55.663 28.337s-9.51 45.964-10.39 69.723c-.88 23.76 5.33 71.964 5.33 71.964l-35.422 7.084s-35.778-3.724-47.613-3.978c-11.835-.253-23.23.942-23.23.942l-48.16-23.932m25.894-134.96l77.928-15.18s4.122-21.401 9.31-31.779c4.466-8.93 16.249-22.805 19.432-26.277.516-.562.61-2.06.61-2.06M505.854 61.536l51.614 15.18-25.894 134.96s-1.488 1.877-8.243 5.225c-6.754 3.348-33.67 7.574-33.67 7.574s-15.784-3.242-28.827-4.577c-13.042-1.334-51.718 1.184-51.718 1.184l-19.648-13.811s2.934-17.115 8.792-37.347c7.445-25.714 18.406-56.866 20.88-68.713 4.418-21.17 2.714-19.434 2.714-19.434m-31.528-48.514s.676 1.586.304 2.16c-.581.895-3.797 10.292-7.254 16.407-3.202 5.664-7.458 9.245-8.46 12.11-2.54 7.265-1.64 9.74-1.64 9.74l48.578 8.097 84-20.241s1.718-15.894 5.461-25.557c2.978-7.687 18.152-29.581 18.158-30.353.006-.77.029-1.405.029-1.405M489.662 224.475s-10.537 43.663-12.652 67.211c-2.115 23.549.508 73.464.508 73.464s24.087 8.89 37.577 10.35c13.49 1.46 42.374-2.253 42.374-2.253s3.055-28.834 5.068-44.357c2.013-15.523 4.186-33.207 7.078-48.762 2.892-15.555 10.12-44.52 10.12-44.52" fill="none" stroke="#676767" stroke-width="5.333"/><path d="M650.578 238.644s-.091 29.289-4.688 60.738c-2.427 16.6-7.791 36.247-10.593 43.348-8.555 21.676-20.14 28.492-20.14 28.492l57.458-21.123s8.635-.612 19.26-8.021c10.625-7.41 23.604-29.92 23.604-29.92s-.488-1.501-2.027-14.073c-1.538-12.572-6.2-61.465-6.2-61.465M691.06 89.873s24.608.357 38.294 1.658c13.685 1.301 43.682 6.438 43.682 6.438s10.108-12.702 14.217-19.95c2.847-5.022 5.685-12.395 7.16-16.449.652-1.795 2.571-4.72 2.571-4.72M773.036 97.97s26.74 31.594 34.5 51.58c7.76 19.984 10.03 65.817 10.03 65.817l-54.65 13.157s-11.907-1.757-21.317-.731c-9.41 1.026-34.347 8.827-34.347 8.827" fill="none" stroke="#676767" stroke-width="5.333"/><path d="M762.915 228.524l27.622 70.957s-40.008-2.889-52.623.39c-12.615 3.278-22.435 12.287-22.435 12.287M817.566 215.367l12.144 8.096s7.176-3.143 13.258-4.018c6.082-.874 23.176-.03 23.176-.03s5.788.349 11.832-3.955c4.839-3.445 14.455-17.65 18.098-23.179.907-1.377 1.988-1.72 1.988-1.72M409.117 221.082s-14.012 52.028-16.992 74.178c-2.98 22.15-.632 56.734-.632 56.734s44.229 23.506 59.638 23.517c15.41.011 26.387-10.36 26.387-10.36" fill="none" stroke="#676767" stroke-width="5.333"/><path d="M391.493 351.993s-16.22 4.057-28.155 4.036c-11.935-.02-29.54.41-42.709-6.274-13.169-6.684-31.869-32.39-31.869-32.39s12.357-4.61 20.41-17.708c8.052-13.099 17.735-74.983 17.735-74.983s33.983-3.608 44.314-7.436c10.33-3.828 18.25-9.967 18.25-9.967M373.277 73.68s-36.409 22.157-51.21 33.245c-14.803 11.089-37.85 32.538-37.85 32.538l-12.145-10.12-4.161-6.723s-20.347-.474-32.371 10.565c-12.538 11.51-5.958 18.007-8.653 26.684-1.623 5.226-7.444 6.896-7.497 12.268-.107 10.879 6.532 22.12 6.532 22.12s-4.465 2.59-5.097 7.937c-.632 5.346 2.83 11.484 7.528 21.592 4.7 10.11 22.435 37.872 22.435 37.872l37.972 55.706M829.71 223.463s-.288 18.223 1.53 27.85c1.82 9.628 8.834 22.014 9.675 29.34.842 7.326-1.198 13.296-1.198 13.296l47.68 4.406s-.556-23.327-3.932-36.667-17.321-42.273-17.321-42.273M887.397 298.355s2.664.727 4.558.003c3.486-.675 13.396-6.139 15.993-4.185M557.47 373.247l57.686-2.025" fill="none" stroke="#676767" stroke-width="5.333"/><path d="M326.905 224.674s-4.605-3.77-10.66-6.898c-3.395-1.753-9.253-2.201-15.47-4.557-4.873-1.847-10.724-5.875-10.724-5.875s-2.314-17.274-5.02-23.507c-2.705-6.233-9.376-14.447-9.376-14.447l8.561-29.927M275.655 169.39l-49.733 24.867M707.252 236.62L686 231.56M290.051 207.344l-39.263 54.314" fill="none" stroke="#676767" stroke-width="5.333"/></svg>