<svg xmlns="http://www.w3.org/2000/svg" xmlns:dc="http://dublincore.org/documents/dcmi-terms/" height="792" version="1.2" viewBox="0 0 612 792" width="612"><metadata><dc:description>Silhouette of Grampus griseus, processed by PhyloPic Tools (https://github.com/eweitz/phylopic-tools)</dc:description><dc:source>http://phylopic.org/image/78d1f7fa-aece-4f92-bacf-843418d95723</dc:source><dc:creator>Chris huh</dc:creator><dc:license>http://creativecommons.org/licenses/by-sa/3.0/</dc:license></metadata><path d="M292.699 355.3c.533.133 1.084.3 1.65.5l5 2.25 5.15 3.2c.6.4 1.1.783 1.5 1.15l5.649 4.4 7.9 4.9 4.149 1.95c.733.3 1.467.567 2.2.8.733.233 1.45.466 2.15.7.733.2 1.483.383 2.25.55.767.133 1.55.267 2.35.4.834.133 1.717.25 2.65.35.934.1 1.916.183 2.95.25 1.033.066 2.149.133 3.35.2 1.2.067 2.467.117 3.8.15l25.851 2.3c.733.133 1.433.267 2.1.4.634.1 1.233.233 1.8.4.601.133 1.134.283 1.601.45.5.167.966.333 1.399.5.467.167.884.367 1.25.6.367.2.717.417 1.05.65.367.2.7.433 1 .7.334.267.617.534.851.8.267.267.5.583.7.95.233.333.483.817.75 1.45l5.149 11.5c.233.5.434.95.601 1.35.166.4.283.783.35 1.15.1.334.167.633.2.9.066.533 0 1-.2 1.399-.167.366-.45.7-.85 1-.233.167-.617.366-1.15.601l-3.1 1.199-16.95 4.45-7.95 1.101-9 .55-1.05 2.05c-1.667 3.3-3.834 6.316-6.5 9.05-2.667 2.7-5.8 5.067-9.4 7.101-2.1 1.133-3.717 1.783-4.85 1.949l-.5.051c-.834 0-1.25-.384-1.25-1.15v-.1l.1-.15.15-.3c.2-.3.467-.65.8-1.05l7.75-9.851 3.8-6.649.05-.25-49.199.5-11.601.6-8.55 2c-.733.233-1.45.467-2.15.7a31.625 31.625 0 0 0-3.8 1.399c-.566.234-1.133.5-1.7.801a25.31 25.31 0 0 0-1.649.85c-.533.267-1.067.566-1.601.9-.5.333-1.017.684-1.55 1.05-.866.6-1.733 1.167-2.6 1.7-.867.5-1.717.967-2.55 1.399-.801.434-1.584.817-2.351 1.15-.733.3-1.417.55-2.05.75l-1.9.6-.199.101-1.351 2.25c-2 3.266-4.167 5.816-6.5 7.649-.366.267-.7.517-1 .75-.3.2-.583.366-.85.5-.4.2-.717.3-.95.3h-.15c-.232-.066-.316-.3-.25-.699.067-.367.301-.884.7-1.551.101-.166.2-.35.3-.55l.25-.75.65-3.2c.066-.399.066-.684 0-.85a.47.47 0 0 0-.25-.35 2.377 2.377 0 0 0-.55-.051h-.101c-.133 0-.316-.016-.55-.05l-2.55-.8c-.467-.166-.9-.316-1.3-.45a7.332 7.332 0 0 0-1.351-.3l-7.649-.6a9.763 9.763 0 0 1-1.15-.15 18.162 18.162 0 0 1-.899-.2c-.467-.167-.783-.35-.95-.55-.134-.233-.15-.517-.05-.85.1-.234.3-.5.6-.801.333-.266.733-.55 1.2-.85l1.6-.9a18.913 18.913 0 0 1 1.851-.899l3.85-1.2c.3-.066.684-.133 1.15-.2l8.5-.3c.433-.033.8-.066 1.1-.1.333-.066.6-.117.8-.15.434-.133.75-.334.95-.6.267-.301.517-.684.75-1.15 1.934-3.633 6.217-8.4 12.85-14.3.768-.667 1.533-1.317 2.301-1.95.8-.666 1.6-1.316 2.399-1.95l2.5-1.899c.867-.634 1.733-1.25 2.601-1.851.899-.633 1.8-1.25 2.699-1.85.9-.6 1.817-1.184 2.75-1.75.934-.567 1.851-1.134 2.75-1.7.967-.567 1.917-1.1 2.851-1.6a116.307 116.307 0 0 1 5.6-3c.967-.467 1.9-.9 2.8-1.3.967-.434 1.9-.85 2.801-1.25l.899-.4c.333-.167.65-.35.95-.55l.9-.6c.333-.2.633-.417.899-.65.3-.267.601-.517.9-.75.3-.267.583-.533.85-.8l.8-.8c.268-.3.518-.583.75-.85.233-.3.45-.583.65-.85l.6-.9c.367-.567.65-1.134.851-1.7.167-.4.283-.733.35-1 .101-.3.167-.6.2-.9.066-.3.1-.617.1-.95l-.05-1.25c-.033-.5-.083-.967-.149-1.4-.067-.434-.15-.85-.25-1.25a4.525 4.525 0 0 0-.5-1.25c-.2-.434-.434-.867-.7-1.3a11.362 11.362 0 0 0-1.05-1.5c-.367-.534-.817-1.1-1.351-1.7a61.58 61.58 0 0 0-1.75-2 122.196 122.196 0 0 0-2.25-2.4c-.399-.467-.733-.85-1-1.15-.267-.3-.467-.55-.6-.75a4.961 4.961 0 0 1-.3-.6 1.83 1.83 0 0 1 0-.6l.1-.9 2.4.05c.533 0 1.066.033 1.6.1l1.599.301z" fill="#010101" fill-rule="evenodd"/></svg>