<svg xmlns="http://www.w3.org/2000/svg" xmlns:dc="http://dublincore.org/documents/dcmi-terms/" height="783" viewBox="0 0 1547 783" width="1547"><metadata><dc:description>Silhouette of Gulo gulo gulo, processed by PhyloPic Tools (https://github.com/eweitz/phylopic-tools)</dc:description><dc:source>http://phylopic.org/image/1f9bbb79-f060-47c1-9954-ea78812d3b91</dc:source><dc:creator>Steven Traver</dc:creator><dc:license>http://creativecommons.org/publicdomain/zero/1.0/</dc:license></metadata><path d="M0 185c5.285-4.382 9.687-9.647 17-12 1.352-.982 1.999-2.668 3-4 7.207-1.793 12.376-5.624 19-8 11.771-12.099 29.52-17.487 43-28 9.809-7.65 18.819-20.362 30-30 .692-.596 2.289-.354 3-1 8.532-7.748 16.728-16.792 26-25 2.177-1.927 4.189-2.911 6-5 3.439-3.969 8.603-10.22 12-16 1.041-1.771 1.642-4.531 3-6 1.902-2.058 5.998-1.512 6-5 1.163-.163 1.779.221 2 1 8.208-4.792 14.435-11.565 23-16 1.484.437-.395 1.28 0 3 6.946.279 8.514-4.819 13-7 3.147-.088 8.18-.98 10-5-.36 3.937 6.786.233 10-1 1.023-2.14.031-.631 2-1 1.131-.212.559-.986 0-1 1.539-1.174 5.862-3.026 6 0 3.093-.344 5.807-5.084 8-6 .528-.221 4.67 3.222 2 0 2.213-1.148 4.975 1.154 8-1 2.63-1.873 6.982-6.385 13-4-.027-.973-1.224-.776-2-1 1.402-2.913 3.445 1.773 6 1 6.133-4.806 13.074-1.611 22-4 1.701-.455 2.644-1.834 4-2 2.131-.261 4.673.973 7 1 3.074.036 5.553-1.221 8-1 2.072.188 1.244 1.814 2 2 7.577 1.863 17.771-.097 26 1 2.172.29 1.378 1.586 3 2 4.512 1.151 9.712-.327 14 1 2.88 1.674-5.11.796-7 1 2.53 2.472 14.309-.104 12 4h9c-.162 1.172-1.823.843-3 1 1.008 3.896 3.442.155 7 1 6.073 1.593 10.542 4.791 17 6 .256-2.985 2.884-.944 7-2-2.423 3.15.192.596 3 2 .432.216 2.396 2.592 4 3 4.083 1.039 9.915.016 15 1 .37.072-2.429 1.824-3 1 1.672 2.411 11.593.914 11-1 .734 3.6 8.266.4 9 4 3.156.489 3.531-1.802 7-1 .368 1.701-.78 1.887-2 2 1.386 2.28 6.96.373 10 1-.027.973-1.224.776-2 1 .92 2.726 3.126-1.397 6 0-.162-1.172-1.823-.844-3-1 .847-2.931 3.22.598 5 0 1.151-.109.536-1.104 0-1 7.302-1.418 17.339 1.618 25-1-.027-.973-1.224-.776-2-1 .85-2.934 2.517 1.301 5 0 1.72-1.468-1.299-2.111 3-1 1.567-.354-.875-1.761 1-2h3c2.557-.044 1.219.743 1 2 3.129-.204 7.341.674 9-1 3.775 3.621 10.409-.52 15-2 .315 3.331 4.74-3.011 4 2 3.105-.693 10.594-3.646 18-4 2.838-.135 6.187-1.57 5-2 3.45 1.25.529 2.376 0 4 .791-1.13 14.647-.89 11 2 4.47.271 3.843-4.55 8-2-.496-2.091 3.182-1.758 5-4-.489 3.836 6.388-1.066 11-1-3.321-3-.57-1.111 3-1 .146-.59-1.441-1.254-2-1 3.209-1.458 13.818-.81 18 0-.296-1.734 3.848-2.007 6-2 1.135-.19.555-1.003 0-1 4.381-2.5 7.977-.07 11-3 2.739.51.871 2.419 5 3 6.823-1.177 12.982-3.018 20-4-.19.81-1.003.997-1 2 4.294-.039 7.363-1.304 10-3 6.439 2.721 11.879-1.459 18-2 3.605-.318 7.393 1.33 11 1 6.237-.57 12.093-4.544 19-5 5.801-.382 11.337 2.308 18 1 .168-2.168-3.547-.453-5-1-.731-1.903 3.758-1.172 5-1 .109.015 3.034.685 4 1 .75.245-2.071 1.306-2 1-.476 2.034 7.189.475 6 1 .145 2.812-2.449 2.884-5 3 4.31 3.69 14.666 1.334 22 2-.027.973-1.224.776-2 1 4.207 1.793 10.132 1.868 13 5 6.361-1.143 17.84-1.928 23-1-.745 2.255-5.609.391-8 1 5.599 2.068 14.925.408 21 2 1.135-.19.556-1.003 0-1 7.322-.037 21.59.086 31-1-.31-1.357-2.504-.83-4-1h-5c-1.824-.777.6-1.075 2-1h5c3.804 2.132 6.578-.055 10-1 2.041-1.105 1.442 1.743 2 2 2.224 1.025 8.229-1.631 5 2 2.965-2.369 9.01-1.657 13-3-2.306 4.561 6.049-.374 8 2 1.135-.19.556-1.003 0-1 3.178-2.46 10.422-.46 14 0-.769-3.384 6.628-1.392 11-2 6.127-.853 12.633-4.511 20-3-3.313 3.432 5.029.847 4 5 1.602-2.269 4.949-.367 7-1 1.321-.408.198-1.135 0-1 1.43-.974 4.917-2.316 7-3 1.444-.474 3.184-.064 3 0 3.832-1.337 10.825-4.39 18-6-.437 1.23-1.279 2.054-3 2 5.151 2.45 15.47-3.829 22 0 6.445-5.222 21.647-1.686 30-5h64c6.458 2.208 17.16.173 24 2-3.249 3.16 2.982.371 2 4 6.912-.049 15.213 2.093 24 2-6.724 1.368 3.013 4.247 5 2 6.693 4.16 11.766 6.506 19 8 2.949.609 6.499-.368 10 1 .327.128-1.526 1.47-2 1 1.208 1.199 2.168.18 4 1 .94.421 1.492 2.768 2 3 2.272 1.041 5.717.752 9 2 7.646 2.907 9.991 6.824 20 7-6.206 3.24 7.526.663 3 5 4.199-2.072 8.186 4.261 15 6 5.327 1.36 11.619-1.296 14 1 .186.179-7.268 2.27-5 1 1.583 2.083 6.996.337 9 2-1.5 2.326-2.445 1.526-5 1 4.493 8.507 16.658 9.342 28 11-5.871 2.352.877 1.704 4 3-.125 2.208-4.242.425-6 1 3.389 1.735 3.779 4.245 4 7 .079-.299 5.671 1.176 4 0 .493.347.391 2.084 0 2 1.713.368 3.146-1.097 5-1 1.578.083 3.675 1.606 6 2 4.352.736 10.638.808 13 2 2.008 1.014 2.009 4.583 5 4-.125 2.208-4.242.425-6 1 .02 2.664 6.879 1.638 3 5-4.038 3.5 1.114 2.977 7 5 .356.123.767 1.938 1 2 .934.246 2.219-.91 2-1 1.601.661-.51 1.619 3 2 2.998.325 3.889 1.361 6 2 .8.242 2.282-.408 3 0 .303.172-.26 1.74 0 2 .833.833 2.836.498 4 1-.125 2.208-4.242.425-6 1 .259 2.809 4.72 3.023 7 5 1.069.927 2.984 3.953 7 3-3.731 1.778.188 3.295 4 3 .169 2.168-3.547.453-5 1-1.146 2.204 2.689 2.414 3 3 .293.552-1.505 2.124 0 3 .971.565 3.073-.625 4 0 .699.472-1.988 1.188-2 1 .163 2.592 4.376 1.736 8 1-1.984 2.306.251 1.111 1 3 4.664.664 6.425-1.576 10-2-.437 1.23-1.279 2.054-3 2 .431 2.236 4.928.405 7 1 .957 3.624-4.316 1.017-5 3 2.813-.121 2.357 3.713 4 5 3.245 2.542 8.229 3.308 12 6 3.457 2.467 5.605 5.514 9 8 .044 2.558-.743 1.219-2 1 .822 4.25 6.193 3.567 9 5 1.475.752 2.599 2.209 4 3 5.094 2.874 12.456 6.282 15 13-3.19.857-3.093-1.574-5-2-.712 2.595 7.56 4.874 7 7-.879 3.339 13.247 9.074 19 13 1.117 6.107 9.538 11.537 14 17 1.097 1.343 1.027 2.885 2 4 5.416 6.208 12.277 9.862 18 15-.03 2.963-.627 5.661 3 9-.027.973-1.224.776-2 1-1.029 2.792 4.755 4.813 6 7 .267.468-1.51 1.388-1 2 .445.535 1.298-.703 1-1 9.218 9.194 15.034 20.656 27 28 1.008 3.008-2.228 1.772-4 2 6.892 15.442 17.275 27.392 27 40 .044 2.557-.743 1.219-2 1-.681 4.223 2.051 5.647-1 7 3.282 6.717 7.96 12.041 10 20-4.631-3.746-.213 8.746-6 5 5.176 17.491 17.739 27.594 29 39-4.695 1.208-1.31 4.552-3 8-2.729.729-2.013-1.987-4-2-.521 1.479-1.479 2.521-2 4 .122 2.545 1.455 3.878 4 4 2.303 5.697 5.118 10.882 7 17 1.271 3.396 5.546 3.787 6 8h-3c1.756 5.06.893 7.561 4 13 .512.896-.04.905 0 1 .499 1.169 1.169.277 1 0 3.209 5.276 5.174 9.706 13 16-.257 2.341-4.394.576-5 0-.351 3.474 5.085 3.797 2 7-4.221-.918-5.71.613-8-3-1.342.202-1.862 4.153-2 0-2.715-.28 1.02 5.976 1 3 2.1-.871-1.449 5.088 1 2 1.484.437-.395 1.279 0 3 .279 2.055 2.671 1.996 4 3 .282 1.615-.945 1.722-1 3 5.827 2.308 4.746 21.838 6 29 .521.386 1.479 4.857 2 2 1.458.551-.867 2.76 1 5 .869 1.044 1.791-.04 3 3 .417 20.094 2.195 41.063 2 60 2.095 1.232 1.43-.745 1 4 .973-.027.776-1.225 1-2-.503 6.422 4.391 13.623 8 19v36c-2.7 1.967-2.059 7.275-7 7-1.973 7.693-4.285 15.048-12 17-2.523 7.143-6.132 13.201-9 20-4.257.06-9.383.007-12 4-1.78-.553-4.153-.514-5-2-3.887 2.931-5.207 6.674-7 13-.748 2.638-4.487 5.355-5 7-.133.427 3.223 5.519-2 4 .84 1.161 1.319 2.681 1 5-8.301 3.5-9.261-5.615-15-10-.815-.623-3.035.41-4 0-3.098-1.316-2.987-4.662-6-5-6.838 5.007-12.401-2.752-15-8-3.01 2.467-4.462 1.288-9 1-5.079-6.255-10.611-12.055-14-20-2.62-1.579-3.442-4.951-7-3-4.9-6.1-4.394-17.606-7-26-2.224 1.651-5.423-.213-6 1-3.16.493-.371-4.962-4-4-.596-19.191 5.085-38.985-1-55-1.38 1.953-1.4 5.267-4 6-1.927-1.852-.79-1.832-4-1-3.073-4.397-5.664-13.015-3-20-1.002-3.847-4.036-1.858-6-3-2.47-6.682-.281-20.064-1-31 1.674-2.88.796 5.109 1 7 2.28-1.387.373-6.961 1-10-.31-1.357-2.504-.829-4-1-.66-8.673 1.325-19.991-1-27l.5-1.5-1.5.5c-.291-5.94-2.479-14.536 0-20-2.651 1.175-5.889-1.917-6 0-4.544-2.456-3.732-10.268-6-15-.673 4.66-4.833 5.834-7 9 2.183 5.817 7.674 8.326 10 14-2.091.424-2.647-.686-4-1-2.651 1.446 3.672 2.233 2 6-1.966 1.848-6.184.308-8-1-2.117.911 1.887 4.019 1 7-2.86-2.953-1.829 2.41-2 5-2.513 1.891-5.357-2.261-5 3-.973-.027-.776-1.224-1-2-2.235.725-.484 5.702 2 5-.923 4.589 2.502 4.831 2 9 .19 1.135 1.003.556 1 0 .09 1.834 1.271 6.962 2 11 .973-.027.776-1.225 1-2 3.824 3.892-2.459 6.157-1 11-2.039.294-1.961 2.706-4 3 3.009 6.909 13.792 18.065 13 28-.194 2.435-1.457.816-2 2-1.321 2.881-.847 10.089-5 8 1.02.163.98 6.104 2 3 .104.695.649 10.971 3 9 .828 3.75 2.387 2.155 3 9 3.401-2.916.296-.818 1 1 .567 1.466.968-.027 1 0 4.583 3.842 7.113 13.014 7 19-.045 2.366-1.681.991-2 2-.527 1.662 1.021 2.708 1 3-.162 2.199-3.101 6.625-3 10 .246 8.282 3.549 13.661 9 20-.981 1.615-2.668 2.302-4 1-.745 3.078 2.745 1.922 2 5-3.154 2.012-5.556 2.139-8 1 4.861 6.805 6.036 17.297 8 27-3.119 1.214-3.011 5.656-4 9-2.729-.729-2.013 1.987-4 2-.228 1.772 1.008 5.008-2 4 1.786 13.706-6.039 24.872-13 33-2.995-.658.956-2.138 0-4-6.846 5.488-9.855 14.812-20 17-2.284 1.716-5.052 2.948-7 5-1.16-.839-2.681-1.319-5-1-.127-1.794 1.225-2.109 1-4-18.691 3.758-38.88 11.862-61 16-2.954.553-5.987.476-9 1-9.449 1.646-19.279 6.088-31 7-6.161.479-12.842-.52-19 0-2.21.187-5.1 1.655-8 2-9.308 1.105-14.421 3.088-21 9-11.043 1.855-21.941.148-33 1-11.105.855-22.963 5.149-35 0-4.83 2.837-10.94 4.393-17 6h-10c-11.54-1.46-17.996-8.004-23-16-10.372-.039-21.916-1.249-26 5-11.867-.8-22.551-2.782-21-17-2.329-5.004-9.219-5.447-16-6 2.83-2.17 5.725-4.275 10-5-.515-3.485-6.533-1.467-10-2 5.337-6.33 10.269-13.064 23-12 3.196-7.287 15.849-10.395 22-4 4.05-.95 6.824-3.176 12-3 5.916-5.418 12.149-10.517 25-9 3.663 2.618 8.565 5.954 14 5 5.702-1.001 6.279-7.655 12-11 8.224-4.809 21.104-.489 32-1 10.706-.502 22.498-5.874 29-12 3.228-3.041 4.987-5.752 9-9 1.412-1.143 4.105-3.544 5-4 .894-.455 3.058.534 4 0 .267-.151-.268-2.945 0-3 1.465-.299.451 5.097 5 3 .427-.196 1.003-2.001 1-2 3.048-.701 5.596 4.144 5 0-.91-1.757-3.504-1.829-5-3-.826-2.826 1.409-2.591 1-5-1.017.649-1.034 2.3-3 2 1.443-3.224.945-8.388 1-13-5.172-3.495-7.796-9.538-13-13-.261-2.928 2.261-3.072 2-6-6.709-2.291-10.19-7.81-13-14-7.061 2.453-12.326-2.114-16-6-3.094 1.573-3.421 5.912-4 10 .973-.027.776-1.225 1-2 1.357.31.83 2.504 1 4 .044 2.558-.743 1.22-2 1 .047 7.08-4.821 8.62-2 16 1.172-.161.844-1.823 1-3 1.674.679 1.987 11.764-1 8 .068 3.402.312 6.979-2 8 2.352 4.052-1.939 9.543-4 14-3.514 7.599-5.551 10.08-11 16-2.698 2.932-4.956 6.715-8 8 .521-1.479 1.479-2.521 2-4-6.103-.77-6.519 4.147-11 5-5.22 1.135-9.712-1.087-15-1-2.367.039-5.351 2.01-8 2-1.777-.006-2.131-1.205-4-1-4.886.536-10.403 1.257-18 2-14.387 1.408-20.902 7.158-30 8-2.54.235-5 .125-8 0-9.057-.376-26.028-6.617-39-5-4.531.564-9.333.219-14 1-10.691 1.791-21.925 4.436-31 10-5.389 3.304-15.021 1.958-24 3-2.824.328-6.111 2.396-9 3-1.553.325-3.494-.48-5 0-7.608 2.429-12.701 7.69-24 5-2.577-.613-6.769-2.172-10-4-6.719-3.802-14.969-9.59-27-10-9.289 6.322-29.107 5.227-33-5-.196-3.863-.035-7.369 1-10-1.918-3.415-9.162-1.505-14-2 .134-3.866 4.056-3.944 5-7-3.176-6.194-9.453-6.071-18-5 3.224-7.442 13.883-7.451 23-9-1.891-3.109-6.13-3.87-10-5 6.265-4.923 19.084-2.626 27-1 .23-4.136 6.391-2.938 4-7 4.408-.259 7.735-1.598 13-1 7.819-6.029 21.056-10.273 30-1 14.379-2.508 29.312 1.443 43-1-.027-.973-1.225-.775-2-1 7.445-1.555 13.632-4.368 22-5-4.881-2.781 2.594-1.857 6-2-.19.81-1.003.997-1 2 4.258.591 6.614-.719 10-1-1.182-1.434-5.305-1.895 0-2 3.73-.604 4.905-3.761 9-4 .091-2.06 8.41-4.439 12-3 1.13-.878-.24-3.17 3-1-.104-3.325 1.974.995 3-3 11.205-2.063 18.54-12.297 27-20 3.143-2.861 7.415-4.791 10-8 2.158-2.679 4.31-7.175 6-11 2.38-5.385 4.009-9.943 4-18-.869-2.908-1.497-1.125-4-1-.226-.931.282-2.087 0-3-.48-1.557-.893.049-1 0-1.624-.738.081-3.834-4-3 .34-2.007-.204-3.129-2-3 1.18-5.514-1.724-6.943-2-11-3.059.726-2.941-1.726-6-1v-7c-.752-.436-1.63 3.488-1 4-2.758-2.242-1.157-17.775-5-20-.835 3.351-.981 4.34-3 8-5.438-3.463-10.452-10.916-17-16-3.966.397 1.907 1.749 2 2 .729 1.966-2.729 4.496 2 5-.31 1.357-2.504.829-4 1-3.183 1.035 5.183 3.965 2 5-3.056 2.326-8.473.33-11-1-7.367 4.22-6.804 2.989-16 2-1.101-3.232-2.699-5.968-4-9-3.384 2.282-4.799 6.534-5 12-1.771-.895-1.274-4.059-5-3-2.244-.045 1.336 2.701 0 4-.104.102-1.864-1.353-2-1-.718 1.867.816 4.077-2 7-4.753-.58-6.952-3.715-9-7-2.246.42-.027 5.306-2 6-9.618-.269-11.334-10.733-19-10 .17-2.503-1.536-3.131-3-4-.515 3.131 2.734 4.464-2 4 1.254 3.045.764 3.889-1 6-6.959.818-9.273-5.078-12-11-3.729.097-.067 3.903-2 4-4.146.271-3.896-1.313-7 0-2.351-10.201-14.874-4.178-17-14-2.806 2.305-5.394-2.011-9-2-1.043-1.486-1.59-4.017-3-6-.834-1.173-2.012-.084-3-1-3.083-2.86 2.132-4.34-2-5-3.183-.509-3.721 7.115-9 4-5.208 3.375-1.165 10.025-9 11 1.063 5.063-2.956 5.044-4 8-3.19.594-3.093-1.877-5 0-5.473 4.193-3.735 15.598-9 20-3.19.594-3.093-1.877-5 0-3.125 8.208-10.128 12.538-10 24-3.651.874-4.491.989-7 0 1.705 6.705-4.496 5.504-4 11h-4c.697 6.755-1.697 6.755-1 0-1.646.136-1.646 6.864 0 7-.641 4.359-4.308 5.692-4 11-1.701.368-1.887-.78-2-2-3.16 1.507-3.066 6.268-3 11-3.624-5.905-.947 1.846 1 4 .044 2.558-.743 1.22-2 1 .649 3.649-.674 5.326-2 7-.418-1.273-3.489-1.248-3-1-5.628-2.854-2.846-5.869-8-3-3.233 1.8-4.748 5.739-6 12-3.15 1.121-2.264.09-6 0-1.91 3.757-3.173 8.16-4 13-2.603.996-6.015.215-9-1-3.176 3.49-3.029 10.305-5 15-6.666-2.35-6.715 2.675-9 7-1.701.368-1.887-.78-2-2-2.009 1.991-3.421 4.578-3 9-5.428 3.307-9.994 9.979-17 12-1.423.41-5.011-.333-8 0-4.617.515-8.162 1.857-13 2-2.395.07-5.503-1.123-8-1-2.962.146-4.985 1.206-7 1-5.219-.533-9.95-4.194-15-4-4.567.176-16.689 5.013-21 8-3.057 2.118-5.178 4.758-7 8-4.542 3.62-10.1.14-16 1-6.49.946-11.852 5.915-18 9-10.495 5.267-26.354-.2-34-10-11.781.568-22.616-3.885-32-2-3.124.627-5.207 4.088-9 3-3.586.253-3.664-3.003-7-3-3.896-.501-3.618 3.902-5 6-3.228 4.897-7.434 9.998-11 16-1.31 2.204-.92 5.118-3 8-6.093 8.445-19.213 13.699-34 15-8.976.79-19.473-.138-29 1-3.406.406-7.843.936-11 1-2.642.054-4.246-1.449-8 0-4.741 1.83-9.677 5.924-14 9-8.928 6.354-17.9 14.477-29 16-10.549 1.447-17.778-3.659-28-5-4.566-.599-10.916-.283-17 0-8.306.387-19.163-.157-25 1-6.047 1.199-11.292 6.976-18 9h-9c-6.945-2.722-9.952-9.381-17-12-7.326 1.915-15.255 10.359-23 9-7.407-1.3-8.65-9.695-12-17-4.938-1.396-11.692-.975-18-1 3.931-5.603-3.868-2.766-6-5 2.773-5.27 5.581-9.604 10-13 4.604-3.537 10.827-3.891 14-9 .178-5.512-8.175-2.492-11-5 5.262-6.071 13.234-9.433 24-10 1.895-2.772 3.659-5.675 7-7 7.773-3.634 21.299.914 31 1 6.847.061 13.083-2.934 20-3-.1-4.1-.197-8.196 1-11 7.271-6.166 16.636-3.049 25-5 4.975-1.16 11.049-6.028 18-9 6.704-2.866 14.27-5.105 20-7 1.816-.601 8.564-6.697 11-9 3.11-2.94 5.283-6.709 8-9 1.384-1.167 3.547-.895 5-2 1.308-.995 1.849-2.875 3-4 2.233-2.183 4.693-3.965 6-7 3.723-1.387-2.943-.15-2-2 10.227-11.439 25.9-17.433 38-27 .745-4.529-2.745 1.529-2-3 4.943-3.724 8.95-8.383 12-14-2.007.34-3.129-.204-3-2 8.813-4.188 13.765-12.235 21-18-.823-3.053-2.812-2.398-1-6 4.62-9.714 10.587-18.079 15-28 3.404-1.067-2.783-.312-1-3 2.91-3.215 6.31-6.22 9-10 2.607-3.663 3.412-8.982 8-11 .971-7.362 2.837-13.83 4-21-3.132-1.198.304-4.072-4-5 1.547-1.453 2.1-3.9 2-7-5.662-3.658-1.541-19.043-3-24-1.128 2.639-1.183-4.035-5-2-.586-2.081-2.102-3.232-3-5v-7c-3.23-3.771-5.958-8.042-12-9-4.887-5.779-10.712-10.622-14-18-2.549-1.784-5.833-2.833-8-5-2.18-5.82-5.967-10.033-9-15-2.521-1.075-6.658.254-9-1-5.087-8.913-10.467-17.533-14-28-3.805-.96-5.447-4.937-8-8-.576-.691-1.309-2.285-2-3-1.598-1.655-3.799-1.571-6-4-3.793-4.187-6.657-11.726-9-19-8.913-1.088-12.086-7.914-15-15-5.165-3.171-8.651-4.946-15-5-4.127-1.206-5.557-5.11-9-7-.707 4.003-4.693.057-6 2-3.722-4.944-9.219-8.115-15-11-6.119 1.561-10.497-.47-15-3-1.067 2.885-3.033 3.315-6 2-3.417.75-1.271-4.063-5-3-1.778 1.867-2.542-.813-6 0-3.233-1.464-7.906-6.72-11-5 2.54.097 2.54 3.903 0 4-7.405-.966-16.069-8.948-24-3-9.445-2.68-19.308-5.318-31-3-4.633.918-10.533 5.505-17 8-13.799 5.324-30.69 8.64-45 15-6.611 2.938-12.514 5.846-23 4-10.951-1.927-23.906-5.905-33-14-.685-2.239-3.005-5.011-1-7-2.576-1.424-5.658-2.342-6-6-.483-3.15 4.584-.749 5-3-5.898-7.498-16.082-15.833-14-28 14.683.65 18.453 12.214 32 14 2.155-.845-.375-6.375 2-7 4.344 3.844 4.078-3.327 6-5 4.021-.688 5.708.958 9 1 1.705-3.962 3.896-7.438 6-11 5.002-.588 7.585 5.175 11 3-.129-5.796.175-11.158 2-15 5.149-1.111 8.354 4.928 12 2-3.688-3.393-4.687-17.437 1-20-12.054-3.279-23.95-6.717-37-9-3.417-.75-1.271 4.063-5 3-3.572-1.428-6.25-3.75-10-5-1.852 1.481-1.498 5.168-5 5-3.541.541-2.459-3.541-6-3-.66 4.463-6.211 1.814-8 3-2.34 7.409-5.696 16.176-7 25-.503 3.407 1.816 7.682-2 10-6.326-.171-8.887-7.017-11-12-2.3-5.423-2.345-12.738-6-17-.936 4.731-3.401 7.933-8 9-2.867-1.8-5.578-3.756-8-6-.057-4.943-.987-9.013-3-12-10.373 2.364-17.666-6.994-23-13-1.378-1.289-.99-4.344-1-7-9.742 1.075-13.49-3.844-17-9v-4zm627 417c-1.891.225-2.206-1.127-4-1-5.835 6.498-13.855 10.812-16 21-11.125 6.208-20.53 14.137-30 22-2.356.022-2.944-1.723-6-1-3.061 3.272-5.036 7.631-9 10-6.396-.376-12.409 4.897-11 9 4.401-1.233 7.626.677 12 0 3.7-.572 6.335-3.415 10-4 5.841-.933 11.923.682 19 0 5.927-3.406 10.36-8.307 17-11 5.969-14.031 10.715-29.284 22-38-.05-14.389 15.284-18.71 14-31-5.4 8.6-9.694 18.306-18 24z" fill-rule="evenodd"/><path d="M1379.5 511.5c.607-7.257-1.253-15.183 1-22" fill="none" stroke="#000" stroke-width="1.23" stroke-linecap="round"/></svg>