<svg xmlns="http://www.w3.org/2000/svg" xmlns:dc="http://dublincore.org/documents/dcmi-terms/" height="755.046" version="1.2" viewBox="100.409 126.499 522.146 755.046" width="522.146" overflow="inherit"><metadata><dc:description>Silhouette of Gypaetinae, processed by PhyloPic Tools (https://github.com/eweitz/phylopic-tools)</dc:description><dc:source>http://phylopic.org/image/578507a2-fc98-47b3-b956-e54b2f204c2f</dc:source><dc:creator>L. Shyamal</dc:creator><dc:license>http://creativecommons.org/licenses/by-sa/3.0/</dc:license></metadata><path d="M591.632 126.512c-9.885.837-18.909 12.261-27.47 19.547-23.181 19.739-64.151 65.032-64.151 65.032-.016-.016 34.039-39.42 46.867-58.838 2.272-3.439 1.152-12.299 1.152-12.299s-4.895 2.414-7.952 4.732c-11.343 8.605-20.79 20.668-30.3 32.52-10.907 13.598-32.666 44.025-32.666 44.025l-36.296 51.09s-13.183 19.648-18.793 31.383c-9.652 20.188-14.037 37.548-24.322 65.13-10.284 27.58-26.15 51.969-37.743 69.142-11.592 17.175-16.33 21.34-27.24 24.486-6.398 1.845-9.308-3.52-15.852-4.748-5.062-.95-16.733-.095-16.733-.095-7.69-.084-3.674.251-10.266-.963 0 0-7.664-1.444-9.493 3.885 6.134-1.321 14.113 7.245 14.113 7.245s4.377 10.235 7.259 14.502c3.726 5.519 8.25 4.57 9.1 11.176 1.445 11.262-.479 17.25-11.637 34.71-11.156 17.463-27.245 41.731-48.473 62.125-21.227 20.394-35.421 31.315-50.114 48.19-8.542 9.811-21.328 29.7-21.328 29.7l-32.485 53.607s-19.252 32.059-27.399 47.47c-7.1 13.433-14.439 26.887-17.83 40.715-.913 3.725-1.173 9.195-1.173 9.195s8.566-2.517 10.82-5.968c12.723-19.485 35.37-66.37 35.393-66.361 0 0-25.307 55.57-34.214 84.685-3.289 10.75-10.18 23.583-7.022 32.986 2.119 6.306 12.847-6.92 15.614-13.442 8.774-20.682 24.567-66.853 24.567-66.853l9.007-1.265-2.9 12.789s-12 35.105-15.52 52.706c-2.282 11.402-1.658 18.13-1.991 31.512-.108 4.317 5.556-1.095 8.366-5.758 11.91-19.782 27.91-77.616 27.91-77.616s-10.218 40.763-11.687 60.467c-.459 6.14-1.452 8.865.58 15.584 1.573 5.202 8.598-4.993 11.982-10.497 8.995-14.622 16.26-49.312 16.26-49.312l2.207.237s-3.744 24.594-2.29 36.57c.396 3.264 1.535 8.604 1.535 8.604s8.415-6.133 11.297-10.348c4.737-6.92 9.123-23.443 9.123-23.443s2.512 1.485 3.855 1.295c4.233-.607 7.837-4.01 10.536-7.328 3.79-4.654 7.069-16.568 7.069-16.568s4.02 4.506 6.639 4.26c4.05-.384 8.888-8.385 8.888-8.385l5.535-10.51s6.888-1.173 9.242-3.47c3.832-3.737 5.996-14.9 5.996-14.9s8.009.922 11.21-1.027c5.057-3.083 9.554-14.975 9.554-14.975s7.782-2.229 10.3-5.122c2.672-3.067 3.887-11.566 3.887-11.566s6.655.653 9.005-1.267c3.4-2.773 4.42-12.4 4.42-12.4s9.74-1.36 13.323-4.362c3.286-2.756 6.07-11.342 6.07-11.342s4.827-1.202 6.522-2.861c3.558-3.48 6.307-13.548 6.307-13.548s8.3-5.365 11.596-8.976c5.1-5.586 7.536-13.19 12.216-19.13 9.342-11.857 21.019-21.678 31.388-32.647 2.526-2.675 7.567-4.391 7.503-8.067-.053-3.032-6.415-6.447-6.415-6.447s14.537-1.693 20.134-5.883c1.312-.98 2.653-4.136 2.653-4.136l3.718-5.837s29.91 27.14 48.294 34.38c5.065 1.997 12.459-.24 12.459-.24s25.532 10.067 29.458 2.441c.81-1.575-3.083-4.335-3.083-4.335s10.62 3.244 22.15 4.075l1.465 1.044s19.183 1.24 18.086-5.652c-2.444-15.372-17.854-33.475-17.854-33.475s4.076 2.485 5.199 1.117c5.44-6.633-13.946-26.08-13.946-26.08s-.899-7.663-4.742-11.519c-13.948-13.995-50.714-30.672-50.714-30.672l3.858-5.715s2.38-2.49 2.76-4.09c1.626-6.803-2.61-20.82-2.61-20.82s5.664 4.478 8.468 3.324c3.4-1.402 2.97-6.713 4.42-10.093 5.949-13.872 10.319-28.497 17.49-41.778 3.594-6.657 9.596-11.907 12.695-18.807 2.004-4.46 3.638-14.21 3.638-14.21s8.146-6.512 9.926-11.16c.85-2.215.048-7.119.048-7.119s6.772-5.962 7.996-10.071c1.333-4.481-1.295-13.95-1.295-13.95s8.435-4.773 9.632-8.995c.827-2.918-2.43-8.764-2.43-8.764s7.341-4.489 9.096-8.159c1.655-3.46.61-11.496.61-11.496s9.116-8.854 9.935-14.717c.519-3.714-3.487-10.7-3.487-10.7s9.36-6.42 11.27-11.422c1.172-3.072-.467-9.859-.467-9.859l7.42-9.262s5.429-7.587 4.173-11.456c-.813-2.502-6.537-4.413-6.537-4.413s9.628-7.758 12.394-13.085c1.97-3.794 3.654-8.44 2.528-12.566-.358-1.308-2.713-3.027-2.713-3.027s13.425-10.595 17.895-17.69c2.72-4.319 5.015-14.476 5.015-14.476s-5.357 1.083-8.512 2.017c-11.567 3.421-32.65 16.632-32.65 16.632l-1.09-1.931s28.932-20.467 38.779-34.531c3.707-5.292 10.283-15.77 4.885-15.147-6.973.804-9.078 2.8-14.53 5.659-17.502 9.174-50.831 34.742-50.831 34.742s46.684-37.652 60.107-56.441c3.165-4.43 5.901-11.797 1.983-9.985-12.15 5.621-18.571 7.72-28.129 14.343-14.752 10.223-42.216 35.215-42.216 35.215l-10.578 7.716-2.412-8.75s36.1-32.843 51.597-49.11c4.428-4.648 11.321-17.488 7.64-19.438-.38-.202-.886-.293-1.506-.24z"/></svg>