<svg xmlns="http://www.w3.org/2000/svg" xmlns:dc="http://dublincore.org/documents/dcmi-terms/" height="160.688" version="1.2" viewBox="0 0 472.549 160.688" width="472.549" overflow="inherit"><metadata><dc:description>Silhouette of Gyps, processed by PhyloPic Tools (https://github.com/eweitz/phylopic-tools)</dc:description><dc:source>http://phylopic.org/image/accd5ffa-b8c2-49ff-af5b-c47bcdda95cf</dc:source><dc:creator>Shyamal</dc:creator><dc:license>http://creativecommons.org/licenses/by/3.0/</dc:license></metadata><g fill="#010101" stroke="#010101" stroke-width=".103"><path d="M73.689 95.94l-.156 1.219-4.25 9.594-3.25 7.375c-1.317 5.929-1.828 12.043-3.281 17.937-.756 2.391-1.757 4.292-3.188 5.531-9.151 6.554-21.5 6.897-31.062 7.969-15.698.471-28.674-.53-42.469-2.563-2.906-.428-13.375-3.969-13.375-3.969l-10.531-2.938s-9.906-1.169-14.156-1.531c-3.488-.297-11.625-.718-11.625-.718l-4.969.281s-16.736-1.865-23.938-2.406a210.04 210.04 0 0 0-10.188-.5c-6.955-.149-23.187.156-23.187.156s-7.649-.09-13.5 1.344c-5.851 1.434-16.031 2.344-16.031 2.344s8.439 3.587 15.312 3.25c6.873-.337 16.781-.125 16.781-.125s-23.783 1.221-31.469 3.906c-3.784 1.322-9.282 4.062-9.282 4.062s7.307 2.068 10.531 2.469c4.482.557 20.156 1.937 20.156 1.937l-33.531 4.781s4.23 2.969 10.188 3.375c7.641.52 15.656.5 15.656.5s-12.454 3.661-15.407 5.375l-9.875 5.719s8.654.665 12.282.281c3.627-.384 7.433-1.692 11.719-2.781 4.286-1.089 16.812-4.562 16.812-4.562s-15.246 6.452-20.406 9.312c-5.16 2.861-17.344 8-17.344 8s12.141 1.157 16.25.5c0 0 10.16-2.406 14.343-3.937 5.85-2.141 18.813-8.719 18.813-8.719l-21.219 11.875s-8.122 5.469-10.312 7.469c-2.19 2-4.625 5.281-4.625 5.281s9.948-.972 13.563-2c3.614-1.028 10.437-4.499 10.437-4.499l11.719-6.782-1.594 3.813s-3.953 2.965-7.313 5.906c-3.163 2.77-9.812 9.47-9.812 9.47s5.664-.608 7.812-1.157c3.52-.9 6.985-3.664 10.188-4.688 1.32-.421 4.532-.843 4.532-.843l-7.375 7.437s4.841.486 6.781-.593c1.843-1.024 5.5-2.656 5.5-2.656l3.687-1.938-.187 5.407s3.545-.299 5-.75c1.007-.313 3.188-1.532 3.188-1.532l1.937 7.719s4.142-1.706 7.437-3.906c1.041-.694 3.656 2 3.656 2l4.719 1.438 1.281 1.906 4.875.219 1.812 5.25 6.125-1.625 2.5 3.343 4.937.22 5.688 1.812 3.562 2.969 3.562-.969 1.188 2.156 4.218-1.875 3.25 1.438 3.625-1.438 3.625 2.5 4.531-.844 2.687 2.375 3.063-1.062 4.469 3.625 3.781-2.437 4.687 1.656 5.125-1.25 3 3.406 2.375-3.125 3.031 3.406 4.344-3.343 5.406.281 5.781.843 5.969-.156 2.906-3.563 3.031-4.53 5.031-.875 5.906.5-23.656 26.906c13.603 11.6 29.99 20.5 48.125 19.531 12.273-.593 20.181 2.339 48.375-20.094l-23.657-26.906 5.907-.5 5.031.875 3.03 4.531 2.907 3.562 5.969.156 5.78-.843 5.408-.281 4.342 3.343 3.032-3.406 2.375 3.125 2.999-3.406 5.125 1.25 4.689-1.656 3.781 2.437 4.468-3.625 3.062 1.062 2.688-2.375 4.531.844 3.626-2.5 3.624 1.438 3.251-1.438 4.219 1.875 1.187-2.156 3.562.969 3.564-2.969 5.686-1.812 4.938-.219 2.501-3.344 6.124 1.625 1.812-5.25 4.876-.219 1.28-1.906 4.719-1.438s2.616-2.694 3.658-2c3.295 2.2 7.436 3.906 7.436 3.906l1.937-7.719s2.182 1.219 3.188 1.532c1.455.451 5.001.75 5.001.75l-.189-5.407 3.689 1.938s3.656 1.632 5.499 2.656c1.941 1.079 6.781.593 6.781.593l-7.375-7.437s3.209.422 4.532.843c3.202 1.024 6.668 3.789 10.186 4.688 2.148.55 7.813 1.157 7.813 1.157s-6.65-6.7-9.812-9.47c-3.359-2.941-7.313-5.906-7.313-5.906l-1.593-3.813 11.717 6.782s6.823 3.471 10.439 4.499c3.614 1.029 13.561 2 13.561 2s-2.435-3.282-4.623-5.281c-2.19-2-10.313-7.469-10.313-7.469l-21.218-11.875s12.962 6.578 18.813 8.719c4.181 1.531 14.343 3.937 14.343 3.937 4.109.657 16.249-.5 16.249-.5s-12.183-5.139-17.344-8c-5.159-2.861-20.406-9.313-20.406-9.313s12.527 3.473 16.812 4.562c4.287 1.089 8.094 2.397 11.719 2.782 3.628.384 12.283-.281 12.283-.281l-9.875-5.719c-2.953-1.714-15.407-5.375-15.407-5.375s8.016.019 15.655-.5c5.957-.405 10.188-3.375 10.188-3.375l-33.531-4.781s15.673-1.381 20.155-1.937c3.225-.4 10.533-2.469 10.533-2.469s-5.497-2.74-9.282-4.062c-7.685-2.685-31.468-3.906-31.468-3.906s9.907-.212 16.78.125c6.875.337 15.313-3.25 15.313-3.25s-10.18-.91-16.032-2.344c-5.85-1.434-13.499-1.344-13.499-1.344s-16.233-.305-23.187-.156c-3.058.065-7.136.27-10.188.5-7.202.541-23.938 2.406-23.938 2.406l-4.968-.281s-8.137.421-11.626.718c-4.249.363-14.156 1.532-14.156 1.532l-10.531 2.937s-10.469 3.541-13.376 3.969c-13.794 2.032-26.771 3.033-42.469 2.563-9.563-1.072-21.911-1.415-31.062-7.968-1.432-1.239-2.433-3.141-3.188-5.532-1.454-5.894-1.965-12.009-3.281-17.937l-3.25-7.375-4.523-10.25z" transform="matrix(.98097 0 0 .96505 163.927 -92.4)"/><path d="M238.345 132.314l-40.999 2.062c-13.406 1.272-26.072 4.389-38.845 8.469-24.117 3.14-47.149 6.67-69.749-3.969-4.033 8.469-2.581 19.908-15.687 21.688l-.188.563c-13.106-1.779-11.654-13.219-15.687-21.688-22.601 10.638-45.631 7.108-69.75 3.969-12.771-4.08-25.438-7.196-38.844-8.469l-41-2.062s2.13 8.992 4.844 11.687c9.544 6.448 25.426 3.195 36.281 5.719 4.707 1.535 12.347 10.235 16.969 12 19.148 7.339 33.217 10.533 52.438 17.656 5.738 2.265 18.719 8.501 18.719 8.501l9.031 12.718 1.313-16.405 4.281 26.999s3.937 13.054 6.062 18.469c2.465 6.278 14.5 18.907 14.5 18.907l1.156-1.469c.298.378.719.907.719.907s12.036-12.628 14.5-18.906c2.125-5.416 6.062-18.47 6.062-18.47l4.283-26.999 1.312 16.405 9.031-12.718s12.981-6.235 18.718-8.5c19.221-7.124 33.29-10.318 52.438-17.657 4.623-1.765 12.263-10.465 16.969-12 10.855-2.524 26.737.73 36.28-5.719 2.713-2.696 4.843-11.688 4.843-11.688z" transform="matrix(.98097 0 0 .96505 163.927 -92.4)"/></g></svg>