<svg xmlns="http://www.w3.org/2000/svg" xmlns:dc="http://dublincore.org/documents/dcmi-terms/" height="188.244" width="188.814"><metadata><dc:description>Silhouette of Haemobartonella, processed by PhyloPic Tools (https://github.com/eweitz/phylopic-tools)</dc:description><dc:source>http://phylopic.org/image/56d01eab-d085-4f8b-a1ab-262f3aaad052</dc:source><dc:creator>Matt Crook</dc:creator><dc:license>http://creativecommons.org/licenses/by-sa/3.0/</dc:license></metadata><g transform="translate(-208.9 -429.316)" color="#000" stroke="#000" stroke-linecap="round" stroke-linejoin="round"><path d="M237.598 487.342a9.314 8.279 0 1 1-18.627 0 9.314 8.279 0 1 1 18.627 0z" style="marker:none" transform="matrix(.00047 .69791 -.78515 .00052 608.818 317.084)" fill="#666" stroke-width="2.702" overflow="visible"/><path d="M237.598 487.342a9.314 8.279 0 1 1-18.627 0 9.314 8.279 0 1 1 18.627 0z" style="marker:none" transform="matrix(.00047 .69791 -.78515 .00052 608.836 343.99)" fill="#666" stroke-width="2.702" overflow="visible"/><rect height="14.074" ry="7.037" style="marker:none" transform="rotate(9.489)" width="24.064" x="287.312" y="438.112" fill="#333" stroke-width="2" overflow="visible"/><rect height="14.074" ry="7.037" style="marker:none" transform="rotate(110.224)" width="24.064" x="408.719" y="-476.614" fill="#666" stroke-width="2" overflow="visible"/><path d="M237.598 487.342a9.314 8.279 0 1 1-18.627 0 9.314 8.279 0 1 1 18.627 0z" style="marker:none" transform="matrix(.00047 .69791 -.78515 .00052 684.645 432.66)" fill="#333" stroke-width="2.702" overflow="visible"/><path d="M237.598 487.342a9.314 8.279 0 1 1-18.627 0 9.314 8.279 0 1 1 18.627 0z" style="marker:none" transform="matrix(.00064 .96634 -1.08713 .00072 860.292 284.217)" fill="#666" stroke-width="1.951" overflow="visible"/><path d="M237.598 487.342a9.314 8.279 0 1 1-18.627 0 9.314 8.279 0 1 1 18.627 0z" style="marker:none" transform="matrix(.00064 .96634 -1.08713 .00072 847.856 257.733)" fill="#666" stroke-width="1.951" overflow="visible"/><rect height="14.074" ry="7.037" style="marker:none" transform="rotate(122.759)" width="24.064" x="203.105" y="-576.647" fill="#666" stroke-width="2" overflow="visible"/><rect height="14.074" ry="7.037" style="marker:none" transform="rotate(110.224)" width="24.064" x="366.866" y="-481.02" fill="#666" stroke-width="2" overflow="visible"/><path d="M237.598 487.342a9.314 8.279 0 1 1-18.627 0 9.314 8.279 0 1 1 18.627 0z" style="marker:none" transform="matrix(.00064 .96634 -1.08713 .00072 876.847 280.894)" fill="#333" stroke-width="1.951" overflow="visible"/><path d="M237.598 487.342a9.314 8.279 0 1 1-18.627 0 9.314 8.279 0 1 1 18.627 0z" style="marker:none" transform="matrix(.00064 .96634 -1.08713 .00072 859.039 267.246)" fill="#333" stroke-width="1.951" overflow="visible"/><path d="M237.598 487.342a9.314 8.279 0 1 1-18.627 0 9.314 8.279 0 1 1 18.627 0z" style="marker:none" transform="matrix(.00064 .96634 -1.08713 .00072 835.437 256.5)" fill="#333" stroke-width="1.951" overflow="visible"/><path d="M237.598 487.342a9.314 8.279 0 1 1-18.627 0 9.314 8.279 0 1 1 18.627 0z" style="marker:none" transform="matrix(.00064 .96634 -1.08713 .00072 836.283 282.99)" fill="#333" stroke-width="1.951" overflow="visible"/><rect height="14.074" ry="7.037" style="marker:none" transform="rotate(75.267)" width="24.064" x="540.557" y="-160.475" fill="#666" stroke-width="2" overflow="visible"/><path d="M237.598 487.342a9.314 8.279 0 1 1-18.627 0 9.314 8.279 0 1 1 18.627 0z" style="marker:none" transform="matrix(.00047 .69791 -.78515 .00052 647.348 368.8)" fill="#666" stroke-width="2.702" overflow="visible"/><path d="M237.598 487.342a9.314 8.279 0 1 1-18.627 0 9.314 8.279 0 1 1 18.627 0z" style="marker:none" transform="matrix(.00047 .69791 -.78515 .00052 644.431 339.413)" fill="#333" stroke-width="2.702" overflow="visible"/><path d="M237.598 487.342a9.314 8.279 0 1 1-18.627 0 9.314 8.279 0 1 1 18.627 0z" style="marker:none" transform="matrix(.00047 .69791 -.78515 .00052 653.527 323.677)" fill="#666" stroke-width="2.702" overflow="visible"/><rect height="14.074" ry="7.037" style="marker:none" transform="rotate(96.294)" width="24.064" x="417.066" y="-303.374" fill="#666" stroke-width="2" overflow="visible"/><path d="M237.598 487.342a9.314 8.279 0 1 1-18.627 0 9.314 8.279 0 1 1 18.627 0z" style="marker:none" transform="matrix(.00082 1.23476 -1.3891 .00093 925.873 197.248)" fill="#333" stroke-width="1.527" overflow="visible"/><path d="M237.598 487.342a9.314 8.279 0 1 1-18.627 0 9.314 8.279 0 1 1 18.627 0z" style="marker:none" transform="matrix(.00064 .96634 -1.08713 .00072 870.183 220.05)" fill="#666" stroke-width="1.951" overflow="visible"/><path d="M237.598 487.342a9.314 8.279 0 1 1-18.627 0 9.314 8.279 0 1 1 18.627 0z" style="marker:none" transform="matrix(.00064 .96634 -1.08713 .00072 917.37 218.363)" fill="#666" stroke-width="1.951" overflow="visible"/><path d="M237.598 487.342a9.314 8.279 0 1 1-18.627 0 9.314 8.279 0 1 1 18.627 0z" style="marker:none" transform="matrix(.00064 .96634 -1.08713 .00072 878.057 232.877)" fill="#333" stroke-width="1.951" overflow="visible"/><path d="M237.598 487.342a9.314 8.279 0 1 1-18.627 0 9.314 8.279 0 1 1 18.627 0z" style="marker:none" transform="matrix(.00064 .96634 -1.08713 .00072 902.888 225.41)" fill="#333" stroke-width="1.951" overflow="visible"/><path d="M237.598 487.342a9.314 8.279 0 1 1-18.627 0 9.314 8.279 0 1 1 18.627 0z" style="marker:none" transform="matrix(.00064 .96634 -1.08713 .00072 911.608 266.797)" fill="#666" stroke-width="1.951" overflow="visible"/><path d="M237.598 487.342a9.314 8.279 0 1 1-18.627 0 9.314 8.279 0 1 1 18.627 0z" style="marker:none" transform="matrix(.00064 .96634 -1.08713 .00072 870.633 273.861)" stroke-width="1.951" overflow="visible"/><path d="M237.598 487.342a9.314 8.279 0 1 1-18.627 0 9.314 8.279 0 1 1 18.627 0z" style="marker:none" transform="matrix(.00064 .96634 -1.08713 .00072 814.318 243.268)" fill="#666" stroke-width="1.951" overflow="visible"/><path d="M237.598 487.342a9.314 8.279 0 1 1-18.627 0 9.314 8.279 0 1 1 18.627 0z" style="marker:none" transform="matrix(.00064 .96634 -1.08713 .00072 812.67 255.272)" fill="#333" stroke-width="1.951" overflow="visible"/><path d="M237.598 487.342a9.314 8.279 0 1 1-18.627 0 9.314 8.279 0 1 1 18.627 0z" style="marker:none" transform="matrix(.00047 .69791 -.78515 .00052 756.178 316.572)" fill="#333" stroke-width="2.702" overflow="visible"/><path d="M237.598 487.342a9.314 8.279 0 1 1-18.627 0 9.314 8.279 0 1 1 18.627 0z" style="marker:none" transform="matrix(.00047 .69791 -.78515 .00052 689.959 331.104)" stroke-width="2.702" overflow="visible"/><path d="M237.598 487.342a9.314 8.279 0 1 1-18.627 0 9.314 8.279 0 1 1 18.627 0z" style="marker:none" transform="matrix(.00064 .96634 -1.08713 .00072 796.514 236.243)" fill="#333" stroke-width="1.951" overflow="visible"/><rect height="14.074" ry="7.037" style="marker:none" transform="rotate(20.224)" width="24.064" x="398.15" y="342.465" stroke-width="2" overflow="visible"/><rect height="14.074" ry="7.037" style="marker:none" transform="rotate(20.224)" width="24.064" x="413.26" y="409.691" fill="#333" stroke-width="2" overflow="visible"/><rect height="14.074" ry="7.037" style="marker:none" transform="rotate(13.888)" width="24.064" x="410.691" y="445.298" fill="#333" stroke-width="2" overflow="visible"/><rect height="14.074" ry="7.037" style="marker:none" transform="rotate(32.232)" width="24.064" x="537.074" y="323.574" fill="#333" stroke-width="2" overflow="visible"/><path d="M237.598 487.342a9.314 8.279 0 1 1-18.627 0 9.314 8.279 0 1 1 18.627 0z" style="marker:none" transform="matrix(.00082 1.23476 -1.3891 .00093 955.698 229.929)" fill="#333" stroke-width="1.527" overflow="visible"/><path d="M237.598 487.342a9.314 8.279 0 1 1-18.627 0 9.314 8.279 0 1 1 18.627 0z" style="marker:none" transform="matrix(.00064 .96634 -1.08713 .00072 803.99 273.492)" stroke-width="1.951" overflow="visible"/><path d="M237.598 487.342a9.314 8.279 0 1 1-18.627 0 9.314 8.279 0 1 1 18.627 0z" style="marker:none" transform="matrix(.00064 .96634 -1.08713 .00072 768.391 273.516)" stroke-width="1.951" overflow="visible"/><path d="M237.598 487.342a9.314 8.279 0 1 1-18.627 0 9.314 8.279 0 1 1 18.627 0z" style="marker:none" transform="matrix(.00064 .96634 -1.08713 .00072 787.037 301.237)" stroke-width="1.951" overflow="visible"/><path d="M237.598 487.342a9.314 8.279 0 1 1-18.627 0 9.314 8.279 0 1 1 18.627 0z" style="marker:none" transform="matrix(.00064 .96634 -1.08713 .00072 824.292 303.282)" stroke-width="1.951" overflow="visible"/><path d="M237.598 487.342a9.314 8.279 0 1 1-18.627 0 9.314 8.279 0 1 1 18.627 0z" style="marker:none" transform="matrix(.00064 .96634 -1.08713 .00072 853.686 309.471)" fill="#333" stroke-width="1.951" overflow="visible"/><path d="M237.598 487.342a9.314 8.279 0 1 1-18.627 0 9.314 8.279 0 1 1 18.627 0z" style="marker:none" transform="matrix(.00047 .69791 -.78515 .00052 690.848 423.136)" stroke-width="2.702" overflow="visible"/><path d="M237.598 487.342a9.314 8.279 0 1 1-18.627 0 9.314 8.279 0 1 1 18.627 0z" style="marker:none" transform="matrix(.00047 .69791 -.78515 .00052 674.707 427.286)" stroke-width="2.702" overflow="visible"/><rect height="14.074" ry="7.037" style="marker:none" transform="rotate(-20.726)" width="24.064" x="-9.076" y="643.884" stroke-width="2" overflow="visible"/><path d="M237.598 487.342a9.314 8.279 0 1 1-18.627 0 9.314 8.279 0 1 1 18.627 0z" style="marker:none" transform="matrix(.00064 .96634 -1.08713 .00072 869.365 234.538)" stroke-width="1.951" overflow="visible"/><path d="M237.598 487.342a9.314 8.279 0 1 1-18.627 0 9.314 8.279 0 1 1 18.627 0z" style="marker:none" transform="matrix(.00082 1.23476 -1.3891 .00093 1041.763 179.785)" stroke-width="1.527" overflow="visible"/><rect height="14.074" ry="7.037" style="marker:none" transform="rotate(27.665)" width="24.064" x="530.364" y="298.307" stroke-width="2" overflow="visible"/></g></svg>