<svg xmlns="http://www.w3.org/2000/svg" version="1.2" width="600.546" height="182.5" viewBox="0 0 600.546 182.5"><path d="M585.296 141.25c5.04 11.63 12.64 20.69 11 39-24.62-1.74-24.39-36.93-52-39-5.53 7.54-21.04 4.7-32 3-34.47-5.35-82.87-9.9-114-15-35.33-5.79-73.11-13.72-111-12-44.62 2.03-90.34 2.11-136 5-38.63 2.44-77.36 7.05-114-2-1.93.41-.79 3.88-4 3 .78-.89 1.08-2.26 1-4-2.23 6.8-5.31-1.92-4 4-1.31-.35-1.57-1.76-3-2-4.95-.51.56-4.57 0-7-4.74-.88-2.26 9.01-7 5-4.36.08 1.21-3.92 0-7-1.57 4.9-3.11 3.07-4 5-2.06-2.67-3.7-.14-2-5-4.25 5.93-2.2-.89 0-4-2.51-2.77-1.83 6.11-6 5 .46-3.2 3.81-3.53 4-7-2.04-2.62-2.1 5.17-6 4 1.23-2.1 2.77-3.9 4-6-22.91-28.03 26.87-36.41 53-39 12.21-1.21 25.85-3.73 39-6 20.98-3.62 53.91-15.12 74-4 15.48.1 20.22-13.62 39-15 6.38-11.08 17.02-7.83 29-11 3.69-.98 5.43-4.18 9-6 6.7-3.42 15-1.95 24-4 7.25-1.65 12.89-6.25 21-7 7.93-.73 14.55-.69 20-5 14.47 1.32 27.91-4.17 36 3 16.87-.65 31.43 9.07 45 15 29.07-2.64 65.87 3.04 82 22 11.91 1.43 18.88 7.79 23 17 11.59 3.75 20 10.67 23 23 25.161 12.18 28.64 46.02 58 54z"/></svg>