<svg xmlns="http://www.w3.org/2000/svg" version="1.2" width="185.5" height="408.649" viewBox="0 0 185.5 408.649" overflow="inherit"><path d="M159.45 97.1c.301.334.617.667.95 1l2.8 3.15c.301.366.601.717.9 1.05.3.366.6.717.9 1.05.3.367.583.717.85 1.05.267.367.55.717.85 1.051.233.333.483.649.75.949.233.334.483.65.75.95.2.334.417.634.65.9.2.3.384.583.55.85.2.267.367.517.5.75.2.3.384.601.55.9.2.267.367.55.5.85.167.267.334.55.5.851.134.267.267.55.4.85l.4.8c.1.267.216.517.35.75.1.267.184.517.25.75.1.267.184.517.25.75.066.233.134.45.2.65.066.233.116.45.149.649.034.2.051.4.051.601.033.166.05.333.05.5 0 .533.1 1.149.3 1.85.167.667.434 1.4.8 2.2.367.8.834 1.684 1.4 2.65s1.217 2 1.95 3.1c.566.833 1.116 1.667 1.649 2.5.5.833.967 1.634 1.4 2.4.434.8.85 1.583 1.25 2.35.366.733.717 1.467 1.05 2.2.3.733.566 1.434.8 2.1.267.7.483 1.384.65 2.05.166.634.316 1.267.45 1.9.1.6.166 1.2.199 1.8.034.566.051 1.117.051 1.65-.034.566-.101 1.1-.2 1.6-.2 1-.517 1.917-.95 2.75-.2.4-.384 1.066-.55 2a62.17 62.17 0 0 0-.2 1.7c-.033.667-.066 1.4-.1 2.2-.034.5-.067 1.066-.101 1.7 0 .6-.017 1.25-.05 1.949v10.099c.033 1.934.05 3.816.05 5.649 0 1.834-.033 3.617-.1 5.351a121.7 121.7 0 0 1-.2 5c-.066 1.6-.15 3.166-.25 4.7a788.04 788.04 0 0 1-.4 4.35c-.166 1.4-.35 2.767-.55 4.1a57.738 57.738 0 0 1-.6 3.75c-.233 1.233-.467 2.4-.7 3.5-.033.134-.066.284-.1.45a2.503 2.503 0 0 0-.051.5c-.033.167-.05.334-.05.5-.033.2-.05.4-.05.601v1.15a4 4 0 0 1 .05.65c0 .2.017.399.05.6l.101.601c0 .199.017.383.05.55l.1.6c.034.167.084.334.15.5l.6 13.351-.85 7.399-7.5 26.101-.2.699c-.066.233-.116.45-.149.65-.067.2-.834 3.767-2.301 10.7-1.333 6.1-2.033 9.383-2.1 9.85l-3.5 10.4c-.066.2-1.417 3.033-4.05 8.5.033.033.3 2.85.8 8.45.3 3.233.616 5.3.95 6.199l1.402 15.1.101 1.1c.066.367.116.7.149 1 .034.334.084.65.15.95.033.267.083.533.15.8.033.267.083.517.149.75a5.3 5.3 0 0 0 .15.7l.2.6c.066.2.133.384.199.551l.2.5.2.399c.1.167.184.3.25.4.066.133.15.25.25.35.1.134.2.25.3.351.066.1.167.216.3.35.101.134.2.283.301.45.133.166.267.35.399.55.134.167.267.366.4.6.133.2.283.417.45.65.133.233.283.483.449.75l2.75 5 1.051 2.2c.3.7.566 1.383.8 2.05.233.634.434 1.25.6 1.85.167.567.3 1.117.4 1.65.2 1.066.25 2 .149 2.8-.1.8-.35 1.483-.75 2.05-.366.534-.883.95-1.55 1.25-.666.267-1.467.4-2.399.4-.233 0-.434.017-.601.05-.166 0-.316.017-.45.05-.3.067-.517.15-.649.25-.167.134-.25.284-.25.45-.033.2.017.434.149.7 0 .066.017.167.051.3.033.134.066.283.1.45.033.2.066.417.1.65l1.2 14.8c.033.399.05.783.05 1.149.034.367.051.717.051 1.051v.949c0 .268-.017.551-.051.851 0 .233-.017.483-.05.75a4.66 4.66 0 0 0-.05.649l-.1.601c-.067.2-.117.399-.15.6a2.969 2.969 0 0 0-.15.5l-.199.5-.2.5a3.332 3.332 0 0 0-.25.5l-.3.5-1.301 1.9c-.1.133-.183.233-.25.3-.066.1-.149.2-.25.3l-.199.2-.2.2a.786.786 0 0 0-.2.149.488.488 0 0 1-.25.101.393.393 0 0 0-.15.05.79.79 0 0 0-.3.2c-.133.1-.267.217-.399.35a4.525 4.525 0 0 0-.551.4l-.55.55c-.233.2-.467.417-.7.65l-5.25 5.199c-.366.367-.716.733-1.05 1.101l-1 1c-.333.333-.666.649-1 .95l-1 .899-.899.8c-.334.267-.634.517-.9.75-.3.233-.583.45-.85.65a9.872 9.872 0 0 1-.75.6c-.267.167-.5.317-.7.45-.233.167-.434.3-.601.4-.399.2-.733.333-1 .399-.733.134-1.583.217-2.55.25h-2.05c-.4-.033-.8-.05-1.2-.05-.399-.033-.783-.066-1.149-.1a108.89 108.89 0 0 1-1.25-.101 17.44 17.44 0 0 1-1.301-.149l-1.3-.2c-.434-.066-.883-.134-1.35-.2-.434-.066-.884-.133-1.351-.2-.466-.1-.916-.183-1.35-.25-.467-.1-.934-.199-1.4-.3l-1.399-.3c-.434-.1-.884-.2-1.351-.3-.466-.134-.916-.25-1.35-.351a76.1 76.1 0 0 1-1.35-.399 16.146 16.146 0 0 1-1.351-.351c-.434-.133-.85-.267-1.25-.399-.434-.134-.85-.267-1.25-.4a84.894 84.894 0 0 0-1.2-.45c-.399-.133-.8-.283-1.199-.449a23.836 23.836 0 0 0-1.051-.45l-2.399-.7-4.15-.45c-.166 0-.316-.017-.45-.05a4.532 4.532 0 0 1-.55-.15 9.843 9.843 0 0 0-.55-.199 7.406 7.406 0 0 1-.55-.25 8.523 8.523 0 0 0-.55-.301c-.2-.133-.384-.25-.551-.35l-.5-.4a5.678 5.678 0 0 1-.449-.399c-.334-.3-.684-.55-1.051-.75a1.756 1.756 0 0 0-.55-.3 6.665 6.665 0 0 0-.55-.25c-.2-.067-.4-.117-.6-.15-.2-.033-.384-.066-.551-.1h-.747c-.133 0-.25.017-.35.05-.1 0-.2.017-.3.05h-.651a4.388 4.388 0 0 1-.35-.1c-.467-.101-.967-.317-1.5-.65a19.26 19.26 0 0 1-1.75-1.35 46.423 46.423 0 0 1-2.3-2.25 23.158 23.158 0 0 1-1.9-2.301 32.071 32.071 0 0 1-1.85-2.85c-.601-1-1.184-2.1-1.75-3.3-.566-1.2-1.1-2.467-1.6-3.8a86.74 86.74 0 0 1-1.55-4.2c-.467-1.5-.917-3.05-1.35-4.65a94.19 94.19 0 0 1-1.3-5.1c-.4-1.767-.784-3.584-1.15-5.45l-8.6-46.2-10.35 10.2c-.167.2-.333.366-.5.5a5.97 5.97 0 0 0-.45.5 5.704 5.704 0 0 0-.45.4c-.133.133-.267.25-.4.35-.133.134-.267.25-.4.35l-.4.301a2.502 2.502 0 0 0-.4.25l-.4.199-.4.2a1.974 1.974 0 0 1-.4.15 1.969 1.969 0 0 1-.4.149 9.496 9.496 0 0 1-.45.101 2.34 2.34 0 0 0-.45.05c-.133.033-.283.05-.45.05a2.57 2.57 0 0 0-.5.05h-.55c-.267 0-.517-.017-.75-.05-.267 0-.5-.017-.7-.05-.2 0-.383-.017-.55-.05a3.636 3.636 0 0 0-.45-.15c-.267-.066-.45-.166-.55-.3-.1-.134-.117-.267-.05-.4.066-.1.15-.199.25-.3l.25-.25c.1-.066.216-.133.35-.2a.448.448 0 0 1 .2-.05l.2-.1c.066 0 .117-.017.15-.05a.44.44 0 0 0 .2-.051h.2a.448.448 0 0 1 .2-.05h.2a.562.562 0 0 1 .25-.05.768.768 0 0 0 .2-.15c.1-.033.2-.083.3-.149l.3-.2c.066-.066.15-.134.25-.2.133-.1.25-.184.35-.25l.3-.3.3-.3 1.5-1.65c.067-.1.15-.2.25-.3.067-.134.133-.25.2-.35.1-.101.183-.2.25-.301.033-.1.083-.199.15-.3.067-.1.117-.2.15-.3.033-.033.05-.083.05-.15.033-.033.05-.066.05-.1a.606.606 0 0 1 .1-.15v-.05-.2c0-.1-.033-.183-.1-.25-.033-.033-.067-.05-.1-.05h-.1a.451.451 0 0 0-.2.05c-.033 0-.05.017-.05.051-1.767-1.567-2.667-2.417-2.7-2.551a2.69 2.69 0 0 0-.15-.35 3.302 3.302 0 0 1-.2-.35.785.785 0 0 1-.15-.2c-.133-.4-.3-.867-.5-1.4-.7-1.8-1.033-2.767-1-2.899.066-.167.133-.317.2-.45.034-.134.067-.283.1-.45.067-.167.117-.333.15-.5l.1-.5.1-.5c0-.167.017-.333.05-.5 0-.2.017-.384.05-.55v-.55-.5-.551c0-.166-.017-.333-.05-.5 0-.166-.017-.333-.05-.5l-.1-.5a8.632 8.632 0 0 0-.1-.449 8.458 8.458 0 0 0-.1-.45 1.937 1.937 0 0 1-.15-.4 49.476 49.476 0 0 0-.2-.399 1.105 1.105 0 0 0-.15-.351l-.2-.3-.25-.25a1.655 1.655 0 0 0-.25-.2l-.2-.2a.769.769 0 0 0-.2-.149.791.791 0 0 0-.2-.15c-.033-.033-.083-.05-.15-.05a18.634 18.634 0 0 1-.2-.1h-.1c-.2-.334-.434-.684-.7-1.051-.867-1.333-1.283-2.05-1.25-2.149 0-.134.017-.267.05-.4v-.5a2.12 2.12 0 0 1-.05-.5l-.1-.6-.1-.7-.2-.8a19.442 19.442 0 0 1-.2-.9l-.6-2.149a3.579 3.579 0 0 0-.95-1.65c-.5-.5-1.167-.934-2-1.3-.833-.334-1.883-.617-3.15-.851a27.636 27.636 0 0 0-2.1-.35 40.63 40.63 0 0 0-2.4-.25l-4.95-.4c-.367 0-.717-.017-1.05-.05H31.7c-.3.033-.6.05-.9.05-.333.034-.65.051-.95.051l-.9.1c-.333.033-.65.066-.95.1l-3.1.4c-.3.033-.6.083-.9.15-.533-.301-1-.567-1.4-.801-1.667-1-2.517-1.55-2.55-1.649a2.638 2.638 0 0 1-.15-.351 1.888 1.888 0 0 0-.15-.399c-.233-.5-.517-.9-.85-1.2-.333-.3-.683-.483-1.05-.55a.562.562 0 0 0-.25-.05.548.548 0 0 0-.25-.051c-.1 0-.2.017-.3.051-.133 0-.25.017-.35.05-.4.133-.8.35-1.2.649-.4.334-.783.75-1.15 1.25a8.18 8.18 0 0 0-1 1.7c-.1.267-.2.5-.3.7a3.43 3.43 0 0 0-.25.5c-.1.134-.184.267-.25.4a.559.559 0 0 1-.2.199c-.067.101-.133.15-.2.15-.033 0-.066-.033-.1-.1-.034-.034-.05-.084-.05-.15a1.12 1.12 0 0 1-.05-.35c0-.801.1-1.584.3-2.351.2-.767.517-1.533.95-2.3.4-.8.9-1.566 1.5-2.3.6-.767 1.3-1.5 2.1-2.2.8-.733 1.683-1.434 2.65-2.1 1-.7 2.066-1.351 3.2-1.95l2-1.05c.3-.167.583-.317.85-.45.3-.134.567-.267.8-.4l.7-.3c.234-.1.45-.184.65-.25.2-.1.4-.184.6-.25.167-.066.333-.116.5-.15l.5-.1a2.57 2.57 0 0 1 .5-.05h.85c.133 0 .283.017.45.05.133.033.283.066.45.1.133.034.283.067.45.101l.5.2c.3.1.583.183.85.25.3.1.583.183.85.25.267.066.55.133.85.199.267.034.517.084.75.15.267.033.517.066.75.1.267.034.517.051.75.051h1.25c.2-.034.383-.051.55-.051.167-.033.316-.083.45-.149.267-.101.483-.217.65-.351.067-.1.1-.283.1-.55a1.872 1.872 0 0 1-.05-.45 2.82 2.82 0 0 0-.15-.5 15.336 15.336 0 0 1-.2-.649c-.067-.2-.15-.417-.25-.65l-.3-.7a15.045 15.045 0 0 0-.4-.75l-4.55-12.5-.65-1.2a.785.785 0 0 1-.15-.2.791.791 0 0 0-.15-.2.596.596 0 0 1-.1-.15 2.297 2.297 0 0 1-.15-.25l-1.35-2.75-2.35-6.199-2.65-5.4a2.605 2.605 0 0 0-.25-.4 78.12 78.12 0 0 1-.2-.3c-.433-.633-.85-1.233-1.25-1.8-.4-.6-.767-1.184-1.1-1.75a34.363 34.363 0 0 1-1.7-3.25c-.467-1.033-.817-2-1.05-2.9-.233-.899-.35-1.733-.35-2.5a4.98 4.98 0 0 0-.05-.699v-.7a4.994 4.994 0 0 1-.05-.7c-.034-.233-.067-.45-.1-.65a28.562 28.562 0 0 0-.1-.649l-.1-.601a4.618 4.618 0 0 1-.15-.55l-.1-.5a3.53 3.53 0 0 1-.15-.45l-.2-.399a.626.626 0 0 0-.15-.3 1.28 1.28 0 0 1-.15-.301 2.449 2.449 0 0 0-.35-.3h-.15a.448.448 0 0 0-.2.05c-.1.067-.183.117-.25.15h-.45a18.634 18.634 0 0 1-.2-.1c-.333-.167-.633-.483-.9-.95-.3-.5-.567-1.117-.8-1.851-.133-.366-.267-.75-.4-1.149-.133-.434-.25-.9-.35-1.4a7.75 7.75 0 0 1-.25-.95 63.574 63.574 0 0 0-.2-1.05c-.067-.366-.133-.75-.2-1.149a97.23 97.23 0 0 1-.2-1.15c-.033-.4-.083-.8-.15-1.2a17.419 17.419 0 0 0-.15-1.3c-.033-.4-.066-.833-.1-1.3-.034-.434-.067-.884-.1-1.351-.033-.433-.067-.883-.1-1.35l-.1-1.4v-1.399c-.033-.5-.05-.983-.05-1.45v-1.5c-.033-.5-.05-.983-.05-1.45-.033-.5-.066-.983-.1-1.45l-.1-1.449-.1-1.4a16.13 16.13 0 0 0-.15-1.4c-.067-.466-.133-.916-.2-1.35a8.72 8.72 0 0 0-.2-1.3 96.56 96.56 0 0 0-.2-1.25c-.1-.634-.217-1.233-.35-1.8a18.124 18.124 0 0 0-.45-1.601l-3.2-12.5-.2-1.1a5.304 5.304 0 0 1-.2-1 8.321 8.321 0 0 1-.15-.9 8.945 8.945 0 0 1-.15-.85 34.756 34.756 0 0 0-.1-.75c-.033-.27-.05-.52-.05-.753a4 4 0 0 1-.05-.65v-.6c0-.834-.05-1.5-.15-2-.1-.467-.25-.733-.45-.8a.437.437 0 0 0-.2-.051c-.167 0-.35.084-.55.25-.333.267-.733.717-1.2 1.351a1.618 1.618 0 0 0-.2.25.752.752 0 0 0-.15.2l-.2.1a.57.57 0 0 0-.15.1h-.1a.338.338 0 0 1-.25-.1.321.321 0 0 1-.15-.15 1.56 1.56 0 0 1-.2-.25l-.2-.3a1.734 1.734 0 0 0-.2-.45l-.2-.5a16.953 16.953 0 0 1-.2-.649L2.05 160.9l-.2-.8c-.1-.267-.167-.55-.2-.85-.066-.3-.15-.601-.25-.9a7.997 7.997 0 0 0-.15-.95 70.755 70.755 0 0 1-.2-1.05 13.388 13.388 0 0 0-.15-1.05 12.52 12.52 0 0 1-.15-1.1c-.066-.4-.117-.784-.15-1.15l-.35-3.65L0 134.1c0-.399.017-.8.05-1.2.033-.399.066-.783.1-1.149 0-.4.017-.783.05-1.15.033-.366.066-.717.1-1.05.033-.366.083-.717.15-1.05l.1-1c.066-.334.117-.65.15-.95.066-.3.133-.583.2-.85.034-.301.083-.567.15-.801l2.6-10.649c.1-.4.217-.8.35-1.2.1-.4.217-.767.35-1.1.1-.367.217-.733.35-1.101.1-.333.217-.666.35-1 .1-.333.216-.649.35-.95l.4-1c.133-.3.267-.616.4-.949.167-.334.333-.684.5-1.051l2.8-6.5a2.82 2.82 0 0 1 .15-.5c.034-.166.067-.316.1-.449a3.39 3.39 0 0 1 .1-.4c.033-.135.05-.251.05-.351v-.301c0-.433.1-.916.3-1.449.2-.567.483-1.184.85-1.851a14.63 14.63 0 0 1 1.25-1.95c.233-.333.483-.666.75-1 .267-.366.55-.716.85-1.05a33.451 33.451 0 0 1 1.8-1.95c.667-.6 1.333-1.166 2-1.699l.5-.4a4.46 4.46 0 0 1 .5-.35l.5-.301c.133-.1.283-.199.45-.3.167-.1.333-.184.5-.25.133-.1.284-.184.45-.25.166-.066.317-.133.45-.2.167-.033.333-.083.5-.149a2.88 2.88 0 0 0 .5-.15l.5-.1c.167-.033.35-.066.55-.101.2-.033.4-.05.6-.05.167-.033.367-.066.6-.1h.65a4 4 0 0 1 .65-.05h1.3c.2-.034.4-.051.6-.051.167-.033.367-.05.6-.05.2-.033.417-.066.65-.1.2-.033.417-.084.65-.15l.7-.1c.2-.066.433-.117.7-.15l.7-.2c.233-.066.483-.133.75-.199l4.45-1.5c.267-.101.517-.2.75-.301.233-.1.467-.199.7-.3l.7-.3c.233-.1.467-.217.7-.35.2-.101.417-.2.65-.301.2-.1.4-.216.6-.35l.6-.3c.2-.134.383-.25.55-.351.2-.133.367-.25.5-.35h.05l.05-.1a2.12 2.12 0 0 0 .1-.25l.7-2.101c.033-.2.083-.383.15-.55.033-.167.067-.316.1-.45 0-.166.017-.283.05-.35a.7.7 0 0 0-.05-.3c-.033-.134-.1-.2-.2-.2a.451.451 0 0 0-.2.05 2.12 2.12 0 0 1-.25.1c-.333.233-.6.351-.8.351h-.1c-.167-.066-.184-.3-.05-.7.1-.4.35-.983.75-1.75.133-.267.283-.55.45-.85.133-.301.3-.634.5-1 .2-.334.417-.684.65-1.051.133-.233.25-.449.35-.649.1-.2.2-.383.3-.55l.3-.6.2-.5.2-.5c.066-.167.117-.316.15-.45.067-.133.117-.267.15-.4.033-.133.05-.25.05-.35.033-.133.05-.233.05-.3 0-.1-.017-.183-.05-.25-.034-.167-.1-.267-.2-.3-.067-.067-.1-.183-.1-.35v-.3c.033-.1.067-.217.1-.35.033-.133.083-.283.15-.45a1.7 1.7 0 0 1 .2-.45c.066-.167.15-.35.25-.55.066-.167.167-.35.3-.55.1-.2.217-.4.35-.6.133-.233.267-.45.4-.65l.4-.7c.167-.2.333-.417.5-.65a35.074 35.074 0 0 0 1.95-3.1c.3-.533.583-1.05.85-1.55.066-.467.066-.9 0-1.3-1.533-8.934-7.033-10.95-16.5-6.05-5.7 1.434-8.75 3.267-9.15 5.5l-.7-.4c0-.3.017-.6.05-.9.1-1.8.784-3.333 2.05-4.6 1.467-1.233 3.133-2.317 5-3.25.467-.233.933-.45 1.4-.65.067-1.5-.6-2.133-2-1.9-1.433.2-2.583.133-3.45-.2 3.467-2.567 7.4-3.667 11.8-3.3l.9-.1c.6-.033 1.117-.1 1.55-.2.434-.133.784-.3 1.05-.5.267-.233.467-.5.6-.8.1-.3.117-.65.05-1.05s-.217-.833-.45-1.3c-.233-.467-.566-.967-1-1.5a1.325 1.325 0 0 0-.25-.35 1.595 1.595 0 0 0-.2-.25 1.72 1.72 0 0 0-.25-.2 1.655 1.655 0 0 0-.25-.2 1.96 1.96 0 0 0-.25-.1l-.3-.1a.562.562 0 0 1-.25-.05h-.55c-.167.033-.35.067-.55.1-.2 0-.4.033-.6.1-.2.033-.434.083-.7.15-.267.066-.55.133-.85.2L20.15 35.8c-1.2.867-2.183 1.983-2.95 3.35-1.533 2.733-2.333 5.717-2.4 8.95-.267.4-1.3-1.133-3.1-4.6-1.8-3.467-2.15-7.534-1.05-12.2 1.067-4.667 1.617-7.067 1.65-7.2.2-.566.4-1.117.6-1.65.4-1.066.867-2.033 1.4-2.9a14.084 14.084 0 0 1 1.8-2.35c.667-.7 1.417-1.333 2.25-1.9a16.583 16.583 0 0 1 2.75-1.5c.5-.233 1.033-.45 1.6-.65.533-.2 1.1-.383 1.7-.55.6-.2 1.217-.367 1.85-.5.667-.167 1.35-.316 2.05-.45l2.65-.55a5.3 5.3 0 0 1 .7-.15c.233-.066.45-.133.65-.2s.4-.117.6-.15l.5-.2c.167-.067.317-.133.45-.2.167-.066.317-.133.45-.2.1-.067.216-.133.35-.2l.3-.2.25-.25c.1-.066.183-.15.25-.25.066-.1.133-.183.2-.25.034-.1.083-.2.15-.3l.1-.3c.167-.4.367-.767.6-1.1.267-.333.6-.65 1-.95.4-.3.883-.583 1.45-.85.3-.167.617-.316.95-.45.333-.133.7-.25 1.1-.35.267-.1.533-.183.8-.25l.9-.3c.333-.067.667-.15 1-.25.333-.067.683-.15 1.05-.25.367-.067.75-.15 1.15-.25.4-.067.817-.15 1.25-.25l9.7-1.6c3-.467 5.85-.817 8.55-1.05C68.1.117 70.617 0 72.95 0h.25c2.267 0 4.383.1 6.35.3 1.966.233 3.767.567 5.4 1l3.6 1c.333.1.633.183.9.25.3.1.583.2.85.3.267.067.5.15.7.25.233.067.45.133.65.2.167.1.334.183.5.25.134.067.283.133.45.2.134.1.25.183.35.25.101.066.184.133.25.2.067.1.134.184.2.25.066.067.117.15.15.25.066.067.116.15.149.25 0 .067.017.15.051.25v.5c0 .033.017.083.05.15 0 .133.033.25.1.35.033.1.084.2.15.3.033.066.1.133.2.2a.765.765 0 0 1 .199.15c.101.034.2.05.301.05l1.25.05c.066 0 .149.017.25.05.1 0 .199.017.3.05l.3.1c.1.033.217.066.35.1l.7.25 3.3 1.6c.367.2.717.383 1.051.55.333.167.666.35 1 .55.333.2.666.383 1 .55.333.2.649.383.949.55.301.167.601.35.9.55.3.167.583.333.85.5.434.267.834.534 1.2.8.4.267.767.517 1.101.75.333.233.649.467.949.7.267.2.517.4.75.6.467.4.801.75 1 1.05.233.3.301.533.2.7-.033.067-.017.167.05.3.034.066.084.15.15.25.033.066.083.15.15.25l.3.3c.1.133.217.25.35.35.101.133.217.25.351.35.166.133.316.267.449.4l.5.4c.167.133.351.267.551.4.166.167.35.317.55.45l.6.4c.4.3.783.583 1.15.85.366.267.717.533 1.05.8l.9.8c.3.267.583.517.85.75.5.5.917.966 1.25 1.4.333.467.566.867.7 1.2.166.367.217.667.149.9-.066.233-.25.417-.55.55-.1 0-.166.067-.2.2v.4l.101.3.1.3c.033.133.084.25.15.35l.2.4c.066.133.149.267.25.4.066.167.149.316.25.45.1.167.199.317.3.45.1.167.217.333.35.5l2.2 3.35c.033.133.066.233.1.3.067.1.117.2.15.3.033.066.05.133.05.2v.15c0 .034.017.083.05.15a.44.44 0 0 0 .051.2c.033.1.083.2.149.3.033.1.084.216.15.35l2.45 4 .399.6c.101.167.217.35.351.55.1.2.216.4.35.6.1.167.2.35.3.55l2 4.4c.066.133.117.283.15.45.066.133.116.267.149.4.034.167.067.3.101.4.033.133.05.25.05.35.033.1.05.2.05.3v.25c0 .167-.033.3-.1.4-.033.067-.101.1-.2.1h-.2a.785.785 0 0 1-.2-.15c-.333-.2-.583-.3-.75-.3-.066 0-.116.017-.149.05-.033.033-.05.083-.05.15-.034.067-.034.15 0 .25 0 .167.033.367.1.6.067.233.167.5.3.8.101.333.233.717.4 1.15.166.433.366.9.6 1.4.066.167.134.35.2.55.066.167.134.35.2.55.066.167.133.35.2.55.066.167.116.35.149.55l.45 1.75c.033.167.066.35.1.55l.101.5c0 .167.017.333.05.5 0 .167.017.316.05.45v.4c0 .133.017.283.05.45 0 .167.034.333.101.5.033.167.083.35.149.55.034.2.101.4.2.6.066.2.15.4.25.6.101.233.217.45.351.65.1.233.216.467.35.7.134.233.283.483.45.75.133.233.283.467.45.7.166.267.35.517.55.75.166.267.35.533.55.8l.6.8c1 1.233 1.767 2.3 2.301 3.2.533.9.866 1.634 1 2.2.1.6-.017 1.033-.351 1.3-.3.3-.816.45-1.55.45h-.4l-.203.05c-.067 0-.117.017-.15.05-.1.033-.2.084-.3.15a.786.786 0 0 0-.2.149.835.835 0 0 0-.15.2.448.448 0 0 0-.05.2c0 .066.017.134.05.2.034.1.101.2.2.3.101.134.217.267.351.4.1.166.233.35.399.55l.55.55c.167.2.367.417.601.65l9.85 9.449c.233.2.45.384.65.551.233.199.45.366.649.5.167.166.334.316.5.449.167.101.317.184.45.25.134.101.233.167.3.2.101.066.167.101.2.101.134 0 .351.083.65.25.1.1.233.199.399.3.167.133.351.283.551.45.199.166.399.35.6.55l.7.6.75.75c.233.233.5.483.8.75l.8.9c.3.267.601.566.9.899.3.302.6.619.9.952z" fill-rule="evenodd"/></svg>