<svg xmlns="http://www.w3.org/2000/svg" xmlns:dc="http://dublincore.org/documents/dcmi-terms/" height="197.557" width="769.869"><metadata><dc:description>Silhouette of Halitherium, processed by PhyloPic Tools (https://github.com/eweitz/phylopic-tools)</dc:description><dc:source>http://phylopic.org/image/4fa9df10-f49d-455b-8dfc-cd232cfb16d1</dc:source><dc:creator>Zimices</dc:creator><dc:license>http://creativecommons.org/licenses/by-nc/3.0/</dc:license></metadata><path d="M478.656 196.88c-3.788-.527-5.513-1.434-8.108-4.267-1.813-1.98-4.67-4.309-6.35-5.177-4.155-2.15-7.23-6.297-7.23-9.754v-2.865l-14.75-.025c-8.112-.013-16.55-.429-18.75-.923-2.2-.495-10.075-1.417-17.5-2.05-7.425-.632-16.425-1.767-20-2.522-12.015-2.539-35.436-6.34-43-6.978-24.723-2.087-42.72-6.358-57-13.527-4.125-2.07-9.944-4.55-12.93-5.51-2.988-.96-6.813-2.55-8.5-3.532-1.689-.982-5.97-2.753-9.514-3.935-3.544-1.183-9.003-4.097-12.131-6.476-3.129-2.379-6.754-4.873-8.056-5.544-1.303-.67-3.719-2.483-5.369-4.029-3.976-3.725-12.839-8.081-17.365-8.535-17.904-1.793-32.984-3.852-34.635-4.727-1.1-.583-9.65-1.358-19-1.72-10.413-.405-20.487-1.398-26-2.564-6.302-1.333-13.047-1.903-22.5-1.903-11.76 0-14.08.277-18 2.153-2.475 1.184-7.085 3.08-10.246 4.214-3.16 1.134-8.11 3.846-11 6.027-4.958 3.744-17.6 10.106-20.077 10.106-.626 0-3.778 1.63-7.006 3.622-9.545 5.892-14.857 7.43-27.93 8.084-10.433.522-11.982.386-13.75-1.214-2.511-2.273-2.628-8.021-.236-11.607 7.144-10.706 10.129-14.165 16.214-18.79 8.076-6.141 10.02-8.551 16.403-20.348 3.737-6.906 5.515-9.152 8.432-10.649 18.118-9.294 18.025-9.26 25.975-9.587 8.099-.333 11.243-.758 41.221-5.568 16.6-2.664 29.73-5.9 32.5-8.011 2.14-1.63 13.379-4.787 21-5.898 4.4-.642 9.887-1.587 12.193-2.1 2.306-.514 5.456-.954 7-.978 1.544-.024 4.607-.728 6.807-1.564 6.305-2.397 13.137-4.26 25-6.82 6.05-1.305 12.575-3.043 14.5-3.86 1.925-.819 5.525-1.822 8-2.23 2.475-.407 7.477-2.257 11.117-4.111 3.639-1.854 7.396-3.371 8.35-3.371 2.94 0 20.91-5.04 23.141-6.49 3.25-2.113 15.643-4.279 28.892-5.05 6.6-.385 12.9-1.207 14-1.829 1.1-.622 7.4-1.411 14-1.755 6.6-.344 15.15-1.192 19-1.885 8.84-1.59 208.948-.618 217 1.055 5.01 1.041 27.688 2.36 67 3.9 11.55.451 23.025 1.304 25.5 1.894 2.475.59 10.998 1.092 18.94 1.116 20.223.061 32.788 2.428 38.85 7.32 4.872 3.93 10.549 6.396 16.71 7.259 5.842.818 9.924 3.103 17.5 9.795 13.992 12.36 14.56 13.576 11.174 23.917-1.127 3.439-2.43 7.822-2.895 9.74-1.22 5.023-6.767 7.975-15.029 7.996-4.813.013-6.25.353-6.25 1.48 0 .806-1.68 2.606-3.732 4-4.084 2.776-9.893 3.354-13.584 1.352-4.592-2.49-17.72-.713-31.431 4.254-6.035 2.186-14.782 9.867-15.735 13.818-1.281 5.31-5.776 12.424-11.594 18.352-3.29 3.351-7.613 8.831-9.608 12.177-4.991 8.373-6.578 9.982-16.337 16.573-4.687 3.165-9.187 6.556-10 7.535-4.103 4.945-17.952 13.476-21.876 13.476-1.53 0-6.343.945-10.693 2.1-5.656 1.503-12.612 2.295-24.41 2.779-14.365.59-17.018.962-20.5 2.882-7.107 3.92-17.762 8.001-28 10.726-5.5 1.465-12.38 3.529-15.287 4.588-2.909 1.058-7.184 1.927-9.5 1.93-2.721.003-5.63.878-8.213 2.469-4.09 2.519-6.37 2.763-14.812 1.59z"/></svg>