<svg xmlns="http://www.w3.org/2000/svg" xmlns:dc="http://dublincore.org/documents/dcmi-terms/" height="912" version="1.2" viewBox="0 0 728 912" width="728" overflow="inherit"><metadata><dc:description>Silhouette of Haplogynae, processed by PhyloPic Tools (https://github.com/eweitz/phylopic-tools)</dc:description><dc:source>http://phylopic.org/image/bc8cb037-1bda-4ca8-82c0-cdf064407149</dc:source><dc:creator>André Karwath (vectorized by T. Michael Keesey)</dc:creator><dc:license>http://creativecommons.org/licenses/by-sa/3.0/</dc:license></metadata><path d="M0 310c26.046 5.007 43.042 19.212 63 31 15.681 9.262 36.109 20.27 54 30 5.197 2.826 10.288 3.388 16 6 6.297 2.88 11.639 9.232 18 13 18.719 11.088 39.191 20.232 58 30 2.047 2.286 5.136 3.53 6 7 12.456-2.783 23.673 16.312 37 16 30.364 12.674 72.828 17.324 98 32 7.021-7.716 8.485-15.135 5-27-.67-2.997-5.819-1.515-7-4-10.021-16.45-22.058-32.332-31-51-8.629-18.015-14.401-38.72-28-53 .219-5.061-4.867-15.444-9-22-5.241-34.532-17.222-68.592-29-103-3.731-10.9-9.499-22.303-12-33-2.802-11.982-3.195-24.36-6-36-2.796-11.606-4.442-22.851-7-34-8.518-37.124-21.157-71.388-30-107 18.338 34.053 24.264 74.077 35 116 8.394 32.778 14.553 59.603 25 91 7.581 22.785 15.107 45.405 23 69 3.858 11.534 9.36 22.286 13 33 3.095 9.11 2.59 17.795 11 23 11.713 44.659 42.471 75.479 63 108 4.772 2.393 6.752-5.638 12-6-3.201-6.684-7.063-16.165-4-26 11.69-12.071 26.363-3.204 33 8 4.465-3.833 20.36-3.967 26-12 10.262 3.46 21.221 23.711 7 31 1.357 2.977 4.515 4.152 7 6 3.798-.869.86-8.473 3-11 2.08-2.19 3.232.877 5-1 21.92-29.08 37.548-64.452 48-105 3.536-.797 2.828-5.838 6-7 6.234-25.304 13.072-51.95 20-76 7.043-24.447 9.086-51.077 16-74 13.093-43.405 16.35-83.649 28-130 3.477-13.83 6.647-28.957 14-42-2.872 13.343-4.432 30.521-9 43-7.227 19.742-10.682 42.056-16 67-4.475 20.985-5.188 42.803-9 65-3.879 22.588-12.646 45.143-18 68-5.229 22.325-10.657 44.701-12 69-19.594 41.791-33.695 90.68-56 133-1.778.888-2.542 2.792-6 2-4.686 10.657-3.314 18.104 2 27 6.508.07 10.113-5.962 15-9 12.279-7.634 27.217-11.589 40-19 6.191-3.589 11.749-8.174 18-12 9.27-5.673 16.606-11.46 28-16 17.097-22.662 38.57-42.782 57-66 8.703-10.964 16.066-21.146 26-31 19.934-19.774 35.411-51.634 54-73 2.561-2.944 8.827-8.42 13-12 2.713-2.327 9.941-9.343 14-11v1c-5.576 7.423-9.968 16.032-20 19-20.497 28.837-43.359 55.307-60 88-14.655 12.524-24.035 24.465-35 41-12.093 13.574-26.086 25.248-33 44-16.333 14.864-35.916 24.524-57 39-13.021 8.939-26.17 20.042-39 25-6.652 2.57-13.569 2.537-18 9v21c4.89 1.443 7.564 5.102 14 5 15.873 11.064 17.062 42.662 37 47 12.968 2.821 29.313-3.758 42-4 3.559-.067 7.587.88 11 1 30.187 1.064 57.521-3.149 78-8 16.544-3.918 38.455-9.892 56-3-5.91 4.317-18.863.401-24 1-14.699 1.714-26.591 10.154-41 15-6.021 2.025-13.421 1.932-21 3-13.941 1.966-34.703 2.068-52 3-20.387 1.099-40.245 5.629-60 1-13.689-12.312-21.434-30.566-36-42-5.135 3.04-6.711-2.294-10-4-2.292 6.708-6.682 11.318-10 17 4.621-1.237 5.938 5.996 5 7 14.127 10.989 23.293 34.428 26 56 2.009 16.002.338 33.961 5 49 1.286 4.15 4.63 7.885 6 12 2.917 8.76 4.487 16.462 9 26 10.26 21.682 21.178 43.742 32 65 9.307 18.28 18.093 37.579 29 55 12.676 20.246 26.883 42.66 39 63 6.084 10.212 12.888 21.953 11 35-5.747-7.586-9.072-17.594-12-28-15.771-24.846-30.933-49.899-48-75-5.561-8.178-12.429-15.753-17-24-5.864-10.58-10.736-22.842-16-34-15.316-32.47-33.637-65.695-47-101-.965-10.292.994-21.123 0-32-2.132-23.328-18.869-38.403-25-57-7.166-.905-10.224-9.109-19-2 10.07 6.552 19.553 18.227 24 34 4.751 16.852 7.007 33.017 0 45-2.555 4.368-8.898 8.544-13 14-4.822 6.414-6.478 13.443-11 16-3.117 1.763-12.548 2.818-17 3-5.164.211-10.606-3.461-16-3-3.106-5.577-8.233-5.248-11-9-2.387-3.235-5.873-6.781-9-10-3.614-3.721-5.706-9.103-10-9 3.454-4.781-2.558-8.115-4-11-.591-1.182 2.78-5.273-1-6-1.322-19.938 12.222-36.979 18-58 3.056-1.611 8.473-.86 11-3-1.107-5.559-8.229-5.104-11-9-5.114 1.117-8.776 8.238-14 6-6.994 14.093-22.29 21.789-31 36-8.617 14.059-10.041 33.459-15 50-20.954 31.575-44.742 60.899-66 93-6.984 10.547-12.293 23.05-20 33-6.624 8.551-15.71 15.864-23 24-21.459 23.948-41.036 52.289-65 75-.631 7.508-16.68 21.761-17 16-.083-1.506-1.683.195 1-2 .669-.547 2.264-1.837 4-3 22.014-29.12 45.364-58.544 70-86 8.436-9.401 13.917-19.229 21-30 10.223-15.545 22.511-30.183 33-46 5.328-8.034 10.741-16.081 16-24 4.846-7.297 8.853-15.894 16-21 .489-7.178 6.188-9.146 6-17 15.658-15.012 17.161-38.979 26-61 6.714-16.728 16.614-28.703 26-42 7.923-2.743 12.747-8.586 16-16-4.906-3.094-5.272-10.729-11-13-11.355 5.754-21.792 11.526-33 19-9.992 6.663-20.167 17.408-31 21-9.312 3.087-20.262 2.581-30 3-26.384 1.134-50.802 4.153-76 8-38.211-4.759-79.495.467-114 7 17.371-12.771 42.523-10.038 62-12 50.085-5.045 93.777-8.843 152-16 22.997-11.952 41.723-40.569 68-42-1.916-9.763 1.586-21.828-4-26-38.922-12.445-84.595-27.488-120-44-2.052-1.948-3.284-4.716-5-7-21.923-12.359-43.781-25.483-67-38-7.546-4.068-15.757-6.849-23-11-8.427-4.829-15.555-12.676-24-18-8.591-5.417-17.456-11.089-26-16-17.864-10.267-35.712-21.969-54-30-8.411-3.693-20.417-4.53-26-11v-2zm385 121c6.228-.439 1.685-11.648 10-10-.804-3.863-4.888-4.446-7-7-7.829 4.303-6.062 8.341-3 17zm45 0c7.653.78 5.366-4.454 5-10-4.118.785-5.132-1.535-9-1 1.631 3.369 3.649 6.351 4 11z" fill-rule="evenodd"/></svg>