<svg xmlns="http://www.w3.org/2000/svg" xmlns:dc="http://dublincore.org/documents/dcmi-terms/" height="330.999" width="610.95"><metadata><dc:description>Silhouette of Hegetotheria, processed by PhyloPic Tools (https://github.com/eweitz/phylopic-tools)</dc:description><dc:source>http://phylopic.org/image/958d7012-08b4-45fa-bfaf-8a0d92d33382</dc:source><dc:creator>Zimices</dc:creator><dc:license>http://creativecommons.org/licenses/by-nc/3.0/</dc:license></metadata><path d="M169.556 329.557c-.864-.864-1.572-2.005-1.572-2.536 0-.596-3.356-.71-8.8-.3-7.528.569-9.046.419-10.5-1.036-1.934-1.934-1.54-4.811 1.483-10.847 1.967-3.924 4.986-5.71 9.66-5.71 1.492 0 3.716-.702 4.942-1.56 1.226-.86 4.363-1.957 6.972-2.44 2.609-.482 6.543-1.351 8.743-1.93 2.2-.58 6.676-1.327 9.947-1.659 5.071-.514 6.396-1.093 9-3.93 5.464-5.954 8.236-9.874 11.34-16.04 1.678-3.333 3.788-6.672 4.69-7.42.901-.749 2.279-2.747 3.061-4.44.782-1.694 1.84-3.755 2.349-4.58.51-.825 3.084-6.9 5.721-13.5 2.638-6.6 6.458-15.387 8.49-19.527 3.903-7.957 6.902-16.875 6.902-20.528 0-2.86-4.197-12.322-4.745-10.695-.577 1.713-2.255 1.58-2.255-.179 0-.786-.74-2.169-1.645-3.074-1.308-1.308-1.81-1.379-2.448-.345-.586.947-1.072.628-1.792-1.176-.696-1.746-1.006-1.96-1.051-.726-.065 1.799-2.064 2.536-2.064.761 0-1.487-3.273-5.011-4.654-5.011-.666 0-1.509-.938-1.872-2.085-.495-1.558-1.226-1.943-2.897-1.524-1.908.479-2.37.026-3.156-3.09-1.019-4.04-3.42-5.715-3.42-2.385 0 3.433-1.86 2.353-2.582-1.5-.526-2.8-1.064-3.48-2.466-3.114-1.288.337-1.976-.26-2.442-2.115-.455-1.815-.885-2.2-1.445-1.293-1.095 1.771-5.066-.686-5.066-3.135 0-2.05-.065-2.065-3.424-.788-2.263.86-2.729.633-4.09-2-.845-1.634-2.335-2.971-3.311-2.971s-2.202-.4-2.725-.888c-1.385-1.294-5.524-2.405-5.356-1.438.443 2.548-.377 2.492-2.563-.174-2.335-2.85-2.46-2.887-2.495-.75-.036 2.3-2.021 3.267-2.053 1-.01-.688-1.14-2.316-2.514-3.619-1.373-1.302-2.239-1.696-1.924-.875.417 1.085-.127 1.494-1.986 1.494-1.504 0-2.559-.567-2.559-1.375 0-.757-.675-1.375-1.5-1.375-.862 0-1.5-.903-1.5-2.123 0-1.765-.25-1.915-1.488-.887-1.208 1.002-1.609.92-2.129-.435-.352-.919-1.225-1.446-1.938-1.172-.714.274-1.832-.145-2.485-.932-.652-.786-1.605-1.17-2.117-.854-.511.316-1.488.112-2.17-.454-1.347-1.118-3.445-1.041-5.43.198-.778.486-1.498.158-1.889-.862-.46-1.199-.836-1.317-1.38-.435-.464.75-1.27.883-2.112.351-.749-.473-2.487-.95-3.862-1.058-1.375-.109-5.494-.515-9.154-.903-5.745-.61-7.316-.395-11.5 1.567-7.972 3.738-16.176 9.331-17.298 11.793-.578 1.27-2.626 2.967-4.55 3.771-1.924.804-3.498 1.9-3.498 2.434 0 .534-2.688 2.33-5.975 3.988-3.857 1.947-6.518 4.066-7.505 5.976-1.853 3.583-7.5 7.003-20.067 12.157-9.632 3.95-15.12 4.812-17.225 2.707-.898-.897-1.778-.897-3.747 0-1.416.645-4.691 1.157-7.278 1.138-4.656-.034-4.794-.133-13.945-9.987L0 173.154l.636-12.263c.606-11.7.808-12.584 4.397-19.296 2.07-3.869 5.986-10.394 8.704-14.5 4.022-6.077 12.247-23.95 12.247-26.613 0-3.61 10.942-20.834 21.825-34.353 1.55-1.925 4.123-5.916 5.72-8.868 2.627-4.86 11.666-14.132 13.777-14.132.47 0 3.17-2.025 6-4.5s5.714-4.5 6.411-4.5c.967 0 1.267-3.571 1.267-15.066 0-8.473.453-15.912 1.036-17 1.875-3.504 7.004-2.507 13.945 2.71 6.485 4.875 7.787 6.981 8.876 14.356l.664 4.5 13.99.783c7.694.43 31.764.603 53.49.382 32.3-.328 40.593-.696 45.5-2.018 4.053-1.092 10.218-1.622 19-1.633 7.15-.009 16.824-.69 21.5-1.514 4.674-.824 10.833-1.498 13.684-1.499 2.852 0 6.336-.439 7.743-.974 1.452-.552 16.932-1.01 35.815-1.061 30.792-.083 33.925.07 42.257 2.067 4.95 1.186 11.7 3.303 15 4.705 3.3 1.402 12.066 4.303 19.479 6.447 7.413 2.144 16.336 5.496 19.827 7.449 3.492 1.952 10.702 5.03 16.022 6.838 14.283 4.854 30.057 12.811 39.312 19.83 4.495 3.409 9.413 7.098 10.93 8.198 4.016 2.913 15.142 12.944 23.32 21.026 3.91 3.864 9.94 9.232 13.398 11.927 5.866 4.572 18.473 18.81 27.935 31.547 5.23 7.04 20.443 21.873 26.277 25.62 2.475 1.59 7.12 4.238 10.323 5.885 6.346 3.264 12.677 9.426 12.677 12.337 0 1.01-1.154 2.363-2.564 3.005-1.9.866-2.406 1.671-1.95 3.106.55 1.732.239 1.876-2.927 1.363-2.088-.34-4.124-.092-4.961.603-.97.804-1.625.845-2.068.13-1.17-1.895-2.354-1.096-1.779 1.2.559 2.231.545 2.234-1.594.346-1.475-1.303-2.157-1.491-2.157-.595 0 .9-.644.726-2.06-.556-1.638-1.481-2.23-1.594-2.876-.547-.512.829-1.619 1.061-2.987.627-1.195-.38-2.713-.254-3.375.278-.66.532-2.552 1.25-4.202 1.595-2.577.54-3.23.222-4.632-2.26-1.52-2.69-2.001-2.87-7-2.619-5.9.297-7.851-.664-7.9-3.89-.026-1.829-.203-1.917-1.25-.628-2.335 2.876-4.561 2.322-4.902-1.221-.243-2.52-.836-3.353-2.566-3.599-1.237-.176-2.25-.963-2.25-1.75s-.471-1.43-1.047-1.43c-.577 0-2.156-1.196-3.51-2.657-1.354-1.461-2.684-2.435-2.954-2.165-1.286 1.286 2.782 10.301 7.643 16.938 2.974 4.061 6.176 8.59 7.115 10.062 2.432 3.818 11.617 12.822 13.08 12.822.676 0 4.592 1.627 8.702 3.616 10.515 5.089 23.328 9.382 31.074 10.413 3.631.483 8.4 1.498 10.598 2.255 4.831 1.665 11.927 7.182 12.613 9.807.274 1.048.559 8.643.633 16.878.104 11.617-.205 15.63-1.379 17.9-.832 1.61-1.988 5.047-2.57 7.638-.872 3.893-2.339 5.995-8.446 12.102-4.064 4.065-7.837 7.39-8.382 7.39-.545 0-2.115 1.335-3.487 2.966-3.91 4.646-13.656 11.035-16.835 11.035-1.97 0-4.798 1.677-9.379 5.563-4.467 3.79-7.261 5.464-8.763 5.25-2.023-.287-2.247-1-2.706-8.581l-.5-8.269-5 3.523c-2.75 1.937-6.019 4.251-7.265 5.143-2.592 1.855-6.876 2.13-8.463.542-.593-.593-1.04-2.45-.992-4.125.1-3.518.353-3.457-6.632-1.598-8.228 2.19-11.793.028-10.512-6.377 1.017-5.082 5.288-9.128 10.705-10.14 2.755-.515 6.2-2.058 8-3.584 1.737-1.473 6.76-4.356 11.16-6.405 4.4-2.05 9.09-4.9 10.424-6.334 1.333-1.435 3.29-2.608 4.349-2.608 3.371 0 7.726-5.697 7.726-10.106v-3.894h-17.823c-18.273 0-32.56-1.658-40.677-4.721-2.2-.83-7.15-2.627-11-3.993-3.85-1.366-7.455-2.856-8.012-3.31-.556-.455-3.706-1.834-7-3.066-3.293-1.232-7.788-3.933-9.988-6.003-2.2-2.07-5.691-5.195-7.758-6.946-2.068-1.751-4.044-4.371-4.392-5.823-1.44-5.999-6.592-13.498-8.974-13.062-2.478.454-4.376-.243-4.376-1.608 0-2.365-2.856-2.908-5.016-.953-1.824 1.65-1.982 1.653-2.598.046-.564-1.47-1.058-1.27-3.516 1.42-1.573 1.723-3.2 4.344-3.615 5.825-.415 1.482-.755 11.244-.755 21.694 0 16.403.246 19.45 1.8 22.294 2.818 5.163 2.598 13.656-.513 19.706-1.414 2.75-3.557 5.892-4.764 6.982-1.206 1.09-3.707 4.044-5.557 6.565-1.85 2.521-4.85 5.298-6.665 6.17-4.48 2.155-14.191 3.893-26.8 4.798-5.776.415-14.744 1.706-19.93 2.87-5.51 1.235-12.915 2.115-17.816 2.115-4.612 0-9.256.466-10.32 1.035-2.533 1.355-5.935-.405-5.935-3.07 0-1.63-.69-1.965-4.05-1.965-2.226 0-5.264.622-6.75 1.381-3.535 1.81-10.578 2.95-13.157 2.132-1.544-.49-2.043-1.502-2.043-4.148 0-2.98-.281-3.41-1.894-2.899-4.265 1.354-6.754-5.667-3.604-10.165.825-1.178 2.963-2.428 4.75-2.776 1.787-.348 6.848-1.477 11.248-2.509 4.4-1.031 11.15-2.307 15-2.835 3.85-.527 10.6-1.676 15-2.553 4.4-.876 12.195-2.255 17.322-3.063 8.996-1.419 9.458-1.62 13.21-5.768 3.553-3.928 3.89-4.793 3.927-10.07.034-4.74-.646-7.153-3.808-13.5-2.117-4.25-4.384-9.909-5.039-12.575-1.75-7.128-10.435-23.793-10.893-20.902-.387 2.434-2.219 3.142-2.219.857 0-1.767-2.72-2.87-3.592-1.457-.437.707-.946.608-1.517-.294-.633-.998-.864-1.026-.875-.106-.01.687-.69 1.25-1.516 1.25-.825 0-1.5.73-1.5 1.622 0 1.265-.303 1.37-1.378.479-.758-.63-5.546-1.372-10.64-1.65-5.095-.28-9.65-.747-10.123-1.038-.472-.292-.859.095-.859.86 0 1.117-2.533 1.549-4.75.81-.137-.046-.427.03-.645.167-.217.137-1.333-.6-2.48-1.638-1.58-1.43-2.414-1.617-3.43-.774-.99.822-1.65.806-2.518-.062-.667-.667-1.177-.743-1.177-.176 0 .55.533 1.532 1.184 2.183.65.65.856 1.51.456 1.911-.4.4-1.817-.605-3.148-2.233-2.306-2.822-2.421-2.856-2.456-.711-.039 2.408-1.573 3.069-2.321 1-.265-.731-.898-.212-1.525 1.25-7.627 17.768-9.67 22.082-12.08 25.5-1.552 2.2-4.934 8.05-7.516 13-2.582 4.95-5.244 9.45-5.914 10-2.853 2.338-10.546 13.685-10.088 14.878.275.716-.385 3.737-1.467 6.712-1.082 2.975-2.28 7.435-2.662 9.91-.975 6.313-1.643 7.236-7.573 10.463-4.004 2.18-6.691 2.887-11.32 2.98-6.127.123-9.388 1.28-13.098 4.648-1.116 1.013-4.034 2.549-6.486 3.414-2.451.865-5.589 2.629-6.971 3.92-2.719 2.538-16.972 5.822-24.515 5.65-10.562-.244-13.425-.004-16.796 1.404-4.456 1.862-4.217 1.864-6.132-.05z"/></svg>