<svg xmlns="http://www.w3.org/2000/svg" xmlns:dc="http://dublincore.org/documents/dcmi-terms/" height="1048.294" viewBox="0 0 3049.4531 1048.2943" width="3049.453"><metadata><dc:description>Silhouette of Helix aspersa, processed by PhyloPic Tools (https://github.com/eweitz/phylopic-tools)</dc:description><dc:source>http://phylopic.org/image/6ee19bb9-2f22-4c45-89dc-48e82818da7f</dc:source><dc:creator>Yan Wong from photo by Denes Emoke</dc:creator><dc:license>http://creativecommons.org/publicdomain/zero/1.0/</dc:license></metadata><path d="M632.141 752.028c-125.72 32.978-261.586 56.694-356.029 101.034C181.669 897.402 26.65 948.974.679 1014.867c136.105 30.654 159.385 16.877 443.693 24.85 284.308 7.975 460.99 11.865 692.424 3.031 183.265-1.107 389.231-13.15 545.502-16.302 156.27-3.152 249.992-3.873 389.657-9.038 139.666-5.165 457.202-27.16 477.767-49.187 20.564-22.028 33.5-81.33 61.306-89.973 18.596-5.78 25.97 3.363 47.734 10.442 64.357 20.932 80.31 59.675 92.374 35.272 12.064-24.402-50.805-2.225-103.945-107.462-24.32-48.162-46.118-79.288-59.219-84.893 58.154-6.9 125.028-39.102 179.754-52.582 76.746-18.902 145.172-40.171 188.804-47.116 74.746-11.897 69.645-1.66 82.875-2.88 13.229-1.221 12.01-30.093.658-35.331-11.351-5.238-19.126 8.272-42.694 7.387-25.312-.951-38.801 2.153-67.805 4.461-48.766 3.88-134.607 25.903-206.507 35.076-58.032 7.404-101.509 1.575-155.168 5.134-37.603-28.283 27.647-75.426 42.563-92.1 14.916-16.673 34.96-44.233 53.449-58.033 6.445-4.81 15.413-2.803 20.118-5.433 15.14-8.46 13.089-22.157.682-35.732-6.249-6.836-16.91-6.135-24.482-1.572-7.463 4.497-12.88 18.661-23.796 29.224-22.343 21.62-56.118 48.285-79.827 68.436-50.405 42.84-62.106 88.175-133.739 66.88-180.61 7.688-362.988 10.428-542.643-9.65-167.052-20.013-147.806-181.963-194.62-297.148-46.814-115.185-174.55-238.185-295.423-273.341C1269.298 2.13 1185.5.662 1057.015.5 928.531.34 792.217 53.706 692.894 140.901 593.57 228.096 539.889 341.215 533.67 453.549c-6.22 112.334 9.723 259.425 98.47 298.479z" fill-rule="evenodd" stroke="#000"/><path d="M632.141 752.028c70.798 87.94 201.773 104.815 289.953 86.255 88.18-18.56 102.73-84.021 165.32-171.444 62.592-87.423 90.145-417.045 26.534-514.333-63.611-97.288-184.386-92.401-236.756-93.886-52.371-1.485-92.46 18.54-138.789 51.025C692.075 142.131 582.062 256.825 569 328.032c-13.062 71.208 51.412 128.664 106.132 126.543 54.72-2.121 131.47-49.182 165.322-102.05 33.85-52.87 33.658-136.845 16.328-181.65-17.33-44.805-57.313-47.894-100.01-34.697-42.696 13.197-91.505 50.005-122.46 89.804-30.955 39.8-9.184 83.341 28.574 77.559 37.759-5.783 72.877-46.924 67.353-85.723-5.523-38.798-45.153-9.978-56.719-14.74" fill="none" stroke="#747474" stroke-width="19.521" stroke-linecap="round"/><path d="M1067.005 695.413s477.242-13.773 602.096-38.779c124.853-25.006 144.911-71.435 144.911-71.435" fill="none" stroke="#747474" stroke-width="19.521"/></svg>