<svg xmlns="http://www.w3.org/2000/svg" width="1199" height="462" viewBox="0 0 1199 462"><path d="M65.5 117c1.39-2.74 5.651-6.371 3-10h1v-1c4.254-1.412 3.528-7.805 6-11l-.026-4.553L74.5 86c.405-4.262-.968-10.302 1-13l1.5-.5-1.5-.5c2.972-6.028 4.786-13.214 7-20l.5-.5-.5-.5h1c2.555-4.779 7.62-7.047 11-11-2.433-2.594-7.442-7.855-7-10 4.919 16.01 32.129 8.278 42 1l.5.5.5.5c8.799-1.201 19.597-.403 28-2 .507-4.826-.153-10.82 3-13-.82 4.18-1.951 8.049-2 13 24.897-6.429 54.145 3.916 85 1 6.044-4.956 8.62-13.38 14-19-2.888 6.779-7.543 11.79-11 18 11.888-1.29 24.441.242 33 5-.672-4.686-5.453-10.515-4-14 3.103 10.857 8.006 19.729 18 22 11.676 2.653 21.867-.535 34 1 14.068 1.78 27.516 9.716 42 13 13.859 3.143 27.882 8.019 43 9 29.714 1.929 55.356 1.821 86 1-1.774-3.915-7.373-9.264-7-12 3.322 3.678 5.745 8.255 8 13 38.767 1.434 66.88-7.787 94-18 1.122-6.212.182-14.485 2-20 1.158 7.178-1.854 15.451 0 20 17.047-4.953 36.541-7.458 53-13l.5 1.5.5-1.5c38.641-8.725 84.096-15.861 130-14l-.5.5.5-.5v1c21.979.354 39.229 5.438 58 9l.5 1.5.5-1.5c8.276 2.057 16.348 4.319 25 6 3.945-2.56 6.183-16.917 8-15-.986 2.347-1.754 4.913-2 8-2.36 1.64-2.849 5.151-5 7 13.259 7.075 27.556 13.111 41 20l-.5 1.5 1.5-.5c18.021 10.646 33.311 24.022 51 35l-.5 1.5 1.5-.5c3.568 6.098 10.835 8.498 17 12 4.024.691 2.455-4.211 6-4-.586 2.081-2.102 3.232-3 5 4.573.427 8.479 1.521 14 1l-.5 1.5 1.5-.5c17.371-.365 28.214 9.003 44 6 6.992-1.33 17.646-4.943 31-3l-.5 1.5 1.5-.5c17.832 1.167 36.071 1.929 45 12h12l.167 1.167.833.833c-.15 1.85-3.387.614-4 2 23.418 10.582 29.32 38.68 55 47-3.772 1.079-10.368-3.611-14-6 11.759 20.576 18.441 54.891 32 77-3.972-3.028-5.437-8.563-8-13-4.736 12.942 3.663 32.16-3 43-5.212 8.479-21.785 8.485-27-1-.43-7.763 3.68-10.987 6-16 1.807-41.868-14.552-72.733-38-94-10.58-9.596-29.365-21.181-47-22-13.044-.606-26.972 4.027-42 4-11.253-.02-24.865 2.318-27 17v1l-1.5-.5.5 1.5c-3.605 13-11.301 30.442-8 45 2.006 8.846 28.666 34.324 33 42l-1.5.5 1.5.5c5.663 9.612 14.05 20.633 23 32 8.189 10.402 18.285 23.512 17 37-1.107 11.623-12.654 20.063-16 32 .029 5.637 6.017 5.317 8 9 .698 1.848-6.602-4.4-9-6-4.582 13.418-5.715 30.285-24 30-2.326 1.008-3.225 3.442-3 7-.734-5.466-1.123-8.996-2-16-1.904-1.874-2.513-.109-5 0 1.948-2.052 4.716-3.284 7-5-7.284-7.861-23.895-.454-36-1-6.609 10.057-15.834 17.499-31 19-3.678-3.789.927-7.461 0-14-3.487-2.247-5.532 4.054-9 5 4.891-7.776 15.024-10.309 19-19-2.357-5.309-7.172-8.162-15-8-2.86.14-1.829 4.171-2 7 .5 3.37-1.375-6.052-3-7-15.251 3.082-16.485 20.181-28 27-8.454-6.181-4.484-22.715 1-29-12.912-6.624-24.413 9.024-36 13-2.276-2.02 4.619-3.323 4-7-1.316-2.522-3.283 2.622-6 2 8.435-5.231 12.278-15.056 18-23 11.205-4.462 29.547-1.786 38-9 22.095 2.901 49.163 11.161 70 1 1.038-3.629 1.873-7.46 5-9-5.91-3.767-6.834-13.872-6-19-23.744-15.59-44.073-34.594-67-51-10.385 1.445-16.948-7.831-26-9-11.37-1.469-20.295 4.704-29 12-9.186-.853-12.222 4.445-18 7v2l-.5-.5-.5.5c-21.232 10.102-38.692 23.975-62 32 1.43 3.57 3.554 6.446 4 11-3.434-1.566-2.246-7.754-6-9-17.22 6.114-41.518 5.149-58 12-.147 5.814 2.643 8.69 3 14-3.067-3.266-4.096-8.57-5-14-18.164 1.836-39.242.758-57 3l-2.5-2.5-.5 3.5c-15.094-1.789-37.352-1.02-51-1l-.5-1.5-.5 1.5c-.851.184-.943-.39-1-1-20.268.268-38.893-1.106-52-8-13.405 16.262-22.948 36.386-37 52-.386 6.948-1.274 13.393-2 20-3.09-4.135 1.136-9.497 0-15-8.289 3.717-15.747 16.916-23 25 2.586 6.3.944 21.96-2 29 2.229 1.438 4.62 2.713 7 4-2.36 2.616-5.203-2.739-8-3-8.087 1.913-7.228 12.772-17 13-5.049 6.617-1.941 21.393-11 24-6.399-5.935-11.216-13.451-19-18-22.212-7.41-34.581 18.553-45 21-17.661 4.147-19.407-13.626-9-21-22.79 3.544-43.195 9.472-66 13-.319-2.348-3.095-2.238-4-4 4.215-7.451 11.17-12.163 19-16-6.938-3.062-22.052 2.052-25-5 5.928-24.371 45.176-12.599 68-21 4.091-1.506 7.167-5.408 11-7 12.947-5.377 26.835-6.289 36-15 15.557-14.786 28.774-34.479 34-65l1.5.5-.5-1.5c6.085-7.303 6.483-17.616 2-27-6.409-.386-8.416 6.61-14 4l-1.5-.5.5 1.5c-3.87 1.581-11.343 1.579-14-1l-1.5-.5.5 1.5c-6.439 3.148-15.102-3.773-21-1l-.5-.5-.5-.5c-5.205 2.703-9.721-.79-14-2-12.409 9.396-14.198 30.605-13 46-1.735-1.599-2.166-4.501-2-8-5.881 14.446-18.408 22.977-41 18-3.753-.753-2.18 3.82-5 4-10.126-9.455-24.49 3.727-33-3-9.738 3.595-12.994 13.673-22 18-4.398-5.707-5.624-12.428-4-22-15.452-2.78-25.012 8.984-38 12-3.201-.133-4.399-2.268-4-6-4.729-.396-8.346.321-12 1-2.512.597 6.094-3.5 11-2 .506-3.667 1.256-6.52 5-9-7.295-4.311-10.236 3.531-15 5 3.389-6.278 11.92-7.413 14-15l1.5-.5-1.5-.5c1.572-.761 1.494-3.173 4-3-2.709-6.191-11.113.257-13 4 4.918-10.752 28.521-11.476 38-21 28.419 1.955 65.263 10.88 70-19-20.09-9.576-52.334-6.999-61-28h-15l-.5-1.5-.5 1.5c-15.12-9.547-36.969-12.364-49-25-17.2.533-28.496-4.838-45-5-.851-.184-.943.39-1 1l-.5-.5-.5-.5c-4.534-.163-12.319-2.307-15-1l-.5-.5-.5-.5c-6.582-.602-15.362-3.721-22-1v-1h-1c-13.761 4.955-19.628-5.898-29-2l-.5-.5-.5-.5c-.826-2.826 1.409-2.591 1-5-2.036-.297-2.664-2.003-4-3l.5-1.5-1.5.5c-1.55-4.783-4.621-8.045-9-10l.5-1.5-1.5.5c-4.465-2.868-6.583-8.084-13-9l.5-1.5-1.5.5c-10.81-9.19-18.123-21.877-25-35 5.14 1.592 8.96-2.704 16-1 1.663-9.329-8.155-7.178-11-12-7.694 1.805-3.513 7.193-9 8v-1h-1c-5.472-1.753-5.379-2.983-13-2-.052-6.719 1.527-11.806 3-17l1.5-.5-1.5-.5c2.556-5.111 4.03-11.303 7-16l1.5-.5-1.5-.5zm63 104c.224 1.891-1.127 2.207-1 4 2.409.409 2.174-1.826 5-1 .304-2.638-2.088-2.579-4-3zm998-93c-2.391.609-7.256-1.255-8 1 1.856 1.738 7.166 1.29 8-1z" fill-rule="evenodd"/><g fill="none" stroke="#000" stroke-linecap="round"><path d="M5 108.5c20.118-10.484 42.412-5.068 63.5-2.5" stroke-width="1.193"/><path d="M68.5 106C57.02 96.241 41.126 92.585 26 94.5" stroke-width="1.357"/><path d="M68.5 106l1 1" stroke-width="1.732"/><path d="M11 72.5c22.639 1.266 42.895 12.57 64.474 17.947" stroke-width="1.775"/><path d="M75.474 90.447C63.269 69.268 40.021 57.701 17 55.5" stroke-width="1.082"/><path d="M77 72.5c-15.236-10.027-32.235-16.015-49-24" stroke-width="1.09"/><path d="M56 22.5c11.55 7.31 16.421 21.019 27 29" stroke-width=".94"/><path d="M130 31.5c2.383-7.177 6.023-14.083 9-21" stroke-width="1.196"/><path d="M650 38.5c-.604-7.771-5.499-14.415-7-22" stroke-width="1.127"/><path d="M780 23.5c4.048-7.688 10.157-13.892 15-21" stroke-width="1.151"/><path d="M841 15.5c-1.053 6.223-.939 12.767-2 19" stroke-width="1.225"/><path d="M906 60.5c3.724-7.927 11.282-12.558 17-19" stroke-width="1.139"/><path d="M986 77.5c-7.668 8.875-17.94 13.07-28 19" stroke-width="1.187"/><path d="M993 111.5c5.313-5.294 12.186-8.395 18-13" stroke-width="1.178"/><path d="M1069 115.5c5.861-5.167 13.649-8.808 21-11" stroke-width="1.196"/><path d="M1127.667 128.167c12.179.013 23.29-2.705 35.333-2.667" stroke-width="1.38"/><path d="M1010 167.5c18.282 10.041 41.604 10.556 59-1" stroke-width="1.191"/><path d="M1034 256.5c13.436 1.824 25.82 6.439 40 5" stroke-width="1.196"/><path d="M874 266.5c3.724 6.549 8.658 12.968 13 19" stroke-width="1.04"/><path d="M690 313.5c4.983 6.374 1.98 14.704 4 22" stroke-width="1.405"/><path d="M682 338.5c1.393-8.718 8.349-15.774 8-25" stroke-width="1.225"/><path d="M642 342.5c-1.871-9.097-2.362-18.799-4-28" stroke-width="1.368"/><path d="M468 311.5c-1.994-5.792-.936-12.51-4-18" stroke-width="1.195"/><path d="M446 321.5c.534-9.697-.71-19.012-3-28" stroke-width="1.235"/><path d="M256 334.5l.314-.687c4.804-1.753 9.409-4.141 14.686-4.313" stroke-width="1.225"/><path d="M292 260.5c1.588 8.632 4.31 16.833 4.5 26" stroke-width="1.288"/><path d="M193 271.5c3.252-12.317 5.861-26.091 3-39" stroke-width="1.219"/><path d="M171 299.5c8.96-20.989 14.3-45.819 9-69" stroke-width="1.226"/><path d="M96 250.5c5.593-6.189 11.777-12.055 15.5-19.5" stroke-width="1.186"/><path d="M111.5 231c3.788-5.459 8.754-9.845 12.5-15.5" stroke-width="1.215"/><path d="M79 244.5c12.074-12.905 23.917-26.053 35-40" stroke-width="1.18"/><path d="M79 206.5c7.278-3.377 13.802-8.478 21-12" stroke-width="1.19"/><path d="M8 165.5c20.788 5.732 44.042.147 61.5-11.5" stroke-width="1.203"/><path d="M15 147.5c13.898-7.193 28.878-13.585 45-13" stroke-width="1.205"/><path d="M2 128.5c22.242-1.497 42.458-10.876 65-11" stroke-width="1.244"/><path d="M479 293.5c7.168 7.066 9.704 16.764 14 25" stroke-width="1.134"/><path d="M126 226.5c-.925 8.582-3.592 17.193-3.681 25.71 13.171-5.132 23.942-15.929 35.181-24.21" stroke-width="1.215"/><path d="M111.5 231c5 .591 9.473-4.066 14.5-4.5" stroke-width="1.216"/><path d="M126 226.5l1-1" stroke-width="1.633"/></g></svg>