<svg xmlns="http://www.w3.org/2000/svg" xmlns:dc="http://dublincore.org/documents/dcmi-terms/" height="126.142" version="1.2" viewBox="0 0 350 126.142" width="350" overflow="inherit"><metadata><dc:description>Silhouette of Heteromorphus longicaudatus, processed by PhyloPic Tools (https://github.com/eweitz/phylopic-tools)</dc:description><dc:source>http://phylopic.org/image/cce5bd79-f8a6-4400-83f6-7702e3eeebd9</dc:source><dc:creator>Stanton F. Fink (vectorized by T. Michael Keesey)</dc:creator><dc:license>http://creativecommons.org/licenses/by-sa/3.0/</dc:license></metadata><path d="M335 0h-8v1c-26.334 3.855-66.171 11.894-104 16-18.018 1.956-38.514 8.283-45-8C124.678 21.437 74.032 32.331 36 61 20.789 72.466 5.272 80.878 0 102v4h2c5.114 2.777-3.977 5.188 0 10 17.372 12.423 41.792 10.601 73 9 48.371-2.481 94.88-20.541 125-38 3.393-5.487-4.185-4.82-4-10 17.596-24.061 55.021-19.756 91-29 16.361-4.204 50.25-15.26 63-30v-5c-2.322-7.011-7.058-11.609-15-13z" fill-rule="evenodd"/></svg>