<svg xmlns="http://www.w3.org/2000/svg" xmlns:dc="http://dublincore.org/documents/dcmi-terms/" height="355" version="1.2" viewBox="0 0 741.144 355" width="741.144" overflow="inherit"><metadata><dc:description>Silhouette of Hiodon tergisus, processed by PhyloPic Tools (https://github.com/eweitz/phylopic-tools)</dc:description><dc:source>http://phylopic.org/image/ad7e6eb0-82fe-4c1a-9b3b-e07fe42d3890</dc:source><dc:license>http://creativecommons.org/publicdomain/mark/1.0/</dc:license></metadata><path d="M741.144 86v3c-.445 4.175-3.834 9.431-6 16-4.531 13.74-6.757 22.831-14 34-6.236 9.617-23.848 26.565-23 36 .53 5.9 6.428 15.402 10 22 10.953 20.231 22.924 39.061 24 65-10.237 1.401-18.248-5.428-26-10-7.633-4.502-16.752-8.16-24-13-3.732-2.492-6.226-7.344-10-10-6.429-4.525-14.587-9.015-22-14-7.74-5.205-15.729-11.658-23-14-16.164-5.207-40.381-2.302-62-4-2.259 9.259 6.186 7.814 8 13-18.489 10.612-36.101 18.374-49 34-19.353 23.443-35.795 49.522-66 62-10.549-5.866-21.834-8.783-31-16-7.015-5.523-11.104-14.803-20-16-8.963-1.206-19.193 5.801-30 7-9.701 1.077-17.355-1.952-28 0-1.08 12.267 8.277 26.688 7 42-1.277 15.309-9.05 25.318-18 32-18.333-4.776-22.121-32.131-45-26-14.335-10.665-19.764-30.236-27-48-15.653.438-27.88-2.383-41-4-6.809-.84-13.773-1.092-20-2-50.565-7.373-90.814-34.54-137-44-13.501-10.833-32.908-15.759-49-24-5.475-7.191-13.601-11.732-17-21 4.285-.862 11.465 4.126 12-2-1.263-8.247-12.886-8.018-14-17-2.667-21.512 32.442-29.894 50-38 5.523-2.55 12.229-7.767 17-10 17.639-8.257 35.599-15.877 54-22 17.7-5.89 33.929-16.298 53-23 24.737-8.692 58.707-16.267 90-18 32.375-1.793 60.2.288 87 3 36.938-19.396 72.477-45.523 112-59-7.717 37.462 7.408 68.936 20 95-1.909 3.091-11.75-1.75-12 3 5.584 6.954 15.851 9.591 25 14 25.119 12.105 63.569 20.913 98 23 28.504 1.728 41.802-5.444 59-14 23.212-11.548 46.66-32.277 72-37 4.509-.84 11.301-3.166 16 2z" fill-rule="evenodd"/></svg>