<svg xmlns="http://www.w3.org/2000/svg" version="1.2" width="553" height="117.197" viewBox="0 0 553 117.197" overflow="inherit"><path d="M553 94c-8.395 12.056-9.674 27.663-34 22-22.985-5.352-15.694-43.8 5-33 6.7 3.496 6.899 15.943-3 17 6.223-6.851-3.686-14.475-9-8-.805 6.472 2.118 9.215 4 13 21.939 1.7 26.473-21.83 15-33-14.587-14.202-52.592-12.98-79-12-53.3 1.979-100.203 5.305-153 4-1.605 1.395-1.064 4.936-3 6-3.056-.723-3.645 1.022-6 1-5.821 16.103-37.6 15.469-58 12-17.188-2.923-38.619-.413-55-2-14.562-1.41-29.685-9.438-41-16-1.485-.861-6.525-1.463-10-1-15.051 2.005-30.266 10.49-45 15-7.535-3.577-14.691 4.43-22 5-7.221.563-14.436-3.353-22-2-13.929 2.491-25.89 11.019-36 5 .499-3.108-.328-6.536-1-13 10.112-.222 19.759-.907 21-10 14.837 2.202 5.057-16.949 12-25-3.356-6.644-6.977-13.023-8-22 3.498 1.519 3.262 15.393 9 18 2.943-7.723 6.301-15.033 8-24 1.809 8.198-1.892 13.891-4 22 6.359-2.308 6.761-10.573 11-15 1.781.733.144 1.818 0 3 5.092-.241 3.752-6.915 9-7-.294 2.039-2.706 1.961-3 4 4.095-.239 5.632-3.034 10-3-5.217 5.116-15.417 5.25-19 12 3.311-.208 9.737.331 12-4 6.175 2.933 12.917 2.328 17-2 22.104-1.43 56.271 7.923 52-18 2.244 4.343 3.868-.583 5-3 1.838 3.871-4.698 7.944-3 15 8.747 4.846 30.246-.21 43-1-.086-1.419-.165-2.832 1-3 .144-3.144-2.564-3.436-5-4 2.306-2.143 6.798 1.881 4-4 4.113 1.628 4.523 6.423 2 10 13.75 3.128 37.506 15.882 44-1 .563.009.022 5.613 3 2 1.959 2.026-6.008 2.609-5 7 10.174 5.337 22.212 2.634 34 6 6.522-5.478 12.341-11.659 18-18 16.835-1.314 40.173 3.21 50 18-1.986 3.348-9.916.751-13 3 2.266 6.656 15.667 3.799 21 2-1.236 3.236 3.236.764 2 4 13.811-1.685 26.83 6.269 36-4 1.38 1.954 1.4 5.267 4 6 13.146.842 33.977 1.159 45 0 1.357-.31.83-2.504 1-4 9.634 7.56 27.438 4.526 37 4 1.746-.92 2.207-3.126 2-6 1.746.92 2.207 3.126 2 6 14.709.272 36.797 5.835 46 2 5.908 5.758 16.438 6.895 25 10 3.293 3.584 9.08 8.16 14 7 4.416 9.917 11.694 16.973 13 30v7z" fill-rule="evenodd"/></svg>