<svg xmlns="http://www.w3.org/2000/svg" xmlns:dc="http://dublincore.org/documents/dcmi-terms/" height="298" version="1.2" viewBox="0 0 576.201 298" width="576.201" overflow="inherit"><metadata><dc:description>Silhouette of Holoptychiidae, processed by PhyloPic Tools (https://github.com/eweitz/phylopic-tools)</dc:description><dc:source>http://phylopic.org/image/e5381bb5-661b-4f56-93b4-e7155527c028</dc:source><dc:creator>Nobu Tamura (vectorized by T. Michael Keesey)</dc:creator><dc:license>http://creativecommons.org/licenses/by/3.0/</dc:license></metadata><path d="M472.201 0v1c3.936 1.065 6.087 3.913 7 8-1.213 25.804-25.18 34.13-25 58 17.573-3.697 33.727-15.182 55-27 5.159-10.729 16.607-24.118 29-30 11.143-5.289 27.728-6.401 38-1v2c-4.57 11.714-19.432 26.585-24 42-4.874 16.445-5.63 34.32-10 52-4.198 16.985-8.815 34.227-9 53-17.264.637-36.815 6.005-55 2-9.372-2.064-16.279-7.998-23-9-7.654-1.141-26.609 1.407-26 10 .596 8.396 30.292 13.086 37 18 11.081 8.116 17.731 23.038 9 35-10.342.342-16.198-3.802-24-6 1.182 6.428 13.279 6.254 11 15-2.916 11.192-45.15 22.597-62 24-15.439 1.286-35.85.486-46-4-8.504-3.758-21.507-15.586-31-19 1.41 14.143-2.8 22.958-11 23-11.705.061-14.9-20.932-23-25-7.719 1.281-15.919 2.08-22 5 25.031 13.401 52.005 28.054 70 50 4.196 5.117 11.135 10.914 11 18-14.144 6.402-30.289.979-44-2-27.793-6.038-51.739-14.885-70-30-9.28-7.681-17.803-26.035-29-28-12.786-2.244-29.619 5.705-44 5 9.591 17.427 25.831 33.479 25 58-14.742-3.783-26.288-10.12-35-20-9.559-10.841-11.786-27.29-23-37-43.032.612-88.77-13.685-111-38-7.038-7.697-18.888-22.596-17-35 1.941-12.752 21.253-18.803 34-27 18.677-12.01 44.823-28.729 72-34 54.778-10.623 115.142-18.229 174-28 19.151-3.18 39.93-5.427 56-11 9.078-3.148 11.695-8.873 19-15 4.272-3.584 10.352-5.757 14-9 7.121-6.33 10.49-17.149 20-17 7.031 4.621 5.566 13.896 3 21-2.841 7.865-12.76 12.877-10 17 6.502-1.726 11.479-2.631 19-5 6.106-9.959 16.487-12.228 25-20 14.934-13.634 20.131-34.339 43-40h3z" fill-rule="evenodd"/></svg>