<svg xmlns="http://www.w3.org/2000/svg" xmlns:dc="http://dublincore.org/documents/dcmi-terms/" height="253.704" width="453.169"><metadata><dc:description>Silhouette of Homalodotheriidae, processed by PhyloPic Tools (https://github.com/eweitz/phylopic-tools)</dc:description><dc:source>http://phylopic.org/image/8de29d57-656b-45a6-8f8a-7ccbced3f728</dc:source><dc:creator>Zimices</dc:creator><dc:license>http://creativecommons.org/licenses/by-nc/3.0/</dc:license></metadata><path d="M212.346 252.825c-.825-.529-2.265-.723-3.2-.432-.935.29-3.044-.167-4.686-1.016-1.643-.85-3.604-1.308-4.359-1.018-.754.29-2.426-.389-3.716-1.507-1.341-1.164-3.762-2.034-5.656-2.034-2.137 0-3.64-.62-4.233-1.75-.507-.962-1.11-7.6-1.34-14.75-.406-12.616-.532-13.236-4.242-20.99-3.752-7.843-3.799-8.082-2.534-13 .774-3.012 1.22-9.995 1.117-17.51-.157-11.49.78-23.818 2.404-31.642l.652-3.142-19.353-.452c-21.724-.507-35.55-2.897-44.071-7.62-4.35-2.409-4.819-2.483-6-.94-.706.92-2.626 1.812-4.268 1.984-2.842.297-2.97.512-2.68 4.46.32 4.366-1.565 11.997-4.243 17.174-.875 1.694-1.595 4.789-1.6 6.879-.003 2.09-.858 6.5-1.899 9.8-3.794 12.03-8.277 24.077-10.162 27.306-1.062 1.82-1.93 5.051-1.93 7.183 0 3.635.433 4.197 7 9.08 3.85 2.863 7 5.62 7 6.127 0 .507.343.71.762.45 2.067-1.277 8.58 5 11.005 10.603.993 2.297.946 2.75-.289 2.75-.813 0-1.479.666-1.479 1.479 0 1.199-.455 1.271-2.408.38-1.88-.855-3.114-.744-5.622.506-1.767.882-3.645 1.336-4.173 1.01-.529-.327-3.66-.733-6.96-.902-3.692-.19-6.67-.916-7.746-1.89-1.128-1.022-3.67-1.595-7.17-1.618-2.98-.019-9.02-.685-13.42-1.48-4.4-.795-10.038-1.454-12.528-1.465-6.225-.027-8.973-2.132-8.973-6.876 0-3.667-.067-3.734-3.402-3.345-2.487.29-3.966-.167-5.5-1.7-2.403-2.405-2.773-7.294-.681-9.03 3.93-3.262 13.118-19.004 20.174-34.569 7.672-16.92 9.2-24.727 5.52-28.21-1.04-.985-4.18-5.68-6.978-10.437-2.798-4.755-6.164-9.93-7.478-11.5-1.315-1.569-5.424-8.928-9.131-16.353C20.344 85.73 18.835 82.842 18.195 82.83c-1.132-.02-2.12 22.654-1.294 29.718.965 8.256.71 21.227-.446 22.695-.466.591-1.4 3.438-2.077 6.325-.778 3.316-1.759 5.25-2.663 5.25-.787 0-1.722.788-2.077 1.75-.978 2.65-2.294 3.145-5.441 2.048-3.633-1.266-4.405-3.985-4.154-14.62.17-7.125.6-8.994 2.994-13 4.502-7.533 5.25-11.55 5.778-31.08.583-21.535.89-23.633 4.649-31.645 5.32-11.345 13.939-19.565 27.882-26.595 1.375-.693 3.625-2.017 5-2.942 4.148-2.79 13.97-7.916 15.167-7.916.618 0 5.67-2.104 11.228-4.677l10.105-4.677 15.5-.71c13.17-.604 32.737-2.884 38-4.427 2.4-.704 51.076-3.495 80.5-4.617 14.85-.566 31.399-1.253 36.775-1.527 8.448-.431 10.957-.154 18.5 2.045 16.061 4.681 24.417 5.734 49.917 6.289 15.308.333 27.824.104 34.085-.624 7.25-.843 10.67-.856 12.796-.047 2.526.96 3.131.821 4.665-1.073.97-1.197 1.762-2.957 1.762-3.91 0-.954.94-2.584 2.086-3.622 2.063-1.867 2.119-1.85 5.029 1.595 1.618 1.915 3.78 5.049 4.804 6.963l1.862 3.48 1.637-3.917c1.494-3.575 1.775-3.78 3.22-2.334.872.871 1.81 3.587 2.087 6.034.477 4.236.762 4.578 5.91 7.103 2.976 1.46 5.89 2.653 6.478 2.653.588 0 3.504 2.08 6.48 4.623 2.976 2.543 10.023 6.93 15.66 9.75 9.803 4.905 10.45 5.431 14.908 12.127 8.113 12.186 9.95 23.56 4.71 29.139-2.338 2.487-9.345 4.376-13.378 3.605-1.743-.334-3.317.174-4.794 1.545-2.944 2.733-9.415 3.5-19.699 2.335-18.56-2.101-34.723-4.198-39-5.058-6.279-1.262-29.67-.646-34.5.909-11.28 3.632-22.698 8.207-26.738 10.715-4.33 2.688-8.887 10.871-10.633 19.093-.617 2.906-2.083 7.168-3.258 9.472-3.48 6.82-3.956 9.446-4.834 26.674-1.067 20.922.102 39.799 2.919 47.147 1.144 2.983 2.49 9.25 2.993 13.924.88 8.183 3.142 15.605 7.01 23 1.435 2.742 2.615 3.629 5.448 4.095 1.988.327 4.848 1.741 6.355 3.144l5.488 5.11c1.61 1.498 2.75 3.616 2.75 5.106 0 2.563-1.353 3.4-2.5 1.545-1.1-1.78-4.662-1.096-5.21 1-.635 2.431-1.105 2.477-3.468.339-1.843-1.668-5.362-2.365-11.765-2.329-4.318.024-14.311-2.824-15.291-4.36-.404-.632-.742-3.014-.75-5.293-.017-4.558-3.412-11.082-10.801-20.757-3.296-4.315-4.758-7.514-6.331-13.855-1.125-4.535-3.098-10.27-4.383-12.745-5.302-10.211-11.499-25.564-13.04-32.306-.904-3.956-2.042-8.094-2.529-9.194-.487-1.1-1.694-4.25-2.683-7-1.594-4.43-2.16-5.035-4.977-5.31-1.749-.17-4.18.226-5.404.881-1.224.655-4.423 1.47-7.109 1.81l-4.883.62-2.938 6.97c-1.616 3.835-2.938 7.805-2.938 8.824 0 1.019-1.072 5.082-2.382 9.029-4.914 14.802-5.882 19.372-6.18 29.176-.167 5.5-.595 13.15-.95 17-.545 5.887-.277 8.024 1.682 13.439 1.986 5.487 2.91 6.743 6.251 8.5 6.835 3.593 13.28 15.775 9.562 18.072-.56.346-2.762-.752-4.894-2.44-4.752-3.764-5.865-3.835-6.272-.398-.355 3-1.594 3.758-3.817 2.334z"/></svg>