<svg xmlns="http://www.w3.org/2000/svg" xmlns:dc="http://dublincore.org/documents/dcmi-terms/" height="600" viewBox="0 0 800 600" width="800"><metadata><dc:description>Silhouette of Homalacanthus, processed by PhyloPic Tools (https://github.com/eweitz/phylopic-tools)</dc:description><dc:source>http://phylopic.org/image/c2d42bf0-4907-4b12-a670-3e89820c45ca</dc:source><dc:creator>Steven Coombs</dc:creator><dc:license>http://creativecommons.org/publicdomain/zero/1.0/</dc:license></metadata><path d="M579.68 281.82c3.681-.49 8.061-.97 11.521.38-3.2 1.75-8.17 1.56-11.521.24l1.08.12v-.24l-1.08-.5zM555.68 281.54l-.84.78v.24c-4.16.56-8.74.32-13.08-.06l.36-.42v-.24l-1.08-.5c4.76-.68 9.87-.56 14.64.2z"/><path d="M608.31 284.22c.681 2.05-9.06 3.41-11.899 3.94-2.26.42-5.29 1.15-6.72 1.44-25.07 5.01-57.65 15.47-73.431 36.94l-.779-.78c-.601.61-1.24 1.16-1.44 2.16l1.14.271c-2.77 2.869-4.399 6.72-6.069 10.31-2.12 1.52-6.301-1.44-9.65-3.92-9.729-7.22-20.86-13.061-32.51-17.86-5.5-2.27-10.021-4.22-15.36-3.04-9.02 2-16.8 1.16-23.89 3.19-7.98 2.28-14.431 6.32-20.37 15.41-1.78 2.71-4.59 10.34-7.99 8.91-1.61-.671-3.84-4.94-4.93-6.181-4.4-5.029-11.27-16.5-17.26-16.37-5.84.13-12.71 1.79-18.44 2.721-10.75 1.75-23.42 2.13-33.14 7.439-.88.48-2.13 1.49-3.12 1.4-1.84-.15-7.58-5.74-9.92-7.851-3.08-2.779-5.5-4.529-8.3-5.26-4.13-1.08-9.89-1-15.42-1.82-5.52-.81-11.17-1.029-15.84-1.439-2.21-.19-4.68-.78-6.27-.21l-.1-1.061c-1.76-.18-3.65-.729-4.08.48-.55 1.53 2.3 1.57 3.12 2.64l.62-.859c9.77 7.069 20.56 13.18 31.51 18.08l-1.17.06v.24l.6.74c-15.87-2.58-39.37-21.21-56.1-26.45-7.65-2.4-15.09-3.28-22.08-4.811-5.79-1.26-12.52-3.18-18.71-5.16-1.77-.57-8.22-1.9-4.18-5.48l.63.84c1.51.01 1.39-2.2 0-2.4l-.5 1.08c-7.03-8.18-1.95-22.5 7.51-26.44 10.45-4.35 22.91-5.59 34.46-7.27 5.44-.79 10.82-.16 16.24-.66 32.91-3 67.99-2.75 101.28 1.78 14.48 1.97 29.21 2.91 42.79 5.14 3.12.51 6.07 1.6 9.3.69l.12.96c.65.65-.62.6-.479 1.44 2.76-.2 4.069-1.85 5.76-3.12l-.36-1.05c6.69-2.63 13.58-5.76 19.12-7.35 2.15-.62 10.87-4.23 12.18-2.28 2.051 3.05 2.721 7.67 4.25 11.17 1.63 3.74 1.92 6.79 6.971 8.65 6.369 2.35 16.409 2.85 22.5 3.86 5.33.88 9.46 1.17 15.859 1.79l-.359 1.05c14.76 2.82 32.64 2.05 48.479 3.12l-.12-.54c4.34.38 8.92.62 13.08.06.28-.03.561-.07.84-.12l-.12.84c2.58-.01 5.141.26 7.681-.24l-.721-.96c3.65-.29 7.381.25 11.04 0v1.2c2.61-.06 3.29.36 6 .24l.12-1.08c3.351 1.32 8.32 1.51 11.521-.24 2.06-.06 4.08-.17 6.12.12l-.721.96c3.17.54 6.261.35 9.12.72l.04-1.08c.777.141 2.367.761 2.547 1.301z"/><path d="M606.44 282.08l-.681.84-.04 1.08c-2.859-.37-5.95-.18-9.12-.72l.721-.96v-1.2c2.32-.08 6.66-.45 9.12.96zM580.76 282.32v.24l-1.08-.12-.12 1.08c-2.71.12-3.39-.3-6-.24v-1.2l-.72-.96c1.99-.49 4.45-.51 6.96-.48l-.12 1.18 1.08.5zM562.52 282.08l.721.96c-2.54.5-5.101.23-7.681.24l.12-.84c-.279.05-.56.09-.84.12v-.24l.84-.78-.12-1.14c2.391.09 4.601.36 6.96.48v1.2zM542.12 281.84v.24l-.36.42.12.54c-15.84-1.07-33.72-.3-48.479-3.12l.359-1.05-.12-1.11c14.091.84 30.761 2.69 47.521 2.4l-.12 1.18 1.079.5zM516.26 326.54l.7.51c-.2.28-.38.58-.52.9-.171.109-.32.22-.471.35l-.71-.149-.01.619v.051c0 .06-.01.12-.03.18l-.04-.81-1.14-.271c.2-1 .84-1.55 1.44-2.16l.781.78z"/><path d="M515.22 329a.54.54 0 0 0 .03-.18l-.01.31c-.01 0 0 .01-.01.021l-.011-.131V329zM412.88 263.03l.36 1.05c-1.69 1.27-3 2.92-5.76 3.12-.141-.84 1.13-.79.479-1.44l-.12-.96-.12-.96c1.71-.69 3.16-1.64 5.28-1.92l-.119 1.11zM298.04 331.76c1.32.24 4.11 2.08 3.12 3.36-.73.95-2.81-.22-4.08-.24l.12-.939-.6-.74v-.24l1.17-.06.27-1.141zM266.7 313.62l.86.62c-.05.189-.24.24-.24.479l-1.06.101-.62.859c-.82-1.069-3.67-1.109-3.12-2.64.43-1.21 2.32-.66 4.08-.48l.1 1.061zM196.76 290.48c1.39.2 1.51 2.41 0 2.4l-.63-.84-1.05.12v-.72l1.18.12.5-1.08z"/><g fill="none" stroke="#000" stroke-linecap="round"><path d="M591.2 282.2c-3.46-1.35-7.84-.87-11.521-.38" stroke-width="1.695"/><path d="M591.2 282.2c2.06-.06 4.08-.17 6.12.12" stroke-width="2.465"/><path d="M579.68 282.44c3.351 1.32 8.32 1.51 11.521-.24" stroke-width=".828"/><path d="M562.52 282.08c3.65-.29 7.381.25 11.04 0" stroke-width="2.044"/><path d="M541.04 281.34c4.76-.68 9.87-.56 14.64.2" stroke-width="1.781"/><path d="M541.76 282.5c4.34.38 8.92.62 13.08.06.28-.03.561-.07.84-.12" stroke-width=".823"/><path d="M516.26 326.54c15.78-21.47 48.36-31.93 73.431-36.94 1.43-.29 4.46-1.02 6.72-1.44 2.84-.53 12.58-1.89 11.899-3.94-.18-.54-1.77-1.16-2.55-1.3" stroke-width="1.602"/><path d="M412.88 263.03c6.69-2.63 13.58-5.76 19.12-7.35 2.15-.62 10.87-4.23 12.18-2.28 2.051 3.05 2.721 7.67 4.25 11.17 1.63 3.74 1.92 6.79 6.971 8.65 6.369 2.35 16.409 2.85 22.5 3.86 5.33.88 9.46 1.17 15.859 1.79" stroke-width="1.838"/><path d="M297.77 332.9c-10.95-4.9-21.74-11.011-31.51-18.08" stroke-width="1.66"/><path d="M509.11 338.5c-2.12 1.52-6.301-1.44-9.65-3.92-9.729-7.22-20.86-13.061-32.51-17.86-5.5-2.27-10.021-4.22-15.36-3.04-9.02 2-16.8 1.16-23.89 3.19-7.98 2.28-14.431 6.32-20.37 15.41-1.78 2.71-4.59 10.34-7.99 8.91-1.61-.671-3.84-4.94-4.93-6.181-4.4-5.029-11.27-16.5-17.26-16.37-5.84.13-12.71 1.79-18.44 2.721-10.75 1.75-23.42 2.13-33.14 7.439-.88.48-2.13 1.49-3.12 1.4-1.84-.15-7.58-5.74-9.92-7.851-3.08-2.779-5.5-4.529-8.3-5.26-4.13-1.08-9.89-1-15.42-1.82-5.52-.81-11.17-1.029-15.84-1.439-2.21-.19-4.68-.78-6.27-.21" stroke-width="1.621"/><path d="M515.2 329.2c.01-.061.02-.12.02-.181V329a.54.54 0 0 0 .03-.18v-.051c.03-.229.03-.439.01-.619M509.11 338.5c.37.02.75-.08 1.109-.26" stroke-width=".683"/><path d="M509.11 338.5c1.67-3.59 3.3-7.44 6.069-10.31" stroke-width="1.526"/><path d="M297.2 333.94c-15.87-2.58-39.37-21.21-56.1-26.45-7.65-2.4-15.09-3.28-22.08-4.811-5.79-1.26-12.52-3.18-18.71-5.16-1.77-.57-8.22-1.9-4.18-5.48" stroke-width="1.55"/><path d="M196.26 291.56c-7.03-8.18-1.95-22.5 7.51-26.44 10.45-4.35 22.91-5.59 34.46-7.27 5.44-.79 10.82-.16 16.24-.66 32.91-3 67.99-2.75 101.28 1.78 14.48 1.97 29.21 2.91 42.79 5.14 3.12.51 6.07 1.6 9.3.69" stroke-width="1.849"/></g></svg>