<svg xmlns="http://www.w3.org/2000/svg" version="1.2" width="139.2" height="382" viewBox="0 0 139.2 382"><path d="M105.9 161.45c3.666 3.767 5.5 8.75 5.5 14.95 0 2.7-.684 6.033-2.05 10-2.101 6.134-5.284 10.85-9.551 14.15-2.166 1.666-4.783 6.149-7.85 13.449-1.467 3.4-3.95 9.884-7.45 19.45a7283.423 7283.423 0 0 1-11.25 30.351c-2.233 6.366-3.35 11.267-3.35 14.699 0 2.233.467 4.767 1.399 7.601.934 2.8 1.4 6.133 1.4 10 0 3.833-3.05 13.967-9.15 30.399-6.133 16.4-9.199 25.184-9.199 26.351 0 2.166-.233 5.166-.7 9-.467 3.833-.7 7.017-.7 9.55 0 4.7-.2 7.35-.6 7.95-.667 1.033-3.084 1.55-7.25 1.55-.867 0-2.15-.25-3.851-.75-1.733-.5-3.066-.75-4-.75-.1 0-1.833.434-5.2 1.3-3.333.867-7.417 1.3-12.25 1.3-4.467 0-8.033-.366-10.7-1.1-1.933-.733-3.25-1.1-3.95-1.1-.333 0-.784.133-1.35.399-.567.233-1.017.351-1.35.351-.567 0-1.1-.217-1.6-.65-.564-.5-.848-1.083-.848-1.75 0-.4 1.833-1.184 5.5-2.35l12.4-3.9c12.3-4.167 19.133-8.3 20.5-12.4 1.433-4.233 3.117-16.083 5.05-35.55 1.767-18.033 2.65-30.1 2.65-36.2 0-.866-.301-2.449-.9-4.75-.6-2.333-.9-3.933-.9-4.8 0-1.733.434-3.033 1.301-3.899.866-.867 1.3-1.75 1.3-2.65 0-.733-.233-2.816-.7-6.25-.5-3.467-.75-5.8-.75-7 0-7.6 1.366-16 4.1-25.2 4.434-13.5 8.351-26.3 11.75-38.399 2.2-7.767 3.584-12.551 4.15-14.351 1.7-5.1 3.517-9.217 5.45-12.35 4.934-7.934 12.35-11.9 22.25-11.9 5.066-.001 9.316 1.749 12.749 5.249z" fill-rule="evenodd"/><path d="M96.15 251.55c.333 1 .8 2.216 1.399 3.649 1.034 3.233 1.717 6.3 2.051 9.2.1.3.216.684.35 1.15.066.466.1 1.466.1 3-.033 1.399.051 2.483.25 3.25.067.3.517 1.35 1.351 3.149.767 1.7 1.2 2.634 1.3 2.8.1.634.233 1.65.4 3.051.166 1.199.483 2.216.949 3.05.767 1.5 1.884 3.399 3.351 5.7.033.1.116.233.25.399h.05c1.7 2.566 2.767 4.2 3.2 4.9.967 1.5 2.066 4.133 3.3 7.899 1.267 3.801 2.7 8.801 4.3 15l.45.051v.1c.033 1.4.083 2.15.15 2.25.399 1.767 1.133 3.616 2.199 5.55l3 13c.534.834.934 1.867 1.2 3.101.167.666.283 1.416.351 2.25v.55c.133.166.233.434.3.8.166.333.383.967.649 1.9.301.699.634 1.316 1 1.85 1.267 2.033 2.017 3.267 2.25 3.7.767 1.434 1.301 2.733 1.601 3.899.166.733 1.399 3.334 3.7 7.801.399.699.783 1.399 1.149 2.1 1.566 2.4 2.351 3.767 2.351 4.1 0 .267.033.551.1.851v.05c-.066.066-.066.167 0 .3a1.88 1.88 0 0 0-.15.55c-.1.334-.183.65-.25.95-.633 1.134-1.983 1.7-4.05 1.7-1.5-.033-3.1-.217-4.8-.55a29.002 29.002 0 0 0-5.4-.5c-.1 0-4.767.833-14 2.5-6.366 0-10.8-.334-13.3-1-1.533-.733-2.75-1.084-3.649-1.05-.233-.034-.617.1-1.15.399-.6.2-1 .3-1.2.3-.866 0-1.717-.333-2.55-1-.833-.666-1.25-1.183-1.25-1.55-.033-1.233 1.8-2.233 5.5-3 6.1-1.399 9.3-2.149 9.6-2.25.301-.133 2.5-1.083 6.601-2.85 1.934-.967 3.45-1.65 4.55-2.05 0-.034.033-.067.1-.101 1.267-1.233 1.733-2.7 1.4-4.399a64.944 64.944 0 0 0-1.15-7.95c-.466-2-1.517-4.983-3.149-8.95a16.265 16.265 0 0 0-.7-1.65c-1-2.233-1.767-4.033-2.3-5.399-1.267-1.467-2.783-3.75-4.55-6.851-5.101-4.6-9.284-9.85-12.551-15.75-1.866-3.3-3.133-6.216-3.8-8.75a4.521 4.521 0 0 1-.3-1.199c-.533-2.2-.85-4.301-.95-6.301-.133-2.066-.35-3.8-.649-5.199-.034-.034-.034-.067 0-.101h-.054c-.533-2.133-1.933-4.434-4.199-6.899-2.4-2.601-3.75-4.617-4.051-6.051-.333-1.5-.483-2.616-.449-3.35-.034-.533-.051-1.2-.051-2-.5-.634-.966-1.267-1.399-1.9-3.667-5.1-6.334-9.333-8-12.699-2.8-5.567-4.566-9.601-5.3-12.101-.2-.6-.917-3.783-2.15-9.55-1.6-4.434-2.767-8.333-3.5-11.7l-4.65-21.2c-.199-.8-.733-2.466-1.6-5-.833-2.399-1.25-3.616-1.25-3.649-.434-2.066-.583-4.45-.45-7.15.233-3.399.95-5.517 2.15-6.35-.066.166-.134.467-.2.899a68.985 68.985 0 0 1 2.05-2.85c1.467-2.267 2.884-4.1 4.25-5.5 4.467-4.7 10.217-7.75 17.25-9.15 1.233-.267 2.15-.133 2.75.4.2.2.367.517.5.95 1.566 1.333 3.101 3.684 4.601 7.05a49.17 49.17 0 0 1 3.199 9.9c.467 1.966 1.067 5.533 1.801 10.699.666 5.233 1.183 8.584 1.55 10.051l2.75 9.85c0 .2.383 3.733 1.149 10.6.801 7.367 1.384 12.301 1.75 14.801.3 2.1 1.166 6.6 2.599 13.5z" fill-rule="evenodd"/><path d="M93.351 40.525c.302-.033.451.159.449.575-.603.929-1.02 1.479-1.25 1.65V43c.06-.036.168-.002.325.1.034.041.117.099.25.175l-.7.875.101.725c.191.166.35.365.475.6.469-.168.686-.043.65.375 0 .173-.066.398-.2.675-.167.243-.233.451-.2.625-.006.069.069.311.226.725.132.411.198.752.199 1.025.001.031-.083.131-.25.3.059.383.184.767.375 1.15.297.514.788 1.373 1.476 2.575.646 1.099 1.214 1.958 1.7 2.575.267.376 2.107 2.109 5.524 5.2.392.35.767.7 1.125 1.05.226.167.5.333.825.5.301.141.617.315.95.525.195-.066.504.142.925.625l.05.05c5.091 3.327 7.658 7.269 7.7 11.825 0 .308-.067.633-.2.975-.099-.001-.115.032-.05.1-.342 3.214-1.467 8.389-3.375 15.525-2.343 8.378-3.477 13.553-3.4 15.525-.002.581-.336 2.656-1 6.225-2.745 15.165-4.153 24.282-4.225 27.351-.131 3.035-.006 5.177.375 6.425.343 1.215.618 2.648.825 4.3.178 1.581.503 4.589.975 9.025.444 4.393.919 7.51 1.425 9.35.468 1.812.909 3.037 1.325 3.675-.344 4.216-.602 6.79-.774 7.726-.626 2.81-1.727 5.718-3.301 8.725-1.398 2.435-2.69 4.101-3.875 5-.867 1.967-2.4 3.684-4.6 5.15-1.674 1.066-3.541 1.883-5.6 2.45h1.074a30.352 30.352 0 0 1-4.75.75c-7.073.193-10.665 1.068-10.774 2.625-.104.801-.505 1.867-1.2 3.199-1.027 1.697-2.194 2.547-3.5 2.551-4.267-.003-6.933-.553-8-1.65-.575-.636-.9-2.169-.975-4.6.005-.892-.104-1.851-.325-2.875h-.3c-.092-.467-.2-.9-.325-1.301-.256-.8-.789-1.466-1.601-2-.941-.732-1.559-1.333-1.85-1.8.06-.066.168-.15.325-.25-.258-.399-.499-.683-.726-.85-1.292-1-2.809-2.699-4.55-5.101-2.016-2.733-3.024-4.667-3.024-5.8.001-.3.084-.649.25-1.05a.328.328 0 0 1 .149-.15 1.917 1.917 0 0 1-.524-1.024 147.049 147.049 0 0 0-.101-1.55c.344-2.203.535-3.503.575-3.9-.535-4.657-.785-7.558-.75-8.7-.028-7.211.681-14.095 2.125-20.649 1.418-6.509 2.085-10.659 2-12.45-.151-1.855.007-3.272.475-4.25.429-1.054.287-3.003-.425-5.851-.772-2.81-.197-5.451 1.726-7.925.042-.816.116-1.649.225-2.5.24-1.798.365-3.665.375-5.6-.287-2-.412-3.558-.375-4.675-.292-.45-.566-.916-.825-1.4-1.009-1.767-1.525-3.092-1.55-3.975-.258-2.144-.366-4.527-.325-7.15-.024-.241.408-2.633 1.3-7.175.782-4.509 1.19-7.292 1.226-8.35-.939-3.599-1.389-5.982-1.351-7.15.012-1.129.07-1.796.176-2 .135-.38.834-1.188 2.1-2.425.562-.616 1.403-.974 2.525-1.075a30.777 30.777 0 0 1 2.55-.25c.824-.208 1.85-.708 3.075-1.5 1.202-.929 2.602-1.721 4.199-2.375a8.994 8.994 0 0 0-.25-.925c-.42-1.372-.628-2.297-.625-2.775-.021-1.549.404-2.857 1.275-3.925a8.37 8.37 0 0 0-1.675-1.25c-1.193-.681-1.993-.656-2.4.075v-.375c-.023-1.414.785-3.156 2.425-5.225.906-1.206 2.382-2.98 4.426-5.325 1.244-1.724 3.369-3.482 6.375-5.275.243-.154.484-.305.725-.45.967-.6 1.95-1.15 2.95-1.65.5-.167 1.133-.383 1.899-.65 1.733-.534 3.784-.867 6.15-1 .267-.067.6-.133 1-.2.333.3.7.633 1.1 1 .067-.1.217-.167.45-.2.533-.2.834.017.9.65.3-.2.717-.034 1.25.5.399.333.616.633.649.9l-.449.65-.025.025-.025.574.25-.1c.133.177.216.302.25.375 0 .208-.116.433-.35.675-.3.201-.517.384-.65.55a.676.676 0 0 0-.05.275l.4-.15.25.05.225 1.025c-.033.307-.2.649-.5 1.025l-.5.425a.556.556 0 0 0-.05.25c.301-.27.635-.437 1-.5.535-.177.819-.044.85.4-.01.21-.284.368-.824.475z" fill-rule="evenodd"/><path d="M49.25 85.725c-.112-4.164-.18-7.697-.2-10.6-.015-2.953 2.635-6.061 7.95-9.325 5.124-3.255 8.774-4.022 10.95-2.3 2.068 1.71 2.91 3.661 2.525 5.85-.477 2.094-.269 5.402.625 9.925.145 1.916-.306 6.016-1.351 12.3a912.417 912.417 0 0 1-2 10.825c-.278 2.143-.57 6.068-.875 11.775-.301 4.784-.742 8.634-1.325 11.55-.75 3.96-2.092 7.985-4.024 12.075-.203.231-.378 1.257-.525 3.074-.142 1.321-.642 2.321-1.5 3-2.736 1.983-5.111 4.066-7.125 6.25-1.382 1.453-3.849 3.628-7.399 6.525-3.982 3.124-6.632 5.374-7.95 6.75a476.978 476.978 0 0 1-5.625 6.975c-1.083 1.21-2.066 2.218-2.95 3.025.387 1.306.787 3.431 1.2 6.375.349 2.676.649 5.435.9 8.275.064.667.031 1.167-.1 1.5-.326.366-1.076.616-2.25.75-.948.101-1.665-.782-2.15-2.65-.484-1.902-1.117-2.835-1.9-2.8-.72.065-1.245.715-1.575 1.95a5.828 5.828 0 0 0-.1 1.85c.257 2.768 2.065 4.834 5.425 6.2.783.3 1.925.7 3.425 1.2 1.04.433 1.606.916 1.7 1.449-.004.434-.188.817-.55 1.15-.295.3-.737.467-1.325.5-.42.066-1.328-.017-2.725-.25-1.501-.233-2.301-.366-2.4-.4.196.567.212 1.134.05 1.7-.329.633-.804.983-1.425 1.05-.461.066-1.361-.317-2.7-1.149-1.628-.934-2.67-1.733-3.125-2.4-.123-.133-.506-.35-1.15-.649-.72-.267-1.195-.534-1.425-.801-.2-.233-.367-.899-.5-2-.156-3.6-.298-6.216-.425-7.85-.318-2.21-.343-3.701-.075-4.475.197-.899.247-1.966.15-3.2-.354-3.249.387-6.416 2.225-9.5 1.348-2.347 2.957-3.904 4.825-4.675 1.871-1.946 4.121-4.379 6.75-7.301a584.902 584.902 0 0 0 9.525-11.425c4.357-4.984 7.924-8.977 10.7-11.975.594-.914.827-1.998.7-3.25a105.317 105.317 0 0 1-.75-5.9c-.359-12.008.099-19.949 1.375-23.825L49.25 85.725zM117.325 74.6c.539 1.639 1.089 3.706 1.65 6.2.467 2.258 1.75 6.391 3.85 12.4 1.898 5.691 3.123 9.933 3.675 12.725.303 1.63.536 3.48.7 5.55v.1c.131.311.306.977.525 2 .116.951.267 1.884.449 2.8l1.025 4.325a6.55 6.55 0 0 1 .8 2.125c.005.037-.012.395-.05 1.075l.5 1.975c.122.506.389 2.364.8 5.575.191.844.483 1.552.875 2.125.046 1.021.112 1.737.2 2.15-.001.196.225.68.675 1.45-.031.1.019.216.15.35-.423 1.76-.79 4.16-1.101 7.2l2.051 10.399c-.243 3.494-.418 5.777-.525 6.851-.287 1.276-.604 2.352-.95 3.225v.4c.029.174.088.565.175 1.175a104.394 104.394 0 0 0-.399 3.7c-1.323 10.207-2.606 17.832-3.851 22.875.784 4.232 1.234 6.749 1.351 7.55.327 2.229.627 5.17.899 8.825.049.96-.234 2.335-.85 4.125-.881 2.554-1.406 4.146-1.575 4.774-1.014 4.513-1.722 7.021-2.125 7.525-.264.258-.688.416-1.274.475-1.329.101-2.104.167-2.325.2-.137.233-.387.467-.75.7-.719.466-1.776.85-3.175 1.15-1.273.231-2.365.248-3.275.05-.939-.266-1.539-.365-1.8-.3-1.107.162-1.882-.204-2.325-1.101-.065-.066-.082-.133-.05-.2-.772-.729-1.372-2.222-1.8-4.475-.119-.725-.011-1.366.324-1.925.361-.731 1.028-1.165 2-1.3a1.798 1.798 0 0 1 1.375.05c.708-1.688 1.032-2.747.976-3.175-.03-.137-.28-.87-.75-2.2-.525.369-.959 1.202-1.3 2.5-.275 1.056-1.034 1.715-2.275 1.975-.687.04-1.303-.285-1.85-.975-.519-.467-.776-.85-.775-1.15-.09-.267-.081-.55.025-.85 1.096-1.66 2.07-4.035 2.925-7.125 1.396-4.82 1.971-7.879 1.725-9.175a74.367 74.367 0 0 0-.2-.5c.169-.5.385-.967.65-1.4 1.112-2.232 2.462-3.883 4.05-4.95 0-.1.018-.2.05-.3l1.275-8.4c1.062-8.772.829-17.306-.7-25.6-.925-4.541-1.033-8.833-.325-12.875.715-3.979.906-6.878.575-8.7-.744-3.783-1.71-6.891-2.899-9.325-.672-1.218-1.197-2.334-1.575-3.35a149.093 149.093 0 0 1-1.601-2.3c-1.128-1.659-2.153-3.726-3.074-6.2-.257-.68-.924-2.888-2-6.625l-1.825-9.475c-.123-3.276-2.356-6.776-6.7-10.5-2.263-1.846-3.854-3.162-4.775-3.95-1.533-1.463-2.392-2.722-2.574-3.775-.941-5.07-.857-8.362.25-9.875.733-1.09 1.376-2.815 1.925-5.175.377-1.002 1.002-1.919 1.875-2.75.167-.267.367-.517.6-.75 1.477-1.855 3.21-2.956 5.2-3.3.927-.173 1.701-.14 2.325.1.335-.002.818.065 1.45.2 2.212.55 3.937 1.65 5.175 3.3.29.718 1.106 1.693 2.45 2.925 1.54 1.371 2.456 2.296 2.75 2.775 1.266 1.822 2.299 3.847 3.098 6.077zM94.55 6.75l-.05.05a.768.768 0 0 1 .2.15c.434-.3.833-.333 1.2-.1.666.633 1.017 1.283 1.05 1.95l-.25.55c.033.066.083.15.15.25h.199c.334 0 .567.117.7.35l.05.35c0 .167.334.383 1 .65.067.034.184.3.351.8.133.5.25.816.35.95 0 .133-.066.3-.2.5.334.1.517.267.551.5.033.1.033.284 0 .55v.05c.733-.2 1.066-.05 1 .45-.034.566-.134 1.05-.301 1.45-.199.167-.333.35-.399.55.033.167.083.383.149.65.067-.067.15-.1.25-.1l.351.05v.45c-.033.167-.117.5-.25 1-.167.434-.233.833-.2 1.2a3.57 3.57 0 0 1-.25.7l-.15.9a.321.321 0 0 1 .15.15c.1.133.167.4.2.8a1.6 1.6 0 0 1-.3.7 1.33 1.33 0 0 0-.351.25c-.066.1-.1.2-.1.3.066.033.1.2.1.5 0 .167-.066.583-.2 1.25-.033.067-.083.283-.149.65-.033.367-.066.733-.101 1.1.034.067.134.233.301.5-.034.033-.317.3-.851.8-.133.367-.25.75-.35 1.15.166.1.25.183.25.25.033.3-.117.483-.45.55a.73.73 0 0 0-.15.45c.267.4.4.683.4.85-.033.2-.15.417-.35.65a.82.82 0 0 0-.301.75c-.033.066-.283.217-.75.45H97c-.066 0-.083.017-.05.05-.033.033-.017.066.05.1.066.233.101.45.101.65s-.184.3-.551.3h-.1c-.066.067-.116.184-.15.35v.025l.25-.05.025.025c.05.043.075.11.075.2a2.042 2.042 0 0 1-.15.775c0 .065-.066.182-.2.35-.232.142-.315.283-.25.425-.011.279-.302.438-.875.475-.066.033-.083.083-.05.15l.101.05a.997.997 0 0 0-.301.35 1.364 1.364 0 0 0-.199.325c.1-.001.217.016.35.05h.05c.034-.002.051.048.05.15l-.05.2h-.6c-.1.107-.184.249-.25.425.133 0 .267.016.399.05l.101.2c-.267.034-.434.067-.5.1-.199.041-.199.1 0 .175-.033.033-.15.083-.351.15-1.251 2.136-2.159 3.203-2.725 3.2-.501-.002-.801-.177-.9-.525-1.764.83-3.905 1.263-6.425 1.3l-3.25.05c-.923.144-1.731.477-2.425 1-.612 1.583-1.121 2.667-1.525 3.25a32.655 32.655 0 0 1-3.625 3.55c-2.766 2.099-5.374 3.166-7.824 3.2-.3-.034-.533-.05-.7-.05-1.455.07-2.497.295-3.125.675-1.167.584-2.084.875-2.75.875-2.115-.034-3.499-.584-4.15-1.65-.229-1.167-.329-1.784-.3-1.85-.034-.309.065-.875.3-1.7.143-.791.218-1.341.226-1.65-.002-.28-.135-.663-.4-1.15-.331-.549-.464-.874-.4-.975-.021-.901.32-1.509 1.025-1.825a3.405 3.405 0 0 1-1.35-1.125c-.457-.52-.683-.953-.676-1.3a.998.998 0 0 1 .351-.775c.334-.414.567-.656.7-.725a9.496 9.496 0 0 0-.801-.45c-.332-.209-.565-.385-.699-.525-.793-.245-1.168-.87-1.125-1.875a1.828 1.828 0 0 1 .149-.925c.101-.342.217-.683.351-1.025.195-.477.479-1.01.85-1.6l.3-.4c1-1.934 1.5-2.967 1.5-3.1-.033-.067-.166-.183-.399-.35-.233-.167-.217-.55.05-1.15-.533-.7-.917-1.2-1.15-1.5-.3-.467-.467-.85-.5-1.15-.166-.2-.25-.383-.25-.55L52.2 26c-.066-.867.05-2.283.35-4.25.233-1.867.434-3.1.601-3.7.3-1.367.85-2.617 1.649-3.75-.1-.233-.166-.4-.199-.5-.067-.4.1-.867.5-1.4.399-.567.733-.817 1-.75v-.15l-.051-.05v-.5h.2c.101-.267.283-.566.55-.9v-.4c0-.167.084-.367.25-.6.167-.333.367-.483.601-.45.033-.034.1-.017.2.05.1-.267.233-.45.399-.55.033-.367.233-.717.601-1.05.033-.1.466-.433 1.3-1h.75c.899-.733 1.366-1.367 1.399-1.9.134-.033.334-.017.601.05l.05-.75c0-.4.116-.6.35-.6.034 0 .233.15.601.45.233-.333.533-.5.899-.5.2 0 .483.117.851.35.166-1 .333-1.517.5-1.55.166-.067.767-.083 1.8-.05l-.05-.4c0-.367.166-.533.5-.5.267-.033.5.133.7.5.033.067.083.183.149.35h.05c-.333-.667-.233-.883.301-.65.3.1.533.283.699.55.134-.033.267-.05.4-.05a2.596 2.596 0 0 1-.05-.3c0-.367.333-.55 1-.55.467-.033.8.033 1 .2a.449.449 0 0 1 .25.3c.166-.5.383-.733.649-.7.233-.033.517.184.851.65a8.4 8.4 0 0 0 .35-.45c.134-.3.316-.4.55-.3.233-.066.483-.033.75.1.267-.033.45.017.551.15 0 .034.033.15.1.35.066 0 .2-.083.4-.25.133-.2.283-.283.449-.25.367-.033.667.167.9.6.1-.267.233-.383.4-.35L78.8.45c-.033-.3.1-.45.4-.45.033 0 .134.017.3.05.334 0 .55.217.65.65.133-.066.333.017.6.25.134 0 .334-.05.601-.15.466-.1.75.167.85.8l1.4-.15c.366 0 .566.117.6.35.033.1.066.283.1.55.5-.233.817-.333.95-.3.4-.133.767 0 1.101.4.033.133.416.383 1.149.75.033 0 .467-.05 1.3-.15.599-.1.833.217.699.95v.05c.267 0 .467-.033.601-.1.133-.133.233-.2.3-.2.866 0 1.166.483.899 1.45l.051.05.449-.05h1.25c.233 0 .367.117.4.35 0 .133-.1.317-.3.55h-.05c.166.066.35.15.55.25h.25l.55.05c0 .033.033.15.1.35z" fill-rule="evenodd"/></svg>