<svg xmlns="http://www.w3.org/2000/svg" xmlns:dc="http://dublincore.org/documents/dcmi-terms/" height="1052.362" width="744.094"><metadata><dc:description>Silhouette of Homo sapiens sapiens, processed by PhyloPic Tools (https://github.com/eweitz/phylopic-tools)</dc:description><dc:source>http://phylopic.org/image/b042f8d5-d2c3-4659-8b2a-60b26d096f0c</dc:source><dc:creator>Andrew A. Farke</dc:creator><dc:license>http://creativecommons.org/licenses/by/3.0/</dc:license></metadata><path d="M341.666 258.637c.075-.091.287-.14.608-.14.457 0 .519-.027.832-.374.198-.22.345-.483.353-.633.03-.547-.04-.917-.21-1.134-.099-.125-.179-.28-.179-.347 0-.186-.955-.979-1.178-.979-.385 0-.508-.277-.508-1.137 0-.554.042-.85.137-.977a.85.85 0 0 0 .14-.428c0-.136.067-.299.144-.363.078-.064.14-.167.14-.228s.127-.233.282-.381c.155-.148.281-.311.281-.362 0-.05.065-.163.143-.25.103-.114.16-.466.202-1.242.054-.998.042-1.11-.143-1.424-.111-.187-.202-.393-.202-.456 0-.173-.95-1.063-1.218-1.141a1.3 1.3 0 0 1-.328-.14c-.052-.038-.39-.1-.75-.138-.36-.037-.708-.11-.772-.162-.064-.052-.254-.073-.422-.047-.359.057-1.459-.185-1.672-.369a.55.55 0 0 0-.299-.127c-.083 0-.177-.042-.209-.094s-.14-.094-.241-.094a.9.9 0 0 1-.346-.083 5.476 5.476 0 0 0-1.85-.529c-.585-.064-1.299-.242-1.603-.399-.098-.05-.451-.207-.786-.348a15.798 15.798 0 0 1-.797-.356c-.358-.19-.66-.335-1.312-.633a168.4 168.4 0 0 1-2.53-1.216c-1.973-.963-4.272-1.805-5.764-2.111-.438-.09-.834-.197-.88-.238-.144-.128.147-.668.661-1.226.67-.729.718-1.063.378-2.608a20.115 20.115 0 0 1-.397-2.484c-.072-.818-.617-4.517-.93-6.318-.427-2.459-.73-3.617-1.436-5.49-.297-.788-.37-.972-1.135-2.859-.26-.644-.475-1.226-.476-1.294 0-.068-.105-.237-.23-.375-.126-.138-.431-.48-.68-.757-.248-.278-.563-.553-.7-.611-.137-.058-.716-.558-1.288-1.111-.572-.553-1.09-1.006-1.15-1.006-.098 0-.529-.313-2.04-1.482-.696-.54-1.218-.798-2.097-1.038a7.363 7.363 0 0 1-1.218-.457c-.442-.233-.569-.254-1.377-.237-.724.015-1.04-.026-1.687-.223-.438-.133-.945-.316-1.126-.408a1.804 1.804 0 0 0-.686-.166c-.196 0-.38-.024-.409-.053-.029-.03-.178.012-.331.092-.198.102-.407.126-.72.084-.916-.126-1.386-.134-1.996-.031-.53.089-.691.082-1.03-.046-.578-.217-2.518-.534-3.272-.534-.353 0-.927-.04-1.276-.092-.64-.093-3.01-.42-3.962-.548a2.328 2.328 0 0 1-.89-.318c-.321-.213-.655-.368-1.78-.825-.31-.125-.796-.194-1.734-.243-.59-.03-1.028-.108-1.3-.228-.226-.1-.468-.182-.537-.182-.07 0-.397-.124-.728-.276-.855-.391-1.631-.538-2.101-.397-.204.06-.522.11-.707.11-.324 0-.78.154-1.281.43-.95.524-1.11.574-1.567.49a12.72 12.72 0 0 0-.722-.112c-.297-.032-.586-.333-.906-.942-.26-.493-.759-1.066-1.137-1.304-.65-.41-2.08-.175-3.426.565l-.588.323-.865-.203c-.475-.112-1.096-.315-1.38-.451-.512-.247-.516-.252-.796-1.041-.23-.65-.34-.834-.61-1.016-.287-.195-.395-.215-.877-.162-.302.034-.618.096-.703.138a6.2 6.2 0 0 1-.387.17c-.13.051-.353.14-.497.199-.537.215-1.465.01-1.613-.36-.03-.075.08-.328.246-.562.32-.452.488-1.275.287-1.4-.17-.105-.011-.476.229-.536.265-.067.277-.117.062-.274-.145-.106-.148-.146-.029-.385.074-.147.222-.394.33-.549.632-.899.846-1.467 1.131-2.999.077-.412.22-1.023.319-1.358.098-.336.262-1.137.365-1.781.103-.644.256-1.467.34-1.828.176-.753.13-2.206-.098-3.058a4.381 4.381 0 0 1-.135-.906c0-.37-.114-1.016-.389-2.213-.151-.66-.937-2.283-1.174-2.426-.069-.041-.125-.128-.125-.192 0-.169-.221-.622-.304-.623-.04 0-.071-.047-.071-.103 0-.056-.081-.217-.181-.357a1.83 1.83 0 0 1-.245-.507c-.035-.138-.1-.252-.144-.252-.045 0-.143-.116-.219-.257-.203-.382-.534-.715-.846-.852-.198-.087-.242-.143-.155-.197.14-.086.101-.139-.767-1.067-.298-.318-.63-.758-.737-.978a2.416 2.416 0 0 0-.582-.7c-.214-.167-.536-.44-.716-.609-.18-.168-.36-.306-.398-.306-.04 0-.071-.085-.071-.188 0-.176-.174-.24-.532-.196-.06.01-.137-.03-.17-.083-.032-.053-.142-.096-.243-.096-.339 0-1.37-.756-1.264-.927.1-.163-.578-.405-1.187-.423-.377-.01-.692-.08-.88-.191-.29-.171-.297-.171-.51.027a.813.813 0 0 1-.568.201c-.193 0-.47.048-.614.106-.316.127-1.615.111-1.775-.022-.062-.05-.233-.111-.379-.133-.146-.022-.553-.09-.903-.152-.543-.095-.738-.088-1.312.046-.371.087-.751.157-.845.157-.093-.001-.144.038-.115.087.058.093-.414.048-.971-.094-.176-.044-.345-.065-.375-.047-.076.047-.04-.877.046-1.158.09-.3-.126-.175-.246.141-.118.31-.243.282-.313-.069-.043-.215-.017-.324.097-.408a.46.46 0 0 0 .168-.293.835.835 0 0 1 .085-.295c.119-.193-.028-.13-.277.119-.285.285-.334.288-.49.037-.068-.109-.08-.17-.023-.135.055.034.1-.01.1-.087 0-.118-.038-.13-.177-.054-.256.136-.425-.098-.35-.487.036-.187.027-.256-.024-.178-.061.095-.127.102-.266.028-.203-.108-.401.012-.401.244 0 .097-.144.117-.624.087-.58-.037-.64-.022-.84.206-.12.135-.219.316-.22.402 0 .086-.056.174-.12.195-.08.027-.035.147.14.377.328.43.342.725.035.725-.257 0-.383-.131-.467-.485-.054-.227-.091-.245-.412-.202-.193.026-.499.044-.68.04-.516-.012-.709.062-.827.321-.169.371-.134.681.09.8l.198.107-.191.192c-.15.15-.17.226-.09.353.214.343.04.447-.664.396-.616-.044-.671-.032-.882.197-.198.213-.22.31-.182.77l.044.527-.552-.061c-.89-.1-1.032-.141-1.252-.376l-.209-.222.255-.335c.163-.214.334-.335.472-.335.24 0 .511-.224.511-.422 0-.134-.027-.145-.82-.337-.27-.066-.492-.157-.492-.202 0-.045-.221-.058-.492-.028-.437.048-.536.103-.89.494-.22.242-.399.473-.399.514 0 .041-.044.074-.098.074-.054 0-.19.096-.304.214-.29.3-.683.536-.896.536-.223 0-.51.42-.44.643.034.105-.034.248-.182.387-.226.213-.235.264-.235 1.37 0 .666.04 1.175.094 1.208.052.032.094.174.094.315 0 .348-.495.808-1.03.958-.233.065-.463.153-.512.196-.049.043-.229.078-.4.078s-.477.104-.679.232c-.364.23-.367.238-.36.8.01.494-.024.604-.239.828-.296.31-.311.49-.06.717.102.093.187.256.187.36 0 .106.114.311.254.457l.254.266-.178.349c-.098.192-.355.538-.572.77-.364.391-.396.468-.44 1.06-.032.431-.102.697-.217.824-.125.138-.19.426-.244 1.097-.04.5-.11 1.225-.157 1.611-.048.406-.049.922 0 1.219.045.283.121.784.169 1.112.047.328.132.642.187.698.056.056.102.236.102.4 0 .163.063.35.14.414.1.083.141.302.141.754 0 .523.038.685.213.902.118.146.27.434.34.64.069.206.235.521.37.7.337.452.576.942.576 1.183 0 .111.055.248.122.303.215.18.049 1.351-.248 1.74-.137.18-.248.374-.248.433 0 .06-.211.35-.468.646-.692.795-.925 1.723-.603 2.402.113.237.253.348.58.46.236.08.504.146.595.146.091 0 .31.153.486.34.27.287.309.38.243.586-.294.917-.38 1.342-.323 1.576.069.285 1.142 1.434 1.338 1.434.081 0 .12.157.123.492 0 .524.08.709.488 1.187.243.286.285.3.83.272l.575-.029.388.43c.27.3.455.639.614 1.124.125.382.283.76.352.842.068.081.124.193.124.247 0 .14.425.402.652.402.105 0 .271.08.37.179.167.166.313.176 2.179.149 1.1-.016 2.147-.058 2.328-.093.7-.135 1.895-.433 2.045-.511.724-.376 2.518-.517 3.05-.24.148.078.405.14.571.14.338 0 .808.206 1.001.439.176.21.28 4.04.115 4.248-.08.103-.086.282-.015.685.087.499.078.564-.103.756a.816.816 0 0 0-.198.498c0 .158-.063.34-.14.404-.09.074-.14.28-.14.562 0 .27-.053.489-.134.556-.074.061-.161.277-.196.48-.034.203-.096.39-.137.415-.041.025-.106.564-.143 1.196-.04.693-.114 1.204-.185 1.289-.065.077-.145.32-.178.538-.086.558-.34 1.055-.542 1.055-.215 0-.454.46-.454.871 0 .2-.07.382-.187.488-.125.113-.188.289-.188.525 0 .195-.042.38-.094.412-.052.032-.094.157-.094.277 0 .12-.062.242-.136.271-.174.067-.614.758-.614.965 0 .086-.097.287-.216.447-.119.16-.294.458-.39.665-.35.76-1.099 1.723-2.441 3.139-.757.799-1.604 1.756-1.882 2.127-1.285 1.714-2.258 3.596-2.801 5.417-.139.464-.67 1.9-1.18 3.19-.921 2.323-.935 2.351-1.491 2.9-.456.452-.599.67-.763 1.17-.226.687-.498 1.128-.694 1.128-.23 0-1.381.409-1.828.649-.079.043-.288.109-.465.148a2.247 2.247 0 0 0-.466.15c-.079.045-.523.252-.986.462-.464.21-.96.493-1.104.63-.236.227-.349.255-1.219.308-.684.04-1.145.126-1.614.298-2.446.898-3.033 1.134-3.68 1.479-1.167.621-1.208.664-1.086 1.12.089.332.081.398-.055.47-.087.046-.2.224-.253.395-.197.644.191 1.193.848 1.198.347 0 1.346-.458 1.752-.809.218-.187.46-.059.46.245 0 .41.258.567.926.567.523 0 .629-.034 1.012-.327.236-.18.691-.45 1.013-.603.357-.169.717-.43.924-.673l.34-.397.347.347c.474.474 1.127.658 2.029.574.562-.053.701-.038.804.086.082.098.276.15.558.15.239 0 .849.028 1.356.062l.922.061-.063.29c-.08.364-.096.881-.03.948.029.028.673.087 1.433.132 1.123.066 1.443.057 1.701-.052.176-.073.641-.194 1.035-.27.394-.075.794-.161.889-.192.125-.04.197.01.26.174.15.394.452.428 2.922.33 1.569-.063 2.61-.06 3.317.01.567.055 2.19.103 3.608.108 4.118.015 3.783.04 4.183-.31.386-.338.96-1.184 1.06-1.561.038-.145.206-.323.413-.44.455-.256 1.186-.935 1.186-1.102 0-.072.063-.184.14-.248.078-.064.14-.152.14-.194 0-.094.55-.94.696-1.071.21-.188.62-1.108.568-1.272-.05-.159.786-2.114 1.04-2.43.139-.173.696-1.364.696-1.488 0-.05.061-.21.138-.355.309-.596.687-1.517.84-2.046.33-1.147.435-1.404.676-1.655.216-.226.25-.346.273-.988.015-.402.09-.879.164-1.06.076-.18.166-.505.202-.723.036-.217.144-.495.24-.618.099-.125.154-.303.126-.408-.048-.185.126-.99.397-1.83.104-.323.213-.471.41-.558.148-.065.248-.153.222-.195-.025-.042-.083-.053-.127-.025-.044.028-.018-.076.059-.23.077-.155.18-.306.23-.337a.103.103 0 0 0 .034-.142c-.029-.048-.013-.087.037-.087.05 0 .074-.074.053-.164-.02-.09.038-.372.126-.625.168-.477.362-.599.68-.428.18.096.557.187 1.029.249.18.024.425.09.545.15.172.084.234.08.3-.028.068-.111.133-.097.382.087.202.15.424.221.684.22.3 0 .472.069.774.314.214.174.488.359.61.41.12.053.283.13.36.175.379.213.571.295.695.295.074 0 .2.064.278.144.098.098.406.158.967.191.508.03.907.104 1.042.192.12.08.278.121.35.093.072-.028.17.02.217.105.066.117.235.158.682.167.328.01.688.062.8.123.113.06.31.11.44.11.129 0 .262.044.296.099.033.054.11.08.17.059.059-.022.25.018.424.089.174.07.543.128.82.128.277 0 .504.039.504.087 0 .15.59.392 1.078.442.257.027.932.047 1.5.046.566 0 1.199.042 1.405.097.206.055.48.098.609.097.129 0 .466.077.75.175.283.098.6.169.702.157.118-.014.22.058.28.194.081.183.16.214.517.202.232-.01.443-.01.469 0 .055.02 3.697.107 4.304.104.228 0 .48-.032.562-.069.342-.154 1.526-.234 1.44-.098-.035.058.01.07.111.03.13-.05.147-.037.07.055-.219.264.292 1.324.681 1.414.652.152 1.245.455 1.512.772.239.285.303.46.349.956.031.333.1.659.153.723.122.147.304 3.226.225 3.817-.05.387-.028.478.187.734.213.253.246.379.246.927 0 .53.034.663.201.813.38.336.741.903.648 1.015-.055.066-.055.16 0 .244a.881.881 0 0 1 .088.39c.001.138.043.278.095.31.052.032.094.138.094.237 0 .215.43 1.18.563 1.262.052.032.094.153.094.268 0 .121.158.364.375.576.206.201.375.404.375.45 0 .047.126.245.28.44.155.195.282.42.282.5 0 .08.045.173.1.206.054.034.136.16.181.279.124.325 1.526 1.358 1.843 1.358.144 0 .548-.11.899-.243.574-.22.657-.23.846-.107.617.404 3.355.499 14.359.494 9.076 0 9.092 0 10.169-.217.922-.183 3.537-.488 4.191-.489.137 0 .258.096.354.28.094.183.34.38.697.56l.551.279 2.88.053c2.394.044 2.905.03 3.03-.08.434-.377 1.26-.408 1.841-.07.194.113.593.186 1.258.23.535.034 1.02.1 1.075.143.056.044.55.105 1.099.137.818.048 1.018.033 1.112-.08zm-102.997-4.904c.001-.034 1.165-1.39 2.587-3.014 1.423-1.623 3.19-3.711 3.927-4.639.737-.928 1.537-1.877 1.779-2.109.29-.278.569-.692.82-1.218l.382-.796.07.421c.105.615.1 2.142-.01 3.505-.104 1.29-.18 1.552-.98 3.384a25.7 25.7 0 0 0-.651 1.615c-.181.553-.42.765-1.13 1.003a4.362 4.362 0 0 0-.84.4c-.205.134-.838.404-1.407.6-.742.255-1.1.43-1.268.622l-.234.266-1.523.011c-.838.01-1.523-.017-1.522-.05zm-2.76-79.852c-.028-.046.013-.136.089-.2.116-.095.14-.081.14.084 0 .2-.134.268-.228.115z"/></svg>