<svg xmlns="http://www.w3.org/2000/svg" xmlns:dc="http://dublincore.org/documents/dcmi-terms/" height="1052.362" width="744.094"><metadata><dc:description>Silhouette of Homo sapiens sapiens, processed by PhyloPic Tools (https://github.com/eweitz/phylopic-tools)</dc:description><dc:source>http://phylopic.org/image/4dd48260-40d1-4302-95af-92cd445203b0</dc:source><dc:creator>Andrew A. Farke</dc:creator><dc:license>http://creativecommons.org/licenses/by/3.0/</dc:license></metadata><path d="M268.656 717.842c.095-.055 1.442-.131 2.993-.17 1.712-.041 2.977-.122 3.216-.206.297-.103 1.641-.118 5.404-.06 4.314.066 5.038.102 5.21.257.163.148.37.166 1.158.101.528-.044 2.126-.09 3.55-.104 1.426-.014 3.073-.086 3.661-.161.637-.081 1.15-.096 1.267-.036.108.056.7.13 1.316.165.987.056 1.152.038 1.4-.158.17-.133.462-.22.736-.22.269 0 .57-.089.73-.214.375-.291 1.642-.363 6.529-.37l3.95-.01.44-.396c.303-.275.55-.397.8-.397.272 0 .526-.148 1.039-.605.787-.701 1.657-1.352 1.808-1.352.058 0 .38-.227.717-.503.337-.277.803-.603 1.036-.725.462-.243.426-.115.679-2.4.053-.482.243-.8.333-1.209.135-.608.22-1.226.31-1.842.095-.645.194-1.29.244-1.94.133-1.748-.163-3.532.142-5.26.058-.327.192-.638.317-.946.12-.293.245-.586.412-.854.286-.459.644-.87 1-1.277.315-.358 1.024-.546 1.001-1.022-.01-.13-.22-.148-.299-.252-.317-.416-.493-.93-.659-1.426-.325-.971-.423-2.004-.65-3.003-.052-.231-.098-.464-.164-.691-.213-.73-.502-1.434-.749-2.152-.135-.394-.22-.807-.4-1.183a2.115 2.115 0 0 0-.304-.476 3.613 3.613 0 0 0-.794-.68c-.893-.566-1.946-.83-2.897-1.293-.533-.26-1.122-.444-1.571-.83-.099-.085-.207-.186-.233-.314-.073-.359.19-.708.26-1.068.16-.81.226-1.636.369-2.45.195-1.11.36-2.23.665-3.316.1-.354.288-.68.378-1.036.118-.465.197-.944.21-1.423.01-.385-.058-.768-.108-1.15-.062-.469-.253-.926-.236-1.4.017-.473.187-.932.335-1.383.107-.324.293-.618.396-.943.216-.68.284-1.398.458-2.09.088-.348.206-.688.296-1.036.093-.357.192-.713.252-1.077.117-.708.13-1.429.21-2.142.07-.63.125-1.264.24-1.888.064-.346.18-.68.249-1.025.088-.442.144-.89.21-1.335.16-1.093.313-2.186.451-3.282.084-.67.135-1.346.23-2.015a50.31 50.31 0 0 1 .35-2.073c.277-1.5.453-3.03.894-4.49.054-.18.158-.34.213-.519.155-.506.232-1.033.324-1.554.101-.573.174-1.15.25-1.727.125-.958.228-1.919.337-2.879.054-.48.105-.96.158-1.44.156-1.4.333-2.8.472-4.202.057-.575.113-1.15.15-1.727.13-1.975.167-3.954.261-5.93.096-2.016.19-4.031.312-6.046.068-1.113.174-2.224.234-3.338.054-1.016-.263-2.106.113-3.051.062-.156.263-.226.332-.379.118-.26.105-.564.113-.85.034-1.285-.237-2.56-.302-3.844-.06-1.187-.464-2.44-.081-3.564.064-.187.256-.3.371-.46.174-.241.238-.581.483-.75.078-.053.19-.09.28-.056.483.175.684.775.96 1.209 1.022 1.605 1.575 3.472 2.548 5.108 1.303 2.192 3.163 4.03 4.386 6.27.762 1.394 1.21 2.94 1.811 4.41 1.083 2.646 2.128 5.307 3.242 7.939 1.242 2.932 2.794 5.739 3.836 8.747.13.374.194.768.298 1.151.146.536.312 1.066.455 1.602.14.525.267 1.052.392 1.58.055.233.095.469.156.7.19.719.45 1.418.65 2.133.101.363.176.732.279 1.094.262.92.578 1.824.864 2.736.254.81.543 1.612.757 2.434.07.266.103.542.172.809.044.17.104.335.155.502.136.44.28.879.409 1.321.144.497.28.996.408 1.497.267 1.041.505 2.09.757 3.134.056.23.117.46.167.693.105.488.2.979.28 1.472.235 1.43.387 2.872.59 4.307.071.502.149 1.004.221 1.506.08.556.145 1.115.234 1.67.093.577.186 1.156.312 1.727a42.84 42.84 0 0 0 .906 3.454c.271.874.6 1.73.93 2.584.122.32.248.64.389.952.491 1.09 1.077 2.136 1.588 3.218.145.307.247.636.42.929.565.96 1.252 1.85 1.996 2.68.113.126.225.262.371.346.349.2.76.264 1.154.345.518.107 1.053.103 1.575.186.495.08.986.185 1.474.298.317.073.733 0 .945.246.434.502.166 1.315.216 1.976.046.613.262 1.257.076 1.843-.07.216-.295.347-.417.54-.164.258-.261.554-.417.817-.275.466-.6.902-.912 1.345-.321.458-.688.884-.985 1.358-.132.21-.253.43-.354.658-.114.257-.17.535-.282.793-.319.738-.62 1.502-1.101 2.146-.823 1.101-1.96 1.93-2.984 2.847-.463.414-.92.84-1.427 1.199-.75.531-1.53 1.041-2.375 1.402-.347.148-.733.182-1.089.305-.193.067-.37.172-.565.234a3.993 3.993 0 0 1-.5.116c-.564.103-1.139.134-1.704.229-1.435.242-2.869.51-4.28.869-.389.099-.766.24-1.151.351-.319.092-.636.191-.96.264-.454.103-.913.19-1.376.244-.342.04-.764-.16-1.031.058-.234.189-.142.585-.236.87-.146.444-.35.866-.51 1.305-.117.321-.21.651-.329.972-.122.328-.294.637-.395.972-.108.356-.336.457-.224 1.094.261 1.487.413 1.875 1.03 2.623.493.6.68.745 1.03.8.237.037.585.141.775.23.19.09 2.237.739 4.548 1.442 4.501 1.37 3.939 1.25 10.766 2.296l1.382.212 11.745-1.03 11.745-1.029 5.916-1.83c5.055-1.563 5.968-1.879 6.275-2.17.212-.2.55-.372.82-.42.254-.043.569-.148.7-.233.133-.085.496-.19.807-.234.311-.044.676-.15.81-.234.398-.25 1.676-.742 1.935-.746.131 0 .446-.131.7-.287.253-.157.591-.284.751-.285.367 0 1.246-.82 1.84-1.27.525-.397 1.075-.776 1.521-1.26.714-.776 1.562-1.57 1.809-2.594.056-.234-.062-.477-.098-.714-.06-.385-.122-.77-.196-1.152-.072-.367-.135-.737-.242-1.095-.058-.192-.19-.362-.215-.561-.028-.222.054-.444.079-.666.024-.217.076-.433.067-.651-.02-.448-.172-.88-.249-1.322-.09-.517-.158-1.037-.246-1.554a43.548 43.548 0 0 0-.213-1.172c-.045-.23-.104-.459-.146-.69-.136-.739-.345-1.475-.343-2.226 0-.895.377-1.759.422-2.653.062-1.208-.058-2.422-.2-3.622a7.688 7.688 0 0 0-.19-1.03c-.093-.364-.248-.709-.36-1.067a50.9 50.9 0 0 1-.628-2.14c-.063-.235-.104-.475-.172-.708-.05-.167-.118-.328-.17-.495-.06-.196-.112-.395-.166-.593-.085-.314-.148-.634-.245-.944-.135-.427-.305-.842-.467-1.259-.124-.319-.231-.647-.388-.951-.145-.282-.338-.536-.506-.804-.446-.71-.876-1.43-1.336-2.131-.378-.576-.777-1.138-1.17-1.702-.194-.279-.394-.553-.587-.831-.586-.843-1.203-1.667-1.736-2.544-.09-.147-.161-.305-.245-.455a24.02 24.02 0 0 0-.468-.815c-.128-.21-.272-.411-.4-.622-.096-.158-.198-.314-.277-.48a12.163 12.163 0 0 1-.644-1.678c-.095-.31-.146-.633-.22-.95-.1-.432-.196-.867-.304-1.299-.094-.38-.194-.76-.298-1.138-.068-.249-.135-.498-.214-.743-.081-.252-.176-.5-.266-.749-.422-1.166-.956-2.296-1.282-3.492-.088-.32-.097-.659-.18-.98-.06-.236-.155-.461-.23-.693-.078-.24-.145-.485-.23-.724-.087-.242-.205-.474-.288-.718-.114-.334-.201-.677-.288-1.02-.17-.668-.293-1.347-.455-2.017-.166-.687-.36-1.367-.528-2.054-.109-.44-.226-.879-.311-1.324-.093-.485-.135-.978-.222-1.464-.079-.44-.182-.876-.271-1.315-.073-.36-.103-.73-.217-1.078a5.002 5.002 0 0 0-.575-1.234c-.176-.263-.53-.402-.645-.697-.095-.242.058-.526 0-.78-.159-.695-.634-1.278-.93-1.927-.13-.285-.277-.564-.37-.864-1.453-4.681-1.854-9.627-2.873-14.421-.091-.426-.174-.854-.289-1.275-.137-.505-.328-.994-.477-1.497-.134-.455-.251-.915-.373-1.373-.087-.327-.158-.657-.254-.981-.086-.291-.193-.575-.285-.864-.257-.802-.524-1.602-.747-2.415-.173-.632-.307-1.275-.46-1.913-.11-.46-.204-.925-.33-1.382-.12-.441-.292-.868-.406-1.312-.097-.38-.155-.767-.233-1.151-.138-.682-.251-1.37-.414-2.047-.083-.346-.197-.684-.288-1.029-.102-.39-.177-.787-.288-1.175-.097-.342-.188-.688-.33-1.013-.257-.587-.669-1.097-.936-1.679-.116-.252-.165-.533-.288-.782-.08-.16-.195-.3-.288-.454-.079-.13-.173-.255-.229-.397-.167-.427-.17-.903-.305-1.342-.171-.56-.361-1.118-.635-1.635-.153-.289-.41-.516-.558-.807-.28-.55-.327-1.201-.617-1.746-.2-.375-.503-.686-.762-1.022-.189-.246-.403-.473-.579-.728a2.974 2.974 0 0 1-.288-.485c-.134-.306-.17-.648-.287-.961a7.59 7.59 0 0 0-.515-1.136c-.184-.32-.44-.594-.645-.902a26.074 26.074 0 0 1-.966-1.583c-.39-.694-.75-1.405-1.098-2.12-.14-.289-.277-.579-.398-.875-.159-.385-.35-.763-.432-1.17-.047-.23.132-.538-.034-.705-.244-.245-.703.034-1.037-.058-.696-.192-1.514-.407-1.921-1.004-.164-.239-.092-.574-.095-.863-.01-.763.2-1.516.205-2.278.01-.808-.01-1.63-.183-2.418-.073-.33-.224-.637-.358-.946-.157-.364-.35-.71-.52-1.067-.185-.389-.307-.81-.541-1.171-.571-.879-1.624-1.416-2.073-2.363-.175-.369-.2-.8-.202-1.208 0-.568.205-1.119.27-1.683.056-.487.122-.976.105-1.465-.03-.839-.131-1.684-.354-2.494-.07-.254-.197-.49-.305-.73-.137-.303-.304-.593-.433-.9-.272-.646-.395-1.355-.717-1.979a3.983 3.983 0 0 0-.599-.863c-.67-.731-1.598-1.19-2.292-1.9-.348-.356-.815-.686-.928-1.17-.122-.53.285-1.054.348-1.594.18-1.547.046-3.115.085-4.672.039-1.566.169-3.132.147-4.698 0-.215-.011-.43-.038-.643-.13-1.019-.359-2.024-.597-3.022-.047-.197-.11-.39-.163-.585-.085-.314-.2-.566-.245-.946-.045-.38-.122-.742-.172-.806-.05-.063-.34-.84-.646-1.727l-.556-1.612-.035-6.26-.035-6.26-.442-.649c-.243-.356-.551-.747-.686-.868-.338-.304-.311-.448.219-1.165.576-.78 1.034-1.631 1.034-1.922 0-.121.053-.32.119-.443.065-.122.173-.515.239-.873.066-.357.227-.795.358-.972.207-.28.22-.366.1-.659-.097-.232-.129-.957-.104-2.338l.036-2.002.385-.633c.544-.896 1.1-1.696 1.405-2.02.24-.256.323-.542.53-1.838.041-.253.145-.562.23-.687.086-.125.156-.426.156-.668 0-.242.084-.603.186-.8.245-.473.332-2.389.165-3.602-.171-1.243-.17-1.17-.015-2.015.076-.412.178-1.044.225-1.406.047-.362.174-.755.28-.873.108-.118.195-.29.195-.382 0-.092.314-.476.698-.854l.698-.688.28.322c.154.178.308.463.342.634.034.17.113.47.174.664.06.195.111.454.111.576 0 .122.093.378.206.568.37.623.832 1.959.94 2.713l.233 1.662c.071.507.184 1.284.25 1.727l.215 1.44c.201 1.36.726 3.03 1.4 4.456.306.645.556 1.26.556 1.366 0 .106.074.432.165.726.09.293.217.771.282 1.062.065.291.374 1.069.688 1.728.472.993.7 1.323 1.332 1.93.624.598.81.718 1.02.652.14-.044.485-.12.766-.17.95-.168 1.478-1.126 1.325-2.404-.074-.615-.326-1.427-1.027-3.301-.397-1.064-.518-2.46-.247-2.873.258-.394.343-.371.522.138.083.238.266.562.406.72.328.371 1.152 1.767 1.393 2.36.806 1.98 2.127 4.295 2.821 4.945l.562.525h.955c1.107 0 1.512-.181 1.933-.864l.264-.426-.42-1.27c-.25-.756-.584-1.498-.823-1.831-.221-.308-.403-.6-.403-.649 0-.048-.12-.268-.269-.489-.148-.22-.44-.945-.65-1.61-.21-.665-.47-1.39-.58-1.612-.11-.221-.388-.967-.62-1.656-.232-.689-.483-1.363-.557-1.497-.259-.468-.458-2.497-.252-2.567.16-.054.906 1.049 1.08 1.597.141.445 1.174 1.927 1.452 2.084.374.21.99 1.288 2.858 5 .134.267.554.85.932 1.296l.687.81h1.482l.63-.63.63-.63-.05-.694c-.058-.792-.544-1.815-1.778-3.737-.404-.629-.734-1.191-.734-1.25 0-.112-.949-2.34-1.215-2.852-.168-.325-.655-1.605-1.311-3.45-.237-.664-.543-1.415-.68-1.667-.136-.252-.248-.553-.248-.669 0-.115-.16-.409-.356-.652-.31-.387-.363-.558-.418-1.35-.05-.745-.029-.933.124-1.06.295-.244.524-.066.832.648.554 1.285 1.698 3.434 2.192 4.118l.704.977c.232.327.829 1.61.833 1.792.01.34 1.013 2.113 1.478 2.61.69.738 1.014.896 1.841.896.998 0 1.12-.173 1.113-1.595 0-.938-.056-1.246-.335-1.975a21.213 21.213 0 0 0-1.138-2.475c-.36-.66-.668-1.387-1-2.36a16.22 16.22 0 0 0-.799-1.873c-.256-.492-.465-.943-.465-1.001 0-.06-.285-.707-.634-1.44-.348-.732-.633-1.37-.633-1.415 0-.045-.099-.342-.22-.66-.276-.72-.586-1.99-.69-2.823-.043-.349-.135-.737-.205-.864-.069-.127-.188-.541-.265-.921a7.27 7.27 0 0 0-.358-1.195c-.12-.277-.22-.614-.219-.748 0-.3-.233-1.034-.818-2.564-.245-.642-.518-1.446-.607-1.787-.277-1.064-.835-2.134-1.707-3.273a60.51 60.51 0 0 1-1.308-1.77c-.256-.369-.631-.86-.834-1.09a4.94 4.94 0 0 1-.584-.847c-.298-.592-.59-1.827-.593-2.509 0-.312-.08-.93-.177-1.374-.145-.668-.184-2.31-.229-9.615-.053-8.75-.15-12.556-.388-15.314-.198-2.29-.352-4.163-.525-6.39-.09-1.14-.217-2.352-.284-2.694a7.231 7.231 0 0 1-.122-1.143c0-.288-.05-.682-.111-.877-.061-.194-.242-1.467-.401-2.829-.314-2.686-.798-5.12-1.134-5.7-.073-.126-.168-.593-.212-1.036a11.608 11.608 0 0 0-.206-1.324c-.07-.285-.2-.907-.288-1.382a95.03 95.03 0 0 0-.534-2.736 5.39 5.39 0 0 1-.113-.864c-.01-.428-.45-2.904-.778-4.345a11.034 11.034 0 0 0-.572-1.748c-.193-.423-.387-.94-.432-1.151-.045-.21-.296-.745-.558-1.189a16.79 16.79 0 0 1-.837-1.67c-.2-.474-.495-1.174-.657-1.554-.37-.867-1.87-3.55-2.292-4.1-.217-.283-.319-.553-.322-.862 0-.247-.08-.657-.17-.91a3.246 3.246 0 0 1-.169-.899c0-.32-.127-.622-.468-1.125-.257-.378-.536-.883-.62-1.122a6.674 6.674 0 0 0-.512-1.017c-.197-.321-.359-.627-.359-.681 0-.053-.188-.514-.419-1.023-.757-1.675-.823-1.84-1.12-2.781-.162-.514-.554-1.465-.872-2.115-.317-.65-.612-1.369-.655-1.6a2.244 2.244 0 0 0-.33-.764c-.138-.19-.47-.786-.737-1.324a54.082 54.082 0 0 0-.583-1.151c-.053-.095-.313-.64-.578-1.21-.265-.57-.71-1.491-.99-2.048-.28-.558-.51-1.094-.51-1.192 0-.098-.096-.316-.215-.484-.696-.988-.951-1.95-1.107-4.165-.047-.664-.141-1.311-.21-1.438-.153-.284-.31-1.142-.388-2.122-.032-.407-.127-.847-.211-.978-.084-.132-.188-.498-.23-.815-.087-.64-.111-.734-.667-2.533-.216-.697-.462-1.5-.548-1.785-.086-.285-.457-1.262-.823-2.17-.367-.91-.669-1.764-.67-1.9a.932.932 0 0 0-.173-.471 1.037 1.037 0 0 1-.17-.536c0-.426-.477-1.26-2.035-3.559-.194-.285-.757-1.14-1.251-1.9-1.236-1.898-3.05-4.327-3.96-5.302-.427-.459-1.106-1.4-1.562-2.168a27.697 27.697 0 0 0-1.753-2.549c-1.108-1.394-4.795-5.313-5.69-6.046a37.288 37.288 0 0 1-1.482-1.317c-.475-.446-1.175-.965-1.554-1.153-.747-.371-1.777-1.354-2.073-1.98-.12-.253-.264-.384-.422-.384-.132 0-.583-.251-1.002-.559-.626-.458-.935-.597-1.722-.772-.934-.208-.974-.23-1.537-.88-.545-.63-.607-.667-1.1-.667-.84 0-1.817-.596-2.053-1.67-.237-1.074-.2-.562-.356-1.612-.156-1.05-.407-3.759-.58-4.68-.172-.922-.303-.597-.442-.793-.14-.196-.371-.197-.385-.373-.014-.177.18-.186.32-.416.141-.23.384-.7.52-.962.138-.262.186-.4.302-.61.116-.208.278-.323.394-.643.116-.32.226-.923.292-1.256.066-.332-.013-.304.101-.737.114-.432.43-1.439.581-1.85.15-.412.024-.135.32-.613.297-.477.95-1.187 1.457-2.249.507-1.062 1.277-3.141 1.572-4.09.295-.95.072-.505.186-1.57.114-1.064.385-3.618.498-4.82.113-1.2.162-1.906.18-2.384.019-.478.056.067-.07-.472-.126-.539-.526-2.107-.685-2.759-.158-.651-.15-.588-.265-1.151-.115-.564-.251-1.545-.421-2.23-.17-.684-.313-1.272-.597-1.87-.285-.597-.83-1.29-1.094-1.684-.266-.394-.17-.124-.497-.678-.327-.554-1.134-2.09-1.461-2.644-.327-.554.313.167-.497-.674a307.48 307.48 0 0 0-4.354-4.369c-.849-.822-.447-.341-.732-.559-.284-.217-.689-.516-.976-.745-.288-.23-.388-.426-.749-.629-.36-.203-.919-.407-1.391-.573-.472-.167-1.02-.305-1.437-.424-.418-.12-.748-.219-1.07-.294-.323-.075.132-.054-.866-.157-.998-.104-3.586-.355-5.12-.464-1.536-.11-3.062-.221-4.089-.194-1.026.027-1.47.262-2.037.358-.566.096-.65.143-1.36.22-.708.078-2.294.185-2.891.244-.598.06-.492.064-.691.112-.2.048-.248.116-.498.173-.25.057-.649.114-.999.169-.35.055-.691.065-1.1.161-.409.096-.994.297-1.346.415-.352.117-.348.138-.765.287-.417.15-1.035.271-1.74.61-.703.338-1.726.877-2.466 1.412-.74.534-.979.82-1.946 1.776-.968.956-3.076 3.089-3.858 3.958-.782.869-.28.033-.82 1.241-.54 1.209-1.943 4.829-2.414 5.988-.472 1.158-.148.347-.417.963-.268.615-.962 2.168-1.193 2.729-.23.56-.11-.108-.19.63-.079.736-.263 2.478-.283 3.78-.02 1.302.23 3.137.165 4.017-.064.88-.126.363-.542 1.153-.415.79-1.492 2.749-1.948 3.585-.457.836-.53.784-.789 1.431-.258.648-.62 1.87-.756 2.435-.135.565-.146.645-.049.934.097.29.341.429.59.678.249.25.5.649.9.817.4.168.848 0 1.382.144.534.145 1.41.183 1.79.72.381.539.074 1.376.147 2.018.073.642.207 1.42.291 1.831.084.411.128.391.213.627.085.235.197.595.298.787.1.193.285.202.297.354.012.152-.168.12-.237.384-.07.266-.19.75-.172 1.181.018.432.154.868.277 1.372.123.504.374 1.122.463 1.65.09.528.26.776.07 1.497-.191.721-.65 2.239-.65 3.388 0 1.16.096 1.52.479 1.791.116.083.212.225.212.317 0 .09.18.365.4.608.43.477 2.177 1.4 2.648 1.4.15 0 .989.436 1.865.968s1.877 1.054 2.226 1.16c.348.107.822.273 1.052.37.24.1.561.145.749.107.18-.037.64-.017 1.02.044.38.062 1.209.187 1.842.278.633.091 1.41.278 1.727.414 1.11.479 1.846.857 2.168 1.118.18.144.414.262.522.262.297 0 1.284 1.082 2.045 2.24l.677 1.03-.04 1.963c-.038 1.786-.064 1.994-.289 2.307-.136.19-.298.488-.362.663-.181.502-1.312 1.972-1.725 2.243-.244.16-.566.6-.923 1.262-.302.559-.647 1.142-.767 1.295-.12.153-.313.493-.429.754a4.246 4.246 0 0 1-.58.896 5.658 5.658 0 0 0-.628.915 72.46 72.46 0 0 1-.96 1.711c-.385.67-.783 1.461-.885 1.76-.101.3-.257.66-.346.8-.089.14-.197.475-.24.745-.12.743-.466 1.603-.86 2.138-.906 1.228-2.656 4.28-2.96 5.161-.087.253-.285.71-.44 1.017-.156.306-.291.781-.303 1.056-.01.275-.941 6.563-2.068 13.973l-2.048 13.472-.603 9.845c-.44 7.186-.62 10.98-.67 14.048l-.067 4.203-2.028 3.34c-1.116 1.836-2.137 3.586-2.27 3.89-.133.304-.34.692-.461.864-.12.17-.26.44-.308.599-.049.158-.264.521-.478.806-1.085 1.443-1.76 2.591-1.827 3.103a3.966 3.966 0 0 1-.234.902 2.25 2.25 0 0 0-.166.76c0 .293-.18.623-.77 1.407l-1.254 1.67c-.266.356-.52.806-.562 1.002-.043.195-.248.578-.455.85-.273.36-.397.667-.449 1.114-.077.66-.8 1.969-1.545 2.793-.207.23-.377.49-.377.581 0 .154-.302.669-1.079 1.843-.182.274-.92 1.1-1.64 1.833-.968.986-1.311 1.41-1.311 1.624 0 .318-.457.996-1.032 1.532-.423.395-.695.863-.695 1.197 0 .126-.274.53-.61.898-.71.78-1.002 1.216-1.002 1.493 0 .109-.386.771-.856 1.472-.62.92-1.275 1.688-2.37 2.77-1.134 1.12-1.583 1.65-1.788 2.105-.225.5-.852 1.177-3.531 3.814-1.792 1.763-3.491 3.392-3.776 3.62-.905.722-2.028 1.342-2.438 1.346-.21 0-.746.109-1.19.237-.443.129-.987.276-1.208.328a6.058 6.058 0 0 0-.735.226c-.183.073-.43.101-.55.064-.14-.044-.415.06-.76.29-.298.196-.672.385-.832.418-.16.033-.427.135-.595.226a1.793 1.793 0 0 1-.718.165c-.464 0-1.399.2-1.727.37-.119.062-.792.309-1.496.55-1.811.618-2.058.708-2.317.846-.127.068-.402.212-.611.321-.21.109-.792.59-1.294 1.07-.647.619-.999.874-1.206.874-.168 0-.542.197-.875.46-.32.253-.67.462-.774.464-.105 0-.292.08-.415.173a.886.886 0 0 1-.445.17c-.121 0-.531.232-.91.517-.38.285-.75.519-.822.519-.195 0-1.623.596-2.552 1.065-1.001.504-3.678 1.532-4.604 1.767-1.676.425-1.539.348-1.842 1.035-.328.74-.454 1.32-.355 1.632.097.306 1.107.98 2.104 1.403.761.323.934.352 2.142.352.722 0 1.463-.045 1.647-.101.183-.056.619-.164.967-.242.874-.195 1.522-.415 2.036-.69.24-.129.533-.234.65-.234.118 0 .352-.072.52-.16.896-.472 1.868-.877 2.379-.991a6.53 6.53 0 0 0 1.036-.336c.892-.403 1.273-.51 1.986-.557.653-.044.72-.027.72.176 0 .271-.703 1.818-1.007 2.215-.12.158-.349.52-.508.805-.159.285-.401.712-.539.95l-.462.806c-.117.205-.376.639-.576.962-.2.324-.363.64-.363.704 0 .48-2.008 3.415-3.52 5.145-.45.513-.975 1.165-1.169 1.45a5.606 5.606 0 0 1-.668.806c-.484.442-1.778 2.437-1.966 3.032-.129.406-.956 1.678-1.732 2.664-.397.504-.892 1.219-1.101 1.588-.209.37-.522.895-.696 1.168-.257.403-.338.714-.436 1.662-.136 1.328-.08 1.52.633 2.206.393.378.473.405 1.308.443.886.04.892.04 1.424-.402.815-.676 1.814-1.829 2.574-2.971a13.145 13.145 0 0 1 2.77-3.067c.939-.766 2.92-3.135 4.209-5.03.203-.3.555-.758.78-1.019.227-.261.593-.818.814-1.237.222-.419.467-.762.545-.763.175 0 .45.413.554.832.058.236.01.399-.194.651-.15.186-.607.821-1.017 1.413a124.187 124.187 0 0 1-3.103 4.217c-.665.859-1.333 1.983-1.911 3.218-.48 1.026-.912 1.754-2.227 3.755-.963 1.466-1.565 2.484-1.973 3.335-.321.67-.365.862-.302 1.324.097.709.57 1.665 1.007 2.033.302.253.458.293 1.164.293 1.332 0 1.84-.421 3.228-2.68 1.385-2.252 2.374-3.55 4.243-5.564 1.246-1.343 2.645-3.271 2.883-3.975.073-.214.225-.522.337-.684.113-.162.517-.913.898-1.67.888-1.76 1.292-2.264 1.782-2.216.237.023.373.106.4.242.053.284-.485 1.287-1.064 1.98-.264.318-.578.81-.699 1.095-.12.285-.334.725-.475.979-.513.92-1.2 2.696-1.587 4.095-.217.787-.508 1.69-.647 2.007-.139.317-.33.835-.426 1.152-.096.316-.504 1.15-.908 1.854-1.01 1.763-1.659 3.21-1.659 3.703 0 .483.444 1.296.855 1.565.224.147.575.19 1.57.19 1.815 0 1.712.1 2.994-2.937.267-.633.573-1.28.68-1.44.107-.157.266-.468.353-.69.13-.329.94-1.846 2.072-3.886.264-.475.576-.938 1.104-1.641.411-.546.82-1.33 1.897-3.642.122-.261.345-.814.495-1.228.15-.414.472-.99.714-1.28.749-.896.748-.666-.004.91-.906 1.902-1.154 2.502-1.634 3.962-.313.952-.653 1.745-.888 2.072-.476.664-.906 1.408-1.538 2.66-.611 1.212-.665 1.934-.203 2.723.363.618.57.732 1.342.732.89 0 1.938-.73 2.691-1.877.3-.456.644-.973.764-1.148.12-.175.319-.552.441-.838.33-.77 1.57-2.98 2.19-3.906a24.46 24.46 0 0 0 1.086-1.846c.3-.57.585-1.088.635-1.151.05-.063.339-.608.643-1.21.66-1.308 1.123-2.04 1.795-2.842.78-.934.995-1.266 2.664-4.145.554-.956 1.087-1.669 1.79-2.39.643-.662 1.397-1.666 1.403-1.87.001-.052.18-.371.395-.709.215-.338.608-1.141.873-1.785.265-.643.554-1.307.642-1.475a1.83 1.83 0 0 0 .16-.713c0-.224.048-.437.106-.473.058-.036.216-.397.351-.802.135-.405.39-.961.566-1.236.176-.276.549-.91.829-1.41.844-1.507 3.888-4.77 9.725-10.421 1.96-1.898 4.395-4.271 5.41-5.272 2.983-2.945 4.58-4.423 4.95-4.577.19-.08.64-.416 1.001-.746.601-.55.697-.597 1.14-.564.284.02.518.107.57.208.048.095.17.691.27 1.324.29 1.813.49 2.811.756 3.743.135.475.29 1.034.344 1.243.194.75.966 2.126 1.551 2.767.624.683.951 1.423.833 1.881-.038.148-.128.554-.2.902-.074.349-.21.822-.304 1.052-.195.479-.243 2.465-.096 3.984.074.757.058 1-.078 1.209-.25.386-.666 1.652-.666 2.03 0 .353.235.717.942 1.461.426.448.447.507.51 1.44.038.535.173 1.257.303 1.606.41 1.1.396 1.561-.076 2.465-.245.47-.412.956-.412 1.197 0 .223-.12.617-.268.876-.147.259-.36.807-.472 1.219-.113.412-.26.878-.327 1.036-.067.159-.163.547-.213.864-.308 1.96-.59 3.365-.714 3.567-.079.128-.26.544-.404.924-.144.38-.363.898-.487 1.15-.124.254-.225.627-.224.828 0 .202-.056.513-.124.691-.262.683-.382 2.406-.4 5.736-.015 2.871-.05 3.542-.206 3.973-.104.285-.19.855-.193 1.266-.01 1.526-.598 4.138-1.134 5.043-.207.349-.361.77-.361.986 0 .206-.076.476-.17.599-.092.123-.17.432-.172.687 0 .255-.074.566-.159.691-.254.372-.484 3.142-.42 5.063.09 2.696.049 5.886-.11 8.464a181.547 181.547 0 0 0-.194 4.791c-.025.81-.428 1.714-.05 2.43.054.104.194.128.292.192.097.064.237.09.292.192.376.696.041 1.585 0 2.375a28.93 28.93 0 0 1-.283 2.748c-.155 1.046-.55 2.06-.602 3.116-.076 1.544.307 3.078.428 4.62.07.881.111 1.765.17 2.648.145 2.141.309 4.281.454 6.423.08 1.17.15 2.341.23 3.512.08 1.179.177 2.357.246 3.536.07 1.209.13 2.418.17 3.627.059 1.796-.046 3.598.102 5.388.072.87.226 1.731.382 2.59.15.831.381 1.646.534 2.476.148.802.238 1.614.37 2.418.058.346.097.697.184 1.036.07.281.192.547.277.824.082.267.162.534.223.806.098.432.15.872.232 1.307.108.575.216 1.152.342 1.724.087.394.181.786.287 1.176.05.19.11.378.169.565.07.223.148.443.218.666.104.33.189.665.3.993.28.828.713 1.607.925 2.456.106.424.114.867.17 1.3.053.43.081.862.158 1.287.164.9.434 1.779.647 2.67.097.407.196.814.288 1.223.124.547.252 1.093.356 1.644.089.473.172.948.23 1.426.08.67.1 1.346.162 2.018.06.624.051 1.26.201 1.869.222.894.68 1.713 1.02 2.57.307.772.621 1.543.923 2.317.054.139.105.278.16.416.112.29.228.578.343.867.115.287.217.58.346.862.099.218.225.422.33.637.144.3.283.603.41.91.127.302.23.613.351.917.13.328.264.655.403.98.171.398.353.792.53 1.188.131.29.274.577.395.873.104.252.196.51.287.769.302.85.642 1.69.865 2.565.06.236.05.487.125.719.215.666.694 1.227.917 1.891.06.178.07.368.11.551.107.502.215 1.003.345 1.5.103.397.212.794.345 1.183.085.249.203.486.288.735.11.327.18.666.288.993.09.276.24.534.3.818.127.6.206 1.226.125 1.833-.058.437-.283.836-.434 1.25-.15.409-.302.817-.469 1.22-.103.246-.233.482-.328.732-.23.604-.388 1.232-.584 1.848-.096.302-.158.617-.29.905-.185.404-.46.76-.696 1.137-.257.41-.561.795-.785 1.225-.309.596-.516 1.24-.76 1.866-.077.197-.153.396-.225.596-.222.62-.41 1.252-.639 1.87-.243.66-.528 1.302-.777 1.958-.24.63-.48 1.26-.693 1.9-.821 2.45-1.49 4.948-2.27 7.41-.084.27-.183.536-.263.807-.086.29-.158.585-.232.88-.137.543-.275 1.087-.392 1.636a6.641 6.641 0 0 0-.095.503c-.05.355-.072.713-.096 1.07-.115 1.67-.334 3.346-.236 5.018.013.219.03.443.107.649.127.341.36.635.57.932.196.277.44.518.642.79.959 1.298 1.661 2.782 2.697 4.019.123.146.337.221.412.397.155.365-.023.795 0 1.192.03.518.03 1.05.183 1.546.039.127.204.223.183.354-.087.551-.79.788-1.19 1.176-.66.64-1.324 1.276-1.997 1.9-.493.457-.966.94-1.497 1.352-.437.34-.89.667-1.382.919-1.404.716-2.924 1.19-4.43 1.652a10.118 10.118 0 0 1-1.854.337c-.29.023-.6-.098-.872 0-.307.116-.463.473-.74.647-2.789 1.744-6.018 2.662-9.088 3.842-2.118.815-5.839 2.004-6.431 2.234-.592.229-1.269.417-1.504.417-.576 0-2.25.624-2.884 1.074-.721.513-1.789 1.588-2.019 2.033-.107.206-.263.64-.349.966-.132.504-.13.628.01.845.091.14.165.368.165.506 0 .137.147.489.327.78.18.293.357.661.394.82.148.636.428 1.23.774 1.643.355.422.363.46.324 1.382-.023.52-.065 1.022-.095 1.113-.032.1.039.186.176.216.126.027.35.144.497.26.148.115.51.245.807.289.607.088 1.107.309 1.488.656.272.25.574.312 3.092.637.83.107 1.585.258 1.679.336.093.078.373.23.622.34.535.237 3.268.363 9.712.449 2.75.037 4.13.096 4.234.182.085.07.374.18.642.243.657.156 2.632.224 2.847.1zm77.795-261.339c-.36-.16-.73-.29-.823-.29-.19 0-.86-.869-.86-1.115 0-.088-.111-.376-.246-.64-.206-.404-.234-.607-.178-1.276.04-.48.139-.875.248-.996.275-.304.636-1.432.636-1.99 0-.975-.311-1.824-.88-2.403-.447-.455-.612-.546-1.118-.612-.636-.083-1.111-.323-1.111-.561 0-.081.212-.352.472-.602s.73-.834 1.045-1.297c.314-.463.633-.822.708-.798.171.056.637.988.647 1.294 0 .127.111.386.237.576.126.19.229.456.23.59 0 .135.13.538.288.896.158.358.288.762.288.898 0 .137.052.407.115.602l.46 1.412c.19.582.346 1.206.346 1.388 0 .182.076.43.17.554.092.123.17.427.172.676 0 .249.05.611.108.806.222.753.49 2.038.554 2.667l.068.658-.46-.074c-.254-.041-.756-.204-1.116-.363zm52.665 55.8c0-.062-.052-.147-.115-.186-.063-.039-.115-.019-.115.044s.052.147.115.186c.063.04.115.02.115-.044zm-203.809-8.412c0-.06-.05-.14-.113-.179-.066-.04-.085.01-.046.109.077.2.16.236.16.07z"/></svg>