<svg xmlns="http://www.w3.org/2000/svg" xmlns:dc="http://dublincore.org/documents/dcmi-terms/" height="1052.362" width="744.094"><metadata><dc:description>Silhouette of Homo sapiens sapiens, processed by PhyloPic Tools (https://github.com/eweitz/phylopic-tools)</dc:description><dc:source>http://phylopic.org/image/4e0aeb0d-bd54-499f-8d01-8b2bf3e2f801</dc:source><dc:creator>Mali&apos;o Kodis, image from Brockhaus and Efron Encyclopedic Dictionary</dc:creator><dc:license>http://creativecommons.org/publicdomain/zero/1.0/</dc:license></metadata><path d="M332.47 162.014s3.752-3.254 6.252-15.187c2.5-11.932 1.25-27.119 1.25-27.119s-12.502-8.678-12.502-16.271-2.501-37.967 5-47.73c7.502-9.762 24.858-26.034 48.762-26.034 8.752 0 42.51 7.594 46.261 21.696 3.751 14.101 10.003 30.373 7.502 39.05-2.5 8.679 0 21.696-3.75 28.205-3.752 6.508-12.504 11.932-11.254 21.695s-3.75 13.017-8.752 15.186c-5 2.17-10.002 1.085-10.002 1.085s-1.25 17.356 5.001 19.526c6.252 2.17 52.513 5.424 57.514 9.763 5.001 4.339 23.755 1.085 30.007 8.678 6.251 7.593 17.504-1.085 23.756 45.56 6.251 46.644 1.25 47.73 1.25 47.73s13.753 17.355 18.754 30.372c5.001 13.018 12.503 45.56 12.503 45.56s22.506 22.78 31.258 40.136c8.752 17.357 17.504 56.408 17.504 56.408s13.753 18.44 25.006 31.458c11.252 13.017 20.177 25.18 31.257 36.882 3.132 3.307 11.542 5.13 9.928 9.39-1.32 3.486-7.507 1.024-11.178.373-6.64-1.179-18.755-7.594-18.755-7.594s-2.5 31.458-1.25 45.56c1.25 14.102-2.5 20.61-7.502 4.34-5-16.272-6.251-29.29-6.251-29.29v32.544s-3.751 18.44-7.502 10.847c-3.75-7.593-7.502-43.39-7.502-43.39l-2.5 37.966s-2.5 7.594-6.252 0c-3.75-7.593-1.25-35.797-1.25-35.797l-6.252 20.61s1.25 16.272-2.5 7.594c-3.751-8.678 3.076-28.557 4.355-45.652 1.044-13.952 8.148-20.518.646-28.112-7.502-7.593-1.25-7.593-30.007-39.05-28.757-31.459-41.26-50.985-45.01-77.019-3.752-26.034-3.752-27.119-3.752-27.119s-23.755-44.475-32.507-62.916c-8.752-18.44-8.752-19.526-8.752-19.526s7.501-9.762 1.25 34.713c-6.252 44.475-10.002 39.051-7.502 54.238 2.5 15.186 12.503 62.916 12.503 62.916l5.001 57.492s-1.25 29.289-3.75 84.611c-2.501 55.323-27.507 118.24-27.507 118.24s2.5 5.423-1.25 27.118c-3.751 21.695-8.753 47.73-8.753 47.73s0 53.153-5 61.83c-5.002 8.679-28.758 36.883-31.258 69.426-2.5 32.542-3.751 32.542 1.25 35.797 5.001 3.254 11.253 11.932 15.004 13.017 3.75 1.084 10.002 1.084 10.002 1.084s15.004 6.509 12.503 10.848c-2.5 4.34-6.251 9.763-18.754 10.848-12.503 1.084-21.255 1.084-32.508-6.509-11.253-7.593-26.256-2.17-25.006-9.763s0-27.119 0-27.119 0-2.17-1.25-9.763c-1.132-6.876 11.252-86.78 11.252-86.78s-11.252 2.17 1.25-30.374c12.504-32.542 16.255-41.22 16.255-41.22s-13.754-22.78-8.753-47.73c5.002-24.95-5-33.627 0-50.984 5.002-17.356 7.542-56.456 5.002-84.61-.632-7-3.981-13.647-5.002-20.611-2.315-15.8-2.5-47.73-2.5-47.73h-5.001s-5.002 28.204-13.754 48.814c-8.752 20.61-12.503 24.95-12.503 24.95s0 57.492-13.753 88.95c-13.753 31.458-17.504 29.289-17.504 29.289s2.5 26.034-10.002 41.22c-12.503 15.187-13.754 16.272-13.754 16.272s2.501 44.475-2.5 58.577c-5.001 14.102-6.252 13.017-6.252 13.017s-3.75 11.932-10.002 16.272c-6.252 4.339-38.76 43.39-38.76 72.678 0 29.289 1.251 29.289 1.251 29.289s1.25 8.678-8.752 9.763c-10.002 1.085-32.508 0-32.508 0s-12.503 10.847-22.505 10.847c-10.002 0-28.757 1.085-28.757 1.085s-22.505-2.17-13.753-11.932c8.752-9.763 11.253-1.085 40.01-17.356 28.756-16.272 32.507-15.187 33.757-26.035 1.25-10.847 10.003-91.12 13.754-105.221 3.75-14.102 17.504-41.221 17.504-41.221s-2.5-7.594 2.5-13.017c5.002-5.424 5.002-41.221 11.253-53.154 6.252-11.932 6.252-81.357 6.252-81.357s5-74.848 13.753-101.967c8.752-27.119 11.252-15.187 12.503-40.136 1.25-24.95 13.753-50.984 13.753-50.984s-10.002-7.593-6.251-19.525c3.75-11.933 8.752-16.272 3.75-30.374-5-14.102-21.255-53.153-21.255-53.153l-5-17.356s-2.501 15.186-16.255 43.39C241.2 378.966 241.2 380.051 241.2 380.051s-1.25 16.271-6.251 19.525c-5.002 3.255-13.754 33.628-41.26 55.323-27.507 21.695-43.76 32.543-43.76 32.543s-2.501 0 1.25 8.678c3.75 8.678 15.003 24.95 15.003 33.628s2.5 20.61-6.251 10.847c-8.752-9.763-15.004-24.95-15.004-24.95l-10.002 5.425-7.502 16.271s0 13.017 11.253 10.848c11.252-2.17 22.505-2.17 15.003 1.084-7.501 3.255 3.751 6.509 3.751 6.509l1.25 6.508-17.504 3.255-13.753-6.509 3.751 11.933s5.001 17.356-2.5 7.593c-7.502-9.763-13.754-26.034-13.754-26.034s0-9.763-2.5-19.526c-2.501-9.763-7.502-8.678-5.002-15.187 2.501-6.508 18.755-40.136 21.255-45.56 2.501-5.423 23.756-18.44 28.757-32.542 5.001-14.102 18.755-54.238 27.507-62.917 8.752-8.678 20.004-13.017 20.004-13.017s-5-6.508 8.753-39.051 15.003-32.543 15.003-32.543-7.502-22.78-2.5-35.797c5-13.017 8.752-17.356 8.752-17.356s-1.25-36.882 16.253-44.475c17.505-7.593 68.767-11.933 76.269-21.695 7.501-9.763 5-10.848 5-10.848z" stroke="#030000" stroke-width="3.574"/></svg>