<svg xmlns="http://www.w3.org/2000/svg" version="1.2" width="129.231" height="286.328" viewBox="0 0 129.231 286.328" overflow="inherit"><path d="M64.465 53.149l-.3.2v.1a.797.797 0 0 1 0 .4c.233.633.45 1.184.65 1.65.267-.466.5-.933.7-1.4-.233-.467-.45-.967-.65-1.5a.54.54 0 0 0-.1-.2l-.3.75zm.3-.85c-.3.1-.583.167-.85.2.034.233.083.417.15.55.233-.2.467-.45.7-.75zm1.3-1.5a.7.7 0 0 1 .05.3c.067-.2.1-.383.1-.55l-.1.05a.435.435 0 0 1-.05.2zm-3.95 2.35h.1a2.632 2.632 0 0 1-.15-.35c0 .067.017.183.05.35zm14 1.05c-.267.467-.583 1.117-.95 1.95-.233.433-.55.816-.95 1.15.067.367.084.7.051 1 .267.367.55.933.85 1.7.033.1.083.184.15.25.5.2 1.033.367 1.6.5.166-1.933-.084-4.117-.751-6.55zm-8.85 3.4c-.233-.6-.483-1.233-.75-1.9-.167.467-.367.933-.6 1.4.434.267.883.434 1.35.5zm2.9 1.65c-.033-.066-.116-.083-.25-.05l-.3.4c-.066.267-.167.383-.3.35-.566-.133-.867-.2-.9-.2-.3-.633-.633-1.216-1-1.75-.367.233-.767.3-1.2.2-.267 0-.517-.167-.75-.5-.2.1-.333.033-.4-.2-.167.2-.383.383-.65.55v.05c1.434 4.233 2.833 6.5 4.2 6.8 1.134.233 2.1-.15 2.9-1.15l1.1-2c.566-.966.884-1.633.95-2 .066-.667.184-1.35.35-2.05-.033-.067-.033-.117 0-.15a4.3 4.3 0 0 1-1.899.75c-.701.734-1.318 1.05-1.851.95zm.05-1.7c.367.4.667.75.9 1.05.2-.1.35-.183.45-.25.833-.7 1.416-1.333 1.75-1.9.233-.467.233-.967 0-1.5-.267-.467-.4-.867-.4-1.2-.033.034-.3.383-.8 1.05-.4.333-.983.5-1.75.5.033.833-.016 1.583-.15 2.25zm-2.25.05v.1c.334.6.75 1.2 1.25 1.8v-.15a1.57 1.57 0 0 0-.05-.7c-.3-.2-.7-.55-1.2-1.05zm0-.2a.635.635 0 0 1-.25-.35c0 .133.05.267.15.4l.1-.05zm-.5-4h-.05a.869.869 0 0 1-.05-.225c.001.089.018.197.05.325l.05-.1zm1.45 2.45c0-.2-.017-.4-.05-.6-.1 0-.2-.033-.3-.1.133.233.25.467.35.7zm1.75-1.85c-.1.067-.217.2-.35.4h.05l.3-.4zm-2.2-1.25v.25l-.8.7c.1.3.217.517.351.65.066.133.116.25.149.35l.7.1c.033-.7.033-1.333 0-1.9a1.13 1.13 0 0 0-.4-.15zm-.15-.5c-.367-.267-.8-.667-1.3-1.2.467.767.783 1.4.95 1.9l.35-.7zm.1-2.75c-.166.2-.399.383-.7.55.3.5.6.95.9 1.35a18.004 18.004 0 0 0-.2-1.9zm-.6-.75c-.067.4-.167.7-.3.9.1.066.167.133.2.2.1-.1.233-.25.4-.45a.556.556 0 0 0 .2-.1 8.581 8.581 0 0 0-.5-.55zm2.1.95c-.1.133-.25.25-.45.35.067.066.067.183 0 .35l.101.2c.066-.333.183-.633.349-.9zm-.399-1.75l-.25.4c.166.367.333.75.5 1.15l.3-.35c0-.067.017-.133.05-.2.066-.1.1-.267.1-.5a27.1 27.1 0 0 0-.399-1.1c-.102.2-.202.4-.301.6zm4.399 4.1c-.233-.3-.517-.65-.85-1.05.333 1.034.333 1.9 0 2.6.434.767.7 1.25.8 1.45.066.4-.033.867-.3 1.4-.334.5-.75 1.033-1.25 1.6l-.05.1a4.232 4.232 0 0 0 1.649-.9c0-.033.017-.066.05-.1.067-.1.101-.2.101-.3l.149.05c.2-.333.434-.817.7-1.45.367-.5.634-1.067.8-1.7-.399-.433-.916-.95-1.55-1.55 0 .467-.05.917-.149 1.35.001-.5-.034-1-.1-1.5zm2.15.1c0 .033.017.083.05.15v-.15h-.05zm-1.9-.9c.533.6 1 1.1 1.4 1.5-.033-.267-.066-.55-.101-.85-.433-.233-.866-.583-1.3-1.05a.432.432 0 0 0 .001.4zm-2.05-.2c0 .2-.15.55-.45 1.05-.1.8-.45 1.684-1.05 2.65-.066.1-.15.217-.25.35a2.227 2.227 0 0 0 1.75-.55c.1-.1.316-.4.65-.9.366-.767.267-1.767-.301-3a.451.451 0 0 1-.05.2c-.065.033-.165.1-.299.2zm-.599.9c0-.1-.051-.2-.15-.3-.4.433-.884.7-1.45.8.101.567.167 1.1.2 1.6l.1.1.2-.3c.466-.8.833-1.433 1.1-1.9zm1.649-2.15c0 .033-.033.1-.1.2.233.3.45.633.649 1 .034-.267.017-.483-.05-.65a8.602 8.602 0 0 1-.499-.55zm-1.5-.6a.651.651 0 0 0-.3-.3c-.167.133-.4.267-.7.4.033-.1.017-.167-.05-.2-.1.033-.167.083-.2.15-.166.467-.434 1.05-.8 1.75.033.434.134.85.3 1.25h.05c.334.1.851-.2 1.551-.9.066-.5.1-.9.1-1.2l.1.6a17.91 17.91 0 0 1-.051-1.55zm.65.95a3.18 3.18 0 0 0-.101-.1.763.763 0 0 0-.199-.4c.066.4.116.716.149.95a.863.863 0 0 0 .25-.25c.001-.1-.032-.166-.099-.2zm-.35-1.6v.05c.2.167.301.383.301.65.199.233.399.417.6.55a.563.563 0 0 1 .2-.2 4.398 4.398 0 0 1-.65-.85 2.037 2.037 0 0 0-.451-.2zm4.75 14c0-.467.051-.983.15-1.55l-1.4-.2c.367.867.717 1.467 1.051 1.8l.199-.05zm6.2-2.15a1.788 1.788 0 0 0-.149.45c.166.033.3.067.399.1l-.25-.5c.066-.033.066-.05 0-.05zm1.95-1.65c.366.3.684.567.95.8l.149-.15c.2-.733-.166-1.684-1.1-2.85.201.7.201 1.433.001 2.2zm-1.7-2.45c.3.6.65 1.167 1.05 1.7l.101-.3c.133-.567.233-1.1.3-1.6-.233-.367-1.184-1.45-2.85-3.25.733 2 1.199 3.15 1.399 3.45zm-2.2 1.95c-.366.7-.716 1.117-1.05 1.25-.166.067-.35.184-.55.35.3-.033.783.017 1.45.15.133.067.383.184.75.35.2.167.483.317.85.45a4.769 4.769 0 0 0-.2-1.65c-.3-.434-.616-.9-.949-1.4a2.002 2.002 0 0 0-.301.5zm-3.5-3.7a1.093 1.093 0 0 1-.449-.2c.767 2.467 1.066 4.467.899 6 .3-.133.566-.233.8-.3.034-.067.117-.117.25-.15v-.1c.034-.033.117-.017.25.05a3.48 3.48 0 0 0 .601-.45c.467-.9.666-1.867.6-2.9-.3-.633-.649-1.267-1.05-1.9-.501.1-1.135.084-1.901-.05zm3.9-1.1c-.033.267-.066.5-.1.7.399.733.733 1.45 1 2.15.6 1.167.866 2.183.8 3.05.233.333.383.633.45.9.3-.8.5-1.483.6-2.05-.7-1.1-1.616-2.683-2.75-4.75zm-5-2.9c0-.1.017-.217.05-.35-.1 0-.217.017-.35.05l.3.3zm4.95 2.55c-.033 0-.05.017-.05.05-.067.033-.167.15-.301.35.101.1.2.25.301.45.001-.233.017-.516.05-.85zm-1.85-2.35c.601.867 1.067 1.7 1.4 2.5.1-.167.167-.316.2-.45l-1.25-2.4c-.033-.067-.084-.1-.15-.1 0 .034-.066.183-.2.45zm-2.15 1c-.134.267-.233.417-.3.45h-.051a3.884 3.884 0 0 1-.35 1.2c.8.5 1.6.816 2.4.95.1.033.183.067.25.1a42.201 42.201 0 0 1-1.551-2.75h-.399v.05zm-.9-2a.445.445 0 0 1-.05-.2c-.267-.4-.566-.75-.9-1.05a9.16 9.16 0 0 0-.949-.4c.3.467.616.917.949 1.35.266.134.584.234.95.3zm2.351-1.6c-.267.1-.601.133-1 .1l-.051.05c.034 0 .051.017.051.05.5.233 1.017.517 1.55.85a10.02 10.02 0 0 1-.55-1.05zm-.151-.2v-.1l-.25.25c.1-.066.184-.117.25-.15zm.901 2.25a10.158 10.158 0 0 0-.551-.2c.133.166.3.349.5.55-.065-.068-.065-.152 0-.25.034-.033.051-.067.051-.1zm.75-1.7v-.1c.199-.367.283-.667.25-.9-.101-.2-.284-.417-.551-.65v.5c-.033.033-.166.15-.399.35.266.234.499.5.7.8zm-48.451-36.85c-.1.367-.217.783-.35 1.25-.4 1.633-.567 2.667-.5 3.1 0 .034.017.067.05.1v-.1c0-.633.083-1.333.25-2.1.2-.7.383-1.383.55-2.05.034-.1.034-.166 0-.2zm.35-.85a1.45 1.45 0 0 0 .05-.325.869.869 0 0 1-.05.225v.1zm2.6-3.4c.067-.1.15-.2.25-.3l-.2.1a.445.445 0 0 1-.05.2zm-.65 1.05l.15-.45c-.4.534-.75 1.117-1.05 1.75.267-.5.567-.933.9-1.3zm0 .15c-.2.267-.417.533-.65.8.233-.233.45-.483.65-.75v-.05zm45.401 38.15l-.2.35c.033.1.083.217.149.35.101-.067.2-.183.301-.35a10.14 10.14 0 0 0-.25-.35zm.599-.8l-.25.35c.134.066.2.167.2.3.399.3.666.55.8.75.1.233 0 .583-.3 1.05l-.3.25c.3.267.5.55.6.85.2.167.384.333.55.5-.166-.966-.3-1.966-.399-3-.234-.4-.535-.75-.901-1.05zm.3-.75c.033.133-.017.283-.149.45.166.2.333.433.5.7a2.614 2.614 0 0 0-.351-1.15zm-3.149 0c.233.433.517.783.85 1.05.333.333.6.65.8.95l.101-.05a8.24 8.24 0 0 0-.5-.85c.199.167.333.35.399.55a8.196 8.196 0 0 0-.3-1.15c.2.367.4.767.6 1.2l.101-.3c0-.133-.05-.283-.15-.45-.066 0-.066-.017 0-.05-.133-.1-.25-.233-.35-.4.434.133.7.283.8.45.134-.133.2-.25.2-.35.033 0 .066-.033.1-.1a56.904 56.904 0 0 0-2.399-3.2c.033.667-.084 1.417-.351 2.25v.3c0 .033.017.05.05.05-.002.033.014.067.049.1.167 1.069.283 2.019.35 2.85.1.033.167.05.2.05h.1c.2-.033.4-.15.601-.35a15.708 15.708 0 0 0-1-1.95 1.53 1.53 0 0 1-.251-.6zm-.151-3l-.3-.45c-.134-.4-.334-.716-.601-.95l.7 3c.033.133.066.283.101.45.2-.633.234-1.316.1-2.05zm-2.65 3.85l-.449.45c.199.133.316.25.35.35.134-.233.2-.45.2-.65a.57.57 0 0 1-.101-.15zm.4.5c.033.133-.033.283-.2.45.101.034.15.067.15.1.233.133.483.25.75.35-.266-.3-.5-.6-.7-.9zm.7-2.2v.05c.166.233.3.466.399.7v-.25a3.321 3.321 0 0 1-.399-.5zm-2.45.9c.167.233.267.517.3.85a.549.549 0 0 0 .2.1c.2-.2.35-.417.45-.65a.634.634 0 0 1-.15-.25c-.133-.2-.35-.367-.649-.5 0 .134-.051.284-.151.45zm-.65-.8c.034.133.084.25.15.35.1.033.184.1.25.2l.15-.45a19.305 19.305 0 0 0-.851-.7c.168.167.268.367.301.6zm-.65-2.95a.623.623 0 0 0-.101.35c.167.1.317.233.45.4a13.82 13.82 0 0 0-.349-.75zm3.25 1.65c0 .033-.033.083-.101.15.267.133.45.3.551.5a.567.567 0 0 1 .199-.2c-.033-.3-.1-.566-.199-.8a1.89 1.89 0 0 0-.101-.25l-.349.6zm-.15-1.1a5.121 5.121 0 0 0-.55-.65c.333.533.5 1.017.5 1.45v.05c.2-.267.217-.55.05-.85zm.5.35v.05c.033.033.066.067.101.1a.644.644 0 0 0-.101-.15zm-4.2 4.55a1.829 1.829 0 0 0-.425-.05c.084.003.125.02.125.05.2.133.367.25.5.35l-.05-.05c0-.1-.05-.2-.15-.3zm-2.6-1c-.1.133-.167.267-.2.4a37 37 0 0 0 .75 1.7.393.393 0 0 0 .05-.15c.2-.333.351-.7.45-1.1a.764.764 0 0 1-.2-.4.482.482 0 0 0-.25-.1.948.948 0 0 0-.3-.05.353.353 0 0 1-.3-.3zm-.45-.45l-.024-.025c.132.215.24.406.324.575a.448.448 0 0 0-.05-.2v-.1c-.033-.1-.116-.183-.25-.25zm6.601-5.55a5.53 5.53 0 0 1-.4.45 47.88 47.88 0 0 0 1.05 1.6 1.382 1.382 0 0 1-.05-.3c-.201-.6-.401-1.183-.6-1.75zm-.75.95a.538.538 0 0 0-.101-.2 5.193 5.193 0 0 0-.6.3c.233.233.416.517.55.85l.1.1c.034.033.034.067 0 .1.134.033.2.1.2.2.2.2.351.417.45.65-.099-.6-.3-1.267-.599-2zm.899-1.05l.05.05c0-.034-.017-.067-.05-.1v.05zm-.149-.4l.1-.05a.681.681 0 0 0-.05-.45c-.134-.2-.25-.383-.351-.55.134.333.233.684.301 1.05zm-1.201-.35c0 .133.05.283.149.45.167.133.284.3.351.5.3-.133.533-.3.7-.5-.2-.533-.4-1.033-.601-1.5l-.2-.2c-.133.4-.267.767-.399 1.1 0 .033-.033.083-.101.15h.101zm-.85.5c-.066-.066-.116-.083-.149-.05.233.367.434.767.6 1.2.2-.1.367-.2.5-.3a82.774 82.774 0 0 0-.951-.85zm-.3-4.6c.033.1.05.167.05.2a.722.722 0 0 0-.05-.45v.25zm.101 2.5a.34.34 0 0 0-.101.25c-.1.1-.149.184-.149.25.133.034.233.067.3.1a.682.682 0 0 0-.05-.45v-.15zm.099-.1l-.1.05.05.05.05-.1zm2.6-.3v.05c0 .066.017.1.051.1a.382.382 0 0 0-.051-.15zm-.65.4l-.05-.05c0-.033-.017-.033-.051 0l-.399-.35c-.033.033-.066.067-.101.1a.785.785 0 0 0 .2.15c.134.267.3.483.5.65-.132-.267-.165-.433-.099-.5zm-.549-.7l.3.1a5.017 5.017 0 0 1-.226-.65.93.93 0 0 1-.074.55zm-.551-5.45c.2.833.351 1.617.45 2.35.267.467.467.933.601 1.4.833 1.3 1.183 2.033 1.05 2.2-.033.133-.134.267-.3.4.166.267.25.567.25.9.3-.2.5-.367.6-.5.167-.6.35-1.033.55-1.3.033.433-.05.85-.25 1.25l-.7.85a.209.209 0 0 1 0 .2c1 .867 1.601 1.817 1.801 2.85a179.32 179.32 0 0 0 2.6 3.45c.1-.2.2-.434.3-.7a2.36 2.36 0 0 0-.3-.85c-1.202-3.766-3.419-7.933-6.652-12.5zm-1.3-5.4c.167.333.283.65.351.95a2.819 2.819 0 0 0-.2-.75c-.034-.1-.085-.167-.151-.2zm-.25-1.75h-.1c.066.367.116.733.149 1.1.134.066.217.133.25.2a7.485 7.485 0 0 1-.299-1.3zm-.35-.4l.05.1.05-.05a4.388 4.388 0 0 0-.1-.35v.3zm-16 16.95c.167 1.434.333 3.017.5 4.75.167.967.3 1.95.4 2.95-.067-.9-.133-1.75-.2-2.55a40.829 40.829 0 0 0-.7-5.15zm-.85 4.5c.033.267.033.534 0 .8.033 5 .15 8.967.35 11.9.066.433.15.883.25 1.35-.034-5.033-.2-9.367-.5-13a5.33 5.33 0 0 0-.1-1.05zm-1.75-1.25a13.31 13.31 0 0 1-.15-.625v.075c-.717.151-1.483.31-2.3.475-.081 1.644-.214 3.035-.4 4.175.2 1.533.5 3.9.9 7.1.4 3.733 1.317 6.85 2.75 9.35.1-.067.15-.117.15-.15-.5-2.434-.683-6.517-.55-12.25v-1.55c-.033-.4-.05-.783-.05-1.15-.1.267-.184.5-.25.7-.267.367-.383.4-.35.1.167-2.633.25-4.633.25-6v-.25zm-3.45.125c.058.524.125 1.033.2 1.525.018-.528.026-1.053.025-1.575l-.225.05zM36.565 5.049c-.034 0-.067.017-.1.05a9.06 9.06 0 0 0-.75.85c.066-.067.15-.133.25-.2a7 7 0 0 1 .7-.7v-.05c-.033 0-.066.017-.1.05zm8.35-2.65c.167-.034.284-.083.35-.15-.1.034-.217.067-.35.1v.05zm-2.35 1c.1-.034.183-.067.25-.1a9.99 9.99 0 0 1 1.3-.55l-.2-.05c-.033-.033-.083-.05-.15-.05a99.8 99.8 0 0 1-1.2.75zm.25-1.05l-.7-.15c-.5.067-.967.167-1.4.3-.233.133-.5.333-.8.6-.033-.033-.883.717-2.55 2.25 1.767-.9 3.05-1.583 3.85-2.05.5-.333 1.034-.65 1.6-.95zm3.8-1.25c.233-.033.417-.066.55-.1-1.633-.066-3.267.2-4.9.8l1.3.25c.934-.333 1.95-.65 3.05-.95zm.85-.3a3.476 3.476 0 0 0-.45-.15c-1.267-.3-2.65-.1-4.15.6 1.667-.533 3.2-.683 4.6-.45zm23.2 14.75c.434.867.934 1.617 1.5 2.25a26.566 26.566 0 0 0-.75-2.15l-.75-.1zm1.851-.05c.333.5.583.983.75 1.45-.233-1.233-.851-2.55-1.851-3.95-1-1.267-2.217-2.367-3.65-3.3.2.233.4.5.6.8 1.7 1.567 3.083 3.233 4.151 5zm.5 5.15c-.367.267-.75.55-1.15.85.4.867.717 1.684.95 2.45l.55-.8c-.067-.9-.184-1.733-.35-2.5zm-2.5-6.45a11.98 11.98 0 0 0-1-1.25c.3.8.533 1.5.699 2.1.467.167.851.35 1.15.55a5.09 5.09 0 0 0-.849-1.4zm-.551 1.05l-.5-.5c.067.633-.033 1.333-.3 2.1.533.333 1.017 1.017 1.45 2.05.134.3.25.583.35.85.233.467.483.9.75 1.3.667-.333 1.034-.583 1.101-.75 0-.033.017-.067.05-.1-.1-.6-.233-1.167-.4-1.7a42.82 42.82 0 0 1-2.501-3.25zm-.6-.95c-.002-.064-.035-.098-.1-.1.033.002.05.019.05.05.032 0 .048.017.05.05zm-3.35-5.8h-.05c.066.034.1.083.1.15.034-.033.017-.083-.05-.15zm-6.85-4.3a54.46 54.46 0 0 1 1.85 1.35c.733.367 1.417.733 2.05 1.1a6.975 6.975 0 0 1 1.85.75c-1.433-1.333-3.35-2.4-5.75-3.2zm-.35-.525v.025c2.566.467 4.05.783 4.45.95.1.5.684 1.117 1.75 1.85a11.172 11.172 0 0 1 1.85 1.9c1.533.8 2.833 1.75 3.9 2.85 2.399 2.5 3.433 4.833 3.1 7 .1.567.066 1-.1 1.3v.05c.5 1.4.55 2.483.149 3.25l-1.05 1.5c.2.867.35 1.75.45 2.65 1.566 1.9 3.717 4.7 6.45 8.4-1.667-1.767-3.801-4.4-6.4-7.9.033.7-.05 1.45-.25 2.25.033.233.116.467.25.7 3.533 4.5 5.934 8.367 7.2 11.6.133.333.267.717.399 1.15.601-2.8-.25-5.683-2.55-8.65 2.767 3 3.684 6.05 2.75 9.15.367 1.3.566 2.583.601 3.85.933 1.133 1.716 2.017 2.35 2.65l-.75-.05c-.5-.633-.967-1.284-1.4-1.95.034.633 0 1.267-.1 1.9.833.3 1.65.533 2.45.7 2.133-.7 3.316-1.25 3.55-1.65.167-.3.05-.684-.35-1.15-.634-.633-1.051-1.066-1.25-1.3 1.033.733 1.666 1.217 1.899 1.45a1.06 1.06 0 0 1 0 1c-.2.333-.783.716-1.75 1.15-.566.233-1.283.533-2.149.9l-2.101-.3c.834.867 1.334 1.5 1.5 1.9 2.434 3.233 3.267 5.55 2.5 6.95-.267.434-.517.517-.75.25a4.17 4.17 0 0 1-.55-.85c-.2.6-.5 1.183-.9 1.75l.301.6-.25.1-.5-.1-.301-.05c-.699-.2-1.283-.4-1.75-.6-1.3-.467-2.116-.75-2.449-.85 0 .067-.067.117-.2.15-.334.167-.65.333-.95.5 0 .367-.05.683-.15.95.4-.433.75-.883 1.051-1.35-.567.934-1.067 1.65-1.5 2.15l-.15.4a.837.837 0 0 1-.25.05c-.233.267-.483.417-.75.45.167-.1.333-.233.5-.4-.333 0-.616-.017-.85-.05l-.801-2.1-.949-.15a6.48 6.48 0 0 0-.101-.5c-.2.367-.483.883-.85 1.55-.101.066-.517.767-1.25 2.1-1.101 1.233-2.517 1.667-4.25 1.3-1.034-.2-2.15-2.083-3.35-5.65.133 1.2.2 1.917.2 2.15-.066.967-.517 2.133-1.35 3.5-.034.033-.75 1.033-2.15 3-.8.9-1.5 1.583-2.1 2.05v-.025c-.591.506-1.091.714-1.5.625-.467-.1-.95-1.333-1.45-3.7a.559.559 0 0 1-.4-.05c-.6-.167-1.117-.983-1.55-2.45-.3.3-.6.517-.9.65-2.267-7-3.717-13.233-4.35-18.7-.1-.367-.133-.733-.1-1.1l.2-1.075-.65.125c-2.367.5-4.5.85-6.4 1.05.233.3.45.533.65.7l.05-.1-.05-.6c.2.3.25.633.15 1l-.85-.1c-.033-.1-.233-.367-.6-.8-.434.066-.867.15-1.3.25.133.167.2.35.2.55a4.719 4.719 0 0 0-.35-.55c-.6.033-1.183.083-1.75.15a.681.681 0 0 1 .05.45l-.15-.05c.033-.1 0-.233-.1-.4-.5 0-1 .017-1.5.05.067.233.117.467.15.7l-.15.1a8.883 8.883 0 0 1-.4-.8c-.867.034-1.683.017-2.45-.05-.034.2-.05.333-.05.4l-.25-.05c.033-.1.05-.233.05-.4-.667 0-1.3-.067-1.9-.2-.066.267-.05.617.05 1.05l-.15-.1c-.233-.267-.3-.617-.2-1.05-.267-.167-.633-.483-1.1-.95a1.916 1.916 0 0 1-.15.4.485.485 0 0 1-.1-.25l.1-.2v-.05c-.4-.4-.8-.917-1.2-1.55 0-.9-.267-1.617-.8-2.15a30.189 30.189 0 0 1-1.6-.3c-.267-.367-.45-.934-.55-1.7.066-.3.066-.55 0-.75-.3-.933-.4-1.667-.3-2.2.133-.233.25-.55.35-.95.033-.133.05-.25.05-.35.167-.367.367-.867.6-1.5-1.667-.433-2.6-1.183-2.8-2.25-.133-.267-.133-.767 0-1.5.067-.2.183-.35.35-.45.167-.167.283-.317.35-.45.233-.133.433-.267.6-.4.434-.267.817-.55 1.15-.85 1.233-1 1.917-1.817 2.05-2.45v-.05c.1-.1.15-.183.15-.25l.05-.05c.133-.133.233-.25.3-.35v-.45c.1-.433.167-.783.2-1.05 0-.4-.117-.717-.35-.95 0-.233-.017-.467-.05-.7l-1.2-.4-.1-.1c.067-.034.517 0 1.35.1a.831.831 0 0 1-.05-.25 3.43 3.43 0 0 1-.5-.25 11.71 11.71 0 0 0-1.05-.75l.6-.05c.3.2.617.35.95.45l-.1-.25-.55-.45.55-.05.2.2c.1-.066.184-.2.25-.4l-.15-.15c.067.033.15.066.25.1.5-.034 1.05-.467 1.65-1.3.167-.3.317-.566.45-.8-.067-.167-.1-.35-.1-.55-.1-.466.067-1.566.5-3.3.367-1.667.633-2.75.8-3.25.034-.967.05-1.767.05-2.4.066.467.133 1.117.2 1.95.2-.4.45-.783.75-1.15.434-.9 1.133-1.816 2.1-2.75l.1.15c.1-.033.183-.066.25-.1.4-.534.833-1.017 1.3-1.45 1.1-1 2.417-1.617 3.95-1.85.367-.2.733-.383 1.1-.55 2.833-1.567 5.033-1.717 6.6-.45.767-.033 1.25.1 1.45.4.6.034 1.15.15 1.65.35l.15-.05c.5.116.917.216 1.25.3.6.167.917.283.95.35 1.2.133 2.233.367 3.1.7.467.167.883.367 1.25.6.244.057.478.115.701.175zm0 47.6a9.632 9.632 0 0 1-.45-.775c.233 1.434.367 2.517.4 3.25-.467-.7-.967-2.4-1.5-5.1.267 2.1.45 3.983.55 5.65-.034 1-.034 1.917 0 2.75 0 .6-.017 1.167-.05 1.7.362-.723.711-1.748 1.05-3.075.068-.259.135-.534.2-.825.133-.066.233-.1.3-.1l.1.05c-.2.667-.4 1.283-.6 1.85v-.025c-.267.889-.534 1.63-.8 2.225-.1.1-.2.25-.3.45-.133 1.133-.333 2-.6 2.6.033.033.033.066 0 .1-.133 1.367-.333 2.417-.6 3.15.133.433.25.867.35 1.3.5-.3 1.117-1 1.85-2.1.034-.046.067-.087.1-.125v.025c.9-1.1 1.566-2 2-2.7.667-1.1 1.05-2.083 1.15-2.95.133-.633.117-1.333-.05-2.1-.033-.4-.183-.9-.45-1.5-.1 1.133-.267 1.867-.5 2.2-.233.467-.35.667-.35.6-.533-1.533-.867-3.383-1-5.55a7.977 7.977 0 0 1-.8-.95v-.025zm-3.65 12.775c0-.3-.017-.6-.05-.9-.033.033-.083.05-.15.05.1.3.167.584.2.85zm-.2-1.55c-.033 0-.067-.017-.1-.05 0 .167.033.317.1.45h.05c0-.167-.016-.3-.05-.4zm19.1-2.85c0 .033-.017.117-.05.25.033.033.183.066.449.1.067.1.167.167.301.2l-.551-1.45c.001.3-.049.6-.149.9zm-9.2-2.45v-.15c-.067.133-.15.283-.25.45.134-.1.217-.2.25-.3zm.9-.7c-.033.1-.083.2-.15.3v.05c.1-.133.15-.25.15-.35zm-3.4.95v1.1c-.133.733-.583 1.783-1.35 3.15.033.033-.65.983-2.05 2.85a.752.752 0 0 0-.15.2c-.675.861-1.292 1.478-1.85 1.85.3 1.233.617 2.483.95 3.75.328-.334.628-.643.9-.925v.025c1.233-1.067 1.983-1.733 2.25-2 .4-.3.95-1.083 1.65-2.35.767-1.267 1.117-2.483 1.05-3.65v-2.1l-.1.05v.05c-.167.267-.283.4-.35.4-.1 0-.267-.017-.5-.05l.05-2.35h-.5zm.15-3.4h-.05c.032.063.048.13.05.2v-.2zm1.8 2.4l.1-.1c0-.066.017-.15.05-.25-.099-.098-.148-.182-.15-.25v.6zm1.45-1.85l.05.05a39.97 39.97 0 0 1-.65 1.5c0 .133.05.25.15.35l.1.1c.133-.2.25-.4.35-.6.167-.233.283-.5.35-.8 0-.167-.033-.283-.1-.35 0-.133-.083-.217-.25-.25z" fill-rule="evenodd"/><path d="M38.515 152.899c.033.2.067.35.1.45.033-.067.067-.167.1-.301a.81.81 0 0 0-.2-.149zm-7.2-12.15c.066.667.15 1.233.25 1.7l.05-.15c.067-.2.1-.45.1-.75l-.4-.8zm-3.7-9.45a1.66 1.66 0 0 0 .05-.4c.034-.067.017-.117-.05-.15l-.05.55h.05zm14.15-89.95c2.167-1.933 4.383-3.566 6.65-4.9 6.833-3.867 12.184-3.883 16.05-.05 2.5 1.2 3.933 2.617 4.3 4.25-.067 1.767.017 3.033.25 3.8.733 2.533 2.716 5.7 5.949 9.5 2.767 3.3 4.917 6.717 6.45 10.25 1.267 3.867 2.217 6.65 2.851 8.35 1.699 4.9 2.366 10.083 2 15.55-.167 3.167-.733 7.733-1.7 13.7-1.134 9.1-1.367 16.933-.7 23.5l.1.1c2.567 3.167 4.784 6.733 6.65 10.7 2 4.233 3 7.767 3 10.6 0 2.833-.6 5.917-1.8 9.25-.2.566-.417 1.1-.65 1.6a21.115 21.115 0 0 1-1.85 4.601c-3.533 6.7-9.884 10.05-19.05 10.05-3.167 0-5.284-.467-6.351-1.4-.7-.566-1.05-1.5-1.05-2.8 0-.399.1-.767.3-1.1-4.333-.667-8.333-1.851-12-3.55-2.167-1-4.966-3.084-8.4-6.25.2.633.45 1.216.75 1.75l-.2.05a13.932 13.932 0 0 1-.95-2.15c-1.4-1.434-2.55-2.583-3.45-3.45-.1.334-.216.65-.35.95-.2.367-.284.417-.25.15 0-.467.017-1.066.05-1.8-.367-.5-.65-.9-.85-1.2a28.776 28.776 0 0 1-.6-1.3c-.3-.4-.6-.75-.9-1.051.067.101.1.184.1.25l-.15-.1a3.442 3.442 0 0 1-.1-.4 50.71 50.71 0 0 1-1.9-2.8c-.1.8-.184 1.267-.25 1.4-.167.367-.333.533-.5.5.033-.8.066-1.817.1-3.05-.333-.7-.817-1.7-1.45-3-.033.5-.133.917-.3 1.25l-.4-.1c-.066-.767-.167-1.816-.3-3.15a1.96 1.96 0 0 0-.1-.25c0 1.1-.1 1.85-.3 2.25l-.15.35a.448.448 0 0 1-.2-.05c.1-1.034.117-2.25.05-3.65a35.81 35.81 0 0 0-.4-1.05c-.4-.767-.816-1.917-1.25-3.45-.433 1.967-.717 3.117-.85 3.45-.2.333-.283.433-.25.3l-.2-.2c.267-1.233.517-3.033.75-5.4a7.455 7.455 0 0 0-.15-.6c-.233 1.566-.483 2.617-.75 3.15-.167.367-.317.583-.45.65l-.25-.1c.033-.066.317-1.733.85-5a5 5 0 0 0 .15-.75c-.2-.933-.367-1.833-.5-2.7l-.3.65-.15-.1c.1-.433.233-.85.4-1.25a43.517 43.517 0 0 1-.3-2.65c-.133-3.4.3-7.3 1.3-11.7.808-2.866 1.491-5.299 2.05-7.3h.05c.1-.333.167-.633.2-.9v-.025c.29-1.066.54-1.991.75-2.775h-.1c-.101 0-.317.075-.65.225v.025c-.2.067-.433.184-.7.35-1 .2-2.45-.2-4.35-1.2-1.367-.767-2.267-1.917-2.7-3.45l-.05-.05a18.634 18.634 0 0 0-.2-.1c-.033 0-.067-.017-.1-.05-.267-.133-.333-.216-.2-.25-.034 0-.05-.017-.05-.05l.4-1h.05c-.067-1.6.133-2.967.6-4.1l.05-.05c-.033-.1.017-.317.15-.65s.367-.667.7-1c.467-.9 1.15-2.117 2.05-3.65 1.733-3 2.617-4.566 2.65-4.7.133-.233.6-2.483 1.4-6.75l.3-1.5v-.025c.888-3.63 2.021-6.839 3.4-9.625.8-1.633 2.117-3.75 3.95-6.35 1.7-2.367 2.566-3.6 2.6-3.7.133-.267-.25-1.4-1.15-3.4-.8-2-.883-3.7-.25-5.1.301-.633 1.335-1.717 3.101-3.25z" fill-rule="evenodd"/><path d="M73.711 96.362c.008.167.017.366.026.6.108.195.179.292.213.291l-.239-.891zM57.608 55.224c2.679-.55 5.076-.288 7.19.788 2.011.98 3.954 5.367 5.827 13.159 1.179 4.853 2.054 9.603 2.622 14.249.567.776.952 1.56 1.153 2.353l-.154-.094a15.714 15.714 0 0 0-.912-1.412c.04.131.062.264.067.397.141.929.238 2.025.293 3.291.422.482.725.937.911 1.362-.312-.253-.606-.491-.883-.712-.004.667.01 1.368.042 2.101 1.015 1.857 1.689 3.196 2.025 4.016-.283-.389-.949-1.511-1.998-3.367.014.3.011.617-.008.952.846 1.031 1.483 1.903 1.915 2.619l.091-.204c.043.198.1.363.172.493l-.249.011c-.179-.26-.829-1.032-1.952-2.318l.023.55a37.439 37.439 0 0 1 1.409 2.491l-.152-.043c-.43-.682-.84-1.298-1.23-1.848-.034.001-.033.018.002.05.161.66.326 1.354.49 2.081.566 2.277.908 3.63 1.028 4.059l-.099.054a69.63 69.63 0 0 0-1.572-2.784 84.059 84.059 0 0 1-.159 2.109c-.214 2.745-.278 4.717-.192 5.914.198 3.027-.482 6.544-2.043 10.549-.842 2.139-1.418 4.616-1.729 7.432-.243 2.079-1.978 6.308-5.203 12.688a18.299 18.299 0 0 1-1.114 2c-.043.536-.126.923-.25 1.162a5.6 5.6 0 0 0-.124-.545 66.709 66.709 0 0 1-2.445 3.609l-.048.052-.05.002a8.235 8.235 0 0 0-.66.93c-.141.606-.28 1.23-.419 1.87-.653 1.097-1.133 2.335-1.439 3.717-.796 3.17-.569 5.713.682 7.627.008.2.035.416.078.647.103 2.364-.184 4.578-.862 6.644-.603-.041-.996.109-1.182.452-.091.204.124.545.645 1.022-.15.373-.318.731-.503 1.072-.183.409-.53.858-1.042 1.347-.277-.222-.483-.362-.619-.423-1.017-.356-1.634.404-1.853 2.282l-.586.326c-2.308 1.401-4.119 1.964-5.432 1.687a19.415 19.415 0 0 1-2.278-.601c-2.354-2.734-3.624-4.681-3.808-5.84a15.147 15.147 0 0 1-.743-2.12c-.383-1.151-.456-2.048-.217-2.693 1.833-4.65 2.913-7.433 3.24-8.349a7.22 7.22 0 0 1 1.323-.657c.331-.081.627-.161.891-.239a5.29 5.29 0 0 1-.241-.94c.474-.621.925-1.358 1.355-2.211.492-.956.937-2.626 1.334-5.013.075-.57.135-1.107.18-1.609a9.037 9.037 0 0 0-.795 1.286l-.104-.096c.312-.514.623-1.011.936-1.492.051-.369.069-.72.054-1.054.205-.676.393-1.318.567-1.926-.375.584-.73 1.233-1.066 1.948l-.149.006c-.037-.065.316-.764 1.06-2.098.125-.206.25-.395.375-.566.106-.639.23-1.228.374-1.768a78.486 78.486 0 0 0-.93-.661c.001.033-.014.068-.045.103l-.152-.044a.598.598 0 0 0 .093-.154 9.982 9.982 0 0 1-.723-.519c.368-.75.898-1.591 1.592-2.522l.287-.312-.102-.046c-.307-.153-.497-.295-.569-.425l1.746-3.579c.522-2.559.802-4.957.838-7.193l.27-.713c1.706-3.744 2.751-6.175 3.136-7.293 1.134-3.085 1.564-5.456 1.292-7.113-.011-.267-.112-.662-.302-1.188l-.765-1.468c-1.102-2.321-1.845-4.074-2.23-5.258-.502-1.58-.756-4.722-.76-9.426l-.054-1.249a3.89 3.89 0 0 0-.539-.877c-.242-.958-.457-1.682-.646-2.174-1.035-2.324-2.066-5.699-3.093-10.125-1.109-4.79-1.433-7.628-.971-8.516.06-.169.115-.438.166-.808.017-.368.072-.637.165-.808.815-1.203 1.329-2.06 1.54-2.569l-.052-.048c-.134-.027-.219-.057-.254-.089-.1.004-.168-.026-.204-.091 3.145-2.775 6.306-4.531 9.476-5.269zm-7.513 74.646c.055-.27.111-.505.169-.708l-1.014 1.996c.035.032.171.109.41.232.158-.207.3-.396.426-.569a8.79 8.79 0 0 1 .009-.951zm-.61 5.531c.163-.875.294-1.665.397-2.369-.676.563-1.118 1.132-1.327 1.709a5.3 5.3 0 0 1 .93.66zm.43-2.771c.052-.336.073-.637.061-.904a.79.79 0 0 0-.142.207c-.854 1.071-1.451 1.915-1.792 2.53.136.061.255.123.358.184.236-.744.74-1.416 1.515-2.017z" fill-rule="evenodd"/><path d="M80.353 98.778l-.347-.782c.049.159.087.339.114.54.122.172.199.252.233.242zm-.392-7.885c-.343-.208-.665-.405-.967-.591.101.667.207 1.349.317 2.047 1.258 1.705 2.095 2.947 2.509 3.726l-2.412-3.076c.056.296.101.614.136.953.972.886 1.733 1.663 2.288 2.329l-.012-.206c.059.191.141.34.243.448l-.191.059c-.216-.247-.97-.939-2.262-2.076.018.169.04.354.066.555a26.37 26.37 0 0 1 1.766 2.333l-.172-.051a41.552 41.552 0 0 0-1.465-1.694c-.031.01-.026.026.015.048.238.659.498 1.329.777 2.01.846 2.181 1.366 3.469 1.557 3.863l-.08.077a89.907 89.907 0 0 0-1.936-2.542c.018.622.044 1.33.078 2.121.191 2.766.394 4.727.61 5.881.606 2.987.404 6.573-.607 10.757-.536 2.223-.767 4.754-.694 7.591.048 2.078-1.118 6.501-3.496 13.27a9.47 9.47 0 0 1-.822 2.084c.03.549-.005.943-.105 1.184l-.162-.525a82.954 82.954 0 0 1-1.972 3.957l-.033.062-.048.015a8.854 8.854 0 0 0-.528 1c-.057.61-.123 1.242-.201 1.893-.48 1.16-.778 2.455-.895 3.887-.369 3.218.191 5.714 1.68 7.487.027.201.075.413.144.636.434 2.309.456 4.533.07 6.676-.581.039-.938.237-1.072.593-.068.23.188.552.768.966a8.01 8.01 0 0 1-.403 1.066c-.115.419-.396.924-.841 1.516-.302-.187-.531-.308-.688-.363-1.049-.236-1.559.602-1.528 2.511a3.766 3.766 0 0 1-.548.431c-2.062 1.682-3.767 2.486-5.115 2.415a18.677 18.677 0 0 1-2.35-.322c-2.697-2.413-4.212-4.16-4.546-5.244a18.907 18.907 0 0 1-1.045-2.032c-.545-1.088-.73-1.972-.557-2.653a6861.44 6861.44 0 0 1 2.127-8.714 7.185 7.185 0 0 1 1.172-.78c.309-.13.602-.255.878-.375a5.034 5.034 0 0 1-.39-.927 14.5 14.5 0 0 0 1.05-2.363c.35-1.016.573-2.724.67-5.125a61.913 61.913 0 0 0-.042-1.662c-.22.417-.426.881-.617 1.394l-.125-.066c.245-.563.494-1.112.749-1.644a5.215 5.215 0 0 0-.104-1.015l.33-1.985a19.077 19.077 0 0 0-.836 2.037l-.144.044c-.051-.054.213-.781.793-2.181.1-.24.21-.449.33-.625.005-.664.045-1.269.121-1.816-.208-.11-.558-.282-1.048-.514.01.032.004.069-.018.11l-.173-.052.099-.187a3.64 3.64 0 0 1-.798-.382c.271-.816.692-1.713 1.263-2.691.066-.125.153-.239.261-.342l-.125-.066c-.346-.103-.554-.213-.625-.33l1.192-3.769c.207-2.61.172-5.041-.104-7.293.068-.23.116-.472.143-.724 1.228-3.937 1.96-6.482 2.198-7.637.684-3.21.776-5.628.275-7.252-.047-.265-.191-.622-.435-1.07-.284-.47-.601-.931-.949-1.381-1.405-2.183-2.381-3.818-2.926-4.906-.704-1.492-1.377-4.581-2.019-9.266a17.987 17.987 0 0 0-.225-1.238 2.66 2.66 0 0 0-.662-.791c-.349-.904-.645-1.581-.887-2.029-1.374-2.192-2.856-5.416-4.446-9.669-1.73-4.594-2.427-7.362-2.089-8.303.046-.189.069-.458.066-.805-.003-.348.019-.617.066-.805.609-1.304.989-2.224 1.138-2.758l-.062-.033a1.454 1.454 0 0 1-.235-.084c-.096.029-.169.017-.22-.037 2.76-3.153 5.666-5.323 8.72-6.508 2.551-.891 4.961-.937 7.231-.136 2.093.68 4.605 4.754 7.535 12.222 1.823 4.67 3.323 9.248 4.497 13.735.669.7 1.158 1.439 1.468 2.216l-.188-.099c-.244-.344-.604-.773-1.077-1.291l.118.382c.253.934.502 2.025.748 3.275.473.408.828.823 1.06 1.239zM61.12 133.642l-.664 2.088c.042.022.183.083.423.183.142-.218.252-.426.331-.625-.035-.338-.064-.66-.089-.966a5.11 5.11 0 0 1-.001-.68zm-.904 5.72c.396.157.73.333 1 .529.073-.895.102-1.706.086-2.434-.595.672-.957 1.308-1.086 1.905zm1.02-3.139a.581.581 0 0 0-.114.139c-.713 1.197-1.193 2.13-1.44 2.798a.754.754 0 0 1 .36.151c.144-.777.557-1.532 1.238-2.265a4.66 4.66 0 0 0-.044-.823z" fill-rule="evenodd"/><path d="M34.665 144.249c.1-.133.167-.283.2-.45 1.733-3.067 2.633-4.65 2.7-4.75 1.066-1.867 3.1-3.4 6.1-4.6 3.4-1.367 8.184-2.4 14.35-3.1.033.233 1.25.184 3.65-.15 2.567-.467 3.934-.683 4.1-.65.2 0 .733.083 1.6.25l3.45 1.4c1.166.767 2.033 2.033 2.6 3.8.566 2.034 1.033 3.534 1.4 4.5.066.233.066 1.35 0 3.35.033 1.4-.5 6.234-1.601 14.5-.366 2.166-1.466 4.583-3.3 7.25-1.166 1.6-3.466 4.333-6.9 8.199a9.476 9.476 0 0 1-.1.101 33.964 33.964 0 0 0-1.05 2.45c-2.367 6-4 9.899-4.9 11.699-1.867 3.601-5.483 8.817-10.85 15.65l-.2.3-.5.05c-.033.2-.1.417-.2.65-.1.366-.217.767-.35 1.2-.067.366-.133.967-.2 1.8-.033.566-.017 1.217.05 1.95.133 2.166.433 3.533.9 4.1.667 1.101 1.633 2.45 2.9 4.05 1.667 5.634 2.4 9.551 2.2 11.75-.033.067-1 5.684-2.9 16.851-.833 6.899-.583 14.116.75 21.649.7 3.767 1.4 7.351 2.1 10.75l-1.1 3.101c-1.034 2.166-2.067 3.233-3.1 3.2a.417.417 0 0 1-.35-.051c-.367.101-.833.167-1.4.2h-6.4c-1.034-.233-4.633-.399-10.8-.5-5.167.066-8.367.217-9.6.45-1.233.267-3.05.4-5.45.4-.533-.034-1.467-.351-2.8-.95-1.4-.7-2.517-1.101-3.35-1.2-3.167-.2-5.117-.483-5.85-.85-.367-.2-.517-.667-.45-1.4.267-2.233 1.45-3.8 3.55-4.7 1.633-.733 5.617-1.666 11.95-2.8 3.067-.533 6.184-1.95 9.35-4.25h.05c2.133-.033 3.583-.983 4.35-2.85l.25-1.551c.4-.533.633-1.05.7-1.55.4-3.6-.25-8.717-1.95-15.35-2.1-7.101-3.383-12.017-3.85-14.75-.167-.767-.633-2.9-1.4-6.4-.1-.666-.183-1.434-.25-2.3-.633-4.267-.967-6.7-1-7.3-.267-2.167-.933-4.55-2-7.15-.1-.366-.267-.7-.5-1a80.864 80.864 0 0 1-.35-1.55 16.028 16.028 0 0 0-.15-1.45c-.033-2.8 1.067-10.866 3.3-24.2l1.1-7.649c.8-5.233 1.383-8.934 1.75-11.101.333-2.366 1.684-6.033 4.05-11 2.635-5.264 4.535-7.948 5.701-8.048z" fill-rule="evenodd"/><path d="M125.665 250.549a33.094 33.094 0 0 0 1.851 2c1.333 1.5 1.883 3.067 1.649 4.7.2.733-.05 1.967-.75 3.7 0 .033-.217.483-.649 1.35-.4.5-.817.767-1.25.801-.4.267-.851.616-1.351 1.05-.467.533-1.133 1.133-2 1.8-1.733 1.434-2.866 2.767-3.399 4-.067.233-.117.566-.15 1 0 .434-.033.733-.1.9-.233.566-.767 1.333-1.601 2.3-.7.866-1.316 1.533-1.85 2-.134.1-.934.883-2.4 2.35v.05c0 .267-.066.434-.2.5-.1.334-.466.634-1.1.9v-.05c-.3.133-.5.166-.6.1-.334-.066-.601-.184-.801-.35-.166.3-.433 1.166-.8 2.6-.7 1.134-1.967 1.367-3.8.7h-.05c.033.033.017.083-.05.15-.733.8-1.4 1.1-2 .899a1.436 1.436 0 0 1-.75-.649c-.101.433-.184.899-.25 1.399-.2.467-.417.8-.65 1-.467.601-1.134.733-2 .4-.5-.2-.816-.717-.95-1.55a7.126 7.126 0 0 1-.55.899c-.767.834-1.85.983-3.25.45-1-.366-1.467-1.483-1.4-3.35-.033-.934.051-1.75.25-2.45.767-1.134 1.551-2.483 2.351-4.05 3.166-6.367 4.783-9.551 4.85-9.551 1.167-2.767 1.867-5.149 2.101-7.149l.05-.101c.333-1.833-1.934-5.166-6.8-10-4.9-4.833-10.983-9.449-18.25-13.85-7.301-4.4-11.9-7.283-13.8-8.65-1.733-.166-4.033-1.3-6.9-3.399-.333-.4-.684-.783-1.05-1.15a78.967 78.967 0 0 1-4.1-4.6 20.545 20.545 0 0 1-4.25-9.7 21.392 21.392 0 0 1-.9-4.2c-.667-5.366-1.017-9.3-1.05-11.8.033-2.767.017-4.783-.05-6.05-.233-3.834-1.017-7.066-2.35-9.7-.367-.7-.717-1.184-1.05-1.45-.5-1.5-1.033-2.934-1.6-4.3-1.633-3.634-2.15-8.1-1.55-13.4.467-4.466 1.433-7.883 2.9-10.25 2.434-4.067 6.4-6.217 11.9-6.45 5.4-1.733 10.2-1.083 14.4 1.95 1.399 1 2.717 2.283 3.95 3.85 1.199 1.566 1.983 2.55 2.35 2.95 3.033 3.733 4.717 6.017 5.05 6.85.267.634.283 2.184.05 4.65l-1.1 5.55c-.2 1.8-.566 6.967-1.1 15.5l-.301.7c-.433.866-.733 2.3-.899 4.3-.566 5-.816 9.283-.75 12.85.1 3.8.533 6.617 1.3 8.45.066.366.167.684.3.95.101.1.167.184.2.25.033 0 .083.017.15.05.533.267 1.033.483 1.5.65.966.6 2.433 1.3 4.399 2.1.233.2 1.967 1.167 5.2 2.9.6.333 1.134.633 1.6.899.2.233.467.483.801.75 4.233 4.2 7.966 8.184 11.199 11.95.667.8 1.834 2.417 3.5 4.85 1.634 2.4 3.184 5.101 4.65 8.101 1.434 3.001 6.116 6.051 14.05 9.151z" fill-rule="evenodd"/></svg>