<svg xmlns="http://www.w3.org/2000/svg" xmlns:dc="http://dublincore.org/documents/dcmi-terms/" height="720" viewBox="0 0 576 720" width="576"><metadata><dc:description>Silhouette of Humulus, processed by PhyloPic Tools (https://github.com/eweitz/phylopic-tools)</dc:description><dc:source>http://phylopic.org/image/8d5c107d-0436-4220-9f2a-b047767951b5</dc:source><dc:creator>Emily Willoughby</dc:creator><dc:license>http://creativecommons.org/licenses/by-sa/3.0/</dc:license></metadata><path d="M256 121.25c1.25-1.25 5.75-3 5.75-3s3.75-2 5.25-1.75 2-.293 3.25-.021c1.25.272.5.322 2.75-.078s2.5-.15 4.25-1.15c1.75-1 2.5-2 3.5-2s6-.25 7 0 1.5-.473 2.25-.111 2.25-2.139 3.5-2.889 1.75-1.5 3-2.5-.25-.75 1.25-1 3.5 1.75 3.5 1.75c2.5.25 4-.25 5-.25s-.25 1 2.5-.25 2.75-1.25 4.75-2.5 2.5-1.5 3.75-2 2.5-1.25 2.5-1.25.5-.25 1.75 0 1 .777 2.25-.111-.75-.64 1.25-.89 3 0 3 0 1-.473 2.25-.111c0 0 2.25 1.366 3.75-.136 1.5-1.502 2.75-2.752 4-3.502s2.25-2 2.25-2S341.5 94 342 93s.872-2.979 1.75-2.5c2.75 1.5 1.25-.25 2.75 1.5s1 .5 1.5 1.75 3.25-.5 3.25-.5 5.464-.5 5.857-1.25c.393-.75 1.143.103 2.893-1.574 1.75-1.677 2.75-1.926 3.75-2.676 1-.75 1.75-1.5 2.5-2.25s1.75-2 1.75-2c2.25-.25 2 1.5 4 0s2.25-1.5 3.5-2.5 1.25-2 2-2.5.737-1.958 1.5-1.75c2.75.75 2.75-.79 4.25-.02s-.75 1.77 1.5.77 2.5-.234 3.5-.992-.75 1.242 1-.758l1.75-2s0 1.5 1.75 2 2 .5 4.25.5 2.75-.25 4.75-.75 1.5-2.5 3-1.75.75-.833 2.75-.167c2 .666 1.5.248 3.5-.168 2-.416 4.633-2.373 4.25-1.416-1 2.5-2.75 3.5-2.75 4.25s1.824 1 2.787 1.5c.963.5 2.463 0 4.713.25s4.25-.5 6.25-.25S429 77 431 77.5s5.5.5 4.5.75-3.75-1-1 .25 2.5-.75 2.75 1.25-1.5 2 1.75 2.25l3.25.25s-.75-.75 3-.75 6.5-.75 8.5-.5 2 0 4-.25S460.5 79 461 80s-.25 1.75 2.25 2.5 2.25.75 6 1 4.75 0 7.75 0 4.5 0 7.5-.25 5.25-.25 7-.25 4.25-.75 6.25-.5 3 0 5 .25 2.75 0 5.5.25 6.5.75 7.5 1 3.5.75 5.5 1.25 3.75.5 6.5 1.75 5 2.5 6.25 3 5.5 1 6.5 2 1.25 1 3 2.25 3.25.989 4.25 2.245c1 1.256 3.795 3.662 3 3.005-1.827-1.51-13.5-3.005-13.5-3.005s-6.75-2.745-8-3.245-4.75-1.5-4.75-1.5l-15-1s-6.5-.5-8-.5h-5c-1 0-8 2.25-10 2.5s-5 .25-7 .75-3 .25-4 .5-8.75 2.489-9.5 2.495c-.75.006-6.25.755-7 1.005-.75.25-19.25 3.75-19.25 3.75s-5.25.75-6 1.25-5.25 1.75-6 2-2.5.75-4 1.25-3.5.5-4.75 1.25-3.5 1.25-3.5 1.25-19 7.5-20.25 8-4.75 1.75-6.25 2.25-2.75 1-4.5 1.5-22.5 9-23.25 9.5-6.25 1.25-8.25 2.25-4.75 2-6.5 2.75-5 2-5 2-4.5 2.25-6.25 3.25-4.75 2-5.5 2.5-17.25 9.75-18 10.5-5.5 3.25-7.25 4.25-2.5 1.25-4.25 2.25-2 .75-3.5 2-3.75 2.25-5 3.5-1.75 1-2.5 2S287 169 287 169l-6.75 13.75s-4.75 10-5.5 11-2 3-2.5 4.25-1.25 2.5-1.75 3.75-.5 2.25-1 3.25-.25-.75-.5 1 4.75 2 6.5 2.5 3.5-.75 5 0 1.75-1.006 3 .122c1.25 1.128.75 1.378 3 1.378s2.75 1 4.75 0 2-1 4.25-1.75 3.75-1 5.25-1.75 2.75-1.5 3.5-1.75 5.25-3.5 5.25-3.5.75.25 3.25-1 3.5-2 5-2.25.75 0 3.25.25 2.75.5 4.5-.5 3.75-2.25 6-2.75 4-.75 5.25-.5.5 1 3.5 0l7.5-2.5c2.25-.75 7.25-1.5 7.25-1.5s2.25-.25 3.5-.25 2.25.5 6.25-.5 7.5-1.5 8.75-1.5 2.5-.25 3.25 0 4 1.25 7 1.5 5.5.5 9 .75 6.391 0 10.695 1 3.805 1 7.805 2.25c4 1.25 4.25 2 7 2.75s4 1.25 4 1.25-.25 0-3.5.25-5.5.25-9.5.75-7.25.5-9.25.75-5.5.5-7.25.75-1.75.75-3.75.75-4-.25-5.25 0-3.75 0-4.75.25-3 .25-5.25.5-4 .25-5 .5-2.75.25-3.75.5-1-.25-3.75.25-4 1-5.25 1.25-3.75.75-5.25 1-3 .25-3.75.75-.25-.25-2 .5-2.25 1-3.25 1.25l-1 .25s.5.75 2.5 1 2.25 1.389 4 1.444c1.75.055.25-.694 1.75.056s1.5.5 3.25 1.75 4.714 2 4.857 2.75c.143.75 1.143.75 1.643 1.75s1 .75 1.75 2.25-.5-.25.75 1.5 2.25 3.5 2.25 3.5l1 1.25s5-1 6.25 0 2.25 1.5 4.25 2 3.25.75 4 1.5 1.25 1.25 2.5 2 2 .75 3.5 2.25 2.25 1.25 3.5 2.75 1.25 1.75 2.25 2.75 1 1.25 2.5 3 2 2.25 3 3.25l1 1s1.25 1.5 1.75 2.25 3.391 7.428 4.445 7.428c1.054 0 1.555 2.572 1.805 4.072s.75 1.25 1 3 0 2 .5 3.25.5 1.75 1 3.5.5 2.75 1 3.75.5 2.25 1 3.25.5 1.25 1 2.25 2.25 6 2.5 6.75.75 1.5 1.5 3l.75 1.5c1.25 2.5 1.5 3 2.25 3.75l.75.75c1.75 1.75.5 0 1.75 1.75s1.25 2 2 3l.75 1s.75.5 1 2 .25-.5.25 1.5 1 .5 0 2-2.25-2.25-2.25-2.25-.5-.75-.75-1.5 1.25.25-.25-.75-2.75-2-2.75-2-.75-.25-1.5-1 1.25 0-.75-.75-2.5-.75-4.25-1.5.25.25-1.75-.75 1.75.25-2-1l-3.75-1.25s-.859 8.75-.805 9.75c.054 1 .945 3.25 0 4.5s.305-.75-.945 1.25l-1.25 2s-.5 1.25 0 2.25 0-1.25.5 1 .5 2.5.5 3.5 1.891 6.75 1.195 8-1.445 9.5-1.195 10.25-1 2.5-1.25 4.75-.25.5-.25 2.25.5 1.75-.25 3.25-1 1.5-1.5 3 0-.75-.5 1.5.25 0-.5 2.25-1.25 2.5-1.5 3.5 1.25-.5-.25 1l-1.5 1.5-1.25-2-3.75 4.25s-.25 1.5-1 2.5 1-.75-.75 1-2.25 2-3 2.5-.5 1.75-1.5 2.5.5-.25-1 .75-4.5 1-3.5 1.75 2.25-1.25 1 .75.5 2.5-1.25 2l-1.75-.5-2.25.681.5 2.069-.5 1.5H371l-.5-2.5-3-2-1.75-1-1.25 2.75c-2 .5-4.25-1-5-1.25s-3.5-1.75-4.25-2-.5-1.75-1.5-1.75c-.379 0-.973-.502-1.619-1.14-1.061-1.046-2.26-2.455-2.881-2.61-1-.25-2-2-3-2.25S343.5 363 343.5 363s-3.25-2.75-4.75-3.75-3-2-3.75-3-1.25-1.75-2-2.75l-2.25-3c-.75-1-2.5-1.75-2.5-2.5s-2-2.25-2.25-3-1.5-1.5-1.5-2.5-1-2.25-1.25-3-2 .25-2-2.25v-2.5s-1.75-.25-2.75.5-2.5.75-3 1.5-1.25 1.25-1.25 2 1.75-1.25 0 .75-2 2.75-2.75 3.5-2.5 1.75-2.5 1.75-.5-1.5.25-2.75 1-3.75 1-3.75-.25-2.75 0-3.5.25-2.5.25-2.5.25-5.5.25-6.75V320c0-1.25-.5-3 0-3.75s.75-.5 1-2.25 0-2.5 0-3.5v-1l-1.25-2.5s-1.5-.75-2.25-1.25l-.75-.5s-1.5-2.75-2.25-3-1.5-2-1.5-2-2.5-6-2.5-7.25-.25-3.5-.25-4.75-.25-2.75 0-3.75.5-3.25.75-4.5 0-3 .25-4-.5-2.25 0-3.5.25-2.25.75-3 1-1.75 1-2.5-.25-1.25 0-2.25-.5-2.5 0-3.25.5-2.75.5-2.75L302 262s-.25 2.25-2.5 2.75-2.25 2.75-2.25.5-1-3.5-.25-4.25.5-2 .5-2-1.75-1.5-.75-1.75 2-.394 3.25-1.822-.25-.178 1.25-1.428 1.5-2.25 2.25-3 1-2.5 1-2.5.325-.528.729-1.208c.599-1.006 1.371-2.344 1.521-2.792.25-.75 2.25-5.75 3.25-6.5s1.5-1.75 2.5-2.5 1.75-1.5 3.25-2.5 2.5-2.25 3.75-2.5 3.25-1.75 4.25-1.75 2.5-1.25 4.25-1.5 3.75-1.25 5-1.25 3.25-1.761 4.5-1.13 2.25-.38 3 0 2.75-.13 3.5 0 2.5-1.37 1.75-2.12-1.25-1-2-2-.5-1.25-1.5-2.25-1.5-2.25-2.75-2.75.75.25-1.25-.5-2.5-1.25-3.25-1.5-2.5-1-2.5-1H329s.75.75-1.25 1.25-.25-.5-2 .5-2.25 1.25-3.25 1.75l-1 .5c-2 1 2-1 0 0s-5 5.25-5 5.25l-1.75 2.87s-1.5 1.38-1.5 2.13-.75 1.75-1 2.75-2.5 5-2.5 5l-3.75 15.5-2 5.178-4.75 12.072s-.5 4.75-1 6.25-1.25 4.25-1.5 5.25-.5 1.25-1 2.25-1 1.75-1.25 2.75-1 2-1.25 3.25-.75 3.25-.75 4 .5 1.5.25 2.5 0 1.25-.25 2.25 1 7.25 1 8.25v2.5c0 1-.25-1.25 0 1s-.25.75.25 2.25-1.25 1.25.5 1.5 1.75 0 3.25 0h3.5c.75 0 1.25-.25 2.5.25s2 0 3 .75 2.25 1.5 2.25 1.5l6.5 8.25 19.75 24S349.75 361 349.75 362s7.357 13.75 7.357 13.75l1.143 4.25s1 2.5 1 3.25-2.143 1.25-2.143 1.25-1.357-1-1.857-2.25-1-2-1.5-3-.5-1.25-2.25-2.75-2-2.25-3-3-2.25-1.75-2.25-1.75-1-.5-1.75-.75 1 .25-.75-.25-.5-.25-1.75-.5-.75 8.75-.75 8.75l-.75 5.5v8.25s0 4.5.25 5.25 0 1.25 0 2.25-.25 1.75-.5 3-.5 2.5-.5 3.5v9c0 1 .25 1.75.25 3.25s.25 0 0 1.5.75 6.25.25 7.25-.5 1.5-.75 2.5-.75 1.25-1 2.25-.75 2-1 2.75.75-1.25-.25.75-1.75 2-2.25 3.25-.75 2.5-.75 2.5c-.5 1.5 1 .5-.5 1.5l-1.5 1h-1l-.75-1.25v-2l.25-1.75v-2s0-1-.25-1.75l-.25-.75-1.75-2-.75 4.5s-.75 2-1.25 3.5.25-.25-.5 1.5.5 0-.75 1.75-1 .25-1.25 1.75-.5 2-.5 3 1-.75 0 1-1.75 3.25-1.75 3.25l-1.5 2.25s-.75.25-1 1.25-.5 2-1 2.75.75-1-.5.75-2.25 2.75-2.5 3.5 2 .25-.25.75-3.5 0-3.5 0c-1.5-1.5-2.75-3.25-2.75-3.25l-1.25-1.5-1.5-2.25-1.5-1.5s-1.75-2-2.25-1.25-2 2.5-2 2.5-.75.75-1.5 1.25-1.25.5-2 .75-2.25-1.5-1.75-2.5l.5-1s1.75-1.25 1.75-2.25-1 .5 0-1 .75-2 1.25-2.75l.5-.75s-2.25-1-2.75-.25.25-.75-.5.75-.75 0-.75 1.5 2.75-1 0 0-3.25.5-4 .75-5.5-3.5-5.5-3.5-1.5-1.5-2.5-2.25-2.25-1.5-2.25-1.5-.5-.25-1.75-.5l-1.25-.25s-1.25-.25-2.25-1.25-3-2.5-3-2.5l-1.25-1.75-1.5-2c-.75-1 .25.5-.75-1l-1-1.5-2-3c-.5-.75-1.25-2.5-1.25-2.5l-.5-1.75-.25-1.5-1.25-3.5s-1.5-.5-1.5-1.75v-1.25c0-1.25-.25-2.5-.25-2.5-1-1.25-1.25-.25-2.5-2.5s-1.75-5.75-2.5-6.5-2.75-4.75-2.75-4.75-.75 5.5 0 6.25c0 0 .5 5.75.75 6.5s1.75 2.75 2 3.75.25 2.25.25 2.25l-3.333-.75-1.917-3-1.5-4.75s1.25-2 0-3-2.5-3.25-2.75-4.25.25-1.5 0-2.25 1.355-.75-.072-1.5l-1.428-.75s.5-1.5 0-3 0-3.25 0-3.25-1.5-.25-1.5-1.75.75-2.75 0-3.5 0-2.25 0-2.25.583-1.25-.333-2c-.916-.75.917-1.25 0-2s.137-1-.265-2-.402.5-.402-1 .75-2 0-2.75-.75 1-.75-.75-.25-2.5 0-3.25.027-2.25-.111-3 .139-1.5 0-2.25-.441-2-.04-3-.599.5.401-1-.25-.25 1-1.5l1.25-1.25-1.75-2.25-1.102-2.25s.898-1.25 0-2-.648.5-.898-.75.25-2 0-3.25-.145-1.75-.072-2.5-.992-1-.085-2 .907-1.5 1.407-2.25-.25-1.25.75-2 1.75-2.25 1.75-2.25v-1.75S243 337 242 337h-1l-.775-.25s2.525-1.5-1.225 0l-3.75 1.5s-1 .25-2 .75l-1.5.5c-1.032.859-.645.655-.79.77-.066.051-.242.168-.71.48l-1.5 1-1.5.5s-1 0-1.75 1.25l-2 1.75s-1 1-2 1.5-2.5-.75-2.5-.75 3.5-2.5 4.25-3-.5.75.75-.5l1.25-1.25s.5-2.25 1.5-2.5-.75 1.25 1-.25 2.25-2 3.25-2.5-1 1 1-.5 2.25-2 3.5-2.75-.75.25 1.25-.75 1.75-1.5 3.25-2 1.5-1 2.75-1.5l2.5-1s1-.75 1.75-2 1-2.25 1.5-3.25.25-1.25.75-2.25 1.25-2.25 1.25-2.25.25-.5 1.25-1.75 1-.75 2-2 1.75-1.75 2.75-2.5 1.25-2 2.25-2.25-.75 1 1-.25 2.5-2 3.75-2.5-1.25.25 1.25-.5 3.25-1.5 4.5-1.5 2.75-.5 3.5-.5 1-.75 2-.25-3.5-1 1 .5l4.5 1.5s2.25.25 2.5-.5.75-2 .75-2 .5-.75.5-2v-3.5l1.75-7.75s.25-1.25.75-2.75.25-.75.75-3 .25-2.5.75-3.5l.5-1 .5-1.25s.25-2.5.75-4.25 1-2.25 1.25-3.75 1-2.25 1.25-3.5-.25-1.75.25-2.5 1-2 1-2 .5-.5 0-1.75-1.25-1.75-.75-2.5 0-2.822.25-2.822.5-.428.75-2.178.5-2.75 1-3.5.25-1 1-2-.75.75.75-1L298 245s1-2 1.5-3.25 1.25-2 1.75-3.75 1.5-3.5 1.5-4.5-.25-1.5.25-3.5.25-2.5.75-3.25 1-1.25 1.75-2.75 1-2.25 1.25-3.25 0-1 .25-2.25l.25-1.25-6.5.5s-1 .5-2.5.75-1 .75-2.75 1-1.5 1-3.25 1.25-6.5 2.25-7.5 2.5-2.25.75-3 1.25l-2 1.5s-2.5 1.5-4.25 2.5l-1.75 1s-1.25 1-2.5 1.5-7 6.75-8 7.25-1.5 1.25-3.5 2.5-3.25 2.25-5 3.5-3 2.25-4 3.25-.5 1.25-2 2.5.5-1-1.5 1.25-2.5 4.178-3.75 4.178-2.25 1.322-2.25 1.322-.75 1-1.75 2-2 2-2.75 2.25-5.25 5.25-5.25 5.25-2.5 2.5-3 3.25 1.75-1-.5.75-2.75 2-4 3.25-1 1.75-2.25 3-2.5 1.25-2.75 2.25.75-.5-.25 1l-1 1.5v5.25s-.25 3.25 0 5.25-.973 3-.111 4l.861 1 .5 2.5s0 1 .25 3 0 .5.25 2-.25-.75.25 1.5.25 2.75.5 3.75.5 1.75.75 2.75.25.25.5 1.75-.5 0 .25 1.5l.75 1.5s-2.75-1.5 0 0 1 1.75 2.75 1.5 0-.5 1.75-.25.25 0 1.75.25 4 .25 4.75 1l.75.75s3 2 3 2.75 0 1.25.5 2.5 0-.5.5 1.25 1.75 14 1.75 14-1.25 4.75-2 5.75-1.75 1-1.75 2.25-.5 2.25-.5 3.25-.75 1.5-.75 2.5-.75 1.5-.75 2.75.5-.5 0 1.25l-.5 1.75s-1.75-2.5-1.5-3.5 0-4.5 0-4.5-2.25 3-3 3.25-5 2.5-5 2.5l2.25-4s1-1.5 2.25-2.75 3.25-2.75 3.5-3.5.25-1.25.25-2.5-4.5-9.5-4.5-9.5l-2.25-2.25c-1-1-2-3-2-3l-3.75 3.25s-3.097 2.5-2.673 3.25c.424.75.748.5-.04 1.75s-2.537 1.75-2.287 3 .451 1.75-.024 2.5c-.475.75 1.726 1.25 0 1.75s-4.226 4.5-4.476 5.25-1.75 2.75-2 3.5v1.75l-1.25 2.5s-.75 1.25-1.25 2-1.25 2.25-1.75 3.75-1 4-1.25 4.75 1 1.25 0 2.25-1.5 1.75-1.5 2.5.75.75 0 1.75-1 1.25-1.25 2.75.75 1.25 0 2.5l-.75 1.25s.5 1 0 1.75l-.5.75v3.75s-1.75 4.5-1.5 5.75 1.125 2.75 1.125 2.75-.125 2.5-.125 2.875.125.625 0 1.375-.25.875-.375 1.625-1.174 1.25-.649 1.75c.525.5.399 1.25.524 2s0-.125.125.75-1.125 1.25.125.875.375-.375 1.25-.375l1.25.625s.875.125-.5.75l-1.375.625s.625-.875 0 0-.875 4.5-.625 5 1.75 1.125 1.75 1.125l-.25 1.375-1.125.5s-.125 2.875 0 3.5.25 1.625.25 2.25-.125 1 0 1.375-.5-.25.125.375l.625.625c.625.625 1.25-.25.625.625s-1.75-.25-1.25 1 1.875 1.125 2 1.875.625 1.875.625 1.875l.375.75c.25.5.5.625.5 1.125s-1.125 0 0 .5 2.625.75 2.625.75.75-.25 1.25 0 .625 0 1.875.375 1.125 0 2.375.5.625.125 1.25.5 2.25.875 2.875 1.25 1.25.875 1.75 1.125.875 0 1.5.625-.375 0 .625.625 1.375.375 1.875 1.125 1 1 1.125 1.375.5.75.75 1.25.75.875.875 1.375.375.75.5 1.25c0 0 .5.75.5 1.5s0 1.125.125 1.875-.125.5.125 1.5 1.125 2.25 1.125 2.25l1.25 1.25c.375.375.25.25 1 .875s-.5-.5.75.625 1.75 1.125 2.125 1.75.75.875 1.25 1.75.75 1.5.875 2 .5 1.625.5 1.625 1.75 5.625 1.875 6.375.75 2.625 1 3.25.375 1.125.75 1.75.625 1.125.875 1.75.375 1.125.5 1.5 0 .375.25 1.25.625 1 .75 1.75 0 1.25.25 1.875.375 1.25.375 1.875-.125 1 0 1.375-.5-.375.125.375.875 1.5 1.25 1.75 1.25.625 1.625.875.5.375 1 .625.375.25 1.25.625l.875.375s-1.875-1 0 0 2.125 1 2.5 1.125.875 0 .875 0L250 493s-.75-.5-.875 0-.25.514 0 1.007c.25.493.234.681.125 1.118-.25 1 0 1.125 0 1.875v.75H248s.625 1.25.375 1.625-1-.75-1.125 0-.25-.625-.125.75-.375 1.75-.125 2.375-.25-.5.25.625 1.125 1.25 1.375 2.125.75 1.75.75 1.75-.125.5 0 .875 1 4.375 1 4.75.25 1.875.25 2.5.125.875.125 1.75v2.5c0 .75-.125 1.5-.125 2s.375 1.5.75 1.75 1.5 1.625 1.875 1.875 1.125 1.125 1.375 1.625.5 1.125.875 1.625.5.625.875 1.25.375 1 .875 1.375.5.375 1.125.875 1.125.5 1.5.875 1.059.598 1 1.125c-.125 1.125-.25.75-.75.875s-1.375 0-1.375 0c-.75-.875-1.25-1-1.625-1.5l-.375-.5s-1.25-.875-1.5-1.25-.625-.375-.75-1.125.625.125-.125-.75-1.25-1.625-1.25-1.625l-.625-.625-.625-1s.25 1.875.375 2.375.125.75.125 1.5.25 1 .25 1.75v2.806c0 .07.125.319.25 1.069s.375 1.5.875 2.25.5.875.875 1.625.25.625.375 1.375.75 2.75 1.125 3.375.875 1.875 1.125 2.625.25.5.375 1.375.5 1 .875 1.75.5.75.75 1.375.5.875.625 1.375.75 1.875 1.125 2.75.625 2.125.875 2.5.25.375.75 1 .625.5.875 1.25.125.5.5 1.375.375.75.875 1.5 1 .75 1.125 1.5.375.875.5 1.5 0 .375.375 1.25.875 2.375 1 2.75.375 1.125.375 1.625 0 .375.125 1.375.25 1.25 0 2.125.25-.125-.25.875l-.5 1s-.75-1.125-.75-1.625v-.5c0-1.25-.5-1.875-.5-2.25s-.5-.875-.5-1.25-.75-.875-.75-.875l-.75-.625-.625-.875s-2-1.5-2.625-1.875-.5-.5-1.625-1.125-.5-.75-1.625-1.375-.375 0-1.125-.625l-.75-.625-.75-1.125c-1.125 0-2.5-.25-2.875-.125s-.625-.25-1.125-.25-.875-.25-1.25-.375-.75-.75-1.375-1-1.75-.875-1.75-.875-2.75-1.875-3.125-2-.875-.875-1.75-1.25-1.375-.625-1.875-.75-1.375-.75-1.375-.75l-1.125-.5s-.875-.875-1.25-1.375-1.125-1.125-1.125-1.125l-1.125-.5s-.25 2.125 0 2.625-.125.5.125 1.5-.125 1.75-.125 2.25-.25.625-.25 1.25-.375 1-.375 1.625.375-.25 0 .625-2.125 3.375-2.25 3.75-.75.75-1.125 1.25-.875.75-1.125 1.125-.375.25-1 .75-1.25.75-1.625 1-1.375.75-1.375.75l-1 .375s-.375 1.875-.375 3.375 0 2.125-.125 2.625.125-.75-.125.5-.25 1.75-.625 2.125-.25.375-.625 1-.75 1.125-1 1.625-1.75 2.5-1.75 2.875-.875.75-1 1.5 0 2-.375 2.75-.125-.125-.375.75.25 0-.25.875-.5 2-.5 2l-.625 1s-1.5 3.625-1.625 4.125-.75 1.375-.75 1.375-.25 0-.25.625-.375 1.625-.375 2-.25.625-.5 1.25l-.25.625-2.375 3.875-.25 1.625-.5.75s-.125.5-.25.875-.5.875-.5 1.25-1.25 1.375-1.25 1.375c-.125.875-.375 1.625-.5 2.125s-1 2.25-1 2.625-.625 1.25-1 1.875.375-.25-.375.625-.5 0-.75.875-.5 1.375-.75 1.875-.875.875-1 1.25-.75 1-.75 1-.375-.875-.375 0-1 1.75-1 1.75L199 628s.5.375 0 .75-1.67.75-1.67.75v-2.625s.545-.75.92-1.25 0-1 .375-1.625.5-.75.625-1.25 0-.625.125-1.25-.375-1.25 0-1.625.5-1 .5-1V618c0-.5-.25-.875-.125-1.375l.125-.5s.125 1.375 0 0l-.125-1.375s.375 1.25 0 0-1.25-.5-1.625 0-1.375 1.125-1.5 1.5.375-.625-.125.375-.75 1-1.125 1.5-1.25 1.125-1.25 1.125-.875.375-1.25.75-1.375.75-1.375.75l-1 .5s.75-.25 0 .5-1 .875-1.625 1.125-2.375 1.625-2.375 1.625l-.875.75c-.875.75-1.875 1-1.875 1s.25-.375 0-.75.25-.25 0-1 .73-1-.072-1.25c-.802-.25-.553 1.75-.803-.25s-.25-1.25-.25-2 .75-1 0-1.25-1.375-.625-1.375-.625-.125 0 0-.625.014-.625-.056-1.125.931.375-.069-.5-.5-.125-1-.875.25-1.75-.5-.75-1.125 1.25-1.125 1.625.5-.5 0 .375.25.25-.5.875l-.75.625s1 1 0 1.125-1.75 0-1.75-.375-.25-.625 0-1.25-.598-.875-.111-1.375.236-.875.486-1.5.25-1.125.25-1.5v-.375s-.029-1.625-.89-.5-.11.375-.86 1.125l-.75.75s-.125.125 0 1.125-.111.875-.056 1.5-.198.875-.009 1.375.689-.5.189.5c-.5 1 .104 1-.261 1.625s-.364.75-.739 1.375-.25.75-.625 1.25.375-.25-.375.5 0 .125-.75.75l-.75.625s-1.125-.875-.75-1.125.375-.75.875-1.25.875-.5 1-1.125.125-1 .375-1.375 0 .75.25-.375.125-.125.25-1.125.25-.125.125-1l-.125-.875s-.5.5-1 .875l-.5.375s1.125-1.125 0 0-1.327 1.5-1.327 1.5c-1.048.75-1.173 1.375-1.173 1.375s.125-.125 0 .625.125.75 0 1.5-.25-.125-.125.75-.5-.125.125.875l.625 1s-1.375-.75 0 0l1.375.75s.625-.375.5.625.875.75-.125 1-2.19-.625-2.658-1c-.468-.375-.717-.375-.842-1s.375.25-.125-.625-.875-1-.875-1.5v-.5V623v-1.25-1.875l-.75-.75-1.125.75-.75.5-.625.5s.125 0 0 .625.25 1.375 0 1.875.072.625-.026 1.25c-.098.625-.168.625-.071 1.375.097.75.347 0 .097.75l-.25.75s-.75-.125-1-.625l-.25-.5c-.375-.75-.875-1-.875-1.375v-.875l-1.25.375s0 1-.75 1.25l-.75.25s.375 0-.625.5l-1 .5s.625.375 0 1-.625 1-.75 1.5l-.125.5s-1.125.625-1.625 0-1-1.375-1-1.375-1.125-.75-1.5-1.25-.75-.75-1-1.125-1-1-1-1v-.625l-1.625-2.25s-.5-.875-1-1.25-1.125-.875-1.125-1.25.375-.5 0-.875-.75-.75-.875-1.125-.5-.375-.75-1.125 0-.125-.25-.75.875-1.125 0-1.5-1.125-.75-1.25-1.125.5-.625 0-1.25-.249.875-.499-.625.625-1.875 0-2.25-1.25-1.375-1.125-1.875-.875-3.125-.875-3.125 1-.25 0-1.625-1-.75-1-1.375-.125-.875 0-1.5-.111-.625-.056-1.375-.198-.625-.009-1.5.189.25.189-.875-.646-.875-.261-2-.881-1.25-.123-2 .258.75.758-.75.125-.5.5-1.5.125-1.25.25-1.625-.875-1.75-1-2.25-.386-.875-.755-1.375.005.25-.37-.5-.5.125-.375-.75-.625-.875-.625-1.625-.125-.375 0-1.375.014-.875-.056-1.625.194-1.125 0-1.75.421-1-.012-1.75-.683-.875-.558-1.5-.439-1.25-.032-1.625c.407-.375-.15-2.125-.15-2.125s.068-1 0-1.5.568-1 0-1.375-.818-1-.818-1.75v-1.375c0-.375.625-.625 0-1.25s-.622-.625-.622-.625-1.375-2.875-2-3.875-.5-.625-1.125-2.125-.5-.375-.625-1.5.5-.5 0-1.625-.625-.625-.625-1.75.25-.75 0-1.875l-.25-1.125s.5-.875 0-1.625l-.5-.75s-.5.5-1.125.625.125 0-.625.125.25.5-.75.125-.25.25-1-.375l-.75-.625s-1.625-2-1.875-2.5-.25-1-.75-1.875-.25-.25-.875-1.625-.5-.5-.625-1.375.125-1.25 0-2.25-.036-1.875-.036-1.875l-.031-3.5s-.317-.875 0-2.125-.849-1.125-.141-2.125.833-1.125 1.083-2.125.25-1 .5-1.75.125-.625.5-1.5.125-1.125.5-1.75.625-.375.875-1.25.25-1 .5-1.5l.25-.5s-1.125 1.625-.875-.5-.25-2 0-2.75.125-1.375.125-1.375-.75-.125-.25-.625 1-1.125 1.125-1.75.5-3 .5-3 .125-.25.75-1.25 1.125-.5 1.25-1.625.375-1.25.375-1.75 0-.75.125-1.5.125-.5.5-1.5.125-1 .5-1.75-.125.625.375-.75.375-1.875.75-2.75.125-.875.75-1.875.5-1 1-1.875.125 0 .5-.875 3-4.75 3-5.5-.5-1.125 0-1.875.125-1 .625-1.5.5-.625 1.125-1.375.75-1.125 1.25-1.75.5-.875.875-1.625.25-1.625.625-2.125.125-.375.5-1.25-.25-1.25.625-1.75 1-.875 1.5-1.25.75-.75 1.375-1.375 1.25-1.625 1.25-1.625 2.375-2.75 2.625-3.5.5-2 1.25-3.75-1 0 .75-1.75 1-1.5 3-2.75 3.25-1.75 3.75-2.5-2.75 1.5.5-.75 3-2.25 4.5-3 1.75-1.25 3-1.5-.75.75 1.25-.25.75.5 2-1 1.25 0 1.25-1.5-.25-2.5.25-3.25 1-3.25 1-3.25-2.5.5 2-2.25 2.25-1.75 4.5-2.75l2.25-1s-1-.5 2.25-.75 2-.25 3.25-.25c0 0 1.25-2.25 1.75-4.75s.25-1.75.5-4-.25-1.25 0-3.5-.25.5.25-2.25.5-2.25.25-4.25-.25 0-.25-2v-2s.25-8.25.5-10.5 0-2 .25-4-.25.75.25-2 0-3 .75-4 1.75-4.5 2-6.75.25-1 1-5 .5-4.5 1-5.5.5-1.25 1-2.25.25-1 1-2.5.5-2 1-2.75.25-1.25 1-2.25.5-2 1.25-2.5.75-1 1.5-2.25.75-3.482 1.25-3.741c.5-.259.25-1.259 1-2.009s1.5-2.5 1.5-2.5 0-.5 1-3.25c.341-.939.625-1.471.87-1.842.472-.717.801-.841 1.13-2.158.5-2 .75-1.5 1.5-3.25s-1.25 1 .75-1.75 1-1 2-2.75 1.25-1.75 1.75-3 0 1.5.5-1.25l.5-2.75-.5-3s-.75-2.25-.5-3.5-.25-1.75 0-2.75-.25-1.75-.25-2.75-.75-2-.5-3l.25-1s-.25-2.25-.5-3-.25-1-.5-2.5-.25.25-.25-1.5-.75-2.75-.5-3.5-.25-1.5-.25-2.25-.5-.75-.5-2-.25-1.75-.5-2.75-.75-.75-.5-2.25.5.25.25-1.5.5-.25-.25-1.75l-.75-1.5s-.75-1.5-2-1.5-3.5-.25-3.5-.25c-2 1-1.75.5-3.25 1.5s.25 0-1.5 1-3 1.75-3 1.75l-2 1.75-1.5 1.5-1 1.25-1.5 1-1.25 1.25s-1 2-1.25 2.75l-.25.75-1.25.75s.5.5-.75 1.75l-1.25 1.25c-1.5 1.5-1-.25-1.5 1.5s0 .5-.5 1.75.5 0-.5 1.25-.75-.25-1 1.25 1.25-.25-.25 1.5l-1.5 1.75s-2.25.5-2 2.25.25 4.5.25 4.5l1.75 1.25s1.5.5 2.25.5 4 1 4 1l1 1.25 1.5.75s1.25.25 2.25 1.25-1-.25 1 1 .25.25 2 1.25l1.75 1s-.25.25 1.25 1.5l1.5 1.25s1 .5 2 1.5-.75-.5 1 1 .5 0 1.75 1.5.25-.5 1.25 1.5 1 2.25 1.5 3.25 0 .613 1.25 2.25 1.75 5.5 1.75 5.5l-4.5-3s-1.25 1.75-1.25 2.5-1.25 1.25-2 1-1.25-.5-2.25-.5h-1s-.75 1.75-.5 2.5.5 8.25.5 8.25l-.25 4.75-.5 22-4 14-.5 15-6 16-2 5.25-3 .75.5-5.25s-.5-1.75-.75-2.75-.25-2.75-.25-3.75v-1l-5 3.25s-1.75 1.75-2 2.5.25.75-.5 2-.5-.75-.75 1.25.25 0-.25 2-1 2.5-1.25 3.25-1.75 7.5-1.75 7.5l-1 5.75-8.5 5s-2-3-2-4.25.25-1.25-.25-2.75-1.75-3.5-1.5-4.25l.25-.75s-4.75 2-5.25 2.75S147 445 146 445.5s-1.5.5-2.5 1-1.655.229-2.25.75l-2 1.75-2-.75s.5-2.5-1.25-1l-1.75 1.5-2.5 1S130 451.5 129 451.5s-1.75-2.5-2.25-3.5-1.75-2-1.75-2.75 0-1-.25-2.25.25 0-.25-1.25.25.5-.5-1.25-.25.25-.75-1.75-.25-.5-.5-2 .5 0-.25-1.5-1.881-1.25-1.815-2.5c.066-1.25.565 1 .065-1.25l-.5-2.25s1.25-1.25 0-2l-1.25-.75s1.5 1 0 1.75 0-1.75-1.5.75l-1.5 2.5s-1.5-.5-2.25.25-1.25-2.25-1.5-3-1.25-2.5-1.25-2.5-.5-1.25-1.5-2.5l-1-1.25v-2.25c0-.75-1-1 0-2.25s1-1.75 1.25-2.5-.25 1 .25-.75.5-3 .5-4-.5-2.5-.5-2.5l-.25-2.25s0-.75.25-1.75.25-3 .25-3-.5-1.5-.25-2.25 0-4.25 0-5.5v-3-2.25c0-2.25-.5.25 0-2.25s-.25-.25.5-2.5.25-1 .75-2.25l.5-1.25s-.75 1.75 0 0 2-.75.75-1.75 1.25 1 0 0S110 376 110 376l-.5-5s-.25-2.25 0-3.25-.25-1 .25-2.5-.25 1 .5-1.5.75-2.75 1-4-.25.25.25-1.25.25-2 .75-2.75l.5-.75-2.75 2.75s-.139-1.25-1.944-1l-1.806.25-2.75-1c-1.5-.5.5-.5-1.5-.5s2 0 0 0h-3.25s1.75-1.5 2.75-2 3.5.5 4.25 0c0 0 3.25-1 4.5-1.25s1.25-.482 2.25-1.241c1-.759 1-1.509 1.25-2.509s.25-1.75.75-2.5.5-1.75 1.25-2.25S117 342 117 342s1.25-3 2-3.75 1-1.25 2.25-2.25-.75.75 1.25-1 1-.25 2-1.75 1.25-1.75 2.5-3.5.75-2.25 1.75-3.25-.75.25 1-1 1.75-2 3.25-2.75l1.5-.75c2.5-1.25-5 2.25 0 0l5-2.25s-2.25 1 1.25-.5-.247-.973 2.25-1.25c4.5-.5 3.25-1.25 4.5-.5s2.75 1.25 2.75 1.25l1.25.75 2.5-.25s.75-.25 2-1-.5 1.25 1.25-.75 4-6 4.5-6.75 2.25-2.75 3-3.75 2-2.5 2.5-3.25.75-1.5 1.5-2.25 1-1.25 1.75-2.25.75-1.75 1.75-2.75 1.25-1.75 2-2.25.75-1 1.75-1.75 1-1.75 2-2.5 1-1.5 2-2 1.25-1.5 2-1.75l-2.75-.5s-4.5.5-5.75.75l-1.25.25s3-1.25 0 0-2.5 1-4.75 1.5l-2.25.5s3.5.75 0 0l-3.5-.75 2.25-1.25s3.895-1.215 4.75-1.5l3-1s1.75-.5 3-.5 1.5.25 2.5 0 1-.25 2.25-.5 1.5-.25 2.75-.5-.5.25 1.25-.25 1.75-1.25 2.75-1.75 3.5-2.25 4.5-3.25 1.25-1 2.5-2.25-.75.5 1.25-1.25 2.75-2.75 3.5-3 1.25-.25 2.25-1 1.25-1 2.25-1.25c0 0-.5-3-1.25-2.25a11.1 11.1 0 0 1-2.75 2c-1 .5-.75-.25-2.25 1.25s1 .25-1.5 1.5-.75.25-2.5 1.25-3 1.5-3 1.5-.5-.25-2.25.25-2.25.5-3 .75 1-.5-.75.25.5-2.25 1.25-2.5 1-.5 2.25-1.25 1.5-.5 2.5-1.25-1.25 1.25 1-.75 0-.75 2.25-2 2.694-1.847 3.5-2.25c3.5-1.75 1.25-1.25 3.5-1.75l2.25-.5s-3-.75 0 0l3 .75s0-.75 1.25 1l1.25 1.75s2-.75 3-.5l2.75 1.75s3.5-2 4.5-2.25 1.75-.5 3-1.5 2.5-1.75 3.5-3 1.75-3 3-3.75 2-1.822 2.75-1.822S233 252.5 233 252.5s1.25-.75 2.5-1.75 1.5-2.25 2.5-2.75 2.75-2.25 2.75-2.25 2-2 2.75-2.5 1.75-1 3-2.75-.75.5 1.25-1.75 2.5-3.5 3.5-4.75 1.25-2.75 1.25-2.75 2.5-1 1.5-2.75-1.75-3.5-2-4.5-1-2.75-1.25-3.75-.5-1.75.5-2.75l1-1s2.25-1.25 3-1.5 1.25-1.5 1.25-1.5-1.5-1.75-1.75-3.5-1.25-2.25-1.5-3.75-.5-1-.5-2.75-.25-1.5-.25-3.25-.75-1.5.25-4 1.5-2.5 2-3.75.5-1.25 1.25-3 .75-2 1.5-3.25.75-1.5 1.75-3.5-2.75-.75 1-2 .75-.75 3.75-1.25l3-.5s-1.25 1.5-2 2-1 1.25-1.5 2 0 1.5-.75 2.75-.5 1.75-1 4.25-.75 4-.75 6.25-.75 0 0 2.25 1.25 2.75 1.75 3.5 5.5-6.75 5.75-8.75.25-2 1-4 .75-3.25 1.75-4.25 1-2.75 2-4 1.25-2.75 2-3.75 1.5-2.25 2-3.5 1.25-4.75 1.25-4.75 1.25-1.75 1-4.75-.25-2.25-.75-4.25-.5-3.25-1.25-3.75-1.5-.75-2.25-2-.75-1.5-2-2.5-2-1-2.5-2.25-.75-2-1.25-3.25-1.75-4.25-1.75-4.25.5-1.75-2.25-4.5-2.75-2.75-3.75-4.5-.25-1.75-2-3.25-1.75.423-2.5-1.789c-.75-2.212-1 .289-.75-2.211s-.5-4.5-.5-4.5z"/></svg>