<svg xmlns="http://www.w3.org/2000/svg" xmlns:dc="http://dublincore.org/documents/dcmi-terms/" height="1052.362" width="744.094"><metadata><dc:description>Silhouette of Hyalophora cecropia, processed by PhyloPic Tools (https://github.com/eweitz/phylopic-tools)</dc:description><dc:source>http://phylopic.org/image/c6781aa0-c13e-4c78-955f-f891abbb5e5e</dc:source><dc:creator>Mali&apos;o Kodis, photograph by Jim Vargo</dc:creator><dc:license>http://creativecommons.org/licenses/by-nc-sa/3.0/</dc:license></metadata><path d="M63.571 150.934c7.027-1.468 14.295-2.939 21.429-2.143 30.68 3.42 44.286-2.857 87.857 29.285 43.572 32.143 51.429 34.286 102.857 95.715 51.429 61.428 60.525 65.89 66.429 82.143 5.663 15.591 10.418 23.5 10.418 23.5l20.296-10.643v-6.429c.024-.01-12.651-6.082-17.143-26.428-4.773-21.623 3.884-38.313 8.572-29.286 1.72 3.315 2.966 19.727 5.714 29.286 1.833 6.374 2.857 20 7.143 18.571 4.286-1.429 5.714-11.786 12.5-26.071 6.377-13.426 8.797-28.573 14.643-22.143 3.571 3.928 3.571 11.785 1.785 17.857-3.186 10.835-.52 5.101-7.142 20-4.286 9.643-7.5 16.071-11.072 15.357-3.571-.714-3.571 9.286-3.571 9.286s7.143-2.143 12.857 3.571c5.714 5.714 6.428 14.286 10.714 5.714 4.286-8.571 2.908-9.408 10.765-17.98 7.857-8.57 41.378-57.734 67.092-94.162 25.715-36.429 47.493-60.884 78.572-82.858 29.155-20.613 62.156-42.95 97.857-43.571 24.137-.42 53.818 7.013 67.143 27.143 15.246 23.034 15 45.714-1.429 82.857C711.43 286.648 696.43 352.362 685 362.362c-11.429 10-30 57.857-52.857 60-22.857 2.143-12.857-2.857 2.857 8.572 15.714 11.428 40.714 22.857 43.571 64.285 2.858 41.429-5 82.143-25.714 107.143s-48.571 59.286-85.714 66.429c-37.143 7.143-71.429 7.143-85.714-7.143-14.286-14.286-22.858-85-27.858-118.572-5-33.571-17.857-68.571-30.714-80.714s-15.714-18.571-15.714-5c0 13.572 5 14.286 4.286 27.143-.715 12.857.5 29.58-3.572 43.571-2.856 9.818-5.334 22.204-14.286 27.143-13.382 7.384-34.53 6.847-45.714-3.571-14.094-13.128-10-38.572-8.571-57.143 1.428-18.571 1.428-45.714 1.428-45.714s-2.143-13.572-12.143 5.714-25 44.286-31.428 73.571c-6.429 29.286-5.714 32.858-11.429 75-5.714 42.143-22.857 59.286-42.143 61.429-19.285 2.143-84.285 6.429-112.857-29.286C102.143 599.505 75 564.505 72.857 528.076 70.714 491.648 65 469.505 85.714 450.22c20.715-19.285 22.143-22.857 31.429-26.428 9.286-3.572-22.515-24.08-30-34.286C79.285 378.791 48.509 315.719 40 287.362c-7.852-26.166-22.857-48.571-20.714-78.571 2.143-30 8.466-38.337 22.143-50.715 5.75-5.204 14.55-5.557 22.142-7.142z" stroke="#060300" stroke-width="1.5"/></svg>