<svg xmlns="http://www.w3.org/2000/svg" xmlns:dc="http://dublincore.org/documents/dcmi-terms/" height="122.056" width="136.557"><metadata><dc:description>Silhouette of Hydrogenothermaceae, processed by PhyloPic Tools (https://github.com/eweitz/phylopic-tools)</dc:description><dc:source>http://phylopic.org/image/7924636d-6fc4-4361-bc61-85d658455d9e</dc:source><dc:creator>Matt Crook</dc:creator><dc:license>http://creativecommons.org/licenses/by-sa/3.0/</dc:license></metadata><g stroke="#000"><path d="M123.284 1.094c-3.934 1.204-6.842 7.762-11.03 10.16-4.188 2.396-10.283 2.548-13.353 5.514-3.07 2.967-4.317 5.945-3.773 9.58.544 3.634 3.7 7.434 7.547 8.127 3.847.692 7.807.137 13.062-1.452 5.255-1.588 11.61-5.475 15.384-9.869 3.775-4.394 4.894-8.499 4.935-12.191.04-3.692-.77-6.46-3.193-8.418-2.424-1.957-5.645-2.655-9.579-1.451z"/><path d="M.5 121.556c9.676-3.774 25.886-10.129 33.381-17.417 7.495-7.287 4.88-16.69 8.708-23.511 3.827-6.82 6.79-11.417 13.933-16.836 7.144-5.42 21.76-10.895 28.156-15.094 6.396-4.199 7.178-6.248 9.87-9.87 2.69-3.62 4.063-7.74 6.095-11.61" fill="none" stroke-linecap="round"/><path d="M97.16 26.637c-1.645 2.516-1.838.92-4.935 7.547-3.096 6.628-4.503 13.57-13.642 21.77-9.14 8.201-30.005 18.168-40.058 26.415-10.053 8.248-15.011 16.063-19.738 22.641-4.727 6.578-7.354 12.192-8.418 16.546" fill="none" stroke-linecap="round"/><path d="M103.255 31.862c-.29 3.29-3.276 7.532-7.837 10.74s-13.383 4.325-18.577 7.838c-5.194 3.512-7.826 7.58-11.901 12.771-4.075 5.192-6.894 11.728-12.482 18.287-5.587 6.56-14.217 16.412-20.9 20.9-6.681 4.488-12.577 5.515-17.996 5.225" fill="none" stroke-linecap="round"/></g></svg>