<svg xmlns="http://www.w3.org/2000/svg" version="1.2" width="891.428" height="689.391" viewBox="0 0 891.428 689.391" overflow="inherit"><path d="M176.406 227.475c1.024-.524 1.044.475.597.803 3.018 3.304 2.875-2.064 5.39 2.223 1.433-.019 2.939-.541 4.61-2.18 12.814 4.979 25.71 2.251 38.785 3.563 4.761.478 9.454 3.719 14.382 4.26 21.321 2.341 44.481 7.436 66.953 11.282 20.713 3.545 41.823 6.403 63.353 11.467 11.679 2.748 21.201 12.247 32.756 10.539 5.426-6.111 10.214-12.315 17.676-18.126-9.257-7.771-22.869-2.237-30.781-4.53-6.86-1.988-8.298-4.939-15.576-5.866-10.501-13.725 3.781-27.518 13.151-35.945 6.862 6.808-4.398 16.923-7.903 24.566 6.426 11.378 15.188 6.88 22.961 9.097-3.551-10.291-4.881-20.254-3.474-29.815 8.632-9.699 16.106-4.909 26.462-14.688 2.776-7.017-1.365-11.789-2.92-19.013-.81-3.762.616-6.995-.76-9.403-3.478-6.088-11.67-9.607-17.139-14.673-8.878-8.223-22.351-17.782-32.898-24.139-9.048-5.454-18.526-5.631-21.727-17.492-1.671.022-3.051-1.932-4.794-1.42-19.914-30.476-24.509-60.037-39.023-89.365-2.659-5.37-6.852-11.046-5.122-18.62 21.546 23.434 20.718 53.547 36.679 76.155-.493 12.497 11.305 27.137 22.466 31.895 22.154 9.444 50.977 31.67 70.591 49.698.617 10.335 4.799 21.195 6.067 31.626 3.639 1.175 7.515.738 11.193 1.647 2.367-3.463.341-7.574.248-11.399 2.123-30.828 62.336-62.423 86.92-75.834 13.005-19.527 20.673-39.841 24.656-60.696 11.489-12.071 7.979-29.593 26.567-39.689 3.605 9.107-6.384 16.214-10.703 24.155-1.931 9.483-6.212 18.622-10.517 27.756 1.813 1.371-.376 4.245 2.594 1.811-15.366 19.039-11.354 39.452-30.643 57.671-3.548 3.351-8.731 4.516-12.43 6.748-11.98 7.231-26.822 20.326-39.92 28.432-5.172 3.201-12.533 5.953-15.639 9.133-8.75 8.964-7.413 22.764-9.139 32.962 5.598 7.307 14.458 4.518 21.77 7.492 9.781 3.979 13.045 20.366 7.465 31.832 7.826 5.41 14.691-6.068 22.225-5.306-3.754-10.538-15.668-17.957-14.483-27.861 5.361-2.465 16.557 13.416 20.511 20.886 2.282 4.313 2.063 8.976 3.354 11.214-14.382 15.343-35.701 14.778-49.673 16.991 1.079 6.098 4.87 11.937 11.727 17.449 17.115-.992 37.885-11.719 56.646-10.961 1.97-3.215 6.811-1.568 6.419-4.773 21.751 1.143 45.019-8.028 66.42-4.52 32.061-5.773 63.459-7.054 95.249-10.999 1.665 3.25 4.208.543 5.987 3.025.973-3.078 6.061-1.646 9.424-5.76 38.313-3.706 80.765-4.543 118.35 11.699 22.362 1.918 51.361 17.735 49.605 46.609-1.314 21.63-28.479 48.058-55.068 63.369-4.834 2.784-11.226 3.169-18.024 5.924-12.738 5.163-25.603 12.563-38.067 15.84-2.067.543-4.463.503-6.605 1.172-9.911 3.09-24.219 1.829-35.802.449 27.315 8.575 33.754 37.552 16.353 58.87-17.647 21.617-62.248 37.635-87.391 45.032-44.271-2.983-95.439 18.634-132.322-18.758-3.535 3.879-2.438 14.33-10.084 19.958-6.614 1.241-13.392 3.574-19.197-.681-.561 11.751-7.292 25.867-.354 36.4-.587 3.415-4.195-.031-6.812 2.571-.464 4.935-.562 9.923 1.338 15.205-8.514 3.779-5.941 14.656-10.291 21.357 20.031 25.764 37.882 41.328 59.726 65.252-.46 3.055-6.8.775-5.824 5.576-4.459-1.431-8.516-19.109-15.738-14.467-3.964-12.705-21.035-25.815-33.845-37.143-6.604-15.206-17.614-21.466-14.049-35.66.903-3.6 3.956-7.148 5.247-11.377 5.076-16.603 12.046-38.004 11.838-56.151-4.762-3.988-6.224-5.183-11.357-10.248-2.39 3.46-5.182 6.861-1.648 11.193-12.888 16.687-20.087 34.21-34.614 50.655.657 2.555 1.005 1.908 2.777 5.411-3.311 12.378-4.58 25.057-2.761 38.188-2.765 15.795-3.63 35.677-1.61 49.795-3.521 16.873-1.854 34.509-2.618 51.789-1.699 6.503 1.769 17.303-4.488 20.781-5.922-10.881-1.324-24.016-5.264-32.223 1.13-20.799 2.527-41.558-2.133-63.209 2.783-24.13-.067-49.087-1.29-73.806-.675-4.792-6.718-6.062-4.958-10.021-11.188-12.48-25.972-38.269-28.781-52.123-8.535-.404-7.25 16.68-15.269 16.336 2.354 25.6 8.19 51.712 14.272 77.86-12.957 15.593-20.997 36.333-37.824 53.042-8.744 8.682-22.276 13.081-25.908 25.491-4.167.248-.218-4.252-3.374-6.214-1.567-.688-3.448.759-5.206 1.378-.681-2.245 2.996-3.848 1.625-6.193 22.292-12.236 47.282-40.635 56.261-61.763-.472-6.264-.219-12.422-.121-18.602-.881-2.106-2.382-.003-3.395-1.213-1.207-6.134 3.759-11.36.476-17.799-.898-1.992-2.283-.676-3.602.185 2.919-13.866 1.228-28.409-.819-43.004-9.428 2.18-21.439-6.312-24.524-17.903-11.096 8.907-29.957 13.8-41.462 14.625-13.411.961-30.594 2.603-45.206 1.21-18.347-1.75-39.091-3.36-55.575-6.035-19.377-10.688-50.891-23.039-70.038-38.895-20.598-17.061-21.026-48.27 9.862-62.16-36.299 3.824-69.513-13.315-102.259-33.631-3.101.025-5.85-2.343-8.991-2.038-33.269-24.785-49.603-64.307-24.024-89.303 2.022-1.976 4.853-4.063 8.026-5.965 25.39-15.226 59.803-11.754 87.079-18.633 8.934 2.428 18.284 2.027 27.798.517 12.042 3.972 24.427 5.62 36.356 10.354 1.41-2.388 5.38 1.368 4.613-2.18zm207.047 84.074c7.104-4.568 8.342-5.665 16.441-9.731-.324-2.906.17-5.693-1.563-8.806-11.211 2.571-11.366 11.234-14.878 18.537zm103.024-5.566c5.792-.173 6.807 4.551 13.19 2.656-7.474-5.869.48-20.147-11.109-21.647 1.46 6.647-1.91 12.583-2.081 18.991z" fill-rule="evenodd"/></svg>