<svg xmlns="http://www.w3.org/2000/svg" xmlns:dc="http://dublincore.org/documents/dcmi-terms/" height="792" version="1.2" viewBox="0 0 612 792" width="612"><metadata><dc:description>Silhouette of Hyperoodon planifrons, processed by PhyloPic Tools (https://github.com/eweitz/phylopic-tools)</dc:description><dc:source>http://phylopic.org/image/352deb43-8d2c-44d8-a679-8bfa874498ae</dc:source><dc:creator>Chris huh</dc:creator><dc:license>http://creativecommons.org/licenses/by-sa/3.0/</dc:license></metadata><path d="M472.399 386c.567.3 1.083.65 1.55 1.05.5.367.934.75 1.301 1.15.366.366.683.75.949 1.149.268.4.434.767.5 1.101.101.333.101.649 0 .95-.133.333-.5.699-1.1 1.1-.3.2-.667.417-1.1.65-.434.199-.934.433-1.5.699-.533.233-1.167.483-1.9.75-.7.267-1.483.551-2.35.851l-27.801 7.899-23.399 5.2-1.851.25c-.533.066-.949.101-1.25.101-.267 0-.433-.034-.5-.101h-.1c-.066 0-.184.033-.35.101-.233.033-.567.133-1 .3l-3.101 1.35c-.633.334-1.267.617-1.899.851-.601.233-1.184.449-1.75.649-.567.167-1.117.3-1.65.4-.5.066-1 .116-1.5.149l-.4.051-1.199-.101c-.4-.066-.783-.149-1.15-.25-.4-.133-.816-.3-1.25-.5-.4-.2-.8-.434-1.2-.7l-.75-.449a1.734 1.734 0 0 0-.7-.351 2.203 2.203 0 0 0-.75-.3 8.187 8.187 0 0 0-1-.15c-.399-.066-.85-.1-1.35-.1l-33.95-.9-33.149-2-56.551-5.5-28.699-.049-4.851.4-19.149 3.15c-1.533.301-3.084.617-4.65.95l-4.65 1.05c-1.533.334-3.083.7-4.649 1.101-1.533.366-3.083.75-4.65 1.149l-19.6 5.7-18.851 6.2-15.8 15.75-6.2 5.15c-.467.333-.899.649-1.3.949l-1.05.7c-.6.367-1.05.584-1.35.65h-.101a1.696 1.696 0 0 1-.25-.101c-.066-.066-.1-.166-.1-.3v-.05l3.3-5.75c2.867-4.8 4.95-9.35 6.25-13.65 1.333-4.3 1.9-8.416 1.7-12.35l-.2-3.85 3.3-1.7c.3-.167.634-.316 1-.45l1.2-.5 3.95-1.15a5.99 5.99 0 0 1 1.25-.25l4.05-.699 6.35-6.301a130.54 130.54 0 0 1 3.801-3.649c1.333-1.2 2.649-2.351 3.949-3.45a82.178 82.178 0 0 1 4.15-3.3 105.19 105.19 0 0 1 4.4-3.2c1.5-1.066 3.066-2.116 4.699-3.15a152.215 152.215 0 0 1 5.15-3.149 252.56 252.56 0 0 1 5.55-3.15 345.893 345.893 0 0 1 6.15-3.25l3.7-2.05a72.445 72.445 0 0 0 1.649-1 29.582 29.582 0 0 0 1.5-1c.467-.333.917-.65 1.351-.95.433-.333.833-.649 1.199-.95.4-.333.75-.649 1.051-.949.333-.301.633-.584.899-.851s.483-.533.65-.8c.2-.3.366-.566.5-.8.3-.5.45-.934.45-1.3 0-.2-.033-.384-.101-.551a2.129 2.129 0 0 0-.2-.6 1.668 1.668 0 0 0-.3-.6 1.912 1.912 0 0 0-.399-.601 2.207 2.207 0 0 0-.45-.5c-.3-.3-.583-.6-.851-.899a29.056 29.056 0 0 0-.699-1.051c-.2-.366-.384-.733-.551-1.1a8.26 8.26 0 0 1-.399-1.05 4.834 4.834 0 0 1-.101-.95c0-.3.033-.55.101-.75.1-.233.233-.417.399-.55.167-.134.434-.217.801-.25.267-.033.6-.05 1-.05l3.149.149 5.9.9 1.35.35c.4.101.75.217 1.05.351 2.301.8 4.884 1.199 7.75 1.199l54.45-5.25 14.45-1.05 38.15.15 16.55.95 9.2 1.25 50.8 9.5 30.1 3.85 5.3 1.15 3 1.149 2.801 1.55c4.166 2.5 6.55 6.167 7.149 11 .101.601.184 1.15.25 1.65.101.467.184.9.25 1.3.101.367.217.717.351 1.05.166.301.333.584.5.851.366.5.833.95 1.399 1.35.3.167.65.351 1.05.55.4.167.817.351 1.25.551l.9.399c.27.137.537.286.803.453z" fill="#010101" fill-rule="evenodd"/></svg>