<svg xmlns="http://www.w3.org/2000/svg" version="1.2" width="233.628" height="145.402" viewBox="0 0 233.628 145.402" overflow="inherit"><path d="M64.939 1.202l.997-.078C55.092 27.08 89.217 33.631 109.849 36.812c3.402-.813 1.262-6.364 4.439-7.368 1.465 3.426 3.36 8.43 5.591 2.906 2.229-5.524 4.073-.279 5.002 4.29 26.432-1.566 51.765-13.03 45.283-36.64 9.312 25.163-16.077 36.386-42.214 37.403 1.207 5.592.717 7.72 1.932 11.886 24.342-4.196 50.108-14.047 73.682-19.801 9.374-2.288 21.748-5.81 30.064-.343-.567 23.487-6.844 46.74-29.315 48.431 4.356 1.797 9.477 2.698 10.671 8.193-4.126 8.145-14.013 21.741-28.881 28.337-10.733 4.762-30.191 8.715-39.566 7.104-11.824-2.032-13.646-14.919-19.052-25.594.988 19.761 1.256 38.908-8.146 49.786-12.812-7.308-10.754-36.012-13.103-52.139 2.447 26.607-20.434 30.569-46.218 24.677-18.762-4.288-36.325-18.18-39.848-35.002-.305-3.981 5.916-2.384 7.665-4.61C14.27 74.244-.485 62.486.012 30.35c15.474-8.18 32.021.511 50.549 5.077 21.213 5.228 38.258 8.733 52.403 15.966 3.562-2.537 1.729-9.686 3.972-13.35-20.575-2.704-55.287-11.952-41.997-36.841z" fill-rule="evenodd"/></svg>