<svg xmlns="http://www.w3.org/2000/svg" xmlns:dc="http://dublincore.org/documents/dcmi-terms/" height="497.47" viewBox="0 0 757.462 497.47" width="757.462" overflow="visible"><metadata><dc:description>Silhouette of Inachis, processed by PhyloPic Tools (https://github.com/eweitz/phylopic-tools)</dc:description><dc:source>http://phylopic.org/image/de1b248a-0d21-421c-9f12-8e2150a24cf9</dc:source><dc:creator>Gareth Monger</dc:creator><dc:license>http://creativecommons.org/licenses/by/3.0/</dc:license></metadata><switch><g><ellipse cx="396.92" cy="168.984" rx="6.68" ry="8.589" stroke="#000" stroke-width="2.082"/><ellipse cx="367.943" cy="167.77" rx="6.68" ry="8.589" stroke="#000" stroke-width="2.082"/><path d="M364.04 177.399s-2.603-2.43-.521-3.644c2.082-1.215 6.593-3.123 7.287-5.206.694-2.082 2.776-5.031 2.95-7.113.173-2.082.867-8.85 1.041-11.105.173-2.255.347-6.767 1.041-7.981.693-1.215-.694-3.991.693-6.073 1.389-2.082 2.713-5.899 3.471-5.899.757 0 1.562 6.073 1.562 7.114 0 1.041 1.735 1.388 2.256 1.388.521 0 .867-3.123 1.215-4.857.347-1.735 1.562-6.941 1.908-5.206.346 1.735 3.471 11.973 4.164 15.27.694 3.297 1.562 11.452 1.042 13.014-.521 1.562-1.215 4.858-.174 6.246 1.041 1.388 1.041 4.164 1.735 5.726.693 1.562 3.47 2.776 4.164 4.338.694 1.562-.521 3.991-.521 3.991l-32.794-.347" stroke="#000" stroke-width="2.082"/><path d="M357.207 198.647s-.001-10.988 1.34-13.4c1.34-2.412 1.34-3.484 2.948-4.288 1.608-.804-1.608-4.557 1.876-5.36 3.484-.805 4.288.804 7.505-.805 3.216-1.607 4.287-3.483 6.432-2.411 2.144 1.071 4.825-2.681 6.968-1.608 2.145 1.072 8.577 4.824 9.649 4.824 1.072 0 2.948-4.288 5.896-.536 2.947 3.752 1.876 4.021 3.216 6.7 1.341 2.68 1.339 6.969 1.072 9.112-.269 2.145-45.83 7.772-45.83 7.772h-1.072z" stroke="#000" stroke-width="2.082"/><path d="M371.143 202.668s-2.68-18.226-.268-20.102c2.411-1.876 3.752-3.483 7.236-3.483 3.483 0 4.823-.805 7.771.536 2.948 1.34 5.359 5.896 5.628 8.04.269 2.144-1.071 11.524-1.071 11.524l-19.296 3.485z" stroke="#000" stroke-width=".694"/><path d="M46.66 117.268c-22.688 5.868-30.513 13.301-30.513 13.301s-6.65 3.912-6.65 6.259c0 2.348 3.13 1.956 3.13 4.694s-1.956 6.65-1.956 8.606c0 1.956.782 4.304.782 6.65 0 2.348-3.521 12.127-3.521 14.865 0 2.738 4.303 4.303 3.912 6.259-.392 1.956-5.478 9.779-5.478 11.345 0 1.564 1.565 3.129.392 5.868-1.174 2.738-7.041 9.779-4.303 12.909 2.738 3.13 14.474-1.564 18.386-1.174 3.912.392 5.477 5.478 8.215 6.65 2.738 1.172 7.432-2.348 13.3 2.347 5.869 4.694 6.651 12.91 8.607 14.865 1.956 1.956 8.997 7.042 11.735 11.345 2.738 4.304 2.738 12.127 7.823 21.124 5.086 8.998 4.694 9.78 6.65 12.127 1.956 2.348.782 9.389 5.477 18.386" stroke="#000" stroke-width="3.47" stroke-linecap="round" stroke-linejoin="round"/><path d="M356.091 198.636s-27.775-21.124-47.335-30.904c-19.56-9.779-68.066-25.818-101.709-33.643-33.643-7.823-57.505-12.518-72.37-14.474 0 0-23.862-2.348-34.425-3.13-10.562-.782-30.904-5.085-53.593.782-22.688 5.868-30.513 13.301-30.513 13.301s-6.65 3.912-6.65 6.259c0 2.348 3.13 1.956 3.13 4.694s-1.956 6.65-1.956 8.606c0 1.956.782 4.304.782 6.65 0 2.348-3.521 12.127-3.521 14.865 0 2.738 4.303 4.303 3.912 6.259-.392 1.956-5.478 9.779-5.478 11.345 0 1.564 1.565 3.129.392 5.868-1.174 2.738-7.041 9.779-4.303 12.909 2.738 3.13 14.474-1.564 18.386-1.174 3.912.392 5.477 5.478 8.215 6.65 2.738 1.172 7.432-2.348 13.3 2.347 5.869 4.694 6.651 12.91 8.607 14.865 1.956 1.956 8.997 7.042 11.735 11.345 2.738 4.304 2.738 12.127 7.823 21.124 5.086 8.998 4.694 9.78 6.65 12.127 1.956 2.348.782 9.389 5.477 18.386 4.694 8.998 15.256 17.604 17.995 20.342 2.738 2.738 7.433 5.868 19.951 7.042 12.518 1.174 28.166-3.13 43.422-8.998 15.256-5.867 61.024-28.165 76.673-34.424 15.647-6.26 53.594-21.516 64.546-26.992 10.953-5.477 44.205-23.471 48.117-26.21 3.913-2.737 2.74-25.817 2.74-25.817z" stroke="#000" stroke-width=".694"/><path d="M373.527 420.035c4.117 5.758 2.775 14.345-3.239 24.523-6.015 10.18-6.015 10.18-6.015 12.955 0 2.776 6.479 29.152 2.776 30.076-3.702.926-13.419-1.852-24.061-2.313-10.642-.463-16.657.463-19.434 2.313-2.777 1.85-3.701 7.866-12.029 7.866-8.329 0-16.194-5.552-20.822-6.478-4.627-.926-20.821 4.626-25.448 3.702-4.627-.927-10.642-4.165-14.807-2.776-4.164 1.388-15.27 9.715-20.358 6.477-5.09-3.238-7.865-20.357-14.344-29.612-6.479-9.255-14.807-9.255-17.12-11.567-2.313-2.313-8.791-10.18-13.418-12.956-4.627-2.776-9.718-2.314-16.195-6.94-6.478-4.627-6.477-10.643-7.402-15.27-.926-4.626-13.418-19.896-13.881-23.598-.463-3.7-4.627-30.536-3.239-39.329 1.388-8.79 3.702-24.061 8.792-31.464 5.089-7.402 23.135-26.836 23.135-26.836l171.661-74.031s11.567 17.583 11.567 24.985c0 7.403-.463 93.003-.463 93.003s-2.776 22.672-.926 32.389c1.852 9.717 6.479 19.896 7.404 24.06.925 4.164 4.69 16.382 7.866 20.821z" stroke="#000" stroke-width=".694"/><path d="M361.862 363.367s12.785 50.227 7.306 63.926c-5.479 13.698-12.785 14.612-10.958 23.744 1.826 9.133 10.046 23.743 1.826 25.57-8.22 1.826-16.438.913-26.483.913-10.046 0-18.265 10.045-22.831 9.132-4.565-.913-11.872-4.565-26.483-5.479-14.611-.912-27.396-6.392-34.702-.912-7.306 5.479-16.438 12.785-17.352 4.565-.913-8.219-2.739-24.656-14.611-31.963-11.872-7.306-19.178-6.392-23.743-12.784-4.566-6.394-14.612-4.567-19.178-9.133-4.566-4.566-10.047-10.958-13.699-20.091-3.652-9.132-12.785-13.698-12.785-24.657s.913-49.314 10.046-58.447c9.132-9.131 31.963-35.614 31.963-35.614l165.293-67.579 13.698 52.968-7.307 85.841z" stroke="#000" stroke-width=".694"/><path d="M229.885 294.003c-23.645-5.065-45.139 3.224-55.617 18.943-10.479 15.718-23.375 33.048-22.973 55.215.403 22.166 6.448 31.838 18.137 46.75 11.688 14.911 20.15 18.943 31.032 21.764 10.882 2.821 25.392 4.432 34.258-2.016 8.866-6.448 38.287-32.242 40.302-59.245 2.016-27.003-1.612-46.348-14.105-58.841-12.495-12.494-19.75-20.151-31.034-22.57z"/><path d="M229.885 294.003c-23.645-5.065-45.139 3.224-55.617 18.943-10.479 15.718-23.375 33.048-22.973 55.215.403 22.166 6.448 31.838 18.137 46.75 11.688 14.911 20.15 18.943 31.032 21.764 10.882 2.821 25.392 4.432 34.258-2.016 8.866-6.448 38.287-32.242 40.302-59.245 2.016-27.003-1.612-46.348-14.105-58.841-12.495-12.494-19.75-20.151-31.034-22.57z" fill="none" stroke="#000" stroke-width=".694"/><path d="M215.779 334.306c-10.371-3.191-9.672-4.03-15.314-2.015-5.643 2.015-14.106 9.27-18.942 13.702-4.836 4.435-10.881 12.092-10.881 15.719 0 3.627 3.224 8.463 3.224 12.897 0 4.433-6.045 10.881-4.433 12.896 1.611 2.015 9.27 2.419 10.882 6.448 1.611 4.03 3.626 6.045 5.642 8.866 2.015 2.822 8.464 8.464 10.479 8.464 2.015 0 6.851-1.612 11.284.402 4.434 2.016 12.896 5.239 15.718 5.239 2.821 0 7.656-5.644 10.479-6.851 2.821-1.21 5.643 1.612 8.464-1.21 2.821-2.82 6.448-10.882 6.852-12.494.402-1.611 1.209-5.642.402-8.865-.806-3.225 2.418-9.673-.806-14.105-3.225-4.435-7.255-13.704-8.061-15.315-.806-1.612-5.24-3.224-6.852-6.852-1.612-3.627-4.836-7.657-8.866-10.882-4.031-3.222-4.032-4.433-9.271-6.044z"/><path d="M215.779 334.306c-10.371-3.191-9.672-4.03-15.314-2.015-5.643 2.015-14.106 9.27-18.942 13.702-4.836 4.435-10.881 12.092-10.881 15.719 0 3.627 3.224 8.463 3.224 12.897 0 4.433-6.045 10.881-4.433 12.896 1.611 2.015 9.27 2.419 10.882 6.448 1.611 4.03 3.626 6.045 5.642 8.866 2.015 2.822 8.464 8.464 10.479 8.464 2.015 0 6.851-1.612 11.284.402 4.434 2.016 12.896 5.239 15.718 5.239 2.821 0 7.656-5.644 10.479-6.851 2.821-1.21 5.643 1.612 8.464-1.21 2.821-2.82 6.448-10.882 6.852-12.494.402-1.611 1.209-5.642.402-8.865-.806-3.225 2.418-9.673-.806-14.105-3.225-4.435-7.255-13.704-8.061-15.315-.806-1.612-5.24-3.224-6.852-6.852-1.612-3.627-4.836-7.657-8.866-10.882-4.031-3.222-4.032-4.433-9.271-6.044z" fill="none" stroke="#000" stroke-width=".694"/><path d="M274.621 345.188s0-35.064-2.82-37.481c-2.821-2.419-5.643-2.419-8.464-1.612-2.821.806-2.418-6.853-6.045-11.285-3.628-4.433-14.51-11.688-20.152-10.479-5.642 1.209-24.584 7.658-24.584 7.658s16.121 1.611 20.555 4.029c4.433 2.419 22.166 16.121 27.809 23.376 5.643 7.255 11.284 23.779 12.493 25.391 1.208 1.612 1.208.403 1.208.403z" stroke="#000" stroke-width=".694"/><path d="M350.903 272.046s-12.784 30.136-15.524 61.185c-2.739 31.051 10.959 67.579 12.785 82.19 1.826 14.612-2.74 28.31-3.653 32.877-.913 4.565-4.565 1.826-14.611 0-10.045-1.827-21.917 3.653-31.05-.914-9.132-4.565-6.392-10.958-13.697-13.698-7.306-2.739-9.134-.912-12.786-3.652-3.652-2.74-7.305-1.826-6.392-11.872.912-10.045 1.826-23.744 2.739-31.963.913-8.219 4.509-27.229 5.907-41.01 1.398-13.784-.428-44.833 4.138-36.614 4.566 8.219.001 10.958 6.394 16.438 6.392 5.479-.914 19.179 11.871 1.827 12.785-17.351 22.83-30.137 30.136-40.182 7.307-10.046 32.487-36.895 32.487-36.895l-8.744 22.283z" stroke="#000" stroke-width=".694"/><path d="M355.469 230.037s-42.008 23.744-52.054 29.223c-10.045 5.48-34.702 12.786-36.529 20.091-1.826 7.307 0 10.959 8.22 8.219 8.219-2.739 5.479.002 3.652 9.133-1.826 9.133-4.565 21.005 0 30.137 4.566 9.133-2.739 16.438 7.307 15.524 10.045-.912 25.569-21.917 30.136-31.963 4.566-10.045 23.792-52.953 31.986-61.636 8.195-8.682 13.675-14.161 13.675-14.161l-6.393-4.567zM340.212 199.792s-113.361-55.987-145.287-62.928c-31.927-6.94-161.019-15.269-170.273-3.238-9.254 12.029-9.717 45.344-4.164 50.896 5.553 5.552 54.598 32.852 54.598 37.016 0 4.165 15.732 41.181 18.509 45.345 2.776 4.165 12.029 29.612 17.582 34.24 5.553 4.626 4.165 8.79 9.255 11.566 5.089 2.776 28.224 1.852 41.18-2.312s44.419-19.896 53.673-23.598c9.255-3.702 47.195-19.896 54.599-22.672 7.403-2.776 24.061-9.254 36.091-15.27 12.03-6.016 30.075-15.27 37.479-19.896 7.404-4.626 8.328-14.344 8.328-14.344l-11.57-14.805z" stroke="#000" stroke-width=".694"/><path d="M350.392 220.15c-.694-.463-6.247-4.627-8.791-3.239-2.545 1.389-6.016 4.396-10.411 5.321-4.396.926-17.813 3.239-14.112 1.389 3.701-1.852 10.643-3.934 13.65-6.941 3.007-3.007 4.857-7.403 2.544-9.254s-21.978-9.947-23.829-12.261c-1.851-2.314-25.911-12.956-32.389-16.195-6.478-3.238-15.731-3.47-19.201-2.775-3.471.693-6.71 2.544-6.71 5.552 0 3.008-1.388 6.016-3.007 6.479-1.62.462-.695 6.709-4.396 3.933s-6.709-6.247-6.709-9.254c0-3.008-1.852-7.635-2.313-9.485-.463-1.851-9.485-8.329-9.485-8.329s-9.022 2.776-12.492 4.627c-3.471 1.852-10.412 3.702-12.725 3.239-2.313-.463-2.313.925-2.313-2.313 0-3.239 7.171-15.5 3.701-18.508-3.471-3.008-19.665-7.866-30.075-10.874-10.411-3.008-96.936-7.403-96.936-7.403l-31.464.231 3.008 35.859 31.001 31.927s6.709 4.858 6.016 7.865c-.694 3.008-5.091 7.403-1.62 9.948 3.47 2.545 6.94 3.239 6.246 7.172s.926 9.254 1.852 11.567c.925 2.313 3.471-.231 3.933 1.62.462 1.851 1.156 9.484 3.008 17.119 1.851 7.635 5.783.926 7.865 7.404 2.082 6.477-.463 9.946 2.776 12.723 3.239 2.777 1.852 4.858 3.008 8.329 1.156 3.47.462 9.022 5.32 10.179 4.858 1.157 4.858.231 5.553 3.934.694 3.701-5.321 6.245 2.776 6.478 8.098.231 10.41-7.171 13.649-5.321 3.239 1.851-6.015 11.105-.23 10.873 5.783-.23 23.598-7.633 21.746-4.626-1.851 3.008-5.552 3.7-9.947 5.32-4.396 1.62-18.509 5.553-25.912 5.553-7.402 0-15.269-2.545-23.365-9.947-8.098-7.404-8.561-9.485-11.799-13.881-3.239-4.396-2.083-9.949-3.702-13.419-1.619-3.471-2.546-7.171-5.553-12.262-3.008-5.09-5.784-7.402-6.94-10.179-1.156-2.777-2.314-11.8-5.553-17.12-3.238-5.321-10.41-10.411-12.724-12.956-2.313-2.544 1.388-11.104-6.246-14.806-7.635-3.702-13.649-3.471-16.194-3.471-2.546 0-2.083-5.09-5.091-5.553-3.007-.462-12.725.926-14.575-.693-1.85-1.619.927-8.328.927-10.643 0-2.313 1.618-7.635 2.544-9.485.926-1.85 2.313-5.089 1.62-7.171-.694-2.083-4.858-2.546-4.627-4.628.23-2.082 3.933-12.724 3.933-15.269s-1.388-5.321-1.157-6.709c.231-1.389 3.239-7.403 2.082-9.717-1.156-2.314-1.619-11.104 3.008-13.419 4.627-2.313 28.919-12.03 43.494-12.492 14.575-.463 39.329 1.388 47.195 2.313 7.866.925 31.926 2.545 38.403 3.701 6.478 1.157 49.51 10.874 53.674 12.03 4.164 1.157 47.427 12.493 54.598 14.807 7.172 2.313 40.255 13.649 47.658 17.583 7.404 3.933 28.456 16.426 32.852 19.433 4.396 3.008 17.583 12.956 17.583 12.956l-4.63 23.134z" stroke="#000" stroke-width=".694"/><path d="M207.831 152.14l-3.811-1.452s1.089-2.359.182-3.268c-.908-.907-17.788-6.534-23.233-8.168-5.445-1.633-25.956-5.808-30.493-6.534-4.538-.726-31.583-6.715-36.665-7.441-5.082-.726-39.206-5.445-44.47-5.627-5.264-.182-14.521-1.089-15.429-.182-.907.908-1.814 2.904-4.174 3.631-2.36.726-7.623 4.537-7.986 5.808-.363 1.271-1.452 4.356-1.997 5.99-.545 1.634-3.812 3.63-5.989 6.534-2.179 2.904-2.723 9.075-3.086 12.161-.363 3.085-2.541 4.538-2.723 7.441-.182 2.904-.182 5.082-.182 8.168 0 3.086.545 2.904 1.271 4.9.726 1.997-1.634 2.541.907 7.079s1.635 9.075 3.812 11.798c2.177 2.723 3.085 2.724 5.082 2.36 1.996-.363 6.896 2.722 10.164 1.996s7.26 3.812 9.801 3.993c2.542.182.727 2.904 3.449 3.449 2.723.544 5.082 4.719 7.805 3.448 2.723-1.271 3.812.726 7.623-.545 3.812-1.271 47.011-17.062 56.993-18.695 9.983-1.633 12.525-1.089 18.333-2.541 5.808-1.452 15.246-1.634 17.969-1.634 2.723 0 10.89-.362 17.788-9.075 6.897-8.712 12.523-13.795 14.521-15.791 1.998-1.996 5.809-5.806 4.538-7.803zM247.219 158.855c-5.926-1.852-5.988-1.089-8.167-1.815-2.179-.726-4.538-1.452-4.538-1.452s3.631 1.634 3.631 3.268-3.268 2.359-2.36 8.53c.907 6.172 3.268 7.261 3.268 8.713 0 1.452-.907 5.989.907 8.35 1.814 2.359 4.175 5.808 6.716 6.716 2.541.907-3.448-4.72-3.448-4.72s.908.363 2.904-.182c1.996-.544.361-1.271.181-3.63s1.271-3.268 3.63-5.445c2.36-2.178 3.268-6.897 2.904-8.712-.363-1.815-1.996-3.268-1.633-4.175.362-.908 1.996-1.271 1.996-1.271s-3.086-3.267-5.991-4.175z" stroke="#000" stroke-width=".694"/><path d="M134.682 136.711s7.261 3.268 2.178 13.25c-5.082 9.983-7.441 20.33-14.339 22.689-6.898 2.359-9.983 2.178-17.062 1.271-7.079-.908-17.606 4.719-26.5-.727-8.894-5.446-13.069-8.894-9.438-16.154 3.63-7.26-5.809-14.702 2.178-19.784 7.987-5.082 18.151-10.346 22.326-10.164 4.174.181 12.159-1.453 19.058 1.089 6.897 2.541 18.695 8.168 21.599 8.53z" stroke="#000" stroke-width=".694"/><path d="M111.993 121.102c-2.735-1.823 8.713-.544 13.251-.182 4.538.363 11.253.727 13.068 1.634 1.815.907 2.179 2.359 3.63 3.63 1.452 1.271 7.261 3.086 7.986 5.809.727 2.723 4.9 16.336 5.809 16.88.907.545 1.634.363 1.452 2.541-.182 2.179.726 8.168-.363 9.983-1.089 1.815-4.538 1.814-4.538 4.175 0 2.359-7.078 10.891-8.53 13.613-1.452 2.722-3.086 8.53-4.72 8.894-1.633.363-2.723.545-6.534 1.815s-18.514 4.719-22.144 6.896c-3.631 2.179-13.431 3.993-14.521 1.815-1.089-2.178-1.27-2.723-4.537-2.723s-8.35 1.452-4.901-2.723 6.353-11.979 12.343-11.616c5.99.363 9.802.182 14.884.182 5.082 0 12.16-.907 13.794-4.72 1.634-3.812.545-9.438 2.179-15.064 1.633-5.627 4.356-10.528 5.445-13.977 1.088-3.448 1.451-3.63.362-5.809-1.089-2.178-6.534-2.178-6.534-3.993 0-1.814-7.624-5.627-7.805-7.805-.182-2.178 0-3.448-2.541-5.445-2.541-1.995-4.902-2.722-6.535-3.81z" stroke="#000" stroke-width=".694"/><path d="M117.801 141.975c-13.423 3.661-13.249.363-16.153.363-2.904 0-16.154 6.716-14.34 3.812 1.815-2.903 3.268-7.078 6.172-8.712 2.904-1.634 8.168-3.449 7.805-5.264-.363-1.815 1.995-5.809 5.444-5.809s12.525-1.271 15.61 1.815c3.085 3.085 11.254 7.26 8.168 9.075-3.086 1.815-8.712 3.631-12.706 4.72zM101.103 124.55c-2.113-2.582-7.441-6.715-11.798-7.26-4.357-.545-9.802-.726-9.802 1.452s.182 4.175-1.271 5.989c-1.452 1.815-13.612 5.445-12.161 8.531 1.452 3.086 6.716 7.623 11.436 7.986 4.719.363 8.894-1.089 13.613-4.175 4.719-3.086 6.897-5.264 8.35-6.353 1.451-1.087 3.267-4.173 1.633-6.17zM231.941 172.492c-7.476 0-13.419-10.179-17.12-6.478-3.701 3.701-12.492 6.94-14.343 6.015-1.852-.925 5.552-10.642 9.253-13.881 3.702-3.238.926-14.344 5.09-12.493 4.164 1.852 8.329-.462 13.419 3.702 5.089 4.164 8.791 6.94 7.865 9.717-.925 2.777-2.776 13.418-4.164 13.418zM130.725 242.592c-2.045.584-8.676 4.164-6.824 5.437 1.851 1.272 8.097 2.429 10.063.925 1.966-1.503 4.048-4.742 2.776-6.131-1.272-1.388-5.205-.463-6.015-.231zM118.811 208.814c-2.43 0-6.016-.348-7.866.231-1.851.578-1.967 1.734-2.082 3.586-.115 1.851-3.008 1.504-1.619 3.586 1.388 2.082 1.156 3.238 3.816 3.007 2.661-.23 7.057-1.734 8.561-4.048 1.504-2.314 4.975-4.28 3.354-5.553-1.621-1.273-4.28-.347-4.28-.347l.116-.462zM331.41 207.664c-2.042.681-15.429-6.126-19.059-8.849-3.63-2.723-19.512-16.562-25.865-19.967-6.353-3.403-21.328-10.437-24.277-12.479-2.949-2.042-5.444-3.856-5.898-5.218-.454-1.362 1.36-2.27 4.991.453 3.63 2.723 21.101 11.117 25.865 14.294 4.764 3.177 16.335 11.798 21.327 15.882 4.992 4.084 17.47 12.025 19.059 13.16l1.589 1.134 2.268 1.59zM345.417 195.743c.631-1.366-2.197-3.586-3.354-4.512-1.157-.925-2.661-2.775-3.471-2.66-.81.115-.231 2.429-1.157 2.082-.925-.347-.578-4.627-1.388-4.974-.81-.348-.694 2.198-1.619 2.429-.926.231-3.701-5.668-4.396-5.668-.695 0-2.198 4.279-2.545 4.511-.348.232-.578-7.519-1.389-7.287-.81.231-1.156 2.082-1.734 3.008-.578.926-1.967 3.701-2.776 3.238-.811-.462 1.271-6.131.693-7.634-.578-1.504-2.775-.694-3.007.693-.231 1.389-1.157 2.892-1.504 2.43-.347-.463-.462-8.213-1.619-7.866-1.157.348-1.389 5.553-2.082 6.94-.694 1.389-2.43 3.008-2.43 1.852 0-1.157 2.893-6.016 2.776-7.751-.116-1.734-1.852-1.734-2.313.116-.463 1.851-5.437 8.906-4.743 10.179.694 1.272 2.43 4.628 4.512 6.016 2.082 1.388 3.471 2.545 3.933.578.463-1.966 2.545-3.933-.926-4.627-3.47-.694-4.858-1.041-3.47-1.619 1.388-.578 2.893-2.43 3.354-3.123.463-.694.348.81 1.272 2.197.925 1.389 3.008 1.156 3.123.231.116-.925.115 6.362 1.967 4.858 1.851-1.504 3.934 5.553 6.825 3.701 2.892-1.851 3.817.579 5.899-.693 2.082-1.272 3.123 4.627 4.858 2.892 1.738-1.735 6.018 1.967 6.711.463zM308.287 179.896c1.041-2.197 3.239-9.369 1.851-9.717-1.388-.347-5.206 6.825-5.668 8.098-.463 1.272-.116-2.429-1.041-3.354-.926-.926 1.157.115 1.272-1.041.115-1.157 1.967-5.438.578-5.669-1.388-.23-4.743 3.124-6.016 4.28-1.271 1.157-5.205 4.975-4.742 6.016.463 1.041.694 2.082 2.082 1.734 1.389-.347 5.899-5.09 5.899-5.09s-3.47 4.05-3.354 5.321c.115 1.272.926 2.083 2.313 2.083 1.389 0 1.619 1.619 2.776 1.503 1.158-.116 4.05-4.164 4.05-4.164zM290.82 175.963c.955 1.338 5.899-3.123 7.519-4.396 1.62-1.273 3.586-4.28 2.545-4.975-1.041-.693-2.776 1.157-4.396 2.082-1.619.927-6.824 5.67-5.668 7.289z" stroke="#000" stroke-width=".694"/><path d="M317.888 191.926c-1.238-.138-1.62 1.852 1.619 4.512 3.238 2.66 5.783 4.28 6.824 4.858 1.041.578-1.388-3.354-2.892-4.858-1.504-1.504-4.51-4.396-5.551-4.512zM294.869 162.892c1.342 1.341 2.545 1.967 1.504 2.776-1.041.809-1.273 1.735-2.893 1.272-1.62-.463-1.734.809-1.966 1.966-.232 1.157-1.852 5.437-3.702 4.743-1.851-.694-.231-4.28.116-5.206.347-.925 1.271-5.09 1.734-5.205.463-.115 1.852-1.966 2.198-1.156.346.81-.81 3.123.347 3.238 1.158.117 2.199-2.891 2.662-2.428zM286.077 159.652c1.373.533.231 3.586-.578 5.668-.809 2.082-1.851 6.71-4.164 5.438-2.313-1.273 0-5.09 1.041-5.899 1.041-.811 1.619-6.016 3.701-5.207zM280.64 157.454c1.431.954 1.389 2.083 1.041 3.008-.347.926-1.851 4.975-3.007 5.668-1.157.694-1.735.579-2.545.926-.811.347-2.893 2.313-2.893.115 0-2.197-1.388-4.742.116-6.361 1.504-1.62 0-5.321 1.041-5.321s3.123.115 3.123 1.504c0 1.388-3.586 5.668-2.43 6.131 1.157.462 3.124-2.082 3.934-3.123.81-1.041.926-3.01 1.62-2.547zM271.501 155.835c-1.85-.925-2.198 1.619-3.123 3.008-.925 1.388-3.007 3.239-1.966 4.396 1.041 1.157 3.817 2.429 4.28.463.462-1.967.925-3.817.925-4.858 0-1.041.579-2.661-.116-3.009zM263.058 152.365c-1.928.214-3.238 1.041-1.735 2.892s1.503 2.313.462 2.776c-1.041.463-2.312.23-1.156 1.504 1.156 1.272 2.775 2.313 4.28 1.272 1.504-1.041 3.586-3.934 2.892-5.668-.695-1.735-2.661-3.007-4.743-2.776zM258.2 150.167c1.573 0 1.735.347 0 1.967-1.735 1.619-3.008 2.082-1.967 3.701 1.041 1.619.231 2.429-.578 2.661-.811.231-2.777-.464-2.893-1.735-.115-1.272.117-.694-.115-2.892-.231-2.198-1.041-6.362.231-5.438 1.272.926 1.272.811 1.388 2.313.116 1.504 2.082-.115 2.43-.347.346-.23 1.042-.23 1.504-.23zM248.483 147.738c-.44.44-2.197.578-3.123 2.082-.926 1.504-2.892 3.586-1.041 4.627 1.85 1.041 1.734 0 3.933-.81 2.197-.81 2.66-2.082 2.313-3.354-.347-1.272-1.619-3.008-2.082-2.545zM239.807 146.234c1.757.176 2.43 1.504 1.619 3.47-.81 1.967-2.081 3.124-2.313 3.471-.231.347 3.009 1.388 2.776 2.429-.231 1.041-3.007-.462-4.858-.462-1.851 0-17.583-5.321-18.854-7.751-1.272-2.429-1.157-2.776-2.198-4.164s-3.586-6.246-2.197-4.396l1.388 1.851s.23-3.817 1.851-2.661c1.62 1.157.579 3.471 1.967 4.512 1.388 1.041 3.586-1.041 3.817-1.388.231-.348 1.04-1.967 1.503-1.041.463.926 2.198 2.66.811 3.354-1.389.694-2.545 1.851-1.619 2.661.925.81 3.123.925 3.701-.348.578-1.273.115-4.164 1.851-3.701 1.735.462 3.123 1.388 2.776 2.082-.347.693-1.851 1.735-.347 1.272 1.503-.463 1.619-3.008 2.429-2.545.81.463 2.545.347 2.197 2.313-.347 1.967-.347 2.892-1.388 3.586-1.041.693-2.66.578-4.049.463-1.388-.116.579 1.388 1.852 1.851 1.271.462 1.734 1.388 3.701.462 1.966-.925 3.471-2.66 3.586-3.123.113-.461-1.158-2.312-.002-2.197z" stroke="#000" stroke-width=".694"/><path d="M710.802 115.003c22.689 5.868 30.513 13.301 30.513 13.301s6.65 3.912 6.65 6.259c0 2.348-3.129 1.956-3.129 4.694s1.956 6.65 1.956 8.606c0 1.956-.783 4.303-.783 6.65 0 2.347 3.521 12.127 3.521 14.865 0 2.738-4.304 4.303-3.912 6.259.391 1.956 5.477 9.779 5.477 11.345 0 1.564-1.565 3.129-.392 5.867 1.174 2.739 7.042 9.78 4.304 12.91-2.738 3.129-14.474-1.565-18.386-1.174-3.912.391-5.478 5.477-8.216 6.65-2.738 1.173-7.432-2.348-13.3 2.347s-6.65 12.91-8.606 14.865c-1.956 1.956-8.998 7.041-11.736 11.345-2.738 4.303-2.738 12.127-7.823 21.124-5.086 8.998-4.694 9.78-6.65 12.127-1.956 2.348-.782 9.389-5.477 18.387" stroke="#000" stroke-width="3.47" stroke-linecap="round" stroke-linejoin="round"/><path d="M401.372 196.371s27.774-21.124 47.334-30.904c19.56-9.779 68.066-25.818 101.709-33.643 33.643-7.825 57.506-12.518 72.371-14.474 0 0 23.861-2.348 34.425-3.13 10.561-.782 30.903-5.086 53.592.782s30.513 13.301 30.513 13.301 6.65 3.912 6.65 6.259c0 2.348-3.129 1.956-3.129 4.694s1.956 6.65 1.956 8.606c0 1.956-.783 4.303-.783 6.65 0 2.347 3.521 12.127 3.521 14.865 0 2.738-4.304 4.303-3.912 6.259.391 1.956 5.477 9.779 5.477 11.345 0 1.564-1.565 3.129-.392 5.867 1.174 2.739 7.042 9.78 4.304 12.91-2.738 3.129-14.474-1.565-18.386-1.174-3.912.391-5.478 5.477-8.216 6.65-2.738 1.173-7.432-2.348-13.3 2.347s-6.65 12.91-8.606 14.865c-1.956 1.956-8.998 7.041-11.736 11.345-2.738 4.303-2.738 12.127-7.823 21.124-5.086 8.998-4.694 9.78-6.65 12.127-1.956 2.348-.782 9.389-5.477 18.387-4.694 8.997-15.255 17.604-17.995 20.342-2.737 2.737-7.433 5.866-19.951 7.04-12.517 1.174-28.165-3.13-43.421-8.996-15.257-5.869-61.025-28.166-76.674-34.425-15.647-6.26-53.594-21.516-64.546-26.992-10.953-5.477-44.205-23.472-48.116-26.21-3.913-2.737-2.739-25.817-2.739-25.817z" stroke="#000" stroke-width=".694"/><path d="M383.935 417.771c-4.117 5.757-2.774 14.345 3.239 24.523 6.016 10.18 6.016 10.18 6.016 12.955 0 2.776-6.479 29.15-2.776 30.076 3.702.925 13.419-1.852 24.06-2.313 10.643-.463 16.657.463 19.434 2.313 2.777 1.85 3.702 7.865 12.03 7.865 8.329 0 16.193-5.551 20.821-6.478 4.627-.926 20.822 4.627 25.448 3.701 4.628-.925 10.643-4.164 14.807-2.776 4.165 1.389 15.27 9.717 20.359 6.479 5.089-3.238 7.865-20.358 14.344-29.612 6.478-9.255 14.807-9.255 17.119-11.568 2.313-2.312 8.791-10.179 13.419-12.955 4.626-2.776 9.717-2.314 16.194-6.94 6.478-4.627 6.478-10.643 7.403-15.27.926-4.626 13.417-19.896 13.881-23.598.462-3.702 4.626-30.538 3.238-39.329-1.388-8.792-3.702-24.061-8.791-31.464-5.09-7.402-23.135-26.836-23.135-26.836l-171.661-74.032s-11.568 17.582-11.568 24.985c0 7.403.464 93.002.464 93.002s2.776 22.674.924 32.391c-1.85 9.717-6.478 19.896-7.402 24.06-.927 4.164-4.691 16.382-7.867 20.821z" stroke="#000" stroke-width=".694"/><path d="M395.601 361.104s-12.786 50.227-7.307 63.925c5.479 13.699 12.786 14.611 10.958 23.744-1.825 9.132-10.046 23.744-1.825 25.569 8.219 1.827 16.438.914 26.483.914 10.045 0 18.264 10.045 22.83 9.133 4.565-.914 11.872-4.567 26.484-5.479 14.611-.914 27.396-6.393 34.702-.914 7.305 5.479 16.438 12.786 17.352 4.567.912-8.221 2.739-24.658 14.611-31.963 11.872-7.307 19.177-6.393 23.742-12.786 4.567-6.393 14.612-4.565 19.179-9.132 4.565-4.565 10.046-10.959 13.698-20.091 3.653-9.133 12.786-13.698 12.786-24.656 0-10.96-.914-49.315-10.047-58.447-9.132-9.132-31.963-35.616-31.963-35.616l-165.293-67.578-13.698 52.967 7.308 85.843z" stroke="#000" stroke-width=".694"/><path d="M527.578 291.739c23.644-5.065 45.139 3.224 55.617 18.941 10.479 15.719 23.374 33.049 22.972 55.215-.402 22.166-6.448 31.84-18.137 46.751-11.688 14.912-20.15 18.942-31.032 21.764-10.882 2.82-25.392 4.433-34.257-2.016-8.867-6.447-38.288-32.241-40.303-59.244-2.016-27.003 1.612-46.348 14.106-58.842 12.494-12.493 19.748-20.152 31.034-22.569z"/><path d="M527.578 291.739c23.644-5.065 45.139 3.224 55.617 18.941 10.479 15.719 23.374 33.049 22.972 55.215-.402 22.166-6.448 31.84-18.137 46.751-11.688 14.912-20.15 18.942-31.032 21.764-10.882 2.82-25.392 4.433-34.257-2.016-8.867-6.447-38.288-32.241-40.303-59.244-2.016-27.003 1.612-46.348 14.106-58.842 12.494-12.493 19.748-20.152 31.034-22.569z" fill="none" stroke="#000" stroke-width=".694"/><path d="M417.25 197.526s113.361-55.986 145.288-62.927c31.926-6.94 161.018-15.269 170.272-3.239 9.254 12.03 9.717 45.345 4.164 50.897-5.553 5.552-54.598 32.852-54.598 37.016 0 4.164-15.731 41.181-18.508 45.346-2.776 4.164-12.03 29.612-17.583 34.238-5.553 4.628-4.164 8.792-9.255 11.568-5.089 2.776-28.224 1.851-41.179-2.313-12.957-4.165-44.42-19.896-53.674-23.598-9.255-3.702-47.195-19.896-54.598-22.672-7.404-2.776-24.062-9.255-36.091-15.27-12.03-6.016-30.076-15.27-37.479-19.896-7.404-4.627-8.329-14.344-8.329-14.344l11.57-14.806z" stroke="#000" stroke-width=".694"/><path d="M407.071 217.886c.693-.463 6.246-4.627 8.791-3.239 2.544 1.388 6.016 4.396 10.41 5.321 4.396.925 17.813 3.239 14.113 1.388-3.702-1.851-10.643-3.933-13.651-6.94-3.006-3.007-4.856-7.403-2.544-9.254 2.313-1.851 21.978-9.947 23.829-12.262 1.851-2.313 25.912-12.955 32.389-16.194 6.479-3.238 15.731-3.47 19.202-2.776 3.47.694 6.71 2.545 6.71 5.553s1.387 6.016 3.006 6.478c1.62.463.696 6.709 4.396 3.934 3.702-2.776 6.709-6.247 6.709-9.255 0-3.007 1.852-7.634 2.313-9.484.463-1.852 9.485-8.329 9.485-8.329s9.022 2.776 12.493 4.627c3.47 1.851 10.411 3.702 12.725 3.239 2.314-.463 2.313.925 2.313-2.313 0-3.239-7.172-15.5-3.702-18.508 3.471-3.008 19.665-7.866 30.076-10.874 10.41-3.008 96.935-7.403 96.935-7.403l31.464.231-3.008 35.859-31 31.926s-6.71 4.859-6.016 7.866c.693 3.008 5.09 7.403 1.619 9.948-3.47 2.545-6.94 3.239-6.246 7.172s-.926 9.254-1.851 11.567c-.926 2.313-3.472-.231-3.934 1.619-.462 1.85-1.156 9.485-3.007 17.12-1.852 7.635-5.784.926-7.866 7.403-2.082 6.477.464 9.948-2.776 12.724-3.238 2.776-1.852 4.858-3.008 8.329-1.156 3.47-.462 9.021-5.32 10.18-4.858 1.156-4.858.231-5.553 3.933-.694 3.702 5.322 6.246-2.776 6.478-8.097.232-10.41-7.171-13.649-5.32-3.239 1.851 6.015 11.104.23 10.873-5.782-.231-23.598-7.635-21.746-4.627 1.851 3.007 5.552 3.701 9.947 5.321 4.396 1.62 18.51 5.552 25.912 5.552 7.402 0 15.269-2.544 23.365-9.948 8.099-7.402 8.561-9.484 11.799-13.881 3.24-4.396 2.084-9.948 3.702-13.418 1.62-3.471 2.546-7.172 5.553-12.262 3.008-5.09 5.784-7.402 6.94-10.179 1.156-2.777 2.314-11.8 5.553-17.12 3.238-5.321 10.41-10.411 12.725-12.956 2.312-2.545-1.389-11.104 6.246-14.807 7.635-3.701 13.649-3.47 16.193-3.47 2.546 0 2.084-5.09 5.091-5.553 3.008-.462 12.725.926 14.575-.693 1.85-1.62-.926-8.329-.926-10.643s-1.619-7.635-2.545-9.485c-.926-1.85-2.313-5.09-1.62-7.172.694-2.082 4.858-2.545 4.628-4.627-.231-2.082-3.934-12.725-3.934-15.269 0-2.545 1.388-5.321 1.157-6.709-.231-1.389-3.239-7.403-2.082-9.718 1.156-2.313 1.62-11.104-3.008-13.418-4.626-2.313-28.918-12.03-43.493-12.492-14.575-.463-39.329 1.388-47.195 2.312-7.866.926-31.926 2.546-38.404 3.702-6.478 1.156-49.51 10.874-53.674 12.03-4.164 1.156-47.426 12.493-54.598 14.807-7.171 2.313-40.255 13.649-47.658 17.582-7.404 3.934-28.456 16.427-32.852 19.434-4.395 3.008-17.583 12.956-17.583 12.956l4.631 23.134z" stroke="#000" stroke-width=".694"/><path d="M549.631 149.875l3.812-1.452s-1.09-2.359-.182-3.268c.907-.907 17.788-6.534 23.233-8.168 5.445-1.634 25.955-5.809 30.493-6.534 4.537-.726 31.582-6.716 36.664-7.441 5.082-.727 39.207-5.446 44.471-5.627 5.264-.182 14.521-1.089 15.428-.182.908.907 1.814 2.904 4.175 3.63 2.36.727 7.622 4.538 7.985 5.809.363 1.271 1.452 4.355 1.997 5.989.545 1.634 3.812 3.631 5.99 6.535 2.178 2.904 2.722 9.075 3.085 12.161.363 3.085 2.542 4.538 2.724 7.441.182 2.904.182 5.082.182 8.168 0 3.085-.545 2.903-1.271 4.9-.726 1.997 1.634 2.541-.907 7.079-2.541 4.537-1.635 9.075-3.812 11.798-2.179 2.723-3.085 2.723-5.082 2.359-1.997-.364-6.897 2.723-10.164 1.997-3.269-.727-7.261 3.812-9.802 3.993-2.542.182-.727 2.904-3.449 3.448-2.723.545-5.082 4.72-7.805 3.449-2.722-1.271-3.811.726-7.622-.545-3.812-1.271-47.012-17.062-56.994-18.695-9.983-1.633-12.525-1.089-18.332-2.541-5.809-1.452-15.246-1.634-17.97-1.634-2.722 0-10.89-.362-17.788-9.075-6.896-8.712-12.523-13.795-14.521-15.791-1.998-1.996-5.808-5.806-4.538-7.803z" stroke="#000" stroke-width=".694"/><path d="M505.682 26.866s-39.56 43.724-60.379 68.708c-20.82 24.984-45.577 50.026-58.531 65.092M280.822 9.169s29.148 45.805 46.846 70.789c17.697 24.985 38.518 62.462 49.969 82.241" stroke="#000" stroke-width="1.562"/><path d="M274.651.864c2.636-1.713 4.625 1.196 6.619 3.35 1.994 2.154 6.46 7.896 7.736 10.527 1.275 2.632 6.221 16.748 6.221 16.748s-11.325-10.607-13.239-13.079c-1.914-2.473-5.423-9.331-6.539-11.405-1.116-2.073-2.393-5.104-.798-6.141z" stroke="#000" stroke-width=".694"/><path d="M541.683 332.042c10.372-3.191 9.672-4.03 15.314-2.016 5.643 2.016 14.107 9.269 18.942 13.703 4.837 4.433 10.881 12.092 10.881 15.718 0 3.627-3.224 8.464-3.224 12.896 0 4.435 6.045 10.883 4.433 12.897-1.611 2.016-9.269 2.418-10.881 6.448-1.611 4.03-3.627 6.044-5.642 8.866-2.016 2.821-8.464 8.463-10.479 8.463-2.015 0-6.852-1.611-11.284.404-4.435 2.015-12.896 5.239-15.718 5.239-2.822 0-7.657-5.644-10.479-6.853-2.822-1.208-5.644 1.613-8.464-1.208-2.821-2.822-6.448-10.882-6.852-12.494-.403-1.611-1.21-5.642-.403-8.866.807-3.224-2.417-9.672.807-14.106 3.225-4.433 7.255-13.703 8.06-15.315.807-1.611 5.241-3.224 6.853-6.851 1.611-3.628 4.835-7.657 8.865-10.881 4.031-3.224 4.032-4.433 9.271-6.044z"/><path d="M541.683 332.042c10.372-3.191 9.672-4.03 15.314-2.016 5.643 2.016 14.107 9.269 18.942 13.703 4.837 4.433 10.881 12.092 10.881 15.718 0 3.627-3.224 8.464-3.224 12.896 0 4.435 6.045 10.883 4.433 12.897-1.611 2.016-9.269 2.418-10.881 6.448-1.611 4.03-3.627 6.044-5.642 8.866-2.016 2.821-8.464 8.463-10.479 8.463-2.015 0-6.852-1.611-11.284.404-4.435 2.015-12.896 5.239-15.718 5.239-2.822 0-7.657-5.644-10.479-6.853-2.822-1.208-5.644 1.613-8.464-1.208-2.821-2.822-6.448-10.882-6.852-12.494-.403-1.611-1.21-5.642-.403-8.866.807-3.224-2.417-9.672.807-14.106 3.225-4.433 7.255-13.703 8.06-15.315.807-1.611 5.241-3.224 6.853-6.851 1.611-3.628 4.835-7.657 8.865-10.881 4.031-3.224 4.032-4.433 9.271-6.044z" fill="none" stroke="#000" stroke-width=".694"/><path d="M482.841 342.923s0-35.063 2.82-37.481c2.821-2.417 5.644-2.417 8.465-1.611 2.82.807 2.417-6.853 6.044-11.285 3.628-4.433 14.51-11.688 20.152-10.479 5.642 1.209 24.584 7.657 24.584 7.657s-16.12 1.612-20.555 4.03c-4.433 2.418-22.166 16.12-27.808 23.375-5.644 7.255-11.285 23.779-12.494 25.392-1.208 1.611-1.208.402-1.208.402z" stroke="#000" stroke-width=".694"/><path d="M406.559 269.78s12.785 30.136 15.524 61.187c2.739 31.049-10.958 67.579-12.784 82.19-1.828 14.611 2.739 28.31 3.653 32.875.912 4.567 4.565 1.827 14.61 0 10.046-1.825 21.918 3.653 31.05-.912 9.133-4.566 6.392-10.96 13.698-13.699 7.305-2.739 9.133-.912 12.786-3.652 3.651-2.74 7.305-1.827 6.392-11.872-.913-10.046-1.826-23.743-2.74-31.962-.912-8.22-4.509-27.229-5.907-41.012-1.397-13.782.428-44.831-4.138-36.612-4.566 8.219-.001 10.958-6.393 16.438-6.393 5.479.914 19.177-11.872 1.826-12.784-17.352-22.83-30.137-30.136-40.182-7.307-10.046-32.487-36.895-32.487-36.895l8.744 22.282z" stroke="#000" stroke-width=".694"/><ellipse cx="276.424" cy="2.917" rx="1.786" ry="1.275" transform="rotate(52.309 276.416 2.907)" stroke="#000" stroke-width=".694"/><path d="M512.472 17.057c2.393 2.039.17 4.773-1.327 7.299-1.496 2.524-5.729 8.44-7.889 10.412-2.16 1.973-14.284 10.731-14.284 10.731s6.944-13.876 8.77-16.414c1.825-2.539 7.401-7.855 9.071-9.516 1.67-1.661 4.212-3.747 5.659-2.512z" stroke="#000" stroke-width=".694"/><ellipse cx="511.009" cy="19.34" rx="1.787" ry="1.275" transform="rotate(125.768 511.014 19.355)" stroke="#000" stroke-width=".694"/><path d="M401.993 227.772s42.009 23.743 52.054 29.224c10.046 5.479 34.702 12.784 36.529 20.091 1.826 7.306 0 10.959-8.219 8.219-8.22-2.739-5.48 0-3.653 9.133 1.826 9.131 4.565 21.003 0 30.136-4.566 9.132 2.74 16.438-7.307 15.525-10.044-.914-25.569-21.919-30.135-31.963-4.567-10.047-23.792-52.954-31.987-61.637-8.194-8.682-13.674-14.161-13.674-14.161l6.392-4.567zM510.243 156.591c5.926-1.853 5.988-1.089 8.167-1.815 2.179-.726 4.538-1.452 4.538-1.452s-3.63 1.634-3.63 3.268 3.267 2.359 2.36 8.53c-.908 6.172-3.269 7.261-3.269 8.713 0 1.452.907 5.989-.907 8.35-1.814 2.359-4.175 5.808-6.715 6.715-2.542.908 3.448-4.719 3.448-4.719s-.908.363-2.905-.182c-1.995-.545-.361-1.271-.18-3.63.18-2.36-1.271-3.268-3.631-5.445-2.359-2.179-3.268-6.897-2.904-8.712.363-1.815 1.996-3.268 1.633-4.175-.361-.908-1.996-1.271-1.996-1.271s3.086-3.268 5.991-4.175zM622.78 134.446s-7.26 3.267-2.178 13.25c5.083 9.983 7.441 20.33 14.339 22.689 6.898 2.358 9.983 2.178 17.062 1.271 7.079-.908 17.606 4.719 26.5-.727 8.894-5.446 13.069-8.894 9.438-16.154-3.63-7.26 5.808-14.702-2.178-19.784-7.987-5.083-18.151-10.346-22.326-10.165-4.174.182-12.16-1.452-19.059 1.089-6.895 2.542-18.693 8.168-21.598 8.531z" stroke="#000" stroke-width=".694"/><path d="M645.469 118.837c2.736-1.824-8.713-.545-13.25-.182-4.539.363-11.254.726-13.069 1.634-1.815.907-2.179 2.359-3.63 3.63-1.452 1.271-7.261 3.086-7.986 5.809-.727 2.723-4.9 16.336-5.809 16.88-.906.545-1.633.363-1.451 2.541.182 2.179-.727 8.168.363 9.983 1.088 1.815 4.537 1.814 4.537 4.175 0 2.359 7.078 10.891 8.53 13.613 1.453 2.723 3.087 8.53 4.72 8.894 1.634.362 2.724.544 6.534 1.814 3.812 1.271 18.515 4.719 22.145 6.897 3.63 2.178 13.431 3.993 14.52 1.815 1.09-2.179 1.271-2.723 4.538-2.723 3.267 0 8.35 1.452 4.9-2.723-3.448-4.175-6.352-11.979-12.342-11.616-5.99.363-9.803.182-14.885.182-5.082 0-12.16-.908-13.794-4.72-1.634-3.812-.545-9.438-2.179-15.064-1.633-5.627-4.356-10.528-5.445-13.977-1.088-3.448-1.451-3.63-.361-5.809 1.088-2.178 6.533-2.178 6.533-3.993s7.624-5.627 7.806-7.805c.181-2.179 0-3.448 2.54-5.445 2.542-1.996 4.902-2.721 6.535-3.81z" stroke="#000" stroke-width=".694"/><path d="M639.661 139.71c13.423 3.661 13.25.363 16.154.363s16.154 6.716 14.34 3.812c-1.815-2.903-3.268-7.078-6.172-8.712-2.904-1.634-8.169-3.449-7.806-5.265.363-1.814-1.995-5.808-5.444-5.808s-12.525-1.271-15.61 1.814c-3.085 3.086-11.254 7.261-8.167 9.076 3.085 1.816 8.711 3.631 12.705 4.72zM656.359 122.285c2.113-2.583 7.442-6.716 11.799-7.26 4.355-.545 9.801-.727 9.801 1.452 0 2.178-.181 4.174 1.271 5.989 1.452 1.815 13.612 5.445 12.161 8.531-1.452 3.085-6.716 7.623-11.436 7.986-4.719.362-8.895-1.09-13.613-4.175-4.72-3.086-6.898-5.264-8.35-6.353-1.451-1.088-3.267-4.174-1.633-6.17zM525.521 170.228c7.476 0 13.419-10.179 17.121-6.478 3.7 3.701 12.491 6.94 14.343 6.015 1.851-.926-5.553-10.642-9.254-13.881-3.701-3.239-.925-14.344-5.089-12.493-4.165 1.851-8.33-.462-13.419 3.702-5.09 4.164-8.791 6.94-7.866 9.717.926 2.776 2.776 13.418 4.164 13.418zM626.737 240.326c2.046.584 8.676 4.164 6.825 5.437-1.852 1.273-8.098 2.43-10.063.926-1.967-1.504-4.049-4.742-2.776-6.131 1.271-1.388 5.205-.462 6.014-.232z" stroke="#000" stroke-width=".694"/><path d="M239.558 378.64c-3.227 1.843-.403 4.835-2.821 8.06-2.418 3.224-4.434 7.254-4.837 8.463-.402 1.209-6.045-4.03-6.045-.805 0 3.223-.805 5.239.403 8.866 1.209 3.628 4.837 2.821 8.464.806 3.627-2.015 7.656-6.852 8.866-10.882 1.209-4.029.806-4.836 2.015-8.06 1.209-3.225 2.821-4.433 1.209-7.255-1.611-2.821-4.434-.806-7.254.807z"/><path d="M239.558 378.64c-3.227 1.843-.403 4.835-2.821 8.06-2.418 3.224-4.434 7.254-4.837 8.463-.402 1.209-6.045-4.03-6.045-.805 0 3.223-.805 5.239.403 8.866 1.209 3.628 4.837 2.821 8.464.806 3.627-2.015 7.656-6.852 8.866-10.882 1.209-4.029.806-4.836 2.015-8.06 1.209-3.225 2.821-4.433 1.209-7.255-1.611-2.821-4.434-.806-7.254.807z" fill="none" stroke="#000" stroke-width=".694"/><path d="M196.837 340.754c-4.718 4.718-8.866 10.883-11.284 12.092-2.419 1.209-2.822 3.224-4.031 8.061-1.208 4.836-6.851 4.836-4.433 10.479 2.418 5.642 0 10.882 6.045 10.882s13.704-5.24 20.555-11.285c6.851-6.046 8.866-11.688 10.075-15.314 1.209-3.628 3.627-14.106 2.015-11.285-1.611 2.82-4.029 2.82-6.851 2.82s-2.821-.402-2.015-4.03c.806-3.627 1.208-7.253-1.613-6.448-2.82.804-6.045 1.61-8.463 4.028z"/><path d="M196.837 340.754c-4.718 4.718-8.866 10.883-11.284 12.092-2.419 1.209-2.822 3.224-4.031 8.061-1.208 4.836-6.851 4.836-4.433 10.479 2.418 5.642 0 10.882 6.045 10.882s13.704-5.24 20.555-11.285c6.851-6.046 8.866-11.688 10.075-15.314 1.209-3.628 3.627-14.106 2.015-11.285-1.611 2.82-4.029 2.82-6.851 2.82s-2.821-.402-2.015-4.03c.806-3.627 1.208-7.253-1.613-6.448-2.82.804-6.045 1.61-8.463 4.028z" fill="none" stroke="#000" stroke-width=".694"/><path d="M219.407 380.653c3.703-.309 5.238-12.492 4.836-14.911-.402-2.418-1.611-14.912-4.836-10.075-3.225 4.836-4.03 7.253-8.464 11.688-4.433 4.433-6.852 6.448-6.448 7.657.404 1.209 5.239-4.031 7.658-1.209 2.418 2.821 2.418 7.255 7.254 6.85zM205.3 401.208c4.824.535 10.479.807 10.479-3.224 0-4.031-1.611-13.703-4.836-13.703-3.224 0-6.045-1.612-6.448-3.224-.403-1.613-2.82-4.03-5.239-2.418-2.418 1.611-11.285 7.657-10.076 7.657 1.21 0 2.016 2.417 6.449 4.835 4.432 2.42 6.044 9.675 9.671 10.077zM45.744 136.893c-2.898 2.006-7.442 8.713-7.442 10.347 0 1.633 3.448 3.085 3.448 3.993 0 .907-6.352 3.085-7.623 11.253s2.541 5.083 1.452 8.35c-1.089 3.267-3.63 3.812-.726 6.534s2.722 4.538 3.267 5.809c.545 1.271-2.903 3.812 1.634 6.353s9.62 2.541 10.346 2.723c.727.182 2.179 2.541 5.627 2.541 3.449 0 5.99-2.541 7.079-1.089 1.089 1.452 1.814 7.441 3.993 7.805 2.178.363 7.805 1.814 11.072.726 3.267-1.089 8.713-1.633 9.075-3.085.362-1.452 5.627-9.438 7.805-11.979 2.178-2.541 17.425-3.812 21.6-3.631 4.174.182 11.616-2.722 13.068-5.989 1.451-3.268.181-11.979-1.997-9.802-2.178 2.179-20.511 5.99-23.233 7.261-2.722 1.271 4.538-8.35-2.54-6.172-7.079 2.179-6.534-.544-10.346-.726-3.812-.182-7.987-.182-5.99-2.723 1.996-2.541 4.537-7.261.182-4.9-4.356 2.359-11.072 2.541-12.887 3.267-1.815.727 12.887-4.9 7.623-7.805-5.264-2.905.544-4.356-1.09-7.441-1.633-3.086 1.815-7.079 0-8.168-1.814-1.09-10.346-3.268-10.527-5.083-.182-1.814 8.169-6.715 9.439-8.712 1.27-1.997 4.719-9.62-.908-6.716-5.627 2.904-8.53 6.534-14.339 9.257-5.809 2.723-10.346 4.538-12.343 5.445-1.997.904-2.36.724-4.719 2.357zM129.221 240.047c-6.724 2.689-11.567 10.179-8.791 10.642 2.776.463 10.643 2.776 14.344 1.389 3.701-1.389 6.941-9.718 4.627-11.568-2.314-1.852-7.866-1.389-10.18-.463zM114.647 203.03c-1.223.115-2.016.317-2.634.546-1.256.465-1.792 1.035-3.729 1.189-2.893.231-4.513 1.041-4.628 3.354-.115 2.313.232 4.512-1.271 3.471-1.504-1.042-3.009-3.702-3.587-2.43-.578 1.272-.578 3.817-.693 5.205-.115 1.389-3.238-1.271-3.586.116-.347 1.388 0 3.123.578 3.701.578.579.926.579.926 1.852 0 1.271-2.776 2.197-2.43 3.47.346 1.273 1.505 3.354 3.008 3.354 1.504 0 4.048-1.388 6.015-1.504 1.967-.115 2.083 1.504 4.05.463 1.966-1.041.809-3.702 1.966-3.817 1.157-.115 3.008.81 2.892 2.198-.115 1.388-.348 2.892 1.157 2.892 1.504 0 2.082-.116 1.734-1.619-.347-1.504-1.388-2.661-.347-3.239 1.041-.578.115-.116 1.735-.578 1.619-.463 1.734-.811 2.545-1.389.81-.578 1.157-3.123 3.123-1.734 1.966 1.388 3.586 1.966 3.817 1.619.231-.347-1.272-3.47-1.619-4.627-.348-1.157.231-1.272 1.619-2.776 1.388-1.504 4.396-3.354 3.586-4.858-.81-1.504 4.742-1.504 2.66-3.586s-3.239-3.354-4.28-1.966c-1.041 1.388-5.089-.348-7.056-.463-1.967-.116-2.544-2.892-4.511-1.851s-1.04 3.007-1.04 3.007z" stroke="#000" stroke-width=".694"/><path d="M517.904 376.374c3.227 1.844.403 4.837 2.821 8.061 2.418 3.225 4.434 7.255 4.837 8.464.402 1.209 6.046-4.03 6.046-.807 0 3.225.805 5.239-.404 8.867-1.208 3.627-4.837 2.82-8.463.807-3.627-2.017-7.657-6.853-8.867-10.883-1.209-4.03-.805-4.835-2.014-8.061-1.209-3.224-2.821-4.433-1.209-7.253 1.611-2.822 4.432-.806 7.253.805z"/><path d="M517.904 376.374c3.227 1.844.403 4.837 2.821 8.061 2.418 3.225 4.434 7.255 4.837 8.464.402 1.209 6.046-4.03 6.046-.807 0 3.225.805 5.239-.404 8.867-1.208 3.627-4.837 2.82-8.463.807-3.627-2.017-7.657-6.853-8.867-10.883-1.209-4.03-.805-4.835-2.014-8.061-1.209-3.224-2.821-4.433-1.209-7.253 1.611-2.822 4.432-.806 7.253.805z" fill="none" stroke="#000" stroke-width=".694"/><path d="M560.625 338.49c4.718 4.718 8.867 10.881 11.285 12.09 2.419 1.21 2.822 3.224 4.03 8.061 1.209 4.837 6.851 4.838 4.433 10.479-2.417 5.643 0 10.882-6.044 10.882-6.046 0-13.704-5.239-20.555-11.285-6.852-6.045-8.867-11.688-10.076-15.315-1.209-3.626-3.626-14.104-2.015-11.284 1.612 2.821 4.029 2.821 6.852 2.821 2.82 0 2.82-.402 2.015-4.03-.806-3.627-1.208-7.255 1.612-6.448 2.821.805 6.045 1.611 8.463 4.029z"/><path d="M560.625 338.49c4.718 4.718 8.867 10.881 11.285 12.09 2.419 1.21 2.822 3.224 4.03 8.061 1.209 4.837 6.851 4.838 4.433 10.479-2.417 5.643 0 10.882-6.044 10.882-6.046 0-13.704-5.239-20.555-11.285-6.852-6.045-8.867-11.688-10.076-15.315-1.209-3.626-3.626-14.104-2.015-11.284 1.612 2.821 4.029 2.821 6.852 2.821 2.82 0 2.82-.402 2.015-4.03-.806-3.627-1.208-7.255 1.612-6.448 2.821.805 6.045 1.611 8.463 4.029z" fill="none" stroke="#000" stroke-width=".694"/><path d="M538.056 378.39c-3.704-.309-5.239-12.494-4.837-14.912.402-2.419 1.611-14.913 4.837-10.076 3.224 4.837 4.03 7.255 8.463 11.688 4.434 4.435 6.853 6.448 6.448 7.658-.402 1.209-5.239-4.03-7.658-1.21-2.418 2.821-2.418 7.254-7.253 6.852zM552.162 398.944c-4.824.535-10.479.805-10.479-3.225s1.612-13.702 4.836-13.702c3.225 0 6.046-1.612 6.448-3.226.404-1.611 2.82-4.029 5.239-2.418 2.418 1.612 11.285 7.657 10.076 7.657-1.21 0-2.015 2.419-6.449 4.837-4.432 2.42-6.043 9.675-9.671 10.077zM711.718 134.628c2.898 2.006 7.442 8.713 7.442 10.347 0 1.633-3.448 3.085-3.448 3.993 0 .907 6.352 3.085 7.623 11.253s-2.541 5.083-1.451 8.35c1.088 3.267 3.63 3.812.725 6.534-2.903 2.723-2.722 4.538-3.267 5.808-.545 1.271 2.903 3.812-1.634 6.354-4.537 2.542-9.62 2.541-10.346 2.723-.727.181-2.178 2.541-5.627 2.541-3.448 0-5.99-2.542-7.078-1.09-1.089 1.452-1.815 7.442-3.993 7.806-2.179.362-7.806 1.814-11.072.726-3.268-1.089-8.713-1.634-9.076-3.086-.361-1.452-5.627-9.438-7.804-11.979-2.179-2.54-17.426-3.812-21.6-3.63-4.175.182-11.617-2.723-13.069-5.989-1.451-3.268-.18-11.979 1.997-9.802 2.179 2.179 20.511 5.99 23.233 7.26 2.723 1.271-4.537-8.349 2.541-6.171 7.079 2.179 6.534-.544 10.346-.726 3.812-.182 7.987-.182 5.99-2.723-1.996-2.541-4.538-7.261-.182-4.9 4.355 2.359 11.071 2.541 12.887 3.267 1.814.727-12.887-4.9-7.623-7.805 5.264-2.905-.545-4.356 1.089-7.441 1.634-3.086-1.815-7.079 0-8.169 1.815-1.089 10.346-3.268 10.527-5.082.181-1.814-8.169-6.716-9.438-8.712-1.271-1.997-4.719-9.62.908-6.716 5.627 2.904 8.53 6.534 14.339 9.257 5.809 2.723 10.346 4.537 12.342 5.445 1.998.905 2.36.723 4.719 2.357zM628.241 237.781c6.725 2.69 11.568 10.18 8.792 10.643-2.776.463-10.643 2.776-14.345 1.388-3.701-1.388-6.94-9.717-4.627-11.567 2.314-1.851 7.867-1.389 10.18-.464zM642.815 200.766c1.223.115 2.016.317 2.635.546 1.255.465 1.791 1.034 3.729 1.189 2.892.231 4.512 1.041 4.627 3.354.115 2.313-.232 4.511 1.272 3.47 1.503-1.041 3.008-3.701 3.586-2.429.578 1.272.578 3.817.693 5.205.115 1.389 3.239-1.272 3.586.116.347 1.388 0 3.123-.577 3.701-.579.578-.926.579-.926 1.852 0 1.271 2.775 2.197 2.429 3.47-.346 1.273-1.505 3.354-3.008 3.354-1.504 0-4.048-1.388-6.015-1.504-1.967-.115-2.082 1.504-4.049.463-1.966-1.041-.81-3.702-1.966-3.817-1.158-.115-3.009.81-2.894 2.198.117 1.388.349 2.892-1.156 2.892-1.503 0-2.082-.116-1.734-1.619.347-1.504 1.388-2.661.347-3.239-1.041-.578-.115-.116-1.735-.578-1.619-.463-1.734-.811-2.544-1.389-.811-.578-1.158-3.123-3.123-1.735-1.968 1.389-3.587 1.967-3.817 1.62-.232-.347 1.271-3.47 1.618-4.627.347-1.157-.23-1.272-1.618-2.776-1.389-1.504-4.396-3.354-3.587-4.858.811-1.504-4.742-1.504-2.659-3.586 2.082-2.082 3.238-3.354 4.279-1.966 1.041 1.388 5.089-.348 7.056-.464 1.967-.115 2.544-2.892 4.511-1.851s1.04 3.008 1.04 3.008z" stroke="#000" stroke-width=".694"/><path d="M638.651 206.55c2.43 0 6.016-.348 7.866.231 1.851.578 1.967 1.734 2.082 3.585.115 1.852 3.009 1.505 1.62 3.587-1.388 2.082-1.157 3.238-3.817 3.007-2.661-.231-7.056-1.734-8.561-4.048-1.503-2.314-4.975-4.28-3.354-5.553 1.621-1.273 4.281-.347 4.281-.347l-.117-.462zM426.052 205.398c2.043.682 15.429-6.125 19.06-8.848 3.63-2.723 19.512-16.563 25.864-19.967 6.354-3.403 21.328-10.437 24.278-12.479 2.948-2.042 5.443-3.857 5.897-5.219.454-1.362-1.36-2.269-4.991.454-3.63 2.723-21.101 11.117-25.865 14.294-4.765 3.176-16.335 11.798-21.327 15.882-4.991 4.084-17.469 12.025-19.058 13.159l-1.589 1.135-2.269 1.589zM412.044 193.479c-.631-1.366 2.197-3.586 3.354-4.512 1.156-.926 2.66-2.776 3.471-2.66.809.115.231 2.429 1.156 2.082.926-.348.578-4.627 1.388-4.974.81-.348.694 2.197 1.62 2.429.925.231 3.7-5.668 4.395-5.668.695 0 2.199 4.279 2.546 4.511.347.232.577-7.519 1.388-7.287.81.231 1.156 2.082 1.735 3.008.577.925 1.966 3.701 2.776 3.238.81-.462-1.273-6.131-.694-7.635.578-1.503 2.775-.693 3.007.694.231 1.389 1.158 2.892 1.505 2.43.347-.463.462-8.213 1.618-7.866 1.158.348 1.389 5.553 2.082 6.94.694 1.389 2.43 3.008 2.43 1.851 0-1.156-2.892-6.015-2.776-7.75.116-1.735 1.852-1.735 2.313.116.463 1.851 5.438 8.906 4.743 10.179-.693 1.272-2.429 4.627-4.511 6.016-2.082 1.388-3.472 2.544-3.934.578-.463-1.967-2.545-3.933.926-4.627 3.47-.694 4.858-1.041 3.47-1.619-1.388-.579-2.893-2.43-3.354-3.124-.463-.693-.348.811-1.271 2.198-.926 1.389-3.009 1.156-3.124.231-.116-.926-.115 6.362-1.967 4.858-1.851-1.504-3.934 5.552-6.825 3.701-2.891-1.851-3.817.579-5.899-.693-2.082-1.272-3.123 4.627-4.858 2.892-1.736-1.736-6.016 1.966-6.71.463zM449.175 177.631c-1.041-2.198-3.238-9.37-1.85-9.717 1.388-.347 5.205 6.824 5.667 8.097.463 1.273.117-2.429 1.041-3.354.926-.926-1.157.115-1.272-1.041-.115-1.157-1.966-5.438-.577-5.669 1.388-.23 4.742 3.124 6.014 4.28 1.273 1.157 5.206 4.974 4.744 6.015-.464 1.042-.694 2.083-2.083 1.735-1.388-.347-5.899-5.09-5.899-5.09s3.469 4.05 3.354 5.321c-.115 1.272-.924 2.082-2.312 2.082s-1.619 1.619-2.775 1.504c-1.16-.114-4.052-4.163-4.052-4.163zM466.642 173.698c-.954 1.338-5.899-3.124-7.518-4.396-1.62-1.272-3.587-4.279-2.546-4.974 1.041-.695 2.777 1.157 4.396 2.082 1.62.926 6.824 5.669 5.668 7.288z" stroke="#000" stroke-width=".694"/><path d="M439.575 189.661c1.238-.138 1.619 1.851-1.619 4.512-3.24 2.66-5.784 4.279-6.825 4.857-1.041.578 1.388-3.354 2.892-4.857 1.504-1.505 4.51-4.396 5.552-4.512zM462.594 160.627c-1.342 1.341-2.546 1.966-1.505 2.775 1.041.809 1.273 1.736 2.894 1.273 1.618-.464 1.733.809 1.965 1.966.232 1.157 1.852 5.437 3.702 4.743 1.851-.694.232-4.28-.115-5.206-.347-.925-1.272-5.09-1.735-5.205-.463-.115-1.852-1.966-2.198-1.156-.346.81.81 3.123-.347 3.238-1.157.115-2.198-2.891-2.661-2.428zM471.385 157.388c-1.372.533-.231 3.586.579 5.668.809 2.082 1.85 6.709 4.164 5.437 2.312-1.272 0-5.089-1.041-5.899-1.041-.811-1.62-6.016-3.702-5.206zM476.823 155.189c-1.431.954-1.389 2.082-1.041 3.008.347.926 1.85 4.974 3.006 5.668 1.158.694 1.735.578 2.546.926.81.347 2.892 2.313 2.892.115 0-2.197 1.388-4.742-.115-6.361-1.505-1.62 0-5.321-1.041-5.321s-3.123.115-3.123 1.504c0 1.388 3.585 5.668 2.429 6.131-1.157.462-3.124-2.083-3.934-3.124s-.926-3.008-1.619-2.546zM485.96 153.57c1.851-.925 2.198 1.619 3.123 3.008.926 1.388 3.008 3.239 1.967 4.396s-3.818 2.429-4.28.463c-.463-1.967-.925-3.817-.925-4.858 0-1.041-.579-2.661.115-3.009zM494.404 150.101c1.928.214 3.238 1.041 1.735 2.892s-1.503 2.313-.462 2.776c1.041.462 2.312.23 1.156 1.503s-2.775 2.314-4.28 1.273c-1.503-1.042-3.585-3.934-2.891-5.668.694-1.735 2.66-3.008 4.742-2.776z" stroke="#000" stroke-width=".694"/><path d="M361.22 283.202s-7.694 31.877-5.221 40.396c2.473 8.52 2.198 12.092 2.473 17.589.275 5.495 2.198 11.543 2.748 15.114.55 3.572-2.473 9.343-1.374 13.74 1.1 4.396 2.474 10.717 2.748 14.015.274 3.297 4.672 9.069 5.222 9.894.549.824 5.222 3.022 5.222 3.022l15.113 1.1s5.497-6.596 6.87-13.191c1.374-6.596 3.849-32.977 4.673-37.647.824-4.673.824-10.442.824-14.84s1.373-10.168-.275-13.741c-1.648-3.572 3.022-5.771 1.374-10.717-1.649-4.946-1.099-24.457-1.099-24.457l-39.298-.277z" stroke="#000" stroke-width="2.082" stroke-linecap="round" stroke-linejoin="round"/><path d="M499.262 147.902c-1.572 0-1.735.347 0 1.967 1.735 1.619 3.008 2.082 1.967 3.701-1.041 1.619-.231 2.429.579 2.66.81.231 2.776-.463 2.892-1.734.115-1.272-.117-.694.115-2.893.231-2.197 1.041-6.362-.23-5.437-1.273.926-1.273.81-1.389 2.313-.116 1.504-2.082-.115-2.429-.347-.347-.232-1.042-.23-1.505-.23zM508.979 145.473c.44.441 2.197.578 3.123 2.083.926 1.504 2.892 3.586 1.041 4.627-1.85 1.041-1.733-.001-3.932-.811s-2.661-2.081-2.314-3.354c.347-1.273 1.62-3.008 2.082-2.545z" stroke="#000" stroke-width=".694"/><ellipse cx="380.045" cy="366.179" rx="13.603" ry="1.924" stroke="#000" stroke-width=".694"/><path d="M517.655 143.97c-1.757.175-2.43 1.503-1.619 3.47.81 1.967 2.081 3.123 2.313 3.471.231.347-3.009 1.388-2.776 2.429.231 1.041 3.008-.462 4.858-.462 1.852 0 17.583-5.321 18.855-7.751 1.271-2.429 1.156-2.776 2.197-4.164 1.041-1.389 3.586-6.246 2.197-4.396l-1.388 1.851s-.23-3.817-1.851-2.661c-1.62 1.157-.579 3.471-1.967 4.512-1.388 1.041-3.585-1.041-3.817-1.389-.23-.347-1.039-1.966-1.503-1.041-.462.926-2.197 2.661-.81 3.355 1.389.694 2.545 1.851 1.619 2.66-.925.81-3.124.926-3.701-.347-.579-1.272-.116-4.165-1.852-3.702-1.736.463-3.123 1.389-2.776 2.083.347.693 1.851 1.735.347 1.272-1.503-.463-1.619-3.009-2.429-2.546-.81.464-2.544.348-2.197 2.314.347 1.966.347 2.892 1.388 3.585 1.041.694 2.661.579 4.049.463 1.389-.115-.578 1.389-1.852 1.852-1.271.462-1.734 1.388-3.7.462-1.967-.925-3.472-2.66-3.587-3.123-.115-.463 1.158-2.313.002-2.197z" stroke="#000" stroke-width=".694"/><ellipse cx="379.84" cy="347.479" rx="12.751" ry="1.804" stroke="#000" stroke-width=".694"/><ellipse cx="379.35" cy="358.27" rx="11.902" ry="1.684" stroke="#000" stroke-width=".694"/><path d="M381.893 187.744c4.515-1.128 9.812-3.462 11.543-2.885 1.731.576 11.541 1.153 11.541 1.153l3.463 9.233 2.886 2.309-1.732.577 3.464 13.272-3.464-2.886s5.771 6.348 6.926 12.119c1.153 5.771 6.924 10.387 1.153 8.079-1.1-.44-1.926-.88-2.564-1.312-2.713-1.835-2.024-3.525-4.359-4.459-2.887-1.154 6.924 8.078 6.924 12.118 0 4.039-2.885 6.348-5.771 4.039-2.885-2.308 3.463-1.154 2.886 2.309s2.885 7.502 0 8.656c-2.886 1.154-2.886 7.502-2.886 7.502s5.194 2.886 5.771 7.503c.577 4.615 1.731 6.924-1.731 6.924s5.195 12.119-2.309 6.926l-7.501-5.194v9.233c0 2.885-2.885 2.885-2.885 2.885s-.578 3.462-1.155 6.349c-.577 2.886 2.886 8.079 0 6.348-2.885-1.731-9.232-10.388-9.232-10.388-7.502 4.04-15.004 5.193-16.158 2.309-1.154-2.886 5.192-1.731-2.309-.577-7.502 1.153-4.617 6.925-6.925 6.925-2.309 0-6.926 6.349-7.502 2.885-.577-3.462 2.886-3.462-1.731-8.079-4.616-4.616-6.925-6.924-5.771-10.964 1.154-4.039 5.193-6.348 5.193-6.348l-12.118 8.079s2.885-4.617 3.462-7.502c.577-2.886 1.731-8.079 1.731-8.079s-8.079 3.462-6.925 1.731c1.154-1.731 5.771-8.657 5.771-10.965s-6.348.577-6.348-1.731 2.309-6.925 2.309-6.925l2.886-6.348s-2.309 1.731-2.309-1.731 2.885-7.502 2.885-7.502-8.079 1.154-5.771-1.154c2.309-2.308 2.886-7.502 4.04-9.81 1.154-2.309-2.309-2.886-.577-6.925 1.731-4.04 2.308-5.771 2.308-5.771s-4.039.577-1.73-4.039c2.308-4.617-1.731-5.194 3.462-9.233 5.194-4.039 4.039-7.502 9.233-9.233 5.193-1.731 8.656-2.309 12.695-1.731 4.039.577 6.923 2.885 9.231 2.308z" stroke="#000" stroke-width="2.082" stroke-linecap="round" stroke-linejoin="round"/><ellipse cx="379.351" cy="379.366" rx="13.603" ry="1.923" stroke="#000" stroke-width=".694"/><path d="M368.365 394.773s-.824 0 2.749-1.1c3.572-1.1 4.396-1.1 7.145-1.1 2.749 0 2.748-1.374 4.672-1.648 1.924-.274 3.848 1.924 4.396 2.748.551.824 3.298 1.1 4.122-1.375.824-2.472 2.748-8.52 3.023-11.541.274-3.022 2.473-14.29 3.022-18.412.549-4.121 1.1-14.838 1.375-18.137.273-3.298 3.571-17.312 3.571-14.29 0 3.022-1.099 26.657-2.474 36.824-1.373 10.168-3.297 17.862-4.121 20.885-.825 3.023-4.673 4.671-4.673 7.694 0 3.022-1.647 7.971-2.472 10.168-.824 2.199-4.397 12.365-4.673 10.717-.274-1.648-1.373-5.771-1.373-5.771l-3.023 3.848-2.198-4.672s-1.924 6.597-3.023 4.946c-1.099-1.648-4.946-7.693-5.221-11.541-.274-3.845-2.473-6.045-.824-8.243z" stroke="#000" stroke-width="2.082" stroke-linecap="round" stroke-linejoin="round"/><path d="M380.002 228.412s-2.43.347-3.817 3.123c-1.387 2.776-6.246 13.881-3.817 11.452 2.43-2.43 8.329-10.758 8.329-10.758s.694 2.082 3.817 6.246c3.123 4.164 7.287 6.594 5.899 4.164-1.389-2.429-3.817-6.246-4.512-8.676-.694-2.429-1.735-4.164-3.123-4.858-1.387-.693-2.776-.693-2.776-.693z" stroke="#000" stroke-width=".694"/><ellipse cx="378.741" cy="327.674" rx="11.051" ry="1.563" stroke="#000" stroke-width=".694"/><ellipse cx="379.351" cy="306.918" rx="7.652" ry="1.081" stroke="#000" stroke-width=".694"/><path d="M115.989 207.971c-2.429 0-6.016-.347-7.866.231-1.85.578-1.967 1.734-2.082 3.586-.115 1.851-3.008 1.504-1.62 3.586 1.389 2.082 1.158 3.238 3.817 3.008 2.661-.231 7.056-1.735 8.561-4.049 1.503-2.313 4.975-4.28 3.354-5.553-1.619-1.272-4.28-.347-4.28-.347l.116-.462z" stroke="#000" stroke-width=".694"/><ellipse cx="129.642" cy="245.732" rx="5.205" ry="3.124" transform="rotate(-13.17 129.626 245.676)" stroke="#000" stroke-width=".694"/><ellipse cx="626.141" cy="243.222" rx="5.205" ry="3.123" transform="rotate(-166.83 626.144 243.206)" stroke="#000" stroke-width=".694"/></g></switch></svg>