<svg xmlns="http://www.w3.org/2000/svg" xmlns:dc="http://dublincore.org/documents/dcmi-terms/" height="396" viewBox="0 0 660 396" width="660"><metadata><dc:description>Silhouette of Indarctos, processed by PhyloPic Tools (https://github.com/eweitz/phylopic-tools)</dc:description><dc:source>http://phylopic.org/image/b4a414b8-a109-4d9e-85e8-638ca6541c2d</dc:source><dc:creator>Steven Traver</dc:creator><dc:license>http://creativecommons.org/publicdomain/zero/1.0/</dc:license></metadata><path d="M381 396h-4c-.431-2.236-4.929-.405-7-1h-22c-3.913-1.993-8.336-.676-12-2-.384-.139.017-.946-1-1-2.563-.135-6.861-4.742-9-7-1.583-.083-3.814.48-4-1 .675-1.016.164-3.138 1-4 .639-.658 2.347-.348 3-1 1.363-1.362 2.566-2.855 4-4 .311-.248.715-1.872 1-2 .494-.223 1.569.313 2 0 .85-.616.887-1.402 2-2 1.919-1.03 3.547-2.278 6-2 .729-2.271 3.009-2.991 5-4 9.648-.498 16.476 1.991 25 0 3.125-5.208 10.27-6.397 15-10 .325-5.992-1.339-9.995-3-14-.826-2.826 1.409-2.591 1-5-.4-2.6-2.984-3.016-3-6 1.955-1.443.958-4.374 1-6 .116-4.53.116-8.64 0-14-.023-1.076-.926-.632-1-1-.119-.594 1.144-2.427 1-4-.126-1.373-1.167-2.685-1-6 .169-3.365 1.718-6.858 2-10 .246-2.742.014-5.961 0-9 0 .017-1.165-.176-1-1 .02-.097.92-.245 1-1 .298-2.801-.056-6.203-1-9 .649-1.017 2.299-1.034 2-3-.529-3.804-2.089-6.578-3-10 1.649.365 1.953-.777 2-2 .123-3.231-1.855-7.362 1-10-2.164-1.836-2.105-5.896-2-10 .83-2.503 2.739-3.927 3-7-1.907-1.877-1.81.594-5 0 2.063-2.705-3.436-5.95-4-2 .026-.185 1.416 1.397 0 1 .147.041-1.947-1.942-2-2-.194-.214-.808-1.916-1-2-1.359-.593-1.913 1.026-3 1 .441.011-.754-.938-1-1-2.137-.534-4.265-.456-6-3-2.409-.409-2.174 1.826-5 1 .302-2.635-1.385-3.282-4-3-.598 1.78 2.931 4.153 0 5-.521-1.479-1.479-2.521-2-4-4.686 2.591-6.262-2.743-10-4-.638 2.443-4.675.151-5-1-3.056-.723-3.645 1.022-6 1-1.362-2.305-1.753-5.58-6-5 .372 4.628 4.332 5.669 5 10 .803.584 1.625.972 3 1 .166.004 1.022-1.466 1 0-.354 1.313-1.761 1.573-2 3 2.134 2.77 5.446-1.85 6 2-.013 1.987-2.729 1.271-2 4 3.33.736.86 4.263 1 6 .071.888.97 1.568 1 3-.006-.276-1.623.501-1 1 .864.691.876 2.495 2 5-1.71-.044-2.59.743-3 2 .933 1.067 3.688.312 3 3-.43 1.57-3.146.854-2 4-.854 3.188.871 3.796 2 5-.013 1.987-2.729 1.271-2 4 1.391 1.795 1.497 1.986 2 4-.02-.079-1.66 1.966-1 3 .263.412 2.499-.238 2 1-1.794.127-2.109-1.224-4-1-.001 4.367 3.423 5.905 1 10 1.464.869 3.17 1.497 3 4-2.503-.17-3.131 1.536-4 3 .613 1.387 3.85.15 4 2-2.064 1.936-1.908 6.092-3 9 1.096 1.199 2.314 3.748 3 6 .452 1.487-.58 3.565 0 5 .279.69 2.257.688 2 2-.898 1.768-2.414 2.919-3 5 1.195-1.291 1.714 4.416 1 5-.055.045-1-.037-1 0-.029 2.489 1.892 5.367 0 8 .111 1.889 3.306.694 3 3-2.182-.182-3.182.818-3 3-.306 2.306 2.889 1.111 3 3-.89.776-2.258 1.075-4 1-.788 4.121 4.788 1.879 4 6-.733.934-1.818 1.515-3 2 1.622 3.61-.171 4.841 1 8-.764 2.903-4.739 2.594-4 7-2.037-.383-2.159 1.191-3 2-1.51 1.451-3.29 2.435-5 5-.336.504.008 1.209-1 1-1.722-3.527-1.637 2.887-5 1-.022 2.355 1.723 2.944 1 6-2.729-.729-2.013 1.987-4 2-1.161-.839-2.681-1.319-5-1 .503 3.418-3.381 2.842-5 5-.5.666.309 2.177-1 2-3.218.499-5.142 3.782-8 5-1.298.553-3.247.494-5 1-1.219.352-2.045.867-4 1-3.985.271-9.536-1.627-15-2-7.861-.536-13.274.832-19-1a14.082 14.082 0 0 1-5-5c-3.474-.351-3.796 5.085-7 2-1.094-4.428 1.694-4.973 2-8 3.188-.581 4.006-3.15 6-5 1.75-1.623 3.752-3.801 6-5 1.134-.605 1.981-.477 3-1 4.276-2.196 13.374-3.148 22-3 .464-2.294 2.657-2.221 4-4 .507-.671 1.931-2.693 2-4 .045-.854 1.517-2.214 2-3 1.292-2.1 3.699-5.705 3-11-.201-1.522-.897-1.766-1-3-.135-1.617 1.692-2.241 0-5-.227-1.44-2.984-.349-3-2 .649-12.648-5.604-18.396-6-30-1.757-.91-1.829-3.504-3-5 2.168.169.453-3.547 1-5-.89-.615-1.789-1.209-2 0-.89.615-1.789 1.209-2 0-1.717-2.909-.19-5.999-1-9-.423-1.567-1.755-2.376-2-4-.316-2.096.233-4.577 0-7-.65-1.017-2.299-1.034-2-3v-12c-.898-1.768-2.414-2.919-3-5-.409-2.409 1.826-2.174 1-5-1.167-1.5-2.888-2.445-3-5-.507-4.123-1.603-7.486-3-12-.584-1.889-2.104-4.997-3-7-.208-.465-.943.081-1-1-.037-.704.316-2.384 0-3-.148-.288-1.755.245-2 0-.337-.337.271-1.594 0-2-.487-.73-1.669-1.432-2-2-1.107-1.905.116-5.207-3-5-1.754 3.574-.945 8.027-1 12-.052 3.703-.61 8.322 0 12 .534 3.219 2.993 5.944 4 9 1.035 3.141.422 5.563 2 8-1.57.43-.854 3.146-4 2-.729 2.729 1.987 2.013 2 4-.649.397-2.439-.496-3 0-1.293 1.145 1.386 3.391 1 4-.875 1.38-3.397 1.401-5 3-1.25 1.247-1.034 2.584-3 4-1.069.77-2.984.153-4 1-.326.271.328 1.731 0 2-2.793 2.285-1.634-1.364-5 1-.883.62-.791 1.448-2 2-1.524.696-2.801.508-4 1-.319.131-.179.795-1 1-1.962.49-3.482.988-5 2-.667.444-1.386 1.597-2 2-2.646 1.739-4.642 2.655-6 3-.487.124-2.505-1.141-4-1-.122.012.129 1.871 0 2-.474.474-2.567-1.849-4-2-1.393 1.273-.435 4.898-3 5-1.866-.103-2.944.262-4 1-.884.617-.861 1.622-2 2-1.292.429-1.324-1.555-4 0 .086 1.419.165 2.832-1 3-4.293-.626-6.442.891-8 3-1.907-.426-1.81-2.857-5-2-.956 1.862 2.995 3.342 0 4-1.701-.367-1.887.78-2 2-1.632-1.822-3.071-.35-5 0-2.47.448-6.794.938-8 3-.615 1.052.36 1.689-1 2-.65.148-1.742-1.563-3-1-.083 1.583.481 3.814-1 4-3.235-3.473-5.765 3.473-9 0-1.603 1.73-3.737 2.93-6 4h-7c-1.665 1.583-3.776 2.524-6 4-.558.37.158.939-1 1-1.219.064-1.799 3.23-3 5-.577.556-1.288.546-2 1-.472.301-.742.848-1 1-.666.395-2.265.441-3 1-.327.248.32 1.738 0 2-1.045.855-2.526 1.547-5 2-.632 2.19-.267 2.065-1 5-.2.8-1.083 2.525-2 4-.426.685-1.595 1.384-2 2-1.126 1.716-1.687 3.551-3 5-1.963 2.167-3.323 2.735-5 6-.561 1.092-1.623 2.623-3 4-1.312 1.312-3.571 2.4-7 3-.083 1.583.481 3.814-1 4-2.356.022-2.944-1.723-6-1-2.396-.396.555 4.555-3 3-4.31 1.31-1.239-4.761-5-4-2.251.415.15 5.483-3 5-1.703-1.964-2.335-4.998-5-6 .428 1.611-3.728 3.355-4 1-.689-3.856.834-6.908 2-10 .133-.353-.27-1.779 0-2 1.597-1.307-.279-2.717 1-6 .161-.414.945.04 1-1 .068-1.301 1.818-3.271 3-5 2.342-3.426 4.595-6.595 8-10 2.501-2.502 4.109-3.318 6-7 .369-.718.593-1.207 1-2 .237-.461 1.895-1.653 2-2 .256-.848-.386-2.21 0-3 .328-.671 1.683-1.429 2-2 .204-.366-.307-1.748 0-2 2.512-2.056 4.365-8.665 6-13 .133-.353-.27-1.779 0-2 .693-.567 1.811-2.849 3-5 .291-.526.94.132 1-1 .043-.83 1.415-1.604 1-3 2.993 1.193 4-4.842 7-5 1.475-.078 4.939-4.513 7-6 1.271-.917 2.828-1.215 4-2 .559-.374-.159-.939 1-1 1.295-.068 1.252-1.51 2-2 .363-.238 1.736.322 2 0 1.24-1.516 1.851-1.609 4-3 .555-.358-.156-.939 1-1 .832-.044 4.733-3.565 6-5 1.448-1.641 2.216-4.216 4-6 1.209-1.21 2.486-1.735 4-3 2.716-2.27 6.067-5.798 10-8-.186-2.048 2.892-2.938 3-5 .061-1.15.042-1.789 1-2 .89-.776 2.258-1.075 4-1-.409-2.409 1.826-2.174 1-5 2.462-2.204 6.546-2.787 7-7-2.438-1.291-2.672-.312-2-3 .816-3.263-2.043-.676-3-3-.423-2.09.686-2.647 1-4-.464-.589-1.429-.505-2-1-1.56-1.353-2.021-9.372-2-14-1.763-2.063-3.097-.875-4-2 1.265-6.932-3.265-8.068-2-15-3.807-3.526-6.438-8.229-6-16-.294-2.039-2.706-1.961-3-4 .429-1.904 2.154-2.512 2-5 .296-2.63-3.88-.787-3-4 .29-2.146 1.16-3.032 1-5-.103-1.27-1.663-2.191-2-4-.263-1.413 1.782-2.385 0-5-1.904-1.874-2.512-.109-5 0-.437-1.23-1.28-2.054-3-2-.867-.666-.584-2.925-2-3-.059-.003-3.741-.686-3-3-1.987-1.666-1.271.09-4 0-.777-.89-1.075-2.258-1-4h-5c.826-2.826-1.409-2.591-1-5-5.058.391-6.482-2.851-9-5-3.861 1.571-6.799-.661-11 1-.296.117-.198.8-1 1-2.383.596-2.073 1.208-4 3-.327.304-1.723-.338-2 0-.504.617.313 2.216-1 2h-7c-1.603 1.73-3.737 2.929-6 4-.982-3.066-2.668 1.149-4 1 .81-2.996-2.715-.745-4-1-2.359-.468-4.839-3.27-8-2-9.062 8.272-21.18 13.487-35 17-1.733-1.267-2.62-3.38-6-3-1.02-1.314-.98-3.686-2-5-9.096-1.237-11.881-8.786-17-14-3.061-.606-5.21-2.123-8-3-.138-1.862-.658-3.342-2-4v-1c1.586.913 1.006-2.807 2-4 .272-.326 1.731.328 2 0 3.319-4.057 8.699-9.304 13-14 .675-.738 1.339-1.216 2-2 3.033-3.601 5.338-7.097 8-11 .382-.56.939.161 1-1 .07-1.328 1.924-1.564 2-3 .084-1.599 3.068-5.49 5-7-.142-6.475 2.532-10.134 4-15 .936-2.214 3.373-2.525 5-4 1.535-1.392 2.493-3.572 4-5 .227-.215 1.903-.785 2-1 .175-.388-.299-1.729 0-2 .734-.666 2.261-.38 3-1 1.481-1.242 2.954-3.209 5-4 1.925-5.561 7.043-8.373 11-12 1.073-.984 1.829-2.009 3-3 .29-.246.729-1.878 1-2 .457-.206 1.628.316 2 0 1.814-1.542 2.844-5.191 6-5 3.708-.708 4.292 1.708 8 1 4.619-1.381 6.527-5.473 12-6 1.583.083 3.814-.481 4 1 .443.89.878 1.789 2 2 1.643-2.024 3.344-3.989 7-4-.611.933-2.327 3.689 1 3 4.366 1.366 2.128-3.872 6-3 5.089-1.244 12.226-.441 17-2 1.663 1.076 1.543 1.394 4 2 1.512.374 3.869-.7 4 1 4.678 1.011 3.322-4.011 8-3 2.306-.306 1.111 2.889 3 3 .933-.611 3.689-2.327 3 1 2.224-.611 6.422-.422 8-2 .179-.179 1.293 2.51 4 2 .646-.122 1.122-2.893 3-2-.304 2.333-2.135 4.309 1 5 1.187-2.642 6.128-2.722 5 2 3.872.872 1.634-4.366 6-3 1.04-1.042 4.976 1.031 5 1 .74-.925 1.055-2.316 3-2 .375.061.891 1.297 2 1 1.194-.32 3.968-4.002 5-2 1.021-.471 3.074.614 4 0 .038-.025 1.063-4.171 2-3 .667.834-.008 2.568 2 2-.395.112 1.003-1.002 1-1 2.084-1.39 5.558-1.487 8-3 2.48.52 3.562 2.438 5 4-.363-1.885 2.336-1.189 3-2 .098-.12-.128-.937 0-1 1.875-.922 5.314-1.202 7-2 .483-.229-.096-.942 1-1 1.779-.094 2.127-2.14 5-2 .164 1.677 2.696.406 4 1 .993.452.75 1.832 2 2 3.298 1.44 6.92 1.809 10 3 .411.159-.038.945 1 1 .377.02 2.791-.255 3 0 .098.12-.128.937 0 1 .364.179 1.758-.295 2 0 .655.8-.425 1.925 1 2 .308.016 4.694-.738 7 0 1.28.41.177 1.418 1 2 1.117.79 6.032-.552 9 0 1.156 1.965 3.944 2.178 6 3 .506.203.953.986 1 1 3.134.895 7.53.156 11 1 .222.054.11.953 1 1 1.54.081 1.814.57 3 1 5.451 1.978 13.703 2.781 22 4 1.054.155 2.197.839 4 1 1.608.144 3.423-.327 5 0 .162.034.157.956 1 1 .266.014.756-.098 1 0 1.297.519 2.033.267 5 1 .229.057.105.953 1 1 3.725.196 9.808.457 16 1 3.544.311 6.992 1.964 10 2 2.301.027 4.708-1.346 9-1 2.772.224 5.682 1.433 9 2 2.729.466 6.145.536 9 1 .08.013.221.959 1 1 .977.051 2.033-.141 3 0 3.259.475 8.438.929 13 2 .485.114 1.5.682 2 1 1.274.813 2.814.171 6 1 .249.065.09.952 1 1 .266.014.756-.098 1 0 1.312.525 2.714.397 6 1 .119.022.19.958 1 1 .977.051 2.033-.141 3 0 3.96.578 12.171.537 17 2 4.045 1.226 7.821 3.661 12 5 2.067.663 4.952.404 7 1 .11.032.348.837 1 1 1.941.485 3.978.651 6 2 1.916 1.277 6.658 2.683 10 4 4.135 1.63 7.707 4.234 12 4 1.799 2.573 4.558 2.837 7 4 .485.231-.098.942 1 1 .266.014.756-.098 1 0 .684.273.724.887 1 1 2.525 1.036 3.535 1.483 6 3 1.398.861 3.041 2.437 5 4 1.271 1.015 2.652 1.984 4 3 .972.733 2.092 2.323 3 3 .915.683 2.207.261 3 1 .507.472 1.885 3.889 4 4 2.279.12 5.142 4.933 7 7 1.961.111 3.474 1.139 5 2 .992.56 1.237 1.468 2 2 .36.251 1.732-.327 2 0 .491.6 2.76 2.935 4 3 .854.045 2.215 1.517 3 2 1.75 1.077 4 3.366 6 6 .764 1.006 1.229 1.97 2 3 .646.863 1.368 1.259 2 2 .678.795 2.42 1.17 3 2 .674.965.32 2.136 1 3 .648.824 2.417 1.167 3 2 .62.888.547 2.127 1 3 1.082 2.083 1.014 4.703 2 7 .735 1.712 2.489 2.959 3 5 .319 2.348 1.58 3.753 1 7 .677 2.323 3.323 2.677 4 5-1.043 2.833-1.043 4.167 0 7 .891.443 1.788.878 2 2 .615.89 1.209 1.789 0 2-1.555-1.886-3.896 1.435-6-1-.805-.529-1.623-1.043-3-1 .368 1.701-.78 1.887-2 2-1.216-3.117-2.705-5.961-8-5 .424-2.09-.686-2.648-1-4 .551-2.051-1.909-2.386-2-1 2.692.381-.82 1.286-1 3-.23 2.197.998 2.567 1 4 .005 4.032-.422 10.493 1 14 .177.436 1-.084 1 1 0 .652-.97 1.203-1 1 .615 4.148 1.082 7.674 0 12-.501 2.004.676 2.547 1 5 .506 3.834.914 4.758 3 8-.406 1.927-3.877.79-3 4 2.334 1.666 2.568 5.432 4 8 .745 3.078-2.745 1.922-2 5 .311 2.03 2.431 1.722 3 4 .441 1.764-.011 6.323 1 9 .572.905 4.124 3.681 2 4-.58 3.246.681 4.652 1 7 3.33 2.003 6.645 4.022 11 5-.109 2.487-1.874 3.096 0 5 3.675.325 5.533 2.467 9 3 1.369 2.631 4.21 3.79 5 7 1.685 2.315 5.547 2.453 7 5-4.895 2.799 3.014 3.189 2 4-.606.485-1.068.857-1 2 1.503 1.497 4.211 1.789 5 4-.541 3.541 3.541 2.459 3 6 1.064 1.936 4.606 1.394 6 3v5c2.772 2.228 7.4 2.6 9 6 1.111 1.926 1.84 4.104 3 6 .599.979 1.407 1.225 2 2 .935 1.223 1.267 3.675 3 5 .597.456 2.429.44 3 1 1.584 1.553 1.65 3.625 3 5 2.748 2.8 5.886 4.83 8 8 .973 1.459 1.207 3.271 2 5 .222.484 1.892 1.641 2 2 .576 1.905.111 2.666 1 4 1.676 2.514 4.111 8.266 3 15-.267 1.613-2.4 4.604-3 7-.511 2.043-.618 5.435-2 8-.356.661-1.675 1.424-2 2-1.794 3.18-2.051 5.635-5 8-1.043.837-2.873.985-4 2-.322.291.334 1.728 0 2-1.549 1.267-4.002 2.091-6 4-6.195 5.92-8.014 10.024-15 12-4.295 1.215-9.38.355-17 1-2.213.188-5.136 1.063-7 1-1.257-.043-2.964-.784-5-1-1.637-.174-3.376.257-5 0-.071-.012-.228-.959-1-1-.266-.014-.756.098-1 0-.26-.104-1.308-1.031-1-1-1.977-.203-5.783 3.41-5-2-3.319-1.537-3.778 4.732-6 1-.811-6.811 4.465-7.535 7-11 2.248-1.222 2.768-3.562 4-5 1.679-1.96 2.247-2.701 5-4 4.251-2.006 9.05-2.392 16-2 2.507-.826 3.163-3.503 5-5 .354-1.313 1.761-1.572 2-3 2.888-2.445 1.798-8.869 2-14-.577-.556-1.288-.546-2-1-.979-.624-1.571-.643-3-1-1.373-.343-3.888-3.806-7-4 .424-2.09-.686-2.647-1-4-4.353-1.428-4.598 3.418-7 1 .688-2.688-2.067-1.933-3-3 .424-2.09-.686-2.647-1-4-3.528 1.934-4.472-.469-8-1-.364-1.574-1.999-2.083-3-3-.982-.899-1.919-2.171-3-3-2.348-.986-4.913-1.754-8-2 .381-4.715-5.799-2.868-6-7-3.156-.489-3.531 1.802-7 1-.884-2.677-3.224-3.749-5-6-1.436-1.819-2.172-4.29-4-6-.326-.305-1.723.339-2 0-.649-.794-.18-2.425-1-3-.663-.465-2.26.351-3 0-.475-.225-2.053-3.897-4-4-1.692-.089-1.158-1.918-3-3-.257-2.077-4.394-.273-5-2-.057-3.61-2.493-4.841-3-8-1.332-2.452-3.019 1.802-4-1-1.165-1.791-2.418-3.134-4-5-1.182-1.394-2.97-2.653-4-4-1.564-2.044-1.773-3.965-3-6-.446-.741-1.447-1.045-2-2-2.709-4.68-8.188-10.905-14-14 1.121-1.978-1.35-3.029-2-4-.243-.362.324-1.735 0-2-1.648-1.349-4.546-1.016-9-1-2.716-.716.716 4.716-2 4-1.331 1.46-3.689 1.698-5 3-1.174 1.166-.906 3.756-3 4-1.889-.111-.694-3.306-3-3-1.546 1.454-.881 5.119-1 8-2.487-.109-3.096-1.874-5 0-1.026.495-.395 2.026-1 3-.556.895-1.752.825-2 2-.279 2.055-2.671 1.996-4 3v5c1.258.247 1.009 1.988 0 2-2.458 2.537-2.605 9.301-1 13-2.853 1.962-1.699 8.128-4 12-.24.404-1.845.655-2 1-.45.999 1.438 2.649 1 3-2.097 1.678-2.304 2.311 0 5-1.912.421-4.305.362-4 3v5c-1.818.16-1.406 2.959-2 4-.597 1.047-2.339 1.012-2 3-.044 6.29-.539 12.128-4 15-1.151 1.182-1.132 3.535-1 6-1.944.91-2.859 3.3-4 5-.668.995-.263 2.157-1 3-.296.339-1.679-.321-2 0-.308.308.186 1.586 0 2-1.455 3.241-1.813 6.738-3 11-.084.304-1 .017-1 1 0 1.794 1.499 1.436 0 3-1.965 2.052-.772 7.625-2 12-.138.491-1.832.628-2 1-.631 1.398.188 3.911-1 6-3.146.315-4.334 3.359-7 5-2.473 1.522-7.996 4.285-13 5-5.152.736-11.73-.345-18 0-1.583.087-3.814-.483-4 1z" fill-rule="evenodd"/></svg>