<svg xmlns="http://www.w3.org/2000/svg" xmlns:dc="http://dublincore.org/documents/dcmi-terms/" height="494.78" width="663.718"><metadata><dc:description>Silhouette of Indricotheriinae, processed by PhyloPic Tools (https://github.com/eweitz/phylopic-tools)</dc:description><dc:source>http://phylopic.org/image/801dde9e-7af3-4cb9-947c-e993e5f2cd8c</dc:source><dc:creator>Zimices</dc:creator><dc:license>http://creativecommons.org/licenses/by-nc/3.0/</dc:license></metadata><path d="M232.182 493.593c-.66-.66-1.2-1.726-1.2-2.368 0-.643-1.865-1.419-4.144-1.725-8.999-1.207-7.54-9.815 2.46-14.516 2.399-1.127 5.062-3.119 5.918-4.425 3.014-4.6 4.953-22.804 4.29-40.266-.96-25.227-1.11-97.58-.212-102 .74-3.646.68-3.836-.683-2.151-.822 1.017-2.428 4.921-3.568 8.676-2.785 9.17-8.766 23.006-11.012 25.475-1 1.1-2.134 3.036-2.518 4.303-.385 1.266-2.141 4.866-3.904 8-1.763 3.133-3.824 7.272-4.58 9.197-.757 1.925-1.925 4.175-2.595 5-.67.825-3.072 5.55-5.338 10.5s-5.243 11.025-6.616 13.5c-7.34 13.23-10.549 20.918-11.495 27.532-2.505 17.496-3.34 19.693-8.131 21.363-4.341 1.513-8.825 1.386-13.872-.395-2.338-.825-5.445-1.5-6.903-1.5-3.976 0-7.097-2.628-7.097-5.974 0-2.982 1.097-3.816 11.692-8.896 3.413-1.636 4.367-2.716 5.136-5.82.52-2.095 1.919-7.86 3.11-12.81 1.19-4.95 3.659-12.375 5.486-16.5s4.335-10.2 5.573-13.5c1.238-3.3 3.382-8.464 4.763-11.476 1.499-3.267 2.871-8.714 3.401-13.5 2.755-24.877 7.94-45.492 16.103-64.024 2.18-4.95 5.103-12.375 6.494-16.5s3.365-8.573 4.386-9.885c2.497-3.209 2.404-10.253-.235-17.709-1.998-5.646-3.036-11.457-4.808-26.906-.441-3.85-1.49-8.813-2.33-11.029-3.365-8.88-10.18-21.192-13.822-24.971-2.12-2.2-6.16-8.275-8.979-13.5-2.818-5.225-7.27-11.75-9.891-14.5-4.453-4.671-6.67-7.893-13.164-19.118-1.421-2.457-5.267-7.486-8.546-11.175-3.279-3.689-7.278-8.507-8.888-10.707-1.61-2.2-5.524-6.827-8.7-10.283-3.175-3.455-6.641-7.955-7.701-10-1.06-2.044-6.124-8.166-11.254-13.603l-9.326-9.886-11.388-1.302c-6.263-.716-11.866-1.78-12.45-2.364-.584-.584-3.437-1.062-6.34-1.062-3.19 0-7.902-.988-11.918-2.5-5.985-2.253-8.1-2.5-21.356-2.5-22.02 0-30.048-2.288-30.048-8.564 0-1.704.755-2.773 2.403-3.4 1.321-.502 2.698-1.39 3.059-1.974.992-1.606-3.648-1.236-5.903.47-2.938 2.222-9.788 1.862-13.026-.685-2.6-2.045-2.718-2.507-2.376-9.284.343-6.793.573-7.38 4.851-12.367 5.803-6.763 10.34-9.721 16.28-10.612 2.634-.395 7.317-1.588 10.407-2.651 4.836-1.664 8.458-1.933 26.011-1.933 17.536 0 20.842-.245 23.594-1.75 2.467-1.35 5.881-1.789 14.914-1.919 6.442-.092 12.145-.435 12.673-.761.527-.326 1.257-1.949 1.62-3.605.365-1.657 1.698-4.244 2.963-5.747 1.266-1.504 3.007-4.425 3.87-6.49 1.765-4.224 3.966-5.55 6.173-3.717 1.115.925 1.487 3.492 1.487 10.266v9.032l8.104 7.595c4.458 4.178 9.975 8.496 12.26 9.596 4.958 2.386 24.471 18.383 37.407 30.665 11.902 11.301 18.093 15.83 28.395 20.772 8.333 3.998 24.385 13.484 27.619 16.321.943.828 2.84 1.842 4.215 2.253 1.375.411 4.622 1.815 7.217 3.118 4.512 2.268 5.637 2.372 26 2.406 23.105.038 23.265.061 49.283 7.026l16 4.283 27 .03c15.75.018 33.25-.558 42-1.381 9.89-.93 28.624-1.425 55-1.452 36.71-.038 40.617.121 47.5 1.934 10.658 2.806 39.913 17.825 50.22 25.78 4.583 3.538 11.143 7.693 14.578 9.235 6.668 2.992 16.237 12.159 30.95 29.647 3.869 4.6 8.913 10.163 11.209 12.363 2.295 2.2 5.105 5.647 6.243 7.661 2.469 4.37 5.675 6.832 11.967 9.191 2.567.963 6.714 3.551 9.215 5.753 3.698 3.255 4.898 3.815 6.424 2.999 2.946-1.577 9.398 3.187 9.112 6.727-.119 1.468.129 3.922.55 5.454.654 2.377.247 3.29-2.785 6.234-3.286 3.192-3.929 3.417-8.638 3.02-5.436-.456-10.04-3.799-11.48-8.332-.984-3.102-14.938-17.04-21.014-20.991-6.484-4.216-7.149-4.357-18.964-4.008l-9.913.292-2.294 4c-1.261 2.2-2.32 5.575-2.354 7.5-.129 7.414-2.955 20.662-5.333 25-1.356 2.475-3.192 6.75-4.078 9.5-1.089 3.376-3.441 6.949-7.243 11-5.01 5.34-16.372 19.225-16.372 20.008 0 .166-.675 6.094-1.5 13.174-.825 7.08-1.604 19.16-1.73 26.845l-.23 13.973 4.211 10.84c2.316 5.962 5.738 12.937 7.603 15.5 1.866 2.563 3.671 5.566 4.011 6.672.34 1.107.813 14.382 1.05 29.5.236 15.119.753 31.637 1.148 36.709.71 9.094.687 9.234-1.672 10.159-1.315.515-3.174 1.878-4.131 3.029-1.315 1.579-3.028 2.135-7 2.27-10.822.366-14.718-.241-17.405-3.364-2.975-3.459-2.973-5.923.01-9.488 1.526-1.825 5.414-5.243 6.174-9.644.648-3.749 1.12-9.053 2.197-11.787 1.077-2.733.252-6.64.235-8.683l-.032-3.713-2.433 3c-6.363 7.845-7.283 9.167-7.999 11.5-.422 1.375-2.382 5.65-4.355 9.5-3.525 6.877-3.598 7.258-4.12 21.716-.602 16.719-.973 17.564-8.127 18.524-2.95.396-4.983 1.363-6.25 2.975-2.602 3.307-9.648 2.962-11.153-.545-.857-1.995-1.51-2.25-4.555-1.77-4.42.697-7.945-1.507-7.945-4.967 0-2.305 1.038-3.621 5.26-6.664.969-.698 3.055-4.644 4.637-8.77 1.581-4.124 4.263-10.65 5.96-14.5 1.696-3.85 4.709-11.5 6.696-17s4.35-11.124 5.252-12.5c.902-1.374 2.665-4.681 3.917-7.348 2.141-4.56 2.278-6.092 2.278-25.64 0-16.703-.384-22.653-1.95-30.263-3.56-17.304-6.655-23.354-22.05-43.096-6.71-8.605-8.28-10.015-14.908-13.385-6.67-3.391-8.166-3.764-15-3.735-5.621.024-9.41.702-14.592 2.61-3.85 1.417-9.621 2.872-12.824 3.234-3.203.363-7.478 1.36-9.5 2.216-3.228 1.367-11.783 1.522-70.176 1.267-75.377-.33-70.229-.884-73.513 7.926-.967 2.593-2.772 6.965-4.013 9.715-7.697 17.064-13.453 52.396-13.501 82.866-.027 16.916-.066 17.223-3.1 24.134-2.695 6.139-3.204 8.809-4.135 21.699-.905 12.523-.816 16.179.6 24.704 1.78 10.72 2.078 16.928.896 18.697-1.5 2.247-5.269 3.4-11.11 3.4-3.303 0-6.285.45-6.624 1-.883 1.428-13.842 1.259-15.3-.2z"/></svg>