<svg xmlns="http://www.w3.org/2000/svg" xmlns:dc="http://dublincore.org/documents/dcmi-terms/" height="100.208" version="1.2" viewBox="0 0 130.343 100.208" width="130.343" overflow="inherit"><metadata><dc:description>Silhouette of Indriidae, processed by PhyloPic Tools (https://github.com/eweitz/phylopic-tools)</dc:description><dc:source>http://phylopic.org/image/8d29eeb3-bff6-4488-99d8-5faaf7f8ec4b</dc:source><dc:creator>Terpsichores</dc:creator><dc:license>http://creativecommons.org/licenses/by-sa/3.0/</dc:license></metadata><path d="M21.212.002c1.76.082 3.744.965 4.748 1.896 1.656 1.534 3.047 1.54 4.314 3.369 1.885 2.722.32 4.224 3.137 6.062 5.477 3.57 15.953 3.989 20.916 8.246 2.984 2.559 5.639 5.469 8.062 8.562 2.104 2.683 3.83 5.657 5.562 8.594 1.359 2.303 3.131 4.469 3.781 7.062.738 2.938-.057 6.063 0 9.094.043 2.273-1.037 4.937.25 6.812 1.814 2.643 5.686 3.27 8.844 3.812 3.824.656 7.766.395 11.625 0 3.637-.372 7.467-.973 11.096-1.398 3.527-.413 6.848-1.464 10.373-1.883 2.365-.282 4.703-.709 7.062-1.031 1.936-.265 3.879-1.019 5.812-.75 1.27.176 3.338.264 3.531 1.531.234 1.533-2.166 2.259-3.531 3-2.621 1.423-5.785.481-8.719 1.016-4.486.816-8.986 1.907-13.5 2.547-3.236.458-6.619.666-9.869 1.004-4.02.419-7.814 1.203-11.85.996-2.451-.127-4.98-.085-7.344-.75-2.064-.582-3.637-2.874-5.781-2.781-1.658.07-2.785 1.881-4.312 2.531a26.063 26.063 0 0 1-6.312 1.781c-3.498.522-7.262-.938-10.594.25-1.809.645-3.629 1.853-4.562 3.531-1.562 2.811-.832 6.381-1 9.594-.162 3.109.164 6.232 0 9.344-.084 1.605.551 3.562-.5 4.781-1.531 1.781-4.479 1.516-6.812 1.781-3.096.352-6.352.621-9.344-.25-.648-.189-1.572-.397-2.344-.688-2.117 1.113-4.846.789-7.25 1.188-2.432.402-4.885.83-7.344 1-.84.058-2.18.764-2.531 0-.324-.705 1.877-1.056 1.531-1.75-.602-1.209-2.682.286-4.031.25-1.439-.04-4.139.93-4.312-.5-.345-2.855 5.319-2.272 8.095-3.03 2.805-.767 5.799-.735 8.594-1.531.436-.125.969-.146 1.25-.5 3.398-4.266 1.623-10.78 2.531-16.156.785-4.641.006-9.937 2.531-13.906 1.719-2.7 4.973-4.059 7.812-5.531 4.043-2.096 11.225-2.853 15.188-5.094.633-.358-1.922-4.363-2.129-5.438-.43-2.227.793-3.564-.215-5.594-.219-.44-2.768.812-3.25.719-3.717-.729-5.938 4.718-9.094 6.812-1.949 1.293-4.445 1.842-6.062 3.531-1.25 1.305-1.754 3.18-2.531 4.812-.826 1.735-2.014 2.716-2.965 4.388-.564.995.465.695-.602.281-1.992-.772-2.705 1.645-3.711-.71-.912-2.141.359-2.13-.387-2.745-1.66-1.367.324-2.884 1.883-4.526 2.459-2.592 5.037-5.037 7.562-7.562 1.264-1.264 4.662-2.229 3.781-3.781-1.881-3.323-7.807.838-11.094 2.781-1.385.817-6.42 4.764-7.746 5.674-1.494 1.025-.785.4-2.562.035-1.049-.215-.338-1.357-.316-2.428.061-2.979 4.166-4.296 6.562-6.062 2.977-2.193 6.662-3.311 9.594-5.562 3.021-2.321 6.637-4.574 8.094-8.094.742-1.789.914-4.074 0-5.781-1.002-1.873-3.32-2.822-5.312-3.562-1.908-.711-4.221.118-6.062-.75-1.885-.889-2.717-2.382-4.531-3.406-1.369-.773-3.316-1.196-4.562-2.156-.926-.715-1.988-1.887-1.75-3.031.318-1.533 2.695-1.623 3.781-2.75 1.977-2.051 2.479-4.811 4.969-6.192.718-.401 2.796-1.056 3.852-1.008zm9.616 72.854c-1.73 2.33-1.719 5.525-2.531 8.312-.611 2.098-1.377 4.158-1.75 6.312-.15.868-.168 1.764-.156 2.656 1.758-.023 3.5.537 5.188 1.156 1.75.641 3.902 2.969 5.312 1.75 1.812-1.566-.902-4.693-1.25-7.062-.43-2.935-.861-5.884-1.031-8.844-.129-2.27 2.004-5.74 0-6.812-1.726-.011-2.784.999-3.782 2.532zm-4.782 21.969c-.092.295-.217.578-.344.875 1.203.244 2.379.412 2.844-.375.461-.781-.285-1.974-1-2.531-.311-.244-.711-.329-1.156-.344-.029.802-.103 1.609-.344 2.375z" fill="#010101"/></svg>