<svg xmlns="http://www.w3.org/2000/svg" xmlns:dc="http://dublincore.org/documents/dcmi-terms/" height="792" version="1.2" viewBox="0 0 612 792" width="612"><metadata><dc:description>Silhouette of Inia geoffrensis, processed by PhyloPic Tools (https://github.com/eweitz/phylopic-tools)</dc:description><dc:source>http://phylopic.org/image/f36c9daa-a102-42dd-88ac-a126753943d2</dc:source><dc:creator>Chris huh</dc:creator><dc:license>http://creativecommons.org/licenses/by-sa/3.0/</dc:license></metadata><path d="M236.6 397c.066-.1.184-.167.35-.2.167-.066.417-.1.75-.1l3.25-.05 1.101.1c.466.033.917.1 1.35.2.467.066.9.167 1.3.3.434.1.867.233 1.301.4.399.133.8.3 1.199.5l1.75.8 9.45-4.4c1.067-.533 2.116-1.05 3.15-1.55a63.763 63.763 0 0 0 3-1.55c1-.534 1.983-1.05 2.95-1.55.934-.533 1.85-1.066 2.75-1.6a453.63 453.63 0 0 0 2.6-1.65c.867-.533 1.7-1.066 2.5-1.6.8-.566 1.566-1.117 2.3-1.65a70.505 70.505 0 0 0 2.15-1.65c.7-.533 1.366-1.083 2-1.65a44.173 44.173 0 0 0 1.8-1.6c.3-.267.584-.517.85-.75.268-.267.533-.483.801-.65.266-.2.5-.367.699-.5.234-.133.417-.217.551-.25.266-.1.633-.167 1.1-.2l8.4.55 16.899-.35a15.76 15.76 0 0 1 1-.1l44.15 1.35c.566.033.933.066 1.1.1.366.066.717.2 1.05.4.367.167.7.383 1 .65.301.267.584.566.851.9.267.3.483.633.649 1 .2.367.351.733.45 1.1.101.367.15.75.15 1.15 0 .167.05.367.149.6.134.2.301.417.5.65.2.233.434.45.7.65.3.2.616.4.95.6.3.133.617.267.95.4l1.1.4c.4.1.817.2 1.25.3.467.1.95.2 1.45.3l11.75 1.15c.5.033.934.1 1.3.2.366.067.684.133.95.2.566.167.967.4 1.2.7.233.267.333.6.3 1a.82.82 0 0 1 0 .4c-.033.1-.084.2-.15.3-.066.1-.166.2-.3.3-.1.067-.233.15-.399.25a6.988 6.988 0 0 1-1.2.45c-.233.066-.5.133-.8.2l-18.851.95-1.8.25c-.666.133-1.35.283-2.05.45-.667.167-1.351.35-2.05.55-.7.2-1.384.417-2.051.65-.666.233-1.35.5-2.05.8-.667.267-1.333.55-2 .85-.667.3-1.316.634-1.95 1-.633.333-1.266.683-1.899 1.05-.601.367-1.2.75-1.8 1.15l-1.551 1c-.5.3-.982.583-1.449.85a58.03 58.03 0 0 1-1.351.75l-1.3.6-1.3.5c-.434.134-.866.268-1.3.4-.434.132-.884.25-1.351.35-.466.101-.95.2-1.45.301l-2.199.35-.15.2-1.8 2c-.434.533-.9 1.05-1.4 1.55-.5.5-1.017 1-1.55 1.5-.533.467-1.084.916-1.65 1.35l-1.699 1.2c-.566.4-1.15.767-1.75 1.101-.566.3-1.134.583-1.7.85-.534.267-1.083.5-1.65.7-.533.2-1.05.35-1.55.45-.566.133-1.05.232-1.45.3-.333.033-.634.05-.899.05h-.101c-.267 0-.5-.033-.7-.1-.166-.101-.35-.217-.55-.351l-.35-.3a2.588 2.588 0 0 1-.15-.25c0-.066.034-.166.101-.3l1.399-1.851c.101-.133.233-.3.4-.5l1.649-3.149c.101-.2.134-.351.101-.45.033-.1.033-.166 0-.2l-.05-.05h-.25c-.167 0-.467.033-.9.1l-1.95.351c-.899.167-1.833.316-2.8.45a81.37 81.37 0 0 1-2.8.35c-.9.1-1.817.184-2.75.25-.934.066-1.85.117-2.75.15l-5.15-.051c-.833-.066-1.634-.133-2.399-.199a24.358 24.358 0 0 1-2.2-.301l-6.65-1.05c-.933-.134-1.8-.233-2.6-.3-.767-.1-1.483-.166-2.15-.2l-2.149-.1c-.5 0-.984.017-1.45.05-.5.033-1.034.084-1.601.15-.533.066-1.066.149-1.6.25-1.1.199-2.2.366-3.3.5-1.067.133-2.15.25-3.25.35-.667.033-1.366.066-2.101.1-.699.033-1.399.051-2.1.051l-2.2-.051a55.454 55.454 0 0 1-3.25-.199 570.877 570.877 0 0 0-3.25-.4 61.161 61.161 0 0 1-3.25-.6c-1.1-.234-2.216-.484-3.35-.75l-3.05-.75-2.551 1.199c-.666.301-1.366.601-2.1.9-.7.267-1.434.55-2.2.85-.767.234-1.533.484-2.3.75l-2.3.7c-.733.2-1.467.384-2.2.55-.7.134-1.383.268-2.05.4-.634.133-1.233.233-1.8.3-.566.034-1.084.067-1.551.101-.467 0-.85-.018-1.149-.051-.3-.066-.55-.133-.75-.199-.167-.066-.267-.167-.3-.301a1.262 1.262 0 0 1 0-.5 2.53 2.53 0 0 1 .3-.449c.2-.167.417-.351.649-.551.268-.199.566-.416.9-.649l1.1-.7c.4-.233.801-.434 1.2-.6.167-.101.351-.217.55-.351l2.301-1.75c.467-.433.934-.816 1.399-1.149.434-.367.866-.7 1.3-1 .4-.301.801-.566 1.2-.801.434-.266.851-.5 1.25-.699.233-.101.417-.2.55-.301.134-.1.234-.199.301-.3a.62.62 0 0 0 .1-.35c.033-.167.05-.366.05-.601 0-.232-.017-.434-.05-.6a1.816 1.816 0 0 0-.15-.45 1.95 1.95 0 0 0-.3-.5c-.134-.167-.3-.35-.5-.55a4.375 4.375 0 0 1-.85-1.15c-.067-.199-.083-.366-.05-.5.001-.166.034-.284.101-.35z" fill="#010101" fill-rule="evenodd"/></svg>