<svg xmlns="http://www.w3.org/2000/svg" width="3200" height="2400" viewBox="0 0 3200 2400"><path d="M2740.603 1949.103c-5.695-1.778-9.588-4.644-11.722-8.632-1.052-1.965-.92-2.253.74-1.615 1.112.426 2.021.23 2.021-.436s-.497-1.21-1.104-1.21c-1.725 0-2.93-4.807-3.759-15l-.762-9.376-3.75.44c-5.676.666-8.618 2.69-14.175 9.754-7.46 9.481-19.795 15.437-31.93 15.416-9.085-.015-21.345-2.56-23.706-4.92-.919-.92-.017-1.327 2.999-1.354 4.07-.037 4.172-.14 1.812-1.818-4.559-3.243-8.344-7.443-12.634-14.02-6.963-10.677-4.995-14.176 3.09-5.495 6.876 7.38 16.449 12.677 24.395 13.497 6.632.685 6.913.582 11.908-4.364 7.8-7.722 6.778-9.774-3.815-7.66-16.345 3.26-29.867-.094-35.804-8.88-2.457-3.636-2.81-5.55-2.5-13.564.202-5.252.95-9.526 1.708-9.777.742-.245 2.255 2.815 3.363 6.8 2.8 10.071 6.639 13.445 15.298 13.445 7.513 0 11.851-2.453 16.553-9.362 4.638-6.813 3.433-12.315-6.325-28.895-4.223-7.176-9.187-21.599-10.983-31.912-.82-4.708-2.883-10.231-5.164-13.828-4.512-7.115-17.799-23.516-22.215-27.421-3.513-3.106-17.975-9.644-25.733-11.633-5.92-1.518-18.133-9.113-23.828-14.82-2.165-2.169-6.895-8.88-10.511-14.911-9.505-15.857-15.35-23.038-31.33-38.49-7.823-7.563-17.618-17.402-21.768-21.864-22.973-24.706-52.092-46.243-88.705-65.607-7.563-4-16.844-9.05-20.625-11.221-3.781-2.172-13.625-6.991-21.875-10.71-14.686-6.618-30.604-16.421-39.426-24.279-4.366-3.89-37.265-28.924-51.193-38.956-3.94-2.837-9.35-5.865-12.022-6.729-2.672-.863-10.765-5.263-17.984-9.776-17.51-10.948-24.631-14.322-38.75-18.362-26.395-7.551-35.53-8.422-51.875-4.943-4.812 1.025-15.486 2.998-23.719 4.385-11.754 1.98-18.331 3.956-30.625 9.204-8.61 3.675-17.062 7.103-18.78 7.617-3.437 1.028-24.149 13.58-28.126 17.044-3.967 3.456-9.335 5.189-18.812 6.073-7.736.722-9.67 1.457-15.847 6.02-4.199 3.101-7.197 6.316-7.438 7.973-.527 3.632-12.683 12.947-19.153 14.677-6.61 1.767-10.977 5.23-9.955 7.892 1.001 2.61 5.496 3.137 14.673 1.72 3.97-.614 7.566-.768 7.99-.344 1.35 1.35-5.017 5.613-10.449 6.998-7.217 1.839-10.94 1.682-18.789-.792-5.394-1.7-7.232-1.826-9.155-.625-4.604 2.875-15.31 1.832-23.065-2.248-3.92-2.062-8.27-3.75-9.666-3.75-4.2 0-28.644 15.718-35.951 23.118-5.953 6.027-6.826 7.544-6.826 11.857 0 6.939 5.894 12.782 19.318 19.152l10.625 5.041-5.256 1.103c-4.383.92-6.578.575-13.223-2.083-4.382-1.753-9.082-3.188-10.444-3.188-2.935 0-9.836-6.433-12.568-11.716-2.345-4.534-1.612-14.783 1.485-20.771 2.716-5.253 13.15-15.458 23.018-22.513 13.21-9.444 18.576-15.75 21.388-25.134 3.702-12.354 3.346-16.512-1.813-21.207-5.83-5.305-8.387-12.284-9.142-24.949-1.187-19.92 5.927-39.945 23.893-67.252 11.925-18.125 14.22-22.746 17.646-35.521 1.244-4.642 3.023-9.07 3.952-9.84 3.615-3.002.082-9.847-5.082-9.847-2.76 0-16.915-6.501-22.386-10.282-2.262-1.563-9.706-8.98-16.54-16.48-6.836-7.502-14.05-14.629-16.032-15.838-5.029-3.07-18.723-18.908-23.188-26.82-4.699-8.326-13.1-15.582-28.17-24.33-6.514-3.78-18.469-12.3-26.566-18.932-25.245-20.675-28.86-23.45-37.175-28.54-12.842-7.859-21.858-12.065-37.212-17.36-17.452-6.017-32.64-8.118-53.604-7.414l-15.48.52-10 5.44c-5.5 2.993-12.471 7.422-15.49 9.843-5.512 4.419-16.171 8.177-19.533 6.887-1.062-.407-4.71 1.903-8.893 5.631-10.335 9.212-14.02 10.646-27.577 10.73-11.232.07-11.587.162-15.685 4.133-2.305 2.234-4.832 4.062-5.614 4.062-.781 0-2.81.529-4.508 1.174l-3.088 1.174 2.551 5.156c1.471 2.972 2.082 5.61 1.444 6.229-.61.59-5.09 2.454-9.956 4.144-9.128 3.168-19.277 8.826-19.277 10.745 0 2.52 6.472 5.13 12.769 5.147 7.574.023 10.821 1.332 8.228 3.32-5.308 4.067-11.229 4.726-23.949 2.664-4.673-.758-5.39 3.317-2.186 12.43 6.705 19.073 10.185 21.096 27.326 15.881 3.485-1.06 3.598.6.324 4.762-1.883 2.394-4.392 3.49-10.313 4.505-10.002 1.714-16.648.272-20.413-4.43-4.109-5.132-12.46-22.383-14.891-30.76-2.081-7.172-5.792-12.14-9.068-12.14-.935 0-3.48-.92-5.654-2.045-3.696-1.911-4.4-1.892-10.875.29-8.903 3-16.845 10.853-22.34 22.09-3.679 7.523-3.985 8.921-2.761 12.628.757 2.293 2.717 5.428 4.355 6.968 4.382 4.116 18.409 8.818 26.306 8.818 8.354 0 9.849 1.915 3.55 4.546-4.816 2.013-18.226 1.863-25.306-.282-2.493-.755-2.884-.551-2.227 1.16 1.66 4.325-7.307 1.187-12.48-4.367-4.54-4.876-9.12-16.138-9.133-22.462-.022-10.593 2.629-15.102 19.456-33.094 15.77-16.86 15.785-16.883 14.758-21.502-1.24-5.572-1.185-13.958.14-21.23.731-4.016.44-6.542-1.166-10.103-1.777-3.94-2.07-7.813-1.727-22.77l.414-18.02 7.346-14.633c5.27-10.497 10.011-17.735 16.775-25.609 12.687-14.768 18.433-23.971 22.031-35.286 1.657-5.21 4.833-13.691 7.058-18.848 5.098-11.815 6.177-24.314 3.133-36.28-3.015-11.848-13.226-26.62-24.734-35.78-9.78-7.784-37.309-30.985-51.62-43.505-7.969-6.97-15.157-12.704-27.902-22.256-2.53-1.896-10.224-6.395-17.099-9.999-24.974-13.09-44.294-20.666-74.375-29.164-17.843-5.041-22.311-5.848-33.125-5.984-11.769-.147-13.048.095-21.875 4.155-9.424 4.334-19.35 11.41-32.843 23.415-4.004 3.562-9.08 6.856-11.281 7.32-3.581.755-19.024 5.13-29 8.215-2.367.732-9.054.662-18.126-.19-7.906-.742-20.256-1.174-27.444-.96-12.772.38-13.086.46-13.816 3.513-.666 2.79-1.343 3.107-6.305 2.952-3.058-.095-7.107-.582-8.997-1.083-1.91-.506-3.438-.401-3.438.235 0 1.55 7.446 4.142 11.964 4.166 2.013.01 4.5.55 5.526 1.198 3.802 2.404-1.015 4.252-12.518 4.802-12.125.58-14.442 1.921-12.442 7.207 2.618 6.924 18.025 13.225 27.637 11.303 3.931-.787 3.955-.763 1.707 1.722-3.846 4.25-10.805 5.635-19.065 3.797-3.951-.88-9.118-2.452-11.482-3.494-5.742-2.532-15.895-12.163-16.855-15.987-.822-3.275-3.675-4.081-5.326-1.505-4.492 7.012-5.198 16.763-1.549 21.402 3.826 4.863 7.111 6.29 16.141 7.012 6.21.496 8.205 1.131 8.505 2.707.274 1.444-1.312 2.709-5.31 4.236-10.785 4.119-25.308-.128-31.276-9.147-2.877-4.347-4.156-10.785-4.347-21.874-.102-5.93-3.409-5.57-10.254 1.118-3.439 3.36-7.112 7.744-8.164 9.744-2.718 5.17-6.642 19.931-6.642 24.986 0 8.556 14.152 21.883 23.335 21.976 6.731.068 9.331 4.226 3.357 5.368-4.207.805-12.836-2.126-21.902-7.439-3.897-2.283-7.607-4.152-8.244-4.152-4.833 0-9.675-15.571-8.649-27.814.799-9.525 6.195-23.044 12.65-31.69 2.105-2.82 7.832-10.414 12.725-16.875 11.534-15.225 15.238-26.263 11.827-35.236-.808-2.124-.413-6.16 1.323-13.52 9.402-39.855 10.97-43.603 24.034-57.43 10.452-11.063 17.706-19.648 26.628-31.51 6.033-8.02 10.764-12.288 28.361-25.581 8.332-6.294 9.933-10.324 5.834-14.687-1.527-1.626-4.548-3.618-6.715-4.428-12.975-4.851-16.955-6.87-29.725-15.082-16.958-10.904-34.783-19.13-47.04-21.709-9.562-2.011-20.278-6.67-31.549-13.715-3.781-2.364-11.358-5.603-16.838-7.198-7.124-2.073-10.967-3.968-13.487-6.65-7.832-8.334-17.463-21.36-23.989-32.45-5.453-9.266-9.186-13.775-17.808-21.511-11.52-10.338-16.952-15.652-24.172-23.646-2.43-2.69-8.546-8.83-13.59-13.643-5.046-4.812-12.445-13.25-16.444-18.75-3.998-5.5-8.851-11.914-10.783-14.254-3.24-3.922-6.027-10.254-9.408-21.372-1.15-3.78-.86-5.486 2.124-12.5 5.823-13.689 9.44-25.213 10.792-34.374 2.952-20.011 4.79-26.653 9.508-34.352 5.935-9.685 21.818-29.112 27.088-33.132 7.251-5.53 36.905-19.318 48.615-22.604 6.334-1.777 16.42-4.85 22.411-6.828 5.992-1.979 17.242-4.757 25-6.174 29.827-5.447 41.072-7.819 62.231-13.124 12.031-3.017 26.094-5.947 31.25-6.51 15.92-1.741 121.586-1.262 133.75.606a4837.97 4837.97 0 0 0 27.5 4.097c9.281 1.357 23.063 4.18 30.625 6.277 7.563 2.095 18.531 5.133 24.375 6.75 5.844 1.618 21.313 6.045 34.375 9.838 13.063 3.793 26.563 7.282 30 7.753 8.465 1.16 13.764 3.328 30.625 12.537 7.906 4.317 17.75 9.099 21.875 10.624 4.125 1.526 11.423 5.214 16.218 8.196 4.794 2.982 9.192 5.421 9.772 5.421.58 0 4.21 2.571 8.068 5.714 8.83 7.193 13.556 9.599 32.136 16.36 8.219 2.992 18.151 7.35 22.071 9.686 3.92 2.335 11.821 6.31 17.557 8.833 11.66 5.128 24.556 11.52 38.553 19.105 12.659 6.86 51.194 23.14 61.25 25.876 9.291 2.527 12.086 3.847 22.78 10.76 4.239 2.74 12.8 6.587 19.026 8.551 11.366 3.586 23.087 8.78 38.194 16.926 4.469 2.41 12.83 6.094 18.58 8.188 5.75 2.094 14.35 6.082 19.113 8.864 4.762 2.781 11.817 6.144 15.676 7.471 6.985 2.404 13.08 6.322 19.238 12.368 4.2 4.124 46.844 25.328 69.268 34.443 21.986 8.937 20.021 7.813 33.556 19.19 18.705 15.722 42.435 31.148 58.992 38.349 18.058 7.853 51.584 28.581 65.577 40.544 8.747 7.478 39.242 27.824 45 30.023 6.06 2.315 18.753 10.106 30.572 18.765 5.47 4.009 15.053 9.89 21.293 13.072 10.86 5.535 19.179 11.815 63.76 48.132 7.562 6.16 17.969 15.513 23.125 20.783 7.656 7.824 33.11 28.382 45.5 36.747 3.671 2.48 14.28 10.161 25.22 18.263 4.864 3.602 12.458 10.37 16.874 15.04 20.492 21.665 25.882 25.895 45.63 35.81 16.143 8.105 39.448 22.394 50.62 31.037 8.114 6.277 27.125 26.887 38.488 41.725 4.987 6.514 43.256 48.594 59.069 64.953 8.351 8.64 22 20.998 30.329 27.462 16.345 12.684 46.555 41.7 56.05 53.835 23.194 29.644 28.33 36.258 35.917 46.25 4.697 6.188 14.647 17.497 22.11 25.13 10.166 10.4 15.058 16.569 19.512 24.6 3.27 5.896 8.53 14.556 11.69 19.245 32.646 48.438 44.94 76.028 61.73 138.525 8.234 30.651 14.492 53.316 16.913 61.25 1.903 6.237 5.978 23.084 8.77 36.25 4.195 19.788 11.671 36.7 22.237 50.304 3.074 3.958 7.403 10.853 9.62 15.321 2.217 4.47 6.438 11.782 9.38 16.25 7.526 11.43 19.156 33.32 21.252 40 .97 3.094 4.6 15.188 8.066 26.875 3.465 11.688 7.666 24.625 9.336 28.75 6.604 16.322 7.177 19.242 6.254 31.875-.478 6.532-1.394 12.88-2.036 14.109-.643 1.229-4.243 3.593-8 5.255-4.665 2.063-7.517 4.274-8.994 6.971-1.189 2.173-3.428 5.88-4.975 8.239-3.46 5.275-3.482 6.868-.23 16.168 1.42 4.061 3.14 10.758 3.824 14.883.684 4.125 3.248 11.944 5.698 17.375 8.151 18.068 9.986 26.042 9.087 39.5-1.301 19.486-6.82 28.844-19.9 33.735-6.792 2.54-7.573 2.585-14.31.826-10.797-2.82-30.543-16.55-20.419-14.199 1.547.36 6.188 2.1 10.313 3.866 13.725 5.88 23.948 3.63 28.309-6.227 2.322-5.25 2.527-7.662 2.044-24.105-.461-15.73-.958-19.292-3.57-25.616-5.135-12.434-17.62-24.404-29.908-28.673-3.094-1.075-9.247-3.395-13.675-5.156-10.827-4.305-14.212-4.173-17.676.69-1.524 2.141-4.669 4.685-6.989 5.655-8.518 3.559-9.04 4.855-8.318 20.669.734 16.06-1.455 27.617-5.93 31.315-2.163 1.787-7.714 3.819-18.35 6.716-1.021.279-1.562 2.939-1.562 7.687 0 4.549-.727 8.299-1.946 10.04-2.216 3.163-5.554 3.706-5.554.902 0-6.326-7.582 7.06-9.912 17.5-1.634 7.321-6.335 12.313-13.459 14.291-5.994 1.665-8.428 1.58-15.168-.522zm14.789-15.931c5.36-5.755 4.838-8.36-3.126-15.598-4.004-3.638-8.313-6.699-9.576-6.802l-3.86-.313c-.86-.069-1.422.578-1.25 1.438.171.86-.532 1.562-1.563 1.562-1.444 0-1.875 1.611-1.875 7 0 6.294.429 7.429 4.25 11.25 5.32 5.32 12.806 5.964 17 1.463z"/></svg>