<svg xmlns="http://www.w3.org/2000/svg" xmlns:dc="http://dublincore.org/documents/dcmi-terms/" height="176.709" version="1.2" viewBox="0 0 487.287 176.709" width="487.287" overflow="inherit"><metadata><dc:description>Silhouette of Neognathae, processed by PhyloPic Tools (https://github.com/eweitz/phylopic-tools)</dc:description><dc:source>http://phylopic.org/image/41440b20-a497-417d-8f11-87428a867fc8</dc:source><dc:license>http://creativecommons.org/publicdomain/mark/1.0/</dc:license></metadata><path d="M273.688 68.949c.718.543.403.857-.24.24-.258.862-1.111 1.128-1.68 1.68-1.115-.203-1.924-1.316-2.641-1.2-.618.058.33.413 0 .96-.499-.141-.775-.504-1.199-.72-.806.22-.119.446-.24 1.2-1.179.218-.914-1.006-1.92-.96-.687.472.557 1.024.96 1.2-.818.656-2.112-1.301-2.88-.72-.525.163.454.797.72.96-.666.804-1.122-.622-1.68-.72.073.566.833.446.72 1.2-.709.485-1.578-.454-2.16 0 1.147 1.002-.349.415-.96 0-.179.739.659.461.48 1.2-.59-.291-.642-1.118-1.44-1.2 1.151 1.223-1.155.153-1.92.24.106.213.211.429.479.48-.552.537-1.472-.596-2.159-.72-.276.704 1.15.892.479 1.2-.891-.229-1.922-.318-2.399-.96-.571.07.267.649.479.72-.92.081-2.524.028-3.36-.48-.438.224.845.737 1.2.96-.065.565-1.062.147-.96-.24-.671.309.756.496.48 1.2-1.217-.635-1.837-.392-2.88-1.2.345.422.22.547-.48.48-.808.387.755.76 0 1.2-1.529-.438-1.704.552-2.88-.24.139.536-.804.167-.72 1.2-.64-.24-.792-.968-1.2-1.439-.504.067.348.641-.24.96-1.69-.947-2.463.78-3.84-.48-.704.204.144.773 0 1.2-.275-.288-.608-.094-.24 0-.356.604-2.084-.164-2.16.72-.551-.41-1.548-.372-2.16-.72-.356.105.095.307 0 .72-.75-.291-1.043-1.037-1.92-1.2-.824.551 1.253.772.48 1.2-1.119.159-1.542-.378-2.4-.48-.562.272.615.803.96.96-.528.589-1.799-.108-2.16-.48-.576.213.521.73.96.72-.334.624-1.242-.175-1.68-.24.003.477.655.305.48.96-.49-.071-.471-.649-.96-.72-.729.296.26.826 0 1.44-.751-.049-1.762.162-2.16-.24-.291-.074-.828.693-.24.72-1.083.595-1.785-1.249-2.88-1.44-.437.609 1.314 1.077 1.44 1.92-1.658.61-2.538-.753-3.6-1.44-.72.659.798 1.108.72 1.92-.904-.092-1.475-.195-2.16-.96.192.449.401.879.48 1.44-.558.58-.643-.375-1.2-.479v.96c-.186-.395-1.443-.672-.72 0-.51.725-.894-.688-1.44-.72.084.834-.004 2.128-.72 1.44.355 3.075-2.188 3.252-1.92 6.24-.444-.036-.147-.812-.48-.96-.119.429-.905 2.137-.96.479-.89 1.75-3.234 2.046-3.6 4.32-.878-.053-.92-.33-1.68 0 5.406 2.898 8.16 7.678 13.2 11.76 6.419 5.199 13.685 8.506 21.12 13.2 3.548 2.241 7.644 4.445 9.84 7.2 5.981 7.505 5.606 20.206 14.399 25.439-.451 1.2.16 1.848 1.2 2.16-.438 1.082-1.884.078-2.64 0 1.722 4.038 5.76 5.76 6.479 10.8.004.717.624.816.721 1.44.618 3.68.503 8.748-2.641 10.56-1.621.239-3.959 1.138-5.76 1.921-3.738-.969-8.428-2.544-12.24-.721-.13-1.249.461-1.779.48-2.88 2.302-3.858 9.521-2.798 13.199-5.28-.039-.278.054-.427.24-.479-.513-7.878-4.911-13.931-8.88-20.64-3.443-5.822-6.522-12.74-11.04-16.561-2.291-1.938-5.774-3.385-8.88-5.28-3.547-2.164-8.447-6.536-13.2-4.56-1.679.698-3.538 2.094-5.76 2.88-4.444 1.572-10.435 1.28-12.72 4.56.098.578-.438.522-.24 1.2-.431.45-1.473.287-1.68.96-.18 1.301.829 1.412 1.2 2.16-.475.689-1.498-.083-2.16 0-1.47-3.605-7.786-1.676-7.92 1.68-.985.376-1.559 1.162-3.12.961-.69 3.709-1.797 7.002-2.88 10.319.158.726.527 1.428.48 2.16-.095 1.467-1.313 1.443-1.92 2.64-.094.186.265 1.098.24 1.2-.387 1.582-1.584 1.782-1.44 3.601.106 1.34 1.375 1.932 1.68 4.08-4.525-.161-8.073-4.536-6.72-9.841.512-2.007 1.972-4.112 1.44-6.479 2.486-3.354.997-8.489 3.6-11.28 1.498-1.605 4.589-2.315 6.96-3.36 2.376-1.046 4.917-2.051 6.96-3.119 4.915-2.573 9.45-4.687 13.44-6.721 1.403-4.125-4.34-5.229-7.2-6.96-2.627-1.59-4.659-3.239-7.68-3.84-6.77-1.346-12.208-3.681-14.88-7.68-.523-.044-.764.196-.72.72-1.812-.659-4.615-.603-6 .48-2.566-.476-5.086-1.47-6.96-.721-.698-.208-.27-.359-.24-.96-.941.638-1.939.806-2.4 0-.462.098-.189.931-.96.72.186-.213.258-.541.24-.959-.596 1.203-2.174 1.198-2.64 1.68-.722.242-.425-.535-.479-.96-.444.036-.147.812-.48.96-.295-.105-.493-.308-.48-.721-.229.411-.796.484-.96.961-.555-1.897-2.764.463-3.6-1.44-.224.176-.363.437-.479.72-1.377-.878-1.773-1.193-3.12-.72-.103-.457-.517-.603-.48-1.2-2.659.169-3.998-2.516-6.72-1.68-.624-.417-1.148-.932-1.68-1.44-.596-.312-.996.704-1.2 0-.313.482-.713 2.854.72 3.36-.819.898.521 2.844-.48 4.32-.655.175-.483-.478-.96-.48-.647.676.426.984.24 1.92-.315-.085-.377-.422-.72-.479.138.422-.29 1.41.24 1.439.095.466-1.093.351-.72-.239-.578 1.649.029 2.966.24 4.319-.788-.092-1.058-.702-1.68-.96.297.663.701 1.22.72 2.16-1.36.93-1.116 2.197-.72 4.08-.355-.125-.605-.355-.96-.48-.23.993.701 2.811-.96 3.36.427.769.466 1.211.24 2.16-.388.067-.414-.228-.72-.24-.315 1.354.952 1.129.96 2.16-.655.175-.483-.478-.96-.48-.244.156-.248.552-.72.48-.17.89.41 1.03.24 1.92-.766.206-.742-.378-1.2-.479-.652.754-.225 1.659-.48 2.399-1.548.501-2.326 1.046-3.84 1.2-.088.408.187.453.48.479-.099.811-1.142.135-1.68 0-.03.431.294.507.24.96-.575-.145-1.095-.345-1.92-.239-.011.41.178.621.48.72-.914.288-1.934.095-2.88-.24-.488-.073.049.693.24.721-.663-.078-2.003-.059-3.12-.48-.01.41.178.621.48.72-.487.702-.664-.917-1.44-.72-.542.497-.75 1.33-.96 2.16-3.571 5.062-10.853 3.6-12.48-1.92 1.106.472 1.923 1.906 3.84 1.92 4.14.029 4.152-5.791 7.68-6.721.21-1.389.979-2.22 2.16-2.64-.025-2.265 1.691-2.789 3.12-3.6-.296-2.216 1.969-1.872 1.44-4.32-1.773 1.296-3.18 2.645-3.36 4.56-.739.18-.461-.658-1.2-.479-.022.718-.484.203-.96.479-1.815 1.055-3.255 3.977-6 4.08-2.142.082-3.461-1.15-5.28-2.88-.295.104-.493.308-.48.721-.946-.704-1.485-.872-2.64-.96-.302.059-.242.477 0 .479-.51.725-.894-.688-1.44-.72-.281.039-.202.438-.24.72-.622-.338-1.108-.812-1.68-1.2-.45.458.143.435 0 1.2-.802-.638-1.661-1.219-2.4-1.92-.619.058.33.413 0 .96-.906-1.154-1.45-1.235-2.64-2.16-.03.431.294.507.24.96-.796-.004-.244-1.356-.72-1.68-.742.538-1.589.971-2.16 1.68-5.585 1.596-10.464-.836-9.6-7.2-.185-.765.292-1.822.24-.479.567 2.655 2.294 3.977 4.56 3.84 2.615-.157 4.411-3.574 7.68-2.64.438-.818 1.748-1.303 2.64-.96.684-.277.787-1.133 1.44-1.44 3.4-.131 5.367-1.238 7.2-3.359-1.042.204-4.523.721-5.52 2.399-.422-.058-.547-.413-.48-.96-.907-.348-.46.659-1.2.48v-.721c-5.837 3.795-13.49-2.426-8.64-7.68.226 5.759 5.827 1.253 9.36 2.88 1.905-.654 3.282-1.838 5.76-1.92 4.78-3.381 8.518-7.802 11.521-12.96-.404.018-.898-.494-.96-1.44-.936 1.096-2.548-.217-3.6-1.68-.521-.041-.109.852-.24 1.2-.846-.034-.684-1.077-.96-1.68-.281.039-.203.438-.24.72-1.358-1.601-3.132-1.637-4.56-1.68-.693-.187-.599-1.161-.96-1.68-.666-.374-1.397-.682-1.92-1.2-1.115-3.935-5.458-3.172-7.2-6.48-.719.158.229.513 0 .96-2.144-.896-2.485-3.596-4.32-4.8-.031.43.293.506.24.96-.493-.067-.479-.641-.72-.96-.386.096.009 1.408.24 1.68-1.085-.198-1.85-2.788-2.4-4.32-.623.717.536 1.693.24 2.88-.778-.822-1.529-1.671-2.88-1.92-.802-5.054-5.184-3.094-7.44-5.28-.51.077.343.743.48.96-.657.562-1.483-.747-2.16-.96.003.477.655.305.48.96-1.134-.626-2.314-1.206-3.36-1.92-.619.058.33.413 0 .96-1.42-.375-1.706-.181-2.88-1.44.187.534.504.936.48 1.68-2.457-.448-2.929-2.466-4.32-3.6-.409-.333-.254.295-.48.24-1.3-.315-1.56-3.412-3.6-2.4-3.585-3.694-7.422-7.138-10.32-11.52-.281.039-.202.438-.24.72-3.966-6.009-10.374-10.672-13.68-16.56-.199.171-.906 1.399-.96.24-.489.336.236.827-.24 1.44-.818.018-.71-.89-.72-1.68-.39.411-.727.874-.72 1.68-.944.384-.083-1.037-.72-.96-.379 1.63-1.717 1.058-2.4 1.92-.57-.311-.553-1.207-1.44-1.2-.326.074-.199.601-.24.96-.646.166-.464-.496-.72-.72-.453.026-.167.793-.72.72-1.636-.923-2.245-.27-3.36-1.2-.325.235-.311.809-.72.96-1.476-.795-1.943.111-3.12-1.2-2.119 1.275-5.295-1.533-7.44-.96-.833-.046-.911-.849-1.68-.96-.564.003.088.655.48.48-.203.565-1.238-.015-1.44-.24.048.924-2.962.366-4.08.24-.026.146.336.295.48.24-1.074.412-11.285 3.053-12.24.96-.363-.795.703-1.347.24-2.4.544.475.861-.734 1.92-.479-.022-.701 3.178-1.973 4.56-2.4 1.571-.485 3.494-.217 4.8-.48.291-.059.268-.625.48-.72 1.241-.552 3.9.057 4.8-1.44-1.731-.845-4.452 1.378-5.52.479-1.556 1.401-3.552 1.067-5.521.72-2.284 1.156-4.82 2.059-7.2 3.12-2.624-2.388.615-5.363-.24-8.64.752.496.312-.165.24-.72 1.067.64.728-1.059 1.44-1.44.326.075.199.601.24.96 2.139-2.775 6.468-4.646 10.32-6.479 7.475-3.559 17.431-8.56 27.12-9.36 10.559-.872 13.028 6.75 18.72 11.04.062.737.521 1.08.72 1.68 5.834 5.525 9.736 14.314 16.08 19.68 2.325 1.967 5.292 2.297 7.68 4.56 3.261.259 6.521.519 8.88 1.68 17.737-.613 31.284-6.039 50.64-4.8 5.972.382 12.902.354 19.2.72 8.699.505 16.651 1.288 25.92 1.92.387.026.408.194.72.24 18.562 2.736 37.064 10.242 56.64 12.48 2.652.303 7.374.581 10.32.72 21.07.996 44.119 1.134 65.76 0 26.831-1.406 56.883-3.594 83.28-1.68 1.946.141 5.131.614 7.439.96 12.318 1.846 25.792 5.475 38.88 7.92 13.546 2.531 26.741 5.338 36.24 10.32-6.454.67-13.646-2.198-21.359-3.84-16.002-3.405-33.469-6.615-51.84-8.16-14.32-1.204-29.891-2.053-45.121-.96-11.108.797-23.214 3.621-35.279 4.8-10.952 1.07-22.206 4.468-31.68 5.76-6.086.83-11.648 1.115-15.601 2.64-.201.078-.212-.361-.24-.48-.703.016-.891.548-1.2.96-.812-.708-2.452-.559-3.359.24-2.31-.796-3.53.637-6.24.24.046.194.241.239.24.48.589.392-.991-.614-1.918-.242zm-149.761 39.6c1.146.118.542-1.246.24-1.681.14.78-.163 1.118-.24 1.681zm-2.4 3.119c.502-.502 1.892-1.977.96-2.399-.249.72-1.425 1.763-.96 2.399zm-1.68 1.441c.045-.355.58-.22.96-.24.049-.689-.061-1.219-.48-1.439-.037.282.042.681-.24.72-.12-.775-.607 1.246-.24.959z" fill-rule="evenodd"/></svg>