<svg xmlns="http://www.w3.org/2000/svg" xmlns:dc="http://dublincore.org/documents/dcmi-terms/" height="668" version="1.2" viewBox="0 0 1365.068 668" width="1365.068" overflow="inherit"><metadata><dc:description>Silhouette of Jonkeria, processed by PhyloPic Tools (https://github.com/eweitz/phylopic-tools)</dc:description><dc:source>http://phylopic.org/image/d7c5cc6c-224c-44cb-a0c6-ff73d930ad26</dc:source><dc:creator>Dmitry Bogdanov (vectorized by T. Michael Keesey)</dc:creator><dc:license>http://creativecommons.org/publicdomain/zero/1.0/</dc:license></metadata><path d="M839.068 0v1c89.521 9.92 187.141 8.225 252 41 44.345 14.543 89.872 41.673 128 64 13.721 8.034 23.045 18.21 34 28 5.424 4.848 14.252 9.251 19 14 1.807 1.807 2.189 5.023 4 7 9.974 10.887 23.01 18.953 29 34 3.812-.479 2.038 4.629 7 3 1.965 9.408 10.447 17.081 16 26 5.816 9.343 9.656 19.709 17 27 1.494 7.172 3.801 13.533 8 18-.723 3.056 1.022 3.645 1 6 6.505 10.669 10.725 22.614 11 36-18.491-12.175-32.122-29.211-48-44-25.343-11.887-46.104-30.615-74-37-14.725-8.387-32.437-10.255-51-13-1.811 2.523-3.24 5.426-8 5-3.096 40.322-7.051 78.859 3 117 2.85 10.812 7.021 22.199 9 36 1.166 8.128.153 16.229 1 24 1.134 10.405 5.281 19.851 7 30 .346 2.041-.6 4.901 0 7 3.683 12.885 19.713 28.248 6 43 9.426 13.745 10.247 34.44 1 50-8.229-2.438-10.965-10.368-20-12-3.625 11.375-10.747 19.253-18 27-9.166-3.834-11.345-14.655-16-23-13.422 6.561-23.951 11.903-38 19-1.61-6.811 1.307-16.309 3-23-11.501.194-24.985 8.053-38 8 2.191-6.809 4.416-13.584 8-19-6.416 2.858-11.822-3.544-19-2 5.034-19.632 27.99-21.343 38-36-2.771-6.13-5.11-18.076 2-21-3.871-13.513-4.638-27.167-9-40-2.217-6.521-7.303-11.412-10-18-3.396-8.297-3.138-17.937-7-26-1.376-2.872-4.357-4.209-6-7-5.573-9.467-3.561-21.03-9-31-16.463 16.237-38.479 32.142-66 34-30.043 25.624-65.406 45.927-106 61 2.567 5.358-1.921 9.036-2 14-.268 16.834 12.302 37.108-4 47-4.025 2.442-7.707.033-13 1-9.238 1.688-17.857 11.604-30 14-14.518 2.864-28.24.966-41 8-.253-3.586 3.003-3.664 3-7-10.251-.121-12.636 1.428-22 2-1.17-7.837 3.91-9.424 6-14-7.59-.257-10.025 4.642-18 4 .09-4.577 4.759-4.574 6-8-.804-4.1-4.116.52-6-2 3.851-5.92 10.921-7.733 11-15 8.596-2.737 17.924-4.742 27-7 6.406-5.891 1.511-15.372 2-22-19.248 1.085-38.323 2.344-55 6 12.473 31.96 16.273 68.146 8 103-4.951 20.856-18.749 44.843-18 69-11.648 18.685-30.069 30.598-42 49-9.94-.291-9.638 10.421-20 12-1.43-8.039-.355-12.384-4-18-4.326 2.34-7.713 5.62-12 8-12.781-2.919-14.623 6.171-25 8 .11-8.33 4.584-20.67 7-30-7.152 13.049-27.737 7.993-40 10 2.496-10.837 8.285-18.382 15-25-5.544 1.223-12.814-2.716-21-2 2.705-10.295 11.548-14.451 18-21-1.694-5.249-7.417 2.128-10-1 9.656-19.753 44.133-6.493 50-30 .814-3.263.041-7.022 1-11 .539-2.236 2.711-4.758 3-7 2.248-17.475-10.438-39.022-5-59-25.331-7.67-54.533-11.467-71-28-31.619.971-71.485-6.283-95-20-.181 11.5 3.506 32.791-3 45 9.159 11.669-.136 25.512 0 38 .027 2.543 1.33 4.811 1 7-.769 5.098-4.652 7.754-8 14-1.282 2.393-.717 5.885-2 8-1.196 1.971-4.542 2.938-6 5-3.144 4.449-3.771 10.347-6 13-5.567 6.627-13.995 11.883-19 15-1.247-8.072-4.632-15.951-2-25-11.267 9.879-22.368 14.65-38 19-1.266-11.541-.373-12.359 4-22-.354-1.313-1.76-1.573-2-3-12.153 3.972-19.271 7.828-32 10 1.268-11.398 8.955-16.379 14-24-3.138-4.529-15.367.033-20-3 8.904-8.557 11.768-26.579 25-30 2.273-.588 6.18 1.206 8 1 6.49-.735 6.544-6.021 12-7-.032-5.656-6.501-10.893-3-14-2.573-2.551-4.318-3.707-7-4-8.737-28.859-19.003-51.102-15-77 .709-4.59 3.825-9.397 3-14-1.849-10.316-14.043-15.912-16-26-20.709-5.957-34.301-19.032-52-28-33.038.608-58.319-3.617-77-23-19.823-.196-43.543-15.895-67-20-30.75-5.381-67.546-10.857-103-4 1.522 2.478.247 7.753 2 10-3.287 2.241-.175-10.458-5-10-2.981 2.087 1.328 5.26 0 9-1.115 1.692-1.799-5.467-2-8-3.131-.464-4.464.869-4 4-2.111-7.185-8.256-3.887-6 5-2.286 2.542.286-8.228-2-9-7.071-.242-5.461 1.766-6 9-1.917 2.173-.631-7.312-1-10-4.217-.784-6.745-.211-6 8-1.953 2.33-.872-6.789 0-8-6.184-4.816-14.75-7.25-20-13-4.158 2.194-5.065 12.91-8 13 2.227-4.989 2.188-9.926 5-16-5.825 1.508-9.438 5.229-14 8-.965-3.659 8.898-5.081 11-9-.294-2.039-2.706-1.961-3-4-4.212.454-4.795 4.538-7 7-2.171-2.89 4.374-5.588 5-9-6.146 1.521-8.351 6.983-13 10-.416-4.435 9.942-6.709 11-13-1.358-4.312-5.785-1.726-10-1-2.191-1.614 5.673-1.594 7-3-4.894-8.439-10.631-16.035-13-27-3.073.26-4.497 2.169-7 3-1.142-1.86 6.73-3.232 8-6-.971-3.791-6.273.453-10 0-2.015-2.081 8.003-.614 8-4-1.513-3.024-4.389.829-7 0-1.343-2.389 10.076-.557 8-7-3.645-1.281-9.122 4.189-13 6-1.139-5.159 12.396-4.255 13-11-1.417-1.025-8.078 1.212-11 2-3.57-.836 26.894-8.427 7-8-2.794-2.538 8.938.995 8-3-4.652-2.014-11.31-2.023-17-3 6.276-2.257 14.2 2.452 23 1 .356-6.356-7.839-4.161-11-7 3.809-1.677 10.055 4.329 15 2-.064-4.602-2.842-6.491-4-10v-12c2.289 1.711.367 7.633 1 11 1.21 3.123 2.426 6.241 4 9 9.958-2.692-2.275-26.192 2-32 .913 8.754 1.564 17.769 3 26 8.532-.236 12.86-13.065 24-14 .609-2.391-1.255-7.255 1-8 2.611-2.938-2.352 6.142 1 7 5.298-2.9 4.659-14.788 5 0 16.769-7.043 35.433-10.219 54-14 20.277-4.129 41.79-7.34 60-15-.658-1.342-2.138-1.862-4-2 .42-2.226 5.306-.783 6 0 6.69-5.615 17.07-11.402 26-9 2.879-.788 2.799-4.534 7-4 11.146-19.187 21.895-38.772 50-41 4.844-3.094 8.665-3.819 17-5 15.191-2.152 30.061-11.64 45-16 38.712-11.299 87.145-15.516 131-15 13.7-5.399 29.278-2.557 46-6 10.762-2.216 20.527-8.641 31-11 14.945-3.366 30.188-1.749 43-7 9.863 5.171 25.342-2.805 39-6 56.42-13.2 117.296-19.583 190-27h9c2.051 1.659 10.949 1.659 13 0h12z" fill-rule="evenodd"/></svg>