<svg xmlns="http://www.w3.org/2000/svg" xmlns:dc="http://dublincore.org/documents/dcmi-terms/" height="587" viewBox="0 0 998 587" width="998"><metadata><dc:description>Silhouette of Kannemeyeriiformes + Lystrosauridae, processed by PhyloPic Tools (https://github.com/eweitz/phylopic-tools)</dc:description><dc:source>http://phylopic.org/image/b02c8c23-4263-436a-9a3a-068fc851dbb7</dc:source><dc:creator>Steven Traver</dc:creator><dc:license>http://creativecommons.org/publicdomain/zero/1.0/</dc:license></metadata><g fill-rule="evenodd"><path d="M1 0h997v587H0V3C-.086 1.581-.165.168 1 0zm270 32c-1.264-.649-1.9-2.401-3-3-15.614-8.503-33.401-13.206-51-19-2.883-.949-5.273-3.207-8-4-3.896-1.133-8.274-.947-13-2-4.049-.902-8.066-2.633-12-3-19.784-1.843-35.807 2.637-48 8-5.82 2.56-11.118 8.09-18 10-5.67 1.574-12.352 1.719-18 1-1.482-.188-2.295-1.534-4-2-1.888-.516-4.457-.602-6-1-11.109-2.867-13.358-1.835-22 4-3.309 2.234-7.501 4.722-10 7-3.473 3.167-11.001 12.954-12 16-1.499 4.57-.856 8.561-1 12-7.806 9.194-15.344 18.656-15 36-4.291 4.742-14.554 8.992-16 17-1.536 8.504 4.282 13.793 5 19 2.409 17.463-8.84 38.758-12 63-3.006 23.063-.115 42.541-2 64 1.754 1.221 6.971-1.095 10 1 .255 3.985 3.779 9.139 5 15 3.202 15.364-.194 38.644 12 39 3.635.106 7.544-3.943 10-7 2.629-3.272 3.088-8.442 7-10 7.898-.868 13.78 9.818 24 11 8.93 1.032 14.489-3.127 23-6 2.995 5.247 2.446 11.112 8 12 12.81 2.047 13.741-25.783 24-29 9.535-.424 12.494-7.503 19-11 5.452-2.931 14.468-4.924 23-4 2.107.228 7.592 2.705 9 3 6.834 1.433 15.287-.783 16 5 .835 6.77-8.368 5.653-14 8-8.346 3.478-20.095 12.469-27 18-2.757 2.209-5.176 4.596-8 7-11.249 9.578-24.722 18.057-31 29-4.171 3.096-10.93 6.623-15 12-1.887 2.493-2.729 6.65-5 10-1.954 2.883-5.908 5.663-7 8-1.112 2.38-2.078 8.098-3 12-2.113 8.944-3.879 15.99-7 23-1.721 3.865-4.365 6.982-5 10-.897 4.264.54 8.668 0 13-.415 3.326-2.573 6.663-3 10-.472 3.685.594 6.939 0 10-.728 3.753-4.725 6.48-3 11-2.027 1.973-4.378 3.622-6 6-1.841 2.492-1.447 7.219-5 8-13.867 3.466-24.076 10.591-34 18-2.795 13.162-28.934 16.413-17 32 1.432 2.08 1.358-.349 3-1 4.982-1.976 13.776-2.35 17-2 .771 4.58-3.708 6.458-5 10-1.336 3.662-2.286 7.044-1 12 7.382 4.894 14.319-2.203 23-2 .811 5.578-2.233 8.844 0 13 9.882 2.937 20.278-.614 28-2 3.292-.591 7.476-.189 10-1 3.96-1.271 6.075-6.057 10-6h10c2.515-1.959 4.726-2.987 7-5 2.181-1.93 2.821-6.418 7-6 4.051 5.282 7.396 11.271 8 20 6.158 3.383 15.216 1.563 22 0 1.704-4.287 4.366-7.903 7-12 1.108-1.724 1.647-3.95 3-6 1.844-2.793 3.499-2.514 4-6 1.071-7.449-5.006-13.813-6-22-.905-7.456 2.731-18.328 5-30 2.029-10.438 4.4-22.113 5-31 .252-3.731-.304-7.034 0-10 .278-2.713 1.783-16.083 3-18 2.29-3.605 8.314-3.27 13-5 3.653-1.35 8.855-4.448 14-7 12.667-6.282 30.732-19.455 45-19 5.184.165 11.274 3.29 17 5 5.965 1.781 12.182 3.561 19 4 9.671.623 18.125-2.04 25-2 12.467.072 24.319 5.318 37 6 8.474.455 14.069-.989 20-2 11.13-1.897 17.219-4.38 26-8 8.737 6.448 22.277 7.061 32 11 4.899 20.748-3.809 40.825-5 60-.712 11.461 1.136 22.069-1 29-.59 1.915-.442 3.131-1 5-12.988 7.012-30.472 9.527-37 23-8.431 4.235-17.043 8.29-16 22 3.715 1.995 6.245 3.153 11 3 4.411-.142 7.107-4.599 10-2-2.273 9.06-6.955 15.712-6 28 2.747 3.92 8.081 5.252 12 8 6.832-3.834 8.451-12.883 19-13 5.097 9.873 2.836 24.762 14 25 11.422.243 9.747-15.004 19-20 2.303 1.561 5.263 3.004 7 5 1.967 2.26 1.684 6.058 5 7 1.333 1.667-.364 6.363 3 6 9.485 2.704 10.979-4.25 15-11 3.198-5.369 6.383-10.567 8-14 3.063-1.937 1.289-8.711 6-9 5.616-.616 4.043 5.957 8 7 8.316 1.786 14.581 10.613 25 7 2.291-7.126-4.451-13.954-5-22-.675-9.882 4.054-18.127 6-27-1.109-3.88-3.675-7.683-4-12-.671-8.891 4.671-18.623 6-30 1.768-15.133-.799-27.016 0-40 4.206-5.421 15.977-2.314 20-3 3.384 2.257 5.936 4.647 10 5 2.271.197 1.867-1.319 5-2 2.316-.504 5.382.497 7 0 3.531-1.085 6.034-4.346 10-5 3.051-.503 7.045 1.188 10 1 4.292-.274 7.258-2.756 11-1 9.227-5.755 23.301-8.732 30-15 .891-.833 2.032-1.132 3-2 5.398-4.844 8.185-11.26 8-19-.227-9.496-5.286-20.532-10-29-4.867-8.742-12.869-16.063-13-25 18.749-6.729 34.595-17.658 48-28 4.857-3.748 10.673-6.558 14-12 11.055-5.875 19.457-14.425 29-22 9.513-7.551 18.681-16.225 31-21 8.855 6.026 15.685 15.868 22 23 .997 1.126 2.275 3.341 3 4 2.03 1.847 5.725 2.803 8 5 2.327 2.247 5.053 4.817 5 9-1.873 3.675-5.668 6.141-8 10-6.276 10.387-7.463 23.876-8 40-8.843 14.157-8.844 37.156-12 57-2.118 2.882-4.43 5.57-4 11-3.721 2.612-8.344 4.323-10 9v9c.877 4.473-5.499 5.001-2 9 7.457 11.028 23.036.504 36 2 3.916 7.777 5.99 14.57 13 18 2.707 1.324 7.148.996 10 3 9.362-4.638 14.904-13.096 26-16 4.182 1.816 6.347 6.129 11 8 2.866 1.152 6.854.094 10 1 6.322 1.822 11.135 8.189 18 7 2.966-4.034 3.041-10.96 5-16 7.045-5.336 16.935.986 25 1 .321-6.346-.847-14.18 1-19-5.118-5.215-8.595-12.072-18-13-7.74-9.26-17.697-16.303-28-23 6.105-12.241 13.047-25.532 17-41 1.919-7.509 3.552-15.798 5-24 1.504-8.52 3.915-17.575 4-26 .108-10.739-6.532-23.436-2-32 .479-3.146-1.424-3.909-2-6 4.601-13.757 1.351-31.179 0-43-.599-5.236-1.891-11.428-1-15 2.914-11.688 19.069-9.554 30-9 16.604.841 36.666-3.412 55-2 19.931 1.535 33.995 11.289 54 9 1.792-2.875 6.061-3.273 9-5-.91-8.639-7.37-15.849-12-20-20.251-18.156-40.352-37.626-67-49-17.773-7.586-37.525-12.155-58-16-41.287-7.752-78.071-20.191-112-36-8.452-3.938-16.246-8.486-25-12-27.365-10.984-57.484-15.889-87-24-20.771-5.708-39.599-13.854-59-16-28.529-3.156-55.298-2.742-83-4-21.437-.974-45.699-3.805-68-2-7.206.583-16.255 2.333-25 4-7.832 1.493-17.502 2.459-24 5-4.023 1.573-6.551 5.458-12 7-9.971 2.822-19.73.516-29 2-6.754 1.082-14.057 5.406-19 7-8.381 2.703-13.668 2.833-19 7-8.576-6.928-17.757-15.251-27-20z" fill="#fff"/><path d="M298 52c5.332-4.167 10.619-4.297 19-7 4.943-1.594 12.246-5.918 19-7 9.27-1.484 19.029.822 29-2 5.449-1.542 7.977-5.427 12-7 6.498-2.541 16.168-3.507 24-5 8.745-1.667 17.794-3.417 25-4 22.301-1.805 46.563 1.026 68 2 27.702 1.258 54.471.844 83 4 19.401 2.146 38.229 10.292 59 16 29.516 8.111 59.635 13.016 87 24 8.754 3.514 16.548 8.062 25 12 33.929 15.809 70.713 28.248 112 36 20.475 3.845 40.227 8.414 58 16 26.648 11.374 46.749 30.844 67 49 4.63 4.151 11.09 11.361 12 20-2.939 1.727-7.208 2.125-9 5-20.005 2.289-34.069-7.465-54-9-18.334-1.412-38.396 2.841-55 2-10.931-.554-27.086-2.688-30 9-.891 3.572.401 9.764 1 15 1.351 11.821 4.601 29.243 0 43 .576 2.091 2.479 2.854 2 6-4.532 8.564 2.108 21.261 2 32-.085 8.425-2.496 17.48-4 26-1.448 8.202-3.081 16.491-5 24-3.953 15.468-10.895 28.759-17 41 10.303 6.697 20.26 13.74 28 23 9.405.928 12.882 7.785 18 13-1.847 4.82-.679 12.654-1 19-8.065-.014-17.955-6.336-25-1-1.959 5.04-2.034 11.966-5 16-6.865 1.189-11.678-5.178-18-7-3.146-.906-7.134.152-10-1-4.653-1.871-6.818-6.184-11-8-11.096 2.904-16.638 11.362-26 16-2.852-2.004-7.293-1.676-10-3-7.01-3.43-9.084-10.223-13-18-12.964-1.496-28.543 9.028-36-2-3.499-3.999 2.877-4.527 2-9v-9c1.656-4.677 6.279-6.388 10-9-.43-5.43 1.882-8.118 4-11 3.156-19.844 3.157-42.843 12-57 .537-16.124 1.724-29.613 8-40 2.332-3.859 6.127-6.325 8-10 .053-4.183-2.673-6.753-5-9-2.275-2.197-5.97-3.153-8-5-.725-.659-2.003-2.874-3-4-6.315-7.132-13.145-16.974-22-23-12.319 4.775-21.487 13.449-31 21-9.543 7.575-17.945 16.125-29 22-3.327 5.442-9.143 8.252-14 12-13.405 10.342-29.251 21.271-48 28 .131 8.938 8.133 16.258 13 25 4.714 8.468 9.773 19.504 10 29 .185 7.74-2.602 14.156-8 19-.968.868-2.109 1.167-3 2-6.699 6.268-20.773 9.245-30 15-3.742-1.756-6.708.726-11 1-2.955.188-6.949-1.503-10-1-3.966.654-6.469 3.915-10 5-1.618.497-4.684-.504-7 0-3.133.681-2.729 2.197-5 2-4.064-.353-6.616-2.743-10-5-4.023.686-15.794-2.421-20 3-.799 12.984 1.768 24.867 0 40-1.329 11.377-6.671 21.109-6 30 .325 4.317 2.891 8.12 4 12-1.946 8.873-6.675 17.118-6 27 .549 8.046 7.291 14.874 5 22-10.419 3.613-16.684-5.214-25-7-3.957-1.043-2.384-7.616-8-7-4.711.289-2.937 7.063-6 9-1.617 3.433-4.802 8.631-8 14-4.021 6.75-5.515 13.704-15 11-3.364.363-1.667-4.333-3-6-3.316-.942-3.033-4.74-5-7-1.737-1.996-4.697-3.439-7-5-9.253 4.996-7.578 20.243-19 20-11.164-.238-8.903-15.127-14-25-10.549.117-12.168 9.166-19 13-3.919-2.748-9.253-4.08-12-8-.955-12.288 3.727-18.94 6-28-2.893-2.599-5.589 1.858-10 2-4.755.153-7.285-1.005-11-3-1.043-13.71 7.569-17.765 16-22 6.528-13.473 24.012-15.988 37-23 .558-1.869.41-3.085 1-5 2.136-6.931.288-17.539 1-29 1.191-19.175 9.899-39.252 5-60-9.723-3.939-23.263-4.552-32-11-8.781 3.62-14.87 6.103-26 8-5.931 1.011-11.526 2.455-20 2-12.681-.682-24.533-5.928-37-6-6.875-.04-15.329 2.623-25 2-6.818-.439-13.035-2.219-19-4-5.726-1.71-11.816-4.835-17-5-14.268-.455-32.333 12.718-45 19-5.145 2.552-10.347 5.65-14 7-4.686 1.73-10.71 1.395-13 5-1.217 1.917-2.722 15.287-3 18-.304 2.966.252 6.269 0 10-.6 8.887-2.971 20.563-5 31-2.269 11.672-5.905 22.544-5 30 .994 8.187 7.071 14.551 6 22-.501 3.486-2.156 3.207-4 6-1.353 2.05-1.892 4.276-3 6-2.634 4.097-5.296 7.713-7 12-6.784 1.563-15.842 3.383-22 0-.604-8.729-3.949-14.718-8-20-4.179-.418-4.819 4.07-7 6-2.274 2.013-4.485 3.041-7 5H90c-3.925-.057-6.04 4.729-10 6-2.524.811-6.708.409-10 1-7.722 1.386-18.118 4.937-28 2-2.233-4.156.811-7.422 0-13-8.681-.203-15.618 6.894-23 2-1.286-4.956-.336-8.338 1-12 1.292-3.542 5.771-5.42 5-10-3.224-.35-12.018.024-17 2-1.642.651-1.568 3.08-3 1-11.934-15.587 14.205-18.838 17-32 9.924-7.409 20.133-14.534 34-18 3.553-.781 3.159-5.508 5-8 1.622-2.378 3.973-4.027 6-6-1.725-4.52 2.272-7.247 3-11 .594-3.061-.472-6.315 0-10 .427-3.337 2.585-6.674 3-10 .54-4.332-.897-8.736 0-13 .635-3.018 3.279-6.135 5-10 3.121-7.01 4.887-14.056 7-23 .922-3.902 1.888-9.62 3-12 1.092-2.337 5.046-5.117 7-8 2.271-3.35 3.113-7.507 5-10 4.07-5.377 10.829-8.904 15-12 6.278-10.943 19.751-19.422 31-29 2.824-2.404 5.243-4.791 8-7 6.905-5.531 18.654-14.522 27-18 5.632-2.347 14.835-1.23 14-8-.713-5.783-9.166-3.567-16-5-1.408-.295-6.893-2.772-9-3-8.532-.924-17.548 1.069-23 4-6.506 3.497-9.465 10.576-19 11-10.259 3.217-11.19 31.047-24 29-5.554-.888-5.005-6.753-8-12-8.511 2.873-14.07 7.032-23 6-10.22-1.182-16.102-11.868-24-11-3.912 1.558-4.371 6.728-7 10-2.456 3.057-6.365 7.106-10 7-12.194-.356-8.798-23.636-12-39-1.221-5.861-4.745-11.015-5-15-3.029-2.095-8.246.221-10-1 1.885-21.459-1.006-40.938 2-64 3.16-24.242 14.409-45.537 12-63-.718-5.207-6.536-10.496-5-19 1.446-8.008 11.709-12.258 16-17-.344-17.344 7.194-26.806 15-36 .144-3.439-.499-7.43 1-12 .999-3.046 8.527-12.833 12-16 2.499-2.278 6.691-4.766 10-7 8.642-5.835 10.891-6.867 22-4 1.543.398 4.112.484 6 1 1.705.466 2.518 1.812 4 2 5.648.719 12.33.574 18-1 6.882-1.91 12.18-7.44 18-10 12.193-5.363 28.216-9.843 48-8 3.934.367 7.951 2.098 12 3 4.726 1.053 9.104.867 13 2 2.727.793 5.117 3.051 8 4 17.599 5.794 35.386 10.497 51 19 1.1.599 1.736 2.351 3 3 9.243 4.749 18.424 13.072 27 20zm233 325c-6.189-9.491-13.493-17.361-24-8-.793 14.126 2.631 24.035 6 34 6.334-.333 7.666-5.667 15-5 2.737-2.597 5.48-5.186 10-6-.325-3.76-3.636-9.842-7-15z"/><path d="M538 392c-4.52.814-7.263 3.403-10 6-7.334-.667-8.666 4.667-15 5-3.369-9.965-6.793-19.874-6-34 10.507-9.361 17.811-1.491 24 8 3.364 5.158 6.675 11.24 7 15z" fill="#fff"/></g></svg>