<svg xmlns="http://www.w3.org/2000/svg" xmlns:dc="http://dublincore.org/documents/dcmi-terms/" height="2834.65" version="1.2" viewBox="0 0 15590.55 2834.65" width="15590.55"><metadata><dc:description>Silhouette of Kileskus aristotocus, processed by PhyloPic Tools (https://github.com/eweitz/phylopic-tools)</dc:description><dc:source>http://phylopic.org/image/829591b0-d8cf-418e-a48e-f2a07aecc096</dc:source><dc:creator>Conty (vectorized by T. Michael Keesey)</dc:creator><dc:license>http://creativecommons.org/licenses/by/3.0/</dc:license></metadata><path d="M8635 1238v1c-49.54-6.08-100.16-18.3-143-23-14.73-1.62-29.53-.59-44-2-7.77-.76-14.65-3.02-25-2-16.4 1.62-33.11 1.93-48 3-49.79 3.57-93.32 14.91-146 24-3.8-1.47-.2 4.47-4 3-53.4 8.93-99.74 24.92-153 34-51.46 10.88-98.5 26.16-146 41-18.3 10.37-40.02 17.32-60 26-17.42 19.47-47.84 23.3-81 25-2.13 6.74-10.57 14.37-16 21 17.99 16.32 27.39 41.79 37 65 3.24 31.38 23.86 49.9 31 69 12.66 11.7 22.72 30.12 31 43 3.53 11.24 8.44 21.29 6 34-1.57 8.17-8.17 13.81-12 21-2.22 4.17-3.37 9.31-6 14-7.42 13.22-13.92 29.88-21 43 2.81 6.49-4.48 11.51-2 21-5.71 7.96-12.1 15.24-19 22-9.82.72-15.28 8.66-22 12-6.31 3.14-14.07 3.51-18 11-12.62-3.36-17.67 6.11-21 15h-3c-4-16.65 7.28-33.58 20-37-9.24-1.69-15.08 4.12-23 3-4.26-.61-6.97-4.83-11-5-7.8-.33-12.25 7.03-20 6 3.63-16.17 20.07-15.93 30-24 9.26.26 17.92-.08 26-1 13.12-2.58 15.66-14.72 22-26 2.08-3.71 6.57-5.8 9-10 1.94-3.34 8.35-13.95 14-21 1.33-10.67 8.4-15.6 7-29 2.6-.41 2.89-3.11 4-5-.09-14.89 2.51-20.45 0-33-2.75-3.25-4.67-7.33-5-13-8.81-8.52-12.09-22.58-23-29-19.07-29.11-57.28-43.82-75-71-3.87-.8-4.42-4.91-9-5 .1-4.1-1.83-6.17-4-8-2.11 34.17-20.95 46.84-21 84-5.56 24.38-1.95 53.94-5 78-4.07 32.1-34.32 37.43-40 62-.97.03-.78 1.22-1 2h-5c-4.21 5.35 1.06 11.94 0 16-4.63-1.37-4.72-7.28-9-9-8.77 13.47-14.37 26.94-27 38-20.68 4.69-33.29 18.68-59 13-6.18 2.2-9.28 11.52-15 11 .26-18.26 16.81-24.94 27-30-7.78-3.3-12.86 2.6-21 1-4.13-.81-6.96-5.75-11-6-8.16-.51-11.14 7.31-18 8 1.73-15.45 14.41-19.37 30-23 14.45 3.8 31.68 1.96 42-4 28.09-24.09 55.93-49.71 71-81-2.94-5.04 2.06-7.44 3-12 3.41-16.62 1.52-42.78 0-61-.33-3.91-3.54-8.23-4-12-.51-4.17 1.36-8.09 1-12-.37-3.98-3.52-8.04-4-12-1.03-8.44 1.66-14.99-3-21-3.39-39.61-13.39-72.61-12-117-41.06.71-83.61 3.49-121-5-13.12-2.98-31.9-5.84-45-5 3.17 11.63 13.97 29.65 7 47-6.56 3.38-9.37 10.25-15 15-9.71 8.19-19.79 14.57-29 22-.83.67-.21 3.29-1 4-8.22 7.38-15.44 12.8-23 22-5.96 7.25-11.77 13.22-18 21-1.6 1.99-5.73 3.95-7 6-3.56 5.74-8.8 11.11-12 18-14.04 11.3-23.28 27.39-36 40-9.29 6.16-25.67 4.46-31-4-12.97 9.3-37.93 6.64-43-8 12.89 6.63 35.54 7.75 36-11 9.67-5.02 19.16-6.27 26-12 7.84-6.56 11.47-17.82 24-20 5.51-11.28 18.58-16.49 19-26-20.19 8.99-63.03 45.94-76 7 12.37 10.95 28 6.41 34-6 14.78 1.59 31.33-6.34 45-14 .08-1.58-.48-3.81 1-4 7.63-3.04 11.75-9.58 21-11 .88-3.12 2.78-5.22 7-5 4.85-8.47 16.68-14.2 19-22 4.06.28 2.26-.37 2-3 8.6-2.5 9.99-12.58 16-18 1.84-1.66 4.64-2 6-5-11.27-18.9-24.98-33.85-32-57-13.53-3.81-20.73-13.94-31-21-19.5-38.17-55.03-60.3-86-87-2.36.02-2.94-1.72-6-1-8.61-8-21.06-18.4-34-24-12.62-5.45-28.47-10.4-49-8-29.5 3.45-63.32 12.9-83 26-13.65 1.69-21.73 8.94-36 10-10.44 6.23-22.94 10.39-36 14-6.87 7.76-33.74 10.77-42 2 3.46-6.15-1.94-9.33 1-16 2.35.31.59 4.74 4 4 2.32-.7-2.96-7.98 2-8 2.57-.82 1.4 6.2 5 3-3.62-1.81 1.77-2.76 1-5 3.06.94 3.13 4.87 7 5 .12-3.55-.72-8.06 3-8 1.79 1.54.81 5.86 4 6-.32-3.32-.15-6.15 2-7 4.69-.02 2.89 6.44 8 6 .11-5.4-4.59-9.23 1-12 2.29 3.05 2.67 8 7 9-3.03-4.72-.67-8.01 1-13 1.77 2.23 1.16 6.84 5 7-.47-3.81.42-6.24 3-7 2.58.09 1.05 4.28 5 3 1.78-2.69-4.4-1.93-1-3 .89-.44 1.79-.88 2-2 .73 1.36 4.05 5.16 6 2-.67-.42 2.49-5.46 4-7 3.75 1.49 3.67 2.3 7 0 .42 1.91.36 4.3 3 4 18.5-7.5 37.07-14.93 54-24 4.3-26.4-30.44-15.05-46-14-3.72 7.17-14.49 5.44-15 11-1.57-.43-.85-3.15-4-2-1.23 3.2-4.82 4.67-11 3-1.73.61.08 4.74-2 5-2.05-.95-.85-5.15-4-5-1.97.69.25 5.58-2 6-3.73 1.06-1.58-3.75-5-3-.55 1.45 1.17 5.17-1 5-1.46-1.88-3.29-3.37-5-5-3.52 2.26 3.22 4.4 0 6-5.09-1.24-6.32-6.35-10-9-.74 6.1 2 9.47-1 13-3.04-.96-2.03-5.97-7-5-.44 1.89 1.36 6.03-2 5-3.98.64-1.43-5.23-5-5-3.53 3.1 3.08 4.35 0 7-3.72.38-2.61-4.05-7-3-.23 1.77 1.01 5.01-2 4-5.51.18-3.11-7.56-8-8v10c-4.79-5.28-16.27 4.6-17-10-2.66-.01-5.71.38-7-1-1.09-5.91-.3-13.7-5-16v-15c4.64-18.36 26.53-19.47 34-35 5.87-3.13 11.12-6.88 14-13 14.74-2.77 29.61-22.5 46-20 6.11.93 10.27 12.05 18 14 4.43 1.12 8.85-.67 13 0 3.72.6 7.68 3.73 12 4 9.16.56 14.23-5.27 26-5-.6-6.27 9.17-2.16 8-9 3.37.9.12 2.24 2 4 3.6.6 2.95-3.05 6-3-1.2 1.31-.39 1.57 0 3 3.08-4.59 8.29-7.04 14-9-1.56 1.77-4.91 1.76-5 5 8.05.92 12.85-9.72 21-12-2.17 6.53-12.96 8.54-11 16 1.24-9.13 19.76-9.28 29-22h2c3.25 3.55-4.02 2.63-4 6 3.52 1.16 11.35-1.96 13-6h3c-.96 6.7-12.59 2.75-12 11 6.82-2.18 11.94-6.06 19-8-2.63 3.04-7.37 3.96-10 7 5.28.26 14.25-4.4 21-6 3.02 3.52-6.55.85-4 7 5.51-1.15 8.09-5.24 15-5-3.58 1.42-5.13 4.87-9 6 3.78 5.43 10.87-2.21 17-1-.15 2.19-2.52 2.15-5 2 .24 3.09 8.23-1.56 7 3-5.87.7-8.99-1.89-12 1 6.22.48 14.39.45 22-1 3.24 1.15-2.69 1.13-4 1 .99 2.68 6.09 1.24 6 5 2.22-.78 3.9-2.1 7-2 1.47 3.8-4.47.2-3 4 3.98 1.62 11.29-2.02 17-2 .56 4.22-5.45 1.88-7 4 4.66 1.53 6.23 2.17 5 7 11.92 3.42 18.28 12.38 28 18 .4 2.4-4.55-.55-3 3 9.49 3.18 10.56 14.78 19 19-.73 1.78-1.82.14-3 0 3.17 9.29 18.03 9.17 26 15 26.83 19.61 84.73 11.73 119 3 5.65-1.44 19.15-4.18 26-6 21.38-1.95 43.7-2.97 64-6 11.11-.55 24.01.68 32-3 56.2-2.73 108.52 6.71 160 12 3.21-.88 2.07 2.59 4 3 17.33 2.62 35.05 5.52 52 10 6.78 1.79 12.9 5.43 20 7 11.44 2.54 23.77 3.45 35 7 30.48 9.64 62.3 13.83 97 18 66.79 8.03 145.81 8.74 215 0 11.6-.4 24.88.88 33-3 50.37-4.05 93.59-12.12 141-13 1.23-.44 2.05-1.28 2-3 41.25 1.77 92.77 2.18 130 10 57.65 5.43 104.23 28.37 157 44zm-1268 253h-4c-8.37 6.63-18.25 11.75-24 21-12.94 4.72-18.08 17.26-29 24-.12 4.54-4.4 4.94-6 8 8.98 3.14 17.66-2.22 22-7-2.21-.12-.42-4.24-1-6 18.64-8.69 32.27-22.4 42-40z"/><path d="M7363 1491h4c-9.73 17.6-23.36 31.31-42 40 .58 1.76-1.21 5.88 1 6-4.34 4.78-13.02 10.14-22 7 1.6-3.06 5.88-3.46 6-8 10.92-6.74 16.06-19.28 29-24 5.75-9.25 15.63-14.37 24-21zM7199 1070h9c-1.65 4.04-9.48 7.16-13 6-.02-3.37 7.25-2.45 4-6z" fill="#fff"/></svg>