<svg xmlns="http://www.w3.org/2000/svg" xmlns:dc="http://dublincore.org/documents/dcmi-terms/" height="201.061" width="264.525"><metadata><dc:description>Silhouette of Ktedonobacteraceae, processed by PhyloPic Tools (https://github.com/eweitz/phylopic-tools)</dc:description><dc:source>http://phylopic.org/image/1b5c60ff-4ecb-413e-a78e-7aed71d9aabe</dc:source><dc:creator>Matt Crook</dc:creator><dc:license>http://creativecommons.org/licenses/by-sa/3.0/</dc:license></metadata><g fill="none" stroke="#000" stroke-width="6" stroke-linecap="round" stroke-linejoin="round"><path d="M206.627 3c-5.58 5.062-12.551 12.574-16.742 15.184-4.19 2.61-3.805-1.256-7.008-.389-3.203.868-6.243.213-11.68 5.45-5.437 5.24-13.62 19.346-20.246 25.308-6.625 5.963-14.936 6.538-18.689 9.734-3.752 3.196-.78 5.742-2.336 8.176-1.555 2.434-5.039 2.131-6.619 5.84-1.58 3.71.217 11.952-2.336 15.185-2.552 3.233-6.315-1.587-9.344-.39-3.029 1.198-6.28 4.476-7.397 7.009-1.118 2.533 2.869 2.5 1.557 6.23-1.312 3.728-5.005 10.844-8.955 14.794-3.95 3.95-11.085 5.518-14.016 8.176-2.932 2.66-1.37 5.177-2.726 7.009-1.357 1.831-3.868 1.117-5.061 3.504-1.194 2.387.688 6.575-1.558 9.733-2.246 3.159-6.838 6.547-10.901 7.787-4.064 1.24-9.157-2.764-12.07-.778-2.913 1.985.818 6.834-.07 9.056-.889 2.22-2.489 2.571-4.602 2.624-2.114.052-4.932-2.408-7.008-2.336-2.076.071-3.31 1.473-4.283 2.725-.974 1.252.968 2.423-1.168 4.283-2.136 1.86-7.268 4.153-10.902 6.23"/><path d="M23.246 110.848c-2.726 1.168-5.33 3.504-8.176 3.504-2.847 0-6.975-.65-7.398-3.504-.423-2.853 3.707-5.563 5.84-7.008 2.134-1.445 3.94-.383 6.23-1.168 2.29-.785 4.37-3.504 7.397-3.504 3.028 0 6.784 3.362 9.345 3.504 2.56.142 2.5-2.585 4.672-2.725 2.172-.14 5.793.648 7.397 1.946 1.605 1.3 1.234 3.308.779 4.673-.455 1.364-2.6.864-3.115 2.336-.515 1.472-1.36 3.141.39 5.45 1.749 2.31 7.781 4.348 9.344 7.398 1.562 3.05-2.727 6.022-1.168 8.566 1.559 2.543 5.127 2.909 8.565 3.504 3.438.595 7.787 0 11.68 0M73.471 143.553c1.039 3.245 3.744 5.612 3.115 9.734s-5.349 8.651-6.619 13.238c-1.27 4.586-.566 9.152-.849 13.728"/><path d="M34.537 122.529c1.557-2.077 2.542-4.787 4.672-6.23 2.13-1.443 4.932-1.298 7.398-1.947M15.07 114.352c-3.375 1.688-8.166 3.25-10.123 5.062-1.958 1.812-.26 3.115-.39 4.672M59.844 163.02c.65-5.19 2.572-11.473 1.947-15.573s-5.802-4.324-5.45-7.398c.35-3.074 4.671-4.153 7.007-6.23M49.332 133.43l5.45-3.114M3 110.848h4.672M40.377 171.586c-1.947.13-4.308 1.41-5.84.39-1.532-1.022-.779-3.375-1.168-5.062M111.627 87.098c-1.428 2.596-4.603 4.9-4.283 7.787.321 2.887 4.398 4.263 5.84 6.23 1.443 1.966 1.488 4.144 2.726 5.45 1.238 1.307 3.607.512 4.283 1.947.675 1.436-.78 3.115-1.168 4.672M206.627 3c-5.58 5.062-12.551 12.574-16.742 15.184-4.19 2.61-3.805-1.256-7.008-.389-3.203.868-6.243.213-11.68 5.45-5.437 5.24-15.516 20.926-20.246 25.308-4.73 4.382-5.03 1.252-6.23-.778-1.2-2.031 3.463-6.353 1.168-7.787-2.294-1.434-4.931 2.595-7.397 3.893"/><path d="M206.627 3c-5.58 5.062-13.692 10.818-16.742 15.184-3.05 4.367 1.337 4.699-.39 9.345-1.725 4.646-6.663 14.226-9.733 17.91-3.07 3.683-3.814-.328-7.787 3.114-3.972 3.443-9.093 14.768-15.573 17.131-6.481 2.364-12.816-6.07-17.52-5.061-4.706 1.008-4.534 6.892-4.284 9.734.251 2.84 3.634 2.336 5.451 3.504"/><path d="M156.402 65.684c2.466 2.466 6.822 4.192 7.397 7.398.576 3.206-5.204 4.061-4.672 7.787.532 3.725 6.939 7.466 7.398 11.29.459 3.826-6.72 5.523-5.062 8.177 1.659 2.654 6.294-4.792 8.955-1.947 2.661 2.845 2.14 9.244 2.336 14.017.196 4.773.287 10.663-1.168 14.405-1.455 3.743-5.531 4.539-7.008 6.62-1.477 2.08.178 3.048-1.558 5.45-1.735 2.403-5.71 5.71-8.565 8.566"/><path d="M156.402 65.684c2.466 2.466 6.822 4.192 7.397 7.398.576 3.206-2.525 6.548-4.672 7.787-2.147 1.238-2.784-3.394-5.45-1.947-2.667 1.448-5.452 6.23-8.177 9.344M171.586 126.812c2.985-1.428 6.373-2.364 8.955-4.283 2.582-1.92 4.153-4.672 6.23-7.008"/><path d="M261.525 34.148c-4.283-1.168-8.937-4.702-12.849-3.505-3.912 1.198-3.982 7.82-6.23 9.345-2.246 1.524-2.904-2.331-4.671-1.947-1.767.384-1.732 3.397-4.283 3.893s-6.363-1.993-9.734-1.168c-3.37.826-7.577 3.41-9.344 5.84-1.767 2.43-2.925 4.623 0 7.009 2.924 2.386 10.831 2.947 14.795 5.061 3.964 2.114 7.538 4 8.566 7.398 1.027 3.397-3.103 6.266-3.505 9.344-.401 3.078 3.379 5.365 1.169 8.566-2.21 3.2-9.906 5.164-12.46 7.787-2.553 2.622-.438 5.212-1.946 7.008-1.509 1.796-4.093 2.325-6.23 2.725-2.136.4-4.251-1.342-6.23-.39-1.977.953-1.94 4.143-4.282 5.452-2.342 1.308-6.85.568-8.955 1.946-2.104 1.379-2.2 2.951-2.336 5.451-.135 2.5 2.435 6.104 1.557 8.955-.877 2.851-5.764 3.048-6.23 6.23-.465 3.181 3.62 6.58 3.894 9.733.274 3.153.1 5.065-2.336 8.176-2.435 3.112-8.402 8.438-11.68 9.734-3.278 1.296-4.215-1.191-5.062-3.115-.846-1.923.52-4.412.78-6.619"/><path d="M222.98 91.77c-.52-2.725.126-6.331-1.558-8.176-1.684-1.844-4.198-2.025-6.619-.778-2.42 1.246-4.11 5.61-6.23 7.397-2.118 1.788-4.39 2.832-6.229 3.115-1.838.283-2.555-1.557-3.893-1.557-1.338 0-1.549 2.46-3.504 1.557-1.956-.903-4.435-5.283-6.62-6.23-2.183-.946-3.374.156-5.06 1.168-1.687 1.012-3.115 3.115-4.673 4.673M229.209 58.676c-1.557 3.504-2.546 7.975-4.672 10.513-2.126 2.537-4.932 2.595-7.398 3.893M214.803 66.852c-1.427-.908-4.203-.012-4.282-2.725-.08-2.713 2.595-7.008 3.893-10.512M214.414 46.607c-1.168 1.427-1.894 3.55-3.504 4.282-1.61.732-3.298-1.77-5.062-.389-1.763 1.38-4.17 5.092-3.893 7.398.277 2.305 3.374 1.557 5.061 2.336"/><path d="M223.758 40.766c-3.374-.389-6.494 1.275-10.123-1.168-3.628-2.442-6.735-10.426-10.123-12.459-3.387-2.032-5.512.69-7.397 1.947-1.885 1.257-3.038 3.28-3.115 5.062-.077 1.78 3.398 1.203 2.725 3.893-.672 2.69-3.773 7.803-6.23 10.123-2.456 2.32-6.519 1.263-7.786 3.115-1.267 1.852 2.442 2.722 2.725 4.283.284 1.56-2.783 3.36-1.168 4.282 1.615.923 5.275-3.05 6.62-1.168 1.344 1.883-1.35 4.967-2.726 6.62-1.377 1.652-4.354.288-5.062 2.725-.707 2.436 1.039 6.229 1.558 9.344M237.775 66.074c1.168 3.763 2.2 8.033 3.504 11.29 1.303 3.259 3.61 5.154 4.282 8.177.672 3.023-2.078 7.033-.389 9.344 1.69 2.312 6.09-1.364 7.787.779 1.697 2.143-1.92 6.355-.39 8.566 1.531 2.21 4.932 1.038 7.398 1.557"/><path d="M235.439 83.984c1.297 2.076 2.527 3.562 3.893 6.23 1.366 2.666 1.95 6.734 4.283 9.733 2.333 2.999 7.16 6.33 9.344 7.787 2.185 1.456 2.336.519 3.504.778M237.775 38.041c.26-2.985 3.153-5.814.778-8.955-2.374-3.14-8.919-6.112-12.848-7.008-3.93-.896-6.824 3.253-9.344 1.947-2.52-1.307.754-5.726-1.168-7.398-1.923-1.672-4.915-1.347-7.787-.39-2.872.958-5.71 3.894-8.566 5.84M211.3 26.36l5.06-2.335M261.525 34.148c-4.283-1.168-8.937-4.702-12.849-3.505-3.912 1.198-6.472 6.313-6.23 9.345.243 3.032 5.424-1.988 7.009.39 1.585 2.376-.826 7.793 0 10.122.826 2.329 2.45 2.405 4.283 1.947 1.832-.458 3.374-2.855 5.061-4.283M183.266 59.844c-3.504.39-7.825 1.915-10.512 1.168-2.687-.746-1.549-5.061-3.504-5.061s-1.018 3.282-2.336 5.061c-1.318 1.78-5.45 3.05-5.45 5.451s3.23 3.976 5.45 3.894c2.22-.083 3.374-2.856 5.061-4.283M120.971 87.488c-2.206-3.245-2.318-9.12-6.619-9.734-4.3-.614-8.578 9.05-12.459 7.008-3.88-2.042 6.226-7.514 5.062-10.901-1.165-3.388-6.342-1.967-9.344-1.558-3.002.41-5.412 4.644-7.787 3.894-2.376-.75 1.343-4.669.39-6.23-.955-1.561-3.116-.519-4.673-.778M123.307 72.303c-1.168-.908-2.042-2.06-3.504-2.725-1.461-.665-3.043.177-5.061-1.168-2.019-1.346-3.595-5.734-6.619-6.619-3.024-.885-6.913 2.403-9.344 1.947-2.431-.456-2.077-2.855-3.115-4.283"/><path d="M119.803 69.578c2.336-1.817 6.905-2.544 7.008-5.45.104-2.908-5.458-2.769-6.618-5.452-1.16-2.683.26-5.97.389-8.955M188.328 129.148h-5.45M189.885 147.057l3.894 1.947M258.8 154.844c-2.077 1.947-5.103 2.459-6.23 5.84-1.128 3.382 1.227 8.894 0 12.849-1.228 3.954-4.618 7.684-7.009 9.733-2.39 2.05-4.86.54-6.618 1.947-1.76 1.408.096 4.6-3.115 5.84-3.212 1.241-10.568 2.421-14.017.779-3.448-1.642.442-7.003-2.336-8.566-2.777-1.562-7.179 1.427-10.123 1.558-2.943.13-5.3 1.628-7.397-.779-2.096-2.407-.965-8.834-3.115-11.29-2.15-2.458-5.343-2.058-7.787-1.169-2.444.889-2.741 5.26-5.061 5.84-2.32.58-3.697-4.441-5.84-3.115-2.143 1.327-.788 5.687-2.336 8.177-1.548 2.49-4.308 5.748-6.62 6.23-2.31.48-.995-3.531-2.725-4.284-1.73-.752-4.19-.735-6.23.39-2.038 1.125-2.582 4.532-5.06 5.84-2.48 1.308-6.927.28-8.956 1.557-2.028 1.278-1.038 3.375-1.557 5.062"/><path d="M198.84 172.754c.39-2.466-1.124-4.89 1.168-7.397 2.293-2.508 7.528-4.153 11.291-6.23M252.57 160.684c-1.817 1.558-3.128 4.223-5.451 4.673-2.323.45-3.28-1.813-6.619-2.336-3.34-.524-8.495-2.067-13.238-.78-4.743 1.288-10.35 6.475-14.016 8.177-3.666 1.702-4.876.425-7.787 1.947-2.91 1.521-6.97 5.623-9.344 7.008-2.375 1.385-1.838-.612-4.672 1.168-2.835 1.78-9.88 7.017-12.07 9.344-2.19 2.328.518 2.497-.39 3.894-.907 1.396-3.114 2.595-4.672 3.893"/><path d="M227.262 162.242c0-2.466-.817-4.947 0-7.398.817-2.45 3.115-4.412 4.672-6.619M235.828 191.053l1.168 7.009"/></g></svg>