<svg xmlns="http://www.w3.org/2000/svg" xmlns:dc="http://dublincore.org/documents/dcmi-terms/" height="455" version="1.2" viewBox="0 0 676 455" width="676" overflow="inherit"><metadata><dc:description>Silhouette of Lanthanosuchus watsoni, processed by PhyloPic Tools (https://github.com/eweitz/phylopic-tools)</dc:description><dc:source>http://phylopic.org/image/63c1181f-e35f-4758-9545-7e9c0f8e661e</dc:source><dc:creator>Nobu Tamura (vectorized by T. Michael Keesey)</dc:creator><dc:license>http://creativecommons.org/licenses/by/3.0/</dc:license></metadata><path d="M0 394v-10c4.767-22.988 23.341-37.206 24-61 6.846-1.01 1.839-8.344 9-8 .283-3.045-3.204-3.889-1-6 10.241-1.494 19.192-12.757 27-20 .605-5.02-7.626-5.135-6-8 6.752-2.773 10.667 2.127 17 1 5.036-.896 6.709-5.74 12-7 5.389-1.283 5.281.632 11 1 8.968-4.737 21.489-6.562 24-16 3.164-11.891-8.166-26.418-5-42-13.06 6.193-28.827.05-38 7-7.928 6.007-7.152 20.239-17 22-.861-7.191 4.025-11.078 6-18-12.467 1.591-21.866 11.39-32 12 3.421-8.579 13.695-10.305 18-18-9.959.374-19.164 1.502-29 2 3.912-10.088 20.664-7.336 30-12-8.814-3.186-22.758-1.242-30-6 10.015-4.03 25.963.58 37-4-1.059-8.95-15.038-10.284-16-16 12.574.299 18.523 9.37 30 10 21.26 1.167 42.425-16.065 66-12 14.162 8.504 7.075 38.258 21 47 16.441-7.226 23.779-23.554 42-29 13.092-12.323 29.685-22.77 49-33 19.874-10.526 44.293-13.299 62-23 13.512-7.402 11.448-16.871 13-33 1.424-14.805 6.333-27.34 9-41 7.857-18.841 55.132-2.455 58-23 1.131-8.102-7.219-15.885-3-26 3.835 1.832 2.627 8.706 7 10 .326-10.771-.734-18.561 4-26 4.415 6.585 2.929 19.071 5 28 10.746-8.257 10.889-32.441 23-36 .545 11.368-7.501 19.738-7 30 10.68-7.32 15.113-20.887 28-26-6.08 12.92-14.85 23.15-19 38 9.288-.045 13.47-5.197 24-4-9.029 10.971-25.524 14.476-35 25-7.703 19.678-24.592 35.345-46 38 1.221 8.228 3.223 20.621 3 27 16.369 6.779 33.199 1.244 49-1 76.136-10.81 142.573 2.746 190 31 24.995 14.89 48.188 34.223 62 56-28.479-20.033-58.418-39.393-99-50-23.532-6.151-50.706-12.588-75-10-26.813 2.857-47.791 11.928-68 21-10.613 4.764-24.752 8.999-31 16-11.238 12.592-1.574 34.076-11 49 19.457-1.025 32.46 3.784 42 16 3.971 5.085 5.859 13.539 12 18 8.81 6.4 20.289 3.722 30 11-7.91 3.312-18.563-2.102-26 1 7.973 3.7 22.467 6.191 25 12-9.452.826-24.059-5.128-35-3 4.498 13.168 18.074 17.26 23 30-15.295-5.086-19.447-18.051-33-23-3.542 6.125-1.77 17.563-6 23-4.059-6.608-2.043-19.29-4-28-6.761 2.239-5.166 12.834-11 16-.127-11.519 3.506-25.059-3-32-11.354 3.646-25.468 4.532-41 4-17.229-6.104-13.367-33.299-18-52-19.273 25.064-41.021 46.773-65 67-17.916 15.112-38.238 26.854-57 41 10.745 2.921 25.299 2.035 34 7 11.364 13.209 5.161 42.759 21 51 7.356 3.828 17.951.043 27 5-8.032 1.968-17.995 2.005-22 8 1.125 11.881 15.825 15.502 17 24-11.513.097-17.014-10.873-25-11 1.598 10.068 6.856 16.478 9 26-10.606-2.129-13.522-17.052-21-19 .059 9.059-1.086 16.914-4 23-5.582-6.752-3.812-20.854-6-31-3.495 5.515-10.224 13.096-14 15-1.021-11.335 9.897-16.199 10-26 .14-13.322-12.75-24.893-17-37-19.843 9.229-45.968-3.922-61 2-7.643 3.011-9.822 10.07-15 14-2.9 2.201-8.833 2.064-11 5-3.048 4.127-.199 11.688-6 15-3.58-.087-1.098-6.235-6-5-4.248 2.418-10.187 3.146-12 8-5.898-.018-12.339.426-18 4-34.298-2.303-97.924 16.27-105-25z" fill-rule="evenodd"/></svg>