<svg xmlns="http://www.w3.org/2000/svg" xmlns:dc="http://dublincore.org/documents/dcmi-terms/" height="1701" version="1.2" viewBox="0 0 1287 1701" width="1287" overflow="inherit"><metadata><dc:description>Silhouette of Lauraceae, processed by PhyloPic Tools (https://github.com/eweitz/phylopic-tools)</dc:description><dc:source>http://phylopic.org/image/1983f288-4843-4b01-be99-3a4f49ae3a13</dc:source><dc:creator>Francisco Manuel Blanco (vectorized by T. Michael Keesey)</dc:creator><dc:license>http://creativecommons.org/publicdomain/mark/1.0/</dc:license></metadata><path d="M1097 0h2c18.862 1.303 19.523 17.039 27 32 3.145 6.292 9.869 14.069 12 20 3.049 8.483 4.182 20.058 7 27 4.208 10.363 11.025 17.561 15 26 10.021 21.275 13.752 61.814 12 85-2.139 28.304-15.964 54.332-23 79-21.778 76.354-74.92 124.223-142 153-1.284 12.841-8.981 23.995-8 35 1.025 11.501 15.1 19.063 14 32 7.318-7.015 12.577-16.089 23-20 2.091 2.661-3.049 15.708 1 17 19.596-4.588 30.771-16.51 46-23 26.642-11.353 81.375-15.417 111-7 21.117 6 52.556 27.365 65 43 16.568 20.817 20.388 44.527 28 72-5.553 14.409 4.43 44.457-12 48-11.892 2.565-24.848-7.505-34-10-37.065-10.106-93.06-9.645-124-37-11.242-9.939-21.332-25.674-32-40-6.005-8.064-26.528-35.611-36-37-8.933-1.31-28.15 11.269-28 17 .109 4.162 11.493 8.409 9 12 4.869-1.549 9.816-8.943 18-7 11.855 2.815 9.494 22.264 1 28 21.416-1.545 15.894 25.595 3 29 20.429 22.331 34.802 48.443 53 72 18.796 24.331 30.858 51.326 47 78 15.182 25.087 29.687 54.639 37 88 3.609 16.465 7.346 33.422 11 51 3.571 17.179 8.591 35.328 10 53 4.742 59.458-2.144 114.7-14 161-8.748 34.161-14.791 73.04-27 105-3.607 9.443-12.255 24.189-12 32 .11 3.372 4.767 10.123 6 15 2.379 9.406 2.688 20.255 5 27 3.494 10.189 9.979 19.725 15 30 14.865 30.427 25.227 68.562 30 108 4.754 39.283 19.664 73.434 32 106 4.091 10.799 11.326 20.753 12 32-44.973-14.242-88.238-32.492-132-45-15.416-4.406-30.943-6.325-47-10-56.089-12.838-94.217-44.163-138-71-23.035-14.119-39.872-28.663-57-47-16.928-18.123-31.615-37.887-50-55-35.136-49.404-91.962-85.07-112-149-12.173-38.838-33.702-74.277-43-115-7.267 6.066-17.006 9.661-24 16-.438 17.608 7.513 25.313 14 37 4.462 8.038 8.264 16.353 12 24 23.965 49.053 53.502 93.506 73 141-9.527-7.3-14.907-16.025-23-24-7.954-7.838-18.235-12.725-27-21-28.506-26.913-27.559-76.222-54-107-9.253 56.565-14.106 120-17 185-1.644 36.918-12.098 73.418-12 111 .066 25.355-4.146 46.451-8 71-3.061 19.495-5.79 39.176-9 59-6.638 40.988-4.611 84.817-24 111-8.737 11.799-31.365 17.883-34 35-1.091 7.086 5.039 17.828 0 23-3.164-8.358-2.345-10.9-7-16-6.39.416-14.152 7.745-20 12-6.423-2.243-14.935-2.398-18-8 8.507-1.132 26.474 3.558 27-6-21.966-2.369-32.228-25.104-49-36 .003-10.499-8.474-18.247-9-29-.463-9.459 4.796-19.719-1-29 10.302 7.341 3.577 20.438 7 31 2.816 8.689 13.45 13.803 14 23 12.082-.829 22.4 12.614 35 5 5.297-3.201 12.572-19.244 17-29 5.075-11.182 10.178-22.29 13-33 3.861-14.651 1.69-30.812 5-45 2.707-11.601 7.469-22.909 10-35 2.539-12.126 5.433-24.204 8-37 5.167-25.756 5.69-53.201 7-83 1.704-38.758 14.442-82.921 14-121-.165-14.202-1.782-27.918 0-41 1.681-12.338 6.377-26.38 7-43 .585-15.63-.187-32.062 2-48 4.074-29.691 11.037-69.709 6-90-1.262-5.084-5.643-11.598-10-14-1.747 5.684 4.516 8.52 4 16-1.608 23.328-33.305 17.988-22-8 3.582-8.234 14.155-7.706 16-15-8.837-12.417-15.308-34.943-33-33-11.746 1.29-14.542 17.016-24 23 10.449 6.218 7.234 26.1 13 37-8.308 17.066-42.005 14.688-48-2-2.901-8.077 3.99-10.287 3-20-9.139 8.197-14.896 25.101-25 29-2.244-12.072 5.798-20.564 5-30-.646-7.64-8.557-11.742-6-20 14.541-4.522 37.053-11.922 36-24-16.351-1.683-10.259 12.478-23 13-18.173.746-18.627-29.522-1-29 5.401.16 8.704 8.695 15 10 2.646.549 13.279-1.239 15-2 3.368-1.488 6.37-5.266 6-10-5.537-5.536-11.859 6.01-20 1-16.296-11.626.348-39.702 17-40 5.511 3.783 11.141 6.221 12 13 .956 7.54-7.901 13.707-4 19 6.898-3.102 5.387-14.613 8-22-2.67-6.331-11.113-20.631-5-26 5.443-1.526 4.474 11.344 9 14 10.084-14.307 9.429-35.029-11-38-9.705 24.872-25.238 42.777-44 60-6.25 5.737-15.541 11.091-17 18-2.606 12.343 1.627 27.727 1 41-1.603 33.922-3.519 62.342-10 90-3.871 16.52-5.642 33.461-10 48-8.796 29.347-26.712 53.066-34 82-7.649 30.367-20.047 53.668-40 75-18.795 20.096-39.534 39.928-59 57-10.585 9.284-19.993 17.387-32 25-11.461 7.268-23.875 13.65-37 21-24.987 13.992-51.075 28.751-78 38-27.293 9.375-52.362 24.19-79 36-13.613 6.035-25.768 12.46-38 20-12.056 7.432-21.229 17.189-33 25-9.046-14.836-5.253-33.864-4-51 2.688-36.755 8.365-70.789 17-105 4.335-17.176 7.534-34.812 12-51 6.419-23.268 19.341-45.021 30-66 11.03-21.711 20.137-43.883 34-62 28.939-37.82 57.639-69.255 94-98 28.355-22.416 54.068-42.378 87-57 10.587-4.701 21.562-10.044 32-16 35.663-20.35 75.752-39.026 113-55 5.945-2.55 13.316-3.164 19-6 8.167-4.075 16.694-16.192 26-24 16.645-13.965 29.356-27.689 35-49-22.244.756-44.11 1.89-61 8-16.33 26.121-39.046 49.428-65 68-24.887 17.809-53.623 37.836-87 46-15.027 3.676-35.686.411-51 6-8.041 2.935-15.014 13.44-23 19-44.436 30.934-119.334 27.923-188 33-6.484.479-15.414 5.284-21-1 15.591-18.805 36.328-28.669 53-46 16.699-17.359 29.229-38.65 43-58 12.942-18.186 32.259-36.745 50-51 19.201-15.428 41.521-25.316 69-32-9.647-10.223-28.775-5.299-45-8-48.023-7.994-85.812-22.229-115-46-15.223-12.398-27.964-29.292-42-44-13.916-14.583-31.488-26.242-42-45 18.203.225 32.223-8.333 48-10 5.443-.575 11.27.682 17-1 15.485-4.546 25.44-27.079 47-23 11.673-7.089 20.936-18.895 37-25 31.97-12.151 77.695-3.627 111 3-.218-17.807 23.173-7.941 36-3 26.496 10.206 56.204 22.979 79 27 3.526-18.93-16.341-28.255-13-47 17.214 7.118 16.494 26.594 25 39 4.626 6.748 11.617 15.083 19 20 23.67 15.762 56.249 16.466 89 26-11.436-13.518-27.695-21.463-40-34-12.284-12.516-22.17-26.897-33-41-34.665-13.001-60.794-34.54-88-55-14.075-24.324-40.572-36.661-62-57-21.432-20.342-38.929-48.267-63-63-8.686-5.316-18.72-5.877-19-18-12.732-6.935-20.539-18.794-40-19-4.724-13.61-22.117-14.55-32-23-1.768-6.38-3.288-17.844-1-25 11.673.993 20.505 4.829 28 10 1.298 5.036 3.746 8.92 4 15 12.683 3.317 17.468 14.532 34 14 5.656 8.678 12.824 15.843 21 22 4.384 2.955 6.568-2.268 11 0 11.494 5.859 14.993 18.248 22 28 11.168 15.543 28.171 26.316 40 41 7.521-11.449 22.55 1.697 23 15 12.197 14.116 21.49 35.412 42 38 11.104 13.896 24.987 25.013 42 33-8.21-14.866-22.688-24.777-33-38-11.872-15.223-22.613-34.449-34-53-11.564-18.841-24.043-38.861-29-59-3.777-15.344-2.902-31.716-4-48-.982-14.571-5.828-27.709-9-43-6.784-32.705 1.822-60.837 6-87 6.66-41.708 12.224-85.666 25-119 8.151-21.269 16.355-42.173 15-69 21.383 8.221 48.089 13.831 65 28 21.952 18.393 31.132 46.718 46 72 11.165 18.985 27.014 35.828 40 54 13.077 18.299 26.384 36.135 38 56 28.246 48.304 53.813 100.047 61 168 38.614-60.386 90.06-107.94 148-149-23.588-25.78-52.577-45.717-81-66-28.507-20.344-55.419-42.088-80-67-16.465-16.687-30.869-38.606-41-61-10.447-23.092-22.513-46.183-30-71 20.648-3.177 33.986 3.527 50 5 23.363 2.149 41.24-3.051 61-3 41.432.106 81.954 12.327 115 24 17.885 6.317 34.269 12.616 49 20 15.666 7.853 26.369 19.038 41 29 13.533 9.215 28.447 13.253 41 20 22.49 12.089 41.563 26.99 57 47 6.408 8.307 14.135 15.284 19 23 11.231 17.812 17.296 41.158 22 62 6.994 30.986 19.906 67.284 28 98 5.887 22.341 2.541 45.579 20 55 .095-9.905 3.35-16.65 4-26-12.07-33.765-25.621-74.46-27-119-.719-23.201 0-47.367 0-72 0-33.218 2.428-71.351 11-95 3.003-8.284 4.368-17.393 7-25 5.303-15.331 15.687-31.207 25-45 21.754-32.216 47.658-52.339 87-63zM973 520c4.781-9.83 15.789-39.475 14-51-1.598-10.291-14.585-16.334-18-27-37.504-2.171-64.898-19.757-97-24 10.542 43.769-2.189 93.796-13 129 .932 2.735 3.068 4.265 4 7-6.833 1.836-7.304 18.438 2 18 1.858-11.141 13.828-12.172 16-23-15.474 3.969-16.491-18.436-6-21-6.468-9.032-2.218-25.534 12-23 1.36-8.052 15.946-11.137 21-4 7.78-13.103 26.271-6.2 23 9-2.689 12.499-26.667 18.543-23 36 6.246 7.754 12.176 15.824 16 26 20.37-11.663 37.449-28.25 49-52zm18-8c4.412-.254 5.619-3.715 9-5-.404-6.263.079-13.413-5-15-.045 7.955-2.912 13.088-4 20zm22 10c-14.463 6.537-23.704 18.296-33 30 4.789 2.211 10.756 3.245 17 4 2.431-9.333 14.053-12.288 23-7-1.539-6.206 3.645-5.689 4-10-3.015-6.319-7.054-11.613-11-17zm28 26c2.375-.625 4.655-1.345 5-4h-6c-.075 1.742.223 3.11 1 4zm-149 4c1.071 16.126 4.383 39.04-18 35-7.801 10.248 3.924 16.726 3 31 18.079-7.254 18.19-32.476 37-39-1.607-11.103-5.582-30.25-22-27zm114 46c5.197-11.469 14.811-18.523 19-31-9.412 7.436-23.297 8.958-29-3-1.588 2.487-9.151-2.748-11 0 10.469 7.865 14.42 22.247 21 34zm-32-12c3.695-.638 9.962 1.295 12-1-4.187-1.814-3.808-8.192-10-8 .43 4.096-.927 6.407-2 9zm-36 7c3.676.325 5.533 2.467 9 3-.008-5.131 1.464-6.561 0-11-4.712.955-7.26 4.074-9 8zm22 4c4.087-1.046 6.936.373 8-5-3.449.885-8.411.255-8 5zm-122 14c11.014-1.83 22.436 2.293 30 7 .418-7.751-2.077-12.589-4-18-8.133 2.489-14.008-3.3-19-7-1.275 7.058-5.663 11.004-7 18zm102-8c-.398-4.935-8.328-2.338-13-3 .605 6.004 8.26 3.424 13 3zm43 22c-3.332.335-4.436 2.897-9 2-4.443 21.326-37.699 9.216-26-13-9.501.312-11.064 13.065-20 14-6.996.731-10.236-5.342-16-6 .745 3.078-2.745 1.922-2 5 12.67 2.33 22.302 7.698 34 11-7.418 14.5 12.402 29.582 1 42-4.129-20.555-15.208-40.589-35-41-22.915-.476-27.086 24.527-38 38-13.88 17.135-30.496 30.811-40 44 15.136 2.865 30.191 5.809 43 11-1.92-13.035 7.443-18.599 19-15 3.963-21.836 40.831-8.975 27 11 7.021 2.979 14.452 5.548 13 17 5.848-12.059 10.169-24.235 15-36 15.057-36.666 33.576-69.01 51-103-1.377.043-2.195-.471-3-1-3.518 7.815-12.234 10.433-14 20zm-140 39c6.657-7.136 19.16-15.81 19-25-.178-10.179-14.002-17.567-30-17-12.433 14.9-24.156 30.511-37 45 15.341.992 22.579 10.087 28 21 6.559-4.765 11.225-14.592 20-24zm-302 37c2.33 3.67 5.632 6.368 6 12 11.712.472 8.03-13.713 8-20 3.989-.989 3.011 2.989 7 2 2.458-3.209 6.292-5.042 8-9-6.795-11.205-9.271-26.73-16-38-1.592 20.408-7.144 36.856-13 53zm203 66c9.755-8.835 23.77-15.646 34-26 4.832-4.891 9.697-10.453 14-16 4.567-5.889 10.648-10.824 14-16 11.289-17.433.307-33.278-20-34-30.367 28.3-62.275 55.058-106 70-.923 4.589 2.502 4.832 2 9 8.027-.982 14.602 10.591 24 5 1.958 3.708 8.432 2.902 11 6-1.162 13.36 2.581 21.809 3 31 9.052-5.679 14.788-20.656 24-29zm-163-46c4.083-10.049-2.732-20.357-9-26 1.17 10.496-1.061 24.394 9 26zm-175 6c-18.664-5.489-33.891-14.945-54-11 17.521 23.881 46.23 37.605 68 59 14.735 14.481 24.508 40.476 30 63 6.699-13.167 26.817-6.467 25 7 13.976 11.581 34.934 10.657 51 2-7.714-10.286-7.264-28.736-27-27-2.811-3.472-3.884-9.574-2-15 8.651-2.349 10.789-11.211 21-12 6.592 5.258 18.697 10.893 16 21-1.124 4.211-9.788 4.56-11 10-1.745 7.835 10.251 25.636 19 24-.774-7.238-4.573-16.744-3-23 6.05 1.616 6.95 8.384 13 10-4.161-30.506-15.943-53.391-26-78-38.532-7.126-82.827-19.067-120-30zm126 13c4.275.275 5.097-2.903 7-5-2.754-2.579-3.639-7.028-8-8-2.526 4.621.66 8.345 1 13zm286-7c-10.554 14.446-24.667 25.333-37 38 7.859-.904 15.105 2.689 22 1 5.734-1.405 6.689-7.516 11-7 1.639 6.639-3.269 6.731-4 11 6.918 2.083 9.358 8.642 14 13 14.326-6.888 5.785-32.707 27-31 10.015.806 15.66 9.001 13 20-2.682 11.087-21.651 12.943-31 17 3.185 13.315 19.562 6.33 20 21 .457 15.314-22.316 19.664-27 4-1.77-5.919 2.809-9.833-2-17-13.592 4.265-30.632 6.894-31-8-.176-7.127 5.315-10.057 10-15-36.023-14.58-51.496 27.36-65 47-3.789 5.511-9.805 10.424-13 16-10.826 18.891-15.435 42.635-21 60 11.575-.49 27.816-4.802 38-10 4.359 8.26-.366 18.777-2 27-21.157 6.254-48.551 1.232-60 18 25.727 2.623 48.507 5.698 70 10 19.619 3.927 40.735 5.158 57 8 34.973 6.11 53.6 24.994 79 38 2.278 1.166 5.859 5.343 9 3-11.193-66.023 2.009-135.396 21-186-9.745 1.079-16.232-1.102-20-6-5.998 16.905-35.04 9.022-29-11 2.414-8.001 14.901-4.867 16-16-8.4-.606-13.396-8.802-10-18-4.311-4.074-10.342-10.458-7-19-12.738-5.928-29.106-8.227-48-8zm-219 27c-.653-9.014-1.747-17.586-6-23 .476 10.041-.256 17.478 6 23zm310 2c7.338-.01 15.03 3.768 22-2 .746-2.373 5.65-9.726 1-11-2.651 9.349-19.465 4.535-23 13zm-345 77c5.453-3.88 6.933-11.733 10-18-9.123-9.952 1.406-23.503-1-35-1.32-6.309-10.805-18.796-17-22-4.678-2.42-10.251-2.417-16-3 8.932 25.068 19.67 48.33 24 78zm42-70c8.663 8.337 1.923 32.077 7 44 2.476-17.269 12.984-36.91 12-51-5.333 3.334-12.082 5.252-19 7zm289 23c3.518-3.522 3.314-15.186 0-20-.643 4.992-6.23 17.74 0 20zm28-3c1.622-6.49-6.236-11.616-12-14 .98 7.687 6.943 10.39 12 14zm-277 49c8.744 9.922 32.896 4.437 38 18-3.387 1.947-5.2 5.466-7 9 4.124.209 3.75 4.917 7 6 7.266-15.067 9.312-35.355 20-47 1.052-.055.787-1.282-1-1-15.711 8.29-40.455 7.545-57 15zm-65 5c.257-2.077 4.394-.273 5-2-1.151-2.515-.474-6.859-4-7 .878 3.612-3.904 6.673-1 9zm55 52c6.185-4.366 11.844-19.192 10-25-3.125 1.875-5.658 4.342-11 4-3.195-11.557-6.574-26.585 0-36h-15c5.373 18.961 13.048 35.618 16 57zm-180-39c2.955 10.582 27.403 10.132 34 3-9.993-4.356-25.386-7.824-34-3zm124 4c2.342 1.367 8.361 4.247 11 2-2.208-.125-.425-4.242-1-6-4.616.051-8.605.728-10 4zm-74 9c4.292-1.375 12.118.784 14-3-3.698-3.624-12.379-1.327-14 3zm90 17c-.437-5.23-2.563-8.77-3-14-4.168-1.499-6.992-4.341-13-4 4.079 7.255 8.875 13.791 16 18zm85-13c-4.983 4.017-9.756 8.244-15 12-6.283-1.051-10.164-4.502-13-9-2.63 8.703-6.152 16.515-9 25 4.692 2.124 10.374 2.2 16 1 2.841-9.159 4.952-19.048 19-17 1.113-2.585 6.309-10.522 2-12zm-94 52c5.19-1.143 11.063-1.604 17-2 .403-4.736-1.785-6.882-1-12-10.243-5.09-17.506-13.161-27-19 3.328 11.339 7.52 21.814 11 33zm54-9c6.425 3.205 18.948-1.521 23-7-9.311.689-23.074-3.073-23 7zm-82 22c6.283 5.051 9.041 13.626 13 21 .393-9.401-4.828-21.833-9-30-1.574 2.759-2.79 5.877-4 9zm39-8c-14.288 6.527 6.545 47.981 10 53 4.52-16.863-13.178-28.987 0-39-3.106-8.629-1.854-17.722-10-14zm-49 34c1.44.56 2.44 1.56 3 3 4.121-.546 6.202-3.131 9-5-2.059-4.274-1.486-11.181-6-13-1.656 5.344-5.355 8.646-6 15zm101 13c3.814.647 13.371 2.566 17-3-4.202-6.131-1.353-19.313-7-24-5.562 6.771-7.517 17.15-10 27zm-89-3c7.454 3.546 13.61 8.39 22 11-1.246-4.087-2.65-8.017-5-11-4.759-.232-13.55-4.859-17 0zm-48 47c4.914-9.44 15.009-4.266 23-8 4.001-1.87 7.33-10.735 10-14 4.022-4.919 9.074-7.792 10-14-2.05-1.617-2.521-4.812-4-7-25.325 2.008-26.777 27.889-39 43z" fill-rule="evenodd"/></svg>