<svg xmlns="http://www.w3.org/2000/svg" xmlns:dc="http://dublincore.org/documents/dcmi-terms/" height="411.127" viewBox="0 0 385.667 411.127" width="385.667" overflow="visible"><metadata><dc:description>Silhouette of Lecanora muralis, processed by PhyloPic Tools (https://github.com/eweitz/phylopic-tools)</dc:description><dc:source>http://phylopic.org/image/2ab612df-c754-4db8-88e3-f8ae1b1f2a44</dc:source><dc:creator>Gareth Monger</dc:creator><dc:license>http://creativecommons.org/licenses/by/3.0/</dc:license></metadata><switch><g><path d="M193.667 302.241c2.923-.675 2.667 7.666 3.667 8.333 1 .667 10.333-6 11-3.333.667 2.667.001 7.001 3.667 8.667 3.666 1.666 8.333-3.334 8.333-.667s-2.333 6.667-.333 7c2 .333 1.999-7.333 4.666-8 2.667-.667 3 1.999 3.667 4.333.667 2.334 6.333 13.333 2.333 12-4-1.333-8.333-6-8.333-4s2.667 9.667.667 9.667c-2 0-3.334-1.333-3.334-1.333l3 3-2.333 5.333s.001.999-1.333 1.333c-1.334.334-2.667-1-2.667-1l-3.333-.333-.667 2.333 4 1.667 1 5.667-5 2.333 12.333 5.667 4 1 4-5.334s4.666-1.999 7 .334c2.334 2.333.667 6 .667 6l3.667 1.333s-.667-7 2.333-5-1 12.333-1 12.333l3 1.667v-5l5-4.667-2.333-12.666 5 1 2 7v2l6.333 6.666-3 8.334s-1.666-1.333-3.333 1c-1.667 2.333.333 5.333.333 5.333l.333 4.333 6.334-1.333-4 5.333.666 1.667 2 3v4.333l-1.333-.666s4 5.333 0 6.333-10-3.667-10-3.667-.999 2.667-5.333 1.667c-4.334-1-5.334-1.333-5.334-1.333l-3.666 1s-1.668 12-4.334 7c-2.666-5-7.666-6.667-7.666-6.667s-.334 4-4.334 2c-4-2-5-4.667-5-4.667s-16.666 8-10.333-2.333-11.666-3.999-7.333-7.333-.666-6.667 2-7.667 1-7.333 1-7.333-9.667-3.668-3.667-5.334c6-1.666 10-.666 10-.666s-4.333 1-4-3c.333-4 .333-8.334.333-8.334s-12 3.667-7.333-1.333-.333-6 3.667-9 4-4.667 4-4.667.666-.334 2.333-3c1.667-2.666 5.667-8 2.667-8.333-3-.333-8.667 2.667-8.667 2.667l-.667-5.334-4-6.666s-3 8.333-3 2.333-2.666-12.667-2.666-12.667-1.668-9.333 2.666-10.333zM187.668 347.908c.667 2.666 7 8.666.667 12.666s-1 3.334-1 3.334 7.333 4.667.667 7-16 8.334-16.667 4c-.667-4.334-5-1.334-5.667-8.667-.667-7.333-4.334-11.333 1.333-10 5.667 1.333 8.667-.667 8.667-.667s-5-1-1-5 12.333-7.999 12.333-6.666c0 1.333.667 4 .667 4zM85.668 282.908c4.667 5.667 4 7.667 6.667 16s2.667 6.332 2.667 12.666c0 6.334 1 7.334 1 7.334s-1.666-6 4.667-7-4-5.001.333-6.334c4.333-1.333-2.667-12.666 4-12.666s12-2.334 13 .333c1 2.667.333 1.667 1 7s3.667 5.333 4.667 8.333 5 3.668 6 4.334c1 .666-2.667-6.666 7-5 9.667 1.666 11 1 5.667 9s-9 7.333-11.667 7.333 12.333-2.001 12.667 2.333c.334 4.334 13.667 22.333 8 25-5.667 2.667-11.333 24.668-17.667 11.334-6.334-13.334-15.667-15-14.667-20s3-10 3-10l-4.333 1.333s-4.333 10.667-7.333 9c-3-1.667-7.667-1.667-8-6-.333-4.333 0 11.667-6.333 2.667s-6.333-12.334-6.333-12.334l-4.667-4s-25.666 5-14.333-3.333 3-11 3-11-32-14.334-22-13.667c10 .667 16.333 0 16.333 0s-5.667-10.666 1-11c6.667-.334 16.665-1.666 16.665-1.666zM148.668 279.575c3.667.333 8 5.333 4.667 6.333s-4.667-2.333-4.667-2.333l-1 3.667s-5 3-3.333-2c1.667-5 4.333-4.667 4.333-4.667M159.334 275.908s-10-14.667-1.667-10 14 9.667 14 9.667l2.667-9s-4.333-6.334-3-9.667c1.333-3.333-.333-12.667 5-8s9.667 4.667 9.667 4.667l2.333 4 7-3.333s-7.001-3 .333-4.333c7.334-1.333 8 2.333 8 2.333s10.667 2.667 8.667 5.333c-2 2.666 9.667-8.667 9.667-.333s9 17-4 14-22-12-24.667-12c-2.667 0-3.667 5-7 3.667-3.333-1.333 2 12-3 16s-6 7.333-10.667 6.333-13-1-8.667-5.333-4.666-4.001-4.666-4.001zM123.668 229.241c2.667.333 3.333 2.333 7 7.333s4.667 5.333 4.667 5.333 6-6.333 6.667 0c.667 6.333 1.333 11.667-2 15.667l-3.333 4s.667 4 .667 6 7.667 5.333 0 5.667c-7.667.334-13 2.667-13 2.667l-3.667-1.667s0 6.333-3 4-11.667-7.667-8-8c3.667-.333 4.333-5 4.333-5s0-9.333 5.333-8.667c5.333.666 12-.667 12-.667l-10-4.667-9-.667s-5.667-6.333-3.667-11.333 5-11.333 8.333-9 6.667-.999 6.667-.999zM328.001 329.241l-10 8s5.667-.001 0 6.333c-5.667 6.334-7.333 6.666-8 8-.667 1.334 2 20.666-8.667 18-10.667-2.666-15.667-11.666-15.667-11.666s-9.667 9.333-10 1.333c-.333-8 4.334-8.667 4.334-8.667s-11-6-5.667-9.333.667-19.667 8.667-12.667c8 7 8.333 2.334 8.333 2.334s-6.333-4-2-5 5-6 5-6-.999-4.334-.333-5.334c.666-1-15.666 3.334-11-1.333s5.666-8.667 5.666-8.667-6.332-4.666-.666-7.666c5.666-3 7.999-6 9.666 2.333 1.667 8.333 6.667 6.667 6.667 6.667s-2-7.668 3-6.334c5 1.334 4.666 2.667 10.333 4.667s11 4.333 11 4.333l10-3.333s6.666-6 8-1c1.334 5 4.334 9 4.334 9l4.333 6.667s25 1.666 11 10.666 3.333 19.334-14 14.334-14 18.333-21 9.333c-7-9-3.333-25-3.333-25z"/><path d="M221.334 286.575c-4.333.667-6.333-6.667-10-4.667s.333 10.667.333 10.667l.334 5.334 5-1.667 8.666 11 6.334 2.667 4-2 3.333 5 4.333 1.333 1-6.333 4 .333 9 8 7-9h11l-1.666-7.667v-4l4.666-5.333.334-7 1.666-5.333 6-4.667s-.333-2.667-1.333-2.667 2.667-7.333 2.667-7.333l-3.334-.333-5.333 1.667-3-.667-2-.333-5.333-.333-3.334 4.333-2.333 1-.333 3.333v3.333l4.333 4.667.667 7.667-4.334-4.333-3-7-8.666-.333 4 8.667-8.334-1.667 2.667 7.333-15.333-2 7 7.333-7.667 3-3.333-9.667 1.333-5.333 13-4v-3.667l4-6.333 9-.333.333-2.333 1.334-3-5-.667-.667-6.333h-4.333l-6.334-2.333-5.666 5.333-7 3.667-.667 3.667 1.333 2.667-6.666 3.333-5.667 4.667 2 8.664zM318.001 286.575s-.667 7-1.667 7.333c-1 .333-8-2.667-8-2.667s-.666-3.667.667-4c1.333-.333 9-.666 9-.666zM321.667 277.908l.073.665.594 5.335 4.667 3 4 4-1.667 5 5.667 1 4.666 3 6-3.334 5 .667.334 3.667 3.666 1.333.334 8.333 4.666 4 8 3.334 4-2.334-5.333-6-3.333 3.334-.334-8.334-3.666-2.666 2.666-7.334 6.667-2.333.667-5 3.333 2.333 5.333-9-8-2v-7.333l3.334 2.667 3.666-2.667-1-6.667-8.333-5.333h6.333l-2-6.667-3.666.333 4.666-3.667-.666-11.333 10.666 2.333 3-5.333-6.666-9-3.334-.333v-8.333l4 .333 3-2-1-11-11-6.333-3.666 2.667-5.667-3.667-10.667 2.333-9.333 5.667-2 5.667-6.667-1.667 2.667 6 4.667 2.333 8.333-3-4.667 18.333-6.666.667s-7 1.333-7 5.333 1 5.667 2.333 6c1.333.333 1.667 3.667 1.667 3.667s-4 1.333-4 2.667c0 1.334-.667 3.667-.667 6.333 0 2.666 3.333 5.333 3.333 5.333l-5.333 9.333-3.333-1-2.334 6.668zM277.267 63.926c-1.646.659-5.103.659-5.103.659l-.493-1.646h-5.432l-7.078-1.481.329-8.56-2.14 1.317-5.268-5.596-.494-7.407 2.634-3.292v-4.444l-2.304-.658 1.811-2.14-.165-3.292-1.976-2.14-.658-2.14-3.456.165-3.457-6.914s2.633-4.773 3.95-1.152c1.317 3.621 3.786 5.761 3.786 5.761s.823.165 3.786-.987 5.432-.494 5.432-.494-1.317-2.14-.823-3.95 1.318-4.279 2.799-3.457c1.481.822 1.975.659 1.975 3.292s-1.975 7.078-1.975 7.078l1.975.659s1.151-1.975 5.761 0 14.155 6.914 8.065 8.065c-6.09 1.151-3.785 3.457-3.785 3.457l5.432 6.09.329 2.963 1.316 2.633.659-3.127h1.975s-4.443-6.255-.822-9.876c3.621-3.621 6.09-5.432 5.761-1.152-.329 4.28 3.126 6.419 3.456 7.736l.659 2.634s3.292-2.305 2.14.658c-1.152 2.963-3.621 8.23-2.963 8.56.658.33 1.812 2.469 4.115 3.292s3.621 1.481 2.469 2.633c-1.152 1.152-1.482 1.482-4.609 2.14-3.127.658-3.292 1.481-3.127 2.304.165.823 2.305 2.469 3.292 3.786.987 1.317 4.279 3.127 4.279 3.127s.659-9.382 3.128-8.559c2.469.823 5.103 2.304 5.103 2.304s5.432-6.913 8.724-6.749c3.292.164 2.962-1.481 4.279 2.469 1.317 3.95 3.457 3.127 3.457 5.925s.165 8.889.165 8.889 5.431-5.597 5.267-1.152c-.164 4.445 0 5.761 0 5.761s9.711-1.317 6.584 1.975c-3.127 3.292-2.469 6.09-5.761 6.749-3.292.659-6.913-.658-6.913-2.304s-.001-4.444-1.317-4.444h-3.785s4.772 4.938 4.608 9.053c-.164 4.115-.164 8.065-2.14 8.888-1.976.823-2.469-1.646-2.469-1.646l-2.14-.823s-.33 1.482-.988 1.317c-.658-.165-1.646 3.621-4.279 2.633s-3.786-3.292-3.786-3.292-3.785 1.152-4.279-.329l-1.316-3.95s-3.292 1.975-4.115.823c-.823-1.152-.823-5.432-.823-5.432l-2.634 1.646s-2.14 1.481 0 3.786c2.14 2.305 12.016 4.115 6.255 6.419-5.761 2.304-16.132 7.243-16.625 3.127-.493-4.116-5.266-8.724-2.633-9.547 2.633-.823 6.255-.988 6.255-.988s-.824-4.609-2.47-5.103c-1.646-.494-4.28 3.292-5.926 3.292s-2.304-.823-2.304-.823l1.811-2.963-3.292-.329-2.47 1.481s1.647 1.976-1.151 3.127c-2.798 1.151-6.914-4.444-4.28-5.761 2.634-1.317-.657-3.622 2.799-5.597 3.456-1.975 8.065-9.546 8.065-9.546s-5.926.329-3.786-1.811 3.125-3.62 3.125-3.62zM244.512 92.403s4.608-1.152 5.432.165c.824 1.317 3.621-1.317 4.444 2.633s3.621 2.141 3.292 6.749c-.329 4.608 4.773 7.077 1.811 9.382-2.962 2.305-.494 6.255-2.963 6.914-2.469.659-7.901-3.127-10.699-4.444-2.798-1.317-3.456.658-6.748.658-3.292 0-3.128-2.633-3.128-2.633l2.14-1.811-3.127.329s1.811 6.09-.823 6.913c-2.634.823-.657 3.457-.493 5.761.164 2.304 4.773 1.811-.494 2.963-5.267 1.152-.164 2.962-3.621 4.279-3.457 1.317-.33 4.279-6.091 3.457-5.761-.822-11.193-10.205-6.255-11.851 4.938-1.646 1.481-4.444 1.481-5.926 0-1.482-2.304-4.279-3.785-4.115-1.481.164-4.938 2.469-4.938 2.469l-2.963-.329-4.608.658-2.14-2.798-1.646-11.687h4.444l.658-1.481 2.963-1.975-2.14-2.304-2.634 1.152s-5.102-11.852.165-11.358c5.267.494 4.774-3.127 8.889-3.786 4.115-.659 4.938-.329 4.938-.329s4.774-8.724 6.749-6.913c1.975 1.811 2.634 2.634 2.963 3.127.329.493-.329-5.267 3.95-3.127l4.279 2.14s-1.316-5.268 4.115-2.798c5.431 2.47 7.571 3.457 7.571 5.597 0 2.14 6.091.494 3.457 3.621-2.634 3.127 1.646 3.621-.329 5.432-1.975 1.811-4.116 5.266-4.116 5.266zM201.551 122.854c-3.456 4.608-.658 9.217-7.571 7.407-6.914-1.811-9.876.988-10.535-3.621-.659-4.609-.823-7.242-2.469-8.395-1.646-1.153-4.609-3.128-4.938-3.951-.329-.823.165-3.127 2.14-2.798 1.975.329 2.468-4.774 4.444-3.292 1.976 1.482 2.469 2.634 2.469 2.634s2.798-.659 2.469 1.975c-.329 2.634.494 7.243.494 7.243l3.292-.329-1.152-3.951s3.621-5.268 6.255-2.963c2.634 2.305 5.102 10.041 5.102 10.041z"/><path d="M179.33 120.385c.494 1.481 4.608 10.041.165 7.243s-6.913-12.51-4.608-10.699a628.239 628.239 0 0 0 4.443 3.456zM191.51 95.695c-2.633.165-3.95 2.468-5.925 2.962-1.975.494-9.217 2.634-5.267 3.622s7.242 0 7.242 0 .001 3.127 3.128 1.646c3.127-1.481 3.785-2.798 3.785-2.798s5.598 1.481 2.47-1.152l-3.128-2.633-2.305-1.647zM270.611 129.246s-8.972 2.182-8.972 3.152c0 .97 9.214 4.606 9.214 4.606l-.728-3.152.486-4.606zM252.912 138.216l-6.062-2.424 4.121-5.819z"/><path d="M289.28 131.185l6.304.485h5.091l4.364 5.577 5.819-2.91s5.091-3.395 4.849 1.697c-.242 5.092 3.395 8.729-.242 9.941-3.637 1.212-1.455 4.122-4.122 3.152-2.667-.97-5.091-3.152-5.091-3.152s-2.667 6.061-2.667 7.758v3.637s7.516-6.788 7.273-3.394c-.243 3.394-.001 7.03-1.455 7.516-1.454.486.728 6.062-2.909 4.607-3.637-1.455-6.304-5.092-6.304-5.092l-.728 3.637 2.425 2.909-1.213 5.577-3.637-.243-6.788-6.062 2.667 6.304s.241 3.395-3.88.97c-4.121-2.425-4.122-.484-6.304-1.455-2.182-.971-7.759-2.667-8.971-2.91l-1.212-.243-5.334-3.394s1.213 2.909 0 4.606-8.728 8.244-8.971 6.546c-.243-1.698 1.212-6.789.242-7.516-.97-.727-9.213-5.577-9.213-5.577l.97-6.546s-3.638-6.304.484-6.304 8.001.484 8.001 2.909.97 3.637.97 3.637l5.092-5.819-6.304-2.182 11.396-2.909 1.454-3.152 6.304-2.182s-2.182-11.638 1.213-10.911a40.438 40.438 0 0 1 6.304 1.94l4.123-1.452zM237.394 150.097c4.122.485 8.729-.485 8.729 5.576s-.485 7.758 0 9.698c.485 1.94 1.698.728 1.455 3.879-.243 3.151 2.908 7.032-2.91 3.395s-9.697-.97-8.485-6.304c1.212-5.334 3.151-5.819 3.151-5.819s-3.151-1.939-3.151-4.122 1.211-6.303 1.211-6.303zM244.667 174.827c2.667.97 10.669 2.425 5.577 5.092-5.092 2.667-10.184 4.122-10.426.485-.242-3.637 4.849-5.577 4.849-5.577zM349.65 135.549l-3.151-.485-2.425-3.152s-2.909-1.697-3.637-1.697c-.728 0-1.94-.485-2.425.485-.485.97-1.454 3.395-1.454 3.395s-2.425-4.849-3.152-.485c-.727 4.364-4.363-.242-3.879 5.334.484 5.576-6.79 2.182-2.91 7.758 3.88 5.576-.241 3.879.243 7.516s4.121 6.062 4.121 6.062-.485.485-2.667 3.152c-2.182 2.667-2.909 4.364-1.212 5.576 1.697 1.212-.243-1.455 2.909 1.212 3.152 2.667 3.152 1.455 3.152 3.637s-.242.485 0 2.182-2.667 2.182-2.667 2.182 2.182 3.151 2.909 4.122c.727.971 11.88 1.94 11.88 1.94l-3.879 3.879.242 8.729-3.394-1.455-.243-2.91s1.213-6.061-2.182-4.122-7.759 1.94-8.486 2.182c-.727.242-1.454 1.212-1.212 4.122s2.182 8.971 2.909 7.759c.727-1.212 2.909-2.91 2.909-2.91s-.97 6.062 1.697 6.062 11.881-4.364 11.881-4.364l3.151-1.94 3.152-1.939 8.971-2.182 2.182-3.394 2.667-.243.728-6.062h1.697l-1.697-5.091s3.879 2.424 4.606 1.455c.727-.969.728-5.091.728-5.091l4.122.485-4.606-4.606 1.697-3.395s4.363-4.122 2.424-3.879c-1.939.243-9.456-4.364-6.304-4.606 3.152-.242 6.304-4.122 3.395-5.092-2.909-.97-.242-7.758-1.697-7.758s-4.848-.485-5.818-.485c-.97 0 6.061-6.061 2.424-6.789-3.637-.728 1.213-5.092-3.879-5.092-5.092 0-5.335.485-6.789.485-1.454 0-4.363-11.88-4.849-9.213-.486 2.667-2.182 8.726-2.182 8.726zM295.583 182.343l1.939 1.697-1.939 1.212s-.728 2.182-1.697 1.697c-.969-.485-1.939 0-.97-1.455.969-1.455 2.667-3.151 2.667-3.151zM271.095 190.102s.241-2.909 3.879-2.667 8.486 3.151 9.456 3.879c.97.728 4.849.243 2.667 1.212-2.182.969-4.122 2.667-4.122 2.667s4.364 2.667 8.001 5.819c3.637 3.152 3.88 6.061 3.88 8.001 0 1.94 3.878 5.092 2.424 8.729-1.454 3.637-5.091 4.849-5.091 4.849s13.092-1.212 12.122 2.667c-.97 3.879-.727 5.091 1.455 6.061 2.182.97 4.606 1.94 4.606 1.94l-5.092 1.939s.484 3.152-2.667 4.849-4.849-.485-4.849-.485-1.213-.484-1.455.243 4.607 7.516.243 6.789c-4.364-.727-2.184 4.607-2.91 4.849s-.727 6.789-3.394 4.849c-2.667-1.94-5.335 5.334-9.214 5.091-3.879-.243-5.818-4.364-5.818-4.364l-6.304-2.182s.242 8.486-3.395 5.819c-3.637-2.667-5.818-5.334-5.334-9.456s1.697-5.334 1.697-5.334v-3.879s-9.213-4.364-9.698-5.091c-.485-.727-3.152-3.152-5.092-2.91-1.94.242-5.092 3.152-6.062 3.395-.97.243-12.365-7.273-5.576-8.001 6.789-.728 3.88-.97 9.698-.728 5.818.242 6.788 3.395 7.273 4.122.485.727 1.212 1.212 2.667-.485 1.455-1.697 1.455-5.092 1.455-5.092s.971-8.971 3.395-5.334c2.424 3.637 1.938-.728 9.455.485s12.365 3.637 12.365 3.637 4.364-5.818 5.092-6.061c.728-.243-6.788-10.183-5.576-11.396 1.212-1.213 1.696-5.819 1.696-5.819s-5.091-.728-6.061-.728c-.97 0-6.305 2.667-6.547 3.395-.242.728 8.728 6.304-1.697 8.486-10.425 2.182-23.518-11.395-16.244-14.062 7.274-2.667 9.213-4.849 9.213-4.849l10.184-4.607-.725-.242zM193.752 138.459c0 2.182 1.939 4.607 3.637 4.849s5.091.242 5.091.242l7.274.243s-.242.727-2.667 2.909-4.123 2.182-3.88 3.879c.243 1.697.242 1.212.97 2.667.728 1.455 1.214.727 1.94 2.909s1.939-.485.242 2.91-2.425 3.395-4.122 3.395 11.88 1.455 6.304 5.091c-5.576 3.636-6.789 3.879-9.698 3.637-2.909-.242 1.698 2.91-3.879.243-5.577-2.667-3.151.728-6.789-1.455-3.637-2.182-7.516 6.303-8.971 3.879s-11.638 6.062-12.365 4.122c-.727-1.94-10.668 4.606-11.396 1.939-.728-2.667-8.729-8.486-5.819-9.698 2.91-1.212-6.062-10.91-2.667-9.94 3.395.97-.242-10.183 3.879-6.304 4.121 3.879 8.486 3.395 8.486 4.122 0 .727-.243-5.577-.243-5.577s-5.818-4.364-4.364-5.091c1.454-.727 4.606-1.212 4.606-1.212v-3.395s2.424-10.425 5.091-7.516c2.667 2.909 4.364 6.546 4.364 6.546s3.879-.97 5.334-.97c1.455 0 2.667-6.789 6.546-6.062 3.879.727 9.213-3.637 9.213-.97s3.883 4.608 3.883 4.608zM174.841 186.95c-.243 4.849 1.212 9.456-.97 8.486-2.182-.97-4.607-1.697-4.607-1.697s5.819 6.789 3.637 7.516c-2.182.727-2.182 1.212-2.182 1.212s6.547 2.91 4.122 6.304-.728 5.577-6.062 2.667c-5.334-2.91-7.516-5.092-7.516-5.092s-.485 4.364-2.182.97-2.909-9.698-1.455-9.698c1.454 0 2.91-.243 2.91-.243l-1.94-4.122s-4.849 2.91-4.849 1.212c0-1.698 2.91-6.546 2.91-6.546s-4.849-5.576-2.182-5.819c2.667-.243 6.062.727 6.062.727l3.637.728 5.819-4.122 4.848 7.517zM162.96 214.832c5.678.71 6.062 7.273 5.334 8.486-.728 1.213 0 3.152-1.212 5.819s-.97 5.577-5.091 8.001c-4.121 2.424-5.819 3.879-5.819 3.879l-5.819-3.152s-2.182-17.942.97-17.699c3.152.243 5.819-6.062 11.637-5.334zM183.812 221.621l-3.152 4.121-4.365-5.334 5.334-1.697zM177.508 232.289c4.122 1.212 9.456 0 12.85 1.212s1.696 1.697 4.121 1.697c2.425 0 6.062 1.212 2.183 2.667-3.879 1.455-.97 4.606-4.364 5.334-3.394.728-4.606 12.365-8.001 7.516-3.395-4.849-10.426-2.91-7.516-6.062s-8.243-6.546-4.122-7.758c4.121-1.212 4.849-4.606 4.849-4.606zM108.893 160.037l1.455 2.91 4.849-.243 4.364 1.455 1.697 2.425 1.212 2.182 6.789 2.667 11.153 3.152-.727 3.879 6.546 1.212-.727 3.637s.728 3.637 1.212 7.758 6.789 7.516-.243 10.425c-7.032 2.909-2.182 6.546-7.516 5.334-5.334-1.212-9.456 9.94-10.668 3.152-1.212-6.788-2.909-7.758-2.909-7.758s-4.849 2.667-6.062 0 1.939-8.971 1.939-8.971-6.303-.485-3.879-2.182-11.638 1.939-7.031-4.364-5.577-6.789-5.577-6.789-2.424 7.516-2.909 5.091c-.485-2.425-7.517-1.212-7.759-5.334s-7.516-11.638-6.789-14.79c.727-3.152-1.455-8.971 3.637-9.456 5.092-.485 5.819-7.274 8.971-3.879s5.577 6.789 5.577 6.789l3.395 1.698zM84.406 185.252c3.879 5.334 3.394 10.911.727 10.183-2.667-.728-6.304-4.122-6.304-4.122s-3.637 7.759-4.364 5.092c-.727-2.667-1.455-8.729.243-10.426 1.698-1.697 4.606 0 4.606 0s2.91-3.879 3.395-3.152c.485.727 1.697 2.425 1.697 2.425zM17.004 151.309l5.819-3.637.485-2.424 4.122-1.697v5.819l3.637 1.212.485 2.424v4.364s1.455 3.879-.728 4.849c-2.183.97-6.789 1.212-6.789 1.212l-4.606-.485s3.152 7.759-.728 8.001c-3.88.242-5.091-1.94-5.091-1.94v-4.849s-16.729 4.85-13.093.485c3.636-4.365 7.516-5.577 7.516-5.577s-2.182-8.001.97-8.244c3.152-.243 8.001.487 8.001.487zM11.913 178.221c1.455 2.182 1.94 6.546 1.697 8.001-.243 1.455 3.151 4.606 3.879 5.091.728.485 2.91.97 6.789 3.879 3.879 2.909 2.424.727 5.576 3.637 3.152 2.91-2.425 1.455 3.152 2.91s1.698 2.667 5.577 1.455c3.879-1.212 3.394-1.212 6.061-1.455 2.667-.243-4.364 1.697 5.092-1.697s1.455-5.577 9.456-3.395 3.637-.97 8.001 2.182c4.364 3.152-3.879 0 4.364 3.152s13.334.485 8.243 3.152c-5.091 2.667-5.091 2.909-7.273 2.424-2.182-.485-10.183-1.455-1.697 3.637 8.486 5.092 7.758-1.939 8.486 5.092.728 7.031.728 8.243.728 9.213 0 .97 1.212-1.939 2.909 1.212 1.697 3.151 2.91 3.152 3.637 4.364l.727 1.212s3.152.242 3.879.242c.727 0 4.607 0 5.577.728.97.728 3.152 1.697 4.122 1.939l.97.243.485 5.334s.243 4.849-.242 5.819c-.485.97-3.395 3.152-3.395 3.152s-2.183-.243-2.91-.728c-.727-.485-1.697-.97-3.152-1.455-1.455-.485-3.395-2.667-5.334-2.667-1.939 0-4.849.97-5.576 1.697-.727.727 6.789 6.789-3.395 3.637-10.184-3.152-11.396-4.364-11.396-4.364l-5.334 3.879s-.727 3.152-1.697 3.152c-.97 0 .243.97-4.849-.728-5.092-1.698-6.789-2.91-7.516-3.152-.727-.242-3.152-.97-3.152-.97s-.243-1.939-.243-2.667c0-.728.485-5.334.485-5.334l-3.637-2.424-4.122.485-1.939 1.212s-8.972-5.577-5.819-6.304c3.153-.727 5.092-2.667 5.092-2.667l.728-4.364 5.091-5.091-5.334-8.486-4.606 4.364-2.425 6.304s-3.879-7.032-4.122-7.759c-.243-.727-10.183-10.425-10.183-10.425s-7.273-6.788-8.001-7.758c-.728-.97-1.212-9.213-1.212-9.213l4.122-2.667-8.001-1.939 8.486-8.486 3.151 3.395zM59.919 92.393c-2.667.485-5.577 6.789-5.577 6.789s-4.849-1.455-4.849-.728c0 .727.97 4.122.97 4.122l-3.152 2.425-.242 3.152-2.91-2.667h-3.637v3.152l-2.182 2.909 2.182 3.395.243 1.212-2.667 1.697-.728 2.667s-.485 1.697.485 2.182c.97.485 5.092 2.182 5.092 2.182h2.909s3.152 0 3.395 1.697c.243 1.697 1.94 4.122 2.182 5.334.242 1.212 0 3.152.242 4.364l.243 1.212s1.455 10.668 3.152 12.123 5.818 1.212 6.061 2.182c.243.97-.484 8.243 1.94 8.486 2.424.243 5.091-5.577 5.091-5.577s3.394 3.879 3.637.243c.243-3.636 11.88-5.091 7.031-7.758-4.849-2.667-3.394-6.789-3.394-6.789s11.396 5.334 13.335 1.94c1.939-3.394 8.728-7.516 2.909-9.213-5.819-1.697-14.062-3.152-14.062-3.152l.485-2.425 3.637-1.455v-3.879l3.879-5.819-11.88-.242s6.546-2.425 9.213-4.364c2.667-1.939 3.152 1.213 5.334-2.424 2.182-3.637 7.274-2.425 7.274-4.607 0-2.182.97-6.304.97-7.031 0-.727-1.455-2.667-3.152-3.637-1.697-.97 2.667-3.151 2.182-5.091-.485-1.94 2.91-3.637 2.667-4.364-.243-.727-.97-3.394-.97-4.606 0-1.212.728-.485 2.667-.485 1.939 0 0 .97 4.364.243s8.244-1.455 6.304-4.364c-1.94-2.909-1.455-2.182-2.425-4.606-.97-2.424-1.455-2.424-.97-3.637.485-1.213 3.637 2.667 5.334-1.212 1.697-3.879.727-8.243.242-8.971-.485-.728-4.364-2.91-4.364-2.91s-.97-3.395-1.212-4.364c-.242-.969-.728-2.667.485-3.637 1.213-.97 3.879-1.697 3.879-2.909 0-1.212.242-3.637-1.212-4.607-1.454-.97-2.909-.97-4.606.243s-2.183 1.212-4.122 1.212-5.577-2.667-6.304-2.667c-.727 0-2.91-.727-5.334.485-2.424 1.212-6.546-.484-6.061 4.364.485 4.848-.728 7.031-.97 10.668-.242 3.637-.485.727 0 5.091s.243 6.546-2.909 8.243c-3.152 1.697-6.304 2.182-6.304 2.182l-.485 4.607s.243.97 0 1.697c-.243.727-2.91-6.304-7.031-3.637-4.121 2.667-9.213 1.213-9.698 6.789-.485 5.576.728 5.818 3.879 8.243 3.151 2.425 3.879 5.091 4.122 7.516.243 2.425.728 3.879.728 3.879s1.697 0-.728 1.212-3.152.242-3.879-.728c-.727-.97-.728-5.577-.728-5.577zM126.108 20.871c4.502.5 4.364 4.122 6.062 4.122 1.698 0 5.577-6.062 5.577-6.062l3.879 1.212s0-1.698 1.697-2.91c1.697-1.212 4.607-.97 4.607-.97s3.152-3.879 5.091-4.364c1.939-.485 4.364-.727 4.364-.727s.484-8.486 3.394-8.486 7.759-2.425 7.759 1.455-2.424 5.576-2.667 7.758c-.243 2.182 1.939 2.425 1.939 2.425s1.212-10.668 6.062-8.486c4.85 2.182 8.243 5.334 8.243 5.334s1.455.242 6.546.242 3.152-3.152 5.819-3.152 4.606-.242 4.606-.242 2.183-8.486 6.304-7.759c4.121.727 3.637-1.697 7.031 1.212 3.394 2.909 7.273.728 9.94 3.879s.242 11.638.242 11.638 8.002.97 5.819 4.849c-2.183 3.879-10.184 5.819-10.184 5.819s8.243 3.879 3.637 4.849c-4.606.97-10.667 14.304-14.789 11.395-4.122-2.909-3.637-5.577-3.637-6.304 0-.727-2.424 1.939-5.334-2.182-2.91-4.121-9.213-6.788-9.941-9.213-.728-2.425-6.304-5.819-6.546-6.546-.242-.727-2.909.485-2.909.485l3.637 10.425s1.212 1.94 0 4.122 8.729 1.455-2.425 1.939c-11.153.485-12.365.728-14.305 0-1.94-.728-.727.242-4.606.485s-6.546 4.606-9.213 4.606c-2.667 0-4.606.485-5.819-2.424s-3.395-3.637-3.879-2.91c-.484.727.727 13.578-2.667 13.093-3.394-.485-7.516 2.425-10.183 1.212-2.667-1.213-7.516 4.121-9.213 1.212-1.697-2.909-5.333-12.365-3.637-12.607 1.696-.242 5.576-.97 5.576-.97l-.97-3.637s-7.516-2.91-7.516-3.637c0-.727-1.697.728 0-.727s2.182-2.183 4.364-1.94c2.182.243 6.063-7.756 8.245-7.513z"/></g></switch></svg>