<svg xmlns="http://www.w3.org/2000/svg" xmlns:dc="http://dublincore.org/documents/dcmi-terms/" height="3215" viewBox="0 0 2405 3215" width="2405"><metadata><dc:description>Silhouette of Leguminosae, processed by PhyloPic Tools (https://github.com/eweitz/phylopic-tools)</dc:description><dc:source>http://phylopic.org/image/a3d3f760-d5c1-45a1-8e6e-5b4797700014</dc:source><dc:creator>Birgit Lang</dc:creator><dc:license>http://creativecommons.org/licenses/by-nc/3.0/</dc:license></metadata><path d="M1149.077 3017.684c-2.689-2.689-7.587-17.221-7.547-22.392.014-1.818-1.735-12.587-3.886-23.93-3.819-20.145-5.085-24.558-17.391-60.626-3.284-9.625-6.607-21.718-7.383-26.875-1.373-9.12-10.619-40.581-12.684-43.161-.957-1.196-6.817-22.266-10.592-38.089-.903-3.78-2.562-12.5-3.688-19.375-4.58-27.95-11.96-46.935-21.729-55.883-11.028-10.103-7.912-12.586 6.891-5.492 13.337 6.392 16.42 11.25 20.551 32.386 1.318 6.743 3.315 14.055 4.438 16.25 2.944 5.752 9.48 14.983 11.887 16.787 2.442 1.83 6.06 11.817 6.06 16.726 0 4.67 2.146 5.72 2.911 1.425.338-1.897.524-17.879.414-35.516l-.2-32.067-3.437-3.186c-4.323-4.006-4.303-5.244.156-9.409l3.594-3.357-.498-66.832c-.352-47.25-1.039-71.852-2.344-83.965-1.015-9.424-1.844-25.174-1.843-35 0-9.827-.838-34.742-1.867-55.367a46499.255 46499.255 0 0 1-2.442-49.375c-2.455-50.967-3.114-62.405-4.357-75.625-2.04-21.707-3.569-41.322-5.65-72.5-1.01-15.125-2.422-29.465-3.137-31.866-.715-2.402-1.303-7.183-1.306-10.625 0-3.442-1.13-12.905-2.5-21.03-1.372-8.123-2.494-18.923-2.494-24 0-8.181-2.565-22.336-4.376-24.147-.366-.366-1.271-.06-2.012.681-.934.935-2.733.963-5.886.093-3.1-.856-7.155-.822-12.788.109-5.583.922-9.633.961-12.531.122-2.355-.682-11.313-1.782-19.907-2.445-8.593-.664-17.875-1.769-20.625-2.456-2.75-.688-8.76-1.264-13.356-1.28-9.623-.034-20.53-2.145-38.769-7.5-17.137-5.032-20.509-6.59-36.625-16.918-7.562-4.847-19.093-11.823-25.625-15.504-6.531-3.68-14.288-8.06-17.237-9.732-7.724-4.379-13.511-9.803-18.257-17.109-20.863-32.12-25.245-40.638-28.18-54.78-.785-3.78-2.627-9.907-4.094-13.617-2.14-5.411-2.822-10.577-3.45-26.12-.726-17.982-1.041-19.904-4.382-26.728-1.98-4.044-6.31-10.064-9.624-13.378-7.153-7.153-7.633-8.93-1.971-7.307 6.847 1.964 18.133 1.362 24.464-1.304 6.761-2.848 22.732-5.033 36.788-5.033 8.165 0 11.094.61 18.039 3.759 13.475 6.11 35.15 21.33 45.37 31.858 5.139 5.293 15.264 14.15 22.5 19.681 7.238 5.533 14.847 11.568 16.91 13.412 5.022 4.49 20.226 13.403 27.719 16.25 5.046 1.918 19.704 3.338 27.546 2.67 1.97-.169-12.303-28.773-15.993-32.055-2.437-2.166-15.287-21.276-36.53-54.325-3.757-5.844-13.298-21.875-21.203-35.625-19.736-34.33-28.76-48.945-42.378-68.637-6.414-9.275-16.057-24.345-21.428-33.488-10.463-17.81-13.277-22.005-29.37-43.77-10.352-14-17.728-22.233-32.936-36.764-7.916-7.563-8.128-7.67-17.005-8.561-8.79-.883-9.177-.8-17.456 3.786-4.657 2.579-9.894 5.681-11.637 6.894-1.744 1.213-7.932 3.743-13.75 5.622-5.82 1.879-13.111 4.533-16.205 5.898-3.093 1.364-9.843 3.764-15 5.332-5.156 1.568-16.687 5.437-25.625 8.597-30.195 10.675-37.478 13.101-45 14.993-4.125 1.038-14.994 4.976-24.154 8.752-9.16 3.776-21.815 7.968-28.125 9.315-27.016 5.768-68.672 18.89-87.72 27.631-10.731 4.925-23.563 9.78-30 11.353-19.476 4.757-31.61 8.82-41.589 13.925-10.921 5.588-11.408 5.598-28.286.548-6.119-1.83-16.765-4.302-23.657-5.49-12.317-2.126-12.64-2.27-18.875-8.44-3.49-3.451-10-8.187-14.469-10.524-4.469-2.336-10.375-5.768-13.125-7.627-2.75-1.858-7.531-4.644-10.625-6.192-3.094-1.548-8.14-5.656-11.216-9.129-3.075-3.473-8.975-8.806-13.111-11.85-8.558-6.3-16.923-16.655-16.923-20.948 0-1.593-.328-3.752-.729-4.797-1.3-3.388 3.766-5.973 27.15-13.853 24.822-8.365 35.684-12.664 38.494-15.233 1.295-1.185 1.86-5.192 2.044-14.49.222-11.283.725-13.942 4.113-21.766 7.576-17.496 24.886-38.94 41.428-51.324 9.052-6.775 19.848-11.163 33.197-13.49 5.983-1.044 13.72-2.741 17.192-3.773 3.975-1.18 11.512-1.875 20.339-1.875 7.713 0 21.533-1.079 30.71-2.397 20.949-3.01 52.708-3.85 151.062-4.001 76.463-.118 81.396.116 95.765 4.537 4.188 1.288 4.453-2.124.997-12.804-3.79-11.715-5.168-25.676-3.14-31.82 2.505-7.59 3.295-8.054 37.628-22.06 28.232-11.517 49.708-19.704 60.625-23.111 10.245-3.197 34.502-7.375 55.625-9.581 27.508-2.873 63.058-11.58 82.065-20.101 6.887-3.088 8.17-4.274 12.29-11.367 2.53-4.356 6.995-10.451 9.92-13.545 6.562-6.937 29.375-38.807 32.66-45.625 2.073-4.302 2.357-7.27 2.035-21.25-.367-15.94-2.871-37.584-5.207-45-1.86-5.905-6.263-37.657-6.263-45.165 0-8.263-1.916-13.088-8.125-20.46-2.605-3.094-5.449-7.313-6.318-9.375-.87-2.063-3.376-6-5.57-8.75-2.194-2.75-5.358-7.69-7.03-10.98-4.761-9.361-11.348-19.182-14.562-21.711-1.955-1.538-3.628-5.07-5.01-10.575-3.175-12.641-5.82-17.562-21.42-39.86-19.657-28.092-37.367-54.686-40.475-60.779-1.416-2.775-6.585-17.095-11.488-31.82-6.521-19.588-9.385-30.298-10.668-39.9-.965-7.22-2.118-14.927-2.564-17.13-.612-3.029.124-6 3.018-12.183 3.621-7.739 3.816-8.944 3.631-22.405l-.195-14.227 4.013-4.571c2.207-2.514 4.013-5.947 4.013-7.628 0-1.68-2.304-8.833-5.12-15.894-6.519-16.34-18.63-49.637-18.63-51.218 0-1.636-12.764-32.602-19.474-47.245-6.931-15.124-15.386-36.782-23.666-60.625-6.424-18.498-20.034-46.972-25.073-52.454-3.556-3.868-20.78-9.417-29.291-9.437-6.663-.015-20.745 3.512-37.56 9.408-4.504 1.579-14.02 4.099-21.146 5.6-7.126 1.5-14.397 3.276-16.157 3.945-1.76.67-7.119 2.041-11.909 3.049-4.79 1.008-13.24 3.161-18.78 4.786-28.767 8.44-38.768 10.894-51.319 12.594-13.382 1.813-19.812 2.795-37.142 5.672-10.713 1.779-48.743-.337-57.858-3.218-3.437-1.087-9.625-2.535-13.75-3.217-10.694-1.77-43.47-12.853-51.638-17.463-3.799-2.144-12.2-6.06-18.668-8.702-9.394-3.837-13.639-6.484-21.087-13.15-5.13-4.591-11.945-12.074-15.145-16.63-3.2-4.555-9.366-13.064-13.701-18.908-8.41-11.337-20.138-33.757-21.253-40.627-.444-2.735.017-5.145 1.346-7.043 2.513-3.588 2.58-7.364.186-10.528-1.01-1.335-1.853-3.91-1.875-5.72-.033-2.749 1.36-4.138 8.398-8.374 18.057-10.871 24.563-13.15 40.312-14.128 23.038-1.428 49.03-3.48 71.875-5.672 15.98-1.534 33.805-2.01 71.875-1.92 45.653.108 51.747.364 62.047 2.613 6.282 1.371 15.001 2.85 19.375 3.285 11.45 1.14 59.85 17.076 69.378 22.844 16.551 10.019 35.19 24.153 41.659 31.59 3.706 4.261 9.873 9.718 13.703 12.126 3.83 2.408 8.743 6.057 10.918 8.107 6.06 5.713 7.21 3.09 1.913-4.363-5.046-7.1-6.236-8.276-24.618-24.303-16.766-14.62-28.64-26.936-34.716-36.012-2.761-4.125-7.672-10.144-10.912-13.375-3.241-3.232-6.481-7.45-7.2-9.375-.72-1.925-2.809-7.401-4.64-12.17-2.98-7.75-5.294-21.006-7.655-43.83-.356-3.437-1.263-8.781-2.016-11.875-1.38-5.672-2.692-8.132-17.669-33.125-4.532-7.562-10.533-19.094-13.335-25.625-8.96-20.882-39.258-81.93-45.66-92-2.228-3.508-6.605-11.469-9.726-17.692-3.12-6.224-8.152-15.448-11.182-20.5-3.03-5.05-9.152-16.214-13.605-24.808-4.453-8.594-11.539-20.969-15.746-27.5-12.225-18.979-20.514-32.105-29.998-47.5-9.075-14.732-16.315-24.674-32.896-45.18-5.202-6.432-11.392-14.507-13.756-17.945-2.364-3.437-7.67-10.376-11.793-15.42-4.122-5.043-9.464-11.656-11.87-14.695-5.5-6.95-21.156-21.211-29.375-26.761-3.437-2.321-8.254-5.812-10.704-7.756-6.323-5.02-20.047-8.807-28.371-7.83-8.104.95-12.674 4.526-17.078 13.362-2.922 5.864-3.222 7.856-3.222 21.398 0 11.488.6 16.945 2.598 23.655 3.163 10.622 2.524 14.68-2.31 14.653-4.821-.027-5.867-1.048-8.213-8.016-1.573-4.671-2.075-10.774-2.075-25.25 0-29.05 2.466-36.535 14.566-44.208 11.014-6.985 26.891-5.894 46.949 3.224 6.676 3.036 12.51 5.52 12.961 5.52.452 0 4.003 1.931 7.89 4.293 4.941 3.001 11.572 9.463 22.038 21.478 8.234 9.451 17.522 20.035 20.64 23.519 8.728 9.756 13.948 16.708 20.485 27.283 3.297 5.335 8.605 13.006 11.795 17.049 3.19 4.042 10.301 13.683 15.801 21.423 5.5 7.741 14.193 19.757 19.318 26.702 10.09 13.674 22.557 32.914 22.557 34.812 0 .649 1.045 2.672 2.322 4.497 1.277 1.825 6.123 10.63 10.77 19.568 4.647 8.938 12.743 23.422 17.991 32.188 5.248 8.765 10.805 18.046 12.347 20.625 1.543 2.578 5.097 10.593 7.896 17.812 2.8 7.219 6.954 16.5 9.23 20.625 10.147 18.385 21.05 40.243 23.655 47.42 2.661 7.33 6.91 14.842 18.914 33.438 8.542 13.232 13.639 14.488 65 16.021 19.25.575 37.532 1.628 40.625 2.341 3.094.713 10.52 1.32 16.501 1.35 5.982.03 13.576.62 16.875 1.309 8.119 1.697 34.612 4.576 64.124 6.97 19.688 1.596 25.457 2.498 30 4.689 5.068 2.443 7.73 2.72 26.875 2.794l21.25.082 13.75 5.061c7.563 2.784 16.563 5.725 20 6.536 3.438.812 13 5.289 21.25 9.949s18.726 10.197 23.279 12.304c4.553 2.107 11.303 5.76 15 8.116 3.697 2.356 14.743 8.29 24.548 13.185 21.48 10.725 23.514 12.252 31.217 23.435 3.316 4.813 7.285 10.445 8.82 12.516 4.793 6.463 10.391 21.919 11.088 30.61.58 7.234.317 8.568-2.398 12.173-4.967 6.594-11.858 11.3-18.691 12.766-11.429 2.45-32.475 5.06-40.893 5.07-4.52.005-11.698.574-15.95 1.264-4.251.69-17.189 1.768-28.75 2.396-18.714 1.016-22.665 1.64-36.02 5.688-8.25 2.5-19.195 5.369-24.321 6.373-5.127 1.004-12.159 2.67-15.625 3.702-3.467 1.032-12.612 3.293-20.323 5.025-15.355 3.448-44.724 12.63-51.621 16.139-2.398 1.22-7.793 4.647-11.99 7.618-6.097 4.316-8.2 6.728-10.474 12.013-2.508 5.831-2.748 7.863-2.03 17.197.563 7.338 1.612 11.939 3.418 15 1.432 2.428 3.725 8.043 5.095 12.478 1.37 4.435 4.362 12.706 6.65 18.38 2.287 5.674 5.937 16.592 8.11 24.263 2.172 7.671 5.662 17.69 7.754 22.263 2.092 4.574 5.926 14.222 8.52 21.441 2.595 7.219 7.927 20.719 11.85 30 3.923 9.281 11.373 27.281 16.556 40 5.183 12.719 10.325 24.17 11.427 25.448 1.102 1.277 3.759 3.246 5.904 4.375 18.894 9.945 20.215 10.965 28.567 22.062 10.873 14.447 12.645 19.462 14.35 40.615.803 9.969 2.23 21.781 3.169 26.25a1231.26 1231.26 0 0 1 3.227 15.974c2.075 10.722 4.272 11.73 3.025 1.388-1.13-9.375-1.119-44.872.017-59.27.72-9.115.54-10.355-1.958-13.532-1.513-1.924-4.915-7.815-7.56-13.091-2.646-5.277-6.508-12.622-8.583-16.323l-3.773-6.73.806-17.733c.54-11.874.307-20.39-.703-25.77-1.285-6.842-1.22-8.73.44-12.685 1.145-2.727 1.95-8.296 1.95-13.475 0-6.603.788-10.7 3.126-16.253 1.913-4.546 3.125-9.825 3.125-13.617 0-19.715 8.46-40.667 19.71-48.816 2.597-1.882 7.825-6.85 11.618-11.041 6.403-7.076 7.382-7.684 13.72-8.52 9.574-1.263 14.952-6.571 14.952-14.756 0-4.195.49-5.75 1.816-5.75 1.813 0 3.067 1.467 8.81 10.308l3.042 4.683-2.583 12.192c-2.766 13.052-2.71 27.55.193 50.317.746 5.844 1.488 12.313 1.651 14.375.163 2.063 2.097 9.375 4.3 16.25 2.201 6.875 4.584 15.594 5.295 19.375.71 3.782 1.706 7.537 2.213 8.345.57.91 6.774 1.812 16.273 2.368 14.862.87 15.527 1.031 20.804 5.06 2.998 2.29 8.153 8.255 11.456 13.257 3.303 5.002 8.708 12.37 12.012 16.372 3.304 4.002 7.093 9.345 8.42 11.875 1.328 2.529 4.663 7.41 7.413 10.848 2.75 3.438 8.095 10.551 11.88 15.808 3.783 5.257 8.581 10.77 10.661 12.25 6.529 4.65 29.592 35.494 36.872 49.313 9.188 17.44 11.918 24.449 18.883 48.462 3.258 11.23 7.024 23.23 8.371 26.667 3.418 8.724 4.563 17.254 3.24 24.136-7.036 36.633-6.877 39.03 3.64 54.653l4.038 5.998-7.08 3.571c-9.394 4.739-14.963 9.104-17.247 13.52-2.11 4.08-2.425 17.366-.623 26.247.628 3.094.808 8.328.4 11.632-.695 5.636-1.189 6.31-7.998 10.934-3.99 2.71-8.098 6.13-9.127 7.6-1.03 1.468-5.12 3.767-9.09 5.108-13.45 4.54-17.704 10.207-16.031 21.359l.82 5.467-3.846-.564c-8.393-1.232-16.958 4.243-18.364 11.74-.635 3.383-1.281 4.192-2.855 3.568-5.347-2.12-9.963-1.995-14.65.396-7.087 3.616-18.02 15.647-25.004 27.515-.404.687-7.39-4.038-13.495-9.13-7.52-6.27-27.01-28.11-27.01-30.267 0-.884-.568-1.608-1.261-1.608-1.315 0-.761 8.59 1.363 21.167.631 3.736 1.148 9.699 1.148 13.251 0 6.54 1.987 14.332 3.654 14.332.5 0 2.18-1.35 3.73-3.002 2.951-3.141 10.957-5.748 17.654-5.748 4.857 0 18.8 7.633 22.947 12.562 5.337 6.343 12.916 21.52 14.95 29.938 5.522 22.844 6.15 64.362 1.44 95.18-4.313 28.218-6.323 36.422-11.406 46.55-5.18 10.32-7.854 14.307-15.048 22.424-6.665 7.52-7.5 11.753-4.913 24.897 1.117 5.678 2.558 14.824 3.202 20.324.644 5.5 2.345 14.782 3.78 20.625 4.542 18.501 5.01 21.13 5.01 28.143 0 3.802.565 6.857 1.267 6.857 1.991 0 8.474-7.5 12.578-14.553 3.825-6.57 6.045-7.899 13.26-7.93 2.189-.013 7.266-1.442 11.282-3.184 6.101-2.646 9.318-5.412 19.555-16.817 6.738-7.508 15.174-15.59 18.745-17.961 9.467-6.284 26.39-13.891 36.438-16.38 23.884-5.915 31.41-9.146 44.103-18.937 31.673-24.43 33.6-25.503 45.688-25.46 8.042.029 16.281 2.851 19.43 6.657.947 1.144 1.823 4.486 1.947 7.428.124 2.941.595 5.945 1.046 6.675.465.753 7.544 1.646 16.339 2.061 12.324.583 16.51 1.265 20.339 3.317 6.273 3.363 13.685 3.443 15.439.166.712-1.33 1.318-8.22 1.348-15.312.03-7.092.514-15.266 1.074-18.163 1.484-7.667 23.763-46.096 30.353-52.355 2.966-2.818 10.292-8.083 16.28-11.7 13.64-8.24 49.043-24.095 64.739-28.994 12.517-3.907 18.454-5.97 43.75-15.2 19.22-7.015 42.611-14.364 60-18.852 15.538-4.01 38.126-10.998 51.35-15.886 5.21-1.926 14.492-4.413 20.624-5.526 6.133-1.114 16.495-3.932 23.026-6.262 22.203-7.92 24.462-8.272 57.747-8.978 25.035-.531 32.48-.292 39.375 1.264a860.914 860.914 0 0 0 16.003 3.432c16.673 3.361 33.882 10.447 51 20.999 16.908 10.423 22.25 19.449 25.314 42.778 2.09 15.905 4.427 21.16 11.884 26.726 2.71 2.022 4.927 4.184 4.927 4.804 0 2.082-26.165-2.37-39.592-6.737-7.14-2.322-10.458-2.481-44.375-2.127l-36.658.382-5.974 3.512c-7.846 4.612-14.23 14.196-15.38 23.089-.613 4.737-2.062 8.183-5.136 12.21-2.356 3.084-6.853 9.958-9.994 15.274-3.14 5.316-6.797 11.072-8.126 12.79-4.7 6.082-24.235 21.535-31.015 24.536-3.781 1.673-9.125 4.222-11.875 5.664-2.75 1.442-8.094 4.239-11.875 6.215-11.74 6.136-29.334 9.873-51.875 11.02-14.225.723-21.413 1.63-24.892 3.143-2.946 1.28-9.406 2.337-16.25 2.657-6.247.292-20.92.951-32.608 1.465-11.688.514-20.406 1.318-19.375 1.787 5.194 2.36 39.057 5.743 66.875 6.68 12.375.417 27 1.532 32.5 2.48 11.249 1.936 26.65 2.643 95.34 4.377 26.312.665 52.923 1.784 59.137 2.488 6.213.704 14.779 1.536 19.035 1.85 28.678 2.112 56.548 6.214 76.37 11.237 48.771 12.362 52.356 13.6 80.45 27.772 29.409 14.835 47.867 27.58 70.112 48.407 11.827 11.073 21.736 27.984 25.838 44.097 2.198 8.63 2.203 9.477.122 20.625-3.512 18.805-5.561 24.492-12.416 34.457-9.722 14.13-19.223 20.532-42.677 28.754-21.936 7.69-48.005 7.01-67.86-1.771-3.863-1.709-9.033-3.8-11.488-4.65-5.419-1.873-28.144-18.285-32.867-23.736-4.939-5.7-4.71-11.335.592-14.567 6.577-4.01 9.632-3.22 21.359 5.522 22.113 16.486 33.49 20.741 55.455 20.741 15.878 0 21.813-1.622 37.095-10.137 11.085-6.177 19.458-13.062 24.719-20.324 3.247-4.483 3.56-5.844 3.56-15.529 0-14.307-3.324-25.019-11.596-37.378-8.154-12.183-18.32-22.432-32.625-32.893-11.31-8.27-14.143-10.005-33.905-20.76-12.01-6.537-12.074-6.567-38.75-17.71-18.373-7.674-42.013-13.881-67.5-17.723-4.812-.726-14.094-2.205-20.625-3.287-19.912-3.3-80.95-7.497-134.375-9.24-20.625-.673-41.719-1.854-46.875-2.623-5.156-.77-12.703-1.106-16.771-.747-4.069.359-10.503.147-14.298-.471-3.796-.618-7.156-.87-7.467-.559-.31.31 1.889 3.814 4.887 7.785 6.363 8.428 8.598 16.804 8.596 32.221 0 15.81-1.856 18.766-19.947 31.826-30.102 21.73-53.41 35.708-72.307 43.363-5.738 2.325-13.331 5.58-16.875 7.235-3.544 1.655-10.662 4.198-15.818 5.652a1396.418 1396.418 0 0 0-17.5 5.073c-4.469 1.337-15.113 3.203-23.654 4.147-17.331 1.916-20.096 3.49-20.096 11.44 0 5.766-2.486 7.5-8.098 5.648-4.783-1.578-6.936-4.734-10.614-15.554-2.27-6.679-1.54-6.062-21.392-18.087-4.526-2.742-9.021-5.939-9.989-7.105-.968-1.166-7.108-6.147-13.646-11.069a4416.967 4416.967 0 0 1-20.327-15.399c-9.72-7.428-15.967-9.5-26.539-8.803-6.655.439-9.44 1.597-24.214 10.07-10.632 6.098-18.697 9.875-22.212 10.402-6.92 1.038-24.338-.248-37.038-2.734l-9.695-1.897-9.68 5.261a2886.29 2886.29 0 0 0-20.306 11.17c-5.844 3.25-18.219 10.03-27.5 15.067-22.964 12.463-47.83 28.88-51.975 34.315-2.052 2.69-3.834 7.079-4.459 10.98-4.057 25.34-5.756 46.406-7.332 90.874-.67 18.907-1.568 35.915-1.994 37.797-.6 2.648-.248 3.6 1.555 4.21 14.331 4.844 35.29 14.408 42.765 19.515 3.198 2.185 10.762 8.936 16.809 15.002 11.891 11.93 28.074 35.267 39.535 57.014 3.503 6.648 9.17 15.814 12.59 20.369 6.178 8.223 6.27 8.285 13.166 8.857 9.469.785 13.067 3.723 15.876 12.963 2.842 9.347 1.766 14.506-6.106 29.273-4.3 8.068-8.079 12.939-15.698 20.238l-10.034 9.613-6.513-3.675c-7.357-4.152-9.801-4.44-15.944-1.873-6.96 2.908-8.656 6.23-6.578 12.885.82 2.626.511 2.812-4.674 2.812-4.152 0-6.211.71-8.162 2.813-3.47 3.74-9.077 14.472-9.077 17.373 0 2.889-1.007 2.92-4.105.127-2.003-1.806-4.748-2.175-15.723-2.115-7.313.04-16.512.465-20.442.944l-7.145.87-4.73-7.084c-2.601-3.897-5.469-8.41-6.372-10.03-.904-1.62-2.084-2.674-2.623-2.34-1.642 1.014-.093 32.125 1.857 37.28 1.354 3.579 1.782 11.55 1.78 33.125 0 18.27.642 32.874 1.809 40.912 3.273 22.561 4.402 34.65 5.722 61.25 1.455 29.335 4.445 67.346 6.194 78.75.632 4.125 1.756 22.407 2.497 40.625 1.344 33.065 4.023 72.326 6.318 92.585.667 5.89 1.216 30.078 1.22 53.75 0 23.672.573 46.415 1.263 50.54s1.827 14.813 2.524 23.75c2.018 25.85 4.23 40.65 6.27 41.94 3.072 1.944 4.201 1.394 10.608-5.168 9.912-10.151 25.592-19.865 55.578-34.43 9.272-4.504 13.656-5.9 20-6.366 7.57-.557 8.487-.334 13.433 3.28 2.92 2.133 6.857 6.014 8.75 8.625 4.845 6.68 26.263 28.389 31.88 32.31 2.578 1.801 4.687 3.657 4.687 4.124 0 1.37-13.774 7.51-21.25 9.474-3.781.994-9.219 1.813-12.084 1.821-2.865.013-7.76 1.11-10.88 2.446-15.913 6.821-27.23 9.179-42.479 8.849-10.422-.226-12.386 1.615-3.023 2.834 2.938.382 8.525 1.406 12.416 2.275 6.04 1.35 8.688 1.27 18.125-.538 6.077-1.164 14.125-2.114 17.883-2.109 6.365.013 17.592 3.13 17.502 4.866-.195 3.78-17.892 14.353-28.615 17.095-11.828 3.025-33.392 2.071-42.308-1.87-8.582-3.794-28.629-4.407-34.789-1.064-6.453 3.502-11.748 10.462-11.748 15.444 0 2.406-.91 5.766-2.024 7.465-3.68 5.615-5.393 27.57-5.413 69.322-.013 27.299.512 42.857 1.71 50.727 1.08 7.094 1.484 16.238 1.075 24.375-.518 10.322-.098 15.756 2.025 26.2 1.473 7.247 3.499 18.216 4.502 24.375 1.003 6.16 2.702 15.698 3.776 21.198 2.256 11.557 1.56 23.553-1.817 31.286-2.476 5.672-5.034 7.06-22.767 12.36-12.95 3.87-15.324 3.972-18.494.802zm-102.573-1039.912c0-2.523 13.282-21.346 19.807-28.07 7.758-7.997 13.34-11.413 20.876-12.776 13.382-2.42 13.692-3.764 14.973-64.94.866-41.32 2.662-76.753 4.339-85.597 2.284-12.041 1.696-17.28-2.399-21.374-4.67-4.67-7.533-4.598-16.194.409-7 4.046-7.11 4.065-28.277 4.738-20.673.658-21.453.781-28.75 4.536-4.125 2.123-11.718 5.015-16.875 6.427-5.156 1.41-10.474 2.99-11.817 3.507-2.18.84-2.079.323.938-4.824 2.525-4.31 3.38-7.448 3.381-12.42 0-11.848 5.582-18.118 16.4-18.432 4.018-.116 27.818-10.507 32.973-14.396 2.063-1.555 5.719-3.81 8.125-5.01 2.407-1.2 9.686-7.611 16.177-14.248 13.624-13.928 13.186-12.18 8.95-35.736-1.367-7.606-3.98-23.673-5.806-35.705-6.753-44.492-5.832-40.576-9.648-41.019-2.012-.234-6.321 1.158-10.595 3.423-3.962 2.099-9.734 4.629-12.828 5.622-14.197 4.559-27.178 9.718-30.388 12.078-9.32 6.852-14.83 10.001-24.612 14.064-20.692 8.596-80.77 38.626-90.923 45.448-11.902 7.996-14.431 11.55-16.582 23.29l-1.563 8.529 8.435 17.09c4.64 9.398 9.971 19.341 11.849 22.095 1.877 2.753 8.056 13.443 13.73 23.755 5.675 10.313 11.292 19.875 12.484 21.25 1.191 1.375 3.473 4.75 5.07 7.5 1.598 2.75 3.896 6.125 5.107 7.5 1.212 1.375 4.137 5.875 6.501 10 14.629 25.526 26.686 45.532 29.508 48.961 1.793 2.179 6.256 8.929 9.92 15 13.328 22.093 23.133 38.792 29.602 50.414 19.621 35.254 22.644 39.914 25.925 39.966 1.203.019 2.187-.456 2.187-1.055zm151.713-261.867c6.276-3 14.076-6.45 17.332-7.663 10-3.728 10.273-5.946 1.225-9.937l-5.355-2.362-6.589 6.772c-3.624 3.724-9.483 9.021-13.02 11.771-5.87 4.564-7.814 6.875-5.781 6.875.426 0 5.91-2.455 12.188-5.456zM860.8 1699.354c.784-3.124-1.873-9.243-4.014-9.243-.5 0-3.432-2.306-6.515-5.125-4.826-4.41-13.454-9.875-15.593-9.875-1.46 0-.548 2.894 1.907 6.053 16.355 21.043 22.366 25.558 24.215 18.19zm.476-956.604c.334-3.398-.72-5.316-6.607-12.02-6.408-7.3-11.103-10.598-12.745-8.956-.353.353 1.159 4.415 3.36 9.026 3.002 6.291 4.903 8.725 7.61 9.747 1.985.75 3.61 2.27 3.61 3.38 0 5.406 4.227 4.364 4.772-1.177z"/></svg>