<svg xmlns="http://www.w3.org/2000/svg" xmlns:dc="http://dublincore.org/documents/dcmi-terms/" height="417" viewBox="0 0 1059 417" width="1059"><metadata><dc:description>Silhouette of Lepidosireniformes, processed by PhyloPic Tools (https://github.com/eweitz/phylopic-tools)</dc:description><dc:source>http://phylopic.org/image/104f2094-9617-492d-8875-207f242bbf21</dc:source><dc:creator>Steven Traver</dc:creator><dc:license>http://creativecommons.org/publicdomain/zero/1.0/</dc:license></metadata><g fill-rule="evenodd"><path d="M1 0h1058v417H0V3C-.086 1.581-.165.168 1 0zm1043 6c-5.519.143-11.589.762-17 1-26.435 1.162-51.476-2.01-74-3-25.936-1.14-55.006 1.309-76-2-7.063.201-19.448 3.654-29 6-8.325 2.045-16.738 3.42-25 6-7.889 2.463-15.267 5.567-23 8-7.833 2.464-15.817 6.474-24 6-.627 9.258-14.216 9.012-14 16-7.097 1.444-9.217 2.185-15 4-3.863.803-2.231 7.102-6 8-5.89.777-9.235 4.098-16 4-11.932 10.27-28.049 16.567-42 24-4.615 2.458-10.117 4.918-14 8-7.348 5.832-11.701 14.958-20 19-7.206 3.51-15.762 5.213-24 5-10.545 11.449-24.057 18.472-38 26-7.688 4.151-15.925 8.848-24 12-8.817 3.442-18.627 3.643-28 7-6.031 2.16-10.946 6.213-17 8-5.98 1.766-12.231 2.499-19 4-13.305 2.951-26.559 8.3-40 10-13.226 1.673-25.547 1.778-38 4-10.825 1.931-20.46 7.225-32 10-3.63.873-7.427.251-11 1-7.806 1.637-14.851 5.296-22 7-13.535 3.227-28.082 5.086-44 4-31.11-2.122-65.724-3.443-100-5-16.921-.769-34.903-2.75-52-2-12.082.53-25.701 3.78-39 6-27.763 4.635-49.285 11.756-70 22-21.243 10.505-40.234 15.962-48 36 2.741 4.926 10.364 4.969 13 10-2.013 1.221-9.613-.453-11 4 7.607 20.544 21.369 31.024 44 37 9.376 2.476 19.455 6.293 29 8 13.948 2.495 29.177 2.163 44 3 11.498.649 22.077 3.876 32 5 5.406.612 11.425-.868 16 2-3.928 22.042 5.795 35.391 10 51 1.485 5.513 2.048 10.663 3 16 .762 4.271-.288 11.274 5 14 2.573-21.508-8.237-39.095-8-57 .114-8.597 3.986-16.551 4-26 6.431.902 11.327 3.34 18 4 4.126 12.073 15.375 18.65 23 28 3.72 4.562 6.805 9.981 10 15 3.001 4.713 5.531 11.494 12 13-.198-19.205-8.753-30.2-17-39-3.168-3.38-9.031-6.598-7-12 19.178 7.77 37.103 5.96 60 7 17.952.815 34.992 3.872 52 3 12.447-.639 24.776-3.341 38-4 45.331-2.259 92.5-6.885 132-16 14.571-3.362 29.623-5.64 41-10 7.351-2.817 14.982-8.194 24-12 18.791-7.931 31.971-13.844 51-23 8.588-4.133 19.459-12.01 25-12 6.168.012 8.679 5.211 15 8 15.504 6.841 35.422 7.131 52 6 21.888-1.492 44.103-11.111 69-13 10.936-.83 22.002 1.147 33 1 19.087-.256 38.312-10.013 56-7 3.045-1.358 6.826 3.729 7-1-4.458-8.487-16.801-7.125-26-6-11.139 1.362-23.774 6.504-38 5-9.811-1.037-19.603-5.804-29-6-26.983-.563-59.486 13.966-86 11-4.408-.493-9.684-2.393-14-4-3.97-1.479-10.126-2.585-11-8 5.99-3.537 10.006 2.456 14 4 35.29 13.639 75.056-3.714 100-15 17.733-8.023 34.922-18.903 55-23 4.889-.997 10.597-.123 16-1 4.754-.772 9.428-3.551 14-4 6.378-.626 11.701 2.683 14-1-5.565-4.733-13.449-3.595-20-3-6.612.601-14.219 2.199-21 3-7.646.903-15.744 1.385-22 3-35.561 9.182-69.635 40.943-114 23 7.504-8.163 18.08-13.254 25-22 3.246.58 4.652-.681 7-1 4.046-6.572 11.342-10.802 18-15 13.133-8.281 26.108-16.571 41-22 5.22-13.527 17.055-18.856 27-27 15.011-12.292 23.39-27.819 37-41 7.843-7.595 16.654-14.431 24-23 7.198-8.397 14.366-16.603 24-23 9.841-6.535 19.801-14.194 30-18 8.532-3.184 18.035-4.348 27-8 26.422-10.763 51.339-14.497 76-29 4.032-2.967 12.393-1.607 11-10-2.67-5.104-9.195-2.099-13-2z" fill="#fff"/><path d="M1057 8c1.393 8.393-6.968 7.033-11 10-24.661 14.503-49.578 18.237-76 29-8.965 3.652-18.468 4.816-27 8-10.199 3.806-20.159 11.465-30 18-9.634 6.397-16.802 14.603-24 23-7.346 8.569-16.157 15.405-24 23-13.61 13.181-21.989 28.708-37 41-9.945 8.144-21.78 13.473-27 27-14.892 5.429-27.867 13.719-41 22-6.658 4.198-13.954 8.428-18 15-2.348.319-3.754 1.58-7 1-6.92 8.746-17.496 13.837-25 22 44.365 17.943 78.439-13.818 114-23 6.256-1.615 14.354-2.097 22-3 6.781-.801 14.388-2.399 21-3 6.551-.595 14.435-1.733 20 3-2.299 3.683-7.622.374-14 1-4.572.449-9.246 3.228-14 4-5.403.877-11.111.003-16 1-20.078 4.097-37.267 14.977-55 23-24.944 11.286-64.71 28.639-100 15-3.994-1.544-8.01-7.537-14-4 .874 5.415 7.03 6.521 11 8 4.316 1.607 9.592 3.507 14 4 26.514 2.966 59.017-11.563 86-11 9.397.196 19.189 4.963 29 6 14.226 1.504 26.861-3.638 38-5 9.199-1.125 21.542-2.487 26 6-.174 4.729-3.955-.358-7 1-17.688-3.013-36.913 6.744-56 7-10.998.147-22.064-1.83-33-1-24.897 1.889-47.112 11.508-69 13-16.578 1.131-36.496.841-52-6-6.321-2.789-8.832-7.988-15-8-5.541-.01-16.412 7.867-25 12-19.029 9.156-32.209 15.069-51 23-9.018 3.806-16.649 9.183-24 12-11.377 4.36-26.429 6.638-41 10-39.5 9.115-86.669 13.741-132 16-13.224.659-25.553 3.361-38 4-17.008.872-34.048-2.185-52-3-22.897-1.04-40.822.77-60-7-2.031 5.402 3.832 8.62 7 12 8.247 8.8 16.802 19.795 17 39-6.469-1.506-8.999-8.287-12-13-3.195-5.019-6.28-10.438-10-15-7.625-9.35-18.874-15.927-23-28-6.673-.66-11.569-3.098-18-4-.014 9.449-3.886 17.403-4 26-.237 17.905 10.573 35.492 8 57-5.288-2.726-4.238-9.729-5-14-.952-5.337-1.515-10.487-3-16-4.205-15.609-13.928-28.958-10-51-4.575-2.868-10.594-1.388-16-2-9.923-1.124-20.502-4.351-32-5-14.823-.837-30.052-.505-44-3-9.545-1.707-19.624-5.524-29-8-22.631-5.976-36.393-16.456-44-37 1.387-4.453 8.987-2.779 11-4-2.636-5.031-10.259-5.074-13-10 7.766-20.038 26.757-25.495 48-36 20.715-10.244 42.237-17.365 70-22 13.299-2.22 26.918-5.47 39-6 17.097-.75 35.079 1.231 52 2 34.276 1.557 68.89 2.878 100 5 15.918 1.086 30.465-.773 44-4 7.149-1.704 14.194-5.363 22-7 3.573-.749 7.37-.127 11-1 11.54-2.775 21.175-8.069 32-10 12.453-2.222 24.774-2.327 38-4 13.441-1.7 26.695-7.049 40-10 6.769-1.501 13.02-2.234 19-4 6.054-1.787 10.969-5.84 17-8 9.373-3.357 19.183-3.558 28-7 8.075-3.152 16.312-7.849 24-12 13.943-7.528 27.455-14.551 38-26 8.238.213 16.794-1.49 24-5 8.299-4.042 12.652-13.168 20-19 3.883-3.082 9.385-5.542 14-8 13.951-7.433 30.068-13.73 42-24 6.765.098 10.11-3.223 16-4 3.769-.898 2.137-7.197 6-8 5.783-1.815 7.903-2.556 15-4-.216-6.988 13.373-6.742 14-16 8.183.474 16.167-3.536 24-6 7.733-2.433 15.111-5.537 23-8 8.262-2.58 16.675-3.955 25-6 9.552-2.346 21.937-5.799 29-6 20.994 3.309 50.064.86 76 2 22.524.99 47.565 4.162 74 3 5.411-.238 11.481-.857 17-1 3.805-.099 10.33-3.104 13 2z"/></g></svg>