<svg xmlns="http://www.w3.org/2000/svg" xmlns:dc="http://dublincore.org/documents/dcmi-terms/" height="2834.65" version="1.2" viewBox="0 0 15590.55 2834.65" width="15590.55"><metadata><dc:description>Silhouette of Lepidosiren, processed by PhyloPic Tools (https://github.com/eweitz/phylopic-tools)</dc:description><dc:source>http://phylopic.org/image/a15d855e-1bcf-4ad3-9777-f85399b867eb</dc:source><dc:license>http://creativecommons.org/publicdomain/mark/1.0/</dc:license></metadata><path d="M6523 1245v410h1838c-9.11-4.76 1.67-11.82-1-22-4.12-.79-1.88 4.79-6 4-3.74-2.26 2.07-9.91-4-11-4.71 8.89 2.5 22.48-7 28-6.04-2.48-.03-10.17-2-14-3.87-.95-4.12 3.9-7 1 .45-12.12-5.1-18.23-12-23-4.39 2.07 5.55 8.64 0 13-15.22-4.11-26.07-12.6-34-24-3.91.43-2.75 5.92-8 5 1.52-9.82-1.4-22.8-9-29-2.58 4.15 1.97 10.42-2 14-4.62-4.94.08-13.15-3-19-4.21 1.46-.51 10.82-5 12-5.58-2.37 1.43-15.78-3-17-5.89 1.17.75 8.7-4 11-5.35-2.37-.45-8.84-3-14-10.18-9.03-18.17-22.58-16-41-3.98-3.02-12.72-1.28-16-5-29.93 4.49-66.23-3.13-99 2-11.68-4.57-28.6-2.22-45-3-10.82-.52-22.26-2.57-33-3-24.62-.98-48.51.08-67-4-3.07.26-4.5 2.17-7 3-55.81-3.46-123.36-6.53-176-5-19.75-4.24-47.07-.8-68-2-4.31-.25-8.78-2.58-13-3-25.99-2.57-60.7 3.14-87 3-3.29-.02-6.81-2.02-10-2-29.75.22-60.59 5.61-92 6-43.11.53-87.92 2.99-133 4-77.7 1.74-166.9.91-246 7-24.03 1.85-48.44-1.69-74-3-31.86-1.63-64.36-.47-96-1-32-.53-63.12-.55-91-3-35.23-3.1-69.29-4.76-102-10-25.55-4.09-54.81-9.45-79-17-21.4-6.68-45.39-18.39-70-28-24.46-9.55-48.1-20.86-65-34-11.19-8.71-28.28-23.85-33-35-1.36-3.22.31-6.9-1-11-2.16-6.78-7.69-11.62-8-17-.58-9.99 5.16-21.35 10-27 21-24.53 63.94-32.04 107-40 9.27-1.71 18.04-5.9 28-8 42.17-8.87 90.43-6.63 136-3 32.21 2.57 59.33.77 86 4 4.52.55 8.78 2.86 13 3 5.67.19 11.29-2.87 17-3 13.95-.33 29 4.48 43 3 3.39-.36 6.81-2.52 10-3 17.92-2.69 34.77 2.52 53 2 17.46-.5 37.88-2.58 57-3 26.73-.59 54.72-3.1 82-3 28.27.1 55.84.06 83-4 17.08-2.55 33.75-4.28 51-6 6.49-.65 12.66-3.68 19-4 5.04-.26 8.96 1.78 14 2 8.11.36 17.13-2.36 26-3 17.02-1.22 35.29 1.2 52 0 47.47-3.4 94.94-2.5 142-7 50.1-4.79 100-11.34 149-15 28.64-2.14 57.5 2.31 85-1 27.83-3.35 60.26-2.86 90-6v-1H6523z" fill="#fff"/><path d="M6534 1341c-4.84 5.65-10.58 17.01-10 27 .31 5.38 5.84 10.22 8 17 1.31 4.1-.36 7.78 1 11 4.72 11.15 21.81 26.29 33 35 16.9 13.14 40.54 24.45 65 34 24.61 9.61 48.6 21.32 70 28 24.19 7.55 53.45 12.91 79 17 32.71 5.24 66.77 6.9 102 10 27.88 2.45 59 2.47 91 3 31.64.53 64.14-.63 96 1 25.56 1.31 49.97 4.85 74 3 79.1-6.09 168.3-5.26 246-7 45.08-1.01 89.89-3.47 133-4 31.41-.39 62.25-5.78 92-6 3.19-.02 6.71 1.98 10 2 26.3.14 61.01-5.57 87-3 4.22.42 8.69 2.75 13 3 20.93 1.2 48.25-2.24 68 2 52.64-1.53 120.19 1.54 176 5 2.5-.83 3.93-2.74 7-3 18.49 4.08 42.38 3.02 67 4 10.74.43 22.18 2.48 33 3 16.4.78 33.32-1.57 45 3 32.77-5.13 69.07 2.49 99-2 3.28 3.72 12.02 1.98 16 5-2.17 18.42 5.82 31.97 16 41 2.55 5.16-2.35 11.63 3 14 4.75-2.3-1.89-9.83 4-11 4.43 1.22-2.58 14.63 3 17 4.49-1.18.79-10.54 5-12 3.08 5.85-1.62 14.06 3 19 3.97-3.58-.58-9.85 2-14 7.6 6.2 10.52 19.18 9 29 5.25.92 4.09-4.57 8-5 7.93 11.4 18.78 19.89 34 24 5.55-4.36-4.39-10.93 0-13 6.9 4.77 12.45 10.88 12 23 2.88 2.9 3.13-1.95 7-1 1.97 3.83-4.04 11.52 2 14 9.5-5.52 2.29-19.11 7-28 6.07 1.09.26 8.74 4 11 4.12.79 1.88-4.79 6-4 2.67 10.18-8.11 17.24 1 22h2c7.95-2.05 2.32-17.68 7-23 6.03 3.61-3.72 17.5 4 20 5.56-3.59 4.24-14.22 7-18 4.19.47-.22 9.56 5 9 5.48-5.16-4.8-10.05-3-18 8.14 4.86 10.69 15.31 17 22 6.21-7.67-3.84-15.16-5-22 5.57-.06 10.94 8.26 12 16 8.11-4.88 4.01 8.69 13 6-.51-8.83-7.21-11.46-10-18 7.75-1.62 12.28 13.62 17 15 3.13-4.37-6.03-3.55-3-11 5.3 4.27 16.37 11.51 23 8 1.18-5.51-5.51-3.16-4-9 14.66 4.14 26.65 5.58 42 5 1.42-5.92 10.07-4.6 9-13 10.11-1.66 22.06 3.58 27-2 2.87 1.72 7.11 6.57 9 1-1.8-5.2-10.2-3.8-12-9 .43-1.9 2.15-2.51 2-5 12.42 2.97 23.39 13.24 39 7-1.12-4.56.17-6.98-1-10-14.01.68-22.38-4.29-28-12 12.34-.61 25.92 15.17 42 5 3.67.33 4.04 3.96 9 3 3.28-1.62-2.68-6.28 2-6 8.19 2.39 19.89.9 22-6 4.67.52 8.12 1.98 8-4-5.6-4.75-14.56 3.07-23 2 1.53-15.6 26.02-1.62 25-15-6.72.73-11.76 5.09-18 1 .24-5.76 10.32-1.68 9-9-3.36-3.28-7.66-.11-14-1-3.52-2.26 3.22-4.4 0-6-10 3.74-16.26 25.83-31 15 9.45-.4 15.79-6.74 21-14-3.29-2.04-4.42-6.24-8-8-15.26.41-14.88 16.45-31 16-1.6-7.27 5.9-5.43 10-7 3.26-4.74 7.49-8.51 9-15-7.23-.05-8.52 3.43-13-1-7.08 6.58-10.58 16.75-24 17 .14-9.19 12.6-6.07 13-15-12.62-2.37-16.17 17.62-30 14 4.13-7.54 12.85-10.48 18-17-16.19-3.43-24.55 14.69-35 17 2.36-9.65 13.66-15.67 17-21-5.98-.32-6.94 4.39-13 4-2.44-5.5 6.39-4.87 3-8-3.85-.93-9.87 5.88-17 2-.58-1.76 1.21-5.88-1-6-5.7 0-14.22-1.28-19-5 10.49-5.66 24.84-1.9 40-3 16.79-1.22 32.88-1.75 50-2 14.49-.21 30.14-.59 45-2 4.87-.46 9.88-2.85 15-3 16.11-.48 31.56 1.3 47-1 22.79-3.4 56.99-7.41 84-7 17.88-6.45 38.74-7.2 59-10 41.16-5.68 83.29-12.41 119-23 36.26-16.08 87.87-16.8 113-44 4.91-10.24 13.51-17.98 18-31 1.24-3.6 1.61-7.11 4-10 5.56-1.11 10.4-2.93 12-8v-4c-19.39-18.51-27.25-47.31-50-61-8.07-4.85-19.29-7.93-31-11-27.21-7.14-61.84-10.95-94-16-63.83-10.02-130.8-17.64-195-23-21.1-1.76-41.69-5.7-62-7-45.29-2.9-89.35-.99-139-4-39.35-2.39-79.79-5-120-5-81.34 0-162.78 1.6-242-2-19.62-.89-38.4-1.89-57-2-18.8-.11-37.03 2.01-55 2-12.13 0-24.65-3.38-37-3-36.55 1.12-73.09 4.01-106-1h-2v1c-29.74 3.14-62.17 2.65-90 6-27.5 3.31-56.36-1.14-85 1-49 3.66-98.9 10.21-149 15-47.06 4.5-94.53 3.6-142 7-16.71 1.2-34.98-1.22-52 0-8.87.64-17.89 3.36-26 3-5.04-.22-8.96-2.26-14-2-6.34.32-12.51 3.35-19 4-17.25 1.72-33.92 3.45-51 6-27.16 4.06-54.73 4.1-83 4-27.28-.1-55.27 2.41-82 3-19.12.42-39.54 2.5-57 3-18.23.52-35.08-4.69-53-2-3.19.48-6.61 2.64-10 3-14 1.48-29.05-3.33-43-3-5.71.13-11.33 3.19-17 3-4.22-.14-8.48-2.45-13-3-26.67-3.23-53.79-1.43-86-4-45.57-3.63-93.83-5.87-136 3-9.96 2.1-18.73 6.29-28 8-43.06 7.96-86 15.47-107 40z"/><path d="M9067 1245H7879c32.91 5.01 69.45 2.12 106 1 12.35-.38 24.87 3 37 3 17.97.01 36.2-2.11 55-2 18.6.11 37.38 1.11 57 2 79.22 3.6 160.66 2 242 2 40.21 0 80.65 2.61 120 5 49.65 3.01 93.71 1.1 139 4 20.31 1.3 40.9 5.24 62 7 64.2 5.36 131.17 12.98 195 23 32.16 5.05 66.79 8.86 94 16 11.71 3.07 22.93 6.15 31 11 22.75 13.69 30.61 42.49 50 61v-133zM8363 1655h704v-273c-1.6 5.07-6.44 6.89-12 8-2.39 2.89-2.76 6.4-4 10-4.49 13.02-13.09 20.76-18 31-25.13 27.2-76.74 27.92-113 44-35.71 10.59-77.84 17.32-119 23-20.26 2.8-41.12 3.55-59 10-27.01-.41-61.21 3.6-84 7-15.44 2.3-30.89.52-47 1-5.12.15-10.13 2.54-15 3-14.86 1.41-30.51 1.79-45 2-17.12.25-33.21.78-50 2-15.16 1.1-29.51-2.66-40 3 4.78 3.72 13.3 5 19 5 2.21.12.42 4.24 1 6 7.13 3.88 13.15-2.93 17-2 3.39 3.13-5.44 2.5-3 8 6.06.39 7.02-4.32 13-4-3.34 5.33-14.64 11.35-17 21 10.45-2.31 18.81-20.43 35-17-5.15 6.52-13.87 9.46-18 17 13.83 3.62 17.38-16.37 30-14-.4 8.93-12.86 5.81-13 15 13.42-.25 16.92-10.42 24-17 4.48 4.43 5.77.95 13 1-1.51 6.49-5.74 10.26-9 15-4.1 1.57-11.6-.27-10 7 16.12.45 15.74-15.59 31-16 3.58 1.76 4.71 5.96 8 8-5.21 7.26-11.55 13.6-21 14 14.74 10.83 21-11.26 31-15 3.22 1.6-3.52 3.74 0 6 6.34.89 10.64-2.28 14 1 1.32 7.32-8.76 3.24-9 9 6.24 4.09 11.28-.27 18-1 1.02 13.38-23.47-.6-25 15 8.44 1.07 17.4-6.75 23-2 .12 5.98-3.33 4.52-8 4-2.11 6.9-13.81 8.39-22 6-4.68-.28 1.28 4.38-2 6-4.96.96-5.33-2.67-9-3-16.08 10.17-29.66-5.61-42-5 5.62 7.71 13.99 12.68 28 12 1.17 3.02-.12 5.44 1 10-15.61 6.24-26.58-4.03-39-7 .15 2.49-1.57 3.1-2 5 1.8 5.2 10.2 3.8 12 9-1.89 5.57-6.13.72-9-1-4.94 5.58-16.89.34-27 2 1.07 8.4-7.58 7.08-9 13-15.35.58-27.34-.86-42-5-1.51 5.84 5.18 3.49 4 9-6.63 3.51-17.7-3.73-23-8-3.03 7.45 6.13 6.63 3 11-4.72-1.38-9.25-16.62-17-15 2.79 6.54 9.49 9.17 10 18-8.99 2.69-4.89-10.88-13-6-1.06-7.74-6.43-16.06-12-16 1.16 6.84 11.21 14.33 5 22-6.31-6.69-8.86-17.14-17-22-1.8 7.95 8.48 12.84 3 18-5.22.56-.81-8.53-5-9-2.76 3.78-1.44 14.41-7 18-7.72-2.5 2.03-16.39-4-20-4.68 5.32.95 20.95-7 23z" fill="#fff"/></svg>