<svg xmlns="http://www.w3.org/2000/svg" xmlns:dc="http://dublincore.org/documents/dcmi-terms/" height="443" version="1.2" viewBox="0 0 733 443" width="733" overflow="inherit"><metadata><dc:description>Silhouette of Leptomeryx evansi, processed by PhyloPic Tools (https://github.com/eweitz/phylopic-tools)</dc:description><dc:source>http://phylopic.org/image/e69e1841-7a09-4936-bc94-19ca766cba84</dc:source><dc:creator>Nobu Tamura (vectorized by T. Michael Keesey)</dc:creator><dc:license>http://creativecommons.org/licenses/by/3.0/</dc:license></metadata><path d="M498 0h-16c-60.917 3.992-117.045 16.343-162 37-20.002 9.191-40.243 21.104-61 33-28.428 16.292-59.238 34.858-104 25-4.838-1.065-8.305-4.792-14-5-10.651-.39-15.65 6.009-29 5 2.549-15.055-4.634-28.572-16-33 .865 17.46-.988 22.708 3 36-46.458 21.208-73.55 61.784-99 104v10c5.076 5.419 3.93 16.037 13 18 14.892 3.222 36.676-9.632 55-18 20.954-9.569 35.023-21.229 65-18 18.191 1.96 37.56 13.839 53 21 5.791 2.686 13.035 3.378 18 6 18.489 9.764 32.393 42.445 22 68-6.023 14.811-16.623 26.784-28 39 2.139 6.055-6.188 9.629-6 17-3.243 4.04-4.551 9.773-8 14-1.091 1.337-5.13 3.624-6 6-7.124 19.454-15.588 36.946-30 51-2.191 2.142-5.918 2.749-8 5 2.284 8.988-8.621 14.129-9 20 7.214 2.548 16.966-6.251 22 2 4.921-5.079 11.173-8.827 19-11 2.233-3.434 3.895-7.439 8-9 13.164-34.503 29.183-66.15 50-93 7.093 24.767 26.62 56.982 12 85 1.733 2.804 2.62.939 6 1v9c8.103.769 11.593-3.073 12-10 2.561 1.297 7.758 3.512 11 1-5.814-19.35 4.504-29.782 3-46-5.363-17.304-16.092-29.241-20-48 .437-1.484 1.279.395 3 0-1.316-2.351-2.787-4.546-2-9 10.534-24.799 23.556-47.111 32-74 15.345 1.914 27.691-.767 41 1 11.615-4.836 29.116-8.723 41-10 .09-2.729-1.666-2.013 0-4 12.006-.367 10.965-5.348 21 0-1.561-4.544 1.408-5.312 3-9 4.146-1.146 3.896 2.104 7 2-1.639-3.929 4.725-3.062 3-2 2.043-1.258.951-3.616 2-4 4.865-1.781 12.211 2.206 13-3 3.414 1.332 15.913 2.247 14-5 15.014-1.221 20.444-2.971 37-2-.908-2.091-2.951-3.049-6-3 12.392-.163 20.791-3.388 31-5 6.99 12.39 13.101 25.058 22 36 8.587 10.558 16.181 21.927 25 32 .627.717 3.328 1.09 4 2 .646.875-.578 3.07 0 4 1.862 2.996 9.131 8.095 8 16 2.654 1.013 3.896 3.438 7 4-.791 34.21-28.209 41.791-41 64-1.182 1.151-3.535 1.132-6 1-10.275 17.392-26.619 28.715-36 47-6.23 1.771-8.359 7.641-14 10 .482 8.149-4.549 10.784-6 17 7.631 1.752 18.824-7.091 22 0 6.34-2.326 10.97-6.363 17-9 5.58-22.921 24.804-31.183 40-48 8.707-9.637 20.514-21.006 31-31 10.438-9.947 21.6-16.945 30-24 4.818-4.047 9.194-19.823 7-32-3.524-19.557-21.982-31.372-26-53 2.604-3.8-.592-12.256 3-17 16.287 7.423 30.525 19.71 49 26 18.576 6.325 37.048 11.992 53 22 5.365 4.968 9.071 11.596 13 18 8.142 34.534 2.046 73.514-1 106-8.731 7.602-10.658 22.009-17 32 8.578 5.588 21.066-4.062 29 3 3.951-3.049 5.341-8.659 10-11 1.964-17.625 16.994-38.097 6-56-.881-39.836 8.873-78.248 2-115-14.943-20.125-44.65-22.194-64-37-21.217-16.235-21.928-39.591-24-70-2.05-1.617-2.521-4.812-4-7 3.054-20.58-3.225-50.9 20-44 21.154 6.285 47.623 36.288 62 55 6.288 8.184 13.305 18.01 18 22v-1c-11.806-17.301-23.376-34-37-50-13.543-15.906-29.484-28.079-45-42-10.173-9.128-17.301-22.333-28-31C591.814 8.738 547.842 5.213 498 0z" fill-rule="evenodd"/></svg>