<svg xmlns="http://www.w3.org/2000/svg" xmlns:dc="http://dublincore.org/documents/dcmi-terms/" height="462.478" version="1.2" viewBox="49.312 24.213 410.89 462.478" width="410.89" overflow="inherit"><metadata><dc:description>Silhouette of Leptoptilos dubius, processed by PhyloPic Tools (https://github.com/eweitz/phylopic-tools)</dc:description><dc:source>http://phylopic.org/image/4945a90e-fe64-4688-b7d3-14df890e390f</dc:source><dc:creator>L. Shyamal</dc:creator><dc:license>http://creativecommons.org/licenses/by-sa/3.0/</dc:license></metadata><path d="M115.925 51.72c2.996-10.722 11.162-16.944 19.286-22.858 3.652-2.658 13.367-6.56 17.143-3.57 0 0 13.496 7.261 17.143 13.57 3.252 5.627 4.992 13.148 2.857 19.286l-5.714 16.43v5.713s1.565-4.657 10-5.714c8.435-1.058 12.01 5.417 15.714 5 13.856-1.56 37.972 4.661 63.572 18.571 25.294 13.744 57.027 22.665 87.143 42.857 26.805 17.972 90.626 90.904 114.286 113.572-3.85 0-31.45-1.596-20 30 7.885 21.761-71.85-26.604-125.715-39.286-18.181-4.28-56.02-2.185-89.286-15.714-48.96-19.912-65.714-62.143-65.714-62.143l-6.43 21.428c-2.051 6.842-10.074 18.893-17.142 17.857-6.738-.986-11.784-18.275-10.714-25 1.07-6.725 2.1-12.352 3.572-22.857 1.098-7.838 2.857-15.656 2.857-23.57 0-7.916-1.693-17.784 0-26.43 1.334-6.812 4.752-13.077 7.857-19.285l5.714-11.429-16.428-2.143-11.43-7.857s-.003-11.302 1.429-16.429z"/><path d="M115.925 53.504s-29.83 52.65-44.286 80.714c-7.318 14.207-22.327 45-22.327 45 2.038.19 3.08-1.48 4.79-2.596 24.854-38.736 50.415-76.104 78.966-116.689l-14.286 2.857-2.857-9.286z"/><path d="M115.568 53.147s-30.9 51.935-45.357 80c-7.318 14.207-16.954 32.27-20.508 42.881-.458 1.368-.207 3.76-.207 3.76 24.852-38.736 54.306-80.342 82.857-120.927 0 0-9.747 1.628-13.928-.714-2.826-1.583-2.857-5-2.857-5z"/><path d="M153.425 65.647s-37.336 50.981-56.786 72.5c-10.614 11.743-22.367 22.44-34.286 32.857-10.793 9.433-12.857 8.393-12.857 8.393l76.429-108.393 7.143-11.428s-.645 9.03 4.286 10.893c5.539 2.092 16.07-4.822 16.07-4.822zM198.438 78.754c-2.708.014-5.227.26-7.562.812-.724 4.688-2.097 10.376-4.938 12.875-5.967 5.25-22.096 5.061-22.096 5.061s17.984 7.758 28.502 9.221c7.09.986 22.69-5.769 25.719.72l9.494 6.973c5.268 3.87-17.25 6.897-23.775 7.308-12.377.777-30.933-12.889-37.156-2.156-2.04 3.515-2.846 7.6-.688 15.72 2.158 8.118 10.455 21.041 18.562 29.28 0 0 28.393 34.001 47.125 43.594 37.724 19.32 66.46 32.963 123.31 54.217 15.785 5.9 90.726 40.481 82.408 22.19-11.448-31.597 10.437.714 22.857-27.144-23.66-22.668-90.334-98.448-117.14-116.42-30.114-20.192-61.83-29.1-87.124-42.844-19.997-10.868-41.636-19.489-57.498-19.407zM281.934 244.943l1.01 69.7 1.012 20.708s4.54 3.456 4.04 7.576c-1.271 10.441-7.76 11.065-9.388 37.167l-10.815 92.133 8.658 5.051c6.12 3.57 22.82-4.39 21.386 6.566-.48 3.677-3.5 2.867-12.871 2.525-5.092-.187-9.735-.474-14.143-3.03l-6.877-3.99s-17.14 5.428-31.891 3.571c-14.752-1.857-18.508 5.94-23.774.418-7.908-13.417 40.13-2.979 47.094-11.602 1.01-4.04 2.316-9.61 2.316-9.61 10.033-51.65 9.468-71.504 14.142-107.077 0 0-3.03-5.364-3.03-9.09 0-3.729 4.04-12.123 4.04-12.123l1.012-11.112c-.162-26.008 1.596-51.056-2.021-78.792l-3.03-6.06 3.03-6.062 10.102 5.051v8.082h-.002z"/><path d="M295.258 479.087s2.991-1.819 4.579-1.134c2.134.921 4.247 4.872 4.247 4.872s-3.34-2.353-5.177-2.423c-1.274-.049-3.244 2.192-3.244 2.192l-.405-3.507zM209.28 479.674s-2.991-1.818-4.58-1.134c-2.134.921-4.248 4.872-4.248 4.872s3.34-2.353 5.177-2.423c1.274-.048 3.244 2.192 3.244 2.192l.407-3.507z"/></svg>