<svg xmlns="http://www.w3.org/2000/svg" xmlns:dc="http://dublincore.org/documents/dcmi-terms/" height="969.46" viewBox="0 0 904.831 969.46" width="904.831" overflow="visible"><metadata><dc:description>Silhouette of Limacidae, processed by PhyloPic Tools (https://github.com/eweitz/phylopic-tools)</dc:description><dc:source>http://phylopic.org/image/2cfd8a84-c072-4f49-a5cc-340408b73785</dc:source><dc:creator>Gareth Monger</dc:creator><dc:license>http://creativecommons.org/licenses/by/3.0/</dc:license></metadata><switch><g><path d="M57.199 590.792c26.988-38.982 26-36 28-44s21-33 26-43 22-24 32-38 48-52 62-77 63-104 89-129 85-69 128-103 142-86 193-110 75-32 107-39 86-10 102-6 60 25 64 33 10 11 13 19 8 14-4 24-97 63-101 68-4 14-11 17 1 6-12 15-46 42-70 55-45 23-45 23-24 9-54 31-70 49-80 60-46 51-57 64-34 39-52 77-29 61-43 81-30 47-52 65-39 26-45 46l-6 20s-2 89-8 113-10 44-5 50 8 16 3 28-18 25-20 35-42 38-71 42-63 1-87-11-50-60-56-61-33-5-23-14 11-15 12-18-11-24-6-31 3-6 8-24 4-68 6-77 3-9 4-15 0-45 13-79 9-34 18-47z"/></g></switch></svg>