<svg xmlns="http://www.w3.org/2000/svg" xmlns:dc="http://dublincore.org/documents/dcmi-terms/" height="407" version="1.2" viewBox="0 0 262 407" width="262" overflow="inherit"><metadata><dc:description>Silhouette of Limnognathia maerski, processed by PhyloPic Tools (https://github.com/eweitz/phylopic-tools)</dc:description><dc:source>http://phylopic.org/image/5f913ed1-0dd4-47de-ac91-4c022bd06d3d</dc:source><dc:creator>Вальдимар (vectorized by T. Michael Keesey)</dc:creator><dc:license>http://creativecommons.org/licenses/by-sa/3.0/</dc:license></metadata><path d="M69 0h1c5.992 26.675 8.114 57.219 17 81 3.961-7.564-3.588-16.035-3-25 1.088-16.592 13.832-28.865 24-34-17.4 8.777-28.452 33.562-18 56 1.848-2.485 1.131-7.536 5-8 8.573 2.76 14.044 8.623 25 9 5.328-24.339 13.411-45.922 28-61-13.111 16.223-22.057 36.61-27 61 8.105 9.231 15.943 21.157 24 33 8.59-13.021 17.482-25.632 30-37 2.402-2.182 13.343-8.864 14-11-2.237 7.271-21.582 18.731-27 25-7.337 8.49-11.349 16.072-17 25 2.916 5.75 4.684 12.65 4 22 13.139 3.861 16.139 17.862 20 31 8.076-.649 13.058-9.978 21-15 7.85-4.963 17.044-8.989 25-11-7.674 4.491-17.502 6.412-26 12-3.868 2.544-16.227 12.045-17 16 .693-3.545 3.369 9.252 2 7 2.133 3.507 7.418 5.057 9 8 1.218 2.266-.078 5.057 1 8 1.982 5.412 6.479 9.644 7 17 25.292-5.041 48.656-12.011 71-20v1c-21.678 8.655-47.041 13.626-70 21 8.96 23.562 11.727 73.762 2 104 16.5 16.501 37.785 33.547 47 54-12.543-20.123-28.027-37.306-47-51-5.563 22.103-22.07 33.264-39 44 6.896 13.439 16.907 29.09 21 42-7.552-14.448-14.351-29.649-23-43-2.083 15.583-4.917 30.417-7 46h-1c2.135-15.199 4.637-30.029 7-45-9.101 2.566-20.193 3.14-29 6-6.794-4.873-17.772-5.562-26-9-.284 15.287 3.029 32.299 1 46-.403-15.597-1.597-30.403-2-46-12.479 11.521-20.473 27.526-32 40 9.381-14.285 20.379-26.953 30-41-17.248-7.7-15.202-36.771-16-58-16.347 8.654-36.681 18.65-49 28 13.859-12.475 32.571-20.096 50-29 .988-13.319 3.492-23.751 7-34 3.325-9.713 10.561-17.976 9-29-29.823-3.488-49.793 8.205-67 14 18.671-8.996 37.727-17.607 68-15 .192-15.438 2.365-28.833-4-40-28.961-.626-49.791 12.207-70 17 21.4-8.6 43.149-16.851 71-19-5.963-9.037-16.797-13.203-18-27-10.545-5.788-19.837-12.829-24-25-16.311-3.508-32.855-4.71-51-2v-1c18.145-2.71 34.689-1.508 51 2-2.051-12.104-9.713-23.409-8-36-16.873-4.516-26.397-14.9-38-27-6.251-6.52 6.949 5.949 9 8 8.211 8.211 15.579 14.302 29 18 .068-9.598 3.254-16.079 11-18 3.586 1.414 5.674 4.326 9 6-6.77-16.79-31.116-33.669-55-25 7.541-.378 13.1-4.331 19-4 18.762 1.051 27.414 20.336 39 26-18.002-22.332-39.141-46.858-54-69 17.492 22.174 34.41 44.923 53 66-4.639-13.031-15.181-25.481-18-37 3.1 6.422 7.21 14.073 11 21 3.755 6.864 6.407 15.578 12 18 3.412-.588 2.468-5.532 5-7-7.522-14.146-18.316-30.348-23-44 7.157 15.176 16.336 28.33 23 44 4.229-1.496 6.425 4.151 9 1-7.042-12.293-15.134-28.863-18-42 5.282 13.051 9.933 26.733 17 38-4.099-26.235-9.638-51.028-14-77z" fill-rule="evenodd"/></svg>