<svg xmlns="http://www.w3.org/2000/svg" xmlns:dc="http://dublincore.org/documents/dcmi-terms/" height="1080" viewBox="0 0 1080 1080" width="1080"><metadata><dc:description>Silhouette of Limulina, processed by PhyloPic Tools (https://github.com/eweitz/phylopic-tools)</dc:description><dc:source>http://phylopic.org/image/38c82deb-b187-4e85-a9f8-dba2794b42d0</dc:source><dc:creator>Noah Schlottman</dc:creator><dc:license>http://creativecommons.org/licenses/by-sa/3.0/</dc:license></metadata><switch><g><path d="M603.679 586.288c5.355.716 7.986 1.066 10.618 1.421 2.123 6.705 17.509 20.396 39.664 35.155-.979.686-1.754 1.594-2.697 1.836-13.882 3.559-25.74 11.054-37.677 18.609-5.259 3.327-11.372 5.418-17.274 7.593-5.976 2.199-6.957 4.5-3.397 9.99.958 1.478 1.89 2.969 2.9 4.409.795 1.133 1.69 2.197 3.173 4.104-8.125 1.184-15.536 2.264-23.734 3.457-1.103 1.812-2.507 4.122-3.643 5.987.88 5.432 8.445 5.144 7.728 11.743-9.387-.683-16.846-6.128-26.553-10.275l6.802 10.611c-10.266-1.347-18.974-2.492-29.194-3.834 3.512 5.828 8.511 6.256 12.875 9.233l-2.547 3.917c2.272 3.515 4.613 7.131 6.951 10.748-.451.471-.902.938-1.354 1.409-6.202-4.168-12.387-8.357-18.61-12.49-2.601-1.729-16.2-2.711-18.833-1.114-1.055.64-1.487 2.308-2.382 3.807 3.75 5.734 7.541 11.536 11.352 17.366-3.205 2.521-5.363.234-7.484-1.466-7.688-6.158-15.195-12.55-23.03-18.513-1.97-1.499-4.908-1.726-7.918-2.706 3.801 5.156 6.355 10.08 10.233 13.503 4.573 4.037 6.921 8.227 5.83 15.204l-16.858-14.244.795 7.032c-8.742-2.151-14.2-8.974-21.129-13.171-7.129-4.316-13.676-9.595-20.542-14.496-2.797 4.396-.917 6.812 1.725 8.938 7.116 5.735 14.069 11.704 21.484 17.027 4.486 3.22 9.149 6.502 15.352 6.309 2.496-.078 5.043 1.525 9.165 2.893-42.514 24.335-85.664 40.915-133.87 44.25-23.85 4.705-28.726 1.138-33.497 1.307-5.958.208-11.948-.676-17.924-.698-1.332-.004-16.229-1.672-22.573-3.058-5.464-1.193-11.15-1.348-16.642-2.446-27.428-5.485-54.07-13.488-79.055-26.263-28.537-14.589-54.007-33.422-75.008-57.69-10.292-11.895-18.684-25.276-25.88-39.439-8.178-16.093-14.013-33.206-17.769-50.463-3.62-16.621-7.898-33.438-7.814-50.902.061-12.969-.442-26.021.712-38.875 1.058-11.793 3.43-23.742 7.213-34.951 5.047-14.953 11.677-29.412 18.238-43.805 11.949-26.214 28.889-49.087 49.772-68.727 12.274-11.544 26.38-20.911 41.062-29.532 22.113-12.986 45.915-21.152 70.517-27.143 13.917-3.392 28.118-5.795 42.644-5.834 11.564-.032 23.145-1.853 34.682-1.546 11.527.31 22.981 2.802 34.515 3.357 10.266.493 20.352 1.916 30.061 4.832 18.456 5.543 36.825 11.463 54.941 18.029 26.471 9.592 48.663 26.503 71.012 43.045 4.375 3.24 8.931 6.241 15.026 10.482-7.521.727-12.956.468-17.878 1.933-5.625 1.673-10.992 4.535-16.11 7.505-8.055 4.679-15.806 9.881-23.687 14.863l.715 1.979c3.745-.387 7.615-.298 11.208-1.255 7.801-2.077 15.412-4.844 23.184-7.042 11.003-3.11 22.75-3.852 32.53-11.1-2.454 11.022-12.544 14.438-19.769 22.216 2.906 0 5.209.575 7.06-.099 8.9-3.242 17.66-6.865 26.51-10.243 1.821-.694 3.825-.912 6.149-.646-5.466 7.023-12.393 12.224-19.412 17.504 5.722 3.09 14.466-3.399 17.223 6.214 9.672-2.364 19.204-5.396 29.564-5.083-6.543 5.466-12.824 11.048-20.953 14.613h23.645c-.126 1.91-.246 3.098-.271 4.289-.019.943.079 1.888.13 2.926h29.766c-9.507 4.683-16.788 8.268-26.118 12.862l33.248 9.227c-3.189 3.336-5.966 6.246-7.66 8.018 14.699-.347 20.143.455 26.326 4.721-7.846 2.016-15.029 3.864-22.635 5.82 15.3 14.067 29.589 28.065 50.872 36.824-4.483 1.592-6.363 2.02-8.01 2.889-4.927 2.6-9.858 5.215-14.594 8.141-2.631 1.626-3.293 4.265-.373 7.719-2.722-.415-3.98-.604-5.677-.865l-.659 6.728c11.871-1.109 23.388-1.798 34.786-3.342 14.213-1.925 28.358-4.383 42.478-6.917 17.543-3.147 35.03-6.608 52.542-9.929 17.848-3.388 35.675-6.9 53.553-10.125 25.132-4.534 50.318-8.757 75.451-13.297 17.19-3.105 34.309-6.617 51.494-9.763 6.531-1.192 13.144-2.498 19.741-2.638 13.387-.287 26.503-2.383 39.689-4.279 4.297-.618 8.972-1.101 14.735 1.669-2.468 1.453-3.662 2.555-5.048 2.907-13.891 3.537-27.839 6.855-41.723 10.42-31.892 8.19-63.709 16.664-95.639 24.699-43.463 10.937-87.045 21.396-130.493 32.389-36.692 9.282-73.343 18.75-109.845 28.744-11.449 3.134-22.362 8.228-33.509 12.451-.962.364-1.839.944-4.69 2.431z" fill-rule="evenodd"/></g></switch></svg>