<svg xmlns="http://www.w3.org/2000/svg" xmlns:dc="http://dublincore.org/documents/dcmi-terms/" height="792" version="1.2" viewBox="0 0 612 792" width="612"><metadata><dc:description>Silhouette of Lissodelphis peronii, processed by PhyloPic Tools (https://github.com/eweitz/phylopic-tools)</dc:description><dc:source>http://phylopic.org/image/e22d6dd2-170a-4b2f-a75c-201b9fe6eccc</dc:source><dc:creator>Chris huh</dc:creator><dc:license>http://creativecommons.org/licenses/by-sa/3.0/</dc:license></metadata><path d="M360.399 390.6l2.75 1.75c.267.134.5.233.7.301 1.733.666 2.633 1.333 2.7 2 .066.399-.184.8-.75 1.199-.167.134-.567.334-1.2.601l-6.9 2.6-5.949 1.7-4.9.75-6.8.4-1 1.699c-.267.467-.601.967-1 1.5-.4.5-.833 1-1.3 1.5-.434.434-.867.834-1.301 1.2-.434.367-.833.65-1.199.851-.2.1-.4.183-.601.25-.2.066-.417.116-.649.149l-.351.05h-.2l-.5-.05a1.167 1.167 0 0 1-.3-.2 1.587 1.587 0 0 1-.1-.3l-.05-.6c0-.3.016-.634.05-1 .033-.367.1-.75.2-1.15.133-.399.283-.833.449-1.3.167-.5.367-1.017.601-1.55l.55-1.3-.95-.15c-3.033-.434-6.134-.75-9.3-.95-3.133-.233-6.3-.333-9.5-.3h-.4c-3.266 0-6.6.116-10 .35-3.366.2-6.8.534-10.3 1l-7.85 1.2-17.8 4.7-8.25 1.8c-.434.101-.768.184-1 .25l-.15.101-.1.1c0 .167-.066.417-.2.75-.134.267-.3.583-.5.95a6.484 6.484 0 0 1-.601 1.05c-.232.3-.467.583-.699.85l-.4.4-1.2.8c-.2.134-.384.233-.55.3-.367.167-.7.301-1 .4-.3.066-.566.116-.8.15h-.15c-.333 0-.533-.117-.6-.351-.034-.133-.017-.3.05-.5a5.4 5.4 0 0 1 .3-.7c.101-.166.184-.366.25-.6l.25-.7.25-1.45a3.05 3.05 0 0 0 .05-.5l-.05-.149-.05-.05-1.05-.7c-.2-.167-.45-.351-.75-.55l-4-2a9.268 9.268 0 0 0-.75-.25l-.45-.101-.65-.25-.149-.15.149-.15.2-.15c.2-.133.45-.267.75-.399.3-.134.616-.267.95-.4.367-.133.7-.25 1-.35.4-.101.85-.184 1.35-.25.5-.101 1-.15 1.5-.15l.801-.051.85.05c.533 0 1.066.05 1.6.15l1.15.149h.7c.167 0 .3-.033.399-.1l.301-.2c1.1-.967 2.166-1.883 3.199-2.75a139.994 139.994 0 0 1 3-2.45c1-.8 1.984-1.566 2.95-2.3.967-.767 1.9-1.467 2.8-2.1.934-.667 1.851-1.316 2.75-1.95.9-.634 1.801-1.217 2.7-1.75.866-.6 1.75-1.15 2.65-1.65a75.02 75.02 0 0 1 2.649-1.5 82.54 82.54 0 0 1 3.75-1.949 61.462 61.462 0 0 1 3.7-1.75 66.258 66.258 0 0 1 3.65-1.551 55.41 55.41 0 0 1 3.7-1.35 77.31 77.31 0 0 1 3.699-1.1 56.016 56.016 0 0 1 3.75-.95 72.51 72.51 0 0 1 3.851-.8c1.3-.234 2.6-.434 3.899-.601l10.65-.25 8 .601c1.7.199 3.35.466 4.95.8 1.634.267 3.2.583 4.7.95 1.5.366 2.967.767 4.399 1.199 1.467.4 2.866.867 4.2 1.4 1.367.5 2.684 1.033 3.95 1.6a40.22 40.22 0 0 1 3.8 1.851 38.756 38.756 0 0 1 3.6 2.1 50.99 50.99 0 0 1 3.453 2.301z" fill="#010101" fill-rule="evenodd"/></svg>