<svg xmlns="http://www.w3.org/2000/svg" xmlns:dc="http://dublincore.org/documents/dcmi-terms/" height="792" version="1.2" viewBox="0 0 612 792" width="612"><metadata><dc:description>Silhouette of Lissodelphis borealis, processed by PhyloPic Tools (https://github.com/eweitz/phylopic-tools)</dc:description><dc:source>http://phylopic.org/image/45d55ef7-42d0-43fd-af26-559c14dde937</dc:source><dc:creator>Chris huh</dc:creator><dc:license>http://creativecommons.org/licenses/by-sa/3.0/</dc:license></metadata><path d="M381.649 404.5c.134.167.217.316.25.45.067.267.05.533-.05.8-.1.2-.316.4-.65.6-.3.167-.732.317-1.3.45l-7.1 1.4c-.833.166-1.7.333-2.601.5-.866.133-1.766.25-2.699.35a36.3 36.3 0 0 1-2.75.3c-.9.067-1.816.134-2.75.2l-5.45.05a946.9 946.9 0 0 1-2.55-.1 62.02 62.02 0 0 1-2.5-.25l-3.101-.35-1.899 1.949c-.334.367-.684.717-1.051 1.051-.3.333-.616.633-.949.899l-1 .8c-.334.233-.65.467-.95.7-.333.167-.667.351-1 .55-.3.167-.616.317-.95.45-.367.167-.733.3-1.1.4-.367.066-.734.116-1.101.149h-.9a1.666 1.666 0 0 1-.551-.25.756.756 0 0 1-.199-.399 27.29 27.29 0 0 1-.101-.55 4 4 0 0 1 .05-.65 5 5 0 0 1 .15-.75c.066-.233.15-.467.25-.7l2.05-3.75.4-.6.2-.45.05-.15-.101-.05-7.449-1.85c-1.834-.434-3.65-.834-5.45-1.2a98.376 98.376 0 0 0-5.3-.95 134.18 134.18 0 0 0-10.601-1.4c-1.767-.2-3.6-.367-5.5-.5a160.85 160.85 0 0 0-5.85-.301l-22.8-.149-11 1.1c-1.268.2-2.584.384-3.95.55-1.333.134-2.7.267-4.101.4-1.366.134-2.732.25-4.1.35l-4.05.2-4.2.15-.3.7c-.101.233-.284.533-.55.899-.234.334-.518.7-.851 1.101-.333.366-.683.716-1.05 1.05-.334.333-.633.583-.9.75-.399.267-.899.5-1.5.7-.266.066-.55.133-.85.199-.267.067-.55.134-.85.2-.4.033-.768.066-1.101.101L237 409.6c-.2 0-.367-.033-.5-.1a.863.863 0 0 1-.25-.25v-.2l.1-.3.35-.8c.167-.233.316-.467.45-.7l.4-.85.55-1.551c.066-.199.1-.366.1-.5 0-.133-.016-.199-.05-.199l-.5-.351-.75-.649a4.685 4.685 0 0 0-.85-.75c-.3-.267-.65-.534-1.05-.801-.4-.3-.816-.566-1.25-.8-.4-.3-.801-.55-1.2-.75a8.774 8.774 0 0 0-1.101-.6 5.2 5.2 0 0 0-.85-.351l-.55-.149-.4-.2a2.674 2.674 0 0 0-.25-.15l-.1-.149c.033-.066.1-.117.2-.15l.35-.2 1.15-.35c.467-.134 1-.233 1.6-.3l3.1-.101 3.801.351.899.2c.634.133 1.184.3 1.65.5l1 .35 3.55-2.15c5.334-3.166 10.684-5.949 16.05-8.35 5.333-2.434 10.65-4.45 15.95-6.05 5.3-1.601 10.584-2.8 15.85-3.601a96.014 96.014 0 0 1 15.65-1.199l8.95.25 10.8 1.699c3.233.634 6.383 1.384 9.45 2.25 3.1.867 6.083 1.834 8.95 2.9a97.146 97.146 0 0 1 8.25 3.4 86.716 86.716 0 0 1 7.649 4l5.55 3.649 7.15 5.851.9.6.449.2c.234.066.484.166.75.3.268.134.533.283.801.45.266.166.516.35.75.55.266.167.482.35.649.55.203.168.369.317.502.451z" fill="#010101" fill-rule="evenodd"/></svg>