<svg xmlns="http://www.w3.org/2000/svg" xmlns:dc="http://dublincore.org/documents/dcmi-terms/" height="1184.84" viewBox="0 0 1403.3727 1110.7878" width="1496.931"><metadata><dc:description>Silhouette of Litopterna, processed by PhyloPic Tools (https://github.com/eweitz/phylopic-tools)</dc:description><dc:source>http://phylopic.org/image/0cd9f4e6-564f-4162-ba8b-875d7dd7652d</dc:source><dc:creator>Zimices</dc:creator><dc:license>http://creativecommons.org/licenses/by/3.0/</dc:license></metadata><path d="M429.219.012c-.256.094-.412.756-.371 1.744.06 1.456.356 1.753.756.756.36-.903.315-1.981-.1-2.397-.104-.104-.2-.135-.285-.103zm-162.5 25c-.256.094-.412.756-.371 1.744.06 1.456.356 1.753.756.756.36-.903.315-1.981-.1-2.397-.104-.104-.2-.135-.285-.103zM329.8 160.336a1.711 1.711 0 0 0-.547.002c-.312.058-.504.23-.504.5 0 .54-3.702 1.716-8.225 2.615-4.545.904-8.518 2.405-8.882 3.356-.363.945-1.72 1.718-3.016 1.718-1.295 0-4.856 1.91-7.912 4.243-6.343 4.841-13.667 7.755-22.352 8.894-3.414.448-6.301 1.55-6.685 2.55-1.088 2.835-8.1 6.454-14.182 7.321l-5.629.803-2.916-6.147c-1.605-3.38-2.81-7.752-2.678-9.716.409-6.06.115-6.606-4.62-8.584-3.433-1.434-4.825-1.55-5.5-.457-.498.805-2.949 1.588-5.448 1.74-2.499.152-4.9.63-5.334 1.064-.434.434-2.382.79-4.33.79s-3.541.628-3.541 1.396c0 .768-1.042 1.124-2.314.79-1.273-.332-3.663.434-5.313 1.702-3.522 2.708-5.67 2.97-6.547.799-.376-.934-.67-.682-.728.625-.058 1.286-1.083 2.187-2.489 2.187-1.814 0-2.593 1.205-3.234 5-.465 2.75-1.322 5-1.902 5-.581 0-1.451 1.266-1.934 2.813-.483 1.547-1.41 3.155-2.06 3.574-.651.419-1.338 2.669-1.528 5-.19 2.331-.425 4.941-.523 5.8-.098.86-1.088 1.563-2.2 1.563-1.353 0-1.793.722-1.332 2.188 2.364 7.504 2.46 8.18 1.05 7.308-.796-.491-1.446-.298-1.446.43s-.844 1.324-1.875 1.324c-1.926 0-2.308 1.142-1.941 5.809.116 1.476-1.243 4.135-3.018 5.91-2.378 2.379-3.028 4.023-2.47 6.244.416 1.658.147 3.39-.596 3.85-.744.46-1.35 2.77-1.35 5.137 0 2.93-.58 4.3-1.818 4.3-1.073 0-2.141 1.715-2.604 4.182-.61 3.25-1.712 4.546-4.945 5.814-2.785 1.093-3.93 2.233-3.465 3.446.382.996-.09 2.308-1.049 2.916-1.247.79-1.298 1.11-.182 1.123.86.01 1.563.863 1.563 1.894 0 1.39-1.537 1.902-5.938 1.975-3.265.054-5.234.382-4.375.728 2.509 1.013 1.799 4.172-.937 4.172-1.563 0-2.5.833-2.5 2.223 0 1.628-1.944 2.8-7.26 4.379-4.558 1.353-8.86 3.713-11.562 6.346-7.85 7.646-13.343 15.174-14.287 19.578-.513 2.392-1.892 5.262-3.063 6.377-1.171 1.114-3.427 6.177-5.012 11.25-3.074 9.84-5.42 13.012-10.586 14.308-1.777.446-3.23 1.272-3.23 1.836 0 2.255-4.136 4.953-7.59 4.953-3.071 0-3.66.503-3.66 3.125 0 1.945-.708 3.125-1.875 3.125-1.031 0-1.875.43-1.875.955 0 .526-2.297 2.354-5.104 4.063-2.806 1.71-5.916 4.654-6.908 6.545-.992 1.89-2.52 3.437-3.396 3.437-2.826 0-8.322 3.078-8.332 4.666-.014 2.23-12.107 15.41-22.096 24.084-2.77 2.407-7.075 7.502-9.564 11.325-2.49 3.822-7.087 8.79-10.217 11.037C3.983 425.312 0 433.475 0 443.998c0 7.517.334 8.48 5.027 14.418 2.766 3.5 5.542 6.361 6.168 6.361.626 0 3.764 3.343 6.975 7.43 3.295 4.194 7.007 7.597 8.521 7.813 1.878.267 2.802 1.415 3.079 3.82.375 3.267 1.85 4.101 6.22 3.52.889-.119 3.322 1.22 5.408 2.976 2.657 2.235 5.263 3.191 8.698 3.191 3.08 0 4.91.582 4.922 1.563.014 1.148.263 1.179.941.113.926-1.455 2.38-1.673 12.791-1.92 10.874-.258 18.022.589 19.775 2.342 1.528 1.528 2.06 1.512 3.864-.121 1.15-1.041 5.302-2.271 9.226-2.733 4.778-.561 7.135-1.4 7.135-2.54 0-2.321 4.548-6.704 6.957-6.704 1.077 0 5.296-2.937 9.375-6.527 5.513-4.853 7.418-7.37 7.418-9.809 0-4.404 3.913-8.664 7.959-8.664 2.092 0 3.291-.683 3.291-1.875 0-1.03.563-1.875 1.25-1.875.688 0 1.25-.843 1.25-1.875 0-1.03.422-1.936.938-2.011 5.45-.797 9.83-.626 10.474.41.495.795 3.807.06 8.885-1.97 10.458-4.185 19.79-5.183 27.932-2.99 5.736 1.547 6.884 1.488 11.783-.593 8.173-3.471 18.08-4.103 27.295-1.742 4.342 1.112 9.395 2.04 11.23 2.062 1.835.023 6.15 1.082 9.588 2.356 34.084 12.627 47.4 19.228 54.025 26.773 5.44 6.196 9.163 8.324 14.69 8.399 10.384.14 19.145 5.63 39.611 24.824 4.702 4.41 8.549 8.769 8.549 9.687 0 .919.936 1.67 2.082 1.67s1.757.328 1.356.729c-.402.4.334 1.795 1.636 3.098 1.302 1.302 2.094 3.083 1.758 3.959-.345.898.939 2.277 2.945 3.166 4.978 2.203 4.664 5.298-.537 5.298-2.25 0-4.44.563-4.865 1.25-.425.688.13 1.25 1.232 1.25 1.104 0 3.4 1.396 5.104 3.1 2.323 2.323 2.901 3.888 2.309 6.25-.68 2.708-.372 3.15 2.185 3.15 2.58 0 3.188.914 4.572 6.868 2.216 9.528-.148 14.535-8.71 18.449-5.118 2.339-6.385 3.604-7.575 7.564-.82 2.726-3.213 6.193-5.61 8.125-2.298 1.854-7.34 6.107-11.204 9.453-3.865 3.346-10.097 7.441-13.848 9.1-3.751 1.659-8.876 4.64-11.389 6.623-2.512 1.984-7.238 4.84-10.503 6.35-3.266 1.509-5.938 3.192-5.938 3.74 0 1.084-17.6 16.853-29.97 26.853-4.253 3.438-8.671 7.18-9.82 8.319-1.147 1.137-3.491 2.262-5.21 2.5-1.769.244-3.661 1.652-4.36 3.244-.678 1.547-1.926 2.812-2.773 2.812-.846 0-3.734 2.973-6.418 6.606-2.683 3.633-6.82 8.309-9.191 10.39-2.371 2.082-4.688 4.77-5.15 5.975-.525 1.366-1.867 2.042-3.569 1.797-2.147-.309-3.612 1.072-6.879 6.482-3.989 6.608-4.156 7.38-4.156 19.805-.005 11.88.199 12.983 2.496 13.584 1.375.36 2.5 1.552 2.5 2.652 0 2.878 3.993 13.042 5.889 14.987.885.908 1.611 2.703 1.611 3.988 0 1.285.594 2.704 1.322 3.154.728.45 1.02 2.312.65 4.137-.38 1.88.44 6.298 1.895 10.193 1.412 3.782 3.66 9.94 4.992 13.684 1.334 3.744 3.239 8.05 4.235 9.57.996 1.52 2.487 5.49 3.314 8.819 2.587 10.411 11.352 24.527 20.446 32.927 1.86 1.72 4.165 4.63 5.12 6.467.957 1.838 3.89 5.825 6.52 8.863 2.63 3.039 8.03 12.224 12 20.41 3.97 8.187 8.13 16.77 9.248 19.07 1.118 2.303 3.71 5.396 5.76 6.876 6.674 4.818 20.86 19.932 24.172 25.754 4.623 8.126 8.813 12.291 15.951 15.86 8.065 4.03 13.704 9.449 18.389 17.667 2.066 3.625 4.787 7.143 6.047 7.817 1.259.674 4.106 3.754 6.326 6.845l4.037 5.621h22.076v-3.789c0-2.215.779-4.087 1.875-4.508 1.031-.395 1.875-1.743 1.875-2.994 0-1.25.897-2.457 1.994-2.68 2.235-.452 5.457-8.582 5.486-13.841.01-1.89 1.206-4.624 2.657-6.074 2.166-2.166 2.492-3.545 1.826-7.71-.505-3.16-.297-5.387.55-5.911 1.568-.97 1.74-4.088.507-9.188-.554-2.29-.321-3.906.65-4.506 1.15-.711 1.075-1.374-.316-2.765-1.061-1.061-1.643-3.426-1.387-5.627.355-3.049-.166-4.073-2.639-5.2-3.448-1.57-4.123-3.957-1.119-3.957 1.432 0 1.748-.757 1.172-2.812-1.44-5.144-3.418-8.22-5.654-8.805-1.23-.321-2.588-2.286-3.057-4.422-1.004-4.572-5.396-10.528-7.022-9.523-.632.39-1.148.115-1.148-.613 0-.729-1.109-1.325-2.463-1.325-3.361 0-8.199-6.832-7.799-11.013.338-3.53-3.797-11.487-5.97-11.487-.698 0-1.268-.586-1.268-1.302 0-.717-1.143-2.527-2.54-4.026-1.734-1.862-2.317-3.726-1.843-5.887.652-2.968.368-3.175-4.65-3.423-4.757-.235-8.147-.242-19.791-.036-10.469.186-26.27-8.941-32.508-18.779-5.142-8.107-6.152-12.69-6.162-27.887-.004-7.778-.721-15.492-1.744-18.75-4.17-13.276-6.094-25.769-5.201-33.793.488-4.396.903-10.063.92-12.595.017-2.764.725-4.872 1.773-5.274.96-.368 1.746-1.812 1.746-3.209 0-1.396.566-2.539 1.26-2.539.694 0 6.121-3.135 12.06-6.967 14.776-9.531 20.958-11.783 32.35-11.783 7.264 0 9.33-.396 9.33-1.79 0-2.786 5.156-3.894 6.916-1.487 1.854 2.535 3.084 2.596 3.084.152 0-2.349 1.277-2.36 5.72-.054 4.722 2.45 6.682 6.376 6.735 13.492.033 4.425.523 5.937 1.92 5.937a1.88 1.88 0 0 1 1.875 1.875c0 1.032.562 1.875 1.25 1.875.687 0 1.25 1.31 1.25 2.912 0 2.216.672 2.888 2.812 2.813 1.945-.069 2.76.576 2.64 2.088-.096 1.203.325 2.187.937 2.187.61 0 1.111 1.134 1.111 2.518s.487 3.494 1.082 4.687c2.259 4.53 4.373 11.54 9.324 30.92 2.81 11 5.628 20.36 6.262 20.8.634.438.789 1.382.346 2.099-.443.717-.23 1.66.474 2.095.81.501.59 1.483-.603 2.676-.222.222-.43.47-.627.719.358.878.737 1.79 1.142 2.793 1.746.475 3.85 2.896 3.85 5.113 0 1.906.715 3.08 1.875 3.08 1.031 0 1.875 1.042 1.875 2.315 0 2.85 5.327 13.05 8.717 16.687 1.376 1.477 2.853 4.562 3.283 6.856.43 2.293 1.281 4.478 1.89 4.855.61.377 1.11 1.694 1.11 2.928 0 3.579 5.951 9.228 8.908 8.455 1.898-.496 2.355-.185 1.81 1.234-1.096 2.859 3.734 8.75 7.85 9.573 1.997.399 4.502 1.597 5.567 2.662 1.065 1.065 2.362 1.935 2.883 1.935 1.911 0 6.732 5.503 6.732 7.686 0 1.237 1.678 3.117 3.729 4.178 2.05 1.06 8.095 5.857 13.433 10.658 5.338 4.8 10.485 8.728 11.44 8.728.954 0 3.006 1.266 4.56 2.813 7.459 7.426 10.588 9.98 10.588 8.646 0-.802 1.125-1.459 2.5-1.459s2.5.545 2.5 1.211.735.93 1.635.584c2.24-.86 7.115 3.586 7.115 6.488 0 1.301 1.125 3.07 2.5 3.928 1.375.859 2.5 2.334 2.5 3.28 0 1.801 3.674 3.213 8.438 3.242 1.546.009 2.812.58 2.812 1.267 0 .688 1.064 1.25 2.365 1.25 1.302 0 2.69.844 3.086 1.875.396 1.032 1.863 1.875 3.26 1.875 1.397 0 2.539.495 2.539 1.1 0 2.025 33.037 3.055 42.217 1.316 4.624-.876 8.795-1.918 9.27-2.316.966-.812 4.631-28.652 4.538-34.475-.033-2.062.027-9.024.133-15.47.148-9.004-.255-12.214-1.734-13.848-1.06-1.17-1.924-2.983-1.924-4.027 0-1.045-2.19-2.887-4.867-4.094-2.677-1.207-7.296-4.67-10.262-7.692-2.966-3.022-6.083-5.494-6.928-5.494-.844 0-1.712-1.828-1.927-4.062-.366-3.787-.68-4.039-4.63-3.72-3.092.248-4.714-.343-6.007-2.188-.974-1.391-2.514-2.53-3.42-2.53-.906 0-2.549-1.828-3.65-4.062-1.308-2.653-2.013-3.272-2.032-1.785-.034 2.786-2.499 5.32-5.027 5.17-1.031-.062-3 .84-4.375 2.003-2.341 1.982-8.456 4.39-13.88 5.47-1.305.258-4.002.885-5.995 1.394-2.57.656-3.37.513-2.748-.492.55-.892.204-1.16-.936-.723-.997.383-2.176.11-2.619-.606-.442-.715-3.005-1.892-5.695-2.617-2.69-.724-5.646-2.074-6.57-2.998-.924-.924-3.481-2.61-5.682-3.748-2.407-1.245-4-3.031-4-4.484 0-1.534-2.014-3.596-5.518-5.649-6.64-3.89-15.29-13.009-17.609-18.558-.927-2.219-3.686-7.006-6.13-10.639-4.743-7.047-5.41-9.137-8.868-27.777-1.38-7.442-1.947-14.542-1.498-18.75 1.802-16.895 5.651-42.085 6.9-45.164 2.672-6.59 8.166-13.596 14.037-17.907 4.506-3.307 5.786-4.963 5.293-6.845-.49-1.877-.027-2.483 1.895-2.483 3.514 0 6.498-1.271 6.498-2.77 0-2.39 5.64-7.187 8.477-7.208 1.568-.012 3.174-.865 3.57-1.897.396-1.031 2.066-1.875 3.71-1.875 1.646 0 2.993-.54 2.993-1.199 0-1.695 6.531-7.55 8.422-7.55.865 0 4.385-2.022 7.824-4.493 4.455-3.2 6.254-5.337 6.254-7.43 0-2.989 4.117-6.828 7.322-6.828.972 0 3.07-1.406 4.662-3.125 1.593-1.718 3.301-3.125 3.795-3.125.495 0 1.786-.766 2.871-1.703 3.263-2.816 9.838-3.54 11.133-1.224.92 1.642 1.263 1.407 1.951-1.334.983-3.917 5.871-6.19 10.928-5.079 3.065.673 3.69.264 5.238-3.441 2.86-6.843 6.966-8.695 18.766-8.46 5.615.11 11.778.144 13.695.073 1.918-.07 7.332 1.56 12.034 3.623l8.548 3.75 29.284.172c28.123.165 29.504.061 34.826-2.654 6.834-3.486 20.034-5.532 32.447-5.027 14.162.575 30.958.433 53.125-.452 15.511-.619 21.403-.398 26.25.987 8.719 2.49 28.346 10.641 30.723 12.76 1.085.967 2.617 1.76 3.404 1.76 1.937 0 10.654 5.015 14.346 8.253 1.648 1.446 6.322 4.147 10.386 6.004 4.065 1.857 9.106 5.035 11.204 7.063 2.407 2.327 6.553 4.399 11.25 5.62 4.09 1.065 8.562 2.663 9.937 3.551 1.375.889 5.875 1.976 10 2.416 10.75 1.15 15.897 2.857 22.652 7.512 7.865 5.42 13.485 13.84 17.303 25.928 4.13 13.072 4.253 19.98.547 30.447-2.43 6.862-4.304 9.675-9.822 14.737-3.751 3.44-8.62 7.112-10.82 8.162-2.201 1.049-4.756 3.376-5.678 5.17-.923 1.794-1.96 3.543-2.305 3.886-.345.344-1.248 1.75-2.006 3.125-.758 1.375-2.55 2.675-3.984 2.889-1.572.235-2.764 1.476-2.998 3.125-.227 1.595-1.286 2.74-2.54 2.75-1.181.008-3.889 2.381-6.017 5.275-2.128 2.894-6.646 7.062-10.039 9.26-3.393 2.199-6.168 4.813-6.168 5.809 0 1.195-.85 1.587-2.5 1.156-2.002-.523-2.5-.04-2.5 2.432 0 2.479-.55 3.009-2.799 2.695-2.174-.304-3.08.467-4.062 3.453-.695 2.114-2.211 4.79-3.37 5.945-1.158 1.156-2.505 3.355-2.992 4.889-.486 1.534-2.189 4.766-3.785 7.182-4.741 7.176-6.887 20.67-7.553 47.515-.666 26.887-.433 25.706-12.472 63.125-1.78 5.534-3.678 15.304-4.248 21.875-.567 6.532-1.418 13.937-1.895 16.455-.723 3.826-.313 5.306 2.496 8.989 2.057 2.696 4.062 4.139 5.162 3.716.99-.38 2.636.005 3.659.854 1.475 1.224 2.246 1.221 3.734-.014 1.031-.856 1.875-1.001 1.875-.324 0 1.562 5.842.97 7.986-.81.89-.739 1.975-.986 2.412-.55.437.438 3.198-.075 6.135-1.138s7.03-2.232 9.092-2.598c5.865-1.04 16.584-6.524 27.479-14.056 7.376-5.1 10.717-6.714 12.812-6.188 2.266.569 2.834.19 2.834-1.89 0-1.982.671-2.51 2.813-2.211 2.644.367 2.787.006 2.417-6.051-.525-8.599 1.708-16.315 5.948-20.555 2.303-2.304 3.056-3.895 2.232-4.719-1.796-1.796-.014-5.562 2.225-4.703 1.462.561 1.865-.37 1.865-4.308 0-4.174.327-4.84 1.94-3.938 2.769 1.55 9.31.336 9.31-1.728 0-.954.844-1.733 1.875-1.733 1.031 0 1.875-.731 1.875-1.625s.659-2.284 1.465-3.09c2.097-2.097 2.219-7.94.232-11.177-.934-1.523-1.697-3.632-1.697-4.688 0-1.055-.625-1.92-1.387-1.92-.853 0-1.085-1.2-.601-3.125.452-1.802.246-3.125-.489-3.125-.7 0-1.273-1.149-1.273-2.552 0-1.404-1.125-3.759-2.5-5.235-1.375-1.476-2.5-3.422-2.5-4.324 0-.902-.844-1.639-1.875-1.639-1.238 0-1.949-1.38-2.09-4.062-.38-7.232-.55-7.964-3.637-15.684-1.566-3.916-1.53-4.002 1.665-4.023 1.55-.01 2.227-.432 1.51-.938-1.518-1.07-1.675-12.102-.194-13.588.553-.554 1.499-.21 2.101.766.85 1.374 1.274 1.072 1.88-1.342 1.218-4.854 4.975-6.62 8.779-4.129 2.565 1.68 3.111 1.726 3.111.262 0-.977 1.45-3.714 3.223-6.082s4.62-7.028 6.328-10.356c6.964-13.572 19.224-22.479 33.14-24.078 5.463-.627 9.154-.181 16.25 1.965 8.67 2.622 9.812 3.419 20.434 14.274 6.188 6.323 13.874 13.016 17.082 14.873 7.366 4.263 14.122 12.101 16.822 19.517a288.16 288.16 0 0 0 4.448 11.31c1.294 3.06 2.9 9.434 3.572 14.165.67 4.73 1.885 9.82 2.697 11.312.812 1.492 1.634 8.057 1.828 14.588.195 6.531.49 13.281.656 15 .166 1.72-.074 3.734-.533 4.477-.459.742-.023 4.399.969 8.125 2.485 9.336 2.28 18.69-.588 26.851-1.395 3.97-2.423 10.182-2.424 14.657-.002 11.073-2.112 19.215-7.08 27.328-2.379 3.885-4.324 8.525-4.324 10.312 0 2.055-.69 3.25-1.875 3.25-1.031 0-1.875.742-1.875 1.649 0 4.286-4.205 14.983-8.137 20.699-2.4 3.488-4.363 6.858-4.363 7.488 0 .63-.703 1.417-1.563 1.748-.859.331-2.318 3.345-3.24 6.697-2.676 9.733-5.049 15.398-10.115 24.15-2.608 4.507-5.97 11.518-7.47 15.581-2.851 7.721-5.897 12.658-10.893 17.654-3.828 3.828-4.188 14.772-.676 20.547 1.961 3.225 12.794 11.525 20.422 15.647 1.256.678 2.285 1.624 2.285 2.103 0 .48 1.406.616 3.125.305 1.828-.332 3.125.02 3.125.85 0 .93 1.391 1.137 4.062.603 2.235-.447 10.813-1.32 19.063-1.941 18.983-1.43 40.625-6.882 40.625-10.23 0-.578 1.125-1.05 2.5-1.05 1.636 0 2.5-.833 2.5-2.41 0-1.326.768-3.18 1.709-4.121.94-.94 2.645-6.32 3.787-11.953 2.314-11.418 1.588-14.043-5.092-18.42-2.021-1.325-2.738-2.512-1.974-3.275.763-.764 3.396-.028 7.261 2.027l6.065 3.223 3.67-3.668c3.464-3.464 3.726-4.466 4.697-17.85 1.408-19.41 3.17-32.43 4.898-36.227 1.186-2.602.948-4.873-1.304-12.437-3.483-11.694-2.914-23.35 1.674-34.264 1.734-4.125 2.637-7.687 2.005-7.916-1.635-.594-1.425-5.209.237-5.209.761 0 1.074-.808.695-1.795-.379-.987-.021-2.015.793-2.287.82-.273 1.538-3.012 1.613-6.142.074-3.108.589-6.385 1.143-7.282.695-1.124.522-1.33-.559-.662-1.227.759-1.264.4-.164-1.656.773-1.444 1.065-3.98.649-5.639-.416-1.658-.148-3.39.595-3.85 1.615-.997 1.837-11.937.243-11.937-1.444 0-.938-7.403.726-10.625 1.306-2.528 3.441-28.357 3.094-37.414-.104-2.703.575-5.797 1.508-6.875.932-1.078 2.023-4.884 2.422-8.457.399-3.572 1.58-8.15 2.627-10.172 1.737-3.359 2.049-6.09 1.949-17.082-.078-8.584.082-9.882 1.316-10.644.794-.49-.374-3.57-3.023-7.969-2.374-3.943-4.686-9.35-5.137-12.018-.45-2.667-1.618-5.513-2.596-6.324-.977-.811-1.777-2.531-1.777-3.822 0-1.29-.563-2.348-1.25-2.348-.688 0-1.269-.984-1.291-2.187-.044-2.43-3.709-7.915-3.709-5.551 0 2.759-3.106 1.51-5.625-2.262-1.375-2.058-2.922-3.744-3.438-3.746-1.5-.006-1.08-5.998.456-6.51.822-.274.122-1.978-1.71-4.166-8.309-9.926-10.927-18.906-11.374-39.015-.092-4.093-.6-5.313-2.215-5.313-1.653 0-2.272-1.658-2.918-7.812-.451-4.297-2.002-10.204-3.446-13.127-2.308-4.674-2.446-5.914-1.136-10.287 1.758-5.87 1.86-20.103.283-40.024-.626-7.906-.876-14.799-.557-15.316.32-.518 1.029-3.773 1.576-7.236.907-5.738.734-6.504-1.95-8.616-3.58-2.815-3.806-5.891-.51-6.937 3.534-1.122 4.12-4.473 1.876-10.748-1.085-3.037-1.908-8.053-1.826-11.147.083-3.094.16-6.61.16-7.812.014-3.199 1.515-2.686 4.682 1.597 2.92 3.949 5.804 3.926 4.547-.035-.4-1.26-.133-2.656.594-3.105.727-.45 1.03-1.288.674-1.864-.356-.575.488-.75 1.875-.388 1.386.362 2.886 1.25 3.332 1.97.497.805.029 1.014-1.207.54-1.345-.516-2.283.068-2.819 1.755-.922 2.905-.105 4.223 1.863 3.006.745-.46.975-1.447.514-2.193-.524-.849-.25-.993.73-.387.948.586 1.3 2.322.887 4.385-.375 1.879-.04 4.062.748 4.85 1.922 1.921 3.82 1.827 2.643-.131-.566-.943-.047-.838 1.31.265 2.003 1.627 2.443 1.567 3.99-.55 1.53-2.092 1.741-2.124 1.741-.266 0 1.163.844 2.113 1.875 2.113 1.031 0 1.875.54 1.875 1.201s2.184 1.791 4.854 2.51c2.67.72 5.557 2.155 6.416 3.19 1.179 1.42 1.974 1.536 3.253.474 2.25-1.867 5.477-.517 5.477 2.29 0 1.876 1.069 2.234 6.562 2.197 3.61-.025 7.13.346 7.823.824 3.749 2.586 12.384 4.554 15.23 3.472 3.875-1.473 4.466-1.455 3.504.102-.428.692.242 1.587 1.488 1.988 3.778 1.216 8.243 3.443 13.815 6.893 4.248 2.63 6.599 3.216 11.875 2.959 9.904-.482 12.537-1.626 11.863-5.15-.37-1.932.023-2.95 1.137-2.95.936 0 1.703.905 1.703 2.01 0 1.323.677 1.746 1.986 1.244 1.094-.42 2.64-.354 3.438.145.797.498 2.013 1.009 2.701 1.134 6.052 1.107 8.25 1.647 9.268 2.276.651.402 1.537.161 1.968-.537.432-.699 1.813-1.272 3.067-1.272 1.254 0 2.574-1.125 2.933-2.5.74-2.825 3.644-3.271 6.112-.937 1.882 1.78 5.528 1.912 9.076.324 1.608-.72 2.592-.59 2.918.389.613 1.84 6.533 1.963 6.533.134 0-.736.898-.44 1.996.659 1.098 1.098 1.695 2.78 1.328 3.736-.367.957.141 2.049 1.13 2.428.987.379 1.796.13 1.796-.551 0-.682 1.406-.318 3.125.808 3.059 2.005 3.125 1.98 3.125-1.22 0-2.072-.686-3.27-1.875-3.27-1.031 0-1.875-.44-1.875-.978 0-1.265 5.245-1.04 7.443.318 1.138.703 1.4.574.801-.396-.49-.794-.296-1.444.432-1.444s1.324.563 1.324 1.25c0 1.526 5.556-3.87 5.793-5.625.092-.687.233-2.203.312-3.369.117-1.711 1.23-2.057 5.77-1.789 3.094.182 5.625-.13 5.625-.693 0-.564 1.011-1.024 2.248-1.024 1.833 0 2.156-.807 1.74-4.365-.329-2.816-1.017-4.075-1.937-3.549-.816.466-.98.328-.385-.322.573-.626 1.135-.959 1.25-.738.115.22 1.774-.196 3.69-.924 2.846-1.083 3.622-.96 4.246.664.419 1.093-.023 2.493-.983 3.111-1.477.952-1.456 1.31.131 2.34 1.388.901 1.995.658 2.338-.938.595-2.768 3.912-7.546 3.912-5.634 0 .864 1.977 1.421 4.9 1.38 4.12-.056 5.024-.55 5.664-3.103.42-1.67.43-3.573.024-4.228-.406-.656-.469-1.194-.14-1.194.327 0 1.444-.324 2.482-.722 1.445-.555 1.716-.071 1.156 2.07-.504 1.928-.282 2.515.717 1.898.795-.492 1.447-2.801 1.447-5.133 0-2.733.777-4.676 2.187-5.472 1.753-.989 1.877-1.549.625-2.813-.859-.867-1.562-2.096-1.562-2.73 0-.638.698-.582 1.562.125 1.093.894 2.048.75 3.178-.477 1.338-1.451 1.066-2.303-1.572-4.941-2.524-2.524-2.926-3.674-1.93-5.535 1.075-2.008 4.838-4.12 7.719-4.332.458-.034 1.27-.498 1.8-1.03.532-.531-1.812-.93-5.208-.886-11.078.143-13.047-.101-13.225-1.635-.096-.832-.297-3.679-.447-6.328-.15-2.65-1.02-5.278-1.934-5.842-1.368-.846-1.371-1.372-.023-2.996 2.26-2.723 5.08-2.47 5.08.455 0 1.334.562 2.774 1.25 3.2.687.424 1.25-.105 1.25-1.177 0-1.071.543-1.949 1.209-1.949s.856-.924.422-2.054c-.483-1.26.11-2.713 1.53-3.75 1.41-1.033 1.681-1.696.692-1.696-1.057 0-1.306-.761-.714-2.187 1.178-2.84 1.192-3.762.132-9.375-.788-4.177-.606-4.688 1.672-4.688 2.89 0 3.225-1.465 1.11-4.851-1.91-3.058-.524-6.399 2.656-6.399 1.397 0 2.541-.753 2.541-1.674 0-.92 1.45-2.334 3.223-3.142 3.636-1.657 3.518-3.858-.282-5.264-1.686-.623-5.062.128-9.935 2.213-19.588 8.382-26.34 9.446-38.836 6.12-6.058-1.614-6.492-1.574-7.07.64-.737 2.815-4.037 3.13-5.053.482-.951-2.478-4.547-2.417-4.547.076 0 1.624-.998 1.799-5.938 1.036-6.557-1.014-8.46-.997-16.248.14-3.421.5-5.769 1.637-6.605 3.2-1.64 3.065-7.066 3.228-7.848.236-.544-2.084-.578-2.084-.716 0-.2 3.018-3.98 2.76-4.788-.326-.73-2.79-2.484-3.324-13.625-4.15-5.59-.416-9.953-1.776-16.25-5.07-6.808-3.56-8.692-4.111-9.011-2.634-.223 1.027-1.545 1.867-2.938 1.867-3.787 0-11.033-3.788-11.033-5.767 0-1.015-1.295-1.733-3.125-1.733-2.197 0-3.125-.68-3.125-2.29 0-3.588-1.518-4.212-3.014-1.24-1.88 3.737-4.514 4.319-5.336 1.177-.376-1.44-1.158-2.326-1.736-1.969-.578.357-2.482.289-4.232-.15-2.3-.578-3.182-1.627-3.182-3.788 0-1.824-.731-2.99-1.875-2.99-1.031 0-1.875-.797-1.875-1.771 0-.974-.442-1.959-.982-2.188-.54-.229-2.215-2.169-3.72-4.312-2.014-2.871-4.06-4.11-7.767-4.703-2.768-.443-5.031-1.336-5.031-1.987 0-.65-2.442-2.613-5.424-4.361-5.526-3.238-10.826-4.182-10.826-1.928 0 2.233-3.441 1.32-4.068-1.08-.4-1.528-2.256-2.64-5.39-3.228-6.09-1.143-15.286-5.788-19.302-9.752-1.713-1.692-5.205-4.054-7.758-5.252-5.324-2.499-6.809-5.625-4.48-9.436 1.387-2.27 1.306-2.888-.565-4.277-1.203-.893-2.192-2.687-2.197-3.986-.005-1.3-1.124-4.051-2.49-6.114-1.366-2.062-2.487-4.51-2.492-5.437-.005-.928-1.977-3.657-4.383-6.063-2.406-2.406-4.375-5.196-4.375-6.199 0-1.004-.6-1.451-1.334-.998-.8.495-1.175-.102-.938-1.49.276-1.607-.472-2.437-2.449-2.717-2.056-.292-2.783-1.159-2.619-3.125.45-5.385-.104-7.04-2.105-6.272-2.77 1.063-6.805-3.761-6.805-8.136 0-2.902-.676-3.836-3.236-4.479-1.78-.446-4.726-2.194-6.55-3.885-1.822-1.69-4.023-3.074-4.89-3.074-.866 0-1.574-.844-1.574-1.875 0-1.076-1.128-1.875-2.647-1.875-2.148 0-2.533-.588-2.048-3.125.409-2.14.042-3.125-1.168-3.125-.972 0-2.356-1.687-3.075-3.75-.719-2.062-2.162-3.75-3.207-3.75-1.323 0-1.686-.808-1.199-2.67.473-1.809-.185-3.422-2.04-4.998-3.537-3.002-19.984-11.307-26.68-13.472-2.855-.923-7.917-3.837-11.25-6.477-3.334-2.64-8.077-5.907-10.54-7.26-2.462-1.352-7.635-5.87-11.496-10.04-3.86-4.17-7.526-7.583-8.144-7.583-.619 0-2.438-1.14-4.045-2.533-1.607-1.394-4.365-2.881-6.129-3.305-8.846-2.123-22.067-11.538-18.928-13.478.74-.457 1.346-3.33 1.346-6.383v-5.55h-8.045c-10.799 0-14.908-1.588-13.746-5.313.483-1.547 1.505-3.272 2.271-3.832.768-.562.098-.654-1.492-.205-2.208.623-3.612-.02-5.963-2.73-2.096-2.42-3.368-3.081-4-2.083-.51.805-2.467 1.852-4.351 2.324-2.922.734-3.424.472-3.424-1.777 0-1.857-.831-2.677-2.813-2.78-2.116-.108-2.27-.286-.625-.716 1.71-.447 2.188-1.917 2.188-6.73v-6.159h-6.24c-5.33 0-6.771.558-9.895 3.826-3.219 3.369-3.96 3.636-6.197 2.239-1.81-1.131-2.178-2.026-1.275-3.114.696-.84 1.09-3.674.875-6.3-.389-4.717-.463-4.78-6.114-5.147-4.925-.32-5.912.027-7.103 2.5-1.375 2.856-1.383 2.852-1.467-.566-.079-3.205-.444-3.434-5.397-3.395-2.921.024-7.562 1.129-10.312 2.457-2.931 1.416-7.716 2.432-11.563 2.457-6.203.04-6.562.22-6.562 3.256 0 2.616-.522 3.138-2.813 2.813-2.013-.286-2.925-1.377-3.209-3.838-.217-1.89.205-3.438.938-3.438s1.334-.844 1.334-1.875c0-1.031.562-1.875 1.25-1.875.687 0 1.25-2.531 1.25-5.625v-5.625h-6.166c-4.77 0-6.326.496-6.873 2.188-.994 3.075-6.723 5.528-9.473 4.056-1.818-.973-2.322-.517-2.96 2.678-.551 2.753-1.305 3.643-2.65 3.127-1.033-.397-1.878-.176-1.878.49 0 2.236-3.649 1.239-5.05-1.38-1.176-2.197-.99-2.698 1.22-3.276 3.01-.787 4.465-5.182 3.28-9.908-.79-3.144-1.106-3.25-7.888-2.688-3.884.322-7.277 1.232-7.54 2.024-.264.791-1.332 1.44-2.372 1.44-1.04 0-3.384.82-5.209 1.823-8.374 4.603-15.66 7.042-19.964 6.684-3.978-.33-4.657-.85-4.998-3.82-.365-3.168-.827-3.438-5.881-3.438-5.238 0-5.522-.19-6.276-4.209-.764-4.073-1.017-4.232-7.88-4.949-3.901-.408-9.562-1.612-12.583-2.678-4.209-1.485-8.157-1.75-16.91-1.134-8.942.628-13.036.335-18.873-1.356-4.099-1.187-8.014-2.603-8.701-3.146-.688-.544-3.117-1.39-5.398-1.877-3.553-.76-4.248-.51-4.834 1.732-.445 1.7-1.694 2.617-3.561 2.617-1.581 0-3.112.703-3.402 1.563-.402 1.19-1.595 1.057-5.012-.56-2.305-1.092-5.648-1.556-8.598-1.442-1.032.962-2.687 2.245-3.812 3.105.171.813.181 2.3-.46 4.16-.185.54.58-1.949.063-1.707-1.279.6-2.305 1.602-3.338 2.594-.018.436-.116.982-.294 1.693-2.002 7.977-12.172 11.205-12.99 4.124-.544-4.7-3.487-6.944-6.575-5.016-2.903 1.813-6.164 1.937-6.164.236 0-.687-.945-1.25-2.1-1.25-1.154 0-4.012-.692-6.35-1.537-3.623-1.31-4.156-2.004-3.616-4.701.492-2.462-.04-3.48-2.4-4.594-2.702-1.274-3.315-1.033-5.618 2.201-1.422 1.998-3.359 3.631-4.303 3.631s-4.31 2.672-7.478 5.938c-8.379 8.636-9.385 9.796-9.385 10.818 0 1.591-3.49 4.494-5.402 4.494-1.007 0-2.155.844-2.551 1.875-.437 1.14-2.328 1.875-4.82 1.875-3.993 0-4.102.142-4.102 5.313 0 5.847-3.72 10.937-7.992 10.937-1.302 0-2.69.844-3.086 1.875-.902 2.35-4.547 2.476-4.547.158 0-.943 1.222-4.46 2.715-7.812 1.777-3.991 2.778-8.926 2.9-14.291.103-4.508.612-8.883 1.131-9.723.567-.917-.218-2.495-1.965-3.95-3.484-2.905-5.523-3.133-6.447-.726-.62 1.617-5.482 4.307-11.147 6.17-1.276.42-2.187 1.972-2.187 3.723 0 1.976-1.665 4.357-4.87 6.969-3.573 2.913-4.693 4.638-4.21 6.486.478 1.83-.07 2.71-2.006 3.217-1.466.383-2.664 1.427-2.664 2.32 0 .894-1.641 2.35-3.647 3.239-2.517 1.114-3.808 2.712-4.167 5.16-.287 1.95-.052 3.835.521 4.19.573.353 1.043 1.454 1.043 2.444 0 2.364-4.666 2.315-7.055-.074-2.05-2.05-5.445-2.531-5.445-.771 0 .607-1.125 1.4-2.5 1.76-1.375.36-2.5 1.548-2.5 2.644 0 1.159-1.046 1.992-2.5 1.992-1.375 0-2.5-.562-2.5-1.25 0-.687.562-1.25 1.25-1.25.687 0 1.25-2.531 1.25-5.625v-5.625h-6.04c-5.173 0-6.28.45-7.724 3.149-1.066 1.993-2.004 2.633-2.554 1.742-1.286-2.081-5.364-.352-10.702 4.537-2.595 2.377-5.183 4.322-5.75 4.322-.566 0-.675 1.406-.244 3.125.683 2.721.373 3.125-2.402 3.125-3.757 0-5.348-1.95-3.453-4.232.74-.893.992-1.977.558-2.41-1.395-1.396-2.939.455-2.939 3.521 0 1.64-1.219 3.833-2.709 4.877-2.476 1.734-2.896 1.68-4.889-.617-1.587-1.83-4.014-2.605-8.924-2.852-3.709-.186-7.446-.775-8.306-1.306-3.461-2.14-7.169.547-11.885 8.61-8.736 14.934-18.79 20.78-37.037 21.538-15.416.64-22.488-.344-22.541-3.142-.056-2.978-2.982-6.487-5.41-6.487-1.128 0-2.049-.51-2.049-1.133s-1.125-.838-2.5-.478c-1.398.365-2.5.038-2.5-.742 0-.768-.806-1.397-1.791-1.397-.985 0-2.187-1.265-2.67-2.812-.483-1.547-1.454-3.183-2.158-3.635-1.833-1.176-4.631.158-4.631 2.207 0 2.334-3.296 2.228-4.203-.135-.42-1.096-2.293-1.875-4.508-1.875-2.535 0-3.789-.62-3.789-1.875 0-1.031-.798-1.875-1.772-1.875-.973 0-2.055-.703-2.402-1.562-.39-.969-.667-.765-.728.535-.075 1.584-1.769 2.307-6.924 2.951-7.773.971-10.674-.717-10.674-6.209 0-1.768-.563-3.215-1.25-3.215-.688 0-1.25-1.687-1.25-3.75 0-2.062.498-3.75 1.107-3.75.61 0 1.487-2.524 1.95-5.61.462-3.085 1.658-6.427 2.658-7.427s2.155-3.502 2.566-5.56c.412-2.059 1.536-4.045 2.498-4.415 1.161-.445 1.692-2.467 1.582-6.017-.268-8.652 1.045-19.675 2.56-21.502 2.687-3.236 1.167-18.784-1.952-19.98a3.093 3.093 0 0 0-.668-.18zm333.95 22.594c-.447.069-.86.073-1.233.023-.003.09-.014.165-.014.262-.006 2.797 1.634 3.686 2.978 1.748a5.001 5.001 0 0 1-1.73-2.033zm160.103 20.752c.434-.018.93.061 1.38.242.998.399.7.694-.755.754-1.318.054-2.056-.241-1.641-.657.208-.207.581-.322 1.016-.34zm319.226 349.845c1.086 0 1.92 1.086 1.92 2.5 0 1.375-.263 2.5-.582 2.5-.32 0-1.182-1.125-1.918-2.5-1.068-1.995-.952-2.5.58-2.5zm233.322 13.13c.685-.009 1.098.448 1.098 1.284 0 2.022-1.954 2.482-3.045.717-.38-.615.149-1.442 1.176-1.836.283-.109.543-.163.771-.166zm-7.236.636a.9.9 0 0 1 .229.014c.347.067.605.359.605.908 0 .515-.633 1.148-1.406 1.406-.774.258-1.195-.164-.938-.937.286-.858.958-1.356 1.51-1.391zm-113.957 21.851c1.38.046 2.098 1.436 2.494 4.352.294 2.161-.238 3.226-1.765 3.53-1.368.271-2.188-.33-2.188-1.606 0-1.122-.45-1.763-.998-1.424-.549.339-1.707.177-2.574-.36-1.138-.703-.65-1.582 1.756-3.158 1.379-.903 2.446-1.36 3.275-1.334zm5.488 1.127c.451.038.894.3 1.164.737.432.698-.092 1.27-1.164 1.27-2.195 0-2.519-.751-.785-1.823.24-.148.515-.206.785-.184zm61.022.99c.085-.03.181 0 .285.104.416.416.46 1.494.1 2.397-.4.997-.696.7-.756-.756-.041-.988.115-1.65.37-1.744zm-717.211 24.766c-.27 0-.815.844-1.211 1.875-.396 1.032-.174 1.875.492 1.875.666 0 1.211-.843 1.211-1.875 0-1.031-.222-1.875-.492-1.875zM427.574 800.213c-.044.291-.074.59-.074.889 0 3.262.781 3.014 1.469-.301-.46-.067-.934-.266-1.395-.588zM1145 1053.527c.688 0 1.25.563 1.25 1.25 0 .688-.562 1.25-1.25 1.25-.687 0-1.25-.562-1.25-1.25 0-.687.563-1.25 1.25-1.25z"/></svg>