<svg xmlns="http://www.w3.org/2000/svg" xmlns:dc="http://dublincore.org/documents/dcmi-terms/" height="135.121" version="1.2" viewBox="0 0 390.282 135.121" width="390.282" overflow="inherit"><metadata><dc:description>Silhouette of Loganiidae, processed by PhyloPic Tools (https://github.com/eweitz/phylopic-tools)</dc:description><dc:source>http://phylopic.org/image/68a14c4d-30ae-45be-b7a3-1b1c837fc7c6</dc:source><dc:creator>Verisimilus</dc:creator><dc:license>http://creativecommons.org/licenses/by/3.0/</dc:license></metadata><g stroke="#000"><path d="M.52 60.066C-.138 46.422 16.08 38.654 27.255 34.51c14.237-5.336 29.256-8.11 43.777-12.266 16.158-1.973 31.725-5.46 46.807-11.642 13.583-5.05 27.79-8.706 42.321-8.929 12.736-.945 25.487-1.289 38.23-1.14 16.978 4.297 21.902 25.09 38.636 29.927 12.596 3.746 24.083 9.897 36.35 14.25 12.047 3.954 23.344-3.316 34.021-8.039 11.137-5.584 21.154-13.869 34.191-14.64 13.057-3.01 25.762-13.583 39.643-8.393 12.844 5.48 7.66 19.612-5.139 18.62-7.725 10.703-24.67 14.06-28.44 27.372-1.825 14.005 6.333 25.75 13.583 36.61 6.744 12.033 12.412 16.324 26.916 23.656 8.066 23.72-15.965 12.433-25.287 9.231-10.459-7.829-22.678-13.568-33.64-20.754-10.978-6.726-22.858-11.904-35.136-15.984-20.93-4.103-45.764-7.838-67.263-4.086-6.562 10.643-12.413 8.861-23.835 4.771-12.598-.263-27.067-.169-39.314 3.046-20.03 2.215-40.249.816-60.302 2.876-13.3-.079-26.498-2.65-39.556-4.85-12.01-4.606-25.16-6.074-37.089-10.882-6.845-5.54-28.902-8.25-24.9-18.1C13.83 66.66 7.196 60.188.52 60.066z"/><path d="M175.087 84.435c3.065-1.734 6.788.59 9.814 1.59 3.65 1.41 7.348 2.692 10.976 4.156 5.084 2.622 8.797 3.235 14.742 5.305 2.79 1.033 7.332 1.8 9.657-.179 3.714-2.639 6.22-6.538 8.937-10.11a35.907 35.907 0 0 0 3.092-5.13M56.412 58.46c3.852-.664 7.967.465 10.843 3.134 13.572 8.412 28.72 16.284 44.695 18.307 8.477-.747 12.623-9.938 15.05-17.399.73-2.253-.169-4.615-.23-6.899M17.69 55.046c-.907 1.506-.734 3.698.68 4.841 1.998 1.873 5.076 2.762 7.68 1.711 1.628-.724 2.5-2.537 2.565-4.25.123-1.528-.66-3.068-1.95-3.892-1.356-1.016-3.26-1.545-4.86-.796-.754.383-1.4.965-2.22 1.214-.687.287-1.399.598-1.896 1.172z" fill="none" stroke-linecap="round"/><path d="M21.77 56.495c-2.802-.296-.092 3.841 2.677 1.071 1.867-1.866-1.966-1.546-2.678-1.07z" fill="#5f5f5f" stroke-linecap="round"/><path d="M63.555 24.531c5.437-2.442 11.426-2.65 17.036-4.479 11.65-2.094 23.512-2.234 35.285-3.2 8.89-.202 17.731-1.169 26.588-1.592 13.146.573 25.998 1.077 39.123 1.201 13.855 2.192 26.127 3.236 38.837 6.56 6.61 2.453 12.715 5.355 24.56 10.082" fill="none" stroke-linecap="round"/><path d="M377.281 32.475c-4.973-.965-10.045.273-15.053-.323-20.01 2.39-41.213 19.547-53.094 34.806-.812 5.562 3.986 8.391 8.816 12.13 19.73 17.65 39.834 28.58 64.436 38.402.881.275 2.176 1.09 3.102 1.1" fill="none" stroke-linecap="round" stroke-dasharray="8,4"/></g></svg>