<svg xmlns="http://www.w3.org/2000/svg" version="1.2" width="1042" height="318.23" viewBox="0 0 1042 318.23" overflow="inherit"><path d="M280 0h7c.027.973 1.224.776 2 1-46.977 22.006-98.424 42.67-142 67-8.642 4.825-16.748 9.495-25 16 28.471-.811 52.455-12.47 74-24 31.334-16.769 61.931-33.621 96-47-41.866 22.467-85.355 43.311-125 68 15.102 1.188 23.599-16.256 40-14 3.154-1.179 5.556-3.111 8-5 8.991 9.515 29.808 8.122 37-2 7.523 1.932 18.008 13.773 25 4 12.194 4.272 24.73-2.36 33-8 5.513 15.499 29.149 5.777 43 4-5.994 6.006-20.155 3.845-27 9 4.976.513 7.13 6.368 12 4 9.758 5.549 23.748 13.672 39 13 6.249-.275 12.338-3.412 20-3 21.05 1.132 36.557 10.345 60 6-2.457 3.877-10.914 1.753-14 5 5.803 8.619 24.436 4.798 34 7-2.221 3.779-11.971.029-14 4 8.54 7.435 18.611 3.577 32 4-1.179 3.821-9.153.847-10 5 19.423 13.496 46.637 14.296 73 19 41.249 7.359 85.951 4.072 126-2 2.977.357 5.074 1.593 7 3 25.824-6.499 46.787-5.57 74-10 2.19 2.081-.878 3.232 1 5 3.998.332 5.551-1.783 10-1 .576 2.091 2.479 2.854 2 6 3.868-.535 4.882 1.785 9 1-1.704 7.038 4.309 6.358 8 8 .988 3.989-2.988 3.011-2 7 1.331 2.002 4.438 2.228 7 3-2.544 6.034 2.393 11.02 5 15 68.497 2.02 130.504-16.741 202-22 9.722-.715 20.475-.39 30 4-3.157 3.778-.04 2.858 2 6 .282 2.615-.365 4.302-3 4-.33 4.33 5.538 2.462 5 7-1.336.997-1.964 2.703-4 3-.043 3.709 3.75 3.583 5 6v2c-2.729-.729-2.013 1.987-4 2-.473 3.14 2.691 2.642 3 5 .753 3.753-3.82 2.18-4 5 .274 2.059 3.726.941 4 3 .468 3.135-2.515 2.819-4 4-.753 3.753 3.82 2.18 4 5 .753 3.753-3.82 2.18-4 5 .997 1.336 2.703 1.964 3 4-4.523 6.274-1.823 9.857-2 16-12.622 7.582-30.378 1.581-46 0-39.078-3.954-80.756-7.998-122-11-17.07-1.242-35.962-4.246-52 1 5.368 3.401 7.126 11.945 14 11 .507 2.477-.496 7.217 5 7-.52 4.661-2.953 4.427 0 8-2.191.783-5.555.321-7 4-5.17-6.456-24.072 2.464-31-2-2.995.658.956 2.138 0 4-20.758 1.965-40.604-3.232-59-9-4.302-1.349-9.373.463-15 0-10.987-.904-21.428-3.587-33-4-10.814-.386-21.278-3.053-32-4-64.718-5.721-129.411 16.377-193 16 1.04 17.595-2.062 39.109-9 52-4.399-1.777-6.613-.399-12-1-3.187-.355-7.525 1.141-10 1-3.738-.212-7.535-3.087-11-3-3.423.086-5.773 2.608-11 1-1.503-.463-1.857-2.813-3-3-4.262-.694-11.022 4.245-12-3-10.984 6.224-21.207-3.689-33-1 .423-2.09-.686-2.648-1-4-4.293 5.098-6.914-4.343-12 1-.777-.89-1.075-2.258-1-4-1.904.429-2.512 2.154-5 2-.777-.89-1.075-2.258-1-4-2.356-.022-2.944 1.723-6 1 .34-7.182-5.372-2.099-7-7 .947-7.387 2.234-14.433 4-21-18.863.747-45.298 4.365-63 2 8.863 17.186 32.467 30.135 30 52 .544 3.586 6.348 5.675 4 9-8.062 1.396-9.397-3.936-14-6-2.931.848.598 3.22 0 5-4.655.321-5.565-3.102-9-4-1.44.227-.349 2.984-2 3-4.756.422-5.156-3.511-8-5-3.146-1.146-2.43 1.57-4 2-22.631-9.144-31.982-26.972-41-51-4.17-11.112-8.648-11.244-23-14-27.554-5.291-57.992-15.488-82-26-1.71-.044-2.59.743-3 2-1.344-4.156-11.43-6.875-17-10-.68 2.861 1.057 11.774-5 12-1.477-6.033-2.648-9.143-2-14-2.091-2.18-2.854.5-6 0 .757-3.757-2.617-3.383-4-5-3.135-.468-2.819 2.515-4 4-5.188-2.171 2.503-5.844-2-8-8.417 1.584.135 12.573-4 17-2.729-2.741-11.465-13.476-2-16-1.456-5.544-8.307-5.693-12-9-2.077.257-.273 4.394-2 5-2.401-2.932-.889-9.778-6-10-5.681 2.175-.492 9.69-3 14h-6c1.073-2.594 2.43-4.904 2-9-4.721-.721-1.758 6.242-7 5 2.813-4.785-.156-10.616 4-15-.803-2.53-4.117-2.55-6-4-1.851 1.815-1.299 6.034-3 8-4.918-2.232 1.947-5.575 1-10-1.891-1.109-3.505-2.494-6-3-2.264 5.02 3.518 11.623-4 14 .803-3.418-1.109-11.125 2-15-1.445-2.889-4.809-3.858-7-6-2.841-.175 1.208 6.542-3 5v-8c-.91-1.757-3.504-1.829-5-3-1.579 2.087-2.074 5.26-2 9-7.084-2.76 2.614-18.506-10-13-1.739-6.902-.451-12.447-3-17v-1c8.794-6.588 20.872-15.062 30-18-.18 2.82-4.753 1.247-4 5 2.483 1.301 4.15-2.934 5 0-.983 2.35-5.007 1.66-5 5 3.658.658 3.836-2.164 7-2-2.859 3.461 1.539 3.219 4 2-.013 1.987-2.729 1.271-2 4 3.675 2.068 5.533-.268 9-1-1.578 5.173 7.574 2.926 9 2 11.258 11.19 23.218 19.477 39 24-3.079-10.075-7.051-13.392-5-22-4.115-.024-3.666-5.563-2-8-6.736-2.462-1.142-6.713-6-9h3c-.326-4.854-5.864-1.516-2-6-4.023.197-4.096.125-3-3-2.333-.856-4.309 3.497-5 1 .309-2.358 3.473-1.86 3-5-3.096-1.001-3.884 5.322-6 2 .887-5.308 1.093-4.641 1-12h6c-.563-7.265-7.825-.363-11-3 1.49-3.843 7.131-3.536 12-4-1.13-7.049 4.932-13.082 11-16 5.632 1.702 6.841 7.825 14 8 52.996-18.706 98.661-49.958 149-68 4.175-7.852 13.446-17.743 22-15-6.912.914-15.809 4.642-15 10 7.482-3.851 17.213-5.454 22-12z" fill-rule="evenodd"/></svg>