<svg xmlns="http://www.w3.org/2000/svg" xmlns:dc="http://dublincore.org/documents/dcmi-terms/" height="722.798" version="1.2" viewBox="0 0 2901.672 722.798" width="2901.672" overflow="inherit"><metadata><dc:description>Silhouette of Loricata, processed by PhyloPic Tools (https://github.com/eweitz/phylopic-tools)</dc:description><dc:source>http://phylopic.org/image/31c4913e-4b90-4100-918d-71cb206783b7</dc:source><dc:creator>Dmitry Bogdanov (vectorized by T. Michael Keesey)</dc:creator><dc:license>http://creativecommons.org/licenses/by/3.0/</dc:license></metadata><path d="M1030.672 722.798c5.39-7.551 16.451-16.079 23-9 28.66-20.006 55.439-41.894 81-65-1.448 15.219-12.632 20.702-22 28-3.062 8.271-7.533 15.133-8 26 26.075-17.259 52.572-34.094 75-55 .703-12.297 10.012-15.988 15-24-.429-8.661 6.772-21.191 3-31 4.485-1.515 5.887-6.113 7-11 6.013-5.987 14.086-9.913 18-18 11.99-5.047 22.357-13.236 34-21 11.009-7.341 24.114-14.446 34-23 11.558-10.001 20.799-23.708 30-34 4.747-5.31 8.732-11.22 12-17 12.586-8.081 19.685-21.648 31-31 4.924 1.082 11.148-5.371 17-5 4.748.301 11.244 7.472 17 11 18.088 11.087 39.572 23.11 62 36 10.37 5.96 20.946 12.498 32 17 22.077 8.992 44.924 11.17 51 33 9.641 2.693 13.541 11.126 19 18-.841 4.089-1.781 7.416-2 11-.259 4.227-1.324 14.822-1 17 .775 5.194 6.617 9.062 7 14 1.004 12.943-12.226 27.239-22 30-6.144 1.735-14.732-.382-22 1-5.801 1.104-11.07 4.137-16 5-10.141 1.775-23.389 1.335-28 14 9.576-2.777 20.901-1.742 31 0-1.799 5.065-11.852 6.545-9 13 9.82-3.198 19.922-5.541 30-6 5.349 9.165 15.651 2.916 26 3 2.848.023 6.386 2.11 9 2 9.926-.419 18.914-7.037 28-8 4.571-3.429 6.592-9.408 13-11-.082 17.014 5.854 27.214 18 34-1.244-5.417-.539-8.314 0-14 16.244-.533 9.452-11.588 10-23 .239-4.986 2.686-12.943 4-20 2.701-14.493 8.509-25.985 10-37 .436-3.222-1.15-6.412-1-10 1.642-39.211 0-75.169-27-94-35.59-8.814-52.217-45.064-81-64 6.723-6.818 17.34-9.027 27-12 19.807-6.094 43.127-7.545 68-6 26.398 1.64 49.018 6.016 70 15 60.342 25.836 125.015 48.748 178 78 20.459 4.503 36.597 16.33 54 23 19.311 7.401 40.973 12.756 62 19 42.225 12.537 83.368 26.547 129 31 24.337 2.375 47.709 9.188 71 11 25.404 1.977 44.635 4.587 67 6 63.709 4.025 139.396 1.758 212 0 56.18-1.36 113.164-10.391 169-22 17.703-3.681 30.891-4.866 47-7 69.004-9.142 135.428-27.931 209-18-3.402-9.385-16.811-10.014-28-12-10.272-1.823-22.276-5.722-32-6-4.061-.116-8.025 2.004-12 2-7.771-.009-16.085-6.441-21 0-4.526-8.921-15.81-4.086-21 1-3.133-.783-6.723-5.937-10-6-.437 4.57-4.988.926-7 2-3.395 1.812-1.73 3.012-4 5-2.935-10.363-17.123-5.982-19 2-1.83-5.014-18.603-8.408-23-1-6.231-4.466-15.986-3.919-20 2-5.287-7.01-15.087-.646-21 0-8.158.893-17.377-4.36-23 3-6.998-7.518-17.366-.221-27 0-8.037.184-17.451-5.532-22 2-5.893-3.984-21.223-6.962-25 1-.5-7.743-18.664-5.781-18 2-3.25-1.263-2.146-4.776-7-6-6.008-1.515-10.85 2.888-18 3-9.392.147-18.879-6.534-23 0-7.688-3.75-19.369-6.927-29-2-2.982-6.488-19.59-8.616-24-2-4.051-4.677-9.976-7.775-17-7-7.414.818-4.775.803-10-2-7.945-4.264-12.231-.024-21-1-9.307-1.035-14.081-8.97-23-3-3.412-7.82-16.672-11.719-24-7-3.669-8.816-13.391-6.661-21-8-3.876-.682-8.045-4.213-12-5-3.683-.733-8.719.881-12 0-6.865-1.844-16.312-13.846-26-6-2.17-9.799-16.962-8.083-24-11-2.885-1.195-4.072-4.403-6-5-6.352-1.966-9.092-.703-14 1-3.501-6.322-16.031-11.477-23-8-3.449-9.094-12.707-6.649-21-10-5.754-6.382-17.826-13.241-28-9-.44-4.201-15.418-12.01-24-8-4.673-6.486-12.275-7.671-21-8-6.48-5.459-12.914-12.199-25-10-4.067-9.499-15.439-12.6-25-9-9.834-12.405-27.564-13.748-41-24-4.428-1.094-4.973 1.693-8 2-6.346-9.32-16.25-15.084-29-18-7.615-8.782-16.244-16.976-25-23-10.753-7.398-22.692-9.547-26-23-17.809-3.858-32.377-10.957-39-26-3.855 2.075-4.869-2.573-10-2-6.467-12.109-20.127-20.398-34-22-4.906-12.397-6.295-7.462-10-17-8.235-3.12-16.778-6.563-25-7-3.485-17.381-13.623-17.046-32-23-.301-11.328-8.443-11.346-11-16-5.623-1.71-10.82-3.847-18-4 .73-3.98.73-4.02 0-8-9.616-4.717-16.547-12.12-30-13-5.993-9.019-12.528-16.732-16-19-6.914-4.517-14.367-2.685-22-7-4.299-2.431-4.008-7.403-8-11-.966-.87-4.517-.066-7-2-.069-.054.327-1.559 0-2-4.377-5.902-16.559-6.251-24-7-10.874-10.083-20.325-18.915-35-24-6.846-2.372-13.816-1.213-21-3-12.365-3.076-20.879-14.288-31-19-15.055-3.427-26.695-4.977-40-9-1.892-1.442-.229-6.438-4-6-6.244-4.558-12.56-2.673-20-5-4.723-1.477-9.114-5.519-14-7-5.219-1.582-10.85-1.013-16-3-9.391-3.623-17.797-11.749-27-14-6.195-1.516-13.109.309-20-1-12.662-2.406-23.768-11.381-38-8-12.605-10.081-31.056-5.598-47-9-6.22-1.327-11.801-5.018-18-6-9.28-1.471-19.668.179-30-1-6.082-.694-12.162-4.042-18-5-13.775-2.26-22.873 1.316-33 1-11.877-.371-23.63-4.785-35-4-20.795 1.435-44.913-6.611-63 3-17.801-9.187-37.494-2.251-51-2-7.415.138-14.61-1.77-22-1-7.422.773-15.453 5.133-21 5-5.55-.133-11.432-4.79-17-5-12.711-.48-21.669 3.404-31 8-15.523-4.885-43.644-.945-60 7-31.658-.796-60.186 1.441-85 8-13.838-2.679-30.477-3.177-42 3-27.114-6.972-50.788 6.369-80-1-10.159 5.64-20.934 2.122-32 2-13.326-.146-20.145 5.27-31 7-18.009 2.87-38.752-3.199-53 5-15.779-4.744-31.945-.098-46-2-8.665-1.173-13.907-7.013-22-7-5.764.009-10.996 2.584-17 2-13.268-1.291-25.934-8.461-39-3-13.482-10.754-34.811-4.22-47 2-13.418-8.259-29.608-.41-43 0-2.436-1.005 1.959-4.422-3-4-10.385 3.289-22.916 5.042-33 6-7.387.702-11.466-.594-18 0-16.845 1.53-24.908 16.803-41 10-9.899 5.988-30.234 17.599-42 23-6.231.755.931-6.681-5-5-17.526 6.128-29.501 22.068-50 27-2.102 1.564-2.447 4.886-5 6-18.696 4.943-36.81 9.435-57 13-13.304 2.349-22.407 4.285-33 7-16.07 4.118-23.928 9.899-37 14-9.19 13.009-36.025 17.884-48 34-8.508 1.012-17.602 8.757-28 18-6.746 5.997-15.01 12.693-20 18-10.723 11.402-7.642 42.999 3 57 4.969 6.537 12.06 10.792 17 17-.589-.74.215 2.886 2 2 1.19 16.07 14.684 28.704 27 38 9.028 6.814 14.518 7.839 24 11 4.128 1.376 8.223 4.133 12 5 10.383 2.383 22.52-2.708 36 0 6.284 1.262 9.212 10.686 17 7 1.504-4.407-3.809-5.86-2-8 17.527 1.731 34.175-4.517 54-9 15.039-3.401 30.338-5.855 45-8 11.975-1.752 28.619-5.798 40-5 22.854 1.603 45.741 19.282 67 27 22.939 8.328 45.184 20.297 67 26 5.701 1.49 12.095.537 18 2 36.031 8.925 70.387 19.125 109 16 12.252-.991 22.637-8.568 35-9 14.156-.494 26.771 7.988 38 13-20.998 32.002-41.691 64.309-61 98-6.476 1.524-9.271 6.728-14 10-5.573 11.888-7.218 29.966-17 40-3.521 3.611-11.148 4.561-15 9-3.139 3.617-4.396 8.666-7 12-6.328 8.104-16.96 15.999-27 17-2.661.266-5.088-1.523-8-1-10.847 1.948-16.041 12.561-21 21 7.191.191 9.297-4.703 16-5-3.592 5.742-7.354 11.313-9 19 8.211-6.8 16.785-3.26 25-2 16.742 2.568 35.326-3.011 43-8 9.568-6.222 13.007-17.58 22-23-1.291 6.111 2.908 18.269 5 27 15.479-13.534 18.729-32.96 29-49 16.283-25.427 41.748-38.16 64-59 19.434-18.2 40.168-36.811 57-56 18.152 8.089 32.767 20.805 51 31 14.067 7.865 44.461 14.522 54 26 4.373 5.263 4.036 12.785 7 19 13.856 29.062 34.184 57.74 51 86-.854 18.837 4.827 36.253 14 48-2.452 3.45-.899 5.535-2 11-9.431 5.57-17.545 12.455-22 23-7.358-.006-17.398 5.011-18 15 5.41-2.59 13.172-2.828 20-4-2.233 6.767-8.836 9.164-10 17 7.078-1.33 10.139-5.899 18-4-.858 7.475-7.664 9.003-8 17 8.561-3.082 15.875-7.916 25-8 3.462-.031 6.476 2.344 10 2 19.73-1.923 26.106-22.208 40-32 2.043-2.291 1.395-7.272 3-10 10.423 6.577 19.466 14.534 34 17-2.591-11.076-8.078-19.255-14-27-2.255-2.162.828-3.411 0-7-11.626-11.49-7.852-33.959-9-50-3.006-41.999-22.112-73.406-39-102-5.225-8.847-14.965-20.88-18-29-1.783-4.772-.403-10.64-2-15-1.155-3.155-4.357-5.861-6-9-6.001-11.469-10.574-19.844-17-30 11.111 1.555 20.934 4.4 32 6 2.023 3.206-3.956 3.128-1 4 15.221 3.313 31.617-1.557 47 2 2.389.552 4.406 2.775 7 3 16.388 1.417 34.321-4.58 51-5 2.907-.073 6.206.987 9 1 48.232.214 86.707-7.902 128-13 29.814-3.681 58.167-6.35 82-15-16.014 31.717-38.908 58.139-55 90-3.867 7.657-6.812 16.127-11 24-9.162 1.283-8.865 10.5-12 17-3.825 7.932-11.592 13.813-15 21 .438 3.438-.395 5.605-1 8-7.02 11.646-17.07 20.264-21 35-13.996 12.223-19.701 30.674-32 44-11.028 11.949-23.868 21.799-31 37-9.661 6.01-22.336 14.326-24 25 9.224-3.776 16.668-9.332 30-9-8.062 8.367-14.266 19.652-14 31h2z" fill-rule="evenodd"/></svg>