<svg xmlns="http://www.w3.org/2000/svg" xmlns:dc="http://dublincore.org/documents/dcmi-terms/" height="1024" viewBox="0 0 792 1024" width="792"><metadata><dc:description>Silhouette of Lutrochidae, processed by PhyloPic Tools (https://github.com/eweitz/phylopic-tools)</dc:description><dc:source>http://phylopic.org/image/77164e4b-8076-447b-a140-7a1f9f907da8</dc:source><dc:creator>Crystal Maier</dc:creator><dc:license>http://creativecommons.org/licenses/by/3.0/</dc:license></metadata><path d="M640.168 137.02c.18-3.196 6.137-.615 8.681-1.447-.332 7.571-4.306 1.486-8.681 1.447z" fill-rule="evenodd"/><path d="M159.836 887.899c-15.692-.705-18.764-14.03-31.83-17.361.235-1.683-.319-2.574-1.447-2.894-.001-15.054 1.537-31.051 5.787-43.403 1.861-5.409 5.261-11.055 8.681-14.468-1.262-9.978 8.08-13.66 4.34-21.702 2.595.184 3.052-1.771 5.788-1.446 6.068-18.045 19.325-28.901 28.936-43.404.16-6.911-5.923-7.58-7.234-13.021-6.7-36.535-21.988-73.502-18.808-117.189.989-13.587 5.526-27.155 5.787-41.957 4.206-12.938 13.265-18.967 20.255-31.829-2.397-10.506-4.435-21.309-2.894-33.275.278-2.16 2.793-4.864 2.894-7.234.421-9.946-7.151-21.606 1.447-28.936-1.453-1.923-1.368-5.383-4.34-5.787-1.054-3.947 2.875-2.912 2.894-5.787-10.207-24.461-36.883-43.825-40.51-79.573.532-2.461-1.128-2.73-2.894-2.894 1.591-14.149 5.292-17.357 7.234-30.382 18.634-4.226 37.698-8.348 56.424-8.681 1.123-15.756 11.11-22.648 17.361-33.276-10.209-21.416-23.947-38.415-34.723-62.211-.44-10.169-2.39-18.83-8.681-23.148.621-2.755 3.117-3.635 2.894-7.234-3.965-2.184-7.402.857-10.127-4.34.009-3.849 4.025-3.69 5.787-5.787-7.01-8.422-18.354-12.511-27.489-18.808-6.389-15.936-22.29-27.035-33.276-40.51-3.198-3.923-5.482-7.556-10.127-10.127l.724-2.17-2.17-.723c2.103-2.238 5.644-3.038 10.127-2.894 3.929 1.035-1.035-6.822 2.894-5.788l2.17.724 2.17-.724c10.658 15.385 20.523 31.562 30.383 47.744 12.49 12.104 27.811 21.38 50.637 23.148 7.908 12.34 4.24 31.844 11.574 41.957-3.731 13.916 8.693 22.744 8.681 37.616 1.258 2.118 2.166 4.586 5.787 4.34 1.963-.448 1.2-3.622 1.447-5.787 10.852-1.995 11.563 1.966 23.148 1.447 8.387-8.492 11.982-21.776 21.702-28.936-.641-1.288-1.271-2.587-2.894-2.894 10.952-6.41 10.704-24.019 23.148-28.936-2.533-5.124.963-3.557 1.447-8.681 7.313-1.85 12.661-5.666 13.021-14.468h7.234c6.219-11.625 28.059-7.628 30.383-23.148 4.974.633 8.109-.572 11.574-1.447 2.376-6.305 12.622-4.74 13.021-13.021 3.234 6.271 6.636.196 8.681-2.894 4.676 4.627 18.227 3.583 21.701-1.447 11.811 4.174 24.901-2.915 31.83 2.894 2.521-1.337 7.765.049 7.233-4.34 7.875 2.289 12.1 10.843 21.702 7.234v4.34c9.999-2.384 11.888 8.39 26.042 5.787.461 3.396 2.285 5.431 1.446 10.127 3.298.404 5.438-.349 5.787-2.894 3.138-.244.655 5.131 1.447 7.234 4.681 1.788 1.105-4.682 5.787-2.894v5.787c16.922 4.84 17.166 22.454 34.723 28.936-1.77 6.592 3.969 5.676 2.894 11.574 1.226 2.15 4.658 2.094 7.233 2.894-2.862 11.061 7.071 9.326 5.787 18.808 2.573 1.285 3.678 4.039 8.681 2.894-1.917 13.009 7.63 14.554 8.681 24.595 10.169 1.926 16.56-1.304 28.936-2.894-3.22-14.623-10.54-25.147-18.808-34.723-15.554-2.532-31.694-17.825-18.809-31.829 13.594-3.189 27.986 4.87 36.17-2.894 2.141.753 3.646 2.141 5.787 2.894 2.484-1.856 2.906-5.775 5.787-7.234 24.02 2.2 29.136-25.407 46.297-34.723-.023-6.293-.479-13.018 1.447-17.361 7.341 5.68 7.381 18.66 8.681 30.382-11.553 18.348-35.48 24.32-52.084 37.616h-8.682c-1.789 12.399 4.938 16.281 7.234 24.595.233 1.695 2.638 1.22 4.34 1.447 2.981 17.108 1.214 30.349 1.447 41.957-.16 2.733-4.783 1.004-4.34 4.34 3.726 10.941 2.82 25.667-13.021 24.595 4.49 14.41 12.106 16.891 17.361 34.723 25.144 3.162 51.812.791 59.318 20.255 1.795 4.654-2.365 10.447 2.894 15.915-1.427 13.42-4.847 22.782-13.021 37.616-4.34 7.876-8.878 17.098-13.021 23.148-4.914 7.177-12.669 10.543-15.915 18.808.645-1.642-.954 9.233-1.446 5.787.235 1.647 2.483 3.669 4.34 4.34-1.442 1.934-3.91 2.841-4.34 5.787 5.579 7.033.337 17.061 1.446 24.595.284 1.931 2.899 3.004 2.894 2.894.079 1.433-2.753 1.124-2.894 2.894-.591 7.45 4.186 15.337 2.894 24.595-.575 4.119-3.24 16.537-5.787 21.702 7.469 14.232 12.475 30.93 23.148 41.957-8.678 1.449-13.137 7.118-21.701 8.68.851 4.937 8.004 3.57 10.127 7.234 1.447 7.558 5.473 8.744 2.894 17.361 2.953 1.87 3.659 5.986 7.234 7.234 5.157 45.554-17.807 86.03-39.063 111.401-3.729 4.45-7.581 11.706-13.021 11.574.766 1.164 1.51 2.35 1.447 4.341-6.954 4.673-12.624 6.819-17.361 15.914 33.292 16.476 42.19 89.176 23.148 127.317-14.834-1.108-20.951 14.442-34.723 5.787l2.17-.724-.724-2.17c3.971.213 7.46.27 4.341-2.894h1.446v-1.447h7.234c3.273-2.03 4.755-5.855 8.681-7.233.657-16.965 12.285-34.785 8.681-60.765-2.813-4.763-5.394-12.997-2.894-18.809-.448-1.964-3.622-1.2-5.787-1.446.727-11.337-8.605-12.614-10.128-21.702-3.01-3.169-4.676 1.27-7.233-1.446-.084-9.562-6.701-12.59-10.128-18.809-2.25 3.055-3.647 6.962-8.681 7.233-2.211 3.394-.654 6.832-2.894 10.128-1.955 2.878-8.504 4.079-10.127 5.787-1.149 1.209-3.688 7.878-5.787 10.128-4.201 4.502-10.782 5.759-10.128 11.574-16.574 9.074-28.372 21.137-47.743 33.275-3.412 1.863-2.692-.189-7.234 1.447-1.199 3.141-5.461 3.219-5.787 7.233-11.435 4.032-29.694 2.143-39.063 8.681-.736.515-1.13 4.193-1.446 4.341-2.944 1.37-7.672.196-11.574 1.446.092-11.492-.551-16.521-1.447-24.595-.16-2.733-4.782-1.004-4.34-4.341-13.027 3.837-22-6.186-31.829-2.894 2.985 6.509 1.86 12.373-1.447 21.702-5.93 3.506-9.31-4.718-14.468 1.446-3.833-5.33-11.825-6.501-20.255-7.233-4.051-6.325-16.142-9.846-23.149-8.681.662-4.521-3.091-4.625-7.234-4.341-3.66-4.056-6.59-8.842-14.468-8.681 1.196-4.089-2.039-3.748-1.447-7.233-11.023-2.48-13.684-13.323-24.595-15.915-1.451-7.229-6.629-10.731-8.681-17.361-4.089-1.195-3.748 2.039-7.234 1.447-5.433-16.751-19.691-24.678-24.595-41.957-1.322-2.536-2.689-5.026-7.234-4.341 3.859-5.652-2.002-11.866-5.787-14.468 2.03-6.332-2.96-14.366-7.234-18.808 1.798-10.955-6.677-15.916-5.787-28.936-1.727-4.659-8.266-10.196-4.34-15.915-3.479-8.207-8.824-20.252-7.234-28.936-2.308-1.068.33-7.082-4.34-5.787 2.277-8.399 1.495-25.362-4.34-30.383 5.287-8.011-3.792-19.524 0-26.042-5.28-.939-7.706.976-10.127 2.894 4.539 54.015 10.669 107.688 18.808 163.486-12.736.285-6.278 19.765-18.808 20.255 1.049 4.426-2.496 4.256-1.447 8.681-1.901 1.476-5.333 1.419-7.234 2.894.387 5.21-2.673 6.974-2.894 11.575-3.355-.462-5.555.232-7.234 1.446.365 9.046-.344 17.018-8.681 17.361-5.449 18.813-8.031 42.708-7.234 63.658h2.894l-.724 2.171 2.17-.724c.116 8.564 6.988 10.373 13.021 13.021l-2.17 1.688.724 2.662zm-5.787-504.926c.169 9.476 10.262 9.028 11.574 17.361 8.436 1.209 6.408 12.883 17.361 11.574-.7-9.863 2.615-15.711 2.894-24.595-9.665-2.412-22.256-10.658-31.829-4.34zm490.459 1.446c-.57 2.489 2.147 3.709 0 4.34-5.124-2.799-8.355.036-14.468 0-2.421 6.737 1.732 7.991 1.446 15.915 1.703.227 4.107-.249 4.341 1.447 10.953-4.961 19.509-12.321 24.596-23.148-6.856-1.068-9.947 1.627-15.915 1.446zm-23.149 250.294c-5.302 7.698-7.952 22.547-7.234 31.829-6.002 10.212-10.964 25.754-11.574 39.063 8.111-.595 9.912-11.439 13.021-17.361 6.44-12.268 13.271-22.779 15.914-37.616 5.94-.329 5.484-7.055 5.788-13.021-2.514-3.756-9.607-2.932-15.915-2.894z" fill-rule="evenodd"/><g fill="none" stroke="#000" stroke-linecap="round"><path d="M102.688 129.063c-3.688.234-6.556 1.966-10.127 2.17" stroke-width="3.097"/><path d="M115.709 120.382c-.46-2.411.714-4.823 2.894-7.234" stroke-width="4.412"/><path d="M569.999 901.644c2.114 1.666 4.678 2.141 7.233 2.894" stroke-width="2.453"/><path d="M582.296 899.474c-1.023-.423-1.681-1.213-2.17-2.17" stroke-width="1.671"/><path d="M146.092 871.262c1.318-2.301 5.112-1.722 5.787-4.341" stroke-width="2.313"/><path d="M169.24 881.389l-.438 1.009c-2.722 2.062-6.248 3.312-9.689 2.85" stroke-width="2.745"/></g></svg>