<svg xmlns="http://www.w3.org/2000/svg" xmlns:dc="http://dublincore.org/documents/dcmi-terms/" height="1118.628" viewBox="0 0 1729.706 1048.7135" width="1845.02"><metadata><dc:description>Silhouette of Machairodontidae, processed by PhyloPic Tools (https://github.com/eweitz/phylopic-tools)</dc:description><dc:source>http://phylopic.org/image/668af1d9-7e27-44c3-b98d-2356c236f42a</dc:source><dc:creator>Zimices</dc:creator><dc:license>http://creativecommons.org/licenses/by-sa/3.0/</dc:license></metadata><path d="M740.625 1047.27c-1.44-.877-9.175-1.789-18.24-2.149-14.943-.593-16.057-.823-22.032-4.54-3.46-2.152-8.328-4.585-10.817-5.407-4.71-1.554-11.265-8.565-15.141-16.19-3.406-6.703-2.165-17.744 2.56-22.768 6.343-6.745 9.288-7.345 36.048-7.345 13.384 0 25.672-.509 27.308-1.13 6.202-2.359 17.637-15.807 23.959-28.18 3.38-6.614 8.877-15.147 12.216-18.962 3.338-3.816 7.25-9.28 8.693-12.145 1.442-2.864 4.592-7.636 6.998-10.603 8.905-10.98 10.754-22.802 7.66-48.98-.69-5.844-1.665-47.187-2.165-91.875-.5-44.687-1.353-82.2-1.895-83.361-.542-1.161-2.767-2.486-4.944-2.944-2.177-.458-10.99-2.716-19.583-5.018l-15.625-4.185-39.063-.371-39.064-.37.001 23.238c.001 26.175-.962 31.222-7.976 41.785-2.41 3.63-8.7 15.234-13.98 25.787-7.41 14.81-12.473 22.897-22.187 35.44-18.946 24.46-24.13 30.078-44.253 47.969-10.163 9.035-22.622 20.947-27.688 26.472-8.711 9.501-21.35 19.926-33.915 27.972-3.094 1.98-8.719 6.012-12.5 8.957-3.781 2.946-14.047 8.735-22.812 12.867-13.244 6.242-15.938 7.971-15.938 10.235 0 1.75-3.182 5.759-8.888 11.2-7.408 7.063-10.595 9.119-19.137 12.343-5.638 2.127-12.747 5.455-15.8 7.394-6.466 4.107-15.546 15.434-16.707 20.84-.974 4.534-13.366 21.602-17.791 24.505-6.842 4.489-15.49 5.028-72.302 4.51-55.195-.502-66.76-1.327-74.467-5.313-5.181-2.679-6.158-6.125-6.158-21.723 0-11.938.325-13.971 2.837-17.731 5.29-7.92 8.878-8.83 31.538-8.01 37.626 1.363 45.71.777 50.625-3.672 3.172-2.87 18.465-10.69 20.907-10.69 1.626 0 17.894-12.327 24.53-18.586 2.648-2.497 8.366-9.06 12.71-14.586 4.342-5.526 11.271-12.7 15.398-15.942 6.267-4.923 7.984-7.152 10.417-13.52 1.602-4.193 5.444-10.572 8.538-14.176 15.244-17.753 29.638-36.817 53.17-70.417 5.914-8.443 13.586-18.756 17.048-22.916 7.697-9.249 19.242-25 26.922-36.733 3.15-4.812 8.933-12.687 12.849-17.5 3.916-4.812 7.77-9.978 8.566-11.48.844-1.595 1.445-8.53 1.445-16.679 0-13.45-.244-14.714-6.837-35.394-8.925-28-10.443-34.094-12.033-48.322-1.471-13.17-2.83-16.096-12.695-27.336-7.337-8.36-9.762-12.861-15.51-28.794-2.38-6.597-7.015-17.057-10.3-23.245-3.284-6.187-7.309-14.625-8.944-18.75-1.635-4.125-5.607-12.281-8.827-18.125-3.22-5.844-7.112-14.844-8.648-20-7.36-24.695-8.77-27.68-17.422-36.875-4.527-4.812-10.99-12.406-14.363-16.875-3.372-4.469-8.84-11.044-12.15-14.613-3.312-3.568-6.021-7.018-6.021-7.667 0-1.543-10.307-16.642-16.785-24.588-9.046-11.096-29.839-32.51-39.465-40.643-5.156-4.357-13.312-11.746-18.125-16.421-4.812-4.675-13.25-11.824-18.75-15.887-10.068-7.438-18.528-14.471-34.067-28.322-4.638-4.134-12.636-10.04-17.774-13.125l-9.34-5.609h-28.16c-27.178 0-28.296.098-32.091 2.805-2.163 1.543-6.1 3.253-8.75 3.8-6.678 1.38-8.122 5.785-7.133 21.746 1.132 18.269.115 22.718-6.706 29.347-3.135 3.047-9.255 7.202-13.6 9.234-7.33 3.427-8.918 3.688-22.014 3.623-16.135-.081-19.791-1.104-28.782-8.055-13.886-10.734-19.655-17.207-25.066-28.125-4.776-9.635-5.816-10.884-11.163-13.405-4.293-2.025-6.587-4.136-8.437-7.763-4.668-9.149-2.905-12.582 6.458-12.582 3.3 0 6-.367 6-.816 0-.45-1.64-4.286-3.643-8.527-3.397-7.19-9.577-30.283-10.378-38.782l-.354-3.75-11.875-.672c-13.036-.739-18.22-2.692-22.28-8.394-5.609-7.877-12.474-22.728-13.308-28.787-.674-4.906-1.99-7.686-5.579-11.784C.902 153.48 0 151.262 0 142.458c0-6.396.595-8.686 3.254-12.522 3.76-5.425 18.272-16.39 27.37-20.678 3.438-1.62 8.501-4.161 11.251-5.647 11.67-6.304 37.211-18.49 38.756-18.49.923 0 3.366-1.42 5.43-3.157 2.063-1.737 5.622-3.794 7.908-4.572 5.53-1.883 15.55-10.309 19.274-16.208 3.88-6.145 7.379-8.346 16.741-10.53 4.202-.98 9.44-2.72 11.64-3.866 4.3-2.239 11.446-3.996 32.126-7.9 10.171-1.921 18.505-2.483 37.03-2.498 19.156-.015 24.992-.43 29.375-2.085 3.822-1.443 10.97-2.236 23.727-2.631l18.257-.567 6.277-6.43c3.452-3.537 9.81-10.228 14.128-14.868l10.291-4.78 10.335-3.658c9.613-3.403 13.11.405 14.438 2.005 2.057 2.479 3.38 11.692 4.43 30.84l.808 14.719 4.514 3.56c7.461 5.883 13.071 8.867 16.68 8.871 1.877.003 5.815 1.725 8.75 3.828 17.38 12.45 34.825 23.333 49.085 30.62 8.938 4.566 23.16 12.265 31.608 17.108 8.446 4.844 21.103 11.145 28.125 14.003 16.623 6.766 23.13 10.237 35.267 18.807 16.411 11.59 26.062 17.752 29.375 18.756 1.719.521 6.5 3.277 10.625 6.124 9.107 6.285 25.599 13.927 35.33 16.37 3.944.99 15.71 2.352 26.148 3.026 21.953 1.417 58.66 8.377 69.526 13.182 3.806 1.683 10.413 3.966 14.683 5.072 4.27 1.107 13.462 4.726 20.427 8.044 6.965 3.318 14.907 6.656 17.65 7.417 3.547.985 61.075 1.388 199.361 1.397 185.868.012 195.097.119 210.865 2.439 24.938 3.669 31.705 5.052 36.567 7.474 2.444 1.218 8.943 2.916 14.443 3.773 17.456 2.722 26.226 4.665 30.1 6.67 6.591 3.407 74.38 19.46 99.9 23.656 4.125.678 9.75 2.032 12.5 3.009 2.75.977 13.156 2.911 23.125 4.3 12.019 1.672 20.441 3.551 25 5.577 3.781 1.68 10.531 3.932 15 5.004 12.276 2.944 14.29 3.938 32.31 15.942 9.175 6.113 19.37 11.912 22.654 12.887 3.284.976 11.808 4.362 18.941 7.526 7.134 3.164 18.947 7.886 26.253 10.494 13.746 4.905 18.261 7.209 23.592 12.035 1.719 1.556 9.089 5.858 16.378 9.56 10.625 5.398 15.333 8.742 23.75 16.87 5.773 5.575 12.79 11.791 15.594 13.813 5.097 3.675 12.227 12.53 15.78 19.597 34.004 67.62 36.329 71.588 50.72 86.576 4.982 5.19 10.894 9.921 14.522 11.624 3.365 1.579 8.645 5.327 11.733 8.328 3.088 3 7.495 6.242 9.793 7.202 6.96 2.909 28.255 18.938 33.99 25.587 7.412 8.59 8.035 13.212 2.613 19.387l-4.14 4.716-13.804-.6c-11.07-.48-16.25-1.397-26.154-4.632-6.792-2.219-15.374-4.822-19.07-5.785-3.698-.963-9.953-3.367-13.901-5.342-3.948-1.976-9.429-4.31-12.179-5.187-10.254-3.272-24.246-11.372-40.813-23.627-9.385-6.942-17.38-12.622-17.766-12.622-.386 0-3.079 3.516-5.983 7.813-11.372 16.825-58.038 65.338-71.494 74.324-10.92 7.292-14.6 12.477-19.421 27.371-3.066 9.473-3.895 14.21-3.885 22.204.012 10.011.092 10.268 5.313 17.16 9.91 13.083 25.256 28.903 44.674 46.055 10.656 9.413 21.063 18.182 23.125 19.486 2.063 1.305 6.41 4.718 9.662 7.586 3.252 2.867 8.877 6.745 12.5 8.617 3.624 1.873 7.713 4.328 9.088 5.457 1.375 1.129 5.207 3.414 8.515 5.08 7.085 3.565 15.603 12.614 19.767 20.997 2.79 5.618 2.993 7.546 3.378 32.225.225 14.438.036 30.87-.421 36.518-.83 10.246-.849 10.292-8.78 20.625-9.103 11.862-16.202 28.362-18.062 41.981-.629 4.607-2.578 15.362-4.333 23.9-1.754 8.538-3.189 17.21-3.189 19.272 0 2.062-.627 7.352-1.394 11.755-1.112 6.385-2.367 9.13-6.2 13.558-2.643 3.054-5.726 7.491-6.85 9.86-4.793 10.1-22.588 14.25-65.767 15.336-24.868.626-25.999.549-30.196-2.045-3.172-1.96-7.203-2.888-14.79-3.403-20.142-1.366-21.897-3.229-23.398-24.835l-.78-11.228-3.452 3.728c-1.898 2.05-4.334 6.26-5.412 9.353-1.078 3.094-3.015 7.875-4.306 10.625-1.29 2.75-2.985 7.134-3.765 9.743-.781 2.608-3.28 7.178-5.552 10.156-2.273 2.977-4.843 6.75-5.71 8.382-3.693 6.947-14.431 17.554-22.298 22.026l-8.255 4.693-50-.379-50-.378-3.193-3.059c-2.712-2.597-4.41-3.06-11.25-3.064-5.846 0-9.18-.69-12.15-2.5-2.857-1.741-6.297-2.495-11.394-2.495-5.511 0-8.114-.64-10.62-2.61-6.077-4.781-7.018-8.334-7.018-26.509 0-22.65-1.773-21.3 29.19-22.204 26.128-.763 28.578-1.301 42.173-9.269 4.166-2.442 10.204-5.026 13.418-5.743 3.214-.717 7.25-2.243 8.969-3.392 1.719-1.149 7.906-4.554 13.75-7.568 5.844-3.013 11.513-6.26 12.598-7.217 1.086-.956 2.523-1.738 3.193-1.738.67 0 3.88-1.687 7.133-3.75 3.252-2.062 7.127-3.75 8.611-3.75 1.63 0 5.327-2.714 9.332-6.848l6.633-6.849v-8.99c0-6.783-.804-11.001-3.273-17.173-1.8-4.5-4.395-13.825-5.767-20.723-1.371-6.898-3.624-14.765-5.006-17.482-1.382-2.717-3.57-8.015-4.864-11.775-1.293-3.76-3.687-9.13-5.32-11.935-1.631-2.805-3.39-7.069-3.907-9.475-.516-2.406-3.181-9.156-5.92-15-2.74-5.844-6.327-13.657-7.971-17.363-1.644-3.706-4.924-9.431-7.29-12.723-5.503-7.661-9.222-15.046-16.083-31.94-3.037-7.479-7.944-18.943-10.904-25.474-5.283-11.658-5.383-12.131-5.476-25.9-.084-12.565-.37-14.303-2.751-16.685-1.462-1.463-3.993-2.688-5.625-2.722-4.874-.102-18.845 4.069-24.44 7.296-2.873 1.656-6.426 3.011-7.895 3.011-1.47 0-3.804.606-5.187 1.346-9.987 5.345-7.77 5.268-164.196 5.72-81.813.237-150.581.739-152.82 1.115-4.925.829-7.057 5.072-8.136 16.194-.4 4.125-1.997 10.875-3.547 15-2.725 7.248-2.85 9.453-3.684 65.625-.877 58.971-1.525 67.449-5.926 77.5-1.678 3.83-2.697 9.765-3.196 18.605-.636 11.28-1.302 14.226-5.083 22.5-6.42 14.045-10.829 25.2-11.912 30.145-1.511 6.895-5.224 13.92-10.446 19.763-2.649 2.964-5.588 7.236-6.531 9.495-.944 2.258-4.13 7.146-7.08 10.862-8.486 10.69-11.084 17.443-12.393 32.21-.69 7.785-1.955 14.32-3.168 16.374-2.835 4.8-12.537 10.807-19.203 11.892-3.094.503-8.696 1.7-12.45 2.66-3.754.96-11.529 1.744-17.278 1.744-8.754 0-11.3.488-15.674 3.004-8.212 4.723-33.598 7.423-38.973 4.146zm736.838-107.74c2.573-2.328 17.912-11.212 24.103-13.96 3.822-1.695 4.937-3.03 6.021-7.202l2.576-9.923c.684-2.64 3.497-7.244 6.249-10.23 4.194-4.55 5.178-6.657 6.076-13.005.623-4.41 2.155-8.955 3.666-10.876 4.549-5.783 3.467-24.366-2.656-45.633-1.803-6.262-8.628-12.736-21.97-20.842-6.06-3.68-28.173-13.65-35.064-15.808l-2.912-.911.412 30.56.411 30.561 6.535 9.711c3.595 5.342 6.882 11.557 7.305 13.812 1.295 6.903-.17 18.279-3.501 27.201-3.478 9.315-6.172 13.004-11.043 15.12-3.472 1.508-17.375 15.885-19.78 20.454l-1.479 2.812h16.508c12.785 0 16.967-.415 18.543-1.841zM107.943 261.992c2.537-1.06 5.324-3.48 6.395-5.55 1.044-2.018 2.953-4.408 4.243-5.312 1.297-.908 2.738-3.966 3.223-6.84.981-5.807 3.54-8.732 8.196-9.367 2.545-.348 3.201-1.225 3.534-4.728.226-2.366 1.495-5.68 2.822-7.367 2.383-3.03 2.383-3.113-.024-6.95-3.371-5.374-12.385-8.777-18.644-7.038-2.51.697-9.485 1.27-15.5 1.274l-10.938.007.021 13.438c.027 16.538 2.89 29.078 8.145 35.663 2.04 2.557 3.781 4.65 3.869 4.65.088 0 2.184-.847 4.658-1.88z"/></svg>