<svg xmlns="http://www.w3.org/2000/svg" xmlns:dc="http://dublincore.org/documents/dcmi-terms/" height="1092.9" version="1.2" viewBox="0 0 1517.548 1092.9" width="1517.548" overflow="inherit"><metadata><dc:description>Silhouette of Macropus + Sthenurus, processed by PhyloPic Tools (https://github.com/eweitz/phylopic-tools)</dc:description><dc:source>http://phylopic.org/image/abd569c8-126c-4211-9304-5bb58be0666c</dc:source><dc:creator>T. Michael Keesey (photo by Sean Mack)</dc:creator><dc:license>http://creativecommons.org/licenses/by-sa/3.0/</dc:license></metadata><path d="M652.275 66.75c.166 2.934.517 8.35 1.05 16.25l.1 1.6c.334-.233.667-.45 1-.65.233-4.2.767-7.634 1.601-10.3-.5-2.2-.75-3.867-.75-5 0-.7.316-1.45.949-2.25.634-.833 1.4-1.5 2.301-2 .333 0 .666.05 1 .15.666.2 1 .817 1 1.85 0 2.167.399 4.95 1.199 8.35h.551v2.2c.066.2.116.417.149.65.2-1.6.434-3.284.7-5.05.967-5.466 1.684-9.6 2.15-12.4h.75c.066.534.383 2.65.949 6.35 0-.133.017-.233.051-.3.566-1.934 1.933-2.367 4.1-1.3-.967 2.5-1.316 5.784-1.05 9.85l.05-.05c.033-2.467.1-4.134.2-5 .333-3.867 1.267-6.967 2.8-9.3.366 0 .783.067 1.25.2.6.2 1.017.466 1.25.8v10.25l.9-.5.1-1.05c.233-3.333.767-6.2 1.6-8.6.067-.9.117-1.684.15-2.35h.75v.1c.3-.667.634-1.283 1-1.85h1.75l.1.25c.101.367.15 1.067.15 2.1 0 .1-.283 3.066-.85 8.9 3.601-12.929 5.918-14.096 6.949-3.5.4-2.267.784-4.683 1.15-7.25h1c0 .733.083 1.883.25 3.45a4 4 0 0 1 .05.65l.7.15v1.5a64.53 64.53 0 0 1 2.65-1.25c.8-2.233 1.416-3.983 1.85-5.25l-.5-3.15c.5.167.967.6 1.4 1.3.566.867.85 1.85.85 2.95 0 .467-.167 1.283-.5 2.45.233-.333.45-.65.65-.95 1.533-5.633 2.399-8.883 2.6-9.75h.75c.066.434.184.983.35 1.65.101.633.15 1.434.15 2.4.134-.2.25-.4.35-.6.101-1.634.15-3.233.15-4.8 0-.966-.134-1.633-.4-2-.233-.333-.35-.55-.35-.65 1.5.667 2.384 2.333 2.65 5h.1l.1.15c.101.3.15.967.15 2 0 .167-.1.517-.3 1.05 0 1-.066 2.066-.2 3.2v.6l.3-.1c.434-.933.884-1.9 1.351-2.9 1.066-6.133 2.017-11.133 2.85-15h.75v6c-.333 1.533-.684 3.2-1.05 5h.05c-.033.1-.066.184-.1.25-.134.6-.267 1.233-.4 1.9 1.033-3.4 1.866-6.216 2.5-8.45v-6.45l2.25-1.5h1c.182 6.023.965 11.081 2.35 15.175.088-.267.304-.525.65-.775.1-5.267.4-9.566.9-12.9.899-6.1 1.6-13.85 2.1-23.25h.75c0 1 .083 3.383.25 7.15 0 4.067-.283 12.034-.85 23.9-.101 2.1-.184 4.1-.25 6a81.34 81.34 0 0 1 2.149-.75c.733-3.733 1.834-8.25 3.3-13.55.101-.333.184-.667.25-1l.4-9.75h.75c.033 1.767.066 3.483.1 5.15 2.034-7.533 3.084-12.25 3.15-14.15h.75l.1 1.15c.101.967.15 1.967.15 3 0 5.434-1.1 13.284-3.3 23.55a84.293 84.293 0 0 1-.45 2.1c.033.634.05 1.233.05 1.8l1.3-.4a44.86 44.86 0 0 1 3.4-8.45c.134 0 .366.066.7.2.233-2.333.517-4.8.85-7.4 1.101-8.366 2.25-14.216 3.45-17.55l.75.25c-1.1 5.033-1.917 11.083-2.45 18.15.267 3.267.417 7.517.45 12.75 1.652-.462 3.319-1.879 5-4.25.051-6.916.334-11.649.85-14.2.5-2.4 2.634-8.967 6.4-19.7h.75l.1-.1c.101.133.15.717.15 1.75-3.667 14.733-5.5 22.733-5.5 24 0 .667.017 1.517.05 2.55 1.033-1.2 2.517-2.434 4.45-3.7 0 .167.083.25.25.25l.1-.1c.101.133.15.717.15 1.75 0 3.7-.017 6.6-.05 8.7h.1c.634-4.367 1.45-9.15 2.45-14.35h1l.35 6c3.601-8.967 5.4-14.75 5.4-17.35 0-1.033-.267-1.633-.8-1.8-.3-.067-.7-.1-1.2-.1.1-.2.55-.383 1.35-.55l1.15-.2c.5.767.75 2.4.75 4.9 0 1.7-1.434 6.7-4.3 15a125.72 125.72 0 0 1-2.3 6.2c-.034.367-.084.85-.15 1.45 1.533-.333 3.384-2.533 5.55-6.6.9-1.733 2.634-4.634 5.2-8.7h.75a198.5 198.5 0 0 0-.65 2.1c1.334-1.967 3.217-2.75 5.65-2.35-.5 1.533-1.083 5.8-1.75 12.8l1.6-.3a45.02 45.02 0 0 1 1.5-2.35c.101-.466.15-.8.15-1 0-.9-.05-1.716-.15-2.45-.066-.7-.1-1.267-.1-1.7.533.4 1.017 1.083 1.45 2.05a371.646 371.646 0 0 1 2.95-9.75c.033-3.167.066-5.133.1-5.9.333-5.3 1.217-8.683 2.65-10.15l.75.25c-.967 5.667-1.217 12.083-.75 19.25 4.166-5.1 6.666-7.267 7.5-6.5-.067.133-2.367 4.45-6.9 12.95.134 1.066.283 2.233.45 3.5 2.666-5.067 5.816-8.05 9.45-8.95-1.2 2.1-2.767 4.967-4.7 8.6.399-.067.767-.117 1.1-.15.167-.3.316-.583.45-.85 1.267-2.5 4.15-7.867 8.65-16.1l.75.25c-.733 1.333-2.5 5.35-5.301 12.05 1.967-1.566 4.15-2 6.551-1.3-1.467.667-3.067 2.367-4.801 5.1.467-.034.917-.083 1.351-.15 2.733-2.934 5.633-4.5 8.7-4.7-1.034.833-2.284 2.217-3.75 4.15 1-.1 1.983-.2 2.949-.3l.551-1.1c1.933-3.7 4.267-6.45 7-8.25l1 .25c-.733 1.133-1.784 3.066-3.15 5.8 2.033-2.966 4.467-4.966 7.3-6 .4-1.066.684-2.083.851-3.05h1c0 .2.033.5.1.9.1.367.15 1.034.15 2 0 .934-1.45 3.75-4.351 8.45.4-.067.783-.1 1.15-.1 1.366-2.6 2.583-4.767 3.649-6.5 1.733-3.9 2.834-7.4 3.301-10.5h.75c0 .1.033.45.1 1.05.1.6.15 1.384.15 2.35 0 .2-.167.733-.5 1.6 2-2.6 4.166-4.934 6.5-7l.75.25c-1.101 1.667-3.667 5.783-7.7 12.35a262.315 262.315 0 0 1-3.9 6.15.843.843 0 0 1 .25-.05c2.601-3.5 5.467-5.317 8.601-5.45-1.467 1.2-2.983 2.917-4.551 5.15 6.461-6.248 8.777-6.397 6.95-.45.101-.233.2-.45.3-.65 2.7-5.533 5.967-8.8 9.801-9.8.033-.233.066-.35.1-.35.1-.033.15.467.15 1.5 0 .434-.567 1.95-1.7 4.55 1.899-2.333 4.25-4.4 7.05-6.2h.75c-3.533 2.733-6.267 6.217-8.2 10.45 6.566-6.634 10.45-11.05 11.65-13.25 4.8-8.867 9.649-15.6 14.55-20.2-2.667 3.8-6.566 11.184-11.7 22.15a66.516 66.516 0 0 1-1.05 2.2c0 .1-.033.216-.1.35a40.754 40.754 0 0 1 4.1-4.2c.033-.267.066-.434.1-.5.101-.1.15.367.15 1.4 0 .967-1.434 4.8-4.3 11.5.833-.033 1.649-.066 2.45-.1.1-.1.183-.2.25-.3 4.533-6.233 7.116-9.816 7.75-10.75 6.066-8.767 9.267-16.017 9.6-21.75 1.5.9 2.25 2.117 2.25 3.65 0 2.4-1.417 6.1-4.25 11.1 2.4-1.333 4.65-1.417 6.75-.25-1.767 1-5.2 5.15-10.3 12.45-1.434 2.066-2.384 3.2-2.851 3.4.367 1.466 1.134 2.2 2.301 2.2 2.566-3.866 3.85-6.55 3.85-8.05 0-.533-.033-.934-.1-1.2.333.233.649.55.949.95.601.8.9 1.767.9 2.9 0 .067-.316.95-.95 2.65l.601-.8c5.033-7.033 8.649-12.367 10.85-16h.75v1.15c0 .567-.884 2.467-2.65 5.7 2.9-3.567 5.117-6.35 6.65-8.35h1.25c.066.267.134.367.2.3.033.034.05.567.05 1.6-5.066 7.4-9.384 13.55-12.95 18.45a97.323 97.323 0 0 1 4.9-4.45c9.533-7.5 16.217-13.133 20.05-16.9-.667-.5-1.083-1-1.25-1.5.167 0 .533.117 1.1.35.667.267 1.217.566 1.65.9-3.7 5.033-9.283 11.066-16.75 18.1-1.5 1.4-3.05 2.816-4.65 4.25 9.567-5.133 15.117-9.333 16.65-12.6h.75c0 .1.033.25.1.45.101.233.15.833.15 1.8 0 .667-3.066 4.233-9.2 10.7.267.033.533.05.8.05 2.233-2.8 4.967-5.867 8.2-9.2 6.334-6.5 12.9-12.433 19.7-17.8.033-.233.066-.35.1-.35.101-.033.15.467.15 1.5 0 .233-1.167 2.35-3.5 6.35a208.915 208.915 0 0 1-7.45 12.15c4.134-3.3 6.2-5.85 6.2-7.65h.75c0 .3.033.667.1 1.1.101.433.15 1.117.15 2.05 0 .767-3.333 4.45-10 11.05l-.55.55c3.934-3.667 7.116-6.583 9.55-8.75h.75l.5 2.1c1.7-1.367 3.616-2.9 5.75-4.6l.25.75c-2.033 3.867-4.983 8.117-8.85 12.75.399.033.8.083 1.199.15 4.967-4.1 10.317-7.017 16.051-8.75 4.1-2.667 8.55-4.966 13.35-6.9l.25.75a318.7 318.7 0 0 1-5.6 6.4c1.866-1.4 3.566-2.367 5.1-2.9-1.267 4.8-3.217 9.767-5.85 14.9.366.067.699.133 1 .2l.1-.1c5.833-6.267 10.384-10.017 13.65-11.25-2.301 3.934-4.934 8.066-7.9 12.4 1.1.2 2.217.417 3.35.65 1.601-1.5 3.301-3.083 5.101-4.75a797.71 797.71 0 0 0 8.75-7.8c1.633-1.867 2.45-2.867 2.45-3 0-1.033.133-1.633.399-1.8a2.974 2.974 0 0 0 1.351-.45c.5 0 .833.167 1 .5-.034.033-.051.083-.051.15a341.228 341.228 0 0 0 4.801-4.4l.25.75a923.58 923.58 0 0 1-7.351 8.6c-2.133 4.1-5 8.6-8.6 13.5-.066.1-.15.2-.25.3.566.1 1.133.217 1.7.35 4.6-3.767 9.466-5.833 14.6-6.2 6.8-5.333 12.6-8.267 17.4-8.8a76.292 76.292 0 0 1-2.95 3.6c2.6-1.833 4.416-3.117 5.45-3.85l.5.75c-1.934 4.167-5.584 8.85-10.95 14.05 1.434-.433 2.75-.7 3.95-.8a75.42 75.42 0 0 1-3.25 3.25c8.333-6.167 12.5-9.917 12.5-11.25 0-.967-.134-1.566-.4-1.8-.233-.2-.35-.35-.35-.45.466 0 .899.25 1.3.75.467.633.7 1.517.7 2.65 0 .2-1.017 1.583-3.051 4.15a98.978 98.978 0 0 1-4.1 4.9c6.2-5.067 11.583-8.717 16.15-10.95.1.2.166.467.199.8.034.167.051.317.051.45-2.334 2.133-5.334 5.267-9 9.4 1.699-1.066 3.166-1.917 4.399-2.55 3.101-1.567 5.7-2.034 7.8-1.4 2.134-1.2 4.067-2.1 5.801-2.7l.25.75c-1.5 1.667-3.65 3.833-6.45 6.5 1.566-.733 2.8-1.066 3.7-1-1.634 2.9-4.051 5.934-7.25 9.1 1.699-.967 3.316-1.767 4.85-2.4.9-.7 1.833-1.434 2.8-2.2a178.986 178.986 0 0 1 5.05-3.75c2.034-1.7 3.084-2.617 3.15-2.75.134-.1.25-.15.35-.15.134 0 .233.117.301.35 3.633-2.367 7-4.267 10.1-5.7a696.08 696.08 0 0 1-11.3 9.65c-.566.767-1.334 1.684-2.3 2.75.633 0 1.25.034 1.85.1 4-2.3 7.333-3.633 10-4-3.2 3.8-8.1 8.3-14.7 13.5l-.1.3c.133.034.25.067.35.1 2.2-.633 4.351-1.75 6.45-3.35 1.967-1.533 3.267-2.3 3.9-2.3.699 0 1.216.066 1.55.2 7.934-5.434 12.95-9.417 15.05-11.95l-2-.75c.1-.2.55-.383 1.35-.55l1.15-.2V39c.134 0 .283-.2.45-.6.033-.1.05.317.05 1.25 0 3.1-5.1 8.3-15.3 15.6-.066 1.633-.217 2.8-.45 3.5.8 0 2.316-.583 4.55-1.75 1.033-.533 1.967-.934 2.8-1.2 2.167-1.966 3.967-3.816 5.4-5.55l-3-.75c.1-.2.717-.383 1.85-.55l1.65-.2c.1.1.25.066.45-.1.033-.066.05.383.05 1.35 0 .233-1.167 1.7-3.5 4.4l-.8.9c.3-.033.566-.05.8-.05 1.066 0 1.816.15 2.25.45.066.066.316.417.75 1.05.033.367 0 .767-.1 1.2 4.066-3.367 6.1-5.1 6.1-5.2 0-1.033.333-1.517 1-1.45l1 .45c0 .066.083.167.25.3.167.1.25.25.25.45a4245.513 4245.513 0 0 0-9.45 7.85c-.133.3-.283.617-.45.95-.533 1-1.149 2.15-1.85 3.45h.05c.334-.1 1.967-.867 4.9-2.3.566-.267 1.1-.517 1.6-.75 6.7-4.167 11.601-7.233 14.7-9.2 5.634-3.533 9.634-6.367 12-8.5 1.3.467 2.467 1.383 3.5 2.75-1.267.9-8.9 5.95-22.9 15.15.434.267.884.567 1.351.9 2.2 1.567 3.55 2.634 4.05 3.2-.267.4-.833 1.167-1.7 2.3-.666.833-1.149 1.5-1.45 2 .167.034.334.083.5.15a75.236 75.236 0 0 1 2.4-.15c.467-.4.934-.783 1.4-1.15 5.699-4.633 10.233-7.133 13.6-7.5 0 .833-.083 1.5-.25 2-2.033.767-5.35 2.967-9.95 6.6 2.733.233 4.884.983 6.45 2.25-.066.066-.134.15-.2.25a58.716 58.716 0 0 1 8.45-4.6c.3 0 .6.05.9.15l.35.1c-3.233 1.534-6.65 3.8-10.25 6.8.267.1.517.2.75.3 1.233.133 2.566.316 4 .55 1.833.3 3.55.65 5.15 1.05 3.399-2.767 6.017-4.833 7.85-6.2 0 .067.083.167.25.3.167.1.25.25.25.45-1.6 1.034-3.884 2.983-6.85 5.85 2.433.633 4.55 1.383 6.35 2.25 0 .8-.3 1.517-.9 2.15.034 0 .067.017.101.05 3.5-.9 6.1-1.15 7.8-.75 1.134.267 2.25 1.033 3.35 2.3 1.301 1.5 2.517 2.533 3.65 3.1.7.333 1.5.633 2.4.9l.6-.4c6.767-4.5 11.017-7.534 12.75-9.1l.75.25c-2.1 2.967-5.7 6.233-10.8 9.8 1.033.1 2.133.167 3.3.2l-.25 1.15c-.467.467-1.517.967-3.15 1.5l1 .5c1.467-.466 3.551-1.05 6.25-1.75 3.4-.833 5.617-1.25 6.65-1.25.333 0 1.167.75 2.5 2.25s2 2.45 2 2.85c0 .5.55 1.017 1.65 1.55.733-.433 1.449-.866 2.149-1.3 8.233-5.6 13.601-9.017 16.101-10.25.1.2.166.467.199.8.034.167.051.317.051.45a140.014 140.014 0 0 1-14.351 10.75c-.333.233-.666.45-1 .65 2.4.667 5.184 1 8.351 1-.233 1.233-.801 2.4-1.7 3.5-.8 1.034-1.566 1.617-2.3 1.75 1.1 0 2.149.034 3.149.1a357.373 357.373 0 0 1 21.601-7.85c.1.2.166.467.199.8.034.167.051.316.051.45-4.167 3.733-10.067 7.25-17.7 10.55.899.033 1.916.1 3.05.2 1.7.167 2.583.25 2.65.25v2.25c-.5.5-1.167.917-2 1.25 1.366 0 2.767.034 4.199.1.434-.167.867-.35 1.301-.55 13-5.8 19.5-9.65 19.5-11.55-1.267-.767-2.017-1.35-2.25-1.75-.4-.7 2.017-.45 7.25.75-.301.233-1.983 1.567-5.051 4-3.633 2.8-7.149 5.3-10.55 7.5-1.6 1.034-3.149 2-4.649 2.9v.7c0 1.033-.084 1.533-.25 1.5-.101 0-.184-.117-.25-.35-.5.2-1.634.5-3.4.9.533.3 1.05.617 1.55.95l9.851.15c11.166-4.133 16.75-7.383 16.75-9.75 0-1.033.533-1.55 1.6-1.55 1.267.2 2.066.3 2.4.3-2.2 2.6-8.233 6.534-18.101 11.8l-.2.1c.5.267 1.067.6 1.7 1 2.233 1.4 3.351 2.384 3.351 2.95 0 1.033-.084 1.533-.25 1.5-.101 0-.184-.117-.25-.35-.733.3-2.817.534-6.25.7a.555.555 0 0 1 .149.1l5.3.15c.367-.1.733-.217 1.101-.35 11.166-3.733 19.149-6.184 23.95-7.35l.25.5c-3.034 2.233-9.917 5.217-20.65 8.95.434.3.884.667 1.35 1.1 2.101 1.933 3.7 3.167 4.801 3.7 4.267.034 7.183.3 8.75.8.267-.067.533-.117.8-.15 17.033-2.7 27.133-2.5 30.3.6a8581.24 8581.24 0 0 0-30.25 3.35 6.88 6.88 0 0 1-.85.4l-3.9.1c-1.333.167-2.634.316-3.9.45.767.566 1.517 1.15 2.25 1.75 3.7 1.1 6.5 2.05 8.4 2.85 2.233.934 3.533 1.8 3.9 2.6-.434.6-1.5 1.267-3.2 2 .1.067.184.133.25.2 2.233-.133 3.899-.017 5 .35.8.466 1.45.7 1.95.7.533-.267 1.199-.4 2-.4.666 0 1.366.15 2.1.45a32.927 32.927 0 0 1 1.95-.45c16.166-2.934 26.1-4.967 29.8-6.1-.333-.333-.55-.683-.65-1.05-.066-.3-.017-.45.15-.45.333.1.684.417 1.05.95.334.433.566.867.7 1.3-6.833 3.434-18.866 7.383-36.1 11.85a90.137 90.137 0 0 1 4.05 3.9c3.366 1.034 5.05 1.817 5.05 2.35 0 .533-.033.95-.1 1.25 3.733-2.8 8.816-6.167 15.25-10.1 9.633-5.767 17.333-10.433 23.1-14l.25.75c-2.667 3.733-7.934 8.383-15.8 13.95a3177.039 3177.039 0 0 0-16.15 11.6c.867.233 1.617.466 2.25.7 2.267.9 3.584 1.983 3.95 3.25-.866.534-1.934.883-3.2 1.05-.566.066-.916.633-1.05 1.7 4.967 1.5 7.616 2.35 7.95 2.55.366.167.55.8.55 1.9 3.233-.067 6.684-.05 10.35.05 7.634.267 11.934.85 12.9 1.75l-2.25 1.5-5.2.25c-3.666.167-6.017.25-7.05.25-.566 0-1.533-.066-2.9-.2.467.3.884.633 1.25 1 .967.966 2.267 2.616 3.9 4.95 0 1.267-.833 2.517-2.5 3.75 1.134-.1 2.316-.183 3.55-.25 6.066-.4 11.884-.65 17.45-.75h-.5c0-.566.2-.85.6-.85.334 0 .717.2 1.15.6-.066.233-.267.6-.6 1.1-.267.434-.4.733-.4.9-5.233.067-10.6.217-16.1.45 7.6.633 16.3 1.45 26.1 2.45 11.4 1.167 17.483 1.9 18.25 2.2-.167.5-1.083.917-2.75 1.25-.366-.033-2.866-.233-7.5-.6v1.85c-1.267.2-3.167.467-5.7.8-.2.333-.3.567-.3.7l-9 .3c-4.6.467-7.434.7-8.5.7-1.366 0-2.9-.033-4.6-.1 1 .733 2.149 1.55 3.449 2.45l25.15.15c2.267 0 3.833.15 4.7.45.434.333.7.517.8.55l-5.5.5h-22.5c.8.5 1.634 1 2.5 1.5 2.3 1.367 4.267 2.8 5.9 4.3 4.433.233 9.466.467 15.1.7.4-.1.667-.333.8-.7.033-.433.101-.783.2-1.05.667.5 1.167 1 1.5 1.5l-2 1.5-13.6.35c-.434.466-.65.85-.65 1.15l-6.25.25 1.75.5c1.1.133 2.184.316 3.25.55 5 .3 9.884.45 14.65.45.833 0 2.033-.133 3.6-.4 1.833-.3 3.417-.5 4.75-.6-.667-.434-1.066-.75-1.2-.95-.233-.333.5-.433 2.2-.3.2.1.35.283.45.55.066.167.166.483.3.95-.667.167-2.167.767-4.5 1.8-2.767.733-6.9 1.184-12.4 1.35.967.5 1.917 1.05 2.851 1.65 3.666 2.367 5.733 4.5 6.2 6.4 1 .033 2 .05 3 .05.833 0 3.883-.333 9.149-1 5.3-.667 8.367-1 9.2-1 1.033 0 1.767.083 2.2.25l.3.25c-1.533.7-4.467 1.6-8.8 2.7-5.233 1.366-9.217 2.05-11.95 2.05h-.6c.466.633 1 1.383 1.6 2.25l-1.75 1.5c.634.4 1.616.816 2.95 1.25 1.033.533 1.55 1.417 1.55 2.65 0 1.067-.2 1.85-.6 2.35-.233.267-.617.6-1.15 1 .033.033.667.217 1.9.55.899.233 1.35.85 1.35 1.85 0 1.034-.083 1.534-.25 1.5-.1-.033-.184-.167-.25-.4-.733.033-1.566.1-2.5.2 3.667.7 7.05 1.05 10.15 1.05 2.933-.367 5.149-.617 6.649-.75 2.601-.233 4.967.267 7.101 1.5-1.301.4-4.467.967-9.5 1.7-4.7.7-7.417 1.05-8.15 1.05-1.333 0-2.8-.1-4.4-.3 13.452 2.007 14.386 3.407 2.801 4.2 1.3.733 2.533 1.467 3.699 2.2a468.49 468.49 0 0 0 14.551 3.15c-3.267.167-6.4.217-9.4.15 3.634 2.367 6.55 4.517 8.75 6.45l8.65.05c4.166.267 6.5.767 7 1.5-.233.333-3.15.684-8.75 1.05-4.867.3-8.284.45-10.25.45-2.267 0-4.45-.05-6.551-.15.034.066.051.15.051.25 1.733.5 3.399.934 5 1.3 1.533-.167 4.033-.466 7.5-.9 5.166-.667 8.166-1 9-1 1.033 0 1.517.25 1.449.75a1.611 1.611 0 0 1-.449.75l-.5.75c-.9.2-2.634.684-5.2 1.45-.533.167-1.134.35-1.8.55a.383.383 0 0 0-.15.05c-3.9.966-7.684 1.45-11.35 1.45-2.067 0-4.2-.15-6.4-.45.833.833 1.7 1.917 2.6 3.25.467.4.917.783 1.351 1.15.566.466 1.1.917 1.6 1.35 6.5.8 13.7 1.45 21.601 1.95-.301.2-.9.267-1.801.2-.8-.034-1.199-.017-1.199.05-6.233.034-11.7-.033-16.4-.2 2.8 2.633 4.333 4.533 4.6 5.7h13.301a848.253 848.253 0 0 1 9.949-3.05c5.667-1.7 9.101-2.35 10.301-1.95-3.467 1.4-7.334 2.833-11.601 4.3-4.8 1.667-8.1 2.65-9.899 2.95h-12.351c0 .034-.017.067-.05.1l-.3.45c6.866.733 15.934 1.216 27.2 1.45-.334.5-.834.917-1.5 1.25-3.2-.1-7.384 0-12.551.3l-4.649.25c17.566 6 29.467 9.566 35.7 10.7 0 .667-1.5 1-4.5 1-4.7 0-13.867-2.466-27.5-7.4 0 .967-.25 1.367-.75 1.2-.267-.067-.517-.25-.75-.55a12.84 12.84 0 0 0-1.15-.05c9.134 3.8 16.1 6.15 20.9 7.05-.233.667-1.817 1-4.75 1-3 0-8.767-1.883-17.301-5.65l-.199 1.4c-.567-.433-3.483-1.683-8.75-3.75-.434.233-.967.4-1.601.5.367.833.733 1.667 1.101 2.5 4.133 1.133 8.05 2.217 11.75 3.25-.334.5-1 .833-2 1a376.436 376.436 0 0 1-7.9-1.55c.167.1.316.216.45.35.1 0 .184.017.25.05 7.467 2.566 13.633 5.667 18.5 9.3 2.6.167 5.333.284 8.2.35 0 .333-1.934.717-5.801 1.15-.133 0-.283.017-.449.05l.5.4-.25 1.15a32.5 32.5 0 0 0-2.101-1.35c-2.066.2-3.717.317-4.95.35 7.067 1.733 16.75 4.4 29.051 8-10.367-1.167-18.667-2.216-24.9-3.15 13.2 2.767 26.95 4.15 41.25 4.15 2.267 0 3.517.333 3.75 1l-3.55.25c-2.601.167-4.417.25-5.45.25-8.033 0-16.833-.917-26.4-2.75-1.033.2-3.433.417-7.199.65.533.2 1.033.4 1.5.6l-1.5.25c-.2-.233-.801-.483-1.801-.75-.233.034-.483.05-.75.05-2.767.133-5.133.25-7.1.35.434.467.884.967 1.35 1.5 2.567.967 5.217 2.233 7.95 3.8 2.566 1.466 6.066 3.733 10.5 6.8 4.3 3 7.334 5 9.101 6-.334.5-1.084.95-2.25 1.35a712.132 712.132 0 0 0-6.9-3.15c-.233.3-.483.5-.75.6-.4.133-1.184.2-2.35.2-.467 0-2.117-.466-4.95-1.4.967 1.833 1.45 3.3 1.45 4.4 0 .333-.051.75-.15 1.25.5.333.983.7 1.45 1.1 21 4.633 33.267 7.883 36.8 9.75a6380.672 6380.672 0 0 1-31.8-6.5c4.467 2.167 7.7 3.25 9.7 3.25.866 0 1.466-.1 1.8-.3.066-.034.217.066.45.3l-.75.75-.051.4c-.267.233-.916.35-1.949.35-2.134 0-6.051-1.533-11.75-4.6a54.885 54.885 0 0 1-2.45-1.2c-.733-.167-1.417-.317-2.05-.45 0 .066-.017.15-.051.25-.066.233-.116.45-.149.65 2.366 2.467 5.05 5.3 8.05 8.5 13.467 3.767 25.467 8.133 36 13.1-.167.5-.5 1-1 1.5-10.2-4.533-20.316-8.367-30.35-11.5 2.933 1.733 5.35 3.233 7.25 4.5-3.101-1.5-6.034-2.917-8.801-4.25 1.834 1.967 3.767 4.05 5.801 6.25h-.75c-2.334-2.233-5.317-4.95-8.95-8.15a51.908 51.908 0 0 0-2.7-.75c.934 1.267 1.4 2.283 1.4 3.05 0 1.034-.084 1.483-.25 1.35-.101-.066-.184-.233-.25-.5-.867-.934-2.817-2.684-5.851-5.25-1.3-.333-2.684-.667-4.149-1 1.133 1.934 2.1 3.6 2.899 5l2 1.5c3.267 2.533 7.917 6.233 13.95 11.1 5.233 4.1 9.816 7.316 13.75 9.65h-2.75c-9.733-5.767-17.7-10.566-23.9-14.4.5.767 1.017 1.566 1.551 2.4.199.333.399.65.6.95 7.3 5.167 14.267 9.65 20.9 13.45a75.549 75.549 0 0 0 3.85 1.5l-.15.6c.801.434 1.601.85 2.4 1.25-.267.4-1 .767-2.2 1.1 5.134 1.767 9.101 3.367 11.9 4.8 4.6 2.367 8.2 5.15 10.8 8.35h-.75c-2.066-1.533-7.283-4.133-15.65-7.8-11.133-4.934-19.316-8.733-24.55-11.4a16.83 16.83 0 0 0-1.1-.55c4.066 2.934 9.083 6.517 15.05 10.75l-2.6.5-3.301-1.9c-.233.466-1.133.85-2.699 1.15-1.601-.9-3.801-2.333-6.601-4.3.267.366.533.75.8 1.15 3.767 3.367 7.367 6.417 10.801 9.15-.267.4-1.067.65-2.4.75 1.4 1.3 2.783 2.633 4.15 4-.167.5-.75.833-1.75 1a117.39 117.39 0 0 1-4.101-3.25c-.066.267-.184.417-.35.45-.2.066-.717.083-1.55.05-.334-.2-.851-.6-1.551-1.2a80.728 80.728 0 0 1-2.949-1.5v.35c.8.8 1.733 1.717 2.8 2.75 3.166 3.133 4.816 4.95 4.95 5.45 1.666 1.566 3.25 3 4.75 4.3l-.5.75c-.334-.2-.65-.4-.95-.6 6.6 5.733 11.283 10.434 14.05 14.1-2.7-2.033-5.3-3.983-7.8-5.85 3.233 3.1 5.5 5.717 6.8 7.85l-2.5.25-.5-.25c-.1-2.433-1.533-5.183-4.3-8.25-5.834-4.433-11.017-8.367-15.55-11.8 2.466 2.5 4.716 4.85 6.75 7.05l-1.301.45c3.367 4.4 5.051 6.867 5.051 7.4 0 1.033-.084 1.566-.25 1.6-.101 0-.267.017-.5.05 1.966 2.133 3.683 4.117 5.149 5.95 9.834 8.033 17.15 13.883 21.95 17.55l-2.5.25c-2.4-2.233-7.733-6.6-16-13.1.167.233.333.483.5.75 3.566 3.567 5.4 5.35 5.5 5.35 1.033 0 1.634.083 1.8.25.101.1.084.184-.05.25l-1.25 1.5c-1.366-1.066-2.7-2.1-4-3.1.167.534.25 1.017.25 1.45 0 .5-.017.883-.05 1.15a451.2 451.2 0 0 0 3.8 3.25l-.8.25c7.033 3.133 12.967 5.383 17.8 6.75h-4a272.437 272.437 0 0 1-24.2-9.6c1.667 2.534 3.483 5.317 5.45 8.35l-.75.5c-.033 0-.066-.017-.1-.05.3.433.583.867.85 1.3-.066.233-.233.434-.5.6 4 3.566 6.75 6.367 8.25 8.4l-.5.5c-1.5-1.7-5.217-4.883-11.15-9.55-.066.133-.133.25-.199.35a1.55 1.55 0 0 0-.2.25c11.366 8.566 17.05 13.8 17.05 15.7 0 1-.1 1.6-.3 1.8-.134.1-.367.25-.7.45l-1-.25c-.833-2.9-3.517-6.417-8.05-10.55-.033.7-.267.983-.7.85-.267-.067-.517-.25-.75-.55-.3-.167-.583-.316-.85-.45 2.8 3.833 4.583 7.15 5.35 9.95a836.53 836.53 0 0 1-9.05-9.85c.2.534.399 1.083.6 1.65l16.45 16.2h-2.75a1153.628 1153.628 0 0 1-5.25-5h-.65c3.7 3.833 7.917 8.167 12.65 13h-1c-6.8-6.833-12.25-12.316-16.35-16.45l-1-.8c.333 1.167.666 2.417 1 3.75 10.3 8.333 17.75 14.833 22.35 19.5-9.1-7.3-16.384-13.15-21.85-17.55.1.333.199.683.3 1.05 3.6 3.133 6.533 5.467 8.8 7-.167.5-1.083.833-2.75 1a138.751 138.751 0 0 1-5.05-3.85c.2.667.383 1.367.55 2.1v.45c9.134 6.867 18.134 13.3 27 19.3l-.5.5c-7.033-3.633-13.684-7.566-19.95-11.8-.267.133-.616.233-1.05.3-1.5-.933-2.967-1.883-4.4-2.85.167.534.284 1.017.351 1.45.8.6 1.6 1.233 2.399 1.9 12.067 9.833 20.117 16.167 24.15 19l-2.5.25c-9-7.5-16.917-14.033-23.75-19.6v.2c0 .833-.333 1.533-1 2.1-.667.533-1 1.216-1 2.05 0 .834.366 2.467 1.1 4.9.4 2.333.017 4.517-1.149 6.55.033.167.066.35.1.55 1.033.967 3.3 3.767 6.8 8.4 3.934 5.134 5.9 7.95 5.9 8.45 0 1.033-.333 1.517-1 1.45-.333-.034-.667-.184-1-.45-1.167-.467-2.717-1.1-4.65-1.9.767 2.133 1.15 3.6 1.15 4.4v.65c.134.133.267.284.4.45 4.933 5.9 8.8 10.95 11.6 15.15l-.5.5c-2.8-3.066-6.467-7.45-11-13.15.267.9.6 1.867 1 2.9.434 1.1.767 2.05 1 2.85 5.833 6.267 8.75 10.066 8.75 11.4 0 1.033-.066 1.617-.2 1.75-.066.1-.25.184-.55.25-1.866-3.9-4.4-7.85-7.6-11.85.066.3.1.55.1.75 0 1.034-.134 1.534-.4 1.5-.1-.033-.216-.167-.35-.4-.467 0-1.15-.117-2.05-.35-.867-.267-1.351-.4-1.45-.4.066.667-.15 1.267-.65 1.8-.166.167-.3.35-.399.55.1.933.2 1.883.3 2.85a238.718 238.718 0 0 1 5.2 6.85c4.7 6.4 7.05 9.884 7.05 10.45 0 1.033-.134 1.55-.4 1.55-.1 0-.216-.1-.35-.3-3.333-4.3-6.1-7.9-8.3-10.8.467 1.033.717 1.667.75 1.9 5.566 7.633 9.333 13.517 11.3 17.65l-.75.5c-1.733-2.666-4.434-6.633-8.1-11.9 3.866 6.033 6.816 11.833 8.85 17.4l-.75.5c-2.6-3.7-6.217-9.2-10.85-16.5-.2-.333-.4-.65-.601-.95-.566-.3-1.149-.716-1.75-1.25l.101 1.55c.133.233.267.517.399.85 3.9 5.667 8.05 13.316 12.45 22.95l-.75.5c-2.634-3.667-5.616-8.217-8.95-13.65h-1.05c-.833-.334-1.25-.334-1.25 0 .033.133.967 2.166 2.8 6.1 1.8 4.134 2.7 6.768 2.7 7.9 0 .434-.017.783-.05 1.05a331.955 331.955 0 0 1 4.55 6.2l-.25 1.15c-2.634-2.601-5.717-5.934-9.25-10l-.3-.301c.267.601.55 1.268.85 2 1.134 2.934 1.7 4.95 1.7 6.051 0 .133-.017.266-.05.399 2.7 2.3 4.717 4.083 6.05 5.351l-.5.5a815.239 815.239 0 0 0-5.9-4.95c-.133.167-.333.316-.6.45-.667.333-1 .916-1 1.75 0 .833.333 1.583 1 2.25.667.666 1 1.416 1 2.25 0 1.399-.083 2.649-.25 3.75 3.167 1.934 5.75 3.35 7.75 4.25-.333.5-1.333.833-3 1-2.934-1.4-5.616-2.967-8.05-4.7l-.101 1.55c.301.934.567 1.934.801 3 .133.633.233 1.233.3 1.8 5.434 4.067 9.283 6.601 11.55 7.601l-2.5.5c-2.7-1.4-5.634-3.283-8.8-5.65.033.2.05.416.05.65 0 2.366-.134 4.266-.4 5.699 3.767 3.967 6.317 6.566 7.65 7.801l-2.5.25c-2.533-2.066-5.134-4.584-7.8-7.551-.101.566-.2 1.117-.3 1.65 1.566 4.633 2.35 7.267 2.35 7.9 0 .833-.333 1.166-1 1-.667-.167-1 .166-1 1 0 .399.1 1.166.3 2.3 2.934 3.733 5.667 6.716 8.2 8.95-.167.5-.75.916-1.75 1.25a61.347 61.347 0 0 1-6.25-5.801v.051l-1.75-.25c-.5-.734-1.083-1.867-1.75-3.4-.1.367-.2.767-.3 1.2.2.533.416 1.116.649 1.75.9 2.667 1.45 4.649 1.65 5.95l-.5.199c1.3 3.033 2.05 5.634 2.25 7.801l-.5 3h-.75c-.333-2.834-1.9-6.884-4.7-12.15a3.616 3.616 0 0 1-.149.45c.899 2.566 1.35 3.966 1.35 4.2 0 1.1-.05 1.684-.15 1.75-.1.1-.466.184-1.1.25-.4-.467-.884-1.2-1.45-2.2-.267.767-.55 1.533-.85 2.3 1.033 3.7 1.55 5.834 1.55 6.4 0 1.033-.083 1.6-.25 1.699-.1.033-.184-.033-.25-.199-1.3-.2-2.4-.9-3.3-2.101-.134.333-.267.7-.4 1.101 2.634 6.633 3.95 11.3 3.95 14 0 1.199-.05 1.916-.15 2.149-.033.134-.316.333-.85.601l-.75-.5c-.434-2-1.033-4.283-1.8-6.851 0 .601-.05 1.067-.15 1.4-.1.366-.283.767-.55 1.2l-1.75-.25c-.434-1.4-.816-2.617-1.15-3.65a1.969 1.969 0 0 0-.149.4l.1.399c.967 3.5 1.45 6.45 1.45 8.851 0 1.232-.3 3.133-.9 5.699-.6 2.634-1.133 4.268-1.6 4.9l-.25-.75c.866-2.3 1.066-5.133.6-8.5-.233 2.6-.716 5.934-1.449 10l-1.45-.2c.8 2.634 1.2 4.534 1.2 5.7 0 4.633-.667 8.383-2 11.25-.134-.033-.351.017-.65.15.267 1.133.4 2.05.4 2.75 0 1.399-.134 2.482-.4 3.25-.3.967-.917 1.916-1.85 2.85a1.693 1.693 0 0 1-.65-.8l-.1-.45c.833-3.5.533-7.9-.9-13.2-.1.233-.217.467-.35.7-.467-.2-.967-.467-1.5-.8-.434-.3-.684-.45-.75-.45 0-.834-.101-1.684-.301-2.55a3.332 3.332 0 0 1-.25.5 64.6 64.6 0 0 1 .65 3.45c.434 2.6.65 4.516.65 5.75 0 1.033-.034 1.75-.101 2.149 1.066 3.167 1.601 5.616 1.601 7.351 0 2.232-.667 4.016-2 5.35l-.75-.5c-.067-4.867-1.117-10.117-3.15-15.75-.1.267-.217.517-.35.75.6 2.867.6 5.2 0 7-.801-.3-1.534-.867-2.2-1.7 1.436 15.487 1.436 20.503 0 15.05-1.436-5.453-2.453-8.503-3.05-9.149 1.166 3.2 1.75 5.683 1.75 7.45 0 1.732-.25 3.35-.75 4.85h-1c-.067-1.9-.617-4.334-1.65-7.3-.233.466-.483.833-.75 1.1.267.9.4 1.684.4 2.351 0 .266-.267.833-.801 1.699-.666 1-1.399 1.801-2.199 2.4l-.75-.75c.3-1.033.333-2.233.1-3.6l-1.2 1.8c-.1 1.533-.233 2.8-.399 3.8-.5.2-1.217.217-2.15.05h-.05c.833 1.2 1.55 2.284 2.149 3.25a40.7 40.7 0 0 0 8.551 2.2c-.134.367-.817.666-2.051.9-1.133.232-2.366.35-3.699.35-.334 0-.684-.017-1.051-.05.2.5.301.899.301 1.2 0 .5-.017.916-.051 1.25 2.867 3.3 4.301 5.416 4.301 6.35 0 1.033-.134 1.6-.4 1.7-.1.033-.217-.034-.35-.2-3-2.233-6.483-5.8-10.45-10.7-.033.366-.05.684-.05.95 0 1.733.783 3.467 2.35 5.2.4.933.017 2.066-1.15 3.399.134.066.25.134.351.2a320.868 320.868 0 0 1 7.7 4.95c-2.534-.834-5.467-2.267-8.801-4.3-.6.634-1.366 1.3-2.3 2 2.066 3.5 3.101 6.316 3.101 8.45 0 1.166-.067 2.016-.2 2.55a4.72 4.72 0 0 1-.55 1.2h-1.25c.567-.335-.282-2.135-2.551-5.4-2.267-3.264-3.658-4.972-4.175-5.125.483 1.133.726 1.924.726 2.375 0 .367-.017.733-.051 1.1 1.534 2.7 2.301 4.917 2.301 6.65 0 1.033-.134 1.5-.4 1.4-.1-.066-.217-.234-.35-.5a131.684 131.684 0 0 0-2.75-4.801l-1-.199c0-.268-.017-.551-.051-.851-.699.934-1.767 1.967-3.199 3.101a5.934 5.934 0 0 1-2.051-1.4c.034.233.051.45.051.65 0 .232-.017.449-.051.649 3.534 3.467 5.301 5.866 5.301 7.2 0 1.033-.084 1.533-.25 1.5-.101 0-.184-.117-.25-.35a270.033 270.033 0 0 1-6-4.601c1.666 2.733 2.5 5.101 2.5 7.101 0 1.033-.067 1.633-.2 1.8-.066.1-.25.25-.55.45-.4 0-.834-.15-1.301-.45a27.792 27.792 0 0 0-1.449-1.05c.066-2.134-1.45-5.167-4.551-9.101-.699.866-1.416 1.733-2.149 2.601.967 2 1.45 3.416 1.45 4.25 0 1.1-.034 1.699-.101 1.8-.033.066-.116.134-.25.2.634.366 1.25.699 1.851 1-.334.5-1.334.833-3 1a1.923 1.923 0 0 0-.45-.25 69.328 69.328 0 0 1 2.7 3.5c-.667 1-1.917 1.5-3.75 1.5-.834 0-2.517-1.25-5.051-3.75-.033.6-.116.934-.25 1-.133.1-.533.184-1.199.25a5.31 5.31 0 0 0-.45-.4c-.8.9-1.601 1.816-2.4 2.75l5.2 9.4c6.6 16.699 31.316 16.333 74.15-1.101 22.8-9.267 42.1-19.417 57.899-30.45 6-2.5 12.05-6 18.15-10.5 11.3-8.399 22.283-19.833 32.95-34.3 8.433-11.433 15.683-23.333 21.75-35.7a110.093 110.093 0 0 1 3.3-3.899c10-11.634 18.416-14.233 25.25-7.8 6.833 6.399 2.8 25.333-12.101 56.8-14.866 31.433-31.283 56.483-49.25 75.149-17.966 18.634-41.866 37.167-71.699 55.601-29.801 18.434-60.867 26.733-93.2 24.899-33.101 1.834-55.767-3.116-68-14.85-.434.167-.95.25-1.55.25-1.601 0-3.134-.616-4.601-1.85-1.666-1.434-2.767-3.317-3.3-5.65-.9 0-1.667.467-2.3 1.4-.634.899-1.233 1.35-1.8 1.35-1.034 0-1.584-.116-1.65-.35.066-.267.066-.4 0-.4 0-.733-.167-1.7-.5-2.9-.333-1.199-.5-2.233-.5-3.1 0-2.934-1-6.483-3-10.65-2-4.166-3-6.649-3-7.449 0-.533.05-1.15.15-1.851a36.338 36.338 0 0 1-2.45-9.7 229.721 229.721 0 0 1-2.3-2.949 113.579 113.579 0 0 1-.4 4.5l-1-.25a530.717 530.717 0 0 1-.45-4.75 1.816 1.816 0 0 0-.45.149c-.066 1.434-.1 2.967-.1 4.601-1.533-.2-2.5-1.15-2.9-2.851a4.014 4.014 0 0 0-.149-.6c-.5.2-1.017.399-1.55.6v3.351l-1.75.25a33.505 33.505 0 0 1-.75 4.5h-.75c-.5-2.301-.967-4.4-1.4-6.301a67.4 67.4 0 0 0-2.5 1c-.1.066-.217.15-.35.25-.301 1.434-.733 2.533-1.301 3.301v.399c-.333.833-1.316 1.434-2.949 1.8 0 .801-.017 1.268-.051 1.4l-.449.65h-1.25a21.485 21.485 0 0 0-.601-2.551 7.47 7.47 0 0 0-2.149 1c-.601 1-1.351 1.934-2.25 2.801a7.195 7.195 0 0 1-.351-.25c-.166.732-.55 1.399-1.149 2-.667-.334-1.084-.75-1.25-1.25 0-.4-.017-.816-.051-1.25h-.699c-.101 0-.417-.217-.95-.65-.033.033-.05.066-.05.1.166.734.25 1.334.25 1.801 0 1.199-.15 2.066-.45 2.6-.267.434-.867.983-1.8 1.65-.667-.334-1.084-.75-1.25-1.25 0-.801-.051-1.667-.15-2.601-.167.034-.366.067-.6.101l-1.601-1.15c-.666.267-1.35.55-2.05.85-.033.167-.05.351-.05.551a8.278 8.278 0 0 1-.5 1.699 207.944 207.944 0 0 1 2.45 8.9c0 1.033-.084 1.566-.25 1.6-.134 0-.467.018-1 .051-1.733-3.834-3.733-5.334-6-4.5.666 2.527 1 4.394 1 5.6 0 2.333-.5 4.25-1.5 5.75l-1-.25c.433-2.467.383-5.483-.15-9.05-.2.167-.65.316-1.35.45a12.375 12.375 0 0 0-1.101-.25c.733 2.133 1.101 3.55 1.101 4.25 0 1.066-.15 1.8-.45 2.199-.2.267-.55.567-1.05.9-.834-.167-1.25-.5-1.25-1 .066-2.033-.15-4.217-.65-6.55-.3 0-.634.033-1 .1.434 1.934.65 3.467.65 4.601 0 1.166-.084 1.899-.25 2.199-.101.134-.434.351-1 .65a592.342 592.342 0 0 0-2.25-6.8c-1 .366-2.017.833-3.051 1.399-.199.101-.399.2-.6.301l-.1 1.85c0 1.3-.051 2.1-.15 2.4-.066.333-.35.616-.85.85-1.367-.9-2.117-1.566-2.25-2 .199-.533.35-1.084.449-1.65-3.166 1.4-5.983 2.117-8.449 2.15l.25.25c1.233.667 2.733 2.083 4.5 4.25l-.25 1.5c-.267.267-.417.566-.45.9-.167.233-.767.35-1.8.35-1.667 0-2.75-.083-3.25-.25l.25.5c.366.533.883 1.434 1.55 2.7.8 1.434 1.2 2.283 1.2 2.55 0 .167-.2.434-.601.8a239.141 239.141 0 0 0-2.149 1.95c-.334-.134-1.117-.634-2.351-1.5-1.2-.833-1.833-1.25-1.899-1.25-.834 0-1.317.417-1.45 1.25-.134.833-.617 1.25-1.45 1.25-.767 0-2.15-1.033-4.15-3.1-2-2.167-3.116-3.384-3.35-3.65.333.5.866 1.25 1.6 2.25.601.934.9 1.934.9 3 0 .9-.083 1.533-.25 1.9-.4 1.066-1.316 1.6-2.75 1.6-1.066 0-2.333-.767-3.8-2.3a85.845 85.845 0 0 0-2.15-2.55c-.333.233-.7.483-1.1.75 0 .5-.033 1.1-.101 1.8.167.267.351.533.551.8 4.633 6.7 7.416 10.616 8.35 11.75-2.7-1.134-5.8-4.05-9.3-8.75-.134 1.333-.2 2.3-.2 2.9 0 1.699-.116 2.85-.35 3.449 1.1 2.034 2.466 4.584 4.1 7.65l-.5 1.5h-.3c.2.434.383.85.55 1.25-.167.5-.667.667-1.5.5l-.85-1.8c-.434-.066-.733-.134-.9-.2a7.49 7.49 0 0 0-.2-2.05 194.35 194.35 0 0 0-2.95-5.851c-.699.267-1.416.767-2.149 1.5a751.755 751.755 0 0 1 3.8 7.15c-.767-.533-1.5-1.1-2.2-1.7a163.082 163.082 0 0 1 3.7 6.95l-1.5.5c-.9-1.866-2.917-5.217-6.05-10.05a26.477 26.477 0 0 0-1.3 2.25 410.66 410.66 0 0 0 3.6 5.55l-1.05.4c.7 1.433 1.05 2.433 1.05 3 0 1.033-.083 1.533-.25 1.5-.1-.034-.184-.167-.25-.4-2.1-1.7-4-3.5-5.7-5.4.5 1.2.983 2.417 1.45 3.65 0 1.066-.1 1.65-.3 1.75-.134.1-.533.184-1.2.25-.6-1.1-1.184-2.167-1.75-3.2a.768.768 0 0 1-.15.2 328.43 328.43 0 0 1 3.9 7.75c-2.333-1.033-4.4-2.583-6.2-4.65-.7.9-1.3 1.667-1.8 2.301.6.833 1.184 1.533 1.75 2.1a11.99 11.99 0 0 1-2.4-1.3c-.399.467-.716.816-.949 1.05.267.866.55 1.75.85 2.65 0 1.066-.066 1.716-.2 1.949-.066.167-.25.384-.55.65a30.151 30.151 0 0 1-3.3-4.45c1.533 3.134 2.3 5.084 2.3 5.851 0 1.033-.134 1.533-.4 1.5-.1-.034-.216-.167-.35-.4-.833-.566-2.134-2.116-3.9-4.65-.533 1.034-1.483 1.834-2.85 2.4a6.511 6.511 0 0 1-1.2-.5c1.667 2.9 2.983 4.983 3.95 6.25-2.733-1.134-5.167-3.3-7.3-6.5.533 1.967.8 3.517.8 4.65 0 1.033-.083 1.533-.25 1.5-.1-.034-.184-.167-.25-.4-1.4-.733-2.767-2.1-4.1-4.1.166.566.35 1.199.55 1.899.7 2.733 1.05 4.467 1.05 5.2 0 1.033-.083 1.8-.25 2.3-.467 1.3-1.467 1.95-3 1.95-1.033 0-2.25-.316-3.65-.95a1.822 1.822 0 0 1-.25-.1c5.067 7.133 8.784 13.616 11.15 19.45l-1.25.5c-2.9-3.301-6.767-8.351-11.6-15.15-.5.566-1.301.95-2.4 1.15a24.853 24.853 0 0 0-2.55-.15c1.033 1.333 2.233 2.9 3.6 4.7 2.334 2.967 4.566 5.366 6.7 7.2-.167.5-.75.916-1.75 1.25-3.366-2.767-7.217-6.767-11.55-12-.267.433-.566.85-.9 1.25.3.3.601.616.9.949 9.934 10.801 15.116 16.4 15.55 16.801l-.5.75c-5.066-3.034-10.767-7.967-17.1-14.801l-1.5-1.699c-.5.267-1.051.517-1.65.75.1.166.533.666 1.3 1.5.467.533.7 1.283.7 2.25 0 .066-.3.316-.9.75 5.767 4.233 10.233 7.399 13.4 9.5l-.75.5c-5.733-2.034-11.017-4.7-15.85-8-.367.233-.75.466-1.15.699 7.333 5.601 11.75 8.95 13.25 10.051-.3.466-.6.767-.9.899-.433.233-1.216.351-2.35.351-1.5 0-3.55-.784-6.15-2.351-.166.233-.783.351-1.85.351-1.033 0-3.283-.784-6.75-2.351.667.733 1 1.3 1 1.7 0 1-.066 1.533-.2 1.6-.066.067-.25.167-.55.301l-2.5.75a46.068 46.068 0 0 1-8.3-3.551l-.351.351c5.5 2.566 8.467 4.217 8.9 4.95-.667 1-2.083 1.5-4.25 1.5-.033 0-2.434-.601-7.2-1.801 2.233 1.267 3.717 2.034 4.45 2.301l-.1.399c-.301.233-.967.351-2 .351-1.601 0-3.45-.4-5.551-1.2a34.167 34.167 0 0 0-.449 4.1c2.366.566 4.983.851 7.85.851.967 0 1.434-.167 1.4-.5-.034-.334 0-.5.1-.5 0 .5.167 1.25.5 2.25-.333.5-.5.916-.5 1.25l-1.55.149a66.997 66.997 0 0 1-3.45.101c-1.033 0-2.033-.051-3-.15 3.366 1.066 6.45 2.2 9.25 3.4l-.25.75-.3.25c-.434.166-1.167.25-2.2.25-1.134 0-2.434-.101-3.9-.301.101.101.184.2.25.301h.2c.367.066 1.184.733 2.45 2-.3.199-.6.383-.9.55a200.388 200.388 0 0 0 2.4 3.2l-.5.5a67.625 67.625 0 0 1-3.15-3.051 7.74 7.74 0 0 1-.649.25 9.73 9.73 0 0 1-2.05.5c.8 1.034 1.416 1.967 1.85 2.801a6.132 6.132 0 0 1-.5.449 36.263 36.263 0 0 0 4 5.551l-.5.5c-.866-1.067-2.116-3.034-3.75-5.9-.366.233-.783.45-1.25.65-.4-.134-.9-.367-1.5-.7.566.633 1.116 1.25 1.65 1.85 3.233 3.834 4.85 6.117 4.85 6.851 0 .133-.2.316-.6.55-1.367.866-2.5 1.6-3.4 2.2-1-.534-1.95-1.067-2.85-1.601.267.334.517.684.75 1.05.6.534 1.216 1.051 1.85 1.551l-.9-.4c1.534 1.9 3.167 3.366 4.9 4.4-.8.066-1.684-.184-2.65-.75.301.333.601.666.9 1l-.5.75c-.9-.434-2.366-1.817-4.4-4.15.467 6.667 1.051 12.884 1.75 18.65a79.39 79.39 0 0 1 7.15 10.3c2.667 4.6 4 7.916 4 9.95 0 6.666-3.483 13.05-10.45 19.149-7.5 6.566-18.566 12.3-33.2 17.2-26.166 8.833-60.833 14.283-104 16.35-53.633 9.167-99.933 16.601-138.899 22.301-24.167 3.533-42.65 4.716-55.45 3.55-2.033 2.366-3.533 3.55-4.5 3.55-1.033 0-1.684-.167-1.95-.5-.133-.333-.233-.5-.3-.5-.167.167-.25-.583-.25-2.25 0-.2.116-.6.35-1.2a53.58 53.58 0 0 1-3.8-.899c-.333 1-.633 1.733-.899 2.199-1.167 2.067-2.884 3.667-5.15 4.801l-1.75-.5c-.366-.233-.634-.467-.8-.7-.3-.4-.45-1.134-.45-2.2 0-1.934.667-4.217 2-6.85-1.3-.967-2.3-2.067-3-3.301-.066-.166-.15-.3-.25-.399-1.267 1.233-2.55 2.5-3.85 3.8-1.034 0-1.601-.116-1.7-.35.033-.267.017-.4-.05-.4-.167.167-.25-.583-.25-2.25 0-2 1.25-4.717 3.75-8.15.1-.133.199-.267.3-.399.233-7.867 6.416-16.584 18.55-26.15 12.2-9.666 30.066-16.899 53.6-21.7 15.5-4.899 34.334-9.816 56.5-14.75 14.567-3.233 30.95-6.533 49.15-9.899l6.5-.05c18.066 1.533 30.667-1.051 37.8-7.75a602.18 602.18 0 0 0 4.8-.851c9.467-10.1 16.317-24.6 20.551-43.5a104.18 104.18 0 0 0 1.8-10.35 95.533 95.533 0 0 1-2.2 2.7v-.75a179.754 179.754 0 0 0 2.3-4.551 59.83 59.83 0 0 0-1.7-2.699 73.562 73.562 0 0 1-3.6 5l-.25-.75c-.167.899-.25.517-.25-1.15 0-.3.517-1.5 1.55-3.6-.434-.034-.717-.084-.85-.15a1.108 1.108 0 0 1-.45-.35c.634-.7 1.233-1.5 1.8-2.4-.934-1.6-1.899-3.267-2.899-5-.5 1.667-.801 2.634-.9 2.9-.566-.101-.983-.334-1.25-.7-.167-.2-.333-.55-.5-1.05.4-1.334.767-2.601 1.1-3.801-.466-.833-.949-1.699-1.449-2.6-.767 1.733-1.567 3.533-2.4 5.4-.667-.334-1.083-.75-1.25-1.25.434-2.267 1.05-4.717 1.85-7.351-.399-.733-.816-1.483-1.25-2.25a999.332 999.332 0 0 1-2.35 4.351l-.75-.5a402.058 402.058 0 0 1 2.4-5.101c-.301-.6-.617-1.184-.95-1.75-1.367 2.533-2.267 4.566-2.7 6.101l-.5-.5c.233-2.233.95-4.733 2.15-7.5a53.53 53.53 0 0 0-1.051-1.9c-.199.434-.399.85-.6 1.25a1.641 1.641 0 0 1-.75-.75c.167-.667.35-1.333.55-2a1.27 1.27 0 0 0-.149-.3.634.634 0 0 0 .25-.15c.3-.934.6-1.899.899-2.899l-.3.1c.3-1.767.767-3.866 1.4-6.3a15.025 15.025 0 0 0-1.351-3.351c-.2 2.233-.383 3.95-.55 5.15l-.5-.5a333.49 333.49 0 0 1-.3-6.95c-.867-1.267-1.233-2.866-1.101-4.8-2.666 3.667-4.699 6.75-6.1 9.25l-.5-.5c-.167.934-.25.566-.25-1.1 0-.4 1-2.967 3-7.7l-1.25-.2a44.425 44.425 0 0 0-.15-1.85c-.566-.5-1.166-1-1.8-1.5-1.233 3.533-2.083 6.149-2.55 7.85l-1-.25c.934-2.5 1.9-5.184 2.9-8.05-.108-2.852-1.258-3.669-3.45-2.45a60.792 60.792 0 0 0-.45 5.25h-1c-.267-.267-.417-.483-.45-.65-.033-.166-.05-.816-.05-1.949 0-.967.017-1.9.05-2.801a2.822 2.822 0 0 1-.6-.449c-.267-.267-.417-.4-.45-.4.033-.267.066-.5.1-.7a.555.555 0 0 1-.149-.1c-.134 3.3-.283 7.233-.45 11.8l-1-.25c-.233-2.967-.417-6.934-.55-11.9 0-.166-.017-.316-.05-.449-.467 3.866-1.517 6.983-3.15 9.35-1.167-.167-1.917-.5-2.25-1 .1-4.7.2-8.833.3-12.4l-.3-.3c0 3.967-.066 6.517-.2 7.65-.333 3.033-1.184 5.383-2.55 7.05-.566-1.1-.866-1.717-.9-1.85-.233-.667-.35-1.551-.35-2.65 0-1.333.167-4.116.5-8.35a90.014 90.014 0 0 0-.2 1.75c-.533 4.133-1.133 7.5-1.8 10.1-.467-1.3-.85-2.917-1.15-4.85-.199-1.4-.316-2.7-.35-3.9-.934 4.366-1.517 6.616-1.75 6.75V875a27.238 27.238 0 0 1-1.75 4c-1-2-1.5-4.533-1.5-7.6 0-.834.3-2.834.9-6a3.243 3.243 0 0 1-.601-.851 905.115 905.115 0 0 0-.45 3.2.444.444 0 0 1-.199-.05c-.867 4-1.917 7.017-3.15 9.05l-.5-.5-.1-.5a124.793 124.793 0 0 1-.9 5l-1-.25c0-.4-.134-1.15-.4-2.25a14.088 14.088 0 0 1-.35-3c0-1.167.533-3.816 1.6-7.95h-.25c.367-1.833.667-3.783.9-5.85-2.233.967-3.616.383-4.15-1.75-.033-.167-.066-.617-.1-1.351l-1.9-.899c-.166.2-.35.399-.55.6-.366 4.7-.866 8.7-1.5 12-.267.5-.434 1.05-.5 1.65l-.8-.2c.5-3.333.8-7.25.9-11.75l-.9-.25c-1.3-2.3-2.3-3.517-3-3.65v8.9h-.75c-.1-3.267-.2-6.267-.3-9-.2.033-.316.116-.351.25-.399 1.667-.983 2.9-1.75 3.7.034.666.084 1.35.15 2.05l-1.1-.25c-.034-.7-.051-1.366-.051-2-1.399-1.1-2.566-2-3.5-2.7-.1 5.167-.416 8.483-.949 9.95-.2-.2-.267-.467-.2-.8l.2-.45c.066-2.434.05-5.616-.051-9.55-.267-.2-.5-.384-.699-.55-.301 3.267-.717 6.8-1.25 10.6l-.45.2c-.033.033-.05-.45-.05-1.45 0-1.667-.134-5.533-.4-11.6a11.829 11.829 0 0 1-1.5-2.4c.066.5.15 1.05.25 1.65.6 3.666.9 5.916.9 6.75 0 3.566-.25 7.1-.75 10.6l-.5-.5c.066-4.233-.317-9.066-1.15-14.5h-.6c-.134-.5-.267-1.017-.4-1.55-.033.399-.066.833-.1 1.3h-2.75c-.134-.3-.717-1.15-1.75-2.55-.067 1.233-.15 2.583-.25 4.05h-.75l-.7-6.6a22.095 22.095 0 0 0-.05-.551c-.134-.633-.217-1.5-.25-2.6-.099.046-.123.096-.075.15-.234.393-.759.567-1.575.524a25.209 25.209 0 0 1-1.75-.125c-.5 6.9-1.116 11.217-1.85 12.95l-1-.25c.833-4.5 1.216-9.4 1.149-14.7a2.849 2.849 0 0 1-.149.5c-.267.733-.517 1.217-.75 1.45-.834-.7-1.45-1.366-1.851-2-.533 1.9-1.166 3.566-1.899 5l-.5-.5c.233-.967.5-2.483.8-4.55-.167.033-.351.05-.55.05a3.9 3.9 0 0 0-1.25.2c-.134 2.467-.301 4.399-.5 5.8l-.5-.5c-.034-1.733-.084-3.3-.15-4.7a4.33 4.33 0 0 0-.55.55c-.434.534-1.117 1.417-2.05 2.65-.7-.934-1.367-1.9-2-2.9.366 4 .616 6.967.75 8.9l-1-.25c-.567-2.066-1.2-6.217-1.9-12.45l-1.9-.2c0 2.801.267 5.101.801 6.9l-1.25-.25c-.334-1.634-.634-3.884-.9-6.75h-.4c-.733-.4-1.5-.783-2.3-1.15-.033 1.2-.083 2.584-.149 4.15h-.75a41.398 41.398 0 0 0-.15-4.55 25.851 25.851 0 0 0-2.25-.9c-.566-.2-1.134-.384-1.7-.55-.1 2.1-.316 3.767-.649 5-.2-.2-.351-.467-.45-.8l-.05-.45a99.577 99.577 0 0 0-.351-4.15 18.63 18.63 0 0 0-1.45-.35c1.2 6.033 1.801 9.616 1.801 10.75 0 1.1-.017 1.684-.051 1.75-.066.1-.216.184-.449.25a6620.318 6620.318 0 0 0-3-13 5.409 5.409 0 0 0-1.051-.1c-.033 1.8-.183 3.916-.449 6.35h-.75c-.601-2.4-1.117-4.5-1.551-6.3-.133 0-.283.017-.449.05-.2 3.3-.45 5.967-.75 8-.2-.2-.351-.467-.45-.8l-.05-.45a260.367 260.367 0 0 1-.301-6.35c-3.3 1.066-4.949 3.683-4.949 7.85 0 .967 1 7.384 3 19.25 2.366 14 3.783 22.583 4.25 25.75.466 3.5 1.566 7.2 3.3 11.1 1.233 2.733 2.866 5.767 4.899 9.101 1 .8 1.917 1.733 2.75 2.8 3.034 3.866 4.551 8.25 4.551 13.15 0 1.733-1.134 4.083-3.4 7.05-2.634 3.399-6.083 6.566-10.35 9.5-11.634 7.967-25.767 11.95-42.4 11.95-1.366 0-3.667-.101-6.9-.301-3.333-.166-5.116-.316-5.35-.449l-28.75-.25c-.634-.101-2.634-.384-6-.851-2.833-.399-4.583-.7-5.25-.899l-25.85-.25a287.745 287.745 0 0 0-8.4-1.25c-4.733-.134-9.5-.334-14.3-.601-1.634 1.134-4.334 2.017-8.101 2.65-8.733 1.467-32.183 2.2-70.35 2.2-30.333 7.866-50.217 11.5-59.649 10.899-8.434-.566-16.884-2.533-25.351-5.899-1.899 3.5-3.6 5.25-5.1 5.25-1.033 0-1.65-.167-1.851-.5-.033-.334-.083-.5-.149-.5-.033-.367-.05-1.467-.05-3.301 0-1.199-.15-2.1-.45-2.699h-.75c-.334.5-.884 1.649-1.65 3.449-1 1.534-2.533 2.301-4.6 2.301-2.3 0-3.733-.917-4.3-2.75-.134-.5-.2-1.884-.2-4.15 0-2.833.399-5.017 1.2-6.55.066-.101.116-.2.149-.3-.8-.767-1.5-1.567-2.1-2.4-2.566 2.767-4.316 4.15-5.25 4.15-1.033 0-1.65-.2-1.851-.601-.033-.434-.083-.649-.149-.649 2.733-8.5 5.75-14.95 9.05-19.351 2.866-3.8 6.083-6.5 9.65-8.1 13.899-10.101 38-16.767 72.3-20 8.3-.8 16.649-1.601 25.05-2.4 2.767.066 5.783.05 9.05-.05l51.15-.25a363.043 363.043 0 0 0 10.25-2.15c-.834-.3-1.334-.583-1.5-.85 1.833.033 3.566 0 5.199-.1 3.4-.9 5.884-1.717 7.45-2.45 1.601-.733 2.816-1.65 3.65-2.75a3.4 3.4 0 0 1 .55-.05 44.152 44.152 0 0 0 3.95-4.601c-4.8 2.3-7.783 3.45-8.95 3.45-1.667 0-2.616-.25-2.85-.75v-.75c3.066-1.03 6.441-2.331 10.125-3.9h-.025c-1.271.045-3.388.512-6.35 1.4.433-.233 3.883-2.283 10.35-6.15.533-2.199 1.116-3.983 1.75-5.35a593.619 593.619 0 0 1-8.85 7.5c1.1-1.2 2.699-2.934 4.8-5.2-2.3 1.5-4.566 2.9-6.8 4.2V882c3.233-2.1 7.149-4.983 11.75-8.65a78.91 78.91 0 0 1 1.649-1.699c.8-2.601 1.834-4.884 3.101-6.851a590.4 590.4 0 0 1-11.75 9.95c1.318-1.616 4.252-5.94 8.8-12.975-1.033 1.483-2.55 2.225-4.55 2.225-1.034 0-1.551-.083-1.551-.25l.301-.25c3.033-3.1 6.1-6.667 9.199-10.7a131.358 131.358 0 0 0-.8-6.05l-1.399-.5c-4.067 5.3-7.051 9.017-8.95 11.15-.5 1.399-1.017 2.85-1.55 4.35l-.5-.5c.333-1.1.666-2.283 1-3.55l-.051-.05a34.928 34.928 0 0 0-1.449 2.1l-.5-.5c.233-.967.533-2 .899-3.1-.767 1-1.566 2.033-2.399 3.1a1.632 1.632 0 0 1-.75-.75c1.666-3.1 4.116-7.2 7.35-12.3.434-1.533.85-3.134 1.25-4.8-.767-1.2-1.45-2.566-2.05-4.101-4.467 6.033-7.816 9.851-10.05 11.45.399-.6 3.517-5.134 9.35-13.6a56.804 56.804 0 0 1-.65-2.95c-1.933 2.866-3.75 5.384-5.449 7.55l-.25-.5c1.333-2.4 3.116-5.383 5.35-8.95-.066-.7-.15-1.417-.25-2.149-4.033 4.8-7.733 8.666-11.1 11.6v-.85c3.033-2.834 6.683-6.934 10.949-12.301-.1-1.666-.166-3.416-.199-5.25-1 1.768-1.667 3.283-2 4.551-.667-.167-1.084-.5-1.25-1 .866-2 1.983-4.117 3.35-6.351.066-.733.134-1.45.2-2.149-3.066-5.334-6.8-11.167-11.2-17.5-.7 4.066-1.066 7.316-1.1 9.75h-.75c-.5-4.101-.75-6.984-.75-8.65 0-.233.05-.65.149-1.25a.627.627 0 0 0-.25.15 241.517 241.517 0 0 1-5.399 20.75h-.75c-.134-.2-.2-.351-.2-.45-.033-.101-.05-.7-.05-1.8 0-1.834-.017-4.967-.051-9.4-1 6.7-2.316 13.084-3.949 19.15-.5-.101-.917-.301-1.25-.601-.301-.267-.467-.399-.5-.399 0-.4-.051-.768-.15-1.101-.066-.333-.1-.966-.1-1.899 0-.881-.226-2.78-.676-5.7-.646 6.075-1.421 10.308-2.324 12.7-.834-3.734-1.292-5-1.375-3.801-.083 1.201-.125 1.635-.125 1.301-.001-.33-.093-2.421-.275-6.275-2.37 6.012-4.112 10.271-5.225 12.775-.834-.167-1.25-.5-1.25-1 .666-3.634 1.216-8.283 1.649-13.95.033-.567-.116.95-.45 4.55-2-2.934-3.149-4.3-3.449-4.1a2.406 2.406 0 0 0-.351.25c-.866 8.266-1.583 13.35-2.149 15.25l-1.25-.25-.45-2.75c-.032.123-.065.248-.101.375.003-.273.003-.549 0-.825l-.199-1.3c.199-1.467.449-3.801.75-7-1.367 5.199-3.101 9.934-5.2 14.199.233 4 .467 7.884.7 11.65-.167.5-.5.75-1 .75-3.29-16.551-5.207-23.284-5.75-20.2-1.834 3.2-3.567 5.983-5.2 8.351 0 .166-.017.333-.05.5-.534.467-1.067 1-1.601 1.6-.866.066-1.816.467-2.85 1.2l-.45-2.2c-.167 0-.333-.117-.5-.35-.967.899-2.366 3.483-4.2 7.75-.399.5-.8 1.033-1.2 1.6h-.1c-1.733 0-3.15-.833-4.25-2.5a35.934 35.934 0 0 0 2.75-1.85c.467-1.601 1-3.467 1.6-5.601l-1 1.4c-3 4.1-5.25 7.083-6.75 8.95-1.1 4.333-1.716 6.699-1.85 7.1l-1-.25c.434-1.7.866-3.384 1.3-5.05-.1.133-.2.233-.3.3.134-.233.267-.45.4-.65.133-.399.233-.783.3-1.149-.5.7-.983 1.3-1.45 1.8V850c.7-1.167 1.4-2.35 2.1-3.55 1.4-5.367 1.5-8.45.301-9.25-.634 1.6-2.483 4.649-5.551 9.149v-.1c1.134-3.033 1.884-7.283 2.25-12.75-1.699 5.267-6.966 13.616-15.8 25.05 4.2-5.967 4.75-7.083 1.65-3.35a391.458 391.458 0 0 0 8.3-19.45c-.2.066-.417.15-.65.25a74.052 74.052 0 0 1-6 7.9c-3.233 6.066-6.1 10.683-8.6 13.85 1.134-2.2 2.283-4.533 3.45-7h-.45c.134-.434.267-.917.4-1.45-.534.5-1.084.983-1.65 1.45-.533-.134-.85-.366-.95-.7-1.066 3.233-1.916 5.467-2.55 6.7l-.25-.5a111.03 111.03 0 0 0 2.75-6.4v-.1l.1-.2c.2-.5.4-1.017.601-1.55a9.79 9.79 0 0 1-.351 1.05c1.134-2.166 2.517-5.3 4.15-9.399-.533.199-1.083.399-1.65.6-1.733 5.1-3.35 9.684-4.85 13.75l-.55-.1a57.822 57.822 0 0 1-2.95 6.1l-.75-.5c.4-.866 1.184-3.483 2.35-7.85.367-1.434.684-2.7.95-3.801-2.467 4.101-3.816 6.4-4.05 6.9l-1-.25c0-.1-.05-.25-.15-.45-.066-.233-.1-.833-.1-1.8a8.9 8.9 0 0 1 .1-1.25c-2.166 5.033-4.283 9.616-6.35 13.75l-.5-.5c0-.033.967-2.733 2.9-8.1-.801 1.3-1.601 2.583-2.4 3.85l-.75-.5c-.167-.333-.25-1.333-.25-3 0-.533.116-1.233.35-2.1-1.366 2.666-2.816 5.116-4.35 7.35l-.5-.5c1.6-3.566 3.333-8.283 5.2-14.15-.967.367-1.917.733-2.851 1.101-1.666 2.967-3.366 5.316-5.1 7.05-1-.167-1.5-.5-1.5-1a55.42 55.42 0 0 0 2.55-4.5c-.036.03-2.637 1.905-7.8 5.625-5.157 3.726-8.291 6.001-9.4 6.825-.266.6-.55 1.2-.85 1.8l-.5-.75c.101-.3.2-.634.3-1h-.149c-.967 0-1.767-.083-2.4-.25a8.925 8.925 0 0 1-.45-.1 63.22 63.22 0 0 1-1.55 4.1c-.267-.2-.5-.467-.7-.8-.133-.3-.233-.45-.3-.45 0-.4-.05-.65-.149-.75-.067-.066-.101-.566-.101-1.5v-.25a75.382 75.382 0 0 1-3.75 5l-.75-.5c.967-2.634 1.867-5.066 2.7-7.3a4.304 4.304 0 0 0-.75.3c-1.533 5.066-2.6 8.15-3.2 9.25l-.75-.5c.4-2.767.767-5.316 1.101-7.65-1.5.567-3.351 1.301-5.551 2.2-1.866 4.566-3.166 7.467-3.899 8.7l-.5-.5a157.875 157.875 0 0 0 2.649-7.45c-1.5.601-3.149 1.267-4.949 2-2.2 4.033-4.101 6.851-5.7 8.45-1-.167-1.584-.5-1.75-1 1.066-1.833 2.1-3.717 3.1-5.65a976.52 976.52 0 0 1-6.75 2.801 163.312 163.312 0 0 1-3.6 5.85c-.334-.333-.566-.616-.7-.85-.2-.367-.3-1.084-.3-2.15 0-.2.066-.533.2-1-.9.366-1.817.75-2.75 1.15-2.733 3.533-5.384 5.649-7.95 6.35l-.25-.5c.7-.767 1.533-1.934 2.5-3.5-1.601.667-3.233 1.35-4.9 2.05-.8.334-1.583.65-2.35.95a138.353 138.353 0 0 1-5 6.5c0 .934.05 1.5.149 1.7l-.399-.2c-.9-.667-1.483-1.417-1.75-2.25a95.927 95.927 0 0 0 3.5-5.4c-.3-.066-.634-.1-1-.1-.367-.033-.934-.033-1.7 0-1.866 4.5-3.55 8.083-5.05 10.75 0 .967.1 1.55.3 1.75.066.066.05.15-.05.25-.3-.2-.584-.5-.851-.9-.133-.233-.35-.6-.649-1.1.666-.9 1.283-1.884 1.85-2.95-.1-.133-.2-.25-.3-.35-.3-.3-.483-.45-.55-.45-.367-3.066-.634-5.333-.8-6.8-.134 0-.284.017-.45.05-.8 1.233-1.634 2.4-2.5 3.5.333-.934.733-2.083 1.2-3.45h-1.7c-2.767 5.434-5.184 9.084-7.25 10.95l-.75-.5a82.693 82.693 0 0 0 1.1-3.45c-.934 1.033-1.8 1.851-2.6 2.45V888c1.5-2.3 2.95-4.65 4.35-7.05a46.2 46.2 0 0 0 .55-1.65c-.3-.033-.6-.05-.899-.05-.033 1.033-.917 2.134-2.65 3.3-1.233 3.667-2.1 5.9-2.6 6.7-.3-.7-.483-1.2-.55-1.5-.134-.434-.2-1.184-.2-2.25v-1.15c-.2.067-.4.15-.601.25-.433.2-1.066.467-1.899.801a129.614 129.614 0 0 1-2.65 6.85l.75 1.5-1.25-.25c-.267-.233-.533-.316-.8-.25-.134-.066-.2-.6-.2-1.6 0-.967.25-2.65.75-5.051-.2.067-.416.15-.649.25-.601 2.567-1.217 4.7-1.851 6.4-.633-1.3-.967-3.1-1-5.4a.434.434 0 0 1-.2.051c-2.033 6.3-3.3 10.666-3.8 13.1l-1-.25a5.183 5.183 0 0 1-.35-.85c-.101-.367-.15-1.084-.15-2.15 0-1.6.566-4.467 1.7-8.6-.533.199-1.1.399-1.7.6-.1.033-.184.066-.25.1-2.333 6.233-4.333 10.617-6 13.15l-.5-.75c1.5-3.566 2.983-7.45 4.45-11.65-1.5.5-2.9 1.017-4.2 1.551-.267-.2-.517-.4-.75-.601-1 4.066-2.083 8.467-3.25 13.2-.5 0-1.083-.25-1.75-.75.934-4.167 1.767-7.934 2.5-11.3-.899.6-1.767 1.2-2.6 1.8a208.504 208.504 0 0 1-6.9 13.4c1.233-2.9 2.7-6.851 4.4-11.851-2.101 1.233-3.65 2.5-4.65 3.8-.333.267-.684.551-1.05.851-8.967 7.533-16.717 14.149-23.25 19.85-.4 1.167-.8 2.283-1.2 3.351-4.767 4.933-8.934 10.433-12.5 16.5-.934 1.767-2.75 3.616-5.45 5.55-.366 1.833-.55 3.149-.55 3.95l-1-.25c0-.4-.083-1.217-.25-2.45-.2.1-.399.217-.6.35-.733.467-1.851 1.101-3.351 1.9a204.637 204.637 0 0 1-1.8 5.7l-1-.25a4.491 4.491 0 0 1-.35-.65c-.101-.3-.15-.967-.15-2 0-.2.05-.566.15-1.1l-5.45 2.899c-2 1.033-3.8 2-5.4 2.9-1.833.1-3.983.166-6.449.2-6.467 2.8-14.483 5.983-24.051 9.55-1.199 2.366-3 4.633-5.399 6.8 1.1 1.134 1.934 1.85 2.5 2.15l-.5.75c-1.101-.101-2.334-.601-3.7-1.5-.2.199-.434.383-.7.55a63.409 63.409 0 0 1 3.4 4.45l-1.5.5c-1.233-.934-2.45-2.15-3.65-3.65-7.633 5-15.916 5-24.85 0v.25c0 2.934-.834 5.233-2.5 6.9-.2-.7-1.584-3.7-4.15-9h-.85c-9.8-3.434-17.033-7.834-21.7-13.2 0 .2-.017.366-.05.5-.066.399-.283.967-.65 1.7l-1.75-.25c-.267-.767-.416-1.267-.45-1.5-.033-.301-.05-1.051-.05-2.25 0-.601.017-1.334.05-2.2a.625.625 0 0 1-.149-.25l-.5-.9c-1.2 3.5-2 5.45-2.4 5.851l-.5-.75c-.133-.134-.2-.233-.2-.301-.033-.033-.05-.566-.05-1.6 0-.2.584-2.3 1.75-6.3-2.5-6.601-3.75-15.867-3.75-27.8 0-5.767 1.934-12.067 5.8-18.9 3.367-5.967 7.617-11.4 12.75-16.3 4.034-3.834 7.634-6.45 10.801-7.851 4.166-8.066 8.883-16.966 14.149-26.699a608.789 608.789 0 0 0 10.8-20.75c.534-2.5 1.034-4.884 1.5-7.15-1.833 2-3.633 3.883-5.399 5.65l-.25-.5c1.833-2.2 3.899-4.783 6.2-7.75a7.68 7.68 0 0 0 .149-.75 81.338 81.338 0 0 1-1.75 1.699c.101.134.15.234.15.301h-.5a100.644 100.644 0 0 1-5.5 4.75 235.653 235.653 0 0 0 4.85-5.101c-.1-.1-.233-.2-.399-.3-.301-.3-.45-.967-.45-2 0-1.7 2.233-6.117 6.7-13.25.1-.434.183-.834.25-1.2a49.664 49.664 0 0 1-3.7 3.351l-.25-.75a122.188 122.188 0 0 0 4.649-5.601l1.101-4.399c.267-1.033.5-2.033.7-3a561.234 561.234 0 0 1-5.2 6.75l-.25-.75c1.233-3.634 3.6-7.801 7.1-12.5a992.245 992.245 0 0 0 1.75-7c-4.566 6.8-7.684 12.133-9.35 16l-.5-.5c.533-2.634 1.616-5.566 3.25-8.801-1.9 2.834-3.983 5.934-6.25 9.301l-1-.25c1.866-4.2 4.45-8.9 7.75-14.101a355.974 355.974 0 0 1-11.75 11.601c-.667-.167-1-.5-1-1 4.1-4.134 9.399-10.066 15.899-17.801-7.366 3.768-15.333 6.533-23.899 8.301a150.828 150.828 0 0 0 15.5-6.301c-.233.033-.45.051-.65.051-1.066 0-1.7-.066-1.899-.2-.134-.067-.2-.25-.2-.55.1 0 .184-.283.25-.851.1-.733.184-1.2.25-1.399 4.666-1.934 11.366-7.316 20.1-16.15l.7-.7c.467-1.066.95-2.1 1.45-3.1a36.016 36.016 0 0 1-5.45 1.55 2608.99 2608.99 0 0 1-14.05 11.65c2.5-2.667 6.416-6.417 11.75-11.25-1.4.166-2.816.25-4.25.25-1.767 0-2.934-.834-3.5-2.5 3.1.899 6.633.783 10.6-.351.634-.566 1.283-1.149 1.95-1.75.467-.399.9-.783 1.3-1.149-4.533 1.833-7.7 2.75-9.5 2.75-1.899 0-3.35-.25-4.35-.75 2.267-.834 8.717-3.75 19.35-8.75a10.071 10.071 0 0 0-.149-1.051c-6.134 2.367-10.084 3.551-11.851 3.551-1.899 0-3.35-.25-4.35-.75.1-.033 1.2-.518 3.3-1.45-.366-.4-.717-1.083-1.05-2.05.166-1.367 3.666-3.917 10.5-7.65a79.932 79.932 0 0 0 2.399-1.3c.034-.034.034-.067 0-.101-4.3 1.7-7.399 2.551-9.3 2.551a23.08 23.08 0 0 1-3.7-.301c-1.166-.199-1.883-.434-2.149-.699.1-.367.55-.717 1.35-1.051l1.15-.35c2.967-.267 6.3-1.05 10-2.35l-10 .35-.75-.2c-1.967.534-3.217 1.017-3.75 1.45-.667-.166-1-.5-1-1l.25-1.5c1.066-.434 3.267-.983 6.6-1.65a.563.563 0 0 0 .15-.1h.25c.5-.1 1.017-.2 1.55-.3a.445.445 0 0 0-.05-.2c.033-.033 1.1-1.033 3.2-3-3.367.5-6.601.75-9.7.75-1.2 0-1.934-.017-2.2-.05-.167 0-.517-.067-1.05-.2 4.033-1.533 7.95-2.816 11.75-3.85v-.15c0-.967.316-2.117.95-3.45-2.634.3-5.117.45-7.45.45-1.033 0-1.684-.166-1.95-.5-.134-.166-.15-.334-.05-.5.733-.233 1.5-.483 2.3-.75h-.05c-1.033 0-1.851-.2-2.45-.6-.3-.234-.483-.45-.55-.65 1.533-.4 6.399-1.733 14.6-4l1-1.2v-2.7c-3.8.634-6.833.851-9.1.65.866-1.267 2.1-2.35 3.7-3.25-.667-.066-1.15-.217-1.45-.45-.101-.066-.351-.417-.75-1.05.399-.6 1.399-1.1 3-1.5 1.633-.066 3.184-.15 4.649-.25v-.5c-.8-.033-1.25-.15-1.35-.35a.57.57 0 0 1-.05-.4v-1.5c.5-.3.983-.6 1.45-.9.066-.899.1-1.8.1-2.699-.866-.533-1.75-1.084-2.65-1.65-2.899 1.666-4.616 2.834-5.149 3.5-.5-.334-.834-.75-1-1.25l-.25-1.5c1.2-.7 2.55-1.45 4.05-2.25-2.8-1.834-5.7-3.934-8.7-6.3-3.967.366-7.8.667-11.5.899-.033.4-.066.783-.1 1.15h-.75c-.066-.334-.134-.7-.2-1.1-1.9.1-3.767.184-5.6.25-.067 1.366-.217 2.399-.45 3.1h-1c-.167-1.033-.334-2.05-.5-3.05-1 .033-1.983.066-2.95.1.134.667.2 1.317.2 1.95 0 1.1-.017 1.7-.05 1.8-.067.101-.217.25-.45.45h-1.25c-.233-1.267-.617-2.65-1.15-4.15-1.666 0-3.3-.016-4.899-.05.8 2.967 1.816 6.116 3.05 9.45h-.75c-.134-.467-1.184-3.2-3.15-8.2-.166-.433-.333-.85-.5-1.25-.467-.033-.916-.05-1.35-.05-.033.967-.367 1.633-1 2-.601.367-.983.367-1.15 0-.133-.666-.3-1.367-.5-2.1h-.399c.866 3.666 1.416 5.866 1.649 6.6l-1-.25c-.666-2-1.3-4.15-1.899-6.45l-1.851-.1c.533 3.066.851 5.733.95 8 .033.167.05.316.05.45v1.099c0 1.133-.066 2-.2 2.6-.066.334-.25.884-.55 1.65a1.583 1.583 0 0 1-.3-.4c-.2.434-.767.65-1.7.65-.5-.9-1.25-2.233-2.25-4-.033 1.166-.116 2.084-.25 2.75h-.75c-.066-.434-.133-.883-.2-1.35-.033.1-.05.217-.05.35h-.75a28.704 28.704 0 0 0-.149-4.4 45.475 45.475 0 0 0-.551-2 5.674 5.674 0 0 0-.35-.6c.033.166.05.3.05.4 0 1.1-.083 1.75-.25 1.949-.133.167-.467.384-1 .65l-1-.25c-.333-2.5-1.149-5.467-2.45-8.9-.699-.133-1.383-.266-2.05-.399 1 3.533 1.617 6.216 1.851 8.05.066.1.116.184.149.25l-.1.25c.066.434.1.816.1 1.15 0 1.1-.116 1.883-.35 2.35-.066.133-.367.467-.9 1l-.75.65c-.5.199-.75-.217-.75-1.25a52.04 52.04 0 0 0-.35-6.051c-.367-.5-.75-1.016-1.15-1.55.101.233.184.467.25.7l-1 .5-5.55-8c-1.366-.133-2.35-.2-2.95-.2 3 4.9 4.5 8.017 4.5 9.351 0 1.033-.017 1.566-.05 1.6-.066.033-.217.117-.45.25h-1c-.533-1-1.116-2.084-1.75-3.25.167.4.25.733.25 1 0 1.066-.066 1.65-.2 1.75-.133.1-.399.184-.8.25-3.333-4.367-6.116-8-8.35-10.9-.767.033-1.533.066-2.3.101 2.166 3.433 3.716 6.5 4.649 9.2l-.5 2.6c-1.666 0-2.666-.084-3-.25.101-2.967-1.133-6.783-3.7-11.45l-2.6.101c1.366 1.967 2.05 3.3 2.05 4 0 1.166-.083 1.967-.25 2.399-.1.267-.434.75-1 1.45-.833-1.767-2.5-4.283-5-7.55-1.899.134-3.816.283-5.75.45 2 2.232 3 3.649 3 4.25 0 1.033-.083 1.533-.25 1.5-.1-.033-.184-.167-.25-.4l-1.75.25a996.556 996.556 0 0 0-4.8-5.15c-1.634.167-3.267.367-4.9.601a119.182 119.182 0 0 1 3.7 3.3c-.333.5-1 .916-2 1.25a251.34 251.34 0 0 0-5.05-4.1c-1.467.232-2.917.482-4.35.75 1.5 1.3 2.3 2 2.399 2.1l-.5 1.4c.434.133.851.25 1.25.35-.133.4-.566.75-1.3 1.05-.8.3-1.783.45-2.95.45-1.8 0-3.983-.717-6.55-2.15a490.136 490.136 0 0 0 3.8 3.65c-.166.5-.75.75-1.75.75a539.15 539.15 0 0 0-6.1-5.2c-.334.067-.667.15-1 .25 3.399 3.167 5.434 4.983 6.1 5.45-2.5-.2-5.383-1.6-8.649-4.2.267.366.399.684.399.95 0 .834-.2 1.316-.6 1.45.5.466.783.733.85.8l-.5.75a46.925 46.925 0 0 1-5.55-3.1l-1.1.3a136.526 136.526 0 0 1 3.649 4.3h-2.75c-.2-.934-1.017-2.2-2.45-3.8a.843.843 0 0 0-.25.05c-1 .3-2.066.633-3.199 1 1.533 1.767 2.5 2.85 2.899 3.25-.166.5-.75.834-1.75 1a323.581 323.581 0 0 1-3.45-3.5l-2.85.95c.8 1.333 1.2 2.233 1.2 2.7 0 1-.066 1.516-.2 1.55-.134.033-.4.05-.8.05-.334-.533-1.15-1.717-2.45-3.55a522.295 522.295 0 0 0-5.55 1.85c0 .9-.05 1.417-.15 1.55-.066.134-.35.268-.85.4l-.75-.5a10.95 10.95 0 0 0-.15-.8c-.233.1-.467.183-.7.25-.833.267-1.666.517-2.5.75-.366.399-.833.833-1.399 1.3-.066-.233-.15-.533-.25-.9-.867.234-1.733.434-2.601.601.567 1.966.851 3.533.851 4.7 0 1.266-.017 2.033-.05 2.3-.067.3-.217.566-.45.8l-.5-.5c.366-1.9.1-4.267-.8-7.1a71.528 71.528 0 0 1-4.15.649c.066.101.116.2.15.3 1.199 2.967 1.8 5.184 1.8 6.65 0 1.1-.017 1.684-.05 1.75-.067.1-.217.184-.45.25-.066-1.9-1.033-4.45-2.9-7.65a35.139 35.139 0 0 0-.7-1.149c-.566.033-1.149.05-1.75.05 0 .9-.05 1.816-.149 2.75 0 1.1-.017 1.684-.05 1.75-.067.1-.217.184-.45.25-.2-.767-.417-2.383-.65-4.85-.3-.066-.633-.134-1-.2.267 1.267.4 2.616.4 4.05 0 1.033-.066 1.617-.2 1.75-.066.1-.25.184-.55.25-.566-1.6-1.084-3.066-1.55-4.4 0 .134.017.268.05.4l-1-.25c-.066-.7-.267-1.55-.601-2.55a.921.921 0 0 0-.3-.05 133.64 133.64 0 0 0-3.1 1.55v.05c0 1.033-.084 1.55-.25 1.55-.101 0-.184-.1-.25-.3a5.648 5.648 0 0 1-.351-.9 231.18 231.18 0 0 0-3.05 1.601c-6.066.667-11.967.899-17.7.7a.54.54 0 0 1 .051.225.333.333 0 0 0-.101-.225c-.399 0-.816-.018-1.25-.051.867 2.601 1.167 4.816.9 6.65l-1-.25c-.066-1.7-.533-3.85-1.4-6.45a91.05 91.05 0 0 1-2.95-.25c.034.134.067.284.101.45.399 2.3.816 5.467 1.25 9.5l-1-.25c-.634-4-1.117-7.017-1.45-9.05a4.878 4.878 0 0 0-.15-.75 233.175 233.175 0 0 1-4.35-.55c.533 3.467.8 5.467.8 6 0 1.033-.017 1.55-.05 1.55-.066.033-.217.05-.45.05-.7-1.967-1.3-4.517-1.8-7.65a.444.444 0 0 0-.05-.199 105.058 105.058 0 0 1-8.65-1.75v10.6l-1-.25c0-3.967.017-7.5.05-10.6a107.518 107.518 0 0 1-8.05-2.5V704c-.666 1.5-1 4-1 7.5l-1-.25v-6c.267-.767.483-1.633.65-2.6-.601-.234-1.217-.467-1.851-.7-.199.333-.383.616-.55.85-1.333 1.767-2.75 2.917-4.25 3.45.667-1.334 1.717-2.934 3.15-4.8a.563.563 0 0 1 .1-.15c-9.566-4.033-18.6-9.634-27.1-16.8-.233-.2-.483-.416-.75-.65-4.167-.6-7.65-3.05-10.45-7.35a25.691 25.691 0 0 1-3.2-7c0-3.033-.383-5.267-1.149-6.7a34.353 34.353 0 0 1-.101-2.649c0-.834.084-1.801.25-2.9-1.233.1-2.483.15-3.75.15a37.66 37.66 0 0 0 3.8-.65 78.38 78.38 0 0 1 .601-3l.399-.7a45.535 45.535 0 0 1-3.8-1.649 16.612 16.612 0 0 1 4.95-.551 73.649 73.649 0 0 0 2.25-4.85c-1.733-.566-2.634-.85-2.7-.85-.967 0-1.483.066-1.55.199 0 .033-.066-.033-.2-.199l.5-.75c1.2-.101 2.667.05 4.4.449l.2-.5a5.887 5.887 0 0 1-.351-1.949c0-1.066.184-2.051.55-2.95a13.685 13.685 0 0 0-2.05-.05c.101-.2.717-.384 1.851-.551l.55-.05a7.568 7.568 0 0 1 1.6-2c.3-.267.601-.5.9-.7a.385.385 0 0 0 .05-.149c.167-.5.333-.983.5-1.45-2.066-.566-4.35-1.2-6.85-1.9a172.004 172.004 0 0 0-7.426-1.649 2.91 2.91 0 0 0 .226-1.025c3.75.953 6.983 1.778 9.7 2.476 1.666.434 3.199.85 4.6 1.25l.125-.375c-4.472-.827-9.979-2.785-16.525-5.875-9.62-4.52-15.428-7.045-17.439-7.578 13.784 3.22 23.31 6.153 28.575 8.8 5.292 2.66 7.309 3.502 6.05 2.525.307-1.02.606-2.053.9-3.101-1.2-.533-2.667-1.083-4.4-1.649l.25-.5c.867-.167 2.334.283 4.4 1.35.666-2.3 1.283-4.666 1.85-7.1-1.733-1.101-2.816-1.851-3.25-2.25.667 0 1.851.35 3.55 1.05a.818.818 0 0 0 .051-.25c.199-.434.399-.851.6-1.25-3.467-1.767-7.7-3.95-12.7-6.55-8.434-4.367-15.684-7.533-21.75-9.5 7.033 2.133 14.4 5.116 22.101 8.949a856.28 856.28 0 0 0 12.6 6.5c.066-.1.116-.199.15-.3a184.215 184.215 0 0 1 2.05-4.35c-1.601-1.366-2.483-2.467-2.65-3.3 1.033.232 2.2.75 3.5 1.55a123.952 123.952 0 0 1 2.65-4.95c-4.8-2.834-11.05-6.4-18.75-10.7-11.767-6.566-19.233-11.533-22.4-14.899 11.2 5.866 19.95 10.6 26.25 14.199 6.233 3.533 11.483 6.851 15.75 9.95.867-1.466 1.667-2.716 2.4-3.75-4.367-4.667-10.05-9.5-17.05-14.5-.167-.134-5-3.5-14.5-10.1-6-4.134-10.95-7.784-14.851-10.95 6.434 2.1 17.134 8.883 32.101 20.35 6.866 5.234 12.166 9.601 15.899 13.101a2007.3 2007.3 0 0 1 4.601-15.55 311.213 311.213 0 0 1 2.149-6.9c-.166-.934-.25-1.633-.25-2.1 0-1.2.017-1.917.05-2.15.034-.166.184-.45.45-.85h1c.033.366.05.75.05 1.149.934-2.667 1.9-5.384 2.9-8.149a342.373 342.373 0 0 0-.95-6.9c.934.7 1.733 1.717 2.4 3.05.7-1.866 1.434-3.767 2.2-5.7-1.4-4.567-2.101-7.883-2.101-9.95 0-1.066.05-1.85.15-2.35 0-.033.116-.383.35-1.05h.75c.3 1.867 1.117 4.95 2.45 9.25.566-1.4 1.15-2.8 1.75-4.2a781.414 781.414 0 0 0-4.95-10.05c1 1 2.8 3.95 5.4 8.85 1-2.367 2.017-4.767 3.05-7.2-.3-3.233-.45-6.4-.45-9.5 0-1.033.167-1.533.5-1.5l.5.35h.75c-.366 2.566-.483 5.383-.35 8.45.833-1.967 1.7-3.95 2.6-5.95-1-5.333-1.5-8.533-1.5-9.6 0-1.267.167-2.9.5-4.9h.75c.2 2.3.667 6.283 1.4 11.95 1.106-4.602 2.539-7.802 4.3-9.6-.333-4.367-.816-7.483-1.45-9.35 1 1.4 1.783 3.883 2.351 7.45 2.259-.562 3.575-3.395 3.949-8.5-.833-3-1.933-5.1-3.3-6.3 1.7.2 3.05 1.767 4.05 4.7.605-5.987 2.238-9.387 4.9-10.2-2.6-3.333-5-6.133-7.2-8.4l.25-1.1c2.3 1.1 4.967 3.55 8 7.35.2-.333.367-.667.5-1-2.166-6.7-3.25-10.95-3.25-12.75 0-2.733.25-5.6.75-8.6h1c-.833 3.9-.333 9.133 1.5 15.7v-.2c-.666-4.433-1-8.35-1-11.75 0-1.333.017-2.183.05-2.55.067-.434.217-.833.45-1.2h1c.3 2.7.851 7.317 1.65 13.85.1.867.916.267 2.45-1.8-.034-.967-.067-2-.101-3.1-.233-5.567-.35-8.767-.35-9.6 0-1.033.05-1.833.149-2.4.134-.633.25-1.2.351-1.7h.75c.033.467.35 4.184.95 11.15.066.667.116 1.284.149 1.85 1.934-5.033 2.884-8.2 2.851-9.5-.134-6.433-.2-10.066-.2-10.9 0-1 .017-1.533.05-1.6.134.1.283.017.45-.25.967.967 1.666 3.35 2.1 7.15.167 1.4.267 2.817.3 4.25.334-.6.65-1.2.95-1.8-.133-.967-.267-1.983-.399-3.05-.967-7.534-1.45-12.55-1.45-15.05 0-1 .05-1.6.149-1.8.134-.034.25-.184.351-.45.967 2.467 1.916 7.55 2.85 15.25.066.633.983-.333 2.75-2.9v-.2c-1.399-8.066-2.1-12.7-2.1-13.9 0-1.133.116-2 .35-2.6.134-.333.517-.966 1.15-1.9l.399.1c.101-.5.217-.95.351-1.35h1.25c.267 1.833.833 4.967 1.7 9.4a64.76 64.76 0 0 1 .55 3.75c-.334-10.7-.5-17.5-.5-20.4 0-1.066.017-1.667.05-1.8.033-.034.1-.184.2-.45h.75c.166 1.6 1.2 7.017 3.1 16.25.434-.733.851-1.45 1.25-2.15v-.05c-1.833-8.634-2.866-13.4-3.1-14.3.8.167 1.55.684 2.25 1.55-.267-1.567-.434-2.833-.5-3.8 1.666.934 3.316 4.2 4.95 9.8l.1.4c-.167-7.3-1.1-12.534-2.8-15.7 1.767.534 3.95 3.684 6.55 9.45.667-1.1.634-3.284-.1-6.55-3.667-5.633-5.9-9.767-6.7-12.4 1.1.7 3.467 3.517 7.1 8.45a108.144 108.144 0 0 0-1.85-4.2c2.6 1.667 4.75 3.917 6.45 6.75.5-.767.983-1.517 1.449-2.25a8.685 8.685 0 0 0-.1-.45c-4.467-4.067-8.483-7.167-12.05-9.3.066-.133.3-.283.7-.45.267-.233.767-.483 1.5-.75.199-.067.383-.134.55-.2v-.1c.967-.833 2.116-1.417 3.45-1.75-1.634-.267-2.7-.517-3.2-.75 2.2-.533 4.7-.867 7.5-1l-.25-.5c2.366-2.033 6.75-2.6 13.149-1.7.034 0 .067.017.101.05a.563.563 0 0 1 .1-.15 12.423 12.423 0 0 0-.2-.1c-4.233-1.7-6.699-2.9-7.399-3.6.1-.3.717-.583 1.85-.85l1.65-.3c1.066.8 2.916 1.733 5.55 2.8a50.84 50.84 0 0 1 1.55-2.15 25.85 25.85 0 0 1-1.149-.45c-6.2-2.434-9.934-4-11.2-4.7 5.533 1.066 10.05 2.25 13.55 3.55a95.79 95.79 0 0 1 2-2.7c-.2-.1-.4-.184-.6-.25-5.134-1.833-8.117-3.034-8.95-3.6a608.048 608.048 0 0 1 10 3.3c-.807-2.617.909-4.817 5.149-6.6-2.699-.833-4.966-1.717-6.8-2.65-1.767-.9-3.967-2.083-6.6-3.55.1-.2.55-.383 1.35-.55l1.15-.2c1.033.533 4.616 2.017 10.75 4.45.566.233 1.1.45 1.6.65.733-.9 1.467-1.784 2.2-2.65a187.592 187.592 0 0 1-5.05-2.7c.1-.2.55-.383 1.35-.55l1.15-.2c.434.4 1.633 1.133 3.6 2.2l1.101-1.3c-.667-.466-1.334-1.066-2-1.8-.9-1.034-1.884-2.317-2.95-3.85 1.066.434 1.833 1.05 2.3 1.85.333.9.667 1.55 1 1.95.4.5 1.15.9 2.25 1.2.3-.333.583-.667.85-1-.333-.367-.699-.75-1.1-1.15-2.033-1.967-3.217-3.417-3.55-4.35.533 0 2.033 1.083 4.5 3.25.399.367.783.717 1.149 1.05 1.667-1.966 2.5-4.35 2.5-7.15-3.366-2.066-5.333-3.617-5.899-4.65.399.2 2.649 1.5 6.75 3.9.733.434 1.434.833 2.1 1.2a49.759 49.759 0 0 0 1.65-2.05c-2.733-3.033-5.283-5.216-7.65-6.55.101-.2.55-.434 1.351-.7l1.149-.3c1.733 1.6 3.733 3.733 6 6.4 1.03-1.329 1.413-3.054 1.15-5.175-4.022-2.576-6.906-3.984-8.65-4.225.101-.2.55-.383 1.351-.55l1.149-.2c3.434 2.2 6.25 4.05 8.45 5.55 1.134-1.566 2.217-3.1 3.25-4.6-1.733-2.167-3.467-3.9-5.2-5.2l.25-.5c1.566.467 3.367 2.15 5.4 5.05 1.41-8.391 3.693-12.074 6.85-11.05a211.4 211.4 0 0 0-3.649-2.65c-6.233-4.434-12.217-8.417-17.95-11.95.1-.2.55-.383 1.35-.55l1.15-.2c4.366 1.867 8.783 4.15 13.25 6.85a79.672 79.672 0 0 1-5.5-4.6c3.666 1.267 8.517 3.617 14.55 7.05.3-.634.6-1.25.9-1.85-8.267-3.8-13.417-6.867-15.45-9.2 5.833 1.934 10.85 3.717 15.05 5.35a39.915 39.915 0 0 1-5.75-3.6c-4.767-3.6-7.866-7.517-9.3-11.75.934.667 5.717 3.534 14.35 8.6-.566-1.467-1.1-2.816-1.6-4.05-8.101-4.967-13.434-9.317-16-13.05l.25-1.5c4.733 5.233 9.833 9.717 15.3 13.45-.9-2.233-1.634-4.05-2.2-5.45 1.733 1.233 3.867 3.483 6.4 6.75-2.2-3.966-4.667-9.216-7.4-15.75 1.533 1.3 3.033 3.067 4.5 5.3-.6-2.067-1.149-4.384-1.649-6.95l-.101-.5c-1.2-1.7-2.2-3.217-3-4.55l-1-.8c.066-.1.2-.2.4-.3-.934-1.8-1.4-3.25-1.4-4.35 0-1 .017-1.533.05-1.6.034.1.101.017.2-.25h.75c.167 1.8.8 3.75 1.9 5.85l.6-.1c.101.067.217.15.351.25-.233-1.2-.434-2.2-.601-3 .566.867 1.15 2.1 1.75 3.7.167.1.316.2.45.3-.8-1.833-1.616-3.8-2.45-5.9l.101-.45a207.472 207.472 0 0 1-2.851-3.65c.767.934 1.733 2.083 2.9 3.45l.1-.45c.2.4.4.817.601 1.25 1.366 1.5 2.983 3.267 4.85 5.3.8.066 2.033.667 3.7 1.8-.7-.733-1.367-1.5-2-2.3-1.601-2.1-3.517-5.05-5.75-8.85-.233-.067-.45-.133-.65-.2l.3-.4c-.333-.6-.683-1.217-1.05-1.85.634.467 1.25.917 1.851 1.35 3.966-.867 8 .033 12.1 2.7.033-.867.05-1.733.05-2.6a30.487 30.487 0 0 0-1.1-1.05c-5.167-.267-11.217-.483-18.15-.65 6.467-.433 12.066-.65 16.8-.65-5.1-4.867-8.699-7.65-10.8-8.35.101-.2.667-.367 1.7-.5a1345.13 1345.13 0 0 1-10.7-8.5c.101-.2.55-.383 1.351-.55l1.149-.2c2.4 2.1 7.167 5.817 14.3 11.15l5.5 4.1v-.95c-.366-.434-.75-.867-1.149-1.3a432.835 432.835 0 0 1-3.55-4.05c-2.7-.9-5.2-2.067-7.5-3.5-2.9-1.8-5.851-4.2-8.851-7.2.733.367 3.033 1.817 6.9 4.35 3.399 2.233 5.684 3.533 6.85 3.9.233.067.5.133.8.2-1-1.267-1.85-2.417-2.55-3.45 2.3.567 4.717 1.8 7.25 3.7.5 0 .983.017 1.45.05a231.06 231.06 0 0 1-2.45-2.7c-3.366-3.9-5.533-7.417-6.5-10.55.367.267.783.617 1.25 1.05-2.333-2.934-4-5.784-5-8.55.733.534 3.917 4.067 9.55 10.6a138.256 138.256 0 0 0 3.301 3.75v-.9a116.689 116.689 0 0 1-2.551-3.9c-4.533-7.034-6.8-11.384-6.8-13.05 0-1.033.017-1.566.05-1.6.134.067.284-.033.45-.3.3.233.601.483.9.75-.101-.7-.15-1.367-.15-2 1.867.7 4.417 3.217 7.65 7.55-.033-.7-.066-1.4-.101-2.1a33.81 33.81 0 0 1-2.1-3.2c-.967-1.6-2.116-3.55-3.45-5.85-1.233-1.566-2.483-3.15-3.75-4.75.767.733 1.601 1.55 2.5 2.45a146.92 146.92 0 0 1-1.25-2.35c2.167.5 4.667 3 7.5 7.5.101.167.184.333.25.5-.2-3.867-.45-7.833-.75-11.9-1.1-1.667-1.85-3.067-2.25-4.2.434.7 1.167 1.767 2.2 3.2-.066-.867-.134-1.75-.2-2.65-1.399-2.634-2.483-5.034-3.25-7.2l.25-1.5h.75c0 .3 1.15 2.35 3.45 6.15 1.767-1.367 4.233-1.4 7.4-.1a9.628 9.628 0 0 0-.15-.85c-.8-3.833-1.616-6.567-2.45-8.2 1.834 1.066 3.384 3.867 4.65 8.4.2.667.366 1.3.5 1.9.267.134.533.284.8.45 1.467.867 2.767 1.767 3.9 2.7.199-2.2.583-4.434 1.149-6.7h2.75c-1.333 2.333-1.583 5.35-.75 9.05.066.3.117.583.15.85 1.6 1.867 2.649 3.833 3.149 5.9.967 3.733 4.95 7.95 11.95 12.65-1.166-3.867-1.75-6.967-1.75-9.3 0-1.033.084-1.533.25-1.5l.25.35c.601.367 2.05 2.833 4.351 7.4 1.366 2.7 2.366 5.017 3 6.95 1.5.933 3.05 1.983 4.649 3.15l.15-1.65c.2-2.434.149-4.25-.15-5.45 1.733 1.4 3.184 4.717 4.351 9.95l.1.5c.366.267.717.533 1.05.8.066-.6.15-1.183.25-1.75h1.5v3.2c3.267 2.6 6.783 5.583 10.55 8.95-.033-.733-.05-1.45-.05-2.15 0-1.033.283-3.433.851-7.2l1.399-9.3h.75v4.5c-.5 1.9-.967 4.117-1.399 6.65-.4 2.567-.601 4.467-.601 5.7 0 .767.084 1.717.25 2.85.5.466 1.017.933 1.55 1.4 0-.2.017-.417.051-.65.5-5.034 1.05-8.017 1.649-8.95 0 .167.667.25 2 .25 0 2.667.101 6.35.3 11.05 1.101-5.967 1.584-10.317 1.45-13.05.7.333 1.267 1.1 1.7 2.3.7-4.567 1.134-7.667 1.3-9.3h1c.334 5.333.5 8.917.5 10.75 0 1.167-.566 6.267-1.7 15.3a36.72 36.72 0 0 1 1.7 1.6c.134-.6.25-1.216.351-1.85 2.066-11.867 3.116-18.05 3.149-18.55h.75c.334 3.333.5 5.534.5 6.6 0 1.133-.649 6.316-1.95 15.55a6.772 6.772 0 0 1-.149.8c.434.4.85.8 1.25 1.2.133-.733.283-1.45.45-2.15.033-.167.066-.316.1-.45 1.033-5.467 1.85-10.483 2.45-15.05-.867-4.433-2.334-10.6-4.4-18.5 2.533.6 4.25 4.85 5.15 12.75h1c0 1.167.083 3.117.25 5.85 0 .7-.017 1.434-.05 2.2.199.133.383.3.55.5v-11.55l.25-.75h.75v13.1c.633-.733 1.3-1.434 2-2.1-.467.934-.934 2.1-1.4 3.5 1.2 1.967 2.316 4.7 3.351 8.2l.5 1.7c1.066-.267 2.116-.517 3.149-.75-1.866-7.133-2.983-12.35-3.35-15.65 1.366 1.434 3.184 5.5 5.45 12.2.3.933.583 1.85.85 2.75h.05c0-3.534-.116-7.184-.35-10.95.899.534 1.5 2.684 1.8 6.45.066 1.066.116 2.433.15 4.1 2.8-.634 5.483-1.167 8.05-1.6.5-5.567.75-9.35.75-11.35 0-.967-.134-1.617-.4-1.95-.233-.333-.35-.55-.35-.65 2.233 1.034 3.233 3.45 3 7.25-.101 1.967-.434 4.05-1 6.25v.1c1.1-.2 2.166-.367 3.2-.5.033-.633.05-1.25.05-1.85 0-.867-.15-1.716-.45-2.55-.2-.567-.217-.967-.05-1.2 1.666.267 2.5 1.517 2.5 3.75 0 .5-.033 1.017-.101 1.55 1.534-.2 3.034-.367 4.5-.5.434-.3.884-.567 1.351-.8l.2.65a88.422 88.422 0 0 1 8.199-.3 47.525 47.525 0 0 1 3.351-5.35h1.5c-.667 1.4-1.5 3.2-2.5 5.4 3 .067 5.783.35 8.35.85a17.47 17.47 0 0 1 2.15-2c0 .067.083.167.25.3.166.1.25.25.25.45-.434.467-.851.967-1.25 1.5 1.967.434 3.8.967 5.5 1.6 2.333-2.2 4.95-4.4 7.85-6.6v.25a102.702 102.702 0 0 0-6.899 6.75 26.9 26.9 0 0 1 4.25 2.2c2.899-2.2 6.199-4.267 9.899-6.2h.75a528.63 528.63 0 0 0-8.95 7.4c.867.6 1.7 1.184 2.5 1.75 2.5-1.167 4.733-1.216 6.7-.15l-.25.75c-1.133-.267-2.533.1-4.2 1.1a133.754 133.754 0 0 1 4.351 3.35c1.8-1.4 3.25-2.3 4.35-2.7 0 .167.25.333.75.5-.8 1.667-1.583 3.133-2.35 4.4a95.73 95.73 0 0 1 1.85 1.6c2.5-2.4 4.584-3.15 6.25-2.25-.3 1.067-1.416 2.7-3.35 4.9 1.8 1.667 3.35 3.284 4.649 4.85 1.101-2.033 2.417-4.2 3.95-6.5l.75.25c-.767 1.8-1.95 4.3-3.55 7.5.167-.2.316-.417.45-.65.434-.6 1.8-2.633 4.1-6.1.867.267 1.5.733 1.9 1.4.333.534.517 1.267.55 2.2.434-.767.7-1.3.8-1.6h.75c0 .2.033.55.101 1.05.033.167.05.366.05.6 1.633-3.2 3.5-4.667 5.6-4.4-.333.867-.233 4.45.3 10.75.067.967.134 1.867.2 2.7 1.2-6 2.2-9.983 3-11.95 1.4 1.2 2.533 3.383 3.4 6.55.434-1.2.916-2.284 1.45-3.25.267-4.2 1.033-6.733 2.3-7.6 1.366-.9 3.1.167 5.2 3.2.466.7.933 1.434 1.399 2.2.033-.867.101-1.5.2-1.9.066-.2.333-.767.8-1.7 1.934.667 3.45 3.25 4.55 7.75.434 1.7 1.351 3.934 2.75 6.7v-3.9c-1.733-3.967-2.583-7.483-2.55-10.55l.5-2.25c.967.967 2.783 4 5.45 9.1h4.5c-6.967-7.833-10.45-12.117-10.45-12.85 0-1.033.084-1.6.25-1.7l.25.2c.3.2 3.017 2.917 8.15 8.15-.134-.2-.25-.383-.351-.55-2.166-3.267-4.85-7.883-8.05-13.85 3.8 2.333 8.101 6.617 12.9 12.85h4.649c-2.633-1.434-4.216-2.4-4.75-2.9-6.866-6.567-10.3-11.184-10.3-13.85 0-1.033.084-1.533.25-1.5l.25.4c2.634 1.833 6.566 5.25 11.8 10.25-3.199-3.333-5.716-5.917-7.55-7.75 3.9.633 7.3 2.483 10.2 5.55h4.65c-3-3.5-5.284-6.684-6.851-9.55 1.2.233 2.834 1.367 4.9 3.4.899.9 2.149 2.284 3.75 4.15v-7.05c.7.7.233-.383-1.4-3.25l.75-1.5c1.667 1.1 3.601 3.2 5.8 6.3v-7.4c-.699-3.066-1.05-5-1.05-5.8 0-1.066.066-1.717.2-1.95.267-.167.533-.383.8-.65 1 0 1.65.067 1.95.2.7.267 1.05.95 1.05 2.05 0 .1 1.334 2.133 4 6.1l1.05-1.15c-.366-.5-.767-1.017-1.199-1.55-4.9-6.133-7.351-9.683-7.351-10.65 0-1 .101-1.6.3-1.8l.45-.45c3 2.967 5.9 6.017 8.7 9.15-2.8-3.866-4.2-6.716-4.2-8.55 0-1 .017-1.533.05-1.6.134.1.284.017.45-.25.367-.2.684-.3.95-.3.533 0 .8.517.8 1.55 0 1.233 1.601 3.85 4.8 7.85-1.051-6.356.85-7.539 5.7-3.55-1.633-3.2-3.8-7.517-6.5-12.95 2.634.833 5.217 2.633 7.75 5.4a140.838 140.838 0 0 1-4.35-8.15c2.967 2.4 6 5.483 9.1 9.25l1.75-1.9h2.7c-7.536-7.068-9.812-9.526-6.825-7.375 2.992 2.154 3.15 1.271.476-2.65-2.678-3.922-4.078-6.364-4.2-7.325h1c.242 1.821 2.067 4.188 5.475 7.1-1.779-1.811-2.938-3.76-3.475-5.85 2.431 2.096 4.989 5.096 7.675 9 .06.083.118.166.175.25l.075.075c.434.652.875 1.327 1.325 2.025l.8-.85a5.757 5.757 0 0 0-.25-.7c-1.967-4.733-3.4-9.116-4.3-13.15l.5-2.65h.75c.166 2.533 2.066 7.167 5.7 13.9v.05l2.25-2.45c-1.601-3.833-2.584-6.95-2.95-9.35l.25-1.15c1.5 1.767 3.1 4.533 4.8 8.3h3.7c-2.167-5.566-3.25-9.366-3.25-11.4 0-2.5.25-4.883.75-7.15h1c0 2.767.983 4.9 2.95 6.4-.801-5.066-1.2-8.483-1.2-10.25 0-1.033.017-1.566.05-1.6.033.067.1-.033.2-.3h.75c.434 3.467 1.883 8.233 4.35 14.3h2.95c-2.7-5.1-4.05-8.033-4.05-8.8 0-2.5.25-4.5.75-6h1.5c.399 3.133 1.283 5.367 2.649 6.7-1.1-4.067-1.649-7.333-1.649-9.8 0-1.033.017-1.566.05-1.6.134.067.283-.033.45-.3l2 .25c-.066 2.267.967 6 3.1 11.2l1.15-1.2c-1.834-4.133-2.75-6.633-2.75-7.5 0-1.033.166-1.633.5-1.8.5-.034.916-.184 1.25-.45h.75c.133 1.767.916 4.267 2.35 7.5l2.25-2.45c-.967-3.966-2.083-6.983-3.35-9.05 1.8.6 3.6 2.883 5.399 6.85l.851-.9c-.167-.5-.25-.817-.25-.95 0-1.133.066-2 .2-2.6.066-.333.25-.966.55-1.9h1.25l.85 2.65.4-.4c-1.3-3.867-2.717-6.45-4.25-7.75 1.7.167 3.35 1.066 4.95 2.7-.801-3.2-1.2-5.3-1.2-6.3 0-1.2.066-2.133.2-2.8.133-.6.399-1.3.8-2.1h1.25c.033.333.467 1.717 1.3 4.15-1.033-3.833-1.55-6.966-1.55-9.4 0-1.066.017-1.667.05-1.8.033-.034.1-.184.2-.45h.75c.267 1.4 2.166 6.35 5.7 14.85l2.149-2.25c.033-.567.066-1.1.101-1.6a422 422 0 0 1-2-4.05c-3.967-7.967-5.95-13.9-5.95-17.8 0-1.066.017-1.667.05-1.8.033-.034.1-.184.2-.45h.75c.934 5.267 3.267 11.55 7 18.85.1.167.184.35.25.55.033-.433.05-.866.05-1.3-1.533-3.633-2.3-6.083-2.3-7.35 0-1.233.149-2.183.45-2.85.333-.633.933-1.267 1.8-1.9h.75c.3 3.2 1.316 7.067 3.05 11.6.434-1.167 1.15-1.967 2.149-2.4-.266-.7-.533-1.367-.8-2-3.267-8.067-4.899-13.967-4.899-17.7 0-1.033.1-2.316.3-3.85.2-1.667.35-2.883.45-3.65h.75c.267 7.133 1.666 14.767 4.199 22.9.667 2.1 1.334 4.034 2 5.8l.601-.65c-2.467-7.767-3.7-12.333-3.7-13.7 0-1.333.117-3.117.351-5.35.233-2.367.533-4.45.899-6.25h1c-.134 5.4.9 12.217 3.1 20.45.101.367.2.75.301 1.15.233-.566.466-1.15.699-1.75a54.874 54.874 0 0 1 1.801-3.9c-1.167-9.934-2.301-16.75-3.4-20.45l.5-2.25h.75c.434 1.333.934 2.883 1.5 4.65.1-.233.217-.417.35-.55.5-.3.884-.583 1.15-.85h1.5c.8 5.233 1.634 9.667 2.5 13.3.5-.934 1.15-1.95 1.95-3.05-.533-1.966-1.101-3.55-1.7-4.75 1.5-.233 2.917.3 4.25 1.6 1.634-1.9 2.634-2.85 3-2.85.167 0 .35-.033.55-.1-.434-1.7-.7-2.833-.8-3.4.5.167 1.05.65 1.65 1.45-.534-1.167-1.084-2.067-1.65-2.7.4-.3.9-.6 1.5-.9l.75-.35c.667.434 1.45 1.483 2.35 3.15.4-.333.65-.533.75-.6a.596.596 0 0 0 .15-.1c-1.066-4.434-1.816-7.75-2.25-9.95-1 .333-1.833.417-2.5.25 1.134-.867 2.3-1.533 3.5-2 1.6.967 3.634 4.883 6.1 11.75.467-.4.917-.816 1.351-1.25.033-.433.083-.883.149-1.35.934-8.133 1.4-13.1 1.4-14.9 0-1.033-.35-1.816-1.05-2.35-.4-.267-.884-.483-1.45-.65 2.5-.033 4.55 1.083 6.15 3.35a116.214 116.214 0 0 0-5.15-13.35c.1-.2.55-.433 1.35-.7l1.15-.3c1.667 1.667 3.983 6.483 6.95 14.45.233.6.434 1.183.6 1.75-.066-1.967-.166-3.434-.3-4.4-.9-6.967-3.15-11.567-6.75-13.8.1-.2.55-.383 1.35-.55l1.15-.2c3.033 2 5.333 4.967 6.9 8.9-.434-2.033-.65-3.083-.65-3.15 0-1.133-.167-2.133-.5-3-.233-.6-.65-1.35-1.25-2.25l1-.75c1.9.034 3.85 3.167 5.85 9.4.801 2.534 1.417 4.833 1.851 6.9.233-.2.45-.384.649-.55-.267-1.4-.55-2.867-.85-4.4-2.333-11.4-3.5-17.267-3.5-17.6 1.6.467 3.7 4.333 6.3 11.6.4 1.133.767 2.217 1.101 3.25.033-.733.083-1.417.149-2.05.467-4.733 2.283-6.833 5.45-6.3 0 2 .083 4.617.25 7.85l3-2.5c.1-3.533.333-6.117.7-7.75.1-.4.35-1.283.75-2.65.1-.567.2-1.05.3-1.45.033.034.083.05.15.05a586.588 586.588 0 0 1 2.85-8.8h1.5c-.2 2.034-.217 4.867-.05 8.5.066 1.9.166 4.1.3 6.6v.2c.434-.367.85-.717 1.25-1.05.066-1.7.217-3.733.45-6.1.366-4.133.883-7.35 1.55-9.65 1.934.633 3.017 3.534 3.25 8.7.033.933.033 1.883 0 2.85a181.69 181.69 0 0 0 3.7-2.9c.267-1.466.566-3.083.899-4.85.934-4.767 1.817-8.867 2.65-12.3l-.25-1.5c.9.467 1.816 1.667 2.75 3.6.833 1.767 1.25 3.066 1.25 3.9 0 .5.1 2.267.3 5.3a.615.615 0 0 0 .15-.1c-.467-10.1-.7-15.717-.7-16.85 0-1 .017-1.533.05-1.6.033.1.101.017.2-.25h.75c.3 4.267.917 9.15 1.85 14.65.134.733.25 1.467.351 2.2l2.899-2.2c-.066-.9-.1-1.616-.1-2.15 0-4.667.333-8.667 1-12h2c-.066 2.3-.017 5.317.15 9.05.699-1.833 1.6-3.6 2.699-5.3.301-.966.684-1.883 1.15-2.75l.8.15c.2-.269.95-2.81 2.25-7.625 1.3-4.811 2.884-4.752 4.75.175.233-3.567.351-6.35.351-8.35 0-1.025-.267-1.559-.801-1.6 2.067.107 3.101 1.857 3.101 5.25 0 .6-.017 1.233-.05 1.9.433-.5.85-.966 1.25-1.4.199.1.399.267.6.5h1.15c0 .067.017.133.05.2.1-1.534.333-2.684.7-3.45.866.4 1.633.95 2.3 1.65.533.567.85.85.95.85.166-1 .25-2.8.25-5.4l2-.25c.199.167.383.35.55.55.7-4.366 1.1-6.966 1.2-7.8h.75c.066.667.183 1.5.35 2.5.1.9.15 1.867.15 2.9 0 1.8-.317 4.784-.95 8.95.1-.333.184-.667.25-1 1.533-6.567 2.6-10.267 3.2-11.1h1.5l.25 1.75c-.067.533-.15 1.133-.25 1.8.333-1.033.666-2.05 1-3.05.3 2.3.533 5.783.699 10.45.134-.1.25-.184.351-.25.733-5.667 1.967-10.067 3.7-13.2v-.1c.233-3.633.566-6.6 1-8.9h.999zm-15.75 23.4c-.601 2.967-1.051 4.867-1.351 5.7-.1.3-.233.633-.399 1 .5-.333.966-.65 1.399-.95.4-2.367.733-4.517 1-6.45-.266.467-.483.7-.649.7zm-92.2 79.8c.033.033.05.066.05.1l.05-.05-.05-.1c0 .034-.017.05-.05.05zm-264.4 109.65c-.033 1-.116 2.083-.25 3.25.267-.4.551-.784.851-1.15v-1.3a8.455 8.455 0 0 0-.601-.8zm.6 9.1a99.777 99.777 0 0 0-.851 4.8c.301-.1.584-.184.851-.25v-4.55zm1 4.3c1.066-.3 2.1-.583 3.1-.85-.767-3.833-1.684-6.917-2.75-9.25-.133.4-.25.833-.35 1.3v8.8zm-93.15 8.05c-1.333-1.633-2.55-3.1-3.649-4.4.8 1.467 1.699 3.017 2.699 4.65l.301-.1.649-.15zm.2 2.1c1.033.633 2.217 1.383 3.55 2.25a.876.876 0 0 0-.25-.25c-1.2-.9-2.35-1.65-3.45-2.25.034.067.084.15.15.25zm-1.45 2.75c.566.7.834.733.8.1-.733-.434-1.083-.55-1.05-.35.101.067.184.15.25.25zm3.351 10.4c1.1 2.6 2.449 4.967 4.05 7.1.033-.167.066-.316.1-.45-.366-.867-.7-1.65-1-2.35-1.434-3.434-2.934-6.083-4.5-7.95.499 1.534.949 2.75 1.35 3.65zm2.649-6.45c.3.4.601.816.9 1.25.267.367.517.733.75 1.1.533.233 1.05.45 1.55.65.033-.233.066-.45.1-.65a93.709 93.709 0 0 1-3.3-2.35zm4.25-10.5l.101-2.65c-2.801-1.667-5.884-3.05-9.25-4.15 4.433 3.233 6.783 4.95 7.05 5.15.733.567 1.433 1.116 2.099 1.65zm-68.2 113.3h-.149c-1.101 0-1.834.083-2.2.25a125.88 125.88 0 0 1 3.6 2.75c-.367-1.1-.784-2.1-1.251-3zm-.699-1.15c-1.534-.467-3.217-.833-5.051-1.1 1.2.833 2.317 1.65 3.351 2.45.566-.6 1.166-1 1.8-1.2-.001-.067-.034-.117-.1-.15zm7.649 1.2c.267-.4.517-.784.75-1.15a121.91 121.91 0 0 1-1.95-.8c-.108.489-.208.948-.3 1.375.523.198 1.023.39 1.5.575zm-1.675-.65c.152-.397.311-.831.475-1.3-2.966-.733-5.6-1.184-7.899-1.35 1.899.567 4.3 1.417 7.2 2.55.078.031.153.065.224.1zm7.925-8.55c-1.934-.233-4.05-.35-6.35-.35-1.5 0-3.584.667-6.25 2 1.866-.1 3.85-.083 5.95.05 1.633-.2 3.433-.167 5.399.1.435-.6.852-1.2 1.251-1.8zm377.65-207.65c-.2-.467-.384-.9-.551-1.3.101.434.217.934.351 1.5l.2-.2zM403.075 787.5c-1.533.233-2.85 1.3-3.95 3.2-1.7 2.866-2.967 4.716-3.8 5.55-.667-.166-1.083-.5-1.25-1 .167-1.166.65-3.2 1.45-6.1.7-2.566 1.05-4.283 1.05-5.15 0-1.566-.533-2.834-1.6-3.8-1.367-1.267-2.334-2.75-2.9-4.45-.134 0-.35.3-.65.9a5.08 5.08 0 0 1-1.6 1.85 2.909 2.909 0 0 0-.25-.05 59.532 59.532 0 0 1-2.75 3.55l-.5-.5c.519-.943 1.151-2.061 1.9-3.35-1.892-.402-2.991-.477-3.301-.226l-.05.476c.055.352.055.568 0 .649a.94.94 0 0 1-.075.101 75.191 75.191 0 0 1-.725 4.85c-1 0-1.833-.25-2.5-.75.818-.745 1.451-2.004 1.9-3.775a7.38 7.38 0 0 1-.65.025c-.833 0-1.417-.367-1.75-1.1-.333-.768-.917-1.15-1.75-1.15-.292 0-.626.05-1 .15V790c-.295.029-.57.055-.825.075.884 2.739 1.325 5.247 1.325 7.524 0 3.5-.667 6.301-2 8.4-.333-.334-.333-.75 0-1.25 1.12-4.095.62-9.003-1.5-14.725V803h-.575a231.971 231.971 0 0 1-.425 8.25h-.75a51.043 51.043 0 0 1-.05-.55c-.06.808-.126 1.658-.2 2.55h-.75a568.35 568.35 0 0 0-.35-7.8c-.139 1.993-.438 3.511-.9 4.55l-1-.25c.799-2.961 1.133-6.352 1-10.175-1.381 5.018-2.131 7.676-2.25 7.975-.051.134-.102.268-.15.4.434 4.092.65 7.024.65 8.8 0 2-.083 3.5-.25 4.5l-1-.25c-.046-.881-.229-2.547-.55-5-.545 2.332-1.387 4.074-2.525 5.225 4.134 2.549 8.158 4.808 12.075 6.775l-2.5.25a96.367 96.367 0 0 1-6.5-2.6v.35h-7a46.462 46.462 0 0 0-.375-.225c-.508.691-1.05 1.434-1.625 2.225-.833-.166-1.417-.5-1.75-1 .44-.814.798-1.714 1.075-2.7-.48-.325-.955-.658-1.425-1-.271.582-.58 1.165-.926 1.75l.025.05c.833 1.601 1.25 2.601 1.25 3 0 .123-.059.331-.175.625 4.671 2.542 8.646 3.801 11.925 3.775l-.25.75c-.434.434-.75.7-.95.8-.399.134-1.166.2-2.3.2-1.557 0-4.557-1.425-9-4.275-.146.297-.312.623-.5.976-.9 1.7-1.566 2.55-2 2.55-.231 0-1.098-.225-2.6-.675-.2.466-.392.875-.575 1.225a10.14 10.14 0 0 1 1.425 1.2l-.025.025c4.612 1.726 8.871 2.467 12.775 2.225l-.25.75c-.667.666-2.75 1-6.25 1-.819 0-1.753-.133-2.8-.4 3.64 1.434 7.239 2.15 10.8 2.15.967 0 1.6-.083 1.9-.25.3-.167.5-.25.6-.25l-.25.75c-.833.833-2.25 1.25-4.25 1.25-3.674 0-8.416-1.358-14.225-4.075.098.705.372 1.297.824 1.775.601.6.9.95.9 1.05-1.599 1.599-2.698 2.606-3.3 3.025 2.748.962 5.182 1.537 7.3 1.725l-3.5.5a469.88 469.88 0 0 0-4.15-2.025.256.256 0 0 1-.1.025c-.3-.033-.634.134-1 .5l-4.025.275c5.425 1.983 10.1 4.059 14.025 6.225l-.25.75a43.814 43.814 0 0 1-2.025-.375c1.076.413 2.085.788 3.025 1.125-3.331-.722-7.131-1.838-11.4-3.35a292.8 292.8 0 0 1-1.5-.5 198.294 198.294 0 0 1-4.925 3.225c3.615.648 7.557.94 11.825.875 0 .333-.767.634-2.3.9-1.4.233-2.8.35-4.2.35-2.771 0-5.339-.208-7.7-.625-.704.441-1.446.908-2.225 1.4 3.977 1.483 7.118 2.342 9.425 2.574l-1 1.5c-2.188-.928-5.464-2.002-9.825-3.225l-.024.025c-.302.188-.593.371-.875.55a6.77 6.77 0 0 0 1 1.975c2.855.879 5.896 1.562 9.125 2.05 2.691-.768 6.458-2.226 11.3-4.375 8.02-6.1 12.619-9.466 13.8-10.1 6.533-3.533 13.517-8.084 20.95-13.65 6.633-4.967 12.233-9.666 16.8-14.1h-.75c-.4.4-1.65 1.367-3.75 2.9-2.134 1.566-3.3 2.35-3.5 2.35-.934 0-1.767-.383-2.5-1.15-.4-.399-.9-.934-1.5-1.6.2-.666 1.5-1.983 3.9-3.95 2.466-1.933 3.833-3.033 4.1-3.3-.3-.033-.85.084-1.65.35-.233.066-.35-.383-.35-1.35 0-.467.667-1.717 2-3.75 1.333-2.066 2-3.316 2-3.75-.3-.233-.467-.55-.5-.95-.066-.733.517-2.167 1.75-4.3h-.5c-.5.5-1.667 1.967-3.5 4.4-1.566 2.1-2.566 3.217-3 3.35-.667-.334-1.083-.75-1.25-1.25 0-1.166.934-3.2 2.8-6.1 2.434-3.834 3.667-5.801 3.7-5.9l-.25-1.25c-.267.267-.634.75-1.1 1.45-.467.733-.767 1.167-.9 1.3a3.15 3.15 0 0 1-.75-1.25c1.5-3.434 2.417-5.434 2.75-6l-.75-1.5v.25zm-27.25-9.1c-.312.152-.611.285-.9.399.13.81.263 1.626.4 2.45v.375c.167.943.25 1.685.25 2.225 0 .46-.017.868-.05 1.226.299.646.573 1.278.825 1.899.656-2.502 1.057-5.619 1.199-9.35a16.7 16.7 0 0 0-1.724.776zm-2 10.05c-.086.458-.17.909-.25 1.35.442 1.958.768 3.799.975 5.525.094-2.315.053-4.831-.125-7.55-.166.154-.35.305-.55.449a5.888 5.888 0 0 0-.05.226zm142.7 68.75c-.233.767-.467 1.5-.7 2.2a45.87 45.87 0 0 0 3.5-2.051c-.9-.465-1.833-.516-2.8-.149zm82.3-25.95c.133-1.133.267-2.3.399-3.5a46.507 46.507 0 0 1-5.1 5.95c-.134 1.6-.283 3.167-.45 4.7a52.03 52.03 0 0 0 4-5.351 33.53 33.53 0 0 0 1.151-1.799zm-12.4-.75c-1.267 4.867-2.35 9.05-3.25 12.55a368.543 368.543 0 0 0 7.7-14.149c-1.3.433-2.783.966-4.45 1.599zm5.3-.1c-3.8 7.033-6.949 12.416-9.449 16.149-.067.233-.134.483-.2.75 3.2-5 6.116-9.583 8.75-13.75.299-.999.599-2.049.899-3.149zm-230.05-5.625l5.176.199a68.093 68.093 0 0 1-2.025-.975h-1.25c.014-.199.03-.399.05-.6-.238-.125-.472-.25-.7-.375-.389.54-.805 1.124-1.251 1.751zM357.7 822.3c.421.378.821.719 1.2 1.025.044-.204.086-.413.125-.625.057-.276.115-.593.175-.95a31.224 31.224 0 0 0-1.25-.1c-.082.217-.165.434-.25.65zm7.875-3.1c-.106.161-.223.336-.35.524-.012.195-.02.387-.025.575l.975-1.95c.082-.194.157-.387.226-.574-.242.491-.517.965-.826 1.425zm-26.7 45.725a7.67 7.67 0 0 0 .101-1.325c0-.8-.534-1.583-1.601-2.35-1.033-.733-2.217-1.217-3.55-1.45-.955-.159-1.78-.159-2.475 0 .126.097.251.197.375.3.633.534 2.449 1.75 5.449 3.65.613.389 1.18.78 1.701 1.175zM455.825 879c-.233.833-.483 1.65-.75 2.45.333-.8.634-1.617.9-2.45h-.15zm-214.45-189.8a94.78 94.78 0 0 1 1.8 2.75c-.166-.833-.35-1.65-.55-2.45-.399-.1-.816-.2-1.25-.3zm-11.649-1.4c.933 1.3 1.75 2.467 2.449 3.5-.633-1.134-1.316-2.3-2.05-3.5h-.399zm24.099 7.45c.3.533.583 1.1.85 1.7.067-1.101 0-2.267-.199-3.5-.267-.5-.567-1.017-.9-1.55.133 1.133.216 2.25.249 3.35zm2.35 1.25c-.267.334-.666.684-1.199 1.05 1.1 2.167 2.233 4.483 3.399 6.95v-.25a235.634 235.634 0 0 0-.85-5.25c-.4-.8-.85-1.633-1.35-2.5zm50.65 35.8c1.634-.3 3.417-.616 5.35-.95a63.589 63.589 0 0 0-.149-2.5c-1.601 1.1-3.335 2.25-5.201 3.45zm-2.8 15.35c-.2.166-.4.316-.601.449.434-.199.884-.399 1.351-.6a7.904 7.904 0 0 0-.75.151zm9.35 5.85l-.5.2a317.442 317.442 0 0 1-4.149 3.55 64.4 64.4 0 0 0 3.199-1.45c.467-.8.95-1.567 1.45-2.3zm-7.55 16.2c-4.634 4.733-8.417 8.116-11.35 10.149a125.745 125.745 0 0 0 7.8-4.35c.399-.533.816-1.05 1.25-1.55a94.934 94.934 0 0 1 1.6-1.95c.267-.799.5-1.565.7-2.299zm-115.2-76.05c.8.3 1.566.583 2.3.85-.684-.424-1.367-.849-2.05-1.275v.025l-.25.4zm99.3 132.05c.9-.967 1.767-1.934 2.601-2.9a575.043 575.043 0 0 0 1.45-6.6c-2.967 4.466-4.45 6.95-4.45 7.45-.001.9.132 1.583.399 2.05zm967.2-632.2c0-.566.2-.85.6-.85.334 0 .717.2 1.15.6-.066.2-.233.5-.5.9 1.667-.533 3.066-1.316 4.2-2.35-4.634-.4-11.117-.95-19.45-1.65-4.4-.367-8.566-.7-12.5-1 .533.367 1.033.717 1.5 1.05 2 1.466 3 2.45 3 2.95 0 .467-.017.833-.05 1.1 1.133.066 2.083.133 2.85.2l8.45.05 11.25-1h-.5zm-525.5-147.15c-.267.633-.517 1.3-.75 2 .2-.067.417-.133.65-.2l.1-1.8zm28.6-7.85a348.225 348.225 0 0 1-.75 3.25c.2-.033.417-.066.65-.1 0-1.1.033-2.15.1-3.15zm551.4 276.65c-.5-.133-1-.25-1.5-.35l-.3.3c.633 0 1.234.017 1.8.05zm-1.25-7.65a76.686 76.686 0 0 0-7.4-3.5c1.801 1.2 3.434 2.283 4.9 3.25.833.1 1.667.184 2.5.25zm4.95 23.25c.866.3 1.7.617 2.5.95-.834-.4-1.717-.8-2.65-1.2.066.066.117.15.15.25zm.7 7.2v-.55c0-.133-.101-.2-.301-.2-.166 0-.35.05-.55.15.267.2.551.4.851.6zm-1 11.55c-.5-.434-1.017-.867-1.551-1.3a.891.891 0 0 0-.449.3c.033.167.05.35.05.55.666.134 1.317.283 1.95.45zm5.15-.15c-.899-.8-1.833-1.6-2.8-2.4 0 .1-.017.216-.05.35.399.333.783.684 1.149 1.05.601.334 1.168.667 1.701 1zm9.95 29.6c2.267 1 6.566 2.566 12.9 4.7-1.233-.667-2.5-1.367-3.801-2.1a134.259 134.259 0 0 1-11.199-5.2c-.034.3-.317.733-.851 1.3.968.433 1.951.867 2.951 1.3zm5 7.95a156.613 156.613 0 0 1-9.65-6.45c3.633 2.767 6.85 4.917 9.65 6.45zm2.55 40.9c3.434 3.034 7.15 6.3 11.15 9.8-.867-1.667-2.217-3.534-4.05-5.6-2.2-1.8-4.2-3.483-6-5.05-.034.7-.117 1.083-.25 1.15-.101.033-.184-.034-.25-.2l-.6-.1zm3.2 7.85v.75a.615.615 0 0 1 .1.15c3.601 1.8 7 3.434 10.2 4.9a38329.1 38329.1 0 0 1-16.1-13.7c.866 1.2 2 2.483 3.399 3.85 1.601 1.567 2.401 2.917 2.401 4.05zm4.3 16.95c.733.466 1.384.9 1.95 1.3-.8-.667-1.65-1.35-2.55-2.05.2.267.4.517.6.75zm8.95 59.75c1.333 1.5 2.25 2.3 2.75 2.4l-.25-.25c-.467-.967-1.667-2.283-3.6-3.95.199.4.366.784.5 1.15.2.2.4.417.6.65zm-17.65 183.2c-.133-3.433-.517-7-1.149-10.7 0 2.066-.167 3.917-.5 5.551a88.853 88.853 0 0 1 1.649 5.149zm-55.55-441.4c1.3 2.3 2.3 4.233 3 5.8l7.95.1c-2.667-1.733-6.467-3.933-11.4-6.6.167.234.317.467.45.7zm18.1 35c-1.2-.466-2.384-.917-3.551-1.35.034.134.051.284.051.45 1.433.367 2.733.717 3.899 1.05a1.944 1.944 0 0 0-.399-.15zm-152 539.1c0 .733.25 1.4.75 2a74.628 74.628 0 0 0-.551-2.25l-.199.1v.15zm-70.65 54.85c.027 0 .044.025.05.075-.01-.056-.022-.098-.05-.125v.05zm-54 66.75a19.582 19.582 0 0 0-.75-1 78.89 78.89 0 0 1-2-.449c.134.3.25.6.35.899.766.266 1.567.45 2.4.55zm-160.4-79c.267-1.199.517-2.333.75-3.399-.1-.033-.216-.05-.35-.05-.066.8-.167 1.683-.3 2.649l-.1.8zm-27.9-16.55c-.2-1.233-.417-2.5-.65-3.8a.837.837 0 0 0-.05.25c-.033.2-.066.434-.1.7.066.666.166 1.217.3 1.649.1.267.267.668.5 1.201z" fill-rule="evenodd"/></svg>