<svg xmlns="http://www.w3.org/2000/svg" xmlns:dc="http://dublincore.org/documents/dcmi-terms/" height="343.546" width="553.076"><metadata><dc:description>Silhouette of Macraucheniinae, processed by PhyloPic Tools (https://github.com/eweitz/phylopic-tools)</dc:description><dc:source>http://phylopic.org/image/21e746c6-d673-4211-8df9-1ea2fe0cffac</dc:source><dc:creator>Zimices</dc:creator><dc:license>http://creativecommons.org/licenses/by-nc/3.0/</dc:license></metadata><path d="M341.342 342.836c-1.925-.344-5.075-1.393-7-2.332-1.925-.939-5.33-2.163-7.565-2.721-2.236-.558-5.144-2.162-6.461-3.565-2.096-2.23-2.472-3.83-3.004-12.761-.502-8.438-1.176-11.557-3.882-17.961-1.801-4.263-3.657-7.75-4.124-7.75-.467 0-4.68-5.152-9.362-11.448-4.682-6.297-11.294-14.273-14.692-17.724-3.398-3.451-8.632-9.777-11.631-14.057-5.355-7.642-7.27-8.814-7.289-4.462-.015 3.658-3.876 21.902-5.627 26.59-1.356 3.631-1.548 6.953-1.101 19 .298 8.03 1.005 15.787 1.572 17.237.58 1.485 2.45 3.231 4.284 4 10.57 4.43 15.636 8.734 14.32 12.163-.821 2.14-8.47 2.349-11.723.32-1.219-.76-5.725-1.656-10.015-1.992-14.318-1.12-14.814-1.874-14.017-21.31.585-14.303.49-15.486-1.642-20.443-2.206-5.127-2.246-5.834-1.582-27.818.615-20.385.487-23.47-1.33-32.056-1.106-5.225-2.654-11.306-3.442-13.513-.787-2.208-1.76-5.964-2.164-8.347-.69-4.086-.883-4.294-3.377-3.637-8.058 2.123-72.36 1.27-83.197-1.102-2.452-.536-2.602-.293-3.866 6.27-.723 3.756-2.347 9.529-3.608 12.829-1.262 3.3-2.606 7.125-2.987 8.5-.382 1.375-1.535 3.967-2.564 5.76-1.028 1.794-2.391 6.294-3.029 10-.67 3.902-2.816 10.049-5.093 14.598-4.05 8.093-6.802 20.912-6.802 31.693 0 6.149 4.352 21.073 8.01 27.465 4.78 8.355 6.997 9.862 15.189 10.325 6.258.354 7.648.817 11.701 3.901 6.567 4.997 7.133 6.082 4.528 8.686-1.099 1.1-3.483 1.572-7.932 1.572-5.483 0-6.45.276-6.996 2-.755 2.379-3.191 2.59-5.524.478-1.733-1.568-13.395-4.43-18.18-4.46-6.658-.044-8.878-2.773-10.698-13.151-1.602-9.141-11.876-30.943-18.544-39.353-3.658-4.615-3.69-8.339-.131-15.362 2.53-4.993 2.62-5.742 2.353-19.688l-.276-14.498-4.79 3.96c-2.673 2.21-8.4 5.351-12.962 7.11-4.495 1.734-9.307 4.045-10.694 5.136-2.961 2.33-15.362 8.186-19.567 9.242-1.608.403-4.785 2.388-7.06 4.41-2.276 2.022-6.675 5.7-9.776 8.176-5.488 4.38-5.638 4.632-5.66 9.5-.012 2.75-.674 7.7-1.471 11-2.054 8.504-1.955 16.775.23 19.304.962 1.114 4.83 3.039 8.596 4.278 3.765 1.239 7.477 2.884 8.25 3.657 2.252 2.252 1.648 5.083-1.423 6.671-2.51 1.298-4.223 1.254-15.25-.389-15.484-2.307-17.423-2.797-19.228-4.861-1.922-2.198-2.576-7.427-1.565-12.528 3.514-17.734 4.387-30.604 3.246-47.826l-.643-9.693 2.883-2.855c2.119-2.097 5.272-3.47 11.884-5.176 8.38-2.161 9.352-2.688 14.111-7.646 2.846-2.965 7.916-10.336 11.439-16.63l6.327-11.306.399-11.914c.339-10.126.08-12.903-1.721-18.5-1.166-3.622-2.727-7.68-3.47-9.016l-1.348-2.43-1.766 3.43c-4.81 9.34-17.059 19.93-23.052 19.93-7.797 0-9.534-3.413-6.004-11.798 1.32-3.138 2.716-7.504 3.101-9.704.385-2.199 2.948-10.073 5.694-17.498 8.347-22.565 8.695-23.783 10.295-36.04 1.748-13.392 3.044-17.674 8.075-26.67 4.67-8.351 15.93-16.754 25.102-18.733 1.75-.377 5.195-2.457 7.654-4.622 2.459-2.164 4.8-3.935 5.204-3.935.403 0 4.384-1.77 8.847-3.933 7.07-3.427 18.179-6.773 38.613-11.63 3.025-.718 10.9-2.734 17.5-4.478 6.6-1.744 14.475-3.537 17.5-3.985 3.025-.447 7.75-1.266 10.5-1.82 6.095-1.228 90.5.229 95 1.64 7.194 2.255 16.646 7.42 25 13.663 4.95 3.699 10.125 7.18 11.5 7.738 1.375.556 14.425 1.225 29 1.485 21.763.388 27.393.203 31.5-1.037 40.143-12.117 43.57-13.538 63.415-26.303 8.008-5.15 18.633-10.34 21.172-10.34.856 0 4.077-1.365 7.156-3.032 4.947-2.68 5.946-3.776 8.586-9.418 3.503-7.484 7.004-10.347 10.955-8.957 3.01 1.059 3.973 3.646 4.116 11.069l.1 5.162 4.25.715c8.08 1.359 18.363 6.987 28.414 15.553 1.74 1.483 4.89 3.24 7 3.903 2.11.664 6.986 2.985 10.836 5.16 5.802 3.275 8.283 5.58 14.5 13.466 4.125 5.233 8.122 10.79 8.883 12.346 1.545 3.16.944 7.063-1.456 9.463-2.01 2.009-8.78 2.054-10.427.07-1.715-2.066-2.505-1.904-5.545 1.136-2.455 2.455-3.073 2.595-8.971 2.045-3.484-.326-8.028-1.3-10.097-2.164-5.966-2.493-22.396-4.54-36.796-4.583-10.941-.033-15.052.405-23.57 2.513-5.676 1.404-11.35 2.553-12.611 2.553-1.26 0-2.538.397-2.838.883-.3.486-5.736 3.749-12.08 7.25-6.342 3.502-13.66 7.807-16.262 9.567-2.602 1.76-8.555 5.097-13.23 7.416-8.102 4.018-12.92 7.328-21.228 14.583-2.05 1.79-5.269 3.9-7.152 4.686-1.883.787-4.481 2.866-5.772 4.62-1.292 1.755-4.223 4.292-6.513 5.638-2.291 1.346-4.75 3.151-5.463 4.011-.714.86-4.015 2.811-7.335 4.336-3.32 1.525-6.937 3.775-8.037 5-1.1 1.224-4.25 3.354-7 4.732-2.75 1.378-5.833 3.242-6.85 4.142-1.78 1.573-5.57 3.717-14.185 8.023-3.352 1.674-4.357 2.914-5.93 7.315-1.041 2.914-3.045 7.548-4.452 10.298-2.307 4.509-2.594 6.36-2.919 18.849-.296 11.364-.047 14.683 1.385 18.5 1.584 4.219 28.201 59.254 33.959 70.214 1.58 3.007 2.79 7.78 3.552 14 2.04 16.677 5.52 21.577 18.098 25.486 5.084 1.58 5.82 2.166 7.235 5.77 2.008 5.11.854 6.68-4.909 6.68-2.873 0-4.459.491-4.846 1.5-.592 1.544-2.557 1.678-8.638.591z"/></svg>