<svg xmlns="http://www.w3.org/2000/svg" xmlns:dc="http://dublincore.org/documents/dcmi-terms/" height="408" viewBox="0 0 990 408" width="990"><metadata><dc:description>Silhouette of Macrodelphinus, processed by PhyloPic Tools (https://github.com/eweitz/phylopic-tools)</dc:description><dc:source>http://phylopic.org/image/85aa143e-6299-401e-89dd-025ead7dde7c</dc:source><dc:creator>Steven Traver</dc:creator><dc:license>http://creativecommons.org/publicdomain/zero/1.0/</dc:license></metadata><g fill-rule="evenodd"><path d="M606 0c-5.297 3.497-13.348 7.054-19 12-11.185 9.787-22.923 21.889-32 35-7.045 10.176-15.629 21.722-24 32-10.451 12.833-19.282 22.827-33 32-2.091 1.398-3.948 2.494-6 4-1.818 1.335-4.19 2.676-6 4-7.827 5.726-14.806 11.622-22 18-7.121 6.313-14.601 12.066-21 19-6.275 6.8-11.511 14.777-18 22-6.043 6.727-12.424 13.512-19 21-14.971 17.047-29.151 37.151-46 54-4.186 4.186-8.192 7.352-12 11-1.733 1.66-9.322 5.341-13 7-9.456 4.265-20.352 5.849-30 10-3.367 1.448-6.579 3.266-10 5-4.298 2.179-10.905 4.255-15 9-16.698 1.369-28.766 10.06-40 18-6.122 4.326-11.052 8.653-16 14-9.449 10.211-16.906 22.395-25 34-47.663 8.148-99.372 16.523-152 22-8.616.896-17.621 1.926-26 3-7.289.935-16.252.463-21 7V0h606z" fill="#fff"/><path d="M606 0h7c3.737 10.849-8.629 26.222-5 40 1.524 5.789 9.532 17.689 16 19 4.57.926 10.663-2.334 16-3 32.402-4.044 62.804 1.577 89 10 23.675 7.613 44.597 19.866 69 28 12.088 4.029 26.158 7.791 40 4 2.85-4.377-8.939-9.38-3-14 7.493.244 10.647 5.926 18 7 12.224 1.786 26.338-3.871 41-5 11.898-.917 23.832-.59 35 2 12.122-9.07 31.144-24.165 42-40 5.178-7.551 9.716-14.218 7-23-1.585-5.126-2.339-3.124-5-5-.382-.269-5.13-.739-3-4 1.28-4.147 7.807-1.059 10 0 6.069 2.928 8.156 9.531 10 17v6c-2.777 7.253-4.713 14.534-9 20-5.147 6.563-11.038 16.274-17 23-7.374 8.319-15.98 15.518-22 24-2.971 4.186-4.398 9.596-7 14-4.304 7.287-10.247 12.86-15 20-3.619.523-5.379 3.958-8 6-2.091 1.629-5.031 3.006-8 5-7.704 5.174-18.094 11.189-28 16-7.959 3.865-16.328 7.427-25 11-18.751 7.725-41.627 13.422-72 11-6.366-.508-14.124-1.751-21-3-6.469-1.175-12.529-4.129-19-4-6.726.134-14.823 3.474-22 6-8.716 3.068-16.391 6.325-23 11-.954.675-2.193.25-3 1-1.233 1.148-3.121 3.57-5 5-.899.685-2.213.267-3 1-.418.389-.566 1.687-1 2-2.047 1.477-4.716 2.485-7 4-7.4 4.91-11.342 13.386-16 22-4.684 8.661-9.749 17.605-16 26-2.801 3.762-6.811 7.068-10 11-3.181 3.922-5.689 8.413-9 12-6.398 6.934-13.801 13.675-21 21-1.771 1.802-3.363 4.485-5 6-1.824 1.688-5.43 1.484-5 5 2.319.821 4.854-1.066 7-2 5.436-2.364 15.754-5.874 25-6 15.301-.209 33.206 5.742 41 14-.012 7.042-6.472 13.323-10 19-4.654 7.487-13.865 14.919-22 23-1.654 1.644-2.649 4.052-5 6-2.682 2.223-5.769 3.678-9 6-.346.249-.691 1.86-1 2-.492.222-1.571-.313-2 0-4.472 3.266-4.691 4.135-11 7-1.452.659-3.4 1.307-5 2-10.358 4.49-23.158 9.354-41 8-7.891-.599-17.145-3.567-24-6-5.055-1.793-6.709-2.418-11-5-1.012-.609-3.156-1.414-4-2-4.724-3.282-7.691-9.028-14-12-17.682 4.237-36.147 12.471-56 14-17.045 1.313-32.704-.21-48 3-2.686.563-4.407 1.183-7 2-9.781 3.083-27.874 4.836-40 7-11.301 2.017-23.441 4.729-34 5-13.159.339-27.221-1.265-41-3-51.68-6.507-111.372 3.128-158 11H95c-2.043-2.034-4.583-4.169-7-6-2.625-1.989-4.347-4.277-8-5-4.584-.907-13.611 1.425-21 2-13.286 1.034-28.451 3.121-43 3-3.649-.03-8.173 1.163-11 0-2.577-1.06-1.431-5.274-5-6v-3c4.748-6.537 13.711-6.065 21-7a1119.317 1119.317 0 0 1 26-3c52.628-5.477 104.337-13.852 152-22 8.094-11.605 15.551-23.789 25-34 4.948-5.347 9.878-9.674 16-14 11.234-7.94 23.302-16.631 40-18 4.095-4.745 10.702-6.821 15-9 3.421-1.734 6.633-3.552 10-5 9.648-4.151 20.544-5.735 30-10 3.678-1.659 11.267-5.34 13-7 3.808-3.648 7.814-6.814 12-11 16.849-16.849 31.029-36.953 46-54 6.576-7.488 12.957-14.273 19-21 6.489-7.223 11.725-15.2 18-22 6.399-6.934 13.879-12.688 21-19 7.194-6.378 14.173-12.274 22-18 1.81-1.324 4.182-2.665 6-4 2.052-1.506 3.909-2.602 6-4 13.718-9.173 22.549-19.167 33-32 8.371-10.278 16.955-21.824 24-32 9.077-13.111 20.815-25.213 32-35 5.652-4.946 13.703-8.503 19-12z"/><path d="M613 0h377v33c-1.844-7.469-3.931-14.072-10-17-2.193-1.059-8.72-4.147-10 0-2.13 3.261 2.618 3.731 3 4 2.661 1.876 3.415-.126 5 5 2.716 8.782-1.822 15.449-7 23-10.856 15.835-29.878 30.93-42 40-11.168-2.59-23.102-2.917-35-2-14.662 1.129-28.776 6.786-41 5-7.353-1.074-10.507-6.756-18-7-5.939 4.62 5.85 9.623 3 14-13.842 3.791-27.912.029-40-4-24.403-8.134-45.325-20.387-69-28-26.196-8.423-56.598-14.044-89-10-5.337.666-11.43 3.926-16 3-6.468-1.311-14.476-13.211-16-19-3.629-13.778 8.737-29.151 5-40z" fill="#fff"/><path d="M990 39v369H123c46.628-7.872 106.32-17.507 158-11 13.779 1.735 27.841 3.339 41 3 10.559-.271 22.699-2.983 34-5 12.126-2.164 30.219-3.917 40-7 2.593-.817 4.314-1.437 7-2 15.296-3.21 30.955-1.687 48-3 19.853-1.529 38.318-9.763 56-14 6.309 2.972 9.276 8.718 14 12 .844.586 2.988 1.391 4 2 4.291 2.582 5.945 3.207 11 5 6.855 2.433 16.109 5.401 24 6 17.842 1.354 30.642-3.51 41-8 1.6-.693 3.548-1.341 5-2 6.309-2.865 6.528-3.734 11-7 .429-.313 1.508.222 2 0 .309-.14.654-1.751 1-2 3.231-2.322 6.318-3.777 9-6 2.351-1.948 3.346-4.356 5-6 8.135-8.081 17.346-15.513 22-23 3.528-5.677 9.988-11.958 10-19-7.794-8.258-25.699-14.209-41-14-9.246.126-19.564 3.636-25 6-2.146.934-4.681 2.821-7 2-.43-3.516 3.176-3.312 5-5 1.637-1.515 3.229-4.198 5-6 7.199-7.325 14.602-14.066 21-21 3.311-3.587 5.819-8.078 9-12 3.189-3.932 7.199-7.238 10-11 6.251-8.395 11.316-17.339 16-26 4.658-8.614 8.6-17.09 16-22 2.284-1.515 4.953-2.523 7-4 .434-.313.582-1.611 1-2 .787-.733 2.101-.315 3-1 1.879-1.43 3.767-3.852 5-5 .807-.75 2.046-.325 3-1 6.609-4.675 14.284-7.932 23-11 7.177-2.526 15.274-5.866 22-6 6.471-.129 12.531 2.825 19 4 6.876 1.249 14.634 2.492 21 3 30.373 2.422 53.249-3.275 72-11 8.672-3.573 17.041-7.135 25-11 9.906-4.811 20.296-10.826 28-16 2.969-1.994 5.909-3.371 8-5 2.621-2.042 4.381-5.477 8-6 4.753-7.14 10.696-12.713 15-20 2.602-4.404 4.029-9.814 7-14 6.02-8.482 14.626-15.681 22-24 5.962-6.726 11.853-16.437 17-23 4.287-5.466 6.223-12.747 9-20zM0 396c3.569.726 2.423 4.94 5 6 2.827 1.163 7.351-.03 11 0 14.549.121 29.714-1.966 43-3 7.389-.575 16.416-2.907 21-2 3.653.723 5.375 3.011 8 5 2.417 1.831 4.957 3.966 7 6H0v-12z" fill="#fff"/></g></svg>