<svg xmlns="http://www.w3.org/2000/svg" xmlns:dc="http://dublincore.org/documents/dcmi-terms/" height="159.986" viewBox="0 0 828.802 159.986" width="828.802" overflow="visible"><metadata><dc:description>Silhouette of Macrolepidoptera, processed by PhyloPic Tools (https://github.com/eweitz/phylopic-tools)</dc:description><dc:source>http://phylopic.org/image/85cc656b-2448-4e1d-aa87-aaee6b98bc9f</dc:source><dc:creator>Gareth Monger</dc:creator><dc:license>http://creativecommons.org/licenses/by/3.0/</dc:license></metadata><switch><g><path d="M182.643 19.327s-.139-5.264-16.24-8.635c-16.101-3.371-24.325-3.576-24.325-3.576S128.196 4.003 120.3 4.21c-7.896.207-18.68 6.836-18.68 6.836s-20.815 1.704-26.75 4.389c-5.936 2.684-25.976 13.85-31.67 17.687-5.693 3.837-18.026 19.646-18.697 22.193-.67 2.545-1.529 9.942-1.529 9.942S12.359 66.273 12.91 71.21c.552 4.938 3.632 13.916 3.632 13.916l-2.786 14.296-4.575 10.34s-.24 14.966 2.203 19.747c2.443 4.783-.137 10.855 2.065 14.485 2.203 3.63 8.482 14.104 15.07 12.247 6.589-1.858 14.674-6.916 17.649-9.944 2.975-3.028 15.051-16.618 15.051-16.618s4.594 2.408 8.464 1.358c3.871-1.05 7.553 2.751 8.722-.861l1.17-3.613s3.113 2.236 6.485 2.253c3.372.018 12.042-6.848 12.042-6.848s2.614 3.304 6.244 1.102c3.629-2.202 8.323-8.039 8.323-8.039s1.858 6.588 4.663 5.04c2.804-1.549 4.352 1.255 4.352 1.255s3.595 4.542 7.294 4.972c3.699.429 11.646-9.893 14.02-7.742 2.374 2.149 1.549 2.804 3.751 6.434 2.202 3.629 5.144 7.345 5.144 7.345s-6.863 7.449-4.901 9.926c1.962 2.478 8.516 7.363 11.801 8.12 3.286.756 9.032 2.922 11.424 1.701 2.391-1.222 12.144-10.959 12.144-10.959l8.652-3.492s3.424 6.021 9.359 3.337c5.935-2.685 13.143 3.026 17.925.583 4.782-2.443 7.43-5.883 10.218-4.061 2.788 1.822 11.834 2.048 11.834 2.048l7.191 9.083c1.307 1.651 8.294 2.164 8.294 2.164s1.273 8.396 7.036 7.19c5.763-1.205 10.545-3.647 14.742-4.284 4.198-.637 16.238-7.484 16.238-7.484s19.491.016 27.301.549c7.811.532 30.001 3.111 31.652 1.804 1.652-1.308 18.579 1.409 18.579 1.409s-2.166 5.747 5.971 6.691c8.136.945 15.379-.087 18.527-4.595 3.147-4.507 29.966-6.264 29.966-6.264l30.604-2.066 27.454 2.44s-2.028 11.011 6.778 9.41c8.809-1.602 13.626 5.331 16.618-1.068 2.993-6.399 5.556-9.102 5.556-9.102s18.063 5.848 23.431 1.6c5.366-4.25 34.439 3.627 39.066-.708 4.628-4.337 6.691-5.971 6.691-5.971s10.081 6.795 15.604 4.438c5.521-2.357 18.803 5.933 23.001 5.297 4.196-.638 23.807-8.104 23.807-8.104s1.378 4.284 5.075 4.714c3.699.43 9.875-1.103 9.875-1.103s9.169 8.188 10.562 9.1c1.393.912 3.253 7.501 6.967 4.559 3.717-2.941 4.094-12.645 4.094-12.645l11.869-5.368s8.93 7.035 11.234 6.554c2.305-.482 6.262-2.272 6.262-2.272l6.228 4.474s7.759 10.647 7.775 7.275c.019-3.371-1.015-10.613.723-12.661 1.736-2.047 8.326-3.905 8.326-3.905s3.252 7.5 6.709 6.777c3.458-.723 10.425 3.835 10.425 3.835s6.537 8.257 7.466 3.492c.929-4.766 1.375-11.836 1.375-11.836l3.545-1.463 8.55.619s5.383 8.498 8.016 8.43c2.633-.069 11.854-1.997 15.896-4.525 4.042-2.53 9.785-16.482 9.717-19.114-.069-2.632-.533-8.308-.533-8.308s-.518-11.681-1.55-18.924c-1.033-7.242-9.188-20.935-9.188-20.935s-2.322-12.265-10.786-13.623c-8.464-1.358-15.621-1.066-17.668-2.804-2.046-1.737-9.771-3.01-9.771-3.01s-2.683-5.935-6.228-4.472c-3.543 1.462-9.255-7.448-11.973-6.641-2.718.81-5.815-4.798-11.25-3.181-5.438 1.617-10.168-6.054-13.713-4.592-3.543 1.462-7.705-4.645-13.623-5.332-5.918-.687-12.18 1.584-12.18 1.584s-7.277-8.343-10.734-7.62c-3.458.723-13.178 3.716-13.178 3.716s-8.018-8.429-17.806-8.066c-9.788.363-17.495-4.283-23.911-3.903-6.418.379-13.006 2.237-15.155 4.611l-2.151 2.375-4.334-4.628s-22.176-5.951-31.551-5.916c-9.374.036-17.357.982-22.622 1.12-5.265.139-8.48 2.014-9.719 2.994-1.237.98-4.455 2.856-4.455 2.856s-18.631-7.414-26.441-7.946c-7.81-.532-26.818 1.757-30.19 1.74-3.371-.018-18.526 4.594-18.526 4.594l-6.193 4.904s-15.671-7.07-24.961-7.774c-9.29-.705-39.721-.117-39.721-.117s-13.332 1.824-16.464 2.96c-3.131 1.136-10.304 4.8-10.304 4.8l-8.309.534s-28.092-6.639-35.162-7.085c-7.07-.447-20.387-1.993-28.041-.634-7.654 1.358-12.007.103-16.789 2.547-4.782 2.443-7.586 3.991-7.586 3.991s-23.069-7.929-39.997-10.646c-16.928-2.717-31.809-3.695-33.786-2.801-1.981.893-5.953 6.055-5.953 6.055z"/><path d="M512.227 19.365l-1.199.308 3.51-7.902zM477.377 7.9l3.216 11.541 1.176-.131zM427.577 11.315l-5.457 9.284 1.702.733zM403.216 14.917l-.557 5.563 1.488.263zM333.047 11.409l-9.298 13.124.997.652zM301.598 17.581l-.996 3.19 1.275-.209zM240.981 12.593l-5.748 8.712 1.726-.246zM242.79 19.324l-2.378 1.242 2.776 1.485zM218.198 14.144l-1.833 1.931 2.447.464zM211.011 9.11l-1.951 6.027 1.43-.013zM156.366 1.153l-3.848 9.29 1.705-.069zM123.312 4.498L121.837 0l.251 4.764 1.332.065zM61.856 7.064l5.871 13.28-2.181 1.086-3.447-4.153 2.525 4.404 4.612-1.252zM44.912 28.323l1.115 4.239-2.004 1.108-8.864-6.748 8.13 8.45 3.563-2.982zM8.29 69.007l6.056 4.008.615-1.447zM8.812 78.357l7.391-.57-.52-1.668zM13.136 130.319s-3.767 4.743-5.436 5.265c-1.669.521-7.605.099-7.54-1.233.065-1.332-.729.897.718 1.512s6.658 1.132 7.229.841c.569-.291 4.723-3.74 4.723-3.74l.306-2.645zM13.268 143.02s-6.293 4.184-7.425 3.159c-1.131-1.026-3.685-3.646-3.685-3.646s3.501 5.233 4.227 5.138c.726-.094 8.089-2.723 8.089-2.723l-1.206-1.928zM54.204 136.7s1.5 1.692 1.357 2.928c-.144 1.233-1.64 2.578-1.64 2.578s1.755-2.03 1.132-2.817c-.623-.786-1.382-1.946-1.382-1.946l.236-.509M91.832 129.636l-.665-4.276 1.472-.364zM121.077 138.744l5.235-15.829-1.87-2.362-8.327 7.074 7.097-8.021 10.315 2.718.108 9.84-1.051-9.413-4.78-.378zM762.45 54.793l-1.372 7.97 9.147 5.083 26.521 23.184 3.559 20.871 3.026 10.09 7.098 7.346-7.078-11.363-1.467-4.279 8.384 4.726-8.475-6.256.401-5.761 7.941 3.156-8.523-4.295-.164-2.432 9.27.184-8.359-1.864-2.919-7.933 9.31-.17-9.971-1.069-.284-2.176s8.185-1.998 12.493-1.408c4.31.59 11.169.763 13.879-.263 2.709-1.025 3.936-3.116 3.936-3.116s-3.637 2.079-5.207 2.521c-1.571.442-10.446-.052-12.055-.061-1.606-.009-4.759-.554-6.525.045-1.769.6-6.904.985-6.904.985l-5.143-10.336 2.701-3.26-2.836 2.887-1.398-2.575 14.988-10.586-15.394 9.467-4.408-4.353 6.515-5.318-7.475 5.117-15.882-6.312 1.934-10.496-3.014 10.548-6.228-.991-.022-7.507z"/></g></switch></svg>