<svg xmlns="http://www.w3.org/2000/svg" xmlns:dc="http://dublincore.org/documents/dcmi-terms/" height="710.04" version="1.2" viewBox="0 0 977 710.04" width="977" overflow="inherit"><metadata><dc:description>Silhouette of Macrocheira, processed by PhyloPic Tools (https://github.com/eweitz/phylopic-tools)</dc:description><dc:source>http://phylopic.org/image/e29b80f3-df87-46f9-ad82-be4b6c212121</dc:source><dc:creator>Michael Wolf (photo), Hans Hillewaert (editing), T. Michael Keesey (vectorization)</dc:creator><dc:license>http://creativecommons.org/licenses/by-sa/3.0/</dc:license></metadata><path d="M945 518.04c-3.791.576-2.74 6.588-4 7-4.277-2.023 2.484-9.215 3-13-4.592-16.409-9.986-32.014-15-48-3.044 8.37-4.734 9.664-6 17 3.814-37.78-10.235-61.339-24-84-1.396-2.299-1.473-4.472-3-7-4.451-7.366-10.584-11.426-12-19-13.259-16.741-21.13-38.87-36-54-5.464-19.536-9.876-40.124-24-51-16.801 74.367-15.623 167.799-28 249-.855 5.615-.754 12.983-2 19-1.001 4.83-3.195 8.622-3 12 .228 3.933 4.247 7.919 5 12 2.747 14.89-.176 36.499 1 57 .864 15.062 1.007 33.694-1 45-.775 4.366-4.816 8.892-6 14-.904 3.903.097 8.461-1 12-.718 2.316-3.969 4.396-5 7-1.862 4.7.238 13.464-7 13 1.229-27.94-2.424-49.781-2-71-2.04-4.351-7.279-10.189-3-15-8.817.85-13.01 6.324-21 8-.435 12.898-11.973 14.693-12 28-6.347 1.653-7.499 8.501-10 14-17.385 7.282-16.284 33.05-34 40-.221-22.334 10.834-36.96 17-56 6.405-19.779 12.649-41.266 22-61-5.607-18.098 6.91-29.715 13-40 4.205-12.266 6.693-27.657 11-37 6.639-41.025 14.045-75.939 16-113-10.202 6.656-25.854 15.099-38 11 8.33-5.004 21.458-5.209 29-11 9.244-10.483 5.678-32.447 4-50-2.862-29.953-3.511-55.883 1-82-5.007-2.023-5.523 1.198-11 1-9.766-13.8-29.197-27.013-49-36-8.609-3.907-19.018-8.423-27-11-11.837-3.822-28.588 1.31-44-1-16.207-2.429-30.976-12.061-46-8-30.683-11.187-72.26-2.839-104 2-3.1-.233-3.12-3.546-4-6-15.099 6.901-32.384 11.616-43 23-2.348.319-3.753 1.58-7 1-6.048 9.633-3.104 18.933-6 31-1.6 6.667-5.159 13.578-7 22-4.075 18.638-19.735 41.723-20 57-.239 13.772 12.207 23.02 22 35-12.033-3.401-23.336-14.735-28-30-1.39-4.547-4.848-6.652-5-9-.558-8.619 9.473-19.658 13-30 2.932-8.594 5.798-18.973 7-26 1.272-7.439-.865-15.262 0-22 .719-5.604 4.429-11.414 6-17 3.292-11.705 2.408-20.973 10-29 10.961-2.373 20.903-5.763 28-12-38.518 2.96-75.307-1.562-118 7-9 12.273-4.523 24.23-7 39-1.713 10.219-13.065 23.041-18 38-3.159 9.577-8.102 17.497-11 26-.864 2.535-.083 5.64-1 8-4.801 12.354-15.283 22.161-14 38 1.104 13.63 12.099 19.85 15 35-14.003-8.332-25.083-28.248-26-53 7.846-6.65 9.074-17.75 14-28 7.726-16.078 19.479-34.936 20-54 .061-2.228-1.38-5.585-1-8 1.275-8.091 6.868-16.119 9-24 2.465-9.113 2.106-17.782 7-25-20.677-.87-52.309 2.449-77 4-.199 14.05-10.258 26.926-5 40-16.706 20.954-24.409 44.839-41 66-9.349 22.651-23.526 40.474-33 63-18.853 14.65-13.75 39.07-13 67-6.886-2.013-2.617-14.388-4-18-11.474-11.348-1.26-38.238 1-56 23.341-34.284 46.372-70.919 62-110-.167-2.833-1.833-4.167-2-7h5c.996-4.663-2.922-4.411-4-7 9.298-8.702 12.003-23.997 18-36-13.19.616-31.88.725-45-4-20.37 4.672-13.29 30.668-28 41 1.946 14.946-9.536 16.464-8 31-29.212 25.37-47.11 56.089-72 86 .431 21.751 6.938 31.562 8 53 7.704 14.364 7.842 36.176 17 54 1.885 3.668 1.35 14.281 0 20 1.624 2.377 2.25 5.751 4 8-.92 5.08-1.519 10.48-4 14 1.5 32.5 7.014 60.986 20 82a115.474 115.474 0 0 0-4 16c-23.262-14.309-28.069-53.251-41-79-2.601-3.732-3.997-8.67-5-14-2.23-3.104-6.16-4.507-9-7-2.735-37.133-3.994-71.933-11-105-11.717 8.99-16.696 32.365-31 42 4.28 25.387 9.148 50.186 21 68-15.029-10.532-31.246-32.835-30-50-.842-4.491-4.714-5.953-6-10-1.244-9.415 2.362-12.84 1-20 3.64-3.026 6.62-6.714 11-9v-6c13.504-10.163 17.265-30.068 31-40-13.304-52.33-11.748-107.57-25-159-3.373-13.089-4.886-26.049-8-39-.814-3.385-3.235-5.792-4-9-2.287-9.595-2.195-21.871-4-30-4.788-21.559-7.717-40.208-7-62 .174-5.277-.915-11.764-2-18 2.489-2.844 7.201-3.466 13-3 22.185-18.482 51.968-29.366 87-35 3.048-.286 2.862-3.804 5-5 9.646-2.004 10.371 2.934 18 8 4.074 2.706 10.143 4.079 13 6 5.746 3.864 9.528 8.745 15 12 9.047 5.382 20.044 8.732 30 14 2.193 1.16 3.791 4.969 6 6 2.217 1.035 5.933.774 9 2 6.766 2.705 13.521 6.404 22 10 7.13 3.024 15.559 3.511 22 6 5.455 2.108 7.421 7.427 17 6 6.693 5.973 19.666 5.667 26 12 24.406 5.594 46.314 13.686 66 24h6c6.032 5.635 17.515 5.819 23 12 9.417 2 20.768 7.12 24 12h6c5.118 8.584 21.396 9.241 32 15 6.67 3.622 10.753 14.146 18 9-.967-4.76 3.915-9.448 4-14 .169-9.105-6.566-12.763-3-22 2.113-5.474 7.814-11.699 13-16 2.791-2.314 1.471-4.218 3-5 5.492-2.808 10.68-.151 15-3 3.597-8.07 11.848-11.485 17-18 18.048-2.319 30.422-3.591 47 0 5.021 6.83 21.25 10.212 31 6 3.279 1.388 6.732 2.601 8 6 19.97 1.274 39.128 11.36 51 24 39.032-38.165 95.997-63.066 126-107-.956-3.044-3.977-4.023-3-9 2.49-4.257 6.237-1.553 10-4 6.712-4.365 7.116-13.35 15-14 9.231-.761 18.224 9.462 26 15 8.274-1.274 11.136 2.864 15 6 .787 3.454-.935 4.399-3 5 14.166 16.5 29.064 32.269 43 49 .958 6.708 2.502 12.832 2 21-18.375 32.625-25.51 76.491-38 115 13.043.033 24.433 5.195 35 2 2.699 3.634 7.963 4.704 9 10 17.145 4.188 14.226 28.441 18 46 .873 1.461.794 3.873 4 3-.601 12.005 5.391 25.89 11 35-8.689 9.069 3.894 27.642 3 40 1.771.895 1.274 4.059 5 3 6.027 32.388 24.654 61.349 34 89 3.912 4.422 6.275 10.392 10 15-1.829 6.002.44 7.336 2 12-2.486 6.514-5.745 12.255-10 17 2.405 25.773 11.32 39.548 19 59-.188 2.812-1.74 4.26-5 4 2.248 1.085 3.952 2.715 4 6-10.223 18.777-15.884 42.116-27 60-7.652 2.015-9.31 10.023-15 14 8.736-22.8 18.034-41.115 21-68 1.049-1.951 2.006-3.994 3-6-9.913-4.754-7.095-22.238-13-31-.189.81-1.004.997-1 2-2.497-.691 1.855-2.668 1-5zm-295-346c5.621 1.515.357 11.033 3 11 25.275 11.575 61.595 8.596 94 13 21.261 2.89 40.674 9.058 60 10 6.683-13.919 7.271-31.266 13-48 3.309-9.664 9.031-18.279 11-27 2.959-13.107-.537-23.788 1-33-14.962-9.943-13.856-33.876-28-48-50.029 41.971-110.772 73.227-154 122zm-328-31c-25.38-8.356-52.457-18.983-77-25-27.874-20.125-73.59-22.41-102-42h-10c-2.813-1.187-4.691-3.309-6-6-4.257.591-6.614-.719-10-1-3.673-6.66-14.99-5.677-19-12-24.17 4.497-38.541 18.793-55 31-6.725-.058-11.003 2.331-15 5 6.766 40.379 17.12 77.741 22 115 6.092 15.977 9.18 36.25 12 57 3.551 26.126 11.656 56.59 13 80 12.985-18.507 25.682-36.772 38-58-.503-2.284 1.738-5.705 2-10 27.495-17.959 31.725-55.611 51-80 2.356.022 2.944-1.723 6-1 2.123-2.877 2.637-7.363 7-8 14.153 4.829 38.107.62 58 2 5.441-7.559 14.446-11.554 21-18 6.942 6.628 21.616 2.851 34 4 34.48 3.199 74.8 1.569 102 3-21.511-14.489-50.121-21.879-72-36zm462 127c2.431 11.468-3.055 24.42 1 39 1.712-12.105 4.078-26.38 5-44-.377-2.46 5.486-6.796 1-7-11.687-5.983-26.178-14.485-39-16 12.136 6.201 29.158 14.596 32 28zm44-21c20.785 14.084 28.323 44.926 43 62-5.876-24.458-1.903-58.764-21-70-1.469 10.428-15.604 4.151-22 8zm-48 86c3.252-1.115 3.959-9.996 2-13-2.127 2.873-.027 9.973-2 13zm172 137c.227-4.894-2.358-6.975-5-9 1.181 3.485-.172 9.505 5 9z" fill-rule="evenodd"/></svg>