<svg xmlns="http://www.w3.org/2000/svg" version="1" width="259.39" height="301.52"><path d="M169.714 289.338c-.55-.14-2.237-.528-3.75-.861-2.234-.493-2.75-1.155-2.75-3.529 0-1.607-.505-3.234-1.123-3.616-1.578-.975-.487-8.848 2.043-14.744 2.44-5.685 2.808-11.48 1.117-17.632l-1.223-4.452-1.967 2.452c-1.082 1.349-5.062 6.572-8.844 11.606-14.742 19.624-15.548 19.955-43.531 17.878-10.985-.814-24.922-1.988-30.972-2.608-6.05-.62-24.95-1.42-42-1.776-25.983-.543-31-.88-31-2.084 0-3.518 35.352-9.089 57.39-9.044 5.286.01 14.11.671 19.61 1.468 12.43 1.801 30.747 1.873 35.596.14 5.013-1.792 11.495-7.236 13.076-10.982 1.872-4.432 1.361-19.97-1.252-38.146-2.718-18.9-2.293-23.65 3.467-38.79 7.463-19.614 9.809-22.995 31.042-44.74 17.148-17.562 19.298-20.145 21.321-25.615 1.238-3.345 2.25-7.631 2.25-9.524 0-2.141.974-4.743 2.578-6.886 1.417-1.895 3.452-5.132 4.52-7.195 1.94-3.743 1.94-3.756-.216-7.98-2.257-4.426-2.478-7.531-1.37-19.27.555-5.881.322-7.783-1.457-11.906-2.616-6.061-3.63-15.102-2.126-18.97 1.005-2.585 1.47-2.82 4.567-2.318 6.504 1.055 8.545 3.64 13.024 16.488.699 2.005 4.386-.39 5.549-3.604 2.037-5.631 3.342-7.12 8-9.124 5.592-2.405 9.931-2.698 9.931-.67 0 4.262-4.459 15.107-7.675 18.667-3.434 3.8-3.5 4.02-1.94 6.401 1.298 1.981 1.615 5.29 1.615 16.824v14.359l4.64 7.252s3.105 5.102 3.836 7.877c.866 3.284.257 9.55.257 9.55-.301 5.596-1.119 12.26-1.817 14.81-1.308 4.778-.832 12.491 2.204 35.688 1.442 11.014.221 17.985-3.926 22.426-2.594 2.779-6.057 5.046-7.789 2.076-1.36-2.333-1.864-15.142-1.401 2.186 1.35 4.826 3.245 6.488 7.395 6.488 2.923 0 4.601 2.498 4.601 6.847 0 1.725 1.473 5.215 3.5 8.293 1.925 2.923 3.5 5.887 3.5 6.587 0 .7 1.233 3.48 2.74 6.18 2.692 4.822 2.707 4.942.86 6.984-2.239 2.473-4.314 2.173-13.309-1.92l-6.21-2.827-3.021 3.442c-3.668 4.176-5.948 8.44-7.71 14.414 1.537 6.24-.067 13.026.525 7.85.302 8.075-7.483 16.15-15.57 16.15-4.7 0-5.94-.876-11.883-8.397l-3.079-3.896.418 8.897c.23 4.893.745 10.246 1.146 11.896l.728 3 16.164-.378c9.193-.216 20.376.145 25.932.836 13.297 1.653 14.472 1.933 14.01 3.33-.388 1.17-2.887 1.501-25.24 3.345l-9 .742 7 .734c3.85.404 9.25 1.203 12 1.775 2.75.573 7.447 1.272 10.439 1.554 6.026.568 8.53 2.186 7.06 4.562-.794 1.285-5.995 1.514-36.214 1.592-19.407.05-35.736-.023-36.286-.162z"/></svg>