<svg xmlns="http://www.w3.org/2000/svg" xmlns:dc="http://dublincore.org/documents/dcmi-terms/" height="744.094" width="1052.362"><metadata><dc:description>Silhouette of Macropodina, processed by PhyloPic Tools (https://github.com/eweitz/phylopic-tools)</dc:description><dc:source>http://phylopic.org/image/eccfc4b3-faee-4384-b35b-64c788f30846</dc:source><dc:creator>Michael Scroggie</dc:creator><dc:license>http://creativecommons.org/publicdomain/zero/1.0/</dc:license></metadata><g transform="translate(0 -308.268)"><image height="516.731" width="1038.808" x="5.429" y="395.631"/><path d="M5.429 653.997V395.63h1038.807v516.731H5.43V653.997z" fill="#fdfdfd"/><path d="M974.3 879.375a779.339 779.339 0 0 0-14.7-1.543c-4.288-.403-10.202-1.022-13.142-1.374-2.94-.353-7.45-.857-10.023-1.121-2.572-.264-7.134-.977-10.137-1.584-5.109-1.032-6.354-1.103-19.377-1.111-11.129-.007-15.614.176-22.381.917-13.097 1.433-28.386 2.276-41.268 2.275-11.312 0-12.223-.068-24.883-1.828-12.254-1.704-14.148-1.852-28.064-2.196-16.318-.403-25.263-1.342-44.768-4.698-7.75-1.334-10.349-1.601-15.146-1.557-7.314.067-16.436-1.143-41.873-5.558-22.332-3.876-27.343-5.21-38.188-10.16-4.099-1.872-7.618-3.403-7.821-3.403-1.173 0-22.058-8.94-30.726-13.153-2.759-1.34-5.246-2.438-5.527-2.438-.28 0-1.531-.768-2.78-1.708-1.247-.94-3.218-2.058-4.379-2.485-1.161-.427-2.233-.975-2.383-1.216-.15-.242-2.807-1.689-5.907-3.215-9.428-4.642-14.575-7.745-18.661-11.25-2.146-1.84-5.204-4.463-6.797-5.827-3.915-3.355-10.132-11.226-12.536-15.872-.402-.777-1.154-1.795-1.67-2.262-.517-.467-.94-1.14-.94-1.497 0-.357-.764-1.579-1.697-2.715-.934-1.137-2.496-3.27-3.471-4.74-6.25-9.423-10.715-15.437-15.543-20.936-4.596-5.234-7.298-9.052-7.807-11.032a88.14 88.14 0 0 0-.899-3.223c-.226-.735-.701-2.84-1.055-4.677-.354-1.837-1.512-5.441-2.573-8.008-1.873-4.53-2.008-4.72-4.59-6.428-2.841-1.88-8.003-3.527-9.155-2.921-.377.198-2.18 1.708-4.009 3.354-2.914 2.625-11.811 10.134-13.856 11.693-.402.307-2.765.953-5.25 1.434-5.695 1.104-17.555 1.256-19.001.243-.722-.506-3.685-.665-14.688-.79-13.778-.156-13.785-.157-16.288-1.321-1.377-.641-2.642-1.388-2.81-1.66-.562-.91-3.121-.486-5.822.964-2.488 1.336-2.808 1.696-4.635 5.207-2.269 4.36-2.796 6.236-5.822 20.729-1.392 6.667-2.46 13.205-2.837 17.373-.539 5.959-.81 7.236-2.508 11.804l-1.904 5.123-4.82 4.9c-3.862 3.926-5.062 5.463-6.038 7.733-1.14 2.653-1.453 2.984-4.94 5.234l-3.723 2.401-3.882-.03c-2.135-.018-4.283-.194-4.773-.391-.508-.205-1.13-.168-1.448.085-.848.678-.67 4.799.343 7.98.494 1.554 1.018 4.128 1.164 5.72.297 3.238 2.123 9.017 3.362 10.64 1 1.311 1.044 2.946.099 3.709-.392.315-1.263 1.136-1.935 1.822-1.07 1.092-1.888 1.355-6.527 2.096-11.934 1.907-25.314 2.465-33.59 1.4-7.053-.908-40.956-.33-50.055.854-8.72 1.134-11.34 1.09-19.255-.328-6.048-1.082-7.596-1.185-17.332-1.147-7.389.029-12.342.273-16.036.79-6.57.92-13.6.61-16.74-.74-1.156-.496-3.254-2.102-4.847-3.709-3.063-3.09-3.244-3.954-1.337-6.379.647-.822.745-1.288.405-1.923-.634-1.185-2.03-1.414-5.34-.877-1.583.257-4.281.466-5.996.465-2.7-.002-3.477-.2-5.791-1.486-2.497-1.386-2.682-1.6-2.805-3.24-.103-1.366.157-2.155 1.172-3.556 1.097-1.515 2.035-2.103 5.923-3.713 2.54-1.052 5.766-2.49 7.168-3.196 2.391-1.203 2.883-1.282 7.975-1.282 2.984 0 9.643-.315 14.797-.7 5.154-.386 10.786-.594 12.516-.463l8.713.656c3.063.23 10.48.541 16.482.692 12.447.312 23.214.927 32.41 1.85 7.83.786 13.106.826 13.829.103.294-.294.534-.87.534-1.282 0-.41.296-.992.656-1.291 1.925-1.598 3.799-8.364 3.799-13.716 0-4.284-.362-4.836-3.42-5.213-1.427-.177-4.737-.803-7.356-1.392-2.619-.59-6.094-1.071-7.721-1.071-1.628 0-4.496-.383-6.374-.85-1.879-.468-5.22-.98-7.425-1.137-10.015-.717-27.813-3.417-32.964-5.001-2.428-.747-2.762-1.005-3.656-2.82-1.472-2.988-1.323-4.05.872-6.19 3.437-3.349 3.656-3.377 26.394-3.402 21.158-.024 21.218-.029 26.843-2.228 1.534-.6 3.438-1.093 4.232-1.096 2.85-.01 4.784-.527 4.78-1.278-.001-.397-.41-2.024-.908-3.617-.497-1.592-1.18-4.404-1.517-6.248-.68-3.72-2.266-7.659-4-9.932-.625-.82-2.348-4.174-3.827-7.453-1.48-3.278-3.873-8.072-5.32-10.653-1.667-2.976-2.883-5.798-3.324-7.716-.383-1.663-1.026-3.663-1.43-4.443-.403-.78-1.4-3.402-2.217-5.825-1.889-5.61-3.41-8.223-5.225-8.976-2.026-.84-7.412-1.28-16.328-1.334-4.307-.025-8.693-.278-9.8-.564-1.103-.285-4.723-.526-8.045-.537l-6.04-.02-1.422-1.389c-.781-.764-1.42-1.733-1.42-2.153 0-1.458-.59-1.337-1.853.38-.698.95-1.77 2.054-2.381 2.455-.612.4-1.112 1.017-1.112 1.37 0 1.115 1.602 1.565 5.568 1.565 2.115 0 4.239.21 4.72.469 1.277.683 3.521 3.954 3.521 5.132 0 .557.501 1.608 1.114 2.336 1.048 1.246 1.113 1.628 1.113 6.503v5.18l-1.786 1.938c-1.551 1.683-2.081 1.967-4.014 2.153-3.258.313-4 1.178-4 4.667 0 3.303.577 4.603 3.064 6.905 2.303 2.132 3.473 5.872 2.17 6.935-.306.25-2.26.555-4.343.677-2.082.123-5.991.651-8.686 1.174-8.607 1.669-10.691 1.86-12.413 1.141-.846-.353-2.508-.85-3.695-1.103-1.186-.254-3.617-.984-5.403-1.622-2.92-1.044-3.34-1.346-4.17-3.002-.509-1.013-1.279-2.243-1.712-2.733-.433-.49-.928-1.869-1.1-3.065-.171-1.195-.482-2.599-.69-3.118-.21-.52-.736-2.147-1.17-3.617-.435-1.47-1.633-4.1-2.661-5.843-3.88-6.58-5.145-9.44-5.542-12.53-.473-3.686-1.5-7.197-2.7-9.232-.611-1.035-1.031-2.882-1.298-5.705-.695-7.342-1.438-8.325-10.39-13.731-9.811-5.927-11.339-7.019-12.817-9.167-2.353-3.42-19.799-15.811-23.21-16.485-.801-.158-2.159-.824-3.016-1.48-.858-.655-2.405-1.453-3.438-1.773-1.034-.32-2.938-1.521-4.232-2.668-1.294-1.147-4.272-3.498-6.617-5.224-4.294-3.161-4.978-3.858-7.772-7.926l-3.975-5.791c-1.344-1.96-3.363-4.265-4.486-5.123-2.475-1.89-9.974-9.907-11.146-11.916-1.084-1.857-1.962-2.11-4.56-1.312-2.312.709-4.522 1.29-7.841 2.06-1.194.277-3.199.982-4.455 1.567-2.792 1.3-5.382 2.023-7.264 2.026-1.794.003-7.881 2.234-11.446 4.194-2.635 1.45-2.993 1.52-10.524 2.06-10.254.734-16.092.436-20.713-1.06-4.944-1.601-7.209-3.104-15.901-10.556-2.377-2.037-4.458-5.454-5.202-8.54-.656-2.718.219-5.142 2.295-6.362 2.289-1.345 6.125-5.185 7.111-7.119.499-.977 3.144-4.086 5.878-6.907 5.62-5.8 8.773-10.64 10.948-16.802.732-2.075 2.033-4.97 2.89-6.431.857-1.463 1.558-2.821 1.558-3.019 0-.197.472-1.055 1.049-1.905.577-.85 1.68-2.696 2.452-4.102.772-1.406 2.855-4.354 4.63-6.55 2.632-3.257 3.814-4.32 6.401-5.76 1.745-.972 3.52-1.767 3.944-1.767 1.322 0 6.908-3.185 8.923-5.088 3.212-3.034 3.094-3.808-1.405-9.219-2.098-2.523-4.594-5.736-5.547-7.14-.953-1.403-1.936-2.677-2.184-2.83-.762-.471-5.277-7.563-6.229-9.784-.493-1.152-.898-2.962-.898-4.023 0-2.487 1.647-4.01 4.81-4.444 2.011-.277 2.565-.112 7.48 2.229 2.918 1.39 6.91 3.683 8.87 5.095 1.96 1.412 4.866 3.216 6.459 4.009 1.592.792 3.597 2.104 4.454 2.914 1.264 1.195 3.99 2.43 5.392 2.442.148.001 1.615-2.376 3.261-5.283 2.491-4.4 3.773-6.078 7.64-10.002 5.867-5.952 6.926-6.748 10.456-7.855 4.467-1.4 6.763-1.119 10.4 1.27 1.884 1.238 4.088 5.372 4.502 8.444 1.93 14.32 1.783 20.935-.615 27.837-1.28 3.684-1.326 4.024-.697 5.24.37.714 2.06 2.308 3.755 3.542 1.93 1.404 3.92 3.393 5.321 5.319 1.23 1.691 2.635 3.289 3.122 3.549 2.138 1.144 9.065 3.298 15.307 4.76 6.496 1.52 7.023 1.575 13.007 1.358 18.276-.662 31.275-3.598 46.105-10.415 1.837-.845 5.746-2.714 8.686-4.155 2.94-1.44 6.819-3.23 8.619-3.979 3.621-1.506 12.274-6.303 17.979-9.97 2.031-1.305 4.996-3.084 6.589-3.952 1.592-.87 5.501-3.229 8.686-5.244 7.317-4.63 15.426-8.714 24.018-12.095 3.695-1.455 8.222-3.512 10.06-4.572 4.048-2.335 4.789-2.571 12.695-4.058 3.43-.644 10.33-2.075 15.333-3.178 11.482-2.532 13.931-2.814 26.763-3.084 5.758-.122 12.072-.416 14.032-.654 9.28-1.129 26.957 1.554 38.291 5.811 2.678 1.006 6.885 2.24 9.349 2.742 2.463.503 6.183 1.52 8.265 2.26 2.083.74 6.244 2.103 9.248 3.029 6.682 2.06 10.344 3.998 19.262 10.196 3.797 2.64 8.182 5.444 9.743 6.232 1.562.788 4.77 2.692 7.128 4.23 2.358 1.54 5.69 3.638 7.406 4.664 1.715 1.026 5.123 3.58 7.573 5.676s6.685 5.48 9.411 7.519c4.737 3.544 5.088 3.921 7.916 8.53 1.627 2.653 4.417 6.427 6.199 8.387 4.734 5.205 7.886 9.306 10.445 13.586 1.245 2.083 3.919 6.092 5.942 8.91 3.477 4.841 5.595 9.103 6.658 13.397.217.875 1.31 3.778 2.43 6.45 1.119 2.672 2.753 6.866 3.632 9.321.878 2.455 2.559 6.267 3.734 8.472 2.601 4.879 5.316 13.888 6.89 22.869.617 3.513 1.622 8.424 2.235 10.914 1.174 4.767 5.47 18.531 8.018 25.686 1.122 3.15 1.689 5.825 2.217 10.468.987 8.683 1.379 10.8 3.17 17.124 1.01 3.57 2.346 6.985 3.755 9.598 2.133 3.957 4.88 11.341 4.88 13.117 0 1.087 1.441 4.899 2.874 7.603.585 1.102 1.565 3.708 2.179 5.79.613 2.083 1.631 5.19 2.261 6.905.63 1.715 1.147 3.491 1.148 3.946.004 1.551 4.109 6.427 8.346 9.913 2.325 1.913 5.69 5.19 7.48 7.283 6.29 7.355 16.991 17.21 22.572 20.787 1.738 1.114 5.285 3.57 7.884 5.457s6.954 4.774 9.679 6.415c2.725 1.64 6.233 3.925 7.795 5.077 1.563 1.152 5.253 3.135 8.2 4.407 2.948 1.272 7.158 3.214 9.355 4.315 12.124 6.073 36.525 12.521 57.896 15.3 4.655.605 11.37 1.586 14.923 2.18 5.013.838 8.904 1.143 17.373 1.36 6.768.173 12.352.543 14.7.974 2.083.382 7.896.833 12.918 1.002 5.023.17 11.738.545 14.923.835 19.398 1.765 44.778 2.264 67.487 1.328 7.963-.328 21.794-.596 30.737-.596h16.259l7.127 1.427c3.92.785 10.335 1.744 14.255 2.132 8.413.832 15.669 1.846 30.514 4.267 18.57 3.028 26.68 3.97 40.026 4.653 18.335.936 25.765 1.908 31.915 4.174 2.778 1.023 5.238 2.218 5.68 2.76.97 1.187 1.01 3.925.102 6.985-.65 2.19-.818 2.358-4.12 4.165-1.894 1.035-4.282 2.45-5.306 3.144-1.337.906-2.408 1.261-3.798 1.261-1.066 0-2.342.284-2.836.63-.495.346-2.394.735-4.22.864-5.893.417-11.733 1.095-13.788 1.602-2.147.53-17.163 1.804-20.491 1.74-1.103-.022-5.112-.404-8.91-.85zm-595.48-98.98c1.167-.91 4.737-6.769 6.155-10.102 1.148-2.698 1.32-3.644 1.32-7.276 0-2.296-.193-5.263-.43-6.595-.235-1.33-.73-5.378-1.098-8.992-.368-3.615-.88-6.966-1.138-7.447-.427-.798-4.102-2.24-5.71-2.24-.354 0-1.809.64-3.234 1.424-2.432 1.337-2.729 1.689-4.848 5.742-1.906 3.644-2.361 5.002-2.92 8.71-.954 6.327-.878 13.217.178 16.289.889 2.581 4.174 8.933 5.31 10.265.802.94 5.295 1.096 6.415.222z" fill="#010101"/></g></svg>