<svg xmlns="http://www.w3.org/2000/svg" xmlns:dc="http://dublincore.org/documents/dcmi-terms/" height="272.667" viewBox="0 0 365.333 272.667" width="365.333"><metadata><dc:description>Silhouette of Macrotis lagotis, processed by PhyloPic Tools (https://github.com/eweitz/phylopic-tools)</dc:description><dc:source>http://phylopic.org/image/c77d69f9-515f-443c-aad0-6a00ba64cc00</dc:source><dc:creator>Sarah Werning</dc:creator><dc:license>http://creativecommons.org/licenses/by/3.0/</dc:license></metadata><path d="M294.625 86.375L298 83.25l5.5-5.75 2.75-6 4.75-6.75 2-5.25 3.75-4.75 7-8.5 7.75-8 6-6.5 6-5.75 3.25-4 3.75-5.75 2.25-4.5 2-3 1.75-1.25 1.5 2.75-1.5 3.75-3.5 8.25-1.5 5-1 6-1.75 7.25-2.5 6.5-4.75 11.75L335.75 72s-1.75 7.75-2.5 8.75-6.875 9.5-6.875 9.5L322 97.75l-2.5 8 1.25 9 4.25 16.5 2.5 8.25.167 9.667L327.5 155l.833 5.167 2.167 2 .833 3.833-.166 3.5-1.5 3.834.833 2-1.167 4.833v3.167l.167 5.166-.333 5.667-.417 3.083 1 12 .25 8 1.75 5.25-.25 2.75-3.75 5.75-3.5 2.75H321l-4.75-3.5-6.25-6-4-4-4.75-2.25-2.5-.75L296 217l-5.25-3.5-3.681-1.899L286.5 220l.25 10 1.75 6.25.75 5.5 3.5 6.5 4.75 4.5 2.625 1 1.375 2.375-2.75.25 1 1.125.5 2.75-1.25 2.25-1.5.75-1.5.5-1.5-2-.358 2.227-1.642.273-2.125-.25-2-1.25-.905-.285L286 262l-1.131-1.258-1.619-3.367.208 2.142-.441 2.239.233 1.994-1.125.75L280 264l-1.75-1.75-1.375-3.375v-3.5l-.25-1.875.563-2.601-10.438-13.149-.375 5 1.75 5.875L270.25 252l1.125 2.875.95.975.175 3.15-2.25 4.75-3.125.375s-.5 3.125-1.25 3.125-2.875-1-2.875-1l-3-3.25-2.875 1.25-1.125 2-2.5-2.5-1.5-2.5-1.75.25h-2l-1.618-.449-.915-1.381-1.217 1.08-1 1.75-1.25-3v-2.25L241 255v-7l1.75-1.5 1.25-2.75V240l-3-3.75-3.5-6.5-6.5-8-5-10-6-6-2.75-2.75v-3.75l-3.75-3.75-5.75-9.25-9.5 3-7.5 6.5L182.5 207l-4 10.5-2.25 8.75v7l3.25 3.5 9.75 2.25 10.25 2.25 10 2L215 245l3.25 2.5.25 4.5-11 2-15.5-.25-14-6.75-9-3.25-7.25-3.5-6-1.5-4.25-1.75-2-3.25V229l5.25-6.25 4.25-8 2.5-6 .25-3-3.25 2V202l-1.75-1.25-.5-3.75-1-3.25.5-2.75 2-5.25-3.5.25.25-5 2-7.75-1-4.25-3.75-3h-2.25l-6-3.25-4.75 9.75-7.25 12.25-5.75 8-3.75 5.75-10.5 7.5-9 6.5-9.75 2.25-17.5-2.75-5.75-1.75-11-1.75-8-1-13.75-3.5-12-1v-1.25l-8-.25-8-.75v-2l-6-1.5 7.75-1.75 6 .25-.25-1.5 6.5.75 11.5.5s-2-3.75.25-3.25S42 194 42 194s4.25.5 6.25.5 2.25-1.25 2.25-1.25l-1-1.5 4.5 1.5 2.25-.25-.5-2s6.75 2.25 7.5 2.25 7-.25 7-.25 9.5 2.5 10.75 2.5 8.25-1.5 8.25-1.5L88 192l5-1.25 6.25-2.75 4.75-4.25 6.75-5.25 4.5-5 3.25-6.75 3.25-5.5-4 1 3.25-5 1.5-5.25.5-6.25-2-.5.25-3.25.5-5.125s1-5.375 1.25-6.375 1.75-6 1.75-6l1.186-2.568.314-.682 1.5-8 2.25-8.5 3.5-7.75 6-7.25 2.25-4.5 2.5-5.25 10.25-8.75 5.25-5.25 8.5-5.75 5.5-3.75 5.5-2.75L183.5 52l2.5-.75 5-1.25 6.375-.875L203.75 48l6.5-.625 7.125-.375 4.625-.5 5.91.068 5.272.042 4.317.64 7.5 1 8.5 3.25 2.375.875-1-2-1.25-2.25-.125-3 .25-7.625 1.375-5.125 2-3.625L260 26.5l3.75.25 3.5 3.75 1.5 3.25 1 3 2.5 5.5 3 4.25 1.25 2.5 3.25 3.5 1.353 2.809L283 59.25l1.696 2.459L288 66.5l3.5 8.25 2 6.5 1.125 5.125z"/></svg>