<svg xmlns="http://www.w3.org/2000/svg" xmlns:dc="http://dublincore.org/documents/dcmi-terms/" height="355" viewBox="0 0 501 355" width="501"><metadata><dc:description>Silhouette of Macrauchenia, processed by PhyloPic Tools (https://github.com/eweitz/phylopic-tools)</dc:description><dc:source>http://phylopic.org/image/139ff436-05a5-42fa-acfa-94a2bfc7be0d</dc:source><dc:creator>Steven Traver</dc:creator><dc:license>http://creativecommons.org/publicdomain/zero/1.0/</dc:license></metadata><g fill-rule="evenodd"><path d="M501 162c-1.999-10.135-10.316-24.055-15-35-1.078-2.519-3.325-5.769-4-8-1.675-5.54-3.396-6.603-9-12-3.551-3.42-6.979-8.294-11-10-8.472-3.594-18.096-6.36-28-10-2.32-.853-4.517-2.232-7-3-6.192-1.914-13.132-5.408-20-7-8.661-2.008-19.071-1.882-27-4-11.793-3.149-28.972-9.842-44-11-6.772-.521-13.254.483-20 0-14.682-1.052-24.945-8.098-41-7-6.413.438-13.658 2.223-20 4-6.302 1.766-12.507 5.428-18 6-6.964.726-17.111-1.112-24-3-.527-.145-2.626-1.917-3-2-7.157-1.59-14.131-2.755-21-5-8.446-2.76-17.501-6.357-26-10-8.874-3.803-18.195-11.96-27-18-3.263-2.238-5.854-3.663-9-7-2.447-2.595-5.281-4.433-5-7 .412-3.757 3.971-7.417 0-11-8.644-4.046-15.494 5.17-20 5-8.338-2.099-17.942-3.538-29-2-17.391 2.419-42.833 3.4-56 11-5.229 3.019-12.869 10.137-15 17-.728 2.342-1.026 6.06-1 9 .022 2.487-.953 6.262 2 8 9.36 2.026 5.85-8.816 12-10 22.056 1.277 32.825 13.842 47 23 12.703 4.153 29.604 1.186 42 6 5.799 2.252 11.105 7.061 17 12 5.234 4.386 11.137 8.464 16 13 5.017 4.68 9.389 9.455 15 14 2.611 2.115 5.084 3.64 8 6 3.987 3.227 6.082 6.15 11 9 1.207.699 2.21 1.565 3 2 1.304.717 3.788.281 5 1 .858.509 1.188 2.475 2 3 4.751 3.077 11.675 5.651 15 10 .54.707.374 2.252 1 3 2.248 2.685 8.356 7.955 10 11 1.581 2.927 2.727 6.862 4 10 1.352 3.332 2.482 6.676 4 10 2.752 6.026 4.941 12.942 9 18 5.199 6.479 14.028 10.528 19 17 .806 1.049.987 3.697 2 5 .957 1.229 1.42 1.81 3 3 .789 16.211 7.642 26.358 8 43-.374 3.344 3.139 4.745 4 8 .854 3.23-.005 7.044 1 11 .908 3.578 2.586 7.332 4 11 2.08 5.397 5.034 11.05 5 19-.024 5.645-2.387 16.291-5 22-2.958 6.462-7.181 9.437-14 13-3.517 1.838-9.141 2.122-11 7 3.78 2.969 10.588 1.602 17 2 8.711.541 18.171 3.035 24-1 1.328-.92 1.468-3.718 4-3 4.525 1.831 13.591-.389 19-1 2.752-3.539-.252-6.259 0-10 .223-3.3 2.161-6.398 2-10-.338-7.545-6.835-15.99-5-27 .168-1.008 1.733-2.663 2-4 .606-3.04.018-7.186 1-10 .999-2.862 3.762-5.008 5-8 1.061-2.563 2.699-6.31 3-9 .809-7.227-1.426-14.975-1-22 .96-15.835 5.554-29.354 8-44 18.432-2.902 36.576-6.09 59-5 .595 6.469-.163 12.791 1 19 .26 1.389 1.613 2.454 2 4 .899 3.597.1 6.163 2 9 4.549 6.793 9.673 19.679 13 29 2.08 5.827 3.267 12.515 5 19 1.479 5.531 4.561 11.98 4 18-.39 4.184-3.111 11.438-5 16-.207.5-1.889 1.633-2 2-.241.797.409 2.286 0 3-.501.874-2.436 1.192-3 2-.675.966-.312 2.14-1 3-1.05 1.311-2.945 2.813-4 4-2.878 3.242-5.877 6.706-8 8-6.984 4.257-19.375 3.921-20 16 3.882-.831.69 2.499 5 4 1.095.382 5.005-.478 8-1 7.771-1.356 19.101-5.085 23-11 2.332-2.008 5.857-2.801 8-5 2.948-3.026 3.523-7.729 6-12 2.121-3.659 5.771-6.741 8-10 1.235-1.807 1.645-4.054 3-6 3.147-4.52 8.951-9.758 11-16 1.297-3.389-2.693-4.008-4-6-4.865-7.419-3.727-22.153-5-36-.803-8.731-7.269-20.533 3-25 4.394 1.405 3.75 6.5 5 9 4.419 8.838 11.928 16.387 19 25 2.204 2.685 4.578 5.975 7 9 2.375 2.967 5.892 5.349 7 8 1.519 3.634.912 9 2 13 .995 3.661 2.805 6.213 4 10-2.184 6.749-.689 11.755-1 21-.635 5.365-7.484 4.516-6 12-4.794 3.206-8.96 7.04-14 10 4.339 7.311 22.035 9.591 28 2 .789-3.748 3.497-.063 5-2 2.092-7.221-.557-14.397 0-21 .446-5.291 3.882-12.073 5-19 .798-4.943-.181-11.453 2-16 .707-1.474 3.417-1.521 2-4-2.322-5.228-5.688-8.707-9-14-5.337-8.531-9.138-22.503-14-33 7.471-22.529 25.857-34.143 31-59v178H0V0h501v162z" fill="#fff"/><path d="M501 162v15c-5.143 24.857-23.529 36.471-31 59 4.862 10.497 8.663 24.469 14 33 3.312 5.293 6.678 8.772 9 14 1.417 2.479-1.293 2.526-2 4-2.181 4.547-1.202 11.057-2 16-1.118 6.927-4.554 13.709-5 19-.557 6.603 2.092 13.779 0 21-1.503 1.938-4.211-1.748-5 2-5.965 7.591-23.661 5.311-28-2 5.04-2.96 9.206-6.794 14-10-1.484-7.484 5.365-6.635 6-12 .311-9.245-1.184-14.251 1-21-1.195-3.787-3.005-6.339-4-10-1.088-4-.481-9.366-2-13-1.108-2.651-4.625-5.033-7-8-2.422-3.025-4.796-6.315-7-9-7.072-8.613-14.581-16.162-19-25-1.25-2.5-.606-7.595-5-9-10.269 4.467-3.803 16.269-3 25 1.273 13.847.135 28.581 5 36 1.307 1.992 5.297 2.611 4 6-2.049 6.242-7.853 11.48-11 16-1.355 1.946-1.765 4.193-3 6-2.229 3.259-5.879 6.341-8 10-2.477 4.271-3.052 8.974-6 12-2.143 2.199-5.668 2.992-8 5-3.899 5.915-15.229 9.644-23 11-2.995.522-6.905 1.382-8 1-4.31-1.501-1.118-4.831-5-4 .625-12.079 13.016-11.743 20-16 2.123-1.294 5.122-4.758 8-8 1.055-1.188 2.95-2.689 4-4 .688-.86.325-2.034 1-3 .564-.808 2.499-1.126 3-2 .409-.714-.241-2.203 0-3 .111-.367 1.793-1.5 2-2 1.889-4.562 4.61-11.816 5-16 .561-6.02-2.521-12.469-4-18-1.733-6.485-2.92-13.173-5-19-3.327-9.321-8.451-22.207-13-29-1.9-2.837-1.101-5.403-2-9-.387-1.546-1.74-2.611-2-4-1.163-6.209-.405-12.531-1-19-22.424-1.09-40.568 2.098-59 5-2.446 14.646-7.04 28.165-8 44-.426 7.025 1.809 14.773 1 22-.301 2.69-1.939 6.438-3 9-1.238 2.992-4.001 5.138-5 8-.982 2.814-.394 6.96-1 10-.267 1.337-1.832 2.992-2 4-1.835 11.01 4.662 19.455 5 27 .161 3.602-1.777 6.7-2 10-.252 3.741 2.752 6.461 0 10-5.409.611-14.475 2.831-19 1-2.532-.718-2.672 2.08-4 3-5.829 4.035-15.289 1.541-24 1-6.412-.398-13.22.969-17-2 1.859-4.878 7.483-5.162 11-7 6.819-3.563 11.042-6.538 14-13 2.613-5.709 4.976-16.355 5-22 .034-7.95-2.92-13.603-5-19-1.414-3.668-3.092-7.422-4-11-1.005-3.956-.146-7.77-1-11-.861-3.255-4.374-4.656-4-8-.358-16.642-7.211-26.789-8-43-1.58-1.19-2.043-1.771-3-3-1.013-1.303-1.194-3.951-2-5-4.972-6.472-13.801-10.521-19-17-4.059-5.058-6.248-11.974-9-18-1.518-3.324-2.648-6.668-4-10-1.273-3.138-2.419-7.073-4-10-1.644-3.045-7.752-8.315-10-11-.626-.748-.46-2.293-1-3-3.325-4.349-10.249-6.923-15-10-.812-.525-1.142-2.491-2-3-1.212-.719-3.696-.283-5-1-.79-.435-1.793-1.301-3-2-4.918-2.85-7.013-5.773-11-9-2.916-2.36-5.389-3.885-8-6-5.611-4.545-9.983-9.32-15-14-4.863-4.536-10.766-8.614-16-13-5.895-4.939-11.201-9.748-17-12-12.396-4.814-29.297-1.847-42-6-14.175-9.158-24.944-21.723-47-23-6.15 1.184-2.64 12.026-12 10-2.953-1.738-1.978-5.513-2-8-.026-2.94.272-6.658 1-9 2.131-6.863 9.771-13.981 15-17C30.167 8.4 55.609 7.419 73 5c11.058-1.538 20.662-.099 29 2 4.506.17 11.356-9.046 20-5 3.971 3.583.412 7.243 0 11-.281 2.567 2.553 4.405 5 7 3.146 3.337 5.737 4.762 9 7 8.805 6.04 18.126 14.197 27 18 8.499 3.643 17.554 7.24 26 10 6.869 2.245 13.843 3.41 21 5 .374.083 2.473 1.855 3 2 6.889 1.888 17.036 3.726 24 3 5.493-.572 11.698-4.234 18-6 6.342-1.777 13.587-3.562 20-4 16.055-1.098 26.318 5.948 41 7 6.746.483 13.228-.521 20 0 15.028 1.158 32.207 7.851 44 11 7.929 2.118 18.339 1.992 27 4 6.868 1.592 13.808 5.086 20 7 2.483.768 4.68 2.147 7 3 9.904 3.64 19.528 6.406 28 10 4.021 1.706 7.449 6.58 11 10 5.604 5.397 7.325 6.46 9 12 .675 2.231 2.922 5.481 4 8 4.684 10.945 13.001 24.865 15 35zm-215 58c1.556.08.693-2.908 0-1-1.114 4.203-3.899 8.749-4 14-.043 2.24 1.673 4.834 2 7 1.05 6.951-1.018 14.31 2 20 1.743-10.936.929-26.392 0-40z"/><path d="M286 260c-3.018-5.69-.95-13.049-2-20-.327-2.166-2.043-4.76-2-7 .101-5.251 2.886-9.797 4-14 .693-1.908 1.556 1.08 0 1 .929 13.608 1.743 29.064 0 40z" fill="#fff"/></g></svg>