<svg xmlns="http://www.w3.org/2000/svg" xmlns:dc="http://dublincore.org/documents/dcmi-terms/" height="405.037" viewBox="0 0 486.88173 379.72197" width="519.34"><metadata><dc:description>Silhouette of Macraucheniidae, processed by PhyloPic Tools (https://github.com/eweitz/phylopic-tools)</dc:description><dc:source>http://phylopic.org/image/c9c5af3a-1fed-4abf-a734-3473f89cae18</dc:source><dc:creator>Zimices</dc:creator><dc:license>http://creativecommons.org/licenses/by-sa/3.0/</dc:license></metadata><path d="M199.864 378.174c-1.817-1.471-2.922-1.738-4.251-1.027-.988.529-3.687.823-6 .655-3.142-.228-4.29-.77-4.551-2.144-.465-2.45 3.607-6.661 6.442-6.661 1.805 0 2.326-.638 2.576-3.15.347-3.48 1.614-4.468 6.814-5.308 8.809-1.423 12.068-16.645 9.109-42.542-.66-5.775-1.523-16.575-1.917-24l-.717-13.5-2.084 7c-2.855 9.59-5.048 19.487-6.425 29-.637 4.4-2.69 12.112-4.563 17.138-2.46 6.603-3.431 10.903-3.503 15.5-.14 8.924-.953 11.183-4.448 12.362-1.632.55-4.538 1.972-6.46 3.16-5.003 3.096-8.992 3.468-8.992.84 0-1.975-4.44-1.962-10.08.028-2.382.84-4.914 1.304-5.626 1.031-3.382-1.298.949-9.546 5.028-9.575 2.894-.02 5.098-1.495 4.26-2.852-1.17-1.892 1.268-4.928 4.927-6.136 7.449-2.458 9.705-12.117 12.378-52.996 1.073-16.417 2.405-23.406 7.717-40.5 5.727-18.43 5.765-17.935-1.926-24.73-4.949-4.371-7.36-7.501-10.185-13.217-4.035-8.168-9.622-14.072-16.644-17.59-2.392-1.199-6.374-3.84-8.85-5.87-2.474-2.03-6.003-4.74-7.84-6.025-1.838-1.284-5.718-5.537-8.62-9.451-2.904-3.915-8.171-10.072-11.705-13.683-5.439-5.556-18.834-25.034-18.834-27.384 0-.408-3.354-6.08-7.454-12.605-4.099-6.525-8.214-13.344-9.144-15.154-2.136-4.156-18.25-24.791-19.36-24.791-.454 0-3.012-1.913-5.684-4.25-2.673-2.338-6.376-5.317-8.231-6.621l-3.373-2.37-10.165 2.694c-11.985 3.176-22.892 3.673-25.409 1.156-1.332-1.332-1.417-2.144-.485-4.613 1.265-3.353.904-3.554-2.695-1.496-1.375.786-4.21 1.445-6.302 1.464-3.405.032-3.951-.325-5.25-3.432C-.685 61.675-.48 59.309 2.397 54.4c2.613-4.458 15.39-16.263 20.417-18.862 1.599-.827 5.481-1.806 8.627-2.176 3.84-.451 7.546-1.772 11.277-4.019 3.057-1.84 6.162-3.346 6.9-3.346.738 0 3.465-1.074 6.059-2.387 5.797-2.933 16.954-6.284 23.921-7.186l5.205-.673 2.082-6.728C89.15 1.706 92.412-1.427 95.642.61c2.177 1.373 4.082 6.932 4.175 12.18.055 3.091 1.744 7.742 6.04 16.631 6.878 14.231 10.655 23.45 16.217 39.576 6.927 20.085 19.302 41.284 27.609 47.297 13.853 10.027 19.203 11.441 32.71 8.644 4.95-1.025 10.573-2.331 12.494-2.903 1.921-.57 7.546-1.037 12.5-1.036 4.954.001 14.522-.735 21.264-1.637 10.549-1.412 16.404-1.51 42-.706 21.968.69 31.418.628 36.154-.236 19.516-3.562 70.743 6.434 87.058 16.988 3.88 2.51 10.313 6.297 14.293 8.414 8.618 4.582 18.432 10.8 21.226 13.447 1.106 1.048 4.164 3.005 6.795 4.35 6.924 3.54 15.475 9.088 21.217 13.766 24.345 19.837 29.46 27.504 29.488 44.207.012 7.383-1.506 10.405-5.228 10.405-2.265 0-6.064-4.887-8.238-10.595-1.028-2.698-2.578-6.057-3.445-7.465-1.867-3.03-11.758-14.529-14.479-16.831-1.045-.885-3.268-2.786-4.94-4.224l-3.04-2.616-4.664 3.616c-2.58 2-7.192 7.413-10.323 12.115-13.94 20.933-23.716 36.488-24.236 38.56-.81 3.23 1.862 6.756 11.05 14.58 8.372 7.13 19.543 12.808 29.863 15.179 3.694.848 6.343 2.328 9.416 5.26 3.809 3.633 4.276 4.574 4.276 8.624 0 2.5-.663 6.422-1.472 8.715-.809 2.294-1.77 8.988-2.135 14.876-.393 6.339-1.625 14.064-3.02 18.938-2.004 7.006-2.26 9.548-1.727 17.075.748 10.53-.113 12.404-8.142 17.733-5.326 3.535-8.31 4.254-10.128 2.437-.697-.698-2.628-.653-6.068.14-6.046 1.396-9.941.616-10.824-2.168-.875-2.755.967-4.724 5.58-5.966 5.452-1.469 9.498-6.833 12.47-16.535 2.17-7.086 2.466-9.916 2.466-23.595 0-17.171.106-16.86-7.131-20.765-7.01-3.781-34.242-19.155-37.536-21.191-1.891-1.17-3.671-1.893-3.956-1.608-.284.284.466 2.8 1.666 5.59 2.701 6.28 9.41 12.627 14.911 14.109 2.923.786 4.71 2.052 6.087 4.313 2.572 4.218 2.48 5.43-.892 11.808-1.568 2.965-3.665 8.012-4.66 11.216-.996 3.205-3.36 8.38-5.251 11.5-4.463 7.36-10.234 23.9-10.254 29.383-.02 5.434-.47 6.063-6.149 8.556-2.565 1.126-5.169 2.99-5.785 4.142-1.14 2.13-6.372 3-7.46 1.24-.29-.468-5.578-.915-11.751-.992-6.174-.077-11.677-.592-12.23-1.145-.674-.674.073-2.118 2.267-4.382 2.4-2.477 4.455-3.538 7.715-3.985 9.211-1.262 10.934-3.08 21.925-23.14 8.39-15.311 9.903-19.339 9.209-24.514-.505-3.763-6.161-12.46-10.724-16.488-1.246-1.1-6-6.95-10.564-13s-11.852-14.6-16.197-19c-7.572-7.669-13.223-15.594-13.256-18.588-.038-3.562-1.398-3.893-8.023-1.95-19.458 5.703-46.934 7.176-69.242 3.712-5.929-.921-12.908-1.674-15.509-1.674h-4.728l-2.361 7.25c-7.136 21.913-9.246 34.097-9.296 53.69-.022 8.733-.561 15.388-1.539 19-3.168 11.707-4.46 19.938-4.78 30.445-.398 13.045-1.182 14.239-10.69 16.287-3.474.748-7.458 1.615-8.854 1.927-1.697.378-3.35-.093-4.992-1.422z"/></svg>