<svg xmlns="http://www.w3.org/2000/svg" xmlns:dc="http://dublincore.org/documents/dcmi-terms/" height="195.022" viewBox="0 0 920.91576 182.83331" width="982.31"><metadata><dc:description>Silhouette of Mahajangasuchus insignis, processed by PhyloPic Tools (https://github.com/eweitz/phylopic-tools)</dc:description><dc:source>http://phylopic.org/image/16d9a84b-7be8-4624-baf8-d7db90e900ba</dc:source><dc:creator>Nobu Tamura, vectorized by Zimices</dc:creator><dc:license>http://creativecommons.org/licenses/by-sa/3.0/</dc:license></metadata><path d="M203.458 181.37c0-1.085.934-3.004 2.075-4.266 4.796-5.299-1.642-3.616-8.734 2.283-4.27 3.552-7.78 3.96-6.458.752 2.587-6.285 2.421-6.808-2.02-6.378-3.747.363-4.204.086-3.94-2.387.163-1.539-.259-2.798-.938-2.798-5.134 0 5.236-5.943 14.36-8.23 3.334-.836 15.655-11.896 15.655-14.053 0-.477-1.43-2.408-3.176-4.292-2.824-3.046-4.061-3.425-11.18-3.425-6.711 0-8.3.424-9.84 2.624-2.046 2.92-7.554 6.126-10.525 6.126-1.065 0-4.57 1.69-7.789 3.756-3.219 2.066-8.05 3.98-10.734 4.255-2.685.274-6.428 1.101-8.319 1.838-3.262 1.271-3.995.943-3.53-1.579.112-.607-1.508-.762-3.602-.343-2.159.431-3.805.233-3.805-.458 0-.67-.844-1.219-1.875-1.219-4.571 0-.953-3.21 10-8.873 9.004-4.656 10.625-5.9 10.625-8.155 0-1.251-1.857-1.722-6.794-1.722-10.436 0-24.014-3.346-33.758-8.32-15.535-7.93-16.313-8.347-16.948-9.082-3.227-3.733-16.58-7.246-28.125-7.4-12.97-.174-41.924-4.331-52.934-7.6-5.406-1.606-16.006-8.41-16.955-10.884-.405-1.055-.736-3.357-.736-5.116 0-1.758-.931-3.878-2.068-4.71-1.914-1.398-1.89-1.876.312-6.387 3.07-6.287 9.975-10.08 21.268-11.682 4.783-.678 12.425-2.385 16.982-3.792 5.311-1.64 11.353-2.503 16.833-2.404 5.422.098 10.604-.633 14.173-1.999 7.365-2.82 41.133-4.181 47.946-1.933 7.855 2.593 20.811 2.584 25.934-.018 4.124-2.094 4.742-2.122 7.3-.33 1.895 1.327 4.375 1.744 7.708 1.297 3.306-.443 5.49-.083 6.673 1.1 2.116 2.116 4.95 2.244 8.43.381 1.892-1.013 2.809-1.003 3.45.036 1.302 2.105 9.782 2.398 12.585.434 1.602-1.122 3.945-1.428 6.812-.89 3.26.611 5.49.16 8.77-1.775 2.418-1.427 5.19-2.291 6.157-1.92.967.371 3.47-.21 5.56-1.29 2.09-1.081 5.159-1.966 6.819-1.966 1.66 0 4.45-1.126 6.201-2.503 1.952-1.536 4.027-2.18 5.368-1.665 1.475.566 3.036-.157 4.799-2.224 4.693-5.503 6.387-6.328 9.8-4.773 3.249 1.48 8.8-.463 13.77-4.822 2.003-1.757 2.36-1.728 3.849.309 1.406 1.923 2.075 2.021 4.668.684 1.664-.859 4.591-3.022 6.505-4.808 3.017-2.815 3.817-3.036 6.011-1.666 2.137 1.335 3.18 1.18 6.692-.99 2.288-1.414 5.075-2.22 6.191-1.792 1.122.43 5.242-.8 9.204-2.749 3.945-1.94 8.323-3.384 9.728-3.209 1.406.176 4.525-1.016 6.931-2.65 3.047-2.067 4.932-2.618 6.207-1.813 1.27.801 3.968.047 8.807-2.464 4.804-2.493 7.541-3.263 8.792-2.474 1.224.772 4.524.062 10.126-2.18 6.588-2.635 8.778-3.031 10.57-1.912 1.765 1.101 3.652.864 8.588-1.082 5.755-2.269 6.441-2.312 7.595-.483 1.15 1.824 2.062 1.75 9.814-.795 6.31-2.07 8.783-2.42 9.454-1.335.574.93 2.455 1.183 5.11.688 13.019-2.425 13.576-2.439 13.576-.331 0 2.487-.207 2.485 9.007.097 7.031-1.821 7.595-1.804 9.122.284 1.469 2.01 2.326 2.079 8.817.717 6.366-1.335 7.365-1.269 8.714.576 1.368 1.87 2.275 1.916 8.87.44 4.04-.904 7.978-1.887 8.753-2.184.774-.297 1.77.9 2.211 2.66.933 3.717 1.652 3.81 10.796 1.392 5.765-1.524 7.04-1.54 8.149-.1 1.02 1.325 5.227 1.638 18.824 1.403 9.63-.167 18.217-.74 19.081-1.275.944-.583 2.208-.1 3.165 1.207 1.267 1.733 2.876 2.055 7.865 1.576 3.821-.367 7.07-.02 8.314.89 1.208.882 4.468 1.262 7.988.928 4.832-.457 6.535-.05 9.073 2.163 2.69 2.346 4.038 2.611 9.688 1.905 5.481-.685 6.563-.496 6.563 1.145 0 1.544 1.445 1.965 6.74 1.965 4.84 0 6.945.53 7.462 1.875.514 1.34 2.608 1.875 7.337 1.875 5.664 0 6.796.406 7.852 2.813.892 2.033 2.446 2.899 5.609 3.124 13.778.982 17.257 1.752 17.831 3.947.583 2.228 6.248 3.822 13.687 3.852 2.158.01 3.905.97 4.798 2.638 1.116 2.085 2.304 2.519 5.79 2.112 3.609-.421 4.569-.03 5.419 2.206 1.3 3.42 3.618 4.308 11.243 4.308 4.79 0 6.216.483 6.793 2.3 1.036 3.263 5.372 5.215 12.211 5.497 5.312.22 5.971.58 6.641 3.628.789 3.591 5.529 6.058 11.71 6.094 4.16.025 5.97 1.227 6.557 4.356.407 2.162 1.617 2.55 8.94 2.87l8.471.372-.777 4.143-.778 4.143 7.607.86c6.216.704 7.607 1.278 7.607 3.143 0 2.43 4.348 3.844 11.814 3.844 3.71 0 3.963.267 3.469 3.64-.633 4.308 1.28 5.633 9.944 6.89 5.189.752 5.944 1.266 6.662 4.535.86 3.918 2.41 4.639 11.236 5.227 3.532.235 4.889.85 4.621 2.094-.561 2.61 2.177 3.824 8.68 3.845 5.144.017 5.892.375 6.589 3.152.752 2.998 1.08 3.098 7.602 2.332 6.539-.769 6.868-.666 8.076 2.51 1.162 3.058 1.668 3.255 6.595 2.565 2.935-.412 6.005-.951 6.821-1.2.817-.248 1.66.783 1.875 2.292.359 2.52.978 2.709 7.578 2.323 4.596-.268 7.188.07 7.188.938 0 1.681 5.017 1.764 9.256.152 2.478-.942 3.413-.77 4.287.792.843 1.507 2.156 1.793 5.35 1.165 2.327-.458 8.171-1.066 12.987-1.352 4.815-.286 10.844-1.393 13.397-2.46 5.604-2.342 9.738-2.503 9.68-.377-.068 2.52-18.432 12.508-29.957 16.294-40.954 13.452-76.148 7.648-191.875-31.644-24.75-8.404-51.188-16.825-58.75-18.714-13.777-3.441-28.36-6.198-31.875-6.026-1.032.05-12.844-1.244-26.25-2.877-35.73-4.35-78.504-3.502-112.446 2.232-10.405 1.757-12.243 2.464-15.346 5.897-7.856 8.693-9.2 9.667-15.88 11.502-3.825 1.05-11.453 3.36-16.953 5.133l-10 3.224-.189 10.788c-.276 15.823-2.341 19.731-15.017 28.43-5.626 3.862-11.99 9.476-14.15 12.483-2.159 3.006-4.734 5.465-5.722 5.465-.989 0-1.797.563-1.797 1.25 0 .688-.594 1.25-1.32 1.25-1.669 0-.965-5.951 1.159-9.794 3.212-5.813-.714-4.652-11.714 3.466-9.31 6.87-9.375 6.892-9.375 3.32 0-1.753 1.74-5.137 3.916-7.615 2.154-2.454 3.566-4.811 3.138-5.24-1.021-1.02-10.485 3.275-14.516 6.588-3.78 3.107-7.538 4.636-7.538 3.067 0-3.917 3.497-8.24 11.2-13.842 4.84-3.52 8.8-6.918 8.8-7.55 0-1.617-.344-1.53-8.173 2.05-9 4.117-10.974 3.8-8.766-1.407 1.715-4.047 5.209-5.785 19.88-9.89 7.843-2.195 13.309-6.51 13.309-10.507 0-3.304-3.59-6.725-6.06-5.777-1.094.42-9.956 2.091-19.695 3.715-9.739 1.624-19.319 3.764-21.289 4.756-1.97.991-8.081 2.747-13.581 3.9-5.5 1.154-12.431 2.65-15.402 3.323-2.97.674-5.91.91-6.532.526-.622-.385-4.38-.123-8.349.582-3.97.705-11.999 2.136-17.842 3.181-5.844 1.045-12.454 1.9-14.688 1.9-2.393-.001-4.081.64-4.108 1.56-.026.86-3.396 4.938-7.49 9.063-4.093 4.125-7.447 8.385-7.453 9.466-.006 1.082-3.105 4.722-6.886 8.09-3.782 3.369-6.875 6.824-6.875 7.678 0 2.316-4.643 4.527-5.395 2.569-.402-1.047-1.237-.688-2.563 1.104-2.546 3.441-7.042 4.725-7.042 2.012zM34.395 88.312c-1.008-4.88-7.988-8.022-10.625-4.781-1.396 1.715-1.744 1.687-3.263-.267-2.144-2.76-2.86-2.752-3.59.037-.678 2.595 2.929 6.736 3.742 4.295.353-1.058 1.18-1.136 2.809-.264 1.804.965 2.403.759 2.743-.948.387-1.937.71-1.866 2.869.63 2.603 3.008 5.83 3.797 5.315 1.298zm11.337-4.507c.29-1.978-.246-2.729-1.949-2.729-3.518 0-7.1 3.08-6.227 5.356 1.146 2.987 7.66.893 8.176-2.627zM9.708 84.2c0-3.291-1.719-4.15-3.273-1.636-.506.819-.254 1.71.559 1.982.814.27 1.161 1.007.773 1.636-.389.629-.111 1.143.617 1.143s1.324-1.406 1.324-3.125zm43.75-2.366c0-.958-.844-2.065-1.875-2.46-1.88-.722-2.648 1.762-1.042 3.368 1.401 1.401 2.917.93 2.917-.908z"/></svg>