<svg xmlns="http://www.w3.org/2000/svg" xmlns:dc="http://dublincore.org/documents/dcmi-terms/" height="338" width="480"><metadata><dc:description>Silhouette of Mammuthus primigenius, processed by PhyloPic Tools (https://github.com/eweitz/phylopic-tools)</dc:description><dc:source>http://phylopic.org/image/9e470bbd-0227-40eb-b9de-fd2ad13ec933</dc:source><dc:creator>Zimices</dc:creator><dc:license>http://creativecommons.org/licenses/by-nc/3.0/</dc:license></metadata><path d="M199.905 310.444c-2.801-1.38-3.25-2.118-3.25-5.342 0-2.235.811-4.77 2.015-6.301 1.985-2.524 2.006-3.474 1.431-64.385-.378-40.01-.972-63.266-1.685-65.91-.666-2.474-1.921-4.447-3.18-5-1.616-.71-2.15-1.985-2.387-5.713-.274-4.278-.524-4.731-2.298-4.168-1.095.348-2.577.146-3.293-.448-.94-.78-2.566 1.764-5.85 2.752-2.503.753-5.075-1.418-5.716-1.814-1.405-.869-6.054-.136-7.777 1.226-.683.54-3.16.693-5.503.342-3.786-.568-4.373-.385-5.259 1.635-.738 1.683-1.978 2.355-4.77 2.586-3.41.282-3.9.008-5.104-2.856l-1.331-3.167-.647 3.23c-.355 1.777-.647 4.187-.65 5.356-.003 2.224-4.72 12.383-7.056 15.197-1.896 2.285-3.09 34.222-2.288 61.223.61 20.534.728 21.48 3.314 26.485 2.407 4.656 3.103 5.262 6.772 5.888 4.892.835 15.992 8.145 17.546 11.555.81 1.778.805 2.905-.018 4.223-.935 1.498-.717 1.983 1.306 2.905 3.295 1.5 3.188 4.91-.195 6.196-4.498 1.71-14.097-.869-26.63-7.154-17.761-8.908-24.044-19.92-29.036-50.893-4.007-24.859-4.724-31.37-4.718-42.817.008-13.855.666-13.055-7.865-9.563-3.853 1.577-21.172 1.905-23.891.452-.955-.51-4.212-1.671-7.237-2.58-11.077-3.33-21.88-10.135-31.176-19.644-5.245-5.364-9.2-10.352-10-12.611-.848-2.394-3.294-8.588-3.294-17.237 0-12.936 2.086-13.696 4.729-18.192 1.517-2.58 5.22-7.193 8.228-10.25 4.242-4.311 6.147-5.558 8.491-5.558 4.003 0 4.122 3.238.204 5.552-1.55.916-4.363 3.926-6.25 6.69-3.338 4.887-3.44 5.332-3.767 16.36-.3 10.172-.1 11.829 1.96 16.118 2.547 5.3 8.886 14.603 9.52 13.969.223-.223-.561-2.607-1.743-5.297-1.836-4.183-2.165-6.922-2.268-18.892-.16-18.759 1.043-26.533 4.365-28.188 2.064-1.028 2.755-.987 3.98.238 1.205 1.205 1.252 1.851.252 3.453-.77 1.232-1.23 5.88-1.23 12.411 0 10.98 2.576 23.427 6.765 32.691 2.65 5.857 8.84 12.832 12.892 14.525 5.71 2.386 15.262 1.737 24.006-1.63 4.285-1.65 8.251-3.007 8.814-3.015 2.704-.04 3.622-2.34 4.94-12.369 1.063-8.095 2.016-11.675 3.844-14.44 1.337-2.022 3.929-6.15 5.76-9.176 1.83-3.025 4.342-6.625 5.581-8 1.24-1.375 3.404-4.802 4.81-7.615 1.407-2.813 3.272-5.708 4.145-6.433.874-.725 2.45-3.006 3.502-5.069 1.053-2.063 2.75-4.343 3.773-5.067 1.022-.724 2.49-2.5 3.263-3.949 2.458-4.606 8.919-10.976 12.724-12.543 4.65-1.915 8.18-5.142 8.18-7.478 0-.993.653-3.502 1.45-5.576.797-2.073 1.942-5.695 2.545-8.047.826-3.219 2.112-5.012 5.201-7.25 3.666-2.655 4.89-2.973 11.45-2.973 6.285 0 8.44.505 14.923 3.5 4.168 1.925 7.92 3.5 8.338 3.5.418 0 2.662-1.755 4.986-3.9 3.97-3.666 7.205-5.193 18.107-8.548 13.45-4.14 17.37-4.901 27-5.248 8.791-.316 12.037.027 19.938 2.105 5.191 1.364 10.591 3.427 12 4.584 1.41 1.157 4.715 3.077 7.347 4.268 2.986 1.351 4.985 2.966 5.32 4.297.356 1.42 2.325 2.874 5.896 4.354 2.95 1.222 6.947 3.717 8.885 5.544 2.827 2.667 4.864 3.548 10.318 4.462 6.55 1.098 12.032 2.233 27.546 5.704 9.563 2.14 39.22 16.005 50.75 23.727 4.44 2.974 14.159 11.042 20.993 17.43 1.929 1.802 5.757 4.793 8.507 6.646 2.75 1.853 6.109 4.878 7.463 6.722 1.354 1.844 4.078 5.153 6.053 7.353 3.99 4.445 7.271 12.472 11.897 29.094 3.347 12.025 3.755 16.34 1.87 19.722-.67 1.201-1.233 3.76-1.25 5.684-.029 3.044-.354 3.5-2.494 3.5-2.498 0-3.31-1.056-6.542-8.5-3.858-8.89-6.746-13-9.132-13-3.033 0-2.985 1.32.2 5.496 2.724 3.572 3.502 8.837 1.589 10.75-.635.635-1.154 2.203-1.154 3.485 0 1.283-.675 2.59-1.5 2.907-1.914.735-1.908 2.809.016 5.746 1.157 1.766 1.398 4.185 1.017 10.215-.274 4.345-.74 9.026-1.035 10.401-1.024 4.782 4.14 30.842 8.52 43 .694 1.925 2.999 7.332 5.122 12.016 2.123 4.684 3.86 9.49 3.86 10.679 0 1.19.674 2.835 1.497 3.658 4.233 4.234 4.589 11.542.754 15.513-3.618 3.746-7.99 4.444-22.422 3.583-13.174-.786-13.237-.834-10.328-7.795 2.526-6.046 1.897-9.037-3.97-18.872-3.01-5.043-7.309-13.854-9.555-19.582-4.798-12.232-7.027-15.977-14.028-23.568-5.546-6.012-7.72-6.826-9.715-3.632-.699 1.118-2.332 2-3.706 2-2.838 0-3.798 1.52-5.474 8.667-.667 2.842-2.076 5.95-3.132 6.905-1.123 1.016-1.92 3.052-1.92 4.902 0 4.751-2.883 13.615-5.597 17.21-1.544 2.045-2.412 4.547-2.427 7-.013 2.099-.527 5.616-1.142 7.816-.615 2.2-1.034 6.76-.93 10.133.283 9.31.159 9.37-19.226 9.352-8.898-.008-16.68-.346-17.294-.75-3.682-2.426-1.807-9.363 3.027-11.201 3.043-1.157 3.578-3.96 4.584-24.034.455-9.075 1.317-18.072 1.916-19.993.599-1.922 1.089-5.81 1.089-8.642 0-4.682-.23-5.206-2.546-5.787-1.4-.352-3.062-.32-3.691.068-.63.39-3.099.607-5.486.483-3.096-.16-5.08.357-6.916 1.801-2.685 2.112-4.719 4.218-7.23 1.19-.663-.797-2.09-3.682-3.174-3.399-2.582.676-4.674-1.156-5.473-4.79-.768-3.498-2.225-3.815-3.017-.656-.314 1.252-.66 12.41-.77 24.797l-.197 22.521 4.287 9.05c5.026 10.606 5.981 15.016 3.867 17.857-1.339 1.799-2.868 2.033-15.173 2.33-16.374.394-19.481-.444-19.481-5.251 0-1.749.507-3.687 1.128-4.307.837-.837.093-2.922-2.887-8.09-2.208-3.83-4.492-8.475-5.075-10.323-1.08-3.424-4.575-23.91-5.775-33.859-.365-3.025-1.224-6.625-1.91-8-.684-1.375-1.555-4.525-1.934-7-.38-2.475-1.333-7.743-2.119-11.708-.785-3.964-1.496-10.04-1.578-13.5-.132-5.539-.254-5.095-1.017 3.708-1.034 11.927-2.715 23.236-3.863 26-.458 1.1-1.022 4.367-1.255 7.26-.233 2.893-1.113 6.043-1.955 7-.842.957-1.783 3.315-2.09 5.24-.6 3.75-1.89 9.748-3.658 17-.604 2.475-1.335 6.75-1.624 9.5-.29 2.75-1.03 6.029-1.646 7.286-.833 1.702-.816 3.123.07 5.57 1.33 3.682 1.535 8.6.422 10.202-2.608 3.756-5.59 4.442-19.207 4.42-10.353-.018-14.29-.4-16.777-1.626z"/></svg>