<svg xmlns="http://www.w3.org/2000/svg" xmlns:dc="http://dublincore.org/documents/dcmi-terms/" height="1059.5" version="1.2" viewBox="0 0 3000.5 1059.5" width="3000.5"><metadata><dc:description>Silhouette of Eurypterida, processed by PhyloPic Tools (https://github.com/eweitz/phylopic-tools)</dc:description><dc:source>http://phylopic.org/image/36359e64-13d4-4ca1-b967-329eca64d197</dc:source><dc:creator>Nobu Tamura (vectorized by T. Michael Keesey)</dc:creator><dc:license>http://creativecommons.org/licenses/by/3.0/</dc:license></metadata><path d="M3000.25.25v1059h-2823c7.48-9.94 27.08-1.6 36-10 4.91-.91 3.81 4.19 8 4 13.5-2.37 28.73-5.82 42-4 10.91-7.26 27.31-2.83 37-11 4.18-.84 4.72 1.94 8 2 3.92-2.75 9.43-3.9 13-7 5.39-1.39 4.19 3.81 9 3 10.6-10.06 31.06-10.27 42-20 3.77-.77 4.78 1.22 8 1 6.34-3.33 12.56-6.77 18-11 4.37-.7 5.63 1.7 10 1 8.14-2.77 12.3-14.03 23-11 5.93-4.41 9.18-11.49 16-15 3.07-2.57 5.03 2.37 8 3 8.9-4.2 13.36-17.44 26-12 7.13-5.14 8.55-19.27 21-16 4.62-6.04 8-13.33 13-19 1.66-1.67 5.87-.8 9-1 12.6-17.4 30.85-29.15 42-48 9.29-2.04 11.77-10.9 16-18 1.45-1.55 5.12-.88 8-1 3.49-6.18 5.98-13.36 10-19 14.72-.28 11.86-18.14 27-18 5.64-14.36 20.58-19.42 28-32 16.21 1.55 15.17-14.17 31-13 4.42-3.58 8.42-7.58 12-12 3.11.01 6.52 2.37 9 0 7.32-4.68 12.41-11.59 20-16 5.49 2.65 15.08-.8 23 1 6.59 1.5 11.72 9.04 19 13 13.65 7.44 30.86 17.12 52 14 14.09-2.08 18.16-10.3 32-16 .49 10.83-8.08 12.59-12 19-27.65 10.35-47.57 28.43-83 31 .28 5.53 8.03 6.14 12 7 12.5 2.72 26.26 4.39 39 2 4.13-.78 7.9-4.25 12-5 3.77-.69 8.05.77 12 0 13.33-2.59 17.69-14.49 27-19 3.06-1.48 6.57-.69 9-2 5.87-3.16 9.74-12.54 15-14 10.3-2.86 19.22 6.75 27 10 11.67 4.88 28.93 9.73 35 11 9.78 2.05 28.63-2.44 30 8 1.01 7.73-17.7 19.49-24 28-8.77 11.85-10.74 19.85-19 28-8.26 1.41-11.06 8.28-16 13-12.49 3.51-21.67 10.33-29 19-28.29 4.38-48.65 16.68-73 25 23.34 4.68 70.75 11.29 85-6 21.65 7.71 28.34-14.31 46-17 17.82-27.18 47.27-42.73 56-79 7.11.58 11.95-9.39 19-10 5.56-.48 14.83 6.4 23 10 7.66 3.38 16.15 8.38 23 10 30.78 7.27 48.6-7.12 73-15-14.04 30.3-30.32 58.35-54 79-1.05 3.29-.48 8.19-2 11-24.66 9.68-35.89 32.78-54 49 24.34-5.34 57.1-10.88 67-34 12.51.28 12.75-10.95 19-17 2.03-1.96 5.24-.97 7-2 6.57-3.84 8.51-12.3 11-19 13.33-5.59 27.81-26.21 34-40 4.78-10.64 5.04-24.91 13-27 5.44-1.43 15.45 3.68 23 6 7.55 2.32 16.81 5.29 23 6 27.89 3.22 37.74-14.43 56-26 17.66 10.29 44.02 18.88 71 11-6.23 15.77-18.19 25.81-20 46-1.82 2.18-8.18-.18-10 2-7.21 5.45-13.75 11.59-18 20-9.73-1.43-14.81 9.63-21 15-25.89 6.11-35.91 28.09-53 43 29.97.96 45.68-20.97 69-30 6.63-4.37 12.19-9.81 18-15 9.52-3.37 16.72-6.59 23-13 3.26-3.33 4.15-8.71 7-12 3.44-3.98 9.37-6.2 13-11 4.46-5.89 7.91-13.87 11-21 3.15-7.28 4.81-18.34 9-24 4.61-6.22 15.59-7.1 20-13 13.4 2.83 30.76 6.87 48 7 24.39.18 51.04-1.69 66-12 7.72 2.22 14.09-4.22 21-6 10.35 3.02 6.96 14.39 8 24 1.56 14.48 8.51 30.97 14 40 2.63 18.7 3.68 38.99 14 50-1.51 10.97 2.79 20.88 7 28 10.82 18.33 24.87 38.24 38 52 1.77-9.78-3-20.27-6-30-3.12-10.11-5.64-20.83-9-30-.67-1.83-3.18-2.18-4-4-3.5-7.75-2.14-14.55-8-19-.91-17.73-3.57-41.55-11-56 4.15-20.81-9.85-35.12-6-50 .71-2.76 9.5-12.07 14-13 6.18-1.28 14.17 4.2 24 6 8.5 1.56 19.32 2.81 28 2 11.65-1.09 21.84-10.58 29-11 11.27-.66 23.71 10.31 31 10 11.19 27.33 17.96 53.21 44 66-1.44 2.22-2.51 4.82-2 9 5.33 16 22.16 20.51 27 37 2.8 1.87 4.88 4.45 9 5 10.6 26.73 34.42 40.24 56 56-7.52-21.24-14.07-39.13-28-53-3.95-3.94-10.32-5.82-14-10-6.41-7.27-8.09-18.19-17-23 1.53-14.2-7.55-17.78-12-26-2.92-22.08-15.35-34.65-23-52 9.1-1.23 16.55-17.64 27-18 5.83-.2 10.76 7.38 17 11 34.71 20.09 91.83 27.7 140 13 4.72 21.05 3.67 45.13 12 65 1.4 3.33 4.64 5.87 6 9 4.75 10.92 4.06 20.61 14 25 1.62 12.38 7.64 20.36 14 28 5.05 28.62 23.01 44.33 41 60-9.09-22.24-11.19-51.48-27-67 2.77-11.8-7.83-20.08-10-30-.9-4.11.72-9.05 0-13-.8-4.42-4.92-8-6-12-1.21-4.48-.1-9.62-1-14-2.86-13.85-10.43-25.44-14-38 2.17-3.5 6.2-5.14 9-8 19.61 5.05 36.95 12.16 58 10 8.37-.86 16.2-6.68 24-7 16.94-.7 29.33 13.92 45 14 9.95 18.38 14.94 41.73 30 55-1.23 15.56 4.57 24.09 12 31 14.12 30.21 27.97 56.54 53 77-10.16-23.62-19.86-47.7-30-71-2.17-4.98-6.95-8.96-9-14-2.98-7.31-1.09-16.45-8-22 .79-22.28-13.53-37.7-19-57 6.58-5.75 15.66-9.01 22-15 40.43 18.73 106.01 50.88 156 23 7.2 5.62 7.43 13.86 10 22 2.78 8.8 8.72 17.54 14 26 21.65 34.68 37.02 76.41 63 104 .17-21.51-9.99-41.34-19-57-1.88-2.37 1.26-5.78-1-9-5.37-8.29-6.28-21.06-13-28-4.13-21.77-18.41-37.94-17-62 20.7 7.69 47.11 18.46 73 17 4.45-.25 8.4-3.02 12-2 5.78 1.64 16.16 21.01 20 27 6.67 10.4 12.6 21.3 19 28 2.76 2.88 7.02 4.02 10 7 5.56 5.58 8.42 13.8 14 20 16.17 17.95 35.25 35.23 57 46-9.52-17.81-19.11-35.56-35-47-1.04-2.29-.63-6.03-2-8-1.69-3.98-6.22-5.11-9-8-9.32-20.02-22.37-36.29-36-52 .83-5.5 5.68-6.99 6-13 34.4 10.54 79.28 10.17 115 1 9.96 22.37 25.21 39.46 45 52 1.79 3.54 4.58 6.09 6 10 30.33 18.67 55.21 42.79 96 51-24.35-27.65-58.29-45.71-85-71-2.94-18.51-17.65-25.68-20-43 12.68.29 23.48 2.25 36 2 8.84-.18 20.72-5.21 28-3 2.16.66 8.47 8.33 12 12 9.47 9.85 13.83 17.54 23 25 4.5 3.66 10.55 5.12 15 9 3.97 3.46 5.65 9.16 10 13 7.66 6.75 16.44 11.45 25 16 16.12 26.22 48.08 36.59 76 51-6.67-10.54-17.55-20.57-28-30-10.47-9.46-21.61-19.53-35-25-9-13.33-19.99-24.68-33-34-2.99-19.67-22.71-22.62-24-44 9.61.03 14.82-4.22 23-3 12.74 1.9 21.17 20.37 39 14 21.61 21.06 46.39 38.95 74 54-21.22-16.78-51.46-33.21-72-54 2.11-4.56 4.09-9.24 5-15 74.36 5.39 141.28 6.99 201-9-36.67-43.33-124.19-35.81-195-45 3.39-7.85 2.69-19.06 2-26 64.65 5.76 143.24 17.71 196-8-45.04-34.26-117.99-35.8-191-43-.46-5.54-2.97-9.03-3-15 24.61-9.39 50.5-17.5 79-23-29.32 1.34-57.3 12.7-82 22-13.67-7.33-37.56-7.71-47 4-8.32-.01-11.98-4.68-19-6 9.55-10.26 23.73-13.36 37-20 7.3-3.65 14.15-9.31 22-13 14.79-6.96 38.01-5.12 47-16 27.33-1 40.95-15.71 60-25-29.53-3.9-55.89 12.02-84 16-5.66.8-11.47-.96-17 0-5.07.88-9.81 6.08-16 8-14.38 4.46-31.68 4.04-43 9-6.06 2.65-10.7 7.2-15 11-13.52-.52-21.5 4.5-28 11-8.02-1.65-16.09-3.25-22-7-15.97-2.7-34.54-2.79-45-11 3.19-5.7 10.96-5.87 16-9 9.05-5.61 14.8-15.08 23-21 12.52-9.04 27.27-15.47 42-23 17.44-8.91 32.11-23.46 50-32-35.72 4.61-65.06 24.27-98 35-6.75 7.18-15.46 7.79-26 11-9.32 2.83-19.03 9.12-27 14-9.76 5.98-18.62 12.35-26 18-24.26-12.74-53.68-20.32-86-25 5.38-14.95 18.88-21.78 25-36 17.21-11.03 32.21-24.51 49-35 14.86-9.28 27.56-20.57 39-33-19.18 8.49-48.86 15.14-63 32-14.84 4.5-26.2 12.47-37 21-11.32 4.78-21.6 9.26-30 17-4.83 4.45-8.44 13.14-15 14-4.85.63-8.8-3.19-15-5-9.06-2.64-23.85-5.62-33-6-23.77-.98-42.69 3.95-58 3 .92-9.97 11.4-13.24 17-19 6.27-6.46 10.21-13.76 16-21 1.92-3.75 3.74-7.59 5-12 11.68-3.26 14.49-13.83 21-21 6.43-7.08 16.2-13.08 23-18 16.67-12.07 30.18-27.39 43-43-21.59 7.08-49.5 16.5-63 35-9.74 2.6-16.4 8.27-20 17-3.99.68-6.19 3.15-10 4-4.31 12.25-14.41 16.76-24 23-3.39 2.21-6.5 6.33-9 8-2.03 1.36-3.62-.03-5 1-12.72 9.51-18.42 24.66-32 32-32.7-25.12-107.57-33.47-157-20-5.67-4-9.38-9.96-15-14 2.89-7.67 8.83-13.81 14-20 5.78-6.91 8.93-13.84 14-21 2.28-3.22 7.17-5.29 10-9 8.41-11.04 11.84-21.45 24-27 1.63-3.28-.23-3.82 0-8 22.08-12.58 29.7-39.63 44-60-11.35 4.57-19.04 11.34-27 18-11.62 9.74-22.52 17.93-29 32-11.83.44-12.7 11.32-18 17-2.37 2.54-7.38 2.73-10 5-5.22 4.54-6.06 10.49-9 15-22.27 9.06-35.03 27.64-50 44-18.6-5.8-33.69 4.52-49 3-8.65-.86-17.02-8.93-27-11-18.53-3.84-36.8-2.46-57-5 2.81-16.68 17.31-26.98 24-41 2.29-4.79 2.47-10.32 5-15 4.95-9.15 16.97-13.97 17-26 7.07-4.93 14.92-9.08 17-19 20.7-10.3 30.26-31.74 43-50-12.04 3.67-25.08 14.89-38 21-4.37 1.3-3.82 7.51-10 7-1.62 4.38-5.12 6.88-6 12-13.44.36-17.69 14.09-25 22-5.53 5.98-15.59 8.87-16 19-3.64 1.36-4.94 5.06-9 6-5.31 9.85-14.96 17.36-21 26-5.45 7.8-9.49 24.21-20 27-8.26 2.19-31.06-6.18-45-8-23.74-3.1-46.91-6.15-73-5-18.03.79-37.65 7.59-51 6-9.01-1.07-17.04-9.69-26-7 .85-11.68 10.16-20.16 12-32 .59-3.8-.94-8.06 0-12 1.88-7.86 10.58-14.83 9-24 5.89-4.11 9.3-10.7 10-20 15.53-16.47 23.02-40.98 31-65-9.35 2.16-16.52 11.52-24 19-9.89 9.89-22.94 17.57-23 34-9.43 17.57-24.13 29.87-29 52-13.3 8.68-13.53 23.11-21 37-3.09 5.75-7.3 12.06-10 17-12.55 23-25.52.03-44-3-34.87-5.71-53.53 17.57-84 23-1.74-13.1 3.98-25.79 6-39 1.11-7.28-1.01-14.93 0-22 1.02-7.18 6.26-13.96 7-22 .55-6-.82-11.32 0-17 1.62-11.2 5.5-23.04 10-30 2.47-23.87 6.95-45.71 7-72-9.74 4.42-12.27 17.18-17 27-5.34 11.08-10.5 20.74-12 34-.29 2.53.82 7.37 0 10-2.51 8.04-10.33 10.96-12 20-3.22 17.46-4.72 29.33-9 45-5.3 19.4-16.81 35.63-17 58-15.95.93-31.45-4.64-47-6-49.97-4.38-90.49 14.11-122 30-4.76-2.91-7.7-7.63-8-15-7.55-17.38-25.43-29.15-40-42-5.09-4.49-8.7-11.13-14-15-3.79-2.77-9.97-3.01-14-6-6.88-5.1-9.45-17.17-21-16-14.41-24.59-45.12-32.88-71-46-1.87 7.06 11.12 7.4 12 15 16.99 13.01 24.78 35.22 46 44 9.86 14.14 22.53 25.47 37 35 4.57 22.09 25.03 28.3 34 46-25.86 2.51-39.54 10.07-57 21-9 5.63-20.56 16.18-29 16-8.26-.18-15.45-7.45-24-8-16.36-1.05-26.14 6.97-42 12-9.64-8.09-14.07-20.5-20-31-5.89-10.43-14.01-16.38-21-26-6.97-9.59-10.14-22.69-22-28-.37-9.89-6.07-13.17-11-18-3.11-3.05-7.64-5.27-10-8-2.33-2.7-2.19-6.7-4-9-16.73-21.23-50.25-31.2-71-46 5.54 11.13 15.46 18.59 23 28 12.41 15.48 22.94 32.74 38 44 2.37 10.9 12.69 16.47 18 26 1.4 2.51 1.52 6.32 3 9 3.17 5.73 10.12 9.12 13 15 1.89 3.87 1.57 9.16 3 13 3.23 8.66 9.76 13.42 13 22-38.53-9.77-68.6 11.04-98 20-11.92-13.33-13.82-31.94-24-46-3.59-4.95-8.97-6.7-13-11-4.77-5.09-6.27-11.05-11-15-2.94-2.45-6.96-3.39-10-6-5.48-4.71-8.27-11.39-13-16-5.2-5.06-11.3-7.12-18-12-3.07-2.24-4.71-6.59-8-9-21.58-15.81-50.99-20.71-83-27 6.28 11.19 20.61 15.34 33 25 13.58 10.59 25.82 25.6 43 29 14.71 14.96 29.3 30.03 44 45 2.87 15.46 11.12 25.55 18 37-9.08 7.38-17.13 2.15-28 3-15.11 1.18-36.92 6.47-49 10-5.54 1.62-12.09 6.53-16 6-6.34-.86-9.95-10.32-13-14-4.85-5.84-9.55-9.47-13-15-14.66-.64-20.21-15.32-34-21-2.96-1.22-8.08-1.8-12-3-20.1-6.12-49.84-11.33-73-2 17.22 8.78 38.37 13.63 56 22 4.02.69 5.71-.96 9-1 5.08 2.33 4.11 6.63 8 10 6.09 5.28 17.99 4.55 20 14-12.06 2.01-14.29-4.68-23-6-25.29-3.82-41.66 6.43-55 15-8.76 5.63-17.84 14.01-24 15-20.66 3.32-27.44-15.12-40-25-15.12.04-18.88-15.2-31-15-5.06-7.51-12.28-9.87-20-14-6.6-3.53-10.7-13.82-20-13-10.4-17.6-29.53-26.47-38-46-2.54-1.8-4.53-4.13-9-4 .78-4.45-1.33-6-1-10-7.13-3.35-8.13-11.96-13-18-1.43-1.78-4.56-2.91-6-5-5.12-7.43-5.48-20.6-17-20-3.11-8.17-8.41-16.11-14-25-2.69-4.27-7.44-6.09-10-10-2.32-3.54-1.77-8.61-4-12-1.9-2.89-6.54-4.72-9-8-5.36-7.17-4.2-18.17-15-18-.2-14.14-10.49-18.18-13-30-1.9-1.39-3.34-2.57-5-4-10.93-9.38-14.75-24.07-24-35-1.59-11.08-6.72-18.61-14-24v-9c-1.49-3.18-5.81-3.52-8-6-1.12-13.88-11.86-18.14-13-32-2.49-4.85-9.42-5.25-8-14-2.97-6.36-11.89-6.78-11-17-4.07-4.26-8.19-8.48-13-12 3.04-7.22-5.38-9.34-8-14-1.7-3.03-1.08-7.79-3-11-3.97-6.65-12.4-11.42-13-21-.73-2.27-4.23-1.77-6-3 .96-7.96-4.58-9.42-5-16-12.33-4-9.68-18.5-22-21-.38-11.28-9.05-14.28-16-19-2.98-14.33-15.81-26.01-23-39-1.82-3.3-6.25-5.51-9-9-3.15-4-4.31-8.27-7-11-1.7-1.73-5.28-2.3-7-4-6.2-6.14-8.7-16.32-17-20v-1h2751zm-117 670c11.27-.15 8.21-4.81 0 0z" fill="#fff"/><path d="M2806.25 709.25c73.01 7.2 145.96 8.74 191 43-52.76 25.71-131.35 13.76-196 8 .69 6.94 1.39 18.15-2 26 70.81 9.19 158.33 1.67 195 45-59.72 15.99-126.64 14.39-201 9-.91 5.76-2.89 10.44-5 15 20.54 20.79 50.78 37.22 72 54-27.61-15.05-52.39-32.94-74-54-17.83 6.37-26.26-12.1-39-14-8.18-1.22-13.39 3.03-23 3 1.29 21.38 21.01 24.33 24 44 13.01 9.32 24 20.67 33 34 13.39 5.47 24.53 15.54 35 25 10.45 9.43 21.33 19.46 28 30-27.92-14.41-59.88-24.78-76-51-8.56-4.55-17.34-9.25-25-16-4.35-3.84-6.03-9.54-10-13-4.45-3.88-10.5-5.34-15-9-9.17-7.46-13.53-15.15-23-25-3.53-3.67-9.84-11.34-12-12-7.28-2.21-19.16 2.82-28 3-12.52.25-23.32-1.71-36-2 2.35 17.32 17.06 24.49 20 43 26.71 25.29 60.65 43.35 85 71-40.79-8.21-65.67-32.33-96-51-1.42-3.91-4.21-6.46-6-10-19.79-12.54-35.04-29.63-45-52-35.72 9.17-80.6 9.54-115-1-.32 6.01-5.17 7.5-6 13 13.63 15.71 26.68 31.98 36 52 2.78 2.89 7.31 4.02 9 8 1.37 1.97.96 5.71 2 8 15.89 11.44 25.48 29.19 35 47-21.75-10.77-40.83-28.05-57-46-5.58-6.2-8.44-14.42-14-20-2.98-2.98-7.24-4.12-10-7-6.4-6.7-12.33-17.6-19-28-3.84-5.99-14.22-25.36-20-27-3.6-1.02-7.55 1.75-12 2-25.89 1.46-52.3-9.31-73-17-1.41 24.06 12.87 40.23 17 62 6.72 6.94 7.63 19.71 13 28 2.26 3.22-.88 6.63 1 9 9.01 15.66 19.17 35.49 19 57-25.98-27.59-41.35-69.32-63-104-5.28-8.46-11.22-17.2-14-26-2.57-8.14-2.8-16.38-10-22-49.99 27.88-115.57-4.27-156-23-6.34 5.99-15.42 9.25-22 15 5.47 19.3 19.79 34.72 19 57 6.91 5.55 5.02 14.69 8 22 2.05 5.04 6.83 9.02 9 14 10.14 23.3 19.84 47.38 30 71-25.03-20.46-38.88-46.79-53-77-7.43-6.91-13.23-15.44-12-31-15.06-13.27-20.05-36.62-30-55-15.67-.08-28.06-14.7-45-14-7.8.32-15.63 6.14-24 7-21.05 2.16-38.39-4.95-58-10-2.8 2.86-6.83 4.5-9 8 3.57 12.56 11.14 24.15 14 38 .9 4.38-.21 9.52 1 14 1.08 4 5.2 7.58 6 12 .72 3.95-.9 8.89 0 13 2.17 9.92 12.77 18.2 10 30 15.81 15.52 17.91 44.76 27 67-17.99-15.67-35.95-31.38-41-60-6.36-7.64-12.38-15.62-14-28-9.94-4.39-9.25-14.08-14-25-1.36-3.13-4.6-5.67-6-9-8.33-19.87-7.28-43.95-12-65-48.17 14.7-105.29 7.09-140-13-6.24-3.62-11.17-11.2-17-11-10.45.36-17.9 16.77-27 18 7.65 17.35 20.08 29.92 23 52 4.45 8.22 13.53 11.8 12 26 8.91 4.81 10.59 15.73 17 23 3.68 4.18 10.05 6.06 14 10 13.93 13.87 20.48 31.76 28 53-21.58-15.76-45.4-29.27-56-56-4.12-.55-6.2-3.13-9-5-4.84-16.49-21.67-21-27-37-.51-4.18.56-6.78 2-9-26.04-12.79-32.81-38.67-44-66-7.29.31-19.73-10.66-31-10-7.16.42-17.35 9.91-29 11-8.68.81-19.5-.44-28-2-9.83-1.8-17.82-7.28-24-6-4.5.93-13.29 10.24-14 13-3.85 14.88 10.15 29.19 6 50 7.43 14.45 10.09 38.27 11 56 5.86 4.45 4.5 11.25 8 19 .82 1.82 3.33 2.17 4 4 3.36 9.17 5.88 19.89 9 30 3 9.73 7.77 20.22 6 30-13.13-13.76-27.18-33.67-38-52-4.21-7.12-8.51-17.03-7-28-10.32-11.01-11.37-31.3-14-50-5.49-9.03-12.44-25.52-14-40-1.04-9.61 2.35-20.98-8-24-6.91 1.78-13.28 8.22-21 6-14.96 10.31-41.61 12.18-66 12-17.24-.13-34.6-4.17-48-7-4.41 5.9-15.39 6.78-20 13-4.19 5.66-5.85 16.72-9 24-3.09 7.13-6.54 15.11-11 21-3.63 4.8-9.56 7.02-13 11-2.85 3.29-3.74 8.67-7 12-6.28 6.41-13.48 9.63-23 13-5.81 5.19-11.37 10.63-18 15-23.32 9.03-39.03 30.96-69 30 17.09-14.91 27.11-36.89 53-43 6.19-5.37 11.27-16.43 21-15 4.25-8.41 10.79-14.55 18-20 1.82-2.18 8.18.18 10-2 1.81-20.19 13.77-30.23 20-46-26.98 7.88-53.34-.71-71-11-18.26 11.57-28.11 29.22-56 26-6.19-.71-15.45-3.68-23-6-7.55-2.32-17.56-7.43-23-6-7.96 2.09-8.22 16.36-13 27-6.19 13.79-20.67 34.41-34 40-2.49 6.7-4.43 15.16-11 19-1.76 1.03-4.97.04-7 2-6.25 6.05-6.49 17.28-19 17-9.9 23.12-42.66 28.66-67 34 18.11-16.22 29.34-39.32 54-49 1.52-2.81.95-7.71 2-11 23.68-20.65 39.96-48.7 54-79-24.4 7.88-42.22 22.27-73 15-6.85-1.62-15.34-6.62-23-10-8.17-3.6-17.44-10.48-23-10-7.05.61-11.89 10.58-19 10-8.73 36.27-38.18 51.82-56 79-17.66 2.69-24.35 24.71-46 17-14.25 17.29-61.66 10.68-85 6 24.35-8.32 44.71-20.62 73-25 7.33-8.67 16.51-15.49 29-19 4.94-4.72 7.74-11.59 16-13 8.26-8.15 10.23-16.15 19-28 6.3-8.51 25.01-20.27 24-28-1.37-10.44-20.22-5.95-30-8-6.07-1.27-23.33-6.12-35-11-7.78-3.25-16.7-12.86-27-10-5.26 1.46-9.13 10.84-15 14-2.43 1.31-5.94.52-9 2-9.31 4.51-13.67 16.41-27 19-3.95.77-8.23-.69-12 0-4.1.75-7.87 4.22-12 5-12.74 2.39-26.5.72-39-2-3.97-.86-11.72-1.47-12-7 35.43-2.57 55.35-20.65 83-31 3.92-6.41 12.49-8.17 12-19-13.84 5.7-17.91 13.92-32 16-21.14 3.12-38.35-6.56-52-14-7.28-3.96-12.41-11.5-19-13-7.92-1.8-17.51 1.65-23-1-7.59 4.41-12.68 11.32-20 16-2.48 2.37-5.89.01-9 0a81.035 81.035 0 0 1-12 12c-15.83-1.17-14.79 14.55-31 13-7.42 12.58-22.36 17.64-28 32-15.14-.14-12.28 17.72-27 18-4.02 5.64-6.51 12.82-10 19-2.88.12-6.55-.55-8 1-4.23 7.1-6.71 15.96-16 18-11.15 18.85-29.4 30.6-42 48-3.13.2-7.34-.67-9 1-5 5.67-8.38 12.96-13 19-12.45-3.27-13.87 10.86-21 16-12.64-5.44-17.1 7.8-26 12-2.97-.63-4.93-5.57-8-3-6.82 3.51-10.07 10.59-16 15-10.7-3.03-14.86 8.23-23 11-4.37.7-5.63-1.7-10-1-5.44 4.23-11.66 7.67-18 11-3.22.22-4.23-1.77-8-1-10.94 9.73-31.4 9.94-42 20-4.81.81-3.61-4.39-9-3-3.57 3.1-9.08 4.25-13 7-3.28-.06-3.82-2.84-8-2-9.69 8.17-26.09 3.74-37 11-13.27-1.82-28.5 1.63-42 4-4.19.19-3.09-4.91-8-4-8.92 8.4-28.52.06-36 10h-2c-1.93-8.75-13.26-3.46-18-1-4.52-4.19-13.05-4.76-17 1h-9c-5.52-8.23-17.4-2.08-30-5-2.69-.62-4.41-2.76-7-3-7.68-.71-14.88 3.3-20-2-2.59 1.07-4.9 2.43-9 2-17.55-7.19-48.45-.02-63-14-.69-3.79.23-9.68 2-12 7.73-10.15 25.47-1.17 36-4 6.4 5.26 22.62 8.68 31 3 4.91 4.61 10.35 2.05 16 0 19.09 6.99 39.09 7.29 63 10 4.69-.64 4.73-5.94 10-6 10.68 5.41 22.04-5.74 31 3 4.38-6.43 13.61-2.56 23-3 18.99-.88 38.05-4.69 60-6 3.16-1.17 2.2-6.47 7-6 5.62.38 10.46 1.54 17 1 4.6-6.61 11.6-3.72 22-6 4.81-1.05 11.53-7.56 21-6 4.43-1.24 2.28-9.06 7-10 8.12.45 14.9-.43 22-1 .63-9.7 12.66-8 23-8 2.54-2.46 2.72-7.28 6-9 8.34.34 13.83-2.17 21-3 3.7-7.3 12.23-9.77 22-11 .31-9.9 11.96-7.24 20-11 7.96-3.72 13.38-14 23-12 1.11-11.22 10.63-14.04 19-18 .01-2.66-.38-5.71 1-7 14.29-6.71 21.89-20.11 35-28 3.25-1.82-2.1-6.03 1-8 2.91-4.43 8.12-6.54 13-9 1.69-2.65 2.31-6.35 4-9 14.05-5.62 19.05-20.28 32-27 .01-2.66-.38-5.71 1-7 5.37-4.3 11.05-8.28 18-11 2.09-3.04-1.53-5.98 1-9 5.01-3.33 10.79-5.88 17-8 .72-11.28 9.92-14.08 20-16-.51-4.18.56-6.78 2-9 6.15-.51 9.65-3.69 16-4 2.23-2.1 1.33-7.34 4-9 16.48-1.52 23.07-12.93 37-17-2.21-6.15 1.93-13.71-1-20-20.43-4.68-28.43-26.86-26-56 1.49-17.86 13.62-25.06 24-33-4.75-26.25-38.72-23.28-47-46-15.11-3.89-23.61-14.39-38-19-11.07-11.59-21.77-23.56-36-32-6.12-16.21-15.1-29.57-27-40 .77-3.77-1.22-4.78-1-8-17.43-19.9-31.36-43.3-48-64v-7c-4.64-4.02-8.93-8.41-14-12-2.31-2.22.34-3.9 0-7-11.85-6.82-14.58-22.75-25-31-.58-3.25.68-4.65 1-7-14.28-11.72-23.74-28.26-34-44v-8c-8.87-7.46-12.55-20.12-20-29-.99-3.91 2.21-5.81 0-8-2.08-6.25-7.52-9.14-11-14 3.44-9.86-7.67-12.7-10-20 2.26-.74.39-5.61 1-8-6.78-.55-6.62-8.05-12-10 4.17-11.53-12.55-9.86-10-23-3.46-3.21-7.84-5.49-11-9-1.05-4.18 2.11-6.78 0-9-13.56-4.91-9.67-22.11-24-27 .28-3.39 1.59-5.74 1-10-12.98-2.69-12.69-18.65-24-23 .65-10.32-8.03-11.31-12-17-.77-3.77 1.22-4.78 1-8-5.32-4.35-11.8-7.53-16-13 4.21-10.41-6.06-12.65-11-17 1.38-1.29.99-4.34 1-7-2.87-3.46-8.78-3.88-11-8 2.34-9.82-13.49-7.04-11-20-14.52-2.51-23.34-22.09-8-30h2v1c8.3 3.68 10.8 13.86 17 20 1.72 1.7 5.3 2.27 7 4 2.69 2.73 3.85 7 7 11 2.75 3.49 7.18 5.7 9 9 7.19 12.99 20.02 24.67 23 39 6.95 4.72 15.62 7.72 16 19 12.32 2.5 9.67 17 22 21 .42 6.58 5.96 8.04 5 16 1.77 1.23 5.27.73 6 3 .6 9.58 9.03 14.35 13 21 1.92 3.21 1.3 7.97 3 11 2.62 4.66 11.04 6.78 8 14 4.81 3.52 8.93 7.74 13 12-.89 10.22 8.03 10.64 11 17-1.42 8.75 5.51 9.15 8 14 1.14 13.86 11.88 18.12 13 32 2.19 2.48 6.51 2.82 8 6v9c7.28 5.39 12.41 12.92 14 24 9.25 10.93 13.07 25.62 24 35 1.66 1.43 3.1 2.61 5 4 2.51 11.82 12.8 15.86 13 30 10.8-.17 9.64 10.83 15 18 2.46 3.28 7.1 5.11 9 8 2.23 3.39 1.68 8.46 4 12 2.56 3.91 7.31 5.73 10 10 5.59 8.89 10.89 16.83 14 25 11.52-.6 11.88 12.57 17 20 1.44 2.09 4.57 3.22 6 5 4.87 6.04 5.87 14.65 13 18-.33 4 1.78 5.55 1 10 4.47-.13 6.46 2.2 9 4 8.47 19.53 27.6 28.4 38 46 9.3-.82 13.4 9.47 20 13 7.72 4.13 14.94 6.49 20 14 12.12-.2 15.88 15.04 31 15 12.56 9.88 19.34 28.32 40 25 6.16-.99 15.24-9.37 24-15 13.34-8.57 29.71-18.82 55-15 8.71 1.32 10.94 8.01 23 6-2.01-9.45-13.91-8.72-20-14-3.89-3.37-2.92-7.67-8-10-3.29.04-4.98 1.69-9 1-17.63-8.37-38.78-13.22-56-22 23.16-9.33 52.9-4.12 73 2 3.92 1.2 9.04 1.78 12 3 13.79 5.68 19.34 20.36 34 21 3.45 5.53 8.15 9.16 13 15 3.05 3.68 6.66 13.14 13 14 3.91.53 10.46-4.38 16-6 12.08-3.53 33.89-8.82 49-10 10.87-.85 18.92 4.38 28-3-6.88-11.45-15.13-21.54-18-37-14.7-14.97-29.29-30.04-44-45-17.18-3.4-29.42-18.41-43-29-12.39-9.66-26.72-13.81-33-25 32.01 6.29 61.42 11.19 83 27 3.29 2.41 4.93 6.76 8 9 6.7 4.88 12.8 6.94 18 12 4.73 4.61 7.52 11.29 13 16 3.04 2.61 7.06 3.55 10 6 4.73 3.95 6.23 9.91 11 15 4.03 4.3 9.41 6.05 13 11 10.18 14.06 12.08 32.67 24 46 29.4-8.96 59.47-29.77 98-20-3.24-8.58-9.77-13.34-13-22-1.43-3.84-1.11-9.13-3-13-2.88-5.88-9.83-9.27-13-15-1.48-2.68-1.6-6.49-3-9-5.31-9.53-15.63-15.1-18-26-15.06-11.26-25.59-28.52-38-44-7.54-9.41-17.46-16.87-23-28 20.75 14.8 54.27 24.77 71 46 1.81 2.3 1.67 6.3 4 9 2.36 2.73 6.89 4.95 10 8 4.93 4.83 10.63 8.11 11 18 11.86 5.31 15.03 18.41 22 28 6.99 9.62 15.11 15.57 21 26 5.93 10.5 10.36 22.91 20 31 15.86-5.03 25.64-13.05 42-12 8.55.55 15.74 7.82 24 8 8.44.18 20-10.37 29-16 17.46-10.93 31.14-18.49 57-21-8.97-17.7-29.43-23.91-34-46-14.47-9.53-27.14-20.86-37-35-21.22-8.78-29.01-30.99-46-44-.88-7.6-13.87-7.94-12-15 25.88 13.12 56.59 21.41 71 46 11.55-1.17 14.12 10.9 21 16 4.03 2.99 10.21 3.23 14 6 5.3 3.87 8.91 10.51 14 15 14.57 12.85 32.45 24.62 40 42 .3 7.37 3.24 12.09 8 15 31.51-15.89 72.03-34.38 122-30 15.55 1.36 31.05 6.93 47 6 .19-22.37 11.7-38.6 17-58 4.28-15.67 5.78-27.54 9-45 1.67-9.04 9.49-11.96 12-20 .82-2.63-.29-7.47 0-10 1.5-13.26 6.66-22.92 12-34 4.73-9.82 7.26-22.58 17-27-.05 26.29-4.53 48.13-7 72-4.5 6.96-8.38 18.8-10 30-.82 5.68.55 11 0 17-.74 8.04-5.98 14.82-7 22-1.01 7.07 1.11 14.72 0 22-2.02 13.21-7.74 25.9-6 39 30.47-5.43 49.13-28.71 84-23 18.48 3.03 31.45 26 44 3 2.7-4.94 6.91-11.25 10-17 7.47-13.89 7.7-28.32 21-37 4.87-22.13 19.57-34.43 29-52 .06-16.43 13.11-24.11 23-34 7.48-7.48 14.65-16.84 24-19-7.98 24.02-15.47 48.53-31 65-.7 9.3-4.11 15.89-10 20 1.58 9.17-7.12 16.14-9 24-.94 3.94.59 8.2 0 12-1.84 11.84-11.15 20.32-12 32 8.96-2.69 16.99 5.93 26 7 13.35 1.59 32.97-5.21 51-6 26.09-1.15 49.26 1.9 73 5 13.94 1.82 36.74 10.19 45 8 10.51-2.79 14.55-19.2 20-27 6.04-8.64 15.69-16.15 21-26 4.06-.94 5.36-4.64 9-6 .41-10.13 10.47-13.02 16-19 7.31-7.91 11.56-21.64 25-22 .88-5.12 4.38-7.62 6-12 6.18.51 5.63-5.7 10-7 12.92-6.11 25.96-17.33 38-21-12.74 18.26-22.3 39.7-43 50-2.08 9.92-9.93 14.07-17 19-.03 12.03-12.05 16.85-17 26-2.53 4.68-2.71 10.21-5 15-6.69 14.02-21.19 24.32-24 41 20.2 2.54 38.47 1.16 57 5 9.98 2.07 18.35 10.14 27 11 15.31 1.52 30.4-8.8 49-3 14.97-16.36 27.73-34.94 50-44 2.94-4.51 3.78-10.46 9-15 2.62-2.27 7.63-2.46 10-5 5.3-5.68 6.17-16.56 18-17 6.48-14.07 17.38-22.26 29-32 7.96-6.66 15.65-13.43 27-18-14.3 20.37-21.92 47.42-44 60-.23 4.18 1.63 4.72 0 8-12.16 5.55-15.59 15.96-24 27-2.83 3.71-7.72 5.78-10 9-5.07 7.16-8.22 14.09-14 21-5.17 6.19-11.11 12.33-14 20 5.62 4.04 9.33 10 15 14 49.43-13.47 124.3-5.12 157 20 13.58-7.34 19.28-22.49 32-32 1.38-1.03 2.97.36 5-1 2.5-1.67 5.61-5.79 9-8 9.59-6.24 19.69-10.75 24-23 3.81-.85 6.01-3.32 10-4 3.6-8.73 10.26-14.4 20-17 13.5-18.5 41.41-27.92 63-35-12.82 15.61-26.33 30.93-43 43-6.8 4.92-16.57 10.92-23 18-6.51 7.17-9.32 17.74-21 21-1.26 4.41-3.08 8.25-5 12-5.79 7.24-9.73 14.54-16 21-5.6 5.76-16.08 9.03-17 19 15.31.95 34.23-3.98 58-3 9.15.38 23.94 3.36 33 6 6.2 1.81 10.15 5.63 15 5 6.56-.86 10.17-9.55 15-14 8.4-7.74 18.68-12.22 30-17 10.8-8.53 22.16-16.5 37-21 14.14-16.86 43.82-23.51 63-32-11.44 12.43-24.14 23.72-39 33-16.79 10.49-31.79 23.97-49 35-6.12 14.22-19.62 21.05-25 36 32.32 4.68 61.74 12.26 86 25 7.38-5.65 16.24-12.02 26-18 7.97-4.88 17.68-11.17 27-14 10.54-3.21 19.25-3.82 26-11 32.94-10.73 62.28-30.39 98-35-17.89 8.54-32.56 23.09-50 32-14.73 7.53-29.48 13.96-42 23-8.2 5.92-13.95 15.39-23 21-5.04 3.13-12.81 3.3-16 9 10.46 8.21 29.03 8.3 45 11 5.91 3.75 13.98 5.35 22 7 6.5-6.5 14.48-11.52 28-11 4.3-3.8 8.94-8.35 15-11 11.32-4.96 28.62-4.54 43-9 6.19-1.92 10.93-7.12 16-8 5.53-.96 11.34.8 17 0 28.11-3.98 54.47-19.9 84-16-19.05 9.29-32.67 24-60 25-8.99 10.88-32.21 9.04-47 16-7.85 3.69-14.7 9.35-22 13-13.27 6.64-27.45 9.74-37 20 7.02 1.32 10.68 5.99 19 6 9.44-11.71 33.33-11.33 47-4 24.7-9.3 52.68-20.66 82-22-28.5 5.5-54.39 13.61-79 23 .03 5.97 2.54 9.46 3 15z"/><path d="M2883.25 670.25c8.21-4.81 11.27-.15 0 0z"/><path d="M705.25 724.25c2.93 6.29-1.21 13.85 1 20-13.93 4.07-20.52 15.48-37 17-2.67 1.66-1.77 6.9-4 9-6.35.31-9.85 3.49-16 4-1.44 2.22-2.51 4.82-2 9-10.08 1.92-19.28 4.72-20 16-6.21 2.12-11.99 4.67-17 8-2.53 3.02 1.09 5.96-1 9-6.95 2.72-12.63 6.7-18 11-1.38 1.29-.99 4.34-1 7-12.95 6.72-17.95 21.38-32 27-1.69 2.65-2.31 6.35-4 9-4.88 2.46-10.09 4.57-13 9-3.1 1.97 2.25 6.18-1 8-13.11 7.89-20.71 21.29-35 28-1.38 1.29-.99 4.34-1 7-8.37 3.96-17.89 6.78-19 18-9.62-2-15.04 8.28-23 12-8.04 3.76-19.69 1.1-20 11-9.77 1.23-18.3 3.7-22 11-7.17.83-12.66 3.34-21 3-3.28 1.72-3.46 6.54-6 9-10.34 0-22.37-1.7-23 8-7.1.57-13.88 1.45-22 1-4.72.94-2.57 8.76-7 10-9.47-1.56-16.19 4.95-21 6-10.4 2.28-17.4-.61-22 6-6.54.54-11.38-.62-17-1-4.8-.47-3.84 4.83-7 6-21.95 1.31-41.01 5.12-60 6-9.39.44-18.62-3.43-23 3-8.96-8.74-20.32 2.41-31-3-5.27.06-5.31 5.36-10 6-23.91-2.71-43.91-3.01-63-10-5.65 2.05-11.09 4.61-16 0-8.38 5.68-24.6 2.26-31-3-10.53 2.83-28.27-6.15-36 4-1.77 2.32-2.69 8.21-2 12 14.55 13.98 45.45 6.81 63 14 4.1.43 6.41-.93 9-2 5.12 5.3 12.32 1.29 20 2 2.59.24 4.31 2.38 7 3 12.6 2.92 24.48-3.23 30 5H.25V.25h247c-15.34 7.91-6.52 27.49 8 30-2.49 12.96 13.34 10.18 11 20 2.22 4.12 8.13 4.54 11 8-.01 2.66.38 5.71-1 7 4.94 4.35 15.21 6.59 11 17 4.2 5.47 10.68 8.65 16 13 .22 3.22-1.77 4.23-1 8 3.97 5.69 12.65 6.68 12 17 11.31 4.35 11.02 20.31 24 23 .59 4.26-.72 6.61-1 10 14.33 4.89 10.44 22.09 24 27 2.11 2.22-1.05 4.82 0 9 3.16 3.51 7.54 5.79 11 9-2.55 13.14 14.17 11.47 10 23 5.38 1.95 5.22 9.45 12 10-.61 2.39 1.26 7.26-1 8 2.33 7.3 13.44 10.14 10 20 3.48 4.86 8.92 7.75 11 14 2.21 2.19-.99 4.09 0 8 7.45 8.88 11.13 21.54 20 29v8c10.26 15.74 19.72 32.28 34 44-.32 2.35-1.58 3.75-1 7 10.42 8.25 13.15 24.18 25 31 .34 3.1-2.31 4.78 0 7 5.07 3.59 9.36 7.98 14 12v7c16.64 20.7 30.57 44.1 48 64-.22 3.22 1.77 4.23 1 8 11.9 10.43 20.88 23.79 27 40 14.23 8.44 24.93 20.41 36 32 14.39 4.61 22.89 15.11 38 19 8.28 22.72 42.25 19.75 47 46-10.38 7.94-22.51 15.14-24 33-2.43 29.14 5.57 51.32 26 56z" fill="#fff"/><path d="M175.25 1059.25h-35c3.95-5.76 12.48-5.19 17-1 4.74-2.46 16.07-7.75 18 1z" fill="#fff"/></svg>