<svg xmlns="http://www.w3.org/2000/svg" xmlns:dc="http://dublincore.org/documents/dcmi-terms/" height="1160pt" version="1" viewBox="0 0 2310 1160" width="3080"><metadata><dc:description>Silhouette of Maniraptoriformes, processed by PhyloPic Tools (https://github.com/eweitz/phylopic-tools)</dc:description><dc:source>http://phylopic.org/image/665dc6e9-3eee-4fd5-81fb-02d45271e9df</dc:source><dc:creator>Iain Reid</dc:creator><dc:license>http://creativecommons.org/licenses/by/3.0/</dc:license></metadata><path d="M359.1 221.2c-1.9.5-4.3.7-5.3.4-1.1-.2-3.7.2-5.8.9-2.9 1-4 1.1-4.4.2-.3-.9-.5-.9-.5 0-.1 1.8-3.6 1.6-5.4-.1-1.6-1.6-3.1-1.6-6.2.1-3.4 1.8-7.5 2.4-9.3 1.4-1.2-.6-2.3-.5-3.7.6-1.9 1.4-1.9 1.4-.1 1.1 1-.2 2.1.2 2.3.8.4 1.3-2.7 1.5-4.3.3-.7-.6-1.6-.3-2.4.6-.7.8-2.3 1.5-3.6 1.5-1.3 0-3.2.9-4.1 2-1.8 2-5 2.9-3.8 1 .3-.6.1-1-.5-1s-1.3.7-1.6 1.5c-.7 1.8-3.4 2-3.4.2 0-.6-1 0-2.1 1.5-1.1 1.6-2.5 2.8-3.1 2.8-.6 0-.6-.6.2-1.5 1-1.2.9-1.5-.4-1.5-.9 0-1.9.6-2.2 1.4-.3.9-1.2 1.2-2.1.9-1-.4-1.4-.2-.9.5.3.6.2 1.3-.4 1.7-.5.3-1 .1-1-.4 0-.6-1.2-1-2.7-1-2.4.2-2.5.2-.5.6 1.2.2 2.2.9 2.2 1.5 0 .5-.7.8-1.5.4-.8-.3-1.5-.2-1.5.2s-1.2 1.5-2.5 2.5c-2.4 1.7-2.5 1.7-2.2 0 .1-1-.2-1.8-.8-1.8-.5 0-.9.4-.7 1.1.2 1-3.6 5.2-4.4 4.6-.9-.5-2.5-.1-2 .6.2.4-1.1.7-3 .7-1.9-.1-3.4.2-3.4.7 0 .8 1.4 1.2 4 .9 1.3-.2 1.3-.1 0 .8-.8.6-3 .8-4.7.5-2.2-.4-3.3-.2-3.3.5s-.5.9-1.1.5c-.8-.4-.4-1.1 1.1-1.9l2.2-1.2-2.1-.6c-1.1-.3-1.9-.1-1.5.4.3.5 0 .9-.5.9-.6 0-1.1.9-1.1 2s.5 2 1.2 2c.9 0 .9.3 0 1.2-1 1-1.5 1-2.3-.2-.8-1.3-1.1-1.3-2.3.2-.7 1-2.2 1.8-3.2 1.9-1.8 0-1.8.1 0 .8 2.4.9 1.3 1.7-3.8 2.6-2.6.5-3.4 1-2.4 1.6 1 .7.9.9-.5.9-1.1 0-2.1.8-2.3 1.8-.3.9-1.8 2.5-3.5 3.4-1.6.9-2.9 2.4-2.9 3.3 0 .8-.7 1.5-1.5 1.5s-1.5.4-1.5.9-2 2-4.5 3.2c-2.5 1.2-4.5 2.5-4.5 2.9 0 .3-2 2.1-4.5 4s-4.5 3.7-4.5 4.2c0 .4-.8 1.7-1.7 2.8-2.3 2.7-3.2 6.9-2 10 .5 1.4 1.1 3.8 1.3 5.3.5 3.7 1.3 4.9 2.7 4 .7-.4.5.1-.3 1.1-1.2 1.6-1.1 2 1 3.7 2.4 1.8 9 2.3 9 .6 0-.4.8-.3 1.8.2 1.1.6 2.3.6 2.8.1s6.1-1.1 12.5-1.3c6.3-.2 12.5-1 13.8-1.6 1.7-1 2.8-.9 5.1.3 1.7.8 3 1 3 .5 0-.6 1.8-.8 4.5-.3 3.1.4 4.5.3 4.5-.5 0-.7.9-.6 2.4.4 1.9 1.3 3.5 1.5 7.3.8 5.6-.9 8.5-.7 9.4.8.5.8 1.2.8 2.7 0 1.4-.7 2.9-.8 4.6-.1 1.4.5 6.7 1.2 11.8 1.4 5.1.3 11.4.9 14 1.4 2.6.5 5 .7 5.2.4.3-.2 2.7-.6 5.3-.8 3.4-.3 4.4-.1 3.3.6-1.3.8-1.3 1 .1 1 1.6 0 3.4-2.6 3.1-4.3-.1-.4.3-.7.8-.7.9 0 1.4 1.4 1.1 3.2 0 .5.4.8.9.8.6 0 1-.6 1-1.3 0-.8.4-.7 1 .3.7 1.1.5 1.8-.6 2.7-.9.6-1.1 1.4-.5 1.7.5.3 1.1 0 1.4-.6.3-1 .7-1 1.7-.1.9.8 2 .9 3.8.2 1.3-.5 2.7-.7 3-.4.3.3 0 .5-.6.5-.7 0-1.2.7-1.2 1.5s.9 1.5 2 1.5c1.8 0 2.5-1 2.1-3.3 0-.4.4-.7.9-.7.6 0 1 .5 1 1 0 .6 1.2 1.5 2.6 2 1.4.6 2.2 1.4 1.9 2-.3.5.3 1 1.5 1s1.8.4 1.5 1c-.3.5.3 1 1.4 1 1.2 0 2.1-.5 2.1-1.1 0-.6 1.4.3 3.1 2 1.7 1.7 3.6 3.1 4.2 3.1.7 0 .6.4-.3 1-1.2.8-1 1 .9 1 2 0 2.2.3 1.3 1.2-1.9 1.9-1.4 2.5 1.9 2 2.4-.3 3.1 0 3.5 1.5.3 1 1.4 2.4 2.5 3.1 2.3 1.5 2.5.4.2-1.3-1.5-1.1-1.4-1.3.9-1.3 1.8 0 2.5.5 2.1 1.4-.3.9.2 1.4 1.3 1.5 1.6 0 1.5.2-.3.9-1.3.5-2.3 1.2-2.3 1.4 0 .3.6.3 1.4 0 1.9-.7 3.2 1.6 1.5 2.7-.9.6.1.9 3.1 1 3.4 0 4 .2 2.5.9-1.7.7-1.7.9-.2.9 2 .1 2 .2.7 3.5-.7 2-.6 2.6.4 2.6.8 0 1.7.6 1.9 1.2.3.8.6.6.6-.5.1-.9.9-1.7 1.9-1.7 1.4 0 1.5.2.2 1-1.2.8-1.2 1-.1 1 .8 0 1.1.7.9 1.8-.4 1.5 0 1.8 2.3 1.7 2.9-.2 4.1 1.9 1.7 2.8-1.3.6 1.6 1.1 4.1.8.7-.2 1 .3.6.8-.3.6.4 1.6 1.7 2.1 2.3 1.1 2.3 1.1.1.6-1.3-.2-2.3 0-2.3.5s.4.9.9.9c.4 0 2 1.1 3.4 2.5 1.5 1.6 2.8 2.2 3.2 1.5.3-.5 1.3-1 2.2-1 1.2 0 1.3.3.4 1.4-.8 1-.9 1.5-.1 1.8 1 .3 1.7 2.4 1.9 5.5.1 1.7 3 1.6 3.7-.1.3-.8 1.3-1.2 2.7-.8 2 .5 2 .6.1 1.3-1.9.7-1.9.8.1.9 1.7.2 1.6.3-.5 1-2.2.7-2.2.8-.4.9 1.1.1 2.8.7 3.8 1.4 1.6 1.2 1.7 1.5.3 2.8-1.3 1.4-1.3 1.7.4 2.7 2.6 1.6 3.8 1.5 1.6-.2-1.7-1.3-1.6-1.4.3-1.9 1.9-.5 2.4.3 2.1 3-.1.7.3 1.3.9 1.3.5 0 1-.5 1-1 0-.6 1.3.4 2.9 2.2 2.1 2.4 2.7 3.6 1.9 4.5-.7.9-.7 1.3.1 1.3.6 0 1.1.8 1.1 1.7 0 1 .5 2.5 1.1 3.3.9 1.3 1 1.2.5-.2-.7-2.3 1-3.2 2-1 .4.9.8 1.9.8 2.2.6 3.1 4 7.9 6 8.4 3.2.8 4.3 3.6 1.4 3.6-2.1 0-2.2.1-.5 1.7 1.7 1.7 1.9 1.7 3.3-.1.8-1.1 1.4-1.5 1.4-.8 0 .6.7.9 1.5.6 1.3-.5 1.4-.2.5 2-.5 1.4-.6 2.6-.1 2.6s1.1.9 1.4 2.1c.4 1.3 1 1.8 1.7 1.4.9-.5 1-.1.5 1.4-.5 1.7-.1 2.3 2 3.1 1.4.5 3 2 3.5 3.2.5 1.3.9 2 .9 1.5.1-.4 1.6.9 3.5 2.9 3.1 3.3 3.4 3.4 5 1.8 1-.9 1.4-2 .9-2.3-1.7-1.3-1.3-3.7.7-3.8 1.1-.1 2 .2 2 .8 0 1.5 4.2 5.9 5.7 5.9.7 0 1.3.4 1.3 1 0 .5.6 1 1.3 1 .8 0 2.2.9 3.2 2s2.8 2 3.9 2.1c1.3 0 1.6.3.7.6-.9.4-.2 1 1.9 1.9 2.9 1.2 3.1 1.6 1.9 3.1-1.2 1.5-1.2 1.6.4 1 2.5-.9 5.8.9 5.1 2.8-.4.8.1 1.8 1 2.1.9.3 1.6 1.3 1.6 2.1 0 .9.6 1.3 1.5.9.8-.3 2.2-.3 3 0 1.2.5 1.3 1 .4 2-.9 1.1-.8 1.4.5 1.4.9 0 1.5.6 1.4 1.2-.2.7.7 1.4 2 1.6 1.4.2 2.2.9 1.9 1.7-.3.7.5 1.8 1.9 2.5 1.3.8 2.4 1.7 2.4 2.2 0 .5.5.6 1.1.3.6-.4 1.3.2 1.6 1.3.3 1.4 1 1.9 2.1 1.5 1-.4 1.3-.2.8.6-1.3 2 1.3 4.1 4.3 3.5 2.3-.5 2.4-.4 1 .8-1.9 1.6-1.4 3.8 1 3.8 2.6 0 6.1 2.9 6.1 5.1 0 1 .6 1.9 1.3 1.9.8 0 2.2.9 3.2 2 2.1 2.3 4 2.7 3.2.6-.3-.8.2-1.6 1.3-1.9 1-.3 2.1.1 2.4.9.3.8 0 1.1-1 .7-.7-.3-1.4 0-1.4.6 0 1.3 4.4 2.5 6.9 1.8 1.9-.5 2.2.7.8 3-.5.7-.7 1.3-.5 1.4.4.1 4.9.9 6.4 1.1.6.1 1.1.7 1.1 1.3 0 .7-.9 1-2.1.8-1.7-.4-1.8-.3-.6.6.8.6 3.5 1.3 6 1.7 3.6.6 4.1.9 2.5 1.5-1.9.7-1.9.8-.1.8 2 .1 2 .1 0 1.6-1.8 1.3-1.7 1.4 1.9 1.5 2 0 3.7.4 3.7 1 0 .5.8 1 1.9 1 1.4 0 1.8.6 1.6 2.5-.4 2.8 1.2 3.5 1.7.7.3-1.3.8-.8 2.1 1.7.9 1.8 1.4 3.7 1.1 4.2-.3.5-.1.9.5.9s.8.6.6 1.3c-.3.6.6 2 1.9 3 1.4 1.1 2.2 2.5 1.9 3.3-.3.9 0 1.4.8 1.2.9-.2 1.3.5 1.2 1.9-.1 1.1.4 2.6 1.2 3.3.7.6 1.1 1.8.8 2.6-.3.8.3 2.6 1.3 4.2 1 1.5 1.9 4.1 1.9 5.9.1 2.1 1.1 4 2.6 5.2 1.3 1.1 1.8 2 1.2 2.1-2.2 0-1.4 2 .7 2 1.1 0 2 .5 2 1.1 0 .5-.4.7-1 .4-1.3-.8-1.3-.4.5 3.9.9 2 2.2 3.9 3 4.2.8.4 1.2 1 .9 1.5-.5.8 1 1.3 2.9 1 .5-.1.8.7.7 1.6-.1 1 .1 2.8.5 4 .6 1.8 1.1 2.1 2.5 1.3 2.1-1.1 4.7-1.4 3.7-.3-.4.3-.2 1.2.5 2 .8 1 .7 1.7-.8 2.9-1 .9-1.4 1.3-.7.9 1.9-.9 5.1 1.6 4.5 3.7-.3 1.2.1 1.8 1.2 1.8.9 0 1.5.3 1.4.7-.3 1.6 1.5 4.3 2.9 4.3.8 0 1.3.6 1.1 1.2-.3.7.4 2.1 1.3 3.2 1 1 1.6 2.3 1.3 2.8-.3.4.9 1.1 2.6 1.4 1.7.4 2.9 1.2 2.7 1.8-.2.6.5 1.9 1.6 2.8 1.6 1.4 1.7 2.1.8 3.2-1 1.2-.9 1.4.8.9 2-.5 4.7 2.7 3.3 4.2-.4.5-.2.5.5.2.6-.4 1.9.1 2.9 1 1 1 2.5 1.8 3.3 1.9.9.1 2.7.2 4 .3 1.9.1 2.1.4 1.2 1.5-.9 1-.7 1.6.5 2.7 1.3 1.1 1.7 1 2.6-.2.7-1 .8-.8.4 1-.3 1.7.2 2.9 1.8 4.2 1.3 1 2.7 3 3 4.4.5 1.9 1.3 2.5 3.4 2.6 2.2.1 2.3.2.5.6-2 .4-2.1.5-.5 2.2.9 1 2.3 1.6 3 1.3.6-.2 1.2 0 1.2.6s.3 1.7.6 2.6c.4 1.1 0 1.6-1.2 1.6-1.6 0-1.7-.2-.4-1 1.3-.8 1.3-1-.2-1-2.7 0-2.8 1.4-.2 3.9 1.3 1.3 2.1 2.7 1.8 3.2-.3.5-.1.9.5.9.5 0 1.2-.6 1.4-1.3.3-.7.6-.5.6.5.1 1 .6 1.8 1.3 1.8.6 0 .1.9-1.2 2-1.5 1.3-1.8 2-.9 2 1.1 0 1.1.2-.1 1.1-1.2.8-1 1 1 .5 2.4-.5 2.4-.4.6.9-1.4 1.1-1.6 1.5-.5 1.5 1 .1.9.4-.4 1.4-1.8 1.4-1.7 1.5.4 2.1 1.2.4 1.7 1 1.2 1.4-1.1.6-1 6.7 0 7.8.4.3 0 1.4-.9 2.4s-1.1 1.9-.5 2.3c.5.4 1.2.2 1.6-.4.3-.5 1-1 1.5-1 .9 0 .7 2.2-.6 5.4-.5 1.3-.4 1.7.3 1.3.6-.4 1.4 0 1.7.9.4 1.2.1 1.4-1.4.9-1.1-.4-2-.2-2 .3s1 1.2 2.2 1.6c2.2.5 2.2.6.4 1.9-2.5 1.8-1.2 4.1 1.4 2.7 1-.5 2.5-1 3.2-.9.7 0 .4.4-.7.9-1.4.6-1.5.9-.5 1 .9 0 .6.6-1 1.5l-2.5 1.3 2.7.7c1.6.4 2.6 1.1 2.3 1.5-.3.5.8 1.1 2.5 1.5 2.8.6 2.9.7 1.2 2.4-.9 1-2.4 2.1-3.2 2.5-.8.3-.2.4 1.3.1 1.9-.4 2.6-.2 2.2.5-.3.5.2 1 1.2 1.1 1.5 0 1.4.2-.3.9-3.5 1.4-4.2 3.4-1 2.6 3.6-.9 7.5.2 5.5 1.5-1.2.8-1.1 1.1.3 1.9.9.6 1.5 1.9 1.3 3-.2 1.2.2 2 .9 2 .8 0 1.6.8 1.9 1.9.3 1.4 0 1.8-1.7 1.5-1.1-.3-.5.2 1.4.9 1.9.8 4.2 1.2 5 1 .8-.2.4.3-1 1.2l-2.5 1.5 2.5-.2c1.7-.2 2.5.2 2.5 1.2 0 .8 1 2.1 2.3 2.8 1.4.8 2.1 1.9 1.8 2.8-.3.8.1 1.4.9 1.4s1.5.6 1.5 1.3c0 .8 1.2 2 2.8 2.7l2.7 1.3-2.5.7-2.5.6 2.4.6c1.2.4 2 1.1 1.7 1.6-.8 1.3 5.1 4.1 8 3.7 1.3-.1 2.1.2 1.8.6-.3.5.1.9.8.9.9 0 .9.3-.2 1s-.8 1 1.6 1c1.8 0 3.8.8 4.9 2 1.6 1.8 1.6 2 .2 2-1 0-1.7.7-1.7 1.6 0 1.3.6 1.1 3.3-.7 1.7-1.2 2.9-1.9 2.5-1.5-.7.8.4 2.6 3.1 4.9.7.7 2.7 2.4 4.3 4 3.8 3.5 10.5 6.8 12.4 6 .8-.3 1.4-.1 1.4.5 0 .5 1.3.9 3 .8 2.1-.2 2.7.1 1.9 1-.6.8-.4 1.6.6 2.4 1.3 1.1 1.4 1 .9-.4-.8-2 .3-2.1 2.1-.2.8.7 1.1 1.8.7 2.2-.4.5 0 .3.8-.3.8-.7 2.1-1.3 3-1.2 1.3 0 1.3.1-.1.7-1.4.6-1.5.9-.3 2 .8.7 1.4.8 1.4.2 0-.5.8-1 1.8-.9 1 0 1.2.3.5.6-2 .8-1.5 4.1.7 4.8 1.2.4 3.9.4 6 0 3.4-.6 3.9-.4 3.4.9-.7 1.7.3 2 6.6 1.6 3-.2 3.3 0 2.1 1.4-.8.9-1.1 2-.7 2.4.4.4 1.3-.1 2-1.1 1.4-1.8 4.6-2.3 4.6-.7 0 .9 2 .8 7.3-.7.9-.2 1.5-.9 1.2-1.4-.4-.5.3-.9 1.4-.9 1.2 0 2.1.7 2.1 1.5s.4 1.5.9 1.5 1.7.3 2.7.7c1.3.5 1.5.3.9-.8s-.5-1.2.6-.1c1.9 1.8 3.1 1.5 2.4-.7-.8-2.5 1.3-3.8 2.8-1.7 1 1.3 1.9 1.4 4.5.7 1.8-.5 3-.6 2.7-.1-.7 1.1 3.2 2.3 4.7 1.4.8-.5.9-.2.4 1.2-.6 1.5-.5 1.6.5.7.9-.9.9-1.5 0-2.6-.9-1.2-.8-1.6.5-2.1 2.4-.9 2.6-.8 1.9 1.4-.4 1.2-.2 2 .5 2 .6 0 .9-.3.7-.8-.3-.4.1-1.3.9-2 .8-.8 1.4-.9 1.5-.2.1.5.2 1.4.3 2 .2 1.4 2.6 3.6 2.6 2.3 0-.6-.6-1.4-1.2-1.7-.7-.3-.4-.4.8-.3 1.1.1 2.8-.3 3.6-1 1.9-1.6 11.8-2.6 13.3-1.3s4.7.2 3.8-1.3c-.4-.7.2-.8 1.8-.3 4.4 1.4 6.4 1.3 8.8-.3 1.4-.9 2.9-1.6 3.5-1.7.6 0 1.9-.2 2.9-.2 1-.1 1.6-.6 1.3-1.1-.3-.5.1-1.2 1-1.5 2.3-.9 2.6-.8 1.8.6-.5.7-.2.9.9.5 2-.8 3 1.9 1.3 3.6-1.2 1.1-.8 1.3 2 1.3 3.9-.1 4.2-.4 1.3-1.4-2.1-.8-2.1-.9-.3-2.6 1.1-1.2 1.9-1.5 2.2-.7.5 1.4 5.2 1.5 5.2.1 0-.6-.8-1.1-1.7-1.1-5.2-.4-6.6-.8-7.7-2-1-1.1-1-1.9-.1-3.7 1.2-2.3 1.3-2.3 1.8-.3.3 1.5 0 2.1-1.1 2.1-3.1 0 0 1.5 5.6 2.7 8 1.6 8.2 1.6 8.2-1.3 0-1.4.4-2.3.9-1.9.5.3 1.3 0 1.7-.6.4-.7.3-.9-.2-.6-.6.3-1.6.2-2.4-.4-1.2-.7-1-.9.8-.9 2 0 2.1-.3 1.2-2-.6-1.1-.7-2-.1-2 .5 0 .8-.8.7-1.8 0-1.1.5-1.6 1.5-1.4 1.7.2 2.8-2.1 3.4-7.1.2-1.6.9-3.5 1.5-4.3 1-1.1 1-1.4 0-1.4-.9 0-1-1.1-.6-3.8.4-2 .8-4.8 1-6.2.2-2 .8-2.4 2.7-2.2 2.1.2 2.2.1.7-.8-2.4-1.5-2.3-4 .2-4 1.1 0 1.9-.3 1.9-.8-.4-2.7.2-4.4 1.6-3.8 1 .4 1.5-.1 1.5-1.5 0-1.3.4-1.8 1.2-1.3.7.4.8.3.4-.4-.4-.6-1.2-1-1.9-.8-.7.1-.9.1-.4-.1.4-.3.7-1.1.7-1.9 0-.8 1-1.4 2.3-1.4 2-.1 2-.2.4-1.1-.9-.5-2.1-.8-2.6-.4-.5.3-1.3.1-1.6-.5-.4-.6-.3-1 .2-.9 2.1.4 3.3-.2 3.3-1.7 0-1 .6-1.4 1.5-1 .9.3 1.5 0 1.5-.9s1-1.5 2.3-1.6c2.1-.1 2.1-.1-.3-.9-1.4-.4-2-.8-1.3-.9.6-.1 1.3-1.1 1.5-2.3.2-1.2.9-2.3 1.7-2.6.8-.3 1.1 0 .7.7-.5.8.8 1.1 4.1 1 3.6 0 4.3-.3 2.8-.9-2.2-1-1.3-1.3 2.8-1 1.6.1 2.9-.4 3.3-1.3.4-1.2 1.2-1.3 3.7-.6 2.2.6 3.3.5 3.9-.4.6-.9.8-.9.8 0 0 .7.7 1 1.7.6 1.2-.5 1.5-.2 1 1-.4 1.1-.2 1.4.9 1 1.7-.6 1.9 1.3.2 2-.7.3.3.3 2.2 0 2.7-.3 3.1-.2 2 .6-1.3.9-1.2 1.2.6 1.7 1.6.4 2 1.1 1.6 2.6-.4 1.7-.2 1.9 1.9 1.3 1.7-.4 2-.4 1 .4-1.2.8-1.2 1.2-.2 2.5.8.9 2.3 1.6 3.5 1.7 1.9.1 1.8.2-.4.9l-2.5.7 3 1.3c2.6 1 2.7 1.3 1.2 1.9-1.7.6-1.7.8.6 2.6 1.4 1 2.3 2.4 2 3.2-.3.7 0 1.3.7 1.3.6 0 .9.4.5.9-.3.6.4 1.5 1.5 2.1 1.1.6 2 1.9 2 2.9 0 1.1.7 2.1 1.5 2.5.8.3 1.2 1.2.9 2.1-.4.9-.1 1.5.9 1.5.8 0 1.7 1.2 2 2.7.3 1.6 1.1 4.1 1.7 5.8.9 2.4 1.3 2.7 2.1 1.5.8-1.2 1.2-1.2 1.6-.2.2.7 1.1 1.9 1.9 2.6 1.1 1.1 1.1 1.5.1 1.9-1.2.5 3.1 4.4 4.5 4 .3-.2.3 1.1-.2 2.7-.6 2.2-.5 3 .7 3.4.8.3 1.8.4 2.3.1.4-.3.6.4.3 1.5-.3 1.2.2 2.9 1.2 4 .9 1 1.4 2.3 1.1 2.9-.4.5-.2 1.2.4 1.6.5.3 1 1.5 1 2.6 0 1 .4 1.9.9 1.9s1.2.7 1.5 1.6c.4 1 .2 1.3-.6.8-.7-.5-.8-.3-.2.7.4.8.9 1.9 1 2.6.1.6.7 2.8 1.4 4.8s1 4.5.7 5.6c-.3 1-.2 1.7.3 1.4.4-.2.8 1 .8 2.8.1 1.7.2 4.9.3 7 0 2 .5 3.7 1 3.7.6 0 .6.6.1 1.6-1.2 2.1-.3 7.6 1.2 6.7.6-.4.5.1-.3 1-.9 1.1-1 1.7-.2 1.7s.7.6-.1 2c-1.1 1.7-1 2.2.1 2.9 1.1.7 1.1.9 0 1.4-1.2.5-1.2.7 0 1.5 1 .7 1 1.1.1 1.4-1.4.4-1.9 6.8-.7 8.6.7.8.4 1.8-.6 3-1 1.1-1.5 3.2-1.4 5.4.2 2-.3 4.4-1 5.3-.9 1.3-.9 2.3-.2 3.7.7 1.3.7 2.3 0 3.2-.6.7-.8 1.6-.4 1.9.3.4-.2.7-1.2.7-1.6 0-1.5.2.5 2 1.3 1.1 1.8 2 1.2 2-.7 0-1.2.9-1.2 2s-.4 2-1 2c-.5 0-1 .9-1 2s.5 2 1.2 2c.6 0 .3.7-.8 1.5s-1.4 1.5-.6 1.5c1.8 0 1.5 2.7-.4 3.4-.9.4-1.4.9-1.1 1.3.4.3.2 1.4-.3 2.4-.7 1.1-.7 2 0 2.4.5.3.1 2.1-1.1 4.3-1.4 2.3-1.7 3.8-1 4 1.8.6 1.3 3.2-.6 3.2-1.6.1-1.6.2.1 1.5 2 1.5 1.8 1.7-1.9 1.8-1.5 0-1.6.1-.3.4 2.1.5 3.2 3.3 1.3 3.3-.8 0-1.5.7-1.5 1.5s-.5 1.5-1.1 1.5c-.6 0-.9-.6-.6-1.4.5-1.1 0-1.2-2.3-.3-2.6 1-2.7 1.2-1.2 2.4 1.5 1.3 1.5 1.3-.6.8-1.5-.4-2.2-.2-2 .6.2.7-1.2 1.6-3.2 2-5.9 1.3-25.1 3.1-32.2 3-5.2-.1-6.8.2-6.8 1.2 0 .8-1 2.5-2.3 3.9-1.3 1.4-2.1 3-1.9 3.6.2.7-.2 1.2-.8 1.2-1.7 0-5.1 4-4.4 5.1.3.5 0 .9-.6.9-.7 0-.9 1.6-.6 4.7.7 5.3.5 5 3.1 5.5 1.4.2 2-.3 2-1.7 0-1.2.8-2.1 2-2.3 1.1-.3 2.3-.9 2.7-1.6.5-.7.8-.6.8.3 0 1.1.4.9 1.5-.5.8-1.1 1.5-1.4 1.5-.7s.7 1.3 1.5 1.3c1.9 0 2 1.9.1 2.6-.8.3-1.2 1.2-.9 2 .4 1 0 1.2-1.1.8-1.2-.5-1.5-.2-1 1 .3.9 1.5 1.6 2.5 1.6s1.9.4 1.9 1c0 .5-.7 1-1.6 1-.8 0-1.2.4-.9 1 .3.5 0 1-.7 1-.8.1-.5.7.7 1.6 1.1.8 1.9 2 1.7 2.5-.3 1.4 1.6 1.1 2.1-.4.4-.9.6-.9.6 0 .1.7.6 1.3 1.1 1.3.6 0 1-.6 1-1.3.1-1.9 9.8-6.3 11.1-5 .8.8.8 1.3 0 1.7-.6.4-1.1.2-1.1-.3 0-.6-.4-1.1-.9-1.1-.6 0-.8.9-.6 2 .2 1.3-.2 2-1.1 2-.8 0-1.2-.5-.9-1 .3-.6.2-1-.3-1s-.9 1.1-.9 2.5c0 1.9.3 2.3 1.2 1.5 1.5-1.3 2.5-.3 2.5 2.5 0 1.5.6 2.1 2 2 1.1-.1 2.3-.4 2.6-.8 1.2-1.2 2.4-.8 2.4.8 0 1.8 1.2 1.9 2.8.3.8-.8 1.2-.8 1.2-.1 0 .8.7.8 2.4 0l2.4-1.2-2.5-1.6c-2.3-1.6-1.7-3.9.7-2.4.6.3 1-.2 1-1.2 0-1.5.2-1.5.9-.3.6.8.7 1.8.4 2.2-1 1.7 2 3.9 4.5 3.3 2.1-.5 2.3-.3 1.7 1.7-.6 1.8-.5 2 .5 1.1.7-.6 1.9-.9 2.7-.6 1.3.5 1.3.2.4-1.6-.7-1.2-1.6-1.9-2.1-1.6-.5.3-1.2 0-1.6-.6-.4-.8-.9-.7-1.6.2-.8 1.1-.9 1.1-.5-.1.4-1.7 4.7-2.7 4.7-1.1 0 .6.9 1.1 2 1.1 1.2 0 2 .7 2 1.6 0 1.4.3 1.4 1.5.4 1-.8 1.5-.9 1.5-.2 0 .6.6.9 1.3.6.8-.3 2 .2 2.7 1.1.7.9 1.6 1.2 1.9.6.3-.5 2-1.1 3.8-1.4 2.5-.4 3.2-.1 3.8 1.7.6 1.8.8 1.9 1.2.4.2-1 1.3-1.8 2.3-1.8 1 0 2.2-.4 2.5-1 .3-.5 1.3-1 2.1-1s1.2.5.9 1.1c-.4.5-.8 2.1-1 3.5-.2 1.8.1 2.4 1.2 2 .8-.3 1.7-.6 1.9-.6.3 0 .2-.4-.1-1-.6-1 4.1-2.6 6.5-2.1.8.1 2.3 1 3.2 1.8 1.5 1.3 1.6 1.3 1.1-.6-.3-1.2-1.2-2.1-2-2.1s-1.2-.4-.8-1c.8-1.4 3.1-.2 4.4 2.3 1.2 2.2 1.2 2.2.7.1-.4-2.4 1.5-2.7 3.6-.6 1.6 1.6 2.8 1.5 2.8-.2 0-2.1 1.9-3 3.4-1.6 1.1.8 1.5.8 1.8-.1.3-.8 1.1-1 2.4-.4 1 .4 2.6.7 3.4.6 1.1-.2.9.2-.4 1.2-1.8 1.3-1.8 1.4.5 2 1.3.3 2.5.4 2.8.2.2-.3-.1-.5-.7-.5s-.9-.6-.6-1.4c.3-.9 1.6-1.3 3.2-1.2 1.5.2 3.6 0 4.8-.4 1.1-.5 2.8-.4 3.7.1 1.2.7 1.7.6 1.7-.1 0-.6.8-.9 1.8-.6 1.7.6 4.6-1.6 8.6-6.5 2.1-2.6 3.1-11.9 1.2-11.9-.5 0 0-.9 1.3-2.1 1.7-1.6 1.9-2.4 1.1-3.4-1.4-1.7-2.1-6.5-.9-6.5.4 0 .9-1 1.1-2.2.2-1.5 1.3-2.4 3.8-3.1 5.6-1.4 9.4-5.7 5.1-5.7-1.1 0-2.7-.7-3.6-1.6-1.3-1.4-1.4-1.9-.3-2.6.9-.7.7-.8-.8-.5-1.8.4-2.1 0-1.8-2.5.2-1.6 0-2.7-.4-2.5-.4.3-1.6.1-2.7-.4-1.6-.6-1.4-.8 1.3-.8 2.4-.1 3.2-.6 3.2-1.9 0-1 .7-2.8 1.6-4 1.5-2.1 1.4-2.2-1.1-1.2-2.3.9-2.6.8-2.3-.7.2-1 .9-1.7 1.5-1.6 1.2.3 1.2-1.5 0-3.4-.4-.6-.4-1.9-.1-2.8.4-.9-.1-2.1-1.1-2.9-1.2-.8-1.5-1.8-1-2.6 1.2-2 1.2-7 0-7-1.4 0-1.2-4.5.2-6.2 1.1-1.3 2.8-7.7 2.5-9.1-.1-.4.3-.7.9-.7.5 0 .7-.4.4-1-.3-.5.1-2.3 1-4 .8-1.6 1.5-3.2 1.5-3.5.1-2.4 1.4-6.5 2.2-6.5.6 0 .6-.6-.1-1.4-1-1.1-.6-1.6 1.6-2.4 1.7-.7 2.1-1.1 1.1-1.1-2.7-.1-2.2-2 .7-2.7 2.1-.5 2.3-.9 1.4-2.6-.9-1.6-.7-2 1.2-2.5 2.2-.6 2.2-.7.3-1.4-1.6-.6-1.6-.8-.2-.8 1.1-.1 1.5-.6 1.2-1.5-.3-.8.5-2.4 1.8-3.6l2.3-2.3-2.4.6c-1.3.3-2 .2-1.5-.3.5-.4 1.8-1 2.9-1.2 1.1-.2 2-1 2-1.8s.6-2.6 1.3-3.8c.8-1.3 1.1-2.6.8-2.9-.3-.3.7-2.6 2.1-5.2 1.7-2.9 2.5-5.9 2.4-8.2-.1-2.1.4-4.1 1.3-4.8 1-.9 1.2-2 .6-4.2-.7-2.4-.6-2.9.8-2.9 1.6-.1 1.6-.2.1-1.3-1.3-1-1.4-1.5-.4-2.4.7-.7 1.6-.9 2-.5.4.4.6.2.5-.3-.1-.6-.1-1.2 0-1.5.4-1.1 1-4.7 1.4-8.1.2-2 .6-4.1 1-4.7.7-1.1-.2-5.3-2-9.6-.5-1.3-.4-1.7.4-1.2.6.4.3-1.3-.8-3.6-1.1-2.4-2.4-4.2-3-4-1 .2-1.4-1.8-1.1-4.7.2-.7-.2-1-.8-.6-.6.3-1.1.1-1.1-.4 0-.6-.9-1.1-2-1.1-2.3 0-2.4-.4-1-3 .8-1.6.8-1.8-.5-1.4-.8.4-1.5.2-1.5-.4 0-.5-1.3-1.2-2.9-1.5-2.3-.5-2.8-1-2.6-3.1.2-1.5-.1-2.6-.6-2.6-.6 0-.7-.5-.4-1 .3-.6-.3-1-1.4-1-1.2 0-2-.3-1.9-.8.4-1.6-1.4-5.2-2.6-5.2-2.3 0-4-2.8-2.7-4.3.8-1.1.5-1.9-1.4-3.5-1.4-1.2-3-2.2-3.5-2.2-.6 0-1-.5-1-1 0-.6-.6-1-1.4-1-1.9 0-2.9-3-1.5-4.6.9-1.1.7-1.4-1-1.4-1.4 0-2.1-.6-2.1-2 0-1.1-1.3-3.3-3-4.8-1.6-1.6-2.7-3.1-2.4-3.4.2-.3-.9-1.8-2.5-3.4-2.2-2-2.7-3.1-1.8-3.6.9-.6.8-1.1-.3-2.1-.8-.6-1.6-2.1-1.8-3.2-.1-1.1-.5-3.1-.7-4.5-1.2-6.1-1.5-17-.5-17 .5 0 .9-.3.8-.8-.1-.4.3-1.7 1-2.9.9-1.7.9-2.2-.1-2.6-.7-.3-.4-.6.7-.6 1.2-.1 1.6-.6 1.2-1.6-.3-.9.3-1.9 1.7-2.6 1.2-.7 2.6-1.8 3-2.5.4-.8 1.3-1.4 2-1.4s1.8-.9 2.5-2 2.1-2 3.1-2c1.1 0 2.1-.4 2.3-.8.4-1.3 9.6-6.2 11.4-6.2.8 0 1.2-.4.9-1-.3-.6.1-.7.9-.4.9.4 1.8-.1 2.2-1 .3-.9 1.5-1.6 2.6-1.6 1.8 0 1.9.2.7 1.7-1.3 1.7-1.3 1.7.6.3 1.1-.8 2.6-2 3.3-2.7.7-.7 2-1 3-.7 1.1.4.8-.1-.7-1.4l-2.5-2 3.4.4c2.4.3 3.7-.2 5-1.6 1-1.1 2.4-2 3.1-2.1.8 0 .5-.4-.6-.9-1.9-.8-1.9-.9.1-.9 1.4-.1 2.1-.7 2-1.9-.1-1.3.6-1.7 3.2-1.5 2.4.1 3-.2 2.3-1.1-.8-.9-.1-1.1 2.6-.8 2.5.3 3.4.1 2.9-.7-.9-1.5 1.5-3.8 4.7-4.6 1.4-.4 3.3-1.5 4.3-2.6.9-1 2.9-1.9 4.3-1.9s3.3-.5 4.1-1c1.3-.8 1.2-1-.3-1-1 0-1.6-.4-1.3-.9.3-.5 2.6-.6 5-.4 3.7.5 4.6.2 5.5-1.5.9-1.7.8-2.3-.6-3.1-1-.6-1.3-1-.8-1 1.6 0 4.5 2.5 3.8 3.2-.3.4.1.7 1 .7 1 0 1.7-.8 1.7-2.1 0-1.1.4-1.8.9-1.5.4.3 2.6-.3 4.8-1.4 2.3-1.1 5.2-1.7 6.7-1.4 1.8.3 3.1-.2 4.3-1.6 1.8-2.1 3.9-2.8 2.7-.9-.4.7-.1 1 .7.7.8-.3 1.3-1 1.2-1.5-.1-.6 2.9-1.8 6.7-2.7 7.7-1.9 13-4.2 13-5.7 0-.6.3-.8.8-.5.4.2 1.8-.2 3.2-1 1.5-.8 1.9-1.4 1-1.4-1.2-.1-1.2-.3.2-1.4 1-.7 1.5-1.6 1.1-1.9-.3-.4-.1-.7.6-.7.6 0 1.4.7 1.7 1.5.9 2.3 2.6 1.8 1.9-.6-.4-1.2-.1-3.2.6-4.6 1.3-2.4 2-2.5 8.3-.6 1.2.3 1.6.1 1.2-.6-.5-.7.3-1.1 2.1-1.1 1.5 0 3.7-.8 4.8-1.7l2-1.6-2 .7c-2 .6-2 .6-.1-.9 1.6-1.2 2.2-1.2 2.9-.2.7.9 1 .9 1.4-.1.2-.6 1.3-1.2 2.4-1.2 1 0 2.4-.8 3-1.9.8-1.2 1.9-1.6 3.2-1.3 1.4.3 1.8.1 1.3-.6-.5-.8 0-1.2 1.3-1.2 1.1 0 2.6-.7 3.5-1.5.9-1 1.7-1.1 2.1-.5.9 1.5 2.5.2 1.8-1.5-.3-1 .1-1.5 1.2-1.5.9 0 2.3-.7 3.1-1.5 1.1-1.1 1.2-1.5.3-1.5-.7 0-.4-.6.7-1.5 2.2-1.7 3.8-2 2.9-.5-.3.5.1 1 1 1s1.3-.5 1-1c-.3-.6.3-1 1.4-1 1.1 0 2.3-.5 2.6-1 .3-.6 1.4-1 2.3-.9 1.1 0 1.2.3.5.6-.7.2-1.3.8-1.3 1.3 0 1.4 4.4-.3 5.8-2.2.7-1 1.8-1.6 2.3-1.3.5.4.9.1.9-.4 0-.6.8-1 1.8-.9 3 .3 12.2-1.4 12.2-2.3 0-.5.7-.9 1.6-.9.8 0 1.2.4.9 1-.3.5-.1 1 .5 1s1.3-.7 1.6-1.5c.6-1.6 2.9-2 3.7-.8.2.5.2.2 0-.6-.2-1 .4-1.2 2.3-.7 1.6.4 3.2.2 4.2-.6s1.3-.9.9-.1c-.4.6-.3 1.4.3 1.8.5.3 1 .1 1-.4 0-.6.8-1.1 1.8-1.1 1.5 0 1.5-.2.2-1.1-1.2-.9-1-1 .8-.6 1.3.3 4.7-.2 7.6-1.2 3.2-1 6.2-1.4 7.3-1 1.2.4 3.8.2 5.9-.6 2.5-.8 4.5-1 5.6-.4 1 .6 1.9.5 2.3-.1.3-.5-.2-1-1.2-1-1.1-.1-.4-.7 1.7-1.7 3.6-1.6 14.2-2.4 13.3-1.1-.2.5.1.8.6.8.6 0 1.1-.5 1.1-1.1 0-.7 1-.9 2.5-.5 1.4.4 3.1.3 3.8-.1 1.2-.8 2.8-1 9.2-1.6 1.7-.2 4.2-.7 5.8-1.1 1.6-.5 3.2-.4 4 .2 1.3 1.1 10 1.5 9.3.4-.2-.4 1.4-.8 3.5-.9 2.1-.2 3.9.2 3.9.7 0 1.5 3 1.2 3-.3 0-.6.5-.4 1.1.7.9 1.5 1.3 1.6 2 .5.7-1.2.9-1.2.9 0 0 1.6 5 .6 6.2-1.2.5-.8 1.4-.7 3.3.3 1.8 1 2.2 1.6 1.3 2.2-.7.4-.9.8-.5.8s1.8-.7 3.1-1.6c2.2-1.4 2.8-1.4 6.1 0 4.3 1.8 7.9 2.1 7 .5-.4-.6-1.2-.8-1.9-.6-.6.3-2.5-.1-4.1-.8l-3-1.3 4.5.1c2.5.1 5.1.8 5.8 1.4 1.7 1.6 2.9 1.6 3.8.1.5-.8.2-.9-.9-.5-1 .3-1.7.2-1.7-.3 0-.6.6-1 1.3-1 1.7 0 3.9 1.5 3.7 2.6-.1.5.4 1 1.2 1.2.9.2.8 0-.2-.7-1.1-.8-1.2-1.1-.2-1.1.7 0 1.1-.4.8-.9-.3-.4 1.4-.7 3.7-.6 2.3.2 4.5-.2 4.9-.9.6-.8.8-.7.8.1 0 .7.5 1.3 1.1 1.3.5 0 .8-.4.5-.9-.9-1.4 4.1-.6 5.9.9 1.3 1.1 2 1.1 4 0 1.6-.8 2.9-1 3.7-.4.7.6 7.4.8 15.3.6 7.7-.1 15.1-.3 16.5-.3 1.4 0 1.9-.3 1.2-.6-.6-.2-.9-.9-.6-1.4.3-.6 1.2-.2 1.9.8 1 1.4 3 1.8 9.6 2 4.6.1 7.8-.2 7-.6-1-.7-.9-.9.3-1.4 1-.4 1.3-1.3 1-2.4-.4-1.1-.3-1.4.3-.7.4.6 1.8 1.4 3.1 1.8 1.2.4 2 1.2 1.7 1.7-1 1.5 1.2 1 2.9-.6.8-.8 1.9-1.5 2.5-1.5.6 0 1.1-.4 1.1-.9s1-1.1 2.3-1.4c2.1-.6 2.1-.6.3.8-1.1.8-1.4 1.5-.7 1.5s1 .4.7.9c-.9 1.4 7 2.4 9.3 1.2 1.1-.6 2.6-.8 3.4-.6.7.3 2-.1 2.7-1 1.4-1.7 4.8-2 7-.5 1.1.7.4.8-2.2.5-2-.4-3.9-.1-4.3.5-.3.6.3 1 1.7 1 1.8 0 2 .2.8 1-1.3.8-1.3 1 .2 1 .9 0 1.9-.4 2.2-.8.7-1.1 5.2-1.5 13.6-1.4 10.6.2 12.3.4 10.8 1.3-1 .7-.9.9.4.9.9 0 1.9-.4 2.3-.9.3-.6 1.8-.6 3.7 0 2.3.6 4 .5 5.9-.5 2.4-1.2 3-1.2 3.9 0 .8.9 3.1 1.3 6.8 1.1 4-.1 6.4.4 8.2 1.6 2.7 1.9 5.5 2.3 4.5.7-.4-.6-1.1-.7-1.7-.4-.8.5-.9.1-.5-1 .4-1 .7-2 .7-2.2 0-.2 2.6-.4 5.8-.4 5.2.1 5.5.2 3.3 1.4-1.2.7-3.5 1.1-5 1l-2.6-.4 2.5.9c1.4.4 2.4 1.3 2.3 1.8-.1.6.7.9 1.8.6 1.2-.3 2.5 0 2.9.7.6.9 1.9 1 5.3.2 3-.6 4.7-.6 4.9 0 .2.6 1.6 1.2 3.2 1.3 1.5.2 3 .6 3.3.9.4.3 1.2.1 2-.5.8-.7 1.3-.7 1.3-.2 0 .6 1.2 1 2.8 1 6 0 12.6.6 11 1-3.4.9-1.8 2.3 2.4 2.1 2.4-.1 4.3.3 4.6 1 .2.7 1.3 1.2 2.5 1.2 1.8 0 1.9-.2.7-1.1-1.2-.8-.9-1 1.3-.6 1.5.2 2.7.1 2.7-.3 0-1.2 4.3.1 5.9 1.7 1 1.1 1.6 1.1 2.8.1 1.2-1 1.7-.9 2.5.5.7 1.3 1.3 1.5 2.8.7 2.7-1.4 6.3-1.2 8.6.5 1 .8 3 1.5 4.4 1.5 1.8 0 2.1.3 1.2.9-1.1.7-1.1.9.2 1.4.9.4 1.6.2 1.6-.4 0-.6.8-.8 1.8-.5.9.3 2.4.1 3.2-.4 1.6-1 1.4-1.1-3.5-1.4-2.9-.1-3.4-2-.7-2.4 1.2-.2 2.9.4 3.8 1.2.9.9 2.1 1.3 2.7.9 1.2-.7-1.2 2.7-2.6 3.8-.5.3 2 .9 5.4 1.3 3.5.3 6.7 1 7.2 1.5s2.6.6 4.8.4c2.4-.4 4.5-.1 5.4.7 1.5 1.3 5 .6 4.1-.8-1.1-1.8 2.9-3.7 6.4-3.1l3.5.6-3.2.2c-1.7 0-3.5.5-3.8 1.1-.4.6.1.7 1.1.3 1.2-.4 1.5-.3 1 .5-.4.7-.2 1.2.3 1.2.6 0 1.1.5 1.1 1.1 0 .6-.9.8-2.1.4-1.9-.6-2-.5-.8.8.8.8 1.7 1.3 2 1.1 1.4-.8 9.8.9 9.2 1.9-.4.6-.1.7.7.2 1.9-1.1-1.8-3.7-4.2-2.9-1 .3-1.8 0-1.8-.6s-.4-.9-.9-.6c-.5.3-1.2-.1-1.5-1-.8-2-.8-1.9 2.1-2.8 1.6-.5 2.3-.2 2.7 1.1.7 2.1 4.4 2.8 6.3 1.1 1-.8 1.3-.7 1.4.3 0 .8.4.4.9-.8.6-1.5 1.5-2 3-1.6 1.9.5 1.9.6.3 1.9-1.6 1.2-1.6 1.3-.1.8.9-.3 2.6 0 3.8.6 1.5.8 2 .8 1.6.1-.4-.6-.2-1.1.3-1.1.6 0 1.1.4 1.1.9 0 .6 1.4.5 3.5 0 1.9-.6 4.1-.7 4.7-.3 1.2.8 4.5 1.5 8.1 1.7 1.3.1 1.7.7 1.3 2.1-.4 1.4-.2 1.6.7.7 1.6-1.6 2.7-1.4 2.1.4-.4.8-.1 1.5.6 1.5.6 0 .8-.5.4-1.1-.5-.9.1-1 2-.5 1.8.4 2.5.3 2.1-.4-.4-.6.5-1 2.2-1h2.8l-2.4 1.9c-2 1.5-2.1 1.9-.7 2.4 1 .4 1.6.1 1.6-.8s1.4-1.5 4.3-1.7c5.2-.4 9.7.9 9.7 2.8 0 1 .7 1.3 2.5.8 1.4-.3 2.5-.2 2.5.4 0 .5.7 1.3 1.6 1.6.8.3 1.2.2.9-.4-.8-1.3 1.1-1.3 3.7.1 2.7 1.4 6.9.4 6.2-1.6-.4-.8-.1-1.5.5-1.5s1 .3 1 .7c-.1.5 0 1.1.1 1.5.1.5.3 1.2.4 1.8.2 1.7 7.2 4.7 9.2 3.9 1-.3 2.7-.3 3.6.2 1.9 1 5.1.1 4.3-1.1-.9-1.5 1.6-2.3 2.8-1 .9 1 .9 1.1 0 .6-.8-.4-1.1.1-1 1.4.1 1.3.6 1.9 1.5 1.5.7-.3 2.2-.5 3.2-.5s2.2-.9 2.5-2c.3-1.1 1.1-2 1.7-2 .7 0 .7.4.1 1.2-1.4 1.8-1.2 4.5.4 4.5.7 0 1.3-.4 1.3-.9 0-.4-.6-.8-1.2-.8-.9 0-.8-.4.2-1 2.2-1.4 3-1.2 3 .7 0 1.5.2 1.6 1 .3.8-1.2 1.2-1.1 3 .8 1.1 1.2 2.6 2.2 3.2 2.2.6 0 .3-.9-.7-2s-1.5-2.3-1.1-2.7c.4-.4 1.1-.1 1.6.7.6.8 1 1 1 .5.1-.6.5 0 1 1.2.6 1.6 1.8 2.3 3.6 2.3 1.9 0 2.5-.4 2.1-1.4-.5-1.2.2-1.3 3.1-.9 2 .3 3.8.9 4 1.3.2.5 1.1.6 2.2.3 1.5-.4 1.8-.1 1.3 1.6-.5 2 .4 2.5 4.4 2.4.7-.1 1 .3.7.8-.3.5.2.9 1 .9 2 0 2-.5.1-3.4-1.5-2.2-1.4-2.3 2-3.3 3.2-1 3.5-.9 3.5.8 0 2.3 1.8 2.5 2.6.4.4-.8 1-1.5 1.5-1.5.4 0 .6.7.3 1.5-.5 1.2.3 1.4 4.2 1.2 4.1-.2 4.9.1 5.2 1.7.3 1.5 0 1.8-1.7 1.3-1.2-.3-2.1-.2-2.1.2 0 .3-1.2 1.3-2.6 2.2l-2.6 1.6 4.1.1c2.3.1 4.1-.3 4.1-.8 0-.6 1-1 2.3-1 1.8 0 1.9-.2.7-1-1.3-.9-1.3-1 0-1 2 .1 5 2.4 5 4 0 .7-.6 1-1.4.7-.8-.3-2.7-.2-4.3.2-2.7.7-2.7.7 1.4 1.8 2.8.7 4.2.7 4 .1-.1-.6.4-1.3 1.1-1.5.6-.3 1.2 0 1.2.6s.7 1.1 1.6 1.1c.8 0 1.2.4.9 1-.6 1.1 4.2 2.6 5.2 1.6.4-.3-.1-.6-1-.6-3.3 0-1.6-1.8 2.3-2.5 4.2-.7 8 0 8 1.6 0 .5 1.2.6 2.8.3 3.5-.9 2.1.7-2.1 2.4-3 1.1-3 1.2-.5.9 1.6-.3 2.9.1 3.2.9.3.8 1.5 1.4 2.6 1.4s2 .5 2 1.1c0 1.2 4 .8 7.4-.6 1.6-.7 1.8-.5 1.3.8-.6 1.7 0 2 3.8 1.8 1.1 0 1.4.2.8.5-.7.3-1.3 1.1-1.3 1.8 0 1.5 3.2 1.7 4.2.2.4-.7 1.3-.5 2.5.5 1 .9 2.6 1.9 3.6 2.2 1 .4 1.5 1.1 1.2 1.7-.9 1.5 1.8 1.2 4.2-.5 1.7-1.2 2.3-1.2 3.2-.1.6.7.8 1.6.4 1.9-.3.4-.1.7.6.7s.9.5.5 1.2c-.5.7-.3.8.5.4.7-.5 1-1.4.7-2.2-.3-.8 0-1.4.7-1.5.7 0 .3-.4-.8-.8-1.7-.7-1.7-.8.8-1.3 1.5-.3 2.7-.1 2.7.5 0 .5.8.7 1.8.5 1-.3 2.3.1 3.1.9.7.8 2.1 1.1 3.3.7 1.2-.4 1.8-.2 1.4.4-.3.6 1.5.9 4.9.8 3-.1 5.5.2 5.5.6 0 .4-1 .8-2.2.9-1.9.1-1.8.2.6.9 1.6.5 3.3.7 3.7.4.4-.2 1 0 1.4.6.3.5 1.9 1 3.5 1 1.5 0 3 .7 3.4 1.5.4 1.1 1.4 1.3 3.7.8 2.1-.4 3.4-.2 4 .8.6.9.9 1 .9.2 0-.6.9-1.1 1.9-1 1.2.1 1.7.6 1.3 1.5-.4 1.2-.1 1.2 1.6.3 2.7-1.4 3.2-1.4 3.2.4 0 .9.6 1.2 1.8.8 1.4-.5 1.4-.4-.2.9-1.9 1.5-1.8 1.5.6 2 1.4.2 3.6 0 4.9-.5l2.4-1-2.5-.7c-2.4-.6-2.4-.7-.4-1.3 1.2-.4 3.5 0 5.8 1.1 4.7 2.3 14.4 2.2 15.7-.1.5-.8 2.9-2 5.4-2.7 2.5-.7 4.8-1.7 5.1-2.2 1-1.6-.6-2.3-2.6-1-1.2.7-2.1.8-2.5.2-.3-.6.2-1 1.1-1 1 0 1.5-.3 1.2-.6-1.2-1.1 4.4-5.5 6.3-4.9 1.3.4 1.9.2 1.9-.9s.9-1.6 3.1-1.6c1.6 0 2.8-.4 2.5-.9-.3-.4.6-.6 2.1-.3 1.9.4 2.4.2 1.8-.8-.5-.9-.2-1 1.2-.6 1.5.5 1.9.1 1.8-2.1 0-1.5.6-2.8 1.5-3 1.2-.4 1.3-.3.1.5-.8.6-1.1 1.7-.7 2.7.4 1.2 1 1.4 1.9.7.6-.5 2.1-1.2 3.2-1.5 1.8-.4 1.8-.5-.2-.6-1.3 0-2.3-.6-2.3-1.2 0-.8 1.1-.9 3.1-.5 1.7.3 4.1.6 5.3.6 1.5 0 1.7.3.7.9-.9.6-1 1.1-.3 1.5.6.4 1.9-.5 2.8-1.9.9-1.4 2.6-2.5 3.8-2.5 1.5 0 1.7.3.7.9-.9.6-.3 1 2 1.3 1.9.3 3.5.2 3.7-.3.2-.5.8-.9 1.3-.9.4 0 .6.7.2 1.6-.4 1.2 0 1.4 2.3.9 5.6-1.3 6.4-1.7 5.9-2.6-.4-.5.1-.9 1-.9 2 0 1.5-2.2-.6-2.8-1.1-.3-1.1-.2.1.7 1.3.9 1.2 1.1-.3 1.1-1.1 0-1.7-.6-1.5-1.3.7-1.9 4-2.1 5.4-.3 1 1.4 1.2 1.2 1.9-1.6 1.4-6.3 1.3-7.8-.7-7.8-1.5 0-1.7.3-.8 1.9 1.1 2.2.8 2.5-3.1 3.4-2.3.6-2.6.4-2.2-1.7.4-1.7-.4-3-2.7-4.9-1.7-1.5-3.7-2.7-4.5-2.7-.7 0-2.5-.6-4-1.4-1.8-1-2.3-1.6-1.4-2.2.9-.5.6-1-1-1.6-2.3-.8-2-2.8.5-2.8.8 0 1.4-.5 1.4-1 0-.6-.5-1-1.1-1-.5 0-.7-.5-.4-1 .3-.6 2.3-1 4.3-1.1 3.3-.1 3.4-.2 1.2-.8-1.4-.5-3.3-.4-4.3.1-2.9 1.5-3 .3-.2-2.5l2.6-2.5-2.2-.7c-1.5-.5-1.8-.9-.9-1.5.9-.5.9-.9.1-1.4-1.4-.9-1.5-5.6-.1-5.6.6 0 1-.7 1-1.6 0-1.1-.6-1.4-2.2-.8-3.2.9-3.5 1.4-1.8 2.5 1.3.9 1.2 1-.2.6-.9-.3-1.9-.1-2.2.6-.2.7-.5.4-.5-.5-.1-1.1-.6-1.5-1.6-1.2-.8.4-1.5.1-1.5-.6s-.8-.9-2.1-.5c-1.6.5-2 .3-1.6-.6.2-.8 1.1-1.3 1.8-1.1.8.1.5-.4-.5-1.3-1.1-.8-2.4-1.5-2.9-1.5-.4 0-.5-.5-.2-1.1.4-.6 0-.9-1.1-.7-1.1.2-1.8-.2-1.7-1 .4-1.5-1.2-1.5-6 .2-2.7 1-3.9 1.1-4.4.2-.3-.6-.3-.8.2-.4.4.4 1.4.1 2.1-.7.8-.8 2.1-1.2 2.9-.9.8.4 1.5.2 1.5-.4 0-.6-1.4-1.3-3-1.7-1.7-.4-3.5-1.6-4.1-2.7-1.3-2.5-1-2.8 2.1-1.6 2 .7 2.2 1.1 1 1.9-1.1.8-.7.9 1.5.3 1.7-.4 3.8-.6 4.7-.6 1.1 0 1.5-.6 1.3-1.8-.2-1 .3-2.4 1.1-3.1 1.1-.9 1.4-.8 1.5.7.1 1.1.1 2.3 0 2.7-.1.5.3.6.9.2.6-.3.8-1 .5-1.5-.3-.5-.1-1.1.5-1.5.6-.4.8-1 .5-1.5-.3-.5.3-1.5 1.3-2.2 2.9-2 6-8 4.5-8.5-.7-.3-1.3-1.3-1.3-2.4 0-1.1-1-2.4-2.2-2.9-1.3-.5-1.9-.9-1.4-.9.5-.1.3-.8-.4-1.6-.9-1.1-2.2-1.4-4.3-.9-2 .4-2.7.3-2.3-.5.4-.6 1.4-1.1 2.2-1.1 2 0 2.8-2.4 1.4-4.9-1.3-2.5-3-2.8-3-.6 0 3.6-8.7 3.4-13.5-.1-2-1.5-2-1.5-.1-3 1.1-.8 2.5-1.4 3-1.4.6 0 .3.7-.7 1.4-1.7 1.4-1.7 1.5.5 2.2 1.3.4 2.7.7 3.1.6.5-.1.6.2.2.8-.7 1.2.2 1.2 3 0 2.1-.8 2.1-.9-3.1-2.5-.8-.3-1.3-.9-1-1.3.3-.5-.6-1.4-2-2.1-3.1-1.4-4.4-1.4-2.4 0 1.2.9 1.1 1-.7.6-1.2-.3-2.1 0-2 .5.1.6-1 1.2-2.5 1.5-1.6.2-2.8-.1-2.8-.7 0-.5.6-1 1.3-1 .6 0 .4-.5-.6-1.1-.9-.6-1.5-1.4-1.2-2 .4-.5-.1-.9-.9-.9-.9 0-1.6.7-1.6 1.5 0 1.6-1.9 1.9-6.8.9-3.7-.8-5.2-3.4-1.9-3.4 1.8 0 1.9.2.7 1-.8.5-1 1-.4 1 2.1 0 2.4-1.4.7-3.2-1.4-1.6-1.4-1.8 0-1.8.8 0 2.2.6 2.9 1.3.7.7 2.1 1.6 3.2 2 1.4.5 1.7.4 1.2-.8-.3-.9 0-1.5 1-1.5.8 0 1.3.4 1 .9-.3.5.1 1.2 1 1.5 2.5 1 3.4.7 3.4-.9 0-.8.9-1.5 2-1.5s2-.5 2-1c0-.6.7-1 1.5-1 1.3 0 1.2.3-.2 1.9-.9 1.1-2.3 1.7-3.2 1.4-1.1-.3-1 0 .4 1.2 1.5 1.3 3.1 1.5 7 1 10.6-1.3 12.5-2.8 4.9-3.9-2.5-.3-5.2-1.3-6-2.1-.9-.8-1.2-1.5-.7-1.5.4 0 .1-.5-.7-1-1.1-.8-1.2-1.2-.3-1.8 2.3-1.5-.3-2.7-5.9-2.8-3.2 0-5.8.4-5.8.9s-.7.4-1.5-.3-3.3-1.3-5.4-1.4c-2.2 0-3.7-.4-3.5-.8.2-.3 0-.9-.6-1.3s-.8-1-.6-1.4c.3-.3-.4-.7-1.5-.7-1 0-1.9.4-1.9.8s-.4.8-1 .8c-.5 0-.7-.6-.4-1.4.3-.7-.2-1.6-1.1-2-.9-.3-1.8 0-2.1.9-.4.8-1.3 1.5-2 1.5-1.1 0-1.2-.4-.4-1.9.8-1.6 2.1-2 5.9-1.9 2.9 0 5.9-.7 7.4-1.6 2.2-1.5 2.5-1.5 3-.2.8 2 3.4 1 4.2-1.4.3-1.1 1.2-1.7 1.9-1.4.7.3 1.6-.2 2-1.2.5-1.2.2-1.5-1-1-.8.3-2.4.6-3.5.6-1.3 0-1.7.5-1.2 1.7.5 1.4.1 1.3-1.4-.4-1.3-1.5-2.7-2.1-4.4-1.7-2.4.5-2.4.4-.1-.5 1.2-.6 2.2-1.2 2.2-1.3 0-.5-11.5.3-13 .9-2.9 1.2-6 1.4-6 .3 0-.5 1.2-1 2.6-1 1.4 0 2.3-.4 1.9-1-1.1-1.8-5-1.1-7.7 1.5-3.3 3-3.8 3.1-3.8.5 0-1.4-.5-1.8-1.7-1.3-1 .4-2.2 1.2-2.6 2-.4.7-1.3 1.3-1.8 1.3-.6 0-.7-.6-.3-1.3.5-.8.2-.8-.9.2-.9.7-1.8 1.1-1.8.7-.1-.3-.2-1-.3-1.5 0-.5-.4-1.3-.8-1.7-.5-.4-.8-1.4-.7-2.3 0-1 .4-.8.9.6 1 2.3 6 3.4 6 1.3 0-.6 1-1.5 2.3-2 1.8-.8 1.6-.9-1.7-.8-2.4.2-4.2-.3-5-1.3-.6-.9-1.8-1.8-2.6-2.2-.9-.3-1-.6-.2-.6 1.8-.1 1.5-3.8-.4-4.5-1.8-.7-3.4 0-3.4 1.6 0 .5.7.8 1.4.5 1-.4 1.3-.1.9.9-.3.7-.9 1.4-1.3 1.4-1.9 0-6-2-6-3 0-1.5 3.8-5 5.5-5 1.3 0 1.4-.4.5-2-.6-1.1-.8-2.6-.4-3.2.5-.8.2-.9-.9-.5-1.5.6-2.2-.3-1.8-2.5 0-.4-.6-.5-1.5-.1-1 .3-1.4 1.3-1.1 2.5.4 1.2.1 1.8-.6 1.5-.7-.2-1.1-1.1-.9-2.1.2-1.1-.4-1.6-2-1.6-1.3 0-3.4-.3-4.8-.6-2-.5-2.2-.3-1 .5 1.1.9.4 1-3.2.7-5.6-.5-6.3 0-4.3 3.1.9 1.3 1.2 2.3.8 2.3-.5 0-.1.5.7 1 .8.5 1.6 1.4 1.6 2 .1.5.2 1.4.3 2 0 .5.6 1 1.2 1 .8 0 .8-.4 0-1.4-1.5-1.8 0-2.8 3.7-2.5 1.5.2 3.4-.1 4.2-.6 1.3-.8 1.3-.6.1.8-.7.9-1.8 1.4-2.3 1.1-.6-.4-.8.1-.4 1.4.4 1.1.3 2.3-.2 2.6-1.1.7-8.5-.5-7.7-1.2.2-.3 0-1.1-.6-1.9-.9-1-.8-1.3.2-1.3 1-.1.8-.4-.4-1.1-.9-.5-2.3-.7-3-.3-.9.5-.9.4.1-.7 1.7-1.9 1.5-3.2-.4-2.5-1.4.5-1.5.4-.4-.9 1-1.2 1-1.5-.4-1.5-.9 0-1.6.4-1.6 1 0 .5-.7.7-1.5.4-2-.8-.9-2.4 1.8-2.5 2-.1 2-.2-.3-.8-1.4-.4-2.4-1.3-2.3-1.8.1-.7-.7-.9-2-.5-2.1.5-2.1.5-.4-1.2 2-2 1.6-3.3-.5-2-2.6 1.6-4.4 1.3-4.5-.8-.2-2.5-1.4-3.7-2-2-.4 1-1 .9-3-.4-1.4-.9-2.2-1.1-1.8-.4.5.8.1 1.1-1.1.8-1.1-.2-1.8-.9-1.7-1.6.3-1.3-2.1-.6-5.2 1.5-1.1.7-2.4 1.3-3 1.3-.5 0-.3-.5.5-1 1.3-.9 1.3-1 0-1-1 0-1.1-.3-.4-.8.8-.5.3-1.3-1.5-2.6-1.4-1.1-2.1-1.3-1.4-.6 1 1.1.7 1.6-1.4 2.7-3 1.6-3.6 1.6-2.8.3.3-.6-.1-1-.9-1-.9 0-1.6-.4-1.6-1 0-.5-1.1-1.2-2.5-1.6-1.4-.3-2.5-1.3-2.5-2.3 0-1.3-.2-1.3-.9-.2s-1.5 1.1-4.2.2c-1.8-.6-3.5-.8-3.8-.4-1.2 1.6-3.2 1.3-2.9-.4.3-1.3 1.1-1.7 3-1.5 1.5.1 2.9-.1 3.2-.6.3-.5-.5-.8-1.7-.8-3.6.1-2.6-2.6 1.1-2.9 1.7-.2 3.2.1 3.2.6s.7.6 1.5.3c.8-.4 1.3-1 1-1.4-.3-.5.9-.3 2.5.3 2.5 1 3.3.9 4-.3 2.1-3.2.7-4.5-5-4.9-4.1-.2-5-.5-3.5-1.1 1.9-.8 1.9-.9-.2-.9-1.2-.1-2.8.5-3.5 1.1-1.7 1.6-7.6 1.6-10.5 0-2.6-1.4-5.7-1.6-4.8-.3.3.5.1 1.2-.5 1.6-.5.3-1 .1-1-.6s-.3-.9-.7-.6c-.3.4-1.1.3-1.7-.2-1.7-1.3-7.6-2.2-7.6-1.1 0 .6-.7 1-1.5 1s-1.5-.7-1.5-1.6c0-1.2-.7-1.5-2.5-1.2-1.3.3-2.2.2-2-.2.3-.5-.2-1-1-1.4-.8-.3-1.5-.1-1.5.5s-.9.8-2.1.4c-1.5-.5-1.9-.4-1.5.4.4.6.4 1.1-.1 1-2.2-.4-3.2.3-2.7 1.8.5 1.7.5 1.7-.6 0-.6-.9-1.8-1.7-2.6-1.7-1.1 0-1.2-.4-.5-1.9.9-1.5.7-2-.9-2.4-1.1-.3-2-.1-2 .5s-1.7.8-4.5.4c-2.9-.5-4.5-.4-4.5.3 0 .6-.8 1.1-1.7 1-1.1 0-1.3-.3-.5-.6.6-.2 1.2-1.1 1.2-1.8 0-.8.7-1.1 2-.8 1.1.3 2 0 2-.6s-.7-1.1-1.5-1.1-1.7-1.1-2.1-2.5c-.7-2.8-2.5-3.1-6.9-.9-1.6.8-2.2 1.2-1.2.9 6.2-1.7 7-1.8 6.5-.4-.3.8-1.2 1.4-2 1.3-.8-.1-1.5.5-1.5 1.2s.4 1.1.8.9c.4-.3.9.1 1.2.8.4 1-.6 1.2-4.2.7-6-.8-9.9-2.8-8-4.2 1-.6.6-.7-1.1-.2-1.4.4-3 1.4-3.7 2.3-1 1.3-1.4 1.3-2.1.3-.5-.7-2.1-2-3.5-2.7-2.5-1.3-2.7-1.2-2.7.5s-.3 1.8-2.7.8c-4-1.7-4.9-2.6-1.9-2.1 1.7.4 2.8 0 3.2-1 .3-.9 1.2-1.3 2-1 .8.3 1.4 0 1.4-.7s.8-.9 2-.5c1.5.5 1.8.3 1.4-.9-.3-.9-1.2-1.2-2.1-.9-1.1.4-1.4.2-.9-.5.9-1.5 8.7-.7 9.8 1.1.6.9 1 .9 1.8-.3.9-1.4 1.4-.7 1.1 1.3-.1.4.8.3 1.9-.3 2.3-1.2 11.2-2.1 10.5-1-.2.4.8.7 2.4.8 2.4 0 2.8-.3 2.7-2.7-.1-1.8-.5-2.7-1.3-2.4-.7.3-1.3 0-1.3-.6 0-1.3-4.6-1.5-5.4-.2-.8 1.2-5.8.1-7.9-1.8-1.5-1.2-1.8-1.2-1.5-.1.4 1.6-7.4 2.1-11 .6-1.6-.7-2.6-.6-3.5.4-.8.9-.9 1.1 0 .6.6-.3 1.4-.2 1.7.3.3.5-.3 1.1-1.4 1.4-1.1.3-2 .1-2-.5 0-.5-.5-.6-1-.3-.6.4-.9.1-.8-.6.2-.6-.6-1.2-1.8-1.4-1.5-.1-2 .3-1.7 1.5.4 1.4-.1 1.6-2.7 1.2-2.3-.3-2.8-.7-1.9-1.3 1.1-.7.9-.9-.6-1-1.1-.1-2.8-.1-3.7 0-1 .1-2.6-.3-3.8-.9-1.4-.7-2-.8-2 0s-.6.8-2 0c-1.6-.8-2.3-.7-3.7 1-1 1.1-2.4 2-3.3 1.9-1 0-1.1-.2-.2-.6.6-.2.9-1 .6-1.5-.4-.7-.2-.8.4-.4.7.4 1.2.2 1.2-.3 0-.6-1.1-1.1-2.4-1.1-1.3 0-3.1-.3-4-.6-1.1-.4-1.6-.1-1.6 1 0 1.8-1.6 2.2-2.2.6-.5-1.5-7.8-2.6-7.8-1.1 0 .6 1.2 1.4 2.7 1.7l2.7.7-2.4.9c-2.5.9-7 0-5.2-1.1.7-.4.6-1.2-.3-2.4-1.2-1.7-1.4-1.7-2.3-.1-1.2 2.1-6.2 2.6-6.2.6 0-1-1.1-1.3-3.9-1-2.2.2-3.7-.1-3.4-.5.3-.5-.5-.6-1.8-.2-1.9.5-2.1.4-.9-.4 1.2-.9 1.1-1.1-.7-1.1-1.2 0-2.3.6-2.6 1.2-.2.7-.8 1-1.2.6-1.2-1.1.5-2.8 2.8-2.9 2.1 0 2.1-.1.2-.9-1.6-.7-1.7-.9-.3-.9 2.5-.1 4.9 1 4.2 2-.3.5 0 .9.5.9 1.6 0 1.3-2-.4-2.6-.8-.4-1.3-1-1-1.4.3-.4-1.1-.4-3 0s-3.3.4-3 0c.5-.8-3.6-2.2-4.4-1.5-.2.3.1.5.7.5.7 0 1.2.7 1.2 1.5s-.5 1.5-1.1 1.5c-.5 0-.7.5-.3 1.1.4.7.1 1-.7.7-.8-.3-1.4-1-1.4-1.6 0-.7-.4-1.2-.9-1.1-.5 0-1.2-.3-1.5-.9-.8-1.1-7.3-3.4-7.9-2.7-.3.3 0 .5.5.5 1.6 0 1 2.4-.9 4.4-1 1-1.9 1.2-2.3.6-.4-.7-1.3-.7-2.6 0-1.1.6-2.5.8-3.1.4-.7-.4-.8-.3-.4.4.9 1.5.7 1.5-3.1.1-1.7-.5-3.5-2-4.1-3.2-1.1-2-1.1-2-.6.5.4 1.7.2 2.8-.5 2.8-.6 0-1.1-.4-1.1-.9s-.6-.9-1.2-.8c-4 .1-5-.4-4.3-2.1.5-1.3.4-1.4-.6-.5-1 1-.9 1.6.2 2.9 1.2 1.6 1.2 1.7-.4 1.1-1-.4-2.5-.7-3.3-.7-.8 0-1.4-.7-1.4-1.5s.5-1.5 1-1.5c.6 0 1-.5 1-1.1 0-.8-2-1-6-.7-3.3.2-6 .1-6-.2 0-.8-6.4-.5-7.7.3-.4.2-1.7.1-2.8-.4-1.8-.7-1.8-.8-.2-.8 1-.1 1.5-.5 1.2-1.1-.4-.6.5-1 1.9-1s2.6-.4 2.6-1c0-1.6-6.4.1-8.2 2.1-1.4 1.7-1.9 1.7-4.8.5-2.5-1-2.9-1.4-1.5-2 2.4-.9 2.7-.8 1.9.6-.4.7-.3.9.1.5 1.2-1 1.5-3.8.4-3.1-.5.3-.9.1-.9-.5 0-.5.9-1.3 2-1.6 2.6-.8 2.6-3.5-.1-3.5-1.1 0-1.8.4-1.4 1 .3.5-1.3 1.4-3.5 2-2.2.6-4 1.5-4 2.1 0 .6.4.8.9.5.5-.3 1.1.1 1.5.9.7 1.8-2 2-3.1.2-.4-.6-1.4-1.2-2-1.3-.7-.1-2.2-.2-3.4-.3-1.1 0-1.8-.4-1.6-.9.3-.4-.8-.7-2.4-.8-1.6-.1-2.9.3-2.9.8s.5.6 1 .3c1.4-.9 1.2.8-.2 2.4-1.1 1.2-.9 1.3.7.6 4.2-1.6 5.5-1.7 5.5-.5 0 .7-.7 1-1.5.6-.8-.3-1.5-.2-1.5.2 0 1.1-11.1 1.2-13.1.1-1.5-.7-1.7-1.4-1-2.8.9-1.6.7-1.7-1.5-1.3-2.8.5-4.3 2.2-2 2.2.9 0 1.6.4 1.6 1 0 1.1-5.4.3-8.4-1.3-1.9-.9-1.9-1-.2-2.2 1.6-1.2 1.6-1.4-.6-2-3.8-1.2-4.9-2.5-3.5-4 .8-.9 1.6-1 2.5-.3.9.8 1.8.6 3-.6 2.2-1.9 3.8-2.1 4.5-.4.4 1 .6 1 .6 0 .1-.7-.6-1.5-1.4-1.8-.8-.4-1.2-1.1-.8-1.7.4-.6 0-.8-.9-.4-.9.3-3.3.1-5.4-.3-2.4-.6-4-.5-4.2 0-.2.6-1.1 1-2 1-1.4 0-1.4-.2-.3-.9.9-.6.1-1-2.5-1.3-2.2-.3-4.1-.2-4.4.2-.3.4-1.2 1-2 1.3-1.2.4-1.1.6.3.6 2.1.1 2.3 1.7.2 2.5-.8.3-1.5.9-1.4 1.3.3 1.9-.2 2.3-2.1 1.3-1.6-.9-2-.8-2 .5 0 .8-.7 1.5-1.6 1.5-1 0-1.4-.6-1-1.5.4-1.1-.1-1.4-1.9-1.3-1.4.1-2.5.6-2.5 1s-.5.8-1.1.8c-.6 0-.8-.8-.4-1.9.5-1.5.1-1.8-2.1-1.3-1.9.3-3.1-.1-4.1-1.3-1.1-1.6-1.3-1.6-1.3-.3 0 .9.6 2.3 1.3 3 .7.7 1.6 2.1 2 3 .3 1 1.4 1.8 2.4 1.8 1.4 0 1.8.8 1.8 3.3 0 3-.2 3.2-2.7 2.9-3-.5-3.4-1.2-1.7-2.9.8-.8.6-1.8-.6-3.6-1.9-3-3.7-3.8-5.6-2.6-1.2.7-1.2.9.1.9s1.3.2.1.9c-1 .7-1.9.4-2.8-.7-1.1-1.6-1.2-1.6-1.3.2 0 1.4-.3 1.6-1.2.8-.7-.6-2.6-1.2-4.3-1.4-1.8-.2-3-.9-3-1.8 0-1.1-.9-1.4-3.3-1.2-1.8.2-3.2-.1-3.2-.7s.7-1.1 1.5-1.1 1.5-.5 1.5-1.1c0-.6-.7-.8-1.6-.5-.9.3-1.8.6-2 .6-.2 0-.4.7-.4 1.5s-.5 1.5-1.1 1.5c-.5 0-.7-.4-.4-1 .3-.6-.1-1-.9-1-1 0-1.3.6-.9 1.6.3.9 1.3 1.4 2.4 1.1 1.1-.3 2.2-.1 2.5.4.3.5-.7 1-2.3 1-2.3.1-2.4.3-.6.6 1.2.2 3.1-.1 4.2-.6 1.5-.8 2.3-.7 3.5.5 2.1 2 2 2.1-.9 2.1-1.4 0-3.5.9-4.5 1.8-2.3 2.1-3.9 1.3-2-1 1-1.3.9-1.5-.9-1.5-1.1 0-2.1.4-2.1 1 0 1.8-2.2 1-2.7-1-.3-1.1-.9-2-1.4-2-.5 0-.6.6-.3 1.4.4 1-.2 1.2-2.1.9-1.4-.3-2.8-.9-3.1-1.4-.8-1.4-3.4-1.1-3.2.3.2.8-.6 1.2-1.7 1.1-1.1-.1-2.2.3-2.6.8-.4.6-1.5.6-3.2 0-2-.8-2.7-.7-2.7.2-.1.6-.8-.1-1.6-1.6-1.3-2.5-1.9-2.7-4.6-2.2-2.1.5-3.3.3-3.9-.6-.4-.7-1.1-1-1.5-.6-.4.3-.1 1.3.6 2.2 1 1.3.9 1.5-.8 1.5-1.5 0-2 .5-1.6 1.5.4.8.1 1.5-.5 1.5-.7 0-1.4-.7-1.7-1.5-.7-1.8-3.6-2.7-5.8-1.9-1.4.5-1.5.9-.4 1.6.9.6.6.8-1.2.7-5.6-.4-7.2 0-6.5 1.8.5 1.4.2 1.3-1.4-.4-1.7-1.8-2.6-2-5.8-1.3-2 .5-3.9.7-4.2.4-.6-.5-.3-.7 3.9-2.7l3.5-1.7h-3.8c-2.3 0-3.6.4-3.2 1 .7 1.2-5.1.7-6.3-.5-.4-.5-.2-.6.3-.3.6.3 1.9.1 3-.3 1.5-.7 1-.8-1.7-.5-2.1.3-3.8.1-3.8-.5 0-.5 2.3-.9 5-.9 3.2 0 5.2-.5 5.6-1.3.2-.7 2.1-1.2 4.4-1.2 2.3 0 4.2-.5 4.4-1.2.3-.7-.1-1.3-.9-1.3-.7 0-2-.6-2.7-1.3-.7-.8-2.2-1.4-3.2-1.4-1.8 0-1.8.1 0 1.4 1.7 1.2.9 1.9-1.9 1.4-.4 0-.7.6-.7 1.4 0 .8-.4 1.5-.9 1.5-.6 0-.8-.9-.6-2 .2-1.1 0-1.8-.5-1.5-.5.3-1.8.1-2.9-.5-1.4-.7-2.2-.7-2.7.2-.5.7-.3.8.7.3 1.1-.7 1.2-.6.2.7-.7.8-.9 1.9-.5 2.4.4.4-.1.2-1-.5-1.4-1-2.1-1.1-3.2-.2-.8.7-1.6.8-1.8.3-.1-.5-2.2-1.2-4.4-1.5-3.2-.5-4.3-.3-4.8.8-.4 1 .1 1.5 1.5 1.5 1.1 0 1.8.4 1.5.9-.3.5.1 1.2 1 1.5 1.2.4 1.5.2 1-.9-.7-1.8-.2-1.9 2.7-.4l2.1 1.2-2.2.8c-3.3 1.2-9.3-1.8-9-4.5.3-2.1 2.1-4.6 3.3-4.6.3 0 .4.4 0 .9-.3.6 1.9.9 5.2.8 3.2-.1 5-.3 4.1-.5-2.7-.5-2.1-2.2.8-2.2 1.4 0 2.2.4 1.9 1-.3.6.1.7.9.4.9-.3 1.6-1 1.6-1.4 0-.5.7-1 1.5-1.2 1.4-.3 1.4-.6-.1-2.6-1.3-1.9-2.2-2.2-4.6-1.7-2.1.5-3.3.2-4.1-.9-1.1-1.4-1.3-1.3-2.4.9-1 2.2-.9 2.5.7 2.5 1.7 0 1.6.3-.6 2.7-2.4 2.6-4.7 2.6-2.5-.1 1.7-2-1.7-3.1-3.9-1.1-.9.8-2.2 1.5-2.9 1.5-.6 0-2.3.7-3.6 1.6-2.3 1.5-2.5 1.5-3.1 0-.3-.9-1.3-1.6-2.1-1.6s-1.2.4-.9.9c.3.5-.1 1.2-1 1.5-2.5 1-3.4.7-2.8-.8.3-.8.1-1.7-.5-2-.5-.4-1.2.3-1.6 1.4-.7 2.1-2.5 2.8-2.5.9 0-.6-.8-.8-1.9-.4-3.6 1.1-8.1 1.4-8.1.4 0-.8 1.1-1 3.5-.9.3.1 1.3-.6 2.1-1.5 1.6-1.6 4.9-2.1 4-.6-.3.4 1.9-.1 4.8-1.3 3.8-1.5 5-2.3 4-2.9-.9-.5-2-.2-3 .7-1.8 1.8-4.9 2.2-3.8.5.5-.8.1-.8-1.4 0-3 1.6-5.1 1.3-2.8-.4 1.8-1.4 1.8-1.4 0-1.4-1.1-.1-3.2-.2-4.9-.2-5.5-.2-6.5.1-7.7 2.6-.6 1.3-1.5 2.2-2 1.9-.5-.3-.4-1.1.2-1.9.8-.9.3-1.2-2.4-.9-2.6.2-3.6-.2-3.9-1.4-.3-1.2-.5-1-.6.5-.1 1.9-.7 2.3-3.1 2.3-1.6 0-3 .5-3 1.1 0 .8-.4.8-1.2.2-.7-.6-2.6-1.3-4.2-1.7-1.7-.4-2.6-1-2-1.4 1.1-.8 1.1-4.6-.1-8-.8-2.5-1.5-2.7-3.4-1-.9.8-1.1.8-.8.2.4-.7 0-1.4-.7-1.7-.8-.3-1.7-.1-1.9.6-.3.9-.7.9-1.8.1-2.1-1.7-9.8-2.4-12.6-1.1-2 .9-2.7.8-3.7-.4-.8-1.2-3-1.6-9.3-1.5-8 .1-10.1.7-6.7 2 .9.4 1.4.9 1.1 1.2-.3.3-1.5 0-2.7-.6-1.5-.8-2-.8-1.6-.1 1 1.5-2.7 1.4-4.3-.2-1.1-1-1.2-.9-.6.2.5.9.2 1.2-1.1.8-4.9-1.4-8.3-1.7-8.8-.9-1 1.6-4.6.1-4.6-1.9 0-1.1-.5-1.9-1.1-1.9-.7 0-.9.9-.6 2.1.7 2.8-3.2 4.3-5.1 2-.7-.9-1.1-1.1-.8-.4.4.6-.4 1.9-1.6 2.7l-2.2 1.5 2.5 1c2.1.9 2 1-1.3.8-3.8-.2-4.9-1.1-2.5-2 .9-.4-6.3-.2-9.5.2-.4.1-.5.9-.2 1.8.5 1.7.5 1.7-.9 0-.9-1.1-2.1-1.5-3.3-1.1-1.3.5-1.6.4-.9-.4.6-.5 1.7-1.2 2.5-1.5.8-.2.3-.3-1.1-.1-1.4.1-3.1-.2-3.6-.7-.7-.7-.9-.1-.7 1.8.2 2.4.1 2.6-1 1.1s-3.9-2.2-7.6-1.9c-1.3.1-1.3.3 0 1.2 1.2.9 1.2 1-.3.5-1-.3-2.7-.6-3.7-.6s-2.5-.7-3.4-1.5c-1.5-1.6-4.1-1.1-6.4 1.2-.8.8-2 1-3 .5-1.4-.6-6.6-.8-11.9-.3-.7.1-1.3.8-1.3 1.6 0 1-1 1.5-2.8 1.5-1.5 0-3.4.6-4.1 1.2-1 1.1-1.2 1-.9 0 .2-.9-1.1-1.5-4-1.7-3.5-.3-4.2-.1-3.8 1.1.3.8.1 1.4-.5 1.4-.5 0-1.2-.6-1.5-1.4-.7-1.7-5.4-.9-5.4 1 0 .8-.7 1.4-1.6 1.4-1.4 0-1.4-.3-.4-1.5 1.6-1.9.1-2-4.4-.1-3.2 1.3-3.3 1.3-2.8-.8.5-1.8.3-1.9-1.1-.8-.9.8-2.5 1.1-3.8.7-1.3-.5-1.9-.3-1.5.3.3.6-.1.8-1.2.5-.9-.2-3.1.3-4.7 1.1-1.7.9-3.7 1.6-4.6 1.6-2.4 0-10.8 3.1-11.5 4.2-.4.6.2.8 1.7.3 1.9-.5 2.1-.4.9.4-2.2 1.5-4 1.3-4-.4 0-1.2-1-1.4-5.1-1-2.8.3-5.6.8-6.2 1.2-.6.3-2.5.7-4.1.8-1.7.1-4 .5-5.1.9-1.9.7-1.9.7-.2-.7 1.2-1 1.5-1.7.7-2.2-.6-.4-1.7-.2-2.4.4-.7.6-1.6.8-2 .4-.7-.7-2.5-1-10.6-1.3-6.6-.3-10.3.7-9.6 2.6.4 1 0 1.1-1.8.4-1.2-.4-5.2-.8-8.8-.7-3.7.1-6.4-.1-6.2-.5.7-1-8.8-.4-10.4.6-.7.4-1.6.5-1.9.2-.4-.3-.1-.6.5-.6.7 0 1.2-.5 1.2-1 0-1.5-4.6-1.2-5.9.3-.6.8-.8 1.7-.4 2 .3.4-.5.7-1.8.6-1.3 0-1.8-.3-1.1-.6 2-.8 1.4-2.3-.9-2.3-1.8 0-1.9-.2-.9-1.5.7-.8 2.1-1.5 3.2-1.5 1.7 0 1.8-.2.4-1.5-1.6-1.7-5.1-2.1-4.1-.5.3.6-.3 1-1.5 1-1.3 0-1.9-.4-1.4-1.2.5-.8-.4-.9-3.2-.5-2.7.4-3.4.3-2.4-.3 1.3-.8 1.2-1-.2-1-1 0-1.8.4-1.8.9 0 .6-1.2.6-2.8.1-1.6-.4-3.6-.4-4.5.2-1.1.6-1.7.5-1.7-.1 0-.5-3.2-.9-7.2-1-8.5 0-15.3-.6-16.8-1.6-.8-.5-.7-1.2.4-2.4.9-1 1.3-2 1-2.3-.3-.4.4-.9 1.6-1.3 1.2-.4 2.4-.4 2.7-.1.4.3 0 .6-.9.6-.8 0-1.5.7-1.5 1.5 0 .9.6 1.4 1.2 1.1.7-.2 1.8.1 2.4.7.9.9 1.1.8.5-.7-.6-1.7-.4-1.8 1.9-1.2 1.9.4 2.7.2 2.7-.6-.1-1.6-5-5.3-5-3.8 0 .7-.7.5-1.6-.4-2.1-2.2-4-2.1-2.3.1 1 1.2 1 1.5.1.9-.7-.4-1.9-.1-2.7.8-1.2 1.1-2.2 1.3-3.9.6-1.4-.5-5.3-.5-9.7.2-8.8 1.2-7.4 1.1-13.1.9-3.6-.1-4.6-.4-4.2-1.5.6-1.5-2.6-3.2-3.5-1.7-.3.5-2.7 1-5.3 1.2-4.1.4-4.5.2-3.7-1.3 1.3-2.4 3.4-3.6 2.6-1.5-.3 1-.2 1.7.3 1.7s1.2-1.1 1.6-2.5c.3-1.4 1.3-2.4 2.3-2.3.9.1 3.4 0 5.6-.1 2.8-.1 3.6-.4 2.6-1-1.1-.7-.4-1.1 2.5-1.7 3.2-.6 3.5-.8 1.9-1.5-1.1-.4-2.7-.8-3.5-.8-1.2-.1-1.2.1-.2.8 1 .6.7 1-1.3 1.5-1.5.4-3.3.2-4-.4-.7-.6-2.1-.7-3-.3-1.3.4-1.6.3-1.1-.6.5-.8 1.9-1 3.7-.6 2 .5 2.9.3 2.9-.6 0-.8-1.4-1-4.9-.6-3.4.4-5.4.1-7-.9-1.2-.9-2.1-1.1-2.1-.5 0 1.9-2.8 1.2-3.3-.9-.3-1.1-1.3-2-2.2-2-.9 0-1.3.4-1 1 .3.5-.4 1-1.7 1.1-2.3.1-2.3.1.2.9 2.1.7 2.2.8.4.9-1.1.1-2.4-.3-3-.8-.5-.4-2.5-1.1-4.4-1.5-3.1-.6-3.2-.5-1.6.7 1.7 1.2 1.7 1.4.2 2-.9.4-2.7.2-4.1-.3-1.4-.5-3.2-.7-4.2-.3-1.1.4-1.4.3-.9-.6.5-.8 1.9-1 3.7-.6 1.8.4 2.9.3 2.9-.4 0-.6-1.8-1.1-3.9-1.1-2.2 0-4.3-.5-4.6-1-.3-.6-1-1-1.6-1-1.5 0-1 2.2.8 3.6 1 .7 1.6 1.5 1.3 1.8-.4.3-1.8-.6-3.3-2-1.5-1.4-2.7-2-2.7-1.4 0 .5-.4 1-1 1-.5 0-1-.7-1-1.5 0-.9-.6-1.2-1.5-.9-1 .4-1.5 0-1.5-1.1 0-1.4-.3-1.5-1.5-.5-1 .8-1.9.9-2.7.3-.7-.6-3-1.3-5.1-1.6-3.5-.5-3.7-.4-3.1 1.5.3 1.1.2 1.8-.3 1.5-.4-.3-3.7-.8-7.2-1.2-4.7-.5-6.1-.3-5.6.6.5.7.3 1-.6.7-.8-.3-1.3-1.1-1.1-1.7.3-1.6-2.5-4.4-3.3-3.2-.3.6.3 1.4 1.2 2 1.4.8 1.5 1 .3 1.1-1.2 0-1.2.2-.2.9 1.1.7 1.1.9-.2 1.4-.9.4-1.7.2-1.7-.3-.1-.6-.2-1.4-.3-1.9 0-.5-.5-1.3-1-1.8-.5-.4-.7-.4-.3.2.7 1.4-1.9 4.9-2.7 3.6-.4-.6-1.9-.8-3.4-.5-1.6.3-3.5-.1-4.7-1-2-1.5-2-1.5.3-1.6 3.3 0 2.6-1.5-.8-1.6-1.7-.1-2.8.1-2.5.4.5.6-4.4 4.2-5.7 4.2-.5 0-.8-.6-.8-1.4 0-1-1.8-1.3-7-1.3-3.8 0-7.5-.5-8.2-1-.7-.6-2.2-1.3-3.3-1.6-1.5-.3-1.3-.5.8-.6 1.6 0 3.8.4 4.9 1 1.5.8 1.9.8 1.4 0-.4-.6-.2-1.1.4-1.1.6 0 .9-.4.6-.9-.3-.5-2.3-.7-4.3-.5-2.9.3-3.3.2-1.8-.5l2-1-2-.1-2-.1 2-.8c2.2-.9 7.6.6 8.7 2.3.5.7.8.4.8-.7 0-.9-.8-1.7-1.7-1.8-1.5 0-1.5-.2.2-.9 1.6-.7 1.3-.9-1.7-.9-2.1-.1-3.8-.6-3.8-1.2 0-.8-.4-.8-1.2-.2-2 1.5-5 2.4-4.3 1.3.3-.6 0-1-.7-1.1-.7 0-3.4-.4-6-.8-2.7-.4-4.8-.4-4.8.1 0 1.1-3.4 1-4.6-.2-1.2-1.2-9.4-.2-9.4 1.2 0 .4 1.1 1.3 2.5 1.8s2.5 1.2 2.5 1.5c0 .8-5.4-1.6-6.2-2.8-1.2-1.8-1-2.3 1.4-3.4 1.9-.8 1.9-1 .5-1.6-1.1-.4-2 0-2.6 1.2-.7 1.3-1.8 1.6-4 1.3-3.6-.5-4.2-2.2-.8-2.3 2.1-.1 2.1-.1-.3-.8-3.1-.9-8.2-.2-7.4 1 .3.5-.3.9-1.3.9-1.1 0-2.4.5-3.1 1.2-.7.7-1.2.9-1.2.5 0-.3 1-1.5 2.2-2.7 2.3-2.1 1.8-4.1-.6-2.1-1.1.9-3 1-7.3.3-3.2-.6-9.1-1-13.1-1s-7.6-.3-8-.7c-.4-.5.1-.5 1-.2 1 .3 1.9.3 2.2-.1.2-.4-.6-.9-2-1-1.3-.1-2.4.3-2.4.8 0 .6-.5 1-1.1 1-.6 0-.9-.7-.6-1.4.4-1 .1-1.3-.9-.9-.7.3-1.4 1.1-1.4 1.9 0 1.7-.2 1.7-3.4.3-1.4-.7-2.3-1.6-1.9-2.1.3-.6-.4-.5-1.4.1-1.1.6-2.2.9-2.4.7-.9-.9-13.4-1.4-14.9-.6-1.2.6-1.7.5-1.7-.6 0-1.3 2.2-1.9 5.4-1.5.6.1 1.4-.3 1.8-.9.4-.6-.3-.8-1.7-.6-1.3.3-3.5.5-5 .5-1.7.1-2.7.6-2.5 1.3.1.7-.8 1.4-2.1 1.6-1.7.3-2.2.8-1.7 2 .5 1.4.4 1.5-.6.4-1.5-1.4-3.3-1.6-2.4-.2.3.6-.4 1-1.6 1-2.1 0-2.1-.1-.5-1.9 1.5-1.7 1.5-1.9.1-2.5-.9-.3-1.8.1-2.1.9-.7 1.7-3.4 2.1-3.4.5 0-1.2-3.7-1.3-4.2-.1-.1.4-1.4 1.2-2.7 1.6-1.6.5-2.1.4-1.7-.4.5-.7-.2-1.1-1.6-1.1-2.3-.1-2.3-.1-.3-1.7 1.8-1.4 1.8-1.5.1-.9-1.3.4-1.7.2-1.3-.8.4-1 0-1.2-1.5-.8-1.4.3-1.6.7-.7 1.2.8.6.6 1.1-.9 1.9-1.8 1-2.1.9-1.6-.4.4-.9 0-1.5-.9-1.5-.8 0-1.7.5-1.9 1.2-.3.7-1.1.9-2.4.3-2.5-1-7.7-.6-8.5.7-.4.7-1.5.8-2.5.3-1.1-.4-3.1-.7-4.6-.6-2.1.2-2.8-.2-2.8-1.4 0-1.6-.2-1.6-2.2-.3-2.8 1.8-7 2.9-6.2 1.7.3-.5-1-.9-2.8-.9-2.2 0-2.9-.3-1.9-.9.8-.5.9-1.1.3-1.5-.6-.4-1.5.2-2.1 1.1-.9 1.5-1.2 1.6-2 .4-.8-1.2-1.2-1.2-2.6.3-1.1 1-2.4 1.4-3.4 1-3.4-1.4-8.2-1.2-11.5.6-2 1-3.3 1.3-2.9.7.4-.6.1-.7-.7-.2-1.9 1.2-9 2.4-8.4 1.4.2-.4-1.2-.6-3.3-.4-2.1.1-5.1.4-6.8.5l-3 .2 2.8.8c1.6.5 3.5.6 4.3.3.8-.3 1.4-.1 1.4.5 0 1.6-2.7 2.2-5.9 1.2-2.2-.6-3-.5-2.8.3.1.7-.6 1.1-1.5 1.1-1-.1-1.8.5-1.8 1.3 0 .9-.6 1.2-1.9.8-1.9-.6-3.7 1.8-2.6 3.5.3.4-.3 1-1.3 1.2-1.5.4-1.8 0-1.5-2.1.4-2.1.2-2.3-.7-1.1-1 1.3-1.1 1.2-.6-.3.3-1 .6-2.1.6-2.4 0-.3.7 0 1.5.7 1.1.9 1.5.9 1.5.1 0-2-3.2-2.5-4.5-.8-.7.9-1.5 1.4-1.9 1-.4-.4-.9.3-1.3 1.5-.6 2.4-2.4 2.8-5.5 1.1-1.1-.6-2.3-.7-2.7-.3-1 1.4-3.4 1.6-4.1.3-.5-.8-1-.5-1.5 1-.8 2.5-2.5 2.8-2.5.5 0-1.4-.3-1.4-1.5-.4-.9.7-1.3 2-1 2.8.4 1.1.2 1.2-.7.5-2.2-1.7-9.7-3.2-10.1-2-.1.5-1 .2-1.9-.7-2.2-2.2-3.1-2-2.3.4.5 1.6.2 2-1.7 2-1.7 0-2-.2-.9-.9 1-.6.2-.9-2.5-.8-2.1.1-4.8-.3-5.9-.8-1.9-.8-1.9-.8-.2.9 2.4 2.5 2.1 2.7-1.3 1-2.7-1.4-3.2-1.4-5.2 0-2.5 1.8-6.4 2.1-7.2.7-.4-.5 0-1.1.6-1.4.7-.2 1-.8.6-1.2-1-1.1-4.8.5-4.8 2.1 0 1.2-.5 1.2-3.1-.2-1.8-.9-4.3-1.4-5.9-1.1-3.3.7-7.2-.2-6.4-1.4.9-1.5-1.3-1-2.5.5-1.8 2.1-7.2 3.1-8.1 1.5-.6-.9-1.2-1-2.2-.1-1.1.9-3.5 1-5.8.2-.3-.1.6-.6 2-1l2.5-.8-2.7-.1c-1.5-.1-3 .4-3.3.9-.7 1.2-7.4 1-8.1-.1-.2-.4-1.7-.4-3.3.1-1.6.4-3.2.5-3.6.2-1-1.1-8.5-.8-8.5.3 0 .5-.5.3-1-.5-.9-1.4-10.4-2.4-12.4-1.2-.8.5-5.4.6-10.8.2-2.1-.1-2.2-.2-.4-.9 1.9-.7 1.8-.8-.4-1.4-1.3-.3-3.1-.2-4.1.4-1 .5-2.4.9-3.1.8-.7 0-.4-.4.7-.9 1.7-.7 1.7-.9.3-.9-1-.1-1.8-.7-1.8-1.5s-1-1.4-2.5-1.4c-1.3 0-2.2.4-1.9.9.3.5-.2.9-1 .9-.9 0-1.6.4-1.6 1 0 .5.8.6 1.7.3 1.5-.6 1.5-.5.3.8-.8.9-2.5 1.3-4.3 1.1l-3-.5 2.4-1.3c1.3-.7 2-1.4 1.4-1.5-3.5-.6-5.4-.5-5 .1.3.4-.3 1.4-1.2 2.1-1.4 1.2-1.5 1.1-.9-.9.5-1.3.3-2.2-.3-2.2s-1.1.6-1.1 1.4c0 .9-1 1.3-2.5 1.2-2.7-.1-3.6-1.6-1-1.6 1.8 0 5.7-2 6.7-3.5.5-.6.8-.5.8.2s.5 1.3 1.2 1.3c.8 0 .8-.5-.3-1.5-1.1-1.1-2.2-1.3-4.4-.6-2.1.6-3.4.4-4.2-.4-1.5-1.6-.6-2.5 2.6-2.5 2.5-.1 2.5-.1.6-1.6-2.3-1.7-5.1-1.4-4.7.5.1.7-.3 1.1-1 .9-.7-.3-1.3-1.3-1.3-2.4 0-1-.8-2-1.7-2.2-1.1-.2-1.8.3-1.8 1.2 0 .9-.5 1.6-1.1 1.6-.5 0-.7.6-.3 1.2.6 1 .4 1-.7 0-1.6-1.4-3.3-1.6-2.4-.2.3.5-.1 1-.9 1-.9 0-1.6-.7-1.6-1.6 0-.8-.5-1.2-1.1-.9-.6.4-.8 1.3-.5 2.1.5 1.4-1.8.9-4.1-.8-.7-.6-1.7-.7-2.3-.3-1.5.9-1.2-.7.6-3.3 1.2-1.8 1.3-2.6.4-3.7-1-1.2-.9-1.5.9-1.5 2.1 0 2.1-.1.6-1.6-1.1-1.2-2.5-1.4-5-1-4.3.8-12.5-1.1-10.4-2.5 1.1-.7.9-.9-.8-.9-1.3 0-2.3.4-2.3 1 0 .5-.7 1-1.6 1-1.3 0-1.4-.3-.5-1.3 1.5-1.9.6-2.5-2.9-2.1-3.4.4-3.8-.3-1.3-2.1 1.3-1 1.1-1.1-1.5-.7-2.1.3-3.2 0-3.2-.8 0-.7-.7-1-1.5-.7-.8.4-1.7.1-2.1-.5-.4-.6-.3-.8.4-.4.6.3 1.4.1 1.8-.5.4-.8-1-1-5-.7-4.7.2-5.7 0-6.2-1.5-.4-1.3-.9-1.5-1.8-.8s-1.8.6-3.2-.3c-1-.7-3.6-1.9-5.6-2.5-2.1-.7-3.8-1.7-3.8-2.3 0-.6-1-.8-2.5-.4-1.8.5-2.3.3-1.9-.8.4-1-.3-1.3-2.8-1.2-1.8.2-3.7 0-4.3-.3-.5-.3-2.6-.6-4.5-.7-7.4-.2-8.6-.4-7.1-1.3 1-.7.8-1.1-1-1.6-1.3-.4-3.5-1.6-4.8-2.6-2.6-2.1-5.6-2.6-4.5-.8.4.7.1 1-.7.7-.8-.3-1.4-.9-1.4-1.4 0-.5-.6-1.8-1.2-2.9-1.1-1.7-1.2-1.7-1.3-.3 0 1.5-.4 1.5-3.1.6-1.9-.7-2.7-1.3-1.9-1.8 1-.6.3-1.1-4-2.4-.3-.1-1.2-.6-2-1.1-4-2.6-10.4-5.4-11.1-4.9-.5.3-.9-.2-.9-1.1 0-1.1-.5-1.5-1.5-1.1-.8.3-2.7-.6-4.1-1.9-1.5-1.4-3.8-2.5-5-2.5-1.3 0-2.4-.4-2.4-.9 0-.6-.8-1-1.7-1.1-1 0-4.6-.1-8-.3-3.4-.1-6.1-.4-6-.7.2-.8-3.6-5-4.6-5-.4 0-.6.4-.3.9.7 1.1-2.2 2.3-3.6 1.5-.5-.3-.8-1.4-.5-2.4.5-1.9-.7-2-4.5-.5-1.1.4-2.3-.1-3.5-1.4-.9-1.2-2.2-2.1-2.8-2.1-.5 0-.3.5.5 1.1 1.2.9 1.1 1-.5.4-1.1-.4-3.1-.9-4.4-1.1-1.4-.3-3.3-1.4-4.3-2.6-1-1.2-1.8-1.6-1.8-.8 0 .9-.9 1.1-3 .6-1.7-.3-3-.1-3 .4 0 .6-.4 1-1 1-.5 0-1-.7-1-1.5 0-1.7-.2-1.7-4.9-.3z"/></svg>