<svg xmlns="http://www.w3.org/2000/svg" xmlns:dc="http://dublincore.org/documents/dcmi-terms/" height="2834.65" version="1.2" viewBox="0 0 15590.55 2834.65" width="15590.55"><metadata><dc:description>Silhouette of Mecoptera, processed by PhyloPic Tools (https://github.com/eweitz/phylopic-tools)</dc:description><dc:source>http://phylopic.org/image/59a2b832-5c76-45c8-9c4a-8b754f4481cc</dc:source><dc:creator>T. Michael Keesey (after Tillyard)</dc:creator><dc:license>http://creativecommons.org/publicdomain/zero/1.0/</dc:license></metadata><path d="M8260 1281v396h-353c2.15-17.46-9.47-29.66-16-43-8.36-17.08-14.15-35.63-24-51 .57-25.74 2.62-61.77 1-84-11.18-20.15-24.98-37.68-36-58 9.18 12.82 25.57 18.43 43 23 12.54 32.07 37.53 58.52 40 92 4.38-4.05 2.28-12.46 1-18-5.66-24.55-28.3-47.43-35-72 35.96 11.2 76.82 20.01 120 30 41.95 9.7 86.09 22.14 132 16 10.64-1.42 24.01-6.75 36-11 18.01-6.38 34.42-12.27 46-21 19.06-32.01-13.38-48.58-35-60-29.06-15.35-71.86-19.58-119-16-61.22 4.65-134.76 15.15-193 8 43.9-3.43 87.92-8.87 135-14 47.27-5.15 98.92-7.3 139-19 25.92-7.56 50.42-18.85 72-36 18.32-14.56 42.28-34.05 45-62h1z" fill="#fff"/><path d="M8260 1279v2h-1c-2.72 27.95-26.68 47.44-45 62-21.58 17.15-46.08 28.44-72 36-40.08 11.7-91.73 13.85-139 19-47.08 5.13-91.1 10.57-135 14 58.24 7.15 131.78-3.35 193-8 47.14-3.58 89.94.65 119 16 21.62 11.42 54.06 27.99 35 60-11.58 8.73-27.99 14.62-46 21-11.99 4.25-25.36 9.58-36 11-45.91 6.14-90.05-6.3-132-16-43.18-9.99-84.04-18.8-120-30 6.7 24.57 29.34 47.45 35 72 1.28 5.54 3.38 13.95-1 18-2.47-33.48-27.46-59.93-40-92-17.43-4.57-33.82-10.18-43-23 11.02 20.32 24.82 37.85 36 58 1.62 22.23-.43 58.26-1 84 9.85 15.37 15.64 33.92 24 51 6.53 13.34 18.15 25.54 16 43h-2c-.44-.89-.88-1.79-2-2-.41-22.59-11.39-34.61-20-49-2.49-9.18-6.29-17.04-11-24-3.44-7.9-5.5-17.17-12-22 4.67-12.11 2.01-28.98 2-47 0-9.41 1.62-20.01 0-28-1.99-9.82-13.66-22.38-20-32-7.29-11.05-14.33-22.49-23-28-2.2 19.85.23 46.1-1 73-.48 10.55-4.1 21.48-4 32 .05 5.53.38 10.78 0 17-1.05 16.97 14.58 27.59 11 45-.89 4.33-13 28.52-17 32-17.96 15.63-25.82-20.57-32-31 2.63-11.04 1.52-25.81 10-31 5.3-47.24 5.21-89.25 2-137-3.34 0-3.41 3.25-7 3-11.91 18.76-24.62 36.71-37 55 1.62 26.1-3.16 57.25 2 75-7.66 10.77-12.33 23.58-18 36-5.01 10.97-9.51 17.78-15 29-4.94 10.1-9.76 18.84-12 33-5.78-4.08 1.11-12.25 1-20 13.94-22.72 23.73-49.6 37-73 .68-20.34-2.55-45.03-2-66 .13-5.02.01-12.61 1-17 2.27-10.1 11.19-19.27 17-28 6.33-9.51 11.51-18.7 17-27-9.77 9.56-24.21 14.45-39 19-14.53 24.13-28.39 48.95-40 76-.57 2.66 2.54 15.23-3 16-3.51-12.54 2.21-25.52 9-38 9.18-16.89 17.81-33.8 26-51-47.06 12.08-91.54 24.25-145 35-33.92 6.82-63.78 14.79-105 11-4.22-.39-11.49-4.49-17-6-7.98-2.19-18.15-4.17-28-8-19.22-7.48-44.19-12.52-45-36-.7-20.48 17.15-28.78 32-37 15-8.3 30-16.59 50-20 12.65-2.16 25.61-.57 40-1 80.2-2.41 147.38 15.25 231 8-4.12-6.4-10.26-1.83-16-2-38.97-1.14-75.58-8.31-117-12-25.84-2.3-52.87-5.66-80-8-6.56-.57-14.33-2.51-22-4-6.57-1.27-13.87-4.6-20-5-30.73-1.99-71.22-21.07-94-40-11.81-9.81-34.04-31.16-39-44-6.43-16.64.21-31.04 9-43 26.98-20.85 78.55-6.09 109 3 47.59 14.21 92.5 32.82 138 49 54.59 19.42 104.2 40.58 155 63 6.77 2.99 13.57 7.79 21 8 1.2-10.72-18.07-19.62-26-28 4.61-33.07 14.71-65.14-7-86 1.02-7.95-6.86-12.25-8-21-2.54-1.45-11.58-11.77-4-15 13.02 22.32 21.56 49.11 35 71-7.13 17.92-17.5 55.3 11 59-8.69-8.37-14.83-37.15 7-39-4.29-31.19-12.08-62.56-28-86-15.28-22.51-33.94-44.03-65-51 15.76-1.24 28.28 10.13 39 19 16.62 13.75 29.15 29.45 37 47 7.33 16.4 12.6 37.76 19 58 4.63-.2 6.32 3.87 11 6 15.41-10.86 18.73-31.81 27-49 3.74-7.78 8.81-16.39 14-24 15.7-23.03 41.18-49.19 78-52-41.86 7.08-69.22 37.56-88 72-9.48 17.37-16.68 37.75-20 58 4.9 5.87 11.8 3.51 16 9 7.88 10.3-2.08 22.2-7 32 6.13-.21 14.86-6.46 19-12 .14-18.47-2.26-34.4-8-47 14.82-21.5 22.76-52.29 36-70 5.5 2.04-1.6 14.05-5 13 1.94 6.92-3.95 8.71-6 13-1.02 2.13-.93 5.48-2 8-4.28 10.14-13.77 21.64-15 32-.75 6.31 3.15 13.28 4 21 .65 5.91.91 13.52 2 20 .73 4.34 3.13 8.1 2 13-2.47 10.76-25.1 14.71-27 28 7.61 1.21 15.35-3.99 22-7 74.23-33.58 159.21-65.77 239-94 30.97-10.96 61.91-22.62 92-30 21.18-5.2 60.51-3.14 73 10 5.54 5.83 5.25 15.89 11 23zm-416 128c-2.42 8.88 13.35 8.69 17 5-5.79-1.08-10.82-7.58-17-5zm-81 2c-1.17-.17-1.09-1.58-1-3-7.66.01-10.19 5.15-17 6 3.08 6.25 17.58 2.85 18-3z"/><path d="M7861 1412c-3.65 3.69-19.42 3.88-17-5 6.18-2.58 11.21 3.92 17 5zM7762 1406c-.09 1.42-.17 2.83 1 3-.42 5.85-14.92 9.25-18 3 6.81-.85 9.34-5.99 17-6z" fill="#fff"/></svg>