<svg xmlns="http://www.w3.org/2000/svg" xmlns:dc="http://dublincore.org/documents/dcmi-terms/" height="320.046" width="494.914"><metadata><dc:description>Silhouette of Megacerops coloradensis, processed by PhyloPic Tools (https://github.com/eweitz/phylopic-tools)</dc:description><dc:source>http://phylopic.org/image/77a63718-b3f1-415b-93f8-1240ec7b2136</dc:source><dc:creator>Zimices</dc:creator><dc:license>http://creativecommons.org/licenses/by-nc/3.0/</dc:license></metadata><path d="M263.966 318.666c-2.706-.742-5.17-.89-6.184-.37-.926.476-4.428.865-7.781.865-4.9 0-6.22-.343-6.726-1.75-.346-.962-1.457-2.555-2.469-3.539-2.301-2.238-2.382-7.432-.245-15.772 1.07-4.177 1.466-9.054 1.205-14.831-.374-8.271-.607-9-5.96-18.648-3.065-5.523-5.9-11.148-6.302-12.5-1.018-3.431-7.386-20.011-8.67-22.574-.583-1.163-2.16-3.3-3.504-4.75-2.421-2.611-2.58-2.636-16.741-2.636-16.02 0-24.873-1.137-54.98-7.06-5.423-1.067-10.427-1.94-11.122-1.94-.77 0-1.531 2.05-1.95 5.25-.378 2.888-2.01 10.511-3.629 16.942-5.325 21.162-3.58 33.405 5.414 37.986 6.166 3.14 10.644 6.837 10.644 8.787 0 2.234-2.62 7.475-4.528 9.058-1.07.89-3.72 1.04-9.483.536-7.183-.626-8.265-.486-10.628 1.372-3.378 2.657-8.49 2.69-10.86.069-.996-1.1-2.854-2-4.13-2-1.596 0-2.833-.994-3.969-3.19-1.386-2.68-1.538-5.001-.954-14.499.663-10.752-.426-21.008-2.528-23.811-3.447-4.598-9.733-33.63-10.334-47.724-.11-2.599-.534-5.058-.942-5.465-.788-.79-10.956 9.405-13.903 13.94-.968 1.49-2.993 3.352-4.5 4.14-1.507.787-3.684 3.384-4.838 5.77-11.774 24.357-14.217 28.793-18.215 33.068l-4.422 4.729.396 9.859c.452 11.24 1.556 13.717 7.902 17.723 6.512 4.111 7.801 10.354 2.33 11.28-1.042.177-2.868 1.487-4.06 2.912-1.876 2.243-2.882 2.57-7.5 2.433-2.933-.088-6.974-.883-8.979-1.767-3.487-1.538-3.736-1.516-5.75.497-2.997 2.998-8.545 2.828-11.4-.347-8.607-9.575-9.527-12.08-7.23-19.67.934-3.089 2.024-12.19 2.559-21.378 1.03-17.7 3.33-28.85 7.368-35.742 2.221-3.79 2.598-5.614 2.598-12.56 0-4.47.648-10.056 1.439-12.413 1.817-5.414 2.284-23.495 1.125-43.61-.856-14.873-.944-15.308-2.973-14.742-1.15.32-4.566.852-7.59 1.181-4.69.51-5.906.278-8.25-1.58-4.527-3.587-3.274-7.377 2.845-8.605 5.363-1.077 7.702-4.167 11.49-15.177 1.026-2.982 4.402-8.792 7.501-12.91 3.1-4.12 6.748-9.478 8.106-11.908 4.95-8.857 19.724-18.371 26.059-16.782 1.58.397 3.329-.068 5.079-1.348 5.272-3.859 14.32-7.65 33.13-13.878 4.102-1.36 8.602-3.222 10-4.14 1.626-1.068 5.957-1.942 12.04-2.429 11.056-.885 15.22-1.567 35.5-5.809 30.549-6.39 35.666-8.247 47.417-17.21 10.628-8.107 15.43-9.961 38.582-14.9 21.588-4.605 35.82-3.84 71.5 3.84 4.125.888 12 1.925 17.5 2.304 5.5.379 14.529 1.271 20.063 1.982 11.291 1.452 13.437 1.067 13.437-2.41 0-1.326.675-4.025 1.5-6 .825-1.974 1.5-4.984 1.5-6.688 0-6.06 3.73-9.207 5.965-5.032.57 1.064 1.035 3.104 1.035 4.534 0 4.109 4.48 11.974 7.64 13.414 2.047.933 2.91.971 3.186.142.536-1.608 4.346-5.023 5.613-5.03.584-.003 1.828-1.354 2.765-3 2.024-3.558 4.108-3.815 6.24-.771 1.141 1.629 1.56 4.765 1.572 11.75.008 5.24.346 10.01.75 10.599.404.59 4.165 2.952 8.358 5.25l7.623 4.178h30.074l5.138-4.061c2.826-2.234 5.566-5.188 6.09-6.565.523-1.377.951-7.92.951-14.54V6.962l3.4-3.4c6.114-6.114 13.764-4.22 18.743 4.64 1.756 3.124 2.81 3.96 4.995 3.96 4.156 0 7.837 2.048 8.511 4.736.33 1.317.398 5.905.15 10.196-.5 8.637-3.109 14.472-9.442 21.126-2.979 3.129-3.277 3.912-2.48 6.5.5 1.618 1.454 5.642 2.123 8.942.668 3.3 1.612 7.125 2.099 8.5.486 1.375 1 6.26 1.143 10.854l.258 8.354-3.5 2.956c-2.817 2.379-4.085 2.83-6.5 2.313-1.65-.354-5.642-.874-8.873-1.155l-5.873-.512 1.623 2.318c1.078 1.538 1.623 4.42 1.623 8.574v6.258l-5.25 3.01c-2.887 1.656-6.026 3.015-6.975 3.02-.95.006-3.2.908-5 2.006-2.978 1.816-5.083 2-23.275 2.032-19.475.034-20.104.099-24 2.498-3.718 2.29-4.927 2.464-17.173 2.469-7.246.003-15.447-.52-18.225-1.16-3.805-.88-5.982-.885-8.826-.024-3.369 1.019-4.234 2.033-8.033 9.416-6.862 13.336-10.44 17.535-17.785 20.865-3.508 1.59-6.88 3.83-7.493 4.975-.614 1.146-1.48 5.537-1.927 9.758-.933 8.823-2.225 12.65-5.46 16.175-1.262 1.375-4.55 5.45-7.307 9.055l-5.012 6.554-.512 14.946c-.471 13.777-.794 15.794-4.129 25.809-3.804 11.425-4.429 18.41-2.719 30.425.644 4.523 1.466 6.013 5.677 10.296 2.709 2.754 6.829 6.126 9.156 7.493 4.635 2.722 6.268 4.998 6.268 8.734 0 4.226-2.099 5-11.451 4.22-9.952-.828-11.315-.351-9.018 3.155 2.256 3.443 1.224 6.936-2.245 7.599-1.505.288-5.148.274-8.096-.03-4.868-.503-5.583-.31-7.815 2.095-2.035 2.196-3.262 2.627-7.165 2.518-2.59-.071-6.735-.686-9.21-1.364z"/></svg>