<svg xmlns="http://www.w3.org/2000/svg" xmlns:dc="http://dublincore.org/documents/dcmi-terms/" height="414.924" width="841.469"><metadata><dc:description>Silhouette of Megadolodinae, processed by PhyloPic Tools (https://github.com/eweitz/phylopic-tools)</dc:description><dc:source>http://phylopic.org/image/ca95e113-9ade-4b56-86c8-ef3887d728ed</dc:source><dc:creator>Zimices</dc:creator><dc:license>http://creativecommons.org/licenses/by-nc/3.0/</dc:license></metadata><path d="M618.869 413.869c-3.995-1.332-4.164-1.549-3.533-4.546.364-1.731 1.824-4.385 3.244-5.898 1.42-1.512 2.188-2.75 1.706-2.75-2.321 0 3.784-4.01 6.21-4.079 1.535-.043 2.23-.306 1.542-.583-2.08-.839-1.416-2.085 1.686-3.166 3.75-1.307 9.692-9.443 10.475-14.344.447-2.792.986-3.613 2.095-3.187.822.315 1.494.112 1.494-.45 0-.564-.487-1.186-1.081-1.384-1.446-.483 2.01-9.52 5.33-13.939 6.891-9.172 12.587-25.591 14.349-41.368.246-2.2.511-4.562.59-5.25.08-.687.524-1.25.987-1.25.463 0 .275-.914-.417-2.03-.818-1.32-.909-2.283-.258-2.75 1.128-.812 1.63-4.22.622-4.22-.36 0-.76-3.404-.888-7.565-.263-8.527-.975-10.423-4.657-12.393-1.417-.76-2.577-1.944-2.577-2.634s-1.038-2.526-2.305-4.081c-1.268-1.555-2.908-4.716-3.643-7.025-.736-2.309-1.949-4.432-2.695-4.718-.747-.287-1.372-1.098-1.39-1.803-.08-3.07-7.746-8.78-11.788-8.78-1.107 0-2.201-.338-2.432-.75-.23-.413-.285-.195-.12.485.172.711-.64 1.21-1.914 1.174-1.217-.034-6.488 1.051-11.713 2.412-5.887 1.533-9.733 2.1-10.111 1.492-.34-.547-.88-.28-1.219.602-.678 1.769-3.67 2.187-3.67.513 0-.59-.7-.371-1.557.485-.856.856-2.537 1.407-3.735 1.224-1.199-.183-4.323.233-6.944.924-3.558.939-4.768.963-4.78.098-.01-.854-.215-.846-.772.03-.83 1.306-40.916 6.042-55.212 6.524-4.675.157-8.725.557-9 .889-1.028 1.24-13 1.747-13.016.552-.01-.652-.452-.502-1.019.345-.867 1.296-1.223 1.228-2.619-.5-1.315-1.628-1.503-1.675-1.012-.25.697 2.022-1.865 2.501-2.672.5-.404-1-.52-1-.583 0-.043.688-.754 1.25-1.58 1.25-.824 0-1.506-.562-1.515-1.25-.012-.99-.178-.993-.801-.012-.963 1.515-12.176 1.33-12.199-.202-.01-.662-.28-.64-.75.06-.422.63-4.346 1.158-9.234 1.242-19.966.34-37.177.17-38.061-.375-2.327-1.438-9.241-.616-12.005 1.427-2.039 1.508-2.71 1.688-2.3.62.319-.83.081-1.51-.527-1.51-.61 0-1.114 1.463-1.123 3.25-.012 2.466-.249 2.888-.984 1.75-.533-.825-1.008-2.625-1.055-4-.073-2.136-.193-2.226-.825-.618-.872 2.222 1 9.042 2.026 7.382.38-.617.673 1.321.65 4.307-.025 2.986.7 7.206 1.611 9.377.91 2.171 2.292 8.696 3.069 14.5.777 5.804 2.108 12.802 2.957 15.552.85 2.75 1.55 7.392 1.556 10.316.01 2.923.525 6.276 1.153 7.45.628 1.173 1.325 7.06 1.55 13.081.266 7.118.94 11.977 1.928 13.887.856 1.654 1.325 4.383 1.074 6.246-.71 5.267-1.601 5.94-4.066 3.07-2.612-3.039-4.628-3.299-4.628-.597 0 3.115-2.112 6.9-3.878 6.95-.892.025-8.372.515-16.622 1.089-12.864.894-41.28.563-42.335-.494-1.116-1.115 1.856-5.583 7.352-11.052 3.458-3.441 6.587-7.2 6.953-8.352.365-1.151 1.07-2.094 1.564-2.094s2.541-1.522 4.549-3.383c2.007-1.861 4.497-4.111 5.533-5 2.328-1.998 2.478-7.323.294-10.44-.874-1.249-1.329-2.947-1.011-3.775.358-.934.161-1.249-.518-.829-.73.451-.873-.024-.43-1.42.76-2.392-1.914-8.55-6.344-14.616-1.944-2.663-3.049-5.573-3.365-8.869-.392-4.075-1.096-5.477-4.163-8.286-3.979-3.646-7.002-4.328-7.973-1.799-.334.871-1.167 1.397-1.85 1.17-3.471-1.158-10.335 12.925-11.437 23.462-.45 4.307-1.329 6.831-3.12 8.96-2.862 3.401-4.094 8.63-4.156 17.64-.024 3.474-.544 7.252-1.155 8.394-.627 1.172-1.252 8.666-1.433 17.184-.244 11.47-.713 15.883-1.948 18.33-.895 1.774-1.695 4.117-1.777 5.208-.082 1.09-.334 1.799-.559 1.574-.225-.225-1.079.26-1.896 1.077-1.886 1.886-3.979.369-5.93-4.3-1.443-3.45-3.797-3.585-4.846-.279-.829 2.611-4.784 4.91-9.723 5.65-5.235.786-4.04.788-27.776-.047-28.94-1.017-26.448-.648-26.829-3.978-.18-1.58.157-3.357.75-3.95s1.072-1.55 1.063-2.128c-.008-.577-.482-.375-1.053.45-.864 1.248-.988 1.176-.735-.429.167-1.06.529-1.756.804-1.545.958.734 5-3.483 5-5.217 0-1.108.525-1.544 1.439-1.194.791.304 2.254.043 3.25-.579 1.631-1.02 1.596-1.073-.355-.543-1.191.324-2.408.197-2.703-.28-.296-.479.994-.819 2.867-.757 1.872.062 3.246-.044 3.054-.237-.558-.558 7.724-8.764 10.16-10.066 3.117-1.667 8.288-9.517 8.288-12.583 0-1.413.343-2.57.763-2.57s1.207-.846 1.75-1.88c5.998-11.42 7.24-14 7.788-16.183.35-1.393.918-10.611 1.263-20.485.346-9.874.81-18.246 1.032-18.606.221-.36.439-8.395.483-17.857.055-11.675.532-18.695 1.483-21.846 1.57-5.198 1.162-7.6-1.852-10.893-1.527-1.67-3.176-2.25-6.385-2.25-2.379 0-4.325.477-4.325 1.06 0 .582-.458.775-1.017.43-.559-.345-.757-1.047-.44-1.559.483-.782-3.228-1.454-5.793-1.05-.413.066-.757-.443-.766-1.13-.01-.834-.338-.75-.984.25-.862 1.332-.973 1.332-1 0-.025-1.196-.202-1.232-.87-.177-.678 1.07-1.156 1.008-2.485-.321-1.219-1.22-1.666-1.303-1.724-.324-.056.933-.222.97-.565.127-.267-.656-1.132-.946-1.921-.643-.81.311-1.442-.04-1.45-.806-.012-1.047-.237-1.014-.985.143-.762 1.178-.973 1.206-.985.128-.012-1.107-.306-1.132-1.515-.128-1.21 1.004-1.503.979-1.516-.127-.012-1.078-.223-1.051-.984.127-.862 1.333-.973 1.333-1 0-.019-.913-.318-1.096-.766-.466-.404.568-1.297.962-1.984.875l-2.219-.284c-.533-.069-.724-.912-.424-1.875.464-1.495.37-1.477-.649.12-.965 1.513-1.358 1.609-2.06.5-.477-.753-.875-.903-.883-.333-.008.57-1.365 1.14-3.015 1.266-2.251.172-3-.197-3-1.478 0-1.6-.08-1.6-1.25-.02-1.052 1.42-1.848 1.522-5.014.641-2.07-.576-4.207-.773-4.75-.438-.542.336-.986.078-.986-.571 0-.866-.412-.84-1.543.098-1.168.97-1.823 1-2.7.123-.636-.637-2.215-1.158-3.507-1.158-1.292 0-3.565-.595-5.05-1.323-1.83-.897-5.843-1.228-12.45-1.026-6.232.19-9.75-.076-9.75-.736 0-.57-.559-.688-1.248-.262-1.783 1.102-6.752 1.351-6.752.339 0-.469-1.238-.524-2.75-.123-1.513.401-3.763.656-5 .567-1.46-.106-2.262.404-2.282 1.45-.018.888-.653 2.433-1.411 3.434-1.334 1.76-1.415 1.76-2.438 0-.582-1.001-1.072-1.31-1.089-.686-.048 1.79-4.965 2.289-6.587.667-1.258-1.258-1.443-1.242-1.443.128 0 .952-.867 1.571-2.2 1.571-1.711 0-1.934-.267-1-1.2 1.85-1.851 1.433-2.567-1.202-2.063-1.515.29-3.109-.247-4.313-1.452-1.612-1.611-2.112-1.695-3.194-.538-1.082 1.159-1.511 1.09-2.742-.437-1.335-1.656-1.363-1.611-.324.526 1.48 3.043.25 4.238-1.71 1.663-1.507-1.979-1.516-1.978-.893.12.55 1.853.094 2.219-3.647 2.929-2.351.446-4.857.847-5.567.89-.71.044-1.61.575-2 1.181-.39.606-2.116 1.823-3.837 2.705-1.721.881-3.405 2.322-3.743 3.202-.338.88-1.067 1.32-1.621.978-.554-.342-1.007-.084-1.007.572 0 1.593-4.918 6.093-5.956 5.451-.45-.278-1.374.165-2.054.984-.68.819-2.107 1.49-3.172 1.49s-1.661.444-1.325.988c.34.552-.03.742-.84.431-.798-.306-1.748-.076-2.111.512-.363.587-1.486 1.068-2.494 1.068-1.01 0-2.104.704-2.434 1.563-.33.86-1.053 1.284-1.607.941-.554-.342-1.007-.119-1.007.496s-.485.819-1.077.453c-1.29-.798-5.101 3.002-4.113 4.101.38.422.158.462-.491.09-.65-.372-1.49-.177-1.868.434-.377.611-3.67 2.45-7.317 4.086-3.647 1.636-7.403 3.674-8.347 4.529-.944.854-4.32 2.202-7.502 2.995-3.182.793-7.298 1.827-9.147 2.297-1.849.47-4.549 1.987-6 3.371-3.219 3.07-6.12 4.21-15.817 6.213-6.795 1.403-7.718 1.401-9.894-.025-5.71-3.74-7.782-11.214-4.889-17.63 1.36-3.017 1.576-4.686.866-6.706-1.319-3.749-3.682-3.843-8.642-.342-5.881 4.15-12.644 5.067-16.6 2.25C9.182 276.108.84 262.764.106 258.25c-.702-4.326 2.196-16.61 5.323-22.567 1.297-2.47 2.359-5.008 2.359-5.638 0-.63 1.558-3.411 3.463-6.18 1.905-2.77 4.397-7.806 5.537-11.192 1.141-3.387 3.963-9.16 6.27-12.828 3.85-6.119 4.198-7.228 4.208-13.42.006-3.712.351-6.75.767-6.75.415 0 .755-.62.755-1.379 0-.758 1.575-3.994 3.5-7.19 1.925-3.198 3.5-6.106 3.5-6.464 0-.357 3.825-4.527 8.5-9.266 5.763-5.842 8.5-9.364 8.5-10.942 0-1.526 1.033-2.938 3-4.1 1.65-.975 3-2.135 3-2.578 0-.443 1.35-2.505 3-4.58 1.65-2.077 3-4.36 3-5.072 0-.712 2.258-3.614 5.018-6.448 2.76-2.834 5.695-6.46 6.521-8.057.826-1.597 3.268-3.806 5.428-4.907 2.159-1.102 4.287-2.604 4.729-3.339.442-.734 4.329-4.176 8.637-7.647l7.833-6.311-.194-6.61c-.354-12.054-.34-12.11 3.038-12.11 1.805 0 4.937 1.354 7.823 3.383 10.746 7.553 14.133 8.105 24.871 4.053 3.738-1.41 8.841-3.146 11.342-3.856 2.5-.71 5.636-1.875 6.968-2.588 1.333-.713 5.598-1.848 9.479-2.522 4.795-.832 11.054-3.16 19.531-7.264 6.862-3.32 15.626-7.034 19.476-8.251 3.85-1.218 7.675-2.792 8.5-3.499.825-.707 4.65-2.504 8.5-3.994 3.85-1.49 10.375-4.185 14.5-5.99 4.125-1.805 9.284-3.588 11.465-3.962 2.181-.375 5.106-1.253 6.5-1.952 1.394-.699 6.81-1.828 12.035-2.509 13.945-1.818 22.568-3.757 31-6.972 4.125-1.573 9.525-3.189 12-3.59 2.475-.402 6.615-1.56 9.2-2.575 2.585-1.014 8.016-2.255 12.069-2.758 4.052-.503 8.687-1.584 10.3-2.4 1.612-.818 4.73-1.802 6.93-2.188 2.2-.385 5.665-1.786 7.699-3.113s5.634-2.708 8-3.07c2.366-.36 4.825-1.067 5.465-1.57.67-.526 20.193-.854 46-.773 37.607.118 45.965-.114 51.837-1.439 3.85-.869 7.9-1.587 9-1.596 1.1-.01 3.8-.262 6-.56 2.2-.298 14.554-.736 27.454-.972 17.841-.327 23.641-.135 24.235.799.597.94.784.945.795.022.011-.891 2.69-1.09 10.266-.76 5.637.244 12.068.433 14.291.42 2.223-.013 8.426.681 13.784 1.543 6.278 1.01 16.22 1.567 27.958 1.566 25.434-.002 65.717 4.876 65.717 7.957 0 .476.9.692 2 .48 1.1-.212 2-.054 2 .351 0 .405 2.362 1.236 5.25 1.847 4.982 1.054 10.426 3.057 43.25 15.917 18.291 7.166 19.18 7.63 30.96 16.135a4345.794 4345.794 0 0 0 17.79 12.772c4.262 3.038 7.75 6.215 7.75 7.06 0 .845.453 1.256 1.007.914.554-.343 1.31.193 1.682 1.19.372.998 1.517 2.968 2.545 4.38 1.028 1.41 3.42 7.236 5.317 12.945 1.897 5.71 4.545 11.98 5.885 13.935 1.34 1.955 2.74 4.796 3.111 6.314.37 1.517 1.074 3.006 1.563 3.309 1.515.936.98 3.26-.86 3.742-1.37.358-1.28.482.41.573 1.52.082 2.808 1.453 4.34 4.616 1.198 2.475 2.588 4.5 3.089 4.5.5 0 .85 1.238.774 2.75-.116 2.358-.197 2.43-.57.5-.384-1.996-2.293-3.304-2.293-1.57 0 2.171 2.602 7.32 3.7 7.32 1.6 0 1.663 1.445.167 3.84-.908 1.455-.398 3.777 2.582 11.737 2.043 5.458 4.317 10.263 5.054 10.679.737.416 1.636 2.103 1.998 3.75.469 2.134 1.245 2.994 2.7 2.994 1.793 0 1.875.207.671 1.687-1.202 1.478-1.155 1.606.378 1.032 1.14-.428 1.75-.173 1.75.73 0 .761-.559 1.57-1.241 1.798-1.784.595 1.304 3.48 4.613 4.31 1.438.361 2.353 1.078 2.035 1.594-.319.515-.052 1.572.593 2.35.644.776.882 1.881.527 2.455-.355.574-.169 1.044.414 1.044.582 0 1.059 1.605 1.059 3.567 0 3.06.272 3.481 1.916 2.96 1.053-.335 2.205-.14 2.559.432.353.573.166 1.041-.416 1.041-.583 0-1.06.45-1.06 1s.9 1 2 1 2 .503 2 1.117c0 .624-.881.886-2 .593-2.925-.765-2.44.163.75 1.437l2.75 1.098-3 1.42-3 1.421 2.75-.562c1.57-.32 2.75-.124 2.75.457 0 .56-.562 1.026-1.25 1.034-.847.01-.767.358.25 1.081 1.145.813.79.925-1.5.47-2.87-.57-2.913-.53-1.004.958 1.568 1.222 1.71 1.73.666 2.376-1.058.654-.995.95.307 1.45.956.366 1.382.216 1.025-.361-.336-.544-.135-.989.448-.989 1.612 0 1.267 1.502-.77 3.345-1.006.91-3.143 1.708-4.75 1.773l-2.921.119 3 .763c2.253.573 2.466.793.857.882-2.431.134-3.6 2.278-2.656 4.868.573 1.572.417 1.556-1.53-.154-2.144-1.882-2.195-1.876-4.305.5-1.493 1.68-2.276 2.013-2.6 1.104-.37-1.03-.952-.98-2.816.24-2.18 1.429-2.457 1.389-3.813-.547l-1.462-2.088-1.201 2.244c-1.09 2.037-1.006 2.193.912 1.691 2.708-.708 2.72.4.022 2.085-1.798 1.123-2.285 1.051-3.468-.51-.757-.998-1.39-2.377-1.408-3.065-.017-.687-.468-1.25-1-1.25-.533 0-.71.675-.394 1.5.317.825.078 1.5-.531 1.5s-1.143-.787-1.186-1.75c-.047-1.045-.282-1.247-.583-.5-.703 1.741-2.338 1.566-2.338-.25 0-.825-.691-1.5-1.535-1.5-1.226 0-1.32.404-.465 2 .589 1.1.717 2.014.285 2.03-.432.017.01.492.973 1.055.967.563 2.317.702 3 .309.683-.393.933-.371.556.049-.378.42-.282 1.826.212 3.124.552 1.454.528 2.59-.064 2.957-.53.327-.927 1.13-.883 1.785.057.859.22.842.583-.059.278-.687.965-1.25 1.528-1.25.563 0 .746.723.407 1.607-.888 2.314 1.068 8.838 5.065 16.893 1.91 3.85 4.529 9.763 5.82 13.14 3.271 8.563 10.325 21.141 14.36 25.608 1.865 2.063 3.12 3.752 2.79 3.752-.331 0 1.455 2 3.969 4.442 3.188 3.099 4.4 4.99 4.009 6.25-.31.995-.602 5.858-.652 10.808-.085 8.547-2.594 21.5-4.164 21.5-.402 0-.514.566-.25 1.257.266.691-.364 1.704-1.4 2.25-11.28 5.946-12.909 7.59-16.193 16.326-2.422 6.445-3.778 24.167-1.849 24.167.689 0 .966 1.68.741 4.5-.197 2.475.07 4.5.59 4.5.522 0 .08.635-.981 1.411-1.062.777-2.241 1.22-2.622.984-.38-.235-.975.03-1.32.589-.346.559-3.864 1.036-7.82 1.06-3.954.024-9.215.484-11.69 1.022-16.155 3.513-16.481 3.523-22.192.648-4.52-2.274-6.687-2.692-14.585-2.808-6.756-.1-9.035-.445-8.388-1.272.488-.623 1.159-2.897 1.49-5.053.332-2.155.968-4.18 1.412-4.5.445-.32 1.574-1.784 2.509-3.254 1.316-2.071 3.002-2.934 7.477-3.827 15.039-3.001 15.575-3.501 17.274-16.113.621-4.613 2.45-12.954 4.066-18.536 3.117-10.772 3.837-20.792 1.773-24.667-.985-1.848-.939-2.03.297-1.184.804.55.427.083-.836-1.037-1.263-1.121-2.297-2.535-2.297-3.143 0-.608-.675-1.365-1.5-1.682-.825-.316-1.5-1.264-1.5-2.107 0-.842-.42-1.53-.933-1.53-.513 0-1.22-.907-1.572-2.015-.351-1.108-1.057-1.757-1.567-1.441-.51.315-.928.028-.928-.637 0-.666-3.515-4.63-7.812-8.81-4.296-4.179-8.107-8.385-8.468-9.348-.388-1.033-1.695-1.75-3.189-1.75-1.686 0-2.582-.584-2.684-1.75-.084-.962-.2-2.331-.258-3.042-.058-.71-.778-1.706-1.598-2.213-.82-.507-1.266-1.145-.991-1.418.275-.273-.15-1.397-.944-2.498-1.08-1.5-1.771-1.73-2.75-.918-1.028.853-1.306.418-1.306-2.038 0-2.11-.487-3.123-1.5-3.123-.825 0-1.5-.675-1.5-1.5s-.42-1.5-.933-1.5c-.513 0-1.218-.9-1.567-2-.935-2.944-2.84-2.488-2.09.5.762 3.034.06 3.246-1.444.436-.823-1.537-.796-2.436.107-3.524.666-.803 1.035-1.586.82-1.739-3.297-2.339-6.143-3.636-6.921-3.155-.535.33-.972-.053-.972-.852 0-.799-.605-1.684-1.344-1.968-.96-.368-1.25.244-1.017 2.143.18 1.463-.228.764-.906-1.551-1.455-4.968-4.319-8.588-3.196-4.04.674 2.73-.91 4.038-1.817 1.5-.772-2.16-1.69-.277-2.805 5.75-1.926 10.418.543 28.367 5.092 37.014 1.712 3.255 2.903 6.72 2.647 7.702-.277 1.057.08 1.784.874 1.784 1.782 0 12.667 15.875 11.822 17.242-.39.63-.186.775.495.354.752-.465 1.155.132 1.155 1.71 0 1.333.923 3.597 2.05 5.031 1.586 2.017 1.901 3.406 1.389 6.135-.364 1.94-1.174 3.55-1.8 3.577-.627.027-2.94 1.827-5.14 4-2.2 2.173-4.764 4.2-5.698 4.502-.934.303-1.986 1.456-2.337 2.561-.35 1.106-1.611 2.491-2.801 3.08-1.19.588-4.629 3.823-7.642 7.189-5.342 5.966-9.516 9.118-10.303 7.782-.215-.365-.254-.101-.086.585.167.686-.737 1.93-2.01 2.764-1.272.834-2.805 2.594-3.405 3.911-.6 1.317-2.751 4.57-4.78 7.228-3.622 4.745-3.68 4.96-3.158 11.86.39 5.147.156 7.542-.873 8.95-.773 1.056-1.406 2.89-1.406 4.075s-.952 3.011-2.115 4.06c-2.047 1.843-2.794 3.264-4.358 8.28-.506 1.619-.393 2.16.355 1.697.698-.431.868-.084.467.959-.503 1.311-.798 1.371-1.488.302-.71-1.099-1.01-1.102-1.71-.02-.616.955-5.188 1.457-16.75 1.84-8.745.29-18.6.685-21.9.876-17.656 1.027-20.447.988-24.42-.336zm5.046-14.944c1.27-1.619 1.223-1.64-.627-.283-1.1.807-2.188 1.594-2.417 1.75-.23.156.053.283.628.283.574 0 1.661-.787 2.416-1.75zM53.244 269.331c1.675-1.225 1.433-1.446-2.737-2.496-4.582-1.154-7.72-.756-7.72.98 0 2.461 7.647 3.57 10.457 1.516zm4.544-5.04c0-.697 1.125-2.324 2.5-3.616 4.557-4.282 2.476-7.521-2.479-3.858-2.248 1.662-3.021 3.04-3.021 5.38 0 1.73.287 3.433.64 3.784.889.89 2.36-.164 2.36-1.69zm744.5-40.616c-.34-.55-.817-1-1.06-1-.242 0-.44.45-.44 1s.476 1 1.059 1c.582 0 .78-.45.44-1zm-5.58-11.309c-.055-.852-.222-.834-.585.065-.278.691-.987.96-1.575.596-.637-.394-.777-.188-.346.51.851 1.377 2.62.55 2.507-1.171zm-421.92 151.868c0-.242.45-.719 1-1.059.55-.34 1-.141 1 .441 0 .583-.45 1.06-1 1.06s-1-.2-1-.442zm371-97.559c0-.55.198-1 .44-1 .243 0 .72.45 1.06 1 .34.55.141 1-.441 1-.583 0-1.06-.45-1.06-1zm-16-16c0-.55.45-1 1-1s1 .45 1 1-.45 1-1 1-1-.45-1-1zm93.658-32.55c.305-.798.957-1.45 1.449-1.45 1.437 0 1.025 1.735-.556 2.342-.969.372-1.265.076-.893-.893z"/></svg>