<svg xmlns="http://www.w3.org/2000/svg" xmlns:dc="http://dublincore.org/documents/dcmi-terms/" height="346.019" version="1.2" viewBox="0 0 1175.612 346.019" width="1175.612" overflow="inherit"><metadata><dc:description>Silhouette of Megalosauroidea, processed by PhyloPic Tools (https://github.com/eweitz/phylopic-tools)</dc:description><dc:source>http://phylopic.org/image/5f1e1adf-372c-4289-bfc5-147245c41170</dc:source><dc:license>http://creativecommons.org/publicdomain/mark/1.0/</dc:license></metadata><path d="M1175.11 82.358c.486 1.453 1.178 5.316-1 7-8.586-5.693-19.514-5.608-29-9-5.449-1.948-10.002-6.322-15-8-6.658-2.235-13.516-2.023-20-4-7.148-2.179-12.93-6.053-20-8-25.43-7.002-53.41-4.822-80-10-9.193-1.791-21.401-6.98-30 0-4.536-1.131-13.721 2.388-15-2-67.57 7.965-128.809 24.271-183 50-40.109 7.558-69.464 25.87-110 33-4.064 5.27-15.704 2.963-20 8-20.527 3.806-40.696 7.971-57 16-8.708 7.625-17.198 15.468-29 20-1.809 10.989 12.243 16.004 18 27 3.163 6.041 3.044 8.823 7 14 10.425 13.643 27.094 15.777 41 22 3.975 9.025 12.781 13.219 20 19 4.937 8.396 6.365 20.302 17 23 3.101.34 4.777-2.314 7 0 .26 3.261-1.187 4.812-4 5 8.34 12.825 6.682 38.868 2 53-5.581-.345-10.137 2.574-14 1-4.956 7.215-25.667 10.793-28-1-5.704.629-11.847.819-14 5-4.005-12.504 17.249-16.629 32-17 1.429-2.403 6.454-4.871 7-8 1.621-9.284-7.961-11.054-13-18-6.169-8.504-11.003-26.896-17-33-4.168.502-4.411-2.923-9-2-6.215-10.118-13.886-18.78-31-18-15.842-7.491-38.758-7.908-53-17-9.459 5.607-15.232 16.562-12 32 5.105 4.518 8.547 23.557 0 27 2.854 3.812 5.798 7.535 6 14-3.318-1.349-8.375-.959-9-5-1.464 1.869-1.916 4.751-6 4 1.889 4.445 1.84 10.826 5 14-1.701-.367-1.887.78-2 2-1.346-3.568-5.604-2.41-8-5-9.043-9.771-1.13-28.233-8-44-3.691-8.472-5.4-20.288-14-26-1.998-6.998 3.718-6.281 3-12 8.979-4.021 16.229-9.771 23-16-7.426-3.573-12.932-9.068-17-16-36.153 5.472-65.118-4.871-77-27-31.814 4.93-68.104 20.565-101 7-1.074 3.553-1.946 3.22-2 10-2.76.24-3.051 2.949-4 5-18.527 2.807-27.089 15.577-43 21 5.315-2.352 4.656-10.678 11-12-7.114-.684-13.298 13.243-23 10 7.233-4.767 12.797-11.203 19-17-6.779 1.916-14.76 6.74-23 4 11.873-7.794 27.17-12.163 40-19 1.168-5.835-5.601-3.732-6-8-9.77 7.273-29.862-1.905-39 6-1.87 1.463-1.18 5.487-5 5 .838-3.829 1.831-7.502 6-8-5.678-2.653-8.28 6.368-15 6 2.028-5.973 7.799-8.2 13-11-2.45-3.026-6.508.758-10 0 2.72-5.946 10.677-6.656 20-6-6.892-3.441-12.441-8.225-18-13-2.156-8.178-7.775-12.892-7-24-9.586-17.359-34.398-18.716-62-20-27.593-1.284-53.247-6.402-68-12-1.701-.368-1.887.78-2 2-20.578.574-47.183.647-69 6-4.487 1.101-8.782 4.399-12 4-7.96-.989-11.77-9.278-18-13-1.259-13.023 8.548-17.146 14-25 1.879-2.707 1.521-7.34 4-10 1.302-1.397 5.712-2.525 8-4 8.271-5.33 13.577-12.057 20-12 8.325-4.342 20.096-5.238 27-11 6.204-6.796 17.643-8.357 26-13-.876-10.543 10.306-9.027 13-16 9.631 1.899 17.078-1.461 28-4 .467 2.134-1.429 1.905-3 2 3.633 3.566 4.56-4.058 10-2 .282 1.615-.945 1.722-1 3 3.917.374 2.553-5.145 5-1 .973-.027.776-1.224 1-2 2.821 4.195-7.701 3.602-10 6 3.206 5.86 8.142-6.022 14-1v4c5.035-.762 11.723 1.234 3 1 2.393 2.347 22.473 3.555 13 5 2.203 1.797 7.126.874 10 2-.31 1.357-2.504.83-4 1-1.079 7.746 12.631.702 14 6-3.056.723-3.644-1.022-6-1-2.578.241 1.373 1.721 0 4 5.152.751 6.396-.534 10 1-.31 1.357-2.504.83-4 1 .65 1.017 2.299 1.034 2 3 13.55.418 20.954 11.297 33 10-.441 4.462-2.108 1.489-5 3 2.219 2.476 7.329-.614 8-3 4.893 6.282 14.738 1.16 21 0 .55 2.217-1.91 1.424-2 3 .184 1.39 5.386-.52 5-3 3.353 3.198 9.514-1.415 13-4 4.671.068-1.171 2.286-1 4 4.725-2.275 13.344-.656 14-7 3.534 2.263 9.063-1.806 14 0-2.483-1.757-1.635-1.829 1-3 3.954-.169-.32 1.536 2 3 11.027-1.596 12.698-8.24 24-8-.256 2.077-4.394.273-5 2 2.839 8.153 11.77-3.459 17 1 1.172-.162.843-1.823 1-3 2.078.56 2.119 1.56 1 3 3.869-.668 3.558-.002 6-1-.027-.973-1.224-.776-2-1 1.338 1.685 16.069 2.444 23-1-.65 1.017-2.299 1.034-2 3 5.596-5.395 11.663 1.418 17-3 1.697.65.625 2.299-1 2 2.222 1.508 14.803-.929 10-1 4.416.066 9.505 2.487 20-1-.147 2.186-2.52 2.147-5 2 .529.804 1.043 1.624 1 3 7.095-3.671 11.982-2.522 20-4-.65 1.017-2.299 1.034-2 3 7.832 1.996 16.054-5.591 24-4-.697 1.656-8.671 5.08-6 1-2.985.682-2.963 4.371-7 4 6.214 3.384 12.855-.092 19-2 .182 2.182-.818 3.182-3 3 1.183 1.817 5.214.786 7 2-3.923-1.97.8-2.683 4-3-.162 1.172-1.823.843-3 1-.174 2.841 6.542-1.209 5 3 1.44-.226.349-2.984 2-3 2.506-.172 2.428 2.239 4 3 9.939-5.215 20.652.108 36-2-2.448 1.885-5.497 3.169-8 5 3.292 2.247 8.138-2.495 12-3-.474 3.526-4.713 3.287-8 4 3.284 2.892 7.354-1.937 12-1-.162 1.172-1.823.843-3 1 7.303 2.687 10.442-1.405 19-1-2.133 1.867-6.643 1.357-8 4 2.355.775 16.231-5.041 15-2-4.338-.338-7.277.723-9 3 12.321 1.288 24.088 3.599 38 1-.31 1.357-2.504.83-4 1 2.072 2.329 7.437-.506 10-1 10.224-.129-1.221 1.885-5 2 5.995 1.592 10.112 5.82 15 1 3.458 8.063 9.564.439 18 2-1.599 1.734-4.501 2.166-8 2 10.972 1.327 13.91.985 26 1 .715 2.715-4.715-.715-4 2 5.099 2.735 8.874-4.438 17-2-3.048.952-4.297 3.703-9 3 5.055 4.329 13.655-2.262 20-3-2.5 1.5-4.319 3.681-8 4 1.302 2.196 5.405-1.183 8-1 2.288.777-3.117 2.101-5 2 4.31 1.947 13.584.273 15-4 1.961 1.462 9.372 6.219 10 0 1.781.733.144 1.818 0 3 1.904 2.161 5.896-2.047 8-3-.628 3.372-3.397 4.604-7 5 1.333 3.083 4.447-1.864 6 1 .545-1.483.618-1.556 3-3 1.006 5.317 1.334-.488 7-2 3.654-.629-3.406 2.511-4 4 5.8-1.303 9.021-2.338 15-5 .279 2.612.338 5.004-3 4 6.682 2.271 11.456-5.133 17-4 .145 2.812-2.449 2.884-5 3 2.124 2.38 8.136.193 7-4 2.182-.182 3.182.818 3 3 2.435-1.005-1.959-4.422 3-4-.902 5.396 9.689-5.363 12 2-2.421-4.898 2.14-.924 6-3 .306 2.306-2.889 1.111-3 3 7.202-1.464 9.45-7.883 17-9-.202 1.342-4.153 1.862 0 2-3.329-.296-3.189 4.36-8 5 10.825-1.044 17.818-8.425 28-13-.233 1.988-8.479 9.234-12 8 .908 7.229 10.085-3.124 10-1 1.052-.544 4.063-.877 8-1-3.84-5.54 3.983 1.429 1-3-.493-1.312 4.962-.439 4 2 1.106-4.228 6.811-3.855 8-8 3.125 1.614-2.052 3.167-2 5h5c.12-.604-1.408-1.236-2-1 4.326-1.729 9.493-6.557 15-6-.627 2.039-5.053.281-4 4 .922-2.62 5.078-2.62 6 0 13.625-5.375 30.908-7.092 41-16-3.495 2.838-6.586 6.081-12 7 6.806 1.458 13.956-5.367 19-9 1.874 3.248-6.719 4.584-8 8 5.53 2.554 13.314-.392 17-5 2.591 1.386-2.311 3.594-4 4 6.79-.222 18.228 1.131 24-4 1.484.437-.395 1.28 0 3 1.887.343 4.595-5.008 5 0 .556-3.444 6.595-1.405 7-5 1.57.43.854 3.146 4 2 .368-1.701-.78-1.887-2-2 3.443 1.533 10.359 1.454 17-1-.027.973-1.224.776-2 1 9.056 2.876 16.456-2.286 25 0-.529-.804-1.043-1.624-1-3 1.889.111.694 3.306 3 3 6.753-.111 9.488-8.908 16-6-.241 2.578-1.721-1.373-4 0 .027.973 1.224.776 2 1-1.977 1.356-4.653 2.013-5 5 5.669.002 7.545-3.788 11-6 2.94 3.006-5.247 3.371-5 7 6.714-.016 7.964-.479 14-2-5.493 2.764.226 1.714 4 1-.162 1.172-1.823.844-3 1 4.702 2.597 6.856-.89 12-2-.437 1.23-1.28 2.054-3 2 7.237 1.007 13.997-1.329 18-6 2.256 3.922-7.037 8.047-11 6 4.776 4.115 11.975-.188 16 4 1.802-5.23 3.533-3.956 11-5 2.192.986-4.15 1.754-6 2-2.396-.396.555 4.555-3 3-.168 2.168 3.547.453 5 1 3.408-7.19 20.354-5.801 23-6-4.355.349-9.564 3.923-13 2-2.67-.004-2.172 3.16-5 3 7.994 2.725 19.384 2.426 29 1 2.385-4.288 1.089-.24 5-3-1.218 5.115-8.611 4.055-14 5 .137 1.646 6.865 1.646 7 0 2.488 4.684 13.717 4.245 19 3-2.844 4.978 13.686-.33 17-2-.977 4.023-6.491 3.508-11 4 4.58 3.641 14.917 3.025 15 6 3.77.769 4.78-1.22 8-1-1.139 5.606 11.894 5.979 16 2 2.363.279-1.146 2.671-1 4 .525-4.107 18.373-4.455 7-3-2.455 1.878-4.396 4.271-9 4 4.213 1.85 10.943-2.368 17-2-1.118 1.44-1.078 2.44 1 3-1.063 2.27-6.285.381-9 1 4.668 4.45 18.797 1.624 24 0-1.6 4.354-4.342 2.776-10 4 .455 2.546 7.016-1.016 5 4 11.834-7.609 10.969 10.29 23 6 3.177.839-1.774 1.319-3 1 1.105 2.561 5.371 1.964 9 2-.189.81-1.003.997-1 2 8.148 5.191 20.832 11.162 27 15z" fill-rule="evenodd"/></svg>