<svg xmlns="http://www.w3.org/2000/svg" xmlns:dc="http://dublincore.org/documents/dcmi-terms/" height="4351.333" version="1.2" viewBox="0 0 3713.614 4351.333" width="3713.614" overflow="inherit"><metadata><dc:description>Silhouette of Meleagridinae, processed by PhyloPic Tools (https://github.com/eweitz/phylopic-tools)</dc:description><dc:source>http://phylopic.org/image/b3cdff28-5829-4d76-84d6-e5c717d28d07</dc:source><dc:license>http://creativecommons.org/publicdomain/mark/1.0/</dc:license></metadata><path d="M1091.379 1303c.505-3.141-2.357-4.086 1-5 43.669 5.909 91.582 17.314 129 30 1.966.299 1.983-1.351 3-2 2.591 8.599 15.363 5.44 16 12 4.169.957 10.406 1.894 15-1 29.694 6.484 59.51 9.174 87 17 4.626 1.317 8.506 4.683 13 6 12.286 3.6 26.264 4.124 36 13 31.982 8.696 60.462 15.993 92 26 1.652.016.56 2.773 2 3 20.959 4.041 37.23 12.77 61 14 10.602 14.167 30.779 13.029 51 18 5.446 5.021 17.173 6.355 23 8-1.671 2.716 6.753 3.88 10 5 .095-1.571-.133-3.468 2-3 2.736 1.771-3.479 4.229 1 6 10.934-.938 20.355 12.521 36 11 5.734 5.497 16.52 10.495 24 11 13.226 8.108 29 13.667 44 20 3.19.857 3.093-1.574 5-2-.929 7.882 9.896 11.427 14 8 2.098 9.236 13.833 8.834 19 15 1.353-.314 1.91-1.424 4-1 49.378 30.31 98.211 56.967 151 85 1.891.224 2.207-1.127 4-1 1.598 9.403 14.201 7.798 17 16 17.236 2.186 33.385 19.18 51 21 2.98 10.935 14.109 6.509 25 7 2.938 4.062 5.559 8.441 6 15 3.857 1.124 4.621 2.365 9 1-.433 3.766 2.112 4.554 4 6 19.976 10.025 37.791 22.209 56 34 1.891.224 2.206-1.127 4-1 1.936 3.845 5.833 6.795 9 9 25.072 17.454 48.865 36.593 73 55 16.724 11.943 31.181 26.152 46 40 1.862.956 3.342-2.995 4 0-1.166.168-1.086 1.581-1 3 2.223.777 3.899 2.101 7 2-.632 3.965 3.803 2.864 3 7 15.76 7.574 23.966 22.701 40 30 .673 6.661 3.332 11.335 10 12-.429-1.904-2.154-2.512-2-5 10.888 1.807 15.864 18.973 26 15 2.447 2.358-1.493 1.86-1 5 6.582 2.085 7.905 9.428 15 11 4.952-.835 9.986-4.836 14-1-2.29 5.094 1.663 8.875 0 13 2.111 1.764 2.955 2.254 6 1-.132 2.465-.151 4.818 1 6 6.037.874 8.597 7.707 13 12 .49.478 2.551-.509 3 0 1.779 2.018 2.055 4.218 4 6 9.895 9.064 23.141 16.009 31 26 2.555 1.716 3.5-1.146 5 1-1.557.261-.693 2.193 0 3 20.137 15.53 39.312 32.021 58 49 3.146-.5 3.909 2.18 6 0 .225 1.891-1.127 2.206-1 4 4.136.531 4.998 4.335 6 8 5.869.55 6.516 6.089 9 9 12.163 14.253 32.213 31.195 46 47 5.369 6.155 11.604 18.748 17 18 6.764 12.903 15.729 23.604 27 32 5.49 13.842 17.582 21.084 26 32-1.412 5.729 1.641 7.75 5 11 4.457-3.727 4.158 3.984 10 2-1.305 5.477-2.995 11.99 4 15 .597-3.403 5.834-2.166 9-3 2.592 2.885-.45 6.2 0 10 .891 4.291 4.092 3.288 1 7 3.925 6.88 14.05 11.293 12 21 18.331 18.002 29.451 43.215 50 59 3.143 8.191 7.857 14.81 15 19 .105 2.562.566 4.768 2 6 .613-.293 3.85-2.487 4 0-1.428.39-1.687 1.2-3 0 5.639 11.027 13.428 19.905 21 29-1.035 6.146 3.049 12.834 9 15 .941 7.392 6.633 10.034 9 16 1.377.043 2.195-.471 3-1-1.75 15.104 13.994 27.148 17 40 .307 3.125-2.889-2.542-3 1 6.004 4.995 7.172 14.828 14 19-2.598 3.911 6.698 16.498 10 18-.043 12.049 14.863 17.8 18 30 1.742-.074 3.109.223 4 1 3.159 13.218 13.875 24.066 16 35 1.742-.075 3.11.223 4 1 1.309 10.358 6.678 16.656 13 22-.723 3.056 1.022 3.645 1 6 14.813 11.52 23.125 29.541 37 42 4.792-.566 9.096-6.872 13-5-5.936 11.47-2.982 14.689 0 24 2.355.022 2.944-1.723 6-1 1.426 4.426-3.384 2.616-3 6 5.918 3.082 7.58 10.42 17 10 .488 5.627-5.779-.682-6 5 5.757 3.054 6.809 4.609 14 6-4.55 1.116-4.254 7.08-4 13 8.909 10.592 29.149 14.623 32 28 1.896-.243 3.162.189 4 1 2.766 2.673 10.053 7.538 13 11 1.229 1.444-.735 3.568 0 5 2.957 5.754 12.283 9.516 18 14v6c12.583 5.955 14.111 19.105 29 24 1.373 2.279-2.578 3.76 0 4 6.217 3.45 12.988 6.346 17 12 .738 6.318 3.198 12.236 4 21 6.325-.325 5.336 6.664 13 5 2.906 5.743 4.363 12.495 3 20 6.803 7.197 14.27 13.73 21 21 5.412.611 10.25 4.776 9 9 6.243 2.757 10.096 7.903 17 10 1.083 11.25 12.777 11.89 19 18-1.109 10.721 9.631 11.09 15 18-.329-.424-2.141 1.589-2 2 2.448 7.152 19.512 9.949 17 17-1.89 5.303 13.943 11.247 16 15 .17 2.837-3.382 1.951-2 6 6.896 5.839 14.266 9.186 16 18 25.944 23.056 47.879 50.121 74 73-.219 9.092 12.288 12.656 19 18 1.555 3.555-3.396.604-3 3 5.285 3.382 8.596 9.016 13 8-.997 5.017 10.815 5.836 12 12-5.191-.143-5.774-4.893-11-5 3.471 7.119 13.604 12.043 20 13-2.775 2.553 3.551 5.054 6 3 1.816 3.331 1.963 5.376 5 9-.613 1.386-3.85.15-4 2 6.516 8.891 22.141 12.628 24 23 3.922 4.411 10.586 6.081 13 12-4.485 1.103-5.822-6.111-9-3 6.702 9.943 28.033 11.4 26 24 2.38 2.852 4.771-.101 7 2-3.745 4.137 6.924 2.365 6 7-4.363 1.63-6.184-4.395-8-2 8.204 3.854 9.097 13.113 18 10-1.478 5.672 1.587 5.197-2 10 5.577-.575 8.961 5.243 14 2-3.461 4.396.385 5.729 0 12 1.891.225 2.207-1.127 4-1 7.205 14.936 28.52 24.044 35 43 6.406 1.594 8.422 7.579 14 10 .826 2.826-1.409 2.591-1 5 6.58 2.764 13.901 10.086 15 15-1.184-1.55-4.925-5.652-7-3 6.4 7.266 15.617 11.716 21 20-5.684-.337-8.45-8.855-12-8 2.167 10.944 21.443 13.947 17 25 5.649 2.018 6.277 9.056 11 12 .384 3.384-4.426 1.573-3 6 3.829.838 6.977 2.356 8 6-3.359-1.026-1.557 3.109-2 5 11.476 8.524 21.033 18.967 34 26 22.717 33.615 54.936 57.732 64 105 2.63-.297.787 3.88 4 3-3.887 9.878 8.068 13.941 5 23 7.53 6.041 3.419 12.875 12 19 1.236 3.236-3.236.764-2 4 3.11 3.223 6.377 6.289 8 11-3.264 1.481-2.889-5.621-5-2 1.725 4.608 4.211 8.455 8 11-4.424 5.361.746 9.692 3 14-.24 2.578-1.721-1.373-4 0 10.286 10.811 7.896 22.607 15 35-1.16.84-2.682 1.319-5 1 1.157 2.51 3.984 3.349 4 7-3.38 1.598-4.267-4.244-6-1 3.438 6.228 7.402 11.932 12 17 1.789 9.184 10.397 16.971 12 27 6.006 4.266 12.918 15.102 10 22 7.506 4.608 4.481 13.561 10 20-.318 3.314-3.096-3.9-4 0 3.411 3.622 5.646 7.795 8 10 .973 3.973-5.589.411-5 4 3.062 3.271 6.104 6.563 8 11-.933 1.067-3.689.312-3 3 1.268 3.066 3.404 5.262 5 8-1.613 2.924-5.154-1.595-6 1 1.897 4.123 7.957 9.35 6 14 .715-1.621-4.715-1.621-4 0 8.928 25.213-2.786 72.99 13 95-.072 14.229 8.786 28.15 9 38-1.572-.762-1.494-3.172-4-3 1.235 5.098 3.861 8.806 6 13-.295 3.529-2.705-3.529-3 0 .496 6.584 3.016 7.751 4 12 .307 3.125-2.889-2.541-3 1 1.612 8.611 1.27 16.637 2 23-.012-1.008-1.753-1.258-2 0 1.957 3.555 3.924 7.851 3 12-.997-3.081-2.703 1.115-3 2 4.521 29.49-.395 61.774-8 91 .057 3.61 2.492 4.841 3 8-4.437.841-3.474-7.025-7-4-.096 6.43 3.332 9.335 4 15-9.473-.484-.853 8.51-4 12-1.004-1.329-.945-3.721-3-4-1.832 8.257-3.305 12.742-3 22-5.234 1.567-.638-6.695-5-6-2.357 6.192 2.93 12.11 0 14-3.934.601.254-6.921-4-6-2.346 7.127 2.185 15.718-5 17-5.294 16.033-10.354 30.206-18 44-4.242 7.652-12.795 13.752-13 24-5.174-1.508-3.854 3.48-5 6-1.78.598-4.152-2.932-5 0-1.301 2.484 2.934 4.149 0 5-.113-1.221-.299-2.367-2-2-1.207 1.555-3.195 3.896-1 6-4.768-1.645-6.445 2.437-4 5-7.544.572-13.035 5.854-13 11-4.619.283-12.26 4.663-13 12-6.805 2.195-12.907 5.093-14 13-3.045-1.254-3.889-.765-6 1 .643 2.163 3.745 6.22 0 7-.366-2.559-1.733-6.282-4-4-3.643 3.33 5.021 6.457 1 10-3.117-.549-.59-6.743-5-6-.239 1.428-1.646 1.686-2 3 1.648 2.352 4.475 3.525 5 7-5.531 1.197-3.488-5.178-8-5-5.057 4.137 2.594 5.529 3 10-4.191.191-3.092-4.909-8-4-3.609 2.917-.095 3.764 0 8-3.729 1.062-1.583-3.75-5-3-1.843 3.938 4.013 5.193 1 7-1.772-2.979-5.328.577-4 4-2.826.826-2.591-1.41-5-1 1.701 3.729-.591 1.583-1 5-2.279 1.373-3.76-2.578-4 0 1.427 7.094-9.59 1.744-8 9-9.664 1.538-20.967 9.551-27 18-5.631 1.703-11.585 3.082-13 9-3.059.725-2.941-1.726-6-1 4.099 4.895-10.099 3.105-6 8-3.736 1.069-2.85-2.482-6-2-.09 2.729 1.666 2.014 0 4-3.146.479-3.909-1.424-6-2-.798 1.869-1.671 3.662-2 6-2.355.023-2.944-1.723-6-1 .225 1.891-1.127 2.205-1 4-2.409.41-2.174-1.826-5-1-4.232 8.805-20.406 5.71-29 3-4.508 3.923-5.67 1.18-11 2-14.9 31.069-68.248 38.91-101 37-1.004 1.329-.945 3.721-3 4-8.246-3.274-21.258-.852-32-5 1.221-.113 2.367-.299 2-2-29.378-7.777-41.887-21.61-65-35 3.348 6.298-10.05 1.247-6 10-2.348-.318-3.754-1.58-7-1-1.727.607.076 4.743-2 5-3.62-3.166-5.197.165-12-2 1.307 4.307-2.838 3.162-4 5-5.033-1.301-5.107-7.561-12-7-1.373 2.279 2.578 3.76 0 4-6.582-.418-10.565-3.435-17-4-1.302 3.947 3.67 2.42 1 5-15.003 2.314-23.807-11.697-36-11 .33-4.33-1.378-6.622-4-8-.096 1.57.134 3.469-2 3-7.646-7.623-16.23-11.864-30-15-4.26-8.407-6.983-18.35-17-21-4.98-12.02-17.684-16.316-25-26-7.031-1.168-2.249 5.601-6 6-2.1-.279 1.449-2.671-1-4-2.111.889-2.955 3.044-6 3-1.506-1.494-.299-5.701-4-5v5c-6.601-2.766-5.581 3.434-11 1-.33 2.727-2.723 8.533-4 7 4.95-4.122-2.414-6.529-4-10-4.074 4.832-8.316-2.223-14 1-1.947-2.053-3.12-4.88-7-5 .125 2.503 1.908 3.131-1 4-2.718-3.167-5.926-3.446-7 1-6.895-9.439-20.227-12.44-27-22h-4c-9.117-16.883-30.822-21.178-41-37 1.797-13.324-7.5-23.689-17-29 1.088-6.562-5.879-8.882-7-16-3.045.044-3.889-2.111-6-3-5.88-15.453-16.926-25.741-22-42-2.162-.838-3.411-2.589-7-2-.723 3.056 1.022 3.645 1 6-8.119 4.353-13.632.678-21 2-.637 2.182 2.834 3.182-1 3-1.286 2.797-2.068-3.15-5-2-14.513 7.919-28.465-5.398-39-13-1.16.839-2.682 1.319-5 1-1.451-3.882-3.521-7.145-7-9-.466 1.912 3.082 4.305-1 4-6.646-9.725-12.083-15.702-22-23-.877-2.79-2.394-4.939-3-8-1.742.075-3.109-.223-4-1-8.82-17.847-19.346-33.988-27-53h-3c-2.453-10.547-12.151-13.849-12-27-4.807-2.86-8.316-7.017-9-14-7.351 2.018-4.472-6.195-9-7-.948 2.491 3.57 6.033-1 6-2.207-.793-1.299-4.701-4-5-15.059 12.504-24.928-10.642-40-11-2.354-5.98-10.479-6.188-12-13-4.934 3.42-4.834-5.462-8-7-5.4-.067-5.645 5.022-10 6-3.678-6.521-1.284-25.697-11-20-2.241-1.759-2.002-5.998-4-8-11.697-.924-11.507-10.967-16-19-5.105-9.126-15.27-19.25-20-28-2.273-4.204-2.242-9.972-5-14-1.25-1.826-4.932-2.507-6-4-2.858-3.994-2.832-7.589-4-12-2.102-1.232-3.898-2.768-6-4-2.041-12.292-9.946-18.721-14-29-3.059.726-2.941-1.726-6-1-8.337-10.086-11.78-22.064-19-37-4.833-9.998-12.475-26.967-20-24 .15-2.483-.517-4.15-2-5-4.729 6.877-6.797-5.874-11 0-3.59-5.077-11.926-5.408-14-12-1.576.09-.782 2.55-3 2-4.487-2.18-2.947-10.386-8-12-.016 2.651.555 5.889-2 6-2.109-4.224-4.473-8.193-8-11-14.812-1.521-21.832-10.834-29-20 3.769-21.769-9.563-26.437-12-42-1.314-1.02-3.686-.98-5-2-.357-4.976-3.492-7.175-3-13-1.16-.839-2.682-1.319-5-1-1.276-6.724-2.49-13.51-8-16-9.718-34.282-28.829-59.172-42-90-2.578-.241 1.373-1.721 0-4-11.176-14.158-14.013-36.654-23-53-6.035-4.299-12.239-8.428-17-14-1.105 9.772 9.066 8.267 10 16-5.967-.385-8.596-9.38-14-7 2.185 2.816 8.895 5.311 7 9-6.451-1.215-7.45-7.884-14-9 .853 4.814 6.848 4.486 7 10-5.186.52-4.204-5.129-9-5 1.158 1.479 1.158 2.521 0 4-13.102-3.398-23.419-12.451-36-19-2.806.013 2.381 2.729-2 2-8.151-4.283-11.704-9.681-23-9 .318-2.318-.16-3.84-1-5-20.664-11.002-37.2-26.133-54-41-.533-5.386-6.307-10.013-9-10 1.117-6.784-4.716-6.618-6-11-14.4-2.659-20.531-13.262-35-13-.693 6.36 2.682 8.65 4 13 7.07 36.339 22.064 74.033 27 106 1.377-.043 2.195.471 3 1 19.236 71.535 37.066 147.171 61 211 3.41 25.43 13.971 46.934 19 73 28.445-.506 63.031-.68 81-13 3.626-2.486 5.703-7.234 9-10 17.172-14.407 40.266-19.354 56-34 7.586-7.414 11.285-18.715 22-23 .34 4.936 1.391 8.316 0 11-.24-1.535-1.646-.146-2 1-15.36 68.138-76.152 105.695-143 131 5.213 2.895 4.864 7.842 4 15 1.191 3.476 2.656 6.678 4 10 2.693 22.492 18.639 39.893 30 57 11.513 6.82 14.764 21.902 30 25 1.447 1.553 1.334 4.667 3 6 12.029 1.938 18.282 13.969 32 11-.709 3.709 1.709 4.291 1 8 21.656 5.258 39.688 16.997 58 28 3.448 2.072 7.302 1.714 10 4 3.352 2.84 3.963 7.071 8 10 7.715 5.597 22.834 10.754 28 19 12.307 19.642 27.083 61.029-2 72-4.361-18.973-10.454-36.213-24-46-2.338 2.662-5.748 4.252-6 9-7.649-2.105-5.877 2.285-11 3-17.834 2.487-35.584-10.714-41-21-3.557-6.756-1.755-12.556-8-17-.848-.604-3.005.373-4 0-18.25-6.836-22.718-30.375-47-20-2.291-.767-7.272-3.984-10-1 18.484 43.031-16.791 78.929-49 93-15.082 37.252-19.436 85.232-46 111-1.666 1.986.09 1.271 0 4-6.125 1.73-4.643 5.541-7 10-18.754 7.58-29.904 22.763-46 33 .559 2.039 3.009 1.961 1 4-4.449.783-6.002-1.332-10-1-3.65 6.779-21.435 4.434-21 12-28.825 3.242-45.801 27.647-81 18-5.483-6.517-9.166-14.834-15-21-12.594 6.739-24.199 14.467-34 24-10.064-12.42 1.2-35.466 11-46 8.605-9.25 22.854-13.674 27-22 11.559-1.292 24.315-6.101 36-4 2.243-2.424 7.142-2.191 8-6 24.285-3.381 41.898-13.435 59-24 12.141-20.192 29.092-35.575 37-60-20.433-.688-33.059.878-48 7-5.359 5.307-8.82 12.514-14 18 1.256.41 2.045 1.289 2 3-8.265 4.816-13.266 12.174-20 17-19.306 13.834-38.467 18.619-67 23-51.717 7.939-123.006 5.357-171 8-1.336-.997-1.964-2.703-4-3-6.172 4.031-11.548 3.199-20 4-.314 1.351-1.423 1.91-1 4-23.341 6.119-56.469 9.979-80 7-5.718-8.282-11.986-16.014-13-29-3.901.236-5.833-1.5-7-4-29.064 1.27-46.656 14.01-69 22-1.145-16.096 12.432-24.458 18-37 21.685-6.438 38.637-21.447 65-24 14.408-1.395 31.902 2.061 38-4 1.702 5.517 7.496 1.008 11 5 43.601-1.213 90.137-8.921 132-12 4.458-.328 9.963 3.521 13-2-22.93-.533-29.812-19.047-27-40-19.828.838-32.301 9.032-47 15-1.227-5.932 2.244-11.243 0-15 20.408-13.047 40.779-31.999 73-25 3.412.741 7.456 4.506 12 5 11.029 1.199 22.365-2.32 34 0 3.133.625 5.949 2.463 9 3 16.111 2.834 36.807-1.603 55-3 9.889-.76 16.264-4.152 24-5 6.941-.761 12.373 1.502 19 2 23.298 1.75 45.271-6.963 57-20 4.632-.048 7.827-2.959 10-6 3.065-4.29 8.304-17.475 11-26 2.861-9.05.576-14.617 1-23 .124-2.455 2.789-4.316 3-7 .348-4.437-2.492-8.483-3-13-1.099-9.771 1.326-21.521-4-28-1.469-27.247-12.033-54.938-17-79-2.232-10.816-.986-25.657-10-30 5.142-12.906-5.854-25.85-6-46-.955-1.712-3.318-2.015-4-4 2.162-15.148-9.482-33.094-10-50h-3c-3.177-25.082-12.538-59.825-20-84-1.861-6.029-1.217-14.174-3-19-2.615-7.08-8.13-9.48-5-18-1.429-2.238-3.211-4.123-5-6 5.791.723.598-3.334 2-7-9.531-.166-10.973-21.74-9-30-22.295-87.038-51.047-167.619-73-255-1.321-.012-.914-1.752-2-2-4.918.252-9.619.285-12-2-4.923 4.769-10.011-.918-16-1 2.699 7.366-6.635 2.699-7 7 .107 4.227 5.6 3.067 8 5-3.369-.368-1.796 4.204-5 4-4.834.501-5.548-3.119-10-3 0 1.004-.811 1.189-1 2-1.442 6.109 7.586 1.748 7 7-6.432.099-9.646-3.02-15-4-2.531 7.531 7.095 2.905 8 7-1.659 1.675-5.871.795-9 1 2.47 4.064-1.863 3.077-3 6-5.528-.815-8.764-4.745-14-1 1.188 2.479 7.314.02 7 4-7.167 1.81-10.808-5.159-16-2 .798 2.869 6.705.629 6 5-7.004.629-8.844-.845-14 1 1.571.095 3.467-.134 3 2-19.922 9.057-39.763-5.324-57-5 .58-4.247-2.695-4.639-5-6-14.721-.946-18.788-12.546-34-13-.156-1.177.172-2.839-1-3-15.117-5.883-24.447-17.553-39-24-1.846 6.005-8.127-2.303-11 3 3.598 1.402 9.164.836 10 5-8.677-1.979-9.156 2.812-18 1-.493 3.14 3.447 2.642 1 5-16.178-7.246-36.481-8.454-50-15-2.396-.396.555 4.555-3 3-12.896-3.011-25.894-10.444-37-12-5.98-10.208-20.141-6.68-26-16-.754 3.246-6.455 1.545-7 5-.056 2.468 6.633 3.262 3 6-1.273-2.15-9.85-5.74-10 0 3.137 3.863 8.855 5.146 14 7-7.941 12.334-23.477-5.94-29 0 2.838 5.829 11.033 6.301 15 11-11.305 6.172-20.713-7.382-31-5 1.711 5.623 10.781 3.885 12 10-4.64-.998-8.634-2.248-13-1-15.852-11.014-33.882-13.713-52-22-10.844-11.824-32.861-17.803-45-25 .544 3.823 8.59 5.364 6 9-2.117-3.293-7.281-5.862-10-3-15.88-7.414-33.986-25.971-52-14 6.768 5.108 7.099 9.634 8 17-1.485 2.785-4.468-2.113-4 2 2.172 6.828 8.485 9.515 12 15-2.22 6.646 1.229 8.955 4 13-3.92 3.079-.922 9.688-4 15 9.693 21.446 2.783 55.928 1 78-6.058 6.609-9.476 15.857-13 25-22.57 22.229-23.133 66.002-47 89-22.403 36.046-44.248 73.901-62 112-3.689 7.918-6.27 16.438-10 25-21.614 49.61-46.18 98.634-65 151-17.414 48.455-41.571 95.662-58 145 24.826 2.664 39.708-6.35 58-9 36.053-5.225 66.276-19.522 100-23 14.878-6.122 28.268-13.732 44-19 1.075 12.11-7.998 22.166-15 29-16.429 16.036-40.605 27.519-59 41-46.816 21.184-93.169 42.831-155 49-12.956 40.378-26.729 79.938-41 119 12.832 8.502 19.718 22.949 34 30 13.666 11.594 30.011 30.794 46 40 18.201 10.479 41.62 32.76 46 50 3.168 12.473 1.869 37.688-6 41-12.529-7.471-12.402-27.598-25-35-4.309 9.691-17.219 10.781-30 12-14.199-6.801-21.115-20.885-30-33 1.292-4.959-2.42-4.913-2-9-13.012-12.205-24.003-29.895-46-30-.43 1.57-3.146.855-2 4-2.395-.605-4.562-1.438-8-1-7.782 26.338-11.132 52-23 74-3.716 2.064-2.614-1.434-7-1-1.607 3.393-6.305 3.695-7 8-14.887 9.359-32.87 9.599-49 16-12.936 5.134-22.766 17.329-37 19v3c-11.348 5.227-23.059 10.245-35 17-10.617 6.006-20.756 15.805-32 20-12.58 4.693-31.027 3.594-47 7-18.447 3.935-31.826 12.434-52 11-9.53 6.137-18.584 12.75-28 19-38.062 3.529-66.472 45.526-106 25 3.266-7.305-4.704-10.124-6-16 1.295-1.795 2.257-9.661-1-10-21.49 5.842-40.588 14.078-46 36-6.639 1.639-6.732-3.269-11-4-3.904-14.59 2.358-25.816 6-36 7.51-5.824 13.688-12.979 20-20 5.696-1.304 10.688-3.312 14-7 19.888-3.078 38.963-10.801 58-16 21.207-5.793 38.667-15.392 60-18 15.797-1.932 23.462-8.283 35-12 10.647-3.43 23.07-2.494 34-5 18.037-4.136 34.128-11.023 51-16 .839-1.161 1.319-2.681 1-5-22.509-5.525-45.572-2.098-69 0-13.993 1.253-26.181 8.309-37 9-13.979.893-31.132-4.373-50-3-14.258 1.037-30.32 2.126-47 3-13.243.693-31.842 4.873-45 3-42.633-6.066-92.778 9.711-132-7-3.967-3.699-6.607-8.727-13-10-1.91-4.894.436-6.285 1-11-1.166-1.834-2.614-3.386-4-5-26.646 3.354-43.777 16.223-67 23-3.103-5.779 2.735-12.224 2-16 .012 1.008 1.752 1.258 2 0 9.934-17.4 23.879-30.788 43-39-.749-1.889-2.984-.693-1-3 3.958-1.291 2.042 3.291 6 2 14.745-10.297 34.449-4.811 53-5 70.423-.717 151.806 1.186 216-11-1.481-5.852-7.339-7.328-12-10-3.045-6.955-2.379-17.621-6-24-11.527 2.473-23.204 4.795-34 8-2.1-6.533 1.227-14.285 4-18 16.855-22.574 50.661-22.072 83-16 7.597 1.427 13.381 6.467 20 9 10.133 3.877 23.597 7.791 36 11 44.843 11.604 83.299-2.428 130-2 9.75-19.712 30.416-33.409 34-56 .171 1.496-.357 3.69 1 4 4.349-8.83 17.313-17.977 14-28 20.625-26.375 36.062-57.939 49-92 8.667-5.843 7.959-16.75 12-27 2.354-5.971 6.566-10.686 8-16 1.38-5.116 1.338-8.686 3-12 11.82-23.577 21.164-49.871 32-77 12.575-31.483 27.799-64.08 37-97 8.165-14.835 14.819-31.181 19-50 2.887-2.751 4.586-6.296 3-11 1.862-.138 3.342-.658 4-2-.836-8.794 5.636-17.248 7-27 .613-1.387 3.85-.15 4-2 14.731-25.602 21.217-59.449 36-85 .726-3.059-1.726-2.941-1-6 9.82-19.513 18.627-40.04 20-68 2.342-2.325 6.671-2.662 8-6 4.684-15.16 12.316-35.051 13-50 .857-18.752-7.851-28.475-10-47-12.634-17.569-2.658-46.643 6-63 5.231-9.884.444-18.29-1-26-2.729-.729-2.013 1.987-4 2-.795-2.371 2.6-6.711-2-9-1.067.933-.311 3.688-3 3-1.014-4.133 4.019-11.357-1-13-3.596.738-.131 8.535-4 9-1.596-7.263 2.453-8.88 4-13-2.809.416-7.138.012-8-2 .09-1.576 2.551-.783 2-3 .965-11.298-7.311-13.356-8-23-11.689-3.978-8.838-22.495-16-31-4.328 5.416 6.088 12.975 1 18-6.214-19.453-14.724-36.609-26-51 1.165-.168 1.086-1.581 1-3-13.342-2.882-9.627-21.48-20-25-2.611-7.817-7.142-19.942-15-29-.441-.508-2.485.45-3 0-6.969-6.092-8.254-17.918-14-21-5.539-2.971-12.279-1.159-18 1-30.084-27.583-73.322-42.011-95-78-2.535 1.798-4.535 4.132-9 4-.963-3.629 4.493-.84 4-4-5.095-4.593-5.824 3.355-11 0 .933-1.066 3.689-.312 3-3-10.114-.043-13.414-5.312-19-9-10.191-6.73-30.859-23.235-36-24-7.934-1.181-15.75 4.326-23 2 2.608-9.286-12.032-9.959-17-15 1.744-2.59 4.018-4.648 7-6-6.396-5.705-11.795-6.258-17-10-17.137-12.319-35.279-28.705-50-41-2.81-2.347-6.519-4.811-11-4 1.727-7.203-4.531-1.219-6-4 1.689-5.377-7.449-8.535-11-12-1.279.055-1.385 1.282-3 1-15.701-11.566-28.353-27.067-47-38-6-8.333-10.372-18.295-20-23v-5c-12.17-4.497-16.232-17.102-29-21-2.062.271-.238 4.429-3 4-2.781-3.846-5.545-4.762-9-1-3.117-6.549-9.096-10.238-16-13-8.535-15.465-24.626-23.374-32-40-1.72-.395-2.563 1.484-3 0 1.165-.168 1.086-1.581 1-3-8.627-4.707-10.504-16.163-22-18-1.225-10.775-13.368-10.632-16-20-5.038-1.628-8.174-5.159-14-6-2.697-11.304-14.775-13.225-18-24-1.004 0-1.189-.811-2-1-1.966-.299-1.982 1.35-3 2v-5c-3.809.809-3.069-2.931-6-3 .418-4.751-2.229-6.437-6-7-2.16-6.84-6.501-11.499-12-15-.966-6.034-4.363-9.637-9-12 .41-2.409-1.826-2.174-1-5-15.479-14.188-26.998-32.336-42-47-.043-1.377.471-2.195 1-3-11.459-8.541-18.382-21.618-27-33-1.862-.956-3.343 2.995-4 0 2.113-5.133-8.153-18.423-16-17-.3-1.966 1.351-1.983 2-3-19.062-25.271-42.367-46.301-60-73-12.396-5.604-14.623-21.376-26-28-5.894-25.105-26.21-35.79-34-59-21.234-21.433-29.668-55.665-53-75-4.779-15.554-12.731-27.936-20-41-5.124 1.896-14.008 1.31-16-3 .276-7.391 3.285-12.048 8-15 1.316-9.434-6.233-12.654-4-20-13.205-13.156-21.237-33.25-29-50-4.412-9.52-9.846-22.376-14-32-.594-1.375.684-3.675 0-5-1.759-3.405-5.043-4.93-7-8-7.524-11.804-8.132-25.783-16-36-3.626 1.824-9.74 3.183-13 0-1.31-8.31 4.882-9.118 4-17-1.005-1.995-4.422-1.578-4-5 .182-18.655-9.21-34.215-17-48-4.692.359-6.838-1.828-9-4-.094-5.428 4.482-6.184 6-10-6.643-27.905-17.115-53.124-21-85-.119-2.88-4.265-1.736-4-5 .874-14.961-5.355-27.13-9-42-.921-3.757-.091-7.976-2-11-1.897-3.005-5.263-1.749-7-4-5.669-7.347 1.768-19.837 6-26-6.972-5.058 4.666-11.636-3-16 1.177-.156 2.839.172 3-1-1.893-7.503.498-10.131-3-18 2.774-2.892 3.253-8.081 4-13-5.855-9.098-4.77-28.357-5-40-1.004 0-1.189.81-2 1 3.19-9.056 4.902-23.665 2-33 .43-1.57 3.146-.854 2-4-4.253-14.201-2.832-31.73-2-51 1.88-43.51 2.479-86.541 8-121-.877-2.79-2.395-4.939-3-8 1.077-8.561 6.164-20.67 4-32 .737-1.053 3.812.687 4-3 .438-3.438-.395-5.604-1-8 8.313-25.137 13.186-51.831 19-78 4.352-19.587 8.833-38.786 14-58 9.229-34.317 15.302-68.231 27-98 13.255-33.729 37.139-59.182 53-89 12.722-7.945 22.77-18.564 35-27 4.236 1.223 5.924.905 7-3-1.022-3.645-6.166-3.167-9-5-.024-7.691 8.947-6.386 12-11 8.104-36.581 20.04-74.602 27-109 4.272-4.728 5.562-12.437 10-17 .409-2.409-1.826-2.174-1-5 9.286-19.131 17.136-44.75 19-68 .905 2.71 3.682-.842 4-2 1.707-7.041-3.081-7.585-3-13 1.778-1.867 2.541.812 6 0 .225-5.529 4.797-9.471 2-15 1.177-.156 2.839.172 3-1-1.062-16.313 11.654-26.829 15-42-.015-1.651-2.773-.56-3-2 1.441-3.225 6.182-3.152 7-7-1.572-.095-3.467.134-3-2 4.15-11.575 11.186-24.271 11-37 11.04-12.564 6.877-38.695 23-48-8.942-6.928.525-23.835 8-27-2.346-1.654-2.166-5.834-2-10 16.146-34.036 22.151-72.962 36-110-3.555-5.381 3.785-16.764 7-22 .483-3.15-3.069-2.264-2-6 6.544-8.691 5.798-17.142 6-30 6.737-3.625 3.137-12.939 7-18h-5c5.199-7.694 2.307-11.936 6-19-.979-4.021-5.834-4.166-5-10 1.369-3.298 6.196-3.137 7-7-.673-3.66-4.018-4.649-5-8 3.395-7.051.364-15.235-5-19 7.783-2.526.236-8.799 4-14h-4c-.291-7.198-2.638-11.919 0-17-9.729-12.938-21.988-23.345-41-27-9.117-9.217-25.148-11.518-39-16-.889-6.112-8.415-5.585-15-6-11.296-5.704-19.82-14.18-36-15-2.748-4.585-8.282-6.384-14-8-1.171-1.496-1.243-4.09-3-5-6.236-1.097-12.032-2.634-17-5-2.059-5.607-10.988-4.345-16-7-8.071-12.595-31.467-9.867-39-23-6.551-.45-10.698-3.302-18-3a453.092 453.092 0 0 1-2 39c-.642 6.834-4.023 12.512-5 19-1.148 7.625.714 16.518-2 24-1.261 3.477-3.638 3.505-4 7-.417 4.025 2.307 8.697 2 13-.788 11.062-3.973 20.971-4 32 6.244-1.756 6.159-9.841 10-14-8.083 40.583-7.055 90.278-46 100-5.827-14.291-22.498-21.078-15-43-7.593-11.17 1.912-20.719 4-32 1.744-9.424-.866-20.576-2-27-3.759-21.302-1.454-40.603-2-65-.207-9.251-1.141-20.602 0-30 .449-3.701 3.684-7.079 4-11 1.033-12.833-2.607-26.228 0-40-6.089-6.578-17.344-7.989-24-14-6.095.428-9.048-2.285-12-5-32.438-13.522-78.834-10.629-117-17-8.136-1.358-15.96-5.912-24-3-4.153-1.846-7.699-4.301-13-5-3.604.729-4.848 3.818-10 3-5.777-13.518 8.355-23.346 10-36 8.822-8.512 17.675-16.992 25-27 28.955-19.33 64.118-32.566 105-38 8.1-1.077 18.824-3.941 24-5 24.854-5.083 39.234-15.755 59-23 4.322-6.011 9.737-10.93 18-13 11.28-9.72 18.142-23.858 40-23 6.507-5.783 14.89-9.706 26-6-.279 2.279.24 3.759 2 4 8.477-.81 15.074.26 19 4 12.062-1.604 22.028-5.305 26-15 8.345-4.09 20.966-.281 30-5 3.129-11.872 15.354-15.477 28-10 8.908-13.757 21.511.427 32-1 8.375-1.14 8.748-11.005 19-11 7.088 3.982 14.429.863 25 4 1.465-3.202 3.777-5.557 3-11 4.35-1.316 7.352-3.982 10-7 11.081 1.489 16.564 5.236 27 7 19.026 3.215 33.079 13.095 43 24 2.923 3.213 2.832 6.665 7 8 3.105.995 7.679-1.667 11-1 4.496.902 5.435 5.896 10 9 1.347.916 5.021-.072 7 1 2.646 1.433 2.342 3.412 4 4 1.724.611 2.314-1.32 4-1 2.457.466 5.415 4.208 8 5 10.983 3.364 24.095 3.275 31 13 3.072-1.422 4.497-.449 7 1 2.512-.483-2.41 4.584 1 5 2.091-.576 2.854-2.479 6-2 .105 2.561.566 4.768 2 6 1.873-.222 6.627-2.579 8 0-2.168-.168-.453 3.547-1 5 4.678-1.572 3.322.829 8 1 1.877 1.768-1.19 2.919 1 5 6.648-3.045 7.172 7.964 16 6 .171 2.837-3.382 1.952-2 6 2.714.619 7.936-1.27 9 1-1.994 3.368 6.201 5.103 6 10 1.377.043 2.195-.471 3-1 7.451 12.549 21.369 18.631 25 35 3.191.142 2.969 3.698 6 4 .633 8.686 8.53 12.053 6 21h6c.489 3.156-1.802 3.531-1 7 2.997 3.416 5.84 4.93 4 11 5.745.254 5.196 6.804 5 13h4c-2.263 8.488 6.347 11.591 2 22 7.087 2.206 8.275 9.993 5 15 7.794 1.804 4.596 17.403 3 24h3c1.1 10.667 5.49 20.881 2 30 3.643 3.024 4.333 9 6 14 .483 3.15-3.069 2.264-2 6 .309 2.358 3.473 1.86 3 5-5.088 21.698 1.617 44.108 1 64-.399 12.895-7.213 27.795-2 40-3.613 3.766-.978 7.942-1 12-.295 52.738-18.88 113.101-22 162-6.671 11.612-9.025 34.163-16 45a92.244 92.244 0 0 1 3 3c-7.574 15.09-7.257 37.947-15 55 1.151 1.182 1.132 3.535 1 6-9.387 15.28-10.5 38.833-21 53 2.912 6.828-1.729 14.088-3 20 2.992 8.349 10.215 17.775 9 27-.82-2.513-1.309-5.358-5-5 .514 20.737 16.441 37.714 16 57-2.978-5.689-1.956-15.377-9-17 1.574 10.119-1.215 18.737 1 32 2.418 1.915 6.292 2.375 8 5 .201 10.63-3.703 19.758-6 32-2.279 1.373-3.76-2.578-4 0 1.611 16.389 9.117 26.883 11 43-2.025 2.308-7.979.688-7 6 2.077 4.312 7.051-.439 11 2-.07 7.412-2.173 7.601-6 12 .823 4.177 2.051 7.949 4 11-2.393 3.097-7.846 5.652-5 11 4.145-4.972 5.152 3.79 10 4-.318 2.348-1.58 3.753-1 7-2.242.424-3.188 2.146-5 3 3.449 11.218 6.521 22.812 17 27-.779 5.445-2.042 7.785-1 13-2.555 1.716-3.5-1.146-5 1 8.242 13.923 20.018 31.013 19 48-2.264 3.517-4.396-3.217-6 0 11.705 17.295 26.729 31.271 31 56 2.037-.297 2.663-2.003 4-3 13.154 13.429 30.379 31.484 34 48-.325 3.32-4.362-2.633-5 1 .004 1.003-.811 1.19-1 2 1.275 2.059 1.595 5.072 5 5 4.22-.447 5.042-4.291 11-3 1.389 1.278.611 4.722 2 6 17.746 6.587 34.645 14.022 46 27-7.736-1.116-12.13-13.324-20-8 15.371 25.296 55.1 26.233 83 39 9.979-.038 13.387 7.417 21 7 1.716 2.555-1.146 3.5 1 5 14.152 1.492 26.229 4.934 39 2 2.428 4.963 7.586 3.012 12 4 16.487 3.688 35.672 9.97 51 11-.555 0-1.135-.81 0-1 1.305 4.695 6.913 5.088 11 7zm1338 2323c-2.863-.197-5.457-.124-5 3 1.162.162 1.779-.221 2-1 1.018.65 1.034 2.299 3 2v-4zm-452 430c2.162 2.891 15.584.449 19-2-5.98-2.688-13.673.779-19 2z" fill-rule="evenodd"/></svg>