<svg xmlns="http://www.w3.org/2000/svg" xmlns:dc="http://dublincore.org/documents/dcmi-terms/" height="612" viewBox="0 0 792 612" width="792"><metadata><dc:description>Silhouette of Melursus, processed by PhyloPic Tools (https://github.com/eweitz/phylopic-tools)</dc:description><dc:source>http://phylopic.org/image/f88ead45-e1ca-4baf-b4c4-c05729df1ba3</dc:source><dc:creator>Tracy A. Heath</dc:creator><dc:license>http://creativecommons.org/publicdomain/zero/1.0/</dc:license></metadata><path d="M661.35 526.535l-.013.573a28.73 28.73 0 0 0-6.354.495l-.208-1.107c-11.745 2.136-24.207 5.717-34.767 8.92-17.657 5.378-36.968 1.523-53.647-4.805l-1.25.104c-6.667-13.138-1.354-27.305 12.604-29.258 9.584-1.367 33.634-.938 32.11-16.003-.678-6.72-7.109-13.985-9.193-20.809-4.739-15.82-1.458-26.615 2.982-41.446 1.744-5.925 6.641-19.792 1.119-25.039-5.599-5.326-17.409 3.58-23.594 4.883-10.534 2.096-22.149 1.719-32.996 1.719-12.109 0-24.062-1.901-36.056-3.203-8.255-.859-24.688-5.026-32.123-.104-13.398 8.842-8.607 37.67-9.909 50.991-1.12 11.55-2.005 18.269-5.886 28.503-2.578 6.889-4.453 14.44-6.302 20.717-5.404 18.581-12.982 29.636-28.895 39.545-8.242 5.157-13.021 7.761-23.295 7.644-6.302-.104-18.633-2.422-22.123-8.034l-.352.234c-7.669.065-11.224.912-16.225 5.808-3.373-1.9-4.961-11.094-4.623-14.531.638-6.445 4.922-9.857 10.248-12.578 10.195-5.183 24.258-3.946 33.79-10.183 10.808-6.993 11.901-17.553 7.878-29.897-1.928-5.924-6.603-10.586-9.154-16.328-5.769-13.061-12.787-25.47-15-40.535-1.758-11.862-3.971-23.464-9.531-34.362-5-9.753-12.748-21.029-24.714-17.448-11.081 3.307-15.912 16.745-19.519 26.771-5.313 14.922-12.162 29.545-19.154 44.115-3.373 7.097-6.12 14.311-8.633 21.681-4.297 12.565-16.836 19.062-20.86 29.688-1.745 4.714-1.692 10.365-4.531 14.637-4.752 7.044-13.998 9.531-21.719 11.602-8.06 2.214-19.896-1.042-26.759 3.099-3.112 1.875-4.023 8.281-7.5 10.014-6.133 3.034-8.894-1.303-13.073-5.69-1.927-2.005-2.865-.599-4.492-3.203-1.992-3.19-1.472-6.615-1.784-10.234-.768-9.818-1.627-20.326 8.659-24.559 8.594-3.567 24.311 2.331 30.431-6.067h.013c.183-14.962 6.211-30.248 9.571-44.91 2.292-9.936 3.021-20.118 4.948-30.365 1.849-9.805 8.216-18.907 7.617-29.103-.495-8.555-.677-18.998-2.213-27.526-3.229-17.774-11.225-26.876-29.636-23.191-17.631 3.542-32.136 14.909-46.134 25.365-5.742 4.284-11.042 9.818-16.016 14.467-6.654 6.12-16.966 9.44-23.034 15.443-.183-7.045-13.672-22.006-20.457-22.006-.638-8.178 2.461-10.014-5.091-14.662-3.698-2.305-7.552-3.255-11.589-3.711l.052-.43c2.591-1.953 4.18-4.388 4.349-7.786.326-6.681-4.375-5.651-6.979-10.417-3.216-5.912-3.438-15.392-3.242-21.733.312-8.724-2.188-10.078-4.544-17.552-1.641-5.208 2.292-17.943-6.068-16.315l-1.862-.599c7.917-7.331 9.453-16.264 16.016-26.277 6.328-9.701 17.097-11.927 26.667-17.995 10.977-6.993 27.292-18.373 29.493-32.358.99-6.341-1.823-14.037.873-19.987 4.18-9.219 10.248-4.558 17.253-2.552 10.86 3.034 14.961-1.354 23.764-7.644 3.945-2.76 9.037-4.062 13.555-6.498 8.542-4.661 15.912-9.752 25.079-13.177 15.456-5.729 39.389-7.669 47.462-24.61 15.951-9.466 3.165-9.193 4.922-22.969 14.87-.104 11.628-1.68 23.334-10.183 2.565 7.422 2.174 17.878 12.005 17.878 8.438.052 33.582-23.829 39.454-31.642-5.573 7.644-20.6 22.957-11.185 29.806 7.005 5.065 21.029-4.57 28.178-11.081-2.669 2.721-5.039 5.495-6.276 9.076 7.878 2.812 19.037.052 27.527-1.627-3.946 5.963-9.857 9.206-16.863 10.677 7.592-.117 15.86-.873 22.762 1.029-5.925 6.823-18.49 10.078-23.712 15.339 9.975-2.604 20.001-6.94 30.131-7.37 13.243-.599 26.303 4.662 39.767 3.894 15.873-.808 32.71-2.865 48.999-1.354 21.784 2.058 42.527 8.073 65.223 9.219 9.011.43 15.092 1.784 23.556 4.062 12.5 3.516 24.181 1.953 35.326 9.05 10.964 6.992 21.342 14.896 33.387 21.302 24.767 13.061 49.91 26.98 65.887 50.822 2.956 4.453 1.537 11.276 3.764 15.065 2.838 4.883 8.398 6.784 12.161 11.498 6.237 7.695 5.144 14.245 6.068 24.818 2.019 23.347-1.758 45.3-12.292 65.405-5.144 9.806-6.303 18.113-9.428 29.063-4.244 14.884-10.169 18.529-2.969 32.006 6.641 12.475 13.464 22.006 16.667 36.368 2.956 13.438 7.709 28.321 10.065 41.837l-1.549.273c.533 11.55 2.435 14.48-8.412 21.082-7.787 4.714-15.703 10.833-25.209 11.966-15.365 1.745-33.204-1.016-45.171 9.701-6.447 5.737-11.434 15.243-21.551 14.799z"/><path d="M50.084 339.213l-.234.403c-11.719 2.656-5.899-8.606-7.774-14.739-1.667-5.365-6.159-5.795-3.06-12.345 6.615-13.88 27.292-18.49 37.996-28.243 4.961-4.44 8.958-9.102 14.492-12.565 1.979-1.25 3.659-2.552 5.118-3.906l1.862.599c8.36-1.628 4.427 11.107 6.068 16.315 2.357 7.474 4.857 8.828 4.544 17.552-.195 6.341.026 15.821 3.242 21.733 2.604 4.766 7.305 3.736 6.979 10.417-.169 3.398-1.758 5.833-4.349 7.786l-.052.43c-2.448-.261-4.961-.339-7.552-.43-17.63-.481-36.785 7.969-54.754 6.836 1.328-4.362.768-7.994-2.526-9.843z"/><g fill="none" stroke="#000" stroke-miterlimit="10"><path d="M397.866 106.655h.013c7.592-.117 15.86-.873 22.762 1.029-5.925 6.823-18.49 10.078-23.712 15.339 9.975-2.604 20.001-6.94 30.131-7.37 13.243-.599 26.303 4.662 39.767 3.894 15.873-.808 32.71-2.865 48.999-1.354 21.784 2.058 42.527 8.073 65.223 9.219 9.011.43 15.092 1.784 23.556 4.062 12.5 3.516 24.181 1.953 35.326 9.05 10.964 6.992 21.342 14.896 33.387 21.302 24.767 13.061 49.91 26.98 65.887 50.822 2.956 4.453 1.537 11.276 3.764 15.065 2.838 4.883 8.398 6.784 12.161 11.498 6.237 7.695 5.144 14.245 6.068 24.818 2.019 23.347-1.758 45.3-12.292 65.405-5.144 9.806-6.303 18.113-9.428 29.063-4.244 14.884-10.169 18.529-2.969 32.006 6.641 12.475 13.464 22.006 16.667 36.368 2.956 13.438 7.709 28.321 10.065 41.837a80.18 80.18 0 0 1 .612 3.737"/><path d="M393.491 88.529c-2.669 2.721-5.039 5.495-6.276 9.076 7.878 2.812 19.037.052 27.527-1.627-3.946 5.963-9.857 9.206-16.863 10.677M393.569 88.451a46.914 46.914 0 0 0 2.669-2.656c-.898.898-1.796 1.771-2.669 2.656zM393.569 88.451l-.078.078"/><path d="M376.499 69.805c-5.573 7.644-20.6 22.957-11.185 29.806 7.005 5.065 21.029-4.57 28.178-11.081"/><path d="M296.405 116.955c.13-.078.248-.144.377-.234 15.951-9.466 3.165-9.193 4.922-22.969 14.87-.104 11.628-1.68 23.334-10.183 2.565 7.422 2.174 17.878 12.005 17.878 8.438.052 33.582-23.829 39.454-31.642.117-.156.221-.299.312-.442.104-.13.195-.261.273-.378M761.691 468.981c.533 11.55 2.435 14.48-8.412 21.082-7.787 4.714-15.703 10.833-25.209 11.966-15.365 1.745-33.204-1.016-45.171 9.701-6.445 5.742-11.433 15.248-21.55 14.805a15.002 15.002 0 0 1-2.097-.221M566.36 530.611c16.68 6.328 35.99 10.183 53.647 4.805 10.56-3.203 23.021-6.784 34.767-8.92.338-.064.677-.117 1.016-.182"/><path d="M383.205 540.182c.104.222.221.43.352.638 3.49 5.612 15.821 7.931 22.123 8.034 10.274.117 15.053-2.486 23.295-7.644 15.912-9.909 23.49-20.964 28.895-39.545 1.849-6.276 3.724-13.828 6.302-20.717 3.881-10.234 4.766-16.953 5.886-28.503 1.302-13.321-3.489-42.149 9.909-50.991 7.436-4.922 23.868-.755 32.123.104 11.993 1.302 23.946 3.203 36.056 3.203 10.847 0 22.462.377 32.996-1.719 6.185-1.303 17.995-10.209 23.594-4.883 5.521 5.247.625 19.114-1.119 25.039-4.44 14.831-7.722 25.626-2.982 41.446 2.084 6.823 8.516 14.089 9.193 20.809 1.523 15.065-22.526 14.636-32.11 16.003-13.959 1.953-19.271 16.12-12.604 29.258.13.248.261.508.403.756"/><path d="M246.938 482.85c-6.12 8.398-21.836 2.5-30.431 6.067-10.287 4.232-9.427 14.74-8.659 24.559.312 3.619-.208 7.044 1.784 10.234 1.627 2.604 2.565 1.198 4.492 3.203 4.18 4.388 6.94 8.725 13.073 5.69 3.477-1.732 4.388-8.139 7.5-10.014 6.862-4.141 18.699-.885 26.759-3.099 7.722-2.07 16.967-4.558 21.719-11.602 2.839-4.271 2.787-9.923 4.531-14.637 4.024-10.625 16.563-17.122 20.86-29.688 2.513-7.37 5.261-14.584 8.633-21.681 6.992-14.57 13.841-29.193 19.154-44.115 3.606-10.026 8.438-23.465 19.519-26.771 11.966-3.581 19.714 7.695 24.714 17.448 5.56 10.898 7.773 22.5 9.531 34.362 2.214 15.065 9.232 27.475 15 40.535 2.552 5.742 7.227 10.404 9.154 16.328 4.023 12.345 2.93 22.904-7.878 29.897-9.532 6.236-23.595 5-33.79 10.183-5.326 2.721-9.61 6.133-10.248 12.578-.338 3.438 1.25 12.631 4.623 14.531.195.117.404.195.612.261"/><path d="M45.513 337.937c1.901.17 3.412.612 4.571 1.276 3.294 1.849 3.854 5.481 2.526 9.844 17.969 1.133 37.124-7.317 54.754-6.836 2.591.091 5.104.169 7.552.43 4.037.456 7.891 1.406 11.589 3.711 7.552 4.648 4.454 6.484 5.091 14.662 6.784 0 20.274 14.961 20.457 22.006 6.068-6.003 16.38-9.323 23.034-15.443 4.974-4.648 10.274-10.183 16.016-14.467 13.998-10.456 28.503-21.823 46.134-25.365 18.412-3.685 26.407 5.417 29.636 23.191 1.536 8.528 1.719 18.972 2.213 27.526.599 10.195-5.769 19.298-7.617 29.103-1.927 10.247-2.657 20.43-4.948 30.365-3.359 14.662-9.388 29.948-9.571 44.91-.013.286-.013.586-.013.872"/><path d="M297.278 115.652a15.42 15.42 0 0 1-.495 1.068c-8.073 16.94-32.006 18.88-47.462 24.61-9.167 3.425-16.537 8.516-25.079 13.177-4.519 2.435-9.61 3.737-13.555 6.498-8.802 6.29-12.904 10.678-23.764 7.644-7.005-2.005-13.073-6.667-17.253 2.552-2.695 5.951.117 13.646-.873 19.987-2.201 13.985-18.516 25.365-29.493 32.358-9.57 6.068-20.339 8.294-26.667 17.995-6.563 10.013-8.099 18.946-16.016 26.277-1.458 1.354-3.138 2.656-5.118 3.906-5.534 3.464-9.531 8.125-14.492 12.565-10.704 9.753-31.381 14.362-37.996 28.243-3.099 6.55 1.394 6.979 3.06 12.345 1.875 6.133-3.945 17.396 7.774 14.739M383.205 541.054c-7.669.065-11.224.912-16.225 5.808-.364.339-.742.729-1.133 1.133M653.186 528.007a42.917 42.917 0 0 1 1.797-.403 28.735 28.735 0 0 1 6.354-.495c.169 0 .352 0 .521.013"/><path d="M98.483 268.417c8.36-1.628 4.427 11.107 6.068 16.315 2.357 7.474 4.857 8.828 4.544 17.552-.195 6.341.026 15.821 3.242 21.733 2.604 4.766 7.305 3.736 6.979 10.417-.169 3.398-1.758 5.833-4.349 7.786"/></g></svg>