<svg xmlns="http://www.w3.org/2000/svg" version="1.2" width="193.721" height="170.775" viewBox="0 0 193.721 170.775" overflow="inherit"><path d="M131.561 170.775c-.064-1.265 1.063-1.337 1.2-2.399-2.229-.148-2.483 1.677-4.56 1.68-.229-1.514 1.755-2.076 1.199-3.12-1.422.262-2.495 2.14-3.6 1.92.429-1.57 1.56-2.439 2.4-3.6-1.418-.138-1.469 1.092-2.641 1.2.536-2.584 3.623-2.617 4.801-4.561 3.224-1.976 9.76-.639 12.239-3.359-1.65-1.791-3.568.295-5.28.479-.928.101-1.654-.45-2.64-.479-2.253-.068-4.253 2.031-6.479.72-.123 1.003 1.102.658 1.439 1.2-1.853.531-2.628.7-4.56 1.199-.403-1.258-3.546-.76-4.561-.479-1.177-1.239-3.441-.729-4.08-2.88-2.598.602-5.737.662-8.159 1.439-.896.256-.381-.899-1.2-.72-2.339.724-4.8 1.831-8.16 1.681-2.368-.107-4.585-1.556-6.72-1.44-1.108.06-1.875 1.153-2.88.72.07-1.035 2.534-2.016 1.68-2.399-1.498-.225-2.538 1.041-3.6.479.629-1.371 2.523-1.477 3.36-2.64-.807-.189-2.401.928-2.64-.24 2.897-.751 3.502-2.979 6.24-3.6 2.983-.677 5.75 1.522 8.64 1.439 1.777-.051 4.381-1.411 5.04-2.64-3.07-.379-10.259.333-13.68-.721-5.219 1.298-7.015 4.745-9.84 8.16.178.383 1.175-.055.96.721-.09.95-1.594.485-2.16.96.279.44 1.566-.127 1.2.96-.589.827-1.876-.47-2.4.24-.323.677 1.272.602.48.959-.349.132-1.24-.28-1.2.24.534.187 1.301.139 1.44.721-1.012-.041.004.368 0 .72-.467.337-1.546.784-2.16.24-.317.601 1.118.582.24.96-1.165.573-1.977-.471-1.92-1.2-1.011.578-1.906.332-3.12 0-.564.235-.398 1.201-1.2 1.2-4.212-.493-7.172.424-10.8-1.44-.958-.237-.723.718-1.68.48-.229-.491-.49-.95-.72-1.44-2.465.257-2.903-.938-6-.24-3.334 3.256-10.288 4.804-16.56 3.601-.797.243-.752 1.328-1.92 1.2-.582-.816.846-1.283.72-2.4-1.7-.181-1.657 1.383-3.12 1.439-.071-1.431 2.003-2.166 1.68-3.6-1.434.406-2.173 1.507-3.12 2.4.295-2.025 1.479-3.161 2.64-4.32-.526-.712-1.42.979-1.92.24 1.456-5.184 9.171-4.109 14.16-5.76-5.053.856-9.875.042-14.64 1.439-5.565-2.369-10.322-5.07-18-4.8-2.424-1.735-6.184-2.137-7.92-4.561-1.067-.263-1.75.58-2.4 0 .472-1.048 1.757-1.282 2.4-2.159-1.439-.16-2.342.217-3.6.239.366-1.314 1.693-1.666 2.88-2.159-.622-.989-2.658-.533-3.12-.48 2.664-2.543 7.902-.59 11.76-1.44 2.596 4.059 10.83 2.326 15.6 2.16-.434-1.06.424-1.223.96-2.399-.891-.105-2.275.802-2.64-.24.387-.333 1.237-.203 1.44-.72h-2.4c.321-1.682-2.118-.603-2.16-1.921.344-.716-.196-.815.24-1.439-.524-.276-1.552-.048-1.68-.72.387-.333 1.237-.203 1.44-.721-1.626-.693-2.861-1.778-4.8-2.159.078-.562 1.047-.233 1.2-.721-.481-.479-1.945.025-2.16-.72-.119-.759 1.191-.089.96-.96-.794-.01-2.564.234-1.68-.72-1.359.401-2.115-.196-2.64-.721-.108-.668 1.308.188 1.2-.479-1.079-.338-2.133.727-2.4-.24.146-.414 1.138.019 1.2-.479-2.192-1.009-4.72-1.681-6.96-2.641.525-.514 1.292.388 1.68-.479-.61-.51-2.181-.06-2.16-1.2.615.218 1.361.389 1.68-.24-3.638-2.012-6.87-3.051-9.6-6-.321-2.935-3.206-7.14-.72-9.84 3.678.062 7.664.895 11.28.24 4.833-5.359 19.775-7.034 25.92-2.16 3.178.411 6.053 3.108 9.6 3.36 2.241.158 4.544-1.015 6.72-.961 1.785-2.188 4.53-4.517 6.24-6 3.453-5.106 9.785-9.414 15.12-13.439 5.901-2.58 9.317-6.555 17.28-6.72-.417-1.583-1.556-2.443-1.44-4.56-1.792-2.749-2.118-6.807-3.6-9.84-1.247-2.552-2.625-4.134-3.12-6.48-.795-3.767.146-9.395-.48-12.72 2.198-3.198 3.699-7.703 4.8-11.28.462-.098.189-.93.96-.72.934-3.806 2.732-7.416 4.8-10.56 3.751-5.705 6.085-12.733 12.479-15.12.312-.334 2.036-1.319 2.641-2.16 1.314.423 2.246-.684 3.359-.96 1.278-.317 1.058-.292 1.681-.72 2.145-1.474 3.378-.558 5.999-.72 1.521-.094 2.654-.191 4.08.48 2.848-5.965 14.014-8.516 19.681-3.36 3.005-.164 3.269 1.326 6.239 1.44-.035.756 1.339.101.961 1.2 4.016.704 6.256 3.183 8.64 5.52.957 2.755 2.783 5.814 5.04 6.48 1.824 2.49 3.833 5.456 5.52 7.68 1.978 2.606 2.129 4.335 3.36 7.68.481 1.307 1.675 2.448 2.16 3.84.853 2.447.926 5.144 2.16 7.44.296.777-.776.184-.48.96.878.482.873 1.848 1.44 2.64-1.098.618.028 1.873 0 2.88-.281.593-.998-.582-.96.48.502 4.251 2.997 7.008 4.8 10.56.943.42 1.025.61 1.92.72 2.291 3.789 5.273 6.886 6.72 11.52-.197.602.467 2.066-.479 1.92-.354.913 1.072.047.72.96-.203.597-.765.835-1.2 1.2 1.173.372.332 1.18 0 1.92.08 1.818 1.607 5.29.721 7.919.523-.043.763.197.72.721.7 3.631-.694 6.962-.48 10.319.209 3.269.407 6.062.96 7.92-.425.056-1.201-.241-.96.48 1.167.066.274.949 1.2 1.44-.953.266-.513.93-.72 1.92-1.359.419-.966 1.421-1.92 1.92.604 1.896-1.487 3.283-2.16 5.04-.312.812-.21 1.857-.48 2.64-1.399 4.061-3.382 7.405-5.76 10.561-1.7 2.255-3.675 5.095-5.28 6.959-1.099 1.277-2.659 2.115-3.84 3.12-2.736-.37-3.894 2.131-6 .96.035.755-.615.825-1.199.961-2.544.284-2.869-.611-4.561-1.44-.824.616-1.163 1.717-.96 3.36-1.241.636-.563 2.064-.96 3.119-1.289 3.428-4.362 6.06-7.2 6.24.146.414 1.139-.019 1.2.48-1.665.909.184 3.078-.48 4.56-.347.774-3.312 2.348-4.56 3.12-1.692 1.048-3.777 1.894-5.04 2.88-1.524 1.19-3.542 4.255-4.8 4.8-2.148.931-5.327-.528-6.72.96l-.72.001z" fill-rule="evenodd"/></svg>