<svg xmlns="http://www.w3.org/2000/svg" xmlns:dc="http://dublincore.org/documents/dcmi-terms/" height="683" width="910"><metadata><dc:description>Silhouette of Mesaphorura, processed by PhyloPic Tools (https://github.com/eweitz/phylopic-tools)</dc:description><dc:source>http://phylopic.org/image/6a71f2fc-792d-4aec-af8f-7e93d4549506</dc:source><dc:creator>Birgit Lang</dc:creator><dc:license>http://creativecommons.org/licenses/by/3.0/</dc:license></metadata><path d="M279.03 526.08c-7.658-5.096-7.855-5.405-7.241-11.346.312-3.024 2.013-8.58 3.79-12.38 1.774-3.793 3.532-9.37 3.907-12.395.375-3.025 1.925-7.843 3.444-10.706 1.752-3.301 2.528-5.944 2.122-7.224-.353-1.11.143-4.507 1.102-7.548 1.596-5.063 1.61-5.805.18-8.804-2.252-4.723-6.709-9.718-8.671-9.718-.929 0-2.624-.655-3.767-1.456-1.757-1.23-4.008-1.289-14.59-.374-11.301.977-13.514.882-22.894-.98-5.71-1.134-12.818-2.368-15.794-2.742-3.8-.478-6.144-1.412-7.87-3.138-2.196-2.197-2.385-2.996-1.783-7.54.943-7.105 2.785-10.115 7.489-12.236 3.787-1.708 5.262-1.752 21.819-.645 25.875 1.73 39.525 1.799 42.096.21.547-.339 2.106-3.567 3.464-7.174 5.463-14.513 9.297-19.92 20.999-29.609 7.379-6.11 17.914-11.316 22.9-11.316 1.85 0 6.797-7.56 6.797-10.388 0-2.838 2.702-7.156 5.175-8.271 1.279-.576 4.702-1.653 7.607-2.392 5.63-1.432 9.282-4.934 10.561-10.13.724-2.937 2.075-4.51 7.29-8.488 2.9-2.213 3.361-3.082 2.854-5.39-.358-1.632-.132-3.042.557-3.468.638-.395 1.794-2.234 2.569-4.088.796-1.907 3.218-4.568 5.576-6.128 3.653-2.417 5.034-2.735 11.193-2.58 3.864.096 7.785-.231 8.713-.728.929-.497 2.853-2.891 4.277-5.321 1.424-2.43 3.953-5.565 5.62-6.968 1.668-1.404 3.364-3.367 3.77-4.365 1.85-4.545 7.84-13.28 9.844-14.352 2.518-1.347 8.515-1.513 16.028-.443 6.972.994 8.852-.878 9.803-9.76.519-4.838 1.261-7.03 2.881-8.505 3.045-2.77 6.137-4.235 8.942-4.235 4.01 0 6.422-3.73 7.03-10.87.442-5.189 1.22-7.353 4.198-11.677 3.723-5.406 7.159-7.453 12.506-7.453 3.94 0 5.672-2.636 6.872-10.46.866-5.65 1.925-8.215 5.634-13.643 3.857-5.645 5.651-7.254 11.526-10.341 7.03-3.695 9.419-6.26 8.715-9.359-.621-2.739 2.614-8.106 10.487-17.397 9.214-10.874 13.072-13.954 20.992-16.755 10.356-3.663 10.672-3.852 12.125-7.261 1.342-3.149 7.45-9.773 18.546-20.114 6.281-5.852 15.487-10.184 27.005-12.707 12.177-2.667 20.338-5.662 22.239-8.16l1.635-2.15 1.595 3.085c1.962 3.795 5.813 6.922 9.528 7.738l2.799.615.654 15.113c1.492 34.48.15 44.679-7.798 59.26-4.602 8.444-4.786 9.095-5.037 17.9-.143 5.024-.77 10.412-1.394 11.972-1.734 4.342-20.688 29.97-23.945 32.379-2.47 1.826-2.958 2.992-3.43 8.188-.948 10.46-9.832 23.06-25.483 36.142-1.017.85-2.413 4.067-3.103 7.149-1.136 5.076-2.148 6.53-10.752 15.455-5.224 5.418-12.508 12.106-16.186 14.863-5.622 4.213-6.783 5.598-7.286 8.693-.751 4.62-6.852 12.203-11.884 14.77-2.078 1.06-5.977 2.466-8.663 3.124-6.167 1.51-11.703 4.256-14.416 7.152-1.686 1.8-1.992 3.048-1.531 6.249.424 2.942.09 4.732-1.264 6.77-1.963 2.954-7.885 7.73-9.587 7.73-.563 0-3.288 2.192-6.055 4.87-5.971 5.78-9.236 7.03-20.49 7.845-6.997.506-8.855 1.007-10.75 2.903-1.26 1.26-2.292 3.24-2.292 4.402 0 1.161-.442 2.938-.983 3.948-1.243 2.323-9.715 8.534-13.017 9.542-1.375.42-4.3 1.99-6.5 3.49-2.2 1.5-7.366 3.575-11.48 4.613-6.016 1.518-8.192 2.62-11.128 5.632-2.75 2.823-5.04 4.062-9.297 5.029-4.642 1.054-6 1.863-7.63 4.544-1.203 1.977-3.703 3.998-6.35 5.133-2.555 1.095-5.975 3.813-8.24 6.55-2.392 2.887-6.171 5.834-9.875 7.7-3.3 1.662-8.475 4.508-11.5 6.324-4.596 2.76-7.4 3.565-17.055 4.897-6.512.898-13.6 1.313-16.241.95-4.482-.614-4.84-.476-8.155 3.144-3.574 3.902-7.549 13.713-7.549 18.632 0 1.519-1.08 5.594-2.4 9.056-10.992 28.84-10.873 28.647-18.1 29.396-3.928.407-5.643.09-8-1.479z"/></svg>