<svg xmlns="http://www.w3.org/2000/svg" xmlns:dc="http://dublincore.org/documents/dcmi-terms/" height="792" version="1.2" viewBox="0 0 612 792" width="612"><metadata><dc:description>Silhouette of Mesoplodon hectori, processed by PhyloPic Tools (https://github.com/eweitz/phylopic-tools)</dc:description><dc:source>http://phylopic.org/image/981fc7a7-0931-4c40-8435-a7e3cfb324ce</dc:source><dc:creator>Chris huh</dc:creator><dc:license>http://creativecommons.org/licenses/by-sa/3.0/</dc:license></metadata><path d="M401.8 407.1l1 .65c.3.2.566.4.8.6.467.4.816.768 1.05 1.101.234.333.35.682.35 1.049.033.3-.051.633-.25 1-.2.4-.551.75-1.051 1.05a6.672 6.672 0 0 1-.85.4c-.334.1-.733.2-1.2.3-.433.1-.933.184-1.5.25-.566.066-1.2.117-1.899.15l-13.851.75c-.5.1-.933.232-1.3.399-.3.101-.633.217-1 .351-.334.1-.717.217-1.15.35l-7.8 1.2-7.05.35-4.85-.2-1.351-.199a45.396 45.396 0 0 1-1.2-.2 19.748 19.748 0 0 0-1.399-.25 16.63 16.63 0 0 0-1.3-.05h-.801l-4.55.649c-.366.034-.7.05-1 .05h-.35a5.047 5.047 0 0 1-1.15-.25c-.366-.1-.8-.266-1.3-.5l-.9-.399-.85-.5c-.267-.167-.5-.317-.7-.45-.2-.166-.35-.3-.45-.4-.133-.166-.3-.3-.5-.399-.166-.101-.416-.184-.75-.25a5.127 5.127 0 0 0-1.1-.101 21.61 21.61 0 0 0-1.6-.05l-1.7-.05-27.25-2.9-24.851-.949-12.3.449L257 413.85c-.867.167-1.717.316-2.551.45-.833.101-1.649.2-2.449.3a59.7 59.7 0 0 1-2.351.25 48.17 48.17 0 0 0-2.25.15h-6.649l-.551 1.6c-.066.2-.199.45-.399.75-.2.301-.434.634-.7 1-.233.334-.5.667-.8 1-.3.334-.617.65-.95.95l-2.2 1.95-.3.2-2.55-1.8a15.226 15.226 0 0 0-1.75-1.25c-.601-.4-1.233-.75-1.9-1.051-.6-.333-1.25-.633-1.95-.899a21.18 21.18 0 0 0-2.199-.7 20.97 20.97 0 0 0-2.4-.6 31.51 31.51 0 0 0-2.75-.4c-.934-.133-1.95-.25-3.05-.35a54.292 54.292 0 0 0-3.5-.2l-5.05-.4-.95-.149a2.875 2.875 0 0 1-.45-.101 1.457 1.457 0 0 1-.2-.149l-.05-.051v-.05c.066-.167.267-.35.6-.55.367-.267.816-.55 1.351-.85l3.05-1.45 8.25-3.05 12.55-2.5 3.7-3.15c3.867-3.3 8.133-6.3 12.8-9a95.991 95.991 0 0 1 7.4-3.9 124.82 124.82 0 0 1 8.25-3.6c6.767-2.667 11.6-5 14.5-7 2.866-2.033 3.883-3.8 3.05-5.3a3.428 3.428 0 0 1-.2-.55 5.295 5.295 0 0 1-.149-.7 6.523 6.523 0 0 1-.051-.8v-.8c.101-1.333.584-2.017 1.45-2.05h.15c.866-.033 2.066.517 3.6 1.65l1.851 1.3c.566.367 1.083.683 1.55.95l2.149 1 1.601.35 2 .2 23.35.4c1.3.133 2.616.283 3.95.45 1.333.167 2.684.367 4.05.6 1.333.2 2.684.433 4.05.7 1.4.267 2.801.55 4.2.85 1.4.267 2.8.566 4.2.9 1.4.334 2.8.684 4.2 1.05 1.433.366 2.866.75 4.3 1.15 1.434.4 2.85.816 4.25 1.25 1.434.433 2.867.9 4.3 1.4 1.434.467 2.851.95 4.25 1.45 1.434.466 2.851.983 4.25 1.55 1.434.533 2.851 1.083 4.25 1.65l9.9 3.85a53.591 53.591 0 0 1 3.899 1.55c.667.3 1.301.6 1.9.9l1.8.9c.601.3 1.167.6 1.7.9.566.333 1.117.667 1.65 1 .533.334 1.05.666 1.55 1 .5.334.966.684 1.399 1.05.467.333.917.667 1.351 1 .433.366.833.733 1.2 1.101.399.333.766.684 1.1 1.05.333.333.633.683.9 1.05.232.267.482.533.75.8l.85.851.9.8c.333.267.649.533.949.8.332.198.615.398.849.598z" fill="#010101" fill-rule="evenodd"/></svg>