<svg xmlns="http://www.w3.org/2000/svg" xmlns:dc="http://dublincore.org/documents/dcmi-terms/" height="194.283" width="190.98"><metadata><dc:description>Silhouette of Methanomicrobia, processed by PhyloPic Tools (https://github.com/eweitz/phylopic-tools)</dc:description><dc:source>http://phylopic.org/image/dd601421-7faa-421f-bb4c-200c415b77ab</dc:source><dc:creator>Matt Crook</dc:creator><dc:license>http://creativecommons.org/licenses/by-sa/3.0/</dc:license></metadata><g stroke="#000"><path d="M176.54 4.933c-1.812 2.47-3.066 5.383-3.73 8.888-.665 3.505-.686 7.296.618 9.74 1.303 2.442 3.078 3.394 5.074 3.363 1.995-.031 3.939-.876 5.11-2.676 1.173-1.8 1.227-4.698 2.398-7.184 1.171-2.485 2.957-4.244 3.852-6.393.896-2.15.93-5.968-.655-7.992-1.586-2.024-4.063-2.476-6.612-2.012-2.549.464-4.241 1.795-6.054 4.266z"/><path d="M176.02 23.458c0 5.86-2.746 15.411-7.592 20.778-4.845 5.367-13.068 3.512-17.582 8.791-4.514 5.28-1.798 12.813-5.194 17.982-3.397 5.168-10.123 4.111-13.986 9.19-3.863 5.08-2.332 15.055-6.793 20.38-4.46 5.324-12.453 5.706-17.182 10.789-4.73 5.082-3.793 13.373-9.59 17.981-5.798 4.608-16.374 1-22.378 5.195-6.003 4.195-4.94 13.793-10.789 17.981-5.849 4.189-13.156 2.083-19.58 6.793-6.423 4.711-6.994 12.604-12.786 16.783-5.793 4.18-15.742 1.805-20.78 4.396-5.036 2.59-9.19 8.524-10.788 12.786" fill="none" stroke-width="2" stroke-linecap="round"/></g></svg>