<svg xmlns="http://www.w3.org/2000/svg" xmlns:dc="http://dublincore.org/documents/dcmi-terms/" height="841.89" viewBox="0 0 595.28 841.89" width="595.28"><metadata><dc:description>Silhouette of Microstonyx major, processed by PhyloPic Tools (https://github.com/eweitz/phylopic-tools)</dc:description><dc:source>http://phylopic.org/image/98e22998-78de-4ba5-921d-de520e5f847b</dc:source><dc:creator>Oscar Sanisidro</dc:creator><dc:license>http://creativecommons.org/publicdomain/zero/1.0/</dc:license></metadata><path d="M284.832 407.336s1.664-.494 2.958-.494c1.295 0 2.59.247 3.021.063.432-.186 1.233-.432 2.095-.986.863-.555 3.514-1.171 6.288-.986 2.774.185 7.212 1.294 8.938 1.355 1.727.063 4.192.987 6.412.37 2.219-.617 3.328.04 5.424.657 2.097.616 4.477 1.631 6.387 3.111 1.911 1.479 4.49 1.562 5.731 2.441.918.65 1.814 1.804 1.999 3.592.186 1.788-.369 5.179 0 6.103.37.926.617 2.404.986 3.392.37.984.555 2.527.555 3.328 0 .802-.061 1.479-.061 1.479l-2.097-.678-.431-3.452s-.247 1.972 0 2.65c.246.679 2.711.986 3.02 1.541.309.555.246 2.466.986 3.021.74.554.494 1.231.494 1.972 0 .741-.371 1.911-.063 2.651.308.74.74 1.479 1.109 1.85.37.369.123.924.063 1.603-.063.678-.74 1.911-.74 1.911s-1.85-.309-2.219-1.727c-.37-1.418-1.418-1.603-1.727-2.527-.309-.924-.432-.863-.432-2.157 0-1.295-.123-1.48-1.603-2.28-1.479-.802-2.651-.371-3.761-.987l-1.109-.616s.062 1.54-.123 2.649c-.186 1.11-.186 1.419-.062 2.097.122.678.062 1.418-.556 1.85-.616.432-1.91 1.233-2.219 1.973-.309.74-.801 1.356-1.109 1.356-.308 0-.678.493-.863.739-.186.247-1.171.37-2.342.247-1.172-.123-.863-.186-.863-.186s.492-1.172 1.295-1.787c.801-.616 1.54-1.665 1.787-2.466.246-.801 1.541-1.974.678-3.205-.863-1.233-1.602-1.296-2.65-2.158-1.048-.863-2.898-2.28-3.514-3.822-.617-1.541-.925-1.294-.925-1.294s-2.959 1.355-5.117 1.602c-2.157.247-6.904.187-7.089.187-.186 0-.986 1.231-1.295 2.465-.308 1.233-1.479 5.733-1.232 6.596.246.863.986 1.418.615 1.48-.369.062-.555.123-.555.492 0 .37-.246 2.035-.615 2.404-.37.37-.863 1.049-.926.432-.061-.616-.677.063-.677.063s.124.308-1.109.308-1.418-.247-1.418-.247.432-.924 1.048-1.973c.616-1.048 1.11-2.713 1.11-4.129 0-1.418-.987-3.453-1.172-4.315-.185-.863-1.171-3.575-1.171-3.575s-.863.924-3.021 2.773c-2.157 1.849-3.206 2.342-3.39 3.268-.185.924-.555 1.541-.432 1.85.124.308-.185 1.355-.37.862s-.493-.062-.493-.062.185.432.431.924c.247.494.185 1.542-.062 2.035-.247.493-.309 1.171-1.665-.617-1.355-1.787-1.911-2.096-1.295-3.143.617-1.049 1.418-2.714 1.603-3.823.185-1.109 0-1.047.925-2.157.924-1.109 1.233-3.267 1.233-3.267s.5-.825-.859-2.016c0 0-1.23-.423-1.384-.423-.154 0-2.844-.384-3.612-.614-.768-.231-1.191-.193-2.344-.193-1.152 0-3.228.577-4.073.731-.845.154-2.267.46-2.997.768-.73.309-3.419 1.308-4.265 1.614-.846.306-1.115-.192-1.806-.269-.691-.077-.577.192-1.152.076-.577-.114.192-.73.192-.73s-.308-.038-.5-.307c-.192-.27.384-.27.384-.27s.077-.27.269-.27.5.079.5.079.154.152 0-.193-.039-.385.192-.385.5.078.5.078.807-.654 1.845-1.153c1.038-.5.845-1.845.577-2.382-.27-.539-1.345-.692-1.345-.692s-1.422.807-1.922 1.152c-.499.346-1.075.5-1.306.5-.231 0-.346 0-.769.423-.423.422-.577.346-1.115.615s-1.075.691-1.46.691c-.384 0-1.229-1.422-1.499-1.806-.27-.384-.269-1.114-.153-1.423.115-.307.769.153.999.193.231.038 1.191-.462 1.537-.77.347-.307 1-.998 1.845-1.46.846-.461 3.189-1.806 3.689-2.075.5-.27 3.958-2.535 4.495-3.342.538-.808 2.229-3.229 2.652-4.15.422-.922 1.296-1.234 1.296-1.234s.678-1.017.431-1.633c-1.148-2.871.802-3.053 4.932-1.649"/></svg>