<svg xmlns="http://www.w3.org/2000/svg" xmlns:dc="http://dublincore.org/documents/dcmi-terms/" height="380.721" version="1.2" viewBox="0 0 684.442 380.721" width="684.442" overflow="inherit"><metadata><dc:description>Silhouette of Milleretta rubidgei, processed by PhyloPic Tools (https://github.com/eweitz/phylopic-tools)</dc:description><dc:source>http://phylopic.org/image/00b96cf3-1802-4bda-a6cc-76aea0f6f05e</dc:source><dc:creator>Nobu Tamura (vectorized by T. Michael Keesey)</dc:creator><dc:license>http://creativecommons.org/licenses/by-sa/3.0/</dc:license></metadata><path d="M364.338 78.304c-1.901-5.627 2.233-9.9 3-15 .767-5.1-6.384-2.283-6-7 7.083-1.496 9.705 1.596 16-2-2.938-5.728-10.424-6.909-15-11 14.688-4.491 27.044 8.341 43 9-5.789-11.93-18.271-12.399-23-24 23.827 5.506 38.469 20.198 56 32 2.376-5.624 2.774-13.226 4-20 3.119 10.768 17.943 46.892-5 49 35.59 9.991 39.667 7 115 28s112.666 50.682 128 107c7.729 28.387 5.333 55.333-14 79s-41.592 35.013-55 42c-21.935 11.43-52.268 27.961-85 32-16.226 2.002-33.965 4.397-51 3-15.067-1.235-36.937-2.463-54-7-11.516-3.062-31.025-6.786-44-10-21.661-5.365-88.387-18.63-94-19-35.987-2.371-72.378-2.958-106 8 1.811-5.294 23.199-10.568 54-17s108.116-.031 132 6 28.201 8.02 42 10c29.521 4.237 53 3.667 91 1s62-8.667 97-35c19.307-15.346 69.432-59.088 42-94-27.432-34.912-33.416-42.672-60-54-50.844-21.666-105.862-11.381-156 3-2.48 3.923-2.878 8.786-3 17 15.784 6.139 59.012 9.821 60 27 .597 10.381-13.879 15.617-21 21-8.245 6.232-10.978 12.35-20 15-.143-4.815.65-10.422 4-15-11.505 4.221-27.118 8.338-38 10 2.412-5.963 5.633-9.224 11-14-7.437-.684-21.511-.037-27-2 3.337-4.663 9.132-6.868 15-9-2.823-1.51-6.902-1.765-11-2 .111-1.889 3-3 3-3s-14-3-21-42c-66.167-.841-115.185-17.022-159-42-3.233 2.767-2.667 2.333-8 10s-24.653 17.237-37 26c-5.677 4.029-12.559 5.835-18 10-8.249 6.315-18.562 17.539-31 17 3.238-5.361 10.916-12.423 17-18-10.237-8.293-30.702-.736-43-6 5.845-7.488 18.742-7.925 31-9-8.455-3.878-19.237-5.43-25-12 11.022-4.339 21.141 3.232 33 4-2.033-6.634-11.083-6.25-16-10 5.062-6.649 14.395-.672 19 2 3.64-2.422-5.893-5.325-3-7 9.203-2.786 11.142 9.223 17 13 9.463-6.203 16.136-15.197 24-23-2.425-8.908-8.705-13.961-10-24-54.695-14.062-152.142-43.29-154-47-1.858-3.71-10.092-11.329-8-22 2.535-12.93 38.325-19.46 51-24 21.109-7.56 34.458-14.901 61-13 17.185 1.231 31.213 7.529 45 13 13.81 5.48 43 15 43 15s31.724-6.678 44-4c3.905.852 11.688 6.29 15 10 2.891 3.239 6 11 6 11s19.102 6.989 30 11c22.625 8.328 48.629 19.005 69 22z" fill-rule="evenodd"/></svg>