<svg xmlns="http://www.w3.org/2000/svg" xmlns:dc="http://dublincore.org/documents/dcmi-terms/" height="247.695" version="1.2" viewBox="0 0 1459 247.695" width="1459" overflow="inherit"><metadata><dc:description>Silhouette of Mitsukurina owstoni, processed by PhyloPic Tools (https://github.com/eweitz/phylopic-tools)</dc:description><dc:source>http://phylopic.org/image/55b9772e-b829-4606-86b7-fa911576aa37</dc:source><dc:creator>Dianne Bray / Museum Victoria (vectorized by T. Michael Keesey)</dc:creator><dc:license>http://creativecommons.org/licenses/by/3.0/</dc:license></metadata><path d="M405 .007h37c26.811.473 57.692 7.797 94 5 22.825-1.758 54.269-6.942 78-4 13.366 1.657 27.819 7.948 22 21-2.143 4.807-2.333 10.161-7 16 31.691 7.794 58.4 15.361 92 25 36.848 10.571 72.2 19.941 108 5 11.202-4.675 21.151-12.255 34-17 8.072-2.981 32.546-10.559 38 2 3.021 6.955-3.524 11.203 0 15-3.268 3.066-7.016 5.651-9 10-7.703 4.63-18.443 6.223-24 13 14.607 8.361 34.188 7.088 53 9 35.005 3.557 68.43 10.641 104 1 7.657-2.075 12.939-5.428 20-7 7.214-1.606 14.686-.717 25-2 25.402-3.16 51.403-9.316 78-14 25.993-4.578 52.966-6.963 79-12 26.906-5.205 53.869-8.17 81-10 28.753-1.938 57.389-1 86-1 24.91 0 54.957-2.228 65 22-7.738 1.849-4.242 10.281-7 15-12.454 21.311-46.923-3.827-66-1-6.565.973-12.299 7.343-18 10-12.181 5.676-24.545 9.654-36 15-11.658 5.44-22.902 13.208-37 13-13.623 9.458-30.04 13.669-47 21-4.741 2.05-9.334 5.902-14 8-15.06 6.771-31.577 9.885-45 19-13.017-1.256-21.562 9.032-32 13-5.512 2.095-11.437 1.854-17 4-21.31 8.222-39.856 24.527-65 25-4.888 2.474 1.967 6.246-5 9-5.443 2.152-17.256-6.084-23-10-7.499-5.113-12.871-11.906-18-16-10.633-8.485-28.66-26.676-40-29-7.72-1.582-13.491.568-19 0-7.528-.777-12.055-4.606-22-6 .185 7.985 8.08 8.856 7 19-.996 9.357-7.277 19.282-16 20-2.674 9.452-19.014 13.175-29 13-11.829-.207-28.111-4.918-40-10-17.867-7.638-33.703-25.199-49-28-22.002-4.028-37.336 6.733-54 13 2.488 8.512 8.337 13.663 12 21-13.414 9.253-31.097 14.236-48 20-7.403-3.252-15.661-3.342-24-1-9.653-6.884-16.952-5.428-25-12-9.74-7.954-15.281-32.416-30-34-7.223-.777-22.889 8.878-32 10-19.147 2.359-44.424.83-69 2-32.109 1.529-58.755 3.906-90 2-1.818 3.483 6.347 8.736 3 14-3.078 7.365-11.399 12.362-21 19-13.664 9.447-25.962 20.982-40 4-6.307-7.629-13.72-26.351-18-38-3.194-8.693-3.71-17.223-8-23-15.196-20.464-59.467-15.593-92-15-10.404.189-21.693 2.961-30 2-12.576-1.455-38.871-9.276-48-16-5.363-3.95-7.8-11.307-14-15-4.412-2.629-11.418-3.896-17-6-8.938-3.369-15.227-9.998-28-9-2.923-1.41 1.58-10.247-3-10-18.946-10.172-49.193-8.062-76-9-26.458-.926-56.588.078-69-17 34.911-25.27 108.667-10.133 152-23 11.485-3.41 22.409-11.227 36-14 18.065-3.686 37.615-1.826 57-5 53.937-8.832 100.2-41.545 160-41z" fill-rule="evenodd"/></svg>