<svg xmlns="http://www.w3.org/2000/svg" version="1.2" width="800.663" height="630.663" viewBox="0 0 800.663 630.663" overflow="inherit"><path d="M693.344 554.53c48.399 10.38 88.56 29.01 107.069 69.28-227.779 1.27-505.26 14.199-749.53 0-6.74-23.53 15.64-17.95 12.6-37.791-22.53 2.67-33.62 16.78-62.99 12.6-2.83-46.92 19.47-68.72 44.09-88.18-33.31-54.83.64-138.73 31.49-170.07 10.03-99.14 70.11-148.24 107.08-220.45 18.44 1.65 19.35-14.24 37.79-12.59C273.283 19 400.153 5.2 535.873.25c28.29 7.4 39.24 32.15 81.88 25.19 48.54 53.78 115.671 148.03 75.591 233.05-40.19-57.68-161.851-107.46-176.36 6.3 14.17 27.82 59.44 24.54 94.479 31.49 7.931 27.5 1.851 28.01-6.3 50.39-27.399-.1-56.67-2.08-75.59 6.3 9.15 108.43 97.82 137.34 182.66 170.06 2.98 19.78-16.95 16.65-18.889 31.5z"/></svg>