<svg xmlns="http://www.w3.org/2000/svg" xmlns:dc="http://dublincore.org/documents/dcmi-terms/" height="1262.5" version="1.2" viewBox="0 0 2429.5 1262.5" width="2429.5"><metadata><dc:description>Silhouette of Monotremata + Steropodon, processed by PhyloPic Tools (https://github.com/eweitz/phylopic-tools)</dc:description><dc:source>http://phylopic.org/image/4cfee0fb-4788-45f5-b1b8-c9c2259352e0</dc:source><dc:creator>Nobu Tamura (vectorized by T. Michael Keesey)</dc:creator><dc:license>http://creativecommons.org/licenses/by/3.0/</dc:license></metadata><path d="M2428.25 122.25c1.98 9.3-7.31 14.91-8 23-.39 4.57 2.49 8.18 3 13 .52 4.9-2.35 10.02 1 14-7.78 5.21-5.46 15.5-8 25-1.99 7.47-10.38 13.77-7 23-.9 5.81-7.68 8.25-11 14-1.87 3.24-1.78 7.39-4 11-3.55 5.75-6.87 9.47-10 16-3.36 7.01-7.8 11.5-18 10-7.1 8.23-14.16 16.5-23 23-3.69 17.64-17.78 24.89-28 36-14.83 5.5-27.07 13.59-38 23-19.87 5.13-36.28 13.72-49 26-8.57-1.57-12.1 1.9-17 4-26.98-1.32-37.91 13.42-66 11-4.58-.25-4.14 4.52-9 4h-39c-5.93 22.41-43.54 13.12-70 15-4.62 6.05-13.78 7.55-24 8-3.71.29-.45 7.55-5 7-10.31-2.31-14.86 2.79-20 4-8.58 2.02-14.94-.67-21 4-2.1 1.23-.65 6.02-3 7-18.88-.22-20.46 16.88-36 20-1.76 3.24-4.27 5.73-5 10-3.13.2-7.34-.67-9 1 .36 11.36-7.97 14.03-12 21 3.78 23.78-13.52 26.48-15 45-7.81 1.52-5.67 13-15 13v12c-9.31 15.36-13.96 35.37-30 44 1.36 5.36-1.87 6.13-3 9-18.45 2.21-25.9 15.43-35 27-7.43-1.77-5.3 6.04-13 4-3.62 9.97-14.06 11.06-22 16-7.2 4.48-13.5 11.48-22 14-3.25.96-5.2 6.28-10 5-15.2 19.82 13.78 23.92 20 35 12.99 1.8 24.73 9.88 38 12 5.02.8 12.45-2.46 16 3-7.77 8.22-20.71-1.74-35 1-7.82-4.59-20.86-9.04-31-8-4.29 19.75 21.29 17.96 32 26 12-1.33 15.11 6.22 28 4 13.94 8.06 39.12 4.88 57 9-29.3 16.71-78.39 7.9-114 3-4.8-3.97-16.96-10.89-25-5-4.67 13.34 10.46 15.54 17 21 21.94 3.12 49.71 8.91 74 13-26.79 15.35-69.46 4.59-99 1-4.54-5.21-27.37-15.97-27-3 .21 7.35 25.94 14 31 17 2.67 1.58 4.54 1.71 5 4 20.81 2.86 40.06 7.27 59 12-5 5.34-13.74 3.23-22 3-9.16-.25-19.61 1.81-27 1-7.99-.87-22.58-6.65-29-8-3.11-.65-6.68.56-10 0-13.87-2.33-29.2-8.13-41-11-6.38-1.55-12.36-1.37-18-3-3.52-6.91-15.56-10.31-26-7-6.15 16.35 10.23 23.62 12 32-5.34-4.33-12.69-6.64-17-12 2.2-8.87-5.24-8.1-4-16-8.2-1.8-6.84-13.16-16-14-6.5-16.5-15.36-30.64-15-54-3.9-2.1-11.5-.5-17-1-3.91 1.75-5.65 5.68-13 4-8.57 7.43-15.09 16.91-33 15-8.05 7.95-16.61 15.39-28 20-12.92 12.08-22.96 27.04-35 40-9.79-.79-9.95 8.05-16 11-10.41 1.93-15.96 8.7-22 15-6.71-1.71-5.5 4.5-11 4h-19c-3.61.06-2.07 5.26-4 7-23.31 3.69-33.89 20.11-58 23-3.12 5.21-10.62 6.05-14 11-9.71-.37-13.71 4.96-20 8-1.45-1.55-5.12-.88-8-1-7.35 4.99-18.63 6.03-25 12h-25c-7.23 3.77-12.03 9.97-21 12-3.36 4.3-3.51 11.82-11 12 1.2 12.54-9.84 12.83-9 25-13.86 5.81-21.22 18.12-22 37-4.26.4-10.3-.97-13 1-3.97 10.37-9.84 18.82-14 29h-9c-12.16 12.18-20.58 28.09-32 41-13.46 1.26-16.55 7.25-31 8-3.47 9.53-14.11 11.89-13 26-13.6 1.98-19.78 12.4-33 12-2.3 3.37-4.72 6.61-8 9 .16 16.65-6.02 31.33-4 48 .73 6.04 4.07 12.01 3 20-2.09 15.56-9.19 29.27-11 45-6.35 4.41-7.7 18.84-16 18 3.18-16.17 3.66-28.02-1-43-17.29 4.04-16.26 26.41-32 32-5.23 5.86-6.77 20.45-15 20 6.35-9.85 4.81-35.29 2-48-15.24-5.93-18.05 8.18-24 15-5.73 6.57-13.06 11.12-18 17-1.52 6.15-3.2 12.13-7 16-5.59-19.48 6.97-36.64 5-59-30.7-5.98-30.56 27.4-46 40 1.16-6.84.97-15.03 2-22 1.41-2.26 6.51-.82 6-5 2.92-17.08 6.72-33.28 10-50-14.34 2-24.3 13.69-35 16 5.63-13.71 10.14-28.52 18-40 8.14-3.86 13.92-10.08 20-16 10.85-1.48 13.39-11.28 25-12-5.24-14.73 13.21-19.07 10-38-5.66-1.67-13.93-.74-19-3-1.19-10.15-11.21-11.46-15-19 2.02-7.14.11-19.66-4-26-.44-.68-12.99-11.99-13-12-1.92-1.27-6.15-.42-9-2-.69-.38-1.39-3.9-3-5-1.78-1.22-4.78-1-6-2-4.01-3.28-4.01-6.92-8-8-17.23-4.66-32.92 15.38-54 8-17.72 6.42-44.14 13.61-72 13-17.6-.38-37.99.46-54-2-8.93-1.37-22.56-7.43-34-3-5.14 1.99-7.53 11.71-14 11-4.88-3.91 6.09-8.2 0-10-22.38-7.13-37.94 17.79-49 28 2.13-6.98 8.58-20.1 1-25-14.1-2.09-20.81 11.85-33 15-.33 4.97-4.66 10.26-9 8 2.45-9.95 8.02-18.98 5-28-9.52-3.87-21.71 8.48-33 6-3.4 2.93-3 9.67-9 10 2.57-16.52 24.38-18.83 20-39-15.45-4.88-35.57-5.09-55-6-4.32-.32-1.06 6.94-5 7-7.45-2.27-13.73 3.05-20 4-14.08 2.14-28.1 1.29-41 3-12.11 1.61-22.29 8.23-35 8-3.29.05-2.39 4.27-6 4h-9c-1.35 1.98-3.49 3.18-6 4-49.65 10.02-84.67 34.67-127 52-12.88 11.21-31.19 21.81-49 34-7.81 5.34-15.82 12.19-24 17-4.71 2.77-9.94 3.89-14 7-4.26 3.26-6.8 7.78-11 10-22.44 11.89-64.46 3.83-73-18-3.01-58.01 46.84-63.16 69-96 25.62-15.05 45.84-35.49 65-57 3.1-1.31 2.85.27 7 0 3.35-11.31 10.5-17.51 17-25 9.84-11.34 16.07-21.66 25-33 16.47-20.92 38.97-35.47 50-59 5.41-11.54 10.6-23.17 15-36 4.16-.5 5.49-3.85 10-4 18.81-25.78 31.92-55.64 46-86 4.8-10.34 12.41-18.86 15-30 15.86-17.47 27.32-39.34 43-57 14.36-6.69 21.53-19.55 32-29 23.04-20.79 52.49-31.13 79-49 39.83-16.84 82.3-31.04 119-51 38.74-15.48 69.39-43.3 100-70 33.26-29.01 66.87-63.63 95-96 16.36-18.83 38.07-34.22 57-52 25.85-24.27 60.21-42.94 84-68 48.65-30.42 92.57-65 142-95 17.42-10.57 36.58-21.09 57-28 19.86-13.14 39.35-26.65 66-33 3.21-4.26 7.54-6.15 12-8 25.61-10.64 53.71-21.6 86-27 37.6-6.28 76.78-21.65 117-25 18.18-1.51 36.25 1.96 55-1h33c48.63 3.7 92.18 12.49 134 23 17.33 8.67 36.9 15.1 51 27 18.56 7.44 31.17 20.83 52 26 2.73 5.27 10.65 5.35 13 11 9.76 3.23 18.52 7.48 28 11 2.46 4.87 8.08 6.59 10 12 15.27 10.06 31.63 19.07 47 28 5.64 3.28 8.46 7.18 14 12 18.7 16.29 39.41 28.12 61 41 20.36 12.15 41.28 25.12 65 34 8.01-1.01 11.99 2.01 17 4 9.04-2.17 12.99 1.73 19 3 17.33 3.65 35.71 1.81 54 4 3.95.47 8.11 2.6 12 3 23.69 2.43 48.74.35 71-2 14.42-1.52 28.44-6.3 43-8 14.35-1.67 21.26-4.19 32-6 11.46-1.93 23.79-2.59 31-5 2.86-.96 6.85-.33 9-1 5.77-1.79 10.22-5.98 16-8 13.16-4.59 26.58-6.86 39-11 6.84-2.28 13.86-7.34 21-10 18.83-7.01 30.71-14.94 47-22 4.71-4.29 8.06-9.94 16-11 8.47-12.19 14.58-26.75 29-33z"/></svg>