<svg xmlns="http://www.w3.org/2000/svg" xmlns:dc="http://dublincore.org/documents/dcmi-terms/" height="479.85" version="1.2" viewBox="0 0 474.783 479.85" width="474.783" overflow="inherit"><metadata><dc:description>Silhouette of Muridae, processed by PhyloPic Tools (https://github.com/eweitz/phylopic-tools)</dc:description><dc:source>http://phylopic.org/image/0f6af3d8-49d2-4d75-8edf-08598387afde</dc:source><dc:creator>David Liao</dc:creator><dc:license>http://creativecommons.org/licenses/by-sa/3.0/</dc:license></metadata><path d="M63.95 280h.025v-.025l-.025.025zM320.575 43.35v.025c-.695-1.975-1.688-3.917-2.975-5.825a37.717 37.717 0 0 0-4.65-5.5 51.38 51.38 0 0 0-5.899-4.975 53.702 53.702 0 0 0-6.825-4.275 57.16 57.16 0 0 0-5.45-2.525l-1.899-.75a35.899 35.899 0 0 1-1.051-.4h.025l-1.35-.4h-.025c-1.05-.357-2.1-.649-3.15-.875l-1.85-.45c-2.474-.531-4.849-.797-7.125-.8a84.09 84.09 0 0 0-11.9.85l-2.75.4a6.49 6.49 0 0 0-.824.15h-.025a6.577 6.577 0 0 0-.775.15h-.024a4.69 4.69 0 0 0-.7.125v.025h-.025l-.8.2-.075-.375h-.024a6.542 6.542 0 0 0-.375.075l.1.35-2.654.65h-.025c-.583.126-1.149.284-1.7.475h-.024l-2.551.75-.1-.325c-.29.094-.573.194-.85.3l.149.325-.899.35h-.051c-.524.167-1.032.351-1.524.55-4.295 1.713-8.012 3.955-11.15 6.725v.025a24.32 24.32 0 0 0-6.95 9.95c-1.241 3.403-1.666 6.478-1.274 9.225a18.568 18.568 0 0 0 2.7 7.525c1.419 2.274 3.119 4.433 5.1 6.475a69.79 69.79 0 0 0 1.55 1.6l4.55 4.6a28.784 28.784 0 0 1 1.926 2.125 60.81 60.81 0 0 1 2.35 2.925 46.37 46.37 0 0 1 3.225 4.825c.91 1.583 1.668 3.1 2.275 4.55.577 1.451 1.002 2.818 1.275 4.1.271 1.27.371 2.436.3 3.5-.033.628-.05 1.853-.05 3.675v7.8c0 2.966-.051 6.233-.15 9.8a568.88 568.88 0 0 1-.225 6.075 679.42 679.42 0 0 1 10.699-.675c3.625-.233 7.134-.55 10.525-.95h.05c3.357-.401 6.516-.951 9.476-1.65 2.905-.719 5.563-1.686 7.975-2.9h-.025c.375-.208.75-.4 1.125-.575v.025c2.311-1.21 4.285-2.151 5.926-2.825.733-.3 1.416-.567 2.05-.8a15.607 15.607 0 0 1 2.35-.675c.064-.026.14-.051.226-.075V106a14.95 14.95 0 0 1 1.75-.35.185.185 0 0 1 .074-.025c.298-.479.606-.979.926-1.5.691-1.127 1.383-2.452 2.074-3.975.7-1.526 1.417-3.301 2.15-5.325v.025c.7-2.067 1.417-4.417 2.15-7.05.725-2.667 1.366-5.05 1.925-7.15a1441.41 1441.41 0 0 1 1.45-5.65c.401-1.69.768-3.215 1.1-4.575.3-1.425.55-2.75.75-3.975.2-1.233.383-2.467.55-3.7.134-1.226.25-2.5.351-3.825.066-1.333.149-2.8.25-4.4.065-1.585.133-3.352.199-5.3l-.203-2.925a15.993 15.993 0 0 0-.675-2.95zM325 22l2.6 2.55a80.52 80.52 0 0 1 3.575 4.025c3.021 3.699 5.355 7.565 7 11.6 1.651 4.007 2.427 8.099 2.325 12.275v.025c-.299 8.252-1.165 15.869-2.601 22.85-1.473 6.994-3.514 13.336-6.125 19.025-2.654 5.696-5.93 10.737-9.825 15.125h.025c-.367.424-.733.857-1.1 1.3.168.193.326.393.475.6l.85.9 2.4 2.6v-.025c1.198 1.264 2.315 2.155 3.35 2.675l-.149-.025.1.05.15.025c1.062.514 1.987 1.114 2.774 1.8a28.311 28.311 0 0 1 2.275 2.25 38.15 38.15 0 0 0 2.3 2.275l-.05-.025.4.35.05.025c1.02.95 2.337 1.967 3.95 3.05 1.716 1.113 3.516 2.596 5.399 4.45l.3.3a84.804 84.804 0 0 1 5.275 5.575c1.8 2.1 3.5 4.133 5.1 6.1 1.267 1.567 2.384 2.95 3.351 4.15.233.275.45.55.649.825v-.025c1.121 1.318 2.654 2.818 4.601 4.5a202.688 202.688 0 0 0 6.575 5.15c2.399 1.8 4.816 3.55 7.25 5.25a463.89 463.89 0 0 1 6.5 4.75c1.908 1.4 3.783 2.867 5.625 4.4l2.3 2c.233.2.483.417.75.65v.024h.024l2.25 2.2c1.7 1.7 3.4 3.467 5.101 5.3v.025h.024l1.25 1.4a273.504 273.504 0 0 1 3.75 4.35c.854 1.026 1.587 2.31 2.2 3.85.609 1.482 1.135 3.132 1.575 4.95l.3 1.4c.267 1.375.5 2.8.7 4.274.267 1.942.483 3.917.65 5.926.066.933.133 1.85.199 2.75l.351 5.649c.033.867.066 1.7.1 2.5.067 1.524.167 2.865.3 4.025v.024c.094 1.101.219 1.926.375 2.476v-.025c.332.928.915 1.545 1.75 1.851h-.023c.902.286 1.886.428 2.95.425h.55c.15-.002.317.007.5.024a127.321 127.321 0 0 1 4.975-2.1h-.024c1.253-.545 2.271-.92 3.05-1.125h.05l.65-.15a249.39 249.39 0 0 0 3.375-.6l.5-.1a40.264 40.264 0 0 1 4.25-.601 25.532 25.532 0 0 1 3.175-.1c.441-.002.884.031 1.325.1 1.435.146 2.426.63 2.975 1.45v.025c.412.683 1.087 1.274 2.025 1.774.978.515 2.086.931 3.324 1.25v.025c1.218.357 2.468.632 3.75.825 1.233.199 2.366.366 3.4.5 1.089.173 2.28.839 3.575 2v-.025a32.496 32.496 0 0 1 2.425 2.4c.408.433.816.899 1.225 1.399 1.168 1.409 2.118 2.635 2.851 3.675h.024c.258.389.482.697.676.926v.024l.024.025c.241.387.374.596.4.625.07.068.495.561 1.274 1.475v.025a118.345 118.345 0 0 1 3.701 4.7l-.024-.051c.073.073.132.148.175.226v.024l.05.051c.325.415.633.831.925 1.25a29.296 29.296 0 0 1 1.75 2.949v-.024c.383.722.591 1.305.625 1.75.022.256-.003.473-.075.649.06.421-.058.713-.35.875l-1.8.851c-.3.166-.584.316-.851.45-.3.133-.583.25-.85.35-.4.167-.816.25-1.25.25l-.45-.05c-.3-.033-.6-.117-.899-.25a5.646 5.646 0 0 1-.95-.601 5.317 5.317 0 0 0-.9-.6 2.996 2.996 0 0 0-.85-.25L465.1 255c-.366-.033-.7.033-1 .2-.467.233-.9.55-1.3.949-.4.4-.767.867-1.101 1.4-.333.5-.649 1-.949 1.5l-.9 1.35c-.267.4-.517.7-.75.9-.167.1-.333.167-.5.2-.1-.033-.2-.066-.3-.101-.634-.366-1.2-.649-1.7-.85-.533-.233-1-.4-1.4-.5-.3-.1-.566-.167-.8-.2a4.671 4.671 0 0 0-.649-.05c-.2 0-.384.017-.551.05-.5.134-.883.384-1.149.75a2.516 2.516 0 0 0-.55 1.025l-.2 1.274c-.045.36-.087.711-.125 1.051-.037.385-.079.752-.125 1.1a6.138 6.138 0 0 1-.4 1.25 1.21 1.21 0 0 1-.85.6h-.15c-.366 0-.8-.149-1.3-.449-.3-.2-.6-.417-.9-.65a21.169 21.169 0 0 1-.6-.5 18.715 18.715 0 0 1-.875-.75v.025a9.42 9.42 0 0 1-.575-.525 43.72 43.72 0 0 1-1.75-1.75c-.367-.375-.717-.75-1.05-1.125v.025c-.5-.5-.983-1.017-1.45-1.551l-.024-.024c-.892-.925-1.75-1.816-2.575-2.675-.858-.858-1.7-1.65-2.525-2.375v-.025a88.831 88.831 0 0 0-.725-.6 6.98 6.98 0 0 0-1.101-.75 7.825 7.825 0 0 0-1-.551 3.743 3.743 0 0 0-.899-.25c-.3-.033-.634-.05-1-.05l-10.15 1.4-9.35 2.149c-.233.067-.4.184-.5.351-.072.09-.131.198-.175.325l-.025.324v.075c-.053.262-.103.537-.15.825a93.11 93.11 0 0 0-.1.75 2.92 2.92 0 0 1-.3.75c-.167.2-.4.35-.7.45-.2.066-.45.1-.75.1h-.45c-.233-.033-.5-.083-.8-.149a2.374 2.374 0 0 1-.15-.051 13.59 13.59 0 0 1-1.6.301c-.915.1-1.981.167-3.2.199a3.728 3.728 0 0 0-.6.051h-.05c-1.042 0-2.117-.033-3.226-.101-1.366-.1-2.733-.217-4.1-.35h-.026a53.777 53.777 0 0 1-3.925-.601l-.85-.199h-.025a32.23 32.23 0 0 1-2.325-.726c-.797-.284-1.705-.426-2.725-.425h-.85c-1.076.035-2.234.186-3.475.45-1.45.293-2.9.718-4.35 1.274a29.485 29.485 0 0 0-4.15 1.875c-1.347.728-2.53 1.535-3.55 2.426h-.025l-.725.625-.025.024c-.692.643-1.26 1.301-1.7 1.976v-.025c-.891 1.448-1.749 3.39-2.574 5.825v.024a443.66 443.66 0 0 0-2.65 7.976v.024l-1 2.9a83.157 83.157 0 0 1-2.3 5.625c-1.247 2.762-2.747 5.203-4.5 7.325h-.025c-.812.916-1.912 1.899-3.3 2.95a64.859 64.859 0 0 1-4.625 3.175 215.504 215.504 0 0 1-5.2 3.1c-.4.233-.783.45-1.149.65-1.367.767-2.65 1.467-3.851 2.1H335a173.222 173.222 0 0 1-4.051 2.075l-1.1.55c-.511.235-.902.401-1.175.5-1.644.689-3.419 1.756-5.325 3.2-1.917 1.46-3.867 3.168-5.85 5.125-2 1.958-3.967 4.017-5.9 6.175a167.038 167.038 0 0 0-4.075 4.75l-1.3 1.55a155.555 155.555 0 0 0-4.45 5.525 227.038 227.038 0 0 0-2.95 3.95h.025c-.311.472-.577 1.338-.8 2.6a7.764 7.764 0 0 1-.15.775l-.149 1.274-.375-.05c-.011.052-.02.102-.025.15-.1.8-.2 1.684-.3 2.649l.35.025c-.2 1.934-.383 4.067-.55 6.4-.1 1.533-.2 3.1-.3 4.699v.025l-.05.65c-.034.625-.067 1.267-.101 1.925-.166 2.533-.35 5.066-.55 7.6-.167 1.934-.333 3.816-.5 5.65v.024c-.066.5-.134 1.017-.2 1.551a85.803 85.803 0 0 1-.95 6.324c-.373 1.888-.815 3.455-1.324 4.7-.192.496-.4 1.188-.625 2.075h-.025c-.258.86-.5 1.852-.725 2.975a200.66 200.66 0 0 0-.801 3.551 133.787 133.787 0 0 0-.75 3.6c-.196 1.175-.246 2.608-.149 4.3.1 1.733.233 3.5.399 5.3.167 1.776.268 3.318.301 4.625.032 1.23-.117 2.071-.45 2.525a54.442 54.442 0 0 0 1.175 2.925c.8 1.8 1.583 3.483 2.35 5.05a54.648 54.648 0 0 0 2.176 4.075l.024.025.25.45-.025-.017a35.315 35.315 0 0 0 1.475 2.275v-.025a49.322 49.322 0 0 1 2.825 4.1 85.374 85.374 0 0 1 2.3 3.9c.7 1.266 1.35 2.383 1.95 3.35v-.025c.582.911 1.115 1.628 1.6 2.149l.025.025c.512.576.819 1.442.925 2.6v.025l.05.6c.001.875-.049 1.8-.149 2.775v.025a6.136 6.136 0 0 0-.025.175l-.025.425a19.52 19.52 0 0 1-.25 1.6l-.5 2.65-4.75-.65c-.566-.1-1.1-.3-1.6-.6a5.7 5.7 0 0 1-.75-.6 5.471 5.471 0 0 1-1.075-1.075c-.408-.508-.8-1.05-1.175-1.625l.05.05-.05-.1-.05-.075c-.343-.575-.65-1.15-.925-1.726a74.684 74.684 0 0 0-.65-1.449l-.9-1.851c-.185-.369-.367-.652-.55-.85a.615.615 0 0 0-.325-.101c-.233 0-.416.167-.55.5-.166.301-.283.75-.35 1.351l-.3 3.55c.003.146.003.296 0 .45v.475a107.126 107.126 0 0 1-.351 5.4 26.644 26.644 0 0 1-.4 2.925l-.051.65c-.1.466-.183.933-.25 1.399-.133.434-.25.867-.35 1.3a55.583 55.583 0 0 1-.8 2.25c-.267.7-.55 1.317-.851 1.851-.633 1.033-1.333 1.883-2.1 2.55-.4.333-.833.634-1.3.9-.467.266-.95.5-1.45.699-.533.2-1.083.4-1.65.601-.6.166-1.233.333-1.899.5-.267.033-.5.066-.7.1-.333 0-.583-.066-.75-.2a1.221 1.221 0 0 1-.3-.3 1 1 0 0 1-.175-.125c-.379-.282-.587-.732-.625-1.35-.074-.529-.024-1.163.149-1.9.04-.174.099-.365.175-.575l-.024.025a14.1 14.1 0 0 1 .425-1.625c.161-.591.353-1.165.575-1.725.039-.184.098-.367.175-.551v.025c.233-.733.433-1.383.6-1.95.124-.454.198-.838.226-1.149a.865.865 0 0 0-.351.3c-.166.2-.3.517-.399.95-.101.366-.2.816-.3 1.35l-.85 3.452-.3.899c-.134.301-.267.584-.4.851-.166.3-.333.583-.5.85-.199.233-.399.483-.6.75-.434.467-.95.884-1.55 1.25-.634.3-1.15.601-1.55.9-.4.3-.733.583-1 .85a3.712 3.712 0 0 0-.7.8 3.22 3.22 0 0 0-.4.75l-.65 1.55c-.134.267-.284.55-.45.85a74.6 74.6 0 0 0-.7.95c-.2.2-.366.35-.5.45-.134.066-.25.116-.35.149l-.101-.05a.615.615 0 0 1-.399-.325c-.33-.093-.563-.41-.7-.95-.106-.427-.14-.943-.101-1.55a13.8 13.8 0 0 1 .25-1.95c.141-.685.332-1.318.575-1.899.208-.596.45-1.07.726-1.425h-.35c-.333.033-.7.083-1.1.149l-2.95.65-.3.1-.05-.05v-.4l-.375.025-.075-.025c-.043-.018-.076-.076-.101-.175l-.25.15.226-.3a2.808 2.808 0 0 1-.025-.426v-.55c-.067-.703-.101-1.652-.1-2.85a156.46 156.46 0 0 1-.05-4.25c.033-1.342.083-2.75.149-4.226 0-.333.017-.666.05-1 .066-1.017.199-2.033.4-3.05.143-.875.352-1.75.625-2.625a47.35 47.35 0 0 1 1.3-3.875V449l.101-.25v-.025c.133-.366.267-.717.399-1.05.664-1.56 1.264-2.81 1.8-3.75l.025-.05.225-.45v-.025c.16-.335.285-.594.375-.774l-.399-.375a73.353 73.353 0 0 1-1.45-1.5v-.025h-.025a40.43 40.43 0 0 1-1.699-2.175 8.4 8.4 0 0 1-.801-1.25l-.024-.075v-.026a11.341 11.341 0 0 1-.575-1.176 4.392 4.392 0 0 1-.1-2.725l-.025.025c.209-.876.593-1.751 1.15-2.625v.024l.8-1.25v-.024c.267-.4.55-.817.85-1.25.523-.817.965-1.634 1.325-2.45v.024a7.577 7.577 0 0 0 .525-2.574v-.025c.027-.52.035-1.087.024-1.7-.418.222-.752.271-1 .15l-.05-.025-.025-.024c-.398-.237-.766-1.096-1.1-2.575a18.357 18.357 0 0 1-.35-1.7l-.95-5.025a491.87 491.87 0 0 1-.65-3.625c-.259-1.478-.517-2.611-.774-3.399l-.101-.3v.024a34.306 34.306 0 0 0-.5-1.125c-.159-.35-.352-.7-.575-1.05a23.186 23.186 0 0 0-1.375-1.875 27.187 27.187 0 0 0-1.175-1.275l-.2-.199v.024l-.125.125-.024.05-.025.025c-.141.175-.299.35-.475.525l-.5.5c-.403.404-.771.621-1.101.649-.29.039-.506-.078-.649-.35-.095-.154-.145-.396-.15-.726v-.024c-.05-.338-.3-.763-.75-1.275V399c-.554-.593-1.271-1.218-2.149-1.875a45.799 45.799 0 0 0-2.926-1.976h-.024a57.185 57.185 0 0 0-3.175-1.899 42.315 42.315 0 0 0-2.825-1.375h.024c-.833-.352-1.458-.56-1.875-.625-.435-.002-.685.248-.75.75-.062.57-.046 1.237.051 2v.05l.05.25a.689.689 0 0 0 .024.2l.025.024v.025c.159 1.015.351 1.915.575 2.7.198.652.332 1.061.399 1.225l.476 1.226-1.025-.825c-.163-.139-.746-.663-1.75-1.575v.025a200.586 200.586 0 0 0-4.05-3.351 100.295 100.295 0 0 0-4.425-3.5c-1.378-.986-2.353-1.545-2.925-1.675-.344-.087-.544-.12-.601-.1-.039.11-.015.252.075.425.159.291.334.565.525.825.159.206.259.331.3.375l.975 1.074-.475.426-.976-.976a52.92 52.92 0 0 0-.75-.375c-.553-.267-1.27-.55-2.149-.85a18.056 18.056 0 0 0-2.851-.675h-.024a9.332 9.332 0 0 0-2.976-.101c-.794.136-1.27.36-1.425.675-.119.34-.061.707.175 1.101.253.438.554.83.9 1.175l.55.55.976.976-.025.024.025.025-.476.45-1-.976a24.844 24.844 0 0 0-.875-.5 64.827 64.827 0 0 0-2.274-1.175v-.025h-.025a25.847 25.847 0 0 0-2.9-1.324l-1.399-.525a.46.46 0 0 1-.226-.075 25.748 25.748 0 0 1-1.149-.274c-.639-.128-1.088-.011-1.351.35h-.024c-.291.421-.449.946-.476 1.575a6.555 6.555 0 0 0 .051 1.774c.051.435.067.668.05.7l-.226.65-.175-.075c-.07-.035-.653-.302-1.75-.8-1.125-.5-2.467-1.067-4.024-1.7a72.674 72.674 0 0 0-4.5-1.75c-1.094-.386-1.96-.61-2.601-.675h-.024l-.551-.05c-.508.037-.883.204-1.125.5h.025a2.95 2.95 0 0 0-.5 1.35 5.863 5.863 0 0 0-.1 1.425c.021.261.021.402 0 .425l-.25.601c-.033.001-.241-.016-.625-.05-.38-.032-.863-.115-1.45-.25l-.851-.2-.024-.025c-.309-.1-.633-.216-.975-.35a16.31 16.31 0 0 1-1.925-.8l-.025-.025c-.571-.344-1.396-.61-2.475-.8h-.025c-1.146-.231-2.587-.365-4.325-.4v-.25l-.025.25c-1.719-.065-3.735.001-6.05.2-2.359.2-4.984.551-7.875 1.05-1.959.334-4.384.801-7.275 1.4-2.9.6-6.017 1.283-9.35 2.05a551.11 551.11 0 0 0-10.1 2.4c-1.577.38-3.094.764-4.55 1.149a34.904 34.904 0 0 0-.175 2.5v.025a49.028 49.028 0 0 1-.15 2.149v.051c-.066.351-.116.717-.15 1.1v.025c-.1.708-.217 1.433-.35 2.175-.133.666-.267 1.316-.4 1.95l-.025.024a2.394 2.394 0 0 1-.075.226l-.2 1.125c-.133.433-.284.883-.45 1.35l-.5 1.3-1.825 3.675c-.08.199-.163.391-.25.575-.228.462-.453.903-.675 1.325l-3.15 6.375h-.05l-.45-.375-.05.025c-.025-.025-.158-.15-.4-.375l-1.7-1.375a21.327 21.327 0 0 0-.9-.601c-.3-.166-.55-.267-.75-.3l-.2-.05a.404.404 0 0 0-.2.05c.103.452.136.985.1 1.6v.325c-.047.252-.097.511-.15.775-.018.144-.035.294-.05.45-.066.3-.15.616-.25.949l-.25.95c-.133.267-.25.55-.35.851-.267.533-.517.966-.75 1.3-.233.267-.45.399-.65.399h-.1c-.133-.033-.25-.133-.35-.3l-.025-.024c-.324-.069-.591-.444-.8-1.125h-.025v-.025c-.206-.904-.272-1.654-.2-2.25l.1-1.65c.031-.497-.061-1.072-.275-1.725v.025c-.265-.713-.757-1.604-1.475-2.676-.804-1.229-1.204-2.529-1.2-3.899-.002-.784.064-1.534.2-2.25.064-.509.165-1.018.3-1.525l.1-.399.1-.4c.2-.842.383-1.584.55-2.225.079-.401.087-.709.025-.926-.104.03-.195.139-.275.325-.167.3-.3.767-.4 1.4l-.175 1-.025.274v.051l-.025.074a.185.185 0 0 0-.025.051v.074c-.133.726-.25 1.484-.35 2.275a36.85 36.85 0 0 1-.45 2.225l-.1.525c-.1.333-.2.65-.3.95-.1.267-.217.517-.35.75-.267.434-.583.684-.95.75l-.2.05c-.333-.033-.733-.233-1.2-.6a4.388 4.388 0 0 1-.425-.325c-1.077-.917-1.986-1.784-2.725-2.601-.799-.856-1.407-1.765-1.825-2.725-.415-.97-.657-2.095-.725-3.375-.095-1.046-.037-2.246.175-3.6a3.851 3.851 0 0 0-.175.024h-.025c-1.933.2-3.917.4-5.95.601a468.24 468.24 0 0 1-6 .55c-1.967.166-3.8.333-5.5.5-1.167.1-2.217.184-3.15.25l-.95.1H85.4c-1.243.101-2.176.201-2.8.3a17.288 17.288 0 0 0-4.175.976 28.912 28.912 0 0 0-3.85 1.774c-1.258.7-2.5 1.45-3.725 2.25h-.025c-.625.393-1.267.817-1.925 1.275v.025h-.025l-1.95 1.199a74.03 74.03 0 0 1-4.275 2.4 36.309 36.309 0 0 1-4.775 2.075 37.239 37.239 0 0 1-4.15 1.225H53.7l-3.7.55h-.025a46.418 46.418 0 0 1-4.425.2 34.62 34.62 0 0 1-8.4-1.2v-.024c-2.718-.766-5.218-1.666-7.5-2.7a4.18 4.18 0 0 0-.55-.25h-.05a113.211 113.211 0 0 1-5.225-2.775 424.315 424.315 0 0 1-3.45-2.1h-.025c-.621-.403-1.18-.653-1.675-.75a54.964 54.964 0 0 1-.725-.1l.05-.345a3.105 3.105 0 0 0-.35-.024l-.075.375-.325-.051h-.025a27.22 27.22 0 0 1-1.575-.149c-.598-.067-1.231-.26-1.9-.575a22.555 22.555 0 0 1-1.625-.925c-.6-.367-1.25-.767-1.95-1.2a38.643 38.643 0 0 1-2.125-1.425v.024l-.25-.15v-.025c-.458-.324-.9-.616-1.325-.875l-.025-.024h-.025a7.456 7.456 0 0 0-.525-.375v-.025c-.675-.5-1.316-.983-1.925-1.45a19.201 19.201 0 0 1-1.15-.975H2.8a3.348 3.348 0 0 0-.35-.325h-.025l-.025-.027a6.67 6.67 0 0 1-1.3-1.675 6.074 6.074 0 0 1-.8-2l.025.025a6.614 6.614 0 0 1-.325-2v-.15c-.002-.725.064-1.45.2-2.175a9.322 9.322 0 0 1 .725-2.025 82.13 82.13 0 0 0 1.4-3.175c.333-.891.616-1.683.85-2.375.225-.732.416-1.416.575-2.05.136-.626.286-1.301.45-2.025.167-.759.316-1.634.45-2.625.068-.642.168-1.333.3-2.074l.2-1.325v-.025a44.263 44.263 0 0 1 1.025-4.175H6.15c.407-1.549.998-3.216 1.775-5v.025c.099-.275.216-.551.35-.825.609-1.411 1.167-2.553 1.675-3.425.267-.51.533-.968.8-1.375.309-.468.601-.885.875-1.25.467-.667.934-1.317 1.4-1.95H13c.424-.646.833-1.438 1.225-2.375v-.025c.3-.666.65-1.433 1.05-2.3v.025c.366-.908.799-1.866 1.3-2.875a52.285 52.285 0 0 1 1.525-3.075l-.025.024a37.403 37.403 0 0 1 1.625-3.074c.208-.386.433-.735.675-1.051.259-.456.518-.881.775-1.274l.2-.351c.55-.819 1.1-1.519 1.65-2.1v.025a25.49 25.49 0 0 0 2.025-2.525H25c.467-.692.967-1.467 1.5-2.325l-.025.025.45-.8.1-.2.025-.025a151.71 151.71 0 0 0 2.55-4.725v-.025c.177-.334.352-.675.525-1.024v-.025a28.608 28.608 0 0 1-.425-1.9l.025.025c-.188-.803-.247-1.478-.175-2.025a8.282 8.282 0 0 1 .375-2.024 10.01 10.01 0 0 1 .725-1.976v.025a8.611 8.611 0 0 1 1.05-1.85l.4-.5.05-.051.25-.25a4.333 4.333 0 0 1-.65-.6c-.267-.267-.483-.5-.65-.7l-.4-.55-.1-.25v-.05l2.95 1.6c.073.027.148.053.225.075l-.3-.35a2.92 2.92 0 0 1 .85-.5l.75-.301c.1-.04.2-.074.3-.1a3.487 3.487 0 0 0-.775-.625c-.367-.2-.767-.45-1.2-.75l-2.6-1.85v-.051l.5.103 1.15.35c.467.134.95.316 1.45.55.5.234.967.483 1.4.75.433.301.816.617 1.15.95l.275.25.05-.149h.025v-.025a31.46 31.46 0 0 1 .85-1.475l.275.175c.018-.027.034-.053.05-.075l-.025-.5c-.033-.267-.15-.634-.35-1.1-.2-.467-.417-.95-.65-1.45l-.9-1.851v-.05l.6.75c.333.467.717 1.05 1.15 1.75.233.367.45.733.65 1.101.015.024.032.05.05.074a1.2 1.2 0 0 1 .25-.225c.229-.218.471-.41.725-.575.34-.266.798-.599 1.375-1l.85-.6h-.025c.951-.756 1.967-1.806 3.05-3.15v.025a58.847 58.847 0 0 0 3.075-4.476V304c1.033-1.601 1.966-3.05 2.8-4.351v.025c.81-1.355 1.485-2.355 2.025-3 .201-.227.417-.502.65-.825h-.025c.135-.199.285-.399.45-.6.3-.434.633-.934 1-1.5.3-.467.616-.95.95-1.45l1-1.5v.025c.267-.476.55-.95.85-1.426v.025c1-1.608 1.95-3.084 2.85-4.425.442-.677.867-1.269 1.275-1.775h.025v-.023l.1-.101-.025.05c.351-.488.684-.872 1-1.149l-.05.024c.393-.454.701-1.07.925-1.85l-.65.275h-.05l1.2-.95c.013-.065.03-.132.05-.2l-.35-.05c.232-1.394.382-2.985.45-4.775l.1-2c.034-1.158.067-2.351.1-3.575.032-1.95.182-3.784.45-5.5.1-.7.2-1.45.3-2.25.066-.558.133-1.149.2-1.774v-.025c.167-1.525.283-3.167.35-4.925l.3.025.175-2.125-.175-5.926.15-1.85.925-3.8.1-1.275-.275-.174a.758.758 0 0 0 .15-.35v-.025c.066-1.457.1-2.683.1-3.675l.05-.8v-.025a20.32 20.32 0 0 1 .45-2.85 42.633 42.633 0 0 1 1.275-4.525 79.49 79.49 0 0 1 1.4-3.975v.024l.35-.95v-.024c.6-1.509 1.216-2.967 1.85-4.375l.3.149.675-2.149c.2-.601.417-1.167.65-1.7.2-.566.45-1.1.75-1.6a7.368 7.368 0 0 1 1.6-2.15l.025-.025c.029-.049.062-.099.1-.149l-.25-.175 1.25-1.65v-.025l.025-.024a14.759 14.759 0 0 1 1.675-1.525c1.322-1.076 2.896-2.084 4.725-3.024h-.025a54.547 54.547 0 0 1 5.95-2.726 88.49 88.49 0 0 1 5.025-1.8h-.025l1.75-.6h.025c2.421-.726 4.98-.768 7.675-.125 2.401.544 4.718 1.461 6.95 2.75h.025l.65.399h-.025c2.396 1.489 4.421 3.147 6.075 4.976 1.653 1.817 2.687 3.567 3.1 5.25.308 1.64.308 3.332 0 5.074v.025c-.033.159-.066.334-.1.525v.024c-.341 1.509-.75 3-1.225 4.476v.024a81.58 81.58 0 0 0-.75 2.125v.025c-.267.725-.5 1.433-.7 2.125v.024c-.438 1.225-.629 2.199-.575 2.926v.024c.031.222.098.38.2.476.13.061.306.061.525 0l-.025.024c.277-.095.585-.236.925-.425h-.025c.367-.233.75-.483 1.15-.75v.025a32.372 32.372 0 0 0 2.075-1.676h-.025c.598-.564.915-.864.95-.899l.025.05c.063-.116.138-.167.225-.15l.8.051-.55.55-.15.125c.103.088.136.321.1.7v.024c-.1.66-.183 1.485-.25 2.476 0 .176-.017.401-.05.675-.033.675-.033 1.35 0 2.024.028.802.153 1.418.375 1.851.169.145.61-.014 1.325-.476.917-.619 1.917-1.436 3-2.449 1.1-1.033 2.066-1.967 2.9-2.801l.75-.75.05-.05v-.05l.1-.1.25-.25.5.5-.175.175a.34.34 0 0 1-.125.175l-.05.05a3.18 3.18 0 0 0-.1.101l-.025.024a9.803 9.803 0 0 0-.65.775v.024c-.325.418-.65.885-.975 1.4v.025c-.31.459-.526.935-.65 1.425v.024l-.025.051-.1.35.025-.025a2.134 2.134 0 0 0 0 .851c.087.322.337.572.75.75.214.09.489.164.825.225.325.035.725.068 1.2.101h.125c1.014-.004 2.373-.188 4.075-.551l8.5-1.85c2.29-.492 4.265-.983 5.925-1.475a32.516 32.516 0 0 0 4.65-1.801c1.451-.727 3.051-1.668 4.8-2.824a14.31 14.31 0 0 0 2.45-2.075l.025.024c.305-.415.597-.832.875-1.25.3-.533.583-1.066.85-1.6.233-.533.467-1.1.7-1.7l.6-1.8 1.2-3.9c.2-.666.434-1.366.7-2.1.233-.7.5-1.417.8-2.15l.3-.85 1.525-6.85H171c.4-2.309.9-4.9 1.5-7.775.667-3.308 1.5-6.85 2.5-10.625a154.944 154.944 0 0 1 3.625-11.725 109.755 109.755 0 0 1 5.05-12.125 90.883 90.883 0 0 1 6.774-11.85 70.146 70.146 0 0 1 8.801-10.7 53.95 53.95 0 0 1 3.175-3.025l.225.25a60.374 60.374 0 0 1 5.375-4.225 69.877 69.877 0 0 1 2.575-1.7l.85-.525c.272-.161.548-.319.825-.475l.025-.025-.075-.325c.108-.028.217-.07.325-.125l-.025.025a52.473 52.473 0 0 1 8.15-3.725 77.029 77.029 0 0 1 11.05-3.125c1.908-.4 3.816-.75 5.725-1.05a87.168 87.168 0 0 1 4.926-.625c.03-.375.071-.75.125-1.125l.199-1.7c.2-1.717.316-3.484.351-5.3a74.716 74.716 0 0 0-.05-4.725l-.65-6.475.35-.05v-.025a12.033 12.033 0 0 0-.1-.675l-.35.05a46.933 46.933 0 0 0-.75-3.725 49.6 49.6 0 0 0-2.676-7.825l.025.025c-.33-.62-.854-1.386-1.575-2.3l-1.7-2.05h.025c-1-1.125-2.117-2.35-3.35-3.675v-.025a843.226 843.226 0 0 1-5.4-6 152.547 152.547 0 0 1-5.775-6.85 73.278 73.278 0 0 1-3.074-4.125l-2.25-3.35a1.07 1.07 0 0 1-.15-.275l-3.05-5.65v-.023h-.025a48.9 48.9 0 0 1-.85-1.925c-.4-.975-.751-1.934-1.05-2.875h-.026v-.025l-.95-4.7.025.025a1.06 1.06 0 0 1-.075-.35v-3.825c.139-1.292.414-2.567.825-3.825 1.711-5.113 4.028-9.572 6.95-13.375v.025c2.921-3.83 6.296-7.088 10.125-9.775a55.157 55.157 0 0 1 12.324-6.6A71.275 71.275 0 0 1 253.5 1.35 85.67 85.67 0 0 1 267.449 0h1.851l4.075.05c2.541.1 5.05.3 7.524.6 3.649.439 7.416 1.248 11.3 2.425l2.15.7h.025c4.616 1.606 9.166 3.648 13.649 6.125a87.08 87.08 0 0 1 12.7 8.425A74.163 74.163 0 0 1 325 22zM32.8 319.175l-.05-.025.05.051v-.026z" fill-rule="evenodd"/></svg>