<svg xmlns="http://www.w3.org/2000/svg" xmlns:dc="http://dublincore.org/documents/dcmi-terms/" height="399.925" viewBox="0 0 288.533 399.925" width="288.533" overflow="visible"><metadata><dc:description>Silhouette of Muscicapoidea, processed by PhyloPic Tools (https://github.com/eweitz/phylopic-tools)</dc:description><dc:source>http://phylopic.org/image/0614db63-83eb-4ccd-8938-b6347de22b54</dc:source><dc:creator>Gareth Monger</dc:creator><dc:license>http://creativecommons.org/licenses/by/3.0/</dc:license></metadata><switch><g><path d="M141.416 253.764l-9.375 4.438 1.894 1.368-.838 1.523-12.901-8.402s-6.986-7.14-10.198-7.911c-3.667-.882-8.178-.46-9.938-1.159-2.172-.862-2.844-.238-2.844-.238s-4.661-3.549-6.269 1.185c-1.608 4.735-6.148 8.191-5.65 12.1.499 3.91-1.362 8.505 1.291 10.292 2.653 1.788 4.397 7.04 7.559 9.106 3.162 2.065 6.479 6.86 9.903 5.436 3.427-1.423 2.619.05 2.619.05s6.492-.995 8.152-7.025c1.656-6.03-.489-7.539-.489-7.539s.802 2.754-1.354 4.875l-2.154 2.12s1.154.304-1.247-1.342c-2.398-1.648-4.685-2.903-4.685-2.903l-2.514-2.042s4.137.288 5.088-.841c.95-1.131 2.524-1.589 2.762-4.432.239-2.843 2.131-1.475 2.131-1.475l20.57 11.292 1.017.557-.303 1.155s.164-.902-2.271 1.728c-2.436 2.631 3.236.125 3.236.125s-.164.9-1.051 3.72c-.885 2.817 1.399 4.072 1.399 4.072s-.508-.279.772-3.212c1.278-2.932 4.246-5.931 4.246-5.931l1.442-20.69z"/><path d="M76.057 84.397V80.41l-1.772 1.772S65.179 65.89 61.017 62.401c-4.162-3.488-5.866-6.007-10.487-7.972-4.621-1.965-7.884-1.975-10.583-2.33-2.7-.355-16.234.836-25.754.488C4.674 52.24 0 49.686 0 49.686s6.137-4.395 13.657-6.539c7.521-2.146 29.572-7.645 29.572-7.645s.216-.91 1.047-1.575c.831-.667 4.283-1.86 4.283-1.86l.572-3.608.934.511.47-4.786.935.51s2.052-7 4.57-8.705c2.519-1.704 5.28-4.022 5.28-4.022l.104 1.177s6.759-7.416 9.943-8.289c3.186-.874 4.042-1.246 4.042-1.246l-.191 1.204s6.959-1.799 10.196-2.084l4.412-.388-1.341 1.601s17.015-2.091 19.15-1.39c2.138.702 1.28 1.074 1.28 1.074s12.556 4.528 13.812 5.307c1.255.779-1.1.986-1.1.986l3.661 1.16-2.328.502s12.97 9.235 19.908 13.962c6.941 4.727 17.645 22.359 20.102 23.33 2.458.969-1.073 1.28-1.073 1.28s8.087 5.41 5.45 4.415l3.958 5.654c2.075 2.799-.673 1.305-.673 1.305s.504 1.917 4.2 2.996 5.917-.869 9.127 2.523c3.212 3.391 19.173 17.915 24.818 26.95 5.646 9.036 10.927 19.804 15.569 36.476 4.645 16.672 10.949 46.974 17.586 67.082 6.637 20.11 3.318 10.055 6.592 24.629 3.274 14.571 8.877 33.86 8.695 40.462-.182 6.602-2.204 6.177.064 11.181 2.268 5.005 2.191 6.8 1.857 11.259-.333 4.455-1.291 7.574-1.291 7.574s2.284 9.234 5.998 20.278c3.714 11.043 6.043 15.758 5.617 17.782l-1.033 4.913s6.5 16.459 11.05 24.961c4.55 8.503 10.958 22.526 8.509 24.125-2.449 1.598-5.293 2.207-7.073.624-1.78-1.581-.64.168-2.798 1.828-2.16 1.658-5.508.351-6.359-1.339-.854-1.688-.775 2.252-2.859 2.115-2.086-.137-7.669-3.726-7.669-3.726s.214 1.857-.911 4.337c-1.125 2.48-2.602-.548-2.602-.548s.062 5.446-2.205 6.177c-2.266.73-3.18-.669-3.18-.669s.367 4.002-2.417 4.321c-2.784.32-3.118-.958-3.118-.958l-1.416 2.419-2.524-2.342-1.11.974s-1.475 2.708-4.305 1.812c-2.83-.896-5.902-.638-8.643-10.571-2.741-9.933-7.859-37.268-9.092-41.45-1.232-4.185.014-7.242-7.84-21.57-7.852-14.329-15.143-27.029-17.211-28.672-2.069-1.643-6.907-4.471-6.907-4.471l-.546 2.603-4.535-4.273s2.893 12.077 10.077 29.584c7.184 17.509 15.325 31.897 15.417 34.331.092 2.436-.592 7.121-1.078 9.433-.486 2.312-2.038 1.08-2.038 1.08l.382 2.494s-.715 1.964-8.049-6.219-20.283-22.677-35.014-44.488c-14.731-21.811-44.332-80.556-47.984-86.153-3.652-5.597-21.271-22.28-28.12-38.511s-10.171-37.755-10.126-42.273c.045-4.518.711-13.433.711-13.433l-2.387 1.309 3.358-11.669-1.915.503 1.503-5.721s.151-3.59-.656-9.796c-.808-6.206-1.674-6.389-1.674-6.389l1.2-10.009-3.029 1.393 3.701-9.197-2.963.04 2.071-3.251z"/><path d="M88.908 4.881s3.857-2.447 4.616-2.853c.758-.405 3.973-.952 3.973-.952s-4.862 2.205-5.262 3.1c-.398.896-3.327.705-3.327.705zM96.567 3.716l.375-.216c1.376-.791 6.154-3.472 7.678-3.497 1.787-.028 2.235.172 2.235.172s-3.149.122-3.795 1.196a5.217 5.217 0 0 1-1.647 1.659l-4.846.686zM97.723 1.589l-.174 1.409-4.22 1.131z"/></g></switch></svg>