<svg xmlns="http://www.w3.org/2000/svg" xmlns:dc="http://dublincore.org/documents/dcmi-terms/" height="325.322" version="1.2" viewBox="0 0 1165.135 325.322" width="1165.135" overflow="inherit"><metadata><dc:description>Silhouette of Myctophum punctatum, processed by PhyloPic Tools (https://github.com/eweitz/phylopic-tools)</dc:description><dc:source>http://phylopic.org/image/93b9ea15-3319-4b74-8003-e4a9f25ec680</dc:source><dc:creator>Emma Kissling</dc:creator><dc:license>http://creativecommons.org/publicdomain/mark/1.0/</dc:license></metadata><path d="M576.132 0c1.032 7.032-2.649 9.351-6 12-.558 14.791-6.686 23.303-10 40-3.443 1.557-6.588 3.412-9 6 3.448 2.953 1.038 1.688 1 6-.022 2.468 2.953 1.482 3 2 .09.986-2.94 1.847-3 4-.064 2.331 1.991 12.341 1 18-1.342 7.664-7.438 17.928 1 23-4.866 3.134-13.18 2.82-17 7 42.983 9.909 110.085 8.742 165 12 10.201.605 20.337 3.087 29 2 5.532-.694 10.854-4.545 16-5 26.411-2.336 39.962 13.058 60 18-1.395 2.939-7.278 1.388-9 4 18.254 9.079 50.578 4.088 70 12 11.167-4.165 20.59-.342 31-2 6.354-1.012 11.965-2.915 22-4 12.821-1.387 26.396-2.852 40-5 18.873-2.98 37.081-15.661 58-18 39.323-4.396 82.078-25.927 117-36 8.135-2.346 15.113 1.142 22 5 5.98 18.26-9.381 29.938-15 43-19.605 11.728-28.606 34.061-51 43v8c-10.416-.749-9.3 10.034-18 11-.476 5.476 4.476 5.524 4 11 4.244 6.089 13.297 7.37 15 16 17.008 3.325 22.467 18.199 37 24 4.865 7.802 12.641 12.692 21 17 .912 6.088 5.172 8.828 9 12-2.172 6.982 5.157 14.029 5 22-.121 6.146-4.993 9.986-7 16-25.946 4.322-49.908-6.593-74-15-15.816-5.52-32.217-11.347-48-17-16.473-5.899-33.67-10.41-50-16-16.901-5.785-33.525-12.141-49-16-12.375-3.086-20.103-4.264-29-13-30.47-3.375-66.405-3.725-99-2 8.67 7.33 25.787 6.213 36 12-2.644 8.022-12.171 9.163-15 17h-8c-5.545 7.789-20.546 6.121-23 17-12.772.421-17.391 6.887-25 13-5.132 4.122-6.118 11.702-20 10 .081 5.081-5.472 4.528-5 10-22.958.575-40.642-11.138-62-12-4.95-.2-9.947 1.239-15 1-18.461-.874-36.371-9.363-55-12-13.765-1.948-27.365.55-39-7-32.821.468-68.62-3-97 6 19.183.484 36.232 3.101 45 14-.673 5.327-5.345 6.655-7 11-22.521 1.646-44.505-3.266-64-9-10.173-2.992-19.153-9.826-29-12-9.683-2.137-27.408-1.025-45-2-32.227-1.785-66.323-1.393-102 1-33.215 2.227-68.313 8.528-101 8-21.326-.345-42.134-5.529-62-8-43.228-5.377-101.777-8.523-112-48 .206-4.461 5.471-3.862 7-7-19.964-12.674-10.038-56.05 6-67 5.899-4.027 11.608-4.848 16-9 4.742-4.483 7.008-10.191 12-15 31.912-30.739 87.75-52.971 145-63 18.15-3.18 32.282-5.045 54-6 32.103-1.411 60.28 4.114 91 7 16.624 1.562 26.961.552 43 0 7.699-.265 15.692 2.599 22 1 3.816-.967 10.254-7.022 16-11 5.648-3.91 11.897-6.877 17-10 13.571-8.307 23.256-15.156 39-23 10.931-5.446 15.754-8.909 29-13 13.656-4.218 23.722-13.044 35-19 13.177-6.958 26.199-13.762 38-20h2z" fill-rule="evenodd"/></svg>