<svg xmlns="http://www.w3.org/2000/svg" xmlns:dc="http://dublincore.org/documents/dcmi-terms/" height="274" viewBox="0 0 736 274" width="736"><metadata><dc:description>Silhouette of Myrmecobiidae, processed by PhyloPic Tools (https://github.com/eweitz/phylopic-tools)</dc:description><dc:source>http://phylopic.org/image/decf3474-61e7-4b5c-a3aa-d5adb13d89cb</dc:source><dc:creator>Sarah Werning</dc:creator><dc:license>http://creativecommons.org/licenses/by/3.0/</dc:license></metadata><path d="M648 51.25l3.25 2.25 7.5 3.75 5.75 2.25 5.75 3.75 4 2.25 4.5 4.75 5.5 5 4.25 5.25 4 6.75 4.5 6.25 5.75 6.485 6.25 5.265 6.5 4.75 3.25 3 4.25 4 2.75 3v2.75l-1.25 3-3.25 3.5-4.25 1.25h-9.25l-9.25 1.25-11.625-1.25L682 129l-5-1.5-2.25-1-7.5-.5-4.25-.75-5-1.25-3.25-.25-6.75 3.5-9.5 4.5-12.75 4.5-6.75 5-10.5 6.25-5.25 4 .111 3.005 2.022 3.994 2.688 5.485 1.069 4.161-2.259 6.546-3.381 4.809-4.5 7.75-6.5 10.5-1.5 4.5-1.75 4.75v8l-4 3.75-2.75 2.5-2.25 1.5v-9l-2.25-3-2.75-2.5v-7.5l3-3.75 2-2.75-1.5-1.5 1-3.25 1.75-1.5.25-2.25 3.25-6 .75-2.5-3-3.25-2.5-1.25-13.5 10-10 4.75-3.75 6.75-2.5 12.5V232l1.25 9.25 1.5 7.25.75 3.75 2 3h7.5l3 1.5 2.165 2.785.544 3.693-4.459.772H546l-3.5 1.5-5-2-3.25-4.25v-5l-3-10-3.25-8.75-2.25-5.25-2.5-4.75-2.25-3.75-1.5-1.75v-5.25l-4-8.25V203l-5.25-10-7.25-10.75-2.75-4.25-4.25-2-7.5-.5-6.25-3-10.5 1-18.5.5-15.75-1.75-10-2.5-7.75 8.75-7.75 6-10.25 7.75-6.5 4-5.25 6-1.25 3.25 2 5 6.75 7 8.75 9.5 10 5.75 5.5 1.75 7.75 3.25 2.25 3.5-3.25 1.25-3.75.25s-2.25 1-3 1-8 .25-8 .25l-7.25-2-7-.25-6.25-6.75-7.75-6.25-10-9.25-3.25-5.25-2-1v-5.5l-4.25 1v-6.25l-2.75-.75V196l-2.75.5 2.75-5.5 4.5-5.75 3.25-5.5.25-5.25-.5-3-1.25.75.25-6.5-.75-3-6-2-12.25 3.75L342 175l-7 5.25-9.25 6.75-7 5.5-13.75 5.75-12 5-10.25 1.25h-3.5v4.75l-4 7.25-3.25 9-1.75 9.25V240l7.25 7 1.75 3.5-2.5 2.5-6.5.5-6.75-5-1.5 3.75s-3 .5-3.75.75-4.25-2.75-4.25-2.75l-2-6.25v-15l6.75-21 4.25-14.5 4.5-13.5 3.5-4.75-2-6.5V165l-3-3.75 1.5-7.25 7.25-6 3.25-6.5 2.25-6.5 2.25-9-3.75 2.75 1.75-7-7.25 5-4.75 4.5-6.75 9 1.5-5.5 1-6.5-3 1s-1.75 2.75-2 3.75-1 5.25-1 5.25-.75 4.25-1.25 5-2.25 3.25-2.25 3.25l-5.25 4.25s3.25-5.5 4.25-7 2.5-6.75 2.5-6.75l-2.5.5-1.5 3.25-2.75 5.5 2.25-8.75-5.75 9 2.75-9-4.75 2.25-2.25 2.75s-1.25 3.25-2.5 5.25 0-6.25 0-6.25l-.556 1L232.5 153l-4.5 7.25-3 7v-4.75s-6.25 10.5-4.75 7 2.25-9.75 2.25-9.75L218 168v-5l1.25-6.75-10.75 17h-2.75v-3.75l-4.25 6.5-9.75 2.75v-6l-5 7.667-2.5 3.833s-5.5 1.75-4.5 1 5.25-12 5.25-12l-17.5 18.5-8 9v-2.25l-5.5 4.25 2.75-5.25-10.5 6L140 201l7-7.25-12.5 7.5 3-8-11.75 6-20-5.75-3.5 1v-3l-13.25-5s-6.75 2.5-7.5 2.25 6.5-6.25 6.5-6.25H71l6-7-13.5-.75 6-5.5s-10.5.5-8.5.5 7.75-3.5 7.75-3.5l-15.5-.75 4.25-3.75-11.5-.25 4.25-2s-10-3.75-9.25-3.75h8L30.5 148l3-2.75-5-4.5-8.25-7.75 8 2.5L16 125l-7.75-10.5 3.75-1-3.75-6.75 8.25-1.5L6.25 98.5s10.5 2.22 9.5 1.485c-1-.735-8-9.485-8-9.485s7.5 0 6.75-.5-6.75-10.5-6.75-10.5l3-2.5 2.5-.25L12 74.5l2-1-2-3.75 3-.25-3-4.75 6.75 1.75 6.5 3-3.75-5.25 6.25 1.5L33.5 68l4 .75-5.75-5.25 4.5.5-1.75-4.25L37 61.5l.25-3 3.5 1.5-1.25-5s10.25 8 11 8 9.25 9.25 9.25 9.25l9 13.25L75.5 96l6.5 10.25 4 8.25 6.75 7.75s5.25 7 6 7c.521 0 3.339 2.176 5.008 3.501.731.581 1.242.999 1.242.999l12.5 5.75-1.25-2.75 17.25 8.75h16l18.5-4.75 14.75-8 24.5-18.5 6.25-4.25-5.25.25 2.25-1.5s-4 .5-4.75.5 11.5-6.5 10.75-6.25-8 1.25-8 1.25l15.75-8s-10.75 1-10 1 19.5-8.5 19.5-8.5l-11.75-1 14-3.25 2.75-3-9.25-2 9.25-2.5s4.25-3.25 3.5-3.25-4.75-1.25-3.5-1.25 6.5-1.25 6.5-1.25-5-5-3.5-4.75 10-.5 10-.5 4.5 1.5 6.25.75-12.5-9.25-12.5-9.25l14.25 2.75 8.75 2 7 2-1-3.75h2l-3-5.5 4.11 2.501 1.64.999 3-1.75L280 53.5l.75-2.25-5.25-5 12.5 6 3.25-.5s7 1 7.75 1.5 3.25 0 3.25 0l-2.25-3.5 5.5 1L309 49l4.5-2.75-13-9.25.25-2.75 12.5 6 .75-2.5h8l7.75 3.5V37.5l.5-1.75-2.25-3 5.5 1.75.75-3.75h2.5l4.5-1.5s-2-2.75-1.25-2.5 14 2 14 2L352 24h4.25l-1.75-2.75 6.75 2s-5-7-4-7h5l-2.5-3.5 9.75 4.5 1.75-4.5 9.5 2.75 5.25.25-1-3 6 2.5 2.75-2.5h5.75l-.25-2.75 3.75 1.75 2.25-1.75 2.75 2.25 7-2.25 3.75-1.25-2-3 10 2.25 9.5.75 10 1 12 1.75 8.25 1.25 9.25 2.5 6.5 2.75.25-2.5 4.25 3 2.5 1.75.5-3.75 3.75 2.25 3.5 2 1.5-.25 4.5 3.75 4.75 3 1.25-2 2 2.5V23.5l3.5 4 7.75 1.5 3.75 2.25 5.5 1.5 3.25 1.5H537l.75 2 3.25.25s.5-3.5.75-2.75 3.5 4.75 3.5 4.75l3.5 1v-2.25L553.5 42l4 2 1.25-1.5 3.25 3 3.75 1.5 7 2.5 1.75-1.75 6.25.25 1.75 2.5 2.75.5h5.25l5.25-2.75 6-1 1.5.75H607l.75-2.75.25-5.75 1.5-3.25 3.25-4.5L615 30.5l4.5-.25 2.75 1.25 3.5 2.75 3 4 1 2 .5-5.75 1.25-7 1.75-7 1.5-5 4-4.25 2.75-1.5 3.25.25 2.75 2 1.75 3.75.5 7.5v16l-1.25 5.25-1 5.25.5 1.5z"/></svg>