<svg xmlns="http://www.w3.org/2000/svg" version="1.2" width="537.351" height="146.148" viewBox="0 0 537.351 146.148" overflow="inherit"><path d="M346.8 60.495c13.199-.667 26.35-.35 39.449.95 29.467 2.8 48.95 18.767 58.45 47.9a34.226 34.226 0 0 0 5.75 6.65c7.167 6.333 13.066 10.399 17.7 12.2 4.667 1.767 8.517 3.333 11.55 4.699 3.033 1.334 8.517 1.9 16.45 1.7 7.967-.233 14.5-.7 19.6-1.399 1.467-.233 5.4-1.101 11.801-2.601 6.433-1.5 9.666-1.75 9.699-.75.534 1.467-1.033 2.917-4.699 4.351-3.667 1.399-8.051 3-13.15 4.8-5.066 1.767-10.7 3.5-16.9 5.2-8.6 2.366-17.233 2.583-25.899.649a83.249 83.249 0 0 1-7-2.05c-.934-.3-3.483-1.267-7.65-2.9.101.101.15.233.15.4 0 .434-.05.65-.15.65h-.6c.066.133.1.25.1.35 0 .3-.017.45-.05.45a.556.556 0 0 1-.2.1c.033.033.05.084.05.15 0 .467-.05.6-.149.399h-.25c-.033.167-.084.267-.15.301-.033.033-.184.116-.45.25l-.399-.15a1.996 1.996 0 0 1-.15-.4c-.033.134-.066.217-.1.25h-.351c-.066-.033-.183-.399-.35-1.1-.6-.3-1.134-.65-1.6-1.05-1.101-.101-1.917-.7-2.45-1.8a5.498 5.498 0 0 1-.601-2.101 158.732 158.732 0 0 1-10.3-5.5c-.633-.333-1.366-.8-2.2-1.399-.5-.4-1.033-.851-1.6-1.351-4.833-3.399-8.517-7.883-11.05-13.45-.834-1.866-1.7-3.716-2.601-5.55-4.366-12.8-12.233-21.967-23.6-27.5-10.5-5.166-21.616-7.783-33.35-7.85-26.967-.101-53.534 3.684-79.7 11.35-2.867.5-5.75.934-8.65 1.3-6.7.9-13.45 1.351-20.25 1.351a71.008 71.008 0 0 1-21.5-3.3c-.8-.267-1.583-.534-2.35-.801-4.7-1.6-8.9-4.116-12.6-7.55-1.967-1.866-3.3-4.183-4-6.95-2.133-8.5-1.65-16.9 1.45-25.2 1.9-5.033 1.95-10.083.15-15.15-2.934-8.333-8.483-13.05-16.65-14.15-8.1-1-16.117-.3-24.05 2.1-7.367 2.3-14.6 4.917-21.7 7.85a252.29 252.29 0 0 0-19.4 8.75 149.89 149.89 0 0 1-21.65 8.55c-7.567 2.4-15.367 3.517-23.4 3.35a120.17 120.17 0 0 1-24.15-3.15 88.456 88.456 0 0 1-19.85-7.4c-.967-.5-1.934-.983-2.9-1.45a109.234 109.234 0 0 0-21.75-7.55c-6.7-1.667-12.4-5.15-17.1-10.45-2.367-2.667-3.117-4.85-2.25-6.55a17.085 17.085 0 0 1-1.65-.948h-.1v-.05c-.5-.3-1.017-.65-1.55-1.05C2.017 5.395.7 4.511 0 4.245l.6-.15c1.5.567 2.867 1.117 4.1 1.65a21.568 21.568 0 0 1-.55-1.25c-.433-.967-.65-1.6-.65-1.9 0-.233.066-.4.2-.5.034.067.083.15.15.25 1.267 2.1 2.066 3.217 2.4 3.35.3.433.55.749.75.95l-.1.1c.6.267 1.1.533 1.5.8.8-.667 1.917-1.217 3.35-1.65 8.1-2.533 15.283-.833 21.55 5.1a32.615 32.615 0 0 1 3.55 3.85l11.5 3.65a99.259 99.259 0 0 1 14.95 6.9c6.967 3.867 14.45 6.167 22.45 6.9 8.033.733 15.883 0 23.55-2.2 7.867-2.167 15.5-5.167 22.9-9 6.6-3.3 13.233-6.417 19.9-9.35 7.667-3.333 15.583-6 23.75-8a145.788 145.788 0 0 1 21.7-3.55c7.4-.667 14.567.383 21.5 3.15 7.767 3.2 13.783 8.684 18.05 16.45.633 1.233 1.2 2.5 1.7 3.8a16.92 16.92 0 0 1 1.15 7.4 91.814 91.814 0 0 1-2.85 17.85c-.267.833-.6 1.65-1 2.45-2.9 5.733-2.567 10.617 1 14.65.233.167.483.333.75.5 4.633 3.333 9.7 5.1 15.2 5.3a114.4 114.4 0 0 0 23.65.15 213.048 213.048 0 0 0 13.15-2.4 266.407 266.407 0 0 1 56.95-9z" fill-rule="evenodd"/></svg>