<svg xmlns="http://www.w3.org/2000/svg" version="1" width="1568pt" height="2252" viewBox="0 0 1568 1689"><path d="M241.5 41.9c-.3.6-3.3 2.6-6.6 4.7-5.5 3.3-6.3 3.5-8.7 2.4l-2.7-1.2 2.8-1.4c3-1.6 3.5-3.2 1.3-4-1.9-.7-7.3 2.1-11.3 5.9-2.9 2.7-3.5 2.9-5.9 1.8-2.2-1-2.4-1.4-1.3-2.7 2.8-3.4-.9-3.1-7.3.7-3.7 2.2-8.1 4.2-9.8 4.5-3 .6-3.1.5-2.4-2 .9-3.7-.5-3.3-5.6 1.6-5.5 5.3-7.8 6.6-10.9 5.8-2.1-.5-2.2-.7-.7-1.9 1.7-1.4 2.1-3.1.8-3.1-.4 0-2.9 1.8-5.6 4-4.9 4.1-7.4 4.7-4.1 1 1-1.1 1.5-2.3 1.2-2.6-.9-1-3.6 1.5-5.3 4.8-.8 1.6-2 2.6-2.5 2.2-.6-.3-2.6 1-4.4 2.9-2 2.1-3.6 3.1-3.8 2.4-.6-1.7-1.7-.4-3.2 4-1.3 3.4-1.4 3.5-1.5 1.1-.1-6.3-4.3-3.8-5.5 3.3-.4 2.1-1.1 3.9-1.6 3.9-1.2 0-1.1-1.7.2-4.1 1.1-2.1.4-5.9-1.1-5.9-.5 0-1.6 2.1-2.6 4.7-.9 2.7-2.7 5.9-4 7.2l-2.3 2.5 1.4-4.9c1.9-6 1.9-6.5 0-6.5-.8 0-1.8 1.4-2.3 3.2-.4 1.8-1.5 3.3-2.2 3.3-1 0-1.7 1.8-2.3 5-1 5.9-2.5 8-3.3 4.7-.4-1.2-1-2.2-1.4-2.2-1.3 0-2 2.9-2 8.5 0 2.9-.3 6.1-.6 6.9-.6 1.5-.8 1.5-1.9-.1-.8-1-1.6-1.5-2-1.2-1.1 1.2 1.7 22.3 3.5 25.5.9 1.6 2 4.6 2.4 6.6.3 1.9 1.6 4.4 2.7 5.4 3.4 3.1 4 4.9 5.3 18.2 1.1 10.2 1.1 13.2.1 15.2-.7 1.5-.9 3.3-.4 4.5.4 1.1.8 2.7.8 3.5.1 2.1-12 8.1-14.7 7.3-1.4-.3-2.9.3-4.6 2.1-3.1 3-3.3 6.8-1 14.1 4.5 14.1 5.5 23.4 4.2 37-.5 5.5-1.1 18.1-1.4 28-.3 15.9-.1 18.5 1.6 22.5 2.5 6 6.6 14.5 9.6 20 1.3 2.4 2.4 5.7 2.4 7.3 0 1.5.9 4.5 2 6.7s2 5.8 2 8c0 3.8.6 4.7 6.8 10.6 3.7 3.5 8 6.7 9.5 7.1 2.2.4 2.7 1 2.4 2.4-.7 2.7 1 3.4 2.3 1 1.5-2.8 4-1.5 4 2 0 1.6.5 2.9 1 2.9.6 0 1-.6 1-1.4 0-2.4 2.8-4 4.4-2.6 1.1.8 1.3 2.5.9 6.2-.5 4.1-.3 5 .8 4.6.8-.2 1.6-2.2 1.9-4.3.6-5 4-7.3 8.3-5.6 2.8 1.1 2.9 1.3 2.2 6.1-.8 6 .4 6.5 3.5 1.5s5.4-4.7 4.5.5c-.5 3.2-.4 4 .8 4 .9 0 1.8-1.3 2.2-2.9.3-1.6 1.2-3.2 2-3.5 1.1-.4 1.1.1-.1 3-.8 1.9-1.2 3.9-.9 4.4 1 1.7 3.5 1.1 3.5-.8.1-.9.7-2.8 1.4-4.2 1.3-2.3 1.4-2.2 1.9 3 .3 3 .6 6.8.6 8.4.2 5.6 2.6 4.6 3.6-1.5.5-2.9 1.1-3.9 2.3-3.7 1.5.3 2.3 2.2 3.6 8 .8 3.5 2.6 3.7 2.6.3 0-1.7.5-2.5 1.8-2.5 2.9 0 4.1 2 3.5 5.6-.4 2.2-.2 3.4.6 3.4.6 0 1.4-1.8 1.7-4 .4-2.6 1.3-4.1 2.5-4.5 3.1-1 4.2.4 3.6 4.7-.4 2.7-.2 3.8.6 3.5.7-.2 1.3-1.6 1.5-3.1.4-3.6 2.4-2.8 3.5 1.3.4 1.8 1.1 3.1 1.4 2.7.3-.3 1.2.2 1.9 1.2 1.9 2.6 2.7.9 1.5-3.4-1.1-3.9-.2-6.2 1.8-5 .6.4 1.1 1.7 1.1 2.9 0 1.5 1.1 2.8 3.5 4.1 4.2 2.3 5 1.7 4.7-3.2-.2-2.5.1-3.3.7-2.3.5.8 1.8 1.2 3 .8 1.3-.3 2.1 0 2.1.8 0 .7 1 2.4 2.1 3.9 3 3.8 4.6 1.9 2.3-2.5-1.6-3.3-1.6-3.4.2-1.8 1.1.9 4.7 3 8.2 4.7 4.5 2.2 6.2 2.7 6.2 1.7 0-.8-1.2-2.1-2.6-2.8-2.6-1.4-2.5-1.4 3-2.1 6-.7 9.6.7 11.7 4.5 1.4 2.6 3.3 2.4 2.6-.3-.7-2.6.8-4.8 3.4-4.8 1.2 0 1.9.7 1.9 1.9 0 1.1.5 2.3 1 2.6.6.3 1-.5 1-1.9 0-3.2 1-5.6 2.3-5.6.6 0 2.8 1.2 4.8 2.6 3.5 2.4 4.1 2.5 7.4 1.4 2-.7 3.8-1 4-.8.3.2.8 2.8 1.2 5.8 1 6.9 2.7 7.4 4.2 1.3.7-2.6 2-5.6 2.9-6.7 1.6-1.7 1.7-1.6 2.2 3.5.5 5.1 3 8.4 3 3.9 0-1.1.8-3.5 1.8-5.3l1.7-3.2.3 4.5c.2 2.5.7 4.9 1.3 5.5.5.5.9 2.8.9 5.2 0 5.9 1.6 5.4 2.4-.7.4-2.7 1.1-5.2 1.6-5.5 1-.6 2.4 3.1 1.6 4.4-.4.5 1 1.9 2.9 3.1 3.3 2 4.6 4 2.6 4-1.1 0-4.5 9-3.6 9.8.4.4 1.5-.4 2.6-1.6l1.9-2.4 1.1 2.6c1.1 2.3.9 2.9-.9 4.9-1.2 1.3-2.2 2.9-2.2 3.5 0 1.7 3 1.5 3.6-.3.4-.8 1.1-1.5 1.6-1.5.6 0 .1 1.6-1.1 3.6-1.2 1.9-2.1 3.9-2.1 4.5 0 1.9 2 .8 3.4-1.9l1.5-2.7.1 2.7c0 1.8-.6 2.9-2 3.3-1.1.3-2.3 1.7-2.6 3.1-.7 2.6.5 4.9 1.4 2.5.8-2.2 4.2-5.2 5.2-4.6.6.4.4 1.8-.5 3.5-.8 1.6-1.5 4.2-1.5 5.9 0 1.6-.4 4.1-1 5.5-1.4 3.8.8 4.4 3.6 1l2.3-2.9.1 6.1c0 4.3-.5 6.5-1.5 7.4-1.6 1.4-2 4-.6 4 .5 0 1.5-.7 2.2-1.7 1.2-1.4 1.5-1.2 2 2.3.4 2.1.3 4.9-.2 6.1-.6 1.7-.5 2.3.6 2.3 2.7 0 2.7 2.1 0 6.1-2.9 4.5-2.7 6.3.5 3.4 2.4-2.2 2.4-2.2 4.5 4 .9 2.7 2.5 6 3.6 7.1 1.9 2 1.9 2.4.6 5-2 3.9-7.6 8.3-17.8 13.9-10.1 5.6-13.5 7.1-21.4 9.5-11.7 3.6-22.8 8.1-28.4 11.5-5.3 3.2-21.3 9.5-24.3 9.5-.7 0-3.7 1.7-6.5 3.9-2.9 2.1-7.4 4.9-10 6.1-2.6 1.2-8.4 3.9-12.8 6s-10.5 4.5-13.5 5.4c-12.7 3.6-15.9 4.6-24.5 7.6-8.9 3.1-25.9 6.2-34.5 6.3-10.6.1-24.9-.6-26-1.3-.6-.4-1.9-2.1-2.8-4-.9-1.8-3-4-4.7-4.8-7.9-4.3-13.3-7.9-17-11.2-2.2-2.1-6-4.5-8.5-5.4-2.5-1-6.1-3.2-8-5.1-1.9-1.8-4.6-3.6-6-4-2.6-.8-6.6-3.4-11.6-7.6-1.9-1.6-5.5-3-9.5-3.8-3.5-.8-8.6-2-11.3-2.7-2.7-.8-6.3-1.4-7.9-1.4-1.7 0-5.3-1.4-8.1-3.2-5.4-3.5-11.1-4.3-14-1.9-2.6 2.2-2 6.7 1.4 10.3 1.6 1.7 3 3.7 3 4.4 0 1.4 5.3 4.5 10 5.9 1.4.4 4.8 2.6 7.5 5 2.8 2.3 6 4.7 7.2 5.4 1.3.6 3 2.6 3.9 4.4 1.9 3.7 9.2 10.6 11.2 10.7 1.8 0 15.2 12.9 15.2 14.5 0 .7 1.3 5.3 3 10.3l3 9.1-2 6.3c-2.6 8.2-2.5 11.8.5 20.2 2.8 7.9 4.3 9.8 9.9 12.6 2.2 1.1 5.5 2.9 7.1 4 4.4 2.9 6.4 2.5 11.5-2.5 5.1-5.1 5.8-5.2 15.8-4.1 5.9.6 9.2 1.8 17 5.9 6 3.1 11.2 5.1 13.7 5.3 14.4.9 22 1.8 29 3.4 16.5 3.8 88.5 4.5 100.4.9 2-.5 6.2-1.4 9.3-1.9 3.2-.5 6.9-1.7 8.3-2.8 1.9-1.5 4.8-2.1 12.2-2.7 5.4-.4 11.4-1.3 13.3-2 1.9-.7 6.1-1.8 9.2-2.5 3.1-.6 7.2-2.2 9.1-3.5 3.5-2.3 8.7-3.6 14.8-3.6 1.9 0 4.5-.4 5.9-.9 1.4-.5 4.2-1.1 6.2-1.5 2.2-.3 4.9-1.8 6.8-3.6l3-3.1 1.5 3.6c2.6 6.1 1.8 14.1-3 31.1-.9 3.2-2.5 7.5-3.5 9.5-1.8 3.5-3.5 13.2-4.5 26-.3 3.6-1 7.4-1.5 8.5-1.6 3.5-3.2 11.8-3.4 17.6-.1 3.1-.7 6.3-1.2 7-3.5 4.5-4.5 10.3-4.5 26.3 0 13.6-1 28.1-3.3 50.1-.2 2.2-1.1 5.9-2 8.2-1.5 4.1-5.4 24.3-5.6 29.3-.7 19.3-1.9 26.7-4.6 28.8-1.4 1-3.9 1.3-9 .9-6.4-.3-7.7-.8-11.5-3.9-8.4-6.7-18-8.3-24.6-4.2-1.2.8-3.3 1.4-4.7 1.4-1.6 0-2.7.7-3.1 2-.8 2.5.1 4 2.3 4 2.5 0 5.2 5.5 5.2 10.5 0 3-.8 5.6-2.7 8.4-4.4 6.7-11.4 9.2-34.3 12-4.1.5-9.8 1.6-12.7 2.4-5 1.4-12.3 6.1-12.3 7.8 0 1.5-7.2 9-11 11.5-10.1 6.7-13.8 9.7-17.7 14.4-4.7 5.7-5.1 6.9-2.7 10.5 1.3 1.9 2.5 2.5 5.4 2.5h3.9l-1.1 3.2c-.6 1.8-1.4 6.2-1.8 9.8-.9 7.6-1.2 8.8-4.8 15.7l-2.7 5.2 2.1 2.8c1.2 1.5 3.8 3.4 6 4.1 4.6 1.6 7.4 3.9 7.4 6.3 0 4.7 4.2 7.9 10.5 7.9 2.9 0 4.5-.9 8.3-4.5 2.6-2.5 6.3-5.9 8.2-7.5 1.9-1.7 4.8-4.2 6.4-5.6 2.6-2.3 9.3-5.4 11.8-5.4 1 0 .8 2.1-.8 11.2-1.3 7.6 2 12.8 8.2 12.8 2.7 0 4.2-.7 6.2-3 1.5-1.6 3.6-3 4.9-3 3.6 0 6.6-1.9 9.8-6.1 7.6-10 7.5-9.9 11.5-9.9 6.3 0 17.2-2.9 22-5.9 8.4-5.2 21.2-9.1 30.1-9.1 3.6 0 6-.6 8.1-2.1 1.6-1.2 4.4-2.5 6.1-3 12.9-3.4 15.6-5 24.2-14.1 6.4-6.9 9.7-11.7 14.8-21.1 4.8-9 8-13.6 12.1-17.5 3.1-3 5.6-5.7 5.6-6.2s2.4-3.3 5.4-6.2c3.1-3.1 5.7-6.6 6.1-8.3 1.3-5.7 2.6-8.2 5.1-9.4 1.5-.7 3.3-3 4.6-5.9 2.5-5.7 9.8-13.8 10.9-12 1.3 2.1 2.3-.1 2.2-4.4-.2-4.8.6-6.6 5.8-12.8 2.1-2.5 4.9-6.5 6.3-9 1.4-2.5 2.6-3.7 2.6-2.8 0 1 .5 1.8 1 1.8.6 0 1-1.7 1-3.8 0-4.8 6.8-17.2 11.1-20.3 2.9-2 3.2-2.1 4.1-.6 1.6 2.9 2.8 1.8 2.8-2.6 0-4.6 1.3-7.7 2.4-5.8 1.6 2.6 2.6.7 2.6-4.8 0-4.2.5-6.2 1.6-7.2 1.4-1.1 1.8-1 2.9.5.8 1 1.8 1.5 2.3 1.2 1.2-.7.6-9.4-.8-11-.8-1-.6-1.5.9-1.9 1.2-.3 2.2.1 2.5.9.3.8 1 1.4 1.6 1.4 1.3 0 1.3-4.7 0-5.5-1.2-.8-1.3-9.5-.1-9.5.5 0 1.6 1.1 2.5 2.5.9 1.4 2.1 2.5 2.6 2.5 1.5 0 1.1-4.2-.5-6.4-1.2-1.6-1.2-2.2.1-4.7 1.9-3.7 4-3.7 4.7.1 1 4.7 3.1 3.8 2.4-1-.4-2.9.1-5.3 1.7-8.7 2.2-4.5 2.3-4.6 3-2 .3 1.5 1.1 2.7 1.7 2.7.7 0 .9-1.9.4-6-.5-4.3-.4-6 .5-6 .8 0 .9-2.1.5-7.3l-.6-7.2 2 2.5c2.6 3.2 3.2 2.4 1.9-2.6-.6-2.3-.8-4.8-.5-5.7.7-1.8 4.7-2.4 4.7-.7 0 .5.5 1 1.1 1 .6 0 .8-1.1.5-2.8-.7-3.2.7-6.4 1.7-3.8.8 1.9 3.7 2.1 3.7.3 0-.7-.7-2.2-1.5-3.3-2.2-2.8-1.8-6.2 1-9.6 1.4-1.6 2.5-4.1 2.5-5.4 0-2.7 2.2-7.5 5-11.1l1.8-2.3 1.5 2.3c2.4 3.5 2.9 1.4 1-3.9-1-2.7-1.7-6.4-1.5-8.2.3-3.3.4-3.3 2.3-1.6 1.5 1.3 2.2 1.5 3.1.6.9-.9.6-2.4-1.3-6.5-2.6-5.3-2.8-8.7-.5-8.7.6 0 1.7.5 2.4 1.2.6.6 1.5.8 1.9.4.5-.4-.4-1.8-1.9-3-2.1-1.6-2.8-3.1-2.8-5.6v-3.4l4 3.9c2.2 2.1 4.2 3.6 4.6 3.3 1-1.1-1.5-4.6-5.1-7.4-5.1-3.8-4.6-8.4.5-5.2 3.1 2 3.6.1.7-2.6-1.7-1.6-2.7-3.6-2.7-5.3v-2.7l1.6 2.3c2.1 2.9 4.1 1.4 2.5-1.8-.8-1.4-.8-2.1-.1-2.1 1.6 0 1.2-1.9-1.5-5.8-2.7-4-3.8-12.4-1.2-8.7.8 1 1.9 1.5 2.5 1.1 1.6-.9 1.5-8.5-.1-11.2-7.1-12.3-7.3-13.4-1.3-13.4 3.8 0 5.2.7 11.7 6 4 3.3 7.8 6 8.4 6 .5.1 2.6 1.4 4.5 3 1.9 1.7 4.1 3 5 3 .8 0 3.9 1.4 6.9 3 3 1.7 6 3 6.8 3 .8 0 4.1 1.8 7.3 4s6.2 4 6.5 4c.3 0 2.8 1.8 5.6 4s5.5 4 6 4c.6 0 3.9 1.3 7.4 3 3.5 1.6 6.9 3 7.4 3s5.6 2.2 11.3 4.9c11.8 5.6 20.9 9.2 28.8 11.5 3 .8 8.4 2.5 11.9 3.6 3.6 1.1 8 2 9.8 2 1.8 0 7.2 1.3 12 2.9 7.9 2.6 11 3 30.8 4 33.1 1.7 42.8 2.6 45.2 3.9 1.2.7 6 1.2 11 1.2 9.1 0 18.7 1.9 20.9 4.2 2.5 2.6 2.7 6.5.4 8.5-1.2 1-5.3 4.9-9.1 8.6-5.6 5.6-7.2 7.8-8.4 12.2-1.2 4-2.6 6.2-5.6 8.7-2.2 1.8-7.5 6.5-11.7 10.4-7 6.4-20 17-26.7 21.7-1.4 1-3.2 3.3-3.9 5.2-.9 2-3.4 4.8-6 6.6-2.9 2.1-5.1 4.6-6.2 7.3-2 5-5.4 18.8-5.4 22 0 1.3-.7 2.9-1.6 3.7-2.6 2.1-4.4 6.6-4.4 10.9 0 2.3-.4 4.9-.9 5.8-1.2 2.3-2.6 22.1-2.4 35.7.1 6 .1 13 .1 15.5-.2 14 .3 32 .9 32 .3 0 1.2-.8 1.9-1.8 1.2-1.6 1.3-1.5 1.4.8 0 1.4-.9 4.9-2 7.8-2.1 5.5-2.6 10.2-1.1 10.2.5 0 1.3-.9 1.6-2 .3-1.1 1.1-2 1.7-2 1.1 0 .4 8.9-1.7 19.3-.9 4.4-.2 5.5 2.1 3.6 1.5-1.2 1.6-.8 1 6.1-.4 4.1-.7 9.3-.6 11.5v24.8c0 15.4.4 21.7 1.5 24.5 2.3 6.1 4.9 31.9 4.9 48.2-.1 21.6-3.9 30.1-16 35.3-7.9 3.5-20.4 3.8-28.6.8-2.9-1.1-7.4-2-10-2-3.1.1-6.7-.8-10.2-2.5-3-1.4-6.2-2.6-7-2.6-.8 0-3.6-1.1-6.2-2.5s-5.7-2.5-6.8-2.5c-1.2 0-3.1-.6-4.2-1.4-1.1-.8-6.2-3-11.4-5s-10.6-4.2-12-4.8c-1.4-.6-7.4-1.3-13.5-1.5-6-.1-13.4-.8-16.3-1.4-2.9-.6-8.5-1-12.5-1-3.9 0-14.5-.2-23.5-.5-13.7-.5-16.8-.3-19.7 1-1.8.9-5.5 1.6-8.2 1.6-5.3 0-6.6.6-7.6 3.4-.9 2.2 1.8 5.6 4.4 5.6 2 0 7 5.9 10.2 12.1 2 3.7 3.3 4.6 11.2 8 5 2.2 10.3 4.6 11.9 5.5 1.6.8 6.3 1.9 10.5 2.5 4.2.6 9.2 1.8 11.1 2.8 9.9 5.1 14.9 8 18.8 10.8 2.5 1.8 7.3 3.9 11.3 5 5.8 1.4 7.4 2.3 8.9 4.8 1 1.6 4.2 5.2 6.9 8 4.6 4.5 5.1 5.4 5.1 9.5.1 2.5.7 5.6 1.4 6.9.7 1.3 1.1 3.2.8 4.3-.7 2.8 1.6 7.4 4.4 8.7 3.6 1.6 5.8 1.4 8.7-.9 3.4-2.7 4.6-2.5 7.6 1.1 2.5 2.9 2.7 3 7.3 2 2.6-.6 5.4-.8 6.3-.5 2.2.9 4.3-1.3 5.5-5.7 1-3.8 4.1-6.6 6-5.4.5.3 3.5 1 6.7 1.6 3.2.6 6.8 1.7 8 2.5 1.2.7 5.4 1.6 9.3 1.8 5.6.4 8 1.1 10.9 3 5.5 3.8 9.4 4.3 12 1.5 1.1-1.2 2.1-2.7 2.1-3.2s1.8-.6 3.9-.2c2.5.4 4.8.2 6.3-.6s7.5-1.4 16.6-1.6c7.9-.1 14.8-.5 15.3-.9.5-.3 10-.5 21.2-.5 24.1 0 28.3-.8 30.3-5.5.8-1.8 2.4-3.8 3.5-4.5 4.5-2.4 10.9-9.2 10.9-11.5 0-1.3 1.5-3.8 3.5-5.8s3.5-4.5 3.5-5.8c0-1.3.6-3.3 1.4-4.4 2.1-3 4.6-14.6 4.6-21.4 0-3.2.4-7 1-8.5.8-2.2 1.2-2.4 2.9-1.3 2.5 1.5 3.8.4 2.1-1.7-.7-.9-.9-1.9-.5-2.3.4-.4 1-.1 1.2.5.3.7.9 1.3 1.5 1.3 1.7 0 .2-10.6-2.1-15.1-2.3-4.3-2.7-6.4-1.1-5.4.6.3 1 1.4 1 2.4 0 2 2.7 4.8 3.6 3.8.3-.3.1-1.4-.5-2.4-.5-1.1-1.3-4.4-1.6-7.4-.6-4.8-.5-5.2.8-3.7.8 1 1.7 1.8 2.1 1.8 1.2 0 .6-4.5-.8-6.6-1-1.3-1.1-2.5-.5-3.5.7-1.1 1-1 1.5.8.9 3.3 2.8 2.9 2-.5-.4-1.5-1.2-5-1.7-7.7-.6-2.8-1.5-5.6-2.1-6.3-.6-.7-.6-1.2-.1-1.2s1.9 1.8 3.2 4c1.2 2.2 2.6 4 3.2 4 1.5 0 1-3.3-1.1-6.5-1.1-1.7-2-4.5-2-6.3 0-1.8-.5-4.2-1-5.3-.8-1.3-.7-2.5.1-4.1 1.1-2.1 1.2-2 3.2 1.8 2.4 4.8 2.3 4.7 3.6 4 .6-.4.3-2.2-.9-4.9-2.1-4.4-2.6-10.2-1.1-11.1.5-.3 1.2.6 1.5 2.1.5 1.8 1 2.3 1.8 1.5.7-.7.7-3-.2-7.9-1.9-10.5-1.2-25.9 1-22.3 1.8 2.9 2.2 0 .7-4.7-1.4-4.5-3.3-18.6-2-15.3.9 2.5 3.5 5 4.5 4.4.5-.3.4-1.1-.2-1.9-.9-1.1-2.9-7.1-4.7-14.2-.8-3.5 1.5-2.8 3.8 1.2 1.2 1.9 2.5 3.5 3.1 3.5 1.1 0 .1-3.9-1.7-6-1.1-1.4-3.9-18.9-3.1-19.7.1-.2 1.1 1.5 2.1 3.7 1.8 3.9 3.5 5.3 3.5 2.7 0-.6-1.1-3.2-2.5-5.5-1.9-3.3-2.2-4.8-1.5-6.2.6-1 1-3.3 1-5v-3.1l2.6 2c4.1 3.2 5.3 1.2 1.3-2.1-3.6-3-3.7-3.7-1.8-11.1 1-3.7 1.1-3.8 2.9-2.2 2.9 2.6 3.9 1.2 2.9-4.2-.5-2.7-.7-6.2-.3-7.8.8-3.9 5.4-12.5 6.7-12.5.6 0 2.1.9 3.3 2.1 1.2 1.1 3.7 2.8 5.5 3.7 3 1.5 3.5 2.3 4 6.9.5 3.4 1.5 6.3 3.2 8.2 2.2 2.7 2.5 4.2 3.1 14.8 1.4 23.9 2.7 37.4 3.8 39.9.9 2 .8 3.5-.7 7.6-1.4 4-1.7 6.7-1.2 13.7.4 5.5 1.1 8.9 2 9.6 4.2 3 8.6 16.8 8.7 26.7 0 4.5.4 7.8 1 7.8s1-1.9 1-4.2c0-2.3.3-3.8.6-3.5 2 1.9 4.3 12 4.4 18.4 0 7.4 1.5 10.6 2.5 5.6.4-1.5 1-3.7 1.4-4.8 1.4-3.6 4.1 3.4 4.1 10.7 0 10.9 3.5 18.9 4.2 9.5l.3-4.2 3.8 6.4c3.4 5.7 3.7 6.8 2.7 9-.9 2.1-.9 2.7.4 3.7.9.6 1.6 2.1 1.6 3.3 0 1.2.6 2.1 1.5 2.1 1.2 0 1.5-1.3 1.5-6.1 0-3.7.4-5.8 1-5.4.6.3 1 2.3 1 4.3 0 5.9 2.3 23.2 3.1 23.2.4 0 .9-1.2 1.1-2.8.4-3.7 2.1-3.2 3.3 1.1 1.4 5 2.7 5.9 2.4 1.5-.4-4.5 1-4.5 3.3.1 1.5 3 1.6 3.7.3 6.2-1.8 3.3-1.9 4.9-.4 4.9.5 0 1.7-1.7 2.5-3.7 1.4-3.2 1.7-3.5 2.6-1.9 1.2 2.2 1.4 7.9.3 12.3-.5 2.2-.4 3.3.4 3.3.6 0 1.4-1.2 1.7-2.8.4-1.5.9-3.1 1.2-3.6.9-1.6 2.2 1.9 2.2 6.1 0 3.2.4 4.3 1.5 4.3.8 0 1.5-.7 1.5-1.5s.4-1.5.9-1.5c1.4 0 2.1 2.7 2.1 7.6 0 2.4.4 5.2.9 6.2.5.9 1.2 2.5 1.5 3.4.9 2.9 2.4 2.1 2.8-1.5.2-2.7.8-3.3 3.1-3.5 1.9-.2 2.9.2 3.3 1.5.3 1 1.2 3.1 2 4.6 1.6 3.3 1.8 5.7.4 5.7-1.6 0-1.1 2.6.8 4.3 2.5 2.3 3.1 1.4 2.5-3.4-.3-2.1-.2-3.9.3-3.9 2.2.1 3.2 2 4.8 9.2 1.8 8.1 4.3 11.2 3.1 3.7-.7-3.9-.6-4 1.4-3 1.1.7 2.8 2.6 3.7 4.4.9 1.8 3.2 5.3 5 7.8 1.9 2.6 3.4 5.3 3.4 6.1 0 .8.7 2.3 1.5 3.4 1.7 2.3 2 .6.6-4.4-.8-2.5-.7-3.2.4-3.2 2.3 0 5.2 4.7 7.5 12.1 1.5 5.1 2.4 6.9 3.2 6.1.8-.8.6-2.3-.6-5.2l-1.6-4 2.8.6c3.5.9 5.7 2.8 7.2 6.4.7 1.6 2.2 3.1 3.6 3.4 1.4.4 3.2 1.9 4.2 3.4 2.8 4.5 23.2 22.2 25.6 22.2 2.7 0 11.8 5.8 22.1 14.1 3.9 3.1 8.1 6.2 9.5 6.9 1.4.7 4.4 3.4 6.8 6.1 2.4 2.7 4.9 4.9 5.6 4.9.7 0 2.3 1.1 3.6 2.5 1.3 1.4 3.4 2.5 4.7 2.5 2.6 0 6.3 3.2 6.3 5.5 0 .9 2 3.5 4.5 5.9 2.6 2.6 4.5 5.3 4.5 6.6 0 1.2-1.8 4.2-3.9 6.6-2.1 2.5-4.2 5.7-4.6 7.2-.4 1.5-2.1 4.1-4 5.7-2.2 2.1-3.5 4.3-4 7.2-.6 4.1-5.9 11.1-14.9 19.8-1.7 1.7-3.5 3.8-4.1 4.8-.7 1.1-3.1 2.1-6.9 2.7-6.8 1.1-8.5 2.2-6.7 4.4 1.6 2-.4 9.2-3.6 12.7-3 3.3-2.9 6.2.5 11.8 2.8 4.4 2.9 5 2.7 16.1-.4 16-1.2 20.8-4.1 22.7-2.7 1.7-5.4 6.6-5.4 9.8 0 1.3-.7 2.8-1.6 3.6-2 1.7-4.4 6.3-4.4 8.7 0 1.3 1.3 2.4 4.1 3.5l4.1 1.6-.3 6.8c-.4 6.1-.2 6.9 1.7 7.7 1.9.9 1.9 1.2.8 5.7-.7 2.7-1.6 6.9-2 9.5-.6 4.4-.6 4.6 1.5 3.9 1.2-.4 2.1-.2 2.1.4 0 .6.6 1.1 1.4 1.1.9 0 1.2.8.8 2.6-.5 2.8 2.4 6.6 7 9 1.5.8 3 2.4 3.4 3.6 1.1 3.5 3.4 4.7 8.9 4.8 4.4 0 5.7.5 9.9 4l4.8 4h13.8c15 0 18.8-.8 23.8-5.2 2.3-2 4-2.7 5.4-2.3 2.6.9 5.4-1.7 6.9-6.4.9-2.9 6.2-9.1 8.8-10.3 1-.5 6.1-8.6 7.1-11.3.5-1.4 1.6-2.5 2.4-2.5.9 0 3.1-1.4 5.1-3.1 2.8-2.5 3.5-3.8 3.5-6.8 0-2.1.3-4.1.7-4.5 1.2-1.1 4.3-9.9 4.3-12.1 0-1.1 1.4-3.7 3-5.9 1.6-2.1 3.2-5 3.5-6.6.3-1.5 1.6-3.6 2.8-4.7 1.3-1.1 3-4.6 4.1-8.4.9-3.5 2.4-7.8 3.3-9.4 4.6-9 6.4-12.7 9.3-19 1.8-3.9 3.7-8 4.3-9.3.6-1.2 1.6-2.1 2.3-1.8 2.2.8 7.3-9.7 7.9-16.2.8-8.9 4.4-22.7 8.1-30.9 1.3-2.8 2.4-5.6 2.4-6.1s.6-1.5 1.4-2.1c1.1-.9 1.8-.4 3.5 2.4 2.1 3.6 4.1 4.6 4.1 2.1 0-.8-1.1-3.4-2.5-5.7-3-5.3-3.4-14.3-.9-21.5.9-2.6 1.4-5.7 1.1-7-.2-1.3 0-2.4.4-2.4.5 0 .9-3 .9-6.6v-6.5l2.9 2.1c4 2.8 5.3.6 1.5-2.6-1.6-1.3-3.3-2.4-3.9-2.4-.5 0-.3-.5.5-1s2.5-.7 3.7-.3c1.4.3 2.3.1 2.3-.7 0-1.4-2.9-4.4-3.6-3.7-1 .9-6.7-1.5-9.6-4.1-2.9-2.6-3.7-4.5-1.5-3.7.6.3 1.8.1 2.6-.4 1.1-.7.7-1.8-2.3-5.4-4.1-5-4.4-6.1-1.6-5.2 1.4.5 2 .2 2-.9 0-1-.9-1.6-2.2-1.6-1.3 0-3.1-1.2-4.1-2.5l-1.8-2.5 2.6 1c3.3 1.2 3.5 1.2 3.5 0 0-.6-1.8-1.8-4-2.7-2.6-1.2-4-2.4-4-3.6 0-1.4.5-1.7 1.8-1.2 3.6 1.5 5.2 1.7 5.2.6 0-.7-2-2-4.4-3.1-5.5-2.3-6.5-3.8-2.3-3.2 4.2.6 2.6-1.3-2.8-3.1-3.2-1.1-4.1-2-4.6-4.5-.7-3.2.7-4.5 1.7-1.7.6 1.6 3.4 2.1 3.4.6 0-1.7-4-5.9-6.2-6.5-1.5-.4-3.2-2.6-5.1-6.4-3.5-7.2-3.5-9.2-.1-9.2 1.8 0 2.5-.5 2.2-1.6-.2-1.1-2.3-2.2-6.3-3.2-6.6-1.6-10.5-4.4-10.5-7.6-.1-1.2-.9-3.9-2-6.1-1.1-2.2-1.9-5-2-6.2 0-1.2-1.2-3.1-2.7-4.4-2.5-1.9-2.6-2.1-.5-1.5 3.3 1.1 2.7-.9-1.3-4-1.9-1.4-3.5-3.2-3.5-3.9 0-.8-1.1-2.7-2.5-4.3-1.4-1.7-2.5-4.1-2.5-5.5 0-3.2-4.1-10.4-7.9-14.1-2.3-2.2-2.9-3.5-2.5-5.5.6-3.1-1.2-5.1-7.7-8.4-5.1-2.6-6-4.3-2.3-4.2 4.5 0 3.6-1.8-2.8-6.1-7.5-4.9-8.3-6.4-3.4-6.4 2.5 0 3.6-.4 3.6-1.5 0-1-1-1.5-3.2-1.5-4.4 0-9.3-1.9-10.7-4.2-1.1-1.8-1-1.9 1.7-1.3 4.2.9 5.2-1.3 1.3-2.8-1.7-.6-3.1-1.6-3.1-2.2 0-.6-2.6-2.4-5.7-3.9l-5.8-2.9 3.2-1.1c4.2-1.4 4.6-3 .8-3.4-7.1-.6-11.5-1.4-11.5-2.1 0-.4 1.6-1.5 3.5-2.4 1.9-.9 3.5-2.1 3.5-2.6 0-.6-3.3-1.1-7.2-1.3-6-.2-7.3-.6-7.6-2-.3-1.5 0-1.6 2.8-.6 4.7 1.6 6-.4 1.8-3-1.8-1.2-5.1-3.5-7.3-5.1-2.2-1.7-5-3.5-6.2-4.1-1.7-.7-2.3-1.8-2.3-4.3 0-3.1.2-3.4 2.5-2.9 4.1.7 2.9-1-3.5-5.2-10.9-7.2-13.3-11.1-12.4-20.4.3-3.1.1-7-.4-8.6-.6-2.2-.3-3.9 1.1-6.5 1.2-2.4 1.7-5 1.4-7.6-.2-2.2.4-6.7 1.4-10 3.1-10.3 6.1-22.8 6.9-28.8.4-3.2 1.2-7 1.8-8.5.5-1.5 1.8-5.4 2.8-8.7.9-3.3 2.5-7.1 3.5-8.5 1.1-1.5 2.1-5.3 2.5-9.5.5-4.5 1.7-8.9 3.5-12.5 1.5-3 3.3-7.5 3.9-9.9.6-2.5 2.5-7 4.2-10 2.4-4.3 3.1-7 3.3-11.7.1-3.8.8-7 1.8-8.5.9-1.3 1.7-4 1.7-6.1 0-2.1.9-5.5 2-7.5 1.1-2.1 2-4.4 2-5.1 0-.7 1.1-3.2 2.4-5.5 1.6-2.7 2.7-6.6 3.1-10.7.4-3.6 1.5-8.7 2.6-11.3 1.4-3.3 1.8-5.8 1.3-8.2-.5-2.8-.1-4 2-6.6 1.9-2.2 2.6-4.2 2.6-7.2 0-2.8.8-5.3 2.6-7.9 2.5-3.6 2.6-3.9 1-5.6-2.1-2.4-2-3.9.4-10.9 2.6-7.7 3.9-24.5 2.7-35.8-.9-8.8-.9-9.2 1.9-15 2.3-5 2.9-8 3.6-18.3.8-10.5.7-12.7-.7-15.5-.9-1.8-1.9-5-2.2-7.3l-.5-4.1 10.8-.5c11.7-.5 17.6 0 29.4 2.6 5.6 1.2 8.4 1.3 11 .6 2.2-.6 3.8-.6 4.4 0 .6.6 2.2 1 3.6 1 2.7 0 6.7 3.5 9 7.8.6 1.3 1.7 2.1 2.5 1.8.7-.2 2.1.4 3.1 1.5 3.9 4.3 6.9.8 3.4-4.1l-2.1-3h3c1.7 0 3.1.3 3.1.7 0 .5 1.8 2.8 4 5.3 3.1 3.5 4.2 4.2 4.9 3.1.9-1.5.7-3-1.2-6.8-2.6-5.5 3.2-3 7.3 3.1 1.4 2 2.8 3.6 3.3 3.6 1.2 0 .8-4.5-.5-5.8-.9-.9-.9-1.2.3-1.2 1.9 0 3.9 2 3.9 4 .1 1.7 5.5 8 7 8 .6 0 .8-1 .4-2.5-.5-2-.3-2.5 1.4-2.5 1.4 0 2.5 1.3 3.9 4.5 1 2.5 2.4 4.5 3.1 4.5 1.5 0 1.6-4.2 0-5.8-.9-.9-.9-1.2 0-1.2.7 0 2.3 1.1 3.6 2.5 1.3 1.4 3.1 2.5 3.9 2.5 1 0 2 1.3 2.5 3.2.4 1.7 1.3 3.3 1.9 3.5 1.3.5 2.7-4.3 1.7-5.9-1.3-2.1 4.1.4 5.9 2.7 6.1 8 7.6 8.5 5.9 2.1-.8-2.6-.7-3.6.1-3.6 1.6 0 8.4 6.4 12.6 11.8 2.2 2.9 3.7 4 4.4 3.3.6-.6.2-2-1.2-4-2.4-3.3-1.9-3.8 1.7-1.8 2.6 1.5 13.2 13.3 13.2 14.7 0 1.5 4.9 2.3 6.4 1.1 1.1-.9 2.4-.3 6.2 3 2.6 2.3 5.6 5.1 6.5 6.4 1 1.2 5.3 4.2 9.7 6.7 7.2 4.3 14.2 10.5 14.2 12.8 0 .6.5 1 1.1 1 .6 0 .9-.9.6-2-1.3-5.1 3.5-.3 5.3 5.3 1 3.1 1.6 3.8 3.2 3.4 1.3-.4 2.2.1 2.8 1.8.5 1.3 2.1 3.1 3.5 4.2 6.4 4.4 8.4 6.5 9 9.4.4 1.7 2.2 4.7 4.1 6.7 6.8 7.4 7.5 8.4 8 11.2.4 1.6 2.2 4.1 4.4 5.9 2.1 1.7 4.1 4.1 4.5 5.3 1.7 6.3 7.2 17.6 9.7 20.3 1.7 2 2.8 4.2 2.8 6 0 1.7.7 4.3 1.5 5.9.8 1.5 1.5 4.5 1.5 6.5 0 2.7.7 4.3 2.5 5.9 1.4 1.2 2.5 3.1 2.5 4.3 0 1.1.5 3 1.1 4.1 1.4 2.6 4.8 14.8 6 21.8.6 3 1 9.9 1 15.2 0 7.2.5 11.5 2.1 16.5 2 6.4 2.1 8.9 2 44.4 0 36.6-.9 50.6-3.5 55.4-.6 1.1-1.4 4.9-1.8 8.5-.4 3.6-1.6 9.8-2.7 13.9-1.2 4.1-2.6 11.5-3.2 16.5-2.1 17.3-4.1 26.1-7.2 32-.6 1.1-1.8 6.2-2.8 11.5-2.2 11.4-4.5 22.7-6.1 29.6-1 4.3-4 11.6-10.4 26-.8 1.6-2.5 5.5-3.8 8.5-1.3 3-3.3 7.5-4.5 10-1.1 2.5-2.5 6.6-3.2 9-2.7 10.4-10 32-12.9 38-1.7 3.6-3.1 7-3.1 7.6 0 .6-2.2 5.8-5 11.5-2.7 5.7-5.2 12.4-5.5 14.9-1.1 8.5-5.8 26.5-8.1 31.5-1.3 2.8-2.4 5.5-2.4 6 0 .6-1.2 3.2-2.6 5.8-1.4 2.7-3.2 8.3-4 12.5-1.4 7.3-7.3 25.9-9.9 31.2-.7 1.4-1.7 4.3-2.3 6.5-2.8 10.7-14.7 50.5-16.2 54.5-1 2.5-2.6 8.3-3.5 13-1 4.6-2.2 9.6-2.7 11-.6 1.4-2.5 8.4-4.3 15.5-1.9 7.2-5.2 18.4-7.5 25-9.1 26.3-11.4 37.7-14.1 69.3-2.8 32.1-3.3 50.8-2.1 77.3l.9 21.6 4.3 8.9c2.3 4.9 5.8 12.9 7.7 17.7 3.8 9.5 8.2 14.7 17 20.6 3.6 2.4 5.5 3.1 7.8 2.7 16.4-2.8 18.5-4.1 24.4-15.8 3.4-6.8 4.4-10.3 5.7-19.3.9-6.1 1.6-11.9 1.5-13 0-1.1.9-5 2-8.7 1.7-5.6 1.8-7.3.9-10.5-.7-2.5-1-11.3-.7-26.3.3-12.4.5-23.4.4-24.5-.2-7.7.2-14.6 1.2-25.5.7-6.9 1.3-14 1.2-15.9 0-1.9.5-4.4 1.1-5.5.6-1.1 1.5-5 1.9-8.8.5-3.7 1.4-10.1 2-14 .6-4 1.5-10.2 2-13.8.5-3.6 1.1-21.8 1.4-40.5.3-18.7 1-35.3 1.5-36.9.6-1.6 1-5.6 1-9 .1-5.7.7-9.3 5.8-32.1 5.6-24.9 13.7-52.8 17.6-60.3.9-1.7 2.3-6.2 3.2-9.9.8-3.7 3-10 4.9-13.9 1.8-4 3.6-9.2 4-11.6.4-2.4 1.7-5.5 2.9-6.9 1.2-1.4 3.6-7.2 5.5-13 3-9.5 6.1-17.3 9.6-24 .8-1.4 2.3-5.6 3.4-9.5 1.1-3.8 2.4-8.3 2.9-9.9.6-1.7 1.6-5 2.2-7.5 2.5-9.9 4-14.4 5.3-15.9 3.1-3.6 8.2-14.8 11.7-25.6 1.2-3.9 3.1-8.6 4.2-10.5 1.1-1.9 2.4-5.7 2.9-8.5.4-2.7 2-9.1 3.4-14 1.4-5 2.8-11 3.1-13.5.3-2.5 1.2-5.9 2-7.6.7-1.8 1.9-5.6 2.5-8.5.6-3 2-8.3 3.2-11.9 1.6-4.9 2-8.6 1.9-14.8-.2-7.1.1-8.7 1.9-11.3 2.4-3.4 4.9-10.9 4.9-14.8 0-1.5 1-4.4 2.2-6.6 1.2-2.3 2.4-6.9 2.8-11 1-9 2.8-22.6 4-29 2-10.5 3.3-60.1 2.1-77-2.3-31.6-2.7-35-3.9-37.2-.6-1.2-1.7-6.6-2.3-12-.6-5.4-2-12.5-3-15.8-1.1-3.3-2.6-8.7-3.5-11.9-.8-3.3-2.4-7.5-3.6-9.5-1.2-1.9-2.5-5.7-2.9-8.5-.5-3.7-2-7.2-5.7-12.8-2.8-4.2-6.3-10.4-7.7-13.9-1.4-3.5-3.3-7.2-4.3-8.3-1.1-1.2-3.7-4.8-5.9-8.1-10.9-16.4-16-23.6-21.4-30-3.3-3.9-7.1-8.7-8.4-10.7-3.2-4.8-20.8-22.1-26.4-26.1-5.6-3.8-17.2-16.1-18.7-19.6-.6-1.5-2.6-3.9-4.5-5.4-5.2-4.3-17.1-11.7-18.9-11.7-.8 0-2.8-.9-4.5-2.1-1.6-1.1-7-4.1-12-6.6-4.9-2.5-11.5-6.1-14.7-8-3.1-1.9-10.9-5.3-17.5-7.5-6.5-2.2-12.2-4.3-12.8-4.8-.5-.4-2.8-1.3-5-2-4-1.3-9.6-3.6-17-7.1-5.8-2.7-15.5-5.9-17.9-5.9-1.2 0-3.6-.9-5.4-2-2-1.3-5-2-8-2-5.7 0-17.2-2.4-26.7-5.5-20.8-6.9-33.7-12-40-15.6-5-2.9-9.2-4.4-14.7-5.4-4.3-.7-9.3-2.2-11.1-3.3-1.7-1.1-4.5-2.3-6.2-2.6-1.6-.4-4.9-2.5-7.2-4.7-2.3-2.1-4.8-3.9-5.5-3.9-.7 0-4.8-3.7-9-8.3-18.2-19.4-23.8-25.6-23.8-26.4 0-1-18.1-17.6-26.6-24.3-3.1-2.5-8.2-6.8-11.3-9.6-3.1-2.8-6.6-5.5-7.8-5.8-1.3-.4-7.2-4.9-13.1-9.9-6-5.1-12.4-10.1-14.2-11.2-7.3-4.4-10.2-6.3-21.8-14.7-6.6-4.8-13.8-9.6-16-10.7-2.2-1.1-6.1-3.9-8.7-6.1-2.5-2.2-5.2-4-6-4-.7 0-2.8-1.2-4.6-2.8-1.8-1.5-4.9-3.6-7-4.7-8.9-4.7-11.6-6.5-15.8-10.4-2.4-2.3-4.8-4.1-5.2-4.1-.5 0-3.1-2-5.9-4.5-2.8-2.5-6.8-5.4-8.9-6.5-5.2-2.6-12.5-7.5-14.1-9.5-.8-.9-3-2.5-5-3.5s-4.2-2.6-5-3.4c-.7-.9-2.8-2.3-4.6-3.2-3.3-1.6-4.8-2.9-10.7-9.6-1.7-2-6.8-5.6-11.2-7.9-8.9-4.6-17.8-11.3-19.3-14.5-.6-1.3-3.4-3-7.1-4.4-3.6-1.3-9-4.6-12.8-7.7-3.6-3-8-6.1-9.7-7-1.7-.9-5-3.2-7.2-5.2-5.1-4.4-7.8-6.4-15.9-11.6-3.5-2.2-9.1-6.2-12.6-8.9-3.5-2.8-8.2-5.6-10.4-6.4-2.2-.7-6-2.9-8.4-4.8-2.4-1.9-5.2-3.4-6.1-3.4-1 0-2.8-.8-4.1-1.9-1.3-1-4.6-3-7.4-4.4-2.7-1.4-7.4-4.1-10.4-6.1-2.9-2-6-3.6-6.9-3.6-.9 0-2.5-.9-3.6-1.9-1.2-1.1-5.9-4.1-10.6-6.6-4.7-2.6-10.1-5.9-12-7.4-1.9-1.5-5.3-3.8-7.5-5.1-2.2-1.3-6.9-4.7-10.5-7.5-3.6-2.9-8.3-5.8-10.5-6.5-2.2-.7-5.1-1.9-6.5-2.7-1.4-.8-5.4-2.8-8.9-4.5-3.5-1.7-8.7-4.5-11.5-6.3-2.8-1.7-8-4.5-11.6-6.1-3.6-1.6-7.9-4.2-9.6-5.9-1.7-1.6-5-4.1-7.3-5.5-2.3-1.4-6.4-4.1-9-6.1-2.6-2-5.8-4-7.2-4.4-1.3-.4-3.3-1.5-4.4-2.4-1.1-1-4.2-3-7-4.6-2.7-1.6-7.5-4.8-10.5-7.1-3-2.4-9.5-6-14.5-8-4.9-2.1-14.4-7.1-21-11.1-9.9-6-14.1-7.8-24-10.7-6.6-1.9-17.4-6-24-9.1-14-6.7-24.6-10.5-28.9-10.5-1.7 0-6.6-.7-10.9-1.5-4.3-.8-10.2-1.5-13-1.5-4.4 0-26.8-4.3-28.8-5.6-1.2-.7-18.8-2.5-33.7-3.4-11.7-.7-14.7-1.2-16.4-2.7-1.7-1.5-4.5-1.9-18.7-2.5-9.1-.3-16.9-.7-17.2-.7-.3-.1-1.8-1.2-3.3-2.6-1.5-1.4-3.7-2.5-4.9-2.5-1.2 0-3.9-.6-6.2-1.4-2.2-.8-6.7-2-10-2.7-3.8-.8-7.2-2.3-9.3-4.1-2.1-1.8-4.4-2.8-6.5-2.8-1.8 0-5.6-1.1-8.5-2.5-3-1.4-6.2-2.5-7.3-2.5-1 0-3.8-.9-6.1-1.9-7.1-3.2-14.6-6.1-15.7-6.1-2 0-8.8-5.5-8.3-6.8.4-1.4-4-1.7-6.6-.3-.9.4-4.1 1.1-7 1.5-5 .6-5.3.5-4.8-1.2.6-1.8.2-1.9-6.9-1.4-5.2.3-7.5.1-7.5-.7 0-.6 1.1-1.1 2.5-1.1s2.5-.5 2.5-1.1c0-.8-1.5-1-4.4-.7-3.2.4-4.6.2-5-.8-.5-1.4-3.1-.9-8.2 1.7-1.5.8-2.7.8-4 .1-1.7-.9-1.6-1.1.9-1.7 1.5-.4 2.7-1.2 2.7-1.7 0-1.2-7-.1-11.6 1.8-4.6 1.9-4.2.4.6-2.6 2.2-1.3 4-2.8 4-3.2 0-1.5-2.7-.8-8.4 2.3-4.2 2.3-6.1 2.8-6.9 2-.8-.8-.6-1.6.7-3 1-1.1 1.3-2.1.7-2.5-.5-.4-1.2-.2-1.6.3zm874.7 1355.3c-.7.7-1.2.8-1.2.2 0-1.4 1.2-2.6 1.9-1.9.2.3-.1 1.1-.7 1.7z"/></svg>