<svg xmlns="http://www.w3.org/2000/svg" xmlns:dc="http://dublincore.org/documents/dcmi-terms/" height="376.455" version="1.2" viewBox="0 0 976 376.455" width="976" overflow="inherit"><metadata><dc:description>Silhouette of Nasutoceratops, processed by PhyloPic Tools (https://github.com/eweitz/phylopic-tools)</dc:description><dc:source>http://phylopic.org/image/ef275bb4-d7bc-4687-a52e-9dab12a1f582</dc:source><dc:creator>Lukas Panzarin (vectorized by T. Michael Keesey)</dc:creator><dc:license>http://creativecommons.org/licenses/by/3.0/</dc:license></metadata><path d="M976 334.455v9c-9.337.465-13.155-9.997-20-16-15.556-13.643-38.562-25.375-60-38-20.867-12.29-44.49-20.824-68-29-36.653-12.746-66.209-30.763-95-51-14.283-10.04-33.551-27.456-57-19-12.436 4.484-20.024 17.956-30 22-8.957 3.631-17.537 1.838-24 7 17.414 26.591 22.441 50.539 52 62 4.198 1.628 8.924.904 13 3 12.27 6.309 13.304 23.688 23 34 4.5 4.786 9.528 4.641 13 11 1.361 10.13-4.658 21.268-5 33-7.131 3.536-11.117 10.217-18 14-6.144-9.759-24.799-1.04-36-4 .819-15.181 20.155-11.845 26-22 1.136-6.689-1.104-16.957-5-22-2.572-3.33-5.621-3.296-10-7-3.59-3.036-5.736-8.494-10-12-16.688-13.721-45.433-28.874-55-10 4.166 17.678-10.623 31.434-16 46-13.81-5.935-13.747 17.63-25 8-4.438 2.562-4.479 9.521-10 11-7.026-1.324-3.628-11.403-3-14 2.862-11.832 19.342-20.008 12-39 6.966-9.701 20.62-12.713 24-26-18.939-5.394-35.988-12.679-47-26-29.604 4.111-42.6-11.496-69-5 7.27 27.381 2.944 67.124 13 89-1.312 4.354-1.994 9.34-5 12-2.544 2.426-4.877-.999-7-2-5.289 10.378-19.018 12.316-26 21-8.327-3.663-15.032-3.818-25-2 .076-15.924 20.017-11.983 26-22-3.237-30.097-13.569-53.098-21-79-2.831-4.836-10.838-4.495-16-7-7.867 34.467-41.509 43.158-65 62 1.959 8.376 1.339 19.02-4 23-4.094.427-5.221-2.113-7-4-5.477 2.856-9.328 7.339-18 7-4.18.513-2.744-4.59-5-6-7.596.737-14.992 1.674-22 3-1.21-6.199.173-10.858 2-16 6.332-4.316 16.483-2.133 22-8 4.137-4.399 2.338-11.51 5-17 2.003-4.132 6.909-5.199 11-9 11.504-10.688 18.098-24.01 31-32-14.833-13.718-36.153-15.316-51-29-10.557-9.73-16.029-23.945-25-33-8.263-8.34-29.428-6.002-46-8-5.596-.675-18.195-6.776-25-5-9.521 2.486-9.425 23.806-14 35-2.052 5.02-6.12 10.164-9 17-6.025 14.298-13.924 43.298-23 54-11.352 13.385-49.521 19.705-64 0 12.179-5.215 26.167-1.195 35-11 9.149-10.156 14.999-29.067-8-26-4.622.616-20.749 6.992-27 10-5.86 2.819-9.608 7.598-14 9-3.085 4.248-.99 13.677-4 18-13.5-.577-20.389-10.54-28-20-9.364-11.639-13.021-19.209-16-39-.448-2.976-2.808-5.917-3-8-.731-7.928 1.854-23.464 7-30 3.896-4.947 13.084-7.888 19-13 7.025-6.07 10.658-15.083 27-12 3.269-3.064 1.589-11.078 2-17-28.802 6.286-75.565 32.938-98 4v-5c9.503-3.252 18.506 2.462 29 1 21.39-2.98 37.838-18.792 58-30 17.538-9.75 38.457-15.094 52-24 5.552-3.651 9.112-10.832 15-13 10.478-25.522 28.308-43.692 37-71 8.1-5.962 13.626-17.508 25-16 5.303.703 5.986 5.438 13 5 2.065 5.935 5.616 10.384 9 15-3.446 11.23-.827 23.151-2 35-.773 7.811-6.57 13.701-5 22 52.572 5.541 80.668-20.583 107-42 13.062-10.624 26.566-20.375 45-27 90.182-32.41 196.68-.108 263 32 69.39 33.594 103.569 103.005 158 151 55.131 48.612 128.682 76.164 171 138h1z" fill-rule="evenodd"/></svg>