<svg xmlns="http://www.w3.org/2000/svg" xmlns:dc="http://dublincore.org/documents/dcmi-terms/" height="201.085" width="218.129"><metadata><dc:description>Silhouette of Natranaerobiaceae, processed by PhyloPic Tools (https://github.com/eweitz/phylopic-tools)</dc:description><dc:source>http://phylopic.org/image/4905b184-403d-4eac-bf67-2f4b7c37efb9</dc:source><dc:creator>Matt Crook</dc:creator><dc:license>http://creativecommons.org/licenses/by-sa/3.0/</dc:license></metadata><g fill="none" stroke-width="7" stroke-linecap="round"><path d="M42.306 155.045c8.046-7.257 19.336-15.966 24.14-21.77C71.248 127.47 81.074 96.4 83.15 81.639c2.074-14.763-2.012-28.954-4.642-34.198" stroke="#333"/><path d="M107.762 181.924c-.437 4.407.947 10.195-1.312 13.223-2.258 3.027-6.222 1.749-9.318 1.025-3.097-.724-3.622-2.744-7.837-3.791-4.215-1.047-9.766-2.227-14.932-3.136-5.167-.91-11.428-2.139-16.244-3.621M122.558 120.94c-4.17 1.34-9.236 2.4-12.51 4.017-3.275 1.618-4.29 2.977-8.094 4.16-3.804 1.184-8.768 2.222-13.793 2.65M143.561 114.103c-10.125-5.929-22.175-14.573-33.027-17.871-10.85-3.298-23.544-.381-30.463-1.428-6.92-1.046-7.813-3.023-10.459-4.76-2.645-1.737-3.419-3.648-5.129-5.472M134.049 52.775c1.748-3.923 4.954-7.674 5.244-11.769.29-4.094 1.992-5.982-3.618-11.171-5.61-5.189-22.707-14.187-28.581-18.612-5.875-4.424-4.255-5.149-6.383-7.723M14.953 98.446c-4.264-9.423 2.334-14.554.202-19.891-2.132-5.337-7.77-5.852-11.655-8.778M124.948 170.099c-2.727 2.27-4.715 9.815-3.137 14.932 1.58 5.118 6.356 11.137 11.54 12.312 5.186 1.176 9.247-2.073 13.48-6.638 4.235-4.566 6.523-13.807 10.803-19.549 4.28-5.742 11.831-10.765 14.62-14.56 2.79-3.796.898-5.81 7.981-14.334 7.084-8.524 32.013-28.046 33.887-36.047 1.874-8-1.825-44.104-4.982-51.01-3.158-6.908-18.332-16.512-27.983-23.457" stroke="#000"/></g></svg>