<svg xmlns="http://www.w3.org/2000/svg" xmlns:dc="http://dublincore.org/documents/dcmi-terms/" height="222.487" width="239.553"><metadata><dc:description>Silhouette of Neisseria gonorrhoeae, processed by PhyloPic Tools (https://github.com/eweitz/phylopic-tools)</dc:description><dc:source>http://phylopic.org/image/f7cdeb04-9134-4645-8011-c5d0a3fc0ebc</dc:source><dc:creator>Matt Crook</dc:creator><dc:license>http://creativecommons.org/licenses/by-sa/3.0/</dc:license></metadata><g color="#000" stroke="#000" stroke-width="2" stroke-linecap="round" stroke-linejoin="round"><path d="M165.661 38.894c-4.394-12.475 2.156-26.151 14.632-30.546 12.476-4.395 16.72 5.478 21.115 17.954s7.276 22.83-5.2 27.224c-12.476 4.395-26.152-2.156-30.547-14.632z" style="marker:none" overflow="visible"/><path d="M227.817 16.999c4.395 12.476-2.156 26.152-14.632 30.547-12.475 4.394-16.72-5.48-21.114-17.955-4.395-12.475-7.276-22.83 5.2-27.224C209.746-2.028 223.422 4.523 227.817 17zM146.84 106.96c4.569 12.414-1.79 26.18-14.204 30.749-12.413 4.569-16.794-5.245-21.363-17.658-4.569-12.413-7.594-22.725 4.819-27.294 12.413-4.568 26.18 1.79 30.748 14.204z" style="marker:none" overflow="visible"/><path d="M84.996 129.723c-4.568-12.413 1.79-26.18 14.204-30.748 12.413-4.57 16.795 5.244 21.363 17.657 4.569 12.413 7.594 22.725-4.819 27.294-12.413 4.569-26.18-1.79-30.748-14.203zM145.024 192.918c1.456 13.147-8.021 24.984-21.168 26.44-13.147 1.456-15.045-9.122-16.5-22.269-1.457-13.147-1.919-23.884 11.228-25.34 13.147-1.455 24.985 8.022 26.44 21.169z" style="marker:none" overflow="visible"/><path d="M79.525 200.17c-1.456-13.146 8.022-24.984 21.169-26.44 13.146-1.455 15.045 9.123 16.5 22.27 1.456 13.146 1.918 23.883-11.229 25.34-13.146 1.455-24.984-8.022-26.44-21.17zM56.84 80.459c8.593 10.055 7.409 25.172-2.646 33.766-10.055 8.594-17.571.913-26.165-9.142-8.594-10.055-15.011-18.676-4.956-27.27 10.055-8.594 25.173-7.41 33.766 2.646z" style="marker:none" overflow="visible"/><path d="M6.744 123.275C-1.85 113.22-.666 98.102 9.39 89.508c10.055-8.594 17.57-.912 26.165 9.143 8.593 10.055 15.01 18.675 4.956 27.27-10.055 8.593-25.173 7.409-33.767-2.646zM75.304 35.03c4.217-12.537 17.798-19.282 30.335-15.065 12.537 4.216 9.804 14.61 5.587 27.147-4.216 12.537-8.32 22.47-20.856 18.253C77.833 61.15 71.088 47.567 75.304 35.03z" style="marker:none" overflow="visible"/><path d="M137.766 56.038c-4.217 12.537-17.799 19.282-30.336 15.065-12.537-4.216-9.803-14.61-5.587-27.147 4.217-12.537 8.32-22.47 20.857-18.253 12.537 4.217 19.282 17.798 15.066 30.335zM14.597 156.626c1.515-13.14 13.395-22.564 26.535-21.05 13.14 1.515 12.63 12.25 11.115 25.39-1.514 13.14-3.46 23.71-16.6 22.195-13.14-1.515-22.564-13.395-21.05-26.535z" style="marker:none" overflow="visible"/><path d="M80.063 164.172c-1.514 13.14-13.394 22.565-26.534 21.05-13.14-1.514-12.63-12.25-11.116-25.39 1.514-13.14 3.46-23.709 16.6-22.194 13.14 1.514 22.565 13.394 21.05 26.534zM214.289 126.558c13.227-.099 24.03 10.543 24.129 23.77.099 13.226-10.618 14.03-23.845 14.129-13.227.099-23.954-.543-24.054-13.77-.099-13.227 10.543-24.03 23.77-24.129z" style="marker:none" overflow="visible"/><path d="M214.783 192.456c-13.226.1-24.03-10.543-24.129-23.77-.099-13.226 10.618-14.03 23.845-14.129 13.227-.099 23.954.543 24.054 13.77.099 13.227-10.543 24.03-23.77 24.129zM214.728 103.684c-5.491 12.034-19.698 17.337-31.731 11.845-12.034-5.49-8.24-15.546-2.748-27.58 5.491-12.033 10.6-21.487 22.634-15.996 12.033 5.491 17.336 19.698 11.845 31.731z" style="marker:none" overflow="visible"/><path d="M154.776 76.325c5.492-12.033 19.698-17.336 31.731-11.845 12.034 5.491 8.24 15.546 2.748 27.58-5.491 12.033-10.6 21.488-22.634 15.997-12.033-5.492-17.336-19.698-11.845-31.732z" style="marker:none" overflow="visible"/></g></svg>