<svg xmlns="http://www.w3.org/2000/svg" xmlns:dc="http://dublincore.org/documents/dcmi-terms/" height="2271.287" viewBox="0 0 2415.2191 2271.2869" width="2415.219"><metadata><dc:description>Silhouette of Nemertodermatida, processed by PhyloPic Tools (https://github.com/eweitz/phylopic-tools)</dc:description><dc:source>http://phylopic.org/image/4db7358b-60c0-4bed-b7a6-69fff18043a0</dc:source><dc:creator>Meyer-Wachsmuth I, Curini Galletti M, Jondelius U (doi:10.1371/journal.pone.0107688). Vectorization by Y. Wong</dc:creator><dc:license>http://creativecommons.org/licenses/by/3.0/</dc:license></metadata><path d="M21.226 2237.434c-22.503-31.008-26.104-66.192-15.549-151.925 4.016-32.619 9.756-54.407 28.868-109.563 13.12-37.866 27.142-81.679 31.161-97.363 12.013-46.88 15.93-57.298 37.812-100.541 40.094-79.237 72.205-127.407 93.003-139.517 11.745-6.84 51.632-39.865 80.21-66.413 67.187-62.415 105.953-90.764 153.836-112.5 17.333-7.867 37.4-17.48 44.594-21.363 46.748-25.224 82.845-41.885 100.909-46.575 11.47-2.978 29.692-8.266 40.493-11.75 10.8-3.485 34.102-8.702 51.781-11.594l32.144-5.258-2.769-10.846c-1.522-5.966-9.012-21.83-16.643-35.252-21.414-37.666-35.79-77.662-55.46-154.302-5.476-21.337-6.497-68.924-2.158-100.633 5.776-42.206 17.84-79.37 43.937-135.36 6.427-13.79 17.533-38.767 24.68-55.507 31.356-73.432 80.303-132.368 147.011-177.008 17.169-11.489 49.03-33.16 70.805-48.159 21.774-14.998 62.285-38.71 90.023-52.692 102.354-51.592 110.243-56.273 131.879-78.247 16.012-16.263 37.307-32.196 64.119-47.975 20.778-12.229 23.05-14.5 36.707-36.671 14.92-24.224 69.676-95.856 81.157-106.17 3.522-3.163 15.95-15.696 27.617-27.85 35.969-37.468 57.41-55.05 108.89-89.283 7.38-4.908 20.648-14.898 29.484-22.2 16.127-13.328 54.393-41.57 95.004-70.118 11.98-8.421 35.123-20.475 51.431-26.787 32.698-12.656 40.837-16.47 69.185-32.429C1756.6 21.125 1846.376-2.384 1906.91.193c23.767 1.012 31.466 1.623 91.97 7.3 29.037 2.725 172.113 28.846 199.254 36.378 8.671 2.406 24.718 6.407 35.66 8.892 42.665 9.687 54.656 13.056 81.164 22.809 15.102 5.556 36.859 15.12 48.348 21.254 18.359 9.8 22.559 13.449 34.661 30.112 17.146 23.606 20.918 45.297 13.942 80.17-9.316 46.576-33.162 75.154-78.284 93.822-88.998 36.821-127.07 45.378-323.813 72.776-99.117 13.802-127.637 21.999-153.888 44.227-50.096 42.418-98.335 100.504-133.326 160.542-8.958 15.37-28.151 43.767-42.652 63.103-14.5 19.336-26.49 36.986-26.643 39.222-.153 2.235-9.472 19.028-20.708 37.317-15.844 25.789-27.632 41.122-52.52 68.315-17.65 19.284-38.303 43.715-45.894 54.29-20.84 29.03-77.433 84.485-107.405 105.244-14.478 10.027-32.788 23.832-40.69 30.676-11.749 10.178-43.417 27.873-79.88 44.635-15.439 7.097-97.722 50.435-99.038 52.162-.816 1.078-11.74 5.425-24.268 9.665-12.529 4.24-24.462 9.934-26.52 12.653-3.363 4.446 5.983 46.28 11.314 50.635 1.79 1.462 9.871 17.609 48.52 96.942 9.03 18.538 13.038 31.856 21.213 70.5 3.865 18.274 9.923 43.095 13.46 55.156 18.016 61.416 9.245 122.642-23.794 166.109-8.97 11.798-20.352 31.356-25.866 44.441-13.39 31.772-22.415 46.614-54.323 89.331-24.332 32.574-30.814 39.314-59.443 61.81-17.673 13.887-43.647 31.43-57.719 38.986-14.072 7.555-33.787 18.975-43.813 25.378-18.54 11.84-35.53 18.674-66.212 26.629-9.412 2.44-31.077 8.42-48.145 13.287-17.068 4.868-41.534 9.053-54.368 9.3-12.834.248-33.609 3.168-46.166 6.489-12.557 3.321-41.344 10.153-63.97 15.18-22.626 5.029-54.996 12.724-71.933 17.1-16.937 4.378-45.154 10.686-62.704 14.02-17.55 3.334-37.911 8.94-45.247 12.46-16.047 7.699-69.884 60.333-109.032 106.596-15.034 17.767-29.55 33.15-32.257 34.184-8.133 3.108-63.121 57.317-94.09 92.757-54.805 62.716-84.658 89.14-126.063 111.585-51.307 27.812-117.574 19.926-144.515-17.198zm1859.277-1995.46c4.092-.567 9.146-3.284 11.229-6.037 4.426-5.85 3.332-18.673-1.932-22.657-5.265-3.983-17.903-1.55-22.329 4.3-4.426 5.85-3.332 18.673 1.933 22.656 2.012 1.523 7.006 2.305 11.099 1.738zm-27.612-25.132c4.092-.567 9.145-3.283 11.229-6.037 4.426-5.85 3.332-18.673-1.932-22.656-5.265-3.983-17.903-1.55-22.329 4.3-4.426 5.85-3.332 18.673 1.932 22.656 2.013 1.522 7.007 2.304 11.1 1.737z" stroke-width="3.38"/></svg>