<svg xmlns="http://www.w3.org/2000/svg" xmlns:dc="http://dublincore.org/documents/dcmi-terms/" height="1920" width="2560"><metadata><dc:description>Silhouette of Neoribates aurantiacus, processed by PhyloPic Tools (https://github.com/eweitz/phylopic-tools)</dc:description><dc:source>http://phylopic.org/image/ee4c7da2-3000-40c6-90c9-eb6dca81cde4</dc:source><dc:creator>Birgit Lang</dc:creator><dc:license>http://creativecommons.org/licenses/by/3.0/</dc:license></metadata><path d="M1721.15 1541.6c-5.04-1.788-10.89-4.416-13-5.84-4.772-3.219-17.89-15.025-22.27-20.04-3.85-4.412-5.066-4.695-5.066-1.178 0 1.913-.45 2.487-1.75 2.238-1.332-.256-2.013-2.004-2.851-7.324-1.176-7.46-3.38-11.686-14.18-27.2-6.257-8.987-8.725-10.215-11.627-5.787-2.032 3.102-3.206 3.113-9.82.093-6.35-2.9-15.973-6.385-28.772-10.42-14.053-4.432-33.502-12.576-36.94-15.47-1.657-1.393-4.485-2.837-6.286-3.21-1.8-.372-6.199-2.377-9.774-4.456-4.4-2.56-9.245-4.341-15-5.517-6.025-1.231-10.035-2.744-13.773-5.197-2.9-1.903-10.325-5.256-16.5-7.452-6.174-2.195-13.477-4.923-16.227-6.06-2.75-1.139-8.6-3.557-13-5.375-7.734-3.195-10.397-5.584-10.517-9.435-.077-2.47-2.225-4.567-6.983-6.82-2.475-1.172-5.357-2.704-6.404-3.406-11.77-7.878-11.485-7.774-21.4-7.774-9.055 0-9.444-.094-12.35-3-1.65-1.65-3.28-3-3.621-3-.686 0-4.09 3.165-18.118 16.841-5.167 5.037-9.78 9.159-10.25 9.159-1.597 0-.867 2.68 1.25 4.595 2.842 2.57 12.467 16.369 13.305 19.074.5 1.615.186 2.324-1.229 2.773-3.143.997-4.93-.335-9.11-6.788-2.191-3.385-5.556-7.684-7.476-9.554-3.448-3.355-3.526-3.376-6.135-1.667-1.453.952-5.864 4.94-9.802 8.862-3.938 3.922-9.046 8.358-11.351 9.859-5.037 3.277-15.682 11.82-16.124 12.938-.402 1.019 7.802 4.779 12.065 5.53 1.788.315 5.05 1.178 7.25 1.917 2.2.739 6.616 1.63 9.812 1.982 5.839.64 8.126 2.441 5.913 4.654-1.246 1.246-26.278-4.233-33.102-7.244-5.333-2.353-8.682-2.431-13.735-.32-2.53 1.057-5.41 1.43-8.372 1.084-2.665-.31-6.155.046-8.516.871-3.587 1.254-4.129 1.225-5.25-.275-.687-.92-1.25-2.446-1.25-3.39 0-1.512-8.801-9.901-10.388-9.901-2.765 0 4.645 14.707 11.82 23.46 3.063 3.737 5.568 7.167 5.568 7.623 0 .456 3.375 4.17 7.5 8.256 7.42 7.347 8.92 10.178 5.993 11.302-3.155 1.21-11.577-6.696-23.055-21.643-8.73-11.367-12.778-18.149-16.417-27.498-1.285-3.3-3.097-6.9-4.028-8-.931-1.1-3.058-4.03-4.726-6.512-3.794-5.641-10.33-11.933-21.267-20.472-18.544-14.479-23.328-18.957-28.172-26.378-2.655-4.067-4.828-8.21-4.828-9.208 0-3.065-2.091-3.312-4.653-.548-1.859 2.004-3.036 2.483-4.934 2.006-1.664-.417-3.131-.048-4.412 1.11-1.055.956-3.366 2.033-5.135 2.395-1.769.362-3.39 1.181-3.604 1.82-.839 2.517 11.126 12.842 26.211 22.62 11.368 7.367 8.635 9.948-3.966 3.744-8.491-4.18-12.872-7.467-21.238-15.932l-7.269-7.354-.14 9.354c-.323 21.68-.156 20.325-2.548 20.666-2.127.303-2.191.019-2.255-10-.091-14.083-.951-18.221-3.875-18.638-1.26-.18-2.926.2-3.702.843-1.747 1.45-24.105 7.971-27.355 7.978-1.306 0-4.906 1.083-8 2.4-3.093 1.317-8.279 2.98-11.523 3.695-3.244.716-7.51 2.395-9.48 3.732-1.97 1.337-5.39 2.658-7.602 2.936-2.21.278-4.769 1.156-5.684 1.951-.915.796-2.527 1.3-3.583 1.121-1.055-.179-3.456.448-5.335 1.393-1.88.944-6.22 2.8-9.647 4.123-5.326 2.056-6.486 2.21-8 1.062-3.191-2.422-7.732-1.642-13.42 2.305-4.572 3.172-6.37 3.79-12.35 4.25-6.985.536-7 .544-7 3.524 0 2.272.657 3.302 2.75 4.305 1.814.87 2.75 2.096 2.75 3.606 0 1.26.9 4.905 2 8.102 3.59 10.435 2.898 12.366-6.5 18.168-5.482 3.383-6.832 3.76-15.615 4.352-7.48.505-10.43 1.154-13.291 2.922-2.773 1.714-4.468 2.108-6.886 1.601-11.017-2.307-17.994-1.085-20.626 3.614-1.65 2.946-1.183 4.406 3.435 10.735 2.2 3.016 2.44 4.227 2.172 10.914-.297 7.414-.361 7.576-4.426 11.183-2.269 2.013-6.178 4.749-8.687 6.08l-4.563 2.42-4.757-1.838c-2.616-1.011-7.532-2.224-10.925-2.696-7.763-1.08-18.532-3.819-19.782-5.032-1.761-1.71-6.508-.94-12.95 2.104-5.77 2.726-6.845 2.927-10.857 2.028-2.907-.652-5.629-.66-7.841-.026-6.193 1.776-14.412 1.163-20.497-1.528-3.526-1.56-7.5-2.5-10.561-2.5-5.28 0-18.734-4.691-22.474-7.836-1.211-1.019-2.439-3.615-2.845-6.017-.79-4.679-4.14-7.743-7.502-6.863-1.453.38-3.694-1.187-8.489-5.935-6.933-6.866-11.16-9.173-27.459-14.987-6.45-2.3-11.201-3.362-15.05-3.362-3.093 0-6.11-.486-6.704-1.08-.593-.593-4.396-2.085-8.45-3.315-6.764-2.052-7.63-2.629-10.52-7.007-1.733-2.623-4.208-5.482-5.5-6.353a152.918 152.918 0 0 1-2.692-1.839c-.188-.141.241-1.87.954-3.841 1.12-3.098 1.08-3.802-.298-5.179-2.527-2.527-7.102-.883-11.837 4.254-4.735 5.137-6.236 5.133-3.059-.01 1.18-1.91 1.743-3.723 1.25-4.028-.862-.532-6.993.36-17.669 2.57-2.75.568-6.677 2.112-8.728 3.43-4.497 2.89-6.48 2.97-9.772.396-1.438-1.125-4.076-1.965-6.211-1.977-3.534-.021-3.764.181-4.806 4.228-2.106 8.176-3.09 10.577-4.569 11.144-2.471.949-2.849-2.333-.92-8.007 2.48-7.295 2.519-13.61.101-16.282-1.047-1.158-2.422-2.105-3.054-2.105-1.163 0-17.671-11.156-25.04-16.922-2.2-1.721-9.4-7.134-16-12.028-6.6-4.893-13.984-10.394-16.408-12.224-6.378-4.814-23.577-22.603-26.282-27.183-1.27-2.152-3.91-5.765-5.863-8.028-4.36-5.05-14.533-18.652-18.023-24.097-3.159-4.929-26.952-29.077-32.883-33.373-2.372-1.719-5.264-4.414-6.427-5.99-1.163-1.575-3.59-4.106-5.393-5.623-1.803-1.517-5.369-5.52-7.924-8.895-2.555-3.376-7.155-8.872-10.222-12.215-5.257-5.73-14.932-17.666-28.576-35.255-3.3-4.254-7.35-9.107-9-10.784-3.252-3.305-13.405-18.83-17.581-26.883-10.607-20.455-14.876-29.542-15.502-33-1.044-5.759-7.07-22.458-8.795-24.374-.806-.894-1.764-2.976-2.129-4.626-.365-1.65-1.3-4.697-2.078-6.77-.778-2.074-1.415-5.13-1.415-6.79 0-1.661-.922-4.829-2.05-7.04-1.831-3.59-2.092-6.283-2.442-25.241-.215-11.673-.867-22.476-1.45-24.006-1.484-3.906-1.26-25.142.4-37.653 2.109-15.91 6.677-38.514 10.712-53 1.148-4.126 2.478-9.526 2.954-12 .476-2.476 2.218-8.55 3.872-13.5 1.654-4.95 4.41-13.726 6.123-19.5 4.621-15.57 13.787-42.198 15.345-44.581.748-1.145 2.814-6.995 4.59-13 6.29-21.262 24.808-64.888 38.593-90.92a2791.15 2791.15 0 0 0 6.843-13.052c2.308-4.428 5.841-10.624 7.853-13.769 2.012-3.145 3.657-6.062 3.657-6.482 0-1.438 17.102-25.523 18.92-26.647.531-.328 6.239-7.622 12.685-16.21 8.743-11.648 16.516-20.402 30.61-34.476 10.39-10.374 19.49-18.863 20.22-18.863.73 0 2.519-1.56 3.974-3.469 1.455-1.907 6.346-6.652 10.868-10.542 4.523-3.89 11.902-10.254 16.399-14.14 17.766-15.357 67.282-49.654 83.824-58.062 6.562-3.336 14.727-7.957 19.864-11.243 5.812-3.718 17.315-8.95 35.563-16.175 6.285-2.488 14.385-6.066 18-7.95 3.615-1.884 9.273-4.495 12.573-5.803a1025.53 1025.53 0 0 0 23-9.448c7.117-3.023 22.173-8.755 28.5-10.85 2.475-.819 6.075-2.137 8-2.928 1.925-.791 6.038-1.846 9.14-2.344 3.101-.498 8.951-2.316 13-4.04 4.048-1.724 10.285-3.784 13.86-4.577 3.575-.793 8.975-2.154 12-3.023 8.744-2.511 28.82-7.433 37-9.07 16.9-3.38 62.379-10.743 76-12.303 5.775-.66 12.525-1.577 15-2.035 2.475-.459 12.375-1.549 22-2.422 9.625-.873 22.225-2.245 28-3.048 5.775-.803 15.9-1.699 22.5-1.99 6.6-.29 14.7-.999 18-1.575 3.312-.578 29.073-1.308 57.5-1.63 28.325-.32 52.85-.601 54.5-.624 11.52-.16 79.067 2.43 83.5 3.203 3.025.526 12.25 1.241 20.5 1.59 8.25.347 19.275 1.208 24.5 1.913 5.225.705 10.85 1.342 12.5 1.416 4.184.188 23.497 3.047 32.5 4.812 4.125.809 10.648 1.896 14.496 2.417 3.847.52 8.347 1.374 10 1.897 1.652.522 6.83 1.696 11.504 2.608 8.858 1.729 12.479 2.437 22.5 4.401 3.3.647 10.794 2.682 16.653 4.522 5.858 1.84 14.183 3.866 18.5 4.503 7.01 1.034 33.303 9.142 35.847 11.055 1.309.983 29.327 11.954 30.53 11.954.51 0 3.45 1.238 6.536 2.75l5.61 2.75 4.85-5.5c2.669-3.025 6.342-7.87 8.163-10.767 1.821-2.896 7.526-10.546 12.677-17 22.885-28.672 28.28-35.233 28.968-35.233.405 0 1.486-1.237 2.404-2.75.917-1.512 4.39-5.87 7.72-9.683 6.511-7.46 11.61-14.86 20.032-29.067 5.696-9.61 7.815-12.5 9.165-12.5 1.934 0 .568 4.58-3.81 12.78-8.217 15.392-9.724 17.79-16.548 26.33-10.365 12.97-13.568 17.076-16.545 21.205-1.514 2.098-5.114 6.677-8.002 10.176-2.887 3.499-5.25 6.812-5.25 7.362 0 .551-1.524 2.272-3.388 3.824-1.864 1.553-6.904 7.323-11.201 12.823-4.297 5.5-9.657 12.086-11.911 14.635-4.659 5.269-10.48 15.742-9.792 17.615.252.688 1.103 1.25 1.89 1.25.786 0 2.21.398 3.166.883.955.486 3.086 1.438 4.736 2.116 3.562 1.464 4.052 1.737 9.103 5.08 2.144 1.418 6.372 4.083 9.397 5.92 12.522 7.61 19.88 12.33 26.5 17.005 3.85 2.719 7.79 4.955 8.753 4.97.964.014 3.293-1.68 5.176-3.764 4.713-5.216 23.054-30.3 25.14-34.38.935-1.832 4.28-6.727 7.433-10.879 3.153-4.151 8.101-11.351 10.997-16 2.895-4.648 8.492-13.4 12.437-19.45 12.056-18.488 30.073-57.45 33.063-71.5.41-1.926 1.536-5.076 2.503-7 .966-1.926 2.494-8.226 3.395-14 .901-5.776 2.049-12.75 2.55-15.5 4.242-23.284 5.043-39.017 3.105-61l-1.587-18c-1.305-14.796-6.96-33.442-17.365-57.245-3.905-8.934-7.12-17.034-7.144-18-.024-.966-.647-3.449-1.386-5.517-1.592-4.463-.164-6.178 2.36-2.833 3.011 3.993 18.44 39.48 22.866 52.594 7.18 21.273 10.87 48.59 9.187 68-3.248 37.45-3.838 43.457-4.352 44.288-.313.508-1.257 4.7-2.097 9.318-2.175 11.955-7.917 33.016-9.795 35.927-.875 1.357-2.333 5.392-3.24 8.967-1.369 5.4-13.843 33.001-18.98 42-.786 1.375-3.03 5.425-4.989 9-1.958 3.575-6.502 10.55-10.097 15.5-3.594 4.95-8.734 12.375-11.42 16.5-2.687 4.125-5.973 8.85-7.302 10.5-1.33 1.65-3.17 4.575-4.088 6.5-.92 1.925-3.23 5.525-5.133 8-1.904 2.475-4.989 6.786-6.855 9.58-1.866 2.795-5.36 7.341-7.764 10.103-4.081 4.69-8.248 10.94-8.333 12.498-.021.375 9.187 7.604 20.462 16.064s23.58 18.391 27.345 22.069c3.765 3.677 7.397 6.686 8.072 6.686.675 0 4.344-2.5 8.155-5.555 3.81-3.055 8.842-6.768 11.182-8.25 2.34-1.482 6.84-4.516 10-6.741 3.16-2.226 7.771-5.08 10.246-6.343 2.475-1.263 5.4-3.08 6.5-4.037 3.016-2.626 11.146-7.074 12.928-7.074 5.271 0-2.561 8.787-15.971 17.917-4.376 2.98-11.22 7.641-15.207 10.359s-7.25 5.37-7.25 5.893c0 .578 3.635.71 9.25.338 10.945-.726 12.942.025 10.398 3.908-1.458 2.225-2.421 2.59-6.92 2.618-4.575.028-10.998.788-22.41 2.65-5.779.944-5.02 3.056 4.396 12.252 4.833 4.72 13.813 15.103 19.957 23.073 12.448 16.15 16.782 20.992 18.791 20.992.748 0 4.213-.894 7.7-1.987 3.486-1.093 7.913-2 9.838-2.017 1.925-.017 7.55-.707 12.5-1.533 14.786-2.468 45.378-2.984 64-1.08 18.366 1.877 25.758 3.336 25.219 4.978-.638 1.94-9.107 1.835-23.504-.294-10.585-1.566-18.662-2.032-34.592-2-19.585.041-26.441.8-25.212 2.788.292.473 2.682 1.122 5.31 1.444 5.3.647 21.945 5.93 26.717 8.48 1.684.899 5.316 2.572 8.071 3.718 6.416 2.67 14.471 8.652 21.691 16.113 5.912 6.11 16.084 20.52 17.342 24.57.396 1.276 2.22 5.313 4.052 8.97 5.08 10.141 17.406 48.313 17.406 53.903 0 .953-.685 1.996-1.522 2.317-1.804.692-5.437-6.807-7.46-15.399-1.363-5.783-11.087-33.384-13.554-38.47-5.545-11.432-19.267-31.496-25.094-36.692-3.025-2.697-26.594-14.587-36.496-18.41l-9.054-3.498-19.91.7c-10.95.386-19.91.975-19.91 1.31 0 .334 3.079 4.465 6.841 9.178 8.08 10.124 23.982 31.252 26.45 35.145.954 1.504 2.966 2.98 4.472 3.28 1.506.299 4.762 1.253 7.237 2.12 2.475.866 6.974 2.246 9.998 3.066 8.062 2.187 24.7 10.047 30.852 14.574 6.478 4.767 20.938 19.211 25.269 25.241 2.967 4.132 6.21 10.914 9.554 19.985 2.044 5.544 4.317 7.677 12.341 11.578 7.07 3.437 8.373 4.752 7.348 7.422-.716 1.866-3.097 1.866-6.362 0-4.116-2.353-6-1.908-6 1.418 0 5.01.89 6.082 5.048 6.082 2.11 0 4.112.45 4.452 1 1.046 1.691 8.066 1.128 10.615-.851 4.941-3.836 13.325-2.933 15.805 1.7 1.509 2.82 1.312 4.293-.934 6.989l-1.948 2.337-2.654-2.087c-3.49-2.746-4.38-2.66-11.149 1.082-8.762 4.842-13.936 9.395-15.27 13.436-1.104 3.345-.917 4.119 2.675 11.104 2.123 4.13 6.454 10.497 9.625 14.15 3.17 3.652 7.764 9.607 10.208 13.233 2.443 3.625 5.133 7.164 5.975 7.864.843.7 4.575 1.513 8.293 1.808 8.363.663 14.886 3.321 16.422 6.693.932 2.045.807 3.282-.658 6.533-.995 2.205-2.091 4.01-2.437 4.01-.346 0-1.137-1.347-1.758-2.991-.66-1.749-2.272-3.425-3.882-4.037-3.99-1.517-5.226.13-3.233 4.308 1.505 3.156 1.463 3.489-.956 7.584-2.51 4.25-4.185 4.228-4.223-.056-.017-1.907-1.793-3.365-2.832-2.326-.376.376-.739 4.359-.806 8.85-.067 4.492-.7 14.496-1.405 22.231-1.407 15.43-1.2 17.35 2.463 22.746 2.256 3.325 2.361 3.92 1.131 6.427-.745 1.52-2.258 4.788-3.361 7.263-1.104 2.475-4.273 7.402-7.043 10.948-2.77 3.547-4.813 6.81-4.54 7.25.272.441 1.508.802 2.745.802 1.238 0 3.084.61 4.103 1.355 1.774 1.297 1.735 1.509-.928 5-3.135 4.11-4.094 4.467-4.797 1.781-.759-2.902-7.031-1.41-11.19 2.662-2.327 2.28-6.715 4.53-14.211 7.29-21.06 7.751-23.274 9.618-14.595 12.305 2.613.808 9.25 3.75 14.75 6.539 5.5 2.787 10.584 5.068 11.298 5.068 1.876 0 6.202 4.971 6.202 7.127 0 2.52-3.48 3.212-13.306 2.646-6.888-.397-9.707-1.149-17.694-4.721-24.145-10.8-22.91-10.397-27.412-8.959-6.777 2.166-25.68 10.892-30.882 14.256-4.76 3.078-4.863 3.249-4.414 7.382.301 2.783 0 4.608-.868 5.332-.729.605-1.64 3.201-2.023 5.769-1.131 7.569-7.134 15.31-13.016 16.786-1.26.317-3.685-.12-5.389-.97-4.684-2.337-4.957-2.119-9.822 7.852-1.074 2.2-2.902 4.566-4.063 5.259-2.785 1.66-2.667 3.77.358 6.4 2.262 1.968 2.422 2.658 1.916 8.244-.776 8.55-.938 8.907-3.434 7.57-3.063-1.639-4.948.412-4.961 5.4-.01 2.27-.743 6.377-1.637 9.127-1.224 3.766-1.592 8.526-1.493 19.286.123 13.31-1.502 29.33-3.723 36.714-1.493 4.965-9.02 23.494-12.795 31.5-7.154 15.172-18.73 37.618-21.496 41.68-1.565 2.3-2.846 4.41-2.846 4.692 0 2.068-8.461 17.628-9.586 17.628-1.852 0-1.947.383 2.151-8.646 5.046-11.118 8.44-17.539 10.491-19.854.975-1.1 2.529-4.624 3.453-7.832.925-3.208 3.157-8.833 4.96-12.5 5.708-11.604 12.505-29.666 13.08-34.758.305-2.7 1.054-6.6 1.665-8.665 1.369-4.631.487-5.725-2.468-3.06-1.235 1.115-3.82 2.873-5.746 3.908-7.307 3.927-10.207 7.883-14.122 19.264-1.959 5.693-4.878 10.098-10.84 16.36-9.954 10.455-10.766 11.783-7.198 11.783 1.012 0 2.328 1.073 2.926 2.384.934 2.051.702 2.752-1.665 5.02-3.016 2.889-7.79 4.596-12.855 4.596-4.48 0-11.717 3.58-14.884 7.363-3.942 4.709-17.476 16.856-18.094 16.238-.86-.86 2.183-4.92 8.175-10.913 3.057-3.057 5.557-6.226 5.557-7.043 0-.843-1.318-1.775-3.045-2.155-3.29-.723-4.208.096-15.05 13.426-2.423 2.979-6.047 6.354-8.054 7.5-2.007 1.146-5.318 4.334-7.358 7.084-3.678 4.96-15.575 16.83-26.868 26.808-3.232 2.856-7.695 7.892-9.918 11.192-2.223 3.3-5.091 7.272-6.374 8.827-1.53 1.855-2.333 4.122-2.333 6.595 0 2.498-.674 4.378-2 5.578-1.1.996-2 2.795-2 3.998 0 1.818 2.036 3.14 12.026 7.81 6.615 3.093 13.702 6.974 15.75 8.626 8.885 7.166 28.078 20.95 31.848 22.874 2.26 1.153 5.481 3.25 7.158 4.662 1.677 1.41 5.674 3.719 8.884 5.129 3.209 1.41 8.534 3.95 11.834 5.644 3.3 1.695 7.8 3.97 10 5.055 2.2 1.086 6.613 4.388 9.807 7.338 5.548 5.124 8.693 6.66 8.693 4.246 0-.615 1.338-2.642 2.974-4.504 1.635-1.863 3.703-5.898 4.595-8.967l1.622-5.58 2.22 2.085c2.782 2.614 5.07 2.637 8.317.085 2.947-2.319 4.272-2.535 4.272-.697 0 .716-2.725 3.225-6.057 5.574-6.378 4.498-15.236 15.35-14.724 18.039.166.87 1.267 1.722 2.448 1.89 1.298.187 2.386 1.268 2.755 2.738.831 3.312 4.731 5.66 8.758 5.274 3.634-.349 3.718-.737 2.255-10.451-.825-5.479 1.028-6.694 4.339-2.845 3.258 3.788 2.705 10.325-1.22 14.422l-2.675 2.791 4.05 3.208c5.34 4.229 7.48 3.79 7.875-1.616.33-4.513 2.395-6.238 4.94-4.125 1.117.926 1.355 2.55.951 6.464l-.54 5.228 4.673 1.655c2.57.91 6.87 2.51 9.556 3.553 6.155 2.392 11.016 2.361 16.116-.102 9.067-4.38 9.384-1.24.372 3.666-2.68 1.458-4.855 3.142-4.835 3.742.037 1.098 8.001 6.592 9.555 6.592.458 0 2.742 1.873 5.075 4.163s5.851 4.716 7.818 5.392c3.456 1.188 3.661 1.12 6.046-2.007 2.003-2.626 2.47-4.391 2.47-9.346 0-7.104 1.3-10.563 4.526-12.032 3.235-1.475 4.106 1.21 1.476 4.553-1.385 1.761-2.003 4.058-2.003 7.451 0 4.936-3.088 12.826-5.02 12.826-1.966 0-.91 2.999 1.645 4.673 2.427 1.59 2.836 1.599 5.424.114 3.367-1.933 4.187-1.399 2.738 1.783-1.408 3.089-.055 4.733 5.184 6.303 4.08 1.222 5.77.756 11.231-3.1 3.449-2.436 3.175.494-.348 3.722l-3.64 3.335 6.456 3.178c7.976 3.927 20.328 13.066 30.639 22.671 11.143 10.38 17.245 13.076 31.576 13.946 10.578.643 11.197.798 10.915 2.744-.606 4.178-4.594 5.164-15.834 3.917-8.493-.943-11.026-1.647-15.148-4.21-5.52-3.43-7.961-3.813-9.846-1.542-1.033 1.244-1.022 2.003.057 4.02.892 1.667 1 2.817.325 3.492-1.147 1.146-3.49-.905-10.172-8.905-6.96-8.333-11.132-9.825-28.283-10.114-1.805-.03-9.963-7.682-14.193-13.313-3.126-4.16-9.252-7.714-13.295-7.714-1.661 0-4.179 1.364-6.67 3.615-3.543 3.2-4.474 3.561-8.121 3.146-2.266-.258-5.887-1.67-8.046-3.14-4.927-3.352-5.792-2.326-4.956 5.879.838 8.226 3.348 13.526 9.471 20 4.559 4.82 5.679 5.5 9.066 5.5 2.627 0 4.413-.64 5.577-2 1.959-2.288 3.268-2.58 3.268-.728 0 2.736-6.073 8.65-9.553 9.303-4.574.859-5.14 2.058-2.364 5.013 1.917 2.04 2.13 2.889 1.304 5.176-1.362 3.764-5.92 3.438-9.387-.671-1.546-1.833-4.207-3.408-6.973-4.127-2.46-.64-5.776-2.26-7.37-3.601-4.777-4.02-8.515-5.555-11.78-4.839-3.46.76-9.877-1.848-9.877-4.014 0-3.965-4.825-1.973-8.045 3.32-1.736 2.856-1.738 3.054-.043 4.588 3.646 3.3 9.134 12.294 8.504 13.937-1.328 3.461-5.147 1.805-11.047-4.792l-5.755-6.434-3.25 2.853c-5.254 4.614-15.42 9.817-22.386 11.459-10.66 2.513-20.01 1.96-30.642-1.813zm40.336-6.235c3.945-1.868 7.573-3.396 8.063-3.396.49 0 2.168-1.333 3.73-2.962l2.837-2.962-4.4-5.629c-2.421-3.096-5.688-7.476-7.26-9.733-3.7-5.312-26.118-27.408-29.524-29.1-3.406-1.693-23.202-6.128-34.398-7.707-8.466-1.194-8.886-1.16-11.75.957l-2.97 2.196v-2.339c0-3.927-2.168-5.918-6.044-5.55-4.146.395-4.956 2.993-2.446 7.848.897 1.735 2.02 6.925 2.496 11.533.83 8.054 1.075 8.66 6.317 15.663 14.044 18.763 31.044 31.215 46.677 34.19 10.519 2.003 20.244.982 28.672-3.009zm23.5-15.731c2.152-1.636 6.002-12.542 5.257-14.89-.961-3.028-6.402-5.181-13.429-5.314-3.575-.068-7.737-.474-9.25-.9-4.462-1.262-3.45 1.733 3.194 9.453 3.268 3.798 6.486 7.936 7.15 9.196 2.063 3.918 4.186 4.654 7.078 2.455zm112.18-22.444c-9.546-8.249-35.352-21.113-35.352-17.624 0 .329 2.226 2.598 4.946 5.044 2.72 2.445 5.889 5.973 7.042 7.839 2.655 4.296 11.35 7.082 23.012 7.374l3.5.088-3.148-2.72zm-54.362-12.708c2.032-2.45.467-4.258-6.895-7.965-7.112-3.582-10.095-3.748-10.095-.563 0 2.06 1.577 3.498 7.904 7.215 5.288 3.105 7.35 3.403 9.086 1.313zm-506.199-80.452c.94-2.166 6.322-8.702 11.96-14.523 9.612-9.926 12.41-14.538 8.817-14.538-.787 0-2.393-1.35-3.568-3-1.175-1.65-2.75-3-3.5-3s-1.68-.99-2.064-2.202c-.384-1.21-2.82-4.751-5.414-7.868-2.593-3.116-5.698-7.695-6.898-10.175-1.91-3.945-2.675-4.587-6.12-5.138-2.165-.347-4.402-1.19-4.97-1.873a142.727 142.727 0 0 1-2.846-3.62c-2.243-2.944-4.899-2.326-9.501 2.21-5.463 5.382-10.478 8.702-16.03 10.612-8.145 2.803-11.285 4.709-14.647 8.892-1.694 2.108-4.864 4.836-7.044 6.061-2.18 1.225-4.452 3.142-5.05 4.259-1.35 2.521.652 4.87 8.886 10.427 3.134 2.115 8.848 6.143 12.698 8.95 10.788 7.866 26.76 16.51 32.197 17.423 10.103 1.697 11.207 1.453 13.094-2.897zm247.742-174.579c11.626-5.66 17.619-9.664 16.355-10.927-.238-.238-5.373.042-11.41.622l-10.978 1.056-6.75 7.077c-11.427 11.981-8.417 12.493 12.783 2.172zm28.158-5.319c7.921-7.174 8.49-10.157 1.133-5.935a6904.023 6904.023 0 0 1-12.574 7.187c-4.537 2.587-8.25 5.172-8.25 5.743 0 .684 2.12.793 6.206.318 5.862-.68 6.609-1.085 13.485-7.313zm-15.422-10.89c7.491-.404 8.925-.767 9.847-2.49.836-1.56.725-2.371-.492-3.588-1.579-1.578-3.289-1.446-17.144 1.324-2.705.54-6.683 4.342-5.889 5.628.354.572 1.582.71 2.772.313 1.176-.393 6.083-.927 10.906-1.187zm30.596-2.651c3.5-1.167 6.426-2.572 6.5-3.122.081-.597-4.16-1.114-10.537-1.283-9.98-.265-10.714-.151-11.317 1.75-.355 1.118-.35 2.966.012 4.106.578 1.822 1.161 1.988 4.817 1.372 2.288-.386 7.024-1.656 10.525-2.823zm29.447-10.141c16.208-4.747 29.355-10.036 38.188-15.362 4.4-2.653 10.025-5.602 12.5-6.554 2.475-.952 5.85-2.536 7.5-3.519 1.65-.983 4.617-2.03 6.593-2.328 6.26-.943 20.907-11.982 20.907-15.758 0-.533 1.122-3.295 2.494-6.138 1.371-2.843 2.384-5.255 2.25-5.362-.134-.106-6.094-.745-13.244-1.419-15.207-1.434-25.225-3.198-31.5-5.548-2.475-.927-7.875-2.48-12-3.45-4.125-.971-9.242-2.503-11.372-3.404-2.13-.901-4.854-1.639-6.054-1.639-3.067 0-10.96 5.219-18.397 12.164-3.478 3.247-8.049 7.047-10.159 8.443-2.109 1.396-4.417 3.943-5.128 5.659-.71 1.717-3.196 5.265-5.523 7.885-3.322 3.74-4.358 5.794-4.82 9.556-.972 7.934-1.979 11.62-3.29 12.048-.944.31-1.09-1.054-.607-5.674.506-4.845.352-6.072-.757-6.036-2.224.072-18.896 16.504-18.86 18.589.091 5.388 5.134 7.323 19.46 7.466 5.504.055 11.132.46 12.507.9 4.197 1.344 13.835 1.085 19.312-.52zm-55.893-.087c1.744-.67 2.146-3.926.602-4.88-1.081-.669-5.129 1.184-6.205 2.839-1.481 2.28 1.833 3.487 5.603 2.04zm327.381-382.594c.66-.66 1.2-2.36 1.2-3.777 0-1.418.675-3.541 1.5-4.72 2.23-3.183 1.031-4.796-5.816-7.823-3.4-1.503-7.581-3.775-9.29-5.048-5.052-3.764-13.173-8.319-13.77-7.722-.835.834 1.117 4.06 7.095 11.723 2.974 3.813 6 8.35 6.723 10.083 1.435 3.432 7.13 8.455 9.608 8.473.853.006 2.09-.529 2.75-1.189zm.543-21.55c.254-.412-.541-2.55-1.767-4.75-3.439-6.175-12.761-11.628-33.358-19.513-4.571-1.75-5.076-.584-1.177 2.722 4.933 4.183 5.753 4.697 15.48 9.714 4.938 2.547 11.23 6.396 13.98 8.552 5.229 4.1 6.083 4.51 6.842 3.275zm-8.343-21.673c0-.233-1.89-3.93-4.202-8.215-4.198-7.782-10.001-14.432-17.385-19.92-2.152-1.6-6.388-4.963-9.413-7.473-3.025-2.51-9.395-6.898-14.157-9.75-8.563-5.128-21.515-10.57-22.254-9.35-.498.823 5.913 11.377 10.742 17.683 2.084 2.721 5.678 7.873 7.986 11.448 3.607 5.586 5.11 6.952 10.69 9.717 3.571 1.77 8.96 3.777 11.974 4.461 3.602.817 6.721 2.365 9.102 4.515 4.067 3.675 11.27 7.252 14.667 7.285 1.238.012 2.25-.168 2.25-.401z"/></svg>