<svg xmlns="http://www.w3.org/2000/svg" xmlns:dc="http://dublincore.org/documents/dcmi-terms/" height="1165.183" version="1.2" viewBox="0 0 925.064 1165.183" width="925.064" overflow="inherit"><metadata><dc:description>Silhouette of Nepenthaceae, processed by PhyloPic Tools (https://github.com/eweitz/phylopic-tools)</dc:description><dc:source>http://phylopic.org/image/ee842077-bf8f-4ddf-a17a-b80799020a42</dc:source><dc:creator>Plukenet</dc:creator><dc:license>http://creativecommons.org/publicdomain/mark/1.0/</dc:license></metadata><path d="M0 542.183h1c2.317-50.35 20.155-90.805 49-117 8.296-7.534 20.187-12.344 32-14 18.527-13.988 67.621-7.127 91 0 11.687 3.562 23.118 6.333 28 14 8.527.99 12.774 5.559 22 8 27.841 7.369 49.614 28.274 67 50 9.117 11.393 23.592 23.163 30 37 2.465 5.323 2.45 13.082 5 19 4.283 9.939 12.518 17.89 18 27 5.102 8.479 11.465 18.527 15 29 3.943 11.684 3.621 23.694 7 37 3.383 13.321 13.021 23.635 18 36 4.605 11.435 8.403 27.061 10 39 .916 6.85-.324 13.45 1 20 2.977 14.729 11.433 28.082 15 43 4.777 19.98 2.509 40.082 7 59 4.213 17.748 9.434 35.5 15 53 2.38 7.482 7.242 13.707 10 21 5.624 14.872 9.293 30.543 20 43 7.176-22.361 6.91-54.209 9-84 2.207-31.464.057-68.781-1-100-.465-13.748-1.604-28.133-1-38-1.202-5.125-3.72-7.647-2-13-23.478-62.855-54.99-117.676-101-158-10.707-13.96-21.466-27.868-31-43 .107-15.128 11.985-31.127 1-43-.581-3.914.86-5.806 2-8-12.272-12.875.552-25.387-1-38-1.642-13.346-11.883-27.659-2-38 18.392 9.023 33.675 24.353 45 44 7.757 13.458 17.459 27.448 24 41 14.442 29.922 22.104 64.565 36 94 6.884 29.116 11.041 60.959 32 76-1.373-68.202 3.268-138.982-3-201-18.513-23.39-36.755-46.057-62-64-16.518-11.74-39.201-29.761-59-39-24.632-11.495-55.461-.076-85 0-48.376.124-89.338-16.286-123-37-14.857 3.693-38.916 1.518-44-11 5.047.713 7.301-1.366 11-2-11.373-14.077-33.03-55.915-13-76 13.021 16.731 38.12 29.816 43 58 4.069-6.264 5.9-14.767 14-17-4.036 16.488 9.811 33.652-4 44 20.271 11.765 46.58 22.707 71 27-9.368-9.299-11.218-26.115-19-37-18.445-1.252-33.255-11.37-34-27 9.853-.853 15.911 2.089 22 5-3.683-21.949-4.911-45.327 6-64 18.527 11.473 28.273 31.727 29 61 3.532 1.169 6.414-6.897 13-6 .92 16.3-8.593 30.706-26 32 5.385 18.586 18.408 35.628 39 39 25.184 4.124 49.807-3.801 71-3-45.771-32.23-89.706-66.292-108-126-36.883-5.783-50.658-34.676-85-43-1.214 3.642-.574 14.591-7 16 8.515 11.7 2.517 33.194-11 35 6.617-12.145 1.978-26.826-8-33-21.377 6.363-44.405 25.703-71 17 13.095-23.292 33.742-44.186 65-46-.512-13.488-11.042-16.958-17-25 18.918-.918 28.539 7.461 30 24 4.415.807 19.346.813 17 8 10.74-3.608 18.769 3.801 27 6-3.5-15.643.892-27.511-4-42-11.574-2.076-26.179-5.351-28-20-9.299 3.642-16.607 6.779-27 3 3.621-5.045 11.148-6.185 14-12-2.535-2.131-5.814-3.519-8-6-6.711-14.042-21.485-30.153-19-53 5.126-2.624 8.022 2.488 12 4 1.928-1.738.389-6.944 4-7 24.951 6.715 34.062 29.272 42 53 10.768-1.565 10.201-14.466 12-25 12.582 8.834 5.812 32.589-3 40 5.671 13.928 8.301 32.244 10 51 1.964 21.684 7.937 22.168 24 32 9.239 5.655 13.715 11.337 26 12-1.664-27.794-14.373-61.196-16-93-7.734 3.836-28.151 12.809-34 3 11.287-5.267 10.411-16.698 20-23-9.271-33.178 9.155-51.695 28-65 13.047 14.464 6.778 47.772-4 64 9.265 3.735 14.769 11.231 27 12 3.055-14.908-12.094-29.411 2-39-.702 12.404 9.76 21.305 14 32 2.775-6.166 10.391-12.728 12-20 2.07-9.356-.603-19.919 3-28 3.197-7.171 19.602-23.92 29-26 3.478-.77 7.502 1.219 11 0-6.852 9.814-19.01 14.323-20 30 6.251-1.024 14.451-17.373 27-9 2.788 5.304.585 8.346-1 14 5.135.783 9.367-7.953 15-10 3.34 39.07-32.718 47.235-60 59 7.534 9.229 19.01-1.626 25-2 2.273 8.071-1.546 11.282-6 15 14.696 12.304 25.473 28.527 26 55 1.664.688 10.651-4.277 15-1-14.6 5.417-.637 33.821-20 35-1.05 15.812 6.488 30.535 13 42 5.684-4.649 9.029-11.638 14-17-7.512-6.133-11.641-21.304-9-35 7.925-.258 9.623 5.711 14 9 6.258-6.219 3.762-12.589 6-19 6.462-18.511 26.621-24.431 39-39 5.346 29.783-9.018 55.998-23 73 2.304 6.451 13.035.279 15 1-6.945 10.438-16.813 18.539-33 15-34.763 13.246-24.599 72.508-5 95 17.462 13.979 44.022 25.77 64 39 5.668 3.754 9.44 7.899 15 12 3.205 2.364 7.807 2.677 11 5 19.729 14.353 31.451 37.674 52 49 8.561-21.229 9.424-60.292 11-95 .385-8.462 2.327-17.096 1-23-3.055-13.593-18.091-17.249-31-13-1.022 11.978-5.49 20.51-21 18-9.821-5.846-10.696-19.334 3-23 3.079-.824 6.094 1.236 10 1 8.146-.492 24.474-7.59 34-1-6.016-12.317-16.395-20.272-29-26-9.49 4.166-18.088 16.331-30 7-4.531 24.573-45.452 10.134-32-12-9.707-5.712-25.526-15.3-20-29 3.332-8.259 19.854-10.997 29-4 1.927-29.046 48.793-12.069 32 13 2.674 2.327 8.089 1.911 11 4 8.881 18.119 32.705 21.295 44 37 9.195-25.965 7.161-54.588-3-73-10.31-18.682-20.062-43.691-48-26 12.436 24.509-35.242 26.731-24-1 6.092-1.407 12.856-6.42 19-2 6.314-3.685 12.326-7.674 21-9-3.13-9.598-15.884-18.071-33-17-3.706 16.016-28.237 14.383-26-6 4.473-3.133 8.845-6.41 14-6 4.206.334 6.293 5.426 11 7 7.819 2.616 16.076.249 22 4-1.139-5.254-8.728-7.088-7-17 3.382-19.407 40.995-5.519 26 14 10.264 21.736 23.433 40.567 36 60 2.22-9.63 2.219-20.06 7-29-1.234-15.075 3.52-28.042 0-40-4.315-14.66-19.427-17.382-33-24-8.259 12.546-26.472 2.834-26-11 4.64-1.925 2.375-4.724 5-8 6.864-3.803 15.788-1.385 20 3-.147 4.004 4.037 7.233 1 11 4.502 2.165 9.688 3.645 15 5 1.876-4.049-.738-8.301 1-12-18.361 4.351-15.884-35.46 9-25 6.021 7.439 5.432 24.299-6 27-.324 14.658 10.064 18.602 17 26 4.494-1.943 1.891-5.976 2-11 3.35-19.65 14.6-31.4 14-55-7.498-3.814-11.665-18.939-6-27 21.353-12.57 34.562 22.232 12 26 .077 11.625 1.678 18.717-3 28 6.958-.708 8.551-6.782 15-8-3.327-17.266 13.922-24.557 23-17 8.117 6.757 3.208 20.74-6 24-.729-1.772-11.047.537-12-4-20.715 10.285-29.858 32.142-30 63 3.862-.158 8.763-7.889 15-9-2.659-4.503 2.92-6.361 3-11 .075-4.37-3.719-7.309-3-12 1.265-8.255 8.974-13.244 21-10 4.297 4.344 5.641 15.022 0 19 4.574 3.542 8.189 10.699 5 19-5.407 7.522-20.325 3.854-25 1-20.536 8.131-16.039 41.294-20 66 42.95-2.717 50.149-41.185 71-66-12.129 1.129-17.209-4.792-20-13-1.602-3.936 4.318-.348 4-3-1.515-3.657-1.975-3.784-5-4-.071-12.937 15.137-19.457 27-14-1.426-7.958.536-15.313 4-21 21.294-13.399 34.503 16.713 27 27 35.47-10.067 26.886 51.897-4 37-3.695 16.556-26.965 22.125-32 3-9.142 5.525-10.426 18.907-16 28 12.078-1.496 34.116 3.492 45 0 1.221-1.754-.712-6.589 1-10 20.166-20.012 35.37 19.009 12 21-6.615.563-7.232-4.022-12-5-5.072-1.041-9.001 3.156-16 0 .352 3.982 2.176 6.491 3 10 9.896 2.074 17.087 8.201 17 17-.147 14.928-22.217 17.583-30 6-1.327-10.994 2.013-17.32 7-22-5.314-11.531-19.213-14.097-32-8-10.614 5.061-20.604 18.689-35 24-6.698 2.471-15.221 3.473-18 9-7.734 15.384 3.789 33.199-1 49 9.121-6.879 28.819-3.181 40-8 5.121-4.879 9.055-10.945 13-17-12.268-12.146 5.109-32.791 20-21 6.961 10.501-.271 24.187-14 23-1.694 3.973-5.022 6.311-6 11 8.955-1.647 25.765-6.234 36 0 9.6-22.045 45.557 1.993 22 16 5.175 2.939 13.904-2.65 19 0-2.432 5.844-7.723 6.553-10 12-3.684 8.81-.1 18.965-2 30-13.767 8.768-6.312 33.095-12 49-6.64 3.36-10.472 9.528-11 19 14.282-14.566 31.244-28.733 48-43 8.417-7.167 17.771-10.494 28-16 18.09-9.738 28.714-22.152 51-25 35.035-4.477 93.97-7.799 123 6 10.055 4.779 20.353 11.433 26 19 14.322 7.617 28.695 32.662 37 50 14.963 31.238 19.08 78.953 7 115-2.506 7.477-8.744 16.869-13 25-7.058 13.483-12.556 23.917-21 34 4.373 61.201-.621 124.362-25 169 5.315 18.646 15.946 33.573 21 55 10.551 44.731-7.945 95.953-47 98-13.337.699-29.294-7.831-39-12-8.535-3.666-13.561-6.765-20-12 1.316-2.522 3.283 2.622 6 2-2.868-5.482-8.672-14.013-13-12-8.63-8.037-9.563-23.77-17-33-13.561-52.3-25.208-104.384-16-160 7.688-46.436 28.235-97.691 16-145-9.639-7.734-8.585-13.036-12-27-2.887-11.804-5.713-27.767 2-40 6.409-10.164 17.118-17.727 28-24 9.744-5.618 20.608-10.32 34-10 12.643.302 30.021 9.776 34-9-6.215-3.958-20.742 6.015-21-9 12.656 2.951 36.237-10.547 36 15-3.732 4.601-4.966 11.701-11 14 3.098 6.579 11.841 12.813 9 22 8.893 12.125 16.215 33.766 22 51 4.499 13.401 6.18 28.531 9 43 28.271-29.319 30.291-85.566 20-126-2.965-11.65-6.014-25.17-11-35-17.018-33.546-67.14-62.81-126-51-29.02 5.823-38.709 29.66-53 52 1.604 13.938-2.726 21.941-3 34-8.202 13.832-16.167 28.983-17 48-.687 15.669 3.502 29.438 0 44-1.936 8.048-5.21 16.221-9 23-3.202 5.727-10.117 10.667-13 19-6.107 17.656-5.25 36.711-9 56-2.9 14.919-10.3 29.17-21 41-4.442 4.911-11.387 7.743-15 15-4.883 9.807-6.134 21.111-10 31-13.996 35.798-29.786 72.636-53 102-4.745 6.003-9.146 12.826-14 19-8.916 11.34-22.256 16.949-31 27-7.166 8.236-9.432 18.053-18 27 1.002 37.084-5.937 74.728-9 111-1.761 20.854 1.02 43.18 2 62 1.262 24.226-.235 48.926 1 73 1.065 20.765 3.749 40.742 1 61-3.508 3.492-6.73 7.27-12 9h-4c-11.001-1.333-16.823-7.844-22-15 10.155-26.382 3.433-57.366 3-90-.368-27.769 6.741-56.271 0-80-4.076-14.348-24.86-20.125-36-31-1.787-1.744-3.215-2.998-5-5-.312-.351-.723-3.833-1-4-.224-.135-2.29 1.76-3 1-17.364-18.577-33.679-43.388-55-58-25.051-26.948-44.118-59.882-65-91-4.424-26.371-28.159-43.844-36-69-2.247-7.207-1.827-15.08-4-22-2.525-8.041-8.581-15.164-12-23-3.484-7.984-4.223-16.979-11-23-1.016-14.848-7.897-31.139-9-47-.583-8.393 2.066-17.961 2-28-.209-31.59-.964-61.731-11-91-11.26-32.835-38.069-62.372-65-71-14.237-4.562-43.507-5.549-64 4-2.538 1.183-5.475 4.771-9 7-18.364 11.613-28.743 26.842-43 46-9.604 29.33-19.926 71.258-11 95 5.457-24.876 15.896-44.77 31-60-2.4-22.524 13.218-41.597 31-53 15.102-9.684 36.208-17.279 54-12 13.763 33.292-19.327 55.321-44 66 13.509 4.742 27.589 17.66 36 31 5.865 9.303 14.652 27.517 13 39-.781 5.429-6.41 10.768-8 17-10.925 42.822-.077 88.034 7 132 4.065 25.256 6.34 51.289 4 83-1.36 18.429-.809 31.8-6 50-5.927 20.78-16.026 46.568-32 57-16.767 10.949-47.608 19.207-72 6-31.509-17.061-35.809-77.475-17-114 6.973-13.542 20.179-21.292 22-34-12.448-27.593-22.47-56.966-27-87-.292-1.938 1.884-11.242 2-17 .149-7.408-2.362-15.445-2-23 .48-10.018 5.041-20.692 4-31-.976-9.656-7.23-19.431-9-29-2.993-16.181-1.999-31.134-6-46v-3zm227-458c-8.461 5.076-19.083 7.506-30 3-.673 18.985 3.98 48.221 12 65 3.849-22.897 13.727-36.979 25-54-1.643-5.357-6.748-7.253-7-14zm26 19c2.257 6.019 3.029 27.482 0 34-10.687-4.646-15.815-14.852-17-29-14.056 12.652-20.734 34.923-21 58-.396 34.362 19.641 65.929 40 90 15.992 18.908 36.499 33.592 56 43-7.075-18.734-9.715-42.421-4-64-10.761-12.239-12.038-33.962-18-51h-9c-4.362-8.527-12.875-16.347-20-19 1.608-3.392 6.979-3.021 12-3-12.439-14.509-1.334-42.143-5-60-4.662.042-9.631 3.856-14 1zm343 159c-13.419-5.391-31.709-4.061-44 4 14.678-.011 16.534 12.799 34 10 3.907 1.093 4.855 5.145 9 6 5.423-1.911 8.472-6.195 15-7-2.648-6.352-13.459-4.541-14-13zm-82 10c-16.798 13.186-14.584 38.065-17 63-2.359 24.35-6.662 49.392-6 75 11.957-18.71 19.596-41.738 32-60 17.514-17.486 34.945-35.055 50-55-6.182-2.537-8.345-10.09-5-17-11.034-10.079-37.372-12.933-54-6zm2 529c-.042-8.064 7.275-13.821 9-22 4.26-20.205-2.513-44.238-5-63 3.15-34.293-6.447-66.998-2-103 1.4-11.338 7.848-22.009 9-33 1.894-18.06 1.422-34.175 6-51 6.333-23.272 11.399-46.901 20-66 2.721-6.043 8.977-10.014 12-16 1.657-3.281 1.274-7.761 3-11 6.657-12.495 20.966-20.865 23-36-.221-.779-.838-1.163-2-1-13.971 13.636-37.146 9.355-58 16-15.608 4.973-35.831 13.042-41 25-3.286 7.602-3.063 28.085-3 38 .113 17.72 0 39.386 0 61 0 28.045 1.195 53.021 3 74 3.385 39.351 1.299 75.427 1 107-.065 6.919 2.902 14.417 3 22 .32 24.754-2.94 52.05 0 75 6.811-1.865 13.778-12.215 22-16zm312 10c6.043 6.902 18.992 8.992 28 3 10.855-22.081 3.301-55.059-7-72-6.443 22.329-32.406 38.525-21 69zm-755 82c6.271-5.948 6.871-15.816 6-24-2.57-24.158-14.295-50.708-27-65-.221-.779-.837-1.163-2-1-13.294 31.089-24.722 88.388 23 90z" fill-rule="evenodd"/></svg>