<svg xmlns="http://www.w3.org/2000/svg" xmlns:dc="http://dublincore.org/documents/dcmi-terms/" height="297.644" width="388.963"><metadata><dc:description>Silhouette of Netrium digitus, processed by PhyloPic Tools (https://github.com/eweitz/phylopic-tools)</dc:description><dc:source>http://phylopic.org/image/f4d0de39-9bec-4d5c-9a3f-6d3a6d8d02e6</dc:source><dc:creator>Matt Crook</dc:creator><dc:license>http://creativecommons.org/licenses/by-sa/3.0/</dc:license></metadata><path d="M28.733 292.42c6.985 3.507 21.72 4.243 43.575-1.503 21.856-5.746 59.91-20.999 85.236-32.364 25.328-11.366 53.654-31.517 79.137-49.317 25.483-17.8 54.152-37.46 73.54-57.328 19.388-19.868 46.806-50.347 59.723-68.89 12.917-18.542 17.297-32.63 16.408-40.395-.888-7.766-5.45-14.613-9.865-20.932-4.414-6.319-9.272-12.96-16.257-16.466-6.985-3.507-21.72-4.244-43.575 1.502-21.856 5.747-59.91 20.999-85.237 32.364-25.327 11.366-53.653 31.517-79.136 49.317-25.483 17.8-54.152 37.46-73.54 57.328-19.388 19.868-46.806 50.347-59.723 68.89-12.917 18.542-17.297 32.63-16.408 40.396.888 7.765 5.45 14.612 9.865 20.931 4.413 6.32 9.272 12.96 16.257 16.467z" fill="#666" stroke="#000" stroke-width="5"/><path d="M373.744 42.119l3.414 13.797-7.038 14.874-15.55.904 11.195 7.118-17.889-2.443 5.5 18.566-17.305-1.606 6.428 9.202-19.641-4.952 12.776 14.727-12.204-1.434 7.012 10.04L314.4 112.2l10.771 13.638-17.716-7.542 7.93 13.133-13.374-3.106 5.671 13.465-15.79-10.132-1.514 8.526-11.7-4.275 13.189 20.663-22.816-7.715 13.693 17.822-8.274-2.935 3.254 6.44-21.726-9.719 3.241 18.897-12.364-8.79 6.083 19.401-9.522-8.286.492 9.615-8.101-8.034-3.437 23.359c.586-8.267-1.537-16.771-6.653-24.095a37.314 37.314 0 0 0-19.33-14.248c.348-7.945-1.837-16.056-6.743-23.079-4.905-7.023-11.769-11.866-19.348-14.274a37.314 37.314 0 0 0-6.725-23.053c-5.115-7.323-12.37-12.244-20.333-14.539l23.115 4.813-4.755-10.372 8.858 3.771-4.503-11.792 16.123 12.39-3.998-14.635 16.627 9.547-1.648-23.744 4.927 5.272.093-8.779 12.02 18.99.609-24.077 14.861 19.495.013-12.457 8.526 1.513-4.078-18.313 10.69 9.96 1.686-13.626 9.603 11.965-.984-19.23 9.097 14.807-2.657-18.06 7.013 10.04 2.854-11.953 9.43 17.064 2.11-20.146 6.429 9.203 4.447-16.8 15.539 11.553 3.863-17.636 2.83 12.961 6.2-14.29 16.388-1.488 11.78 7.954-6.37 22.959zM29.28 282.726l11.78 7.954 16.388-1.488 6.201-14.29 2.83 12.961 3.863-17.636L85.88 281.78l4.448-16.8 6.428 9.203 2.11-20.146 9.43 17.064 2.855-11.952 7.012 10.04-2.657-18.061 9.098 14.806-.984-19.229 9.602 11.965 1.686-13.626 10.691 9.96-4.078-18.313 8.526 1.513.013-12.456 14.861 19.494.61-24.077 12.02 18.99.092-8.778 4.927 5.272-1.648-23.745 16.627 9.547-3.998-14.634 16.122 12.39-4.502-11.793 8.858 3.77-4.755-10.37 23.115 4.812c-7.964-2.295-15.218-7.215-20.333-14.539a37.314 37.314 0 0 1-6.726-23.052c-7.578-2.409-14.442-7.252-19.348-14.275-4.905-7.023-7.09-15.134-6.743-23.079a37.314 37.314 0 0 1-19.33-14.248c-5.115-7.323-7.238-15.828-6.652-24.095l-3.437 23.36-8.101-8.035.492 9.615-9.522-8.286 6.083 19.402-12.364-8.791 3.241 18.897-21.727-9.72 3.254 6.441-8.273-2.934 13.693 17.82-22.816-7.714 13.188 20.663-11.7-4.275-1.513 8.526-15.79-10.132 5.67 13.466-13.373-3.107 7.93 13.133-17.717-7.542 10.771 13.638-16.042-8.71 7.012 10.039-12.204-1.434 12.776 14.727-19.642-4.952 6.428 9.202-17.304-1.605 5.5 18.565-17.889-2.443 11.196 7.118-15.551.904-7.038 14.874 3.414 13.798 23.748 1.921z" fill="#333"/><path d="M357.803 51.374l-15.896 11.103 2.75 9.283-10.28-4.024 2.75 9.283-14.622-8.458 2.83 12.96-20.226-5.788 3.918 10.956-11.7-4.276 2.75 9.283-7.69-2.098.068 16.135-14.29-6.2 7.424 15.975-12.536-3.691 3.002 7.861-14.875-7.037 8.674 21.327-18.633-10.636 6.256 14.302-13.201-8.206.996 6.772-15.126-5.616 7.757 18.233-11.116-3.44-4.275 11.7-7.093-13.717-2.442 17.888-8.552-19.37-15.244-14.696 17.636 3.863-10.438-11.38 12.456.012.597-11.62 14.45 13.558-.068-16.135 6.016 3.267-3.161-15.219 11.275 10.796-3.573-21.155 17.039 15.484-1.488-16.388 6.348 5.524.849-13.04 12.444 12.468-.904-15.55 15.126 5.616.677-7.941 7.77 5.776.012-12.457 8.938 7.45 1.526-20.983 11.195 7.118-2.909-16.64 7.77 5.776-.24-11.035 7.769 5.776 15.895-11.103 7.808 11.177zM43.497 270.917l15.895-11.103 7.77 5.776-.24-11.036 7.769 5.777-2.91-16.64 11.196 7.117 1.526-20.982 8.938 7.45.013-12.457 7.769 5.776.677-7.942 15.126 5.617-.904-15.55 12.444 12.468.85-13.04 6.347 5.523-1.488-16.387 17.04 15.484-3.574-21.155 11.275 10.796-3.161-15.22 6.016 3.267-.068-16.135 14.45 13.558.597-11.62 12.456.013-10.439-11.38 17.637 3.863-15.245-14.696-8.55-19.37-2.443 17.888-7.093-13.718-4.275 11.7-11.116-3.44 7.757 18.234-15.126-5.617.996 6.773-13.2-8.206 6.255 14.302-18.633-10.636 8.673 21.327-14.874-7.037 3.002 7.861-12.536-3.69 7.424 15.975-14.29-6.201.068 16.135-7.69-2.098 2.75 9.283-11.7-4.276 3.918 10.956-20.226-5.789 2.83 12.961-14.622-8.458 2.75 9.282-10.28-4.023 2.75 9.283-15.896 11.103 7.807 11.177z"/></svg>