<svg xmlns="http://www.w3.org/2000/svg" xmlns:dc="http://dublincore.org/documents/dcmi-terms/" height="134.42" width="173.534"><metadata><dc:description>Silhouette of Nitriliruptoraceae, processed by PhyloPic Tools (https://github.com/eweitz/phylopic-tools)</dc:description><dc:source>http://phylopic.org/image/61127c1f-c60b-462d-ae14-9f1101612524</dc:source><dc:creator>Matt Crook</dc:creator><dc:license>http://creativecommons.org/licenses/by-sa/3.0/</dc:license></metadata><g color="#000" stroke="#000" stroke-linecap="round" stroke-linejoin="round"><path d="M160.688.537c-6.575.412-14.5 3.843-22.203 9.53L96.912 40.75c-5.74 4.239-10.246 9.015-13.177 13.684-5.548 1.22-11.601 4.046-17.439 8.357L16.683 99.429c-6.198 4.577-10.949 9.905-13.686 15.136-2.737 5.23-3.645 10.85-.556 15.033 3.089 4.184 8.744 4.961 14.553 3.888 5.809-1.074 12.286-4.022 18.485-8.6l49.613-36.639c6.175-4.56 10.803-9.85 13.535-15.06 5.114-1.494 10.664-4.18 16.133-8.22l41.57-30.712c6.166-4.553 10.961-9.719 13.847-14.71 1.442-2.496 2.421-4.966 2.748-7.405.327-2.44-.052-4.971-1.544-6.992a2.98 2.98 0 0 0-.003-.03l-.666-.855c-.005-.007.002-.025-.003-.032l-.03.003c-2.24-2.997-6.058-3.943-9.992-3.697z" style="marker:none" fill="#fff" overflow="visible"/><path d="M160.868 3.5c-5.629.353-13.262 3.53-20.619 8.963L98.676 43.145c-5.919 4.37-10.5 9.366-13.097 13.896-5.274.924-11.536 3.727-17.519 8.144l-49.613 36.64C6.675 110.515.609 122.108 4.836 127.833c4.227 5.725 17.108 3.35 28.879-5.343l49.613-36.639c6.267-4.627 10.881-10.083 13.224-15.035 4.956-1.244 10.78-4.062 16.445-8.245l41.57-30.713c11.771-8.692 18.205-19.819 14.419-24.947l-.669-.886c-1.42-1.923-4.072-2.737-7.45-2.525z" style="marker:none" fill="#333" overflow="visible"/><path d="M36.48 110.642a4.5 4.5 0 1 1-8.97.734 4.5 4.5 0 1 1 8.97-.734zM104.806 56.892a4.5 4.5 0 1 1-8.97.734 4.5 4.5 0 1 1 8.97-.734zM110.96 48.034a4.5 4.5 0 1 1-8.97.735 4.5 4.5 0 1 1 8.97-.735zM122.723 41.666a4.5 4.5 0 1 1-8.97.734 4.5 4.5 0 1 1 8.97-.734z" style="marker:none" fill="#fff" stroke-width=".9998541000000001" overflow="visible"/><path d="M145.575 33.438a3 3 0 1 1-5.98.49 3 3 0 1 1 5.98-.49z" style="marker:none" fill="#fff" stroke-width="1.00013852" overflow="visible"/><path d="M160.804 21.38a3 3 0 1 1-5.98.49 3 3 0 1 1 5.98-.49zM166.51 13.051a3 3 0 1 1-5.98.49 3 3 0 1 1 5.98-.49z" style="marker:none" stroke-width="1.00013852" overflow="visible"/><path d="M27.317 118.763a4.5 4.5 0 1 1-8.97.734 4.5 4.5 0 1 1 8.97-.734z" style="marker:none" stroke-width=".9998541000000001" overflow="visible"/></g></svg>