<svg xmlns="http://www.w3.org/2000/svg" xmlns:dc="http://dublincore.org/documents/dcmi-terms/" height="485.687" width="659.533"><metadata><dc:description>Silhouette of Nitzschia, processed by PhyloPic Tools (https://github.com/eweitz/phylopic-tools)</dc:description><dc:source>http://phylopic.org/image/d67c2450-fe57-4f18-a2aa-eba20a497bf2</dc:source><dc:creator>Matt Crook</dc:creator><dc:license>http://creativecommons.org/licenses/by-sa/3.0/</dc:license></metadata><path d="M65.041 460.689c13.33-8.317 51.485-38.177 79.813-58.719 28.474-20.648 46.467-32.166 85.625-58.156 38.917-25.83 99.423-63.29 149.687-95.781 50.221-32.463 117.281-76.747 157.907-107.094 40.609-30.335 72.797-58.94 86.062-70.625 13.265-11.686 22.11-17.024 27.095-23.719 4.985-6.695 6.525-11.414 5.505-18.72-1.019-7.306-7.677-17.059-13.214-20.923-5.537-3.864-13.546-7.705-22.024 0-8.477 7.705-14.656 14.65-27.456 23.268-12.799 8.619-100.216 73.414-145.25 102.313-45.547 29.228-87.899 55.678-123.406 79.375-35.12 23.437-77.42 48.894-113.687 75.03-35.871 25.852-65.403 47.003-99.25 72.813-33.903 25.853-79.637 64.202-86.657 71.094-7.02 6.892-12.75 9.915-16.555 15.482-3.805 5.566-7.477 9.939-6.607 16.517.87 6.579 7.228 14.403 13.214 17.62 5.987 3.216 9.777 3.585 18.72 1.1 8.945-2.483 17.149-12.558 30.478-20.875z" fill="#fff" stroke="#000" stroke-width="5"/><path d="M31.26 436.416c13.107-12.869 52.152-44.747 85.893-70.476 33.74-25.73 63.225-46.82 99.107-72.679s78.071-51.288 113.422-74.88c35.352-23.593 77.735-50.025 123.333-79.286 45.599-29.262 120.468-85.65 145.357-102.41 24.89-16.761 16.551-7.774 22.024-5.507 5.473 2.267 5.994 5.014 6.607 11.012.614 5.998 8.435 9.167-7.708 22.024-16.143 12.857-45.65 40.415-85.893 70.476-40.242 30.061-107.309 74.391-157.47 106.815-50.16 32.425-110.635 69.835-149.761 95.804-39.127 25.969-57.272 37.609-85.893 58.363-28.621 20.754-60.38 46.833-79.286 58.363-18.906 11.53-13.557 6.039-18.72 4.405-5.163-1.634-6.943-6.08-8.81-9.911-1.866-3.832-15.31.755-2.202-12.113z" fill="#333" stroke="#000" stroke-width="5"/><path d="M338.354 212.658c-2.907 1.917-5.837 3.837-8.656 5.718-11.653 7.777-24.145 15.813-36.813 23.938-.409 2.219-.656 4.507-.656 6.844 0 14.312 8.023 26.742 19.812 33.062 18.584-11.769 37.301-23.614 55.157-35.094-.896-16.84-12.924-30.722-28.844-34.468z" fill="#666" stroke="#000" stroke-width="5" stroke-linecap="round" stroke-linejoin="round"/><path d="M482.331 137.1a7.5 7.5 0 1 1-15 0 7.5 7.5 0 1 1 15 0zM505.456 124.988a7.5 7.5 0 1 1-15 0 7.5 7.5 0 1 1 15 0zM508.76 145.91a7.5 7.5 0 1 1-15 0 7.5 7.5 0 1 1 15 0zM523.075 133.797a7.5 7.5 0 1 1-15 0 7.5 7.5 0 1 1 15 0zM584.742 87.547a7.5 7.5 0 1 1-15 0 7.5 7.5 0 1 1 15 0zM558.313 108.47a7.5 7.5 0 1 1-15 0 7.5 7.5 0 1 1 15 0zM408.551 196.565a7.5 7.5 0 1 1-15 0 7.5 7.5 0 1 1 15 0z"/><path d="M420.664 205.375a7.5 7.5 0 1 1-15 0 7.5 7.5 0 1 1 15 0zM434.98 196.565a7.5 7.5 0 1 1-15 0 7.5 7.5 0 1 1 15 0zM447.093 184.452a7.5 7.5 0 1 1-15 0 7.5 7.5 0 1 1 15 0zM459.206 172.339a7.5 7.5 0 1 1-15 0 7.5 7.5 0 1 1 15 0zM260.992 280.255a7.5 7.5 0 1 1-15 0 7.5 7.5 0 1 1 15 0zM238.968 296.773a7.5 7.5 0 1 1-15 0 7.5 7.5 0 1 1 15 0zM197.123 325.404a7.5 7.5 0 1 1-15 0 7.5 7.5 0 1 1 15 0zM245.575 319.898a7.5 7.5 0 1 1-15 0 7.5 7.5 0 1 1 15 0zM204.831 346.327a7.5 7.5 0 1 1-15 0 7.5 7.5 0 1 1 15 0zM128.85 381.565a7.5 7.5 0 1 1-15 0 7.5 7.5 0 1 1 15 0z"/><path d="M114.534 381.565a7.5 7.5 0 1 1-15 0 7.5 7.5 0 1 1 15 0zM103.522 394.779a7.5 7.5 0 1 1-15 0 7.5 7.5 0 1 1 15 0zM87.004 406.892a7.5 7.5 0 1 1-15 0 7.5 7.5 0 1 1 15 0zM120.04 407.993a7.5 7.5 0 1 1-15 0 7.5 7.5 0 1 1 15 0zM73.79 433.32a7.5 7.5 0 1 1-15 0 7.5 7.5 0 1 1 15 0zM169.593 370.553a7.5 7.5 0 1 1-15 0 7.5 7.5 0 1 1 15 0z"/><path d="M169.593 355.136a7.5 7.5 0 1 1-15 0 7.5 7.5 0 1 1 15 0zM527.48 102.964a7.5 7.5 0 1 1-15 0 7.5 7.5 0 1 1 15 0zM545.426 95.017a5 5 0 1 1-10 0 5 5 0 1 1 10 0zM563.045 77.398a5 5 0 1 1-10 0 5 5 0 1 1 10 0zM539.92 121.446a5 5 0 1 1-10 0 5 5 0 1 1 10 0z"/><path d="M525.605 115.94a5 5 0 1 1-10 0 5 5 0 1 1 10 0zM599.384 59.78a5 5 0 1 1-10 0 5 5 0 1 1 10 0zM613.7 57.577a5 5 0 1 1-10 0 5 5 0 1 1 10 0zM428.7 168.797a5 5 0 1 1-10 0 5 5 0 1 1 10 0zM439.712 162.19a5 5 0 1 1-10 0 5 5 0 1 1 10 0zM469.444 175.404a5 5 0 1 1-10 0 5 5 0 1 1 10 0zM484.86 159.988a5 5 0 1 1-10 0 5 5 0 1 1 10 0zM269.028 306.446a5 5 0 1 1-10 0 5 5 0 1 1 10 0zM258.016 296.535a5 5 0 1 1-10 0 5 5 0 1 1 10 0zM151.2 358.202a5 5 0 1 1-10 0 5 5 0 1 1 10 0zM185.337 351.595a5 5 0 1 1-10 0 5 5 0 1 1 10 0zM150.1 384.63a5 5 0 1 1-10 0 5 5 0 1 1 10 0zM224.98 335.077a5 5 0 1 1-10 0 5 5 0 1 1 10 0zM224.98 316.356a5 5 0 1 1-10 0 5 5 0 1 1 10 0zM53.195 433.083a5 5 0 1 1-10 0 5 5 0 1 1 10 0zM292.42 261.238a10 10 0 1 1-20 0 10 10 0 1 1 20 0zM297.926 282.16a10 10 0 1 1-20 0 10 10 0 1 1 20 0zM392.629 226a10 10 0 1 1-20 0 10 10 0 1 1 20 0zM368.403 210.583a10 10 0 1 1-20 0 10 10 0 1 1 20 0zM389.325 198.47a10 10 0 1 1-20 0 10 10 0 1 1 20 0z"/></svg>