<svg xmlns="http://www.w3.org/2000/svg" xmlns:dc="http://dublincore.org/documents/dcmi-terms/" height="316" viewBox="0 0 820 316" width="820"><metadata><dc:description>Silhouette of Notoryctemorphia, processed by PhyloPic Tools (https://github.com/eweitz/phylopic-tools)</dc:description><dc:source>http://phylopic.org/image/11b783d5-af1c-4f4e-8ab5-a51470652b47</dc:source><dc:creator>Sarah Werning</dc:creator><dc:license>http://creativecommons.org/licenses/by/3.0/</dc:license></metadata><path d="M148.306 245.841l-7.71 3.009-7.244 3.539-5.715 3.138-7.276 4.038-6.343 5.101-3.945 6.76-1.482 7.42-.132 4.079 4.203 2.697 5.987.388 5.489.355-1.755 3.895-2.287 4.361-.443 2.978 1.319 2.842 5.424 1.354 7.235.468 7.099-1.294 6.237.403 8.233.533 9.062-.666 6.897-2.059 9.778-.118 8.249.283 7.187 1.217 9.464.863 3.654-2.269.21-3.243 4.458.789 6.616-1.575 6.784-.313 6.567-.827 4.604-1.456s6.503.17 7.517-.015c1.014-.185 4.717-3.202 4.717-3.202l2.721-3.331 4.04-.49-2.599-2.423 7.493-3.523 5.618-1.64 6.068-.86 1.834 2.624.307-4.74 3.992.259 2.994.193 1.377-1.915 1.682 1.111 2.857-1.568 3.654-2.27 4.467-3.218 3.139-2.052 5.489.355 1.746.113.226-3.492 2.719 4.435s.669-6.471 1.635-5.907c.965.564 5.093 2.585 5.093 2.585l2.488-3.597 5.56 3.115.307-4.74 1.562-.9 2.245.146 2.246.146.081-1.248 3.742.242.21-3.243 1.867 2.125.129-1.995 3.629 1.988.194-2.994.998.064 1.361-1.665 6.639 1.933 6.237.404 1.594-1.4 1.899 1.626 1.843-1.384 4.241.274 2.599 2.423 2.012-.12 3.5 3.984 1.707-3.146 4.313 3.034 4.16 1.522.178-2.744 3.001 3.952 3.155-2.302 5.247 4.098 3.451 4.733 2.333 2.656.242-3.742 1.488 4.104 2.157-2.365 3.396 1.723 3.606-1.521 3.492.227 5.505.105 8.981.582 9.528-.135 1.626-1.899-1.899-1.626 4.958.822 2.157-2.366 3.959.758 3.308-.788 3.742.242.146-2.245 7.662-2.26s5.021-.176 4.072-.989c-.949-.813 2.189-2.864 2.189-2.864l2.246.146.161-2.495 8.482.549 2.487-3.597-2.583-2.672 2.922-2.566 3.1-5.312s2.647 1.675 3.493.227c.845-1.448 5.827-4.884 5.827-4.884l3.163 1.457 2.455-3.098 6.229-3.354 2.407-2.35 3.991.259 2.005-3.879 6.816-.812 8.853 2.577 11.474 8.51 6.212 4.661 6.374 2.166 8.466.799 13.553-.376 7.17 1.467 10.438-2.581 2.091 6.398 8.788 3.575 16.948 1.348 7.896-1.994 8.556-4.457s6.825-4.818 7.373-5.535c.547-.716 8.789-4.19 10.865-5.309 2.077-1.118 9.796-8.135 9.796-8.135l8.187-6.484s3.284-4.297 3.848-5.263c.563-.965 3.365-5.544 3.365-5.544l7.493-3.523 9.939-2.613 11.227.727 9.256-3.659 9.635-5.64 3.728-7.274 2.898-6.075 3.333-5.045 3.702-3.018 5.489.355 14.896-1.791 9.305-4.408 10.341-1.085 3.742.243 3.243.21 3.742.242 3.928 1.256 4.056-.739 3.052-4.563.403-6.237-.779-7.315-2.61-4.983-1.959-1.826-2.495-.161-2.993-.194-.861 1.698-3.01.056-5.939-1.136-8.071-3.028-10.115-2.408-4.378-2.037-.555-3.042-2.881-1.94-1.841-6.382-.49-4.04 1.707-3.146s-.167-9.03-.899-9.328c-.732-.298-2.059-6.897-2.059-6.897l-2.373-5.915-2.953-4.701-5.745-4.129-15.569-11.029s-13.205-8.872-13.921-9.419c-.716-.548-11.104-6.481-11.104-6.481l-16.577-7.085-18.709-8.977-6.872-2.199-11.982-4.534-13.721-.888-1.352-2.342-6.486-.42-6.39-1.917-10.382-2.175-15.636-2.265-24.319-3.579-8.233-.533-5.602 1.391-.636-1.795-6.486-.42-4.37 1.721-16.98-.849-11.859 1.234-24.441 2.175-19.323.503-9.029.167-7.598 1.262-17.447-1.38-15.13 1.525-11.822.738-2.077 1.118-9.593 1.133-12.023-.027-9.972 3.112-9.642 1.881-3.791.506-9.457 2.895-10.744-.445-6.084 1.109-14.421-1.686-11.123 1.535-1.15-1.578-8.66 2.195-1.368-2.093-13.552.375-11.291.271-14.8.294-6.8.562-5.706-.871-4.652 2.204-9.061.651-3.969 3.266-3.211-.709-7.694 2.759-8.579.948-14.495 3.32-14.246 3.336-14.229 3.088-13.795 4.117-13.079 4.665-15.042 4.036-8.556 4.457-6.382 1.841-10.963 6.807-7.567 8.529-7.373 5.535-7.422 6.283-8.186 6.484-5.812 4.635-1.312.917-1.538 4.41-3.437 2.783-4.926 6.445-3.839 1.255L51 139.082l-3.638 2.019-8.002 7.499-2.737 3.581-3.59 1.271L29 157.7l-3.067 4.813-3.019 4.063-2.222 3.363-.393 2.78-1.626 3.103-1.708 1.392-3.269 4.047-2.319 4.86-2.367 5.609-2.351 5.359-.372 5.737 1.487 4.01 1.851 2.47 1.407 5.353 4.884 5.827 4.281 3.534 4.627 2.053 2.68 1.176.587 2.543 1.601 2.358s-.958 3.195.571 2.793c1.529-.402 4.25-3.733 4.202-2.984-.049.748 1.568 2.857 1.568 2.857l2.294-.604 1.456 4.604 5.384-1.906 4.105-1.487 1.497.097c1.248.081 6.897-2.059 6.897-2.059l2.615 2.173 2.712.677-.347 1.48 5.288-.409 4.87-1.688 3.292-.539s.772 3.558 2.035 3.389c1.264-.168 5.65-2.139 5.65-2.139l2.913 1.44 4.668-2.453 5.271-.16 3.09-1.303 2.333 2.656 4.273-.225 5.11 2.335s3.123-1.802 4.322-.973c1.199.829 2.969 4.451 2.969 4.451l3.557-.771 3.058-.805-.009 4.008.94 4.821 4.5-3.718 2.109-1.616 5.038-.426 1.649 1.609 3.791-.506 5.304-.658 2.728.427-3.089 1.303z"/></svg>