<svg xmlns="http://www.w3.org/2000/svg" xmlns:dc="http://dublincore.org/documents/dcmi-terms/" height="589" viewBox="0 0 971 589" width="971"><metadata><dc:description>Silhouette of Nuralagus, processed by PhyloPic Tools (https://github.com/eweitz/phylopic-tools)</dc:description><dc:source>http://phylopic.org/image/b0a5fae3-e901-4406-95a4-cc1df36669a0</dc:source><dc:creator>Steven Traver</dc:creator><dc:license>http://creativecommons.org/publicdomain/zero/1.0/</dc:license></metadata><path d="M614 0h5v1c14.015.746 26.589.858 39 3 .453.078 1.056 1.739 2 2 3.834 1.061 10.146-.523 14 1 .86.34 1.506 1.827 2 2 3.442 1.209 8.04 1.794 12 3 1.853.564 3.48 1.768 5 2 4.092.625 8.98-.948 13 0 2.703.638 5.592 3.674 9 5 1.122.437 2.929-.536 4 0 .373.187.713 1.898 1 2 3.288 1.172 6.403.887 10 3 .423.249.636 1.828 1 2 .816.387 2.146-.307 3 0 3.39 1.218 6.913 1.866 10 3 6.17 2.267 12.024 5.996 18 9 6.218 3.126 13.143 5.039 18 8 2.689 1.64 5.145 4.809 8 7 5.393 4.139 10.628 7.96 16 13 1.359 1.275 1.662 2.89 3 4 1.29 1.071 3.722.917 5 2 4.634 3.924 8.705 10.319 14 15 2.57 2.272 5.322 4.706 8 7 2.574 2.205 5.898 3.887 8 6 1.535 1.544 2.405 4.292 4 6a269.302 269.302 0 0 1 13 15c2.192 2.736 4.648 4.982 7 8 1.254 1.61 1.88 3.3 3 6 .723 1.743 2.539 3.124 4 5 2.149 2.759 3.586 5.793 8 8 2.002 1.001.739.504 2 2 1.098 1.303 1.467 3.399 3 5 .001.001 1.083 1.158 1 1 .83 1.586.801 5.046 2 7 2.4 3.911 6.3 6.762 8 10 2.092 3.985 2.784 8.716 5 13 .85 1.643 1.866 4.149 3 6 .807 1.316 2.956 2.342 4 4 1.116 1.773 1.928 4.294 3 6 1.19 1.894 2.717 3.108 4 5 1.731 2.553 3.134 4.777 5 8 .398.688 1.803 1.552 2 2 .852 1.933-1.137 5.13 0 8 1.045 2.638 4.911 3.663 6 9 .326 1.596-.43 4.108 0 5 .332.689 2.416 1.548 3 2 7.259 5.62 3.728 18.341 6 30 .307 1.575 1.34 3.856 2 6 .552 1.792.344 1.933 1 3 1.353 2.198 1.682 4.664 2 9 .439 5.985.812 4.067 5 9 1.227 1.445 2.114 3.825 3 5 4.846 6.428 8.195 13.755 13 21 .27.406-.337 1.663 0 2 .925.925 2.602.211 4 2 1.276 1.633.771 3.926 3 5v5c-1.234 1.153-1.368 1.59-3 3-2.318 2.004-6.926 5.691-9 6-1.927.286-4.42-2.262-7-1-3.47 1.696-1.788 5.167-5 6-2.09.542-2.979-2.814-4-3-.822-.149-2.771 2.051-5 2-2.261-.051-5.008-2.03-6-2-2.721.084-5.266 2.1-7 2-2.783-.16-4.095-2.668-7-2-5.219 1.199-4.345 6.302-9 5 1.146-5.192-3.806-7.58-6-10-2.719-2.998-5.171-6.267-9-8 1.941 5.303-2.652 5.042-3 9-.69 7.849 5.367 8.81-2 12-3.033 1.313-2.36.632-4 2-1.361 1.136-.708 3.208-2 5-.339.47-2.534.534-3 1-.777.777-.333 2.046-1 3-1.976 2.825-4.008 6.221-7 9-1.888 1.754-1.769.943-4 2-.371.176-.564 1.757-1 2-1.117.625-4.069 1.196-5 2-.206.178-.888 2.839-1 3-.719 1.032-2.165 1.132-3 2-2.513 2.612-3.72 4.465-4 6-.859 4.709 3.891 13.728 8 22 2.605 5.244 5.119 11.24 8 15 1.174 1.531 2.979 2.46 4 4 1.757 2.649 2.478 7.491 4 9 1.215 1.204 2.115.234 3 2 .537 1.07-.442 2.881 0 4 .237.6 1.648 1.024 2 2 1.687 4.679 1.089 7.298 1 10-.047 1.419 1.394 1.805 1 4-.306 1.701-3.037 3.643-4 6-.743 1.817-.366 3.099-1 5-.602 1.805-.916 3.701-2 5-.282.338-1.685-.315-2 0-.227.227.268 1.879 0 2-1.227.553-4.376.088-6 1-1.061.596-1.684 2.684-3 4-2.039 2.039-3.594 2.357-6 3-1.445.386-.142 1.336-1 2-2.816 2.181-5.33.541-9 2-.249.099.211 1.789 0 2-1.545 1.545-3.396 1.172-5 2-1.136.586-2.238.535-3 1-.789.481-1.789 1.879-3 2-2.136.214-4.248-1.902-6-1 2.138 1.978 1.131 5.023 2 8 .749 2.565 2.445 4.539 3 7 .491 2.18-.408 5.364 0 8 .316 2.043 2.873 1.043 2 4-.349 1.18-.238-.327 0 1 1.373 7.645.691 8.439-2 12-.972 1.285-3.193 2.656-4 4-1.927 3.208-1.764 6.417-4 8-.644.455-2.901.206-6 1-4.771 1.223-9.406 3.474-13 5-.559.237-1.409-.157-2 0-1.336.356-.232 1.544-1 2-1.202.714-2.667.644-4 1-5.625 1.504-9.563 1.676-13 3-4.259 1.641-9.282 1.412-14 3-.4.135-1.984 1.499-3 2-5.063 2.498-6.769-.309-10 3-1.113 1.14-1.32.168-3 1-1.012.501-1.051 1.654-2 2-1.125.409-2.939-.537-4 0-2.207 1.118-2.593 3.329-5 4-5.587 1.557-14.304.06-22 2-2.541.641-4.624 2.553-7 3-3.784.712-8.879 1.207-11 1-3.628-.354-6.922-3.108-9-3-2.672.14-5.459 3.313-9 4-4.295.834-11.018-2.02-15 1h-37c-2.391-2.091-6.298-.607-9-2-1.404-.724-3.036-5.251-5-7-1.654-1.473-3.987-1.24-5-2-5.651-4.238-1.223-5.241 1-9 .685-1.158.543-3.098 1-4 1.923-3.793 2.701-1.886 7-4 1.766-.868 1.603-2.192 3-3 2.445-1.413 5.615-2.125 8-4 2.215-1.742 3.645-4.617 6-6 1.8-1.057 3.247-.008 6-1 2.167-.781 5.32-4.207 10-6 2.284-.875 4.94-1.56 7-2 1.622-.347 7.087-.088 7 0 .217-.219.797-5.271 1-7 .513-4.357 1.263-15.144 4-18 2.325-2.427 4.43-5.399 7-7 4.385-2.729 9-2.377 15-4 7.464-2.02 14.998-5.904 19-7 1.667-.456 4.226.378 6 0 1.469-.313 4.46-2.14 6-3 2.882-1.61 4.688-2.738 5-5 .526-3.806-9.474-13.158-13-17-14.358-15.642-23.499-25.622-36-41-2.732-3.361-5.117-8.142-7-9-2.117-.966-6.018 1.22-8 0-3.699-2.276-3.18.208-5 2-.975.959-3.114 1.711-4 2-6.367 2.074-8.513-2.571-12 1-1.88 1.925-5.126 2.985-8 3-2.219.012-1.652-1.583-3-2-1.486-.46-3.562.578-5 0-1.154-.464-2.938-2.454-4-3-6.854-3.52-7.023.854-15 1-2.983.055-6.369-2.697-10-3-5.437-.453-15.943 3.271-24 2-1.841-.29-4.862-2.026-6-2-.49.012-7.83 1.842-8 2-2.141 1.994.38 5.086-2 6-4.23 1.625-6.794-1.948-8-2 .038.002-1.788 1.936-2 2-1.143.348-2.801-.076-4 0-2.366.15-6.02-.992-6-1-.348.131.291 2.709 0 3-.509.509-2.459-.481-3 0-1.959 1.744-1.442 3.204-4 4-2.678.833-9.687-1.705-13-1-5.253 1.118-6.918 5.765-11 6-7.343.423-6.236-5.364-14-5 .021-.001-.857 1.929-1 2-1.072.536-2.908-.501-4 0-1.209.555-1.839 2.638-3 3-1.324.413-3.839-.713-5 0-2.213 1.358-2.002 6.136-4 7-.825.356-4.529-.665-5 0-1.027 1.453-1.799 9.394-2 14-.246 5.634 1.322 12.892 1 20-.06 1.313-1.825 2.084-2 3-.458 2.391 1.245 6.109 1 8-.359 2.774-1.897 4.778-2 7-.265 5.729 1.578 10.928 1 16-.229 2.009-1.441 4.372-2 7-.666 3.129-1.912 5.693-2 7-.166 2.471 1.645 4.619 1 7-.551 2.034-3.514 4.405-5 8-.59 1.428.474 3.523 0 5-.482 1.502-2.658 4.164-4 7-.686 1.449-.289 2.617-1 4-.54 1.052-2.769 2.347-3 3-1.229 3.47-.013 6.926-1 8-1.423 1.549-9.714 3.906-14 4-1.894.042-5.042-1.736-9-2-3.55-.236-9.547.436-14 1-4.31.546-9.916.967-13 2-2.323.778-4.41 3.349-7 4-1.207.304-4.217.548-7 1-14.843 2.41-26.659 2.118-40 0-8.93-1.418-14.831-1.767-14-8 .256-1.921 2.5-4.165 1-7-7.987 1.447-14.831-1.529-21-1-2.211.189-4.392 1.97-7 2-5.847.068-12.565-.491-20 0-10.931.722-15.497.337-25-1-5.031-.708-10.038-1.169-11-2-1.203-1.039.347-4.216 0-6-.063-.327-1.774-1.186-2-2-1.878-6.792 4.57-7.281 7-9 .663-.469.096-1.483 1-2 .705-.402 3.303-.365 4-1 1.584-1.443 1.211-2.737 2-4 4.527-7.243 16.83-7.355 28-9 7.219-1.063 14.508-2.594 20-3 2.532-.188 6.437.781 9 0 .89-.271 2.737-2.279 5-4 4.32-3.286 8.868-6.599 10-11 .953-3.706.478-10.506 0-15-.128-1.203-1.654-2.396-2-4-.433-2.007.451-4.998 0-7-.418-1.854-1.798-3.086-2-5-1.089-10.347-1.683-31.587 0-40 .468-2.342 4.108-7.077 4-8 .042.354-2.357-2.123-3-3-3.247-4.427-3.381-4.898-7-8-2.525-2.164-4.639-3.936-7-5-.309-.139-.654-1.751-1-2-2.813-2.021-7.387-4.41-9-6-1.018-1.003.14-3.657-1-5-.364-.43-2.467.259-3 0-.75-.365-.4-2.523-1-3-.619-.492-2.32.418-3 0-.555-.342-.308-2.542-1-3-.704-.466-2.433-.772-3-1-1.68-.674-1.954-1.46-3-2-5.539-2.858-6.96-2.875-13-4-3.534-.658-5.234-1.703-7-2-2.119-.356-4.018.739-6 0-3.589-1.338-7.087-5.707-10-6-2.086-.21-2.244 1.23-4 2-7.928 3.472-11.921-2.082-19-6-4.221-2.336-8.974-5.354-13-7-1.374-.562-2.589.302-4 0-.18-.038-.689-1.89-1-2-1.114-.396-1.474 1.517-3 1-.219-.074-1.515-1.698-2-2-2.552-1.587-6.503-2.445-9-3-1.31-.291-2.362 1.15-3 1-.523-.123-.942-1.843-2-2-1.774-.264-4.024.519-6 0-1.204-.316-1.625-2.519-3-3-1.321-.463-3.308.49-5 0-2.26-.655-3.91-2.764-5-3 .271.059-1.523 1.95-2 2-2.727.287-5.59-2.546-8-3-3.801-.717-8.097-.342-12-1-2.342-.395-6.169-2.806-7-3-1.787-.417-4.876.425-7 0-2.982-.597-2.988-2.111-5-2-1.851.103-5.184 2.115-6 2-5.217-.736-6.531-3.621-10-4-1.865-.204-4.376.742-8 1-4.395.313-10.121-.7-15 0-4.984.716-10.916 3.737-11 4 .12-.372 4.565.22 3 2-4.365.981-8.294-3.64-11-1 2.269.212 3.746 2.058 6 3 1.994.833 6.236-.369 6 3-2.061-1.446-4.659.36-7 0-4.768-.734-8.316-4.268-11-4 3.654 3.346 8.784 5.216 11 10-3.607-.976-6.979-3.504-10-6-2.6-2.147-4.461-7.78-8-6 2.41-.027 2.575 3.152 4 5 .996 1.292 6.014 3.172 3 5-5.049-1.646-5.242-8.41-10-9-12.552-1.557.292 10.021-3 13-2.154-.292-2.245-4.143-4-7-1.214-1.978-3.798-5.642-5-6 .408.121-1.644 1.944-2 2-.375.06-3.231-2.109-4-1-1.758 2.537 2.087 6.801-1 10-3.631-1.702-.612-10.055-5-11-4.85-.517.302 8.969-3 10-1.162-2.074 1.267-7.053-1-10-.533-.692-3.433-.354-5-1-4.456-1.838-1.321-1.397-4 3-2.208-.125-.425-4.242-1-6-5.1-1.1 1.1 9.1-4 8-.595-3.738 2.221-10.888-4-9-2.812-3.389 1.467 8.733-3 7-.271-3.396.774-8.107-1-10-4.362-.695.234 7.567-5 6 1.229-3.081 1.171-5.341 0-8-.767-1.741-1.701.063-3-1-.594-.486-.394-2.437-1-3-1.655-1.539-3.615-2.57-5-4-1.438-1.485-2.623-3.502-4-5-2.007-2.183-3.286-2.881-4-5-1.823-5.414 3.752-10.386-3-13v-14c.589-.114 3.872-7.599 5-10 2.042-4.349 3.246-8.71 7-12 .887-.777 2.9-.9 4-2 .886-.886 1.034-2.898 2-4 2.417-2.758 6.52-4.748 10-8 9.1-8.504 22.047-23.178 31-29 1.553-1.01 3.827-1.798 6-3 2.005-1.109 3.048-2.806 5-4 1.875-1.147 5.291-.656 7-2 .141-.111.872-2.844 1-3 1.315-1.607 5.426-2.792 8-4 5.265-2.471 10.688-7.114 11-13 .5-9.438-5.817-11.953-12-20-1.859-2.419-3.928-5.715-6-9-1.895-3.003-3.167-6.162-5-9-1.063-1.646-3.023-2.449-4-4-2.67-4.238-7.063-10.965-8-17-2.29-14.743 3.088-33.873 17-31 3.509.725 7.554 6.662 9 11 2.077 6.229 1.267 3.859 7 9 3.697 3.315 9.605 13.264 14 14 .309.052 2.815-1.959 3-2 3.352-.745 8.47-2.048 13-1 4.272.989 7.799 6.261 11 10 5.665 6.617 13.366 14.937 18 23 4.119 7.167 7.584 12.409 5 23-.905 3.71-3.181 5.208-2 7 1.107 1.679 11.131 2.881 19 2 1.238-.139 2.675-1.717 4-2 7.15-1.525 17.93-.635 27-2 2.243-.337 3.829-2.24 6-3 1.54-.539 1.847 1.36 3 1 .215-.067-.186-1.814 0-2 1.925-1.925 7.859.477 10 0 5.057-1.125 8.054-3.997 13-5 1.238-.251 3.786.115 5 0 2.039-.193 4.258-.932 6-1 3.374-.131 7.526 1.549 10 1 1.186-.263 3.473-2.26 5-3 .88-.427 1.458-.633 3-1 1.395-.332 5.026-.252 8-2 .308-.181-.265-1.735 0-2 .239-.239 3.669-.741 5-1 8.563-1.664 10.806 2.205 17 0 3.655-1.301 7.968-7.87 13-10 3.744-1.585 8.798-1.232 13-3 1.314-.553 2.155-2.894 4-4 1.596-.957 3.747-1.247 5-2 1.442-.866 2.461-2.063 4-3 2.171-1.323 4.487-1.27 5-2 2.101-2.988-.497-5.75 2-10 .353-.601 1.475-.545 2-1 1.021-.885 1.517-3.718 3-5 .368-.318 1.66.34 2 0 .304-.304-.335-1.744 0-2 1.701-1.301 5.666-1.216 8-3 3.312-2.53 5.61-6.778 9-10 3.017-2.867 6.518-6.277 10-9 2.221-1.737 4.919-.905 7-3 .831-.836.178-3.163 1-4 .7-.712 2.266-.307 3-1 12.009-11.338 25.688-24.028 38-37 3.143-3.311 6.751-6.105 9-9 2.436-3.136 3.183-8.228 6-11 1.851-1.822 6.455-2.362 10-5 1.25-.93 1.899-3.032 3-4 1.213-1.066 3.133-2.663 4-3 2.622-1.02 7.454.417 10-1 .322-.18.687-2.643 1-3 .296-.338 1.679.321 2 0 .592-.592 1.716-4.667 3-6 2.138-2.22 6.022-4.788 8-6 3.806-2.333 8.436-3.433 14-5 1.553-.438 2.534-1.466 4-2 4.194-1.528 8.448-3.549 13-5 3.787-1.208 5.214-1.815 8-4 2.864-2.246 6.949-5.271 11-7 1.577-.673 4.436-.042 7-1 1.658-.62 3.305-2.564 5-3 4.151-1.067 9.364-.769 14-2 1.108-.294 1.328-1.734 2-2 1.156-.457 2.809.37 4 0 3.875-1.203 8.315-1.792 15-3 2.5-.452 5.977-1.847 8-2 7.71-.582 20.364 3.98 26-1zM407 491c-2.441 3.968-3.223 8.632-5 14-2.688 8.123-7.762 15.926-9 21-.665 2.723-1.076 16.905-1 17 2.389 2.999 10.979-1.685 14-2 8.373-.875 10.318.746 13-2 6.015-6.159 4.792-9.449 4-20-.121-1.61 1.083-3.642 1-5-.068-1.121-1.804-2.874-2-4-.477-2.733.28-6.052 0-7-.837-2.828-3.762-5.851-5-9-.993-2.526-.31-5.221-1-7-1.008-2.601-3.528-5.093-4-6-3.208 1.827-3.699 7.886-5 10z" fill-rule="evenodd"/></svg>