<svg xmlns="http://www.w3.org/2000/svg" xmlns:dc="http://dublincore.org/documents/dcmi-terms/" height="942.211" viewBox="0 0 454.675 942.211" width="454.675" overflow="visible"><metadata><dc:description>Silhouette of Nyctosaurus, processed by PhyloPic Tools (https://github.com/eweitz/phylopic-tools)</dc:description><dc:source>http://phylopic.org/image/46f9aff7-f45e-4a6c-b6c5-287d9e2bfcd7</dc:source><dc:creator>Gareth Monger</dc:creator><dc:license>http://creativecommons.org/licenses/by/3.0/</dc:license></metadata><switch><g><path d="M0 579.881l19.459-12.555c20.089-9.417 75.329-37.663 88.513-45.197 13.182-7.532 41.43-26.992 47.08-33.27 5.649-6.279 16.321-20.716 21.343-37.666 5.022-16.948 40.176-109.854 54.614-150.658 14.438-40.803 32.016-87.884 45.198-116.132C289.39 156.156 340.235 38.14 340.235 38.14s22.6-47.708 19.46-36.409c-3.138 11.299-69.052 168.234-69.052 168.234l-70.933 186.44s-22.6 62.146-15.694 65.913c6.906 3.767 146.265 23.854 146.265 23.854s60.263 6.278 35.153 7.533c-25.11 1.255-139.359-17.578-139.359-17.578s-38.92-5.649-42.059-1.882c-3.139 3.766-15.065 41.43-3.766 55.24 11.299 13.811 20.715 17.577 28.876 21.972 8.16 4.396 17.576 8.161 25.109 8.788 7.533.629 14.438.629 14.438.629l-5.023-15.066s-8.787-8.788-9.415-12.555c-.628-3.768-12.555-27.621-14.438-30.132-1.883-2.51 2.513-6.905 2.513-6.905s-7.534-30.131-4.396-31.387c3.138-1.256 38.919-3.139 50.847-3.139 11.927 0 27.621 7.533 31.387 11.928 3.768 4.394 29.505 47.708 37.037 62.146a1577.478 1577.478 0 0 0 14.439 26.994s30.758 2.509 33.27 2.509c2.51 0 18.204-5.648 18.204-5.648s9.416-2.512 4.394 0c-5.021 2.511-1.882 4.394 0 3.766 1.883-.626 6.904 2.512 1.256 2.512-5.649 0-7.534-.629-6.277 1.884 1.256 2.509 2.512 10.043 8.161 11.299 5.648 1.255 21.344 3.139 23.227 3.139 1.882 0-7.533.628-14.438 1.883s-6.905 13.182-6.905 16.321c0 3.139-1.256 8.161 1.882 9.417 3.14 1.254 13.812-1.256 12.558 1.254-1.257 2.512-6.278 2.512-1.257 2.512s13.811 3.766 5.649 3.766c-8.16 0-5.021 2.512-2.512 1.256 2.512-1.256 6.278 3.14-.627 3.14-6.906 0 2.511 3.138-3.767 2.511-6.276-.627-24.48-10.672-24.48-10.672s-24.483-10.043-33.899-12.555c-9.415-2.512-21.971-3.768-34.524 0-12.557 3.766-30.133 3.766-30.133 3.766s-17.576 16.95-13.81 54.614c3.766 37.665 21.971 120.526 34.525 178.905 12.555 58.381 22.6 112.995 18.204 126.178-4.394 13.182-3.766 20.088-11.3 16.948-7.532-3.138-42.059-16.948-72.816-48.964-30.76-32.016-37.037-18.833-60.892-97.927-23.854-79.097-36.409-101.694-37.036-128.061-.628-26.365-1.256-88.512 3.766-99.811 5.021-11.299 4.395-14.438 8.789-17.575 4.394-3.14 12.555-13.183 12.555-13.183s-33.271 15.064-43.943 15.064c-10.67 0-28.248-1.882-34.525-.627-6.278 1.254-96.672 23.854-96.672 23.854L0 579.881z"/></g></switch></svg>