<svg xmlns="http://www.w3.org/2000/svg" xmlns:dc="http://dublincore.org/documents/dcmi-terms/" height="1797.102" version="1.2" viewBox="0 0 2803.544 1797.102" width="2803.544" overflow="inherit"><metadata><dc:description>Silhouette of Octopodidae, processed by PhyloPic Tools (https://github.com/eweitz/phylopic-tools)</dc:description><dc:source>http://phylopic.org/image/35363696-250c-4fa9-a001-51181aaa1dea</dc:source><dc:creator>Ewald Rübsamen</dc:creator><dc:license>http://creativecommons.org/publicdomain/mark/1.0/</dc:license></metadata><path d="M2161 1797.102c-6.197-1.479-8.6-7.43-13-9-6.091-2.174-16.561-3.193-24-2-3.222.517-8.555 6.55-14 7-7.832.646-16.558-4.772-25-7-1.486-4.18-2.138-9.196-5-12-8.245-3.738-12.886-7.273-22-6-8.309 1.16-13.216 9.657-20 10-11.842.599-19.049-9.268-23-21-11.522-10.065-21.814 1.987-31 2-5.834.01-24.736-9.512-26-14-1.768-6.28 4.682-11.771 3-17-1.671-5.197-6.199-5.248-12-10-6.79.179-9.86 9.047-18 9-7.352-.042-20.619-10.039-21-16-.43-6.721 3.691-5.006 4-11 .069-1.339-1.944-2.675-1-6-7.727-4.819-13.996.451-21 2-8.129-4.936-19.133-6.325-20-15-.669-6.699 9.249-11.97 6-22-8.7-1.033-9.65 5.683-17 6-13.459-3.875-20.877-13.789-22-30-14.457-5.21-25.72-13.613-29-30-5.219-5.447-9.132-12.201-16-16-9.416-16.25-18.393-32.94-31-46-5.544-1.94-13.117 2.019-21 1-4.392 7.346-3.064 15.111-11 19-9.192 4.504-23.57 2.903-35 3-2.989-6.344-8.104-10.562-11-17-13.463.516-18.251-3.112-28 3-5.994 3.758-6.485 11.775-12 15-5.972 3.492-23.891 6.17-31 3-6.792-3.027-5.929-14.295-15-17-17.158-6.515-20.347 11.744-29 16-8.822 4.339-19.795-.454-32-1-3.544-3.789-1.126-13.541-6-16-13.064-4.952-15.795 8.788-21 15-12.423-1.452-22.78 3.088-29-3-3.993-3.908-.991-10.639-5-15-4.732-5.148-9.206-2.092-19-3-3.42 3.247-2.958 10.375-7 13-10.827 2.565-23.795.224-33-2-3.278-12.274-12.393-25.484-26-22-6.577 1.685-7.467 14.487-16 17-10.342 3.045-17.713-4.295-29-6a869.416 869.416 0 0 0-5-16c-9.177-2.768-13.837-6.518-23-5-6.247 1.035-9.561 7.812-15 9-12.532 2.736-23.352-3.305-35-6 4.451-13.074-11.355-22.204-27-18-4.047 2.953-5.914 8.086-10 11-12.824-.509-24.855-1.812-33-7 1.147-5.463 1.147-10.537 0-16-5.373-3.535-7.894-6.754-13-7-9.239-.444-14.801 10.676-22 12-9.65 1.774-23.36-2.695-27-9-4.257-7.372 1.009-15.873-5-21-8.796-7.505-22.346-.103-30 7-16.639-1.694-32.874-3.793-30-25-5.052-4.144-10.088-8.046-17-7-6.139.929-9.734 10.748-17 12-11.534 1.987-17.608-5.154-27-11 1.28-9.583-5.052-19.394-15-21-7.731 1.936-10.666 8.667-17 12-9.987-2.187-16.158-2.745-23-7-.276-6.512 2.41-13.965-3-18-10.617-7.918-18.591 5.152-26 6-9.317 1.066-13.128-5.188-21-6 .363-6.694-1.047-14.056-7-17-15.076 1.508-28.497 13.325-41 1 1.107-7.307.483-10.604-3-15-10.888-5.939-18.159 5.93-24 7-17.214 3.154-21.356-11.732-25-23-11.306-1.306-10.993 9.008-19 11-5.17-2.163-11.224-3.442-17-5-.478-7.053-.849-13.27-6-16-10.873-5.764-26.991 10.019-39 0-3.155-5.512-4.253-13.08-13-13-3.651-2.605-5.517 5.115-11 4-2.936-2.064-7.211-2.789-11-4-.677-9.323-7.086-12.914-12-18-10.77 2.141-16.641 9.191-27 2-3.002-4.013 1.427-7.987-4-12-9.128-3.484-15.778 1.53-24 2-8.472-2.085-5.072-10.106-11-14-14.934-5.189-29.52 4.693-34-13-15.839 4.137-25.167-5.898-28-18-25.568 1.2-36.741-17.638-54-32-23.082-19.209-41.339-30.637-60-53-7.712-9.242-18.066-16.932-23-24-2.228-3.191-3.567-8.229-6-12-8.701-13.493-16.566-29.144-23-44-25.119-5.859-49.179-10.665-71-19-21.795-8.325-42.192-21.512-60-32-14.421-8.494-28.044-14.076-42-23-21.863-13.98-42.766-26.525-64-40-11.963-11.371-22.694-23.973-38-32-10.441-16.863-28.153-30.565-38-47-1.576-2.63-1.408-6.176-3-9-9.588-17.003-26.188-31.209-34-48-6.218-13.367-6.013-29.574-16-42-.652-8.252-2.781-15.925-5-24-2.334-8.495-7.129-15.197-8-22-.771-6.024 1.738-12.134 1-18-.337-2.681-2.625-5.55-3-8-2.182-14.281 2.642-28.915-3-43 4.351-2.983 6.773-7.894 10-12-.716-15.815 10.897-31.667 4-51 6.9-2.135 8.541-7.642 15-8 .105-10.028 10.619-21.379 13-34 2.235-11.849-1.208-24.219 14-23 4.86-8.14 13.337-12.663 15-24 4.577.361 11.833-12.437 16-19-2.851-12.683 3.938-18.991 15-19 17.621-14.713 30.441-34.226 51-46 .687-8.299 11.536-7.283 15-13 2.723-4.493-.297-9.224 3-15 7.935-1.763 26.216 4.725 28-9 15.447 1.78 7.184-20.15 20-21 12.835 6.653 20.638-3.017 32-6-1.123-14.778 12.985-20.06 22-11 5.386-5.639 14.11-5.884 21-11 3.181-2.362 1.725-1.234 4-5 5.82-9.633 11.151-1.819 20-3 1.809-.241 2.328-1.85 5-3 7.775-3.345 14.327-2.584 19-5 3.784-1.956 7.554-6.724 12-8 10.953-3.144 25.055-1.043 38-6 3.519-5.148 5.624-11.709 13-13 5.386 1.412 4.604 7.721 10 9 5.682 1.347 9.861-3.092 16-4 1.202-4.464 1.861-9.472 4-13 4.273 2.141 6.613.625 11 3 3.855 2.087 4.649 6.247 9 7 1.966.34 7.637-1.286 13-2 9.859-1.313 17.028-1.896 21-5 10.33 6.882 17.038-8.057 26-9 5.854-.616 9.942 5.101 16 6 3.84.57 11.287-1.344 18-2 7.026-.687 14.304.303 18-1 4.899-1.728 6.875-7.791 11-8 5.745-.291 8.703 5.938 12 9 9.478-4.167 15.019 2.149 24 1 8.695-1.112 16.12-8.872 24-8 6.914.765 12.545 7.62 20 8 10.005.51 18.396-4.762 28-8 .758 16.499 22.613 13.114 30 4 4.538.462 3.545 6.455 8 7 5.019.19 10.087-3.264 16-2 6.625 1.416 5.563 5.905 13 6 8.995.115 12.576-6.222 19-5 6.58 1.251 5.007 8.55 10 11 12.834-4.738 23.188 4.037 34 2 5.859-1.104 8.423-8.143 14-8 4.719.121 7.589 6.125 13 8 10.129 3.51 15.865 1.832 25-3 4.895.439 4.817 5.849 10 6 4.839-10.432 20.507-6.994 24 2 5.512-.383 8.259-3.018 13-2 6.517 1.399 11.542 9.637 18 9 4.335-.428 7.1-7.709 12-8 6.838-.406 8.083 8.255 14 9 4.498-2.502 8.615-5.385 15-6 6.405 9.173 22.605 11.918 37 10 2.821-1.995 4.498-7.064 9-8 4.407-.916 10.351 5.509 16 6 13.111 1.14 29.133-5.671 38-7 4.896-.734 10.285.406 15 0 19.634-1.693 36.273-10.989 50-15-9.038-.629-16.279-3.054-24-5-5.355 16.578-31.557 4.017-40-3 .406-5.544 1.053-8.084-2-11-7.973-7.615-12.634 1.91-20 2-10.991.135-15.152-8.968-22-14 10.877-10.51-.901-25.69-16-19-1.684-7.375-8.491-9.263-9-17-.453-6.886 6.659-15.54 1-24-4.475-3.525-13.327-2.673-17-7-7.795-16.656 9.655-21.64 11-33 1.264-10.68-8.083-14.207-8-22 .095-8.882 10.02-10.433 9-21 6.021-1.979 3.785-12.215 12-12v-10c7.393-6.939 8.816-16.194 14-23 5.271-6.92 12.906-12.304 16-22 10.531-7.733 21.411-19.284 36-27 18.9-9.996 55.612-26.62 84-15 7.94 3.25 11.601 12.551 20 12 1.154-5.956-1.178-12.793 5-19-2.469-3.169-3.867-7.015-2-12 10.903-1.34 5.294-7.379 10-14 2.031-2.857 4.658-2.209 9-5 3.214-2.066 5.329-5.602 8-7 2.953-1.545 8.349-2.461 12-4 4.291-1.808 7.592-4.68 12-4-11.456 14.115-32.601 20.659-32 43 .477 17.746 17.807 30.131 28 41 16.999 18.126 37.825 36.995 40 69 2.403 35.371-22.423 58.26-47 76-1.119 2.078-1.078 2.119 1 1 18.459-5.875 34.733-13.933 55-18 3.794.128 2.807-4.526 6-5 15.868-3.033 32.214-7.831 41-15 25.771-4.94 57.973-19.457 85-32 40.394-12.94 83.636-23.031 128-32 8.669 3.159 16.688-2.516 27-1 22.388-9.517 53.749-2.071 81-3 7.098-.242 13.653-3.097 20-3 11.728.178 18.518 6.285 29 7 .606 9.06 9.95 9.383 15 14 15.464-10.271 42.953 1.451 45 14 1.131 6.934-5.418 10.844-2 17 7.869.18 10.508-3.023 17-3 14.376.052 26.418 12.55 36 13 2.657.125 14.468-2.933 17-4 1.805-.761 2.018-3.301 4-4 23.812-8.397 45.898-12.875 66-23h10c25.057-9.414 55.603-16.549 85-22 17.725-3.287 33.744-7.034 49-10 9.951-1.935 20.473-1.392 30-4 12.056-3.3 22.902-7.579 35-10 29.682-5.941 59.276-9.429 89-12 6.187-2.065 15.05-5.117 23-6 65.866-7.313 126.908-15.727 199-14 23.432.562 46.189 1.161 69 2 20.594.757 40.113 1.06 59 4 16.681 2.597 29.536 7.399 44 12 63.986 20.352 113.062 74.241 101 165-1.562 11.749-6.626 24.798-11 34-8.135 17.113-22.631 31-29 49-1.327 3.75-.788 8.119-3 13-5.257 11.6-26.654 19.312-30 31-2.619 9.148 2.289 16.259 5 24 8.506.952 16.396-3.252 21 2 .996 21.027-5.785 42.859-20 52-14.348-2.175-27.855 3.828-33 14-2.771 5.48-5.689 22.221-3 29 2.399 6.05 12.047 7.843 13 13 1.578 8.538-8.662 20.041-13 25-6.094 6.967-26.275 23.013-38 22-5.13-.443-11.515-9.173-17-9-7.362.232-17.024 13.294-18 18-1.81 8.729 1.46 14.399-1 20-3.977 9.055-12.422 9.001-19 19 25.58 12.389 50.912 25.858 71 41 10.549 7.951 21.051 14.749 32 22 19.569 12.959 37.604 29.03 54 44 4.763 4.349 9.509 8.034 14 12 18.058 15.944 30.699 36.035 47 53 15.532 27.132 34.329 57.76 42 95 3.541 17.191 8.67 35.042 9 51 .98 47.424-19.094 82.359-40 113-5.459 3.874-11.891 6.775-15 13 9.581 22.179 28.147 36.83 39 58 10.566 20.612 20.466 43.716 29 64 3.268 7.766 4.498 16.187 8 24 2.676 5.972 6.078 9.404 8 16 23.752 81.532 3.581 165.605-23 227-4.344 10.032-6.939 20.367-11 29-11.122 23.647-25.218 45.82-39 65-41.684 58.01-97.583 103.215-155 143-18.487 8.019-34.429 21.01-53 30-33.582 16.257-70.179 28.102-105 40-43.878 14.993-91.877 27.804-145 32-15.114 5.722-28.52 14.425-45 9-3.704-1.219-5.999-5.304-10-6-11.07-1.928-19.756 4.347-28 9h-18zm-999-1612c2.296 17.854 24.585 9.398 36 13 1.509-1.824 1.061-5.605 3-7 3.469-.802 3.844 1.489 7 1-.689-2.689 2.067-1.933 3-3-1.725-10.392 2.693-14.64 10-16-.589-3.589 1.162-4.838 2-7-9.637-7.585 1.768-15.529 4-23-1.539-1.795-5.862-.805-6-4-1.1-6.099 1.729-8.271 3-12-7.575-7.758-10.907-19.759-23-23-.958-3.042-2.019-5.981-3-9h-3c-1.458 36.151-37.9 51.903-33 90zm193 920c-9.386-10.832-14.652-31.37-12-46 8.951-49.369 47.673-69.355 88-91 26.756-14.36 53.695-26.156 80-38 3.735-1.682 10.852-2.893 8-5-43.137 14.304-83.592 31.621-131 39-23.279 3.623-53.633 5.162-75 7-16.634 1.431-36.065-3.423-52-1-10.161 1.545-21.677 14.186-37 20-10.831 4.109-25.582 3.832-36 8-16.114 6.447-19.102 22.821-42 23-13.615.106-23.653-7.756-37-11-8.07-1.961-19.023-3.043-27-3-29.585.159-61.438 5.411-86 10-8.974 1.677-18.362 1.32-27 3-21.566 4.194-42.945 11.673-64 18 36.804-6.052 68.166-4.664 103-7 19.084-1.279 38.613-1.954 57-3 54.514-3.101 101.538 6.108 141 22 23.903 9.626 46.229 18.98 66 32 9.787 6.445 19.806 15.867 30 20 6.044 2.45 14.499 3.653 22 6 14.533 4.547 26.644 6.273 38 7 2.861-4.349-4.419-7.022-7-10zm368 1c-5.824-3.219-18.913-13.75-26-12-14.588 3.602-28.086 19.152-44 25-8.556 3.144-15.318 2.313-23 8 41.933 8.088 92.24 14.664 137 7-6.905-3.428-9.105-11.562-18-13-.725-2.275-.892-5.108-2-7-11.043.755-17.123-4.199-24-8zm596 332c12.23-14.77 26.315-27.685 36-45-19.86 6.714-38.956 21.746-36 45zm-128 75c2.162-2.255 3.411.828 7 0 16.23-11.436 39.915-15.419 54-29 17.387-5.946 30.242-16.425 42-28 2.082-2.22 13.031-5.223 9-7-14.441 5.718-26.394 15.257-45 14-7.303-4.363-14.416-8.917-22-13-19.714 1.619-32.104 10.562-46 18-2.328 7.803 1.396 13.365 1 22-12.169 15.164-32.851 21.816-59 23-5.479-4.521-9.579-10.421-16-14-22.521-.854-38.415 4.918-56 9-2.59 13.152-8.271 24.59-22 29 59.254 5.5 106.459-11.059 153-24z" fill-rule="evenodd"/></svg>