<svg xmlns="http://www.w3.org/2000/svg" xmlns:dc="http://dublincore.org/documents/dcmi-terms/" height="370" viewBox="0 0 1024 370" width="1024"><metadata><dc:description>Silhouette of Oncorynchus mykiss, processed by PhyloPic Tools (https://github.com/eweitz/phylopic-tools)</dc:description><dc:source>http://phylopic.org/image/82219991-3199-4f7d-afd9-d9bb466dcf71</dc:source><dc:creator>Steven Traver</dc:creator><dc:license>http://creativecommons.org/publicdomain/zero/1.0/</dc:license></metadata><path d="M1.8 184.9c10.9-15.2 25.8-26.4 44.9-33.6C66.6 143.7 87 136.7 108 130c.4 0 .6.1 1 .2 1.1.4 3.1.4 6-.2 0-.3 0-.5.1-.6 19.9-6 39.9-11.8 59.9-17.4.4 0 .6-.1 1-.1 40.3-8.8 83-15 128-18.9v-.5c4.7-.4 9.4-.5 14-.5h8v-.5c14-.4 28-.5 42-.5v-.5c4-.4 8-.5 12-.5v1c.4 0 .6 0 1-.1 6.5-.7 12.9-1.7 19-2.9 6.5-5.9 12.7-11.9 18.5-18.4C443.4 42.4 472.2 19.2 505 0H0v208c1.2-1.7 3.2-2.3 5.8-1.8 4.7.9 10.8.9 18.2-.2 0-.3-.1-.6-.2-.6-5.9-2.7-11.8-5.1-17.8-7.4 0-.3-.1-.6-.3-.8-1.9-2-3.5-4.4-4.7-7.2-.3-2.3 0-3.9.8-5.1z" fill="#fefefe"/><path d="M6 198c6 2.3 11.9 4.7 17.8 7.4.101 0 .2.3.2.6-7.4 1.1-13.5 1.1-18.2.2-2.6-.5-4.6.1-5.8 1.8v6c7.3 8.9 16.8 15.5 28.5 19.7 12.5 4.399 25 8.1 37.8 11 47.9 11.2 95.5 23 142.7 35.3 5.2 6.5 10.3 13 15.1 19.9 5 7 9.9 14 14.5 21 6.2 9.5 14.601 14.8 25.4 16.1 3.8-1.1 5.9-4.1 6.3-9 .8-10.9 1.101-22.5.7-35h1c30.9 4.5 62.2 8.5 94 12h18v1h24c.4 0 .6 0 1 .1 4.7 1.301 9.7 1.301 15-.1h14c2 0 3.9.4 5.6 1 4.301 1.6 7.5 4.7 9.601 9.4a39.44 39.44 0 0 1 2.3 5.199c3.5 8.5 9.6 13.9 18.5 16.4.4 0 .5-.1.7-.3 2.8-3.5 5.5-7.101 8.3-10.7 2 2.4 4 4.7 5.8 7 2.8 3.5 4.9 4.5 6.2 3h-.5c2.2-3.5 3-2.5 2.5 3 0 .4.1.6.2.7C507.6 352.1 519.9 361.5 534 369v1h3c0-.3.1-.6.2-.6 3-1.801 5.3-4.2 6.8-7.4v-1-12c-1.1-5.3-1.9-10.4-2.6-15.2-.801-7-2.7-11.3-5.4-12.8 0-.4 0-.6.1-1 .601-9.1-1-16.8-5.1-23 0-.3.1-.5.1-.5 21.8-4.5 44.8-7.6 68.9-9.5 0-.3 0-.5.1-.5 2.601-.3 5.301-.5 7.9-.5.4 0 .6 0 1-.1 4.2-.7 8.9-1.101 14-.9 0-.3 0-.5.1-.5 2.9-.3 5.9-.5 8.9-.5h21v1c5.7.2 10.399 1.5 13.899 3.6C699.8 309 734.899 327.2 772 343h8c1.8.1 3.1-.2 3.899-1.1 5-5 8.801-11.5 11.5-19.4 2.801-8.3 4.601-17.5 5.4-27.6 1.2-13.5 2.3-25.801 3.2-36.9-1.3-1.3-2.8-2.6-4.2-3.8-.2-.101-.5-.2-.8-.2-3.7 0-7.3-.2-10.9-.5-.1 0-.1-.2-.1-.5-.3 0-.7-.1-.9-.1-4.399-1-8-2.7-11.1-4.9 0-.3.1-.5.1-.6 17.7-4.4 35.3-7.2 52.9-8.4h10c25.399 4.2 48.7 10.5 70 18.8 21.2 8.2 44.2 14.7 69 19.2h8v1h1c6.6 0 12.6.7 18 2h11c3.3.4 6 0 8-1v-1-1c-3.601-7.2-5.9-15.5-6.9-25.1-1.2-11.2-4.899-19.5-11.1-24.9-.8-9.4-3-18.8-6.9-28.1 0-.2-.1-.601-.1-.9-.4 0-.5-.1-.5-.1-.9-3.7-.601-6.7.5-8.9 0-.3.1-.7.2-.9 1.399-2.6 2-5.7 1.8-9.1 0-.3.1-.6.2-.8 5.199-8.4 8.899-18.5 10.8-30.2-.4-.3-.7-.6-1.101-.8-1.3-.5-1.8-1-1.5-1.6.801-1.9 1.7-5.9 2.601-11.6 0-.3 0-.7-.101-1-.399-3.2-.1-5.5 1.101-7v-1c-.4 0-.5-.1-.601-.1-.8-3.5-.6-6.1.601-7.9v-1-1c-1.2-1.2-1.5-3.2-1.101-6 0-.4.101-.6.101-1-1.2-1.9-1.5-4.5-1.101-8 .101-.4.101-.6.101-1v-1c0-2.4.3-4.4 1-6-11.8-3.4-24.101-2.9-37.101 1.6C939 106.2 906.5 122.1 877.5 141.2c-6.3 4.2-14.101 7-23.3 8.6-2.9.4-5.9.9-9.2 1.2-1.5 1.2-3.8 1.5-7 1.1-.3-.1-.7-.1-1-.1-16.5.8-31.5.2-45-1.9-.3 0-.7-.1-1-.1 8.8-1.8 16.1-5.3 21.7-10.3.199-.1.3-.4.3-.7-5.4-11.4-15.4-15.2-30.101-11.2-13.1 3.6-26.5 6.5-40.199 8.8-3.301.5-6.9.5-10.601.1-23.3-2.9-48.2-6.2-74.899-10C622.1 121.6 587 116 552 110c13.7-3.3 26.8-7.2 39.1-11.9.301 0 .5-.1.9-.1-4.9-10.8-12.3-19.3-22.1-25.5-1.601-1.1-3-2.4-4.4-3.9-3.1-3.7-6.6-6.9-10.5-9.6-7.6 2.4-9 1.6-4.3-2.3.2-.1.3-.3.3-.7-4.9-8.7-10.6-16.6-17.1-23.8-1.801-2-3.4-4.1-4.801-6.3-3.899-5.7-8.3-9.2-13.199-10.4-1.301-.3-2.2-.1-2.9.5-3.4-1.4-3.1-3.8.5-7h-.5c-.4-3.9-2-6.6-4.8-8.4-.2 0-.2-.2-.2-.6h-3c-32.8 19.2-61.6 42.4-86.5 69.6-5.8 6.5-12 12.5-18.5 18.4-6.1 1.2-12.5 2.2-19 2.9-.4.1-.6.1-1 .1h-12c-12.9 1.1-26.5 1.5-41 1h-9c-3.5 1.1-7.9 1.5-13 1.1-.4-.1-.6-.1-1-.1-45 3.9-87.7 10.1-128 18.9-.4 0-.6.1-1 .1-20 5.6-40 11.4-59.9 17.4-.1.1-.1.3-.1.6-2.9.6-4.9.6-6 .2-.4-.1-.6-.2-1-.2-21 6.7-41.4 13.7-61.3 21.3-19.101 7.2-34 18.4-44.9 33.6-.8 1.2-1.1 2.8-.8 5.1 1.2 2.8 2.8 5.2 4.7 7.2.2.2.3.5.3.8z"/><path d="M0 370h534v-1c-14.1-7.5-26.4-16.9-36.8-28.3-.101-.101-.2-.3-.2-.7.5-5.5-.3-6.5-2.5-3h.5c-1.3 1.5-3.4.5-6.2-3-1.8-2.3-3.8-4.6-5.8-7-2.8 3.6-5.5 7.2-8.3 10.7-.2.2-.3.3-.7.3-8.9-2.5-15-7.9-18.5-16.4-.6-1.699-1.4-3.5-2.3-5.199-2.101-4.7-5.3-7.801-9.601-9.4-1.699-.6-3.6-1-5.6-1-3.9 1.1-8.5 1.4-14 .5v-.5c-5.3 1.4-10.3 1.4-15 .1-.4-.1-.6-.1-1-.1-5.9 1.1-12.5 1.4-20 .5v-.5h-4c-6 0-12-.2-18-.5v-.5c-31.8-3.5-63.1-7.5-94-12h-1c.4 12.5.1 24.1-.7 35-.399 4.9-2.5 7.9-6.3 9-10.8-1.3-19.2-6.6-25.4-16.1-4.6-7-9.5-14-14.5-21-4.8-6.9-9.899-13.4-15.1-19.9-47.2-12.3-94.8-24.1-142.7-35.3-12.8-2.9-25.3-6.601-37.8-11C16.8 229.5 7.3 222.9 0 214v156z" fill="#fefefe"/><path d="M369 91h11v-1c-4 0-8 .1-12 .5v.5h1z" fill="#d9d9d9"/><path d="M327 92c14.5.5 28.1.1 41-1-14 0-28 .1-42 .5v.5h1z" fill="#878787"/><path d="M305 93.1c5.1.4 9.5 0 13-1.1-4.6 0-9.3.1-14 .5v.5c.4 0 .6 0 1 .1z" fill="#ccc"/><path d="M384 306v-1h-18v.5c6 .3 12 .5 18 .5z" fill="#717171"/><path d="M513 16c.7-.6 1.6-.8 2.9-.5 4.899 1.2 9.3 4.7 13.199 10.4 1.4 2.2 3 4.3 4.801 6.3 6.5 7.2 12.2 15.1 17.1 23.8 0 .4-.1.6-.3.7-4.7 3.9-3.3 4.7 4.3 2.3 3.9 2.7 7.4 5.9 10.5 9.6 1.4 1.5 2.8 2.8 4.4 3.9 9.8 6.2 17.2 14.7 22.1 25.5-.4 0-.6.1-.9.1-12.3 4.7-25.399 8.6-39.1 11.9 35 6 70.1 11.6 105.2 16.7 26.699 3.8 51.6 7.1 74.899 10 3.7.4 7.3.4 10.601-.1 13.699-2.3 27.1-5.2 40.199-8.8 14.7-4 24.7-.2 30.101 11.2 0 .3-.101.6-.3.7-5.601 5-12.9 8.5-21.7 10.3.3 0 .7.1 1 .1 13.5 2.1 28.5 2.7 45 1.9 0-.3 0-.5.1-.5 2.601-.3 5.2-.5 7.9-.5 3.3-.3 6.3-.8 9.2-1.2 9.199-1.6 17-4.4 23.3-8.6 29-19.1 61.5-35 97.399-47.6 13-4.5 25.301-5 37.101-1.6-.7 1.6-1 3.6-1 6v1h1v9c0 .4-.101.6-.101 1-.399 2.8-.1 4.8 1.101 6v11c0 2.7-.2 5.3-.5 7.9 0 .1-.2.1-.5.1-.9 5.7-1.8 9.7-2.601 11.6-.3.6.2 1.1 1.5 1.6.4.2.7.5 1.101.8-1.9 11.7-5.601 21.8-10.8 30.2-.101.2-.2.5-.2.8.2 3.4-.4 6.5-1.8 9.1-.101.2-.2.601-.2.9v9c0 .3.1.7.1.9a92.477 92.477 0 0 1 6.9 28.1c6.2 5.4 9.899 13.7 11.1 24.9 1 9.6 3.3 17.899 6.9 25.1v-98V0H508c0 .4 0 .6.2.6 2.8 1.8 4.4 4.5 4.8 8.4h.5c-3.6 3.2-3.9 5.6-.5 7z" fill="#fefefe"/><path d="M601 287c3.1.5 5.5.2 7-1-2.6 0-5.3.2-7.9.5-.1 0-.1.2-.1.5h1z" fill="#cbcbcb"/><path d="M531.1 296.5s-.1.2-.1.5c4.1 6.2 5.7 13.9 5.1 23-.1.4-.1.6-.1 1 2.7 1.5 4.6 5.8 5.4 12.8.699 4.8 1.5 9.9 2.6 15.2h1c0 4.4-.1 8.6-.5 12.9 0 .1-.1.1-.5.1-1.5 3.2-3.8 5.6-6.8 7.4-.101 0-.2.3-.2.6h487v-1-90c-2 1-4.7 1.4-8 1h-1c-2.5 1.2-5.8 1.3-9.9.5 0 0-.1-.2-.1-.5-5.4-1.3-11.4-2-18-2h-1c-2.601 0-5.3-.2-8-.5v-.5c-24.8-4.5-47.8-11-69-19.2-21.3-8.3-44.601-14.6-70-18.8-2.5 1.2-5.8 1.3-9.9.5 0 0-.1-.2-.1-.5-17.601 1.2-35.2 4-52.9 8.4 0 .1-.1.3-.1.6 3.1 2.2 6.7 3.9 11.1 4.9.2 0 .601.1.9.1h11v1c.3 0 .6.1.8.2 1.4 1.2 2.9 2.5 4.2 3.8-.9 11.1-2 23.4-3.2 36.9-.8 10.1-2.6 19.3-5.4 27.6-2.699 7.9-6.5 14.4-11.5 19.4-.8.899-2.1 1.199-3.899 1.1-1.8 1.1-4.4 1.4-7.9.6 0-.1-.1-.199-.1-.6-37.101-15.8-72.2-34-105.101-54.4-3.5-2.1-8.199-3.399-13.899-3.6-3 0-6-.2-8.9-.5-.1 0-.1-.2-.1-.5h-12c-1.9 1.2-4.6 1.5-8 1h-1c-5.1-.2-9.8.2-14 .9-.4.1-.6.1-1 .1-1.5 1.2-3.9 1.5-7 1h-1c-24.101 1.9-47.101 5-68.901 9.5z" fill="#fefefe"/><path d="M644.1 284.5c2.9.3 5.9.5 8.9.5v-1h-9c0 .3 0 .5.1.5z" fill="#bcbcbc"/><path d="M632 284c-3 0-6 .2-8.9.5-.1 0-.1.2-.1.5h1c3.4.5 6.1.2 8-1z" fill="#b3b3b3"/><path d="M544.5 361.9c.4-4.301.5-8.5.5-12.9h-1v13c.4 0 .5 0 .5-.1z" fill="#c3c3c3"/><path d="M408 306h-20v.5c7.5.9 14.1.6 20-.5zM424 306.5c5.5.9 10.1.6 14-.5h-14v.5z" fill="#ccc"/><path d="M838 152.1c3.2.4 5.5.1 7-1.1-2.7 0-5.3.2-7.9.5-.1 0-.1.2-.1.5.3 0 .7 0 1 .1z" fill="#878787"/><path d="M1012 108v-1-8h-1c0 .4 0 .6-.101 1-.399 3.5-.099 6.1 1.101 8z" fill="#444"/><path d="M1013 124v-7c-1.2 1.8-1.4 4.4-.601 7.9.101 0 .2.1.601.1v-1z" fill="#969696"/><path d="M1012.5 133.9c.3-2.6.5-5.2.5-7.9-1.2 1.5-1.5 3.8-1.101 7 .101.3.101.7.101 1 .3 0 .5 0 .5-.1z" fill="#959595"/><path d="M999 198v-1-8c-1.101 2.2-1.4 5.2-.5 8.9 0 0 .1.1.5.1z" fill="#b9b9b9"/><path d="M1005.1 280.5c4.101.8 7.4.7 9.9-.5h-10c0 .3.1.5.1.5z" fill="#b0b0b0"/><path d="M979 277h-1v.5c2.7.3 5.399.5 8 .5v-1h-7z" fill="#cecece"/><path d="M829.1 239.5c4.101.8 7.4.7 9.9-.5h-10c0 .3.1.5.1.5z" fill="#d3d3d3"/><path d="M799 254v-1h-11c0 .3 0 .5.1.5 3.6.3 7.2.5 10.9.5z" fill="#515151"/><path d="M772.1 343.6c3.5.801 6.101.5 7.9-.6h-8c0 .4.1.5.1.6z" fill="#696969"/></svg>