<svg xmlns="http://www.w3.org/2000/svg" xmlns:dc="http://dublincore.org/documents/dcmi-terms/" height="1052.362" width="744.094"><metadata><dc:description>Silhouette of Onychophora, processed by PhyloPic Tools (https://github.com/eweitz/phylopic-tools)</dc:description><dc:source>http://phylopic.org/image/4345c242-2f5c-4d55-8ccc-ecd7f8f59eb3</dc:source><dc:creator>Mali&apos;o Kodis, photograph by Bruno Vellutini</dc:creator><dc:license>http://creativecommons.org/licenses/by-sa/3.0/</dc:license></metadata><path d="M419.936 68.546s9.701 2.636 15.765 11.597c6.063 8.96 9.701 4.744 7.882 26.882-1.819 22.138 1.777 17.923-3.031 25.3-1.495 2.293-4.55 3.593-7.277 4.744-2.822 1.192-6.473.61-9.095 2.109-8.176 4.672-10.914 5.27-18.19 20.03-7.276 14.758 2.425 22.137-21.222 13.177-23.648-8.961-22.435-11.596-24.86-5.798-2.426 5.798-.607 10.014 7.276 15.285 7.882 5.271 16.977 6.853 20.01 6.853 3.03 0-13.947 20.03-13.947 20.03s-20.01-21.612-23.647-18.976c-3.638 2.635-3.638 7.38-3.638 12.123 0 4.744-5.458 15.813 2.425 20.557 7.883 4.744 15.159 4.217 15.159 4.217s-5.457 4.217-10.915 13.704c-5.457 9.488-6.063 10.015-6.063 10.015s-32.743.527-36.987 4.744c-4.245 4.217-5.457 11.596-2.426 14.759 3.032 3.162 4.245 5.798 10.915 5.27 6.67-.526 16.977-4.743 16.977-4.743s-9.701 6.325-14.552 14.759c-4.85 8.433-7.882 7.906-7.882 7.906s-23.042 1.054-25.467 4.744c-2.425 3.69-16.371 8.96-15.765 12.65.606 3.69 4.244 10.015 9.702 8.96 5.457-1.053 10.914-.526 14.552-2.107 3.638-1.582 8.489-6.853 8.489-6.853l-7.883 13.705c-3.638 6.325-6.67 12.65-6.67 12.65s-2.425-9.488-11.52-10.015c-9.095-.527-17.584-2.635-18.797 3.163-1.213 5.798 0 20.03 4.245 23.192 4.244 3.163 12.733 7.38 12.733 7.38s-19.403 44.276-18.797 34.788c.606-9.488 3.032-21.084-4.244-23.72-7.277-2.635-23.042-2.635-23.648 3.69-.606 6.325-6.063 20.03-2.425 27.41 3.638 7.379 15.765 15.285 15.765 15.285s1.819-5.27-7.883 11.07c-9.701 16.34-12.127 23.719-12.127 23.719s3.032 5.27-2.425 3.162c-5.457-2.108-14.552-18.448-21.222-14.759-6.67 3.69-13.946 9.488-9.095 17.922 4.85 8.433-1.213 17.394 10.914 17.394 12.127 0 21.828-3.69 13.34 7.906-8.49 11.597-15.16 36.897-15.16 36.897s-18.796 6.853-23.04 18.976c-4.245 12.123-11.521 21.084-6.064 23.72 5.457 2.635 25.467 2.108 28.498-2.11 3.032-4.216 7.277-5.27 7.277-5.27v27.936s-23.042 5.27-27.892 13.177c-4.851 7.907-10.308 4.217-3.032 11.07 7.276 6.852 12.127 4.743 18.19 3.69 6.064-1.055 18.797-.528 18.797-.528l6.67 29.517s-10.914-10.541-18.19-10.541c-7.277 0-16.372 3.162-16.372 6.852 0 3.69 2.426 17.394 13.946 24.773 11.52 7.38 21.829 8.434 21.829 8.434s-.607 17.394 3.638 25.3c4.244 7.907 6.063 12.651 6.063 12.651s-13.34-14.232-21.222-10.542c-7.883 3.69-12.127 3.69-10.308 8.96 1.82 5.272 10.308 22.666 21.829 25.828 11.52 3.163 16.37 3.69 16.37 3.69s-.605-.527 6.064 19.503c6.67 20.03 9.096 22.138 9.096 22.138s-13.946.527-15.765 8.96c-1.82 8.434-10.915 16.34-7.277 22.666 3.638 6.325 11.521 10.542 17.584 8.96 6.064-1.581 15.765-13.177 15.765-13.177l.607-4.744 12.733 32.153s-4.85 1.054-12.733 10.015c-7.883 8.96-14.553 11.596-4.245 14.759 10.308 3.162 18.19 3.162 23.042.527 4.85-2.636 8.488-2.636 8.488-2.636s-1.212 6.325-.606 17.394c.63 11.5 7.276 14.76 7.276 14.76s-4.85-7.907-13.946-8.962c-9.095-1.054-16.977.528-17.584 4.217-.606 3.69-3.032 9.488 6.064 13.178 9.095 3.69 30.923 11.596 30.923 11.596l11.52 14.759 6.67 8.96s-12.722 4.069-14.552 6.852c-2.425 3.69-1.819 10.015 3.638 10.015 5.458 0 8.49-4.744 15.765-3.162 7.277 1.581 13.34 1.581 14.553 5.27 1.212 3.69-1.213 7.38 5.457 13.178 6.67 5.798 29.71 11.596 29.71 11.596s-10.307-19.502-8.488-32.153c1.82-12.65 1.82-48.493-3.638-61.67-5.457-13.177-14.552-79.065-30.924-110.163-16.371-31.1-29.71-72.213-29.71-87.499 0-15.285 4.85-111.744 1.818-130.72-3.031-18.975-5.457-44.803 1.82-61.67 7.276-16.867 28.498-66.942 38.806-87.498 10.307-20.557 45.476-101.73 57.602-114.908 12.127-13.177 9.702-26.355 13.946-35.842 4.245-9.488 14.553-26.355 16.978-36.897 2.426-10.542 12.127-25.3 19.403-29.518 7.276-4.216 22.435-15.812 23.648-22.665 1.212-6.852-4.245-11.069 12.127-12.65 16.371-1.581 36.38 3.162 41.838 6.325 5.457 3.163 16.37 7.38 10.914.527-5.457-6.852-17.584-14.759-32.743-16.34-15.159-1.581-23.647-.527-33.349 1.054-9.701 1.582-12.127 3.69-14.552-1.054-2.426-4.744-1.213-34.261-3.032-42.168-1.819-7.906-10.914-34.261-23.041-36.896-12.127-2.636-20.01-3.163-18.797.527 1.213 3.69 4.85 4.743 4.85 4.743z" stroke="#000" stroke-width="1.679"/></svg>