<svg xmlns="http://www.w3.org/2000/svg" xmlns:dc="http://dublincore.org/documents/dcmi-terms/" height="216.119" viewBox="0 0 685.13 216.119" width="685.13" overflow="visible"><metadata><dc:description>Silhouette of Ophthalmosauridae, processed by PhyloPic Tools (https://github.com/eweitz/phylopic-tools)</dc:description><dc:source>http://phylopic.org/image/c96fdce7-81ab-4849-8ee3-69e3dbc52a25</dc:source><dc:creator>Gareth Monger</dc:creator><dc:license>http://creativecommons.org/licenses/by/3.0/</dc:license></metadata><switch><g><path d="M7.107 113.55l41 10 25.667 6 24 5s20.333 3.333 24.333 4c4 .667 18.333 3.333 22.333 5 4 1.667 12 8.666 16.333 10.333 4.333 1.667 10.334 2.666 14.667 5s14 16 14 16c7.667 8 9.666 11.668 18.333 17.334 8.667 5.666 21.334 10.666 28.667 12.333 7.333 1.667 14.333 3 19.333 4 5 1 9 1 13.333 0s7.667 0 7.667-3-3.333-8.334-4.667-10.667c-1.334-2.333-15-19.334-17.333-22-2.333-2.666-3.667-5.333-3.667-5.333s35.333 11.333 56.667 10c21.334-1.333 94.667-27 105-33 10.333-6 12.667-6.001 15-4.667 2.333 1.334 2.667 3.333 7 5 4.333 1.667 12 2.667 15 2.667s5.667-3.334 2-9.667 77.334-13.667 90-15.333c12.666-1.666 24.332-3 29.666-3.333 5.334-.333 24.334-2 28.667 2.333 4.333 4.333 15 25.667 20 33.667s15.333 26.333 18 28.333 9.999 12.666 18.333 18.333c8.334 5.667 11.666 8.333 15 10 3.334 1.667 12.667 7.333 13.667 2s-32-67.333-30.5-124.833 19-96 7.5-88-58 86.5-64 88-51-2.5-100.5-12.5-122.5-32-130.5-33.5-18.5-34.5-19-36-1.5-13.5-20-1.5-33 24.5-39.5 26-49.5-2.5-82.5 8c-63.183 20.104-59.511 28.62-73.5 34-6.5 2.5-13.5 2-27 9s-49.5 14.5-58 14.5-25.833 1.333-31 1.333c-5.167 0-15.332.167-15.665.834-.333.667-3.333 1.667 3.5 3.5s18.667 4.667 18.667 4.667l-16.834-.334s-10-.5-4.167 4c3.092 2.386 5 2.5 5 2.5z"/><path d="M4.607 104.884l1.334-3 1.833-.167-.167 3.5 1.334-2.167 1.166-.166.334 2.833 1.5-2.167 1.5-.333v3.5l1.833-2.167-.5-2.666-7.833-1.834-3 1.667z"/></g></switch></svg>