<svg xmlns="http://www.w3.org/2000/svg" xmlns:dc="http://dublincore.org/documents/dcmi-terms/" height="235.497" version="1.2" viewBox="260.033 190.834 278.39 235.497" width="278.39" overflow="inherit"><metadata><dc:description>Silhouette of Oriolidae, processed by PhyloPic Tools (https://github.com/eweitz/phylopic-tools)</dc:description><dc:source>http://phylopic.org/image/f3c3d9a5-e4d6-48da-9641-aecff91c4b8c</dc:source><dc:creator>L. Shyamal</dc:creator><dc:license>http://creativecommons.org/licenses/by-sa/3.0/</dc:license></metadata><path d="M298.65 206.467s10.464-9.985 20.774-12.984c9.147-2.66 19.543-3.923 28.565-.866 18.889 6.033 34.919 24.142 46.743 34.624 9.32 8.067 25.803 19.696 37.221 31.162 25.686 29.524 49.738 58.65 73.576 103.007 3.854 9.563-29.431-9.52-29.431-9.52l62.324 65.785-12.984 8.656-56.71-55.04s-18.418-8.638-24.656-10.747c-16.585-5.604-37.719-3.773-46.743-7.79-17.186-7.647-37.965-25.349-47.608-37.22-10.75-13.235-15.284-29.427-20.774-45.013-3.953-11.22-1.143-26.904-8.656-34.624-8.768-9.008-36.355-11.253-36.355-11.253l14.714-18.177z"/><path d="M303.372 207.122s-16.452 2.198-24.351 4.673c-5.706 1.788-12.385 3.795-16.435 7.286-1.493 1.287-2.552 3.834-2.552 3.834s4.725-1.353 6.736-1.984c8.991-2.823 20.003-2.634 29.396-2.982 7.18-.267 18.847-.273 18.847-.273s-7.623-2.303-11.786-5.017c-1.655-1.08.145-5.537.145-5.537z"/><path d="M313.967 224.565s-12.381-.653-18.547-.178c-2.434.187-7.229 1.19-7.229 1.19l-24.837-3.299-1.532-1.083s11.954-2.197 15.935-2.63c14.675-1.6 40.127-.85 40.127-.85s-6.519.713-7.036 3.317c-.31 1.56 3.119 3.533 3.119 3.533zM421.049 357.161l-18.057 27.237-10.1 2.143-6.121 3.673s-1.302 2.855.612 3.672c4.893 2.088 7.65-4.896 7.65-4.896h7.65l10.407 1.225s.514 4.552 2.447 5.202c2.816.947 1.837-5.509 1.837-5.509l-5.51-3.366-5.508-1.225 18.362-28.767-6.121-7.957-6.121 1.224 8.573 7.344z"/><path d="M417.07 389.907s2.92-.799 3.98 0c1.778 1.342 1.836 6.427 1.836 6.427s-1.201-3.71-2.755-4.59c-.976-.554-3.366 0-3.366 0l.306-1.837zM387.996 389.931s-2.92-.798-3.98 0c-1.778 1.342-1.835 6.427-1.835 6.427s1.2-3.71 2.754-4.59c.977-.554 3.367 0 3.367 0l-.306-1.837z"/></svg>