<svg xmlns="http://www.w3.org/2000/svg" xmlns:dc="http://dublincore.org/documents/dcmi-terms/" height="586" viewBox="0 0 1238 586" width="1238"><metadata><dc:description>Silhouette of Ornithorhynchus anatinus, processed by PhyloPic Tools (https://github.com/eweitz/phylopic-tools)</dc:description><dc:source>http://phylopic.org/image/61932f57-1fd2-49d9-bb86-042d6005581a</dc:source><dc:creator>Steven Traver</dc:creator><dc:license>http://creativecommons.org/publicdomain/zero/1.0/</dc:license></metadata><g fill-rule="evenodd"><path d="M49 0C21.669-.901-2.185 5.349 2 38c2.382 18.586 18.976 32.262 31 44 3.099 3.025 7.923 5.021 10 8 3.179 4.561 3.516 10.366 6 14 23.228 33.972 91.886 24.638 124 48 12.159 8.846 17.617 23.158 24 36 9.251 12.21 19.718 21.987 31 33 3.767 3.677 5.515 9.177 9 12 4.421 3.581 10.69 4.128 15 8 5.425 4.875 9.154 11.803 15 17 2.677 2.379 6.439 4.219 9 7 2.465 2.676 3.25 6.763 6 9 2.916 2.371 7.626 3.648 11 6 3.233 2.254 5.977 4.703 9 7 6.153 4.677 11.011 11.504 17 16 2.274 1.708 5.859 1.565 8 3 12.906 8.646 26.32 23.869 42 32-7.203 7.644-28.996 27.892-43 17-6.16-4.791-24.99-14.013-28 0-3.684 17.151 15.672 23.809 32 24 14.93 19.525 42.669 4.406 66 12 14.324-7.108 17.342-18.615 40-17 10.25.73 18.935 8.184 31 12 7.984 2.525 17.6 2.871 26 5 13.837 3.507 21.955 10.058 38 8 12.643 6.755 26.928 6.346 44 10 12.429 2.661 24.077 8.658 37 11 4.132.749 8.461-.544 13 0 4.912.589 10.292 3.478 15 4 20.125 2.234 42.914 0 64 0 31.424 0 67.57-5.139 79 16-9.81 10.982-.549 38.939-15 47 1.038 2.818 1.913 9.356 0 12 1.027 6.027-7.747 2.253-8 7 2.766 7.088 9.463 3.791 10 9 .884 8.564-9 6.172-9 15 0 7.913 3.754 4.359 10 11-5.413 20.75 9.114 30.216 13 45H0V0h49z" fill="#fff"/><path d="M49 0h7c15.699 4.625 31.774 7.953 46 16 34.659 19.605 72.203 57.137 123 46 5.586-1.225 9.687-5.944 15-7 8.529-1.695 19.662.987 31 1 9.061.01 19.099-1.681 26 1 3.476 1.35 5.447 5.11 9 7 5.146 2.738 12.877 2.905 20 5 5.964 1.754 11.445 5.44 17 7 24.955 7.008 51.125 13.634 72 22 16.334 6.546 44.664 6.572 49 23 28.006 7.383 50.04 15.372 78 12 32.152-3.877 63.783-19.518 97-21 15.204-.678 32.434-.614 48 0 6.93.273 13.689 3.161 21 4 24.57 2.819 51.886 2.173 75 6 13.947 2.309 27.87 10.453 42 13 7.337 1.323 14.689.701 21 3 11.924 4.344 24.924 12.313 34 20 2.87 2.431 4.804 6.61 8 9 2.627 1.965 6.376 2.049 9 4 12.327 9.166 19.011 24.87 32 34 7.878 5.537 18.076 7.709 27 12 8.284 9.049 16.431 18.236 27 25 31.961-.705 66.466 1.133 81-17 2.738-16.875 16.558-23.31 28-35 8.057-8.23 13.072-18.678 20-24 9.829-7.552 23.457-10.317 32-20 19.298-4.998 34.885-6.839 53 0 11.424 15.243 26.347 26.987 35 45 .543 18.543.325 36.325-5 49-7.756 13.956-25.848 17.504-35 30-6.925 9.454-6.771 25.762-22 27-1.666 1.334-.334 5.666-2 7-7.794 1.873-12.755 6.578-17 12-24.053 14.613-46.799 30.535-75 41 11.582-.16 34.124 6.057 46 3 19.369-4.985 29.863-52.603 63-49 3.731-6.474 14.645-8.724 26-6-.668 5.332-9.61 2.39-11 7-2.912 3.891 5.175 3.695 5 8-4.778 1.222-7.228 4.772-10 8 10.482 6.02 6.532 21.06 12 31 7.754-3.875 18.692-6.594 30-4-2.61 3.39-9.177 2.823-12 6-.96 4.04-2.04 7.96-3 12-7.44 2.227-14.244 5.089-18 11-.578 4.996 3.291 8.484 2 14-2.231 9.532-18.061 10.013-26 14 5.215 10.074-6.209 19.091-5 28-2.492.841-5.357 1.309-9 1v10c7.457 4.876 16.766 7.901 24 13-4.154 2.649-3.509 3.04-2 8-11.957-.378-22.546-6.766-32-5-18.212 3.4-10.371 25.212-13 44-5.461-.149-8.984-6.636-7-11-14.816-7.851-19.078-26.255-37-31-7.986 4.544-1.374 12.704 2 17-10.045 3.345-11.168-1.609-16-8-4.752-6.285-11.483-14.594-11-26-10.657-5.734-12.893-17.528-19-27-5.422-8.407-18.007-15.232-15-30-8.216-3.275-17.17-6.276-26-4-20.415 5.263-48.287 15.102-71 22-5.766 1.751-10.363 5.451-16 7-28.33 7.786-54.824 12.437-83 19 6.364 31.229-2.095 57.072-24 68-3.285 14.049-16.651 18.016-21 31-2.023 15.311 1.016 35.683-4 48h-11c-3.886-14.784-18.413-24.25-13-45-6.246-6.641-10-3.087-10-11 0-8.828 9.884-6.436 9-15-.537-5.209-7.234-1.912-10-9 .253-4.747 9.027-.973 8-7 1.913-2.644 1.038-9.182 0-12 14.451-8.061 5.19-36.018 15-47-11.43-21.139-47.576-16-79-16-21.086 0-43.875 2.234-64 0-4.708-.522-10.088-3.411-15-4-4.539-.544-8.868.749-13 0-12.923-2.342-24.571-8.339-37-11-17.072-3.654-31.357-3.245-44-10-16.045 2.058-24.163-4.493-38-8-8.4-2.129-18.016-2.475-26-5-12.065-3.816-20.75-11.27-31-12-22.658-1.615-25.676 9.892-40 17-23.331-7.594-51.07 7.525-66-12-16.328-.191-35.684-6.849-32-24 3.01-14.013 21.84-4.791 28 0 14.004 10.892 35.797-9.356 43-17-15.68-8.131-29.094-23.354-42-32-2.141-1.435-5.726-1.292-8-3-5.989-4.496-10.847-11.323-17-16-3.023-2.297-5.767-4.746-9-7-3.374-2.352-8.084-3.629-11-6-2.75-2.237-3.535-6.324-6-9-2.561-2.781-6.323-4.621-9-7-5.846-5.197-9.575-12.125-15-17-4.31-3.872-10.579-4.419-15-8-3.485-2.823-5.233-8.323-9-12-11.282-11.013-21.749-20.79-31-33-6.383-12.842-11.841-27.154-24-36-32.114-23.362-100.772-14.028-124-48-2.484-3.634-2.821-9.439-6-14-2.077-2.979-6.901-4.975-10-8C20.976 70.262 4.382 56.586 2 38-2.185 5.349 21.669-.901 49 0z"/><path d="M56 0h1182v586H795c5.016-12.317 1.977-32.689 4-48 4.349-12.984 17.715-16.951 21-31 21.905-10.928 30.364-36.771 24-68 28.176-6.563 54.67-11.214 83-19 5.637-1.549 10.234-5.249 16-7 22.713-6.898 50.585-16.737 71-22 8.83-2.276 17.784.725 26 4-3.007 14.768 9.578 21.593 15 30 6.107 9.472 8.343 21.266 19 27-.483 11.406 6.248 19.715 11 26 4.832 6.391 5.955 11.345 16 8-3.374-4.296-9.986-12.456-2-17 17.922 4.745 22.184 23.149 37 31-1.984 4.364 1.539 10.851 7 11 2.629-18.788-5.212-40.6 13-44 9.454-1.766 20.043 4.622 32 5-1.509-4.96-2.154-5.351 2-8-7.234-5.099-16.543-8.124-24-13v-10c3.643.309 6.508-.159 9-1-1.209-8.909 10.215-17.926 5-28 7.939-3.987 23.769-4.468 26-14 1.291-5.516-2.578-9.004-2-14 3.756-5.911 10.56-8.773 18-11 .96-4.04 2.04-7.96 3-12 2.823-3.177 9.39-2.61 12-6-11.308-2.594-22.246.125-30 4-5.468-9.94-1.518-24.98-12-31 2.772-3.228 5.222-6.778 10-8 .175-4.305-7.912-4.109-5-8 1.39-4.61 10.332-1.668 11-7-11.355-2.724-22.269-.474-26 6-33.137-3.603-43.631 44.015-63 49-11.876 3.057-34.418-3.16-46-3 28.201-10.465 50.947-26.387 75-41 4.245-5.422 9.206-10.127 17-12 1.666-1.334.334-5.666 2-7 15.229-1.238 15.075-17.546 22-27 9.152-12.496 27.244-16.044 35-30 5.325-12.675 5.543-30.457 5-49-8.653-18.013-23.576-29.757-35-45-18.115-6.839-33.702-4.998-53 0-8.543 9.683-22.171 12.448-32 20-6.928 5.322-11.943 15.77-20 24-11.442 11.69-25.262 18.125-28 35-14.534 18.133-49.039 16.295-81 17-10.569-6.764-18.716-15.951-27-25-8.924-4.291-19.122-6.463-27-12-12.989-9.13-19.673-24.834-32-34-2.624-1.951-6.373-2.035-9-4-3.196-2.39-5.13-6.569-8-9-9.076-7.687-22.076-15.656-34-20-6.311-2.299-13.663-1.677-21-3-14.13-2.547-28.053-10.691-42-13-23.114-3.827-50.43-3.181-75-6-7.311-.839-14.07-3.727-21-4-15.566-.614-32.796-.678-48 0-33.217 1.482-64.848 17.123-97 21-27.96 3.372-49.994-4.617-78-12-4.336-16.428-32.666-16.454-49-23-20.875-8.366-47.045-14.992-72-22-5.555-1.56-11.036-5.246-17-7-7.123-2.095-14.854-2.262-20-5-3.553-1.89-5.524-5.65-9-7-6.901-2.681-16.939-.99-26-1-11.338-.013-22.471-2.695-31-1-5.313 1.056-9.414 5.775-15 7-50.797 11.137-88.341-26.395-123-46C87.774 7.953 71.699 4.625 56 0z" fill="#fff"/></g></svg>