<svg xmlns="http://www.w3.org/2000/svg" xmlns:dc="http://dublincore.org/documents/dcmi-terms/" height="68.291" version="1.2" viewBox="0 0 36.311 68.291" width="36.311" overflow="inherit"><metadata><dc:description>Silhouette of Aurornis xui, processed by PhyloPic Tools (https://github.com/eweitz/phylopic-tools)</dc:description><dc:source>http://phylopic.org/image/b1cb08ee-062d-4101-b945-014e654f4316</dc:source><dc:creator>Gareth Monger</dc:creator><dc:license>http://creativecommons.org/licenses/by/3.0/</dc:license></metadata><path d="M4.625 0h1.968c1.614.256 2.69 1.049 3.936 1.673.831 1.334 2.177 2.153 3.641 2.854.955 1.152 2.162 2.551 2.263 4.231.891.191 1.582.583 2.066 1.181.972.029 2.057.417 2.854.984.458.325.789.925 1.279 1.377.499.462 1.094.659 1.377 1.083.232.347.254.834.492 1.181.171.249.505.355.688.59.925 1.181 1.264 3.341 2.066 4.723.028.258-.035.423-.295.394.835 1.139 1.06 2.42 1.378 3.838.332 1.479 1.19 2.826 1.574 4.428.272 1.136.61 2.271 1.279 3.149-.441.583.112 2.175.591 2.165-.206 1.516-.358 2.939.098 4.133.511 1.334 1.871 1.834 2.657 2.854.47.608 1.072 1.768.984 2.361-.244 1.636-4.109.728-5.412.492.714 2.014 1.692 4.034 2.558 6.101 1.276 3.048 2.608 5.964 3.642 9.447v.59c-.301.071-.358-.101-.591-.099.752 2.312-.565 3.68-.492 5.904-.572.232-.895-1.458-1.476-1.869.144 2.21-1.159 2.973-1.673 4.526h-.492c-.647-.812.277-2.24-.295-3.247-.553.42-.53 1.756-.591 2.361-.496.104-.348-.439-.59-.591-.584.28-.602.606-1.182.788-1.521.476-3.106-.863-3.641.59-1.571.1-1.953-1.69-2.46-2.952-.297-.739-.756-1.278-.688-2.066.14-1.636-.136-3.414-.394-5.313-.646-4.749-1.569-9.724-1.87-14.465-.074-.369.376-.215.394-.492.059-.944-.187-1.585-.492-2.165-.095.167-.271.253-.59.197-1.996-.923-3.31-2.529-5.019-3.739-.233.354.515.428.394.983-1.324-.25-1.978-1.171-2.854-1.869.083.736.944.695.886 1.574-.794-.283-.997-1.012-1.477-1.574-1.227-1.441-3.047-2.06-4.231-3.543-1.636-.451-2.624-1.688-3.346-3.346-.643-1.475-1.575-2.796-1.771-4.625-.124-1.148-.039-2.455-.099-3.641-.5-.973-.886-1.87-.689-3.149.074-.476.541-.924.59-1.377.08-.717-.28-1.448-.197-2.165.146-1.26.926-1.864 1.279-2.854-.786-.462-1.851-.131-2.652-.196V9.447c.382-.481.62-.749 1.083-1.279-.122-.272-.26-.527-.295-.886-.044-.372.193-.462.295-.689-.702-1.593.368-2.741.885-3.641.509-.886.724-1.655 1.181-1.968C3.684.618 4.41.665 4.625 0z" fill-rule="evenodd"/></svg>