<svg xmlns="http://www.w3.org/2000/svg" xmlns:dc="http://dublincore.org/documents/dcmi-terms/" height="494.826" version="1.2" viewBox="32.088 45.506 444.402 494.826" width="444.402" overflow="inherit"><metadata><dc:description>Silhouette of Otidiphabinae + Ptilinopinae, processed by PhyloPic Tools (https://github.com/eweitz/phylopic-tools)</dc:description><dc:source>http://phylopic.org/image/12929bbe-e83e-472b-83ef-00f5ef7c2b32</dc:source><dc:creator>L. Shyamal</dc:creator><dc:license>http://creativecommons.org/licenses/by-sa/3.0/</dc:license></metadata><path d="M62.208 101.624s-2.491-31.13 26.149-45.451c28.64-14.32 49.389-13.275 68.488-2.49 18.902 10.673 31.893 35.099 52.299 59.148 0 0 51.054 11.207 74.713 33.621 15.461 14.647 90.901 79.695 104.6 125.768 4.138 13.919 59.771 108.931 84.492 150.821 13.229 22.417-58.343-34.393-58.343-34.393l50.659 129.977s4.451 12.821 1.195 17.795c-5.783 8.836-22.818.799-26.597-5.404-27.839-45.701-36.158-66.593-67.177-95.048-18.354-16.837-40.537-20.136-64.548-29.669-41.043-16.296-95.418-22.659-127.636-41.933-19.158-11.459-35.517-27.801-49.187-45.45-25.802-33.325-49.531-82.739-56.658-115.806-2.601-13.032-2.137-26.996 1.245-39.848 2.386-9.067 13.075-24.904 13.075-24.904-3.884-8.135-7.377-15.443-16.188-17.433-3.649-.801-14.729-.88-14.729-.88l4.148-18.421z"/><path d="M66.169 104.708s-16.385 8.949-27.449 13.88c-5.401 2.407-6.632 15.495-6.632 15.495s7.037-6.373 11.196-8.695c11.532-6.437 37.066-13.914 37.066-13.914s-7.06-.98-9.93-2.571c-1.801-.998-4.251-4.195-4.251-4.195z"/><path d="M34.305 131.303s9.398-.557 15.891-3.519c8.702-3.97 26.954-10.168 26.954-10.168l1.727-5.619s-25.849 7.76-35.304 12.985c-3.751 2.072-9.268 6.321-9.268 6.321zM285.112 412.245l-17.182 6.205s-7.269 8.743-5.728 13.447c1.09 3.325 5.74 4.697 8.182 3.102 2.89-1.888.53-10.343.53-10.343l16.653-6.206 12.567 4.412-1.92 9.667s5.4 3.36 7.353.402c1.923-2.912 1.578-8.152 0-11.377-2.565-5.247-13.091-8.274-13.091-8.274s7.063-7.914 6.247-12.5c-.698-3.92-7.056-7.912-7.056-7.912.088 2.01-2.39 3.613-7.374 4.897l6.547 6.206-5.728 8.274z"/><path d="M262.422 426.49l3.305 5.308s-5.64 1.08-7.446 3.778c-2.395 3.577-3.4 14.821-3.4 14.821s-1.112-13.866 1.037-18.862c1.316-3.061 6.504-5.046 6.504-5.046zM304.456 429.25l-2.82 4.16s4.811.846 6.353 2.961c2.043 2.804 2.901 11.615 2.901 11.615s.947-10.866-.886-14.781c-1.123-2.4-5.548-3.954-5.548-3.954zM364.579 375.79c30.642 20.9 129.581 76.366 109.159 44.6l-28.992-45.1s-5.323 8.281-9.664 9.664c-12.195 3.885-70.503-9.164-70.503-9.164z"/></svg>