<svg xmlns="http://www.w3.org/2000/svg" width="726" height="473" viewBox="0 0 726 473"><path d="M136 0h4c21.631 10.25 42.721 4.033 68 1 3.173 2.303 2.546 3.204 8 2v3c12.743-3.309 25.091 1.475 36-1-1.2 1.313-.39 1.573 0 3 3.228-2.607 7.419 1.61 11-1 2.603 5.277 7.345 4.455 14 4 3.805 2.316 7.813 1.539 15 2 20.175 11.684 48.47 12.99 63 32 8.967 4.7 18.976 4.619 29 6 16.45 2.266 37.716 6.818 58 5 33.921-3.041 68.256-6.646 105-9 3.402-.218 6.002.711 9 1 28.59 2.75 50.18 19.915 81 38 12.723 13.341 30.066 24.506 44 38 9.795 9.485 15.209 19.65 20 35 .811 2.597.275 5.433 1 8 3.674 13.008 11.196 25.506 14 39 2.782 13.393 4.61 29.946 2 44-.832 4.479-4.561 8.673-4 13 .488 3.77 1.82-1.227 0 2-1.103 1.954 2.007 1.707 2 2-.029 1.318-1.807.331-2 1-2.444 8.478 5.863 28.155-2 36-2.262 14.624-4.467 36.154 7 49 .124.14 3.056 1.135 3 1 .441 1.063-2.028.753-2 1 .255 2.194 1.577 1.369 2 3 1.873 7.218-3.427 18.744 0 25-4.201 3.563-.491 9.001 0 14 1.851 18.819 3.334 43.589 0 58-6.968 1.032-8.284 7.716-11 13-11.821.037-27.722 4.153-40 1 .604-11.874 4.714-26.708 15-32 7.029-16.919 2.886-32.245-1-47-3.006.661-3.88 3.454-4 7-4.56-3.157-2.085-7.198-3-14-2.599 2.068-1.963 7.37-4 10-1.904-1.874-2.513-.109-5 0 .438-3.438-.395-5.604-1-8-2.175 3.491-4.485 6.848-5 12-5.082-.395 1.996-7.747-4-6 4.682-2.82 3.373-9.225 3-15-3.353 4.314-6.694 8.639-6 17-6.805-3.862-4.117-17.216-9-23-2.246.42-.027 5.306-2 6-2.187-.147-2.147-2.52-2-5-4.356 4.644-4.236 13.764-6 21-4.928-.399-.25-4.599-6-2-.026-3.974-4.518-3.482-4-8-2.508-.25-.853 4.01-2 5-1.082.934-2.169-1.508-3-1-4.143 2.531-5.061 9.983-8 15-11.501 9.166-16.405 24.928-25 37-3.6 12.89-3.561 28.931-13 33-6.844 2.95-16.181-1.742-27 2h-7c-.257-2.077-4.394-.273-5-2 5.654-31.661 40.931-50.848 36-90-5.299-.761 1.75 5.31-3 4-.665-2.141-4.516-5.45-5-2-1.483-.85-2.15-2.517-2-5-2.169-.169-.453 3.547-1 5-4.925-.144-.179-3.752-3-6-2.688 3.313.77 12.77-5 13-2.236-3.764-1.177-10.823-3-15-3.143 1.706 1.121 7.016-1 8-3.249-5.349-.223 4.228-5 3 .54-5.207-1.921-7.413-2-12-1.357.31-.829 2.504-1 4-1.898-6.576-3.002-11.161-7-18-4.766-1.099-1.376 5.957-5 6-4.718-1.282-5.344-6.656-9-9-2.906 3.624 1.402 8.56 0 14-3.11-3.126-1.689 3.386-2 6-2.815-2.249-2.093-11.173-5-16-1.486 1.514-1.611 4.389-2 7-1.23-.437-2.054-1.279-2-3-2.236.431-.405 4.929-1 7-1.85-.15-.613-3.387-2-4-1.325 3.911-3.541 9.17-2 13-7.966-2.701-8.941-12.393-12-20-.934.733-1.515 1.818-2 3-2.498-4.169-2.652-10.681-6-14-4.537 1.852.455 7.066-1 12-3.034.367-2.076-3.258-3-5-6.074 5.162-.147 10.015-7 14v-6c-.934.566-1.515 2.78-2 1-2.951 3.891-.278 7.192-3 11-2.256-.745-.391-5.609-1-8-3.821-.821-1.179 4.821-5 4-1.663-6.092-.781-12.212-6-16-3.75 3.917-6.245 9.089-6 17-2.102 2.608-3.899.852-6 2 3.566 4.437 1.133.476 0 6-7.589-1.342-7.03-12.581-12-19-1.047 1.258-3.124 7.113-3 1-1.948 1.719-2.155 5.178-2 9-4.208-6.498-.924-16.587-1-23-4.304 5.696-6.613 13.387-7 23-2.005-2.448-4.648-1.954-5 2-3.213.88-1.37-3.296-4-3-1.327 1.673-3.868 2.132-3 6-2.329-3.188-2.584-8.696-5-14-4.004 4.882-5.991 7.793-7 14-3.391-.276-.76-6.574-4-7-2.638-.305-2.579 2.088-3 4-3.943.276-.289-7.044-3-8-1.798 2.202-.874 7.126-2 10-6.767-6.089-8.094-12.066-8-24-3.816.867-11.175 6.813-14 12-1.38-1.953-1.4-5.267-4-6-1.146-4.146 2.104-3.896 2-7-8.863 4.769-21.133 10.724-28 22-1.059-4.476 1.742-5.312-1-10-2.696 2.54-4.08 8.631-4 11-1.952-1.48-4.956-5.611-5-9-4.144 2.189-2.981 9.686-8 11 1.036-2.631 1.197-6.137 1-10-2.502 3.498-4.362 7.638-7 11-1.656-1.011-1.086-4.247-2-6-4.799 5.09-11.803 2.103-13 10-1.017-.649-1.034-2.299-3-2-2.231.147 1.298 2.52 0 5-13.851 14.219-7.912 46.801-6 65-2.426 1.574-4.271 3.729-9 3-1.88 4.12-2.701 9.3-6 12-18.718-2.424-35.614 8.98-55 0 1.049-14.951 7.716-24.283 16-32 5.619-16.591 5.894-36.819 1-54-1.217 4.563-3.763-2.582-4 2-2.304-1.87-1.912-5.863-3-11-5.266-.914-5.995 11.325-14 11 1.569-9.354-2.612-21.301-4-31-.158 12.54.824 25.211-7 31-1.527-9.649-4.65-15.131-4-24-.916-5.417-7.3-5.367-6-13-2.756 1.244 1.268 9.268-4 8-.313-4.354-1.155-8.179-2-12-2.208.125-.425 4.242-1 6-1.71.044-2.59-.743-3-2-5.612 2.268-2.04 9.76-8 10-.698-4.365 2.887-4.446 3-8-.719-1.925-3.601 2.305-4 4-1.086-.247-.678-1.988-2-2-2.384 1.616-1.088 6.912-5 7-1.603-4.587 2.378-11.391 2-18-3.955 3.046-1.7 12.3-8 13 1.786-9.479 2.423-13.468 4-24-2.925-1.075-3.513-4.487-3-9-3.343.99-.84 7.826-3 10-4.5 1.167-1.08-5.587-6-4-.5-4.977.206-5.956-1-9-4.895 1.438-5.067 7.6-11 8 1.189-3.145 3.375-5.291 4-9-1.664.699-8.589 4.722-9 10-2.134.467-1.905-1.429-2-3-.28 1.502-5.519 2.992-3 4-1.187.515-6.128 2.204-5-2-3.316.351-1.569 5.764-2 9-3.11-.223-1.689-4.977-2-8-3.371 1.296-2.423 6.91-7 7-1.778-3.549-.224-4.625 0-8-2.016 1.984-5.976 2.024-6 6-3.613-2.29-2.082-3.779-3-8-2.323-2.654-2.677 2.654-5 0-.022-2.355 1.723-2.944 1-6-2.087 1.247-2.743 3.924-5 5-3.766-.234-4.234-3.766-8-4v-6c-2.246.42-.027 5.306-2 6-2.671.004-2.173-3.16-5-3 .491-4.491-.507-7.493-1-11-.89.443-1.789.878-2 2-2.153-2.847-3.032-6.968-4-11-1.757-.28-1.829 5.976-3 3-3.628-.518-.083-6.875-3-10-3.16-.493-.371 4.962-4 4 2.641-4.331-3.937-5.372-1-10-5.764-1.431-1.201 7.466-6 7-.733-6.025-.346-19.942-6-20-2.635-3.556-.31-5.855-3-9-1.357.31-.83 2.504-1 4-.897-10.223-10.133-15.975-10-30-18.01-6.826-30.8-16.273-30-36 .619-15.266 14.685-27.369 11-47-6.628-4.706-11.988-10.678-15-19v-2c7.511 2.155 11.84 7.494 19 10-4.313-10.424-3.9-22.215-7-32 6.702-18.218 15.485-29.648 19-52-6.979-8.201.634-23.388 3-30 3.386.469 8.235-1.162 13-3-1.026.396-2.35-.312-1-1 7.791-3.97 21.071-2.963 28-11 5.596 1.375 9.73-.285 14-3 2.203 1.464 4.295 3.039 8 3 1.555-3.555-3.396-.604-3-3 12.462.606 26.659-6.674 37-2 .355-2.645 5.096-.904 6-3z" fill-rule="evenodd"/></svg>