<svg xmlns="http://www.w3.org/2000/svg" xmlns:dc="http://dublincore.org/documents/dcmi-terms/" height="833.5" version="1.2" viewBox="0 0 1017.528 833.5" width="1017.528"><metadata><dc:description>Silhouette of Oviraptorosauria, processed by PhyloPic Tools (https://github.com/eweitz/phylopic-tools)</dc:description><dc:source>http://phylopic.org/image/cc21e6ac-bd88-4f0e-8acf-112a2ac89a41</dc:source><dc:creator>Conty</dc:creator><dc:license>http://creativecommons.org/licenses/by/3.0/</dc:license></metadata><path d="M1.975 141.25c-4.19 15-.05 29.54 5 42 13.58 8.93 33.49 2.18 45-4 3.11-1.67 7.5-2.36 10-4 3.57-2.34 5.62-7.65 10-10 8.55-4.58 19.53-4.66 28-8 4.56-1.8 7.36-6.61 12-8 4.74-1.42 18.13-3.19 27-4 29.56-2.71 37.11 27.12 48 49 1.72 3.46 4.7 6.17 6 9 1.53 3.34 1.7 9.15 3 12 3.29 7.19 10.11 12.59 12 20 2.92 11.45 1.79 23.62 6 36 1.17 3.44 5.34 6.9 7 11 4.53 11.22 6.49 25.32 13 39 6.19 13 9.84 26.58 15 38 1.8 3.99 6.14 7.46 6 10-.3 5.59-10.79 11.89-16 13-16.95 3.61-38.87 1-58 1-30.51 0-58.79-3.14-76 12v8c-12.2 21.83-58.41 25.17-55 60 .75 7.67 5.17 10.63 9 17-10.33 14.85-40.69 56.06-13 70-7.25-10.54.49-22.36 8-27 5.54 2.38 2.12 8.69 2 14-.42 18.01-1.78 44.84 0 65 1.43 16.22 9.11 48.24 21 26 4.19.14 4.46 4.2 10 3 2.94-3.06 3.51-8.49 5-13 4.53.02 6.89 3.33 11 1 3.34-3.66 3.3-10.7 4-17 2.25-1.75 7.52-.48 10-2 3.14-4.2 1.01-13.66 3-19 .89-4.03 7.5-3.04 10-6 1.68-1.99.98-6.83 3-10 2.83-4.43 7.83-5.14 9-8 1.56-3.8-1.11-8.29 0-12 1.23-4.11 6.48-5.55 8-10 2.55-7.46-2.02-11.41 1-19 6.38-.38 6.2 5.8 11 7 15.51 2.18 22.35-4.32 32-8 4.75 7.44 1.55 17.77 2 28 .93 21.14 4.97 37.08 9 52 1.78 6.58.4 16.42 9 17 3.03-4.31 3.23-11.43 4-18 6.91 8.42 4.68 25.98 20 26 3.15-4.02 2.4-15.56 1-21 3.87-2.17 6.09 5.88 13 4 7.47-10.31-2.12-23.7-1-37 2.03 1.09 8.25 10.46 15 7 3.29-2.37 1.61-9.73 2-15 2.27-2.4 9.79.45 11-3v-14c1.29-4.04 7.88-2.78 10-6-1.81-10.81 1.54-16.46 8-19 .45-8.11-5.59-9.74-5-18 1.57-2.43 8.42.42 9-3 1.6-15.84 6.29-33.93-2-49 1.45-19.89 23.65-19.02 32-32 10.74-2.19 17.68 4.65 27 5 4.66.17 8.31-3.34 13-4 7.71-1.08 19.78.85 29-1 5.19-1.04 10.27-5.4 14-5 6.68.72 11.1 10.15 16 15 13.63 13.49 35.05 27.9 49 43-13.61 14.76-43.81 24.05-58 39-5.2 5.48-14.2 19.45-15 27-.44 4.16 2.29 7.59 3 13 1.06 8.06-1.97 17.45-1 23 .62 3.55 3.87 7.16 7 12 7.33 11.33 17.52 23.26 34 17-.72-10.39-18.18-13.2-11-25 6.11 13.37 39.28 19.97 41-2-5.09-3.91-17.64-.36-21-6 1.49-4.17 6.23-5.1 7-10-1.99-6.49-8.09-4.02-9-10-1.55-10.26 17.13-24.68 27-23 8.96-6.04 14.03-15.97 22-23 8.04 23.69 30.46 44.45 32 69 .25 4.05-2.11 8.71-2 13 .09 3.49 2.04 6.68 2 10-.15 11.44-5.81 24.62-9 36-6.93 24.66-13.55 49.37-26 66-8.91 11.89-37.17 24.49-25 43-3.8 8.87-7.23 18.1-15 23-37.38-7.64-52.78 13.6-55 36 8.73 1.06 11.32-10.49 20-10 6.09.34 11.41 10.31 19 11 10.8.99 14.88-5.16 27-7-8.16 8.26-27.97 24.67-19 44h9c2.01-16.61 17.43-10.81 29-17 5.04-2.69 6.7-9.33 12-16 4.34-5.45 9.08-7.09 11-12 1.48-3.78.44-8.59 2-13 2.77-7.85 10.82-14.01 13-21 2.06-6.6 1-15.17 2-24 4.3-38.05 20.68-74.59 36-103 5.54-10.28 12.78-16.99 16-26 5.97-16.71-.73-36.88 6-50-8.57-21.19-22.19-37.94-33-59-2.87-5.59-10.9-15.36-9-22 1.8-6.29 20.18-12.5 27-16 10.8-5.54 18.88-10.46 28-15 5.37-1.24 6.26 5.77 11 2 1.91-4.43 2.37-10.3 2-17 2.12-5.54 9.25-6.08 12-11-6.46-24.31-21.84-34.67-44-46-9.97-5.1-33.04-14.36-34-25-1.02-11.29 16.76-23.79 24-33 3.18-4.04 4.99-9.3 8-13 4.53-5.57 9.68-7.05 13-12 4-5.96 6.14-15.43 10-20 16.72-19.76 74.85-28.89 111-32 20.11-1.73 40.2-.37 59-4 5.98-1.15 10.97-4.24 17-5 4.1-.52 7.95.48 12 0 13.87-1.64 26.38-8.65 40-11 12.23-2.11 25.93 2.09 39 0 4.67-.75 8.49-3.87 12-4 6.68-.25 13.85 4.98 21 3 5.34-1.48 6.91-8.99 12-11 5.67-2.24 13.2.3 19-2 3.31-1.31 5.78-6.78 10-9 5.24-2.75 9.91-1.26 13-4 3.9-3.46 1.98-8.75 5-12 4.73-5.09 13.75-1.43 16-9 1.33-5.19-5.07-6.2-2-10 7.29-2.38 14.32-5.01 17-12-.5-5.17-7.04-4.3-7-10 3.86-5.14 12.42-5.58 13-14-1.68-4.98-10.42-2.91-11-9 4.55-6.12 14.94-6.39 15-17-3.44-7.44-14.23-1.77-23-3 3.04-16.56 30.54-18.43 23-39-11.82-2.56-19.81 6.67-32 7 3.16-19.73 25.64-34.25 16-57h-1c-12.86 9.8-23.29 22.04-36 32-4.82-.85-2.01-9.32-7-10-13.82 3.67-13.48 24.01-30 22-6.21 2.5-6.22 9.6-9 14-2.68 4.25-8.12 7.38-11 12-3.64 5.85-4.1 13.69-8 19-4.28 5.82-8.38 5.44-11 10-2.51 4.36-2.15 10.23-4 14-3.14 6.38-7.57 10.79-11 17-14.72 26.65-44.79 46.95-81 51-94.8 10.6-165.41-41.59-245-59-10.71-2.34-21.81-10.27-31-12-7.71-1.45-15.33.52-22-1-5.9-1.34-9.74-5.54-17-3-3.71-.62-5.86-2.81-9-4-24.22 1.57-43.7-.95-64 1-18.3 1.76-44.95 9.88-61 12-6.83.9-15.4 2.43-22 4-16.2 3.86-35.09 19.25-48 18-5.35-.52-14.69-7.69-19-12-12.12-12.12-17.33-35.36-27-47-3.17-3.81-12.27-9.97-18-14-7.01-4.93-14.51-11.34-20-13-10.37-3.14-17.88-.2-28-9-11.36-.72-23.27 2.91-32-2-6.32 2.65-13.48-1.41-22-1-10.86.52-19.97 11.01-33 15-3.53 1.08-7.09-.08-10 1-5.78 2.14-9.94 7.36-16 11-6.47 3.88-15.62 6.75-18 10-5.29 7.21-5.54 19.91-5 29-5.4 6.93-8.97 15.56-14 24-2.83 4.76-7.1 8.78-8 12zm60 333c-2.27-12.2 5.44-27.67 19-24-3.77 10.56-12.86 15.81-19 24zm96 39c-1.24-5.43-1.45-11.89-2-18 9.29-11.88 4.5-30.18 7-49 12.18-8.62 30.02 2.38 48-2-1.43 5.75-5.1 9.31-8 15-2.54 5-3.21 11.82-6 17-2.39 4.43-7.93 7.08-10 12-1.44 3.43-.46 8.56-2 12-3.871 8.67-15.85 13.31-27 13zm125-180h2c14.71 1.43 33.14-1.18 46 6 5.86 3.27 11.28 11.28 17 16 6.15 5.07 15.98 10.42 14 18-21.78 2.41-46.25-5.24-70-1-2.241-13.76-8.161-23.84-9-39zm210 442c-.91 6.44-9.5 10.48-14 10 4.79-2.71 7.46-12.3 14-10zm43-344c-.94-9.74-6.8-19.85-5-29 6.18 5.49 15.25 8.08 18 17-2.59 5.74-7.781 8.88-13 12z"/><path d="M80.975 450.25c-13.56-3.67-21.27 11.8-19 24 6.14-8.19 15.23-13.44 19-24zM155.975 495.25c.55 6.11.76 12.57 2 18 11.15.31 23.13-4.33 27-13 1.54-3.44.56-8.57 2-12 2.07-4.92 7.61-7.57 10-12 2.79-5.18 3.46-12 6-17 2.9-5.69 6.57-9.25 8-15-17.98 4.38-35.82-6.62-48 2-2.5 18.82 2.29 37.12-7 49zM284.975 333.25h-2c.84 15.16 6.76 25.24 9 39 23.75-4.24 48.22 3.41 70 1 1.98-7.58-7.85-12.93-14-18-5.72-4.72-11.14-12.73-17-16-12.86-7.18-31.29-4.57-46-6zM478.975 785.25c4.5.48 13.09-3.56 14-10-6.54-2.3-9.21 7.29-14 10zM530.975 402.25c-1.8 9.15 4.06 19.26 5 29 5.22-3.12 10.41-6.26 13-12-2.75-8.92-11.821-11.51-18-17z" fill="#fff"/></svg>