<svg xmlns="http://www.w3.org/2000/svg" xmlns:dc="http://dublincore.org/documents/dcmi-terms/" height="1052.362" width="744.094"><metadata><dc:description>Silhouette of Pachyrhinosaurus canadensis, processed by PhyloPic Tools (https://github.com/eweitz/phylopic-tools)</dc:description><dc:source>http://phylopic.org/image/86092b43-158f-4bde-a9cb-55cfb260088e</dc:source><dc:creator>Andrew A. Farke</dc:creator><dc:license>http://creativecommons.org/licenses/by/3.0/</dc:license></metadata><g stroke="#000"><path d="M167.377 241.687c3.444 1.107 3.167 4.916 4.088 7.777.922 2.862 1.75 5.43 1.363 9.148-.388 3.718-.653 8.257-3.64 12.666-2.986 4.409-9.081 7.558-13.66 12.877-4.58 5.32-10.003 14.441-13.694 18.9-3.69 4.458-4.406 5.77-8.356 7.736-3.95 1.966-10.406 3.378-14.624 3.705-4.218.327-8.35-1.332-10.144-1.787-1.793-.455-1.101.168-.048-.8 1.052-.968 4.085-3.194 6.128-4.79 2.043-1.597 4.474-3.136 6.129-4.79 1.654-1.655 2.79-3.436 3.705-5.044.913-1.608 1.683-2.953 1.73-4.52.046-1.568-.413-2.623-1.47-4.326-1.055-1.702-6.967-.206-4.765-5.728 2.202-5.523 13.54-19.225 16.248-23.07 2.708-3.845 4.529-4.693 6.83-6.439 2.301-1.746 9.366-8.734 11.482-9.132 2.116-.397 9.253-3.49 12.698-2.383z" stroke-width=".694"/><path d="M101.69 309.73c.117-1.309 1.378-2.977 2.721-4.724 1.344-1.747 2.784-3.713 5.514-5.476 2.73-1.763 8.216-2.817 10.954-4.186 2.738-1.37 3.89-2.315 5.62-3.543 1.73-1.23 1.73-1.098 4.762-3.794 3.03-2.696 9.13-10.46 12.96-12.849 3.829-2.388 5.372-1.63 8.34-2.898 2.969-1.267 6.73-3.861 9.38-4.795 2.65-.934 4.412-.631 6.193-1.288 1.78-.656 3.494-1.337 4.439-2.433.945-1.097 1.376-2.325 1.253-3.4-.123-1.076-1.289-1.719-1.575-2.4-.286-.68.108-3.05.323-4.939.215-1.889.585-4.557 1.04-6.371a28.252 28.252 0 0 1 1.54-4.51c.562-1.306 1.198-2.28 1.754-3.33.555-1.049.765-2.21 1.575-2.97.81-.76 1.217-1.182 3.007-1.36 1.79-.178 5.515 2.156 7.302 1.684 1.787-.472 1.952-1.422 2.65-2.434.697-1.012.763-2.748 1.396-3.508.633-.759.67-.607 1.826-1.145 1.155-.538 3.847-.363 5.226-1.682 1.38-1.318 1.673-4.117 2.077-5.583.404-1.466-.171-2.3.573-3.114.745-.815 2.65-.644 3.33-.93.68-.287 3.541-1.557 4.224-3.615.682-2.059-2.267-5.021-1.646-7.267.621-2.246 3.491-3.064 4.511-4.724 1.02-1.661 1.904-3.089 1.72-4.868-.186-1.78-2.51-2.86-2.9-4.762-.39-1.902.484-4.21.86-6.013.377-1.803 1.722-2.994 1.326-4.797-.396-1.802-3.47-2.786-3.937-4.654-.468-1.867 1.16-3.249 1.146-5.333-.014-2.084-.397-5.404-1.574-6.873-1.177-1.469-3.184-.307-3.83-1.826-.646-1.519 1.618-3.286 1.79-5.37.174-2.083.108-5.332-1.072-6.8-1.18-1.47-3.149-1.317-4.116-1.612-.968-.295-.94 1.09-1.611-.358s2.128-4.475 3.688-7.016c1.56-2.54 3.859-5.542 5.764-8.124 1.906-2.583 3.842-5.164 5.657-7.373 1.815-2.21 6.483-8.493 8.016-10.36 2.406-2.93-11.595 9.619-15.247 12.65-3.653 3.03-6.87 6.59-9.452 9.77-2.582 3.18-4.237 7.88-6.158 9.091-1.92 1.211-1.711.016-2.613.394-.901.377-2.119.988-2.577 1.932-.46.945.59 2.321.07 3.079-.52.757-1.187.254-2.29.823-1.104.569-2.759 1.31-4.117 2.863-1.359 1.552-2.223 4.583-3.366 6.55-1.144 1.966-1.756 2.788-3.437 5.261-1.682 2.474-4.526 6.951-6.731 9.52-2.206 2.57-3.46 3.013-6.23 6.014-2.77 3-7.53 9.197-10.06 12.24-2.53 3.044-2.882 4.154-5.084 6.049-2.202 1.895-5.921 4.09-8.126 4.974-2.205.885-4.842-1.365-6.049-.663-4.376 4.777-1.893 1.266-4.381 1.442-1.56.178-4.268 1.24-5.127.99-.86-.25-2.656 1.186-4.095.662-1.44-.523-2.8-1.282-4.152-1.36-1.354-.079-1.756-.413-3.688.75-1.93 1.165-3.513 5.165-4.808 7.235-1.295 2.07-4.014 3.614-5.057 5.348-1.043 1.733-1.303 3.443-2.773 5.17-1.47 1.728-3.51 2.596-4.815 4.141-1.305 1.545-2.335 3.492-3.026 5.094-.69 1.6-3.177 2.495-2.938 3.794.239 1.3-3.093 2.495-2.77 3.759.324 1.263-.314 2.665-.865 4.581-.552 1.917-4.685 5.527-5.752 7.92-1.067 2.394.048 8.521-.762 11.54-.81 3.017-3.054 5.343-3.535 8.412-.481 3.07 4.856 3.663 5.403 6.475.62 3.192 2.314 5.392 3.48 9.43 1.164 4.038 3.897 8.792 6.548 12.315 2.65 3.523 6.622 6.997 8.983 8.7 2.362 1.702 4.54 3.246 4.14 1.94-.926-3.018-.463-1.371-.644-2.297-.187-.952-.211-1.555-.095-2.865z" stroke-width=".493"/><path d="M282.762 300.045c-.396 9.694-.654 21.184-1.188 29.083-.533 7.899-.02 13.53-2.013 18.283-1.993 4.753-4.59 7.152-8.347 11.121-3.756 3.97-8.51 8.415-11.564 12.765-3.055 4.35-5.059 7.317-7.456 10.461-2.398 3.144-6.761 6.24-9.187 7.858-2.427 1.617-3.516 1.435-5.136 1.69-1.619.256-3.507.569-4.425-.18-.92-.75 3.75-1.944 1.974-1.82-1.744.122-4.851 2.039-7.536 2.211-.051.004-.103.006-.154.008-2.72.106-6.546-.563-8.168-1.6-1.622-1.037 1.12-2.192.761-3.135-.359-.943-2.698-.17-2.477-1.368.221-1.197.546-1.956 3.29-3.032 2.745-1.076 7.56-2.63 11.597-5.598 4.037-2.967 8.074-7.6 11.255-11.201 6.06-6.862 16.834-22.649 15.677-27.225-.854-3.378-8.882-20.196-12.115-28.993-3.234-8.798-4.843-15.82-7.264-23.729" stroke-width=".801"/><path d="M272.086 246.123s12.666 18.642 18.181 28.344c5.515 9.702 11.343 21.885 14.879 29.773 3.535 7.889 5.69 12.835 6.88 17.262 1.19 4.428 1.444 4.15 1.297 8.832-.146 4.682-2.722 13.643-3.968 18.763-1.245 5.12-2.818 8.696-3.303 11.99-.486 3.294-.43 5.382-.18 7.54.25 2.157 1.218 3.524 1.382 5.312.164 1.789-.441 3.669-.377 5.272.063 1.602.76 3.174.652 4.29-.11 1.115-.333 1.513-.808 2.243-.476.73-1.403 1.645-2.059 1.963-.656.318-1.092.19-1.513.215-.422.025-.457.05-1.006-.024-.549-.073-1.82-.08-2.25-.557-.43-.475.365-1.183-.215-1.513-.58-.33-1.423.48-2.285.95-.863.472-1.707 1.369-2.813 1.945-1.105.577-2.755 1.301-3.805 1.418-1.05.117-1.761.444-2.256-.305-.494-.75 1.87-2.404.826-2.998-1.043-.593-1.815 2.27-2.836 2.95-1.02.68-1.565.892-3.046 1.184-1.48.293-4.025.164-5.785.114-1.761-.05-3.847-.32-4.769-.366-.922-.046-.503.332-.754-.018-.251-.35.243-1.33.545-1.747.301-.416 1.024-.369 1.023-.73-.002-.36-.28-.368-.742-.52-.462-.152-1.561.935-2.01-.048-.45-.983 1.572-2.313 2.848-3.452 1.276-1.139 2.985-2.017 4.852-3.153 1.868-1.136 4.556-1.775 6.373-3.62 1.817-1.845 3.152-4.776 3.943-7.197.792-2.422.911-2.195.922-7.019.01-4.823-2.19-16.684-2.751-21.689-.56-5.005 1.372-4.613-.807-8.317-2.18-3.704-10.02-6.901-14.348-9.897-4.328-2.995-7.914-5.511-11.625-8.072-3.71-2.56-6.7-3.942-10.637-7.294-3.938-3.352-8.45-8.21-12.51-13.122-4.06-4.913-11.679-16.371-11.679-16.371M453.998 232.36s-13.668 28.968-20.731 39.305c-7.063 10.338-19.744 16.936-20.081 23.2-.337 6.263 1.887 2.462 3.96 5.715 2.071 3.253 4.772 7.209 8.16 13.982s9.93 20.241 11.373 26.948c1.442 6.707.174 8.104.288 11.907.115 3.802.263 7.65.392 10.906.129 3.256.41 5.891.374 8.63-.038 2.74-.206 5.616-.55 7.777-.343 2.161-.025 3.576-1.291 5.174-1.267 1.598-4.548 3.49-6.138 3.158-1.59-.333-1.335-1.18-1.794-2.207-.459-1.026 1.025-3.69-.613-3.854-1.638-.165-.729 4.228-2.094 5.597-1.364 1.368-3.556 1.536-5.258 1.984-1.702.449-3.43.675-4.88.76-1.45.087-3.005.482-3.776-.136-.771-.618.215-1.563-.544-2.078-.76-.514-2.175.525-3.328.415-1.154-.11-3.063.43-3.423-1.11-.36-1.54 2.761-3.139 4.214-4.115 1.454-.976 2.36-.808 4.233-1.838 1.873-1.03 5.014-2.833 6.793-4.606 1.778-1.773 2.928-4.062 3.869-5.666.94-1.604 1.444-1.383 1.913-3.846.468-2.463.242-7.839-.918-10.708-1.16-2.869-2.177-2.382-4.934-6.068-2.756-3.686-5.676-8.29-11.205-16.317-5.529-8.028-16.963-24.28-21.988-31.833-5.024-7.554-4.898-4.678-8.488-13.258-3.59-8.58-4.356-21.414-8.86-39.071-4.502-17.657-18.903-66.64-18.903-66.64"/><path d="M447.47 225.382s-23.816 30.092-33.634 39.68c-9.817 9.586-17.335 15.24-23.587 19.048-6.252 3.81-10.394 2.32-12.451 5.486-2.057 3.168.647 4.517.035 9.053-.612 4.536-3.742 12.049-4.949 17.734-1.207 5.686-1.304 10.982-2.4 16.286-1.096 5.304-3.31 10.666-4.141 15.49-.833 4.826-.36 9.62-1.072 13.301-.713 3.681-.833 8.041-2.723 8.736-1.89.694-1.181-2.225-2.477-1.568-1.296.658.065 3.787-.39 5.774-.454 1.987-1.416 4.234-2.405 5.977-.989 1.743-1.685 2.934-3.375 4.445-1.69 1.512-4.656 3.373-6.887 4.11-2.231.738-3.609.302-6.049.61-2.44.309-6.68 1.773-8.58 1.304-1.9-.469-2.284-1.203-2.47-1.819-.188-.616.678-.105.268-.748-.41-.642-2.582-.364-3.763-.34-1.18.022-2.219.456-3.279.424-1.06-.033-2.74.816-3.003-.575-.265-1.391 2.438-1.64 4.595-2.907 2.157-1.268 5.73-3.046 8.407-4.577 2.676-1.531 5.305-2.625 7.652-4.595 2.348-1.97 4.59-3.9 6.205-7.143 1.616-3.243 2.216-8.045 2.55-12.009.334-3.963.15-3.954-.478-11.577-.628-7.623-2.94-24.084-4.216-34.045-1.277-9.962-2.527-15.396-3.41-25.728-.881-10.333-1.575-19.8-1.397-36.241.177-16.44 3.749-62.268 3.749-62.268"/><path d="M637.867 309.615c3.822-1.272-5.023-4.675-9.958-7.094-4.935-2.42-12.19-3.002-20.589-5.378-8.4-2.377-19.2-5.388-29.706-8.85-10.507-3.464-20.364-7.79-31.95-13.791-11.588-6.001-27.932-15.004-37.448-22.15-9.516-7.146-10.466-12.015-19.135-20.342-8.67-8.327-22.876-21.669-32.84-29.582-9.963-7.914-14.925-12.207-26.792-17.782-11.867-5.575-31.59-12.394-43.936-15.448-12.346-3.055-18.075-2.374-29.682-2.766-11.608-.391-25.656-1.19-39.885.42-14.229 1.61-33.25 5.34-45.158 9.207-11.907 3.867-18.836 9.112-25.647 13.788-6.81 4.675-8.816 10.024-14.892 14.044-6.076 4.02-14.403 6.855-21.12 9.78-6.718 2.927-10.967 5.444-19.174 7.771-8.207 2.327-23.451 4.218-29.894 6.144-6.444 1.925-6.61 1.977-8.355 5.286-1.744 3.308-.726 8.323-.927 12.32-.2 3.996-.52 8.417-.278 11.65.242 3.233.513 4.557 1.718 7.583 1.205 3.027-3.973 9.953-.907 12.691 3.065 2.738 6.508 3.706 12.565 3.805 6.056.1 15.066-.316 20.227.036 5.16.352 11.898.512 16.43 1.078 4.533.566 6.69.598 10.705 2.313 4.015 1.714 7.39 3.71 13.104 7.855 5.715 4.144 15.12 13.232 21.115 16.96 5.996 3.728 5.098 5.038 14.435 5.145 9.337.106 24.12 5.15 34.094 3.556 9.974-1.594 14.092.114 21.54-.857 7.448-.972 19.65-1.473 27.899-2.077 8.249-.604 13.616-.93 20.94-2.243 7.323-1.314 13.05-3.344 21.006-4.984 7.956-1.64 23.237-5.73 29.278-6.844 6.04-1.113 6.454-8.93 10.4-11.408 3.945-2.479 7.883-10.87 14.86-12.674 6.976-1.803 15.88 1.061 23.988 2.63 8.107 1.569 15.925 3.572 24.523 6.756 8.598 3.185 17.653 9.319 26.923 12.3 9.27 2.98 19.527 3.894 28.35 5.476 8.825 1.582 17.64 3.163 24.59 4.015 6.948.853 11.477.846 17.063 1.093 5.586.248 10.955.49 16.447.393 5.491-.098 9.675.267 13.707.363 4.032.096 7.046.017 10.33.21 3.284.194 8.213.874 12.036-.398z" stroke-width=".834"/><path d="M125.77 302.33l.123-3.7-1.12-2.752-3.091-1.9-5.865-8.96 8.01-1.531 13.777 8.158z" stroke-width=".973"/></g></svg>