<svg xmlns="http://www.w3.org/2000/svg" xmlns:dc="http://dublincore.org/documents/dcmi-terms/" height="530" version="1.2" viewBox="0 0 722 530" width="722" overflow="inherit"><metadata><dc:description>Silhouette of Paguroidea, processed by PhyloPic Tools (https://github.com/eweitz/phylopic-tools)</dc:description><dc:source>http://phylopic.org/image/6b0a5129-4184-46ca-a7b8-e38838e12194</dc:source><dc:creator>Ekaterina Kopeykina (vectorized by T. Michael Keesey)</dc:creator><dc:license>http://creativecommons.org/licenses/by-nc-sa/3.0/</dc:license></metadata><path d="M291 530h-13c-7.901-1.766-15.399-3.934-22-7-1.563-11.649-16.62-15.578-19-27-2.458-11.792 5.209-20.036 5-34-2.994-3.97-.836-3.775-1-8-.133-3.426-3.287-7.061-3-11 .56-7.681 8.976-21.64 14-31 15.625-29.111 35.163-62.2 51-85-50.109 40.174-121.908 63.037-195 77-17.334 20.956-27.051 61.129-22 95-4.544-3.343-5.386-10.857-6-16-3.125-26.19 2.552-56.077 8-76-22.677-.646-46.739 6.128-66 0-.868-5.837 6.533-2.872 9-3 19.718-1.023 37.056-3.246 57-5 2.902-2.574.98-4.771 1-9 9.195-7.99 17.843-17.417 27-27 15.65-16.378 30.338-35.389 39-53-42.491-15.562-83.971-37.29-115-61-5.911 1.071-15.644-.919-23 1 3.284-13.589 23.169-9.333 35-10 17.278 11.47 29.507 16.162 50 23 10.834-3.141 20.77.367 31 5-5.084-8.916-5.339-12.581-10-23-.275-.614-2.65-.844-3-2-3.301-10.911.958-22.975-3-35-2.665-8.095-19.188-19.612-26-30-10.877-16.586-22.912-33.264-18-56-2.169-1.498-5.629-1.705-9-2-10.881-17.453-21.38-35.287-28-57-10.328-7.005-15.679-18.987-19-33C8.668 25.999 5.514 16.82 0 10V8c12.324-7.097 34.05.268 46-8 12.612.721 24.863 1.804 31 9 9.274-2.923 22.372-2.017 33-1 6.838 1.389 8.434 10.673 17 12 2.427.376 6.472-2.112 11-3 17.33-3.399 32.756 1.068 44 6 19.949-10.226 56.288-12.06 78 0 7.399 4.11 13.838 14.857 23 16 5.438.678 10.715-2.704 16-3 3.583-.201 7.104 1.292 11 1 7.143-.536 14.074-4.221 21-4 8.373.267 20.193 4.864 30 8 39.151 12.521 65.379 40.646 90 65 16.489 28.923 29.535 55.603 32 99 5.432 10.229 26.494 16.836 30 30 2.988 11.22-4.797 18.646-15 24-4.674 2.326-13.708.292-13 8-1.587 4.281 10.79 3.189 14 6 17.444-6.89 26.158-22.509 45-28-.206-16.729 8.669-20.005 16-32 4.188-6.852 6.629-15.72 10-21 3.207-5.022 8.772-7.827 10-13 .801-3.376 1.125-20.203 1-24-.762-23.092-8.333-48.754-12-68 13.869 23.528 28.768 54.109 26 89-2.205 27.793-24.21 46.51-30 69-16.834 19.19-40.09 46.992-68 53-13.224 2.847-33.77-3.392-44 8 16.119 16.881 31.849 34.151 56 43 21.499 4.501 40.068 11.932 57 21 13.777-.775 24.623 6.835 38 8 22.452 1.956 45.131-1.549 63-6-11.843 19.773-45.711 18.411-71 22 41 5.041 84 7.895 126 7-68.922 9.605-143.866-.402-202-20-28.088-4.805-56.025-23.142-82-30 6.062 10.487 9.02 23.484 17 36 2.601 4.079 7.498 7.249 10 12 19.506 37.047 15.526 109.407-23 120 3.962-7.57 7.741-17.822 5-28-1.723-6.398-7.239-7.962-12-14-9.467-12.008-9.145-24.217-12-42-1.178-7.332-6.383-14.843-8-23-5.763-29.07-14.899-54.214-23-76-11.649 8.921-31.628 1.844-48 2-3.566 13.055-8.412 26.308-13 40-3.933 11.734-5.766 19.144-9 31-1.335 4.894-5.786 9.361-6 13-.515 8.73 6.353 16.97 9 25 12.87-.248 29.298-7.043 36 3-15.659 2.341-27.467 8.532-34 20 10.072 10.164 17.055-6.772 23-10 2.981-1.618 5.603-.306 8-2 6.893-4.872 11.664-14.012 19-14-1.81 14.902-12.151 31.066-19 41-2.646 3.838-3.64 8.474-6 11-1.949 2.087-5.66 3.484-8 6-13.943 14.992-27.603 26.858-53 28zm-27-212c-12.224 6.242-32.684 4.431-49 7-16.246 2.558-32.049 9.727-45 10-4.451 4.786-5.179 10.928-12 15-6.083 18.584-22.291 27.043-32 42 31.716-2.963 60.252-13.226 89-21 6.861-5.874 19.733-10.841 28-12 17.057-15.943 43.563-22.438 58-41-10.748-6.991-24.027 2.753-37 0zm179 22c4.234-9.156-7.889-11.847-15-8 2.147 3.186 2.77 7.897 5 11 13.791 1.213 22.448 12.88 34 13-7.236-6.097-18.804-7.863-24-16zm117 46c-21.875-8.459-44.935-15.732-70-21 19.673 9.994 45.021 19.645 70 21z" fill-rule="evenodd"/></svg>