<svg xmlns="http://www.w3.org/2000/svg" xmlns:dc="http://dublincore.org/documents/dcmi-terms/" height="185.04" version="1.2" viewBox="0 0 245.198 185.04" width="245.198" overflow="inherit"><metadata><dc:description>Silhouette of Palaeognathae, processed by PhyloPic Tools (https://github.com/eweitz/phylopic-tools)</dc:description><dc:source>http://phylopic.org/image/446debec-ca63-4882-801f-beaf479887d5</dc:source><dc:creator>Darren Naish (vectorize by T. Michael Keesey)</dc:creator><dc:license>http://creativecommons.org/licenses/by/3.0/</dc:license></metadata><path d="M38.159 0H36C25.957 1.718 20.165 7.686 14.399 13.68 6.515 15.438 2.135 20.121 0 26.28v.36c.403.076.56.399.72.72 5.88-2.761 14.872-9.977 22.68-7.2 1.442.513 4.683 3.29 6.84 5.04 7.156 5.804 9.72 11.868 12.24 21.96 1.739 6.961 3.284 14.45 7.56 19.8 2.437 3.049 6.196 5.549 8.641 9.36 2.09 3.26 2.966 7.401 4.68 10.8 4.736 9.392 12.853 20.463 20.16 26.28 1.814 1.444 4.76 2.296 6.12 3.601.626.6.744 1.745 1.44 2.52 1.095 1.219 4.235 2.938 5.76 3.96 6.031 4.045 11.514 8.973 20.52 9 3.839 4.921 14.52 3.001 19.08 7.2-1.971 2.03-5.162 1.871-8.279 2.16-3.545.328-6.777 1.764-10.081 2.16-2.037.243-4.101-.156-5.76 0-13.627 1.28-20.753 8.838-21.96 20.88-.401 4.004.351 6.032 2.521 8.64.741-2.019.044-5.476 1.079-7.2 2.11 1.37 1.736 5.225 4.681 5.76-.31-2.22-1.112-4.297 0-6.12 1.308 1.453.725 4.796 3.96 4.32-.108-1.571-.903-2.456-1.44-3.6 2.21-.911 2.307-3.935 4.32-5.04.216-2.136-.632-3.208-.36-5.4 1.934-1.701 5.122-2.369 8.641-2.88 11.298-1.639 25.205-.723 33.119-5.76.826-.974.804-2.797 1.801-3.6.883 4.633 3.079 11.854 3.96 16.92 1.751 10.065-11.007 10.611-19.08 10.439-1.318.707-.528 1.179-2.16.36-1.962 2.118-6.508 1.651-6.479 5.76 2.537-2.128 7.194-3.047 9.359 0 3.611-2.127 5.513-.808 9.36-.72-2.398 2.927-10.964 1.07-8.64 8.279h.72c3.128-4.253 9.578-2.682 12.96-6.119.381-4.3 5.076-4.284 6.84-7.2 2.069 4.771 7.48 6.199 13.32 7.2-.198-4.833-6.792-4.485-9-8.28 2.326-.421 2.48-2.834 2.52-4.32.123-4.744-4.225-10.729-4.68-18-.297-4.738.555-9.204-.36-11.88-.349-1.021-2.909-2.617-1.8-3.6 2.941-.414 5.997-1.413 6.84-2.881 9.342-1.01 16.002-3.465 23.76-5.399 1.559-.002.399-2.721 1.801-2.88 1.837.26 9.898.846 10.8-1.8 2.634.372 9.961-.602 12.96 1.439 1.348-.331 1.893-1.467 3.24-1.8-.125 2.196 3.275 2.092 3.959 2.52 2.386 1.494 5.043 6.033 6.48 1.08 2.351 1.37 3.872 3.568 6.84 4.32 1.884-.757 3.328-1.951 5.04-2.88 1.737 1.672 4.889 1.605 7.2 1.44 1.687-2.205.217-6.412-1.08-7.921.955-1.396.824-1.411.721-3.239-.301-5.262-4.264-12.003-6.841-16.92-8.534-16.281-18.519-29.155-32.76-38.521-9.659-6.353-21.94-9.755-34.2-13.32-6.126-1.781-12.527-3.412-18.72-5.04-6.525-1.716-12.919-3.887-18.72-5.04-14.425-2.867-33.459-3.528-47.521-.72-5.523 1.103-12.785 4.21-18.72 4.32-1.339-1.289-3.3-1.295-4.68-2.52-6.19-5.495-4.085-15.856-7.2-24.48C52.228 5.701 46.56.416 38.159 0z" fill-rule="evenodd"/></svg>