<svg xmlns="http://www.w3.org/2000/svg" xmlns:dc="http://dublincore.org/documents/dcmi-terms/" height="306.4" version="1.2" viewBox="0 0 308.5 306.4" width="308.5" overflow="inherit"><metadata><dc:description>Silhouette of Pan troglodytes, processed by PhyloPic Tools (https://github.com/eweitz/phylopic-tools)</dc:description><dc:source>http://phylopic.org/image/2f7da8c8-897a-445e-b003-b3955ad08850</dc:source><dc:creator>T. Michael Keesey (vectorization) and Tony Hisgett (photography)</dc:creator><dc:license>http://creativecommons.org/licenses/by/3.0/</dc:license></metadata><path d="M69.6 16.475a579.742 579.742 0 0 0 3.85-2.1c.272-.448.689-.856 1.25-1.225 1.967-1 3.851-2.05 5.65-3.15.565-.348 1.19-.698 1.875-1.05.144-.127.269-.244.375-.35h.15c.033.033.066.033.1 0v.025l.25-.125c.4-.511.6-.844.6-1a1.75 1.75 0 0 0-.024-.35 2 2 0 0 1 .175.05.323.323 0 0 1 .175.15c.05-.25.075-.516.075-.8a2.57 2.57 0 0 0-.05-.5c-.033-.066-.017-.133.05-.2.2.133.4.517.6 1.15.019.063.036.13.051.2.42-.592.778-1.142 1.074-1.65l-.076-.05c.125-.049.241-.083.35-.1.013-.346.063-.563.15-.65.494.13.877.547 1.149 1.25.07-.096.138-.188.2-.275.003-.256.036-.448.1-.575l.075-.075A.19.19 0 0 1 87.75 5c0-.367.116-.667.35-.9.1.066.417.483.95 1.25.188-.36.371-.727.55-1.1.259.229.459.454.6.675.019-.059.035-.117.051-.175.343 0 .543.242.6.725.099-.014.198-.031.3-.05-.359-.824-.576-1.299-.651-1.425.551-.13 1.168.295 1.85 1.275.171-.017.337-.025.5-.025h.025c-.07-.187-.079-.32-.025-.4.176.122.317.263.425.425.201.018.41.035.625.05a6.613 6.613 0 0 0-1.05-.825c.066-.1.217-.167.45-.2l.3-.05c.569.297 1.077.68 1.525 1.15l1.8.075c-.217-.55-.325-.958-.325-1.225 0-.233.017-.35.05-.35l.1.1c.256.064.682.531 1.274 1.4.154-.094.396-.244.726-.45.466-.3.833-.45 1.1-.45h.075a6.555 6.555 0 0 1-.075-.9c.383.448.699.881.95 1.3.088.074.171.157.25.25.247.247 1.005.414 2.274.5.622-.701 1.047-1.084 1.275-1.15 0-.067.017-.1.05-.1s.05.117.05.35c0 .158-.158.475-.475.95.197.011.406.02.625.025.189-.263.356-.488.5-.675.667-.833 1.25-1.267 1.75-1.3l.15.35c-.066.098-.407.648-1.025 1.65h.075c.7 0 1.417-.008 2.149-.025l.4-.475c.8-.9 1.667-1.4 2.6-1.5-.42.448-.836 1.082-1.25 1.9a71.17 71.17 0 0 0 1.926-.1c.165-.069.341-.136.524-.2 2.167-.767 3.4-1.517 3.7-2.25.2.033.316.066.35.1.101.1.15.283.15.55 0 .398-.366.89-1.1 1.475a82.53 82.53 0 0 1 1.05-.125c.414-.174.864-.357 1.35-.55 1.566-.633 2.517-1.233 2.851-1.8.399 0 .6.25.6.75 0 .125-.467.517-1.4 1.175a63.741 63.741 0 0 0 1.65-.225c.207-.119.424-.235.65-.35 1.732-.9 2.85-1.434 3.35-1.6v.25c-.215.321-.623.721-1.225 1.2.199-.118.407-.235.625-.35 1.956-1.061 3.397-1.428 4.324-1.1a86.512 86.512 0 0 0 3.775-2v.35c-.06.059-.885.701-2.475 1.925 1.058-.268 1.883-.526 2.475-.775h.025c1.521-.698 2.896-.999 4.125-.9v.15c-.125.046-.524.263-1.2.65h.05c1.812-.318 4.246-.301 7.3.05 2.421-1.08 4.071-1.73 4.95-1.95l.1.25c-.307.487-1.249 1.187-2.824 2.1.061.012.119.021.175.025.354-.127.72-.252 1.1-.375 1.9-.6 3.417-.983 4.55-1.15l-.1.4c-.57.305-1.112.588-1.625.85a28.94 28.94 0 0 1 1.924.125c1.387-.477 2.253-.802 2.6-.975-.147.351-.397.701-.75 1.05.118.018.235.035.35.05a.556.556 0 0 0 .1 0c.316-.139.616-.255.9-.35v.25c-.039.074-.08.148-.125.225.638.125 1.18.317 1.625.575V2.9c.065 0 .148.083.25.25.089-.17.172-.336.25-.5l.15.1a2.658 2.658 0 0 1-.226.7c.117.103.251.228.4.375.351.063.7.13 1.05.2 1.195.038 2.254.246 3.175.625.832-.03 1.773-.039 2.825-.025.209-.108.4-.25.575-.425.2-.2.384-.1.55.3a4.22 4.22 0 0 0-.35.125l.85.025c.316-.053.884.031 1.7.25h2.45l.253.1c-.4.267-.551.5-.45.7.2.118.3.218.3.3 0 .17-.017.287-.05.35 1.339.007 2.122.073 2.35.2-.1.233-.066.383.101.45-.2-.033-.816-.05-1.851-.05-.611 0-1.054-.017-1.325-.05l-.6.025c1.712.425 3.67.783 5.875 1.075-.733-.167-.834-.217-.3-.15.233.033.466.167.7.4-.363.14-.805.223-1.325.25 1.475.434 2.667.868 3.575 1.3a71.61 71.61 0 0 0 6.1 3.45c6.8 3.367 11.8 5.983 15 7.85 5.204 2.97 8.429 5.303 9.675 7 .188.064.38.131.575.2 8.859 3.098 16.893 6.606 24.1 10.525 1.514.097 3.113.155 4.801.175v.5l-.65.1a162.203 162.203 0 0 1-3.025-.15c.096.05.187.1.275.15 1.32.107 2.387.258 3.2.45 2.866.7 5.183 1.133 6.95 1.3v.15c-.434.167-1.268.25-2.5.25-.033 0-2.101-.35-6.2-1.05a5.487 5.487 0 0 0-.351-.05c1.255.309 2.48.65 3.676 1.025 2.614.526 4.656.918 6.125 1.175 0 .167-.467.25-1.4.25-.131 0-.563-.075-1.3-.225a55.983 55.983 0 0 1 5 2.225c.686.087 1.252.087 1.7 0 0 .156-.408.239-1.226.25.427.229.851.463 1.275.7 2.966 1.667 6.017 3.767 9.149 6.3 3.334 2.933 5.801 5.066 7.4 6.4 1.566 1.3 3.066 3.417 4.5 6.35.3.633 1.05 1.55 2.25 2.75 1.434 1.433 2.517 2.65 3.25 3.65 2.6 3.567 4.133 5.783 4.6 6.65 1.101 2 1.65 4.117 1.65 6.35v.15c.34.499.64 1.182.9 2.05.166.633.5 2.566 1 5.8.232 1.5.633 3.367 1.199 5.6.301 1.233.768 3.033 1.4 5.4V115c.166.433.383 1.4.65 2.9.232 1.466.35 2.483.35 3.05 0 2.133-.4 4.7-1.2 7.7-1 3.633-1.6 6.333-1.8 8.1-.233 1.667-.566 4.333-1 8-.5 3.167-1.084 5.8-1.75 7.9-.885 2.654-2.01 6.471-3.375 11.449.916-.343 1.508-.576 1.775-.699v.1c-.156.17-.781.495-1.875.975-.146.51-.295 1.026-.45 1.551.716-.177 1.075-.352 1.075-.525l-.125-.175c.156.071.481.13.975.175-.319.339-1.003.664-2.05.975-.106.405-.214.813-.325 1.226.811-.111 1.352-.128 1.625-.05-.303.285-.911.552-1.825.8a2.83 2.83 0 0 0-.024.1c-.22.589-.453 1.164-.7 1.726a6.669 6.669 0 0 0 3.2-1.275l-.15-.35c.267.1.4.3.4.6-.65.719-1.892 1.269-3.726 1.65l-.149.324c1.135-.012 2.376-.004 3.725.025 0-.333.133-.366.4-.1-.873.753-1.748 1.229-2.625 1.425-.406.139-.864.272-1.375.399v.275l-.551.275c.264.121.447.296.551.524.4-.188.9-.455 1.5-.8-.268-.1-.4-.217-.4-.35l.651.4-.051.3c-.533.142-1.092.309-1.675.5.05.133.075.283.075.45a.96.96 0 0 1-.1.351c.657-.111 1.107-.211 1.35-.301 0 .034.05.084.15.15-.502.203-1.086.403-1.75.6-.152.253-.353.553-.601.9.71-.212 1.243-.412 1.601-.6v.35l-1.625.3c-.156.22-.331.461-.525.726 1.061-.286 1.693-.494 1.9-.625v.35c-.736.187-1.436.361-2.101.525a.639.639 0 0 1-.05.074c-.384.498-.725.915-1.025 1.25 3.934-1.051 6.775-1.834 8.525-2.35 9.441.919 15.559 1.477 18.35 1.675 2.8.196 4.733 1.738 5.801 4.625.812.775 1.395 1.643 1.75 2.601.333.966.5 2.533.5 4.699 0 3.467-1.351 7.101-4.051 10.9a28.684 28.684 0 0 1-3.5 4.05 6.193 6.193 0 0 1-.35.7c-1.2 2.066-3.15 4.5-5.85 7.3-1.533 1.566-3.867 3.884-7 6.95-3.5 3.634-8.584 8.434-15.25 14.4-8.268 7.399-13.101 11.1-14.5 11.1-.867 0-1.518-.267-1.95-.8a25.24 25.24 0 0 0-.8-1.45c-.768.2-1.9.533-3.4 1-1.2.333-1.983.5-2.35.5-3.601 0-5.4-.983-5.4-2.95 0-.467.033-.767.1-.899-1.266.933-2.883.6-4.85-1-1.834-1.5-2.75-2.733-2.75-3.7 0-.467.05-.783.15-.95.1-.2.467-.533 1.1-1-3.733-1.4-5.6-3.316-5.6-5.75 0-.6.199-1.167.6-1.7.8-1.033 2.184-1.55 4.15-1.55 1.033 0 1.732.167 2.1.5.4.333.666.5.8.5 3.425-1.349 6.075-2.474 7.95-3.375l-.15-.025c-2.396.83-8.338-1.229-17.824-6.175-9.482-4.945-15-11.095-16.551-18.45-1.554-7.354-.213-15.163 4.025-23.425 1.619-4.329 2.828-7.562 3.625-9.7-.779-.242-1.704-.726-2.775-1.449a20.416 20.416 0 0 0-.899-.601 1.361 1.361 0 0 1-.101.15c.233.138.483.287.75.45 1.434.899 2.15 1.517 2.15 1.85 0 .434-.084.767-.25 1-.434.134-.85.083-1.25-.15 0 .534-.166.917-.5 1.15.367.267.617.55.75.85-.934.367-1.4.584-1.4.65 0 .134.018.233.051.3 0 .033-.134.233-.4.601h-2.5c-.434-.034-1.267-.184-2.5-.45-.102-.024-.21-.05-.325-.075l-.05.025c-.051.075-.102.15-.15.225.887.115 1.994.257 3.325.425 1.134.167 1.7.483 1.7.95 0 .434-.05.517-.15.25-.566.267-.916.566-1.05.9-.033.1-.634.133-1.8.1.434 1.1.4 1.667-.1 1.7-.268 0-.566-.017-.9-.05 0 1.033-.367 1.633-1.1 1.8-.143.047-1.426.197-3.851.45-.077.115-.151.231-.225.35h3.925c.533.267.834.634.9 1.1-.033.034-.334.167-.9.4L209.5 178h.85c.334.134.5.417.5.85h-.75c-.4 0-.6.134-.6.4 0 .4-1 .783-3 1.15-.872.166-1.622.341-2.25.524-.197.305-.389.597-.575.875.631-.252 1.14-.451 1.524-.6.834-.3 1.684-.45 2.551-.45.566 0 .85.2.85.6-.166.167-.584.301-1.25.4.5 0 .75.167.75.5 0 .434-.05.517-.15.25-.533.267-1.399.517-2.6.75h.75c.334.134.5.333.5.6-.1.101-.35.233-.75.4h2.5c.334.134.5.333.5.6-.439.421-1.099.721-1.975.9h.225c.334.134.5.333.5.6l-.5.301-1.75.1h.4c.066.033.1.184.1.45 0 .033-.334.267-1 .7-.7.466-1.316.833-1.85 1.1.133.2.199.583.199 1.15l-1.35.1h.25c.334.333.5.634.5.9-.1.133-.267.25-.5.35h-3.8a1.863 1.863 0 0 0-.05.1c.957.604 1.674.937 2.149 1 .233 0 .384.101.45.301-.1.133-.267.25-.5.35-1.1.066-1.85.15-2.25.25 0 .167-.05.55-.15 1.15 0 .066.15.3.45.699.3.367.45.95.45 1.75-.334.101-.916.15-1.75.15.033.066.133.116.3.15.134.1.2.283.2.55 0 .233-.767.883-2.3 1.95-.829.553-1.472.961-1.925 1.225.93.325 1.672.667 2.225 1.025-.066.133-.316.216-.75.25-.121-.03-.704-.063-1.75-.101-.01.33-.06.48-.15.45h-.448a1.644 1.644 0 0 0-.075.175c.116.097.175.271.175.525 0 .399-.05.583-.15.55h-.6c.834.3 1.4.517 1.7.65.533.199.8.5.8.899v.275c.129.012.262.021.4.024 0 .037-.143.07-.426.101-.027.133-.069.2-.125.2l-1.699.1c.033.634-.334 1.184-1.101 1.65.15.003.3.003.45 0-.029.089-.338.164-.925.225-.208.091-.4.157-.575.2-.344.378-.686.661-1.025.85.373.11.631.186.775.226-.133.233-.467.35-1 .35-.153 0-.312-.009-.475-.025-.137.229-.271.454-.4.676.704.235 1.329.436 1.875.6-.1.167-.517.25-1.25.25-.353 0-.719-.033-1.1-.1a44.483 44.483 0 0 1-.95 1.449c.384.101.767.15 1.149.15h.551l-.25.15c-.301.233-.684.35-1.15.35-.211 0-.436-.042-.675-.125-.452.622-.843 1.098-1.175 1.425.323.715.64 1.448.949 2.2 1.4 3.366 3.417 8.366 6.051 15a280.93 280.93 0 0 1 6.05 13.75c2.735 6.613 4.377 11.438 4.925 14.475.41.579.802 1.221 1.175 1.926 1.366 2.566 2.05 4.85 2.05 6.85 0 1.066-.3 2.4-.899 4-.8 2.066-1.784 3.4-2.95 4-1.967 1-4.95 2.167-8.95 3.5-4.433 1.5-7.366 2.25-8.8 2.25h-.275c-1.709 1.333-3.316 2-4.824 2-.315 0-.633-.009-.95-.025-5.122 1.584-9.606 2.375-13.45 2.375-1.434 0-2.15-.683-2.15-2.05 0-1.267.934-2.366 2.801-3.3l.55-.275a48.087 48.087 0 0 1-2.9-.675c-2.167-.6-3.733-.899-4.7-.899-.434 0-3.1-.134-8-.4-.232 0-1.533.417-3.899 1.25-1.612.567-2.945.942-4 1.125-1.088 4.02-2.871 7.478-5.351 10.375 1.367-.167 2.4.45 3.101 1.85.433.9.649 1.717.649 2.45 0 1.3-.416 2.533-1.25 3.7-1.399 1.9-3.684 2.85-6.85 2.85-.334 0-1.2-.199-2.6-.6-.634 1.233-1.051 1.983-1.25 2.25-1.101 1.267-2.601 1.9-4.5 1.9-1.434 0-2.934-.233-4.5-.7-1.567-.467-2.667-.7-3.301-.7-.6 0-.983.15-1.149.45-.2.3-.434.45-.7.45h-4.5c-2.866-1.334-6.083-2.351-9.65-3.051-1.899-.366-2.85-1.699-2.85-4 0-1.767.767-3.5 2.3-5.199 1.9-2.134 3.217-4.351 3.95-6.65.4-1.4.733-3.4 1-6 .333-3.134.583-5.134.75-6 .8-5.4 1.417-9.45 1.85-12.15.733-4.833 1.667-8.783 2.801-11.85.899-2.434 3.017-6.483 6.35-12.15 3.033-5.166 4.9-9.116 5.6-11.85.834-3.333 3.417-7.333 7.75-12 1.834-1.267 3.5-3.25 5-5.95.994-1.787 1.827-3.171 2.5-4.149-.211-.54-.41-1.073-.6-1.601-.004.66-.037 1.177-.1 1.55h-.15c-.5-1.767-.767-2.8-.8-3.1-.026-.187-.044-.786-.05-1.8-.145-.497-.277-.98-.4-1.45-.233-.967-.35-2.684-.35-5.15 0-2.333-.167-4.066-.5-5.199-.7-2.334-1.184-4.134-1.45-5.4-.366-1.833-.55-3.566-.55-5.2a5.198 5.198 0 0 1-.025-.2 37.989 37.989 0 0 0-.225 1.75h-.15c-.166-.399-.25-1.017-.25-1.85 0-.424.1-1.324.3-2.7a9.553 9.553 0 0 1-.05-.75c0-.524.033-1.199.1-2.024v-.226c0-.408.042-.925.125-1.55H133c.051-.241.109-.491.175-.75a3.37 3.37 0 0 1 .024-.2c.039-.248.08-.481.125-.7.115-1.017.258-2.149.426-3.399-1.279 2.203-2.113 3.72-2.5 4.55h-.15c-.033-.033-.066-.033-.1 0v-.35c0-.601.866-2.317 2.6-5.15.131-.216.256-.425.375-.625a585.522 585.522 0 0 1 1.775-11.225c.127-.766.244-1.541.35-2.325-.598 1.587-.881 2.979-.85 4.175H135v-1.9c.467-1.633.85-2.883 1.149-3.75.05-.14.1-.272.15-.399.146-1.58.238-3.205.274-4.875a5.16 5.16 0 0 0-.074.425h-.25l-.051-.8c0-.244.134-.735.4-1.476.004-1.606.354-3.173 1.05-4.699-2.173-2.262-3.573-3.704-4.2-4.325-.047.181-.081.281-.1.3-.233 0-.434-.05-.6-.15-.615-.749-1.008-1.349-1.176-1.8a3.637 3.637 0 0 0-.125-.1c-.003.186.03.419.101.7 0 .333-.233.566-.7.699-.934-.466-1.45-.767-1.55-.899a10.45 10.45 0 0 0-.3-.7c-.066.533-.316.866-.75 1-.234-.5-.816-1.65-1.75-3.45a24.433 24.433 0 0 1-.851-1.825 56.427 56.427 0 0 0-.95-.675c-.1.094-.217.194-.35.3-.098-.264-.189-.514-.275-.75-.482-.339-.975-.681-1.475-1.024v.024l-.15-.1v-.025a8.29 8.29 0 0 0-.35-.25c-.164.27-.348.562-.55.875-1.2 1.934-2.467 2.9-3.8 2.9-2.034 0-3.301-.55-3.801-1.65-.166-.333-.25-1.149-.25-2.449 0-1.409.284-2.917.851-4.525a6.755 6.755 0 0 1-.226-.15 2.58 2.58 0 0 1-.475.625l-.1-.1v-.875l-.2-.125c-.087.595-.236 1.062-.45 1.4-.333-.167-.583-.25-.75-.25 0-.867-.033-1.417-.1-1.65-.034.5-.084 1.333-.15 2.5l-.5-.1c0-.851-.009-1.576-.025-2.176l-.125-.074c-.066 1.041-.1 1.574-.1 1.6H111a16.632 16.632 0 0 1-.15-1.825c-.043.05-.127.075-.25.075h-.65c.067.134.034.3-.1.5-.5-.2-.783-.517-.85-.95.033-.533.033-.917 0-1.15-.534-.033-.9-.15-1.101-.35 0-.033-.05-.183-.149-.45-.101.267-.317.367-.65.3v-1.3c-1.735-1.077-2.993-1.902-3.775-2.475l-.125.2c.252 2.823.619 6.465 1.101 10.925.366 3.333.55 7.134.55 11.4 0 .633-1.3 2.783-3.9 6.449a2485.42 2485.42 0 0 0-4.199 5.9c-.667 1.3-1.2 3.366-1.601 6.2-.434 3-.899 5.1-1.399 6.3-.267 0-.45-.2-.551-.6.033-.166.092-.499.176-1-.57 2.043-.912 3.576-1.025 4.6H92c-.167-1-.25-2.533-.25-4.6a189.41 189.41 0 0 1-1.2 3.899c-.367 1.2-.601 2.517-.7 3.95-.167 0-.25-.1-.25-.3-.033-.2-.15-.3-.35-.3-.233 0-.367.017-.4.05-.033 0-.167-.15-.4-.45-.066.134-.1.5-.1 1.1.033.467-.134.817-.5 1.051l-.4-.15c-.366.767-.583 1.65-.649 2.65-.2.633-.934.949-2.2.949-.333 0-.5-.116-.5-.35-.066.333-.116.833-.15 1.5-.566 0-1.133.033-1.699.1-.067.233-.051.684.05 1.351 0 .6-.233.983-.7 1.149l-.5-.199c-.066-.5-.1-1.134-.1-1.9l-.15.35c-.033.134-.017.517.05 1.15-.033.566-.3.85-.8.85-.233 0-.366.101-.4.301 0 .267-.199.5-.6.699l-.4-.199c-.033-.067-.149-.5-.35-1.301h-.1l-.051 4.15-.699.1c-.478 0-.777-.358-.9-1.074-.111.62-.444 1.146-1 1.574l-.5-.199c0 .666-.2 1.35-.6 2.05-.334.633-.634.95-.9.95-.233 0-.366-.034-.4-.101a.606.606 0 0 1-.1-.149c-.033.133 0 .483.1 1.05 0 .467-.316.7-.949.7-.267 0-.467-.067-.601-.2a2.883 2.883 0 0 0-.399-.3c-.167.199-.417.533-.75 1-.334.333-.717.5-1.15.5-.4 0-.667-.167-.8-.5-.066-.167-.101-.467-.101-.9l-.1.1c0 .134.05.617.15 1.45 0 .733-.384 1.101-1.15 1.101-.233 0-.366-.034-.4-.101a.606.606 0 0 1-.1-.149c0 .466-.5 1.366-1.5 2.699l-.6-.35v-.9c-.002.067-.151.117-.45.15h-.45l.05 1.45c0 .566-.267.95-.8 1.149l-.4-.199c-.166-.367-.25-.867-.25-1.5l-.1.1c-.1.366-.116.95-.05 1.75-.134.634-.7 1.017-1.7 1.15l-.75-.25c-.066-.601-.1-1.4-.1-2.4l-.15.1v5.25c-.1.067-.184.134-.25.2s-.233.101-.5.101c-.4 0-.6-.101-.6-.301a27.472 27.472 0 0 0-.301-3.5c-.066.367 0 1.301.2 2.801-.033 1.333-.666 2-1.899 2-.267 0-.434-.034-.5-.101a.323.323 0 0 1-.15-.149c0 .199.05.767.15 1.699-.034.834-.367 1.25-1 1.25-.467 0-.717-.3-.75-.899-.067-1-.117-1.533-.15-1.601h-.15a5.31 5.31 0 0 1-.449.4c-.101.1-.15.267-.15.5 0 .333.134.816.4 1.45.1.566-.117.95-.65 1.149-.333-.033-.583-.3-.75-.8-.1-.533-.184-.85-.25-.95L51.1 196c0 .5.15 1.517.45 3.05.133 1.3-.184 1.95-.95 1.95-.4 0-.517-.05-.35-.15-.233-.767-.65-1.75-1.25-2.949l-.051.199c.034.301.267.884.7 1.75.4.834.601 1.434.601 1.801 0 .333-.167.583-.5.75-.467.199-.767.399-.9.6l-.35-.1-1.301-2.5c.101.633.301 1.5.601 2.6.1.366.149 1 .149 1.9 0 .466-.199.833-.6 1.1-.233-.066-.767-.517-1.6-1.35-.034.333-.067.517-.101.55-.1.2-.283.3-.55.3-.2 0-.384-.083-.55-.25-.165-.168-.349-.251-.548-.251-.567 0-.884.233-.95.7-.033.434-.3.649-.8.649a1.16 1.16 0 0 1-.601-.149c-.166-.134-.3-.2-.399-.2-.067.333-.117.517-.15.55-.1.134-.3.2-.6.2a.994.994 0 0 1-.65-.25c-.233-.167-.45-.25-.65-.25-.233 0-.416.1-.55.3-.166.2-.35.3-.55.3-.3 0-.917-.233-1.85-.699-.377 0-.877-.101-1.5-.301-.101.158-.15.259-.15.301.366.066.6.116.7.149.1.101.149.3.149.601 0 .466-.216.966-.649 1.5-.834.966-1.283 1.5-1.351 1.6 3.601 2.533 5.983 4.267 7.15 5.2 1.833 1.467 2.75 3.05 2.75 4.75 0 .733-.267 1.184-.8 1.35-1.066.367-3.717.566-7.95.601 0 .466.116 1.633.35 3.5.003.138.003.271 0 .399 1.862.557 3.93 1.757 6.2 3.601 3.033 2.5 6.517 4.199 10.45 5.1h1.65c1.633-1 4.8-2.5 9.5-4.5 4.3-1.833 6.583-2.75 6.85-2.75 1.333 0 2 .467 2 1.4 0 1.399-.134 2.466-.4 3.199-.308.859-.833 1.626-1.574 2.301h.024c.901.398 1.351 1.198 1.351 2.398 0 .533-.217 1.167-.65 1.9-.434.767-.65 1.2-.65 1.3 0 .134.101.4.301.8.233.4.35.65.35.75 0 1.767-.184 2.983-.55 3.65-.3.633-1.334 2.2-3.101 4.7-.833 1.333-2.383 2.933-4.649 4.8-2.434 2.033-4.167 3.05-5.2 3.05-2.767 0-5.384-.983-7.85-2.95a16.924 16.924 0 0 1-1.801-1.649 203.567 203.567 0 0 1-4.5-1.851c-5.966-2.5-10.133-4.566-12.5-6.2-2.5-1.733-5.1-3.783-7.8-6.149-2.542-2.288-4.717-4.455-6.524-6.5-.824-.304-2.615-1.971-5.375-5-3-3.267-4.717-5.417-5.15-6.45-.153-.363-.304-.722-.45-1.075a6.742 6.742 0 0 1-.675-1.649c-.119-.295-.236-.587-.35-.875H3.85c-.018-.066-.034-.134-.05-.2-.661-1.667-1.187-3.101-1.575-4.3.04.909.132 1.693.275 2.35-.434-.167-.717-.65-.851-1.45a3.973 3.973 0 0 1-.024-.3C.941 213.224.6 212.106.6 209.902c.144-.913.276-1.722.4-2.426a25.994 25.994 0 0 1-.551-2.1c-.061.358-.127.733-.199 1.125H0v-1.15c0-.022.074-.447.225-1.274A13.618 13.618 0 0 1 .1 202.3c0-.967.733-3.467 2.2-7.5.63-1.727 1.164-3.135 1.6-4.225-.81.616-1.41.925-1.8.925-.267 0-.434-.033-.5-.1a.635.635 0 0 1-.1-.15c.79-.381 1.773-1.047 2.949-2l.125-.275c-1.683 1.184-2.758 1.775-3.225 1.775-.4 0-.566-.083-.5-.25 1.133-.718 2.1-1.334 2.9-1.85.38-.387.737-.754 1.074-1.101-.237.155-.479.306-.725.45v-.15c.829-.781 1.646-1.557 2.45-2.324.199-.311.399-.61.6-.9C5.783 186.009 4.6 187.1 3.6 187.9c-.1-.101-.15-.2-.15-.301 1.08-1.254 3.238-3.421 6.476-6.5.257-.283.516-.559.774-.824 1.136-1.562 2.069-2.979 2.801-4.25a442.78 442.78 0 0 0-3.101 3.074c-2.366 2.334-4.083 3.967-5.149 4.9 1.199-1.566 2.767-3.283 4.699-5.15a62.723 62.723 0 0 1 3.95-3.524c.387-.709.703-1.367.95-1.976.604-1.485 1.68-3.26 3.225-5.324.12-.163.245-.33.375-.5a61.31 61.31 0 0 1 1.25-1.575 962.263 962.263 0 0 0 6.15-7.2c.294-.356.595-.807.9-1.35h-.65c-.634 0-1.083-.134-1.35-.4l.85-.25c.519.046 1.002.088 1.45.125.148-.292.298-.608.45-.95a7.45 7.45 0 0 1-.45-.024c-.834-.067-1.267-.117-1.3-.15a24.952 24.952 0 0 1 1.899-.175c.07-.135.137-.277.2-.425.126-.3.251-.583.375-.851a63.138 63.138 0 0 0-1.875-.05c.126-.011.251-.02.375-.025.094.017.219.025.375.025.096 0 .271-.033.525-.1.212-.02.42-.036.625-.051a5.257 5.257 0 0 1-.25-.05h-.025c.458-.167 1-.267 1.625-.3.4-.066.65-.233.75-.5-.1-.1-.316-.15-.65-.15-.158.021-.482.045-.975.075.255-.56.48-1.019.675-1.375l-2.05.05-.1-.1c.049-.049.799-.091 2.25-.125.047-.101.098-.192.149-.275 1.062-1.642 2.596-2.75 4.601-3.324.089-.34.305-.965.649-1.875.533-1.367.816-2.134.851-2.301a6.2 6.2 0 0 1 .1-.3c.001-.342.01-.692.025-1.05-.532.881-1.207 1.964-2.025 3.25l-.1-.15 2.199-4.149c.097-.843.238-1.709.426-2.601-.23.439-.488.939-.775 1.5-.7 1.334-1.366 2.434-2 3.301-.167-.167-.25-.334-.25-.5a51.674 51.674 0 0 1 1.575-2.875c-.328.351-.62.676-.875.975-.219.389-.452.806-.7 1.25l-.125-.2c-.15.279-.225.213-.225-.2 0-.483.333-1.143 1-1.975.511-.994.777-1.502.8-1.525.493-.777 1.052-1.402 1.675-1.875.021-.158.046-.316.075-.475a68.53 68.53 0 0 0-2.4 1.15c-1.2.6-2.1.883-2.7.85.2-.235.616-.511 1.25-.825-.042-.041-.025-.1.051-.175 1.093-.386 2.185-1.161 3.274-2.325a1.588 1.588 0 0 1-.175.075c-.1 0-.184-.05-.25-.15a3.115 3.115 0 0 1-.075-.324c-.407.239-.882.563-1.425.975-1.2.9-2.116 1.366-2.75 1.4l-.1-.25.1-.25c.261-.029 1.053-.487 2.375-1.375L29.85 136.5v-.15c.467-.466 1.733-1.083 3.8-1.85a43.03 43.03 0 0 1 1.75-.575.856.856 0 0 0 .125-.05c.027-.07.061-.146.101-.225l-6.276.15c-1.79.313-3.656.63-5.6.95.444-.223 1.562-.522 3.35-.9h-.05c-.4 0-.584-.033-.55-.1.201-.061.401-.119.6-.175a.493.493 0 0 1-.1-.075c-.662.089-1.162.205-1.5.35-.733.334-1.4.467-2 .4 1.699-1.267 4.166-1.934 7.399-2 2.573-.041 4.632-.158 6.175-.35.193-.146.377-.254.551-.325l.024-.075h1.95c.4 0 .866-.167 1.4-.5v-.1l-3.15-.075c.114-.345.23-.694.35-1.05a25.777 25.777 0 0 1-1.6-.125c-.4 0-.767-.051-1.1-.15l1.1-.25a63.325 63.325 0 0 0 1.825-.175l.274-.8c-1.914.05-4.33.074-7.25.074-.433 0-.666-.033-.699-.1 1.833-.467 4.05-.75 6.649-.85h1.601l.05-.15H33.1c-1.833-.1-2.783-.184-2.85-.25.166-.167 1.116-.25 2.85-.25h6.125l.125-.325-5.25.076a9.214 9.214 0 0 0-1.35 0c-.301.033-.467.033-.5 0 .466-.333 1.083-.5 1.85-.5l5.45-.075c.065-.173.133-.34.2-.5l-.801-.175a339.67 339.67 0 0 0-5.375-1.1c-1.204-.072-2.579-.155-4.125-.25v-.3l.2-.125c-.18.006-.363.015-.55.025 0-.167.25-.333.75-.5a163.39 163.39 0 0 0 3.9-.375l.1-.225c.089.035.498.068 1.225.1 1.182-.117 2.439-.25 3.775-.4.38-.04.737-.073 1.075-.1h-2.325c-.033 0-1.066-.116-3.1-.35-1.625-.203-2.767-.378-3.426-.525a36.403 36.403 0 0 1-1.725-.125c.886-.4 2.786-.625 5.7-.675-.02-.027-.036-.053-.05-.075l.1-.15c.235-.016.46-.032.675-.05l-1.425-.2c-.2 0-.566.101-1.1.301-.5.166-.851.25-1.051.25-.433 0-.633-.051-.6-.15 1.434-1.2 3.2-1.533 5.3-1h.101c.376 0 1.418-.042 3.125-.125.82-.491 1.445-.783 1.875-.875l-.051-.15c-.6-.633-.966-1.033-1.1-1.2-.1-.2-.15-.517-.15-.95 0-1.4.534-2.85 1.601-4.35.866-1.167 2.217-2.533 4.05-4.1-.4-.533-1.217-1.3-2.45-2.3-.7-.534-1.05-1.267-1.05-2.2 0-.2.417-.617 1.25-1.25 1.134-.833 2.017-1.667 2.65-2.5.004-.053.013-.112.024-.175-.006-.047-.015-.097-.024-.15-.053.181-.103.339-.15.475l-.25-.3a2.741 2.741 0 0 1-.1-.75c0-.238.05-.68.149-1.325-.212.432-.445.757-.7.975.124-.954.258-1.87.4-2.75a18.807 18.807 0 0 1-.35-1.775 12.7 12.7 0 0 1-.176.6c.013.058.021.116.025.175l-.075.025c-.421 1.473-.813 2.414-1.171 2.824l-.15-.1c.159-.46.309-1.027.45-1.7l-.15-.05a1.778 1.778 0 0 1-.9.5 70.03 70.03 0 0 1 .325-2.55c-.119-.36-.252-.751-.4-1.175L42.75 95.5h-.15c-.167-.4-.25-.817-.25-1.25 0-.221.075-.721.225-1.5-.214.579-.456 1.212-.725 1.9l-.25-.3v-.6c0-.839.267-2.248.8-4.225L42 88.7v.2c-.067 1.3-.2 2.3-.4 3l-.4-.05c.011-.938.027-1.804.051-2.6A.515.515 0 0 1 41.2 89c-.066-.067-.1-.317-.1-.75 0-.162.025-.345.075-.55-.375 1.329-.732 2.179-1.075 2.55.295-1.163.57-2.43.825-3.8a4.538 4.538 0 0 0-.101-.225c-.283.152-.566.26-.85.325-.21.732-.368 1.216-.475 1.45h-.25c.174-.427.34-.902.5-1.425a1.86 1.86 0 0 1-.301.025c-.433 0-.583-.033-.449-.1.148-.1.49-.424 1.024-.975.052-.235.102-.477.15-.725-.049-.118-.1-.234-.15-.35-.404.608-.629.958-.675 1.05-.3-.067-.5-.233-.6-.5l-.051-.35c.268-.645.501-1.186.7-1.625a.844.844 0 0 0-.024-.075c-.322.31-.597.593-.825.85-.353 1.435-.669 2.335-.95 2.7a64.64 64.64 0 0 0 .5-2.125c-.17.236-.286.444-.35.625H37.5c-.034-.033-.051-.2-.051-.5 0-.123.017-.256.051-.4-.051.05-.102.1-.15.15-.167-.1-.25-.217-.25-.35l-.1-.25c-.2-.033-.334-.117-.4-.25l-.1-.4v.25c0 .235.008.393.024.475a.706.706 0 0 1-.274-.225l-.101-1.45-.125-.05a4.846 4.846 0 0 1-.175.65l-.175-.2a2.33 2.33 0 0 0-.075.15c-.1-.067-.184-.184-.25-.35v-.5c0-.465.05-.957.15-1.475l-.025-.65c-.398.953-.69 1.544-.875 1.775l-.15-.15-.1-.45c.376-1.369.709-2.552 1-3.55a5.92 5.92 0 0 1 .075-.825c-.701 1.899-1.093 3.207-1.175 3.925H34.1a10.3 10.3 0 0 1-.225-1.15c-.351.886-.525 1.403-.525 1.55 0 .233.033.383.1.45.067.066.084.117.051.15h-.15l-.3-.2c-.066-.066-.101-.233-.101-.5 0-.22.342-1.195 1.025-2.925.133-.542.375-1.267.725-2.175-.101.149-.201.299-.3.45-.175.395-.308.645-.399.75l-.051-.075c-.977 1.383-1.727 2.075-2.25 2.075-.433 0-.55-.05-.35-.15v-.2c.533-.482 1.175-1.282 1.925-2.4.037-.391.145-.741.325-1.05.426-.669.743-1.245.95-1.725-.22.274-.453.532-.7.775-.134-.033-.283-.15-.45-.35-.2-.233-.3-.483-.3-.75 0-1.167.333-2.75 1-4.75s1-3.4 1-4.2l-.45-1.7c-.2.384-.417.684-.649.9-.101-.1-.15-.383-.15-.85 0-.17.15-.662.45-1.475l-.3-1.25a3.396 3.396 0 0 1-.15.425c-.226 0-.434-.05-.625-.15-.116.303-.241.603-.375.9-.167-.067-.283-.15-.35-.25l-.051-1.05c0-.188.042-.497.125-.925a1.086 1.086 0 0 1-.075-.125v-.475a1.094 1.094 0 0 1-.4.425l-.5-.25a3.158 3.158 0 0 0-.025-.225l-.075-.125c.017-.036.033-.07.05-.1a10.07 10.07 0 0 0-.351-1.725c.101-.43.15-.655.15-.675 0-1-.167-1.617-.5-1.85-.214-.171-.522-.296-.925-.375a14.54 14.54 0 0 0-1.825-2.325c-2.066-2.2-3.1-4.284-3.1-6.25 0-2.367 1.283-3.417 3.85-3.15 2.022.184 4.056 1.125 6.1 2.825.261-.743.777-1.609 1.551-2.6.214-.6.414-1.108.6-1.525.351-.734.876-1.4 1.575-2a9.51 9.51 0 0 1-.825.25c.2-.4 1.167-1 2.9-1.8.034-.124.067-.224.1-.3.079-.226.188-.467.325-.725-1.143.6-1.785 1.125-1.925 1.575-.167 0-.25-.083-.25-.25.211-.272.97-.78 2.274-1.525.601-1.06 1.659-2.335 3.175-3.825 2.834-2.867 4.351-4.417 4.551-4.65.1-.133.716-.717 1.85-1.75 1-.933 1.8-1.817 2.4-2.65.699-1.133 1.3-1.967 1.8-2.5.8-.9 1.899-1.633 3.3-2.2 4.333-.967 7.384-1.667 9.15-2.1 3.033-.667 5.033-1.716 6-3.15-.733 1.2-1.733 2.317-3 3.35-.296.257-.597.499-.9.725zM34.824 72.9a1.856 1.856 0 0 1-.175.2l.101.025c.028-.073.053-.148.074-.225zm7.226 15.15l-.05-.125v.375c.142.35.292.708.449 1.075v-.025c.014-.048.03-.099.051-.15-.146-.367-.297-.75-.45-1.15zm-5.5-5.95c-.026.297-.043.597-.05.9a169.072 169.072 0 0 1 1.6-2.35.237.237 0 0 1-.05-.05.698.698 0 0 1-.05-.075c-.629.807-1.096 1.348-1.4 1.625l-.05-.05zm3.774 1.9l-.024.05v.025a.253.253 0 0 0 .024-.075zm.301.875c.09-.084.182-.176.274-.275l-.274-.375a6.515 6.515 0 0 1-.101.4l.101.25zM41.3 87.2a5.736 5.736 0 0 1-.05.175l.05-.15V87.2zm.125-.55c-.014.047-.03.097-.05.15l.024.025a1.76 1.76 0 0 1 .026-.175zm-13.175 68.1c.066.2.267.366.6.5.167 0 .283-.017.35-.05.034 0 .051-.134.051-.4s-.084-.416-.25-.45c-.101 0-.267.017-.5.051l-.251.349zm9.524-33.5c1.274.109 2.458.185 3.55.225.033-.094.066-.186.101-.274-.881.027-2.098.043-3.651.049zm3.175 1.2a50.21 50.21 0 0 1-1.574.2c.569.022 1.062.039 1.475.05l.099-.25zm-1.199 4.3c-.801.066-1.384.15-1.75.25.1.1.633.15 1.6.15.3 0 .6-.051.9-.15.3-.1.466-.184.5-.25v-.1c-.233 0-.65.034-1.25.1zm2.149-6.825c-.482.036-1.032.061-1.649.075.568.116 1.077.217 1.524.3.045-.139.087-.264.125-.375zm-1.049 9.725l-.15.35c.134.233.267.366.4.4h1.35c.101.166.15.033.15-.4 0-.233-.017-.366-.05-.4-.033-.033-.05-.033-.05 0-.834 0-1.384.016-1.65.05zm-4.675 6.375a20.3 20.3 0 0 0 .425-.125l.075-.45-.175.25a3.833 3.833 0 0 1-.325.325zm.224 1.675a.337.337 0 0 0-.05-.05v-.05c-.117.137-.234.278-.35.426.138-.121.271-.229.4-.326zm-23.774 41.525c-.104.174-.213.349-.325.525a84.55 84.55 0 0 0 1.45-1.5c-.369.298-.744.623-1.125.975zm-11 31.375c-.184-.72-.275-1.286-.275-1.699v-.325a4.992 4.992 0 0 0-.1-.325c-.101.712-.15 1.229-.15 1.55 0 .976.167 1.992.5 3.05v-1.149c0-.376.008-.742.025-1.102zM156.899 3.7v.025h.025l-.025-.025zm-.349-.5c-.325-.163-.95-.28-1.875-.35a7.105 7.105 0 0 1-.325.325.832.832 0 0 1 .125.175c.066.009.132.018.2.025 1.134.006 1.767-.027 1.899-.1a.314.314 0 0 0-.024-.075zm10.2 2.55c-.268 0-.793-.042-1.575-.125.616.208 1.125.416 1.524.625a641.68 641.68 0 0 0 2.9-.1c-.309-.07-.758-.187-1.35-.35a5.29 5.29 0 0 0-.275-.05h-1.224zm108.85 166.9c.088-.021.171-.037.25-.051a1.897 1.897 0 0 1-.225-.05.932.932 0 0 1-.025.101zM110.75 116.6c0 .11.033.269.1.475v-.475h-.1zm3.3 1.7c.014.084.03.15.05.2.014-.045.03-.095.05-.15a.445.445 0 0 1-.1-.05zm13.95 9.4c-.15-.112-.301-.221-.45-.325l.1.525c.2.899.434 1.517.7 1.85-.133-.9-.25-1.566-.35-2v-.05zm1.475 1.125a15.954 15.954 0 0 1-.425-.325c.249.657.517 1.19.8 1.6a19.532 19.532 0 0 1-.375-1.275zM76.6 173.5v.15c-.078.392-.087.934-.025 1.625.044-.908.052-1.499.025-1.775zm144.25-15.25c-.289 0-.473-.017-.55-.05.234.289.618.605 1.149.95l-.1.35c-.334 0-.533.033-.6.1l.75.801c0 .133-.084.316-.25.55a3.657 3.657 0 0 1-.325.35c.012.069.021.145.024.226.17.248.471.573.9.975l.25-.7c0-1.187-.242-2.504-.725-3.95a.44.44 0 0 0-.025.101c-.098.197-.265.297-.498.297zm.875 4.6c-.15.042-.225.175-.225.4v.2l.225-.6zM221.1 164c.068.014.127.022.175.025.036-.084.069-.167.101-.25a8.432 8.432 0 0 0-.276.225zm-.35-1.425l-.025.024c.074.051.148.101.225.15l-.2-.174zm-7.375 5.925h.125a1.31 1.31 0 0 1-.075-.025l-.05.025zM160 260.15a1341.14 1341.14 0 0 1-5.101-4.851 33.012 33.012 0 0 1-1.975-2.225c.036.146.077.305.125.475-.067.654-1.534 1.088-4.4 1.3a5.869 5.869 0 0 0-.25.301c1.399-.07 2.216-.07 2.45 0l-.1.199c-.268.101-.7.233-1.301.4l.15.1c.5.167.75.384.75.65-.233.366-.666.566-1.3.6a2.847 2.847 0 0 0-1.7.75c.133.134.367.483.7 1.051.366.6.55.983.55 1.149 0 .3-.133.617-.4.95-.08.091-.163.174-.25.25 1.119-.32 2.436-.62 3.95-.9 2.243-.423 4.01-.564 5.3-.425.81-.237 1.743-.162 2.802.226z" fill-rule="evenodd"/></svg>