<svg xmlns="http://www.w3.org/2000/svg" xmlns:dc="http://dublincore.org/documents/dcmi-terms/" height="400" version="1.2" viewBox="0 0 550 400" width="550"><metadata><dc:description>Silhouette of Pan, processed by PhyloPic Tools (https://github.com/eweitz/phylopic-tools)</dc:description><dc:source>http://phylopic.org/image/f06b4dd0-094e-4f37-9105-25fdb4eb1b02</dc:source><dc:creator>T. Michael Keesey</dc:creator><dc:license>http://creativecommons.org/publicdomain/zero/1.0/</dc:license></metadata><path d="M665.15 341.3c.112.191.229.375.35.55v.15a91.3 91.3 0 0 1-.35-.7z" fill="#fefefe" fill-rule="evenodd"/><path d="M426.75 70.8c2.767 5.934 4.25 9.983 4.45 12.15.166 1.633.05 4.767-.351 9.4 0 7.1-1.566 13.033-4.699 17.8-3.034 4.633-8.417 9.783-16.15 15.45l-.4 1.5c.233.667.551 1.517.95 2.55l-.1.2c-.934-.033-1.017-.15-.25-.35-.134-.233-.417-.733-.851-1.5-.033.133-.066.283-.1.45v.4l.05.05-.05.05c0 .233.017.483.05.75.3.9.55 1.55.75 1.95l-.1.2c-.167-.167-.384-.45-.65-.85v.35c.167.633.25 1.066.25 1.3v.35c-.033-.033-.066-.033-.1 0h-.15c-.166-.567-.399-1.3-.7-2.2-.1.367-.199.75-.3 1.15l.65 1.95c0 .434-.033.55-.101.35h-.3l-.6-1.2c-.101.333-.2.667-.3 1 .333 1 .55 1.684.649 2.05l-.1.15a56.3 56.3 0 0 1-.75-1.45c-.233.7-.45 1.383-.65 2.05.2.833.367 1.55.5 2.15h-.25c-.166-.5-.316-.983-.45-1.45-.267.733-.517 1.434-.75 2.1.301 1.1.45 1.733.45 1.9 0 .233-.017.35-.05.35-.1-.1-.167-.15-.2-.15a19.68 19.68 0 0 1-.399-.85l.449 1.6-.397.5h-.05c.033-.067.05-.217.05-.45a20.234 20.234 0 0 0-.45-1.3 15.42 15.42 0 0 0-.45 1.1c.134 1.5.267 2.433.4 2.8v.1c-.334-.533-.634-1.1-.9-1.7a.615.615 0 0 0-.1.15c.267 1.4.633 2.466 1.1 3.2l-.1.1c-.367-.6-.767-1.55-1.2-2.85-.167.3-.316.6-.45.9.434 1.667.816 3.017 1.15 4.05v.15c-.533-.6-1.084-1.717-1.65-3.35-.033.133-.05.283-.05.45.467 1.267 1.083 3.066 1.85 5.4l-.15.25a201.324 201.324 0 0 1-2.101-4.05c-.033 0-.05.033-.05.1.4 1.5.9 3.45 1.5 5.85l-.1.1c-.566-1.067-1.167-2.55-1.8-4.45a5.593 5.593 0 0 0-.25.7c1.033 3 1.633 4.633 1.8 4.9v.1c-.7-.767-1.483-1.867-2.351-3.3a.393.393 0 0 1-.05.15c.033.066.066.133.101.2 1.466 2.5 2.316 4.233 2.55 5.2-.8-1-1.783-2.483-2.95-4.45-.066.167-.134.35-.2.55.467.733 1.017 1.65 1.65 2.75v.15c-.4-.333-.834-.767-1.3-1.3.233.533.533 1.05.899 1.55-.333-.233-.666-.783-1-1.65-.1-.133-.2-.25-.3-.35v.25c.8 1.733 1.4 2.95 1.8 3.65l-.1.1c-.5-.533-.983-1.117-1.45-1.75.066.567.1.983.1 1.25v.6c.434.9.917 1.917 1.45 3.05l-.1.1c-.767-.967-1.584-2.217-2.45-3.75.333 1.8.583 3.217.75 4.25.267 1 .533 2.083.8 3.25 0 .233-.033.367-.1.4a1.846 1.846 0 0 0-.25.1h-.05c.033-.033.05-.2.05-.5 0-.133-.217-.8-.65-2a1.822 1.822 0 0 0-.1-.25c.066.433.149.817.25 1.15v.1c-.233-.7-.45-1.467-.65-2.3l-.899-2.25c-.134-.3-.25-.6-.351-.9a1.64 1.64 0 0 0-.1.3c.8 3 1.717 5.583 2.75 7.75 0 .1-.134.183-.4.25-.3-.333-.616-.783-.95-1.35.301 1.2.45 2.133.45 2.8v.4c-.033 0-.066.017-.1.05a2.418 2.418 0 0 1-.65-.25l.5-.1c-.467-1-1.017-2.3-1.649-3.9.1.633.149 1.133.149 1.5 0 .733.267 1.817.8 3.25l-.05.5h-.25a74.536 74.536 0 0 0-.2-.4l.2 1.2c0 .367-.033.6-.1.7h-.15c.233.567.483 1.117.75 1.65l-.1.1c-.3-.6-.584-1.183-.851-1.75l.2 1.3v.4c-.033 0-.066.017-.1.05h-.15l-.3-.8v.05c.366 1.367.55 2.15.55 2.35v.35c-.033-.1-.066-.133-.1-.1h-.25v-.45a84.943 84.943 0 0 1-1.25-3.15c-.434-.7-.834-1.467-1.2-2.3a741.448 741.448 0 0 0-.2 3.55c0 .1-.033.183-.1.25-.2-1.733-.316-3.5-.351-5.3a1.772 1.772 0 0 0-.1-.25v.05c.033 1.467.05 3.183.05 5.15v.45c.101.733.184 1.333.25 1.8.066.367.117.65.15.85-.2-.5-.384-1.033-.55-1.6-.034.1-.067.217-.101.35h-.25l-.149-1.9a38.57 38.57 0 0 0-.2-.85l-.15 3.25c.233.9.483 1.733.75 2.5a27.428 27.428 0 0 1-1.5-3.85c-.066.8-.116 1.567-.149 2.3.3 1.066.6 2 .899 2.8l-.1.1c-.3-.633-.584-1.317-.851-2.05a31.387 31.387 0 0 0-.149 1.45h-.15l-.05-2.4a18.634 18.634 0 0 0-.1-.2c-.034 2.3-.101 4.083-.2 5.35h-.15l-.1-6.35c-.134.267-.25.55-.351.85 0 1.767.067 3.133.2 4.1l-.1.15c-.3-.4-.533-1.333-.7-2.8v.1c.167 2.633.434 4.7.8 6.2h-.25c-.233-.9-.483-2.683-.75-5.35a93.422 93.422 0 0 1-.35 5.6h-.15c-.066-1.467-.133-2.883-.2-4.25-.1.3-.216.617-.35.95-.033 1.466-.1 2.9-.2 4.3.101.533.267.983.5 1.35 0 .267-.083.4-.25.4-.1-.267-.2-.583-.3-.95a2.35 2.35 0 0 0-.05.45h-.15L390 184.7c-.1-.6-.184-1.3-.25-2.1a1.916 1.916 0 0 1-.15.4c0 2.267.084 3.9.25 4.9l-.149.35c-.434-.767-.717-1.833-.851-3.2-.033 0-.05.017-.05.05v.55c.134.767.3 1.467.5 2.1l-.1.1a6.226 6.226 0 0 1-.4-1c-.033.533-.05 1.083-.05 1.65.2.933.3 1.45.3 1.55 0 .3-.033.483-.1.55-.066.066-.117-.017-.15-.25v-.4c0-.267-.033-.567-.1-.9-.066 1.067-.15 2.133-.25 3.2h-.15c-.066-.7-.116-1.45-.149-2.25h-.101v-2.9l-.6 1.7-.2.8c.033.6.066 1.233.1 1.9-.1-.133-.216-.633-.35-1.5-.134.267-.25.55-.35.85-.367 2.066-.567 3.566-.601 4.5v.15c.101 0 .184-.05.25-.15l.15-.25c.066.1.1.316.1.65l-.1.1-.65-.1a89.49 89.49 0 0 1-.1-2.3c-.767 2.066-1.45 4-2.05 5.8.267.633.533 1.184.8 1.65v.1c-.3-.467-.584-.983-.851-1.55-1.3 3.767-2.25 6.8-2.85 9.1-.233.967-.45 2-.65 3.101l-.05 1.75c0 4.166.167 6.616.5 7.35h-.25c-.1-.333-.2-1.483-.3-3.45-.1-1.633-.167-2.833-.2-3.6v4.05h-.25v-2.9c-.2 1.4-.366 2.884-.5 4.45v.101h.15c.1.566.267 1.566.5 3 .1.433.217.85.35 1.25v1.199c.367 2.367.7 4.167 1 5.4v1.15l-.1.1c-.5-2.767-.9-5.15-1.2-7.15a167.405 167.405 0 0 1-.85-3.55c-.034.267-.051.55-.051.851h.101c.366 1.933.7 3.716 1 5.35l.1.4c.2.633.334 1.083.4 1.35-.066-.1-.117-.2-.15-.3v.649c.167 1.067.334 2.034.5 2.9.167.533.334 1.083.5 1.65l-.1.1a5.757 5.757 0 0 0-.25-.7c.399 2.467.6 4.05.6 4.75 0 .367-.033.601-.1.7h-.15a46.461 46.461 0 0 0-.3-2.25h-.2l-.45-2v1.85c.101.601.267 1.733.5 3.4l.2.5a1.55 1.55 0 0 0-.2-.25c.067.634.15 1.333.25 2.1.334 2.601.733 4.684 1.2 6.25l-.1.15c-.533-1.167-1.066-3.45-1.601-6.85-.1-.601-.183-1.15-.25-1.65v.75l.101.7c.233 1.733.35 2.684.35 2.85 0 .367-.033.601-.1.7.233 1.033.517 2.267.85 3.7.667 3 1 4.7 1 5.1v.2c0 .1-.033.184-.1.25-.367-1.333-.7-2.65-1-3.95-.467-.8-.851-1.666-1.15-2.6v.05c.101.533.217 1.134.351 1.8.433 2.101.649 3.634.649 4.601 0 .3-.033.5-.1.6h-.15c-.1-.6-.35-1.7-.75-3.3 0 .633-.033 1.45-.1 2.45 0 .866.1 1.633.3 2.3l-.25-1.5c.2.833.384 1.566.55 2.2.066.166.15.316.25.449l-.1.15c0-.033-.017-.05-.05-.05l.399 1.8h-.25c-.166-.866-.3-1.6-.399-2.2-.2-.434-.4-1.033-.601-1.8v-2.35a161.276 161.276 0 0 1-.25 4.1c.233.566.533 1.1.9 1.6v.15c-.4-.333-.717-.75-.95-1.25l-.1.8c.233 1.867.449 3.017.649 3.45-.333-.333-.6-1.017-.8-2.05l-.2 2.1v.05c-.133.967-.25 1.95-.35 2.95.166.834.366 1.4.6 1.7-.267-.167-.5-.5-.7-1-.1.533-.183 1.083-.25 1.65.167.6.367 1.133.601 1.6a4.114 4.114 0 0 1-.65-1.2c-.1.533-.184 1.066-.25 1.601.2.899.584 1.716 1.15 2.449v.15c-.634-.2-1.066-.7-1.3-1.5v-.2l-.2 1c-.066.434-.134.884-.2 1.351.066.066.134.149.2.25v.1a1.724 1.724 0 0 1-.25-.1c-.134.566-.25 1.166-.351 1.8.134.366.284.717.45 1.05l-.1.1a2.8 2.8 0 0 1-.45-.6c-.167.8-.333 1.616-.5 2.45 0 .033.017.05.05.05-.033.033-.066.05-.1.05-1.566 7.167-3.684 14.65-6.351 22.45-.933 2.866-2.616 7.566-5.05 14.1-2.1 5.967-3.5 10.867-4.2 14.7-.333 2.066-.866 4.4-1.6 7-.733 2.733-1.533 5.15-2.4 7.25-1.233 3.033-4.267 6.167-9.1 9.4-2.533 1.666-4.634 2.866-6.3 3.6a230.463 230.463 0 0 1-3.95 4.95c-6.2 7.5-10.917 11.25-14.15 11.25-1.566 0-3.083-.3-4.55-.9-1.934 1.934-4.3 2.9-7.1 2.9-1.434 0-2.684-.184-3.75-.55-1.4.7-3.15 1.05-5.25 1.05-1.634 0-3.101-.366-4.4-1.1-.967-.733-1.5-1.101-1.6-1.101-.4 0-1.101.2-2.101.601-1 .399-1.716.6-2.149.6-2.267 0-3.816-.65-4.65-1.95-.399-1.3-.6-1.983-.6-2.05 0-1.8 1.649-3.85 4.95-6.15 3.899-2.8 6.333-5.066 7.3-6.8.2-.366.416-.717.649-1.05-1.233.333-2.616.5-4.149.5-12.467-.167-18.8-.25-19-.25-2.467 0-4.2-.917-5.2-2.75-.5-1.866-.75-2.833-.75-2.9 0-1.533.233-2.517.7-2.949.367-.334 1.216-.534 2.55-.601 4.467-.3 8.8-1.566 13-3.8 6.033-3.2 10.917-4.8 14.65-4.8.366 0 .716.017 1.05.05a934.297 934.297 0 0 1 9.05-4.7c4.033-2.366 6.566-4.85 7.6-7.45.167-.767.334-1.5.5-2.199-1.133 1.233-1.767 1.933-1.899 2.1h-.15c.467-.7 1.2-1.616 2.2-2.75.267-1.1.55-2.116.85-3.05a110.192 110.192 0 0 0-1.149 1.8h-.15c.3-.533.717-1.316 1.25-2.35a24.917 24.917 0 0 1-2.35 2.85h-.15c.634-1 1.7-2.634 3.2-4.9.167-.233.316-.449.45-.649.066-.667.149-1.316.25-1.95l-.05.05c-1 2-1.867 3.566-2.601 4.7.066-.134.851-1.733 2.351-4.8.133-.3.283-.584.449-.851v-.25c-.866 1.5-1.5 2.634-1.899 3.4l-.15-.1c.8-1.7 1.55-3.217 2.25-4.551.066-.466.134-.949.2-1.449a154.761 154.761 0 0 0-1.8 3.85h-.15c.767-2 1.483-3.733 2.15-5.2.1-.633.2-1.283.3-1.95.033-.3.083-.6.15-.899-.267.5-.5.983-.7 1.45-.233.833-.367 1.533-.4 2.1h-.25c.066-.366.15-.75.25-1.15-.366.867-.616 1.634-.75 2.301l-.1.1c-.066 0-.117-.017-.15-.05v-.4c0-.366.45-1.517 1.351-3.45.267-.966.6-2.017 1-3.149.066-.134.116-.267.149-.4.167-1.066.351-2.133.55-3.2-.866 1.9-1.466 3.534-1.8 4.9h-.25c.033-.267.101-.55.2-.85-.3.833-.533 1.616-.7 2.35h-.25c.267-1 .617-2.15 1.05-3.45-.3.634-.6 1.283-.899 1.95h-.15c.233-.6.717-1.616 1.45-3.05.267-.867.583-1.767.95-2.7-1.101 2.233-1.851 3.85-2.25 4.85h-.351c-.033 0-.05-.116-.05-.35 0-.167.7-1.566 2.101-4.2-.101.066-.167.101-.2.101a1.896 1.896 0 0 0-.25.449l-.65-.1c.267-.333.533-.717.8-1.15.167-.966.851-2.833 2.051-5.6.267-.6.517-1.15.75-1.65 0-.1.017-.199.05-.3-.9 1.934-1.9 3.75-3 5.45l-.15-.1c1.167-1.834 2.25-4 3.25-6.5a3.98 3.98 0 0 0 .2-.5c.1-.434.184-.867.25-1.301-.3.7-.983 2.25-2.05 4.65l-.15-.1c.233-.767.45-1.483.65-2.15-.233.333-.45.667-.65 1h-.25c.434-.767.851-1.45 1.25-2.05.101-.467.217-.884.351-1.25l-.2.3h-.15c.167-.267.351-.583.55-.95.034-.166.067-.316.101-.45.166-.6.35-1.133.55-1.6-.134.2-.233.366-.3.5h-.4c.601-.9 1.2-1.934 1.8-3.1 0-.167.034-.334.101-.5-.267.533-.483.983-.65 1.35h-.25c.334-.866.667-1.684 1-2.45-.267.434-.517.9-.75 1.4-.267.6-.517 1.2-.75 1.8h-.25c.167-.934.517-2.116 1.05-3.55-.066.1-.116.2-.149.3h-.15l1-2.1c.334-.801.717-1.684 1.15-2.65.166-.8.35-1.6.55-2.4.1-.5.217-1 .35-1.5-1.333 3.434-2.35 5.9-3.05 7.4h-.25c.4-.967.767-1.85 1.101-2.65-.067.034-.101-.1-.101-.399 0-.134.167-.7.5-1.7h-.25c.634-2.233 1.717-4.967 3.25-8.2 0-.033.017-.066.05-.1.034-.134.084-.283.15-.45l.2-.6a256.95 256.95 0 0 1-3.15 6.6c.033-.1 1.15-2.65 3.351-7.65l.199-.399c.134-.601.284-1.167.45-1.7-1.233 2.533-2.267 4.45-3.1 5.75l-.15-.1c1.7-3.534 2.983-6.25 3.851-8.15l.199-.7c.2-1.133.4-2.149.601-3.05a67.78 67.78 0 0 1-4 7.75h-.15c.101-.2 1.566-3.25 4.4-9.15.1-.699.2-1.316.3-1.85.066-.434.65-3.083 1.75-7.95.7-3.133.983-5.733.85-7.8-.133-2.167-.149-5.267-.05-9.3.134-3.8.2-5.917.2-6.351 0-1.366-.25-3.017-.75-4.949-.5-1.9-.75-4.25-.75-7.051 0-4.3 1.767-12.25 5.3-23.85 0-.033.017-.067.05-.1.034-.2.101-.4.2-.6a2.946 2.946 0 0 0-.45.45c-.199.233-.383.45-.55.65-.033.1-.066.217-.1.35h-.15v-.05c-.5.566-.75.917-.75 1.05 0 .233.066.333.2.3l.3-.05-.1.1-.65-.1c.134-.4.45-.917.95-1.55a24.1 24.1 0 0 1-.3-3.05l-.601.9c-.3 1.5-.517 3.067-.649 4.7h-.15l-.1-2.1c0-.367.066-.883.2-1.55-.301.4-.601.833-.9 1.3a93.886 93.886 0 0 0-.15 3.6l-.149.1c-.167-.9-.267-1.867-.3-2.9a11.71 11.71 0 0 0-.75 1.05c-.167 1.067-.2 2.067-.101 3h-.25l-.1-2v-.4c-.4.5-.783 1.033-1.15 1.6-.333 1.667-.5 2.683-.5 3.05h-.25c.033-.533.134-1.367.3-2.5-.6.8-1.216 1.617-1.85 2.45-.3 1.4-.483 2.5-.55 3.3h-.15v-2.3c-.616.753-1.25 1.537-1.899 2.35.133.534.35.934.649 1.2-.166.167-.416.25-.75.25a17.29 17.29 0 0 1-.149-1.1c-.367.434-.733.9-1.101 1.4-.1.334-.217.65-.35.95-.066.6-.117 1.066-.15 1.4v.6h-.25v-1.1a3.79 3.79 0 0 1-.1-.801l-.4.5c0 .2-.033.334-.1.4h-.15v-.05c-.434.5-.85 1.017-1.25 1.55.134.533.384.95.75 1.25-.434-.134-.75-.483-.95-1.05-.399.5-.8.983-1.199 1.45.1.466.149.883.149 1.25l-.1.1c-.066-.066-.217-.35-.45-.85l-.8 1c-.167 6.533-.584 12.116-1.25 16.75-.4 2.767-.934 5.649-1.601 8.649l-.8 5.45h-.2a.56.56 0 0 0-.05.25 64.72 64.72 0 0 1-.25 2.3c-.033.134-.066.283-.1.45a53.932 53.932 0 0 0-.4 1.85v.051l-.1.399a1.803 1.803 0 0 0-.15.45c-.066.233-.166.65-.3 1.25l-.05.15c-.2.633-.434 1.466-.7 2.5a145.003 145.003 0 0 0-1.05 5.1h-.15a46.3 46.3 0 0 1 .351-2.4 56.586 56.586 0 0 1-1.2 4.4h-.15c.733-3.233 1.283-6.233 1.65-9-.3.9-.617 1.816-.95 2.75-.333 1.033-.9 2.884-1.7 5.55-.434 2.334-.684 4.233-.75 5.7h-.149a176.92 176.92 0 0 1-1.45 9.25h-.15c.167-3.533.384-6.033.65-7.5.066-.566.116-1.083.149-1.55-.466 1.6-.966 3.366-1.5 5.3-.1.366-.199.75-.3 1.15-.3 2.233-.467 3.683-.5 4.35h-.25a70.13 70.13 0 0 1 .15-1.9c-.101.467-.184.9-.25 1.301a19.504 19.504 0 0 0-.3 1.5c-.067.5-.101.916-.101 1.25l-.1.1v-.05c-.3 1.5-.55 2.684-.75 3.55h-.15c.2-1.533.384-2.866.55-4-.199.6-.383 1.217-.55 1.85-.233.7-.45 1.367-.649 2-.233 1.434-.351 2.617-.351 3.551l-.1.1c-.101-.066-.15-.35-.15-.85 0-.334.05-.817.15-1.45a344.05 344.05 0 0 0-1.05 2.8c-.034.566-.067 1.15-.101 1.75h-.25v-.75c-.133.934-.217 1.9-.25 2.9l-.1.1c-.101-.066-.15-.35-.15-.85 0-.334.066-.834.2-1.5-.167.366-.316.733-.45 1.1a41.987 41.987 0 0 0-.6 3.5h-.15v-1.85c-.833 1.767-1.649 3.283-2.45 4.55.267.6.4 1.5.4 2.7-3.967 10.066-6.967 15.85-9 17.35-2.033 1.434-6.934 4.1-14.7 8-9.033 4.5-14.733 6.75-17.1 6.75-1.934 0-3.25-.583-3.95-1.75-.333-1.134-.5-1.717-.5-1.75 0-1.5 2.833-4.167 8.5-8l.7-.45c-3.367.101-6.9.05-10.6-.149-3.167-.233-4.967-.351-5.4-.351-.4 0-1.483.2-3.25.601-.367.1-.7.183-1 .25.667 1.433 1 2.833 1 4.199 0 .101-.3 2.334-.9 6.7-1.233 4.3-3.433 6.45-6.6 6.45-1.067 0-2.133-.083-3.2-.25.433 1.566.767 2.816 1 3.75.767.9 1.233 2.35 1.4 4.35.167 2 .1 4.717-.2 8.15l.5.5c1.333.134 2.2-.4 2.6-1.6.467-1.267 1.434-1.9 2.9-1.9 1.233 0 3.216 1.017 5.95 3.05 3.2 2.367 5.05 4.783 5.55 7.25l1.25 5.65c.5 2.233.75 4.033.75 5.399 0 .5-.184 1.067-.55 1.7-.433 3.8-3.667 7.617-9.7 11.45-5.767 3.7-11.684 5.767-17.75 6.2-2.833 1.033-5.25 1.55-7.25 1.55-7.5 0-12.167-4.316-14-12.95-.567-2.7-.817-5.7-.75-9 .167-2.767.25-4.2.25-4.3.2-7.134.3-12.45.3-15.95 0-.066.017-.116.05-.149-1.133-1.167-1.983-2.667-2.55-4.5-.433-1.434-.783-3.434-1.05-6-.267-2.467-.517-4.017-.75-4.65-.633-1.733-2.133-5.233-4.5-10.5-.467-1.033-.8-2.3-1-3.8a23.022 23.022 0 0 1-.85-3.75c-.3-7.9-.684-13.05-1.15-15.45-.467-2.467-1.35-5.4-2.65-8.8-.033 0-.066.017-.1.05h-.15c-.033-.267-.25-1-.65-2.2-.3-.7-.6-1.416-.9-2.149-.467-1.034-.883-2-1.25-2.9.3.866.65 1.783 1.05 2.75l-.1.1a4.517 4.517 0 0 1-.6-1.05c.2.834.433 1.733.7 2.7-.7-.8-1.216-2.05-1.55-3.75a2.57 2.57 0 0 1-.05-.5 5.273 5.273 0 0 1-.75-1.15c.3 1.134.667 2.184 1.1 3.15l-.1.1c-.667-.966-1.15-2.233-1.45-3.8a3.4 3.4 0 0 1-.05-.55 1.937 1.937 0 0 1-.15-.4 5.163 5.163 0 0 1-.35-.75c.433 2 .683 3.184.75 3.551v.1c-.233-.3-.467-.983-.7-2.05-.3-.4-.5-.95-.6-1.65v-.05h-.05c0-.267-.017-.55-.05-.85-.1-.5-.167-.9-.2-1.2a9.676 9.676 0 0 1-.25-.75c-.4-1.4-.75-2.601-1.05-3.601.267 1.601.6 3.233 1 4.9-.4-.6-.7-1.434-.9-2.5a5.807 5.807 0 0 1-.45-1.1l.1.699c0 .434-.083.483-.25.15-.233-.7-.533-2.55-.9-5.55-.033-.367-.066-.7-.1-1 .034.934.083 1.95.15 3.05l.1 1.75h-.25a24.161 24.161 0 0 0-.15-1.75h-.1c-.167-.934-.3-2-.4-3.2a61.576 61.576 0 0 1-.2-1.3h-.15c-.2-1.3-.383-2.517-.55-3.65a4 4 0 0 1-.05.65h-.15c0-.634-.017-1.384-.05-2.25l-.45-2.8V257h-.25c.1-.667.133-1.417.1-2.25h-.1c-.2-.8-.517-2.467-.95-5-.3-.967-.6-1.967-.9-3 .066.934.1 1.733.1 2.4 0 .5-.033.866-.1 1.1h-.15c0-1.767-.066-3.333-.2-4.7-.3-.899-.583-1.816-.85-2.75.167 1.134.267 2.117.3 2.95h-.25a122.02 122.02 0 0 0-.5-4.45c-.566-1.899-1.117-3.733-1.65-5.5.033.367.083.767.15 1.2h-.15c.033.233.083.467.15.7.667 3.1 1 4.767 1 5v.3c0 .1-.033.184-.1.25-.467-1.8-.85-3.467-1.15-5h-.25c-.033-.434-.05-.866-.05-1.3-.4-2-.683-3.7-.85-5.101-.367-1.133-.717-2.216-1.05-3.25-.033.034-.05.084-.05.15.1.934.233 2.017.4 3.25l-.25.35c-.4-.5-.767-1.5-1.1-3-.434-.899-.883-2.399-1.35-4.5.1 1.733.367 3.2.8 4.4-.333-.066-.6-.333-.8-.8l-.05.05c-.367-.533-.6-1.333-.7-2.4-.033-.433-.05-1.316-.05-2.649v-.2c-.1 1.467-.133 2.634-.1 3.5l.1.25c-.267-.134-.4-.783-.4-1.95 0-.7.034-1.533.1-2.5-.233-.467-.45-.983-.65-1.55.033.333.05.583.05.75 0 .333-.017.467-.05.4 0 .733.017 1.566.05 2.5l-.1.1a6.521 6.521 0 0 1-.25-1.85v-1.4a4.85 4.85 0 0 1-.25-.75h-.05c-.033.434-.066.85-.1 1.25h-.25a6.779 6.779 0 0 1-.1-1.2c0-.3.05-.816.15-1.55a20.31 20.31 0 0 1-.2-2.1 3.636 3.636 0 0 1-.15-.45c0 .533-.017.967-.05 1.3h-.1c-.067.333-.1.7-.1 1.1.1.767.2 1.567.3 2.4-.2-.267-.367-.75-.5-1.45v.101c-.2-.301-.45-1.284-.75-2.95v.8h-.25v-2.35a42.772 42.772 0 0 1-.3-2.2c-.133-.4-.25-.884-.35-1.45a24.18 24.18 0 0 1-.2-1.5h-.35c-.033-.134-.184-.884-.45-2.25.033.5.083 1.05.15 1.65.2 1.699.417 2.816.65 3.35-.367-.267-.633-.934-.8-2l-.1-.3c-.033 0-.066.017-.1.05-.667-1.434-1.483-4.05-2.45-7.85-.333-1.267-.617-2.4-.85-3.4.1.6.2 1.134.3 1.6v.15c-.167-.434-.317-.9-.45-1.4.033.2.067.417.1.65l-.15.25c-.6-1-1.083-2.2-1.45-3.6.1.6.2 1.217.3 1.85h-.25a543.69 543.69 0 0 1-.8-4.55l-.1-.2c.1 1.033.15 1.733.15 2.1 0 .133-.117.6-.35 1.4h-.15c-.2-.967-.367-2-.5-3.1l-.1 2.1-.25.25c-.1-.067-.2-.167-.3-.3-.066.667-.133 1.433-.2 2.3h-.15l-.2-2.7c0-.3.017-.783.05-1.45a16.437 16.437 0 0 1-.15-1.45c-.033-.333-.05-.95-.05-1.85a241.35 241.35 0 0 0-.5 3.2h-.15c-.066-.233-.1-.567-.1-1 .233-2.567.4-4.45.5-5.65-.067-.233-.133-.45-.2-.65a1.66 1.66 0 0 0-.05.4c-.067 1.5-.15 2.683-.25 3.55l-.5.1v-.1c-.034.1-.05.2-.05.3.033.9.083 1.833.15 2.8.2.067.1.1-.3.1-.667 0-1.067-.9-1.2-2.7v-.65c-.4-.433-.6-1-.6-1.7 0-.267.033-.617.1-1.05.167-1.933.3-3.583.4-4.95v-.15c0-1.367.033-2.617.1-3.75a156.176 156.176 0 0 0-1.5 8.35h-.25c-.133-.667-.2-1.35-.2-2.05 0-.7.367-2.5 1.1-5.4-.8 1.633-1.467 2.95-2 3.95h-.15c.4-1.6 1.184-3.517 2.35-5.75.167-.333.333-.65.5-.95.067-.2.133-.383.2-.55v-1.1c-1.533 2.767-3.167 5.217-4.9 7.35h-.15c1.167-1.733 2.833-4.383 5-7.95-.233-1.3-.417-2.75-.55-4.35-.033-.567-.05-1.1-.05-1.6l-.7-2.3c0 .267.017.534.05.8v.65a15.76 15.76 0 0 1-.1 1h-.15v-1.15c-.333-1.5-.65-2.85-.95-4.05.066 1.833.133 3.983.2 6.45l-.1.1c-.7-.867-1.05-2.167-1.05-3.9-.066.7-.133 1.216-.2 1.55h-.15a9.831 9.831 0 0 1-.15-1.1 3.153 3.153 0 0 0-.2.6h-.15c-.267-2-.466-3.583-.6-4.75a7.583 7.583 0 0 1-.15.75h-.25c-.066-.333-.1-.917-.1-1.75v-.65c-.034.133-.05.25-.05.35-.033.7-.066 1.3-.1 1.8h-.1c-.1 1-.15 1.717-.15 2.15l-.1.1c-.1-.167-.15-.483-.15-.95 0-.367.083-1.233.25-2.6v-.5c-.3 2.566-.5 4-.6 4.3h-.15c.267-1.167.4-2.417.4-3.75 0-.6.1-1.95.3-4.05v-2.55l-.05-.05c-.267 1.967-.4 3.1-.4 3.4 0 .1-.033.183-.1.25-.133-.267-.217-.7-.25-1.3l-.2.1c.1.934.2 1.833.3 2.7-.633-.767-1.017-1.8-1.15-3.1-.033-.2-.05-.483-.05-.85l-.15 3.45h-.15c-.033-1.233-.017-2.95.05-5.15.066-2.033.1-3.567.1-4.6v-.65c-.067.167-.15.3-.25.4h-.1c-.067.7-.117 1.45-.15 2.25h-.15v-6.75c.067-.433.117-.967.15-1.6l-.4-1.4c-.033 1.067-.066 1.9-.1 2.5h-.15v-3.35c-.1-.267-.183-.517-.25-.75v.35h-.25v-1.2c-.233-.833-.466-1.633-.7-2.4-.1.567-.2 1.184-.3 1.85 0 .1-.033.183-.1.25-.067 0-.117-.017-.15-.05v-.4c.133-.933.233-1.733.3-2.4-1.4-4.7-2.583-8.733-3.55-12.1-5.367 14.967-11.4 22.45-18.1 22.45-4.567 0-8.633-1.817-12.2-5.45-2.367-2.4-3.95-4.75-4.75-7.05-.633-1.8-1.583-4.017-2.85-6.65-1.667-1-2.8-2.017-3.4-3.05-.6-1-.9-2.5-.9-4.5v-.75c-.467-.667-.8-1.65-1-2.95-.333-2.033-.767-3.6-1.3-4.7-5.167-3.1-9.7-5.066-13.6-5.9 0-.067-.034-.217-.1-.45-.067-.133-.117-.367-.15-.7 0-.033-.017-.05-.05-.05-.6-.466-.9-1.367-.9-2.7.033-.3.05-.583.05-.85a6.322 6.322 0 0 1-.35-2.1c0-.433.017-.8.05-1.1-.5-1.733-1-3.8-1.5-6.2a3.663 3.663 0 0 0-.15-.65c-.8-.633-1.4-1.784-1.8-3.45-.066-.333-.133-.7-.2-1.1-1.033-2-1.55-3.883-1.55-5.65 0-.767.133-1.55.4-2.35.133-.467.3-.833.5-1.1v-.15c.066-1.233.1-1.867.1-1.9 0-2.133.034-3.533.1-4.2.133-1.633.483-2.933 1.05-3.9-.434 1-.7 2.35-.8 4.05-.066.7-.1 2.033-.1 4v.5c.1-1.867.35-3.6.75-5.2v-.35h.05c.1-.367.2-.717.3-1.05.3-2.733.9-4.55 1.8-5.45-.6 1.1-1.034 2.4-1.3 3.9a15.8 15.8 0 0 1 1.8-3.5c.667-2.4 1.75-4.45 3.25-6.15-1.167 1.6-2.083 3.4-2.75 5.4.1-.167.216-.316.35-.45.1-.233.184-.45.25-.65.767-1.767 1.684-3.167 2.75-4.2 1.267-2.067 2.983-4.433 5.15-7.1a850.65 850.65 0 0 0-3.35 4.9c.367-.367.75-.7 1.15-1 .9-1.633 1.717-2.933 2.45-3.9l.1.1c.267-.933.483-1.6.65-2 .633-1.767 1.3-2.883 2-3.35-.167.934-.6 2.15-1.3 3.65l-.65 1.4c.667-.9 1.267-1.7 1.8-2.4l.85-1.7h-.05a2.185 2.185 0 0 0-.3-.2c.434-.5.733-.75.9-.75l.05.1c0-.3.017-.583.05-.85h.15l.05-.05c.033.033.05.183.05.45 0 .167-.017.367-.05.6.067-.1.133-.183.2-.25l.05.05c.367-.567.6-.917.7-1.05a1.916 1.916 0 0 0-.15.4c.2-.233.417-.45.65-.65a51.16 51.16 0 0 0-1.4 2.3c-.1.167-.216.367-.35.6-.067.233-.133.517-.2.85.433-.533.917-1.05 1.45-1.55a17.437 17.437 0 0 1 1.75-2.2c-.167.767-.383 1.217-.65 1.35 0-.167.05-.333.15-.5-.3.433-.617.9-.95 1.4h.2a2.817 2.817 0 0 0-.45.45c-.2.267-.383.566-.55.9h.1c-.1.1-.2.183-.3.25-.133.2-.25.4-.35.6.067-.067.15-.133.25-.2a.791.791 0 0 1 .2-.15c.333-.467.617-.833.85-1.1-.233.3-.45.6-.65.9.267-.233.534-.45.8-.65 1-1.5 2.066-3.083 3.2-4.75h.15c.066.133.1.333.1.6 0 .067-.183.4-.55 1 .167-.133.4-.25.7-.35l.05-.05c.033.033.05.183.05.45 0 .567-.517 1.667-1.55 3.3a5.843 5.843 0 0 0-.2.45c2.067-2.367 3.15-4.167 3.25-5.4h.15c.033.067.066.1.1.1v.4c0 .767-.617 2-1.85 3.7.1-.1.216-.184.35-.25.733-.967 1.233-1.783 1.5-2.45h.15c.066.067.15.117.25.15.066.034.1.15.1.35.967-1.7 1.85-2.95 2.65-3.75-1.267 2-2.284 3.684-3.05 5.05h.1c.167-.2.317-.4.45-.6.466-.967.966-1.8 1.5-2.5l.25.05c.2.067.316.133.35.2-.367.233-.7.55-1 .95.267-.3.483-.517.65-.65-.167.3-.333.583-.5.85.966-1.233 1.8-2.1 2.5-2.6 0 .1.033.233.1.4 1.133-1.267 1.767-2.066 1.9-2.4l.05-.05c.033.033.05.183.05.45 0 .2-.617 1-1.85 2.4v.35c0 .167-.083.4-.25.7.2-.233.367-.45.5-.65l.6.15c-.267.233-.55.483-.85.75.6-.433 1.267-.883 2-1.35 0 .033-.017.067-.05.1.2-.167.383-.3.55-.4V44c-.633.433-1.517 1.367-2.65 2.8l.6-.3 2-2.25.05-.05c.233-.267.4-.45.5-.55a.63.63 0 0 1-.1.15 3.7 3.7 0 0 1 .55-.45c.567-.833 1-1.567 1.3-2.2-.2.567-.5 1.184-.9 1.85.633-.533 1.184-.883 1.65-1.05.6-.5 1.183-.934 1.75-1.3l-2.75 2.75c-.2.167-.567.55-1.1 1.15.967-.966 1.917-1.767 2.85-2.4-.733 1.1-1.35 2.033-1.85 2.8.133-.167.267-.3.4-.4.833-.8 1.45-1.4 1.85-1.8.133-.167.25-.3.35-.4.5.066.75.2.75.4-.534.267-1.184.733-1.95 1.4l-.4.7c.033-.033.1-.05.2-.05.467-.833 1.017-1.383 1.65-1.65-.034.267-.083.55-.15.85.5-.867.9-1.433 1.2-1.7.333-.466.65-.85.95-1.15-.1.8-.55 1.9-1.35 3.3h.35c.6-.7 1.05-1.233 1.35-1.6v-.2h.15l.1-.05c.5-1.733.75-2.717.75-2.95h.15c.033.067.066.1.1.1v.4c0 .267-.167 1.033-.5 2.3h.1c.233-.467.517-.95.85-1.45.2-.433.433-.883.7-1.35-.034.1-.083.267-.15.5.1-.167.2-.316.3-.45.533-1.434.85-2.284.95-2.55h.15l.048-.05c.033.033.05.183.05.45 0 .167-.55 1.617-1.65 4.35a23.631 23.631 0 0 0-.6 1.5l.7-.7c.2-.267.4-.5.6-.7.033-.1.066-.183.1-.25.167-.267.316-.517.45-.75a59.69 59.69 0 0 1 2.55-5.65l.35.05c.7-1.367 1.333-2.45 1.9-3.25a473.23 473.23 0 0 0-1.65 3.8V36a22.12 22.12 0 0 0-.7 1.65c.933-1.6 1.55-2.517 1.85-2.75-.167.4-.317.783-.45 1.15 1.933-3.367 3.417-5.5 4.45-6.4-1.767 2.967-3.284 5.667-4.55 8.1l1.35-1.25.05-.05c.2-.567.434-1.133.7-1.7.967-2.167 1.867-3.867 2.7-5.1a35.066 35.066 0 0 1-.95 3.35c1.267-2.3 2.033-3.917 2.3-4.85h.15c.066.067.15.117.25.15.066.034.1.184.1.45 0 .367-.833 2.017-2.5 4.95l.25.05.1-.1c.267-.467.567-.967.9-1.5 1.067-2.4 1.65-3.9 1.75-4.5h.15l.4.6c-.167.4-.367.85-.6 1.35.6-.833 1.117-1.4 1.55-1.7.4-.7.817-1.45 1.25-2.25.1 0 .233.033.4.1.167.1.25.183.25.25-.434.467-.85 1.017-1.25 1.65a.547.547 0 0 0-.1.15c-.434.667-.85 1.417-1.25 2.25.2-.267.383-.466.55-.6.833-1.2 1.684-2.133 2.55-2.8l.1.1c-.767.8-1.617 2.017-2.55 3.65l.9-.6c.9-1.7 1.833-3.083 2.8-4.15-.633.934-1.317 2.15-2.05 3.65.2-.167.417-.316.65-.45 1.133-1.8 2.217-2.8 3.25-3-.333.6-.633 1.133-.9 1.6.367-.233.767-.45 1.2-.65.833-1.1 1.4-1.983 1.7-2.65h.15a.547.547 0 0 0 .1.15c.034.034.05.184.05.45s-.217.733-.65 1.4c.6-.333 1.233-.633 1.9-.9.3-.733.583-1.183.85-1.35-.167.434-.333.833-.5 1.2.333-.167.7-.317 1.1-.45.2-.433.45-.917.75-1.45l.35-.1c.1.033.15.167.15.4 0 .067-.1.317-.3.75a41.526 41.526 0 0 1 5.55-1.75c.833-.767 1.3-1.217 1.4-1.35a7.392 7.392 0 0 1-.75 1.15c3.7-.933 7.617-1.517 11.75-1.75v-.05h13c.5.1 1 .217 1.5.35 5.833-3.4 14.3-4.4 25.4-3 4.867.6 10.95 1.767 18.25 3.5 4.066.933 9.933 2.333 17.6 4.2 22.966 4.233 34.85 6.417 35.65 6.55 16.266 2.733 32.983 4.967 50.15 6.7l16.45.2c7.434.267 18.116 2.483 32.05 6.65 5.033 1.5 9.283 2.967 12.75 4.4 4.7-.267 7.783-.183 9.25.25l13.85.2c5.434 1.8 9.817 4.817 13.15 9.05 1.7 2.167 3.783 5.917 6.25 11.25zm-82.8 107.95c.1-.4.233-.8.399-1.2-.133.167-.25.35-.35.55a4.12 4.12 0 0 0-.049.65zm-.85 2.4c-.033.033-.05.067-.05.1h.05v-.1zm-1.9 3.95h-.15c-.133.566-.283 1.2-.45 1.9.134-.167.284-.333.45-.5.2-.2.417-.433.65-.7.166-.633.366-1.267.6-1.9-.033-.233-.066-.45-.1-.65h-.15a.791.791 0 0 1 .15-.2c-.033-.033-.05-.083-.05-.15-.267.6-.384 1.133-.351 1.6l-.1.1-.3-.05a9.36 9.36 0 0 1-.199.55zm58.9-29.5a4.96 4.96 0 0 0-.25.75c.233.5.517 1.066.851 1.7-.066-.5-.15-1.117-.25-1.85-.135-.2-.251-.4-.351-.6zm-6.25 16.55v.6c.134.633.284 1.25.45 1.85l-.1-3.3c-.101.233-.2.467-.3.7a.376.376 0 0 1-.05.15zm5.2-.15a84.16 84.16 0 0 1-.55-2.45c.066.567.15 1.15.25 1.75l.3.7zm10.125-41.025a.277.277 0 0 1 .025-.175l-.2-.3c.062.155.12.313.175.475zM379.2 224.5a63.968 63.968 0 0 1-.351-2.7c-.033.334-.066.7-.1 1.101.168.533.317 1.066.451 1.599zm1.15 8v1.1a7.5 7.5 0 0 1 .45 1.15c-.1-.7-.217-1.45-.35-2.25h-.1zm-.05 14.3a21.33 21.33 0 0 0 1.05 2.851 118.733 118.733 0 0 1-1-4.351c-.034.5-.05 1-.05 1.5zm.25-2.55c0-1.467-.066-2.684-.2-3.65v2.9c.067.233.133.483.2.75zm-49.8 27.05c-1.3 3.533-2.1 5.733-2.4 6.601.7-1.767 1.267-3.2 1.7-4.301.267-.699.533-1.383.8-2.05l.2-.899c-.1.166-.184.35-.25.55-.033.032-.05.066-.05.099zm-4.45 21.6a34.863 34.863 0 0 0-1.7 4.75c.167-.367.351-.767.551-1.2.233-.7.517-1.517.85-2.45a1.09 1.09 0 0 1 .15-.35c.033-.266.082-.516.149-.75zm-2.15 6.5a6.614 6.614 0 0 0-.15.8c.1-.233.2-.45.3-.65v-.25a1.4 1.4 0 0 1 .05-.3l-.2.4zm1.05-.65a47.777 47.777 0 0 0-.75 2c.2-.467.416-.95.649-1.45.035-.2.068-.383.101-.55zm-.5.05c.267-.467.517-.916.75-1.35.066-.467.149-.917.25-1.351a8.47 8.47 0 0 0-.45.95c-.3.733-.5 1.334-.6 1.8l.05-.049zm-.55 6.3c-.2.5-.367.983-.5 1.45.133-.3.267-.566.399-.8.034-.233.067-.45.101-.65zM203.8 138.45c-.633-.8-1.2-1.45-1.7-1.95a4.595 4.595 0 0 0-.5-.35c.066 1.4.133 2.934.2 4.6.233 6.2.95 11.283 2.15 15.25v13.05a41.71 41.71 0 0 1 1.75 2.1c2.966 3.733 5.667 7.817 8.1 12.25 2.434 4.5 3.65 7.65 3.65 9.45 0 .8-.367 3.316-1.1 7.55.133.3.283.616.45.949 1.167 2.5 1.983 4.4 2.45 5.7.833 2.233 1.5 4.917 2 8.05.9 1.801 1.55 3.267 1.95 4.4-.4-.566-.967-1.55-1.7-2.95.067.601.15 1.2.25 1.8.833 1.434 1.4 2.65 1.7 3.65h-.15c.434.9.817 1.733 1.15 2.5h-.4c-.233-.8-.933-2.283-2.1-4.45.1 1 .216 1.934.35 2.8 0 .067.017.134.05.2a476.442 476.442 0 0 0 1.95 4.7h-.25c-.6-1.366-1.133-2.583-1.6-3.65.133 1.134.267 2.167.4 3.101.6 1.233 1 2.25 1.2 3.05h-.25c-.1-.333-.35-.934-.75-1.8.133 1 .267 1.767.4 2.3.066.267.133.55.2.85a72.162 72.162 0 0 0 1.15 3.551l-.1.1c-.233-.366-.45-.767-.65-1.2.034.233.083.483.15.75.3.934.667 2 1.1 3.2-.3-.6-.633-1.384-1-2.35.1.633.217 1.316.35 2.05.767 2.166 1.15 3.816 1.15 4.95V243c-.033-.033-.066-.033-.1 0h-.15c-.066-.4-.167-.85-.3-1.35l.1.899c.233 1.566.45 3.033.65 4.4.367 1.033.8 2.217 1.3 3.55h-.25c-.167-.4-.466-1.267-.9-2.6.233 1.3.467 2.5.7 3.6.6 1.366 1 2.417 1.2 3.15l-.1.1a78.812 78.812 0 0 0-.75-1.55c.066.366.15.733.25 1.1.167.601.316 1.233.45 1.9.267.967.4 1.7.4 2.2v.35h-.05c.1.7.167 1.45.2 2.25.2.566.4 1.184.6 1.85a5.922 5.922 0 0 1-.55-.899c.033.633.05 1.3.05 2 .5 1.233.8 2 .9 2.3-.267-.467-.567-1.1-.9-1.9v.45c.3 1.267.633 2.667 1 4.2h-.25a215.24 215.24 0 0 0-.75-3.4c-.033.2-.05.4-.05.601-.033.666-.067 1.399-.1 2.2.233 1.399.45 2.517.65 3.35v1.65l-.1.1c-.2-1.667-.383-2.983-.55-3.95v-.25a51.474 51.474 0 0 0-.15 2.45c.433 2.1.7 3.517.8 4.25h-.25c-.1-.934-.283-2.083-.55-3.45.067.5.15 1.101.25 1.8.333 1.9.517 3.034.55 3.4h-.25c-.267-1.5-.483-2.767-.65-3.8a506.583 506.583 0 0 0-.2 3.8c0 6.9.5 13.9 1.5 21 .6-.667 1.483-1.3 2.65-1.9 1.5-.767 4.383-2.133 8.65-4.1.233-.134 3.567-.917 10-2.35 6.133-1.367 9.633-2.5 10.5-3.4.8-.833 1.467-2.233 2-4.2.7-2.434 1.117-3.783 1.25-4.05.267-.533.483-1.267.65-2.2-.6 1.134-1.25 2.367-1.95 3.7h-.4c.434-.767.95-1.684 1.55-2.75 0-.167.017-.333.05-.5h-.1c.034-.3.083-.634.15-1h-.15c.133-.4.267-.816.4-1.25.2-.8.466-1.65.8-2.55v-1.351c-.3.7-.55 1.384-.75 2.051-.033.133-.05.25-.05.35h-.05c-.267.9-.417 1.733-.45 2.5h-.15v-1.5c.1-.366.217-.75.35-1.15l-.2.4-.1-.05a3.4 3.4 0 0 0-.05.55h-.25c-.033-2.333.35-5.05 1.15-8.15a.547.547 0 0 1-.15-.1h.2c.133-.634.3-1.283.5-1.95.1-.3.2-.633.3-1 .1-1.166.217-2.316.35-3.45-.467 1.101-.717 1.717-.75 1.851-.633 1.7-1.15 3.3-1.55 4.8a2.57 2.57 0 0 0-.05.5h-.05a29.183 29.183 0 0 0-.7 3.75h-.25c.133-2.267.567-4.634 1.3-7.1.133-.601.3-1.233.5-1.9.167-1.6.533-3.434 1.1-5.5l-.05-.05c-.667 1.733-1.033 3.25-1.1 4.55h-.25c.167-2.2.883-4.884 2.15-8.05.2-.533.417-1.017.65-1.45.367-1.967 1.05-4.05 2.05-6.25.033-.134.067-.25.1-.35.067-.267.15-.551.25-.851-.367.7-.75 1.45-1.15 2.25-1.467 3.134-2.4 5.867-2.8 8.2h-.25c.467-2.434 1.367-5.167 2.7-8.2a59.321 59.321 0 0 1 2.2-4.35c2.3-6.9 5.816-14.783 10.55-23.65.967-1.833 2.217-3.85 3.75-6.05.733-4.967 2.167-11.434 4.3-19.4.667-2.5 2.566-9 5.7-19.5 0-.434.017-.85.05-1.25-.3.3-.633.517-1 .65.4-.967.767-1.833 1.101-2.6.066-1.267.149-2.533.25-3.8-.467 1-.917 2.1-1.351 3.3l-.1.1c-.066 0-.117-.017-.15-.05v-.4c0-.066.017-.167.05-.3h-.3c.334-.533.983-1.767 1.95-3.7.033-.5.083-1 .15-1.5a146.74 146.74 0 0 0-1.45 2.7h-.15c.5-.967 1.066-2.05 1.7-3.25.1-1.167.233-2.35.4-3.55-.667 1.233-1.15 2.333-1.45 3.3-.101.3-.15.233-.15-.2 0-.6.566-1.8 1.7-3.6.033-.367.083-.733.15-1.1-1.034 1.833-1.717 3.133-2.051 3.9h-.3c.601-1.233 1.417-2.783 2.45-4.65l.4-2.5c-.034.033-.051.066-.051.1-.5.8-.916 1.517-1.25 2.15v.05l-.05.05c-.467 1.1-1.083 2.7-1.85 4.8h-.15c.634-2.6 1.184-4.567 1.65-5.9.066-.133.116-.267.149-.4-.033 0-.05-.133-.05-.4 0-.533.5-1.716 1.5-3.55.334-.633.667-1.2 1-1.7.033-.167.066-.333.101-.5-.233.367-.483.75-.75 1.15-1.167 1.8-1.9 2.983-2.2 3.55l-.15-.1c.533-.733 1.334-2.083 2.4-4.05.366-.633.684-1.184.95-1.65.033-.1.05-.2.05-.3-.066.1-.134.217-.2.35-.934 1.533-1.533 2.617-1.8 3.25h-.15v-.35c0-.167.5-1.15 1.5-2.95.4-.733.733-1.317 1-1.75.267-1.233.55-2.417.851-3.55-.834.367-1.65.717-2.45 1.05-.3.4-.717.917-1.25 1.55l-.05-.05c-.4.466-.634.733-.7.8l-.15-.1c.267-.533.684-1.133 1.25-1.8-.066 0-.1.017-.1.05-1.533.8-2.55 1.367-3.05 1.7-1.634 1.033-2.534 1.867-2.7 2.5l-.4-.1c.334-.433 1.4-1.3 3.2-2.6.366-.267.767-.55 1.2-.85-1 .367-1.983.717-2.95 1.05-1.434 1.2-2.5 2.083-3.2 2.65.334-.533 1.084-1.3 2.25-2.3-.866.267-1.717.517-2.55.75-1.066.466-1.634.816-1.7 1.05-.066.067-.233.1-.5.1-.066.133-.1 0-.1-.4-.667.333-1.417.733-2.25 1.2h-.101c-.5.367-1.017.7-1.55 1-.066.133-.1.083-.1-.15l-.5.6-.4-.1c.2-.467.717-1.083 1.55-1.85-.466.1-.916.2-1.35.3-.333.2-.667.417-1 .65a543.59 543.59 0 0 1-3.4 2.2l-.05.85-.1.1c-.033-.3-.05-.583-.05-.85l-.2.1-.15-.1c.101-.1.2-.183.3-.25a43.27 43.27 0 0 0-.199-1.9c-.334.033-.65.067-.95.1a16.82 16.82 0 0 1-.85 1.6c.1.267.167.5.2.7l-.1.1c-.1-.1-.2-.25-.3-.45l-.2.2c-.167-.033-.284-.083-.35-.15-.033-.033-.05-.184-.05-.45 0-.167.067-.367.2-.6l-.05-.1c-.1.133-.184.267-.25.4v.05c0 .367-.167.65-.5.85-.267-.167-.883-.733-1.85-1.7-.2 0-.4.017-.6.05.133.1.283.217.45.35.767.667 1.3 1.1 1.6 1.3-.833.033-1.566-.317-2.2-1.05a4.506 4.506 0 0 0-.45-.55c-.367 0-.733.017-1.1.05.9.3 1.45.517 1.65.65v.15a106.036 106.036 0 0 1-3.15-.75h-.65c1.067.3 1.7.55 1.9.75-.833.1-1.833-.05-3-.45-.333-.1-.633-.2-.9-.3h-2.2c1 .6 1.95.933 2.85 1 .034.067-.15.1-.55.1-1.433 0-2.617-.35-3.55-1.05-.034 0-.05-.017-.05-.05h-1.1l2.5 1c-.7-.167-1.316-.333-1.85-.5a32.645 32.645 0 0 1-4.05-.5h-.1c.967.233 2.05.483 3.25.75-.1.1-.466.15-1.1.15-.867 0-2.067-.2-3.6-.6a36.3 36.3 0 0 1-2.75-.3h-1.35c.967.2 1.783.367 2.45.5l.6.25c-.1.1-.433.15-1 .15-2.2 0-4.267-.3-6.2-.9h-.7c1.434.533 3.067.95 4.9 1.25-2.233-.233-4.066-.617-5.5-1.15v.1l2.5 1.05c-.9-.333-1.783-.667-2.65-1h-.55c1.933 1.033 3.583 1.783 4.95 2.25-1.433-.233-3.033-.817-4.8-1.75-.5-.267-.983-.517-1.45-.75l-.3-.1c-.167.067-.417.1-.75.1h-.2a14.03 14.03 0 0 0 1.65.6v.15c-.8-.267-1.517-.517-2.15-.75-.5-.1-1.167-.283-2-.55a59.702 59.702 0 0 1-4.1-.85c.833.5 1.75.917 2.75 1.25V150c.2.067.417.167.65.3 1.033.333 2.1.6 3.2.8.3.1.233.15-.2.15a6.96 6.96 0 0 1-1.15-.1v.1a2.632 2.632 0 0 0-.35-.15c-1.167-.267-2.55-.767-4.15-1.5-1.1-.533-1.95-1.033-2.55-1.5a3.442 3.442 0 0 1-.4-.1c.3.367.55.683.75.95.3.233.567.417.8.55-.2-.1-.417-.217-.65-.35 0 .033.017.067.05.1.133.067.25.117.35.15 1.8.867 3.633 1.567 5.5 2.1-1.6-.267-3.583-.967-5.95-2.1h-.3c.567.6.9.967 1 1.1-.333-.2-.783-.567-1.35-1.1-.434 0-.867-.066-1.3-.2.5.533.85.933 1.05 1.2v.1a27.331 27.331 0 0 1-1.6-1.5 10.11 10.11 0 0 1-.55-.2c.434.333.9.7 1.4 1.1v.1c-.8-.5-1.55-.967-2.25-1.4v.15c.1.067.133.133.1.2.2.133.417.283.65.45v.1a14.356 14.356 0 0 1-.75-.5h-.35a1.66 1.66 0 0 1-.4-.05c.7.566 1.533 1.216 2.5 1.95v.1c-.633-.433-1.217-.833-1.75-1.2.333.267.667.55 1 .85v.1c-.934-.6-2-1.367-3.2-2.3.2.4.3.7.3.9v.3c.3.267.633.55 1 .85-1.533-.967-3.033-2.183-4.5-3.65a6.895 6.895 0 0 1-.7-.7c.066.233.1.467.1.7a76.02 76.02 0 0 0 2.25 2.15c-.5-.333-1.25-1-2.25-2v.25c.867.933 1.483 1.633 1.85 2.1l-.1.15a1236 1236 0 0 0-1.95-1.75.665.665 0 0 1-.55.25c-.534 0-.85-.25-.95-.75-.067-.5-.333-.75-.8-.75-.2 0-1.917-1.833-5.15-5.5h-1.1c-.534 0-1.067-.017-1.6-.05-4.932-.233-8.116-1.067-9.549-2.5zm20.1 7.6c.934.967 2.133 2.083 3.6 3.35-.233-.4-.567-.967-1-1.7-.4-.3-.817-.65-1.25-1.05a3.793 3.793 0 0 0-.4-.35c-.033-.033-.067-.05-.1-.05.333.467.6.8.8 1-.5-.267-1.017-.667-1.55-1.2h-.1zm12.9 3.7c-.566-.267-1.333-.683-2.3-1.25a2.753 2.753 0 0 0-.7-.2c.434.233.95.5 1.55.8.467.233.95.45 1.45.65zm39.05 1.2c.9-.833 1.801-1.567 2.7-2.2-.899.167-1.8.317-2.7.45v1.75zm-2.65-1.25c0 .033.017.066.05.1l.2-.3h-.15l-.1.2zm-14.8.3h-.45c.433.1.9.2 1.4.3-.333-.1-.65-.2-.95-.3zm37.75 2.85c.233-.4.466-.75.699-1.05.034-.3.084-.583.15-.85-.5.933-.9 1.7-1.2 2.3.101-.167.218-.3.351-.4zM130.45 31.1c.2-.467.45-.967.75-1.5-.434.566-.85 1.167-1.25 1.8v.05l-.05.05c-.066.2-.15.417-.25.65.267-.4.533-.75.8-1.05zm-35.1 18.3h.05c0-.029.017-.046.05-.05a.165.165 0 0 0-.1.05zm-.45-1.45c0-.133.017-.25.05-.35-.5.733-.967 1.467-1.4 2.2.467-.667.883-1.233 1.25-1.7a.57.57 0 0 1 .1-.15zm4.45-1.7c-.133.233-.3.5-.5.8v.2c0 .067-.017.167-.05.3.2-.133.4-.25.6-.35.1-.2.2-.383.3-.55a.435.435 0 0 0-.05.2c.133-.267.267-.517.4-.75l-.7.15zm.45 2.9c-.133.167-.283.367-.45.6.2-.267.4-.5.6-.7-.067 0-.117.033-.15.1zm.95-.6c-.333.367-.733.8-1.2 1.3l-.9 1c.5-.367 1.033-.9 1.6-1.6.2-.233.4-.483.6-.75-.033.033-.067.05-.1.05zm-2.1-.7c-.2.533-.566 1.367-1.1 2.5h.05c.533-.967 1.133-2 1.8-3.1-.133.1-.383.3-.75.6zm3.65-1c-.1.133-.25.3-.45.5l-.1.3h.1a9.48 9.48 0 0 0 .45-.8zm-.75 1.3c-.131.263-.281.538-.45.825a.18.18 0 0 1 .15-.075c.1-.267.217-.517.35-.75h-.05zm.1.35c.133-.2.283-.383.45-.55-.067 0-.117.017-.15.05l-.3.5zm4.4-1.55a.298.298 0 0 0-.1.2c.002-.033.019-.05.05-.05l.1-.2-.05.05zm3-2.25v.05l.1-.1c-.033 0-.067.017-.1.05zm.8-.6c.733-.733 1.45-1.4 2.15-2-.533.367-1.15.883-1.85 1.55-.1.133-.2.283-.3.45zm-2 2.05l.1-.2.05-.075a4.86 4.86 0 0 0-.4.425c.033-.033.083-.05.15-.05.033-.067.067-.1.1-.1zm9.25-3.6c-.067 0-.1.017-.1.05a1.916 1.916 0 0 0-.15.4c.067-.167.15-.317.25-.45zm.8-.75c-.167.434-.367.934-.6 1.5-.133.333-.25.65-.35.95l.15-.15c.167-.434.35-.9.55-1.4.267-.667.517-1.284.75-1.85-.167.3-.333.617-.5.95zm-20.8 8.45c.066-.167.133-.317.2-.45l-.2.3v.15zm-3.2.35c.167-.233.35-.45.55-.65.033-.167.083-.333.15-.5l-.3.5V50h-.05c-.133.2-.25.4-.35.6zm.9-.2l-.4.4c-.066.1-.117.217-.15.35.1-.1.2-.183.3-.25.067-.167.15-.333.25-.5zm-.6 1.85v.1c.2-.1.683-.7 1.45-1.8-.367.267-.683.55-.95.85-.133.167-.25.333-.35.5l.7-.6a12.3 12.3 0 0 0-.9 1c0 .067.017.05.05-.05zm-.75-.55a.563.563 0 0 0-.2.2c-.2.233-.383.5-.55.8.033-.034.066-.05.1-.05s.083-.05.15-.15c.066-.067.15-.167.25-.3l.25-.5zm-2.6 1.4c-.267.433-.55.917-.85 1.45.233-.333.483-.65.75-.95.033-.2.067-.367.1-.5zm-5.55 7.4a.634.634 0 0 0-.15.25L85 61c-.133.267-.267.55-.4.85l-.1.3.25-.25c.3-.633.717-1.333 1.25-2.1-.267.233-.5.467-.7.7zm2.5-3.1c.1-.133.2-.25.3-.35.133-.233.25-.45.35-.65-1 .9-1.85 1.9-2.55 3l.3.1c.467-.667 1-1.367 1.6-2.1zm-.1 1.8c.133-.167.283-.35.45-.55a.622.622 0 0 0-.25.15l-.2.4zM83 63.8c.067-.1.15-.2.25-.3h-.1c-.067.1-.117.2-.15.3zm.75-.85c.167-.467.383-.934.65-1.4a10.686 10.686 0 0 0-1.15 1.75c.167-.133.333-.25.5-.35zm-6.05 17.1c-.267.867-.4 1.617-.4 2.25 0 1.4.383 2.95 1.15 4.65a11.803 11.803 0 0 1-.4-2.95v-2.1h.15c0 .6.033 1.184.1 1.75 0-.367.017-.7.05-1a.388.388 0 0 1-.05-.15v-.15a64.164 64.164 0 0 1-.25-1.6v-.9c-.033-.2-.05-.4-.05-.6-.1.2-.2.467-.3.8zm.95 5.9c.2 1 .467 1.966.8 2.9.066.2.167.383.3.55-.3-.833-.583-1.917-.85-3.25a13.456 13.456 0 0 1-.15-1.05c.067.467.167.917.3 1.35.233.833.483 1.566.75 2.2-.133-.7-.267-1.367-.4-2-.367-.933-.65-1.85-.85-2.75 0 .733.033 1.417.1 2.05zm1.05 4.35c-.233-.5-.45-.983-.65-1.45.367 1.566.867 2.683 1.5 3.35a1.66 1.66 0 0 1-.05-.4c-.3-.5-.567-1-.8-1.5zm.6.6a4.388 4.388 0 0 0-.1-.35 2.576 2.576 0 0 1-.25-.4c.1.267.217.517.35.75zm68 56.8v2c0 .1.017.216.05.35 0-.066.017-.133.05-.2V148l-.1-.3zm-.4 1.65c-.033-1.167-.05-2.033-.05-2.6a95.5 95.5 0 0 0-.25 4.15c.1-.433.2-.95.3-1.55zm3.9 11.8v.325a.53.53 0 0 1 .05-.225c-.032-.032-.049-.065-.05-.1zm.75 4.775a1.72 1.72 0 0 1 .05-.375c-.032-.032-.049-.065-.05-.1v.475zm1.05-1.125c.167.733.35 1.534.55 2.4-.033-.3-.066-.633-.1-1a22.275 22.275 0 0 0-.45-1.4zm4.25 13.35c-.032-.032-.049-.065-.05-.1v.1a.82.82 0 0 0 0 .4l.05-.4zm-1.5-4.65l-.1-.4v.4h.1zm5.5 17.5c0 .033.017.083.05.15 0-.133.017-.25.05-.35-.1-.233-.167-.45-.2-.65 0 .267.033.55.1.85zm157.65 44.55c.033-.233.066-.45.1-.649a.556.556 0 0 0-.05.25c-.033.099-.05.233-.05.399zm-2.45 8.45v.4c0 .8-.066 1.699-.2 2.699.233-1.1.483-2.083.75-2.949.134-.733.534-2.817 1.2-6.25-.533 1.966-1.133 4-1.8 6.1h.05zm1.9-5.15c-.033.034-.05.067-.05.101-.167.934-.301 1.75-.4 2.45.2-.934.35-1.785.45-2.551zm-52.3 16.75c.2-1.233.417-2.449.65-3.649l-.2.5a91.566 91.566 0 0 0-1.9 6.899c.1-.333.216-.683.35-1.05.2-.567.567-1.467 1.1-2.7zm-1.05 10.6c-.9 3.166-1.4 5.55-1.5 7.149.267-.733.533-1.433.8-2.1.167-.634.367-1.3.6-2 0-1.032.033-2.049.1-3.049zm-.2 7.45c-.167.466-.316.933-.45 1.399.133-.434.283-.866.45-1.3 0-.066.017-.134.05-.2-.033.001-.05.034-.05.101zm-.15 2.15l.1-1c-.3.767-.533 1.467-.7 2.101l.6-1.101zm-98.95-68.9a.451.451 0 0 1-.05-.2l-.05.05h-.1c.066.4.15.783.25 1.15a10.16 10.16 0 0 1-.05-1zm1 1.85a35.81 35.81 0 0 1-.4-1.05c.133.533.267 1.1.4 1.7v-.65zm2 4.25h-.25l-.05-1.45-.3-.899c.033.5.083 1.033.15 1.6.1 1.033.2 2 .3 2.9 0 .066.017.133.05.199.033-.733.083-1.416.15-2.05a.953.953 0 0 1-.05-.3zm.95 2.4l.1.5c0-.2.017-.384.05-.551l-.3-.8c.067.267.117.551.15.851zm1.05 2.35c.1.4.233.85.4 1.35v-.3a35.81 35.81 0 0 0-.4-1.05zm1.35 4.4c.267.833.5 1.6.7 2.3-.067-.533-.1-.983-.1-1.351-.233-.6-.433-1.183-.6-1.75v.801zm.95 4.4a2.229 2.229 0 0 1-.2-.399c.133.566.283 1.133.45 1.699-.1-.466-.183-.9-.25-1.3zm9.95 29.85v.25c.1.533.2 1.033.3 1.5-.067-.467-.117-.9-.15-1.301a2.905 2.905 0 0 0-.15-.5v.051zm.6 3.35a25.878 25.878 0 0 1-.05-1.6l-.1-.301c.033.668.083 1.301.15 1.901zm-1.9-7.5a6.614 6.614 0 0 1-.15-.8l-.2-.7c.167 1.033.367 2.017.6 2.95a26.81 26.81 0 0 0-.25-1.45zM185.8 264v-.25a.448.448 0 0 0-.05-.2c0 .134.017.283.05.45zm.45 1.35c.267 1 .617 2.15 1.05 3.45v-.3-.1a9.277 9.277 0 0 1-.3-.851c-.133-.399-.4-1.267-.8-2.6 0 .134.017.268.05.401zm1.95 5.5c.033.167.066.317.1.45.067.367.15.717.25 1.05.067.2.133.417.2.65a19.442 19.442 0 0 0-.2-.9v-.4c-.133-.3-.25-.584-.35-.85zm.95 3.15c.333.934.684 1.9 1.05 2.9v.1c-.1-.134-.2-.283-.3-.45.167.4.35.783.55 1.15l-.1-.601a18.039 18.039 0 0 1-.45-1.449 54.7 54.7 0 0 0-.65-2.25 16.03 16.03 0 0 1-.35-.851c.067.501.15.984.25 1.451z" fill-rule="evenodd"/></svg>