<svg xmlns="http://www.w3.org/2000/svg" xmlns:dc="http://dublincore.org/documents/dcmi-terms/" height="1080" viewBox="0 0 1080 1080" width="1080"><metadata><dc:description>Silhouette of Panderina, processed by PhyloPic Tools (https://github.com/eweitz/phylopic-tools)</dc:description><dc:source>http://phylopic.org/image/02522165-7c6f-402e-8535-0de3ad776eae</dc:source><dc:creator>Noah Schlottman, photo by Museum of Geology, University of Tartu</dc:creator><dc:license>http://creativecommons.org/licenses/by-sa/3.0/</dc:license></metadata><switch><g><path d="M143.68 302.609c1.979-1.381 2.389-4.022 4.59-5.394 1.098-.684 1.826-2.606 1.978-4.047.452-4.318 2.84-8.053 3.363-12.334.696-5.682 3.666-10.615 5.532-15.911 1.028-2.919 3.574-4.734 5.771-6.728.471-.426 1.482-.321 2.247-.341 1.862-.046 3.678.061 5.449-.919 1.933-1.071 4.152-1.127 6.351-1.006 4.061.221 7.941-.428 11.878-1.621 3.199-.97 6.745-1.288 10.1-1.134 5.538.251 10.761-.839 15.976-2.379 1.021-.302 2.237-.795 3.132-.499 2.732.905 5.374.171 8.008-.122 4.564-.505 9.132-1.079 13.601-2.225 1.033-.266 2.097-.416 3.154-.584 2.726-.434 5.46-.824 8.185-1.278 3.016-.501 6.037-1.539 9.035-1.468 4.446.105 8.521-1.183 12.698-2.209 1.033-.253 2.063-.716 3.097-.726 3.889-.033 7.646-.706 11.327-1.911.288-.095.645-.087.945-.022 4.357.939 8.136-1.477 12.223-2.097 1.045-.158 2.071-.475 3.087-.779.86-.255 1.949-.355 2.493-.939 1.986-2.136 4.595-3.578 7.177-4.022 2.432-.416 4.46-2.42 7.105-1.71.288.077.787.104.913-.061 1.866-2.407 4.56-1.491 6.951-1.935 1.448-.27 2.32.302 3.503.586 2.311.558 4.878.075 7.337-.041 1.067-.051 2.566-.767 3.105-.298 2.012 1.74 3.649.426 5.105-.462 1.966-1.199 3.921-1.722 6.19-1.635 1.022.039 2.057-.511 3.104-.682.917-.148 2.154-.538 2.732-.114 1.311.962 2.661.84 4.057.836 1.258-.004 2.52-.03 3.773-.14a34.937 34.937 0 0 0 3.58-.513c1.945-.377 3.864-.891 5.817-1.203.728-.116 1.578.02 2.271.296 2.945 1.168 5.732.832 8.512-.547.799-.396 1.734-.676 2.618-.712 3.71-.145 7.307-.832 10.853-1.895.584-.175 1.266-.083 1.896-.033 6.525.515 12.442-1.501 18.233-4.215 1.772-.831 3.704-1.385 5.616-1.848 2.662-.647 4.68-2.891 7.593-2.902.891-.004 1.772-.477 2.673-.55 3.884-.314 7.306-1.353 9.085-5.286.187-.412.598-.736.941-1.063 1.538-1.468 3.288-2.765 4.58-4.422 1.42-1.819 3.278-2.694 5.211-3.714 1.33-.704 2.58-2 3.3-3.337 2.72-5.041 6.396-9.41 9.523-14.15 2.588-3.923 5.797-7.266 8.674-10.911h-.002c2.223.109 3.146-1.953 4.763-2.856l.002-.002c1.132-.374 2.631-.412 3.334-1.181 2.769-3.018 6.552-3.487 10.122-4.566.339-.102.556-.604.832-.921h-.002c2.547-.48 5.125-.84 7.631-1.485 1.878-.483 3.434-.525 5.326.387 5.576 2.694 10.765 6.102 15.296 10.126 3.353 2.978 7.102 4.929 10.789 7.201 6.684 4.118 14.002 6.56 21.471 8.688 1.018.292 2.076.828 3.07.734 1.672-.152 2.994.651 4.459 1.079 4.799 1.408 9.505 3.107 14.516 3.805 4.365.606 8.661 1.69 12.998 2.525.908.174 1.846.235 2.771.268 1.55.053 2.97.286 4.503.837 2.832 1.022 5.919 1.337 8.881 2.035 2.356.554 4.652 1.511 7.038 1.795 2.909.345 5.688 1.353 8.73 1.156 2.567-.166 5.188.538 7.785.856l-.005-.002c2.35 1.734 5.327 1.673 7.928 2.752 1.501.623 3.432.114 5.111.426 1.51.28 2.848 1.491 4.535.783 3.348 2.521 7.992.73 11.295 3.404 2.511-1.107 4.45.947 6.693 1.336 2.292.394 4.576.601 6.864.909 2.994.405 5.939 1.31 8.836 2.209 3.124.969 6.235 1.771 9.537 1.521 3.939-.298 7.412 1.878 11.254 2.158 1.209.087 2.446.785 3.574.599 1.067-.177 1.776 1.763 2.9.316.146-.187.909-.1 1.241.101 4.069 2.455 8.523 3.314 13.209 3.548 2.109.105 3.862 1.574 6.049 2.028 4.09.85 8.094 1.727 12.309 1.799 2.248.037 4.588.566 6.697 1.369 3.826 1.458 8.001 2.242 11.169 5.165.316.29.827.42 1.274.501 3.241.603 5.439 2.471 6.738 5.46 3.943 2.28 5.119 6.73 7.838 9.963.876 1.045 1.631 2.39 3.375 2.286.345-.021.981.385 1.03.671.296 1.743 1.806 2.102 3.022 2.621 6.211 2.657 11.237 6.826 15.655 11.842.475.542 1.354.706 1.943 1.175 2.522 2.008 5.573 3.482 6.913 6.734.138.338.746.482 1.14.716.008.316-.114.742.044.935 3.627 4.375 4.576 9.943 6.459 15.047.783 2.114 1.801 3.978 3.185 5.468 2.207 2.38 4.435 4.889 7.744 5.978.945.312 2.077 1.033 2.471 1.872 1.262 2.698 4.017 4.167 5.132 7.148.706 1.878 3.331 3.087 5.193 4.465 2.84 2.097 5.772 4.071 8.648 6.122.378.27.787.625.962 1.035 2.154 5.059 7.217 7.821 9.829 12.521.751 1.343 1.785 2.521 2.666 3.791.523.75.815 1.842 1.521 2.25 3.232 1.872 5.245 5.042 8.057 7.369 1.963 1.623 3.424 3.984 4.727 6.237 1.123 1.952 2.316 3.882 3.277 5.978 1.465 3.192 3.992 5.957 7.006 8.057.625.436 1.639.691 1.862 1.268.941 2.448 3.307 3.231 5.087 4.686 1.895 1.548 3.802 3.092 5.77 4.554 1.967 1.464 4.154 2.71 6.064 4.138 3.375 2.521 6.235 5.813 9.006 9.049 2.491 2.915 4.8 6.051 6.768 9.339 1.857 3.099 3.895 6.397 4.503 9.846.56 3.146 2.491 4.758 4.316 6.645.921.954 1.416 1.745 1.72 3.077.666 2.945 1.477 5.964 2.873 8.615 1.963 3.741 1.784 8.029 3.562 11.777.268.566-.062 1.495-.292 2.199-1.055 3.209-.738 6.069 1.74 8.588.848.864 1.456 1.982 2.089 3.035 1.424 2.367 2.958 4.69 4.134 7.179 1.031 2.187 1.655 4.523 2.207 6.949.998 4.389.418 7.714-2.754 10.886-1.371 1.369-2.231 3.305-3.1 5.09-.791 1.625-1.902 3.351-.426 5.213-.24 4.046 2.503 7.152 3.492 10.825.504 1.853 1.753 3.651 3.084 5.083 1.236 1.325 1.537 2.651 1.403 4.272-.017.156-.004.316-.004.475l-.037 13.795c-2.364 3.641-3.488 7.769-4.771 11.85-.401 1.272-1.473 2.345-1.813 3.623-.791 2.938-1.318 5.943-1.951 8.923-.382 1.787-.742 3.58-1.164 5.359-.175.732-.719 1.437-.702 2.146.077 4.279-1.111 8.125-3.408 11.734-.612.965-.389 2.426-.867 3.521-1.271 2.91-2.143 5.957-3.745 8.774-1.318 2.312-1.72 5.152-2.487 7.771-1.066 3.642-2.08 7.299-3.151 10.938-1.278 4.335-3.745 8.028-6.378 11.623-3.111 4.249-4.629 9.264-6.62 14.038-.467 1.116-.876 1.939-2.062 2.233-3.488.866-6.445 2.785-9.367 4.765-1.979 1.341-2.714 3.554-2.227 6.09.154.813.117 2.104-.382 2.519-1.659 1.388-1.651 3.295-1.115 4.768.527 1.448.021 2.52.032 3.744.021 3.367-2.482 5.57-3.16 8.418-.791 3.311-3.939 4.727-5.066 7.639-.211.535-1.222 1.015-1.907 1.075-2.921.272-5.164 1.81-7.375 3.534-1.083.844-2.406 1.383-3.481 2.238-1.618 1.295-3.119 2.743-4.669 4.122 1.245 2.394-.767 4.621-.32 7.055.292 1.574-.09 3.132-.962 4.853-2.689 5.311-3.724 11.119-2.373 17.066.243 1.067.855 1.932.146 3.027-.998 1.537-1.607 4.027-2.945 4.498-2.99 1.043-4.585 4.316-7.924 4.508-1.14 1.772-2.949 1.732-4.656 1.501-2.365-.325-4.224.539-5.968 1.938-.105-.234-.211-.475-.317-.714-.211.239-.426.479-.637.714-2.515.162-5.387-.722-6.925 2.41-.064.13-1.533-.661-1.882-.397-3.035 2.28-7.177 3.002-9.291 6.563-3.663 2.337-5.646 6.009-7.626 9.672-.264.491-.751 1.286-.572 1.518 1.951 2.604-.836 1.253-1.388 1.793-1.33 1.307-2.511 2.767-3.748 4.162-.625.284-1.619.414-1.81.881-1.019 2.454-2.625 3.525-5.351 4.057-2.268.441-4.479.791-6.759.763-1.518-.017-2.759.259-3.229 1.919-2.734.872-5.209 2.105-6.67 4.762-3.059.621-5.144 2.698-7.18 4.84-.203.211-.442.568-.398.812.621 3.412-1.805 5.798-2.859 8.646-.102.284-.028.629-.037.945-1.416.418-1.955 1.387-1.914 2.832.053 1.898-.171 3.825.049 5.699.418 3.566-1.25 6.15-3.858 8.049-3.469 2.527-7.209 4.674-10.804 7.03-1.285.849-2.45 1.874-3.716 2.755-2.751 1.915-4.544 1.769-6.925-.702-.957-.989-1.611-2.268-2.556-3.27-.345-.373-1.128-.337-1.712-.482-1.493-2.009-3.582-.759-5.371-.868-1.672-.105-2.495 1.416-3.201 2.771v.004c-.637.633-1.27 1.266-1.902 1.898l-.005.005c-3.177 1.684-4.462 5.034-6.608 7.614-.998 1.2-1.789 2.32-3.339 3.019-3.731 1.688-7.314 3.703-10.961 5.586-.264.138-.625.19-.787.405-.686.893-.312 3.083-2.751 1.655-.852-.499-2.563.67-3.898.73-2.836.134-5.691-.085-8.523.081-2.754.162-5.582.3-8.199 1.071-1.505.446-3.833 1.03-3.509 3.65-1.497 1.359-3.221 2.548-4.397 4.143-.657.896-1.326 1.509-2.228 2.028-3.565 2.057-7.034 4.3-10.714 6.13-1.566.779-3.546.86-5.355 1.006-2.04.162-4.105.037-6.158.037-.633 0-1.338-.188-1.878.036-1.095.454-2.698 1.866-3.034 1.591-1.781-1.457-2.52.004-3.538.859-.896.755-1.801 1.51-2.701 2.264l-.009.013c-3.147 2.733-6.377 5.399-10.596 6.235-3.793.746-7.359 1.906-10.487 4.247-2.093 1.565-4.678 1.307-6.787.742-1.525-.405-2.989-.819-4.511-.714-1.761.126-2.593-1.066-3.433-2.138-1.347-1.712-1.428-1.947-2.328-1.1-1.42 1.339-3.197.827-4.775 1.245-2.629.702-3.659 1.713-3.748 4.438-.028.791.068 1.595-.017 2.378-.268 2.482-1.33 4.482-3.895 5.172-2.203.592-4.454 1.201-6.714 1.339-3.631.224-7.286.077-10.929.057-3.169-.021-3.156-.044-4.365-3.371-.077-.211-.495-.292-.751-.435l-.017-.012c-.138-.264-.206-.637-.426-.767-1.021-.629-2.064 1.367-3.314-.065-.287-.328-1.898.646-2.933.791-1.083.158-2.211.049-3.318.049-7.278 0-14.585.373-21.826-.134-4.552-.316-9.258-.134-13.682-1.736-.28-.105-.629-.04-.943-.028-5.172.162-10.341.341-15.513.495a3.19 3.19 0 0 1-1.132-.203c-2.795-1.022-5.655-1.403-8.642-1.314-1.318.041-2.677-.499-3.979-.896-4.113-1.266-8.339-.84-12.536-.961-5.389-.158-10.617-.982-15.631-3.241-1.943-.873-4.081-2.418-6.53-1.1a4.22 4.22 0 0 1-.72.271c-1.041-2.572-3.452-.657-5.104-1.533-1.546-.824-3.509-.86-5.288-1.242-2.676-.571-5.349-1.144-8.022-1.716-3.095-2.121-6.268-3.972-10.028-4.839-2.471-.568-4.848-1.7-7.136-2.845-1.314-.657-2.583-.839-3.984-.925-1.032-.061-2.073-.394-3.055-.759-1.58-.588-3.049-1.318-4.868-1.147-2.783.264-4.693-2-7.124-2.82h-.002c-.167-1.821-.167-1.821-1.905-.953.026-.467-.022-.957.1-1.399.154-.552 1.434-1.448-.239-1.396-3.487.105-6.229-2.876-9.826-2.243-.198.036-.446-1.096-.868-1.327a416.347 416.347 0 0 0-11.258-5.987c-1.47-.751-3.048-1.294-4.58-1.936h-.002c-1.842-2.409-4.812-1.793-7.231-2.649-.036-.016-.253.487-.387.743-1.069-.881-2.141-1.761-3.209-2.642-2.215 1.449-1.653-1.245-2.55-1.801-2.209-1.371-4.262-2.855-6.97-3.201-4.465-.572-8.463-2.405-11.966-5.196-1.473-1.173-2.895-2.256-4.833-2.397h-.002c-1.896-1.644-4.089-2.787-4.064-6.086.012-1.797-2.763-1.891-4.467-1.983-1.659-.089-2.538-2.122-4.408-1.469-1.888.657-2.756-1.132-4.008-1.915-.833-.519-1.428-1.416-2.132-2.142-2.517-2.597-4.61-6.073-7.667-7.538-3.311-1.586-4.664-4.799-7.536-6.482l-.019-.021c-2.146-2.637-5.125-2.864-8.197-2.848-2.053.009-4.12.15-6.154-.049-1.482-.142-3.249-.349-4.308-1.225-2.132-1.765-4.242-3.61-5.627-6.203-.911-1.7-1.215-5.12-4.765-3.177-.513-1.635-1.982-2.077-3.325-2.682h-.004c-1.397-1.484-1.596-3.927-3.805-4.763l-.004-.004c-.426-1.424-1.397-2.028-2.856-1.902-.037-1.192.163-2.357-.933-3.371-1.394-1.29-2.562-2.819-3.827-4.248l-.004-.004-.949-.949h-.002l-3.81-3.81-2.858-2.859c.203-1.469-.432-2.105-1.905-1.903-.037-2.771-2.428-4.194-3.839-6.012-3.305-4.256-7.197-8.054-10.879-12.013-.399-.43-.979-.689-1.475-1.026l-1.906-1.906c-.035-.463.077-1.241-.128-1.335-2.83-1.299-4.185-3.984-6.045-6.203-.665-.791-1.673-1.286-2.448-2-.978-.904-1.876-1.895-2.81-2.844l.714-.637-.712-.316-.004-.004c-1.947-4.913-3.88-9.83-5.858-14.734-.341-.848-.85-1.631-1.308-2.431-1.094-1.898-2.203-3.793-3.307-5.691l-.006-.004c-.635-.633-1.268-1.271-1.903-1.903-.008-.312.102-.701-.044-.933-1.935-3.104-3.848-6.224-5.889-9.254a110.648 110.648 0 0 0-5.164-7.046c-.7-.881-1.341-1.607-1.365-2.84-.022-1.145-1.105-.796-1.826-.885l-.951-.949c.116-3.773-1.042-7.201-2.341-10.706-.455-1.222-3.158-1.231-1.694-3.243-.866-1.28-1.771-2.533-2.588-3.844-.806-1.295-1.601-2.609-2.248-3.986a6.88 6.88 0 0 1-.637-2.629c-.083-2.531.017-5.068-.073-7.603-.016-.452-.584-.886-.899-1.328l-.002-.002c-.39-.323-.803-.621-1.164-.974-.28-.276-.495-.619-.738-.932h-.002l.716-.314-.714-.639c-2.437-1.891-3.603-4.777-5.467-7.119-.637-.8-.68-1.647-1.757-.64-.138-.911-.192-1.842-.434-2.724-.382-1.394-1.349-2.059-2.822-1.9v.002c-.037-1.698.27-3.376-1.302-4.802-.621-.563-.574-2.022-.584-3.075-.053-5.546-.017-11.092-.035-16.637-.012-3.235-1.235-6.098-2.842-8.828v.002c.336-4.863-1.142-9.477-2.394-14.032-.468-1.704-1.221-3.627-2.347-5.271-1.201-1.757-2.029-3.783-2.909-5.743-1.941-4.31-3.779-8.667-5.751-12.965-.266-.576-1.351-.824-1.519-1.386-.174-.576.629-1.473.424-2.006-.233-.615-1.104-.986-1.698-1.463-.915-1.937-1.704-3.904-3.943-4.864-.507-.217-.394-1.618-.864-2.251-.745-1-1.767-1.783-2.621-2.706-.732-.791-1.534-1.572-2.051-2.499-.501-.9-1.067-2.045-.921-2.972.326-2.047 1.3-4.024-.035-6.045 1.592-1.533.677-2.198-.85-2.929-.543-.26-.738-1.243-1.101-1.893-.631-1.126-1.27-2.248-1.905-3.371l.002.002c-.32-2.094-.54-4.209-.99-6.274-.509-2.334-1.402-4.596-1.783-6.945-.211-1.286.4-2.686.444-4.041.104-3.057.112-6.118.089-9.175-.002-.399-.404-.795-.619-1.19.3-.422.923-1.15.856-1.219-1.787-1.854-3.107-4.006-4.29-6.272-.114-.217-.87-.095-1.329-.13-.095-.726.239-1.572-.875-1.941-.42-.14-1.008-1.136-.935-1.221 2.298-2.582-1.203-5.044-.122-7.56-1.483-1.606-.854-3.588-.921-5.428-.345-9.584-.686-19.17-.945-28.759-.111-4.124.073-8.255-.042-12.379-.116-4.111 1.765-7.067 5.12-9.077 1.067-.637 1.601-1.089 1.619-2.379.024-1.675-.568-3.458.675-5.037.211-.268-.105-1.183-.436-1.586-.503-.611-1.233-1.033-1.868-1.536 1.057-1.215-.542-.958-.686-1.355-.248-.676.361-1.673.097-2.333-.625-1.564-1.598-2.984-2.345-4.505-2.424-4.935-4.436-10.053-5.726-15.385-.631-2.609-.603-5.404-.666-8.12-.051-2.142-.399-4.209.252-6.481.58-2.026 1.178-4.083 1.734-6.138.162-.598-.248-1.359-.416-2.039-.483-1.953.469-1.229 1.314-.708.136-.591.271-1.181.408-1.771 1.556-1.051 1.811-2.621 1.945-4.355.094-1.187.303-2.584.996-3.467 2.355-2.992 2.949-6.414 2.727-10.002-.179-2.876 1.85-5.341 1.273-8.282-.093-.468.921-1.12 1.357-1.734 1.064-1.501 2.089-3.029 3.13-4.546l.016.003z" fill-rule="evenodd"/></g></switch></svg>