<svg xmlns="http://www.w3.org/2000/svg" xmlns:dc="http://dublincore.org/documents/dcmi-terms/" height="291.446" width="572.722"><metadata><dc:description>Silhouette of Panthera (Panthera), processed by PhyloPic Tools (https://github.com/eweitz/phylopic-tools)</dc:description><dc:source>http://phylopic.org/image/b9d5547b-773c-46c8-841a-0846ff7f09ab</dc:source><dc:creator>Zimices</dc:creator><dc:license>http://creativecommons.org/licenses/by-nc/3.0/</dc:license></metadata><path d="M235.519 290.434c-1.487-.809-3.962-1.526-5.5-1.594-4.898-.215-6.105-.87-8.225-4.463-2.87-4.865-2.717-10.412.38-13.753 2.075-2.24 3.292-2.646 7.918-2.646 3.006 0 6.178-.273 7.048-.607 2.204-.846 1.975-3.666-.418-5.16-2.618-1.635-2.525-3.449.352-6.906 3.058-3.675 4.363-16.86 2.002-20.232-.813-1.16-1.903-6.268-2.424-11.352-1.719-16.773-2.8-20.654-8.432-30.243-2.907-4.95-5.828-10.718-6.492-12.818-1.095-3.467-1.497-3.793-4.37-3.545-1.741.15-3.771-.102-4.512-.56-.74-.458-3.163-.968-5.383-1.133-2.22-.166-4.395-.883-4.834-1.594-.44-.71-1.12-.971-1.51-.58-.393.392-1.317.212-2.055-.401-1.007-.836-1.342-.786-1.342.2 0 .797-.553.558-1.404-.607-1.366-1.868-1.461-1.853-3.493.559-1.148 1.364-2.366 3.496-2.706 4.738-.63 2.3-4.424 3.96-6.34 2.776-.675-.417-1.057.786-1.057 3.33 0 2.993-.85 5.094-3.418 8.459-1.88 2.462-3.567 5.532-3.75 6.822-.221 1.56-1.67 3.028-4.332 4.386-2.63 1.342-5.37 4.095-8 8.036-9.703 14.54-17.014 22.329-29.51 31.432-3.628 2.644-7.265 6.357-8.815 9-1.451 2.475-4.014 5.882-5.695 7.572-3.691 3.709-5.48 9.213-5.48 16.86 0 3.135-.437 6.516-.971 7.514-1.959 3.66-8.078 5.007-22.74 5.005-20.591-.003-27.29-2.079-27.29-8.457 0-8.536 3.43-11.48 13.4-11.507 6.3-.017 9.6-.848 9.6-2.416 0-.658 1.36-2.5 3.023-4.092 1.662-1.593 3.526-4.576 4.141-6.63.615-2.053 3.549-6.964 6.519-10.912 5.279-7.017 7.039-11.014 14.06-31.937 1.385-4.125 3.865-9.23 5.512-11.345 1.646-2.115 4.538-6.81 6.426-10.432l3.433-6.585-.307-19.741c-.287-18.48-.442-19.89-2.425-22.069-1.165-1.28-2.411-3.565-2.77-5.078-.357-1.512-1.278-2.75-2.047-2.75-.768 0-1.994-1.35-2.725-3-.73-1.65-1.662-3-2.072-3-.409 0-1.033-1.81-1.387-4.022-.354-2.212-1.034-4.264-1.512-4.559-.477-.295-.868-1.448-.868-2.561 0-1.178-.523-1.848-1.25-1.603-.688.231-1.798-.294-2.469-1.167-1.046-1.364-1.222-1.191-1.25 1.221-.017 1.545-.406 2.577-.865 2.294-.458-.283-.625-1.931-.37-3.663.432-2.948.326-3.076-1.668-2.009-1.895 1.015-2.128.878-2.128-1.246 0-3.851-1.872-8.124-4.195-9.574-1.868-1.167-2.326-1.12-3.403.353-1.155 1.58-1.32 1.557-2.323-.316-.594-1.109-1.08-2.946-1.08-4.082 0-1.136-.605-2.066-1.344-2.066-.74 0-2.137-.874-3.104-1.943-.967-1.069-3.024-2.221-4.571-2.561-1.547-.34-3.068-1.281-3.379-2.092-.498-1.297-.91-1.296-3.435.01-2.16 1.117-3.153 1.2-4.018.335-.631-.632-1.148-.847-1.148-.479s-1.663-.458-3.694-1.837c-2.821-1.914-4.416-2.352-6.75-1.854-4.197.896-5.282 1.953-8.585 8.361-3.88 7.526-9.764 12.238-16.037 12.84-10.096.97-14.934-1.97-14.934-9.078 0-1.823-.942-2.823-3.928-4.17C12.996 91.799 3.353 81.926.8 77.136c-1.905-3.576-.562-6.67 5.7-13.121 8.07-8.317 10.882-12.053 13.69-18.185 2.388-5.216 8.079-11.524 13.916-15.424 9.557-6.386 11.24-7.39 12.412-7.408.713-.01 4.65-1.59 8.75-3.509 4.871-2.28 7.505-4.1 7.602-5.25.081-.968.24-2.435.352-3.26.112-.825.27-2.533.352-3.795.211-3.281 4.506-7.21 7.852-7.183 4.736.037 11.13 3.584 13.401 7.432 1.938 3.285 2.449 3.546 6.931 3.546 5.517 0 17.023 2.462 20.917 4.476 1.44.745 7.103 2.463 12.583 3.817 5.48 1.355 14.914 4.373 20.964 6.707 13.534 5.221 24.095 7.696 36.5 8.552 10.106.698 20.342 3.273 25.792 6.488 2.912 1.718 5.2 1.958 18.515 1.94 14.416-.02 26.55 1.104 50.966 4.722 11.787 1.746 23.17 1.437 44.342-1.203 13.572-1.693 55.11-1.982 78.547-.546 12.887.79 15.49 1.256 21.5 3.854 3.76 1.625 8.57 3.263 10.688 3.639 4.955.878 10.01 3.182 15.65 7.131 2.475 1.734 6.127 3.91 8.117 4.838 4.846 2.26 16.074 11.61 18.914 15.752 1.257 1.833 3.504 4.683 4.994 6.333 1.489 1.65 2.959 3.9 3.267 5 .307 1.1 1.971 5.825 3.697 10.5 4.006 10.851 4.627 14.436 5.459 31.5.943 19.367 4.202 38.5 6.558 38.5.468 0 1.456.563 2.196 1.25 6.558 6.092 14.481 12.177 18.473 14.187 9.064 4.562 14.161 11.193 15.424 20.063 1.278 8.971 8.367 34.702 10.278 37.305.527.717 1.772 1.74 2.768 2.273 1.5.802 2.043.408 3.177-2.305 1.958-4.684 3.35-5.45 10.968-6.03 8.46-.646 9.71.334 9.71 7.62 0 4.859-.31 5.524-4.455 9.593-3.944 3.87-5.085 4.424-9.947 4.828-5.015.415-5.544.692-6.091 3.184-.608 2.768-3.75 6.093-11.027 11.674-7.55 5.789-12.052 7.471-21.47 8.023-8.32.488-8.855.395-10.391-1.798-1.8-2.57-2.162-9.985-.628-12.851.546-1.02 2.34-2.15 3.987-2.511 1.647-.362 3.922-1.96 5.056-3.553s3.39-3.68 5.013-4.639c3.112-1.838 3.222-4.091.36-7.363-.746-.853-2.736-4.903-4.423-9-6.294-15.29-18.122-28.981-30.325-35.102-3.388-1.7-8.993-5.06-12.457-7.469-3.464-2.408-6.519-4.379-6.789-4.379-.57 0-28.18-18.698-30.083-20.374-.704-.619-2.46-2.026-3.902-3.126a113.585 113.585 0 0 1-5.171-4.25c-1.402-1.237-3.159-2.25-3.903-2.25-.745 0-1.354-.627-1.354-1.393 0-1.156-1.984-2.607-3.565-2.607-.221 0-1.52 2.208-2.888 4.907-1.367 2.698-2.837 5.06-3.267 5.25-2.315 1.019-6.8 10.077-11.805 23.843-5.432 14.94-5.635 15.861-5.645 25.5-.007 6.688-.638 12.295-1.906 16.929-1.663 6.078-2.595 7.595-7.584 12.351-3.129 2.982-7.443 6.583-9.586 8.002-4.66 3.083-7.754 8.688-7.754 14.043 0 4.804-2.687 8.464-8.323 11.34-3.708 1.892-5.938 2.12-21.656 2.222-9.637.062-18.714-.222-20.171-.63-3.02-.849-4.85-4.916-4.85-10.784 0-5.768 1.754-6.583 18.917-8.78 5.073-.649 5.613-.992 8.5-5.396 1.696-2.587 6.797-9.724 11.337-15.86 10.602-14.333 12.033-18.653 10.43-31.495-.622-4.982-2.117-12.182-3.322-16-1.205-3.818-2.905-11.217-3.777-16.442l-1.585-9.5-4.5.29c-2.475.158-9.45 1.13-15.5 2.16-18.968 3.229-27.65 4.05-42.802 4.05-12.399 0-14.698.235-14.698 1.5 0 .825-.613 1.5-1.362 1.5-.9 0-1.205.818-.9 2.412.341 1.783-.206 2.848-2.1 4.09-1.408.922-2.833 2.537-3.167 3.588-.333 1.05-1.25 1.91-2.039 1.91-1.197 0-1.432 3.375-1.432 20.514 0 14.474.361 21.092 1.227 22.478.976 1.563.959 2.635-.085 5.237-2.03 5.063-2.608 20.85-1.114 30.454 2.2 14.138-.417 16.992-16.808 18.329-5.346.436-10.395 1.045-11.22 1.353-.825.308-2.717-.101-4.203-.91zm244.67-147.651c-.39-2.308-2.621-8.72-4.958-14.25-5.953-14.086-6.697-15.557-7.593-15.003-1.345.831.164 12.716 2.177 17.143 1.049 2.308 1.907 4.88 1.907 5.715 0 .836.9 2.001 2 2.59s2 1.52 2 2.071c0 .889 3.977 5.712 4.838 5.868.185.034.019-1.827-.371-4.134z"/></svg>