<svg xmlns="http://www.w3.org/2000/svg" xmlns:dc="http://dublincore.org/documents/dcmi-terms/" height="520.824" width="455.848"><metadata><dc:description>Silhouette of Papaveraceae, processed by PhyloPic Tools (https://github.com/eweitz/phylopic-tools)</dc:description><dc:source>http://phylopic.org/image/fba35056-bb07-49ad-b511-4abc2b294ae3</dc:source><dc:creator>Alexander Schmidt-Lebuhn</dc:creator><dc:license>http://creativecommons.org/licenses/by-nc-sa/3.0/</dc:license></metadata><path d="M.977 162.938c2.746-2.657 5.314-5.513 8.568-7.14 4.609-2.304 10.877-9.448 13.33-11.9 4.286-4.288 15.857-4.434 20.468-9.045 4.93-4.93 13.748-4.704 17.613-8.569 9.499-9.498 29.625-12.012 34.274-16.66.545-.545 28.505 4.255 30.466 5.236 7.105 3.552 14.57 24.09 20.469 29.99 7.463 7.462 13.327 15.23 17.613 23.8 1.866 3.734 9.75 9.506 13.804 17.613 3.217 6.433 4.616 14.468 8.093 21.422 2.609 5.218-1.98 23.175 1.904 30.941 1.853 3.706 11.507 44.188 9.044 46.65-11.628 11.63-13.938 2.686-18.089 4.761-1.306.653-2.988 5.236-3.808 5.236-1.649 0-8.563-9.285-14.757-6.188-.632.316-6.353 4.303-6.664 5.236-.465 1.396.115 4.17-.952 5.236-1.062 1.062-7.368.114-9.044.953-3.586 1.792-2.94 6.27-4.76 8.092-1.62 1.62-7.234-.767-8.57 1.904-.697 1.396.913 5.752.477 6.188-1.047 1.047-1.906 1.433-2.856 3.333-1.84 3.679 3.013 14.123.952 16.184-7.597 7.597-.476 7.243-.476 13.33 0 2.051-2.993 5.915-1.428 9.044 1.535 3.071 4.685 5.562 6.188 8.568.476.952-.619 2.095 0 3.332 1.464 2.928 6.498 3.952 8.092 7.14.483.965.12 2.5.952 3.333 3.125 3.125 18.64 14.206 17.137 15.709-4.441 4.441-24.342 0-30.465 0-7.685 0-22.481-1.06-27.61-6.189-6.885-6.885-37.486-26.42-30.465-40.462 2.979-5.958 7.624-41.882 2.856-46.65-8.936-8.936-31.418-46.573-31.418-60.932 0-8.825-13.659-9.228-17.613-17.136-5.144-10.29 7.249-28.346 2.856-37.13-6.114-12.23-21.041-12.38-26.181-25.23z" stroke="#fff" stroke-width="1.954"/><path d="M162.35 418.564c-10.725-2.065-26.926-8.36-37.606-19.041-2.92-2.92-8.526-4.241-10.949-6.665-5.538-5.537-18.131-3.822-25.23-6.188-2.916-.972-14.703-5.29-17.136-2.856-2.189 2.188-6.92 2.635-9.997 5.712-3.715 3.715-5.513 8.231-9.996 10.473-3.8 1.9-18.23-1.147-20.47 3.332-3.178 6.358 2.797 17.968 5.237 22.85 2.123 4.245 8.897 6.844 10.948 10.948 4.65 9.3 14.905 17.104 18.565 28.085 4.759 14.275 3.74 37.537 13.805 47.603 16.659 16.659 108.44-.603 129.479-7.617 6.973-2.324 30.268-2.658 34.75-7.14 2.852-2.852 5.155-9.915 8.092-12.853 6.426-6.425 17.711 7.043 23.802.952 5.86-5.86-34.088-21.803-39.987-24.753-4.83-2.415-9.183-3.878-13.804-6.188-2.881-1.44-5.716-5.079-9.045-6.189-3.155-1.051-9.672-2.531-11.9-4.76-1.04-1.04-36.528-7.966-42.843-14.28-1.241-1.242 3.381-1.002 4.285-1.905.714-.714 0-7.877 0-9.52zM229.945 258.143c-6.758-1.786 1.957-47.496-1.428-54.267-4.168-8.335-1.46-20.533-5.712-29.037-5.698-11.396-13.041-52.462-6.665-65.216 1.37-2.737-.607-7.96 1.428-9.996 1.695-1.695-.097-7.52 1.905-9.52 3.658-3.66 8.999-8.048 12.376-11.425 3.363-3.363 3.659-12.302 8.569-14.757 6.443-3.222 13.101-5.36 19.517-8.568 4.978-2.49 3.729-11.346 7.14-14.757 6.755-6.755 43.057-17.613 53.791-17.613 3.516-4.874 3.83-19.29 9.044-21.897 4.116-2.058 13.208 24.753 23.802 24.753 3.063 0 6.46 1.564 9.044 2.856 2.972 1.486 7.164.012 9.997 1.428 9.003 4.502 12.571 10.668 19.517 17.613 1.797 1.797 2.432 6.716 4.284 8.569 3.985 3.985 8.675 4.866 12.377 8.568 2.554 2.555-1.356 9.665.476 13.329.798 1.597 3.53 2.578 4.284 3.332 1.687 1.687-.093 6.954.952 9.044 5.071 10.143 7.36 31.93 1.428 43.795-1.815 3.63.375 9.246-1.428 12.852-1.709 3.418 1.179 13.102-1.428 15.71-3.716 3.715-.838 15.593-4.76 19.516-4.822 4.822-6.561 15.605-11.901 20.945-2.248 2.249-2.527 5.53-3.808 8.093-1.351 2.702-5.282 7.186-7.14 9.044-3.475 3.474-6.374 13.699-9.045 19.041-4.335 8.67-25.705 28.486-25.705 36.178 0 10.534-14.536 21.677-19.994 27.134-2.955 2.955-8.402 7.45-11.424 10.472-1.51 1.51-5.794 6.27-4.284 4.76 2.335-2.334 13.805-18.088 10.948-20.945-1.197-1.196-2.702 1.107-3.808 0-.886-.885 1.544-3.327 1.904-3.808.742-.989 6.206-9.979 5.236-10.948-2.133-2.133-7.192 2.328-8.568.952-1.122-1.122 1.122-3.639 0-4.76-1.09-1.091-4.146 1.566-5.236.475-1.544-1.543 4.443-8.885 1.904-11.424-1.39-1.39-5.372 2.245-6.665.952-.705-.705-.187-3.996-.952-4.76-1.94-1.94-8.371.197-9.044-.476-2.324-2.324-.692-4.63-3.808-6.189-2.233-1.116-3.84 3.554-5.237 2.856-1.533-.766-5.136-5.136-6.188-6.188-1.055-1.055-4.837 1.352-5.236.952-1.332-1.332-.336-4.214-2.38-5.236-3.52-1.76-6.47 4.566-7.617 5.712-1.122 1.122-2.686-1.734-3.808-2.856-1.018-1.018-4.717 3.787-5.712 4.284-.862.431-3.581-.828-5.236 0-1.065.532-3.393 3.064-4.76 2.38-1.976-.987-4.439-2.065-6.665-.952-.688.344-5.712 4.199-5.712 3.809 0-.972-2.753-.187-4.285-.953-1.731-.865-1.331-3.594-4.284-2.856zM205.192 329.547c-2.862 15.76-8.113 24.96 4.76 44.27 5.832 8.749 34.317 13.286 42.842 4.76 5.585-5.584 17.787-32.195 10.473-39.51-2.93-2.93.5-11.875-2.38-14.756-4.68-4.68-5.188-11.376-9.997-16.185-2.68-2.681-7.727-1.245-10.948-2.856-6.796-3.398-17.378-1.07-23.326 1.904-3.47 1.735-12.217 18.409-11.424 22.373z" stroke="#fff" stroke-width="1.954"/><path d="M310.87 300.034c-7.039-3.096 5.888 1.328-2.38-1.429-4.245-1.414-6.682 7.124-2.38 11.425 3.715 3.716 9.96-7.396 4.76-9.996zM296.113 275.28c-6.495-.835 5.24 0-2.38 0-1.246 0-3.66 2.232-4.285 2.856-8.796 8.797 20.787 11.266 6.665-2.856zM282.784 270.044c-6.227 3.796 5.059-3.531-2.38 1.428-2.018 1.345-3.22 4.534-4.284 6.664-4.495 8.99 18.107-1.226 6.664-8.092zM283.736 293.845c-6.574-1.275 5.385.818-2.38-.476-1.745-.29-4.534 1.201-5.236 1.904-8.078 8.078 19.532 18.433 7.616-1.428zM278.024 322.407c-2.265 1.502-.122-3.21-2.856-.476-.896.896-6.495 3.502-4.285 5.712 1.032 1.031 1.349 2.777 2.38 3.808 3.47 3.47 12.004-7.596 4.76-9.044zM283.26 347.16c-.476-.635-2.063-1.428-1.428-1.904.635-.476 2.221 1.904 1.428 1.904-2.77 0-6.303-4.94-10.473-2.856-1.673.836 6.454 22.95 10.473 2.856zM311.345 325.263c-1.52.082-.952-2.38-2.856-.476-1.932 1.932-5.279 3.375-7.14 5.236-2.484 2.484 8.508 5.297 10.472 3.332.979-.978 1.225-3.128 1.905-3.808 1.475-1.475-.698-3.443-2.38-4.284zM304.681 371.913c-.635 0-1.904.635-1.904 0 0-.634 2.539 0 1.904 0-3.02 0-9.618 10.9-6.664 12.377 11.023 5.512 12.002-8.893 8.092-14.757M293.256 363.82c-6.506-4.776 5.158 3.598-2.38-1.427-4.305-2.87-14.881.827-9.996 5.712 3.75 3.75 18.46 5.856 12.376-4.284z" stroke="#000" stroke-width="1.954"/><path d="M254.698 360.965c-.634-.318-2.221-.318-1.904-.952.318-.635 2.614.952 1.904.952-2.413 0-5.838-2.793-8.568-1.428-6.639 3.319 16.947 15.393 8.568 1.428z" fill="none" stroke="#000" stroke-width="1.954"/><path d="M258.03 384.29c-2.972-2.386-7.419-1.527-10.472 0-5.852 2.926 6.056 13.395 9.997 11.425 3.396-1.698 6.512-11.425.476-11.425zM249.462 398.095c-6.529-1.758 5.469 1.664-2.38-.952-4.142-1.381-9.648 4.156-6.188 7.616 4.37 4.37 18.74-.836 11.424-5.712" stroke="#000" stroke-width="1.954"/><path d="M239.942 365.249c-14.654 11.522 20.032 16.026 0 0z" fill="none" stroke="#000" stroke-width="1.954"/><path d="M220.9 379.53c-1.022-2.744-13.9 6.092-8.568 11.424 3.404 3.404 11.57-.62 13.805-2.856 1.288-1.288-1.476-7.282-1.904-8.568M204.24 382.386c-19.675-.989-12.948 20.564-.476 8.092 2.016-2.016 2.255-5.126.476-8.092zM202.812 364.297c-21.344.262.476 20.402.476 2.38" stroke="#000" stroke-width="1.954"/><path d="M185.675 371.913c-2.605 6.706 1.673-5.495-.952 2.38-1.161 3.484 1.983 13.25 6.188 9.045 5.385-5.385 1.946-11.425-5.236-11.425zM164.254 371.437c-2.077.021-5.713 1.253-5.713 2.856 0 2.803 3.791 3.315 5.237 4.76 12.093 12.094 13.058-10.7 2.38-7.14M167.586 391.906c-3.458-1.548-11.436 14.276-1.904 19.041 9.039 4.52 7.153-16.172 4.284-19.04M172.346 348.112c-2.398.268.415-3.302-3.332-1.428-2.302 1.151-2.38 3.041-2.38 5.236 0 1.934 1.872 3.555 3.332 4.285 1.411.705 4.04 3.563 4.76 4.284 4.775 4.775 7.438-6.486-2.38-12.377zM150.925 349.54c-21.433-3.704-2.01 13.911 1.904 9.997 2.753-2.753 1.52-8.285-1.904-9.997zM158.541 334.307c-.703.838-2.403-1.892-5.236-.476-14.04 7.02.811 14.422 3.332 11.9 1.877-1.876 10.18-9.768 1.904-11.424zM159.017 324.787c-2.158-.538.02.476-3.332.476-1.305 0-18.276 2.193-15.709 4.76 4.033 4.033 20.715 3.13 19.041-5.236zM178.534 284.8c-3.414-2.968-6.558 13.858 0 17.138 4.256 2.127 7.244-11.342 0-17.137zM186.627 282.897c-4.104 13.935 16.231 9.234 2.38 0" stroke="#000" stroke-width="1.954"/><path d="M200.432 285.753c-.635 0-1.905.634-1.905 0 0-.635 2.353-.449 1.905 0-.818.817-2.289.384-2.857.952-8.674 8.674 16.825 7.43 2.857-.952zM196.623 303.366c-.634.158-1.745 1.11-1.904.476-.158-.635 2.197-1.061 1.904-.476-.654 1.308-1.821 2.297-2.856 3.332-.503.503 4.04 9.765 5.713 8.092 3.899-3.9 1.582-10.536-2.857-11.424zM212.332 274.328c-.317-.635-1.587-1.587-.952-1.904.635-.317 1.454 2.406.952 1.904-1.393-1.393-2.922-2.446-3.808-3.332-1.053-1.053-6.832-6.973-8.092-5.712-3.291 3.29 3.242 8.762 4.76 9.52 2.27 1.135 7.126-.511 7.14-.476.318.794-1.587.635 0 0zM238.514 268.616c-1.09-2.543-2.727-2.856-5.237-2.856-12.607 0 5.713 18.368 5.713 9.996 0-3.185.809-3.927-.476-7.14zM250.414 263.38c-7.231-3.403-4.852 12.898-.952 10.948 1.288-.644.775-2.202 1.428-2.856 1.365-1.364.266-6.238-.476-8.092z" stroke="#000" stroke-width="1.954"/><path d="M258.03 265.76c-24.675 13.142 8.169 20.42 0 0zM262.315 290.513c-.635-.476-2.38-.793-1.904-1.428.476-.635 2.697 1.428 1.904 1.428-1.505 0-3.22-2.492-4.284-1.428-9.795 9.795-.298 15.055 5.712 9.044 1.147-1.146-1.2-6.473-1.428-7.616z" stroke="#000" stroke-width="1.954"/><path d="M159.501 420.936c25.553 2.536 41.507-12.249 59.028-18.089M244.998 468.476c-3.314-4.375-4.116-47.14 2.857-57.6M329.332 299.255c-4.346 16.488-34.552 33.5-45.223 49.506M230.655 253.524c2.446 12.841.952 28.641.952 40.462M152.073 395.48c7.979 2.828 46.39-4.413 51.41-1.904 3.058 1.53 8.314 2.857 11.425 2.857M194.197 283.506c5.452 22.775 17.528 43.71 30.941 57.123" fill="none" stroke="#000" stroke-width="3.908"/><path d="M211.38 312.886c-4.657-5.052-24.606 12.45-14.28 17.613 6.776 3.389 12.847-6.193 17.612-1.428 1.324 1.324-6.709 16.572-3.808 22.373 4.422 8.844 11.69 1.85 14.757-4.284 1.875-3.75 1.332-7.044 4.284-9.997 1.138-1.137 1.863 7.06 2.38 8.093 1.622 3.244 10.629 12.22 15.233 7.616 6.827-6.826-6.356-19.825-3.332-22.849 1.39-1.39 9.952 4.024 11.425 4.76 6.563 3.282 15.617-5.803 9.996-11.424-4.792-4.792-14.016-4.972-18.565-9.52-3.381-3.382 11.665-6.425 6.664-11.425-15.157-15.157-19.615 2.856-24.277 2.856-2.455 0-5.677-5.677-7.14-7.14-1.134-1.134-6.903-2.38-8.569-2.38-11.753 0-3.813 11.404-2.38 17.136z" fill="#fff" stroke="#000" stroke-width="3.908"/><path d="M323.722 352.872c4.28-4.402 8.482-8.006 12.377-11.9 9.43-9.43 37.63-70.904 24.277-84.257-1.904-1.904-.476-7.14-2.38-9.044-1.204-1.204-10.583-23.691-9.045-25.23 2.36-2.36 6.468 10.333 10.949 8.093 9.384-4.692 19.172-6.837 29.99-1.428 6.961 3.48 18.782-2.51 25.705.952 9.735 4.867 12.054 13.958 19.517 21.421 3.95 3.95 9.601 6.27 13.329 9.996.838.839 7.804 36.28 6.188 39.51-1.844 3.689-2.311 7.072-5.236 9.997-2.47 2.47-9.345 2.53-12.853 4.284-12.224 6.112-23.631 17.444-33.798 27.61-7.923 7.923-6.87 30.196-12.376 35.702-3.203 3.202-5.067 9.827-8.569 13.328-14.9 14.9-21.703 30.748-36.654 45.699-3.21 3.21-5.635 7.816-9.996 9.996-4.91 2.455-32.392 17.115-37.13 12.377-1.524-1.524-5.816-2.484-7.617-4.284-2.885-2.886-4.103-7.912-7.14-10.949-.317-.317-1.4-.952-.952-.952 2.79 0 19.842 2.531 23.325-.952 4.202-4.202 5.62-14.663 9.997-19.04 7.06-7.06 16.408-15.681 21.42-25.706 2.648-5.295 4.037-14.033 8.093-18.09 2.242-2.241 6.82-6.5 8.093-9.044 1.003-2.006 0-9.208 0-12.376 0-1.222-2.702-2.059-2.38-2.38.215-.216 1.762-3.95.952-4.76-1.235-1.235-5.237 1.745-5.237 0 0-.102 2.07-2.69 1.428-3.333-.908-.908-4.006 2.003-4.76 2.38-3.289 1.645-4.936.326-8.092 1.904-4.19 2.095-7.21-3.738-11.425.476z" stroke="#fff" stroke-width="1.954"/><path d="M333.219 347.527c-12.409 10.11-29.9 24.277-44.747 24.277-2.81 0-10.1-.312-10.948-2.856M256.82 407.077c11.837 4.232 15.492 34.042 33.322 39.986" fill="none" stroke="#000" stroke-width="3.908"/></svg>