<svg xmlns="http://www.w3.org/2000/svg" xmlns:dc="http://dublincore.org/documents/dcmi-terms/" height="1308.25" version="1.2" viewBox="0 0 311.503 1308.25" width="311.503" overflow="inherit"><metadata><dc:description>Silhouette of Paranthropus boisei, processed by PhyloPic Tools (https://github.com/eweitz/phylopic-tools)</dc:description><dc:source>http://phylopic.org/image/72db44d2-686c-4c2b-8b4e-0c841a229996</dc:source><dc:creator>T. Michael Keesey</dc:creator><dc:license>http://creativecommons.org/publicdomain/zero/1.0/</dc:license></metadata><path d="M226.704 20.5c-1.001 0-2.442-.25-4.325-.75 3.018 1.356 6.543 3.273 10.575 5.75-.167.4-.384.65-.65.75-4.733-2.2-8.467-3.883-11.2-5.05a57.395 57.395 0 0 0-4.05-1.6c.559.358 1.108.725 1.65 1.1 4.197 2.91 7.605 5.969 10.225 9.175 5.139 3.057 8.514 5.182 10.125 6.375-.134.5-.5.783-1.1.85a186.83 186.83 0 0 1-6.45-3.65 28.389 28.389 0 0 1 2.149 4.225c5.01 4.45 8.31 7.976 9.9 10.575.4.066.184.1-.65.1a6201.56 6201.56 0 0 1-8.024-7.475c2.007 5.203 3.607 9.386 4.8 12.55 1.604.512 3.396.896 5.375 1.15-2.013-.197-3.771-.48-5.275-.85.045.098.087.198.125.3 1.976 2.596 3.067 5.046 3.275 7.35 5.517 3.866 8.275 6.207 8.275 7.025 0 .533-.051.867-.15 1a3.92 3.92 0 0 0-.5.2c-1.066-.1-2.066-.184-3-.25a89.791 89.791 0 0 0-.85-.075c.886.512 1.803 1.037 2.75 1.575 0 .267-.134.483-.4.65a78.485 78.485 0 0 1-5.5-2.9 208.785 208.785 0 0 0 3.55 3.575 21.752 21.752 0 0 1-.75-.925c-.533-.667-.883-1.217-1.05-1.65.366.133.983.783 1.85 1.95.733 1 1.334 1.934 1.801 2.8 0 .267-.134.483-.4.65a43.346 43.346 0 0 1-1.35-1.2 9.962 9.962 0 0 0-1.575 1.075 20.21 20.21 0 0 1 1.675.375c-.167.233-.417.433-.75.6h-2.025c-.116.113-.232.229-.35.35.463.099.755.232.875.4-.016.025-.032.05-.05.075 2.716.043 5.565.352 8.55.925l-.1 1.15c-.034 0-.101.066-.2.2a.905.905 0 0 1-.45.3c-.167-.167-.45-.467-.85-.9-.434-.333-.967-.5-1.601-.5-2.095 0-4.045.058-5.85.175l-.75 1.875c.129.169.254.336.375.5.062-.05.12-.1.175-.15l-.125.225c.086.106.169.214.25.325.214-.181.405-.331.575-.45 1.586-1.058 3.194-1.491 4.825-1.3-.965.233-2.248 1.125-3.851 2.675.194-.046.387-.088.575-.125-.31.254-.643.521-1 .8.799 1.162 1.44 2.187 1.925 3.075.298-.09.489-.131.575-.125l.15.4c-.136.06-.294.126-.476.2.344.683.577 1.274.7 1.775a38.784 38.784 0 0 0 3.275-1.875c-.564.891-1.614 1.833-3.15 2.825-.008.44-.041.749-.1.925a4.96 4.96 0 0 1-.25.75h-.4c-.041-.358-.1-.725-.175-1.1-.607.354-1.273.713-2 1.075.123.221.239.438.35.65 1.567-.409 3.259-.867 5.075-1.375.767.167 1.184.383 1.25.65-1.266.414-2.499.806-3.7 1.175-.466.418-1.023.86-1.675 1.325.434.85.809 1.633 1.125 2.35l-.5.65c-.221-.298-.729-1.099-1.525-2.4-2.048 1.352-4.831 2.885-8.35 4.6-.724.62-1.499 1.287-2.325 2-.17.148-.337.299-.5.45-.035.13-.068.264-.1.4.104.114.204.231.3.35.521.365.971.698 1.35 1 1.866-1.126 3.8-2.209 5.801-3.25-.368 1.309-2.685 3.375-6.95 6.2.162.152.329.311.5.475 3.586-.935 5.653-1.327 6.2-1.175-.34.34-1.648.931-3.926 1.775-.265.259-.539.509-.824.75.611.59 1.245 1.198 1.899 1.825-.1.233-.434.4-1 .5a27.972 27.972 0 0 1-1.95-1.025c-.004.454-.054.729-.149.825-.066.067-.184.15-.351.25l-.5-.15c0-.15-.074-.334-.225-.55-.644.411-1.336.812-2.075 1.2.6.478 1.142.945 1.625 1.4a28.492 28.492 0 0 1 6.325-.45 64.137 64.137 0 0 1-4.9 1.95c.613.74 1.047 1.44 1.301 2.1-.316-.624-.816-1.299-1.5-2.025-.393.144-.792.285-1.2.425-.223.076-.439.151-.65.225a56.346 56.346 0 0 0 1.75 2.925c-.1.267-.184.45-.25.55-.07.094-.236.152-.5.175 1.36 1.661 2.144 2.586 2.351 2.775-2.292-1.18-4.45-2.672-6.476-4.475a.24.24 0 0 1-.075.05 9.95 9.95 0 0 0-.125.3 75.65 75.65 0 0 1 .676 3.275.365.365 0 0 0 .024.075c.178.321.361.638.55.95a33.51 33.51 0 0 0 2.426 2.325l-.45.7c2.054 2.898 4.287 5.298 6.7 7.2-.134.3-.25.517-.351.65-.233.233-.616.35-1.149.35-1.871 0-3.846-1.467-5.926-4.4.137.557.278 1.14.426 1.75.363.617.688 1.183.975 1.7 1.404 2.021 2.412 3.588 3.025 4.7a.793.793 0 0 1-.125.25c.779.866 1.57 1.616 2.375 2.25l-.101.35c.167.167-.166.25-1 .25-1.005 0-2.139-.725-3.399-2.175.132.548.266 1.107.399 1.675a772.757 772.757 0 0 0 5.601 8.5l-.101.4c-.939-.817-2.507-2.667-4.7-5.55.879 3.801 1.554 7.243 2.025 10.325 2.1 2.477 4 4.952 5.7 7.425v.1h-.226c-1.324-1.774-3.091-3.857-5.3-6.25.061.503.119.995.175 1.475.762.7 1.47 1.358 2.125 1.975a90.953 90.953 0 0 1 3.2 3.2c-.012.441-.02.891-.024 1.35a109.516 109.516 0 0 0-4.375-4.15c-.233-.2-.45-.4-.65-.6 1.5 2.567 2.884 5.067 4.15 7.5l1.05 1.225c.005.108.013.208.024.3 2.871 2.462 4.796 4.82 5.775 7.075l-.5.5a213.983 213.983 0 0 1-4.825-3.975c.197 1.185.405 2.368.625 3.55.227.148.46.29.7.425a8.156 8.156 0 0 1-.625-.05c.204 1.17.421 2.336.65 3.5.331.181.655.364.975.55l-.825.25c.007.032.015.065.025.1.619.288 1.219.505 1.8.65a7.823 7.823 0 0 1-1.7-.15c.285 1.399.585 2.8.9 4.2 2.233 2.526 4.167 4.426 5.8 5.7-1.5-.767-3.3-2.1-5.4-4l-.024-.025a281.109 281.109 0 0 0 3.175 12.775c.099.361.198.719.3 1.075.578.272 1.145.498 1.7.675v.75a8.197 8.197 0 0 1-1.375-.3c4.241 14.943 8.559 23.86 12.95 26.75.201 2.38.809 7.78 1.825 16.2 1.267 10.733 2.25 18.317 2.949 22.75 2.733 22.033 4.101 35.35 4.101 39.95-3.066 29.767-5.851 49.816-8.351 60.15-.699 3.067-1.333 5.8-1.899 8.2-1.634 2.1-3.4 5-5.3 8.7-4 8.833-6.134 13.5-6.4 14-3.533 6.6-6 11.317-7.4 14.15a820.7 820.7 0 0 0-3.149 6.45c-.3.433-.617.9-.95 1.4-.434.6-.816 1.167-1.15 1.7a54.326 54.326 0 0 0-.6 3.2c-.4 1.167-.6 2.017-.6 2.55 0 .133.033.283.1.45-.967 5.367-1.983 10.9-3.05 16.6-2.566 13.733-4.783 26.267-6.65 37.6-.467 1-.85 2.117-1.149 3.35-.267 1.2-.7 3.05-1.301 5.55-.466 2.233-.699 4.133-.699 5.7.166 2.033.216 3.967.149 5.8-.333 2.367-.616 4.65-.85 6.85-.867 4-1.3 7.35-1.3 10.05 0 .133.033.3.1.5-1.3 12.9-1.634 22.867-1 29.9 1.4 15.433 10.934 46.617 28.6 93.55a77.22 77.22 0 0 1 7.7 8.6c6.267 8.101 9.533 15.65 9.8 22.65 3.367 12.434 5.351 20.384 5.95 23.85.8 4.667 1.2 11.551 1.2 20.65 0 21.134-2.75 38.9-8.25 53.3-8.9 23.267-24.316 35.934-46.25 38h-16.55c-5.066-1.1-8.601-1.983-10.601-2.649-3.333-1.101-5-2.717-5-4.851 0-.366.051-.7.15-1-5.533-2.133-12.367-4.899-20.5-8.3-.833 1.634-1.55 4.1-2.15 7.4-.367 1.8-.717 3.449-1.05 4.949-1.3-.533-2.316-.683-3.05-.449-.867.3-4.35 2.35-10.45 6.149-5.8 3.634-8.933 5.45-9.4 5.45-.667 0-2.417-.05-5.25-.15-2.933-.1-4.617-.166-5.05-.199.167-1.434-.117-2.551-.85-3.351-1.267-1.434-4.483-2.149-9.65-2.149-2.667 0-5.967 1.1-9.9 3.3.066-2.4.167-4.767.3-7.101-.433.634-.833 1.217-1.2 1.75h-.15c-.967 2.034-1.783 3.7-2.45 5-.567-.1-1.1-.199-1.6-.3-1.934 2.767-3.55 4.617-4.85 5.55 1.333-2 2.633-3.966 3.9-5.899a5.07 5.07 0 0 1-.95-.45c-.4 1.333-.784 2.3-1.15 2.9h-.55c-.1-.034-.15-.301-.15-.801 0-.199.217-.933.65-2.199.1-.301.183-.534.25-.7a3.587 3.587 0 0 1-.25-.5c-3.933 5.333-6.9 8.55-8.9 9.649 1.5-1.666 4.767-6.483 9.8-14.449.033-.634.067-1.301.1-2a87.967 87.967 0 0 1-2 1.649v.8l-.7-.199c-2.966 2.433-5.667 4.483-8.1 6.149-.633 2.066-1.2 3.767-1.7 5.101h-.3c.333-1.467.65-2.934.95-4.4-.2.134-.383.25-.55.35l.25-.75c.133-.133.283-.267.45-.399.233-1.101.467-2.184.7-3.25l-.55-.601c.466-1.533.95-3.033 1.45-4.5h-.4c-.1-.133-.217-.283-.35-.449-1.7 3.633-3.283 5.966-4.75 7h-.35A205.2 205.2 0 0 0 92.003 798l-.3-1a.385.385 0 0 1-.05-.149c-.434 1.767-.75 3.05-.95 3.85-.633 2.367-1.267 4.15-1.9 5.351.533-2.467.8-5.084.8-7.851.034-1.2.083-2.366.15-3.5-.367-.166-.583-.366-.65-.6-.767 1.233-1.6 2.217-2.5 2.95 1.167-2.5 2.184-5.317 3.05-8.45-1.333-1.367-2.434-2.816-3.3-4.351a73.806 73.806 0 0 1-1.7 4.551h-.3c.6-2.434 1.05-4.384 1.35-5.851l-.2-.2h-.6c-1.5-.533-2.583-1.3-3.25-2.3-.267-.366-.417-.684-.45-.95-.233 2.834-.417 6.101-.55 9.801h-.3c-.167-3.4-.25-5.517-.25-6.351 0-.733.083-2.3.25-4.7.067-1.866.167-3.483.3-4.85-.434-1.2-.817-2.283-1.15-3.25l-.3 1.1c-.133-.166-.283-.433-.45-.8-.067-.233-.133-.366-.2-.399-.2.333-.417.649-.65.949.066-.699.183-1.433.35-2.199a16.456 16.456 0 0 1-.15-1.351c-.267.5-.566.834-.9 1-.333-.767-.6-1.6-.8-2.5-.1.267-.2.467-.3.601-.233-.2-.633-.934-1.2-2.2-.3-.667-.533-1.233-.7-1.7-.066.5-.183 1.05-.35 1.65-.267-1.767-.583-4.983-.95-9.65a5.946 5.946 0 0 1-.85-.95c-.067.334-.15.717-.25 1.15a.837.837 0 0 0-.05.25c-.034.3-.05.6-.05.899-.133 3.467-.283 6.184-.45 8.15-.034.267-.2.483-.5.65-.6-2.634-1.15-8.034-1.65-16.2 0 .666-.05 1.416-.15 2.25-.167 1.2-.233 2-.2 2.399l-.3-.1c.434 6.667 1.217 12.05 2.35 16.15.267.333.017.5-.75.5-2.567 0-4.167-3.25-4.8-9.75-.167-6.534-.25-9.867-.25-10 0-1.733.017-3.534.05-5.4-.967-1.366-1.833-2.967-2.6-4.8-.566 13.166-1.3 22.316-2.2 27.45-.767-.601-1.3-2.184-1.6-4.75-.233-1.534-.35-2.9-.35-4.101 0-2.2.183-5.783.55-10.75a216.331 216.331 0 0 1-.5-6l-.2-.7c-.067.301-.15.717-.25 1.25h-.65c-.167-.899-.517-3.783-1.05-8.649a188.69 188.69 0 0 1-1.85-10.15 95.031 95.031 0 0 1-.35 4.2c-.133 1.1-.25 2.116-.35 3.05l.2 7c0 .934-.066 2.45-.2 4.55-.2 2.634-.434 4.684-.7 6.15-.833-3.6-1.417-9.8-1.75-18.6a485.393 485.393 0 0 1-.15-6.851c-.615-3.713-1.206-7.329-1.775-10.85-.29.39-.615.757-.975 1.1.048 4.121.148 7.621.3 10.5.267 6.167.833 12.867 1.7 20.101-1.667-3.801-2.767-8.351-3.3-13.65-.267-2.9-.4-7.616-.4-14.15v-.199a5.737 5.737 0 0 1-.6.949c.4 6.534.6 10 .6 10.4 0 1.033-.066 1.533-.2 1.5-.1-.033-.184-.167-.25-.4l-.85-.25c-.2-.633-.367-1.233-.5-1.8.033 1.066.083 2.233.15 3.5.5 7.834.833 12.15 1 12.95.367.167.167.25-.6.25-1.433 0-2.3-2.816-2.6-8.45-.1-5.7-.15-8.583-.15-8.649v-3.551c-.2-2.033-.333-4.933-.4-8.699v-.45c-.1-.566-.183-1.15-.25-1.75v18.7c-.066.933-.25 2.666-.55 5.199-.167 2.301.017 3.983.55 5.051-1.233-.534-1.9-1.75-2-3.65.133-1.8.2-2.75.2-2.85 0-.567.066-1.417.2-2.551l-.2.051c-.4-2.067-.817-5.217-1.25-9.45-.633-1.9-1.267-4.767-1.9-8.601l-.8-.25c-.533-7.5-.8-11.616-.8-12.35-.267-2.9-.4-5.384-.4-7.45 0-1.267.216-3.1.65-5.5v-3.3c-.1-.3-.217-.6-.35-.9-.367 4-.767 7.367-1.2 10.101a2.83 2.83 0 0 0-.05.55c-.267 6.767-.467 15.767-.6 27l-.45.15-.25-12.601c-.167-.5-.3-1.05-.4-1.649-.267 2.433-.55 5.683-.85 9.75h-.3c0-.834-.05-2.184-.15-4.051-.133-1.866-.2-2.966-.2-3.3 0-.5.05-1.05.15-1.649 0-.034.017-.051.05-.051a91.081 91.081 0 0 1-.15-1.8c-.233 2.566-.617 4.851-1.15 6.851h-.35c-.067-.334-.1-.917-.1-1.75 0-2.434.167-5.867.5-10.301.433-5.1.683-8.466.75-10.1v-8.575a2.746 2.746 0 0 1-.1-.274c-1.185 9.14-1.535 17.057-1.05 23.75l-.2.25c-.167-.267-.383-2.067-.65-5.4-.267-3.033-.4-5.017-.4-5.95v-1c-.367 2.533-.617 4.483-.75 5.851-.434-2.7-.65-5.051-.65-7.051 0-1.767 1.25-8.616 3.75-20.55a.445.445 0 0 0 .05-.2v-.7c.1-1.067.217-2.017.35-2.851l-.2-.8c-.433 3.6-1.05 6.95-1.85 10.05-.767 4.467-1.533 7.816-2.3 10.05-.133-.333-.067-.75.2-1.25-.3.167-.45-.583-.45-2.25 0-1.1.033-2.333.1-3.699a1.243 1.243 0 0 1-.15-.301c.133-1.166.25-2.316.35-3.449h-.2c-1.467 8.066-2.4 13.517-2.8 16.35l-.45.15a23.325 23.325 0 0 1-.2-2.851c0-3.934 1.383-12.967 4.15-27.1a539 539 0 0 1 1.15-5.601c.033-.666.083-1.316.15-1.949a9.577 9.577 0 0 0-.1-.45c-.7 3.833-1.483 8.1-2.35 12.8l-.55.15c.469-2.659 1.202-7.384 2.2-14.176l-1.3-.225v-5.7c-1.241 6.449-2.175 10.549-2.8 12.3a304.79 304.79 0 0 0-.9 5.301h-.75c1.167-7.867 2.5-15.367 4-22.5-.333-1.5-.65-2.95-.95-4.351a11792.052 11792.052 0 0 0-4.2 18.55l-.45.25c-.1-.133-.15-.233-.15-.3-.033-.1-.05-.45-.05-1.05 0-.566.65-3.767 1.95-9.6l-.15-.051v-2.6c.538-3.168 1.08-6.16 1.625-8.975a19.748 19.748 0 0 1-.725-1.675 10.252 10.252 0 0 1-.625-2.325c-1.328 4.924-2.17 9.083-2.525 12.475l-.05.2c-.033.166-.1.3-.2.399-.1-.133-.15-.233-.15-.3-.033-.1-.05-.45-.05-1.05 0-1.967.967-7.267 2.9-15.9l.1-.5c-.6-2.7-.9-4.067-.9-4.1a8.945 8.945 0 0 1-.15-.85c-.633 2.667-1.216 5.117-1.75 7.35l-.65-.15v-2.6c.434-1.6 1.067-4.117 1.9-7.55a92.082 92.082 0 0 1-.85-8.3c-.034-.333-.05-.717-.05-1.15a365.72 365.72 0 0 0-1.65 8.5v.1c.7-1.6 1.167-2.8 1.4-3.6l.45-.15c-.133 1.066-.483 2.467-1.05 4.2-.867 2.534-1.367 4.017-1.5 4.45l-.45.1a4307.697 4307.697 0 0 1 2.7-16.95c-.133-3.933-.233-9.4-.3-16.4-.1-15.433.633-30.667 2.2-45.7a261.253 261.253 0 0 1 1.65-12.675c-.567-7.532-.85-16.657-.85-27.375 0-2.8.683-12.333 2.05-28.6 1.534-17.833 2.767-29.05 3.7-33.65.633-3.1 1.983-7.883 4.05-14.35 1.897-5.844 3.738-10.935 5.525-15.275-.096-.716-.188-1.408-.275-2.075l-.2.3c.066-.133.117-.267.15-.4a126.11 126.11 0 0 0-.4-2.45c-10.1-.333-17.65-3.283-22.65-8.85-.567 1.533-1.467 2.3-2.7 2.3-.933 0-1.683-.65-2.25-1.95-.367-.9-.55-1.65-.55-2.25 0-1.867.566-3.133 1.7-3.8a7.132 7.132 0 0 1-.25-.45c-1.115-2.404-1.907-5.396-2.375-8.975-.099-.333-.19-.675-.275-1.025-.333-1.4-.5-4.9-.5-10.5 0-4.7 3.633-12.367 10.9-23 5.827-8.586 11.352-15.294 16.575-20.125a737.918 737.918 0 0 0 6.775-12.775l.025-.025c1.653-2.147 3.378-4.605 5.175-7.375 1.333-2.067 4-6.5 8-13.3.658-1.077 2.258-3.418 4.8-7.025.762-3.618 1.679-7.16 2.75-10.625-.044.591-.469 3.266-1.275 8.025l5.425-12.525c1.027-.91 2.394-2.477 4.1-4.7v-.8h.6c.676-.896 1.4-1.888 2.175-2.975l.375-.85a121.311 121.311 0 0 0-1.15-5.175h.75c.257 1.541.507 2.999.75 4.375 1.689-3.833 3.522-7.958 5.5-12.375.269-.696.61-1.438 1.025-2.225a51.639 51.639 0 0 1 2.575-6.225c3.4-6.867 7.867-11.933 13.4-15.2.386-.228.77-.444 1.15-.65 5.267-8.679 7.9-13.329 7.9-13.95 0-1.267-.183-2.283-.55-3.05.234-.177.467-.352.7-.525a2.43 2.43 0 0 1-.65-.875 3.073 3.073 0 0 1-.2-1.075 65.543 65.543 0 0 1-3.35 1.525l-1-1.5c1.131-.371 2.29-.82 3.475-1.35-.198-.19-.148-.874.15-2.05l-2.5-.025c-.854.633-1.729 1.275-2.625 1.925l-2.5-.25a47.697 47.697 0 0 0 2.7-1.675l-4.6-.05a124.59 124.59 0 0 1-2.6 1.725l-.5-.5c.493-.369 1.026-.777 1.6-1.225l-3.4-.025a84.16 84.16 0 0 0-2.45-.55h-.275c-1.553.977-3.045 1.744-4.475 2.3.129-.097 1.029-.897 2.7-2.4-2.381-.487-4.631-.946-6.75-1.375a32.76 32.76 0 0 1-2.95 1.775 52.487 52.487 0 0 0 2.275-1.925c-8.284-1.739-14.425-3.147-18.425-4.225-9.5-2.533-14.333-5.983-14.5-10.35-.2-4.7-1.85-9.85-4.95-15.45a58.9 58.9 0 0 0-1.75-2.9c-1.501-1.04-2.435-1.64-2.8-1.8l.05-.15a29.462 29.462 0 0 1-.35-.05l-.55-.15v-2.65c.065-.065.39-.24.975-.525.427-1.072 1.436-2.097 3.025-3.075.293-.18.568-.33.825-.45-1.601-1.148-2.759-2.148-3.475-3l-.35-.35c-1.1-1.067-1.65-1.8-1.65-2.2 0-.55.508-1.101 1.525-1.65.8-2.008 2.375-4.275 4.725-6.8a32.139 32.139 0 0 1 2.05-2c1.317-1.672 2.384-2.672 3.2-3 .715-.992 1.715-1.975 3-2.95.761-.59 1.728-1.324 2.9-2.2v-.2c0-.367.567-.85 1.7-1.45a12.957 12.957 0 0 1 1.5-.7c.139-.095.281-.195.425-.3a1.77 1.77 0 0 1-.125-.65c0-.294.033-.553.1-.775a12.124 12.124 0 0 0 1.375-1.2c.136-.021.278-.029.425-.025.334.016.676.091 1.025.225a77.998 77.998 0 0 0 2.375-2.425c.008-.145.025-.262.05-.35.229-.571.729-1.029 1.5-1.375 2.319-2.705 3.903-5.097 4.75-7.175.554-1.433 1.028-3.358 1.425-5.775a2.598 2.598 0 0 1-.275-.675c-.2-.667-.2-1.367 0-2.1 0-2 .542-3.575 1.625-4.725.903-3.348 3.595-6.322 8.075-8.925 1.398-.796 2.624-1.279 3.675-1.45-.35-.593-.525-1.126-.525-1.6 0-.944.483-1.628 1.45-2.05.224-1.045.382-1.845.475-2.4a2.643 2.643 0 0 1-.275-1.15c0-.419.083-.811.25-1.175-.133-1.883-.433-5.35-.9-10.4-1.881-.905-3.447-4.113-4.7-9.625a67.76 67.76 0 0 1-1.55-10.05c0-3.1 1.4-6.6 4.2-10.5 1.291-1.789 2.691-3.314 4.2-4.575.255-.679.655-1.504 1.2-2.475.8-1.533 1.433-2.367 1.9-2.5l.15.75c-.6.9-1.117 1.683-1.55 2.35-.262.403-.487.761-.675 1.075a18.735 18.735 0 0 1 4.35-2.375c.359-.416.801-.899 1.325-1.45 1.367-1.434 2.3-2.267 2.8-2.5.733.1 1.15.233 1.25.4a103.62 103.62 0 0 0-3.45 2.95c.266-.076.533-.143.8-.2.692-.139 1.725-.264 3.1-.375.429-.398.879-.823 1.35-1.275 2.3-2.2 3.483-3.317 3.55-3.35-.434 1.066-1.767 2.533-4 4.4a4.39 4.39 0 0 0-.2.175c.57-.044 1.195-.085 1.875-.125a220.78 220.78 0 0 0 2.675-2.7c2.2-2.233 4.083-3.817 5.65-4.75-1.033.933-2.75 2.617-5.15 5.05-.859.871-1.643 1.654-2.35 2.35.041.002.082.002.125 0 2.175-1.359 5.2-3.243 9.075-5.65l.2-.125c1.474-1.662 3.84-4.537 7.1-8.625-.926 2.267-2.785 4.825-5.575 7.675a675.15 675.15 0 0 1 4.725-2.925 60.114 60.114 0 0 0 3.9-4.25c2.167-2.567 4.983-6.067 8.45-10.5-3.033 4.9-5.567 8.517-7.6 10.85a44.056 44.056 0 0 1-2.1 2.25 490.288 490.288 0 0 1 6.775-4.125c1.937-2.52 2.962-4.345 3.075-5.475h.35c.066.066.117.1.15.1v.8c0 .603-.533 1.745-1.6 3.425a46.082 46.082 0 0 1 1.975-1.05 934.618 934.618 0 0 1 5.875-4.925c.63.086 1.031.194 1.2.325 1.297-.743 2.78-1.459 4.45-2.15 3.251-3.708 5.535-6.099 6.85-7.175.974.083 1.798.167 2.475.25l.125-.1a2.356 2.356 0 0 0-.1.1c1.486.163 2.286.313 2.4.45a.792.792 0 0 0 .2.175c-.547-.15-.997-.225-1.35-.225l-1.725.05a486.31 486.31 0 0 0-5.3 5.125c2.158-.724 4.25-1.249 6.275-1.575a27.388 27.388 0 0 1 2.225-.275 49.84 49.84 0 0 1 4.375-1.825 47.989 47.989 0 0 0-3.8 1.8c1.147-.024 1.998.109 2.55.4 5.421-3.187 11.338-5.47 17.75-6.85v.4c-6.443 1.711-12.218 4.061-17.325 7.05.274-.103.55-.202.825-.3a278.27 278.27 0 0 0-3.425 2.025c.213-.044.43-.086.65-.125a58.769 58.769 0 0 1 17.025-5.05c.87-.984 1.453-1.601 1.75-1.85a15.752 15.752 0 0 1-.85 1.725 65.234 65.234 0 0 1 4.325-.375c1.229-2.107 1.787-4.058 1.675-5.85h.35l.4.2c.167.1.25.4.25.9 0 1.327-.583 2.893-1.75 4.7a55.985 55.985 0 0 1 1.75-.05 55.43 55.43 0 0 0-1.825.15l-.45.675a38.082 38.082 0 0 1 3.125-.725 727.269 727.269 0 0 0-4.125 2c-.236.287-.486.578-.75.875l.025.025h-.05c-.097.118-.197.235-.3.35h2.7a65.45 65.45 0 0 1 2.9-.325 291.315 291.315 0 0 0 2.1-3.975c1.534-2.9 2.534-4.5 3-4.8a31.919 31.919 0 0 1-1.55 7.775c1.655-.6 3.338-1.192 5.05-1.775-.325.212-2.009 1.045-5.05 2.5.738-.039 1.455-.072 2.15-.1a30.125 30.125 0 0 1 10.1-3.65c.746-.411 1.513-.828 2.3-1.25-.298.298-.714.656-1.25 1.075a33.994 33.994 0 0 1 2.25-.225v.4a33.852 33.852 0 0 0-3.199.55 94.676 94.676 0 0 1-3.65 2.525c.079-.005.153-.014.225-.025 2.77-.776 5.194-1.167 7.275-1.175 2.101-.931 3.901-1.522 5.4-1.775v.4c-1.316.421-2.65.896-4 1.425.207.023.406.048.6.075 0 .026.025.068.075.125a60.189 60.189 0 0 1 3.675-.025l.15.4c-.941.128-1.95.286-3.025.475l.025.025a.186.186 0 0 1-.051-.025c-.999.18-2.058.388-3.175.625 2.851-.361 7.125-.894 12.825-1.6a569.367 569.367 0 0 0-8.95 1.725 229.53 229.53 0 0 1 3.7-.225c.767.167 1.184.333 1.25.5-4.588.68-8.329 1.305-11.225 1.875.267.06.533.118.8.175 2.62.015 5.111.132 7.475.35 2.282.212 4.024.454 5.226.725l2.975-.125c0-.1 1.65-.1 4.95 0 3.434.1 5.533.267 6.3.5-1.248.624-4.248 1.032-9 1.225 4.5.496 7.3.788 8.4.875v.4c-.367.133-1.417.283-3.15.45-1.7.2-2.866.3-3.5.3-.073 0-2.489-.175-7.25-.525a51.71 51.71 0 0 1 1.8.85c2.552.191 4.852.516 6.9.975 2.267.5 5.533 1.4 9.8 2.7.667.167 1.083.367 1.25.6-.234.271-.767.404-1.6.404zm-97.201-2.95c.055-.058.113-.116.175-.175-.11.083-.218.167-.325.25.048-.021.098-.046.15-.075zm2.525-1.025a66.262 66.262 0 0 1 3.675-1.3c.474-.563.99-1.164 1.55-1.8-1.445.616-2.712 1.291-3.8 2.025a13.88 13.88 0 0 0-1.425 1.075zm7.175-4.825a46.827 46.827 0 0 1 1.65-.625c1.786-1.682 3.911-3.524 6.375-5.525l-2.075.05c-2.35 1.769-4.524 3.885-6.525 6.35.187-.088.379-.171.575-.25zm-1.7 2.8a52.816 52.816 0 0 1 1.75-1.875c-.588.216-1.154.441-1.7.675l-.15.2c-.354.524-.696 1.024-1.025 1.5.308-.096.616-.188.925-.275l.2-.225zm.775-.075c1.443-.412 2.943-.803 4.5-1.175a70.376 70.376 0 0 1 4.6-2.8c-2.563.506-4.863 1.09-6.9 1.75-.724.723-1.366 1.373-1.925 1.95a8.912 8.912 0 0 1-.275.275zm32.95-5.325h.825c.062-.074.12-.149.175-.225l-.85.15-.15.075zm1.35-.65l.025-.025-.05.025h.025zm-4.225.4a40.8 40.8 0 0 1 5.4-2c.195-.296.379-.588.55-.875a84.86 84.86 0 0 0-4.425.55 24.262 24.262 0 0 1-1.525 2.325zm.5-2.15c-5.462.922-10.521 2.397-15.175 4.425a692.08 692.08 0 0 1 13.1-2.025c.803-.94 1.495-1.74 2.075-2.4zm15.851 2.225l-.176.1c.172-.04.348-.081.525-.125-.118.01-.235.018-.349.025zm-1.801.125c-.209.016-.417.032-.625.05h.551l.074-.05zm-29.8.475c-1.587.212-3.096.445-4.525.7a54.265 54.265 0 0 0-3.95 2.625c.455-.105.913-.206 1.375-.3 1.065-.216 2.224-.441 3.475-.675l.475-.325a54.004 54.004 0 0 1 3.15-2.025zm34.5-1.25a602.062 602.062 0 0 1 4.45-2.425 33.636 33.636 0 0 0-6.2 2.475 51.607 51.607 0 0 1 1.75-.05zm55 52.7c-.242-1.076-.708-2.217-1.399-3.425.356.996.623 1.762.8 2.3.089.268.173.56.25.875.118.082.235.166.349.25zm.125 2.25c.009.054.017.112.025.175a2.14 2.14 0 0 1 .024-.15.134.134 0 0 0-.049-.025zm.25 2.175c.048.51.09 1.043.125 1.6.971.583 1.979 1.183 3.025 1.8l4.075-.2c-.671-.531-3.029-2.231-7.075-5.1a83.412 83.412 0 0 1-.15 1.9zm.325 8.275v.125c0 .211-.009.428-.025.65l1.15.175c1.048-.519 2.04-.811 2.975-.875a23.053 23.053 0 0 1-.5-.45.826.826 0 0 1-.1.25c-.134.2-.467.3-1 .3-.774 0-1.607-.058-2.5-.175zm0-1.5a46.1 46.1 0 0 0 3.2.75 154.452 154.452 0 0 1-3.25-3.15c.021.765.038 1.565.05 2.4zm-.025 6.775c.285-.325.56-.617.825-.875-.472.04-.93.081-1.375.125v.025c.189.243.372.484.55.725zm-.449.525a13.036 13.036 0 0 1-.301-.4c-.101.385-.208.777-.324 1.175.213-.271.421-.53.625-.775zm.849 1.225c-.071.177-.139.352-.2.525.117-.113.234-.222.351-.325a2.552 2.552 0 0 1-.151-.2zm.3.45c-.157.227-.332.46-.524.7l.625-.55-.101-.15zm.9 1.95a9.65 9.65 0 0 1-.226.25c-.616.742-1.175 1.408-1.675 2 .297.486.581.961.851 1.425 1.169-.416 2.11-.741 2.824-.975a28.428 28.428 0 0 0-1.55-2.875 4.86 4.86 0 0 1-.224.175zm-3.975 7.9a57.35 57.35 0 0 1 1.051-1c-.223.264-.48.564-.775.9 1.014-.378 1.98-.753 2.9-1.125-.361-.58-.744-1.205-1.15-1.875-.895.327-1.887.686-2.975 1.075a25.62 25.62 0 0 1-2 3.025l.3-.1c.912-.302 1.794-.603 2.649-.9zm4.1.3a18.365 18.365 0 0 0-.25-.425c-.767.367-1.592.742-2.476 1.125.858-.211 1.766-.445 2.726-.7zm.275-2.025a50.592 50.592 0 0 0 2.325-1.025 17.802 17.802 0 0 0-.7-1.875c-.716.285-1.615.635-2.699 1.05.381.641.74 1.258 1.074 1.85zm-2.75-2.025a39.413 39.413 0 0 1-.5-.8 76.979 76.979 0 0 1-1.3 1.475c.638-.238 1.237-.463 1.8-.675zm-.675 6.25c-1.338.356-2.621.681-3.85.975-.491.54-1.016 1.115-1.575 1.725 1.678-.766 3.22-1.449 4.625-2.05.261-.217.528-.434.8-.65zm-5.175 1.3a4.578 4.578 0 0 1-.125.3c.135-.123.269-.248.4-.375a3.634 3.634 0 0 1-.275.075zm-.05 7.35a40.85 40.85 0 0 1-.976-.575c.208.269.408.536.601.8l.375-.225zm-1.375.85l.524-.325-.975-.975-.4 1.75.051.025c.261-.152.528-.31.8-.475zm-2.674 7.65c.166.312.333.612.5.9.073-.014.148-.031.225-.05.341-.083.683-.158 1.025-.225-.475-.404-1-.821-1.575-1.25-.06.211-.119.42-.175.625zm22.324 218.4c0-.133.017-.4.051-.8 0-.367-.067-.65-.2-.85v1.65h.149zM76.703 441.7h.1v-.55c-.033.2-.067.383-.1.55zm-56 177.05c-.033-.033-.05-.067-.05-.1-.4.967-.733 2.283-1 3.95 0 .133-.167 1.65-.5 4.55.367-.833.717-2.283 1.05-4.35.267-1.6.434-2.95.5-4.05zm10.75 56.45v.875c.007-.385.023-.776.05-1.175a.7.7 0 0 0-.05.3zm1.1 10.8v1.65c.055-.401.113-.81.175-1.225l-.175-.425zm-10.2-41.35c.7-4 1.083-6.617 1.15-7.85-.733 4.234-1.15 6.85-1.25 7.85h.1zm25.975 61.75a42.199 42.199 0 0 0-.075-.45v.65a9.27 9.27 0 0 1 .075-.2zm-9.525-15.95a3.096 3.096 0 0 1-.3-.55c.1 4.6.517 10.9 1.25 18.9.333 3.933.617 7.366.85 10.3v-15.3c-.066-.4-.15-.784-.25-1.15-.733-3.833-1.25-7.9-1.55-12.2zm-6.05 8.65l-.05-.1c-.033.834-.033 1.7 0 2.601 0-.768.017-1.601.05-2.501zm4.65 7.65c-.033.801-.05 1.567-.05 2.301.2 1.699.467 3.566.8 5.6-.1-.934-.2-1.9-.3-2.9l-.45-5.001zm22.5 27c.033-.6.083-1.199.15-1.8-.1-.399-.167-.8-.2-1.2 0 .966.017 1.966.05 3zm25.95 37.05c-.2.366-.383.716-.55 1.05-.033.899-.05 1.783-.05 2.649.033 1.101.1 2.15.2 3.15.167.667.4 1.316.7 1.95.066.1.117.217.15.35l.35-2.45c-.3-1.799-.567-4.033-.8-6.699zm3.75-7.3c.034-.366.1-.733.2-1.1.167-.866.333-1.7.5-2.5-.167.5-.367 1-.6 1.5-.033.434-.1.884-.2 1.35.034.233.067.483.1.75zm-7.4 7.65c.067.467.133.967.2 1.5.033-.6.05-.934.05-1l-.1-1.55c-.066.333-.117.684-.15 1.05zm2.2-22.45l.4-1.2c-.133-.267-.25-.517-.35-.75-.066.367-.15.75-.25 1.15l.2.8zm27.3 35.8a82.317 82.317 0 0 0 2.15-1.35c.267-1.634.517-3.25.75-4.85-.2-.434-.45-.851-.75-1.25-.8 2.666-1.517 5.15-2.15 7.45zm4.25-14.05c-.1.367-.233.733-.4 1.101-.2.533-.4 1.083-.6 1.649-.3 1-.583 2-.85 3 .267.167.5.4.7.7.367-2.167.75-4.317 1.15-6.45zm-43.55-34.4a15.122 15.122 0 0 0-.75-.7c.167.566.316 1.133.45 1.7a101.84 101.84 0 0 1 1.55 8.75l.75 3c.033-1.034.083-2.117.15-3.25-.9-3.766-1.616-6.933-2.15-9.5zm15.65 42.7c.033.7.117 1.351.25 1.95.733 0 1.383.017 1.95.05a1.122 1.122 0 0 0-.15-.35c-.767-1.8-1.233-3.7-1.4-5.7-.033.634-.083 1.117-.15 1.45-.1.767-.266 1.634-.5 2.6zm2.25 4h-2.35a10.798 10.798 0 0 0 2.25 2.2l.1-2.2zm13.95 8.25c-.067.9-.133 1.817-.2 2.75l.5.7a.547.547 0 0 0 .15-.1c.1-1.3.2-2.517.3-3.65-.233.1-.483.2-.75.3zm-3.55 5.15c-.033-.333-.066-.65-.1-.95-.5 1-.983 2.017-1.45 3.05-.033-.033-.233-.3-.6-.8-.1-.2-.217-.333-.35-.399a190.776 190.776 0 0 1-2.3 5.1c-.767 2.6-1.45 4.9-2.05 6.9 2.767-2.367 5.267-4.517 7.5-6.45-.133-1.467-.35-3.517-.65-6.15-.4-.033-.483-.1-.25-.2.067-.035.15-.068.25-.101zm2.25-1.6a5.13 5.13 0 0 1-.15.699c.2-.1.417-.199.65-.3l-.5-.399zm-12.85-7.85c0-.2.017-.383.05-.55-1.067-.4-2-.917-2.8-1.55a22.195 22.195 0 0 0 2.35 3.7l.4-1.6zm16.2 13.575c.071-.123.138-.231.2-.325v-.05l-.15.15a.479.479 0 0 1-.05.225zm2.5-5.425c-.1.434-.217.85-.35 1.25.3-.3.583-.566.85-.8.2-.334.383-.65.55-.95-.367.166-.716.333-1.05.5zm-4.1-7.4a17.48 17.48 0 0 0-.15 1.3c.233-.133.45-.25.65-.35.133-1.233.267-2.384.4-3.45-.1.3-.233.584-.4.851a93.954 93.954 0 0 1-.5 1.649zm8.35-.75c-.833.4-1.617.8-2.35 1.2-.367 1.3-.7 2.533-1 3.7.833-.533 1.667-1.066 2.5-1.601.4-.767.75-1.483 1.05-2.149.066-.467.133-.917.2-1.351-.166.068-.3.134-.4.201zm-10.3 14.1l.25.3c.5-.434.983-.851 1.45-1.25.067-1.134.133-2.334.2-3.601a13.53 13.53 0 0 1-2 .25c-.033 1-.083 2.017-.15 3.051.034.666.117 1.083.25 1.25zm-.35.6c.033.066.033.15 0 .25.133-.1.233-.2.3-.3l-.3.05zm2.75 5.65c.333.366.8.85 1.4 1.449l.1-.1c1.133-3 2.333-6.267 3.6-9.8-.7 1.066-1.45 2.2-2.25 3.399-.9 1.301-1.75 2.534-2.55 3.7-.1.469-.2.919-.3 1.352z" fill-rule="evenodd"/><path d="M91.153 1122.25v-.449c-.1.333-.133.649-.1.949 0-.2.033-.367.1-.5zm94.75-506.45c7.634 4.067 11.434 8.983 11.4 14.75-.167.7-.5 1.3-1 1.8 2.233 5.933 3.233 13.916 3 23.95.066.033-.167 1.733-.7 5.1 1.334 9.9 1.9 18.583 1.7 26.05-.467 18.367-1.85 39.533-4.15 63.5-1 10.233-2.55 24.634-4.649 43.2l.1 1.75c0 .167-.6 8.233-1.8 24.2-1.667 18.967-3.733 36.399-6.2 52.3-4.633 29.434-10.083 50.283-16.35 62.55.033.4.05.834.05 1.3.067 1.367-3.733 9.584-11.4 24.65 0 .233.017.483.05.75 0 .033.033.55.1 1.55l-.2-.399c.1 1.6.217 3.199.35 4.8l.3.399c.167 1.567.367 3.067.6 4.5a4.48 4.48 0 0 1-.45-.649c.6 5.2 1.533 9.934 2.8 14.2 1.367 2.699 3.517 6.517 6.45 11.449 4.167 7.034 6.533 12.367 7.1 16 .533 4 .883 10.017 1.05 18.051.1 4.133.15 8.366.15 12.699.267 6.367.6 13.2 1 20.5.2 4.7.1 8.567-.3 11.601-.333 3-1.217 7.717-2.65 14.149-.967 4.267-3.1 13.601-6.4 28-.8 3.667-1.6 7.2-2.4 10.601-.1 1.033-.2 2.116-.3 3.25-1.1 12.434-1.85 19.483-2.25 21.149h-.65l-.15-.449c-.066-.233-.117-.834-.15-1.801-.066-1.3 0-4.183.2-8.649-.7 2.633-1.367 5.166-2 7.6.033 1.867.066 4.117.1 6.75.1 6.5.083 11.684-.05 15.55h-.6l-1.3-12.3c.167 12.4.25 22.417.25 30.05l-.85.25c-.367-4.866-.816-11.583-1.35-20.149-.767 3.967-2.267 10.45-4.5 19.45l.5 14.449-.6.2c.733 2.733 1.5 5.084 2.3 7.05-1.667-1.899-3.183-5.883-4.55-11.949-.233 1.1-.467 2.183-.7 3.25-.1-.2-.217-.384-.35-.551.1.233.217.467.35.7-.4 2.101-.767 4.117-1.1 6.05-.2-.399-.433-.8-.7-1.199 0 .433-.034.883-.1 1.35h.6c.033.1.083.217.15.35-.3 1.801-.55 3.551-.75 5.25-.333 3.134-.6 6.483-.8 10.051.667 2.633 1.4 5.033 2.2 7.199-.767-1.133-1.533-2.633-2.3-4.5-.067 1.5-.1 3.034-.1 4.601-.067.467-.15.95-.25 1.45.1.1.167.199.2.3.034 1.3.067 2.616.1 3.95a19.582 19.582 0 0 1-.75-1c.033.1.033.183 0 .25.233.3.483.616.75.949 0 3.101.067 6.317.2 9.65 0 .066-.033.7-.1 1.9 0 1.433.117 2.733.35 3.899.167.733.383 1.384.65 1.95-.233-.033-.45-.1-.65-.2 1.167 1.934 2.9 4.267 5.2 7 4.633 5.334 7.05 10.717 7.25 16.15 0 .133-.017 1.533-.05 4.2 1.9 4.533.883 7.633-3.05 9.3-3.9 1.633-10.7 3.899-20.4 6.8-9.6 3-18.066 3.55-25.4 1.65-6.066-1.567-11.083-2.667-15.05-3.301-.633-.1-1.233-.199-1.8-.3l-.1.05c-4.034-.267-9.7.717-17 2.95-7.1 2.3-13.9 3.65-20.4 4.05-12 .834-20.283-.149-24.85-2.949-1.934-.934-3.35-2.317-4.25-4.15a9.491 9.491 0 0 1-4 2.6c-2.867 1.067-5.017 1.134-6.45.2-1.733 1.066-3.1 1.851-4.1 2.351-1.733.866-3.467.733-5.2-.4-1.9-1.033-3.45-4.167-4.65-9.4-.933-4.6 4.467-10.533 16.2-17.8 1.333-.7 2.75-1.366 4.25-2 5.733-2.467 10.617-3.75 14.65-3.85.1-.033.317-.066.65-.101 3.867-2.699 8.333-4.966 13.4-6.8-.434-.166-.75-.35-.95-.55.433.033.95.15 1.55.35 1.034-.466 2.1-.866 3.2-1.199a32.154 32.154 0 0 1-1.9-1.5c.933.166 2.033.483 3.3.949 2.6-.8 5.3-1.55 8.1-2.25l-.1-.1c1.033-.4 2.184-.55 3.45-.45a50.389 50.389 0 0 1 3.1-.6c.2-.066.45-.117.75-.15-3.2-.7-5.284-1.316-6.25-1.85 1.033-.2 3.75-.033 8.15.5-.1-.066-.267-.184-.5-.351-.434-.3-.75-.449-.95-.449l-.15-.351c.767.367 1.667.55 2.7.55.6 0 1.167-.05 1.7-.149l-2.25.85c.267.033.517.05.75.05a37.9 37.9 0 0 0 2.05-1c1.9-.5 3.433-1.683 4.6-3.55.233-.2.467-.416.7-.649-.133.033-.25.066-.35.1.5-.866.934-1.85 1.3-2.95-2.733 1.767-5.717 3.7-8.95 5.8l-.5-.5c.467-1.267 1.55-2.783 3.25-4.55a1.72 1.72 0 0 0-.25-.2c-.033.233-.083.367-.15.4-.133.033-.233-.467-.3-1.5-.066-1.9 2.633-5.983 8.1-12.25 0-.1.05-.184.15-.25v-1.05a4.5 4.5 0 0 1 .35-.5c-.133.033-.233.05-.3.05.033-.4.033-.75 0-1.05a884.979 884.979 0 0 0 4.5-6.9c.133-.366.25-.717.35-1.05-.467-.033-.733-.15-.8-.35.033-.167.1-.334.2-.5-1.2 1.8-2.25 3.216-3.15 4.25.767-2.101 2-5.101 3.7-9-2.367 3.5-3.75 5.816-4.15 6.949h-.6c.133-1.233.417-2.533.85-3.899-3.467 4.066-5.967 7.033-7.5 8.899 1.3-3.733 4.6-8.767 9.9-15.1 1.233-2.667 2.8-5.533 4.7-8.6.167-.4.35-.784.55-1.15.033-.566.05-1.116.05-1.65a30.111 30.111 0 0 1-.05-1.8c.3-.533.633-1.066 1-1.6a2269.417 2269.417 0 0 1-6 8.149c-3.033 4.334-4.683 6.917-4.95 7.75h-.65c-.3-.199-.517-.35-.65-.449-.167-.2-.267-.801-.3-1.801-.033-.633.95-3.083 2.95-7.35 1-2.167 2.083-4.366 3.25-6.6l-.75.199c1.5-4.233 3.6-8.767 6.3-13.6a6.46 6.46 0 0 0 .2-.45c.133-1.934.284-3.967.45-6.1-1.733 2.467-3.467 4.517-5.2 6.149h-.65c.233-.3 2.333-4.183 6.3-11.649.433-5.334.716-10.084.85-14.25.034-.101.1-.2.2-.3.033-.101.067-.217.1-.351a1.005 1.005 0 0 0-.3.351c.1-3.034.117-5.75.05-8.15v-.1l-.05-.2c0-.5-.017-.983-.05-1.45-.033-.833-.233-2.866-.6-6.1l-.1-1.7c-.033.1-.05.217-.05.35-.133-1.166-.3-2.434-.5-3.8.067-.366.117-.733.15-1.1l-.8-11.301c-.2 1-.4 1.917-.6 2.75-.033-.3-.05-.466-.05-.5-.7-17.5.033-36.666 2.2-57.5 2.267-17.767 3.35-27.8 3.25-30.1-.133-3.233-.85-6.866-2.15-10.9-1.033-3.033-2.15-5.533-3.35-7.5a52.79 52.79 0 0 0-.25-2.3c-1.633-13.533-2.367-22.416-2.2-26.649.167-6.534-2.017-13.601-6.55-21.2-4.667-7.467-7.017-11.517-7.05-12.15-.067-7.1.85-13.934 2.75-20.5.367-.934.617-1.783.75-2.55a36.86 36.86 0 0 1-2.65-3.05v.25c-.833.2-1.383.233-1.65.1l-.25-.649c-.267-.034-.4-.067-.4-.101-.133 0-.333-.283-.6-.85-.6-1.467-1.133-3.15-1.6-5.05a19.52 19.52 0 0 0-.6-1l-.451-.299a4.878 4.878 0 0 0-.15-.75 34.4 34.4 0 0 1-1.9-3.649c0 .967-.033 1.684-.1 2.149l-.5-.1c-.133 0-.217.017-.25.05l-.3-.649a148.288 148.288 0 0 0-.45-4.65c-.4-.934-.8-1.884-1.2-2.85a12.21 12.21 0 0 1-.7.649c.133 1.267.233 2.283.3 3.05-.667-.233-1.066-.767-1.2-1.6a2.661 2.661 0 0 0-.15-.55c-.066 0-.117.017-.15.05 0-.1.017-.217.05-.35-.767-2.467-1.2-5.601-1.3-9.4 0-.167-.05-.366-.15-.6-.1 1.1-.217 2.283-.35 3.55l-.05-.05c.333 3.066.783 5.699 1.35 7.899-.034 0-.067.017-.1.05-.6-2.899-1.317-6.399-2.15-10.5-.3-1.466-.567-2.883-.8-4.25-.033-1.5-.066-2.916-.1-4.25-.767-2.933-1.533-5.85-2.3-8.75v.101c-.9-5.267-1.433-9.25-1.6-11.95-.633-1.533-1.033-3.9-1.2-7.1l-.3-8c-.233-2.4-.8-4.25-1.7-5.551.066-.267.117-.55.15-.85-.233-3-.383-5.983-.45-8.95-.167.4-.3.733-.4 1 .033-.866.133-1.983.3-3.35.034-2.434.083-4.834.15-7.2.2-6.833.8-15.233 1.8-25.2l-.6.2c.167-1.2.533-2.816 1.1-4.85.267-2.4.567-4.867.9-7.4.434-2.134.867-4.634 1.3-7.5 1.367-8.434 2.1-14.3 2.2-17.6.167-1 .333-1.983.5-2.95 4.033-27.934 7.75-47.8 11.15-59.601 6.967-25.733 15.767-47.1 26.4-64.1 6.7-13 15.933-22.95 27.7-29.85 10.233-5.833 21.317-8.967 33.25-9.4 10.867-.365 20.183 1.435 27.95 5.402zm-36.5 587.5c-.1-2.601-.283-5.801-.55-9.601-.267 1.101-.517 2.2-.75 3.3.233 1.567.6 3.4 1.1 5.5l.2.801zm-59.2 31.65c-.133.167-.283.367-.45.601l-.1.199c.2-.166.417-.316.65-.449.133-.301.283-.567.45-.801-.2.133-.383.284-.55.45z" fill-rule="evenodd"/><path d="M228.353 634.85c.2.633-.066 1.2-.8 1.7 4.1 6 6.934 13.933 8.5 23.8l-.1 5.05c3.466 9.866 5.733 18.45 6.8 25.75 1.733 10.533 3.25 21.967 4.55 34.3-.033.033-.066.05-.1.05-2.4 1.367-3.7 3.784-3.9 7.25-.167 3.301.116 6.217.85 8.75.367 1.233 1.233 3.25 2.601 6.051 2.533 5.267 3.616 11.333 3.25 18.199-.2 4-1.566 17.134-4.101 39.4-2.733 24.333-4.75 39.833-6.05 46.5-2.233 11.3-4.483 25.8-6.75 43.5-.633 5.066-2.467 12.65-5.5 22.75-2.733 9.167-4.233 16.083-4.5 20.75 0 .033-.033.6-.1 1.7a11.5 11.5 0 0 0 .2 3.05 24.161 24.161 0 0 0-.15 1.75c-.066.866 4.4 6.733 13.4 17.6 6.333 3.934 10.866 7.45 13.6 10.551 3.5 3.899 5.667 9.1 6.5 15.6.3 2.134 1.8 11.934 4.5 29.4 2.5 17.5 3.616 28.866 3.35 34.1-.033.533-.683 3.566-1.949 9.1.133 4.867.083 9.5-.15 13.9-.066 1.4-1.233 16.017-3.5 43.85a6.677 6.677 0 0 1 0-1.149c-.4 2.233-.816 4.533-1.25 6.899-.033.2-.05.4-.05.601.434-1.467.816-3 1.149-4.601l-1.3 15.5c-.133 1.601-.316 3.4-.55 5.4-.033-.033-.05-.083-.05-.15a35.07 35.07 0 0 0-.65 2.5c-.066 1.2-.133 2.334-.2 3.4a561.273 561.273 0 0 1-2.449 13.05c-.101-1.434-.2-3.066-.301-4.899a154.607 154.607 0 0 1-1.5 6.149c.101 2.4.15 4.483.15 6.25-.033.033-.05.084-.05.15-.033.1-.05.2-.05.3h-.601c-.1.634-.149 1.267-.149 1.9-.067.5-.233 1.149-.5 1.949l.449-.1a889.392 889.392 0 0 0-1.149 5.15l-.851 16.899c.067.101.15.2.25.3l-.05.75a1.605 1.605 0 0 1-.25-.199l-.25 4.75c1.2 2.933 2.634 7.5 4.3 13.699l-.3.75c-1-2.533-2.434-5.55-4.3-9.05l-.3 6.3c-.134 1.4-.283 2.717-.45 3.95.167.3.35.617.55.95.167.4 1.3 3.983 3.4 10.75l-.4 2.3c-.1.334-.233.601-.399.8-.233-.8-1.184-2.416-2.851-4.85.667 2.833 1.733 7.066 3.2 12.7 1.233 5.133 2.15 9.684 2.75 13.649h1.55c.267.467.4.9.4 1.301 5.467 3.466 8.467 7.616 9 12.449 1.366 2.034 1.967 4.75 1.8 8.15-.267 4.866-.767 8.517-1.5 10.95-1.267 4.434-3.717 8.166-7.35 11.2-9.7 8.133-28.65 12.199-56.851 12.199-8.066 0-14.399-1.25-19-3.75-.566.034-1.05.051-1.45.051l-4.35.3v-.101c-4.267.267-8.45.017-12.55-.75-3.133-.466-8.467-.949-16-1.449-3.034-.167-6.45-.334-10.25-.5-15.133-.733-27.567-.851-37.3-.351-9.533.367-15.283-.267-17.25-1.899-2.767.366-7.816.466-15.15.3-4.033-.134-7.633-.517-10.8-1.15-.034-.434-.034-.717 0-.85.2-3.134 1.083-5.417 2.65-6.851 4.033-3.699 8.2-6.883 12.5-9.55.167-.1.316-.184.45-.25 12.5-.133 21.25-.899 26.25-2.3 4.133-4.167 14.317-10.75 30.55-19.75.3-.134 6.517-3.5 18.65-10.1-.4.166-.733.316-1 .449l-1.1-1.5-.05-.1c.167-.1.717-.15 1.65-.15.033 0 3.783-1.6 11.25-4.8.5-.2 1-.383 1.5-.55 2.7-1.533 4.9-2.8 6.6-3.8 2.267-3.2 4.467-7.533 6.6-13-9.3 8.733-15.15 14.616-17.55 17.649l-.4-.5c4.233-5.199 9.817-11.366 16.75-18.5l2.75-2.75c.167-.6.35-1.199.55-1.8-7.2 6.634-14.566 12.483-22.1 17.55l-.4-.5c8.7-7.633 16.667-14.783 23.9-21.449.133-.334.25-.684.35-1.051.434-1.466.884-2.966 1.351-4.5-3.101 3.601-5.717 6.434-7.851 8.5l-.45-.5c3.533-4.933 6.733-9.267 9.6-13 .934-3.866 1.8-7.916 2.6-12.149.5-2.4.917-4.434 1.25-6.101-1.033 1.334-2.316 3.15-3.85 5.45-3.934 5.9-6.083 10.334-6.45 13.3h-.7c.6-4.866 2.883-10.216 6.851-16.05a536.351 536.351 0 0 1-4.95 6.05l-.45-.5c2.6-3.6 6.017-7.966 10.25-13.1 0-.533-.033-1.033-.1-1.5a939.79 939.79 0 0 1-6.051 6.1c1.801-1.899 3.834-4.066 6.101-6.5-.3-8.366-.634-15.35-1-20.949.399-2.867.684-6 .85-9.4.533-10.134-.434-26.134-2.899-48-2.301-20-4.517-34.384-6.65-43.15-1.467-6.033-3.8-13.433-7-22.199-3.8-10-6.617-17.517-8.45-22.551-6.533-18.166-9.65-33.1-9.35-44.8a30.242 30.242 0 0 0-.8-1.05c-3.867.9-7.117 0-9.75-2.7-2.233-2.333-3.3-4.684-3.2-7.05.1-1.7.233-3.167.4-4.4-1.633-1.933-2.434-3.033-2.4-3.3-1-4.366-1.467-8.566-1.4-12.6-4.333-3.066-8.65-6.75-12.95-11.05a125.582 125.582 0 0 1-14.15-16.551c-3.233-4.466-5.367-7.833-6.4-10.1-3.267-7.033-7.167-17.616-11.7-31.75-4.033-12.6-6.033-19.4-6-20.4.167-3.133.95-5.6 2.35-7.399a6.653 6.653 0 0 1 2-1.75c-.434-2.066-1.233-4.4-2.4-7l-.1-.2v-.2a28.195 28.195 0 0 1-.3-2.25c-2.2-14.399-3.333-35.666-3.4-63.8.1-27.267 1.1-46.616 3-58.05 4.3-24.8 11.5-45.25 21.6-61.351 6.167-12.266 16.133-21.333 29.9-27.2 11.933-4.967 25.433-7.183 40.5-6.65 13.866.433 26.017 2.85 36.45 7.25 10.734 4.605 16.517 9.755 17.35 15.455z" fill-rule="evenodd"/><path d="M293.103 469.95c.066-.066.084-.15.05-.25v.05a.451.451 0 0 1-.05.2zm6.851-33.3c-.2-1.167-.417-2.417-.65-3.75v2.65c.134 2.4.167 4.567.1 6.5.199-1.967.383-3.767.55-5.4zm.549-7.75l-.5-.2c0-1.566-.184-3.433-.55-5.6-.101 2.1-.167 4.083-.2 5.95.366 1.633.684 3.133.95 4.5.133-1.767.234-3.317.3-4.65zm-.85-13.95c-.033.7-.033 1.4 0 2.1.2.733.351 1.45.45 2.15-.1-1.5-.25-2.917-.45-4.25zm0-6c.101 1.233.15 2.45.15 3.65.6 2 1 5.183 1.2 9.55.066.267.066.517 0 .75.399 1.9.517 3.167.35 3.8 0 .034.017.083.05.15.134.933.233 1.8.301 2.6-.067-2.5-.184-4.883-.351-7.15-.2-2.667-.45-5.133-.75-7.4-.233-2-.55-3.983-.95-5.95zm-.199-10.65c.1.567.116 1.083.05 1.55.467 1.2.899 2.367 1.3 3.5a36.486 36.486 0 0 0-1.35-5.05zm-12-58.6a553.795 553.795 0 0 1-3.101-6.6c.9 2.767 1.75 5.6 2.55 8.5.034 0 .067.05.101.15.8 1.433 1.533 2.717 2.2 3.85a150.05 150.05 0 0 1-1.65-3.3c1.333 1.9 2.417 3.6 3.25 5.1-.867-2.3-1.984-4.867-3.35-7.7zm-13.051-30.65a43.345 43.345 0 0 1-1.5-2.2 269.38 269.38 0 0 1 2.75 5.45c.601.8 1.184 1.567 1.75 2.3.834.767 1.634 1.4 2.4 1.9a160.98 160.98 0 0 1-3.45-4.7 7.187 7.187 0 0 1-.55-.25c-.467-.867-.933-1.7-1.4-2.5zm-1.55-8.3c.101-.133.117-.267.05-.4-.033.033-.066.033-.1 0 .067.167.083.3.05.4zm.05-5.75c-.033-.9-.1-1.8-.199-2.7l-.051-.1c-.033-.1 0-.233.101-.4-.167-1.2-.3-2.4-.4-3.6-.133 2.367-.35 4.75-.649 7.15.166.7.35 1.466.55 2.3.2.7.366 1.333.5 1.9.065-1.533.115-3.05.148-4.55zm-.5-23.85c-.1-.467-.25-1-.449-1.6.166 1.333.267 2.65.3 3.95l.399 2.4a81.812 81.812 0 0 0-.25-4.75zm-62.55-57c2.967-1.733 6.267-3.1 9.9-4.1 2.7-.767 5.5-1.35 8.399-1.75 11.467-2.267 20.817 2.533 28.051 14.4.233.4.449.75.649 1.05 2.733 4.733 5.084 9.483 7.05 14.25l.601-3.25c.267.667.366 1.15.3 1.45-.1.5-.1 1.067 0 1.7 3.467 3.533 5.616 6.133 6.45 7.8l-.3.05c-.7-.733-2.067-2.133-4.101-4.2 2.5 3.733 4.334 7.05 5.5 9.95-.8-1.133-2.517-3.633-5.149-7.5l.199.45c0 .034.017.1.051.2a49.32 49.32 0 0 1 1.699 3.1c2.767 4.9 4.267 8.6 4.5 11.1-.3-.5-2.1-4.067-5.399-10.7-.434-1-.884-1.95-1.351-2.85l-.3.05a65.742 65.742 0 0 1 2.2 7.3c.2.233.384.517.55.85h.05c-.033.033-.033.066 0 .1a57.705 57.705 0 0 1 3.051 7.05c1.5 4.1 2.683 8.85 3.55 14.25l-.25-.1c-1.4-5.667-2.834-10.4-4.3-14.2-.467-1.434-1-2.867-1.601-4.3h-.1c.3 1.2.566 2.417.8 3.65 0 .1.033.2.1.3 1.7 4.967 2.95 9.95 3.75 14.95.634 2.8.851 4.684.65 5.65-.066.367-.15.566-.25.6-.1.167-.116.267-.05.3l-.3-.05c-.4-2.8-.983-5.8-1.75-9 1.166 8.3 1.633 13.534 1.399 15.7.767 4.767.9 8.467.4 11.1-.233 1.1-.517 2.2-.851 3.3.034.067.067.15.101.25 3.566 6.367 5.333 9.783 5.3 10.25a62.216 62.216 0 0 1 2.3 3.45c-.066-.2-.184-.5-.35-.9-.134-.333-.184-.567-.15-.7.767.9 1.334 1.567 1.7 2 .066-.033.116-.033.15 0 .033.067.033.1 0 .1.133.167.233.316.3.45.2.267.25.784.149 1.55-.1.4-.183.566-.25.5-.066.033-.233 0-.5-.1a10.687 10.687 0 0 1-.699-.9c-.2.066-.434.05-.7-.05-.467-.167-.95-.4-1.45-.7a56.006 56.006 0 0 1 2.95 5c1.434 1.833 2.316 3.233 2.649 4.2-.233-.267-.533-.6-.899-1 1.399 2.9 2.333 5.483 2.8 7.75 2.833 5.4 4.25 8.95 4.25 10.65 1.4 3.4 1.983 5.7 1.75 6.9v.1c.267.8.384 1.367.35 1.7-.133.7-.25.833-.35.4-.3-.633-.7-1.466-1.2-2.5.566 1.267.816 2.117.75 2.55-.133.7-.233.85-.3.45-.366-.7-.717-1.3-1.05-1.8.267.7.416 1.317.45 1.85 4.133 7.566 7.767 16.883 10.899 27.95h-.399a521.35 521.35 0 0 0-7.25-16.15c1.1 2.934 2.433 6.45 4 10.55a880.124 880.124 0 0 0-3.051-5.4c3.267 7.667 5.867 14.8 7.801 21.4l-.4-.1c-1.167-2.7-3.116-6.95-5.85-12.75.066.167.1.333.1.5.267 1.467.5 2.917.7 4.35.967 2.4 2.316 7.216 4.05 14.45 1.934 8.133 2.767 12.75 2.5 13.85-.1.4-.184.617-.25.65-.033-.033-.134-.066-.3-.1-2.467-12.233-4.4-21.233-5.8-27 .233 1.633.399 3.3.5 5a151.301 151.301 0 0 1 2.35 9l-.25.15-1.65-3.6v.45c1.233 3.067 2.167 6.333 2.801 9.8a64.2 64.2 0 0 1 2.05 6.2c1.1 3.434 2.1 6.817 3 10.15l-.351.25c-.933-.867-1.633-1.967-2.1-3.3a69.515 69.515 0 0 0-1.4-4.25c.067 2.367.017 4.6-.149 6.7.066.467.05.883-.05 1.25l-.351-.15a7.9 7.9 0 0 1 0-1.25 136 136 0 0 0-.3-9.05c-.767-2.2-1.616-4.533-2.55-7 1.133 4.934 1.816 10.2 2.05 15.8.134 3.066.116 6.25-.05 9.55l-.2-.15c.3 3.033.366 5.033.2 6-.167.733-.316 1.2-.45 1.4l-.35-.15.1-5.1c-.1 1.5-.217 2.867-.35 4.1.333 1.833.433 3.017.3 3.55-.233 1.167-.434 1.383-.601.65 0-.333-.05-.7-.149-1.1-.3 1.867-.7 3.2-1.2 4-.033.767-.1 1.566-.2 2.4.2.4.384.783.55 1.15l-.649-.25c-.101.733-.2 1.417-.3 2.05-.167.867-.417 1.633-.75 2.3-.233 5.767-.5 9.55-.801 11.35-.233 1.1-.399 1.833-.5 2.2-.267.867-.6 1.517-1 1.95l-.3-.3c.101-1.533.217-2.966.351-4.3a8.223 8.223 0 0 1-.551 1.6c-.233 4.033-.483 6.717-.75 8.05-.1.533-.166.817-.199.85a.57.57 0 0 1-.101.15c-.033.367-.033.65 0 .85.3 2.4.351 4.117.15 5.15-.134.9-.4 1.533-.8 1.9.333 3.467.633 8.6.899 15.4 1.566 5.3 2.25 8.55 2.05 9.75-.066.4-.116.617-.149.65-.033.066-.101.117-.2.15-.233-.167-.45-.333-.65-.5a3.267 3.267 0 0 0-.25-.6 56.126 56.126 0 0 0-.6-4.25c.134 3.934.15 8.533.05 13.8 2.5 9.7 4.066 15.883 4.7 18.55-.667-1.633-1.533-4.283-2.6-7.95 1.033 4.2 1.933 8.417 2.699 12.65-.166.133-.383.117-.649-.05-1-4.667-2.417-10.316-4.25-16.95v.75c.467 1.767.95 3.633 1.45 5.6 1.866 7.833 3.25 14.45 4.149 19.85-1.833-5.767-3.733-12.717-5.7-20.85a107.52 107.52 0 0 0-.149 3.4c.5 2.367 1.05 4.917 1.649 7.65-.6-2-1.166-3.95-1.699-5.85-.034 2.233-.117 4.5-.25 6.8 4.267 11.633 6.633 18.5 7.1 20.6-.1.167-.233.184-.4.05-1.333-3.167-2.6-6.2-3.8-9.1.367 1.2.684 2.333.95 3.4l-.35-.1c-.733-2.7-1.834-6.066-3.301-10.1a3.094 3.094 0 0 0-.399-1.1c0 .6-.05 1.183-.15 1.75.3.7.617 1.4.95 2.1 3.233 8.4 5.417 14.767 6.55 19.1-.066.2-.25.25-.55.15 0-.167-.3-1-.9-2.5.2.867.267 1.517.2 1.95-.133.4-.233.633-.3.7v.1l-1-.4c.3.9.6 1.7.9 2.4a89.425 89.425 0 0 1 1.6 3.7l-.25.05c.434 1.333.6 2.117.5 2.35-.033.434-.1.65-.2.65a6.015 6.015 0 0 1-.35-.2 931.134 931.134 0 0 1-5.55-12.95 195.565 195.565 0 0 1-2.2-4.55c-.033.833-.066 1.667-.101 2.5 3.034 6.367 5.017 11.383 5.95 15.05l-.45-.15c-1.033-2.3-2.933-6.367-5.699-12.2 0 .5-.017 1.034-.051 1.6.801 1.667 1.45 3.217 1.95 4.65.134.1.233.25.3.45 1.567 3.8 2.634 6.867 3.2 9.2h-.25c.8 2 1.2 3.117 1.2 3.35-.033.1-.083.2-.15.3.167.5.284.917.351 1.25 2.066 5.133 3.066 7.85 3 8.15-.033.4-.167.65-.4.75l-.6.05c-1-1.933-2.101-4.216-3.3-6.85a1.66 1.66 0 0 1-.9.45c.033.133.1.3.2.5-.101-.1-.25-.283-.45-.55 1.533 2.566 3.15 5.933 4.85 10.1 2.4 6 3.584 9.367 3.551 10.1 1.8 2.7 3.1 4.917 3.899 6.65-2.899-3.867-5.283-7.1-7.149-9.7a17.238 17.238 0 0 1-1.051-1.5c.301.667.584 1.317.851 1.95.2.267.45.55.75.85 3.133 3.6 4.633 5.7 4.5 6.3-.134.433-.25.75-.351.95-.066.133-.1.217-.1.25l-.25-.05c-.3-.033-.65-.117-1.05-.25-.367-.133-1.3-.833-2.8-2.1.033.434.05.867.05 1.3.5.8 1.033 1.716 1.6 2.75.4.5.783 1.033 1.15 1.6 2.566 3.7 4.649 6.983 6.25 9.85-1.233-1.4-2.851-3.517-4.851-6.35-.1 0-.25-.017-.449-.05a159.148 159.148 0 0 1-1.801-2.85c.267.533.517 1.133.75 1.8 1 2.833 1.467 4.483 1.4 4.95-.066.367-.134.55-.2.55l-1.149-.35v.05c-.134.4-.25.583-.351.55l-3-1.1c.233.3.417.517.55.65.101.267.117.533.051.8-.2 1.133-.617 1.333-1.25.6a17.328 17.328 0 0 0-1.301-1.15c-.166.8-.283 1.233-.35 1.3h-.45c-.833-.4-1.533-.716-2.1-.95.7 1.367 1.416 2.8 2.149 4.3a1.67 1.67 0 0 1-.55.25l.4.5c.899.434 1.583.75 2.05.95.4.167.783.283 1.15.35l.35.1c-.2-.3-.767-.983-1.7-2.05-.833-.933-1.316-1.617-1.45-2.05.801.133 1.784.933 2.95 2.4 1.2 1.5 1.767 2.6 1.7 3.3-.1.4-.184.6-.25.6l-3.05-1.05c.366.466.717.9 1.05 1.3-.167.067-.25.117-.25.15-.033.033-.25-.033-.65-.2-.333-.067-.616-.25-.85-.55a1.772 1.772 0 0 1-.25-.1c-.7-.233-1.517-.767-2.45-1.6l-.149.3c-.434-.2-.834-.35-1.2-.45l-.05.35a1.08 1.08 0 0 1-.351.2l.95-.05-.15.75c-.033.233-.05.45-.05.65 1.367.667 2.417 1.2 3.15 1.6 1.267.7 1.85 1.467 1.75 2.3-.033.4-.117.583-.25.55l-4.2-1.45c-1.033-.367-2.267-.934-3.7-1.7l-2.5-.95c-.967.6-2.133 1.184-3.5 1.75 3.434 1.1 7.5 2.434 12.2 4 0 .1-.033.283-.1.55-.067.334-.134.5-.2.5l-.101.051c-1.233-.301-2.399-.584-3.5-.851.733.367 1.217.617 1.45.75l1.5 3.05c-.366 1.2-.55 1.417-.55.65h-1l-.65-.65c-3.6 0-8.399-.383-14.399-1.149a4.66 4.66 0 0 0-.05.649c3.333 1.367 7.316 2.851 11.949 4.45.967.134 1.967.267 3 .4-.033.166.15.366.551.6a25.55 25.55 0 0 1-1.4-.149l-.15.199c1 .167 2.051.351 3.15.551l-.25 1.05c-.167.066-.267.133-.3.2h-.851l-.149.55c-1 .1-3.316.267-6.95.5-1.333.333-2.917.7-4.75 1.1l.4 1.101c-.567.1-1.15.25-1.75.449 3.767-.433 6.767-.6 9-.5l-.101 1c-2.166 1.2-6.717 2.351-13.649 3.45.833.167 1.283.45 1.35.851-.733.833-2.233 1.666-4.5 2.5v.05c2.634-.7 4.75-1.267 6.35-1.7 3.667-1 5.367-.866 5.101.4 0 .6-1.217 1.35-3.65 2.25v.3c-.467 1.566-3.833 3.3-10.1 5.2a29.732 29.732 0 0 1-.9 2.6c.566 0 1.101-.083 1.601-.25 9.966-1.967 13.833-2.15 11.6-.55-1.3.833-3.833 1.7-7.6 2.6-1.667 1-3.317 1.934-4.95 2.8 7.467-1.833 11.983-2.783 13.55-2.85l-.25.95c-2.434.934-6.316 2.166-11.65 3.7-1.166.833-3.267 2.017-6.3 3.55-.2.399-.366.816-.5 1.25 10.3-4.066 15.334-5.417 15.101-4.05-.034.366-3.934 2.166-11.7 5.399-.533.233-1.084.483-1.65.75-.366.5-.8 1.017-1.3 1.55-.066.301-.15.634-.25 1-.066.4-.384.917-.95 1.551l-.05.25c5.9-2.101 9.434-3.15 10.6-3.15l-.199 1c-2.434.967-6.101 2.417-11 4.35-.167.101-.351.284-.551.551 2.2-.934 4.101-1.483 5.7-1.65.267-.866.733-1.1 1.4-.7l-.05.65c.633-.066 1.199-.05 1.699.05a26 26 0 0 0-.85.55c4.3-1.366 7.25-2.333 8.85-2.899l-.1.899c-4 2.134-10.134 4.75-18.4 7.851-.3.1-.533.216-.699.35-.301.233-1.301.934-3 2.1a5.16 5.16 0 0 1-.65 1.45c3-1.733 5.217-2.967 6.65-3.7-1.101 1.301-2.967 2.784-5.601 4.45 2.5-.866 6.283-2.233 11.351-4.1.133.267.199.517.199.75a73.448 73.448 0 0 1-5.199 2.7c.066 0 .116.033.149.1.2.1.25.35.15.75-.2 1.134-2.467 2.583-6.8 4.35v.25a56.037 56.037 0 0 0-4.301 2.5 244.372 244.372 0 0 0-1.35 3.15c.233-.3.417-.55.55-.75.2.134.351.3.45.5a.596.596 0 0 1 .1.15c-.6.899-1.383 1.783-2.35 2.649a127.576 127.576 0 0 1-1.95 4.75c4.3-2.133 6.834-3.05 7.601-2.75.466.134.683.25.649.351 0 .033-.05.083-.149.149l-.101.3c-1.066.767-4.333 2.934-9.8 6.5l-1.25 2.95c3.2-1.934 5.083-3.017 5.65-3.25l.05.351c-.367.767-1.367 1.8-3 3.1-2.101 1.634-3.25 2.517-3.45 2.65l.1.1 2.45-1.4c.233.301.367.584.4.851l-.15.649c-.066.534-1.533 2.2-4.399 5a.785.785 0 0 1-.2.15 36.89 36.89 0 0 0-.45 2.2c.434-.334.717-.483.85-.45.367.167.567.316.601.45l-.05-.05c0 .133-.051.333-.15.6-.066.533-.7 1.35-1.9 2.45-.133.666-.267 1.316-.399 1.95l2.2-.95c.366.166.566.3.6.399.033.034.033.084 0 .15-.033.167-.066.3-.1.4 0 .166-.051.433-.15.8 0 .2-.917.633-2.75 1.3 0 .033-.05.05-.15.05-.1.601-.233 1.217-.399 1.851.2-.067.383-.117.55-.15 1.667-.3 2.566-.434 2.7-.4.366.167.55.317.55.45 0 .033-.017.05-.05.05-.101.334-.134.767-.101 1.301.067.6.084 1.05.051 1.35-.167.733-1.75 1.767-4.75 3.1a425.52 425.52 0 0 0-1.65 9.351c1.667 3.333 3.35 7.1 5.05 11.3 2.066 5.1 3.55 9.366 4.45 12.8 1.033 3.767 1.533 6.25 1.5 7.45-.134 3.8-2.233 6.2-6.3 7.2-2.101.533-4.967-1.733-8.601-6.8a282.46 282.46 0 0 0-.25 5.149c-.933 17.566-.35 27.601 1.75 30.101 2.134 2.466 3.417 4.05 3.851 4.75 4.934 7.5 4.517 15.149-1.25 22.949 5.566 10.167 3.233 16.25-7 18.25l-.65-.25c-1.467 1.334-3.166 1.95-5.1 1.851-2.934-.167-6.233-3.384-9.9-9.65l-.25-.5a1.21 1.21 0 0 1-.55.45c-3.733 1.333-6.884.566-9.45-2.3-.7-.5-2.083-2.55-4.149-6.15-2.334-3.866-5.917-11.767-10.75-23.7-3.334-8.433-6.233-14.716-8.7-18.85-.2-1.233-.45-2.283-.75-3.15-1.167-3.033-1.384-6.8-.65-11.3.2 1.3.5 2.983.9 5.05-.334-2.566-.7-4.816-1.101-6.75.101-.466.134-.833.101-1.1l-.15.35c-.399-3.166-.684-5.433-.85-6.8-.601.467-1.2.9-1.8 1.3 1.6-5.666 3.017-11.3 4.25-16.899.899-4.4 1.517-13.634 1.85-27.7 3.2-1.8 6.983-8.283 11.35-19.45-1.066 1.934-1.649 2.867-1.75 2.8-.333-.133-.533-.3-.6-.5l-.15-.35c.267-1.366.367-2.233.301-2.6.066-.467.166-.983.3-1.551.133-.666.616-1.933 1.45-3.8v-.25a.551.551 0 0 0 .199-.2c.4-.733.817-1.55 1.25-2.449l-.05-.25c.8-1.4 1.55-2.733 2.25-4-.533.5-1.033.833-1.5 1 1-1.467 2.066-3.184 3.2-5.15-.3.333-.634.667-1 1v-.2c-.134.334-.15.167-.05-.5.066-.3.967-2.217 2.7-5.75a.565.565 0 0 1-.4.05c-.4-.166-.616-.3-.65-.399.067-.101.084-.233.051-.4 1.5-2.434 3.05-5.316 4.649-8.649.3-1.767.65-3.817 1.05-6.15-1.899 3.5-3.383 5.634-4.449 6.4 1.933-3.733 3.583-7.051 4.949-9.95.4-2.167.801-4.517 1.2-7.05-1 1.733-2.033 3.566-3.1 5.5l-.101-.7a150.892 150.892 0 0 0 3.5-7.05c.467-2.667.95-5.517 1.45-8.551 0-.333.084-.733.25-1.199 0-.233.017-.4.05-.5-2.633 5.1-4.433 8.233-5.399 9.399l-.2-.3c2.4-5.366 4.6-10.2 6.6-14.5 0-.333.034-.634.101-.9-.7 1.301-1.434 2.7-2.2 4.2-.167-.066-.267-.25-.3-.55l3.05-7.15c3.366-22.3 4.25-47.433 2.65-75.399-1.867-33.1-1.717-59.3.449-78.6 2.301-19.333.95-41.684-4.05-67.05-4.267-22.367-7.866-48.716-10.8-79.05-.467-4.7-.9-9.467-1.3-14.3-11.367-24.3-16.65-50.217-15.851-77.75.533-24.509 8.265-40.992 23.199-49.459zm82.55 256.6c.101 2.333.184 4.633.25 6.9.2.6.4 1.767.601 3.5.133-.633.184-1.433.149-2.4.034-.533 0-1.1-.1-1.7-.033-1.1-.15-2.333-.35-3.7-.2-.967-.367-1.867-.5-2.7.001.033-.016.067-.05.1zm-3.25 132.35l-.05.05c.066.067.15.133.25.2-.1-.1-.166-.183-.2-.25zm5.801.2c-.601-.6-1.301-1.25-2.101-1.95v.1c.334.367.584.75.75 1.15l2.45 3.95c.134.2.25.434.35.7.134.066.233.15.301.25l1.949 3.5c.934 1.566 1.851 3.15 2.75 4.75a1.846 1.846 0 0 0-.25-.1c.5.667 1 1.35 1.5 2.05l-.399.7c.533.533 1.149 1.2 1.85 2 .4.533.667 1.033.8 1.5a.609.609 0 0 1 .25.15v-.4c-.267-1.033-.733-2.5-1.399-4.4-.334-1.4-.667-2.434-1-3.1-.2-.333-.4-.633-.601-.9-.066 0-.116-.033-.149-.1-2.669-2.9-5.018-6.183-7.051-9.85zm.849-16.2a.435.435 0 0 0-.2-.05c.7 1.733 1.334 3.95 1.9 6.65.233 1.067.399 1.95.5 2.65.1.167.166.316.2.45.366.767.699 1.5 1 2.2 1.066 1.4 2.166 2.85 3.3 4.35.066.133.166.25.3.35-1.2-2.367-2.434-5.133-3.7-8.3-1.3-3.334-2.399-6.1-3.3-8.3zm-3.7-13.05c.033.1.033.2 0 .3.167.466.351.917.55 1.35l.051-.05-.601-1.6zm1.45-20.6c.366 1.2.667 2.333.9 3.4.267.566.533 1.183.8 1.85a249.43 249.43 0 0 0 1.899 4.8c-1.266-3.5-2.465-6.85-3.599-10.05zm-5.8 58.85c.434.3.85.633 1.25 1-.134-.2-.25-.383-.351-.55l-.75-.8c-.066.067-.115.183-.149.35zm13.25-3.15c.1.167.166.3.2.4.199.367.449.767.75 1.2 0-.3-.034-.55-.101-.75a9.968 9.968 0 0 0-.849-.85zm-.9.3h.05a33.37 33.37 0 0 0-1.1-2.2c-.267-.2-.5-.434-.7-.7a52.046 52.046 0 0 0 1.75 2.9zm-13.6 23.7c-.634-.033-1.517-.1-2.65-.2-.033.133-.066.284-.1.45.366.167.7.35 1 .55.666-.267 1.25-.533 1.75-.8zm-4.75 11.6c-.2-.133-.4-.25-.601-.35-.1.2-.149.417-.149.65 1.133.399 2.184.767 3.149 1.1 1.267.167 2.884.384 4.851.65-3.799-1-6.216-1.683-7.25-2.05zm12.4 4.4c-1.833-.4-3.083-.634-3.75-.7-1.5-.133-4.449-.283-8.85-.45h-1.35c-.134.334-.25.684-.351 1.051 5.635-.168 10.401-.134 14.301.099zm-3.15-8.8c-.8.133-1.867.267-3.2.399 2 .367 3.783.617 5.35.75-1.199-.366-1.916-.749-2.15-1.149zm1.65.05c-.133-.1-.283-.2-.449-.3a22.5 22.5 0 0 1-.851.1c.467.1.9.167 1.3.2zm-1.6-15.25c.6.3 1.2.633 1.8 1l-1.1-1.4c-.266.133-.5.267-.7.4zm4.95 8.4c-.167 0-.384-.033-.65-.1.7.3 1.45.6 2.25.9l-.45-.25c-.3-.2-.566-.45-.8-.75a.448.448 0 0 0-.05-.2c-.134.5-.233.633-.3.4zm-3.5-10.1l.149.05a27.716 27.716 0 0 0-.649-1.15l-.4-.15c.267.4.566.817.9 1.25zm.451.4c0 .033-.034.066-.101.1.4.434.75.833 1.05 1.2-.3-.4-.616-.834-.949-1.3zm-4.451-7c-.134.1-.334.133-.601.1.067.1.117.2.15.3l.9.3a7.91 7.91 0 0 0-.449-.7zm-1.65 1.05l.2.05a.785.785 0 0 0-.15-.2l-.05.15zm4.8.6c.134 0 .233.017.301.05a28.142 28.142 0 0 1-.7-1.05 2.735 2.735 0 0 0-.55-.5c.333.5.649 1 .949 1.5zm6.5.1c.034.1.017.167-.05.2.2.167.351.333.45.5 1.634.967 2.934 1.733 3.9 2.3a110.424 110.424 0 0 1-4.351-4.4c.102.633.118 1.1.051 1.4zm-.6-5.3c-.2-.3-.45-.55-.75-.75a2.119 2.119 0 0 1-.65 0c.067.233.15.45.25.65 2.801 3.133 5.134 5.55 7 7.25-.1-.167-.216-.35-.35-.55-.333-.5-.6-.95-.8-1.35l-.05.05a524.678 524.678 0 0 1-4.65-5.3zm-11.15 7.1c-.1.6-.216 1.233-.35 1.9l4.5.75a69.899 69.899 0 0 1-1.3-1.65l-2.85-1zm-1.199 6l-.5 2.7 2.149.8c3.334.033 5.767.15 7.3.35a507.97 507.97 0 0 1-8.949-3.85zm-.901 9.9c-.267.067-.566.15-.9.25l-.449.15c-.233 1.1-.5 2.15-.801 3.15.367.033.7.1 1 .2 3.367-.334 5.917-.617 7.65-.851a45.325 45.325 0 0 0-3.95-2.25c-.866-.232-1.717-.449-2.55-.649zm-3.7 14.95c-.434.034-.899.067-1.399.101a.542.542 0 0 0-.051.25 70.527 70.527 0 0 1 1.45-.351zm-36.6 96.95c.767-.366 1.316-.649 1.649-.85-.233.033-.75.2-1.55.5-.032.1-.065.217-.099.35zm2.701-1.95c.066-.1.199-.133.399-.1h.2l.2-.75c-.434.134-.8.4-1.101.8l.302.05zm1.199-17.45l-.149.649a.502.502 0 0 1-.101.2c1-.7 1.717-1.25 2.15-1.65-.667.301-1.3.568-1.9.801zm19.5-44.35a1 1 0 0 1-.55.3c-.066.233-.149.45-.25.65.267-.267.533-.583.8-.95zm4.45-11.2c-.066 0-.116.034-.149.101.166-.066.35-.15.55-.25a1.865 1.865 0 0 0-.401.149zm3.25-9c0 .267-.1.517-.3.75a64.29 64.29 0 0 0 4.65-1.85 267.06 267.06 0 0 0-3.7.9c-.2 0-.417.067-.65.2zm1.9-5.45c.8-.267 1.616-.467 2.45-.601l-.351-.399c-.6.1-1.233.116-1.899.05-.067.267-.133.583-.2.95zM56.653 714.55a2.69 2.69 0 0 1-.15.35c.066-.033.1-.083.1-.15a.79.79 0 0 0 .05-.2zm2.35-5.85c.033-.066.033-.116 0-.149v-.351c-.133.5-.233 1.033-.3 1.601a5.35 5.35 0 0 1 .3-1.101zm-1.45-.7a6.614 6.614 0 0 1-.15-.8c-1.9 2.367-2.9 5.834-3 10.4-.033.1.083 2.316.35 6.649.167-.966.316-1.916.45-2.85-.1-.4-.183-.767-.25-1.1-.333-2.434.383-6.217 2.15-11.351.167-.331.317-.648.45-.948zm1.6-4.2c.033-.101.033-.184 0-.25.2-1 .4-1.934.6-2.801a26.763 26.763 0 0 0-1.25 4.801l.3-.7c.067-.367.183-.717.35-1.05zm2.15-3.05a.562.562 0 0 0-.05.25c.333-.3.617-.55.85-.75.2-.833.434-1.616.7-2.35-.6 1.066-1.1 2.017-1.5 2.85zm-.2 2.25a14.61 14.61 0 0 0-.85 1.551c-.1.533-.217 1.1-.35 1.699.433-1.1.833-2.183 1.2-3.25zm1.15-6.45c.367-.733.75-1.45 1.15-2.15.233-.434.517-.917.85-1.45a2.82 2.82 0 0 1 .15-.5.791.791 0 0 0-.2.15 20.839 20.839 0 0 0-1.95 3.95zm55-458.1c5.233-2.3 11.133-3.7 17.7-4.2 10.934-1.033 19 4.4 24.2 16.3 5.333 12.167 8.316 24.383 8.95 36.65.233 4.667.217 9.4-.05 14.2-.6 8.7-2.25 17.433-4.95 26.2 7.133 17.966 11.217 36.4 12.25 55.3 1.9 2.867 3.351 7.417 4.351 13.65 1.8 12.9.85 28.467-2.851 46.7-3.4 16.7-5.383 26.417-5.95 29.15-2.367 8.033-4.883 13.667-7.55 16.9-.3 2.267-.5 4.434-.6 6.5.333 2.2.7 4.55 1.1 7.05 3.767 28.333-1.333 66.7-15.3 115.1-2.2 7.133-9.683 24.601-22.45 52.4l.7 1.75c1.8 3.333 2.767 5.399 2.9 6.2.133.699.067.883-.2.55.3.899.5 1.666.6 2.3.1.866.117 1.483.05 1.85-.133.667-.684 1.267-1.65 1.801h-.2c.2.6.417 1.233.65 1.899l-.4-.05a46.64 46.64 0 0 0-1.3-2.4 9.953 9.953 0 0 1-1-.649c3.033 4.967 4.617 7.833 4.75 8.6.133.7.117.884-.05.55l-.5-.149c-.1-.066-.983-1.4-2.65-4 1.1 1.934 1.7 3.2 1.8 3.8.067.434.034.75-.1.95-.067 0-.233.066-.5.2-.3-.101-.517-.2-.65-.301.333.534.517.917.55 1.15.033.5 0 .816-.1.95 0 .033-.217.133-.65.3-.167-.2-.35-.434-.55-.7-.367-.366-.767-.85-1.2-1.45l-.35.051-1.75-1.95.3-.2c.167.1.317.184.45.25a26.293 26.293 0 0 1-1.3-1.75 37.68 37.68 0 0 1-.9-1.3c-.033.133-.05.217-.05.25-.1.166-.217.366-.35.6.133.233.233.434.3.601 1.533 2.466 2.716 4.55 3.55 6.25l-.15.05c.167.434.25.75.25.95.066.267.033.566-.1.899-.167.167-.367.45-.6.851-.3-.467-.667-1-1.1-1.601a.88.88 0 0 1-.1.4c1.466 1.934 2.6 3.467 3.4 4.6l-.2.25c-.467-.666-1.65-2.133-3.55-4.399-.167.033-.267.116-.3.25-1.033-1.134-2.517-2.95-4.45-5.45-.167.133-.4.267-.7.399a75.8 75.8 0 0 1 1.5 2c2.8 3.334 4.783 6.051 5.95 8.15-.267-.4-1.45-1.717-3.55-3.95-.066.134-.216.417-.45.851.767 1.133 1.183 2.133 1.25 3 .1.433.133.683.1.75 0 .033-.05.083-.15.149l-.45.101c-.067-.334-.2-.65-.4-.95.066.3-.017.517-.25.649-.034.067-.217.15-.55.25a513.509 513.509 0 0 1-6-6.949c1.1 1.866 1.633 2.916 1.6 3.149.1.667.1.967 0 .9l-.45.6c-.033.101-.25.184-.65.25v.05c-.033.034-.05.067-.05.101 2.967 2.5 4.45 3.95 4.45 4.35.1.434.083.733-.05.9l-.5.35c1.067.566 1.6.867 1.6.9.066.434.033.733-.1.899a5.46 5.46 0 0 0-.55.25l-2.1-1.05c1.867 1.533 2.833 2.517 2.9 2.95.067.467 0 .7-.2.7-.066.033-.15.033-.25 0-2.466-1.233-5.066-2.851-7.8-4.851-.8-.6-1.683-1.283-2.65-2.05-.033-.033-.05 0-.05.101.7.733 1.167 1.267 1.4 1.6.1.167.2.384.3.65.467.433.75.899.85 1.399.1.7.05 1.066-.15 1.101l-.6.1-.45-.05c-.1.1-.316.166-.65.2.967.566 1.5 1.3 1.6 2.199.066.167.1.334.1.5.533.2 1 .45 1.4.75-.3-.066-.867-.033-1.7.101-.1.2-.117.35-.05.45l-2.05.3c-.033.066.083.149.35.25l-8.5 1.55h.05l-.35.55c1.033-.1 1.55-.083 1.55.05l3.75.15c.667-.233 1.2-.4 1.6-.5.8.233 1.25.7 1.35 1.4a4.315 4.315 0 0 1-1.1 1.1l-9.55 2.25c-.2.3-.367.583-.5.85.333-.1.683-.183 1.05-.25 4.933-1.6 8.45-2.517 10.55-2.75l.1.95c-4.833 2.134-9.3 3.867-13.4 5.2-.267.566-.533 1.1-.8 1.6 2.6-.199 4.917-.083 6.95.351-.066.333-1.183.85-3.35 1.55-.2.1-1.816.25-4.85.45-.733 1.467-1.5 2.95-2.3 4.45-.1.3-.117.583-.05.85.733 5.634 1.183 9.4 1.35 11.3.033.233-.367 6.367-1.2 18.4-.3 3.434-.867 7.2-1.7 11.3l-7.55 24.9-3.5 3.3c-3.5 5.633-5.9 10.767-7.2 15.399.067 5.034.917 9.551 2.55 13.551 3.5 7.633 2.083 14.916-4.25 21.85 3.767 10.434.917 16.267-8.55 17.5l-.65-.2c-1.5 1.134-3.15 1.601-4.95 1.4-2.5-.334-5.1-3.65-7.8-9.95a.688.688 0 0 0-.1-.5c-.167.134-.383.2-.65.2-3.433 1.133-6.15.233-8.15-2.7-.5-.7-1.483-2.85-2.95-6.45-1.633-3.934-3.867-11.833-6.7-23.7a.533.533 0 0 0-.1-.199c-.033.466-.05 1-.05 1.6l-.2-.2c0-.6.017-1.316.05-2.149a82.37 82.37 0 0 0-1.15-4.551c-.467 1.5-.75 2.45-.85 2.851-.033-1.2.133-2.566.5-4.101a54.38 54.38 0 0 0-1.1-3.899c-.4.934-.6 1.434-.6 1.5.033.267.05.45.05.55-.267-.033-.45-.134-.55-.3a20.66 20.66 0 0 1 1.05-2.101c-.833-2.933-1.633-5.366-2.4-7.3-.433.9-.7 1.483-.8 1.75l-.15-.45c.067-.3.333-.883.8-1.75.033-.466.033-.949 0-1.449.033-.101.033-.184 0-.25v1.699a24.734 24.734 0 0 0-.25-3l-.05-.3c-.7-2.899-.417-6.5.85-10.8-.033.6-.05 1.2-.05 1.8.267-.899.55-1.767.85-2.6.033-.634.1-1.3.2-2-.667.8-1.433 1.733-2.3 2.8.267-.533 1.083-1.816 2.45-3.85.233-1.867.434-3.684.6-5.45a3.332 3.332 0 0 0-.5.25v-.351c.167-.333.333-.683.5-1.05.233-2.434.483-4.733.75-6.899a1.588 1.588 0 0 1-.35.1c.2-.066.333-.15.4-.25.133-1.7.283-3.384.45-5.05.067-.7.184-1.384.35-2.05a3.622 3.622 0 0 0-.65.5c-.3-.034-.417-.167-.35-.4.2-.434.583-.833 1.15-1.2 1.333-6.666 3.283-13.967 5.85-21.899 2.667-7.934 8.833-15.601 18.5-23-.067-.4-.133-.784-.2-1.15-.633-4.167-.767-7.983-.4-11.45.5-4.2 1.717-6.934 3.65-8.2 0-3.767 1.133-8.017 3.4-12.75.966-2 2.1-3.949 3.4-5.85.133-.167.233-.35.3-.55-.733.6-1.45 1.017-2.15 1.25l-.15-.4c2.066-2.733 3.7-5.2 4.9-7.399.2-1.334.417-2.65.65-3.95-1.8 3.767-3.117 5.95-3.95 6.55.167-.333 1.133-2.366 2.9-6.1l-.05-.4c.333-.7.684-1.4 1.05-2.1l-.05-.056c-.9 1.667-1.867 3.434-2.9 5.301.567-2 1.767-5.051 3.6-9.15.2-.366.367-.7.5-1 .167-1.2.333-2.434.5-3.7-1.6 3.367-2.867 5.434-3.8 6.2 1.566-3.1 2.9-6.017 4-8.75.333-3.667.6-7.366.8-11.1 1.167-14.534 2.033-32.467 2.6-53.8 1.2-41.867 5.7-71.25 13.5-88.15 7.667-17.034 10.767-37.8 9.3-62.3-1.367-21.566-1.633-46.9-.8-76 .066-4.467.233-9.033.5-13.7-7.567-24.067-9.317-49.167-5.25-75.3 3.4-23.201 12.433-38.235 27.1-45.101zm3.55 443.25a1.937 1.937 0 0 0-.15.4c.667.833 1.383 1.717 2.15 2.649.467.767.917 1.45 1.35 2.051a9.496 9.496 0 0 1-.45-.801 46.692 46.692 0 0 0-2.5-3.899 75.425 75.425 0 0 0-.4-.4zm-56.4 8.7c.2-.2.4-.384.6-.55.066-.334.15-.601.25-.8-.3.433-.583.883-.85 1.35zm38.55 26.2l7.25-1.15-.2-.35.45-.3c-1.8.133-4.167.399-7.1.8l-.4 1zm14.95-28.95c.467.5.883.983 1.25 1.45-.3-.601-.617-1.184-.95-1.75-.066.1-.166.2-.3.3zm-7.1 25.25c.132.033.198.083.2.15v-.15h-.2zm3.25-9.2c-.1.066-.233.167-.4.3l-.05.351c.8.5 1.633.983 2.5 1.45.833.533 1.583.983 2.25 1.35-1.133-.801-2.566-1.951-4.3-3.451z" fill-rule="evenodd"/></svg>