<svg xmlns="http://www.w3.org/2000/svg" version="1.2" width="440.827" height="1436.65" viewBox="0 0 440.827 1436.65" overflow="inherit"><path d="M255.126 746.601c1.4 1 2.634 1.649 3.7 1.949 0-.333.033-.649.1-.949a86.313 86.313 0 0 1-3.8-1zm-108.7-43.301v.101c-.033-.033-.066-.05-.1-.05.134.133.25.283.35.449a1.731 1.731 0 0 0-.25-.5zm.301.551c.133.133.267.25.399.35l1.3-.7a11.62 11.62 0 0 1-.949-.85 10.32 10.32 0 0 1-.351 1.2h-.399zm-.75-1.801c.066-.466.149-.933.25-1.399a.631.631 0 0 0-.15-.25 8.598 8.598 0 0 1-1.1-4c-.134 2.934.283 5.166 1.25 6.7a.44.44 0 0 1-.051-.2l-.199-.851zm-2.25-11.75c-.301.634-.5 1.434-.601 2.4-.133 1.033-.1 1.983.101 2.85.199-.833.366-2.5.5-5v-.25zm1.35 2.801c.233-1 .4-2.75.5-5.25v-.25c-.233.366-.45 1.166-.65 2.399-.133 1.233-.166 2.351-.1 3.351l.25-.25zm-.901-11.151a.58.58 0 0 0-.1-.15c-.267.7-.517 1.417-.75 2.15.334-.7.617-1.366.85-2zm-4.699.25a29.843 29.843 0 0 1-.051-2.95c.067-1.2.134-2.416.2-3.649-.333-.5-.684-1-1.05-1.5a17.163 17.163 0 0 0-.3 2.6c-.101 2.934.233 5.15 1 6.65.067-.401.134-.785.201-1.151zm-3.301-2.5c-.333.267-.449.7-.35 1.3.1.667.417 1.25.95 1.75-.467-1.033-.684-1.967-.65-2.8l.05-.25zm-22.699-27.3a7.273 7.273 0 0 0 0-1.2 33.71 33.71 0 0 1-.25 1.65c-.134.666-.25 1.3-.351 1.899.233 2.367.434 4.584.601 6.65a396.872 396.872 0 0 1 0-8.999zm24.6-192.4h.1v-.55c-.034.2-.067.383-.1.55zm182.349 59.75l.051-.35a5.559 5.559 0 0 1-.551-.35c.233-.533.117-1.417-.35-2.65v3.25c.3.034.584.067.85.1zm.051-2.35v-1.55a77.097 77.097 0 0 0-1-3.35c.033 1.2.05 2.434.05 3.7.266.367.583.767.95 1.2zm.1-29.3c-.167-.4-.316-.767-.45-1.1-.133.833-.25 1.667-.35 2.5.533-.7.8-1.167.8-1.4zm1.75-5.15l.1-.25c-.033-1.1-.449-2.633-1.25-4.6-.199 1.533-.399 3.067-.6 4.6l.7.6c.533-.067.883-.183 1.05-.35zm1.299-26l.351.35v-.4a1.985 1.985 0 0 0-.301-.5c0 .167-.016.35-.05.55zm9.05-184.9c.067.1.101.217.101.35.233.367.45.767.649 1.2.434-.1.801-.183 1.101-.25l-.25-.4c-.5-.3-1.033-.6-1.601-.9zm.2-2.3c.566.467 1.066.883 1.5 1.25-.8-1.8-1.684-3.533-2.649-5.2.199 1.133.399 2.3.6 3.5.167.167.349.317.549.45zm-3.649-13.9c.1.2.166.383.199.55.634 1.033 1.667 2.566 3.101 4.6a67.265 67.265 0 0 0-2.4-4.05c-.234-.333-.534-.7-.9-1.1zm0-4.55c-.233.2-.483.433-.75.7l-.4.2c.134.333.233.65.3.95l2.101-.2v-.25c-.302-.433-.718-.9-1.251-1.4zm-14.15-79.3c.033.3.083.583.15.85a34.846 34.846 0 0 1 3 1.85 10.08 10.08 0 0 0-.9-1.4c-.733-.767-1.566-1.733-2.5-2.9.099.534.183 1.067.25 1.6zm8.95 7.4c-1-1.667-2.05-3.383-3.15-5.15.134.267.25.55.351.85.5 1 .816 1.867.949 2.6a97.18 97.18 0 0 1 1.85 1.7zM120.477 58.45c.066-.333.149-.667.25-1a15.572 15.572 0 0 1-.2-2.05c-.3.967-.317 1.983-.05 3.05zm100.949-49.7a5 5 0 0 1 .75.15 89.368 89.368 0 0 1 2.45-2.95c-.733.734-1.799 1.667-3.2 2.8zm12-2.15c-.866.867-2.033 1.9-3.5 3.1.467-.233.967-.467 1.5-.7l.7-.7c.234-.2.667-.766 1.3-1.7zm49 46.45c.434.767.834 1.55 1.2 2.35.467.333.95.683 1.45 1.05 1.233 1 2.366 1.967 3.4 2.9-1.033-1.833-3.05-3.933-6.05-6.3zm-179.8 54.6c-2.267-2-1.967-4.917.9-8.75 2.666-3.534 6.483-6.667 11.45-9.4 1.899-1.066 3.666-1.933 5.3-2.6 1.267-3.467 1.767-6.784 1.5-9.95a36.785 36.785 0 0 1-.15-4.3c0-.034-.017-.05-.05-.05-.467-.6-.95-1.3-1.45-2.1.167 0 .384.034.65.1-.767-.967-1.184-2-1.25-3.1-1.334-.867-2.017-1.566-2.05-2.1-.034-1.034.05-1.517.25-1.45l.25.35c.566.2 1.083.4 1.55.6.033-.6.083-1.167.149-1.7-2.166-2.1-3.449-3.633-3.85-4.6.7.133 1.4.367 2.1.7a43.296 43.296 0 0 1-.1-.9c-.033-2.133 0-3.417.1-3.85.367-1.033 1.25-1.8 2.65-2.3.033 0 .05-.017.05-.05.101-.367.434-.95 1-1.75l.75.05c-.3.934-.35 2.083-.149 3.45.033-.3.1-.6.199-.9.534-3.267.834-5.3.9-6.1l1.75-.05c.134-.133.25-.184.35-.15.267.133.4.717.4 1.75.033.6-.116 1.4-.45 2.4.267-.2.533-.383.8-.55 0-.9.034-1.5.101-1.8.533-1.3 1.934-2.717 4.2-4.25l.75.25c-1.9 1.367-3.051 3.017-3.45 4.95.166-.066.283-.117.35-.15.233-.8.717-1.566 1.45-2.3.5 0 .816.083.95.25-.066.4-.15.867-.25 1.4 1-.233 2.083-.35 3.25-.35.2-1.267.2-2.3 0-3.1.666-.033 1.1.017 1.3.15.5.267.75.933.75 2 0 .267-.017.566-.05.9.066-.033.116-.033.149 0 .434-.733.983-1.6 1.65-2.6 1.7-2.667 2.733-4.3 3.1-4.9l1.051.25c.1 1.267-.551 2.917-1.95 4.95.6-.3 1.184-.617 1.75-.95v.25c-.634.7-1.767 1.75-3.4 3.15.7.1 1.417.217 2.15.35.3-.1.566-.217.8-.35.366-.533.75-1.1 1.15-1.7 1.666-2.9 2.816-4.833 3.449-5.8h.75c-.066 1.467-.866 3.617-2.399 6.45 0 .033-.017.066-.05.1.533-.2 1.05-.367 1.55-.5.033-.033.184-.1.45-.2 2-2.533 3.25-4.184 3.75-4.95.433 0 .767.317 1 .95l-1.851 3c.101-.067.2-.117.3-.15a50.84 50.84 0 0 0 2.15-1.55c1.267-3.967 2.017-6.75 2.25-8.35h.75l.15 5.85a311.125 311.125 0 0 1 4.8-3.95h.149c.101-.733.15-1.417.15-2.05h.75l.1 4.55c-.033.033-.25.583-.649 1.65 1.267-2.434 2.566-4.9 3.899-7.4a.618.618 0 0 1 .351-.1c.233 0 .366.25.399.75.034.367-.149 1.083-.55 2.15 1.233-1.433 2.483-2.633 3.75-3.6.334-.633.7-1.25 1.101-1.85.666-3.1 1.183-6.55 1.55-10.35l.75-.05.1 6.65c5-7.267 10.217-12.683 15.65-16.25.267-.533.483-1.1.649-1.7 1-3.133 2.15-4.917 3.45-5.35l1 .25c-.434.633-.866 2.167-1.3 4.6 2.9-1.434 5.85-2.367 8.85-2.8l.4-.5c2.2-2.8 3.85-4.75 4.95-5.85.5-.034.85.117 1.05.45-.333 1.833-1.066 3.717-2.2 5.65 1.5 0 3.033.117 4.601.35.6-.566 1.267-1.117 2-1.65 4.166-3.233 6.683-4.85 7.55-4.85.233.167.416.417.55.75l.25.5c-.366 1.3-1.783 3.3-4.25 6 1 .133 1.983.267 2.95.4.767-.6 1.649-1.2 2.649-1.8 2.767-1.767 4.834-2.867 6.2-3.3v1.5c2.4-2.633 4.3-4.1 5.7-4.4l.3 1.25c-.7 1.5-1.55 3.05-2.55 4.65 2.033-1.2 3.884-2.017 5.55-2.45l.2.5.3-.5h1.45l.05 3.25c2.767-.9 4.95-1.117 6.55-.65-.699 1.467-2.416 3.233-5.149 5.3 2.6-.533 4.217-.983 4.85-1.35 1.066-.9 2.684-1.917 4.851-3.05-2.7-.267-4.217-.483-4.551-.65 2.733-.567 4.817-.867 6.25-.9l.551 2.35c-.534.9-1.917 2.367-4.15 4.4-.967.9-1.833 1.633-2.6 2.2.166.067.35.15.55.25 1.6-.733 3-1.35 4.2-1.85 4.133-1.7 7.1-1.7 8.899 0-.233.3-.633.617-1.2.95-.5.3-.767.483-.8.55-1.3.034-2.733.35-4.3.95 1.4.033 2.917.183 4.55.45.934.033 2.3.117 4.101.25 3.6.133 5.5.35 5.699.65a349.95 349.95 0 0 0-3 .4c4.334 1 6.934 1.733 7.801 2.2-.067.3-.551.617-1.45.95a6.475 6.475 0 0 1-1.25.35c-.767-.2-4.467-.75-11.101-1.65-.5-.1-.983-.167-1.449-.2 1.733.5 3.883 1.217 6.449 2.15 5.867 2.2 9.284 3.75 10.25 4.65l-.55 1.5c-.899-.567-4.517-2.1-10.85-4.6 1.166.833 2.3 1.667 3.399 2.5 1.9.9 3.351 1.583 4.351 2.05 6.6 3.2 10.383 5.75 11.35 7.65-.767-.466-4.149-2.017-10.149-4.65.133.133.25.267.35.4 1.366.567 2.85 1.217 4.45 1.95 7.267 3.5 10.916 5.9 10.95 7.2.033 1.033-.034 1.6-.2 1.7-.101.033-.184-.033-.25-.2-.467.233-1.384.433-2.75.6-1.267.167-2.033.167-2.3 0 .199-.3 1.383-.75 3.55-1.35-.367-.167-3.283-1.35-8.75-3.55 1.399 2.2 2.8 4.717 4.2 7.55 3.166 2.267 5.916 4.483 8.25 6.65l-.45.55c-1.467-.967-3.533-2.267-6.2-3.9l.3.5c6.601 4.733 9.9 8.083 9.9 10.05.066 1.034-.15 1.617-.65 1.75a.421.421 0 0 1-.399 0c5.533 4.833 8.333 8.8 8.399 11.9.033.433-.166 1.083-.6 1.95-.233.567-.5 1.017-.8 1.35 2.133 4.033 3.866 8.467 5.199 13.3a163.3 163.3 0 0 1 4.351 11.7h-.75l-.2-.4c3.134 6.933 5.65 12.3 7.55 16.1l-.2 1.15c-1.5-2.033-3.649-5.25-6.449-9.65 3.633 6.6 5.466 10.683 5.5 12.25 0 1.1-.25 1.9-.75 2.4-.2.133-.75.4-1.65.8.5 1.667.75 3.033.75 4.1.033.267.033.533 0 .8 1.8 4.667 3.5 9.417 5.1 14.25l-.949-.25c-.034-.1-.7-1.4-2-3.9.267.6.533 1.15.8 1.65 3.399 7.333 5.1 11.6 5.1 12.8.033 1.066-.184 1.867-.649 2.4-.067.033-.317.183-.75.45 5.199 8.767 8.933 14.95 11.199 18.55l-.75.05c-2.633-3.7-5.716-8.316-9.25-13.85a17.94 17.94 0 0 1-1.399-1.35c4.934 9.233 8.767 17.217 11.5 23.95 2.267 2.233 4.35 5.267 6.25 9.1 2.434 3.867 4.666 8.233 6.7 13.1.387.926.762 1.852 1.125 2.775 1.155 2.25 2.713 7.408 4.675 15.475 2.267 9.267 3.399 15.067 3.399 17.4 0 .9-.916 2.517-2.75 4.85-1.866 2.333-3.199 3.5-4 3.5-.881 0-1.731-.592-2.55-1.775a81.771 81.771 0 0 1-.05 5.675c.066.567 0 1.1-.2 1.6-.333.933-1.116 1.383-2.35 1.35-1.033-.067-1.834-.684-2.4-1.85-.5-.4-1.033-.817-1.6-1.25.366.767.717 1.6 1.05 2.5l-4.9.45.4.5c3.134 4.5 4.7 7.983 4.7 10.45.066.667.083 1.05.05 1.15l-.35.2a.807.807 0 0 1-.301-.65c-.033-.767-.199-1.583-.5-2.45v-.15c-.733-.367-1.5-1-2.3-1.9l-.25.8c.066.2.101.4.101.6a26.081 26.081 0 0 1 1.649 2.55c.7 1.367 1.367 2.7 2 4l-.25 5.4c-.1.066-.217.133-.35.2.1.233.2.483.3.75l-.05 2.05c-.434-.8-.851-1.534-1.25-2.2h-.05c.199 1.433.35 2.883.449 4.35.233.533.45 1.033.65 1.5l-.05 1.9a8.423 8.423 0 0 1-.45-1.1c.066 1.833.15 3.684.25 5.55l-1.8 41.55c-.066 1-.15 2.017-.25 3.05-1.367 20.067-2.584 32.6-3.65 37.6-.066.434-.2 1.133-.399 2.1.033.933 0 1.883-.101 2.85.101 2.967.217 5.967.351 9 .267 16.733-1.2 40.167-4.4 70.3.267.934.55 1.9.85 2.9l-1.149-.05-.101 1.15c.334.833.767 2.033 1.301 3.6.966 2.833 1.449 4.517 1.449 5.05.034.7.051 1.083.051 1.15l-.45.25a.992.992 0 0 1-.15-.7c-.1-1.333-.916-3.85-2.45-7.55a64.24 64.24 0 0 1-.25 2.45c.2.533.4 1 .601 1.4l.05 4.35-.4-.05c-.1-.7-.283-1.633-.55-2.8a467.21 467.21 0 0 1-.649 5.35c.333 1.8.466 3.117.399 3.95l-.649-.05c.066-.6.083-1.267.05-2-.134.733-.25 1.483-.351 2.25 1.367 2.867 2.051 5.15 2.051 6.85.033.8-.034 1.367-.2 1.7l-1.95.05c-.434 0-.733-.033-.9-.1v.2c.767 1.8 1.167 3.133 1.2 4 .033.5-.283 1-.95 1.5-.6.567-.933 1.2-1 1.9.067 1.033.567 3.417 1.5 7.15.067 1.1.017 1.833-.149 2.2l-.4-.05a16.208 16.208 0 0 1-1.05-2.65c.033.767.017 1.284-.05 1.55a.968.968 0 0 1-.351.65c.101 2.533.167 5.517.2 8.95 1.4 3.4 2.134 6.1 2.2 8.1.033.233-.017.534-.15.9h.15l-.3.75h-.101c-.199.5-.517.966-.949 1.4l-.601-.1c.3 1.633.467 4.283.5 7.95.7 2 1.233 3.683 1.601 5.05.666 1.567 1 2.6 1 3.1-.034.6-.101 1.033-.2 1.3l-.5-.1c-.434-1.733-.8-3.167-1.101-4.3-.166-.867-.3-1.617-.399-2.25-.101-.6-.233-1.183-.4-1.75 0 1.2-.017 2.517-.05 3.95.033.6.033 1.233 0 1.9.066.233.15.467.25.7a213.42 213.42 0 0 0 2.05 4.75h-.35c-.5-.867-1.15-2.25-1.95-4.15a112.33 112.33 0 0 1-.2 4.35c.434 1.3 1.033 2.95 1.8 4.95l-.6-.15-1.25-3.55a4 4 0 0 0-.05.65c.434 2 1 4.367 1.7 7.1l-.351-.05c-.233-.534-.7-2.25-1.399-5.15a90.6 90.6 0 0 1-.351 4.8c1.134 2.667 1.767 4.267 1.9 4.8l-.351-.05c-.6-1.333-1.133-2.55-1.6-3.65-.066 1.367-.15 2.767-.25 4.2 5.5 12.234 9.05 21.65 10.65 28.25 2 8.3 5.1 20.6 9.3 36.899 2.833 10.967 4.767 19.117 5.8 24.45 2.467 12.9 3.233 30.066 2.3 51.5-.366 8.934-1.55 17.017-3.55 24.25-2.4 8.866-6.083 16.967-11.05 24.3-1.434 2.134-4.267 5.316-8.5 9.55a155.753 155.753 0 0 1-16.7 14.5c-11.3 8.5-21.8 14.034-31.5 16.601-11.533 11.733-18.866 17.533-22 17.399-3.066-.133-5.533-1.066-7.4-2.8-1.933-1.767-2.833-4.066-2.699-6.899.1-2.233 1.316-5.034 3.649-8.4-4.333-1.267-8.25-3.05-11.75-5.35-5.967-3.967-8.866-7.851-8.7-11.65.067-1.467.617-2.783 1.65-3.95 1.1-1.3 3.017-2.8 5.75-4.5-5.1-7-9.167-12.666-12.2-17a5.473 5.473 0 0 0-.1.351c-2 5.533-3.634 9.083-4.9 10.649-4.033 5.033-10.149 7.384-18.35 7.05-8.7-.366-15.134-2.833-19.3-7.399-.5 4.133-1.101 9.283-1.801 15.45-2.466 12.033-6.433 17.933-11.899 17.699-3.733-.133-5.851-5.1-6.351-14.899-.133-3.4.051-8.834.551-16.3.666-12.134 3.283-24.384 7.85-36.75 1.167-3.067 2.2-5.7 3.1-7.9h-.149c-1.434.434-3.05.616-4.851.55-3.267-.166-6.233-2.783-8.899-7.85-1.434.934-2.9 1.366-4.4 1.3-.6-.033-1.166-.1-1.7-.2-1.566.733-3.35 1.2-5.35 1.4-.634-2.167-1.65-4.367-3.05-6.601-.9-1.5-1.316-3.066-1.25-4.699.066-1.367.083-2.417.05-3.15l-.4-.05a.563.563 0 0 0-.1-.15c-2.366 6.3-4.434 10.684-6.2 13.15a3.763 3.763 0 0 1-1.2-1.3 796.113 796.113 0 0 1 5.45-16.45c-2.533-.167-4.416-1.65-5.649-4.45-.667 4.3-1.384 7.9-2.15 10.8-.3-.333-.434-.75-.4-1.25v-1.1c.167-3.3.617-7.566 1.351-12.8a61.816 61.816 0 0 1-.2-1.051c-.134-.966-.217-2.283-.25-3.949a1.888 1.888 0 0 1-.15.399c-.666-.033-1.3-.566-1.899-1.6-.101-2.2-.2-4.25-.3-6.15-.134.733-.267 1.483-.4 2.25-.134.8-.267 1.566-.4 2.3.134.467.25.9.351 1.301-.167.399-.417.633-.75.699-1.2 6.667-2.233 10.967-3.101 12.9-.399-.1-.767-.316-1.1-.65-.366-.267-.566-.399-.6-.399.033-.4-.034-.7-.2-.9a.81.81 0 0 0-.15-.2c-.399.967-.883 1.717-1.45 2.25-.267-.166-.517-.433-.75-.8-.233-.333-.383-.5-.449-.5.033-.399 0-.7-.101-.899-.066-.2-.083-.767-.05-1.7a802.59 802.59 0 0 0 1.5-21.2c.167-3.033.267-5.783.3-8.25-.233-.366-.467-.7-.7-1a2.57 2.57 0 0 0-.05.5 29.75 29.75 0 0 1-1.05 6.65l-1.4-.051a159.692 159.692 0 0 1-.5 9.75c-.1 1.967-.3 4.184-.6 6.65-.4 3.467-.917 6.35-1.55 8.65l-1.25-.301a190.28 190.28 0 0 1-.7-7c-.066 1.667-.384 3.217-.95 4.65l-1-.3a232.29 232.29 0 0 1-1.75-11.75c-.1 1.6-.434 3.566-1 5.899l-1-.3c-.399-3.1-.717-9.684-.95-19.75-.6-1-.883-1.816-.85-2.45.267.101.533.284.8.551 0-1.4-.017-2.851-.05-4.351-1-4.866-1.934-9.533-2.8-14a63.724 63.724 0 0 0-.5 3.05c.2 4.267.35 8.65.45 13.15h-.75c-.367-2.134-.733-4.25-1.101-6.35-.033.233-.1.449-.2.649 0 .434-.017.9-.05 1.4-.833 7.733-2.616 12.3-5.35 13.7a30.523 30.523 0 0 1 2.2-2.75c.466-.5.699-.767.699-.801.233-5.267.351-14.25.351-26.949-.533-3.301-1.066-6.65-1.601-10.051a510.552 510.552 0 0 1-2.05-3.35c-1.633 6.066-3.033 10.05-4.2 11.95l-1-.3c1.867-3.634 3.45-7.767 4.75-12.4-.566-1-1.116-1.967-1.649-2.9-.9 2.9-1.816 5.084-2.75 6.551-.667-.2-.983-.551-.95-1.051.4-1.933.983-4.966 1.75-9.1l-1.75-3.6a246.883 246.883 0 0 0-1.35 3.649c.199-1.833.399-3.583.6-5.25-1.5-3.366-2.684-6.566-3.55-9.6-.5 2.434-1 5-1.5 7.7a1.692 1.692 0 0 1-.45-1.301c-.233-2.333-.316-4.333-.25-6 .134-2.666.316-5.416.55-8.25-.366-3-.55-6.283-.55-9.85-.033-.3-.033-.65 0-1.05-1.533 5.066-2.634 9.816-3.3 14.25l-.75-.05a87.871 87.871 0 0 1-.25-3.851c-.134-1.666-.184-3.017-.15-4.05.101-2.5 1.634-7.167 4.601-14 .1-2.167.216-4.65.35-7.45.4-9.8.7-15.383.9-16.75.933-5.267 2.216-13.367 3.85-24.3.5-3.367 1.417-6.767 2.75-10.2 1.066-2.667 2.533-5.8 4.4-9.4l-2.5-15.55c-.334 2.566-.5 4.467-.5 5.7h-.4c-.134-.1-.217-.1-.25 0l-.15-1c-.199-1.233 0-4.25.601-9.05l-2.3-13.9c-.334.967-.817 1.717-1.45 2.25v-.25c-.367-1.967-.584-4.283-.65-6.95 0-.1-.05-.2-.149-.3-.101-.067-.167-.417-.2-1.05 0-.1.416-.2 1.25-.3-.101-.167-.2-.35-.3-.55.566-1.434 1.466-3.267 2.699-5.5h-.149c.6-1.9 1.566-4.184 2.899-6.85l.7-2.15v-2.3a14.93 14.93 0 0 0-.149-1c-1.301 3.233-2.534 5.15-3.7 5.75.967-2.667 1.717-4.867 2.25-6.6-.7 1.133-1.467 2.034-2.3 2.7l-.2-.25c1.1-1.733 2.184-3.7 3.25-5.9-.3-1.833-.566-3.75-.8-5.75-1.434-11-2.367-22.05-2.801-33.15.167-3.767.867-7.55 2.101-11.35.133-1.633.283-3.4.45-5.3.566-7.133 1.199-12.617 1.899-16.45 1.934-7.833 5.367-14.434 10.3-19.8 0-.2.017-.4.051-.6.066-1.534-.034-2.867-.301-4l.2-.2c.134-.1.283-.2.45-.3-1.934-4.3-2.75-10.05-2.45-17.25.2-4.1 3.684-12.383 10.45-24.85 3.467-6.4 7.316-13.1 11.55-20.1 1-1.8 4.017-4.267 9.05-7.4a62.171 62.171 0 0 1 4.5-4.15c6.567-5.3 11.75-9.717 15.551-13.25 1.85-2.024 3.725-3.95 5.625-5.775-.468.217-.727.325-.775.325-2.533 0-4.283-.9-5.25-2.7-.5-.933-.75-1.95-.75-3.05 2.333-10 3.5-15.117 3.5-15.35 0-4.867 3.384-9.2 10.15-13 2.264-1.285 4.771-2.402 7.524-3.35-.645-.87-1.27-1.77-1.875-2.7a27.667 27.667 0 0 1-1.95-3.1c-.5.067-1.033.1-1.6.1h-.9a8.883 8.883 0 0 1-.8 1.6c.2.9.316 1.716.351 2.45.033 1.1.017 1.717-.051 1.85-.066.133-.199.317-.399.55l-1.3-.25c.066-1.133-.117-2.5-.551-4.1a2.744 2.744 0 0 0-.3-.25c-.033-.367-.133-1-.3-1.9 0-.1-.017-.183-.05-.25a42.41 42.41 0 0 1-4.45-.6c.533 1.633.816 3.066.85 4.3 0 1.067-.133 1.667-.399 1.8-.066.067-.184.017-.351-.15l-1.75-.15c-.399-.767-.933-1.9-1.6-3.4h-.25c-1.5.066-2.55.017-3.15-.15-.633-1.034-1.649-2.483-3.05-4.35a1.901 1.901 0 0 1-.25-.1 3.651 3.651 0 0 0-.649-.15c.233.6.35 1.117.35 1.55.033 1.133-.184 1.9-.65 2.3-.233.233-.833.517-1.8.85a29.564 29.564 0 0 1-4.2-3.1l-.85.45a.596.596 0 0 0-.15-.1c-.199.133-.483.267-.85.4-.767-.4-2.4-2.2-4.9-5.4-1.699.233-5.233.717-10.6 1.45-2.934.433-5.333.783-7.2 1.05-.3 1.4-.733 2.467-1.3 3.2-.5-.2-.917-.467-1.25-.8-.333-.3-.517-.45-.55-.45a15.43 15.43 0 0 0-.2-1.55 3.13 3.13 0 0 0-.6.05l.05 1.25-2 .05c-.167-.466-.334-.9-.5-1.3-4-.3-6.033-1.883-6.101-4.75a2.85 2.85 0 0 1 0-.75c-1.033-.267-2.083-.55-3.149-.85-.7-.2-1.367-.417-2-.65.267 1.5.399 2.567.399 3.2.034.167-.199.6-.699 1.3-.5.733-1 1.35-1.5 1.85-1.601-.7-2.65-2.2-3.15-4.5-.1-.667-.2-1.883-.3-3.65-1.233-1.534-2.634-2.567-4.2-3.1-1.7-.6-2.884-1.467-3.55-2.6-.601-1.167-1.25-3.017-1.95-5.55-.9-2.2-2.483-3.967-4.75-5.3-5.967-3.433-10.083-6.883-12.35-10.35-1.767-2.8-2.717-6.3-2.851-10.5 0-.833.417-1.283 1.25-1.35.834 0 1.233-.417 1.2-1.25 0-.733-.384-2.65-1.15-5.75-.633-2.5-.949-4.534-.949-6.1.733-.4 1.483-.833 2.25-1.3.366-1.233.916-2.633 1.649-4.2 1.7-3.533 3.917-6.95 6.65-10.25 7.127-8.694 15.327-13.827 24.593-15.394z" fill-rule="evenodd"/><path d="M118.827 1383.7c.033.267.05.483.05.65-.066.699-.566 1.216-1.5 1.55l-3.55.7c.434 0 .816.033 1.15.1 2.566-.6 5.25-1.55 8.05-2.85a36.91 36.91 0 0 0 3.6-1.851c-.233.033-.483.066-.75.101-2.3.567-4.65 1.1-7.05 1.6zm25.65-17a1.685 1.685 0 0 1-.2.15c-.601.533-1.684 1.683-3.25 3.449-.733.9-1.4 1.617-2 2.15.434-.134.85-.217 1.25-.25.066-.134.149-.217.25-.25.133-.134.233-.25.3-.35a358.098 358.098 0 0 0 3.65-4.899zm65.5 10.05a15.88 15.88 0 0 0-.801-1.1 40.13 40.13 0 0 1-1.699-2.45c0 .134.017.25.05.35.733.933 1.55 2 2.45 3.2zm-.4-12.75c.333.367.667.767 1 1.2-.333-.5-.65-.983-.95-1.45a.812.812 0 0 0-.05.25zm14.5-25.399c.8.933 1.517 1.8 2.15 2.6-.467-.8-1.051-1.816-1.75-3.05a6.086 6.086 0 0 1-.4.45zm-2.75-5.701l.1.3v-.1a18.634 18.634 0 0 1-.1-.2zm-4.201-14.549c.3.767.617 1.517.95 2.25.267.566.533 1.183.8 1.85-.166-.6-.35-1.2-.55-1.8-.3-.867-.634-1.8-1-2.8a3.834 3.834 0 0 1-.2.5zm15.3-22.351v-.25c-1.166-6-1.966-9.717-2.399-11.149-.066-.067-.283-.601-.65-1.601-.2.667-.434 1.351-.7 2.05-.199.4-.399.884-.6 1.45a652.59 652.59 0 0 0 4.349 9.5zm-79.149 18.45a1.68 1.68 0 0 0 .05-.7c-.2.434-.384.8-.55 1.101l.2.1c.1-.135.199-.301.3-.501zm.149-40.9v-3.25c-.666 2.167-1.3 4.084-1.899 5.75.666-.833 1.3-1.666 1.899-2.5zm-.3-23.25c-.1.467-.2.9-.3 1.301.1-.301.233-.567.4-.801l-.1-.5zm88.201-.4c-.134.3-.25.616-.35.95.1.399.166.816.199 1.25.034-.8.084-1.534.151-2.2zM109.876 979c-.1.334-.166.65-.2.95l.301-.1c-.034-.3-.067-.583-.101-.85zm-.75-3.95c-.267 2.4-.583 5-.95 7.801.434-2.601.784-5.017 1.051-7.25 0-.234-.034-.417-.101-.551zm139.05 50.65c-.3-.866-.6-1.717-.899-2.55-.167.6-.351 1.166-.55 1.7a389.568 389.568 0 0 0 3.75 7.5c-.634-1.8-1.4-4.016-2.301-6.65zm10.151-20.3c-.1.3-.233.666-.4 1.1l1.4 3.05c-.3-1.366-.634-2.75-1-4.15zm-2.35-3.4c0-1.366-.017-2.8-.051-4.3-.233-.6-.466-1.184-.699-1.75-.301.8-.617 1.583-.95 2.35l1.7 3.7zm-3.5 1.3v1.2c.399.8 1.05 2.033 1.949 3.7a181.57 181.57 0 0 0-1.55-3.95 4.786 4.786 0 0 0-.399-.95zm8.5-23.25a3.997 3.997 0 0 0-.351 1c.167.267.316.551.45.851a16.677 16.677 0 0 0-.099-1.851zm3.8.15c-.334-.566-.634-1.1-.9-1.6.334 3.366.55 6.316.65 8.85.033.033.083.1.149.2.2-2.334.234-4.816.101-7.45zm-1.05-9.4a2.489 2.489 0 0 0-.25.851c.199.233.366.517.5.85a30.184 30.184 0 0 0-.25-1.701zm12.199-44.199c.134.633.25 1.199.351 1.699l-.05-1-.301-.699zM161.527 701.4c8.333-15.601 19.816-27.483 34.45-35.65 12.633-7 26.383-10.684 41.25-11.05 13.399-.333 24.916 1.917 34.55 6.75 9.467 4.967 14.184 10.917 14.149 17.85a5.253 5.253 0 0 1-1.1 2.25c2.8 7.233 4.033 16.851 3.7 28.851 0 .066-.316 2.1-.95 6.1 1.634 12.033 2.384 22.55 2.25 31.55-.667 22.167-2.417 47.717-5.25 76.65-1.634 16.667-4.616 42.634-8.95 77.9a227.513 227.513 0 0 1-1.6 11.199l.05.101c1.7 4.767 2.767 8.05 3.2 9.85 1.133 4.967.983 8.3-.45 10a23.53 23.53 0 0 1-1.35 7.351l-.051-.2c.567-1.634.767-2.767.601-3.4l-2-6.75a357.891 357.891 0 0 1-2-4.649.444.444 0 0 0-.05.199c.8 1.767 1.316 2.983 1.55 3.65.434 1.066.866 2.866 1.3 5.4-.5.199-1 .166-1.5-.101a42.873 42.873 0 0 1-1.85-4 54.47 54.47 0 0 1-.351 2.45c1.5 3.267 2.584 5.783 3.25 7.55.934 2.8 1.533 4.983 1.8 6.55l-1.5.5-.199-.449c-.134-.4-.334-.75-.601-1.051.101.601.167 1.15.2 1.65.066.033.066.083 0 .15.2.633.583 2.1 1.15 4.399l.949 4.351a25.097 25.097 0 0 1-2.25-3.5.985.985 0 0 1-.1.449c-.6.2-1.134.15-1.6-.149-.067-1.167-.267-2.851-.601-5.05-.333-1.434-.5-2.634-.5-3.601l-1.25-3.149c-.267 1.5-.517 3.05-.75 4.649.167.4.351.834.55 1.3 3.267 8.233 5.167 13.101 5.7 14.601-1.2-2.033-2.7-4.934-4.5-8.7a45.68 45.68 0 0 0-1.399-3c.133.733.25 1.417.35 2.05 1.4 2.367 2.634 5.05 3.7 8.05.633 1.733 1.684 5.134 3.149 10.2h-.85c-1.3-2.566-2.917-6-4.85-10.3 0 .566-.034 1.033-.101 1.4l-.05-.65c-.6-.9-1.1-1.85-1.5-2.85-.267-.7-.483-1.45-.65-2.25.101.833.217 1.75.351 2.75.066.233.1.466.1.699 1.434 3 3.384 7.101 5.851 12.301 1.5 3.666 2.616 7.199 3.35 10.6l-.8.05c-2.3-4-4.717-8.866-7.25-14.6.1 1 .149 1.783.149 2.35-.3-.066-.517-.3-.649-.7l-1.9-4.35c-.267-1.667-.533-3.2-.8-4.6a9.96 9.96 0 0 0-.6-1.5 347.029 347.029 0 0 1-.95 3.899l3.05 7.851c3.5 6.133 5.483 9.833 5.95 11.1.399.9.533 1.983.399 3.25-.399-.066-.633-.233-.699-.5-2.934-4.066-5.367-8.233-7.301-12.5.134 1.6.2 3.134.2 4.6h.05c5.434 8.733 8.267 13.384 8.5 13.95.267.601.551 1.816.851 3.65l-.601.05c-1.166-1.8-2.267-3.5-3.3-5.1.334.6.517.983.55 1.149.467 1.134 1.067 3.184 1.801 6.15l-.551.1c-3.066-5.333-5.666-9.967-7.8-13.899-.366 1.733-.95 3.233-1.75 4.5.3.366.584.8.851 1.3 6.366 10.3 9.666 15.767 9.899 16.399.5 1.334.45 2.384-.149 3.15-2.5-3.5-6.084-8.9-10.75-16.2 0 .867-.034 1.65-.101 2.351 1.7 4.267 3.434 8.466 5.2 12.6.7 1.866 1.2 3.884 1.5 6.05-.533.101-.95.017-1.25-.25-2.934-6.2-5.167-10.934-6.7-14.2a308.114 308.114 0 0 1-3.149-7.05c.899 3 1.783 6.384 2.649 10.15.5 2.066.867 3.916 1.101 5.55l5.5 13.9c.166.899.25 1.383.25 1.449 0 .733-.334 1.217-1 1.45-.567.2-1.017.2-1.351 0-.233-.267-.399-.45-.5-.55v-2.25l-2.55-6.4c-.167.7-.5 1.134-1 1.301l-.1-.601a8.224 8.224 0 0 1-.25 1.65l1.75 3.95c.566 1.466.899 2.383 1 2.75.3 1.199.3 2.25 0 3.149-.267 0-.551-.05-.851-.149-.233-.101-.383-.15-.45-.15a428.408 428.408 0 0 0-3.5-8.05c-.166.033-.283.017-.35-.05-.233-.301-.384-.5-.45-.601-.033-.399-.05-.75-.05-1.05l-.1-.3c.066.7.083 1.3.05 1.8.866 1.7 1.483 3.05 1.85 4.05.233.533.384 1.2.45 2 .066 1.066-.033 1.783-.3 2.15-.367.066-.684.05-.95-.05-.533-.9-1.6-2.867-3.2-5.9a.785.785 0 0 1-.2-.15c-.3-.333-.517-.55-.649-.649v-.8l-1.05-2.101a80.085 80.085 0 0 0-1.25-2.399c2.566 10.399 3.5 15.716 2.8 15.949l-.601.2c.233 1.533.4 3.017.5 4.45-.633.134-1.066.116-1.3-.05l-.7-1.05c-1.899-5.767-3.416-10.483-4.55-14.15-.267.233-.533.4-.8.5-.434.134-.783.25-1.05.35 2.566 7.233 4.366 13.334 5.399 18.301h-.3c.533.966 1.084 1.983 1.65 3.05.066.267-.134.934-.601 2-1.866-1.267-3.883-3.783-6.05-7.55-1.566-2.733-2.967-5.684-4.2-8.851-.033-.1-.1-.267-.199-.5a25.092 25.092 0 0 0-.25 1.601c1.8 3.699 4.1 8.35 6.899 13.949.101.233-.116.917-.649 2.051-2.567-2.634-4.483-5-5.75-7.101-.634-1.133-1.4-2.767-2.301-4.899a2.963 2.963 0 0 1-.25-.15c-.1.2-.183.35-.25.45.5 1 .867 1.85 1.101 2.55 3.267 7.566 4.316 11.566 3.149 12-.899.267-1.149.233-.75-.1a405.797 405.797 0 0 1-4.05-7.75c-1.166-2.434-1.95-4.067-2.35-4.9-.434 1.5-.867 3.05-1.3 4.65l5.6 14.1c-.1.3-.116.733-.05 1.3-.033.566-.3 1.05-.8 1.45-.4.033-.851-.184-1.351-.65v-.85l-4.399-11.1a141.788 141.788 0 0 0-.851 4.05c.601 1.3 1.2 2.616 1.8 3.95.467 1.199.934 2.699 1.4 4.5.533 2.333.684 3.883.45 4.649-.434 0-.884-.233-1.351-.7-.533-1.866-1.533-4.466-3-7.8-.366 2.7-.633 5.4-.8 8.101l1.65 4.25c.066.699.434 1.733 1.1 3.1.233.833.033 1.55-.6 2.15.267.533.533 1.1.8 1.699.566 1.367 1.066 2.934 1.5 4.7.7 2.533.85 4.217.45 5.05-.4 0-.767-.066-1.101-.199-.933-2.534-2.267-5.934-4-10.2v3.95l.7 1c3.367 5.666 5.617 9.966 6.75 12.899.233.601.334 1.017.3 1.25-.033.101-.283.283-.75.55-1.833-1.633-3.616-4.483-5.35-8.55a70.311 70.311 0 0 0-1.4-3c.101 1.934.233 3.834.4 5.7 2.3 3.366 3.95 6.316 4.95 8.85.2.5.233.801.1.9-.066.1-.283.2-.649.3-.534-.333-1.834-1.934-3.9-4.8 1.8 14.5 5.7 25.967 11.7 34.4 5 6.833 8.25 12.017 9.75 15.55 0 .033.05.083.149.149 2.934 3.767 5.117 7.267 6.551 10.5v.101c.033.066.05.116.05.149.033.101.083.217.149.351.434 1.033.884 2.649 1.351 4.85l-.75.05a427.06 427.06 0 0 0-3.15-6.1 96.512 96.512 0 0 0-2.3-2.7c.9 4.066 1.434 8.634 1.6 13.7 0 .033.017.066.051.1 2.366 6.4 3.783 10.483 4.25 12.25 1.699 5.667 1.983 8.967.85 9.9-.233-2.7-.733-5.167-1.5-7.4l-3.5-9.6c.033.934.05 1.866.05 2.8.5 1.7 1.05 3.634 1.65 5.8.767 1.9 1.533 6.784 2.3 14.65.033.233.083.467.15.7 1.1 9.866 1.166 16.316.199 19.35l-.05-.25c-.833-7.5-1.684-14.1-2.55-19.8h-.05c-.7-4.566-1.4-8.533-2.101-11.9-.233 2.101-.5 4.25-.8 6.45.5 1.601.934 3.184 1.3 4.75h.15c2.2 10.033 2.15 18.767-.15 26.2-.166-7.066-1.05-14.95-2.649-23.65a88.307 88.307 0 0 1-1.2 5.4c.167 1.033.267 2.15.3 3.35.9 10.867.75 17.384-.45 19.551.4-6.7.233-13.301-.5-19.801-.5 2.334-1.066 4.7-1.699 7.101.033.866.083 1.8.149 2.8.601 9.233.783 15.083.55 17.55l-1.25-.899c-.533 5.366-1.616 8.8-3.25 10.3.034-6.834.051-12.384.051-16.65-.733 2.434-1.5 4.884-2.301 7.351-.6 1.8-1.233 3.716-1.899 5.75-.2 7.866-1.283 13.133-3.25 15.8-.5 3.3-1.101 5.816-1.8 7.55.699 7.066.949 11.25.75 12.55a.606.606 0 0 1-.351-.35l-.05-.05c.033.166-.083-.134-.35-.9-.301-1.6-.617-3.184-.95-4.75-.101 1.934-.351 3.583-.75 4.95 1.833 9.3 2.6 15.616 2.3 18.95-.5-.101-.884-.284-1.15-.551-.533-1.966-1.1-4.149-1.699-6.55 1.666 10.267 2.166 16.584 1.5 18.95l-.4-.45-.7-1c-1.2-6.066-2.1-10.666-2.7-13.8a212.249 212.249 0 0 0-1.949-9.1 42.855 42.855 0 0 1-2.4 8.25c.4 1.6.9 3.333 1.5 5.199 2.066 7.367 2.816 13.417 2.25 18.15.033.033.066.116.1.25 1.567 4.566 2.233 8.417 2 11.55-.366 0-.85-.1-1.449-.3.399 1.733.316 2.767-.25 3.1-2.733-1.366-4.9-4.316-6.5-8.85-1.034-3.667-1.9-6.55-2.601-8.65-.333.4-.75.75-1.25 1.051-.633-3.067-1.184-6.2-1.649-9.4l-2.25 6.65c.267 1.233.583 2.666.949 4.3 2.7 5.533 4.517 9.566 5.45 12.1a124.935 124.935 0 0 1 1.4 3.8c.166.567.3 1 .399 1.301.5 2.366.284 3.866-.649 4.5l-.65-.051c-.5-.533-.8-.899-.899-1.1-.5-1.533-1.15-3.283-1.95-5.25a337.49 337.49 0 0 1-2.15-4.95.625.625 0 0 0-.149-.25 1452.7 1452.7 0 0 1 1.449 5.101c2.034 7.433 2.483 11.25 1.351 11.449-.533.101-.917.101-1.15 0l-.399-.3c-.034.233-.217-.1-.551-1-.1-.233-.683-2.166-1.75-5.8.733 3.1 1.184 5.684 1.351 7.75 1.767 3.134 2.783 5.1 3.05 5.9.366 1.033.366 1.783 0 2.25l-.7.1c1.533 2 2.4 3.233 2.601 3.7.267.7.333 1.05.199 1.05l-.35.35-.5.051c-.5-.434-1-.851-1.5-1.25-.033.166-.134.399-.3.699l-.95-.199c-.167-.2-.767-.967-1.8-2.301.033.467.033.917 0 1.351 2.3 3.1 3.666 5.333 4.1 6.7.233.633.334 1.05.3 1.25-.066.166-.199.333-.399.5l-.8-.101-.2-.1c.267.7.35 1.399.25 2.1l-.9.101c.434 1.8.634 2.966.601 3.5-.767-1.2-2.284-4.117-4.551-8.75a559.297 559.297 0 0 0-8.85-13.801c1.667 3.567 3.684 7.7 6.05 12.4a1438.505 1438.505 0 0 0 7.5 14.8c.233.601.3.983.2 1.15-.167.066-.45.184-.85.35-1.634-1.399-3.534-3.8-5.7-7.2-.601-.133-1.066-.366-1.4-.699-.467-1.4-1.283-3.2-2.45-5.4-1.333-2.8-3.149-6.184-5.449-10.15a38.14 38.14 0 0 1-.351 1.9c.733 1.366 1.5 2.833 2.3 4.4 5.101 9.833 8.184 16.166 9.25 19a37.156 37.156 0 0 1 1.15 3.85c.434 1.7.533 2.934.3 3.7.233.633.367 1.05.4 1.25.267 1 .083 1.7-.55 2.1l-.9-.1a1055.569 1055.569 0 0 1-6.6-12.45l-.101.05c-.033-.033-.149-.316-.35-.85a751.918 751.918 0 0 0-3.4-6.601c-.833-1.633-1.6-3.133-2.3-4.5 0 .434-.017.867-.05 1.301a31.328 31.328 0 0 1-.4 4.05 855.408 855.408 0 0 0 4.25 6.85c3 4.767 5.95 9.45 8.851 14.05.566 1.434.566 2.551 0 3.351a6.753 6.753 0 0 1-1.101-.3 31.53 31.53 0 0 1 1.7 3.649c.134.434.233.934.3 1.5.066.4.25.75.55 1.05h-.449c-2.834-3.233-7.517-9.75-14.051-19.55a40.966 40.966 0 0 1-1.55-2.35c-.2.767-.416 1.55-.649 2.35a12.18 12.18 0 0 1 1.449 1.75c7.567 9.3 11.934 15.5 13.101 18.601.366.967.5 1.683.399 2.149l-1.35.15c-1.4-1.733-3.384-4.367-5.95-7.9 2.267 3.267 3.65 5.55 4.15 6.851.233.633.35 1.066.35 1.3.066.467-.2.883-.8 1.25-.4-.033-.884-.15-1.45-.351-.8-1.566-2.916-4.683-6.35-9.35.2.467.383.917.55 1.35.033.067.267.784.7 2.15.3 1.267.1 1.983-.601 2.15-.5.1-.85.1-1.05 0-.133-.167-.25-.25-.35-.25-.167-.367-.934-1.601-2.3-3.7.533 1.066 1 2.116 1.399 3.149.3.834.45 1.384.45 1.65 0 .434-.3.7-.9.8-.433.067-.716.083-.85.05a.646.646 0 0 0-.15.25 26.457 26.457 0 0 1-1.149-.199c1.3 1.967 3.2 4.366 5.7 7.199 5.3 5.733 7.866 11.317 7.699 16.75 0 .167-.133 1.551-.399 4.15 1.967 4.7.483 7.783-4.45 9.25-4.9 1.267-13.366 3.1-25.4 5.5-11.899 2.434-22.216 2.483-30.949.15-8.634-2.4-15.551-3.967-20.75-4.7h-.101c-6.2-.467-15 .116-26.399 1.75-11.101 1.667-21.684 2.483-31.75 2.45-18.334-.033-30.9-1.65-37.7-4.851-2.833-1.133-4.867-2.649-6.1-4.55-1.8 1.167-3.883 1.95-6.25 2.35-4.6.9-7.934.817-10-.25-2.833.934-5 1.601-6.5 2-2.633.7-5.317.434-8.05-.8-2.733-1.167-4.75-4.417-6.05-9.75-1-4.667 7.783-10.217 26.35-16.649a86.997 86.997 0 0 1 6.75-1.601c9-2.066 16.583-3.017 22.75-2.85.233-.067.566-.101 1-.101 6.2-2.333 13.2-4.25 21-5.75-.5-.166-.883-.35-1.149-.55.633.067 1.383.184 2.25.351a80.213 80.213 0 0 1 4.95-.95 35.57 35.57 0 0 1-2.75-1.55c1.466.3 3.116.666 4.949 1.1a493.699 493.699 0 0 1 12.801-1.5 2.297 2.297 0 0 1-.25-.15c1.633-.3 3.399-.366 5.3-.199 1.566-.134 3.149-.267 4.75-.4.434 0 .833-.017 1.2-.05-4.801-.967-7.934-1.733-9.4-2.3 1.667-.134 5.85.25 12.55 1.149l-.899-.45c-.634-.3-1.117-.466-1.45-.5l-.101-.399c.367 0 1.017-.217 1.95-.65-.399-.066-.666-.149-.8-.25l-.05-.95c2.467-.566 5.116-1.333 7.95-2.3-.233-.2-.567-.5-1-.899a1952.016 1952.016 0 0 0 14.199-5.65 41.922 41.922 0 0 1 3.7-1.3 1.122 1.122 0 0 1-.35-.15 21.93 21.93 0 0 1 .95-2.6c-6.067 2.633-10.65 4.217-13.75 4.75-1.4.3-2.367.2-2.9-.3 2.267-1.267 4.366-2.434 6.3-3.5.667-.767 1.533-1.534 2.601-2.301-.267-.033-.284-.149-.051-.35l-.05-.45c.367-1 1.4-2.149 3.101-3.45-.733.034-1.2 0-1.4-.1a440.64 440.64 0 0 1 8.5-7.55c.267-.4.517-.75.75-1.05-.8-.101-1.25-.284-1.35-.551.1-.066.233-.199.399-.399-3.967 3.467-7.1 5.416-9.399 5.85-.834.134-1.167-.066-1-.6.033-.033 1.866-1.733 5.5-5.101l-1.301-.149c-.033-1.7 1.267-4.05 3.9-7.05-.4 0-.533-.15-.4-.45l.2-.65a94.341 94.341 0 0 0 3.45-2.899c-1.533 1-2.967 1.683-4.3 2.05 4.666-5.167 8.383-9.351 11.149-12.55 2-2.233 3.567-4.25 4.7-6.051.033-.033.033-.066 0-.1a157.66 157.66 0 0 1-3.75 4.6c-5.866 6.534-11.166 10.334-15.899 11.4 1.399-2.3 4.449-5.866 9.149-10.7a78.084 78.084 0 0 1 5-5.899c1-1.134 1.934-2.167 2.8-3.101a172.41 172.41 0 0 1 2-4.5l-.25-.3c.067-.4.134-.767.2-1.1-1.066 2.066-2.033 3.649-2.899 4.75-.601-.067-.934-.2-1-.4a71.02 71.02 0 0 1 1.949-5c-1.833 2.066-4.166 4.566-7 7.5-5.666 5.7-10.6 10.35-14.8 13.95l-.25-.2c1.066-1.634 2.983-4.184 5.75-7.65a55.862 55.862 0 0 0 2.5-3.05 34.51 34.51 0 0 1-1.95.95c2-2.8 4.851-6.267 8.551-10.4 3.366-3.733 5.767-6.433 7.199-8.1.034-.134.084-.267.15-.4a493.081 493.081 0 0 1 3.6-8.35c.334-.7.601-1.366.801-2v-5.9c-1.367 3.4-2.867 6.534-4.5 9.4-1.167.066-1.817-.033-1.95-.3 2.267-4.767 4.25-9.7 5.95-14.8-.334.3-.667.616-1 .949-1.767 4.434-3.117 7.351-4.051 8.75l-.55-.199c.7-2.233 1.384-4.351 2.05-6.351a59.184 59.184 0 0 1-6.149 5l-.3-.35c3.133-3.7 5.866-6.917 8.199-9.65.767-2.267 1.45-4.3 2.051-6.1v-3.45a32.926 32.926 0 0 1-3.4 3.65c-1.1 3.033-1.967 5-2.6 5.899v-.399c.5-1.367 1-2.851 1.5-4.45-.367.333-.75.6-1.15.8a1.22 1.22 0 0 1-.45-.25l-.149-.25c.899-1.1 1.75-2.15 2.55-3.15 1.1-3.6 2.283-7.8 3.55-12.6l-.15-11.5c-.899 2.533-1.633 4.517-2.199 5.95-1.233 4.899-2.733 10.05-4.5 15.45l-1.051-.7c2.134-9.8 3.733-17.634 4.801-23.5.133-.167.133-.384 0-.65a113.916 113.916 0 0 0 1.55-5.5c.434-2.333.833-4.55 1.2-6.649l-.101-13.15c-1.566 5.1-2.983 8.866-4.25 11.3 1.601-5.5 2.967-10.3 4.101-14.399-.834.6-1.717 1-2.65 1.199-.866.134-1.333 0-1.4-.399v-.4c1.367-2.2 2.467-3.983 3.301-5.35-1.801 1-3.467 1.649-5 1.95-.9.166-1.233 0-1-.5a588.808 588.808 0 0 1 7.3-7.95c.2-2.467.35-4.851.45-7.15-2.2 1.4-4.084 2.533-5.65 3.4l-.2-.15c2.2-2.066 4.217-3.967 6.05-5.7.233-3.8.467-7.416.7-10.85h-1.25a74.203 74.203 0 0 1 1.45-3.8l.65-10.851c-1.267 2.267-2.317 3.95-3.15 5.051l-.3-.301c.033-.033 1.399-3 4.1-8.899-.233-2.634-.616-6.3-1.149-11-1.467 3.1-3.434 6.217-5.9 9.35 1.967-4.267 3.65-8.083 5.05-11.45.134-.433.283-.883.45-1.35l-.3-2.7c-.667 1.8-1.351 3.601-2.05 5.4-.4.033-.65-.084-.75-.351.933-2.899 1.75-5.449 2.449-7.649-.1-1.267-.25-2.566-.449-3.9-2-16.366-2.884-27.1-2.65-32.2.167-7.899-2.566-16.433-8.2-25.6-5.767-9.066-8.666-13.967-8.7-14.7-.133-8.6 1-16.833 3.4-24.7.434-1.199.75-2.25.95-3.149a75.324 75.324 0 0 1-3.3-3.75v.45c-1.034.199-1.717.199-2.051 0l-.35-.851c-.333.033-.517.017-.55-.05-.167.033-.384-.3-.65-1-.733-1.833-1.383-3.866-1.95-6.1-.233-.4-.449-.817-.649-1.25l-.8-.4c0-.333-.017-.634-.051-.9a42.217 42.217 0 0 1-2.35-4.35c-.1 1.1-.167 1.967-.2 2.6l-.649-.25c-.101-.033-.184 0-.25.101l-.301-.8a156.688 156.688 0 0 0-.649-5.5c-.9-2-1.767-4.084-2.601-6.25.233 3.133.45 5.533.65 7.199-.733-.333-1.217-1.017-1.45-2.05-1.166-3.033-1.8-7.116-1.899-12.25-.067-.267-.15-.5-.25-.7a73.753 73.753 0 0 0-.301 4.2l-.199-.1c.366 3.8.916 6.983 1.649 9.55-.533.134-1.017.083-1.45-.15l-1.149-2.949c-.601-6.067-.95-10.784-1.05-14.15-.167-2-.25-3.9-.25-5.7a343.217 343.217 0 0 1-2.75-10.5c-.067 2.101-.15 4.084-.25 5.95.333 5.467.283 9.45-.15 11.95l-.6-.45-.95-1.25c0-.134-.017-.3-.05-.5 0 .267-.051.55-.15.85.167-2.433.283-5.783.35-10.05-.033-1-.033-2.116 0-3.35 0-1.434-.05-2.7-.149-3.8-.066.633-.2 1.316-.4 2.05.134-1.767.316-3.367.55-4.8-.166-2.2-.283-3.417-.35-3.65a2.811 2.811 0 0 1-.15-.25l-.55.2c-.033-.5.05-1.283.25-2.351a10.673 10.673 0 0 1-.25-1.949c-.633 4.233-1.467 7.949-2.5 11.149l-.45-.2c.101-.3.167-.666.2-1.1l-.55.25c.233-.8.366-1.533.4-2.2-.5 1.967-.967 3.7-1.4 5.2l-.5-.15c.733-5 1.434-11.267 2.1-18.8.434-3.6.733-6.633.9-9.1-.3-2.5-.566-4.983-.8-7.45-.2 1-.4 2.083-.601 3.25l-.8.25c.066-2.733.367-6.066.9-10a1159.54 1159.54 0 0 1-.45-10.7c-.167.4-.35.783-.55 1.15.033-1.134.2-2.5.5-4.101 0-2.899.05-5.816.149-8.75.233-8.199.967-18.267 2.2-30.199l-.7.25c.167-1.5.634-3.483 1.4-5.95 1-8.7 2.233-18.25 3.7-28.65a1204.354 1204.354 0 0 1-3.75 9.25c.967-5.866 2.666-12.033 5.1-18.5.3-1.6.566-3.233.8-4.899 5.067-33.634 9.717-57.551 13.95-71.75 8.634-31.037 19.517-56.769 32.651-77.203z" fill-rule="evenodd"/><path d="M302.727 1359.05v-.699c-1.2 1.767-2.301 3.267-3.301 4.5.467-.534.95-1.067 1.45-1.601a109.12 109.12 0 0 0 1.851-2.2zm73.3 17.75c.767.534 1.45 1.117 2.05 1.75.233-.033.483-.066.75-.1-3.033-2.7-5.517-4.917-7.45-6.65.066.434.117.9.15 1.4 1.433.934 2.933 2.134 4.5 3.6zm-5.101-34.3c.2.167.4.351.601.55l5.3 4.601a92.805 92.805 0 0 1 3.15 2.85c-2.067-2.434-4.934-6.066-8.601-10.899a17.04 17.04 0 0 0-.95-1.25 131.2 131.2 0 0 0 .5 4.148zm1.551-23.5c.199.3.383.617.55.95-.834-2.5-1.783-5.517-2.851-9.05-.033.166-.066.35-.1.55.167.733.316 1.483.45 2.25.1.6.149 1.233.149 1.9.569 1.1 1.168 2.234 1.802 3.4zm-71.2 29.601c-.367.3-.733.583-1.101.85-.333.467-.666.884-1 1.25a21.618 21.618 0 0 0 1.601-1.35c.233-.301.399-.551.5-.75zm-1.5-4.151a71.292 71.292 0 0 1-4.101 4.7c.9-.566 1.733-1.134 2.5-1.7a60.223 60.223 0 0 0 1.601-3zm2.05-18.75c-.066-.5-.066-1 0-1.5.033-.066.033-.217 0-.45-1.1 1.601-2.566 3.55-4.4 5.851-.699.899-1.366 1.75-2 2.55a498.27 498.27 0 0 0 4.551-3.7c.599-.901 1.215-1.817 1.849-2.751zm-.901-13.05l-.199-.95a74.91 74.91 0 0 1-2.25 2.85c-.2.367-.434.784-.7 1.25a139.54 139.54 0 0 1 3.149-3.15zm-9.8-11.299c.467-.534.867-1.017 1.2-1.45l.15-.55-1.35 2zm-.149-5.851l-.101-.05a8.384 8.384 0 0 0-.5.95c.201-.299.401-.6.601-.9zm3.05-10.85c.2-.134.383-.283.55-.45l-.05-.3c-.033.033-.117.1-.25.2a1.713 1.713 0 0 1-.25.55zm-2.2-13.049l-.3-1.051a37.313 37.313 0 0 1-2.15 3.9 44.175 44.175 0 0 1 2.45-2.849zm-6.201-27.801l-.3-1.449a620.894 620.894 0 0 0-4.1 7.25c1.367-1.634 2.834-3.568 4.4-5.801zm-9.7-67.5c-.066-.033-.1-.1-.1-.199l-4.1 12.25c.866-2.367 1.883-5.117 3.05-8.25a37.303 37.303 0 0 1 1.25-3.2 1.917 1.917 0 0 1-.1-.601zm-2.75-8.35c-.1-.4-.216-.816-.35-1.25-1.033 1.3-1.95 2.3-2.75 3-1.1 4.566-1.684 8.167-1.75 10.8 1-3 1.616-4.8 1.85-5.399a87.556 87.556 0 0 1 3-7.151zm-1.149-3.5a5.222 5.222 0 0 1-.351-1l-.149.6c-.2.5-.384 1.084-.55 1.75.399-.466.75-.916 1.05-1.35zm109.7 81.45a72.71 72.71 0 0 1-.65 3.85c.066.967.1 1.9.1 2.8.233-1.333.417-2.716.551-4.149.065-.8.065-1.634-.001-2.501zm-1.051 9.05c0-.733-.05-1.517-.149-2.35a271.384 271.384 0 0 1-1.25 7.1c.033.134.083.283.149.45a45.61 45.61 0 0 0 1.25-5.2zm8.45-43.849c0 .433-.05.8-.149 1.1a18.38 18.38 0 0 1-.95 2.35c-.167 2.967-.417 5.584-.75 7.851.267.967.55 1.899.85 2.8l.7 4c.1-.6.134-1.083.1-1.45.267-4.533.567-8.533.9-12a62.998 62.998 0 0 0-.701-4.651zM265.327 1145.5a1.1 1.1 0 0 0-.15-.35c-.066.5-.166 1-.3 1.5.2-.367.35-.75.45-1.15zm-80.35-150.649a2.4 2.4 0 0 0 .1-.65 51.194 51.194 0 0 0-1.2-3.15c.167 2.767.167 5.4 0 7.9.066.467.101.866.101 1.2.398-1.901.732-3.668.999-5.3zm28 50.299c.066-.733.116-1.55.149-2.45-.267-.3-.55-.6-.85-.9.234 1.067.468 2.183.701 3.35zm-6.351-4.5c.066-1.667.15-3.55.25-5.65a89.493 89.493 0 0 0-1.55-2.2c.367 2.167.8 4.784 1.3 7.85zm-10-19.2c.066.267.15.566.25.9-.1-.467-.184-.884-.25-1.25v.35zm156.201-136.8a7.16 7.16 0 0 1-1-1c.134 1.399.233 2.833.3 4.3.233.167.434.316.601.45 1.1.267 2.083.633 2.949 1.1 1.034.334 1.917.717 2.65 1.15-1.267-1.667-3.1-3.667-5.5-6zm-2.8-27.5l.1.05-.1-.1v.05zm-129.7-166.45c12.434-8.5 26.7-14.033 42.8-16.6 14.634-2.467 27.584-2.25 38.851.649 11.6 3.167 17.933 8.066 19 14.7.233.7-.067 1.434-.9 2.2 4.6 6.267 7.934 15.1 10 26.5-.033.033-.033 2.05 0 6.05 4.1 10.9 6.85 20.6 8.25 29.1 2.866 15.601 5.333 33.101 7.4 52.5 1.833 1.334 2.899 2.317 3.199 2.95 2.467 1.967 3.601 3.267 3.4 3.9-.2.6-.35.916-.45.95h-.35c-1.667-1.101-3.467-2.5-5.4-4.2.167 1.533.316 3.083.45 4.649a74.844 74.844 0 0 1 2.95 4.15c3.267 4.4 4.816 6.833 4.649 7.3-.333.934-.6 1.066-.8.4-1.967-2.066-3.934-4.783-5.899-8.15-.233-.366-.483-.75-.75-1.149.066.233.1.449.1.649 1.233 1.634 2.65 3.783 4.25 6.45 4.333 6.9 6.233 11.134 5.7 12.7-.2.6-.367.899-.5.899h-.8c-.067-.199-2.25-4.233-6.551-12.1-.566-1-1.083-1.934-1.55-2.8.033.533.066 1.033.101 1.5a47.117 47.117 0 0 1 2.35 3.25c2.566 4.133 3.684 7.666 3.35 10.6l-.05.05c1.334 2.067 2.283 3.717 2.851 4.95l-1.301 3.75-.1.101c-.033-.067-.066-.101-.1-.101.066.101.1.217.1.351l-1.3 3.899c-1.566-2.8-2.983-5.45-4.25-7.95.033.267.05.517.05.75.3.5.583 1.017.85 1.551 1.4 2.366 2.483 4.399 3.25 6.1l-.949 2.8 2.149.101c.334.966.4 1.716.2 2.25-.167.533-.384.866-.65 1 1.601 2.466 2.351 3.949 2.25 4.449 2.5 2.2 3.65 3.617 3.45 4.25-.166.567-.316.867-.45.9a4.593 4.593 0 0 1-.399.25l-1.4.25c-2.666-2-5-3.7-7-5.1.066.166.101.35.101.55 4.166 2.233 6.083 3.85 5.75 4.85-.2.634-.417.95-.65.95-.134.033-.384.05-.75.05-.366-.166-.884-.483-1.55-.95.133.367.166.667.1.9-.3.9-.483 1.083-.55.55-.634-.333-1.3-.649-2-.95.267 4.4.566 9.034.9 13.9.6.6 1.267 1.2 2 1.8 3.233 3.3 5.517 5.834 6.85 7.601 2.366 1.066 3.517 1.699 3.45 1.899-.334 1.033-.851 1.184-1.55.45a66.162 66.162 0 0 0-4.45-1.1c3.166 2.966 5.45 5.616 6.85 7.949h-.6a440.111 440.111 0 0 0-10.101-8.949c-.466-.233-1-.434-1.6-.601 1.3 1.101 2.233 2 2.8 2.7l-.5-.1a249.498 249.498 0 0 0-2.55-1.551c.1.767.167 1.5.2 2.2 4.934 4.066 8.233 7.033 9.899 8.9l-1.05.55c-3.399-2.733-6.3-5.083-8.7-7.05.034.767.084 1.55.15 2.35 4.134 3.4 7.116 6.033 8.95 7.9-2.9-1.667-5.851-3.816-8.851-6.45.134 2 .233 4 .301 6 4.5 4.7 7.033 8.333 7.6 10.9-.333.3-.967.466-1.9.5-.8-1.434-2.649-3.767-5.55-7a30.063 30.063 0 0 1 0 3.449c1.566 1.9 2.867 3.517 3.9 4.851l-1.05 1.2c-.801-.601-1.75-1.483-2.851-2.65v1.2c1.467 2.233 2.45 4.184 2.95 5.85 2.5 3.367 3.517 5.65 3.05 6.851-.233.6-.35.933-.35 1-.101-.034-.267.05-.5.25l-1.2-.051c-.6-1.566-1.767-3.55-3.5-5.949.167 2.133.316 4.267.45 6.399.166.2.35.417.55.65a66.88 66.88 0 0 0 2.5 3.649c-1-.866-2.05-1.833-3.15-2.899.167 2.7.233 5.416.2 8.149 3.5 4.534 5.033 7.5 4.601 8.9-.334.634-.65 1.066-.95 1.3l-.95.2c-.467-1.333-1.384-3.066-2.75-5.2 0 .533-.017 1.05-.05 1.55 2.399 3.867 3.816 7.301 4.25 10.301l-.7.85c-1.134-1.233-2.417-2.917-3.85-5.05a61.783 61.783 0 0 1-.351 4.399c1.066 2.267 1.45 3.767 1.15 4.5a1.09 1.09 0 0 0-.2.45c1.033 2.634 1.983 5.566 2.85 8.8l-1 .25a217.96 217.96 0 0 1-3.399-7c-.367 3.134-.816 6.25-1.351 9.351 1.267 2.733 1.733 4.5 1.4 5.3-.233.667-.483 1.033-.75 1.1h-.3c2.033 3.934 2.916 6.267 2.649 7-.5 1.167-.75 1.4-.75.7-1.3-2.3-2.533-4.416-3.699-6.35-.434 2.1-.9 4.267-1.4 6.5 1.366 3.133 1.8 5.383 1.3 6.75l-.149.3c.6 1.634 1.216 3.4 1.85 5.3-.4.2-1.033.434-1.9.7-.633-1.566-1.449-3.267-2.449-5.1l.05-.15a6.92 6.92 0 0 1-.45-.85 2.445 2.445 0 0 1-.25.8c2.7 4.899 3.733 8.116 3.1 9.649-.233.667-.449 1.034-.649 1.101-.267.1-.75.2-1.45.3a277.543 277.543 0 0 0-2.45-5.25c-.066.6-.217 1.2-.45 1.8 2.167 3.267 3.101 5.351 2.801 6.25-.2.634-.434.983-.7 1.05-.066.101-.316.184-.75.25-.667-.666-1.5-1.633-2.5-2.899-.134.5-.267 1.017-.4 1.55 2.3 2.7 3.65 4.333 4.05 4.9l-.75.399a61.363 61.363 0 0 0-3.699-3.6c-.034.233-.084.5-.15.8 2.5 2.366 3.717 4.233 3.65 5.6l-2 .65a187.22 187.22 0 0 1-2.75-2 19.733 19.733 0 0 1-.5 2.1c2.033 1.767 3.316 3.217 3.85 4.351-.267.2-.616.333-1.05.399 4 3.767 5.833 6.217 5.5 7.351-.267.733-.5 1.083-.7 1.05h-1.4c-2.6-2.066-4.116-3.483-4.55-4.25 1.334 1.134 2.283 1.7 2.851 1.7l.1-.25a255.478 255.478 0 0 1-4.4-3.7c1.467 3.033 2.867 6.55 4.2 10.55l-.5 1-1.25.101c-.3-.5-.6-.95-.899-1.351 0 .233-.051.483-.15.75-.333 1.066-.55 1.25-.65.55a52.208 52.208 0 0 1-3.649-3.399c0 .333-.033.7-.101 1.1 3.067 2 5.233 3.767 6.5 5.3-2.267-.366-4.5-1.199-6.699-2.5 0 1-.051 2.084-.15 3.25.767.7 1.566 1.5 2.4 2.4 1.333 1.634 2.466 3.134 3.399 4.5-.3.967-.45 1.167-.45.6-2.166-1.633-3.916-3-5.25-4.1.067 2.033.184 4.1.351 6.2a.64.64 0 0 1 .3.149c.033 0 .05.017.05.051 3.667 1.899 5.434 3.083 5.3 3.55-.3.934-.483 1.149-.55.649l-.1.15c-.167.066-.533.1-1.101.1-.6-.033-1.767-.566-3.5-1.6l.4 2.8c4.533 26.101 13.167 44.601 25.9 55.5 6.933 5.9 11.483 10.384 13.649 13.45 3.434 5.167 6.167 11.983 8.2 20.45a35.691 35.691 0 0 1 1.9 4.149c.399 1.034.699 1.967.899 2.801 1.134 1.933 2.316 4.233 3.55 6.899 2.867 6.233 4.15 9.8 3.851 10.7-.2.533-.316.8-.351.8-.066.066-.216.117-.449.15h-.601c-1.1-3.267-2.684-7.334-4.75-12.2 0 .2-.033.417-.1.65l-.5-.051c-.434-.666-.834-1.283-1.2-1.85 0 .333.017.684.05 1.05.134.233.283.45.45.65l-.3.45.2 3.399c.3.467.55.95.75 1.45 3.033 6 4.399 9.434 4.1 10.3-.167.566-.3.851-.4.851l-.399.199a767.891 767.891 0 0 1-3.8-7.6c.133 2.7.166 5.483.1 8.35 2.3 5.733 3.3 9.084 3 10.051-.233.633-.417.966-.55 1-.2.066-.5.1-.9.1-.633-1.634-1.2-3.2-1.7-4.7l-.1.7c.5 2.233.684 4.033.55 5.4.367 3.066.8 6.949 1.3 11.649.601 7.167.801 10.983.601 11.45-.3.6-.684 1.15-1.15 1.65.033 2.633 0 5.916-.1 9.85 0 4.467-.101 8.233-.3 11.3 1.3 6.066 1.649 9.75 1.05 11.05-.3.9-.75 1.617-1.351 2.15h-.55c-.1-1.233-.2-2.483-.3-3.75-.1.366-.184.55-.25.55-.033.101-.3.184-.8.25l-.4-.399c0-.967.101-3.95.3-8.95-.633-4.7-1.216-8.617-1.75-11.75-.233 2.467-.633 4.316-1.199 5.55-.067.167-.134.4-.2.7.533 6.333 1.434 15.116 2.7 26.35l-1.301.3c-.6-1.966-1.183-4.083-1.75-6.35-.166 7.267-.916 12.634-2.25 16.1-.066.233-.25.517-.55.851 2.8 10.467 3.851 16.8 3.15 19-.2.533-.434.95-.7 1.25-.2.399-.3.616-.3.649l-.8-.05c-.534-2.899-1.617-7.934-3.25-15.1-.334.934-.634 1.8-.9 2.6.333 6 .434 10.134.3 12.4.9 3.967 1 6.95.3 8.95-.133.533-.283.833-.449.899h-.101l-1.1-.149c-.267-1.4-1.084-4.75-2.45-10.051a157.07 157.07 0 0 1-1.45 6.45c1.2 6.5 1.467 10.767.8 12.8-.199.634-.483 1.117-.85 1.45a5.067 5.067 0 0 1-.6.601 381.93 381.93 0 0 1-1.601-7.5c-.2.433-.383.816-.55 1.149a8.685 8.685 0 0 1-.1.45c.433 1.7.933 3.467 1.5 5.3 2.899 9.601 4.316 14.483 4.25 14.65-.167.6-.301.899-.4.899l-.1.101c1.333 2.533 1.949 3.883 1.85 4.05-.2.634-.434 1.017-.7 1.15-.2.1-.533.199-1 .3-1.533-1.834-3.533-5.3-6-10.4 0 .8-.066 1.584-.2 2.351a147.337 147.337 0 0 0 4.351 6.949c4.233 6.567 6.283 10.017 6.149 10.351-.199.6-.449.95-.75 1.05-.233.066-.6.116-1.1.15-1.967-1.834-5.017-6.267-9.15-13.301v1.9a737.69 737.69 0 0 1 6.801 9c4.433 5.767 6.6 8.833 6.5 9.2-.2.533-.367.85-.5.95-.101.1-.267.183-.5.25l-1.45.35c.666.667.983 1.066.95 1.2-.2.566-.367.899-.5 1a2.093 2.093 0 0 0-.2.3l-2.101.25a58.741 58.741 0 0 1-7.5-5.7c.134 1.667.167 3.584.101 5.75 3.899 3.3 5.833 4.967 5.8 5-.167.634-.316.983-.45 1.05-.1.101-.149.184-.149.25l-.351.101a4.01 4.01 0 0 1-.5.2c4.267 4.833 6.367 7.383 6.3 7.649-.133.267-.416.584-.85.95-.267.167-.816.467-1.65.9-2.5-2-5.333-4.733-8.5-8.2-.066.866-.1 1.684-.1 2.45.7.433 1.384.966 2.05 1.6 7.066 5.533 10.467 8.7 10.2 9.5-.134.467-.3.816-.5 1.05 1.6 1.733 2.25 3.066 1.95 4-.167.533-.334.867-.5 1a.78.78 0 0 0-.2.3l-.35.101c-.4.066-.884.1-1.45.1a42.546 42.546 0 0 0-.9-.1c.934 1.1 1.434 2 1.5 2.7 6.367 3.666 9.967 8.083 10.8 13.25 0 .033.15 1.267.45 3.699-.333 3.134-1.3 7.717-2.899 13.75-1.334 6.134-7.551 10.2-18.65 12.2-11 2.067-18.2 3.3-21.6 3.7a7982.18 7982.18 0 0 1-20.801 2.65c-10.399 1.3-17.149 2.017-20.25 2.149l-4.6.4.05-.15a58.307 58.307 0 0 1-13.2-.7c-3.233-.533-8.8-1.017-16.699-1.449-3.233-.2-6.851-.367-10.851-.5-15.8-.7-28.733-.783-38.8-.25-9.9.399-15.934-.217-18.1-1.851-2.867.4-8.15.533-15.851.4-5.6-.134-10.517-.767-14.75-1.9-1.866-.1-3.8-.183-5.8-.25-6.3-.267-10.366-.733-12.2-1.399-1.267-.533-1.649-1.384-1.149-2.551.333-1.033 1.466-2.232 3.399-3.6.2-.167.45-.35.75-.55.367-.8.983-1.817 1.851-3.05 2.433-3.5 11.866-5.283 28.3-5.351 16.6-.1 27.25-1.183 31.95-3.25 3.633-1.467 8.199-2.45 13.699-2.95l3.65-.8c2.434.033 4.717.101 6.85.2 3.934-.3 8.101-.917 12.5-1.85l-9.699-.25c-2.634-.134-4.101-.417-4.4-.851 2.634-.267 4.434-.467 5.4-.6.899-.033 6.017.033 15.35.2 1.267-.334 2.517-.65 3.75-.95-2.4-.167-4.7-.333-6.9-.5-3.1-.101-4.966-.434-5.6-1 12-1.601 18.366-2.4 19.1-2.4a42.214 42.214 0 0 1 1.75-.149c.233-.134.417-.233.551-.301-.867-.133-1.351-.283-1.45-.449-.033 0-.05-.167-.05-.5.033-.2-.217-.334-.75-.4.066-.066.3-.2.699-.4.367-.333.567-.583.601-.75a78.02 78.02 0 0 0 5.55-.3c.6-.366 1.167-.733 1.7-1.1.133-.134.267-.25.399-.351-.666.134-1.3.25-1.899.351l-1.05-.55v-.351c.466-.333 1.267-.816 2.399-1.45-.467-.033-.8-.083-1-.149-1.3.1-2.416.133-3.35.1-.601 0-1.217-.149-1.851-.45-.533-.399-.833-.732-.899-1 .566-.133 2.934-.732 7.1-1.8 1.467-2.066 4.717-6.184 9.75-12.35a474.23 474.23 0 0 1 6-7.25c.033-.066.066-.134.101-.2-3.267 3.667-5.867 5.434-7.801 5.3-.6 0-.983-.066-1.149-.2-.101-.066-.184-.25-.25-.55.934-1 2-2.217 3.2-3.649-3.101 3.1-5.301 5.083-6.601 5.949-.2-.066-.3-.116-.3-.149-.066-.101-.017-.434.15-1 .166-.434 2.133-2.816 5.899-7.15l-1.05-.85c1.167-1.9 3.917-5.9 8.25-12a.564.564 0 0 0-.05-.4c-4.334 5.767-7.15 9.834-8.45 12.2l-1.7-.05c.066-.467.283-1.25.65-2.351.066-.233.149-.449.25-.649l-.8-.65c1.633-2.633 3.166-5.116 4.6-7.45-5.733 4.167-9.917 6.117-12.55 5.851 2.566-1.667 5.017-3.3 7.35-4.9l-.149-.6c-4.667 3-8.483 4.434-11.45 4.3-.934-.033-1.434-.316-1.5-.85 2.399-1.167 5.483-2.884 9.25-5.15a604.2 604.2 0 0 0 6.35-6.55c-5.866 4.6-10.6 7.267-14.2 8-.399-.167-.583-.417-.55-.75 11.601-8.767 17.55-13.283 17.851-13.55a106.649 106.649 0 0 0 5-4.45c0-1.033-.034-2-.101-2.9-.633.767-1.3 1.483-2 2.15a93.321 93.321 0 0 1-3.649 4.1c-7.267 7.667-12.684 11.417-16.25 11.25-.667 0-1.101-.066-1.301-.2-.199-.1-.316-.283-.35-.55 4.2-2.899 7.8-5.467 10.8-7.7.934-1.199 2.05-2.666 3.351-4.399l-.051-.15c.434-.633.967-1.399 1.601-2.3-.134.134-.316.3-.55.5-10.733 9.833-17.717 14.65-20.95 14.45-.7-.033-1.117-.101-1.25-.2-.2-.033-.334-.217-.4-.55a588.391 588.391 0 0 0 15.8-11.55c1-1.2 1.834-2.334 2.5-3.4l.051-.2a185.457 185.457 0 0 0 2.55-5c-8.066 7.7-13.601 11.467-16.601 11.3-.5-.033-.767-.166-.8-.399.066-.233.084-.417.05-.55 9.867-7.9 15.217-12.2 16.051-12.9a86.464 86.464 0 0 0 4.949-4.35c.301-.601.601-1.2.9-1.801a.488.488 0 0 0-.1-.25c.399-.633.833-1.267 1.3-1.899.366-.634.717-1.233 1.05-1.8a766.46 766.46 0 0 0-5.45 5.75c-10.033 9.966-16.883 14.883-20.55 14.75-.533-.034-.833-.184-.9-.45.067-.2.084-.316.051-.351 7.8-5.933 14.133-11.033 19-15.3a581.59 581.59 0 0 0 8.199-14.25c-3.866 4.334-11.416 11.783-22.649 22.351-.334-.134-.55-.5-.65-1.101.9-1 5.084-5.3 12.55-12.899v-.301l.101-.199c-5.533 5.866-9.066 8.767-10.601 8.699-.566 0-.866-.133-.899-.399a8.598 8.598 0 0 1-.05-.8c1.699-2.134 5.767-6.317 12.199-12.551 4.167-3.933 6.934-7.35 8.301-10.25l-.601-2.949c-.6 1.033-1.2 1.933-1.8 2.699-1.434 3.101-2.95 5.717-4.55 7.851l-1.2-.601 1.9-5.05c-.233.2-.384.351-.45.45l-.351-.45-.55.75c-5.533 7.9-8.833 11.834-9.899 11.8-.5 0-.817-.066-.95-.199l-.15-.25c-.233.166-.2-.2.101-1.101 2.199-3.5 4.333-6.783 6.399-9.85-2.066 2.467-3.883 3.666-5.45 3.6-.6-.066-.899-.233-.899-.5.133-.3.2-.517.2-.649.433-.567 2.3-3.4 5.6-8.5a.707.707 0 0 1-.4-.101c-1.433 1.834-2.699 2.717-3.8 2.65-.533-.033-.85-.15-.95-.351l-.149-.449c.1-.233.116-.384.05-.45-.033 0 .033-.233.2-.7.333-.967 1.833-3.616 4.5-7.95.033-.033.033-.066 0-.1l1.2-3.2c.033-.1.517-.767 1.449-2l1.551-2.3c.033-.134.05-.217.05-.25l3.3-7.8c-2.467 2.6-5.35 5.6-8.65 9l-.399-.301c-.101-.1-.2-.116-.3-.05l.5-1.1c.033-.134.517-.733 1.449-1.8l-.3-.25c2.3-3 4.4-6.867 6.3-11.601l-.55-2.6c-.666.767-1.35 1.45-2.05 2.05-1.267 2.566-2.783 4.566-4.55 6l-.351-.4v-.949a6.406 6.406 0 0 0 1.15-1.551c-.366.467-.866.983-1.5 1.551-.9-.101-1.3-.317-1.2-.65 1.134-1.667 2.3-3.583 3.5-5.75l-.3-.3a150.04 150.04 0 0 0 2.55-4.351c.467-.733.9-1.533 1.3-2.399l-.399-1.4c-.634.8-1.351 1.566-2.15 2.3-.5-.267-.8-.566-.899-.899l2.1-5.8-1.35-6c-3.233 4.466-5.617 7.433-7.15 8.899-1.1.767-1.467.617-1.1-.45.366-.933 1.3-2.483 2.8-4.649l-1.95-.3.15-.5c2.033-3.767 3.899-7.233 5.6-10.4l-1-4.6a724.34 724.34 0 0 1-5.65 9.149l-.85-.05c-.233-.3-.167-.866.2-1.7.434-1.267 1.1-2.75 2-4.45a36.785 36.785 0 0 1-3.601 4.101l-.35-.351c-.066-.1-.2-.1-.4 0l.351-1c1.233-3.333 3.633-7.949 7.2-13.85-.233-1.634-.45-3.25-.65-4.85-1.533 2.566-2.583 4.199-3.15 4.899l-.699-.45.649-2c.533-1.333 1.467-3.183 2.8-5.55a27.776 27.776 0 0 0-.3-2.55c-2.133 3.967-3.55 6.733-4.25 8.3l-.5-.899 2.55-7.25c.634-.867 1.25-1.884 1.851-3.051-.267-2.166-.533-4.25-.8-6.25-2.733 5.267-4.551 8.417-5.45 9.45l-.601-.8.801-1.7c.333-.967 1.133-2.85 2.399-5.649-.366-.034-.583-.2-.649-.5-.067-.2-.117-.301-.15-.301l2.6-8.449c-.033-.434-.066-.9-.1-1.4-2.1 4.5-3.884 7.95-5.35 10.35l-.101-.3c-.066.101-.2.2-.399.3-.834.5-1.45.867-1.851 1.101-.399-.434.584-5 2.95-13.7 1.1-4 2.083-7.533 2.95-10.6 0-.5-.05-.967-.15-1.4a3.563 3.563 0 0 0-.149.45c-2.534 7.7-5.167 13.583-7.9 17.649a23.96 23.96 0 0 0-1.15-.75c.233-.8.5-1.699.801-2.699-.101.267-.184.316-.25.149l-.851-.05c.033-1.267.233-2.866.601-4.8h-.7c.399-1.267.8-2.517 1.2-3.75-.9 1.566-1.817 2.666-2.75 3.3-.4-.467-.534-1.283-.4-2.45a69.82 69.82 0 0 0 .35-1.8c.934-2.8 1.717-5.184 2.351-7.15l-1.15.2c-.133-.967-.184-2-.149-3.1l-2 6.1a31.779 31.779 0 0 1-.65 2.351c-.066.1-.417.983-1.05 2.649-.8 1.667-1.617 2.483-2.45 2.45-.533 0-.85-.1-.95-.3l-.149-.4c.466-2.133.85-3.684 1.149-4.649.367-1.101.65-1.784.851-2.051l7.1-21.5a27.437 27.437 0 0 0 1.35-4.35 111.18 111.18 0 0 0-1.85-5.2 549.381 549.381 0 0 1-2.4 8.45c-2.233 7.066-4.8 12.65-7.699 16.75-1.434-1.634-1.767-3.5-1-5.6 1.5-2.7 2.566-5.017 3.199-6.95v-.05c.134-.934.351-2.134.65-3.601a101.022 101.022 0 0 1-3.5 6.851l-.3-.25 3.5-10.5a.85.85 0 0 0 .05-.2c.2-1.533.483-3.584.85-6.15h-.5c.334-2.3.95-7.017 1.851-14.149a24.302 24.302 0 0 0-1.101-3.101c-.333.7-.816 1.134-1.449 1.3l-.551-.5c-.433 2.534-.8 4.233-1.1 5.101-.533 1.133-.967 1.85-1.3 2.149h-.8c.899-7.233 1.683-13.1 2.35-17.6-.467-2.066-.816-3.7-1.05-4.9-1.267-7.433-5.834-15-13.7-22.699-8.033-7.733-12.033-11.967-12-12.7-2-8-2.45-15.9-1.35-23.7.267-1.066.449-2.083.55-3.05a94.773 94.773 0 0 1-6.101-4.15l-1.3 4.4c-.3.934-.517 1.083-.649.45.267-2.301.483-4.267.649-5.9-.6-.533-1.2-1.033-1.8-1.5-.8 2.3-1.3 3.884-1.5 4.75l-.35-.1c.166-1.733.449-3.567.85-5.5a15.72 15.72 0 0 0-2.2-2 76.863 76.863 0 0 1-1.2 4.199c-.3.934-.466 1.15-.5.65l-.6-.2c.1-2.033.3-4.166.6-6.399-.333-.367-.666-.7-1-1 .067.699.101 1.35.101 1.949-.334.301-.667.434-1 .4-.2-.566-.4-1.15-.601-1.75-.199 1.733-.399 2.884-.6 3.45-.3.934-.566 1.2-.8.8l-.55-.05c-.034-.9 0-2.2.1-3.9l-.55.15c-.066-.7-.967-3.601-2.7-8.7-.1-.134-.2-.283-.3-.45-.434 6.634-.767 10.233-1 10.8-.167.634-.4 1.067-.7 1.301-.2.066-.483.166-.85.3-.134-1.134-.184-3.351-.15-6.65-.934-2.033-1.816-4.399-2.65-7.1-.899 6.566-1.5 10.316-1.8 11.25-.2.6-.45.967-.75 1.1-.133.134-.399.267-.8.4.6-7.167 1.134-13.467 1.6-18.9a56.134 56.134 0 0 0-.149-2.55c-1-1.634-2.017-3.283-3.05-4.95.6 4.467.783 7.033.55 7.7-.367 1.1-.55 1.3-.55.6l-.5-.05c-.134.5-.284.816-.45.95l-.65-.1c-.467-.967-.899-2-1.3-3.101-.333 4.233-.667 6.884-1 7.95-.3.9-.566 1.05-.8.45-.4-5.267-.533-10.434-.4-15.5-.1-.533-.233-1.101-.399-1.7a.382.382 0 0 1-.051.15c-.3.966-.75 2.1-1.35 3.399l-1.3-.2a210.2 210.2 0 0 1 .7-4.399l-.101.2c-.333 1.1-.717 1.716-1.149 1.85l-.051-.75c.233-.9.334-2.717.301-5.45-.334.367-.634.667-.9.9.1-1.601.2-4.15.3-7.65a76.4 76.4 0 0 1-.05-2.8 2.826 2.826 0 0 0-.3-.85c-.101 1.566-.267 2.699-.5 3.399-.367 1.066-.783 1.95-1.25 2.65l-.5-.05c.5-2.733.649-6.034.45-9.9a4.153 4.153 0 0 0-.2-.55c-.434 4.033-.95 6.967-1.55 8.8-.867 2.6-1.617 4.55-2.25 5.85l-1.301-.25c.267-1.8.5-3.517.7-5.149l-.7-.351c.301-1.733.601-3.416.9-5.05l-.45-.05-.05-.85c-.1.066-.233.1-.4.1-1.966-6.2-3.066-11.35-3.3-15.45-.033-.5-.05-1-.05-1.5a37.396 37.396 0 0 1-.4-4.149c-.066.633-.133 1.35-.199 2.149-.801-2.7-1.051-6.967-.75-12.8-.801-3-1.534-6.017-2.2-9.05 0 .366-.017.717-.05 1.05-.034 3.733-.117 6.65-.25 8.75 0 .667.033 1.366.1 2.1h-.2c0 1-.017 1.551-.05 1.65-.2.667-.366 1.066-.5 1.2h-.65c-.6-2.4-.767-6.867-.5-13.4.067-3.566.25-6.6.551-9.1-.167-.9-.334-1.767-.5-2.601-2.834-16.666-4.801-41.716-5.9-75.149-.934-32.467-.533-55.684 1.2-69.65 3.6-30.467 10.533-56.366 20.8-77.7 6.017-15.993 16.267-28.942 30.734-38.843z" fill-rule="evenodd"/><path d="M402.876 486.1v-.3l-.05.05a.811.811 0 0 1 .05.25zm5.651-38.6a51.67 51.67 0 0 0-1.2-3.9c.1.9.217 1.85.35 2.85.301 2.6.517 5 .65 7.2.133-2.267.2-4.317.2-6.15zm-.101-8.7l-.6-.1c-.167-1.767-.533-3.783-1.1-6.05.066 2.3.133 4.483.199 6.55.601 1.767 1.134 3.35 1.601 4.75.034-1.967.001-3.683-.1-5.15zm-2.25-15.3c.067.767.117 1.517.15 2.25.3.8.6 1.567.9 2.3a130.673 130.673 0 0 0-1.05-4.55zm-.5-6.7c.134 1.367.267 2.717.4 4.05.934 2.067 1.767 5.533 2.5 10.4.066.3.116.567.15.8.633 1.967.899 3.333.8 4.1-.033.033-.05.083-.05.15l.55 2.75c-.3-2.733-.667-5.317-1.101-7.75-.466-2.967-1-5.667-1.6-8.1a80.866 80.866 0 0 0-1.649-6.4zm.851-6.45a44.719 44.719 0 0 0-2.25-5.2c.133.6.233 1.183.3 1.75a75.368 75.368 0 0 1 1.95 3.45zm-17.901-59.75c-1.233-2.3-2.883-4.85-4.95-7.65a783.705 783.705 0 0 1-4.649-6.55 147.983 147.983 0 0 1 4.149 8.7.816.816 0 0 0 .15.2c1.167 1.367 2.2 2.617 3.1 3.75-1.066-1.467-1.85-2.583-2.35-3.35 1.834 1.867 3.35 3.5 4.55 4.9zm-21.75-36c-.133 0-.366-.017-.7-.05a37.581 37.581 0 0 0-2-2.4c-.733-.7-1.433-1.4-2.1-2.1 1.4 1.733 2.75 3.5 4.05 5.3.8.733 1.566 1.467 2.3 2.2 1.233.633 2.334 1.117 3.301 1.45a228.18 228.18 0 0 1-4.851-4.4zm-5.75-12.7c0-1.7-.066-3.383-.2-5.05a37.478 37.478 0 0 0-.399-2.95l-.101-.05v-.45a49.048 49.048 0 0 0-.75-4 95.86 95.86 0 0 1-.149 8.15c.267.7.55 1.5.85 2.4.299.667.549 1.317.749 1.95zm.401.9c0 .033-.033.05-.101.05.067.167.117.317.15.45a.864.864 0 0 0-.049-.5zm-3.3-29.65c.233.833.483 1.7.75 2.6-.233-1.7-.534-3.45-.9-5.25-.167-.5-.384-1.033-.65-1.6.333 1.367.6 2.784.8 4.25zm-18.4-61.35c.267.2.5.433.7.7l-58.8 3.85c4.366-3.367 9.333-6.35 14.899-8.95a77.546 77.546 0 0 1 5.65-2.4c13.3-5.867 25.233-4.167 35.8 5.1.567.533 1.151 1.1 1.751 1.7zm12.799 39.8c.033.033.05.067.05.1a54.188 54.188 0 0 1 4.65 7.2c2.267 4.167 4.167 9.15 5.7 14.95l-.3-.05c-2.301-6-4.517-10.934-6.65-14.8-.833-1.466-1.684-2.9-2.55-4.3h-.101c.467 1.267.917 2.55 1.351 3.85 0 .1.017.2.05.3 2.634 5.133 4.667 10.383 6.1 15.75 1.134 2.9 1.617 4.917 1.45 6.05-.033.466-.116.75-.25.85l-.149.3-.301-.05c-.733-3.033-1.716-6.233-2.949-9.6 2.233 8.933 3.267 14.633 3.1 17.1 1.434 5.034 1.95 9.067 1.55 12.1a31.505 31.505 0 0 1-.75 3.95c.033.1.084.183.15.25 5.2 6.233 7.8 9.617 7.8 10.15 1.033 1.033 2.083 2.1 3.15 3.2-.101-.167-.284-.45-.551-.85-.199-.333-.283-.567-.25-.7 1.067.767 1.867 1.35 2.4 1.75a.214.214 0 0 1 .2 0c.033.033.05.083.05.15.167.133.3.233.4.3.267.3.35.867.25 1.7-.067.467-.15.7-.25.7-.101.033-.334.017-.7-.05a10.37 10.37 0 0 0-.95-.75c-.233.066-.533.083-.9.05a22.36 22.36 0 0 1-1.8-.4 67.962 67.962 0 0 1 4.101 4.8c2 1.633 3.267 2.983 3.8 4.05-.3-.2-.733-.517-1.3-.95 2.166 2.933 3.666 5.567 4.5 7.9 4.033 5.3 6.149 8.917 6.35 10.85 2.066 3.4 3.017 5.817 2.85 7.25v.1c.434.8.617 1.417.551 1.85-.101.8-.233.966-.4.5-.434-.733-1.134-1.784-2.1-3.15 1.066 1.633 1.566 2.75 1.5 3.35-.101.767-.2.934-.301.5-.5-.633-1-1.233-1.5-1.8.4.833.65 1.5.75 2 5.967 7.467 11.434 16.917 16.4 28.35l-.5.2a398.17 398.17 0 0 0-10.65-16.3c1.7 3.066 3.7 6.667 6 10.8-1.3-1.6-2.767-3.333-4.399-5.2 4.934 7.7 8.916 14.983 11.95 21.85l-.5-.05c-1.767-2.667-4.65-6.917-8.65-12.75l.2.6c.467 1.5.883 3.033 1.25 4.6 1.533 2.433 3.7 7.466 6.5 15.1 3.133 8.567 4.616 13.5 4.45 14.8-.067.433-.117.667-.15.7-.066 0-.2-.017-.4-.05-4.333-12.967-7.649-22.483-9.949-28.55a84.05 84.05 0 0 1 1.149 5.35c1.4 3.233 2.684 6.4 3.851 9.5l-.5.3a117.094 117.094 0 0 0-2.4-3.7c.033.133.066.283.1.45 1.834 3.133 3.334 6.566 4.5 10.3 1.167 2.1 2.25 4.217 3.25 6.35 1.667 3.5 3.217 7.017 4.65 10.55l-.5.35c-1.167-.7-2.134-1.767-2.9-3.2a52.69 52.69 0 0 0-2.199-4.3c.399 2.533.6 5.05.6 7.55 0 .466-.017.917-.05 1.35l-.5-.1c0-.467-.017-.917-.05-1.35a80.098 80.098 0 0 0-1.301-10.05 690.949 690.949 0 0 0-3.899-7.15c1.934 5.167 3.333 10.85 4.2 17.05.433 3.367.699 6.9.8 10.6l-.25-.1c.566 3.233.767 5.433.6 6.6-.1.8-.25 1.35-.45 1.65l-.35-.05c-.1-2.433-.25-4.883-.45-7.35.134 2.333.167 4.4.101 6.2.533 1.967.75 3.283.649 3.95-.166 1.333-.383 1.633-.649.9-.067-.367-.15-.783-.25-1.25-.267 2.2-.65 3.75-1.15 4.65l-.1-.1v2.95c.3.4.583.783.85 1.15l-.9-.1c-.033.833-.1 1.633-.199 2.4-.134.967-.384 1.833-.75 2.6.3 6.434.316 10.7.05 12.8-.167 1.267-.3 2.133-.4 2.6-.267.967-.633 1.784-1.1 2.45l-.45-.3c.033-1.7.066-3.333.1-4.9-.166.6-.35 1.233-.55 1.9.033 4.6-.05 7.667-.25 9.2-.066.567-.133.9-.2 1-.033.067-.083.15-.149.25.033.3.066.617.1.95.634 2.5.867 4.367.7 5.6-.134 1.066-.434 1.816-.9 2.25.767 3.733 1.617 9.35 2.551 16.85 2.633 5.5 3.85 8.934 3.649 10.3-.066.5-.116.767-.149.8 0 .033-.084.1-.25.2-.334-.1-.601-.25-.801-.45-.1-.066-.267-.233-.5-.5-.3-1.5-.683-3.05-1.149-4.65.533 4.4 1.017 9.517 1.45 15.35 4.066 10.133 6.633 16.6 7.699 19.4-1.033-1.633-2.416-4.333-4.149-8.1a298.185 298.185 0 0 1 4.7 13.25c-.2.233-.517.267-.95.1-1.667-4.867-3.983-10.733-6.95-17.6.033.233.05.5.05.8a2049.82 2049.82 0 0 0 2.351 5.85c3.133 8.233 5.55 15.233 7.25 21-3-5.967-6.117-13.233-9.351-21.8.066 1.233.134 2.5.2 3.8.866 2.467 1.8 5.15 2.8 8.05-.934-2.067-1.833-4.05-2.7-5.95.134 2.434.233 4.934.301 7.5 6.566 11.966 10.267 18.984 11.1 21.05-.134.267-.333.383-.6.35-2-3.267-3.884-6.333-5.65-9.2.533 1.167 1 2.367 1.4 3.601l-.45-.05c-1.134-2.801-2.8-6.301-5-10.5l-.7-1.101c.066.667.1 1.316.1 1.95.4.7.801 1.417 1.2 2.15 4.934 8.533 8.316 15.05 10.15 19.55-.101.233-.3.333-.601.3-.066-.1-.533-.967-1.399-2.6.333 1 .467 1.75.399 2.25-.066.466-.149.75-.25.85-.1.066-.149.116-.149.15l-1.2-.301c.467.934.934 1.767 1.4 2.5a111.953 111.953 0 0 0 2.399 3.65l-.399.2c.733 1.366 1.083 2.166 1.05 2.399-.066.467-.167.7-.3.7-.101 0-.301-.017-.601-.05-3.2-4.967-5.95-9.316-8.25-13.05-1-1.467-2.05-2.983-3.149-4.55l.1 2.85c4.434 6.333 7.384 11.45 8.85 15.35l-.55-.1c-1.434-2.333-4.2-6.417-8.3-12.25.033.566.033 1.167 0 1.8a64.53 64.53 0 0 1 3.05 4.65c.066.1.184.283.351.55 2.333 3.8 3.983 6.934 4.949 9.4l-.25.05c1.167 2.066 1.733 3.2 1.7 3.399 0 .134-.033.25-.1.351.267.533.434.983.5 1.35 3.2 5.2 4.767 7.967 4.7 8.3-.067.5-.217.817-.45.95-.033 0-.334.066-.9.2-1.434-1.9-3-4.184-4.7-6.85-.366.3-.783.533-1.25.699.101.167.217.351.351.551a28.394 28.394 0 0 1-.601-.5c2.167 2.466 4.551 5.866 7.15 10.199 3.634 5.967 5.45 9.384 5.45 10.25 2.533 2.5 4.434 4.634 5.7 6.4-4.167-3.667-7.534-6.7-10.101-9.1a19.787 19.787 0 0 1-1.5-1.351 60.1 60.1 0 0 1 1.25 1.9c.3.267.617.533.95.8 4.4 3.2 6.55 5.184 6.45 5.95-.066.467-.167.783-.3.95-.134.233-.2.366-.2.399l-.45.101a5.03 5.03 0 0 1-1.2-.051c-.533-.066-1.8-.666-3.8-1.8.066.566.116 1.05.15 1.45a85.534 85.534 0 0 1 2.35 2.8c.566.467 1.1.967 1.6 1.5 3.601 3.5 6.567 6.634 8.9 9.4-1.733-1.267-4.017-3.217-6.85-5.851-.101.067-.267.101-.5.101-.934-1-1.767-1.934-2.5-2.8.333.5.666 1.1 1 1.8 1.6 2.833 2.366 4.517 2.3 5.05-.066.5-.15.767-.25.8l-1.55-.2v.051c-.067.5-.15.767-.25.8l-4-.5c.333.233.583.434.75.6.133.233.183.517.149.851-.166 1.267-.7 1.566-1.6.899-.434-.3-1-.6-1.7-.899-.134.899-.267 1.383-.4 1.449-.066 0-.233.034-.5.101a49.301 49.301 0 0 1-2.75-.5c1 1.366 2 2.8 3 4.3a1.67 1.67 0 0 1-.649.3c.2.167.383.334.55.5 1.267.334 2.217.533 2.85.601.5.066.95.116 1.351.149l.55-.05c-.3-.267-1.1-.884-2.4-1.85-1.1-.834-1.75-1.45-1.949-1.851.966-.066 2.283.566 3.949 1.9 1.7 1.333 2.5 2.416 2.4 3.25-.066.467-.167.7-.3.7l-3.851-.4c.467.4.9.8 1.301 1.2-.134.066-.217.133-.25.2-.034.033-.317.017-.851-.051-.333-.033-.733-.166-1.2-.399a.824.824 0 0 1-.199-.05c-.9-.101-1.983-.483-3.25-1.15l-.15.25a87.42 87.42 0 0 1-1.5-.2l-.05.45c-.134.1-.316.2-.55.3l1.35-.2-.1.801-.101.699c1.733.4 3.101.733 4.101 1 1.767.467 2.583 1.167 2.449 2.101-.066.467-.149.717-.25.75l-5.5-.55c-1.3-.167-2.933-.5-4.899-1l-3.2-.45c-1.233.899-2.684 1.833-4.35 2.8 4.5.333 9.8.833 15.899 1.5.033-.1.066-.15.101-.15.033-.033.017.2-.051.7-.066.434-.149.667-.25.7l-.1.05c-1.634-.1-3.167-.166-4.6-.2.966.233 1.616.4 1.949.5l2.101 3.051c-.3 1.366-.483 1.666-.55.899l-1.2.2c-.367-.2-.717-.366-1.05-.5-4.567.866-10.684 1.616-18.351 2.25-.033.267-.066.517-.1.75 4.399.7 9.633 1.366 15.7 2 1.233-.1 2.517-.25 3.85-.45-.033.233.217.45.75.65-.566.033-1.167.1-1.8.2l-.2.199c1.3-.066 2.667-.1 4.1-.1l-.149 1.15c-.267.133-.4.283-.4.449-.399.034-.767.051-1.1.051l-.101.649c-1.267.4-4.183 1.134-8.75 2.2a954.8 954.8 0 0 1-6 2.35l.601 1.25c-.733.267-1.45.584-2.15.95 4.733-1.434 8.533-2.35 11.4-2.75l-.101 1.101c-2.633 1.833-8.3 4.199-17 7.1 1.034-.033 1.617.15 1.75.55-.833 1.2-2.633 2.517-5.399 3.95V702c3.2-1.434 5.783-2.566 7.75-3.399 4.666-2 6.899-2.284 6.7-.851-.067.7-1.567 1.8-4.5 3.3l-.051.45c-.333 1.867-4.433 4.617-12.3 8.25a109.84 109.84 0 0 1-.95 3.101l2-.7c12.601-4.566 17.534-5.7 14.801-3.4-1.634 1.233-4.801 2.816-9.5 4.75a121.144 121.144 0 0 1-6 4.2c9.333-3.833 15.033-5.95 17.1-6.35l-.15 1.149c-3.166 1.566-8.066 3.851-14.699 6.851-1.4 1.199-4 3.017-7.801 5.449-.133.5-.316 1-.55 1.5 12.9-7 19.25-9.699 19.05-8.1-.066.434-4.866 3.384-14.399 8.85-.667.4-1.334.767-2 1.101-.467.666-1 1.366-1.601 2.1a9.86 9.86 0 0 0-.149 1.101c-.066.5-.434 1.149-1.101 1.949l-.05.4c7.3-3.767 11.667-5.783 13.101-6.05l-.101 1.1c-3 1.667-7.55 4.167-13.649 7.5-.134.2-.317.45-.551.75 2.733-1.5 5.067-2.566 7-3.2.301-1 .884-1.35 1.75-1.05l-.05.601c.834-.167 1.584-.233 2.25-.2-.233.133-.566.366-1 .7 5.3-2.467 8.95-4.25 10.95-5.351l-.1 1.101c-4.867 3.267-12.4 7.633-22.601 13.1-.3.167-.616.35-.95.55-.267.334-1.466 1.367-3.6 3.101-.2.566-.434 1.166-.7 1.8 3.767-2.7 6.517-4.617 8.25-5.75-1.399 1.666-3.649 3.75-6.75 6.25 3.033-1.601 7.717-4.033 14.05-7.3.134.3.184.55.15.75-1.767 1.333-3.85 2.783-6.25 4.35.1 0 .184.017.25.05.267.066.366.316.3.75-.166 1.3-2.95 3.45-8.35 6.45v.35c-1.7 1.167-3.45 2.434-5.25 3.801a416.314 416.314 0 0 0-1.4 3.75c.334-.334.55-.634.65-.9.267.134.483.267.649.4.067.1.101.166.101.199-.667 1.101-1.55 2.284-2.65 3.551a141.394 141.394 0 0 1-2.1 5.699c5.233-3.433 8.383-5.083 9.45-4.949.533.066.783.166.75.3 0 .033-.051.083-.15.149l-.05.4c-1.334 1.1-5.3 4.283-11.9 9.55l-1.25 3.7c3.9-3 6.167-4.7 6.8-5.1l.2.399c-.434.934-1.649 2.316-3.649 4.15-2.467 2.3-3.817 3.566-4.051 3.8h.15l2.9-2.15c.333.334.55.601.649.801l-.05.899c-.066.566-1.816 2.75-5.25 6.55l-.25.25c-.1.834-.233 1.667-.4 2.5.567-.433.917-.633 1.051-.6.533.066.816.15.85.25l-.05.05c0 .101-.017.3-.05.601-.067.666-.834 1.767-2.301 3.3a24.403 24.403 0 0 1-.3 2.2l2.7-1.601c.434.066.684.167.75.3.033.067.017.117-.05.15v.55c.033.167.033.45 0 .851-.033.233-1.184.933-3.45 2.1-.066.033-.15.083-.25.15-.1.733-.2 1.449-.3 2.149.233-.066.483-.149.75-.25 2.033-.767 3.149-1.133 3.35-1.1.467.066.717.149.75.25.033.033.033.083 0 .149-.133.4-.149.884-.05 1.45.134.601.184 1.066.15 1.4-.134.866-2.051 2.434-5.75 4.7-2.5 20.767-3.567 38.399-3.2 52.899.533 19.733 2.25 30.7 5.149 32.9 2.967 2.3 4.733 3.767 5.301 4.399 7.033 7.134 7.166 15.7.399 25.7 8.134 9.967 5.75 17.283-7.149 21.95l-.801-.1c-1.699 1.866-3.783 2.966-6.25 3.3-3.733.533-8.25-2.2-13.55-8.2a5.97 5.97 0 0 0-.45-.5c-.1.2-.283.4-.55.6-4.6 2.334-8.666 2.233-12.2-.3-.966-.434-2.949-2.383-5.949-5.85-3.233-3.8-8.517-11.7-15.851-23.7-5.033-8.533-9.267-14.8-12.7-18.8-.433-1.367-.883-2.467-1.35-3.3-1.833-3.101-2.45-7.25-1.85-12.45.366 1.434.899 3.233 1.6 5.399-.7-2.767-1.384-5.166-2.05-7.199.066-.534.05-.917-.05-1.15l-.051.35c-.833-3.466-1.399-5.899-1.699-7.3a76.517 76.517 0 0 1-8.4 6.25l-7.9 4.55c-13.966-7.866-15.416-15.466-4.35-22.8 2.3-1.1 4.3-2.483 6-4.149-.3-1.801-.15-3.584.45-5.351 2.033-4.033 3.684-7.616 4.95-10.75 1.6-3.267 2.933-6.983 4-11.149.333-1.834.633-3.801.899-5.9 5.4 4.4 11.584-3.65 18.55-24.15-1.267 2.334-1.949 3.483-2.05 3.45-.467-.033-.75-.149-.85-.35l-.2-.4c.2-1.5.267-2.483.2-2.95 0-.5.033-1.083.1-1.75.101-.733.634-2.267 1.601-4.6l-.051-.15c.067-.133.15-.25.25-.35.4-.9.851-1.9 1.351-3l-.05-.3c.833-1.767 1.649-3.45 2.449-5.05-.633.699-1.233 1.183-1.8 1.449 1.134-1.767 2.334-3.933 3.601-6.5-.434.5-.834.967-1.2 1.4l-.05-.2c-.167.434-.2.25-.101-.55.066-.4 1.05-2.75 2.95-7.05-.2.133-.384.2-.55.2-.533-.067-.816-.15-.851-.25.067-.2.084-.367.051-.5 1.699-3.101 3.383-6.65 5.05-10.65.2-2.033.434-4.434.7-7.2-2.101 4.367-3.75 7.101-4.95 8.2 2.133-4.634 3.916-8.717 5.35-12.25.233-2.467.5-5.167.8-8.1a215.28 215.28 0 0 1-3.399 6.899l-.15-.75a461.81 461.81 0 0 0 3.851-8.7c.3-3 .633-6.233 1-9.699.033-.467.1-.983.199-1.551 0-.199.017-.416.051-.649-2.934 6.333-4.95 10.283-6.051 11.85l-.3-.3c2.634-6.5 4.983-12.4 7.05-17.7.067-.366.101-.717.101-1.05a136.66 136.66 0 0 1-2.351 5.15.513.513 0 0 1-.449-.4c0-.033 1.083-2.95 3.25-8.75 2.166-25.533.933-53.616-3.7-84.25-5.434-36.267-7.667-65.367-6.7-87.3 1.134-22.034-2.65-46.517-11.35-73.45-7.5-23.833-14.517-52.2-21.051-85.1a266.349 266.349 0 0 1-2.949-15.55c-16.767-24.267-25.867-51.75-27.301-82.45-1.666-27.3 6.601-47.433 24.801-60.4.496-.355.996-.706 1.5-1.05h58.899c4.033 4.635 7.583 9.435 10.65 14.4l.45-3.75c.399.633.583 1.15.55 1.55-.101.567-.033 1.2.2 1.9 4.733 3.067 7.683 5.417 8.85 7.05l-.45.15c-.899-.633-2.75-1.867-5.55-3.7 3.533 3.567 6.184 6.784 7.95 9.65-1.167-1.034-3.584-3.4-7.25-7.1.2.333.3.517.3.55v.15c.9 1.034 1.783 2.05 2.65 3.05 3.866 4.767 6.066 8.533 6.6 11.3-.366-.467-2.934-4.05-7.7-10.75-.733-.9-1.434-1.8-2.1-2.7a1.601 1.601 0 0 1-.351.1 73.818 73.818 0 0 1 3.5 7.55c.267.267.5.55.7.85v-.049zm49.5 235.6c.267 2.567.566 5.1.9 7.6.3.6.666 1.833 1.1 3.7.066-.8.033-1.7-.1-2.7-.033-.6-.117-1.2-.25-1.8a24.835 24.835 0 0 0-.8-4.05 265.471 265.471 0 0 1-.801-2.9.355.355 0 0 1-.049.15zm8.351 158.401l-1.101-.7c-.033.133-.05.283-.05.45.533.267 1.05.517 1.55.75a3.109 3.109 0 0 0-.399-.5zm-.351-10.701c.134.066.233.133.3.2a1.25 1.25 0 0 0-.3-.301v.101zm13 2.15c-.3-.166-.616-.35-.95-.55.867 1 1.717 1.867 2.551 2.601a36.666 36.666 0 0 0-1.601-2.051zm-8.299-5.15v.1c.333.4.667.783 1 1.15l3.4 3.75c.233.2.449.416.649.649.066.101.134.217.2.351l2.9 3.399a83.763 83.763 0 0 1 3.899 4.601 1.4 1.4 0 0 1-.3-.05c.7.666 1.4 1.316 2.1 1.949l-.35.851c.667.467 1.517 1.066 2.55 1.8.467.434.851.9 1.15 1.4.1.066.217.116.35.149l-.1-.399c-.4-1.101-1.101-2.617-2.101-4.551-.699-1.5-1.25-2.566-1.649-3.199a23.64 23.64 0 0 0-.95-.9c-.033 0-.083-.05-.15-.15a51.135 51.135 0 0 1-9.899-9.1 48.064 48.064 0 0 0-2.699-1.8zm2.049-16.45c1.066 1.8 2.066 4.1 3 6.9.434 1.166.733 2.1.9 2.8.166.166.3.333.399.5a27.45 27.45 0 0 1 1.45 2.2c1.5 1.233 3.033 2.566 4.601 4 .1.133.216.25.35.35-1.733-2.333-3.55-5.1-5.45-8.3-1.934-3.434-3.6-6.25-5-8.45-.066-.033-.149-.033-.25 0zm-5.649-13.599c.033.066.033.183 0 .35.333.467.633.95.899 1.45v-.15a23.9 23.9 0 0 0-.899-1.65zm1.399-19.651c.367.6.75 1.217 1.15 1.85a243.912 243.912 0 0 0 3.75 6.301 388.71 388.71 0 0 1-6.601-12.2 66.83 66.83 0 0 1 1.701 4.049zm-3.95 69.401v.149l.2.05a.546.546 0 0 0-.2-.199zm-.599 5.25l5.7-.2-1.65-1.55-3.85-.45a24.794 24.794 0 0 1-.2 2.2zm9.4 18.299c-.267.1-.601.217-1 .35.566-.066 1.1-.116 1.6-.149a6.062 6.062 0 0 0-.6-.201zm3.3 9.5c-2.367.033-3.967.1-4.8.2-1.9.166-5.684.699-11.351 1.6-.5.134-1.066.25-1.7.35-.1.4-.199.817-.3 1.25 7.134-1.533 13.184-2.666 18.151-3.4zm-4.75-8.95c-1.033.333-2.384.767-4.05 1.3 2.6-.2 4.899-.383 6.899-.55-1.632-.099-2.583-.349-2.849-.75zm6-9.25c-.134.533-.25.7-.351.5h-.75c.9.134 1.884.283 2.95.45l-.6-.15c-.4-.133-.75-.333-1.05-.6a37.619 37.619 0 0 1-.199-.2zm-5.05-9.5l-.101.1c.467.4.917.784 1.351 1.15l-1.25-1.25zm-1.45 1.3c-.267.167-.566.367-.9.601.8.199 1.601.416 2.4.649-.5-.434-1-.85-1.5-1.25zm.05-2.75l-.5-.05c.4.366.833.75 1.3 1.15l.2-.051a5.965 5.965 0 0 0-1-1.049zm-.8-4.2c.133 0 .25.017.35.051a5.42 5.42 0 0 0-.85-1.101 4.09 4.09 0 0 0-.851-.35c.5.467.95.934 1.351 1.4zm13.399-2.449v.05c-1.833-1.334-3.949-2.967-6.35-4.9-.3-.2-.667-.383-1.1-.55-.233.066-.5.116-.801.15.167.199.301.416.4.649 3.833 2.834 7.033 4.967 9.6 6.4a31.473 31.473 0 0 0-.449-.55 55.753 55.753 0 0 1-1.3-1.249zm-5.399-.5c.3.633.434 1.133.399 1.5-.033.1-.066.183-.1.25.267.133.467.267.6.399 2.2.7 3.917 1.25 5.15 1.65a258.413 258.413 0 0 1-6.049-3.799zm4.3-8.151a28.252 28.252 0 0 1-.15-.9c-.3-.166-.649-.383-1.05-.649.101.1.217.233.351.399.232.334.516.717.849 1.15zm-16.951 10.651c.434 0 .816.033 1.15.1a4.598 4.598 0 0 0-.5-.7c-.267.101-.55.2-.851.3.069.066.135.166.201.3zm-3.95 18.849c.467.134.917.25 1.351.35.8-.433 1.5-.833 2.1-1.199-.767.033-1.899.166-3.399.399a2.356 2.356 0 0 1-.052.45zm.95 3.05c-.333.167-.684.351-1.05.55-.2.101-.4.184-.6.25a68.22 68.22 0 0 1-.7 3.75c.434-.066.85-.083 1.25-.05 4.2-1.166 7.434-2.066 9.7-2.7a110.472 110.472 0 0 0-5.25-1.699l-3.35-.101zm2.601-7.649c4.267-.733 7.383-1.2 9.35-1.4-4.366-.767-8.267-1.467-11.7-2.1a116.345 116.345 0 0 1-.45 3.149l2.8.351zm-5.95 17.5a7.583 7.583 0 0 1-.15.75c1.533.166 2.95.283 4.25.35 1.634-.1 3.7-.2 6.2-.3-4.967-.233-8.1-.434-9.4-.601l-.9-.199zm-1.851 8.5a16.19 16.19 0 0 1 1.851-.75c-.566.066-1.15.183-1.75.35l-.101.4zm1.051 7.149l-.5-.35a8.887 8.887 0 0 1-2.351.5c-.066.366-.149.75-.25 1.149 1-.465 2.034-.899 3.101-1.299zm-5.25 8.75c2.166-1.166 4.033-2.233 5.6-3.2a140.37 140.37 0 0 1-4.55 1.851c-.2.1-.45.217-.75.35a8.232 8.232 0 0 1-.3.999zm-28.7 96.95l.45-.05c0-.134.116-.233.35-.3h.45l.1-.801a3.718 3.718 0 0 0-1.35 1.151zm2.75-21.05l.1-.101a61.762 61.762 0 0 1-2.399 1.5l-.25.801v.199c1.165-1.032 2.016-1.832 2.549-2.399zm22.849-66.049c-.033.033-.05.083-.05.149.2-.133.417-.267.65-.399a22.71 22.71 0 0 0-.6.25zm-5.2 13.899c-.1.267-.199.566-.3.9.367-.434.7-.867 1-1.3l-.7.4zm-23.149 75.5a7.74 7.74 0 0 0-.101.5c1-.6 1.7-1.083 2.101-1.45-.3.134-.967.45-2 .95z" fill-rule="evenodd"/><path d="M203.926 221.4h15.25c.235.343.469.693.7 1.05 7.867 12.267 12.834 25.033 14.9 38.3a103.257 103.257 0 0 1 1.35 15.45c.101 9.567-1.149 19.35-3.75 29.35 10.867 18.3 17.867 37.633 21 58 2.733 2.833 5.066 7.55 7 14.15 3.5 13.733 3.816 30.833.95 51.3-2.8 18.7-4.417 29.6-4.85 32.7-2.301 9.1-5 15.65-8.101 19.65-.133 2.467-.2 4.883-.2 7.25.733 2.3 1.45 4.783 2.15 7.45 7.6 30.133 4.783 72.733-8.45 127.8-2.233 8.166-10.166 28.433-23.8 60.8.333.533.7 1.116 1.1 1.75 2.634 3.366 4.067 5.483 4.301 6.35.199.767.133.934-.2.5.5 1 .833 1.834 1 2.5.233.934.316 1.55.25 1.851-.167.767-.816 1.566-1.95 2.399a.7.7 0 0 1-.3-.05c.366.7.717 1.384 1.05 2.05l-.5-.1a60.848 60.848 0 0 1-1.9-2.25 15.925 15.925 0 0 0-1.399-.5c4.434 4.767 6.767 7.583 7 8.45.2.733.184.933-.05.6h-.65c-.1-.066-1.384-1.366-3.85-3.9 1.633 1.867 2.533 3.134 2.699 3.801.134.466.134.783 0 .949-.1.067-.3.184-.6.351-.4 0-.7-.066-.9-.2.434.566.684.95.75 1.15.134.533.15.866.051 1 0 .033-.25.183-.75.449a54.302 54.302 0 0 1-.851-.649 59.27 59.27 0 0 1-1.649-1.351l-.5.101-2.301-1.8.25-.351c.2.134.4.233.601.3a94.884 94.884 0 0 0-1.8-1.649c-.434-.4-.9-.816-1.4-1.25 0 .066.017.133.05.2-.033.267-.166.533-.399.8.199.166.383.35.55.55 2.133 2.4 3.8 4.45 5 6.15l-.2.1c.233.4.384.733.45 1s.05.583-.05.95a28.79 28.79 0 0 1-.65 1.05c-.4-.4-.95-.917-1.65-1.55.034.166.017.3-.05.399 2.2 1.934 3.8 3.434 4.8 4.5l-.1.301c-.767-.667-2.467-2.084-5.1-4.25-.101.1-.233.199-.4.3-1.4-1-3.467-2.7-6.2-5.101-.2.167-.467.351-.8.551.8.733 1.5 1.383 2.1 1.949 3.9 3.167 6.717 5.75 8.45 7.75-.333-.3-1.983-1.517-4.95-3.649-.033.2-.199.566-.5 1.1 1.067 1.033 1.733 2.017 2 2.95.134.5.184.8.15.9 0 .033-.05.1-.15.199l-.55.101a4.635 4.635 0 0 0-.7-.9c.101.3.067.517-.1.65-.167.1-.45.25-.85.45a486.165 486.165 0 0 1-8.351-6.601c1.5 1.867 2.283 2.917 2.351 3.15.199.733.25 1.066.149 1l-.55.7c-.134.166-.417.316-.85.449h-.101a.383.383 0 0 1-.05.15c4.134 2.167 6.25 3.467 6.35 3.9.134.5.117.883-.05 1.149l-.55.4c1.333.399 2.017.616 2.05.649.101.467.101.784 0 .95-.1.134-.333.3-.7.5-1-.3-1.966-.566-2.899-.8 2.633 1.3 4.017 2.2 4.149 2.7.101.467.017.733-.25.8-.066.066-.166.066-.3 0-3.366-.9-6.866-2.217-10.5-3.95-1.066-.5-2.25-1.1-3.55-1.8a.816.816 0 0 0-.15.2c1 .666 1.65 1.184 1.95 1.55.2.1.351.283.45.55.667.4 1.066.867 1.2 1.4.2.767.184 1.184-.05 1.25l-.7.2-.601.05c-.133.1-.383.2-.75.3 1.267.5 2.017 1.2 2.25 2.1.034.134.067.284.101.45.733.134 1.333.351 1.8.65-.366 0-1.05.133-2.05.399-.134.233-.184.4-.15.5l-2.6.7c.033.066.217.15.55.25l-10.75 3.101.05.05-.45.649c1.301-.3 1.983-.383 2.051-.25l4.85-.6c.8-.333 1.434-.566 1.9-.7 1.133.101 1.8.55 2 1.351-.301.399-.75.833-1.351 1.3l-12.05 4.149a4.994 4.994 0 0 0-.55 1c.434-.199.85-.383 1.25-.55 6.2-2.566 10.633-4.184 13.3-4.85l.3 1.1c-6.066 3.134-11.633 5.8-16.7 8-.3.634-.6 1.25-.899 1.851 3.333-.667 6.333-.95 9-.851-.134.4-1.517 1.15-4.15 2.25-.3.167-2.383.634-6.25 1.4a125.523 125.523 0 0 0-2.55 5.2c-.066.333-.05.649.05.949 1.566 5.967 2.517 10 2.851 12.101.033.233.1 6.95.199 20.149 0 3.801-.399 8-1.199 12.601l-7.25 28.35-4.15 4.25c-3.866 6.7-6.434 12.684-7.7 17.95.533 5.434 2.05 10.217 4.55 14.35 5.301 7.667 4.184 15.851-3.35 24.551 5.9 10.566 2.8 17.35-9.3 20.35l-.9-.15c-1.8 1.534-3.866 2.351-6.2 2.45-3.199.066-6.816-3.1-10.85-9.5a1.997 1.997 0 0 0-.3-.5 4.746 4.746 0 0 1-.75.25c-4.367 1.834-7.967 1.334-10.8-1.5-.667-.633-2.134-2.8-4.4-6.5-2.5-3.934-6.134-12.133-10.9-24.6a.618.618 0 0 0-.149-.25c.033.566.083 1.184.149 1.85l-.3-.2a101.74 101.74 0 0 0-.149-2.35 164.325 164.325 0 0 0-1.95-4.85c-.467 1.699-.733 2.8-.8 3.3-.233-1.267-.167-2.816.199-4.65-.6-1.366-1.166-2.666-1.699-3.899-.467 1.033-.684 1.6-.65 1.699l.15.601c-.367.066-.634-.017-.801-.25.4-.934.767-1.783 1.101-2.55-1.367-2.934-2.617-5.4-3.75-7.4-.434 1.1-.7 1.767-.8 2l-.25-.35c.133-.367.383-1.084.75-2.15-.101-1.267-.267-2.366-.5-3.3l-.101-.25c-1.233-3-1.217-6.967.05-11.9.034.634.051 1.3.051 2 .233-1 .517-1.983.85-2.95l.1-2.3c-.767 1-1.699 2.134-2.8 3.4.334-.533 1.267-2.033 2.8-4.5.101-2.101.15-4.117.15-6.05a4.554 4.554 0 0 1-.6.399l-.101-.45c.267-.399.517-.816.75-1.25.066-2.6.15-5.116.25-7.55-.1 0-.233.05-.399.15.166-.134.3-.25.399-.351.033-1.933.101-3.8.2-5.6-.033-.767 0-1.517.1-2.25a4.5 4.5 0 0 0-.699.65c-.334-.034-.534-.167-.601-.4.334-.5.816-.983 1.45-1.45 1.134-7.5 5.667-15.133 13.6-22.899 7.233-7.034 11.667-17.067 13.301-30.101a40.43 40.43 0 0 1-.351-1.2c-1.166-4.5-1.649-8.666-1.45-12.5.2-4.633 1.483-7.8 3.851-9.5-.467-4.133.583-8.949 3.149-14.449.334-.767.65-1.483.95-2.15a1.491 1.491 0 0 1-.05-.35c-.233-.767-.217-1.667.05-2.7l.75-.05.3 1.149a57.652 57.652 0 0 1 1.65-2.8 5.06 5.06 0 0 0 .35-.75c-.833.833-1.683 1.4-2.55 1.7l-.2-.3c2.367-3.334 4.2-6.317 5.5-8.95.2-1.434.4-2.884.601-4.351-2.033 4.4-3.533 6.983-4.5 7.75.133-.366 1.149-2.75 3.05-7.149l-.1-.351c.399-.833.783-1.666 1.149-2.5l-.1-.05a376.144 376.144 0 0 1-3.15 6.25c.533-2.267 1.783-5.767 3.75-10.5.2-.467.367-.883.5-1.25.101-1.366.184-2.7.25-4-1.666 3.9-3.066 6.334-4.2 7.3 1.733-3.666 3.15-7.05 4.25-10.149.134-4.033.101-8.117-.1-12.25.1-16.066-.517-35.717-1.85-58.95-2.534-45.733.383-78.483 8.75-98.25 8.233-19.8 10.25-42.917 6.05-69.35-3.9-23.2-6.733-50.683-8.5-82.45-.334-4.9-.566-9.9-.7-15-12.066-24.9-16.767-51.883-14.1-80.95 1.848-22.062 9.531-38.329 23.05-48.8h10.399a63.843 63.843 0 0 1 4.051-2.8c6.199-3.767 13.449-6.767 21.75-9 13.366-3.867 24.316-.417 32.85 10.35l-22.402 1.454zm-70.949 523.5c.033-.134.033-.233 0-.3 0 .166-.017.316-.051.449.034-.032.051-.082.051-.149zm2.5-7.549a17.494 17.494 0 0 1-.301 1.75c.167-.4.301-.801.4-1.2 0-.066-.017-.101-.05-.101a1.816 1.816 0 0 0-.049-.449zm-2.351 1.099c.134-.366.233-.717.3-1.05a42.546 42.546 0 0 1-.1-.9c-2.2 2.967-3.15 6.9-2.85 11.8 0 .134.383 2.534 1.149 7.2.066-1.066.117-2.149.15-3.25a7.224 7.224 0 0 1-.4-1.1c-.665-2.566-.082-6.799 1.751-12.7zm1.451-3.95c.1-.267.184-.533.25-.8.167-.366.3-.75.4-1.15.033-.166.066-.3.1-.399.066-1.066.184-2.117.35-3.15a32.067 32.067 0 0 0-1.1 5.499zm2.15-1.399a34.963 34.963 0 0 0-.15 1.949c.366-1.267.733-2.5 1.1-3.699-.334.599-.65 1.182-.95 1.75zm1.05-4.301a1.128 1.128 0 0 0-.15.351c.334-.4.667-.733 1-1 .233-.834.434-1.65.601-2.45h-.051a52.072 52.072 0 0 0-1.4 3.099zm.95-5.3c-.101.2-.184.4-.25.601.1-.167.183-.334.25-.5v-.101zm2.1-4.2l-.2.2c-.399.7-.767 1.417-1.1 2.15l.05.3c.066-.1.134-.217.2-.35.3-.567.583-1.15.85-1.75.1-.2.166-.383.2-.55zm-.151-2.199c.267-.267.517-.551.75-.851l.2-.8a93.865 93.865 0 0 1-.95 1.651zm71.551-18.75a66.41 66.41 0 0 1 2.899 2.649 28.57 28.57 0 0 1 2 2c-.2-.333-.383-.616-.55-.85-1.1-1.2-2.333-2.483-3.7-3.851a4.5 4.5 0 0 0-.5-.35 1.963 1.963 0 0 1-.149.402zm-2.9 6.549c.5.434 1 .85 1.5 1.25a53.587 53.587 0 0 1-1.35-1.601 1.131 1.131 0 0 1-.15.351zm-106.35 151.3c.033-.566.05-1.1.05-1.6a.62.62 0 0 0-.15-.25c.066.633.1 1.251.1 1.85zm98.649-120l.7-.45c-2.3.434-5.3 1.101-9 2-.167.4-.333.767-.5 1.101l9.2-2.4-.4-.251zm1.151-2.7l-.2.05c.134.101.217.184.25.25l-.05-.3zm3.05-10.55a2.901 2.901 0 0 0-.45.45l-.05.5c1 .333 2.066.7 3.2 1.1 1.166.4 2.233.75 3.2 1.05-1.5-.699-3.467-1.734-5.9-3.1z" fill-rule="evenodd"/></svg>