<svg xmlns="http://www.w3.org/2000/svg" xmlns:dc="http://dublincore.org/documents/dcmi-terms/" height="746" width="798"><metadata><dc:description>Silhouette of Parasitiformes, processed by PhyloPic Tools (https://github.com/eweitz/phylopic-tools)</dc:description><dc:source>http://phylopic.org/image/cbd4db25-b7e4-4aae-ba52-9d8157edf564</dc:source><dc:creator>Birgit Lang</dc:creator><dc:license>http://creativecommons.org/licenses/by/3.0/</dc:license></metadata><path d="M392.06 455.912c-4.485-1.172-3.217-7.067 7.146-33.206 3.357-8.467 6.103-16.484 6.103-17.816 0-1.33.463-3.284 1.028-4.34s1.415-3.994 1.889-6.53c.975-5.223 1.436-5.109-8.417-2.078-11.355 3.494-20.635 5.626-31.665 7.277-10.287 1.539-13.537 1.605-27.5.562-24.646-1.84-24.886-1.82-31.72 2.823-3.236 2.198-6.31 3.997-6.828 3.997-.519 0-4.17 1.524-8.115 3.386-3.944 1.862-9.027 3.658-11.294 3.991-3.556.523-4.483.245-6.75-2.022-1.607-1.607-2.628-3.734-2.628-5.477 0-2.47.767-3.231 5.75-5.717 3.163-1.577 7.881-3.667 10.486-4.645 8.318-3.12 8.002-3.685-5.479-9.767-6.741-3.041-14.499-6.355-17.24-7.364-6.498-2.392-20.457-11.617-27.941-18.464-4.642-4.248-6.763-7.233-9.8-13.796-2.131-4.607-5.336-10.682-7.122-13.5-7.45-11.758-8.423-14.895-10.62-34.238-1.432-12.622-1.314-16.51.865-28.467 2.442-13.4 5.046-20.158 11.434-29.675 7.594-11.315 17.544-21.29 30.172-30.248 16.317-11.575 25.463-14.88 42.871-15.492 7.362-.258 9.226-.662 10.93-2.366 1.738-1.738 1.879-2.439.912-4.56-.628-1.378-2.846-3.595-4.93-4.927-5.078-3.248-15.288-13.379-15.288-15.17 0-2.625 4.584-4.73 8.717-4.004 5.57.978 18.358 11.412 25.767 21.022l6.166 8 6.925 1.143c18.794 3.102 32.957 6.623 35.35 8.79.953.862 2.45 1.567 3.328 1.567 1.512 0 14.84 4.92 19.348 7.143 3.644 1.796 6.755.657 8.585-3.143 2.58-5.357 4.7-7 9.038-7 3.588 0 4.016.314 5.803 4.25 2.432 5.359 2.43 6.432-.027 11.25-2.858 5.607-2.575 7.947 1.25 10.316 1.788 1.107 6.4 4.772 10.25 8.145l7 6.131 7.036-.61c6.316-.55 7.231-.397 8.94 1.491 1.878 2.076 1.867 2.175-.786 7.415-1.48 2.922-2.69 5.903-2.69 6.625 0 1.188 2.577 5.704 8.406 14.73 1.152 1.784 2.927 3.247 3.945 3.25 1.019.005 4.926-2.839 8.683-6.317 10.57-9.787 16.501-12.502 30.152-13.8 12.384-1.178 21.313-.713 32.814 1.71 16.918 3.563 24 6.068 24 8.488 0 .566-1.462 1.598-3.25 2.293-2.5.973-7.635 1.07-22.25.418-32.61-1.455-38.319-.433-51.428 9.214-10.767 7.923-13.548 11.471-12.746 16.266 1.462 8.746 3.683 19.647 4.729 23.216 2.313 7.89-.476 20.711-5.704 26.227-6.215 6.557-10.35 11.944-10.35 13.482 0 1.584 8.527 6.262 13.5 7.405 4.025.925 10.368 4.151 13.795 7.016 4.896 4.093 14.562 6.376 27.56 6.508 6.404.065 12.989.406 14.632.757 3.61.773 4.406 3.48 1.852 6.301-3.76 4.155-6.128 4.638-20.34 4.146-12.217-.424-14.45-.802-23.5-3.983-12.364-4.345-25.28-9.724-32.39-13.486-7.568-4.006-10.268-3.759-15.773 1.442-4.424 4.18-4.57 4.513-5.377 12.25-.748 7.16-4.536 18.969-7.087 22.09-2.171 2.658-9.13 20.581-11.302 29.108-2.385 9.363-7.126 18.413-10.63 20.288-1.846.988-5.058 1.098-8.19.28z"/></svg>