<svg xmlns="http://www.w3.org/2000/svg" xmlns:dc="http://dublincore.org/documents/dcmi-terms/" height="792" version="1.2" viewBox="0 0 612 792" width="612"><metadata><dc:description>Silhouette of Peponocephala electra, processed by PhyloPic Tools (https://github.com/eweitz/phylopic-tools)</dc:description><dc:source>http://phylopic.org/image/a2714483-db9f-40ba-b1f3-94401db02d16</dc:source><dc:creator>Chris huh</dc:creator><dc:license>http://creativecommons.org/licenses/by-sa/3.0/</dc:license></metadata><path d="M295.949 373.65l11.95 3.55 1.9.7 1.899.6c.667.167 1.334.316 2 .45.7.133 1.417.267 2.15.4.733.1 1.483.2 2.25.3.767.067 1.566.133 2.4.2l2.649.1c.934.033 1.9.05 2.9.05l11.149.8 21 4.3c.7.133 1.367.283 2 .45.634.167 1.268.367 1.9.6.6.2 1.2.417 1.8.65.601.2 1.167.434 1.7.7.566.233 1.1.5 1.6.8.5.267.983.55 1.45.85.467.267.9.567 1.3.9.434.3.817.617 1.15.95.367.333.7.667 1 1 .333.333.617.683.85 1.05.233.3.4.567.5.8.134.2.233.4.301.6.066.167.083.35.05.55a1.29 1.29 0 0 1-.05.6c-.033.2-.084.383-.15.55a1.32 1.32 0 0 1-.3.45 5.51 5.51 0 0 1-.45.4c-.167.133-.4.267-.7.4a16.09 16.09 0 0 1-1.5.699c-.533.2-1.133.4-1.8.601-.667.201-1.4.384-2.2.55-.767.166-1.616.334-2.55.5-.9.166-1.883.316-2.95.45-1.066.134-2.2.267-3.399.399-1.2.134-2.5.25-3.9.351-1.367.1-2.834.216-4.4.35l-2.899.2-2.25 2.1c-.4.4-.833.783-1.3 1.15a35.216 35.216 0 0 1-2.601 2c-.433.267-.884.533-1.35.8-.434.233-.884.467-1.351.7l-1.399.6c-.467.167-.967.334-1.5.5-.467.134-.967.268-1.5.4-.534.133-1.034.233-1.5.3-.467.067-.884.134-1.25.2h-.7c-.4 0-.733-.033-1-.1-.4-.134-.6-.351-.6-.65.033-.3.25-.65.649-1.05.2-.233.45-.467.75-.7.333-.267.7-.533 1.101-.8.3-.2.633-.434 1-.7l3.3-2.7c.3-.267.533-.483.7-.649l.149-.2.103-.101-41.601.2-12.7 2.25-22.5 6.7c-.399.1-.717.217-.949.35-.2.101-.4.25-.601.45-.167.167-.35.417-.55.75-.3.434-.65.866-1.05 1.3-.367.4-.767.783-1.2 1.15a15.155 15.155 0 0 1-2.95 1.95l-.8.399-.7.25c-.3.101-.566.167-.8.2l-.15-.05c-.232-.033-.416-.166-.55-.4-.134-.232-.217-.55-.25-.949 0-.467.033-.851.101-1.15.1-.367.266-.7.5-1l.649-.85-10.05-.351c-.533-.1-1.017-.183-1.45-.25-.399-.1-.717-.183-.95-.25-.199-.1-.316-.216-.35-.35.033-.134.15-.284.35-.45.2-.166.467-.35.801-.55.333-.2.717-.417 1.149-.65.467-.233.95-.45 1.45-.649.5-.234 1.017-.45 1.55-.65.533-.2 1.05-.383 1.55-.55a19.93 19.93 0 0 1 1.45-.4 18.932 18.932 0 0 1 3.15-.399l6.35-.25 3.4-2.851c.733-.6 1.483-1.2 2.25-1.8.8-.6 1.616-1.2 2.45-1.8a51.205 51.205 0 0 1 2.6-1.851c.9-.633 1.8-1.25 2.7-1.85.933-.6 1.85-1.2 2.75-1.8l2.8-1.7c.934-.567 1.85-1.1 2.75-1.6.9-.533 1.783-1.033 2.65-1.5.899-.5 1.75-.95 2.55-1.35l2.399-1.15a36.306 36.306 0 0 1 2.15-.95c.7-.267 1.35-.5 1.95-.7l6.399-2.75c.334-.2.65-.383.95-.55.601-.4 1.101-.784 1.5-1.15.434-.4.75-.783.95-1.15.233-.367.35-.7.35-1a1.087 1.087 0 0 0-.149-.7c-.067-.233-.25-.483-.55-.75-.268-.3-.65-.65-1.15-1.05l-1.95-1.55c-.566-.434-1.033-.8-1.399-1.1-.367-.333-.634-.633-.801-.9-.199-.267-.3-.483-.3-.65 0-.233.067-.417.2-.55.166-.2.4-.316.7-.35h.3c.3-.033.65-.017 1.05.05.402.034.918.134 1.551.301z" fill="#010101" fill-rule="evenodd"/></svg>