<svg xmlns="http://www.w3.org/2000/svg" width="454" height="380" viewBox="0 0 454 380"><path d="M60 361c-5.301.311-8.846 5.043-13 1-3.44 1.893-4.985 5.682-7 9-2.111 2.204-2.956-1.283-6-1-1.664 3.141 3.719 4.086 1 5-8.3.514-6.48-12.392-4-17-5.582-2.597-7.125 6.643-11 9-6.119-.063-11.372-2.782-13 3-5.902-2.099-6.344-9.656-6-18 5.596-6.07 14.191-9.143 19-16 5.159 1.903 12.776.512 18-2 4.618-2.221 6.461-2.765 10-7 2.74-3.278 7.99-16.096 8-24 .002-1.783-1.146-4.217-1-6 .165-2.021 1.575-3.844 2-6 2.275-11.546-.77-28.048 0-45 .42-9.245.959-19.818 3-29 .862-3.879 3.44-6.93 4-11 1.289-9.366-.931-19.427 0-28 .457-4.204 2.567-7.784 3-12 .268-2.608-.372-5.475 0-8 .409-2.775 1.87-5.421 2-8 .368-7.309-1.498-16.919-1-24 .255-3.624 1.47-7.147 1-9-1.459-5.749-8.286-7.62-12-12-4.351-.684-5.535 1.799-7 4-2.897-2.003 2.883-3.705 2-7-3.654-.271-7.327 4.606-8 4 .55-2.051-1.91-2.386-2-1-4.562-1.833 5.562-2.167 1-4-.164-2.831 6.164.831 6-2-1.231-6.822-5.738.839-9 1 .652-3.348 4.26-3.74 6-6-4.662 1.004-8.561 2.773-11 6-2.555-.526-3.5-1.326-5 1-1.289-3.064 4.057-4.318 7-6 3.459-1.977 8.364-2.284 9-6-3.062-4.471-9.906 2.103-14 3 1.067-2.267 3.033-3.634 6-4-.965-2.035-3.84-2.16-7-2-1.031-2.077 10.114-.519 14-1-2.921-2.079-9.628-.372-13-2 2.367-2.3 8.975-.358 13-1-.228-4.105-4.876-3.791-9-4 1.11-4.028 5.503.406 10-1-3.553-6.364-13.291-3.198-19-1 1.57-2.43 4.254-3.746 8-4-.56-1.44-1.56-2.44-3-3 2.998-2.932 5.457 3.161 10 2 2.961-1.755-3.831-2.075-3-5 5.023-.792 4.977 3.61 10 5 3.658-7.8-5.07-7.905-4-16-9.311-1.023-12.352-8.315-20-11-3.558-11.442-14.642-15.358-13-32C17.974 1.393 29.175 1.611 42 5c7.671 2.027 18.784 9.639 25 9 4.415-.454 7.216-5.515 12-8 1.373-.713 3.948-1.142 6-2 9.385-3.927 27.221-2.434 41-2 3.678.116 7.577-1.037 11-1 16.992.183 33.64 3.736 46 12 8.382-3.037 23.708-12.577 39-8 7.2 2.155 10.614 9.366 15 14 1.529 18.348-8.139 25.594-14 38-2.116 4.479-6.322 12.59-4 19 2.566 3.808 6.879 4.716 10 8 4.812 5.063 7.799 12.464 12 18 2.234 2.943 5.113 6.3 8 9 1.288 1.205 3.557 1.691 5 3 1.338 1.213 1.869 4.03 3 5 1.889 1.622 5.742.792 6 4 12.54 1.793 22.852 5.815 28 15 6.206 2.882 12.268 5.76 17 10 7.177 6.431 10.375 17.003 19 22 6.439 11.561 1.153 34.847 11 43 9.587 2.413 17.807 6.193 25 11 8.018-2.287 9.234-13.067 23-12 2.654.206 3.556 1.833 6 2 9.892.678 20.763-.01 30 3 1.231.401 1.299 2.192 3 3 2.591 1.229 6.194.547 7 1 3.733 2.1 5.05 6.54 8 7 1.932 9.068 8.639 13.361 13 20 1.276 10.942-4.155 15.179-6 23-12.057 6.888-27.817 16.491-48 14-5.911-.729-15.973-2.947-25-3-7.365-.043-15.003 1.559-22 1-7.467-.596-18.275-5.071-24 1-.768.813-1.318 3.361-3 5-2.647 2.581-6.352 3.619-8 6-.733 1.059.184 3.666-1 6-.816 1.61-2.605 1.64-3 3-5.359 18.496 6.139 21.926 22 26 1.188 3.145 3.376 5.291 4 9-.804 3.863-6.008 3.325-8 6-3.059.726-2.941-1.726-6-1-1.354.979-1.296 3.371-3 4-10.271 2.721-17.34 8.597-29 8-5.824-.298-11.713-3.237-18-4-12.95-1.57-26.696.358-40-2-5.549-18.212 25.803-7.29 35-14 1.012-6.604-1.14-11.91-2-18-1.344-9.508.359-16.417-5-21-20.968-1.232-25.94 7.94-38 20-2.39 2.391-4.601 5.351-7 8-3.93 4.34-6.006 6.118-9 11-1.642 2.677-2.28 7.441-4 12 .344 3.208 3.091 4.407 6 6 4.958 2.715 6.95 1.759 10 7 1.813 3.115 1.796 6.201 1 11-2.477-1.523-1.787-6.213-6-6-5.345.988-9.031 3.636-11 8-2.738 2.238-4.934-2.471-8-3-4.963.713-5.333.811-9-1-2.938 3.894-8.611 2.289-13 4-3.488 1.359-5.414 4.823-9 5-3.27-.396-6.465-.868-7-4-5.897 1.29-13.199-.964-20 0-4.802.681-8.429 5.351-12 3-.438-3.438.395-5.604 1-8-2.926-.644-7.79 2.12-11-2-4.31-1.31-1.239 4.761-5 4-1.235-6.37 1.008-12.696 7-15 6.208-2.388 16.568.687 23-2 1.231-3.702 1.449-6.546 3-10 1.679-3.74 3.658-5.243 5-10 .344-1.218.209-3.456 0-3 1.213-2.646 4.329-4.831 6-8 .853-1.617.27-4.243 1-6 2.669-6.423 16.585-17.628 10-26-13.652-.985-9.988 15.346-16 22 .045 3.288 4.274 2.393 4 6-.757 5.243-3.988 8.012-7 11-14.181-4.343-36.531 1.737-49-6-4.949 1.051-7.391 4.609-13 5-4.447 1.554-2.583 9.417-7 11 2.864 10.521-7.531 14.664-8 25-.184.851.39.943 1 1-2.257.225-8.542-4.1-12-6zm50-76c-2.854 3.981-11.231 12.672-11 16 .216 3.114 6.027 8.631 10 9 5.662.526 15.845-6.907 17-12 .274-1.21-.633-5.499-1-8-1.144-7.795-2.264-10.714-4-16h-3c-3.907 3.869-4.801 6.538-8 11z" fill-rule="evenodd"/></svg>