<svg xmlns="http://www.w3.org/2000/svg" xmlns:dc="http://dublincore.org/documents/dcmi-terms/" height="455" viewBox="0 0 760 455" width="760"><metadata><dc:description>Silhouette of Phacochoerini, processed by PhyloPic Tools (https://github.com/eweitz/phylopic-tools)</dc:description><dc:source>http://phylopic.org/image/b1a641cd-25df-4dd0-865f-1a2728bd267e</dc:source><dc:creator>Steven Traver</dc:creator><dc:license>http://creativecommons.org/publicdomain/zero/1.0/</dc:license></metadata><path d="M605 61c3.988-1.37 12.446-3.521 17-1-5.763-.096-11.477-.144-15 2 9.379.712 16.278-1.055 25-1 1.2 1.313.39 1.573 0 3 8.38 2.157 17.702-1.925 26 1-3.039.627-8.613-1.28-10 1 4.554 1.869 12.958-.531 17 2-1.331-.833-3.057.985-3 1 8.211 2.23 14.436-.124 22 5-3.062.004-7.248-4.008-10-1 5.433 2.684 17.236 1.652 22 2-1.078 2.922-8.922-.922-10 2 15.199 6.467 30.787 12.546 41 24 5.178 1.156 8.954 3.713 11 8-2.754-1.913-4.896-4.438-8-6 4.806 9.532 17.343 16.651 21 24-2.039-.294-1.961-2.706-4-3-.619 3.677 6.276 4.98 4 7-6.876-2.415-5.031-12.828-11-13 1.088 2.66 7.164 4.993 3 7 2.91 3.392 9.828 5.945 8 11-1.768-.898-2.919-2.414-5-3-.388 5.084 7.423 7.203 6 10-1.44.534-2.44-3.897-3-1 1.785 4.08 4.637 9.174 7 13-2.013-1.987-3.27-4.73-6-6 .44 5.226 4.29 7.043 5 12-2.055.872-1.996-5.088-3-2 1.035 4.197 3.965.704 5 4-1.162-.163-1.779.221-2 1 2.081.586 3.232 2.102 5 3v1c-1.615.282-1.722-.945-3-1-.409 2.409 1.826 2.174 1 5-.973-.073-3.344-7.289-5-10-1.657 3.36.508 11.465 4 13-.406 2.491-3.877.06-3-2-3.222 7.905 1.724 16.264 4 22-1.772.399-4.639-6.665-5-11-2.295 2.039-.362 8.305-1 12-2.191 10.334-.352-3.944-1-4-1.965-.169-1.188 7.902 0 11-6.018-.739-1.74 7.276-2 10-1.342-.658-1.862-2.138-2-4-3.732 5.106 5.493 5.81 5 11-2.846-3.345-3.647-3.218-7-5-.746 18.587-10.556 28.111-11 47-2.348.319-2.238 3.095-4 4-5.072 19.98-12.16 38.136-2 57 1.244 2.756 5.107 2.893 7 5-3.205 17.037-6.597 36.881-11 55-1.707 7.025-5.278 14.658-6 21-1.562 13.729 5.922 26.98 4 42-6.96 12.253-31.475 7.387-47 6 1.996-12.338 8.284-20.383 15-28-.429-1.904-2.154-2.513-2-5 6.826-22.432 14.219-46.409 5-67-4.298-9.6-11.916-15.527-14-29-2.915-18.84-15.504-35.404-21-51-8.324-.343-7.508-9.826-15-11-4.54.193-7.688 19.308-7 27 1.557 17.419 16.957 33.409 25 43-.392 9.899-6.081 12.885-11 19-9.797 12.18-16.904 29.299-27 38-1.045.9-3.078 1.347-4 2-11.431 8.096-15.376 22.821-26 33-1.711-.044-2.59.743-3 2-1.615.282-1.722-.945-3-1-2.656 3.01-5.928 5.405-9 8 .549 6.882-2.712 9.955-4 15-10.204 1.796-21.645 2.355-31 5-.733-.934-1.818-1.515-3-2-1.125-7.514 7.15-9.111 12-14 8.718-8.788 12.194-25.045 22-31 2.239-16.238 23.885-34.449 34-48 6.842-9.166-1.164-25.868-13-26-5.55-5.783-8.741-13.926-15-19-11.084 3.916-23.265 6.735-32 13-4.339-.661-4.001-5.999-7-8-19.813 1.87-41.594-6.16-61-8-15.687-1.487-25.43-13.713-44-12-1.334-1.666-4.447-1.553-6-3-5.305 1.545-13.383-.74-19-2 6.951 26.715.809 66.524 18 83 6.149 1.184 9.779 4.887 15 7 1.639 5.76 8.748 7.772 13 13 4.682 5.756 10.03 13.994 4 20-3.155-.845-2.845-5.155-6-6-4.441 7.769 8.65 14.443 6 27-3.74 9.26-16.313 9.688-28 11-1.614-1.386-3.166-2.834-5-4 1.992-10.48 3.672-16.045 5-26-6.671-6.21-8.362-13.116-14-19-4.436-4.63-13.01-11.871-19-14-5.669-2.014-11.989-3.677-16-8-9.098-9.807-15.192-25.523-22-38-10.893 8.107-16.57 21.43-27 30-5.467 16.866-19.874 24.793-24 43 1.521 4.146 2.53 8.803 2 15-4.585 1.414-6.494 5.506-7 11-3.156-.489-3.531 1.802-7 1-.725-3.059 1.725-2.941 1-6-5.687 3.989-10.602 14.314-23 14-6.912-.175-11.319-3.347-17-7v-6c14.785-8.882 21.183-26.15 30-41 .946-15.779-3.122-29.544 1-45 .007-.027.717-2.437 1-3 8.714-17.364 18.967-33.461 23-56-9.235-2.238-18.553-7.438-26-1 .167 2.833 1.833 4.167 2 7-2.137-3.98-5.735-2.358-6 3-3.447-4.964-8.031 2.246-13 2 1.144-3.007 3.712-2.425 6-6-7.22 2.55-11.373 7.281-17 9-1.401-.354-.086-1.761 1-2-5.02-1.934-6.518-.899-14 0 .897-2.104 1.554-4.445 3-6-4.952.715-4.984 6.349-9 8 .429-1.904 2.154-2.513 2-5-3.419-1.813-4.655 1.146-9 1 .845-2.154 4.387-1.613 6-3a8.998 8.998 0 0 0-4-4c-2.007-.34-3.129.205-3 2-.934-1.712-4.074-2.015-2-4-3.078-.745-1.922 2.745-5 2 1.982-1.367 3.982-5.724 6-4-2.612-5.298-4.06 3.462-8 3 7.283-4.986.423-9.578-8-7-.144-3.584 2.564.103 5-2-1.876-5.087-7.553-2.831-14-5-4.125-1.388-4.611-6.254-8-8-5.62-.047-11.888.555-15-2-5.853 2.813-12.176 5.157-21 5-2.416 2.323 1.562 2.677 2 5 1.928 2.514-2.623-2.508-4-3-3.315.352-4.338 2.995-6 5-2.872-2.295 2.971-4.295 4-6-9.408 4.926-18.235 10.432-32 11-7.423 10.045-16.558 18.208-33 20-12.926 1.409-28.954 1.253-41-1-2.127-8.664-34.862-16.937-19-25 .483-1.322-4.584-.062-5 1-2.704-.898 2.109-2.414 3-3-7.568-7.099-16.122-13.211-23-21-1.025-11.642-8.202-17.131-10-28v-13c1.536-9.139 6.964-19.692 13-21-3.506 21.275 6.384 37.54 20 45 7.242-7.04 19.559-8.571 26-17 2.111-2.763 1.941-7.432 4-10 3.506-4.374 8.444-4.008 11-8 1.583-.083 3.814.481 4-1-2.874.207-5.08-.253-6-2 4.154 1.121 8.628 1.079 12-1-2.48.147-4.853.186-5-2 .694.783 5.58 2.226 6 0-2.483.15-4.15-.517-5-2 3.916.604 8.691 3.848 10-1-1.753-.276-4.99 2.816-6 0 1.325-2.626 4.375-1.974 4-4 .089 1.368 7.193 1.368 4 0-1.419.086-2.832.165-3-1 2.537.442 7.234-1.972 5-3-.325 2.13-4.362-.161-5-1 3.035-.061 4.695-4.077 7-6 .945-.789 6.145-.533 3-3-.904.877-5.645 2.866-6 1 2.281-2.068 11.513-1.553 5-4h4c1.602-3.936-4.319-.348-4-3 2.612.279 5.004.338 4-3-7.71-1.29-15.823-2.177-16-11 3.96-10.04 20.659-7.341 22-20-3.695-.638-9.961 1.295-12-1 3.695-.638 9.961 1.295 12-1-6.065-.602-10.698-2.636-16-4 6.063-.839 22.689 2.103 17-2v-1h-1c-.112-2.555-3.349-1.985-6-2l-.5-1.5.5-1.5c.615-.89 1.208-1.789 0-2l.5-1.5-1.5-.5v-2l2-1.5-2-1.5c.19-.81 1.003-.997 1-2l3.5-.5-2.5-2.5c-.449-5.107 2.416-7.318 1-11-2.543 2.154-4.596 10.03-7 9 .875-3.733 8.327-10.629 7-10-3.415 2.585-6.585 5.415-10 8 .311-2.422 6.154-4.422 4-6-2.553 1.486-8.578 4.704-12 2 5.706-.294 11.936-.064 12-6l.167-2.167L97 89c.184-.851-.39-.943-1-1l-.5-.5-.5-.5c-.729-2.729 1.987-2.013 2-4-6.075-.055-14.062 3.244-18 2 5.482-3.185 17.329-.004 20-6-3.781-.398-8.585 3.348-11 1 3.811-2.189 11.667-.333 14-4-1.862-.956-3.342 2.995-4 0 1.78-.553 4.153-.514 5-2-3.546-.595-2.627 1.153-6-2-1.875 1.125-2.125 3.875-4 5 1.34-3.817 2.812-5.875 0-9 2.397 3.589 10.779-.235 11-1-1.758-.575-5.875 1.208-6-1h9c1.01-2.7 4.842-7.767 2-11-1.412 3.615-7.707 7.59-12 5 5.137-.197 9.13-1.537 11-5-2.408-.313-4.842 4.363-7 1 2.483.15 4.15-.517 5-2-1.583-.083-3.814.481-4-1 1.453-.547 5.168 1.168 5-1-1.462-2.205-7.92.587-8-3 .694.783 5.58 2.226 6 0-3.542-.125-5.691-1.643-8-3 2.48-1.298 4.853 2.231 5 0-3.555-2.778-8.813-3.854-12-7 .426-3.634 6.724-.681 7-2-.795-.111-3.031-3.306-1-3 1.806 4.546 10.015 7.96 15 6-1.794-2.244-5.493-7.789-3-11 .135 5.531 2.847 8.486 4 13 8.812 1.188 16.716 3.284 23 7-.34-2.007.205-3.129 2-3-1.774 6.321 4.691 11.634 6 6-.938 6.614 1.218 4.926 3 5 .311 2.614-1.11 9.126 2 6l3.5-.5.5-3.5c1.265-4.272 8.438-6.331 7-7-1.44-.534-2.44 3.897-3 1 1.28-2.72 4.848-3.152 6-6l3-.167L166 44c5.549-1.785 8.645-6.021 12-10l1.5-.5-1.5-.5c4.467-6.866 8.045-14.621 15-19-2.729 4.952-10.574 10.075-10 15 3.532-2.609 5.801-8.55 12-11-2.012 3.015-8.884 6.413-7 10 1.603-1.322 3.737-4.278 6-2 4.151-5.849 7.704-12.296 14-16-3.56 3.788-9.596 10.385-10 14 7.14-4.201 12.718-15.273 21-15-4.928 2.088-12.825 6.487-12 11 2.666-2.668 5.909-4.758 10-6-.319 2.348-3.095 2.238-4 4 9.568-1.098 14.688-6.646 21-11-1.314 3.353-5.179 4.154-7 7 1.583.083 3.814-.481 4 1-3.499-.166-6.401.266-8 2 13.561.561 21.017-4.983 29-10-.827 2.507-3.503 3.163-5 5h9c-.354 1.313-1.761 1.573-2 3 7.463 2.48 11.402-2.126 15-2-2.834 2.543.957 1.937-3 5 4.939-1.878 3.32-5.825 11-6l-.5 1.5 1.5.5c-.184.851.39.943 1 1l-.5 3.5L281 16c9.919-1.081 15.637-6.363 23-10-2.618 3.716-7.496 5.17-11 8 9.129 1.129 11.066-4.934 18-6-1.587 3.413-6.879 3.121-9 6 8.835-1.173 15.428-9.894 22-10-2.785 3.215-8.755 3.245-11 7 6.94.274 10.152-3.182 13-7 .856 2.333-3.497 4.309-1 5 3.948-3.052 8.14-5.86 13-8-4.705 4.961-12.093 7.24-17 12 10.424 1.414 13.617-9.702 21-8-3.141-.474-4.086 1.247-5 3 .386 1.158 4.857 1.158 2 0-2.715-.27 4.844-3.6 5-1-1.113 2.27-6.826 5.107-9 3 1.163.163 1.779-.221 2-1-1.615-.282-1.722.945-3 1-.851-.184-.943.39-1 1 6.018 7.296 14.266-5.39 21-3-5.342 2.006-15.261 4.72-15 9 1.022-2.312 4.598-2.069 8-2l.833.833L349 16c2.391.609 7.255-1.255 8 1-2.141.271-10.668-.774-8 1 9.388.553 18.55 2.254 26 2-.112 2.555-3.349 1.985-6 2 3.576 6.892 23.194.334 26 5-5.955-.052-3.139 2.723-7 4 13.444-2.022 22.111.378 31 5-8.08-1.774-15.06-3.76-23-2 4.072 3.595 13.975 1.359 18 5-1.862.956-3.342-2.995-4 0 14.849 2.485 27.692 6.974 42 10-1.584.083-3.814-.481-4 1 1.862.138 3.342.658 4 2l-1.5 3.5L454 54c7.543-.21 14.748-.082 18 4-4.551-.808-10.622-5.345-16-2 9.056 3.611 22.362 2.971 33 5l-.5 1.5 1.5-.5c3.611 5.657 15.881-1.899 19 0-1.313 1.02-3.687.98-5 2-1.226-.319-6.177.161-3 1 6.413 1.421 13.118-5.292 17 0-2.818-2.089-8.805-.662-11 1 11.895 4.927 23.798-2.603 36 1-4.1-.1-8.196-.197-11 1h-3c-1.162-.163-1.779.221-2 1h16c3.987-3.679 8.174-7.159 13-10-2.42 4.58-8.368 5.632-11 10 5.26-1.424 12.961-5.683 17-5-2.451 1.587-10.855 2.427-9 5 7.17-2.173 16.437-7.551 22-8-2.951 1.328-14.72 9.675-11 5-2.555.445-4.598 1.402-6 3 3.073-1.422 4.497-.449 7 1 1.868-3.127 6.683-5.223 9-5-.867-1.889 7.756-2.421 11-1 2.158-2.175 3.442-5.224 5-8 .319 2.319-.161 3.839-1 5l-.5 1 .5 1c2.618.916 10.72-1.253 15-2l.5 3.5.5-3.5zM426 46c3.495.872 10.113 3.841 14 1-3.495-.872-10.113-3.841-14-1zM96 87c4.283-1.05 7.879-2.788 11-5-5.796-.463-10.624.043-11 5zm212-72c4.239.239 7.921-.079 9-3-4.239-.239-7.921.079-9 3zm-6 0c-3.154-.078-10.229 4.21-6 0-1.915.818-9.939.638-8 2 5.944-.111 11.303 2.713 14-2zm-49 3c1.015-3.427-7.512-2.382-8-1 3.22-.22 4.231 1.769 8 1zm-32 2c2.177 1.883 7.038.388 8-2-3.402-.069-6.978-.312-8 2zm167 7c-1.266-1.147-7.885-2.009-9 0 2.004.408 7.417 2.477 9 0zm10 9c-1.574-.52-5.355-3.85-7-1 2.562-.467 5.669 3.537 7 1zm51 15c-2.942.209-6.625-3.952-9-1 3.438-.704 6.025 4.552 9 1zM100 81h7c1.835-3.704-5.255-6.187-3-4 2.406 1.2-4.686 1.22-4 4zm0 15c.646-2.412 7.286-3.971 5-6-1.794 1.263-8.14 3.116-5 6zm5 21c.858-3.142 5.778-2.222 6-6-2.929.454-7.204 4.729-6 6zm-1 4c1.786-1.214 5.817-.183 7-2-.776-.224-1.973-.027-2-1 .61-.057 1.184-.149 1-1-3.766.186-4.554 1.795-6 2 1.208.211.615 1.11 0 2zm7 4c-1.666-1.987.09-1.271 0-4-1.105 1.307-9.471.422-7 2 3.546-1.134 6.339 3.555 7 2zm140 172c2.651-.016 5.888.555 6-2-2.651.016-5.888-.555-6 2z" fill-rule="evenodd"/><g fill="none" stroke="#000" stroke-linecap="round"><path d="M100.5 122.5c-1.328.938-2.697.925-4.004.687-.386-.852.065-1.691.262-2.377 2.377-.234 3.495-2.73 5.742-3.31" stroke-width="1.491"/><path d="M98.167 90.833c-3.822.652-8.102 3.731-11.816 2.105 1.325-1.885 3.951-2.494 4.868-4.703 1.437-.229 2.786-.867 4.282-.735" stroke-width="2.098"/><path d="M151.5 62.5c-4.252-4.576-.371-12.805 5-14" stroke-width="1.493"/><path d="M156.5 48.5c2.61-.957 5.585-3.476 8.5-1.667" stroke-width="1.633"/><path d="M165 46.833c.654-7.133 8.812-10.602 14.5-13.333" stroke-width="1.43"/><path d="M276.5 13.5c1.733-1.004 3.642-.936 4.955-2.496.237-.207.47-.471.702-.737.871-.305 2.973-.683 4.297.629.349 2.146-2.092 2.258-3.162 3.395-2.729-.471-3.657 2.332-4.791 4.209" stroke-width="1.711"/><path d="M347.833 15.833l.107-.391c5.794-2.145 13.834-.031 19.56-3.943" stroke-width="1.298"/><path d="M477.5 54.5c-8.384-1.629-19.835-6.796-27 1" stroke-width="1.281"/><path d="M500.5 37.5c-2.177 8.497-5.23 18.995-12 25" stroke-width="1.215"/><path d="M588.5 62c5.011-1.653 10.239-3.387 15.694-2.211.153.907.231 2.786.306 4.711" stroke-width="1.246"/><path d="M100.5 122.5h1" stroke-width="3.082"/><path d="M105.5 109.5c-5.2-2.44-10.879 2.09-14.237 5.475 3.934 1.708 7.638-2.055 11.737-1.475" stroke-width="1.841"/><path d="M151.5 62.5c-1.478-5.732 4.243-9.081 5-14" stroke-width="1.176"/><path d="M100.5 122.5c.07 1.329-.083 3.425-.251 4.445 2.735 1.176 6.242.717 8.751-.945" stroke-width="1.285"/></g></svg>