<svg xmlns="http://www.w3.org/2000/svg" xmlns:dc="http://dublincore.org/documents/dcmi-terms/" height="792" version="1.2" viewBox="0 0 612 792" width="612"><metadata><dc:description>Silhouette of Phocoena spinipinnis, processed by PhyloPic Tools (https://github.com/eweitz/phylopic-tools)</dc:description><dc:source>http://phylopic.org/image/2145ea56-330a-4b6a-9b07-6d5ede63d959</dc:source><dc:creator>Chris huh</dc:creator><dc:license>http://creativecommons.org/licenses/by-sa/3.0/</dc:license></metadata><path d="M351.75 396.35a5.055 5.055 0 0 1 .849 2.8v.649a.88.88 0 0 1-.1.4.488.488 0 0 1-.2.25l-.45.3c-.233.1-.5.217-.8.35-.3.134-.634.267-1 .4-.367.1-.767.217-1.2.35l-15.4 2.45c-.399.101-.699.2-.899.3-.2.101-.417.25-.65.45-.566.434-1.149.834-1.75 1.2-.6.366-1.233.717-1.899 1.05-.634.334-1.284.617-1.95.851-.667.233-1.334.449-2 .649l-1.5.25a12.63 12.63 0 0 1-1.55.101h-.301c-.366 0-.716-.017-1.05-.051-.399-.033-.684-.1-.85-.199l-.2-.2a.563.563 0 0 0-.1-.15c0-.1.017-.184.05-.25l.3-.899h-.9c-.199 0-.383-.017-.55-.051a8.925 8.925 0 0 1-.45-.1 1.175 1.175 0 0 1-.3-.2c-.233-.2-.333-.366-.3-.5.033-.1.083-.217.15-.35.066-.167.166-.334.3-.5l.45-.65-16.9-2.55-15-1.75-9.05 1.8c-.5.066-1.05.117-1.65.15l-5.95.1-1.55 1.4c-.7.666-1.383 1.267-2.05 1.8a24.143 24.143 0 0 1-1.9 1.45c-.6.399-1.149.717-1.649.95-.5.267-.95.433-1.351.5-.166.033-.333.05-.5.05-.199 0-.35-.05-.449-.15a.61.61 0 0 1 0-.35c.066-.167.166-.351.3-.55.233-.301.434-.584.6-.851.167-.3.3-.6.4-.899.133-.301.25-.617.35-.95.101-.367.167-.717.2-1.05l.35-1.65.15-.3.149-.2a.214.214 0 0 0 0-.2c-.034 0-.101-.033-.2-.1l-.351-.25-.35-.351c-.2-.267-.417-.449-.65-.55a1.594 1.594 0 0 0-.699-.25l-.75-.2a.547.547 0 0 1-.15-.1.33.33 0 0 1 .05-.3c.101-.134.233-.25.4-.351.2-.133.416-.267.649-.399.233-.134.5-.267.801-.4.3-.133.583-.25.85-.35.333-.134.616-.233.85-.3.267-.067.551-.117.851-.15.3-.033.649-.05 1.05-.05l4.3-.05 4.601-3.551 3.05-1.85c.5-.267.983-.533 1.45-.8a20.014 20.014 0 0 0 2.5-1.9c.366-.3.683-.6.949-.899.301-.301.517-.567.65-.801.167-.233.25-.416.25-.55l-.05-.2-.15-.25-.149-.399-.2-.351c-.367-.666-.483-1.216-.351-1.649.101-.3.334-.55.7-.75.167-.101.4-.167.7-.2.333-.066.7-.1 1.1-.1l3.051.05c.566.033 1.149.1 1.75.2l3.449.55c.467.066.917.116 1.351.149l23.649.25 9.351 1.301 14.7 3.8a37.01 37.01 0 0 1 2.05.75 19.33 19.33 0 0 1 1.85.75c.601.233 1.134.467 1.601.7.5.233.949.466 1.35.699.3.167.566.351.8.551.3.199.566.399.8.6.5.4.934.816 1.301 1.25.395.435.729.885.996 1.351z" fill="#010101" fill-rule="evenodd"/></svg>