<svg xmlns="http://www.w3.org/2000/svg" xmlns:dc="http://dublincore.org/documents/dcmi-terms/" height="792" version="1.2" viewBox="0 0 612 792" width="612"><metadata><dc:description>Silhouette of Phocoena phocoena, processed by PhyloPic Tools (https://github.com/eweitz/phylopic-tools)</dc:description><dc:source>http://phylopic.org/image/970f7e8d-a823-45b9-85b9-767704d0c13f</dc:source><dc:creator>Chris huh</dc:creator><dc:license>http://creativecommons.org/licenses/by-sa/3.0/</dc:license></metadata><path d="M261.3 403.9l5.55-.7 1.55-1.351c.434-.399.867-.783 1.3-1.149.467-.4.95-.783 1.45-1.15l1.5-1.1a75.007 75.007 0 0 1 1.65-1.101 46.533 46.533 0 0 1 1.7-1.05c.6-.366 1.199-.717 1.8-1.05l5.899-2.95 8-3.149L299 387.1a62.414 62.414 0 0 0 1.8-.5 55.039 55.039 0 0 0 1.5-.55c.467-.166.883-.333 1.25-.5a6.57 6.57 0 0 0 1-.6c.6-.4 1.05-.816 1.35-1.25.134-.267.25-.517.351-.75.1-.267.166-.55.199-.851.167-1.233.567-1.983 1.2-2.25.2-.1.417-.133.65-.1.3-.033.616.017.95.15.333.1.699.267 1.1.5.566.3 1.1.583 1.6.85l1.5.75c.467.2.934.384 1.4.55.5.167 1 .316 1.5.45s1.033.25 1.6.35c.601.134 1.233.25 1.9.351l4.95.55a52.4 52.4 0 0 1 3.7.4c1.166.133 2.25.283 3.25.449 1 .167 1.933.351 2.8.551.934.199 1.8.433 2.6.699.8.233 1.584.517 2.351.851.8.3 1.566.633 2.3 1 .733.366 1.483.767 2.25 1.2.767.433 1.55.916 2.35 1.449l3.5 2.4c.467.333.884.65 1.25.95.367.267.667.533.9.8.533.5.899 1 1.1 1.5.134.233.233.5.3.8.101.233.15.5.15.8.066.334.083.617.05.851.033.233.017.45-.05.649a1.75 1.75 0 0 1-.15.45c-.233.434-.767.833-1.6 1.2-.4.167-.85.333-1.35.5-.5.133-1.051.25-1.65.35l-2.35.45-.351.101c-.267.1-.666.217-1.2.35l-.85.15-8 .75-1.4 1.35c-.233.233-.483.45-.75.65-.233.199-.5.399-.8.6-.3.201-.6.383-.899.55-.334.167-.667.351-1 .55-.334.134-.7.283-1.101.45l-1.2.45c-.399.133-.733.25-1 .35-.3.067-.55.101-.75.101a.696.696 0 0 1-.399-.101.732.732 0 0 1-.2-.35c0-.066-.033-.117-.1-.15h-.101l-.25.051c-.133.033-.366.133-.7.3l-2.5 1.2c-.333.166-.633.3-.899.399a6.614 6.614 0 0 1-.8.15c-.267 0-.584.017-.95.05h-.2a20.903 20.903 0 0 1-1.1-.1c-.301-.033-.483-.101-.551-.2v-.1l.051-.1.149-.15c.101-.166.25-.366.45-.6l4-4.05-.95.149-9.7.551-11.149-.65a62.989 62.989 0 0 0-4.2-.35c-1.366-.101-2.7-.15-4-.15h-.5a36.15 36.15 0 0 0-3.9.2c-1.267.066-2.449.2-3.55.399L280 406.2l-8.5.45-.4 1.1c-.2.5-.434.983-.7 1.45-.233.433-.483.85-.75 1.25-.267.399-.566.75-.899 1.05-.301.3-.617.55-.95.75l-.351.25-.3.15-.2.05h-.05l-.05-.15-.05-1a2.111 2.111 0 0 0 0-.649 1.785 1.785 0 0 0-.15-.5c-.033-.167-.133-.334-.3-.5a4.375 4.375 0 0 0-.55-.65 5.92 5.92 0 0 0-.65-.65c-.2-.199-.383-.333-.55-.399a.726.726 0 0 0-.45-.15l-.45-.05-5.7-1.552a4.19 4.19 0 0 0-.551-.05l-.449-.05a1.492 1.492 0 0 0-.351-.05.769.769 0 0 1-.149-.2c.033-.066.116-.149.25-.25a2.37 2.37 0 0 1 .649-.35l.851-.45 2.1-.85c.333-.134.65-.233.95-.3z" fill="#010101" fill-rule="evenodd"/></svg>