<svg xmlns="http://www.w3.org/2000/svg" xmlns:dc="http://dublincore.org/documents/dcmi-terms/" height="42.848" version="1.2" viewBox="0 0 115.721 42.848" width="115.721" overflow="inherit"><metadata><dc:description>Silhouette of Neognathae, processed by PhyloPic Tools (https://github.com/eweitz/phylopic-tools)</dc:description><dc:source>http://phylopic.org/image/41440b20-a497-417d-8f11-87428a867fc8</dc:source><dc:license>http://creativecommons.org/publicdomain/mark/1.0/</dc:license></metadata><path d="M39.263 0h-.492c-.532 2.704.298 5.406.099 7.872-.085 1.05-.497 2.516-.099 4.035.242.924.729 1.881.984 2.854.301 1.147.333 2.543.787 3.247.499.775 2.33 1.44 3.148 2.066 1.804 1.381 3.19 3.058 4.33 5.313.614 1.217 1.662 3.403.688 4.625-.785.986-2.165 1.242-2.952 1.87-.95.757-1.534 1.611-2.46 2.165-1.063.636-2.741.988-4.231 1.476-2.55.833-4.877 1.153-8.266.984-2.121-.106-4.438-.642-6.691-.886-2.357-.256-4.84-.225-6.789-.689-1.204-.286-2.08-1.081-3.149-1.476-1.062-.393-2.544-.665-3.641-.787-1.463-.164-2.864.286-4.133.295-.571.005-1.082-.157-1.574-.099-.328.039-.48.281-.886.395-.404.112-.721-.063-.984.098-.561.344-1.133 1.562-1.574 2.264-.506.804-.88 1.654-1.378 2.361v.886c.765.663 1.171-.374 1.771-.886.785-.668 2.012-.987 2.165-1.574 1.677.225 3.189.537 4.526 1.279.684.38 1.093 1.049 1.968 1.082 2.751.104 5.346-1.224 8.561-1.082 2.931.129 6.01.419 8.955 1.082 4.461 1.005 8.669 1.566 13.481.787 2.568-.416 6.517-.48 8.954.296.756.24 1.416.774 2.066 1.082 3.113 1.473 7.307 2.089 12.301 1.87 4.447-.196 8.604-1.424 12.595-2.461 1.71-.443 3.61-1.336 5.708-.983.844.142 1.42.681 2.263.787.996.126 2.057-.097 3.051-.099 2.474-.005 5.118.389 7.773.591 6.272.476 13.119 1.103 19.483.492-.047-.55-.722-.625.099-.788v-.295c-.897-.022-1.438-.804-2.263-1.181-2.056-.939-4.316-.691-6.495.099-.524-.09-.39.866-.787.59-4.529-.314-9.903-.132-14.17-.59-1.763-.189-3.64-.284-4.92-.787-.844-.332-1.618-1.108-2.46-1.378-3.119-.998-6.068-2.046-9.053-3.051.125-.694.941-.698.885-1.574.027.09.367.331.395.099-.014-1.597 1.271-1.929 2.066-2.756.463-.482.914-1.111 1.476-1.672.566-.567 1.265-1.161 1.476-1.673.348-.843-.016-2.217.689-3.051.037-.366-.398-.258-.295-.689.245-.254.604-.444.787-.787.643-1.203 1.121-4.35.688-6.002-.204-.778-1.069-1.323-.591-2.066-.354.058-.66.166-.984 0-.281-.44-.155-1.287-.59-1.575-1.766-.892-2.301 1.005-3.641 1.181.18-.706 2.211-2.495.59-3.248-1.279.823-1.877 2.843-3.148 3.346.503-.856 1.93-4.512-.197-4.822-.879 2.504-1.434 5.131-2.951 6.987-.626.765-1.535 1.159-1.969 1.968-2.148.869-3.854 2.181-5.412 3.641-.879-1.154-2.868-1.199-3.738-2.362.47-.036.988.267 1.377 0-.91-1.55-2.939-1.738-4.133-3.149-.418-.494-.561-1.253-.984-1.87-.703-1.025-1.858-2.038-2.755-3.247-.9-1.214-1.754-2.283-2.854-3.248-2.103-1.843-5.243-4.951-8.758-4.428-.243-.882-.351-1.571-1.181-1.87-.434-.156-.951.025-1.378-.099-.543-.156-.699-.684-1.179-.785z" fill-rule="evenodd"/></svg>