<svg xmlns="http://www.w3.org/2000/svg" xmlns:dc="http://dublincore.org/documents/dcmi-terms/" height="149.673" version="1.2" viewBox="0 0 1157.357 149.673" width="1157.357" overflow="inherit"><metadata><dc:description>Silhouette of Pholidosaurus + Thalattosuchus, processed by PhyloPic Tools (https://github.com/eweitz/phylopic-tools)</dc:description><dc:source>http://phylopic.org/image/4ccc79d0-af44-40bd-b76b-7e355fc4e4ae</dc:source><dc:creator>Smokeybjb</dc:creator><dc:license>http://creativecommons.org/licenses/by-sa/3.0/</dc:license></metadata><path d="M433.218.016c4.905-.297 8.488 3.583 13.281 1.875C453.675-.665 459.794.82 463.53.86c4.918.052 10.295 3.465 14.875 1.531 5.543-2.34 12.239 1.329 18.125-.094 4.918-1.188 22.274 6.493 42.688 3.875 10.698-1.372 14.216 1.568 30.875 4.656 10.417 1.931 18.547.753 28.281 2.594 8.087 1.529 16.423 4.158 23.75 5.312 4.375.689 8.69 3.674 12.969 4.344 3.839.601 7.176-1.585 10.938-1 2.859.445 6.153 3.658 8.969 4.094 2.918.453 6.285-2.349 9.156-1.906 3.677.568 6.866 4.384 10.469 4.938 4.07.625 8.086-1.076 12.062-.469 4.336.662 8.618 3.64 12.844 4.281 4.052.615 8.047-1.096 12-.5 5.133.775 10.187 3.849 15.156 4.594 11.833-7.664 14.615 4.595 19.812 1.156 11.838-7.833 9.992 5.145 17.094 1.312 23.55-12.71 17.65 3.274 26.312-3.375 17.492-13.425 8.821 11.055 35.719-4.406 11.704-6.728 15.409 16.947 21.094 9.312 18.834-25.292 25.411 6.516 28.906 1.969 17.926-23.321 27.512 4.845 29.312 2.75 25.229-29.367 26.502 1.747 29.094-.688 17.438-21.296 22.666 1.514 25.625-.969 4.957-8.072 21.678-6.862 21.531 4.156 17.281-19.961 24.201 4.586 28.688 1.312 16.428-11.986 21.77 8.105 25.188 5.469 16.919-13.05 24.96 11.791 26.156 7.562 18.026-3.979 15.459 8.654 24.031 12.375 18.24-6.947 24.829 11.965 27.344 9.782 16.817-10.243 22.057 17.137 25.969 14.281 12.489-9.118 16.566 7.958 18.281 10.5 2.736 4.056-6.158 7.348-9.781 7.469-37.994 1.268-60.348-9.123-135.531-4.562-35.21 2.135-94.771-.947-153.094-2.188-61.6 1.84-139.696-3.192-230.219-2.781-12.58 10.88-1.692 15.818-21.281 18.844-4.757.734-1.517 6.726-8.562 5.156-4.365-.973-7.524 1.144-10.188 1.219-5.484.155-4.344 2.777-8.969 2.219-6.975-.842-6.004 2.384-9.969 2.969-5.371.792-13.788 3.132-17.5 3.906-10.862 2.264-15.395 7.54-23.5 7.812-1.729.058 1.532-5.772 3.156-7.094 4.253-3.461 11.406-7.828 9.531-7.719-1.688.098-9.96 4.614-14.094 6.688-4.702 2.357-11.689 4.422-15.156 4.469-2.631.034.891-4.173 4.219-6.688 3.502-2.646 16.09-8.389 11.344-6.781-3.865 1.309-4.928 2.668-8.5 3.75-4.957 1.5-8.62 3.708-12.969 2.969-4.354-.74.008-4.123 4.594-6.656 2.376-1.312 7.323-2.762 5.875-2.719-10.449.314-3.718-6.016 3.938-8.969 1.877-.725 16.271-5.645 18.25-6.594 4.742-2.274 10.654-2.896 17.469-6.5-1.941.006-3.872.023-5.812.031-33.353 2.206-99.144 4.607-134.125 5.219-38.456.671-90.191.219-120.562-4.375-2.151 3.684-5.537 8.804-9.656 8.312-4.217-.504-4.143 3.432-6.625 3.344-5.107-.184-4.441 2.689-6.594 2.562-3.99-.236-4.892 2.366-7.969 2.531-2.055.109-3.589 3.839-5.219 3.156-3.176-1.331-3.587 2.35-6.094 1.125-2.105-1.029-2.334 3.625-6.344 1.875-1.879-.82-3.314-.373-6.438.906-6.889 2.82-8.582 5.325-11 8.781-3.821 5.463-7.316 7.857-5.031.5.216-.694-4.468-1.378-8.156 1.531-6.362 5.018-8.471 4.61-5.656-1.344.525-1.109 4.273-5.148 2.875-4.875-4.982.973-12.967 6.685-16.094 6.438-2.738-.217.579-4.313 3.094-7.125 1.335-1.492 10.396-6.558 9.844-6.438-9.953 2.15-22.323 3.328-19.281.094 4.908-5.219 16.432-6.91 18.156-7.906 1.453-.84-2.513-.646-3.469-.625-5.434.118-13.506 1.784-12.781 1.031 8.736-9.081 18.63-8.096 37.5-14.312 1.741-.574 3.481-1.421 5.5-2.375-10.646.363-23.392 1.286-37.188-.969-11.874-1.941-53.089-15.322-61.312-16.562-20.801-3.137-46.77-10.275-59.344-13.907-.851-.068-1.825-.118-2.562-.188-3.607-.342-9.611-.492-19.156-.5-7.651-.006-18.055-.167-23.094-.344-9.888-.345-14.91-.5-17.719-.75.054.318.137.711.312 1.312.426 1.455.484 2.043.219 2.438-.404.599-1.796.846-2.156.375-.133-.175-.646-.27-1.156-.219-1.535.153-3.807-1.524-7.062-5.219C1.73 66.792.552 64.911.126 62.324c-.561-3.401.795-6.225 3.812-7.938.933-.529 2.802-1.796 4.156-2.844 4.027-3.113 4.973-3.493 10.625-4.031 4.969-.473 5.017-.456 14.375.719 1.614.203 4.436.64 6.25.969 1.814.329 4.373.614 5.688.625 4.477.038 8.223.285 10.312.688 4.688.903 6.52.845 19.031-.406 12.961-1.296 15.072-1.683 20.281-3.781 6.852-2.759 11.941-5.631 13.344-7.531 1.146-1.552 4.136-2.854 8.281-3.625 2.196-.408 4.848-1.146 6-1.656 2.046-.905 2.152-.905 7.219-.844 2.822.034 5.498.154 5.969.281 1.405.379 3.084.054 4.5-.875 1.381-.905 3.297-1.389 5.469-1.438 1.304-.029 2.695.109 4.125.406 1.001.208 1.827.308 2.625.375 6.695-2.649 14.15-4.7 22-5.375 50.59-4.352 43.106-4.188 63.594-3.531 17.704.567 16.846.099 41.062-3.844 11.391-1.854 14.505-.371 20.5-2.188 12.131-3.675 18.783-2.278 30.562-5.375 6.918-1.819 23.698-2.214 31.469-4.188 7.954-2.02 10.612 1.97 17.188-1.469 6.306-3.297 13.533-.73 21.125-2.562 3.645-.88 9.245 1.966 13.688-.594 6.215-3.581 11.822-.027 17.656-1.875a9.222 9.222 0 0 1 2.186-.401z" fill="#010101"/></svg>