<svg xmlns="http://www.w3.org/2000/svg" xmlns:dc="http://dublincore.org/documents/dcmi-terms/" height="792" version="1.2" viewBox="0 0 612 792" width="612"><metadata><dc:description>Silhouette of Physeter, processed by PhyloPic Tools (https://github.com/eweitz/phylopic-tools)</dc:description><dc:source>http://phylopic.org/image/6579c20d-f8c2-46d8-8d23-5dd2571584bc</dc:source><dc:creator>Chris huh</dc:creator><dc:license>http://creativecommons.org/licenses/by-sa/3.0/</dc:license></metadata><path d="M753.05 373.55c.434 2.533.566 5.184.399 7.95a42.068 42.068 0 0 1-1.35 8.25 39.888 39.888 0 0 1-3.05 7.9l-10.2 20.8c-2.134 4.5-4.533 8.717-7.2 12.649a83.738 83.738 0 0 1-8.7 10.851 79.06 79.06 0 0 1-10.199 8.95 75.56 75.56 0 0 1-11.601 7c-.934.467-1.866.916-2.8 1.35-.934.434-1.85.833-2.75 1.2a84.62 84.62 0 0 1-2.6 1.05c-.867.333-1.717.65-2.551.95-.833.267-1.683.533-2.55.8-.8.233-1.616.45-2.45.65-.833.199-1.666.383-2.5.55-.8.133-1.616.267-2.449.399l-2.5.301c-.834.066-1.684.116-2.551.149h-5.3a89.298 89.298 0 0 1-2.8-.149l-2.9-.301c-1-.133-2.017-.267-3.05-.399a60.164 60.164 0 0 1-3.25-.5 150.684 150.684 0 0 0-7-1 54.13 54.13 0 0 0-3.35-.3 36.148 36.148 0 0 0-3.25-.25l-6.45-.15c-1.066 0-2.15.033-3.25.1-1.066.033-2.167.084-3.3.15-.934.066-1.967.117-3.101.15-1.1.033-2.283.05-3.55.05h-2.649a376.66 376.66 0 0 1-5.7-.15c-2.033-.1-4.15-.217-6.351-.35l-39.25-4-48.897-7.1a124.24 124.24 0 0 0-10.55-.449l-18 .8-11.101 1c-1.133.066-2.25.116-3.35.149-1.101.033-2.184.067-3.25.101l-6.3-.15-3.15-.2c-1.066-.1-2.133-.217-3.2-.35a256.37 256.37 0 0 0-3.35-.5c-1.134-.167-2.283-.35-3.45-.55a351.096 351.096 0 0 1-3.65-.75 277.26 277.26 0 0 1-3.899-.851l-18.75-4.85c-5.067-1.434-9.617-2.467-13.65-3.1a64.474 64.474 0 0 0-4.7-.601 49.27 49.27 0 0 0-4.35-.2l-1.9.051c-3.232.133-6.232.683-9 1.649-2.732.967-5.383 2.333-7.949 4.101-.634.467-1.25.883-1.851 1.25-.6.366-1.167.717-1.7 1.05-.533.3-1.066.566-1.6.8-.5.233-1 .434-1.5.6-.467.167-.967.317-1.5.45-.5.134-1.017.233-1.55.3-.434.033-.9.067-1.4.101-.467.033-.967.05-1.5.05h-.55l-1.75-.1c-.6-.067-1.2-.15-1.8-.25-.601-.134-1.2-.268-1.8-.4-.567-.133-1.134-.3-1.7-.5l-1.7-.6a70.977 70.977 0 0 1-1.55-.7c-.5-.267-.983-.533-1.45-.8-.467-.268-.9-.551-1.3-.851-.4-.3-.783-.6-1.15-.899a13.304 13.304 0 0 1-.95-.95c-.267-.333-.5-.65-.699-.95a12.933 12.933 0 0 1-.45-1 2.197 2.197 0 0 0-.351-.75 1.935 1.935 0 0 0-.6-.55c-.233-.2-.566-.351-1-.45l-.7-.2-1.85-.25-17.601-.3-39.699-1.7-52.95-4.75-21.25-2.95c-1.601-.3-3.2-.55-4.8-.75-1.634-.199-3.25-.383-4.851-.55-1.6-.133-3.233-.25-4.899-.35a80.201 80.201 0 0 0-4.95-.15l-2.3-.05c-1.301 0-2.617.017-3.95.05-1.3.033-2.634.101-4 .2-1.733.066-3.5.184-5.3.35-1.801.167-3.634.367-5.5.601-1.867.233-3.768.5-5.7.8-1.934.267-3.917.583-5.95.95l-41.65 10.35-16.899 5H64.85l-58.05.9-10.601.899-9.699 18.2c-.634 1.2-1.301 2.4-2 3.601a206.707 206.707 0 0 1-2.051 3.6 150.07 150.07 0 0 1-2.199 3.55c-.7 1.167-1.434 2.333-2.2 3.5a303.86 303.86 0 0 1-2.3 3.45 123.668 123.668 0 0 1-2.351 3.35 113.484 113.484 0 0 1-2.35 3.25c-.8 1.067-1.601 2.117-2.4 3.15-.767 1-1.55 2-2.35 3-.8.967-1.601 1.9-2.4 2.8-.767.9-1.533 1.783-2.3 2.65a79.402 79.402 0 0 1-2.3 2.399 131.15 131.15 0 0 1-2.2 2.25c-.733.667-1.45 1.317-2.15 1.95a31.941 31.941 0 0 1-2.05 1.7c-.634.5-1.267.967-1.899 1.4-2.567 1.767-4.684 2.916-6.351 3.449a8.686 8.686 0 0 1-1.5.25c-.967 0-1.783-.35-2.45-1.05-.934-1.066-1.649-3.017-2.149-5.85a89.164 89.164 0 0 1-.65-5.05c-.2-1.934-.366-4.117-.5-6.551l-.35-10.85.55-6 4.1-12.75-12.75-.1-7.85-.95-27.95-7.5c-2.134-.5-4.167-.983-6.1-1.45-1.934-.5-3.784-.983-5.55-1.45a139.966 139.966 0 0 1-4.95-1.399c-4.667-1.434-8.517-2.834-11.55-4.2-3.033-1.4-5.283-2.817-6.75-4.25-1.467-1.434-2.2-2.884-2.2-4.351 0-.767.3-1.5.899-2.199.634-.7 1.667-1.417 3.101-2.15.733-.367 1.583-.75 2.55-1.15.967-.399 2.05-.816 3.25-1.25a94.858 94.858 0 0 1 4.15-1.449c1.533-.5 3.217-1.033 5.05-1.601a218.858 218.858 0 0 1 10.399-2.95 203.988 203.988 0 0 1 10.601-2.6c3.533-.8 7.1-1.517 10.7-2.15a300.485 300.485 0 0 1 10.949-1.8c3.7-.533 7.434-.983 11.2-1.35 3.767-.4 7.567-.733 11.4-1s7.733-.467 11.7-.601c4-.133 8.016-.199 12.05-.199h21.149l12.551-9.95c2.066-1.601 4.166-3.233 6.3-4.9 2.167-1.667 4.383-3.366 6.649-5.1a626.43 626.43 0 0 1 6.9-5.2c2.367-1.767 4.767-3.55 7.2-5.35l22.85-16.551 65.05-43.899c2.7-1.733 5.367-3.434 8-5.101a428.52 428.52 0 0 1 7.851-4.949c2.6-1.601 5.149-3.167 7.649-4.7l6.75-4.25 22.601-15.8c.633-.5 1.2-.967 1.7-1.4.533-.467 1-.883 1.399-1.25l4.3-4c.634-.6 1.233-1.15 1.801-1.65.6-.5 1.166-.949 1.699-1.35a21.335 21.335 0 0 1 1.65-1.15 22.944 22.944 0 0 1 1.7-1c.566-.3 1.149-.55 1.75-.75a13.35 13.35 0 0 1 1.95-.649 35.923 35.923 0 0 1 2.199-.45 19.676 19.676 0 0 1 2.5-.35c.9-.101 1.867-.184 2.9-.25a48.185 48.185 0 0 1 3.35-.2l42.801-.75 12.899-1.2 9.2-1.7 11.35-1.149 65.7.6 54.3 2.85 17.2 1.5c2.833.233 5.634.5 8.4.801l8.25.899c2.733.3 5.433.617 8.1.95 2.7.3 5.351.633 7.95 1 2.633.333 5.233.684 7.8 1.05 2.567.367 5.101.75 7.601 1.15 2.5.366 4.982.75 7.449 1.149 2.467.4 4.884.817 7.25 1.25l66.851 9.75 63.149 11.051 78.2 16.55c2.2.533 4.283 1.05 6.25 1.55 1.967.5 3.834 1 5.601 1.5 1.8.467 3.466.934 5 1.4 1.533.467 2.949.916 4.25 1.35a85.978 85.978 0 0 1 6.05 2.1c2 .733 3.95 1.5 5.85 2.301 1.9.8 3.75 1.633 5.55 2.5a78.87 78.87 0 0 1 5.301 2.649 138.5 138.5 0 0 1 4.949 2.851 57.965 57.965 0 0 1 4.65 2.949c2.967 2 5.65 4.067 8.05 6.2 2.4 2.101 4.483 4.25 6.25 6.45 1.8 2.167 3.217 4.35 4.25 6.55 1.035 2.098 1.751 4.431 2.152 6.998z" fill="#010101" fill-rule="evenodd"/></svg>