<svg xmlns="http://www.w3.org/2000/svg" xmlns:dc="http://dublincore.org/documents/dcmi-terms/" height="179.234" width="182.092"><metadata><dc:description>Silhouette of Pirellula, processed by PhyloPic Tools (https://github.com/eweitz/phylopic-tools)</dc:description><dc:source>http://phylopic.org/image/8bfca61e-c984-4882-bcb1-d2116274f463</dc:source><dc:creator>Matt Crook</dc:creator><dc:license>http://creativecommons.org/licenses/by-sa/3.0/</dc:license></metadata><path d="M95.379 6a6 6 0 1 1-12 0 6 6 0 1 1 12 0zM99.667 19.817a6 6 0 1 1-12 0 6 6 0 1 1 12 0zM111.578 12.67a6 6 0 1 1-12 0 6 6 0 1 1 12 0zM123.965 42.21a6 6 0 1 1-12 0 6 6 0 1 1 12 0z" style="marker:none" color="#000" stroke-width="2" overflow="visible"/><path d="M126.824 54.598a6 6 0 1 1-12 0 6 6 0 1 1 12 0zM161.128 45.545a6 6 0 1 1-12 0 6 6 0 1 1 12 0zM163.51 62.697a6 6 0 1 1-12 0 6 6 0 1 1 12 0zM182.092 68.891a6 6 0 1 1-12 0 6 6 0 1 1 12 0zM143.023 97.478a6 6 0 1 1-12 0 6 6 0 1 1 12 0zM123.965 93.19a6 6 0 1 1-12 0 6 6 0 1 1 12 0zM126.824 119.395a6 6 0 1 1-12 0 6 6 0 1 1 12 0zM162.081 134.641a6 6 0 1 1-12 0 6 6 0 1 1 12 0z" style="marker:none" color="#000" stroke-width="2" overflow="visible"/><path d="M170.657 140.359a6 6 0 1 1-12 0 6 6 0 1 1 12 0zM132.542 167.516a6 6 0 1 1-12 0 6 6 0 1 1 12 0zM109.196 133.212a6 6 0 1 1-12 0 6 6 0 1 1 12 0zM89.661 173.234a6 6 0 1 1-12 0 6 6 0 1 1 12 0zM42.97 144.647a6 6 0 1 1-12 0 6 6 0 1 1 12 0zM61.074 145.123a6 6 0 1 1-12 0 6 6 0 1 1 12 0zM75.844 129.877a6 6 0 1 1-12 0 6 6 0 1 1 12 0zM14.859 121.777a6 6 0 1 1-12 0 6 6 0 1 1 12 0zM36.775 96.525a6 6 0 1 1-12 0 6 6 0 1 1 12 0zM42.97 77.467a6 6 0 1 1-12 0 6 6 0 1 1 12 0zM22.005 58.886a6 6 0 1 1-12 0 6 6 0 1 1 12 0zM39.158 25.058a6 6 0 1 1-12 0 6 6 0 1 1 12 0zM41.54 42.687a6 6 0 1 1-12 0 6 6 0 1 1 12 0zM69.65 35.54a6 6 0 1 1-12 0 6 6 0 1 1 12 0zM58.216 15.053a6 6 0 1 1-12 0 6 6 0 1 1 12 0z" style="marker:none" color="#000" stroke-width="2" overflow="visible"/><path d="M10.382 58.027a4 4 0 1 1-8 0 4 4 0 1 1 8 0zM22.77 106.148a4 4 0 1 1-8 0 4 4 0 1 1 8 0zM18.005 132.83a4 4 0 1 1-8 0 4 4 0 1 1 8 0zM8 116.63a4 4 0 1 1-8 0 4 4 0 1 1 8 0zM35.158 150.458a4 4 0 1 1-8 0 4 4 0 1 1 8 0zM55.168 136.641a4 4 0 1 1-8 0 4 4 0 1 1 8 0zM69.462 140.93a4 4 0 1 1-8 0 4 4 0 1 1 8 0zM84.708 119.013a4 4 0 1 1-8 0 4 4 0 1 1 8 0zM44.21 100.908a4 4 0 1 1-8 0 4 4 0 1 1 8 0z" style="marker:none" color="#000" stroke-width="2" overflow="visible"/><path d="M17.152 58.692c22.393 5.876 46.216 14.611 67.18 26.205" fill="none" stroke="#000" stroke-width="3" stroke-linecap="round" stroke-linejoin="round"/><path d="M39.545 44.399c14.77 14.77 32.875 26.204 47.169 34.304M35.257 25.34c8.5 6.119 31.922 21.614 31.74 41.245M62.891 36.299c.13 5.504 1.371 10.957.25 16.107M92.431 21.529c3.812 16.2 0 37.163-5.717 57.174M105.772 14.859c-1.405 9.158-7.624 26.208-12.673 34.209" fill="none" stroke="#000" stroke-width="3" stroke-linecap="round"/><path d="M115.777 44.399c-.953 11.593-24.775 39.386-31.446 40.498M115.777 44.399c-1.43 12.546-20.01 31.763-19.534 38.592M155.322 62.504c-7.623 2.54-50.027 14.61-59.08 20.487M153.417 45.828c-6.965 5.18-22.114 15.507-30.037 26.618M118.16 92.043c-6.671-.794-13.341-2.54-21.917-1.429M101.96 132.542c-3.335-4.13-7.623-37.799-5.717-41.928M126.735 168.275c-3.798-24.26-28.867-49.931-30.067-60.503M154.846 133.97c-6.67-9.846-55.268-39.227-63.844-38.115M81.473 172.087c9.529-12.23 8.1-67.338 9.529-76.232M136.74 97.76c-7.073.925-12.31 7.865-24.091 6.765M174.857 71.556c-7.623 2.541-42.88 18.423-54.315 18.105M38.116 143.023c9.529-12.228 44.31-47.327 52.886-47.168M58.127 142.547c7.897-10.135 21.23-26.927 26.424-43.965M80.996 118.725c1.946-4.8 2.097-10.117.706-12.496M10.482 119.677c19.534-5.082 52.41-26.363 73.373-30.492M33.828 94.426c14.6-3.799 27.597-3.304 32.265.635M33.828 94.426c5.07-6.18-.037-17.598 4.63-13.659M119.112 56.786c-4.764 3.97-8.1 11.276-13.817 17.152" fill="none" stroke="#000" stroke-width="3" stroke-linecap="round" stroke-linejoin="round"/><path d="M48.022 60.886a4 4 0 1 1-8 0 4 4 0 1 1 8 0z" style="marker:none" color="#000" stroke-width="2" overflow="visible"/></svg>