<svg xmlns="http://www.w3.org/2000/svg" xmlns:dc="http://dublincore.org/documents/dcmi-terms/" height="319" version="1.2" viewBox="0 0 1444 319" width="1444" overflow="inherit"><metadata><dc:description>Silhouette of Placodontoidea, processed by PhyloPic Tools (https://github.com/eweitz/phylopic-tools)</dc:description><dc:source>http://phylopic.org/image/18eb61c8-5e23-42ee-9917-cde560ae84dc</dc:source><dc:creator>Nobu Tamura (vectorized by T. Michael Keesey)</dc:creator><dc:license>http://creativecommons.org/licenses/by/3.0/</dc:license></metadata><path d="M493 0c2.458 17.236 23.805 6.335 35 4 1.509 1.824 1.061 5.605 3 7 6.259 1.391 15.359-2.493 23-3 2.359 1.974 1.387 7.279 3 10 13.082.082 21.785-4.215 33-6 2.617 2.05 1.675 7.659 4 10 9.837.503 14.262-4.405 24-4 1.613 2.721.641 8.026 3 10 10.725.392 17.456-3.211 26-5 2.666 17.264 19.925 6.791 34 6 2.444 3.223 1.767 9.567 5 12 9.936 1.977 20.141-2.743 31-3 2.438 4.229 4.2 9.133 8 12 9.806.473 18.088-.579 25-3 4.971.362 4.836 5.83 7 9 7.849 3.484 19.566-.142 29-1 6.198 3.953 6.421 11.226 15 13 10.446 2.161 21.988-3.885 32-5 2.686 3.648 2.921 9.746 5 14 8.487.82 14.307-1.026 20-3 3.019 10.268 17.557 17.097 29 10 12.667 21.494 43.485-16.441 61 4 4.018-1.845 8.254.404 11-1 10.308 9.646 31.929 4.081 45 7 20.349-7.146 37.052 12.974 55 3 13.048 2.952 29.603 10.301 42 5 9.631 7.792 24.738 1.7 39 2 14.692.309 29.18 3.043 39-6 8.118 3.642 25.79 1.906 36-1 32.46 2.939 62.127-6.247 93-12 10.124-1.887 21.56-2.176 33-5 11.353-2.803 24.709-7.297 36-11 22.994-7.542 44.983-18.31 67-22-15.318 12.979-31.553 25.787-48 40-10.603 9.162-23.699 15.458-35 24-16.075 12.151-40.409 32.684-62 41-10.134 3.903-34.247 6.605-49 5-3.823-.416-6.89-2.216-11-2-9.231.486-20.213 6.232-31 9-53.339 13.688-117.164 23.025-180 27-47.95 3.033-93.034-5.082-137-10-76.163-8.52-151.243-24.611-220 1 10.824 5.941 22.983 5.49 33 13 11.348 8.508 25.782 24.401 47 22 9.619-1.089 17.532-6.658 30-7 4.085 3.248 6.991 7.676 13 9 .77 4.771-3.562 4.438-3 9 1.008 2.326 3.442 3.225 7 3-3.012 5.578-6.168 12.426 0 17-1.738 3.262-6.769 3.231-10 5-.739 3.664 2.459 5.557 0 8-13.276-2.377-24.467-11.193-39-15-5.885-1.541-13-.539-19-2-16.742-4.077-35.799-11.895-55-16-25.105-5.367-44.682-9.309-55-30-6.167-.832-9.111-4.889-14-7-12.549-.216-22.243 2.424-32 5 19.713 18.621 29.464 47.202 68 47-.993 5.703 2.959 8.782 6 13-3.38 4.771-10.516 7.821-7 14-12.625 4.459-23.534 5.438-37 5-9.141-7.476-11.466-18.987-21-26-18.795-13.824-42.574-22.492-58-40-61.54 5.109-116.723 14.144-183 11-9.59-.455-18.536-.881-27 0 9.459 23.207 17.477 47.857 31 67-3.653 3.532-.781 7.481 0 12-13.004 6.672-21.194.454-36-1-2.409-3.258-4.704-6.63-8-9-1.874-13.666-8.125-31.199-16-45-4.214-7.385-8.745-16.811-13-22-9.321-11.368-23.003-14.16-43-16-7.16 3.089-7.718 11.224-11 17-6.105 10.745-15.503 19.532-22 32-6.305 12.1-14.975 22.134-21 36 .427 4.573 1.521 8.479 1 14-5.121-2.389-10.601.647-10 7-7.89-2.825-12.175 1.09-14 7-2.422-.911-2.648-4.019-3-7-5.022-.689-8.071.596-11 2-4.016-5.984-.409-19.591-11-19 .194-10.298 8.833-15.357 14-22 4.885-6.28 6.887-15.868 12-24 4.993-7.941 16.795-15.726 19-23 3.937-12.986-1.203-27.838 9-38-14.884-8.115-36.804-9.196-50-19-16.759 1.832-24.613-9.017-35-14-7.151-3.431-18.898-3.807-28-7-4.783-1.678-7.959-5.152-12-6-19.285-4.047-31.965-2.792-45-15-.853-.798 1.046-4.7-3-3 3.424-4.402-2.196-6.673-1-12 5.827-.827 3.75 6.25 8 7 2.555-.112 1.985-3.349 2-6 7.123 11.93 39.52 8.805 49 0-2.699-8.301-11.319-10.682-21-12-4.811-3.856-9.71-7.623-16-10-4.722-.389-6.024 2.642-10 3-4.103.458.407-2.137-1-5-4.449-.783-6.001 1.332-10 1 .429-1.904 2.154-2.512 2-5-3.675-.325-8.853.853-11-1 5.527-2.864 7.685-4.316 9-10 9.728-5.732 21.065-5.748 32-8 14.307-2.947 25.991-9.903 44-8 8.259.873 17.708 4.28 26 7 14.29 4.688 24.278 14.561 41 6 1.095 3.091-.044 5.366 4 7 8.863.197 13.413-3.921 20-6 3.287.713 3.366 4.634 7 5 8.141-1.859 14.99-5.01 21-9 11.891 12.518 30.887.78 39-8 3.937.063.681 7.319 5 7 8.599-4.401 17.104-8.896 23-16 4.296-.963 1.754 4.913 5 5 11.225-2.442 18.412-8.921 27-14 1.75 1.917 1.176 6.157 5 6 12.372-4.294 21.012-12.321 30-20 4.112.221 2.178 6.489 7 6 10.045-5.289 19.04-11.627 28-18 3.455.545 1.753 6.247 5 7 9.99-1.01 15.394-6.606 24-9 8.288 8.223 24.218-.498 32-5 9.061 8.814 21.426-2.293 31-5 1.49 2.51 2.492 5.508 5 7 10.404-.929 16.045-6.621 23-11z" fill-rule="evenodd"/></svg>