<svg xmlns="http://www.w3.org/2000/svg" xmlns:dc="http://dublincore.org/documents/dcmi-terms/" height="1080" viewBox="0 0 1080 1080" width="1080"><metadata><dc:description>Silhouette of Planaria, processed by PhyloPic Tools (https://github.com/eweitz/phylopic-tools)</dc:description><dc:source>http://phylopic.org/image/f800b25f-6528-43ba-88d6-79c51162fd19</dc:source><dc:creator>Noah Schlottman</dc:creator><dc:license>http://creativecommons.org/licenses/by-sa/3.0/</dc:license></metadata><switch><g><path d="M985.971 491.57c-.708-8.008-5.23-14.278-10.631-19.121-4.443-3.984-10.522-6.177-14.68-10.976-1.177-1.359-3.682-1.472-5.313-2.553-4.025-2.667-7.886-5.579-11.83-8.365-6.613-4.667-14.072-7.584-21.786-9.618-2.762-.729-5.347-1.449-7.851-2.821a55.158 55.158 0 0 0-7.878-3.51c-7.279-2.604-14.551-5.268-21.954-7.486-4.618-1.384-9.463-2.767-14.214-2.798-7.818-.05-14.918 1.489-19.768 9.351-6.581 10.662-17.684 16.313-28.336 22.139-9.209 5.033-19.734 4.846-29.665 6.135-18.021 2.339-36.269.757-54.419.381-3.812-.08-7.59-1.13-11.407-1.337-6.502-.352-13.026-.261-19.529-.612-3.437-.185-6.834-1.17-10.269-1.322-4.14-.182-8.309.345-12.452.195-8.151-.295-16.29-.946-24.441-1.258-7.532-.289-15.085-.097-22.604-.532-11.646-.676-23.257-2.096-34.907-2.486-14.142-.474-28.306-.253-42.46-.243-12.43.009-24.904-.486-37.278.387-14.526 1.024-29.083 2.626-43.41 5.188-15.182 2.713-30.119 6.813-45.14 10.402-1.956.467-3.715 1.785-5.673 2.206-3.193.685-6.589.568-9.697 1.478-7.826 2.291-15.537 4.97-23.297 7.483-16.395 5.31-32.835 10.483-49.159 16.004-4.259 1.44-22.56 8.535-28.033 8.854-3.09.181-6.069 2.341-9.091 3.626-3.001 1.276-5.993 2.573-8.989 3.86-2.851 1.225-5.777 2.3-8.531 3.712-2.919 1.495-6.489 3.312-8.142 5.098-3.406 3.679-8.667 4.583-9.187 4.952-3.639 2.577-7.205 5.278-10.988 7.625-3.989 2.477-8.207 4.582-12.288 6.912-.538.307-.765 1.139-1.295 1.478-1.571 1.004-.162 4.57-3.91 4.008-1.45-.218-3.121 2.288-4.909 2.819-5.084 1.507-9.473 4.181-13.659 7.29-1.352 1.002-2.465 2.536-3.96 3.101-6.432 2.426-11.246 6.429-13.779 12.936-1.732 4.451-6.075 5.212-9.656 7.321-6.982 4.108-13.525 8.988-20.112 13.739-4.959 3.578-10.302 6.907-14.37 11.354-3.899 4.266-8.422 7.136-13.32 9.735-.642.341-6.226 5.824-8.421 8.215-2.741 2.984-6.293 5.717-10.034 7.168-5.089 1.975-9.462 4.956-11.911 9.314-2.33 4.148-5.215 7.361-8.566 10.487-1.339 1.249-1.865 3.332-3.084 4.757-4.819 5.635-9.794 11.134-14.65 16.74-1.531 1.767-3.194 3.542-4.229 5.599-2.658 5.291-4.357 11.185-7.67 15.989-2.577 3.74-3.06 7.678-4.027 11.675-.161.668.194 2.033.614 2.175 3.626 1.225 3.788 4.963 5.308 7.54 1.494 2.533 3.186 2.72 4.689 1.226 2.213-2.196 4.528-1.789 6.702-.914 2.189.883 3.982.519 6.128.047 2.73-.597 6.903-1.636 8.197-.299 2.684 2.773 4.532 1.502 7.043.698 4.388-1.401 8.867-2.519 13.291-3.811.757-.222 5.556-4.077 7.956-4.957 2.865-1.05 42.678-13.316 46.357-14.525 3.38-1.109 6.458-2.764 10.206-3.379 3.294-.541 14.618-6.191 16.149-6.703 3.924-1.311 24.858-9.407 30.734-10.055 2.767-.306 5.209.153 6.164-3.431.204-.767 2.604-.965 4.003-1.392 5.18-1.576 10.961-2.203 15.354-5.009 3.353-2.14 6.411-3.174 10.097-3.597 1.644-.188 4.278-.633 4.629-1.616 1.303-3.644 4.298-2.614 6.744-3.213 6.341-1.549 13.362-.433 18.958-5.021.917-.752 2.533-.759 3.848-.898 3.457-.366 13.681-3.641 15.168-3.898 11.42-1.98 22.839-3.973 34.219-6.175 3.178-.616 6.221-2.768 9.324-2.764 5.069.005 9.484-1.931 14.206-2.935 7.967-1.694 15.133-7.297 23.916-5.141.586.144 1.293-.147 1.931-.297 6.71-1.58 12.952-4.562 19.963-5.457 12.662-1.613 25.204-4.157 37.796-6.316 4.506-.771 8.987-1.759 13.523-2.267 9.203-1.029 18.45-1.672 27.648-2.729 5.256-.604 10.431-1.901 15.684-2.55 13.353-1.65 26.71-3.302 40.101-4.593 14.081-1.36 28.188-2.621 42.312-3.35 15.934-.821 31.9-1.002 47.854-1.46.887-.026 1.777-.019 2.663-.062 15.444-.787 30.885-1.592 46.33-2.371 11.947-.603 23.919-.881 35.836-1.832 16.058-1.283 32.069-3.129 48.111-4.629 9.042-.844 18.261-.669 27.121-2.39 12.657-2.463 25.331-3.872 38.133-3.255 10.427.502 20.756 2.517 28.956 9.649 5.445 4.738 11.881 5.753 18.433 6.069 12.518.605 21.096-6.674 28.652-15.541 1.718-2.013 3.3-4.155 5.115-6.074 5.292-5.604 11.396-10.603 15.857-16.793 7.922-10.996 14.649-22.846 22.294-34.053 5.826-8.548 8.557-18.029 10.729-27.939.606-2.768 2.09-5.263 1.813-8.388zm-84.72-6.874c-.516.773-1.314 1.343-2.376 2.071-.97.665-2.065-.245-2.15-1.233-.18-2.117 1.223-4.61 3.082-6.629.277-.554.65-1.067 1.112-1.598.141-.161 1.284-1.442 1.979-1.868 1.137-.698 2.939-.919 4.243-1.029 1.334-.113 2.528-.021 3.626.277 2.334.314 4.411 1.417 5.197 3.806.103.311.072.604-.035.861.252.641-.422 5.211-.581 7.292-.113 1.5-2.556 2.068-2.804.38-.172-1.161-.324-1.76-.935-2.452-.108.059-1.44-.675-2.02-.984-4.704-2.515-7.852 1.013-8.338 1.106zm24.6 46.189c-.061.013-7.211 7.307-13.638 5.514.043-.041-3.179-.746-3.511-.951-.542-.336-1.232-.344-1.722-.723-1.078-.274-2.963-1.366-3.165-2.165-.007-.004.008-.606 0-.61-.7-.349.234-4.776.945-4.608.459.108 1.438 3.888 3.771 3.832 1.444.194 2.345-.139 3.526-.333 1.693-.278 3.72-1.716 4.441-2.249.807-.596 2.394-4.131 2.332-4.57-.116-.835 1.153-1.206 1.286-.354.049.323.568 1.035.715 1.15.183.142 4.879 1.448 6.015 4.311.278.698-.295 1.601-.995 1.756z" fill-rule="evenodd"/></g></switch></svg>