<svg xmlns="http://www.w3.org/2000/svg" xmlns:dc="http://dublincore.org/documents/dcmi-terms/" height="791" version="1.2" viewBox="0 0 559 791" width="559" overflow="inherit"><metadata><dc:description>Silhouette of Platacanthomyinae, processed by PhyloPic Tools (https://github.com/eweitz/phylopic-tools)</dc:description><dc:source>http://phylopic.org/image/b191ca64-3a13-4550-babb-a5aa280c96ad</dc:source><dc:license>http://creativecommons.org/publicdomain/mark/1.0/</dc:license></metadata><path d="M559 329c.06 23.816-7.544 46.738-11 72h-3c.033 13.441 6.859 33.584-5 42 2.202 4.465 4.315 9.018 6 14 .144 3.144-2.564 3.436-5 4-2.943 18.887 5.406 32.021 7 47-2.784-5.216-4.438-11.562-12-12 .345 6.655 5.71 8.29 7 14-2.358-.309-1.86-3.473-5-3 1.533 5.639 6.948 11.014 5 17-2.35-.983-1.66-5.007-5-5-2.343 5.368 3.94 10.707 6 15-.161 1.172-1.823.844-3 1 .81 6.067 5.373 11.866 4 17-3.778-.222-2.858-5.142-6-6-3.445 6.47 5.24 9.408 6 15-2.358-.309-1.86-3.473-5-3-.761 6.094 4.618 6.049 5 11-2.923-.744-1.936-5.398-6-5 9.814 15.387 7.849 35.02 10 54-.933-.611-3.688-2.327-3 1-1.719-1.282-1.239-4.761-4-5-2.066 5.755 1.471 14.514 3 20-2.609-2.058-3.034-6.3-6-8-2.787 10.007 10.377 17.328 6 29 .161 1.172 1.823.844 3 1-4.518 4.422 1.22 13.46 3 18-.345 2.904-2.686.605-5 3 2.42 7.223-1.887 15.669 1 23-2.306-1.984-1.111.251-3 1 2.134 6.533 5.798 11.535 7 19-4.121-3.546-3.978-11.355-8-15-2.76 12.606 11.666 26.76 5 40 4.407 7.295-1.576 13.844 6 19-6.332-.668-4.404-9.596-9-12-2.805 8.153 4.029 15.293 8 20-3.637.611-7.123-7.525-10-11-7.775 2.225-5.75 14.25-12 18 .29-2.768 4.097-7.16 1-10-4.541 9.792-12.772 15.895-21 22-1.57-.43-.854-3.146-4-2-.279-4.279 3.055-4.945 2-10-.649-1.017-2.299-1.034-2-3-4.806.527-2.96 7.707-8 8 .633-3.367 2.872-5.128 2-10-.658-2.995-2.138.956-4 0 2.188-3.428 1.009-10.596-4-10-3.008 2.752 1.004 6.938 1 10-3.947-.053-3.244-4.756-6-6-1.357.31-.83 2.504-1 4-2.762.428-.938-3.729-3-4-4.694 1.361-7.083 1.507-12 4-.319 2.319.16 3.84 1 5-2.413-.28-4.66-9.318-7-13-3.999-.284-1.823 7.74 0 8-4.225.205-6.034-10.618-9-15-3.613-.947-1.395 3.938-2 6-2.074-1.593-3.798-3.535-5-6-3.613-.947-1.395 3.938-2 6-6.102-12.145-2.403-27.174-1-38-4.306-1.306-3.932 2.068-5 4-2.711-7.46 5.828-21.862-1-25 6.796-18.646 6.502-40.864 14-60 .428-1.611-3.729-3.355-4-1-3.291-2.397 3.639-2.949 2-7-.227-1.273-2.984-1.311-3 0-.883-4.239 3.293-12.023 7-15-1.467-4.294-1.702-4.232 0-9-1.282-4.011-4.761 2.968-5 0-1.646-1.555.342-3.896 1-6 2.807-.428-2.506 3.729 1 4 7.777-8.127 5.908-19.354 12-32-3.138-1.356-2.933-2.014-1-5-.111-2.448-3.306-.212-3 1-3.324-2.846 6.118-5.194 2-9-4.869.131-4.027 5.973-7 8-1.164-2.022 6.099-12.427 5-21 5.202-2.799 7.799-8.201 10-14-2.07-2.964-5.162 1.426-6 3-2.583-4.439 8.924-13.495 4-17 2.747-3.731 6.368-10.406 2-14 .622-10.684 9.217-17.717 5-27 7.158-3.753 5.195-11.937 9-20-.227-1.273-2.984-1.311-3 0 .689-3.437.504-6.458-3-10 14.234-17.817 8.12-34.038 21-54-.658-2.995-2.138.956-4 0 3.131-7.202 8.387-12.28 13-18 2.45-14.844 16.75-27.511 10-45 2.151-.849 2.318-3.682 2-7-16.468-11.533-14.338-41.662-48-36-.682 3.469-1.086 5.052-2 10-16.277 5.723-19.919 24.082-40 26-2.323.677-2.677 3.323-5 4-6.653.347-12.01 1.99-17 4-.438-2.322-5.635-1.458-3-4-11.118 2.711-18.283 8.045-26 1 4.061-8.605 9.24-16.093 19-19-.763-17.364 29.576-.822 34-11-6.728-5.727-15.905-8.279-25-7-2.195-5.471-8.604-6.73-16-7-17.512-12.106-35.402-23.236-66-18-2.083-1.25-4.217-2.449-6-4-7.213-.547-10.319 3.014-18 2-.529-3.138-3.471-3.862-4-7 6.228-2.772 13.728-4.272 19-8 8.181 2.29 18.801 4.679 26 0-1.447-9.887-12.529-10.138-15-19h-9c-10.002-10.351-24.437-7.305-35-15-8.742 1.814-13.766-2.786-23 0-1.382 4.048 2.17 3.163 2 6-2.007-.34-3.129.205-3 2-3.769.769-4.78-1.22-8-1-1.129 3.057-.707 4.614-2 9-8.036 2.246-13.312 6.937-14 14h-5c-1.357.31-.83 2.504-1 4-8.764 1.903-14.399 6.934-21 11v4c-11.737 6.263-13.49 22.51-28 26-2.94 3.727-9.385 3.948-11 9-10.115 1.721-14.83 2.657-25 4-2.88.12-1.735 4.265-5 4-.52-3.147-1.106-6.228-4-7-2.518-6.181 4.655-8.24 7-11 .605-.712-.683-3.386 0-4 5.991-5.39 17.937-2.665 20-12 22.89-3.444 29.96-22.706 38-41-12.191-1.46-20.729.113-37-2-6.166 2.168-6.791 9.876-16 9-1.486.847-1.447 3.22-2 5 2.118 4.771 6.906.927 9 2-9.946 23.781-46.624-9.019-18-16 3.833-15.833 23.401-15.932 39-20v-5c-10.682-2.736-12.957-19.72-22-23-5.504-1.997-7.891 2.461-16 2-13.07-.743-28.328-12.325-43-7-18.214-3.499-37.381-6.584-52-18-.219-8.553 5.516-11.151 8-17-7.43-7.903-14.02-16.646-26-20 13.246-2.24 18.764 11.898 28 17-4.556-12.484-21.075-18.204-25-28 9.57 6.097 16.444 14.89 25 22-7.928-24.739-31.758-33.575-50-48 20.128 8.539 36.181 21.152 48 38 2.723-13.23-13.786-24.98-22-34C19.219 83.16 8.915 72.002 0 63c19.528 14.805 36.179 32.488 51 52 2.951-16.955-9.607-27.056-12-42 9.181 13.152 14.716 29.951 17 50 5.439-29.775-10.829-46.503-15-70 8.606 15.394 13.185 34.815 20 52 3.542-16.125 1.528-37.805 10-49-2.057 15.104-10.711 41.294-5 61-.358-12.154 6.955-27.712 9-43 1.908-14.266-1.251-28.515 3-41 .926-2.72 3.909-4.519 5-7 2.173-4.941.456-12.285 6-15-.036 11.845-8.936 18.836-11 31-2 11.787.441 24.744-2 37-2.304 11.566-7.025 22.358-7 34 4.893-23.441 12.608-44.059 22-63 3.623 3.299-3.523 11.324-5 16 .437 1.484 1.28-.395 3 0a1284.366 1284.366 0 0 0-7 35c10.878-32.456 27.563-64.436 45-87 2.017 5.742-6.372 11.875-10 18-4.854 8.195-8.343 17.959-15 23-6.292 16.708-12.577 33.424-19 50 17.512-38.154 33.807-77.526 62-105 1.844 4.301-3.524 8.123-6 11-21.432 24.901-38.871 60.396-53 94 23.304-34.697 46.091-69.909 80-94-5.821 6.846-12.318 13.015-19 19 5.621 1.221 2.589 4.881 3 11 13.75-8.917 24.958-20.375 38-30-6.518 13.817-28.656 20.675-37 36 24.699-10.643 50.447-34.208 78-42-26.028 15.972-56.008 27.992-77 49-.409 2.409 1.826 2.174 1 5 14.996-8.917 28.711-30.332 49-26-4.253 13.747-4.244 31.756-12 42 15.447-2.219 26.713-8.621 44-9-15.54 7.46-41.031 4.97-50 19 5.735 3.013 13.619 2.22 20 2v3c4.1.1 8.197.197 11-1-.044 1.71.743 2.59 2 3 7.597-1.576 17.439 4.513 27-1 15.159 7.494 38.975-1.351 55 0 11.249-2.38 22.479-5.845 34-4 2.134.467 1.904-1.429 2-3 21.926-.192 58.662 6.18 82 5 .306 2.306-2.889 1.111-3 3 7.293 2.594 11.314 10.753 21 8-7.746 4.366 6.399 7.542 7 13 2.977.052 5.074-2.942 7-1 .396 2.396-4.555-.555-3 3 4.396 3.148 13.084 3.892 15 12 4.662.472 5.9.663 11 2-1.232 3.038-3.438-1.084-6 0-1.249 6.25 4.679 5.321 9 6 .716 2.715-4.716-.715-4 2 1.977 4.023 8.312 3.688 13 5 .451 2.784-5.451-.784-5 2 .535 3.132 3.73 3.603 7 4 2.077 2.365-5.14.009-7 0 1.522 3.145 5.333 4 5 9 2.359 1.307 6.911.422 9 2-1.022 2.228-4.598-1.308-8 0 .381 6.953 8.939 5.728 11 11-3.658.658-3.836-2.164-7-2 2.1 5.9 8.763 7.237 14 10-.847 2.931-3.22-.598-5 0-.489 4.822 5.779 2.888 6 7-3.144-.856-4.22-3.78-8-4 .479 5.521 5.08 6.92 8 10-.732 1.781-1.818.144-3 0-.768 7.295 2.728 9.707 7 14-2.93 2.814.607 5.874-4 4 .959 4.375 2.965 7.702 7 9-1.733 3.244-2.62-2.598-6-1 .63 5.703 6.868 5.798 8 11-3.059.726-2.941-1.725-6-1 1.078 5.589 4.021 9.312 8 12-2.085 2.979-4.073-2.514-7-2-1.166 7.833 6.354 6.98 7 13-1.794.127-2.109-1.224-4-1 4.277 6.267 7.172 13.862 9 20h-4c3.432 5.388.994 10.341 11 10 1.844 2.49 2.411 6.255 4 9-7.408 8.145 12.288 7.845 14 16-3.059.725-2.941-1.725-6-1 6.646 6.353 14.835 11.165 20 19v7zM100 89c7.803-5.53 12.443-14.223 20-20-1.41-3.822 2.612-7.282 0-9-6.624 8.423-17.124 23.479-20 29zm-21 18c.056-12.673 8.422-27.494 5-37-.428 12.911-8.253 23.74-5 37zm29-23c4.419-2.265 11.941-6.703 11-11-3.143 4.191-7.06 7.606-11 11zm2 4c3.554-1.295 3.635-2.26 8-1-.547-1.453 1.168-5.168-1-5-1.722 2.611-6.498 2.168-7 6zm-39 33c.91-1.757 3.504-1.829 5-3 .381-6.27-.503-12.867 0-19 .364-4.439 4.096-14.666 2-13-2.458 10.88-7.125 24.868-7 35zm-11 7c.736-4.497 3.113-17.236-1-20 .655 6.345-1.318 15.318 1 20zm3 3c7.179-2.086 2.507-12.272 0-16v16zm-5 3c-.317-3.35-1.03-6.304-3-8-.352 4.019.016 7.317 3 8z" fill-rule="evenodd"/></svg>