<svg xmlns="http://www.w3.org/2000/svg" xmlns:dc="http://dublincore.org/documents/dcmi-terms/" height="347.082" width="269.399"><metadata><dc:description>Silhouette of Platycerus, processed by PhyloPic Tools (https://github.com/eweitz/phylopic-tools)</dc:description><dc:source>http://phylopic.org/image/791f3150-6969-4ea6-a414-64a3fdb00075</dc:source><dc:creator>Melissa Broussard</dc:creator><dc:license>http://creativecommons.org/licenses/by/3.0/</dc:license></metadata><g stroke="#000" stroke-width=".398"><path d="M125.952 51.18a1.834 1.834 0 0 0-.41.062c-1.208-.15-.013.484.385.772.063.783-1.128.784-.996 1.333.514.155 1.093.336.51.759-.175.678-1.558 1.422-1.306.2.126-.57-.17-1.715-.648-.648-.807.601-1.32 1.468-1.656 2.403-.367.82-.84 1.651-.685 2.59.001.038.01.074.013.112-.685.008-1.345-.01-1.955-.1.202-.744.46-1.473.622-2.229.94-2.02-1.347-2.395-2.465-1.133-1.177.829-2.516 2.611-2.926 3.088l.685.112c-1.785.176-3.286.896-3.374 3.1.917 2.217-1.154 3.235-1.096 5.08 0 .026-.01.05-.012.075-1.57 1.273-2.178 3.564-2.13 5.54.525.928.388 2.237 1.034 3.076.02.465.063.94.15 1.407.802 2.566-.702 5.177-.822 7.881l.1 1.059a7.616 7.616 0 0 0-1.283.087l.623-.884c-.807-.261-1.583-.636-1.806-.834-.937-.061-1.805-.55-2.69-.785-.716-.502.24-1.762-.111-2.602.392-.54-.74-.724-.125-.66-.733-.396-1.735.97-1.32-.324-.08-1.016-.112-2.066-.398-3.062-.286-.93-1.047-1.842-1.93-.947-.28.718-.415 1.705-.71 2.241-.512.057-1.055 1.517-.946.262.1-1.15.19-2.303.15-3.461.064-.948-.26-1.84-.3-2.79.076-1.26-1.519-1.367-1.655-.136a3.777 3.777 0 0 1-1.992 2.465c-.429-.663-.172-1.548-.237-2.316-.174-.647-.135-1.412-.274-2.154-.09-1.16-.458-2.278-.784-3.387-.667-.703-1.6-1.147-2.515-1.656a1.62 1.62 0 0 0-.747-.161c-.732.018-1.41.513-1.955 1.008-.549 1.046-1.13 2.133-.971 3.362.011.966-.098 1.931.236 2.851-.004 1.17.97 1.763 1.669 2.528.712.646 1.276 1.252 2.141 1.643.492.58 1.995.282 1.195 1.407-.41 1.055.36 1.801 1.32 2.08.917.538 2.293.687 2.914 1.444-.182 1.122.097 2.362 1.382 2.602 1.025.5 1.867.84 2.9 1.357.865.493 1.769.883 2.678 1.282.48.34 1.01.587 1.544.835-.375.249-.778.524-1.258.846-2.659 1.787-4.301 7.563-4.383 8.928-.263 4.414-1.16 7.679-2.415 15.214-.76 4.562.07 8.88 2.353 12.053a9.099 9.099 0 0 0-.871.037c-2.143.324-4.432-.07-6.512.685-.005.003-.008.009-.013.012-1.893-2.353-4.344-4.003-6.636-5.802-2.496-2.063-4.644-4.625-7.047-6.76-1.803-2.174-4.322-4.402-6.823-5.603-1.542-1.279-3.409-2.063-5.055-2.702-1.17-.52-2.682-.959-3.984-.91a3.765 3.765 0 0 0-1.208.225c-.049.68 1.27 1.21 2.366 2.017-.01.003-.017-.004-.025 0 .04.096.047.19.05.286-.233.025-.432.04-.436-.074-.264.023-.586.13-.972-.013-.474-.013-1.108-.257-1.668-.174-.236-.136-.409-.172-.535-.137-.305-.25-.572-.603-.91-.635-.405-.507-1.333-.686-1.88-1.457-.462-.298-.7-.818-.958-.572.02.066-.29.336-.486.522-.96-.788-1.644-1.907-2.515-2.789-.262-.583-.905-1.037-1.344-.784-2.24-2.883-5.346-5.768-8.778-6.4-.158.043-.297.11-.436.175a6.147 6.147 0 0 1-.598-.324c-.62-.176-1.26-.32-1.905-.336-.925.117-1.817.404-2.677.76-.538.36-1.103.86-1.282 1.506 0 .542-.063 1.084-.012 1.618.501-.298.504-1.164 1.145-1.444a3.12 3.12 0 0 1 .959-.672c-.162.32-.277.658-.324 1.008.036.484-.178 1.363.349 1.557.179-.478.303-1.002.597-1.432.249-.579.872-.781 1.37-.374h.05c.064.08.14.138.249.137.254.285.34.902.697.797.238.891 1.108 1.461 2.652.76 2.905.192 4.875 2.394 6.898 4.283-.345.385-.656.77-.486 1.22l-.635-.46c-.977.195-1.984.19-2.975.21l.024.013c.454.012.905.015 1.358.038.749.037 1.495.133 2.24.211.042.103.103.212.2.324.885.99 2.562.076 3.399 1.183.13.272.359.412.61.523-.027.417-1.163 1.018-1.233 1.257l-.336-.249c-.066.013-.134.019-.199.038-.781.226-.408.194-1.444.385-.446.083-.897.133-1.345.2l.012.012c1.185-.177 2.403-.396 3.599-.174l-.15-.112c.068.007.158.012.287 0 .439.135.715.252 1.295.274-.564.17.239-.019.734.261.334.036.983.058 1.258.286.124-.162.917.036 1.17.125.058-.086.32-.04.585.037-.013-.115.428-.09.673.262v.15c-.119.563-.255 1.128-.673 1.543l-.373-.236c-.651.483-1.47.687-2.229.933l.087.05c.93-.18 1.87-.329 2.79-.56l-.026-.012c.032-.007.053-.024.075-.038.566-.084 1.12-.41 1.644-.498.549.12.956-.02 1.481.125.157-.596.538-.699.722-.312-.096.21-.173.362-.112.511.135.375-.296.293.025.361.462.28.777.39 1.283.361.052.071 1.16.098 1.867.174 1.04 1.594 2.216 3.138 1.98 5.018l-.374-.224c-.169.2-.381.36-.585.523-.186.155-.37.307-.548.473a4.227 4.227 0 0 0-.373.486c-.24.354-.443.738-.635 1.12-.375.753-.716 1.52-1.021 2.304a8.418 8.418 0 0 0-.46 1.88c-.031.244-.05.828-.063 1.07.027.798.008.391.062 1.196l.299.15c-.037-.79-.032-.398-.012-1.171.079-.988.193-1.976.572-2.901.286-.712.621-1.407 1.034-2.055l.137.075c.529-.482.24-.242.834-.722.799-.558 1.644-1.087 2.615-1.27.084.011.184.028.249.037-.399.418-.872.749-1.32 1.108-.167.134-.334.286-.498.424l.261.162c.46-.354.93-.697 1.432-.984l.174.124c.417-.159.844-.299 1.283-.386-.02.02-.043.032-.062.05l-.05.05c-.25.214-.538.391-.81.573-1.32.883.292-.166-1.17.784-.9.616-.447.313-1.357.884l.15.1c.877-.607.41-.322 1.37-.884.184-.101.373-.2.56-.299-.122.12-.243.242-.449.448l.237.15c.56-.477 1.147-.987 1.83-1.283.075-.032.158-.052.237-.074-.506.309-1.006.635-1.495.97l.374.237c.668-.447 1.367-.875 2.166-1.033l-.498-.324.498.187c-.242-.15-.484-.327-.734-.473.092.02.193.032.286.05l-.436-.312c.511.214.998.507 1.42.922l-.2-.137c-.559.56-1.264.96-1.904 1.42-.174.123-.34.256-.51.385l-.412.062.025.013.399-.063.249.15c.847-.628 1.741-1.2 2.751-1.532 1.02.74 2.01 1.56 2.951 2.453l-.174.075-.062-.037c-.58.351-1.246.497-1.893.672l.224.162.224-.037a2.51 2.51 0 0 0-.348.31l.684-.373c.587-.103 1.178-.213 1.768-.286l-.56-.386.15-.087c.504.479.998.98 1.469 1.506.374.418.735.847 1.083 1.295 1.684 2.197 3.816 3.896 6.113 4.993.419.462.837.906 1.283 1.32 1.21 1.56 2.034 3.535 3.125 5.217a1.706 1.706 0 0 1-.685.36c.832 1.874 3.488 1.203 5.13 1.62 1.357.162 2.727.292 4.109.286 1.562.203 3.233-.445 4.843.249.31.077.604.168.896.274-3.033.187-5.938 1.072-7.781 2.764-1.722 1.58-2.688 5.767-3.25 10.409-2.025.129-4.112.128-5.989.958-1.338.447-2.15 1.55-2.59 2.827-.206.122-.415.245-.61.373-.745.405-1.66.98-2.104 1.345-.51.359-.871.64-1.345.983-.49.26-.756.529-1.12.748-.416.269-.724.581-1.17.809-.465.283-.845 1.026-1.383 1.245-.709.199-.578.85-.672 1.47-.158.355-.905.45-1.195.82-.51.378-.517.5-1.058.897-.317.175.357.72-.15 1.046-.26.43-.9.766-1.195 1.046-.253.431-1.344.527-1.195 1.208-.029.655-.67.204-1.196.822-.483.433.402.867-.15 1.344-.26.157-.471.854-.746.897-.248.265-.76.922-.61 1.046-.226.118-2.56.778-1.27.983.103.26 1.007.281.821.585-.16.048-.306.11-.423.2-.957.223-2.935.266-2.241.996.095.085.56.61.735.722.12.397-.438.993-.536 1.457-.089.322-.87.2-1.394.224-1.48-.368.578.59.012.684-.664.21-.847.247-1.47.449-.689.225-2.014.589-.846.958-.044.146.371.37.473.61.305.053-1.22.765-.523.748.27.21.394.609.598.97-.263.332-.353.56-.672.822-.126.403-.786.884-.971 1.208-.462.309-.71.6-1.27.971-.581.293-.337.403.037.66.08.318.183.268-.187.61-.188.285-.488.567-.685.822-.196.225-.612.779-.597.822-.135.277-.331.326-.523.76-.296.272-.523.732-.822.97-.184.46-3.398 3.59-3.524 4.047.865.4 2.631-.433 2.951.324-.436.465-.964 1.128-1.469 1.618-.064.53-.877.832-1.108 1.17-.438.394-.841.687-1.233.947-.3.092-.73.505-.958.66-.354.121-.574.498-1.009.573-.185.19-.686.42-.871.61-.564.058-.178.759-.137 1.232-.19.097-.388.16-.51.324-.445.193-.643.324-1.171.635-.523.418-1.122.672-1.644 1.083-.506.206-.801.503-1.22.76a1.041 1.041 0 0 0-.361.187l-.112.05c-.097.205-.22.597-.56.211.008.653-.182 1.246-.337 1.88-.237.103-.53.163-.809.274-.461.104-1.075.32-1.32.61-.385.127-.855.552-1.17.623-.289.294-.763.567-1.195.71-.894.188-.608.462-.61 1.307-.026.133-.033.226-.05.323-.139.028-.283.058-.411.15-.47.107-.877.153-1.345.299-.376.15-.799.297-1.282.386-.499.199-1.291.258-1.793.298-.139.116-.154.368-.15.66-.574.03-1.115.067-1.593.175-.557-.003-.887.134-1.27.31-.713.289-1.288.513-2.13.848-.518.28-.954.518-1.406.66-.342.204-.708.437-1.096.572-.206.316-.72.26-.847.536-.622.238-.643.405-1.12.71-.491.315-.858.91-1.195 1.244-.243.46-.679.707-.76 1.308-.262.938-.76 1.948-.76 2.9-.894 1.719-1.005 3.83-.273 5.629.414 1.678 2 2.994 3.735 3.038.505-.006.135-.527-.137-.61-.568-.37-1.297-.52-1.718-1.084-.579-1.176-.857-2.537-.722-3.847 1.043 1.11 2.831 1.24 4.183.635-.427-.409-1.02-.522-1.556-.722-.584-.197-1.224-.513-1.52-1.071.611-.024 1.283-.238 1.383-.76.161-.838.52-1.149.685-1.705.348-.53.776-1.075 1.195-1.669.341-.642 1.043-1.227 1.37-1.68.58-.523.993-1.027 1.444-1.345.447-.159.958-.85 1.506-.946.062-.274.803-.42 1.046-.586.676-.101 1.387-.176 2.08-.373.408.275.883.6 1.145.585-.829 1.409-1.8 2.718-2.714 4.071l.012.013c.935-1.383 1.872-2.811 3.312-3.723l-.486-.398c.277-.205.774-.52.797-.673.395-.233.726-.467 1.009-.784.172.08.551-.369.697-.436.367-.122.624-.4 1.183-.71.83-.271-.15-.059.498-.211l-.013-.038c.197.234.427.753.56.822.036.06.096.06.163.037-.268.312-.57.6-.847.897-.568.61-.534.581-1.108 1.22-.747.925-.38.465-1.096 1.37l.1.074c.67-.94.3-.476 1.083-1.37.784-.76 1.61-1.529 2.577-2.054.078-.042.168-.063.25-.1l-.374-.323c.043-.014.09-.029.137-.037.368-.253.353-.305 1.145-.884.533-.576.99-.947 1.345-1.594.417-.564.895-1.091 1.282-1.668l-.037-.125c.042.018.082.045.125.062.313.048.66.207.97.274-.246 1.106-.47 2.214-.697 3.325l-.161.946.037.025c.069-.303.143-.606.212-.91.198-.765.402-1.51.71-2.24.152-.362.208-.516.423-.822.043-.062.1-.116.149-.174l-.212-.162c.106-.043.187-.125.237-.274.304-.406.575-.527.797-1.083.31-.4.766-1.054.996-1.345.306-.477.608-.912 1.008-1.42.33-.44.534-.723.785-.996.153-.117.202-.166.224-.186.01-.01.03-.03.012-.013.015-.015.074-.065.112-.1.212.045.533-.019.996 0 .262.058.45.092.598.1-.046.133-.102.266-.15.399-.093.26-.175.53-.286.784-.206.473-.431.894-.66 1.32.235-.42.497-.827.797-1.208.219-.277.562-.603.834-.859l-.51-.436c.206.006.334-.053.473-.286.167-.563.55-1.014.797-1.544.351-.251.406-.459.585-.647.215-.402.511-.8.785-1.084.247-.38.537-.398.846-.921.426-.251.664-.716 1.046-1.183.275-.285.54-.678.772-.934.207-.196.313-.286.361-.323.013-.013.04-.02.037-.025.021-.03.008-.032.063-.1l-.66-.946c.41.306.82.682 1.606.61.076-.005.152-.002.224 0 .22.078.447.117.685.1.057.013.118.023.174.037.06.541.065 1.095.162 1.631.087.6.483 1.075.66 1.643.119.691.338 1.369.573 2.03.09.224.15 1.38.286.81.028-.518.095-1.027.1-1.545.085-.6.024-1.208.136-1.805-.042-.59.174-1.168.025-1.756.072-.342-.298-.585-.41-.834-.059-.011-.115-.066-.137-.174l-.013-.013c.017-.007.033-.005.05-.012.238-.074.746.029 1.033-.212.054.434.058.871.075 1.308.045 1.19.015.17.037 1.394.058.922.015 1.845-.05 2.764l.324.162c-.059-.935-.114-1.877-.05-2.814.03-1.157.008-.225.063-1.332.027-.56.031-1.131.162-1.68l-.374-.188c.003-.016.01-.031.012-.05.099-.532.434-1.269.747-1.904.313.95.337 1.97.374 2.963l.299.15c-.076-.996-.081-1.991-.075-2.989l-.535-.249.386-.772c.13-.289.269-.578.41-.859.155.775.21 1.58.237 2.366.06.64.064 1.286.075 1.93l.299.149c-.054-.648-.109-1.292-.112-1.942-.04-.9-.05-1.811.1-2.702l-.387-.187c.249-.474.5-.941.76-1.407.144.472.177.979.211 1.47.064.912.051.578.063 1.506.005 1.046.012.535-.038 1.544l.187.087c.008-1.021-.003-.505.025-1.544.03-1.015.123-2.023.137-3.038l-.473-.224c.447-.8.893-1.605 1.282-2.44.096-.194.194-.387.299-.573.272.864.313 1.792.398 2.69l.212.099c-.011-.924-.015-1.841-.025-2.764l-.46-.224c.244-.418.504-.82.772-1.22.295.929.334 1.92.36 2.888 0 1.068.012.533-.037 1.581l.162.087c.034-1.046.012-.523.075-1.568.01-.241.024-.482.037-.723.012-.213.03-.433.037-.647.018-.483-.045-.962.013-1.444l-.585-.286c.347-.518.704-1.028 1.033-1.557a17.3 17.3 0 0 1 .087 1.955c-.013.154-.036.307-.05.46l.399.2c-.005-.164-.007-.334-.012-.498-.011-.83.013-1.66.161-2.478l-.273-.15.1-.174c.221-.311.424-.627.634-.946.08.396.103.807.125 1.208.045.85.04.845.037 1.718.025.908-.079 1.815-.187 2.714l.125.063c.024-.91.054-1.82.15-2.727.14-1.848-.015.072.149-1.631.035-.368.072-.74.1-1.108.007-.106.002-.218.012-.324.005-.063.015-.124.024-.187l-.261-.124c.27-.418.533-.85.797-1.27.238.867.214 1.785.199 2.677l.349.174c-.013-.55-.026-1.093 0-1.644.023-.493.034-.494.037-.473v-.012c.005-.013.02-.07.037-.336.005-.07 0-.142 0-.212l-.56-.261c.448-.714.892-1.426 1.37-2.117.052.462.065.93.074 1.394.01.499.01.871.013 1.37l.236.125c.01-1.063.005-2.148.25-3.188l-.275-.124a51.61 51.61 0 0 1 2.702-4.047c.995-1.736 2.423-3.217 3.437-4.943 1.097-1.47 2.045-3.137 3.15-4.482.391-.658.65-.719.896-1.283.466-.56.886-1.369 1.805-1.045l.063-.187c.32.878.826 1.663 1.693 2.08 1.532 1.135 3.414 1.321 5.217 1.717.239.072.476.134.722.175l.087.025c-.057 1.85-.104 3.361-.174 4.009-1.038 9.573-3.424 26.128-3.623 43.84-1.758 1.273-3.49 2.593-5.491 3.46-2.11 1.216-4.062 2.682-6.064 4.06-1.136.994-1.46 2.738-.846 4.096-.361.146-.345.22-.225.236-2.408 1.778-4.003 4.426-5.005 7.21-2.218 4.773-4.121 9.67-6.013 14.58-1.19 2.826-2.646 5.543-3.661 8.44-1.661 4.246-3.59 8.373-5.317 12.589-.415 1.418-2.559 3.232-2.24 4.594l-.524-.299c-.29.628-.725 1.164-1.232 1.631-.248.228-.525.422-.785.635l.025.013c.738-.558.848-.656 1.606-1.158.207-.137.415-.263.623-.399.115-.074.233-.164.349-.249.053.133.125.252.236.374.82-.01 1.551-.484 2.291-.91-.07.272-.139.548-.236.81-.36 1.546-1.435 2.686-2.391 3.885-.707.59-.61 1.058-.224 1.432-.708.67-1.324 1.436-1.955 2.191-.63 1.452-3.111 2.346-2.664 4.022-.518.45-1.03.9-1.594 1.295-1.088 1.093-2.577 1.884-2.951 3.46-1.642.532-3.131 1.422-4.657 2.23-.172.142-.263.358-.298.61a14.11 14.11 0 0 0-1.021.373c-2.303 1.149-4.616 2.322-6.699 3.848-1.401 1.226-3.134 2.168-4.096 3.822-.244.75-.758 1.4-.984 2.154v-.174c-.099.025-.452.183-.361.274-.223.2-.38.459-.573.684-.163.224-.474.42-.498.61-.1.056-.424.13-.236.274-.368.087-.459.538-.76.723-.212.326-.487.604-.61.983a2.899 2.899 0 0 0-.423.959c-.201.248-.209.629-.324.934-.051.346-.185.697-.15 1.046.118.13-.01.261.163.323-.125-.005.16.196.186 0 .162-.301.253-.642.51-.884.096-.179.19-.354.3-.523 0 .095-.002.191.012.287-.004.34-.095.73.162 1.008.249.41.495.88.971 1.059.184.231.547.114.224-.137-.224-.363-.203-.8-.187-1.208-.076-.414.053-.799.262-1.146.433-.827 1.043-1.547 1.569-2.315.227-.293.435-.61.734-.835.676.266 1.508.185 1.98-.398 1.442-.625 2.091-2.153 3.088-3.262 2.468-2.068 4.859-4.252 7.483-6.126l.087-.2c.225.216.483.375.76.412-.477 1.146-1.222 2.149-1.943 3.15l.012.012c.228-.315.445-.641.685-.946.554-.703 1.186-1.382 1.943-1.868l-.573-.348c.31.003.634-.128.959-.474 1.017-1.059 2.139-2.002 3.287-2.926l.024-.1c.267.199.547.344.822.387.013.05.03.099.038.15.064.397.077.725.087 1.132a27.5 27.5 0 0 1-.013 1.718c-.015.291-.05.582-.074.872l.087.05c.02-.293.033-.58.062-.872.03-.29.072-.582.112-.871.094-.67.18-1.35.349-2.005l-.336-.162c.307-.049.583-.267.759-.722.953-1.658 2.283-3.04 3.075-4.793l-.074-.237c.275.307.548.556.909.535.113.452.241.87.274 1.345.023.35.018.707 0 1.058.034-.33.072-.655.124-.983.04-.25.119-.5.174-.747.027-.118.05-.23.075-.349l-.635-.324c.172-.012.357-.078.573-.236 1.494-2.037 1.807-4.7 3.274-6.773l-.821-.586c.351.187.72.348.983.474.192.117.372.19.536.224.026.128.066.255.074.386.032.506-.026 1.381-.087 1.842-.025.192-.064.383-.1.573.032-.19.07-.384.113-.573a8.74 8.74 0 0 1 .684-1.98l-.485-.236c1.178.012 1.564-2.126 1.656-3.138-.216-1.56.158-3.08.958-4.432l-.473-.299-.025-.062c.41-.03.84.05 1.308.311.099.051.204.099.299.137.043.195.086.388.112.585.117.514.058 1.06.249 1.557.237.428.541.837.697 1.307.114.413.235.828.336 1.245.206.8.19 1.625.374 2.428.239.341-.022.999.373 1.17.362-.21.351-.71.399-1.083.17-1.107.213-2.24.024-3.35-.063-.47-.223-.926-.348-1.381-.15-.798-.56-1.506-.822-2.266l-.087-.062c.481-.104.87-.404 1.208-.81.15.485.287.97.423 1.457.333 1.189.163.528.486 1.756.307 1.213.151.618.423 1.805l.075.025c-.305-1.193-.155-.595-.436-1.805-.18-.84-.198-.859-.336-1.681-.09-.537-.187-1.097-.187-1.644 0-.083.018-.166.025-.249l-.162-.075c.335-.519.596-1.126.822-1.73.35.92.554 1.892.76 2.851.194.826.314 1.675.423 2.515l.186.087c-.202-.841-.41-1.69-.51-2.552-.167-1.078-.338-2.15-.436-3.237l-.261-.125c.099-.281.2-.55.286-.797.057-.15.117-.298.174-.448.108.309.201.623.3.934.519 1.65-.044-.178.485 1.581.266.807.47 1.626.66 2.453l.174.087c-.264-.818-.526-1.637-.71-2.478-.218-.963-.435-1.947-.473-2.938l-.261-.112c.248-.65.488-1.305.734-1.955.336.916.645 1.845.934 2.777.289 1.05.16.528.374 1.531l.186.087c-.297-1.033-.153-.507-.473-1.581-.298-1.099-.625-2.216-.66-3.362l-.137-.062c.18-.482.365-.96.536-1.444.283.468.484.995.672 1.506.302.82.314.897.573 1.743.318 1.187.172.607.423 1.731l.112.05c-.336-1.147-.173-.561-.473-1.756-.283-1.1-.524-2.215-.822-3.312l-.41-.174c.28-.809.548-1.629.784-2.453.117.26.293.7.36.872.334.833.629 1.671.935 2.515l.025.012a46.065 46.065 0 0 1-.623-2.378c0-.003-.184-.8-.2-.884-.013-.08-.015-.156-.024-.236l-.386-.175c.11-.392.204-.786.299-1.182.092-.357.195-.706.299-1.059.504 1.025.91 2.09 1.295 3.163.307.814.517 1.656.71 2.502l.149.075c-.261-.837-.505-1.672-.747-2.515-.282-.89-.219-.681-.474-1.544-.144-.49-.29-.98-.385-1.482-.015-.074-.016-.16-.025-.236l-.449-.2c.276-.914.57-1.825.884-2.726.319.81.558 1.648.772 2.49.286 1.187.148.581.399 1.793l.062.037c-.212-1.185-.108-.601-.311-1.755-.17-.878-.086-.464-.088-.473a13.61 13.61 0 0 1-.074-.374c-.026-.142-.03-.178-.112-.622-.092-.491-.21-.97-.25-1.47l-.223-.112c.198-.563.39-1.129.585-1.693.4.94.668 1.938.971 2.913.22.8.455 1.597.647 2.403l.137.063c-.216-.796-.412-1.594-.622-2.39-.211-.96-.462-1.92-.523-2.902l-.548-.261c.268-.78.526-1.563.76-2.354.034.064.064.117.112.212.488.977.919 1.981 1.37 2.976.508 1.18.263.596.734 1.743l.05.025c-.51-1.153-.253-.565-.735-1.743-.422-1.098-.882-2.2-1.096-3.362l-.348-.15c.014-.05.035-.098.05-.149.316-.725.59-1.458.846-2.204.53.963.922 1.992 1.32 3.013.383 1.055.207.546.535 1.557l.162.062c-.39-1.025-.205-.495-.573-1.556-.364-1.062-.74-2.125-1.02-3.213l-.324-.15c.284-.847.542-1.706.797-2.564.158.414.165.505.286.959.203.757.387 1.52.585 2.278l.174.797.137.062-.199-.809c-.192-1.07-.373-2.137-.423-3.225l-.51-.249c.286-.97.575-1.938.883-2.9 1.3-3.915 2.877-7.745 4.147-11.667.296.095.611.12.92.112.222.057.397-.337.599-.112.269-.065.285-.424.51-.56a1.03 1.03 0 0 1 .137-.088c.276.422.552.846.822 1.27 1.323 1.327 3.384 1.068 5.03.623 1.498-.429 2.975-1.204 4.557-1.183 2.306 27.279 12.3 53.055 42.632 56.639.215-1.574.421-3.157.622-4.731.003.012.01.024.013.037.629.555.557 1.188.51 2.117.914.389.971 1.004.784 1.157 1.888 2.577 4.375 3.724 6.213.038.782-1.283.915-.502 1.22-.934.09.838.18 1.676.274 2.515 29.082-6.515 38.266-29.945 39.893-55.008 1.5.049 2.917.762 4.345 1.17 1.646.446 3.708.705 5.03-.622.324-.508.653-1.014.984-1.519 1.212 3.601 2.65 7.139 3.847 10.745.602 1.876 1.105 3.786 1.731 5.653l-.324.15c-.28 1.087-.656 2.15-1.02 3.212-.368 1.06-.183.53-.573 1.556l.161-.062c.33-1.01.153-.502.536-1.557.398-1.021.79-2.05 1.32-3.013.256.746.53 1.478.846 2.204.014.05.036.1.05.15l-.349.149c-.213 1.162-.673 2.264-1.095 3.362-.483 1.178-.226.59-.735 1.743l.05-.025c.47-1.147.225-.564.735-1.743.45-.995.881-1.999 1.37-2.976.046-.095.077-.148.111-.212.234.791.492 1.574.76 2.353l-.548.262c-.062.982-.312 1.943-.523 2.901-.21.797-.406 1.595-.623 2.39l.137-.062c.193-.806.427-1.603.648-2.403.303-.975.57-1.972.971-2.913.195.564.387 1.13.585 1.693l-.224.112c-.039.5-.157.979-.249 1.47-.083.444-.086.48-.112.622-.037.192-.078.398-.075.373-.002.01.082-.404-.087.474-.203 1.154-.1.57-.311 1.755l.062-.037c.251-1.212.112-.606.398-1.793.215-.842.454-1.68.772-2.49.315.901.61 1.812.884 2.727l-.448.199c-.009.075-.01.162-.025.236-.095.503-.241.993-.386 1.482-.255.863-.192.655-.473 1.544-.242.843-.486 1.678-.747 2.515l.15-.075c.192-.846.402-1.688.71-2.502.384-1.074.79-2.138 1.294-3.163.104.353.206.702.299 1.058.095.397.19.791.299 1.183l-.386.175c-.01.08-.011.156-.025.236-.015.084-.199.882-.2.884-.18.801-.399 1.588-.622 2.378l.025-.012c.306-.844.6-1.682.934-2.515.068-.171.244-.612.36-.872.237.824.504 1.644.785 2.453l-.41.174c-.298 1.097-.539 2.212-.822 3.312-.3 1.195-.138.61-.473 1.756l.112-.05c.25-1.124.105-.544.423-1.73.259-.847.27-.923.573-1.744.188-.511.388-1.038.672-1.506.17.485.356.962.535 1.444l-.137.062c-.034 1.146-.36 2.263-.66 3.362-.319 1.074-.175.547-.473 1.581l.187-.087c.214-1.003.085-.48.374-1.531.289-.932.598-1.86.934-2.777.245.65.486 1.306.734 1.955l-.261.112c-.038.99-.256 1.974-.473 2.938-.185.841-.446 1.66-.71 2.478l.174-.087c.19-.827.394-1.646.66-2.453.529-1.76-.034.068.486-1.581.098-.311.19-.625.298-.934.057.15.118.299.175.448.086.248.187.516.286.797l-.261.125c-.098 1.087-.27 2.159-.436 3.237-.1.862-.308 1.71-.51 2.552l.186-.087c.11-.84.228-1.69.423-2.515.206-.96.41-1.93.76-2.851.226.604.486 1.211.822 1.73l-.162.075c.007.083.025.166.025.25 0 .546-.097 1.106-.187 1.643-.138.822-.157.84-.336 1.68-.282 1.21-.132.613-.436 1.806l.075-.025c.271-1.187.116-.592.423-1.805.322-1.228.153-.567.486-1.756.136-.487.274-.972.423-1.457.337.406.727.706 1.208.81l-.087.062c-.263.76-.673 1.468-.822 2.266-.125.455-.286.91-.349 1.382-.189 1.109-.145 2.242.025 3.35.048.372.037.873.398 1.082.395-.171.135-.829.374-1.17.184-.803.168-1.628.374-2.428.101-.417.221-.832.336-1.245.156-.47.46-.88.697-1.307.19-.498.131-1.043.249-1.557.026-.197.068-.39.112-.585.095-.038.2-.086.299-.137.468-.261.898-.341 1.307-.311l-.025.062-.473.299c.8 1.352 1.175 2.871.959 4.432.092 1.012.478 3.15 1.656 3.138l-.486.237c.313.623.531 1.3.685 1.98.043.188.08.381.112.572-.036-.19-.074-.38-.1-.573-.06-.46-.119-1.336-.087-1.842.008-.13.049-.258.075-.386.163-.033.344-.107.535-.224.264-.126.632-.287.984-.474l-.822.586c1.467 2.073 1.78 4.736 3.275 6.773.215.158.4.224.573.236l-.635.324.074.349c.056.247.135.497.175.747.052.328.09.653.124.983a8.813 8.813 0 0 1 0-1.058c.032-.475.16-.893.274-1.345.36.021.633-.228.909-.535l-.075.237c.793 1.754 2.122 3.135 3.076 4.793.175.455.451.673.76.722l-.337.162c.168.656.255 1.335.349 2.005.04.289.083.58.112.871.029.292.042.58.062.872l.087-.05c-.025-.29-.06-.58-.075-.872a27.5 27.5 0 0 1-.012-1.718c.009-.407.022-.735.087-1.133.008-.05.025-.1.037-.15.276-.042.556-.187.822-.385l.025.1c1.148.923 2.27 1.866 3.287 2.925.325.346.649.477.959.474l-.573.348c.757.486 1.389 1.165 1.942 1.868.24.305.458.63.685.946l.013-.012c-.722-1.001-1.466-2.004-1.943-3.15.276-.037.534-.196.76-.411l.087.199c2.624 1.874 5.014 4.058 7.483 6.126.996 1.109 1.646 2.637 3.088 3.262.472.583 1.303.664 1.98.398.298.224.506.542.734.835.525.768 1.135 1.488 1.569 2.315.209.347.338.732.261 1.146.017.407.038.845-.187 1.208-.323.25.04.368.225.137.476-.18.722-.65.97-1.059.258-.278.167-.669.163-1.008.014-.096.01-.192.012-.287.109.17.204.344.299.523.258.242.349.583.51.884.027.196.312-.005.187 0 .172-.062.045-.193.162-.323.036-.35-.098-.7-.15-1.046-.114-.305-.122-.686-.323-.934a2.898 2.898 0 0 0-.424-.959c-.123-.379-.398-.657-.61-.983-.3-.185-.391-.636-.76-.723.189-.145-.136-.218-.236-.274-.024-.19-.334-.386-.498-.61-.193-.225-.35-.484-.572-.684.09-.091-.262-.249-.362-.274v.174c-.225-.754-.74-1.404-.983-2.154-.962-1.654-2.695-2.596-4.096-3.822-2.083-1.526-4.396-2.7-6.699-3.848a14.11 14.11 0 0 0-1.021-.373c-.036-.252-.126-.468-.299-.61-1.525-.808-3.015-1.698-4.656-2.23-.375-1.576-1.863-2.367-2.951-3.46-.565-.395-1.076-.846-1.594-1.295.447-1.676-2.035-2.57-2.664-4.022-.631-.755-1.247-1.521-1.955-2.191.385-.374.483-.842-.224-1.432-.957-1.199-2.032-2.339-2.39-3.885-.098-.262-.168-.538-.237-.81.74.426 1.471.9 2.29.91.112-.122.183-.24.237-.374.115.085.234.175.349.25.208.135.415.26.622.398.759.502.868.6 1.606 1.158l.025-.013c-.26-.213-.537-.407-.784-.635-.507-.467-.943-1.003-1.233-1.63l-.523.298c.318-1.362-1.825-3.176-2.24-4.594-1.727-4.216-3.656-8.343-5.317-12.588-1.015-2.898-2.471-5.615-3.66-8.442-1.893-4.909-3.796-9.806-6.015-14.58-.701-1.948-1.691-3.827-3.05-5.39.773-1.387.484-3.277-.722-4.334-2.002-1.378-3.954-2.843-6.064-4.059-2.096-.908-3.898-2.318-5.74-3.648-.814-17.916-4.091-34.918-5.304-45.396a21.633 21.633 0 0 1-.074-1.344c.456-.17.983-.289 1.245-.747a12.71 12.71 0 0 1 1.22-.337c.02-.005.041-.007.062-.012 1.837-.413 3.766-.596 5.33-1.755.868-.418 1.372-1.203 1.692-2.08l.063.2c.919-.324 1.34.484 1.805 1.045.247.564.505.612.896 1.27 1.105 1.345 2.053 3.025 3.15 4.495 1.014 1.726 2.442 3.207 3.437 4.943a51.613 51.613 0 0 1 2.702 4.047l-.262.124c.244 1.04.228 2.125.237 3.187l.236-.124c.003-.499.002-.872.013-1.37.01-.464.022-.931.075-1.394.475.684.912 1.396 1.357 2.104l-.548.261c0 .07-.005.142 0 .212.017.257.032.332.037.349v.012c.003-.02.015-.032.037.46.026.551.013 1.106 0 1.657l.35-.175c-.016-.885-.034-1.803.198-2.664.263.418.53.843.797 1.258l-.261.124c.01.063.02.123.025.187.009.106.005.217.012.324.027.368.064.727.1 1.095.163 1.703.009-.217.149 1.631.095.907.125 1.817.15 2.727l.124-.062c-.108-.9-.212-1.794-.187-2.702-.003-.873-.008-.881.037-1.73.022-.4.046-.803.125-1.196.21.32.425.634.647.946.033.06.066.116.1.175l-.286.137c.148.818.173 1.66.162 2.49-.005.164-.007.333-.013.498l.399-.212c-.014-.154-.036-.306-.05-.46-.01-.65.022-1.297.087-1.943.327.525.677 1.043 1.02 1.556l-.572.287c.058.482-.005.961.013 1.444.008.214.025.434.037.648.013.24.027.48.037.722.063 1.045.04.522.075 1.568l.162-.087c-.049-1.048-.036-.513-.038-1.581.027-.97.065-1.97.362-2.901.269.403.525.812.771 1.233l-.46.224c-.01.923-.001 1.84-.013 2.764l.2-.1c.085-.897.126-1.824.398-2.69.105.187.203.38.299.574.39.835.835 1.64 1.282 2.44l-.473.224c.014 1.015.107 2.023.137 3.038.027 1.039.017.523.025 1.544l.187-.1c-.05-1.009-.042-.485-.037-1.531.011-.928-.001-.607.062-1.52.034-.487.07-.986.211-1.456.26.466.511.933.76 1.407l-.386.174c.15.891.139 1.803.1 2.702-.003.65-.059 1.308-.112 1.955l.298-.162c.01-.643.016-1.289.075-1.93.027-.785.082-1.578.237-2.353.141.281.28.57.41.86.103.203.239.475.386.771l-.535.25c.007.997.001 1.992-.075 2.987l.3-.149c.036-.993.06-2.012.373-2.963.313.635.648 1.372.747 1.905 0 .02.01.031.012.05l-.373.186c.13.55.134 1.108.162 1.669.054 1.106.032.187.062 1.344.064.937.021 1.866-.038 2.802l.312-.162c-.065-.92-.108-1.843-.05-2.764.022-1.225-.008-.192.037-1.382.017-.437.033-.874.087-1.308.289.231.785.139 1.021.212.017.007.034.006.05.012l-.012.013c-.02.1-.07.133-.125.15-.098.257-.497.493-.423.846-.149.588.067 1.179.025 1.768.113.597.063 1.205.15 1.805.003.518.058 1.027.086 1.544.137.572.197-.585.287-.809.234-.66.454-1.339.573-2.03.176-.568.572-1.042.66-1.643.096-.536.102-1.09.161-1.631l.2-.05c.223.013.44-.015.647-.087.078-.003.153-.018.237-.012.785.072 1.195-.292 1.606-.598l-.66.946c.054.068.041.071.062.1 0-.002.016.007.025.012.024.034.045.064.012.013.049.037.154.127.361.323.232.256.497.65.772.934.382.467.62.932 1.046 1.183.309.523.6.541.847.921.273.284.569.67.784 1.071.18.189.234.409.585.66.247.53.63.968.797 1.532.143.237.272.308.486.298l-.523.436c.272.256.616.57.834.847.4.508.725 1.069 1.021 1.643-.309-.582-.608-1.125-.884-1.755-.11-.254-.192-.512-.286-.772-.048-.133-.104-.266-.15-.399.149-.009.336-.054.598-.112.464-.02.784.057.996.013.043.038.123.107.125.112-.02-.017-.098-.073.224.174.25.272.454.568.784 1.009.4.507.703.942 1.009 1.419.229.291.686.945.996 1.345.222.556.493.677.796 1.083.049.145.124.23.225.274l-.2.162c.049.057.107.112.15.174.214.306.27.447.423.81.308.73.51 1.487.71 2.253.069.303.143.606.211.909l.038-.038-.162-.933c-.227-1.112-.45-2.23-.697-3.337.31-.067.657-.227.97-.274.043-.017.084-.032.125-.05l-.037.112c.387.577.865 1.117 1.282 1.681.355.647.812 1.018 1.345 1.594.792.579.777.631 1.146.884.046.009.094.023.137.037l-.374.311c.081.036.171.07.25.112.967.525 1.793 1.295 2.576 2.055.784.893.414.428 1.084 1.37l.1-.075c-.716-.905-.35-.445-1.096-1.37-.574-.639-.54-.61-1.109-1.22-.276-.297-.579-.585-.846-.897.066.022.127.011.162-.05.133-.069.364-.575.56-.809l-.012.038c.648.152-.333-.06.498.211.559.31.816.588 1.182.71.146.067.525.516.698.436.283.317.613.538 1.008.772.024.153.52.468.797.672l-.486.411c1.44.911 2.377 2.34 3.312 3.723l.013-.013c-.912-1.348-1.875-2.668-2.702-4.071.267.005.741-.326 1.145-.598.689.195 1.395.273 2.067.374.244.165.984.324 1.046.597.549.097 1.06.776 1.507.934.45.319.863.835 1.444 1.357.327.454 1.028 1.027 1.37 1.669.419.593.846 1.15 1.195 1.68.164.557.523.868.685 1.706.1.522.77.724 1.382.748-.296.558-.936.886-1.52 1.083-.536.2-1.129.313-1.556.722 1.352.604 3.14.475 4.184-.635.134 1.31-.144 2.659-.722 3.835-.422.564-1.15.726-1.719 1.095-.272.084-.642.592-.137.598 1.736-.044 3.321-1.347 3.736-3.025.733-1.802.624-3.92-.274-5.64-.003-.95-.486-1.955-.747-2.89-.082-.6-.53-.86-.772-1.32-.337-.333-.704-.916-1.195-1.232-.477-.304-.498-.471-1.121-.71-.127-.275-.64-.22-.847-.535-.387-.135-.753-.368-1.095-.573-.452-.14-.888-.392-1.407-.672-.842-.335-1.416-.559-2.13-.847-.382-.176-.712-.302-1.27-.298-.478-.108-1.018-.144-1.593-.175.005-.292-.01-.557-.15-.672-.501-.041-1.294-.1-1.792-.299a6.665 6.665 0 0 1-1.283-.373c-.468-.146-.875-.192-1.345-.3-.128-.091-.272-.12-.41-.149-.018-.097-.024-.19-.05-.323-.002-.845.283-1.132-.61-1.32-.433-.142-.907-.403-1.196-.697-.315-.071-.785-.508-1.17-.635-.245-.29-.858-.494-1.32-.598-.278-.111-.572-.17-.81-.274-.154-.634-.343-1.24-.335-1.892-.342.386-.463.007-.56-.2-.04-.016-.075-.032-.113-.05a1.04 1.04 0 0 0-.36-.186c-.42-.257-.714-.554-1.22-.76-.523-.411-1.122-.666-1.644-1.083-.528-.311-.727-.443-1.17-.635-.122-.162-.312-.24-.499-.336.046-.473.409-1.163-.15-1.22-.185-.19-.685-.42-.87-.61-.435-.075-.655-.464-1.01-.586-.228-.155-.657-.555-.958-.647a10.37 10.37 0 0 1-1.22-.946c-.232-.339-1.057-.642-1.12-1.17-.505-.49-1.034-1.154-1.47-1.62.308-.775 2.083.079 2.95-.323-.124-.458-3.339-3.588-3.523-4.047-.298-.238-.525-.71-.821-.983-.193-.433-.388-.47-.523-.747.015-.043-.401-.597-.598-.822-.196-.255-.496-.537-.685-.822-.37-.342-.267-.292-.187-.61.374-.257.619-.367.038-.66-.56-.372-.809-.675-1.27-.983-.186-.325-.846-.793-.971-1.196-.32-.263-.41-.49-.673-.821.204-.362.329-.762.598-.971.698.017-.828-.695-.523-.748.102-.24.518-.464.473-.61 1.168-.37-.157-.745-.847-.97-.622-.203-.805-.239-1.469-.449-.566-.094 1.492-1.04.013-.672-.525-.024-1.306.098-1.395-.224-.098-.465-.656-1.06-.535-1.457.175-.112.64-.638.734-.722.697-.733-1.3-.783-2.253-1.009a1.301 1.301 0 0 0-.411-.2c-.163-.295.72-.327.822-.584 1.29-.205-1.045-.853-1.27-.971.149-.124-.35-.78-.598-1.046-.275-.043-.5-.74-.76-.897-.551-.477.334-.923-.149-1.357-.525-.618-1.167-.167-1.195-.822.149-.68-.943-.764-1.196-1.195-.294-.28-.935-.616-1.195-1.046-.507-.326.167-.871-.15-1.046-.54-.397-.548-.532-1.058-.909-.29-.37-1.036-.466-1.195-.821-.094-.62.037-1.258-.672-1.457-.538-.22-.918-.962-1.382-1.245-.447-.228-.755-.54-1.17-.81-.365-.219-.63-.499-1.121-.759-.474-.344-.834-.612-1.345-.971-.445-.365-1.347-.94-2.092-1.345-.2-.131-.41-.261-.622-.386-.44-1.27-1.256-2.368-2.59-2.814-2.103-.93-4.477-.81-6.723-1.008a45.578 45.578 0 0 0-1.046 0c-.579-5.085-1.668-9.997-3.81-12.115a9.15 9.15 0 0 0-2.204-1.594c.846.049 1.69.168 2.503.063 1.382.006 2.751-.124 4.108-.287 1.642-.416 4.298.255 5.13-1.618a1.694 1.694 0 0 1-.685-.374c1.097-1.69 1.93-3.666 3.15-5.23.437-.407.847-.853 1.258-1.307a16.933 16.933 0 0 0 6.113-4.98 23.87 23.87 0 0 1 2.553-2.789l.15.075-.561.386c.586.072 1.173.171 1.755.274l.698.386a2.458 2.458 0 0 0-.361-.324c.078.014.157.023.236.037l.224-.15c-.647-.174-1.313-.32-1.892-.672l-.062.038c-.056-.023-.107-.051-.162-.075a29.572 29.572 0 0 1 2.963-2.453c1 .333 1.886.909 2.727 1.532l.236-.15c.141.022.257.04.411.062l.025-.012-.41-.062c-.17-.129-.338-.262-.511-.386-.64-.459-1.333-.86-1.893-1.42l-.199.125a4.384 4.384 0 0 1 1.382-.896l-.41.298c.08-.015.168-.02.248-.037-.235.142-.467.32-.697.46l.498-.198-.498.336c.8.158 1.499.574 2.166 1.02l.374-.223c-.5-.344-1.014-.68-1.532-.996.092.027.187.061.274.1.683.295 1.271.793 1.83 1.27l.237-.138c-.206-.206-.327-.329-.448-.448.186.099.375.198.56.299.96.562.492.264 1.37.871l.15-.087c-.91-.571-.457-.281-1.358-.896-1.462-.95.15.111-1.17-.772-.316-.211-.649-.417-.922-.685.439.087.866.239 1.283.398l.174-.124c.502.287.972.618 1.432.971l.261-.162a26.183 26.183 0 0 0-.498-.41c-.447-.36-.921-.692-1.32-1.109.065-.01.165-.026.25-.037.97.183 1.816.712 2.614 1.27.594.48.306.24.835.722l.136-.087c.415.649.748 1.34 1.034 2.054.38.925.494 1.926.573 2.914.019.773.024.381-.013 1.17l.299-.15c.055-.804.035-.41.062-1.207-.013-.243-.032-.814-.062-1.058a8.421 8.421 0 0 0-.46-1.88 28.026 28.026 0 0 0-1.022-2.316 9.885 9.885 0 0 0-.635-1.109 4.229 4.229 0 0 0-.373-.485c-.177-.166-.362-.318-.548-.473a4.189 4.189 0 0 1-.585-.536l-.374.237c-.237-1.886.95-3.432 1.992-5.03.708-.075 1.803-.091 1.856-.162.505.03.833-.094 1.295-.374.32-.068-.123.014.012-.36.061-.15-.015-.3-.112-.511.189-.374.567-.266.722.324.525-.146.933-.005 1.482-.125.519.087 1.069.399 1.63.486.027.018.058.03.1.037l-.037.025c.919.231 1.858.38 2.789.56l.087-.062c-.758-.247-1.578-.45-2.228-.934l-.374.25c-.418-.416-.554-.981-.672-1.545v-.15c.244-.352.685-.376.672-.26.265-.078.528-.125.585-.038.253-.089 1.047-.3 1.17-.137.276-.229.924-.238 1.258-.274.496-.28 1.298-.103.735-.274.579-.022.855-.138 1.295-.274.137.013.23.01.298 0l-.161.125c1.196-.222 2.413-.003 3.598.174l.012-.012c-.448-.067-.899-.117-1.344-.2-1.037-.191-.664-.16-1.445-.385a2.438 2.438 0 0 0-.199-.05l-.336.261c-.07-.24-1.205-.852-1.233-1.27.251-.11.48-.238.61-.51.837-1.107 2.515-.205 3.4-1.195.094-.11.157-.211.199-.312.19-.46-.122-.852-.474-1.245 2.024-1.889 3.993-4.078 6.898-4.27 1.55.703 2.418.123 2.652-.772.36.107.443-.5.698-.785.11 0 .184-.057.249-.137h.05c.498-.407 1.12-.205 1.369.374.295.43.418.942.598 1.42.526-.194.312-1.062.348-1.545a3.227 3.227 0 0 0-.324-1.008c.36.156.692.401.96.672.64.28.643 1.145 1.145 1.444.05-.534-.012-1.089-.013-1.63-.178-.646-.732-1.147-1.27-1.507-.86-.355-1.764-.642-2.69-.76-.644.017-1.284.173-1.904.349-.181.11-.387.215-.598.311a2.527 2.527 0 0 0-.435-.162c-3.433.631-6.539 3.517-8.778 6.4-.44-.253-1.083.189-1.345.772-.87.881-1.555 2-2.515 2.789-.197-.187-.494-.445-.473-.51-.258-.247-.508.261-.971.56-.546.77-1.475.962-1.88 1.469-.335.031-.596.386-.897.635-.128-.042-.301-.017-.548.124-.56-.082-1.194.174-1.668.187-.386.143-.707.036-.971.013-.004.114-.205.1-.436.074a.788.788 0 0 1 .05-.286c-.01-.005-.016-.01-.025-.012 1.093-.805 2.414-1.326 2.365-2.005-1.459-.562-3.63-.01-5.192.685-1.646.639-3.513 1.41-5.055 2.69-2.5 1.2-5.02 3.441-6.823 5.614-2.402 2.136-4.55 4.698-7.047 6.761-2.294 1.8-4.755 3.436-6.649 5.79-2.08-.755-4.369-.374-6.511-.697-1.574-.125-3.083.206-4.62.435-.054.01-.107.017-.161.025 3.997-3.369 5.881-8.95 5.241-13.36l-2.739-18.875c-.53-3.657-2.05-5.138-4.146-5.827.02-.014.043-.023.062-.037.91-.4 1.825-.79 2.69-1.283 1.033-.517 1.876-.856 2.9-1.357 1.286-.24 1.564-1.48 1.383-2.602.62-.757 1.997-.906 2.913-1.444.96-.279 1.717-1.024 1.307-2.08-.8-1.125.717-.826 1.208-1.406.865-.391 1.43-.998 2.142-1.644.699-.765 1.66-1.357 1.656-2.528.334-.92.237-1.885.249-2.85.158-1.23-.423-2.317-.971-3.362-.591-.537-1.339-1.081-2.142-1.009-.185.017-.37.071-.56.162-.916.509-1.848.952-2.515 1.656-.326 1.108-.694 2.226-.785 3.386-.139.742-.1 1.508-.274 2.154-.064.768.192 1.653-.236 2.316a3.777 3.777 0 0 1-1.992-2.465c-.137-1.231-1.732-1.123-1.656.137-.04.95-.364 1.841-.3 2.789-.04 1.158.039 2.31.138 3.461.11 1.256-.422-.205-.934-.261-.295-.537-.442-1.524-.722-2.241-.883-.895-1.631.015-1.918.946-.285.997-.318 2.047-.398 3.063.416 1.294-.6-.073-1.332.324.616-.065-.505.12-.112.66-.351.84.604 2.099-.112 2.602-.885.234-1.752.723-2.69.784-.223.198-.999.573-1.805.834l.41.598-.522-.05c.305-1.546.077-3.272-.299-4.818.015-1.59-.107-3.13-.224-4.682.17-.013.346-.049.523-.112 1.422-1.866 1.935-4.675.46-6.674-.31-.42-.74-.751-1.195-1.033-.021-1.633-.147-3.176-.585-4.706.506-2.406-.606-4.942-2.839-5.292-.386-.88-.84-1.75-1.556-2.403-.408-.337-.778-.754-1.27-.959-.539-.081-1.034-.5-1.581-.386-.528.293-.566 1.037-.386 1.557.2.462.322.945.398 1.444-.404-.09-.81-.164-1.22-.224-.103-.066-.215-.126-.349-.2a5.448 5.448 0 0 0-1.158-.062c.995-.972.668-2.433.063-3.523-.197-1.404-1.529-1.65-2.677-1.283-.525 1.117 1.549.33 1.643 1.22 1.107.218 1.48 1.798.623 2.453.128-.44-.187-1.6-.598-.76.447 1.2-.529-.168-.946.213-1.244-.016-.082-1.18.921-1.432-.775-.251-2.36-.884-2.839.199-.27-.015-.584 0-.834.087-.01-.018-.027-.031-.037-.05v.075c-.328.128-.533.394-.324.971.248.96-.393 1.473-1.183.86-.325.41-.64 1.03-.834 1.68-.254.15-.442.389-.51.785.248.955-.52 1.369-1.345 1.431a7.088 7.088 0 0 0-.51-.224c-.192-.076-1.042 0-1.283 0h-2.552c-.042 0-.23-.01-.337-.012-.074-.259-.141-.46-.36-.498-.452-.218-.747-.36-1.22-.423-.501-.065-.696.127-1.159.174a.752.752 0 0 0-.187.05c-.55-.185-1.113-.372-1.506-.822-.654-.772-1.328-1.621-1.009-2.727.16-.77-.36-1.143-.896-.485-.873-.554 1.013-1.79-.311-2.242-1.13.248-1.823-.983-1.12-1.855.153-.93-.207-1.707-1.097-1.68zm93.158 52.916c.745-.078 1.491-.174 2.24-.211.454-.023.904-.026 1.358-.038l.025-.012c-.992-.02-1.999-.016-2.976-.212l-.647.473zm-8.442 4.37c-.465.135-.94.369-.374.225.267-.092.368-.171.374-.225zm-19.162 14.232l2.303.81c-.732-.326-1.383-1.026-2.303-.81zm27.616 81.926c.296.575.558 1.165.834 1.743l.013-.012c-.21-.44-.405-.885-.623-1.32-.074-.148-.15-.272-.224-.41zm-10.658-10.023a.311.311 0 0 0 .025-.112c-.242.056-.138.146-.025.112zm3.499 84.53c.031.19.053.381.087.572h.025c-.034-.19-.076-.383-.112-.573zm-78.677 2.913a12.903 12.903 0 0 1-.623-.934c.157.87.47 1.059.623.934zm-78.154-2.914c-.036.19-.078.382-.112.573h.025c.034-.19.055-.382.087-.573zm5.815-86.322c.106.021.205-.083-.025-.137 0 .046.005.093.025.137zm16.958-71.916c-.927-.225-1.58.47-2.316.797l2.316-.797zM58.73 106.65c.006.053.107.145.374.236.566.145.09-.102-.374-.236zm88.576-54.597a.1.1 0 0 0-.075.012c-.464.43-.677 1.468.211.847.26-.325.041-.816-.136-.86zm-1.694.548c-.022-.002-.047.005-.074.012-.185.051-.476.277-.623.224-.95-.217-.806 1.196.037.486-.19-.953.5.38.747-.51.015-.147-.021-.207-.087-.213zm8.056 7.632l.299.075c-.013.003-.025.009-.038.012-.085-.03-.175-.057-.261-.087zm-22.561 1.257c-.016.127.02.274-.012.374a27.709 27.709 0 0 1-.349-.324l.361-.05zm.623.934l.224.125c-.037-.011-.066-.02-.1-.025-.003-.002-.01.002-.012 0-.039-.032-.074-.068-.112-.1zm-90.48 32.36c-.017.054-.038.108-.05.162l-.025-.112.074-.05zm186.899 1.805l.087.063-.037.1c-.013-.055-.034-.109-.05-.163zM62.403 108.765c-.072.047-.135.11-.211.15-.245.126-.971.416-1.158.485-.754.28-1.58.529-2.341.772l.012.013c.44-.14.877-.297 1.32-.424.99-.284 2-.465 3.026-.548l-.648-.448zm144.592 1.818l-.648.436c1.026.083 2.037.276 3.026.56.221.064.44.127.66.2a38.06 38.06 0 0 1-1.669-.573c-.187-.07-.913-.36-1.157-.486-.076-.04-.14-.09-.212-.137zm3.038 1.195c.219.072.44.154.66.224l.012-.012c-.218-.07-.446-.14-.672-.212zm-141.84 2.852c.702.36 1.667.504 2.627.784l-.162.062c-.05-.01-.089-.013-.15-.025-.418-.08-.837-.162-1.257-.236l-.348-.237c-.085.048-.165.1-.25.15a4.969 4.969 0 0 0-.946-.038c.175-.145.356-.286.536-.423l-.05-.037zm-.71.647l.311.212c.138-.035.273-.067.411-.087-.568.347-1.12.711-1.656 1.108-.217.163-.254.184-.323.236a7.74 7.74 0 0 1 .473-.622c.14-.146.273-.314.398-.473.126-.13.252-.252.386-.374zm2.515.237c.085.016.141.02.274.05.033.006.067.017.1.024l-.162.063-.212-.137zm1.22.025l.113.037h-.063l-.05-.037zm.449.66a.932.932 0 0 1 .15 0c-.027.015-.05.034-.076.05l-.074-.05zm-.013.099l-.1.062-.024-.012.124-.05zm129.788.012l-.287.175c.178.135.363.267.536.41-.324-.024-.649.001-.971.038-.076-.045-.148-.093-.224-.137l-.324.224c-.428.076-.856.167-1.283.25-.062.011-.098.014-.149.024-.054-.02-.108-.043-.162-.062 1.074-.315 2.15-.455 2.864-.922zm.46.785c.137.123.271.241.399.373.125.16.257.316.398.461.175.205.332.425.486.647-.07-.051-.109-.078-.336-.249a22.926 22.926 0 0 0-1.656-1.108c.139.02.273.053.41.087l.3-.211zm-2.502.236l-.212.137-.162-.062.1-.025c.133-.029.19-.033.274-.05zm-1.208.025l-.037.025h-.037l.074-.025zm-123.823.336c-.929.186-1.865.318-2.802.449.33-.042.67-.068 1.058-.088.795-.04 1.6.02 2.391.1l-.647-.46zm123.213.324a.895.895 0 0 1 .137 0l-.062.05c-.026-.015-.049-.035-.075-.05zm.112.075l.162.062-.025.025c-.046-.028-.09-.06-.137-.087zm-122.367.485c-.162.084-.224.127-.423.2-.149.054-.31.087-.46.137-.762.253-1.526.48-2.292.722l-.921.261.037.025.91-.261c1.25-.294 2.513-.553 3.797-.648l-.648-.436zm119.703.922l-.635.473c.79-.08 1.583-.153 2.378-.112.462.023.856.072 1.245.124-1-.139-1.998-.287-2.988-.485zm-.96.896l-.647.436c1.284.095 2.547.354 3.798.647l.909.262.037-.025-.921-.261c-.766-.243-1.53-.47-2.291-.723-.15-.05-.312-.095-.46-.149a2.825 2.825 0 0 1-.424-.187zM65.529 185.101c.418 1.314.582 2.692.71 4.06l.013.858.1.05c-.014-.29-.025-.58-.038-.871-.01-.295-.01-.59-.025-.884-.053-.964-.161-1.935-.112-2.901l-.648-.312zm138.342 1.818l-.635.311c.049.967-.072 1.937-.125 2.901-.016.295-.014.59-.025.884l-.037.872.1-.05c.005-.286.008-.573.012-.859.128-1.367.292-2.745.71-4.059zM50.276 202.806c-.075.141-.149.274-.224.424-.218.435-.413.88-.622 1.32h.012c.276-.579.538-1.17.834-1.744zM22.1 219.852c.11.062.216.102.286.087.044.007.09.007.137.012l-.597.61c.048-.24.095-.476.174-.71zm225.186 1.817c.077.228.139.451.187.685l-.586-.585c.043-.005.085-.006.125-.012.068.014.168-.028.274-.088zm-170.788 3.897v.125c-.02.072-.056.133-.088.2.03-.109.06-.214.088-.325zm-23.084 44.3c-.25.48-.641.857-1.034 1.22-.6.557-.526.482-1.195 1.01-.693.528-1.456.948-2.216 1.369l.124.075c.739-.458 1.478-.893 2.204-1.37.45-.305.92-.604 1.37-.909.48-.326.933-.678 1.42-.996l-.673-.398zm160.267 0l-.672.399c.486.318.938.67 1.419.996.45.305.92.604 1.37.909.726.477 1.465.912 2.203 1.37l.125-.075c-.76-.42-1.524-.841-2.216-1.37-.67-.527-.595-.452-1.196-1.008-.392-.364-.783-.74-1.033-1.22zM50.936 285.929a40.95 40.95 0 0 1-.124 1.083c.053-.36.095-.72.124-1.083zm165.223 0c.036.363.078.721.124 1.083-.053-.36-.095-.72-.124-1.083zm-165.46 1.806c-.057.348-.119.69-.174 1.033l.013.012c.055-.346.106-.699.161-1.046zm165.696 0c.056.346.107.699.162 1.045l.013-.012c-.055-.344-.117-.685-.175-1.033z"/><path d="M149.138 62.368c.471-1.709.964-3.467.777-5.249-.155-1.39-.165-2.818-.72-4.128-.482-1.338-.593-2.81-1.483-3.974-.938-1.398-2.002-2.696-2.883-4.125-.86-1.422-2.298-2.323-3.71-3.115-.905-.682-1.876-1.423-3.023-1.578-.812.132-.044 1.581-1.07 1.89-.945.487-2.586.291-2.603 1.768-.018 1.05 1.329 1.392 1.629 2.382.622.967 1.117 2.012 1.712 2.985.311.838-1.156 1.139-.27 1.947.647.95 1.45 1.754 2.138 2.683.689.803.967 1.99 1.256 3.032-.028 1.065-.201 2.573-1.324 2.99-1.19.023-2.3-.436-3.484-.433-.863.734-.901 2.36-1.244 3.479l-.052.251-.054.251"/><path d="M121.694 62.368c-.471-1.709-.965-3.467-.777-5.249.155-1.39.165-2.818.72-4.128.481-1.338.592-2.81 1.483-3.974.937-1.398 2.001-2.696 2.883-4.125.86-1.422 2.297-2.323 3.71-3.115.904-.682 1.875-1.423 3.023-1.578.812.132.044 1.581 1.07 1.89.945.487 2.586.291 2.603 1.768.018 1.05-1.33 1.392-1.63 2.382-.622.967-1.116 2.012-1.71 2.985-.313.838 1.155 1.139.27 1.947-.648.95-1.452 1.754-2.14 2.683-.688.803-.967 1.99-1.255 3.032.028 1.065.201 2.573 1.324 2.99 1.19.023 2.3-.436 3.484-.433.863.734.9 2.36 1.243 3.479l.053.251.054.251"/></g></svg>