<svg xmlns="http://www.w3.org/2000/svg" xmlns:dc="http://dublincore.org/documents/dcmi-terms/" height="525.869" version="1.2" viewBox="0 0 583.442 525.869" width="583.442" overflow="inherit"><metadata><dc:description>Silhouette of Platyhystricinae, processed by PhyloPic Tools (https://github.com/eweitz/phylopic-tools)</dc:description><dc:source>http://phylopic.org/image/618f8a5e-df37-4947-8224-bec3c81f72ad</dc:source><dc:creator>Darren Naish (vectorized by T. Michael Keesey)</dc:creator><dc:license>http://creativecommons.org/licenses/by/3.0/</dc:license></metadata><path d="M316.442 12c1.15 2.801 1.15 5.199 0 8 3.777 4.881 10.719 2.344 20 4 15.513 2.769 37.68 22.438 39 31 .576 3.735-.938 7.049-2 11 2.225 7.442 6.133 13.201 10 19 19.336-10.855 33.452 13.303 25 33-2.246 1.753-7.521.478-10 2-.577 9.84 4.604 21.872 5 34 1.512 4.489 8.414 3.586 12 6 3.755 15.674-7.329 23.583-10 36-5.42 1.914-13.12 1.546-14 8 9.568 15.135-5.292 31.765-13 42-4.635-.366-2.863-7.137-7-8-4.278.389-4.764 4.57-5 9 1.587 3.08 7.256 2.077 9 5-.592 11.408-1.501 22.499-11 25-2.974-13.247-19.603-13.918-18 4 .78 2.887 4.837 2.496 7 4 7.854 9.17 16.825 15.906 27 26 11.637 11.544 25.733 22.646 36 36 51.552 20.448 83.831 60.169 129 87 12.432 10.235 29.852 15.481 38 30-12.398.913-23.733-.416-34-1-17.529-.997-37.013-1.124-52-8-13.414-6.154-19.158-20.66-30-27-11.925-6.973-30.464-10.94-47-9-15.906 1.866-42.478 18.279-67 10 3.54 21.034-20.115 60.306 6 68 .093 3.093-3.02 2.98-6 3 3.045 3.982 3.988 11.037 1 16-11.094 4.677-13.271-7.093-18-12 .224 13.086-6.476 26.982-20 20-.025-6.309.396-13.062-1-18-7.226 5.328-14.639 19.258-28 12-.811-5.477 3.34-5.993 3-11-5.7-.313-19.535 6.278-26 0 4.868-11.132 20.604-11.396 23-25-11.007 3.354-30.326 9.074-45 2-1.101 1.883.683 7.403-2 10-10.677-.322-12.464-9.536-21-12 .063 12.088.629 28.584-11 28-8.515-.428-7.805-10.655-11-19-6.973 5.693-9.403 15.93-22 16-4.748-7.188.153-13.2 4-19-2.633-1.351-9.344 6.287-15 2-1.645-7.754 6.794-12.885 12-17 5.521-17.486 18.183-49.565-2-59-6.965 1.034-15.845.075-22 4-4.106 2.618-5.131 7.439-8 11-5.152 6.395-11.312 12.305-17 17-6.802 5.615-13.971 5.93-23 11-7.37 4.139-19.664 31.018-26 9-10.503 1.721-23.34 7.439-32 0-.658-3.658 2.164-3.836 2-7-4.644 2.142-9.788-.723-15-1 2.396-5.604 7.023-8.977 16-8 3.766-1.234 5.656-4.344 8-7 16.314-5.686 25.048-18.952 35-31 7.875-2.458 13.124-7.543 16-15-5.578-2.756-6.885-9.781-10-15-8.041-2.626-12.098-9.235-21-11-4.744-14.589-15.792-22.875-22-36-23.529-15.649-46.333-29.103-50-59-1.097-8.94 3.494-18.913 2-29-1.301-8.787-12.206-19.073-5-33 20.039-20.252 35.648 9.961 58 12 6.703.611 12.207-2.606 18 0 7.372 3.317 16.59 10.915 25 17 14.421 10.434 30.136 17.548 44 27 8.215-6.999 1.805-22.109-4-29-1.454 1.546-5.119.881-8 1-15.48-9.924.593-39.521-16-47-3.91-8.369-10.241-27.823-2-36-.404-3.929-4.396-4.271-5-8 1.028-12.306 1.382-25.284 7-33-2.94-14.24 1.646-27.898 3-41 2.863-3.137 8.26-3.74 13-5-4.637-12.342 13.697-33.111 26-36 4.846-1.138 9.78.816 14 0 8.76-1.695 11.37-7.778 17-13-1.48-4.456-.323-6.2 1-10 15.301-7.366 33.182-12.151 56-12 .865 2.468-.256 6.922 3 7 4.741.407 3.082-5.585 5-8 22.588 1.079 37.856 9.478 59 12zm-77 459c10.908-7.428 19.216-26.115 24-43-5.154-5.847-12.043-9.957-21-12-.043 18.822-16.682 40.757-3 55z" fill-rule="evenodd"/></svg>