<svg xmlns="http://www.w3.org/2000/svg" xmlns:dc="http://dublincore.org/documents/dcmi-terms/" height="425.819" viewBox="0 0 414.58031 399.20502" width="442.219"><metadata><dc:description>Silhouette of Platanaceae, processed by PhyloPic Tools (https://github.com/eweitz/phylopic-tools)</dc:description><dc:source>http://phylopic.org/image/806a6ae9-28a0-4dc6-beeb-f6129a44f10e</dc:source><dc:creator>Michele M Tobias</dc:creator><dc:license>http://creativecommons.org/licenses/by-nc-sa/3.0/</dc:license></metadata><path d="M138.994 0l.59 2.75c.683 3.187.349 3.318-2.941 1.162-2.212-1.449-2.619-1.449-4.688 0-1.246.873-3.065 1.588-4.043 1.588-.977 0-1.777.419-1.777.932 0 .513-1.012 1.22-2.25 1.57-6 1.696-8.592 3.865-9.807 8.201-.956 3.417-1.947 4.68-4.693 5.983-2.851 1.353-3.841 1.426-5.475.406-1.622-1.013-1.905-.998-1.52.082.261.73.061 2.13-.444 3.111-.726 1.409-1.646 1.649-4.364 1.139-3.435-.645-3.44-.638-2.797 2.578.628 3.14.57 3.204-2.29 2.576-2.472-.543-3.282-.176-5.124 2.315-1.348 1.823-1.76 3.1-1.076 3.328.796.265.811.923.049 2.324-.585 1.075-1.308 2.742-1.605 3.705-.298.962-1.409 1.75-2.467 1.75-1.059 0-2.184.675-2.5 1.5-.317.825-1.212 1.5-1.99 1.5-1.5 0-2.929 3.736-2.002 5.234.301.489 1.63 1.3 2.95 1.803 3.018 1.147 3.086 3.481.155 5.36-3.038 1.946-6.643 2.276-10.254.94-1.648-.609-5.921-1.557-9.496-2.107-5.999-.922-6.626-.842-8.123 1.041-.999 1.257-2.248 1.801-3.25 1.416-1.311-.503-1.627.05-1.627 2.844 0 2.215-.777 4.246-2.148 5.617-1.751 1.751-1.936 2.488-1 3.987 1.656 2.651 1.426 4.875-.963 9.332l-2.11 3.935 2.194 1.778c1.74 1.409 2.057 2.402 1.53 4.798-.69 3.143.232 3.636 5.747 3.075.963-.098 1.75.3 1.75.884 0 .585-.482 1.063-1.068 1.063-.587 0-2.516 1.106-4.287 2.457-3.528 2.69-8.152 2.962-9.633.564-.76-1.23-1.336-1.068-3.545 1.004L29.965 106l-1.826-2.25c-2.388-2.944-3.818-2.845-4.611.318-.583 2.322-1.06 2.543-4.987 2.301-4.974-.306-6.11.304-3.931 2.111 1.217 1.01 1.827 1.014 3.025.02 1.22-1.013 1.5-.964 1.5.256 0 2.123-2.677 4.081-4.58 3.351-1.077-.413-1.777.044-2.129 1.389-.359 1.373-1.364 2.004-3.19 2.004-2.086 0-2.93.704-3.89 3.248-.79 2.094-.868 3.366-.219 3.582 2.173.724.846 2.17-1.992 2.17-4.897 0-3.781 2.761 1.432 3.543 2.528.379 4.68 1.308 5.007 2.164.327.85 1.236 1.247 2.1.916 1.008-.387 1.843.255 2.467 1.896 1.035 2.722 3.808 3.239 6.926 1.291 2.142-1.337 5.068.287 5.068 2.813 0 .803 1.043 1.377 2.5 1.377 1.375 0 2.5.45 2.5 1s1.364 1 3.031 1c1.985 0 3.244.604 3.649 1.75.34.962 1.458 2.686 2.486 3.832 1.285 1.433 1.997 4.086 2.28 8.5.5 7.81 1.123 9.573 3.622 10.227 2.546.665 2.44 1.662-.668 6.242-2.46 3.627-2.504 3.9-.808 5.14.985.72 2.378 1.309 3.097 1.309.78 0 1.311 1.18 1.311 2.924 0 2.137-1.145 4.02-4.25 6.99-2.337 2.235-5.011 4.068-5.941 4.074-.93.006-1.97.462-2.309 1.012-.34.55.138 1 1.063 1 1.35 0 1.446.284.486 1.441-.658.793-1.838 1.194-2.623.893-.977-.375-1.426.165-1.426 1.713 0 1.4-1.522 3.564-4 5.685-4.916 4.208-5.206 6.778-.86 7.647l3.143.627-2.693 2.498c-1.482 1.373-3.571 2.496-4.643 2.496-1.071 0-1.947.653-1.947 1.45 0 .796-1.161 2.699-2.58 4.23-2.03 2.19-2.45 3.426-1.969 5.802 1.272 6.283 1.144 6.943-1.451 7.49-3.692.78-8 4.007-8 5.995 0 .955-1.384 3.185-3.076 4.955-2.77 2.898-3.009 3.634-2.389 7.398 1.024 6.213 1.796 7.037 7.631 8.156 5.018.963 5.335 1.201 5.371 4.024.035 2.747 1.023 5.558 3.338 9.5.485.825 1.61 3.198 2.498 5.273.932 2.176 2.65 4.166 4.06 4.702 1.345.51 2.917 1.81 3.493 2.886.698 1.306 1.718 1.783 3.06 1.432 1.818-.475 2.014-.045 2.014 4.435 0 3.692-.512 5.425-2 6.772-2.657 2.404-2.523 4.832.443 8.033 1.753 1.891 3.025 2.453 4.5 1.985 5.049-1.603-.016 6.984-5.193 8.804-.962.339-1.75 1.538-1.75 2.666 0 1.688-.442 1.939-2.5 1.422-2.477-.622-3.524.84-1.498 2.092.664.41.641 1.297-.068 2.623-.766 1.43-.762 2.378.013 3.312 1.516 1.826.268 4.47-2.43 5.147-2.408.605-5.334 4.933-4.14 6.127.392.392 1.52.21 2.506-.406 1.369-.855 2.539-.756 4.963.418 3.035 1.47 3.343 1.417 7.105-1.19 2.474-1.715 4.167-3.797 4.567-5.617.862-3.929 1.786-4.267 5.664-2.076 3.406 1.925 3.766 3.212 2.35 8.41-.591 2.166-.41 2.75.85 2.75.88 0 2.162-.9 2.848-2 1.309-2.095 5.21-2.717 6.27-1 1.133 1.833 2.364 1.031 2.684-1.75.263-2.292.858-2.801 3.566-3.063 2.271-.219 3.25-.826 3.25-2.015 0-2.447 12.54-10.452 15.102-9.639 1.405.446 1.805 1.186 1.373 2.547-.424 1.335-.134 1.92.957 1.92 2.157 0 1.965 1.481-.409 3.129-2.574 1.787-4.028 9.87-1.775 9.87.828 0 2.067-.674 2.752-1.5.996-1.2.981-1.815-.066-3.077-1.12-1.35-.847-1.94 1.879-4.072 3.698-2.895 3.961-3.97 1.187-4.85-1.1-.35-2-1.015-2-1.479 0-1.423 8.617-5.105 10.373-4.431.908.348 2.272.119 3.03-.51 1.059-.88 2.21-.651 4.986.986 3.91 2.307 3.93 3.934.05 3.934-2.84 0-3.28 2.508-.972 5.559 2.213 2.926 1.868 3.91-2.022 5.765-3.259 1.554-4.16 4.271-1.015 3.065.751-.289 1.664-.045 2.027.543.363.587 1.984 1.068 3.602 1.068 3.35 0 3.888 2.16 1.369 5.494-1.294 1.712-1.643 1.783-2.453.5-.52-.822-.953-1.832-.961-2.244-.008-.413-.547-.75-1.2-.75-.652 0-2.252-1.001-3.554-2.225-2.186-2.053-2.57-2.11-4.985-.75-2.747 1.55-4.842 6.058-3.925 8.448.417 1.088 2.239 1.312 8.054.996 4.133-.225 7.766-.001 8.075.498 1.19 1.927 6.802 4.043 8.027 3.027.664-.55 2.696-.704 4.517-.34 2.907.582 3.228.443 2.622-1.136-.38-.99-.425-2.637-.1-3.66.458-1.442 1.194-1.718 3.271-1.225 1.476.35 3.359 1.191 4.184 1.87 1.981 1.632 4 .815 4-1.618 0-1.072.788-2.243 1.75-2.604 3.17-1.19 4.183-3.455 2.615-5.847-1.231-1.88-1.207-2.32.194-3.483 1.207-1.002 2.041-1.057 3.375-.225.974.61 3.862 1.42 6.418 1.803 4.283.643 4.648.532 4.648-1.416 0-3.084 2.231-2.57 4.25.977 1.989 3.494 4.089 3.417 4.584-.168.184-1.332.747-2.849 1.25-3.371 1.671-1.735.95-3.482-2.084-5.051-1.65-.853-3.056-1.315-3.125-1.025-.069.289-.181 1.087-.25 1.775-.146 1.462-4.506 2.304-5.611 1.084-.416-.46-1.048-2.072-1.405-3.584-.595-2.526-.406-2.75 2.309-2.75 2.779 0 2.923-.196 2.426-3.262-.403-2.482-.03-3.713 1.562-5.154 1.151-1.041 2.094-2.694 2.094-3.672 0-2.106 3.745-3.568 5.26-2.053.597.597 2.84.822 5.148.514 2.25-.3 5.33-.069 6.842.516l2.75 1.062v15.965l-.338 20.65c.33.862.096 7.396-.521 14.524-.829 9.559-.829 14.931-.004 20.474.614 4.133.835 11.796.49 12.141 8.847-.037 13.695-.103 22.542-.09l-.216-11.209s-2.283-19.492.486-34.48c1.802-9.752 3.406-15.255 5.952-20.405 4.16-8.419 9.138-15.521 10.877-15.521.69 0 1.718-1.013 2.28-2.25.564-1.238 1.635-2.117 2.38-1.953 1.981.434 8.095-2.694 8.787-4.496.342-.892-.108-1.942-1.06-2.475-2.065-1.155-2.156-2.826-.155-2.826.825 0 1.5.397 1.5.883s1.237 1.131 2.75 1.433c2.042.408 3.174.003 4.396-1.572.906-1.166 1.422-2.707 1.147-3.424-.855-2.227 2.842-2.854 4.385-.744 1.204 1.646 1.171 2.06-.244 3.096-.9.657-1.349 1.658-.999 2.224.862 1.395-2.984 5.104-5.292 5.104 0 0 1.086 1.948 3.347.008 1.218-1.011 1.944-.806 3.982 1.127 3.045 2.888 3.228 4.865.453 4.865-1.445 0-1.963.53-1.71 1.75.268 1.298 1.19 1.684 3.572 1.496 2.662-.21 3.213.1 3.213 1.817l3.646 1c1.294-1.018 2.354-2.375 2.354-3.016 0-.64.5-.857 1.111-.479.612.378 1.497.069 1.969-.69.718-1.153 1.206-1.162 3.006-.046 1.54.955 2.454 1.026 3.23.25 1.582-1.582 2.384-1.334 2.973.918.416 1.592 1.363 2 4.64 2 3.473 0 4.27-.392 5.07-2.5.583-1.53 1.736-2.5 2.975-2.5 2.13 0 2.725-1.45 1.026-2.5-.55-.34-1-1.491-1-2.559 0-2.328 2.759-2.577 5.558-.502 1.652 1.225 1.755 1.745.692 3.487-1.499 2.454-1.648 6.074-.25 6.074.55 0 1-.51 1-1.135 0-1.695 4.71-5.738 6.734-5.779.97-.02 2.845-.159 4.164-.31 3.352-.386 3.798 1.95.647 3.386-1.592.725-2.501 1.86-2.328 2.906.155.945-.548 2.635-1.561 3.756-1.806 1.999-1.776 2.1 1.5 5.078 4.006 3.643 5.572 3.86 6.096.848.376-2.165.435-2.146 1.545.5.897 2.14 1.824 2.75 4.177 2.75 1.834 0 3.026-.519 3.026-1.316 0-2.238 7.119-5.522 10.75-4.96 3.782.586 4.502-1.314 1-2.64-3.81-1.442 6.667-2.575 11.215-1.213 4.58 1.372 8.308 1.448 9.584.195.522-.513 2.75-1.075 4.95-1.25 3.214-.254 4.06-.74 4.307-2.472.183-1.28 1.255-2.393 2.639-2.74 2.955-.742 4.44-5.53 2.117-6.829-.86-.48-1.562-1.697-1.562-2.703 0-2.84-2.458-4.43-3.99-2.584-1.952 2.351-2.806 1.853-4.97-2.896-2.093-4.596-7.136-8.592-10.841-8.592-1.977 0-6.2-4.67-6.2-6.855 0-.576-.787-1.49-1.75-2.034-1.391-.785-1.497-1.243-.513-2.236.988-.997 1.722-.793 3.643 1.012 1.43 1.344 2.555 1.805 2.777 1.138.58-1.742 7.519 1.552 9.437 4.48.9 1.373 2.598 2.51 3.772 2.53 1.174.02 3.464 1.124 5.09 2.453 3.11 2.543 3.204 2.357-2.02 4.004-2.343.74-.8 2.349 2.922 3.047 1.95.366 5.501 2.62 8.717 5.535 2.984 2.705 6.1 4.934 6.926 4.953.825.02 2.372.697 3.44 1.504 1.067.808 2.807 1.469 3.866 1.469 1.55 0 1.782-.44 1.188-2.25-.406-1.237-.957-4.208-1.225-6.6l-.488-4.347 5.36.566c11.526 1.22 12.071 1.194 13.234-.672.898-1.44.773-2.004-.625-2.8-4.719-2.687.966-3.676 8-1.393 2.965.962 3.018-1.524.133-6.193-1.318-2.132-2.097-5.01-2.061-7.618.057-4.099-2.674-8.693-5.168-8.693-.548 0-1.828-.75-2.842-1.668-1.014-.917-2.623-1.74-3.578-1.83-5.364-.5-8.285-1.835-9.478-4.328-1.026-2.144-2.025-2.704-5.038-2.824-5.083-.204-6.718-.953-6.718-3.078 0-.986-1.125-3.006-2.5-4.489-3.109-3.352-3.259-5.157-.35-4.234 1.816.576 2.03.39 1.371-1.184-.429-1.026-.991-2.836-1.25-4.023-.258-1.187-1.775-3.409-3.37-4.938-3.404-3.26-3.846-6.404-.901-6.404 1.1 0 2 .419 2 .932 0 1.821 4.108 2.28 5.9.658.967-.875 2.621-1.598 3.678-1.606 1.057-.008 2.539-.406 3.295-.884 1.051-.666.698-1.197-1.5-2.252-2.592-1.244-2.873-1.864-2.873-6.315 0-4.133-.335-5.027-2.053-5.486-3.11-.83-9.595-8.497-8.844-10.455.485-1.263 1.404-1.493 4.012-1.004 2.977.558 3.385.38 3.385-1.477 0-3.043 1.443-2.609 4.779 1.438 2.026 2.458 2.78 4.297 2.457 5.986-.312 1.634.067 2.644 1.148 3.059 2.586.992 1.862 2.175-.996 1.629-2.367-.453-2.541-.277-1.86 1.888.412 1.314 1.86 3.426 3.22 4.694 2.948 2.749 12.685 4.91 14.676 3.258 1.944-1.614 10.812-.112 12.382 2.097 1.722 2.423 4.854 2.343 6.194-.16.588-1.1 1.701-2 2.474-2 2.692 0 2.618-2.008-.17-4.596-1.543-1.432-2.806-3.318-2.808-4.191-.002-.932-1.277-1.917-3.084-2.385-1.861-.482-3.54-1.813-4.246-3.361-2.054-4.509-1.554-5.363 3.01-5.156l4.173.189.131-4.318c.093-3.087-.527-5.212-2.176-7.446-1.268-1.719-2.304-4.205-2.304-5.525 0-1.56-.702-2.58-2.006-2.922-1.124-.294-2.811-2.343-3.838-4.658-2.186-4.931-4.104-6.668-8.305-7.527-2.218-.454-3.68-1.66-5-4.124-1.174-2.19-2.658-3.526-3.998-3.601-1.171-.066-2.54-.854-3.04-1.75-.502-.897-1.51-1.629-2.241-1.629-.73 0-1.888-.675-2.572-1.5-1.753-2.112-3.252-1.865-2.528.416.705 2.219-.861 3.534-3.158 2.652-1.442-.553-1.437-.775.051-2.42 1.814-2.004 1.257-3.148-1.533-3.148-1.009 0-1.832-.62-1.832-1.377 0-2.53-3-3.94-8.008-3.764-4.238.15-5.151-.17-6.549-2.302-.893-1.363-2.455-2.742-3.47-3.065-1.017-.322-1.988-1.575-2.16-2.781-.357-2.494-7.65-6.556-11.944-6.652-1.666-.038-4.154-1.539-6.793-4.1-2.29-2.223-5.27-4.463-6.621-4.977-1.674-.636-2.455-1.704-2.455-3.351 0-1.33-.737-2.7-1.637-3.045-1.49-.572-1.478-.804.154-2.607 1.425-1.575 3.084-1.979 8.112-1.979h6.32l-.62-3.25c-.34-1.787-.665-3.252-.724-3.254-.058-.002-1.551-1.014-3.316-2.25s-4.098-2.246-5.184-2.246c-1.41 0-2.063-.786-2.289-2.75-.248-2.158-1.338-3.25-5.066-5.076-2.613-1.28-4.75-2.72-4.75-3.203 0-.483-1.913-1.726-4.25-2.762-5.776-2.56-7.14-4.428-6.43-8.807.476-2.936.308-3.473-.941-2.994-.839.322-2.43.1-3.536-.492-1.846-.988-1.881-1.217-.425-2.826.872-.963 1.305-2.033.963-2.375-1.287-1.287.764-5.82 3.021-6.678 2.826-1.074 3.834-5.865 2.197-10.451-1.371-3.844-2.472-4.656-5.341-3.936-1.892.475-2.258.162-2.258-1.925 0-2.947-1.991-3.691-9.922-3.711-3.741-.01-6.024-.556-7.365-1.764-1.186-1.067-3.546-1.75-6.053-1.75-3.176 0-4.193-.413-4.473-1.82-.236-1.186.366-2.012 1.725-2.367 2.81-.735 2.633-2.155-.412-3.313-1.567-.596-2.5-1.731-2.5-3.043 0-1.639-.436-1.953-2.006-1.455-1.333.423-2.207.11-2.608-.934-.775-2.02-3.036-2.016-4.17.008-.79 1.412-1.247 1.372-4.367-.38-1.916-1.077-5.004-2.29-6.861-2.698-1.857-.408-4.025-1.392-4.818-2.185-1.024-1.024-2.565-1.253-5.307-.79-3.404.576-3.863.416-3.863-1.327 0-2.613-2.505-3.119-13.307-2.696-6.028.236-9.604.866-11.332 1.998-2.57 1.685-5.998 1.34-4.867-.49.82-1.326-3.088-1.296-5.59.043-1.54.824-2.524.608-4.568-1-1.434-1.128-3.42-2.05-4.412-2.05-2.387 0-3.38-1.749-1.963-3.456 1.495-1.802-.127-2.793-3.28-2.002-3.121.784-4.305-1.944-2.222-5.123 1.386-2.115 1.349-2.346-.477-2.926-1.09-.346-1.982-1.274-1.982-2.062 0-2.153-3.691-1.723-4.272.498-.495 1.895-.578 1.895-4.617-.104-2.261-1.119-4.111-2.439-4.111-2.931 0-.493-2.025-.895-4.5-.895-3.334 0-4.5-.389-4.5-1.5 0-1.808-1.302-1.883-5.623-.32-2.97 1.074-3.457.96-5.39-1.25zm-9.47 169.68c-1.073 1.735-3.177.668-6.27-3.18-7.847-8.126 5.257-4.317 6.27 3.18zm54.644-1.616c1.177 2.199 1.166 2.697-.08 3.485-2.46 1.556-2.962 1.084-2.703-2.547.308-4.174 1.253-3.777 2.783-.938zm-51.033 4.436c1.1 0 2 .424 2 .941 0 1.28-1.237 1.883-2.75 1.34-1.973-.708-1.456-2.281.75-2.281zm42.877 8c.483 0 1.438.675 2.123 1.5 1.04 1.253.894 1.5-.879 1.5-1.22 0-2.121-.638-2.121-1.5 0-.825.394-1.5.877-1.5zm-42.273 3.713c.535-.023 1.026.06 1.384.281 1.143.706 1.156 1.127.075 2.43-1.867 2.249-5.063 1.899-5.063-.555 0-1.069 1.999-2.087 3.604-2.156zm42.205 2.318c.38.018 1.459 1.09 2.398 2.383 1.625 2.237 1.613 2.437-.25 4.123-1.88 1.702-1.957 1.696-1.957-.182 0-1.075-.501-2.456-1.113-3.068-1.087-1.086-.455-3.318.922-3.256zm-55.735 3.969c1.2 0 1.668.506 1.317 1.422-.602 1.567-2.893 2.744-3.725 1.912-1.054-1.054.592-3.334 2.408-3.334zm23.865 5c.518 0 1.221.45 1.561 1 .34.55-.084 1-.941 1-.858 0-1.559-.45-1.559-1s.422-1 .94-1zm-3.939 2c1.333 0 2 .667 2 2 0 2.294.064 2.268-2.25.92-2.35-1.369-2.217-2.92.25-2.92zm39.68 2c.831 0 1.326.723 1.142 1.668-.347 1.79-2.054 2.767-3.066 1.756-1.013-1.013.342-3.424 1.924-3.424zm-29.457 4c1.835 0 1.942 3.16.152 4.516-2.46 1.863-3.306 1.83-4.07-.16-.597-1.557 1.921-4.356 3.918-4.356zm205.336 5c.857 0 1.281.45.941 1-.34.55-1.043 1-1.56 1-.518 0-.94-.45-.94-1s.701-1 1.559-1zm-138.809.016c1.581-.02 1.603 1.231.049 2.785-1.495 1.495-2.484 1.52-3.37.088-.724-1.174 1.21-2.847 3.321-2.873zm162.861 1.367a.69.69 0 0 1 .389.117c.55.34 1 1.041 1 1.559 0 .517-.45.941-1 .941s-1-.701-1-1.559c0-.643.253-1.042.611-1.058zm-168.984 4c.145.016.293.068.441.16.512.316.932 1.223.932 2.016 0 1.65-1.58 1.929-2.5.441-.714-1.155.113-2.733 1.127-2.617zm-28.04 2.904c.492-.086 1.263.09 1.966.483.937.524 1.287 1.21.777 1.525-1.159.716-4.007-.952-3.127-1.832a.708.708 0 0 1 .385-.176zm-5.483 2.031c1.706-.19 3.896.829 3.896 2.248 0 1.622-2.753 1.875-4.992.46-1.117-.707-1.206-1.23-.352-2.085.363-.363.879-.56 1.448-.623zm-1.34 6.088c.555-.04 1.178.132 1.74.598 1.265 1.05 1.325 1.488.293 2.142-1.753 1.113-2.554 1.056-3.352-.234-.8-1.296.096-2.416 1.319-2.506zm16.822 7.076c.672.056.306.769-1.086 2.16-.825.826-1.5 2.764-1.5 4.307 0 1.544-.675 3.366-1.5 4.051s-1.5 1.837-1.5 2.563c0 1.91-1.495 2.541-2.84 1.197-3.268-3.268.411-11.528 6.09-13.672 1.155-.436 1.933-.639 2.336-.606zm-30.086 5.518c.825 0 1.5.675 1.5 1.5s-.675 1.5-1.5 1.5-1.5-.675-1.5-1.5.675-1.5 1.5-1.5zm4.889 2.404c1.156.105 2.611 2.202 2.611 4.22 0 2.615-.96 3.018-2.8 1.177-1.304-1.303-1.595-4.072-.542-5.125a.883.883 0 0 1 .73-.272zm-13.112.157c.397-.017.78.098 1.077.394.479.48.568 1.36.199 1.957-.865 1.4-2.25 1.39-3.123-.023-.647-1.046.657-2.278 1.847-2.328zm-8.718.439c.792 0 1.441.675 1.441 1.5 0 1.506-2.111 2.056-3.307.861-.933-.933.195-2.361 1.866-2.361zm14.175.396c.077.01.151.033.221.077.47.29.62 1.435.33 2.543-.637 2.437-1.925 3.378-2.763 2.021-.75-1.211 1.061-4.77 2.212-4.64zm8.918 9.315l2.188 2.35c2.494 2.676 2.356 4.272-.42 4.81-1.053.204-2.908 1.442-4.121 2.75-2.194 2.367-2.755 2.5-7.049 1.674-2.547-.49-3.018-2.786-.75-3.656.825-.317 1.5-1.544 1.5-2.725 0-1.79.445-2.063 2.674-1.637 1.91.365 3.147-.071 4.326-1.527zm26.258 1.408c.305-.032.6.059.846.305.343.343-.137 1.384-1.067 2.314-1.558 1.56-1.689 1.562-1.689.035 0-1.367.996-2.559 1.91-2.654zm-3.91 9.881c.55 0 1 .45 1 1s-.45 1-1 1-1-.45-1-1 .45-1 1-1zm3.174 3.307c.354.01.75.11 1.19.279 1.535.59 1.72 1.471 1.224 5.805-.322 2.81-.48 7.359-.354 10.109.127 2.75.238 11.622.248 19.715.015 12.696-.222 14.955-1.732 16.465-1.666 1.665-2.84 1.317-2.84-1.078-.475-3.498-.505-4.543-.723-8.067-.521-3.719-.225-5.52-.105-22.24.12-16.667.612-21.057 3.092-20.988zm-52.426.736c.973-.082 2.143.248 2.934 1.039.776.776 1.66.721 3.129-.195 1.72-1.075 2.603-.978 5.55.61 2.89 1.555 3.334 2.203 2.536 3.694-1.301 2.431-3.538 2.29-4.206-.263-.515-1.971-.664-1.993-3.04-.436-2.293 1.502-2.753 1.506-5.575.047-1.692-.875-3.076-2.254-3.076-3.064 0-.857.775-1.35 1.748-1.432zm90.31.957c.583 0 .764.478.403 1.062-.361.585.074 1.873.969 2.862 1.268 1.402 1.406 2.376.623 4.435-1.226 3.223-2.451 3.338-4.496.418-1.962-2.8-1.982-4.677-.057-5.416.825-.316 1.5-1.202 1.5-1.968 0-.767.476-1.393 1.059-1.393zm-70.058 4c1.111 0 2 .667 2 1.5s-.889 1.5-2 1.5-2-.667-2-1.5.889-1.5 2-1.5zm5.94 3c.517 0 1.22.45 1.56 1 .34.55-.084 1-.941 1-.858 0-1.559-.45-1.559-1s.422-1 .94-1zm56.187.016c1.68-.016 4.517 2.672 3.691 3.498-.256.256-1.888.75-3.627 1.097-2.45.49-3.31.245-3.822-1.09-.71-1.852 1.034-3.48 3.758-3.505zm-48.627 2.984c.89 0 1.34.45 1 1-.34.55-.79 1-1 1-.21 0-.66-.45-1-1-.34-.55.11-1 1-1zm50.531 4c1.084 0 1.969.675 1.969 1.5s-.628 1.5-1.394 1.5c-.767 0-1.653-.675-1.97-1.5-.39-1.02.056-1.5 1.395-1.5zm98.908 2c.583 0 1.061.45 1.061 1s-.199 1-.441 1c-.243 0-.719-.45-1.059-1-.34-.55-.143-1 .44-1zm-164.25 15c2.772 0 3 2.066.481 4.346-1.006.91-3.31 1.654-5.121 1.654-2.974 0-3.166-.17-1.97-1.75 2.265-2.996 4.214-4.25 6.61-4.25zm5.938 2.682c.78.017 1.72.176 2.766.507l4.578 1.454c1.296.41 1.296.576 0 1.396-2.193 1.387-6.208 1.096-8.467-.611-2.104-1.59-1.216-2.8 1.123-2.746zM276.6 305.5c1.28 0 3.535 2.828 3.535 4.434 0 1.376-2.634.382-3.76-1.42-1.596-2.556-1.561-3.014.225-3.014zm50.008 9.982c.538-.09 1.027.28 1.027 1.184 0 .642-.606 1.369-1.346 1.615-.84.28-1.216-.176-1-1.218.194-.938.78-1.49 1.319-1.58zm-16.862.4a.69.69 0 0 1 .389.118c.55.34 1 1.041 1 1.559 0 .517-.45.941-1 .941s-1-.701-1-1.559c0-.643.253-1.042.611-1.058zm-8.611 4.618c.55 0 1 .45 1 1s-.45 1-1 1-1-.45-1-1 .45-1 1-1zm10.5 2c.833 0 1.5.889 1.5 2 0 1.992-1.066 2.602-2.334 1.334-1.218-1.218-.688-3.334.834-3.334z"/></svg>