<svg xmlns="http://www.w3.org/2000/svg" xmlns:dc="http://dublincore.org/documents/dcmi-terms/" height="945.046" viewBox="0 0 2885.3997 885.98097" width="3077.76"><metadata><dc:description>Silhouette of Platypterygiinae, processed by PhyloPic Tools (https://github.com/eweitz/phylopic-tools)</dc:description><dc:source>http://phylopic.org/image/25b4e877-c11f-4271-a0ed-dee92a774cc1</dc:source><dc:creator>Zimices</dc:creator><dc:license>http://creativecommons.org/licenses/by-sa/3.0/</dc:license></metadata><path d="M1022.372 882.86c-14.693-10.564-22.986-15.749-26.925-16.837-2.473-.682-8.788-3.985-14.034-7.338-5.246-3.354-13.194-8.26-17.663-10.902-4.469-2.642-9.747-6.14-11.73-7.772-5.607-4.617-12.611-7.793-28.879-13.096-8.259-2.692-17.651-6.585-20.873-8.652-3.22-2.066-7.943-4.333-10.494-5.037-5.906-1.631-27.979-13.774-36.149-19.887-3.437-2.572-11.312-7.3-17.5-10.506a5711.975 5711.975 0 0 1-14.375-7.47c-1.719-.9-7.062-2.92-11.875-4.487-13.42-4.37-25.699-10.478-36.177-17.996-12.481-8.955-33.207-28.61-37.66-35.717-1.94-3.094-4.572-6.819-5.85-8.278-1.278-1.458-3.935-7.083-5.904-12.5-1.97-5.416-5.758-14.91-8.42-21.097-6.617-15.381-10.294-29.526-12.836-49.375-.572-4.469-2.225-12.906-3.674-18.75-4.28-17.273-6.354-35.45-6.354-55.707v-19.022l-3.116-.782c-1.714-.43-7.287-3.314-12.384-6.408-12.156-7.38-23.76-12.077-41.605-16.84-17.129-4.57-32.257-9.777-41.093-14.142-3.477-1.718-8.82-3.796-11.875-4.618-3.053-.822-9.674-3.45-14.711-5.84-21.574-10.237-41.784-15.679-71.204-19.173-12.175-1.446-33.668-4.264-47.762-6.26-42.183-5.979-47.732-6.206-151.883-6.207-72.272 0-99.93-.394-103.125-1.468-2.82-.948-20.964-1.777-51.242-2.342-46.005-.859-58.746-1.833-88.75-6.79-12.243-2.022-26.976-6.292-28.125-8.15-.359-.581-4.443-2.302-9.076-3.824C3.02 424.324 0 421.212 0 409.96c0-5.018.6-6.641 3.437-9.298 1.891-1.77 4.704-3.6 6.25-4.068 1.547-.467 2.813-1.557 2.813-2.422 0-2.164 5.35-7.009 7.74-7.009 2.89 0 5.082 3.266 4.154 6.19-.762 2.402-.307 2.56 7.365 2.56 7.812 0 8.263-.166 10.107-3.732 3.57-6.905 12.84-5.816 10.981 1.29-.578 2.21.033 2.442 6.413 2.442 6.263 0 7.178-.33 8.175-2.954 2.106-5.538 7.643-5.207 9.476.567.607 1.914 1.95 2.387 6.77 2.387 3.82 0 6.58-.684 7.569-1.875 1.994-2.402 5.506-2.402 7.5 0 1.262 1.52 5.258 1.875 21.152 1.875h19.596l1.539-4.256c1.624-4.492 3.983-6.138 7.088-4.946 1.976.759 2.295 1.815 1.924 6.39l-.228 2.812H177c23.089 0 27.509-.299 29.375-1.988 2.24-2.027 7.375-1.454 7.375.822 0 .642 4.431 1.166 9.847 1.166 7.228 0 10.26-.499 11.403-1.875 1.981-2.387 4.269-2.387 6.25 0 1.23 1.482 4.8 1.875 17.028 1.875 14.507 0 15.472-.152 15.472-2.438 0-3.196 3.614-5.223 6.53-3.662 1.221.653 2.22 1.979 2.22 2.945 0 3.067 2.631 3.524 4.546.79 2.33-3.327 6.21-3.393 7.954-.135 1.654 3.09 10 3.637 10 .654 0-2.532 5.432-5.89 7.96-4.92 1.134.436 2.399 2.136 2.811 3.779.575 2.288 1.596 2.987 4.365 2.987 3.148 0 3.614-.464 3.614-3.597 0-7.314 6.524-8.314 9.134-1.4 1.593 4.222 3.781 4.623 12.812 2.349 4.478-1.128 5.554-1.935 5.554-4.166 0-3.256 7.632-9.842 12.932-11.16 4.714-1.171 7.068.956 7.068 6.386 0 3.471.404 4.2 1.991 3.592 1.095-.42 3.234-1.077 4.754-1.458 1.55-.389 3.372-2.307 4.15-4.37 1.636-4.333 5.457-4.9 8.015-1.187 1.678 2.436 1.944 2.445 12.34.428 5.844-1.133 11.534-2.835 12.644-3.78 1.36-1.158 3.609-1.471 6.875-.96 2.671.418 6.262.227 7.981-.425 3.092-1.172 3.071-1.208-1.875-3.3-3.343-1.415-6.658-1.871-10.003-1.379-4.37.644-5.16.378-6.25-2.105-1.116-2.543-3.29-3.195-20.622-6.183-10.656-1.837-23.363-3.384-28.237-3.437-8.283-.091-8.955.106-10.286 3.027-1.835 4.028-6.085 4.102-7.891.139l-1.361-2.987-43.925-.627c-24.364-.348-47.822-1.277-52.675-2.087-4.812-.802-14.06-2.34-20.548-3.419-6.49-1.078-14.364-2.09-17.5-2.247-3.136-.159-9.029-.977-13.095-1.819-5.835-1.208-7.996-1.208-10.256.001-2.379 1.273-3.426 1.163-6.195-.65-2.626-1.721-6.581-2.255-18.658-2.516-8.43-.183-15.921-.7-16.648-1.15-.818-.505-1.47.979-1.71 3.898-.321 3.884-.917 4.788-3.38 5.136-3.045.43-8.743-4.878-8.84-8.235-.052-1.796-7.545-2.19-7.545-.396 0 .64-1.233 1.557-2.74 2.035-2.043.648-3.394.088-5.312-2.204-1.69-2.018-4.935-3.59-9.448-4.576-11.824-2.585-12.76-2.477-13.887 1.597-.926 3.35-2.987 5.665-5.086 5.713-2.078.047-4.777-4.23-4.777-7.57 0-2.792-.577-3.661-2.428-3.661-1.963 0-2.502 1.018-2.813 5.312-.312 4.313-.845 5.313-2.834 5.313-2.044 0-6.847-5.29-8.403-9.256-.218-.556-2.506-1.398-5.084-1.872C55.54 335.9 55 336.09 55 338.312c0 1.382-1.112 3.108-2.471 3.836-1.963 1.05-2.992.802-5-1.206-1.391-1.391-2.529-3.34-2.529-4.33 0-2.187-.739-2.662-5.852-3.758-3.793-.813-3.996-.66-4.375 3.29-.335 3.484-.951 4.207-3.87 4.543-2.908.334-3.69-.226-4.81-3.438-1.233-3.535-3.593-5.322-3.593-2.72 0 1.893-3.802 2.694-6.34 1.335-1.548-.828-2.41-2.615-2.41-4.995 0-3.903-.722-4.397-3.683-2.524-1.104.699-2.684.674-4.062-.063-1.76-.943-2.255-2.74-2.255-8.203 0-6.593.314-7.31 5.46-12.456l5.461-5.46 24.227-.044c16.231-.03 26.909-.634 32.352-1.831 4.469-.983 13.188-1.827 19.375-1.876 6.188-.048 16.313-.925 22.5-1.947 6.188-1.023 20.531-2.661 31.875-3.641 23.441-2.024 29.617-2.912 50.625-7.275 8.25-1.713 19.5-3.715 25-4.448 34.47-4.595 40.498-5.39 45-5.94 2.75-.336 8.375-1.408 12.5-2.382 4.125-.973 13.125-2.9 20-4.281 6.875-1.382 21.906-4.486 33.401-6.9 11.496-2.413 27.452-5.543 35.458-6.954 8.005-1.412 16.208-3.421 18.228-4.466 2.02-1.044 6.595-2.237 10.168-2.651 3.572-.414 9.589-2.333 13.37-4.265 3.781-1.932 11.656-4.386 17.5-5.454 27.202-4.973 32.406-6.195 40-9.394 23.151-9.754 54.46-18.293 82.5-22.501 4.469-.67 12.063-2.123 16.875-3.227 4.813-1.104 14.938-3.412 22.5-5.128 7.563-1.716 20.781-4.984 29.375-7.262 17.639-4.675 24.282-5.954 45.625-8.788 16.121-2.14 39.244-7.346 54.375-12.241 5.156-1.669 12.188-3.396 15.625-3.838 3.438-.443 10.75-2.233 16.25-3.977 9.115-2.891 20.867-5.686 39.375-9.366 23.84-4.74 56.173-13.09 97.385-25.15 8.452-2.474 17.867-4.186 26.875-4.889 7.626-.595 17.521-1.625 21.99-2.288 14.996-2.228 23.29-2.687 72.693-4.022 129.061-3.489 113.358-2.582 132.307-7.641 9.281-2.478 18.563-5.158 20.625-5.955 2.063-.796 8.462-2.823 14.222-4.504 5.76-1.68 12.79-4.388 15.625-6.017 2.834-1.63 6.955-3.337 9.157-3.796 2.202-.459 5.296-1.837 6.875-3.064 7.2-5.592 46.03-31.19 48.504-31.975 1.523-.483 4.816-2.694 7.318-4.913 2.502-2.219 6.917-4.96 9.81-6.091 2.895-1.132 7.74-3.9 10.767-6.15 3.027-2.251 7.128-5.061 9.113-6.245 1.985-1.183 4.453-2.7 5.484-3.369 1.031-.669 6.375-3.863 11.875-7.099 5.5-3.235 12.08-7.653 14.62-9.818 6.807-5.8 20.558-9.98 29.405-8.94 11.105 1.304 15.817 4.924 29.967 23.02 1.78 2.277 7.784 7.601 13.34 11.83 5.555 4.23 14.193 11.577 19.195 16.328 12.032 11.43 45.993 48.112 50.868 54.945 5.713 8.007 18.778 22.665 30.105 33.775 10.59 10.387 15.22 13.055 40 23.043 6.875 2.771 18.969 7.14 26.875 9.71 7.906 2.568 18.312 6.479 23.125 8.69 4.812 2.212 14.094 5.913 20.625 8.226 6.531 2.313 15.71 6.198 20.397 8.633 4.687 2.435 11.999 6.238 16.25 8.451 8.68 4.52 14.66 6.396 32.728 10.273A2083.051 2083.051 0 0 1 1700 222.2c5.844 1.34 16.813 3.313 24.375 4.386 7.563 1.073 17.406 2.996 21.875 4.272 4.469 1.276 12.906 2.995 18.75 3.819 5.844.824 15.969 3.457 22.5 5.853 6.531 2.395 16.094 5.636 21.25 7.203 5.156 1.566 10.959 3.485 12.894 4.264 1.935.779 4.737 1.416 6.226 1.416 1.489 0 5.53 1.07 8.98 2.38 3.452 1.308 10.494 3.36 15.65 4.558 5.156 1.2 10.276 2.635 11.377 3.19 1.905.962 9.794 2.766 29.248 6.687 20.373 4.107 81.79 14.687 101.875 17.55 7.219 1.028 26.625 4.156 43.125 6.95 29.745 5.036 35.763 5.94 57.5 8.642 6.187.77 20.515 3.68 31.838 6.468 21.704 5.344 22.966 5.505 57.537 7.325 12.031.634 32.562 1.86 45.625 2.724 14.046.93 50.565 1.588 89.375 1.611 64.645.04 65.758-.002 74.51-2.773 6.604-2.09 11.898-2.81 20.625-2.804 6.457.005 16.521-.806 22.365-1.802 5.844-.996 14.844-2.39 20-3.1 5.156-.71 15-2.141 21.875-3.182 6.875-1.04 18.31-2.686 25.41-3.657 10.533-1.44 14.1-2.505 19.375-5.788 3.556-2.212 9.428-4.796 13.048-5.74 8.652-2.258 18.656-7.393 20.608-10.579.857-1.399 5.215-4.847 9.684-7.662 4.469-2.815 11.219-8.104 15-11.755 3.781-3.65 22.493-20.901 24.621-23.907 27.029-38.177 29.438-29.073 37.635-45.753 7.259-14.77 19.226-16.73 19.226-16.73 30.646-25.014 19.664-19.884 30.646-25.014 16.29-7.61 27.907-6.214 33.224 3.995 4.024 7.727 4.537 26.467 1.04 37.979-1.453 4.785-2.642 12.058-2.642 16.161 0 4.104-.844 9.853-1.875 12.776-1.537 4.357-6.421 13.675-6.425 51.72 0 44.306 4.4 47.112 1.45 62.03-1.7 8.594-3.105 17.712-3.12 20.264-.017 2.552-1.155 9.464-2.53 15.36-2.286 9.806-2.5 15.13-2.5 62.251v51.529l5.074 17.485c2.79 9.617 6.477 20.573 8.192 24.346 1.715 3.773 4.535 13.616 6.267 21.875 3.665 17.48 12.471 44.34 19.367 59.075 2.975 6.357 7.386 13.095 11.506 17.577 3.675 3.997 9.14 10.889 12.145 15.315 3.005 4.426 7.636 10.86 10.291 14.298a2081.209 2081.209 0 0 1 11.43 15c7.323 9.703 11.709 14.333 18.21 19.223 9.15 6.88 20.617 18.056 24.796 24.165 2.265 3.31 5.27 6.08 16.37 15.096 12.091 9.82 23.285 20.554 26.781 25.683 4.589 6.73 5.015 18.514.821 22.708-2.252 2.251-4.147 2.497-19.063 2.474-14.67-.023-17.561-.395-25.312-3.252-4.813-1.774-14.938-5.107-22.5-7.406-19.876-6.043-46.328-22-58.676-35.394-5.55-6.022-25.092-22.976-31.949-27.72-2.406-1.664-7.78-6.131-11.942-9.927-6.973-6.359-16.677-14.187-45.367-36.6-19.184-14.986-29.697-22.657-40.369-29.456-5.746-3.66-12.489-8.16-14.984-10-2.495-1.839-9.204-6.66-14.907-10.713-5.703-4.054-13.72-10.07-17.816-13.37-4.095-3.3-10.606-7.447-14.468-9.216-10.711-4.904-11.781-5.65-21.613-15.07-11.79-11.294-56.168-40.828-73.852-49.148-7.334-3.45-17.622-7.45-22.863-8.888-13.668-3.75-27.835-9.426-34.998-14.023-7.946-5.099-18.9-10.423-23.696-11.518-2.063-.47-8.813-3.333-15-6.36-6.188-3.029-16.313-7.613-22.5-10.188-6.188-2.575-12.656-5.596-14.375-6.713-8.87-5.764-40.077-13.166-71.727-17.013-8.168-.992-15.284-2.072-15.814-2.4-.529-.326-5.94-1.156-12.023-1.844-23.246-2.626-31.51-3.743-45.436-6.139-19.725-3.393-40.393-6.126-57.5-7.603-17.495-1.511-70.975-1.53-78.75-.027-3.094.597-11.813 2.21-19.375 3.585-16.274 2.958-45.205 9.387-57.475 12.772-4.798 1.324-10.015 2.407-11.593 2.407-1.578 0-9.745 1.932-18.15 4.292-17.071 4.795-57.782 13.712-72.157 15.804-21.569 3.139-44.369 7.658-47.993 9.513-2.135 1.093-6.58 4.233-9.875 6.977-6.865 5.715-12.568 8.917-21.597 12.124-3.488 1.239-10.196 4.892-14.909 8.118-4.712 3.226-13.109 8.133-18.66 10.904-5.55 2.77-12.925 7.204-16.39 9.851-8.283 6.33-18.065 10.655-28.076 12.411-14.024 2.461-13.752 2.355-13.726 5.342.033 3.888 6.516 13.81 11.468 17.551 6.881 5.2 30.31 18.217 39.919 22.18 4.967 2.047 10.863 5.12 13.102 6.828 2.239 1.708 4.998 3.105 6.133 3.105 2.704 0 32.97 15.082 38.322 19.097 2.286 1.714 6.688 4.385 9.782 5.934 8.058 4.036 55.593 52.402 58.938 59.969 1.367 3.094 4.203 9.11 6.301 13.368 4.238 8.601 4.189 12.835-.231 20.08-3.693 6.055-9.426 9.042-17.365 9.047-4.935 0-10.057 1.34-19.194 5.005l-12.463 5H1780.625l-23.125-6.297c-12.719-3.463-26.781-8.024-31.25-10.137-8.422-3.981-35.004-21.333-45.219-29.515-35.684-28.589-46.449-40.038-73.54-78.218-10.75-15.147-12.187-15.835-33.118-15.837-11.454-.001-20.128.768-29.375 2.605-29.722 5.905-38.427 7.353-44.373 7.385-3.437.018-12.646 1.153-20.464 2.521-12.561 2.198-19.971 2.49-63.75 2.513-35.353.02-53.83.544-64.536 1.836-12.45 1.502-46.38 1.817-199.554 1.849-162.872.034-185.667-.191-194.035-1.922-5.214-1.078-11.022-1.781-12.907-1.562-3.389.394-3.348.476 3.722 7.477 3.932 3.893 7.149 7.743 7.149 8.554 0 .811 2.342 6.063 5.203 11.671 9.02 17.673 9.797 19.397 9.797 21.715 0 1.245 2.08 5.35 4.624 9.123 2.542 3.772 6.532 10.795 8.865 15.608 2.334 4.812 5.574 10.511 7.202 12.663 3.615 4.781 8.48 15.6 11.696 26.014 1.32 4.276 3.855 9.918 5.633 12.538 3.543 5.22 8.488 19.713 10.568 30.977.73 3.955 1.845 8.174 2.476 9.375.631 1.2 2.344 6.572 3.806 11.936 1.462 5.364 3.488 11.02 4.502 12.567 1.014 1.548 2.911 5.877 4.216 9.622 1.304 3.744 5.211 13.298 8.682 21.23 8.029 18.35 9.355 23.785 8.797 36.065-.5 11.022-2.343 14.747-9.804 19.825-5.788 3.94-14.471 3.835-20.14-.24z"/></svg>