<svg xmlns="http://www.w3.org/2000/svg" xmlns:dc="http://dublincore.org/documents/dcmi-terms/" height="326.859" width="299.367"><metadata><dc:description>Silhouette of Pleodorina, processed by PhyloPic Tools (https://github.com/eweitz/phylopic-tools)</dc:description><dc:source>http://phylopic.org/image/2fb9c26e-1bf7-413a-9d3b-478361c84e5c</dc:source><dc:creator>Matt Crook</dc:creator><dc:license>http://creativecommons.org/licenses/by-sa/3.0/</dc:license></metadata><path d="M126.507 208.076a20 20 0 1 1-40 0 20 20 0 1 1 40 0z" style="marker:none" color="#000" stroke-width="5" overflow="visible"/><path d="M154.669 227.104a20 20 0 1 1-40 0 20 20 0 1 1 40 0zM113.568 287.994a20 20 0 1 1-40 0 20 20 0 1 1 40 0zM83.884 243.849a20 20 0 1 1-40 0 20 20 0 1 1 40 0z" style="marker:none" color="#000" stroke-width="5" overflow="visible"/><path d="M68.662 211.882a20 20 0 1 1-40 0 20 20 0 1 1 40 0zM86.929 173.064a20 20 0 1 1-40 0 20 20 0 1 1 40 0z" style="marker:none" color="#000" stroke-width="5" overflow="visible"/><path d="M58.767 158.603a20 20 0 1 1-40 0 20 20 0 1 1 40 0zM107.479 147.947a20 20 0 1 1-40 0 20 20 0 1 1 40 0zM172.936 132.725a20 20 0 1 1-40 0 20 20 0 1 1 40 0z" style="marker:none" color="#000" stroke-width="5" overflow="visible"/><path d="M173.697 166.975a20 20 0 1 1-40 0 20 20 0 1 1 40 0zM221.648 187.526a20 20 0 1 1-40 0 20 20 0 1 1 40 0z" style="marker:none" color="#000" stroke-width="5" overflow="visible"/><path d="M221.648 225.582a20 20 0 1 1-40 0 20 20 0 1 1 40 0zM209.47 272.772a20 20 0 1 1-40 0 20 20 0 1 1 40 0zM164.563 287.994a20 20 0 1 1-40 0 20 20 0 1 1 40 0zM263.51 270.488a20 20 0 1 1-40 0 20 20 0 1 1 40 0zM281.015 220.254a20 20 0 1 1-40 0 20 20 0 1 1 40 0z" style="marker:none" color="#000" stroke-width="5" overflow="visible"/><path d="M287.865 185.242a20 20 0 1 1-40 0 20 20 0 1 1 40 0zM236.109 147.947a20 20 0 1 1-40 0 20 20 0 1 1 40 0z" style="marker:none" color="#000" stroke-width="5" overflow="visible"/><path d="M260.465 126.636a20 20 0 1 1-40 0 20 20 0 1 1 40 0z" style="marker:none" color="#000" stroke-width="5" overflow="visible"/><path d="M289.388 142.62a20 20 0 1 1-40 0 20 20 0 1 1 40 0zM69.212 113.802a10 10 0 1 1-20 0 10 10 0 1 1 20 0z" style="marker:none" color="#000" stroke-width="5" overflow="visible"/><path d="M63.123 97.818a10 10 0 1 1-20 0 10 10 0 1 1 20 0zM113.357 110.758a10 10 0 1 1-20 0 10 10 0 1 1 20 0zM133.146 93.252a10 10 0 1 1-20 0 10 10 0 1 1 20 0zM124.774 61.285a10 10 0 1 1-20 0 10 10 0 1 1 20 0z" style="marker:none" color="#000" stroke-width="5" overflow="visible"/><path d="M106.507 56.718a10 10 0 1 1-20 0 10 10 0 1 1 20 0zM178.053 49.868a10 10 0 1 1-20 0 10 10 0 1 1 20 0z" style="marker:none" color="#000" stroke-width="5" overflow="visible"/><path d="M195.559 49.868a10 10 0 1 1-20 0 10 10 0 1 1 20 0zM181.097 93.252a10 10 0 1 1-20 0 10 10 0 1 1 20 0zM206.975 94.774a10 10 0 1 1-20 0 10 10 0 1 1 20 0zM241.987 90.968a10 10 0 1 1-20 0 10 10 0 1 1 20 0z" style="marker:none" color="#000" stroke-width="5" overflow="visible"/><path d="M247.315 79.552a10 10 0 1 1-20 0 10 10 0 1 1 20 0z" style="marker:none" color="#000" stroke-width="5" overflow="visible"/><path d="M79.657 49.212C65.42 58.97 48.042 74.472 37.034 91.835c-11.008 17.364-18.351 38.644-21.312 59.368-2.96 20.723-1.9 40.347 3.806 62.412 5.707 22.064 19.981 50.417 31.967 66.979 11.986 16.562 19.518 23.713 35.012 31.967 15.494 8.254 34.435 12.92 55.562 13.7 21.127.78 49.399-3.154 69.262-9.894 19.864-6.74 34.897-14.264 48.712-27.401 13.815-13.136 24.773-32.028 31.206-49.473 6.434-17.445 7.718-34.685 7.612-52.518-.107-17.832-2.348-35.342-8.373-53.278-6.024-17.936-15.949-37.464-28.161-52.518-12.213-15.054-26.762-27.082-43.384-36.534-16.622-9.452-33.099-14.27-50.235-15.983-17.135-1.715-35.264-.974-49.473 3.044-14.208 4.018-25.342 7.748-39.578 17.506z" fill="none" stroke="#000"/><path d="M46.929 91.835c-4.313-3.045-10.042-5.972-12.94-9.134-2.898-3.161-2.908-4.902-3.805-9.133-.898-4.231-1.015-10.656-1.522-15.984M52.256 91.835c-1.522-6.85-2.624-15.5-4.566-20.55-1.943-5.051-4.567-6.09-6.85-9.134M55.3 116.952c-7.61 2.03-15.67 5.698-22.833 6.089-7.162.39-13.536-1.321-19.028-3.806C7.947 116.751 4.813 112.132.5 108.58M53.018 113.146c-5.836-2.283-11.641-5.937-17.506-6.85-5.865-.912-11.163 1.015-16.745 1.523M97.163 108.58c-3.806-2.537-7.61-2.36-11.417-7.612-3.807-5.251-7.104-15.222-10.656-22.833M104.013 107.057c-2.537-7.103-4-14.99-7.611-21.311-3.612-6.321-8.935-12.542-13.7-15.984-4.766-3.441-9.134-2.537-13.7-3.805M91.835 51.495c-7.358-4.82-17.478-9.326-22.073-14.461-4.594-5.135-3.673-10.367-3.805-14.461-.132-4.095 2.03-6.09 3.044-9.134M95.64 51.495c-1.268-6.089-1.41-13.478-3.805-18.267-2.395-4.789-6.597-6.089-9.895-9.133M114.669 56.062c-3.552-4.313-7.692-7.398-10.656-12.94-2.964-5.54-5.817-14.878-6.85-19.788-1.034-4.91.507-6.09.76-9.134M117.713 59.107c.761-5.582 3.197-10.22 2.283-16.745-.913-6.525-4.143-14.89-7.61-21.312-3.469-6.422-8.627-11.163-12.94-16.744M166.425 45.406c-5.328-3.044-12.065-4.54-15.984-9.133-3.918-4.594-1.62-12.416-6.089-16.745-4.468-4.328-12.178-4.567-18.267-6.85M170.23 42.362c-4.059-6.85-10.075-13.98-12.177-20.55-2.103-6.571 0-11.671 0-17.506M183.17 43.123c1.015-6.343 4.28-13.128 3.044-19.028-1.235-5.9-8.054-9.626-9.894-13.7-1.84-4.075-.508-6.597-.761-9.895M188.498 48.45c4.313-4.82 11.51-7.463 12.939-14.46 1.428-6.998-3.552-15.223-5.328-22.834M123.041 85.746c1.269-6.597 1.751-13.882 3.806-19.79 2.054-5.906 5.581-10.148 8.372-15.222M126.847 93.357c5.074-3.044 12.419-3.822 15.222-9.133 2.803-5.312-.507-12.178-.761-18.267M169.47 88.03c-5.328-3.806-12.358-6.582-15.984-11.418-3.627-4.835-3.045-10.655-4.567-15.983M174.036 91.835c-2.03-7.104-2.907-16.47-6.089-21.312-3.182-4.842-7.908-1.009-11.417-5.327-3.509-4.32-5.581-12.686-8.372-19.029M196.109 91.074c.507-7.865-.862-16.706 1.522-23.595 2.385-6.889 8.119-10.656 12.178-15.984M201.437 89.552c2.79-3.552 6.168-5.73 8.372-10.656 2.204-4.926 1.877-11.863 4.567-18.267 2.69-6.404 7.611-13.193 11.417-19.79M236.448 90.313c3.806 2.537 4.635 7.61 11.417 7.61 6.783 0 17.252-5.073 25.879-7.61M238.732 83.463c6.343-2.791 11.793-8.236 19.028-8.373 7.235-.136 14.208 5.074 21.311 7.611M242.537 72.807c5.836-5.328 14.336-10.47 17.506-15.984 3.171-5.514 0-9.64 0-14.461M234.926 72.046c.761-6.597-.255-14.044 2.284-19.79 2.538-5.745 9.526-7.503 12.178-12.939 2.651-5.435 2.03-12.178 3.044-18.267" fill="none" stroke="#000"/></svg>