<svg xmlns="http://www.w3.org/2000/svg" xmlns:dc="http://dublincore.org/documents/dcmi-terms/" height="430" version="1.2" viewBox="0 0 515.347 430" width="515.347" overflow="inherit"><metadata><dc:description>Silhouette of Plesiosauroidea, processed by PhyloPic Tools (https://github.com/eweitz/phylopic-tools)</dc:description><dc:source>http://phylopic.org/image/455695a6-3d47-46e6-88e1-70b36eef7859</dc:source><dc:creator>Adam Stuart Smith (vectorized by T. Michael Keesey)</dc:creator><dc:license>http://creativecommons.org/licenses/by-sa/3.0/</dc:license></metadata><path d="M332 0h4c.113 1.22.299 2.368 2 2-17.692 11.975-36.621 22.712-48 41 5.21 5.457 16.76 4.574 21 11 6.748-.457 11.586 2.002 18 3 6.953 1.082 13.213-.313 20 0 6.78.313 13.369 3.202 20 3 16.598-.506 35.549-6.651 48-9 4.147-.782 8.017.521 11 0 3.99-.698 5.958-3.675 10-5 14.71-4.821 22.52-7.478 37-11 13.171-3.204 25.018-6.867 40-6 1.482 1.573-2.091 7.576-5 10-8.754 7.295-23.4 11.747-35 18-11.229 6.053-22.688 13.417-32 22-22.325 20.576-40.268 35.406-63 45-11.762 4.964-33.599 9.923-34 22-.377 11.347 13.061 12.585 22 19 12.836 9.21 18.806 30.937 29 48 7.026 11.761 17.091 18.64 22 29 4.708 1.959 9.622 3.711 10 10-11.809 3.718-27.718.395-36-2-26.495-7.66-43.47-29.202-56-53-6.857-13.024-18.25-37.512-30-39-5.473-.693-10.699 4.097-15 6-4.72 2.089-10.594 4.419-16 6-7.97 2.331-17.264.571-25 3-6.992 2.195-12.103 11.541-18 18-15.568 17.05-28.423 31.319-38 52-4.562 9.85-4.912 22.81-15 27-10.933-32.858 7.735-66.218 16-97-18.214-1.644-23.144-15.057-37-17-30.001-4.208-52.745 20.763-56 43-4.825 32.967 15.297 59.125 28 73 6.188 6.759 12.247 14.968 18 20 7.022 6.143 16.618 10.725 25 17 36.904 27.629 83.091 51.809 130 63 42.716 10.191 94.885 11.758 127 19 3.374.761 7.488.287 10 1 17.978 5.104 42.746 27.447 19 38h-12c-19.139-3.922-28.73-4.165-44-3-31.211-5.649-61.082-5.404-93-13-89.85-21.381-190.995-64.502-236-134-21.442-33.111-29.079-93.943-13-135 5.047-12.889 10.686-21.922 16-34 6.07-6.597 12.597-12.736 16-22-23.8-20.532-43.812-44.854-73-60C14.639 20.361 2.248 17.752 0 5c11.116-1.436 21.462 5.112 32 10 11.482 5.325 24.52 7.74 36 13 21.819 9.997 42.354 25.104 61 38 37.103-22.812 80.846-35.173 127-27 20.484-17.85 44.815-31.851 76-39z" fill-rule="evenodd"/></svg>