<svg xmlns="http://www.w3.org/2000/svg" xmlns:dc="http://dublincore.org/documents/dcmi-terms/" height="759.277" viewBox="0 0 868.4189 711.82188" width="926.313"><metadata><dc:description>Silhouette of Pliosauridae, processed by PhyloPic Tools (https://github.com/eweitz/phylopic-tools)</dc:description><dc:source>http://phylopic.org/image/d1ba328e-1d75-4ed7-9464-5d98b06c1db5</dc:source><dc:creator>Zimices</dc:creator><dc:license>http://creativecommons.org/licenses/by-sa/3.0/</dc:license></metadata><path d="M412.876 705.875c-8.942-7.524-10.813-14.727-10.892-41.942-.043-14.649 1.503-25.086 5.421-36.61 3.015-8.866 8.159-28.225 11.431-43.02 3.273-14.796 8.81-35.19 12.307-45.319 3.496-10.13 6.357-20.08 6.357-22.112s4.597-13.197 10.215-24.812c6.48-13.398 9.451-22.313 8.125-24.387-1.15-1.798-8.464-5.853-16.254-9.01-26.407-10.703-73.144-41.092-127.043-82.605-29.54-22.751-55.029-41.366-56.644-41.366-4.24 0-20.933 19.26-50.773 58.58-14.369 18.933-28.431 35.306-31.25 36.385-2.82 1.079-7.336 4.415-10.038 7.413-2.7 2.999-16.2 12.805-30 21.792-14.554 9.48-30.97 22.794-39.098 31.71-7.706 8.454-19.114 17.919-25.35 21.034-6.238 3.115-12.728 7.334-14.422 9.375-3.975 4.79-13.479 4.768-17.47-.04-1.711-2.063-3.684-8.822-4.382-15.018-1.044-9.258-.131-12.936 5.117-20.624 3.513-5.146 8.985-14.982 12.16-21.857 6.98-15.11 76.416-107.037 96.003-127.1 7.704-7.89 18.697-17.319 24.43-20.953C183.352 307.448 220 272.25 220 268.16c0-1.594-4.5-9.638-10-17.874-5.5-8.236-10-16.036-10-17.333 0-3.575-18.019-26.973-32.002-41.556-6.833-7.125-21.084-19.143-31.67-26.706-10.976-7.841-25.246-21.168-33.21-31.015-28.691-35.474-58.53-65.983-86.243-88.181C4.351 35.464 0 30.408 0 25.884c0-12.458 17.782-10.625 51.25 5.281C58.125 34.433 73.312 38.95 85 41.201c11.687 2.251 29.403 7.343 39.368 11.313 9.964 3.971 27.84 9.487 39.723 12.258 17.437 4.066 23.856 6.922 33.272 14.806 10.253 8.584 68.016 40.519 107.637 59.508 8.177 3.92 19.646 7.024 28.296 7.661 13.104.965 14.956.483 18.693-4.867 5.431-7.775 27.249-32.21 45.073-50.48 18.556-19.021 36.28-32.554 55.833-42.634 8.72-4.495 19.23-10.035 23.355-12.31 25.945-14.314 47.45-22.65 72.268-28.012C598.058-2.26 622.5-2.785 622.5 6.855c0 2.58-17.676 22.128-40.625 44.927-22.344 22.197-48.14 47.964-57.326 57.26-14.546 14.72-19.545 17.993-38.75 25.373-12.127 4.66-31.33 12.785-42.674 18.055-17.988 8.358-20.625 10.404-20.625 16 0 5.452 2.54 7.643 16.875 14.562 23.602 11.391 39.616 22.277 96.987 65.927 42.012 31.964 51.674 40.541 59.778 53.063l9.666 14.937 7.722-5.292c4.247-2.911 10-7.317 12.785-9.791 2.784-2.475 12.91-6.877 22.5-9.783 9.59-2.906 38.293-11.95 63.784-20.1l46.347-14.814 32.403.38c34.209.402 54.32 4.048 67.6 12.255 16.79 10.377 10.332 25.697-12.069 28.624-29.612 3.87-92.63 32.59-113.995 51.954-11.772 10.67-40.525 25.083-58.136 29.143-6.048 1.394-19.176 2.563-29.173 2.596l-18.176.061 5.051 9.9c2.778 5.446 5.051 11.124 5.051 12.617 0 1.494 5.157 11.657 11.46 22.585 13.702 23.756 18.526 35.862 31.322 78.618 10.837 36.21 11.369 40.837 5.904 51.405-6.312 12.205-14.66 10.112-41.592-10.428-61.761-47.101-79.012-59.697-81.762-59.697-1.64 0-9.665-2.812-17.832-6.25-8.167-3.437-16.912-6.25-19.434-6.25-6.117 0-14.485 25.038-18.162 54.34-4.452 35.483-7.405 47.655-15.117 62.316-4.008 7.618-7.287 15.196-7.287 16.839 0 1.642-6.866 11.934-15.258 22.87-18.297 23.845-24.062 34.602-26.273 49.03-2.088 13.62-6.837 23.178-14.011 28.204-7.26 5.084-7.754 5.012-16.582-2.416z"/></svg>