<svg xmlns="http://www.w3.org/2000/svg" xmlns:dc="http://dublincore.org/documents/dcmi-terms/" height="1549.674" viewBox="0 0 1613.451 1549.674" width="1613.451" overflow="visible"><metadata><dc:description>Silhouette of Polygonia, processed by PhyloPic Tools (https://github.com/eweitz/phylopic-tools)</dc:description><dc:source>http://phylopic.org/image/3ded95a5-7702-4349-9653-f7df08a0fdde</dc:source><dc:creator>Gareth Monger</dc:creator><dc:license>http://creativecommons.org/licenses/by/3.0/</dc:license></metadata><switch><g><path d="M877.721 457.329s-15.238-6.803-27.765 2.366c-12.527 9.17-46.706 29.057-67.412 38.444-20.706 9.385-102.28 19.717-130.562 39.777-28.282 20.062-371.753 291.996-407.395 330.911-35.644 38.915-108.865 105.339-138.051 140.81-29.186 35.471-68.444 73.827-83.854 135.127C7.272 1206.062 0 1253.069 0 1253.069s5.165 9.687 18.122 16.875c12.956 7.188 17.564 20.49 31.081 24.062 13.517 3.572 26.087 8.479 34.093 14.162 8.007 5.684 12.658 33.06 28.454 36.246 15.799 3.186 31.039 9.985 34.87 18.726 3.831 8.738 29.489 63.062 49.246 55.013 19.759-8.051 47.998-42.187 50.452-48.472 2.454-6.285 55.012-49.247 71.155-57.857 16.144-8.608 33.406-24.451 46.75-14.981 13.344 9.472 13.689-2.323 33.276-4.476 19.586-2.153 54.756-9.298 67.368 9.684 12.615 18.983 29.576 29.014 43.093 32.587 13.516 3.571 41.325 15.28 62.505 36.33 21.178 21.05 42.703 92.507 61.731 93.971 19.027 1.464 18.081 2.798 52.604-28.885 34.52-31.685 46.489-37.238 68.357-39.776 21.866-2.542 53.981-13.864 72.148-45.115 18.164-31.253 13.687-64.528 9.253-83.726-4.437-19.201-59.106-106.155-42.191-172.403 16.919-66.253 13.56-106.761 68.486-184.16 54.927-77.401 64.054-78.949 70.854-94.188 6.801-15.24 33.616-202.883 24.749-241.281-8.868-38.398-38.356-101.46-38.356-101.46l-40.379-16.616z"/><path d="M827.509 783.503s-92.779 200.217-98.333 274.218c-5.556 74 9.63 155.203 23.458 160.008 13.829 4.802 57.946-6.218 68.851 47.153 10.905 53.375 5.06 150.519 39.688 157.897 34.629 7.377 34.34 30.521 60.06 10.011 25.718-20.511 28.001-18.17 55.832-22.45 27.829-4.28 28.644-69.081 70.184-59.303 41.543 9.778 76.633-19.873 135.416 91.968 58.781 111.841 91.183 112.247 100.555 103.105 9.375-9.142 16.578-29.884 12.414-66.973-4.166-37.084-3.529-88.003 3.501-94.856 7.029-6.857 21.032-15.94 21.032-15.94s12.354-62.343 42.584-73.537c30.23-11.195 69.084 28.642 108.803-.953 39.721-29.595.811-64.802 35.786-85.197 34.977-20.394 60.693-40.903 76.806-33.758 16.115 7.145 23.146.288 28.063-22.796 4.917-23.086-6.335-48.688-6.335-48.688L1490.07 923.731 989.285 433.693l-113.836 33.296-47.94 316.514z"/><path d="M718.06 450.238s-170.048 32.099-232.9 47.57c-62.851 15.473-157.244 45.026-178.094 44.651-9.184-.165-24.488 2.402-38.738 5.325-18.102 3.715-34.505 8.007-34.505 8.007" fill="none" stroke="#000" stroke-width="10.153"/><path d="M179.142 551.878c-23.056 3.212-34.078 10.128-32.95 19.916 1.127 9.787 35.169 1.609 52.127.938 16.96-.671 49.609-3.99 65.372-10.543 15.763-6.553 49.926-21.563 49.926-21.563s-78.386 9.332-95.326 9.028c-16.942-.306-14.319-1.236-39.149 2.224zM1264.668 719.96s91.134 5.538 145.071-12.428c53.938-17.965 101.112-40.204 101.112-40.204l12.282 3.029s30.618-18.506-3.902-68.709c-34.519-50.203-141.481-113.061-197.908-106.13-56.427 6.928-165.174-38.129-165.174-38.129s-34.873-64.621-48.398-73.167c-13.525-8.547-133.309-51.116-133.309-51.116l-108.581 7.096s-129.221-20.144-150.941-.746l-103.458 58.118 64.807 12.562s-2.341 23.359 9.204 35.978c11.543 12.618 31.497 28.775 31.497 28.775l60.996 43.866 486.702 201.205z"/><path d="M715.062 441.711s-172.916-6.839-237.636-5.851c-64.721.989-163.335 8.63-183.571 3.59-8.914-2.219-24.404-3.149-38.947-3.495-18.474-.437-35.422.068-35.422.068" fill="none" stroke="#000" stroke-width="10.153"/><path d="M167.075 419.952c-23.189-2.037-35.482 2.232-36.577 12.023-1.094 9.791 33.913 9.452 50.59 12.6 16.68 3.147 49.243 7.232 66.072 4.38 16.83-2.854 53.49-9.823 53.49-9.823s-78.482-8.478-94.925-12.572c-16.441-4.096-13.677-4.414-38.65-6.608zM1006.871 367.093l-134.205-93.674s-.731-12.883 6.479-24.295c7.211-11.411 91.062-87.949 118.163-102.761 27.103-14.812 41.657-32.229 41.657-32.229S1055.004 21.361 1049 14.017c-6.006-7.342-11.545-12.618-11.545-12.618l5.539 5.275.669-6.674s19.487 14.086 19.286 22.831c-.202 8.743-7.562 82.162-4.56 85.833 3.002 3.671-6.277 15.551-6.277 15.551l-9.949 18.554s-65.555 41.966-85.85 62.854c-20.295 20.887-51.605 50.783-51.605 50.783s25.36 16.025 51.187 34.119c25.827 18.094 79.743 78.777 79.743 78.777l-28.767-2.209z"/><path d="M1061.253 392.942L950.367 272.566s2.062-12.738 11.561-22.329c9.499-9.591 107.861-66.278 137.52-74.907 29.654-8.628 47.617-22.502 47.617-22.502s35.641-87.144 31.358-95.607c-4.283-8.464-8.557-14.807-8.557-14.807l4.273 6.343 2.09-6.373s15.996 17.952 13.916 26.447c-2.08 8.496-25.075 78.607-22.935 82.839 2.142 4.232-9.479 13.834-9.479 13.834l-13.71 15.976s-73.054 26.867-97.371 42.895c-24.315 16.027-61.33 38.479-61.33 38.479s21.315 21.11 42.64 44.341c21.324 23.23 60.909 94.1 60.909 94.1l-27.616-8.353zM1246.405 535.536l111.47 119.834s12.859-1.072 23.155-9.804c10.293-8.731 74.395-102.431 85.284-131.335 10.89-28.903 26.107-45.742 26.107-45.742s89.632-28.818 97.74-23.895c8.108 4.924 14.104 9.672 14.104 9.672l-5.996-4.749 6.516-1.594s-16.667-17.333-25.297-15.913c-8.632 1.417-80.307 18.94-84.361 16.481-4.054-2.461-14.522 8.383-14.522 8.383l-16.985 12.438s-32.417 70.766-50.272 93.776c-17.854 23.008-43.092 58.181-43.092 58.181s-19.405-22.879-40.922-45.931c-21.518-23.051-89.124-67.982-89.124-67.982l6.195 28.18z"/><path d="M1212.425 547.186l111.471 119.836s12.858-1.072 23.153-9.804c10.294-8.732 74.395-102.432 85.284-131.334 10.891-28.904 26.107-45.743 26.107-45.743s89.633-28.817 97.74-23.895c8.109 4.924 14.105 9.673 14.105 9.673l-5.996-4.75 6.515-1.593s-16.666-17.333-25.296-15.914c-8.631 1.418-80.307 18.941-84.361 16.481-4.054-2.462-14.523 8.382-14.523 8.382l-16.984 12.439s-32.419 70.765-50.273 93.774c-17.854 23.008-43.092 58.18-43.092 58.18s-19.404-22.878-40.921-45.929c-21.519-23.052-89.125-67.982-89.125-67.982l6.196 28.179z"/></g></switch></svg>