<svg xmlns="http://www.w3.org/2000/svg" xmlns:dc="http://dublincore.org/documents/dcmi-terms/" height="117.082" version="1.2" viewBox="0 0 592.004 117.082" width="592.004" overflow="inherit"><metadata><dc:description>Silhouette of Polypterus bichir bichir, processed by PhyloPic Tools (https://github.com/eweitz/phylopic-tools)</dc:description><dc:source>http://phylopic.org/image/6d16ae40-b1b2-4b67-a161-2fd1eb7b0024</dc:source><dc:license>http://creativecommons.org/publicdomain/mark/1.0/</dc:license></metadata><path d="M0 67.082c4.455-1.934 1.138-5.474 5-8 8.906 1.24 11.781-3.553 15-8 4.426-.155-.473 2.827 2 4 38.457-13.603 78.605-27.198 129-26 6.261-6.073 7.441-17.225 14-23 5.452 2.225 9.314-3.383 15-4-4.193 4.617-3.783 7.635-8 12 3.941-1.318-1.217 7.49 2 11 7.374-8.293 11.643-19.691 23-24-.354 1.313-1.761 1.573-2 3 4.715.048 6.106-3.227 11-3-3.961 5.723-12.073 14.018-7 25 6.604-7.062 11.343-15.991 18-23 5.03 1.912 7.453-.909 12-2-2.566 2.568-.688 5.121-5 7 4.567 3.953-5.949 7.293-3 16 7.725-6.275 10.946-17.054 20-22 2.558-.044 1.219.743 1 2 4.541-.459 7.229-2.771 11-4-.214 5.193-7.394 11.803-9 23 10.085-5.915 15.11-16.89 25-23 1.172.162.844 1.823 1 3 4.688-.646 7.155-3.511 13-3-4.452 2.629-3.877 6.89-9 7 4.237 1.717-1.865 2.009 1 4-.31 1.357-2.504.83-4 1 .161 1.172 1.823.843 3 1-.847 1.486-3.22 1.447-5 2-.549 3.582-2.236 9.786 0 13 8.986-7.347 13.334-19.332 24-25 2.137 3.792 9.131-3.951 15-3 .483 3.15-4.584.749-5 3 .437 1.484 1.279-.395 3 0-4.377 1.665-3.298 5.556-7 6 .443.89.878 1.789 2 2-2.816 2.727-9.807 10.037-6 17 9.076-6.591 12.535-18.799 23-24 3.407 4.333 10.031-3.217 14-1-3.505 3.337-2.665 4.805-7 7 3.271.757.709 1.01-2 3 .437 1.484 1.279-.395 3 0-4.867 3.133-6.278 9.722-7 17 10.832-5.168 11.721-20.279 24-24 1.819 4.928 8.437-1.158 13 0-2.244 1.617-4.413 2.619-3 5-.257 2.077-4.394.273-5 2 1.408 1.483 3.191 2.15-1 2 1.938 1.579-3.297 10.667-3 17 11.396-4.603 11.026-20.974 24-24 .281 1.615-.945 1.722-1 3 4.547-1.453 8.482-3.518 13-5-.241 1.759-1.721 2.279-4 2 1.852 4.121-1.852 1.879 0 6h-3c1.408 1.483 3.192 2.15-1 2 .568 6.568-2.321 9.679-2 16 7.507-7.16 12.752-16.582 21-23 3.659 4.462 11.653-2.417 16 0-3.538.461-3.79 4.21-8 4-.306 1.212 2.889 3.448 3 1 2.693.888-1.731 2.792-4 2 1.169 2.615-3.085 4.301 1 4-3.477 1.182-3.042 6.887-5 14 9.751-4.916 11.947-17.386 22-22 1.457 4.003 9.729-1.273 13-2 3.141 1.935-2.94 2.965-4 4 3.616 1.664.146 3.629-3 4 .161 1.172 1.823.844 3 1-1.614 2.923-3.166.394-5 2 1.647 6.08-4.102 6.447-3 14 7.996-3.343 12.926-18.404 24-22v3c4.679-.988 8.279-3.054 14-3-1.232 1.434-3.438 1.895-6 2 .161 1.172 1.823.844 3 1 .469 3.469-5.427.573-6 3 .437 1.484 1.279-.395 3 0-.85 1.483-2.517 2.15-5 2 .31 1.357 2.504.83 4 1-4.739 2.193-9.659 9.465-8 17 9.091-7.718 15.333-23.785 27-21 3.002.717 7.354-2.979 11-2-5.538 2.501.008 3.969-7 5 4.267 1.752 1.818 2.12-2 3 .161 1.172 1.823.844 3 1-3.201 2.448-5.796 6.261-8 12 7.748-2.259 14.481-14.181 24-18 1.484.437-.395 1.28 0 3 4.754-.58 9.221-1.445 15-1-5.498 1.375-3.559 6.262-9 6 3.47 3.798-8.479 7.585-9 16 15.564-8.189 19.763-21.974 42-17-3.295 2.142-3.8 3.274-9 4 4.264 2.265-3.955 3.97-6 6 11.013-.524 18.139-8.729 29-9 9.543-.238 20.617 7.766 29 7-1.801 4.787 9.259 3.57 14 7-3.252-2.353 3.574 9.194 8 8 .33 18.91-18.773 24.681-30 34-5.307-.425-9.316 5.254-15 6-22.184 2.913-49.866-18.011-72-8 7.4 6.6 18.759 9.241 22 20-19.218 2.247-34.714-13.282-51-17-25.51-5.824-54.645 5.16-82 0 14.185 7.701 32.571 15.796 34 33h-5c-8.079-2.678-17.972-8.921-27-15-7.515-5.061-16.428-14.317-24-16-13.1-2.911-33.463 0-49 0-31.779 0-60.206-1.021-86-2-14.499-.551-28.322-3.02-41-3-6.576.011-12.633 2.5-19 2-4.761-.374-9.67-3.218-15-4-12.503-1.835-32.008-2.748-46-1-11.887 1.485-30.234 4.218-49 3-16.775-1.089-28.662-2.173-37-13v-1z" fill-rule="evenodd"/></svg>