<svg xmlns="http://www.w3.org/2000/svg" version="1.2" width="1136.479" height="1183.293" viewBox="0 0 1136.479 1183.293" overflow="inherit"><path d="M750.479 306.325c22.153 16.181 52.897 32.435 78 49-.31 1.357-2.504.83-4 1 .56 1.44 1.56 2.44 3 3-.125 2.208-4.242.425-6 1 6.88 15.581 28.816 10.333 39 23 2.182.182 3.182-.818 3-3 36.525 21.142 67.84 47.493 99 74 8.982 12.684 18.324 25.009 32 33 5.274 10.726 12.33 19.67 21 27 .63 2.852 1.051 5.673 3 8 12.348 14.736 16.475 34.231 31 46-.31 1.357-2.504.83-4 1 3.698 7.968 12.635 10.698 20 15-2.836 3.093-6.199-1.744-10-1 .611 8.73 9.507 17.821 9 31-2.218.551-1.424-1.909-3-2 3.111 30.963 15.087 55.754 16 90-4.37-2.964-3.737-10.93-8-14 .944 16.542 12.146 35.552 8 55-1.389 6.512 1.029 14.712 2 24-3.17-2.163-3.401-7.266-6-10-9.778 13.413 5.245 31.355 5 48 .689 3.327-2.067 1.611-3 1-.844 4.178 1.944 4.723 2 8-3.213-3.453-8.847-4.486-12-8 1.83 10.17 7.802 16.199 10 26-2.729.729-2.014-1.987-4-2 .488 18.603 12.442 33.249 19 49-2.6-.4-3.016-2.984-6-3 2.186 8.814 8.391 13.609 13 20-2.381 2.637-6.146-1.797-9-2-.33 6.011 10.405 9.584 18 11-1.022 2.312-4.598 2.068-8 2 2.294 9.039 10.172 12.495 14 20-2.599-.599-3.599.401-3 3-4.206-1.461-6.143-5.191-11-6-1.217 6.565 5.998 13.324 13 15 1.555 3.555-3.396.604-3 3 2.732 10.601 15.208 11.459 20 20-2.48.52-3.562 2.438-5 4-9.1-.233-13.642-5.025-22-6 3.532 14.468 25.104 10.896 31 23-6.904.57-13.247.383-22 1-.731 7.269 13.435 2.719 19 6-.739 8.215 2.038 11.592 7 16-9.184 1.067-16.178-2.711-23-1-.279 2.279.241 3.759 2 4-2.327 2.904-5.388-1.879-9-1 4.359 7.308 19.113 4.221 27 8 .662 6.328-6.161 5.172-9 8 1.778 7.223 9.549 8.451 11 16-2.247 1.953-7.521.871-10 0 2.051 4.282 9.509 3.158 11 8-9.191-1.143-15.513-5.154-23-8-.777 6.79 12.722 7.936 12 18-2.527 2.14-7.944 1.389-11 3 6.366 10.521 6.762 21.106 8 36-5.638-6.029-7.423-15.91-12-23-1.731 7.079 5.615 13.707 6 22-3.03 1.768-7.3 3.053-9-1-6.316 4.596-2.845 14.287-4 25-1.759-.241-2.279-1.721-2-4-10.406 6.927-15.358 19.309-22 30-4.963 1.704-8.984 4.349-12 8-9.839-1.842-21.678 11.694-30 8-4.88 4.358-4.367 2.432-12 3-21.023 10.716-57.835 7.393-83 1-2.615-.282-4.302.365-4 3-4.773-2.226-9.23-1.379-14-5-12.181 4.071-22.978-7.903-36-8-5.309-.039-11.246 4.275-18-1-7.243 3.549-13.947-2.351-22-2-7.827.341-22.119 7.71-33 4-7.125-2.43-10.257-10.74-18-15-3.74.594-5.171 3.496-8 5h-8c-5.05 1.302-10.368 7.606-16 5-5.814 4.026-9.654 9.32-17 11-12.704 2.904-29.766-3.176-43-4-2.009-.125-4.899 1.469-7 1-11.06-2.469-18.428-11.952-25-16 2.449-3.218 1.217-10.116 4-13-8.308-10.324-14.55-20.929-13-36 .479-4.652 3.531-9.417 4-14 1.318-12.878-.712-25.432-1-36 5.108-4.262 10.519-5.006 18-5 7.486-7.021 21.752-8.038 30-9 .782-4.449-1.332-6.002-1-10-8.795-4.872-12.765-14.568-22-19-3.584-8.222-4.17-17.328-9-25-3.029-4.812-6.004-4.185-8-12-3.682-14.415-16.296-28.812-18-48-1.915 2.418-2.758 5.909-5 8-8.561-3.773-4.869-19.798-12-25-2.883 1.447 2.184 5.952-1 8-2.267-1.066-3.634-3.033-4-6-2.295 2.038-.362 8.305-1 12-3.638.638-3.93-2.07-4-5-2.715-.715.715 4.716-2 4-4.963 1.296-1.412-5.922-4-7-2.791 1.875 4.037 9.779-1 11-3.902-.098-1.961-6.039-4-8-2.812 1.604-4.26-1.678-4 3-4.465-2.535-7.193-6.807-12-9-2.209.125-.425 4.242-1 6-5.714-1.004-7.575.775-15 2-2.296 14.629 3.006 21.661 11 26-1.849 3.055-4.751-1.154-8 0-2.111 19.111 8.915 25.085 13 38-13.467-3.533-17.732-16.268-28-23 .549 5.181-1.173 9.022 2 14-7.102-.232-8.192-6.475-15-7-3.962 15.634 13.838 18.158 18 29-5.063 1.707-13.462-1.854-20-2-2.578.241 1.373 1.721 0 4-5.254-.745-7.232-4.768-12-6-.489 6.156 2.525 8.808 5 12-5.718-.295-11.688-8.969-20-10-1.891 7.571 3.198 16.791 7 22-5.161 1.503-11.596-8.351-13-1-4.212-.454-4.604-4.729-8-6-6.375 9.08 6.441 14.387 6 24-11.845-3.154-14.625-15.375-24-21-1.046 2.092 3.457 7.176 5 10-3.399 3.333-4.824-3.793-9-3 .17 6.496 5.342 7.991 5 15-7.392-4.275-9.778-13.555-17-18 .408 5.259 5.032 6.301 5 12-4.606-3.607-10.126-.981-14-6 1.058 6.941 5.331 10.669 7 17-2.949 2.051-3.63 6.37-3 12-6.91-1.106-11.773 7.22-15 13 1.403 5.93 9.788 4.879 17 5 9.736 11.666 27.998 23.536 32 42 3.082 14.216 6.598 27.562 2 45-2.263.737-2.188 3.812-5 4 3.06 15.661-12.769 25.483-29 23-3.63.703-5.444 3.223-8 5-28.184.494-61.615 6.424-91 0-26.101-5.705-58.878-3.791-77-21-12.683-21.336-16.854-39.998-16-65 .165-4.815 2.618-9.541 3-15 .307-4.391-1.441-9.307-1-14 1.384-14.728 7.714-31.098 11-45 1.691-7.155 6.473-15.028 6-21-.296-3.737-4.211-5.977-6-10-1.938-4.359-1.667-9.896-3-13-4.761-11.083-13.465-19.635-14-33-3.739 6.433 1.708 12.271 3 17-6.663 6.658 3.697 15.605-2 25-4.78-1.887-9.735-3.598-15-5-2.022 2.397 5.504 8.004 3 11-5.494 3.409-8.623-3.073-12-5-2.119 5.347 3.498 9.2 6 13-2.525 4.648-6.59-3.224-11-3 .813 7.188 8.121 7.879 11 13-7.784-1.877-13.135 6.263-18 1-.413 4.746 3.413 5.254 3 10-4.416.56-5.999-5.271-10-2-2.954.869 2.32 1.497 1 4-3.716-.617-6.284-2.383-10-3 .163 5.837 4.564 7.436 6 12-2.002 3.121-3.876 4.149-2 9-3.454-.787-4.399.935-5 3-8.403-9.488-12.79-3.062-9 10-3.553-1.78-4.136-6.531-7-9-4.236.095-5.083 3.609-8 0v10c-6.489-1.156-7.117 3.55-12 4-5.516-3.151-8.588-8.745-16-10-.601 2.964 3.877 9.434 5 14-5.974-4.842-10.813 1.216-16-4-2.322 4.116 3.986 7.013 4 12-5.33-.336-6.492-4.842-11-6-8.491 1.506-8.301 14.299-2 18 4.788 25.914.997 56.399-15 70h-6c-16.945 10.38-43.614 8.662-66 8-14.55-.431-29.96-2.035-40-6-3.629-.962-.84 4.493-4 4-6.576-.424-10.882-3.118-17-4-7.557-12.32-4.606-36.501 0-50-6.476-16.611 7.464-22.703 4-38 3.05-7.781 4.591-11.233 5-22-.147-2.231-2.52 1.298-5 0-1.753-13.344-12.536-26.566-13-42-.334-11.112 6.239-24.907-4-33-5.434-17.365 5.762-31.731 7-45 .422-4.527-2.173-8.229-2-12 .425-9.243 5.466-19.608 6-30 .729-2.729-1.987-2.013-2-4 1.167-21.783 3.517-44.372 20-59 2.332-22.75 12.209-41.27 14-59 17.89-31.567 17.458-70.74 40-100 .022-2.355-1.723-2.944-1-6 8.571-18.447 21.608-39.233 34-57 .339-5.34-5.355-4.645-6-9-3.078-.745-1.922 2.744-5 2-2.325-11.341-10.48-16.853-10-31-2.783 2.217-4.295 5.705-6 9-2.231-7.102-5.636-13.031-7-21-.162-1.172-1.823-.844-3-1-4.22-20.447-4.316-45.017-16-58-3.866 1.771-9.943.938-14 0-1.45-5.476-3.123-10.318 2-13-3.782-7.072.216-14.192-1-21 5.087.246 6.343 4.323 10 6 13.052-6.27 9.948-16.015 4-27-8.551-6.449-23.365-6.635-31-14 3.122-13.016 1.85-21.207 4-32 3.5-17.574 18.046-32.34 24-45 3.557-7.562-2.881-18.236 8-22-.991-5.675-.109-13.225-5-15-3.603-22.908 2.827-45.138 4-68 1.095-21.339-2.243-38.12 5-58 7.108-19.51 13.224-35.604 28-45-3.897-12.979-3.305-24.092-3-42 4.662-9.338 13.357-14.642 23-19 10.671-13.844 35.743-20.067 55-14-3.819-3.421 47.698-5.91 57 1 9.308-2.411 21.922-.517 21 7 12.584 1.584 16.288-5.712 21-12 17.965-.035 22.299-13.702 39-15 2.05-1.617 2.521-4.812 4-7 13.651-5.154 24.266-20.405 41-23 8.608-1.335 15.628-2.413 22-8 56.504-11.294 87.254 21.348 126 38 12.779 15.89 32.327 21.236 45 37 2.06 2.562 2.525 6.612 5 9 6.319 6.095 16.857 7.212 25 11 8.105 12.228 13.745 26.922 26 35-2.409.409-2.174-1.826-5-1 9.777 9.13 18.322 14.426 26 28 3.881 6.861 5.799 16.09 12 20 6.163 3.886 12.048.207 19 7-3.202 2.702-6.633-.771-11 0 8.306 7.694 18.041 13.959 25 23 .551 2.217-1.91 1.424-2 3 .994 5.308 9.437 6.336 6 13 5.146 6.188 11.384 11.283 16 18-1.374 3.164-.218 3.342 0 7 13.607 22.726 28.217 44.45 59 50 1.026 3.36-3.11 1.557-5 2a8.993 8.993 0 0 0 4 4c-.733 1.781-1.818.144-3 0z" fill-rule="evenodd"/></svg>