<svg xmlns="http://www.w3.org/2000/svg" xmlns:dc="http://dublincore.org/documents/dcmi-terms/" height="109.24" width="119.669"><metadata><dc:description>Silhouette of Poribacteria, processed by PhyloPic Tools (https://github.com/eweitz/phylopic-tools)</dc:description><dc:source>http://phylopic.org/image/a3d9c980-0931-4fff-8fb3-ab3f66c98340</dc:source><dc:creator>Matt Crook</dc:creator><dc:license>http://creativecommons.org/licenses/by-sa/3.0/</dc:license></metadata><g stroke="#000"><path d="M38.251 46.667c2.756-3.016 5.21-5.81 6.919-8.014 1.708-2.206 8.337-6.542 10.12-8.916 1.781-2.373 1.654-3.843 3.614-6.505 1.96-2.663 6.18-5.21 8.674-7.951 2.494-2.742 3.084-4.599 5.3-6.747 2.217-2.148 5.71-3.981 8.675-5.3C84.517 1.913 88.32.087 90.468.582c2.147.495 1.213.85 3.614 1.928 2.4 1.077 6.159-.264 11.083 1.927 4.925 2.19 13.454 7.98 13.975 14.457.521 6.476-6.14 9.838-7.951 13.493-1.81 3.655-1.992 2.772-3.855 6.024-1.864 3.252-9.726 8.584-11.807 11.565-2.08 2.981-.363 2.564-2.168 4.819-1.805 2.255-9.011 6.651-9.638 7.228a40.518 40.518 0 0 0-2.043 2.046c-7.238-2.9-7.006-4.115-14.244-7.015-7.238-2.9-21.945-7.488-29.183-10.388z" fill="#333"/><path d="M81.678 64.07c-6.71 7.145-17.324 21.893-22.533 27.832-5.21 5.938-5.635 6.869-7.952 9.638-2.317 2.768-4.893 4.635-10.36 6.264-5.468 1.63-15.41.91-20.24-.482-4.83-1.392-3.802-2.873-6.024-3.614-2.221-.74-4.154-.863-6.987-2.41-2.833-1.546-6.41-4.569-6.987-8.673C.016 88.52 2.18 84.887 4.69 81.782c2.51-3.105 7.665-4.296 9.397-6.506 1.73-2.21 1.479-3.605 5.541-8.433 4.063-4.827 12.17-13.113 18.622-20.176 7.238 2.9 21.945 7.487 29.183 10.388 7.238 2.9 7.006 4.114 14.244 7.014z" fill="#333"/><path d="M21.557 94.07c-2.949-1.623-5.656-2.344-6.506-6.264-.849-3.92 3.987-9.753 5.542-13.975 1.555-4.222 2.095-8.566 3.855-11.325 1.76-2.758 2.676-3.756 5.542-5.3 2.866-1.545 7.334-2.097 11.565-2.651 4.232-.554 10.1-1.225 13.734-.482 3.635.743 5.304 1.638 7.71 3.614 2.407 1.977 4.882 4.965 6.024 8.192 1.143 3.228 1.622 7.335.482 10.361-1.139 3.027-2.338 3.349-6.264 6.506-3.927 3.157-12.777 8.93-18.071 11.083-5.294 2.154-8.728 2.926-12.77 2.892-4.043-.035-7.895-1.028-10.843-2.65zM70.95 57.205c-3.938-.318-9.084-2.535-12.046-4.578-2.963-2.042-4.428-3.817-5.783-6.505-1.356-2.688-2.61-6.155-1.928-9.156.682-3.001 2.338-4.492 5.542-7.229 3.204-2.736 9.064-5.474 14.216-7.71 5.152-2.235 11.768-4.703 16.625-5.542 4.858-.838 9.44-1.753 12.048-.24 2.607 1.512 2.184 1.738 2.89 5.3.708 3.562-.165 10.882-1.686 15.662-1.52 4.78-3.558 9.431-6.987 12.53-3.43 3.097-8.44 4.09-12.288 5.3-3.849 1.21-6.663 2.487-10.602 2.168z"/><path d="M36.255 93.106c-2.644.799-6.894.135-9.638-1.445-2.745-1.58-5.227-5.192-5.783-7.229-.556-2.036-.245-2.02.482-3.373.726-1.352 3.989-2.553 4.337-3.855.348-1.302-.982-.815-.723-2.169.26-1.353 3.183-2.735 3.855-4.578.673-1.842-.615-4.132 0-5.782.616-1.65 1.301-2.706 3.133-3.614 1.831-.91 4.375.123 7.469-.482 3.094-.605 7.55-3.419 10.843-3.615 3.293-.195 5.44-.213 8.192 1.687 2.751 1.9 5.302 6.956 6.264 9.879.963 2.922 1.417 4.466.482 6.746-.934 2.281-4.011 4.327-6.023 5.301-2.012.974-3.638.062-5.301.964-1.664.902-2.005 3.028-4.096 4.337-2.092 1.31-6.168 1.353-8.434 2.65-2.265 1.298-2.416 3.78-5.06 4.578zM71.674 53.832c-2.893-.37-6.59-1.76-8.192-3.132-1.602-1.373-1.414-2-1.928-3.373-.514-1.374-.064-3.307-.964-4.82-.9-1.512-3.963-1.444-4.337-3.614-.373-2.169 2.063-4.762 3.855-6.505 1.793-1.744 4.577-3.227 6.506-3.614 1.929-.388 2.66 1.17 4.337.482 1.676-.69 2.464-4.282 4.096-5.06 1.632-.779 2.898.567 4.337 0 1.44-.568 1.704-2.444 3.614-3.374 1.91-.93 5.473-1.224 7.71-1.204 2.239.019 4.343.042 5.542.964 1.2.921 1.881 1.8 1.446 3.132-.435 1.332-3.545.983-4.337 2.41-.792 1.425.691 3.551.24 4.818-.45 1.267-2.356 1.237-2.168 2.41.189 1.172 2.876.443 3.374 1.927.497 1.484-1.236 3.962-2.169 5.06-.933 1.098-2.02.472-2.65 1.687-.63 1.214.923 3.533.24 5.06-.682 1.526-2.49 2.804-3.854 3.132-1.365.327-2.16-1.161-3.374-.723-1.213.439-.754 2.319-2.65 3.373-1.896 1.055-5.781 1.334-8.674.964z" fill="#666"/><path d="M39.146 81.06c-1.362-1.37 1.892-3.397 1.928-5.06.035-1.665-1.739-3.099-1.446-4.338.292-1.239.03-2.038 2.168-2.168 2.138-.131 6.731 3.747 7.71 6.023.98 2.276.876 4.242-.481 5.06-1.358.819-2.329-1.658-4.096-1.686-1.768-.028-4.42 3.538-5.783 2.168z" fill="#333"/><path d="M86.609 38.91a4.256 2.161 55.578 1 1-4.812-7.021 4.256 2.161 55.578 1 1 4.812 7.022z" fill="#fff"/></g></svg>