<svg xmlns="http://www.w3.org/2000/svg" xmlns:dc="http://dublincore.org/documents/dcmi-terms/" height="287.059" version="1.2" viewBox="0 0 233.482 287.059" width="233.482" overflow="inherit"><metadata><dc:description>Silhouette of Porifera, processed by PhyloPic Tools (https://github.com/eweitz/phylopic-tools)</dc:description><dc:source>http://phylopic.org/image/c298de53-51d8-41d4-b2eb-83723a876b9a</dc:source><dc:creator>Michelle Site</dc:creator><dc:license>http://creativecommons.org/licenses/by-nc/3.0/</dc:license></metadata><path d="M148.083 3.259c.033-.367.816-.601 2.35-.7 1.533-.134 3.334-.083 5.4.15 2.1.233 3.883.55 5.35.949 1.434.434 2.134.834 2.101 1.2-.034.367-.801.601-2.301.7-1.533.134-3.35.083-5.449-.15-2.067-.233-3.834-.55-5.301-.949-1.467-.434-2.184-.834-2.15-1.2-.033.366.684.767 2.149 1.2 1.467.399 3.233.716 5.301.949 2.1.233 3.916.284 5.449.15 1.5-.1 2.267-.333 2.301-.7.033-.366-.667-.767-2.101-1.2-1.467-.399-3.25-.716-5.35-.949-2.066-.233-3.867-.284-5.4-.15-1.533.099-2.316.333-2.349.7zm73.549 235.45c.216 0 .433.008.65.024a9.984 9.984 0 0 1 3.725.925c1.454.68 2.779 1.729 3.975 3.15 2.301 2.767 3.45 6.083 3.45 9.95 0 3.866-1.149 7.166-3.45 9.899-2.3 2.767-5.083 4.15-8.35 4.15-1.755 0-3.372-.4-4.85-1.2l-89.775-17.2 8.05 9.4c3.133 7.372 1.717 11.205-4.25 11.5l-22.125-16.775-12.8 27.5c-.536 1.408-1.402 2.684-2.6 3.825-2.134 2.101-4.717 3.15-7.75 3.15-3.034 0-5.634-1.05-7.801-3.15-2.133-2.066-3.199-4.566-3.199-7.5 0-2.507.774-4.707 2.324-6.6a11.142 11.142 0 0 1 .875-.95c2.167-2.066 4.767-3.1 7.801-3.1 3.033 0 5.616 1.033 7.75 3.1 2.166 2.1 3.25 4.616 3.25 7.55 0 1.312-.217 2.538-.65 3.675.434-1.137.65-2.362.65-3.675 0-2.934-1.084-5.45-3.25-7.55-2.134-2.066-4.717-3.1-7.75-3.1-3.034 0-5.634 1.033-7.801 3.1l-.074-.05 15.024-22.976c-.44.123-.907.248-1.399.375-2.101.534-4.5 1.15-7.2 1.851-2.7.701-5.601 1.416-8.7 2.149-3.134.733-6.3 1.467-9.5 2.2-3.233.7-6.4 1.334-9.5 1.9-3.1.6-6.017 1.083-8.75 1.45-2.647.354-4.98.588-7 .699-1.909.934-4.025 1.4-6.35 1.4-3.767 0-6.983-1.233-9.65-3.7-2.667-2.467-4-5.45-4-8.95 0-3.5 1.333-6.483 4-8.949 2.667-2.467 5.883-3.7 9.65-3.7.895 0 1.761.066 2.6.2a161.465 161.465 0 0 0 8.2-.4c1.333-.1 2.716-.2 4.149-.3a88.649 88.649 0 0 1 4.601-.3 119.97 119.97 0 0 1 5.3-.2 101.66 101.66 0 0 1 6.35 0 221.932 221.932 0 0 1 16.676.899l-7.601-5.774-.024-.025-54.275-25.149.325-.7a8.78 8.78 0 0 1-2.775-.425 7.734 7.734 0 0 1-2.575-1.525c-1.467-1.3-2.2-2.884-2.2-4.75s.733-3.45 2.2-4.75c1.467-1.3 3.25-1.95 5.35-1.95 1.248 0 2.381.226 3.4.675.348.161.681.345 1 .551.331.215.647.457.95.725l.1-.175 22.125 11.625a20.011 20.011 0 0 1-.125-2.25c0-.926.067-1.826.2-2.7L.357 48.209a2.875 2.875 0 0 1-.175-.5c-.466-1.733.3-3.534 2.3-5.4 2.033-1.833 4.683-3.167 7.95-4 3.267-.833 6.2-.934 8.8-.3 2.667.666 4.233 1.866 4.7 3.6l8.45 25.55a22.9 22.9 0 0 1 2.15-.1c4.1 0 7.6.95 10.5 2.85 2.9 1.9 4.35 4.2 4.35 6.9 0 .506-.05.997-.15 1.475l.551.075c.233 1 .566 2.384 1 4.15l.375 1.55.1-38a1.886 1.886 0 0 1-.025-.275v-.024c0-.967.834-1.8 2.5-2.5 1.667-.667 3.684-1 6.051-1 2.366 0 4.383.333 6.05 1 1.666.7 2.5 1.533 2.5 2.5 0 .122-.017.239-.05.35l.85 30.75c0-1.6.684-2.983 2.05-4.149 1.367-1.134 3.017-1.7 4.95-1.7 1.933 0 3.583.566 4.95 1.7 1.366 1.166 2.05 2.55 2.05 4.149 0 .361-.033.712-.1 1.05l.35 14.525c.196-.131.412-.256.65-.375 1.399-.667 3.1-1 5.1-1 2 0 3.7.333 5.1 1 .826.413 1.409.871 1.75 1.375.009.014.018.03.025.05v-.05l5.15-63.4.425.025c-.219-.245-.344-.479-.375-.7a.475.475 0 0 1-.025-.149c0-.301.134-.584.4-.851.233-.267.566-.517 1-.75.434-.233.967-.416 1.6-.55.566-.2 1.217-.333 1.95-.4.733-.1 1.5-.149 2.3-.149 2.066 0 3.783.267 5.15.8 1.333.5 2.033 1.134 2.1 1.9V29.361l.55.25a4.55 4.55 0 0 1 .025-.2c-.003-.05-.003-.1 0-.149.259-2.828.501-5.395.725-7.7.2-2.4.384-4.45.551-6.15.166-1.733.283-3.066.35-4l.375-1.5a2.535 2.535 0 0 1-.225-1.05c0-1.3.966-2.416 2.899-3.35 1.933-.934 4.267-1.4 7-1.4 2.733 0 5.066.467 7 1.4 1.934.933 2.9 2.05 2.9 3.35 0 .346-.066.679-.2 1l-.025.05 1.4 18.025.675-3.475 4.175-21.551a1.224 1.224 0 0 1-.024-.399c.1-.934 1.316-1.617 3.649-2.05 2.301-.467 5.051-.534 8.25-.2 3.167.333 5.834.967 8 1.899 2.134.9 3.15 1.817 3.051 2.75a257.458 257.458 0 0 1-.65 9.601 466.355 466.355 0 0 1-1.2 11.2c-.467 3.933-.95 7.916-1.45 11.949-.533 4.034-1.05 7.967-1.55 11.801a1018.81 1018.81 0 0 1-1.55 10.75c-.467 3.3-.884 6.216-1.25 8.75-.4 2.5-.7 4.466-.9 5.899a341.914 341.914 0 0 0-.35 2.175c.282-.117.583-.226.9-.324 2.3-.733 4.833-.75 7.6-.051 2.733.7 4.9 1.917 6.5 3.65 1.667 1.7 2.283 3.4 1.85 5.1a4.27 4.27 0 0 1-.3.825c-.13.273-.288.532-.475.775l.375-.05a84.933 84.933 0 0 1-.5 2.55 420.632 420.632 0 0 1-1.4 5.75c-.6 2.267-1.233 4.7-1.899 7.3-.667 2.566-1.334 5.116-2 7.65-.667 2.533-1.284 4.85-1.851 6.949-.566 2.067-1 3.717-1.3 4.95-.366 1.233-.559 1.941-.575 2.125 3.087.445 5.795 1.754 8.125 3.925 2.934 2.733 4.4 6.034 4.4 9.9 0 2.021-.4 3.889-1.2 5.6a12.879 12.879 0 0 1-1 1.75l-40.1 80.2c.033 0 .683-.316 1.949-.95a207.754 207.754 0 0 1 5.25-2.5c2.167-1.066 4.65-2.25 7.45-3.55a608.05 608.05 0 0 1 8.7-4 344.63 344.63 0 0 1 9-4c2.934-1.3 5.684-2.45 8.25-3.45 2.533-1 4.7-1.783 6.5-2.35a28.592 28.592 0 0 1 1.725-.5l-.024.25a4.337 4.337 0 0 1 2.05-.5c.734 0 1.417.167 2.05.5.667.333 1.267.8 1.8 1.4.534.566 1 1.25 1.4 2.05.4.8.717 1.7.95 2.7.2.933.3 1.949.3 3.05 0 1.066-.1 2.083-.3 3.05a12.4 12.4 0 0 1-.95 2.65c-.4.8-.866 1.5-1.4 2.1a6.374 6.374 0 0 1-1.8 1.35 4.162 4.162 0 0 1-1.125.4 4.25 4.25 0 0 1-1.575.05 4.449 4.449 0 0 1-1.85-.7c-.8-.5-1.5-1.183-2.1-2.05-.601-.899-1.067-1.934-1.4-3.1a13.611 13.611 0 0 1-.5-3.75c0-1.101.116-2.117.35-3.05.2-1 .5-1.9.9-2.7.4-.8.866-1.483 1.4-2.05-.534.566-1 1.25-1.4 2.05-.4.8-.7 1.7-.9 2.7-.233.933-.35 1.949-.35 3.05 0 1.333.167 2.583.5 3.75.333 1.166.8 2.2 1.4 3.1.6.867 1.3 1.55 2.1 2.05a4.438 4.438 0 0 0 1.85.7l-.05.351c-1.1.199-2.6.466-4.5.8l-6.55 1.149c-2.5.434-5.15.9-7.95 1.4-2.8.467-5.633.95-8.5 1.45-2.866.467-5.649.916-8.35 1.35-2.701.434-5.184.834-7.45 1.2-2.193.317-4.068.593-5.625.825 3.774.147 7.833.339 12.175.575 6.101.267 12.417.616 18.95 1.05 6.533.399 12.95.833 19.25 1.3 6.267.467 12.1.983 17.5 1.55 5.4.533 10 1.084 13.8 1.65 1.398.196 2.648.396 3.75.6l-.053.099c-3.267 0-6.05 1.366-8.35 4.1-2.301 2.767-3.45 6.083-3.45 9.95 0 3.866 1.149 7.166 3.45 9.899 1.063 1.28 2.23 2.264 3.5 2.95-1.27-.687-2.437-1.67-3.5-2.95-2.301-2.733-3.45-6.033-3.45-9.899 0-3.867 1.149-7.184 3.45-9.95 2.301-2.734 5.084-4.1 8.35-4.1zm-38.95-28.851c.733-1.166 1.601-1.75 2.601-1.75s1.85.584 2.55 1.75c.733 1.167 1.1 2.584 1.1 4.25 0 1.667-.366 3.084-1.1 4.25-.7 1.167-1.55 1.75-2.55 1.75-1 0-1.867-.583-2.601-1.75-.7-1.166-1.05-2.583-1.05-4.25 0-1.666.35-3.083 1.05-4.25-.7 1.167-1.05 2.584-1.05 4.25 0 1.667.35 3.084 1.05 4.25.733 1.167 1.601 1.75 2.601 1.75s1.85-.583 2.55-1.75c.733-1.166 1.1-2.583 1.1-4.25 0-1.666-.366-3.083-1.1-4.25-.7-1.166-1.55-1.75-2.55-1.75-1 0-1.867.584-2.601 1.75zM132.932 9.709c-1.267.366-2.816.55-4.649.55-1.834 0-3.4-.184-4.7-.55-1.267-.367-1.9-.801-1.9-1.301 0-.5.634-.933 1.9-1.3 1.3-.366 2.866-.55 4.7-.55 1.833 0 3.383.184 4.649.55 1.3.367 1.95.8 1.95 1.3s-.65.934-1.95 1.301c1.3-.367 1.95-.801 1.95-1.301 0-.5-.65-.933-1.95-1.3-1.267-.366-2.816-.55-4.649-.55-1.834 0-3.4.184-4.7.55-1.267.367-1.9.8-1.9 1.3s.634.934 1.9 1.301c1.3.366 2.866.55 4.7.55 1.833 0 3.383-.184 4.649-.55zm4.675.199c-.386.859-1.277 1.626-2.675 2.301-1.934.933-4.267 1.399-7 1.399-2.733 0-5.066-.467-7-1.399-1.39-.671-2.281-1.438-2.675-2.301.394.863 1.285 1.63 2.675 2.301 1.934.933 4.267 1.399 7 1.399 2.733 0 5.066-.467 7-1.399 1.398-.675 2.289-1.441 2.675-2.301zm-31.975 18.45c.866-.2 1.9-.3 3.1-.3 1.2 0 2.217.1 3.051.3.866.2 1.3.434 1.3.7 0 .266-.434.5-1.3.7-.834.2-1.851.3-3.051.3-1.199 0-2.233-.1-3.1-.3-.833-.2-1.25-.434-1.25-.7 0-.266.417-.499 1.25-.7-.833.2-1.25.434-1.25.7 0 .266.417.5 1.25.7.866.2 1.9.3 3.1.3 1.2 0 2.217-.1 3.051-.3.866-.2 1.3-.434 1.3-.7 0-.266-.434-.5-1.3-.7-.834-.2-1.851-.3-3.051-.3-1.199.001-2.233.1-3.1.3zm-4.049 1.701c.233.267.566.517 1 .75.434.2.967.384 1.6.55.566.167 1.217.3 1.95.4.733.1 1.5.149 2.3.149.8 0 1.566-.05 2.3-.149a15.26 15.26 0 0 0 2-.4c.601-.166 1.117-.35 1.551-.55a4.474 4.474 0 0 0 1.05-.75c.19-.245.307-.479.35-.7-.043.222-.159.455-.35.7a4.474 4.474 0 0 1-1.05.75c-.434.2-.95.384-1.551.55-.6.167-1.267.3-2 .4-.733.1-1.5.149-2.3.149-.8 0-1.566-.05-2.3-.149a13.424 13.424 0 0 1-1.95-.4 9.81 9.81 0 0 1-1.6-.55c-.434-.234-.767-.484-1-.75zm14.649-.451c-.267 2.934-.55 6.101-.85 9.5-.3 3.367-.616 6.917-.95 10.65-.333 3.7-.666 7.5-1 11.399-.366 3.9-.717 7.834-1.05 11.801-.366 3.966-.717 7.933-1.05 11.899-.334 3.934-.65 7.783-.95 11.55a844.993 844.993 0 0 0-.9 10.95c-.3 3.467-.566 6.75-.8 9.851-.267 3.1-.483 5.949-.649 8.55-.2 2.566-.351 4.816-.45 6.75a117.71 117.71 0 0 0-.25 4.7c-.062 1.099-.062 1.815 0 2.149a8.391 8.391 0 0 1 2.399 1.101c.411.273.77.565 1.075.875.1-.307.342-1.498.726-3.575.366-2.2.866-5.101 1.5-8.7.6-3.6 1.283-7.667 2.05-12.2a1650.71 1650.71 0 0 1 2.45-14.1c.833-4.9 1.683-9.733 2.55-14.5a605.555 605.555 0 0 1 2.55-13.25c.8-4.066 1.55-7.533 2.25-10.4.609-2.65 1.159-4.567 1.65-5.75l.05-.3a.103.103 0 0 0 0-.025c.342-1.819 1.825-3.178 4.45-4.074.908-.3 1.867-.508 2.875-.625l.675-3.476a1808.186 1808.186 0 0 0 0 0l-.675 3.476a14.457 14.457 0 0 0-2.875.625c-2.625.896-4.108 2.255-4.45 4.074a.101.101 0 0 1 0 .025l-.05.3c-.491 1.183-1.041 3.1-1.65 5.75-.7 2.867-1.45 6.334-2.25 10.4a605.555 605.555 0 0 0-2.55 13.25c-.867 4.767-1.717 9.6-2.55 14.5a1599.36 1599.36 0 0 0-2.45 14.1c-.766 4.534-1.45 8.601-2.05 12.2-.634 3.6-1.134 6.5-1.5 8.7-.384 2.077-.626 3.269-.726 3.575a6.754 6.754 0 0 0-1.075-.875 8.446 8.446 0 0 0-2.399-1.101c-.062-.334-.062-1.051 0-2.149.033-1.2.116-2.767.25-4.7.1-1.934.25-4.184.45-6.75.166-2.601.383-5.45.649-8.55.233-3.101.5-6.384.8-9.851.267-3.533.567-7.184.9-10.95.3-3.767.616-7.616.95-11.55.333-3.967.684-7.934 1.05-11.899.333-3.967.684-7.9 1.05-11.801.334-3.899.667-7.699 1-11.399.334-3.733.65-7.283.95-10.65.3-3.399.583-6.566.85-9.5zm50.551-24.7c-.101.967-1.301 1.684-3.601 2.15-2.3.434-5.033.483-8.2.15-3.199-.334-5.883-.95-8.05-1.851-1.869-.805-2.895-1.622-3.075-2.45.181.828 1.206 1.646 3.075 2.45 2.167.9 4.851 1.517 8.05 1.851 3.167.333 5.9.283 8.2-.15 2.3-.466 3.5-1.183 3.601-2.15zm-32.875 48.926c1.89-.243 3.948-.168 6.175.225 3.434.6 6.25 1.75 8.45 3.45 2.199 1.733 3.133 3.517 2.8 5.35a.052.052 0 0 0 0 .025c-.023.12-.049.237-.075.35l-13.075 83.525 16.476-65.525c.004-.308.046-.615.125-.925v-.025c.381-1.445 1.414-2.528 3.1-3.25-1.686.722-2.719 1.805-3.1 3.25v.025c-.079.31-.121.617-.125.925l-16.476 65.525 13.075-83.525a8.86 8.86 0 0 0 .075-.35.053.053 0 0 1 0-.025c.333-1.833-.601-3.616-2.8-5.35-2.2-1.7-5.017-2.851-8.45-3.45-2.227-.393-4.286-.468-6.175-.225zm10.925 5.524c1.5.8 2.184 1.584 2.05 2.351-.1.733-1 1.233-2.7 1.5-1.666.233-3.633.149-5.899-.25-2.267-.367-4.167-.967-5.7-1.801-1.467-.8-2.15-1.566-2.05-2.3.133-.767 1.033-1.283 2.699-1.55 1.733-.2 3.733-.116 6 .25 2.266.401 4.133 1.001 5.6 1.8-1.467-.8-3.334-1.399-5.601-1.8-2.267-.366-4.267-.45-6-.25-1.666.267-2.566.783-2.699 1.55-.101.733.583 1.5 2.05 2.3 1.533.834 3.434 1.434 5.7 1.801 2.267.399 4.233.483 5.899.25 1.7-.267 2.601-.767 2.7-1.5.134-.767-.549-1.551-2.049-2.351zm6.424 3.875c-.437 1.646-1.895 2.888-4.375 3.726-2.634.866-5.667 1-9.1.399-3.4-.6-6.2-1.75-8.4-3.45-2.044-1.635-2.993-3.317-2.85-5.05-.144 1.732.806 3.415 2.85 5.05 2.2 1.7 5 2.851 8.4 3.45 3.433.601 6.466.467 9.1-.399 2.481-.838 3.939-2.079 4.375-3.726zm22.701 23.776c-.714.887-1.822 1.57-3.325 2.05-2.233.7-4.717.7-7.45 0-2.767-.7-4.983-1.9-6.649-3.6-1.31-1.419-1.935-2.827-1.875-4.226-.06 1.398.565 2.807 1.875 4.226 1.666 1.699 3.883 2.899 6.649 3.6 2.733.7 5.217.7 7.45 0 1.502-.48 2.611-1.163 3.325-2.05zm-2.125-2.3c-.101.333-.3.649-.601.949-.3.267-.666.5-1.1.7a7.117 7.117 0 0 1-1.5.351c-.566.066-1.167.083-1.8.05a13.81 13.81 0 0 1-2-.351 17.847 17.847 0 0 1-2.55-.899c-.867-.4-1.65-.851-2.351-1.351-.733-.5-1.283-1-1.649-1.5-.367-.533-.5-1.017-.4-1.449.066-.334.25-.601.55-.801.3-.233.684-.433 1.15-.6a9.8 9.8 0 0 1 1.55-.3 9.418 9.418 0 0 1 1.75-.15c.634 0 1.267.033 1.9.101.6.066 1.183.183 1.75.35.866.2 1.649.483 2.35.85.667.367 1.25.784 1.75 1.25.467.434.816.884 1.05 1.351.2.499.25.982.151 1.449.1-.467.05-.95-.15-1.45-.233-.467-.583-.917-1.05-1.351a8.706 8.706 0 0 0-1.75-1.25 9.852 9.852 0 0 0-2.35-.85 10.176 10.176 0 0 0-1.75-.35 18.063 18.063 0 0 0-1.9-.101c-.633 0-1.217.05-1.75.15a9.71 9.71 0 0 0-1.55.3c-.467.167-.851.366-1.15.6-.3.2-.483.467-.55.801-.1.433.033.916.4 1.449.366.5.916 1 1.649 1.5.7.5 1.483.95 2.351 1.351.833.366 1.683.666 2.55.899.666.167 1.333.284 2 .351a10.63 10.63 0 0 0 1.8-.05 7.056 7.056 0 0 0 1.5-.351c.434-.2.8-.434 1.1-.7.3-.299.499-.615.6-.948zm-75.826 8.774c.217.335.325.693.325 1.075 0 .305-.066.596-.2.875l1.775 45.85a6.807 6.807 0 0 1 1.024-.824c1.5-1 3.3-1.5 5.4-1.5 1.075 0 2.075.133 3 .399a10.778 10.778 0 0 0-3-.399c-2.101 0-3.9.5-5.4 1.5a6.819 6.819 0 0 0-1.024.824l-1.775-45.85c.134-.279.2-.57.2-.875a1.935 1.935 0 0 0-.325-1.075zm2.925 54.175c-1.301-.867-2.034-1.884-2.2-3.05l2 70.825.15.2 4.9 5.7.875-25.825a5.906 5.906 0 0 1-.025-.55c0-1.601.767-2.967 2.3-4.101 1.566-1.133 3.434-1.7 5.601-1.7h.05l-.601-45.074c-.009 1.389-.759 2.581-2.25 3.574-1.5 1-3.3 1.5-5.399 1.5-2.101.001-3.901-.499-5.401-1.499 1.5 1 3.3 1.5 5.4 1.5 2.1 0 3.899-.5 5.399-1.5 1.491-.993 2.241-2.186 2.25-3.574l.601 45.074h-.05c-2.167 0-4.034.567-5.601 1.7-1.533 1.134-2.3 2.5-2.3 4.101 0 .185.009.368.025.55l-.875 25.825-4.9-5.7-.15-.2-2-70.825c.167 1.165.9 2.182 2.201 3.049zm1.75-5.599c.867-.533 1.9-.8 3.101-.8 1.199 0 2.233.267 3.1.8s1.3 1.167 1.3 1.9c0 .733-.434 1.366-1.3 1.899-.866.533-1.9.8-3.1.8-1.2 0-2.233-.267-3.101-.8-.866-.533-1.3-1.166-1.3-1.899 0-.733.434-1.367 1.3-1.9-.866.533-1.3 1.167-1.3 1.9 0 .733.434 1.366 1.3 1.899.867.533 1.9.8 3.101.8 1.199 0 2.233-.267 3.1-.8s1.3-1.166 1.3-1.899c0-.733-.434-1.367-1.3-1.9-.866-.533-1.9-.8-3.1-.8-1.2 0-2.234.266-3.101.8zm10.125-.725c.783.8 1.175 1.708 1.175 2.725v.025-.025c0-1.017-.392-1.925-1.175-2.725zm36.726-5.7c.093-.527.218-1.045.375-1.55.678-2.206 1.953-4.181 3.824-5.926 2.934-2.733 6.467-4.1 10.601-4.1-4.134 0-7.667 1.366-10.601 4.1-1.871 1.745-3.146 3.72-3.824 5.926a12.2 12.2 0 0 0-.375 1.55zm-.2 2.425c0-.837.066-1.645.2-2.425l-.775 2.225.575.2c0 3.866 1.467 7.167 4.399 9.9 2.934 2.733 6.467 4.1 10.601 4.1 4.133 0 7.666-1.366 10.6-4.1-2.934 2.733-6.467 4.1-10.6 4.1-4.134 0-7.667-1.366-10.601-4.1-2.933-2.733-4.399-6.034-4.399-9.9zm8.599-7.451c2.066-2.033 4.55-3.05 7.45-3.05 2.9 0 5.366 1.017 7.4 3.05 2.066 2.066 3.1 4.55 3.1 7.45 0 2.9-1.033 5.366-3.1 7.4-2.034 2.066-4.5 3.1-7.4 3.1-2.9 0-5.384-1.033-7.45-3.1-2.033-2.034-3.05-4.5-3.05-7.4 0-2.9 1.017-5.383 3.05-7.45-2.033 2.066-3.05 4.55-3.05 7.45 0 2.9 1.017 5.366 3.05 7.4 2.066 2.066 4.55 3.1 7.45 3.1 2.9 0 5.366-1.033 7.4-3.1 2.066-2.034 3.1-4.5 3.1-7.4 0-2.9-1.033-5.384-3.1-7.45-2.034-2.033-4.5-3.05-7.4-3.05-2.9 0-5.383 1.017-7.45 3.05zm-137.4-85.899c-1.367 1.066-3.133 1.883-5.3 2.449-2.167.567-4.083.7-5.75.4-1.733-.233-2.717-.8-2.95-1.7-.233-.899.35-1.883 1.75-2.95 1.333-1 3.083-1.783 5.25-2.35 2.167-.566 4.1-.733 5.8-.5 1.7.3 2.667.9 2.9 1.8.234.901-.333 1.851-1.7 2.851 1.367-1 1.934-1.95 1.7-2.851-.233-.899-1.2-1.5-2.9-1.8-1.7-.233-3.633-.066-5.8.5-2.167.566-3.917 1.35-5.25 2.35-1.4 1.067-1.983 2.051-1.75 2.95.233.9 1.217 1.467 2.95 1.7 1.667.3 3.583.167 5.75-.4 2.167-.566 3.934-1.383 5.3-2.449zm5.4-3.101c.434 1.733-.367 3.517-2.4 5.351-1.967 1.866-4.583 3.216-7.85 4.05-3.267.833-6.233.916-8.9.25-2.369-.57-3.844-1.587-4.425-3.05.581 1.463 2.056 2.479 4.425 3.05 2.667.666 5.633.583 8.9-.25 3.267-.834 5.883-2.184 7.85-4.05 2.033-1.834 2.834-3.617 2.4-5.351zm30.5 3.651c0-.434.5-.8 1.5-1.101 1-.3 2.217-.449 3.65-.449 1.433 0 2.649.149 3.649.449 1 .301 1.5.667 1.5 1.101 0 .434-.5.8-1.5 1.1-1 .3-2.216.45-3.649.45-1.433 0-2.65-.15-3.65-.45-1-.3-1.5-.667-1.5-1.1 0 .434.5.8 1.5 1.1 1 .3 2.217.45 3.65.45 1.433 0 2.649-.15 3.649-.45 1-.3 1.5-.666 1.5-1.1 0-.434-.5-.8-1.5-1.101-1-.3-2.216-.449-3.649-.449-1.433 0-2.65.149-3.65.449-1 .301-1.5.667-1.5 1.101zm13.851.849c-.179.818-.995 1.519-2.45 2.101-1.667.699-3.684 1.05-6.05 1.05-2.367 0-4.384-.351-6.051-1.05-1.498-.6-2.323-1.316-2.475-2.15.151.834.977 1.551 2.475 2.15 1.667.699 3.684 1.05 6.051 1.05 2.366 0 4.383-.351 6.05-1.05 1.455-.582 2.271-1.282 2.45-2.101zm12.149 30.401c0 .866-.45 1.6-1.35 2.2-.867.633-1.917.949-3.15.949-1.233 0-2.3-.316-3.2-.949-.866-.601-1.3-1.334-1.3-2.2 0-.867.434-1.617 1.3-2.25.9-.601 1.967-.9 3.2-.9s2.283.3 3.15.9c.9.633 1.35 1.383 1.35 2.25 0-.867-.45-1.617-1.35-2.25-.867-.601-1.917-.9-3.15-.9-1.233 0-2.3.3-3.2.9-.866.633-1.3 1.383-1.3 2.25 0 .866.434 1.6 1.3 2.2.9.633 1.967.949 3.2.949s2.283-.316 3.15-.949c.9-.601 1.35-1.334 1.35-2.2zm-19.05 24.724c.011-.043.02-.085.025-.125v-.05c.132-1.997 1.323-3.73 3.574-5.2a14.073 14.073 0 0 1 2.601-1.3l1.55-17.65v-.05.05l-1.55 17.65c-.923.349-1.789.782-2.601 1.3-2.251 1.47-3.442 3.203-3.574 5.2v.05c-.005.04-.014.082-.025.125zm21.651-23.325c-.242 1.156-.893 2.173-1.95 3.051-1.367 1.166-3.017 1.75-4.95 1.75-1.933 0-3.583-.584-4.95-1.75-1.353-1.122-2.035-2.472-2.05-4.051.015 1.579.697 2.929 2.05 4.051 1.367 1.166 3.017 1.75 4.95 1.75 1.933 0 3.583-.584 4.95-1.75 1.057-.878 1.708-1.895 1.95-3.051zm-21.676 23.551h.025v-.226l-.025.226-2.399 20.8c-.117-1.3-.325-2.917-.625-4.851-.334-1.933-.733-4.1-1.2-6.5-.467-2.366-.967-4.85-1.5-7.449a432.971 432.971 0 0 1 0 0c.533 2.6 1.033 5.083 1.5 7.449.467 2.4.866 4.567 1.2 6.5.3 1.934.508 3.551.625 4.851l2.399-20.8zm3.325-.4c0-.434.167-.85.5-1.25.3-.4.717-.767 1.25-1.1.533-.334 1.15-.65 1.851-.95.666-.3 1.366-.55 2.1-.75.734-.2 1.45-.351 2.15-.45a10.63 10.63 0 0 1 2-.2c.899 0 1.75.117 2.55.351.767.233 1.45.566 2.05 1a5.588 5.588 0 0 1 1.4 1.399c.3.533.466 1.117.5 1.75a3.947 3.947 0 0 1-.5 1.75 6.405 6.405 0 0 1-1.4 1.45c-.6.4-1.283.717-2.05.95-.8.233-1.65.35-2.55.35-.934 0-1.95-.1-3.051-.3a22.33 22.33 0 0 1-3.199-.9c-1.034-.399-1.884-.866-2.551-1.399-.666-.534-1.017-1.102-1.05-1.701.033.6.384 1.167 1.05 1.7.667.533 1.517 1 2.551 1.399 1 .367 2.066.667 3.199.9 1.101.2 2.117.3 3.051.3.899 0 1.75-.116 2.55-.35a7.71 7.71 0 0 0 2.05-.95 6.426 6.426 0 0 0 1.4-1.45c.3-.533.466-1.116.5-1.75a3.951 3.951 0 0 0-.5-1.75c-.367-.533-.834-1-1.4-1.399a6.876 6.876 0 0 0-2.05-1 9.077 9.077 0 0 0-2.55-.351c-.634 0-1.301.066-2 .2-.7.1-1.417.25-2.15.45-.733.2-1.434.45-2.1.75-.7.3-1.317.616-1.851.95-.533.333-.95.699-1.25 1.1-.333.401-.5.817-.5 1.251zm2.901-6.5c1.815-.667 3.849-1 6.1-1 3.4 0 6.3.767 8.7 2.3-2.4-1.533-5.3-2.3-8.7-2.3-2.252 0-4.285.333-6.1 1zm16.399 2.549c1.275 1.229 1.942 2.604 2 4.125-.058-1.521-.725-2.896-2-4.125l.051-.1a4.763 4.763 0 0 1-.375-.2c.112.099.22.2.324.3zm12.15-1.674c-.308.593-.94 1.118-1.9 1.575-1.399.7-3.1 1.05-5.1 1.05-2 0-3.7-.35-5.1-1.05 1.399.7 3.1 1.05 5.1 1.05 2 0 3.7-.35 5.1-1.05.96-.457 1.593-.983 1.9-1.575zm-13.75.424a.9.9 0 0 1 .1.075.739.739 0 0 1-.074-.1c-.317-.391-.476-.815-.476-1.275 0-.789.467-1.489 1.4-2.1-.934.61-1.4 1.311-1.4 2.1 0 .46.158.885.476 1.275l-.026.025zm2.05-1.349c0-.334.384-.767 1.15-1.3.767-.534 1.967-.834 3.6-.9.634 0 1.2.066 1.7.2.5.1.917.233 1.25.399.333.167.616.367.85.601.2.2.351.383.45.55.066.167.117.316.15.45 0 .133-.084.316-.25.55-.2.2-.467.417-.8.65-.4.199-.884.383-1.45.55-.566.133-1.267.2-2.101.2-.8 0-1.483-.067-2.05-.2-.6-.167-1.083-.351-1.45-.55-.366-.233-.633-.45-.8-.65-.165-.234-.249-.417-.249-.55 0 .133.084.316.25.55.167.2.434.417.8.65.367.199.851.383 1.45.55.566.133 1.25.2 2.05.2.834 0 1.534-.067 2.101-.2a9.002 9.002 0 0 0 1.45-.55c.333-.233.6-.45.8-.65.166-.233.25-.417.25-.55a3.582 3.582 0 0 0-.15-.45c-.1-.167-.25-.35-.45-.55a3.254 3.254 0 0 0-.85-.601c-.333-.166-.75-.3-1.25-.399-.5-.134-1.066-.2-1.7-.2-1.633.066-2.833.366-3.6.9-.767.533-1.151.966-1.151 1.3zm-1.95 1.425zm3.176 7.4a5.485 5.485 0 0 0 .324-1.875v-.226l-.324 2.101zM42.882 76.158c0 1.601-.9 2.967-2.7 4.101-1.767 1.166-3.9 1.75-6.4 1.75-2.5 0-4.65-.584-6.45-1.75-1.767-1.134-2.65-2.5-2.65-4.101 0-1.6.883-2.983 2.65-4.149 1.8-1.134 3.95-1.7 6.45-1.7s4.633.566 6.4 1.7c1.8 1.166 2.7 2.55 2.7 4.149 0-1.6-.9-2.983-2.7-4.149-1.767-1.134-3.9-1.7-6.4-1.7-2.5 0-4.65.566-6.45 1.7-1.767 1.166-2.65 2.55-2.65 4.149 0 1.601.883 2.967 2.65 4.101 1.8 1.166 3.95 1.75 6.45 1.75s4.633-.584 6.4-1.75c1.8-1.134 2.7-2.5 2.7-4.101zm5.35 119.651c.418-2.826 1.527-5.36 3.325-7.6l1.275-12.676c-.09-.197-.59-1.488-1.5-3.875-1-2.566-2.316-6.033-3.95-10.399-1.667-4.367-3.517-9.3-5.55-14.8-2.067-5.5-4.167-11.217-6.3-17.15-2.167-5.967-4.233-11.8-6.2-17.5-2-5.733-3.767-11-5.3-15.8-1.533-4.8-2.683-8.8-3.45-12-.8-3.2-1.075-5.267-.825-6.2a6.623 6.623 0 0 1-.075-1c0-2.7 1.45-5 4.35-6.9 2.381-1.56 5.165-2.477 8.35-2.75-3.185.273-5.969 1.19-8.35 2.75-2.9 1.9-4.35 4.2-4.35 6.9 0 .339.025.672.075 1-.25.934.025 3 .825 6.2.767 3.2 1.917 7.2 3.45 12 1.533 4.8 3.3 10.066 5.3 15.8 1.966 5.7 4.033 11.533 6.2 17.5 2.133 5.934 4.233 11.65 6.3 17.15 2.033 5.5 3.883 10.433 5.55 14.8a872.755 872.755 0 0 0 3.95 10.399c.91 2.387 1.41 3.678 1.5 3.875l-1.275 12.676a15.583 15.583 0 0 0-3.325 7.6zm1-117.526c-.442 2.073-1.843 3.881-4.2 5.426-2.9 1.899-6.4 2.85-10.5 2.85s-7.6-.95-10.5-2.85c-2.536-1.662-3.961-3.629-4.275-5.9.314 2.271 1.739 4.238 4.275 5.9 2.9 1.899 6.4 2.85 10.5 2.85s7.6-.95 10.5-2.85c2.357-1.545 3.758-3.353 4.2-5.426zm2.325 109.926c.324-.393.666-.775 1.025-1.15 3.066-3.134 6.767-4.7 11.1-4.7 3.491 0 6.558 1.017 9.2 3.05l9.7-62.3 3.075-19.774c-.506 1.377-1.597 2.603-3.275 3.675-2.4 1.566-5.3 2.35-8.7 2.35-3.399 0-6.3-.783-8.7-2.35-2.399-1.533-3.6-3.384-3.6-5.55 0 2.166 1.2 4.017 3.6 5.55 2.4 1.566 5.301 2.35 8.7 2.35 3.4 0 6.3-.783 8.7-2.35 1.679-1.072 2.77-2.298 3.275-3.675l-3.075 19.774-9.7 62.3c-2.643-2.033-5.709-3.05-9.2-3.05-4.333 0-8.033 1.566-11.1 4.7-.359.375-.701.757-1.025 1.15zm45.175-43.601a3.173 3.173 0 0 1-.05-.524v-.025c0-1.032.408-1.957 1.226-2.775-.817.818-1.226 1.743-1.226 2.775v.025c.002.177.019.352.05.524zm-23.85 40.8a16.451 16.451 0 0 1 1.85 1.65 17.292 17.292 0 0 1 2.325 2.975c.093.155.184.313.275.476l8.675 10.1-3.425-77.5 3.425 77.5-8.675-10.1a33.56 33.56 0 0 0-.275-.476 17.342 17.342 0 0 0-2.325-2.975 16.451 16.451 0 0 0-1.85-1.65zm-7.349 3.2c.866.334 1.666.8 2.399 1.4.7.633 1.316 1.366 1.851 2.2.533.833.949 1.767 1.25 2.8.3 1.033.449 2.116.449 3.25 0 1.1-.149 2.166-.449 3.2a11.83 11.83 0 0 1-1.25 2.8 10.814 10.814 0 0 1-1.851 2.2 9.782 9.782 0 0 1-2.399 1.449c-.867.334-1.767.5-2.7.5-1.233-.033-2.367-.3-3.4-.8a9.113 9.113 0 0 1-2.75-2.2 10.2 10.2 0 0 1-1.85-3.199 11.063 11.063 0 0 1-.7-3.95c0-1.134.15-2.217.45-3.25a10.7 10.7 0 0 1 1.25-2.8 8.987 8.987 0 0 1 1.85-2.2 8.687 8.687 0 0 1 2.4-1.4 6.993 6.993 0 0 0 0 0c-.867.334-1.667.8-2.4 1.4a9.009 9.009 0 0 0-1.85 2.2 10.7 10.7 0 0 0-1.25 2.8c-.3 1.033-.45 2.116-.45 3.25 0 1.399.233 2.717.7 3.95a10.188 10.188 0 0 0 1.85 3.199 9.097 9.097 0 0 0 2.75 2.2c1.033.5 2.167.767 3.4.8.934 0 1.833-.166 2.7-.5a9.812 9.812 0 0 0 2.399-1.449c.7-.634 1.316-1.367 1.851-2.2.533-.867.949-1.8 1.25-2.8.3-1.034.449-2.101.449-3.2 0-1.134-.149-2.217-.449-3.25a10.733 10.733 0 0 0-1.25-2.8 10.76 10.76 0 0 0-1.851-2.2 8.721 8.721 0 0 0-2.399-1.4zm11.8 1.901c1.333 2.388 2 5.055 2 8 0 4.467-1.533 8.267-4.601 11.399-3.033 3.167-6.716 4.75-11.05 4.75-2.671 0-5.104-.6-7.3-1.8l18.15 13.75-18.15-13.75c2.196 1.2 4.629 1.8 7.3 1.8 4.334 0 8.017-1.583 11.05-4.75 3.067-3.133 4.601-6.933 4.601-11.399 0-2.946-.667-5.613-2-8zm-53 3.95c0 1.033-.417 1.916-1.25 2.649-.8.733-1.767 1.101-2.9 1.101s-2.117-.367-2.95-1.101c-.8-.733-1.2-1.616-1.2-2.649 0-1.034.4-1.917 1.2-2.65.833-.733 1.816-1.1 2.95-1.1 1.134 0 2.1.366 2.9 1.1.833.733 1.25 1.616 1.25 2.65 0-1.034-.417-1.917-1.25-2.65-.8-.733-1.767-1.1-2.9-1.1s-2.117.366-2.95 1.1c-.8.733-1.2 1.616-1.2 2.65 0 1.033.4 1.916 1.2 2.649.833.733 1.816 1.101 2.95 1.101 1.134 0 2.1-.367 2.9-1.101.833-.733 1.25-1.616 1.25-2.649zm1.599-5.15c1.467 1.3 2.2 2.884 2.2 4.75s-.733 3.45-2.2 4.75c-1.466 1.3-3.25 1.95-5.35 1.95 2.1 0 3.883-.65 5.35-1.95 1.467-1.3 2.2-2.884 2.2-4.75s-.733-3.451-2.2-4.75zm30.45 23.549a16.03 16.03 0 0 1-3.575-2.725 9.558 9.558 0 0 1-.225-.226c-2.514-2.596-3.988-5.646-4.425-9.149.437 3.504 1.912 6.554 4.425 9.149.071.074.146.149.225.226a16.052 16.052 0 0 0 3.575 2.725zm-28.95 25.75c1.7-1.833 3.75-2.75 6.15-2.75 2.4 0 4.45.917 6.15 2.75 1.7 1.834 2.55 4.05 2.55 6.65 0 2.6-.85 4.816-2.55 6.649-1.7 1.834-3.75 2.75-6.15 2.75-2.4 0-4.45-.916-6.15-2.75-1.7-1.833-2.55-4.05-2.55-6.649 0-2.6.85-4.816 2.55-6.65-1.7 1.834-2.55 4.05-2.55 6.65 0 2.6.85 4.816 2.55 6.649 1.7 1.834 3.75 2.75 6.15 2.75 2.4 0 4.45-.916 6.15-2.75 1.7-1.833 2.55-4.05 2.55-6.649 0-2.601-.85-4.816-2.55-6.65-1.7-1.833-3.75-2.75-6.15-2.75-2.4 0-4.45.917-6.15 2.75zm9.45-5.899c2.667.452 5.017 1.618 7.05 3.5 2.667 2.466 4 5.449 4 8.949s-1.333 6.483-4 8.95c2.667-2.467 4-5.45 4-8.95 0-3.5-1.333-6.483-4-8.949-2.033-1.882-4.383-3.048-7.05-3.5zm55.8 13.074c1.412-.362 2.562-.671 3.45-.925 1.083-.309 1.674-.476 1.775-.5l-15.75-11.95 15.75 11.95c-.102.024-.692.191-1.775.5-.888.254-2.038.563-3.45.925zm-6.649 24.926c1.833 0 3.399.583 4.699 1.75 1.301 1.166 1.95 2.583 1.95 4.25 0 1.666-.649 3.083-1.95 4.25-1.3 1.166-2.866 1.75-4.699 1.75-1.834 0-3.4-.584-4.7-1.75-1.3-1.167-1.95-2.584-1.95-4.25 0-1.667.65-3.084 1.95-4.25 1.299-1.167 2.866-1.75 4.7-1.75-1.834 0-3.4.583-4.7 1.75-1.3 1.166-1.95 2.583-1.95 4.25 0 1.666.65 3.083 1.95 4.25 1.3 1.166 2.866 1.75 4.7 1.75 1.833 0 3.399-.584 4.699-1.75 1.301-1.167 1.95-2.584 1.95-4.25 0-1.667-.649-3.084-1.95-4.25-1.3-1.167-2.866-1.75-4.699-1.75zm140.3-24.25c1.333 1.833 2 4.033 2 6.6 0 2.567-.667 4.75-2 6.55-1.3 1.834-2.884 2.75-4.75 2.75-1.867 0-3.467-.916-4.8-2.75-1.301-1.8-1.95-3.983-1.95-6.55 0-2.567.649-4.767 1.95-6.6 1.333-1.801 2.933-2.7 4.8-2.7 1.866 0 3.45.899 4.75 2.7-1.3-1.801-2.884-2.7-4.75-2.7-1.867 0-3.467.899-4.8 2.7-1.301 1.833-1.95 4.033-1.95 6.6 0 2.567.649 4.75 1.95 6.55 1.333 1.834 2.933 2.75 4.8 2.75 1.866 0 3.45-.916 4.75-2.75 1.333-1.8 2-3.983 2-6.55 0-2.567-.667-4.767-2-6.6zm-112.101-14.976l6.601-18.95-.4-17.425c-.049 1.535-.832 2.853-2.35 3.95-1.533 1.134-3.384 1.7-5.55 1.7-2.167 0-4.034-.566-5.601-1.7-1.355-1.002-2.114-2.186-2.274-3.55.16 1.364.919 2.548 2.274 3.55 1.566 1.134 3.434 1.7 5.601 1.7 2.166 0 4.017-.566 5.55-1.7 1.518-1.098 2.301-2.415 2.35-3.95l.4 17.425-6.601 18.95a8.752 8.752 0 0 0-.949.125l-.4.351-9.1-10.625 9.1 10.625.85 1 .499-1.476c1.08-.074 2.797-.099 5.15-.075 3.233.034 7.35.134 12.35.301-5-.167-9.116-.267-12.35-.301-2.353-.023-4.07.001-5.15.075zm-5.3-34.174c-1.1-.6-1.649-1.333-1.649-2.2 0-.866.55-1.6 1.649-2.2 1.101-.6 2.417-.899 3.95-.899 1.533 0 2.85.3 3.95.899 1.1.601 1.649 1.334 1.649 2.2 0 .867-.55 1.601-1.649 2.2-1.101.6-2.417.9-3.95.9-1.533 0-2.849-.301-3.95-.9 1.101.6 2.417.9 3.95.9 1.533 0 2.85-.301 3.95-.9 1.1-.6 1.649-1.333 1.649-2.2 0-.866-.55-1.6-1.649-2.2-1.101-.6-2.417-.899-3.95-.899-1.533 0-2.85.3-3.95.899-1.1.601-1.649 1.334-1.649 2.2 0 .867.55 1.6 1.649 2.2zm3.651-8.151c2.145.009 3.979.576 5.5 1.7 1.566 1.134 2.35 2.5 2.35 4.101v.149-.149c0-1.601-.783-2.967-2.35-4.101-1.522-1.124-3.356-1.691-5.5-1.7zm8.25 23.375l2.925-8.399 14.425-57.375-14.425 57.375-2.925 8.399zm6.174 35.875l-13.275-15.449 13.275 15.449zm-29.099-4.05l10.774 8.175-10.774-8.175zm25.849-40.224l23-66.275-23 66.275zm-25.025 11.3l-12.725-14.825 12.725 14.825zm-39.774-93.175l-6.125 53.274 6.125-53.274z" fill="#020202" fill-rule="evenodd"/><path d="M148.083 3.259c.033-.367.816-.601 2.35-.7 1.533-.134 3.334-.083 5.4.15 2.1.233 3.883.55 5.35.949 1.434.434 2.134.834 2.101 1.2-.034.367-.801.601-2.301.7-1.533.134-3.35.083-5.449-.15-2.067-.233-3.834-.55-5.301-.949-1.467-.434-2.184-.834-2.15-1.2zm-31.851 26.349a4.55 4.55 0 0 1 .025-.2c-.003-.05-.003-.1 0-.149.259-2.828.501-5.395.725-7.7.2-2.4.384-4.45.551-6.15.166-1.733.283-3.066.35-4l.375-1.5a2.535 2.535 0 0 1-.225-1.05c0-1.3.966-2.416 2.899-3.35 1.933-.934 4.267-1.4 7-1.4 2.733 0 5.066.467 7 1.4 1.934.933 2.9 2.05 2.9 3.35 0 .346-.066.679-.2 1l-.025.05 1.4 18.025.675-3.475 4.175-21.551a1.224 1.224 0 0 1-.024-.399c.1-.934 1.316-1.617 3.649-2.05 2.301-.467 5.051-.534 8.25-.2 3.167.333 5.834.967 8 1.899 2.134.9 3.15 1.817 3.051 2.75a257.458 257.458 0 0 1-.65 9.601 466.355 466.355 0 0 1-1.2 11.2c-.467 3.933-.95 7.916-1.45 11.949-.533 4.034-1.05 7.967-1.55 11.801a1018.81 1018.81 0 0 1-1.55 10.75c-.467 3.3-.884 6.216-1.25 8.75-.4 2.5-.7 4.466-.9 5.899a341.914 341.914 0 0 0-.35 2.175c.282-.117.583-.226.9-.324 2.3-.733 4.833-.75 7.6-.051 2.733.7 4.9 1.917 6.5 3.65 1.667 1.7 2.283 3.4 1.85 5.1a4.27 4.27 0 0 1-.3.825c.005.043.005.101 0 .175-.02.136-.053.319-.1.551a84.933 84.933 0 0 1-.5 2.55 420.632 420.632 0 0 1-1.4 5.75c-.6 2.267-1.233 4.7-1.899 7.3-.667 2.566-1.334 5.116-2 7.65-.667 2.533-1.284 4.85-1.851 6.949-.566 2.067-1 3.717-1.3 4.95-.366 1.233-.559 1.941-.575 2.125 3.087.445 5.795 1.754 8.125 3.925 2.934 2.733 4.4 6.034 4.4 9.9 0 2.021-.4 3.889-1.2 5.6a12.879 12.879 0 0 1-1 1.75l-40.1 80.2c.033 0 .683-.316 1.949-.95a207.754 207.754 0 0 1 5.25-2.5c2.167-1.066 4.65-2.25 7.45-3.55a608.05 608.05 0 0 1 8.7-4 344.63 344.63 0 0 1 9-4c2.934-1.3 5.684-2.45 8.25-3.45 2.533-1 4.7-1.783 6.5-2.35a28.592 28.592 0 0 1 1.725-.5c.884-.209 1.56-.292 2.025-.25a4.34 4.34 0 0 1 2.05.5c.667.333 1.267.8 1.8 1.4.534.566 1 1.25 1.4 2.05.4.8.717 1.7.95 2.7.2.933.3 1.949.3 3.05 0 1.066-.1 2.083-.3 3.05a12.4 12.4 0 0 1-.95 2.65c-.4.8-.866 1.5-1.4 2.1a6.374 6.374 0 0 1-1.8 1.35 4.162 4.162 0 0 1-1.125.4l-1.625.4c-1.1.199-2.6.466-4.5.8l-6.55 1.149c-2.5.434-5.15.9-7.95 1.4-2.8.467-5.633.95-8.5 1.45-2.866.467-5.649.916-8.35 1.35-2.701.434-5.184.834-7.45 1.2-2.193.317-4.068.593-5.625.825 3.774.147 7.833.339 12.175.575 6.101.267 12.417.616 18.95 1.05 6.533.399 12.95.833 19.25 1.3 6.267.467 12.1.983 17.5 1.55 5.4.533 10 1.084 13.8 1.65 1.398.196 2.648.396 3.75.6.204.044.404.086.601.125a9.984 9.984 0 0 1 3.725.925c1.454.68 2.779 1.729 3.975 3.15 2.301 2.767 3.45 6.083 3.45 9.95 0 3.866-1.149 7.166-3.45 9.899-2.3 2.767-5.083 4.15-8.35 4.15-1.755 0-3.372-.4-4.85-1.2l-89.775-17.2 8.05 9.4c3.133 7.372 1.717 11.205-4.25 11.5l-22.125-16.775-12.8 27.5c-.536 1.408-1.402 2.684-2.6 3.825-2.134 2.101-4.717 3.15-7.75 3.15-3.034 0-5.634-1.05-7.801-3.15-2.133-2.066-3.199-4.566-3.199-7.5 0-2.507.774-4.707 2.324-6.6.175-.214.358-.422.551-.625l.25-.375 15.024-22.976c-.44.123-.907.248-1.399.375-2.101.534-4.5 1.15-7.2 1.851-2.7.701-5.601 1.416-8.7 2.149-3.134.733-6.3 1.467-9.5 2.2-3.233.7-6.4 1.334-9.5 1.9-3.1.6-6.017 1.083-8.75 1.45-2.647.354-4.98.588-7 .699-1.909.934-4.025 1.4-6.35 1.4-3.767 0-6.983-1.233-9.65-3.7-2.667-2.467-4-5.45-4-8.95 0-3.5 1.333-6.483 4-8.949 2.667-2.467 5.883-3.7 9.65-3.7.895 0 1.761.066 2.6.2a161.465 161.465 0 0 0 8.2-.4c1.333-.1 2.716-.2 4.149-.3a88.649 88.649 0 0 1 4.601-.3 119.97 119.97 0 0 1 5.3-.2 101.66 101.66 0 0 1 6.35 0 221.932 221.932 0 0 1 16.676.899l-7.601-5.774-.024-.025-54.275-25.149-2.45-1.125a7.734 7.734 0 0 1-2.575-1.525c-1.467-1.3-2.2-2.884-2.2-4.75s.733-3.45 2.2-4.75c1.467-1.3 3.25-1.95 5.35-1.95 1.248 0 2.381.226 3.4.675.348.161.681.345 1 .551l1.05.55 22.125 11.625a20.011 20.011 0 0 1-.125-2.25c0-.926.067-1.826.2-2.7L.357 48.209a2.875 2.875 0 0 1-.175-.5c-.466-1.733.3-3.534 2.3-5.4 2.033-1.833 4.683-3.167 7.95-4 3.267-.833 6.2-.934 8.8-.3 2.667.666 4.233 1.866 4.7 3.6l8.45 25.55a22.9 22.9 0 0 1 2.15-.1c4.1 0 7.6.95 10.5 2.85 2.9 1.9 4.35 4.2 4.35 6.9 0 .033.134.55.4 1.55.233 1 .566 2.384 1 4.15l.375 1.55.1-38a1.886 1.886 0 0 1-.025-.275v-.024c0-.967.834-1.8 2.5-2.5 1.667-.667 3.684-1 6.051-1 2.366 0 4.383.333 6.05 1 1.666.7 2.5 1.533 2.5 2.5 0 .122-.017.239-.05.35l.85 30.75c0-1.6.684-2.983 2.05-4.149 1.367-1.134 3.017-1.7 4.95-1.7 1.933 0 3.583.566 4.95 1.7 1.366 1.166 2.05 2.55 2.05 4.149 0 .361-.033.712-.1 1.05l.35 14.525c.196-.131.412-.256.65-.375 1.399-.667 3.1-1 5.1-1 2 0 3.7.333 5.1 1 .826.413 1.409.871 1.75 1.375.009.014.018.03.025.05v-.05l5.15-63.4.05-.675a.475.475 0 0 1-.025-.149c0-.301.134-.584.4-.851.233-.267.566-.517 1-.75.434-.233.967-.416 1.6-.55.566-.2 1.217-.333 1.95-.4.733-.1 1.5-.149 2.3-.149 2.066 0 3.783.267 5.15.8 1.333.5 2.033 1.134 2.1 1.9V29.361m17.249-19.652c-1.267.366-2.816.55-4.649.55-1.834 0-3.4-.184-4.7-.55-1.267-.367-1.9-.801-1.9-1.301 0-.5.634-.933 1.9-1.3 1.3-.366 2.866-.55 4.7-.55 1.833 0 3.383.184 4.649.55 1.3.367 1.95.8 1.95 1.3s-.65.934-1.95 1.301zm4.675.199c-.386.859-1.277 1.626-2.675 2.301-1.934.933-4.267 1.399-7 1.399-2.733 0-5.066-.467-7-1.399-1.39-.671-2.281-1.438-2.675-2.301m-12.625 18.45c.866-.2 1.9-.3 3.1-.3 1.2 0 2.217.1 3.051.3.866.2 1.3.434 1.3.7 0 .266-.434.5-1.3.7-.834.2-1.851.3-3.051.3-1.199 0-2.233-.1-3.1-.3-.833-.2-1.25-.434-1.25-.7 0-.266.417-.499 1.25-.7zm-4.049 1.701c.233.267.566.517 1 .75.434.2.967.384 1.6.55.566.167 1.217.3 1.95.4.733.1 1.5.149 2.3.149.8 0 1.566-.05 2.3-.149a15.26 15.26 0 0 0 2-.4c.601-.166 1.117-.35 1.551-.55a4.474 4.474 0 0 0 1.05-.75c.19-.245.307-.479.35-.7m.548.249c-.267 2.934-.55 6.101-.85 9.5-.3 3.367-.616 6.917-.95 10.65-.333 3.7-.666 7.5-1 11.399-.366 3.9-.717 7.834-1.05 11.801-.366 3.966-.717 7.933-1.05 11.899-.334 3.934-.65 7.783-.95 11.55a844.993 844.993 0 0 0-.9 10.95c-.3 3.467-.566 6.75-.8 9.851-.267 3.1-.483 5.949-.649 8.55-.2 2.566-.351 4.816-.45 6.75a117.71 117.71 0 0 0-.25 4.7c-.062 1.099-.062 1.815 0 2.149a8.391 8.391 0 0 1 2.399 1.101c.411.273.77.565 1.075.875.1-.307.342-1.498.726-3.575.366-2.2.866-5.101 1.5-8.7.6-3.6 1.283-7.667 2.05-12.2a1650.71 1650.71 0 0 1 2.45-14.1c.833-4.9 1.683-9.733 2.55-14.5a605.555 605.555 0 0 1 2.55-13.25c.8-4.066 1.55-7.533 2.25-10.4.609-2.65 1.159-4.567 1.65-5.75l.05-.3a.103.103 0 0 0 0-.025c.342-1.819 1.825-3.178 4.45-4.074.908-.3 1.867-.508 2.875-.625l.675-3.476a1933.62 1933.62 0 0 1 1.95-9.85c.704-3.521 1.528-7.713 2.475-12.575m-37.425 2.126c-.219-.245-.344-.479-.375-.7m65.575-24.451c-.101.967-1.301 1.684-3.601 2.15-2.3.434-5.033.483-8.2.15-3.199-.334-5.883-.95-8.05-1.851-1.869-.805-2.895-1.622-3.075-2.45m-9.949 50.927c1.89-.243 3.948-.168 6.175.225 3.434.6 6.25 1.75 8.45 3.45 2.199 1.733 3.133 3.517 2.8 5.35a.052.052 0 0 0 0 .025c-.023.12-.049.237-.075.35l-13.075 83.525 16.476-65.525c.004-.308.046-.615.125-.925v-.025c.381-1.445 1.414-2.528 3.1-3.25m-13.051-17.676c1.5.8 2.184 1.584 2.05 2.351-.1.733-1 1.233-2.7 1.5-1.666.233-3.633.149-5.899-.25-2.267-.367-4.167-.967-5.7-1.801-1.467-.8-2.15-1.566-2.05-2.3.133-.767 1.033-1.283 2.699-1.55 1.733-.2 3.733-.116 6 .25 2.266.401 4.133 1.001 5.6 1.8zm6.424 3.875c-.437 1.646-1.895 2.888-4.375 3.726-2.634.866-5.667 1-9.1.399-3.4-.6-6.2-1.75-8.4-3.45-2.044-1.635-2.993-3.317-2.85-5.05m47.426 28.151c-.714.887-1.822 1.57-3.325 2.05-2.233.7-4.717.7-7.45 0-2.767-.7-4.983-1.9-6.649-3.6-1.31-1.419-1.935-2.827-1.875-4.226m17.174 3.476c-.101.333-.3.649-.601.949-.3.267-.666.5-1.1.7a7.117 7.117 0 0 1-1.5.351c-.566.066-1.167.083-1.8.05a13.81 13.81 0 0 1-2-.351 17.847 17.847 0 0 1-2.55-.899c-.867-.4-1.65-.851-2.351-1.351-.733-.5-1.283-1-1.649-1.5-.367-.533-.5-1.017-.4-1.449.066-.334.25-.601.55-.801.3-.233.684-.433 1.15-.6a9.8 9.8 0 0 1 1.55-.3 9.418 9.418 0 0 1 1.75-.15c.634 0 1.267.033 1.9.101.6.066 1.183.183 1.75.35.866.2 1.649.483 2.35.85.667.367 1.25.784 1.75 1.25.467.434.816.884 1.05 1.351.2.499.25.982.151 1.449zm2.599 1.524c-.13.273-.288.532-.475.775m-77.95 6.475c.217.335.325.693.325 1.075 0 .305-.066.596-.2.875l1.775 45.85a6.807 6.807 0 0 1 1.024-.824c1.5-1 3.3-1.5 5.4-1.5 1.075 0 2.075.133 3 .399m-8.399 8.3c-1.301-.867-2.034-1.884-2.2-3.05l2 70.825.15.2 4.9 5.7.875-25.825a5.906 5.906 0 0 1-.025-.55c0-1.601.767-2.967 2.3-4.101 1.566-1.133 3.434-1.7 5.601-1.7h.05l-.601-45.074c-.009 1.389-.759 2.581-2.25 3.574-1.5 1-3.3 1.5-5.399 1.5-2.101.001-3.901-.499-5.401-1.499zm1.75-5.599c.867-.533 1.9-.8 3.101-.8 1.199 0 2.233.267 3.1.8s1.3 1.167 1.3 1.9c0 .733-.434 1.366-1.3 1.899-.866.533-1.9.8-3.1.8-1.2 0-2.233-.267-3.101-.8-.866-.533-1.3-1.166-1.3-1.899 0-.733.434-1.367 1.3-1.9zm10.125-.725c.783.8 1.175 1.708 1.175 2.725v.025m35.551-8.45c.093-.527.218-1.045.375-1.55.678-2.206 1.953-4.181 3.824-5.926 2.934-2.733 6.467-4.1 10.601-4.1.85 0 1.675.059 2.475.175m-17.475 13.826c0-.837.066-1.645.2-2.425l-.775 2.225m28.374 7.549a14.948 14.948 0 0 1-2.2 2.551c-2.934 2.733-6.467 4.1-10.6 4.1-4.134 0-7.667-1.366-10.601-4.1-2.933-2.733-4.399-6.034-4.399-9.9m8.6-7.451c2.066-2.033 4.55-3.05 7.45-3.05 2.9 0 5.366 1.017 7.4 3.05 2.066 2.066 3.1 4.55 3.1 7.45 0 2.9-1.033 5.366-3.1 7.4-2.034 2.066-4.5 3.1-7.4 3.1-2.9 0-5.384-1.033-7.45-3.1-2.033-2.034-3.05-4.5-3.05-7.4 0-2.9 1.017-5.383 3.05-7.45zm-137.4-85.899c-1.367 1.066-3.133 1.883-5.3 2.449-2.167.567-4.083.7-5.75.4-1.733-.233-2.717-.8-2.95-1.7-.233-.899.35-1.883 1.75-2.95 1.333-1 3.083-1.783 5.25-2.35 2.167-.566 4.1-.733 5.8-.5 1.7.3 2.667.9 2.9 1.8.234.901-.333 1.851-1.7 2.851zm5.4-3.101c.434 1.733-.367 3.517-2.4 5.351-1.967 1.866-4.583 3.216-7.85 4.05-3.267.833-6.233.916-8.9.25-2.369-.57-3.844-1.587-4.425-3.05m54.075-2.95c0-.434.5-.8 1.5-1.101 1-.3 2.217-.449 3.65-.449 1.433 0 2.649.149 3.649.449 1 .301 1.5.667 1.5 1.101 0 .434-.5.8-1.5 1.1-1 .3-2.216.45-3.649.45-1.433 0-2.65-.15-3.65-.45-1-.3-1.5-.667-1.5-1.1zm13.851.849c-.179.818-.995 1.519-2.45 2.101-1.667.699-3.684 1.05-6.05 1.05-2.367 0-4.384-.351-6.051-1.05-1.498-.6-2.323-1.316-2.475-2.15m29.175 30.45c0 .866-.45 1.6-1.35 2.2-.867.633-1.917.949-3.15.949-1.233 0-2.3-.316-3.2-.949-.866-.601-1.3-1.334-1.3-2.2 0-.867.434-1.617 1.3-2.25.9-.601 1.967-.9 3.2-.9s2.283.3 3.15.9c.9.633 1.35 1.383 1.35 2.25zm-19.05 24.724c.011-.043.02-.085.025-.125v-.05c.132-1.997 1.323-3.73 3.574-5.2a14.073 14.073 0 0 1 2.601-1.3l1.55-17.65v-.05m13.901 1.05c-.242 1.156-.893 2.173-1.95 3.051-1.367 1.166-3.017 1.75-4.95 1.75-1.933 0-3.583-.584-4.95-1.75-1.353-1.122-2.035-2.472-2.05-4.051m-7.751 24.551v-.226l-.025.226m3.325-.4c0-.434.167-.85.5-1.25.3-.4.717-.767 1.25-1.1.533-.334 1.15-.65 1.851-.95.666-.3 1.366-.55 2.1-.75.734-.2 1.45-.351 2.15-.45a10.63 10.63 0 0 1 2-.2c.899 0 1.75.117 2.55.351.767.233 1.45.566 2.05 1a5.588 5.588 0 0 1 1.4 1.399c.3.533.466 1.117.5 1.75a3.947 3.947 0 0 1-.5 1.75 6.405 6.405 0 0 1-1.4 1.45c-.6.4-1.283.717-2.05.95-.8.233-1.65.35-2.55.35-.934 0-1.95-.1-3.051-.3a22.33 22.33 0 0 1-3.199-.9c-1.034-.399-1.884-.866-2.551-1.399-.666-.534-1.017-1.102-1.05-1.701zm2.901-6.5c1.815-.667 3.849-1 6.1-1 3.4 0 6.3.767 8.7 2.3a.9.9 0 0 1 .1.075.739.739 0 0 1-.074-.1c-.317-.391-.476-.815-.476-1.275 0-.789.467-1.489 1.4-2.1a.168.168 0 0 1 .05-.025m.65 4.575a4.763 4.763 0 0 1-.375-.2c.112.099.221.199.324.3 1.275 1.229 1.942 2.604 2 4.125m-1.55-6.725c0-.334.384-.767 1.15-1.3.767-.534 1.967-.834 3.6-.9.634 0 1.2.066 1.7.2.5.1.917.233 1.25.399.333.167.616.367.85.601.2.2.351.383.45.55.066.167.117.316.15.45 0 .133-.084.316-.25.55-.2.2-.467.417-.8.65-.4.199-.884.383-1.45.55-.566.133-1.267.2-2.101.2-.8 0-1.483-.067-2.05-.2-.6-.167-1.083-.351-1.45-.55-.366-.233-.633-.45-.8-.65-.165-.234-.249-.417-.249-.55zm-1.95 1.425c.435.283.826.574 1.176.875m2 6.525a5.485 5.485 0 0 0 .324-1.875v-.226l-.324 2.101zm10.474-7.9c-.308.593-.94 1.118-1.9 1.575-1.399.7-3.1 1.05-5.1 1.05-2 0-3.7-.35-5.1-1.05m-34.65-20.2c0 .506-.05.997-.15 1.475-.442 2.073-1.843 3.881-4.2 5.426-2.9 1.899-6.4 2.85-10.5 2.85s-7.6-.95-10.5-2.85c-2.536-1.662-3.961-3.629-4.275-5.9m23.125-1.652c0 1.601-.9 2.967-2.7 4.101-1.767 1.166-3.9 1.75-6.4 1.75-2.5 0-4.65-.584-6.45-1.75-1.767-1.134-2.65-2.5-2.65-4.101 0-1.6.883-2.983 2.65-4.149 1.8-1.134 3.95-1.7 6.45-1.7s4.633.566 6.4 1.7c1.8 1.166 2.7 2.55 2.7 4.149zm5.35 119.651c.418-2.826 1.527-5.36 3.325-7.6l1.275-12.676c-.09-.197-.59-1.488-1.5-3.875-1-2.566-2.316-6.033-3.95-10.399-1.667-4.367-3.517-9.3-5.55-14.8-2.067-5.5-4.167-11.217-6.3-17.15-2.167-5.967-4.233-11.8-6.2-17.5-2-5.733-3.767-11-5.3-15.8-1.533-4.8-2.683-8.8-3.45-12-.8-3.2-1.075-5.267-.825-6.2a6.623 6.623 0 0 1-.075-1c0-2.7 1.45-5 4.35-6.9 2.381-1.56 5.165-2.477 8.35-2.75m18.776 16.9a643.872 643.872 0 0 1 2.724 11.7c.6 2.533 1.184 5.1 1.75 7.7.533 2.6 1.033 5.083 1.5 7.449.467 2.4.866 4.567 1.2 6.5.3 1.934.508 3.551.625 4.851l2.399-20.8m-9.799 86.75c.324-.393.666-.775 1.025-1.15 3.066-3.134 6.767-4.7 11.1-4.7 3.491 0 6.558 1.017 9.2 3.05l9.7-62.3 3.075-19.774c-.506 1.377-1.597 2.603-3.275 3.675-2.4 1.566-5.3 2.35-8.7 2.35-3.399 0-6.3-.783-8.7-2.35-2.399-1.533-3.6-3.384-3.6-5.55m35.35 43.148a3.173 3.173 0 0 1-.05-.524v-.025c0-1.032.408-1.957 1.226-2.775m-25.026 44.124a16.451 16.451 0 0 1 1.85 1.65 17.292 17.292 0 0 1 2.325 2.975c.093.155.184.313.275.476l8.675 10.1-3.425-77.5m-17.049 65.499c.866.334 1.666.8 2.399 1.4.7.633 1.316 1.366 1.851 2.2.533.833.949 1.767 1.25 2.8.3 1.033.449 2.116.449 3.25 0 1.1-.149 2.166-.449 3.2a11.83 11.83 0 0 1-1.25 2.8 10.814 10.814 0 0 1-1.851 2.2 9.782 9.782 0 0 1-2.399 1.449c-.867.334-1.767.5-2.7.5-1.233-.033-2.367-.3-3.4-.8a9.113 9.113 0 0 1-2.75-2.2 10.2 10.2 0 0 1-1.85-3.199 11.063 11.063 0 0 1-.7-3.95c0-1.134.15-2.217.45-3.25a10.7 10.7 0 0 1 1.25-2.8 8.987 8.987 0 0 1 1.85-2.2 8.687 8.687 0 0 1 2.4-1.4 6.993 6.993 0 0 1 2.75-.55 6.894 6.894 0 0 1 2.7.55zm11.8 1.901c1.333 2.388 2 5.055 2 8 0 4.467-1.533 8.267-4.601 11.399-3.033 3.167-6.716 4.75-11.05 4.75-2.671 0-5.104-.6-7.3-1.8l18.15 13.75m-49.55-38.024c.331.215.647.457.95.725 1.467 1.3 2.2 2.884 2.2 4.75s-.733 3.45-2.2 4.75c-1.466 1.3-3.25 1.95-5.35 1.95a8.78 8.78 0 0 1-2.775-.425m6.526-5.875c0 1.033-.417 1.916-1.25 2.649-.8.733-1.767 1.101-2.9 1.101s-2.117-.367-2.95-1.101c-.8-.733-1.2-1.616-1.2-2.649 0-1.034.4-1.917 1.2-2.65.833-.733 1.816-1.1 2.95-1.1 1.134 0 2.1.366 2.9 1.1.833.733 1.25 1.616 1.25 2.65zm32.049 18.399a16.03 16.03 0 0 1-3.575-2.725 9.558 9.558 0 0 1-.225-.226c-2.514-2.596-3.988-5.646-4.425-9.149m-20.725 37.85c1.7-1.833 3.75-2.75 6.15-2.75 2.4 0 4.45.917 6.15 2.75 1.7 1.834 2.55 4.05 2.55 6.65 0 2.6-.85 4.816-2.55 6.649-1.7 1.834-3.75 2.75-6.15 2.75-2.4 0-4.45-.916-6.15-2.75-1.7-1.833-2.55-4.05-2.55-6.649 0-2.6.85-4.816 2.55-6.65zm9.45-5.899c2.667.452 5.017 1.618 7.05 3.5 2.667 2.466 4 5.449 4 8.949s-1.333 6.483-4 8.95a14.203 14.203 0 0 1-3.3 2.3m52.05-10.625c1.412-.362 2.562-.671 3.45-.925 1.083-.309 1.674-.476 1.775-.5l-15.75-11.95m-4.425 36.401c2.167-2.066 4.767-3.1 7.801-3.1 3.033 0 5.616 1.033 7.75 3.1 2.166 2.1 3.25 4.616 3.25 7.55 0 1.312-.217 2.538-.65 3.675m-18.475-10.9c.108-.111.217-.22.324-.325m8.301 1.9c1.833 0 3.399.583 4.699 1.75 1.301 1.166 1.95 2.583 1.95 4.25 0 1.666-.649 3.083-1.95 4.25-1.3 1.166-2.866 1.75-4.699 1.75-1.834 0-3.4-.584-4.7-1.75-1.3-1.167-1.95-2.584-1.95-4.25 0-1.667.65-3.084 1.95-4.25 1.299-1.167 2.866-1.75 4.7-1.75zm97.8-66.15a4.337 4.337 0 0 1 2.05-.5m-.651 19.299a4.449 4.449 0 0 1-1.85-.7c-.8-.5-1.5-1.183-2.1-2.05-.601-.899-1.067-1.934-1.4-3.1a13.611 13.611 0 0 1-.5-3.75c0-1.101.116-2.117.35-3.05.2-1 .5-1.9.9-2.7.4-.8.866-1.483 1.4-2.05a5.952 5.952 0 0 1 1.8-1.4m-1.15 5.3c.733-1.166 1.601-1.75 2.601-1.75s1.85.584 2.55 1.75c.733 1.167 1.1 2.584 1.1 4.25 0 1.667-.366 3.084-1.1 4.25-.7 1.167-1.55 1.75-2.55 1.75-1 0-1.867-.583-2.601-1.75-.7-1.166-1.05-2.583-1.05-4.25 0-1.666.35-3.083 1.05-4.25zm4.125 13.451a4.25 4.25 0 0 1-1.575.05m36.4 15.35c.216 0 .433.008.65.024m4.051 7.726c1.333 1.833 2 4.033 2 6.6 0 2.567-.667 4.75-2 6.55-1.3 1.834-2.884 2.75-4.75 2.75-1.867 0-3.467-.916-4.8-2.75-1.301-1.8-1.95-3.983-1.95-6.55 0-2.567.649-4.767 1.95-6.6 1.333-1.801 2.933-2.7 4.8-2.7 1.866 0 3.45.899 4.75 2.7zm-9.55 19.149c-1.27-.687-2.437-1.67-3.5-2.95-2.301-2.733-3.45-6.033-3.45-9.899 0-3.867 1.149-7.184 3.45-9.95 2.3-2.733 5.083-4.1 8.35-4.1m-107.401-7.226l6.601-18.95-.4-17.425c-.049 1.535-.832 2.853-2.35 3.95-1.533 1.134-3.384 1.7-5.55 1.7-2.167 0-4.034-.566-5.601-1.7-1.355-1.002-2.114-2.186-2.274-3.55m4.274 1.801c-1.1-.6-1.649-1.333-1.649-2.2 0-.866.55-1.6 1.649-2.2 1.101-.6 2.417-.899 3.95-.899 1.533 0 2.85.3 3.95.899 1.1.601 1.649 1.334 1.649 2.2 0 .867-.55 1.601-1.649 2.2-1.101.6-2.417.9-3.95.9-1.533 0-2.849-.301-3.95-.9zm3.651-8.151c2.145.009 3.979.576 5.5 1.7 1.566 1.134 2.35 2.5 2.35 4.101v.149m.4 17.425l2.925-8.399 14.425-57.375m-24.9 84.849c.224-.047.54-.088.949-.125m-.5 1.476l-.85-1-9.1-10.625m9.95 11.625l.5-1.476m22.025.401a420.884 420.884 0 0 0-4.525-.175c-5-.167-9.116-.267-12.35-.301-2.354-.023-4.07.001-5.15.075m12.775 16.925l-13.275-15.449m-15.824 11.399l10.774 8.175m15.075-48.399l23-66.275m-48.025 77.575l-12.725-14.825m-27.049-78.35l-6.125 53.274" fill="none" stroke="#000" stroke-width=".1" stroke-linejoin="round" stroke-miterlimit="3"/></svg>