<svg xmlns="http://www.w3.org/2000/svg" xmlns:dc="http://dublincore.org/documents/dcmi-terms/" height="1605" version="1.2" viewBox="7294.788 614.65 1000.211 1605" width="1000.211"><metadata><dc:description>Silhouette of Praeanthropus afarensis, processed by PhyloPic Tools (https://github.com/eweitz/phylopic-tools)</dc:description><dc:source>http://phylopic.org/image/3489af6e-6c97-41a4-b3de-697b680c902a</dc:source><dc:creator>T. Michael Keesey</dc:creator><dc:license>http://creativecommons.org/publicdomain/zero/1.0/</dc:license></metadata><path d="M8294.953 617.65v1602h-999c-2.33-533.03-.33-1070.311-1-1605h999c1.17.17 1.09 1.58 1 3zm-923 595c3.09-5.24 8.57-8.101 8-17 8.41 1.479 29-2.25 40 2 .73 3.06-1.73 2.939-1 6 10.18 2.8 10.279 12.5 7 22 5.3.959 3.359-5.311 7-6 4.54 6.689-.891 20.06 0 27 14.061 3.17 28.26.979 38 10-.32-2.32.16-3.841 1-5 2.891.779 3.68 3.649 6 5 5.779-1.271 9.08 1.13 11-4 5.779.319 2.471 10.709 1 13 7.721-1.391 9.12 3.539 15 4 1.939-1.061 1.391-4.61 3-6 6.609 4.77 12.37-3.461 22-4 3.311.02 1.02 5.649 3 7 4.43-1.141 17.17-2.711 20 1 .59 5.92-9.67 1-12 4 .141 2.859 4.17 1.829 7 2 6.42 14.909 31.359-.12 45 2 .87 3.209-1.54 3.13-3 4 11.46 2.709 24.12-15.511 35-7-2.82 6.18-15.12 2.88-16 11 4.43 1.09 4.971-1.69 8-2 2.189.149 2.15 2.52 2 5 4-.551 6.71-3.511 11-1 6.529-10.07 13.08-16.061 25-15 11.689 1.039 26.859 13 36 2 9.74 1.779 10.96-1.671 18-4 .439-8.891 8.391-10.28 12-16 3.51 2.159 4.62 6.709 7 10 6.68-11.211 1.17-28.561 6-41 4.59-.25 2.4 6.27 5 8 13.971 1.369 10.93 19.739 19 27-1.63 8.829-2.971 19.779 0 28-9 6.329-8.43 22.229-18 28 .4 4.739-1.79 6.88-1 12-.471 2.13 1.43 1.899 3 2-4.189 33.539-11.08 70.729-7 104 2.32-.32 3.84.159 5 1-.93 20.069-3.59 38.409-7 56 4.641 19.59 1.029 37.18 1 56-.029 22.709 9.62 42.279 9 61-.08 2.51-1.221 8.06-2 10-5.77 14.34-17.93 26.67-17 43-11.2 17.459-14.67 41.17-16 64-.029.449-.71 2.14-1 3-6.79 19.709-17.641 39.25-27 53 4.109 6.59-5.73 11.67-9 17 1.43 15.25-8.91 26.979-11 42 4.12.789 1.88-4.791 6-4 4.359 12.859-7.71 26.17-9 40 5.641 13.039-7.59 24.359-9 37 5.33 7.159.62 16.459-3 23-.17 2.51 2.24 2.43 3 4 .68 12.449-9.04 24.02-12 38-1.09 5.159.02 10.819-1 16-1.98 10.1-11.71 19.09-4 29 .07 5.069-3.54 6.459-4 11 1.77 3.369 5.77-.681 9 2 1.4 5.399-2.7 5.3-3 9 2.141 2.569 5.59-.841 7 1-1.279 11.279 4.21 15.789 6 24-14.33 18.01-40.721 23.939-61 36v5c-4.29 1.05-5.88 4.779-11 5-5.3 9.3 2.1 16.939 10 19 4.189 6.92 8.891 12.76 19 9 4.13 6.029 13.52 2.289 17 10 31.12-3.101 66.37-9.23 88-25 25.7-1.631 36.8-17.871 54-28 11.77-12.29-4.15-47.99 10-59 5.49-10.84 2.62-30.051 13-36 .391-8.61-1.279-19.28 2-25-2.68-7.95-9.66-21.351-3-27 4.641-.98 1.359 5.979 6 5 .49-11.73-9.811-24.631 1-32-.641-9.021-5.88-13.45-7-22 .279-4.061 4.34-4.33 6-7-1.09-2.761-1.99-8.62 1-10 4.38 2.619 4.98 9.02 8 13 7.12-4.391 2.05-20.431 3-30 .689-4.021-4.21-2.46-4-6 1.891-3.4 3.51 1.71 6 1 1.21-3.33 5.46-6.801 5-13-.109-1.431-3.029-4.67-3-5 .15-1.71 3.55-4.311 4-6 4.061-15.24-2.7-35.931-3-52 1.62-1.49 4.811.66 7-2-.439-12.99-4.05-30.16 7-34-.689-10.351 3.54-15.79 2-27 .24-3.101 2.779-3.881 4-6-1.471-17.131 3.189-28.141 9-38 21.689 15.649 44 30.67 67 45 7.811 4.52 13.189 11.47 24 13 .221-3.881-6.04-1.301-6-5 2.609-3.19 4.33 2.939 9 1 1.29 3.96-3.29 2.04-2 6 9.68 1.989 19.26 4.08 27 8 6.27-2.53 20.27.899 27 5 2.49 1.52 3.96 5.119 6 6 1.09.47 4.529-1.511 6-1 5.971 2.069 10.27 7.39 15 10 3.51.18 3.29-3.381 6-4 8.55 5.779 14.891 13.779 22 21-1.971 16.29-1 33.6-1 50 0 8.25-2.58 16.29-1 24 2.311 11.26 14.42 18.899 16 29 4.07-.07 4.74 3.26 10 2 3.24 2.09 5.6 5.06 12 4 10.02-11.71-2.641-26.631 2-40 4.279-.28 5.1 2.899 7 5-2.42 6.79.529 13.18 0 21a8.988 8.988 0 0 1 4 4h7c12.02-13.2 11.41-29.881 10-53-1.76-28.69 2.641-61.011 2-88 6.02-6.16 4.609-21.41 0-28 7.609-4.73 18.73-5.94 27-10-6.49-2.141-17.17.149-22 3-3.48-8.03 10.77-6.41 11-14-4.5 2.18-14.77 7.6-19 1 .13-4.23 5.68-3.641 8-3 .73-4.61 4.76-5.91 5-11-10.42 3.31-19.43 13.16-31 12 5.18-9.15 14.471-14.2 21-22-1.51-1.74-4.311 1.02-6-2 1.33-3.881 7.561-3.48 10-1-.221-3.78-3.141-4.86-4-8-8.57 4.34-12.939 2.439-22 4-2.08-.261-.27-4.391-2-5-4.02.649-2.38 6.949-9 5 .71-8.96 9.23-10.101 9-20-.74-1.59-4.9.229-4-3-6.859 3.47-15.811 12.27-23 4-.311-3.641.16-6.511 1-9-12.43-2.801-21.811-2.681-35-1-.279-2.28.24-3.761 2-4-7.65-.98-22.27 4.819-25-6 1.83-3.17 9.13-.87 12-3-7.45-5.011-23.35 1-35 1-3.67-2.08-9.1-5.17-13-4-1.09-4.431 1.689-4.971 2-8-4.79.59-4.689-3.71-9-1 5.4 2.699-2.391 9.33-6 6 1.04-4.96 6.73-5.271 5-13-1.67-1.33-3.35-2.65-7-2 .88-15.881-26.391-3.61-33-12 3.09-3.57 15.92 2.58 16-4-6.71.04-9-4.33-15-5v-5c9.92-12.75 15.189-30.141 31-37 2.9 3.939-2.2 8.43-2 13 8.971-5.69 12.561-16.78 21-23 4.37 3.479-3.029 3.67 1 9 4.891-2.11 3.46-10.54 6-15 .16-1.17 1.82-.84 3-1 5.51-18.49 12.82-35.181 17-55 13.83-15.84 12.62-46.721 25-64 0-12.28-2.24-30.24 4-39-3.15-9.19-6.061-18.61-8-29 .73-3.69 3.01.43 5-2-.439-17.431 4.13-28.141 3-44 .311-1.36 2.5-.83 4-1 2.17-21.41-6.05-39.54-7-61 .15-2.19 2.52-2.15 5-2 .09-14.761-7.04-22.29-8-36 4.34-9.811 3.43-27.54 0-38 1.63-3.71 7.87-2.801 9-7 7.52-.181 4.79 9.88 12 10 2.13.47 1.9-1.431 2-3 17.689 14.979 35.77 29.56 55 43-1.641 39.17 8.37 73.899 17 107 2.18 8.359 6.529 16.1 8 24 1.6 8.59-1.24 17.34 5 25 4.46 16.109 6.67 39.359 14 54 2.13 4.26 7.311 6.6 8 10 2.311 11.38-6.29 16.14-14 22 1.83 7.56-3.939 10.069-8 15-2.96 3.59-4.1 9.93-7 14-6.66 9.35-17.77 12.93-9 28 17.09-1.57 18.57-18.761 35-21 2.221 4.229-1.17 6.66 4 6-4.439 15.89-4.109 36.56-8 53-4.09.42-4.04-3.29-9-2-1.41 1.93-2.641 4.02-3 7-4.2-1.131-5.02-5.65-12-4-2.15 1.52-3.061 4.27-5 6-3.92.26-3.721-3.62-8-3-15.391 21.71 14.57 49.529 38 39 1.359.31.83 2.5 1 4 4.48.479 4.471-3.54 8-4 1.85.149.609 3.39 2 4 4.08.04 5.73-7.551 10-4 1.48-4.19 3.62-7.71 8-9 2.65-.32-.939 5.6 3 4v-9c4.16-4.17 10.02-6.641 17-8 .87-4.87-1.37-6.631-2-10 4-.34 4.09 3.25 8 3 .07-7.07-3.4-10.601-4-17 3.63-.37 2.49-5.511 7-5-.891-14.5 5.83-16.24 2-29 .71-4 4.689-.061 6-2-.63-3.37 1.29-9.29-1-11 3.109-1.891 6.811-3.19 8-7 5.779-.45 4.99 5.68 10 6-.45-5.221-.27-11.351 5-8 1.029-3.36-3.109-1.561-5-2 .87-3.98.87-5.021 0-9 5.87 2.27 9.29 11.84 17 9 1.15-4.15-2.1-3.9-2-7 2.41-3.25 4.63-6.7 11-6 .59-3.19-1.88-3.09 0-5 5.34.33 4.27 7.069 12 5-.141-9.521-4.01-15.32-11-18 1.65-7.95-4.189-11.58-1-18-8.859-1.811-10.58-10.761-13-19-.45-2.78 5.45.779 5-2-3.38-11.95-17.38-13.28-14-32 3.87-.54 4.88 1.79 9 1-10.5-19.051-12.42-35.82-24-55 2.6-16.021-6.01-31.631-12-45 6.17-17.16-6.48-37.9-15-50 5.7-3.42 10.92 6.859 14 6-.35-7.65-4.87-11.131-8-16 3.279-12.11-11.41-21.32-16-32 11.75-17.69-10.189-26.631-12-43 7.51 1.819 11.76 6.91 20 8-2.391-10.61-18.21-7.79-19-20 .26-2.08 4.391-.271 5-2-3.95-4.25 2.32-4.33 3-7-8.59-7.41-16.189-15.811-22-26-5.75-2.58-10.16-6.5-12-13-4.311-2.69-8.45-5.551-10-11-6.08.1-7.27-5.95-10-9-1.63-1.82-6.779-1.9-5-6 1.23-3.04 3.439 1.08 6 0-5.1-5.57-11.71-9.631-19-13-.02-4.021 5.221-2.78 9-3-10.55-3.78-19.93-8.73-30-13v-5c-5.29.29-7.41-2.591-13-2-.33-4 1.779-5.551 1-10-12.26-3.07-19.54-11.131-32-14-3.971-10.011-13.189-19.9-31-21-.84-5.16-5.04-6.96-10-8 .27-15.271-17.439-12.561-25-20-1.24-3.24 3.24-.761 2-4-16.38-.511-31.55-14.57-48-15 .971-3.7 4.8-4.53 9-5-.52-3.49-6.529-1.471-10-2-1.74-3.33.5-4.44 0-9-3.971-1.69-10.62-.71-13-4 .15-6.49-2.141-9.92 4-11-.43-2.69-3.75-5.131-1-8 2.65-1.351 6.42-1.58 8-4-1.07-4.601-3.66-7.681-4-13 2.58-2.42 7.57-2.431 8-7-10.25-3.36-5.87-18.101-16-23 1.57-2.431 4.25-3.75 8-4-.63-2.04-5.05-.28-4-4 2.15-3.521 5.5-5.841 8-9 6.25.609 11.52 6.88 17 5-.38-4.95-6.38-4.29-8-8 .02-3.641 5.21-2.131 4-7 5.02-.65 12.641 1.31 16-1-2.32-4.681-11.8-2.2-16-5 .43-1.9 2.15-2.511 2-5 6.4-1.101 10.439 4.47 16 1 .71-3.71-1.71-4.29-1-8 6.7.39 12.88 7.069 19 2-1.8-8.44.779-13.94-6-20 .79-2.21 6.189.189 5-4-8.16-2.17-11.54-9.131-18-13-.21-15.12-19.52-11.15-23-23-.189-4.851 5.84-3.5 6-8 .18-5.181-7.8-2.2-7-8 .01-3.66 5.87-1.471 5-6-9.07-7.95-24.8-4.631-35-10 .01-3.08.51-7.841-3-10 3.609-6.82 15.98-9.891 15-18-10.18 4.439-18.6-2.32-29 4-1.529-.021-2.189-7.41 1-6-.76-3.65-3.189.1-7-1-3.04-1.23 1.08-3.44 0-6-14.811 1.649-34-.551-44-7-3.859-.2-7.37-.04-10 1-1.689-6.021 4.62-4.051 4-9-4.01 1.989-6.37 5.63-10 8-10.109-4.49-17.58 7.739-27 2-1.061-3.73 3.75-1.58 3-5-3.16-.16-3.34 2.659-7 2-2.8-.98 1.45-2.67-1-4-5.87 1.8-6.279 9.05-15 8-1.221-5.891 6.04-3.29 5-9-10.62 5.699-20.18 9.449-24 20-7.62-.801-10.141 2.43-10 7-5.55-2.82-7.57 3.68-12 5-3.73 1.06-1.58-3.75-5-3-1.939 5.39-4.68 9.979-8 14-16.49.18-16.2 17.13-22 28-1.471 7.21-.279 15.52-1 22-.641 5.72-2 13.5-7 16-.16 3.159 2.66 3.34 2 7-3.1 1.899-6.68 3.319-11 4-2.87 8.47-2.88 19.79-6 28-12.9 8.72-10.67 31.029-8 48 8.58 18.75 24.46 30.21 39 43a41.456 41.456 0 0 0-5 11c-2.32-.341-4.689-.65-4-4-.84 4.29-4.43 3.59-7 4-1.6 4.069-1.27 10.06-4 13-3.75.989-2.18-4.91-5-2-.02 4.35 3.09 5.569 2 11-10.9 9.779-9.5 29.859-5 44 .471 3.13-2.51 2.819-4 4-1.01 14.369-12.971 27.6-4 42-2.21 6.79-3.46 14.529-6 21 .609 6.6 3.46 23.21 2 34-1.15 8.439-4.9 18.729-6 30-2.721 28.02 1.38 58.149 5 85-21.79-7.34-68.24-5.181-87-22-3.55-1.551-.6 3.399-3 3-3.029-.301-2.811-3.86-6-4-9.48 8.069-21.62-7.58-29-11v6c-16.52-5.931-29.52-10.271-41-20 .84 1.16 1.32 2.68 1 5-9.05-2.391-10.88-9.94-17-17-2.25.42.15 5.479-3 5-10.471-3.86-14.13-14.54-20-23-10.71-5.21-14.3-7.21-26-10-4 2.42-5.74 5.029-12 3-.76 3.76 5.311.689 4 5-2.33 1.34-6.23 1.109-6 5-25.55-5.95-53.23 2.449-71 13 .53.8 1.04 1.619 1 3-14.69 4.33-8.29 27.55-16 35 1.68 26.05 9.231 59.57 48 57z" fill="#fff"/><path d="M7338.953 1117.65c17.77-10.551 45.45-18.95 71-13-.23-3.891 3.67-3.66 6-5 1.311-4.311-4.76-1.24-4-5 6.26 2.029 8-.58 12-3 11.7 2.789 15.29 4.789 26 10 5.87 8.459 9.529 19.14 20 23 3.15.479.75-4.58 3-5 6.12 7.06 7.95 14.609 17 17 .32-2.32-.16-3.841-1-5 11.48 9.729 24.48 14.069 41 20v-6c7.38 3.42 19.52 19.069 29 11 3.189.14 2.971 3.699 6 4 2.4.399-.55-4.551 3-3 18.76 16.819 65.21 14.659 87 22-3.62-26.851-7.721-56.98-5-85 1.1-11.271 4.85-21.561 6-30 1.46-10.791-1.391-27.4-2-34 2.54-6.471 3.79-14.211 6-21-8.971-14.4 2.99-27.631 4-42 1.49-1.181 4.471-.87 4-4-4.5-14.141-5.9-34.221 5-44 1.09-5.431-2.02-6.65-2-11 2.82-2.91 1.25 2.989 5 2 2.73-2.94 2.4-8.931 4-13 2.57-.41 6.16.289 7-4-.689 3.35 1.68 3.659 4 4a41.456 41.456 0 0 1 5-11c-14.54-12.79-30.42-24.25-39-43-2.67-16.971-4.9-39.28 8-48 3.12-8.211 3.13-19.53 6-28 4.32-.681 7.9-2.101 11-4 .66-3.66-2.16-3.841-2-7 5-2.5 6.359-10.28 7-16 .721-6.48-.471-14.79 1-22 5.8-10.87 5.51-27.82 22-28 3.32-4.021 6.061-8.61 8-14 3.42-.75 1.27 4.06 5 3 4.43-1.32 6.45-7.82 12-5-.141-4.57 2.38-7.801 10-7 3.82-10.551 13.38-14.301 24-20 1.04 5.71-6.221 3.109-5 9 8.721 1.05 9.13-6.2 15-8 2.45 1.329-1.8 3.02 1 4 3.66.659 3.84-2.16 7-2 .75 3.42-4.061 1.27-3 5 9.42 5.739 16.891-6.49 27-2 3.63-2.37 5.99-6.011 10-8 .62 4.949-5.689 2.979-4 9 2.63-1.04 6.141-1.2 10-1 10 6.449 29.189 8.649 44 7 1.08 2.56-3.04 4.77 0 6 3.811 1.1 6.24-2.65 7 1-3.189-1.41-2.529 5.979-1 6 10.4-6.32 18.82.439 29-4 .98 8.109-11.391 11.18-15 18 3.51 2.159 3.01 6.92 3 10 10.2 5.369 25.93 2.05 35 10 .87 4.529-4.99 2.34-5 6-.8 5.8 7.18 2.819 7 8-.16 4.5-6.189 3.149-6 8 3.48 11.85 22.79 7.88 23 23 6.46 3.869 9.84 10.829 18 13 1.189 4.189-4.21 1.789-5 4 6.779 6.06 4.2 11.56 6 20-6.12 5.069-12.3-1.61-19-2-.71 3.71 1.71 4.289 1 8-5.561 3.47-9.6-2.101-16-1 .15 2.489-1.57 3.1-2 5 4.2 2.8 13.68.319 16 5-3.359 2.31-10.98.35-16 1 1.21 4.869-3.98 3.359-4 7 1.62 3.71 7.62 3.05 8 8-5.48 1.88-10.75-4.391-17-5-2.5 3.159-5.85 5.479-8 9-1.05 3.72 3.37 1.96 4 4-3.75.25-6.43 1.569-8 4 10.13 4.899 5.75 19.64 16 23-.43 4.569-5.42 4.579-8 7 .34 5.319 2.93 8.399 4 13-1.58 2.42-5.35 2.649-8 4-2.75 2.869.57 5.31 1 8-6.141 1.079-3.85 4.51-4 11 2.38 3.289 9.029 2.31 13 4 .5 4.56-1.74 5.67 0 9 3.471.529 9.48-1.49 10 2-4.2.47-8.029 1.3-9 5 16.45.43 31.62 14.489 48 15 1.24 3.239-3.24.76-2 4 7.561 7.439 25.27 4.729 25 20 4.96 1.039 9.16 2.84 10 8 17.811 1.1 27.029 10.989 31 21 12.46 2.869 19.74 10.93 32 14 .779 4.449-1.33 6-1 10 5.59-.591 7.71 2.289 13 2v5c10.07 4.27 19.45 9.22 30 13-3.779.22-9.02-1.021-9 3 7.29 3.369 13.9 7.43 19 13-2.561 1.079-4.77-3.041-6 0-1.779 4.1 3.37 4.18 5 6 2.73 3.05 3.92 9.1 10 9 1.55 5.449 5.689 8.31 10 11 1.84 6.5 6.25 10.42 12 13 5.811 10.189 13.41 18.59 22 26-.68 2.67-6.95 2.75-3 7-.609 1.729-4.74-.08-5 2 .79 12.209 16.609 9.39 19 20-8.24-1.091-12.49-6.181-20-8 1.811 16.369 23.75 25.31 12 43 4.59 10.68 19.279 19.89 16 32 3.13 4.869 7.65 8.35 8 16-3.08.859-8.3-9.421-14-6 8.52 12.1 21.17 32.84 15 50 5.99 13.369 14.6 28.979 12 45 11.58 19.18 13.5 35.949 24 55-4.12.789-5.13-1.541-9-1-3.38 18.72 10.62 20.05 14 32 .45 2.779-5.45-.78-5 2 2.42 8.239 4.141 17.189 13 19-3.189 6.42 2.65 10.05 1 18 6.99 2.68 10.859 8.479 11 18-7.73 2.069-6.66-4.671-12-5-1.88 1.909.59 1.81 0 5-6.37-.7-8.59 2.75-11 6-.1 3.1 3.15 2.85 2 7-7.71 2.84-11.13-6.73-17-9 .87 3.979.87 5.02 0 9 1.891.439 6.029-1.36 5 2-5.27-3.351-5.45 2.779-5 8-5.01-.32-4.221-6.45-10-6-1.189 3.81-4.891 5.109-8 7 2.29 1.709.37 7.63 1 11-1.311 1.939-5.29-2-6 2 3.83 12.76-2.891 14.5-2 29-4.51-.511-3.37 4.63-7 5 .6 6.399 4.07 9.93 4 17-3.91.25-4-3.341-8-3 .63 3.369 2.87 5.13 2 10-6.98 1.359-12.84 3.829-17 8v9c-3.939 1.6-.35-4.32-3-4-4.38 1.289-6.52 4.81-8 9-4.27-3.551-5.92 4.039-10 4-1.391-.61-.15-3.851-2-4-3.529.459-3.52 4.479-8 4-.17-1.5.359-3.69-1-4-23.43 10.529-53.391-17.291-38-39 4.279-.62 4.08 3.26 8 3 1.939-1.73 2.85-4.48 5-6 6.98-1.65 7.8 2.869 12 4 .359-2.98 1.59-5.07 3-7 4.96-1.291 4.91 2.42 9 2 3.891-16.44 3.561-37.11 8-53-5.17.659-1.779-1.771-4-6-16.43 2.239-17.91 19.43-35 21-8.77-15.07 2.34-18.65 9-28 2.9-4.07 4.04-10.41 7-14 4.061-4.931 9.83-7.44 8-15 7.71-5.86 16.311-10.62 14-22-.689-3.4-5.87-5.74-8-10-7.33-14.641-9.54-37.891-14-54-6.24-7.66-3.4-16.41-5-25-1.471-7.9-5.82-15.641-8-24-8.63-33.101-18.641-67.83-17-107-19.23-13.44-37.311-28.021-55-43-.1 1.569.13 3.47-2 3-7.21-.12-4.48-10.181-12-10-1.13 4.199-7.37 3.289-9 7 3.43 10.459 4.34 28.189 0 38 .96 13.709 8.09 21.239 8 36-2.48-.15-4.85-.19-5 2 .95 21.459 9.17 39.59 7 61-1.5.17-3.689-.36-4 1 1.13 15.859-3.439 26.569-3 44-1.99 2.43-4.27-1.69-5 2 1.939 10.39 4.85 19.81 8 29-6.24 8.76-4 26.72-4 39-12.38 17.279-11.17 48.159-25 64-4.18 19.819-11.49 36.51-17 55-1.18.159-2.84-.171-3 1-2.54 4.459-1.109 12.89-6 15-4.029-5.33 3.37-5.521-1-9-8.439 6.22-12.029 17.31-21 23-.2-4.57 4.9-9.061 2-13-15.811 6.859-21.08 24.25-31 37v5c6 .67 8.29 5.039 15 5-.08 6.579-12.91.43-16 4 6.609 8.39 33.88-3.881 33 12 3.65-.65 5.33.67 7 2 1.73 7.729-3.96 8.039-5 13 3.609 3.329 11.4-3.301 6-6 4.311-2.711 4.21 1.59 9 1-.311 3.029-3.09 3.569-2 8 3.9-1.171 9.33 1.92 13 4 11.65 0 27.55-6.011 35-1-2.87 2.13-10.17-.171-12 3 2.73 10.819 17.35 5.02 25 6-1.76.239-2.279 1.72-2 4 13.189-1.681 22.57-1.801 35 1-.84 2.489-1.311 5.359-1 9 7.189 8.27 16.141-.53 23-4-.9 3.229 3.26 1.409 4 3 .23 9.899-8.29 11.039-9 20 6.62 1.949 4.98-4.351 9-5 1.73.609-.08 4.739 2 5 9.061-1.561 13.43.34 22-4 .859 3.14 3.779 4.22 4 8-2.439-2.48-8.67-2.881-10 1 1.689 3.02 4.49.26 6 2-6.529 7.8-15.82 12.85-21 22 11.57 1.159 20.58-8.69 31-12-.24 5.09-4.27 6.39-5 11-2.32-.641-7.87-1.23-8 3 4.23 6.6 14.5 1.18 19-1-.23 7.59-14.48 5.97-11 14 4.83-2.851 15.51-5.141 22-3-8.27 4.06-19.391 5.27-27 10 4.609 6.59 6.02 21.84 0 28 .641 26.989-3.76 59.31-2 88 1.41 23.119 2.02 39.8-10 53h-7a8.988 8.988 0 0 0-4-4c.529-7.82-2.42-14.211 0-21-1.9-2.101-2.721-5.28-7-5-4.641 13.369 8.02 28.289-2 40-6.4 1.06-8.76-1.91-12-4-5.26 1.26-5.93-2.07-10-2-1.58-10.101-13.689-17.74-16-29-1.58-7.711 1-15.75 1-24 0-16.4-.971-33.711 1-50-7.109-7.221-13.45-15.221-22-21-2.71.619-2.49 4.18-6 4-4.73-2.61-9.029-7.931-15-10-1.471-.511-4.91 1.47-6 1-2.04-.881-3.51-4.48-6-6-6.73-4.101-20.73-7.53-27-5-7.74-3.921-17.32-6.011-27-8-1.29-3.961 3.29-2.041 2-6-4.67 1.939-6.391-4.19-9-1-.04 3.699 6.221 1.119 6 5-10.811-1.53-16.189-8.48-24-13-23-14.33-45.311-29.351-67-45-5.811 9.859-10.471 20.869-9 38-1.221 2.119-3.76 2.899-4 6 1.54 11.209-2.689 16.649-2 27-11.05 3.84-7.439 21.01-7 34-2.189 2.659-5.38.51-7 2 .3 16.069 7.061 36.76 3 52-.45 1.689-3.85 4.289-4 6-.029.329 2.891 3.569 3 5 .46 6.199-3.79 9.67-5 13-2.49.709-4.109-4.4-6-1-.21 3.539 4.689 1.979 4 6-.95 9.569 4.12 25.609-3 30-3.02-3.98-3.62-10.381-8-13-2.99 1.38-2.09 7.239-1 10-1.66 2.67-5.721 2.939-6 7 1.12 8.55 6.359 12.979 7 22-10.811 7.369-.51 20.27-1 32-4.641.979-1.359-5.98-6-5-6.66 5.649.32 19.05 3 27-3.279 5.72-1.609 16.39-2 25-10.38 5.949-7.51 25.159-13 36-14.15 11.01 1.77 46.709-10 59-17.2 10.129-28.3 26.369-54 28-21.63 15.77-56.88 21.899-88 25-3.48-7.711-12.87-3.971-17-10-10.109 3.76-14.811-2.08-19-9-7.9-2.061-15.3-9.7-10-19 5.12-.221 6.71-3.95 11-5v-5c20.279-12.061 46.67-17.99 61-36-1.79-8.211-7.279-12.721-6-24-1.41-1.84-4.859 1.569-7-1 .3-3.7 4.4-3.601 3-9-3.23-2.681-7.23 1.369-9-2 .46-4.54 4.07-5.931 4-11-7.71-9.91 2.02-18.9 4-29 1.02-5.181-.09-10.84 1-16 2.96-13.98 12.68-25.551 12-38-.76-1.57-3.17-1.49-3-4 3.62-6.54 8.33-15.84 3-23 1.41-12.641 14.641-23.96 9-37 1.29-13.83 13.359-27.141 9-40-4.12-.79-1.88 4.79-6 4 2.09-15.021 12.43-26.75 11-42 3.27-5.33 13.109-10.41 9-17 9.359-13.75 20.21-33.29 27-53 .29-.86.971-2.551 1-3 1.33-22.83 4.8-46.54 16-64-.93-16.33 11.23-28.66 17-43 .779-1.94 1.92-7.49 2-10 .62-18.721-9.029-38.29-9-61 .029-18.82 3.641-36.41-1-56 3.41-17.59 6.07-35.931 7-56-1.16-.84-2.68-1.32-5-1-4.08-33.271 2.811-70.46 7-104-1.57-.101-3.471.13-3-2-.79-5.12 1.4-7.261 1-12 9.57-5.771 9-21.67 18-28-2.971-8.221-1.63-19.17 0-28-8.07-7.261-5.029-25.631-19-27-2.6-1.73-.41-8.25-5-8-4.83 12.439.68 29.79-6 41-2.38-3.29-3.49-7.84-7-10-3.609 5.72-11.561 7.109-12 16-7.04 2.33-8.26 5.779-18 4-9.141 11-24.311-.96-36-2-11.92-1.061-18.471 4.93-25 15-4.29-2.511-7 .449-11 1 .15-2.48.189-4.851-2-5-3.029.31-3.57 3.09-8 2 .88-8.12 13.18-4.82 16-11-10.88-8.511-23.54 9.71-35 7 1.46-.87 3.87-.79 3-4-13.641-2.12-38.58 12.91-45-2-2.83-.17-6.859.859-7-2 2.33-3 12.59 1.92 12-4-2.83-3.71-15.57-2.141-20-1-1.98-1.351.311-6.98-3-7-9.63.54-15.391 8.77-22 4-1.609 1.39-1.061 4.939-3 6-5.88-.46-7.279-5.391-15-4 1.471-2.29 4.779-12.681-1-13-1.92 5.13-5.221 2.729-11 4-2.32-1.351-3.109-4.221-6-5-.84 1.16-1.32 2.68-1 5-9.74-9.021-23.939-6.83-38-10-.891-6.94 4.54-20.311 0-27-3.641.689-1.7 6.96-7 6 3.279-9.5 3.18-19.2-7-22-.73-3.061 1.73-2.94 1-6-11-4.25-31.59-.521-40-2 .57 8.899-4.91 11.76-8 17-38.77 2.569-46.32-30.95-48-57 7.71-7.45 1.31-30.67 16-35 .04-1.38-.47-2.2-1-3zm99 123h-3v4c2.63.3 3.279-1.38 3-4zm269-351c-4.54 1.189-5.99-3.721-9-1-.109 4.109 4.67 3.33 5 7 3.2-.13 4.401-2.27 4-6zm69 1059c.55 3.27 5.57 3.979 5-1-2.32-.32-3.84.161-5 1zm22-93c-1.62-.28-1.721.939-3 1-.3 2.63 1.38 3.279 4 3 .42-2.089-.689-2.65-1-4zm254-211c-1.58-1.471-7.939-2.061-7 2 1.779 1.661 7.33 1.45 7-2zm39 28c-3.33-2.09-7.77 1.81-7 7 4.21-.2 8.391-4.37 7-7z"/><path d="M7437.953 1240.65c.279 2.619-.37 4.3-3 4v-4h3zM7706.953 889.65c.4 3.729-.8 5.869-4 6-.33-3.67-5.109-2.891-5-7 3.01-2.72 4.46 2.19 9 1zM7780.953 1947.65c.57 4.979-4.45 4.27-5 1 1.16-.839 2.68-1.32 5-1zM7797.953 1855.65c.311 1.35 1.42 1.91 1 4-2.62.279-4.3-.37-4-3 1.279-.06 1.38-1.28 3-1zM8044.953 1646.65c-.939-4.061 5.42-3.471 7-2 .33 3.45-5.221 3.661-7 2zM8083.953 1679.65c-.77-5.19 3.67-9.09 7-7 1.391 2.63-2.79 6.8-7 7z" fill="#fff"/></svg>