<svg xmlns="http://www.w3.org/2000/svg" xmlns:dc="http://dublincore.org/documents/dcmi-terms/" height="416.459" width="745.426"><metadata><dc:description>Silhouette of Protypotherium, processed by PhyloPic Tools (https://github.com/eweitz/phylopic-tools)</dc:description><dc:source>http://phylopic.org/image/c9546a04-acb7-4427-b42e-c2d5d3c9d4ad</dc:source><dc:creator>Zimices</dc:creator><dc:license>http://creativecommons.org/licenses/by-nc/3.0/</dc:license></metadata><path d="M481.696 411.058c-4.472-4.697-7.585-6.118-13.4-6.118-15.116 0-39.82-13.097-39.82-21.111 0-1.973-3.948-3.14-13.54-4-28.046-2.516-33.324-4.419-44.126-15.909-5.454-5.801-11.165-12.794-12.69-15.54-2.043-3.674-3.164-18.836-4.246-57.461-1.7-60.617-2.642-69.562-7.353-69.768-1.815-.079-15.937-.037-31.384.094-15.446.132-34.403-.645-42.126-1.726-7.723-1.081-19.91-2.26-27.08-2.618l-13.04-.652-.598 6.055c-.984 9.954-8.188 30.106-14.146 39.571-3.068 4.874-8.047 14.311-11.063 20.97-3.017 6.66-9.953 18.973-15.415 27.362s-9.931 16.15-9.931 17.248c0 3.35 14.539 16.335 23.457 20.95 4.627 2.394 15.46 5.572 24.072 7.063 25.179 4.358 46.362 17.083 41.4 24.868-1.636 2.566-4.426 3.252-11.242 2.763-5.002-.359-9.663.32-10.396 1.514-.862 1.402-13.325 2.164-35.413 2.164-39.422 0-42.034-.796-50.7-15.449-3.18-5.377-10.402-13.426-16.048-17.885-5.67-4.478-12.24-12.03-14.677-16.87l-4.412-8.76 4.016-5.465c2.209-3.005 5.633-11.76 7.61-19.456 1.977-7.696 4.299-16.198 5.159-18.894l1.564-4.901-6.583 4.901c-10.35 7.708-48.05 46.974-48.064 50.063-.018 3.746 10.99 22.897 15.543 27.042 6.18 5.626 17.93 9.529 28.692 9.529 8.451 0 11.31.984 16.112 5.543 3.21 3.049 5.838 7.65 5.838 10.223 0 2.574.99 6.543 2.202 8.819 1.718 3.23 1.514 4.83-.93 7.288-2.63 2.646-4.011 2.746-8.639.625-4.753-2.179-5.862-2.04-8.08 1.011-2.213 3.045-6.069 3.537-27.709 3.537-30.045 0-32.452-1.19-43.102-21.33-3.862-7.302-11.084-18.117-16.048-24.033-4.965-5.916-11.058-14.792-13.54-19.724l-4.514-8.968v22.242c0 19.79-.503 22.993-4.56 29.048-6.115 9.13-14.282 13.726-18.994 10.69-4.098-2.643-4.044-5.752.506-29.007 4.413-22.555 3.03-47.653-4.981-90.413C.085 227.127-1.49 206.627 1.153 170.394c2.123-29.11 2.68-31.789 9.965-47.985 4.245-9.434 8.717-20.356 9.94-24.27C26.141 81.85 41.24 70.57 78.427 55.276c7.724-3.176 21.716-9.507 31.094-14.068l19.848-2.647 34.314-7.364c37.655-8.082 53.175-3.055 97.291-8.414 35-4.252 105.7-4.335 135.838-.161 18.17 2.517 26.595 4.892 42.697 12.036 25.994 11.534 32.997 12.973 63.433 13.032 20.98.04 28.715-.852 45.135-5.21 10.9-2.891 24.33-5.981 29.846-6.865 5.517-.885 15.446-3.032 22.066-4.773 6.62-1.74 17.227-3.71 23.57-4.378 10.944-1.152 11.535-1.498 11.535-6.745 0-8.945 16.14-21.937 24.096-19.397 7.699 2.458 12.012 10.838 12.012 23.337 0 9.807.63 11.901 3.892 12.942 2.14.684 9.499 7.606 16.352 15.383 6.854 7.777 21.803 23.481 33.22 34.898 20.48 20.479 20.759 20.884 20.759 30.26 0 11.974-4.501 20.95-11.376 22.686-2.907.734-17.922.728-33.367-.014-24.17-1.16-29.787-2.094-40.316-6.697-8.624-3.77-16.758-5.587-27.574-6.158-14.776-.78-15.909-.506-30.762 7.41-8.481 4.521-16.916 8.22-18.743 8.22-1.828 0-8.049 3.274-13.825 7.276-8.536 5.915-12.26 10.543-19.888 24.722-12.116 22.52-17.748 29.612-34.391 43.31a111.046 111.046 0 0 1-30.125 17.726c-12.167 4.792-17.82 8.27-21.65 13.322-5.092 6.716-5.203 7.577-6.227 48.279-1.167 46.328.106 53.418 11.573 64.487 5.477 5.286 7.797 5.997 22.532 6.902 14.978.92 16.482 1.396 17.049 5.403.342 2.417 1.922 5.48 3.51 6.806 3.72 3.105 3.641 4.909-.392 8.966-2.45 2.464-2.704 3.883-1.003 5.593 1.253 1.26 2.278 4.38 2.278 6.934 0 3.575-1.124 4.641-4.897 4.641-2.693 0-5.454-.908-6.136-2.018-.682-1.11-2.9-2.018-4.928-2.018-2.876 0-3.622 1.427-3.392 6.486.4 8.757-4.281 9.419-11.68 1.65zm-75.18-77.861c-1.734-5.845-1.77-5.859-1.939-.74-.095 2.868.43 5.82 1.165 6.56 2.33 2.342 2.598.322.775-5.82zM52.45 304.037c18.493-19.142 26.975-44.497 26.98-80.644.002-16.109-4.609-35.72-12.711-54.063-5.79-13.104-28.003 6.78-33.257 29.767-2.58 11.286-2.638 54.422-.1 74.668 1.042 8.325 2.507 22.855 3.254 32.29.747 9.434 1.764 15.79 2.26 14.126.496-1.665 6.604-8.93 13.574-16.145z"/></svg>