<svg xmlns="http://www.w3.org/2000/svg" xmlns:dc="http://dublincore.org/documents/dcmi-terms/" height="940.303" viewBox="0 0 1736.039 940.303" width="1736.039" overflow="visible"><metadata><dc:description>Silhouette of Protoceratops andrewsi, processed by PhyloPic Tools (https://github.com/eweitz/phylopic-tools)</dc:description><dc:source>http://phylopic.org/image/e0a8403a-c06d-47d1-9047-7f1c8c475c97</dc:source><dc:creator>Gareth Monger</dc:creator><dc:license>http://creativecommons.org/licenses/by/3.0/</dc:license></metadata><switch><g><path d="M1714.884 498.693c5.648-8.607 25.879-38.2 20.14-82.743-5.74-44.543-12.068-81.107-25.222-93.107-13.152-12-91.465-37.829-122.096-71.172-30.631-33.343-58.279-93.539-66.593-103.177-8.314-9.638-25.612-47.011-40.286-79.177-14.675-32.166-36.036-68.836-56.055-69.31-20.02-.473-74.642 19.564-80.657 33.158-6.016 13.595-4.748 50.789-.446 101.242 4.301 50.453 7.343 90.786 4.76 98.617-2.583 7.831-23.075 27.377 8.103 39.703 31.178 12.326 37.317 37.847 40.719 46.119 3.4 8.273 29.371 23.223 12.941 42.066-16.431 18.843-33.417 31.628-19.781 50.683 13.636 19.054-8.189 29.478 4.973 68.551 13.162 39.074 13.735 99.279 105.225 95.999 91.489-3.281 76.604-5.382 105.852-21.273 29.248-15.893 57.831-31.371 68.761-43.601 10.929-12.229 17.509 7.307 23.271 10.739 5.762 3.434 16.391-23.317 16.391-23.317z"/><path d="M1376.583 259.166c-9.638 8.313-27.989 26.012-43.463 31.89-15.475 5.878-93.787-19.952-114.142-29.474-20.355-9.522-121.582-78.153-174.773-91.1-53.192-12.947-195.396-15.412-273.911 15.899-78.516 31.311-266.889 29.452-310.467 49.301-43.578 19.849-234.171 116.093-270.368 117.435-36.197 1.342-231.225-19.056-181.351 11.695 49.874 30.751 117.804 47.793 220.452 56.365 102.647 8.572 191.627 12.125 254.562 1.726 62.935-10.4 104.707-19.353 120.778-6.135 16.071 13.218 12.55 88.162 44.358 105.548 31.808 17.387 264.283 19.488 296.196 21.842 31.913 2.354 278.703 68.683 338.933 26.999 60.229-41.684 86.77-88.859 93.782-102.381 7.014-13.521 35.586 47.746 39.28 52.03 3.695 4.283 19.18-192.11 19.18-192.11l-59.046-69.53z"/><path d="M1130.145 473.623s-56.461 44.97-50.459 99.559c6.002 54.59 14.228 133.408 15.34 145.522 1.112 12.114-5.565 34.685-3.235 43.881 2.329 9.196 1.373 22.161 13.12 26.035 11.747 3.875 23.389 22.782 33.288 24.515 9.898 1.732 14.224 11.076 20.354 9.522 6.131-1.553 13.259-3.033 13.259-3.033s27.409 9.041 20.943 1.545l-14.78-17.134s6.572-7.537-2.665-18.245c-9.238-10.708-21.762-17.648-20.658-32.607 1.104-14.96-1.277-64.269-2.315-77.38-1.039-13.112 30.595-74.953 37.755-90.469 7.159-15.515-59.947-111.711-59.947-111.711zM1208.172 530.515c-1.389 46.022 15.739 126.5 38.203 148.211 22.465 21.711 51.527 117.106 65.604 130.177 14.077 13.071 37.088 13.765 40.195 26.026 3.106 12.262 25.056 40.954 27.271 38.109 2.216-2.845 9.312 9.711 16.292 10.226 6.981.515 47.062 14.5 47.062 14.5l26.15-1.08s-6.875-15.548-14.78-17.133c-7.904-1.586-10.75-3.801-17.919-15.359-7.169-11.558-54.657-88.259-56.137-95.387-1.48-7.128-20.038-54.622-20.038-54.622s-19.025-122.731-17.849-138.688c1.177-15.957 21.169-96.705 21.169-96.705l-155.223 51.725zM1004.546 313.954c-.717 64.121 8.777 180.134-55 215.539-63.776 35.405-186.145 144.702-189.316 160.511-3.171 15.809 38.351 146.217 38.351 146.217s34.105 40.618 43.857 44.345c9.752 3.728 15.295 10.152 15.295 10.152s42.557 21.188 37.758 31.863c-4.798 10.677-26.15 1.08-26.15 1.08s.335 9.049-.105 15.033c-.441 5.983-35.608-6.637-35.608-6.637s-18.949-1.397-32.543-7.413c-13.595-6.017-46.817-58.603-46.817-58.603s-13.185 2.036-17.437-8.305c-4.251-10.34-17.086-67.438-22.523-88.896-5.437-21.458-46.141-135.761-.757-166.507 45.384-30.746 53.212-150.494 53.212-150.494l237.783-137.885z"/><path d="M968.348 532.884s-28.991 121.196-22.957 161.75c6.034 40.554 35.929 83.869 46.312 92.656 10.382 8.788 9.94 14.771 9.94 14.771s43.039 28.241 32.772 31.495c-10.268 3.254-48.721-5.598-48.721-5.598s-9.563 7.316-19.537 6.581c-9.973-.735-54.557-8.034-49.464-22.699 5.092-14.665-57.25-107.502-55.117-136.423 2.133-28.922-18.543-115.677-18.543-115.677l101.485-43.655 23.83 16.799z"/></g></switch></svg>