<svg xmlns="http://www.w3.org/2000/svg" xmlns:dc="http://dublincore.org/documents/dcmi-terms/" height="201.075" viewBox="0 0 387.834 201.075" width="387.834" overflow="visible"><metadata><dc:description>Silhouette of Protoceratops andrewsi, processed by PhyloPic Tools (https://github.com/eweitz/phylopic-tools)</dc:description><dc:source>http://phylopic.org/image/39ecd5a5-5adf-4da7-972d-d0db9910f99b</dc:source><dc:creator>Gareth Monger</dc:creator><dc:license>http://creativecommons.org/licenses/by/3.0/</dc:license></metadata><switch><g><path d="M387.834 96.047c0-8-1.25-9.5-5.25-18.25s-7.5-14.75-11.75-17.25-7-1.75-10-2.5-7-1.75-8.5-5-5-5.5-7.75-7-4.5-2.5-4.5-2.5 1.25-2.5-.25-9-7-26.5-13.5-29.25-26.75-8.5-33-3-12 12-13.25 27-3.5 17.5 1.25 22.75 15 26 15 29.5-.75 11.25 5.5 19 9.5 14 23 19 21.5 7.5 35.75.5 17-13.5 17-14.25 5.25 4 5.25 4 5-9.25 5-15"/><path d="M291.584 52.547c1.753-5.004-12.482-8.379-15.482-11.379s-29.018-17.121-41.518-19.121-56.25-1.25-69.5-1.25-47-3.5-65.25 3-57.25 23.75-70 30.25-35 20.75-28.75 20 23.5 3 34.5 2.75 19.5-3.25 34-5 38.75-6 45.5-4.25 16.25 3.75 18.5 8-1.25 8.5 5.25 13.75 50.231 19.68 54.634 24.116c4.98 5.019 45.866 6.384 61.116 5.634s39.25-3.5 42.75-7 8.25-10 8.25-10l-14-49.5z"/><path d="M251.334 109.297c-6.5 3.25-19.25 15.75-20.5 24.25s-4 10-4 18.25-2 21.25-1.25 24.5 1 7.75 1 9.5 0 4.5 1.5 4.5 3.25 9 5.5 9.5 3.75.5 3.75.5 13.75 1.75 14 0 2.5-4.5-.5-6-5.5-1.5-7.5-5.25-1.75-6.5-1.5-9.5 9-27 9-30 22.75-17 23.5-19 12-5.75 12.25-11.75 2.5-9.25 2.5-9.25l-37.75-.25z"/><path d="M306.584 102.297c1.5 2.5 3 30.75 1.5 36s-.5 6.25 3.25 15.25 6.75 18.5 6.75 21.25 6.25 10.5 6.25 12 1 5.75 0 7.25-1.25-1-3.25-2-5.25 0-5.25 0l-2-2.25s-1.5 2.5-5-.5-4.5-7-6.5-10-6.25-4.75-5-6.75-12-20.75-12-24.75-4.5-8-4.5-11-1-22.5-1-22.5l26.75-12zM201.584 77.547c-6 13.25-12.75 19.75-14.5 21.5s-9 23-14.25 31.25-8.25 24.25-8.75 26.25-1 6.25 0 12.5 3.762 11.75 6.012 14.25c2.25 2.5 17.238 6.25 19.988 9s4 3.75 1.25 4.5-2.25 4.25-5.75 4.25-18.75-2.5-22.5-3.5-9-5-9.75-7.25-4.5-12.75-7-15.75-5.5-14-2.75-21-15.75-48.25 1-61.75 17.5-17.75 17.5-17.75l39.5 3.5z"/><path d="M139.584 168.797c-2.854 3.14-6.75 6-8.75 6s-5.25 2-8 2-4.75-1.25-4.75-1.25l.5-4-3.5-1 6.25-9.75s-3.75-.5-2.5-2.5 4-8.25 4-8.25 4-17.25 7-19.75 8.75-19 8.75-19 13.569 43.668 1 57.5z"/><path d="M210.706 22.989s-3.069-6.139-14.401-1.417-10.625-6.374-16.999-1.652c-6.374 4.722-4.722-1.181-10.388 1.652-5.666 2.833 27.387-6.375 34.233-.472 6.846 5.903 1.181-6.139 12.514.472 11.332 6.611 3.068-6.138 15.109 1.181s-11.332-.708-11.332-.708-20.304-7.083-24.79-1.417c-4.486 5.666-5.432-8.263-12.514 1.181" fill="none" stroke="#000"/><path d="M231.01 18.503s-1.417 4.014 5.43 6.375c6.847 2.361-2.598-3.305-1.652-4.958M46.149 47.307s11.805-10.624 16.763-10.152c4.958.472 5.902.472 5.902.472s3.068-6.847 7.555-7.083c4.487-.236 11.333-.472 11.333-.472s-9.208-4.014 1.889-3.069c11.097.945 2.125-8.736-11.805 5.902-13.93 14.638-1.181-10.624-18.888 10.625" fill="none" stroke="#000" stroke-linecap="round"/><path d="M114.616 22.281s-6.374-4.722-10.388 0-5.666 4.25-5.666 4.25-4.251-6.611-9.444-.472M131.143 21.809s-5.903.472-9.681-2.597M118.158 21.1s-16.526 3.778-19.832.708M38.122 48.015s2.833 2.361 7.083.944c4.25-1.417-1.653 1.181-3.542-1.417M48.274 41.641s-.944 3.305 5.666 3.305M57.009 37.155s5.431 6.374 8.972 5.666" fill="none" stroke="#000" stroke-linecap="round"/></g></switch></svg>