<svg xmlns="http://www.w3.org/2000/svg" xmlns:dc="http://dublincore.org/documents/dcmi-terms/" height="185.103" viewBox="0 0 250.871 185.103" width="250.871" overflow="visible"><metadata><dc:description>Silhouette of Protoceratops andrewsi, processed by PhyloPic Tools (https://github.com/eweitz/phylopic-tools)</dc:description><dc:source>http://phylopic.org/image/324daac9-6ba1-4c26-a213-04a27cb0b84e</dc:source><dc:creator>Gareth Monger</dc:creator><dc:license>http://creativecommons.org/licenses/by/3.0/</dc:license></metadata><switch><g><path d="M125.204 178.604s10.13 2.711 12.841 2.568c2.711-.143 5.422.143 5.422.143l-6.706-1.283-1.854-.857 20.689-.143-12.414-.713 24.114-1.141-12.557-.43 22.116-.998-11.415-.713 16.409-1.285-5.851-.57 16.979-3.566-8.133.855 5.85-2.283-4.565 1 3.71-1.855-2.568.143 2.426-1.855h-1.284l-63.209 12.983z" fill="none" stroke="#000" stroke-width=".7" stroke-linecap="round" stroke-linejoin="round"/><path d="M32.086 92.165s3.772 20.276 11.789 30.652c8.017 10.375 21.691 26.879 35.367 33.48 13.675 6.602 29.708 22.164 45.741 23.578 16.033 1.416 52.815-5.188 60.36-8.959 7.545-3.773 7.545-31.123 7.545-31.123s-44.799-31.596-58.003-38.669c-13.202-7.072-49.513-23.104-51.87-22.634-2.357.47-.472-19.335-.472-19.335l-50.457 33.01z"/><path d="M176.855 169.974s16.505-4.715 21.692-11.789c5.187-7.074 15.091-38.668 16.977-48.571 1.886-9.903 8.018-23.578 12.261-20.277 4.243 3.301 8.958 18.392 4.243 24.521-4.715 6.129-5.658 24.05 6.603 4.245 12.261-19.807 15.562-49.045-2.829-59.419-18.391-10.374-39.141-6.131-45.742 0-6.601 6.131-20.749 43.384-28.766 49.043-8.017 5.659-8.017 11.317-8.017 11.317l23.578 50.93zM124.983 105.841s-50.929-39.14-34.896-52.344 45.742-22.635 49.515-24.521c3.773-1.886 18.391-13.204 26.879-8.488 8.488 4.716 12.731 17.447 2.357 23.106-10.374 5.659-18.863 19.334-24.993 19.806-6.13.472-17.447 8.488-17.447 8.488l-1.415 33.953z"/><path d="M132.528 55.854s-12.126 12.658-9.431 13.203c46.685 9.431 53.287 33.01 58.003 38.669 4.716 5.659-24.994 35.839-24.994 35.839L91.503 70.001l41.025-14.147z"/><path d="M64.003 128.089s-24.836-1.912-26.723-.496c-1.886 1.414-29.244 10.787-31.603 5.127-2.357-5.658 4.473-19.335 4.943-24.993.472-5.658-3.403-29.226-3.528-39.14-.213-16.838-3.75-17.016-3.75-17.016s1.062-8.546 1.062-13.262c0-4.716-10.987-41.4 1.745-38.1 12.732 3.3 27.675 14.92 30.653 15.091 12.695.729 9.512 4.795 9.512 4.795s15.009 5.58 19.725 6.052c4.716.472 19.242 10.945 42.913 5.187 5.122-1.246 10.704 12.242.329 20.259-10.374 8.017 1.444 29.774 1.444 29.774l-46.722 46.722z"/><path d="M162.709 20.486s-20.749-3.301-24.05-4.244c-3.301-.943-16.505-8.489-18.862-9.432-2.357-.943-6.131-1.413-8.017-.942-1.887.471-2.358 1.415-1.887 3.772.471 2.357 1.887 2.829 1.887 2.829s-3.772-.944-6.602 1.886c-2.83 2.83-.001 3.301.942 5.188.943 1.887-3.301 5.187-3.772 6.602-.471 1.415 3.772 4.244 3.772 4.244l2.83 5.659 18.391.472 35.368-16.034z"/><path d="M206.105 148.927s-6.42 12.27-13.412 13.412c-6.992 1.141-5.279 2.283-5.279 2.283s18.835-10.703 19.405-11.559M209.53 133.659l-7.277 13.27 5.707-7.991" fill="none" stroke="#000" stroke-linecap="round" stroke-linejoin="round"/><path fill="none" stroke="#000" stroke-linecap="round" stroke-linejoin="round" d="M206.391 143.505l-5.85 8.418-1.855 4.139 11.129-9.276M197.83 161.911s-5.422.857-6.563.57c-1.142-.285 1.142-2.283 1.142-2.283s4.281 1 7.848-.143M202.396 162.767s-13.982 2.711-14.839 2.283c-.857-.428-1.855 1.141-1.855 1.141s4.993.715 7.848.287M126.916 181.458s-.999-2.709-2.141-2.996c-1.142-.285-3.566-1.141-3.566-1.141s1.997 1.711 1.997 4.279"/><path fill="none" stroke="#000" stroke-linecap="round" stroke-linejoin="round" stroke-width=".7" d="M85.03 161.093l-11.75-9 6.25 6.25"/><path fill="none" stroke="#000" stroke-linecap="round" stroke-linejoin="round" stroke-width=".7" d="M87.78 161.593l-7-5.25 3.75 5.75M46.03 129.093l-2.155-6.276 1.905-.224 3.25 7.25M73.03 153.343s-7.75-4-7.75-6.5-2-3.25-2-3.25-1.75 5.25 8.25 6.25M61.03 141.093s-11-2.25-8.25-8.75-3 11.5 9.5 9.5"/><path d="M57.53 137.093s-7.75-1.25-6.75-7.5-7.75-16.501-3.25-6c4.5 10.5.25 14.25 9.5 11.5M220.28 97.342l-5.5 11 4.5-7M216.78 108.342l-3.5 9.751 2-2.501" fill="none" stroke="#000" stroke-width=".7" stroke-linecap="round" stroke-linejoin="round"/><path fill="none" stroke="#000" stroke-linecap="round" stroke-linejoin="round" stroke-width=".7" d="M219.53 104.592l-5.25 5-1.25 5.75 4.75-3.5M224.53 91.592l-5.75 4.25-.75 2.75 4-3.5M214.03 119.343l-4.75 11.75 2.75-4.75M193.03 55.592l-3.5 5.25-.5-4M206.28 51.842s-8.25 1-10 4 5-5.25 5.75-5.5"/><path d="M196.28 53.592s-2.75 1.5-4 3.75-1.5-2.5-1.5-2.5M177.78 77.342l-2.25 10.75-.5-7M211.28 52.092s-5-3.25-6.25 2-9.25-2.25-6-4M181.03 76.592l3.25-11.5M226.78 53.092l-12 .25 15 .75M180.893 176.202l-6.133-2.476-2.477.236 3.656 3.184M171.34 178.679l-6.25-3.303-4.128.59 4.6 4.719" fill="none" stroke="#000" stroke-width=".7" stroke-linecap="round" stroke-linejoin="round"/><path fill="none" stroke="#000" stroke-linecap="round" stroke-linejoin="round" stroke-width=".7" d="M176.528 179.269l-8.018-4.836-11.44 2.005 2.359 2.948M196.104 167.122s-10.495.588-11.557.471c-1.062-.117-1.415 2.949-1.415 2.949s1.769 1.887 4.835 2.004"/><path fill="none" stroke="#000" stroke-linecap="round" stroke-linejoin="round" stroke-width=".7" d="M152.943 181.038l-4.128-3.773 4.482-1.416 10.141 3.892M150.112 180.919l-6.604-2.123-2.83-.234s4.835 2.477 5.188 2.477M202.944 156.862s-11.911 5.543-13.562 6.604c-1.65 1.062-2.83 1.65-2.83 1.65s10.378-.117 11.793-.117M207.426 145.187l-7.43 6.722 9.199-2.123M211.907 129.974l-8.491 12.972 6.84-4.599M231.804 125.132s5.749-1.953 6.288-4.492l.539-2.537s-.989 1.639 1.481-1.729c2.47-3.368 2.694-7.635 2.694-7.635s3.145-2.246 3.369-4.716c.224-2.47-1.123-8.309-1.123-8.309s3.368 2.471 3.144-2.021"/><path fill="none" stroke="#000" stroke-linecap="round" stroke-linejoin="round" stroke-width=".7" d="M235.396 125.356l1.797-6.062 2.47-5.615.674 3.593M243.93 109.861l.225-6.288 1.572-8.309s2.469 1.573 1.347 6.737M227.762 128.948l4.94-7.185 2.245-2.469-5.613 9.654M226.414 130.296s1.122-11.004 4.267-13.249c3.145-2.245 1.797.675 1.797.675s-5.164 6.287-6.961 9.656"/><path fill="none" stroke="#000" stroke-linecap="round" stroke-linejoin="round" stroke-width=".7" d="M232.253 127.378l2.02-4.492-2.919-.225-3.143 3.594M233.947 111.009s-1.667 1.417-2.042 2.542c-.375 1.125-.375 1.667-.375 1.667s-1.042.166-1.417 1.291-.375 3.043-.375 3.043l-3 3.416"/><path fill="none" stroke="#000" stroke-linecap="round" stroke-linejoin="round" stroke-width=".7" d="M229.155 128.343l1.167-5.709-.75.084-1.167 1.916"/><path d="M225.738 128.427s4.793-2.543 5.584-3.793c.791-1.25.125 3.209.125 3.209" fill="none" stroke="#000" stroke-width=".7" stroke-linecap="round" stroke-linejoin="round"/><path fill="none" stroke="#000" stroke-linecap="round" stroke-linejoin="round" stroke-width=".7" d="M225.613 129.468l4.417-6.166.5 5.5M233.28 126.468l2.042-4.25 1.125-1.791-1.875 5.291M237.53 123.302s-.458-4 .417-5.084M228.405 119.634s1.083-.541 2.083-.916M235.623 60.092s9.932 1.656 9.601 6.456l-.331 4.8s4.304-1.655 3.311 2.152c-.993 3.807-1.489 5.628-1.489 5.628l1.655 2.317s3.476-7.283-2.152-7.945c-5.628-.662-.827-.993-.827-.993s5.793-4.966-2.814-7.118-2.979-2.152-2.979-2.152-1.158-6.29-6.952-5.628c-5.794.662 4.966 4.304 4.966 4.304s4.304-5.793 4.966 4.967"/><path d="M249.693 81.28l-6.125-10.76s3.477-.828 5.463 2.979M248.369 69.527s-5.795-6.787-9.933-6.787 6.787 1.49 8.442 2.814M241.913 65.389l6.29 5.463M245.39 71.845l5.131 6.29M249.528 84.757l-2.152-3.312v3.974s3.478 3.144 2.152 6.124M248.7 92.702s1.82-12.911-.166-14.401" fill="none" stroke="#000" stroke-width=".7" stroke-linecap="round" stroke-linejoin="round"/><path d="M174.223 93.386l-4.751-.404 3.336-.91-5.155-.505 6.166-1.011-7.277-.102 7.277-.809s-7.074 0-8.895-1.011c-1.821-1.011-1.82-2.021-1.82-2.021s9.401 3.538 11.423 4.145" fill="none" stroke="#000" stroke-width=".25"/><path d="M176.852 93.386s-10.513-2.527-11.827-3.74-2.325-3.336-2.325-3.336 9.703 5.055 11.523 4.65c1.82-.405 1.213-2.527 1.213-2.527s-.707-.102-6.671.202l-5.964.304 9.906 4.144-7.985-5.155 8.086 3.74M130.353 71.754s5.055-.101 6.672.304 3.336 2.122 3.336 2.122 3.134-.303 5.155.91c2.021 1.213 2.83 2.426 2.83 2.426l1.719.606s-.606-2.324-4.751-2.224c-4.145.1-2.427-3.639-7.885-2.628" fill="none" stroke="#000" stroke-width=".4"/><path d="M156.129 79.639s-6.166-1.617-8.39-2.021c-2.224-.404 3.234-.304 3.234-.304" fill="none" stroke="#000" stroke-width=".4" stroke-linecap="round"/><path d="M40.536 112.095s-.053.555-.122 1.463c-.232 3.045-.649 10.071.122 13.537 1 4.5-8.31 22.369 5 24.834 18 3.333 14.5-10.334 15-12.334s-20-27.5-20-27.5z"/><path d="M47.589 153.171c-6.39 2.556-10.65 2.556-10.65 2.556l-.852-4.26-6.927-.247s-8.875-4.125.537-6.569c5.36-1.392-5.538-5.963 0-8.519s3.408-3.409 6.39-.427c2.982 2.982 3.834-1.704 6.39-2.556 2.556-.852.852-2.556 4.686 2.13 3.834 4.687 8.094 12.781 5.538 14.91-2.556 2.129-5.112 2.982-5.112 2.982z"/><path d="M29.411 138.72s-3-3 .5-4.875 4.5 1.5 4.5 1.5l-5 3.375zM36.661 151.97s-2.125 3.375-.5 3.875 4.625-1 4.625-1l-4.125-2.875zM99.87 165.595s-3.667 3.666-1.333 10c2.334 6.334 8.333 8.334 12.333 8.667 0 0 20 3.001 36.333-2.333s21.333-8.925 21.333-8.925l-68.666-7.409z"/></g></switch></svg>