<svg xmlns="http://www.w3.org/2000/svg" version="1.2" width="834.763" height="717.25" viewBox="0 0 834.763 717.25"><path d="M789.713 103.45c1.934 1 3.616 2.25 5.05 3.75l-.05.05c-.833-.133-1.65-.267-2.45-.4-.833-.167-1.633-.333-2.399-.5l-17.95-5.05a29.501 29.501 0 0 0-2.3-.6 61.987 61.987 0 0 0-2.4-.45 28.7 28.7 0 0 0-2.45-.4 59.397 59.397 0 0 0-2.55-.35c-.866-.1-1.75-.167-2.65-.2a79.193 79.193 0 0 0-2.8-.05c.3.6.65 1.216 1.05 1.85.4.6.834 1.184 1.301 1.75.466.567.983 1.15 1.55 1.75a78.935 78.935 0 0 0 1.649 1.7l3.601 3.3c.6.534 1.2 1.083 1.8 1.65a40.13 40.13 0 0 1 1.75 1.65 79.075 79.075 0 0 1 1.65 1.7c.5.6.983 1.2 1.449 1.8.434.566.851 1.183 1.25 1.85.334.6.65 1.233.95 1.9.533 1.333.816 2.75.851 4.25.033 1.5-.25 3.1-.851 4.8a11.37 11.37 0 0 0 2.25 3.4c.9.934 2 1.717 3.3 2.35.634.3 1.317.55 2.051.75.733.2 1.517.35 2.35.45-.066.7-.134 1.35-.2 1.95-.133.567-.25 1.067-.35 1.5l-.351 1.25c-.1.367-.166.717-.199 1.05-.067.3-.067.617 0 .95.033.333.133.667.3 1 .133.3.35.65.649 1.05.301.4.7.816 1.2 1.25a3.064 3.064 0 0 0 1.15-.3c.3-.167.583-.367.85-.6.233-.267.45-.55.65-.85l.55-.95.6-.9c.2-.3.45-.55.75-.75a2.37 2.37 0 0 1 1-.5c.301-.1.65-.15 1.051-.15h.35l.05.1-1.2 1.7c-.233.3-.449.617-.649.95a6.592 6.592 0 0 0-.601 1.05 6.22 6.22 0 0 0-.399 1c-.101.367-.134.733-.101 1.1 0 .7.317 1.417.95 2.15.367.067.7.1 1 .1l.45-.05a2.7 2.7 0 0 0 .95-.35c.267-.2.483-.434.649-.7.167-.3.334-.583.5-.85.167-.333.334-.633.5-.9.167-.3.384-.566.65-.8.233-.233.533-.383.9-.45.199-.066.433-.1.699-.1.2 0 .417.017.65.05l.05.1-.6.9c-.2.3-.417.583-.65.85l-1.5 1.5c-.233.233-.467.5-.7.8a8.25 8.25 0 0 0-.649.85c-.2.3-.367.617-.5.95-.167.333-.3.7-.4 1.1.134.6.334 1.133.601 1.6.267.467.6.883 1 1.25.366.367.767.733 1.199 1.1.4.3.801.633 1.2 1l.3.05c.4 0 .75-.05 1.051-.15.366-.1.683-.267.949-.5.301-.2.551-.45.75-.75l.601-.9.55-.9c.2-.333.434-.617.7-.85.233-.267.517-.483.85-.65.334-.2.733-.317 1.2-.35l.05.05c0 .567-.066 1.05-.2 1.45-.133.4-.333.75-.6 1.05-.267.3-.55.55-.85.75-.334.233-.684.45-1.051.65l-1.05.55a4.407 4.407 0 0 0-.95.65c-.333.2-.6.467-.8.8-.233.3-.399.667-.5 1.1-.066.767-.083 1.5-.05 2.2 0 .667.066 1.3.2 1.9.233 1.167.649 2.167 1.25 3 .566.8 1.333 1.45 2.3 1.95.434.233.934.433 1.5.6.533.133 1.116.233 1.75.3l.05.05c-.1.333-.217.633-.35.9-.167.267-.351.5-.55.7l-.7.6-.7.55c-.5.333-.917.75-1.25 1.25a2.178 2.178 0 0 0-.35.85 3.14 3.14 0 0 0-.101 1.15c.566 1.633 1.367 3.033 2.4 4.2 1 1.2 2.166 2.233 3.5 3.1.666.4 1.366.8 2.1 1.2.733.399 1.483.767 2.25 1.1.767.3 1.55.616 2.351.95l2.399.899 4.851 1.801c.767.3 1.533.633 2.3 1 .767.333 1.5.699 2.2 1.1.699.4 1.383.833 2.05 1.3.633.434 1.233.934 1.8 1.5 1.134 1.066 2.066 2.351 2.8 3.851l-.05.05-8.25-.5c-.634-.134-1.2-.3-1.7-.5.101.333.233.649.4.95.133.3.3.566.5.8.2.267.434.5.7.7.233.199.483.399.75.6l.899.5c.3.134.617.267.95.4l4.1 1.399c.301.134.617.267.95.4.334.133.65.283.95.45.3.166.583.333.85.5.267.199.534.416.801.649.466.434.85.967 1.149 1.601l-.05.05c-.634-.101-1.25-.2-1.85-.3a69.575 69.575 0 0 1-1.7-.4l-3.3-.95c-.567-.133-1.15-.25-1.75-.35a35.417 35.417 0 0 0-1.9-.25c-.366-.033-.75-.05-1.15-.05-.5 0-1.033.033-1.6.1-.566.033-1.134.1-1.7.2-.133 1.333.017 2.416.45 3.25.434.8 1.05 1.416 1.85 1.85.367.233.784.434 1.25.601.467.166.95.316 1.45.449l2.95.75.05.101c-.8.399-1.6.816-2.399 1.25l-2.45 1.2c-.8.366-1.601.767-2.4 1.199-.8.434-1.566.884-2.3 1.351-1.5.899-2.8 2-3.9 3.3-1.133 1.267-1.983 2.816-2.55 4.65.3.1.617.183.95.25.3.066.6.1.9.1h.149c.601 0 1.2-.066 1.8-.2.301-.1.617-.2.95-.3.334-.1.667-.217 1-.35l6.4-2.801c.366-.133.75-.25 1.149-.35.4-.1.801-.184 1.2-.25.267-.066.566-.1.9-.1.267-.034.566-.051.899-.051h.65l.05.101a9.462 9.462 0 0 1-2.8 2.95c-.566.399-1.167.767-1.8 1.1-.634.3-1.3.6-2 .9l-4.25 1.5c-.733.199-1.434.433-2.101.699-.699.267-1.383.551-2.05.851.033.5.117.967.25 1.399.134.434.3.817.5 1.15.367.7.851 1.25 1.45 1.65.3.199.616.366.95.5.333.133.684.25 1.05.35.366.1.75.167 1.15.2.399.066.816.1 1.25.1l8.149-.5c.434 0 .834.017 1.2.05l.05.101c-.434.399-.883.783-1.35 1.149a13.75 13.75 0 0 1-.75.5 9.48 9.48 0 0 1-.8.45l-.9.4c-.3.1-.616.184-.95.25-.333.066-.684.133-1.05.2-.366.033-.75.05-1.15.05-.033.399-.033.8 0 1.2 0 .333.051.649.15.949.134.601.333 1.101.6 1.5.267.367.584.667.95.9.367.2.783.366 1.25.5.434.1.9.167 1.4.2l1.55.149c.5.034 1.017.084 1.55.15.233.033.483.083.75.15.233.066.483.133.75.199v.101c-.3.333-.649.616-1.05.85-.4.2-.833.384-1.3.55l-1.5.4-1.5.4c-.5.1-.967.25-1.4.449-.434.167-.816.4-1.149.7a2.842 2.842 0 0 0-.801 1.05c-.199.434-.3.95-.3 1.551l-.05.05a4.608 4.608 0 0 1-1.25-.25c-.4-.134-.733-.3-1-.5-.3-.233-.583-.45-.85-.65l-.75-.75a16.172 16.172 0 0 0-.801-.75 4.905 4.905 0 0 0-.85-.6c-.3-.2-.634-.334-1-.4-.4-.1-.816-.133-1.25-.1h-.25c-.2.033-.366.1-.5.2l-.4.35a1.326 1.326 0 0 1-.449.3 2.648 2.648 0 0 1-.601.15c.4 1.566 1.05 2.899 1.95 4 .866 1.066 1.983 1.934 3.35 2.6 1.367.601 2.95 1.017 4.75 1.25.5.033 1.017.084 1.551.15.533 0 1.083.017 1.649.05l2.7-.15c.167 1.101.017 1.884-.45 2.351-.5.434-1.166.684-2 .75a19.156 19.156 0 0 1-2.8 0c-.5-.033-.983-.05-1.45-.05-.434 0-.85.017-1.25.05a5.862 5.862 0 0 0-.05 1.3c0 .366.066.7.2 1 .2.6.483 1.15.85 1.65.334.466.617 1.017.851 1.649.1.3.166.65.199 1.05.034.367.017.801-.05 1.301l-.05.05a6.71 6.71 0 0 1-1.3-1 7.46 7.46 0 0 1-1-1.25 10.544 10.544 0 0 1-.851-1.4l-.8-1.399c-.3-.5-.6-.967-.899-1.4a8.823 8.823 0 0 0-1.051-1.15 5.292 5.292 0 0 0-1.35-.899 3.889 3.889 0 0 0-.8-.3 4.294 4.294 0 0 0-.9-.2c-.434.434-.7.95-.8 1.55-.033.267-.05.566-.05.9 0 .3.05.616.149.949.067.334.167.684.301 1.051.1.366.233.733.399 1.1l5.15 9.3.5 1.101c.133.333.25.666.35 1-.533.267-1 .416-1.399.449-.467 0-.9-.1-1.301-.3a6.824 6.824 0 0 1-1.149-.85c-.367-.367-.733-.75-1.101-1.15l-1.149-1.3c-.367-.434-.75-.85-1.15-1.25a8.514 8.514 0 0 0-1.3-1 4.773 4.773 0 0 0-1.5-.55c-.5.066-.884.25-1.15.55-.3.267-.533.616-.699 1.05l-.5 1.2a5.324 5.324 0 0 1-.601 1.15c.033.399.101.783.2 1.149.1.367.233.7.4 1 .166.267.35.533.55.8a7 7 0 0 0 .7.7c.233.2.483.384.75.55.267.167.566.334.899.5l3.75 1.75c.3.134.601.301.9.5.267.167.533.351.8.551a5.6 5.6 0 0 1 1.35 1.449c.167.267.317.584.45.95.101.334.184.7.25 1.101l-.05.05-2.05.1c-.434 0-.851-.017-1.25-.05a9.653 9.653 0 0 1-1.101-.15 23.9 23.9 0 0 1-1.8-.449c-.6-.167-1.166-.351-1.7-.551l-3.3-1.199c-.566-.2-1.166-.351-1.8-.45-.634-.134-1.3-.217-2-.25-.5.066-.967.184-1.4.35-.433.134-.8.334-1.1.601-.7.466-1.233 1.1-1.6 1.899-.2.367-.351.783-.45 1.25-.134.467-.233.95-.3 1.45-.101.5-.15 1.05-.15 1.65 0 .566.017 1.149.05 1.75-.899 1.066-1.8 2.1-2.7 3.1a220.87 220.87 0 0 1-2.85 2.9c-1 .933-1.967 1.883-2.9 2.85a79.78 79.78 0 0 0-2.85 2.9 43.946 43.946 0 0 0-5.1 6.399c-1.534 2.3-2.733 4.917-3.601 7.851-.5.033-.934.083-1.3.149a3.894 3.894 0 0 0-1.15.25 4.815 4.815 0 0 0-.949.4 3.01 3.01 0 0 0-.851.5 7.869 7.869 0 0 0-1.5 1.25c-.434.467-.85.95-1.25 1.45.167.366.367.633.601.8.199.133.416.217.649.25h.101c.199 0 .416-.033.649-.101.267-.1.55-.216.851-.35l.899-.4a4.034 4.034 0 0 1 1-.35c.3-.1.617-.15.95-.15h.15c.366 0 .75.101 1.149.301v.05c-1.233.934-2.633 1.7-4.2 2.3-.8.3-1.616.583-2.449.85l-2.5.7-5.15 1.351c-.833.233-1.634.5-2.4.8-.8.267-1.55.583-2.25.95.301.166.617.3.95.399.334.101.667.184 1 .25a10 10 0 0 0 1.4.101l.7-.051 1.1-.1c.333-.066.7-.15 1.1-.25l6.801-1.9c.399-.1.8-.183 1.199-.25.4-.1.801-.166 1.2-.199a6.567 6.567 0 0 1 1.4-.051 5.577 5.577 0 0 1 1.05 0l.05.051-19.5 6.35c-2.133.7-4.25 1.434-6.35 2.2-2.134.733-4.233 1.5-6.3 2.3a266.64 266.64 0 0 0-6.2 2.35 225.07 225.07 0 0 0-9.101 3.75 197.355 197.355 0 0 0-8.85 4.051c-2.9 1.366-5.733 2.8-8.5 4.3-2.8 1.5-5.517 3.066-8.15 4.7.5.3 1.051.566 1.65.8.566.233 1.2.416 1.9.55.666.134 1.383.25 2.149.35.733.101 1.5.167 2.3.2l9.9.05.05.051-.05.05c-2.066.1-4.1.233-6.1.399-2.034.134-4.051.301-6.051.5-2 .167-3.966.367-5.899.601-1.934.2-3.851.416-5.75.649-1.934.233-3.851.483-5.75.75-1.9.267-3.767.551-5.601.851l-33.85 6.25c-.5.066-.884.25-1.15.55-.3.267-.533.616-.699 1.05l-.5 1.2a6.693 6.693 0 0 1-.601 1.2l-32.5 1.899c-1.2.034-2.399.084-3.6.15-1.233.033-2.45.05-3.65.05h-4.25a97.555 97.555 0 0 1-3.1-.149c-1.233-.067-2.483-.15-3.75-.25a84.29 84.29 0 0 1-3.95-.4c-1.3-.167-2.634-.35-4-.55-1.366-.233-2.75-.483-4.15-.75a43.264 43.264 0 0 0 1.7 2.55c.601.8 1.25 1.6 1.95 2.4.7.767 1.434 1.533 2.2 2.3.733.767 1.5 1.517 2.3 2.25l9.7 8.75a74.44 74.44 0 0 1 2.3 2.3c.767.733 1.5 1.5 2.2 2.3.7.8 1.366 1.617 2 2.45.6.833 1.184 1.684 1.75 2.55a26.481 26.481 0 0 1 2.649 5.65c.667 2 1.067 4.149 1.2 6.45l-.05.05a18.41 18.41 0 0 1-1.5-1.7c-.467-.599-.9-1.2-1.3-1.8l-2.4-3.851a57.848 57.848 0 0 0-1.25-1.899 75.898 75.898 0 0 0-1.3-1.75 14.632 14.632 0 0 0-3.25-3c-.434.267-.717.533-.85.8-.167.267-.217.55-.15.85.033.267.15.551.35.851.2.3.417.6.65.899.2.267.4.551.6.851.2.3.334.6.4.899.066.301.033.617-.1.95-.134.3-.417.601-.851.9a26.873 26.873 0 0 1-1.7-1.65 34.166 34.166 0 0 1-1.5-1.7l-5.75-7.3c-.466-.6-.966-1.184-1.5-1.75a36.024 36.024 0 0 0-1.6-1.6 5.792 5.792 0 0 0-1.2-.15c-.399 0-.733.05-1 .15-.566.2-.983.517-1.25.95a8.565 8.565 0 0 0-.45.699c-.133.233-.25.5-.35.801-.2.533-.434 1.033-.7 1.5.467.533.917 1.083 1.351 1.649.399.566.8 1.15 1.199 1.75.4.601.817 1.2 1.25 1.8.4.567.817 1.15 1.25 1.75a16.816 16.816 0 0 0 2.9 3.051c1.1.866 2.434 1.517 4 1.949 0 1.9.333 3.601 1 5.101s1.6 2.883 2.8 4.149c.601.634 1.25 1.25 1.95 1.851a41.302 41.302 0 0 0 2.15 1.7 69.88 69.88 0 0 0 2.3 1.6l2.399 1.6 4.801 3.101a95.386 95.386 0 0 1 2.199 1.649c.7.534 1.367 1.101 2 1.7 1.267 1.2 2.301 2.5 3.101 3.9.767 1.399 1.217 2.967 1.35 4.7l-.05.05-11.5-7.75c-.467-.233-.95-.467-1.45-.7-.5-.267-1.017-.5-1.55-.7a15.44 15.44 0 0 0-1.6-.6c-.567-.2-1.134-.384-1.7-.55-.601-.2-1.217-.367-1.851-.5a32.893 32.893 0 0 0-1.949-.45c-.667-.167-1.367-.3-2.101-.4a45.685 45.685 0 0 0-2.25-.35c.634 2.666 1.517 5.1 2.65 7.3a43.254 43.254 0 0 0 1.75 3.25 58.58 58.58 0 0 0 1.899 3.05l4.051 6c.666 1 1.3 2.033 1.899 3.101a57.71 57.71 0 0 1 1.75 3.25l-.05.05c-.434.066-.816.1-1.15.1h-.449c-.467-.066-.851-.184-1.15-.35a2.776 2.776 0 0 1-.85-.65c-.233-.3-.45-.6-.65-.899l-.55-.95a8.988 8.988 0 0 0-.55-.95c-.2-.3-.434-.566-.7-.8a3.894 3.894 0 0 0-.9-.5c0 .733.066 1.434.2 2.1a13.026 13.026 0 0 0 1.401 3.8c.333.601.699 1.184 1.1 1.75.366.567.783 1.134 1.25 1.7.434.566.9 1.117 1.4 1.65l3.05 3.25c.533.533 1.066 1.1 1.6 1.7.5.566 1 1.149 1.5 1.75.467.566.934 1.166 1.4 1.8a24.83 24.83 0 0 1 1.3 1.95c.4.666.767 1.366 1.1 2.1.301.7.584 1.45.851 2.25.233.767.434 1.583.6 2.45.134.866.217 1.767.25 2.7l-.05.05c-1.366-1-2.55-2.167-3.55-3.5a77.85 77.85 0 0 1-1.45-2c-.5-.7-.967-1.4-1.4-2.101a57.993 57.993 0 0 0-1.399-2.1c-.5-.7-1-1.366-1.5-2-1.066-1.3-2.3-2.4-3.7-3.3-.3.366-.5.733-.6 1.1a2.22 2.22 0 0 0 0 1.15c.033.366.133.75.3 1.149l.399 1.101c.134.333.233.684.301 1.05.033.333 0 .65-.101.95-.133.3-.366.583-.7.85-.366.233-.883.45-1.55.65 1.267 1.7 2.566 3.383 3.9 5.05 1.3 1.667 2.633 3.333 4 5l8.05 9.95a200.73 200.73 0 0 1 3.95 5c1.3 1.7 2.6 3.416 3.899 5.149 1.233 1.733 2.467 3.5 3.7 5.301 1.2 1.8 2.367 3.633 3.5 5.5l-.05.05c-.434 0-.85-.05-1.25-.15a7.53 7.53 0 0 1-2.4-1 11.51 11.51 0 0 1-1.1-.8c-.367-.3-.717-.616-1.05-.95-.334-.366-.667-.75-1-1.149-.334-.4-.65-.801-.95-1.2-.333-.434-.65-.884-.95-1.351l-5.45-8.199c-.3-.434-.6-.817-.899-1.15-.334-.4-.65-.75-.95-1.05a2.276 2.276 0 0 0-.6-.101c-.233 0-.417.051-.551.15-.267.134-.449.35-.55.65-.1.3-.166.649-.2 1.05l-.05 1.2-.05.05c-.4-.101-.767-.2-1.1-.3a4.5 4.5 0 0 1-1-.4 6.12 6.12 0 0 1-1.601-1.15 10.581 10.581 0 0 1-1.25-1.5l-3.1-5.1c-.4-.533-.834-1.017-1.3-1.45-.467-.434-1-.8-1.601-1.1a13.22 13.22 0 0 0-.2 1.6 8.656 8.656 0 0 0-.05 1.601c.033.533.101 1.066.2 1.6.066.5.167 1.017.3 1.55.101.533.25 1.066.45 1.601.167.5.35 1 .55 1.5.2.533.434 1.05.7 1.55.2.5.434 1 .7 1.5l6.35 11.45v.05c-.833-.7-1.983-1.033-3.45-1h-.55c-.233 2.866-.149 5.434.25 7.7.367 2.267 1 4.3 1.9 6.1a22.53 22.53 0 0 0 3.149 4.8c.601.7 1.25 1.4 1.95 2.101.634.666 1.316 1.3 2.05 1.899.7.601 1.417 1.217 2.15 1.851.733.6 1.483 1.199 2.25 1.8a96.17 96.17 0 0 1 2.2 1.75c.7.6 1.416 1.217 2.149 1.85.7.634 1.384 1.3 2.051 2 .633.667 1.25 1.367 1.85 2.101 1.2 1.466 2.217 3.133 3.05 5a2.04 2.04 0 0 1-.8.5l-.95.35c-.3.1-.566.233-.8.4-.233.166-.384.416-.45.75a20.415 20.415 0 0 0 3 4.25c.566.633 1.15 1.25 1.75 1.85.601.6 1.217 1.2 1.851 1.8.6.566 1.199 1.167 1.8 1.8.6.601 1.184 1.233 1.75 1.9 1.1 1.267 2.05 2.733 2.85 4.4l-.05.05c-.6-.066-1.15-.167-1.65-.3a12.668 12.668 0 0 1-1.449-.45c-.467-.2-.9-.417-1.301-.65a11.424 11.424 0 0 1-1.149-.8c-.367-.3-.717-.616-1.05-.95-.334-.3-.65-.616-.95-.95l-1.8-2.1-.9-1c-.333-.333-.667-.65-1-.95a8.815 8.815 0 0 0-1.05-.899 13.52 13.52 0 0 0-1.15-.75 9.888 9.888 0 0 0-1.35-.601c-.467-.2-.967-.35-1.5-.45-.367-.066-.75-.116-1.15-.149a4.83 4.83 0 0 0-1.2-.05 6.12 6.12 0 0 0-1.35.05l-3.4-4.9-1-1.3c-.366-.434-.716-.85-1.05-1.25-.366-.4-.733-.783-1.1-1.15a17.035 17.035 0 0 0-1.101-1.1c-.399-.333-.8-.65-1.199-.95a8.994 8.994 0 0 0-1.2-.85 9.115 9.115 0 0 0-1.25-.65c-.434-.2-.867-.35-1.3-.45-.334-.1-.65-.183-.95-.25a10.16 10.16 0 0 0-1-.05l-.7.05a6.878 6.878 0 0 0-1.35.25 5.426 5.426 0 0 0-1.351.601l-.05-.05c-.467-1.134-1.066-2.101-1.8-2.9a9.968 9.968 0 0 0-1.25-1.15 21.449 21.449 0 0 0-1.351-1.05l-2.85-1.85c-.5-.334-.967-.65-1.4-.95a21.346 21.346 0 0 1-1.35-1.05l-1.1.649c-.367.2-.684.434-.95.7-.3.3-.533.65-.7 1.05-.167.4-.233.917-.2 1.551.533.166 1.066.35 1.601.55.5.2.983.434 1.449.7l1.4.8c.434.267.866.566 1.3.899.434.301.851.617 1.25.95.4.3.8.617 1.2.95l4.65 4.15c.366.333.767.666 1.199 1 .4.3.817.616 1.25.949.4.301.817.601 1.25.9.434.267.9.533 1.4.8.467.233.95.467 1.45.7.5.233 1.033.434 1.6.6-.066.5-.267.834-.6 1a4.578 4.578 0 0 1-1.25.25c-.467.034-.9.101-1.3.2-.4.101-.684.3-.851.601a10.226 10.226 0 0 0 3.15 2.8 36.2 36.2 0 0 0 1.95 1.05c.666.3 1.366.6 2.1.9a96 96 0 0 1 2.15.85c.699.3 1.383.616 2.05.95a12.985 12.985 0 0 1 3.6 2.45v.05a2.25 2.25 0 0 0-.55.7 3.65 3.65 0 0 0-.3.85 1.64 1.64 0 0 0 0 .8c.033.233.116.467.25.7.133.233.333.434.6.6.267.134.584.217.95.25l.05.051c-.1.333-.283.583-.55.75-.3.133-.65.216-1.05.25l-2.4.05c.2.333.434.666.7 1 .233.333.5.633.8.899.3.266.617.534.95.801.333.267.684.517 1.05.75.334.199.7.416 1.101.649.366.2.75.384 1.149.55l10.05 3.95c.367.2.733.417 1.101.65.366.2.733.434 1.1.7v.05c-1.133 1.1-1.85 2.1-2.149 3-.301.866-.317 1.717-.051 2.55.101.366.267.767.5 1.2.2.434.45.866.75 1.3l1.95 2.9-.05.05h-.2c-.7 0-1.267-.117-1.7-.351-.533-.267-1-.55-1.399-.85a5.3 5.3 0 0 0-1.5-.75 2.376 2.376 0 0 0-1.101-.15c-.333 0-.683.034-1.05.101a10.372 10.372 0 0 0 2.75 3.149c.533.434 1.117.834 1.75 1.2.634.367 1.3.717 2 1.05.7.334 1.4.65 2.101.95.699.267 1.416.55 2.149.851.733.267 1.45.55 2.15.85.7.267 1.399.566 2.1.9l12.2 5.85c.667.333 1.316.684 1.95 1.05.6.334 1.217.7 1.85 1.101v.05c-.366.467-.767.783-1.2.95-.399.133-.8.199-1.199.199h-.4a8.526 8.526 0 0 1-1.799-.399l-1-.351-5.351-2.35-2.1-.7c-.333-.1-.65-.184-.95-.25a4.89 4.89 0 0 0-.95-.1 38.827 38.827 0 0 0 4.801 4.85c.866.733 1.767 1.45 2.699 2.15.9.7 1.834 1.383 2.801 2.05l5.85 3.9a145.62 145.62 0 0 1 5.799 4v.05c-.267.133-.55.25-.85.35-.334.101-.65.15-.95.15h-.1c-.334 0-.667-.017-1-.05a7.203 7.203 0 0 1-1.051-.301c-.366-.133-.75-.267-1.149-.399l-1.2-.601-1.2-.699c-.434-.267-.85-.534-1.25-.801l-9.3-6.649c-.3.166-.6.3-.9.399a5.442 5.442 0 0 1-.899.2h-.4c-.434 0-.85-.066-1.25-.2a3.832 3.832 0 0 1-.8-.3 3.254 3.254 0 0 1-.75-.399 24.749 24.749 0 0 1-1.55-.95c-.5-.4-1.017-.767-1.55-1.101a8.354 8.354 0 0 0-.851-.5c-.3-.166-.6-.316-.899-.449a5.281 5.281 0 0 0-.9-.4c-.333-.1-.667-.184-1-.25a8.623 8.623 0 0 0-1.3-.1c-.3 0-.601.017-.9.05.233 1.2.75 2.149 1.55 2.85.367.367.801.684 1.301.95.466.267.966.517 1.5.75l3.399 1.1c.566.167 1.134.367 1.7.601.533.2 1.05.434 1.55.7a29.53 29.53 0 0 0 4.8 5.899 39.56 39.56 0 0 0 6 4.75c1.101.667 2.233 1.334 3.4 2a87.891 87.891 0 0 0 3.6 1.75c1.2.566 2.45 1.117 3.75 1.65 1.267.5 2.567.983 3.9 1.45 1.3.466 2.634.916 4 1.35l4.1 1.3 16.551 4.95c1.333.434 2.666.9 4 1.4 1.3.466 2.6.966 3.899 1.5v.05c-.333.2-.666.383-1 .55a6.688 6.688 0 0 1-1.1.3 8.635 8.635 0 0 1-1.3.101l-1.101-.101a8.72 8.72 0 0 1-1.3-.2c-.467-.1-.917-.216-1.35-.35l-8.9-3.1c-.5-.167-1-.317-1.5-.45-.533-.167-1.033-.3-1.5-.4-.5-.1-1-.184-1.5-.25a9.998 9.998 0 0 0-1.4-.1c.233.399.5.767.801 1.1.3.334.649.65 1.05.95.366.267.767.517 1.2.75.399.233.85.467 1.35.7.467.166.95.333 1.45.5.467.166.967.333 1.5.5l6.399 1.6 1.5.5c.467.167.934.367 1.4.601.467.199.917.433 1.35.699.4.233.784.5 1.15.801.366.3.7.649 1 1.05.3.366.566.767.8 1.2l-.05.05a15.195 15.195 0 0 1-2.45 0 9.542 9.542 0 0 1-1.05-.25 18.61 18.61 0 0 1-1.45-.45c-.434-.2-.85-.4-1.25-.6a11.422 11.422 0 0 0-1.3-.601c-.434-.2-.866-.383-1.3-.55-.467-.167-.95-.3-1.45-.4-.5-.1-1.05-.149-1.65-.149.4.399.834.816 1.301 1.25.466.366.949.733 1.449 1.1.5.367 1.017.733 1.551 1.101.5.333 1.033.666 1.6 1 .566.3 1.134.616 1.7.949l12.25 6.101c.566.3 1.116.633 1.649 1 .534.333 1.051.684 1.551 1.05.5.333 1 .717 1.5 1.15.466.399.933.816 1.399 1.25l-.05.05a56.538 56.538 0 0 1-2.3-.45c-.8-.2-1.584-.417-2.351-.65a64.752 64.752 0 0 1-4.6-1.8l-2.3-1.1c-.8-.4-1.584-.8-2.351-1.2l-9.5-5.05c-.8-.434-1.616-.834-2.449-1.2-.834-.4-1.667-.783-2.5-1.15a28.466 28.466 0 0 0-2.601-1.05 27.11 27.11 0 0 0-2.6-.95c-.9-.3-1.783-.566-2.65-.8-.899-.233-1.8-.434-2.7-.6 1.101 2.1 2.551 3.866 4.351 5.3 1.8 1.434 3.816 2.65 6.05 3.65 1.134.466 2.3.933 3.5 1.399 1.167.434 2.366.851 3.6 1.25l7.4 2.3.05.051c-.3.6-.616 1.05-.95 1.35-.366.267-.767.45-1.199.55h-.551c-.267 0-.55-.017-.85-.05l-4.95-1.6a38.57 38.57 0 0 1-.85-.2 4.706 4.706 0 0 0-.9-.101l-.55-.05c-.4 0-.783.05-1.15.15 1 1.1 2.167 2.05 3.5 2.85.667.4 1.384.767 2.15 1.101.733.333 1.5.649 2.3.949.767.301 1.566.584 2.4.851.833.233 1.666.483 2.5.75l5.05 1.399c0 .667-.184 1.15-.55 1.45-.2.167-.417.3-.65.4-.267.066-.55.133-.85.2l-3.9.05c.134.467.3.899.5 1.3.167.366.367.684.601.95.466.5 1 .833 1.6 1 .333.066.684.116 1.05.149.267-.033.55-.066.851-.1.333-.066.699-.15 1.1-.25.333-.1.7-.217 1.1-.35l5-1.9c.434-.167.867-.3 1.301-.4a9.206 9.206 0 0 1 1.3-.3c.3-.066.616-.116.95-.149.3-.034.6-.051.899-.051h.7c.033.467 0 .867-.1 1.2a4.01 4.01 0 0 1-.4.851 2.178 2.178 0 0 0-.35.85c-.134.3-.167.667-.101 1.1.8.034 1.601.101 2.4.2.767.101 1.533.217 2.3.351l9.7 1.85c.866.134 1.767.25 2.7.35a72.11 72.11 0 0 0 2.85.25l.05.051c-.066.466-.267.8-.6 1-.334.166-.7.3-1.101.399a1.978 1.978 0 0 0-1 .45c-.267.2-.366.583-.3 1.15a7.417 7.417 0 0 0 1.7.199h.3c.434 0 .867-.017 1.3-.05l1.5-.3 1.4-.3a9.1 9.1 0 0 1 1.3-.3c.367-.067.75-.101 1.15-.101h.05c.4 0 .8.066 1.2.2.366.134.733.35 1.1.65-.467.666-1.116 1.116-1.95 1.35-.433.134-.866.25-1.3.35l-1.399.2c-.5.066-.95.15-1.351.25a6.158 6.158 0 0 0-1.25.4c-.8.267-1.383.75-1.75 1.45.267.199.566.383.9.55.333.166.684.316 1.05.45l2.25.75c.7.3 1.233.767 1.6 1.399.367.634.434 1.566.2 2.8 1.767-.733 3.267-1.699 4.5-2.899a18.496 18.496 0 0 0 3.2-4.3c.434-.801.85-1.634 1.25-2.5.4-.867.767-1.75 1.1-2.65l1.9-5.6h.05c.634 1.466.983 3.05 1.05 4.75 0 .833-.033 1.699-.1 2.6-.1.866-.25 1.733-.45 2.6a26.36 26.36 0 0 1-.85 2.601c-.334.866-.7 1.717-1.101 2.55a26.37 26.37 0 0 1-3.05 4.55 19.18 19.18 0 0 1-3.95 3.45 14.016 14.016 0 0 1-4.55 1.95c.2.767.367 1.533.5 2.3.101.767.167 1.517.2 2.25.033.7.033 1.417 0 2.15a37.79 37.79 0 0 1-.25 2.05 54.46 54.46 0 0 1-.45 1.95 16.855 16.855 0 0 1-1.4 3.6 86.78 86.78 0 0 1-.9 1.65 45.15 45.15 0 0 1-1.05 1.6l-1.2 1.5c-.434.467-.866.917-1.3 1.35-.434.467-.884.9-1.351 1.301l-1.399 1.199c-.467.4-.95.784-1.45 1.15l-1.5 1c-.5.333-.983.65-1.45.95h-.05c-.566-.167-.934-.351-1.1-.55-.2-.233-.25-.483-.15-.75s.3-.567.6-.9c.301-.3.667-.634 1.101-1l1.25-1.1 1.2-1.2c.333-.434.616-.851.85-1.25.2-.434.283-.867.25-1.3a19.172 19.172 0 0 0-1.45-1.75c-.467-.601-.95-1.15-1.45-1.65s-1-.983-1.5-1.45c-.5-.5-1.017-.95-1.55-1.35a48.738 48.738 0 0 0-3.201-2.4l-10.05-6.25c-.6-.366-1.184-.733-1.75-1.1-.566-.4-1.133-.816-1.7-1.25a74.811 74.811 0 0 1-1.649-1.3 24.047 24.047 0 0 1-1.7-1.45l-.25-.05c-.167 0-.3.033-.4.1a.9.9 0 0 0-.3.45c-.066.166-.083.383-.05.649v.75c0 .233-.017.467-.05.7a1.25 1.25 0 0 1-.3.5c-.134.134-.317.2-.551.2h-.05c-.267-.033-.616-.134-1.05-.3-.4-.5-.767-1.033-1.1-1.601a12.014 12.014 0 0 1-.851-1.75 64.415 64.415 0 0 1-.649-1.949 47.444 47.444 0 0 1-.65-2c-.2-.667-.417-1.317-.65-1.95-.267-.634-.533-1.25-.8-1.851-.6-1.166-1.366-2.133-2.3-2.899a.728.728 0 0 0-.45-.05c-.1-.034-.184-.017-.25.05-.166.066-.283.2-.35.399-.033.167-.033.4 0 .7l.2 1.7c.033.267.017.517-.051.75a.615.615 0 0 1-.3.45c-.1.033-.217.05-.35.05a2.34 2.34 0 0 1-.45-.05c-.434.033-.85.066-1.25.1-.366 0-.7-.033-1-.1a5.735 5.735 0 0 1-.9-.25 3.258 3.258 0 0 1-.75-.4c-.466-.3-.85-.666-1.149-1.1-.3-.467-.566-.95-.8-1.45l-.65-1.6c-.2-.567-.417-1.101-.65-1.601a11.668 11.668 0 0 0-.75-1.45c-.3-.466-.666-.85-1.1-1.149a55.222 55.222 0 0 1-2.2-.55c-.7-.267-1.383-.551-2.05-.851-.7-.333-1.366-.7-2-1.1-.667-.4-1.3-.834-1.9-1.3-.633-.5-1.25-1-1.85-1.5a41.383 41.383 0 0 1-1.75-1.65 86.178 86.178 0 0 1-3.45-3.651l-3.45-3.75a84.152 84.152 0 0 0-1.75-1.899 91.132 91.132 0 0 0-1.75-1.8 75.82 75.82 0 0 0-1.85-1.7 41.3 41.3 0 0 0-1.9-1.601c-.666-.5-1.333-.966-2-1.399a18.508 18.508 0 0 0-2.05-1.25c-.399.533-.633 1.066-.7 1.6-.066.233-.1.483-.1.75 0 .233.033.483.1.75.101.467.267.95.5 1.45.233.467.517.95.851 1.45l1.8 3.2c.134.267.25.55.35.85l.2.9c.033.3.066.633.101 1l-.101 1a8.67 8.67 0 0 0-.649.1c-.667-.033-1.167-.2-1.5-.5a2.982 2.982 0 0 1-.95-1.55l-.7-1.8c-.267-.567-.667-.967-1.2-1.2a3.54 3.54 0 0 0-.7 1.3c-.166.467-.233.95-.199 1.45 0 .233.033.483.1.75.033.267.083.533.15.8.1.5.267 1.017.5 1.55l1.3 3.15c.2.533.383 1.05.55 1.55.134.467.233.934.3 1.4l-.05.05a10.32 10.32 0 0 1-1.2-.351c-.366-.133-.7-.3-1-.5a6.42 6.42 0 0 1-1.55-1.449c-.2-.267-.4-.567-.6-.9l-.5-1a7.119 7.119 0 0 1-.4-1.1l-1.7-5.801c-.133-.366-.267-.733-.399-1.1a10.263 10.263 0 0 0-.45-1.05 5.915 5.915 0 0 0-.55-.9c-.2-.3-.4-.566-.601-.8-.2.833-.35 1.717-.45 2.65-.1.933-.133 1.916-.1 2.949.033 1.067.083 2.15.15 3.25.1 1.067.233 2.167.399 3.301l2 12.75-.05.05c-1.267-1.267-2.233-2.816-2.9-4.65a26.806 26.806 0 0 1-.85-2.899 29.25 29.25 0 0 1-.65-3.15 88.585 88.585 0 0 1-.449-3.3c-.134-1.101-.25-2.217-.351-3.351-.1-1.166-.217-2.3-.35-3.399a156.341 156.341 0 0 1-.45-3.3 6.66 6.66 0 0 1-.25-.45 1.1 1.1 0 0 0-.3-.351c-.167-.166-.351-.25-.55-.25h-.15c-.167 0-.35.034-.55.101a5.593 5.593 0 0 0-.7.25l-.7.35a5.3 5.3 0 0 1-.7.15h-.05c-.2 0-.383-.05-.55-.15-.2-.133-.366-.35-.5-.649-.3-3.9-.833-7.551-1.6-10.95-.767-3.4-1.75-6.566-2.95-9.5a60.449 60.449 0 0 0-4.2-8.3 66.37 66.37 0 0 0-5.2-7.15c-.366.934-.467 2.05-.3 3.35.066.667.184 1.351.35 2.051.134.699.317 1.416.551 2.149l1.3 4.4c.233.7.45 1.383.649 2.05.167.667.317 1.3.45 1.9l-.05.05c-1.7-1.334-3.1-2.95-4.2-4.851-1.1-1.933-2-4.033-2.7-6.3a68.096 68.096 0 0 1-1.1-3.399c-.333-1.2-.65-2.384-.95-3.551a234.664 234.664 0 0 0-1-3.5 82.224 82.224 0 0 0-1.05-3.399l-1.2.3c-.399.066-.833.134-1.3.2l-2.7.25c-.467.066-.883.149-1.25.25a5.41 5.41 0 0 0-1.1.399 2.782 2.782 0 0 0-1.4 1.551l-.05.05c-.967-.8-1.733-1.8-2.3-3-.3-.601-.55-1.233-.75-1.9-.2-.666-.367-1.366-.5-2.1-.167-.733-.283-1.5-.351-2.3a57.574 57.574 0 0 1-.149-2.45 68.34 68.34 0 0 1-.05-2.601c0-.899.033-1.8.1-2.699-.3-.367-.6-.717-.9-1.051a14.131 14.131 0 0 0-1.05-.949c-.399-.334-.8-.634-1.2-.9-.433-.267-.866-.5-1.3-.7-.467-.2-.916-.366-1.35-.5a6.878 6.878 0 0 0-1.4-.25l-.6-.05c-.367 0-.733.033-1.101.1a3.911 3.911 0 0 0-1.05.351l-.05-.05a6.397 6.397 0 0 1-.35-1.051l-.301-1.25c-.1-.433-.183-.883-.25-1.35-.1-.467-.166-.95-.199-1.45a9.607 9.607 0 0 1 0-1.399c0-.467.05-.917.149-1.351.066-.434.184-.833.351-1.2.133-.366.333-.683.6-.949-.033-.4-.134-.717-.3-.95a1.749 1.749 0 0 0-.65-.55 3.36 3.36 0 0 0-.899-.351l-1.051-.2c-.333-.1-.649-.199-.949-.3a2.34 2.34 0 0 1-.801-.5 1.37 1.37 0 0 1-.449-.8c-.067-.366-.051-.8.05-1.3-.367-.167-.667-.233-.9-.2-.233-.033-.416.017-.55.15a.895.895 0 0 0-.3.449 2.688 2.688 0 0 0-.15.551 3.925 3.925 0 0 0-.149.6c-.101.2-.217.35-.351.45-.133.133-.316.2-.55.2-.267 0-.6-.067-1-.2v-12c-.467-.2-.9-.45-1.3-.75s-.783-.634-1.15-1a7.511 7.511 0 0 1-1-1.25c-.333-.467-.633-.95-.899-1.45a24.329 24.329 0 0 1-.75-1.65c-.267-.6-.483-1.216-.65-1.85a22.658 22.658 0 0 1-.6-2c-.167-.7-.334-1.417-.5-2.15a24.902 24.902 0 0 1-.4-2.199 48.933 48.933 0 0 1-.35-2.351l-1.4-14.35a9.24 9.24 0 0 0-.9-.05c-.6-.034-1.1.033-1.5.199a3.03 3.03 0 0 0-1.549 1.1c-.2.233-.35.5-.45.8-.166.3-.283.634-.35 1-.1.333-.167.7-.2 1.1-.066.367-.1.767-.1 1.2l.25 8.15v1.3c-.066.4-.117.783-.15 1.15-.366 0-.684-.067-.95-.2a2.462 2.462 0 0 1-.649-.45c-.2-.2-.367-.417-.5-.65a8.423 8.423 0 0 1-.351-.8 32.107 32.107 0 0 1-.649-1.6 3.869 3.869 0 0 0-.9-1.25c-.2.533-.35 1.066-.45 1.6a15.295 15.295 0 0 0-.3 1.7c-.067.566-.1 1.167-.1 1.8a35.607 35.607 0 0 0 .2 3.75c.066.634.149 1.267.25 1.9l1.85 11.55c.066.6.1 1.2.1 1.8v1.7c-.033.566-.1 1.116-.199 1.65-.101.5-.217 1-.351 1.5l-.05.05a5.59 5.59 0 0 1-1.35-1.3 19.84 19.84 0 0 0-.5-.851l-.4-.899-.3-1-1.601-7.601c-.1-.366-.199-.7-.3-1-.133-.3-.283-.6-.45-.899a5.338 5.338 0 0 0-1.1-1.45c-.267.467-.5.967-.7 1.5-.2.533-.366 1.1-.5 1.7-.133.6-.25 1.233-.35 1.899-.134.634-.217 1.3-.25 2l-.45 4.05c-.1.667-.2 1.317-.3 1.95-.134.634-.267 1.25-.4 1.851l-.05.05c-1.134-1.934-1.9-3.917-2.3-5.95-.4-2.066-.55-4.167-.45-6.3.033-1.101.116-2.184.25-3.25a36.97 36.97 0 0 1 .55-3.351c.2-1.1.434-2.216.7-3.35.233-1.134.483-2.267.75-3.4l1.6-6.8c.233-1.133.45-2.25.65-3.35.2-1.167.366-2.3.5-3.4s.217-2.2.25-3.3c0-1.1-.033-2.184-.1-3.25a22.734 22.734 0 0 0-1.4-6.3c-1.233.133-2.167.6-2.8 1.399-.634.767-1.084 1.717-1.351 2.851l-.8 3.5c-.1.566-.233 1.133-.399 1.7-.2.533-.4 1.033-.601 1.5-.866-.134-1.434-.417-1.7-.851s-.35-.95-.25-1.55a8.797 8.797 0 0 1 .4-1.799l.5-1.8c-.233-.4-.434-.667-.6-.801a.896.896 0 0 0-.45-.149h-.15c-.2.066-.383.184-.55.35-.233.167-.45.351-.65.55l-.6.601c-.233.166-.45.283-.65.35l-.25.05a3.553 3.553 0 0 1-.449-.149c-.233-.134-.45-.384-.65-.75.1-.7.267-1.334.5-1.9.2-.633.434-1.2.7-1.7.233-.533.517-1.05.85-1.55.3-.5.617-.967.95-1.399l2.05-2.7c.334-.434.667-.884 1-1.351.334-.5.65-.983.95-1.449.033-5.134.15-10.184.35-15.15.2-4.967.5-9.816.9-14.55.4-4.767.866-9.483 1.4-14.15a400.815 400.815 0 0 1 1.8-13.7c.399-3 .85-5.983 1.35-8.949.467-3 .967-5.967 1.5-8.9.5-2.934 1.017-5.833 1.55-8.7l5.15-25.899a10.684 10.684 0 0 0-1.05-.851c-.367-.3-.733-.55-1.101-.75a8.834 8.834 0 0 0-1.1-.6c-.4-.2-.783-.367-1.15-.5l-6.85-1.95-1.1-.4a29.935 29.935 0 0 1-1.051-.5 16.936 16.936 0 0 1-1-.649 6.63 6.63 0 0 1-.899-.75 5.675 5.675 0 0 1-.9-.9 29.04 29.04 0 0 1-.8-1.05c-.1.233-.184.5-.25.8-.1.267-.15.55-.15.851-.033.267-.05.566-.05.899 0 .3.033.601.101.9l.199.95 3 9.35a12.153 12.153 0 0 1 .2 2.151l-.05.05a5.283 5.283 0 0 1-.95-.65 5.742 5.742 0 0 1-.8-.75 4.65 4.65 0 0 1-.7-.899 3.967 3.967 0 0 1-.55-.95 8.064 8.064 0 0 1-.5-1.101 9.411 9.411 0 0 1-.4-1.149l-1.949-7.45c-.134-.4-.267-.783-.4-1.15a32.76 32.76 0 0 0-.5-1.05c-.167-.366-.35-.7-.55-1-.233-.3-.467-.583-.7-.85h-.6c-.467 0-.9-.033-1.301-.101a7.914 7.914 0 0 1-1.5-.5c-.433-.233-.85-.5-1.25-.8l-1.1-.85a6.798 6.798 0 0 0-1.15-.851 7.901 7.901 0 0 0-1.3-.699 3.448 3.448 0 0 0-.8-.2 6.499 6.499 0 0 0-.85-.15h-.551c-.466 0-.983.05-1.55.15.267 1.366.733 2.55 1.4 3.55.3.5.649.983 1.05 1.45.333.467.7.916 1.1 1.35.4.434.784.9 1.15 1.4.333.467.667.95 1 1.45.634 1.033 1.066 2.283 1.3 3.75l-.05.05a7.567 7.567 0 0 1-1.15-.75c-.366-.267-.716-.55-1.05-.851l-.899-.949c-.334-.334-.634-.65-.9-.95l-.9-1-.949-.95a23.44 23.44 0 0 0-1-.85c-.367-.267-.75-.5-1.15-.7-1.7.066-3.4.184-5.1.35a82.403 82.403 0 0 0-5.101.55c-1.666.233-3.35.5-5.05.801-1.667.267-3.333.566-5 .899l-20 4.05c-1.7.334-3.384.634-5.05.9-1.7.267-3.384.517-5.05.75-1.7.2-3.417.384-5.15.55-1.7.134-3.417.233-5.15.3l-2.85.051a71.93 71.93 0 0 1-3.8-.101c-1.3-.066-2.584-.149-3.851-.25a73.207 73.207 0 0 1-10.8-1.85 2.848 2.848 0 0 0-.05.899c0 .267.017.534.05.801.101.466.25.883.45 1.25.233.366.5.683.8.949.3.301.617.567.95.801l1 .75c.3.267.6.566.9.899.267.3.483.667.649 1.101.167.433.25.933.25 1.5l-.05.05a44.716 44.716 0 0 1-1.2-.2c-.366-.1-.7-.217-1-.35a8.65 8.65 0 0 1-.95-.45c-.3-.2-.566-.4-.8-.601-.5-.399-.95-.85-1.35-1.35l-2.3-3.25a14.532 14.532 0 0 0-1.15-1.55c-.434-.5-.917-.95-1.45-1.351a5.389 5.389 0 0 0-.8-.5c-.3-.166-.616-.3-.95-.399a3.837 3.837 0 0 0-.25 1.6c0 .267.017.55.05.851.067.3.15.6.25.899.067.267.167.566.301.9l3.85 7.649.35 1c.101.334.2.684.301 1.051.066.333.116.666.149 1l-.05.05c-.6-.7-1.184-1.4-1.75-2.101a53.101 53.101 0 0 1-1.65-2.149 88.32 88.32 0 0 1-3-4.601l-5.699-9.55c-.5-.8-1-1.583-1.5-2.35a52.649 52.649 0 0 0-1.551-2.25 61.33 61.33 0 0 0-1.6-2.2c-.6-.7-1.184-1.384-1.75-2.05-.6-.7-1.233-1.351-1.9-1.95a47.82 47.82 0 0 0-2-1.8 26.595 26.595 0 0 0-2.199-1.601c-.766-.5-1.551-.966-2.351-1.399-.166.333-.3.649-.399.95-.067.3-.117.616-.15.949a4.103 4.103 0 0 0 0 .9c.033.299.1.6.2.9.066.3.166.6.3.899.1.3.233.601.4.9l3.35 5.45c.167.3.333.616.5.949l.4 1a10.071 10.071 0 0 1 .399 2.051l-.05.05a14.922 14.922 0 0 1-4.2-4.351 27.221 27.221 0 0 1-1.55-2.699 46.44 46.44 0 0 1-1.3-2.95l-2.351-6.15a36.673 36.673 0 0 0-1.199-3.05c-.467-.967-.934-1.9-1.4-2.8-.634-.2-1.217-.434-1.75-.7a18.21 18.21 0 0 1-1.6-.85c-.5-.301-.983-.634-1.45-1-.467-.334-.917-.7-1.351-1.101-.433-.399-.85-.8-1.25-1.2l-1.199-1.199-2.301-2.601c-.366-.434-.75-.85-1.149-1.25a41.503 41.503 0 0 0-1.25-1.2c-.4-.399-.816-.783-1.25-1.149-.467-.4-.934-.75-1.4-1.05-.5-.334-1-.65-1.5-.95-.533-.3-1.083-.55-1.649-.75a9.261 9.261 0 0 0-1.851-.601 10.634 10.634 0 0 0-2.05-.399c-.366.133-.6.333-.7.6-.133.267-.166.584-.1.95.066.333.217.7.45 1.1.199.367.433.717.699 1.051.267.3.551.566.851.8.3.2.566.333.8.399l.05.051c-.434.133-.85.216-1.25.25a3.299 3.299 0 0 0-.55-.051 8.63 8.63 0 0 1-.9-.25 8.164 8.164 0 0 1-.8-.35 8.713 8.713 0 0 1-1.649-1.15l-4.7-4.85a20.613 20.613 0 0 0-1.601-1.45 7.616 7.616 0 0 0-1.6-1.1l-.25-.05c-.167 0-.3.033-.4.1a.9.9 0 0 0-.3.45c-.066.166-.083.383-.05.649v.75c0 .233-.017.467-.05.7a1.25 1.25 0 0 1-.3.5c-.134.134-.317.2-.551.2h-.05c-.267-.033-.616-.134-1.05-.3a20.857 20.857 0 0 1-1.5-1.45c-.5-.5-.967-1-1.4-1.5l-1.399-1.5c-.434-.5-.884-.967-1.351-1.4-.5-.433-1-.816-1.5-1.149a6.92 6.92 0 0 0-.85-.45c-.267-.167-.55-.3-.85-.4a9.309 9.309 0 0 0-.9-.25 5.139 5.139 0 0 0-1-.1h-.4c-.3-.033-.6-.017-.899.05-.3.033-.617.084-.95.15a36.067 36.067 0 0 1-4-7l-1.75-.5a4.59 4.59 0 0 0-1.25-.2c-.366 0-.767.066-1.2.2l-1.75.5a11.433 11.433 0 0 1-2.35-3.25l-1.75-3.75c-.3-.634-.601-1.233-.9-1.8a36.165 36.165 0 0 0-1.1-1.7 7.962 7.962 0 0 0-2.95-2.5l-.15-.05c-.166 0-.3.066-.399.199-.2.167-.334.417-.4.75-.133.301-.2.65-.2 1.051-.033.399-.033.8 0 1.199.034.367.117.717.25 1.051.101.267.233.483.4.649l.5.101v.05h-.3a1.61 1.61 0 0 1-.25-.101 5.52 5.52 0 0 1-.9-.35c-.3-.134-.583-.3-.85-.5-.5-.366-.95-.816-1.351-1.35a40.598 40.598 0 0 1-.55-.851 8.824 8.824 0 0 1-.5-.95l-3.25-8.949c-.166-.367-.333-.7-.5-1-.2-.334-.383-.65-.55-.95a70.158 70.158 0 0 1-.75-1.05c-.267-.367-.533-.7-.8-1l-.9-.9-4.649-4.25a28.193 28.193 0 0 1-1.75-1.7c-.301-.3-.567-.583-.801-.85-.267-.334-.5-.65-.699-.95a8.028 8.028 0 0 1-.601-1 6.125 6.125 0 0 1-.5-1.05c-.133-.367-.25-.733-.35-1.101a6.253 6.253 0 0 1-.2-1.149h-4l-1.85-8.351a57.96 57.96 0 0 1-.45-1.3 14.47 14.47 0 0 0-.55-1.25 12.302 12.302 0 0 0-.551-1.149c-.233-.367-.449-.7-.649-1a6.756 6.756 0 0 0-1.601-1.5c-.3-.2-.6-.351-.899-.45a3.695 3.695 0 0 0-1.05-.25c-.2-.033-.384-.05-.551-.05-.3 0-.6.017-.899.05-.3.066-.617.149-.95.25l-.6-16.95a17.753 17.753 0 0 0-.25-1.5c-.134-.5-.25-.967-.351-1.4-.166-.433-.333-.85-.5-1.25-.2-.399-.399-.767-.6-1.1-.233-.366-.5-.7-.8-1a5.205 5.205 0 0 0-.9-.8v-.05a6.23 6.23 0 0 0 1.1-1.5c.167-.301.317-.601.45-.9.101-.333.217-.667.351-1 .1-.333.199-.684.3-1.05l.6-4.7.2-7.8c-.5.1-.95.2-1.35.3-.434.134-.851.267-1.25.4-.4.133-.767.3-1.101.5-.366.166-.717.35-1.05.55l-3.55 2.5c-.566.399-1.117.783-1.65 1.149-.3.2-.583.384-.85.551l-.9.399c-.3.134-.616.25-.95.351-.333.1-.666.183-1 .25a8.95 8.95 0 0 1-1.35.1c-.333-.033-.667-.05-1-.05-1.3-.134-2.5-.5-3.6-1.101a42.98 42.98 0 0 1-1.601-1.05 13.899 13.899 0 0 1-1.5-1.3c-.5-.5-.967-1-1.399-1.5-.5-.566-.967-1.134-1.4-1.7l-1.3-1.8a60.1 60.1 0 0 1-1.25-1.9l-2.5-3.85a90.982 90.982 0 0 0-1.3-1.85 42.568 42.568 0 0 0-1.301-1.801c-.433-.566-.883-1.1-1.35-1.6a19.698 19.698 0 0 0-1.4-1.45 11.386 11.386 0 0 0-1.449-1.149 13.31 13.31 0 0 0-1.601-.95c.134 1.1.316 2.217.55 3.35.233 1.134.534 2.283.9 3.45.333 1.167.733 2.35 1.2 3.55.434 1.2.916 2.4 1.45 3.601.5 1.199 1.05 2.433 1.649 3.699a126.227 126.227 0 0 0 1.8 3.75l7.75 15.351 1.801 3.899a99.508 99.508 0 0 1 1.699 3.9c.5 1.267.983 2.566 1.45 3.9.467 1.267.884 2.55 1.25 3.85a70.69 70.69 0 0 1 .9 3.85c.267 1.267.467 2.534.6 3.801.101 1.066.15 2.1.15 3.1 0 .967-.066 1.9-.2 2.8-.1.9-.25 1.767-.45 2.601a40.155 40.155 0 0 1-.75 2.399c-.3.733-.616 1.467-.95 2.2-.366.733-.75 1.45-1.149 2.15a65.517 65.517 0 0 1-2.601 4l-2.8 3.949a32.5 32.5 0 0 0-1.35 2.101c-.467.7-.9 1.416-1.3 2.149a21.824 21.824 0 0 0-1.2 2.351c-.367.8-.7 1.633-1 2.5a15.803 15.803 0 0 0-.8 2.7 39.976 39.976 0 0 0-.601 3 6.6 6.6 0 0 0 1.9 2.05l1.2.8c.399.233.833.467 1.3.7l1.3.7c.4.233.816.5 1.25.8.4.233.767.517 1.1.85.334.334.65.7.95 1.101-.3.3-.633.483-1 .55h-.45c-.267 0-.517-.017-.75-.05a21.671 21.671 0 0 1-1.399-.351l-1.4-.5a8.391 8.391 0 0 0-1.45-.35c-.3-.033-.566-.05-.8-.05-.2 0-.383.017-.55.05a2.12 2.12 0 0 0-1.2.5c-.399.267-.733.666-1 1.2.4 1.233.983 2.3 1.75 3.199.367.434.783.867 1.25 1.301.4.399.851.767 1.351 1.1l2.899 2.1c.467.334.934.7 1.4 1.101.467.366.899.75 1.3 1.149.833-.233 1.65-.416 2.45-.55a19.34 19.34 0 0 1 2.3-.25l1.25-.05c.533 0 1.05.033 1.55.1.5 0 1 .051 1.5.15.667.1 1.334.233 2 .4.667.133 1.316.316 1.95.55.634.2 1.283.416 1.95.649.633.233 1.267.483 1.899.75l7.9 3.25c.667.267 1.366.5 2.1.7.733.233 1.483.434 2.25.601.767.166 1.567.316 2.4.449.8.101 1.634.184 2.5.25.667.767 1.366 1.5 2.1 2.2.734.7 1.483 1.384 2.25 2.05.733.634 1.517 1.25 2.351 1.851.8.6 1.633 1.184 2.5 1.75.866.533 1.767 1.05 2.7 1.55.933.467 1.883.934 2.85 1.4.967.399 1.983.8 3.05 1.199 1.033.367 2.101.7 3.2 1 2.5 3 5.15 5.867 7.95 8.601l8.35 8.149c2.8 2.7 5.467 5.551 8 8.551a63.956 63.956 0 0 1 6.75 9.75l-.05.05-.45-.05c-.2 0-.366.017-.5.05-.233.1-.45.217-.649.35l-.601.4c-.2.133-.45.217-.75.25.434.899.867 1.866 1.3 2.899.4 1.034.801 2.101 1.2 3.2.4 1.134.783 2.3 1.15 3.5.333 1.167.666 2.384 1 3.65.333 1.267.633 2.55.899 3.85.233 1.3.467 2.617.7 3.95.2 1.333.367 2.684.5 4.05.101 1.367.184 2.733.25 4.101a54.934 54.934 0 0 1-.05 4.05 80.377 80.377 0 0 1-.3 4 39.126 39.126 0 0 1-1.65 7.7l-.05.05c-.566-.267-1-.584-1.3-.95a2.467 2.467 0 0 1-.55-1.2 4.467 4.467 0 0 1-.051-1.5l.101-.8.95-4.6.1-1c.033-.334.05-.667.05-1l-.1-1-.2-1c-.134-.334-.267-.567-.4-.7a.856.856 0 0 0-.55-.2c-.2 0-.399.05-.6.15l-.7.3-.7.3c-.267.1-.517.15-.75.15a1.99 1.99 0 0 1-.7-.25c-.233-.134-.433-.367-.6-.7.2-.967.366-1.884.5-2.75.134-.9.2-1.783.2-2.65 0-.866-.05-1.717-.15-2.55a21.343 21.343 0 0 0-.35-2.55c-.2-.867-.4-1.717-.601-2.55-.233-.867-.5-1.733-.8-2.601l-1.8-5.35a8.824 8.824 0 0 0-.9 1.05c-.266.366-.5.733-.699 1.1-.2.367-.351.75-.45 1.15-.167.366-.283.75-.351 1.15-.066.399-.116.8-.149 1.199-.033.4-.033.801 0 1.2 0 .4.017.816.05 1.25.066.4.134.816.2 1.25l1.95 7.9c.066.434.149.883.25 1.35.066.467.116.917.149 1.351l-.05.05c-.434-.5-.8-.867-1.1-1.101-.334-.267-.65-.416-.95-.449h-.25a1 1 0 0 0-.55.05c-.267.1-.534.217-.801.35l-.85.45c-.3.134-.616.233-.95.3-.166 0-.316.017-.45.05l-.699-.1c-.4-.066-.851-.25-1.351-.55a5.494 5.494 0 0 0-.3 1.05 5.063 5.063 0 0 0-.2 2c0 .333.033.667.101 1l.149 1c.066.333.167.667.3 1l1.9 6.55c.066.4.134.816.2 1.25.033.4.05.834.05 1.3 0 .434-.017.884-.05 1.351-.033.467-.084.95-.15 1.45l-.05.05c-.366-.066-.667-.184-.9-.351a2.234 2.234 0 0 1-.55-.699 5.354 5.354 0 0 1-.399-.9l-.351-.9a4.537 4.537 0 0 0-.45-.8 1.747 1.747 0 0 0-.649-.55c-.267-.1-.566-.15-.9-.15h-.149c-.233 0-.483.034-.75.101a3.002 3.002 0 0 0-.851.25c-.566.033-.899.267-1 .7-.133.433-.166.983-.1 1.649l.2 1.95v.9c-.034.267-.067.517-.101.75l-.25.05c-.366 0-.666-.05-.899-.15a2.893 2.893 0 0 1-.851-.399 3.642 3.642 0 0 0-.899-.4c-.2-.066-.434-.1-.7-.1l-.4.05a7.627 7.627 0 0 0-.3 1.25c-.067.434-.1.883-.1 1.35 0 .434.017.9.05 1.4.033.5.1 1 .2 1.5l1.949 9.649.2 1.7c.066.533.117 1.084.15 1.65v1.649a14.938 14.938 0 0 1-.2 1.65c-.1.533-.217 1.066-.35 1.6-.167.5-.367 1.017-.601 1.551l-.05.05c-.2-.334-.384-.667-.55-1a7.235 7.235 0 0 1-.4-1.101c-.133-.366-.25-.75-.35-1.149a13.22 13.22 0 0 1-.25-1.25l-.45-5.5c-.434-.167-.767-.25-1-.25h-.1c-.267.033-.45.133-.551.3-.133.134-.216.333-.25.6-.033.267-.05.534-.05.801s-.017.533-.05.8c-.066.267-.15.483-.25.649a.978.978 0 0 1-.65.351h-.1a5.414 5.414 0 0 1-1-.25v-4.9c-.767 1.167-1.316 2.533-1.65 4.101-.166.767-.3 1.6-.399 2.5a33.714 33.714 0 0 0-.2 2.75c0 .933.017 1.916.05 2.949 0 1 .05 2.034.15 3.101l1.2 13.35c.1 1.134.183 2.267.25 3.4l.1 3.35c.033 1.101.033 2.2 0 3.3a90.981 90.981 0 0 1-.25 3.15c-.1 1.033-.25 2.05-.45 3.05-.2.967-.45 1.917-.75 2.851h-.05c-.2-.5-.384-1.034-.55-1.601-.167-.566-.3-1.149-.4-1.75-.1-.6-.184-1.217-.25-1.85-.1-.634-.166-1.283-.2-1.95l-.35-12.4c-.033-.666-.066-1.316-.1-1.949-.067-.667-.134-1.317-.2-1.95-.101-.634-.2-1.233-.3-1.8-.134-.601-.267-1.184-.4-1.75a15.643 15.643 0 0 0-.55-1.5c-.2-.5-.434-.967-.7-1.4-.267.6-.5 1.25-.7 1.95-.233.7-.416 1.434-.55 2.2-.134.766-.267 1.55-.4 2.35a26.428 26.428 0 0 0-.3 2.4c-.1.8-.217 1.6-.35 2.399l-.4 2.4c-.133.767-.3 1.5-.5 2.2a27.826 27.826 0 0 1-.75 2l-.05.05a4.207 4.207 0 0 1-.6-1.15 6.461 6.461 0 0 1-.351-1.25 5.987 5.987 0 0 1-.149-1.35c0-.467.017-.934.05-1.4.066-.467.133-.95.2-1.45.066-.5.166-.983.3-1.449l1.3-5.95c.066-.5.134-.967.2-1.4.033-.467.05-.916.05-1.35a13.932 13.932 0 0 0-.15-1.25 8.49 8.49 0 0 0-.35-1.101 5.127 5.127 0 0 0-1.5-1.899c-.4.434-.767.899-1.1 1.399-.367.5-.7 1.034-1 1.601a16.887 16.887 0 0 0-.851 1.75 33.12 33.12 0 0 0-.75 1.95c-.233.666-.434 1.35-.6 2.05-.2.7-.367 1.434-.5 2.2-.134.733-.267 1.483-.4 2.25-.133.767-.233 1.55-.3 2.35l-.45 18.4-.05.05a5.572 5.572 0 0 1-.6-.7 3.644 3.644 0 0 1-.5-.75c-.134-.3-.25-.6-.351-.9a4.544 4.544 0 0 1-.3-.949 12.931 12.931 0 0 1-.15-1.101c-.066-.366-.1-.75-.1-1.149v-2.45c-.434-.167-.767-.25-1-.25h-.1c-.267.033-.45.133-.551.3-.133.134-.216.333-.25.6-.033.267-.05.534-.05.801s-.017.533-.05.8c-.066.267-.15.483-.25.649a.978.978 0 0 1-.65.351h-.1a5.414 5.414 0 0 1-1-.25v-4.95c-.4.366-.75.767-1.05 1.2-.3.433-.566.916-.8 1.45-.233.533-.434 1.1-.601 1.699a27.414 27.414 0 0 0-.45 1.9c-.1.634-.183 1.3-.25 2-.1.7-.149 1.417-.149 2.15l.149 14.05c0 .767-.017 1.533-.05 2.3-.033.733-.066 1.45-.1 2.15-.066.699-.15 1.399-.25 2.1-.134.667-.267 1.3-.4 1.9l-.05.05c-.267-.3-.517-.601-.75-.9a10.627 10.627 0 0 1-.6-.95 9.75 9.75 0 0 1-.45-1.05 7.183 7.183 0 0 1-.3-1.05 7.41 7.41 0 0 1-.2-1.15 15.728 15.728 0 0 1-.15-1.149l.45-12.75a4.915 4.915 0 0 0-1.65 1.85 4.965 4.965 0 0 0-.55 1.2c-.166.434-.283.9-.35 1.4a16.86 16.86 0 0 0-.25 1.5c-.066.5-.117 1.033-.15 1.6l-.149 6.95c-.034.6-.084 1.2-.15 1.8l-.2 1.7a24.21 24.21 0 0 1-.35 1.649l-.5 1.601c-.2.467-.434.934-.7 1.399-.3.467-.616.9-.95 1.301.101.366.167.767.2 1.199-.033.434-.083.851-.15 1.25-.066.4-.166.733-.3 1-.133.267-.25.434-.35.5-.167 0-.283-.133-.351-.399-.1-.3-.133-.816-.1-1.55-.1-1.467-.167-2.9-.2-4.301a55.61 55.61 0 0 1 .05-4.1c.034-1.333.084-2.65.15-3.95.066-1.3.15-2.583.25-3.85l.55-7.75c.066-1.3.117-2.617.15-3.95.033-1.333.05-2.684.05-4.05-.667 0-1.184.133-1.55.399-.4.267-.7.634-.9 1.101a4.85 4.85 0 0 0-.25.75 4.93 4.93 0 0 0-.149.8l-.351 3.65c-.1.566-.233 1.1-.399 1.6-.2.5-.483.9-.851 1.2-.399.267-.916.434-1.55.5v-.05c0-.534.017-1.051.05-1.551.066-.5.134-.966.2-1.399l.5-2.75c.1-.467.184-.934.25-1.4l.1-1.5c.034-.5.051-1.033.051-1.6a35.482 35.482 0 0 0-.15-1.75h-.3c-.3-.033-.566.017-.8.149a1.869 1.869 0 0 0-.75.601 3.872 3.872 0 0 0-.601.95l-.45.949a4.07 4.07 0 0 1-.449.851c-.2.233-.4.399-.601.5h-.3c-.167 0-.35-.05-.55-.15-.334-.133-.717-.416-1.15-.85-.166.366-.316.767-.45 1.2-.1.399-.183.833-.25 1.3-.1.467-.166.95-.199 1.45-.067.466-.101.966-.101 1.5v6.5l-.05.05h-.4c-.966 0-1.8.217-2.5.649-.8.5-1.449 1.233-1.949 2.2-.233.467-.45.983-.65 1.55a10.28 10.28 0 0 0-.55 1.801c-.167.633-.316 1.3-.45 2-.134.699-.25 1.416-.35 2.149l-1.051 9.101c-.1.733-.216 1.449-.35 2.149a43.222 43.222 0 0 1-.45 2c-.166.634-.35 1.233-.55 1.8a37.896 37.896 0 0 1-.7 1.601h-.05c-.5-.4-.884-.851-1.15-1.351a5.235 5.235 0 0 1-.449-1.649 8 8 0 0 1-.051-.9c0-.333.017-.666.051-1l1.6-8.899a11.753 11.753 0 0 0 0-2.151 43.983 43.983 0 0 0-2.4 3.7 52.57 52.57 0 0 0-2.149 3.8 52.67 52.67 0 0 0-3.351 8.35c-.899 2.934-1.533 6.067-1.899 9.4-.367 3.3-.417 6.85-.15 10.65-.467.199-.833.316-1.1.35h-.05c-.233 0-.417-.066-.551-.2a.9.9 0 0 1-.25-.5 4.994 4.994 0 0 1-.05-.7v-.75c0-.267-.033-.483-.1-.649a.89.89 0 0 0-.3-.45.625.625 0 0 0-.351-.1l-.25.05-6 20.95c-.5-.101-.866-.217-1.1-.351-.3-.166-.5-.333-.601-.5a1.148 1.148 0 0 1-.199-.649c0-.2.033-.434.1-.7l.55-1.7.2-1a5.577 5.577 0 0 0 0-1.05c-.934.434-1.634 1.033-2.1 1.8a4.06 4.06 0 0 0-.601 1.2 6.205 6.205 0 0 0-.35 1.399c-.066.467-.101.967-.101 1.5a13.76 13.76 0 0 0 0 1.65l.7 6.85.101 1.65c0 .5-.017 1-.051 1.5-.066.5-.149.967-.25 1.4-.133.433-.283.85-.449 1.25-.4.733-1.017 1.333-1.851 1.8l-.05-.05c-.066-.4-.1-.834-.1-1.301 0-.466.017-.933.05-1.399l.1-2.9c0-.467-.033-.883-.1-1.25a4.344 4.344 0 0 0-.3-1.05c-.301-.6-.834-.95-1.601-1.05-.166.5-.316 1.083-.45 1.75l-1.399 13.2c-.066.466-.117.8-.15 1-.166.366-.35.649-.55.85-.2.201-.4.316-.6.35h-.2c-.167 0-.334-.017-.5-.05a6.921 6.921 0 0 1-.7-.35 15.018 15.018 0 0 1-.75-.5l-.65-.55a4.5 4.5 0 0 0-.6-.45 1.22 1.22 0 0 0-.45-.25 36.5 36.5 0 0 0-.7 2.75c-.233.967-.416 1.95-.55 2.95-.166 1-.316 2.017-.45 3.05-.133 1.033-.25 2.1-.35 3.2l-1.1 12.85a103.761 103.761 0 0 1-.45 3.1c-.167 1-.334 1.983-.5 2.95-.2.967-.434 1.9-.7 2.8-.3.9-.6 1.767-.9 2.601a21.026 21.026 0 0 1-2.55 4.5 13.538 13.538 0 0 1-3.75 3.25c-.399.333-.717.75-.95 1.25l-.649 1.649a24.533 24.533 0 0 1-.55 1.65 6.866 6.866 0 0 1-.851 1.45 31.92 31.92 0 0 1-2.5-.2 65.28 65.28 0 0 1-2.5-.35 89.715 89.715 0 0 1-2.55-.551 56.17 56.17 0 0 1-2.55-.75 37.687 37.687 0 0 1-2.5-.899c-.8-.367-1.601-.733-2.4-1.101a69.76 69.76 0 0 1-2.3-1.3 20.591 20.591 0 0 1-2.15-1.5c-1.4-1.033-2.65-2.2-3.75-3.5-1.1-1.3-2-2.717-2.7-4.25a15.412 15.412 0 0 1-1.4-4.95c-.2-1.8-.117-3.699.25-5.699l.05-.051c.4.134.733.351 1 .65.267.267.483.6.65 1 .167.366.3.783.4 1.25.066.434.133.9.2 1.4l.2 1.399c.067.467.167.917.3 1.351.1.433.25.816.45 1.149.2.334.45.601.75.8a6.164 6.164 0 0 1 1.05-.5c.367-.166.75-.316 1.15-.449l7.55-2.65 1.3-.5c.434-.2.867-.417 1.3-.65.4-.233.817-.466 1.25-.699.4-.267.801-.551 1.2-.851.367-.3.75-.6 1.15-.899l1.1-1.101c.334-.399.667-.816 1-1.25.3-.434.601-.899.9-1.399-.167-.4-.334-.684-.5-.851-.167-.133-.316-.2-.45-.2-.2 0-.384.084-.55.25a3.572 3.572 0 0 0-.5.5l-.601.601c-.233.2-.449.383-.649.55a2.788 2.788 0 0 1-.8.35h-.2a5.295 5.295 0 0 1-.7-.149c.134-.867.283-1.667.45-2.4l1.45-5.95c.166-.566.35-1.133.55-1.699.166-.534.35-1.051.55-1.551.2-.533.417-1.033.65-1.5l.699-1.399c.233-.466.483-.917.75-1.351.267-.466.551-.916.851-1.35.3-.467.6-.917.899-1.35l6.101-7.5c-.101-.367-.217-.634-.351-.801-.166-.166-.333-.267-.5-.3l-.199-.05c-.134 0-.25.017-.351.05-.233.066-.45.15-.649.25l-.75.4c-.233.1-.467.217-.7.35a3.53 3.53 0 0 1-.75.2h-.25c-.167 0-.316-.017-.45-.05v-.05l4.4-5.601 1-1.5c.333-.5.649-1.017.949-1.55.301-.533.584-1.066.851-1.6.267-.567.533-1.15.8-1.75-.1-.367-.2-.634-.3-.801-.101-.166-.217-.267-.351-.3h-.1c-.1 0-.2.033-.3.101a1.22 1.22 0 0 0-.45.25l-.55.399c-.2.134-.4.25-.601.351-.233.1-.449.166-.649.199h-.101a1.35 1.35 0 0 1-.6-.149c.333-.9.717-1.75 1.15-2.55.366-.801.783-1.584 1.25-2.351l2.649-4.55c.467-.767.917-1.533 1.351-2.3.433-.767.866-1.55 1.3-2.351.434-.767.833-1.566 1.2-2.399.366-.834.733-1.684 1.1-2.55a1.27 1.27 0 0 0-.55-.7 1.697 1.697 0 0 0-1-.2c-.4-.033-.717.033-.95.2-.3.166-.45.399-.45.7l-.05.05c-.1-.3-.15-.601-.15-.9 0-.267.017-.55.051-.85.1-.601.267-1.2.5-1.8.133-.301.283-.601.449-.9.134-.333.301-.65.5-.95l5.45-7.1c.434-.566.834-1.084 1.2-1.55a.971.971 0 0 0-.4-.601 1.594 1.594 0 0 0-.699-.25 8.711 8.711 0 0 0-.95-.05c-.334 0-.65-.017-.95-.05v-.05c.066-.634.217-1.2.45-1.7.2-.5.467-.934.8-1.3.333-.367.717-.7 1.15-1a7.465 7.465 0 0 1 1.25-.851l1.3-.8c.434-.3.85-.6 1.25-.9.366-.333.717-.699 1.05-1.1.3-.4.55-.85.75-1.35.267-.367.467-.7.6-1 .101-.301.134-.567.101-.801-.066-.267-.233-.483-.5-.649-.3-.2-.7-.367-1.2-.5v-.05c.467-.4.934-.817 1.4-1.25l1.3-1.301c.399-.466.8-.949 1.2-1.449l1.1-1.5c.367-.5.717-1.017 1.05-1.551.334-.566.667-1.116 1-1.649l3.851-6.65 1-1.6c.333-.566.683-1.101 1.05-1.601.366-.5.75-1 1.149-1.5a12.1 12.1 0 0 1 1.2-1.399c.4-.467.816-.917 1.25-1.351.434-.433.9-.833 1.4-1.199-.3-.334-.617-.551-.95-.65-.267-.134-.55-.2-.85-.2h-.2a3.412 3.412 0 0 0-1.101.3 4.52 4.52 0 0 0-1.1.601c-.366.233-.717.483-1.05.75l-1.9 1.649c-.3.233-.55.434-.75.601-.434-.134-.733-.267-.899-.4-.167-.166-.267-.333-.301-.5-.033-.166.017-.333.15-.5.066-.2.2-.383.4-.55l1.05-1.05c.166-.2.3-.384.399-.55a.958.958 0 0 0 .15-.5c-.134-.367-.25-.617-.35-.75-.134-.167-.284-.25-.45-.25h-.05c-.134-.034-.267 0-.4.1-.2.066-.4.184-.6.35l-.65.4c-.267.134-.517.25-.75.35a3.092 3.092 0 0 1-.75.101h-.1a3.019 3.019 0 0 1-.9-.25c.2-.7.533-1.267 1-1.7a6.23 6.23 0 0 1 1.5-1.1c.267-.167.55-.317.85-.45.301-.167.617-.3.95-.4l3.851-1.399.899-.4.8-.5c.5-.366.95-.8 1.351-1.3.166-.233.316-.5.45-.8.133-.334.25-.667.35-1 .033-.301 0-.517-.1-.65a.911.911 0 0 0-.4-.3 1.404 1.404 0 0 0-.65-.05l-.449-.051-.301.051c-.267-.034-.5-.067-.699-.101-.233-.033-.417-.116-.551-.25-.133-.133-.183-.333-.149-.6 0-.267.1-.617.3-1.05.634-.134 1.25-.267 1.85-.4a18.03 18.03 0 0 0 1.601-.55c.467-.2.916-.4 1.35-.601.4-.233.783-.483 1.15-.75a11.47 11.47 0 0 0 1.8-1.8c.233-.333.467-.684.7-1.05l.6-1.1c.167-.367.334-.75.5-1.15.167-.434.316-.85.45-1.25l1.8-5.45c.167-.467.351-.934.55-1.399.167-.5.367-.983.601-1.45a7.055 7.055 0 0 0-1.5.35 3.385 3.385 0 0 0-1.2.601c-.4.233-.75.5-1.05.8-.334.3-.634.633-.9 1l-1.55 2.2c-.267.366-.533.716-.8 1.05-.3.333-.601.666-.9 1h-.05c-.366-.367-.583-.717-.65-1.05-.1-.367-.1-.717 0-1.051.101-.366.267-.716.5-1.05.233-.333.5-.666.801-1l.899-1.1c.267-.4.533-.783.8-1.15a5.96 5.96 0 0 0 .551-1.25c.1-.434.133-.883.1-1.35-.667.233-1.3.483-1.9.75-.6.233-1.183.517-1.75.85a25.501 25.501 0 0 0-3.199 2l-6.101 4.4-.05-.05c.233-1.2.75-2.367 1.55-3.5.367-.567.8-1.117 1.3-1.65.467-.566.983-1.116 1.551-1.65a27.798 27.798 0 0 1 1.75-1.6 30.528 30.528 0 0 1 1.85-1.6l3.85-3.301a94.298 94.298 0 0 0 1.851-1.699l1.7-1.7a26.272 26.272 0 0 0 1.5-1.851c.433-.6.833-1.216 1.199-1.85.733-1.3 1.2-2.65 1.4-4.05.167-1.434 0-2.95-.5-4.55 3-1.567 5.816-3.301 8.45-5.2a84.304 84.304 0 0 0 3.8-3 164.18 164.18 0 0 0 3.65-3.15c1.166-1.1 2.316-2.217 3.449-3.35l3.351-3.45 6.55-7.1c1.066-1.2 2.15-2.384 3.25-3.551 1.1-1.199 2.2-2.383 3.3-3.55a81.94 81.94 0 0 1 3.4-3.399 79.936 79.936 0 0 1 11.149-9.301 57.12 57.12 0 0 1 8.601-4.949l-1.15-2.301a12.05 12.05 0 0 0-.55-1.149c-.233-.4-.467-.767-.7-1.101a7.096 7.096 0 0 0-.8-.949 7.806 7.806 0 0 0-1-.75 6.443 6.443 0 0 0-1.2-.5 5.607 5.607 0 0 0-1.55-.2c-.533.1-.85.434-.95 1-.066.267-.1.55-.1.85a5.05 5.05 0 0 0 0 1v1c0 .334-.017.65-.05.95-.101.566-.384.967-.851 1.2-.6-.467-.967-1.134-1.1-2-.101-.434-.15-.9-.15-1.4 0-.5.017-1 .05-1.5l.25-3.25a11.03 11.03 0 0 0 0-1.5c0-.5-.033-.95-.1-1.35l-2.6-.101c-.5 0-.95.051-1.351.15-.533.1-.916.366-1.149.8-.101.233-.134.517-.101.851 0 .333.084.75.25 1.25l-.05.05c-2-2.267-4.384-4.134-7.15-5.601-2.767-1.5-5.783-2.733-9.05-3.699-1.666-.467-3.35-.917-5.05-1.351a83.78 83.78 0 0 0-5.2-1.149l-10.649-2.101a118.16 118.16 0 0 1-5.2-1.2c-1.7-.433-3.367-.883-5-1.35-3.3-.967-6.334-2.184-9.101-3.65-2.8-1.5-5.183-3.366-7.149-5.6-2-2.267-3.483-5.033-4.45-8.3-.366.3-.634.616-.8.95a2.97 2.97 0 0 0-.3 1.1c-.067.4-.067.8 0 1.2.066.434.166.866.3 1.3l.399 1.35c.101.434.217.884.351 1.351l.2 1.35c0 .467-.034.917-.101 1.351l-.05.05a8.58 8.58 0 0 1-2-2.8c-.267-.534-.5-1.101-.7-1.7-.2-.601-.366-1.217-.5-1.851a21.05 21.05 0 0 1-.399-2 20.385 20.385 0 0 1-.301-2.05l-.55-4.2c-.1-.699-.217-1.383-.35-2.05-.134-.666-.267-1.316-.4-1.95a22.794 22.794 0 0 0-.55-1.8 24.528 24.528 0 0 0-.75-1.649c-.566-1.034-1.283-1.884-2.15-2.551-.899-.699-2.017-1.166-3.35-1.399-.233.133-.4.316-.5.55-.1.2-.134.45-.1.75-.034.3 0 .65.1 1.05l.55 2.45c.101.434.184.884.25 1.35.033.467.033.95 0 1.45a6.756 6.756 0 0 1-.25 1.351h-.05c-.7-1.834-1.366-3.7-2-5.601a129.69 129.69 0 0 1-1.85-5.8 291.048 291.048 0 0 1-1.75-5.85c-.567-2-1.117-4-1.65-6a412.97 412.97 0 0 1-1.55-6.101c-.5-2.034-.983-4.083-1.45-6.149l-2.75-12.45a2.858 2.858 0 0 0-.65-.101c-.199 0-.35.017-.449.051-.301.066-.517.216-.65.449a1.724 1.724 0 0 0-.3.851c-.066.3-.084.649-.05 1.05 0 .4.033.816.1 1.25l.15 1.25c.033.4.05.783.05 1.15a8.054 8.054 0 0 1-.15 1l-.05.05a19.582 19.582 0 0 1-.75-1 6.597 6.597 0 0 1-.6-1.05c-.2-.4-.384-.801-.551-1.2-.166-.4-.3-.816-.399-1.25-.134-.434-.25-.867-.351-1.3l-1.699-10.15a86.16 86.16 0 0 0-.301-1.35 78.838 78.838 0 0 0-.399-1.351 26.318 26.318 0 0 0-.4-1.2 12.05 12.05 0 0 0-.55-1.149c-.2.233-.384.5-.55.8-.167.267-.3.583-.4.95l-.6 2.1c-.233.7-.601 1.267-1.101 1.7-.199.134-.433.25-.699.35a7.997 7.997 0 0 1-.95.15 4.994 4.994 0 0 0-.7-.05v-.05c.2-.667.384-1.284.55-1.851.167-.633.3-1.233.4-1.8.1-.566.184-1.116.25-1.65.066-.533.116-1.05.149-1.55.034-.5.051-1 .051-1.5s-.017-.967-.051-1.399c-.066-.5-.116-.967-.149-1.4-.066-.467-.15-.917-.25-1.35l-2.95-11.5c0-.534-.167-.851-.5-.95a2.525 2.525 0 0 0-.9-.15l-2.149.25h-.601c-.333 0-.616-.033-.85-.1a3.677 3.677 0 0 1-.25-1c-.067-.367-.1-.75-.1-1.15 0-.399.017-.833.05-1.3 0-.434.033-.884.1-1.35l.75-5.801c.033-.466.05-.916.05-1.35 0-.434-.017-.833-.05-1.2a5.369 5.369 0 0 0-.2-1.1 4.112 4.112 0 0 0-.35-.851c-.333-.533-.817-.883-1.45-1.05a3.53 3.53 0 0 0-.85-.1 6.14 6.14 0 0 0-.75.05c-.3.033-.617.1-.95.2l.1-6.2-.15-1.9c-.1-.566-.217-1.066-.35-1.5-.133-.466-.317-.833-.55-1.1-.233-.3-.517-.467-.85-.5l-.25-.05c-.267 0-.567.083-.9.25l-.05-.05a13.993 13.993 0 0 1-.35-2 39.915 39.915 0 0 1-.15-2.051c0-.733.017-1.449.05-2.149.034-.733.1-1.467.2-2.2.067-.733.183-1.45.35-2.15.1-.733.25-1.466.45-2.199.167-.7.35-1.4.55-2.101.2-.7.417-1.383.65-2.05.233-.7.483-1.366.75-2 .233-.634.5-1.25.8-1.85a41.93 41.93 0 0 1 .8-1.7c.266-.533.55-1.033.85-1.5-.3-.033-.6-.05-.9-.05-.367 0-.716.017-1.05.05-.334.033-.65.083-.95.149-.5.101-.966.25-1.4.45a6.738 6.738 0 0 0-1.35.55c-.433.233-.867.483-1.3.75-.433.233-.867.5-1.3.801l-5.05 3.6c-.433.3-.867.583-1.3.85-.467.233-.917.467-1.35.7-.467.233-.933.434-1.4.601-.5.133-.983.267-1.45.399a10.45 10.45 0 0 1-1 .15 11.75 11.75 0 0 1-2.15 0c-1.367-.167-2.717-.684-4.05-1.55-1.367-.867-2.667-1.983-3.9-3.351-.6-.733-1.183-1.5-1.75-2.3-.6-.8-1.15-1.65-1.65-2.55a27.837 27.837 0 0 1-1.45-2.8c-.467-1-.883-2-1.25-3a26.708 26.708 0 0 1-1-3.15c-.3-1.066-.55-2.15-.75-3.25a22.486 22.486 0 0 1-.45-3.25 35.9 35.9 0 0 1-.15-3.25c.033-2.167.316-4.233.85-6.2.533-1.934 1.35-3.7 2.45-5.3-.867.366-1.75.75-2.65 1.15-.9.399-1.783.816-2.65 1.25l-16.65 8.199c-.934.4-1.883.817-2.85 1.25-.967.4-1.934.784-2.9 1.15-.967.366-1.95.717-2.95 1.05-1 .334-1.983.65-2.95.95-1 .267-2 .517-3 .75-1.033.233-2.05.434-3.05.6a48.302 48.302 0 0 1-6.2.6c-.033.366-.017.717.05 1.05.066.267.183.517.35.75.3.434.683.783 1.15 1.05.467.267.933.55 1.4.851.433.3.783.716 1.05 1.25-.333.366-.667.6-1 .699h-.35c-.267 0-.534-.05-.8-.149a5.475 5.475 0 0 1-1.15-.601l-1.25-.85c-.467-.3-.917-.55-1.35-.75a4.021 4.021 0 0 0-1.35-.45l-.4-.05a1.855 1.855 0 0 0-.95.15c-.467.166-.934.5-1.4 1 .4 3.333 1.15 6.316 2.25 8.949 1.1 2.634 2.45 5.034 4.05 7.2a73.865 73.865 0 0 0 2.5 3.15 45.038 45.038 0 0 0 2.65 3l5.55 5.7v.05c-.466-.2-.917-.4-1.35-.601l-1.2-.699-6.5-4.7c-.3.1-.517.283-.65.55-.167.233-.283.533-.35.9a4.232 4.232 0 0 0-.05 1.149l.1 2.601c0 .399-.017.8-.05 1.199a3.55 3.55 0 0 1-.3.95 1.609 1.609 0 0 1-.65.601c1.5 1.866 2.983 3.767 4.45 5.699 1.467 1.9 2.883 3.834 4.25 5.801 1.4 1.966 2.767 3.983 4.1 6.05a282.22 282.22 0 0 1 3.95 6.2 235.76 235.76 0 0 1 2.5 4.199c.833 1.4 1.667 2.834 2.5 4.301.8 1.433 1.6 2.883 2.4 4.35.767 1.434 1.55 2.9 2.35 4.4a181.367 181.367 0 0 1 2.25 4.449c.767 1.5 1.517 3.017 2.25 4.551l-.05.05a35.527 35.527 0 0 1-1.6-1.601l-1.5-1.8a79.945 79.945 0 0 1-1.55-2 83.99 83.99 0 0 1-1.45-2.2l-12.1-19.699a71.93 71.93 0 0 0-1.6-2.4 129.33 129.33 0 0 0-1.7-2.25 57.718 57.718 0 0 0-1.7-2.1c-.6-.667-1.2-1.317-1.8-1.95-.267.366-.5.733-.7 1.1a4.547 4.547 0 0 0-.55 1.05c-.133.334-.25.684-.35 1.051-.1.333-.15.683-.15 1.05-.033.333-.05.684-.05 1.05s.033.733.1 1.1l1.6 7 .2 1.301.1 1.35v1.45c-.034.467-.083.95-.15 1.45l4.2 2.8c.667.467 1.333.95 2 1.45l2 1.5c.667.5 1.317 1.033 1.95 1.6.6.533 1.216 1.083 1.85 1.65l-.05.05-.6.1-.45-.05c-.4-.066-.833-.2-1.3-.4-.467-.199-.95-.416-1.45-.649l-1.6-.9-3.3-1.85-1.7-.75a7.606 7.606 0 0 0-1.55-.5c-.433.5-.833 1.017-1.2 1.55-.4.5-.767 1.033-1.1 1.6a11.5 11.5 0 0 0-1 1.801c-.267.6-.5 1.267-.7 2 .3.267.617.533.95.8.3.233.633.467 1 .7.367.233.733.449 1.1.649.367.2.75.4 1.15.601l7.25 3.25c.367.199.733.416 1.1.649.367.2.733.434 1.1.7.333.233.667.483 1 .75.3.267.6.55.9.85.267.301.517.617.75.95.233.334.467.7.7 1.101l-.05.05a92.093 92.093 0 0 1-2.4-1c-.8-.334-1.583-.667-2.35-1l-4.55-2.2a50.667 50.667 0 0 0-2.35-1.05 29.17 29.17 0 0 0-2.35-1 52.76 52.76 0 0 0-2.45-.95 32.56 32.56 0 0 0-2.55-.8l-1.1.649c-.367.2-.683.434-.95.7-.3.3-.534.65-.7 1.05-.167.4-.233.917-.2 1.551.167.333.383.649.65.949.233.301.483.584.75.851.267.233.566.467.9.7.333.233.667.449 1 .649l1.1.55c.367.167.75.317 1.15.45l4.75 1.75c.367.134.75.3 1.15.5.367.134.733.3 1.1.5l1 .601c.333.233.65.466.95.699.267.267.534.551.8.851.233.267.467.583.7.95l-.05.05h-.1c-.5 0-1.033-.05-1.6-.15-.566-.133-1.167-.3-1.8-.5-.7-.233-1.4-.5-2.1-.8-.733-.3-1.483-.616-2.25-.95l-4.7-2c-.8-.333-1.567-.633-2.3-.899-.733-.266-1.433-.5-2.1-.7-1.066 1.533-1.75 3.05-2.05 4.55-.333 1.5-.333 2.967 0 4.4.3 1.399.85 2.716 1.65 3.949a14.145 14.145 0 0 0 2.85 3.301c.533.5 1.117.949 1.75 1.35.567.4 1.183.767 1.85 1.1.633.301 1.283.567 1.95.801.633.199 1.284.35 1.95.449 3.6-2.133 7.233-3.616 10.9-4.449 2.8-.634 5.6-.95 8.4-.95l2.5.05c3.6.267 7.184.95 10.75 2.05 3.534 1.066 7 2.467 10.4 4.2 3.4 1.7 6.716 3.616 9.95 5.75 1.6 1.033 3.167 2.1 4.7 3.2 1.566 1.1 3.083 2.217 4.55 3.35a214.345 214.345 0 0 1 4.35 3.351 554.89 554.89 0 0 1 4.1 3.35l7.45 6.15c.3 1.066.634 2.116 1 3.149.334 1 .717 1.983 1.15 2.95.399.934.833 1.884 1.3 2.85.434.9.884 1.801 1.35 2.7l5.801 10.75c.466.9.916 1.834 1.35 2.8.4.934.8 1.9 1.2 2.9a54.393 54.393 0 0 1 1.95 6.3c.233 1.101.449 2.267.649 3.5.167 1.2.3 2.434.4 3.7.066 1.3.1 2.65.1 4.05a66.572 66.572 0 0 1-.25 4.351l-.05.05a4.232 4.232 0 0 1-1.65-1.5 10.85 10.85 0 0 1-.55-1.05c-.166-.367-.3-.75-.399-1.15a17.003 17.003 0 0 1-.25-1.3 19.616 19.616 0 0 1-.15-1.4l-.35-5.95a19.526 19.526 0 0 1-.15-1.399c-.066-.467-.134-.917-.2-1.351-.1-.433-.217-.833-.35-1.199-.167-.4-.334-.767-.5-1.101-.367-.666-.834-1.2-1.4-1.6-.1.3-.184.633-.25 1-.066.333-.116.684-.149 1.05l.149 10.6c0 .467-.017.917-.05 1.351l-.1 1.35c-.067.434-.15.851-.25 1.25l-.301 1.2c-.133.4-.283.783-.449 1.15-.2.366-.4.716-.601 1.05h-.05c-.566-.733-.917-1.65-1.05-2.75a9.95 9.95 0 0 1-.15-1.75c0-.634.017-1.267.05-1.9l.25-4c.034-.666.034-1.3 0-1.899 0-.601-.033-1.167-.1-1.7-.3 0-.566.017-.8.05-.267.033-.5.1-.7.2-.434.133-.833.3-1.2.5-.434.166-.899.3-1.399.399h-.5c-.4 0-.851-.05-1.351-.149l1.55 8.399c.134.7.25 1.417.351 2.15l.2 2.3c.033.767.05 1.584.05 2.45-.033.866-.084 1.75-.15 2.65l-.05.05c-.434-.3-.833-.617-1.2-.95-.366-.366-.7-.75-1-1.15a10.574 10.574 0 0 1-.899-1.25 17.203 17.203 0 0 1-.75-1.35c-.233-.467-.45-.95-.65-1.45a18.55 18.55 0 0 1-.6-1.55l-.9-3.2c-.2.834-.383 1.7-.55 2.601a66.022 66.022 0 0 0-.45 2.75 74.487 74.487 0 0 0-.6 5.85c-.1 1-.167 2.017-.2 3.05l-.15 9.601-.05.05c-.267-.267-.5-.55-.7-.851a3.91 3.91 0 0 1-.55-.949 7.235 7.235 0 0 1-.4-1.101c-.1-.399-.184-.816-.25-1.25a8.831 8.831 0 0 1-.1-1.35c-.033-.5-.033-1 0-1.5a1.732 1.732 0 0 0-.65.55c-.167.233-.3.517-.4.85-.1.301-.184.617-.25.95l-.25 1c-.1.334-.233.634-.4.9a2.246 2.246 0 0 1-.6.649c-.267.167-.6.267-1 .301h-.15c-.367 0-.783-.067-1.25-.2.034 1.2.05 2.383.05 3.55 0 1.134-.017 2.267-.05 3.4-.066 1.133-.133 2.25-.2 3.35-.067 1.066-.15 2.134-.25 3.2a97.632 97.632 0 0 1-.45 3.1c-.167 1-.35 1.967-.55 2.9-.2.967-.434 1.899-.7 2.8-.266.901-.55 1.783-.85 2.65l-.2.05c-.633 0-1.117-.134-1.45-.4-.4-.3-.733-.649-1-1.05a5.488 5.488 0 0 0-.9-1.05c-.367-.334-.867-.5-1.5-.5v-.05c.133-.301.267-.634.4-1 .1-.367.167-.733.2-1.101l.4-3.75c.033-.434.1-.833.2-1.2.066-.399.167-.75.3-1.05.1-.333.25-.633.45-.899a1.012 1.012 0 0 0-.55-.301h-.05c-.2 0-.417.067-.65.2a3.795 3.795 0 0 0-.8.55c-.3.233-.583.517-.85.851-.3.3-.583.633-.85 1l-2.15 2.7-.05 3.05.1.899c.066.567.25 1.051.55 1.45.3.334.75.517 1.35.55l.05.101c-.3.3-.583.649-.85 1.05-.3.4-.583.816-.85 1.25l-.8 1.25c-.3.4-.583.783-.85 1.15-.3.366-.617.683-.95.949a4.998 4.998 0 0 1-1.05.65c-.3.1-.617.15-.95.15h-.3a5.185 5.185 0 0 1-1.45-.45c-.167-.5-.25-.917-.25-1.25 0-.367.05-.667.15-.9.167-.5.45-.883.85-1.149.4-.266.817-.517 1.25-.75.4-.267.717-.601.95-1l-.75-1.7a10.67 10.67 0 0 0-.95-1.5c-.4-.467-.85-.851-1.35-1.15a3.95 3.95 0 0 0-.85-.399 5.218 5.218 0 0 0-1.05-.2c-.3.233-.567.517-.8.85a3.98 3.98 0 0 0-.65 1c-.2.367-.367.767-.5 1.2a8.918 8.918 0 0 0-.3 1.35c-.1.467-.183.95-.25 1.45a18.74 18.74 0 0 0-.15 1.5l-.55 6.25c-.066.5-.15.983-.25 1.45-.1.434-.216.866-.35 1.3-.167.434-.333.834-.5 1.2-.2.366-.434.717-.7 1.05-.5.601-1.15 1.066-1.95 1.4l-.05-.05v-8.9a9.151 9.151 0 0 0-1.75 2.15 7.98 7.98 0 0 0-.7 1.3c-.233.434-.45.883-.65 1.35l-3.95 12-.6 1.4c-.233.467-.467.916-.7 1.35a15.027 15.027 0 0 1-1.6 2.4l-.05-.05a13.28 13.28 0 0 1-.3-1.65 14.716 14.716 0 0 1 .2-3.4 11.78 11.78 0 0 1 .35-1.75 44.94 44.94 0 0 1 .45-1.75c.167-.6.367-1.183.6-1.75l2.35-6.85c.133-.566.267-1.116.4-1.65.1-.533.184-1.05.25-1.55.034-.533.05-1.033.05-1.5-.033-.5-.1-.983-.2-1.45a9.025 9.025 0 0 0-.4-1.35c-.2-.467-.45-.9-.75-1.3-.267.3-.5.633-.7 1-.233.366-.433.75-.6 1.149l-.9 2.551c-.167.433-.333.85-.5 1.25-.2.433-.4.833-.6 1.199-.4.767-.95 1.384-1.65 1.851l-.05-.05a4.372 4.372 0 0 1-.2-.9 4.567 4.567 0 0 1 0-.95c0-.333.017-.649.05-.95.066-.333.15-.666.25-1l4.4-11 .3-1.1.2-1.1a6.381 6.381 0 0 0-.85-.801 17.117 17.117 0 0 0-1-.649l-1.1-.5c-.1.5-.2 1.033-.3 1.6-.133.566-.267 1.15-.4 1.75a40.79 40.79 0 0 1-.55 1.9c-.2.633-.417 1.3-.65 2a48.31 48.31 0 0 1-.75 2c-.267.666-.55 1.35-.85 2.05l-.9 2-1 2c-.367.634-.717 1.25-1.05 1.85-.4.601-.783 1.2-1.15 1.801l-1.2 1.6c-.4.5-.8.983-1.2 1.45-.3-.101-.517-.25-.65-.45s-.25-.417-.35-.65a2.33 2.33 0 0 0-.35-.649c-.133-.167-.35-.25-.65-.25-.5 1.6-.966 3.2-1.4 4.8a328 328 0 0 0-1.25 4.65c-.4 1.533-.767 3.083-1.1 4.649a103.529 103.529 0 0 0-1.8 9.7c-.267 1.7-.5 3.467-.7 5.3a90.55 90.55 0 0 0-.45 5.65c-.133 2-.233 4.066-.3 6.2l-.05.05a7.18 7.18 0 0 1-.6-.9 8.307 8.307 0 0 1-.45-.95c-.133-.366-.25-.733-.35-1.1-.1-.4-.184-.8-.25-1.2l-.85-10.649a10.84 10.84 0 0 0-.25-1.2c-.1-.4-.2-.783-.3-1.15a1.93 1.93 0 0 1-.15-.399c-.466 1.8-1.417 3.833-2.85 6.1a.435.435 0 0 0-.05.2c-.2 1.233-.35 2.5-.45 3.8a36.366 36.366 0 0 0-.2 3.8l-.05 7.65a78.784 78.784 0 0 1 0 3.95c-.034 1.3-.083 2.633-.15 4l-.05.05a10.35 10.35 0 0 1-.7-1.351c-.2-.5-.35-1.017-.45-1.55l-.85-3.2a15.864 15.864 0 0 0-.45-1.5c-.2-.5-.4-.966-.6-1.399a4.906 4.906 0 0 0-1.95-2c-.3.3-.55.616-.75.95a5.798 5.798 0 0 0-.6 1.1c-.167.366-.316.767-.45 1.2a8.772 8.772 0 0 0-.3 1.35c-.066.467-.117.95-.15 1.45-.033.467-.033.967 0 1.5a26.28 26.28 0 0 0 .2 3.1l2.1 11.301-.05.05a3.738 3.738 0 0 1-1.3-.3c-.4-.2-.733-.434-1-.7a6.64 6.64 0 0 1-.75-.9l-.7-.899a4.693 4.693 0 0 0-.75-.851c-.3-.233-.65-.416-1.05-.55a3.474 3.474 0 0 0-1.2-.2h-.25c-.267 0-.567.033-.9.101a7.06 7.06 0 0 0-1.05.3c.534.8 1.034 1.633 1.5 2.5.434.866.833 1.767 1.2 2.7a70.44 70.44 0 0 1 1.05 2.85c.3.967.583 1.967.85 3 .233 1 .45 2.017.65 3.05.167 1.033.317 2.084.45 3.15.133 1.066.25 2.133.35 3.2.1 1.066.167 2.149.2 3.25.034 1.066.067 2.149.1 3.25 0 1.066-.017 2.133-.05 3.199l-1.3 17.801-.05.05c-.433-.066-.8-.2-1.1-.4a2.462 2.462 0 0 1-.7-.85 2.984 2.984 0 0 1-.25-1.25c-.067-.434-.067-.934 0-1.5-.567.1-1.05.25-1.45.45a5.124 5.124 0 0 0-1.25.75c-.367.3-.717.616-1.05.949l-1 1-1.1.9c-.4.267-.833.5-1.3.7-.267.1-.533.184-.8.25-.267.033-.55.066-.85.1l-.55.05-1.6-.149c-.433-.267-.767-.55-1-.851-.267-.333-.433-.649-.5-.949a2.814 2.814 0 0 1-.2-1.051c0-.366.034-.716.1-1.05l.1-1.1c.033-.367.067-.717.1-1.05a7.816 7.816 0 0 0-.15-1 3.53 3.53 0 0 0-.45-.95c-.7.2-1.2.583-1.5 1.149a8.298 8.298 0 0 0-.45.95c-.133.334-.25.684-.35 1.05-.1.334-.217.667-.35 1l-.5.9c-.4.533-1.017.85-1.85.95l-.8.149c-.267 0-.517-.033-.75-.1a4.758 4.758 0 0 1-1.4-.75c-.5-.366-.95-.75-1.35-1.15l-1.2-1.199c-.4-.367-.767-.65-1.1-.851a1.404 1.404 0 0 0-.7-.2h-.2c-.3.067-.567.351-.8.851-.133.233-.25.533-.35.899-.1.367-.2.801-.3 1.301l-.05.05c-.433-.3-.717-.7-.85-1.2-.2-.5-.35-1.017-.45-1.55-.1-.566-.267-1.05-.5-1.45-.267-.434-.667-.7-1.2-.8v-.05c.967-.733 1.667-1.584 2.1-2.551.2-.466.367-.949.5-1.449a8.974 8.974 0 0 0 .25-1.65c0-.566-.017-1.134-.05-1.7-.033-.6-.1-1.2-.2-1.8l-1.3-7.35c-.1-.601-.167-1.184-.2-1.75a13.76 13.76 0 0 1 0-1.65c0-.533.066-1.033.2-1.5.133-.5.317-.967.55-1.4.433-.899 1.15-1.633 2.15-2.199h.05c-.066.399-.117.783-.15 1.149a5.063 5.063 0 0 0 0 1c.033.3.083.601.15.9.034.267.083.533.15.8l.5 1.5c.133.467.25.983.35 1.55.367-.5.867-.883 1.5-1.149l1.9-.801c.333-.133.65-.283.95-.449.267-.2.517-.4.75-.601.467-.434.75-1.066.85-1.899v-1.101a3.324 3.324 0 0 0-.1-.55c-.066-.1-.117-.15-.15-.15-.1 0-.217.051-.35.15l-.4.3c-.167.101-.35.2-.55.3-.2.067-.417.117-.65.15l-.25.05c-.167-.033-.35-.066-.55-.1.033-.467.117-.884.25-1.25.133-.4.3-.75.5-1.05.4-.601.867-1.134 1.4-1.601l1.55-1.45.7-.8.6-.899c-.1-.334-.283-.551-.55-.65-.267-.167-.6-.25-1-.25h-1.5a9.661 9.661 0 0 0-.95-.05v-.05c.467-1.2 1.1-2.233 1.9-3.101.367-.467.767-.899 1.2-1.3.4-.434.816-.85 1.25-1.25l1.2-1.3 1.1-1.4c.633-1 1.067-2.2 1.3-3.6-1.8-.9-3.117-2.25-3.95-4.05a43.305 43.305 0 0 1 1.65-1.851l12.3-12.149c-.233-.567-.517-.983-.85-1.25l-.1-.101-1.9-.149c-.3-.067-.55-.117-.75-.15a2.795 2.795 0 0 0-.5.15 2.885 2.885 0 0 0-.75.3c-.5.2-.983.45-1.45.75-.5.3-.967.6-1.4.899l-2.2 1.601-.05-.05c-.267-.567-.367-1.084-.3-1.551.066-.466.283-.899.65-1.3.3-.399.717-.783 1.25-1.149l3.95-2.45c.733-.934 2.383-2.917 4.95-5.95a5.51 5.51 0 0 1 .4-.45c-.033-.7.067-1.267.3-1.7.3-.633.716-1.149 1.25-1.55l1.5-1.2c.233-.233.433-.483.6-.75.167-.3.317-.616.45-.949-.1-.334-.283-.551-.55-.65-.267-.167-.6-.25-1-.25h-1.5a9.661 9.661 0 0 0-.95-.05v-.05c1.2-2.534 2.583-4.9 4.15-7.101a74.25 74.25 0 0 1 2.4-3.25c.8-1.066 1.633-2.1 2.5-3.1l.4-.45c.5-1.267 1.05-2.184 1.65-2.75.1.1.2.217.3.35l2.75-3.3a262.623 262.623 0 0 0 2.5-3.149c.8-1.067 1.583-2.15 2.35-3.25.2-.733.217-1.233.05-1.5-.2-.301-.533-.467-1-.5h-.55c-.333 0-.65.017-.95.05h-1.55v-.05a8.465 8.465 0 0 1 .65-1.601c.233-.5.5-.983.8-1.45.3-.466.617-.899.95-1.3.3-.434.65-.833 1.05-1.2.367-.399.75-.783 1.15-1.149.367-.367.767-.7 1.2-1l7.8-5.7a34.863 34.863 0 0 0 2.35-2.151c.367-.366.716-.75 1.05-1.149.333-.434.65-.867.95-1.3-.4-.334-.784-.551-1.15-.65-.2-.1-.4-.134-.6-.1a.797.797 0 0 0-.4 0c-.3.066-.6.199-.9.399-.3.2-.6.434-.9.7a19.15 19.15 0 0 0-1 .75c-.333.233-.7.45-1.1.65-.4.199-.833.333-1.3.399h-.5a6.7 6.7 0 0 1-1.1-.1v-.05c.1-.4.317-.684.65-.851l.95-.6c.3-.167.5-.434.6-.8.1-.4.033-.967-.2-1.7-4.933 1.033-8.917 3.033-11.95 6l-.05-.05c.033-.334.133-.667.3-1 .133-.334.3-.65.5-.95.2-.334.434-.65.7-.95.266-.3.55-.6.85-.9.3-.3.633-.6 1-.899.367-.299.75-.601 1.15-.9.367-.3.767-.583 1.2-.85.4-.267.833-.533 1.3-.8l1.35-.851 9.65-4.899c1.833-4.767 4.25-8.934 7.25-12.5 3-3.567 6.45-6.7 10.35-9.4 3.867-2.733 8.05-5.15 12.55-7.25 1.467-.7 2.967-1.384 4.5-2.05a147.19 147.19 0 0 1 4.6-1.95c1.533-.634 3.083-1.25 4.65-1.85a7.646 7.646 0 0 1-1.3-.5c-.434-.2-.833-.417-1.2-.65a8.983 8.983 0 0 1-1.1-.75c-.367-.267-.716-.55-1.05-.85a26.87 26.87 0 0 1-.95-.9l-.9-1-4.15-5.2-.9-.95-.95-.949a7.881 7.881 0 0 0-1.05-.801 8.983 8.983 0 0 0-1.1-.75c-.4-.233-.8-.449-1.2-.649-.033.5-.033 1 0 1.5.034.434.083.866.15 1.3.066.4.15.816.25 1.25.1.4.216.783.35 1.15l.7 2.3c.1.366.2.767.3 1.2.1.399.184.816.25 1.25l-.05.05c-.8-.5-1.433-1.117-1.9-1.851-.267-.399-.5-.8-.7-1.199-.2-.434-.383-.884-.55-1.351l-.9-2.85c-.133-.5-.284-.967-.45-1.4a60.261 60.261 0 0 0-.5-1.35 113.11 113.11 0 0 0-3.55-.15c-1.233-.066-2.5-.1-3.8-.1l-8.05-.05-4.2-.101a166.676 166.676 0 0 1-4.2-.149c-1.434-.067-2.833-.15-4.2-.25a155.659 155.659 0 0 1-4.05-.45 68.06 68.06 0 0 1-3.9-.601c-1.267-.267-2.5-.55-3.7-.85-2.4-.667-4.567-1.533-6.5-2.6-1.934-1.067-3.583-2.4-4.95-4-1.333-1.601-2.3-3.5-2.9-5.7-.533.2-.85.6-.95 1.2-.1.3-.15.633-.15 1a4.61 4.61 0 0 0 .05 1.149l.2 2.351v.1c.033.4.05.783.05 1.15a8.054 8.054 0 0 1-.15 1l-.05.05c-.6-6.434-2.067-11.983-4.4-16.65-2.333-4.666-5.533-8.45-9.6-11.35-.333.2-.567.416-.7.649-.167.2-.25.45-.25.75 0 .267.05.551.15.851.066.3.167.633.3 1l.45 1.05c.1.366.2.75.3 1.15.067.399.1.816.1 1.25a4.527 4.527 0 0 1-.3 1.25l-.05.05c-.5-.2-.833-.55-1-1.05a4.96 4.96 0 0 1-.25-.75 9.019 9.019 0 0 1-.15-.851c-.1-.6-.25-1.116-.45-1.55-.2-.434-.583-.7-1.15-.8-.333.066-.55.233-.65.5-.133.267-.217.6-.25 1a7.9 7.9 0 0 0 0 1.25c0 .399-.017.8-.05 1.2l-.05.05c-.5-.601-.95-1.233-1.35-1.9a14.749 14.749 0 0 1-1.15-2.149c-.367-.767-.7-1.567-1-2.4a33.303 33.303 0 0 1-.9-2.55l-3.05-10.851c-.267-.866-.533-1.716-.8-2.55-.333-.866-.65-1.684-.95-2.45-.333-.8-.7-1.533-1.1-2.199-.4-.7-.817-1.351-1.25-1.95-.9-1.233-1.95-2.184-3.15-2.851-1.233-.733-2.667-1.116-4.3-1.149-.267-1.7-.55-3.351-.85-4.95-.333-1.6-.7-3.15-1.1-4.65-.8-3.033-1.783-5.866-2.95-8.5-1.233-2.633-2.667-5.033-4.3-7.199a27.627 27.627 0 0 0-5.8-5.7c.033-.601.05-1.15.05-1.65s-.033-.95-.1-1.35l-.25-1.25c-.1-.434-.2-.834-.3-1.2l-.3-1.2a8.72 8.72 0 0 1-.2-1.3 9.683 9.683 0 0 1-.1-1.45c.034-.5.1-1.05.2-1.649l-8.55-19.601c-.5-1.2-.967-2.416-1.4-3.649-.466-1.267-.9-2.517-1.3-3.75a102.528 102.528 0 0 1-1.2-3.851c-.4-1.3-.767-2.6-1.1-3.899a57.488 57.488 0 0 1-.95-4c-.3-1.334-.55-2.667-.75-4a53.83 53.83 0 0 1-.55-4.051 54.928 54.928 0 0 1-.4-8.1c0-1.366.067-2.733.2-4.1.033-.4.083-.801.15-1.2.033-.434.1-.851.2-1.25l2.15-8.601.15-1.149c.033-.4.05-.767.05-1.101 0-.399-.017-.767-.05-1.1a7.965 7.965 0 0 0-.15-.95 8.136 8.136 0 0 0-.35-.95 5.47 5.47 0 0 0-1.15-1.649c-.367 0-.667.116-.9.35-.233.2-.434.467-.6.8-.2.301-.35.667-.45 1.101l-.4 1.35-.5 1.4c-.2.434-.433.85-.7 1.25-.267.399-.6.767-1 1.1-.4.267-.883.483-1.45.65-.5-.101-.967-.217-1.4-.351-.467-.133-.9-.283-1.3-.449-.433-.167-.85-.334-1.25-.5-.4-.2-.783-.4-1.15-.601l-4.5-2.5a7.525 7.525 0 0 0-1.15-.6c-.433-.167-.85-.334-1.25-.5a8.956 8.956 0 0 0-1.35-.4c-.467-.133-.933-.25-1.4-.35a20.146 20.146 0 0 0-1.4-.15 7.028 7.028 0 0 0-1.45-.05h-.45c-.6 0-1.217.033-1.85.1s-1.3.184-2 .351c.5.633.967 1.3 1.4 2 .433.733.85 1.483 1.25 2.25.367.8.717 1.616 1.05 2.45.333.8.667 1.633 1 2.5l1.9 5.05c.333.833.7 1.649 1.1 2.45.4.767.817 1.517 1.25 2.25l-.05.05h-2.95c-.133.7-.216 1.399-.25 2.1-.066.667-.083 1.3-.05 1.9.033.566.1 1.133.2 1.7.066.566.167 1.1.3 1.6.133.5.3 1 .5 1.5.167.467.367.934.6 1.4.2.433.433.883.7 1.35.233.4.483.816.75 1.25l1.6 2.6c.233.434.483.884.75 1.351.267.434.533.899.8 1.399.233.467.45.967.65 1.5.2.5.4 1.034.6 1.601.2.566.367 1.149.5 1.75.133.6.25 1.25.35 1.95a21.26 21.26 0 0 1 3.65 3.5c.533.666 1.05 1.366 1.55 2.1s.967 1.5 1.4 2.3c.434.8.867 1.617 1.3 2.45.4.833.783 1.684 1.15 2.55l4.35 10.95c.367.934.75 1.866 1.15 2.8.4.9.8 1.783 1.2 2.65.434.899.883 1.783 1.35 2.649.434.834.917 1.667 1.45 2.5.5.801 1.033 1.584 1.6 2.351a35.633 35.633 0 0 0 1.85 2.2c-.066.3-.2.517-.4.649-.2.134-.45.217-.75.25s-.617.066-.95.101c-.3 0-.6.017-.9.05.4.8.8 1.633 1.2 2.5.4.866.767 1.733 1.1 2.6l4.25 10.8c.367.867.75 1.733 1.15 2.601.4.833.833 1.649 1.3 2.45v.05c-.433.166-.8.366-1.1.6-.333.233-.6.483-.8.75-.233.233-.4.5-.5.8a2.57 2.57 0 0 0-.25.9c-.066.3-.083.634-.05 1 0 .366.033.767.1 1.2l.6 2.7-.05.05a6.356 6.356 0 0 1-2.6-2.7c-.3-.6-.55-1.217-.75-1.85a19.45 19.45 0 0 1-.6-2.101l-.85-4.35c-.167-.733-.333-1.434-.5-2.101a42.249 42.249 0 0 0-.7-1.949v-.051h.15c.733 0 1.2-.166 1.4-.5.1-.199.15-.433.15-.699a4.69 4.69 0 0 0-.1-.9c-.1-.333-.2-.684-.3-1.05l-1.3-3.65c-.133.634-.25 1.2-.35 1.7-.133.434-.25.8-.35 1.1a4.12 4.12 0 0 1-.35.601c-.1.1-.2.166-.3.2h-.1a.995.995 0 0 1-.35-.301c-.133-.166-.25-.399-.35-.699-.1-.267-.2-.584-.3-.95l-.35-1.25-2.2-12.55a9.379 9.379 0 0 0-.5-1.551 12.13 12.13 0 0 0-.75-1.3c-.267-.366-.55-.733-.85-1.1l-1-1a30.84 30.84 0 0 1-2.1-2.101c-.367-.399-.7-.85-1-1.35a12 12 0 0 1-.8-1.6 3.247 3.247 0 0 1-.25-1.5c0-.5.067-1.017.2-1.551a78.5 78.5 0 0 1 .2-1.5 4.056 4.056 0 0 0-.15-1.449 45.893 45.893 0 0 0-1.4-3.2 31.796 31.796 0 0 0-1.6-3c-.6-1-1.183-1.967-1.75-2.9-.6-.934-1.2-1.85-1.8-2.75a89.07 89.07 0 0 1-1.7-2.75c-.533-.899-1.05-1.8-1.55-2.7a26.07 26.07 0 0 1-2.2-5.649c-.533.2-.85.6-.95 1.2-.1.3-.15.633-.15 1a4.61 4.61 0 0 0 .05 1.149l.2 2.45c.033.4.05.783.05 1.15a8.054 8.054 0 0 1-.15 1l-.05.05a171.133 171.133 0 0 1-2.7-4.7c-.9-1.566-1.783-3.134-2.65-4.7a592.246 592.246 0 0 0-5.4-9.399c-.9-1.567-1.833-3.101-2.8-4.601-.967-1.5-1.95-2.967-2.95-4.399-2-2.9-4.15-5.634-6.45-8.2-.2.467-.35.934-.45 1.399-.1.5-.15 1-.15 1.5a8.49 8.49 0 0 0 .05 1.601c.033.533.117 1.083.25 1.649.1.567.233 1.15.4 1.75.167.601.35 1.2.55 1.801l4.5 11.5c.233.633.45 1.283.65 1.949.2.667.383 1.317.55 1.95.167.634.3 1.283.4 1.95.1.634.184 1.267.25 1.9.034.267.15.466.35.6.2.134.45.217.75.25.267.033.567.05.9.05.333 0 .65.017.95.05l10.05 34.051-.05.05c-.2.033-.4.05-.6.05-.233 0-.45-.033-.65-.1a8.384 8.384 0 0 1-.95-.5c-.233-.2-.4-.301-.5-.301-.066 0-.1.017-.1.051a.527.527 0 0 0-.1.199c-.033.067-.05.2-.05.4l-.05.05.05.55-.05.551-.05-1.15h.05a30.53 30.53 0 0 0-.3-2.35 37.544 37.544 0 0 0-.6-2.45 55.795 55.795 0 0 0-.75-2.55c-.3-.867-.6-1.717-.9-2.551-.3-.866-.583-1.733-.85-2.6s-.517-1.717-.75-2.55a17.978 17.978 0 0 1-.6-2.4 20.917 20.917 0 0 1-.25-2.35 5.204 5.204 0 0 1-.95-.351 13.399 13.399 0 0 1-.8-.649l-.9-.9c-.367-.333-.8-.684-1.3-1.05.067.967.167 1.983.3 3.05.1 1.066.233 2.15.4 3.25l6.25 37.45c.167 1.233.317 2.467.45 3.7s.25 2.434.35 3.6c.067 1.2.133 2.367.2 3.5.033 1.134.05 2.25.05 3.351l-.05.05-7.75-40-9.1-41.101c-.4-1.5-.8-2.966-1.2-4.399-.4-1.434-.817-2.851-1.25-4.25a157.645 157.645 0 0 0-1.35-4.25 165.441 165.441 0 0 0-2.1-6.101c-.733-2-1.483-3.949-2.25-5.85a17.038 17.038 0 0 0-2.55 4.2c-.333.733-.617 1.5-.85 2.3a18.86 18.86 0 0 0-.65 2.35c-.167.801-.3 1.634-.4 2.5a20.059 20.059 0 0 0-.25 2.5l-.45 10.101-.2 2.399a26.471 26.471 0 0 1-.3 2.351 54.875 54.875 0 0 1-.45 2.3c-.2.7-.433 1.4-.7 2.1a15.32 15.32 0 0 1-2.15 3.801c0 .6.017 1.166.05 1.699.066.5.15 1 .25 1.5.1.467.233.917.4 1.351.133.434.283.866.45 1.3l1.05 2.45c.133.399.283.833.45 1.3.1.467.216.934.35 1.4a4.685 4.685 0 0 0-.85.75 3.45 3.45 0 0 0-.65.899c-.233.3-.417.634-.55 1-.167.367-.3.75-.4 1.15-.133.399-.25.816-.35 1.25-.1.399-.183.833-.25 1.3l-.75 5.5c-.1.434-.183.866-.25 1.3-.133.4-.25.8-.35 1.2-.133.4-.283.783-.45 1.15-.167.333-.35.666-.55 1-.433.6-.967 1.1-1.6 1.5.267.666.483 1.333.65 2 .167.666.283 1.333.35 2 .067.666.083 1.316.05 1.949a34.77 34.77 0 0 1-.25 1.95 51.92 51.92 0 0 1-.45 1.95 21.63 21.63 0 0 1-.7 1.9l-.8 1.899c-.3.601-.617 1.217-.95 1.851l-4.35 7.35a49.291 49.291 0 0 0-2 3.6c-.333.601-.617 1.2-.85 1.801a15.76 15.76 0 0 0-.7 1.75l-.05.05c-1.167-.4-2.117-1.05-2.85-1.95-.733-.9-1.267-1.967-1.6-3.2a12.68 12.68 0 0 1-.35-1.899 12.815 12.815 0 0 1-.05-1.95c0-.7.067-1.367.2-2 .1-.634.25-1.267.45-1.9.167-.6.4-1.166.7-1.7a6.8 6.8 0 0 1 .95-1.5c.7-.933 1.533-1.583 2.5-1.949a14.153 14.153 0 0 1-.6-1.25c-.2-.4-.35-.801-.45-1.2a5.95 5.95 0 0 1-.25-1.25 5.724 5.724 0 0 1-.05-1.3c0-.434.033-.851.1-1.25.033-.434.117-.851.25-1.25a6.22 6.22 0 0 1 .35-1.301c.1-.399.25-.8.45-1.199.167-.434.35-.851.55-1.25.167-.4.367-.801.6-1.2l4.05-6.55-1.15-1.95a3.535 3.535 0 0 1-.35-.851 3.088 3.088 0 0 1-.1-.75c-.033-.5.167-.949.6-1.35.2-.2.466-.4.8-.6.333-.167.75-.334 1.25-.5.133-.5.2-.917.2-1.25 0-.334-.05-.601-.15-.801a1.39 1.39 0 0 0-.4-.55 1.786 1.786 0 0 0-.65-.35l-.65-.351a2.35 2.35 0 0 1-.65-.35 1.142 1.142 0 0 1-.5-.55c-.133-.2-.2-.467-.2-.8.167-.467.35-.884.55-1.25.2-.4.434-.75.7-1.051.2-.333.4-.633.6-.899.167-.267.316-.533.45-.8a2.45 2.45 0 0 0 .25-.801 2.46 2.46 0 0 0-.05-.85 4.264 4.264 0 0 0-.5-1.05c-.267-.4-.6-.816-1-1.25v-.05c.3-.301.567-.5.8-.601a1.66 1.66 0 0 1 .4-.05c.1 0 .2.017.3.05.167.033.383.117.65.25.2.101.467.2.8.3-.2-.767-.383-1.5-.55-2.199a17.227 17.227 0 0 1-.35-2.101c-.1-.7-.167-1.383-.2-2.05-.067-.7-.1-1.35-.1-1.95a33.111 33.111 0 0 1 .2-3.7l2.65-13.449c.1-.567.183-1.134.25-1.7.033-.601.083-1.2.15-1.8-.867-1.567-1.383-3.184-1.55-4.851-.1-.833-.15-1.666-.15-2.5 0-.866.05-1.733.15-2.6.1-.9.216-1.8.35-2.7.134-.9.284-1.8.45-2.7l.4-2.8c.133-.934.25-1.866.35-2.8a.724.724 0 0 0-.45-.15l-.25.05c-.267.034-.566.134-.9.301l-1.1.5-1.2.5c-.434.166-.867.3-1.3.399-.267.033-.533.05-.8.05l-.5-.05a2.651 2.651 0 0 1-1.3-.45c-.434-.267-.833-.649-1.2-1.149-.1-.467-.167-.867-.2-1.2a2.874 2.874 0 0 1 .05-.95c.066-.3.133-.566.2-.8.1-.267.2-.5.3-.7a7.64 7.64 0 0 0 .55-1.45 6.23 6.23 0 0 0 .15-.899c0-.334-.017-.684-.05-1.05-2.433-4.301-4.333-8.75-5.7-13.351a69.287 69.287 0 0 1-2.7-14.15 75.285 75.285 0 0 1 .05-14.25 74.784 74.784 0 0 1 2.55-13.75 68.956 68.956 0 0 1 4.85-12.6c2-4 4.317-7.633 6.95-10.9a62.3 62.3 0 0 1 3.1-3.65 82.649 82.649 0 0 1 3.35-3.55 68.134 68.134 0 0 1 3.55-3.4 90.067 90.067 0 0 1 3.8-3.3 74.92 74.92 0 0 1 3.95-3.2 137.155 137.155 0 0 1 4.2-3.05c1.4-1 2.833-1.983 4.3-2.95a78.97 78.97 0 0 1 4.5-2.85c1.5-.934 3.05-1.85 4.65-2.75 1.567-.9 3.15-1.767 4.75-2.6 1.6-.867 3.217-1.7 4.85-2.5a135.926 135.926 0 0 1 4.95-2.4c1.667-.8 3.35-1.567 5.05-2.3 1.7-.767 3.417-1.5 5.15-2.2 1.7-.733 3.417-1.434 5.15-2.1 1.733-.7 3.467-1.367 5.2-2a243.46 243.46 0 0 1 5.25-1.85 199.735 199.735 0 0 1 5.25-1.8 236.811 236.811 0 0 1 5.25-1.65c1.767-.566 3.517-1.1 5.25-1.6s3.467-.983 5.2-1.45c1.733-.5 3.45-.967 5.15-1.4l5.1-1.3c1.7-.433 3.383-.833 5.05-1.2l1.1-.5 1-.6 3.85-2.7c.3-.233.633-.433 1-.6.333-.2.683-.383 1.05-.55l.2-.05c.4 0 .75.05 1.05.15.3.067.567.183.8.35.5.333.934.75 1.3 1.25.333.467.7.917 1.1 1.35.4.433.917.733 1.55.9 1.8-.533 3.633-1.033 5.5-1.5 1.867-.5 3.733-.967 5.6-1.4l11.35-2.65c1.867-.433 3.733-.883 5.6-1.35 1.867-.5 3.7-1 5.5-1.5 1.8-.534 3.583-1.1 5.35-1.7 1.733-.6 3.434-1.217 5.1-1.85l.05.05c-.233.333-.466.65-.7.95-.267.3-.55.583-.85.85-.3.233-.617.467-.95.7-.333.233-.683.45-1.05.65-.367.167-.75.316-1.15.45l-1.3.4c.067.466.217.883.45 1.25.2.333.467.65.8.95l.9.85c.3.233.583.517.85.85l13.5-3.95c1.133-.3 2.3-.583 3.5-.85 1.167-.3 2.35-.583 3.55-.85 1.2-.267 2.417-.5 3.65-.7 1.233-.233 2.483-.45 3.75-.65l4.3-3.4c.7-.567 1.417-1.133 2.15-1.7.733-.6 1.483-1.167 2.25-1.7.733-.533 1.5-1.05 2.3-1.55.8-.5 1.617-.967 2.45-1.4a21.452 21.452 0 0 1 2.65-1.25c.933-.367 1.9-.7 2.9-1l.05.05c-.233.934-.683 1.667-1.35 2.2a19.15 19.15 0 0 1-1 .75c-.4.2-.784.4-1.15.6-.4.167-.783.367-1.15.6-.367.2-.717.434-1.05.7-.633.5-1.067 1.217-1.3 2.15.2.3.417.517.65.65.2.067.417.117.65.15h.15c.267-.067.567-.15.9-.25.3-.133.633-.284 1-.45l1.05-.55c.367-.167.75-.317 1.15-.45a4.515 4.515 0 0 1 1.2-.25h.25c.3-.033.617 0 .95.1.5.267 1.067.483 1.7.65.6.167 1.233.3 1.9.4l4.45.05c.8-.1 1.617-.2 2.45-.3.833-.133 1.7-.283 2.6-.45.867-.2 1.75-.417 2.65-.65.866-.233 1.767-.483 2.7-.75.899-.3 1.8-.583 2.7-.85l2.699-1 2.601-1c.866-.367 1.717-.717 2.55-1.05a6.4 6.4 0 0 0 .6-.55l.801-1c.3-.367.583-.684.85-.95.3-.3.55-.483.75-.55.833-.2 1.684-.367 2.55-.5.834-.133 1.667-.2 2.5-.2l9.3.15c.667 0 1.317-.033 1.95-.1.601-.1 1.167-.217 1.7-.35l1.6-.5c.534-.2 1.067-.417 1.601-.65.5-.233 1-.483 1.5-.75s1.017-.534 1.55-.8l8.9-5.4c.5-.3 1-.567 1.5-.8.533-.233 1.066-.45 1.6-.65a11.42 11.42 0 0 1 1.6-.6 23.658 23.658 0 0 1 1.65-.45c.566-.133 1.15-.217 1.75-.25.566-.1 1.15-.15 1.75-.15l.05.1c-.866.966-1.866 1.8-3 2.5-.566.333-1.149.667-1.75 1-.6.333-1.217.633-1.85.9l-3.8 1.7c-.634.267-1.25.55-1.851.85-.6.333-1.166.667-1.7 1 .301.167.617.317.95.45.3.1.617.167.95.2.267.034.533.05.8.05.434-.033.9-.083 1.4-.15l1.1-.2c.367-.1.75-.217 1.15-.35l4.6-1.4c.367-.1.733-.167 1.101-.2a6.19 6.19 0 0 1 1.1-.1h.1c.334 0 .667.033 1 .1.301.067.601.167.9.3.333.1.65.267.95.5.267.2.533.45.8.75a190.097 190.097 0 0 1 3.6-1.6 70.551 70.551 0 0 1 3.65-1.5c1.233-.5 2.5-.967 3.8-1.4 1.267-.467 2.55-.917 3.851-1.35l31.899-9.55c1.3-.434 2.617-.867 3.95-1.3 1.267-.433 2.533-.883 3.8-1.35l3.8-1.4c1.233-.5 2.45-1 3.65-1.5h.05a1.702 1.702 0 0 1-.8 1.05l-1.2.5c-.434.167-.75.417-.95.75-.133.167-.199.4-.199.7 0 .267.05.583.149.95 1.8-.033 3.634-.083 5.5-.15 1.834-.1 3.667-.217 5.5-.35 1.8-.167 3.617-.35 5.45-.55 1.833-.2 3.667-.417 5.5-.65 1.8-.267 3.616-.533 5.45-.8 1.8-.267 3.616-.567 5.45-.9 1.8-.333 3.616-.667 5.449-1a389.68 389.68 0 0 0 5.45-1.05l44.2-9.55.05.1c-.333.3-.666.583-1 .85-.366.267-.75.517-1.149.75l-1.301.6-1.399.5c-.467.133-.95.267-1.45.4-.533.1-1.05.2-1.55.3l-9.7 1.6c-.5.1-1 .216-1.5.35-.5.134-.967.284-1.4.45a5.677 5.677 0 0 0-1.3.55 6.757 6.757 0 0 0-1.2.6c.567.4 1.134.75 1.7 1.05.566.3 1.15.55 1.75.75.566.167 1.15.316 1.75.45.566.1 1.167.167 1.8.2h.801a19.492 19.492 0 0 0 2.799-.2c.6-.1 1.217-.217 1.85-.35.634-.167 1.283-.333 1.95-.5l8.15-2.5a27.21 27.21 0 0 1 2.199-.6c.767-.2 1.534-.383 2.301-.55.767-.2 1.566-.35 2.399-.45.8-.133 1.617-.25 2.45-.35l2.1-.05 9.851.95 1.5.1c.5.033 1.017.05 1.55.05l1-.05a52.2 52.2 0 0 0 2.3-.15 27.414 27.414 0 0 0 2.3-.3c.733-.133 1.483-.267 2.25-.4a54.92 54.92 0 0 0 2.301-.45l13.55-3.55a43.87 43.87 0 0 1 2.25-.45c.733-.167 1.467-.3 2.2-.4a24.577 24.577 0 0 1 2.25-.3 47.745 47.745 0 0 1 2.199-.15h1.101c.533 0 1.083.017 1.649.05.567 0 1.117.033 1.65.1l.05.05c-.133.567-.35 1.033-.649 1.4a4.575 4.575 0 0 1-1.2.85c-.233.067-.483.15-.75.25a6.614 6.614 0 0 1-.8.15l-5.65.4c-.6.033-1.15.133-1.65.3a4.75 4.75 0 0 0-1.3.65 11.777 11.777 0 0 0 4.2 2.55c.8.267 1.634.483 2.5.65a22.89 22.89 0 0 0 2.75.35l1.25.1 17.4-1.4a70.016 70.016 0 0 1 2.55-.15 20.86 20.86 0 0 1 2.5-.05h1.2c1 0 1.983.066 2.949.2.934.133 1.851.317 2.75.55a14.718 14.718 0 0 1 4.9 2.15c.8-.1 1.616-.2 2.45-.3.833-.133 1.684-.267 2.55-.4l16.6-3.15a38.96 38.96 0 0 1 2.851-.4c.967-.133 1.916-.25 2.85-.35.834-.067 1.65-.117 2.45-.15.833-.067 1.65-.083 2.45-.05h.649c.9 0 1.801.05 2.7.15.867.066 1.733.167 2.601.3a22.43 22.43 0 0 1 2.5.55c.8.233 1.6.517 2.399.85v.05l-4.6-.1c-1.4 0-2.783.033-4.15.1-1.399.033-2.75.1-4.05.2-4 .333-7.733.934-11.2 1.8.367.533.851.966 1.45 1.3.3.167.634.317 1 .45.333.133.7.25 1.1.35.4.067.817.133 1.25.2l6.45.75c.4.067.783.15 1.15.25.366.1.717.233 1.05.4.333.133.65.3.95.5.267.2.517.434.75.7.2.267.383.566.55.9.134.333.233.7.3 1.1l8.45.05c1.333.067 2.65.167 3.95.3 1.267.133 2.517.3 3.75.5 1.2.2 2.399.417 3.6.65 1.167.233 2.334.483 3.5.75l13.45 3.55c1.1.267 2.233.55 3.4.85 1.166.233 2.333.483 3.5.75 1.166.233 2.366.45 3.6.65 1.233.167 2.483.333 3.75.5 1.233.133 2.533.25 3.9.35 1.333.067 2.699.1 4.1.1.167.533.35 1.05.55 1.55.167.467.367.917.601 1.35.234.433.483.85.75 1.25s.55.8.85 1.2l1.7 2.25c.3.367.583.767.85 1.2.233.367.483.767.75 1.2 1.167.1 2.316.25 3.45.45 1.1.167 2.167.367 3.2.6 1.033.267 2.05.567 3.05.9.967.3 1.917.633 2.85 1 .9.367 1.801.767 2.7 1.2.9.4 1.767.817 2.601 1.25l10.1 5.4c.833.434 1.7.85 2.6 1.25.9.4 1.817.783 2.75 1.15.9.367 1.851.7 2.851 1 .967.3 1.983.583 3.05.85 1.033.233 2.116.434 3.25.6 1.134.166 2.3.283 3.5.35l.05.1c-.366.533-.566 1.017-.6 1.45-.033.434.05.833.25 1.2.166.333.434.667.8 1 .333.333.717.65 1.15.95.399.333.816.684 1.25 1.05.433.333.833.717 1.199 1.15.334.4.584.867.75 1.4.101.233.167.5.2.8.033.3.033.617 0 .95 1.134.5 2.283 1.017 3.45 1.55 1.134.5 2.3.983 3.5 1.45l3.5 1.5c1.134.5 2.283 1.017 3.45 1.55 1.133.533 2.25 1.083 3.35 1.65 1.066.6 2.117 1.217 3.15 1.85a34.623 34.623 0 0 1 5.6 4.45l7.65 1c1.3.167 2.566.367 3.8.6 1.234.233 2.45.483 3.65.75 1.199.233 2.35.533 3.449.9 1.101.367 2.167.767 3.2 1.2 2 .9 3.75 2.083 5.25 3.55v.05c-.633-.233-1.149-.367-1.55-.4l-.3-.05c-.3 0-.533.05-.7.15-.267.1-.483.25-.65.45-.166.2-.3.433-.399.7l-.351.8c-.1.267-.233.517-.399.75-.2.2-.417.367-.65.5-.233.066-.483.1-.75.1h-.25c.834 2.033 1.983 3.767 3.45 5.2 1.467 1.434 3.2 2.633 5.2 3.6a52.9 52.9 0 0 0 3.05 1.25c1.067.4 2.184.75 3.35 1.05 1.134.3 2.301.583 3.5.85 1.2.267 2.417.517 3.65.75l7.35 1.4c1.2.233 2.4.483 3.601.75 1.2.267 2.366.567 3.5.9 1.1.333 2.184.7 3.25 1.1 1.086.385 2.103.835 3.07 1.335z" fill-rule="evenodd"/></svg>