<svg xmlns="http://www.w3.org/2000/svg" xmlns:dc="http://dublincore.org/documents/dcmi-terms/" height="181.003" width="209.528"><metadata><dc:description>Silhouette of Pyrinomonas, processed by PhyloPic Tools (https://github.com/eweitz/phylopic-tools)</dc:description><dc:source>http://phylopic.org/image/ccbe0855-70ac-4df0-a204-d4d6bb50acf8</dc:source><dc:creator>Matt Crook</dc:creator><dc:license>http://creativecommons.org/licenses/by-sa/3.0/</dc:license></metadata><g stroke="#000"><path d="M180.085.527c-2.939.133-5.798.717-8.656 1.312-5.937 1.236-13.142 3.497-18.5 8.156-3.038 2.643-4.524 6.257-5.875 9.344-1.351 3.087-2.674 5.595-3.781 6.438-1.366 1.04-2.828 1.246-4.813 1.406-1.985.16-4.62.09-6.937 2.062-2.058 1.752-2.72 4.06-3.125 5.657-.406 1.597-.705 2.494-1.063 2.875-.473.504-1.459.978-2.906 1.531-1.447.553-3.34 1.172-5 2.781-1.732 1.678-2.285 3.63-2.813 5-.527 1.37-.93 2.065-1.343 2.344-.249.168-.167.118-.313.125-.145.007-.593-.038-1.344-.125-1.5-.173-4.053-.205-7.187 1.156-6.661 2.892-17.318 12.074-21.313 16.781-1.751 2.065-2.422 3.574-2.625 4.75-.197.142-.308.213-1.062.375-.907.196-2.419.508-4.219 1.344-2.984 1.387-8.919 3.86-12.375 7.281-1.784 1.767-2.5 3.762-3 5.094-.5 1.332-.754 1.894-1.312 2.344-.332.268-1.581.63-3.344.906s-4.116.443-6.094 2.344c-1.921 1.847-2.103 4.192-2.281 5.594-.178 1.402-.317 1.773-.438 1.875-.107.09-1.108.383-2.656.437-1.548.054-3.387-.224-5.562.875-2.472 1.25-4.156 2.947-5.219 4.875-.55.996-.647 2.137-.563 2.875.085.738.245 1.163.282 1.375.074.425.38-.17-.25.469.117-.119-.264.152-1.125.312-.862.161-2.084.24-3.438.313-2.707.146-5.858.067-8.75 1.656-4.337 2.384-7.813 5.89-9.094 9.719-.604 1.808-.171 3.495.22 4.5-.742.246-1.965.62-3.188 1.719-1.624 1.458-3.1 3.215-4.594 6.156-1.443 2.84-3.406 7.168-3.813 12.25-.398 4.98.18 11.647 2.47 16.437 2.146 4.49 5.092 6.463 8.155 8.97 3.175 2.597 7.589 6.447 12.938 7.687 4.846 1.123 9.485.646 14.406-1.219 2.639-1 5.734-2.752 8.5-4.719 2.766-1.966 5.212-3.77 6.375-6.656a8.929 8.929 0 0 0 .375-5.406c-.318-1.248-.482-1.601-.437-2 .016-.15.257-.683.937-1.25.405-.338 1.004-.528 1.563-.782.487.83 1.522 1.8 2.656 2.032 1.824.372 3.446-.439 4.156-.844.71-.405.62-.305.5-.313-.306-.018-.321-.124.594.563.915.687 2.671 1.655 4.875 1.687 2.308.035 4.755-.652 7.281-1.625 2.527-.973 4.978-2.21 6.813-3.875 1.988-1.803 2.689-4.05 3.156-5.625.467-1.574.896-2.34.75-2.218.312-.258.348-.262 1.062-.313.715-.05 2.22.038 3.782-1 1.478-.982 2.067-2.214 2.5-2.969.285-.497.213-.426.218-.468.817.164 2.428.267 3.844-.469 2.22-1.154 2.827-2.797 3.656-4.156.83-1.36 1.733-2.499 1.875-2.594.39-.26.561-.263 1.625-.344 1.065-.08 2.924-.297 4.657-1.5 2.142-1.487 3.075-3.517 4.093-5.281a30.573 30.573 0 0 1 2.188-3.25c.539-.344.365-.236 1.062-.188.698.05 2.56.173 4.157-.906 1.929-1.303 2.245-3.176 2.562-4.062.317-.886.373-1.121 1.156-1.594.07-.042 2.723-.439 5.407-.375 1.342.032 2.723.071 4.062 0 1.34-.071 2.652-.156 4.094-1.031.82-.498 1.476-1.025 2-1.719.393-.52.52-1.076.656-1.594.098-.017-.132.046.156 0 .869-.138 2.414-.552 3.75-1.687 1.89-1.605 2.25-3.427 2.844-4.907.594-1.479 1.18-2.605 1.906-3.187.553-.443 1.923-.758 4.032-1.063 2.108-.304 4.897-.713 7.468-2.625 2.77-2.057 4.357-5.18 5.907-8 1.549-2.819 3.215-5.408 3.656-5.75 1.074-.83.945-.647 1.5-.656.277-.004.82.037 1.656-.156.837-.193 1.786-.723 2.469-1.406 1.774-1.776 1.852-3.708 2.125-5.125.197-1.026.424-1.563.437-1.75.745.023 2.55-.102 4-1.188 1.975-1.478 2.482-3.269 3.22-4.812.737-1.544 1.583-2.812 1.78-2.969.282-.224.447-.22 1.688-.313 1.241-.091 3.539-.536 5.156-2.343 1.638-1.83 2.057-3.94 2.375-5.532.318-1.591.588-2.725.938-3.25 1.644-2.467 2.14-3.29 4.375-6.25 2.748-3.637 6.109-10.527 6.25-17.187.135-6.378-2.31-12.509-5.563-17.813-3.241-5.287-7.984-11.287-14.312-13.875C186.075.74 183.019.394 180.085.527z" fill="#fff"/><path d="M15.274 128.001c.742-1.482-1.427-2.338-.571-4.898.855-2.56 4.045-6.105 7.77-8.152 3.725-2.047 11.664-.436 13.967-2.77 2.303-2.335.11-3.761.986-5.348.876-1.588 1.857-2.605 3.998-3.687 2.14-1.082 6.616.134 8.792-1.697 2.175-1.83.729-5.52 2.872-7.58 2.144-2.062 6.817-1.142 9.234-3.09 2.416-1.95 1.906-5.032 4.542-7.642 2.637-2.61 8.558-5.32 11.561-6.716s4.566-.869 6.118-2.19c1.552-1.321-.633-1.01 2.769-5.02 3.402-4.009 14.89-13.646 20.274-15.984 5.385-2.338 6.766.284 9.294-1.42 2.528-1.704 2.384-5.55 4.543-7.642 2.159-2.091 5.913-2.194 8.004-4.422 2.092-2.228 1.219-6.002 3.928-8.308 2.71-2.307 7.598-.264 11.683-3.376 4.085-3.111 5.04-11.801 9.751-15.897 4.71-4.097 11.553-6.33 17.238-7.513 5.684-1.184 10.761-2.149 16.035.007 5.274 2.157 9.89 7.713 12.955 12.711 3.065 4.999 5.235 10.65 5.116 16.243-.119 5.593-3.365 12.55-5.632 15.551-2.267 3-2.86 3.914-4.491 6.36-1.63 2.447-.98 6.173-3.037 8.473-2.058 2.3-4.409.632-6.507 2.302-2.1 1.67-3.112 6.39-4.933 7.754-1.82 1.364-2.82-.125-4.283 1.238-1.463 1.364-1.037 5.52-2.596 7.08-1.558 1.559-2.385-.32-5.339 1.964-2.954 2.283-5.672 10.854-9.535 13.725-3.863 2.871-8.757 1.511-11.57 3.765-2.813 2.255-3.049 6.64-4.82 8.144-1.77 1.504-3.107.765-4.17 1.627-1.064.862.418 1.625-2.051 3.124-2.47 1.5-10.6-.387-13.526 1.377-2.925 1.764-2.14 4.61-3.824 5.746-1.683 1.137-2.93-.36-5.175 1.074-2.245 1.434-4.024 6.96-6.377 8.593-2.353 1.634-4.162.42-6.23 1.8-2.069 1.382-3.47 5.651-5.27 6.587-1.8.935-2.444-.431-3.73.234s-1.688 2.908-3.106 3.85c-1.419.943-3.243-.039-5.063 1.464-1.82 1.502-1.335 5.463-4.04 7.918-2.706 2.455-8.993 4.815-12.124 4.769-3.13-.046-3.596-2.162-5.296-2.267-1.7-.105-2.509 1.6-4.284 1.238-1.774-.362-.133-3.236-2.847-2.553-2.714.684-5.46 2.7-5.72 5.028-.26 2.328 1.494 3.576.243 6.681-1.25 3.105-8.669 8.003-13.222 9.728-4.553 1.725-8.433 2.152-12.747 1.152-4.313-1-8.59-4.546-11.77-7.147-3.178-2.602-5.503-4.085-7.373-7.996-1.87-3.911-2.573-10.514-2.216-14.97.357-4.457 2.145-8.422 3.53-11.147 1.385-2.725 2.49-4.058 3.937-5.357 1.446-1.298 3.593-1.036 4.335-2.518z" fill="#666"/><path d="M22.466 130.986c1.983-2.252-.026-5.085 3.59-9.476 3.617-4.39 15.106-8.348 20.396-12.644 5.29-4.297 6.915-9.273 11.656-12.229 4.74-2.955 11.659-1.897 15.853-5.003 4.194-3.105 3.68-7.418 8.315-12.107 4.635-4.688 14.111-11.144 20.335-14.315 6.225-3.17 12.115-2.004 16.13-5.504 4.015-3.5 3.867-10.727 6.697-13.328 2.83-2.6 4.177-.811 7.563-3.029 3.387-2.218 7.577-10.574 11.492-11.337 3.914-.763 2.52-1.213 7.191 2.985 4.671 4.198 9.354 21.938 14.333 26.237 4.978 4.298 7.152 1.355 8.974 3.314s2.749 1.321 1.8 6.23c-.949 4.909-8.55 13.15-14.476 18.529-5.926 5.378-14.682 10.251-20.673 13.146-5.99 2.895-11.697 2.846-14.572 5.055-2.876 2.209-1.133 3.553-3.548 5.244-2.415 1.691-7.258.285-11.016 2.762-3.758 2.476-6.156 10.413-9.484 12.444-3.327 2.031-1.822-1.688-7.623 1.36-5.802 3.047-14.377 19.274-22.204 22.449-7.827 3.174-11.88-3.478-19.099-.388-7.22 3.09-12.238 18.007-18.924 20.657-6.685 2.65-9.496 2.505-15.092-1.124-5.596-3.628-11.724-15.077-11.814-21.901-.09-6.824 4.46-11.482 7.25-14.331 2.792-2.85 4.966-1.444 6.95-3.696z" fill="#333"/><path d="M81.163 114.255l21.565 4.563 20.928-31.069-.91 11.572-19.48-3.604-15.73 25.258 16.06-15.01 10.075 6.217 3.356-27.169 14.878 4.01 13.663-9.803-20.217 1.421 19.498-19.737-10.481 28.937-7.67-23.094-14.564 29.582-6.083-17.63-5.422 22.746-31.4 8.578 41.723-14.554-12.604-13.06-12.754 18.11 17.366-10.307-18.217-.182 14.001 8.654-23.705 16.538-27.549-3.216 30.904 15.805-10.687-17.226-6.447 18.804 36.22-34.127 4.604-20.283 18.126 9.29-6.745-18.25-3.05 12.795 15.63-4.48-22.664 17.019 5.249-16.2 8.67 2.413 9.762-27.374 9.629 20.209 7.374-33.838-3.39 34.094-21.25 9.15 4.909 5.1-20.672 7.206-13.845 8.141 7.11-18.184 8.554 6.778-15.457-2.066 21.201 1.24-3.273-10.026-5.042 2.727 12.192.249.364-16.556-4.795 30.293 16.416-19.895-6.257-11.084 11.753 2.571L115.16 78.79l3.231 8.744-16.134.777-15.043 10.745 9.158-10.299 12.117 5.894-4.678-13.828 7.612 5.397 4.91-14.778 5.893 7.761 9.06-9.397-10.01-.19-5.39 15.819 12.432-.273 5.455-9.794-8.86 7.596-23.763-1.158-1.488 13.514-18.292 5.463-1.413 7.868 10.067-1.991-2.53-6.844 21.549-11.852 7.274-13.06" fill="none" stroke-linecap="round" stroke-linejoin="round"/></g></svg>