<svg xmlns="http://www.w3.org/2000/svg" xmlns:dc="http://dublincore.org/documents/dcmi-terms/" height="396.496" version="1.2" viewBox="0 0 243.759 396.496" width="243.759" overflow="inherit"><metadata><dc:description>Silhouette of Pyrrhocorax pyrrhocorax, processed by PhyloPic Tools (https://github.com/eweitz/phylopic-tools)</dc:description><dc:source>http://phylopic.org/image/bc1e5eb7-56ae-44ef-901a-71709cf14be6</dc:source><dc:creator>L. Shyamal</dc:creator><dc:license>http://creativecommons.org/licenses/by-sa/3.0/</dc:license></metadata><path d="M103.813 706.678c-.86-6.277 26.701-20.297 30.074-33.101-8.926 5.377-22.014 17.571-25.195 11.348 16.185-11.866 25.86-28.494 36.057-44.696 6.486-16.458 19.017-29.706 30.279-43.775 9.648-12.053 17.31-26.536 24.314-39.747 8.306-15.297-.339-19.782-8.396-24.768-6.419-3.973-11.946-9.997-17.899-14.275-9.625-6.917-24.586-8.022-37.325-6.115 13.625-7.14 12.63-.349 37.845-4.949 17.76-1.746 43.229 1.823 54.429-13.195 10.476-14.396 21.142-29.962 20.261-47.573 2.511-19.889 11.218-36.956 20.613-53.841 12.424-18.399 27.589-35.568 34.366-56.433 6.092-18.752 12.578-21.937 9.374-7.566-3.281 14.715-10.447 26.635 1.335 13.539 19.387-29.466 23.671-23.682 19.232-13.539-6.93 15.835-14.264 19.509-14.68 25.721 10.56-6.33 24.105-25.214 33.463-23.122 8.943 1.999-30.814 32.677-20.712 30.27 16.035-4.853 35.322-21.285 34.356-11.883-1.013 9.841-37.851 22.806-26.625 21.913 10.434-.411 25.879-9.49 25.409-2.456-.991 6.997-36.724 11.785-5.335 12.925 15.982 7.607-37.76 9.104-8.614 14.93 14.523 7.252-11.918 1.913-6.108 15.944-2.33 5.658-7.503 6.766-3.564 13.556-.494 15.25-4.08 31.998-11.41 50.042-8.01 17.818-7.484 24.329-21.751 39.404-20.302 13.194-13.427 21.06 9.976 17.362 23.339-3.686 39.201-5.881 38.929 12.657.068 26.473-4.024 41.398-19.772 54.535-15.747 13.137-32.487 23.804-43.696-3.33-5.22-7.733-15.567-32.381-26.286-23.121.339 17.367-5.762 26.154-12.701 41.638-12.528 27.958-27.201 36.994-30.004 49.333-4.286 8.433-16.808-1.676-11.568 11.023 2.118 12.281-20.071-2.33-13.51 13.73 2.452 7.594-.724 20.49-10.611 4.462-4.351-6.687-9.409-18.786-9.022-4.693 1.107 7.729-2.879 35.138-9.356 11.347-1.438-6.183-3.731-24.256-7.526-8.044-.186 18.313-12.345 39.46-10.465 12.33-.673-6.523 2.213-26.771-5.659-7.812-4.298 5.928-16.867 28.7-23.306 18.866l18.012-30.84c.001.002-35.794 32.462-37.228 21.999z" stroke="#000" stroke-miterlimit="10" transform="matrix(1.0243 -.04866 .10646 .96798 -181.006 -292.8)"/><path d="M28.152 190.679c-5.663.375-10.588 1.53-15.279 5.013 11.097-1.312 21.308-2.511 30.33.475a229.56 229.56 0 0 0-1.589-5.672c-4.975.047-9.418-.084-13.462.184z" stroke="#000" stroke-miterlimit="10"/></svg>