<svg xmlns="http://www.w3.org/2000/svg" xmlns:dc="http://dublincore.org/documents/dcmi-terms/" height="198" version="1.2" viewBox="0 0 897.72 198" width="897.72" overflow="inherit"><metadata><dc:description>Silhouette of Radiicephalidae, processed by PhyloPic Tools (https://github.com/eweitz/phylopic-tools)</dc:description><dc:source>http://phylopic.org/image/821bd269-919e-4794-897d-7cfc565554ab</dc:source><dc:creator>Haplochromis (vectorized by T. Michael Keesey)</dc:creator><dc:license>http://creativecommons.org/licenses/by-sa/3.0/</dc:license></metadata><path d="M45.72 0h2c-.184.851.39.943 1 1 .563 13.756-8.203 25.709 0 36 22.272-1.718 41.896-8.207 62-13 19.407-4.627 40.261-5.884 62-6 9.818-.052 20.296-1.146 31-1 20.209.274 40.823 5.194 62 8 24.752 3.279 51.823 3.26 79 4 37.672 1.026 72.097 6.003 111 9 17.688 1.363 34.32-1.267 52 0 35.117 2.516 72.051 4.808 107 10 12.901 1.917 26.067 4.118 39 6 17.559 2.556 32.055 5.789 50 6 20.344.239 52.251 5.483 68 1 6.482-1.845 7.377-9.294 13-10 2.401 1.265-.552 7.885 2 9 16.697-.039 48.221-8.471 71-11 17.449-1.938 36.565-.72 40 12v1c-8.699 30.721-54.408 38.694-90 44-45.321 6.756-98.907 13.066-139 21-3.597.403-3.554 4.446-7 5-50.205 11.492-96.001 28.454-145 42-11.331 3.133-22.635 4.852-34 8-17.443 4.832-40.551 11.881-62 16h-1v-2c-2.375-2.952-6.058 1.209-9 1-2.276-3.101 3.378-4.357-2-6 20.274-3.43 36.658-7.279 56-10 51.112-7.19 97.142-33.296 148-46 25.766-6.436 50.885-14.437 78-19 27.603-4.646 56.257-8.953 86-12 23.353-2.393 47.372-3.701 68-11 18.01-6.373 40.661-15.145 45-35-36.246-7.312-75.145 8.63-113 11-20.427 1.279-41.356 1.13-62 2-21.558.909-43.319-1.931-64 1-49.457 7.009-94.27 11.849-143 18-4.547 4.331 6.086 8.208 0 11-7.732 3.086-15.444-6.452-22-7-7.896-.66-20.412 4.03-31 6-35.772 6.656-65.843 17.602-99 24-48.388 9.338-94.062 17.946-143 20-3.146 3.36 5.65 7.267 3 10-9.645-.022-15.739-3.594-22-7-24 6.387-53.104 4.708-82 8-37.983 4.327-77.148 10.794-102 0-1.948-6.259-7.641-8.468-9-14-2.119-8.623.809-23.286 4-32 4.663-12.732 15.423-24.062 19-32-4.468-29.569 6.834-60.424 22-77z" fill-rule="evenodd"/></svg>