<svg xmlns="http://www.w3.org/2000/svg" xmlns:dc="http://dublincore.org/documents/dcmi-terms/" height="376.829" width="391.114"><metadata><dc:description>Silhouette of Rangifer, processed by PhyloPic Tools (https://github.com/eweitz/phylopic-tools)</dc:description><dc:source>http://phylopic.org/image/e6e864fd-8e3d-435f-9db3-dc6869c589f1</dc:source><dc:creator>mystica</dc:creator><dc:license>http://creativecommons.org/publicdomain/zero/1.0/</dc:license></metadata><path d="M268.767 42.081c-2.725-.495-8.5 9.273-8.5 9.273s-5.886 22.88-9.702 22.88-5.891-5.538-4.85-9.701c1.04-4.163 6.563-8.668 2.747-9.015-3.816-.347-7.295 7.284-7.642 8.671-1.01 4.04 5.573 21.493 2.104 22.881-3.47 1.388-8.333-1.01-12.149-7.255-3.816-6.244-7.64-10.407-7.64-12.835 0-2.429 1.387-3.137 0-2.79-1.389.346-2.752 2.447-2.405 6.61s5.56 11.786 8.682 16.296c3.122 4.51 10.382 5.55 10.035 14.57-.347 9.02-7.266 21.141-6.225 31.895 1.5 15.508 12.492 23.267 12.492 23.267l-6.61-1.073-.344 2.79s5.202 1.75 8.671 2.79c3.47 1.041 5.538 1.031 5.538 1.031l4.851 1.03s-5.18 1.03-6.568 1.03 1.717 1.76 1.717 1.76l12.492-1.03 9.359 3.821-.344 10.732-13.522 1.374s-12.147 4.185-16.656 2.103c-4.51-2.081-21.152-12.159-30.866-11.118-9.713 1.04-17.687 1.41-21.85 2.103-4.163.694-39.567-2.107-45.118-1.76-5.55.347-11.07.344-15.926.344-4.857 0-17.012-3.788-24.297-2.748-7.285 1.041-21.85 5.195-21.85 5.195s-8.684-3.835-11.806-2.447c-3.122 1.387-6.954 5.237-6.954 5.237l-3.091 2.747-.343 1.76 7.34-.987c-1.094.246-3.104 1.05-1.803 3.391a38.81 38.81 0 0 0 3.82 5.581s-3.14-.363-2.446 5.881c.694 6.245 4.504 17.362 4.85 19.79.348 2.428 3.835 11.789 2.448 17.686-1.388 5.898-20.477 27.045-20.477 27.045l-2.06 29.835-4.851 30.865.343 3.478-.055 5.99 15.981 4.192s2.432-2.553-.343-5.675-3.477-4.85-3.477-4.85l.73-29.836s-.353-14.229 4.85-20.82c5.204-6.591 6.912-7.985 6.912-7.985l18.416-15.583.343.687-9.358 12.492s-3.827 1.032-3.134 5.195c.694 4.163 12.472 12.493 14.553 16.656 2.081 4.163 20.133 25.67 20.133 25.67l-.343 6.569 5.194 5.237.687 3.434 2.104 3.82 10.732-.343s.357-1.012-1.03-2.747c-1.388-1.735-3.134-2.79-3.134-2.79l-.687-6.611-1.717-2.404-.344-5.538-25.327-30.908s-2.447-.674-2.447-6.225c0-5.55 3.82-7.984 3.82-7.984l14.94-15.97s13.872 7.628 26.014 9.015c12.142 1.388 36.403-3.09 36.403-3.09l5.537-.344s-4.143 15.238-6.224 23.911c-2.082 8.673-3.82 16.313-3.82 16.313s-9.714 12.486-12.836 17.343c-3.122 4.856-8.328 10.775-8.328 10.775l.055 4.148-3.532 7.38 14.662 2.06-2.514-8.05 2.83 2.087s1.321-10.41 6.872-19.43c5.55-9.02 10.41-13.188 12.492-16.657 2.081-3.469 6.262-19.43 11.118-25.327 4.857-5.898 6.612-11.806 10.775-11.806s2.404 7.985 2.404 7.985 6.934 30.534 9.015 33.656c2.082 3.122 2.79 5.88 2.79 5.88s3.478 21.877 3.478 23.611c0 1.735-2.514 7.68-2.514 7.68l14.978 3.174.371-8.45s-2.422.003-4.85-4.507c-2.429-4.51-5.588-23.92-4.894-27.388.693-3.47 1.076-6.254.73-7.641-.348-1.388-3.835-22.535-2.448-27.045 1.388-4.51 2.061-9.015 2.061-9.015l6.954-3.134 10.424-8.483s7.775-8.18 9.856-7.138c2.082 1.04 15.285-8.3 16.673-8.3l12.67-4.695 4.138-1.2 3.849-1.05s8.981-5.233 16.613-5.58c7.632-.347 15.626.73 15.626.73s2.77 3.817 4.85 4.164c2.082.347 7.642-3.82 7.642-3.82s6.238-6.62 4.85-10.089c-1.387-3.469-3.133-5.194-3.133-5.194l-30.865-17.343-3.477-2.79-.344-2.06 7.985-.344s3.826-3.325 9.724-8.702c7.51-9.274 5.657-9.804 15.793-13.495.347-1.387 9.873-2.77 8.138-4.505-1.734-1.734-5.537-6.61-5.537-6.61l-.344-5.195-3.477 2.404v3.134l-.343 2.79-2.104 1.03s-5.177-2.772-6.911-4.507c-1.735-1.734-2.79-3.134-2.79-3.134l-3.478 5.924h-2.404l2.748-6.267s-3.797 5.201-6.225 4.507c-2.428-.693 3.455-11.075 1.374-11.075-2.082 0-3.803 6.224-5.538 6.224-1.734 0-2.103-9.358-2.103-9.358s1.745-4.164-1.03-4.164c-2.776 0-4.512 5.91-4.165 7.298.347 1.388.361 12.131-1.373 13.866-1.735 1.734-16.313 10.045-16.313 10.045l-6.225-3.477s-2.457-1.025-1.416-5.881c1.04-4.857 8.358-18.74 13.908-24.985 5.551-6.244 20.463-25.31 21.85-27.044 1.388-1.735 5.54-8.68 7.274-11.455 1.483-2.372 3.827-9.022 1.398-9.022-2.428 0-4.164 5.538-4.164 5.538s-3.116 5.555-4.85 3.82c-1.735-1.734 1.373-5.194 1.373-5.194s4.851-7.646 4.851-11.462-4.49-10.746-6.225-9.358c-1.734 1.387 1.374 6.61 1.374 6.61s.357 6.211-1.03 7.6c-1.388 1.387-3.156 3.483-5.237 2.79-2.082-.694-2.061-2.405-2.061-2.405l.687-19.79s2.085-4.163-.344-4.163c-2.428 0-3.81 6.916-4.85 10.732-1.041 3.816 1.015 18.412-1.76 18.76-2.776.346-6.568-4.165-6.568-4.165s-12.832-17.337-13.18-22.194c-.199-2.79-1.416 3.82-1.416 3.82s-1.023-5.21-1.717-3.476c-.694 1.734-8.321 7.623-9.015 9.358-.694 1.735-.008 3.828-3.477 3.134-3.47-.694-2.06-8.672-2.06-8.672s6.224-13.54 6.224-15.969c0-.2-.334-.224-.515-.258zm9.53 18.288l2.103 6.954s-5.58 2.436-5.58-.687c0-3.122 3.477-6.267 3.477-6.267zm5.194 13.522s11.826 10.422 9.745 15.626c-2.082 5.204-2.79 4.164-2.79 4.164l-21.851-11.805s4.852-4.49 9.015-6.225c4.163-1.734 5.881-1.76 5.881-1.76zm-22.537 14.94l20.476 9.7s5.882 1.755 5.882 6.612-.33 12.814-1.718 14.896c-1.387 2.081-12.138 21.872-13.178 23.954-1.041 2.081-2.798 5.893-2.104 9.015.694 3.122.004 5.888-.343 5.194 0 0-9.702-2.85-22.538-11.118-6.943-4.473-4.817-17.58-4.507-19.747l9.702-24.641 5.194-11.118 3.134-2.748zm65.575 57.57l-1.741 7.98-4.508.687-2.404 2.79-5.237 5.538s-1.356 1.75-3.09 2.79c-1.735 1.041-4.508 1.374-4.508 1.374l-3.134.344-2.447-.344-3.133-1.373-4.851-2.79 14.595-6.912 7.641-2.104 6.225-1.373 6.592-6.607z" stroke="#000" stroke-width="1.374"/></svg>