<svg xmlns="http://www.w3.org/2000/svg" xmlns:dc="http://dublincore.org/documents/dcmi-terms/" height="841.89" viewBox="0 0 595.28 841.89" width="595.28"><metadata><dc:description>Silhouette of Rattus, processed by PhyloPic Tools (https://github.com/eweitz/phylopic-tools)</dc:description><dc:source>http://phylopic.org/image/726683a1-78ed-4371-9c10-c220b8716c54</dc:source><dc:creator>Rebecca Groom</dc:creator><dc:license>http://creativecommons.org/licenses/by-sa/3.0/</dc:license></metadata><path d="M21.999 478.557C45.893 450.235 49 417.89 88 349.89s86-106 115-130 120-82 149-85 46-2 73-5 97-12 116-23 54.28-34 54.28-34-14.561-17-7.28-29 13-26 28-27 33-3 40 13 11 24 11 24l23 3s-4-9 0-18 16-19 26-16 27 11 32 25 9 35 9 35l43 18s19 5 39 27 43 51 50 65 18 22 13 33-13 19.341-21 21.67c-8 2.329-23 21.33-56 19.33-4.115-.25-39.001 13-47.001 9 0 0-26.999-8-43.999-4-17 4-17 12-9 17s21.668 15.118 28 7c12.999-16.667 44.999-22.333 54.999-13.333 1.566 1.41 11.919 11.593 11.333 14.667-.793 4.166-12.763 1.405-10.666 3.333 5.075 4.667 7.383 11.44 2.334 13.333-8 3-14.334-4.667-14.334-4.667S787 302.89 786 314.89s-3.001 19.333-12.001 20.333-28.999.667-28.999.667-30 19-62 23-62 6-62 6l-37 17s16 21 26 32 31 30 35 40 9 70 9 70l-5-5-2 5s-8-1-11-6-2.588-21.312-5-28c-1.341-3.719-9-13-9-13l3 32s-16-23-18-28-11.72-6-11.72-6l-5.28-12s-18.731-16.879-26-21c-13.207-7.487-57-20.945-57-20.945s-81.575 18.32-96 39.945c-4.023 6.031 0 29 0 29l-8-6-3 13-4-6-16 18-5-6-16 28s-18 78-39 88-3 26-3 26l53 37 30 5 28 9h-25.5l-4 6-11.5-2.5-18.5-1-6 7-11-2.5-13.5-.5.5 3-17.5-2.5-3 8.5-13.5-5.5-14.5-6.5-3.5 7.5-17-8.5s-26-22-41.5-36.5-25-34-24-36.5-12.5 3-12.5 3l4-18s-23.5 15.5-23.5 14-1-15.5-1-15.5l-24 11-3-17-21.5 3.5 1-10.5-28.5 7.5-1-12-30 9.5-3-16.5-28.5 10.5 4.5-22.5s-25.5 8.5-22 7.5 10.5-17 10.5-17l-31 10 5.5-8s-125 6-178-5-274-71-294-80-203-75-247-86-85-21-89-23-5-7.08-5-7.08 10-11.08 57 0 199 53.134 227 62.08c28 8.946 183 53 211 60s125.999 32 215 33c17.028.191 77-7 77-7s39.514-23.276 47.999-33.333z" stroke="#000" stroke-width="3" stroke-miterlimit="10"/></svg>