<svg xmlns="http://www.w3.org/2000/svg" xmlns:dc="http://dublincore.org/documents/dcmi-terms/" height="463.627" viewBox="0 0 652.71468 434.65012" width="696.229"><metadata><dc:description>Silhouette of Rhinocerotidae, processed by PhyloPic Tools (https://github.com/eweitz/phylopic-tools)</dc:description><dc:source>http://phylopic.org/image/917167d9-1ead-4f9b-b19d-c0afd39357b0</dc:source><dc:creator>Zimices</dc:creator><dc:license>http://creativecommons.org/licenses/by-sa/3.0/</dc:license></metadata><path d="M395.855 432.67c-2.127-2.056-3.82-2.331-11.362-1.85-12.034.77-14.263-.535-14.263-8.346 0-7.452 3.898-13.735 9.733-15.685 2.26-.756 7.088-3.68 10.73-6.497 5.707-4.416 7.178-6.505 10.652-15.124 2.217-5.5 4.356-13.31 4.753-17.355.398-4.045 1.192-8.27 1.765-9.39.633-1.236.137-5.408-1.264-10.625-4.123-15.352-7.42-30.867-8.864-41.715-.779-5.843-2.581-14.343-4.006-18.888l-2.59-8.263-15.142-.719c-8.328-.396-18.11-1.52-21.738-2.5s-6.876-1.329-7.218-.776c-.342.553-1.978 12.99-3.636 27.639-1.747 15.427-4.022 29.525-5.408 33.507-5.135 14.751-5.844 22.243-4.285 45.3 1.577 23.335 1.624 23.064-5.213 29.86-3.294 3.274-7.992 4.84-14.522 4.84-1.892 0-4.183.895-5.09 1.989-2.259 2.72-14.462 1.282-18.157-2.14-2.337-2.165-2.8-2.222-4.215-.515-2.439 2.938-16.342 2.576-22.543-.588-2.7-1.377-5.49-3.59-6.2-4.918-2.428-4.536 2.348-11.422 10.57-15.239 2.22-1.03 4.917-3.989 6.646-7.29 1.6-3.055 4.867-7.723 7.261-10.373 10.046-11.119 12.4-16.546 14.224-32.8 2.096-18.666 2.083-19.722-.436-34.892-1.458-8.782-2.057-20.156-2.057-39.053V243.6l-12.266-12.404c-9.948-10.06-14.142-13.33-22.188-17.301-5.456-2.693-12.452-6.256-15.546-7.917-5.573-2.993-5.953-3.02-41.462-3.02h-35.836l-5.868 4.136c-3.227 2.275-8.757 5.264-12.288 6.642-7.013 2.736-12.276 6.035-24.299 15.229-10.985 8.4-15.205 9.617-33.36 9.617-13.407 0-15.693-.309-18.478-2.5-3.738-2.94-5.909-3.203-5.909-.715 0 .981-1.482 2.95-3.293 4.375-2.827 2.223-5.043 2.59-15.625 2.59-10.838 0-12.597-.307-14.52-2.536-4.857-5.632-9.879-10.35-13.32-12.514-2.081-1.309-4.342-4.322-5.293-7.055-2.193-6.296-2.104-20.151.198-31.02 2.464-11.632 2.339-17.164-.47-20.768C4.922 156.59 1.776 134.31.674 72.958L0 35.458l4.609-13.75C9.615 6.773 10.687 4.833 13.932 4.833c3.018 0 5.048 5.223 5.048 12.984 0 3.64 1.182 11.066 2.626 16.504 1.444 5.438 3.109 12.25 3.7 15.136 1.177 5.748 4.856 21.437 8.825 37.627 2.968 12.113 6.966 21.625 12.655 30.11 2.238 3.338 5.008 7.796 6.156 9.906 2.009 3.692 2.27 3.788 6.875 2.527 6.763-1.852 6.668-1.65 4.043-8.557-1.383-3.64-2.38-9.416-2.38-13.794 0-12.478 4.516-16.272 14.186-11.92 8.855 3.985 16.188 6.977 17.097 6.977.531 0 3.86-1.947 7.398-4.328 3.537-2.38 9.848-5.574 14.023-7.096l7.592-2.768-.706-5.96c-.388-3.28-2.142-9.552-3.898-13.94-2.71-6.774-3.192-9.951-3.192-21.04 0-20.047 4.3-23.786 13.993-12.166 9.002 10.792 16.29 18.548 17.428 18.548.594 0 1.08-2.445 1.08-5.433 0-3.718.823-6.383 2.61-8.438 1.435-1.652 3.454-4.41 4.487-6.129 3.485-5.801 10.157-9.737 20.182-11.905 26.037-5.63 25.386-5.389 32.388-12.011 5.136-4.858 7.359-6.16 9.992-5.853 2.61.304 3.653 1.331 4.55 4.482.814 2.854 1.77 3.923 3.165 3.544 11.131-3.02 24.24-4.402 47-4.957 24.552-.598 33.64-1.579 44.375-4.788 2.406-.72 14.32-1.585 26.473-1.923 32.248-.896 43.27 1.356 73.6 15.034 8.548 3.855 19.788 5.487 44.927 6.52l23.92 3.827 11.705 3.284c9.232 2.59 21.031 7.985 26.875 10.029 5.844 2.043 11.469 4.446 12.5 5.339 1.031.892 6.283 3.177 11.67 5.076 15.81 5.573 45.365 26.595 63.474 45.146 13.465 13.793 29.493 35.069 32.62 43.3 1.307 3.438 3.259 7.958 4.338 10.046 4.604 8.903 7.091 49.868 4.038 66.518-1.82 9.924-8.605 22.513-17.29 32.077-3.916 4.312-7.833 9.606-8.704 11.763-1.562 3.871-1.382 26.02.575 70.452.378 8.594.364 17.355-.032 19.468-.396 2.114-3.166 6.71-6.156 10.212-4.667 5.467-5.557 7.431-6.285 13.866-.85 7.51.903 22.2 3.246 27.205 3.936 8.41-3.027 13.23-18.89 13.08-5.901-.055-13.455.246-16.787.67-5.643.718-10.163-.373-18.233-4.399-6.284-3.135-4.686-10.088 3.166-13.78 3.176-1.492 5.534-2.955 5.24-3.25-.295-.294-3.693.127-7.552.937-8.984 1.884-12.487.406-15.713-6.63-3.046-6.645-2.287-9.413 3.373-12.302 2.49-1.27 5.65-3.553 7.024-5.072 1.374-1.518 4.03-3.553 5.903-4.522 2.058-1.064 5.393-5.343 8.424-10.81 5.462-9.847 6.648-18.485 3.39-24.673-4.006-7.607-6.016-10.217-19.71-25.596-8.806-9.888-15.907-19.157-18.087-23.611-3.57-7.293-9.608-13.293-13.376-13.293-1.086 0-3.665 1.423-5.732 3.162-2.067 1.74-7.032 4.323-11.033 5.74-6.651 2.357-9.27 2.524-30.515 1.943l-23.239-.635-.82 34.583c-1.336 56.243-1.1 72.01 1.2 79.921 2.37 8.15 1.789 17.122-1.61 24.909-3.691 8.453-15.584 15.76-25.338 15.568-3.05-.06-6.154.395-6.896 1.012-.742.616-6.122 1.498-11.954 1.96-9.46.75-10.874.58-13.104-1.575z"/></svg>