<svg xmlns="http://www.w3.org/2000/svg" xmlns:dc="http://dublincore.org/documents/dcmi-terms/" height="155.744" width="202.019"><metadata><dc:description>Silhouette of Rhizobiales, processed by PhyloPic Tools (https://github.com/eweitz/phylopic-tools)</dc:description><dc:source>http://phylopic.org/image/71efc51c-6042-4452-995b-a774d2116b8d</dc:source><dc:creator>Matt Crook</dc:creator><dc:license>http://creativecommons.org/licenses/by-sa/3.0/</dc:license></metadata><g transform="translate(-295.424 -496.088)" stroke="#000"><path d="M360.163 627.144c10.712-6.088 30.562-8.035 37.328-14.908 6.767-6.873 5.067-11.064 8.499-14.418 3.43-3.353 11.007-3.12 14.406-5.351 3.398-2.232 2.426-4.003 6.185-6.453 3.758-2.449 11.725-2.776 16.8-6.105 5.076-3.329 8.545-10.439 12.653-13.357 4.108-2.92 5.306-1.012 10.708-4.826 5.402-3.814 13.2-14.446 17.912-18.13 4.712-3.684 7-3.682 8.262-5.923 1.263-2.24.306-5.936.764-8.57.459-2.634 1.399-2.938 2.198-6.814.8-3.876 1.873-11.065.118-14.876-1.754-3.81-3.05-7.596-8.172-6.783-5.122.814-10.66-5.136-16.37-3.862-5.71 1.274-9.417 8.595-14.252 10.902-4.835 2.307-6.7-.956-11.983 2.427-5.282 3.384-9.61 13.694-16.116 19.113-6.506 5.42-16.644 8.001-23.002 9.877-6.358 1.876-10.441 1.441-13.56 3.993-3.118 2.552.252 5.604-3.028 10.853-3.28 5.25-8.603 9.403-19.258 17.393-10.656 7.99-42.194 27.007-45.914 28.306-3.72 1.3-12.334.137-16.86 2.915-4.525 2.777-7.282 7.904-8.636 11.548-1.354 3.644-.109 5.06-.518 8.948-.41 3.888-3.172 10.394-2.196 14.346.977 3.952 3.1 5.631 6.147 8.103 3.046 2.472 6.078 5.39 12.152 5.804 6.074.414 14.374-2.73 22.206-6.668 7.832-3.938 12.816-11.397 23.527-17.484z" fill="#fff"/><rect height="31.29" ry="15.645" style="marker:none" transform="rotate(-33.091)" width="221.419" x="-93.623" y="684.631" color="#000" stroke-linecap="round" stroke-linejoin="round" overflow="visible"/><rect height="25.29" ry="12.645" style="marker:none" transform="rotate(-33.091)" width="85.229" x="39.567" y="687.631" color="#000" fill="#666" stroke-linecap="round" stroke-linejoin="round" overflow="visible"/><path d="M300.764 578.692a6.12 6.25 0 1 1-12.24 0 6.12 6.25 0 1 1 12.24 0z" style="marker:none" transform="matrix(.82145 -.53531 .52416 .80434 -233.222 326.32)" color="#000" fill="#fff" stroke-width="1.031" stroke-linecap="round" stroke-linejoin="round" overflow="visible"/><path d="M300.764 578.692a6.12 6.25 0 1 1-12.24 0 6.12 6.25 0 1 1 12.24 0z" style="marker:none" transform="matrix(.82145 -.53531 .52416 .80434 -219.941 313.313)" color="#000" fill="#fff" stroke-width="1.031" stroke-linecap="round" stroke-linejoin="round" overflow="visible"/><path d="M300.764 578.692a6.12 6.25 0 1 1-12.24 0 6.12 6.25 0 1 1 12.24 0z" style="marker:none" transform="matrix(.82145 -.53531 .52416 .80434 -185.035 290.566)" color="#000" fill="#fff" stroke-width="1.031" stroke-linecap="round" stroke-linejoin="round" overflow="visible"/><path d="M300.764 578.692a6.12 6.25 0 1 1-12.24 0 6.12 6.25 0 1 1 12.24 0z" style="marker:none" transform="matrix(.82145 -.53531 .52416 .80434 -176.087 277.587)" color="#000" fill="#fff" stroke-width="1.031" stroke-linecap="round" stroke-linejoin="round" overflow="visible"/><path d="M300.764 578.692a6.12 6.25 0 1 1-12.24 0 6.12 6.25 0 1 1 12.24 0z" style="marker:none" transform="matrix(.68455 -.4461 .4368 .67028 -61.578 330.221)" color="#000" fill="#fff" stroke-width="1.237" stroke-linecap="round" stroke-linejoin="round" overflow="visible"/><path d="M300.764 578.692a6.12 6.25 0 1 1-12.24 0 6.12 6.25 0 1 1 12.24 0z" style="marker:none" transform="matrix(.68455 -.4461 .4368 .67028 -118.205 364.948)" color="#000" fill="#fff" stroke-width="1.237" stroke-linecap="round" stroke-linejoin="round" overflow="visible"/><path d="M300.764 578.692a6.12 6.25 0 1 1-12.24 0 6.12 6.25 0 1 1 12.24 0z" style="marker:none" transform="matrix(.68455 -.4461 .4368 .67028 -102.723 348.642)" color="#000" fill="#fff" stroke-width="1.237" stroke-linecap="round" stroke-linejoin="round" overflow="visible"/><path d="M300.764 578.692a6.12 6.25 0 1 1-12.24 0 6.12 6.25 0 1 1 12.24 0z" style="marker:none" transform="matrix(.54764 -.35688 .34944 .53623 -47.272 419.871)" color="#000" fill="#fff" stroke-width="1.546" stroke-linecap="round" stroke-linejoin="round" overflow="visible"/><path d="M300.764 578.692a6.12 6.25 0 1 1-12.24 0 6.12 6.25 0 1 1 12.24 0z" style="marker:none" transform="matrix(.54764 -.35688 .34944 .53623 -35.629 425.338)" color="#000" fill="#fff" stroke-width="1.546" stroke-linecap="round" stroke-linejoin="round" overflow="visible"/><path d="M300.764 578.692a6.12 6.25 0 1 1-12.24 0 6.12 6.25 0 1 1 12.24 0z" style="marker:none" transform="matrix(.54764 -.35688 .34944 .53623 -46.248 409.995)" color="#000" fill="#fff" stroke-width="1.546" stroke-linecap="round" stroke-linejoin="round" overflow="visible"/><path d="M300.764 578.692a6.12 6.25 0 1 1-12.24 0 6.12 6.25 0 1 1 12.24 0z" style="marker:none" transform="matrix(.54764 -.35688 .34944 .53623 -36.195 403.444)" color="#000" fill="#fff" stroke-width="1.546" stroke-linecap="round" stroke-linejoin="round" overflow="visible"/><path d="M300.764 578.692a6.12 6.25 0 1 1-12.24 0 6.12 6.25 0 1 1 12.24 0z" style="marker:none" transform="matrix(.54764 -.35688 .34944 .53623 -29.423 407.634)" color="#000" fill="#fff" stroke-width="1.546" stroke-linecap="round" stroke-linejoin="round" overflow="visible"/><path d="M300.764 578.692a6.12 6.25 0 1 1-12.24 0 6.12 6.25 0 1 1 12.24 0z" style="marker:none" transform="matrix(.54764 -.35688 .34944 .53623 -20.697 401.947)" color="#000" fill="#fff" stroke-width="1.546" stroke-linecap="round" stroke-linejoin="round" overflow="visible"/><path d="M300.764 578.692a6.12 6.25 0 1 1-12.24 0 6.12 6.25 0 1 1 12.24 0z" style="marker:none" transform="matrix(.54764 -.35688 .34944 .53623 -19.025 394.02)" color="#000" fill="#fff" stroke-width="1.546" stroke-linecap="round" stroke-linejoin="round" overflow="visible"/><path d="M300.764 578.692a6.12 6.25 0 1 1-12.24 0 6.12 6.25 0 1 1 12.24 0z" style="marker:none" transform="matrix(.54764 -.35688 .34944 .53623 -12.47 388.816)" color="#000" fill="#fff" stroke-width="1.546" stroke-linecap="round" stroke-linejoin="round" overflow="visible"/><path d="M300.764 578.692a6.12 6.25 0 1 1-12.24 0 6.12 6.25 0 1 1 12.24 0z" style="marker:none" transform="matrix(.54764 -.35688 .34944 .53623 -13.39 414.591)" color="#000" fill="#fff" stroke-width="1.546" stroke-linecap="round" stroke-linejoin="round" overflow="visible"/><path d="M300.764 578.692a6.12 6.25 0 1 1-12.24 0 6.12 6.25 0 1 1 12.24 0z" style="marker:none" transform="matrix(.54764 -.35688 .34944 .53623 -20.425 410.473)" color="#000" fill="#fff" stroke-width="1.546" stroke-linecap="round" stroke-linejoin="round" overflow="visible"/><path d="M300.764 578.692a6.12 6.25 0 1 1-12.24 0 6.12 6.25 0 1 1 12.24 0z" style="marker:none" transform="matrix(.54764 -.35688 .34944 .53623 -8.484 408.287)" color="#000" fill="#fff" stroke-width="1.546" stroke-linecap="round" stroke-linejoin="round" overflow="visible"/><path d="M300.764 578.692a6.12 6.25 0 1 1-12.24 0 6.12 6.25 0 1 1 12.24 0z" style="marker:none" transform="matrix(.54764 -.35688 .34944 .53623 9.756 397.643)" color="#000" fill="#fff" stroke-width="1.546" stroke-linecap="round" stroke-linejoin="round" overflow="visible"/><path d="M300.764 578.692a6.12 6.25 0 1 1-12.24 0 6.12 6.25 0 1 1 12.24 0z" style="marker:none" transform="matrix(.54764 -.35688 .34944 .53623 26.408 373.116)" color="#000" fill="#fff" stroke-width="1.546" stroke-linecap="round" stroke-linejoin="round" overflow="visible"/><path d="M300.764 578.692a6.12 6.25 0 1 1-12.24 0 6.12 6.25 0 1 1 12.24 0z" style="marker:none" transform="matrix(.54764 -.35688 .34944 .53623 20.321 368.069)" color="#000" fill="#fff" stroke-width="1.546" stroke-linecap="round" stroke-linejoin="round" overflow="visible"/><path d="M300.764 578.692a6.12 6.25 0 1 1-12.24 0 6.12 6.25 0 1 1 12.24 0z" style="marker:none" transform="matrix(.54764 -.35688 .34944 .53623 15.168 377.332)" color="#000" fill="#fff" stroke-width="1.546" stroke-linecap="round" stroke-linejoin="round" overflow="visible"/><path d="M300.764 578.692a6.12 6.25 0 1 1-12.24 0 6.12 6.25 0 1 1 12.24 0z" style="marker:none" transform="matrix(.54764 -.35688 .34944 .53623 17.11 385.08)" color="#000" fill="#fff" stroke-width="1.546" stroke-linecap="round" stroke-linejoin="round" overflow="visible"/><path d="M300.764 578.692a6.12 6.25 0 1 1-12.24 0 6.12 6.25 0 1 1 12.24 0z" style="marker:none" transform="matrix(.54764 -.35688 .34944 .53623 26.49 390.393)" color="#000" fill="#fff" stroke-width="1.546" stroke-linecap="round" stroke-linejoin="round" overflow="visible"/><path d="M300.764 578.692a6.12 6.25 0 1 1-12.24 0 6.12 6.25 0 1 1 12.24 0z" style="marker:none" transform="matrix(.54764 -.35688 .34944 .53623 38.219 382.75)" color="#000" fill="#fff" stroke-width="1.546" stroke-linecap="round" stroke-linejoin="round" overflow="visible"/><path d="M300.764 578.692a6.12 6.25 0 1 1-12.24 0 6.12 6.25 0 1 1 12.24 0z" style="marker:none" transform="matrix(.54764 -.35688 .34944 .53623 19.787 394.76)" color="#000" fill="#fff" stroke-width="1.546" stroke-linecap="round" stroke-linejoin="round" overflow="visible"/><path d="M300.764 578.692a6.12 6.25 0 1 1-12.24 0 6.12 6.25 0 1 1 12.24 0z" style="marker:none" transform="matrix(.54764 -.35688 .34944 .53623 43.52 376.808)" color="#000" fill="#fff" stroke-width="1.546" stroke-linecap="round" stroke-linejoin="round" overflow="visible"/><path d="M300.764 578.692a6.12 6.25 0 1 1-12.24 0 6.12 6.25 0 1 1 12.24 0z" style="marker:none" transform="matrix(.54764 -.35688 .34944 .53623 41.43 362.63)" color="#000" fill="#fff" stroke-width="1.546" stroke-linecap="round" stroke-linejoin="round" overflow="visible"/><path d="M300.764 578.692a6.12 6.25 0 1 1-12.24 0 6.12 6.25 0 1 1 12.24 0z" style="marker:none" transform="matrix(.54764 -.35688 .34944 .53623 -.432 407.937)" color="#000" fill="#fff" stroke-width="1.546" stroke-linecap="round" stroke-linejoin="round" overflow="visible"/><path d="M300.764 578.692a6.12 6.25 0 1 1-12.24 0 6.12 6.25 0 1 1 12.24 0z" style="marker:none" transform="matrix(.41073 -.26766 .26208 .40217 71.295 469.803)" color="#000" fill="#fff" stroke-width="2.061" stroke-linecap="round" stroke-linejoin="round" overflow="visible"/><path d="M300.764 578.692a6.12 6.25 0 1 1-12.24 0 6.12 6.25 0 1 1 12.24 0z" style="marker:none" transform="matrix(.41073 -.26766 .26208 .40217 62.634 476.068)" color="#000" fill="#fff" stroke-width="2.061" stroke-linecap="round" stroke-linejoin="round" overflow="visible"/><path d="M300.764 578.692a6.12 6.25 0 1 1-12.24 0 6.12 6.25 0 1 1 12.24 0z" style="marker:none" transform="matrix(.41073 -.26766 .26208 .40217 48.04 476.566)" color="#000" fill="#fff" stroke-width="2.061" stroke-linecap="round" stroke-linejoin="round" overflow="visible"/><path d="M300.764 578.692a6.12 6.25 0 1 1-12.24 0 6.12 6.25 0 1 1 12.24 0z" style="marker:none" transform="matrix(.41073 -.26766 .26208 .40217 48.123 482.417)" color="#000" fill="#fff" stroke-width="2.061" stroke-linecap="round" stroke-linejoin="round" overflow="visible"/><path d="M300.764 578.692a6.12 6.25 0 1 1-12.24 0 6.12 6.25 0 1 1 12.24 0z" style="marker:none" transform="matrix(.41073 -.26766 .26208 .40217 44.745 487.726)" color="#000" fill="#fff" stroke-width="2.061" stroke-linecap="round" stroke-linejoin="round" overflow="visible"/><path d="M300.764 578.692a6.12 6.25 0 1 1-12.24 0 6.12 6.25 0 1 1 12.24 0z" style="marker:none" transform="matrix(.41073 -.26766 .26208 .40217 39.195 465.856)" color="#000" fill="#fff" stroke-width="2.061" stroke-linecap="round" stroke-linejoin="round" overflow="visible"/><path d="M300.764 578.692a6.12 6.25 0 1 1-12.24 0 6.12 6.25 0 1 1 12.24 0z" style="marker:none" transform="matrix(.41073 -.26766 .26208 .40217 36.68 471.535)" color="#000" fill="#fff" stroke-width="2.061" stroke-linecap="round" stroke-linejoin="round" overflow="visible"/><path d="M300.764 578.692a6.12 6.25 0 1 1-12.24 0 6.12 6.25 0 1 1 12.24 0z" style="marker:none" transform="matrix(.41073 -.26766 .26208 .40217 65.31 448.217)" color="#000" fill="#fff" stroke-width="2.061" stroke-linecap="round" stroke-linejoin="round" overflow="visible"/><path d="M300.764 578.692a6.12 6.25 0 1 1-12.24 0 6.12 6.25 0 1 1 12.24 0z" style="marker:none" transform="matrix(.41073 -.26766 .26208 .40217 86.635 453.279)" color="#000" fill="#fff" stroke-width="2.061" stroke-linecap="round" stroke-linejoin="round" overflow="visible"/><path d="M300.764 578.692a6.12 6.25 0 1 1-12.24 0 6.12 6.25 0 1 1 12.24 0z" style="marker:none" transform="matrix(.41073 -.26766 .26208 .40217 94.724 453.291)" color="#000" fill="#fff" stroke-width="2.061" stroke-linecap="round" stroke-linejoin="round" overflow="visible"/><path d="M300.764 578.692a6.12 6.25 0 1 1-12.24 0 6.12 6.25 0 1 1 12.24 0z" style="marker:none" transform="matrix(.41073 -.26766 .26208 .40217 99.897 442.15)" color="#000" fill="#fff" stroke-width="2.061" stroke-linecap="round" stroke-linejoin="round" overflow="visible"/><path d="M300.764 578.692a6.12 6.25 0 1 1-12.24 0 6.12 6.25 0 1 1 12.24 0z" style="marker:none" transform="matrix(.41073 -.26766 .26208 .40217 88.339 435.385)" color="#000" fill="#fff" stroke-width="2.061" stroke-linecap="round" stroke-linejoin="round" overflow="visible"/><path d="M300.764 578.692a6.12 6.25 0 1 1-12.24 0 6.12 6.25 0 1 1 12.24 0z" style="marker:none" transform="matrix(.41073 -.26766 .26208 .40217 101.174 423.602)" color="#000" fill="#fff" stroke-width="2.061" stroke-linecap="round" stroke-linejoin="round" overflow="visible"/><path d="M300.764 578.692a6.12 6.25 0 1 1-12.24 0 6.12 6.25 0 1 1 12.24 0z" style="marker:none" transform="matrix(.41073 -.26766 .26208 .40217 112.808 430.007)" color="#000" fill="#fff" stroke-width="2.061" stroke-linecap="round" stroke-linejoin="round" overflow="visible"/><path d="M300.764 578.692a6.12 6.25 0 1 1-12.24 0 6.12 6.25 0 1 1 12.24 0z" style="marker:none" transform="matrix(.41073 -.26766 .26208 .40217 131.028 421.241)" color="#000" fill="#fff" stroke-width="2.061" stroke-linecap="round" stroke-linejoin="round" overflow="visible"/><path d="M300.764 578.692a6.12 6.25 0 1 1-12.24 0 6.12 6.25 0 1 1 12.24 0z" style="marker:none" transform="matrix(.41073 -.26766 .26208 .40217 137.022 421.376)" color="#000" fill="#fff" stroke-width="2.061" stroke-linecap="round" stroke-linejoin="round" overflow="visible"/><path d="M300.764 578.692a6.12 6.25 0 1 1-12.24 0 6.12 6.25 0 1 1 12.24 0z" style="marker:none" transform="matrix(.41073 -.26766 .26208 .40217 125.702 412.59)" color="#000" fill="#fff" stroke-width="2.061" stroke-linecap="round" stroke-linejoin="round" overflow="visible"/></g></svg>