<svg xmlns="http://www.w3.org/2000/svg" xmlns:dc="http://dublincore.org/documents/dcmi-terms/" height="204.125" width="235.577"><metadata><dc:description>Silhouette of Rhodobacterales, processed by PhyloPic Tools (https://github.com/eweitz/phylopic-tools)</dc:description><dc:source>http://phylopic.org/image/b9af515a-a071-48aa-b658-8db1bc9ac84a</dc:source><dc:creator>Matt Crook</dc:creator><dc:license>http://creativecommons.org/licenses/by-sa/3.0/</dc:license></metadata><g color="#000"><path d="M55.299 76.927c-45.65 36.153-66.207 85.714-46.087 111.12 20.121 25.407 73.073 16.754 118.724-19.398l52.343-41.452c45.65-36.152 66.207-85.713 46.086-111.12C206.245-9.33 153.292-.677 107.641 35.476L55.3 76.927z" style="marker:none" overflow="visible"/><path d="M54.49 76.293C8.508 112.707-12.037 162.827 8.428 188.668c20.464 25.842 73.959 17.328 119.94-19.085l52.72-41.751c45.98-36.414 66.524-86.534 46.06-112.376-20.465-25.84-73.96-17.327-119.94 19.086L54.49 76.293zm4.059 3.163l5.193-4.113c-.08 1.306.267 2.653 1.143 3.759a5.5 5.5 0 1 0 8.624-6.83 5.44 5.44 0 0 0-3.373-1.992l5.586-4.424a5.425 5.425 0 0 0 1.161 3.027 5.5 5.5 0 1 0 8.624-6.83 5.425 5.425 0 0 0-2.68-1.823l26.556-21.03c.475-.377.963-.73 1.44-1.102a5.44 5.44 0 0 0 1.151 4.072 5.5 5.5 0 1 0 8.623-6.83 5.46 5.46 0 0 0-3.416-1.998C159.518 3.137 205.575-3.732 223.23 18.561c5.186 6.547 7.359 14.902 6.854 24.309a5.507 5.507 0 0 0-7.551-.677 5.5 5.5 0 0 0-.897 7.727c1.8 2.273 5.026 2.728 7.388 1.124-4.383 21.935-21.358 47.934-47.398 69.865a5.48 5.48 0 0 0-1.178-3.652 5.5 5.5 0 1 0-8.623 6.83 5.487 5.487 0 0 0 3.392 2.017l-17.37 13.755a5.487 5.487 0 0 0-1.186-3.763 5.5 5.5 0 1 0-8.624 6.829 5.487 5.487 0 0 0 3.416 1.998l-25.233 19.983c-8.485 6.72-17.185 12.488-25.873 17.262a5.5 5.5 0 0 0-1.071-4.574 5.5 5.5 0 1 0-8.623 6.83 5.466 5.466 0 0 0 2.124 1.625 153.047 153.047 0 0 1-9.547 4.253 5.463 5.463 0 0 0-.794-5.431 5.5 5.5 0 1 0-8.623 6.829c.495.625 1.106 1.082 1.77 1.429-27.325 9.166-51.528 7.217-63.234-7.565-17.062-21.545-1.504-62.678 34.86-96.369a5.466 5.466 0 0 0 .96 4.94 5.5 5.5 0 0 0 8.624-6.83c-1.297-1.637-3.363-2.327-5.286-1.993a194.819 194.819 0 0 1 7.043-5.856z" style="marker:none" fill="#fff" stroke="#000" stroke-linecap="round" stroke-linejoin="round" overflow="visible"/><path d="M235.627 481.41a5.196 5.055 0 1 1-10.391 0 5.196 5.055 0 1 1 10.39 0z" style="marker:none" transform="matrix(.82988 -.6572 .67546 .85293 -442.98 -166.407)" fill="#fff" stroke="#000" stroke-width=".932" stroke-linecap="round" stroke-linejoin="round" overflow="visible"/><path d="M235.627 481.41a5.196 5.055 0 1 1-10.391 0 5.196 5.055 0 1 1 10.39 0z" style="marker:none" transform="matrix(.82988 -.6572 .67546 .85293 -436.744 -177.078)" fill="#fff" stroke="#000" stroke-width=".932" stroke-linecap="round" stroke-linejoin="round" overflow="visible"/><path d="M235.627 481.41a5.196 5.055 0 1 1-10.391 0 5.196 5.055 0 1 1 10.39 0z" style="marker:none" transform="matrix(.82988 -.6572 .67546 .85293 -414.22 -181.66)" fill="#fff" stroke="#000" stroke-width=".932" stroke-linecap="round" stroke-linejoin="round" overflow="visible"/><path d="M235.627 481.41a5.196 5.055 0 1 1-10.391 0 5.196 5.055 0 1 1 10.39 0z" style="marker:none" transform="matrix(.82988 -.6572 .67546 .85293 -418.884 -196.595)" fill="#fff" stroke="#000" stroke-width=".932" stroke-linecap="round" stroke-linejoin="round" overflow="visible"/><path d="M235.627 481.41a5.196 5.055 0 1 1-10.391 0 5.196 5.055 0 1 1 10.39 0z" style="marker:none" transform="matrix(.82988 -.6572 .67546 .85293 -426.442 -184.878)" fill="#fff" stroke="#000" stroke-width=".932" stroke-linecap="round" stroke-linejoin="round" overflow="visible"/><path d="M235.627 481.41a5.196 5.055 0 1 1-10.391 0 5.196 5.055 0 1 1 10.39 0z" style="marker:none" transform="matrix(.82988 -.6572 .67546 .85293 -427.32 -166.987)" fill="#fff" stroke="#000" stroke-width=".932" stroke-linecap="round" stroke-linejoin="round" overflow="visible"/><path d="M235.627 481.41a5.196 5.055 0 1 1-10.391 0 5.196 5.055 0 1 1 10.39 0z" style="marker:none" transform="matrix(.82988 -.6572 .67546 .85293 -404.44 -128.145)" fill="#fff" stroke="#000" stroke-width=".932" stroke-linecap="round" stroke-linejoin="round" overflow="visible"/><path d="M235.627 481.41a5.196 5.055 0 1 1-10.391 0 5.196 5.055 0 1 1 10.39 0z" style="marker:none" transform="matrix(.82988 -.6572 .67546 .85293 -397.58 -140.743)" fill="#fff" stroke="#000" stroke-width=".932" stroke-linecap="round" stroke-linejoin="round" overflow="visible"/><path d="M235.627 481.41a5.196 5.055 0 1 1-10.391 0 5.196 5.055 0 1 1 10.39 0z" style="marker:none" transform="matrix(.82988 -.6572 .67546 .85293 -392.54 -122.165)" fill="#fff" stroke="#000" stroke-width=".932" stroke-linecap="round" stroke-linejoin="round" overflow="visible"/><path d="M235.627 481.41a5.196 5.055 0 1 1-10.391 0 5.196 5.055 0 1 1 10.39 0z" style="marker:none" transform="matrix(.82988 -.6572 .67546 .85293 -385.505 -134.543)" fill="#fff" stroke="#000" stroke-width=".932" stroke-linecap="round" stroke-linejoin="round" overflow="visible"/><path d="M235.627 481.41a5.196 5.055 0 1 1-10.391 0 5.196 5.055 0 1 1 10.39 0z" style="marker:none" transform="matrix(.82988 -.6572 .67546 .85293 -372.183 -132.196)" fill="#fff" stroke="#000" stroke-width=".932" stroke-linecap="round" stroke-linejoin="round" overflow="visible"/><path d="M235.627 481.41a5.196 5.055 0 1 1-10.391 0 5.196 5.055 0 1 1 10.39 0z" style="marker:none" transform="matrix(.82988 -.6572 .67546 .85293 -378.547 -113.543)" fill="#fff" stroke="#000" stroke-width=".932" stroke-linecap="round" stroke-linejoin="round" overflow="visible"/><path d="M235.627 481.41a5.196 5.055 0 1 1-10.391 0 5.196 5.055 0 1 1 10.39 0z" style="marker:none" transform="matrix(.82988 -.6572 .67546 .85293 -392.711 -105.192)" fill="#fff" stroke="#000" stroke-width=".932" stroke-linecap="round" stroke-linejoin="round" overflow="visible"/><path d="M235.627 481.41a5.196 5.055 0 1 1-10.391 0 5.196 5.055 0 1 1 10.39 0z" style="marker:none" transform="matrix(.82988 -.6572 .67546 .85293 -452.525 -72.153)" fill="#fff" stroke="#000" stroke-width=".932" stroke-linecap="round" stroke-linejoin="round" overflow="visible"/><path d="M235.627 481.41a5.196 5.055 0 1 1-10.391 0 5.196 5.055 0 1 1 10.39 0z" style="marker:none" transform="matrix(.82988 -.6572 .67546 .85293 -467.966 -71.747)" fill="#fff" stroke="#000" stroke-width=".932" stroke-linecap="round" stroke-linejoin="round" overflow="visible"/><path d="M235.627 481.41a5.196 5.055 0 1 1-10.391 0 5.196 5.055 0 1 1 10.39 0z" style="marker:none" transform="matrix(.82988 -.6572 .67546 .85293 -497.097 -79.128)" fill="#fff" stroke="#000" stroke-width=".932" stroke-linecap="round" stroke-linejoin="round" overflow="visible"/><path d="M235.627 481.41a5.196 5.055 0 1 1-10.391 0 5.196 5.055 0 1 1 10.39 0z" style="marker:none" transform="matrix(.82988 -.6572 .67546 .85293 -499.88 -101.642)" fill="#fff" stroke="#000" stroke-width=".932" stroke-linecap="round" stroke-linejoin="round" overflow="visible"/><path d="M235.627 481.41a5.196 5.055 0 1 1-10.391 0 5.196 5.055 0 1 1 10.39 0z" style="marker:none" transform="matrix(.82988 -.6572 .67546 .85293 -492.775 -128.406)" fill="#fff" stroke="#000" stroke-width=".932" stroke-linecap="round" stroke-linejoin="round" overflow="visible"/><path d="M235.627 481.41a5.196 5.055 0 1 1-10.391 0 5.196 5.055 0 1 1 10.39 0z" style="marker:none" transform="matrix(.82988 -.6572 .67546 .85293 -487.837 -115.837)" fill="#fff" stroke="#000" stroke-width=".932" stroke-linecap="round" stroke-linejoin="round" overflow="visible"/><path d="M235.627 481.41a5.196 5.055 0 1 1-10.391 0 5.196 5.055 0 1 1 10.39 0z" style="marker:none" transform="matrix(.82988 -.6572 .67546 .85293 -478.664 -125.968)" fill="#fff" stroke="#000" stroke-width=".932" stroke-linecap="round" stroke-linejoin="round" overflow="visible"/><path d="M235.627 481.41a5.196 5.055 0 1 1-10.391 0 5.196 5.055 0 1 1 10.39 0z" style="marker:none" transform="matrix(.82988 -.6572 .67546 .85293 -482.541 -104.627)" fill="#fff" stroke="#000" stroke-width=".932" stroke-linecap="round" stroke-linejoin="round" overflow="visible"/><path d="M235.627 481.41a5.196 5.055 0 1 1-10.391 0 5.196 5.055 0 1 1 10.39 0z" style="marker:none" transform="matrix(.82988 -.6572 .67546 .85293 -470.494 -101.628)" fill="#fff" stroke="#000" stroke-width=".932" stroke-linecap="round" stroke-linejoin="round" overflow="visible"/><path d="M235.627 481.41a5.196 5.055 0 1 1-10.391 0 5.196 5.055 0 1 1 10.39 0z" style="marker:none" transform="matrix(.82988 -.6572 .67546 .85293 -473.538 -89.187)" fill="#fff" stroke="#000" stroke-width=".932" stroke-linecap="round" stroke-linejoin="round" overflow="visible"/><path d="M235.627 481.41a5.196 5.055 0 1 1-10.391 0 5.196 5.055 0 1 1 10.39 0z" style="marker:none" transform="matrix(.82988 -.6572 .67546 .85293 -486.74 -89.12)" fill="#fff" stroke="#000" stroke-width=".932" stroke-linecap="round" stroke-linejoin="round" overflow="visible"/><path d="M235.627 481.41a5.196 5.055 0 1 1-10.391 0 5.196 5.055 0 1 1 10.39 0z" style="marker:none" transform="matrix(.82988 -.6572 .67546 .85293 -336.258 -150.616)" fill="#fff" stroke="#000" stroke-width=".932" stroke-linecap="round" stroke-linejoin="round" overflow="visible"/><path d="M235.627 481.41a5.196 5.055 0 1 1-10.391 0 5.196 5.055 0 1 1 10.39 0z" style="marker:none" transform="matrix(.82988 -.6572 .67546 .85293 -326.873 -159.122)" fill="#fff" stroke="#000" stroke-width=".932" stroke-linecap="round" stroke-linejoin="round" overflow="visible"/><path d="M235.627 481.41a5.196 5.055 0 1 1-10.391 0 5.196 5.055 0 1 1 10.39 0z" style="marker:none" transform="matrix(.82988 -.6572 .67546 .85293 -311.747 -175.759)" fill="#fff" stroke="#000" stroke-width=".932" stroke-linecap="round" stroke-linejoin="round" overflow="visible"/><path d="M235.627 481.41a5.196 5.055 0 1 1-10.391 0 5.196 5.055 0 1 1 10.39 0z" style="marker:none" transform="matrix(.82988 -.6572 .67546 .85293 -336.62 -237.023)" fill="#fff" stroke="#000" stroke-width=".932" stroke-linecap="round" stroke-linejoin="round" overflow="visible"/><path d="M235.627 481.41a5.196 5.055 0 1 1-10.391 0 5.196 5.055 0 1 1 10.39 0z" style="marker:none" transform="matrix(.82988 -.6572 .67546 .85293 -347.87 -241.728)" fill="#fff" stroke="#000" stroke-width=".932" stroke-linecap="round" stroke-linejoin="round" overflow="visible"/><path d="M235.627 481.41a5.196 5.055 0 1 1-10.391 0 5.196 5.055 0 1 1 10.39 0z" style="marker:none" transform="matrix(.82988 -.6572 .67546 .85293 -349.207 -228.489)" fill="#fff" stroke="#000" stroke-width=".932" stroke-linecap="round" stroke-linejoin="round" overflow="visible"/><path d="M235.627 481.41a5.196 5.055 0 1 1-10.391 0 5.196 5.055 0 1 1 10.39 0z" style="marker:none" transform="matrix(.82988 -.6572 .67546 .85293 -367.84 -229.853)" fill="#fff" stroke="#000" stroke-width=".932" stroke-linecap="round" stroke-linejoin="round" overflow="visible"/><path d="M235.627 481.41a5.196 5.055 0 1 1-10.391 0 5.196 5.055 0 1 1 10.39 0z" style="marker:none" transform="matrix(.82988 -.6572 .67546 .85293 -403.287 -201.782)" fill="#fff" stroke="#000" stroke-width=".932" stroke-linecap="round" stroke-linejoin="round" overflow="visible"/><path d="M235.627 481.41a5.196 5.055 0 1 1-10.391 0 5.196 5.055 0 1 1 10.39 0z" style="marker:none" transform="matrix(.82988 -.6572 .67546 .85293 -390.194 -197.462)" fill="#fff" stroke="#000" stroke-width=".932" stroke-linecap="round" stroke-linejoin="round" overflow="visible"/><path d="M235.627 481.41a5.196 5.055 0 1 1-10.391 0 5.196 5.055 0 1 1 10.39 0z" style="marker:none" transform="matrix(.82988 -.6572 .67546 .85293 -380.807 -188.776)" fill="#fff" stroke="#000" stroke-width=".932" stroke-linecap="round" stroke-linejoin="round" overflow="visible"/><path d="M235.627 481.41a5.196 5.055 0 1 1-10.391 0 5.196 5.055 0 1 1 10.39 0z" style="marker:none" transform="matrix(.82988 -.6572 .67546 .85293 -337.374 -190.93)" fill="#333" stroke="#000" stroke-width=".932" stroke-linecap="round" stroke-linejoin="round" overflow="visible"/><path d="M235.627 481.41a5.196 5.055 0 1 1-10.391 0 5.196 5.055 0 1 1 10.39 0z" style="marker:none" transform="matrix(.82988 -.6572 .67546 .85293 -338.753 -204.884)" fill="#333" stroke="#000" stroke-width=".932" stroke-linecap="round" stroke-linejoin="round" overflow="visible"/><path d="M235.627 481.41a5.196 5.055 0 1 1-10.391 0 5.196 5.055 0 1 1 10.39 0z" style="marker:none" transform="matrix(1.0562 -.83644 .85968 1.08555 -583.513 -207.001)" fill="#333" stroke="#000" stroke-width=".732" stroke-linecap="round" stroke-linejoin="round" overflow="visible"/><path d="M235.627 481.41a5.196 5.055 0 1 1-10.391 0 5.196 5.055 0 1 1 10.39 0z" style="marker:none" transform="matrix(1.0562 -.83644 .85968 1.08555 -588.01 -219.919)" fill="#333" stroke="#000" stroke-width=".732" stroke-linecap="round" stroke-linejoin="round" overflow="visible"/><path d="M167.001 59.44a12 12 45.848 1 1-18.814 14.9A12 12 45.848 1 1 167 59.44z" style="marker:none" fill="#fff" stroke-width=".427" overflow="visible"/><path d="M161.673 86.85a20.5 20.5 50.588 1 1-32.142 25.455 20.5 20.5 50.588 1 1 32.142-25.455z" style="marker:none" fill="#fff" stroke-width=".25" overflow="visible"/></g></svg>