<svg xmlns="http://www.w3.org/2000/svg" xmlns:dc="http://dublincore.org/documents/dcmi-terms/" height="231.068" width="337.352"><metadata><dc:description>Silhouette of Rhodopirellula baltica, processed by PhyloPic Tools (https://github.com/eweitz/phylopic-tools)</dc:description><dc:source>http://phylopic.org/image/daca9c46-ca05-4e7d-8018-89867a812804</dc:source><dc:creator>Matt Crook</dc:creator><dc:license>http://creativecommons.org/licenses/by-sa/3.0/</dc:license></metadata><g stroke="#000"><path d="M242.508 188.032c7.407.837 21.435.016 33.306-4.429 11.87-4.445 26.584-12.967 35.408-23.424 8.824-10.457 12.643-22.206 16-36.268 3.356-14.061.863-33.326 2.503-47.034 1.641-13.708 7.215-23.894 6.576-35.123-.639-11.23-3.144-23.445-9.345-30.349-6.2-6.904-12.95-8.427-21.983-9.447-9.033-1.02-15.86-3.019-30.115 5.51-14.255 8.53-32.087 37.268-43.068 53.982-10.98 16.715-20.176 30.598-23.928 44.963-3.753 14.364-3.415 26.68-.839 38.136 2.576 11.456 9.865 22.468 14.467 28.884 4.601 6.415 6.932 8.339 10.598 10.709 3.665 2.37 3.014 3.053 10.42 3.89z" fill="none" stroke-width="2"/><path d="M307.398 92.57c-8.61-3.906-17.014-8.124-25.918-11.251-8.904-3.127-18.168-5.113-27.296-7.436zM294.183 142.447c-1.982-4.087-2.565-8.149-10.628-13.138-8.063-4.99-21.7-10.914-30.91-13.543-9.212-2.629-13.972-1.323-18.703-1.078zM289.389 162.878c-2.204 3.142-4.746 9.35-11.616 12.851-6.871 3.502-17.024 3.761-28.037 7.354zM234.925 179.341c-5.29-7.13-10.96-14.636-14.026-23.469-3.065-8.833-3.019-17.53-3.607-27.335z" stroke-width="2" stroke-linecap="round" stroke-linejoin="round"/><path d="M296.598 37.71c8.143 1.525 15.98-3.84 17.504-11.983 1.525-8.143-3.84-15.98-11.983-17.504-.406-.076-.807-.121-1.21-.163 6.078 1.789 9.93 7.928 8.739 14.29-1.27 6.785-7.801 11.256-14.587 9.986-6.362-1.191-10.686-7.034-10.155-13.347-.11.4-.214.801-.291 1.217-1.525 8.143 3.84 15.98 11.983 17.504z" style="marker:none" color="#000" stroke-width="2" stroke-linejoin="round" overflow="visible"/><path d="M278.609 129.837c1.126 5.107-5.25 6.894-8.66 10.012-3.412 3.118-9.795 4.271-11.764 8.462-1.97 4.19-.642 9.837.91 13.258 1.553 3.42 7.639 1.872 6.53 6.554-1.11 4.682-13.185 6.744-18.613 6.21-5.43-.535-8.218-5.331-11.387-6.494-3.17-1.163-4.023 1.176-7.025-1.316-3.002-2.491-7.58-11.903-5.887-15.159 1.693-3.256 3.33 1.714 5.59-1.377s-6.944-15.512-1.147-17.18c5.797-1.667 4.631 17.528 8.99 16.71 4.36-.818-.67-5.347.935-7.581 1.604-2.234 6.09-1.624 7.989-3.836 1.899-2.212 2.455-4.97 2.515-8.255.06-3.284-6.098-7.204-2.842-10.71 3.255-3.508 11.64 1.456 17.327 3.243 5.688 1.787 15.413 2.351 16.539 7.459z"/><path d="M24.775 91.955a3.573 3.812 0 1 1-7.146 0 3.573 3.812 0 1 1 7.146 0z" style="marker:none" transform="matrix(-.96274 -.18024 .16897 -.90257 318.119 214.58)" color="#000" stroke-width="2.109" stroke-linecap="round" stroke-linejoin="round" overflow="visible"/><path d="M24.775 91.955a3.573 3.812 0 1 1-7.146 0 3.573 3.812 0 1 1 7.146 0z" style="marker:none" transform="matrix(-.96274 -.18024 .16897 -.90257 312.854 227.168)" color="#000" stroke-width="2.109" stroke-linecap="round" stroke-linejoin="round" overflow="visible"/><path d="M24.775 91.955a3.573 3.812 0 1 1-7.146 0 3.573 3.812 0 1 1 7.146 0z" style="marker:none" transform="matrix(-.96274 -.18024 .16897 -.90257 311.073 241.86)" color="#000" stroke-width="2.109" stroke-linecap="round" stroke-linejoin="round" overflow="visible"/><path d="M24.775 91.955a3.573 3.812 0 1 1-7.146 0 3.573 3.812 0 1 1 7.146 0z" style="marker:none" transform="matrix(-.96274 -.18024 .16897 -.90257 297.199 238.294)" color="#000" stroke-width="2.109" stroke-linecap="round" stroke-linejoin="round" overflow="visible"/><path d="M24.775 91.955a3.573 3.812 0 1 1-7.146 0 3.573 3.812 0 1 1 7.146 0z" style="marker:none" transform="matrix(-.96274 -.18024 .16897 -.90257 286.988 251.409)" color="#000" stroke-width="2.109" stroke-linecap="round" stroke-linejoin="round" overflow="visible"/><path d="M24.775 91.955a3.573 3.812 0 1 1-7.146 0 3.573 3.812 0 1 1 7.146 0z" style="marker:none" transform="matrix(-.96274 -.18024 .16897 -.90257 272.087 240.379)" color="#000" stroke-width="2.109" stroke-linecap="round" stroke-linejoin="round" overflow="visible"/><path d="M24.775 91.955a3.573 3.812 0 1 1-7.146 0 3.573 3.812 0 1 1 7.146 0z" style="marker:none" transform="matrix(-.96274 -.18024 .16897 -.90257 283.675 232.854)" color="#000" stroke-width="2.109" stroke-linecap="round" stroke-linejoin="round" overflow="visible"/><path d="M24.775 91.955a3.573 3.812 0 1 1-7.146 0 3.573 3.812 0 1 1 7.146 0z" style="marker:none" transform="matrix(-.96274 -.18024 .16897 -.90257 310.476 201.032)" color="#000" stroke-width="2.109" stroke-linecap="round" stroke-linejoin="round" overflow="visible"/><path d="M24.775 91.955a3.573 3.812 0 1 1-7.146 0 3.573 3.812 0 1 1 7.146 0z" style="marker:none" transform="matrix(-.96274 -.18024 .16897 -.90257 324.466 198.804)" color="#000" stroke-width="2.109" stroke-linecap="round" stroke-linejoin="round" overflow="visible"/><path d="M24.775 91.955a3.573 3.812 0 1 1-7.146 0 3.573 3.812 0 1 1 7.146 0z" style="marker:none" transform="matrix(-.96274 -.18024 .16897 -.90257 304.384 184.38)" color="#000" stroke-width="2.109" stroke-linecap="round" stroke-linejoin="round" overflow="visible"/><path d="M24.775 91.955a3.573 3.812 0 1 1-7.146 0 3.573 3.812 0 1 1 7.146 0z" style="marker:none" transform="matrix(-.96274 -.18024 .16897 -.90257 289.34 184.472)" color="#000" stroke-width="2.109" stroke-linecap="round" stroke-linejoin="round" overflow="visible"/><path d="M24.775 91.955a3.573 3.812 0 1 1-7.146 0 3.573 3.812 0 1 1 7.146 0z" style="marker:none" transform="matrix(-.96274 -.18024 .16897 -.90257 294.408 201.417)" color="#000" stroke-width="2.109" stroke-linecap="round" stroke-linejoin="round" overflow="visible"/><path d="M24.775 91.955a3.573 3.812 0 1 1-7.146 0 3.573 3.812 0 1 1 7.146 0z" style="marker:none" transform="matrix(-.96274 -.18024 .16897 -.90257 284.663 206.863)" color="#000" stroke-width="2.109" stroke-linecap="round" stroke-linejoin="round" overflow="visible"/><path d="M24.775 91.955a3.573 3.812 0 1 1-7.146 0 3.573 3.812 0 1 1 7.146 0z" style="marker:none" transform="matrix(-.96274 -.18024 .16897 -.90257 281.528 195.128)" color="#000" stroke-width="2.109" stroke-linecap="round" stroke-linejoin="round" overflow="visible"/><path d="M24.775 91.955a3.573 3.812 0 1 1-7.146 0 3.573 3.812 0 1 1 7.146 0z" style="marker:none" transform="matrix(-.96274 -.18024 .16897 -.90257 273.1 201.306)" color="#000" stroke-width="2.109" stroke-linecap="round" stroke-linejoin="round" overflow="visible"/><path d="M24.775 91.955a3.573 3.812 0 1 1-7.146 0 3.573 3.812 0 1 1 7.146 0z" style="marker:none" transform="matrix(-.96274 -.18024 .16897 -.90257 261.273 189.397)" color="#000" stroke-width="2.109" stroke-linecap="round" stroke-linejoin="round" overflow="visible"/><path d="M24.775 91.955a3.573 3.812 0 1 1-7.146 0 3.573 3.812 0 1 1 7.146 0z" style="marker:none" transform="matrix(-.96274 -.18024 .16897 -.90257 278.627 179.558)" color="#000" stroke-width="2.109" stroke-linecap="round" stroke-linejoin="round" overflow="visible"/><path d="M24.775 91.955a3.573 3.812 0 1 1-7.146 0 3.573 3.812 0 1 1 7.146 0z" style="marker:none" transform="matrix(-.96274 -.18024 .16897 -.90257 269.376 172.01)" color="#000" stroke-width="2.109" stroke-linecap="round" stroke-linejoin="round" overflow="visible"/><path d="M24.775 91.955a3.573 3.812 0 1 1-7.146 0 3.573 3.812 0 1 1 7.146 0z" style="marker:none" transform="matrix(-.96274 -.18024 .16897 -.90257 255.151 170.316)" color="#000" stroke-width="2.109" stroke-linecap="round" stroke-linejoin="round" overflow="visible"/><path d="M24.775 91.955a3.573 3.812 0 1 1-7.146 0 3.573 3.812 0 1 1 7.146 0z" style="marker:none" transform="matrix(-.96274 -.18024 .16897 -.90257 248.013 182.552)" color="#000" stroke-width="2.109" stroke-linecap="round" stroke-linejoin="round" overflow="visible"/><path d="M24.775 91.955a3.573 3.812 0 1 1-7.146 0 3.573 3.812 0 1 1 7.146 0z" style="marker:none" transform="matrix(-.96274 -.18024 .16897 -.90257 243.567 193.353)" color="#000" stroke-width="2.109" stroke-linecap="round" stroke-linejoin="round" overflow="visible"/><path d="M24.775 91.955a3.573 3.812 0 1 1-7.146 0 3.573 3.812 0 1 1 7.146 0z" style="marker:none" transform="matrix(-.96274 -.18024 .16897 -.90257 234.522 187.297)" color="#000" stroke-width="2.109" stroke-linecap="round" stroke-linejoin="round" overflow="visible"/><path d="M24.775 91.955a3.573 3.812 0 1 1-7.146 0 3.573 3.812 0 1 1 7.146 0z" style="marker:none" transform="matrix(-.96274 -.18024 .16897 -.90257 231.006 175.005)" color="#000" stroke-width="2.109" stroke-linecap="round" stroke-linejoin="round" overflow="visible"/><path d="M24.775 91.955a3.573 3.812 0 1 1-7.146 0 3.573 3.812 0 1 1 7.146 0z" style="marker:none" transform="matrix(-.96274 -.18024 .16897 -.90257 240.867 163.764)" color="#000" stroke-width="2.109" stroke-linecap="round" stroke-linejoin="round" overflow="visible"/><path d="M24.775 91.955a3.573 3.812 0 1 1-7.146 0 3.573 3.812 0 1 1 7.146 0z" style="marker:none" transform="matrix(-.96274 -.18024 .16897 -.90257 222.232 198.568)" color="#000" stroke-width="2.109" stroke-linecap="round" stroke-linejoin="round" overflow="visible"/><path d="M24.775 91.955a3.573 3.812 0 1 1-7.146 0 3.573 3.812 0 1 1 7.146 0z" style="marker:none" transform="matrix(-.96274 -.18024 .16897 -.90257 232.976 205.912)" color="#000" stroke-width="2.109" stroke-linecap="round" stroke-linejoin="round" overflow="visible"/><path d="M24.775 91.955a3.573 3.812 0 1 1-7.146 0 3.573 3.812 0 1 1 7.146 0z" style="marker:none" transform="matrix(-.96274 -.18024 .16897 -.90257 243.193 216.065)" color="#000" stroke-width="2.109" stroke-linecap="round" stroke-linejoin="round" overflow="visible"/><path d="M24.775 91.955a3.573 3.812 0 1 1-7.146 0 3.573 3.812 0 1 1 7.146 0z" style="marker:none" transform="matrix(-.96274 -.18024 .16897 -.90257 221.768 213.993)" color="#000" stroke-width="2.109" stroke-linecap="round" stroke-linejoin="round" overflow="visible"/><path d="M236.72 187.242c-10.32 6.793-23.109 17.605-37.581 22.723-14.472 5.12-27.168 7.395-47.881 4.609-20.714-2.787-42.015-15.823-63.868-18.744-21.854-2.92-45.304-1.02-60.671 5.607C11.35 208.064 6.763 220 1 230.068" fill="none" stroke-width="2" stroke-linecap="round"/></g></svg>