<svg xmlns="http://www.w3.org/2000/svg" xmlns:dc="http://dublincore.org/documents/dcmi-terms/" height="44.503" width="44.768"><metadata><dc:description>Silhouette of Rhodocyclales, processed by PhyloPic Tools (https://github.com/eweitz/phylopic-tools)</dc:description><dc:source>http://phylopic.org/image/716e5a99-fb25-47ac-a37b-9d21d70ffdbf</dc:source><dc:creator>Matt Crook</dc:creator><dc:license>http://creativecommons.org/licenses/by-sa/3.0/</dc:license></metadata><g fill="none" stroke="#000" stroke-linecap="round"><path d="M810.019 671.192c0-4.219 3.479-7.639 7.77-7.639 4.292 0 7.772 3.42 7.772 7.64 0 4.218-3.48 7.639-7.771 7.639" transform="matrix(.64343 0 0 .65452 -507.886 -416.266)" stroke-width="7.705"/><path d="M817.79 663.553c4.291 0 7.77 3.42 7.77 7.64 0 4.218-3.479 7.639-7.77 7.639-4.292 0-7.771-3.42-7.771-7.64" transform="matrix(.64343 0 0 .65452 -505.251 -402.305)" stroke-width="7.705"/><path d="M8.125 18.256a5 5 0 1 1-1.249-9.922" stroke-width="5"/><path d="M812.295 676.594a7.551 7.551 0 0 1-2.276-5.402c0-4.219 3.479-7.639 7.77-7.639 4.292 0 7.772 3.42 7.772 7.64 0 4.218-3.48 7.639-7.771 7.639" transform="matrix(.64343 0 0 .65452 -504.461 -431.808)" stroke-width="7.705"/><path d="M34.47 31.401a5 5 0 1 1 6.942-1.348" stroke-width="5"/></g></svg>