<svg xmlns="http://www.w3.org/2000/svg" xmlns:dc="http://dublincore.org/documents/dcmi-terms/" height="375.561" version="1.2" viewBox="0 0 147.045 375.561" width="147.045" overflow="inherit"><metadata><dc:description>Silhouette of Rotaria neptunia, processed by PhyloPic Tools (https://github.com/eweitz/phylopic-tools)</dc:description><dc:source>http://phylopic.org/image/1ca8bd5b-bac7-4ecf-ba5b-acf464e91a60</dc:source><dc:creator>Diego Fontaneto, Elisabeth A. Herniou, Chiara Boschetti, Manuela Caprioli, Giulio Melone, Claudia Ricci, and Timothy G. Barraclough (vectorized by T. Michael Keesey)</dc:creator><dc:license>http://creativecommons.org/licenses/by/3.0/</dc:license></metadata><path d="M130.102 0h.248c1.271.395 3.176.549 4.337.867 1.287 2.086 5.341 3.759 2.726 7.063 2.604.121 2.893 3.065 5.08 3.593.729 1.419 1.079 3.216 2.726 3.717.216 1.012 1.448 1.467 1.735 2.478.343 1.208-.401 2.446-.124 3.717-.748.821-1.401 1.737-2.974 1.734-.682.475-1.249 1.064-2.354 1.115-.445 1.722-3.097.778-3.098 2.726-.347-.231-.623-.534-.991-.744-.677.191-1.267.468-1.982.62.106.982-.53 2.048-1.115 2.726-1.541.068-2.542 1.773-3.965 1.611-.304-.035-.14-.193-.496-.372-.11-.056-.386.069-.495 0-.056-.036.056-.337 0-.372-.133-.082-.442-.001-.62-.124-.638-.44-2.024-.537-3.222-.991-.518-.196-1.063-.633-1.982-.743-1.37.777-1.941 2.353-3.221 3.222.139.521.43.891.495 1.487-.172.2-.351.392-.495.62-.494.04-.916.007-1.115-.248-.146.351-.539.452-.62.867-6.632 4.189-9.293 12.35-14.621 17.843-.285 1.243-1.438 1.618-1.734 2.85-2.628 2.577-4.453 5.956-7.311 8.302-.104.144-.163.333-.124.62-1.976.998-2.796 3.151-4.832 4.089-.344.647-.824 1.158-1.487 1.487-4.438 4.319-9.405 8.107-14.249 12.019.031.568-.592.482-.62.991-.46-.047-.324.502-.867.372-1.679 2.368-4.277 3.818-6.072 6.071-4.799 4.205-9.591 8.417-15.488 11.523-.306.148-.484.424-.619.743-2.377.518-4.238 2.616-6.939 3.222-.163.333-.71.281-.744.744-.788.038-1.383.269-1.61.867-3.776.904-5.93 3.797-8.921 5.7-2.161 1.374-4.764 2.179-7.559 3.098-.238.577-.615.437-1.363.867-1.093.629-1.524 1.855-2.974.744-.131.941-.369 1.959-.496 2.974-.05.402-.162 1.14-.124 1.487.09.823.792 1.371.62 2.23.118.449-.535.126-.62.372 1.143 1.353.488 3.496.743 5.7.212 1.831.961 3.769 1.487 5.7.596 2.191 1.48 4.47 1.859 6.691.153.9.104 1.855.248 2.726.25 1.519.573 2.557.744 4.213.127 1.231.687 2.106.248 3.346-.947-.122-1.196.455-1.734.743 1.364 8.325 1.72 18.287 3.469 27.383.193.441-.421.075-.372.372.519 5.091 1.038 10.179 1.611 14.993-.271 2.659-.174 5.255-.372 7.806.109.398-.409.169-.372.496.342.979.042 1.939.248 2.974.128.647.554 1.304.619 1.982.046.47-.16 1-.124 1.487.027.368.331.745.372 1.115.406 3.67-1.153 7.028.372 10.408-.623 2.159.969 5.23.372 7.311.5 2.261-.09 4.712.496 6.939-.499 1.008.106 2.087.124 3.222.002.106-.258.379-.248.495.031.331.326.684.372.991.077.516-.146 1.097-.124 1.611.049 1.15.402 2.312.496 3.469.043.535-.182 1.108-.124 1.611.047.408.346.739.372 1.115.03.439-.26.809-.248 1.239.008.276.34.604.372.867.064.532-.157 1.101-.124 1.61.253 3.892 1.138 8.747 1.115 13.258-.199.173-.132.612-.372.744.233 1.247.245 3.358-.248 4.46.401.609-.032 1.284.496 1.735-.1.106-.339.073-.372.247-.169 1.268.2 3.033-.248 4.709.491.748-.282 1.812.248 2.479-.268.551-.348 1.311 0 1.982-.25 3.342-.445 5.923 0 9.045-.369 1.125.006 2.655-.496 3.841.935 2.116 4.68.151 5.947 1.611.531.076.505-.403.991-.372.528 1.086 2.578 1.802 3.346 1.239-.167-.825-1.754-.229-1.735-1.239 1.534-.039 2.624.612 2.478 2.354-2.809-.771-7.284-.535-10.78-1.487-.288.084-.181.562-.496.619.319 4.303-1.225 8.486-.867 12.887.63 7.75-.86 15.621-1.115 23.171-.15 4.441-.641 8.857-.867 13.01.068.386.101.808.248 1.115-.679 6.203.375 12.739 1.611 18.339.469 2.126 1.102 4.232 1.239 6.318.039.498.583.491.496 1.115-.292.249-.83.327-1.239.124-2.122-4.906-3.154-11.4-3.841-17.347-.291 3.462-.502 6.873-1.115 10.284-.276 1.537-.66 2.7-1.115 4.708-.204.9-.445 1.706-1.115 2.23-.585.007-.704-.452-.991-.743.544-.736.562-1.999.744-3.098-.842.438-.448 2.113-1.239 2.603-.381 1.465-.4 2.788-1.611 3.221-.259-.195-.218-.69-.496-.867.806-3.678 2.276-7.15 3.098-10.903.782-3.573.85-7.245 1.487-10.904.938-5.392 1.066-11.824 1.487-17.966.228-3.322.205-6.682.248-10.161.077-6.286 1.073-13 1.115-19.081.011-1.647-.135-3.361.248-4.957-.355-.636-.227-1.755-.248-2.726-3.015.603-5.211.81-7.93.372-1.578-.875-3.148-.153-5.08-.496-.215.711.524.468.496.991-.578.432-.943-.151-1.611.124.105-.725-.393-.846-.248-1.61.351-.021.289.372.62.372 1.654-1.125 4.102-.184 5.948-1.115 2.8.484 5.191.822 7.311-.496-.293-2.583.271-4.889.496-7.311.066-.714-.177-1.421-.124-2.106.021-.272.354-.495.372-.743.019-.258-.264-.494-.248-.744.185-2.769.409-5.521.743-8.301-.121-2.976.2-6.349-.124-9.417.44-1.081-.157-1.819.248-2.974-.002-.37-.584-.159-.744-.372.245-.569-.219-1.1.248-1.363-.174-.321-.172-.819-.372-1.115.079-2.554-.249-5.199-.62-7.558-.107-.678.109-1.391 0-2.107-.413-2.713-.798-5.979-.991-9.045-.077-1.213-.274-2.402-.496-3.593-.19-1.023.036-2.075-.124-2.974-.221-1.243-.714-2.292-.867-3.47-.257-1.968-.743-4.408-.991-6.567-.054-.461.163-1.016.124-1.487-.109-1.306-.299-2.456-.496-3.717.088-.834.546-1.125 0-1.734.514-.908-.062-1.46.496-2.23-.171-.2-.104-.639-.372-.743 1.369-7.952-1.197-15.823-1.115-24.41-1.144-3.002-.791-6.865-1.611-10.285-.784-1.009-.456-2.254-.62-3.469-.245-1.82-.739-3.746-.991-5.7-.2-1.549-.051-3.24-.248-4.832-.208-1.685-.882-3.496-.372-4.957-.931-2.903-.7-5.869-1.363-8.673-.927.127-2.171.774-3.222.743-.389-2.171-1.625-3.497-2.106-5.576.066-.347.182-.644.248-.991-.378-.625-.013-1.366-.124-2.106-.119-.793-.792-1.467-1.115-2.354-.884-2.426-1.355-5.25-2.106-7.93-.289-1.032-.372-2.169-.743-2.974-.285-.618-.857-.918-.991-1.859-.303-.357-.816-.505-.744-1.239-1.721-1.625-2.497-4.194-3.345-6.691-1.133-.396-1.365-1.691-1.735-2.85v-2.23c.541-.725.3-2.686.496-3.717.188-.989.868-1.883.991-2.85.259-2.03-.107-4.196-.124-6.319-.002-.299.129-.675.124-.991-.029-1.786.377-4.428 1.735-5.7 1.428-1.337 3.461-1.885 5.947-2.106-1.529-4.692 4.655-2.641 6.567-2.354 2.936-1.704 5.511-3.924 8.054-6.072 1.999-1.688 3.754-3.054 5.452-5.08.276-.33.462-.632.743-.991 2.085-2.66 3.972-6.056 5.452-9.541.971-2.287 2.193-4.503 3.221-6.815.155-.349.109-.78.248-1.115.174-.422.909-.553.496-1.115 1.213-.183 1.66-1.332 2.478-2.106.468-.443 1.044-.983 1.611-1.363 1.217-.816 2.526-1.146 3.469-2.23.395.189.545.043.991 0 7.431-4.865 16.358-8.07 24.038-12.639 2.546-1.515 4.76-3.475 7.311-4.832.973-1.262 2.12-2.374 3.222-3.47 2.169-2.157 4.307-4.523 6.814-6.443 1.25-.956 2.668-1.69 3.842-2.726 1.324-1.17 2.307-2.672 3.593-3.841.918-.083 1.065-1.425 1.982-1.115.3-.969 1.588-1.716 2.85-2.726 1.523-1.219 2.921-3.143 5.205-1.859.462-2.759 2.055-4.388 3.221-6.443 1.124-.39 1.669-1.645 2.975-1.487.914-1.522 2.143-2.731 4.089-3.222-.088-1.906.938-1.356 1.362-3.098 1.092-.643 2.524-.945 3.346-1.859 1.393.935 2.701-.625 3.841-.743 1.519 1.34 3.558.715 4.455-1.116z" fill-rule="evenodd"/></svg>