<svg xmlns="http://www.w3.org/2000/svg" xmlns:dc="http://dublincore.org/documents/dcmi-terms/" height="148.116" width="181.431"><metadata><dc:description>Silhouette of Rubrobacteraceae, processed by PhyloPic Tools (https://github.com/eweitz/phylopic-tools)</dc:description><dc:source>http://phylopic.org/image/7e399f06-e473-4530-828d-ddc5563eaf2e</dc:source><dc:creator>Matt Crook</dc:creator><dc:license>http://creativecommons.org/licenses/by-sa/3.0/</dc:license></metadata><g stroke="#fff"><g transform="rotate(-11.157 -2708.278 2428.11)" fill="#666" color="#000" stroke-linecap="round" stroke-linejoin="round"><path d="M425.164 744.678a12.695 12.91 0 1 1-25.39 0 12.695 12.91 0 1 1 25.39 0z" style="marker:none" transform="matrix(.87031 .43445 -.39238 .69203 459.728 -21.297)" stroke-width="2.275" overflow="visible"/><rect height="22.861" rx="7.886" ry="5.607" style="marker:none" transform="rotate(25.914)" width="23.418" x="758.128" y="378.336" stroke-width="2" overflow="visible"/></g><g fill="#333" color="#000" stroke-width="2.275" stroke-linecap="round" stroke-linejoin="round"><path d="M425.164 744.678a12.695 12.91 0 1 1-25.39 0 12.695 12.91 0 1 1 25.39 0z" style="marker:none" transform="matrix(.90282 .36209 -.33469 .7217 -21.114 -622.25)" overflow="visible"/><path d="M425.164 744.678a12.695 12.91 0 1 1-25.39 0 12.695 12.91 0 1 1 25.39 0z" style="marker:none" transform="matrix(.76626 .5992 -.52244 .59994 185.315 -626.141)" overflow="visible"/></g><g fill="#333" color="#000" stroke-linecap="round" stroke-linejoin="round"><path d="M425.164 744.678a12.695 12.91 0 1 1-25.39 0 12.695 12.91 0 1 1 25.39 0z" style="marker:none" transform="rotate(-11.157 -2894.509 2160.577) scale(.9661 1)" stroke-width="2.035" overflow="visible"/><path d="M71.757 117.881c-3.094.61-5.841 1.872-8.087 3.57.309 5.176-.3 6.715.807 12.327 1.068 5.415 3.589 10.143 4.388 11.43 2.583.598 5.41.684 8.304.113 9.21-1.816 15.47-9.416 13.976-16.994-1.494-7.578-10.177-12.262-19.388-10.446z" style="marker:none" stroke-width="2" overflow="visible"/></g><g color="#000" stroke-linecap="round" stroke-linejoin="round"><path d="M425.164 744.678a12.695 12.91 0 1 1-25.39 0 12.695 12.91 0 1 1 25.39 0z" style="marker:none" transform="matrix(1.43008 -.28206 .28058 1.4226 -762.14 -890.822)" stroke-width="1.376" overflow="visible"/><path d="M15.556 55.264C5.879 57.173-.491 66.118 1.302 75.212c1.794 9.093 11.077 14.92 20.754 13.011 8.736-1.723 14.777-9.179 14.553-17.3-4.485-5.695-13.136-12.127-18.113-15.124-.245-.148-.06-.56-.102-.84-.941.042-1.883.117-2.838.305z" style="marker:none" stroke-width="2" overflow="visible"/></g><g color="#000" stroke-linecap="round" stroke-linejoin="round"><path d="M425.164 744.678a12.695 12.91 0 1 1-25.39 0 12.695 12.91 0 1 1 25.39 0z" style="marker:none" transform="matrix(1.13076 -.22302 .17093 .86664 -546.748 -462.4)" stroke-width="1.982" overflow="visible"/><path d="M32.953 79.035c-6.646 1.31-10.901 8.037-9.521 15.032 1.38 6.995 7.87 11.603 14.516 10.292a11.717 11.717 0 0 0 4.749-2.083c1.414-2.541 2.152-6.507 1.665-10.776-.488-4.27-1.477-8.413-2.736-10.8-2.525-1.588-5.589-2.274-8.673-1.665z" style="marker:none" stroke-width="2" overflow="visible"/></g><g color="#000" stroke-linecap="round" stroke-linejoin="round"><path d="M425.164 744.678a12.695 12.91 0 1 1-25.39 0 12.695 12.91 0 1 1 25.39 0z" style="marker:none" transform="matrix(.3222 1.40429 -1.12137 .25446 785.997 -730.855)" stroke-width="1.554" overflow="visible"/><path d="M73.99 50.4c.053 1.006.173 2.012.41 3.041 1.81 7.876 8.568 13.056 15.057 11.587 6.49-1.47 10.265-9.017 8.454-16.893a18.13 18.13 0 0 0-.358-1.33c-3.435-1.758-7.107-1.948-11.556-.939-5.06 1.148-7.19 1.111-12.006 4.534z" style="marker:none" stroke-width="2" overflow="visible"/></g><g fill="#333" color="#000" stroke-width="2.021" stroke-linecap="round" stroke-linejoin="round"><path d="M425.164 744.678a12.695 12.91 0 1 1-25.39 0 12.695 12.91 0 1 1 25.39 0z" style="marker:none" transform="matrix(1.13076 -.22302 .16448 .83393 -477.357 -510.876)" overflow="visible"/><path d="M425.164 744.678a12.695 12.91 0 1 1-25.39 0 12.695 12.91 0 1 1 25.39 0z" style="marker:none" transform="matrix(1.13076 -.22302 .16448 .83393 -453.542 -516.889)" overflow="visible"/></g><path d="M425.164 744.678a12.695 12.91 0 1 1-25.39 0 12.695 12.91 0 1 1 25.39 0z" style="marker:none" transform="matrix(1.08087 -.21318 .19673 .99745 -466.873 -620.587)" color="#000" stroke-width="1.89" stroke-linecap="round" stroke-linejoin="round" overflow="visible"/><g stroke-width="2"><path d="M83.557 96.63c-.802.177-1.519.479-2.294.963-2.069 1.291-3.75 3.938-4.092 6.063-.281 1.749-.738 2.348.492 4.107 1.082-.512 2.376-.39 4.652-.312 3.904.134 12.394 3.4 14.495 6.792.599.967.982 1.79 1.2 2.534.432-.044.868-.304 1.762-.92 2.208-1.523 4.406-7.229 4.17-10.028-.237-2.8-.726-3.117-3.199-5.07-2.473-1.955-8.863-3.827-12.221-4.152-2.1-.203-3.627-.27-4.965.024z"/><path d="M76.616 125.258c2.408 3.12 4.375 3.022 8.01 2.806 3.635-.215 10.085-2.887 12-5.875 1.914-2.99 2.29-4.54.19-7.933-2.101-3.393-10.594-6.656-14.498-6.79-3.904-.134-4.927-.507-6.928 2.682-2 3.19-1.182 11.99 1.226 15.11z"/></g><g stroke-width="2"><path d="M153.68 89.005c-.085 1.885.757 5.615 4.288 6.172 3.53.557 13.609-3.38 15.751-6.177 2.143-2.797 1.03-4.58-.44-7.37s-6.764-5.204-9.86-5.512c-3.094-.307-4.586-.914-6.681 1.311-2.095 2.225-2.973 9.69-3.058 11.576z"/><path d="M165.504 67.83c-.782.192-1.495.483-2.22.852-1.936.984-3.958 2.518-4.824 4.455-.557 1.248-1.082 2.305-.972 3.632 1.745-1.4 3.199-.93 5.922-.659 3.096.308 8.408 2.716 9.877 5.506 1.031 1.956 1.9 3.44 1.58 5.103.07-.01.11-.025.184-.036 1.854-.293 3.89-2.226 4.467-4.162.577-1.936 1.655-5.573.139-8.5-1.516-2.927-6.321-5.256-9.44-6.038-1.95-.488-3.41-.473-4.713-.153z"/></g></g></svg>