<svg xmlns="http://www.w3.org/2000/svg" xmlns:dc="http://dublincore.org/documents/dcmi-terms/" height="110.814" width="116.977"><metadata><dc:description>Silhouette of Saccharibacteria, processed by PhyloPic Tools (https://github.com/eweitz/phylopic-tools)</dc:description><dc:source>http://phylopic.org/image/23a496fd-661f-4db7-b445-bd1605636b41</dc:source><dc:creator>Matt Crook</dc:creator><dc:license>http://creativecommons.org/licenses/by-sa/3.0/</dc:license></metadata><g stroke="#000"><path d="M5.309 53.22C2.356 62.58-.005 84.213.593 92.508c.598 8.294 4.917 10.335 8.135 11.439 3.218 1.103 7.004-.355 13.088.52 6.083.877 15.083 6.42 23.062 5.798 7.979-.623 12.26-3.295 22.304-9.487 10.045-6.192 29.002-20.183 35.53-30.09 6.529-9.906 4.513-18.298 7.212-23.546 2.699-5.249 6.4-5.323 6.549-8.567.148-3.245-4.138-4.276-4.633-7.37-.494-3.094 2.898-5.705 2.44-9.794-.458-4.088-2.597-9.324-6.572-13.028C103.733 4.68 98.121 2.787 91.1 1.43 84.077.072 74.351.207 66.197 1.796c-8.155 1.588-13.83 3.23-23.254 9.021-9.425 5.792-20.639 13.775-26.307 20.87-5.67 7.095-8.374 12.172-11.327 21.532z" fill="#fff"/><path d="M102.288 65.809c1.83-3.78 2.454-7.251 2.93-10.535.478-3.283.707-6.425 2.242-9.41 1.583-3.079 3.635-4.814 4.898-5.883.632-.535 1.02-.907 1.165-1.1.144-.193.123-.135.136-.42.018-.391-.155-.606-1.201-1.598-1.047-.992-2.92-2.494-3.356-5.227-.424-2.65.71-4.656 1.416-6.16.705-1.506 1.14-2.533 1.003-3.755-.38-3.397-2.334-8.138-5.713-11.287-3.362-3.132-8.41-4.955-15.23-6.273-6.517-1.26-16.067-1.147-23.84.367-8.035 1.565-13.115 3.044-22.317 8.698-9.293 5.71-20.433 13.713-25.617 20.2-5.531 6.923-7.946 11.476-10.84 20.65-2.71 8.59-5.12 30.798-4.586 38.22.266 3.683 1.273 5.574 2.363 6.758 1.09 1.184 2.438 1.757 3.904 2.26.927.317 2.288.325 4.39.2 2.103-.124 4.848-.298 8.192.184 3.677.53 7.447 2.22 11.35 3.608 3.904 1.389 7.839 2.454 11.102 2.2 7.432-.581 10.976-2.925 21.027-9.121 9.781-6.03 28.842-20.394 34.667-29.234a29.413 29.413 0 0 0 1.915-3.342z" fill="#333"/><path d="M28.4 43.726c-1.772 5.979-1.222 14.017.01 20.019 1.233 6.002 2.282 10.858 6.592 15.393 4.311 4.534 11.865 7.92 18.677 9.144 6.813 1.224 14.202.5 20.633-2.065 6.43-2.565 12.326-7.69 16.444-12.748 4.118-5.058 6.314-10.107 8.06-16.46 1.745-6.354 2.861-15.198 1.714-21.137-1.148-5.94-3.58-10.014-6.733-13.5-3.153-3.486-4.578-5.207-11.093-7-6.516-1.795-19.68-1.994-27.422.702-7.741 2.695-12.932 8.303-17.387 13.07-4.456 4.768-7.72 8.603-9.494 14.582z"/><path d="M62.289 81.116c3.75-1.55 7.939-6.303 8.583-10.318.645-4.015-.99-7.746-4.026-10.212-3.036-2.466-8.14-2.81-12.313-2.104-4.173.707-8.994 2.982-11.297 6.242-2.302 3.26-3.53 7.664-1.8 10.892 1.73 3.228 6.444 3.558 9.968 4.488 3.523.93 7.134 2.563 10.885 1.012z" fill="#666"/></g></svg>