<svg xmlns="http://www.w3.org/2000/svg" xmlns:dc="http://dublincore.org/documents/dcmi-terms/" height="443.048" width="440.725"><metadata><dc:description>Silhouette of Salvia, processed by PhyloPic Tools (https://github.com/eweitz/phylopic-tools)</dc:description><dc:source>http://phylopic.org/image/75f555a1-39ed-4f77-8a4a-49d0ea299bc6</dc:source><dc:creator>Alexander Schmidt-Lebuhn</dc:creator><dc:license>http://creativecommons.org/licenses/by-nc-sa/3.0/</dc:license></metadata><g stroke-width="3.197"><path d="M241.502 60.455c-8.983-2.994-37.846-10.257-43.782-16.193-2.012-2.012-9.82-1.612-12.595-3-13.084-6.541-26.494-8.448-38.385-14.393-4.978-2.49-8.521-6.66-14.394-9.596-13.017-6.509-29.583-8.195-43.183-14.994-9.788-4.895-47.456 18.068-52.179 22.79-2.156 2.157-2.211 6.41-4.798 8.997-3.72 3.72-7.621 6.422-10.196 8.996-3.705 3.706 1.005 8.787-1.2 13.195-5.976 11.953 2.566 16.82 10.197 23.39 2.362 6.463 4.227 10.226 7.796 13.795 8.989 8.988 77.443 16.793 96.562 16.793 5.567 0 27.622-3.882 30.588-2.399 16.436 8.218 46.68 4.365 64.174 10.196-1.241 3.016-.467 4.665-1.8 5.998-8.248 8.248-6.708 21.814-12.594 33.586-4.502 9.004-8.637 34.905-3.599 44.982 4.807 9.615-3.458 28.93 6.597 38.985 8.925 8.924 64.846 5.326 72.571-2.4 5.305-5.304 15.214-9.216 20.392-14.394 3.056-3.056 12.85-2.825 17.993-5.397 11.83-5.915 25.831-12.637 34.186-20.992 1.9-1.9 6.735-2.09 8.997-3.599 3.354-2.235 7.849-3.024 11.395-4.798 4.72-2.36 22.972-21.23 19.792-27.589-5.954-11.909-26.061-25.026-39.584-31.787-2.655-1.328-9.44-.443-11.395-2.399-6.73-6.729-25.64-9.446-33.587-17.393-1.845-1.845-6.841-2.043-8.397-3.598-8.397-8.398-23.234-9.44-31.187-17.394-5.78-5.78-12.136-14.534-18.593-20.991-3.638-3.638-14.562-5.782-19.792-8.397z" stroke="#fff"/><path d="M153.338 230.187c-1.296-.432 8.14-11.007 11.995-14.994 7.77-8.037 11.395-11.508 16.4-17.716 4.324-5.36 6.371-9.946 8.12-12.525 8.023-11.829 17.465-35.135 25.26-42.93 1.958-1.957.711-8.619 1.8-10.795 1.278-2.558 6.306-14.994 8.996-14.994 7.88 0 8.457 20.296 10.195 25.79 4.45 0 1.872 19.264 5.398 22.79 2.243 2.243-.353 9.243 2.4 11.996 2.404 2.404.6 8.374.6 11.995 0 4.318.306 18.285-2.4 20.991-4.24 4.24 1.8 25.47 1.8 29.389 0 1.236 1.972 7.624 0 9.596-4.939 4.938-4.659 13.055-9.597 17.993-4.873 4.873-10.702 12.502-14.994 16.793-1.036 1.036-8.6-1.8-10.196-1.8-3.144 0-31.29 16.742-43.182 10.796-8.165-4.082-11.674-6.875-17.393-12.595-1.61-1.61-1.171-5.369-3-7.197-.755-.755-6.1 5.501-6.597 5.998-9.068 9.068 4.769 57.547 11.396 64.174 3.705 3.705-7.855 37.9-9.596 41.384-2.212 4.424.124 16.668-3.599 20.391-1.947 1.947-2.198 6.197-3.598 8.997-7.838 15.675-8.713 19.35-25.19 27.589-1.203.601-3.82-.82-4.199-1.2-6.497-6.497-.6-14.117-.6-23.99 0-1.599 3.034-8.997 1.8-8.997-3.357 0-13.877 16.794-24.59 16.794-15.6 0-21.038-10.842-29.988-19.792-14.362-14.362-33.156-26.727-43.183-46.782-4.98-9.958-2.056-25.183-5.998-35.985 6.074-18.22 32.216-41.812 44.383-53.979 15.284-15.284 9.169-40.956 23.39-55.177 6.196-6.196 18.806-9.81 25.19-16.194 7.637-7.637 17.546-9.149 24.59-16.194 19.602-19.601 43.371-36.608 52.02-64.932 8.865 13.193-17.717 58.818-26.23 67.331-5.74 5.74-29.323 24.996-31.188 30.588 24.92-5.765 56.6-34.186 78.569-34.186-2.985 14.926-29.483 36.092-38.984 51.58z" stroke="#fff"/><path d="M189.86 111.318c1.359 8.196 3.6 10.743 3.6 19.792 0 10.11-5.745 16.287-9.597 23.99-2.544 5.09 14.063.333 14.994-.599 11.462-11.462 4.16-48.445-8.996-43.183z" stroke="#000"/><path d="M232.506 44.861c6.274 7.546 17.865 26.262 31.787 40.184 3.814 3.815 11.399 7.204 13.795 11.996 3.495 6.99 6.347 21.34 11.395 26.389 7.659 7.658 17.536 15.137 26.39 23.99 2.749 2.75 26.705 20.676 21.59 25.79-3.873 3.874-2.321 15.517-6.596 19.792-4.68 4.68-8.653 11.651-13.195 16.194-5.962 5.961-12.392 7.594-17.993 13.194-4.204 4.205-15.05 2.456-19.192 6.598-6.641 6.64-40.375 10.414-35.386 20.392 2.964 5.929 24.378 4.198 29.388 4.198 6.088 0 20.453 2.668 26.99-.6 4.236-2.118 9.567-2.085 13.794-4.198 37.901-18.95 70.203-39.616 97.76-67.173 7.185-7.185 23.914-14.763 25.79-20.392-3.159-6.318 3.862-13.532-2.399-19.792-11.643-11.644-29.429-5.012-44.982-10.196-2.343-.781-6.195 1.1-8.396 0-7.654-3.827-18.032-6.01-26.99-8.996-23.957-7.986-65.321-27.537-79.168-41.384-3.078-3.078-10.09-4.693-13.195-7.797-4.006-4.006-5-10.998-8.996-14.994-5.062-5.062-14.442-7.271-22.191-13.195z" stroke="#fff"/><path d="M77.406 95.34c-7.134-3.599-15.768 16.194-26.39 16.194-2.029 0 7.168 3.029 10.196 0 2.684-2.683 7.708-4.753 11.396-6.597.129-.065 2.399-1.503 2.399-1.2 0 10.706 4.644 44.982 18.592 44.982 3.125 0 15.235 7.557 17.993 4.798 1.79-1.79-6.464-5.264-7.197-5.997-3.928-3.929-9.619-5.166-14.174-9.72-14.159-14.16 9.418-38.013-12.815-42.46zM187.115 107.207c-.762 8.273.76 11.304-1.531 20.059-2.56 9.78-9.682 14.3-15.36 20.778-3.75 4.278 13.52 3.882 14.658 3.217 13.99-8.186 16.292-45.813 2.233-44.054z" stroke="#000"/></g></svg>