<svg xmlns="http://www.w3.org/2000/svg" xmlns:dc="http://dublincore.org/documents/dcmi-terms/" height="51.857" version="1.2" viewBox="0 0 67.504 51.857" width="67.504" overflow="inherit"><metadata><dc:description>Silhouette of Neognathae, processed by PhyloPic Tools (https://github.com/eweitz/phylopic-tools)</dc:description><dc:source>http://phylopic.org/image/41440b20-a497-417d-8f11-87428a867fc8</dc:source><dc:license>http://creativecommons.org/publicdomain/mark/1.0/</dc:license></metadata><path d="M15.646 0h1.083c3.47 1.155 7.512 1.738 11.611 2.263.21.216.271.583.492.787 1.725-.122 3.686-1.243 5.708-1.181 2.298.071 4.141 1.08 6.101 1.87a21.83 21.83 0 0 1 5.313 1.279c1.616.621 3.492 1.066 4.429 2.361 1.205.402 2.086 1.129 2.854 1.968 4.757 1.822 9.229 3.707 14.269 5.412v.59c-.462.478-1.979.541-2.657.197-.386-.057-.251.405-.492.492-.81-.243-1.779.014-2.755-.197 1.283.619 3.119.686 3.641 2.066-2.833.111-4.865-.58-7.38-.787.582 1.134-.34 2.021.394 2.854-.063.363-.337.516-.688.59.403.398.535 1.544.295 2.263-.261.188-.903.103-1.181 0-.175.346.267 1.119 0 1.575-.294.198-.929.056-1.378.098-.113.576-.216 1.161-.492 1.575-.396.163-.852.045-1.082 0 .492.632.268 1.773-.197 2.263-.453-.006-.962.044-1.279-.099-.289.948-1.371 1.266-2.46.886-.105.502.809.831.591 1.771-.598.273-1.003-.42-1.673-.394-.074 2.194 1.137 4.95-1.279 5.608.576 1.396.12 4.026-1.477 4.034-.689.004-.764-.358-1.181-.787.053 1.521 1.201 3.044.984 4.921-.096.832-.96 2.403-2.066 2.164-.614-.132-1.126-1.866-1.378-2.558-.416-1.145-.543-1.988-.983-2.854-.159 2.082 1.645 5.882.983 8.069-.158.523-1.019 1.519-1.574 1.476-.943-.071-1.798-2.962-2.066-3.837-.533-1.737-.869-3.06-1.279-4.625-.198 2.609 1.287 6.81-1.279 7.773-1.295-.607-1.469-2.336-1.869-3.838-.197 2.396-.026 5.156-1.968 5.806h-.295c-1.29-2.006-1.314-5.289-1.771-7.872-.245 2.133.243 5.584-1.181 6.593-1.989 1.41-1.949-3.193-2.263-4.428-.393.92-.543 2.604-1.771 2.361-1.454-2.12-1.472-6.105-1.083-9.249-.729.539-.512 2.371-1.476 2.361-.629-.007-.731-.972-.984-1.673-.063 2.004-.666 3.468-2.165 4.034-1.24-2.32-1.186-6.174-2.066-8.561-.728 1.213-.399 2.896-.492 4.526-.2 3.508-.37 7.271-2.46 8.463-1.81-3.013-.305-9.339-1.377-13.088-.469 2.39-.507 5.178-1.083 7.184-.238 2.812-.597 5.504-2.657 6.494-.612-1.21-.469-3.262-.394-4.723.14-2.73.953-5.429.984-8.069-.536 2.365-1.288 4.913-2.066 7.184-.666 1.94-1.281 4.081-3.346 4.723.057-4.503 1.719-8.251 2.657-12.201-1.564 3.782-2.745 8.472-6.691 9.545.978-3.844 2.777-6.866 4.231-10.234-.529.076-.624.771-.886 1.182C2.774 37.77 1.639 39.17 0 39.656v-.591c1.069-3.116 2.856-5.872 4.428-8.561.525-.898 1.159-1.73 1.673-2.657.35-.632.455-1.414.787-2.066 1.303-2.557 3.511-4.462 4.723-7.38 1.107-2.666 2.441-5.981 4.724-7.38 1.685-1.033 4.079-1.354 5.806-2.066-1.37-.603-2.855-1.415-4.527-1.87-1.598-.435-3.504-1.106-5.215-1.181-1.825-.08-3.226.329-4.821.59-.876.144-2.002.578-2.854 0 .396-1.011 1.559-1.291 2.46-1.771C9.929 3.258 13.094 1.396 15.646 0z" fill-rule="evenodd"/></svg>