<svg xmlns="http://www.w3.org/2000/svg" xmlns:dc="http://dublincore.org/documents/dcmi-terms/" height="433.138" version="1.2" viewBox="0 0 495.856 433.138" width="495.856" overflow="inherit"><metadata><dc:description>Silhouette of Sigmurethra, processed by PhyloPic Tools (https://github.com/eweitz/phylopic-tools)</dc:description><dc:source>http://phylopic.org/image/c79cd52f-5d57-431d-ac5f-9f80307ff110</dc:source><dc:creator>Michelle Site</dc:creator><dc:license>http://creativecommons.org/licenses/by-nc/3.0/</dc:license></metadata><path d="M277.24 10.1c1.434-.567 2.867-1.1 4.3-1.6a115.918 115.918 0 0 1 4.4-1.5c1.434-.467 2.9-.9 4.4-1.3a96.255 96.255 0 0 1 4.449-1.2 131.735 131.735 0 0 1 9.051-1.9c3-.533 6.033-.983 9.1-1.35 1.5-.2 3.017-.367 4.55-.5 1.533-.167 3.066-.3 4.601-.4 1.533-.1 3.066-.184 4.6-.25 1.533-.067 3.066-.1 4.6-.1l9.2.1c1.533.066 3.066.167 4.601.3 1.533.1 3.083.233 4.649.4l.101.05c1.633.333 3.283.7 4.949 1.1 1.667.4 3.317.816 4.95 1.25 1.634.433 3.283.883 4.95 1.35 1.634.467 3.25.967 4.85 1.5 1.601.5 3.217 1.034 4.851 1.6 1.6.567 3.2 1.167 4.8 1.8 1.167.433 2.35.9 3.55 1.4a79.17 79.17 0 0 1 3.5 1.5l3.5 1.6c1.167.533 2.316 1.1 3.45 1.7 1.134.567 2.267 1.15 3.4 1.75 1.133.6 2.25 1.233 3.35 1.9 1.1.6 2.2 1.25 3.3 1.95a105.66 105.66 0 0 1 3.25 2.05c4.3 2.8 8.4 5.867 12.3 9.2 3.9 3.333 7.567 6.934 11 10.8a92.927 92.927 0 0 1 3.301 3.9 189.456 189.456 0 0 1 3.149 4.05l.825 1.125c.138-.037.287-.07.45-.1l.149-.025.051-.025h.1c1.17-.23 3.012-.172 5.525.176 2.429.312 5.57 1.236 9.425 2.774 3.808 1.479 8.391 3.904 13.75 7.275a66.4 66.4 0 0 0 4 2.274l-.027-.024c1.408.708 2.884 1.467 4.425 2.274l-.024-.024a52.83 52.83 0 0 1 4.8 2.825c1.641 1.086 3.349 2.411 5.125 3.975 4.356 3.986 7.348 7.312 8.975 9.975 1.797 2.91 2.422 5.269 1.875 7.075-.484 1.902-1.859 3.344-4.125 4.325h-.024c-2.008.837-4.466 1.412-7.375 1.725a95.315 95.315 0 0 1-9.05.5c-3.092.034-6.05.084-8.875.15h-.025c-2.808.036-5.175.203-7.1.5-.951.144-1.71.344-2.275.6h.025l-.25.125c.28 1.416.547 2.841.8 4.275.267 1.7.5 3.4.7 5.1.199 1.667.383 3.351.55 5.051.166 1.699.3 3.416.399 5.149.067 1.667.134 3.367.2 5.101v5.1a147.232 147.232 0 0 1-1 15.35l-1.1 6.95v.101l-2.4 8c-.533 1.6-1.066 3.216-1.6 4.85-.566 1.6-1.15 3.2-1.75 4.8a470.721 470.721 0 0 1-1.851 4.75 283.098 283.098 0 0 1-1.949 4.7 144.446 144.446 0 0 1-2.101 4.7 146.63 146.63 0 0 1-2.2 4.6c-.767 1.5-1.55 3.017-2.35 4.55-.8 1.5-1.616 2.983-2.45 4.45l-2.6 4.4a524.125 524.125 0 0 1-2.8 4.35c-.934 1.4-1.884 2.8-2.851 4.2-1 1.4-2.017 2.783-3.05 4.15a331.157 331.157 0 0 1-3.15 4 197.45 197.45 0 0 1-3.3 3.899 126.286 126.286 0 0 1-3.45 3.8 184.47 184.47 0 0 1-3.6 3.7 187.637 187.637 0 0 1-3.7 3.5c-1.267 1.167-2.55 2.3-3.85 3.4a150.708 150.708 0 0 1-12.25 9.35 154.833 154.833 0 0 1-13.2 7.851 150.368 150.368 0 0 1-13.95 6.449 159.192 159.192 0 0 1-14.55 5c-4.934 1.4-9.9 2.601-14.9 3.601-5.033 1-10.083 1.783-15.149 2.35-3.9.434-7.8.75-11.7.95-3.9.2-7.8.316-11.7.35l-7.25-.149c-5.1-.167-10.184-.5-15.25-1-5.1-.5-10.166-1.167-15.2-2l-7.55-1.4a690.843 690.843 0 0 0-3.75-.8c-1.233-.267-2.467-.55-3.7-.85l-12.1-3.601-1.7-.8c-.964.374-2.364.474-4.2.3l-.024-.024c-2.174-.234-4.891-.893-8.15-1.976a2.134 2.134 0 0 1-.25-.1 36.21 36.21 0 0 1-1 .575h-.024c-1.049.54-2.332 1.183-3.851 1.925-1.5.733-3.116 1.517-4.85 2.35l-.025.025c-1.767.791-3.55 1.6-5.35 2.425v.025a503.454 503.454 0 0 1-5.275 2.35 289.879 289.879 0 0 0-4.425 1.975v.025a251.745 251.745 0 0 1-3.175 1.4h-.025c-.532.225-.624-.05-.275-.825l-.625 1.225-1.375.976-.025.024c-.907.67-2.19 1.604-3.85 2.8a361.327 361.327 0 0 1-5.975 4.125 262.225 262.225 0 0 1-7.6 4.926 354.82 354.82 0 0 1-8.8 5.324 183.65 183.65 0 0 1-9.575 5.15v-.025c-3.3 1.686-6.6 3.219-9.9 4.601a104.17 104.17 0 0 1-9.775 3.55c-.385.315-.901 1.582-1.55 3.8h-.025c-.85 2.864-1.7 6.681-2.55 11.45-.9 4.819-1.8 10.285-2.7 16.4a989.68 989.68 0 0 0-2.75 19.274l-2.8 20.101c-.933 6.708-1.85 13.05-2.75 19.024-.933 5.985-1.85 11.303-2.75 15.95v.025c-.879 4.483-1.729 8.017-2.55 10.6.188 1.954.213 3.621.075 5v.025c-.192 1.571-.542 2.854-1.05 3.85l-.05.05c-.586 1.056-1.262 1.856-2.025 2.4l-.025.024-.05.025a6.539 6.539 0 0 1-2.65.95l-.025.024h-.05a9.585 9.585 0 0 1-2.6-.125 9.648 9.648 0 0 1-2.425-.774c-.739-.312-1.364-.662-1.875-1.05l.125.05c-.711-.449-1.187-.882-1.425-1.3l.025.024c-.91-1.388-1.251-2.862-1.025-4.425l-.025.025a11.506 11.506 0 0 1 1.15-3.901c.548-1.192 1.098-2.151 1.65-2.875l-.025.05c.229-.33.43-.605.6-.825.105-.719.306-2.035.6-3.949.434-2.86.983-6.752 1.65-11.676h-.025c.633-4.926 1.3-10.518 2-16.774.7-6.251 1.333-12.784 1.9-19.601.566-6.841.966-13.616 1.2-20.324.231-6.723.215-12.997-.05-18.825-.12-2.581-.303-5.006-.55-7.275l-.325-.149-.025-.025c-.639-.34-1.53-.831-2.675-1.475h-.025a70.928 70.928 0 0 1-4-2.551v-.024h-.025a72.72 72.72 0 0 1-4.725-3.675c-1.717-1.403-3.434-3.012-5.15-4.825a60.322 60.322 0 0 1-4.975-6.05c-1.614-2.235-3.072-4.693-4.375-7.375v.024c-1.31-2.615-2.41-5.424-3.3-8.425-.914.139-1.872.297-2.875.475h-.026a293.204 293.204 0 0 0-12.825 2.601 536.873 536.873 0 0 0-14.15 3.325h-.025a676.64 676.64 0 0 0-13.775 3.5A999.374 999.374 0 0 0 23.29 298.1h-.025c-3.48.933-6.23 1.699-8.25 2.301h-.025c-1.406.384-2.397.643-2.975.774-.245.152-.595.344-1.05.575h-.05l-.025.025c-.897.397-1.988.655-3.275.774H7.59c-1.446.104-2.846-.347-4.2-1.35-1.319-.924-2.335-2.674-3.05-5.25-.326-1.157-.417-2.19-.275-3.101l-.025.075c.083-1.01.316-1.894.7-2.649.38-.742.863-1.4 1.45-1.976a7.4 7.4 0 0 1 1.75-1.325l-.1.075c.664-.43 1.305-.688 1.925-.774.517-.112.992-.12 1.425-.025 2.822-.622 6.022-1.438 9.6-2.45 3.75-1.059 7.768-2.25 12.05-3.575 4.259-1.366 8.617-2.8 13.075-4.3 4.425-1.5 8.75-2.983 12.975-4.45 4.233-1.5 8.216-2.916 11.95-4.25l-.025.025c3.7-1.367 6.967-2.566 9.8-3.6 2.8-1.034 5.017-1.851 6.65-2.45h-.025c1.272-.503 2.139-.828 2.6-.976l-.225.051c3.116-1.407 5.674-2.682 7.675-3.825 1.968-1.162 3.485-2.146 4.55-2.95l-.05.025c.955-.773 1.638-1.373 2.05-1.801l.05-.05c.089-.106.164-.198.225-.274l.2-.275c3.381-4.69 7.215-9.698 11.5-15.025a558.829 558.829 0 0 1 13.4-15.975 609.198 609.198 0 0 1 13.675-15.35v.024c4.451-4.886 8.551-9.202 12.3-12.95h-.025c3.739-3.775 6.823-6.692 9.25-8.75v.025c1.259-1.097 2.318-1.904 3.175-2.425a88.206 88.206 0 0 1 1.375-10.075h.025c1.45-7.416 4.108-15.308 7.975-23.675 3.814-8.27 9.064-17.012 15.75-26.226 6.287-8.754 14.079-18.896 23.375-30.425l1.55 1.25c.012-.318.029-.635.05-.95.033-1.066.1-2.1.2-3.1.1-1.033.233-2.066.399-3.1.134-1.034.301-2.051.5-3.051.2-1 .417-2 .65-3 .233-1.033.5-2.033.8-3 .3-1 .617-1.983.95-2.949.333-1 .684-1.967 1.05-2.9.367-.967.75-1.934 1.15-2.9a53.62 53.62 0 0 1 1.25-2.8 98.07 98.07 0 0 1 1.25-2.8c.434-.934.899-1.85 1.399-2.75a97.003 97.003 0 0 1 9.851-15.6 46.027 46.027 0 0 1 1.95-2.4c.633-.8 1.283-1.583 1.949-2.35a34.208 34.208 0 0 1 2.101-2.301c.7-.767 1.416-1.5 2.149-2.199.7-.733 1.434-1.45 2.2-2.15a65.35 65.35 0 0 1 2.3-2.1 99.24 99.24 0 0 1 14.9-10.9c1.3-.8 2.634-1.567 4-2.3a117.723 117.723 0 0 1 4.1-2.1c1.367-.7 2.767-1.35 4.2-1.95 1.402-.63 2.818-1.23 4.252-1.797z" fill="#020202" fill-rule="evenodd"/></svg>