<svg xmlns="http://www.w3.org/2000/svg" width="847" height="551" viewBox="0 0 847 551"><g fill-rule="evenodd"><path d="M0 166c5.635 27.17 31.087 53.127 63 41 9.615 16.72 51.354 22.702 77 17 7.53-1.674 15.261-8.924 21-9 13.178-.174 18.012 16.567 26 22 19.081 48.276 1.344 113.303 23 159 5.486 11.577 13.779 25.779 22 34 3.243 3.243 8.736 4.395 15 8 4.98 2.866 8.601 8.038 13 10 10.843 4.837 25.777 6.075 38 2 3.154-32.026-12.178-59.233-24-85-8.687-18.935-19.177-41.322-21-62-.548-6.22 2-14.095 2-22 0-6.777-3.867-14.648 2-19 20.633.389 48.633 10.684 71 16 17.906 39.299 11.917 111.937 42 143 9.265 9.567 24.307 25.977 42 27 6.097.353 19.942-2.813 27-7 2.121-1.258 3.86-5.421 7-8 4.536-3.726 6.108-2.175 8-6 4.11-8.313.127-18.396-2-29-6.097-30.388-15.676-51.567-23-79 7.547 1.035 16.2 3.729 26 6 9.003 2.087 19.316 3.515 28 7 6.953 2.791 13.856 11.751 20 13 10.521 2.14 26.402-.728 40 0 14.511.776 29.844 1.847 41 1 11.403-.865 24.665-6.036 36-4 6.538 1.175 18.106 9.298 21 17 3.531 9.401-.835 20.438 0 32 .802 11.105 6.169 17.413 10 28 3.408 9.42 4.009 21.078 7 29 6.827 18.083 18.886 40.685 29 57 10.228 16.498 30.85 36.354 48 42 13.138 4.324 44.896 6.104 61 1 10.744-3.405 32.171-24.997 39-37 5.936-10.433 14.238-36.09 9-55-3.425-12.365-21.744-23.682-31-35-21.872-26.747-42.116-61.276-61-95-6.768-12.086-17.702-21.5-22-32-5.099-12.457-5.96-26.592-9-40-2.838-12.516-7.574-25.218-11-37-7.302-25.11-13.161-50.949-24-73-21.459-43.657-55.982-70.603-95-98-31.036-12.719-62.571-29.984-104-33-26.219-1.908-54.057 0-81 0-26.966 0-53.601 3.986-78 2-30.513-2.484-57.366-10.751-84-13-31.607-2.669-76.155.304-103 12-14.678 6.395-27.813 16.679-41 26-13.26 9.372-24.146 21.884-37 30-8.271 5.223-18.791 7.132-26 12-11.345 7.661-26.46 24.324-31 37-3.82 10.666-2.319 26.087-6 34V0h847v551H0V166z" fill="#fff"/><path d="M0 166v-13c3.681-7.913 2.18-23.334 6-34 4.54-12.676 19.655-29.339 31-37 7.209-4.868 17.729-6.777 26-12 12.854-8.116 23.74-20.628 37-30 13.188-9.321 26.322-19.605 41-26C167.845 2.304 212.393-.669 244 2c26.634 2.249 53.487 10.516 84 13 24.399 1.986 51.034-2 78-2 26.943 0 54.781-1.908 81 0 41.429 3.016 72.964 20.281 104 33 39.018 27.397 73.541 54.343 95 98 10.839 22.051 16.698 47.89 24 73 3.426 11.782 8.162 24.484 11 37 3.04 13.408 3.901 27.543 9 40 4.298 10.5 15.232 19.914 22 32 18.884 33.724 39.128 68.253 61 95 9.256 11.318 27.575 22.635 31 35 5.238 18.91-3.064 44.567-9 55-6.829 12.003-28.256 33.595-39 37-16.104 5.104-47.862 3.324-61-1-17.15-5.646-37.772-25.502-48-42-10.114-16.315-22.173-38.917-29-57-2.991-7.922-3.592-19.58-7-29-3.831-10.587-9.198-16.895-10-28-.835-11.563 3.531-22.599 0-32-2.894-7.702-14.462-15.825-21-17-11.335-2.036-24.597 3.135-36 4-11.156.847-26.489-.224-41-1-13.598-.728-29.479 2.14-40 0-6.144-1.249-13.047-10.209-20-13-8.684-3.485-18.997-4.913-28-7-9.8-2.271-18.453-4.965-26-6 7.324 27.433 16.903 48.612 23 79 2.127 10.604 6.11 20.688 2 29-1.892 3.825-3.464 2.274-8 6-3.14 2.579-4.879 6.742-7 8-7.058 4.187-20.903 7.353-27 7-17.693-1.023-32.735-17.433-42-27-30.083-31.063-24.094-103.701-42-143-22.367-5.316-50.367-15.611-71-16-5.867 4.352-2 12.223-2 19 0 7.905-2.548 15.78-2 22 1.823 20.678 12.313 43.065 21 62 11.822 25.767 27.154 52.974 24 85-12.223 4.075-27.157 2.837-38-2-4.399-1.962-8.02-7.134-13-10-6.264-3.605-11.757-4.757-15-8-8.221-8.221-16.514-22.423-22-34-21.656-45.697-3.919-110.724-23-159-7.988-5.433-12.822-22.174-26-22-5.739.076-13.47 7.326-21 9-25.646 5.702-67.385-.28-77-17-31.913 12.127-57.365-13.83-63-41z"/></g></svg>