<svg xmlns="http://www.w3.org/2000/svg" version="1.2" width="847.543" height="339.214" viewBox="0 0 847.543 339.214" overflow="inherit"><path d="M236 0h1c-1.477 6.835 13.871.517 18 3 3.977 8.254 27.575 4.019 38 9 1.448 3.781-2.748 1.919-2 5 11.643 4.69 26.442 6.224 37 12 .832 3.21.852 2.073-1 4 8.722 5.278 18.636 9.364 28 14 .473 3.14-2.691 2.642-3 5 10.107 6.227 18.951 13.716 30 19 1.008 3.008-2.228 1.772-4 2 3.469 8.198 13.783 9.55 20 15-1.402 16.736 15.956 14.71 18 28-1.278-.055-1.385-1.282-3-1 5.022 8.979 12.516 15.484 20 22-1.956 19.693 17.177 34.528 23 53 12.11 13.89 22.014 29.986 40 38 66.914 17.187 142.405 12.457 212 7 5.022-.394 10.062 1.229 15 1 29.339-1.363 60.361-3.028 89-2 15.206.546 26.533.709 35 7 1.58 4.486-.447 9.765-4 13-11.844 10.784-49.142 12.2-65 19-2.661 5.672-8.693 7.974-18 7-3.422-.422-3.005 2.995-5 4-20.909 4.758-43.804 7.53-61 16-33.636.691-64.841 13.374-95 11-2.481 4.275-17.031 5.715-21 2-10.581 4.346-29.688 7.439-48 9-24.713 2.106-36.139-3.734-46-14-3.197 3.136-8.935 3.732-7 12-12.282-2.718-16.167-13.833-21-24-4.374-.006-6.287 7.667-9 6-6.161-.839-10.761-3.239-11-10-6.132 1.799-4.854-3.812-8-5-4.561-1.227-3.16 3.507-6 4-14.882-.118-11.26-18.74-22-23-2.42 3.246-3.182 8.151-5 12-7.611 2.272-13.545 8.033-22 4-4.493 5.853 5.594 20.715-5 21v10c-5.673.327-8.407 3.593-8 10-2.348.318-3.753 1.58-7 1-11.99 19.34-54.904 13.195-71 8-2.499-7.401-.433-17.355 4-21-5.834.167-9.588-1.745-16-1 .837-5.171-4.126-4.541-5-8 5.461-30.15 8.49-55.469 15-87-11.941-11.726-29.656-17.677-39-32-15.971-11.898-24.042 4.148-35 11-4.996 12.967-17.056 15.991-30 23-12.304 6.662-23.681 14.23-35 17-4.374 1.07-9.12-1.07-12 3 .595 2.072-1.236 6.569 1 7-.729 3.449-3.009.666-5 0 1.331 3.003 1.017 7.65 1 12-4.012-3.988-5.553-10.447-5-19-5.492 1.852-10.259 13.066-9 25-2.252-2.415-3.585-5.748-4-10-2.311 3.356-.35 10.983-1 16-12.962-23.274 1.938-51.316 17-62 .69-12.311 4.768-21.232 8-31-.929-12.449-1.137-28.009 3-40-12.867-1.631-25.532.952-38 5-14.533 4.718-43.481 21.062-53 31-4.566 4.767-5.016 11.758-9 17-9.927 13.062-26.179 6.31-35-4v-1c1.634-7.704 8.598-14.755 11-22 1.406-4.242.608-8.926 2-13 3.428-10.033 9.741-22.648 15-31 20.874-33.152 53.816-57.431 80-85 1.449 1.197 1.34 4.75 4 2 23.179-20.363 58.49-21.26 92-35 2.649.558-4.162 3.869 2 3 10.781-2.751 19.882-1.545 30-4z" fill-rule="evenodd"/></svg>