<svg xmlns="http://www.w3.org/2000/svg" version="1.2" width="2291.383" height="1159" viewBox="0 0 2291.383 1159" overflow="inherit"><path d="M1250.383 0h9c74.055 9.067 157.904 9.115 225 29 23.263 6.894 47.221 10.161 69 17 5.849 1.836 9.92 3.637 16 5 15.301 3.431 31.971 10.141 48 15 21.646 6.562 43.481 11.396 64 19 40.14 14.875 75.471 35.149 109 57 22.72 27.684 54.639 49.501 74 82 5.902 9.906 11.528 22.542 17 34 4.578 9.587 5.314 28.466 20 28-1.863-10.115-8.737-14.432-5-26 10.633 2.367 9.633 16.368 21 18-2.458-12.921-19.309-19.991-26-32-9.27 3.798-7.763-6.002-14-14-2.377-3.047-7.143-4.589-9-7-5.153-6.688-9.64-16.745-8-21 31.936 7.408 47.745 39.581 72 58 7.02 2.314 15.138 3.529 21 7 9.189-6.144 23.089-7.578 32-14 10.632 9.632 37.163-8.527 50 7 1.662 24.996-22.248 24.419-31 39 12.408 2.694 22.656-19.888 35-8 2.899-3.125 8.876-6.15 14-4 1.518 16.806-1.664 37.301 16 42 15.004 1.331 15.525.906 27 4 6.655-.513 14.836-4.229 17-1 7.119-6.215 14.62-12.047 24-16 7.508 4.092 15.744 4.659 22 10 3.055 2.608 5.019 8.513 9 12 2.968 2.599 6.509 3.999 9 6 4.827 3.878 10.69 12.824 15 13 4.413.18 9.952-7.951 15-10 2.768-1.124 9.532-.629 15-3 3.655-1.585 6.578-4.897 10-6 2.455-.791 5.641.735 9 0 8.171-1.789 12.193-7.15 18-5 3.929 1.455 5.438 6.684 6 12 15.997 2.669 22.896 14.437 26 30v5c-1.864 12.59-13.44 19.26-22 22 2.423 18.854-11.438 33.993-29 39 .295 7.585-4.277 7.415-2 15-23.285 22.35-82.171 23.204-117 11-2.419 11.119-13.227 14.788-22 7-2.432 10.383-14.172 4.555-19 9 2.025 2.937 13.719 7.485 7 17-7.533 1.613-9.484-6.835-15-4-1.733 4.361-2.195 8.669-5 13-2.764 4.267-10.334 7.186-8 10 5.218 1.414 12.51 3.564 12-1 8.34 6.289 22.884.825 33 5 8.454 3.489 19.255 20.822 20 32 .972 14.579-5.824 33.321-19 35 7.01-4.33 9.76-21.57 13-33-5.331-.901-11.467-5.548-16-4 3.083 5.952 13.233 20.792 3 31-5.837 3.458-7.436-4.714-12-2-11.3 7.888-17.968 19.123-30 27-15.435 10.104-31.271 20.386-47 32-2.218 17.485 5.105 32.729 5 49-.099 15.213-6.125 34.673-11 50-4.975 15.64-11.244 31.117-17 44-12.922 28.92-29.059 54.064-42 78-4.093 1.24-6.337 4.33-10 6-12.957 29.376-37.65 47.016-55 72-13.553 9.021-25.208 20.582-38 31-17.758 14.462-35.196 31.08-55 45-14.695 10.329-31.225 18.5-44 32-4.491-.491-7.493.507-11 1-11.362 6.304-20.87 14.464-36 17-9.902 11.431-29.699 12.968-41 23-3.694-2.965-5.393 2.751-11 1-3.352 6.811-13.972 6.5-23 7-13.839 7.916-30.071 3.796-46 7-11.188 2.25-21.021 9.483-32 10-3.997.188-8.079-1.366-12-1-19.803 1.849-37.743 18.171-58 14-21.636 8.408-47.602 10.361-73 15-6.835 1.248-15.04.478-20 6-.345-3.531-2.625-2.585-5-2-3.843-.176-3.878 3.455-7 4-29.508-.898-71.18 6.369-100 7-17.596-4.622-36.087-1.234-55-3-12.956-1.209-25.912-5.67-39-6-5.001-.126-10.501.802-16 1-9.11.329-18.393-1.223-27 4-5.475-3.096-12.198.192-16 2-29.414-3.127-52.458-2.377-87-8-6.003.049.765-.908-2-3-9.223 2.824-28.34 2.151-37-4-4.252 1.611-6.491 1.358-10 2-8.311-4.882-20.733-5.634-31-4-19.64-7.355-48.918-1.844-64-7-16.512 7.23-36.811 6.366-57 8-29.951 2.424-48.887 6.404-80 1-4.578-1.578-1.849 4.151-5 4 1.993-5.188-7.565-1.265-11-5-4.616-.9-10.572-.709-16-3-8.587 3.272-25.801-2.416-41 0-4.042-3.429-14.596-4.083-21-2-4.494-7.139-23.215-.883-27-6-4.515-1.182-2.235 4.432-7 3-19.884-13.204-57.21-5.534-77-17-7.247 3.104-22.059-4.419-28 2-3.756-15.393-24.906-9.244-42-13-4.798-1.055-10.445-3.645-16-5-19.236-4.695-36.637-11.915-57-17-2.386-2.092-6.406.244-9 1-2.667-7.222-10.235-3.671-17-6-2.94-1.06-3.979-4.021-7-5-5.242-1.111-9.212 2.811-12 1-14.179-7.154-30.927-11.74-48-16-2.94 2.081 2.39 5.169-3 3-25.778-11.222-49.434-24.566-73-38-5.371-1.988-7.637 4.296-11 1-4.416-2.114-.755-6.402-5-9-3.182-1.818-8.077-1.923-8-7-22.661-8.006-34.523-26.81-57-35-39.644-36.977-84.162-75.128-114-125-6.078-10.158-12.659-20.078-17-31-8.755-22.025-17.909-47.237-22-73-6.421-40.439 1.227-89.084 10-122 13.549-36.117 30.166-69.167 42-107 13.627-23.544 24.281-50.63 36-78 3.667-8.565 9.812-16.944 12-25 1.924-7.082-.522-15.754 6-21-5.32-10.016 6.496-19.466 0-31 10.209-10.791 26.867-15.133 38-25 7.479 1.408 9.603-7.243 15-2 37.318-36.469 87.859-63.977 139-89 7.85-3.841 17.007-4.694 23-9 5.013-3.603 14.429-18.724 18-25 5.473-9.619 6.33-22.305 15-30-9.581-7.558.137-15.556 3-25 1.15-3.793.74-8.641 2-13 2.915-10.081 10.995-18.295 16-28 2.479-4.808 3.188-10.806 6-16 5.628-10.394 12.434-20.727 18-34 3.674-8.76 7.654-20.432 8-25 .348-4.594-5.787-13.882 3-17 4.605-1.634 7.117 5.831 12 6 3.038-6.071 12.937-.23 17-4 1.37-3.152-6.565-1.945-3-4 17.57.628 6.218 27.651 10 40-9.729 16.356-12.441 53.316 8 60 4.922-5.745 3.224-18.11 10-22 5.223 8.614-5.751 15.121-5 24 .481 5.685 6.656 7.54 7 13 .557 8.837-9.633 16.507-8 24 1.226 5.625 7.303 8.432 11 12 22.942-8.203 44.79-18.012 67-27 17.825-7.213 36.022-12.394 54-19 21.03-7.728 41.621-17.789 65-24 5.535-1.47 11.554-.416 17-2 3.067-.892 4.827-4.051 8-5 4.056-1.213 9.407-.768 14-2 17.299-4.64 35.396-10.101 52-15 6.455-1.904 12.464-2.773 21-5 3.225-.841 5.534-3.958 9-5 3.348-1.006 8.352-1.076 12-2 12.208-3.091 25.947-5.928 39-9 26.671-6.277 52.73-11.96 78-15 12.321-1.482 21.879-3.418 35-6 5.449-1.072 11.717-.885 17-2 8.405-1.774 16.401-6.56 25-8 14.151-2.371 29.146-4.651 44-6 14.694-1.334 30.863-.432 46-3 14.971-2.54 29.5-8.824 45-10 11.103-.842 22.858.51 34 0 30.974-1.418 63.721-5.071 97-6z" fill-rule="evenodd"/></svg>