<svg xmlns="http://www.w3.org/2000/svg" xmlns:dc="http://dublincore.org/documents/dcmi-terms/" height="1080" viewBox="0 0 1080 1080" width="1080"><metadata><dc:description>Silhouette of Solenogastres, processed by PhyloPic Tools (https://github.com/eweitz/phylopic-tools)</dc:description><dc:source>http://phylopic.org/image/fd46e005-c30a-4bb8-b2fc-5d03966ecc9e</dc:source><dc:creator>Noah Schlottman, photo by Casey Dunn</dc:creator><dc:license>http://creativecommons.org/licenses/by-sa/3.0/</dc:license></metadata><switch><g><path d="M1024.149 358.635c-.424 4.518-.592 9.082-1.387 13.533-.354 1.978.467 4.38-1.533 6.038-.368.305-.062 1.328-.389 1.799-.71 1.027 2.191 2.861-.769 3.276 0 1.735-.763 3.028-2.087 4.161-.669.573-.987 1.563-1.446 2.374-1.615 2.855-2.628 6.228-6.304 7.301-1.64 3.333-4.873 4.486-7.932 5.982-4.779 2.337-9.937 3.398-14.952 4.965-2.896.905-5.746 1.102-8.608.847-5.276-.469-10.413.697-15.569 1.237-2.564.269-5.71.647-7.54 3.483-1.065 1.651-2.924 2.447-4.99 2.326-1.142-.067-1.991.091-1.781 1.537-.354-.038-.82.054-1.041-.137-.835-.722-1.463-.447-2.081.257-.663.756-1.365-1.36-2.203.074-.251.43-1.488.268-2.264.431-.062.013-.147.55-.038.661 1.281 1.298.009 1.261-.685 1.153-1.854-.288-4.432-.367-5.284.18-3.153 2.018-6.528 3.146-10.32 2.875-.612-.044-1.479-.036-1.829.33-1.806 1.888-4.395 1.819-6.545 2.287-4.463.97-8.729 3.16-13.561 2.446-1.448-.214-3.279 1.206-4.509.744a11.145 11.145 0 0 0-3.818-.664c-3.488.053-6.438-1.57-9.522-2.554-3.948-1.259-7.5-3.61-11.166-5.603-.267-.145-.819-.151-.846-.294-.616-3.386-4.216-3.708-6.051-5.885-1.53-1.814-3.607-3.193-5.537-4.638-4.302-3.221-9.349-4.792-14.448-6.114-1.127-.292-2.114-.415-3.004-1.281-.499-.487-1.474-.851-2.137-.733-1.741.312-3.166-.608-4.539-1.193-1.098-.467-1.753-1.406-2.853-.112-.202.238-1.053.289-1.289.076-2.737-2.468-6.073-1.74-9.255-1.828-1.456-.04-2.679-.109-4.049-1.202-1.633-1.304-3.898-1.869-6.207-1.834-3.182.048-6.522.666-9.245-1.803-.196-.178-.609-.138-.925-.16-5.026-.338-10.052-.705-15.083-.987-2.075-.116-4.164.162-6.095-.997-1.861-1.117-3.978-.959-6.071-1.06-4.035-.194-8.062-.581-12.082-.995-.887-.091-1.77-.551-2.578-.984-1.094-.585-2.074-1.813-3.259-.089-.113.166-.874-.045-1.305-.179-1.031-.319-2.116-.563-3.05-1.074-2.939-1.607-6.304.103-9.382-1.527-2.633-1.395-5.73-1.738-8.837-.672-.957.328-2.573.125-3.298-.509-2.783-2.436-6.046-1.804-9.229-1.95-2.36-.108-5.047.909-6.788-1.772-.135-.208-.878-.112-1.308-.02-1.395.298-4.983-.077-5.92-.109-1.046-.035-1.919-1.688-3.292-.192-.38.415-2.938-1.195-3.342-.772-1.521 1.592-2.513.131-3.8-.041-4.001-.535-8.051-.688-12.071-1.096-2.04-.207-4.291-.196-6.024-1.097-1.921-.999-3.75-.773-5.647-.87-1.75-.089-3.592.351-5.085-1.01-2.056 1.807-4.084-.41-6.179-.055-1.62.274-3.327-.017-4.988.077-1.396.078-2.782-1.39-4.173-.022-4.32-2.274-9.359.381-13.679-1.981-.256-.14-.666-.069-.988-.01-2.185.403-4.611 2.008-6.501.853-2.463-1.505-4.809-.567-7.174-.81-2.31-.236-4.662-.002-6.993-.072-1.157-.035-2.215.021-3.05.934-1.02-1.122-2.178-1.532-3.396-.393-.787.735-1.72-1.137-2.6.394-.425.738-1.905-1.391-3.093.054-.736.897-1.684-1.966-2.688-.103-4.843.378-9.703.608-14.517 1.217-1.623.205-3.124-2.645-4.681-.083h-5.999c-1.833 0-3.678-.126-5.495.041a13.963 13.963 0 0 0-4.072.998c-1.794.751-2.938-1.736-4.944-.624-1.292.716-3.17.696-4.736.531-3.866-.407-7.892 1.235-11.617-.879-3.536 2.078-7.384.434-11.059.906-1.312.168-3.396-.497-3.846.134-.999 1.399-2.038-.193-3.073.593-.858.652-2.524.261-3.833.294-1.166.029-2.333.006-3.499.006h-4c-1.333 0-2.689-.154-3.992.047-1.092.168-1.999 1.005-3.232.021-.572-.457-1.726 1.616-2.617-.068-2.556 1.77-5.105-.601-7.673-.014-1.373.313-2.942-.556-4.18.858-.301.344-1.482.411-1.864.108-2.385-1.891-5.102-.866-7.622-.865-2.52.001-5.255-1.052-7.616.874-.211.171-1.007-.064-1.292-.35-1.141-1.14-2.93-.986-3.633-.419-1.26 1.015-2.464.667-3.713.806-.48.053-1.043-.055-1.429.161-.957.537-1.833 1.217-2.741 1.84-.891-1.48-1.779-.049-2.672-.012-1.164.048-2.332.009-3.499.013-.998.002-2.67-.339-2.885.074-1.75 3.374-3.97 2.146-6.296.947-.229-.118-.795-.039-.903.135-1.268 2.049-3.385 1.473-5.217 1.983-1.89.526-3.742 1.172-5.61.793-2.108-.427-3.962.52-5.535 1.212-3.562 1.566-7.698.63-10.979 2.871-1.244.85-1.939-1.679-3.342-.329-.707.679-1.962.904-3.012 1.081-1.281.216-2.745-.171-3.885.298-2.661 1.095-5.397.721-8.107.979-2.628.251-5.19 1.336-7.584 2.202-2.227.805-4.531 1.199-6.664 1.996-4.684 1.75-9.459 2.478-14.353 2.712-1.939.093-3.534 1.755-5.583 1.042-.259 3.217-3.339 1.444-4.86 2.648-1.041.824-2.788 2.274-4.549.417-.258-.271-1.455.274-2.182.538-1.31.475-2.354 1.545-4.07.503-.924-.561-2.289.106-3.529.928-4.267 2.828-9.106 4.551-14.018 5.911-2.438.675-4.909 1.354-7.577 1.161-1.232-.089-2.654.8-3.802 1.538-2.39 1.534-4.53 3.498-7.019 4.825-1.459.778-3.158.941-3.733 2.852-.48 1.593-2.875-.37-3.126 1.522-.274 2.062-1.751 1.013-2.67 1.101-1.065.102-1.5.436-1.362 1.479-2.229.25.285 3.225-2.273 3.728-1.367.269-2.406 2.132-3.635 3.228-.332.296-.802.485-1.24.607-3.19.889-4.907 2.112-7.021 4.621-.806.956-2.021 1.557-2.969 2.41-.396.356-.783.934-.815 1.434-.059.917-.246 1.245-1.261 1.621-3.107 1.153-5.278 3.248-5.859 6.791-.16.973-1.678 1.723-1.84 2.697-.412 2.477-3.365 2.605-3.923 4.295-.611 1.849-1.402 3.396-2.406 5.034-1.127 1.837-2.422 3.452-4.012 4.794-1.432 1.208.108 3.327-1.09 3.986-1.524.838.666 3.123-1.918 3.462-1.473.193-.504 2.877-2.146 3.916-1.112.704-1.57 2.362-2.558 3.359-1.885 1.904-2.95 3.946-3.135 6.754-.171 2.581-1.161 5.131-2.828 7.295-.463.601-1.038 1.383-1 2.049.097 1.671-1.923 1.957-1.979 3.179-.054 1.177.82 2.383.834 3.582.009.821-.593 1.807-1.206 2.448-1.732 1.814-3.043 3.76-2.69 6.389.156 1.16-.422 1.824-1.158 2.537-2.23 2.16-3.597 4.762-3.861 7.893-.027.327.104.853-.055.956-2.803 1.84-1.673 4.699-1.979 7.209-.246 2.018-.375 4.214-1.29 5.943-1.04 1.964-.702 3.864-.597 5.726.138 2.445.014 4.35-1.168 6.229-.404.643-.823 1.395-.868 2.12-.089 1.419-.097 2.768.835 4.162.52.778-2.038 2.295.058 3.677.282.186-.127 1.496-.297 2.268-.129.585-.387 1.141-.588 1.71 1.941.455-.388 1.807.711 2.94 1.883 1.941 1.339 4.867 1.197 7.42-.137 2.479-.183 3.602.455 5 .191.421.659 1.103.544 1.22-2.33 2.387.371 5.84-1.795 8.303-.421.479-.401 1.704-.109 2.381.633 1.468.461 2.654.139 4.234-.368 1.798.886 3.88 1.192 5.875.301 1.957 2.678 3.729.613 5.927.812 1.424.645 3.188 1.188 4.507.519 1.259.552 2.443.869 3.647.316 1.195 1.147 2.183 1.016 3.607-.076.824.62 1.707.917 2.581.245.72 2.015 1.939-.547 1.868-.115-.003-.235.22-.353.338 2.15 1.875.46 4.521 1.414 6.836 1.407 3.413 2.496 7.077 2.592 10.963.053 2.168.933 4.306 1.053 6.578.051.956.273 2.508 1.958 3.345 1.892.939 2.642 3.501 1.746 5.352-1.563 3.23-1.129 5.731 1.083 8.375.725.867.884 2.32 1.021 3.538.168 1.48.162 3.007.018 4.492-.461 4.769.373 9.223 3.037 13.247.741 1.119.901 2.275 1.042 3.589.524 4.904.948 9.864 2.099 14.638.489 2.027 1.664 3.906 2.051 6.157.319 1.855 1.729 3.713 3.102 5.139 1.218 1.265 1.426 2.767 2.095 4.167.67 1.403 2.029 2.516 2.534 3.949 1.333 3.785 3.531 7.186 4.591 11.114.502 1.862-.022 4.376 2.356 5.534.152.073.158.622.101.924-.627 3.301 1.415 6.337.98 9.582-.294 2.198 1.029 4.647-.969 6.589 1.332 1.82.273 4.458 2.123 6.135.43.39.956 1.432.822 1.567-2.101 2.134-.171 4.149-.028 6.23.115 1.674.053 3.34-.679 5.174-.709 1.776-.468 4.306.354 6.648 1.032 2.944 1.208 6.256 1.355 9.427.208 4.489-.082 9.002.114 13.492.088 2.018-.709 3.73-1.066 5.586-.36 1.865.772 3.881-.839 5.687-.503.562-.282 1.936-.122 2.894.312 1.862-.522 3.431-1.042 5.088-.044.142-.279.228-.315.367-.768 3.001-1.353 6.06-2.682 8.887-1.252 2.664-1.094 5.835-2.993 8.259 1.148 2.896-1.478 4.749-2.174 7.12-.627 2.14-2.634 3.93-4.206 5.723-1.4 1.598-2.752 3.146-2.609 5.426.123 1.943-.471 3.318-1.822 3.724-.458.138-1.039-.111-1.485.045a97.4 97.4 0 0 0-5.169 1.997c-.24.1-.552.536-.504.74.932 4.008-2.048 2.776-4.055 3.357-1.721.499-3.161 2.006-4.692 3.112-1.418 1.026-2.746 2.186-4.208 3.14-.618.403-1.49.4-2.229.637-.733.234-1.51.43-2.15.831-2.62 1.642-2.588 1.644-5.795-.402-.496-.316-1.197-.376-1.813-.425-2.664-.209-5.471-1.428-7.729-3.103-1.1-.816-2.432-1.341-3.705-1.891-.988-.427-2.46-.37-3.002-1.076-1.814-2.362-4.746-2.675-7.073-3.539-2.392-.888-4.589-3.056-7.513-2.403-3.893-1.891-8.043-3.335-11.494-6.009-2.033-1.574-3.808-3.458-5.874-5.046-1.236-.951-3.612-1.359-3.588-3.292.025-2.045-2.89-2.477-2.124-4.681.074-.214-.139-.669-.354-.821-2.641-1.875-3.216-4.982-4.575-7.616-1.816-3.521-2.48-7.363-3.06-11.233-.231-1.543-.679-3.053-.975-4.589-.267-1.383.328-2.785-.807-4.209-.655-.822-.146-2.554-.21-3.873-.038-.799.084-2.123-.297-2.305-2.657-1.268-1.567-4.104-2.459-6.058-.79-1.731-1.865-3.569-2.232-5.564-.48-2.614-2.728-4.734-2.029-7.701.36-1.53-2.709-.603-2.032-2.554-2.523-1.296-3.338-3.631-4.303-6.134-.816-2.117-1.777-4.366-3.722-5.987-1.184-.987-2.333-2.373-2.78-3.804-.705-2.261-1.956-3.984-3.634-5.498-1.018-.919-1.862-1.831-1.525-3.389.175-.809-.058-1.274-1.093-1.724-1.621-.702-3.533-4.292-3.888-6.111-.119-.606-.143-1.383-.526-1.761-2.266-2.241-2.654-5.228-3.496-8.072-1.147-3.885-3.59-7.175-5.41-10.743-1.611-3.162-2.494-6.781-5.18-9.376-.287-.277-.428-.909-.352-1.324.448-2.434-.733-4.033-2.484-5.497-2.617-2.186-4.67-4.734-5.645-8.161-.296-1.042-.385-2.97-2.438-2.97-.153 0-.4-1.121-.439-1.731-.092-1.449.315-2.982-1.299-4.002-.423-.267-.698-1.101-.687-1.667.092-4.379-1.839-8.268-3.365-12.12-1.637-4.136-3.246-8.317-5.111-12.38-.701-1.527-.914-3.332-1.084-5.037-.316-3.168-2.22-5.783-2.867-8.822-.161-.758-.443-1.49-.596-2.249-.307-1.523.921-3.447-1.761-4.319-.976-.316-.344-2.541-.925-3.98-1.038-2.577-1.397-5.643-1.199-8.444.213-3.026-1.3-5.652-1.156-8.594.147-2.992.182-6.008-.03-8.992-.106-1.499-.903-2.942-1.327-4.427-.938-3.288-3.37-6.181-2.627-9.922.055-.276-.066-.641-.219-.896-.559-.939-1.385-1.787-1.679-2.796-.201-.689.725-1.798.439-2.355-1.271-2.479.509-5.577-1.695-7.804-2.029-2.051.337-5.21-1.806-7.264-.167-.159 0-.646-.025-.977-.328-4.361-.796-8.718-.959-13.085-.167-4.493.149-9.007-.107-13.491-.153-2.692 1.187-5.614-.93-8.089.557-1.651 1.101-3.239 1.054-5.086-.147-5.829-.054-11.663-.054-17.495 0-2.833-.129-5.673.039-8.496.151-2.539.247-5.186 1.043-7.559 1.46-4.351.575-8.752.953-13.108.177-2.042-.636-4.078.793-6.189 1.082-1.596-.829-4.237 1.149-6.007.166-.148.062-.648.016-.975-.765-5.431 1.219-10.679 1.066-16.085-.052-1.851.393-3.792.979-5.569 1.642-4.974 3.095-9.979 2.902-15.266-.052-1.421.779-2.398 1.015-3.596 1.356-6.898 4.712-13.051 7.121-19.555 1.66-4.479 4.637-8.45 5.005-13.453.069-.935 1.236-1.796 1.917-2.676 1.31-1.691.32-4.051 1.177-5.479.831-1.385 3.482-1.997 3.402-3.989-.113-2.793 2.3-4.456 2.468-7.042.072-1.11 2.544-.519 2.08-2.618-.157-.709 1.301-1.697 1.834-2.661.592-1.071.685-2.555 1.497-3.34 2.055-1.986 1.767-5.025 3.538-7.067-.902-2.331 2.362-2.8 2.188-5.185-.119-1.631 1.742-3.209 2.985-4.7 1.982-2.378 2.546-5.712 4.832-7.964 1.734-1.709 1.684-4.325 3.318-6.151 1.448-1.619 2.448-3.633 3.687-5.444.366-.536.868-.978 1.312-1.459 4.006-4.34 8.274-8.473 11.915-13.1 2.008-2.552 4.551-4.345 6.761-6.572 2.347-2.366 4.656-4.774 7.088-7.049 1.395-1.304 3.417-2.11 4.402-3.63 1.071-1.654 2.638-2.587 4.013-3.661 1.756-1.37 1.882-4.676 5.116-4.37.286.027.741-1.26 1.043-1.969 1.092-2.56 1.663-3.288 3.849-3.765.917-.2 1.068-.641 1.582-1.273a34.324 34.324 0 0 1 5.887-5.71c1.276-.965 2.51-1.954 3.738-2.917 1.518-1.189 2.098-4.156 4.969-3.349 1.748-1.414 3.479-2.847 5.245-4.237 3.011-2.372 6.255-4.503 8.958-7.183 1.042-1.033 3.468-.692 3.228-3.012 1.477-.458 2.986-1.363 4.423-1.261 1.922.135 1.064-1.703 2.078-2.144 1.979-.86 3.86-1.943 5.803-2.89 1.95-.95 3.21-3.116 5.724-3.132.507-.003.973-.789 1.521-1.104 1.371-.788 1.154-3.662 3.735-2.839 1.141-1.17 2.243-2.23 4.149-2.145.782.035 1.789-.696 2.377-1.359 2.205-2.484 5.88-2.212 8.157-4.495 2.258.275 3.225-2.247 5.58-2.382 1.782-.102 3.393-2.079 5.208-2.957 2.769-1.34 5.559-2.842 8.513-3.515 1.804-.411 1.906-3.359 4.611-2.296 1.354.533 3.359-.413 5.018-.877 1.776-.497 3.157-1.777 5.162-2.077 3.664-.547 6.842-3.101 10.773-2.927.394.018.841-.382 1.205-.664.393-.304.711-.996 1.07-1.002 2.907-.048 5.414-1.384 8.099-2.183 2.873-.855 6.024-.759 9.045-1.141.555-.07 1.516-.415 1.529-.671.057-1.123.554-1.423 1.56-1.315.494.053 1.008-.055 1.497.02 4.607.701 9.01-1.312 13.585-1.015.324.021.866.09.948-.06 1.424-2.587 4.261-1.224 6.088-2.221 2.137-1.166 4.179-.354 6.217-.72 1.7-.305 3.409-.591 5.08-1.016 1.341-.341 2.738-.694 3.919-1.374 1.49-.858 2.39 1.163 3.868.45 1.235-.596 2.771-.55 4.039-1.101 1.334-.578 2.22 1.385 3.807.229.902-.655 2.885-.726 3.999.796.115.157.699.135.958-.004 1.067-.574 2.587-1.99 3.036-1.7 1.211.783 1.832.924 2.925-.101.394-.369 1.736-.266 2.245.133 1.247.977 2.229.848 3.488.08.623-.381 1.655-.575 2.312-.334 3.13 1.146 5.967.103 8.842-.887.294-.102.674-.245.924-.145 5.259 2.113 10.75.371 16.087 1.01a7.707 7.707 0 0 0 5.031-1.122c1.018-.632 1.376-.578 2.281.011.476.31 1.51-.152 2.262-.369 1.707-.491 5.033-.576 6.939-.614 1.701-.034 3.381-.684 5.089-.914 1.607-.216 3.305-.013 4.832-.451.685-.197.87-.246 1.48.105.635.367 1.557.251 2.355.319 1.674.142 2.558-1.926 4.446-1.475 1.552.371 3.2.398 4.81.462 1.83.072 3.669.092 5.497-.008 1.402-.077 2.798.392 4.174-.869 1.002-.918 2.316.664 3.506.829 1.798.249 3.669-.065 5.486.103 1.711.158 3.382.793 5.092.911 1.42.098 2.955-.004 4.288-.459 2.199-.751 4.271-1.854 5.91.852.513.846.969.479 1.413-.098 1.488-1.935 3.657-1.621 5.38-.988 3.682 1.353 7.397 1.749 11.268 1.867 1.204.037 1.928-1.534 3.36-.506.67.481 1.821-1.314 3.17.102.652.684 2.505.246 3.814.274 1.333.029 2.681-.12 3.995.038 1.71.205 3.382.743 5.092.937 1.578.179 3.057.247 4.639.892 1.572.64 3.609.172 5.441.131 1.62-.037 3.109.103 4.624.939 1.197.662 2.802-.449 4.233.698.733.587 2.292.612 3.288.296 1.646-.522 3.138-1.054 4.695.076 1.723-1.36 3.374.452 5.191.12 1.602-.293 3.595-.861 5.116.833.298.332 1.285.103 1.946.038 2.124-.208 4.234-.011 6.06 1.053 1.812 1.055 3.716.756 5.604 1.005 2.416.318 4.757.654 7.193.017.808-.211 1.813.345 2.729.545.612.134 1.301.506 1.826.348 2.648-.801 5.238-1.351 8.036-.518.409.122 1.276-.656 2.043.039.319.29.854.52 1.272.492 2.218-.145 4.588.654 6.586-.972 2.049 1.14 4.126 1.61 6.312.334.166-.097.669.037.669.053-.088 2.918 3.363.597 3.86 2.612 1.552-.263 3.287.66 4.693-.814.199-.208 1.09.228 1.654.387.446.125 1.013.536 1.302.387 2.261-1.167 4.411-.382 6.708-.092 2.094.265 4.047.523 5.889 1.571.524.299 1.434.725 1.724.506 2.461-1.856 4.866-.662 7.195.102 1.637.537 2.876-1.238 4.779-.223 1.167.622 3.036.454 4.506 1.146.408.193 1.129-.173 1.461.063 1.662 1.185 2.488-2.1 4.479-.626 1.109.822 3.123.371 4.712.609 1.706.256 3.38.758 5.09.954 1.945.222 4.272-.388 5.778.489 1.628.949 3.325.287 5.017 1.332 1.979 1.223 4.928.875 7.456 1.208 1.391-1.827 3.046-.609 4.105.099 1.386.926 2.717.917 4.15.889 2.099-.04 4.131.026 6.096.989 3.029 1.483 6.487 1.031 9.677 1.96 2.267.66 4.695.857 7.068 1.027 2.321.166 4.805-.467 6.967.14 4.641 1.302 9.594 1.041 14.07 3.458 1.925 1.039 4.814.293 7.266.358.788-1.501 1.485-.182 2.201.084 2.184.812 4.742.441 6.67 1.982 1.416 1.131 2.208-1.424 3.843-.343 1.754 1.159 3.931 1.985 6.014 2.252 2.266.291 4.488.228 6.166 2.08 3.885-.231 7.271 2.301 11.16 2.013 1.218-.09 2.054.439 3.076 1.079 1.53.957 3.628 2.097 5.129 1.725 1.694-.42 2.397-.065 3.427.942 2.242 2.193 5.417 2.379 8.178 3.104 2.743.72 5.74 2.6 8.773.49.09-.062.701.314.745.548.357 1.891 1.662 2.284 3.279 2.108 1.356-.148 2.461.271 3.603.988 2.374 1.492 5.592.829 7.785 2.978.325.318 1.57.277 1.878-.062 2.034-2.244 3.124-.025 3.789 1.057 1.271 2.069 3.143 2.38 5.14 3.227 3.406 1.444 7.478 1.258 10.319 4.071.324.321.784.721 1.181.72 3.883-.005 6.806 2.25 9.701 4.315 1.307.933 2.485.653 3.727.68 1.366.03 2.496.117 3.501 1.319.776.928 1.943 1.673 3.084 2.125 3.723 1.476 7.087 3.692 11.055 4.747 1.922.51 4.542 1.076 5.382 3.706.136.423.722 1.058 1.023 1.018 3.063-.407 4.82 2.139 7.261 3.05 2.304.861 4.789 1.29 7.181 1.931 1.572.421 2.845 1.226 4.275 1.797 1 .4 1.969 1.282 2.942 1.268 2.72-.04 5.039.584 6.982 2.578.37.381 1.164.39 1.775.488 2.522.402 5.038-.461 7.674.813 2.179 1.054 5.16-.529 7.501 1.185.108.08.329.032.492.007 3.948-.591 7.53.837 11.178 1.975 1 .312 1.889 1.176 3.26.159.627-.465 3.119-1.189 3.15 1.475 3.664.716 6.696 3.332 10.591 3.426 2.051.05 4.198-.625 6.119.927 1.046.844 2.409-1.586 3.651.01 4.509-1.138 8.166 3.044 12.655 2.031 3.685 2.424 8.733 1.332 12.058 4.684 2.716-.322 3.704 2.289 5.627 3.311 2.488 1.322 4.894 2.96 7.016 4.634 3.154 2.487 5.334 6.031 6.259 10.309 1.059 4.871 2.539 9.626 2.187 14.72z" fill-rule="evenodd"/></g></switch></svg>