<svg xmlns="http://www.w3.org/2000/svg" xmlns:dc="http://dublincore.org/documents/dcmi-terms/" height="792" version="1.2" viewBox="0 0 612 792" width="612"><metadata><dc:description>Silhouette of Sousa plumbea, processed by PhyloPic Tools (https://github.com/eweitz/phylopic-tools)</dc:description><dc:source>http://phylopic.org/image/c49dbee0-39d5-4181-97be-1930a05ad315</dc:source><dc:creator>Chris huh</dc:creator><dc:license>http://creativecommons.org/licenses/by-sa/3.0/</dc:license></metadata><path d="M274.1 389.55a67.115 67.115 0 0 1 4.15-1.7c6.433-2.534 11.466-4.9 15.1-7.1 3.634-2.233 5.833-4.283 6.6-6.15.101-.167.167-.367.2-.6.066-.233.101-.467.101-.7l.1-.85-.1-2.85 1.899-.1c.267.033.533.1.8.2.267.066.567.2.9.4.366.133.783.333 1.25.6l4.2 2.2c.366.133.717.267 1.05.4.366.133.733.25 1.1.35.367.1.767.2 1.2.3l5.7 1.25c.366.1.717.216 1.05.35.367.1.717.233 1.05.4.334.133.65.283.95.45.367.167.7.35 1 .55l2.15 1.45c.166.1.434.233.8.4.366.133.833.284 1.4.45l4 .95 28.399 3.95c.467.067.834.15 1.101.25.666.167 1.3.367 1.899.6.601.2 1.167.45 1.7.75.566.267 1.1.566 1.6.9.5.334.967.684 1.4 1.05.467.366.884.767 1.25 1.2.366.434.7.9 1 1.4l1.85 2.3c.233.2.517.417.851.65.366.2.767.4 1.2.6.433.2.899.4 1.399.6l3.351.95c.6.1 1.133.233 1.6.4.467.167.866.333 1.2.5.666.367 1.017.784 1.05 1.25.066.434-.184.917-.75 1.45-.3.3-.684.566-1.15.8-.233.067-.5.15-.8.25a5.412 5.412 0 0 1-.95.25c-.366.067-.767.134-1.199.2l-10.2.9-2.101.35-12.55 3.65c-.434.166-.816.333-1.149.5l-.801.399-.199.15-.051.1c-.1.333-.316.7-.649 1.101-.334.366-.767.766-1.3 1.199-.267.2-.551.4-.851.601-.267.2-.566.417-.899.649-.301.167-.634.351-1 .551l-1.051.55c-.533.267-1.017.483-1.449.649-.434.2-.834.351-1.2.45-.5.167-.917.267-1.25.3l-.3-.05c-.367-.1-.551-.333-.551-.7 0-.399.15-.949.45-1.649l.45-1 .1-.351-5.899 3.65-3.851 1.55c-.6.2-1.149.351-1.649.45-.467.1-.884.15-1.25.15-.667 0-1.017-.217-1.05-.65 0-.566.966-1.85 2.899-3.85l1.05-1.2c.134-.167.217-.3.25-.4v-.149h-.05l-.2-.051-10.15-.749-37.5.4a90.732 90.732 0 0 0-4.05.6c-1.367.2-2.733.45-4.101.75-1.333.268-2.649.551-3.95.851-1.3.3-2.566.634-3.8 1-.967.267-1.95.5-2.95.7a31.16 31.16 0 0 1-2.85.55c-.9.134-1.8.25-2.7.35a30.55 30.55 0 0 1-2.45.101h-1.899l-.75 1.75c-.167.366-.4.8-.7 1.3-.333.466-.733.983-1.2 1.55l-3.75 3.95c-.3.267-.55.466-.75.6l-.2.15-.1.05h-.1a.555.555 0 0 1-.2-.2 2.229 2.229 0 0 1-.2-.399l-.2-.5a1.555 1.555 0 0 0-.2-.5 1.499 1.499 0 0 0-.35-.5 3.642 3.642 0 0 0-.45-.551 2.183 2.183 0 0 0-.5-.449 7.822 7.822 0 0 1-.7-.601c-.166-.2-.3-.366-.399-.5a1.003 1.003 0 0 1-.101-.45c0-.199.017-.416.051-.649l.1-1.05-1.4-.051c-.267 0-.533-.016-.8-.05l-.8-.2a11.877 11.877 0 0 0-.9-.399 19.293 19.293 0 0 1-1.1-.601 9.64 9.64 0 0 0-1.4-.8l-1.6-.7a24.533 24.533 0 0 0-1.65-.55 9.28 9.28 0 0 0-1.649-.45l-1.55-.3c-.934-.1-1.4-.283-1.4-.55.033-.3.533-.684 1.5-1.15.3-.166.6-.3.9-.399.333-.134.683-.25 1.05-.351.366-.1.75-.199 1.149-.3.434-.1.884-.183 1.351-.25l13.35-.75.7-1.05c.1-.133.267-.35.5-.65l3.4-3.449a75.5 75.5 0 0 1 2.449-2.25 36.233 36.233 0 0 1 2.551-2.051 41.118 41.118 0 0 1 2.699-2c.967-.633 1.95-1.25 2.95-1.85 1-.6 2.066-1.184 3.2-1.75 1.1-.6 2.25-1.184 3.45-1.75a101.997 101.997 0 0 1 3.799-1.702z" fill="#010101" fill-rule="evenodd"/></svg>