<svg xmlns="http://www.w3.org/2000/svg" xmlns:dc="http://dublincore.org/documents/dcmi-terms/" height="400" version="1.2" viewBox="0 0 550 400" width="550"><metadata><dc:description>Silhouette of Sphenisciformes, processed by PhyloPic Tools (https://github.com/eweitz/phylopic-tools)</dc:description><dc:source>http://phylopic.org/image/535f31dc-2b8a-448d-af5f-3ea8b18da773</dc:source><dc:creator>Nobu Tamura (vectorized by T. Michael Keesey)</dc:creator><dc:license>http://creativecommons.org/licenses/by/3.0/</dc:license></metadata><path d="M430.3 285.1a174.603 174.603 0 0 0 4.8 3.45 482.185 482.185 0 0 0 14.75 10.101 611.681 611.681 0 0 0 19.801 12.3 367.92 367.92 0 0 0 15.35 8.7l3.25 1.699c.767.4 1.533.784 2.3 1.15 6.8 3.434 13.601 6.8 20.4 10.1a22.916 22.916 0 0 1 5.7 4.4c.3.333.616.684.949 1.05 2.4 3.267 2.301 6.934-.3 11-1.533 2.434-3.649 4.066-6.35 4.9-1.101.399-2.3.649-3.601.75-7 .733-13.366-.45-19.1-3.55l-6.45-4.5c-3.1-2.634-6.1-5.034-9-7.2-5.7-4.2-11.717-7.834-18.05-10.9a598.41 598.41 0 0 1-17.95-8.899l-6.5-2.351-2.85-.7c-4.066 0-8.101.217-12.101.65-4.333.5-8.649 1.233-12.949 2.2l-26.45 5.7-12.149 1.45-.1.351-8.05 2.5a23.388 23.388 0 0 0-2.601 2.149v.75c0 .233.017.467.05.7.301 1.267.051 1.983-.75 2.15v1.399c.5.467 1.167.817 2 1.051.101.033.15.166.15.399s-.017.467-.05.7c-.2 1.533.283 3.684 1.45 6.45-.233 0-.351.017-.351.05-.267 1.6-.383 3.25-.35 4.95-.467.233-.717.5-.75.8-.267 2.8-.917 5.333-1.95 7.6-.6 1.5-1.434 2.884-2.5 4.15a24.189 24.189 0 0 1-3.2 3.2c-5.133 3.566-10.75 6.149-16.85 7.75a228.86 228.86 0 0 0-19.7 6.35c-10.5 6.467-20.083 10.117-28.75 10.95 2.366-3.434 3.333-5.833 2.9-7.2-.434-1.399-.733-2.1-.9-2.1-.2 0-.733-.167-1.6-.5-.867-.334-1.65-.483-2.351-.45-.7.066-1.95.434-3.75 1.1-1.833.667-3.267.851-4.3.551 2.5-2.233 4.316-4.051 5.45-5.45 1.133-1.367 1.7-2.167 1.7-2.4-2.9.334-5 .233-6.3-.3-.1-.066-.15-.217-.15-.45a87.281 87.281 0 0 1 10.399-4.75c6.467-2.2 12.983-4.05 19.551-5.55 7.399-1.634 14.949-2.1 22.649-1.4 3.101.101 6.101-.483 9-1.75a21.137 21.137 0 0 0 1.7-.899c1.733-2.634 2.283-5.267 1.65-7.9l-12 2.25-19.301 2.851-13.6 2.8a2034.562 2034.562 0 0 1-15.15 3.149c-.366.101-1.233.384-2.6.851-1.367.434-.817-1.55 1.65-5.95a9.883 9.883 0 0 0-.7-.55c-1.5-.667-3.117-.983-4.85-.95-.6-.033-1.25-.05-1.95-.05.5-1.8 1.817-3.384 3.95-4.75 2.133-1.367 3.2-2.167 3.2-2.4-4.1-.5-5.45-1.1-4.05-1.8a10.716 10.716 0 0 1 4.45-1.25c1.566-.066 3.7-.184 6.399-.35 4.934-.601 10.767-1.017 17.5-1.25 6.7-.267 13.134-.634 19.301-1.101-.267-.866-.684-1.733-1.25-2.6a9.372 9.372 0 0 0-2-2.15c-.5-.467-1.034-.883-1.601-1.25l-.149-.45c-.134 0-.267.017-.4.051-.167-.034-.283-.101-.35-.2a.539.539 0 0 1-.4-.15c-.134-.1-.25-.217-.35-.35a6.964 6.964 0 0 1-.65-.75l-1.7-.55c-.2-.2-.35-.5-.45-.9-.899 0-1.85-.6-2.85-1.8-1.033-1.167-2.4-2.584-4.1-4.25a46.197 46.197 0 0 0-10.301-4.65c-.933-.267-1.85-.517-2.75-.75h-11.45c-1.067.066-1.95.134-2.65.2-.3 0-.55.017-.75.05h-.1c.767 2.667.8 4.684.1 6.05-.733 1.367-4.367-1.916-10.9-9.85-.233 0-.467-.033-.7-.1a79.9 79.9 0 0 1-1.45-.5l-32.9-13.7c1.733 17.133 6.15 34.416 13.25 51.85 1.633 3.467.917 4.601-2.15 3.4l-1.6-.8c-8.4-3.867-15.683-9.034-21.85-15.5l-9.1-11.801L191.4 305.15l-.55-.15-15.2-34.2-6.45-9.3-.55-.15-.9-2-13.55-15-.55-.149-1-1.95-.4-.25-.2-.5-.75-.35-.8-1.801-.4-.25-.2-.5-.55-.149-3.75-6.25-.55-.15-1.6-3.45-.75-.3-.7-1.85-.5-.15a47.474 47.474 0 0 1-3.75-6.55 114.385 114.385 0 0 1-6.9-18.5c-2.533-11.533-1.9-23.167 1.9-34.9.3-.934.617-1.883.95-2.85l12.6-39.35v-2.85c0-.533-.017-1.05-.05-1.55 0-.367-.017-.75-.05-1.15-.733-4.967-2.867-9.333-6.4-13.1l-1.35-1.35-13.6-17.2a42.45 42.45 0 0 0-6.1-7.7l-3.2-3.75L76.2 36.9a498.56 498.56 0 0 1-26.25-26.2l-1.7-1.8A43.709 43.709 0 0 1 44 4a218.1 218.1 0 0 1 35.65 19.35c.733.5 1.467.983 2.2 1.45a2000.04 2000.04 0 0 0 15.4 10c.667.434 1.35.867 2.05 1.3 3.934 2.6 7.867 5.233 11.8 7.9 5.8 4 11.816 7.55 18.05 10.65a130.07 130.07 0 0 0 14.4 6.05l4.9 1.7 7.15 2.35c4.2 1.533 8.017 3.5 11.45 5.9a35.994 35.994 0 0 1 7.9 6.7c5.633 6.333 8.683 13.417 9.15 21.25a47.789 47.789 0 0 0-.15 2.2 55.513 55.513 0 0 1-3.9 17.1c-2.6 10.6-2.767 21.083-.5 31.45 1.2 6.967 4.267 12.8 9.2 17.5 2.333 2.267 5.117 3.767 8.35 4.5l36.5 8.25c4.066 1.033 8.117 2.083 12.15 3.15 22.433 6.033 43.8 13.05 64.1 21.05 19.534 7.7 37.217 17.15 53.051 28.351l19.449 15.05 22.9 19.3L430.3 285.1z" fill-rule="evenodd"/></svg>