<svg xmlns="http://www.w3.org/2000/svg" xmlns:dc="http://dublincore.org/documents/dcmi-terms/" height="289.363" width="385.299"><metadata><dc:description>Silhouette of Spirotaenia, processed by PhyloPic Tools (https://github.com/eweitz/phylopic-tools)</dc:description><dc:source>http://phylopic.org/image/5c29d2f8-8617-4fa7-bf83-5f015c6d92f4</dc:source><dc:creator>Matt Crook</dc:creator><dc:license>http://creativecommons.org/licenses/by-sa/3.0/</dc:license></metadata><rect height="56.203" rx="65.164" ry="26.138" style="marker:none" transform="rotate(-35.931)" width="463.819" x="-160.818" y="202.1" color="#000" fill="none" stroke="#000" stroke-width="3" stroke-linecap="round" stroke-linejoin="round" overflow="visible"/><path d="M309.656 25.17l-30.062 21.812c18.265 4.998 32.458 27.657 51.875 27.657h5.687l7-5.063c7.174-5.199 13.586-10.708 19.063-16.25-19.926-.401-34.384-24.515-53.563-28.156zM272.281 52.295l-30 21.719c18.787 4.375 33.142 27.937 52.938 27.937h4.281l29.406-21.312h-1.437c-20.573 0-35.286-25.433-55.188-28.344zM234.781 79.451l-29.844 21.625c19.325 3.692 33.856 28.188 54.032 28.188h2.844l29.406-21.313c-21.008 0-35.886-26.523-56.438-28.5zM197.25 106.639l-29.719 21.53c19.92 2.887 34.634 28.376 55.219 28.376h1.406l29.469-21.344c-20.723-1.132-35.607-27.625-56.375-28.562zM159.656 133.889l-29.594 21.437c20.541 1.994 35.438 28.531 56.438 28.531l29.594-21.468c-20.426-2.163-35.295-28.5-56.219-28.5h-.219zM121.969 161.201L92.5 182.545c20.775.937 35.672 27.447 56.406 28.562l29.75-21.562c-19.825-3.018-34.51-28.344-55.031-28.344h-1.656zM84.281 188.514l-29.375 21.28h.25c20.936 0 35.776 26.364 56.219 28.5l29.875-21.655c-19.239-3.804-33.76-28.125-53.875-28.125h-3.094zM46.625 215.795l-5.469 3.969c-7.675 5.562-14.47 11.507-20.187 17.437 19.45 1.6 33.795 25.315 52.937 28.25l.219-.156 29.781-21.594c-18.696-4.486-33.02-27.906-52.75-27.906h-4.531zM15.594 243.139C6.92 253.44 1.795 263.38 1.5 271.014c7.773 5.03 15.155 11.842 23 16.562 11.495-1.273 26.517-7.173 41.781-16.937-17.82-5.194-31.792-26.978-50.687-27.5zM357.156 2.295c-11.46 2.089-25.751 8.222-40.125 17.719 17.696 5.625 31.696 27.343 50.688 27.343h1.031c8.286-9.58 13.522-18.913 14.75-26.437-9-5.28-17.323-13.433-26.344-18.625z" stroke="#000" stroke-width="3"/><path d="M117.333 335.153a9.294 8.713 0 1 1-18.588 0 9.294 8.713 0 1 1 18.588 0z" style="marker:none" transform="matrix(.9146 0 0 .97557 -73.661 -58.931)" color="#000" fill="#fff" stroke="#000" stroke-width="3.176" stroke-linecap="round" stroke-linejoin="round" overflow="visible"/><path d="M117.333 335.153a9.294 8.713 0 1 1-18.588 0 9.294 8.713 0 1 1 18.588 0z" style="marker:none" transform="matrix(.9146 0 0 .97557 -39.971 -90.297)" color="#000" fill="#fff" stroke="#000" stroke-width="3.176" stroke-linecap="round" stroke-linejoin="round" overflow="visible"/><path d="M117.333 335.153a9.294 8.713 0 1 1-18.588 0 9.294 8.713 0 1 1 18.588 0z" style="marker:none" transform="matrix(.9146 0 0 .97557 -12.09 -122.825)" color="#000" fill="#fff" stroke="#000" stroke-width="3.176" stroke-linecap="round" stroke-linejoin="round" overflow="visible"/><path d="M117.333 335.153a9.294 8.713 0 1 1-18.588 0 9.294 8.713 0 1 1 18.588 0z" style="marker:none" transform="matrix(.9146 0 0 .97557 14.629 -107.723)" color="#000" fill="#fff" stroke="#000" stroke-width="3.176" stroke-linecap="round" stroke-linejoin="round" overflow="visible"/><path d="M117.333 335.153a9.294 8.713 0 1 1-18.588 0 9.294 8.713 0 1 1 18.588 0z" style="marker:none" transform="matrix(.9146 0 0 .97557 29.731 -149.544)" color="#000" fill="#fff" stroke="#000" stroke-width="3.176" stroke-linecap="round" stroke-linejoin="round" overflow="visible"/><path d="M117.333 335.153a9.294 8.713 0 1 1-18.588 0 9.294 8.713 0 1 1 18.588 0z" style="marker:none" transform="matrix(.9146 0 0 .97557 51.804 -133.28)" color="#000" fill="#fff" stroke="#000" stroke-width="3.176" stroke-linecap="round" stroke-linejoin="round" overflow="visible"/><path d="M117.333 335.153a9.294 8.713 0 1 1-18.588 0 9.294 8.713 0 1 1 18.588 0z" style="marker:none" transform="matrix(.9146 0 0 .97557 83.17 -163.485)" color="#000" fill="#fff" stroke="#000" stroke-width="3.176" stroke-linecap="round" stroke-linejoin="round" overflow="visible"/><path d="M117.333 335.153a9.294 8.713 0 1 1-18.588 0 9.294 8.713 0 1 1 18.588 0z" style="marker:none" transform="matrix(.9146 0 0 .97557 122.668 -183.234)" color="#000" fill="#fff" stroke="#000" stroke-width="3.176" stroke-linecap="round" stroke-linejoin="round" overflow="visible"/><path d="M117.333 335.153a9.294 8.713 0 1 1-18.588 0 9.294 8.713 0 1 1 18.588 0z" style="marker:none" transform="matrix(.9146 0 0 .97557 142.417 -222.732)" color="#000" fill="#fff" stroke="#000" stroke-width="3.176" stroke-linecap="round" stroke-linejoin="round" overflow="visible"/><path d="M117.333 335.153a9.294 8.713 0 1 1-18.588 0 9.294 8.713 0 1 1 18.588 0z" style="marker:none" transform="matrix(.9146 0 0 .97557 172.621 -251.775)" color="#000" fill="#fff" stroke="#000" stroke-width="3.176" stroke-linecap="round" stroke-linejoin="round" overflow="visible"/><path d="M117.333 335.153a9.294 8.713 0 1 1-18.588 0 9.294 8.713 0 1 1 18.588 0z" style="marker:none" transform="matrix(.9146 0 0 .97557 194.694 -240.158)" color="#000" fill="#fff" stroke="#000" stroke-width="3.176" stroke-linecap="round" stroke-linejoin="round" overflow="visible"/><path d="M117.333 335.153a9.294 8.713 0 1 1-18.588 0 9.294 8.713 0 1 1 18.588 0z" style="marker:none" transform="matrix(.9146 0 0 .97557 216.766 -273.847)" color="#000" fill="#fff" stroke="#000" stroke-width="3.176" stroke-linecap="round" stroke-linejoin="round" overflow="visible"/><path d="M117.333 335.153a9.294 8.713 0 1 1-18.588 0 9.294 8.713 0 1 1 18.588 0z" style="marker:none" transform="matrix(.9146 0 0 .97557 255.103 -304.052)" color="#000" fill="#fff" stroke="#000" stroke-width="3.176" stroke-linecap="round" stroke-linejoin="round" overflow="visible"/></svg>