<svg xmlns="http://www.w3.org/2000/svg" xmlns:dc="http://dublincore.org/documents/dcmi-terms/" height="460.286" viewBox="0 0 888.33584 431.51785" width="947.558"><metadata><dc:description>Silhouette of Stomatosuchidae, processed by PhyloPic Tools (https://github.com/eweitz/phylopic-tools)</dc:description><dc:source>http://phylopic.org/image/f7d45c6d-e506-4826-8ffe-3f75d588d378</dc:source><dc:creator>Stanton F. Fink, vectorized by Zimices</dc:creator><dc:license>http://creativecommons.org/licenses/by-sa/3.0/</dc:license></metadata><path d="M191.088 430.756c-3.015-.268-6.322-1.327-7.35-2.354-1.026-1.026-2.582-1.592-3.456-1.256-.875.336-1.882-.503-2.238-1.865-.451-1.724.64-3.646 3.598-6.338 2.335-2.125 4.602-5.05 5.04-6.5.436-1.452 2.065-4.045 3.62-5.764 1.554-1.718 3.605-4.808 4.559-6.864 1.2-2.59 2.876-3.938 5.45-4.384 3.162-.548 3.833-1.345 4.48-5.323 1.249-7.686 4.964-13.429 8.688-13.429 1.768 0 3.89.675 4.716 1.5 1.166 1.167 1.511.82 1.552-1.562.028-1.685 1.895-5.148 4.147-7.696 3.254-3.68 5.107-4.694 9.01-4.93 4.583-.276 6.726-1.526 6.771-3.948.01-.556-.543-.664-1.23-.239-.688.425-1.25.217-1.25-.462 0-2.47-4.019-5.163-7.705-5.163-2.077 0-5.206-1.125-6.954-2.5-1.748-1.375-4.282-2.5-5.63-2.5-1.349 0-5.35-.84-8.894-1.869-3.543-1.027-14.88-3.189-25.192-4.802-10.986-1.718-20.821-3.976-23.75-5.452-2.75-1.385-10.11-3.764-16.355-5.286-10.123-2.468-15.68-4.746-28.645-11.743-7.564-4.083-23.927-10.61-30.26-12.07-3.58-.826-9.768-3.467-13.75-5.87-3.982-2.401-10.14-5.741-13.684-7.422-3.544-1.68-10.012-6.14-14.375-9.911a68301.28 68301.28 0 0 0-15.51-13.403c-4.168-3.6-8.134-7.672-8.813-9.047-.68-1.375-3.221-6.437-5.648-11.25-5.519-10.943-7.373-16.166-7.955-22.41-.251-2.702-.86-7.764-1.354-11.25-.493-3.487-1.045-8.87-1.226-11.965-.18-3.093-.728-12.375-1.216-20.625-.962-16.254.627-31.247 3.832-36.137 2.437-3.72 8.227-18.511 7.521-19.216-.3-.3.791-2.663 2.424-5.25 1.634-2.588 4.714-8.552 6.846-13.253 2.131-4.701 4.478-8.92 5.215-9.375.736-.455 2.958-.217 4.937.53 3.242 1.224 4.005.964 7.716-2.633 2.265-2.196 5.93-4.354 8.146-4.798 2.4-.48 4.029-1.567 4.029-2.689 0-5.372 9.627-14.546 10.986-10.47.793 2.379 5.448 1.688 5.198-.771-.404-3.969.036-5.188 2.801-7.764 3.255-3.032 8.816-3.318 11.54-.594 2.333 2.332 4.475 1.35 4.475-2.053 0-1.862 4.268-10.174 6.864-13.369.857-1.054 4.243 1.536 5.44 4.161.765 1.681 1.906 3.056 2.535 3.056 1.82 0 2.827-3.917 1.439-5.59-1.35-1.626.13-3.936 11.857-18.506 8.9-11.059 12.411-14.259 19.099-17.407 7.124-3.353 15.617-3.618 21.395-.669 2.34 1.195 5.434 2.164 6.875 2.154 3.07-.021 11.036-2.696 16.37-5.497 2.063-1.083 4.947-1.973 6.41-1.977 1.463-.004 3.36-.851 4.216-1.883.855-1.03 2.313-1.875 3.24-1.875.926 0 3.779-1.177 6.34-2.615 2.561-1.439 7.781-2.892 11.6-3.229 3.82-.337 7.788-.931 8.82-1.32 1.03-.39 3.103-.588 4.604-.443 1.502.146 6.002-.361 10-1.126 3.999-.764 10.927-1.6 15.396-1.857 4.468-.257 14.03-.977 21.25-1.6 7.218-.622 15.937-.908 19.375-.636 3.437.273 24.812.72 47.5.992 22.687.272 47.718 1.15 55.625 1.952 7.906.8 16.906 1.581 20 1.735 17.888.886 33.395 2.337 35.23 3.296 1.158.606 4.315 1.101 7.016 1.101 2.7 0 9.598 1.167 15.327 2.593 5.73 1.426 15.792 3.606 22.36 4.844 6.568 1.239 13.018 2.699 14.334 3.245 1.872.777 2.16.607 1.323-.782-.85-1.408-.698-1.482.732-.356 1.808 1.422 20.808 6.807 25.616 7.26 1.41.132 3.239.658 4.065 1.169.826.51 5.537 2.3 10.469 3.978 4.932 1.678 10.163 3.833 11.624 4.79 6.77 4.437 14.886 5.995 30.52 5.86 8.52-.073 17.24.4 19.375 1.053 2.136.652 6.415 1.842 9.509 2.644 3.093.802 7.984 2.526 10.868 3.83 2.885 1.305 6.272 2.372 7.527 2.372 1.256 0 6.093 2.778 10.75 6.174 6.094 4.442 10.468 6.585 15.599 7.644 6.673 1.377 10.396 2.985 19.63 8.477 4.561 2.712 14.523 5.645 26.25 7.727 4.813.855 9.313 1.967 10 2.47.688.505 3.666 1.286 6.618 1.736 2.952.45 6.327 1.303 7.5 1.893 7.767 3.91 13.135 5.502 20.258 6.003 4.468.314 9.812 1.326 11.875 2.247 2.062.922 10.5 3.188 18.75 5.036 8.25 1.849 18.003 4.426 21.673 5.727 3.67 1.302 8.17 2.38 10 2.396 4.365.038 19.342 4.095 26.452 7.165 3.093 1.335 7.741 2.821 10.329 3.301 12.51 2.323 29.477 13.897 30.535 20.829.22 1.44 1.24 3.458 2.267 4.486 2.716 2.715 2.309 7.544-1.366 16.2-3.003 7.077-3.776 7.893-10.526 11.12l-7.286 3.482-37.29-.717c-40.444-.778-44.507-1.304-68.538-8.871-14.43-4.544-12.273-4.275-72.5-9.018-30.721-2.42-69.026-2.673-76.875-.51-8.425 2.323-19.76 2.543-27.68.539-12.255-3.101-18.759-2.366-38.582 4.363-14.401 4.888-20.547 6.326-29.988 7.016-6.532.477-15.25 2.008-19.375 3.403-4.125 1.394-12 2.994-17.5 3.557-29.617 3.028-30.545 3.228-36.479 7.851-6.93 5.4-16.37 7.097-22.271 4.004-2.063-1.08-4.752-1.968-5.977-1.972-3.124-.011-4.276-3.775-1.727-5.639 2.632-1.924 2.707-5.619.114-5.619-1.08 0-2.824-.86-3.874-1.91-2.483-2.483-.17-5.59 4.16-5.59 2.595 0 2.836-.338 1.722-2.417-2.112-3.949-1.517-5.083 2.67-5.083 2.18 0 4.853-.79 5.938-1.755 1.526-1.357 3.501-1.51 8.71-.673 4.603.74 8.263.606 11.562-.424 8.471-2.644 5.664-4.115-7.986-4.186-17.174-.089-46.92-2.608-65.312-5.532-8.25-1.31-18.657-2.89-23.125-3.509-15.369-2.128-33.145-5.257-43.81-7.712-11.976-2.755-25.44-3.144-29.512-.852-1.483.835-6.638 5.939-11.455 11.342-4.817 5.403-10.635 10.943-12.929 12.312-2.293 1.368-5.857 4.034-7.92 5.922-7.19 6.585-21.301 10.586-44.502 12.617-8.524.747-16.901 1.935-18.617 2.642l-3.12 1.284 3.502 3.012c1.926 1.657 4.736 3.02 6.245 3.03 5.169.032 8.368 1.494 8.368 3.825 0 1.406 2.188 3.585 5.625 5.598 5.353 3.138 7.422 6.668 4.062 6.933-.86.067-2.969.208-4.687.312-2.86.173-3.158.746-3.503 6.752-.335 5.82-.69 6.562-3.137 6.562-1.518 0-3.462-1.125-4.32-2.5-.86-1.375-2.682-2.5-4.051-2.5-1.995 0-2.49.84-2.49 4.222 0 2.322-.882 4.955-1.96 5.85-1.667 1.383-2.383 1.1-4.761-1.882-2.558-3.209-3.041-3.362-5.618-1.788-2.585 1.58-3.074 1.413-5.904-2.027-4.48-5.443-13.485-14.353-14.519-14.364-1.118-.013-8.618-8.086-13.474-14.505-4.513-5.963-5.204-13.63-1.34-14.856 1.332-.423 3.063-2.711 3.846-5.084.784-2.374 1.874-4.316 2.424-4.316.55 0 2.25-2.91 3.781-6.467 2.87-6.67 5.196-9.783 7.314-9.783.67 0 1.794-1.656 2.5-3.68.706-2.025 2.73-4.939 4.497-6.476 3.853-3.35 4.123-4.847.715-3.956-1.398.366-2.5.039-2.5-.742 0-1.93-5.673-1.75-9.75.31-1.857.937-6.752 1.996-10.878 2.353-5.303.458-9.885 1.926-15.625 5.007-4.467 2.398-10.716 5.046-13.887 5.886-4.904 1.298-7.923 3.731-20.23 16.3-13.048 13.327-19.63 22.183-19.63 26.413 0 .832-.785 2.402-1.745 3.487-2.399 2.714-1.24 15.098 1.412 15.098 1.073 0 1.568-.735 1.178-1.751-1.118-2.913 3.68-3.17 9.102-.487 3.247 1.606 5.053 3.346 5.053 4.869 0 1.303.562 2.37 1.25 2.37.687 0 1.25 1.618 1.25 3.596 0 1.979.886 4.333 1.97 5.232 2.051 1.703 2.207 1.597 5.403-3.697 1.505-2.49 7.252 1.908 8.265 6.326.8 3.488 3.752 5.54 5.02 3.488 2.262-3.66 8.092 2.233 8.092 8.18 0 3.487.488 4.374 2.41 4.374 1.326 0 3.299-.887 4.383-1.972 1.363-1.363 3.108-1.723 5.644-1.166 3.13.687 3.728 1.47 4.055 5.313.456 5.375 3.029 6.748 4.65 2.483 1.032-2.714 1.68-2.962 5.937-2.27 4.086.664 4.872 1.317 5.43 4.507.605 3.47 1.042 3.737 6.258 3.829 3.953.07 5.616.622 5.635 1.875.04 2.553 3.235 9.901 4.305 9.901.498 0 1.91-1.11 3.138-2.467 1.31-1.448 3.326-2.26 4.881-1.968 1.457.275 3.239.541 3.96.592.721.052 2.02 2.053 2.886 4.45 1.208 3.338 2.183 4.262 4.178 3.958 1.432-.219 3.303-1.355 4.159-2.525 4.11-5.62 10.59-1.788 10.59 6.261 0 8.982 3.739 10.711 7.052 3.262 1.146-2.578 1.984-5.151 1.86-5.718-.123-.567.294-.71.927-.32.632.391 1.458-.093 1.835-1.075 1.046-2.726 5.41-4.768 5.41-2.532 0 2.932 3.34 12.391 4.707 13.33.699.479 3.075-.505 5.281-2.188 2.207-1.683 4.287-3.06 4.624-3.06.337 0 2.3 1.688 4.362 3.75 2.877 2.877 4.878 3.75 8.596 3.75 2.666 0 5.509-.662 6.319-1.472 1.129-1.13 2.074-.11 4.058 4.375 1.423 3.216 2.88 5.847 3.237 5.847.358 0 2.544-2.008 4.86-4.463 4.925-5.222 7.374-4.691 11.863 2.573 3.224 5.216 4.466 5.419 7.733 1.265 1.352-1.718 3.29-3.125 4.306-3.125 2.17 0 10.456 8.661 10.465 10.938.007 1.898 1.855 1.999 5.075.275 3.04-1.627 8.68 1.724 8.68 5.157 0 2.356 2.104 3.241 9.3 3.913 2.932.273 4.843 1.986 9.45 8.467 3.176 4.47 7.293 8.862 9.15 9.762 4.023 1.95 6.722 6.978 11.95 22.262 4.06 11.866 5.454 28.118 2.565 29.904-.734.454-1.031 1.616-.66 2.583.998 2.601-8.735 20.56-13.37 24.67-2.205 1.954-6.227 4.983-8.938 6.73-8.822 5.684-31.139 16.59-33.948 16.59-1.507 0-9.38 1.406-17.497 3.124-13.717 2.905-16.964 3.11-46.067 2.907-17.22-.12-33.776-.437-36.791-.705z"/></svg>