<svg xmlns="http://www.w3.org/2000/svg" xmlns:dc="http://dublincore.org/documents/dcmi-terms/" height="442.467" version="1.2" viewBox="0 0 376.27 442.467" width="376.27" overflow="inherit"><metadata><dc:description>Silhouette of Struthio camelus, processed by PhyloPic Tools (https://github.com/eweitz/phylopic-tools)</dc:description><dc:source>http://phylopic.org/image/14ddbf4d-7749-4153-bbe1-8d0c6ffdf142</dc:source><dc:creator>Matt Martyniuk (vectorized by T. Michael Keesey)</dc:creator><dc:license>http://creativecommons.org/licenses/by-sa/3.0/</dc:license></metadata><path d="M56 1.467c14.825 9.133 2.372 26.497 0 43-.804 5.59.59 11.913 0 19-2.245 26.963-5.104 60.102 1 77 11.758 32.549 50.833 5.047 66-7 26.721-9.507 53.558-22.193 90-25 13.468-1.038 21.861-.25 30 5 20.981 1.112 34.368 9.764 57 15 13.262 3.068 23.699 11.68 34 17 12.819 6.621 19.157 8.938 30 20 8.176 8.341 20.768 22.587 4 28-2.586 4.145 2.448 10.891-2 14-3.947 2.347-13.146-2.254-18 1-2.853 1.481-1.969 6.698-3 10-15.236.061-30.492-3.106-43-7-3.25-1.012-5.676-3.905-9-4-8.584-.244-13.192 6.041-21 10 5.886 15.967 5.633 35.271-8 43-5.444-1.217-9.143.29-13-1 .725 14.972-8.393 22.231-12 34-1.616 5.271-.859 12.815-2 20-3.156 19.875-3.488 37.209-5 57-2.542 33.289 4.417 67.235-27 72-6.176-9.858-24.033-6.847-36-7 8.705-14.783 33.965-4.683 43-19 14.169-22.453 3.375-68.085 6-102-7.02-14.98-20.147-23.854-25-41-4.352-5.648-11.055-8.945-16-14-1.406-7.594-5.376-12.623-8-19-25.044 1.355-48.497-5.676-64-17-2.837-.17-1.952 3.382-6 2-11.478-7.331-14.282-16.566-23-24-5.66-4.826-12.769-6.975-18-12-12.166-11.687-23.062-33.324-24-58-.297-7.831 3.048-16.088 4-25 .722-6.764-.718-13.745 0-20 2.369-20.646 12.52-46.014-2-58-8.199-6.769-24.19-5.666-36-7 2.697-5.303 9.518-6.482 16-8 8.09-8.793 21.505-16.865 40-12z" fill-rule="evenodd"/></svg>