<svg xmlns="http://www.w3.org/2000/svg" xmlns:dc="http://dublincore.org/documents/dcmi-terms/" height="168.905" width="198.376"><metadata><dc:description>Silhouette of Syntrophorhabdaceae, processed by PhyloPic Tools (https://github.com/eweitz/phylopic-tools)</dc:description><dc:source>http://phylopic.org/image/dec41a6a-0177-43d9-8fb8-4ed335f1db66</dc:source><dc:creator>Matt Crook</dc:creator><dc:license>http://creativecommons.org/licenses/by-sa/3.0/</dc:license></metadata><g transform="translate(-275.899 -396.958)"><rect height="60.049" rx="62.484" ry="30.025" style="marker:none" transform="rotate(-38.737)" width="230.053" x="-123.69" y="580.197" color="#000" fill="#333" stroke="#000" stroke-linecap="round" stroke-linejoin="round" overflow="visible"/><rect height="70.049" rx="65.2" ry="35.025" style="marker:none" transform="rotate(-38.737)" width="240.053" x="-128.69" y="575.197" color="#000" fill="none" stroke="#666" stroke-linecap="round" stroke-linejoin="round" overflow="visible"/><path d="M296.538 509.494c-5.355 6.674-9.375 13.373-11.848 19.64 3.03-1.481 6.986-2.592 8.875-5.717 2.042-3.38 3.38-9.82 2.973-13.923zm-14.671 32.401c-.073 4.48 1.024 8.417 3.495 11.498 4.974 6.2 14.454 7.855 25.937 5.515-3.579-1.559-10.704-.005-11.17-3.338-.618-4.406 10.854-3.882 9.227-7.924-1.626-4.041-11.697 2.813-13.913.785-2.215-2.027 1.61-2.87-.132-4.06-1.741-1.19-6.32 4.29-8.117 2.866-1.797-1.425 1.94-3.362.564-5.14-.953-1.23-3.714-.168-5.891-.202zM432.61 405.542c3.794.053 7.41.112 8.202 1.834 1.715 3.731.376 4.469-.893 6.927-1.27 2.458 1.227 4.875 3.552 2.88 2.325-1.996 5.055-4.977 7.33-3.798 2.275 1.18-.15 4.68.985 7.022 1.137 2.342 5.11 2.553 6.004.392.893-2.161 1.009-4.988 3.99-4.764 2.073.156 2.749 9.11 4.691 14.986 2.875-8.701 2.546-16.353-1.654-21.588-5.855-7.299-17.942-8.285-32.206-3.89zM383.585 463.15c-1.625 3.848-.577 10.724 1.728 13.177 2.306 2.453 4.95-.315 6.782 1.322 1.833 1.637.916 6.11 2.355 7.474 1.439 1.363 2.001 1.372 3.93 1.008 1.929-.363 5.654-2.185 6.267-4.507.613-2.322-4.51-3.7-2.796-6.08 1.714-2.378 8.469 3.621 10.837 1.19 2.368-2.432-.117-7.126-1.28-9.377-1.163-2.25-1.969-3.362-4.187-3.923-2.22-.56-5.847 3.44-7.728 2.039-1.882-1.402.969-4.224-.199-6.083-1.167-1.86-3.144-3.537-6.277-3.287s-7.808 3.198-9.432 7.046z" stroke="#000"/></g></svg>