<svg xmlns="http://www.w3.org/2000/svg" xmlns:dc="http://dublincore.org/documents/dcmi-terms/" height="574" viewBox="0 0 1004 574" width="1004"><metadata><dc:description>Silhouette of Tapirini, processed by PhyloPic Tools (https://github.com/eweitz/phylopic-tools)</dc:description><dc:source>http://phylopic.org/image/8f6b8802-52f9-4f16-8429-0b86ea4a4aa8</dc:source><dc:creator>Steven Traver</dc:creator><dc:license>http://creativecommons.org/publicdomain/zero/1.0/</dc:license></metadata><g fill-rule="evenodd"><path d="M669 0c-23.549 1.724-46.904 3.85-69 8-.365.068-1.756-.244-2 0-.212.212.25 1.9 0 2-1.703.682-3.19-1.1-4-1-6.24.771-12.635.829-18 2-.547.12-2.042 1.8-3 2-1.588.332-3.428-.39-5 0-.317.079-1.522 1.851-2 2-1.522.475-3.455-.407-5 0-2.103.554-4.882 2.355-7 3-4.649 1.416-9.491 3.099-14 4-6.811 1.361-14.146 1.671-21 3-20.039 3.886-41.16 8.191-62 10-15.129 1.313-30.507.834-45 3-3.455.516-6.522 1.299-10 2-1.614.325-4.264-.474-6 0-.211.058-.684 1.85-1 2-.758.359-2.169-.168-3 0-6.97 1.409-14.199 1.431-21 3-6.121 1.413-12.02 4.028-18 6-6.768 2.232-11.809 4.673-17 7-2.79 1.25-6.177 1.667-9 3-2.463 1.163-5.568 4.299-7 5-6.012 2.942-12.224 4.087-18 7-5.275 2.66-10.325 6.487-16 10-4.567 2.828-10.984 6.192-14 9-.77.717-2.146.313-3 1-2.558 2.059-3.686 5.103-6 7-3.396 2.785-8.73 5.032-12 7-1.341.807-2.646 2.112-4 3-4.252 2.788-9.464 4.912-13 7-1.43.844-2.437 1.885-4 3-2.603 1.857-5.285 3.261-8 5-5.46 3.497-10.463 7.734-16 11-5.689 3.355-12.485 5.547-18 9-5.667 3.548-9.727 8.299-15 12-4.84-1.352-4.704-6.512-8-9-5.317-4.014-14.976-3.979-21-7-2.407 3.811-6.444.361-9 1-6.688 1.672-15.458 12.106-17 18-2.189 8.368.059 21.253-1 30-.453 3.737-.218 9.008-1 11-1.974 5.031-3.377 3.078-7 6-5.897 4.758-8.352 9.503-12 15-5.561 8.379-11.999 15.581-17 24-6.671 11.229-11.716 23.5-18 36-5.085 10.114-10.734 22.614-16 31-2.071 3.298-2.801 6.464-4 9-2.432 5.144-5.168 9.51-7 14-2.632 6.451-4.034 13.556-7 20-3.125 6.79-7.466 13.156-11 20C7.86 393.695.701 413.841 0 438V0h669zM707 0h297v574H0V444c.557 27.11 5.729 49.604 24 59 2.91-1.646 7.233-2.986 11-1 2.829-.838 3.404-3.93 5-6 2.735-.932 4.265-3.068 7-4 1.299-4.701 1.024-10.977 3-15 2.873-2.127 9.973-.027 13-2 4.869-3.116 5.709-9.905 10-14 3.53-3.368 10.498-5.653 14-8 2.058-1.379 4.681-4.125 6-5 5.14-3.41 10.655-10.194 15-12 .85-.353 2.116.268 3 0 .358-.108 1.476-1.92 2-2 3.034-.467 6.659 1.25 10 1 1.482-.111.239-1.579 1-2 .878-.485 1.612 1.454 3 1 2.01-.657 3.794-.049 4-3h11c2.135-1.67 5.326-2.959 7-4 3.838-2.386 8.103-4.682 14-5 1.893-1.753-1.745-3.475 3-3 2.613-1.387 2.833-5.166 4-8 .98-.124 2.024.154 3 0 2.24-.355.841-1.218 2-2 2.675-1.805 5.362-3.83 7-5 2.68-1.914 6.131-2.184 7-5 1.454-1.546 5.119-.881 8-1 1.359-3.308 2.386-6.947 4-10 1.97.05 2.641-1.965 4-3 .903-.688 2.21-.309 3-1 .338-.296-.321-1.679 0-2 .34-.34 1.634.318 2 0 1.287-1.12 1.396-2.519 3-4 1.422-1.313 2.814-2.872 5-3-.038-7.59 5.798-12.414 9-17 3.724-5.335 6.848-10.163 11-15 3.917 1.223 6.254-3.112 9-4 2.666-.861 5.9-.697 9-1 2.999-.293 6.616-1.98 10 0 3.287-.729 1.531 1.987 0 2-1.65 5.017-4.647 8.686-5 15-29.88 37.974-51.582 92.63-73 139-1.587 3.436-4.141 6.939-5 10-2.197 7.825-2.63 20.045-2 30 .491 7.767 1.208 16.598 5 23 9.095 2.095 9.624-4.376 15-6 2.478 8.124 11.521 5.215 14 2 3.36-4.358.881-10.169 2-18 .996-6.969 4.896-11.77 5-15a14.082 14.082 0 0 1 5-5c.163-3.087-2.363-5.653 0-8 2.721-2.958 8.026 1.212 10-1 2.39-11.086-4.359-29.173 7-33 3.267-2.066 3.317-7.35 8-8-.336-4.564 4.479-5.501 7-9 2.366-3.284 3.204-7.941 6-11 2.076-2.271 6.068-4.593 9-7 1.465-1.203 2.351-2.65 4-4 1.593-1.303 4.224-1.746 6-3 1.442-1.018 2.487-2.997 4-4 1.718-1.138 4.125-1.893 6-3 1.597-.943 3.238-1.863 5-3 1.73-1.116 4.548-1.861 6-3 2.393-1.876 3.344-4.41 5-6 2.086-2.002 4.845-3.309 7-5 7.358-5.777 14.548-12.269 26-12 2.483-2.109 4.522-4.812 6-8 1.578-3.404 1.268-7.866 3-11 .635-1.148 3.43-3.512 5-5a62.402 62.402 0 0 1 6-5c5.042-3.703 10.119-7.615 14-8 5.381-.533 7.986 1.878 13 4 5.918.924 9.688-2.218 14 0 3.056 2.535 2.201 6.66 3 10 .863 3.605 2.545 7.196 3 11 .408 3.416-.626 7.309 0 11 1.374 8.098 6.236 15.974 8 25 1.649 8.442.568 17.161 2 25 1.403 7.684 5.071 14.29 7 21 4.267 14.841-2.683 28.511-6 38-2.077 5.942-3.031 12.764-5 16-1.24 2.038-5.721 3.465-6 7-4.687 2.403-9.271 3.816-13 7-3.311 2.826-5.098 6.917-8 10-3.153 3.349-7.207 4.709-9 9-2.289 4.792-.128 10.639 0 16 5.853-.788 10.884 1.088 15 0 1.374-.363 1.69-1.738 3-2 2.687-.538 5.778-.221 9-1 .58-.141 2.021-1.785 3-2 14.471-3.178 13.916 10.251 25 10 9.44-.214 12.492-9.539 18-18 4.326-2.531 4.357 6.641 11 5 4.845-2.488 5.329-9.338 5-17-.934-3.959 3.452-4.903 4-6 2.689-5.379-1.548-14.229-2-19-1.114-11.754-1.098-21.913 1-32 .779-3.746 3.104-6.901 4-11 .607-2.776.53-5.854 1-9 .427-2.857.628-6.106 1-9 2.736-21.271 5.901-43.424 13-59a116.719 116.719 0 0 1 4-8c-.508-3.491-.45-7.55-2-10 .896-4.521 5.705-5.278 7-10 1.723-6.28-1.651-13.833-1-21 .15-1.651 1.557-2.563 2-4 .64-2.072.646-4.468 1-6 .915-3.966 1.041-7.437 2-11 5.452-3.728 10.869-4.971 18-4 2.456.334 4.875-.27 7 0 4.575.579 9.301 2.43 14 3 10.122 1.229 22.148.522 33 1 7.573.333 14.155 1.428 20 1 4.736-.347 11.666-.062 13-4 5.639 3.074 12.419 1.59 18 1 6.473-.685 13.403-1.04 20-2 9.563-1.392 19.896-5.104 29-7 11.642-2.424 22.122-.628 35-2 6.313 23.261 12.468 48.8 17 73 1.54 8.223 2.087 16.781 6 24-3.146 5.521-5.517 11.816-6 20-2.951 1.865-3.516 5.562-5 8-1.899 3.12-4.15 5.155-6 8-3.831 5.892-6.188 12.63-10 18-.591.832-2.315 1.201-3 2-1.004 1.171-1.247 3.295-2 4-1.933 1.81-5.436 3.348-8 5-2.682 1.729-5.435 3.673-8 5-5.926 3.064-13.103 4.432-19 8-4.215 2.551-6.579 6.515-10 10-1.564 1.595-4.472 2.295-6 4-.314.351.2 1.557 0 2-.772 1.714-4.326 2.535-4 5 12.188 4.88 35.361 4.501 43-4 1.943 4.306 4.305 7.773 7 10 2.722 2.248 1.328 5.668 4 8 4.514-1.159 8.451-3.8 12-6 3.866-2.396 7.945-4.84 11-8 7.752-.788 11.531.13 16-3 1.561-3.439 2.348-7.652 2-13 9.405-13.606 21.241-29.258 34-46 .314-.413-.218-1.517 0-2 .124-.274 1.754-.704 2-1 7.325-8.79 15.51-22.039 20-32 .146-.325 1.753-.628 2-1 6.118-9.239 8.924-18.86 5-32-2.066-6.921-6.131-13.509-9-20 2.659-12.92-5.549-36.524 2-48 6.18-3.8 9.809 2.582 14 4 5.408 1.075 5.955-2.711 11-2 11.078 5.922 19.267 14.733 31 20 2.103 2.999 3.391 5.512 6 8 2.704 2.578 6.03 3.475 9 6 3.865 3.286 7.834 7.977 11 11 3.55 3.39 6.568 7.536 13 6 4.51 10.287 14.839 12.677 23 20 2.234 2.005 3.534 5.104 6 7 2.763 2.125 6.537 2.589 9 5 1.256 1.229 1.503 3.835 3 6 1.316 1.904 2.907 3.082 4 5 6.142 10.779 10.337 21.604 16 31 2.076 3.445 2.717 3.635 3 7 .749 8.9-4.643 9.345-4 17-5.735 2.972-8.272 9.393-12 14-2.886 3.567-7.183 6.589-9 10-.908 1.705-.148 3.799-2 5 15.245 5.773 38.014.575 42-14 2.768 2.565-.694 11.361 2 14 4.262-.405 10.302.969 13-1 2.474-2.526 3.934-6.066 7-8 1.17-6.401 2.53-11.642 4-17 1.752-6.39 4.915-11.889 5-17 .119-7.127-5.344-14.336-9-23-4.913-11.641-9.359-23.105-8-35-8.505-14.829-10.565-36.102-14-56-6.186-7.8-17.098-9.622-27-15-3.663-1.989-7.714-5.626-12-9-4.726-3.721-9.929-6.565-11-11-1.99-8.238 2.768-15.926 5-24 2.247-8.13 4.847-15.35 5-25 6.197-8.865 10.86-20.952 17-33 2.664-5.228 5.906-10.938 8-17 1.688-4.891 5.253-14.943 5-20-.202-4.042-1.289-5.802-3-9 .765-19.098-9.628-27.039-14-41-7.733-7.229-14.157-16.425-22-24-3.836-3.705-7.973-7.177-12-11-3.925-3.725-7.997-8.917-12-12-2.115-1.629-5.467-2.327-8-4-2.473-1.633-4.581-4.323-7-6-2.477-1.717-5.589-2.3-8-4-2.44-1.721-4.558-4.211-7-6-1.154-.845-2.979-1.105-4-2-1.219-1.068-1.723-2.048-3-3-2.648-1.975-5.408-3.225-8-5-5.011-3.431-9.152-8.12-14-11-3.743-2.224-8.695-3.871-13-6-9.32-4.609-17.877-8.502-27-13-4.457-2.197-8.604-5.218-13-7-9.116-3.695-20.049-6.462-31-9-10.992-2.548-23.642-6.149-33-7-5.863-.533-12.085 1.159-16-1V0z" fill="#fff"/><path d="M669 0h38v1c3.915 2.159 10.137.467 16 1 9.358.851 22.008 4.452 33 7 10.951 2.538 21.884 5.305 31 9 4.396 1.782 8.543 4.803 13 7 9.123 4.498 17.68 8.391 27 13 4.305 2.129 9.257 3.776 13 6 4.848 2.88 8.989 7.569 14 11 2.592 1.775 5.352 3.025 8 5 1.277.952 1.781 1.932 3 3 1.021.895 2.846 1.155 4 2 2.442 1.789 4.56 4.279 7 6 2.411 1.7 5.523 2.283 8 4 2.419 1.677 4.527 4.367 7 6 2.533 1.673 5.885 2.371 8 4 4.003 3.083 8.075 8.275 12 12 4.027 3.823 8.164 7.295 12 11 7.843 7.575 14.267 16.771 22 24 4.372 13.961 14.765 21.902 14 41 1.711 3.198 2.798 4.958 3 9 .253 5.057-3.312 15.109-5 20-2.094 6.063-5.336 11.772-8 17-6.14 12.048-10.803 24.135-17 33-.153 9.65-2.753 16.87-5 25-2.232 8.074-6.99 15.762-5 24 1.071 4.435 6.274 7.279 11 11 4.286 3.374 8.337 7.011 12 9 9.902 5.378 20.814 7.2 27 15 3.435 19.898 5.495 41.171 14 56-1.359 11.895 3.087 23.359 8 35 3.656 8.664 9.119 15.873 9 23-.085 5.111-3.248 10.61-5 17-1.47 5.358-2.83 10.599-4 17-3.066 1.934-4.526 5.474-7 8-2.698 1.969-8.738.595-13 1-2.694-2.639.768-11.435-2-14-3.986 14.575-26.755 19.773-42 14 1.852-1.201 1.092-3.295 2-5 1.817-3.411 6.114-6.433 9-10 3.728-4.607 6.265-11.028 12-14-.643-7.655 4.749-8.1 4-17-.283-3.365-.924-3.555-3-7-5.663-9.396-9.858-20.221-16-31-1.093-1.918-2.684-3.096-4-5-1.497-2.165-1.744-4.771-3-6-2.463-2.411-6.237-2.875-9-5-2.466-1.896-3.766-4.995-6-7-8.161-7.323-18.49-9.713-23-20-6.432 1.536-9.45-2.61-13-6-3.166-3.023-7.135-7.714-11-11-2.97-2.525-6.296-3.422-9-6-2.609-2.488-3.897-5.001-6-8-11.733-5.267-19.922-14.078-31-20-5.045-.711-5.592 3.075-11 2-4.191-1.418-7.82-7.8-14-4-7.549 11.476.659 35.08-2 48 2.869 6.491 6.934 13.079 9 20 3.924 13.14 1.118 22.761-5 32-.247.372-1.854.675-2 1-4.49 9.961-12.675 23.21-20 32-.246.296-1.876.726-2 1-.218.483.314 1.587 0 2-12.759 16.742-24.595 32.394-34 46 .348 5.348-.439 9.561-2 13-4.469 3.13-8.248 2.212-16 3-3.055 3.16-7.134 5.604-11 8-3.549 2.2-7.486 4.841-12 6-2.672-2.332-1.278-5.752-4-8-2.695-2.227-5.057-5.694-7-10-7.639 8.501-30.812 8.88-43 4-.326-2.465 3.228-3.286 4-5 .2-.443-.314-1.649 0-2 1.528-1.705 4.436-2.405 6-4 3.421-3.485 5.785-7.449 10-10 5.897-3.568 13.074-4.936 19-8 2.565-1.327 5.318-3.271 8-5 2.564-1.652 6.067-3.19 8-5 .753-.705.996-2.829 2-4 .685-.799 2.409-1.168 3-2 3.813-5.37 6.169-12.108 10-18 1.85-2.845 4.101-4.88 6-8 1.484-2.438 2.049-6.135 5-8 .483-8.184 2.854-14.479 6-20-3.913-7.219-4.46-15.777-6-24-4.532-24.2-10.688-49.739-17-73-12.878 1.372-23.358-.424-35 2-9.104 1.896-19.437 5.608-29 7-6.597.96-13.527 1.315-20 2-5.581.59-12.361 2.074-18-1-1.334 3.938-8.264 3.653-13 4-5.845.428-12.427-.667-20-1-10.852-.478-22.878.229-33-1-4.699-.57-9.425-2.421-14-3-2.125-.27-4.544.334-7 0-7.131-.971-12.548.272-18 4-.959 3.563-1.085 7.034-2 11-.354 1.532-.36 3.928-1 6-.443 1.438-1.85 2.349-2 4-.651 7.167 2.723 14.72 1 21-1.295 4.722-6.104 5.479-7 10 1.55 2.45 1.492 6.509 2 10a116.719 116.719 0 0 0-4 8c-7.099 15.576-10.264 37.729-13 59-.372 2.894-.573 6.143-1 9-.47 3.146-.393 6.224-1 9-.896 4.099-3.221 7.254-4 11-2.098 10.087-2.114 20.246-1 32 .452 4.771 4.689 13.621 2 19-.548 1.097-4.934 2.041-4 6 .329 7.662-.155 14.512-5 17-6.643 1.641-6.674-7.531-11-5-5.508 8.461-8.56 17.786-18 18-11.084.251-10.529-13.178-25-10-.979.215-2.42 1.859-3 2-3.222.779-6.313.462-9 1-1.31.262-1.626 1.637-3 2-4.116 1.088-9.147-.788-15 0-.128-5.361-2.289-11.208 0-16 1.793-4.291 5.847-5.651 9-9 2.902-3.083 4.689-7.174 8-10 3.729-3.184 8.313-4.597 13-7 .279-3.535 4.76-4.962 6-7 1.969-3.236 2.923-10.058 5-16 3.317-9.489 10.267-23.159 6-38-1.929-6.71-5.597-13.316-7-21-1.432-7.839-.351-16.558-2-25-1.764-9.026-6.626-16.902-8-25-.626-3.691.408-7.584 0-11-.455-3.804-2.137-7.395-3-11-.799-3.34.056-7.465-3-10-4.312-2.218-8.082.924-14 0-5.014-2.122-7.619-4.533-13-4-3.881.385-8.958 4.297-14 8a62.402 62.402 0 0 0-6 5c-1.57 1.488-4.365 3.852-5 5-1.732 3.134-1.422 7.596-3 11-1.478 3.188-3.517 5.891-6 8-11.452-.269-18.642 6.223-26 12-2.155 1.691-4.914 2.998-7 5-1.656 1.59-2.607 4.124-5 6-1.452 1.139-4.27 1.884-6 3-1.762 1.137-3.403 2.057-5 3-1.875 1.107-4.282 1.862-6 3-1.513 1.003-2.558 2.982-4 4-1.776 1.254-4.407 1.697-6 3-1.649 1.35-2.535 2.797-4 4-2.932 2.407-6.924 4.729-9 7-2.796 3.059-3.634 7.716-6 11-2.521 3.499-7.336 4.436-7 9-4.683.65-4.733 5.934-8 8-11.359 3.827-4.61 21.914-7 33-1.974 2.212-7.279-1.958-10 1-2.363 2.347.163 4.913 0 8a14.082 14.082 0 0 0-5 5c-.104 3.23-4.004 8.031-5 15-1.119 7.831 1.36 13.642-2 18-2.479 3.215-11.522 6.124-14-2-5.376 1.624-5.905 8.095-15 6-3.792-6.402-4.509-15.233-5-23-.63-9.955-.197-22.175 2-30 .859-3.061 3.413-6.564 5-10 21.418-46.37 43.12-101.026 73-139 .353-6.314 3.35-9.983 5-15 1.531-.013 3.287-2.729 0-2-3.384-1.98-7.001-.293-10 0-3.1.303-6.334.139-9 1-2.746.888-5.083 5.223-9 4-4.152 4.837-7.276 9.665-11 15-3.202 4.586-9.038 9.41-9 17-2.186.128-3.578 1.687-5 3-1.604 1.481-1.713 2.88-3 4-.366.318-1.66-.34-2 0-.321.321.338 1.704 0 2-.79.691-2.097.312-3 1-1.359 1.035-2.03 3.05-4 3-1.614 3.053-2.641 6.692-4 10-2.881.119-6.546-.546-8 1-.869 2.816-4.32 3.086-7 5-1.638 1.17-4.325 3.195-7 5-1.159.782.24 1.645-2 2-.976.154-2.02-.124-3 0-1.167 2.834-1.387 6.613-4 8-4.745-.475-1.107 1.247-3 3-5.897.318-10.162 2.614-14 5-1.674 1.041-4.865 2.33-7 4h-11c-.206 2.951-1.99 2.343-4 3-1.388.454-2.122-1.485-3-1-.761.421.482 1.889-1 2-3.341.25-6.966-1.467-10-1-.524.08-1.642 1.892-2 2-.884.268-2.15-.353-3 0-4.345 1.806-9.86 8.59-15 12-1.319.875-3.942 3.621-6 5-3.502 2.347-10.47 4.632-14 8-4.291 4.095-5.131 10.884-10 14-3.027 1.973-10.127-.127-13 2-1.976 4.023-1.701 10.299-3 15-2.735.932-4.265 3.068-7 4-1.596 2.07-2.171 5.162-5 6-3.767-1.986-8.09-.646-11 1C5.729 493.604.557 471.11 0 444v-6c.701-24.159 7.86-44.305 17-62 3.534-6.844 7.875-13.21 11-20 2.966-6.444 4.368-13.549 7-20 1.832-4.49 4.568-8.856 7-14 1.199-2.536 1.929-5.702 4-9 5.266-8.386 10.915-20.886 16-31 6.284-12.5 11.329-24.771 18-36 5.001-8.419 11.439-15.621 17-24 3.648-5.497 6.103-10.242 12-15 3.623-2.922 5.026-.969 7-6 .782-1.992.547-7.263 1-11 1.059-8.747-1.189-21.632 1-30 1.542-5.894 10.312-16.328 17-18 2.556-.639 6.593 2.811 9-1 6.024 3.021 15.683 2.986 21 7 3.296 2.488 3.16 7.648 8 9 5.273-3.701 9.333-8.452 15-12 5.515-3.453 12.311-5.645 18-9 5.537-3.266 10.54-7.503 16-11 2.715-1.739 5.397-3.143 8-5 1.563-1.115 2.57-2.156 4-3 3.536-2.088 8.748-4.212 13-7 1.354-.888 2.659-2.193 4-3 3.27-1.968 8.604-4.215 12-7 2.314-1.897 3.442-4.941 6-7 .854-.688 2.23-.283 3-1 3.016-2.808 9.433-6.172 14-9 5.675-3.513 10.725-7.34 16-10 5.776-2.913 11.988-4.058 18-7 1.432-.701 4.537-3.837 7-5 2.823-1.333 6.21-1.75 9-3 5.191-2.327 10.232-4.768 17-7 5.98-1.972 11.879-4.587 18-6 6.801-1.569 14.03-1.591 21-3 .831-.168 2.242.359 3 0 .316-.15.789-1.942 1-2 1.736-.474 4.386.325 6 0 3.478-.701 6.545-1.484 10-2 14.493-2.166 29.871-1.687 45-3 20.84-1.809 41.961-6.114 62-10 6.854-1.329 14.189-1.639 21-3 4.509-.901 9.351-2.584 14-4 2.118-.645 4.897-2.446 7-3 1.545-.407 3.478.475 5 0 .478-.149 1.683-1.921 2-2 1.572-.39 3.412.332 5 0 .958-.2 2.453-1.88 3-2 5.365-1.171 11.76-1.229 18-2 .81-.1 2.297 1.682 4 1 .25-.1-.212-1.788 0-2 .244-.244 1.635.068 2 0 22.096-4.15 45.451-6.276 69-8z"/></g></svg>