<svg xmlns="http://www.w3.org/2000/svg" xmlns:dc="http://dublincore.org/documents/dcmi-terms/" height="1052.362" width="744.094"><metadata><dc:description>Silhouette of Tardigrada, processed by PhyloPic Tools (https://github.com/eweitz/phylopic-tools)</dc:description><dc:source>http://phylopic.org/image/1a7ba4da-a5f9-489b-b30e-8cf56d579d8f</dc:source><dc:creator>Mali&apos;o Kodis, image from the Smithsonian Institution</dc:creator><dc:license>http://creativecommons.org/licenses/by-nc-sa/3.0/</dc:license></metadata><path d="M185.868 54.331s-21.213 10.102-32.325 42.427c-11.111 32.325-23.233 70.71-27.274 120.208-4.04 49.497-10.101 77.782-6.06 98.995 4.04 21.213 0 50.508-3.031 85.863-3.03 35.355-5.051 37.376-2.02 69.7 3.03 32.325 30.304 98.995 41.416 133.34 11.111 34.346 40.406 92.935 69.7 129.3 29.295 36.366 37.376 31.315 52.528 54.548 15.152 23.234 71.72 97.985 95.965 110.107 24.243 12.122 28.284 12.122 28.284 12.122s15.877 21.62 17.172 25.254c2.736 7.67 27.275 25.253 38.386 21.213 11.112-4.04 16.163-5.05 16.163-5.05s-2.02 24.243 11.111 21.212c13.132-3.03-3.03 9.092-4.04-9.091-1.01-18.183 0-18.183 0-18.183s-2.02 8.081 7.07 14.142c9.092 6.061 22.224-1.01 22.224-1.01s-10.101 8.081-18.183-4.04c-8.08-12.122-8.08-17.173-8.08-17.173s12.121 16.162 21.212 13.132c9.092-3.03 11.112-8.081 11.112-8.081s-6.06 9.091-16.162 0c-10.102-9.092-9.092-14.142-9.092-14.142s0-19.193-4.04-30.305c-4.04-11.112-1.01-10.102-1.01-10.102s15.152 36.366 42.426 36.366 49.497-6.06 49.497-6.06-2.857 12.774.174 16.815c3.03 4.04 36.848 20.466 32.57 14.57-3.103-4.275-14.465-7.162-18.601-11.183-11.96-11.624-7.072-22.223-7.072-22.223s5.396 17.395 16.163 18.958c11.53 1.674 19.193-4.816 19.193-4.816s-19.193 6.06-25.254-8.081l-6.06-14.142s7.734 10.989 16.162 9.09c14.348-3.23 11.111-12.12 11.111-12.12s-7.07 14.141-17.172 6.06-16.163-20.203-16.163-20.203-2.02-15.152-19.193-26.264c-17.172-11.112-17.172-12.122-17.172-12.122s16.162-15.152 8.08-35.355c-8.08-20.203-20.202-32.325-26.263-35.356-6.061-3.03-25.254-46.467-34.345-89.903-9.092-43.437-21.213-45.457 6.06-62.63 27.275-17.172 71.682-44.569 80.813-47.477 7.306-2.326 16.754-4.163 19.784-11.234 3.031-7.071 2.98-16.397 15.571-18.06 16.148-2.133 16.163-3.03 16.163-3.03s-17.173-9.092-27.274-2.02c-10.102 7.07-16.163 11.11-16.163 11.11s5.05-15.152 12.122-18.182c7.071-3.03 23.233-5.05 27.274-3.03 4.04 2.02-10.86-7.213-22.58-6.235 0 0-9.35 1.826-13.602 3.857-3.591 1.715-5.897 5.907-9.755 6.887-9.7 2.467-19.836-2.843-29.824-3.5-23.186-1.524-46.467-6.06-69.7-1.01-23.234 5.051-25.91-13.138-30.306-25.253-7.915-21.82-16.57-48.13-14.142-58.59 2.789-12.01 16.48-22.161 29.295-30.304 21.315-13.543 53.538-22.223 57.578-28.284 4.041-6.06 31.315-20.979 33.815-25.376 1.997-3.513.888-12.775 13.01-16.816 12.121-4.04 21.866-2.255 21.866-2.255s-10.93-5.302-19.673-5.642c-6.407-.25-24.317 15.68-26.56 13.01-2.927-3.487 4.097-12.623 10.765-18.122 5.212-4.298 19.55-10.52 19.55-10.52s-7.108-3.372-18.427 1.071c-7.083 4.852-14.002 10.516-20.142 20.08-3.291 3.449-2.783-14.872 1.255-18.12 4.497-3.618 20.907-9.03 20.907-9.03s-13.132-4.041-23.234 2.02c-10.101 6.06-18.182 19.192-18.182 19.192s8.08-4.04-18.183 0c-26.264 4.041-43.437 6.061-47.477 12.122-4.04 6.061-57.579-40.406-63.64-79.802-6.06-39.396 15.152-68.69 29.295-86.873 14.142-18.183 23.233-15.152 25.253-25.254 2.02-10.101-6.06-17.172 5.051-23.233 11.112-6.061 26.264-1.01 26.264-1.01s-5.896-8.439-23.988-7.786c-2.257.082-18.438 9.806-18.438 9.806s-5.051-11.112 3.03-14.142c8.081-3.03 25.254-3.03 25.254-3.03s-9.246-6.251-19.193-6.062c-5.877.112-13.183-.306-15.203 3.735-2.02 4.04-9.04 13.438-9.04 13.438s-1.061-17 1.969-21.04c3.03-4.04 15.99-7.295 15.99-7.295s-5.755-4.337-19.439.408c-10.28 3.564-7.724 23.53-7.724 23.53l2.132 10.458s-5.339 2.88-11.111 4.04c-12 2.415-15.744 4.185-25.233 10.592-19.526 13.185-22.244 25.774-43.458.52-21.213-25.254-15.152-73.741-52.528-91.924-37.375-18.182-64.65-16.162-78.791-14.142-14.143 2.02-16.163 2.02-16.163 2.02z" stroke="#000"/></svg>