<svg xmlns="http://www.w3.org/2000/svg" xmlns:dc="http://dublincore.org/documents/dcmi-terms/" height="566.914" width="718.459"><metadata><dc:description>Silhouette of Teilingia, processed by PhyloPic Tools (https://github.com/eweitz/phylopic-tools)</dc:description><dc:source>http://phylopic.org/image/595094ef-71b4-4ebe-a5fb-089e2d37c66f</dc:source><dc:creator>Matt Crook</dc:creator><dc:license>http://creativecommons.org/licenses/by-sa/3.0/</dc:license></metadata><path d="M198.378 402.196a25.125 14.509 56.068 1 1-24.076 16.198 25.125 14.509 56.068 1 1 24.076-16.198zM230.536 377.833a25.125 14.509 56.068 1 1-24.076 16.198 25.125 14.509 56.068 1 1 24.076-16.198z"/><path d="M212.156 317.094c-1.098.007-2.074.265-2.875.844L182.875 337l-.344.281c-.028.025-.066.037-.093.063-3.671 3.467 2.14 18.233 5.562 22.969 3.422 4.735 2.254 13.488-2.328 16.796-4.583 3.308-13.79.911-16.672-3.078-2.883-3.989-12.867-13.032-17.625-13-1.098.007-2.074.265-2.875.844l-26.406 19.063-.344.28c-.028.026-.067.038-.094.063-3.67 3.468-1.282 13.498 5.563 22.969l44.531 61.625c7.096 9.82 16.262 15.242 20.531 12.156L218.656 459c.043-.03.084-.062.125-.094.024-.018.04-.044.063-.062 4.002-3.26-1.789-18.323-5.281-23.156-3.493-4.834-2.263-13.486 2.312-16.797 4.575-3.312 13.108-1.863 16.656 3.047 3.548 4.91 16.262 15.241 20.531 12.156l26.375-19.031c.043-.031.084-.062.125-.094.024-.018.04-.044.063-.063 4.002-3.26 1.704-13.49-5.281-23.156l-44.563-61.656c-5.765-7.979-12.867-13.032-17.625-13z" style="marker:none" color="#000" fill="none" stroke="#000" stroke-width="5" overflow="visible"/><path d="M300.997 328.07a25.125 14.509 56.068 1 1-24.076 16.198 25.125 14.509 56.068 1 1 24.076-16.198zM333.155 303.707a25.125 14.509 56.068 1 1-24.076 16.198 25.125 14.509 56.068 1 1 24.076-16.198z"/><path d="M314.776 242.967c-1.098.007-2.075.266-2.875.844l-26.406 19.063-.344.28c-.028.026-.067.038-.094.063-3.67 3.468 2.14 18.233 5.563 22.97 3.422 4.735 2.254 13.488-2.329 16.796-4.582 3.308-13.789.911-16.671-3.078-2.883-3.99-12.868-13.032-17.625-13-1.098.007-2.075.265-2.875.844l-26.407 19.062-.343.281c-.028.025-.067.037-.094.063-3.67 3.468-1.282 13.497 5.562 22.969l44.532 61.625c7.096 9.82 16.261 15.241 20.53 12.156l26.376-19.031.125-.094c.023-.018.04-.044.062-.063 4.002-3.26-1.788-18.323-5.281-23.156-3.493-4.833-2.263-13.485 2.313-16.797 4.575-3.311 13.108-1.863 16.656 3.047 3.548 4.91 16.262 15.242 20.531 12.156l26.375-19.03c.043-.032.084-.062.125-.095.023-.018.04-.043.063-.062 4.002-3.26 1.704-13.49-5.282-23.156l-44.562-61.657c-5.766-7.978-12.867-13.032-17.625-13z" style="marker:none" color="#000" fill="none" stroke="#000" stroke-width="5" overflow="visible"/><path d="M403.55 253.917a25.125 14.509 56.068 1 1-24.076 16.198 25.125 14.509 56.068 1 1 24.076-16.198zM435.708 229.554a25.125 14.509 56.068 1 1-24.076 16.198 25.125 14.509 56.068 1 1 24.076-16.198z"/><path d="M417.328 168.815c-1.098.007-2.074.265-2.875.843l-26.406 19.063-.344.281c-.028.025-.066.037-.093.063-3.671 3.467 2.14 18.233 5.562 22.968 3.422 4.736 2.254 13.49-2.328 16.797-4.583 3.308-13.79.911-16.672-3.078-2.883-3.99-12.867-13.032-17.625-13-1.098.007-2.075.265-2.875.844l-26.406 19.062-.344.282c-.028.024-.067.036-.094.062-3.67 3.468-1.282 13.497 5.563 22.969l44.531 61.625c7.096 9.82 16.262 15.241 20.531 12.156l26.375-19.031c.043-.031.084-.062.125-.094.024-.018.04-.044.063-.062 4.002-3.26-1.789-18.324-5.282-23.157-3.492-4.833-2.262-13.485 2.313-16.797 4.575-3.311 13.108-1.862 16.656 3.047 3.548 4.91 16.262 15.242 20.531 12.157l26.375-19.032c.043-.03.084-.061.125-.093.024-.019.04-.044.063-.063 4.002-3.26 1.704-13.49-5.281-23.156l-44.563-61.656c-5.765-7.979-12.867-13.033-17.625-13z" style="marker:none" color="#000" fill="none" stroke="#000" stroke-width="5" overflow="visible"/><path d="M506.17 179.79a25.125 14.509 56.068 1 1-24.077 16.199 25.125 14.509 56.068 1 1 24.076-16.199zM538.327 155.428a25.125 14.509 56.068 1 1-24.076 16.198 25.125 14.509 56.068 1 1 24.076-16.198z"/><path d="M519.948 94.688c-1.098.007-2.075.265-2.875.844l-26.406 19.062-.344.282c-.028.025-.067.036-.094.062-3.67 3.468 2.14 18.233 5.563 22.969 3.422 4.736 2.254 13.489-2.329 16.797-4.582 3.308-13.789.91-16.671-3.078-2.883-3.99-12.868-13.033-17.625-13-1.098.007-2.075.265-2.875.843l-26.407 19.063-.343.281c-.028.025-.067.037-.094.063-3.67 3.467-1.282 13.497 5.562 22.968l44.532 61.625c7.096 9.82 16.261 15.242 20.53 12.157l26.376-19.032c.042-.03.083-.061.125-.093.023-.018.04-.044.062-.063 4.002-3.26-1.788-18.323-5.281-23.156-3.493-4.833-2.263-13.485 2.313-16.797 4.575-3.311 13.108-1.863 16.656 3.047 3.548 4.91 16.262 15.242 20.531 12.156l26.375-19.031c.043-.03.084-.062.125-.094.023-.018.04-.044.063-.062 4.002-3.26 1.704-13.49-5.282-23.156l-44.562-61.657c-5.766-7.978-12.867-13.032-17.625-13z" style="marker:none" color="#000" fill="none" stroke="#000" stroke-width="5" overflow="visible"/><path d="M608.727 105.597a25.125 14.509 56.068 1 1-24.076 16.198 25.125 14.509 56.068 1 1 24.076-16.198zM640.885 81.234a25.125 14.509 56.068 1 1-24.076 16.198 25.125 14.509 56.068 1 1 24.076-16.198z"/><path d="M622.505 20.495c-1.098.007-2.074.265-2.875.843l-26.406 19.063-.344.281c-.027.025-.066.037-.093.063-3.67 3.467 2.14 18.233 5.562 22.968 3.423 4.736 2.255 13.49-2.328 16.797-4.583 3.308-13.789.911-16.672-3.078-2.883-3.989-12.867-13.032-17.625-13-1.098.007-2.074.265-2.875.844l-26.406 19.062-.344.282c-.028.025-.066.036-.093.062-3.671 3.468-1.283 13.498 5.562 22.969l44.531 61.625c7.096 9.82 16.262 15.241 20.531 12.156l26.375-19.031c.043-.03.084-.062.125-.094.024-.018.04-.044.063-.062 4.002-3.26-1.789-18.323-5.281-23.157-3.493-4.833-2.263-13.485 2.312-16.796 4.575-3.312 13.108-1.863 16.656 3.046 3.549 4.91 16.262 15.242 20.532 12.157l26.375-19.032c.042-.03.083-.061.125-.093.023-.018.04-.044.062-.063 4.002-3.26 1.704-13.49-5.281-23.156L640.13 33.495c-5.765-7.979-12.867-13.032-17.625-13zM645.781 2.531L634.72 10.5c-.028.025-.067.037-.094.063-.022.02-.041.04-.062.062-3.578 3.524-1.18 13.491 5.625 22.906l44.53 61.625c7.097 9.82 16.263 15.242 20.532 12.156l4.375-3.156 6.313-4.562M72.75 564.406l1.531-1.093c.043-.031.084-.062.125-.094.024-.018.04-.044.063-.063 4.002-3.26 1.704-13.49-5.281-23.156l-44.563-61.656c-5.766-7.979-12.867-13.033-17.625-13-1.03.007-1.948.245-2.719.75-.051.033-.106.057-.156.093l-1.531 1.125" style="marker:none" color="#000" fill="none" stroke="#000" stroke-width="5" overflow="visible"/><path d="M95.828 476.316a25.125 14.509 56.068 1 1-24.076 16.198 25.125 14.509 56.068 1 1 24.076-16.198zM127.986 451.953a25.125 14.509 56.068 1 1-24.076 16.199 25.125 14.509 56.068 1 1 24.076-16.199z"/><path d="M109.606 391.214c-1.097.007-2.074.265-2.875.844L80.325 411.12l-.344.281c-.027.025-.066.037-.093.063-3.67 3.468 2.14 18.233 5.562 22.969 3.423 4.735 2.255 13.489-2.328 16.797s-13.789.91-16.672-3.079c-2.883-3.989-12.867-13.032-17.625-13-1.098.007-2.074.266-2.875.844l-26.406 19.063-.344.28c-.028.026-.066.038-.093.063-3.671 3.468-1.282 13.498 5.562 22.97L69.2 539.994c7.096 9.82 16.262 15.242 20.531 12.156l26.375-19.03c.043-.032.084-.062.125-.095.024-.018.04-.043.063-.062 4.002-3.26-1.789-18.323-5.281-23.156-3.493-4.833-2.263-13.486 2.312-16.797 4.575-3.312 13.108-1.863 16.656 3.047 3.549 4.91 16.262 15.241 20.532 12.156l26.375-19.031.125-.094c.023-.018.04-.044.062-.062 4.002-3.26 1.704-13.49-5.281-23.157l-44.563-61.656c-5.765-7.978-12.867-13.032-17.625-13z" style="marker:none" color="#000" fill="none" stroke="#000" stroke-width="5" overflow="visible"/></svg>