<svg xmlns="http://www.w3.org/2000/svg" xmlns:dc="http://dublincore.org/documents/dcmi-terms/" height="568.044" viewBox="0 0 624.276 568.044" width="624.276"><metadata><dc:description>Silhouette of Teloschistaceae, processed by PhyloPic Tools (https://github.com/eweitz/phylopic-tools)</dc:description><dc:source>http://phylopic.org/image/778e47e0-24c4-4924-998f-3e5aadcb4670</dc:source><dc:creator>Renato Santos</dc:creator><dc:license>http://creativecommons.org/licenses/by/3.0/</dc:license></metadata><switch><g><path d="M601.659 157.455c-22.91 28.411-55 26.25-70 51.891-14.5 16.824-36.326 29.357-56.904 43.609 22.314-16.745-363.846 270.25-393.096 299.5-40.25 36.75-122-85-58-149 20-14 29.082-29.902 38.565-37.564-5.893-16.955-4.131-34.869 22.707-48.436 80.856-50.5 337.471-212.691 391.919-276.854 9.228-9.228 24.886-21.434 27.31-22.646 9.785-1.984 11.386 3.386 24-6 48.999-27.5 137.999 104 73.499 145.5z" fill="gray"/><path d="M398.574 1.37c.478 1.628-.387 1.635-1.523 5.443-.708 2.372 3.783 3.066-3.32 11.713 1.72.161 8.031-8.183 9.679-7.821 1.684.369-3.411 8.744-1.797 9.307 8.297-10.807 1.797 1.943 13.797-10.057 3.137-.863 15 11.25 18 14.25 4.125 7.5-5.048 3.842-9.599 8.393 2.849 4.357 6.161-4.455 9.349-1.893 5.875 5.875 2.357 11.75-3.25 9.593 3.25 1.74.167 6.118 3.75 6.118 3.25 0 3.25-12.211 10-12.211 4.25.972-1 5.5 1.75 8.25 1.373 1.51 5.24-5.26 8.75-1.75 3.477 4.023-9.667 7 1.227 5.946 1.523 0 2.273 1.971-1.165 4.146.102 1.11.306 2.104.021 2.742-.391 1.193-2.642 1.608-1.281 2.968 5.448 4.615 1.865-10.468 7.353-3.885 1.3-2.809 2.654-8.702 4.346-8.417 0 4 2.104 5.896 5.5 9.292 0 1.542-.176 1.585-1.967 3.259-2.783 1.699-3.116.199-4.908 1.99-4.479 4.478-7.319 9.594-7.319 11.209-2.556 8.25 3.64 7.857 3.64 14.054 1.862 4.003-1.945 7.133 1.555 9.196 8.25-1.75 1.5 5.304 5.185 5.5 13.315 0 4.596 5.834 8.565 7.5 11.25 3.75-2.075-15.957 14.607.726 2.715 2.119-10.607 17.774 2.643 6.961 3.281 3.282 3.04-3.897 5.5-1.437 2.57 0-2.5 6.732-5.21 12.784 2.71 6.966 8.194-9.3 13.96-7.534 1.632 2.572-13.079 8.954-6.5 16.75 8 13.75 7.75-7.385 12.75-4.25 1.194 1.591-1.99 4.891-2.887 9.387-.598 2.998.96 4.69 2.162 6.389 1.201 1.699 2.046 3.403 5.975.475 1 4.25-4.982 5.767-2.75 8 5.5 2.75 8 0 11 0 1.369 3.416-8.789 2.289-6.25 6.75 1.342 1.342 9.743-4 12.25-4 2.053 2.448-7.75 6.531-4.5 12.25 1.86 4.229 6.25 7.25 1.75 14.831 0 8.881 5.5 4.919 11-.581 1.5 4.854-10.625 13.5-26 11.625 0 2.208 1.5 4.957 1.5 6.375 5.5 1.875-4.93 9.18-12.5 3.75 0 4 6.072 7.424 11.035 10.187-6.285 10.563 1.572 10.113 9.465 9.063 1.784 1.784 0 0 .5 2.75 8-4.25 12.705-6.94 19.789-7.96 7.783 1.388 25.3 12.697 25.461 15.46.315 8-22.423 3.187-22.5 8.75-1.5 7.406 9.5 2.397 7.25 9.75.882 5.618-29.875 15.375-7.75 22.5 0 12.5 14.586.152 14.5 5.5-20.875 20.875 7.283 4.75 7.75 11.75 1.352 5.148-21.5 7-6 17.25 0 3.25-21.625-6.875-4.188 12.979-10.813-8.729-10.813-7.479-13.313-3.729-6.648-4.852-12.5-8.25-12.5 7.75-16 0-5.25 9.5-2.75 18.25 2.25 0 5.854-.354 6 2.5-25.25 0-12 18.5-1 15.25 6.665 3.75-3.25 28.75 29.25 5 5.375-5.375 6.827-5.452 14.75-2.5 2.25 2.25 7.9 2.214 1.25 7.25 1.127 3.128 9.397-4.1 7.811 1.146-1.177 3.889-2.435.217-5.561 5.604 5 0 12.493-1.007 5.094 6.393-1.803 2.695 1.672 5.56-.594 8.607-1.644 2.21-8.51 4.53-9.646 6.943-1.808 3.839-4.278-6.423-5.104-2.193-.724 3.7-29.75 8.5-8.25 19.5 1.49 5.26-13.25 7.5-4 12.25 1.541 4.209-7 8.516 3.5 12.5.013 2.333-4.023 2.421-7.75 4.5 0 3.098 7.505 10.691-4.995 8.941-1.664 2.285 1.785 6.551 1.745 7.809-12-5.75-6.729-14.021-6 14.5-2.27-1.826-.939-14.162-8.793-12-17.207 7.125 6.732 12.985 2.543 16.5-2.627 2.203-14.244 9.5-14.244 20.25-4.83.048-3.006-20.25-10.849-16.25-3.072 3.172-6.516 8.038-9.782 11.625-4.203 1.795 8.335-13.691 5.375-10.375-13.75-4.5-15.704-1.32-18 1.25-3.346 7-9.2 11.296-12.784 14.75-2.941 0-7.966 4-12.466 4-4.373-.902 2.563-2.688-9.688-4.188-3.022 3.16-9.859-3.813-12.813-9.063-1.199 1.199-8 10-15.62 9.419-18.755-1.919-2.13 6.073-10.089 6.073-7.166-.617-5.666 5.508-16.041 12.508 6.25-1.75 12.75 3.75 26.25 6.5 0 4.736-9.5 8-5.25 14.5-9.25 0-18-1.263-18 9.5-5.25-5.25-8.408-2.842-5.258 2.75-7.117-3.625-7.174-.963-5.242 5.25-1.752 2.261-9.25-14.5-7.771 5.339-3.604-10.214-9.164-7.153-11.104-5.214 0-14.5-7.75-5.75-7.75-1.375-5.75-3.5-4.765-.77-9.625 5.756-3.25-12.256-7.943-7.077-12.25-4.256 4.5-11.75-7.875-3.25-14-3.25-18.875-4.5 15.25-6.125 6.25-9.5-8.038-.788-17.5-5.255-17.5-11.75-1.197-2.983-7.634 4.185-9.75.25 5.25-9.25-6.75-16.25-11.75-13.75-2.393-3.469 1-13.75-10.25-13.75.677-3.049 4.188-3.313 7.685-10.185.071-2.829 2.749-2.637 1.065-5.815-3.092 0-2.14 2.359-7.5 3.5-3.582 3.582-2.75-2.75-18.25 3.75-10.5-4-9.692-6.191-12.5-9 12-9.75-3.659-8.228-7.824-10.083-3.138-1.397-6.563-1.282-8.926 1.833-2.5 4 9.18 13.07 5.5 16.75-4-11.25-19.5-19.75-11.907-6.843-2.208.699-9.343 4.343 1.527 10.223-3.139 1.37-7.104 1.854-6.13 7.13-2.969 1.381-7.99 4.795-11.365 8.219-3.634 3.686-5.594 7.382-7.908 8.565-8.592 3.081 7.033-8.169-2.769-5.493-5.449-2.176-5.199 5.102-8.324 3.074-.49-1.226 2.315-7.065 1.063-7.688-2.625-2-2.938-.125-5.625 4.313-1.375 1.375-2.5 4.125-4.813 3.704-1.063-1.704 4.875-9.534 3.313-10.017-3.938.625-2.394 3.787-4.125 5.75-1.742 1.977-2.688.688-4.938 2.411.286-3.023 1.829-5.158.849-7-.861-1.618-2.659 1.531-3.474-1.286 0-2.188 4-4-1.103-4.313 0-2.938-3.835-1.188-3.022-3 0-3.004 1.679-2.923.467-4.135-1.836-1.809-7.462 11.13-17.747-3.336-2.25-2.25 12.154-3.404 3.904-11.654-2.987-2.132 10.375-6.875.125-6.875-5.75 7.75-10.014 7.698-15.212 6.963 3.514-2.357 9.006-1.007 12.962-7.463-2.413-1.064-1.642-.293-3.949-2.5-2.901 2.9-5.12 1.75-6.824-2.198-7.016 2.017-1.732 3.443-4.79 5.073-1.517.358-1.918-3.918-2.667-3.17-.931.42-1.482-.864-2.086-1.023-1.314 1.313-2.631.996-3.653.537 0 0-.156-2.657 1.469-5.719-4.828 1.922-8.793 1.207-11.25-1.25-2.688-.905 1.822 5.178-5 3.25-2.575 0 1.296-3.688-2.106-5.563-7.894 0 .981 13.188-5.144 7.063-1.406-4.022-.375-6.625-4.721-4.5-1.801-.499 1.846-4.625-3.779-10.25-5.813-4.188-5.986 11.478-8 10.75-.064-7.609.345-10.345 3.5-13.5-.625-2.125-5.063.375-6.875-2-.241-1.107 9.375 2.625 5-4.335-14 0-12.659-.395-17.99-4.393-5.621-1.375-4.954 5.398-5.572 4.415-.808-1.285-1.058-4.294 3.563-5.813 2.324-1.074 5.875 4.274 8.313 3.27 1.055-.101 1.533-1.52.357-3.833-.699-.962-3.495-4.211 1.83-7.437 8.25 2.5 8.043-3.375 7.375-6.5-3.125-4.375-6.875 0-7.625 4-.753 2.125-5.548 5.344-6.25 4.375-2.63.495 3.361-1.491 4.6-5.096-5.875 1.25-5.6 4.477-12.743 3.596-3.922-.881.309-.915 4.879-1.514 4.001-1.714 10.287-5.573 9.514-9.549-1.398 1.639-2.746 5.191-4.25 3.688 2.5-2.5 4.375-5.812 4.375-7.625-1.367-1.294-8.357-.181-10.5-.625-4.25-1.016 3.708-.688 2.875-1.625-.509-1.875 2.063 1.313 1.25-1.125 0-1.551 3.379 2.735 7.375.125.76-2.74-5.938-3.563-7.6-1.9-.962.963-4.65 1.775-1.775-1.1 1.815-1.167 2.877-1.5 4.25-2 5.75.75 4.75-.75 2.125-1.625-2.958 0-6.5-4.625-12.125-4.625-4.375-3.125-5-7.5-.25-1.521 3.135-.201 7.884.512 11.25 1.146 2.227.352 3.033 1 4.288 1 2.091-3.313 5.087-9 4.587-12.875-4.375-3.125-3.813-2.813-5.313-8.063 1.942-2.559 3.267-2.983 7.313-5.438 1.854 0-3.125 3.25-.125 3.25-2.75 1.75-5.188 2.813-4 4 1.25 1.379 5.625 3.125 1.388-.389 1.196-.611 3.459 1.726 4.572.678 1.709-1.709 7.404-4.54 10.577-6.369 2.786-.742 1.758-.684 2.713-2.42 0-1.665-2.375-1.517-6.088-.125-18.206 18.206-3.014-.898-1.255-1.285 2.297-1.854 7.443-2.445 7.969-2.59-1.128-10.459-18.784-.966-24.159-7.784 9.034 3.659 21.409-5.341 27.659 6.909 1.425 3.375 11.063 1.875.063-8.438-3.702-2.856-9-5.5-12.938-1.563 0-3.423 3.989-3.864 8.804-3.304 1.321-3.446 5.946 3.954 12.446 9.179 3.125 4.875 8.895 4.875 12.75 4.875 2 0 7.875.303 8.25-2.125.478-2.846 1.192-7.542 0-9.75-3.066-3.066-6.172 6.953-7.375 5.75-3.414-1.201-6.125-1.625-11.625-1-5.75-2.683 6.718-9.779 2-14.625-15.25-3.375 8.324-5.574.25-11.875-6.017-1.142-8.875 2.25-10.39 6.015-5.977-.093-13.417-2.458-24.735-7.015-3.296-3.296 21.438-1.313 17.5-14.125-.633-2.503-12.493-1.461-13.125-4.125 10.125-11.125-1.25-12.391-5.854-12.391-2.271-14.234-8.171-14.992-9.646-20.109-1.111-3.855 1.309-10.059 7.625-8-1.5-3 .375-11 7.125-11 9-4.25-6.125-2.125-2.375-9.625 2.75-6.625 15.375 6.875 11.375-2.75-.639-2.509-1.875-2-5.125-3.5 7.125-7.125-5.625 0-7.375-3.625-9.125-7.375 5.625-7.625 6.25-11.5-.622-3.122-19.375 3.125-13.625-9.875 7-4.375-10-10.875-5-15.875 3.771-4.479 5.063-5.688 6.25-4.5 2.313 2.313 4.313 3.938 7.125 6.75 1.306-2.017 1.251-5.75 6.25-7.25-6.5-3.25.25-4.688 1.625-8.25-4.5-2.75-3.125-9.875 1.625-11.5 4.688-4.688-15.75-12.875 12.875-17.5 1.342-2.961-9.344-3.719-6.887-7.438 11.225-11.225-6.488-3.938-3.613-12.938 1.411-2.353 9.875 2.75 12.185-1.564 2.69-4.686-7.528-6.03-4.81-9.436 1.235-2.18 8.971 2.44 10.008.296 1.492-3.171-6.569-6.606-4.84-9.295 2.57-3.763 10.707 7.499 21.588-.744 6.368 1.368 1.243 5.243 4.876 7.642 3.742 2.977 5.906 1.82 5.992.352 1-4.008.656-9.281-3.213-13.15 3.026-5.162-1.741-7.395-4.787-6.475-8.438 8.438-6.313.188-4.26-3.615-2.373 0-6.458 1.365-9.115-.76-1.813-1.813-.5-3.875 2.375-3.875-4.75-2.25-4-5.5 3.5-4.875-.278-5.855-11.475-7.222-12.81-9.254-2.593-2.593 5.56-.121-2.69-5.496-.625-3 6.5-.52 9.125-1.875 3-8.875-13.875-3.25-7.125-11.25 7.625-3.25-3.419-2.169-2.25-5.125 7.313-7.313-6.625-2.875-12.071-7.125-4.804-2.625 6.152-2.125 5.196-6.75 10.5 1 3-9.75 7.375-12.25 7 1 7.498-1.167 7-4.625-.495-4 7.625.375 8.625-10.75 9.25 4.375 7.657-4.313 7.5-6.5-.091-1.267 5.563.813 8 3.25 6.742-1.077 16.25-2.25 14.875 2.625 14.132-5.275 10.172 3.828 10.25 3.75 5.625-1.125 10.389-10.922 15.125-9 5-2 8.75-3.75 13 2.75.625 2.875 5.615-2.865 9 .5 2.188-2.188 3.75-4.75 9.5-7.25-.563 1.563-1.5 3.625-2.875 5 1.015.315 3.688 1.563 6 3.875-.59-4.035-1.688-7.438-.25-12.125 2.399 2.399 2.114 6.864 3.875 8.625 1.188-1.188 1.955-3.517 4.5-7.5-2.5-2.5-3.625-4.375-3.625-7.75 4.157 2.25 2.625 3 5.625 3.625 2.207-1.293.75-3 4.625-4.75 1.776-.281 2.264 5.995 4.184 5.625 6.03.214 8.657 4.341 13.47-.472-.778-1.282-3.36-.269-5.278-1.528-1.25-2.25 10.375-.5 3.625-6.25-6.125-7.375-.5-4.401 4.375-4.875-2.188-14.938 3.292 4.417 6.125 3.137 3.625-1.137 3.5-8.262 9.125-.137 2.053-.458 6.625-4.75 9.25.25 2.875 4.5 4.5-3.25 12.653 1.625.813-.813 2.41-2.688 5.169.072 1.428 2.254-.447 7.053-2.822 9.428 3.635 2.615 2.25 3.375 2.25 5.125.758 1.98.758 1.98 2.75 2.564 1.385.406 2.373.311 3.875-.439-.5-1.557-.5-1.557-.5-3.25 0-2 .563-3.063 3.125 3.25 2.25 9.5 2.625 3 6.375 2.091 4.125-.966-1.625-.841-.878-4.088.807-2.324 3.253-6.878 7.628-2.503.875 3.875-2.625 5.625 2 8.25 3.125-.875-.402-7.152 2.5-8.75 3.296-.229 3.507 8.729 7.375 7.625 4.125-1.125-3.625-7.625 2.375-8.75 8.875-2.625 8.372 5.178 10.875 4.125 4.625-4.625.125-7.875 4.625-16.375 4.125 1.75 1.313 15.188 5.09 16.59 4.91-.123 9.68-7.109 13.16-5.34 2.458-2.458-3.583-4.75-1.353-8.686-1.379-2.167-4.147-1.481-3.647-5.564.493-1.103.583-4.083 4.25-1.25 1.208-1.208-1.873-2.707 0-4.58 2.587-2.89 8.654-3.853 10.75 3.83 2.641-2.135 8.199-6.166 8.664-4.581zM119.492 210.455c3.5 6 12.257-.553 15.667-2 6.075-2.5-1.583 6.417 2.5 10.5 5.667 0 4.5-14.833 11.667-17.5 3.667 2.094 6.667-4 8.841-5.001.679-1.984-1.141-4.252-2.175-5.999-10.833 0-21.333 14.667-36.5 20zm37.833-60.333c-1.083 2.917 3.667 7.5 6.667 7.5 5.667 0 5.5-6.667-1.417-9.917-4.833-.833-4.666.334-5.25 2.417zm-56.5 291.333c.762.657 1.896.563 2.333.125 1.813-1.813 2.749-2.666 1.375-4.5 3.5-2.125 1.077-3.11-.375-3.792.001 1.834.001 6.792-3.333 8.167zm-6.291 6.75c4.875-1.75 6.376-1.125 9.376.189.859-3.189-5.376-2.561-7.128-3.192-1.202-1.202 11.626.503 2.001-3.247-4.832-2.125-6.924 2.631-4.249 6.25zm.375 1.875c1.813-.375 2.625-1 5.625-1-.719-.719-3.458-.813-5.625-.25.094.489.094.489 0 1.25zm1.125 1.813c1 .625 2.188.625 4 .625 4.75 0 3.188-.688 2.625-1.25-1.938-.834-7.234-1.308-6.625.625zm61.375 24.937c-.453 1.694-.05 3.066.581 3.122 1.826 0 1.794-1.435 1.481-2.997-.834-.834-1.479-1.19-2.062-.125zm4.718.094c.594 2.156 1.281 3.844 4.281 3.844.531-1.656.438-4.313-.563-6.188-2.186 0-3.134.262-3.718 2.344zm7.032 4.094c1.587.519 2.875.313 3.875 0 1.313-3.375-.688-6.75.242-9.681 0-4.194-1.588-.712-3.117-.069.344 4.343-.417 7.668-1 9.75zm67.333-401.313c0 3.167-.645 5.542.25 7.25 6.875-6.875 7.833-12.5-.917-13.25-4.833-.833 1.251 3.917.667 6zm11.583-6.333c.615-.615 1.705-1.288 2.417-1.862 1.167-.601 1.681-.555 3.417-1.388-7.333-3-8-8.417-10.75-12.667-10.917 7.333-1.282 2.379.304 5.715.621 1.306-1.534 5.583-.841 6.915 2.453 1.037 4.203 2.506 5.453 3.287zm-16.666-6.417c.625 1.208 1.25 2 2.75 2.583 3.5 1.417 4.417-2-.083-4.5-2.084-.259-2.667.463-2.667 1.917zm16.5-10.083c.917 2.917 4.759 8.422 7.759 8.422 3.074-.672 5.032-2.631 1.991-8.922-3.334-1.5-6.851-.386-9.75.5zm6.843 24.351c1.993-.923 2.656-1.101 4.906-1.101-1.917-3.083-4.81-3.715-8-2.833 1.334 1.833 2.128 2.967 3.094 3.934zm2.573 4.649c.75 0 2.5-.038 4.262-.038-.862-.862-1.512-1.879-1.512-3.712-6.333 0-3.916 1.667-2.75 3.75zm-8.5 13.5c0 1.687 1.708 1.792 4.708 1.792.5-1.583.433-1.984-.542-2.958-2.082-.834-4.166-.167-4.166 1.166zm-3.583 12.25c1.5.333 4.292.208 6.167 1.333 1.917-1.917 2.917-4.083 2.083-8.583-2.717.65-5.247.325-8.576.325 1.201 2.467 1.103 5.452.326 6.925zm-25.917-69c2.292 2.292 4.881-2.426 7.881-2.426 3.513-4.074-3.381-1.908-2.964-5.824-2.583 2.584-7 6.167-4.917 8.25zm79.084-27.5c.417 2.243 2.458 3.291 4.667 4.083 1.506-.018 2.333-1.333 1.667-3.833-2.584.5-5.751-2.333-6.334-.25zm25 22.917c0 2.583 3.206-1.348 5.167-1.917.5-1.583.042-2.792-.417-3.25-3.67.978-4.75 3.084-4.75 5.167zm25.333-10.25c.292 1.542 1.417 2 2.834 1.5 1.333-.667.912-2.412-.834-3.25-1.25-.418-2 .251-2 1.75zm157.5 457.333c.376 4.376 12.834 5.334 7.167-4.833 6.333.5-7.083-9.918-3.541-3.125 6 3.75-7.417.292-.209 8.375 1.737 2.703-1.917.5-3.417-.417zM155.367 380.664c0 2.624 3.167-.084 5.042-1.209 2.417-1.75 2.986-3.417.833-3.833-4.125-.126-5.875 2.96-5.875 5.042zm-1.042-5.876c-.833 3.667 1.667-.333 4.667-.333 0-2.417-3.096-3.306-4.417-3.917 0 1.584.085 2.417-.25 4.25zm0-7.416c1.236.598 1.958.374 3.917 1.416-.472-1.983-2.591-2.482-4.083-3.166 0 .5.166 1 .166 1.75zM291.409 77.88c8.917-3.671 12.373-12.199 10.337-15.681-2.2-.543-2.571-.577-3.038-.327-.963.515.743 2.375-1.382.25-4.333 0-6.041-.31-8.333-1.5-.834 4.167-3.501 15.167 2.416 17.258zm5.254-18.369c-.24-.667-.489-1.065-.171-1.556-1.083-.417-4.815.185-5.857.768 1.065 1.065 3.946 1.184 6.028.788zM182.534 329.298s-.375 3.032 1 3.032c4.25 0 5.5-9.125 3.25-9.125-1.875 0-4.25 4.718-4.25 6.093zm1.708 177.907c-.75 1.333 1.812-.354 4.417-.75.708-.708.121-1.62-.917-2-1.417.583-2.485 1.1-3.5 2.75zm190.917 33.875c.625 2.917 5.808 2.388 8.808 2.388 4.673-.993 3.442-4.138-2.933-5.638-4.832-.834-5.291 1.168-5.875 3.25zm14.5-24.75c1.313 1.313 3.063 2.188 5.438 1.563 2.712-.762 4.313-5.063 2.813-6.563-4.833-2.625-8.251 2.334-8.251 5zm-152.188-30.187c.313.938 1.281 1.813 2.063 1.813 3.685 0 2.125-3.188.063-3.625-1.438.312-1.67.544-2.126 1.812zm2.815-4.792c-2.25 0-1.875 2 .438 2 .875-.875.866-2.554.25-3.75-1.398-.594-1.938.5-.688 1.75z"/></g></switch></svg>