<svg xmlns="http://www.w3.org/2000/svg" xmlns:dc="http://dublincore.org/documents/dcmi-terms/" height="120.803" viewBox="0 0 143.794 120.803" width="143.794"><metadata><dc:description>Silhouette of Teloschistaceae, processed by PhyloPic Tools (https://github.com/eweitz/phylopic-tools)</dc:description><dc:source>http://phylopic.org/image/7640137c-747d-4237-901b-0324c8b0b924</dc:source><dc:creator>Renato Santos</dc:creator><dc:license>http://creativecommons.org/licenses/by/3.0/</dc:license></metadata><switch><g><path d="M141.098 32.424c-1.115.235-2.233.517-4.13 1.62-49.659 11.666-10.59 32.117-15.12 73.38.71 3.517.71 3.517 2 8.5 1.125 4.125-7.625 7.375-9.375 2.25-2.435-5.875-4.272-12.228-9.125-19.375-8.5-14-15.75-53.25-57.3-66.675-3.2 0-6.609-3.95-5.95.55-2.534-3.375-1.257.067-2 0-2.139-2.139-3.25-2.585-5.75-3.25-1.624-1.624-2.753-2.372-3.75-1.375-.679-1.429-1.907-2.167-3.965-1.949-9.9-4.608-15.823-5.345-21.285-6.676-8.75-3-6.125-21.25 3.25-17.75 1.491.35 9.793 2.339 11.446 2.884 27.772 5.397 60.933 35.038 104.467 16.956a78.657 78.657 0 0 0 6.087-2.84c9.063-4.438 17.75 10.125 10.5 13.75z" fill="gray"/><path d="M114.473 20.424c3.377.75 8.575.964 9.625 1.25 2.813 2.813-1 3.097 6 4.25 3.382 4.448-4.543 2.53-3.125 4.75 1.143 1.79 6.666-1.833 9 .5 1.375 7.25 7.375 8.854 3.875 11.625-2.375 0-4.75-.125-5.5-2.125-3.438.688-6.6-1.85-8.125 2 4.25-2.875 4.142 5.858 5 9-.875 5.25-5.5-3-6.625 3.75 5.375.875 4.875 9.5-1.25 11-.146 3.156-2.552 5.328-4.781 3.099-1.096 0-2.418.476-1.214 1.681-.551 2.471 1.024 1.846 2.12 1.846 3.508-4.436 6.198.196 5.736 1.988.35 4.512-4.471-.129-3.111 3.887 3.875 5.125 5.277 2.5 4.5 6.625 3.713 2.787 5.438 10.438 1.875 6.875-1.692 1.016-2.261.625-3.125.625 1.25 2.875-2.438 6.438 1 7.875 3.625 2.875 3.176 6.75.375 7.375.318 2.557-3.875 1.422-3.875-.5-2.283 0-2.25-4.625-2.25-6.5-1.924.625-4.313-.313-4.75-3.625-1.872 0-3.406-1-5.875-1-7.292-1.167-1.208 6-3.375 5.25-2.333-3.167-4.625 2.75-4.625.875 0-2.353-4.545-2.205-3.25-5.375 1.75-1.75-.75-.5.379-4.175 1.121-3.825-4.379-10.325-5.629-6.95-5.25 8.875 3.5 3 3.5 7.375 1 8.75-4.979 4.477-7.25 3.875 0 2.375-1.73 3.945-2.875 4 .611 3.023-.25 4.061-1.032 4.061-3.134-.436-3.813 3.993-4.843 2.564-1.459-3.667 2.67-3.044-.25-4-1.125 0-.689-2.125-4.75-2.125.5 3.136-1.218 3.742-3.625 4-1.375 3-4.179 3.446-5.25 2.375-2.438 3.938-5.313 4-7.25 1.625-4.25.792-4.975-.628-5.5-2.375-2.199 0-4.333-2.438-2.25-6.5-1.454-1.097-3.054-3.305-.917-5.442-.438-2.536 1.042-3.308 3.417-3.308-.493-2.59 5.875-5.459 7.873-1.167.331.834.704 1.244 1.504.444 1.761-1.778 4.248-3.152 7.123-.277 4.042-1.25 1.625-1.833 1.625-3.25 1.188-4.563-1.18-6.195-3.078-8.093-1.497-1.497 1.39-4.22-1.985-5.97-1 1 .871.563.871 3.629-.406 1.67-2.184 1.756-1.246 3.371 3.397-.021 5.161 2.227-.226 2.227-1.652 0-6.924.748-5.596-1.914-2.291 2.291-4.02 1.651-3.99.75-.813-4.688-5.5-7-4.668-7.832 2.668 0-2.832-5.918 2.918-4.668 3.25 3.25 3.522.713 3.25-.875-.999-.839-1.991-.616-2.25-2.25-.625-3.5-2.678-.178-4-1.5-1.254-1.254-2.5-6.125.25-6.125-.625-1.75-.75-3.5-.025-5.085-1.253.176-.678.066-2.1.335-1.625 0-2.875-4.625-.157-5.2 3.532-.55 6.282-4.8-.718-3.3-2.375 0 4.375-7.5-2.01-8.125-1.546 0-1.546-1.125-3.49-1.75-1.226-2.025 1.658-2.097 3.58-3.58 5.045-2.795 1.188-3.197 2.089-4.339 3.331-1.081-.232-2.393 1.456-4.081 3.313-3.313 3.33-4.795-.625-4-2.158-1.044-1.875-2.125-2.375.375-2.375 2.375-7.25 3.5-4.125-3.875-1.338.75-2.903 1.32-5.25.25-2.704 0-2.75-6.375-5.375-6.375-1.125 3-7.593 3.218-8.625 1.25 0-5.125-5.875-7.5-10-7.5C11.786.486 16.02 0 17.897 0c4.223 1.525 4.889 5.861 16.204 3.674 6.498-1.125 3.138.807 5.577 1.455 1.82-.479 4.545.67 3.691 3.701 3.729 1.969.505-.505 2.729-1.031 1.489-.875 7.813.188 5.342 2.658.991.991 2.908 2.526 3.658.967 2.063 2.063 5.398 3.552 6.928 4.053 8.072 1.072 1.322-3.053 5.322-4.178 2.625.491 10.938 2.313 7 6.25 1.188 1.188 3.74 2.865 4.375.5 1.798.447 7.125-1.625 6.5 3 2.331.492 2.125 2.625 4.25-1.5 2.625 0 2.75 1.375 6.125.5 2.903 1.597-.375 4.75 3.125 4.75 0-.918 6.948-2.427 7.5-1.875 0 4 4.25 1.125 1.25-.5-4-1.375 1.125-4.167 2.875-4.375 2.426-.875 5-.875 4.125 2.375zm.125 10.125c.75.75 1.938.313 2.375-.125-.601-1.481-1.625-1.875-2.938-2.313.313.938.499 1.49.563 2.438zm3.25 1.375c0 .75 1.375 1 2.438-.063.259-.259.979-1.646-.063-2.688 0 2.501-1 2.751-2.375 2.751zm-5.937 4.437c.334.333.539.309 1.223.198.645-.644.59-1.261.277-1.573-.625 0-1.354.521-1.5 1.375zm-54.456-3.8c1.277-.109 1.394.238 2.581-.949 0-1.625-2.387-.563-2.5-1.375.375-2.782-.469-1.719-.813-1.375-.844.656-1.406 1.719-2.75 1.313 1.605.936 3.813 1.011 3.482 2.386z"/></g></switch></svg>