<svg xmlns="http://www.w3.org/2000/svg" xmlns:dc="http://dublincore.org/documents/dcmi-terms/" height="368" version="1.2" viewBox="0 0 924.051 368" width="924.051" overflow="inherit"><metadata><dc:description>Silhouette of Tetrapoda + Tulerpeton, processed by PhyloPic Tools (https://github.com/eweitz/phylopic-tools)</dc:description><dc:source>http://phylopic.org/image/256ec0b9-eca1-40ea-af9e-8dd01ccbc770</dc:source><dc:creator>Dmitry Bogdanov (vectorized by T. Michael Keesey)</dc:creator><dc:license>http://creativecommons.org/licenses/by-sa/3.0/</dc:license></metadata><path d="M671.051 0h10c99.201 5.467 181.297 28.036 243 71-38.771 6.918-86.098-5.838-136-3-25.316 1.44-55.945 2.438-82 0-20.464-1.915-39.988-9.827-58-10-7.11-.068-16.84 4.153-26 6-19.324 3.896-38.658 5.468-51 11-6.858 3.074-23.928 14.201-23 23 1.575 14.94 36.792 13.464 51 16 3.168 5.546 14.093 8.278 24 10 2.956 7.377 14.227 6.44 16 15-4.503 3.042-9.307 7.67-16 11-10.301-.844-28.248-6.226-41-2-27.188-6.479-53.164-14.169-73-28-47.005 53.662-104.64 96.693-176 126 14.372 24.689-2.748 70.653-14 97-6.603 1.397-8.543 7.457-12 12-4.31 1.311-1.239-4.762-5-4-5.217 4.459-7.87 16.784-14 17-.417-7.417 2.854-11.146 2-19-6.564-.853-2.217-14.559-6-23 7.306-17.027 18.617-30.05 19-54-8.933-3.4-18.248-6.419-26-11-19.952 4.275-35.456 1.112-55 0-2.131 10.434 10.397 17.737 11 25 .356 4.291-3.124 7.286-4 10-.217 8.884 9.844 7.489 10 16-23.066-9.934-37.24-28.761-43-56-15.785.338-29.563-1.118-44-3-14.304-1.864-27.978-7.223-40-8-30.575-1.977-73.347 7.096-98-6-6.018-3.196-14.798-15.639-14-23 1.21-11.168 27.201-24.006 38-30 16.372-9.088 32.239-15.148 46-23 5.304-3.026 9.589-9.739 15-11 4.332-1.01 9.545.795 14 0 12.751-2.276 26.68-8.022 40-12 40.519-12.099 83.483-22.882 120-38 25.745-10.658 48.627-26.227 75-36 27.028-10.017 53.906-20.987 82-29 29.239-8.34 59.251-12.607 90-19 47.256-9.825 103.182-14.234 151-18z" fill-rule="evenodd"/></svg>