<svg xmlns="http://www.w3.org/2000/svg" xmlns:dc="http://dublincore.org/documents/dcmi-terms/" height="359.906" width="411.198"><metadata><dc:description>Silhouette of Thermotogae, processed by PhyloPic Tools (https://github.com/eweitz/phylopic-tools)</dc:description><dc:source>http://phylopic.org/image/e8d3bad3-9927-48fa-8c99-a1ad1f175df0</dc:source><dc:creator>Matt Crook</dc:creator><dc:license>http://creativecommons.org/licenses/by-sa/3.0/</dc:license></metadata><g transform="translate(-157.13 -282.41)"><rect height="77.143" ry="38.571" style="marker:none" transform="rotate(-40.167)" width="188.571" x="-166.635" y="548.717" color="#000" stroke-width="3" overflow="visible"/><rect height="77.143" ry="38.571" style="marker:none" transform="rotate(-40.167)" width="507.66" x="-274.879" y="548.717" color="#000" fill="none" stroke="#000" stroke-width="5" overflow="visible"/><path d="M265.261 555.352c-4.334 1.236-10.193-1.125-11.97-8.04-1.776-6.914 13.903-18.923 13.028-25.252-.875-6.328-7.128-4.287-6.766-7.248.362-2.961 4.892-1.63 6.693-4.353 1.801-2.723-2.74-8.44 2.02-11.425 4.76-2.985 16.504 9.598 21.277 6.015 4.773-3.582-2.385-10.007.104-13.694 2.488-3.688 9.053-1.183 12.014-4.958 2.962-3.775-3.04-11.966 2.374-15.611 5.415-3.646 17.676 9.276 22.732 5.435 5.055-3.84-2.18-11.383.54-14.712 2.72-3.329 7.663.861 10.762-2.604 3.1-3.465-2.887-13.911 2.114-16.687 5.001-2.776 10.096 9.318 15.896 7.317 5.8-2 3.594-16.473 8.83-17.174 5.237-.7 4.323 8.295 8.364 9.14 4.04.846 8.716-9.036 11.317-5.016 2.6 4.02-14.277 5.118-12.167 10.918 2.11 5.8 17.099-5.277 20.672.694 3.574 5.97-4.46 17.348-9.327 18.888-4.867 1.541-5.13-7.663-8.398-4.575s11.012 10.908 7.454 15.74c-3.558 4.831-14.497-7.14-18.402-2.61-3.905 4.529 6.91 11.986 4.923 16.58-1.987 4.592-7.08 5.477-11.376 5.714-4.296.237-7.474-7.01-12.265-4.551-4.791 2.458-.642 15.533-5.082 18.545-4.44 3.011-7.89-5.481-12.879-1.44-4.99 4.04 4.402 21.05-2.502 25.439-6.904 4.389-14.479-12.127-22.176-7.849-7.698 4.278.13 26.295-6.286 28.633-6.415 2.338-4.74-7.28-9.238-7.106-4.499.175-6.194 11.598-11.41 10.28-5.216-1.319-.76-15.74-5.68-15.941-4.92-.2-.855 10.272-5.19 11.508z" fill="#333" stroke="#333"/></g></svg>