<svg xmlns="http://www.w3.org/2000/svg" xmlns:dc="http://dublincore.org/documents/dcmi-terms/" height="139.693" width="154.492"><metadata><dc:description>Silhouette of Thermomicrobia, processed by PhyloPic Tools (https://github.com/eweitz/phylopic-tools)</dc:description><dc:source>http://phylopic.org/image/74e7c46d-745f-46b8-b4b9-a136988e0652</dc:source><dc:creator>Matt Crook</dc:creator><dc:license>http://creativecommons.org/licenses/by-sa/3.0/</dc:license></metadata><path d="M152.675 1.475c3.425 2.855-.629 10.951-3.1 16.687-2.47 5.737-10.275 16.725-12.057 16.982-1.782.258-2.696-1.12-3.298-.197-.603.921 1.381 1.656 1.504 2.942.123 1.285-6.878 8.849-7.876 9.05-.998.202-3.39-2.081-4.327-.87-.939 1.211 2.343 2.22 2.476 3.41s-4.736 5.589-7.258 7.449c-2.523 1.86-6.135 5.24-7.246 4.506-1.11-.733-2.483-1.772-2.574-3.26-.092-1.487 1.538-3.08 1.145-4.254-.392-1.174-1.696.575-2.594 2.233-.898 1.659-.574 2.81-.1 3.733.475.922 1.272.82 2.088 2.45.816 1.632-5.66 5.526-8.232 7.35-2.572 1.824-4.907 3.987-6.9 3.813-1.993-.174-3.206-2.586-3.206-2.586-.347-.191-1.538 1.843-1.689 1.834 0 0 2.8 1.362 3.206 2.586.407 1.224-4.771 10.314-8.752 15.25-3.981 4.938-6.638 7.637-16.215 15.852s-27.079 21.498-38.171 26.53c-11.093 5.03-15.512 6.399-20.949 6.212-5.437-.186-7.805-3.355-8.034-5.742-.229-2.387 1.935-8.451 7.14-15.707 5.205-7.255 21.432-18.583 26.379-23.908 4.947-5.325 2.067-3.198 8.152-9.218 6.085-6.02 28.586-23.198 30.765-24.097 2.18-.899 3.994-1.001 5.901-.167 1.908.835 3.228 2.434 3.526 3.01.299.576 2.192-.652 1.49-1.366-.7-.715-1.007-1.578-1.721-2.81-.714-1.231.44-5.394 1.86-8.087 1.42-2.694 4.71-6.001 6.754-7.336 2.043-1.335 3.172-1.673 4.42-1.518 1.247.156 1.796 1.036 2.4 1.57.606.535 2.605-1.004 1.465-1.49-1.14-.487-2.843-1.026-3.277-3.099-.434-2.072 2.826-4.191 6.331-8.222 3.506-4.03 8.015-8.309 14.296-13.977 6.282-5.667 11.155-8.509 15.616-10.367 4.46-1.859 9.013-2.98 11.964-3.358 2.95-.378 5.272-4.669 8.698-1.813z" stroke="#000" stroke-linejoin="round"/></svg>