<svg xmlns="http://www.w3.org/2000/svg" version="1.2" width="117.59" height="48.956" viewBox="0 0 117.59 48.956" overflow="inherit"><path d="M81.113 0c1.6 0 6.001.398 6.72.48-13.038 1.841-25.065 4.693-28.798 15.839 2.936-.796 3.755 2.562 7.199.479-.088 2.258 2.953 3.066 3.359.96.418 1.787 3.205 3.362 3.84.96 1.421 3.825 4.877.456 6.24 3.36 1.814.695.921-1.319 2.399-.96 3.39 2.931 6.902 2.941 13.919 3.36 7.366-5.592 10.873-15.045 21.118-17.759-2.883 3.631-11.382 11.845-11.519 18.719-.062 3.031 1.074 3.853 2.399 5.76 3.212 4.623 5.128 12.234 9.599 14.878-8.72-2.319-14.664-11.572-21.118-17.758-7.575-.123-9.683 2.723-14.878 2.88-.427.141-2.102 1.298-.961 1.439-2.448-1.62-4.39 2.681-6.719.96-.898.542-2.312.567-1.92 2.399-3.769-2.299-4.289 3.402-9.119 2.4 2.343 7.896 11.476 9.002 22.078 8.64-8.061 1.995-14.166.886-20.639-1.44-3.31-1.189-8.806-6.026-10.079-5.76-3.968.832-11.131 1.761-15.358 1.92.419 2.78 2.712 3.688 2.399 7.199h-.96c-3.409-1.281-8.717-6.308-11.519-7.199-9.503-1.444-10.13-.196-14.879-1.439-2.355-.617-4.631-2.648-6.72-3.36-2.68-.914-5.327-.712-7.196-2.879.071-1.05 1.209-1.031 2.4-.96C2.258 31.5.272 31.725 0 30.238c8.563-5.836 16.452-12.346 28.798-14.399.357-3.962 1.191-7.449 3.359-9.599 2.511 1.193 2.034 3.738 4.32 5.279 3.953 2.666 10.479.763 14.399 3.84C58.479 7.762 68.023 2.109 81.113 0z" fill-rule="evenodd"/></svg>