<svg xmlns="http://www.w3.org/2000/svg" width="469" height="300" viewBox="0 0 469 300"><g fill-rule="evenodd"><path d="M469 272c-5.405 2.236-22.428 4.936-33 3-6.099-1.116-17.18-8.18-22-13-5.258-5.258-4.937-5.509-8-13-.315-.772-.5-2.001-1-3-2.085-4.169-4.303-14.644-6-22-2.68-11.61-6.124-24.028-9-37-.742-3.35-.928-7.061-2-10-.919-2.521-3.371-4.675-4-7-.75-2.773-.595-5.809-1-8-1.219-6.585-3.739-12.315-7-19-5.175-10.608-10.824-21.156-18-31-4.197-5.758-6.873-9.679-13-15-1.671-1.451-4.223-2.848-6-5-1.293-1.565-3.884-3.056-7-5-22.374-13.96-49.868-25.833-80-34-4.612-1.25-9.444-1.642-14-3-3.391-1.011-6.707-4.36-10-5-3.53-.686-6.358 1.517-11 0-3.808-1.245-5.238-5.093-9-7-4.85-2.458-15.281-7.7-23-8-4.339-.169-9.285 2.502-15 2-2.5-.219-5.716-2.167-9-3-8.644-2.192-17.779-3.299-28-6-2.281-2.386-3.221-6.113-4-10-11.697 5.585-25.243-.054-37-2-7.087-1.173-14.454-.299-18-2-4.479-2.148-4.261-8.22-9-8-5.568 2.713-2.206 7.997-7 13-.601.627-3.553 1.239-5 2-1.583.832-2.518 1.425-4 2-3.383 1.313-7.425 1.59-10 3-3.706 2.029-5.067 3.64-7 8-8.833 3.217-17.769 6.878-19 15-.558 3.679-.335 7.571 1 10 .468.852 2.567.772 4 2 .886.76 1.243 2.086 2 3 3.324 4.01 6.77 8.09 9 12 2.793-.316 7.756-4.692 8 1 3.531 2.554 3.24-5.629 9-4 1.987 3.767.647 8.09-1 11-2.982 2.852 2.406 8.215-3 9 9.129 5.874 14.717 13.457 28 10 6.498-1.691 7.208-7.644 13-8 1.373-.084 5.725.676 8 2 .887.517 1.2 2.377 2 3 2.96 2.306 9.144 6.431 8 14-1.111 7.356-12.049 9.963-20 13-8.254 3.153-17.194 7.126-24 9-4.883 1.345-9.652 1.53-14 3-3.889 1.315-7.273 3.298-11 5-8.283 3.782-17.197 6.258-23 10-4.567 2.945-7.171 6.956-9 11V0h469v272z" fill="#fff"/><path d="M469 272v2c-7.229 11.423-37.331 15.676-56 10-6.466-1.966-10.631-4.897-16-9-6.321-4.831-8.995-7.864-14-14-3.364-4.124-4.999-5.681-8-11-2.872-5.09-6.028-12.183-9-19-.647-1.484-.429-2.071-1-3-1.647-2.677-3.572-8.318-5-12-9.043 1.624-16.129 5.205-25 7 .693 4.974 5.928 5.405 10 7 1.84 4.677 5.993 6.57 6 11 .009 5.98-10.953 15.968-16 19-3.794 2.279-11.615 4.742-16 6-.509 3.46 3.591 7.424 3 11-1.784 10.797-24.724 10.364-41 13-6.146.995-9.275 3.46-16 1-1.263-.462-2.591-2.574-4-3-3.313-1-7.057-.103-9-1-.304-.141-1.477-2.664-2-3-.983-.631-2.188-1.186-4-1 6.995-12.005 26.031-11.969 36-21 2.334-9.438-6.576-22.89-11-34-4.498-11.299-7.012-21.619-11-32-15.102-2.844-27.175-11.965-42-12-3.317 4.683-2.459 13.54-5 19 .157 3.824-4.083 3.25-6 5-3.22 6.23-5.959 12.74-10 18-2.967 3.861-7.021 6.326-10 11-.756 1.187-.959 3.694-2 5-4.13 5.183-10.319 9.48-15 15-1.881 2.219-4.859 5.314-7 8-.687.862-.28 2.227-1 3-.45.483-4.542 3.969-5 5-1.855 4.179-.554 9.614-2 14-1.54 4.67-4.839 6.404-7 11-2.984-.016-3.4-2.6-6-3-2.01 2.657-8.379.954-9 5h-1c-.955-4.606-.202-5.412-8-5-1.391.073-7.75 1.538-10 3 1.657-3.343 3.343-6.657 5-10-2.672.661-6.248.419-8 2-.811-9.153 10.301-15.025 15-22-10.946.991-21.205-7.338-28 1-1.208-8.262 1.759-7.804 11-10 2.256-.536 4.415-1.811 6-2 14.89-1.783 22.946 2.777 29-8 1.261-2.244 1.407-4.983 3-8 2.212-4.188 6.091-8.585 8-13 .565-1.307.501-3.713 1-5 1.46-3.771 4.904-9.984 7-15 2.245-5.373 4.234-8.724 6-16 3.825-15.758-5.563-31.372-14-41-1.233-1.407-2.065-4.051-2-4-2.593-2.014-14.513-6.114-18-5-4.138 1.322-3.729 3.304-7 7-13.508 5.277-30.673 9.27-53 8-9.282-.528-19.015-4.236-25 0-3.382 3.175-3.298 7.342-6 11-2.832 3.835-10.233 5.473-8 14-4.387-1.946-4.296-8.371-4-15-1.28-.492-5.605 2.126-8 4-2.681 2.099-5.198 4.097-6 7-2.255-.745-.391-5.609-1-8-4.292.375-6.646 2.688-11 3 1.656-4.989-4.856-1.811-6-4v-1c1.386-1.614 2.833-3.166 4-5-.681-1.348-3.045.871-4-2v-1c1.829-4.044 4.433-8.055 9-11 5.803-3.742 14.717-6.218 23-10 3.727-1.702 7.111-3.685 11-5 4.348-1.47 9.117-1.655 14-3 6.806-1.874 15.746-5.847 24-9 7.951-3.037 18.889-5.644 20-13 1.144-7.569-5.04-11.694-8-14-.8-.623-1.113-2.483-2-3-2.275-1.324-6.627-2.084-8-2-5.792.356-6.502 6.309-13 8-13.283 3.457-18.871-4.126-28-10 5.406-.785.018-6.148 3-9 1.647-2.91 2.987-7.233 1-11-5.76-1.629-5.469 6.554-9 4-.244-5.692-5.207-1.316-8-1-2.23-3.91-5.676-7.99-9-12-.757-.914-1.114-2.24-2-3-1.433-1.228-3.532-1.148-4-2-1.335-2.429-1.558-6.321-1-10 1.231-8.122 10.167-11.783 19-15 1.933-4.36 3.294-5.971 7-8 2.575-1.41 6.617-1.687 10-3 1.482-.575 2.417-1.168 4-2 1.447-.761 4.399-1.373 5-2 4.794-5.003 1.432-10.287 7-13 4.739-.22 4.521 5.852 9 8 3.546 1.701 10.913.827 18 2 11.757 1.946 25.303 7.585 37 2 .779 3.887 1.719 7.614 4 10 10.221 2.701 19.356 3.808 28 6 3.284.833 6.5 2.781 9 3 5.715.502 10.661-2.169 15-2 7.719.3 18.15 5.542 23 8 3.762 1.907 5.192 5.755 9 7 4.642 1.517 7.47-.686 11 0 3.293.64 6.609 3.989 10 5 4.556 1.358 9.388 1.75 14 3 30.132 8.167 57.626 20.04 80 34 3.116 1.944 5.707 3.435 7 5 1.777 2.152 4.329 3.549 6 5 6.127 5.321 8.803 9.242 13 15 7.176 9.844 12.825 20.392 18 31 3.261 6.685 5.781 12.415 7 19 .405 2.191.25 5.227 1 8 .629 2.325 3.081 4.479 4 7 1.072 2.939 1.258 6.65 2 10 2.876 12.972 6.32 25.39 9 37 1.697 7.356 3.915 17.831 6 22 .5.999.685 2.228 1 3 3.063 7.491 2.742 7.742 8 13 4.82 4.82 15.901 11.884 22 13 10.572 1.936 27.595-.764 33-3z"/><path d="M132 300H0V169c1.144 2.189 7.656-.989 6 4 4.354-.313 6.708-2.625 11-3 .609 2.391-1.255 7.255 1 8 .802-2.903 3.319-4.901 6-7 2.395-1.874 6.72-4.492 8-4-.296 6.629-.387 13.054 4 15-2.233-8.527 5.168-10.165 8-14 2.702-3.658 2.618-7.825 6-11 5.985-4.236 15.718-.528 25 0 22.327 1.27 39.492-2.723 53-8 3.271-3.696 2.862-5.678 7-7 3.487-1.114 15.407 2.986 18 5-.065-.051.767 2.593 2 4 8.437 9.628 17.825 25.242 14 41-1.766 7.276-3.755 10.627-6 16-2.096 5.016-5.54 11.229-7 15-.499 1.287-.435 3.693-1 5-1.909 4.415-5.788 8.812-8 13-1.593 3.017-1.739 5.756-3 8-6.054 10.777-14.11 6.217-29 8-1.585.189-3.744 1.464-6 2-9.241 2.196-12.208 1.738-11 10 6.795-8.338 17.054-.009 28-1-4.699 6.975-15.811 12.847-15 22 1.752-1.581 5.328-1.339 8-2-1.657 3.343-3.343 6.657-5 10 2.25-1.462 8.609-2.927 10-3 7.798-.412 7.045.394 8 5zM0 161c.955 2.871 3.319.652 4 2-1.167 1.834-2.614 3.386-4 5v-7zM469 274v26H133c.621-4.046 6.99-2.343 9-5 2.6.4 3.016 2.984 6 3 2.161-4.596 5.46-6.33 7-11 1.446-4.386.145-9.821 2-14 .458-1.031 4.55-4.517 5-5 .72-.773.313-2.138 1-3 2.141-2.686 5.119-5.781 7-8 4.681-5.52 10.87-9.817 15-15 1.041-1.306 1.244-3.813 2-5 2.979-4.674 7.033-7.139 10-11 4.041-5.26 6.78-11.77 10-18 1.917-1.75 6.157-1.176 6-5 2.541-5.46 1.683-14.317 5-19 14.825.035 26.898 9.156 42 12 3.988 10.381 6.502 20.701 11 32 4.424 11.11 13.334 24.563 11 34-9.969 9.031-29.005 8.995-36 21 1.813-.186 3.017.369 4 1 .523.336 1.696 2.859 2 3 1.943.897 5.687 0 9 1 1.409.426 2.737 2.538 4 3 6.725 2.46 9.854-.005 16-1 16.276-2.636 39.216-2.203 41-13 .591-3.576-3.509-7.54-3-11 4.385-1.258 12.206-3.721 16-6 5.047-3.032 16.009-13.02 16-19-.007-4.43-4.16-6.323-6-11-4.072-1.595-9.307-2.026-10-7 8.871-1.795 15.957-5.376 25-7 1.428 3.682 3.353 9.323 5 12 .571.929.353 1.516 1 3 2.972 6.817 6.128 13.91 9 19 3.001 5.319 4.636 6.876 8 11 5.005 6.136 7.679 9.169 14 14 5.369 4.103 9.534 7.034 16 9 18.669 5.676 48.771 1.423 56-10z" fill="#fff"/></g></svg>