<svg xmlns="http://www.w3.org/2000/svg" xmlns:dc="http://dublincore.org/documents/dcmi-terms/" height="199.721" version="1.2" viewBox="0 0 347.575 199.721" width="347.575" overflow="inherit"><metadata><dc:description>Silhouette of Titanoboa cerrejonensis, processed by PhyloPic Tools (https://github.com/eweitz/phylopic-tools)</dc:description><dc:source>http://phylopic.org/image/beca4a24-33ef-4659-a20f-7d6835703c1c</dc:source><dc:creator>Nobu Tamura (modified by T. Michael Keesey)</dc:creator><dc:license>http://creativecommons.org/licenses/by/3.0/</dc:license></metadata><path d="M225.575 39.304c11.3 3.7 22.3 7.7 33 12 16.634 6.633 24.667 19.966 24.1 40-.3 10.434-2.6 19.017-6.899 25.75-17.566 27.399-40.584 48.983-69.05 64.75-9.934 5.5-20.967 9.733-33.101 12.7-26.566 6.433-53.367 6.916-80.4 1.449-21.833-4.366-40.867-10.983-57.1-19.85-7.466-4.1-14.133-8.95-20-14.55a48.739 48.739 0 0 1-4.65-4.8c-13.967-16.567-15.183-34.534-3.65-53.9a142.16 142.16 0 0 1 5.65-9.05l.1-.15c.577-.84 1.16-1.673 1.75-2.5.167-.233.25-.517.25-.85a56.797 56.797 0 0 1-2-1.225c-2.875-1.725-4.724-3.317-5.55-4.775-1.48-.099-2.696.101-3.65.6l-1.8.95c-1.719.87-1.236.319 1.45-1.65-3.048.014-3.798-.153-2.25-.5.373 0 1.148-.033 2.325-.1a9.1 9.1 0 0 0 3.325-.8c.378-5.036 4.028-8.236 10.95-9.6a29.81 29.81 0 0 0 6.6-2.05c3.5-1.566 6.033-2.85 7.6-3.85 8.833-24.633 29.85-39.55 63.05-44.75 16.9-2.633 35.55-3.05 55.95-1.25 21.333 1.933 40.283 1.066 56.85-2.6a100.689 100.689 0 0 0 17.65-5.65c20.066-8.434 43.9-12.784 71.5-13.05 1.9-.033 4.217.15 6.95.55 17.467 2.4 31.816 7.983 43.05 16.75-9.667-2-20.4-4.383-32.2-7.15-15.6-3.667-30.149-2.183-43.649 4.45a1203.32 1203.32 0 0 0-34.7 17.65c-4.135 2.201-7.951 4.551-11.451 7.051zm-167 57c0 .333-.083.566-.25.7-4.967 4.4-8.217 10.5-9.75 18.3-.433 4.767-.083 8.767 1.05 12 1.2 3.434 3.15 5.833 5.85 7.2 11.767 6.033 24.783 10.1 39.05 12.199 22.333 3.267 45.017 2.467 68.05-2.399-18.933.1-31.6-6.233-38-19-5.43.541-11.263.499-17.5-.125a300.69 300.69 0 0 1-4.05-.275c-10.667-1.566-19.483-6.691-26.45-15.375a180.262 180.262 0 0 0-18-13.225zm81-47c0 .333.083.6.25.8 7.167 9.133 12.083 20.533 14.75 34.2.333 0 .5-.034.5-.1 3.433-15.167 10.933-26.133 22.5-32.9v-.5c-11.667-.133-24.334-.633-38-1.5zm-33 15c.733 6.267 2.833 11.167 6.3 14.7.667.667 1.017.95 1.05.85 2.467-9.4.016-14.583-7.35-15.55zm125 19c-.333 0-.667-.017-1-.05-6.839-.666-12.839-.082-18 1.75l-2.4 1.1c-6.366 3.4-10.625 8.567-12.774 15.5a1440.717 1440.717 0 0 1-8.825 26.7v1a852.95 852.95 0 0 0 26.9-21.15 132.959 132.959 0 0 1 4.25-3.25c7.465-5.434 11.415-12.633 11.849-21.6z" fill-rule="evenodd"/></svg>