<svg xmlns="http://www.w3.org/2000/svg" version="1.2" width="1302.344" height="866" viewBox="0 0 1302.344 866" overflow="inherit"><path d="M597 866h-12c-29.969-4.532-63.729-8.152-89-20-10.182-4.773-20.632-12.424-33-17-24.316-8.996-49.175-13.074-69-27-3.22.22-4.231-1.769-8-1-.006-2.66-2.782-2.551-4-4-2.48-.147-4.853-.187-5 2-3.357-.914-.495-1.859-1-5-9.514-1.036-18.753-12.283-26-9-2.168.169-.453-3.547-1-5-11.645.412-14.774-12.241-26-9 .529-.805 1.043-1.623 1-3-3.545-1.064-9.992-6.235-16-8-2.134.467-1.905-1.429-2-3-30.129-14.273-65.991-35.577-100-50-3.462-1.469-11.564-2.119-17-2-61.139 1.336-121.458 3.941-171 24 36.622-27.852 98.474-32.489 150-35-37.444-6.008-78.21 2.197-109 7 20.479-9.521 48.42-11.579 77-13-48.538-9.863-106.135 6.783-136 22 33.827-34.244 101.126-39.788 163-42 25.246-.902 53.213-1.518 73-9 3.101-2.818 9.362-6.958 14-5 19.668-10.505 38.168-16.726 60-26 9.405-3.996 16.541-9.38 26-12 24.689-6.839 45.793-19.154 71-17 5.036.431 11.342.328 17 1 8.387.996 15.479 5.324 24 8 10.896 3.421 23.292 2.831 31 10 3.236 1.236.764-3.236 4-2 19.635 13.52 59.642 5.748 73-8-13.685-10.623-42.964-36.006-58-54-4.526-5.417-9.416-13.846-14-19-16.255-18.28-31.594-45.713-47-65-3.12-13.224-12.366-22.033-20-33-13.036-18.727-26.794-38.25-36-59-.716-1.613-1.794-5.369-5-5 .723-3.056-1.022-3.645-1-6-21.286-27.411-26.188-69.342-49-97 2.944-5.039-3.338-5.667-2-12-6.235-6.275-7.484-18.649-11-31-4.532-15.923-12.965-33.908-5-47 5.427.907 8.469 4.198 14 5 7.021 13.646 23.531 17.802 27 35 4.675 5.325 13.142 6.858 13 17 2.007.34 3.129-.205 3-2 2.015 2.652 3.725 5.608 5 9h5c8.513 9.91 19.63 19.966 29 26-.898 2.928-.898 3.072 0 6 10.513 9.82 22.592 18.074 31 30 1.453-.547 5.168 1.168 5-1 6.462 8.438 17.001 6.854 21 18 5.02.008 6.488 8.809 11 6 .301 4.319 2.505 3.27 8 5 .083 5.583 4.643 6.691 9 8 2.41 6.59 9.724 8.276 13 14 13.629 2.038 14.952 16.381 28 19-1.292 3.958 3.292 2.042 2 6h5c9.059 13.941 25.143 20.857 39 30 .098 3.235 4.532 2.134 3 7 3.027.306 3.573 3.094 8 2 3.137 8.095 13.76 13.255 20 15-2.023 3.206 3.956 3.128 1 4 4.222 3.111 8.849 5.817 11 11 13.297 3.37 15.052 18.281 28 22 4.202 11.798 15.646 16.354 21 27 16.835-37.498 28.021-80.646 36-127 4.643-2.024 6.068-7.266 6-14h3c-1.262-9.274 6.562-14.755 3-23 23.171-55.162 42.195-114.472 75-160 28.774-53.559 64.624-100.042 108-139 8.319-13.014 22.906-19.761 32-32 4.72 1.053 5.616-1.717 7-4h2c9.517 20.048-3.841 43.922-7 60-.877 4.661 2.594-1.377 3 2-3.357 13.487-5.287 25.882-10 38-.602 1.547.984 2.214 0 4-1.09 1.978-2.795 1.665-3 3-.819 5.329-.167 9.292-2 14-3.44 8.837.403 13.429 0 23-.13 3.077-2.271 5.002-3 9-.634 3.474.682 8.631 0 12-2.719 13.449-14.014 26.165-10 42-1.771.228-5.008-1.008-4 2 1.419-.086 2.832-.165 3 1-8.546 16.877-5.531 35.318-15 51 3.343 6.042 1.132 16.042 2 23-9.267 11.753-7.932 26.716-15 43 6.604 10.647.419 29.96-5 40 2.346 12.769-1.249 27.838-3 42 5.861 2.634 8.902-3.795 12-7 16.07-10.597 25.68-27.654 42-38 2.437-6.563 6.023-11.977 12-15-1.211-4.194.691-6.029 4-8 5.514-15.486 9.772-32.228 11-52 1.773-1.893 2.647-4.686 4-7-.65-1.017-2.299-1.034-2-3 8.294-33.475 13.602-72.342 26-104 3.173-8.102 7.286-18.822 16-22 3.313 1.011.123 7.622 5 5 1.459-1.207.962-4.372 5-3 2.987-5.679 3.514-13.82 9-17 4.266-10.067 5.622-23.045 18-25 4.94 1.394 1.529 11.137 7 12 11.494-10.506 17.572-26.428 31-35 3.973 4.027 6.338 9.662 9 15 11.129-12.538 20.16-27.173 36-35 9.325 9.636-.43 26.823 0 40 8.216-4.784 13.525-12.475 25-14 5.257 4.312 3.226 11.98 9 17 11.23-2.723 19.125-16.666 38-15 1.634 4.806 1.076 5.58 5 11 1.452 15.257-4.253 27.28-8 42 8.715-3.378 17.355-10.382 28-18 10.641-7.614 23.138-23.992 34-14-.652 26.348-15.04 38.96-22 59 16.48-3.832 40.679-12.214 55-1 1.999 8.153.164 14.805-5 24-9.197 16.376-22.138 34.996-32 49 17.751-2.155 29.562-1.11 46-2 7.975 4.359 14.997 9.669 13 24-6.228 9.867-9.47 21.531-23 22 1.646 15.517-21.271 16.954-25 33 16.731.816 32.765 11.511 31 23-.744 4.845-8.882 16.128-13 20-2.133 2.006-7.56 3.949-11 7-1.985 1.761-3.832 4.514-6 6-8.33 5.711-18.281 7.721-23 16-18.886 8.132-35.738 21.165-55 29-5.149 2.095-11.035 1.857-16 4-3.213 1.387-6.432 5.047-10 7-3.464 1.896-8.635 1.774-9 6-1.182-1.151-3.535-1.132-6-1-1.026 3.641-5.197 4.136-7 7-3.059-.726-2.941 1.726-6 1-17.863 12.962-43.432 19.342-64 29-7.454 3.5-12.163 10.547-20 11 .529 6.406-4.945 5.021-9 9-5.336 5.235-7.986 13.688-14 23-7.502 11.618-14.943 27.355-21 41 5.512 3.855 7.711-2.212 12-3 6.817 2.717 13.247.254 19 1-5.187 6.968 4.532 3.258 8 5 .386 3.719-4.816 1.851-5 5 1.522 2.106 6.486 4.675 2 7 2.651.016 5.889-.555 6 2-.549 2.784-8.071-1.404-6 4-2.275 5.608 6.125.541 5 5-.454 2.546-7.016-1.016-5 4-3.785 2.274 6.139-.921 4 3-1.027 4.449-6.459-.708-7 3-1.311 4.75 4.762-2.299 4 3-.681 3.319-6.88 1.12-8 4-1.291 3.958 3.291 2.042 2 6-5.293-1.293-5.643 2.358-7 5 1.89.443 6.026-1.36 5 2-.431 2.236-4.928.405-7 1 5.861 8.087-9.824 5.385-5 15-8.719-.158-15.765 10.117-12 16 14.936-9.057 27.788-35.097 51-26-1.103 3.23-7.35 1.316-10 3 2.183 6.109-7.138 5.094-6 13 5.202 3.359-.719 14.149 2 23-6.471 10.214-28.774 23.677-47 19-7.212-1.851-11.484-9.639-13-19 3.378-3.539 4.534-8.618 2-14-13.075 2.822-18.812 16.385-27 25-1.99 2.095-6.159 2.518-8 5-3.981 5.369-5.873 14.469-7 22-11.996 15.004-19.142 34.858-35 46-10.533 15.467-21.47 30.53-39 39-14.564 18.436-37.877 28.123-60 39-.437-1.23-1.279-2.054-3-2-.438 5.562-7.699 4.301-11 7-2.63 2.6-.787-1.615-4-1-1.992 1.008-3.502 2.498-5 4-5.003.109-10.268.486-15 2-49.466 15.819-112.26 22.06-168 28zm405-197c15.525 9.155 18.645-9.341 23-19-.221-.779-.838-1.163-2-1-4.817 8.849-17.311 10.022-21 20z" fill-rule="evenodd"/></svg>