<svg xmlns="http://www.w3.org/2000/svg" xmlns:dc="http://dublincore.org/documents/dcmi-terms/" height="697" viewBox="0 0 1024 697" width="1024"><metadata><dc:description>Silhouette of Torpedo marmorata, processed by PhyloPic Tools (https://github.com/eweitz/phylopic-tools)</dc:description><dc:source>http://phylopic.org/image/68a96e12-78b2-4b38-a532-1bdfa05a07bc</dc:source><dc:creator>Steven Traver</dc:creator><dc:license>http://creativecommons.org/publicdomain/zero/1.0/</dc:license></metadata><path d="M1024 179V0H325c24.5 1.3 46.399 4.5 65.899 9.5 0 0 .101.1.101.5 2.3 0 4.1-.6 5.3-1.8.1-.1.3-.2.7-.2 9.1 3.2 18.1 6.5 27.1 9.9.3.1.5.1.9.1 1.899.7 4.2 1.2 6.899 1.5.101 0 .101.1.101.5 35.1 8.2 66.1 20.5 93.1 36.8.3.2.5.2.9.2 9.899 9.9 20.8 18.6 32.7 26.5 10.1 6.5 18 15 23.899 25.7 6 10.8 11.2 22.4 15.4 34.8 1.899.9 2.8 2.5 3 5v1c1.1 1.5 1.5 3.9 1 7v1c1.1 2.5 1.5 5.9 1 10v1c1.6 6.4 5.5 6.9 11.8 1.7 9.3-7.6 21.3-12.6 36.2-14.7h8v-1h10v-1c6.6 0 13.399.1 20 .5v.5h1c3.399 0 6.6.1 10 .5v.5c2.899 2.1 6.5 3.5 11 4h1c3.5 3.2 7.399 6 11.8 8.4.2.1.2.2.2.6 5.6 2.3 12 4.1 18.899 5.5.101 0 .101.1.101.5 6.399 4 12 8.6 16.8 14.2.1.2.2.4.2.8 3.399 1.4 6.7 2.6 10 3.9.399 0 .6.1 1 .1 3.5 5.2 7.8 9.6 13 13.4 3.899 2.5 7.399 5.6 10.5 9 1.1 1.3 2.6 2.2 4.5 2.6 1.5 4.7 4.3 8.4 8.1 10.8.3.1.5.2.9.2 1.6 7.7 3.5 15.4 5.5 22.9 0 0 .1.1.5.1 1.1 1.9 1.399 4.4.5 7.9 0 0-.101.1-.5.1h-1c.8 1.6.899 3.9.5 7h.5c1.1 2.1 1.399 5.1.5 8.9 0 0-.101.1-.5.1 0 .4 0 .6-.2.6-3.8 2-6.1 5.5-6.8 10.4-.4 0-.601.1-.9.2-2.7 1.9-5.8 3.4-9.1 4.8 16.399 5 34.6 8.2 55 9.6 1.5.1 3.899-.5 7-1.6 6.5 3.9 13.1 4.5 19.8 1.6.2 0 .2-.2.2-.6 8.1 3.1 15.7 1.4 22.5-5.4 30.1-29.6 61.5-58 94.3-85.1 5.4-4.4 11.6-5.7 18.8-3.8.601.2 1.2.7 1.8 1.7.9 1.5.801 2.4-.399 2.6 0 .4 0 .6.1 1 .4 3.1.101 5.5-1.1 7v1c-.8 6.2-2.101 11.9-4 17v1c.1 3.4-.601 6.1-2 8 0 .4 0 .6-.101.9-.8 2.5-1.399 5.2-1.899 8.1 0 .4.1.6.2.9 1.5 2.5 2.399 5.5 2.8 9.1-.3 0-.5.1-.5.1-1.3 3.6-3.101 6.6-5.5 8.9 6.1 13.9 10.399 27.8 12.899 41.9.601 3.2.7 6.5.5 10-.1.6-.1 1.7-.3 3.1 0 .6-.1 1.4-.1 2 3.399 8.4 5.5 18 6.5 28.9 0 .1.2.1.5.1.1-1 .1-2 .1-3-.099-59.6-.099-119.4-.099-179z" fill="#fefefe"/><path d="M1015 221v-1-1-7h1c1.2-.2 1.3-1.1.399-2.6-.6-1-1.199-1.5-1.8-1.7-7.2-1.9-13.399-.6-18.8 3.8-32.8 27.1-64.2 55.5-94.3 85.1-6.8 6.8-14.4 8.5-22.5 5.4 0 .4 0 .6-.2.6-6.7 2.9-13.3 2.3-19.8-1.6-3.101 1.1-5.5 1.7-7 1.6-20.4-1.4-38.601-4.6-55-9.6 3.3-1.4 6.399-2.9 9.1-4.8.3-.1.5-.2.9-.2.7-4.9 3-8.4 6.8-10.4.2 0 .2-.2.2-.6v-1-8h-.5c.399-3.1.3-5.4-.5-7h1v-1-7c-.4 0-.5-.1-.5-.1-2-7.5-3.9-15.2-5.5-22.9-.4 0-.601-.1-.9-.2-3.8-2.4-6.6-6.1-8.1-10.8-1.9-.4-3.4-1.3-4.5-2.6-3.101-3.4-6.601-6.5-10.5-9-5.2-3.8-9.5-8.2-13-13.4-.4 0-.601-.1-1-.1-3.3-1.3-6.601-2.5-10-3.9 0-.4-.101-.6-.2-.8-4.8-5.6-10.4-10.2-16.8-14.2 0-.4 0-.5-.101-.5C736 173.1 729.6 171.3 724 169c0-.4 0-.5-.2-.6-4.4-2.4-8.3-5.2-11.8-8.4h-1c-4.5-.5-8.101-1.9-11-4h-1c-3.9.5-6.9.1-9-1h-21v.5c-3.4.4-6.601.5-10 .5 0 .4 0 .5-.101.5-3.399.9-6 .6-7.899-.5-14.9 2.1-26.9 7.1-36.2 14.7-6.3 5.2-10.2 4.7-11.8-1.7h-.5c-.4-3.7-.5-7.4-.5-11h-.5c-.4-2.7-.5-5.4-.5-8-.4 0-.5 0-.601-.2C599.5 148 598.6 146 598 144c-4.2-12.4-9.4-24-15.4-34.8-5.9-10.7-13.8-19.2-23.9-25.7-11.9-7.9-22.801-16.6-32.7-26.5-.4 0-.601 0-.9-.2-27-16.3-58-28.6-93.1-36.8-.4 0-.601 0-1 .1-3.2.5-5.2-.1-6-2.1-.4 0-.601 0-.9-.1-9-3.4-18-6.7-27.1-9.9-.4 0-.601.1-.7.2-1.2 1.2-3 1.8-5.3 1.8 0-.4-.101-.5-.101-.5C371.399 4.5 349.5 1.3 325 0h-5v.5c-15.4.5-30.101 1.7-44 3.5v1c0 .4 0 .5-.1.5-3.3.4-6.5.5-9.9.5-47.5 10.9-87.9 28.7-121.2 53.6-17.2 12.9-33.8 26.3-49.9 40.1-16.1 13.9-31.5 28.7-46.1 44.1C30.6 163 17.1 186.7 8 215v3c0 .4 0 .6.1 1 .4 3.1.1 5.5-1.1 7H6v2c1.2 5.1 1.3 11.1.5 17.9 0 .1-.2.1-.5.1 0 .6.2 1.2.4 1.8.1.1.3.2.6.2 1.2 3.5 1.5 7.9 1.1 13-.1.4-.1.6-.1 1 1.2 1.9 1.5 4.5 1.1 8-.1.4-.1.6-.1 1 1.2 2.1 1.5 5.1 1.1 9-.1.4-.1.6-.1 1 .7 9.7 2.1 18.6 4.4 26.9.1 0 .3.1.6.1 1.1 11.1 1.4 23.1.5 35.9 0 .1-.1.1-.5.1v11c1.1 8.5 1.4 17.8.5 27.9 0 .1-.1.1-.5.1-.3 0-.5.1-.6.1C8.7 406.6 3.9 430.9 0 456v18c7.8 36.8 22.4 66.9 43.8 90.1 2 2.1 3.8 4.2 5.7 6.3 27.8 31.9 60.5 58.9 97.8 81 12.5 7.3 25.5 14.2 38.7 20.6 1.5 2.2 3.1 4.2 4.8 6.2.1.2.2.4.2.8 5.7 1.6 11.3 3.5 16.8 5.4.1.1.2.2.2.6 10.8.6 22.1 2.2 34 4.9.3.1.7.1 1 .1 3 3.4 7.3 5.5 12.9 6.5 0 0 .1.2.1.5h2v-1c1.8.4 2.4-.3 2.1-2 0-.4-.1-.6-.1-1v-1h11v-1h16c5.899-2.7 11.899-5.5 17.8-8.4.1 0 .2-.3.2-.6v-1c4.6 0 9.3.1 13.899.5.101 0 .101.1.101.5 2.399-.3 5.8-1.2 10.1-2.9.3 0 .5-.1.9-.1v-1h14v-1h19c12.7-2.6 25.7-4.9 39-6.9.399-.1.6-.1 1-.1v-1h13v-1c22.899-4.1 43.6-10.5 62.1-18.8.3-.2.5-.2.9-.2 34.8-18.8 65.399-41.9 91.8-69.2 2.7-2.7 4.8-5.7 6.7-9.1 1.899-3.3 4.399-5.9 7.5-7.7 4.3-8.9 7.3-17.9 9-26.8.399-1.5 1-2.9 2-4.2v-1-9h1v-1-7c-.4 0-.5-.1-.5-.1-.4-2-.5-3.9-.5-5.9.399-.3.6-.7.8-1.1.2-.2.2-.6.2-.9-.4 0-.5-.1-.5-.1-.4-1.2-.5-2.6-.5-3.9 2.899.4 5.899.9 8.899 1.5.101 0 .101.2.101.5 24.2 16.4 55.5 23.6 93.899 21.4 6.601-.3 12.301-.5 17.101-.4 4.6-1.7 8.3-4.4 10.8-8.2.1-.2.2-.5.2-.8 7.5-2.8 13.399-7.2 17.8-13.2.1-.2.2-.5.2-.8 10.399-2.6 18.2-7.2 23.399-13.8L769 486c2-2.3 5-3.7 9-3.9.399-.1.6-.1 1-.1 18.399-13.3 29.3-32.3 33-57v-1-1-10c0-.4 0-.6-.101-.9-6.1-17-16.399-29.7-30.899-38.1-.4 0-.5-.1-.601-.2-.3-.6-.399-1.2-.399-1.8 1.5-.6 3.1-.9 5-.9.399-.1.6-.1 1-.1v-1c36.1-9.3 72-18.7 107.899-28.4.101-.1.101-.2.101-.6v-1h8v-1c11.399 0 22.6.1 34 .5v.5c2.6 0 5.3.1 8 .5v.5c18.2 4.8 35.6 10.1 52.3 16.1 4.8 1.6 9.6 3.1 14.6 4.3 1.4.4 2.801 1 4.101 1.6h9v-1-1c-.3 0-.5 0-.5-.1-1-10.9-3.101-20.5-6.5-28.9 0-.6.1-1.4.1-2 .2-1.4.2-2.5.3-3.1.2-3.5.101-6.8-.5-10-2.5-14.1-6.8-28-12.899-41.9 2.399-2.3 4.2-5.3 5.5-8.9 0 0 .2-.1.5-.1-.4-3.6-1.3-6.6-2.8-9.1-.101-.3-.2-.5-.2-.9.5-2.9 1.1-5.6 1.899-8.1.101-.3.101-.5.101-.9v-1-4c1.2-.6 1.7-1.9 1.5-4h.5c1.897-5.1 3.198-10.8 3.998-17z"/><path d="M1015 220c1.2-1.5 1.5-3.9 1.1-7-.1-.4-.1-.6-.1-1h-1v8z" fill="#343434"/><path d="M1009 247c1.399-1.9 2.1-4.6 2-8v-1h-.5c.2 2.1-.3 3.4-1.5 4v5z" fill="#545454"/><path d="M1010.899 361.4c-5-1.2-9.8-2.7-14.6-4.3-16.7-6-34.1-11.3-52.3-16.1-.4 0-.601 0-1 .1-3.101.4-5.5 0-7-1.1h-34v.5c-2.7.4-5.4.5-8 .5 0 .4 0 .5-.101.6C858 351.3 822.1 360.7 786 370v1c0 .4 0 .5-.101.6-1.8.4-3.399.8-4.899 1.4v1c14.5 8.4 24.8 21.1 30.899 38.1.101.3.101.5.101.9 1.1 2.9 1.399 6.4.5 10.9 0 0-.101.1-.5.1v1c-3.7 24.7-14.601 43.7-33 57-.4 0-.601 0-1 .1-4 .2-7 1.6-9 3.9l-.601 2.2c-5.199 6.6-13 11.2-23.399 13.8 0 .3-.101.6-.2.8-4.4 6-10.3 10.4-17.8 13.2 0 .3-.101.6-.2.8-2.5 3.8-6.2 6.5-10.8 8.2-4.8-.1-10.5.1-17.101.4-38.399 2.2-69.699-5-93.899-21.4h-1c-2.7.1-5.101-.3-7-1v3c0 .3 0 .7-.2.9-.2.4-.4.8-.8 1.1 0 2 .1 3.9.5 5.9 0 0 .1.1.5.1 1.1 1.8 1.399 4.5.5 7.9 0 0-.101.1-.5.1v1c.5 3.8.1 6.8-1 9-1 1.3-1.601 2.7-2 4.2-1.7 8.9-4.7 17.9-9 26.8-3.101 1.8-5.601 4.4-7.5 7.7-1.9 3.4-4 6.4-6.7 9.1-26.4 27.3-57 50.4-91.8 69.2-.4 0-.601 0-.9.2-18.5 8.3-39.2 14.7-62.1 18.8v1c0 .4 0 .5-.101.5-4.3.4-8.5.5-12.899.5-.4 0-.601 0-1 .1-13.3 2-26.3 4.3-39 6.9 0 .4 0 .5-.101.5-6.3.4-12.5.5-18.899.5h-5c0 .4 0 .5-.101.5-2.899.4-5.899.5-8.899.5-.4 0-.601.1-.9.1-4.3 1.7-7.7 2.6-10.1 2.9h-14c0 .3-.101.6-.2.6-5.9 2.9-11.9 5.7-17.8 8.4 0 .3 0 .5-.1.5-5.3.3-10.5.5-15.9.5h-1c0 .3 0 .5-.1.5-3.3.3-6.5.5-9.9.5 0 .4.1.6.1 1 .3 1.7-.3 2.4-2.1 2v1h766V518 363h-1c0 .4 0 .5-.101.6-3.399.8-6 .5-7.899-.6-1.3-.6-2.7-1.2-4.101-1.6z" fill="#fefefe"/><path d="M1022 363h-7c1.899 1.1 4.5 1.4 7.899.6.101-.1.101-.2.101-.6h-1z" fill="#a8a8a8"/><path d="M669 154v1h20v-.5c-6.601-.4-13.4-.5-20-.5z" fill="#8c8c8c"/><path d="M669 155.5v-.5h-10v1c3.399 0 6.6-.1 10-.5z" fill="#909090"/><path d="M658.899 156.5c.101 0 .101-.1.101-.5h-8c1.899 1.1 4.5 1.4 7.899.5z" fill="#929292"/><path d="M700 156v-.5c-3.4-.4-6.601-.5-10-.5 2.1 1.1 5.1 1.5 9 1h1z" fill="#949494"/><path d="M786 371c-.4 0-.601 0-1 .1-1.9 0-3.5.3-5 .9 0 .6.1 1.2.399 1.8.101.1.2.2.601.2v-1c1.5-.6 3.1-1 4.899-1.4.101-.1.101-.2.101-.6z" fill="#707070"/><path d="M814 261c.399 0 .5-.1.5-.1.899-3.5.6-6-.5-7.9v8zM814 277c.399 0 .5-.1.5-.1.899-3.8.6-6.8-.5-8.9v9z" fill="#b2b2b2"/><path d="M944 341v-.5c-2.7-.4-5.4-.5-8-.5 1.5 1.1 3.899 1.5 7 1.1.399-.1.6-.1 1-.1zM936 340v-.5c-11.4-.4-22.601-.5-34-.5v1h34z" fill="#363636"/><path d="M902 340h-8v1c2.6 0 5.3-.1 8-.5v-.5z" fill="#323232"/><path d="M812 423v1c.399 0 .5-.1.5-.1.899-4.5.6-8-.5-10.9v10z" fill="#bcbcbc"/><path d="M601 150v-1c-.2-2.5-1.101-4.1-3-5 .6 2 1.5 4 2.399 5.8.101.2.201.2.601.2z" fill="gray"/><path d="M602 158v-1c.5-3.1.1-5.5-1-7 0 2.6.1 5.3.5 8h.5z" fill="#7f7f7f"/><path d="M603 169v-1c.5-4.1.1-7.5-1-10 0 3.6.1 7.3.5 11h.5z" fill="#767676"/><path d="M432 20c0-.4 0-.5-.101-.5-2.699-.3-5-.8-6.899-1.5.8 2 2.8 2.6 6 2.1.399-.1.6-.1 1-.1z" fill="#757575"/><path d="M320 .5V0H0v456c3.9-25.1 8.7-49.4 14.4-72.9.1 0 .3-.1.6-.1v-1-27c-.3 0-.5 0-.5-.1-.3-3.6-.5-7.3-.5-10.9h1v-1-35c-.3 0-.5-.1-.6-.1-2.3-8.3-3.7-17.2-4.4-26.9-.3 0-.5 0-.5-.1-.3-3.3-.5-6.5-.5-9.9-.3 0-.5 0-.5-.1C8.2 268 8 265 8 262c-.3 0-.5 0-.5-.1-.3-4.6-.5-9.3-.5-13.9-.3 0-.5-.1-.6-.2-.2-.6-.4-1.2-.4-1.8v-1-17-1-1h1v-1-7h1v-1-2c9.1-28.3 22.6-52 40.8-71.2 14.6-15.4 30-30.2 46.1-44.1 16.1-13.8 32.7-27.2 49.9-40.1C178.1 34.7 218.5 16.9 266 6V5h10V4c13.899-1.8 28.6-3 44-3.5z" fill="#fefefe"/><path d="M266 6c3.4 0 6.6-.1 9.9-.5.1 0 .1-.1.1-.5h-10v1z" fill="#282828"/><path d="M8.1 219c-.1-.4-.1-.6-.1-1H7v8c1.2-1.5 1.5-3.9 1.1-7z" fill="#323232"/><path d="M6 246c.3 0 .5 0 .5-.1.8-6.8.7-12.8-.5-17.9v18z" fill="#2c2c2c"/><path d="M8 262c0-.4 0-.6.1-1 .4-5.1.1-9.5-1.1-13 0 4.6.2 9.3.5 13.9 0 .1.2.1.5.1z" fill="#313131"/><path d="M9 271c0-.4 0-.6.1-1 .4-3.5.1-6.1-1.1-8 0 3 .2 6 .5 8.9 0 .1.2.1.5.1z" fill="#333"/><path d="M10 281c0-.4 0-.6.1-1 .4-3.9.1-6.9-1.1-9 0 3.4.2 6.6.5 9.9 0 .1.2.1.5.1z" fill="#363636"/><path d="M15 344c.4 0 .5 0 .5-.1.9-12.8.6-24.8-.5-35.9v36z" fill="#595959"/><path d="M15 344h-1c0 3.6.2 7.3.5 10.9 0 .1.2.1.5.1v-1-10z" fill="#535353"/><path d="M15 383c.4 0 .5 0 .5-.1.9-10.1.6-19.4-.5-27.9v28z" fill="#595959"/><path d="M49.5 570.4c-1.9-2.1-3.7-4.2-5.7-6.3C22.4 540.9 7.8 510.8 0 474v223h256c0-.3-.1-.5-.1-.5-5.6-1-9.9-3.1-12.9-6.5-.3 0-.7 0-1-.1-11.9-2.7-23.2-4.3-34-4.9 0-.4-.1-.5-.2-.6-5.5-1.9-11.1-3.8-16.8-5.4 0-.4-.1-.6-.2-.8-1.7-2-3.3-4-4.8-6.2-13.2-6.4-26.2-13.3-38.7-20.6-37.3-22.1-70-49.1-97.8-81z" fill="#fefefe"/><path d="M271 691v1c5.4 0 10.6-.2 15.9-.5.1 0 .1-.2.1-.5h-16z" fill="#272727"/><path d="M269.9 692.5c.1 0 .1-.2.1-.5h-10v1c3.4 0 6.6-.2 9.9-.5z" fill="#232323"/><path d="M305 681v1h14c0-.4 0-.5-.101-.5-4.599-.4-9.299-.5-13.899-.5z" fill="#5c5c5c"/><path d="M605 504c0-.3 0-.5-.101-.5-3-.6-6-1.1-8.899-1.5 0 1.3.1 2.7.5 3.9 0 0 .1.1.5.1v-1-2c1.899.7 4.3 1.1 7 1h1z" fill="#717171"/><path d="M597 521v1c.399 0 .5-.1.5-.1.899-3.4.6-6.1-.5-7.9v7z" fill="#939393"/><path d="M597 522h-1v10c1.1-2.2 1.5-5.2 1-9v-1z" fill="#989898"/><path d="M416 669h-13v1c4.399 0 8.6-.1 12.899-.5.101 0 .101-.1.101-.5z" fill="#9f9f9f"/><path d="M338.899 678.5c.101 0 .101-.1.101-.5h-9v1c3 0 6-.1 8.899-.5z" fill="#737373"/><path d="M344 677v1c6.399 0 12.6-.1 18.899-.5.101 0 .101-.1.101-.5h-19z" fill="#727272"/></svg>