<svg xmlns="http://www.w3.org/2000/svg" xmlns:dc="http://dublincore.org/documents/dcmi-terms/" height="464.16" viewBox="0 0 1058.64 464.16" width="1058.64"><metadata><dc:description>Silhouette of Triceratops, processed by PhyloPic Tools (https://github.com/eweitz/phylopic-tools)</dc:description><dc:source>http://phylopic.org/image/9146defb-cd90-4136-af96-7021890d8ca7</dc:source><dc:creator>Raven Amos</dc:creator><dc:license>http://creativecommons.org/licenses/by/3.0/</dc:license></metadata><path d="M282.48 29.28c2.398 5.645-3.439 12.475-2.64 18.24.342 2.464 2.035 6.368 5.04 7.2 5.015 1.388 12.811-1.489 16.08 2.64-1.088 5.712-3.439 10.161-5.76 14.64-1.008 6.445 1.877 10.906 5.04 14.64 1.221 1.441 2.488 3.449 3.36 3.84 1.35.606 4.09.485 6.24.72 2.23.244 4.417.614 6 .72 10.674.716 23.005 2.058 33.36 1.44 14.163-.845 26.54-3.202 38.16-7.2 11.78-4.054 23.21-7.412 33.84-11.52 2.064-.048 6.554-1.523 8.16-3.6 2.919-.133 6.147-1.517 9.36-2.64 1.65-.577 3.072-1.51 4.56-2.16 6.832-.439 12.146-2.674 18.24-4.08 5.18-1.195 10.513-1.807 16.08-2.4 21.947-2.337 45.717-3.965 70.08-1.44 8.654.897 17.53.843 25.2 2.64 2.791.654 5.714.35 8.159.96.994.248 1.881.949 2.881 1.2 2.17.545 4.451.668 6.72 1.2 2.287.536 4.632.503 6.96.96 1.393.273 2.465 1.505 3.84 1.92 1.735.523 3.506.408 5.28.96 3.099.964 6.327 1.763 9.359 3.12 1.362.609 2.618 1.653 4.08 2.16 4.228 1.465 9.509 2.592 13.92 3.6 3.218.735 6.852 1.117 10.08 2.64 5.225 2.464 12.466 2.979 17.761 6.24 3.702 2.588 8 3.696 12 5.52 3.983 1.816 7.549 4.294 11.52 6 3.902 1.676 8.022 3.725 11.521 6 3.495 2.273 6.882 4.989 10.56 6.96 3.871 2.075 7.54 3.902 11.28 6.24 3.658 2.287 7.683 4.018 11.52 6 3.671 1.896 7.131 4.519 10.8 6.72 3.716 2.229 7.824 3.967 11.28 6.24 2.414 1.587 4.354 3.744 6.72 5.28 7.072 4.593 14.182 9.491 20.641 14.88 2.188 1.826 3.872 4.137 6 6 1.156 1.013 2.508 1.581 3.359 2.64.843 1.046 1.205 2.417 2.16 3.6 3.53 4.37 7.718 8.223 11.28 12.48 9.117 10.896 17.871 21.713 26.16 33.36 1.676 2.355 2.801 4.95 4.56 7.2 3.473 4.44 6.128 9.399 9.36 14.16 3.084 4.542 7.276 8.567 10.56 13.2 11.517 16.249 24.256 30.953 41.04 42.239 2.352 1.581 4.275 3.634 6.48 5.28 7.127 5.321 14.388 9.065 22.08 13.68 4.836 2.902 9.975 5.488 15.84 7.681 1.662.621 2.984.975 4.32 1.68 1.238.654 1.977 1.544 3.359 2.4 2.869 1.775 6.757 2.698 10.32 4.08 3.488 1.353 7.111 2.522 10.56 3.84 7.384 2.82 14.945 4.057 23.04 5.76 2.671.562 4.879 1.356 7.681 1.68 2.6.301 5.032 1.19 7.68 1.44 5.332.503 10.579 1.639 16.32 2.16 1.303.118 2.533-.161 3.84 0 2.273.278 4.56 1.324 6.96 1.68 7.32 1.084 15.47.555 23.279.96-.441 3.342-1.73 4.986-3.6 6.48-7.293 5.827-22.823 6.333-36.24 7.439-6.646.548-13.764-.062-20.16-.24-7.137-.198-13.908-.686-20.159-1.439-6.392-.771-12.674-2.097-19.2-2.641-6.452-.537-12.851-1.685-19.2-2.399-6.521-.735-13.055-1.19-19.2-2.641-11.915-2.81-23.904-4.631-35.76-7.68-6.206-1.596-12.442-2.063-18.48-3.359-11.458-2.462-21.541-7.491-32.159-11.28-5.59-1.995-10.89-3.801-16.08-5.76-5.102-1.927-9.521-4.82-14.4-7.2-4.868-2.375-9.411-4.876-13.92-7.92-4.312-2.912-9.061-5.401-13.2-8.4-3.783-2.741-7.354-6.826-11.04-10.32-1.816-1.722-3.199-3.728-4.8-5.76-1.603-2.035-3.896-3.283-5.52-5.04-2.021-2.186-4.074-5.014-5.761-7.439-1.861-2.679-3.729-5.302-5.279-7.92-.661.905-2.097-.01-3.12.239-3.499.853-9.066 7.957-11.76 10.32-4.264 3.738-8.401 6.513-11.761 10.08-3.572 3.794-8.049 7.149-12 10.08-4.275 3.17-8.646 5.905-12.72 9.12 3.829.689 6.6 2.049 9.84 3.359 1.6.647 3.53 1.002 4.8 1.681 1.862.994 3.536 3.072 5.521 4.56 11.432 8.57 16.854 21.403 21.359 37.2.695 2.435 1.895 4.795 2.4 6.96 1.067 4.563 1.693 8.919 3.12 13.2 3.55 10.648 5.536 20.787 11.76 28.8 1.119 1.44 3.238 2.776 4.32 4.56.734 1.21 2.119 4.252 2.64 5.761 2.141 6.198 1.682 15.334.721 23.04-.664 5.321-1.03 10.676-.961 15.84.071 5.263 1.779 10.453 0 15.12-5.57 3.489-14.221 3.6-23.279 3.6-6.498 0-13.087-1.898-20.4-1.68-3.761.112-7.279 1.199-10.8 1.439-7.627.521-14.965-.915-21.84 0 .944-7.222 5.377-9.177 10.8-12.239 1.509-.853 2.853-2.431 4.32-3.12 2.482-1.168 5.364-1.64 8.16-2.16 2.417-.45 5.762-.773 8.159-1.92 3.156-1.51 7.199-11.237 6.24-16.32-1.655-8.771-10.006-15.854-16.56-21.36-1.71-1.437-3.121-3.289-4.801-4.8-4.84-4.354-9.605-9.438-14.64-13.68-7.256-6.112-15.154-10.739-22.08-15.84-1.798-1.324-3.698-2.782-5.52-4.08-1.878-1.338-3.268-3.07-5.04-4.32a138.13 138.13 0 0 0-5.76-3.84c-1.935-1.223-3.294-3.426-5.761-3.6-1.27 7.256-4.935 12.956-8.399 18.96-3.313 5.74-7.427 11.466-9.12 18-1.505 5.803-1.367 12.573-1.681 19.68-.292 6.639-.592 14.181.48 20.64.738 4.444 3.532 7.813 4.08 12.48.181 1.538-.245 3.737-.48 5.76-.383 3.298-.332 6.761-3.359 8.4-1.257.681-5.383 1.655-6.96 1.92-5.814.973-12.706.753-19.2.479-6.426-.271-12.954.108-19.2-.24-6.138-.342-12.191-1.439-18.24-1.439-6.636 0-12.962.261-19.199-.24 1-4.225 4.331-9.411 8.159-10.8 6.121-2.22 11.628-4.772 17.28-7.92 1.856-1.033 4.152-1.562 5.76-2.64 1.512-1.014 3.04-2.847 4.561-4.32 1.951-1.892 4.304-4.102 5.28-6.72 2.52-6.765-.496-16.586-1.2-24.48-.34-3.804-1.284-7.76-1.92-12-.614-4.097-.39-8.511-.96-12.72-1.079-7.959-3.357-15.506-4.561-23.04-1.23-7.708-3.196-15.189-5.04-22.32-5.688-.028-11.452 2.499-17.28 3.12-13.682 1.457-28.219-.043-42.479 0-1.077 11.674.96 22.987.96 34.8 0 13.433-.519 26.89-2.16 39.12-.599 4.467-1.146 8.959-2.16 13.44-.291 1.283-1.008 2.532-1.2 3.84-.895 6.073.313 12.41-.24 18.24-.803 1.9-3.322 3.824-5.76 5.52-2.084 1.449-4.82 3.106-6.72 3.6-1.576.41-3.77.28-5.76.721-8.142 1.801-17.828 2.663-27.84 1.92-4.247-.315-8.253.49-12 .24-3.556-.238-6.68-1.782-10.08-.721-1.69.528-2.521 1.693-4.08 1.92-3.217.47-7.341-.658-11.28-.479-3.832.174-7.283-.481-10.8-.48-1.428.001-2.713.623-4.08.721-4.787.34-9.74.139-14.64 0-3.526-.101-7.124.73-10.32.479-1.368-.107-2.737-.645-4.08-.72-4.874-.272-9.496 1.741-14.4.72-1.024-.153.729-1.229.72-1.92.201-.919.565-1.675 1.44-1.92 2.121-4.475 7.82-5.286 12.96-7.2 1.872-.697 3.795-1.978 5.76-3.12 1.862-1.082 4.048-2.103 5.28-3.359 1.329-1.355 2.43-3.875 3.6-5.761.993-1.6 3.041-4.117 3.36-6 .389-2.294-.237-5.863-.48-8.88-.232-2.879-.567-5.931-.96-8.399-1.797-11.287-3.06-21.639-4.32-33.12-1.001-9.122-1.363-18.599 1.92-25.2-8.746-4.989-14.468-13.021-20.88-20.4-6.439-7.411-9.832-17.658-13.44-27.84-2.796-2.083-5.888-3.267-8.88-4.56-3.12-1.349-5.415-3.447-8.16-5.28-10.551-7.046-18.702-17.059-25.44-28.32-3.522-5.888-4.285-13.206-6-20.88-5.971-4.352-22.042-2.436-30.24-1.2-9.331 1.407-17.444 2.183-24.96 4.561-7.753 2.452-15.327 4.888-22.32 7.439-3.566 1.302-6.961 3.146-10.56 4.32-3.621 1.182-7.382 2.233-11.04 3.601-6.168 2.305-11.467 5.719-16.8 8.399-5.506 2.769-10.076 6.726-15.12 10.08-2.607 1.733-4.96 3.689-6.96 5.76-2.105 2.18-3.23 4.761-5.04 7.44-1.739 2.575-3.852 4.777-5.04 7.68-1.193 2.916-1.713 6.007-3.6 8.88-3.489 5.313-9.675 9.629-16.32 13.2-9.92 5.333-22.21 10.3-35.28 5.04-1.042 4.74 2.16 11.564-.24 15.36-3.985.985-7.203-1.689-9.84-3.601-7.696-5.575-13.03-11.41-18.72-20.16-3.309-5.088-6.334-11.314-7.92-17.039-1.911-6.899-3.687-14.408-3.12-22.08.544-7.362 3.078-13.146 5.52-19.44 2.08-3.153 5.514-6.121 4.8-11.28-8.095-1.581-14.126-6.45-19.92-10.8-4.524-3.396-8-6.837-11.52-11.52-.925-1.23-2.929-2.62-2.4-4.56 1.642-1.387 4.028-.471 6-.48 7.279-.031 17.519 1.022 24.96-1.2 2.118-.633 4.072-.98 6.24-1.44 3.967-.842 7.509-3.027 10.8-4.56 7.062-3.291 12.418-7.977 18.24-12.48 5.247-4.059 10.232-9.87 14.64-16.08 2.023-2.851 4.148-5.585 5.76-9.6 1.283-3.196 4.18-7.948 4.08-11.04-.103-3.2-3.965-7.909-6.24-9.6-1.924-1.43-5.71-2.53-8.88-3.6-3.183-1.075-6.669-1.743-9.84-2.4-13.945-2.892-31.609-4.629-47.28-2.64-9.167 1.164-17.33 2.783-26.64 4.32-6.06 1-11.25 4.746-16.56 4.08-.405-3.179 3.219-5.51 5.76-7.2 2.844-1.891 6.092-3.572 9.12-4.8 6.364-2.58 13.05-5.85 19.2-8.4 13.577-5.63 29.483-7.395 47.76-6.96-2.306-1.456-5.371-1.323-8.16-1.68-8.023-1.029-17.804-1.684-26.88-.96-10.624.847-21.396 2.756-30.72 4.08-2.609.37-5.345 1.131-7.68 1.68-2.013.473-4.677 1.521-7.92 2.64-2.045.707-6.288 2.859-7.68 1.68-2.213-1.874 2.101-5.187 3.6-6.24 6.351-4.464 14.948-8.566 22.32-11.52 5.446-2.183 10.579-4.441 16.08-6.48 5.432-2.013 11.856-2.857 18.24-4.08 13.037-2.497 27.732-1.771 41.28-1.2 13.84.583 26.528 4.419 37.68 7.2 3.51-.887 6.315-1.18 10.08-.24 3.048.761 5.811 2.828 8.16 2.64 4.244-.339 7.711-5.343 10.08-8.88 2.668-3.984 4.921-8.082 6.96-12 2.185-4.198 4.365-8.314 6-12.96 1.58-4.486 3.629-9.193 4.8-13.92 3.872-15.631 3.458-34.296 2.88-52.32-.187-5.831.705-11.488 2.4-16.32 3.714.162 5.731 2.412 8.4 5.28 1.726 1.854 4.605 6.248 7.92 5.76 1.626-.24 3.425-3.919 5.28-6.24 1.384-1.731 5.115-6.308 6.72-6 3.659.701 5.62 6.2 7.44 9.6 1.153 2.155 2.308 4.932 3.36 5.52 3.89 2.175 6.967-1.816 9.6-3.84 2.271-1.745 6.553-5.569 8.88-5.28 4.517.562 5.541 11.862 7.44 15.84 1.091 2.285 3.693 5.643 6.24 6 2.356.331 5.514-.612 8.16-.96 2.342-.312 4.996-1.276 7.679-.243zm165.6 337.2c-1.965 11.92-3.854 23.139-6.48 34.079-1.976 8.233-4.266 16.279-5.76 24.721-.542 3.066-.368 6.207-.96 9.359-.625 3.326-2.962 7.403-2.16 11.521 3.733-2.018 8.496-2.272 12.72-3.84 4.223-1.568 9.577-4.312 11.28-7.681 1.622-3.208 1.971-8.954 1.68-12.96-.38-5.226-3.394-8.983-3.6-13.439-.191-4.149 1.191-8.42.96-12.48-.164-2.882-1.673-6.243-2.4-9.84-1.603-7.93-2.396-14.486-5.28-20.16v.72z" fill-rule="evenodd"/></svg>