<svg xmlns="http://www.w3.org/2000/svg" xmlns:dc="http://dublincore.org/documents/dcmi-terms/" height="506" viewBox="0 0 1284 506" width="1284"><metadata><dc:description>Silhouette of Triturus cristatus, processed by PhyloPic Tools (https://github.com/eweitz/phylopic-tools)</dc:description><dc:source>http://phylopic.org/image/f65e780a-f29a-48a5-9838-aa5a17ca596c</dc:source><dc:creator>Steven Traver</dc:creator><dc:license>http://creativecommons.org/publicdomain/zero/1.0/</dc:license></metadata><path d="M1284 491v2c-1.386 5.947-6.204 8.463-10 12-22.236-.418-34.837-12.411-49-25-23.254-20.67-45.782-45.184-70-66-2.612-2.245-5.61-3.824-8-6-2.42-2.202-3.692-4.927-6-7-3.494-3.139-8.073-4.165-11-7-5.069-4.909-8.799-12.479-13-16-6.283-5.264-14.44-9.31-22-15-41.004-30.867-92.074-56.401-141-81-8.374-4.21-16.145-9.523-24-13-4.068-1.801-9.085-2.265-13-4-10.514-4.661-21.98-11.46-33-16-1.929-.795-5.077-.305-7-1-9.275-3.354-19.262-10.177-29-15-4.959-2.456-10.009-4.653-15-7-11.659-5.483-18.114-7.357-28-16-1.893 1.774-6.604.729-10 1-2.753 2.375 1.603 6.058-1 9-4.69 7.31-13.803 10.197-18 18-12.214 2.159-23.145 17.549-36 7-2.539 3.509-3.56 8.876-4 13-.968 9.066 2.093 18.803 0 26 5.706 20.627 19.411 33.256 23 56 3.301 4.848 8.042 10.215 14 17 6.453 7.348 17.986 14.751 11 23-7.918-.184-12.385 1.199-18-2-7.076-4.031-9.127-15.086-18-14-8.979 1.1-6.502 11.215-6 22 .312 6.701-1.149 14.66-1 19 .587 17.001 8.3 37.059 3 51-26.769 4.687-18.177-51.828-28-69-11.894 5.56-15.969 22.09-23 35-4.806 8.822-8.244 17.771-14 25-.15 12.066-3.709 23.031-16 20-6.108-4.96-1.601-11.328 0-17 .515-1.822-.635-4.222 0-6 2.806-7.861 8.53-15.441 12-24 3.582-8.836 6.618-17.653 11-25-2.536-7.223.975-10.64-3-18-14.064-.063-20.795 7.205-31 11-1.444 1.223-1.517 3.816-3 5-7.086-1.096-13.049 13.472-20 12-2.212-.469-4.861-2.548-5-7-.157-5.033 4.536-6.478 10-12 4.396-4.443 7.708-10.693 12-14 7.906-6.091 18.206-7.602 21-12-.813-6.894 3.141-5.242 2-10-2.902-12.1-30.959 1.793-32-9-.411-4.263 12.354-11.39 14-12 4.772-1.769 10.596-.849 15-2 9.034-2.361 14.938-7.482 22-9 4.007-13.617-1.808-19.037 0-32 .698-4.365-2.887-4.446-3-8 .82-13.427-3.442-22.852-8-32-2.067-4.149-3.736-9.128-6-12-1.634-2.072-6.611-1.86-5-6-5.464 2.231-8.909 1.956-12-2-2.323.677-2.677 3.323-5 4-13.649-1.034-25.175 9.314-39 10-8.181.406-15.817-.872-27 1-3.703.62-7.431 3.359-11 4-13.878 2.491-28.195.112-42 2-9.796 1.34-20.168 6.141-30 9-9.894 2.877-19.843 6.141-29 9-20.131 6.286-40.844 9.981-56 21-8.694-1.719-16.402 6.042-24 8-4.408 1.136-8.658-.156-13 1-6.139 1.635-10.65 4.809-14 10-3.059-.726-2.941 1.726-6 1-5.467 6.239-19.807 9.981-29 14-9.486 4.146-18.964 6.488-22 16-2.472 7.742-.472 16.202-3 23-.729 1.959-3.61 4.591-5 7-4.013 6.958-6.362 14.363-9 25-1.968 1.983-5.712.637-8 0-5.067 4.934 3.17 23.17-8 22-4.644-1.689-3.19-9.477-5-14-7.91 2.189-13.514 6.83-21 10-6.994 2.961-14.393 6.059-23 8-.667-5.332-4.217-7.783-4-14-9.278.389-15.549 3.785-24 5v-5l-3-4c10.76-6.573 20.389-14.277 35-17 8.241-9.76 22.669-13.331 36-18 1.619-3.714.831-9.836 1-15-9.757-1.864-20.449.581-31-1-10.873-1.63-21.425-10.353-33-9-1.792 6.875-7.688 9.646-13 13 1.927 7.276-8.5 11.363-10 23-1.14 8.84 5.052 21.188-4 22-6.437.577-7.646-9.213-6-16-4.783-.256-10.798 3.843-16 7-4.958 3.009-10.358 5.844-15 9-1.3.884-4.157 2.89-6 5-3.574 4.093-5.43 12.435-11 11-11.192-2.883 2.938-21.347 8-26 4.795-4.407 10.331-6.034 14-11-9.517-.85-17.272.666-25 2-3.211.555-7.815.348-10 1-6.33 1.89-8.829 8.507-15 9-6.975-3.59-2.421-12.653 0-15 5.955-5.773 23.797-6.057 35-11 5.834-2.574 9.934-5.937 13-9-4.899-1.18-9.338 2.222-14 3-15.378 2.567-33.352-.188-50-1-13.415-.654-20.605-1.362-32-5-12.131-3.872-20.652-9.579-31-14-3.555-10.445-10.893-17.107-14-28v-2c.605-11.658 7.179-16.726 15-23 2.603-2.088 4.093-4.862 6-6 4.801-2.864 9.152-2.601 13-5 3.942-2.458 8.444-6.433 11-10 2.989-4.172 5.032-10.793 11-14 14.144-4.675 25.757 5.364 36-3 3.156-.489 3.531 1.802 7 1 7.451-2.648 8.911-19.744 17-21 6.712-1.042 7.28 4.529 13 8 5.893.893 5.683-4.317 10-5 6.584-.973 11.579 2.31 15-1 5.706-13.627 16.771-21.896 30-28 .971-13.695 12.064-17.269 14-30 1.71.044 2.59-.743 3-2 6.36-.693 8.651 2.682 13 4 7.312-5.688 10.252-15.748 11-28 12.223.34 27.663 21.778 37 7 3.001-4.75 1.985-13.308 4-21 2.791-10.657 8.624-18.153 13-24 8.936 1.731 12.601 8.732 21 11 13.478-6.94 5.917-31.377 16-38 11.048-7.257 18.629 9.535 30 11 .943-11.172 8.467-16.987 13-25 3.735-6.604 3.627-14.252 9-20 4.487-1.363 4.855 4.027 3 6 5.28-4.837 2.505-14.926 10-15 5.265-.052 4.053 5.906 9 9 5.118-.882 3.625-8.375 4-14 2.542-4.792 6.84-7.827 11-11 12.329 9.005 21.788 20.879 34 30 8.464-4.401.536-19.909 13-21 1.958-9.042 2.13-19.87 12-21 .025 13.371 10.934 22.545 17 33 7.484-7.516 14.02-15.98 21-24 8.815-.185 10.382-7.618 20-7 .755 5.061-11.934 9.76-7 19 3.975-4.025 4.441-11.559 9-15 8.554 1.887 8.372-4.962 16-4 5.067 2.697 5.226 8.937 8 13 4.346 6.365 10.736 8.687 17 13 8.634-6.366 15.902-14.098 25-20 3.311-5.689 5.672-12.328 14-13 .374 9.374-4.591 13.409-3 24 3.769-.376 15.404-6.408 23-3 1.458 10.209 1.619 21.715 5 30 9.146-3.52 8.736-16.597 16-22 4.113 1.698 5.739 7.2 8 11 4.574 7.689 7.75 14.742 11 26 12.229-1.105 11.923-14.744 24-16 3.857 11.642-3.494 20.418-7 28 2.825 7.715 11.953 6.656 23 8 4.733.576 9.787 2.34 13 2 7.279-.77 17.251-7.839 29-9 10.62-1.049 22.632.979 32-1 15.424-3.26 27.05-15.084 42-8 7.124-3.502 23.794-9.141 29 0 8.831-8.154 27.146-5.398 31 5 8.629-3.704 18.372-6.294 31-6 4.348 2.986 6.873 7.793 11 11 11.213-4.242 28.924-4.713 32 7 8.812-3.437 10.854 5.745 17 8 7.68-6.847 17.674-4.571 24 2 4.832-.167 5.373-4.626 11-4 4.188-.188 3.243 4.757 5 7 6.677 1.656 12.054 4.613 14 11 14.455 2.878 24.767 9.9 24 28 17.222.778 31.385 4.615 39 15h11c2.786 2.88 5.078 6.255 6 11 10.002.067 14.331 8.042 23 16 11.739 10.776 22.616 22.114 33 35 9.816 12.181 22.727 25.231 30 39v7c6.152 10.64 16.65 19.887 23 32 3.127 5.965 4.884 12.66 8 19 2.846 5.791 7.46 11.234 10 17 2.459 5.582 3.543 12.055 6 18 6.487 15.694 14.345 31.756 20 50 7.934 25.594 23.258 52.437 20 81 1.268 4.066 3.229 7.438 6 10z" fill-rule="evenodd"/><path d="M183.5 418.5c1.605-7.046 7.36-12.074 13.5-15.5" fill="none" stroke="#000" stroke-width="8.7" stroke-linecap="round"/></svg>