<svg xmlns="http://www.w3.org/2000/svg" xmlns:dc="http://dublincore.org/documents/dcmi-terms/" height="432" viewBox="0 0 720 432" width="720"><metadata><dc:description>Silhouette of Troodon formosus, processed by PhyloPic Tools (https://github.com/eweitz/phylopic-tools)</dc:description><dc:source>http://phylopic.org/image/b50c893f-8a76-4cd2-9e03-4514fc1cbc80</dc:source><dc:creator>Raven Amos</dc:creator><dc:license>http://creativecommons.org/publicdomain/mark/1.0/</dc:license></metadata><path d="M93.84 105.36c-.668 2.612-4.594 4.045-4.56 8.16 1.874-1.298 2.114-3.89 4.32-5.04 1.064-.555 2.904-.781 4.32-1.44 1.221-.568 2.283-1.698 3.6-1.2-.862 1.058-2.965.875-2.88 2.88 2.372-.444 4.575-3.13 7.68-2.4-.746 1.014-2.452 1.068-3.12 2.16 1.852.25 3.505-1.772 5.76-1.92-.076.564-1.138.142-.96.96 1.427.665 3.892-.854 5.52 0 1.15.084-.513.719-.48 1.2 2.444-.301 5.124-.417 6.96.48-.441.833.276 1.7 1.92 1.68.014.894-1.068.692-1.92.72 1.536.78 4.713.101 6 1.68.04.68-1.479-.199-1.44.48.488.553 1.436.644 2.4.72 1.107 2.333 3.242 3.638 3.6 6.72 4.987 3.732 8.699 8.741 10.32 15.84.167.713.788.972 1.2 1.44.725 16.562 9.434 24.368 28.08 23.28 3.615-.21 5.995-1.928 8.88-2.88 2.311-.762 5.35-.982 8.4-1.68 2.681-.613 5.519-1.065 8.4-1.44 5.758-.75 11.854-2.222 17.28-2.64 5.075-.391 10.061-.168 15.12-.96 3.335-.522 6.462-1.866 9.84-2.16 7.757-.677 15.336-2.146 23.04-3.12 12.297-1.556 23.962-1.487 35.76-.24 2.143.226 4.151 1.25 6.24 1.68 4.266.877 8.643 1.369 12.96 2.4 6.525 1.559 12.576 3 19.92 4.32 5.826.573 12.691 2.404 19.44 2.88 1.727.122 3.583-.143 5.28 0 6.005.507 11.34 2.004 18 2.4 4.521.269 8.91 1.582 13.44 2.16 4.886.625 10.102.762 15.12 1.2 15.982 1.394 32.517 2.215 50.16 3.12 10.979.563 21.978 2.584 32.64 3.36 5.528.402 10.981.48 16.32.48 10.919 0 21.652 1.18 32.399 1.68 7.354.342 14.065 1.767 20.4 3.6 1.378.399 3.841.179 5.76.48 11.38 1.787 22.438 3.247 34.8 4.8 8.324 1.046 17.945 1.438 25.92 3.36 11.748 2.831 23.72 4.586 33.84 9.12 6.395 1.125 11.931 3.11 17.28 5.28-3.266 5.028-13.472 9.426-20.16 5.76.222 2.54 1.882 7.256-.479 10.56-.619.867-3.956 3.985-5.04 4.56-1.712.908-5.255 1.95-7.68 2.16-4.54.393-6.329-2.02-9.841-3.6-.792-1.849-1.061-4.219-4.319-3.601-.545-1.055-.686-2.514-1.2-3.6-.779.139-1.116-.164-1.68-.24-1.569 1.767-.269 5.097-.96 7.92-1.176 4.8-6.002 5.237-10.801 7.2-6.132-1.228-11.854-2.865-14.159-7.92-1.963.837-2.501 3.1-3.12 5.28-4.299 1.662-9.687 4.592-14.88 3.84-3.21-.465-4.191-3.588-7.2-4.08-.747-1.254-1.703-2.298-2.16-3.84-.208 2.433-2.289 2.99-2.4 5.52-2.993 2.075-6.882 1.771-12 1.68-2.114-1.337-3.1-2.411-5.52-2.159-1.812.188-3.867 1.695-5.76 1.92-1.733.205-3.384-.424-4.801-1.2-2.056.559-4.239 2.554-6.72 2.88-4.168.548-6.389-1.614-8.4-4.08-2.641 2.896-10.128 2.88-12.239-.479-3.892 1.709-11.241-.082-11.521-5.04-1.692 1.216-2.089-1.443-3.6-1.681-1.612-.252-2.748.981-4.08 1.92-2.447-.753-5.187-1.214-7.44-2.16-.316-1.843-.955-3.365-1.92-4.56-1.321.359-1.001 2.358-1.68 3.36-5.936-1.38-11.204-4.603-17.04-6.48-8.839-2.842-17.592-6.644-25.92-10.56-2.724-1.281-5.522-2.814-8.16-3.84-3.67-1.428-8.183-3.416-11.76-3.84-2.584-.306-5.207-.144-6.72.72-10.576-.093-21.702 3.275-32.4 2.4-5.784-.473-13.186 2.051-19.44 2.16-1.711 3.311-10.055.442-11.04 4.08h-1.92c-1.088 1.952-4.634 1.446-6.48 2.64.023.937 1.651.269 1.68 1.2-.103 1.337-1.912.968-3.12 1.2-.556.261 1.173.98.24 1.68-2.022.589-3.918-.162-6 .24.819 1.021 3.052.628 4.08 1.44-1.109 2.171-4.071 2.489-6 3.84.769.621 2.115-.768 3.12 0 .063 1.183-1.507.733-2.16 1.2-1.259 1.381-2.449 2.831-4.08 3.84.417.623 1.639.44 1.44 1.68-.512 2.208-3.678 1.762-4.8 3.36-4.34.46-9.649-.05-12 2.399-6.57 1.83-13.274 3.526-17.76 7.44.316 5.196-1.686 8.073-1.92 12.72-3.243 2.917-2.81 9.51-3.6 14.88.253.893-.809.471-.96.96-.097 1.137.429 1.652.24 2.88 3.342 2.002.484 7.619 3.12 10.561.286 1.006-1.012.429-1.2.96.384 2.608 3.931 7.466 0 8.64-3.199 8.245-9.832 16.363-9.84 27.601-.001 1.694.469 3.358.24 5.04-.299 2.195-2.215 5.029.96 6 .485 2.791.057 5.289-.48 7.68-.652-.308-.691-1.229-1.44-1.44-.006-3.993-3.016-4.983-4.32-7.68-4.746 1.589-7.704 6.222-8.4 11.76-.274 2.182-.193 3.626-1.44 5.04-1.102.099-1.996.404-2.64.96-7.933-1.823-18.45 2.287-24.96-.479-1.724.436-3.844.476-4.8 1.68-.646-.283.001-1.251 0-1.68-2.486-.378-4.687 1.35-8.16.96-1.135-.128-2.282-1.068-3.84-1.2-1.75-.148-3.46 1.073-5.28 1.2-1.322.092-2.487-.616-3.84-.72-2.213-.17-8.425.162-10.32.96-.966.406-1.42 1.497-2.4 1.68-1.391-.382-.773-4.045 0-4.56-1.866-.103-3.561 3.315-5.28 3.359-1.199-2.871.681-5.697 2.16-6.96.777-.663 2.835-1.921 4.08-2.16 1.964-.377 3.673.583 5.76.721 5.034.33 10.74-1.409 13.44-3.601 2.666.305 4.983-3.121 6.48-5.76 1.792-3.16 1.432-11.27-4.32-8.16 1.121-4.59 12.128-2.829 9.12 4.32 2.046-1.28 2.895-3.593 4.56-5.521 1.537-1.778 3.687-3.022 5.28-4.8 4.333-4.835 7.742-10.618 10.32-17.04-2.08-.56-2.654.888-4.8.96-.935-.985-.291-3.549-.48-5.28-.407-.473-1.116-.644-1.92-.72-4.983-12.106-11.002-22.53-17.28-33.84-2.835-5.107-7.03-9.901-10.08-15.6-1.407-2.629-2.527-5.708-4.08-8.641-2.331-4.399-4.223-7.832-5.04-13.44-.656-.383-1.586-.494-2.64-.48.656 1.074 4.035 4.412 1.68 7.68 3.785 2.08.985 9.536 4.08 12-.222.419.008 1.289-.72 1.2 5.15 2.051 4.278 10.122 5.04 16.561-1.22-.46-1.872-1.488-2.88-2.16.374 1.467 1.695 1.984 2.4 3.12 1.346 5.93.812 12.259-.96 17.279-.477.4-.305-.021-.96 0 .606 2.162-1.23 3.864-1.92 5.521-1.955-.525-2.037-2.923-2.64-4.8-.48.32-.031 1.568-1.2 1.2-.422 1.817-.124 4.355-1.68 5.04-1.435.148-1.669-2.163-1.44-2.881-1.894-4.646-5.195-9.866-6.72-16.08-.154 2.486-1.127 4.153-2.4 5.521.872-3.021-.929-4.772-1.68-7.2-.282-.912.008-1.969-.24-2.64-.514-1.392-2.06-2.101-2.64-3.36-.517-1.122-.281-2.506-.72-3.84-.668-2.028-2.038-3.849-2.88-6-.821-2.098-1.538-4.348-2.88-6 .471 3.269.362 6.968-.96 9.12.441-5.332-5.457-7.038-3.36-11.76-2.717-1.131-2.622-4.341-4.08-6.48-.753-1.104-2.333-1.542-3.12-2.64-1.652-2.302-2.449-5.958-6-6-1.167-1.21-2.496-3.215-1.44-5.28-15.803-.469-21.652-7.659-29.04-16.56-1.243-1.497-2.887-4.02-4.08-4.56-3.339-1.51-7.502-.176-11.04-.48-.254 1.694.487 2.394.72 3.6-1.179-1.141-1.524-3.115-2.4-4.56-.379 1.583.679 3.798 1.44 5.04-.399.613-.645-.937-1.44-.72.085 1.194.838 1.722.72 3.12-3.954-2.553-5.201-5.129-7.92-9.84-.336 3.378 2.485 5.674 3.84 8.16-2.857.438-3.854-3.011-5.04-5.04-.858.203.617 1.237-.24 1.44-2.745-2.615-4.669-6.051-6.24-9.84.229 3.292 2.557 6.562 3.36 10.08-2.183-1.577-2.539-4.981-3.6-7.68-.086 3.854 3.04 7.83 4.08 10.56-1.933-.87-2.521-2.337-4.08-3.12-1.281-1.994-1.745-5.831-3.36-6.72-.183 2.665 1.355 5.684 2.64 7.68-2.908-.533-3.58-5.379-4.32-8.88-.242-.293-.415.514-.96-.24-.509-1.491-.763-3.237-.96-5.04-.61 1.734-.08 4.397 0 6.24-1.819-2.421-.431-8.05-1.2-11.52-1.644 2.13-1.049 7.46-.96 10.56-2.526-3.044-1.034-9.541-.72-13.92-.024-.463-.895.373-1.2-.24-1.044 4.556-2.023 9.177-4.08 12.72.064-3.478 2.242-8.129 1.68-12.24-1.986 2.254-1.488 6.992-2.88 9.84-1.144-3.705 2.232-7.991.24-11.04-1.091.509-.061 3.14-1.44 3.36-.401-1.965.87-4.12-.24-5.28-1.165.355-.702 2.338-.96 3.6-.727-1.273.339-4.338-.72-5.28-.29.925.321 3.505-.24 4.8-.883-.373.107-2.248-.24-3.6-.814 1.026-.83 2.85-1.92 3.6-.537-1.232 1.92-4.384 0-5.52-1.168 1.631-.623 4.978-2.88 5.52-.64-.815.566-1.388.72-2.16-.739-.179-.461.659-1.2.48.032-1.385.352-1.192.48-2.64.09-.509-1.299 1.473-1.44 0-1.033-.564 1.189-1.785 1.2-2.88-3.176-3.405-12.129-1.302-18.72-.48-4.981.622-9.138.799-10.32-2.88 9.196-3.523 19.759-5.681 27.84-10.32-1.125-.381-2.742.098-3.84.48-3.485 1.212-7.804 3.15-12.48 4.56-2.009.605-4.456 1.203-6.72 1.92-3.239 1.026-5.675 3.486-8.4 1.44-.376-3.79.992-9.035 5.04-8.4 3.641-2.599 7.756-4.724 11.52-7.2.169-.825-.005-1.675 1.2-1.92-.039-.281-.438-.202-.72-.24 1.212-1.163 1.516-2.479 3.84-2.88-.196-.583-1.265.476-1.68-.24 4.8-1.919 7.849-5.591 11.52-8.64-.748-1.892-1.164-4.116-.96-6.96.619.181-.175 1.775.72 1.68.545-.255.091-1.509.24-2.16.284-.276.848-.271 1.44-.24.988-3.972 2.042-7.878 4.56-10.32-.283 2.518-2.82 4.858-2.64 8.64 1.659-3.062 2.807-6.633 4.56-9.6.771-.21.498.623.96.72 1.585-.975 2.846-2.275 4.321-3.36zm176.4 174.24c.317 3.938.332 9.381-.72 12.721-.758.118-.089-1.191-.96-.96-1.138 2.995-3.236 4.469-5.28 6.72a98.784 98.784 0 0 0-4.08 4.8c-2.536 3.178-6.279 5.681-7.44 10.08 5.93-2.866 8.608 3.819 7.44 9.6 1.03 2.456 4.514 1.083 6.24.24 3.758-4.103 6.856-8.543 9.36-15.12 2.066-5.426 5.675-10.729 6.24-16.08.138-1.302.399-3.714-.72-4.8-.111.341-1.739.208-1.68.48-1.227-.511-.566 2.738-2.4 2.399-.668-2.211-.875-4.886-1.68-6.96-1.267.653-.975 2.865-1.92 3.84-.05-3.869-.1-7.74-1.44-10.319.205 1.645-.111 2.768-.96 3.359zm-20.64 47.52c-.146-1.534-1.22-2.14-1.44-3.601-3.057 2.224-5.225 5.336-7.2 8.641 3.653.477 6.229-1.096 10.32-.48 1.675-.725 2.693-2.106 4.8-2.399-.272-2.055-.27-3.782-.72-6-.129-.639-.67-1.093-.72-1.681-.273-3.229 1.091-6.182-2.64-6.72.944 4.209.868 10.731-2.4 12.24z" fill-rule="evenodd"/></svg>