<svg xmlns="http://www.w3.org/2000/svg" xmlns:dc="http://dublincore.org/documents/dcmi-terms/" height="365.122" version="1.2" viewBox="0 0 731 365.122" width="731" overflow="inherit"><metadata><dc:description>Silhouette of Tupuxuara leonardii, processed by PhyloPic Tools (https://github.com/eweitz/phylopic-tools)</dc:description><dc:source>http://phylopic.org/image/f73d4154-8125-4c3e-9936-f98c0a321615</dc:source><dc:creator>Dmitry Bogdanov (modified by T. Michael Keesey)</dc:creator><dc:license>http://creativecommons.org/licenses/by-sa/3.0/</dc:license></metadata><path d="M0 365.122c9.53-21.471 63-71 63-71l74-80s60.588-54.799 93-73c11.689-11.645 26.684-19.982 48-22-20.456-12.544-44.647-21.353-66-33-12.686 1.3-21.846 8.313-34 7-3.659-.396-9-4-9-4s-15.906-2.48-23-7c-4.439-2.828-10.652-8.204-18-10-.343-3.677 6-4 6-4s-6.164.831-6-2c8.556-4.753 14.858-6.074 26-8 24.594-4.251 64-32 64-32s22.436-8.797 35-13c33.709-11.276 93.902-22.792 127 0 4.652 9.681 11.187 17.48 13 30-6.06 11.179-10.092 38.392-21 43-16.482 6.963-31.796-20.703-51-9 8.132 10.759 23.427 15.289 35 23 6.375 4.248 12.295 9.166 18 15 65.936 11.73 123.094 32.24 174 59 58.002 31.666 89.658 64.617 129 96 5.792 7.208 45.776 37.224 54 51-8.557 1.547-62.492-29.175-84-37-17.948-17.386-60-46-60-46s-42.293-25.041-61-40c-2.545 1.727-3.878-1.523-4 2-3.961-3.309-8.13-5.7-11-7-23.076-29.568-58.872-37.457-102-41 4.273 9.393 17.615 9.719 27 14 14.665 11.335 28.413 23.587 48 30 13.25 5.75 12.325 15.195 24 20-.664 5.997 5.933 4.734 5 11-11.966-2.034-13.61-14.39-21-21-7.547-.038-21.717-7.007-29-10-49.107-20.183-143.722-37.836-201-5-1.017-.649-1.034-2.299-3-2-12.439 5.561-19.01 16.99-29 25-1.907 1.877-1.81-.594-5 0-26.776 22.224-105.29 85.601-112 91-1.992 1.603-23 18-23 18l-40 29s-33.932 10.974-50 13z" fill-rule="evenodd"/></svg>