<svg xmlns="http://www.w3.org/2000/svg" xmlns:dc="http://dublincore.org/documents/dcmi-terms/" height="1500" viewBox="0 0 1500 1500" width="1500"><metadata><dc:description>Silhouette of Tyto alba, processed by PhyloPic Tools (https://github.com/eweitz/phylopic-tools)</dc:description><dc:source>http://phylopic.org/image/088bc660-44e4-4717-b5fc-13ee15ade62b</dc:source><dc:creator>Sharon Wegner-Larsen</dc:creator><dc:license>http://creativecommons.org/publicdomain/zero/1.0/</dc:license></metadata><path d="M238.724 539.333c.918 4.507 1.818 9.025 2.686 13.542 10.04 52.125 33.96 103.463 49.53 154.389 6.419 20.98 14.426 41.458 20.04 62.681 2.776 10.474 4.983 21.115 6.059 31.916 1.375 13.751 3.03 27.54 2.404 41.455-.337 7.613-1.508 7.111-8.232 11.881-14.888 10.553-28.684 19.821-41.646 32.784-12.804 12.793-25.542 25.744-40.864 35.575-12.698 8.147-23.295 19.833-34.85 29.473-11.903 9.928-21.836 22.755-30.474 35.441-7.585 11.149-13.095 18.897-12.928 32.298.172 13.279-8.444 24.587-9.1 38.923-.75 16.307 1.129 27.039 8.007 41.813 8.621 18.51 19.382 34.936 30.48 52.075 7.828 12.096 16.419 24.574 28.25 34.445 9.826 8.215 19.884 15.748 29.473 24.083 9.517 8.276 19.742 11.094 31.273 15.599 12.597 4.916 26.275 5.033 35.813-5.113 10.394-11.082 18.221-21.42 32.76-27.197 12.254-4.865 24.653-10.992 36.016-17.503 8.324-4.763 25.531-11.329 30.07-20.293 7.314 5.788 15.445 10.17 23.677 14.742 23.808 13.222 46.923 25.373 73.31 31.894 9.459 2.343 19.325 4.258 28.914 5.771 11.336 1.797 23.002-.399 34.208 2.652-2.974 7.286-2.511 23.053.496 30.328 4.229 10.282 15.276 9.087 24.393 11.842-.603 4.68 1.981 8.374 6.627 9.083-5.277 8.75-10.828 17.22-13.672 26.68-3.007 10.034-3.918 20.959-9.077 30.237-5.485 9.877-13.592 21.467-13.423 33.572.19 12.905 11.801 28.739 21.419 37.4 3.552 6.492 3.925 14.528 10.75 19.19 6.256 4.268 14.859 3.43 22.658 3.558-6.736-8.203-7.376-17.629-11.645-27.229 15.169-6.864 21.556-23.036 16.351-38.72-2.623-7.895-8.232-13.164-12.539-19.719-4.887-7.427-2.781-13.876-4.641-22.501-.292-1.352 27.315-28.689 30.791-31.793 2.14 3.514 6.617 6.126 10.765 4.145-2.251 8.155 1.607 15.064 3.176 22.648 2.342 11.239 1.318 24.359-1.998 35.267-7.917 25.998 3.699 54.49 6.369 81.146 1.329 13.381 3.48 22.322 13.402 31.107 7.381 6.564 19.308 11.307 25.547 17.421.376-9.83-7.822-17.535-6.707-27.039 3.441 2.962 7.873 7.264 12.647 7.41 4.825-9.403 9.088-19.213 5.124-29.664-3.728-9.819-15.581-18.052-17.581-27.243 10.372-1.266 15.276-13.975 14.319-22.86-1.024-9.618-8.406-15.091-13.215-23.031-5.659-9.324-1.07-20.327-.545-30.74.568-11.594.253-22.161.899-33.645 11.027 4.123 36.124 8.943 43.528-3.097 9.342 10.778 18.149 14.395 33.117 13.717 9.803-.438 34.021-3.186 35.39-15.551 10.405 5.873 48.031 8.063 51.94-9.056 4.701 2.691 17.139 4.325 22.057 2.366 6.942-2.771 6.497-11.286 12.354-14 6.863-3.176 16.606.09 23.712-3.502 8.468-4.268 6.459-11.037 6.892-19.438 13.577.867 15.953-16.973 9.55-25.497-3.704-4.944-8.952-6.824-13.789-10.057-5.446-3.627-9.82-8.471-15.058-12.129-8.88-6.206-20.751-13.233-30.205-17.58-10.389-4.764-21.318-6.814-31.426-12.433-13.215-7.344-26.521-14.832-39.242-23.014-14.483-9.309-22.01-18.577-32.119-32.059-8.75-11.667-18.903-23.66-28.817-34.741-7.811-8.74-19.293-13.492-26.923-22.244-1.453-1.665-18.896-20.495-19.898-16.283 1.277-5.395-1.566-9.579 1.323-14.325 2.027-3.311 6.972-5.384 9.269-9.269 3.79-6.465 6.184-16.33 3.176-23.537 14.252-.879 48.324-4.843 32.254-27.057 13.098-7.895 29.082-5.749 42.985-12.731-1.655-7.062.704-12.4-4.269-18.83 25.812.688 63.568-1.369 71.847-29.727 18.04 1.685 24.839-12.551 37.191-19.646 12.438-7.151 26.061-8.649 37.125-17.242 9.613-7.467 20.058-16.927 29.596-22.299 11.572-6.521 29.697-3.209 29.473-22.421 8.789.349 16.414-1.51 23.913-5.745-.324-3.429 1.195-8.086.789-11.554 11.859-3.355 68.985-5.767 65.657-27.423 9.702-1.689 16.334.417 25.366-3.446 7.237-3.086 14.314-7.274 21.252-11.689 7.939-5.057 16.432-11.101 13.362-21.26-2.538-8.396-10.373-8.19-16.96-12.309 13.773-4.657 30.565-4.617 45.172-6.803 8.507-1.258 15.766-3.232 23.706-5.603 10.602-3.164 70.685-25.772 40.469-40.255 14.522-4.031 108.938-56.135 65.556-69.404-1.802.089-1.823.18-.073.264 11.021-4.733 70.24-44.785 32.671-50.027 7.726-8.993 69.356-46.383 32.675-56.231 19.811-9.224 22.868-36.048 1.983-45.154 30.283-35.019-9.478-42.047-36.369-21.458 8.309-7.593 25.034-24.719 12.083-35.553-8.615-7.202-32.131 7.734-42.373 7.756.227-7.937-4.167-9.668-5.738-16.486-39.122 4.177-83.078 33.585-115.828 56.466-36.849 25.75-72.92 56.213-111.081 79.493-64.013 39.044-128.55 72.723-190.207 113.868-31.454 20.992-56.507 43.708-84.036 68.518-17.986 16.206-28.554 13.015-49.474 19.764-36.072 11.645-59.875 50.281-90.319 70.445 5.552-3.676-6.048-61.934-23.167-54.845.653-14.462 2.116-26.203-3.581-40.038-2.315-5.636-11.538-15.798-16.572-19.209-3.846-2.582-9.505-3.218-12.016-7.203 11.295-6.909 12.332-19.925 8.739-31.508-2.208-7.12-11.729-20.839-20.118-21.368 12.664-8.588-5.755-35.394-10.796-44.552-20.345-36.964-27.618-81.244-54.006-115.077-9.555-12.256-25.147-21.642-31.757-36.612-8.182-18.562-7.924-38.135-13.042-57.407-2.314-8.723-4.217-16.656-10.433-24.098-6.393-7.649-11.746-9.395-14.49-18.841-7.911-27.214-2.511-55.13-19.262-80.211a211.497 211.497 0 0 0-6.589-9.312c-4.707-.584-7.685-3.353-12.647-3.821-.315-.029-8.208-39.743-9.291-42.979-3.041-9.128-16.881-40.276-31.15-30.151 4.596-3.252-2.86-30.883-4.258-35.622-2.781-9.378-6.329-18.531-9.746-27.709-3.846-10.325-9.184-17.38-20.778-19.776-5.569-1.149-15.378 1.495-20.571-.82-5.382-2.41-7.702-12.75-11.599-18.139-6.391-8.844-18.278-16.375-29.405-16.635-33.509-.805-58.814 31.508-72.661 58.354-24.968 48.387-18.053 114.373-10.097 166.325 2.624 17.151 5.383 33.464 8.672 50.614 2.973 15.524 5.732 30.907 8.643 46.354 2.658 14.094 5.603 28.112 9.427 41.956 6.249 22.609 10.051 46.298 15.732 69.182 6.47 26.05 12.658 52.177 18.024 78.48z"/></svg>