<svg xmlns="http://www.w3.org/2000/svg" xmlns:dc="http://dublincore.org/documents/dcmi-terms/" height="502.357" viewBox="0 0 828.39309 470.96015" width="883.619"><metadata><dc:description>Silhouette of Uintatheriini, processed by PhyloPic Tools (https://github.com/eweitz/phylopic-tools)</dc:description><dc:source>http://phylopic.org/image/5fe1c8ef-f7c4-47ff-9cc0-b528107fde98</dc:source><dc:creator>Zimices</dc:creator><dc:license>http://creativecommons.org/licenses/by/3.0/</dc:license></metadata><path d="M625.554 470.225c-1.031-.468-3.418-1.896-5.303-3.175-2.34-1.587-4.48-2.062-6.737-1.495-2.583.648-4.09.08-6.884-2.596-5.3-5.078-4.677-8.339 2.634-13.797 10.622-7.93 11.88-17.398 7.033-52.956a16141.73 16141.73 0 0 1-5.064-37.456c-1.834-13.772-4.108-20.266-9.634-27.51-1.83-2.4-4.498-7.707-5.927-11.792-1.428-4.085-3.134-7.964-3.79-8.62-2.064-2.064-12.73-1.49-25.9 1.393-12.153 2.66-15.252 2.777-72.5 2.738-32.891-.022-63.74-.573-68.553-1.223-4.813-.65-16.625-2.045-26.25-3.1-9.625-1.054-18.74-2.195-20.254-2.535-4.269-.96-8.674 4.881-12.745 16.899-4.851 14.32-15.377 41.837-19.622 51.296-3.343 7.448-3.404 7.973-1.948 16.641 2.564 15.259-.153 20.787-10.82 22.014l-5.861.674v30l-6.25 2.133c-8.011 2.734-26.635 3.071-27.622.5-.392-1.022-3.436-2.086-7.373-2.578-3.688-.461-7.376-1.646-8.196-2.634-.82-.988-2.526-1.796-3.793-1.796-2.832 0-5.292-4.268-4.287-7.435.41-1.288 2.053-3.2 3.654-4.249 1.601-1.049 4.392-4.433 6.202-7.522 2.75-4.693 3.287-7.116 3.272-14.767-.012-5.667-.706-10.342-1.823-12.277-3.343-5.792-6.544-13.08-9.334-21.25-3.06-8.961-6.058-16.794-13.696-35.777-4.29-10.666-5.287-14.884-6.349-26.875-.692-7.823-1.263-15.135-1.27-16.25-.005-1.115-3.56-6.79-7.9-12.61-4.338-5.82-8.653-12.5-9.587-14.847-.934-2.346-3.502-6.797-5.707-9.891-2.204-3.094-5.56-8.719-7.455-12.5-1.896-3.781-4.978-9.125-6.848-11.875-4.047-5.949-5.68-10.872-7.344-22.144-.682-4.617-3.2-12.774-5.595-18.125-2.395-5.352-5.194-11.7-6.219-14.106-2.289-5.372-12.039-15.375-18.893-19.385-2.798-1.636-9.306-4.74-14.462-6.898a9082.574 9082.574 0 0 1-16.856-7.074c-4.115-1.733-10.099-5.344-13.299-8.022-6.408-5.366-7.576-5.73-9.794-3.058-.827.997-4.544 3.528-8.259 5.625-6.532 3.686-7.27 3.812-22.398 3.812H74.304v3.66c0 5.08-5.294 9.134-11.241 8.608-2.898-.256-6.417.648-10.095 2.593l-5.646 2.985-5.754-2.545c-4.616-2.042-6.598-3.99-10.026-9.86-4.82-8.253-8.547-10.832-13.134-9.088-5.585 2.123-11.511 1.353-14.786-1.921-2.969-2.97-3.078-3.706-3.366-22.813-.51-33.797-.55-33.223 2.714-40.19l3.034-6.477 9.462.336 9.463.337.182-8.07c.21-9.317 2.75-12.555 9.852-12.555 2.273 0 4.35-.652 4.616-1.45.61-1.83 13.872-2.58 19.725-1.117 2.406.602 7.61 1.466 11.562 1.92l7.188.827.023-7.278c.035-11.194 3.4-28.13 6.13-30.861 3.322-3.321 8.394-2.943 12.434.928C98.524 13.523 100.4 15 100.81 15c.41 0 1.897-1.95 3.303-4.335 3.365-5.702 7.575-6.718 13.46-3.245 4.51 2.661 4.561 2.663 6.274.217C126.321 4.107 138.26 0 146.05 0c6.512 0 6.92.222 19.19 10.483 29.995 25.082 56.126 41.795 69.689 44.572 8.362 1.713 55.339.767 63.125-1.271 19.35-5.064 36.65-8.506 63.75-12.682 5.156-.795 26.25-1.857 46.875-2.36 20.625-.505 43.057-1.623 49.85-2.487 8.604-1.094 23.01-1.37 47.5-.91 29.505.554 38.563 1.19 56.4 3.957 32.167 4.99 62.48 12.432 71.25 17.493 2.75 1.587 6.406 3.295 8.125 3.795 1.719.5 8.617 3.398 15.33 6.44 12.106 5.485 24.663 10.241 57.183 21.659 25.605 8.99 34.346 13.458 45.877 23.455 2.208 1.915 7.95 6.856 12.76 10.981 14.367 12.323 15.887 16.552 22.678 63.125 1.453 9.969 3.668 23.469 4.92 30 4.054 21.126 4.822 30.046 5.6 65l.765 34.375 3.818 8.75c6.378 14.616 6.736 15.945 6.715 24.898-.02 8.26-.19 8.75-3.771 10.923-6.076 3.688-6.824 3.902-8.568 2.455-.914-.759-2.032-1.01-2.485-.557-3.047 3.047 2.553 11.401 17.753 26.484l8.014 7.952-.746 8.298c-2.38 26.47-3.586 35.834-4.805 37.302-4.282 5.16-31.639 6.742-47.186 2.73-5.585-1.442-6.977-2.36-7.935-5.233-1.824-5.474-.154-9.551 4.752-11.601 2.382-.995 4.331-2.294 4.331-2.887 0-.592.335-2.75.744-4.795.659-3.294-.374-5.006-9.063-15.02-5.393-6.217-14.025-17.129-19.181-24.248-5.156-7.12-12.149-15.92-15.539-19.558-3.39-3.637-7.89-9.12-10-12.184-2.11-3.064-8.899-12.183-15.086-20.265-10.463-13.666-14.351-19.865-16.214-25.847-.727-2.334-.8-2.33-2.55.17-2.958 4.222-9.017 28.786-10.573 42.858-.798 7.219-2.82 17.523-4.494 22.899-2.527 8.112-3.044 12.373-3.044 25.062 0 8.41.486 15.823 1.08 16.476 2.01 2.211 4.24 13.626 5.357 27.438.612 7.562 1.428 16.877 1.814 20.7.552 5.455.273 7.306-1.295 8.607-2.85 2.367-48.822 4.78-53.206 2.793zm162.505-133.037c.003-2.235 1.231-6.032 2.73-8.438 2.414-3.873 2.693-5.88 2.433-17.5-.162-7.219-1.137-18.469-2.166-25-1.03-6.531-2.386-19.75-3.014-29.375-1.688-25.858-5.299-48.015-8.882-54.494-2.685-4.853-12.234-13.631-14.83-13.631-.566 0-1.355 6.61-1.754 14.688-.398 8.078-1.307 22.28-2.02 31.562-.711 9.281-1.284 24.765-1.273 34.409l.021 17.533 7.565 19.062c7.021 17.693 16.998 35.246 20.032 35.246.634 0 1.155-1.828 1.158-4.063z"/></svg>