<svg xmlns="http://www.w3.org/2000/svg" xmlns:dc="http://dublincore.org/documents/dcmi-terms/" height="978.425" version="1.2" viewBox="0 0 2508.063 978.425" width="2508.063" overflow="inherit"><metadata><dc:description>Silhouette of Urocissa, processed by PhyloPic Tools (https://github.com/eweitz/phylopic-tools)</dc:description><dc:source>http://phylopic.org/image/f51db955-33ed-4846-b8cf-e5b4c8217ced</dc:source><dc:creator>Lip Kee Yap (vectorized by T. Michael Keesey)</dc:creator><dc:license>http://creativecommons.org/licenses/by-sa/3.0/</dc:license></metadata><path d="M630 227.31c16.66-12.75 33.42-29.181 48-46 14.428-10.79 31.664-33.697 46-51 29.648-25.018 46.705-67.961 83-83 5.79 5.458 6.812 18.004 6 26-1.675 16.494-11.071 33.398-18 50-7.335 17.576-12.24 31.833-18 49 10.738 1.063 17.086-9.3 24-15 15.029-12.39 28.481-24.589 44-38 11.678-10.092 20.461-19.298 38-23 11.252 20.203.073 49.6-14 64 14.706-3.63 26.871-15.125 40-17 5.202 1.798 4.275 9.725 6 15-.567 4.1-5.219 4.114-7 7-1.58 3.913 2.596 2.07 3 4-13.419 35.915-43.466 55.2-61 87 13.708 2.37 23.852-7.477 33-13 19.255-6.079 34.025-16.642 53-23 7.636 2.724 14.265.134 21 1 1.308 12.382-1.715 28.896-14 31-.776 3.443.557 4.776 4 4-3.749 7.917-6.549 16.785-14 21 1.703 13.036-9.481 13.186-12 22 4.931 5.09 10.196-1.513 16-2 10.834-.909 21.359 6.246 31 8-.226 1.44-2.985.349-3 2 10.463 14.343-13.558 34.857-9 48 1.196 3.449 4.271 2.2 8 6 1.327 1.352.932 8.628 7 6 .351 6.018.125 11.459-3 14 1.117 11.658-.886 30.141-8 34-1.009.547-3.029-.604-4 0-.525.327-.338 2.685-1 3-12.561 5.979-34.248 6.852-48 11 32.634 5.176 54.764-4.346 83 0 6.973 6.361 7.908 18.759 11 29-6.242 11.425-13.206 22.127-20 33h-5c.417 7.417-4.548 9.451-3 18 16.737 10.556 44.647 14.281 39 44-7.479 13.361-14.086 19.051-36 17-6.309-.59-13.28-2.849-20-3-6.63-.149-13.085 2.35-19 2-8.629-.51-16.477-6.218-24-5-8.247 1.335-21.394 13.741-21 26 23.692 9.975 49.476 17.857 69 32-.459 4.59 3.704 8.318 2 11-3.821-.846-7.646-1.687-12-2-.536 6.869 8.591 4.076 11 8-1.871 9.463-5.476 17.191-17 17-6.025 10.975-11.697 22.303-24 27-28.088-2.844-40.878-19.693-73-21-1.285 6.951 6.092 5.242 9 8-.43 1.57-3.146.854-2 4 10.315 12.685 26.645 19.355 34 35-3.663.337-2.052 5.948-7 5 3.727 8.285-3.329 7.638-3 15 27.431-2.905 61.339-2.84 94-6 19.57-1.894 43.083-8.221 58-1 109.405-3.644 222.405-6.857 335-9 62.654-1.192 123.415-2.385 181-5 25.545-1.16 51.125-4.673 77-6 19.155-.982 40.333-4.775 58-7 39.329-4.953 78.923-6.344 117-12 14.033-2.085 28.086-6.055 42-8 14.227-1.989 27.163-5.963 41-8 23.061-3.396 46.935-4.587 68-14 50.934 2.506 93.922-18.916 140-23 12.062-1.069 23.895.023 36-1 30.156-2.549 58.986-14.792 88-22-5.974 3.026-12.028 5.972-19 8 39.836-6.831 78.875-23.124 117-35-7.873 8.127-22 10-31 17 10.48 3.991 19.274-6.874 30-9 20.952-4.153 47.172.424 69-2 8.165-.906 15.123-5.222 23-5 2.273 3.88-.748 5.053-3 7h27c-1.331 2.002-4.438 2.229-7 3 5.16 4.174 17.795.872 25 3-1.232 1.434-3.438 1.895-6 2 15.977 7.022 26.012 19.988 46 23v11c5.855 1.479 7.74 6.927 8 14 3.734 3.266 10.445 3.555 15 6 .152 5.485.107 10.774-1 15-36.314-18.039-77.318-33.07-129-41-32.19-4.939-62.499-7.795-102-6-73.271 3.328-145.877 14.073-206 27 4.019 2.315 12.319.347 18 1-13.219 5.114-31.334 5.332-43 12 29.021-1.07 63.871 1.238 94-3 25.456-3.581 47.221-15.508 72-17-8.417 4.25-17.119 8.215-27 11 23.304.001 48.453-16.467 73-12-15.341 5.992-32.636 10.031-50 14 30.122-1.879 63.604-9.062 94-14 2.995.658-.956 2.138 0 4 6.233-1.434 11.951-3.383 18-5 3.613-.947 1.395 3.938 2 6 24.578-2.896 48.377-.041 74 1 3.008-1.008 1.772 2.229 2 4 27.729-.729 24.851 29.149 46 35-.679 4.654 2.661 13.328-5 11 8.998 7.668 19.492 13.841 26 24-.941 1.836-5.045-1.543-8-1 3.35 3.65 9.891 4.109 12 9-1.869 1.957-3.662.309-6 0 1.18 3.487 6.794 2.539 7 7-1.57.43-.854 3.146-4 2 5.557 1.109 5.483 7.851 5 15-9.262-1.662-15.643-9.589-23-15-7.21-5.303-15.062-9.338-23-14-15.392-9.039-30.131-19.655-48-26-17.694-6.282-36.903-13.227-57-17-20.099-3.774-41.051-9.769-62-12-78.42-8.353-158.916 2.899-235 10 .42 2.246 5.306.027 6 2-66.675 8.412-136.854 18.157-207 26 7.058 2.618 23.805.85 28 3h-7c-13.886 2.781-27.601 5.732-45 5 2.327 1.673 5.388 2.612 9 3-49.312 11.021-103.112 17.554-158 23-3.264-.264-2.889 3.111-5 4-23.646 1.354-48.567 1.433-69 6 30.611 6.523 67.886-12.166 97-1-12.104.145-30.725-2.68-39 2 3.283 4.717 8.312 7.688 13 11-16.737 1.758-41.326-.186-59-2-18.014-1.85-39.477 3.11-59 2-8.063-.459-13.49-1.28-20 0-11.363 2.235-24.599.689-37 2-12.837 1.356-24.783 5.819-38 6-29.109.397-63.733-3.641-99-2-37.069 1.725-75.226 9.235-107 7-2.814-.198-6.188-1.602-9-1-6.567 1.406-12.315 10.048-20 12-22.98 5.837-45.653-4.513-70-4 .944 5.733 13.344 8.647 20 12-1.363 7.061 6.949 8.549 9 15-15.882-12.451-32.436-24.23-54-31-10.031 5.636-20.13 11.203-29 18 9.166 11.237 22.976 17.524 34 27 10.688 9.186 20.881 20.295 26 35-10.86-16.201-29.903-34.428-49-48-9.099-6.467-19.292-15.348-30-9 1.923 13.41 9.936 20.73 14 32-6.417-3.59-11.353-17.31-19-23-28.547 3.134-51.795-4.776-75-10-2.599-.599-3.599.401-3 3-14.531-8.469-36.911-9.089-54-15-1.96-.483-3.221 4.584-1 5-3.094-3.455-20.828-9.117-30-5 3.331 9.003 18.604 6.063 27 10 2.599.599 3.599-.401 3-3 2.005 1.662 4.648 2.686 5 6 27.753 5.58 54.989 11.678 80 20 4.683.122-1.088 1.455 0 4 3.295 3.371 11.804 1.529 18 2-36.448 4.582-79.772.193-105-15-9.661.661-15.314-2.686-21-6-7.211 2.184-11.667-2.033-18 3-4.819-.848-6.789-4.545-13-4-2.951 6.971 4.076 12.575 8 16 4.799 14.868 15.926 23.407 21 38 6.859.474 9.657 5.01 15 7-.745 2.256-5.609.391-8 1-.395 7.395 2.326 11.674 4 17-5.743-7.262-11.478-23.186-28-23-2.689-.031-2.689 5.031 0 5-8.293-4.711-18.961-15.702-30-21-3.03 14.815 11.117 29.462 19 40-3.631.606-6.575-8.073-14-7-4.833.148-1.419 5.566-3 7-12.661.969-25.88-6.719-39-3-.9 11.993-13.577 16.965-24 11-2.555 1.778-3.211 5.455-4 9-4.257-.591-6.614.72-10 1-2.208.125-.425 4.242-1 6-7.03-.97-13.958-2.042-21-3 .17 11.586 10.364 29.323 0 41 2.472-21.033-11.916-35.34-34-36-2.046 10.047-15.026 29.354-24 14-12.526-2.853-22.073 5.64-37 6 1.12 5.881 6.559 7.441 9 12 15.562 9.124 35.349-15.381 40 2 12.597-1.355 25.231-10.561 29-24 11.498 22.997-16.432 37.16-39 39-.514 4.963-.417 5.334-1 9 8.316 8.324 22.563-5.157 27-7 .342 11.82-14.315 20.206-26 19-4.767-.492-9.451-5.295-15-6-9.903-1.26-20.829 1.495-28-1-13.5-7.5-19.469-22.531-39-24-3.663-11.159-1.257-26.029-1-39-25.056-3.058-52.639-5.651-76-13-4.159-1.309-7.843-4.735-12-6-17.378-5.288-35.31-8.539-52-15-8.041-3.112-15.618-6.085-24-9-7.849-2.729-15.3-7.853-23-10-20.935-5.839-40.139-11.324-60-19-15.984-6.178-30.812-15.342-47-22-38.662-15.902-79.276-22.002-120-35-4.048-1.382-3.163 2.171-6 2-11.195-2.471-20.475-6.858-28-13-14.909 2.364-24.97-20.928-42-10-3.527-.806-3.398-5.269-8-5-3.921-.921-.726 5.274-3 6-26.845-14.619-63.569 7.67-97-2-5.072-1.215-6.961 4.309-10 2 16.523-37.144 55.093-52.24 91-70 .58-3.246-.681-4.652-1-7 6.692-3.309 13.937-6.062 14-16h4c1.918-8.416 9.871-10.796 14-17 27.622-12.646 48.712-28.685 84-33 25.829-3.158 48.566-.665 74 5 4.206.937 8.397 4.267 13 5 14.285 2.274 26.825 2.436 40 4-4.119-8.583-16.248-5.944-27-6-2.26-2.74-3.629-6.371-5-10-25.222 1.889-21.656-25.01-29-41-14.519-3.689-30.875-9.26-41-19-3.245-3.121-4.809-8.849-8-12-1.204-1.188-4.003-.846-5-2-21.51-24.891-27.854-68.441-18-107 4.782-.218 3.589-6.411 9-6 12.706 7.453 14.539 15.736 22 26-4.369-48.562-5.733-105.63 25-135 13.122 6.406 25.639 22.92 22 37 6.803-.604 3.067 15.65 9 19-3.41 3.8.83 9.992 3 14 1.55 19.15 3.643 46.276 7 66 10.873-27.056 5.873-84.688 14-114 1.252-14.905 6.888-48.599 18-64 7.051-9.772 19.613-11.427 25-2 6.101-7.566 7.47-19.864 16-25 22.421 16.685 19.461 62.594 22 96 11.408-37.587 14.543-94.053 23-135 6.129-39.675 20.853-77.931 33-100 3.8-2.2 6.516-5.484 10-8 15.606 11.849 19.792 34.25 16 56-.854 3.188.871 3.796 2 5-.948 12.727-2.761 21.747 0 34-1.876 20.955-8.036 35.874-8 54 33.962-75.58 43.281-157.343 83-221 3.444-1.558 8.954-5.251 12-4 26.239 23.68 16.484 68.211 9 100-3.248 38.591-20.981 65.506-28 103 6.659-4.74 12.546-12.236 17-19 14.088-21.393 25.123-46.187 39-68v-6c1.889-.749.694-2.985 3-1 12.771-30.842 32.295-76.057 51-106 3.286-5.261 16.155-32.503 28-29 12.599 3.726 14.123 32.121 13 46-1.76 21.759-8.573 38.849-12 60-.184.851.39.943 1 1-.443 1.454-.878-.102-2 0-12.409 44.58-39.085 77.479-52 120zm173 492c2.51-.824 8.61 1.944 8-2-2.892-4.785-7.585-16.407-16-19-.701 6.533 6.306 13.572 8 21zm10 3c1.173 1.494 4.155 1.178 4 4 6.001-1.076 7.855-.521 15 0-4.141-4.859-10.573-7.428-18-9 .826 2.826-1.409 2.591-1 5zm26-3c-2.164 10.936 20.04 13.202 29 10-8.936-3.979-18.128-14.064-29-10zm151 45c-33.748-5.113-71.196-3.828-107-6-.138 1.862-.658 3.342-2 4-2.177-.396-10.656-3.214-11 1 .271 6.062 7.955 4.712 14 5 .956-1.862-2.995-3.342 0-4 4.845 6.049 11.468.932 18 3-.407 1.927-3.876.79-3 4 8.861-.528 14.139 2.528 23 2-.075 1.742.223 3.109 1 4 26.376 6.463 67.64 12.973 96 3-11.001-3.999-19.992-10.008-29-16zm65 7c-11.796.15-20.463-5.186-29-3 8.225 3.723 23.166 17.039 29 3zm-3 9c9.415 13.197 31.327 10.498 39-3-11.016-5.752-31.58-7.49-39 3zm-189-1v6c9.609.401 13.289 3.61 22 0v-6c-6.444-4.407-13.069-1.117-22 0zm188 17c.929-2.405 7.271.605 6-4-4.841-3.492-9.838-6.828-16-9 .246 7.42 5.651 9.683 10 13zm-25-8c-10.491 1.836-30.768.826-40 5 14.186 7.545 30.53 5.201 50 5-.25-6.416-5.5-7.834-10-10zm-100 15c-8.474-2.436-20.002-6.585-24-2 19.854 6.481 39.18 18.818 64 17-12.893-2.25-26.795-11.204-40-15zm95 1c5.979.49 20.499 5.712 24-1-4.851-4.002-18.395-.768-24 1zm-26 17c-.672-5.018-12.501-4.136-15-4 2.812 3.522 7.954 4.713 15 4zm-116 23c-5.129-5.537-6.508-14.825-15-17 .26 9.749 9.093 16.229 15 17zm3 11c-8.073-9.261-16.007-18.659-26-26 1.054 15.655 14.109 24.5 26 26z" fill-rule="evenodd"/></svg>