<svg xmlns="http://www.w3.org/2000/svg" xmlns:dc="http://dublincore.org/documents/dcmi-terms/" height="807" viewBox="0 0 1475 807" width="1475"><metadata><dc:description>Silhouette of Varanidae, processed by PhyloPic Tools (https://github.com/eweitz/phylopic-tools)</dc:description><dc:source>http://phylopic.org/image/ce6a78bc-3ef1-4d60-ab40-113eb84c7802</dc:source><dc:creator>Steven Traver</dc:creator><dc:license>http://creativecommons.org/publicdomain/zero/1.0/</dc:license></metadata><g fill-rule="evenodd"><path d="M-.5 604.5c4.204-4.039 5.483-10.867 8-13-5.038 4.269 11.224-3.399 11-3 2.799-4.997-1.585-9.771-1-12 1.974-7.515 12.457-13.739 17-14 4.9-.281 13.514 6.966 20 3 2.124-1.299 2.381-10.259 6-12 13.715-6.599 21.747 9.497 32 14 7.271 3.193 19.456 6.258 29 4 3.07-.727.976-3.234 5-2-1.412-1.381-13.748-12.832-7-18 5.509-4.219 15.999 11.243 19 10 3.942-1.633 2.15-15.626 2-15 .305-1.27 3.435-.6 4-2 2.673-6.625.921-18.085 3-28 .049-.232 1.778-3.46 2-4 2.263-5.505 6.147-11.462 8-16 .499-1.221-.527-2.971-1-2 3.605-7.395 13.075-18.987 18-31 1.924-4.692 1.786-8.894 4-13 1.999-3.707 6.139-6.558 7-9 .376-1.067-.584-4.658-1-4 .694-1.1 2.417.237 4-1 2.673-2.09 3.866-8.35 5-10 4.357-6.343 14.389-18.425 20-25 3.877-4.543 12.188-8.355 12-12-.618-12.034 5.873-36.932 4-49-.264-1.703-3.09-.134-2 1-1.652-1.718.447-1.249 0-3-.815-3.191-5.921-8.795-6-9-1.892-4.933-.196-14.354-2-20-.43-1.345-2.882-3.084-3-4-1.67-13.004 1.096-27.707 0-43-2.587-36.11-14.429-82.473-2-120 1.813-5.474 6.083-12.533 9-18 3.297-6.178 5.996-13.144 9-18 9.334-15.085 21.971-27.025 32-42 2.067-3.087-.488-3.448 1-5 1.166-1.217 5.249-2.732 7-4 4.478-3.243 7.239-8.143 12-12 14.497-11.743 34.696-17.301 49-27 15.155-10.276 17.897-17.422 43-15 18.896 1.823 33.212 10.162 61 8 6.57-.511 12.817-3.592 20-4 10.192-.579 41.182 4.871 46 15 3.218 6.766-.041 19.626-3 25-4.294 7.797-12.71 11.216-14 15-.398 1.167 1.674 3.465 2 3-.709 1.013-5.909-2.576-2 1-.354 1.401-1.761.086-2-1-13.196 10.532-29.951 32.629-48 45-4.096 2.807-8.65 3.606-12 6-12.318 8.802-23.141 20.573-31 26-1.348.931-4.772.843-6 2-6.428 6.055-14.733 21.048-21 30 .088-.126-2.408 2.832-2 1-1.311 5.888 4.252 8.804 0 12-2.656 1.997-6.739-3.414-8-3-2.664.875-1.606 6.848-3 10-.717 1.622-7.423 12.671-9 14-.53.447-3.699-.565-4 0-5.861 10.994 7.705 38.286 6 55-.222 2.178-2.512 3.158-2 5 2.255 8.121 14.956 11.918 16 18 .603 3.512.649 10.922 0 14-1.127 5.347.998 10.36 8 16 .608.49 3.801.832 3 0 2.144 2.226 11.461 14.188 15 19 3.421 4.652 3.043 9.127 6 11 7.087 4.487 16.199 2.487 27 6 12.832 4.173 38.216 15.705 49 22 2.491 1.455 9.431 6.795 13 10 3.469 3.116 9.995 15.033 13 16 2.634.847 6.215-3.354 9-1 9.11 7.698-.571 39.494 9 47 3.237-4.386-4.132-23.294 5-23 5.004.161 6.245 13.272 7 21 1.146 11.729 1.317 5.56 13 10 4.558 1.732 7.735 5.525 10 6 22.033 4.613 56.524-1.74 73 5 5.703 2.333 19.666 3.52 30 4 52.182 2.428 95.538 11.092 126 25-.46-16.242-9.195-38.998-5-55 1.531-5.843 8.1-16.463 11-19 11.191-9.789 45.4-5.266 58 5 2.301-16.815 31.058-2.751 7 0 7.938 3.729 15.561 7.772 27 8-1.014-2.984-2.2-6.894-2-12 .288-7.355 10.968-27.024 26-26 1.927.131 6.193 2.249 7 2 1.98-.612 6.391-9.712 8-11 3.374-2.701 11.188-4.458 17-8 5.128-3.125 13.166-7.639 16-11 .947-1.124.079-4.123 1-5 13.577-12.929 39.758 4.232 35 27-8.784-.098-5.901-10.155-10-13-4.96-3.442-16.075.898-19 3-7.519 5.403-12.622 14.838-24 17 .732.934 1.818 1.515 3 2-.883 2.016-2.927-1.167-4-1-2.09.325.878 2.148 1 2-.731.887-8.467 1.278-11 10-3.037 10.456 1.271 12.627 8 21 1.316 1.639 3.114 5.392 4 6-.4-.275 9.963 2.622 16 2 5.601-.577 14.166-6.681 24-9 8.267-1.949 18.489-1.335 26-4 2.536-.899 4.925-3.663 7-4 16.639-2.701 33.104 18.284 22 35-7.672-5.07-5.006-16.735-15-19-7.661-1.735-17.091 3.355-26 5-11.253 2.078-33.163 4.189-38 14-2.387 4.841-.622 11.588-2 16-3.645 11.672-15.139 24.73-27 27-5.198.994-10.163-.775-15-1-14.074-.654-27.074 1.342-45-4 .054 9.317 8.152 14.086 12 22 4.111 8.457 3.388 25.206 7 31 1.701 2.729 6.371 3.369 9 5 1.709 1.061.98 2.024 6 5 .672.398-1.356 1.297 1 2 1.172.35 3.466-1.698 3-2 2.812 1.819-2.123.974-1 3 1.013 1.827 9.383 4.421 14 7 9.306 5.197 20.599 13.156 36 19 16.617 6.305 31.622 8.475 48 12 33.939 7.307 69.768 3.391 111 1 19.212-1.114 36.681-2.704 59-6 7.519-1.11 14.674-5.102 22-7 16.68-4.321 32.441-8.273 48-14 15.604-5.744 32.076-9.953 45-18 5.999-3.735 12.524-6.661 21-11 5.044-2.582 11.893-5.253 15-8 .789-.697-.229-2.313 1-3 .945-.528-.436 2.24 1 2 1.613-.27 26.188-13.954 21-16 1.979 1.816 10.506-4.129 15-9 .504-.546.818-2.682 0-2 2.908-2.422 6.998-5.413 10-8 12.806-11.038 35.974-31.501 48-45 4.301-4.827 19.75-15.126 30-24 2.339-2.024 3.416-5.633 5-7 1.079-.932 20.326-12.61 27-8 7.094 4.9-2.703 23.79-3 33-.28 8.709-.241 17.234-3 27-1.801 6.376-7.591 11.417-11 18-1.748 3.376-1.586 7.735-3 10-5.228 8.373-19.953 19.021-27 28-.471.601-1.135 4.139-1 4-.711.73-11.021 7.336-13 10-.49.66-.699 3.77 0 3-1.979 2.178-1.48-.651-4 1-3.171 2.078-3.615 7.615-7 11-.056.056-4.994 3.228-7 5-6.438 5.688-14.162 14.051-21 20-8.561 7.448-15.627 10.704-18 13-1.501 1.451-.313 2.438-1 3-4.44 3.638-11.179 8.552-17 13-10.486 8.014-28.617 15.935-38 23-.884.666-12.462 6.178-17 8-20.125 8.08-43.133 17.682-58 22-46.584 13.531-107.817 22.805-164 26-20.011 1.138-47.442 1.209-71 0-51.724-2.653-112.134-15.438-154-31-2.85-1.06-6.337-4.179-9-5-4.114-1.27-8.943-.569-13-2-6.774-2.389-12.013-9.234-25-7-4.568.786-8.436 4.863-14 7-17.535 6.731-47.066 8.742-73 7-13.498-.907-36.184-8.4-40-7-8.331 3.058-9.451 34.724-13 45-3.969 11.494-11.652 26.805-22 32-5.089 2.555-12.458 2.906-20 5-5.542 1.538-12.871 5.24-17 5-1.842-.107-4.422-2.652-6-2-2.479 1.024-16.442 19.318-20 24-.359.472-.782 2.76 0 2-4.868 4.728-11.125 4.729-17 8-2.094 1.166-1.347 3.453-3 5-.617.577-10.254 3.504-12 6-4.588 6.562.569 18.656-3 23h-1c-1.469-5.338-9.154-19.585-4-34 3.031-8.478 10.791-7.318 17-10 5.003-2.16 23.445-18.89 22-24-1.323-4.681-41.736-10.105-51-9-15.917 1.899-28.279 12.38-39 16-6.558 2.215-19.948 6.569-29 8-20.685 3.271-39.173-7.12-53 1-4.547 2.67-5.583 13.016-11 14-5.285-17.246 6.175-31.78 21-34 13.179-1.974 29.113 5.315 41 4 10.173-1.126 28.67-9.724 21-19-.571-.691-2.501-.586-3-1-8.552-7.102-24.658-24.699-32-2-8.05-20.361 3.414-30.3 14-30 11.729.332 24.056 17.184 32 19 3.264.746 25.13-2.724 26-4 .743-1.089-.842-8.732-4-10-2.074-.833-5.222 5.763-9 5-6.339-16.723-.824-26.625 10-25 11.991 1.8 14.36 26.327 37 21 .194-.046 2.407 1.737 3 1 4.65-5.785-10.928-25.891 9-23 8.523 1.236 22.673 16.663 33 3 1.983-2.623 7.712-18.076 3-22-2.503-2.084-9.489.831-13 1-68.566 3.295-147.944-28.3-197-59-6.794-4.252-15.072-9.942-20-13-3.614-2.243-22.035-19.731-32-27-4.912-3.583-9.3-10.645-15-18-4.257-5.492-14.833-16.105-17-20-3.307-5.943-8.663-19.79-17-31-1.947-2.618-7.337-5.488-12-13-3.495-5.63-.738-8.269-4-9-1.728-.388-9.199 6.698-11 8-3.852 2.783-9.488 9.838-15 14-3.258 2.46-9.328 3.962-10 5-1.579 2.438-.477 7.7-1 10-6.428 28.281-21.711 63.241-40 79-2.211 1.905-7.211 3.956-11 7-7.737 6.217-10.893 13.947-21 18-5.963 2.391-12.813 2.335-19 6-6.688 3.961-10.92 9.503-16 11-16.187 4.77-48.245-6.068-39 22-5.685-3.832-11.841-4.881-10-18 .301-2.146 5.726-11.063 5-12-1.736-2.24-20.034-1.461-25-3-8.179-2.535-16.891-8.498-26-5-5.479 2.104-5.085 11.194-10 14-.38-6.838-3.38-5.124-4-12v-2z"/><path d="M-.5 604.5v-568c0-10.785-1.634-35.366 0-37 2.279-2.279 35.523 0 47 0h1428c0 258.287.01 520.365 0 782 0 9.127.937 24.063 0 25-1.143 1.143-20.509 0-30 0h-918c3.569-4.344-1.588-16.438 3-23 1.746-2.496 11.383-5.423 12-6 1.653-1.547.906-3.834 3-5 5.875-3.271 12.132-3.272 17-8-.782.76-.359-1.528 0-2 3.558-4.682 17.521-22.976 20-24 1.578-.652 4.158 1.893 6 2 4.129.24 11.458-3.462 17-5 7.542-2.094 14.911-2.445 20-5 10.348-5.195 18.031-20.506 22-32 3.549-10.276 4.669-41.942 13-45 3.816-1.4 26.502 6.093 40 7 25.934 1.742 55.465-.269 73-7 5.564-2.137 9.432-6.214 14-7 12.987-2.234 18.226 4.611 25 7 4.057 1.431 8.886.73 13 2 2.663.821 6.15 3.94 9 5 41.866 15.563 102.276 28.347 154 31 23.558 1.209 50.989 1.138 71 0 56.183-3.195 117.416-12.469 164-26 14.867-4.318 37.875-13.92 58-22 4.538-1.822 16.116-7.334 17-8 9.383-7.065 27.514-14.986 38-23 5.821-4.448 12.56-9.362 17-13 .687-.563-.501-1.549 1-3 2.373-2.296 9.439-5.552 18-13 6.838-5.949 14.563-14.312 21-20 2.006-1.772 6.944-4.944 7-5 3.385-3.385 3.829-8.922 7-11 2.52-1.651 2.021 1.178 4-1-.699.77-.49-2.34 0-3 1.979-2.664 12.289-9.27 13-10-.135.139.529-3.399 1-4 7.047-8.979 21.772-19.627 27-28 1.414-2.265 1.252-6.624 3-10 3.409-6.583 9.199-11.624 11-18 2.759-9.766 2.72-18.291 3-27 .297-9.21 10.094-28.1 3-33-6.674-4.61-25.921 7.068-27 8-1.584 1.367-2.661 4.976-5 7-10.25 8.874-25.699 19.173-30 24-12.026 13.499-35.194 33.962-48 45-3.002 2.587-7.092 5.578-10 8 .818-.682.504 1.454 0 2-4.494 4.871-13.021 10.816-15 9 5.188 2.046-19.387 15.73-21 16-1.436.24-.055-2.528-1-2-1.229.687-.211 2.303-1 3-3.107 2.747-9.956 5.418-15 8-8.476 4.339-15.001 7.265-21 11-12.924 8.047-29.396 12.256-45 18-15.559 5.727-31.32 9.679-48 14-7.326 1.898-14.481 5.89-22 7-22.319 3.296-39.788 4.886-59 6-41.232 2.391-77.061 6.307-111-1-16.378-3.525-31.383-5.695-48-12-15.401-5.844-26.694-13.803-36-19-4.617-2.579-12.987-5.173-14-7-1.123-2.026 3.812-1.181 1-3 .466.302-1.828 2.35-3 2-2.356-.703-.328-1.602-1-2-5.02-2.976-4.291-3.939-6-5-2.629-1.631-7.299-2.271-9-5-3.612-5.794-2.889-22.543-7-31-3.848-7.914-11.946-12.683-12-22 17.926 5.342 30.926 3.346 45 4 4.837.225 9.802 1.994 15 1 11.861-2.27 23.355-15.328 27-27 1.378-4.412-.387-11.159 2-16 4.837-9.811 26.747-11.922 38-14 8.909-1.645 18.339-6.735 26-5 9.994 2.265 7.328 13.93 15 19 11.104-16.716-5.361-37.701-22-35-2.075.337-4.464 3.101-7 4-7.511 2.665-17.733 2.051-26 4-9.834 2.319-18.399 8.423-24 9-6.037.622-16.4-2.275-16-2-.886-.608-2.684-4.361-4-6-6.729-8.373-11.037-10.544-8-21 2.533-8.722 10.269-9.113 11-10-.122.148-3.09-1.675-1-2 1.073-.167 3.117 3.016 4 1-1.182-.485-2.268-1.066-3-2 11.378-2.162 16.481-11.597 24-17 2.925-2.102 14.04-6.442 19-3 4.099 2.845 1.216 12.902 10 13 4.758-22.768-21.423-39.929-35-27-.921.877-.053 3.876-1 5-2.834 3.361-10.872 7.875-16 11-5.813 3.542-13.626 5.299-17 8-1.609 1.288-6.02 10.388-8 11-.807.249-5.073-1.869-7-2-15.032-1.024-25.712 18.645-26 26-.2 5.106.986 9.016 2 12-11.439-.228-19.062-4.271-27-8 24.058-2.751-4.699-16.815-7 0-12.6-10.266-46.809-14.789-58-5-2.9 2.537-9.469 13.157-11 19-4.195 16.002 4.54 38.758 5 55-30.462-13.908-73.818-22.572-126-25-10.334-.48-24.297-1.667-30-4-16.476-6.74-50.967-.387-73-5-2.265-.475-5.442-4.268-10-6-11.683-4.44-11.854 1.729-13-10-.755-7.728-1.996-20.839-7-21-9.132-.294-1.763 18.614-5 23-9.571-7.506.11-39.302-9-47-2.785-2.354-6.366 1.847-9 1-3.005-.967-9.531-12.884-13-16-3.569-3.205-10.509-8.545-13-10-10.784-6.295-36.168-17.827-49-22-10.801-3.513-19.913-1.513-27-6-2.957-1.873-2.579-6.348-6-11-3.539-4.812-12.856-16.774-15-19 .801.832-2.392.49-3 0-7.002-5.64-9.127-10.653-8-16 .649-3.078.603-10.488 0-14-1.044-6.082-13.745-9.879-16-18-.512-1.842 1.778-2.822 2-5 1.705-16.714-11.861-44.006-6-55 .301-.565 3.47.447 4 0 1.577-1.329 8.283-12.378 9-14 1.394-3.152.336-9.125 3-10 1.261-.414 5.344 4.997 8 3 4.252-3.196-1.311-6.112 0-12-.408 1.832 2.088-1.126 2-1 6.267-8.952 14.572-23.945 21-30 1.228-1.157 4.652-1.069 6-2 7.859-5.427 18.682-17.198 31-26 3.35-2.394 7.904-3.193 12-6 18.049-12.371 34.804-34.468 48-45 .239 1.086 1.646 2.401 2 1-3.909-3.576 1.291.013 2-1-.326.465-2.398-1.833-2-3 1.29-3.784 9.706-7.203 14-15 2.959-5.374 6.218-18.234 3-25-4.818-10.129-35.808-15.579-46-15-7.183.408-13.43 3.489-20 4-27.788 2.162-42.104-6.177-61-8-25.103-2.422-27.845 4.724-43 15-14.304 9.699-34.503 15.257-49 27-4.761 3.857-7.522 8.757-12 12-1.751 1.268-5.834 2.783-7 4-1.488 1.552 1.067 1.913-1 5-10.029 14.975-22.666 26.915-32 42-3.004 4.856-5.703 11.822-9 18-2.917 5.467-7.187 12.526-9 18-12.429 37.527-.587 83.89 2 120 1.096 15.293-1.67 29.996 0 43 .118.916 2.57 2.655 3 4 1.804 5.646.108 15.067 2 20 .079.205 5.185 5.809 6 9 .447 1.751-1.652 1.282 0 3-1.09-1.134 1.736-2.703 2-1 1.873 12.068-4.618 36.966-4 49 .188 3.645-8.123 7.457-12 12-5.611 6.575-15.643 18.657-20 25-1.134 1.65-2.327 7.91-5 10-1.583 1.237-3.306-.1-4 1 .416-.658 1.376 2.933 1 4-.861 2.442-5.001 5.293-7 9-2.214 4.106-2.076 8.308-4 13-4.925 12.013-14.395 23.605-18 31 .473-.971 1.499.779 1 2-1.853 4.538-5.737 10.495-8 16-.222.54-1.951 3.768-2 4-2.079 9.915-.327 21.375-3 28-.565 1.4-3.695.73-4 2 .15-.626 1.942 13.367-2 15-3.001 1.243-13.491-14.219-19-10-6.748 5.168 5.588 16.619 7 18-4.024-1.234-1.93 1.273-5 2-9.544 2.258-21.729-.807-29-4-10.253-4.503-18.285-20.599-32-14-3.619 1.741-3.876 10.701-6 12-6.486 3.966-15.1-3.281-20-3-4.543.261-15.026 6.485-17 14-.585 2.229 3.799 7.003 1 12 .224-.399-16.038 7.269-11 3-2.517 2.133-3.796 8.961-8 13z" fill="#fff"/><path d="M525.5 806.5H-.5v-200c.62 6.876 3.62 5.162 4 12 4.915-2.806 4.521-11.896 10-14 9.109-3.498 17.821 2.465 26 5 4.966 1.539 23.264.76 25 3 .726.937-4.699 9.854-5 12-1.841 13.119 4.315 14.168 10 18-9.245-28.068 22.813-17.23 39-22 5.08-1.497 9.313-7.039 16-11 6.188-3.665 13.037-3.609 19-6 10.107-4.053 13.263-11.783 21-18 3.789-3.044 8.789-5.095 11-7 18.289-15.759 33.572-50.719 40-79 .523-2.3-.579-7.563 1-10 .672-1.038 6.742-2.54 10-5 5.512-4.162 11.148-11.217 15-14 1.801-1.302 9.272-8.388 11-8 3.262.731.505 3.37 4 9 4.663 7.512 10.053 10.382 12 13 8.337 11.21 13.693 25.057 17 31 2.167 3.895 12.743 14.508 17 20 5.7 7.355 10.088 14.417 15 18 9.965 7.269 28.386 24.757 32 27 4.928 3.058 13.206 8.748 20 13 49.056 30.7 128.434 62.295 197 59 3.511-.169 10.497-3.084 13-1 4.712 3.924-1.017 19.377-3 22-10.327 13.663-24.477-1.764-33-3-19.928-2.891-4.35 17.215-9 23-.593.737-2.806-1.046-3-1-22.64 5.327-25.009-19.2-37-21-10.824-1.625-16.339 8.277-10 25 3.778.763 6.926-5.833 9-5 3.158 1.268 4.743 8.911 4 10-.87 1.276-22.736 4.746-26 4-7.944-1.816-20.271-18.668-32-19-10.586-.3-22.05 9.639-14 30 7.342-22.699 23.448-5.102 32 2 .499.414 2.429.309 3 1 7.67 9.276-10.827 17.874-21 19-11.887 1.315-27.821-5.974-41-4-14.825 2.22-26.285 16.754-21 34 5.417-.984 6.453-11.33 11-14 13.827-8.12 32.315 2.271 53-1 9.052-1.431 22.442-5.785 29-8 10.721-3.62 23.083-14.101 39-16 9.264-1.105 49.677 4.319 51 9 1.445 5.11-16.997 21.84-22 24-6.209 2.682-13.969 1.522-17 10-5.154 14.415 2.531 28.662 4 34z" fill="#fff"/></g></svg>