<svg xmlns="http://www.w3.org/2000/svg" xmlns:dc="http://dublincore.org/documents/dcmi-terms/" height="744.094" width="1052.362"><metadata><dc:description>Silhouette of Vombatoidea, processed by PhyloPic Tools (https://github.com/eweitz/phylopic-tools)</dc:description><dc:source>http://phylopic.org/image/458f0c9f-22a5-4f60-bed2-0d5f7f46beac</dc:source><dc:creator>Michael Scroggie</dc:creator><dc:license>http://creativecommons.org/publicdomain/zero/1.0/</dc:license></metadata><g transform="translate(0 -308.268)"><image height="732" width="836" x="84.857" y="317.791"/><path d="M567.902 991.058c-2.52-.276-5.017-1.917-7.897-5.19-6.81-7.739-8.644-8.61-20.007-9.496-30.264-2.363-28.215-1.886-34.405-8.002-3.085-3.048-8.3-7.838-11.59-10.645-3.289-2.806-6.276-6.23-6.637-7.61-.362-1.378-1.98-3.851-3.594-5.496-1.615-1.645-3.232-4.394-3.593-6.11-.362-1.715-2.296-6.185-4.298-9.933-2.978-5.573-3.775-8.53-4.37-16.217l-.728-9.4-8.416-9.271c-9.887-10.892-10.856-11.592-19.8-14.312-3.75-1.14-9.037-3.196-11.75-4.569-3.389-1.714-7.37-2.496-12.709-2.496-4.276 0-10.111-.8-12.967-1.78-2.857-.978-12.538-2.123-21.515-2.544-9.727-.456-18.41-1.539-21.49-2.68-2.844-1.054-6.489-1.917-8.101-1.917-1.613 0-4.499-1.085-6.414-2.412-1.916-1.327-5.789-2.806-8.607-3.286-5.927-1.01-15.92-4.707-20.537-7.596-4.174-2.612-4.35-2.563-4.35 1.225 0 1.772-1.421 6.63-3.159 10.795-1.737 4.165-3.159 8.384-3.159 9.376 0 .99-.707 3.444-1.573 5.452-1.068 2.479-1.575 7.496-1.58 15.634l-.005 11.984 4.212 4.363c2.317 2.4 4.212 5.197 4.212 6.216 0 1.018.672 2.164 1.494 2.546 1.072.497.283 2.018-2.786 5.376-4.146 4.535-4.516 4.675-11.761 4.46-4.114-.122-10.266-.61-13.671-1.083-6.251-.87-9.366.121-13.552 4.313-1.52 1.522-4.76 1.692-18.61.976-15.38-.796-17.174-1.142-21.665-4.18-2.692-1.821-5.284-4.548-5.76-6.06-.474-1.511-3.164-4.295-5.977-6.187-2.814-1.891-8.195-6.96-11.96-11.262-3.764-4.303-7.94-8.704-9.279-9.78-1.339-1.076-3.554-4.591-4.921-7.811-1.368-3.22-5.358-9.582-8.867-14.138-3.51-4.556-6.389-8.994-6.399-9.862-.033-2.903-3.071-6.775-14.257-18.174-4.471-4.555-11.39-12.297-15.375-17.203-20.995-25.848-24.09-29.81-24.09-30.837 0-1.449-9.584-12.675-11.368-13.315-1.457-.523-6.647-6.16-26.293-28.554-6.796-7.747-14.168-15.202-16.382-16.567-2.214-1.364-4.584-3.282-5.265-4.262-.682-.98-1.562-7.289-1.956-14.018-.395-6.73-1.241-15.676-1.882-19.882-1.075-7.06-1.585-15.062-4.019-63.08-.48-9.462-1.437-18.456-2.129-19.987-1.813-4.013-1.612-22.637.292-27.093.852-1.994 1.867-6.124 2.254-9.176.388-3.052 1.528-7.557 2.534-10.01 1.007-2.453 2.188-6.464 2.625-8.913.437-2.449 2.39-6.809 4.34-9.689 1.95-2.88 3.546-5.667 3.546-6.195 0-.527 1.185-2.663 2.633-4.745 1.447-2.083 2.632-4.597 2.632-5.587 0-.99 8.056-11.765 17.901-23.944 9.846-12.179 17.901-22.947 17.901-23.929 0-2.54 22.313-29.14 24.444-29.14.974 0 7.171-6.585 13.773-14.634 6.601-8.048 13.387-15.36 15.08-16.248 1.691-.888 7.095-4.826 12.008-8.751 16.522-13.202 20.462-15.686 33.67-21.226 4.34-1.82 9.388-4.379 11.22-5.686 3.694-2.638 8.24-4.547 14.587-6.126 2.316-.576 6.344-1.906 8.95-2.955 13.25-5.332 25.746-9.755 27.557-9.755 1.118 0 3.312-.795 4.876-1.766 1.564-.972 5.686-2.427 9.161-3.233 3.475-.807 10.346-2.539 15.269-3.848 4.923-1.31 13.926-3.681 20.007-5.272 6.081-1.59 11.507-3.365 12.057-3.944.55-.579 2.943-1.052 5.318-1.052 2.374 0 4.772-.552 5.329-1.225 2.63-3.183 35.064-1.223 43.346 2.62 2.817 1.306 19.905 4.425 31.88 5.818 3.185.37 6.6 1.546 7.59 2.614 1.214 1.31 5.37 2.253 12.781 2.902 6.04.529 11.477 1.33 12.08 1.782.603.451 4.75 1.381 9.215 2.066 4.465.685 8.645 1.736 9.288 2.334 1.57 1.462 11.638 5.301 13.902 5.301.994 0 4.398 1.484 7.565 3.297 6.04 3.458 27.6 13.332 36.522 16.728 2.872 1.093 7.195 3.32 9.606 4.95 4.956 3.348 12.745 6.837 15.325 6.865 3.557.038 13.118 4.372 15.653 7.095 3.787 4.068 8.581 6.743 13.842 7.723 2.522.47 6.82 2.206 9.552 3.86 2.732 1.652 5.575 3.003 6.318 3.001.743-.003 3.247 1.089 5.564 2.424 4.66 2.685 14.293 7.596 21.586 11.004 2.606 1.217 6.232 2.996 8.057 3.952 1.825.956 4.048 1.739 4.94 1.739.891 0 1.888.523 2.215 1.163.505.989 14.41 6.622 21.117 8.556 1.158.334 4.238 1.67 6.845 2.97 2.606 1.3 8.766 3.332 13.689 4.515 4.922 1.183 12.741 3.53 17.374 5.216 4.634 1.686 12.689 4.189 17.901 5.563 5.213 1.373 10.9 3.032 12.637 3.686 1.737.654 6.002 1.868 9.477 2.7 3.475.83 8.623 2.325 11.44 3.323 2.818.997 6.486 1.812 8.152 1.812 1.82 0 4.891 1.72 7.694 4.31 6.424 5.934 16.214 9.781 27.007 10.614l9.015.695 4.938-6.832c3.146-4.353 4.938-8.024 4.938-10.118 0-1.808.947-5.661 2.106-8.562 1.158-2.902 2.106-6.35 2.106-7.664 0-1.313 1.198-3.75 2.663-5.415l2.662-3.028 7.078 2.265c7.661 2.453 12.869 7.142 12.869 11.589 0 1.571 2.597 5.78 6.318 10.235 3.475 4.161 6.318 8.559 6.318 9.772 0 3.907 6.014 13.15 16.295 25.045 5.517 6.382 10.03 12.099 10.03 12.703 0 .604 1.228 2.488 2.728 4.187 3.06 3.466 8.855 13.424 8.855 15.218 0 .643 3.522 5.486 7.825 10.763 4.304 5.276 8.159 10.886 8.566 12.466.408 1.58 8.022 12.126 16.921 23.436 8.899 11.309 16.18 21.16 16.18 21.89 0 .73 1.274 2.54 2.83 4.022 3.546 3.375 7.623 11.276 7.667 14.856.018 1.491.714 3.396 1.547 4.232.833.837 3.558 4.98 6.055 9.206 2.497 4.227 5.521 9.204 6.72 11.06 7.425 11.495 14.537 29.239 17.955 44.791.847 3.855 1.96 8.443 2.47 10.195.513 1.752 1.924 7.2 3.137 12.106 1.213 4.907 3.371 11.215 4.795 14.018 1.424 2.804 3.27 6.83 4.104 8.947.833 2.116 2.5 4.93 3.707 6.25 1.705 1.867 2.193 3.93 2.193 9.265 0 4.682.636 7.96 2.001 10.316 1.429 2.465 2.185 6.674 2.646 14.717.355 6.196 1.113 12.323 1.684 13.616.572 1.293 1.04 6.41 1.04 11.373 0 8.446-.205 9.244-3.213 12.508-2.916 3.166-3.28 4.442-3.948 13.857-.722 10.169-.835 10.498-5.78 16.885-2.775 3.583-5.441 6.515-5.926 6.515-.485 0-1.447.823-2.137 1.83-.69 1.006-2.594 2.185-4.232 2.62-1.637.436-3.81 1.906-4.829 3.268-1.018 1.362-2.388 2.477-3.044 2.477-.656 0-3.534 2.876-6.395 6.392-2.862 3.515-6.635 6.91-8.385 7.545-7.914 2.867-18.85 8.686-24.76 13.175-5.137 3.901-14.998 5.244-39.072 5.319-16.854.053-20.983-.286-22.533-1.847-1.302-1.311-5.568-2.168-13.587-2.73-23.262-1.627-23.89-1.789-36.27-9.367-5.498-3.366-9.604-4.926-14.215-5.402-3.566-.369-8.853-1.99-11.749-3.604-7.18-4.002-32.97-7.87-37.46-5.619-1.945.975-5.652 1.263-10.178.79-38.797-4.054-45.607-3.562-57.006 4.119-1.395.94-9.087 2.275-17.375 3.016-8.598.769-15.316 1.952-15.925 2.804-.58.81-3.304 3.335-6.055 5.609-2.75 2.274-5.002 4.68-5.002 5.348 0 .667-.942 1.213-2.093 1.213s-3.876 2.333-6.055 5.184c-2.178 2.852-6.714 6.892-10.08 8.978-4.025 2.496-6.86 5.314-8.287 8.243-1.193 2.447-3.652 5.358-5.465 6.468-4.923 3.016-6.98 5.605-6.98 8.784 0 1.57-1.177 4.205-2.615 5.855-4.105 4.712-3.843 5.467 7.238 20.906 4.075 5.677 4.086 5.725 2.106 8.537-4.232 6.007-4.496 6.086-17.5 5.233-9.646-.633-12.729-.43-14.078.924-1.75 1.757-17.465 3.466-24.643 2.68z"/></g></svg>