<svg xmlns="http://www.w3.org/2000/svg" width="384.001" height="163.2" viewBox="0 0 384.001 163.2"><path d="M30.48 0h1.68v.24c3.945 4.854 8.774 8.825 11.28 15.12 1.068-.188 1.44.32 2.4.24 1.799 1.037 3.489 2.332 6 2.64 3.783.464 8.396-.451 12.24-.48 6.101-.046 12.143 1.652 18.24 1.92 3.442.151 7.167.52 10.8.24 6.406-.493 12.348-4.104 18.72-4.56 8.697-.623 17.125.84 25.92.24 6.622-.452 12.243-3.045 18-5.04 5.921-2.052 11.874-3.991 18.48-4.32 6.563-.327 13.276-.25 19.92-.72 4.626-.328 7.932-.012 12.24.24 10.146.593 17.8 2.811 25.44 5.04 5.69 1.661 11.175 3.773 16.56 6.24 2.134.978 4.073 2.08 6.96 2.64 2.049 1.631 4.923 2.438 7.92 3.12-.199.771-.204.498.24.96 1.054.386 2.709.171 3.36.96-.349.131-1.241-.281-1.2.24 1.274.246 3.056-.016 3.6.96-.349.131-1.24-.28-1.2.24 2.101.62 4.776.664 5.761 2.4-.744-.024-1.331.109-1.681.48 1.828.492 3.481 1.159 5.04 1.92-.106.693-1.813-.213-1.92.48 2.55 1.211 5.35 2.171 7.2 4.08-.596-.035-1.165-.044-1.2.48 3.622 1.578 6.611 3.789 9.36 6.24-.055.346-.717.083-.72.48 3.042 2.157 5.935 4.465 8.399 7.2-1.054.32-1.983-.718-2.64 0 1.327.985 2.259 2.297 3.6 3.36 1.208.957 2.938 1.516 3.841 2.88-.73.15-2.067-.307-2.4.24 2.705 3.775 5.801 7.16 9.12 10.32-1.142.25-1.315-.98-1.92 0 2.72 3.04 5.6 5.92 8.399 8.88-.501.473-1.594.184-2.16 0 2.465 3.616 6.237 5.923 9.36 8.88-.837.43-2.2-.037-2.64.239 1.757 2.403 4.458 3.862 6.479 6-.422.139-1.41-.29-1.439.24 2.003 2.374 4.338 4.335 6.96 6.24.811.589 1.806 1.079 2.399 1.92-.573.146-1.741-.301-1.92.24 1.544 1.176 3.389 2.051 4.8 3.36-.422.138-1.409-.291-1.439.239 1.641 1.08 3.07 2.37 4.8 3.36 1.265 1.456 3.571 1.869 4.561 3.6-.349.132-1.241-.28-1.2.24 3.157 1.962 6.74 3.499 10.08 5.28-.25.551-1.714-.114-1.92.479 3.297 1.903 6.924 3.477 10.56 5.04-.106.693-1.813-.213-1.92.48 2.478.969 4.921 2.307 7.44 3.359.866.362 1.91.341 2.399 1.2.028.414-1.877-.485-2.16.24 1.883 1.158 4.498 1.582 6 3.12-.349.131-1.24-.28-1.199.24 2.073 1.126 3.702 2.697 5.52 4.08.172.651-1.132-.172-.96.479 1.05.552 1.789 1.952 2.64 3.12 1.208 1.658 2.422 2.6 2.641 4.08v.72h-.24c-.325.808-1.853.806-2.88 1.2-.75.288-1.245.724-1.92.96-10.163.83-16.811-2.516-23.521-5.28-1.311-.564-.478.519-1.68.48-2.63-1.356-5.186-3.261-8.16-4.32-.904-.322-1.968-.162-2.88-.479-1.27-.442-2.537-1.48-3.84-2.16-1.271-.664-2.718-1.756-3.84-2.16-.706-.254-1.407-.562-2.16 0-1.23-1.568-3.191-2.756-5.04-3.84-1.813-1.063-3.701-2.253-5.521-2.641-1.978-1.781-3.811-3.709-6.72-4.56-1.968-2.112-4.535-3.625-6.479-5.76-.655.175-.483-.478-.961-.48.082.481-.049.751-.479.72-1.291-2.229-3.501-3.538-5.28-5.279-1.708-1.673-3.113-3.881-5.52-4.8-1.737-1.748-3.679-5.138-5.521-6.48-.568-.415-.899-.574-1.439-.48-1.866-2.531-3.315-5.104-5.521-7.199-.722-.687-1.701-.954-2.399-1.681-1.092-1.134-1.923-2.927-2.881-4.319-.973-1.417-1.851-3.022-2.88-4.32-.647-.818-1.544-1.361-2.16-2.16-2.082-2.704-3.196-6.144-5.279-8.64-.401-.481-1.065-.878-1.44-1.44-1.671-2.504-2.185-5.582-3.6-8.16-.131-1.101-1.02-.05-1.2-1.2-.865-2.334-1.567-4.833-2.4-7.2.031-.594-.293-.408-.239 0 .166.194.373.658 0 .72-.941-2.579-1.55-5.49-2.16-8.4-1.216 1.21-1.536 2.939-2.641 4.56-1.015 1.49-2.576 2.314-2.88 4.08-.543 3.16 1.018 7.83 2.16 10.8 3.489 9.073 9.397 15.878 15.84 22.32 3.539 3.539 8.374 8.271 13.681 11.76 2.821 1.855 5.832 2.651 8.159 4.56 2.237 1.834 4.926 4.967 5.761 7.921.937 3.315 1.761 6.801 2.88 10.319 2.084 6.554 4.124 12.805 6.479 19.44 1.153 3.248 2.936 6.885 3.12 9.84.206 3.28-1.182 5.427-2.64 8.16-1.132 2.121-2.428 5.642-4.32 6.24-1.53.484-4.851.256-6.72.239-3.84-.032-10.055-.046-10.32-2.88-.221-2.362 3.949-4.157 6-5.279 2.328-1.274 5.846-2.782 6.24-5.28.356-2.255-1.021-5.546-1.92-7.92-2.626-6.934-5.553-14.194-9.36-19.92-5.551-8.348-12.721-13.874-20.88-18.24-4.592-2.458-9.415-3.856-13.68-6-13.057-6.564-23.034-15.47-33.36-25.2-2.543 3.615-3.615 7.25-3.12 13.68.521 6.754 3.792 15.133 6.48 21.12 1.015 2.262 1.889 4.801 2.88 6.24 1.333 1.937 3.539 2.581 3.6 5.76.104 5.428-3.962 8.333-6.96 11.76-3.903 4.464-7.473 11.404-9.6 17.521-1.11 3.193-1.454 6.743-3.601 9.84-1.936.821-3.423.592-5.04 1.2-2.841 1.069-4.574 3.715-8.64 3.84h-11.04v-.24c-1.244-.222-1.772-1.737-1.68-2.399.3-2.142 5.604-3.717 8.16-3.84 2.94-3.621 6.561-6.56 11.28-8.4 3.118-6.101 6.07-13.219 8.4-20.16.85-2.53 2.042-5.5 1.92-7.68-.1-1.777-1.481-4.148-2.4-6.24-4.597-10.468-9.384-19.961-14.64-29.04-2.227-3.846-4.525-7.583-5.52-12-.725.94-1.302-1.554-2.16-.48.39-.072.647.324.24.48-.578.075-1.162-1.047-1.68-.24.554.148 1.448.476.96.96-.799-.091-1.549-1.476-2.4-.72.177.383 1.175-.055.96.72-1.105.215-1.643-1.383-2.64-.48.354.348 1.571.353.96.96-.871-.021-1.621-1.406-2.4-.72.427.133.997.124 1.2.48-.844.793-1.993-1.107-2.88-.24.596-.036.996.124 1.2.48-.811.201-2.043-.105-2.64 0-.271.048-.258.486-.48.479-1.333-.039-1.026-.375-2.16 0-.697.231-1.133-.217-2.16-.24.067.001-.153.455-.24.48-1.635.481-2.699-.971-4.08-.48.426.454 1.758.001 1.68.96-1.65-.278-2.684-.465-4.08 0-2.212-.677-4.669-.634-7.2-.96.565.234 1.522.078 1.44.96-1.957-.413-3.568-.896-5.52-1.2.584.296 1.558.202 1.68.96-2.07-.029-3.592-1.215-5.28-1.2.674-.012 1.484.218.96.72-1.323-.276-1.702-1.251-2.88-.479-.443-.213-1.286-1.252-1.68-.72.523-.043.763.196.72.72-1.154-.198-3.153-2.068-1.68-.24-1.106.058-1.827-1.522-2.64-.96.459.101 1.033.087.96.72-1.318.271-1.72-1.628-2.64-.96.224.256.885.075.72.72-1.15.181-1.439-1.749-2.4-.96.352.208.761.359.72.96-.759-.361-1.452-.789-1.92-1.44.407 3.001 3.868 5.17 4.32 7.68.994 5.521-5.89 7.185-6.24 10.8-.901 9.301-1.379 18.571-1.92 30.48-.158 3.488.174 7.785 0 11.521-.29 6.238-1.585 11.025-3.6 16.8-1.65 4.728-3.959 11.167-6.48 11.76-3.057.719-12.046.855-18.72 1.44-1.798.157-4.982.659-5.52-1.44-.651-2.54 3.013-5.404 4.56-6 .81-.312 2.683-.189 3.36-.479 1.703-.73 1.909-2.656 3.36-3.36 1.746-.847 4.751-.224 6.24-1.2 2.606-1.709 4.017-12.152 3.6-21.12-.445-9.563-1.405-20.433-1.92-29.52-3.817 2.555-8.001 4.756-12.48 6-.737.204-1.707.191-2.4.479-2.536 1.057-5.198 4.348-7.2 6.96-2.804 3.659-5.591 7.649-5.76 12.24-.199 5.396 1.312 10.712.72 15.6-.372 3.073-1.524 3.195-3.12 5.28-.844 1.103-1.039 2.302-1.92 2.88-1.118.734-2.616 1.076-4.08.48 1.72-7.944.211-18.593.72-27.36.574-9.901 4.222-16.263 9.36-21.36 6.643-6.59 15.678-10.823 20.4-20.16-8.627-9.133-20.052-15.468-28.08-25.2-3.06-.693-5.773-2.858-9.36-3.6-3.594-.743-7.944-.969-12-1.2-11.454-.651-20.21 2.942-27.36 6-1.917 2.316-4.506 5.466-7.44 8.4-2.791 2.792-5.513 6.205-8.4 7.68-2.476 1.265-6.388 1.369-7.44-1.44.078-.562 1.047-.233 1.2-.72-1.364-1.06-3.144-2.903-2.64-5.04 1.795.364 2.071 2.249 3.84 2.64 1.379-1.981 3.399-3.321 4.08-6 1.326-.354 1.884-1.476 2.16-2.88 1.222-.857 2.34-1.82 2.4-3.84 1.771-.708 2.68-2.28 2.64-4.8-.702-.527-1.366.589-2.4.48-.041.679.207 1.646-.48 1.68-1 .12-1.059-.702-2.16-.48-4.295 2.265-6.144 6.976-11.28 8.4.058 1.382 1.146 1.734 1.2 3.12-3.123.677-2.746-3-5.52-1.92-.064 1.104 1.006 1.074 1.2 1.92h-3.6C4.896 61.824 1.636 61.724 0 60v-1.44c1.543-2.253 4.125-5.468 6.48-8.16 1.954-2.233 5.579-4.999 6.72-7.44.708-1.514.634-3.354 1.2-4.8 1.076-2.747 3.146-4.904 4.8-6.96.852-1.059 1.667-2.147 2.64-3.12.828-.828 2.259-1.489 2.4-2.88-1.087-3.504-.705-6.845-2.16-9.6-1.221-2.313-5.134-3.648-3.6-6.72 3.726-.239 6.991 2.735 9.84 4.56.046.03.717 1.305.72.24.231-5.023-3.761-11.965 1.44-13.68z" fill-rule="evenodd"/></svg>