<svg xmlns="http://www.w3.org/2000/svg" xmlns:dc="http://dublincore.org/documents/dcmi-terms/" height="465.137" version="1.2" viewBox="0 0 192.233 465.137" width="192.233" overflow="inherit"><metadata><dc:description>Silhouette of Walliserops, processed by PhyloPic Tools (https://github.com/eweitz/phylopic-tools)</dc:description><dc:source>http://phylopic.org/image/600b0718-8a97-4064-aab2-9fea19875fc1</dc:source><dc:creator>Moussa Direct Ltd. (photography) and T. Michael Keesey (vectorization)</dc:creator><dc:license>http://creativecommons.org/licenses/by-sa/3.0/</dc:license></metadata><path d="M172.5 412.363c-4.421-1.192-6.858-5.907-10.696-8.883-1.229-.952-2.865-1.5-4.25-2.431-1.188-.798-2.243-1.943-3.414-2.657-3.498-2.132-7.63-3.243-11.61-5.392-1.292.577-2.926.469-4.174 1.137-1.36 9.908 10.999 12.037 16.462 19.662 1.628 2.272 1.894 4.199 4.097 5.921.307 2.285 1.915 5.194 2.35 8.122.374 2.526.701 8.088-3.114 7.815-1.561-.555-1.15-2.762-1.896-4.175-1.139-2.154-3.527-5.036-5.462-7.896-1.733-2.562-3.994-5.405-5.841-7.515-2.177-2.486-6.379-6.058-9.257-7.138-1.712-.642-3.675 0-5.084-1.443.162.95-.726 1.704-.836 2.504-.882 6.365 3.433 10.482 7.432 15.638 2.315 2.982 4.485 6.85 5.766 10.02 1.671 4.14 2.204 11.409-1.449 16.468.506-1.784-1.696-2.964-3.566-2.96-1.322-4.284-2.659-9.49-5.003-14.574-.991-2.15-2.464-4.299-3.565-6.756-1.622-3.623-3.685-7.624-9.181-7.365-6.122 7.634 1.384 14.369 3.105 21.024.465 1.799.585 3.94 1.061 5.92.892 3.706 1.54 7.5-1.979 11.231-1.292-.68-3.269-.266-4.4-.456-1.535-6.106-1.703-16.49-4.242-22.922-1.312-3.325-5.645-6.661-8.954-3.495-1.464 6.693.152 13.521.599 20.188.187 2.778.961 7.429-2.051 8.424-.157.884-.553 3.855-2.582 3.187-1.568-.518-1.146-3.24-1.364-4.25-.339-1.562-1.017-3.126-1.138-4.175-.62-5.396.378-13.664-1.132-17.077-.674-1.523-5.755-5.967-7.133-3.645-.797 1.342.686 1.531.606 2.731-3.236 6.756-.161 11.313-1.751 16.621-6.979 1.556-2.41-12.493-5.535-16.017-1.606-.614-2.699-2.195-4.326-2.202-3.419 4.075-2.069 10.281-2.358 14.646-.12 1.15-1.307.168-1.442 1.29.352 1.441 1.027 2.355.833 4.326-.313 3.18-2.305 10.045-4.86 9.258-2.256-.695-2.124-11.079-1.969-13.055.17-2.173.727-4.221.837-6.299.104-1.982-.213-3.929-.074-5.844.277-3.819 2.063-7.381.231-9.79-1.78-.795-4.018-2.911-5.312-2.278-1.955 4.028-3.241 8.608-4.18 14.038-.752 4.356.353 10.499-3.572 15.254-1.572-1.304-3.046-3.346-3.489-5.466-.405-1.934.421-4.387.685-7.361.223-2.504-.384-5.232-.073-7.361.312-2.138.828-5.256 1.293-6.906.57-2.029 1.965-3.663 2.354-5.54.739-3.551-.865-6-2.652-8.729-5.377.069-6.719 8.669-9.492 14.796-.354.781-1.022 1.486-1.215 2.125-.512 1.685-.199 3.577-.685 5.084-.4 1.242-1.378 2.058-1.823 3.188-.676 1.721.045 3.512-1.063 4.705-3.688-1.382-3.241-5.016-3.413-7.971-.248-4.271-.798-8.413 1.826-14.57 1.17-2.747 2.737-5.768 4.253-8.195 1.389-2.227 3.637-4.069 4.176-6.45.552-2.438-.768-6.494-2.882-7.286-2.906-1.09-6.14 3.022-8.198 5.613-2.156 2.713-5.055 6.227-6.454 8.726-.793 1.416-.862 3.088-1.443 4.325-.404.86-1.168 1.38-1.443 2.049-.56 1.364-.504 4.541-2.733 4.4-2.495-3.433-.977-8.87-.451-13.813 2.734-6.012 6.462-11.2 11.01-14.795 1.583-1.251 4.044-1.762 5.01-3.642.949-1.847.252-5.751-1.288-6.755-1.787-1.164-6.955-.883-8.5-.307-2.599.971-4.628 4.524-7.136 6.98-1.184 1.159-2.529 2.212-3.644 3.338-1.062 1.073-1.988 3.236-3.719 2.807-2.459-9.345 6.935-16.763 13.895-18.893 2.385-.73 5.965-.997 6.832-3.034.723-1.697-.323-3.553-.15-4.857-1.559-.104-2.877-.308-4.402-1.215-3.006 1.271-5.979 1.029-8.88 2.35-3.293 1.499-5.163 5.794-9.261 5.765 1.053-4.906 5.012-10.262 9.036-11.912 3.739-1.533 13.042-.279 9.564-6.676-4.426-2.341-7.903-.009-11.839-.156-2.211 1.396-3.24 5.161-6.377 4.704.707-6.444 5.427-10.258 10.553-11.154 3.396-.593 7.717.622 7.363-4.626-3.357-.761-6.476-2.522-9.562-2.432-3.542.104-5.531 3.251-8.729 4.171 1.005-3.87 2.145-7.09 5.846-8.423 2.853-1.026 7.175.516 9.185-1.742 1.138-1.279.784-3.093 2.43-4.249-6.838-2.474-12.518-4.908-16.848-1.828-1.467 1.045-2.425 4.238-4.404 4.098-.657-1.324.832-4.416 1.899-5.691 2.138-2.554 9.217-5.729 13.587-5.08 1.166-1.006 3.132-2.271 3.492-3.642-4.585-3.864-11.704-6.012-16.013-2.813-1.307 1.433-1.949 4.2-4.403 3.337 1.676-7.075 6.134-10.619 12.071-10.393 2.188.083 5.424 1.47 6.072-2.275-1.357-2.508-4.969-1.969-7.513-2.507-3.769.937-6.456 4.038-10.096 5.232-.306-2.615 1.941-4.091 3.569-5.386 1.547-1.233 3.076-3.145 4.858-3.946 2.84-1.273 7.582.17 8.653-3.943-1-3.021-5.682-3.54-8.196-2.735-2.819.576-4.742 4.916-7.363 4.628.524-2.265 1.574-3.849 2.734-5.16 4.104-4.639 13.343-3.473 11.919-11.456-2.109-.819-4.094-1.124-5.768-.913-4.362.553-6.463 5.661-9.793 6.6.415-4.128 4.877-8.593 7.973-11.002 4.651.63 8.997-4.317 8.808-9.711-7.535-1.537-11.858 3.353-15.562 9.481-.825 2.019-1.611 4.118-3.417 4.172 2.328-7.084 5.411-12.723 10.783-16.389 3.443-2.35 7.239-3.671 7.365-9.939-7.027-5.323-11.081 4.122-15.182 8.343 1.294-4.438 2.37-7.174 4.557-9.864 1.706-2.098 4.665-2.645 6.301-4.476 1.563-1.749 2.718-4.333 3.417-7.209-1.406-.917-1.536.723-2.808.074-.409-3.592-6.499-3.947-9.031-2.507-2.6 7.115-3.887 14.593-5.093 22.843-.797 5.457-2.709 10.874-3.572 16.012-.399 2.378.018 4.905-.382 7.211-.679 3.915-1.731 8.317-3.191 11.838-1.669-2.891-.436-6.48-.301-9.715.269-6.422.371-12.973 1.146-20.111.645-5.941 1.191-11.366 2.511-18.138.499-2.559.528-5.233 1.065-7.741.228-1.068.884-2.105 1.063-3.188.179-1.084-.357-2.229-.151-3.339.14-.751.783-1.479.988-2.201.483-1.705.375-3.545.761-5.312 1.524-6.986 4.373-13.661 6.23-20.186 1.775-6.235 1.104-13.25 2.815-19.808 1.238-4.748 3.88-9.172 5.166-13.962.519-1.935.514-3.772 1.444-5.843 1.279-2.852 3.694-5.865 5.694-8.727 2.128-3.043 4.257-6.318 6.151-7.814.675-.534 1.689-.697 2.429-1.213 1.764-1.232 3.001-3.25 5.163-4.097 1.297.208 1.543.241 3.263.077 1.634-3.65 4.661-7.774 9.641-4.626 3.797-2.653 8.75-2.991 11.16-8.421 5.421-.794 10.883-1.506 17.456.007 3.852-7.545 3.042-14.073.462-20.34-2-4.857-2.794-8.841-5.611-12.752-2.121-2.943-4.912-5.234-6.828-8.351-1.111-1.809-1.643-4.076-2.806-5.997-1.988-3.282-4.535-6.407-6.675-9.565-2.204-3.253-3.791-6.741-5.46-10.172-3.876-2.933-4.001-7.74-5.081-12.069.586-2.871 1.33-5.562 1.065-8.5-.196-2.194-1.777-3.924-.681-7.059.358-1.022 1.397-1.932 1.747-2.958 1.704-5.013 2.973-10.203 4.104-16.089.244-1.497.963.155 1.139-1.137 2.483-7.445 5.87-14.641 9.19-21.476 2.782.847.977 3.501.529 5.237-.5 1.939-.608 4.261-.836 6.299-.468 4.163-1.964 8.743-1.599 12.371.201 1.995 1.253 3.513.985 5.388 1.702 4.749 5.03 9.261 6.75 14.65.665 2.084.598 4.597.984 6.906.373 2.239 1.331 4.329 1.895 6.453.641 2.413.198 5.165.226 7.665.099 9.108 3.223 19.965 6.061 28.843.818 2.558 2.01 7.852 4.626 8.123 3.114.322 3.375-6.84 3.191-9.562-.241-3.554-2.602-8.345-2.5-11.461.084-2.596.936-4.67 1.216-6.678-1.323-1.49-.992-3.805-2.882-5.01-.318-2.688-1.118-5.096-.756-7.591.338-2.339 1.239-3.92.913-5.768-.281-1.592-1.508-2.893-1.896-4.934-.455-2.392-.526-5.145-1.06-7.438-.757-3.258-1.014-7.512-.375-11.764 1.088-7.247 1.069-15.366 5.168-22.311-.239-1.083-.934-1.937-.682-3.264 2.35-1.464.482-5.12 2.507-7.513.463.338-.365 1.321.532 1.442.75-.268 1.074-1.39 1.668-1.972 1.181 4.405.876 9.554 1.589 14.193.189.728 1.304.993 1.441 1.746.883 5.408 3.654 10.135 4.775 16.015.358 1.875 1.368 3.75 1.517 5.313.136 1.431-.506 3.168-.609 4.857-.141 2.311.519 4.693.302 6.678-.146 1.339-.914 2.559-1.063 3.947-.41 3.782.854 8.06-1.295 11.46 1.299 2.627.371 6.545-.762 9.865.07 8.249-2.257 17.696-1.147 25.425 5.999 6.084 7.11-5.88 8.124-10.698.69-3.277 2.214-6.622 2.964-10.396.711-3.573 1.779-10.115 2.13-13.964.394-4.31-.979-7.592-.071-11.915.258-1.234 1.083-2.492 1.292-3.87.398-2.639-1.139-5.769-.908-8.652.054-.672.583-1.394.684-2.049.355-2.304-.352-4.595.078-6.3.423-1.675 1.58-3.15 2.051-4.628.998-3.139 1.775-6.715 2.204-9.638.387-2.633-.529-5.298-.149-7.894.304-2.071 1.16-4.137 1.293-6.147 3.776 3.805 4.905 8.932 6.522 13.815.128.632 1.2.792 1.593 1.292-.367 2.333 1.948 3.326 1.971 5.465.583.595 1.373 1.085 1.974 1.67.468 4.22 3.804 7.488 4.625 11.917.272 1.466-.201 3.094-.078 4.782.104 1.407.676 2.733.683 4.022.013 2.314-.901 4.807-.079 7.058-.854-.032-1.061-1.142-1.289.076-.322 1.267 1.292.456 1.213 1.67-2.302 8.272-4.906 16.065-7.824 21.93-.77 1.545-2.4 3.549-3.265 5.235-1.273 2.481-1.805 5.242-3.343 7.741-5.157 8.379-13.038 14.694-16.176 26.482-1.083 4.069-1.14 7.724-.99 12.066.116 3.384-.256 9.201 2.426 10.17.889.322 4.48-.954 5.692-1.136 2.056-.31 4.295.064 6.071.002 1.713-.06 3.085-.992 4.706-.453 1.388.461 2.363 2.123 3.643 2.732 1.197.572 2.758.401 4.477.989 2.111.721 3.971 2.535 5.615 2.886 1.039.221 2.058-.325 3.036.001 1.016.338 2.208 1.821 3.413 2.657 1.572 1.091 3.538 1.593 4.554 2.279 2.509 1.692 4.729 4.793 7.36 6.757 1.3.97 2.975 1.419 4.021 2.354 1.697 1.515 2.979 4.404 4.627 6.604 2.104 2.808 3.169 5.765 4.4 8.805 3.217 7.953 5.898 17.51 7.048 26.642 1.866 1.786.726 5.077 2.199 7.059 1.752 1.898 2.837 4.728 4.095 7.439.906 1.95 2.981 4.276 1.439 6.3-2.444.054-2.959-2.419-4.399-3.492.378 2.351 1.989 4.155 2.653 6.451.717 2.48 1.312 4.689 2.123 7.287 1.254 4.021 2.254 8.426 3.259 12.978 1.273 5.771 1.486 11.905 2.575 18.063.542 3.074.252 6.174.679 9.336.398 2.95 1.51 5.801 1.894 8.729.413 3.137.343 6.302.377 9.487.033 3.092.917 6.167.225 9.184-2.285-5.795-3.234-12.424-4.548-18.976-1.29-6.448-2.151-13.081-4.243-19.128-1.032-2.985-3.145-5.327-3.488-8.5-2.225-2.838-8.782-5.802-12.976-5.85-1.017 1.438-1.049 3.734-1.292 5.389 2.531 4.177 11.515 6.131 11.533 10.933-3.703-2.358-11.811-5.817-12.903-.004-.19 1.014 1.188 4.372 2.503 5.39 1.142.881 2.838.739 4.325 1.443 1.792.848 2.907 2.714 4.477 4.023 3.013 2.514 7.006 4.595 5.765 7.744-2.85-2.118-5.099-4.535-8.193-6.531-2.856.062-7.479-2.11-8.729 1.136-.41 1.065.773 4.797 1.896 5.693 2.519 2.015 7.299 2.072 10.169 4.405 1.567 1.274 2.59 3.229 3.337 4.402 1.007 1.58 2.124 3.074 2.124 5.011-1.679-.379-2.809-2.461-3.187-4.1-4.773-5.962-17.212-5.719-16.926 3.713 4.166 1.519 9.388.881 13.356 3.192 2.078 1.21 4.016 3.687 5.69 5.694 1.626 1.95 4.021 4.147 3.489 6.224-2.063.498-2.562-2.24-3.869-3.567-.866-.879-3.334-3.201-4.554-3.797-4.525-2.215-10.539-1.861-12.751 1.058 2.73 4.51 10.298 4.167 14.723 6.685 1.821 1.036 3.699 2.802 5.234 4.024 1.448 1.151 3.829 2.608 3.489 4.707-3.782-.152-7.327-3.81-12.673-5.242-3.538-.948-6.836-1.944-9.789-.23-1.466.849-3.545 3.221-1.521 5.312 3.768.688 8.797-.025 13.281 1.902 2.713 1.166 5.18 3.264 6.83 5.315-3.779.786-7.281-2.449-11.384-3.04-4.452-.644-15.081 3.666-10.477 8.648 8.141-.294 18.106 1.816 21.779 8.279.786 1.384 1.521 3.83.909 5.616-2.92-1.668-3.268-4.606-5.994-6.301-6.477-4.023-16.145-1.38-21.631.372 1.057 2.255 1.205 4.962 2.428 7.136 7.399 3.966 15.723 1.385 20.412 7.823.978 1.343 1.582 3.414 2.351 5.086.789 1.716 2.226 3.455 1.517 5.312-1.82-1.134-2.891-2.937-4.325-4.479-2.019-2.171-4.589-5.235-9.257-6.377-1.576-.387-3.223.066-4.705-.306-2.826-.709-11.285-1.921-9.716 4.096 1.093 4.187 10.511 3.742 15.328 5.621 4.014 1.563 7.411 5.07 8.878 8.274.673 1.472 1.655 3.569.832 5.086-3.298-.179-5.044-5.261-8.498-7.137-4.623-2.513-9.447-2.626-14.039-3.42-1.005-.29-.089 1.172-.986.682-2.338-.112-3.159-.144-4.857 2.428 1.617 6.95 13.007 5.416 18.06 9.569 5.288 4.347 8.561 11.218 7.963 17.838-2.594-.618-3.532-3.663-3.794-6.073-4.291-4.846-16.246-14.325-23.826-10.482-1.306.663-3.978 3.016-3.646 4.856.3 1.656 4.626 3.313 7.134 4.404 6.176 2.689 10.399 4.643 14.567 8.657 2.272 4.304 4.987 8.385 5.005 13.815-.029.079-.055.155-.081.231z" fill-rule="evenodd"/></svg>