<svg xmlns="http://www.w3.org/2000/svg" xmlns:dc="http://dublincore.org/documents/dcmi-terms/" height="371.822" width="413.589"><metadata><dc:description>Silhouette of Xanthomonadales, processed by PhyloPic Tools (https://github.com/eweitz/phylopic-tools)</dc:description><dc:source>http://phylopic.org/image/6f2a49f4-d96b-415c-b146-4ba6d0980e98</dc:source><dc:creator>Matt Crook</dc:creator><dc:license>http://creativecommons.org/licenses/by-sa/3.0/</dc:license></metadata><path d="M410.022 18.405C406.673 7.883 395.208 3.001 384.955 2.52c-10.253-.483-27.79 8.528-39.413 16.802-11.623 8.274-14.212 13.42-22.399 20.621-8.186 7.2-4.11 2.403-25.735 21.147-21.624 18.743-66.686 86.271-82.024 111.04-15.34 24.77-12.413 21.167-20.79 33.02-8.377 11.853-24.66 23.51-30.537 36.263-5.877 12.753-6.434 24.127-3.582 33.73 2.853 9.603 5.954 15.867 16.531 20.307 10.578 4.44 29.349 2.203 42.461-3.947 13.113-6.149 21.586-18.95 32.113-26.253 10.526-7.303 21.025-10.823 28.877-18.563 7.853-7.74 13.193-18.64 21.086-28.963 7.894-10.323 17.56-18.922 27.04-30.242s17.91-23.668 28.343-39.337c10.434-15.668 26.928-39.232 35.305-53.767 8.377-14.535 9.131-16.616 12.482-29.319 3.35-12.702 8.658-36.13 5.309-46.653z" fill="#fff" stroke="#000" stroke-width="5"/><path d="M283.073 178.573c4.258-8.608 23.602-18.506 30.901-27.43 7.299-8.924 6.655-15.521 13.99-24.085 7.334-8.564 22.99-16.96 30.935-25.042 7.944-8.083 20.255-17.036 17.36-22.222-2.895-5.186-4.276 4.754-7.393.822-3.118-3.933 11.635-17.831 7.579-21.366-4.056-3.536-4.96 5.05-8.536 4.42-3.577-.63-3.558-9.194-8.249-8.96-4.691.235-5.116 12.172-9.611 12.797-4.496.624.521-9.136-8.935-6.8-9.456 2.336-10.376 29.028-19.934 42.8-9.558 13.772-30.222 26.412-37.439 38.033-7.216 11.621-1.7 19.307-9.408 27.125-7.707 7.818-30.828 6.342-34.933 12.678-4.104 6.336 2.19 5.106.593 8.113-1.597 3.007-8.874 2.146-10.661 6.123-1.787 3.977 4.835 8.61 2.82 13.575s-15.004 4.932-15.142 10.247c-.138 5.315 10.438 3.31 10.866 8.206.427 4.897-12.491 6.192-10.823 11.619 1.668 5.427 11.539 7.203 17.733 4.048 6.195-3.156 4.147-16.277 9.248-21.63 5.1-5.351 14.328-4.001 18.74-9.103 4.413-5.102 1.409-15.656 5.945-18.716 4.536-3.06 9.424 4.213 13.152 1.008 3.727-3.206-3.056-7.651 1.202-16.26z" stroke="#000"/><path d="M291.069 144.026a11.707 8.308-60.313 1 1 14.434 8.23 11.707 8.308-60.313 1 1-14.434-8.23z" style="marker:none" color="#000" fill="#333" stroke="#333" stroke-linecap="round" stroke-linejoin="round" overflow="visible"/><g><path d="M4.957 350.217c4.749 9.823 14.923 16.485 43.74 18.667 28.818 2.183 90.903-4.204 128.11-10.374 37.208-6.17 50.5-8.606 77.747-19.975 27.248-11.368 76.239-36.361 91.067-52.774 14.829-16.412 13.653-24.96 12.72-29.652-.932-4.693-2.658-8.03-21.307-16.566-18.649-8.535-61.331-8.493-95.805-7.933-34.474.56-73.765 7.215-108.15 16.898-34.385 9.682-76.8 27.049-96.836 40.257-20.036 13.208-22.743 16.239-28.034 27.277-5.29 11.038-8.002 24.35-3.252 34.175z" fill="#fff" stroke="#000" stroke-width="5"/><path d="M288.413 283.555c1.599-7.41-35.847-18.189-47.738-20.518-11.89-2.328-15.203-1.986-20.735.397-5.533 2.384-5.113 8.416-10.794 10.99-5.681 2.576-12.564-1.629-21.985 1.247-9.42 2.875-23.281 18.721-31.88 18.932-8.598.21-4.21-6.215-12.84-6.797-8.629-.583-24.987 9.613-35.076 12.886-10.09 3.272-15.285 5.679-25.283 7.14-9.998 1.463-30.478-7.325-34.35.52-3.873 7.846 4.001 9.635 10.815 14.567 6.814 4.932 18.888 8.83 30.677 10.197 11.788 1.367 25.65.548 38.722-3.492 13.073-4.04 25.338-17.63 37.726-21.08 12.389-3.45 25.417 1.984 33.926-1.144 8.509-3.129 7.433-9.355 16.015-12.714 8.583-3.359 26.891.128 34.75-2.618 7.86-2.746 6.017-6.496 12.493-8.492 6.477-1.996 23.958 7.388 25.557-.021z" stroke="#000"/><path d="M127.673 300.443a9.5 9.5 0 1 1 10.681 15.713 9.5 9.5 0 1 1-10.681-15.713z" style="marker:none" color="#000" fill="#333" stroke="#333" stroke-width="1.00019291" stroke-linecap="round" stroke-linejoin="round" overflow="visible"/></g></svg>