<svg xmlns="http://www.w3.org/2000/svg" xmlns:dc="http://dublincore.org/documents/dcmi-terms/" height="1000" viewBox="0 0 1000 1000" width="1000"><metadata><dc:description>Silhouette of Xanthidium, processed by PhyloPic Tools (https://github.com/eweitz/phylopic-tools)</dc:description><dc:source>http://phylopic.org/image/36db6dfe-7681-4fa0-9750-8c03868412b0</dc:source><dc:creator>Sergio A. Muñoz-Gómez</dc:creator><dc:license>http://creativecommons.org/licenses/by-nc-sa/3.0/</dc:license></metadata><path d="M558.336 492.553c2.52.295 4.722.426 7.074.611 5.092.402 9.594 2.198 14.249 4.084 3.654 1.479 8.202 4.701 10.677 7.99 1.184 1.574 2.924 4.141.918 5.918-1.918 1.699-3.727-.348-5.502-1.334-7.135-3.965-15.652-5.205-23.719-5.016-5.448.127-15.43 4.434-20.401 1.695-4.586-2.523-1.862-8.123.869-10.938 4.636-4.778 9.841-3.711 15.835-3.01zM456.57 509.072c.266-.977-7.383-6.447-8.59-6.402-3.319.125-4.45 3.191-5.664 5.838-2.369 5.168-2.186 11.525-2.947 17.064-.813 5.904-3.692 17.869.635 22.381 5.188-2.32 5.687-14.072 7.497-19.033 2.47-6.766 7.285-13.299 9.069-19.848zM509.832 523.742c-13.541-9.871-3.561 20.506-3.313 23.164.619 6.645.039 15.5 4.148 20.766 5.318-5.492 2.887-22.73 2.148-30.1-.374-3.746.427-11.345-2.983-13.83zM583.219 329.688c3.151 6.739-4.531 20.432-6.569 27.232-2.764 9.22-6.125 20.333-4.683 30.651 2.461 17.595 11.145 31.519 25.527 43.164 2.453 1.986 15.68 8.565 14.02 12.603-1.682 4.086-27.072-7.563-31.794-9.535-12.952-5.409-23.397-20.277-25.769-33.792-2.723-15.522 4.08-30.802 9.514-44.865.547-1.415 16.565-32.276 19.754-25.458zM450.52 318.757c.672-4.607.641-26.417 5.966-28.029 8.758-2.652 6 47.65 3.368 54.162-1.76 4.354-5.185 9.629-10.014 8.846-13.321-2.16-.359-27.855.68-34.979z" stroke="#010101" stroke-width="2" stroke-miterlimit="10"/><path d="M546.848 343.014c3.169-6.316 5.143-12.879 9.168-18.812 2.143-3.157 9.953-13.682 14.137-13.144 6.408.824-.541 8.293-2.299 11.016-5.771 8.939-9.391 20.453-9.657 31.125-.241 9.601 5.609 13.361 11.306 20.338 9.859 12.074 12.312 27.395 25.316 37.186 3.104 2.336 6.572 4.396 9.834 5.161 3.311.775 6.055-.735 8.748 2.354-4.963 7.824-24.369-1.364-31.298-1.899-1.487 11.126-11.156 20.216-21.081 24.92-3.188 1.511-23.25 6.56-25.82 4.634 6.564 4.92 12.533 9.74 17.037 16.847 3.188 5.03 4.09 14.057 10.281 16.314 3.235 1.179 9.98-.354 14.148-.148 3.102.152 25.73 3.538 22.162 8.881-1.496 2.238-23.404 1.104-27.347 1.934-7.575 1.594-12.685 6.756-17.458 12.538-3.94 4.771-8.318 9.143-12.837 13.365-4.126 3.857-7.627 5.055-12.435 7.807-2.978 1.705-6.281 2.852-9.404 4.254-6.328 2.844-11.543 6.477-15.292 12.453-3.674 5.857-5.616 12.488-7.077 19.189-.868 3.982-1.534 13.629-4.896 16.195-3.974-3.563-3.765-11.564-3.872-16.49-.146-6.781 1.31-13.48 1.24-20.254-.18-17.484-12.768-12.205-26.065-14.225-16.688-2.533-31.607-10.34-45.506-19.6-5.696-3.795-14.754-6.016-20.045-.211-6.422 7.045-7.705 15.854-10.482 24.182-1.829 5.484-9.305 26.496-9.35 8.648-.026-10.297 2.539-21.322 5.18-30.814 3.275-11.772 4.653-18.962-1.851-29.357-4.767-7.618-5.367-16.372-9.366-24.265-5.275-10.413-12.176-17.965-20.827-25.384-1.875-1.607-16.68-13.61-14.668-16.377 5.873-8.069 32.041 17.593 37.551 18.973 7.847 1.963 8.295-5.635 13.302-10.053 8.663-7.645 21.432-9.457 32.369-11.496-.59.11-11.011-11.865-12.038-13.197-5.181-6.726-5.672-15.448-9.822-22.6-5.2 1.504-37.658-4.656-36.4-13.327.263-1.813 16.494 1.669 18.052 1.895 6.438.933 12.031 1.291 17.889-1.915 24.746-13.541 42.259-32.272 40.64-61.432-.198-3.577-2.004-15.15 4.191-10.146 12.769 10.313-1.936 32.979 12.749 44.022 10.812 8.132 29.346 1.597 41.728 3.457 10.263 1.543 21.113 2.371 30.623 6.87 8.022 3.795 14.122 11.391 19.542.588z" stroke="#010101" stroke-width="2" stroke-miterlimit="10"/></svg>