<svg xmlns="http://www.w3.org/2000/svg" xmlns:dc="http://dublincore.org/documents/dcmi-terms/" height="1085.06" viewBox="0 0 891.24997 1017.2437" width="950.667"><metadata><dc:description>Silhouette of Yacarerani boliviensis, processed by PhyloPic Tools (https://github.com/eweitz/phylopic-tools)</dc:description><dc:source>http://phylopic.org/image/ffbbfba7-7562-474c-bfa2-19897ecf488e</dc:source><dc:creator>Smokeybjb, vectorized by Zimices</dc:creator><dc:license>http://creativecommons.org/licenses/by-sa/3.0/</dc:license></metadata><path d="M116.294 1015.067c-.712-1.33-1.294-3.467-1.294-4.75 0-5.1-6.671-12.892-13.88-16.21-5.693-2.62-7.968-4.653-12.16-10.86-2.836-4.2-5.786-9.465-6.555-11.7-1.775-5.153-2.771-5.117-4.683.17-2.365 6.54-11.061 15.525-18.822 19.446-8.71 4.4-10.816 6.7-14.546 15.876-1.626 4-3.499 7.453-4.162 7.674-1.302.434-3.942-10.157-3.942-15.813 0-5.75 3.678-16.317 10.212-29.338 3.406-6.787 5.91-12.622 5.564-12.968-.346-.345-4.74 1.928-9.765 5.052-11.14 6.926-29.039 15.569-34.136 16.484-8.158 1.464-8.937-4.254-1.61-11.813 2.26-2.332 8.886-7.383 14.724-11.224 13.736-9.037 13.176-8.61 12.36-9.426-.387-.387-4.72.953-9.63 2.978C8.696 954.943 0 954.974 0 948.73c0-2.965 5.684-7.047 20.683-14.853 19.48-10.138 26.481-17.43 30.744-32.017 2.254-7.711 1.257-41.661-1.952-66.452-5.743-44.372-5.473-69.589 1.249-116.673 4.389-30.744 14.81-60.56 32.87-94.037l8.584-15.912-4.139-3.156-4.139-3.157-1.95 2.784c-1.072 1.531-1.95 3.521-1.95 4.421 0 .9-.897 3.729-1.994 6.285l-1.994 4.647-1.272-3.125c-2.67-6.557-3.26-11.821-2.117-18.913.98-6.085.832-7.875-.864-10.464-1.126-1.717-2.404-3.094-2.84-3.058-.437.035-2.481 3.55-4.544 7.812-2.096 4.332-5.01 8.36-6.61 9.137-4.326 2.101-8.636 6.553-10.351 10.694-.968 2.336-1.87 3.173-2.434 2.26-1.769-2.862.482-13.337 5.872-27.321 3.016-7.826 5.305-14.406 5.087-14.624-.217-.218-5.418 4.076-11.557 9.54-6.14 5.466-11.975 9.937-12.967 9.937-2.652 0-9.87 5.854-10.79 8.75-1.498 4.72-3.483 2.743-2.627-2.615 1.032-6.452 4.037-12.114 11.873-22.372 3.408-4.461 6.005-8.304 5.77-8.538-.235-.235-1.563.18-2.952.924-1.389.743-4.23 1.351-6.313 1.351-2.428 0-5.324 1.348-8.06 3.75-2.35 2.063-4.68 3.75-5.179 3.75-1.677 0 .77-6.844 3.518-9.84 2.752-3.002 14.067-11.972 25.551-20.256l2.733-1.972-3.495-9.903c-5.737-16.253-6.93-26.527-5.94-51.186.48-11.993 1.672-24.874 2.65-28.624.976-3.75 2.121-11.493 2.544-17.206.424-5.713 1.84-13.763 3.148-17.888 2.975-9.38 6.927-23.855 9.298-34.053.997-4.292 4.71-13.852 8.249-21.245 3.54-7.393 7.162-15.503 8.051-18.022 1.873-5.309 17.192-30.102 25.906-41.928 3.287-4.46 7.393-10.906 9.125-14.324 1.732-3.417 5.644-9.604 8.694-13.747 3.05-4.143 6.105-9.611 6.79-12.15 1.473-5.473 7.935-11.99 13.096-13.207 4.202-.991 18.017-10.643 18.124-12.661.04-.736 2.066-3.669 4.504-6.517 3.185-3.72 5.738-5.407 9.063-5.988 2.546-.445 10.535-4.083 17.754-8.086 7.219-4.003 16.219-8.508 20-10.012 12.539-4.986 39.23-13.763 49.241-16.191 5.427-1.317 11.052-3.455 12.5-4.753 3.232-2.895 20.49-9.304 22.203-8.246.683.422 2.465-.351 3.961-1.718 4.577-4.181 10.448-6.527 16.334-6.527 3.087 0 5.952-.547 6.365-1.216 1.065-1.724 9.328-3.768 15.788-3.906 3.016-.064 9.983-.905 15.483-1.869 19.182-3.36 57.726-6.838 88.75-8.005 17.187-.647 41.375-2.34 53.75-3.762 42.859-4.924 96.905-15.26 128.125-24.504 13.048-3.863 39.972-10.512 49.375-12.193 20.876-3.733 28.35-6.03 35.18-10.815 7.976-5.587 10.98-6.152 12.967-2.439 1.292 2.415 1.714 2.226 8.48-3.804 6.895-6.146 12.822-9.077 13.64-6.747 1.517 4.32 2.66 3.951 10.066-3.252 8.254-8.027 13.085-9.52 18.508-5.72 2.357 1.65 2.753 1.357 6.024-4.461 3.923-6.98 6.201-8.413 9.797-6.168 1.351.844 2.565 1.355 2.697 1.135.133-.22.781-2.029 1.441-4.021s2.79-4.805 4.735-6.25c3.338-2.481 3.625-2.506 5.138-.44 1.921 2.622 3.202 2.814 3.202.48 0-.938 1.166-3.188 2.59-5 2.712-3.446 8.037-4.47 9.002-1.73.303.859 1.497-.668 2.653-3.394 2.639-6.222 4.362-7.3 7.93-4.962 2.59 1.696 2.825 1.654 2.825-.51 0-3.354 4.897-9.151 7.329-8.675 1.35.264 2.77-1.203 4.172-4.31 2.162-4.79 4.368-5.843 6.912-3.3 1.05 1.051 1.634.232 2.277-3.195.546-2.908 2.018-5.365 3.989-6.656 2.904-1.903 3.233-1.898 4.676.075 1.367 1.87 1.812 1.441 3.74-3.606 1.869-4.894 2.592-5.628 4.955-5.035 2.245.563 3.169-.15 4.902-3.785 1.603-3.361 2.728-4.323 4.511-3.857 1.409.368 2.668-.14 3.093-1.249.496-1.291 1.68-1.627 3.83-1.088 2.295.576 3.114.282 3.114-1.117 0-2.135 4.548-2.631 5.234-.57.31.928 1.47.937 3.854.03C889.715.631 891.25.33 891.25.677c0 1.525-8.285 16.9-13.1 24.308-5.458 8.4-39.648 46.382-55.825 62.017-11.214 10.837-48.806 42.702-64.2 54.42-6.188 4.709-22.219 16.123-35.625 25.363-30.68 21.147-37.377 25.922-78.927 56.275-32.013 23.385-51.48 33.151-121.698 61.05-39.667 15.76-82.56 34.599-94.656 41.571-1.963 1.132-2.085 3.272-1.365 24.031l.79 22.789 9.49 2.973c5.22 1.635 11.46 3.378 13.866 3.874 2.406.495 11.406 2.783 20 5.085s20.969 4.802 27.5 5.555c52.1 6.013 71.876 9.23 87.697 14.267 11.43 3.638 16.58 6.171 18.79 9.243.9 1.252 2.567 2.623 3.703 3.046 1.136.423 5.571 5.73 9.856 11.792 12.75 18.04 26.494 31.428 50.456 49.15 19.315 14.284 25.56 19.86 30.667 27.38 2.745 4.042 5.152 8.1 5.349 9.017.196.916 1.587 2.677 3.09 3.913 1.504 1.235 3.885 5.324 5.293 9.085 1.407 3.762 3.888 8.952 5.514 11.534 9.098 14.453 12.013 29.896 7.336 38.869-3.12 5.985-2.705 9.8 2.468 22.701 7.428 18.529 13.531 37.36 13.531 41.755 0 1.097-.844 1.995-1.875 1.995-1.031 0-1.875-.522-1.875-1.16 0-.639-.703-1.905-1.563-2.813-.859-.909-3.178-3.814-5.152-6.456-2.675-3.58-4.288-4.67-6.328-4.28-2.427.463-2.998-.412-5.02-7.697-2.33-8.394-3.04-10.282-8.67-23.01-3.168-7.164-3.295-7.277-7.308-6.417-2.246.481-4.267 1.04-4.492 1.24-.224.202 1.354 5.864 3.506 12.583 4.36 13.612 6.072 26.364 4.03 30.014-1.176 2.101-1.61 1.703-3.856-3.536-1.392-3.247-5.932-10.912-10.089-17.033-4.157-6.12-7.558-11.74-7.558-12.488 0-1.97-4.86-4.268-7.16-3.386-1.678.644-1.852 2.586-1.196 13.354.422 6.93.2 18.585-.493 25.9-1.786 18.85-6.302 33.14-7.877 24.924-6.304-32.893-11.993-55.71-14.092-56.515-.95-.364-3.685.272-6.08 1.413-4.12 1.965-4.353 2.414-4.366 8.407-.017 8.065-1.27 15.706-2.573 15.706-.555 0-1.4-2.672-1.875-5.937-1.114-7.642-3.998-14.934-6.248-15.798-2.394-.918-24.645-3.073-39.642-3.838-12.103-.618-12.222-.596-11.754 2.162.718 4.24 2.36 7.676 4.2 8.786.91.55 1.656 2.523 1.656 4.385 0 1.862 1.406 6.027 3.125 9.255 1.719 3.229 3.125 7.072 3.125 8.54 0 1.468 1.143 3.603 2.54 4.745 1.397 1.141 3.351 5.164 4.342 8.939.99 3.775 2.378 7.056 3.084 7.292.706.235 1.284 1.049 1.284 1.808 0 2.043 20.21 42.484 22.284 44.594 1.551 1.577 2.253 1.536 5.483-.318 2.037-1.169 4.217-1.809 4.844-1.421 1.542.953 1.452 8.965-.111 9.931-2.222 1.373-1.388 7.438 1.25 9.085 1.375.859 2.5 2.299 2.5 3.2 0 .902 1.441 2.893 3.203 4.424 3.374 2.934 6.928 2.714 10.277-.635 2.963-2.963 4.02-.616 4.02 8.927v9.228l7.188 5.458c11.574 8.789 28.76 18.92 40.421 23.83l8.234 3.466-1.31 4.188c-1.511 4.826-2.644 5.112-25.493 6.445-15.884.926-45.337-1.988-56.995-5.639-22.723-7.115-34.57-9.26-47.237-8.554-5.05.282-18.921-.01-30.823-.649-11.902-.638-21.928-.872-22.28-.52-.989.988 7.758 32.973 15.108 55.246 7.888 23.905 12.675 34.781 17.956 40.796 2.158 2.458 3.515 4.878 3.015 5.378s-.346.772.341.603c.688-.168 2.886.368 4.886 1.19 6.37 2.623 28.443 7.387 41.262 8.906 6.819.809 13.71 2.33 15.312 3.38 3.576 2.343 3.765 6.07.415 8.162-3.526 2.202-3.17 2.864 2.448 4.547 5.793 1.736 6.808 2.976 5.781 7.068-.634 2.526-1.814 3.169-7.305 3.98-3.602.53-7.252.893-8.111.804-2.986-.308-1.54 1.767 2.353 3.38 6.297 2.608 11.23 7.5 14.375 14.255 2.933 6.298 3.963 16.158 1.827 17.478-.623.385-3.133-2.086-5.58-5.49-5.811-8.09-9.782-9.176-34.061-9.323l-18.899-.114-8.912-4.571c-4.901-2.515-9.2-4.106-9.552-3.536-.353.57 3.83 6.386 9.296 12.923 5.465 6.537 10.9 13.749 12.077 16.025 2.77 5.356 3.93 20.3 1.777 22.893-2.482 2.99-3.685 2.282-6.234-3.663-2.762-6.444-7.362-9.355-16.076-10.172-11.01-1.032-21.365-10.198-29.89-26.458-3.763-7.178-5.314-8.206-5.314-3.522 0 8.386-7.427 17.345-16.65 20.084-8.333 2.475-16.34 10.19-19.055 18.362-1.098 3.306-2.527 6.01-3.176 6.01-2.38 0-3.84-7.112-3.335-16.25.443-8.022 1.362-11.123 6.372-21.49 8.005-16.565 9.198-22.314 7.323-35.282-2.5-17.292-9.218-33.573-26.81-64.973-12.83-22.897-16.887-30.71-22.542-43.414-7.863-17.66-13.377-35.096-13.377-42.297 0-11.964-.694-13.192-11.086-19.622-11.087-6.86-29.53-20.74-42.039-31.639-4.813-4.192-12.406-9.684-16.875-12.203-4.469-2.519-10.938-6.359-14.375-8.533-3.438-2.175-9.608-4.926-13.712-6.115-4.105-1.189-9.448-3.166-11.875-4.394-2.427-1.228-6.382-2.647-8.788-3.153-2.406-.506-6.344-1.783-8.75-2.838-2.406-1.055-6.906-2.889-10-4.076-3.094-1.187-10.02-3.916-15.392-6.064-9.522-3.809-10.272-3.907-29.869-3.907h-20.1l-16.382 7.35c-9.01 4.041-20.882 8.914-26.382 10.827-5.5 1.913-11.075 4.372-12.388 5.463-1.314 1.092-7.165 9.298-13.002 18.235-9.996 15.304-19.443 28.405-23.18 32.141-1.223 1.223-1.892 9.183-2.556 30.383-.881 28.123-2.108 40.335-6.967 69.351-6.308 37.669-10.227 60.264-12.094 69.717-1.952 9.889-1.938 10.57.323 15.584 1.3 2.884 2.324 5.543 2.276 5.909-.204 1.529 10.449 11.714 17.386 16.623 9.563 6.768 22.898 18.844 28.035 25.386 4.905 6.249 7.916 14.289 8.202 21.899.233 6.228-2.438 11.382-4.343 8.379-.566-.892-1.037-2.629-1.048-3.86-.03-3.436-5.151-9.635-10.019-12.125-2.921-1.495-7.16-2.238-12.756-2.236-10.436.002-16.175-2.602-28.461-12.919-4.95-4.156-9.25-7.306-9.555-7.001-.306.305 1.489 6.116 3.987 12.912 8.813 23.97 10.082 33.977 5.569 43.92-2.73 6.014-3.18 6.275-4.99 2.894zM160 230.61c.856-1.031 1.275-1.875.931-1.875-.344 0-1.325.844-2.181 1.875-.856 1.031-1.275 1.875-.931 1.875.344 0 1.325-.844 2.181-1.875z"/></svg>