<svg xmlns="http://www.w3.org/2000/svg" xmlns:dc="http://dublincore.org/documents/dcmi-terms/" height="1616" version="1.2" viewBox="0 0 1077.404 1616" width="1077.404" overflow="inherit"><metadata><dc:description>Silhouette of Ziziphus jujuba, processed by PhyloPic Tools (https://github.com/eweitz/phylopic-tools)</dc:description><dc:source>http://phylopic.org/image/016dc617-7ece-4c29-a1e2-cf2a8aedc9c0</dc:source><dc:license>http://creativecommons.org/publicdomain/mark/1.0/</dc:license></metadata><path d="M1056 96c7.562 13.449-2.914 23.556-8 33-4.981 2.685-9.756 5.577-11 12-12.201 7.455-33.806 16.833-53 19-12.497 1.411-28.172-1.207-35-11-4.916 1.084-8.638 3.362-13 5 23.24 5.427 40.122 17.211 52 34 4.711-.014 9.34 5.286 13 3 2.076.257.273 4.394 2 5 14.636-8.443 20.379 13.868 38 12 4.43 9.904 20.025 8.641 24 19-.343 4.657-3.4 6.6-5 10-11.4-1.155-20.414 5.97-30 5-6.747-.683-16.732-7.69-25-11-11.33-4.537-22.007-9.87-31-16 1.104-7.869-1.787-10.429 1-17 1.372-3.234 7.719-5.325 8-9 .33-4.325-12.86-18.823-16-21-10.646-7.381-30.205-11.94-44-13 5.82-4.18 14.633-5.367 22-8 1.794-2.54 3.48-5.186 4-9 18.984-13.987 36.322-51.738 68-50 11.752.645 27.708 4.097 39 8z" fill-rule="evenodd"/><path d="M955 0c5.648 3.685 13.181 5.486 18 10-1.17 26.422-14.678 52.598-13 82-9.821 19.512-25.583 33.084-42 46-11.278 4.389-24.92 6.413-30 17 8.974-.034 27.266.604 38-1-3.051 4.616-11.521 3.812-18 5-.189 2.917-1.727 10.149 1 14-6.83.458-13.626 3.005-13 8-9.008 3.718-18.048-.163-24-5-7.115 4.884-14.975 9.025-19 17-7.297.003-20.586 11.14-13 20 2.134.467 1.904-1.429 2-3 1.802 3.199 6.776 3.224 10 5-.785 4.118 1.535 5.132 1 9-.426 3.24-6.724.609-7 4 6.859 5.807 15.243 10.09 22 16 16.901.452 32.229-9.019 45-16 12.314-2.761 27.771-.155 37 4 13.865 6.241 31.07 9.357 43 18 8.746 6.337 20.367 16.935 25 27 9.297 20.201 7.967 45.681 14 72-6.027-1.306-13.049-1.617-17-5-25.297 4.538-54.033 3.456-74-5-22.672-16.066-49.085-30.356-62-54-1.353-2.476-1.446-6.829-3-10-1.011-2.063-3.428-3.242-4-5-1.478-4.537-.268-9.547-2-14-3.088-7.937-11.386-14.508-19-19-3.083 1.333 1.863 4.447-1 6-6.654.988-10.384-.949-13-4-5.349 4.256-14.363 3.49-21 3-4.404-3.451 2.187-3.344 1-9-9.18 3.153-14.952 9.714-21 16-15.161 6.839-26.593 17.408-41 25 4.953 2.997 4.228 9.454 2 16-5.545.232-16.854 3.436-21-2-8.783 4.479-15.089 11.765-21 20-6.256 8.716-14.069 22.054-22 31-7.608 8.582-16.658 12.759-21 24 15.265 1.736 27.172 6.828 39 12 8.943-4.723 10.053-17.28 17-24 27.381-21.027 62.216-6.555 94 2 7.835 4.072 13.773 14.007 21 21 2.236 2.164 6.641 2.65 9 5 5.054 5.033 11.63 15.086 18 24 5.695 7.97 13.925 15.92 18 23 3.188 5.539 4.321 12.031 7 17 3.872 7.182 9.479 14.121 11 21 1.242 5.616 1.658 10.467 4 17 2.207 6.158-1.43 11.021-2 17-4.115-.116-9.838-6.659-14-10-7.898.231-12.053-3.281-20-3-17.697-13.668-50.399-.448-72 0-9.998.207-20.309-4.287-31-7-13.324-3.381-27.658-7.515-37-16-5.773-5.244-13.2-10.517-17-14-7.098-6.506-9.365-16.902-15-27-2.571-14.851 6.233-26.396 0-37-10.314-17.544-35.987-12.236-51-3-10.969 6.749-33.107 20.688-37 31 6.198 3.097 21.998 3.206 29-1 6.224 3.409 3.411 10.35 5 17 1.245 5.212 5.408 12.397 5 23-.761 19.749-4.812 46.067-15 55-1.566 48.101-33.406 65.927-75 74-2.794 13.873-6.455 26.878-14 36 11.113 36.553 23.199 72.134 32 111 .189 3.81 7.387.613 9 3 .957 3.624-4.316 1.017-5 3-6.028 14.644-7.658 33.426-10 52-1.826 14.487-1.731 35.234 1 47 4.765 20.521 2.93 47.959 13 59-4.569 10.544-.029 21.719 0 33 .046 17.902-3.215 35.636-4 53-.207 4.572 1.639 8.956 1 14-1.71 13.512.07 33.662 1 50 .844 14.834 5.386 27.714 8 41 .969 4.923.382 10.318 3 14 3.53 1.137 6.234 3.099 11 3-.279 3.055-4.471 2.195-5 5 2.453 32.612-2.269 68.032 6 93 7.848 23.697 9.234 50.678 21 70 18.747-13.253 29.997-34.003 46-50 1.069-3.736-2.483-2.851-2-6 5.896-3.104 4.971-13.029 11-16 3.314-19.019 13.956-30.711 19-48 2.853-2.146 5.234-4.766 9-6 .625-16.379 14.257-25.072 15-38 16.002-20.119 26.635-55.867 25-87 .725-2.275.892-5.108 2-7-3.111-6.04-1.066-21.021-9-25-4.925 1.097-4.328 6.735-8 10-3.682 3.272-13.325 5.568-20 9-8.804 4.525-28.485 12.23-43 6 10.856-24.576-11.01-41.96-14-65-11.136-8.777-9.539-29.546-13-46-1.168-5.554-4.021-9.705-4-15 .041-10.388 6.53-18.56 8-27 28.735-20.673 64.674.861 82 20 10.332-5.39 27.748-12.073 39-3 7.623-7.117 21.09-14.006 31-8 11.64-18.812 41.476-13.544 66-11 2.713-1.287 3.03-4.97 3-9-17.582-4.308-13.175-36.935 6-37-10.337-27.327 1.742-62.151 26-70 1.103-5.897 3.366-10.634 5-16 12.156-14.511 19.025-34.308 32-48 3.451 5.882 6.812 11.854 8 20 17.057 16.694 11.117 54.143 10 81 6.774.337 2.274-5.591 4-9 3.587-8.747 4.812-19.855 11-26-.225-17.765 12.192-28.194 25-27-.737 5.743-13.153 8.072-13 18 8.367-1.967 15.598-5.069 27-4 19.75 12.51 24.53 46.953 10 69 10.865 10.068 32.119 23.57 45 37 18.05 18.818.271 55.485-23 62-3.242 16.758-15.709 24.291-34 26-3.957-5.691-11.375-6.344-15-13-6.118-11.233-4.065-27.962-13-38-3.075-3.455-7.078-4.674-12-8-3.887-7.742-12.678-12.607-12-22-18.28-.28-30.03 5.97-45 9 2.078 21.753-15.506 26.875-36 23-20.307 23.36-23.176 64.157-45 86-13.814 8.25-31.918 18.027-53 13-14.275 31.725-14.835 77.165-27 111 11.102-3.569 30.629-7.368 46-10 7.053-45.947 41.628-64.372 65-94 18.822-12.63 56.294-27.523 88-24 2.546.283 6.529 2.526 11 3 8.197.868 13.311-1.563 14 8-.551 3.782-6.484 2.183-8 5-6.3 8.108-13.631 14.667-19 25-4.104 7.897-5.881 17.879-10 26-6.645 13.098-23.809 27.324-37 40-8.623 8.286-22.734 16.404-34 24-7.464 5.033-30.973 7.77-45 7-9.661-.53-18.906-5.31-25-14-49.972-2.639-59.498 35.169-76 66 3.406 2.785 7.947-1.082 11 1 3.555 2.779 5.401 7.266 12 7-4.715 9.01 3.77 11.554 3 22 12.679-3.186 23.714 2.596 33 6 33.113 24.888 18.975 107.219-36 97-35.108-6.526-63.905-69.398-27-99 6.582-.751 11.187-3.48 19-3 2.83-15.497-14.799-10.534-17-21-16.641 17.693-23.646 45.02-37 66-.591 4.258.719 6.614 1 10-19.429 16.571-35.739 36.26-47 61 .994 2.006 1.951 4.049 3 6 .701 3.701-3.506 2.494-5 4-14.598 88.591-10.671 179.841-22 264-.651 4.842 2.624 10.706-3 14-.319-13.951-4.117-21.609-2-36-2.777 5.011-6.871 13.798-6 18 1.076 5.188 2.289-2.503 0 2-1.936 3.807-.256 11.719-2 17-6.705-30.012 3.706-57.96 2-95-4.795-1.128-3.52 3.813-6 5-1.284 27.513 1.143 44.096-4 72-1.777-23.455 1.689-42.864 0-62-6.7 8.181-11.983 18.911-16 29-9.869 24.788-19.206 50.563-33 72-1.278-2.652 4.432-6.871 4-12-10.524 4.142-10.111 19.222-18 26 4.262-25.03 24.127-37.095 29-65-8.936 6.064-12.856 17.144-17 28-9.807 11.193-16.568 25.432-25 38 7.946-24.056 26.605-46.061 35-73 5.536-2.131 3.934-11.399 9-14 7.675-25.828 19.101-56.107 28-84-1.286-11.558 6.001-18.96 4-28 1.005-5.672-7.865-1.469-6-8-.61-3.944 5.49-1.176 8-2 18.145-44.433 15.965-107.448 7-160-1.962-11.503-7.564-26.869-11-37-3.501-10.324.798-19.129-10-22 4.952-15.129 7.25-37.721 7-55-.33-22.828-9.894-42.826-14-64-3.261-16.814 1.664-38.922-5-52-4.308-8.453-24.996-18.786-36-26-.619-.405-.531-2.746-1-3-8.656-4.693-26.114-11.703-34-14-7.228-2.105-26.779-6.519-35-4-9.869 3.024-13.836 15.219-21 21 1.643 13.858-8.076 28.667-5 43 2.316 10.795 8.012 12.015 7 27-2.67 39.532-25.209 54.604-48 74-17.564-2.101-54.581 9.629-58-5-2.759-11.806 18.607-15.023 23-23 8.053-14.946 14.992-31.008 22-47-2.429-26.429 12.064-35.936 23-49 20.72-10.947 35.197-28.137 50-45-7.886-8.159-20.177-7.706-32-11-8.662-2.413-16.8-7.36-26-10-6.532-1.874-14.729-1.538-22-3-5.654-1.137-11.042-4.229-16-5-18.469-2.875-34.598 1.174-50 4-1.274 6.633 7.095 8.872 5 13-.483 5.038-3.796-.518-6 0-2.215.785.19 6.19-4 5-4.833-.446-2.393-6.623-2-10-5.066-.733-5.575 3.092-7 6-4.049-1.074-6.951-1.074-11 0-4.488-4.771-3.355-7.529-2-15 5.119 2.086 6.073-1.477 9-4-16.768-3.907-43.177-.577-60 2-6.921 11.412-15.137 21.53-34 21-7.692 2.771-3.146 10.261-3 18 .351 18.542-15.162 29.339-22 44-6.677 24.323-.492 61.509-10 83-11.612 13.055-25.448 23.886-39 35-.891 5.775-3.872 9.462-8 12-9.463-10.777-17.73-27.467-19-45-2.453-33.881 5.309-78.227 22-99 7.326-9.117 18.772-12.624 25-20-25.656-2.345-16.178-24.201-4-35 4.562-4.046 9.198-9.014 18-9 2.98.005 6.583 3.284 8 3 4.353-.874 7.354-7.521 10-9-21.665 1.331-37.306-3.361-53-8-2.193-3.8 2.006-3.795 2-8 6.731 1.199 13.362 4.043 21 5 10.859 1.36 28.256 4.951 38 2 4.479-1.356 5.047-5.777 8-8 5.251-3.953 14.69-8.175 25-7 7.086.808 12.339 4.684 22 2-2.693-6.64-9.962-8.704-12-16-25.302 1.207-41.713-6.48-55-19-13.492-12.713-35.724-13.395-32-41-1.289-9.803-13.336-17.984-13-27 .361-9.684 11.082-12.646 17-20 20.99-9.259 43.235-5.866 65 2 20.013 18.583 44.037 49.331 30 89-1.616 4.566-5.364 9.463-5 14 1.159 14.447 22.865 26.627 39 28 8.122.691 16.809-2.047 26-1 31.308 3.566 66.739 5.386 97 7 .089-4.756-5.028-4.306-8-6-3.69-7.615 1.482-8.885 3-16 4.452.672 5.166 2.859 10 1v6c6.333 1.667 6.85-2.483 11-3 4.568 5.506-1.867 8.571-5 12 5.666 3.038 10.237-7.514 15-3 1.525 2.025.574 7.979-4 7 2.244 2.809 4.24 5.546 1 9 15.217 8.449 34.91 12.424 51 20 38.662 2.671 61.849 20.818 89 35 3.745.079 3.022-4.311 8-3 7.118-53.343 1.876-110.122-5-159-.74-5.264-3.972-9.768-2-15-3.239-8.809-19.625-19.465-28-8 21.198 58.73-35.433 82.958-69 106-1.131 8.202-8.214 10.452-12 16-16.143 1.143-19.052-10.948-30-15-14.308-18.639-10.41-58.045 7-72 1.643-9.215 9.433-14.279 18-20 16.883-11.273 32.724-25.893 57-25 12.728.468 25.967 6.791 35-3 9.583-1.25 12.813 3.854 20 5 1.876-21.29 10.707-40.61 7-62-1.992-11.493-11.41-21.779-17-34-4.157-9.09-6.346-19.591-10-29-4.34-11.174-7.502-21.801-9-32-1.197-8.156 3.43-14.746 3-21-.752-10.929-15.816-24.157-22-32-6.082-7.714-8.922-14.601-14-17-11.323.01-18.098 4.568-22 12 2.169 1.498 5.629 1.705 9 2 22.78 22.542 3.231 65.726-23 70-52.88 8.617-46.942-71.364-9-77 9.835-1.461 12.111 1.773 17-1 3.973-2.253 2.446-7.162 8-12 1.516-1.32 6.763-1.09 9-5-9.845-11.488-22.169-20.497-37-27-2.52-9.813-13.38-11.287-19-18-4.47-12.53-15.007-18.993-20-31-4.837 1.111-8.862-2.616-13-5 .253-3.414 2.528-4.805 2-9-4.497-6.75-23.859-11.799-34-18-2.717-1.662-5.991-6.067-12-5-4.597.816-8.484 6.955-11 12-12.111 4.979-25.548 17.505-42 20-22.51 3.414-42.237-4.854-61-9-14.62-10.047-28.569-20.764-42-32-5.315-.352-10.525-.809-14-3-1.464-4.439.007-5.869 0-11 18.554-10.446 25.648-32.351 43-44-18.078-14.922-44.898-21.102-80-19-10.363 8.863-6.902 20.166-9 33-2.234 13.667-17.659 31.171-28 40-11.518 9.833-24.353 18.761-35 31-6.655 7.649-11.024 13.118-15 24-17.726-.551-32.401 5.132-45 11 1.053-20.28 13.044-29.623 20-44 10.063-2.27 9.527-15.139 21-16 9.526-32.808 42.928-41.739 74-53 3.845-3.155 2.124-11.876 4-17-6.383 10.394-32.531 11.558-34-4-16.888-1.703-41.604-16.898-66-8-1.781-14.639 23.979-6.808 37-8-4.362-5.972-5.235-15.431-5-26-18.385-9.948-31.949-24.717-38-47-3.575-3.425-6.157-7.843-10-11-8.262.262-14.55-1.45-18-6 2.344-13.656 15.917-16.083 23-25 17.806-4.41 29.804 3.675 42 8 5.575 7.843 17.054 15.343 21 27 5.524 16.32-.778 33.961-10 45-.58 4.753-1.445 9.221-1 15 5.127-.152 4.522-4.494 10-2 4.48.187.162 9.171 7 7-2.083 1.25-4.217 2.449-6 4 3.962 3.552 8.062 9.386 3 14 3.195 2.472 9.66 1.674 12 5 4.867-9.137 25.682-15.244 31-2 3.215-2.396 10.895-2.994 14 0 .866-6.422 7.811-12.538 4-15 .377-6.067 7.597-7.288 12-4 1.723 8.39-3.936 9.398-8 12 5.69 7.31 21.135 4.865 32 7 1.486-1.514 1.611-4.389 2-7 3.056.723 3.644-1.022 6-1 5.256-1.256 2.901 5.099 7 5-1.304-8.775 5.134-15.399 8-23 26.49-10.626 39.649 13.033 39 39 32.995-12.607 87.857-1.235 100 24 4.625 9.612 3.137 21.85 10 33v8c18.838 5.947 34.645 18.726 52 23 4.633-5.367 8.959-11.041 10-20 11.601-16.091 29.669-35.17 58-28 2.626-.707 1.974-4.693 4-6-3.512-4.155-8.332-7.001-15-8-13.55-26.117-34.938-44.396-74-45-2.382-3.951-6.457-6.209-10-9-1.942-21.188-23.459-31.111-35-46-5.778-1.222-9.528-4.472-13-8-18.403 1.07-19.974-14.692-32-20-12.449 2.832-25.38 4.02-37 2-32.808-5.702-45.44-32.994-60-57-4.464-2.175-8.77.994-15 0-9.341-10.992-8.259-32.408-19-42 .622-6.289-2.873-8.46-3-14-2.921-2.688-7.946-7.674-5-13 4.134-2.621 6.501 3.794 10 5 13.154-8.846 36.265-7.735 51-15 18.084 3.582 30.206 13.128 39 26 1.257-9.076 8-12.667 11-20 4.344-1.468 7.969 1.797 14 0 1.996 3.338 4.406 6.261 10 6 11.32 14.68 19.587 32.413 30 48-.365 9.523.506 16.45 0 24-.913 13.619-9.858 25.701-9 34 1.046 10.117 16.677 13.042 16 28 9.149 9.518 20.485 16.848 31 25-3.152-8.854-10.666-24.095-12-40-.875-10.436.776-23.509 0-36-.876-14.102-3.042-30.553-4-43-.721-9.364-2.941-15.634 4-20 8.064.803 11.69 10.442 20 11-.409 2.409 1.826 2.174 1 5 15.596 7.605 33.86 22.214 46 36 7.629 8.664 19.102 21.975 22 32 1.979 6.847 2.454 18.239 3 24 1.637 17.271-2.491 31.447-5 47-4.221 2.112-6.196 6.471-9 10-2.095 27.694 27.914 31.225 37 51 4.092 1.908 9.166 2.834 11 7 3.044.377 1.698-3.635 4-4 9.166 8.834 17.124 18.876 23 31 13.699 6.968 24.071 17.263 33 29 17.025-12.975 35.605-24.394 58-32 6.462-12.62 22.594-22.11 30-32h4c6.431-7.059 18.627-16.592 30-22 6.546-7.788 12.716-15.951 21-22 3.331-8.546 11.456-17.695 19-25 1.604-3.73 1.77-8.897 6-10 1.933-4.4 1.533-11.134 7-12 .378-6.623 3.504-10.496 7-14-3.066-12.716 4.009-30.212 0-44-3.398-11.687-27.688-14.162-37-23-2.047-1.942-6.229-7.007-8-10-10.513-17.774-19.1-43.769-22-67-1.686-13.504 6.582-22.308 6-37 3.671-7.184 9.955-9.63 16-15 9.975-8.86 12.473-26.957 29-29 8.931 19.521 34.43 38.365 14 60 2.48 33.499 25.391-16.868 32 8 4.852-1.787 8.702.927 13-2 3.64 9.791 6.214 21.826 5 33-2.486 22.888-7.297 51.715-22 64-4.876 4.074-11.578 5.02-16 10-1.412 12.185-.695 24.401 1 36 5.426 1.093 2.863-5.803 9-4 4.727-.394 2.165 6.501 6 7 22.933-11.734 43.501-25.833 64-40 .451-5.549 5.978-6.022 6-12 20.516-16.818 36.645-38.022 60-52 .442-7.224 3.971-11.363 8-15 8.524-29.476 16.296-59.704 30-84 4.288-2.378 7.27-6.064 8-12 6.215 1.015 7.238-10.377 16-10 2.553-4.114 4.275-9.058 7-13-6.702-8.771-2.837-20.72 4-26h3zM304 268c2.735 7.265 4.766 15.234 14 16-1.962-7.486-6.444-17.4-14-16zm83 76c9.722-1.25 17.331 4.48 25 2 1.944-3.457-1.752-8.543-3-12-11.113-.554-19.844-3.49-30-5 1.986 5.681 5.409 9.924 8 15zm-171 16c1.181 2.485 6.33 1.003 7 4 .147 2.48.186 4.853-2 5-7.887-.446-13.899-2.768-21-4 7.151 8.244 22.237 12.389 33 9-3.23-6.003-11.558-28.939-17-14zm295 94c2.248 4.085 1.28 11.387 4 15 .48-5.853 6.581-6.086 6-13-1.222-3.707-7.171-5.271-10-2zm-58 74c2.171-10.694 14.931-5.515 18-16-8.614-5.053-11.075-16.259-16-25-13.881 5.268-31.256 1.014-43 0 10.518 16.815 24.512 30.155 41 41zm26 4c-6.801-.135-11.031 2.302-13 7 21.133 15.319 39.104 35.275 55 53 11.885-17.244 2.044-31.668 0-55-1.56-17.8 1.803-31.322-8-37-2.662 19.338-23.434 20.566-34 32zm70 162c-3.877-16.456-9.831-30.835-15-46-1.182-.144-2.268-1.781-3 0 3.176 18.158 9.096 33.571 18 46zm433 40c-15.295 4.987-20.243 17.847-26 34 4.786 1.119 4.867-2.466 8-3 4.049 6.034 13.031 6.463 7 14 4.726.611 5.437.284 9-1 .722 4.509 7.192 2.631 14 5 4.376-19.38 6.666-43.375-12-49zm-55 78c3.809-.475 6.242.424 7 3 2.921 12.587-8.002 11.331-9 20 .223 1.429 4.977-.929 8 0 9.66-13.806 7.804-35.072 12-48-.221-.779-.838-1.163-2-1-3.418 10.583-15.199 12.8-16 26zm-35 9c.859 6.525-2.061 9.272-2 15 7.996-.663 9.213 5.453 14 8 4.325-4.011 6.046-7.551 6-14-4.37.37-3.646-4.354-9-3 .851-.835 2.739-7.815-1-7-.744 2.256-5.609.391-8 1zM163 953c4.073 6.443-2.81 15.819-1 20 7.965-4.035 17.893-6.107 20-16-4.029-2.638-7.358-5.975-7-13-6.747.253-8.648 5.353-12 9zm581 22c2.766 7.124-.139 15.911 6 18 .856-6.92 1.28-21.056 0-27-.166 4.834-4.506 5.494-6 9z" fill-rule="evenodd"/></svg>